<svg height="512pt" viewBox="0 0 512 512" width="512pt" xmlns="http://www.w3.org/2000/svg"><path d="m512 256c0 141.386719-114.613281 256-256 256s-256-114.613281-256-256 114.613281-256 256-256 256 114.613281 256 256zm0 0" fill="#ffdf47"/><path d="m512 256c0-12.902344-.964844-25.582031-2.808594-37.972656l-116.527344-116.527344h-273.328124l-80.691407 137.902344 267.980469 267.582031c117.136719-23.496094 205.375-126.929687 205.375-250.984375zm0 0" fill="#fdc000"/><path d="m384.0625 116.5h-256.125l-70.289062 120.121094 198.351562 185.109375 198.351562-185.109375zm0 0" fill="#ff0335"/><path d="m454.351562 236.621094-198.351562 185.109375v-305.230469h128.058594zm0 0" fill="#c2001b"/><path d="m256 442.246094-217.355469-202.84375 80.691407-137.902344h273.328124l80.691407 137.902344zm-179.34375-208.402344 179.34375 167.367188 179.34375-167.367188-59.882812-102.34375h-238.921876zm0 0" fill="#fff"/><path d="m392.660156 101.5h-136.660156v30h119.460938l59.878906 102.339844-179.339844 167.371094v41.039062l217.359375-202.851562zm0 0" fill="#fff5cb"/><path d="m376.417969 242.253906c-.261719-.441406-52.136719-62.734375-120.617188-62.734375-68.476562 0-120.621093 62.746094-120.621093 62.746094h.402343c.261719.441406 56.066407 62.734375 120.617188 62.734375 64.546875 0 120.621093-62.746094 120.621093-62.746094zm0 0" fill="#fff"/><path d="m376.820312 242.261719s-56.070312 62.738281-120.621093 62.738281h-.199219v-125.480469c68.378906.121094 120.160156 62.289063 120.421875 62.742188zm0 0" fill="#fff5cb"/><path d="m302.714844 242.261719c0 25.796875-20.914063 46.714843-46.714844 46.714843s-46.714844-20.917968-46.714844-46.714843c0-25.800781 20.914063-46.714844 46.714844-46.714844s46.714844 20.914063 46.714844 46.714844zm0 0" fill="#00acea"/><path d="m302.71875 242.261719c0 25.796875-20.917969 46.71875-46.71875 46.71875v-93.429688c25.800781 0 46.71875 20.910157 46.71875 46.710938zm0 0" fill="#004eb1"/><path d="m280.359375 242.261719c0 13.449219-10.90625 24.355469-24.359375 24.355469s-24.359375-10.90625-24.359375-24.355469c0-13.453125 10.90625-24.359375 24.359375-24.359375s24.359375 10.90625 24.359375 24.359375zm0 0" fill="#ffec97"/><path d="m280.359375 242.261719c0 13.449219-10.910156 24.359375-24.359375 24.359375v-48.722656c13.449219 0 24.359375 10.910156 24.359375 24.363281zm0 0" fill="#ffdb2d"/></svg>