<svg height="512pt" viewBox="0 0 512 512" width="512pt" xmlns="http://www.w3.org/2000/svg"><path d="m0 256c0-141.386719 114.613281-256 256-256 51.488281 0 99.429688 15.199219 139.574219 41.359375 21.492187 14.007813 19.332031 38.253906 35.703125 57.890625 10.78125 12.925781 41.730468 19.828125 49.824218 34.726562 19.707032 36.273438 30.898438 77.839844 30.898438 122.023438 0 141.386719-114.613281 256-256 256-51.488281 0-99.425781-15.199219-139.570312-41.355469-17.3125-11.28125-22.324219-36.628906-36.398438-51.644531-15.03125-16.035156-38.871094-21.984375-49.40625-41.476562-19.535156-36.15625-30.625-77.542969-30.625-121.523438zm0 0" fill="#4fbbef"/><path d="m80.03125 419c14.074219 15.015625 19.085938 40.363281 36.398438 51.644531 40.144531 26.15625 88.082031 41.355469 139.570312 41.355469 141.386719 0 256-114.613281 256-256 0-44.183594-11.191406-85.75-30.898438-122.023438-8.09375-14.898437-39.042968-21.800781-49.824218-34.726562-16.371094-19.636719-14.210938-43.882812-35.703125-57.890625h-.003907l-56.101562 27.390625 2.253906 4.613281c-10.371094 4.96875-14.894531 5.4375-37.582031-1.035156-20.3125-5.777344-41.429687 4.03125-59.609375 13.050781l-98.832031 49.011719c-14.6875 7.300781-21.339844 23.789063-14.859375 36.878906.441406.871094.921875 1.730469 1.449218 2.53125.789063 1.195313 1.679688 2.304688 2.65625 3.324219l60.21875 60.226562c-4.433593 19.242188-4.855468 43.328126 10.695313 63.558594l-27.832031-27.808594s-28.03125 25.683594-10.796875 43.125l17.277343 17.113282c-8.285156-2.546875-14.609374-4.496094-15.929687-4.910156-7.078125-2.167969-15.660156-5.859376-24.148437-1.648438-.597657.292969-9.472657 4.625-23.234376 11.347656l-1.90625-3.910156-88.660156 43.300781c.003906.003907.003906.011719.003906.015625 10.539063 19.484375 34.371094 25.433594 49.398438 41.464844zm0 0" fill="#009ae5"/><path d="m366.300781 377.609375-98.832031 49.011719c-18.167969 9.019531-39.296875 18.828125-59.597656 13.050781-25.472656-7.261719-28.042969-5.792969-41.691406.976563l-54.710938 26.671874c-21.640625-14.832031-40.898438-32.898437-57.046875-53.511718-3.59375-4.570313-7.03125-9.277344-10.300781-14.097656l103.410156-50.640626c1.769531-.871093 3.757812-1.070312 5.539062-.511718l92.007813 27.953125c1.582031.476562 3.34375.378906 4.941406-.261719.199219-.078125.402344-.160156.601563-.261719l92.1875-45.738281c13.710937-6.800781 29.5625-3.171875 36.902344 7.949219.527343.800781 1.007812 1.660156 1.449218 2.53125 6.480469 13.089843-.160156 29.578125-14.859375 36.878906zm0 0" fill="#ffc473"/><path d="m250.621094 374.820312c-.179688.488282-.382813.96875-.601563 1.429688-4.507812 9.480469-17.699219 14.019531-27.808593 10.890625 0 0-22.472657-6.949219-22.570313-6.980469l-46.8125-14.511718-98.40625 48.160156c-3.59375-4.570313-7.03125-9.277344-10.300781-14.097656-4.042969-5.941407-7.832032-12.0625-11.359375-18.339844 53.527343-26.210938 110.128906-53.832032 111.667969-54.589844 8.492187-4.210938 17.070312-.519531 24.148437 1.648438 4.511719 1.410156 67.460937 20.761718 67.460937 20.761718 4.972657 1.539063 9.3125 4.957032 12.132813 9.238282 3.207031 4.878906 4.476563 10.839843 2.449219 16.390624zm0 0" fill="#ffdba9"/><path d="m172.53125 443.25-56.101562 27.390625c-35.800782-23.332031-65.398438-55.371094-85.800782-93.121094l88.660156-43.300781zm0 0" fill="#ff001b"/><path d="m172.53125 443.25-56.101562 27.390625c-23.691407-15.441406-44.667969-34.691406-62.070313-56.890625l83.789063-40.921875zm0 0" fill="#c2001b"/><path d="m467.890625 112.289062-103.421875 50.640626c-1.769531.871093-3.757812 1.070312-5.539062.511718l-92.007813-27.953125c-1.78125-.539062-3.78125-.347656-5.53125.523438l-92.199219 45.738281c-13.710937 6.800781-29.5625 3.171875-36.902344-7.949219-.527343-.800781-1.007812-1.660156-1.449218-2.53125-6.480469-13.089843.171875-29.578125 14.859375-36.878906l98.832031-49.011719c18.179688-9.019531 39.296875-18.828125 59.609375-13.050781 25.460937 7.261719 28.039063 5.792969 41.679687-.976563l54.710938-26.671874c21.667969 14.839843 40.929688 32.929687 57.109375 53.570312 3.578125 4.558594 6.988281 9.238281 10.25 14.039062zm0 0" fill="#ffdba9"/><path d="m479.238281 130.628906c-53.527343 26.210938-110.128906 53.832032-111.667969 54.589844-8.492187 4.210938-17.070312.519531-24.140624-1.648438-4.519532-1.410156-67.46875-20.761718-67.46875-20.761718-4.972657-1.539063-9.3125-4.957032-12.132813-9.238282-3.207031-4.878906-4.46875-10.839843-2.4375-16.390624 3.800781-10.441407 17.789063-15.601563 28.398437-12.320313 0 0 22.472657 6.949219 22.582032 6.980469l46.800781 14.511718 98.417969-48.160156c.019531.019532.03125.039063.050781.058594 3.578125 4.558594 6.988281 9.238281 10.25 14.039062 4.039063 5.929688 7.828125 12.050782 11.347656 18.339844zm0 0" fill="#ffc473"/><path d="m481.378906 134.480469-88.667968 43.300781-53.242188-109.03125 56.101562-27.390625c23.699219 15.441406 44.667969 34.691406 62.070313 56.890625 8.890625 11.339844 16.839844 23.460938 23.738281 36.230469zm0 0" fill="#c2001b"/><path d="m457.640625 98.25-83.789063 40.921875-34.382812-70.421875 56.101562-27.390625c23.699219 15.441406 44.667969 34.691406 62.070313 56.890625zm0 0" fill="#ff001b"/><path d="m303.421875 202.828125-7.871094 18.625c-7.496093-26.152344-39.550781-57.457031-39.550781-57.457031s-32.054688 31.304687-39.550781 57.457031l-7.871094-18.625s-58.429687 97.066406 47.421875 129.171875c105.851562-32.105469 47.421875-129.171875 47.421875-129.171875zm0 0" fill="#ffec97"/><path d="m255.992188 331.992188v-167.992188s32.066406 31.300781 39.558593 57.457031l7.871094-18.632812s58.429687 97.074219-47.429687 129.167969zm0 0" fill="#ffdb2d"/><path d="m255.996094 227.554688s-72.445313 61.816406 0 91.769531c72.445312-29.953125 0-91.769531 0-91.769531zm0 0" fill="#ffb74f"/><path d="m256 319.324219v-91.769531s72.4375 61.8125 0 91.769531zm0 0" fill="#ff9a00"/><path d="m178.027344 273.101562s-36.902344 33.808594 0 50.191407c36.902344-16.382813 0-50.191407 0-50.191407zm0 0" fill="#ffec97"/><path d="m178.027344 323.296875v-50.195313s36.898437 33.808594 0 50.195313zm0 0" fill="#ffdb2d"/><path d="m333.976562 273.101562s-36.902343 33.808594 0 50.191407c36.898438-16.382813 0-50.191407 0-50.191407zm0 0" fill="#ffec97"/><path d="m333.976562 323.296875v-50.195313s36.898438 33.808594 0 50.195313zm0 0" fill="#ffdb2d"/></svg>