<svg height="512pt" viewBox="0 0 512 512" width="512pt" xmlns="http://www.w3.org/2000/svg"><path d="m512 256c0 141.386719-114.613281 256-256 256s-256-114.613281-256-256 114.613281-256 256-256 256 114.613281 256 256zm0 0" fill="#004eb1"/><path d="m512 256c0-12.105469-.859375-24.007812-2.484375-35.664062l-118.183594-118.183594h-30v17.382812l-34.128906-34.226562c-3.226563-4.355469-8.394531-7.195313-14.199219-7.195313h-3.617187c-4.152344 0-7.96875 1.457031-10.992188 3.878907l-9.925781-10.976563c-3.25-3.753906-8.035156-6.140625-13.355469-6.140625h-3.617187c-9.386719 0-17.101563 7.414062-17.640625 16.671875l-3.28125-3.96875c-3.242188-3.761719-8.023438-6.15625-13.351563-6.15625h-3.617187c-9.726563 0-17.691407 7.960937-17.691407 17.691406v3.507813l-3.019531-3.691406c-3.242187-3.90625-8.117187-6.40625-13.5625-6.40625h-3.613281c-9.730469 0-17.691406 7.960937-17.691406 17.691406v63.953125l-45.878906-45.640625h-30v69.050781l38.183593 37.792969h-13.183593v51.796875l-32.496094-31.839844h-30v69.050781l62.496094 61.09375v28.332032l107.28125 107.285156c7.113281.589844 14.304687.910156 21.570312.910156 141.386719 0 256-114.613281 256-256zm0 0" fill="#002d6b"/><path d="m193.949219 232.65625h118.457031v180.515625h-118.457031zm0 0" fill="#ffdba9"/><path d="m253.808594 232.660156h58.601562v180.511719h-58.601562zm0 0" fill="#ffd199"/><path d="m282.351562 247.730469h-58.34375c-25.289062 0-45.980468-20.691407-45.980468-45.980469v-70.074219c0-16.238281 13.285156-29.523437 29.519531-29.523437h91.265625c16.234375 0 29.519531 13.285156 29.519531 29.523437v70.074219c-.003906 25.289062-20.691406 45.980469-45.980469 45.980469zm0 0" fill="#ffc473"/><path d="m328.328125 131.671875v70.078125c0 25.289062-20.6875 45.980469-45.976563 45.980469h-28.542968v-145.582031h45c16.242187 0 29.519531 13.292968 29.519531 29.523437zm0 0" fill="#ffc473"/><path d="m199.332031 161.480469h-3.613281c-9.730469 0-17.691406-7.960938-17.691406-17.695313v-43.570312c0-9.730469 7.960937-17.691406 17.691406-17.691406h3.613281c9.730469 0 17.691407 7.960937 17.691407 17.691406v43.570312c0 9.734375-7.960938 17.695313-17.691407 17.695313zm0 0" fill="#ffb74f"/><path d="m237.222656 153.054688h-3.613281c-9.730469 0-17.695313-7.960938-17.695313-17.695313v-46.246094c0-9.730469 7.964844-17.691406 17.695313-17.691406h3.613281c9.730469 0 17.691406 7.960937 17.691406 17.691406v46.246094c0 9.734375-7.960937 17.695313-17.691406 17.695313zm0 0" fill="#ffd199"/><path d="m275.113281 153.054688h-3.617187c-9.730469 0-17.691406-7.960938-17.691406-17.695313v-52.792969c0-9.730468 7.960937-17.691406 17.691406-17.691406h3.617187c9.730469 0 17.691407 7.960938 17.691407 17.691406v52.796875c0 9.730469-7.960938 17.691407-17.691407 17.691407zm0 0" fill="#ffaa20"/><path d="m313.003906 159.746094h-3.617187c-9.730469 0-17.691407-7.960938-17.691407-17.691406v-46.25c0-9.730469 7.960938-17.691407 17.691407-17.691407h3.617187c9.726563 0 17.691406 7.960938 17.691406 17.691407v46.25c-.003906 9.726562-7.964843 17.691406-17.691406 17.691406zm0 0" fill="#ffc473"/><path d="m246.746094 248.0625v-25.636719c0-21.964843 17.808594-39.769531 39.773437-39.769531v-14.265625c-18.453125 0-34.839843-11.800781-40.691406-29.300781l-2.0625-6.179688h52.472656c19.734375 0 35.734375 16 35.734375 35.734375v35.027344c0 22.949219-18.605468 44.390625-41.558594 44.390625zm0 0" fill="#ffdba9"/><path d="m331.96875 168.648438v35.023437c0 22.949219-18.597656 44.386719-41.558594 44.386719h-36.601562v-48.25c7.171875-10.367188 19.152344-17.148438 32.710937-17.148438v-14.269531c-9.230469 0-17.941406-2.949219-25.070312-8.089844-2.820313-2.03125-5.390625-4.402343-7.640625-7.0625v-20.328125h42.429687c19.730469 0 35.730469 16 35.730469 35.738282zm0 0" fill="#ffd199"/><path d="m193.949219 255.46875h118.457031v187.203125h-118.457031zm0 0" fill="#ff0335"/><path d="m253.808594 255.46875h58.601562v187.203125h-58.601562zm0 0" fill="#c2001b"/><path d="m193.949219 293.921875h118.457031v30h-118.457031zm0 0" fill="#ffec97"/><path d="m253.808594 293.921875h58.601562v30h-58.601562zm0 0" fill="#ffdb2d"/><g fill="#fff5cb"><path d="m361.332031 102.152344h30v83.238281h-30zm0 0"/><path d="m402.167969 225.371094h30v108.960937h-30zm0 0"/><path d="m338.5 253.0625h30v103.542969h-30zm0 0"/><path d="m338.5 376.230469h30v33.898437h-30zm0 0"/></g><path d="m102.148438 118.527344h30v69.050781h-30zm0 0" fill="#fff"/><path d="m64.652344 245.328125h30v69.050781h-30zm0 0" fill="#fff"/><path d="m127.148438 225.371094h30v116.480468h-30zm0 0" fill="#fff"/><path d="m127.148438 361.476562h30v42.328126h-30zm0 0" fill="#fff"/></svg>