<svg height="512pt" viewBox="0 0 512 512" width="512pt" xmlns="http://www.w3.org/2000/svg"><path d="m512 256c0 141.386719-114.613281 256-256 256s-256-114.613281-256-256 114.613281-256 256-256 256 114.613281 256 256zm0 0" fill="#ff0335"/><path d="m316.738281 146.359375c-8.183593-8.183594-21.445312-8.183594-29.628906 0l-81.925781 81.925781-31.835938-32.003906c-5.910156-6.078125-12.441406-9.058594-18.160156-7.78125-4.140625.925781-10.480469 5.019531-8.800781 21.894531 3.066406 30.785157 2.222656 66.011719-7.523438 84.210938l-68.242187 68.242187 146.164062 146.164063c12.785156 1.964843 25.878906 2.988281 39.214844 2.988281 115.308594 0 212.796875-76.238281 244.84375-181.054688zm0 0" fill="#c2001b"/><path d="m321.570312 141.523438 181.535157 181.535156c5.789062-21.375 8.894531-43.851563 8.894531-67.058594 0-30.328125-5.285156-59.414062-14.96875-86.410156l-101.761719-101.765625s-107.828125-8.535157-73.699219 73.699219zm0 0" fill="#c2001b"/><path d="m325.0625 314.347656c4.433594-9.507812 2.566406-20.734375-4.640625-27.941406-2.964844-2.964844-6.621094-5.082031-10.648437-6.179688 1.980468-8.347656-.390626-17.042968-6.351563-23.007812-3.816406-3.816406-8.8125-6.222656-14.195313-6.863281.25-6.816407-2.265624-13.34375-7.023437-18.101563-3.976563-3.976562-9.1875-6.40625-14.804687-6.929687l49.339843-49.339844c8.179688-8.183594 8.179688-21.445313 0-29.628906-8.179687-8.179688-21.445312-8.179688-29.625 0l-94.8125 94.8125c-.871093-6.222657-3.207031-14.277344-4.914062-19.796875-6.640625-21.527344-20.984375-35.378906-32.195313-32.871094-4.144531.925781-10.484375 5.019531-8.804687 21.894531 3.070312 30.785157 2.222656 66.007813-7.523438 84.210938l-56.21875 56.21875 96.964844 96.96875 57.027344-57.027344 88.210937-75.957031zm0 0" fill="#ffdba9"/><path d="m324.847656 314.816406-88.210937 75.949219-57.027344 57.027344-43.914063-43.910157 153.527344-153.527343c5.382813.640625 10.382813 3.054687 14.191406 6.867187 5.96875 5.964844 8.339844 14.65625 6.359376 23 4.03125 1.101563 7.6875 3.21875 10.648437 6.179688 7.214844 7.210937 9.070313 18.433594 4.640625 27.945312zm0 0" fill="#ffc473"/><path d="m395.269531 67.824219s-107.828125-8.535157-73.699219 73.699219c82.238282 34.128906 73.699219-73.699219 73.699219-73.699219zm0 0" fill="#ffec97"/><path d="m321.574219 141.523438 73.695312-73.695313s8.539063 107.820313-73.695312 73.695313zm0 0" fill="#ffdf47"/><path d="m369.347656 93.746094s-59.605468-4.71875-40.738281 40.738281c45.460937 18.867187 40.738281-40.738281 40.738281-40.738281zm0 0" fill="#ffb74f"/><path d="m328.609375 134.488281 40.742187-40.742187s4.71875 59.601562-40.742187 40.742187zm0 0" fill="#ff9a00"/><path d="m128.613281 304.855469 96.964844 96.964843-57.988281 57.988282-96.964844-96.964844zm0 0" fill="#7fc8f1"/><path d="m123.671875 415.902344 57.988281-57.988282 43.910156 43.910157-57.988281 57.988281zm0 0" fill="#00acea"/><path d="m90.945312 342.519531 21.210938-21.210937 96.964844 96.964844-21.210938 21.210937zm0 0" fill="#fff"/><path d="m144 395.574219 21.214844-21.214844 43.910156 43.910156-21.214844 21.214844zm0 0" fill="#fff5cb"/></svg>