<svg height="512pt" viewBox="0 0 512 512" width="512pt" xmlns="http://www.w3.org/2000/svg"><path d="m512 256c0 141.386719-114.613281 256-256 256s-256-114.613281-256-256 114.613281-256 256-256 256 114.613281 256 256zm0 0" fill="#7fc8f1"/><path d="m512 256c0-8.984375-.46875-17.859375-1.371094-26.605469l-109.03125-109.03125c-36.328125-38.976562-88.109375-63.363281-145.597656-63.363281-109.90625 0-199 89.09375-199 199 0 57.488281 24.386719 109.269531 63.363281 145.597656l109.035157 109.03125c8.742187.902344 17.617187 1.371094 26.601562 1.371094 141.386719 0 256-114.613281 256-256zm0 0" fill="#00acea"/><path d="m455 256c0 109.90625-89.09375 199-199 199s-199-89.09375-199-199 89.09375-199 199-199 199 89.09375 199 199zm0 0" fill="#fff"/><path d="m455 256c0 109.898438-89.101562 199-199 199v-398c109.898438 0 199 89.101562 199 199zm0 0" fill="#fff5cb"/><path d="m407.667969 256c0 83.761719-67.90625 151.667969-151.667969 151.667969s-151.667969-67.90625-151.667969-151.667969 67.90625-151.667969 151.667969-151.667969 151.667969 67.90625 151.667969 151.667969zm0 0" fill="#e7001f"/><path d="m407.667969 256c0 83.761719-67.90625 151.667969-151.667969 151.667969v-303.335938c83.761719 0 151.667969 67.90625 151.667969 151.667969zm0 0" fill="#901"/><path d="m358.648438 256c0 56.691406-45.957032 102.648438-102.648438 102.648438s-102.648438-45.957032-102.648438-102.648438 45.957032-102.648438 102.648438-102.648438 102.648438 45.957032 102.648438 102.648438zm0 0" fill="#005ed3"/><path d="m358.648438 256c0 56.6875-45.960938 102.648438-102.648438 102.648438v-205.296876c56.6875 0 102.648438 45.960938 102.648438 102.648438zm0 0" fill="#002d6b"/><path d="m340.941406 313.648438c-18.472656 27.160156-49.621094 45-84.941406 45s-66.46875-17.839844-84.941406-45c.261718-39.867188 21.511718-75.160157 21.511718-75.160157l10.53125 24.910157c10.019532-34.976563 52.898438-76.859376 52.898438-76.859376s42.878906 41.882813 52.898438 76.859376l10.53125-24.910157s21.25 35.292969 21.511718 75.160157zm0 0" fill="#ffec97"/><path d="m340.941406 313.648438c-18.472656 27.160156-49.621094 45-84.941406 45h-.011719v-172.097657s42.890625 41.871094 52.910157 76.847657l10.53125-24.917969s21.25 35.300781 21.511718 75.167969zm0 0" fill="#ffdb2d"/><path d="m298.828125 349.308594c-13.027344 6-27.539063 9.339844-42.828125 9.339844h-.011719c-15.289062 0-29.789062-3.339844-42.816406-9.339844-3.980469-37.808594 42.828125-77.75 42.828125-77.75s46.800781 39.941406 42.828125 77.75zm0 0" fill="#ffb74f"/><path d="m298.820312 349.308594c-13.03125 6-27.53125 9.339844-42.820312 9.339844v-87.089844s46.800781 39.929687 42.820312 77.75zm0 0" fill="#ff9a00"/></svg>