<svg height="512pt" viewBox="0 0 512 512" width="512pt" xmlns="http://www.w3.org/2000/svg"><path d="m512 256c0 141.386719-114.613281 256-256 256s-256-114.613281-256-256 114.613281-256 256-256 256 114.613281 256 256zm0 0" fill="#ff0335"/><path d="m512 256c0-10.03125-.597656-19.917969-1.71875-29.648438l-166.683594-166.683593h-109.460937l-85.40625 128.300781 33.113281 32.925781-47.433594 70.457031 40.453125 40.558594-57.558593 108.753906 58.503906 58.507813c25.226562 8.3125 52.179687 12.828125 80.191406 12.828125 141.386719 0 256-114.613281 256-256zm0 0" fill="#c2001b"/><path d="m343.597656 59.667969h-109.460937l-85.40625 128.300781h55.277343l-69.597656 103.382812h61.921875l-79.027343 149.316407 160.84375-173.859375h-47.699219l70.339843-100.410156h-40.960937zm0 0" fill="#ffec97"/><path d="m300.789062 166.398438-70.339843 100.410156h47.699219l-54.578126 59v-250.257813l10.570313-15.878906h109.460937l-83.773437 106.726563zm0 0" fill="#ffdf47"/><path d="m268.269531 321.789062h56.238281l-50.457031 102.648438 117.953125-124.941406h-40.386718l58.714843-91.191406h-74.742187zm0 0" fill="#ffec97"/><path d="m351.617188 299.5h40.382812l-53.101562 56.25v-147.449219h71.433593zm0 0" fill="#ffdf47"/></svg>