<svg height="512pt" viewBox="0 0 512 512" width="512pt" xmlns="http://www.w3.org/2000/svg"><path d="m512 256c0 141.386719-114.613281 256-256 256s-256-114.613281-256-256 114.613281-256 256-256 256 114.613281 256 256zm0 0" fill="#7fc8f1"/><path d="m512 256c0-11.164062-.71875-22.160156-2.105469-32.945312l-124.957031-124.957032-16.3125 12.121094-16.195312-6.8125-63.296876-63.277344-22.515624 11.917969-21.710938-13.324219 4.375 25.09375-19.382812 16.535156 43.9375 44.265626c-.316407 1.8125-.757813 3.648437-1.324219 5.515624-1.070313 3.503907-2.457031 6.6875-3.871094 9.421876-14.882813-10.722657-33.15625-17.34375-53.007813-18.136719l-40.089843-40.011719-17.882813 3.949219-13.234375-13.617188-1.8125 18.667969-16.996093 7.9375 18.582031 18.742188.90625 7.367187 13.183593 12.539063c-25.167968 16.375-41.703124 44.019531-41.703124 75.359374 0 19.457032 6.390624 37.476563 17.246093 52.273438-1.582031-.589844-3.21875-1.152344-4.941406-1.65625-10.589844-3.085938-25.304687-4.648438-42.539063.84375l-4.96875-4.789062-16.746093 15.078124c-.203125.125-.402344.253907-.601563.382813l-21.976562-6.902344 9.421875 21.167969-13.433594 18.878906 203.988281 203.988282c4.625.246093 9.277344.382812 13.964844.382812 141.386719 0 256-114.613281 256-256zm0 0" fill="#00acea"/><path d="m385.621094 233.753906c3.34375-7.886718 5.191406-16.507812 5.191406-25.542968 0-37.570313-31.789062-68.027344-71.003906-68.027344-6.925782 0-13.621094.957031-19.949219 2.726562.324219-.898437.640625-1.808594.941406-2.742187 7.648438-23.679688 3.324219-46.425781-12.5-65.78125l-23.226562 18.988281c9.132812 11.167969 11.566406 23.191406 7.433593 36.757812-1.066406 3.503907-2.457031 6.6875-3.867187 9.421876-15.886719-11.445313-35.632813-18.230469-57.039063-18.230469-52.476562 0-95.015624 40.753906-95.015624 91.027343 0 19.457032 6.390624 37.476563 17.242187 52.273438-1.578125-.589844-3.214844-1.152344-4.9375-1.652344-15.632813-4.558594-40.242187-5.8125-68.699219 14.074219l17.183594 24.589844c23.339844-16.308594 41.210938-11.921875 50.816406-6.898438.175782 39.109375 33.316406 70.765625 74.175782 70.765625 8.140624 0 15.96875-1.273437 23.296874-3.59375-.019531 1.058594-.027343 2.125-.011718 3.210938.417968 28.078125 12.960937 50.957031 36.28125 66.15625l16.382812-25.132813c-30.875-20.125-22.324218-55.003906-19.285156-64.472656 13.140625 14.585937 32.558594 23.832031 54.25 23.832031 39.574219 0 71.65625-30.738281 71.65625-68.652344 0-12.296874-3.386719-23.835937-9.300781-33.824218 1.546875.011718 3.1875.097656 4.902343.3125 14.039063 1.742187 26.050782 10.535156 35.691407 26.128906l25.515625-15.777344c-17.742188-28.695312-40.050782-37.613281-56.125-39.9375zm0 0" fill="#fff"/><path d="m441.75 273.691406-25.519531 15.777344c-9.640625-15.597656-21.652344-24.390625-35.691407-26.128906-1.71875-.210938-3.359374-.300782-4.898437-.308594 5.910156 9.980469 9.300781 21.519531 9.300781 33.820312 0 37.917969-32.089844 68.648438-71.660156 68.648438-21.691406 0-41.109375-9.25-54.25-23.828125-3.042969 9.46875-11.589844 44.347656 19.277344 64.46875l-16.378906 25.140625c-2.429688-1.582031-4.738282-3.25-6.929688-5.011719v-294.910156c4.800781 2.359375 9.359375 5.109375 13.640625 8.191406 1.410156-2.730469 2.800781-5.910156 3.871094-9.421875 4.128906-13.558594 1.699219-25.589844-7.433594-36.757812l23.222656-18.992188c15.828125 19.359375 20.148438 42.109375 12.5 65.792969-.300781.929687-.609375 1.839844-.941406 2.738281 6.332031-1.769531 13.019531-2.730468 19.949219-2.730468 39.210937 0 71 30.460937 71 68.03125 0 9.039062-1.847656 17.660156-5.1875 25.539062 16.078125 2.328125 38.378906 11.25 56.128906 39.941406zm0 0" fill="#fff5cb"/><path d="m273.027344 268.523438c-3.5 0-6.6875-.683594-9.5625-2.058594-2.878906-1.371094-5.339844-3.175782-7.375-5.414063-2.035156-2.234375-3.617188-4.789062-4.746094-7.667969-1.128906-2.878906-1.695312-5.847656-1.695312-8.902343 0-3.097657.585937-6.085938 1.761718-8.964844 1.171875-2.878906 2.8125-5.410156 4.914063-7.605469 2.101562-2.191406 4.589843-3.9375 7.472656-5.246094 2.875-1.304687 6.019531-1.957031 9.429687-1.957031 3.496094 0 6.683594.6875 9.5625 2.058594 2.878907 1.371094 5.335938 3.1875 7.371094 5.445313 2.039063 2.257812 3.609375 4.824218 4.71875 7.703124 1.105469 2.878907 1.660156 5.800782 1.660156 8.765626 0 3.101562-.589843 6.089843-1.761718 8.96875-1.171875 2.878906-2.800782 5.410156-4.882813 7.601562s-4.558593 3.953125-7.4375 5.28125c-2.878906 1.328125-6.023437 1.992188-9.429687 1.992188zm-12.289063-23.910157c0 1.816407.265625 3.578125.796875 5.28125.53125 1.707031 1.316406 3.222657 2.359375 4.550781 1.039063 1.328126 2.335938 2.390626 3.882813 3.1875 1.550781.796876 3.324218 1.195313 5.316406 1.195313 2.078125 0 3.894531-.421875 5.445312-1.261719 1.550782-.839844 2.832032-1.9375 3.851563-3.289062 1.019531-1.347656 1.78125-2.878906 2.292969-4.582032.507812-1.703124.761718-3.441406.761718-5.214843 0-1.8125-.265624-3.574219-.796874-5.277344-.53125-1.707031-1.328126-3.210937-2.390626-4.515625s-2.359374-2.347656-3.886718-3.125c-1.527344-.773438-3.285156-1.160156-5.277344-1.160156-2.082031 0-3.886719.410156-5.414062 1.230468-1.527344.816407-2.8125 1.890626-3.851563 3.21875-1.042969 1.328126-1.816406 2.847657-2.324219 4.550782-.511718 1.703125-.765625 3.441406-.765625 5.210937zm0 0" fill="#57555c"/><path d="m294.878906 235.910156c-1.109375-2.871094-2.679687-5.441406-4.71875-7.699218-2.039062-2.261719-4.488281-4.070313-7.371094-5.449219-2.878906-1.371094-6.070312-2.050781-9.558593-2.050781-3.410157 0-6.558594.648437-9.441407 1.949218-2.867187 1.308594-5.359374 3.058594-7.46875 5.25-.460937.480469-.898437.980469-1.320312 1.5v30.351563c.339844.4375.710938.867187 1.089844 1.289062 2.039062 2.238281 4.488281 4.039063 7.371094 5.410157 2.878906 1.378906 6.070312 2.058593 9.570312 2.058593 3.398438 0 6.546875-.660156 9.429688-1.988281 2.867187-1.332031 5.347656-3.089844 7.4375-5.28125 2.082031-2.191406 3.703124-4.71875 4.882812-7.601562 1.167969-2.878907 1.757812-5.867188 1.757812-8.96875 0-2.960938-.558593-5.890626-1.660156-8.769532zm-10.199218 13.789063c-.507813 1.699219-1.269532 3.230469-2.289063 4.582031-1.019531 1.347656-2.300781 2.4375-3.851563 3.289062-1.550781.839844-3.367187 1.257813-5.449218 1.257813-1.988282 0-3.761719-.398437-5.308594-1.199219-1.550781-.800781-2.851562-1.859375-3.890625-3.1875-1.039063-1.320312-1.820313-2.839844-2.351563-4.550781-.539062-1.699219-.800781-3.460937-.800781-5.28125 0-1.769531.25-3.5.761719-5.210937.511719-1.699219 1.289062-3.21875 2.328125-4.546876 1.042969-1.332031 2.320313-2.402343 3.851563-3.222656 1.53125-.820312 3.332031-1.230468 5.410156-1.230468 1.988281 0 3.75.390624 5.28125 1.160156 1.527344.78125 2.828125 1.820312 3.890625 3.132812 1.058593 1.296875 1.859375 2.808594 2.386719 4.507813.53125 1.710937.800781 3.472656.800781 5.28125 0 1.769531-.257813 3.507812-.769531 5.21875zm0 0" fill="#2a2a2c"/><path d="m289.132812 40.128906-5.960937 24.769532 18.289063 17.730468-25.398438 1.980469-11.210938 22.878906-9.734374-23.542969-25.21875-3.59375 19.382812-16.535156-4.375-25.09375 21.710938 13.324219zm0 0" fill="#ffdf47"/><path d="m301.460938 82.628906-25.402344 1.980469-11.207032 22.878906-9.730468-23.546875-.121094-.019531v-39l11.621094 7.128906 22.507812-11.921875-5.957031 24.769532zm0 0" fill="#fec000"/><path d="m271.234375 464.351562-2.347656-25.367187-23.035157-10.878906 23.402344-10.070313 3.226563-25.269531 16.8125 19.140625 25.03125-4.738281-13.011719 21.902343 12.238281 22.34375-24.851562-5.605468zm0 0" fill="#ffdf47"/><path d="m301.308594 429.070312 12.242187 22.339844-24.851562-5.601562-17.460938 18.542968-2.347656-25.363281-13.890625-6.558593v-8.257813l14.25-6.140625 3.230469-25.269531 16.808593 19.148437 25.03125-4.738281zm0 0" fill="#fec000"/><path d="m144.425781 71.738281 12.800781 13.710938 18.316407-4.042969-9.089844 16.410156 9.511719 16.167969-18.417969-3.570313-12.441406 14.039063-2.292969-18.617187-17.199219-7.492188 17-7.9375zm0 0" fill="#004eb1"/><path d="m384.9375 98.097656-1.703125 20.25 16.566406 11.769532-19.785156 4.636718-6.074219 19.394532-10.523437-17.386719-20.320313.21875 13.28125-15.382813-6.488281-19.257812 18.734375 7.878906zm0 0" fill="#c2001b"/><path d="m175.566406 372.972656 8.066406 16.933594 18.683594 1.667969-13.613281 12.90625 4.191406 18.285156-16.484375-8.960937-16.09375 9.632812 3.425782-18.441406-14.136719-12.332032 18.601562-2.4375zm0 0" fill="#004eb1"/><path d="m42.058594 267.582031 22.105468 6.945313 17.21875-15.503906.226563 23.167968 20.066406 11.589844-21.964843 7.375-4.820313 22.660156-13.800781-18.605468-23.042969 2.417968 13.433594-18.878906zm0 0" fill="#ff0335"/><path d="m478.464844 295.605469-22.933594-3.296875-8.820312-21.425782-10.226563 20.792969-23.101563 1.769531 16.613282 16.148438-5.453125 22.519531 20.492187-10.808593 19.730469 12.144531-3.949219-22.832031zm0 0" fill="#c2001b"/><path d="m195.457031 256.039062c0 2.035157-.421875 3.808594-1.261719 5.3125-.84375 1.503907-1.996093 2.753907-3.457031 3.753907-1.460937.996093-3.164062 1.75-5.113281 2.257812-1.949219.507813-4.007812.761719-6.175781.761719h-22.980469v-47.152344h26.234375c1.636719 0 3.121094.355469 4.449219 1.0625 1.328125.707032 2.457031 1.625 3.386718 2.753906.929688 1.132813 1.648438 2.414063 2.160157 3.855469.507812 1.4375.765625 2.910157.765625 4.414063 0 2.257812-.566406 4.382812-1.695313 6.375-1.128906 1.996094-2.824219 3.5-5.082031 4.515625 2.703125.796875 4.839844 2.214843 6.410156 4.253906 1.570313 2.035156 2.359375 4.648437 2.359375 7.835937zm-28.09375-25.769531v9.761719h10.691407c1.195312 0 2.257812-.398438 3.1875-1.195312.929687-.796876 1.394531-2.035157 1.394531-3.71875 0-1.546876-.410157-2.746094-1.226563-3.585938-.820312-.839844-1.804687-1.261719-2.957031-1.261719zm17 23.578125c0-1.460937-.421875-2.703125-1.261719-3.71875-.839843-1.019531-1.90625-1.527344-3.1875-1.527344h-12.554687v10.292969h12.089844c1.414062 0 2.589843-.464843 3.519531-1.394531s1.394531-2.148438 1.394531-3.652344zm0 0" fill="#57555c"/><path d="m222.550781 268.523438c-3.496093 0-6.683593-.683594-9.5625-2.058594-2.878906-1.371094-5.335937-3.175782-7.371093-5.414063-2.039063-2.234375-3.621094-4.789062-4.75-7.667969-1.128907-2.878906-1.695313-5.847656-1.695313-8.902343 0-3.097657.585937-6.085938 1.761719-8.964844 1.171875-2.878906 2.808594-5.410156 4.914062-7.605469 2.101563-2.191406 4.59375-3.9375 7.472656-5.246094 2.878907-1.304687 6.019532-1.957031 9.429688-1.957031 3.496094 0 6.6875.6875 9.566406 2.058594 2.875 1.371094 5.332032 3.1875 7.371094 5.445313 2.035156 2.257812 3.609375 4.824218 4.714844 7.703124 1.105468 2.878907 1.660156 5.800782 1.660156 8.765626 0 3.101562-.585938 6.089843-1.757812 8.96875-1.175782 2.878906-2.800782 5.410156-4.882813 7.601562s-4.5625 3.953125-7.441406 5.28125c-2.875 1.328125-6.019531 1.992188-9.429688 1.992188zm-12.285156-23.910157c0 1.816407.265625 3.578125.796875 5.28125.53125 1.707031 1.316406 3.222657 2.355469 4.550781 1.042969 1.328126 2.335937 2.390626 3.886719 3.1875 1.546874.796876 3.320312 1.195313 5.3125 1.195313 2.082031 0 3.894531-.421875 5.445312-1.261719s2.832031-1.9375 3.851562-3.289062c1.019532-1.347656 1.78125-2.878906 2.292969-4.582032.507813-1.703124.761719-3.441406.761719-5.214843 0-1.8125-.265625-3.574219-.796875-5.277344-.53125-1.707031-1.328125-3.210937-2.390625-4.515625s-2.355469-2.347656-3.882812-3.125c-1.527344-.773438-3.289063-1.160156-5.28125-1.160156-2.082032 0-3.886719.410156-5.414063 1.230468-1.527344.816407-2.8125 1.890626-3.851563 3.21875-1.039062 1.328126-1.816406 2.847657-2.324218 4.550782-.507813 1.703125-.761719 3.441406-.761719 5.210937zm0 0" fill="#57555c"/><path d="m340.039062 268.125v-28.226562l-10.230468 20.523437h-5.84375l-10.226563-20.523437v28.226562h-10.894531v-47.152344h11.820312l12.222657 24.636719 12.289062-24.636719h11.753907v47.152344zm0 0" fill="#2a2a2c"/></svg>