<svg height="512pt" viewBox="0 0 512 512" width="512pt" xmlns="http://www.w3.org/2000/svg"><path d="m512 256c0 141.386719-114.613281 256-256 256s-256-114.613281-256-256 114.613281-256 256-256 256 114.613281 256 256zm0 0" fill="#004eb1"/><path d="m512 256c0-20.015625-2.300781-39.496094-6.648438-58.191406l-63.652343-63.652344-24.5625-17.222656-17.222657 24.554687-64.695312-61.167969-29.238281-6.722656-15.984375 69.546875 25.996094 25.867188c-6.191407-2.050781-12.546876-3.851563-19.042969-5.339844l-90.929688-90.074219-29.234375 6.71875 15.984375 69.550782 15.882813 15.246093c-17.015625 4.453125-32.988282 10.980469-47.617188 18.523438l-66.167968-66.703125-24.5625 17.222656 40.96875 58.429688 13.648437 13.199218c-34.808594 24.820313-55.921875 50.222656-55.921875 50.222656l120.523438 120.238282-2.308594 10.042968-51.378906-49.648437-24.566407-17.226563-40.96875 58.429688 127.507813 127.507812c18.695312 4.347657 38.175781 6.648438 58.191406 6.648438 141.386719 0 256-114.613281 256-256zm0 0" fill="#002d6b"/><path d="m442.378906 255.992188c-.402344-.679688-80.695312-97.097657-186.6875-97.097657-105.988281 0-186.691406 97.113281-186.691406 97.113281h.621094c.402344.683594 86.777344 97.097657 186.683594 97.097657s186.691406-97.113281 186.691406-97.113281zm0 0" fill="#fff"/><path d="m443 256s-86.78125 97.105469-186.691406 97.105469h-.308594v-194.210938c105.835938.183594 185.976562 96.410157 186.382812 97.105469zm0 0" fill="#fff5cb"/><path d="m332.300781 256c0 42.140625-34.164062 76.300781-76.300781 76.300781-42.140625 0-76.300781-34.160156-76.300781-76.300781s34.160156-76.300781 76.300781-76.300781c42.136719 0 76.300781 34.160156 76.300781 76.300781zm0 0" fill="#ff0335"/><path d="m332.308594 256c0 42.140625-34.171875 76.308594-76.308594 76.308594v-152.601563c42.136719 0 76.308594 34.152344 76.308594 76.292969zm0 0" fill="#004eb1"/><path d="m295.78125 256c0 21.972656-17.808594 39.785156-39.78125 39.785156s-39.785156-17.8125-39.785156-39.785156 17.8125-39.785156 39.785156-39.785156 39.78125 17.8125 39.78125 39.785156zm0 0" fill="#ffec97"/><path d="m295.785156 256c0 21.96875-17.816406 39.785156-39.785156 39.785156v-79.574218c21.96875 0 39.785156 17.820312 39.785156 39.789062zm0 0" fill="#ffdb2d"/><path d="m376.171875 175.359375 40.964844-58.429687 24.566406 17.222656-40.96875 58.429687zm0 0" fill="#fff5cb"/><path d="m70.300781 134.160156 24.566407-17.222656 40.96875 58.429688-24.566407 17.222656zm0 0" fill="#fff"/><path d="m176.785156 80.324219 29.234375-6.71875 15.988281 69.546875-29.238281 6.722656zm0 0" fill="#fff"/><path d="m289.988281 143.140625 15.984375-69.550781 29.238282 6.71875-15.984376 69.550781zm0 0" fill="#fff5cb"/><path d="m70.304688 377.847656 40.96875-58.433594 24.566406 17.222657-40.96875 58.433593zm0 0" fill="#fff"/><path d="m376.171875 336.648438 24.5625-17.222657 40.96875 58.429688-24.5625 17.222656zm0 0" fill="#fff5cb"/><path d="m289.992188 368.863281 29.238281-6.71875 15.984375 69.550781-29.238282 6.71875zm0 0" fill="#fff5cb"/><path d="m176.785156 431.667969 15.984375-69.550781 29.238281 6.722656-15.984374 69.546875zm0 0" fill="#fff"/></svg>