<svg height="512pt" viewBox="0 0 512 512" width="512pt" xmlns="http://www.w3.org/2000/svg"><path d="m0 256c0-141.386719 114.613281-256 256-256s256 114.613281 256 256c0 119.535156-81.929688 219.9375-192.699219 248.113281-20.246093 5.148438-43.78125-32.113281-65.628906-32.113281-24.046875 0-44.988281 36.683594-67.054687 30.484375-107.671876-30.246094-186.617188-129.144531-186.617188-246.484375zm0 0" fill="#aeadb3"/><path d="m512 256c0-21.175781-2.589844-41.742188-7.4375-61.421875l-63.023438-63.027344-139.234374-52.214843-2.917969 2.332031-24.429688-23.65625-43.894531-15.128907 21.15625 63.785157 22.742188 23.214843 1.371093 7.582032-51.515625-51.1875-137.777344 55.949218v74.273438l33.742188 31.359375-11.78125-6.453125-44.101562-17.910156 2.609374 60.261718 119.113282 119.160157v99.558593c22.0625 6.199219 43.003906-30.476562 67.050781-30.476562 21.847656 0 45.382813 37.261719 65.628906 32.113281 110.769531-28.175781 192.699219-128.578125 192.699219-248.113281zm0 0" fill="#8b8992"/><path d="m319.300781 365.339844v138.769531c-20.25 5.152344-41.449219 7.890625-63.300781 7.890625-.78125 0-1.550781 0-2.328125-.011719-23.222656-.207031-45.703125-3.507812-67.050781-9.507812v-137.140625zm0 0" fill="#ffdba9"/><path d="m319.300781 365.339844v138.769531c-20.25 5.152344-41.449219 7.890625-63.300781 7.890625-.78125 0-1.550781 0-2.328125-.011719v-146.648437zm0 0" fill="#ffd199"/><path d="m291.152344 382.222656h-76.382813c-25.289062 0-45.980469-20.691406-45.980469-45.980468v-87.546876c0-16.234374 13.285157-29.519531 29.519532-29.519531h109.304687c16.234375 0 29.519531 13.285157 29.519531 29.519531v87.546876c0 25.289062-20.691406 45.980468-45.980468 45.980468zm0 0" fill="#ffc473"/><path d="m194.777344 285.621094h-8.296875c-9.730469 0-17.691407-7.960938-17.691407-17.691406v-53.050782c0-9.730468 7.960938-17.691406 17.691407-17.691406h8.296875c9.730468 0 17.691406 7.960938 17.691406 17.691406v53.050782c0 9.730468-7.960938 17.691406-17.691406 17.691406zm0 0" fill="#ffb74f"/><path d="m237.210938 276.183594h-8.296876c-9.726562 0-17.691406-7.960938-17.691406-17.691406v-56.046876c0-9.730468 7.960938-17.691406 17.691406-17.691406h8.296876c9.730468 0 17.691406 7.960938 17.691406 17.691406v56.046876c0 9.730468-7.960938 17.691406-17.691406 17.691406zm0 0" fill="#ffd199"/><path d="m279.648438 276.183594h-8.296876c-9.730468 0-17.691406-7.960938-17.691406-17.691406v-63.378907c0-9.730469 7.960938-17.691406 17.691406-17.691406h8.296876c9.730468 0 17.691406 7.960937 17.691406 17.691406v63.378907c0 9.730468-7.960938 17.691406-17.691406 17.691406zm0 0" fill="#ffaa20"/><path d="m322.085938 283.675781h-8.296876c-9.730468 0-17.691406-7.960937-17.691406-17.691406v-56.042969c0-9.730468 7.960938-17.695312 17.691406-17.695312h8.296876c9.730468 0 17.691406 7.964844 17.691406 17.695312v56.042969c0 9.730469-7.960938 17.691406-17.691406 17.691406zm0 0" fill="#ffc473"/><path d="m245.757812 382.597656v-28.714844c0-24.601562 19.941407-44.542968 44.542969-44.542968v-15.976563c-20.667969 0-39.023437-13.21875-45.570312-32.820312l-2.3125-6.917969h58.769531c22.105469 0 40.023438 17.917969 40.023438 40.023438v39.230468c0 25.707032-20.839844 49.71875-46.546876 49.71875zm0 0" fill="#ffdba9"/><path d="m341.207031 293.652344v39.222656c0 25.703125-20.832031 49.71875-46.546875 49.71875h-40.992187v-54.042969c8.03125-11.613281 21.445312-19.207031 36.636719-19.207031v-15.984375c-10.339844 0-20.09375-3.300781-28.082032-9.058594-3.15625-2.273437-6.035156-4.929687-8.554687-7.90625v-22.773437h47.523437c22.097656 0 40.015625 17.921875 40.015625 40.03125zm0 0" fill="#ffd199"/><path d="m319.300781 390.890625v113.21875c-20.25 5.152344-41.449219 7.890625-63.300781 7.890625-.78125 0-1.550781 0-2.328125-.011719-23.222656-.207031-45.703125-3.507812-67.050781-9.507812v-111.589844zm0 0" fill="#ff0335"/><path d="m319.300781 390.890625v113.21875c-20.25 5.152344-41.449219 7.890625-63.300781 7.890625-.78125 0-1.550781 0-2.328125-.011719v-121.097656zm0 0" fill="#c2001b"/><path d="m250.539062 149.625-163.5 66.875v-74.273438l137.777344-55.949218.683594 36.621094zm0 0" fill="#004eb1"/><path d="m302.304688 79.335938 139.234374 52.214843-24.617187 65.636719-139.234375-52.214844-7.261719-40.160156zm0 0" fill="#002d6b"/><path d="m120.78125 247.859375-19.113281 37.761719 31.414062 18.617187zm0 0" fill="#004eb1"/><path d="m396.441406 211.097656 38.011719 39.640625 25.535156-43.246093zm0 0" fill="#002d6b"/><path d="m355.980469 212.949219 9.097656 84.746093 41.964844 1.355469-11.84375-55.453125zm0 0" fill="#002d6b"/><path d="m252.21875 106.667969-21.15625-63.785157 43.894531 15.125zm0 0" fill="#004eb1"/><path d="m274.960938 58.011719-21.289063 45.558593v-52.898437zm0 0" fill="#002d6b"/><path d="m67.507812 283.757812-2.609374-60.261718 44.101562 17.910156zm0 0" fill="#004eb1"/></svg>