<svg height="512pt" viewBox="0 0 512 512" width="512pt" xmlns="http://www.w3.org/2000/svg"><path d="m512 256c0 141.386719-114.613281 256-256 256s-256-114.613281-256-256 114.613281-256 256-256 256 114.613281 256 256zm0 0" fill="#d9d9db"/><path d="m512 256c0-8.984375-.46875-17.859375-1.371094-26.605469l-109.03125-109.03125c-36.328125-38.976562-88.109375-63.363281-145.597656-63.363281-109.90625 0-199 89.09375-199 199 0 57.488281 24.386719 109.269531 63.363281 145.597656l109.03125 109.03125c8.746094.902344 17.621094 1.371094 26.605469 1.371094 141.386719 0 256-114.613281 256-256zm0 0" fill="#aeadb3"/><path d="m455 256c0 109.90625-89.09375 199-199 199s-199-89.09375-199-199 89.09375-199 199-199 199 89.09375 199 199zm0 0" fill="#004eb1"/><path d="m455 256c0 109.898438-89.101562 199-199 199v-398c109.898438 0 199 89.101562 199 199zm0 0" fill="#002d6b"/><path d="m256 417c-88.777344 0-161-72.226562-161-161s72.222656-161 161-161 161 72.226562 161 161-72.222656 161-161 161zm0-292c-72.234375 0-131 58.765625-131 131s58.765625 131 131 131 131-58.765625 131-131-58.765625-131-131-131zm0 0" fill="#7fc8f1"/><path d="m256 95v30c72.230469 0 131 58.769531 131 131s-58.769531 131-131 131v30c88.78125 0 161-72.21875 161-161s-72.21875-161-161-161zm0 0" fill="#0082d1"/><path d="m450.269531 299.28125c-3.109375 14.070312-7.71875 27.570312-13.648437 40.347656v.011719h-97.101563v-.011719l-41.941406-122.980468-16.957031 45 28.039062 77.75h-35.808594l-16.851562-53.097657-.121094-.378906-16.957031 53.476563h-35.582031l27.570312-77.75-16.488281-45-42.171875 122.992187h-96.871094c-5.917968-12.78125-10.539062-26.289063-13.648437-40.359375h84.667969l50.582031-126.921875h32.519531l26.378906 65.5.121094-.300781v-.007813l26.511719-65.191406h32.269531l50.769531 126.910156v.011719zm0 0" fill="#ffdf47"/><path d="m450.269531 299.269531v.011719c-3.109375 14.070312-7.71875 27.570312-13.648437 40.347656h-97.101563l-41.941406-122.980468-16.957031 45 28.039062 77.75h-35.808594l-16.851562-53.097657v-48.75l26.511719-65.191406h32.269531l50.769531 126.910156zm0 0" fill="#ffaa20"/></svg>