<svg height="512pt" viewBox="0 0 512 512" width="512pt" xmlns="http://www.w3.org/2000/svg"><path d="m512 256c0 141.386719-114.613281 256-256 256s-256-114.613281-256-256 114.613281-256 256-256 256 114.613281 256 256zm0 0" fill="#ff0335"/><path d="m512 256c0-8.984375-.46875-17.859375-1.371094-26.605469l-109.03125-109.03125c-36.328125-38.976562-88.109375-63.363281-145.597656-63.363281-109.90625 0-199 89.09375-199 199 0 57.488281 24.386719 109.269531 63.363281 145.597656l109.03125 109.03125c8.746094.902344 17.621094 1.371094 26.605469 1.371094 141.386719 0 256-114.613281 256-256zm0 0" fill="#c2001b"/><path d="m455 256c0 109.90625-89.09375 199-199 199s-199-89.09375-199-199 89.09375-199 199-199 199 89.09375 199 199zm0 0" fill="#d9d9db"/><path d="m455 256c0 109.898438-89.101562 199-199 199v-398c109.898438 0 199 89.101562 199 199zm0 0" fill="#aeadb3"/><path d="m256 384.171875c-70.675781 0-128.171875-57.5-128.171875-128.171875s57.496094-128.171875 128.171875-128.171875 128.171875 57.5 128.171875 128.171875-57.496094 128.171875-128.171875 128.171875zm0-226.34375c-54.132812 0-98.171875 44.039063-98.171875 98.171875s44.039063 98.171875 98.171875 98.171875 98.171875-44.039063 98.171875-98.171875-44.039063-98.171875-98.171875-98.171875zm0 0" fill="#aeadb3"/><path d="m314.769531 142.109375c-3.980469-2.058594-8.089843-3.917969-12.300781-5.558594-14.410156-5.628906-30.089844-8.722656-46.46875-8.722656v30c7.589844 0 14.980469.871094 22.078125 2.511719 7.722656 1.78125 15.101563 4.46875 22.011719 7.96875 32.050781 16.171875 54.082031 49.410156 54.082031 87.691406 0 54.128906-44.042969 98.171875-98.171875 98.171875v30c70.671875 0 128.171875-57.5 128.171875-128.171875 0-49.5-28.210937-92.539062-69.402344-113.890625zm0 0" fill="#8b8992"/><path d="m115.269531 115.269531 140.730469 88.917969 140.730469-88.917969-88.917969 140.730469 88.917969 140.730469-140.730469-88.917969-140.730469 88.917969 88.917969-140.730469zm0 0" fill="#fff"/><path d="m307.808594 256 88.921875 140.730469-140.730469-88.921875v-103.617188l140.730469-88.921875zm0 0" fill="#fff5cb"/></svg>