<svg height="512pt" viewBox="0 0 512 512" width="512pt" xmlns="http://www.w3.org/2000/svg"><path d="m0 256c0-141.386719 114.613281-256 256-256s256 114.613281 256 256c0 119.535156-81.929688 219.9375-192.699219 248.113281-20.246093 5.148438-43.78125-32.113281-65.628906-32.113281-24.046875 0-44.988281 36.683594-67.054687 30.484375-107.671876-30.246094-186.617188-129.144531-186.617188-246.484375zm0 0" fill="#ff0335"/><path d="m253.671875 472c21.847656 0 45.382813 37.261719 65.628906 32.113281 103.664063-26.367187 182.0625-115.992187 191.695313-225.355469l-141.863282-141.867187-8.46875 18.632813-88.578124-88.550782c-10.894532-11.160156-18.398438-17.972656-18.398438-17.972656s-63.28125 57.460938-89.195312 112.117188l-26.25-24.226563s-91.453126 141.257813 5.171874 234.699219l43.183594 42.996094c.007813.007812.015625.015624.019532.023437v87.871094c.011718.003906.023437.011719.03125.011719 22.054687 6.15625 42.988281-30.492188 67.023437-30.492188zm0 0" fill="#c2001b"/><path d="m369.132812 136.890625-19.160156 42.152344c-18.246094-59.191407-96.285156-130.042969-96.285156-130.042969s-78.039062 70.851562-96.285156 130.042969l-19.160156-42.152344s-142.253907 219.6875 115.445312 292.355469c257.699219-72.667969 115.445312-292.355469 115.445312-292.355469zm0 0" fill="#ffec97"/><path d="m253.671875 429.246094v-380.222656s78.058594 70.839843 96.304687 130.042968l19.160157-42.167968c0-.003907 142.25 219.710937-115.464844 292.347656zm0 0" fill="#ffdb2d"/><path d="m319.300781 365.339844v138.769531c-20.25 5.152344-41.449219 7.890625-63.300781 7.890625-.78125 0-1.550781 0-2.328125-.011719-23.222656-.207031-45.703125-3.507812-67.050781-9.507812v-137.140625zm0 0" fill="#e67500"/><path d="m319.300781 365.339844v138.769531c-20.25 5.152344-41.449219 7.890625-63.300781 7.890625-.78125 0-1.550781 0-2.328125-.011719v-146.648437zm0 0" fill="#c06200"/><path d="m291.152344 382.222656h-76.382813c-25.289062 0-45.980469-20.691406-45.980469-45.980468v-87.546876c0-16.234374 13.285157-29.519531 29.519532-29.519531h109.304687c16.234375 0 29.519531 13.285157 29.519531 29.519531v87.546876c0 25.289062-20.691406 45.980468-45.980468 45.980468zm0 0" fill="#9a4c00"/><path d="m337.132812 336.242188v-87.546876c0-16.234374-13.285156-29.519531-29.523437-29.519531h-53.9375v163.046875h37.476563c25.292968 0 45.984374-20.691406 45.984374-45.980468zm0 0" fill="#733700"/><path d="m194.777344 285.621094h-8.296875c-9.730469 0-17.691407-7.960938-17.691407-17.691406v-53.050782c0-9.730468 7.960938-17.691406 17.691407-17.691406h8.296875c9.730468 0 17.691406 7.960938 17.691406 17.691406v53.050782c0 9.730468-7.960938 17.691406-17.691406 17.691406zm0 0" fill="#733700"/><path d="m237.210938 276.183594h-8.296876c-9.726562 0-17.691406-7.960938-17.691406-17.691406v-56.046876c0-9.730468 7.960938-17.691406 17.691406-17.691406h8.296876c9.730468 0 17.691406 7.960938 17.691406 17.691406v56.046876c0 9.730468-7.960938 17.691406-17.691406 17.691406zm0 0" fill="#c06200"/><path d="m279.648438 276.183594h-8.292969c-9.730469 0-17.695313-7.960938-17.695313-17.691406v-63.378907c0-9.730469 7.960938-17.691406 17.695313-17.691406h8.292969c9.730468 0 17.695312 7.960937 17.695312 17.691406v63.378907c-.003906 9.730468-7.964844 17.691406-17.695312 17.691406zm0 0" fill="#9a4c00"/><path d="m322.085938 283.675781h-8.296876c-9.730468 0-17.691406-7.960937-17.691406-17.691406v-56.042969c0-9.730468 7.960938-17.695312 17.691406-17.695312h8.296876c9.730468 0 17.691406 7.964844 17.691406 17.695312v56.042969c0 9.730469-7.960938 17.691406-17.691406 17.691406zm0 0" fill="#733700"/><path d="m245.757812 382.597656v-28.714844c0-24.601562 19.941407-44.542968 44.542969-44.542968v-15.976563c-20.667969 0-39.023437-13.21875-45.570312-32.820312l-2.3125-6.917969h58.769531c22.105469 0 40.023438 17.917969 40.023438 40.023438v39.230468c0 25.707032-20.839844 49.71875-46.546876 49.71875zm0 0" fill="#e67500"/><path d="m341.207031 293.652344v39.222656c0 25.703125-20.832031 49.71875-46.546875 49.71875h-40.992187v-54.042969c8.03125-11.613281 21.445312-19.207031 36.636719-19.207031v-15.984375c-10.339844 0-20.09375-3.300781-28.082032-9.058594-3.15625-2.273437-6.035156-4.929687-8.554687-7.90625v-22.773437h47.519531c22.101562 0 40.019531 17.921875 40.019531 40.03125zm0 0" fill="#c06200"/><path d="m319.300781 390.890625v113.21875c-20.25 5.152344-41.449219 7.890625-63.300781 7.890625-.78125 0-1.550781 0-2.328125-.011719-23.222656-.207031-45.703125-3.507812-67.050781-9.507812v-111.589844zm0 0" fill="#004eb1"/><path d="m319.300781 390.890625v113.21875c-20.25 5.152344-41.449219 7.890625-63.300781 7.890625-.78125 0-1.550781 0-2.328125-.011719v-121.097656zm0 0" fill="#002d6b"/></svg>