<svg height="512pt" viewBox="0 0 512 512" width="512pt" xmlns="http://www.w3.org/2000/svg"><path d="m0 256c0-141.386719 114.613281-256 256-256s256 114.613281 256 256c0 70.691406-28.652344 134.691406-74.980469 181.019531s-110.328125-4.019531-181.019531-4.019531c-70.355469 0-134.082031 50.617188-180.355469 4.679688-46.71875-46.378907-75.644531-110.652344-75.644531-181.679688zm0 0" fill="#d9d9db"/><path d="m256 433c70.691406 0 134.691406 50.347656 181.019531 4.019531s74.980469-110.328125 74.980469-181.019531c0-15.222656-1.335938-30.132812-3.882812-44.625l-167.375-167.375c-4.171876 13.082031-11.871094 22.492188-19.28125 28.980469l-21.992188-18.480469-43.46875-25.75-43.46875 25.75s-1.082031 6.253906-1.050781 15.816406c-2.835938 1.5625-5.621094 3.277344-8.351563 5.128906l-31.867187-31.445312s-23.121094 37.898438 2.730469 60.953125c-9.832032 14.929687-16.472657 33.21875-17.847657 54.558594l-42.8125-37.847657 19.667969 90.667969 54.269531 53.316407c3.800781 5.652343 7.71875 10.664062 11.699219 15.097656l-9.375 44.253906h-43.960938c-38.648437 0-69.984374 31.332031-69.984374 69.984375v42.6875c.007812.007813.015624.027344.023437.035156 46.269531 45.890625 109.984375-4.707031 180.328125-4.707031zm0 0" fill="#c8c6cc"/><path d="m209.59375 85s-28.667969-10.667969-38.332031-41c0 0-27.667969 45.332031 11.332031 67zm0 0" fill="#ff738e"/><path d="m302.40625 85s28.667969-10.667969 38.335938-41c0 0 27.664062 45.332031-11.335938 67zm0 0" fill="#ff0335"/><path d="m312.050781 276.117188h-112.101562l-11.09375 52.382812h134.289062zm0 0" fill="#ff738e"/><path d="m323.148438 328.5h-67.148438v-52.378906h56.050781zm0 0" fill="#ff0335"/><path d="m366.367188 325h-220.734376c-38.648437 0-69.984374 31.332031-69.984374 69.984375v42.6875c46.277343 45.941406 109.996093 74.328125 180.351562 74.328125s134.074219-28.386719 180.351562-74.328125v-42.6875c0-38.652344-31.335937-69.984375-69.984374-69.984375zm0 0" fill="#57555c"/><path d="m436.351562 394.980469v42.691406c-46.273437 45.9375-109.992187 74.328125-180.351562 74.328125v-187h110.371094c21.457031 0 40.660156 9.648438 53.480468 24.859375 10.296876 12.179687 16.5 27.929687 16.5 45.121094zm0 0" fill="#3c3b41"/><path d="m305.5 420.5c0 27.339844-22.160156 49.5-49.5 49.5s-49.5-22.160156-49.5-49.5 22.160156-49.5 49.5-49.5 49.5 22.160156 49.5 49.5zm0 0" fill="#ff738e"/><path d="m305.5 420.5c0 27.339844-22.160156 49.5-49.5 49.5v-99c27.339844 0 49.5 22.160156 49.5 49.5zm0 0" fill="#ff0335"/><path d="m282.5 420.5c0 14.636719-11.863281 26.5-26.5 26.5s-26.5-11.863281-26.5-26.5 11.863281-26.5 26.5-26.5 26.5 11.863281 26.5 26.5zm0 0" fill="#ffa7b8"/><path d="m282.5 420.5c0 14.640625-11.859375 26.5-26.5 26.5v-53c14.640625 0 26.5 11.859375 26.5 26.5zm0 0" fill="#ff738e"/><path d="m123.800781 413.328125v61.933594c9.601563 5.800781 19.625 10.976562 30 15.5v-77.433594zm0 0" fill="#3c3b41"/><path d="m358.199219 413.328125v77.433594c10.375-4.523438 20.398437-9.699219 30-15.5v-61.933594zm0 0" fill="#2a2a2c"/><path d="m355.855469 159.511719c-4.167969-64.597657-56.507813-101.257813-99.855469-101.257813s-95.6875 36.660156-99.855469 101.257813l-42.8125-37.847657 19.667969 90.667969 33.609375 11.734375c24.769531 67.851563 64.734375 85.324219 89.390625 89.289063 24.65625-3.96875 64.621094-21.4375 89.390625-89.289063l33.613281-11.734375 19.664063-90.667969zm0 0" fill="#57555c"/><path d="m398.671875 121.671875-19.671875 90.65625-33.609375 11.742187c-24.769531 67.851563-64.730469 85.320313-89.390625 89.289063v-255.109375c14.550781 0 30.109375 4.128906 44.519531 12.070312 28.53125 15.679688 52.570313 46.269532 55.339844 89.191407zm0 0" fill="#3c3b41"/><path d="m163.582031 208.75-6.375-32.25-25.125-23.25 9.75 49zm0 0" fill="#ff738e"/><path d="m348.417969 208.75 6.375-32.25 25.125-23.25-9.75 49zm0 0" fill="#ff0335"/><path d="m256 263.34375c-4.726562 0-31.050781-7.824219-54.644531-28.84375 0 0 22.417969 45.832031 54.644531 45.832031 32.230469 0 54.644531-45.832031 54.644531-45.832031-23.59375 21.019531-49.914062 28.84375-54.644531 28.84375zm0 0" fill="#fff"/><path d="m310.636719 234.507812c-.34375.710938-22.660157 45.824219-54.636719 45.824219v-16.992187c4.730469 0 31.046875-7.820313 54.636719-28.832032zm0 0" fill="#fff5cb"/><path d="m250.269531 181.296875s-42.949219-24.453125-63.890625-49.546875c0 0-1.914062 13.546875 3.027344 31.742188 0 0-8.507812-3.871094-14.617188-9.097657 0 0 2.472657 31.261719 25.488282 48.179688 19.871094 14.605469 49.992187 1.613281 49.992187-21.277344zm0 0" fill="#ff738e"/><path d="m236.433594 190.554688c-.023438-.070313-5.492188-10.617188-15.933594-13.726563-10.441406-3.105469-20.84375 2.78125-20.84375 2.78125l.058594.019531c.023437.070313 6.09375 10.796875 15.933594 13.722656 9.839843 2.929688 20.84375-2.78125 20.84375-2.78125zm0 0" fill="#fff"/><path d="m261.730469 181.296875s42.949219-24.453125 63.890625-49.546875c0 0 1.914062 13.546875-3.023438 31.742188 0 0 8.507813-3.871094 14.613282-9.097657 0 0-2.472657 31.261719-25.488282 48.179688-19.867187 14.605469-49.992187 1.613281-49.992187-21.277344zm0 0" fill="#ff0335"/><path d="m275.566406 190.554688c.023438-.070313 5.492188-10.617188 15.933594-13.726563 10.441406-3.105469 20.847656 2.78125 20.847656 2.78125l-.0625.019531c-.023437.070313-6.09375 10.796875-15.933594 13.722656-9.839843 2.929688-20.84375-2.78125-20.84375-2.78125zm0 0" fill="#fff5cb"/><path d="m299.46875 54.5-43.46875-25.75-43.46875 25.75s-11.78125 68 43.46875 98.75c55.25-30.75 43.46875-98.75 43.46875-98.75zm0 0" fill="#ff738e"/><path d="m300.519531 70.320312c-.070312 21.988282-6.019531 61.5-44.519531 82.929688v-124.5l43.46875 25.75s1.082031 6.25 1.050781 15.820312zm0 0" fill="#ff0335"/></svg>