<?xml version="1.0" encoding="iso-8859-1"?>
<!-- Generator: Adobe Illustrator 19.0.0, SVG Export Plug-In . SVG Version: 6.00 Build 0)  -->
<svg version="1.1" id="Capa_1" xmlns="http://www.w3.org/2000/svg" xmlns:xlink="http://www.w3.org/1999/xlink" x="0px" y="0px"
	 viewBox="0 0 512 512" style="enable-background:new 0 0 512 512;" xml:space="preserve">
<circle style="fill:#F9CF4D;" cx="256" cy="256" r="256"/>
<path style="fill:#F59F1E;" d="M511.997,256.215L367.563,111.78L228.19,70.786l-95.833,84.524l1.19,114.286l-35.371,86.312
	l32.184,32.184l-24.255,23.722l94.063,94.063C218.143,509.875,236.822,512,256,512C397.313,512,511.881,397.501,511.997,256.215z"/>
<rect x="377.3" y="209.73" style="fill:#605246;" width="27.782" height="178.12"/>
<rect x="111.2" y="209.08" style="fill:#866857;" width="27.782" height="178.12"/>
<rect x="106.11" y="325.69" style="fill:#605246;" width="37.969" height="86.12"/>
<path style="fill:#9B8572;" d="M258.138,356.672c-81.022,0-146.938-65.916-146.938-146.938S177.116,62.796,258.138,62.796
	s146.938,65.916,146.938,146.938C405.077,290.756,339.161,356.672,258.138,356.672z M258.138,90.579
	c-65.703,0-119.156,53.453-119.156,119.155S192.436,328.89,258.138,328.89s119.156-53.453,119.156-119.156
	S323.841,90.579,258.138,90.579z"/>
<g>
	<path style="fill:#866857;" d="M258.138,62.796c-0.858,0-1.712,0.018-2.567,0.033v27.782c0.854-0.018,1.709-0.033,2.567-0.033
		c65.703,0,119.156,53.453,119.156,119.155S323.841,328.89,258.138,328.89c-0.858,0-1.713-0.014-2.567-0.033v27.782
		c0.855,0.015,1.709,0.033,2.567,0.033c81.022,0,146.938-65.916,146.938-146.938C405.077,128.712,339.161,62.796,258.138,62.796z"/>
	<path style="fill:#866857;" d="M258.138,323.951c-62.979,0-114.216-51.237-114.216-114.217
		c0-62.979,51.237-114.216,114.216-114.216s114.216,51.237,114.216,114.216C372.355,272.714,321.117,323.951,258.138,323.951z
		 M258.138,123.3c-47.66,0-86.434,38.774-86.434,86.434s38.774,86.434,86.434,86.434s86.434-38.774,86.434-86.434
		S305.798,123.3,258.138,123.3z"/>
</g>
<g>
	<path style="fill:#605246;" d="M258.138,95.518c-0.858,0-1.713,0.014-2.567,0.033v27.791c0.853-0.025,1.708-0.041,2.567-0.041
		c47.66,0,86.434,38.774,86.434,86.434s-38.774,86.434-86.434,86.434c-0.859,0-1.714-0.016-2.567-0.041v27.791
		c0.854,0.019,1.709,0.033,2.567,0.033c62.979,0,114.216-51.237,114.216-114.217C372.355,146.755,321.117,95.518,258.138,95.518z"/>
	<rect x="98.18" y="317.94" style="fill:#605246;" width="53.09" height="37.969"/>
</g>
<g>
</g>
<g>
</g>
<g>
</g>
<g>
</g>
<g>
</g>
<g>
</g>
<g>
</g>
<g>
</g>
<g>
</g>
<g>
</g>
<g>
</g>
<g>
</g>
<g>
</g>
<g>
</g>
<g>
</g>
</svg>
