<?xml version="1.0" encoding="iso-8859-1"?>
<!-- Generator: Adobe Illustrator 19.0.0, SVG Export Plug-In . SVG Version: 6.00 Build 0)  -->
<svg version="1.1" id="Capa_1" xmlns="http://www.w3.org/2000/svg" xmlns:xlink="http://www.w3.org/1999/xlink" x="0px" y="0px"
	 viewBox="0 0 512 512" style="enable-background:new 0 0 512 512;" xml:space="preserve">
<circle style="fill:#866857;" cx="256" cy="256" r="256"/>
<path style="fill:#605246;" d="M505.689,312.69L256,63l-47.427,353.673L163,438.333l72.883,72.883
	C242.521,511.732,249.229,512,256,512C377.902,512,479.893,426.792,505.689,312.69z"/>
<path style="fill:#EDD9A6;" d="M332.333,392.333H179.667V252.83c0-57.283,18.607-113.016,53.021-158.809L256,63l23.312,31.021
	c34.414,45.793,53.021,101.526,53.021,158.809V392.333z"/>
<path style="fill:#C3B48B;" d="M255.571,392.333h76.762V252.83c0-57.283-18.607-113.016-53.021-158.809L256,63L255.571,392.333z"/>
<rect x="163" y="389" style="fill:#F2F2F2;" width="186" height="49.33"/>
<rect x="255.57" y="389" style="fill:#E6E6E6;" width="93.43" height="49.33"/>
<path style="fill:#D8C18F;" d="M179.667,252.83v101.504h152.667V252.83c0-0.61-0.014-1.22-0.019-1.83h-152.63
	C179.681,251.61,179.667,252.219,179.667,252.83z"/>
<path style="fill:#B59B68;" d="M332.333,252.83c0-0.61-0.014-1.22-0.019-1.83h-76.743v103.333h76.762V252.83z"/>
<g>
</g>
<g>
</g>
<g>
</g>
<g>
</g>
<g>
</g>
<g>
</g>
<g>
</g>
<g>
</g>
<g>
</g>
<g>
</g>
<g>
</g>
<g>
</g>
<g>
</g>
<g>
</g>
<g>
</g>
</svg>
