<?xml version="1.0" encoding="iso-8859-1"?>
<!-- Generator: Adobe Illustrator 19.0.0, SVG Export Plug-In . SVG Version: 6.00 Build 0)  -->
<svg version="1.1" id="Capa_1" xmlns="http://www.w3.org/2000/svg" xmlns:xlink="http://www.w3.org/1999/xlink" x="0px" y="0px"
	 viewBox="0 0 512 512" style="enable-background:new 0 0 512 512;" xml:space="preserve">
<circle style="fill:#E64C3C;" cx="256" cy="256" r="256"/>
<path style="fill:#DB3A2E;" d="M510.926,279.387L331.203,99.665l-3.519,5.364l-44.665-42.995L256,61.03l-75.203,77.563
	l70.689,70.689l-65.497,138.339l57.451,57.451l-72.67,24.897l81.99,81.99c1.08,0.014,2.157,0.041,3.241,0.041
	C389.499,512,499.112,409.808,510.926,279.387z"/>
<path style="fill:#FFFFFF;" d="M256,128.539c-21.369,0-38.754-17.385-38.754-38.754S234.631,51.031,256,51.031
	s38.754,17.385,38.754,38.754S277.369,128.539,256,128.539z M256,71.031c-10.341,0-18.754,8.413-18.754,18.754
	s8.413,18.754,18.754,18.754s18.754-8.413,18.754-18.754S266.341,71.031,256,71.031z"/>
<path style="fill:#E6E6E6;" d="M256,51.031c-0.144,0-0.285,0.009-0.429,0.011v20.011c0.144-0.003,0.284-0.022,0.429-0.022
	c10.341,0,18.754,8.413,18.754,18.754s-8.413,18.754-18.754,18.754c-0.145,0-0.285-0.019-0.429-0.021v20.011
	c0.144,0.001,0.285,0.011,0.429,0.011c21.369,0,38.754-17.385,38.754-38.754S277.369,51.031,256,51.031z"/>
<path style="fill:#FFFFFF;" d="M298.071,360.664H213.93c-20.679,0-37.222-17.172-36.451-37.836l5.684-152.362
	c0.731-19.603,16.835-35.117,36.451-35.117h72.774c19.616,0,35.72,15.514,36.451,35.117l5.684,152.362
	C335.293,343.492,318.749,360.664,298.071,360.664z"/>
<path style="fill:#E6E6E6;" d="M334.522,322.828l-5.684-152.362c-0.731-19.603-16.835-35.117-36.451-35.117H256v225.315h42.071
	C318.749,360.664,335.293,343.492,334.522,322.828z"/>
<path style="fill:#F59F1E;" d="M300.924,324.541c0,24.811-20.113,44.924-44.924,44.924s-44.924-20.113-44.924-44.924
	S256,230.949,256,230.949S300.924,299.73,300.924,324.541z"/>
<path style="fill:#E57F25;" d="M255.571,369.454c0.144,0.001,0.285,0.011,0.429,0.011c24.811,0,44.924-20.113,44.924-44.924
	S256,230.949,256,230.949L255.571,369.454z"/>
<path style="fill:#F0C419;" d="M282.758,334.755c0,14.778-11.98,26.758-26.758,26.758c-14.778,0-26.758-11.98-26.758-26.758
	S256,279.009,256,279.009S282.758,319.977,282.758,334.755z"/>
<path style="fill:#F59F1E;" d="M255.571,361.502c0.143,0.002,0.285,0.011,0.429,0.011c14.778,0,26.758-11.98,26.758-26.758
	c0-14.778-26.758-55.746-26.758-55.746L255.571,361.502z"/>
<rect x="180.8" y="99.66" style="fill:#D1D4D1;" width="150.41" height="38.929"/>
<rect x="255.57" y="99.67" style="fill:#B4ABAC;" width="75.63" height="38.929"/>
<rect x="170.77" y="356.83" style="fill:#D1D4D1;" width="170.46" height="73.14"/>
<rect x="255.57" y="356.83" style="fill:#B4ABAC;" width="85.66" height="73.14"/>
<g>
</g>
<g>
</g>
<g>
</g>
<g>
</g>
<g>
</g>
<g>
</g>
<g>
</g>
<g>
</g>
<g>
</g>
<g>
</g>
<g>
</g>
<g>
</g>
<g>
</g>
<g>
</g>
<g>
</g>
</svg>
