<?xml version="1.0" encoding="iso-8859-1"?>
<!-- Generator: Adobe Illustrator 19.0.0, SVG Export Plug-In . SVG Version: 6.00 Build 0)  -->
<svg version="1.1" id="Capa_1" xmlns="http://www.w3.org/2000/svg" xmlns:xlink="http://www.w3.org/1999/xlink" x="0px" y="0px"
	 viewBox="0 0 512 512" style="enable-background:new 0 0 512 512;" xml:space="preserve">
<circle style="fill:#F9CF4D;" cx="256" cy="256" r="256"/>
<path style="fill:#F59F1E;" d="M512,256c0-17.067-1.685-33.739-4.871-49.871L450,149l-9.583,15.417L401,125l-4.916,40.237
	l-192.699,8.147L155,125l-93,54.363l94.862,94.862L62,278.182l93.063,93.063L62,377l49,50l76.797,75.797
	C209.513,508.786,232.38,512,256,512C397.385,512,512,397.385,512,256z"/>
<rect x="62" y="149" style="fill:#866857;" width="388" height="30.363"/>
<rect x="255.57" y="149" style="fill:#605246;" width="194.43" height="30.363"/>
<rect x="62" y="247.82" style="fill:#866857;" width="388" height="30.363"/>
<rect x="255.57" y="247.82" style="fill:#605246;" width="194.43" height="30.363"/>
<rect x="62" y="346.64" style="fill:#866857;" width="388" height="30.363"/>
<rect x="255.57" y="346.64" style="fill:#605246;" width="194.43" height="30.363"/>
<rect x="111" y="125" style="fill:#9B8572;" width="44" height="302"/>
<rect x="357" y="125" style="fill:#866857;" width="44" height="302"/>
<g>
</g>
<g>
</g>
<g>
</g>
<g>
</g>
<g>
</g>
<g>
</g>
<g>
</g>
<g>
</g>
<g>
</g>
<g>
</g>
<g>
</g>
<g>
</g>
<g>
</g>
<g>
</g>
<g>
</g>
</svg>
