<?xml version="1.0" encoding="iso-8859-1"?>
<!-- Generator: Adobe Illustrator 19.0.0, SVG Export Plug-In . SVG Version: 6.00 Build 0)  -->
<svg version="1.1" id="Capa_1" xmlns="http://www.w3.org/2000/svg" xmlns:xlink="http://www.w3.org/1999/xlink" x="0px" y="0px"
	 viewBox="0 0 512 512" style="enable-background:new 0 0 512 512;" xml:space="preserve">
<circle style="fill:#866857;" cx="256" cy="256" r="256"/>
<path style="fill:#605246;" d="M511.82,265.153L375.667,129L116.881,229.119L93,302.5l73.877,73.876l-30.543,17.29L254.65,511.983
	c0.451,0.002,0.899,0.017,1.35,0.017C394.319,512,506.998,402.296,511.82,265.153z"/>
<polygon style="fill:#78BFEF;" points="136.333,129 48,256 93,302.5 159,209.167 "/>
<polygon style="fill:#5CA4CC;" points="375.667,129 464,256 419,302.5 353,209.167 "/>
<polygon style="fill:#91CCFE;" points="375.667,393.667 136.333,393.667 136.333,129 216.111,118.308 295.889,118.308 375.667,129 
	"/>
<polygon style="fill:#228CE4;" points="375.667,129 295.889,118.308 255.571,118.308 255.571,393.667 375.667,393.667 "/>
<polygon style="fill:#0071BC;" points="216.111,118.308 136.333,129 136.333,199.291 198.333,244.333 256,193.667 256,167.333 "/>
<polygon style="fill:#02649B;" points="295.889,118.308 375.667,129 375.667,199.291 313.667,244.333 256,193.667 256,167.333 "/>
<rect x="246.23" y="167.25" style="fill:#046BA5;" width="19.531" height="226.42"/>
<rect x="255.57" y="167.25" style="fill:#035477;" width="10.194" height="226.42"/>
<polygon style="fill:#0E537A;" points="232.333,186.667 256,167.333 216.111,118.308 199.282,120.563 "/>
<polygon style="fill:#08465B;" points="279.667,186.667 256,167.333 295.889,118.308 312.718,120.563 "/>
<g>
</g>
<g>
</g>
<g>
</g>
<g>
</g>
<g>
</g>
<g>
</g>
<g>
</g>
<g>
</g>
<g>
</g>
<g>
</g>
<g>
</g>
<g>
</g>
<g>
</g>
<g>
</g>
<g>
</g>
</svg>
