<?xml version="1.0" encoding="iso-8859-1"?>
<!-- Generator: Adobe Illustrator 19.0.0, SVG Export Plug-In . SVG Version: 6.00 Build 0)  -->
<svg version="1.1" id="Capa_1" xmlns="http://www.w3.org/2000/svg" xmlns:xlink="http://www.w3.org/1999/xlink" x="0px" y="0px"
	 viewBox="0 0 512 512" style="enable-background:new 0 0 512 512;" xml:space="preserve">
<circle style="fill:#866857;" cx="256" cy="256" r="256"/>
<path style="fill:#605246;" d="M510.49,283.823L327,100.333L128.333,409.667l100.95,100.95C238.065,511.527,246.977,512,256,512
	C387.982,512,496.621,412.119,510.49,283.823z"/>
<rect x="128.33" y="100.33" style="fill:#E64C3C;" width="198.67" height="309.33"/>
<rect x="227" y="100.33" style="fill:#DB3A2E;" width="100" height="309.33"/>
<polygon style="fill:#FCC2BE;" points="327,213 128.333,302.333 128.333,239.667 327,150.333 "/>
<polygon style="fill:#D69896;" points="327,150.333 227,195.3 227,257.966 327,213 "/>
<rect x="155" y="316.33" style="fill:#FFFFFF;" width="262.67" height="42.667"/>
<g>
	<rect x="155" y="337.45" style="fill:#E0E0E0;" width="262.67" height="21.548"/>
	<rect x="365.67" y="316.33" style="fill:#E0E0E0;" width="52" height="42.667"/>
</g>
<rect x="365.67" y="337.45" style="fill:#C0C0C0;" width="52" height="21.548"/>
<g>
</g>
<g>
</g>
<g>
</g>
<g>
</g>
<g>
</g>
<g>
</g>
<g>
</g>
<g>
</g>
<g>
</g>
<g>
</g>
<g>
</g>
<g>
</g>
<g>
</g>
<g>
</g>
<g>
</g>
</svg>
