<?xml version="1.0" encoding="iso-8859-1"?>
<!-- Generator: Adobe Illustrator 19.0.0, SVG Export Plug-In . SVG Version: 6.00 Build 0)  -->
<svg version="1.1" id="Capa_1" xmlns="http://www.w3.org/2000/svg" xmlns:xlink="http://www.w3.org/1999/xlink" x="0px" y="0px"
	 viewBox="0 0 512 512" style="enable-background:new 0 0 512 512;" xml:space="preserve">
<circle style="fill:#F9CF4D;" cx="256" cy="256" r="256"/>
<path style="fill:#F59F1E;" d="M512,256c0-4.355-0.111-8.685-0.326-12.986L359.71,91.05L141.667,202.754l186.318,186.318
	l1.376,70.021l30.81,30.81C449.635,449.999,512,360.287,512,256z"/>
<path style="fill:#607D8A;" d="M329.361,459.093l-21.677-25.476c-53.253-62.586-53.252-164.055,0.001-226.636l21.677-25.474
	l21.677,25.476c53.253,62.586,53.252,164.055-0.001,226.636L329.361,459.093z"/>
<path style="fill:#546E7A;" d="M329.361,459.093l21.677-25.474c53.253-62.582,53.253-164.05,0-226.636l-21.677-25.476l-0.576,0.677
	L329.361,459.093z"/>
<path style="fill:#8FA3AD;" d="M274.83,269.241h109.063c-4.407-15.452-10.866-30.272-19.391-43.867H294.22
	C285.695,238.969,279.237,253.789,274.83,269.241z"/>
<path style="fill:#788F9B;" d="M364.501,225.374h-35.716v43.867h55.107C379.485,253.79,373.026,238.969,364.501,225.374z"/>
<path style="fill:#8FA3AD;" d="M389.735,298.726H268.988c-1.673,14.553-1.648,29.322,0.081,43.867h120.585
	C391.383,328.048,391.408,313.279,389.735,298.726z"/>
<path style="fill:#788F9B;" d="M389.735,298.726h-60.949v43.867h60.869C391.383,328.048,391.408,313.279,389.735,298.726z"/>
<path style="fill:#8FA3AD;" d="M296.549,418.821h65.627c8.99-13.521,15.871-28.347,20.652-43.867h-106.93
	C280.677,390.474,287.559,405.3,296.549,418.821z"/>
<path style="fill:#788F9B;" d="M382.827,374.954h-54.042v43.867h33.39C371.166,405.301,378.047,390.475,382.827,374.954z"/>
<path style="fill:#455A64;" d="M372.03,202.754H141.667v-80.808C141.667,97.123,161.79,77,186.613,77h140.471
	c24.823,0,44.946,20.123,44.946,44.946L372.03,202.754L372.03,202.754z"/>
<path style="fill:#37474F;" d="M372.03,121.946C372.03,97.123,351.907,77,327.084,77h-71.513v125.754H372.03V121.946z"/>
<g>
</g>
<g>
</g>
<g>
</g>
<g>
</g>
<g>
</g>
<g>
</g>
<g>
</g>
<g>
</g>
<g>
</g>
<g>
</g>
<g>
</g>
<g>
</g>
<g>
</g>
<g>
</g>
<g>
</g>
</svg>
