<?xml version="1.0" encoding="iso-8859-1"?>
<!-- Generator: Adobe Illustrator 19.0.0, SVG Export Plug-In . SVG Version: 6.00 Build 0)  -->
<svg version="1.1" id="Capa_1" xmlns="http://www.w3.org/2000/svg" xmlns:xlink="http://www.w3.org/1999/xlink" x="0px" y="0px"
	 viewBox="0 0 512 512" style="enable-background:new 0 0 512 512;" xml:space="preserve">
<circle style="fill:#A3E769;" cx="256" cy="256" r="256"/>
<path style="fill:#86CE41;" d="M87.872,312.503L286.56,510.177C404.855,496.103,498.4,401.379,510.637,282.53l-73.445-73.444
	l-7.686,19.991L87.872,312.503z"/>
<path style="fill:#866857;" d="M437.193,209.085C403.233,225.371,334.844,236.5,256,236.5s-147.233-11.129-181.193-27.415
	l-7.267,24.016c-15.368,50.785,22.642,102,75.702,102h225.517c53.06,0,91.07-51.214,75.702-102L437.193,209.085z"/>
<path style="fill:#605246;" d="M444.46,233.101l-7.267-24.016C403.233,225.371,334.844,236.5,256,236.5
	c-0.143,0-0.285-0.002-0.429-0.002V335.1h113.187C421.818,335.1,459.828,283.886,444.46,233.101z"/>
<path style="fill:#E64C3C;" d="M69.631,285H442.37c2.519-6.354,4.228-13.069,5.021-20H64.61
	C65.402,271.931,67.112,278.646,69.631,285z"/>
<path style="fill:#DB3A2E;" d="M447.39,265H255.571v20h186.798C444.888,278.646,446.598,271.931,447.39,265z"/>
<path style="fill:#FFB80E;" d="M80.384,304h351.233c4.638-6.076,8.405-12.812,11.143-20H69.241
	C71.978,291.188,75.746,297.924,80.384,304z"/>
<path style="fill:#FFA02E;" d="M442.759,284H255.571v20h176.045C436.254,297.924,440.021,291.188,442.759,284z"/>
<g>
</g>
<g>
</g>
<g>
</g>
<g>
</g>
<g>
</g>
<g>
</g>
<g>
</g>
<g>
</g>
<g>
</g>
<g>
</g>
<g>
</g>
<g>
</g>
<g>
</g>
<g>
</g>
<g>
</g>
</svg>
