<?xml version="1.0" encoding="iso-8859-1"?>
<!-- Generator: Adobe Illustrator 19.0.0, SVG Export Plug-In . SVG Version: 6.00 Build 0)  -->
<svg version="1.1" id="Capa_1" xmlns="http://www.w3.org/2000/svg" xmlns:xlink="http://www.w3.org/1999/xlink" x="0px" y="0px"
	 viewBox="0 0 512 512" style="enable-background:new 0 0 512 512;" xml:space="preserve">
<circle style="fill:#EDD9A6;" cx="256" cy="256" r="256"/>
<path style="fill:#C3B48B;" d="M512,256c0-6.817-0.273-13.571-0.796-20.254l-103.75-103.75L118.765,392.711l118.61,118.61
	C243.527,511.764,249.736,512,256,512C397.385,512,512,397.385,512,256z"/>
<path style="fill:#E64C3C;" d="M222.866,413.728c15.403-15.403,22.235-29.666,27.815-48.011c2.995-9.847,11.365-17.91,21.222-20.836
	c8.295-2.463,15.839-6.775,22.066-13.003c0.457-0.457,0.903-0.92,1.339-1.391c17.887-19.3,16.692-49.521-1.915-68.128
	l-41.842-41.842c-18.607-18.607-48.828-19.802-68.128-1.915c-0.471,0.436-0.935,0.883-1.391,1.339
	c-6.227,6.227-10.54,13.771-13.003,22.066c-2.927,9.857-10.989,18.227-20.836,21.222c-18.345,5.58-32.608,12.412-48.011,27.815
	c-0.187,0.187-0.372,0.373-0.556,0.56c-22.565,22.831-22.314,59.655,0.385,82.354l39.942,39.942
	c22.698,22.698,59.522,22.949,82.353,0.385C222.493,414.1,222.68,413.914,222.866,413.728z"/>
<path style="fill:#DB3A2E;" d="M271.458,240.423L120.63,394.576l19.323,19.323c22.698,22.698,59.522,22.949,82.353,0.385
	c0.187-0.185,0.373-0.37,0.56-0.557c15.403-15.403,22.235-29.666,27.815-48.011c2.995-9.848,11.365-17.91,21.222-20.836
	c8.295-2.462,15.839-6.775,22.066-13.002c0.457-0.457,0.903-0.92,1.339-1.391c17.887-19.3,16.692-49.521-1.915-68.128
	L271.458,240.423z"/>
<circle style="fill:#BC2622;" cx="213.78" cy="300.13" r="39"/>
<path style="fill:#A31A1A;" d="M240.667,271.893l-54.534,55.736c0.025,0.025,0.047,0.051,0.072,0.076
	c15.23,15.231,39.924,15.231,55.154,0.001c15.23-15.23,15.23-39.924,0-55.155C241.133,272.324,240.898,272.112,240.667,271.893z"/>
<circle style="fill:#9B2B08;" cx="213.78" cy="300.13" r="25.25"/>
<path style="fill:#7A1A00;" d="M231.054,281.718l-35.3,36.078c0.06,0.061,0.115,0.125,0.176,0.185
	c9.861,9.861,25.848,9.861,35.709,0s9.86-25.848,0-35.709C231.446,282.082,231.249,281.902,231.054,281.718z"/>
<rect x="282.088" y="96.524" transform="matrix(-0.7071 -0.7071 0.7071 -0.7071 360.2169 580.9219)" style="fill:#FE9A35;" width="36.667" height="238.668"/>
<polygon style="fill:#FF7C11;" points="214.469,298.668 229.009,313.209 397.772,144.446 381.392,128.066 "/>
<polygon style="fill:#37474F;" points="359.565,180.273 333.637,154.346 374.16,98.702 415.208,139.75 "/>
<polygon style="fill:#263238;" points="415.208,139.75 392.337,116.879 344.778,165.486 359.565,180.273 "/>
<g>
</g>
<g>
</g>
<g>
</g>
<g>
</g>
<g>
</g>
<g>
</g>
<g>
</g>
<g>
</g>
<g>
</g>
<g>
</g>
<g>
</g>
<g>
</g>
<g>
</g>
<g>
</g>
<g>
</g>
</svg>
