<?xml version="1.0" encoding="iso-8859-1"?>
<!-- Generator: Adobe Illustrator 19.0.0, SVG Export Plug-In . SVG Version: 6.00 Build 0)  -->
<svg version="1.1" id="Capa_1" xmlns="http://www.w3.org/2000/svg" xmlns:xlink="http://www.w3.org/1999/xlink" x="0px" y="0px"
	 viewBox="0 0 512 512" style="enable-background:new 0 0 512 512;" xml:space="preserve">
<circle style="fill:#FFEC7C;" cx="256" cy="256" r="256"/>
<path style="fill:#FFDE1F;" d="M507.543,303.707L399.308,197.25l-7.762,28.518l-46.983-46.983l-80.285,113.556l-118.05-118.05
	l-7.468,51.35l-37.44-37.44l-16.925,41.585l0,0l246.973,270.93C421.156,473.096,489.878,397.42,507.543,303.707z"/>
<path style="fill:#E57F25;" d="M512,256c0,141.385-114.615,256-256,256S0,397.385,0,256H512z"/>
<path style="fill:#C1631E;" d="M255.571,256v255.995c0.143,0,0.285,0.005,0.429,0.005c141.385,0,256-114.615,256-256H255.571z"/>
<path style="fill:#F59F1E;" d="M138.5,256c0-64.893,52.607-117.5,117.5-117.5S373.5,191.107,373.5,256H138.5z"/>
<path style="fill:#E57F25;" d="M256,138.5c-0.143,0-0.285,0.005-0.429,0.005V256H373.5C373.5,191.106,320.894,138.5,256,138.5z"/>
<path style="fill:#A3E769;" d="M172.346,206.67L172.346,206.67c-6.981,0-12.64,5.659-12.64,12.64v31.258h-6.087v-60.649
	c0-11.165-9.051-20.216-20.216-20.216l0,0c-11.165,0-20.216,9.051-20.216,20.216v23.912h-8.741v-17.313
	c0-6.981-5.659-12.64-12.64-12.64l0,0c-6.981,0-12.64,5.659-12.64,12.64v17.118c0,15.234,12.35,27.585,27.585,27.585h6.436v57.28
	h40.433v-20.543h3.781c15.234,0,27.585-12.35,27.585-27.585v-31.064C184.986,212.329,179.327,206.67,172.346,206.67z"/>
<path style="fill:#86CE41;" d="M365.187,320.5h40.433v-20.543h3.781c15.235,0,27.585-12.35,27.585-27.585v-31.064
	c0-6.981-5.659-12.64-12.64-12.64l0,0c-6.981,0-12.64,5.659-12.64,12.64v31.258h-6.087v-60.649c0-11.165-9.051-20.216-20.216-20.216
	l0,0c-11.165,0-20.216,9.051-20.216,20.216L365.187,320.5L365.187,320.5z"/>
<g>
</g>
<g>
</g>
<g>
</g>
<g>
</g>
<g>
</g>
<g>
</g>
<g>
</g>
<g>
</g>
<g>
</g>
<g>
</g>
<g>
</g>
<g>
</g>
<g>
</g>
<g>
</g>
<g>
</g>
</svg>
