<?xml version="1.0" encoding="iso-8859-1"?>
<!-- Generator: Adobe Illustrator 19.0.0, SVG Export Plug-In . SVG Version: 6.00 Build 0)  -->
<svg version="1.1" id="Capa_1" xmlns="http://www.w3.org/2000/svg" xmlns:xlink="http://www.w3.org/1999/xlink" x="0px" y="0px"
	 viewBox="0 0 512 512" style="enable-background:new 0 0 512 512;" xml:space="preserve">
<circle style="fill:#EDD9A6;" cx="256" cy="256" r="256"/>
<path style="fill:#C3B48B;" d="M329.816,119.903L60,285.344l225.01,225.01C398.733,497.525,489.879,410.2,508.496,298.33
	l-47.446-47.686L329.816,119.903z"/>
<path style="fill:#AC6646;" d="M464.229,255.641c5.261,14.148-12.738,36.997-50.301,56.723
	C376.726,332.009,319.96,348.531,256,348.159c-63.959,0.372-120.725-16.15-157.928-35.795
	c-37.563-19.726-55.563-42.575-50.301-56.723C59.857,226.606,151.2,236.799,256,235.807
	C360.8,236.798,452.144,226.606,464.229,255.641z"/>
<path style="fill:#824730;" d="M464.229,255.641C452.144,226.606,360.8,236.798,256,235.807c-0.143,0.001-0.285,0.002-0.429,0.003
	v112.348c0.144-0.001,0.285,0.002,0.429,0.001c63.96,0.372,120.726-16.15,157.928-35.795
	C451.491,292.638,469.49,269.789,464.229,255.641z"/>
<path style="fill:#CB8252;" d="M131.974,265.042l40.719-127.867c6.744-21.176,26.413-35.555,48.637-35.555l0,0
	c13.325,0,25.533,5.131,34.669,13.586c9.136-8.455,21.344-13.586,34.669-13.586l0,0c22.224,0,41.894,14.379,48.637,35.555
	l40.719,127.867C380.026,265.042,271.078,348.212,131.974,265.042z"/>
<path style="fill:#AC6646;" d="M380.026,265.042l-40.719-127.867c-6.743-21.176-26.413-35.555-48.637-35.555l0,0
	c-13.325,0-25.532,5.131-34.669,13.586c-0.14-0.13-0.287-0.251-0.429-0.379v187.161
	C330.487,302.854,380.026,265.042,380.026,265.042z"/>
<path style="fill:#605246;" d="M143.781,227.967l-11.806,37.074c139.103,83.17,248.051,0,248.051,0l-11.56-36.302
	C338.057,246.484,250.75,285.532,143.781,227.967z"/>
<path style="fill:#473B33;" d="M380.026,265.042l-11.56-36.302c-18.805,10.973-59.376,30.084-112.894,29.465v43.784
	C330.487,302.854,380.026,265.042,380.026,265.042z"/>
<g>
</g>
<g>
</g>
<g>
</g>
<g>
</g>
<g>
</g>
<g>
</g>
<g>
</g>
<g>
</g>
<g>
</g>
<g>
</g>
<g>
</g>
<g>
</g>
<g>
</g>
<g>
</g>
<g>
</g>
</svg>
