<?xml version="1.0" encoding="iso-8859-1"?>
<!-- Generator: Adobe Illustrator 19.0.0, SVG Export Plug-In . SVG Version: 6.00 Build 0)  -->
<svg version="1.1" id="Capa_1" xmlns="http://www.w3.org/2000/svg" xmlns:xlink="http://www.w3.org/1999/xlink" x="0px" y="0px"
	 viewBox="0 0 512 512" style="enable-background:new 0 0 512 512;" xml:space="preserve">
<circle style="fill:#F9CF4D;" cx="256" cy="256" r="256"/>
<path style="fill:#F59F1E;" d="M503.961,319.897L276.217,92.154L143.206,339.247l-15.837-15.837l-28.746,22.633l165.805,165.805
	C380.02,508.107,476.249,427.752,503.961,319.897z"/>
<circle style="fill:#9B8572;" cx="114.04" cy="336.05" r="18.375"/>
<rect x="113.51" y="332.66" style="fill:#605246;" width="38.891" height="7.85"/>
<path style="fill:#9B8572;" d="M276.217,92.154l-13.393,264.23H146.778l-13.393-264.23
	C133.385,92.154,204.431,51.791,276.217,92.154z"/>
<path style="fill:#866857;" d="M276.217,92.154c-26.404-14.846-52.702-18.764-75.407-17.793v282.023h62.014L276.217,92.154z"/>
<path style="fill:#4C4038;" d="M415.024,390.287c-2.697-16.729-14.461-31.056-31.151-36.596L265.52,314.406l-61.506,52.631
	l55.423,11.297l16.359,11.953l13.344,9.75c6.665,4.87,14.706,7.495,22.961,7.495h102.758l0.525-5.29
	C415.788,398.18,415.65,394.169,415.024,390.287z"/>
<rect x="158.44" y="383.87" style="fill:#44362C;" width="80.28" height="22.478"/>
<rect x="200.81" y="383.87" style="fill:#332821;" width="37.911" height="22.479"/>
<path style="fill:#332821;" d="M275.797,390.287l13.344,9.75c6.665,4.87,14.706,7.495,22.961,7.495H414.86l0.525-5.29
	c0.403-4.061,0.264-8.072-0.361-11.954L275.797,390.287L275.797,390.287z"/>
<path style="fill:#866857;" d="M143.216,286.087l-4.43,26.264c-3.861,26.339,2.483,53.158,17.734,74.977l1.944,2.781l117.34,0.178
	L143.216,286.087z"/>
<polygon style="fill:#605246;" points="200.81,331.35 200.81,390.173 275.804,390.287 "/>
<path style="fill:#866857;" d="M179.914,76.65v142.909h49.773V75.948C211.488,73.087,194.451,74.092,179.914,76.65z"/>
<path style="fill:#605246;" d="M229.688,75.949c-10.057-1.582-19.757-1.978-28.878-1.588v145.198h28.878V75.949z"/>
<g>
</g>
<g>
</g>
<g>
</g>
<g>
</g>
<g>
</g>
<g>
</g>
<g>
</g>
<g>
</g>
<g>
</g>
<g>
</g>
<g>
</g>
<g>
</g>
<g>
</g>
<g>
</g>
<g>
</g>
</svg>
