<?xml version="1.0" encoding="iso-8859-1"?>
<!-- Generator: Adobe Illustrator 19.0.0, SVG Export Plug-In . SVG Version: 6.00 Build 0)  -->
<svg version="1.1" id="Capa_1" xmlns="http://www.w3.org/2000/svg" xmlns:xlink="http://www.w3.org/1999/xlink" x="0px" y="0px"
	 viewBox="0 0 512 512" style="enable-background:new 0 0 512 512;" xml:space="preserve">
<circle style="fill:#F9CF4D;" cx="256" cy="256" r="256"/>
<path style="fill:#F59F1E;" d="M512,256c0-15.828-1.447-31.316-4.196-46.349l-113.54-113.54l-14.04,26.41l-53.376-53.376
	L117.736,404.021l105.955,105.956C234.273,511.31,245.056,512,256,512C397.385,512,512,397.385,512,256z"/>
<g>
	<rect x="117.74" y="210.81" style="fill:#AB6A50;" width="276.53" height="193.21"/>
	<rect x="117.74" y="210.81" style="fill:#AB6A50;" width="137.84" height="193.21"/>
	<rect x="255.57" y="210.81" style="fill:#AB6A50;" width="138.69" height="193.21"/>
</g>
<rect x="117.74" y="96.11" style="fill:#854830;" width="276.53" height="120.12"/>
<rect x="255.57" y="96.11" style="fill:#6D311F;" width="138.69" height="120.12"/>
<rect x="209.26" y="280.47" style="fill:#854830;" width="93.48" height="123.56"/>
<rect x="255.57" y="280.47" style="fill:#703624;" width="47.17" height="123.56"/>
<rect x="209.26" y="318.71" style="fill:#FA8B00;" width="41.27" height="47.07"/>
<rect x="261.48" y="318.71" style="fill:#F47C00;" width="41.27" height="47.07"/>
<rect x="138.66" y="235.36" style="fill:#CBB292;" width="56.22" height="94.46"/>
<rect x="317.12" y="235.36" style="fill:#9B8572;" width="56.22" height="94.46"/>
<rect x="138.66" y="278.99" style="fill:#D1D4D1;" width="56.22" height="50.828"/>
<rect x="317.12" y="278.99" style="fill:#B4ABAC;" width="56.22" height="50.828"/>
<rect x="138.66" y="114.74" style="fill:#CBB292;" width="56.22" height="87.6"/>
<rect x="317.12" y="114.74" style="fill:#9B8572;" width="56.22" height="87.6"/>
<rect x="227.89" y="114.74" style="fill:#CBB292;" width="56.22" height="87.6"/>
<rect x="255.57" y="114.74" style="fill:#9B8572;" width="28.539" height="87.6"/>
<rect x="138.66" y="156.12" style="fill:#D1D4D1;" width="56.22" height="46.23"/>
<rect x="317.12" y="156.12" style="fill:#B4ABAC;" width="56.22" height="46.23"/>
<rect x="227.89" y="156.12" style="fill:#D1D4D1;" width="56.22" height="46.23"/>
<rect x="255.57" y="156.12" style="fill:#B4ABAC;" width="28.539" height="46.23"/>
<rect x="185.15" y="69.14" style="fill:#605246;" width="141.7" height="36.772"/>
<rect x="255.57" y="69.14" style="fill:#493A2F;" width="71.28" height="36.772"/>
<g>
</g>
<g>
</g>
<g>
</g>
<g>
</g>
<g>
</g>
<g>
</g>
<g>
</g>
<g>
</g>
<g>
</g>
<g>
</g>
<g>
</g>
<g>
</g>
<g>
</g>
<g>
</g>
<g>
</g>
</svg>
