<?xml version="1.0" encoding="iso-8859-1"?>
<!-- Generator: Adobe Illustrator 19.0.0, SVG Export Plug-In . SVG Version: 6.00 Build 0)  -->
<svg version="1.1" id="Capa_1" xmlns="http://www.w3.org/2000/svg" xmlns:xlink="http://www.w3.org/1999/xlink" x="0px" y="0px"
	 viewBox="0 0 512 512" style="enable-background:new 0 0 512 512;" xml:space="preserve">
<circle style="fill:#A3E769;" cx="256" cy="256" r="256"/>
<path style="fill:#86CE41;" d="M511.962,258.962L305.333,52.333l-83.69,17.857l-7.353,64.706l57.481,57.481l-59.056,215.908
	L200.067,423.1l87.519,86.959C413.108,494.613,510.493,388.313,511.962,258.962z"/>
<path style="fill:#9B8572;" d="M271.771,147.693c0-8.71-7.061-15.771-15.771-15.771s-15.771,7.061-15.771,15.771v266.384h31.542
	V147.693z"/>
<path style="fill:#866857;" d="M271.771,147.693c0-8.71-7.061-15.771-15.771-15.771c-0.145,0-0.285,0.018-0.429,0.022v282.133
	h16.199V147.693H271.771z"/>
<path style="fill:#FFFFFF;" d="M292.539,440.111L255.667,465l-36.521-24.859c-26.783-18.231-42.813-48.531-42.813-80.931v-59.544
	h159.333v59.301C335.667,391.501,319.505,421.909,292.539,440.111z"/>
<path style="fill:#E6E6E6;" d="M255.667,465l36.872-24.889c26.965-18.202,43.127-48.61,43.127-81.144v-59.301h-80.095L255.667,465z"
	/>
<path style="fill:#9B8572;" d="M206.667,52.333v61c0,18.962,15.372,34.333,34.333,34.333h30c18.962,0,34.333-15.372,34.333-34.333
	v-61H206.667z M267.015,119.939h-22.03c-5.313,0-9.621-4.307-9.621-9.621V80.061h41.271v30.257
	C276.636,115.632,272.328,119.939,267.015,119.939z"/>
<path style="fill:#866857;" d="M255.571,52.333v27.728h21.064v30.257c0,5.313-4.307,9.621-9.621,9.621H255.57v27.728H271
	c18.962,0,34.333-15.372,34.333-34.333v-61h-49.762V52.333z"/>
<g>
</g>
<g>
</g>
<g>
</g>
<g>
</g>
<g>
</g>
<g>
</g>
<g>
</g>
<g>
</g>
<g>
</g>
<g>
</g>
<g>
</g>
<g>
</g>
<g>
</g>
<g>
</g>
<g>
</g>
</svg>
