<?xml version="1.0" encoding="iso-8859-1"?>
<!-- Generator: Adobe Illustrator 19.0.0, SVG Export Plug-In . SVG Version: 6.00 Build 0)  -->
<svg version="1.1" id="Capa_1" xmlns="http://www.w3.org/2000/svg" xmlns:xlink="http://www.w3.org/1999/xlink" x="0px" y="0px"
	 viewBox="0 0 512 512" style="enable-background:new 0 0 512 512;" xml:space="preserve">
<circle style="fill:#F9CF4D;" cx="256" cy="256" r="256"/>
<path style="fill:#F59F1E;" d="M512,256c0-11.807-0.817-23.421-2.364-34.803L403.276,111.33L108.827,164l123.002,123.002
	L112.333,415.667l86.389,89.895C217.138,509.771,236.308,512,256,512C397.385,512,512,397.385,512,256z"/>
<rect x="344.49" y="111.33" style="fill:#493A2F;" width="58.784" height="90.04"/>
<g>
	<rect x="286.45" y="111.33" style="fill:#605246;" width="58.784" height="137.66"/>
	<rect x="228.41" y="111.33" style="fill:#605246;" width="58.784" height="196.44"/>
</g>
<rect x="255.57" y="111.33" style="fill:#493A2F;" width="31.625" height="196.44"/>
<rect x="170.37" y="111.33" style="fill:#866857;" width="58.784" height="248.53"/>
<rect x="112.33" y="111.33" style="fill:#605246;" width="58.784" height="304.34"/>
<rect x="108.83" y="128" style="fill:#9B8572;" width="299.5" height="36"/>
<rect x="255.57" y="128" style="fill:#866857;" width="152.76" height="36"/>
<g>
</g>
<g>
</g>
<g>
</g>
<g>
</g>
<g>
</g>
<g>
</g>
<g>
</g>
<g>
</g>
<g>
</g>
<g>
</g>
<g>
</g>
<g>
</g>
<g>
</g>
<g>
</g>
<g>
</g>
</svg>
