<?xml version="1.0" encoding="iso-8859-1"?>
<!-- Generator: Adobe Illustrator 19.0.0, SVG Export Plug-In . SVG Version: 6.00 Build 0)  -->
<svg version="1.1" id="Capa_1" xmlns="http://www.w3.org/2000/svg" xmlns:xlink="http://www.w3.org/1999/xlink" x="0px" y="0px"
	 viewBox="0 0 512 512" style="enable-background:new 0 0 512 512;" xml:space="preserve">
<circle style="fill:#866857;" cx="256" cy="256" r="256"/>
<path style="fill:#605246;" d="M512,256c0-24.454-3.433-48.105-9.836-70.503L407,90.333l-29.905,34.395L329.367,77l-143.438,2.324
	L166.286,129L125,90.333l-20,315.333l101.541,101.542C222.546,510.341,239.078,512,256,512C397.385,512,512,397.385,512,256z"/>
<path style="fill:#E6E6E6;" d="M339.032,173.918H172.967v-71.44c0-21.238,17.279-38.517,38.518-38.517h89.03
	c21.239,0,38.518,17.279,38.518,38.517L339.032,173.918z M188.331,158.554h135.338v-56.076c0-12.767-10.387-23.154-23.154-23.154
	h-89.03c-12.767,0-23.154,10.387-23.154,23.154L188.331,158.554z"/>
<path style="fill:#CCCCCC;" d="M339.033,102.478c0-21.238-17.279-38.517-38.518-38.517h-44.944v15.363h44.944
	c12.767,0,23.154,10.387,23.154,23.154v56.076h-68.098v15.363h83.461L339.033,102.478z"/>
<rect x="111.67" y="109" style="fill:#F59F1E;" width="212" height="20"/>
<g>
	<rect x="255.57" y="109" style="fill:#E57F25;" width="68.09" height="20"/>
	<rect x="339.04" y="109" style="fill:#E57F25;" width="51.965" height="20"/>
	<path style="fill:#E57F25;" d="M240.496,412.784c0,23.654-19.176,42.83-42.83,42.83s-42.83-19.176-42.83-42.83
		s42.83-89.229,42.83-89.229S240.496,389.129,240.496,412.784z"/>
</g>
<path style="fill:#F0C419;" d="M223.177,422.522c0,14.089-11.421,25.511-25.511,25.511s-25.511-11.421-25.511-25.511
	s25.511-53.147,25.511-53.147S223.177,408.433,223.177,422.522z"/>
<path style="fill:#D36F24;" d="M357.163,412.784c0,23.654-19.176,42.83-42.83,42.83s-42.83-19.176-42.83-42.83
	s42.83-89.229,42.83-89.229S357.163,389.129,357.163,412.784z"/>
<path style="fill:#F59F1E;" d="M339.844,422.522c0,14.089-11.421,25.511-25.511,25.511s-25.511-11.421-25.511-25.511
	s25.511-53.147,25.511-53.147S339.844,408.433,339.844,422.522z"/>
<path style="fill:#AFBDC4;" d="M310.921,269.973H201.079c-21.011,0-38.045-17.033-38.045-38.045v-78.663h185.932v78.663
	C348.966,252.94,331.933,269.973,310.921,269.973z"/>
<path style="fill:#8FA3AD;" d="M255.571,153.265v116.708h55.35c21.011,0,38.045-17.033,38.045-38.044v-78.663L255.571,153.265
	L255.571,153.265z"/>
<path style="fill:#F59F1E;" d="M306.776,404.837c0,28.043-22.733,50.776-50.776,50.776s-50.776-22.733-50.776-50.776
	S256,299.053,256,299.053S306.776,376.794,306.776,404.837z"/>
<path style="fill:#E57F25;" d="M256,455.613c28.043,0,50.776-22.733,50.776-50.776S256,299.053,256,299.053V455.613z"/>
<path style="fill:#F0C419;" d="M286.244,416.382c0,16.703-13.541,30.244-30.244,30.244s-30.244-13.541-30.244-30.244
	S256,353.374,256,353.374S286.244,399.679,286.244,416.382z"/>
<path style="fill:#F59F1E;" d="M256,446.625c16.703,0,30.244-13.541,30.244-30.244S256,353.374,256,353.374V446.625z"/>
<rect x="105" y="90.33" style="fill:#E57F25;" width="20" height="315.33"/>
<rect x="387" y="90.33" style="fill:#C96C27;" width="20" height="315.33"/>
<g>
</g>
<g>
</g>
<g>
</g>
<g>
</g>
<g>
</g>
<g>
</g>
<g>
</g>
<g>
</g>
<g>
</g>
<g>
</g>
<g>
</g>
<g>
</g>
<g>
</g>
<g>
</g>
<g>
</g>
</svg>
