<?xml version="1.0" encoding="iso-8859-1"?>
<!-- Generator: Adobe Illustrator 19.0.0, SVG Export Plug-In . SVG Version: 6.00 Build 0)  -->
<svg version="1.1" id="Capa_1" xmlns="http://www.w3.org/2000/svg" xmlns:xlink="http://www.w3.org/1999/xlink" x="0px" y="0px"
	 viewBox="0 0 512 512" style="enable-background:new 0 0 512 512;" xml:space="preserve">
<circle style="fill:#F9CF4D;" cx="256" cy="256" r="256"/>
<path style="fill:#F59F1E;" d="M509.329,292.995L270,53.667L256,157.69l-34,16.643l35.922,35.922L222,211l22.708,22.708L222,245.667
	L238.333,262l-44.915,80.81v79.705l88.212,88.212C398.735,499.084,492.603,408.529,509.329,292.995z"/>
<path style="fill:#866857;" d="M317.728,290.562c-13.583-24.001-30.131-39.466-47.646-44.895H290v-28h-20V211h20v-28h-20v-8.667h20
	v-28h-20V53.667h-28v92.667h-20v28h20V183h-20v28h20v6.667h-20v28h19.918c-17.515,5.429-34.063,20.894-47.646,44.895
	c-13.569,23.977-22.337,53.765-22.337,75.888c0,46.354,37.711,84.065,84.064,84.065s84.064-37.711,84.064-84.065
	C340.064,344.326,331.297,314.538,317.728,290.562z M256,422.514c-30.914,0-56.064-25.15-56.064-56.065
	c0-17.373,7.518-42.327,18.706-62.097c11.646-20.58,25.612-32.866,37.358-32.866s25.712,12.287,37.358,32.866
	c11.188,19.77,18.706,44.725,18.706,62.097C312.064,397.364,286.914,422.514,256,422.514z"/>
<path style="fill:#605246;" d="M317.728,290.562c-13.583-24.001-30.131-39.466-47.646-44.895H290v-28h-20V211h20v-28h-20v-8.667h20
	v-28h-20V53.667h-14.429V271.5c0.143-0.004,0.287-0.014,0.429-0.014c11.746,0,25.712,12.287,37.358,32.866
	c11.188,19.77,18.706,44.725,18.706,62.097c0,30.915-25.15,56.065-56.064,56.065c-0.144,0-0.285-0.01-0.429-0.011v28
	c0.144,0,0.285,0.011,0.429,0.011c46.354,0,84.064-37.711,84.064-84.065C340.064,344.326,331.297,314.538,317.728,290.562z"/>
<g>
</g>
<g>
</g>
<g>
</g>
<g>
</g>
<g>
</g>
<g>
</g>
<g>
</g>
<g>
</g>
<g>
</g>
<g>
</g>
<g>
</g>
<g>
</g>
<g>
</g>
<g>
</g>
<g>
</g>
</svg>
