<?xml version="1.0" encoding="iso-8859-1"?>
<!-- Generator: Adobe Illustrator 19.0.0, SVG Export Plug-In . SVG Version: 6.00 Build 0)  -->
<svg version="1.1" id="Capa_1" xmlns="http://www.w3.org/2000/svg" xmlns:xlink="http://www.w3.org/1999/xlink" x="0px" y="0px"
	 viewBox="0 0 512 512" style="enable-background:new 0 0 512 512;" xml:space="preserve">
<circle style="fill:#EDD9A6;" cx="256" cy="256" r="256"/>
<path style="fill:#C3B48B;" d="M512,256c0-4.124-0.107-8.223-0.3-12.3L373.333,105.333L138.667,406.667L243.7,511.7
	c4.076,0.193,8.176,0.3,12.3,0.3C397.385,512,512,397.385,512,256z"/>
<rect x="138.67" y="105.33" style="fill:#F59F1E;" width="234.67" height="301.33"/>
<rect x="255.57" y="105.33" style="fill:#E57F25;" width="117.76" height="301.33"/>
<rect x="138.67" y="173" style="fill:#813531;" width="234.67" height="166"/>
<rect x="255.57" y="173" style="fill:#5E2423;" width="117.76" height="166"/>
<path style="fill:#E64C3C;" d="M282.049,217.731c0.146,0.06,0.292,0.121,0.437,0.181c14.068,5.833,20.833,23.053,13.778,35.036
	c-11.609,19.72-29.468,34.407-51.058,41.992c-13.119,4.609-28.71-5.353-31.717-20.283c-0.031-0.155-0.062-0.309-0.093-0.464
	c-2.147-10.657,3.053-20.282,12.398-23.618c12.939-4.619,23.658-13.435,30.689-25.239
	C261.559,216.811,272.007,213.567,282.049,217.731z"/>
<path style="fill:#DB3A2E;" d="M282.487,217.912c-0.146-0.06-0.292-0.121-0.437-0.181c-10.042-4.164-20.49-0.919-25.567,7.605
	c-0.294,0.494-0.604,0.974-0.911,1.457v63.801c16.94-8.243,31.001-21.182,40.693-37.646
	C303.32,240.965,296.554,223.745,282.487,217.912z"/>
<g>
</g>
<g>
</g>
<g>
</g>
<g>
</g>
<g>
</g>
<g>
</g>
<g>
</g>
<g>
</g>
<g>
</g>
<g>
</g>
<g>
</g>
<g>
</g>
<g>
</g>
<g>
</g>
<g>
</g>
</svg>
