<?xml version="1.0" encoding="iso-8859-1"?>
<!-- Generator: Adobe Illustrator 19.0.0, SVG Export Plug-In . SVG Version: 6.00 Build 0)  -->
<svg version="1.1" id="Capa_1" xmlns="http://www.w3.org/2000/svg" xmlns:xlink="http://www.w3.org/1999/xlink" x="0px" y="0px"
	 viewBox="0 0 512 512" style="enable-background:new 0 0 512 512;" xml:space="preserve">
<circle style="fill:#A3E769;" cx="256" cy="256" r="256"/>
<path style="fill:#86CE41;" d="M265.141,511.82c122.475-4.301,223.053-94.621,243.176-212.406L260.146,51.242l3.313,26.845
	L103.63,237.917l-35.431-35.431L77,269.595l-22.373,31.711L265.141,511.82z"/>
<rect x="81" y="246.33" style="fill:#EBEEF0;" width="293.33" height="19.333"/>
<rect x="81" y="255.91" style="fill:#CED7DB;" width="293.33" height="9.762"/>
<path style="fill:#546E7A;" d="M54.627,301.306l13.567,8.206l0,0c29.557-29.554,29.56-77.471,0.005-107.026l0,0l-13.568,8.206
	C74.703,237.475,74.702,274.522,54.627,301.306z"/>
<path style="fill:#455A64;" d="M69.682,255.905c0.019,15.989-4.998,31.983-15.055,45.401l13.567,8.206l0,0
	c14.803-14.801,22.19-34.208,22.167-53.607H69.682z"/>
<path style="fill:#546E7A;" d="M455,255.999l-72.541,53.514l0,0c-29.555-29.554-29.553-77.472,0.004-107.026l0,0L455,255.999z"/>
<path style="fill:#455A64;" d="M360.296,255.905c-0.025,19.399,7.361,38.806,22.163,53.608l0,0L455,255.999L360.296,255.905z"/>
<polygon style="fill:#9B8572;" points="253.212,441.907 67.723,263.573 67.723,248.435 253.229,70.098 267.784,85.236 
	90.15,256.004 267.767,426.769 "/>
<g>
	<polygon style="fill:#866857;" points="90.254,255.905 67.723,255.905 67.723,263.573 253.212,441.907 267.767,426.769 
		90.15,256.004 	"/>
	<path style="fill:#866857;" d="M260.145,51.242l-0.001-0.001l-17.791,10.76c99.445,110.018,99.437,277.975-0.017,387.993
		l17.791,10.76v-0.001C373.223,347.67,373.231,164.326,260.145,51.242z"/>
</g>
<path style="fill:#605246;" d="M316.931,255.905c0.019,69.525-24.845,139.056-74.595,194.09l17.791,10.76v-0.001
	c56.572-56.565,84.846-130.711,84.826-204.849H316.931z"/>
<g>
</g>
<g>
</g>
<g>
</g>
<g>
</g>
<g>
</g>
<g>
</g>
<g>
</g>
<g>
</g>
<g>
</g>
<g>
</g>
<g>
</g>
<g>
</g>
<g>
</g>
<g>
</g>
<g>
</g>
</svg>
