<?xml version="1.0" encoding="iso-8859-1"?>
<!-- Generator: Adobe Illustrator 19.0.0, SVG Export Plug-In . SVG Version: 6.00 Build 0)  -->
<svg version="1.1" id="Capa_1" xmlns="http://www.w3.org/2000/svg" xmlns:xlink="http://www.w3.org/1999/xlink" x="0px" y="0px"
	 viewBox="0 0 512 512" style="enable-background:new 0 0 512 512;" xml:space="preserve">
<circle style="fill:#A3E769;" cx="256" cy="256" r="256"/>
<path style="fill:#86CE41;" d="M512,256c0-7.209-0.314-14.344-0.898-21.403l-87.024-87.024l-198.32,150.411l-71.711-71.71
	L99.142,369.702L240.99,511.551c4.968,0.287,9.97,0.449,15.01,0.449C397.385,512,512,397.385,512,256z"/>
<path style="fill:#EF7C73;" d="M399.131,295.679L399.131,295.679c-26.36-26.361-26.36-69.099,0-95.46l0,0l0,0
	C425.491,226.58,425.491,269.318,399.131,295.679L399.131,295.679z"/>
<path style="fill:#C6605C;" d="M399.131,200.219L399.131,200.219L399.131,200.219c-0.242,0.241-0.465,0.494-0.702,0.738v93.983
	c0.237,0.244,0.46,0.497,0.702,0.738l0,0l0,0C425.491,269.318,425.491,226.58,399.131,200.219z"/>
<path style="fill:#E64C3C;" d="M373.131,293.679L373.131,293.679c-26.36-26.361-26.36-69.099,0-95.46l0,0l0,0
	C399.491,224.58,399.491,267.318,373.131,293.679L373.131,293.679z"/>
<path style="fill:#DB3A2E;" d="M373.131,198.219L373.131,198.219L373.131,198.219c-0.293,0.293-0.565,0.598-0.851,0.895l0.48,94.175
	c0.126,0.128,0.243,0.262,0.371,0.39l0,0l0,0C399.491,267.318,399.491,224.58,373.131,198.219z"/>
<rect x="72.809" y="246.036" transform="matrix(-0.8882 0.4595 -0.4595 -0.8882 361.8767 469.5101)" style="fill:#9B8572;" width="102.002" height="65.501"/>
<rect x="66.283" y="234.631" transform="matrix(-0.8882 0.4595 -0.4595 -0.8882 612.8282 368.1316)" style="fill:#866857;" width="390.678" height="48.001"/>
<polygon style="fill:#605246;" points="446.132,190.207 433.433,165.659 89,350.097 99.142,369.702 "/>
<rect x="323.818" y="182.711" transform="matrix(-0.8882 0.4595 -0.4595 -0.8882 778.4738 223.98)" style="fill:#9B8572;" width="76.332" height="48.001"/>
<polygon style="fill:#866857;" points="327.194,222.548 339.104,245.572 406.903,210.499 394.494,186.51 "/>
<rect x="282.282" y="217.474" transform="matrix(-0.8882 0.4595 -0.4595 -0.8882 667.5583 320.4983)" style="fill:#9B8572;" width="25" height="48.001"/>
<polygon style="fill:#866857;" points="283.111,246.154 294.694,268.544 316.899,257.058 305.153,234.351 "/>
<g>
</g>
<g>
</g>
<g>
</g>
<g>
</g>
<g>
</g>
<g>
</g>
<g>
</g>
<g>
</g>
<g>
</g>
<g>
</g>
<g>
</g>
<g>
</g>
<g>
</g>
<g>
</g>
<g>
</g>
</svg>
