<?xml version="1.0" encoding="iso-8859-1"?>
<!-- Generator: Adobe Illustrator 19.0.0, SVG Export Plug-In . SVG Version: 6.00 Build 0)  -->
<svg version="1.1" id="Capa_1" xmlns="http://www.w3.org/2000/svg" xmlns:xlink="http://www.w3.org/1999/xlink" x="0px" y="0px"
	 viewBox="0 0 512 512" style="enable-background:new 0 0 512 512;" xml:space="preserve">
<circle style="fill:#F9CF4D;" cx="256" cy="256" r="256"/>
<path style="fill:#F59F1E;" d="M505.321,314.321L256,65L99.729,393.5l115.206,115.206C228.307,510.862,242.02,512,256,512
	C377.321,512,478.925,427.604,505.321,314.321z"/>
<polygon style="fill:#E0E0E0;" points="99.729,393.5 256,65 412.271,393.5 "/>
<polygon style="fill:#C0C0C0;" points="255.571,393.5 412.271,393.5 256,65 "/>
<polygon style="fill:#E64C3C;" points="163.712,259 125.973,338.333 386.027,338.333 348.288,259 "/>
<polygon style="fill:#DB3A2E;" points="348.288,259 255.571,259 255.571,338.333 386.027,338.333 "/>
<polygon style="fill:#866857;" points="125.973,338.333 99.729,393.5 412.271,393.5 386.027,338.333 "/>
<polygon style="fill:#605246;" points="386.027,338.333 255.571,338.333 255.571,393.5 412.271,393.5 "/>
<path style="fill:#455A64;" d="M290,393.5h-68v-116c0-18.778,15.222-34,34-34l0,0c18.778,0,34,15.222,34,34V393.5z"/>
<path style="fill:#37474F;" d="M290,277.5c0-18.778-15.222-34-34-34l0,0c-0.144,0-0.285,0.009-0.429,0.011V393.5H290V277.5z"/>
<g>
</g>
<g>
</g>
<g>
</g>
<g>
</g>
<g>
</g>
<g>
</g>
<g>
</g>
<g>
</g>
<g>
</g>
<g>
</g>
<g>
</g>
<g>
</g>
<g>
</g>
<g>
</g>
<g>
</g>
</svg>
