<?xml version="1.0" encoding="iso-8859-1"?>
<!-- Generator: Adobe Illustrator 19.0.0, SVG Export Plug-In . SVG Version: 6.00 Build 0)  -->
<svg version="1.1" id="Capa_1" xmlns="http://www.w3.org/2000/svg" xmlns:xlink="http://www.w3.org/1999/xlink" x="0px" y="0px"
	 viewBox="0 0 512 512" style="enable-background:new 0 0 512 512;" xml:space="preserve">
<path style="fill:#866857;" d="M0,256.008C0,114.628,114.62-1.566,255.991,0.017C398.75,1.616,513.631,116.54,511.982,256.008
	c-1.672,141.37-114.611,255.991-255.991,255.991S0,397.388,0,256.008z"/>
<path style="fill:#605246;" d="M283.547,510.517C411.771,496.759,510.42,388.06,511.982,256.008
	c0.244-20.632-2.081-40.721-6.651-59.991l-85.671-85.671l-6.924,80.856l-167.597,71.944L92.339,110.346l13.447,118.566
	l93.264,93.264l-17.193,8.863l51.07,51.07l-19.675,21.02l33.344,33.344l-18.927,18.165L283.547,510.517z"/>
<path style="fill:#FFFFFF;" d="M92.339,110.346l-9.074,34.214c-12.593,47.486,16.219,96.067,63.929,107.788l67.808,16.659
	l12.667-44.665l-62.596-11.54c-34.098-6.286-60.678-33.136-66.619-67.296L92.339,110.346z"/>
<path style="fill:#E6E6E6;" d="M419.66,110.346l9.074,34.214c12.593,47.486-16.219,96.067-63.929,107.788l-67.808,16.659
	l-12.667-44.665l62.596-11.54c34.098-6.286,60.678-33.136,66.619-67.296L419.66,110.346z"/>
<path style="fill:#E0E0E0;" d="M297.499,201.01h-82.997c-23.471,0-42.499,19.027-42.499,42.499v60.331
	c0,19.666,13.362,36.205,31.499,41.053v37.361c0,11.537,7.173,21.391,17.299,25.366v32.707c0,10.137,8.218,18.354,18.354,18.354
	h34.689c10.137,0,18.354-8.218,18.354-18.354v-32.707c10.126-3.976,17.299-13.831,17.299-25.367v-37.645
	c17.625-5.18,30.499-21.466,30.499-40.77v-60.331C339.997,220.037,320.97,201.01,297.499,201.01z"/>
<g>
	<path style="fill:#C0C0C0;" d="M297.499,201.01h-41.928v257.672h18.272c10.137,0,18.354-8.218,18.354-18.354V407.62
		c10.126-3.976,17.299-13.831,17.299-25.367v-37.645c17.625-5.18,30.499-21.466,30.499-40.77v-60.331
		C339.997,220.037,320.97,201.01,297.499,201.01z"/>
	<path style="fill:#C0C0C0;" d="M242.5,446.001L242.5,446.001c-3.452,0-6.25-2.798-6.25-6.25v-36.499c0-3.452,2.798-6.25,6.25-6.25
		l0,0c3.452,0,6.25,2.798,6.25,6.25v36.499C248.75,443.203,245.952,446.001,242.5,446.001z"/>
</g>
<path style="fill:#758F9B;" d="M269.5,446.001L269.5,446.001c-3.452,0-6.25-2.798-6.25-6.25v-36.499c0-3.452,2.798-6.25,6.25-6.25
	l0,0c3.452,0,6.25,2.798,6.25,6.25v36.499C275.749,443.203,272.951,446.001,269.5,446.001z"/>
<path style="fill:#C0C0C0;" d="M238.177,318.286c0,7.043-5.71,12.753-12.753,12.753h-6.087c-17.127,0-31.012-13.885-31.012-31.012
	v-3.768c0-7.043,5.71-12.753,12.753-12.753L238.177,318.286z"/>
<path style="fill:#758F9B;" d="M273.823,318.286c0,7.043,5.71,12.753,12.753,12.753h6.087c17.127,0,31.012-13.885,31.012-31.012
	v-3.768c0-7.043-5.71-12.753-12.753-12.753L273.823,318.286z"/>
<g>
</g>
<g>
</g>
<g>
</g>
<g>
</g>
<g>
</g>
<g>
</g>
<g>
</g>
<g>
</g>
<g>
</g>
<g>
</g>
<g>
</g>
<g>
</g>
<g>
</g>
<g>
</g>
<g>
</g>
</svg>
