<?xml version="1.0" encoding="iso-8859-1"?>
<!-- Generator: Adobe Illustrator 19.0.0, SVG Export Plug-In . SVG Version: 6.00 Build 0)  -->
<svg version="1.1" id="Capa_1" xmlns="http://www.w3.org/2000/svg" xmlns:xlink="http://www.w3.org/1999/xlink" x="0px" y="0px"
	 viewBox="0 0 512 512" style="enable-background:new 0 0 512 512;" xml:space="preserve">
<circle style="fill:#E64C3C;" cx="256" cy="256" r="256"/>
<path style="fill:#DB3A2E;" d="M512,256c0-1.758-0.031-3.508-0.067-5.257l-98.255-98.255l-4.63,26.818l-63.301-63.301l-22.628-21.46
	l0,0L129.061,428.921l78.478,78.479c15.694,3.006,31.89,4.6,48.461,4.6C397.385,512,512,397.385,512,256z"/>
<path style="fill:#FFF6E1;" d="M289.969,82.613c-13.422,0-25.655,5.085-34.882,13.431c-12.46-15.618-31.642-25.638-53.176-25.638
	c-37.558,0-68.005,30.447-68.005,68.005s30.447,68.005,68.005,68.005c23.627,0,44.432-12.054,56.621-30.342
	c8.733,6.635,19.623,10.58,31.437,10.58c28.73,0,52.021-23.29,52.021-52.021S318.699,82.613,289.969,82.613z"/>
<path style="fill:#EAE0CC;" d="M289.969,82.613c-13.192,0-25.228,4.92-34.397,13.012v84.541c1.034-1.327,2.026-2.688,2.961-4.091
	c8.733,6.635,19.623,10.58,31.437,10.58c28.73,0,52.021-23.291,52.021-52.021S318.699,82.613,289.969,82.613z"/>
<path style="fill:#FFA02E;" d="M362.017,377.191h-55.922V132.427h55.922c42.288,0,76.691,34.403,76.691,76.691V300.5
	C438.708,342.788,404.305,377.191,362.017,377.191z M341.095,342.191h20.922c22.988,0,41.691-18.703,41.691-41.691v-91.382
	c0-22.988-18.703-41.691-41.691-41.691h-20.922V342.191z"/>
<rect x="129.06" y="116" style="fill:#FFFFFF;" width="216.69" height="312.92"/>
<rect x="255.57" y="116" style="fill:#E6E6E6;" width="90.18" height="312.92"/>
<rect x="129.06" y="200.98" style="fill:#FFB80E;" width="216.69" height="227.94"/>
<rect x="255.57" y="200.98" style="fill:#FFA02E;" width="90.18" height="227.94"/>
<g>
</g>
<g>
</g>
<g>
</g>
<g>
</g>
<g>
</g>
<g>
</g>
<g>
</g>
<g>
</g>
<g>
</g>
<g>
</g>
<g>
</g>
<g>
</g>
<g>
</g>
<g>
</g>
<g>
</g>
</svg>
