<?xml version="1.0" encoding="iso-8859-1"?>
<!-- Generator: Adobe Illustrator 19.0.0, SVG Export Plug-In . SVG Version: 6.00 Build 0)  -->
<svg version="1.1" id="Capa_1" xmlns="http://www.w3.org/2000/svg" xmlns:xlink="http://www.w3.org/1999/xlink" x="0px" y="0px"
	 viewBox="0 0 512 512" style="enable-background:new 0 0 512 512;" xml:space="preserve">
<circle style="fill:#F9CF4D;" cx="256" cy="256" r="256"/>
<path style="fill:#F59F1E;" d="M512,256c0-11.867-0.826-23.54-2.389-34.978L405.089,116.5L136.008,240.907l61.74,61.74
	l-15.766,9.523l35.974,35.974l-45.873,95.194l68.166,68.166C245.461,511.82,250.709,512,256,512C397.385,512,512,397.385,512,256z"
	/>
<rect x="201.17" y="293.48" style="fill:#866857;" width="21.819" height="83.83"/>
<path style="fill:#605246;" d="M212.083,324.433L212.083,324.433c-23.805,0-43.103-19.298-43.103-43.103V227l86.207-8v62.329
	C255.187,305.135,235.889,324.433,212.083,324.433z"/>
<path style="fill:#866857;" d="M104,116.5v49.25C104,223.326,150.674,270,208.25,270h13.25c91.74,0,168.009-66.239,183.589-153.5
	H104z"/>
<path style="fill:#605246;" d="M405.089,116.5H255.571v150.39C331.612,252.852,391.486,192.692,405.089,116.5z"/>
<path style="fill:#CB8252;" d="M139.083,116.5v36.345c0,42.489,34.444,76.933,76.933,76.933h9.778
	c67.701,0,123.985-48.882,135.482-113.278H139.083z"/>
<path style="fill:#AC6646;" d="M361.276,116.5H255.571v110.04C309.473,214.65,351.515,171.169,361.276,116.5z"/>
<path style="fill:#866857;" d="M252.083,443.338h-80v-40c0-22.056,17.944-40,40-40s40,17.944,40,40V443.338z M193.902,421.519
	h36.362v-18.181c0-10.025-8.156-18.181-18.181-18.181s-18.181,8.156-18.181,18.181V421.519z"/>
<g>
</g>
<g>
</g>
<g>
</g>
<g>
</g>
<g>
</g>
<g>
</g>
<g>
</g>
<g>
</g>
<g>
</g>
<g>
</g>
<g>
</g>
<g>
</g>
<g>
</g>
<g>
</g>
<g>
</g>
</svg>
