<?xml version="1.0" encoding="iso-8859-1"?>
<!-- Generator: Adobe Illustrator 19.0.0, SVG Export Plug-In . SVG Version: 6.00 Build 0)  -->
<svg version="1.1" id="Capa_1" xmlns="http://www.w3.org/2000/svg" xmlns:xlink="http://www.w3.org/1999/xlink" x="0px" y="0px"
	 viewBox="0 0 512 512" style="enable-background:new 0 0 512 512;" xml:space="preserve">
<circle style="fill:#CB8252;" cx="256" cy="256" r="256"/>
<path style="fill:#AC6646;" d="M512,256c0-7.078-0.3-14.085-0.864-21.018l-115.66-115.66l-28.111,40.227l-90.156-90.156
	l-11.542,45.275l-3.286,104.908L162.128,119.322l-38.583,45.914l93.57,93.57l-151.308,14.08l90.467,90.467l-39.748,29.328
	l118.456,118.456C241.915,511.7,248.922,512,256,512C397.385,512,512,397.385,512,256z"/>
<path style="fill:#FBAE17;" d="M422.074,225.685c-11.323-0.391-21.314,5.43-26.842,14.315h-0.251
	c-14.296,0-26.848-9.128-31.684-22.582c-1.297-3.609-2.771-7.133-4.412-10.563c-6.075-12.7-3.229-27.885,6.725-37.839l0.154-0.154
	c10.192,2.374,21.371-0.574,29.101-8.856c10.542-11.295,10.821-29.089,0.61-40.684c-11.687-13.271-31.943-13.752-44.252-1.443
	c-7.692,7.692-10.384,18.487-8.086,28.355l-0.154,0.154c-9.955,9.955-25.139,12.8-37.839,6.725
	c-3.43-1.641-6.954-3.115-10.563-4.412C281.128,143.865,272,131.314,272,117.017v-0.249c8.885-5.529,14.706-15.52,14.315-26.843
	c-0.534-15.441-12.921-28.22-28.34-29.196C240.328,59.612,225.667,73.594,225.667,91c0,10.879,5.73,20.415,14.333,25.768v0.251
	c0,14.295-9.127,26.846-22.58,31.681c-3.61,1.298-7.135,2.772-10.565,4.413c-12.7,6.075-27.885,3.23-37.84-6.725l-0.154-0.154
	c2.373-10.192-0.575-21.373-8.859-29.103c-11.296-10.541-29.09-10.818-40.683-0.606c-13.269,11.688-13.75,31.942-1.442,44.251
	c7.693,7.692,18.488,10.384,28.357,8.085l0.154,0.154c9.955,9.955,12.801,25.139,6.725,37.84c-1.641,3.43-3.115,6.955-4.412,10.564
	c-4.836,13.453-17.386,22.58-31.681,22.58h-0.253c-5.529-8.885-15.519-14.706-26.842-14.315
	c-15.441,0.534-28.219,12.92-29.196,28.339c-1.118,17.649,12.864,32.31,30.271,32.31c10.879,0,20.415-5.73,25.768-14.333h0.253
	c14.296,0,26.846,9.128,31.682,22.581c1.297,3.609,2.771,7.133,4.411,10.562c6.075,12.699,3.229,27.883-6.726,37.837l-0.157,0.157
	c-10.192-2.372-21.371,0.577-29.1,8.86c-10.54,11.296-10.817,29.089-0.605,40.683c11.688,13.269,31.942,13.75,44.25,1.441
	c7.693-7.693,10.384-18.49,8.085-28.359l0.151-0.151c9.955-9.955,25.141-12.801,37.841-6.725c3.431,1.641,6.956,3.116,10.567,4.414
	c13.452,4.836,22.58,17.386,22.58,31.681v0.252c-8.885,5.529-14.706,15.519-14.315,26.843c0.534,15.441,12.92,28.22,28.34,29.196
	c17.647,1.117,32.308-12.864,32.308-30.271c0-10.879-5.73-20.415-14.333-25.768v-0.252c0-14.295,9.127-26.846,22.58-31.681
	c3.61-1.297,7.135-2.772,10.565-4.413c12.7-6.075,27.884-3.23,37.839,6.725l0.155,0.155c-2.373,10.192,0.575,21.372,8.858,29.102
	c11.296,10.541,29.09,10.818,40.684,0.606c13.269-11.688,13.749-31.942,1.441-44.25c-7.693-7.692-18.488-10.384-28.357-8.085
	l-0.155-0.155c-9.955-9.955-12.8-25.139-6.725-37.839c1.641-3.43,3.115-6.955,4.413-10.565c4.836-13.453,17.386-22.58,31.681-22.58
	h0.253c5.353,8.603,14.889,14.333,25.768,14.333c17.407,0,31.389-14.661,30.271-32.309
	C450.294,238.605,437.516,226.219,422.074,225.685z"/>
<path style="fill:#E09612;" d="M451.271,254.024c-0.977-15.419-13.755-27.806-29.196-28.339
	c-11.323-0.391-21.313,5.43-26.842,14.315h-0.251c-14.296,0-26.848-9.128-31.684-22.582c-1.297-3.609-2.771-7.133-4.412-10.563
	c-6.075-12.7-3.229-27.885,6.725-37.839l0.154-0.154c10.192,2.374,21.371-0.574,29.101-8.856
	c10.542-11.295,10.821-29.089,0.61-40.684c-11.688-13.271-31.943-13.752-44.252-1.443c-7.692,7.692-10.384,18.487-8.086,28.355
	l-0.154,0.154c-9.955,9.955-25.139,12.8-37.839,6.725c-3.43-1.641-6.954-3.115-10.563-4.412
	C281.128,143.865,272,131.314,272,117.017v-0.249c8.885-5.529,14.706-15.52,14.315-26.843c-0.534-15.441-12.921-28.22-28.34-29.196
	c-0.809-0.051-1.608-0.06-2.403-0.049v390.648c16.949,0.234,30.762-13.433,30.762-30.328c0-10.879-5.73-20.415-14.333-25.768v-0.251
	c0-14.295,9.127-26.846,22.58-31.681c3.61-1.297,7.135-2.772,10.565-4.413c12.7-6.075,27.885-3.229,37.839,6.725l0.155,0.155
	c-2.373,10.192,0.575,21.373,8.858,29.103c11.296,10.541,29.09,10.818,40.684,0.606c13.269-11.688,13.749-31.942,1.441-44.25
	c-7.693-7.692-18.488-10.384-28.357-8.085l-0.155-0.155c-9.955-9.955-12.801-25.139-6.725-37.839
	c1.641-3.43,3.115-6.955,4.412-10.565c4.836-13.453,17.386-22.58,31.681-22.58h0.253c5.353,8.603,14.889,14.333,25.768,14.333
	C438.406,286.333,452.388,271.672,451.271,254.024z"/>
<circle style="fill:#F59F1E;" cx="256" cy="256" r="84"/>
<path style="fill:#E57F25;" d="M256,172c-0.144,0-0.285,0.01-0.429,0.011v167.978C255.715,339.99,255.856,340,256,340
	c46.392,0,84-37.608,84-84S302.392,172,256,172z"/>
<polygon style="fill:#F9CF4D;" points="256,190.205 275.927,230.582 320.486,237.057 288.243,268.486 295.855,312.865 256,291.912 
	216.145,312.865 223.757,268.486 191.514,237.057 236.073,230.582 "/>
<polygon style="fill:#F59F1E;" points="320.486,237.057 275.927,230.582 256,190.205 255.571,191.073 255.571,292.137 256,291.912 
	295.855,312.865 288.243,268.486 "/>
<g>
</g>
<g>
</g>
<g>
</g>
<g>
</g>
<g>
</g>
<g>
</g>
<g>
</g>
<g>
</g>
<g>
</g>
<g>
</g>
<g>
</g>
<g>
</g>
<g>
</g>
<g>
</g>
<g>
</g>
</svg>
