<?xml version="1.0" encoding="iso-8859-1"?>
<!-- Generator: Adobe Illustrator 19.0.0, SVG Export Plug-In . SVG Version: 6.00 Build 0)  -->
<svg version="1.1" id="Capa_1" xmlns="http://www.w3.org/2000/svg" xmlns:xlink="http://www.w3.org/1999/xlink" x="0px" y="0px"
	 viewBox="0 0 512 512" style="enable-background:new 0 0 512 512;" xml:space="preserve">
<circle style="fill:#E64C3C;" cx="256" cy="256" r="256"/>
<path style="fill:#DB3A2E;" d="M512,256c0-18.857-2.058-37.231-5.927-54.927l-114.74-114.74l-80.989,111.299L199.046,86.333
	l13.222,64.878L147.39,86.333l-26.723,339.333l80.407,80.407C218.77,509.943,237.143,512,256,512C397.385,512,512,397.385,512,256z"
	/>
<polygon style="fill:#EDD9A6;" points="366,393.5 391.333,386.833 391.333,377.489 374.5,369.5 391.333,357.424 391.333,86.333 
	230.082,86.333 220,103 205.667,103 199.046,86.333 170.294,86.333 163,114.333 147.389,86.333 120.667,86.333 120.667,425.667 
	391.333,425.667 391.333,400.864 "/>
<polygon style="fill:#C3B48B;" points="391.333,86.333 254.976,86.333 254.976,425.667 391.333,425.667 391.333,400.864 366,393.5 
	391.333,386.833 391.333,377.489 374.5,369.5 391.333,357.424 "/>
<rect x="148.5" y="127.5" style="fill:#FFFFFF;" width="218" height="205.5"/>
<rect x="254.98" y="127.5" style="fill:#E6E6E6;" width="111.52" height="205.5"/>
<rect x="148.5" y="343" style="fill:#9B8572;" width="218" height="15.5"/>
<rect x="254.98" y="343" style="fill:#866857;" width="111.52" height="15.5"/>
<rect x="148.5" y="371" style="fill:#9B8572;" width="218" height="15.5"/>
<rect x="254.98" y="371" style="fill:#866857;" width="111.52" height="15.5"/>
<path style="fill:#AC6646;" d="M350.66,224.871c2.392,6.431-5.791,16.819-22.867,25.786c-16.912,8.931-42.717,16.441-71.793,16.272
	c-29.076,0.169-54.881-7.342-71.793-16.272c-17.076-8.967-25.259-19.354-22.867-25.786c5.494-13.199,47.018-8.566,94.66-9.017
	C303.642,216.305,345.166,211.672,350.66,224.871z"/>
<path style="fill:#874930;" d="M350.66,224.871c-5.494-13.199-47.018-8.566-94.66-9.017c-0.343,0.003-0.682,0.004-1.024,0.007
	v51.058c0.343,0,0.68,0.013,1.024,0.011c29.076,0.169,54.881-7.342,71.793-16.272C344.869,241.689,353.052,231.302,350.66,224.871z"
	/>
<path style="fill:#CB8252;" d="M199.619,229.144l18.511-58.128c3.066-9.627,12.007-16.163,22.11-16.163l0,0
	c6.057,0,11.607,2.332,15.76,6.176c4.153-3.844,9.703-6.176,15.76-6.176l0,0c10.103,0,19.045,6.537,22.11,16.163l18.511,58.128
	C312.381,229.144,262.854,266.953,199.619,229.144z"/>
<path style="fill:#AC6646;" d="M312.381,229.144l-18.511-58.128c-3.065-9.627-12.007-16.163-22.11-16.163l0,0
	c-6.057,0-11.607,2.332-15.76,6.176c-0.328-0.303-0.679-0.58-1.024-0.865v85.756C289.494,246.606,312.381,229.144,312.381,229.144z"
	/>
<path style="fill:#605246;" d="M204.986,212.29l-5.367,16.854c63.236,37.809,112.763,0,112.763,0l-5.255-16.503
	C293.303,220.708,253.613,238.459,204.986,212.29z"/>
<path style="fill:#473C33;" d="M312.381,229.144l-5.255-16.503c-8.646,5.045-27.41,13.878-52.15,13.385v19.895
	C289.494,246.606,312.381,229.144,312.381,229.144z"/>
<g>
</g>
<g>
</g>
<g>
</g>
<g>
</g>
<g>
</g>
<g>
</g>
<g>
</g>
<g>
</g>
<g>
</g>
<g>
</g>
<g>
</g>
<g>
</g>
<g>
</g>
<g>
</g>
<g>
</g>
</svg>
