<?xml version="1.0" encoding="iso-8859-1"?>
<!-- Generator: Adobe Illustrator 19.0.0, SVG Export Plug-In . SVG Version: 6.00 Build 0)  -->
<svg version="1.1" id="Capa_1" xmlns="http://www.w3.org/2000/svg" xmlns:xlink="http://www.w3.org/1999/xlink" x="0px" y="0px"
	 viewBox="0 0 512 512" style="enable-background:new 0 0 512 512;" xml:space="preserve">
<circle style="fill:#F9CF4D;" cx="256" cy="256" r="256"/>
<path style="fill:#F0C419;" d="M197.334,445.168l66.695,66.695C399.03,507.702,507.702,399.03,511.862,264.03L314.666,66.832
	L197.334,445.168z"/>
<polygon style="fill:#866857;" points="197.334,66.832 159,173.026 197.334,445.168 314.666,445.168 353,173.026 314.666,66.832 "/>
<polygon style="fill:#605246;" points="353,173.026 314.666,66.832 255.571,66.832 255.571,445.168 314.666,445.168 "/>
<polygon style="fill:#CBB292;" points="299,152.333 273,152.333 273,125.667 239,125.667 239,152.333 213,152.333 213,186.333 
	239,186.333 239,261 273,261 273,186.333 299,186.333 "/>
<polygon style="fill:#9B8572;" points="273,152.333 273,125.667 255.571,125.667 255.571,261 273,261 273,186.333 299,186.333 
	299,152.333 "/>
<g>
</g>
<g>
</g>
<g>
</g>
<g>
</g>
<g>
</g>
<g>
</g>
<g>
</g>
<g>
</g>
<g>
</g>
<g>
</g>
<g>
</g>
<g>
</g>
<g>
</g>
<g>
</g>
<g>
</g>
</svg>
