<?xml version="1.0" encoding="iso-8859-1"?>
<!-- Generator: Adobe Illustrator 19.0.0, SVG Export Plug-In . SVG Version: 6.00 Build 0)  -->
<svg version="1.1" id="Capa_1" xmlns="http://www.w3.org/2000/svg" xmlns:xlink="http://www.w3.org/1999/xlink" x="0px" y="0px"
	 viewBox="0 0 512 512" style="enable-background:new 0 0 512 512;" xml:space="preserve">
<circle style="fill:#866857;" cx="256" cy="256" r="256"/>
<path style="fill:#605246;" d="M303.215,507.638C422.042,485.48,512,381.253,512,256c0-3.788-0.099-7.552-0.262-11.3
	L380.622,113.584l-50.429,13.361l-61.508-61.508L91.5,163.476L266.494,338.47l-24.832,107.615L303.215,507.638z"/>
<path style="fill:#CBB292;" d="M256,453L256,453c-10.125,0-18.333-8.208-18.333-18.333v-356c0-10.125,8.208-18.333,18.333-18.333
	l0,0c10.125,0,18.333,8.208,18.333,18.333v356C274.333,444.792,266.125,453,256,453z"/>
<path style="fill:#9B8572;" d="M256,60.333c-0.145,0-0.285,0.018-0.429,0.022v392.623c0.144,0.003,0.284,0.022,0.429,0.022
	c10.125,0,18.333-8.208,18.333-18.333v-356C274.333,68.542,266.125,60.333,256,60.333z"/>
<path style="fill:#D1D4D1;" d="M420.5,163.476c-103.775-50.839-225.225-50.839-329,0l0,0
	c26.911-52.376,79.284-87.115,138.057-90.756c16.59-1.028,33.226-1.087,49.821-0.179c54.292,2.972,103.818,31.942,132.878,77.897
	L420.5,163.476z"/>
<path style="fill:#B4ABAC;" d="M420.5,163.476l-8.244-13.038c-29.06-45.956-78.587-74.925-132.878-77.897
	c-7.929-0.434-15.868-0.641-23.806-0.633v53.441C312.021,125.285,368.481,137.992,420.5,163.476z"/>
<g>
</g>
<g>
</g>
<g>
</g>
<g>
</g>
<g>
</g>
<g>
</g>
<g>
</g>
<g>
</g>
<g>
</g>
<g>
</g>
<g>
</g>
<g>
</g>
<g>
</g>
<g>
</g>
<g>
</g>
</svg>
