<?xml version="1.0" encoding="iso-8859-1"?>
<!-- Generator: Adobe Illustrator 19.0.0, SVG Export Plug-In . SVG Version: 6.00 Build 0)  -->
<svg version="1.1" id="Capa_1" xmlns="http://www.w3.org/2000/svg" xmlns:xlink="http://www.w3.org/1999/xlink" x="0px" y="0px"
	 viewBox="0 0 512 512" style="enable-background:new 0 0 512 512;" xml:space="preserve">
<circle style="fill:#E64C3C;" cx="256" cy="256" r="256"/>
<path style="fill:#DB3A2E;" d="M512,256c0-26.532-4.037-52.121-11.529-76.187l-83.92-83.92l-81.072,127.02l-127.02-127.02
	l-113.01,81l84.949,84.949l-25.664,152.227l97.888,97.888C253.748,511.972,254.87,512,256,512C397.385,512,512,397.385,512,256z"/>
<path style="fill:#F2F2F2;" d="M257.228,458.107c-39.148,0-75.548-15.64-102.494-44.038
	c-26.946-28.399-40.655-65.569-38.602-104.663l6.96-132.514H95.449v-81h113.01l-11.438,217.762
	c-0.876,16.682,4.974,32.543,16.472,44.661s27.03,18.792,43.735,18.792s32.237-6.674,43.736-18.792
	c11.498-12.118,17.348-27.979,16.471-44.661L305.997,95.893h110.554v81h-25.188l6.96,132.514
	c2.053,39.094-11.656,76.264-38.602,104.663C332.776,442.468,296.376,458.107,257.228,458.107z"/>
<path style="fill:#E6E6E6;" d="M416.551,95.893H305.997l11.438,217.762c0.876,16.682-4.974,32.543-16.471,44.661
	c-11.499,12.118-27.031,18.792-43.736,18.792c-0.555,0-1.104-0.027-1.656-0.041v81.021c0.552,0.006,1.103,0.021,1.657,0.021
	c39.148,0,75.548-15.64,102.494-44.038c26.946-28.398,40.655-65.569,38.602-104.663l-6.96-132.514h25.188V95.893H416.551z"/>
<g>
	<circle style="fill:#B3B3B3;" cx="163.33" cy="191.33" r="13"/>
	<circle style="fill:#B3B3B3;" cx="159.33" cy="265.33" r="13"/>
</g>
<g>
	<circle style="fill:#999999;" cx="348.67" cy="191.33" r="13"/>
	<circle style="fill:#999999;" cx="352.67" cy="265.33" r="13"/>
</g>
<g>
</g>
<g>
</g>
<g>
</g>
<g>
</g>
<g>
</g>
<g>
</g>
<g>
</g>
<g>
</g>
<g>
</g>
<g>
</g>
<g>
</g>
<g>
</g>
<g>
</g>
<g>
</g>
<g>
</g>
</svg>
