<svg height="512pt" viewBox="0 0 512 512" width="512pt" xmlns="http://www.w3.org/2000/svg"><path d="m512 256c0 141.386719-114.613281 256-256 256s-256-114.613281-256-256 114.613281-256 256-256 256 114.613281 256 256zm0 0" fill="#fd413c"/><path d="m510.316406 285.324219-153.640625-153.644531s-250.046875 169.953124-243.335937 176.402343c.324218.339844 27.175781 27.1875 27.265625 27.277344 4.96875 22.820313 32.597656 58.96875 32.597656 58.96875l115.589844 115.589844c116.3125-14.871094 208.203125-107.804688 221.523437-224.59375zm0 0" fill="#b40f0c"/><path d="m397.742188 231.351562v39.375h-165.367188l23.625-181.117187c78.15625 0 141.742188 63.585937 141.742188 141.742187zm0 0"/><path d="m114.257812 231.351562v39.375h141.742188v-181.117187c-78.15625 0-141.742188 63.585937-141.742188 141.742187zm0 0" fill="#5b3227"/><path d="m137.882812 247.101562c-19.570312 0-35.4375 15.867188-35.4375 35.433594 0 19.570313 15.867188 35.4375 35.4375 35.4375 1.414063 0 27.808594-.246094 27.808594-.246094v-70.625zm0 0" fill="#c48776"/><path d="m374.117188 247.101562h-27.808594v70.625s26.394531.246094 27.808594.246094c19.570312 0 35.4375-15.867187 35.4375-35.4375 0-19.566406-15.867188-35.433594-35.4375-35.433594zm0 0" fill="#b27361"/><path d="m258.238281 408.53125 13.511719-118.796875-15.75-138.480469-55.769531-24.042968c-37.109375 19.914062-62.347657 59.078124-62.347657 104.140624v78.746094c0 61.25 46.617188 111.605469 106.304688 117.53125zm0 0" fill="#d59c8b"/><path d="m370.011719 200.40625-114.011719-49.152344v257.277344l11.8125 19.097656c59.6875-5.925781 106.304688-56.28125 106.304688-117.53125v-78.746094c0-10.707031-1.433594-21.082031-4.105469-30.945312zm0 0" fill="#c48776"/><path d="m370.011719 200.40625c-13.597657-50.222656-59.488281-87.171875-114.011719-87.171875v61.402344c28.726562 16.390625 61.96875 25.765625 97.40625 25.765625h16.605469zm0 0"/><path d="m200.230469 127.210938c15.417969 19.074218 34.339843 35.199218 55.769531 47.425781v-61.402344c-20.171875 0-39.160156 5.0625-55.769531 13.976563zm0 0" fill="#5b3227"/><path d="m228.4375 271.277344h-23.621094v-11.8125h-27.5625v-23.625h51.183594zm0 0" fill="#331d17"/><path d="m307.183594 271.277344h-23.621094v-35.4375h51.183594v23.625h-27.5625zm0 0"/><path d="m244.1875 310.097656h-23.625c0 19.539063 15.898438 35.433594 35.4375 35.433594l7.875-11.808594-7.875-11.8125c-6.511719 0-11.8125-5.300781-11.8125-11.8125zm0 0" fill="#b27361"/><path d="m267.8125 310.097656c0 6.511719-5.300781 11.8125-11.8125 11.8125v23.625c19.539062 0 35.433594-15.898437 35.433594-35.4375zm0 0" fill="#a15f4c"/><path d="m244.1875 427.628906c3.886719.386719 7.824219.585938 11.8125.585938s7.925781-.199219 11.8125-.585938v-34.847656h-23.625zm0 0" fill="#5b3227"/></svg>