<svg height="512pt" viewBox="0 0 512 512" width="512pt" xmlns="http://www.w3.org/2000/svg"><path d="m512 256c0 141.386719-114.613281 256-256 256s-256-114.613281-256-256 114.613281-256 256-256 256 114.613281 256 256zm0 0" fill="#8f5240"/><path d="m509.882812 289.050781-160.433593-160.429687-224.90625 92.449218 11.949219 11 20.257812 36.800782-45.097656 61.695312 58.394531 58.390625 2.464844 5.242188 115.78125 115.78125c115.308593-14.515625 206.738281-105.722657 221.589843-220.929688zm0 0" fill="#5c3419"/><path d="m136.492188 268.871094c-19.800782 0-35.851563 16.054687-35.851563 35.855468 0 19.800782 16.050781 35.851563 35.851563 35.851563 1.433593 0 28.136718-.25 28.136718-.25v-71.457031zm0 0" fill="#fdcdbf"/><path d="m375.507812 268.871094h-28.136718v71.457031s26.703125.25 28.136718.25c19.800782 0 35.851563-16.054687 35.851563-35.851563 0-19.800781-16.050781-35.855468-35.851563-35.855468zm0 0" fill="#ffbeab"/><path d="m136.492188 205.136719v103.570312c0 66.003907 53.503906 119.507813 119.507812 119.507813l15.933594-239.015625zm0 0" fill="#ffe0d6"/><path d="m256 205.136719v223.078125c66.003906 0 119.507812-53.503906 119.507812-119.507813v-103.570312zm0 0" fill="#fdcdbf"/><path d="m228.113281 292.773438h-23.898437v-11.949219h-27.886719v-23.902344h51.785156zm0 0" fill="#a26745"/><path d="m307.785156 292.773438h-23.898437v-35.851563h51.785156v23.902344h-27.886719zm0 0" fill="#854820"/><path d="m244.050781 316.675781h-23.902343c0 19.769531 16.082031 35.851563 35.851562 35.851563l7.964844-11.949219-7.964844-11.953125c-6.589844 0-11.949219-5.359375-11.949219-11.949219zm0 0" fill="#f7af99"/><path d="m267.949219 316.675781c0 6.589844-5.359375 11.953125-11.949219 11.953125v23.898438c19.769531 0 35.851562-16.082032 35.851562-35.851563zm0 0" fill="#f88a6b"/><path d="m124.542969 221.070312h65.726562l65.730469-131.460937c-72.601562 0-131.457031 58.859375-131.457031 131.460937zm0 0" fill="#fcc286"/><path d="m190.269531 221.070312h65.730469l15.933594-65.730468-15.933594-65.730469c-36.300781 0-65.730469 58.859375-65.730469 131.460937zm0 0" fill="#fcaf60"/><path d="m256 89.609375 65.730469 131.460937h65.726562c0-72.601562-58.855469-131.460937-131.457031-131.460937zm0 0" fill="#fc8914"/><path d="m256 89.609375v131.460937h65.730469c0-72.601562-29.429688-131.460937-65.730469-131.460937zm0 0" fill="#fc9c3a"/></svg>