<svg height="512pt" viewBox="0 0 512 512" width="512pt" xmlns="http://www.w3.org/2000/svg"><path d="m512 256c0 141.386719-114.613281 256-256 256s-256-114.613281-256-256 114.613281-256 256-256 256 114.613281 256 256zm0 0" fill="#fc9c3a"/><path d="m288.03125 90.578125-166.699219 226.175781 30.449219 30.46875 25.644531 39.378906 121.753907 121.753907c103.476562-17.578125 185.800781-97.238281 207.304687-199.324219zm0 0" fill="#c67934"/><path d="m211.390625 121.609375c0 24.636719 19.972656 44.609375 44.609375 44.609375l14.871094-44.609375-14.871094-44.609375c-24.636719 0-44.609375 19.972656-44.609375 44.609375zm0 0" fill="#4c4645"/><path d="m256 77v89.21875c24.636719 0 44.609375-19.972656 44.609375-44.609375s-19.972656-44.609375-44.609375-44.609375zm0 0" fill="#331d17"/><path d="m389.824219 255.433594v29.742187h-156.128907l22.304688-163.566406c73.792969 0 133.824219 60.035156 133.824219 133.824219zm0 0" fill="#331d17"/><path d="m122.175781 255.433594v29.742187h133.824219v-163.566406c-73.792969 0-133.824219 60.035156-133.824219 133.824219zm0 0" fill="#4c4645"/><path d="m144.476562 259.152344c-18.476562 0-33.457031 14.980468-33.457031 33.457031s14.980469 33.457031 33.457031 33.457031h26.257813v-66.914062zm0 0" fill="#ffbeab"/><path d="m256 212.703125-67.023438-46.402344c-27.023437 20.347657-44.496093 52.699219-44.496093 89.132813v52.042968c-.003907 61.59375 49.925781 111.523438 111.519531 111.523438l7.433594-103.148438zm0 0" fill="#fdcdbf"/><path d="m367.523438 259.152344h-26.257813v66.683594s24.917969.230468 26.257813.230468c18.476562 0 33.457031-14.980468 33.457031-33.457031-.003907-18.476563-14.980469-33.457031-33.457031-33.457031zm0 0" fill="#f7af99"/><path d="m363.644531 226.214844-107.644531-13.511719v206.296875c61.59375 0 111.523438-49.929688 111.523438-111.523438v-52.042968c0-10.109375-1.355469-19.90625-3.878907-29.21875zm0 0" fill="#ffbeab"/><path d="m256 212.703125 14.871094-34.394531-14.871094-34.394532c-25.15625 0-48.367188 8.332032-67.023438 22.382813 18.484376 20.050781 41.328126 36.011719 67.023438 46.40625zm0 0" fill="#4c4645"/><path d="m256 143.914062v68.789063c21.515625 8.707031 45.027344 13.511719 69.664062 13.511719h37.980469c-12.839843-47.417969-56.164062-82.300782-107.644531-82.300782zm0 0" fill="#331d17"/><path d="m229.976562 292.609375h-22.300781v-11.152344h-26.023437v-22.304687h48.324218zm0 0" fill="#4c4645"/><path d="m304.324219 292.609375h-22.300781v-33.457031h48.324218v22.304687h-26.023437zm0 0" fill="#331d17"/><path d="m244.847656 329.78125h-22.304687c0 18.449219 15.011719 33.457031 33.457031 33.457031l7.4375-11.148437-7.4375-11.15625c-6.148438 0-11.152344-5-11.152344-11.152344zm0 0" fill="#f88a6b"/><path d="m267.152344 329.78125c0 6.152344-5.003906 11.152344-11.152344 11.152344v22.304687c18.449219 0 33.457031-15.007812 33.457031-33.457031zm0 0" fill="#fd413c"/></svg>