<svg height="512pt" viewBox="0 0 512 512" width="512pt" xmlns="http://www.w3.org/2000/svg"><path d="m512 256c0 141.386719-114.613281 256-256 256s-256-114.613281-256-256 114.613281-256 256-256 256 114.613281 256 256zm0 0" fill="#e7b0a0"/><path d="m510.703125 281.890625-160.9375-160.9375-250.070313 286.726563 97.535157 97.53125c18.871093 4.433593 38.542969 6.789062 58.769531 6.789062 132.644531 0 241.722656-100.882812 254.703125-230.109375zm0 0" fill="#c48776"/><path d="m387.96875 213.71875v29.324219h-153.960938l21.992188-161.292969c72.765625 0 131.96875 59.199219 131.96875 131.96875zm0 0" fill="#331d17"/><path d="m124.03125 213.71875v29.324219h131.96875v-161.292969c-72.765625 0-131.96875 59.199219-131.96875 131.96875zm0 0" fill="#44261d"/><path d="m406.039062 344.726562c11.171876 7.160157 18.585938 19.691407 18.585938 33.949219 0 22.273438-18.050781 40.324219-40.324219 40.324219h-128.300781l-21.992188-171.738281 156.8125.261719c7.292969 7.296874 11.808594 17.375 11.808594 28.511718 0 7.824219-2.234375 15.109375-6.082031 21.300782 8.230469 7.375 13.414063 18.09375 13.414063 30.019531 0 6.21875-1.40625 12.105469-3.921876 17.371093zm0 0" fill="#331d17"/><path d="m256 247.261719v171.738281h-128.300781c-22.273438 0-40.324219-18.050781-40.324219-40.324219 0-14.257812 7.414062-26.789062 18.585938-33.949219-2.515626-5.265624-3.921876-11.152343-3.921876-17.371093 0-11.925781 5.183594-22.644531 13.417969-30.019531-3.851562-6.1875-6.085937-13.476563-6.085937-21.300782 0-11.398437 4.730468-21.691406 12.339844-29.03125zm0 0" fill="#44261d"/><path d="m146.027344 221.050781c-18.21875 0-32.992188 14.769531-32.992188 32.992188 0 18.21875 14.773438 32.992187 32.992188 32.992187 1.320312 0 25.890625-.230468 25.890625-.230468v-65.753907zm0 0" fill="#8f5240"/><path d="m365.972656 221.050781h-25.890625v65.753907s24.570313.230468 25.890625.230468c18.21875 0 32.992188-14.773437 32.992188-32.992187 0-18.222657-14.773438-32.992188-32.992188-32.992188zm0 0" fill="#794334"/><path d="m292.65625 184.390625-36.65625 205.285156c-60.734375 0-109.972656-49.238281-109.972656-109.972656v-65.984375c0-4.972656.332031-9.867188.976562-14.664062zm0 0" fill="#a15f4c"/><path d="m365.972656 213.71875v65.980469c0 60.734375-49.238281 109.972656-109.972656 109.972656v-205.28125l108.996094 14.664063c.644531 4.796874.976562 9.691406.976562 14.664062zm0 0" fill="#8f5240"/><path d="m230.339844 276.035156h-21.996094v-10.996094h-25.660156v-21.996093h47.65625zm0 0" fill="#331d17"/><path d="m303.65625 276.035156h-21.996094v-32.992187h47.65625v21.996093h-25.660156zm0 0"/><path d="m245.003906 301.695312h-21.996094c0 18.191407 14.800782 32.992188 32.992188 32.992188l7.332031-10.996094-7.332031-11c-6.0625 0-10.996094-4.929687-10.996094-10.996094zm0 0" fill="#5b3227"/><path d="m266.996094 301.695312c0 6.066407-4.933594 10.996094-10.996094 10.996094v21.996094c18.191406 0 32.992188-14.800781 32.992188-32.992188zm0 0" fill="#331d17"/><path d="m364.996094 199.054688h-108.996094l-14.664062-43.839844 14.664062-51.46875c55.761719 0 101.835938 41.503906 108.996094 95.308594zm0 0" fill="#331d17"/><path d="m256 103.746094v95.308594h-108.996094c7.160156-53.804688 53.234375-95.308594 108.996094-95.308594zm0 0" fill="#44261d"/></svg>