<svg height="512pt" viewBox="0 0 512 512" width="512pt" xmlns="http://www.w3.org/2000/svg"><path d="m512 256c0 141.386719-114.613281 256-256 256s-256-114.613281-256-256 114.613281-256 256-256 256 114.613281 256 256zm0 0" fill="#8f5240"/><path d="m510.464844 284.035156-161.027344-161.03125-224.941406 296.996094 88.363281 88.363281c14.027344 2.378907 28.4375 3.636719 43.140625 3.636719 131.910156 0 240.5-99.773438 254.464844-227.964844zm0 0" fill="#5c3419"/><path d="m387.503906 215.441406v29.222656h-153.421875l21.917969-160.726562c72.511719 0 131.503906 58.992188 131.503906 131.503906zm0 0" fill="#fc8914"/><path d="m124.496094 215.441406v29.222656h131.503906v-160.726562c-72.511719 0-131.503906 58.992188-131.503906 131.503906zm0 0" fill="#fcaf60"/><path d="m124.496094 266.582031v153.417969h131.503906l14.609375-153.417969zm0 0" fill="#fcaf60"/><path d="m256 266.582031h131.503906v153.417969h-131.503906zm0 0" fill="#fc8914"/><path d="m365.585938 230.054688h-25.800782v65.523437s24.488282.226563 25.800782.226563c18.15625 0 32.875-14.71875 32.875-32.875 0-18.160157-14.71875-32.875-32.875-32.875zm0 0" fill="#ffbeab"/><path d="m146.414062 230.054688c-18.15625 0-32.875 14.71875-32.875 32.875s14.71875 32.875 32.875 32.875c1.3125 0 25.800782-.226563 25.800782-.226563v-65.523437zm0 0" fill="#fdcdbf"/><path d="m150.296875 343.0625c-18.125 0-32.875-14.746094-32.875-32.875s14.75-32.875 32.875-32.875c18.128906 0 32.878906 14.746094 32.878906 32.875-.003906 18.128906-14.75 32.875-32.878906 32.875zm0-43.832031c-6.042969 0-10.957031 4.914062-10.957031 10.957031s4.914062 10.957031 10.957031 10.957031 10.960937-4.914062 10.960937-10.957031-4.917968-10.957031-10.960937-10.957031zm0 0" fill="#5b3227"/><path d="m361.703125 343.0625c-18.128906 0-32.875-14.746094-32.875-32.875s14.746094-32.875 32.875-32.875c18.125 0 32.875 14.746094 32.875 32.875s-14.75 32.875-32.875 32.875zm0-43.832031c-6.042969 0-10.960937 4.914062-10.960937 10.957031s4.917968 10.957031 10.960937 10.957031c6.039063 0 10.957031-4.914062 10.957031-10.957031s-4.914062-10.957031-10.957031-10.957031zm0 0" fill="#331d17"/><path d="m150.589844 185.382812c-2.71875 9.550782-4.175782 19.636719-4.175782 30.058594v51.140625c0 60.523438 49.0625 109.585938 109.585938 109.585938l14.609375-127.851563-14.609375-127.847656zm0 0" fill="#ffe0d6"/><path d="m361.410156 185.382812-105.410156-64.914062v255.695312c60.523438 0 109.585938-49.0625 109.585938-109.585937v-51.136719c0-10.421875-1.457032-20.507812-4.175782-30.058594zm0 0" fill="#fdcdbf"/><path d="m298.984375 172.898438 62.425781 12.484374c-13.066406-45.90625-55.3125-79.527343-105.410156-79.527343v14.613281c0 24.105469 19.34375 47.703125 42.984375 52.429688zm0 0" fill="#fc8914"/><path d="m256 120.46875v-14.613281c-50.097656 0-92.34375 33.621093-105.410156 79.527343l62.425781-12.484374c23.640625-4.726563 42.984375-28.324219 42.984375-52.429688zm0 0" fill="#fcaf60"/><path d="m230.429688 259.273438h-21.917969v-10.957032h-25.570313v-21.917968h47.488282zm0 0" fill="#5b3227"/><path d="m303.488281 259.273438h-21.917969v-32.875h47.488282v21.917968h-25.570313zm0 0" fill="#331d17"/><path d="m245.042969 288.496094h-21.917969c0 18.128906 14.746094 32.875 32.875 32.875l7.308594-10.957032-7.308594-10.957031c-6.042969 0-10.957031-4.917969-10.957031-10.960937zm0 0" fill="#f88a6b"/><path d="m266.957031 288.496094c0 6.042968-4.914062 10.960937-10.957031 10.960937v21.914063c18.128906 0 32.875-14.746094 32.875-32.875zm0 0" fill="#fd413c"/></svg>