<?xml version="1.0" encoding="iso-8859-1"?>
<!-- Generator: Adobe Illustrator 19.0.0, SVG Export Plug-In . SVG Version: 6.00 Build 0)  -->
<svg version="1.1" id="Layer_1" xmlns="http://www.w3.org/2000/svg" xmlns:xlink="http://www.w3.org/1999/xlink" x="0px" y="0px"
	 viewBox="0 0 512 512" style="enable-background:new 0 0 512 512;" xml:space="preserve">
<g>
	<g>
		<polygon style="fill:#EFEDEE;" points="312.448,405.998 312.448,383.038 199.558,383.038 199.558,405.996 199.554,405.996 
			188.447,449.416 199.558,504.498 312.448,504.498 325.42,449.892 		"/>
		<path style="fill:#008FC7;" d="M395.28,498.156l7.498,6.342h40.599c0-113.23-74.98-121.46-74.98-121.46h-55.95v121.46h75.334
			L395.28,498.156z"/>
		<path style="fill:#008FC7;" d="M143.598,383.038c0,0-74.97,8.23-74.97,121.46h40.595l7.497-4.56l7.498,4.56h75.34v-121.46H143.598
			z"/>
		<polygon style="fill:#00A1E0;" points="368.403,383.035 395.281,417.325 343.844,443.767 365.888,463.083 312.447,504.5 
			312.447,405.996 334.492,371.9 		"/>
		<polygon style="fill:#00A1E0;" points="143.598,383.035 116.72,417.325 168.157,443.767 146.113,463.083 199.554,504.5 
			199.554,405.996 177.509,371.9 		"/>
		<path style="fill:#7A4C37;" d="M312.447,405.996c0,0-17.869,35.878-56.447,47.902c-38.578-12.024-56.447-47.902-56.447-47.902
			H312.447z"/>
		<circle style="fill:#7A4C37;" cx="426.513" cy="87.334" r="58.11"/>
		<circle style="fill:#FF99B1;" cx="426.513" cy="87.334" r="26.992"/>
		<circle style="fill:#7A4C37;" cx="85.488" cy="87.334" r="58.11"/>
		<circle style="fill:#FF99B1;" cx="85.488" cy="87.334" r="26.992"/>
		<ellipse style="fill:#A36549;" cx="256" cy="210.299" rx="214.431" ry="202.799"/>
		<path style="fill:#87543D;" d="M71.569,210.299C71.569,103.066,159.573,15.286,271,8.002c-4.957-0.324-9.956-0.502-15-0.502
			C137.573,7.5,41.569,98.296,41.569,210.299c0,112.002,96.004,202.799,214.431,202.799c5.044,0,10.043-0.178,15-0.501
			C159.573,405.313,71.569,317.532,71.569,210.299z"/>
		<g id="XMLID_972_">
			<path style="fill:#FF99B1;" d="M171.811,257.886h-25.699c-4.142,0-7.5-3.358-7.5-7.5s3.358-7.5,7.5-7.5h25.699
				c4.142,0,7.5,3.358,7.5,7.5S175.953,257.886,171.811,257.886z"/>
		</g>
		<g id="XMLID_970_">
			<path style="fill:#FF99B1;" d="M365.888,257.886H340.19c-4.142,0-7.5-3.358-7.5-7.5s3.358-7.5,7.5-7.5h25.699
				c4.142,0,7.5,3.358,7.5,7.5S370.03,257.886,365.888,257.886z"/>
		</g>
	</g>
	<g>
		<path d="M166.461,222.653v-18.868c0-4.142-3.358-7.5-7.5-7.5s-7.5,3.358-7.5,7.5v18.868c0,4.142,3.358,7.5,7.5,7.5
			S166.461,226.795,166.461,222.653z"/>
		<path d="M360.539,222.653v-18.868c0-4.142-3.358-7.5-7.5-7.5s-7.5,3.358-7.5,7.5v18.868c0,4.142,3.358,7.5,7.5,7.5
			S360.539,226.795,360.539,222.653z"/>
		<path d="M233.708,247.016c-3.119,2.726-3.437,7.464-0.711,10.583c5.69,6.509,14.075,10.243,23.003,10.243
			s17.313-3.733,23.003-10.243c2.726-3.119,2.408-7.856-0.71-10.583c-3.119-2.726-7.856-2.408-10.583,0.71
			c-2.841,3.251-7.109,5.115-11.709,5.115s-8.868-1.864-11.709-5.115C241.564,244.608,236.827,244.29,233.708,247.016z"/>
		<path d="M273.356,226.332c0-6.087-34.712-6.087-34.712,0s7.771,11.022,17.356,11.022S273.356,232.419,273.356,226.332z"/>
		<path d="M46.706,140.241c-8.327,22.353-12.637,46.011-12.637,70.058c0,56.252,23.138,109.114,65.152,148.85
			c8.276,7.827,17.097,14.947,26.369,21.354c-7.154,2.976-15.782,7.689-24.386,15.132C68.077,424.289,61.123,470.652,61.123,504.5
			c0,4.142,3.358,7.5,7.5,7.5h374.755c4.142,0,7.5-3.358,7.5-7.5c0-33.848-6.954-80.211-40.081-108.865
			c-8.604-7.443-17.232-12.156-24.386-15.132c9.272-6.407,18.093-13.527,26.369-21.354c42.014-39.735,65.151-92.598,65.151-148.85
			c0-24.259-4.313-47.884-12.578-70.102c16.654-12.282,26.769-31.994,26.769-52.864c0-36.177-29.433-65.61-65.61-65.61
			c-15.888,0-31.298,5.862-43.195,16.256C346.276,13.298,302.212,0,256,0c-23.07,0-45.837,3.354-67.667,9.97
			c-3.964,1.201-6.204,5.389-5.003,9.353c1.201,3.964,5.389,6.204,9.354,5.002C213.103,18.138,234.405,15,256,15
			c114.102,0,206.931,87.611,206.931,195.299c0,90.496-65.559,166.804-154.204,188.865c-34.464,8.577-70.997,8.595-105.451,0
			c-88.646-22.06-154.207-98.369-154.207-188.866c0-25.328,5.164-50.2,15.107-73.357c13.385-31.16,35.333-58.521,62.331-78.973
			c11.405-8.64,23.699-16.074,36.615-22.224c3.742-1.777,5.334-6.251,3.557-9.993c-1.777-3.742-6.251-5.334-9.992-3.557
			c-9.752,4.632-19.08,9.942-27.951,15.833c-11.905-10.423-27.337-16.304-43.248-16.304c-36.178,0-65.61,29.433-65.61,65.61
			C19.877,108.229,30.016,127.962,46.706,140.241z M426.512,36.724c27.907,0,50.61,22.704,50.61,50.61
			c0,14.852-6.644,28.943-17.764,38.478c-2.347-5.068-4.903-10.05-7.674-14.933c5.917-6.333,9.32-14.732,9.32-23.545
			c0-19.019-15.473-34.491-34.492-34.491c-6.311,0-12.415,1.72-17.733,4.916c-0.551-0.497-9.038-7.771-12.876-10.735
			C404.646,40.333,415.255,36.724,426.512,36.724z M443.255,97.293c-4.397-6.513-9.197-12.815-14.377-18.888
			c-2.762-3.238-5.608-6.4-8.556-9.47c-0.021-0.021-0.041-0.043-0.061-0.065c1.994-0.675,4.103-1.027,6.252-1.027
			c10.748,0,19.492,8.744,19.492,19.491C446.004,90.883,445.027,94.317,443.255,97.293z M338.901,449.409l15.202,13.32
			l-34.156,26.47v-77.423c16.242-4.606,31.845-10.98,46.555-19.008l17.274,22.039l-43.361,22.292
			c-2.209,1.136-3.712,3.291-4.015,5.755C336.096,445.317,337.033,447.772,338.901,449.409z M175.6,442.853
			c-0.303-2.465-1.806-4.62-4.015-5.755l-43.361-22.292l17.275-22.039c14.709,8.028,30.312,14.402,46.554,19.008v77.423
			l-34.156-26.47l15.202-13.32C174.967,447.772,175.904,445.317,175.6,442.853z M256,420.598c13.34,0,26.687-1.125,39.837-3.372
			c-8.111,9.921-21.289,22.372-39.837,28.778c-18.444-6.378-31.635-18.836-39.778-28.768c6.773,1.155,13.628,2.013,20.549,2.572
			C237.049,419.831,249.844,420.598,256,420.598z M207.053,429.714c9.971,11.431,25.347,24.684,46.715,31.344
			c1.448,0.451,3.016,0.451,4.463,0c21.368-6.66,36.745-19.913,46.715-31.344V497h-97.894V429.714z M110.359,407.555
			c3.604-3.188,7.218-5.775,10.682-7.901l-10.225,13.044c-1.38,1.761-1.902,4.046-1.423,6.231c0.479,2.185,1.908,4.043,3.897,5.065
			l41.627,21.4l-13.749,12.048c-1.685,1.476-2.621,3.627-2.554,5.866c0.067,2.239,1.132,4.331,2.902,5.703L177.632,497H124.22
			v-33.917c0-4.142-3.358-7.5-7.5-7.5s-7.5,3.358-7.5,7.5V497H76.243C77.534,457.04,89.263,426.216,110.359,407.555z M435.757,497
			H402.78v-33.917c0-4.142-3.358-7.5-7.5-7.5s-7.5,3.358-7.5,7.5V497h-53.412l36.114-27.988c1.771-1.372,2.835-3.463,2.902-5.703
			c0.067-2.239-0.869-4.391-2.554-5.866l-13.749-12.048l41.627-21.4c1.99-1.022,3.419-2.88,3.897-5.065
			c0.479-2.186-0.043-4.471-1.423-6.231l-10.225-13.043c3.465,2.125,7.079,4.713,10.682,7.9
			C422.737,426.216,434.466,457.04,435.757,497z M91.131,69.521C82.96,78.099,75.413,87.469,68.77,97.338
			c-1.789-2.987-2.774-6.438-2.774-10.004c0-10.748,8.744-19.491,19.492-19.491c2.15,0,4.258,0.352,6.252,1.027
			C91.534,69.084,91.336,69.305,91.131,69.521z M85.488,36.724c11.261,0,21.873,3.611,30.62,10.307
			c-0.737,0.567-1.454,1.155-2.182,1.731c-1.976,1.559-9.112,7.59-10.687,9.006c-5.322-3.202-11.433-4.925-17.75-4.925
			c-19.019,0-34.492,15.473-34.492,34.491c0,8.837,3.422,17.26,9.369,23.598c-2.685,4.74-5.173,9.592-7.476,14.529
			c-0.063,0.134-0.13,0.265-0.192,0.399c-11.153-9.536-17.818-23.651-17.818-38.527C34.877,59.428,57.581,36.724,85.488,36.724z"/>
	</g>
</g>
<g>
</g>
<g>
</g>
<g>
</g>
<g>
</g>
<g>
</g>
<g>
</g>
<g>
</g>
<g>
</g>
<g>
</g>
<g>
</g>
<g>
</g>
<g>
</g>
<g>
</g>
<g>
</g>
<g>
</g>
</svg>
