<svg height="512pt" viewBox="0 0 512 512" width="512pt" xmlns="http://www.w3.org/2000/svg"><path d="m512 256c0 141.386719-114.613281 256-256 256s-256-114.613281-256-256 114.613281-256 256-256 256 114.613281 256 256zm0 0" fill="#fd413c"/><path d="m125.296875 375.992188 135.941406 135.941406c138.964844-2.792969 250.761719-116.300782 250.761719-255.933594 0-21.136719-2.578125-41.671875-7.410156-61.316406l-97.136719-97.136719-117.132813 51.765625-41.433593-5.152344-46.632813-46.613281-96.871094 96.53125 40.96875 40.972656-1.871093 35.253907zm0 0" fill="#b40f0c"/><path d="m221.800781 145.398438c0 37.777343-30.625 68.398437-68.398437 68.398437-37.777344 0-68.398438-30.621094-68.398438-68.398437 0-37.773438 30.621094-68.398438 68.398438-68.398438 37.773437 0 68.398437 30.625 68.398437 68.398438zm0 0" fill="#c67934"/><path d="m426.996094 145.398438c0 37.777343-30.621094 68.398437-68.398438 68.398437-37.773437 0-68.398437-30.621094-68.398437-68.398437 0-37.773438 30.625-68.398438 68.398437-68.398438 37.777344 0 68.398438 30.625 68.398438 68.398438zm0 0" fill="#91552d"/><path d="m144.480469 270.304688c-18.476563 0-33.457031 14.980468-33.457031 33.457031 0 18.476562 14.980468 33.457031 33.457031 33.457031 1.335937 0 26.253906-.230469 26.253906-.230469v-66.683593zm0 0" fill="#f7af99"/><path d="m148.429688 385.3125c-18.449219 0-33.457032-15.007812-33.457032-33.457031 0-18.445313 15.007813-33.453125 33.457032-33.453125 18.449218 0 33.457031 15.007812 33.457031 33.453125 0 18.449219-15.007813 33.457031-33.457031 33.457031zm0-44.609375c-6.148438 0-11.152344 5.003906-11.152344 11.152344 0 6.152343 5.003906 11.152343 11.152344 11.152343 6.148437 0 11.152343-5 11.152343-11.152343 0-6.148438-5.003906-11.152344-11.152343-11.152344zm0 0" fill="#fee0c1"/><path d="m185.355469 169.191406-.015625-.035156c-24.945313 20.453125-40.859375 51.507812-40.859375 86.28125v52.042969c0 61.589843 49.929687 111.519531 111.519531 111.519531l14.867188-124.902344-14.867188-124.90625zm0 0" fill="#ffbeab"/><path d="m367.519531 270.304688h-26.253906v66.683593s24.917969.230469 26.253906.230469c18.476563 0 33.457031-14.980469 33.457031-33.457031 0-18.476563-14.980468-33.457031-33.457031-33.457031zm0 0" fill="#ed9980"/><path d="m363.570312 385.3125c-18.449218 0-33.457031-15.007812-33.457031-33.457031 0-18.445313 15.007813-33.453125 33.457031-33.453125 18.449219 0 33.457032 15.007812 33.457032 33.453125 0 18.449219-15.007813 33.457031-33.457032 33.457031zm0-44.609375c-6.148437 0-11.152343 5.003906-11.152343 11.152344 0 6.152343 5.003906 11.152343 11.152343 11.152343 6.148438 0 11.152344-5 11.152344-11.152343 0-6.148438-5.003906-11.152344-11.152344-11.152344zm0 0" fill="#fcc286"/><path d="m326.65625 169.152344c-.007812.023437-70.65625.039062-70.65625.039062v249.808594c61.589844 0 111.519531-49.929688 111.519531-111.519531v-52.042969c0-34.777344-15.917969-65.832031-40.863281-86.285156zm0 0" fill="#f7af99"/><path d="m229.976562 300.042969h-22.300781v-11.152344h-26.023437v-22.300781h48.324218zm0 0" fill="#91552d"/><path d="m304.324219 300.042969h-22.300781v-33.453125h48.324218v22.300781h-26.023437zm0 0" fill="#5b3227"/><path d="m244.847656 329.78125h-22.304687c0 18.449219 15.007812 33.457031 33.457031 33.457031l7.433594-11.152343-7.433594-11.152344c-6.148438 0-11.152344-5-11.152344-11.152344zm0 0" fill="#da0806"/><path d="m267.152344 329.78125c0 6.152344-5.003906 11.152344-11.152344 11.152344v22.304687c18.449219 0 33.457031-15.007812 33.457031-33.457031zm0 0" fill="#b40f0c"/><path d="m185.339844 169.160156.015625.035156c0 18.476563 14.992187 33.453126 33.46875 33.453126 2.988281 0 5.878906-.394532 8.632812-1.128907 5.882813 9.597657 16.464844 16 28.542969 16l14.867188-36.800781-14.867188-36.804688c-26.820312 0-51.425781 9.472657-70.660156 25.246094zm0 0" fill="#91552d"/><path d="m256 143.914062v73.605469c12.078125 0 22.660156-6.402343 28.542969-16 2.753906.734375 5.644531 1.128907 8.632812 1.128907 18.476563 0 33.472657-14.996094 33.472657-33.472657-19.230469-15.792969-43.832032-25.261719-70.648438-25.261719zm0 0" fill="#5b3227"/></svg>