<svg height="512pt" viewBox="0 0 512 512" width="512pt" xmlns="http://www.w3.org/2000/svg"><path d="m512 256c0 141.386719-114.613281 256-256 256s-256-114.613281-256-256 114.613281-256 256-256 256 114.613281 256 256zm0 0" fill="#fd413c"/><path d="m508.050781 301.027344-172.972656-172.96875-213.277344 149.78125 23.0625 23.066406 33.058594 88.035156 119.675781 119.675782c106.914063-17.472657 191.566406-101.15625 210.453125-207.589844zm0 0" fill="#b40f0c"/><path d="m144.863281 220.4375c-18.414062 0-33.339843 14.925781-33.339843 33.339844 0 18.414062 14.925781 33.339844 33.339843 33.339844 1.332031 0 26.164063-.230469 26.164063-.230469v-66.449219zm0 0" fill="#ffbeab"/><path d="m367.136719 220.4375h-26.164063v66.449219s24.832032.230469 26.164063.230469c18.414062 0 33.339843-14.925782 33.339843-33.339844 0-18.414063-14.925781-33.339844-33.339843-33.339844zm0 0" fill="#f7af99"/><path d="m367.136719 206.136719v69.867187l-133.363281 22.226563 22.226562-203.230469c61.378906 0 111.136719 49.757812 111.136719 111.136719zm0 0" fill="#ffbeab"/><path d="m256 95v181.003906h-111.136719v-69.867187c0-61.378907 49.757813-111.136719 111.136719-111.136719zm0 0" fill="#fdcdbf"/><path d="m367.136719 276.003906v33.859375c0 61.378907-49.757813 111.136719-111.136719 111.136719l-22.226562-72.496094 22.226562-72.5zm0 0" fill="#8f5240"/><path d="m256 276.003906v144.996094c-61.378906 0-111.136719-49.757812-111.136719-111.136719v-33.859375zm0 0" fill="#b27361"/><path d="m196.726562 175.980469h40.75v22.230469h-40.75zm0 0" fill="#b27361"/><path d="m274.523438 175.980469h40.75v22.230469h-40.75zm0 0" fill="#8f5240"/><path d="m230.066406 253.777344h-22.226562v-11.113282h-25.929688v-22.226562h48.15625zm0 0" fill="#331d17"/><path d="m304.160156 253.777344h-22.226562v-33.339844h48.15625v22.226562h-25.929688zm0 0"/><path d="m244.886719 298.230469h-22.226563c0 18.382812 14.957032 33.339843 33.339844 33.339843l7.410156-11.113281-7.410156-11.113281c-6.128906 0-11.113281-4.984375-11.113281-11.113281zm0 0" fill="#f7af99"/><path d="m267.113281 298.230469c0 6.128906-4.984375 11.113281-11.113281 11.113281v22.226562c18.382812 0 33.339844-14.957031 33.339844-33.339843zm0 0" fill="#f88a6b"/></svg>