<svg height="512pt" viewBox="0 0 512 512" width="512pt" xmlns="http://www.w3.org/2000/svg"><path d="m512 256c0 141.386719-114.613281 256-256 256s-256-114.613281-256-256 114.613281-256 256-256 256 114.613281 256 256zm0 0" fill="#e7b0a0"/><path d="m510.882812 279.871094-156.8125-156.8125-243.699218 297.941406 83.355468 83.355469c19.9375 4.984375 40.792969 7.644531 62.273438 7.644531 133.335938 0 242.839844-101.9375 254.882812-232.128906zm0 0" fill="#c48776"/><path d="m256 91 50.21875 161.53125-50.21875 168.46875h-145.628906c0-68.007812 9.617187-108.769531 16.5-144.46875v-77.921875c0-59.335937 48.273437-107.609375 107.605468-107.609375zm0 0" fill="#5b3227"/><path d="m401.628906 421h-145.628906v-330h21.523438c59.332031 0 107.609374 48.273438 107.609374 107.609375v77.929687c6.878907 35.691407 16.496094 76.453126 16.496094 144.460938zm0 0" fill="#44261d"/><path d="m148.390625 248.824219c-17.828125 0-32.28125 14.453125-32.28125 32.285156 0 17.828125 14.453125 32.28125 32.28125 32.28125 1.289063 0 25.335937-.222656 25.335937-.222656v-64.339844h-25.335937zm0 0" fill="#c48776"/><path d="m363.609375 248.824219h-25.335937v64.34375s24.046874.222656 25.335937.222656c17.828125 0 32.28125-14.453125 32.28125-32.28125 0-17.832031-14.453125-32.285156-32.28125-32.285156zm0 0" fill="#b27361"/><path d="m241.652344 148.390625 14.347656 222.390625 32 16.6875c43.804688-13.625 75.609375-54.488281 75.609375-102.773438v-71.738281zm0 0" fill="#c48776"/><path d="m148.390625 212.957031v71.738281c0 48.191407 31.683594 88.988282 75.351563 102.691407l32.257812-16.605469v-222.390625zm0 0" fill="#d59c8b"/><path d="m363.609375 198.609375v14.347656c-56.675781 0-86.386719-23.960937-107.609375-50.21875l-14.347656-25.105469 14.347656-25.109374h21.523438c47.347656 0 86.085937 38.738281 86.085937 86.085937zm0 0" fill="#44261d"/><path d="m230.890625 270.347656h-21.519531v-10.761718h-25.109375v-21.519532h46.628906zm0 0" fill="#331d17"/><path d="m302.628906 270.347656h-21.519531v-32.28125h46.628906v21.519532h-25.109375zm0 0"/><path d="m245.238281 291.871094h-21.519531c0 17.800781 14.480469 32.28125 32.28125 32.28125l7.175781-10.761719-7.175781-10.761719c-5.933594 0-10.761719-4.824218-10.761719-10.757812zm0 0" fill="#b27361"/><path d="m266.761719 291.871094c0 5.933594-4.828125 10.761718-10.761719 10.761718v21.519532c17.800781 0 32.28125-14.480469 32.28125-32.28125zm0 0" fill="#a15f4c"/><path d="m256 112.523438v50.214843c-21.21875 26.257813-50.933594 50.21875-107.609375 50.21875v-14.347656c0-47.347656 38.738281-86.089844 86.085937-86.089844h21.523438zm0 0" fill="#5b3227"/><path d="m256 356.433594c17.382812 0 31.558594 13.738281 32.253906 30.949218-10.179687 3.199219-21.019531 4.921876-32.253906 4.921876l-7.175781-17.9375zm0 0" fill="#5b3227"/><path d="m256 356.433594v35.871094c-11.234375 0-22.074219-1.722657-32.253906-4.921876.695312-17.210937 14.871094-30.949218 32.253906-30.949218zm0 0" fill="#794334"/></svg>