<svg height="512pt" viewBox="0 0 512 512" width="512pt" xmlns="http://www.w3.org/2000/svg"><path d="m512 256c0 141.386719-114.613281 256-256 256s-256-114.613281-256-256 114.613281-256 256-256 256 114.613281 256 256zm0 0" fill="#fd413c"/><path d="m508.199219 300.121094-167.390625-167.390625-227.980469 175.609375 24.84375 24.847656 35 77.273438 101.753906 100.875c118-8.394532 213.886719-96.757813 233.773438-211.214844zm0 0" fill="#b40f0c"/><path d="m137.464844 247.144531c-19.640625 0-35.5625 15.921875-35.5625 35.5625s15.921875 35.5625 35.5625 35.5625c1.417968 0 27.90625-.246093 27.90625-.246093v-70.878907zm0 0" fill="#ed9980"/><path d="m374.535156 247.144531h-27.90625v70.878907s26.488282.246093 27.90625.246093c19.640625 0 35.5625-15.921875 35.5625-35.5625s-15.921875-35.5625-35.5625-35.5625zm0 0" fill="#db8870"/><path d="m368.871094 179.234375c-.007813 0-128.675782-48.949219-128.675782-48.949219l15.804688 290.714844h71.128906c28.789063-21.628906 47.40625-56.050781 47.40625-94.828125v-110.636719c0-12.667968-1.980468-24.859375-5.664062-36.300781zm0 0" fill="#ed9980"/><path d="m138.515625 199.730469c-.699219 5.167969-1.050781 10.449219-1.050781 15.804687v110.636719c0 38.777344 18.617187 73.199219 47.40625 94.828125h71.128906v-290.714844zm0 0" fill="#f7af99"/><path d="m228.339844 270.855469h-23.707032v-11.855469h-27.65625v-23.707031h51.363282zm0 0" fill="#5b3227"/><path d="m307.367188 270.855469h-23.707032v-35.5625h51.363282v23.707031h-27.65625zm0 0" fill="#44261d"/><path d="m244.144531 302.464844h-23.707031c0 19.605468 15.953125 35.558594 35.5625 35.558594l7.902344-11.851563-7.902344-11.855469c-6.535156 0-11.855469-5.316406-11.855469-11.851562zm0 0" fill="#db8870"/><path d="m267.855469 302.464844c0 6.535156-5.320313 11.851562-11.855469 11.851562v23.707032c19.609375 0 35.5625-15.953126 35.5625-35.558594zm0 0" fill="#cf6e53"/><path d="m244.144531 361.730469h23.707031v23.707031h-23.707031zm0 0" fill="#5b3227"/><path d="m368.871094 179.234375c-.007813 0-23.597656 0-23.597656 0-18.894532 0-36.375-6.03125-50.636719-16.273437l-23.707031-29.757813 23.707031-29.753906c35.15625 12.113281 62.832031 40.300781 74.234375 75.785156zm0 0" fill="#5b3227"/><path d="m294.636719 103.449219v59.511719c-15.742188 22.246093-41.679688 36.769531-71.003907 36.769531-48.007812 0-85.117187 0-85.117187 0 7.71875-57.996094 57.378906-102.730469 117.484375-102.730469 13.527344 0 26.527344 2.269531 38.636719 6.449219zm0 0" fill="#91552d"/></svg>