<svg height="512pt" viewBox="0 0 512 512" width="512pt" xmlns="http://www.w3.org/2000/svg"><path d="m512 256c0 141.386719-114.613281 256-256 256s-256-114.613281-256-256 114.613281-256 256-256 256 114.613281 256 256zm0 0" fill="#fd413c"/><path d="m509.601562 291.046875-165.074218-165.074219-193.195313 73.027344-41.308593 140.730469 171.046874 171.046875c118.023438-11.476563 212.558594-103.085938 228.53125-219.730469zm0 0" fill="#b40f0c"/><path d="m131.5 221.800781c-20.628906 0-37.351562 16.722657-37.351562 37.347657 0 20.628906 16.722656 37.351562 37.351562 37.351562 1.492188 0 29.3125-.257812 29.3125-.257812v-74.441407zm0 0" fill="#d59c8b"/><path d="m135.910156 350.191406c-20.59375 0-37.347656-16.753906-37.347656-37.347656 0-20.597656 16.753906-37.351562 37.347656-37.351562 20.597656 0 37.351563 16.753906 37.351563 37.351562 0 20.59375-16.753907 37.347656-37.351563 37.347656zm0-49.800781c-6.863281 0-12.449218 5.585937-12.449218 12.453125 0 6.863281 5.585937 12.449219 12.449218 12.449219 6.867188 0 12.449219-5.585938 12.449219-12.449219 0-6.867188-5.582031-12.453125-12.449219-12.453125zm0 0" fill="#fee0c1"/><path d="m380.5 221.800781h-21.011719v74.441407s19.519531.257812 21.011719.257812c20.628906 0 37.351562-16.722656 37.351562-37.351562 0-20.625-16.722656-37.347657-37.351562-37.347657zm0 0" fill="#c48776"/><path d="m376.089844 350.191406c-20.597656 0-37.351563-16.753906-37.351563-37.347656 0-20.597656 16.753907-37.351562 37.351563-37.351562 20.59375 0 37.347656 16.753906 37.347656 37.351562 0 20.59375-16.753906 37.347656-37.347656 37.347656zm0-49.800781c-6.867188 0-12.449219 5.585937-12.449219 12.453125 0 6.863281 5.582031 12.449219 12.449219 12.449219 6.863281 0 12.449218-5.585938 12.449218-12.449219 0-6.867188-5.585937-12.453125-12.449218-12.453125zm0 0" fill="#fcc286"/><path d="m231.101562 169.320312 24.898438 251.679688c55.609375 0 124.5-64.042969 124.5-132.800781v-66.398438zm0 0" fill="#d59c8b"/><path d="m256 137.828125v283.171875c-55.609375 0-124.5-64.042969-124.5-132.800781v-66.398438l83-83.972656zm0 0" fill="#e7b0a0"/><path d="m226.949219 288.199219h-24.898438v-12.449219h-29.050781v-24.898438h53.949219zm0 0" fill="#44261d"/><path d="m309.949219 288.199219h-24.898438v-37.347657h53.949219v24.898438h-29.050781zm0 0"/><path d="m243.550781 321.398438h-24.902343c0 20.597656 16.757812 37.351562 37.351562 37.351562l8.300781-12.449219-8.300781-12.449219c-6.863281 0-12.449219-5.585937-12.449219-12.453124zm0 0" fill="#c48776"/><path d="m268.449219 321.398438c0 6.867187-5.585938 12.453124-12.449219 12.453124v24.898438c20.59375 0 37.351562-16.753906 37.351562-37.351562zm0 0" fill="#b27361"/><path d="m380.5 213.5v8.300781h-11.535156c-59.769532 2.730469-114.78125-20.328125-154.464844-59.070312l-16.601562-24.902344 16.601562-41.75c12.980469-4.582031 26.949219-7.078125 41.5-7.078125 68.757812 0 124.5 55.742188 124.5 124.5zm0 0" fill="#794334"/><path d="m214.5 96.078125v66.652344c-22.367188 25.570312-50.472656 46.902343-83 59.070312v-8.300781c0-54.207031 34.644531-100.320312 83-117.421875zm0 0" fill="#8f5240"/></svg>