<svg height="512pt" viewBox="0 0 512 512" width="512pt" xmlns="http://www.w3.org/2000/svg"><path d="m512 256c0 141.386719-114.613281 256-256 256s-256-114.613281-256-256 114.613281-256 256-256 256 114.613281 256 256zm0 0" fill="#fd413c"/><path d="m508.65625 297.359375-178.570312-178.574219-200.5625 89.675782-20.144532 110.847656 189.152344 189.15625c107.695312-18.015625 192.605469-103.246094 210.125-211.105469zm0 0" fill="#b40f0c"/><path d="m129.527344 208.460938c-19.382813 0-35.097656 15.714843-35.097656 35.097656 0 19.382812 15.714843 35.097656 35.097656 35.097656 1.402344 0 27.542968-.242188 27.542968-.242188v-69.953124zm0 0" fill="#fcaf60"/><path d="m133.671875 329.113281c-19.351563 0-35.097656-15.746093-35.097656-35.097656 0-19.355469 15.746093-35.101563 35.097656-35.101563 19.355469 0 35.101563 15.746094 35.101563 35.101563 0 19.351563-15.746094 35.097656-35.101563 35.097656zm0-46.796875c-6.449219 0-11.699219 5.246094-11.699219 11.699219s5.25 11.699219 11.699219 11.699219c6.453125 0 11.699219-5.246094 11.699219-11.699219s-5.246094-11.699219-11.699219-11.699219zm0 0"/><path d="m230.921875 185.203125 15.597656 210.453125c23.199219 0 48.84375-11.855469 70.199219-30.683594l31.199219-137.011718zm0 0" fill="#fcaf60"/><path d="m246.519531 137.351562v258.304688c-52.257812 0-116.996093-60.183594-116.996093-124.796875v-62.398437s56.980468-47.078126 78-71.109376zm0 0" fill="#fcc286"/><path d="m180.691406 103.9375 43.558594 22.578125-16.726562 26.433594c-21.019532 24.03125-47.421876 44.078125-78 55.511719v-7.800782c0-40.207031 20.28125-75.671875 51.167968-96.722656zm0 0" fill="#44261d"/><path d="m417.613281 317.28125-62.054687-159.113281c-17-43.605469-59.410156-74.503907-109.039063-74.503907-24.414062 0-47.078125 7.480469-65.828125 20.273438l26.832032 49.011719 43.675781 79.800781c10.296875 18.8125 36.269531 34.210938 57.71875 34.210938h7.800781v175.492187l74.582031.046875c21.175781-21.167969 34.269531-50.417969 34.269531-82.726562 0-14.988282-2.824218-29.316407-7.957031-42.492188zm0 0" fill="#d97a5f"/><path d="m219.226562 270.855469h-23.402343v-11.699219h-27.296875v-23.398438h50.699218zm0 0"/><path d="m234.824219 302.054688h-23.398438c0 19.355468 15.746094 35.101562 35.097657 35.101562l7.800781-11.703125-7.800781-11.699219c-6.449219.003906-11.699219-5.246094-11.699219-11.699218zm0 0" fill="#d97a5f"/><path d="m258.222656 302.054688c0 6.453124-5.246094 11.703124-11.699218 11.703124v23.398438c19.351562 0 35.097656-15.746094 35.097656-35.101562zm0 0" fill="#cf6446"/></svg>