<svg height="512pt" viewBox="0 0 512 512" width="512pt" xmlns="http://www.w3.org/2000/svg"><path d="m512 256c0 141.386719-114.613281 256-256 256s-256-114.613281-256-256 114.613281-256 256-256 256 114.613281 256 256zm0 0" fill="#fd413c"/><path d="m505.742188 312.453125-163.421876-163.417969-80.515624-33.796875-33.910157-33.90625-125.324219 155.40625 16 15.882813 5.171876 42.902344 2 2 2.082031 47.15625 164.710937 164.714843c105.414063-15.066406 190.109375-94.335937 213.207032-196.941406zm0 0" fill="#b40f0c"/><path d="m375.257812 236.738281h-26.820312v68.113281s25.453125.234376 26.820312.234376c18.871094 0 34.171876-15.300782 34.171876-34.171876 0-18.875-15.300782-34.175781-34.171876-34.175781zm0 0" fill="#b27361"/><path d="m147.429688 236.738281c-18.875 0-34.171876 15.300781-34.171876 34.175781 0 18.871094 15.296876 34.171876 34.171876 34.171876 1.367187 0 26.816406-.234376 26.816406-.234376v-68.113281zm0 0" fill="#db8870"/><path d="m151.464844 354.214844c-18.84375 0-34.171875-15.332032-34.171875-34.175782s15.328125-34.175781 34.171875-34.175781 34.175781 15.332031 34.175781 34.175781-15.332031 34.175782-34.175781 34.175782zm0-45.566406c-6.28125 0-11.390625 5.109374-11.390625 11.390624s5.109375 11.390626 11.390625 11.390626 11.390625-5.109376 11.390625-11.390626-5.109375-11.390624-11.390625-11.390624zm0 0" fill="#fee0c1"/><path d="m371.21875 354.214844c-18.84375 0-34.171875-15.332032-34.171875-34.175782s15.328125-34.175781 34.171875-34.175781 34.175781 15.332031 34.175781 34.175781-15.332031 34.175782-34.175781 34.175782zm0-45.566406c-6.28125 0-11.390625 5.109374-11.390625 11.390624s5.109375 11.390626 11.390625 11.390626c6.285156 0 11.390625-5.109376 11.390625-11.390626s-5.109375-11.390624-11.390625-11.390624zm0 0" fill="#fcc286"/><path d="m200.589844 69.667969h-30.023438c-37.554687 0-67.996094 30.441406-67.996094 67.992187v99.078125h135.988282v-129.101562c0-20.882813-17.085938-37.96875-37.96875-37.96875zm0 0"/><path d="m375.257812 229.144531v68.347657c0 62.910156-63.03125 121.507812-113.910156 121.507812l-22.785156-258.589844 136.125 57.34375c.382812 3.75.570312 7.546875.570312 11.390625zm0 0" fill="#db8870"/><path d="m261.347656 168.003906v250.996094c-50.882812 0-113.914062-58.597656-113.914062-121.507812v-68.347657c0-37.265625 17.890625-70.359375 45.5625-91.136719zm0 0" fill="#ed9980"/><path d="m234.761719 286.101562h-49.359375v-22.78125h26.578125v-11.390624h22.78125zm0 0" fill="#331d17"/><path d="m337.285156 286.101562h-49.363281v-34.171874h22.78125v11.390624h26.582031zm0 0"/><path d="m249.949219 312.679688h-22.78125c0 18.84375 15.328125 34.175781 34.175781 34.175781l7.59375-11.390625-7.59375-11.390625c-6.28125-.003907-11.394531-5.113281-11.394531-11.394531zm0 0" fill="#a15f4c"/><path d="m272.734375 312.679688c0 6.28125-5.109375 11.390624-11.390625 11.390624v22.785157c18.84375 0 34.171875-15.332031 34.171875-34.175781zm0 0" fill="#794334"/><path d="m374.695312 217.753906c-.007812 0-73.621093 0-98.160156 0-45.566406 0-60.753906-30.375-60.753906-30.375l22.78125-69.867187c7.359375-1.496094 14.984375-2.28125 22.785156-2.28125 59.066406 0 107.632813 44.960937 113.347656 102.523437zm0 0"/><path d="m276.535156 217.753906h-45.566406c-20.882812 0-37.96875-17.085937-37.96875-37.972656v-41.773438c13.242188-9.949218 28.726562-17.078124 45.5625-20.496093v62.269531c0 20.886719 17.089844 37.972656 37.972656 37.972656zm0 0" fill="#5b3227"/></svg>