<svg height="512pt" viewBox="0 0 512 512" width="512pt" xmlns="http://www.w3.org/2000/svg"><path d="m512 256c0 141.386719-114.613281 256-256 256s-256-114.613281-256-256 114.613281-256 256-256 256 114.613281 256 256zm0 0" fill="#fd413c"/><path d="m510.257812 285.839844-160.089843-160.089844-252.988281 177.03125 28.542968 28.5625 37.816406 75.914062 104.453126 104.453126c125.832031-5.804688 227.9375-102.445313 242.265624-225.871094zm0 0" fill="#b40f0c"/><path d="m124.554688 234.972656c-21.78125 0-39.4375 17.65625-39.4375 39.433594 0 21.78125 17.65625 39.4375 39.4375 39.4375 1.574218 0 30.945312-.273438 30.945312-.273438v-78.597656zm0 0" fill="#d59c8b"/><path d="m387.445312 234.972656h-30.945312v78.597656s29.371094.273438 30.945312.273438c21.78125 0 39.4375-17.65625 39.4375-39.4375 0-21.777344-17.65625-39.433594-39.4375-39.433594zm0 0" fill="#c48776"/><path d="m328.683594 107.917969-98.972656 48.1875 26.289062 262.894531h78.878906c31.921875-23.984375 52.566406-62.15625 52.566406-105.15625v-96.398438c0-45.714843-23.34375-85.980468-58.761718-109.527343zm0 0" fill="#d59c8b"/><path d="m183.328125 107.933594c-35.429687 23.53125-58.773437 63.796875-58.773437 109.511718v96.398438c0 43 20.644531 81.171875 52.566406 105.15625h78.878906v-262.894531zm0 0" fill="#e7b0a0"/><path d="m225.328125 287.554688h-26.289063v-13.148438h-30.671874v-26.289062h56.960937zm0 0" fill="#44261d"/><path d="m312.960938 287.554688h-26.289063v-39.4375h56.960937v26.289062h-30.671874zm0 0"/><path d="m277.90625 195.539062h65.726562v26.289063h-65.726562zm0 0" fill="#794334"/><path d="m168.367188 195.539062h65.726562v26.289063h-65.726562zm0 0" fill="#8f5240"/><path d="m242.855469 322.605469h-26.289063c0 21.742187 17.691406 39.433593 39.433594 39.433593l8.761719-13.144531-8.761719-13.144531c-7.246094 0-13.144531-5.898438-13.144531-13.144531zm0 0" fill="#b27361"/><path d="m269.144531 322.605469c0 7.246093-5.898437 13.144531-13.144531 13.144531v26.289062c21.742188 0 39.433594-17.691406 39.433594-39.433593zm0 0" fill="#a15f4c"/><path d="m328.683594 107.917969c-11.972656 28.3125-40.003906 48.1875-72.683594 48.1875l-26.289062-33.496094 26.289062-36.609375c26.878906 0 51.867188 8.0625 72.683594 21.917969zm0 0" fill="#b27361"/><path d="m256 86v70.105469c-32.667969 0-60.695312-19.867188-72.671875-48.171875 20.804687-13.871094 45.792969-21.933594 72.671875-21.933594zm0 0" fill="#c48776"/></svg>