<svg height="512pt" viewBox="0 0 512 512" width="512pt" xmlns="http://www.w3.org/2000/svg"><path d="m512 256c0 141.386719-114.613281 256-256 256s-256-114.613281-256-256 114.613281-256 256-256 256 114.613281 256 256zm0 0" fill="#fc9c3a"/><path d="m510.203125 286.328125-161.613281-161.613281-223.3125 294.285156 89.714844 89.714844c13.351562 2.152344 27.046874 3.285156 41.007812 3.285156 131.121094 0 239.199219-98.585938 254.203125-225.671875zm0 0" fill="#c67934"/><path d="m386.304688 291.0625c11.175781 20.753906 12.089843 43.421875 3.105468 64.355469 8.976563 20.863281 7.976563 43.234375-2.6875 63.582031h-130.722656l-21.71875-159.984375 21.71875-173.015625c71.847656 0 130.304688 58.457031 130.304688 130.304688zm0 0"/><path d="m256 86v333h-130.722656c-10.664063-20.347656-11.664063-42.71875-2.6875-63.582031-8.984375-20.933594-8.070313-43.601563 3.105468-64.355469v-74.757812c0-71.847657 58.457032-130.304688 130.304688-130.304688zm0 0" fill="#331d17"/><path d="m364.585938 230.78125h-29.910157v79.628906h29.910157c17.992187 0 32.578124-14.585937 32.578124-32.574218v-14.480469c0-17.988281-14.585937-32.574219-32.578124-32.574219zm0 0" fill="#854820"/><path d="m147.414062 230.78125c-17.992187 0-32.578124 14.585938-32.578124 32.574219v14.480469c0 17.988281 14.585937 32.574218 32.578124 32.574218h22.671876v-79.628906zm0 0" fill="#91552d"/><path d="m364.585938 216.304688v79.628906c0 35.523437-17.054688 67.054687-43.425782 86.871094h-14.488281l-50.671875-25.84375-21.71875-228.769532 126.535156 59.664063c2.460938 9.070312 3.769532 18.605469 3.769532 28.449219zm0 0" fill="#91552d"/><path d="m256 142.667969v214.292969l-50.675781 25.84375h-14.484375c-26.371094-19.8125-43.425782-51.347657-43.425782-86.871094v-79.628906c0-41.429688 23.199219-77.445313 57.316407-95.746094 0 .007812 51.269531 22.109375 51.269531 22.109375zm0 0" fill="#a26745"/><path d="m306.675781 320.765625v62.039063h-50.675781l-21.71875-49.117188 21.71875-49.117188h14.476562c19.910157 0 36.199219 16.285157 36.199219 36.195313zm0 0" fill="#331d17"/><path d="m256 284.570312v98.234376h-50.675781v-62.039063c0-19.910156 16.289062-36.195313 36.199219-36.195313zm0 0" fill="#5c3419"/><path d="m230.664062 252.496094h-21.71875v-10.855469h-25.335937v-21.71875h47.054687zm0 0" fill="#331d17"/><path d="m303.054688 252.496094h-21.71875v-32.574219h47.054687v21.71875h-25.335937zm0 0"/><path d="m274.097656 317.144531v21.714844h-18.097656l-5.171875-10.855469 5.171875-10.859375zm0 0" fill="#854820"/><path d="m237.902344 317.144531h18.097656v21.714844h-18.097656zm0 0" fill="#91552d"/><path d="m204.730469 120.558594c15.269531-8.195313 32.730469-12.839844 51.269531-12.839844 50.125 0 92.320312 33.957031 104.816406 80.136719h-15.269531c-56.882813 0-107.636719-26.25-140.816406-67.296875zm0 0"/></svg>