<svg height="512pt" viewBox="0 0 512 512" width="512pt" xmlns="http://www.w3.org/2000/svg"><path d="m512 256c0 141.386719-114.613281 256-256 256s-256-114.613281-256-256 114.613281-256 256-256 256 114.613281 256 256zm0 0" fill="#fd413c"/><path d="m509.992188 288.175781-168.207032-168.207031-230.402344 161.285156 24.886719 24.890625 35.554688 102.207031 102.960937 102.960938c121.914063-8.84375 220.148438-103.050781 235.207032-223.136719zm0 0" fill="#b40f0c"/><path d="m375.730469 203.480469h-32.984375v87.804687h32.984375c19.839843 0 35.921875-16.082031 35.921875-35.917968v-15.964844c0-19.839844-16.082032-35.921875-35.921875-35.921875zm0 0" fill="#b27361"/><path d="m136.269531 203.480469c-19.839843 0-35.921875 16.082031-35.921875 35.921875v15.964844c0 19.835937 16.082032 35.917968 35.921875 35.917968h25v-87.804687zm0 0" fill="#db8870"/><path d="m322.203125 103.714844-82.167969 27.929687 15.964844 203.703125 119.730469-44.0625v-87.804687c0-41.640625-21.261719-78.320313-53.527344-99.765625zm0 0" fill="#db8870"/><path d="m189.804688 103.730469c-32.273438 21.429687-53.535157 58.109375-53.535157 99.75v87.804687l119.730469 44.0625v-187.742187zm0 0" fill="#ed9980"/><path d="m375.730469 291.285156v31.929688c0 39.167968-18.804688 73.9375-47.882813 95.785156h-71.847656l-23.945312-73.753906 23.945312-73.757813c24.367188 0 47.039062 7.289063 65.949219 19.796875zm0 0"/><path d="m256 271.488281v147.511719h-71.847656c-29.078125-21.847656-47.882813-56.617188-47.882813-95.785156v-31.929688h53.78125c18.910157-12.507812 41.582031-19.796875 65.949219-19.796875zm0 0" fill="#5b3227"/><path d="m335.820312 239.402344h-51.882812v-35.921875h23.945312v11.972656h27.9375zm0 0"/><path d="m228.0625 239.402344h-51.882812v-23.949219h27.9375v-11.972656h23.945312zm0 0" fill="#331d17"/><path d="m291.921875 307.410156v23.945313h-35.921875l-10.261719-11.972657 10.261719-11.972656zm0 0" fill="#b27361"/><path d="m220.078125 307.410156h35.921875v23.945313h-35.921875zm0 0" fill="#db8870"/><path d="m322.203125 103.714844c-10.902344 25.789062-36.4375 43.890625-66.203125 43.890625l-23.945312-31.925781 23.945312-31.929688c24.480469 0 47.246094 7.34375 66.203125 19.964844zm0 0"/><path d="m256 83.75v63.855469c-29.757812 0-55.285156-18.09375-66.195312-43.875 18.949218-12.636719 41.714843-19.980469 66.195312-19.980469zm0 0" fill="#5b3227"/></svg>