<svg height="512pt" viewBox="0 0 512 512" width="512pt" xmlns="http://www.w3.org/2000/svg"><path d="m512 256c0 141.386719-114.613281 256-256 256s-256-114.613281-256-256 114.613281-256 256-256 256 114.613281 256 256zm0 0" fill="#fd413c"/><path d="m124.5625 374.992188 136.933594 136.9375c135.03125-2.84375 244.328125-110.234376 250.234375-244.492188l-161.945313-161.945312zm0 0" fill="#b40f0c"/><path d="m256 74.332031 22.429688 141.304688-22.429688 78.324219h-112.144531c-28.875-2.289063-51.589844-26.4375-51.589844-55.894532 0-15.414062 6.222656-29.375 16.292969-39.511718-3.648438-13.808594-2.0625-29.007813 5.644531-42.355469 7.707031-13.351563 20.074219-22.324219 33.859375-26.070313 3.746094-13.785156 12.726562-26.152344 26.070312-33.859375 13.347657-7.707031 28.546876-9.300781 42.363282-5.652343 10.128906-10.0625 24.089844-16.285157 39.503906-16.285157zm0 0" fill="#fdcdbf"/><path d="m403.441406 198.554688c10.070313 10.136718 16.292969 24.09375 16.292969 39.511718 0 29.457032-22.714844 53.605469-51.589844 55.894532h-112.144531v-219.628907c15.414062 0 29.375 6.222657 39.503906 16.285157 13.816406-3.648438 29.015625-2.054688 42.363282 5.652343 13.34375 7.707031 22.324218 20.074219 26.070312 33.859375 13.785156 3.746094 26.152344 12.71875 33.859375 26.070313 7.707031 13.347656 9.292969 28.546875 5.644531 42.355469zm0 0" fill="#e7b0a0"/><path d="m368.144531 253.769531h-30.890625v82.238281h30.890625c18.582031 0 33.644531-15.0625 33.644531-33.644531v-14.953125c0-18.578125-15.0625-33.640625-33.644531-33.640625zm0 0" fill="#794334"/><path d="m143.855469 253.769531c-18.582031 0-33.644531 15.0625-33.644531 33.640625v14.953125c0 18.582031 15.0625 33.644531 33.644531 33.644531h23.414062v-82.238281zm0 0" fill="#8f5240"/><path d="m147.828125 384.371094c-18.550781 0-33.644531-15.09375-33.644531-33.644532 0-18.550781 15.09375-33.644531 33.644531-33.644531s33.644531 15.09375 33.644531 33.644531c0 18.550782-15.09375 33.644532-33.644531 33.644532zm0 0" fill="#fc9c3a"/><path d="m364.171875 384.371094c-18.550781 0-33.644531-15.09375-33.644531-33.644532 0-18.550781 15.09375-33.644531 33.644531-33.644531s33.644531 15.09375 33.644531 33.644531c0 18.550782-15.09375 33.644532-33.644531 33.644532zm0 0" fill="#fc8914"/><path d="m327.050781 167.011719c0 18.582031-15.085937 33.675781-33.667969 33.675781-3.003906 0-5.910156-.402344-8.679687-1.136719-5.914063 9.648438-16.554687 16.089844-28.703125 16.089844l-52.335938 101.304687 52.335938 101.304688c61.9375 0 112.144531-34.585938 112.144531-77.242188v-87.238281c0-34.96875-16.011719-66.191406-41.09375-86.757812zm0 0" fill="#8f5240"/><path d="m227.296875 199.550781c-2.769531.734375-5.675781 1.136719-8.679687 1.136719-18.582032 0-33.671876-15.082031-33.671876-33.660156-25.078124 20.566406-41.089843 51.777344-41.089843 86.742187v87.238281c0 42.65625 50.207031 77.242188 112.144531 77.242188v-202.609375c-12.148438 0-22.789062-6.441406-28.703125-16.089844zm0 0" fill="#a15f4c"/><path d="m229.832031 298.628906h-22.429687v-11.21875h-26.167969v-22.425781h48.597656zm0 0" fill="#331d17"/><path d="m304.597656 298.628906h-22.429687v-33.644531h48.597656v22.425781h-26.167969zm0 0"/><path d="m282.167969 328.53125v22.429688h-26.167969l-7.476562-11.214844 7.476562-11.214844zm0 0" fill="#331d17"/><path d="m229.832031 328.53125h26.167969v22.429688h-26.167969zm0 0" fill="#691e17"/></svg>