<svg height="512pt" viewBox="0 0 512 512" width="512pt" xmlns="http://www.w3.org/2000/svg"><path d="m512 256c0 141.386719-114.613281 256-256 256s-256-114.613281-256-256 114.613281-256 256-256 256 114.613281 256 256zm0 0" fill="#8f5240"/><path d="m512 256c0-4.402344-.113281-8.78125-.332031-13.132812l-136.234375-136.230469-14.675782-8.84375-34.945312-35.066407-206.8125 229.773438-14.171875 75.953125 143.417969 143.417969c2.578125.078125 5.160156.128906 7.753906.128906 141.386719 0 256-114.613281 256-256zm0 0" fill="#5c3419"/><path d="m384.914062 229.175781h-35.511718v94.539063h35.511718c21.359376 0 38.675782-17.316406 38.675782-38.675782v-17.1875c0-21.363281-17.316406-38.675781-38.675782-38.675781zm0 0" fill="#cf6e53"/><path d="m127.085938 229.175781c-21.359376 0-38.675782 17.3125-38.675782 38.671875v17.191406c0 21.359376 17.316406 38.671876 38.675782 38.671876h26.917968v-94.535157zm0 0" fill="#d97a5f"/><path d="m131.652344 379.308594c-21.324219 0-38.671875-17.351563-38.671875-38.675782 0-21.324218 17.347656-38.671874 38.671875-38.671874 21.328125 0 38.675781 17.347656 38.675781 38.671874 0 21.324219-17.351563 38.675782-38.675781 38.675782zm0-51.566406c-7.109375 0-12.890625 5.78125-12.890625 12.890624 0 7.109376 5.785156 12.890626 12.890625 12.890626 7.109375 0 12.890625-5.78125 12.890625-12.890626 0-7.109374-5.78125-12.890624-12.890625-12.890624zm0 0" fill="#fcc286"/><path d="m380.347656 379.308594c-21.324218 0-38.671875-17.351563-38.671875-38.675782 0-21.324218 17.347657-38.671874 38.671875-38.671874 21.328125 0 38.675782 17.347656 38.675782 38.671874 0 21.324219-17.351563 38.675782-38.675782 38.675782zm0-51.566406c-7.109375 0-12.890625 5.78125-12.890625 12.890624 0 7.109376 5.78125 12.890626 12.890625 12.890626s12.890625-5.78125 12.890625-12.890626c0-7.109374-5.78125-12.890624-12.890625-12.890624zm0 0" fill="#fcaf60"/><path d="m384.914062 229.175781v100.285157c0 49.039062-57.71875 88.789062-128.914062 88.789062l-42.972656-120.105469 42.972656-123.417969zm0 0" fill="#d97a5f"/><path d="m256 174.726562v243.519532c-71.195312 0-128.914062-39.746094-128.914062-88.785156v-100.285157c0-36.242187 14.960937-68.988281 39.042968-92.40625zm0 0" fill="#db8870"/><path d="m386.890625 165.429688-16.121094 4.976562c9.039063 17.617188 14.144531 37.597656 14.144531 58.765625-46.066406-.738281-89.679687-11.316406-128.914062-29.648437l-34.378906-64.671876 34.378906-75.527343c22.449219-5.226563 46.539062-4.433594 69.8125 3.402343l-17.59375 22.378907c23.351562.085937 46.867188 7.125 67.214844 21.53125l-32.449219 22.859375c16.878906 7.957031 32.066406 20.042968 43.90625 35.933594zm0 0" fill="#fcc286"/><path d="m256 59.324219v140.199219c-33.5625-15.675782-63.914062-37.035157-89.871094-62.757813 16.046875-40.570313 50.441406-68.28125 89.871094-77.441406zm0 0" fill="#fee0c1"/><path d="m225.921875 297.929688h-25.785156v-12.890626h-30.078125v-25.785156h55.863281zm0 0" fill="#5b3227"/><path d="m311.863281 297.929688h-25.785156v-38.675782h55.863281v25.785156h-30.078125zm0 0" fill="#44261d"/><path d="m286.078125 331.664062v25.78125h-30.078125l-8.59375-12.890624 8.59375-12.890626zm0 0" fill="#a34124"/><path d="m225.921875 331.664062h30.078125v25.78125h-30.078125zm0 0" fill="#bf4e2e"/></svg>