<svg height="512pt" viewBox="0 0 512 512" width="512pt" xmlns="http://www.w3.org/2000/svg"><path d="m512 256c0 141.386719-114.613281 256-256 256s-256-114.613281-256-256 114.613281-256 256-256 256 114.613281 256 256zm0 0" fill="#fd413c"/><path d="m511.632812 269.738281-155.566406-155.566406-268.582031 268.898437 125.273437 125.273438c14.058594 2.394531 28.503907 3.65625 43.242188 3.65625 136.777344 0 248.492188-107.265625 255.632812-242.261719zm0 0" fill="#b40f0c"/><path d="m435.511719 317.167969c8.308593 21.296875 6.921875 41.734375-3.882813 57.550781-10.8125 15.816406-29.351562 24.527344-52.203125 24.527344h-123.425781l-47.21875-163.289063 47.21875-163.292969c78.105469 0 141.648438 63.546876 141.648438 141.652344v5.757813zm0 0" fill="#8f5240"/><path d="m256 72.664062v326.582032h-123.425781c-22.851563 0-41.390625-8.710938-52.203125-24.527344-10.804688-15.820312-12.191406-36.253906-3.882813-57.550781l37.863281-97.09375v-5.757813c0-78.105468 63.542969-141.652344 141.648438-141.652344zm0 0" fill="#b27361"/><path d="m374.042969 202.511719h-32.519531v86.5625h32.519531c19.558593 0 35.410156-15.855469 35.410156-35.414063v-15.738281c0-19.554687-15.851563-35.410156-35.410156-35.410156zm0 0" fill="#db8870"/><path d="m137.957031 202.511719c-19.558593 0-35.410156 15.855469-35.410156 35.414062v15.738281c0 19.558594 15.851563 35.410157 35.410156 35.410157h24.648438v-86.5625zm0 0" fill="#ed9980"/><path d="m309.796875 155.019531h-85.273437l31.476562 220.621094c65.191406 0 118.042969-36.40625 118.042969-81.308594v-91.820312zm0 0" fill="#ed9980"/><path d="m202.203125 155.019531h53.796875v220.621094c-65.191406 0-118.042969-36.40625-118.042969-81.308594v-91.820312zm0 0" fill="#f7af99"/><path d="m373.972656 202.511719c-24.53125-.015625-46.957031-9.019531-64.175781-23.882813-15.464844 10.117188-33.941406 16.011719-53.796875 16.011719l-23.609375-53.117187 23.609375-53.121094c63.875 0 115.902344 50.738281 117.972656 114.109375zm0 0" fill="#8f5240"/><path d="m256 88.402344v106.238281c-19.855469 0-38.332031-5.894531-53.796875-16.011719-17.21875 14.863282-39.644531 23.867188-64.175781 23.882813 2.070312-63.371094 54.097656-114.109375 117.972656-114.109375zm0 0" fill="#b27361"/><path d="m228.457031 265.46875h-23.609375v-11.804688h-27.542968v-23.609374h51.152343zm0 0" fill="#794334"/><path d="m307.152344 265.46875h-23.609375v-35.414062h51.152343v23.609374h-27.542968zm0 0" fill="#331d17"/><path d="m244.195312 289.074219h-23.605468c0 19.527343 15.882812 35.414062 35.410156 35.414062l7.871094-11.804687-7.871094-11.804688c-6.507812 0-11.804688-5.292968-11.804688-11.804687zm0 0" fill="#da0806"/><path d="m267.804688 289.074219c0 6.511719-5.296876 11.804687-11.804688 11.804687v23.609375c19.527344 0 35.414062-15.886719 35.414062-35.414062zm0 0" fill="#b40f0c"/></svg>