<svg height="512pt" viewBox="0 0 512 512" width="512pt" xmlns="http://www.w3.org/2000/svg"><path d="m512 256c0 141.386719-114.613281 256-256 256s-256-114.613281-256-256 114.613281-256 256-256 256 114.613281 256 256zm0 0" fill="#fd413c"/><path d="m511.472656 272.265625-160.910156-160.90625-242.5 301.890625 92.773438 92.773438c17.769531 3.902343 36.222656 5.976562 55.164062 5.976562 135.917969 0 247.078125-105.929688 255.472656-239.734375zm0 0" fill="#b40f0c"/><path d="m408.589844 299.492188c6.410156 18.585937 6.898437 41.121093-2.320313 58.734374 7.757813 18.054688 6.898438 37.410157-2.332031 55.023438h-147.9375l-59.347656-170.625 59.347656-170.625c73.628906 0 133.53125 59.902344 133.53125 133.53125v38.375s13.6875 40 19.058594 55.585938zm0 0" fill="#44261d"/><path d="m256 72v341.25h-147.9375c-9.230469-17.613281-10.089844-36.96875-2.332031-55.023438-9.21875-17.613281-8.730469-40.148437-2.320313-58.734374 5.371094-15.585938 19.058594-55.585938 19.058594-55.585938v-38.375c0-73.628906 59.902344-133.53125 133.53125-133.53125zm0 0" fill="#794334"/><path d="m378.171875 247.628906c-26.179687 0-47.476563 21.300782-47.476563 47.480469 0 26.175781 21.296876 47.476563 47.476563 47.476563s47.476563-21.300782 47.476563-47.476563c0-26.179687-21.296876-47.480469-47.476563-47.480469zm0 72.703125c-13.910156 0-25.222656-11.316406-25.222656-25.222656 0-13.910156 11.3125-25.222656 25.222656-25.222656 13.90625 0 25.222656 11.3125 25.222656 25.222656 0 13.90625-11.316406 25.222656-25.222656 25.222656zm0 0" fill="#fcaf60"/><path d="m367.277344 183.273438h-30.65625v81.605468h30.65625c18.4375 0 33.382812-14.945312 33.382812-33.382812v-14.839844c0-18.433594-14.945312-33.382812-33.382812-33.382812zm0 0" fill="#a15f4c"/><path d="m144.722656 183.273438c-18.4375 0-33.382812 14.949218-33.382812 33.382812v14.839844c0 18.4375 14.945312 33.382812 33.382812 33.382812h23.238282v-81.605468zm0 0" fill="#b27361"/><path d="m86.351562 295.109375c0 26.179687 21.296876 47.476563 47.476563 47.476563s47.476563-21.296876 47.476563-47.476563-21.296876-47.476563-47.476563-47.476563-47.476563 21.296876-47.476563 47.476563zm22.253907 0c0-13.910156 11.316406-25.222656 25.222656-25.222656 13.910156 0 25.222656 11.3125 25.222656 25.222656 0 13.90625-11.3125 25.222656-25.222656 25.222656-13.90625 0-25.222656-11.316406-25.222656-25.222656zm0 0" fill="#fcaf60"/><path d="m367.277344 183.277344v108.8125c0 42.332031-49.824219 76.648437-111.277344 76.648437l-44.511719-121.902343 44.511719-121.898438h89.371094c13.761718 14.191406 21.90625 33.496094 21.90625 58.339844zm0 0" fill="#b27361"/><path d="m256 124.9375v243.800781c-61.453125 0-111.277344-34.316406-111.277344-76.648437v-108.8125c0-24.84375 8.144532-44.148438 21.90625-58.339844zm0 0" fill="#c48776"/><path d="m345.371094 124.9375c-18.09375 30.484375-51.34375 50.921875-89.371094 50.921875l-44.511719-40.800781 44.511719-40.804688c36.609375 0 69.089844 9.777344 89.371094 30.683594zm0 0" fill="#44261d"/><path d="m256 94.253906v81.605469c-38.027344 0-71.277344-20.4375-89.371094-50.921875 20.28125-20.90625 52.761719-30.683594 89.371094-30.683594zm0 0" fill="#794334"/><path d="m230.035156 250.039062h-22.253906v-11.125h-25.964844v-22.257812h48.21875zm0 0" fill="#331d17"/><path d="m304.21875 250.039062h-22.253906v-33.382812h48.21875v22.257812h-25.964844zm0 0"/><path d="m244.871094 279.714844h-22.253906c0 18.40625 14.976562 33.382812 33.382812 33.382812l7.417969-11.128906-7.417969-11.125c-6.136719 0-11.128906-4.992188-11.128906-11.128906zm0 0" fill="#8f5240"/><path d="m267.128906 279.714844c0 6.136718-4.992187 11.128906-11.128906 11.128906v22.253906c18.40625 0 33.382812-14.976562 33.382812-33.382812zm0 0" fill="#794334"/></svg>