<?xml version="1.0" encoding="iso-8859-1"?>
<!-- Generator: Adobe Illustrator 19.0.0, SVG Export Plug-In . SVG Version: 6.00 Build 0)  -->
<svg version="1.1" id="Layer_1" xmlns="http://www.w3.org/2000/svg" xmlns:xlink="http://www.w3.org/1999/xlink" x="0px" y="0px"
	 viewBox="0 0 512 512" style="enable-background:new 0 0 512 512;" xml:space="preserve">
<g>
	<g>
		<path style="fill:#3A484A;" d="M366.786,385.557H326.63l-27.398,64.422L326.63,504.5h42.326l7.5-4.286l7.5,4.286h49.015
			C432.97,438.127,437.178,411.436,366.786,385.557z"/>
		<path style="fill:#3A484A;" d="M185.371,385.557h-40.156C74.823,411.436,79.031,438.127,79.031,504.5h49.015l7.249-6.286
			l7.751,6.286h42.325l27.398-54.521L185.371,385.557z"/>
		<path style="fill:#313D40;" d="M175.215,385.557h-30C74.823,411.436,79.031,438.127,79.031,504.5h30
			C109.031,438.127,104.823,411.436,175.215,385.557z"/>
		<polygon style="fill:#EFEDEE;" points="185.371,385.557 185.371,504.5 230.589,504.5 256,491.299 281.412,504.5 326.63,504.5 
			326.63,385.557 		"/>
		<polygon style="fill:#BF4E57;" points="281.411,504.5 270.661,449.09 241.34,449.09 230.589,504.5 		"/>
		<path style="fill:#DC5A64;" d="M276.733,433.78l-2.866-13.597h-35.733l-2.866,13.597c-1.235,5.86,1.157,11.89,6.073,15.31
			l8.64,6.011c3.619,2.517,8.422,2.517,12.04,0l8.64-6.011C275.577,445.67,277.969,439.64,276.733,433.78z"/>
		<path style="fill:#E6742E;" d="M185.372,68.081c0,0-13.331-49.627-64.158-60.158c-6.327-1.311-12.888,0.478-17.791,4.685
			c-14.94,12.818-40.36,48.918-10.555,135.166L185.372,68.081z"/>
		<path style="fill:#FFDFBF;" d="M157.644,85.429l0.079,0.289c-0.377-1.289-9.205-40.293-38.262-48.675
			c-8.151,9.269-21.978,36.184,0.543,101.353L157.644,85.429z"/>
		<path style="fill:#E6742E;" d="M326.629,68.081c0,0,13.331-49.627,64.158-60.158c6.327-1.311,12.888,0.478,17.791,4.685
			c14.94,12.818,40.36,48.918,10.555,135.166L326.629,68.081z"/>
		<path style="fill:#FFDFBF;" d="M354.357,85.429l-0.079,0.289c0.377-1.289,9.205-40.293,38.262-48.675
			c8.151,9.269,21.978,36.184-0.543,101.353L354.357,85.429z"/>
		<path style="fill:#FF8840;" d="M176.48,402.784C112.9,373.598,68.883,310.483,68.883,237.328
			C68.883,136.414,152.66,54.597,256,54.597s187.118,81.817,187.118,182.732c0,73.154-44.017,136.269-107.598,165.455H176.48z"/>
		<path style="fill:#E67A3A;" d="M176.481,402.784c0,0,30,0,30,0C142.9,373.598,98.883,310.482,98.883,237.329
			c0-95.983,75.79-174.683,172.1-182.148c-4.982-0.385-9.985-0.584-14.983-0.584c-80.735,0-149.529,49.937-175.763,119.905
			c-7.368,19.65-11.354,41.466-11.354,62.827c0,17.146,2.418,33.739,6.939,49.475C90.42,337.611,128.237,380.638,176.481,402.784z"
			/>
		<path style="fill:#FFDFBF;" d="M379.795,316.433c0,52.591-25.979,76.233-44.275,86.351c-0.02,0.01-0.03,0.02-0.049,0.03
			c-5.653,2.584-11.455,4.911-17.395,6.95c-0.03,0.01-0.059,0.01-0.079,0.02c-0.069,0.01-0.099,0.02-0.099,0.02l0.01,0.02
			c-19.375,6.633-40.215,10.237-61.907,10.237s-42.512-3.604-61.887-10.237l-0.01-0.02c0,0-0.03-0.01-0.099-0.02
			c-0.02-0.01-0.049-0.01-0.079-0.02c-5.94-2.039-11.742-4.366-17.395-6.95c-0.02-0.01-0.03-0.02-0.049-0.03
			c-18.296-10.118-44.275-33.76-44.275-86.351c0-81.183,73.966-76.56,81.223-101.717c7.257-25.157,15.177-32.929,42.572-32.929
			s35.315,7.772,42.572,32.929C305.829,239.873,379.795,235.249,379.795,316.433z"/>
		<path style="fill:#E6C9AC;" d="M256.161,420.059c1.233-0.001,2.462-0.014,3.689-0.039c1.056-0.021,2.108-0.055,3.16-0.094
			c0.189-0.007,0.38-0.011,0.569-0.018c2.487-0.099,4.961-0.245,7.423-0.435c-16.307-1.263-32.024-4.561-46.889-9.65l-0.01-0.02
			c0,0-0.03-0.01-0.099-0.02c-0.02-0.01-0.049-0.01-0.079-0.02c-5.94-2.04-11.742-4.366-17.395-6.95
			c-0.02-0.01-0.03-0.02-0.049-0.03c-28.338-13.009-52.785-32.762-71.185-57.135c7.411,32.618,26.698,49.123,41.183,57.134
			c0.001,0,0.002,0,0.002,0.001c0.02,0.01,0.03,0.02,0.049,0.03c5.653,2.584,11.455,4.911,17.395,6.95
			c0.03,0.01,0.059,0.01,0.079,0.02c0.035,0.005,0.059,0.01,0.076,0.014c0.016,0.003,0.023,0.006,0.023,0.006l0.004,0.008
			l0.006,0.012c10.898,3.731,22.254,6.504,33.965,8.216c3.904,0.57,7.847,1.023,11.826,1.354c5.305,0.441,10.674,0.667,16.096,0.667
			C256.054,420.06,256.107,420.059,256.161,420.059z"/>
	</g>
	<g>
		<path d="M171.158,189.646v13.998c0,4.142,3.358,7.5,7.5,7.5s7.5-3.358,7.5-7.5v-13.998c0-4.142-3.358-7.5-7.5-7.5
			S171.158,185.504,171.158,189.646z"/>
		<path d="M325.842,189.646v13.998c0,4.142,3.358,7.5,7.5,7.5s7.5-3.358,7.5-7.5v-13.998c0-4.142-3.358-7.5-7.5-7.5
			S325.842,185.504,325.842,189.646z"/>
		<path d="M234.694,242.421c5.363,4.817,13.129,7.58,21.306,7.58c8.177,0,15.942-2.763,21.306-7.58
			c3.082-2.768,3.336-7.51,0.568-10.591c-2.769-3.082-7.51-3.336-10.592-0.568C264.675,233.603,260.458,235,256,235
			c-4.458,0-8.676-1.398-11.283-3.739c-3.082-2.768-7.824-2.513-10.591,0.568C231.358,234.911,231.612,239.653,234.694,242.421z"/>
		<path d="M239.351,218.121c5.061,2.18,10.702,3.397,16.649,3.397c5.947,0,11.588-1.217,16.648-3.397
			c5.312-2.288,3.693-10.21-2.091-10.21h-29.116C235.658,207.91,234.039,215.832,239.351,218.121z"/>
		<path d="M92.588,340.69c10.633,16.03,23.595,30.285,38.385,42.414c-59.768,25.215-59.671,54.888-59.469,110.806
			c0.012,3.414,0.025,6.942,0.025,10.59c0,4.142,3.358,7.5,7.5,7.5h353.939c4.142,0,7.5-3.358,7.5-7.5
			c0-3.649,0.013-7.178,0.025-10.592c0.202-55.917,0.299-85.588-59.468-110.804c14.791-12.129,27.752-26.384,38.385-42.414
			c20.415-30.778,31.206-66.52,31.206-103.361c0-4.548-2.485-8.853-7.567-8.818c-4.974,0.034-7.433,4.354-7.433,8.818
			c0,33.883-9.926,66.758-28.707,95.07c-8.21,12.377-17.916,23.623-28.868,33.522c0.455-1.062,0.888-2.14,1.31-3.227
			c6.623-17.078,8.808-35.966,7.707-54.188c-3.09-51.087-36.044-68.506-58.927-80.02c-7.247-3.646-19.812-7.033-22.355-15.849
			c-8.478-29.39-20.108-38.35-49.778-38.35c-25.961,0-38.11,6.86-46.421,28.264c-1.283,3.304-2.374,6.682-3.356,10.086
			c-1.558,5.398-10.637,9.96-21.15,15.243c-24.039,12.079-60.367,30.333-60.367,88.553c0,0.064,0.003,0.127,0.003,0.192
			c0,16.768,2.613,33.813,9.249,49.292c-10.951-9.899-20.658-21.142-28.868-33.519c-18.78-28.312-28.707-61.187-28.707-95.07
			c0-96.623,80.576-175.232,179.617-175.232c57.723,0,114.27,28.214,147.683,75.513c0.019,0.027,0.038,0.053,0.057,0.08
			c14.735,20.778,24.806,44.537,29.244,69.627c0.722,4.079,4.611,6.8,8.692,6.079c4.079-0.722,6.8-4.613,6.079-8.692
			c-3.587-20.277-10.556-39.746-20.467-57.676c12.561-37.524,16.175-69.791,10.688-95.915
			c-4.906-23.355-16.038-36.925-24.513-44.197c-6.589-5.654-15.677-8.103-24.196-6.337c-22.656,4.695-41.919,17.486-55.707,36.992
			c-5.636,7.975-9.276,15.514-11.457,20.85C301.059,50.994,278.699,47.097,256,47.097c-23.198,0-45.457,3.995-66.105,11.306
			c-6.278-15.392-24.595-49.005-67.16-57.825C120.882,0.194,118.982,0,117.088,0c-6.764,0-13.352,2.456-18.55,6.916
			c-8.475,7.271-19.607,20.842-24.513,44.197c-5.489,26.133-1.871,58.412,10.7,95.951c-14.883,26.873-23.342,57.621-23.342,90.265
			C61.382,274.17,72.173,309.912,92.588,340.69z M143,343.97c-2.232-9.041-3.295-18.392-3.295-27.537
			c0-48.97,28.888-63.486,52.101-75.149c10.99-5.522,25.089-11.504,28.827-24.489c6.34-21.977,11.164-27.507,35.366-27.507
			c0.016,0,0.031,0,0.047,0c11.624,0.003,18.766,1.294,23.759,5.071c4.923,3.916,8.179,10.721,11.559,22.436
			c5,17.333,28.249,23.587,42.165,31.507c0.029,0.017,0.059,0.033,0.088,0.05c23.212,13.301,37.581,36.882,38.592,63.588
			c1.354,35.756-13.151,73.629-48.255,87.639c-0.049,0.02-0.099,0.04-0.151,0.062c-21.494,8.558-44.674,12.919-67.805,12.919
			c-26.205,0-52.185-5.578-76.047-16.429c-0.072-0.04-0.145-0.083-0.216-0.123C160.054,384.931,148.27,365.317,143,343.97z
			 M287.595,497l-8.768-45.192c4.63-5.154,6.674-12.234,5.315-19.224l-0.836-6.887c0.365-0.05,0.731-0.097,1.096-0.149
			c9.906-1.419,19.7-3.594,29.278-6.492c1.824-0.552,3.643-1.123,5.449-1.729V497H287.595z M245.623,442.933
			c-2.448-1.703-3.632-4.688-3.017-7.605c0.044-0.213,1.018-8.146,1.018-8.146c0.046,0.003,0.093,0.005,0.138,0.008
			c2.713,0.163,5.433,0.275,8.151,0.329c2.725,0.055,5.453,0.059,8.177,0c2.717-0.055,5.439-0.156,8.151-0.329
			c0.045-0.003,0.09-0.004,0.135-0.007c0,0,0.973,7.933,1.018,8.146c0.615,2.917-0.569,5.903-3.016,7.605
			c0,0-8.641,6.011-8.641,6.011c-1.036,0.72-2.44,0.718-3.474,0L245.623,442.933z M86.504,493.855
			c-0.102-28.183-0.175-48.545,7.304-63.647c7.305-14.75,22.708-25.771,51.237-36.579c8.842,6.001,18.205,11.31,28.024,15.836
			c0.582,0.311,4.801,1.785,4.801,2.143V497h-34.826v-36.392c0-4.143-3.358-7.5-7.5-7.5s-7.5,3.357-7.5,7.5V497H86.516
			C86.512,495.941,86.508,494.893,86.504,493.855z M192.871,417.321c1.757,0.589,3.525,1.142,5.298,1.683
			c9.978,3.038,20.193,5.27,30.526,6.692l-0.837,6.888c-1.359,6.99,0.685,14.069,5.314,19.224L224.404,497h-31.533V417.321z
			 M239.684,497l6.831-35.206c2.826,1.749,6.164,2.694,9.485,2.694c3.32,0,6.661-0.947,9.486-2.694L272.316,497H239.684z
			 M418.19,430.208c7.479,15.102,7.406,35.464,7.304,63.646c-0.004,1.038-0.008,2.087-0.011,3.146h-41.529v-36.392
			c0-4.143-3.358-7.5-7.5-7.5s-7.5,3.357-7.5,7.5V497h-34.825v-85.393c1.494-0.64,2.981-1.297,4.459-1.973
			c0.065-0.03,0.131-0.061,0.195-0.093c0.005-0.002,0.009-0.005,0.014-0.008c0.009-0.004,0.018-0.008,0.027-0.013
			c0.031-0.015,0.063-0.034,0.094-0.05c9.824-4.528,19.191-9.838,28.037-15.842C395.483,404.437,410.885,415.457,418.19,430.208z
			 M364.124,79.15c3.763-10.477,11.582-26.449,25.718-33.099c4.886,8.106,10.369,25.027,4.098,57.094
			c-0.325-0.319-12.194-11.189-18.224-15.793C371.954,84.479,368.09,81.734,364.124,79.15z M336.03,63.893
			c5.16-12.729,20.485-41.21,56.279-48.626c3.96-0.821,8.225,0.321,11.385,3.033c6.711,5.759,15.56,16.661,19.601,35.897
			c4.358,20.746,2.187,46.274-6.446,76.04c-0.193-0.276-8.443-11.22-10.53-13.703c12.582-50.929,0.405-74.717-8.146-84.442
			c-1.917-2.181-4.921-3.059-7.711-2.254c-22.047,6.36-33.776,27.129-39.412,41.499C349.634,70.561,335.994,63.98,336.03,63.893z
			 M118.06,103.146c-6.251-31.968-0.821-48.885,4.053-57.02c7.002,3.474,18.368,12.11,25.777,33.015
			C137.148,86.166,127.166,94.2,118.06,103.146z M88.705,54.196c4.041-19.236,12.889-30.138,19.6-35.896
			c2.48-2.128,5.6-3.3,8.783-3.3c0.875,0,1.75,0.089,2.604,0.267c35.793,7.417,51.118,35.896,56.278,48.626
			c-5.125,2.265-10.125,4.77-15.015,7.455c-5.633-14.37-17.361-35.149-39.417-41.511c-2.789-0.805-5.793,0.073-7.71,2.253
			c-8.553,9.727-20.734,33.522-8.138,84.478c-3.708,4.399-7.24,8.949-10.54,13.669C86.518,100.471,84.347,74.942,88.705,54.196z"/>
	</g>
</g>
<g>
</g>
<g>
</g>
<g>
</g>
<g>
</g>
<g>
</g>
<g>
</g>
<g>
</g>
<g>
</g>
<g>
</g>
<g>
</g>
<g>
</g>
<g>
</g>
<g>
</g>
<g>
</g>
<g>
</g>
</svg>
