<svg height="512pt" viewBox="0 0 512 512" width="512pt" xmlns="http://www.w3.org/2000/svg"><path d="m512 256c0 141.386719-114.613281 256-256 256s-256-114.613281-256-256 114.613281-256 256-256 256 114.613281 256 256zm0 0" fill="#fc9c3a"/><path d="m510.324219 285.253906-174.75-174.75-220.917969 293.351563 105.65625 105.65625c11.664062 1.628906 23.574219 2.488281 35.6875 2.488281 131.492188 0 239.808594-99.140625 254.324219-226.746094zm0 0" fill="#c67934"/><path d="m405.320312 243.253906c12.90625 12.292969 20.949219 29.640625 20.949219 48.875s-8.042969 36.582032-20.949219 48.875c4.703126 7.707032 7.417969 16.753906 7.417969 26.433594 0 28.0625-22.75 50.8125-50.808593 50.8125h-105.929688l-37.085938-170.625 37.085938-170.625c33.199219 0 63.003906 14.546875 83.394531 37.605469l60.609375 68.578125c7.921875 8.957031 12.734375 20.730468 12.734375 33.636718 0 9.679688-2.714843 18.730469-7.417969 26.433594zm0 0" fill="#691e17"/><path d="m256 418.25h-105.929688c-28.058593 0-50.808593-22.75-50.808593-50.8125 0-9.679688 2.714843-18.726562 7.417969-26.433594-12.90625-12.292968-20.949219-29.640625-20.949219-48.875s8.042969-36.582031 20.949219-48.875c-4.703126-7.707031-7.417969-16.753906-7.417969-26.433594 0-12.90625 4.8125-24.679687 12.734375-33.640624l60.609375-68.574219c20.390625-23.058594 50.195312-37.605469 83.394531-37.605469zm0 0" fill="#8f1711"/><path d="m367.261719 216.269531v80.84375c0 42.324219-49.816407 76.628907-111.261719 76.628907l-29.671875-101.640626 29.671875-117.304687c9.117188 20.425781 29.960938 39.585937 50.394531 45.082031zm0 0" fill="#f7af99"/><path d="m256 154.796875v218.945313c-61.445312 0-111.261719-34.304688-111.261719-76.628907v-80.84375l60.867188-16.390625c20.433593-5.496094 41.277343-24.65625 50.394531-45.082031zm0 0" fill="#ffbeab"/><path d="m230.039062 269.902344h-22.253906v-11.128906h-25.960937v-22.25h48.214843zm0 0" fill="#691e17"/><path d="m304.214844 269.902344h-22.253906v-33.378906h48.214843v22.25h-25.960937zm0 0" fill="#331d17"/><path d="m244.875 292.152344h-22.253906c0 18.40625 14.976562 33.378906 33.378906 33.378906l7.417969-11.125-7.417969-11.125c-6.136719 0-11.125-4.992188-11.125-11.128906zm0 0" fill="#f00"/><path d="m267.125 292.152344c0 6.136718-4.988281 11.128906-11.125 11.128906v22.25c18.40625 0 33.378906-14.972656 33.378906-33.378906zm0 0" fill="#da0806"/></svg>