<svg height="512pt" viewBox="0 0 512 512" width="512pt" xmlns="http://www.w3.org/2000/svg"><path d="m512 256c0 141.386719-114.613281 256-256 256s-256-114.613281-256-256 114.613281-256 256-256 256 114.613281 256 256zm0 0" fill="#fd413c"/><path d="m274.011719 511.359375c130.015625-9.039063 233.273437-115.148437 237.8125-246.351563l-165.652344-165.65625-224.839844 228.554688 65.875 65.886719-5.554687 25.207031zm0 0" fill="#b40f0c"/><path d="m144.476562 270.304688c-18.476562 0-33.457031 14.976562-33.457031 33.457031 0 18.476562 14.980469 33.457031 33.457031 33.457031 1.339844 0 26.257813-.230469 26.257813-.230469v-66.683593zm0 0" fill="#fc9c3a"/><path d="m367.523438 270.304688h-26.257813v66.679687s24.917969.234375 26.257813.234375c18.476562 0 33.457031-14.980469 33.457031-33.457031-.003907-18.480469-14.980469-33.457031-33.457031-33.457031zm0 0" fill="#fc8914"/><path d="m367.523438 151.347656v96.511719h-141.261719l29.738281-170.859375h37.175781c40.890625 0 74.347657 33.457031 74.347657 74.347656zm0 0"/><path d="m256 77v170.859375h-111.523438v-96.511719c0-40.890625 33.457032-74.347656 74.347657-74.347656zm0 0" fill="#5c3419"/><path d="m367.523438 247.859375v89.359375l-37.175782 81.78125h-74.347656l-29.738281-115.214844 29.738281-115.210937h18.601562c20.445313 0 37.203126-16.78125 37.203126-37.226563 33.292968 19.292969 55.71875 55.261719 55.71875 96.511719zm0 0" fill="#fc9c3a"/><path d="m256 188.574219v230.425781h-74.347656l-37.175782-81.78125v-89.359375c0-41.25 22.425782-77.21875 55.71875-96.511719 0 20.445313 16.757813 37.226563 37.203126 37.226563zm0 0" fill="#fcaf60"/><path d="m229.976562 307.476562h-22.300781v-11.152343h-26.023437v-22.300781h48.324218zm0 0" fill="#5c3419"/><path d="m304.324219 307.476562h-22.300781v-33.453124h48.324218v22.300781h-26.023437zm0 0"/><path d="m181.652344 229.414062h55.761718v22.304688h-55.761718zm0 0" fill="#854820"/><path d="m274.585938 229.414062h55.761718v22.304688h-55.761718zm0 0" fill="#5c3419"/><path d="m282.023438 337.21875v22.304688h-26.023438l-7.433594-11.152344 7.433594-11.152344zm0 0" fill="#854820"/><path d="m229.976562 337.21875h26.023438v22.300781h-26.023438zm0 0" fill="#a26745"/></svg>