<svg height="512pt" viewBox="0 0 512 512" width="512pt" xmlns="http://www.w3.org/2000/svg"><path d="m512 256c0 141.386719-114.613281 256-256 256s-256-114.613281-256-256 114.613281-256 256-256 256 114.613281 256 256zm0 0" fill="#fd413c"/><path d="m266.617188 511.765625c124.195312-5.070313 225.5625-98.605469 242.785156-219.285156l-202.738282-202.734375-201.34375 226.304687 70.644532 70.652344-3.121094 31.289063zm0 0" fill="#b40f0c"/><path d="m131.265625 251.683594c-20.664063 0-37.417969 16.753906-37.417969 37.417968 0 20.667969 16.753906 37.421876 37.417969 37.421876 1.496094 0 29.367187-.257813 29.367187-.257813v-74.582031zm0 0" fill="#d97a5f"/><path d="m380.734375 251.683594h-29.367187v74.582031s27.871093.257813 29.367187.257813c20.664063 0 37.417969-16.753907 37.417969-37.421876 0-20.664062-16.753906-37.417968-37.417969-37.417968zm0 0" fill="#cf6e53"/><path d="m318.414062 118.636719h-62.414062l-33.261719 195.441406 91.472657 103.914063h24.945312l41.578125-91.46875v-99.945313c0-46.132813-25.082031-86.363281-62.320313-107.941406zm0 0" fill="#d97a5f"/><path d="m193.585938 118.636719c-37.238282 21.578125-62.316407 61.808593-62.316407 107.941406v99.945313l41.578125 91.46875h24.945313l58.207031-41.578126v-257.777343zm0 0" fill="#db8870"/><path d="m314.210938 359.414062v58.578126h-58.210938l-24.945312-43.734376 24.945312-56.421874h16.632812c22.867188 0 41.578126 18.710937 41.578126 41.578124zm0 0" fill="#44261d"/><path d="m256 317.835938v100.15625h-58.210938v-58.578126c0-22.867187 18.710938-41.578124 41.578126-41.578124zm0 0" fill="#794334"/><path d="m339.15625 280.996094h-54.050781v-37.417969h24.945312v12.472656h29.105469zm0 0"/><path d="m226.894531 280.996094h-54.050781v-24.945313h29.105469v-12.472656h24.945312zm0 0" fill="#44261d"/><path d="m172.84375 193.683594h70.683594v24.949218h-70.683594zm0 0" fill="#794334"/><path d="m268.472656 193.683594h70.683594v24.949218h-70.683594zm0 0" fill="#44261d"/><path d="m276.789062 355.257812v24.945313h-20.789062l-5.941406-12.472656 5.941406-12.472657zm0 0" fill="#d97a5f"/><path d="m235.210938 355.257812h20.789062v24.945313h-20.789062zm0 0" fill="#db8870"/><path d="m276.804688 77c22.867187 0 41.609374 18.769531 41.609374 41.636719 0 22.867187-18.742187 41.625-41.609374 41.625h-20.804688l-33.261719-41.625 33.261719-41.636719zm0 0" fill="#44261d"/><path d="m256 77v83.261719h-20.804688c-22.867187 0-41.609374-18.757813-41.609374-41.625 0-22.867188 18.742187-41.636719 41.609374-41.636719zm0 0" fill="#794334"/></svg>