<svg height="512pt" viewBox="0 0 512 512" width="512pt" xmlns="http://www.w3.org/2000/svg"><path d="m512 256c0 141.386719-114.613281 256-256 256s-256-114.613281-256-256 114.613281-256 256-256 256 114.613281 256 256zm0 0" fill="#fd413c"/><path d="m268.894531 511.675781c129.867188-6.441406 234.242188-109.65625 242.550781-239.023437l-209.625-209.625-190.367187 258.183594 64.769531 64.785156-.003906 33.003906zm0 0" fill="#b40f0c"/><path d="m375.675781 259.433594h-28.175781v71.558594s26.738281.246093 28.175781.246093c19.828125 0 35.898438-16.074219 35.898438-35.898437 0-19.832032-16.070313-35.90625-35.898438-35.90625zm0 0" fill="#f7af99"/><path d="m136.324219 259.433594c-19.828125 0-35.898438 16.074218-35.898438 35.902344 0 19.828124 16.070313 35.902343 35.898438 35.902343 1.4375 0 28.175781-.246093 28.175781-.246093v-71.558594zm0 0" fill="#ffbeab"/><path d="m375.675781 379.109375c-19.796875 0-35.902343-16.105469-35.902343-35.902344s16.105468-35.902343 35.902343-35.902343 35.898438 16.105468 35.898438 35.902343-16.101563 35.902344-35.898438 35.902344zm0-47.871094c-6.601562 0-11.96875 5.371094-11.96875 11.96875 0 6.597657 5.367188 11.964844 11.96875 11.964844 6.597657 0 11.964844-5.367187 11.964844-11.964844 0-6.597656-5.367187-11.96875-11.964844-11.96875zm0 0" fill="#44261d"/><path d="m375.675781 243.476562v87.761719l-39.894531 87.761719h-79.78125l-39.890625-140.546875 39.890625-140.542969h56.414062c37.648438 20.160156 63.261719 59.875 63.261719 105.566406zm0 0" fill="#ffbeab"/><path d="m256 137.910156v281.089844h-79.78125l-39.894531-87.761719v-87.761719c0-45.691406 25.613281-85.40625 63.261719-105.566406zm0 0" fill="#fdcdbf"/><path d="m335.78125 271.402344h-51.855469v-35.902344h23.933594v11.96875h27.921875zm0 0" fill="#44261d"/><path d="m228.074219 271.402344h-51.855469v-23.933594h27.921875v-11.96875h23.933594zm0 0" fill="#794334"/><path d="m283.925781 311.292969v23.933593h-27.925781l-7.976562-11.964843 7.976562-11.96875zm0 0" fill="#f88a6b"/><path d="m228.074219 311.292969h27.925781v23.933593h-27.925781zm0 0" fill="#f7af99"/><path d="m275.945312 52c-7.382812 0-14.238281 2.238281-19.945312 6.058594l-23.933594 68.375 23.933594 68.378906s55.847656-25.003906 55.847656-55.847656v-51.0625c0-19.828125-16.074218-35.902344-35.902344-35.902344zm0 0" fill="#f00"/><path d="m236.054688 52c-19.828126 0-35.902344 16.074219-35.902344 35.902344v51.0625c0 30.84375 55.847656 55.847656 55.847656 55.847656v-136.753906c-5.707031-3.820313-12.5625-6.058594-19.945312-6.058594zm0 0" fill="#f88a6b"/></svg>