<svg height="512pt" viewBox="0 0 512 512" width="512pt" xmlns="http://www.w3.org/2000/svg"><path d="m512 256c0 141.386719-114.613281 256-256 256s-256-114.613281-256-256 114.613281-256 256-256 256 114.613281 256 256zm0 0" fill="#fd413c"/><path d="m511.152344 276.824219-160.074219-160.078125-228.902344 302.253906 89.097657 89.097656c14.523437 2.558594 29.46875 3.902344 44.726562 3.902344 134.375 0 244.554688-103.53125 255.152344-235.175781zm0 0" fill="#b40f0c"/><path d="m389.824219 325.039062v93.960938h-133.824219l-44.609375-171 44.609375-171c73.789062 0 133.824219 60.035156 133.824219 133.824219zm0 0" fill="#8f5240"/><path d="m256 77v342h-133.824219v-208.175781c0-73.789063 60.035157-133.824219 133.824219-133.824219zm0 0" fill="#b27361"/><path d="m367.523438 210.824219h-30.722657v81.785156h30.722657c18.476562 0 33.457031-14.980469 33.457031-33.457031v-14.871094c-.003907-18.476562-14.980469-33.457031-33.457031-33.457031zm0 0" fill="#db8870"/><path d="m144.476562 210.824219c-18.476562 0-33.457031 14.980469-33.457031 33.457031v14.871094c0 18.480468 14.980469 33.457031 33.457031 33.457031h23.289063v-81.78125h-23.289063zm0 0" fill="#ed9980"/><path d="m367.523438 210.824219v114.214843c0 12.265626-8.222657 28.058594-18.277344 35.09375l-52.226563 36.5625h-41.019531l-37.175781-126.355468 37.175781-102.636719s48.117188-15.746094 74.398438-39.945313c22.789062 20.414063 37.125 50.066407 37.125 83.066407zm0 0" fill="#ed9980"/><path d="m330.398438 127.757812c-26.28125 24.199219-74.398438 39.945313-74.398438 39.945313l-22.304688-34.199219 22.304688-34.199218c28.585938 0 54.667969 10.757812 74.398438 28.453124zm0 0" fill="#8f5240"/><path d="m256 167.703125v228.992187h-41.019531l-52.226563-36.5625c-10.054687-7.035156-18.277344-22.828124-18.277344-35.09375v-114.214843c0-32.996094 14.335938-62.644531 37.117188-83.058594 26.273438 24.191406 74.40625 39.9375 74.40625 39.9375zm0 0" fill="#f7af99"/><path d="m256 99.304688v68.398437s-48.132812-15.746094-74.40625-39.9375c19.730469-17.695313 45.8125-28.460937 74.40625-28.460937zm0 0" fill="#b27361"/><path d="m244.847656 300.042969h-22.304687c0 18.449219 15.011719 33.457031 33.457031 33.457031l7.4375-11.152344-7.4375-11.152344c-6.148438 0-11.152344-5.003906-11.152344-11.152343zm0 0" fill="#d97a5f"/><path d="m267.152344 300.042969c0 6.148437-5.003906 11.152343-11.152344 11.152343v22.304688c18.449219 0 33.457031-15.007812 33.457031-33.457031zm0 0" fill="#cf6e53"/><path d="m229.976562 277.738281h-22.300781v-11.152343h-26.023437v-22.304688h48.324218zm0 0" fill="#331d17"/><path d="m304.324219 277.738281h-22.300781v-33.457031h48.324218v22.304688h-26.023437zm0 0"/><path d="m274.585938 199.675781h55.761718v22.300781h-55.761718zm0 0" fill="#8f5240"/><path d="m181.652344 199.675781h55.761718v22.300781h-55.761718zm0 0" fill="#b27361"/></svg>