<svg height="512pt" viewBox="0 0 512 512" width="512pt" xmlns="http://www.w3.org/2000/svg"><path d="m512 256c0 141.386719-114.613281 256-256 256s-256-114.613281-256-256 114.613281-256 256-256 256 114.613281 256 256zm0 0" fill="#fc9c3a"/><path d="m298.785156 508.421875c112.21875-18.886719 199.648438-110.765625 211.765625-225.140625l-171.769531-171.769531-223.59375 173.367187 24.222656 24.230469 15.386719 50.25 54.8125 54.828125-.246094 4.8125zm0 0" fill="#c67934"/><path d="m372.589844 209.136719h-32.117188v85.5h32.117188c19.316406 0 34.976562-15.660157 34.976562-34.976563v-15.546875c0-19.316406-15.660156-34.976562-34.976562-34.976562zm0 0" fill="#ed9980"/><path d="m139.410156 209.136719c-19.316406 0-34.976562 15.660156-34.976562 34.976562v15.542969c0 19.320312 15.660156 34.980469 34.976562 34.980469h24.34375v-85.5zm0 0" fill="#f7af99"/><path d="m372.589844 193.589844v132.136718c0 12.828126-8.597656 29.335938-19.105469 36.6875l-54.601563 38.226563h-42.882812l-38.863281-144.832031 38.863281-107.300782s50.304688-16.460937 77.78125-41.761718c23.824219 21.34375 38.808594 52.34375 38.808594 86.84375zm0 0" fill="#f7af99"/><path d="m333.78125 106.746094c-27.476562 25.300781-77.78125 41.761718-77.78125 41.761718l-23.316406-35.753906 23.316406-35.753906c29.886719 0 57.152344 11.246094 77.78125 29.746094zm0 0" fill="#691e17"/><path d="m256 148.507812v252.132813h-42.882812l-54.601563-38.226563c-10.507813-7.351562-19.105469-23.859374-19.105469-36.683593v-132.140625c0-34.492188 14.984375-65.492188 38.800782-86.835938 27.46875 25.292969 77.789062 41.753906 77.789062 41.753906zm0 0" fill="#ffbeab"/><path d="m256 77v71.507812s-50.320312-16.460937-77.789062-41.753906c20.628906-18.5 47.894531-29.753906 77.789062-29.753906zm0 0" fill="#8f1711"/><path d="m244.339844 302.410156h-23.316406c0 19.285156 15.691406 34.976563 34.976562 34.976563l7.773438-11.660157-7.773438-11.660156c-6.429688 0-11.660156-5.226562-11.660156-11.65625zm0 0" fill="#ed9980"/><path d="m267.660156 302.410156c0 6.429688-5.230468 11.65625-11.660156 11.65625v23.320313c19.285156 0 34.976562-15.691407 34.976562-34.976563zm0 0" fill="#db8870"/><path d="m228.796875 271.316406h-23.320313v-11.65625h-27.203124v-23.320312h50.523437zm0 0" fill="#691e17"/><path d="m306.523438 271.316406h-23.320313v-34.976562h50.523437v23.320312h-27.203124zm0 0" fill="#331d17"/><path d="m275.433594 189.703125h58.292968v23.320313h-58.292968zm0 0" fill="#691e17"/><path d="m178.273438 189.703125h58.292968v23.320313h-58.292968zm0 0" fill="#8f1711"/><path d="m302.636719 419h-46.636719l-15.546875-18.359375 15.546875-28.277344c25.757812 0 46.636719 20.878907 46.636719 46.636719zm0 0" fill="#691e17"/><path d="m256 372.363281v46.636719h-46.636719c0-25.757812 20.878907-46.636719 46.636719-46.636719zm0 0" fill="#8f1711"/></svg>