<svg height="512pt" viewBox="0 0 512 512" width="512pt" xmlns="http://www.w3.org/2000/svg"><path d="m512 256c0 141.386719-114.613281 256-256 256s-256-114.613281-256-256 114.613281-256 256-256 256 114.613281 256 256zm0 0" fill="#e7b0a0"/><path d="m510.785156 280.945312-156.261718-156.261718-22.785157-10.917969-9.082031-9.074219-202.09375 219.972656-16.167969 76.753907 106.640625 106.640625c14.601563 2.585937 29.625 3.941406 44.964844 3.941406 132.96875 0 242.246094-101.378906 254.785156-231.054688zm0 0" fill="#c48776"/><path d="m364.695312 258.914062h-29.941406v79.707032h29.941406c18.007813 0 32.609376-14.597656 32.609376-32.605469v-14.496094c0-18.007812-14.601563-32.605469-32.609376-32.605469zm0 0" fill="#a34124"/><path d="m147.304688 258.914062c-18.007813 0-32.609376 14.597657-32.609376 32.609376v14.492187c0 18.007813 14.597657 32.609375 32.609376 32.609375h22.695312v-79.710938zm0 0" fill="#bf4e2e"/><path d="m90.285156 368.152344c0 25.574218 20.804688 46.378906 46.375 46.378906 25.574219 0 46.378906-20.804688 46.378906-46.378906 0-25.570313-20.804687-46.375-46.378906-46.375-25.570312 0-46.375 20.804687-46.375 46.375zm21.738282 0c0-13.585938 11.054687-24.636719 24.640624-24.636719 13.585938 0 24.636719 11.050781 24.636719 24.636719 0 13.585937-11.050781 24.636718-24.636719 24.636718-13.585937 0-24.640624-11.050781-24.640624-24.636718zm0 0" fill="#fcaf60"/><path d="m375.339844 321.777344c-25.574219 0-46.378906 20.804687-46.378906 46.375 0 25.574218 20.804687 46.378906 46.378906 46.378906 25.570312 0 46.375-20.804688 46.375-46.378906 0-25.570313-20.804688-46.375-46.375-46.375zm-.003906 71.011718c-13.585938 0-24.636719-11.050781-24.636719-24.636718 0-13.585938 11.050781-24.636719 24.636719-24.636719 13.585937 0 24.640624 11.050781 24.640624 24.636719 0 13.585937-11.054687 24.636718-24.640624 24.636718zm0 0" fill="#fc9c3a"/><path d="m364.695312 149.839844c-.007812 10.640625 0 109.074218 0 109.074218h-144.925781l36.230469-173.914062c10.433594 0 19.824219 4.414062 26.441406 11.472656 9.253906-3.921875 20.085938-4 29.855469.707032 7.523437 3.617187 13.21875 9.5 16.675781 16.429687 10.46875.152344 20.78125 4.820313 27.816406 13.636719 5.328126 6.683594 7.914063 14.667968 7.90625 22.59375zm0 0"/><path d="m256 85v173.914062h-108.695312s.007812-98.4375 0-109.074218c-.007813-7.925782 2.578124-15.910156 7.90625-22.59375 7.035156-8.816406 17.347656-13.484375 27.816406-13.636719 3.457031-6.929687 9.152344-12.8125 16.675781-16.429687 9.769531-4.707032 20.601563-4.628907 29.855469-.707032 6.617187-7.058594 16.007812-11.472656 26.441406-11.472656zm0 0" fill="#691e17"/><path d="m364.695312 258.914062v57.96875c0 76.457032-108.695312 101.449219-108.695312 101.449219l-36.230469-105.6875 36.230469-105.6875c10.433594 0 19.824219-4.414062 26.441406-11.472656 9.253906 3.921875 20.085938 4 29.855469-.707031 7.523437-3.617188 13.210937-9.5 16.675781-16.429688 21.941406 19.890625 35.722656 48.617188 35.722656 80.566406zm0 0" fill="#bf4e2e"/><path d="m256 206.957031v211.378907s-108.695312-24.996094-108.695312-101.449219v-57.972657c0-31.949218 13.78125-60.675781 35.722656-80.566406 3.464844 6.9375 9.152344 12.8125 16.675781 16.429688 9.769531 4.710937 20.601563 4.628906 29.855469.710937 6.617187 7.054688 16.007812 11.46875 26.441406 11.46875zm0 0" fill="#cf6446"/><path d="m230.636719 295.144531h-21.738281v-10.871093h-25.363282v-21.738282h47.101563zm0 0" fill="#691e17"/><path d="m303.101562 295.144531h-21.738281v-32.609375h47.101563v21.738282h-25.363282zm0 0"/><path d="m245.128906 316.882812h-21.738281c0 17.980469 14.628906 32.609376 32.609375 32.609376l7.246094-10.871094-7.246094-10.867188c-5.992188 0-10.871094-4.875-10.871094-10.871094zm0 0" fill="#a34124"/><path d="m266.871094 316.882812c0 5.996094-4.878906 10.871094-10.871094 10.871094v21.738282c17.980469 0 32.609375-14.628907 32.609375-32.609376zm0 0" fill="#691e17"/></svg>