<svg height="512pt" viewBox="0 0 512 512" width="512pt" xmlns="http://www.w3.org/2000/svg"><path d="m512 256c0 141.386719-114.613281 256-256 256s-256-114.613281-256-256 114.613281-256 256-256 256 114.613281 256 256zm0 0" fill="#fc9c3a"/><path d="m510.34375 285.105469-159.128906-159.128907-263.121094 254.222657 128.835938 128.835937c12.738281 1.953125 25.785156 2.964844 39.070312 2.964844 131.542969 0 239.890625-99.21875 254.34375-226.894531zm0 0" fill="#c67934"/><path d="m437.542969 252.9375c10.792969 16.457031 16.5 35.597656 16.5 55.351562 0 55.710938-45.324219 101.042969-101.042969 101.042969h-97l-48.5-162.460937 48.5-160.871094c44.378906 0 85.714844 21.976562 110.589844 58.796875l.085937.136719zm0 0"/><path d="m256 86v323.332031h-97c-55.71875 0-101.042969-45.332031-101.042969-101.042969 0-19.753906 5.707031-38.894531 16.5-55.355468l70.953125-108.136719c24.875-36.820313 66.210938-58.796875 110.589844-58.796875zm0 0" fill="#5c3419"/><path d="m231.75 142.726562 24.25 254.480469s15.601562-3.589843 35.605469-12.125c35.777343-15.261719 85.644531-46.347656 85.644531-101.042969v-76.644531zm0 0" fill="#a26745"/><path d="m215.582031 121.160156-80.832031 86.234375v76.644531c0 54.695313 49.867188 85.78125 85.644531 101.042969 20.003907 8.535157 35.605469 12.125 35.605469 12.125v-276.046875zm0 0" fill="#c67934"/><path d="m346.453125 150.222656c-20.363281-30.09375-54.167969-48.058594-90.453125-48.058594v64.8125c0 22.230469 18.1875 40.417969 40.417969 40.417969h80.832031v-2.148437zm0 0"/><path d="m215.582031 109.917969c-20.046875 7.984375-37.5625 21.867187-50.035156 40.304687l-30.796875 55.023438v2.148437h40.417969c22.226562 0 40.417969-18.1875 40.417969-40.417969v-37.730468h.085937c1.390625 20.992187 19.003906 37.730468 40.328125 37.730468v-64.8125c-14.058594 0-27.742188 2.703126-40.417969 7.753907zm0 0" fill="#5c3419"/><path d="m227.707031 267.875h-52.539062v-24.25h28.289062v-12.125h24.25zm0 0" fill="#331d17"/><path d="m336.832031 267.875h-52.539062v-36.375h24.25v12.125h28.289062zm0 0"/><path d="m243.875 292.125h-24.25c0 20.054688 16.316406 36.375 36.375 36.375l8.082031-12.125-8.082031-12.125c-6.6875 0-12.125-5.441406-12.125-12.125zm0 0" fill="#8f1711"/><path d="m268.125 292.125c0 6.683594-5.4375 12.125-12.125 12.125v24.25c20.058594 0 36.375-16.320312 36.375-36.375zm0 0" fill="#691e17"/></svg>