<svg height="512pt" viewBox="0 0 512 512" width="512pt" xmlns="http://www.w3.org/2000/svg"><path d="m512 256c0 141.386719-114.613281 256-256 256s-256-114.613281-256-256 114.613281-256 256-256 256 114.613281 256 256zm0 0" fill="#fc9c3a"/><path d="m509.523438 291.617188-158.515626-158.515626-250.3125 243.109376 134.988282 134.988281c6.703125.527343 13.476562.800781 20.316406.800781 129.296875 0 236.1875-95.859375 253.523438-220.382812zm0 0" fill="#c67934"/><path d="m202.726562 333.246094c0 33.175781-26.894531 60.070312-60.070312 60.070312s-60.066406-26.894531-60.066406-60.070312c0-33.175782 26.890625-60.070313 60.066406-60.070313s60.070312 26.894531 60.070312 60.070313zm0 0" fill="#5b3227"/><path d="m390.148438 228.121094v37.546875h-165.195313l30.035156-172.703125c74.527344 0 135.160157 60.632812 135.160157 135.15625zm0 0"/><path d="m254.988281 92.964844v172.699218h-135.15625v-37.542968c0-74.523438 60.632813-135.15625 135.15625-135.15625zm0 0" fill="#5b3227"/><path d="m142.359375 243.140625c-18.664063 0-33.789063 15.128906-33.789063 33.789063 0 18.660156 15.125 33.789062 33.789063 33.789062 1.347656 0 26.515625-.234375 26.515625-.234375v-67.34375zm0 0" fill="#fcaf60"/><path d="m367.621094 243.140625h-19.007813v67.34375s17.65625.234375 19.007813.234375c18.660156 0 33.789062-15.128906 33.789062-33.789062 0-18.660157-15.128906-33.789063-33.789062-33.789063zm0 0" fill="#fc9c3a"/><path d="m315.058594 175.5625 52.5625 52.558594v75.089844c0 79.222656-112.632813 105.121093-112.632813 105.121093l-30.035156-232.769531zm0 0" fill="#fcaf60"/><path d="m254.570312 211.183594-55.882812-80.628906c-33.675781 19.46875-56.328125 55.871093-56.328125 97.566406v75.089844c0 79.226562 112.628906 105.125 112.628906 105.125v-197.09375zm0 0" fill="#fcc286"/><path d="m254.988281 115.492188v95.75l-.417969-.058594c-20.417968-3.070313-41.222656-21.980469-46.230468-42.011719l-9.652344-38.617187c16.566406-9.582032 35.796875-15.0625 56.300781-15.0625zm0 0" fill="#5b3227"/><path d="m367.621094 228.121094h-.554688l-112.078125-16.878906v-95.75c62.203125 0 112.632813 50.429687 112.632813 112.628906zm0 0"/><path d="m243.726562 306.964844h-22.527343c0 18.632812 15.160156 33.789062 33.789062 33.789062l7.507813-11.261718-7.507813-11.265626c-6.210937 0-11.261719-5.050781-11.261719-11.261718zm0 0" fill="#cf6446"/><path d="m266.253906 306.964844c0 6.210937-5.054687 11.261718-11.265625 11.261718v22.527344c18.632813 0 33.789063-15.15625 33.789063-33.789062zm0 0" fill="#bf4e2e"/><path d="m228.707031 276.929688h-22.523437v-11.265626h-26.28125v-22.523437h48.804687zm0 0" fill="#44261d"/><path d="m303.796875 276.929688h-22.527344v-33.789063h48.808594v22.523437h-26.28125zm0 0"/></svg>