<svg height="512pt" viewBox="0 0 512 512" width="512pt" xmlns="http://www.w3.org/2000/svg"><path d="m512 256c0 141.386719-114.613281 256-256 256s-256-114.613281-256-256 114.613281-256 256-256 256 114.613281 256 256zm0 0" fill="#e7b0a0"/><path d="m509.882812 289.046875-167.15625-167.15625-234.035156 149.761719 20.332032 20.347656 20.125 100.703125 119.003906 119c124.667968-5.824219 226.023437-100.816406 241.730468-222.65625zm0 0" fill="#c48776"/><path d="m134.050781 208.710938c-20.207031 0-36.585937 16.378906-36.585937 36.582031 0 20.207031 16.378906 36.585937 36.585937 36.585937 1.460938 0 28.710938-.25 28.710938-.25v-72.917968zm0 0" fill="#bf4e2e"/><path d="m377.949219 208.710938h-20.578125v72.917968s19.117187.25 20.578125.25c20.207031 0 36.585937-16.378906 36.585937-36.585937 0-20.203125-16.378906-36.582031-36.585937-36.582031zm0 0" fill="#a34124"/><path d="m377.949219 281.878906c7.757812 13.4375 12.195312 29.03125 12.195312 45.65625 0 50.515625-40.949219 91.464844-91.460937 91.464844h-42.683594l-48.78125-169.109375 48.78125-164.222656c67.351562 0 121.949219 54.601562 121.949219 121.949219zm0 0" fill="#bf4e2e"/><path d="m256 85.667969v333.332031h-42.683594c-50.511718 0-91.460937-40.949219-91.460937-91.464844 0-16.625 4.4375-32.21875 12.195312-45.65625v-74.261718c0-67.347657 54.597657-121.949219 121.949219-121.949219zm0 0" fill="#cf6446"/><path d="m227.546875 272.660156h-24.394531v-12.195312h-28.453125v-24.390625h52.847656zm0 0" fill="#691e17"/><path d="m308.847656 272.660156h-24.394531v-36.585937h52.847656v24.390625h-28.453125zm0 0"/><path d="m186.894531 187.292969h56.910157v24.390625h-56.910157zm0 0" fill="#ffe0d6"/><path d="m268.195312 187.292969h56.910157v24.390625h-56.910157zm0 0" fill="#ffbeab"/><path d="m243.804688 297.050781h-24.390626c0 20.171875 16.414063 36.582031 36.585938 36.582031l8.128906-12.195312-8.128906-12.195312c-6.722656 0-12.195312-5.46875-12.195312-12.191407zm0 0" fill="#a34124"/><path d="m268.195312 297.050781c0 6.722657-5.472656 12.191407-12.195312 12.191407v24.390624c20.171875 0 36.585938-16.410156 36.585938-36.582031zm0 0" fill="#691e17"/><path d="m243.804688 358.023438h24.390624v24.390624h-24.390624zm0 0" fill="#ffe0d6"/></svg>