<svg height="512pt" viewBox="0 0 512 512" width="512pt" xmlns="http://www.w3.org/2000/svg"><path d="m512 256c0 141.386719-114.613281 256-256 256s-256-114.613281-256-256 114.613281-256 256-256 256 114.613281 256 256zm0 0" fill="#fd413c"/><path d="m509.882812 289.054688-167.511718-167.511719-241.789063 182.652343 21.308594 21.320313 27.257813 67.1875 119 119c124.671874-5.824219 226.027343-100.816406 241.734374-222.648437zm0 0" fill="#b40f0c"/><path d="m125.917969 199.488281c-20.203125 0-36.582031 16.378907-36.582031 36.585938v41.738281c0 19.160156 14.726562 34.878906 33.476562 36.457031h43.757812v-114.78125zm0 0" fill="#fdcdbf"/><path d="m386.082031 199.488281c20.203125 0 36.582031 16.378907 36.582031 36.585938v41.738281c0 19.160156-14.726562 34.878906-33.476562 36.457031h-43.757812v-114.78125zm0 0" fill="#e7b0a0"/><path d="m377.949219 281.878906c7.757812 13.4375 12.195312 29.03125 12.195312 45.65625 0 50.515625-40.949219 91.464844-91.460937 91.464844h-42.683594l-48.78125-169.109375 48.78125-164.222656c67.351562 0 121.949219 54.601562 121.949219 121.949219zm0 0" fill="#5b3227"/><path d="m256 85.667969v333.332031h-42.683594c-50.511718 0-91.460937-40.949219-91.460937-91.464844 0-16.625 4.4375-32.21875 12.195312-45.65625v-74.261718c0-67.347657 54.597657-121.949219 121.949219-121.949219zm0 0" fill="#794334"/><path d="m300.714844 138.511719v24.390625h-44.714844l-12.777344-12.195313 12.777344-12.195312zm0 0" fill="#331d17"/><path d="m211.285156 138.511719h44.714844v24.390625h-44.714844zm0 0" fill="#44261d"/><path d="m325.105469 187.292969v24.390625h-69.105469l-19.742188-12.195313 19.742188-12.195312zm0 0" fill="#331d17"/><path d="m186.894531 187.292969h69.105469v24.390625h-69.105469zm0 0" fill="#44261d"/><path d="m243.804688 333.632812h-24.390626c0 20.175782 16.414063 36.585938 36.585938 36.585938l8.128906-12.195312-8.128906-12.195313c-6.722656 0-12.195312-5.46875-12.195312-12.195313zm0 0" fill="#44261d"/><path d="m268.195312 333.632812c0 6.726563-5.472656 12.195313-12.195312 12.195313v24.390625c20.171875 0 36.585938-16.410156 36.585938-36.585938zm0 0" fill="#331d17"/><path d="m235.675781 260.464844h40.648438v24.386718h-40.648438zm0 0" fill="#c48776"/><path d="m207.21875 236.074219-16.257812 36.582031 16.257812 36.585938c20.175781 0 36.585938-16.410157 36.585938-36.585938 0-20.171875-16.410157-36.582031-36.585938-36.582031zm0 0" fill="#fdcdbf"/><path d="m170.632812 272.660156c0 20.171875 16.414063 36.582032 36.585938 36.582032v-73.167969c-20.171875 0-36.585938 16.410156-36.585938 36.585937zm0 0" fill="#fff"/><path d="m304.78125 236.074219-16.261719 36.582031 16.261719 36.585938c20.171875 0 36.582031-16.410157 36.582031-36.585938 0-20.171875-16.410156-36.582031-36.582031-36.582031zm0 0" fill="#e7b0a0"/><path d="m268.195312 272.660156c0 20.171875 16.410157 36.582032 36.585938 36.582032v-73.167969c-20.175781 0-36.585938 16.410156-36.585938 36.585937zm0 0" fill="#fdcdbf"/></svg>