<svg height="512pt" viewBox="0 0 512 512" width="512pt" xmlns="http://www.w3.org/2000/svg"><path d="m512 256c0 141.386719-114.613281 256-256 256s-256-114.613281-256-256 114.613281-256 256-256 256 114.613281 256 256zm0 0" fill="#8f5240"/><path d="m509.207031 293.867188-175.902343-175.902344-208.546876 157.914062 22.546876 22.566406 32.34375 89.210938 120.53125 120.535156c108.070312-18.804687 192.871093-105.367187 209.027343-214.324218zm0 0" fill="#5c3419"/><path d="m364.695312 205.230469h-29.941406v79.710937h29.941406c18.007813 0 32.609376-14.597656 32.609376-32.609375v-14.492187c0-18.007813-14.601563-32.609375-32.609376-32.609375zm0 0" fill="#db8870"/><path d="m147.304688 205.230469c-18.007813 0-32.609376 14.601562-32.609376 32.609375v14.496094c0 18.007812 14.597657 32.605468 32.609376 32.605468h22.695312v-79.707031h-22.695312zm0 0" fill="#ed9980"/><path d="m364.695312 194.363281v90.578125l-108.695312 54.492188-20.132812-237.65625 116.285156 41.859375c8.015625 15.144531 12.542968 50.726562 12.542968 50.726562zm0 0" fill="#ed9980"/><path d="m256 109.023438v230.410156l-108.695312-54.492188v-90.578125c0-45.226562 27.621093-84 66.917968-100.378906zm0 0" fill="#f7af99"/><path d="m364.695312 284.941406v25.363282c0 60.027343-48.667968 108.695312-108.695312 108.695312l-28.984375-76.015625 28.984375-76.011719c22.121094 0 42.703125 6.613282 59.871094 17.96875zm0 0" fill="#a34124"/><path d="m256 266.972656v152.027344c-60.027344 0-108.695312-48.667969-108.695312-108.695312v-25.363282h48.824218c17.167969-11.355468 37.75-17.96875 59.871094-17.96875zm0 0" fill="#bf4e2e"/><path d="m237.882812 197.984375h36.234376v21.742187h-36.234376zm0 0" fill="#db8870"/><path d="m212.523438 176.246094-14.496094 32.609375 14.496094 32.609375c17.980468 0 32.609374-14.628906 32.609374-32.609375s-14.628906-32.609375-32.609374-32.609375zm0 0" fill="#ffe0d6"/><path d="m179.914062 208.855469c0 17.980469 14.625 32.609375 32.609376 32.609375v-65.21875c-17.984376 0-32.609376 14.628906-32.609376 32.609375zm0 0" fill="#fff"/><path d="m299.476562 176.246094-14.492187 32.609375 14.492187 32.609375c17.980469 0 32.609376-14.628906 32.609376-32.609375s-14.625-32.609375-32.609376-32.609375zm0 0" fill="#ffbeab"/><path d="m266.871094 208.855469c0 17.980469 14.625 32.609375 32.609375 32.609375v-65.21875c-17.984375 0-32.609375 14.628906-32.609375 32.609375zm0 0" fill="#ffe0d6"/><path d="m281.363281 299.582031v21.738281h-25.363281l-7.246094-10.871093 7.246094-10.867188zm0 0" fill="#db8870"/><path d="m230.636719 299.582031h25.363281v21.738281h-25.363281zm0 0" fill="#ed9980"/><path d="m352.152344 143.636719s-12.082032 0-52.675782 0c-36.535156 0-68.40625-20-85.253906-49.652344 12.863282-5.359375 26.972656-8.316406 41.777344-8.316406 41.710938 0 77.933594 23.492187 96.152344 57.96875zm0 0" fill="#bf4e2e"/></svg>