<svg height="512pt" viewBox="0 0 512 512" width="512pt" xmlns="http://www.w3.org/2000/svg"><path d="m512 256c0 141.386719-114.613281 256-256 256s-256-114.613281-256-256 114.613281-256 256-256 256 114.613281 256 256zm0 0" fill="#8f5240"/><path d="m512 256c0-.734375-.023438-1.464844-.027344-2.199219l-65.011718-65.011719-31.824219 8.574219-77.699219-77.699219-219.816406 185.582032 23.796875 23.800781 15.121093 49.386719 131.570313 131.566406c126.226563-15.796875 223.890625-123.488281 223.890625-254zm0 0" fill="#5c3419"/><path d="m370.574219 230.800781h-31.5625v84.023438h31.5625c18.984375 0 34.375-15.390625 34.375-34.375v-15.273438c0-18.988281-15.390625-34.375-34.375-34.375zm0 0" fill="#a34124"/><path d="m141.414062 230.800781c-18.980468 0-34.371093 15.390625-34.371093 34.375v15.273438c0 18.984375 15.390625 34.375 34.371093 34.375h23.929688v-84.023438zm0 0" fill="#bf4e2e"/><path d="m286.550781 131.496094-53.472656 22.917968 22.917969 264.585938h42.140625l53.660156-37.566406c10.328125-7.226563 18.777344-23.449219 18.777344-36.054688v-145.132812zm0 0" fill="#bf4e2e"/><path d="m225.441406 131.496094-84.027344 68.75v145.132812c0 12.601563 8.449219 28.828125 18.777344 36.054688l53.660156 37.566406h42.144532v-264.585938zm0 0" fill="#cf6446"/><path d="m244.535156 314.824219h-22.914062c0 18.953125 15.417968 34.375 34.375 34.375l7.636718-11.460938-7.636718-11.457031c-6.320313 0-11.460938-5.140625-11.460938-11.457031zm0 0" fill="#a34124"/><path d="m267.453125 314.824219c0 6.316406-5.140625 11.457031-11.457031 11.457031v22.917969c18.953125 0 34.371094-15.421875 34.371094-34.375zm0 0" fill="#943013"/><path d="m229.261719 284.269531h-22.917969v-11.457031h-26.734375v-22.917969h49.652344zm0 0" fill="#331d17"/><path d="m305.644531 284.269531h-22.914062v-34.375h49.652343v22.917969h-26.738281zm0 0"/><path d="m298.007812 147.085938v55.140624h-42.011718l-12.003906-27.570312 12.003906-27.570312zm0 0" fill="#331d17"/><path d="m213.984375 147.085938h42.011719v55.140624h-42.011719zm0 0" fill="#5b3227"/><path d="m255.996094 85.667969v68.746093h-30.554688v45.832032h-84.027344c0-63.277344 51.304688-114.578125 114.582032-114.578125zm0 0" fill="#f00"/><path d="m370.574219 200.246094h-84.023438v-45.832032h-30.554687v-68.746093c63.277344 0 114.578125 51.300781 114.578125 114.578125zm0 0" fill="#b40f0c"/><path d="m446.960938 188.785156v22.917969h-190.964844l-20.734375-11.457031 20.734375-11.460938zm0 0"/><path d="m141.414062 188.785156h114.582032v22.917969h-114.582032zm0 0" fill="#8f1711"/></svg>