<svg height="512pt" viewBox="0 0 512 512" width="512pt" xmlns="http://www.w3.org/2000/svg"><path d="m512 256c0 141.386719-114.613281 256-256 256s-256-114.613281-256-256 114.613281-256 256-256 256 114.613281 256 256zm0 0" fill="#8f5240"/><path d="m510.839844 280.34375-153.734375-153.960938-23.34375-11.1875-9.363281-9.332031-203.113282 199.699219 23.15625 23.160156 14.726563 50.78125 130.316406 130.316406c117.628906-15.367187 210.140625-110.589843 221.355469-229.476562zm0 0" fill="#5c3419"/><path d="m367.558594 152.214844c-.003906 10.917968 0 101.3125 0 101.3125h-141.308594l29.75-167.859375c10.710938 0 20.347656 4.527343 27.140625 11.773437 9.496094-4.027344 20.613281-4.105468 30.640625.726563 7.71875 3.710937 13.566406 9.75 17.113281 16.859375 10.746094.15625 21.328125 4.949218 28.550781 14 5.464844 6.855468 8.121094 15.050781 8.113282 23.1875zm0 0" fill="#fc9c3a"/><path d="m256 85.667969v167.859375h-111.558594s.003906-90.394532 0-101.3125c-.007812-8.136719 2.648438-16.332032 8.113282-23.1875 7.222656-9.050782 17.804687-13.84375 28.550781-14 3.546875-7.109375 9.394531-13.148438 17.113281-16.859375 10.023438-4.832031 21.144531-4.75 30.640625-.726563 6.792969-7.246094 16.429687-11.773437 27.140625-11.773437zm0 0" fill="#fcaf60"/><path d="m144.441406 247.941406c-18.484375 0-33.46875 14.984375-33.46875 33.46875s14.984375 33.46875 33.46875 33.46875c1.335938 0 26.261719-.230468 26.261719-.230468v-66.707032zm0 0" fill="#cf6446"/><path d="m367.558594 247.941406h-18.824219v66.707032s17.488281.230468 18.824219.230468c18.484375 0 33.46875-14.984375 33.46875-33.46875s-14.984375-33.46875-33.46875-33.46875zm0 0" fill="#bf4e2e"/><path d="m367.558594 247.800781v99.519531c0 12.269532-8.222656 28.066407-18.28125 35.101563l-52.246094 36.578125-41.03125-22.3125-37.1875-99.660156 37.1875-122.113282s23.195312-11 44.898438-29.257812c39.253906 17.277344 66.660156 56.507812 66.660156 102.144531zm0 0" fill="#cf6446"/><path d="m256 174.914062v221.773438l-41.03125 22.3125-52.246094-36.578125c-10.058594-7.035156-18.28125-22.832031-18.28125-35.101563v-99.519531c0-45.636719 27.40625-84.867187 66.652344-102.144531 21.703125 18.257812 44.90625 29.257812 44.90625 29.257812zm0 0" fill="#cf6e53"/><path d="m244.84375 303.722656h-22.3125c0 18.453125 15.015625 33.464844 33.46875 33.464844l7.4375-11.15625-7.4375-11.152344c-6.152344 0-11.15625-5.007812-11.15625-11.15625zm0 0" fill="#a34124"/><path d="m267.15625 303.722656c0 6.148438-5.003906 11.15625-11.15625 11.15625v22.308594c18.453125 0 33.46875-15.011719 33.46875-33.464844zm0 0" fill="#943013"/><path d="m229.96875 281.410156h-22.3125v-11.15625h-26.027344v-22.3125h48.339844zm0 0" fill="#331d17"/><path d="m304.34375 281.410156h-22.3125v-33.46875h48.339844v22.3125h-26.027344zm0 0"/><path d="m297.03125 419h-41.03125l-22.3125-22.3125 22.3125-37.1875c18.472656 0 35.269531 13.386719 37.3125 29.75 2.046875 16.363281 3.71875 29.75 3.71875 29.75zm0 0" fill="#331d17"/><path d="m256 359.5v59.5h-41.03125s1.671875-13.386719 3.71875-29.75c2.042969-16.359375 18.839844-29.75 37.3125-29.75zm0 0" fill="#794334"/></svg>