<svg height="512pt" viewBox="0 0 512 512" width="512pt" xmlns="http://www.w3.org/2000/svg"><path d="m512 256c0 141.386719-114.613281 256-256 256s-256-114.613281-256-256 114.613281-256 256-256 256 114.613281 256 256zm0 0" fill="#fd413c"/><path d="m509.210938 293.839844-219.613282-219.613282-178.160156 261.160157 18.867188 18.871093 23.632812 39.992188 117.289062 117.285156c121.625-7.136718 220.421876-99.167968 237.984376-217.695312zm0 0" fill="#b40f0c"/><path d="m373.066406 240.546875h-27.5625v69.996094s26.15625.242187 27.5625.242187c19.394532 0 35.117188-15.722656 35.117188-35.121094 0-19.394531-15.722656-35.117187-35.117188-35.117187zm0 0" fill="#fc8914"/><path d="m138.933594 240.546875c-19.394532 0-35.117188 15.722656-35.117188 35.121094 0 19.394531 15.722656 35.117187 35.117188 35.117187 1.40625 0 27.5625-.238281 27.5625-.238281v-70zm0 0" fill="#fc9c3a"/><path d="m127.472656 341.761719c-12.910156 0-23.410156-10.503907-23.410156-23.414063s10.5-23.414062 23.410156-23.414062 23.414063 10.503906 23.414063 23.414062-10.503907 23.414063-23.414063 23.414063zm0 0" fill="#ffe0d6"/><path d="m384.527344 341.761719c-12.910156 0-23.414063-10.503907-23.414063-23.414063s10.503907-23.414062 23.414063-23.414062 23.410156 10.503906 23.410156 23.414062-10.5 23.414063-23.410156 23.414063zm0 0" fill="#fdcdbf"/><path d="m373.066406 287.371094v-46.824219l-140.480468-98.453125 23.414062 276.90625h40.972656c48.488282 0 87.800782-39.3125 87.800782-87.800781 0-15.957031-4.261719-30.925781-11.707032-43.828125zm0 0" fill="#fc9c3a"/><path d="m138.933594 240.546875v46.824219c-7.445313 12.902344-11.707032 27.871094-11.707032 43.828125 0 48.488281 39.3125 87.800781 87.800782 87.800781h40.972656v-261.296875zm0 0" fill="#fcaf60"/><path d="m228.683594 294.128906h-23.410156v-11.703125h-27.316407v-23.414062h50.726563zm0 0" fill="#4c4645"/><path d="m306.726562 294.128906h-23.410156v-35.117187h50.726563v23.414062h-27.316407zm0 0"/><path d="m209.175781 106.824219c0 25.863281 20.964844 46.828125 46.824219 46.828125l15.609375-46.828125-15.609375-46.824219c-25.859375 0-46.824219 20.964844-46.824219 46.824219zm0 0" fill="#635c5a"/><path d="m256 60v93.652344c25.859375 0 46.824219-20.964844 46.824219-46.828125 0-25.859375-20.964844-46.824219-46.824219-46.824219zm0 0" fill="#4c4645"/><path d="m283.316406 317.542969v23.414062h-27.316406l-7.804688-11.707031 7.804688-11.707031zm0 0" fill="#bf4e2e"/><path d="m228.683594 317.542969h27.316406v23.414062h-27.316406zm0 0" fill="#cf6446"/><path d="m373.066406 239.5v1.046875c-70.242187-13.953125-117.066406-67.234375-117.066406-67.234375l-23.414062-25.441406 23.414062-25.4375c64.652344 0 117.066406 52.414062 117.066406 117.066406zm0 0"/><path d="m256 122.433594v50.878906s-46.824219 53.28125-117.066406 67.234375v-1.046875c0-64.652344 52.414062-117.066406 117.066406-117.066406zm0 0" fill="#4c4645"/></svg>