<svg height="512pt" viewBox="0 0 512 512" width="512pt" xmlns="http://www.w3.org/2000/svg"><path d="m512 256c0 141.386719-114.613281 256-256 256s-256-114.613281-256-256 114.613281-256 256-256 256 114.613281 256 256zm0 0" fill="#fd413c"/><path d="m511.59375 270.316406-162.328125-162.324218-239.734375 170.703124 9.496094 9.503907-.71875 33.140625 15.042968 15.046875 24.984376 58.601562 116.332031 116.332031c127.949219-9.222656 229.839843-112.472656 236.925781-241.003906zm0 0" fill="#b40f0c"/><path d="m402.621094 200.535156c10.015625 10.074219 16.199218 23.957032 16.199218 39.285156 0 20.371094-10.921874 37.679688-27.226562 47.09375l-157.898438 66.910157 22.304688-276.824219c15.332031 0 29.210938 6.1875 39.285156 16.199219 13.738282-3.628907 28.855469-2.050781 42.125 5.613281 13.269532 7.664062 22.199219 19.960938 25.925782 33.671875 13.710937 3.726563 26.007812 12.65625 33.671874 25.925781 7.664063 13.269532 9.242188 28.386719 5.613282 42.125zm0 0" fill="#fdcdbf"/><path d="m256 77v269.390625l-135.597656-59.476563c-16.300782-9.410156-27.222656-26.722656-27.222656-47.09375 0-15.328124 6.183593-29.210937 16.199218-39.285156-3.628906-13.738281-2.054687-28.851562 5.613282-42.125 7.664062-13.269531 19.960937-22.199218 33.671874-25.921875 3.722657-13.710937 12.652344-26.007812 25.925782-33.671875 13.269531-7.667968 28.382812-9.242187 42.125-5.613281 10.074218-10.015625 23.953125-16.203125 39.285156-16.203125zm0 0" fill="#ffe0d6"/><path d="m133.558594 327.394531c-12.296875 0-22.300782-10.007812-22.300782-22.304687 0-12.300782 10.003907-22.304688 22.300782-22.304688 12.300781 0 22.304687 10.003906 22.304687 22.304688 0 12.296875-10.003906 22.304687-22.304687 22.304687zm0 0" fill="#d59c8b"/><path d="m378.441406 327.394531c-12.300781 0-22.304687-10.007812-22.304687-22.304687 0-12.300782 10.003906-22.304688 22.304687-22.304688 12.296875 0 22.300782 10.003906 22.300782 22.304688 0 12.296875-10.003907 22.304687-22.300782 22.304687zm0 0" fill="#b27361"/><path d="m367.523438 293.605469c7.089843 12.289062 11.152343 26.550781 11.152343 41.753906 0 46.191406-37.449219 83.640625-83.644531 83.640625h-39.03125l-44.609375-104.933594 44.609375-104.933594c13.441406 6.675782 28.585938 10.421876 44.609375 10.421876 41.648437 0 54.050781-.007813 54.050781-.007813 8.207032 15.539063 12.863282 33.25 12.863282 52.050781zm0 0" fill="#ed9980"/><path d="m256 209.132812v209.867188h-39.03125c-46.195312 0-83.644531-37.449219-83.644531-83.640625 0-15.203125 4.0625-29.464844 11.152343-41.753906v-22.007813c0-46.40625 28.34375-86.191406 68.660157-102.992187 9.898437 17.417969 24.847656 31.597656 42.863281 40.527343zm0 0" fill="#f7af99"/><path d="m244.847656 350.226562h-22.304687c0 18.449219 15.011719 33.457032 33.457031 33.457032l7.4375-11.152344-7.4375-11.152344c-6.148438 0-11.152344-5-11.152344-11.152344zm0 0" fill="#d97a5f"/><path d="m267.152344 350.226562c0 6.152344-5.003906 11.152344-11.152344 11.152344v22.304688c18.449219 0 33.457031-15.007813 33.457031-33.457032zm0 0" fill="#cf6e53"/><path d="m237.414062 285.175781h37.171876v22.300781h-37.171876zm0 0" fill="#b27361"/><path d="m211.390625 262.871094-14.871094 33.457031 14.871094 33.457031c18.449219 0 33.457031-15.011718 33.457031-33.457031 0-18.449219-15.007812-33.457031-33.457031-33.457031zm0 0" fill="#ffe0d6"/><path d="m177.933594 296.324219c0 18.449219 15.011718 33.457031 33.457031 33.457031v-66.910156c-18.449219 0-33.457031 15.007812-33.457031 33.453125zm0 0" fill="#fff"/><path d="m300.609375 262.871094-14.871094 33.457031 14.871094 33.457031c18.449219 0 33.457031-15.011718 33.457031-33.457031 0-18.449219-15.007812-33.457031-33.457031-33.457031zm0 0" fill="#ffbeab"/><path d="m267.152344 296.324219c0 18.449219 15.007812 33.457031 33.457031 33.457031v-66.910156c-18.449219 0-33.457031 15.007812-33.457031 33.453125zm0 0" fill="#ffe0d6"/></svg>