<svg height="512pt" viewBox="0 0 512 512" width="512pt" xmlns="http://www.w3.org/2000/svg"><path d="m512 256c0 141.386719-114.613281 256-256 256s-256-114.613281-256-256 114.613281-256 256-256 256 114.613281 256 256zm0 0" fill="#fc9c3a"/><path d="m511.773438 266.316406-147.941407-147.945312-259.703125 287.628906 100.925782 100.921875c16.464843 3.324219 33.5 5.078125 50.945312 5.078125 137.929688 0 250.359375-109.085938 255.773438-245.683594zm0 0" fill="#c67934"/><path d="m407.871094 225.203125v180.796875h-151.871094l-43.390625-168.535156 43.390625-164.132813c83.738281 0 151.871094 68.132813 151.871094 151.871094zm0 0"/><path d="m256 73.332031v332.667969h-151.871094v-180.796875c0-83.738281 68.132813-151.871094 151.871094-151.871094zm0 0" fill="#4c4645"/><path d="m364.476562 225.203125v36.15625c0 76.304687-108.476562 101.25-108.476562 101.25l-14.464844-188.03125 116.761719 14.464844c4.003906 11.304687 6.179687 23.480469 6.179687 36.160156zm0 0" fill="#a26745"/><path d="m256 174.578125v188.03125s-108.476562-24.945313-108.476562-101.246094v-36.160156c0-12.675781 2.175781-24.855469 6.175781-36.167969.003906.007813 102.300781-14.457031 102.300781-14.457031zm0 0" fill="#c67934"/><path d="m358.300781 189.035156c-.003906.007813-102.300781.007813-102.300781.007813l-21.695312-36.160157 21.695312-36.160156c47.230469 0 87.410156 30.1875 102.300781 72.3125zm0 0" fill="#4c4645"/><path d="m256 116.722656v72.320313h-102.296875c14.886719-42.132813 55.066406-72.320313 102.296875-72.320313zm0 0" fill="#635c5a"/><path d="m245.152344 283.058594h-21.695313c0 17.941406 14.597657 32.542968 32.542969 32.542968l7.230469-10.847656-7.230469-10.847656c-5.980469 0-10.847656-4.867188-10.847656-10.847656zm0 0" fill="#854820"/><path d="m266.847656 283.058594c0 5.980468-4.867187 10.847656-10.847656 10.847656v21.695312c17.945312 0 32.542969-14.597656 32.542969-32.542968zm0 0" fill="#5c3419"/><path d="m230.6875 254.128906h-21.695312v-10.847656h-25.3125v-21.695312h47.007812zm0 0" fill="#331d17"/><path d="m303.007812 254.128906h-21.695312v-32.542968h47.007812v21.695312h-25.3125zm0 0"/></svg>