<?xml version="1.0" encoding="iso-8859-1"?>
<!-- Generator: Adobe Illustrator 19.0.0, SVG Export Plug-In . SVG Version: 6.00 Build 0)  -->
<svg version="1.1" id="Layer_1" xmlns="http://www.w3.org/2000/svg" xmlns:xlink="http://www.w3.org/1999/xlink" x="0px" y="0px"
	 viewBox="0 0 512.001 512.001" style="enable-background:new 0 0 512.001 512.001;" xml:space="preserve">
<g>
	<g>
		<path style="fill:#FBC4AC;" d="M124.925,360.412c-62.702,27.29-66.718,85.523-66.718,144.088h66.718l28.33-72.044L124.925,360.412
			z"/>
		<path style="fill:#E3B098;" d="M129.402,371.799l-4.478-11.387c-62.702,27.29-66.718,85.523-66.718,144.088h25
			C83.207,453.12,86.303,401.997,129.402,371.799z"/>
		<path style="fill:#FBC4AC;" d="M387.077,360.412c62.702,27.29,66.718,85.523,66.718,144.088h-66.718l-28.33-72.044
			L387.077,360.412z"/>
		<rect x="124.925" y="360.412" style="fill:#A36549;" width="262.152" height="144.088"/>
		<path style="fill:#E67A3A;" d="M448.955,139.056c14.586,27.946,22.293,58.941,22.293,91.086H40.754
			c0-32.147,7.708-63.143,22.295-91.089L448.955,139.056z"/>
		<circle style="fill:#FBC4AC;" cx="65.855" cy="230.142" r="41.928"/>
		<circle style="fill:#FBC4AC;" cx="446.147" cy="230.142" r="41.928"/>
		<path style="fill:#FF8840;" d="M273.117,433.049h-34.232c0,0-23.966,23.585,6.8,45.267c6.165,4.344,14.466,4.344,20.631,0
			C297.083,456.634,273.117,433.049,273.117,433.049z"/>
		<path style="fill:#E67A3A;" d="M265.686,478.315c-30.767-21.681-6.8-45.267-6.8-45.267h-20c0,0-23.966,23.585,6.8,45.267
			c6.062,4.272,14.185,4.333,20.315,0.204C265.897,478.449,265.789,478.388,265.686,478.315z"/>
		<ellipse style="fill:#FFCE1C;" cx="256.001" cy="409.974" rx="34.472" ry="26.587"/>
		<path style="fill:#ECB000;" d="M241.529,409.974c0-12.001,10.311-22.141,24.472-25.447c-3.166-0.739-6.522-1.14-10-1.14
			c-19.038,0-34.472,11.903-34.472,26.587c0,14.684,15.434,26.587,34.472,26.587c3.478,0,6.834-0.401,10-1.14
			C251.84,432.114,241.529,421.975,241.529,409.974z"/>
		<ellipse style="fill:#FF8840;" cx="256.001" cy="230.142" rx="190.146" ry="179.831"/>
		<path style="fill:#FBC4AC;" d="M114.935,147.4c-17.954,54.655,6.109,100.57,73.588,100.57h134.957
			c67.479,0,91.542-45.916,73.588-100.57L256.001,94.229L114.935,147.4z"/>
		<path style="fill:#E67A3A;" d="M256.001,266.545c31.94,33.017,63.662,20.111,79.154,10.067c4.067-2.637,4.203-8.453,0.419-11.482
			c-21.959-17.579-21.973-85.53-79.573-49.949c-57.6-35.58-57.614,32.37-79.573,49.949c-3.784,3.029-3.648,8.845,0.419,11.482
			C192.339,286.656,224.061,299.562,256.001,266.545z"/>
		<path style="fill:#9E9C9D;" d="M138.518,58.358C88.997,49.005,98.666,8.174,76.763,7.505s-31.041,70.345,9.339,96.753
			S138.518,58.358,138.518,58.358z"/>
		<path style="fill:#9E9C9D;" d="M373.483,58.358c49.521-9.353,39.853-50.184,61.756-50.853s31.041,70.345-9.339,96.753
			S373.483,58.358,373.483,58.358z"/>
		<path style="fill:#D4D2D3;" d="M435.238,116.543c-7.953-11.322-17.151-21.975-27.537-31.797
			C367.108,46.354,313.233,25.21,256.001,25.21S144.894,46.354,104.3,84.746c-10.386,9.822-19.583,20.475-27.536,31.797
			l-0.008,0.001l179.245,15.428l179.245-15.428L435.238,116.543z"/>
		<path style="fill:#BAB8B9;" d="M116.755,116.544l0.008-0.001c7.953-11.322,17.15-21.975,27.536-31.797
			c35.829-33.885,82.005-54.322,131.701-58.657c-6.611-0.576-13.281-0.879-20-0.879c-57.232,0-111.107,21.144-151.701,59.536
			c-10.386,9.822-19.583,20.475-27.536,31.797l-0.008,0.001l179.245,15.428l20-1.721L116.755,116.544z"/>
		<path style="fill:#9E9C9D;" d="M76.756,147.4c-8.521,0-15.428-6.907-15.428-15.428v0c0-8.521,6.907-15.428,15.428-15.428h358.491
			c8.521,0,15.428,6.907,15.428,15.428v0c0,8.521-6.907,15.428-15.428,15.428H76.756z"/>
		<path style="fill:#FF8840;" d="M167.439,172.063h-14.263c-6.769,0-12.256,5.487-12.256,12.256c0,6.769,5.487,12.256,12.256,12.256
			h14.263c6.769,0,12.256-5.487,12.256-12.256C179.695,177.55,174.208,172.063,167.439,172.063z"/>
		<path style="fill:#FF8840;" d="M344.563,172.063h14.263c6.769,0,12.256,5.487,12.256,12.256c0,6.769-5.487,12.256-12.256,12.256
			h-14.263c-6.769,0-12.256-5.487-12.256-12.256C332.307,177.55,337.794,172.063,344.563,172.063z"/>
	</g>
	<g>
		<path d="M256,250.987c8.834,0,17.131-3.694,22.762-10.136c2.726-3.119,2.408-7.857-0.71-10.583
			c-3.118-2.726-7.856-2.409-10.583,0.71c-2.783,3.183-6.963,5.008-11.469,5.008s-8.687-1.825-11.469-5.008
			c-2.727-3.119-7.464-3.437-10.583-0.711c-3.119,2.726-3.437,7.464-0.711,10.583C238.868,247.292,247.165,250.987,256,250.987z"/>
		<path d="M152.807,204.057v11.125c0,4.142,3.358,7.5,7.5,7.5s7.5-3.358,7.5-7.5v-11.125c10.722-0.2,19.387-8.968,19.387-19.737
			c0-10.893-8.862-19.755-19.755-19.755h-14.263c-10.893,0-19.755,8.862-19.755,19.755
			C133.42,195.088,142.085,203.857,152.807,204.057z M153.175,179.564h14.263c2.622,0,4.755,2.133,4.755,4.755
			c0,2.623-2.133,4.756-4.755,4.756h-14.263c-2.622,0-4.755-2.133-4.755-4.756C148.42,181.697,150.553,179.564,153.175,179.564z"/>
		<path d="M344.194,204.057v11.125c0,4.142,3.358,7.5,7.5,7.5s7.5-3.358,7.5-7.5v-11.125c10.722-0.2,19.387-8.968,19.387-19.737
			c0-10.893-8.862-19.755-19.755-19.755h-14.263c-10.894,0-19.756,8.862-19.756,19.755
			C324.806,195.088,333.471,203.857,344.194,204.057z M344.562,179.564h14.263c2.622,0,4.755,2.133,4.755,4.755
			c0,2.623-2.133,4.756-4.755,4.756h-14.263c-2.623,0-4.756-2.133-4.756-4.756C339.806,181.697,341.94,179.564,344.562,179.564z"/>
		<path d="M474.769,189.884c-3.552-17.767-9.458-34.966-17.594-51.218c0.648-2.119,0.999-4.366,0.999-6.693
			c0-11.243-8.136-20.615-18.829-22.554c-0.929-1.277-1.874-2.544-2.833-3.803c25.433-21.894,28.453-60.41,21.836-82.616
			c-4.432-14.874-12.966-23.309-23.337-22.991c-13.365,0.409-18.852,10.903-23.692,20.162
			c-6.129,11.722-13.052,24.947-36.448,30.239c-8.438-5.09-17.231-9.638-26.351-13.611c-3.799-1.655-8.217,0.083-9.872,3.88
			c-1.654,3.797,0.083,8.217,3.88,9.872c9.385,4.088,18.396,8.831,27.001,14.183c19.099,11.878,36.325,26.917,50.595,44.312
			l-328.246,0c6.554-7.986,13.736-15.408,21.377-22.354c35.527-32.297,82.435-50.942,130.22-53.628
			c23.053-1.296,46.334,0.979,68.657,6.907c4,1.061,8.11-1.324,9.171-5.329c1.061-4.004-1.325-8.11-5.329-9.171
			C296.546,20.321,276.367,17.71,256,17.71c-42.713,0-83.624,11.408-118.875,32.696c-23.39-5.292-30.314-18.516-36.442-30.237
			c-4.84-9.259-10.327-19.752-23.692-20.161c-10.338-0.317-18.909,8.121-23.34,22.992c-6.616,22.206-3.596,60.721,21.838,82.615
			c-0.959,1.259-1.905,2.526-2.833,3.803c-10.693,1.938-18.83,11.311-18.83,22.554c0,2.328,0.351,4.575,0.999,6.694
			c-8.137,16.252-14.045,33.453-17.597,51.22c-12.577,8.969-20.802,23.666-20.802,40.256c0,27.084,21.9,49.14,48.92,49.415
			c8.633,29.889,24.895,56.816,46.675,78.779c-24.895,13.348-41.651,33.035-51.049,59.917
			c-9.473,27.095-10.266,58.726-10.266,86.248c0,4.142,3.358,7.5,7.5,7.5h395.588c4.142,0,7.5-3.358,7.5-7.5
			c0-27.521-0.793-59.152-10.266-86.248c-9.398-26.882-26.155-46.569-51.05-59.917c21.781-21.963,38.042-48.891,46.676-78.779
			c27.02-0.275,48.92-22.331,48.92-49.415C495.574,213.551,487.348,198.853,474.769,189.884z M457.014,181.934
			c-2.269-0.511-4.57-0.854-6.888-1.044c-1.146-0.092-2.308-0.159-3.458-0.171c-2.119-7.36-4.716-14.583-7.76-21.625
			c-0.018-0.042-1.264-2.89-1.898-4.26c1.12-0.082,2.233-0.257,3.328-0.51c2.293-0.52,4.477-1.377,6.479-2.549
			c4.45,9.785,8.049,19.909,10.765,30.278C457.394,182.007,457.203,181.976,457.014,181.934z M438.55,234.92
			c-0.326,11.501-1.856,22.972-4.608,34.168c-16.369,66.606-73.785,118.538-145.637,130.687c-0.03,0.005-0.061,0.009-0.091,0.015
			c-21.15,3.752-43.251,3.553-64.409,0.003c-0.038-0.006-0.076-0.012-0.113-0.019c-71.851-12.15-129.264-64.081-145.633-130.686
			c-9.347-38.032-4.417-79.207,13.604-114.188h13.326c-6.629,26.98-3.229,51.378,9.891,69.498
			c9.174,12.671,27.027,27.506,60.899,30.515c-1.289,1.743-2.626,3.231-4.039,4.363c-3.7,2.962-5.768,7.54-5.533,12.245
			c0.234,4.685,2.625,8.834,6.559,11.385c8.682,5.628,22.468,12.338,38.843,12.338c15.844,0,30.75-6.152,44.392-18.302
			c13.643,12.151,28.547,18.302,44.393,18.302c16.373,0,30.159-6.71,38.842-12.338c3.934-2.551,6.325-6.7,6.559-11.385
			c0.235-4.706-1.833-9.283-5.533-12.245c-1.413-1.131-2.75-2.62-4.039-4.363c33.873-3.008,51.725-17.844,60.9-30.515
			c13.12-18.12,16.521-42.518,9.891-69.498c0,0,13.326,0,13.327,0.001C433.019,179.574,439.337,207.179,438.55,234.92z
			 M270.628,441.941c1.99,3.022,4.251,7.688,3.827,12.864c-0.496,6.056-4.688,11.904-12.459,17.38c-3.544,2.498-8.448,2.497-11.99,0
			c-7.731-5.448-11.92-11.264-12.452-17.285c-0.458-5.196,1.825-9.909,3.828-12.956c0.708,0.212,1.426,0.402,2.174,0.588
			c4.001,1.111,8.305,1.53,12.445,1.53C260.929,444.061,265.903,443.355,270.628,441.941z M262.475,428.478
			c-0.056,0.01-0.111,0.02-0.167,0.029c-4.167,0.74-8.443,0.715-12.613,0c-0.057-0.01-0.114-0.02-0.171-0.03
			c-8.882-1.617-16.167-6.452-19.101-12.563c1.731,0.212,3.468,0.4,5.209,0.569c13.539,1.322,27.197,1.305,40.737,0
			c1.741-0.169,3.478-0.357,5.209-0.569C278.643,422.027,271.358,426.862,262.475,428.478z M391.509,154.9
			c6.748,24.077,4.483,45.48-6.538,60.701c-11.129,15.37-30.729,23.884-56.846,24.78c-0.587-1.233-1.176-2.484-1.769-3.746
			c-8.187-17.425-18.376-39.111-41.818-39.111c-8.533,0-17.902,2.931-28.538,8.943c-10.636-6.012-20.005-8.943-28.538-8.943
			c-23.447,0-33.634,21.686-41.82,39.111c-0.593,1.262-1.181,2.513-1.768,3.746c-26.116-0.896-45.716-9.411-56.845-24.78
			c-11.021-15.221-13.286-36.625-6.538-60.701H391.509z M199.218,243.014c8.652-18.417,15.292-30.489,28.244-30.489
			c6.613,0,14.888,3.041,24.597,9.038c2.416,1.492,5.467,1.492,7.883,0c9.708-5.997,17.984-9.038,24.597-9.038
			c12.948,0,19.589,12.072,28.242,30.489c5.136,10.933,9.993,21.269,17.731,27.667c-7.004,4.448-17.75,9.563-30.119,9.563
			c-13.739,0-26.861-6.363-39.002-18.913c-1.413-1.461-3.358-2.286-5.391-2.286s-3.978,0.825-5.391,2.286
			c-12.141,12.55-25.263,18.913-39.001,18.913c-12.37,0-23.115-5.115-30.119-9.563C189.227,264.284,194.083,253.948,199.218,243.014
			z M424.611,27.12c4.927-9.425,6.834-11.995,10.935-12.119c2.369,0,6.023,4.219,8.426,12.283
			c5.225,17.534,2.937,49.269-16.943,66.72c-9.238-10.526-19.509-20.162-30.565-28.756c-1.838-1.429-3.692-2.834-5.573-4.204
			C411.322,52.536,419.112,37.637,424.611,27.12z M84.972,94.004C65.091,76.552,62.803,44.817,68.027,27.285
			c2.402-8.063,6.058-12.283,8.506-12.283c4.023,0.123,5.93,2.693,10.857,12.118c5.5,10.519,13.29,25.42,33.728,33.928
			c-0.015,0.011-0.029,0.022-0.043,0.033c-12.315,9.184-23.787,19.723-34.378,30.866C86.582,92.067,84.8,93.853,84.972,94.004z
			 M76.755,124.045h358.491c4.372,0,7.928,3.556,7.928,7.928c0,4.273-3.618,7.928-7.928,7.928H76.755
			c-4.294,0-7.928-3.637-7.928-7.928C68.827,127.601,72.383,124.045,76.755,124.045z M54.418,182.052
			c2.715-10.369,6.314-20.493,10.765-30.278c2.005,1.173,4.194,2.032,6.491,2.552c1.088,0.246,2.202,0.426,3.315,0.507
			c-0.635,1.372-1.879,4.214-1.895,4.251c-3.045,7.045-5.644,14.271-7.764,21.634c-0.27,0.003-0.538,0.023-0.808,0.031
			C61.13,180.843,57.722,181.269,54.418,182.052z M61.647,264.314c-17.007-2.081-30.22-16.612-30.22-34.171
			c0-12.589,6.793-23.62,16.905-29.624c3.96-2.351,8.409-3.893,12.975-4.498c0.115-0.015,0.232-0.022,0.348-0.036
			c-1.444,7.411-2.407,14.91-2.903,22.439c-0.886,13.455-0.225,27.023,1.915,40.335C60.741,259.23,61.462,264.314,61.647,264.314z
			 M117.424,372.469v124.532h-51.69C66.158,443.802,71.931,397.878,117.424,372.469z M132.424,376.358
			c24.028,18.285,51.975,30.849,81.806,36.925c1.036,8.69,6.103,16.435,13.664,21.982c-3.028,5.069-5.987,12.34-5.297,20.764
			c0.877,10.697,7.191,20.258,18.769,28.417c4.296,3.027,9.357,4.627,14.636,4.627c5.278,0,10.339-1.6,14.635-4.627
			c11.578-8.159,17.892-17.72,18.769-28.417c0.69-8.424-2.269-15.695-5.297-20.764c7.56-5.547,12.628-13.292,13.664-21.982
			c29.831-6.075,57.778-18.64,81.806-36.925v120.643H132.424V376.358z M446.267,497.001l-51.69,0V372.469
			C440.07,397.879,445.842,443.802,446.267,497.001z M450.354,264.314c0.043-0.221,0.079-0.444,0.121-0.666
			c2.516-13.205,3.537-26.693,3.038-40.127c-0.344-9.241-1.398-18.46-3.166-27.537c1.669,0.211,3.318,0.523,4.941,0.968
			c14.756,4.048,25.287,17.906,25.287,33.19C480.574,247.702,467.361,262.233,450.354,264.314z"/>
	</g>
</g>
<g>
</g>
<g>
</g>
<g>
</g>
<g>
</g>
<g>
</g>
<g>
</g>
<g>
</g>
<g>
</g>
<g>
</g>
<g>
</g>
<g>
</g>
<g>
</g>
<g>
</g>
<g>
</g>
<g>
</g>
</svg>
