<svg height="512pt" viewBox="0 0 512 512" width="512pt" xmlns="http://www.w3.org/2000/svg"><path d="m512 256c0 141.386719-114.613281 256-256 256s-256-114.613281-256-256 114.613281-256 256-256 256 114.613281 256 256zm0 0" fill="#e7b0a0"/><path d="m509.265625 293.460938-106.304687-106.300782-52.765626-18.015625-39.058593-39.058593-208.996094 148.613281 23.644531 23.660156 31.558594 63.25 142.617188 142.617187c108.308593-18.746093 193.285156-105.542968 209.304687-214.765624zm0 0" fill="#c48776"/><path d="m360.21875 169.144531h-74.761719l29.707031 192.050781c21.949219 34.734376 60.6875 57.804688 104.8125 57.804688v-190.09375c0-33.007812-26.753906-59.761719-59.757812-59.761719zm0 0" fill="#331d17"/><path d="m343.453125 207.652344h-30.113281v80.167968h30.113281c18.113281 0 32.796875-14.683593 32.796875-32.796874v-14.574219c0-18.113281-14.683594-32.796875-32.796875-32.796875zm0 0" fill="#854820"/><path d="m124.816406 207.652344c-18.109375 0-32.792968 14.683594-32.792968 32.792968v14.578126c0 18.113281 14.683593 32.792968 32.792968 32.792968h22.828125v-80.164062zm0 0" fill="#91552d"/><path d="m212.273438 121.65625 21.863281 275.480469c60.375 0 109.316406-48.945313 109.316406-109.316407v-80.167968c-40.082031-92.558594-131.179687-85.996094-131.179687-85.996094zm0 0" fill="#91552d"/><path d="m124.816406 207.652344v80.167968c0 60.371094 48.945313 109.316407 109.320313 109.316407v-268.195313zm0 0" fill="#a26745"/><path d="m281.507812 276.886719h-21.863281v-32.796875h47.371094v21.863281h-25.507813zm0 0"/><path d="m208.628906 276.886719h-21.863281v-10.933594h-25.507813v-21.863281h47.371094zm0 0" fill="#331d17"/><path d="m223.203125 306.039062h-21.863281c0 18.082032 14.714844 32.792969 32.796875 32.792969l7.289062-10.929687-7.289062-10.933594c-6.027344 0-10.933594-4.902344-10.933594-10.929688zm0 0" fill="#8f1711"/><path d="m245.066406 306.039062c0 6.027344-4.902344 10.929688-10.929687 10.929688v21.867188c18.082031 0 32.792969-14.714844 32.792969-32.796876zm0 0" fill="#691e17"/><path d="m301.804688 121.800781c25.367187 20.011719 41.648437 51.027344 41.648437 85.851563-35.445313 0-64.132813-28.6875-64.132813-64.132813l-10.308593-10.535156zm0 0"/><path d="m301.804688 121.800781c-7.070313 7.667969-14.578126 14.917969-22.484376 21.71875-42.152343 36.253907-95.683593 59.65625-154.503906 64.132813 0-60.375 48.945313-109.320313 109.320313-109.320313 25.550781 0 49.0625 8.769531 67.667969 23.46875zm0 0" fill="#331d17"/></svg>