<?xml version="1.0" encoding="iso-8859-1"?>
<!-- Generator: Adobe Illustrator 19.0.0, SVG Export Plug-In . SVG Version: 6.00 Build 0)  -->
<svg version="1.1" id="Layer_1" xmlns="http://www.w3.org/2000/svg" xmlns:xlink="http://www.w3.org/1999/xlink" x="0px" y="0px"
	 viewBox="0 0 511.994 511.994" style="enable-background:new 0 0 511.994 511.994;" xml:space="preserve">
<g>
	<g>
		<path style="fill:#3A484A;" d="M44.481,173.411v197.838c0,43.117,34.953,78.069,78.069,78.069h266.894
			c43.117,0,78.069-34.953,78.069-78.069V173.411H44.481z"/>
		<polygon style="fill:#3A484A;" points="153.213,368.36 159.543,436.428 238.575,504.497 273.419,504.497 352.452,436.428 
			358.782,368.36 		"/>
		<path style="fill:#D4835F;" d="M80.51,426.726c-9.084,19.507-15.593,44.94-15.593,77.771h148.675v-27.522l-71.565-73.191
			L80.51,426.726z"/>
		<path style="fill:#A36549;" d="M150.043,411.982l-8.017-8.199L80.51,426.726c-9.084,19.506-15.593,44.939-15.593,77.771h30
			c0-32.831,6.509-58.264,15.593-77.771L150.043,411.982z"/>
		<path style="fill:#D4835F;" d="M431.485,426.726c9.084,19.507,15.593,44.94,15.593,77.771H298.403v-27.522l71.565-73.191
			L431.485,426.726z"/>
		<path style="fill:#D4835F;" d="M412.489,53.695c-9.472-31.002-40.27-50.345-72.314-45.44l-74.286,11.393
			c-6.56,1.001-13.222,1.001-19.782,0L171.82,8.255c-32.044-4.905-62.842,14.438-72.314,45.44l-16.288,53.298l172.779,19.925
			l172.779-19.925L412.489,53.695z"/>
		<g>
			<path style="fill:#A36549;" d="M123.218,106.993l16.288-53.298c6.621-21.669,23.665-37.629,44.267-43.607L171.82,8.254
				c-32.044-4.905-62.842,14.438-72.314,45.44l-16.288,53.298l172.78,19.926l20-2.307L123.218,106.993z"/>
		</g>
		<polygon style="fill:#A36549;" points="428.777,106.993 83.218,106.993 71.048,146.844 255.997,170.346 440.947,146.844 		"/>
		<polygon style="fill:#87543D;" points="111.048,146.844 123.218,106.993 83.218,106.993 71.048,146.844 255.997,170.346 
			275.997,167.804 		"/>
		<path style="fill:#87543D;" d="M433.641,418.541c-6.744-49.252-37.133-69.218-37.133-69.218
			c-13.876,4.108-26.424,10.76-37.726,19.036c-60.696,44.47-85.363,136.137-85.363,136.137h24.983
			c26.026-30.665,61.013-37.44,79.784-38.737c7.296-0.501,12.231-7.694,9.963-14.653c-3.362-10.351-8.001-18.648-8.001-18.648
			c15.797-4.087,30.307-3.178,40.423-1.431c4.383,0.756,8.491-1.114,10.913-4.302C433.181,424.499,434.059,421.627,433.641,418.541z
			"/>
		<path style="fill:#87543D;" d="M153.212,368.36c-11.301-8.277-23.849-14.929-37.726-19.036c0,0-30.389,19.966-37.133,69.218
			c-0.419,3.086,0.46,5.957,2.156,8.185c2.422,3.188,6.529,5.058,10.913,4.302c10.116-1.747,24.626-2.657,40.423,1.431
			c0,0-4.639,8.297-8,18.648c-2.269,6.959,2.667,14.152,9.962,14.653c18.771,1.298,53.758,8.072,79.784,38.737h24.984
			C238.576,504.497,213.909,412.829,153.212,368.36z"/>
		<polygon style="fill:#313D40;" points="44.481,218.848 44.481,218.848 467.514,218.848 467.514,173.411 44.481,173.411 		"/>
		<path style="fill:#FBC4AC;" d="M75.284,193.832c-3.267,13.044-5.006,26.647-5.006,40.636c0,97.006,83.149,175.645,185.72,175.645
			s185.72-78.639,185.72-175.645c0-13.989-1.739-27.592-5.006-40.636l-180.714-29.719L75.284,193.832z"/>
		<g id="XMLID_850_">
			<path style="fill:#F98084;" d="M171.504,287.279h-25.791c-4.142,0-7.5-3.358-7.5-7.5s3.358-7.5,7.5-7.5h25.791
				c4.142,0,7.5,3.358,7.5,7.5S175.646,287.279,171.504,287.279z"/>
		</g>
		<g id="XMLID_848_">
			<path style="fill:#F98084;" d="M366.282,287.279h-25.791c-4.142,0-7.5-3.358-7.5-7.5s3.358-7.5,7.5-7.5h25.791
				c4.142,0,7.5,3.358,7.5,7.5S370.424,287.279,366.282,287.279z"/>
		</g>
		<path style="fill:#E3B098;" d="M100.278,234.468c0-5.265,0.247-10.474,0.728-15.62h339.982c-0.798-8.528-2.24-16.881-4.277-25.016
			l-165.714-27.252l-15-2.467L75.284,193.832c-0.364,1.454-0.702,2.918-1.028,4.386c-1.499,6.75-2.6,13.7-3.248,20.623
			c-0.482,5.148-0.729,10.36-0.729,15.627c0,97.006,83.149,175.645,185.72,175.645c5.05,0,10.051-0.198,15-0.572
			C175.443,402.317,100.278,326.697,100.278,234.468z"/>
		<path style="fill:#D4835F;" d="M467.514,146.844H44.481c-12.98,0-23.502,10.522-23.502,23.502v0
			c0,12.98,10.522,23.502,23.502,23.502h423.033c12.98,0,23.502-10.522,23.502-23.502v0
			C491.016,157.366,480.494,146.844,467.514,146.844z"/>
		<path style="fill:#A36549;" d="M80.979,170.346L80.979,170.346c0-12.98,10.522-23.502,23.502-23.502h-60
			c-12.98,0-23.502,10.522-23.502,23.502l0,0c0,12.979,10.522,23.502,23.502,23.502h60
			C91.501,193.848,80.979,183.325,80.979,170.346z"/>
	</g>
	<g>
		<path d="M158.608,259.443c4.143,0,7.5-3.358,7.5-7.5v-18.936c0-4.143-3.357-7.5-7.5-7.5c-4.142,0-7.5,3.357-7.5,7.5v18.936
			C151.108,256.085,154.467,259.443,158.608,259.443z"/>
		<path d="M353.386,259.443c4.142,0,7.5-3.358,7.5-7.5v-18.936c0-4.143-3.358-7.5-7.5-7.5s-7.5,3.357-7.5,7.5v18.936
			C345.886,256.085,349.244,259.443,353.386,259.443z"/>
		<path d="M255.997,286.207c8.953,0,17.36-3.744,23.065-10.271c2.726-3.119,2.408-7.857-0.711-10.583s-7.857-2.407-10.583,0.711
			c-2.857,3.268-7.148,5.143-11.772,5.143c-4.625,0-8.915-1.875-11.772-5.143c-2.726-3.119-7.464-3.438-10.583-0.711
			c-3.119,2.726-3.437,7.464-0.711,10.583C238.636,282.463,247.044,286.207,255.997,286.207z"/>
		<path d="M446.498,139.341l-26.836-87.84c-5.107-16.716-16.072-31.044-30.875-40.345c-14.8-9.298-32.467-12.962-49.749-10.317
			l-74.281,11.392c-5.812,0.887-11.706,0.887-17.513,0L172.954,0.838c-17.279-2.645-34.946,1.02-49.746,10.318
			c-14.803,9.3-25.768,23.628-30.875,40.344l-26.836,87.841H44.48c-17.094,0-31.002,13.907-31.002,31.002
			c0,14.508,10.02,26.716,23.502,30.08v170.824c0,25.545,11.547,49.8,31.143,65.993c-7.108,20.015-10.706,42.565-10.706,67.255
			c0,4.142,3.358,7.5,7.5,7.5h382.16c4.142,0,7.5-3.358,7.5-7.5c0-24.689-3.597-47.24-10.706-67.255
			c19.596-16.192,31.143-40.448,31.143-65.993V200.422c13.482-3.363,23.502-15.571,23.502-30.08
			c0-17.095-13.907-31.002-31.002-31.002H446.498z M88.769,114.49h69.505c4.143,0,7.5-3.358,7.5-7.5s-3.357-7.5-7.5-7.5H93.352
			l13.326-43.606c8.323-27.239,35.84-44.53,64.004-40.219l74.292,11.394c7.314,1.117,14.732,1.117,22.051,0l74.284-11.393
			c28.166-4.311,55.685,12.979,64.007,40.219l13.326,43.606H188.274c-4.142,0-7.5,3.358-7.5,7.5s3.358,7.5,7.5,7.5h234.951
			l7.589,24.851H81.18L88.769,114.49z M434.217,234.465c0,92.715-79.949,168.145-178.22,168.145S77.777,327.18,77.777,234.465
			c0-11.136,1.165-22.251,3.466-33.12h349.508C433.052,212.215,434.217,223.329,434.217,234.465z M425.512,422.186
			c-0.847,1.112-2.286,1.686-3.665,1.448c-14.417-2.486-29.395-2.11-43.578,1.561c-4.678,1.211-7.024,6.691-4.671,10.916
			c0.043,0.077,4.342,7.842,7.42,17.319c0.753,2.313-0.974,4.682-3.35,4.845c-17.916,1.225-35.782,6.046-51.643,14.53
			c-11.563,6.185-22.195,14.395-31.025,24.189h-11.402c0.018-0.055,0.038-0.114,0.057-0.169
			c11.342-33.878,27.629-67.099,50.56-94.68c0.076-0.091,0.152-0.182,0.228-0.272c23.529-9.924,45.048-24.468,62.708-42.344
			c2.663,2.461,6.172,6.104,9.832,11.018c10.174,13.659,16.642,30.148,19.224,49.002
			C426.373,420.757,425.923,421.646,425.512,422.186z M283.494,456.308c-6.052,13.248-11.297,26.813-15.692,40.699
			c-7.8-0.311-15.713-0.014-23.538-0.014c-0.008,0-0.072,0.007-0.078,0c-6.295-20.337-14.6-40.044-24.637-58.815
			c-4.995-9.342-10.412-18.493-16.41-27.229c-0.077-0.113-0.152-0.228-0.229-0.341c3.052,0.827,6.13,1.555,9.219,2.236
			c14.284,3.149,29.158,4.764,43.868,4.764c14.511,0,29.061-1.532,43.241-4.627c3.299-0.721,6.587-1.49,9.846-2.374
			c-0.739,1.086-1.473,2.176-2.2,3.27C297.953,427.35,290.209,441.609,283.494,456.308z M216.993,496.994
			c-0.055-0.061-0.111-0.118-0.166-0.178c-4.179-4.626-8.77-8.909-13.658-12.777c-19.56-15.476-44.068-24.067-68.848-25.765
			c-2.345-0.161-4.094-2.544-3.343-4.853c3.074-9.467,7.372-17.23,7.414-17.306c2.357-4.228,0.006-9.712-4.668-10.92
			c-8.202-2.121-16.682-3.147-25.151-3.147c-6.132,0-12.332,0.534-18.426,1.586c-2.352,0.404-4.696-1.652-4.363-4.078
			c2.582-18.854,9.045-35.336,19.211-48.992c3.668-4.927,7.185-8.578,9.845-11.038c17.66,17.876,39.181,32.421,62.71,42.346
			c0.855,1.026,1.704,2.059,2.539,3.101c15.688,19.562,27.948,41.746,37.86,64.723c3.767,8.814,7.339,17.987,10.405,27.177
			c0.013,0.04,0.027,0.082,0.04,0.121H216.993z M51.98,371.246V201.345h13.974c-2.101,10.898-3.177,21.998-3.177,33.12
			c0,43.008,15.729,82.595,42.011,113.881c-10.083,9.206-28.62,30.872-33.866,69.184c-0.074,0.542-0.114,1.083-0.141,1.623
			C58.835,406.218,51.98,389.114,51.98,371.246z M83.908,437.833c0.039,0.012,0.079,0.021,0.118,0.033
			c2.771,0.831,5.792,1.048,8.673,0.55c9.396-1.623,19.038-1.804,28.17-0.51c-1.362,3.118-2.846,6.845-4.154,10.873
			c-3.72,11.452,4.623,23.639,16.576,24.46c18.219,1.251,36.273,6.653,51.785,16.378c3.568,2.237,6.993,4.703,10.246,7.377H72.537
			C73.241,475.14,77.054,455.306,83.908,437.833z M316.672,496.994c10.775-8.864,23.385-15.237,36.731-19.21
			c8.222-2.437,16.74-3.962,25.296-4.545c11.95-0.815,20.297-13.018,16.583-24.452c-1.31-4.032-2.795-7.762-4.158-10.881
			c9.133-1.294,18.774-1.113,28.171,0.51c2.88,0.497,5.883,0.304,8.678-0.551c0.037-0.012,0.075-0.02,0.112-0.032
			c6.853,17.473,10.667,37.308,11.371,59.161H316.672z M460.014,371.246c0,17.868-6.855,34.973-18.802,47.907
			c-0.026-0.542-0.067-1.086-0.141-1.632c-5.218-38.106-23.823-59.893-33.888-69.147c26.295-31.291,42.034-70.888,42.034-113.909
			c0-11.121-1.076-22.221-3.177-33.12h13.974V371.246z M483.515,170.343c0,8.823-7.178,16.002-16.002,16.002H44.48
			c-8.823,0-16.002-7.179-16.002-16.002c0-8.824,7.179-16.002,16.002-16.002h423.033
			C476.337,154.341,483.515,161.519,483.515,170.343z"/>
	</g>
</g>
<g>
</g>
<g>
</g>
<g>
</g>
<g>
</g>
<g>
</g>
<g>
</g>
<g>
</g>
<g>
</g>
<g>
</g>
<g>
</g>
<g>
</g>
<g>
</g>
<g>
</g>
<g>
</g>
<g>
</g>
</svg>
