<?xml version="1.0" encoding="iso-8859-1"?>
<!-- Generator: Adobe Illustrator 19.0.0, SVG Export Plug-In . SVG Version: 6.00 Build 0)  -->
<svg version="1.1" id="Layer_1" xmlns="http://www.w3.org/2000/svg" xmlns:xlink="http://www.w3.org/1999/xlink" x="0px" y="0px"
	 viewBox="0 0 512 512" style="enable-background:new 0 0 512 512;" xml:space="preserve">
<g>
	<g>
		<polygon style="fill:#EFEDEE;" points="269.133,381.795 242.868,381.795 223.339,454.328 242.868,504.5 269.133,504.5 
			292.366,453.992 		"/>
		<path style="fill:#3A484A;" d="M142.458,381.796c0,0-75.742,8.324-75.742,122.705h49.362l7.5-6.001l7.5,6.001h111.79V381.796
			H142.458z"/>
		<g>
			<path style="fill:#313D40;" d="M165.458,381.796h-23c0,0-75.742,8.324-75.742,122.705h23
				C89.716,390.119,165.458,381.796,165.458,381.796z"/>
		</g>
		<path style="fill:#3A484A;" d="M369.543,381.796h-100.41V504.5h111.79l7.5-4.287l7.5,4.287h49.362
			C445.285,390.119,369.543,381.796,369.543,381.796z"/>
		<circle style="fill:#937FE6;" cx="256" cy="221.654" r="214.154"/>
		<path style="fill:#E3B098;" d="M398.524,127.669c17.819,26.961,28.194,59.256,28.194,93.986
			c0,94.289-76.429,170.717-170.717,170.717c-81.308,0-149.332-56.832-166.515-132.937l54.358-86.21L398.524,127.669z"/>
		<path style="fill:#A36549;" d="M398.524,127.659v0.01c0,0-39.487,115.199-142.524,122.27l13.132-40.407
			c0,0-46.467,49.498-106.067,54.549l20.203-42.427c0,0-48.316,44.983-93.784,37.78c-2.758-12.152-4.202-24.799-4.202-37.78
			c0-94.289,76.429-170.717,170.717-170.717C315.56,50.937,367.987,81.434,398.524,127.659z"/>
		<path style="fill:#C99C87;" d="M119.485,259.435c-2.758-12.152-4.202-24.8-4.202-37.78c0-1.068,0.019-2.132,0.038-3.195
			l-25.836,40.976C106.668,335.54,174.693,392.372,256,392.372c1.34,0,2.675-0.02,4.007-0.051c0.776-0.019,1.549-0.049,2.322-0.078
			c0.49-0.018,0.98-0.034,1.469-0.056c1.037-0.048,2.072-0.105,3.104-0.171c0.173-0.011,0.346-0.021,0.52-0.033
			c1.169-0.078,2.336-0.166,3.499-0.267c0,0,0.001,0,0.002,0C196.39,385.195,135.594,330.785,119.485,259.435z"/>
		<path style="fill:#87543D;" d="M119.118,257.705c-2.509-11.623-3.835-23.683-3.835-36.051
			c0-89.224,68.443-162.442,155.691-170.052c-2.004-0.174-4.019-0.307-6.041-0.415c-2.96-0.158-5.927-0.249-8.891-0.25
			c-0.014,0-0.028,0-0.042,0c-73.663,0-136.425,46.648-160.359,112.017c-9.57,26.139-12.58,54.916-8.701,82.584
			c0.654,4.665,1.503,9.302,2.545,13.896C99.404,261.006,109.459,260.092,119.118,257.705z"/>
		<g id="XMLID_846_">
			<path style="fill:#F98084;" d="M181.244,297.172h-22.819c-4.142,0-7.5-3.358-7.5-7.5s3.358-7.5,7.5-7.5h22.819
				c4.142,0,7.5,3.358,7.5,7.5S185.386,297.172,181.244,297.172z"/>
		</g>
		<g id="XMLID_844_">
			<path style="fill:#F98084;" d="M353.576,297.172h-22.819c-4.142,0-7.5-3.358-7.5-7.5s3.358-7.5,7.5-7.5h22.819
				c4.142,0,7.5,3.358,7.5,7.5S357.718,297.172,353.576,297.172z"/>
		</g>
	</g>
	<g>
		<path d="M342.166,272.546c4.142,0,7.5-3.358,7.5-7.5v-16.754c0-4.143-3.358-7.5-7.5-7.5s-7.5,3.357-7.5,7.5v16.754
			C334.666,269.188,338.024,272.546,342.166,272.546z"/>
		<path d="M256,296.226c8.171,0,15.846-3.42,21.059-9.382c2.726-3.119,2.408-7.857-0.711-10.583s-7.857-2.408-10.583,0.711
			c-2.363,2.704-5.922,4.254-9.765,4.254s-7.401-1.551-9.765-4.255c-2.726-3.119-7.464-3.437-10.583-0.71
			c-3.119,2.726-3.437,7.464-0.711,10.583C240.154,292.806,247.829,296.226,256,296.226z"/>
		<path d="M143.978,360.273c31.56,25.536,71.343,39.599,112.022,39.599c98.27,0,178.218-79.948,178.218-178.217
			c0-35.027-10.164-68.93-29.392-98.052c-0.016-0.025-0.027-0.053-0.043-0.078C371.652,73.376,316.033,43.437,256,43.437
			c-35.724,0-70.19,10.531-99.673,30.456c-3.432,2.319-4.334,6.981-2.015,10.413c2.319,3.432,6.981,4.334,10.413,2.015
			C191.719,68.079,223.281,58.437,256,58.437c53.715,0,103.574,26.175,134.139,70.214c-0.037,0.094-0.072,0.182-0.11,0.279
			c-0.036,0.09-0.072,0.181-0.11,0.275c-13.237,33.267-35.262,64.963-63.985,86.647c-17.23,13.008-37.707,22.04-59.212,25.359
			l9.542-29.36c1.074-3.3-0.329-7.008-3.315-8.773c-2.953-1.746-6.946-1.171-9.286,1.322c-0.409,0.436-38.175,40.129-87.806,50.262
			l14.182-29.782c1.52-3.193,0.519-7.173-2.333-9.267c-2.9-2.131-6.907-1.899-9.544,0.549c-0.394,0.365-39.828,36.552-78.541,36.554
			c-0.27,0-3.875,0.057-3.91-0.136c-1.944-10.118-2.929-20.496-2.929-30.925c0-44.518,17.604-86.117,49.57-117.136
			c2.973-2.885,3.044-7.633,0.159-10.605c-2.885-2.973-7.633-3.043-10.605-0.159c-34.902,33.869-54.124,79.292-54.124,127.901
			c0,13.333,1.476,26.598,4.387,39.432C90.93,299.886,112.88,335.111,143.978,360.273z M253.52,233.305
			c0,0-4.651,14.311-4.652,14.315c-0.856,2.634-0.126,5.671,1.834,7.626c1.583,1.58,3.793,2.239,5.992,2.164
			c2.702-0.092,5.402-0.455,8.081-0.794c24.974-3.161,48.69-13.132,68.935-28.001c19.06-13.999,34.927-31.945,47.899-51.639
			c6.759-10.26,12.77-21.017,17.916-32.174c0.075-0.162,0.156-0.333,0.229-0.493c12.771,23.676,19.464,50.14,19.464,77.345
			c0,89.999-73.219,163.217-163.218,163.217c-37.255,0-73.688-12.877-102.587-36.26c-25.807-20.881-44.735-49.319-54.031-80.896
			c0.062,0,0.125,0,0.187,0c0.022,0,0.044,0.001,0.067,0.001c23.856-0.002,47.03-11.095,63.719-21.689
			c0,0-7.057,14.819-7.061,14.829c-1.443,3.031-0.64,6.736,1.885,8.908c1.448,1.246,3.585,1.955,5.52,1.79
			C201.395,268.36,233.654,248.654,253.52,233.305z"/>
		<path d="M477.654,221.654c0-59.206-23.056-114.869-64.921-156.733S315.206,0,256,0S141.131,23.056,99.267,64.921
			s-64.921,97.527-64.921,156.733s23.056,114.869,64.921,156.733c3.159,3.159,6.406,6.198,9.718,9.141
			c-11.691,7.81-21.767,18.417-29.49,31.162c-13.456,22.207-20.279,51.078-20.279,85.81c0,4.142,3.358,7.5,7.5,7.5h378.568
			c4.142,0,7.5-3.358,7.5-7.5c0-34.732-6.823-63.603-20.279-85.81c-7.723-12.746-17.799-23.352-29.49-31.162
			c3.312-2.943,6.559-5.981,9.718-9.141C454.598,336.523,477.654,280.86,477.654,221.654z M49.346,221.654
			C49.346,107.705,142.05,15,256,15s206.654,92.705,206.654,206.654c0,89.702-57.455,166.226-137.493,194.736
			c-2.043-6.708-3.738-11.12-3.917-11.581c-1.499-3.861-5.844-5.777-9.706-4.277c-3.861,1.499-5.776,5.845-4.277,9.706
			c0.041,0.105,1.639,4.27,3.582,10.669c-7.521,2.072-15.208,3.738-23.043,4.954c-21.029,3.262-42.572,3.268-63.602,0
			c-7.833-1.215-15.517-2.88-23.036-4.952c1.934-6.376,3.525-10.538,3.577-10.672c1.498-3.861-0.417-8.205-4.278-9.704
			c-3.86-1.5-8.207,0.416-9.706,4.277c-0.179,0.46-1.874,4.872-3.917,11.581C106.801,387.88,49.346,311.356,49.346,221.654z
			 M92.323,426.464c7.533-12.433,17.211-22.127,28.812-28.876c18.822,14.489,39.655,25.731,61.807,33.441
			c-1.311,5.763-2.462,12.056-3.147,18.446c-3.963,2.345-6.629,6.65-6.629,11.588c0,7.438,6.03,13.469,13.469,13.469
			c7.438,0,13.469-6.03,13.469-13.469c0-4.371-2.091-8.243-5.317-10.704c0.578-5.083,1.492-10.138,2.539-14.864
			c12.371,3.373,25.089,5.672,38.042,6.86V497h-104.29v-35.937c0-4.142-3.358-7.5-7.5-7.5s-7.5,3.358-7.5,7.5V497H74.331
			C75.22,468.42,81.261,444.72,92.323,426.464z M250.368,443.238c1.874,0.046,9.39,0.046,11.264,0V497h-11.264V443.238z
			 M419.677,426.464C430.739,444.72,436.78,468.42,437.669,497h-41.747v-35.937c0-4.142-3.358-7.5-7.5-7.5s-7.5,3.358-7.5,7.5V497
			H276.632v-54.646c12.955-1.188,25.676-3.487,38.049-6.862c1.045,4.724,1.957,9.777,2.534,14.865
			c-3.227,2.46-5.319,6.334-5.319,10.706c0,7.438,6.03,13.469,13.469,13.469c7.438,0,13.469-6.03,13.469-13.469
			c0-4.938-2.666-9.244-6.629-11.588c-0.684-6.391-1.836-12.684-3.147-18.446c22.152-7.71,42.985-18.952,61.807-33.441
			C402.465,404.336,412.144,414.031,419.677,426.464z"/>
	</g>
</g>
<g>
</g>
<g>
</g>
<g>
</g>
<g>
</g>
<g>
</g>
<g>
</g>
<g>
</g>
<g>
</g>
<g>
</g>
<g>
</g>
<g>
</g>
<g>
</g>
<g>
</g>
<g>
</g>
<g>
</g>
</svg>
