<?xml version="1.0" encoding="iso-8859-1"?>
<!-- Generator: Adobe Illustrator 19.0.0, SVG Export Plug-In . SVG Version: 6.00 Build 0)  -->
<svg version="1.1" id="Layer_1" xmlns="http://www.w3.org/2000/svg" xmlns:xlink="http://www.w3.org/1999/xlink" x="0px" y="0px"
	 viewBox="0 0 512 512" style="enable-background:new 0 0 512 512;" xml:space="preserve">
<g>
	<g>
		<path style="fill:#FF8840;" d="M453.694,504.168c0-119.461-79.107-128.154-79.107-128.154H137.415
			c0,0-79.107,8.692-79.107,128.154h62.424l-0.002-0.001l7.5-5.628l7.5,5.628l-0.002,0.001h30.229L256,479.177l90.044,24.991h30.23
			l-0.002-0.001l7.5-3.482l7.5,3.482l-0.002,0.001H453.694z"/>
		<path style="fill:#E6742E;" d="M163.415,376.014h-26c0,0-79.107,8.692-79.107,128.154h26
			C84.307,384.707,163.415,376.014,163.415,376.014z"/>
		<path style="fill:#D4D2D3;" d="M346.044,469.7v34.468H165.957V469.7c0-12.586,10.202-22.777,22.788-22.777h134.512
			C335.842,446.922,346.044,457.114,346.044,469.7z"/>
		<path style="fill:#BAB8B9;" d="M208.745,446.922h-20c-12.586,0-22.788,10.191-22.788,22.777v34.468h20V469.7
			C185.957,457.114,196.159,446.922,208.745,446.922z"/>
		<ellipse style="fill:#EFEDEE;" cx="55.792" cy="214.077" rx="48.291" ry="58.688"/>
		<ellipse style="fill:#EFEDEE;" cx="456.209" cy="214.077" rx="48.291" ry="58.688"/>
		<path style="fill:#D4D2D3;" d="M481.917,164.405c-7.446-5.704-16.256-9.016-25.708-9.016c-26.671,0-48.292,26.275-48.292,58.688
			c0,32.413,21.621,58.688,48.292,58.688c9.452,0,18.262-3.313,25.708-9.016c3.514-16.135,5.329-32.763,5.329-49.672
			S485.431,180.54,481.917,164.405z"/>
		<path style="fill:#D4D2D3;" d="M55.792,155.389c-9.452,0-18.262,3.313-25.707,9.016c-3.514,16.135-5.329,32.763-5.329,49.672
			s1.815,33.537,5.329,49.672c7.446,5.704,16.256,9.016,25.707,9.016c26.671,0,48.292-26.275,48.292-58.688
			C104.083,181.665,82.463,155.389,55.792,155.389z"/>
		<circle style="fill:#E6742E;" cx="256" cy="214.077" r="206.245"/>
		<circle style="fill:#FF8840;" cx="256" cy="214.077" r="157.953"/>
		<path style="fill:#FBC4AC;" d="M376.216,170.783c-4.574-12.656-16.583-21.095-30.041-21.095H165.826
			c-13.457,0-25.466,8.439-30.041,21.095c-4.888,13.525-7.556,28.103-7.556,43.294s2.667,29.769,7.556,43.294
			c4.574,12.656,16.583,21.095,30.041,21.095h180.35c13.457,0,25.466-8.439,30.041-21.095c4.888-13.525,7.556-28.103,7.556-43.294
			S381.104,184.308,376.216,170.783z"/>
		<path style="fill:#E3B098;" d="M155.785,257.371c-4.888-13.525-7.556-28.103-7.556-43.294c0-15.19,2.667-29.769,7.556-43.293
			c4.574-12.656,16.583-21.095,30.041-21.095h-20c-13.457,0-25.466,8.439-30.041,21.095c-4.888,13.525-7.556,28.103-7.556,43.293
			c0,15.191,2.667,29.769,7.556,43.294c4.574,12.656,16.583,21.095,30.041,21.095h20
			C172.368,278.465,160.359,270.026,155.785,257.371z"/>
		<g id="XMLID_959_">
			<path style="fill:#F98084;" d="M188.89,240.15h-20.485c-4.142,0-7.5-3.358-7.5-7.5s3.358-7.5,7.5-7.5h20.485
				c4.142,0,7.5,3.358,7.5,7.5S193.033,240.15,188.89,240.15z"/>
		</g>
		<g id="XMLID_957_">
			<path style="fill:#F98084;" d="M343.596,240.15h-20.485c-4.142,0-7.5-3.358-7.5-7.5s3.358-7.5,7.5-7.5h20.485
				c4.142,0,7.5,3.358,7.5,7.5S347.738,240.15,343.596,240.15z"/>
		</g>
	</g>
	<g>
		<path d="M352.931,348.165c20.759-15.031,37.987-34.956,49.822-57.619c12.234-23.426,18.7-49.869,18.7-76.469
			c0-91.231-74.222-165.453-165.453-165.453S90.547,122.846,90.547,214.077c0,91.231,74.222,165.454,165.453,165.454
			c24.015,0,47.187-5.041,68.872-14.983c3.766-1.726,5.418-6.178,3.692-9.943s-6.179-5.418-9.943-3.692
			c-19.71,9.036-40.778,13.618-62.621,13.618c-82.96,0-150.453-67.493-150.453-150.454c0-82.96,67.493-150.453,150.453-150.453
			s150.453,67.493,150.453,150.453c0,48.098-23.297,93.683-62.319,121.938c-3.355,2.429-4.105,7.118-1.676,10.474
			C344.887,349.843,349.576,350.594,352.931,348.165z"/>
		<path d="M383.269,259.92c5.31-14.69,8.002-30.114,8.002-45.843c0-15.727-2.692-31.151-8.002-45.843
			c-5.631-15.579-20.538-26.046-37.094-26.046h-180.35c-16.557,0-31.463,10.467-37.094,26.046
			c-5.311,14.691-8.003,30.115-8.003,45.843s2.692,31.151,8.002,45.843c5.631,15.579,20.538,26.045,37.094,26.045h180.35
			C362.731,285.965,377.638,275.499,383.269,259.92z M142.838,254.821c-4.718-13.052-7.109-26.761-7.109-40.745
			s2.392-27.692,7.109-40.744c3.49-9.656,12.728-16.145,22.987-16.145h180.35c10.259,0,19.497,6.488,22.987,16.145
			c4.717,13.052,7.109,26.76,7.109,40.744c0,13.985-2.392,27.693-7.109,40.745c-3.49,9.656-12.728,16.144-22.987,16.144h-180.35
			C155.566,270.965,146.328,264.478,142.838,254.821z"/>
		<path d="M178.647,218.043c4.142,0,7.5-3.358,7.5-7.5v-15.04c0-4.143-3.358-7.5-7.5-7.5s-7.5,3.357-7.5,7.5v15.04
			C171.147,214.686,174.505,218.043,178.647,218.043z"/>
		<path d="M333.353,218.043c4.142,0,7.5-3.358,7.5-7.5v-15.04c0-4.143-3.358-7.5-7.5-7.5s-7.5,3.357-7.5,7.5v15.04
			C325.853,214.686,329.21,218.043,333.353,218.043z"/>
		<path d="M274.771,220.033c-3.118-2.726-7.856-2.408-10.583,0.711c-1.976,2.261-4.96,3.557-8.188,3.557
			c-3.228,0-6.212-1.296-8.188-3.557c-2.727-3.119-7.464-3.437-10.583-0.711c-3.119,2.726-3.437,7.464-0.711,10.583
			c4.825,5.52,11.926,8.686,19.482,8.686c7.556,0,14.657-3.166,19.482-8.685C278.208,227.497,277.89,222.759,274.771,220.033z"/>
		<circle cx="209.05" cy="477.165" r="11.402"/>
		<circle cx="302.95" cy="477.165" r="11.402"/>
		<circle cx="256" cy="477.165" r="11.402"/>
		<path d="M104.859,365.217c3.431,3.431,6.965,6.719,10.581,9.885c-10.201,4.708-22.851,12.79-34.227,26.537
			c-20.176,24.381-30.407,58.876-30.407,102.528c0,4.142,3.358,7.5,7.5,7.5h395.387c4.142,0,7.5-3.358,7.5-7.5
			c0-43.652-10.23-78.147-30.407-102.528c-11.376-13.748-24.026-21.829-34.227-26.537c3.616-3.166,7.15-6.455,10.581-9.885
			c24.264-24.264,41.965-53.337,52.236-85.067c29.294-1.956,52.623-30.84,52.623-66.074s-23.329-64.118-52.623-66.074
			c-10.271-31.729-27.972-60.803-52.236-85.066C366.77,22.565,313.093,0.332,256,0.332c-46.157,0-90.108,14.486-127.104,41.893
			c-3.329,2.465-4.028,7.163-1.562,10.491c2.465,3.329,7.162,4.028,10.491,1.562C172.218,28.799,213.082,15.332,256,15.332
			c95.854,0,176.076,68.21,194.678,158.64c0.01,0.051,0.021,0.102,0.032,0.152c5.271,26.104,5.379,53.653,0,79.905
			c-0.01,0.05-0.021,0.101-0.032,0.151c-17.909,87.063-92.936,153.526-184.038,158.355c-7.087,0.362-14.193,0.367-21.28,0
			c-91.103-4.83-166.129-71.292-184.038-158.355c-0.01-0.05-0.021-0.101-0.032-0.151c-6.55-32.126-5.101-65.835,4.312-97.25
			c9.366-31.274,26.426-59.911,50.235-83.598c2.937-2.921,2.949-7.67,0.027-10.606c-2.922-2.937-7.67-2.949-10.606-0.027
			c-24.472,24.346-42.309,53.556-52.635,85.456C23.328,149.959,0,178.843,0,214.077c0,35.234,23.329,64.118,52.623,66.074
			C62.894,311.88,80.596,340.954,104.859,365.217z M497,214.077c0,24.964-14.316,45.811-33.187,50.294
			c2.43-10.121,4.125-20.463,5.061-30.966c1.145-12.855,1.156-25.802,0-38.657c-0.935-10.502-2.631-20.845-5.061-30.965
			C482.684,168.266,497,189.113,497,214.077z M173.457,469.7c0-7.371,5.25-13.54,12.21-14.966c0.994-0.204,2.023-0.311,3.077-0.311
			h134.512c8.429,0,15.287,6.854,15.287,15.277v26.968H173.457V469.7z M419.23,411.203c16.759,20.251,25.779,48.979,26.854,85.465
			h-54.813v-56.579c0-4.142-3.358-7.5-7.5-7.5s-7.5,3.358-7.5,7.5v56.579h-22.728V469.7c0-16.695-13.587-30.277-30.288-30.277
			H188.744c-1.566,0-3.104,0.119-4.606,0.35c-14.522,2.225-25.682,14.798-25.682,29.928v26.968h-22.728v-56.579
			c0-4.142-3.358-7.5-7.5-7.5s-7.5,3.358-7.5,7.5v56.579H65.916c1.075-36.486,10.095-65.214,26.854-85.465
			c12.584-15.207,26.873-22.194,36.002-25.319c14.676,10.916,30.576,19.808,47.348,26.56c50.769,20.437,108.994,20.435,159.76,0
			c16.772-6.751,32.672-15.644,47.348-26.56C392.358,389.008,406.646,395.996,419.23,411.203z M15,214.077
			c0-24.963,14.316-45.81,33.185-50.294c-2.431,10.126-4.126,20.476-5.061,30.986c-1.145,12.849-1.159,25.788,0.002,38.636
			c0.935,10.503,2.631,20.846,5.061,30.967C29.317,259.888,15,239.041,15,214.077z"/>
	</g>
</g>
<g>
</g>
<g>
</g>
<g>
</g>
<g>
</g>
<g>
</g>
<g>
</g>
<g>
</g>
<g>
</g>
<g>
</g>
<g>
</g>
<g>
</g>
<g>
</g>
<g>
</g>
<g>
</g>
<g>
</g>
</svg>
