<?xml version="1.0" encoding="iso-8859-1"?>
<!-- Generator: Adobe Illustrator 19.0.0, SVG Export Plug-In . SVG Version: 6.00 Build 0)  -->
<svg version="1.1" id="Layer_1" xmlns="http://www.w3.org/2000/svg" xmlns:xlink="http://www.w3.org/1999/xlink" x="0px" y="0px"
	 viewBox="0 0 511.994 511.994" style="enable-background:new 0 0 511.994 511.994;" xml:space="preserve">
<g>
	<g>
		<path style="fill:#3A484A;" d="M371.06,380.15h-43.169l0,0l0,0l-31.265,62.173l31.265,62.174l0,0l0,0h63.186l7.5-3.152l7.5,3.152
			h41.739C447.816,388.585,371.06,380.15,371.06,380.15z"/>
		<path style="fill:#3A484A;" d="M184.104,380.15h-43.169c0,0-76.756,8.435-76.756,124.347h41.739l7.5-3.652l7.5,3.652h63.186
			l31.265-62.174L184.104,380.15z"/>
		<g>
			<path style="fill:#313D40;" d="M163.935,380.15h-23c0,0-76.756,8.435-76.756,124.347h23
				C87.179,388.585,163.935,380.15,163.935,380.15z"/>
		</g>
		<rect x="184.104" y="380.15" style="fill:#EFEDEE;" width="143.787" height="124.347"/>
		<circle style="fill:#E3B098;" cx="255.997" cy="409.412" r="43.549"/>
		<path style="fill:#3A484A;" d="M416.196,54.789c-9.697-31.736-41.224-51.538-74.027-46.517l-76.046,11.663
			c-6.715,1.025-13.536,1.025-20.251,0L169.826,8.272c-32.803-5.021-64.33,14.78-74.027,46.517L79.125,109.35l176.872,20.397
			l176.872-20.397L416.196,54.789z"/>
		<g>
			<path style="fill:#313D40;" d="M119.125,109.35l16.674-54.561c6.813-22.299,24.409-38.69,45.648-44.734l-11.621-1.782
				c-32.803-5.021-64.33,14.781-74.027,46.517L79.125,109.35l176.872,20.397l20-2.307L119.125,109.35z"/>
		</g>
		<polygon style="fill:#EFEDEE;" points="432.869,109.35 79.125,109.35 66.667,150.145 255.997,174.203 445.328,150.145 		"/>
		<polygon style="fill:#D4D2D3;" points="106.667,150.145 119.125,109.35 79.125,109.35 66.667,150.145 255.997,174.203 
			275.997,171.661 		"/>
		<circle style="fill:#C99C87;" cx="446.116" cy="239.844" r="42.921"/>
		<path style="fill:#E3B098;" d="M71.003,198.246c-3.345,13.353-5.124,27.279-5.124,41.599c0,99.304,85.119,179.805,190.119,179.805
			s190.119-80.502,190.119-179.805c0-14.32-1.78-28.246-5.124-41.599l-184.994-30.423L71.003,198.246z"/>
		<path style="fill:#C99C87;" d="M95.879,239.844c0-14.32,1.78-28.246,5.124-41.599l169.994-27.957l-15-2.467L73.694,197.803
			c-2.253-0.576-4.841-0.879-7.816-0.879c-23.704,0-42.921,19.216-42.921,42.92c0,23.705,19.216,42.921,42.921,42.921
			c1.955,0,3.728-0.143,5.363-0.396c20.201,78.777,95.248,137.28,184.755,137.28c5.049,0,10.051-0.19,15-0.556
			C173.01,411.86,95.879,334.373,95.879,239.844z"/>
		<g>
			<path style="fill:#313D40;" d="M180.238,179.439l-85.015,18.806l5.989,38.974c2.181,14.189,14.388,24.664,28.744,24.664h58.191
				c13.998,0,26.498-8.762,31.272-21.921l15.135-41.716L180.238,179.439z"/>
			<path style="fill:#313D40;" d="M331.756,179.439l85.015,18.806l-5.989,38.974c-2.181,14.189-14.388,24.664-28.744,24.664h-58.191
				c-13.998,0-26.498-8.762-31.272-21.921l-15.135-41.716L331.756,179.439z"/>
		</g>
		<path style="fill:#3A484A;" d="M472.524,150.145H39.471c-13.287,0-24.059,10.771-24.059,24.058v0
			c0,13.287,10.771,24.059,24.059,24.059h433.054c13.287,0,24.059-10.771,24.059-24.059v0
			C496.583,160.916,485.811,150.145,472.524,150.145z"/>
		<path style="fill:#313D40;" d="M55.412,174.203L55.412,174.203c0-13.287,10.771-24.058,24.059-24.058h-40
			c-13.287,0-24.059,10.771-24.059,24.058l0,0c0,13.287,10.771,24.059,24.059,24.059h40
			C66.183,198.262,55.412,187.49,55.412,174.203z"/>
	</g>
	<g>
		<path d="M278.398,270.881c-3.12-2.727-7.857-2.408-10.583,0.71c-2.869,3.281-7.176,5.164-11.819,5.164
			c-4.643,0-8.951-1.882-11.819-5.164c-2.726-3.119-7.464-3.437-10.583-0.711c-3.119,2.726-3.438,7.464-0.711,10.583
			c5.717,6.54,14.141,10.292,23.113,10.292c8.972,0,17.395-3.751,23.112-10.292C281.835,278.345,281.517,273.607,278.398,270.881z"
			/>
		<path d="M65.657,290.256c10.056,34.061,30.037,64.228,56.791,87.517c-9.345,3.909-21.227,10.756-32.31,22.646
			c-22.202,23.819-33.46,58.834-33.46,104.074c0,4.142,3.358,7.5,7.5,7.5h383.637c4.143,0,7.5-3.358,7.5-7.5
			c0-45.24-11.257-80.255-33.46-104.074c-11.083-11.89-22.964-18.738-32.31-22.646c26.753-23.289,46.735-53.457,56.791-87.517
			c27.701-0.12,50.201-22.687,50.201-50.416c0-13.677-5.485-26.309-14.605-35.515c12.821-4.012,22.15-16,22.15-30.126
			c0-17.401-14.157-31.559-31.559-31.559h-21.645l-10.836-35.485l0-0.001v0l-16.674-54.56
			c-5.216-17.071-16.414-31.704-31.531-41.201C376.722,1.897,358.68-1.845,341.031,0.856L264.99,12.518
			c-5.968,0.911-12.019,0.911-17.982,0.001L170.96,0.855c-17.647-2.701-35.689,1.042-50.803,10.538
			c-15.117,9.498-26.315,24.13-31.531,41.201l-16.673,54.561v0l0,0l-10.837,35.486H39.47c-17.401,0-31.559,14.157-31.559,31.559
			c0,14.126,9.33,26.114,22.15,30.126c-9.12,9.206-14.604,21.838-14.604,35.515C15.458,267.569,37.957,290.136,65.657,290.256z
			 M61.876,275.037c-17.653-1.994-31.419-17.018-31.419-35.196c0-15.895,10.539-29.782,25.74-34.083h5.456
			c0,2.544-1.007,5.578-1.385,8.18c-1.232,8.482-1.891,17.255-1.891,25.902C58.377,251.654,59.547,263.456,61.876,275.037z
			 M223.849,205.758l-11.48,31.643c-3.685,10.156-13.418,16.979-24.222,16.979h-58.19c-10.73,0-19.701-7.698-21.331-18.303
			l-4.659-30.318H223.849z M408.027,205.758l-4.659,30.318c-1.63,10.605-10.601,18.303-21.332,18.303h-58.19
			c-10.804,0-20.537-6.823-24.222-16.979l-11.48-31.643H408.027z M240.565,426.578c10.371,0.765,20.517,0,30.863,0
			c5.797-0.423,11.554-1.079,17.258-1.979c-5.776,12.403-18.382,20.86-32.689,20.86c-14.307,0-26.913-8.457-32.689-20.86
			C229.011,425.499,234.768,426.154,240.565,426.578z M101.111,410.647c13.093-14.046,27.301-19.668,35.096-21.832
			c12.485,9.031,26.041,16.609,40.396,22.584v85.594h-55.686v-34.897c0-4.143-3.358-7.5-7.5-7.5c-4.143,0-7.5,3.357-7.5,7.5v34.897
			H71.791C72.931,459.337,82.78,430.313,101.111,410.647z M191.603,416.965c4.86,1.59,9.774,2.987,14.733,4.207
			c5.365,22.73,25.844,39.286,49.661,39.286c23.817,0,44.296-16.556,49.661-39.286c4.959-1.219,9.873-2.617,14.733-4.207v80.028
			H191.603V416.965z M410.883,410.647c18.331,19.666,28.18,48.69,29.321,86.346h-34.128v-34.897c0-4.143-3.357-7.5-7.5-7.5
			c-4.142,0-7.5,3.357-7.5,7.5v34.897H335.39v-85.595c14.357-5.976,27.912-13.554,40.396-22.583
			C383.582,390.979,397.79,396.602,410.883,410.647z M289.361,409.254c-22.015,3.851-44.743,3.849-66.757-0.005
			C151.5,396.801,94.731,345.362,78.244,279.405c-5.988-24.031-6.429-49.424-1.273-73.647h11.82l5.009,32.597
			c2.763,17.977,17.969,31.025,36.157,31.025h58.19c17.093,0,32.493-10.795,38.322-26.863l13.336-36.759h32.383l13.336,36.759
			c5.829,16.067,21.229,26.863,38.322,26.863h58.19c18.188,0,33.395-13.048,36.157-31.025l5.01-32.597h11.819
			c0.263,1.234,0.515,2.471,0.749,3.711c4.357,23.105,3.68,47.128-2.023,69.939C417.258,345.372,360.477,396.815,289.361,409.254z
			 M450.117,275.037c0.071-0.352,0.13-0.706,0.199-1.058c2.182-11.24,3.3-22.688,3.3-34.138c0-11.427-1.101-22.865-3.276-34.083
			h5.456c15.201,4.301,25.741,18.188,25.741,34.083C481.537,258.019,467.771,273.043,450.117,275.037z M102.971,56.977
			c4.163-13.624,13.1-25.302,25.166-32.883c12.065-7.58,26.467-10.567,40.552-8.412l76.051,11.664
			c7.47,1.141,15.045,1.141,22.52-0.001l76.044-11.663c14.088-2.156,28.489,0.832,40.554,8.412
			c12.065,7.581,21.003,19.259,25.166,32.883l13.712,44.869H182.189c-4.142,0-7.5,3.358-7.5,7.5s3.358,7.5,7.5,7.5h245.128
			l7.877,25.795H76.799l7.877-25.795h67.513c4.143,0,7.5-3.358,7.5-7.5s-3.357-7.5-7.5-7.5h-62.93L102.971,56.977z M22.912,174.2
			c0-9.13,7.428-16.559,16.559-16.559h433.053c9.13,0,16.559,7.428,16.559,16.559s-7.428,16.559-16.559,16.559H39.47
			C30.339,190.758,22.912,183.33,22.912,174.2z"/>
	</g>
</g>
<g>
</g>
<g>
</g>
<g>
</g>
<g>
</g>
<g>
</g>
<g>
</g>
<g>
</g>
<g>
</g>
<g>
</g>
<g>
</g>
<g>
</g>
<g>
</g>
<g>
</g>
<g>
</g>
<g>
</g>
</svg>
