<?xml version="1.0" encoding="iso-8859-1"?>
<!-- Generator: Adobe Illustrator 19.0.0, SVG Export Plug-In . SVG Version: 6.00 Build 0)  -->
<svg version="1.1" id="Layer_1" xmlns="http://www.w3.org/2000/svg" xmlns:xlink="http://www.w3.org/1999/xlink" x="0px" y="0px"
	 viewBox="0 0 512 512" style="enable-background:new 0 0 512 512;" xml:space="preserve">
<g>
	<g>
		<path style="fill:#D4835F;" d="M450.14,461.143c69.652-46.642,9.18-89.999,18.179-132.043s-18.179-64.492-18.179-64.492
			l17.112-55.979c0-53.984-22.149-104.662-62.366-142.698C365.044,28.251,312.169,7.5,256,7.5S146.956,28.251,107.114,65.931
			c-40.217,38.036-62.366,88.713-62.366,142.698l17.112,55.979c0,0-27.178,22.449-18.179,64.492S-7.792,414.501,61.86,461.143
			H450.14z"/>
		<path style="fill:#A36549;" d="M87.681,329.1c-8.999-42.043,18.179-64.492,18.179-64.492l-17.112-55.979
			c0-53.984,22.149-104.662,62.366-142.697C185.708,33.214,230.13,13.27,278,8.581C270.738,7.87,263.399,7.5,256,7.5
			c-56.169,0-109.044,20.751-148.885,58.431c-40.218,38.036-62.366,88.713-62.366,142.697l17.112,55.979
			c0,0-27.177,22.449-18.179,64.492C52.68,371.143-7.792,414.5,61.86,461.143h44C36.208,414.5,96.68,371.143,87.681,329.1z"/>
		<polygon style="fill:#E3B098;" points="156.386,344.137 185.347,421.5 256,467.498 326.653,421.5 355.614,344.137 		"/>
		<rect x="61.86" y="433.113" style="fill:#FBC4AC;" width="70.309" height="71.387"/>
		<rect x="379.831" y="433.113" style="fill:#FBC4AC;" width="70.309" height="71.387"/>
		<path style="fill:#937FE6;" d="M397.306,355.232l-85.591,69.086L276.782,504.5h103.053v-44.018l78.171-22.004
			C453.739,396.254,420.256,369.087,397.306,355.232z"/>
		<path style="fill:#F98084;" d="M397.306,355.232L276.782,504.5h-50.659l129.491-160.363h19.954c0,0,1.783,0.69,4.838,2.099
			C386.2,348.909,391.855,351.914,397.306,355.232z"/>
		<path style="fill:#937FE6;" d="M185.347,421.5l-70.653-66.268c-22.95,13.855-56.434,41.022-60.7,83.246l78.171,22.004V504.5
			h93.957l4.543-5.637L185.347,421.5z"/>
		<g>
			<path style="fill:#DC5A64;" d="M256,467.498l-25.335,31.365L114.694,355.232c0.907-0.552,1.803-1.084,2.68-1.586
				c4.65-2.665,9.352-5.165,14.219-7.41c3.055-1.409,4.838-2.099,4.838-2.099h19.954L256,467.498z"/>
		</g>
		<circle style="fill:#E3B098;" cx="69.383" cy="218.483" r="41.149"/>
		<circle style="fill:#E3B098;" cx="442.617" cy="218.483" r="41.149"/>
		<path style="fill:#FBC4AC;" d="M256,64.028c0,0-45.877,86.332-181.587,103.768c-3.283,13.107-5.03,26.776-5.03,40.832
			c0,97.475,83.551,176.494,186.617,176.494s186.617-79.019,186.617-176.494c0-14.056-1.747-27.725-5.03-40.832
			C301.877,150.36,256,64.028,256,64.028z"/>
		<g id="XMLID_841_">
			<path style="fill:#F98084;" d="M174.519,253.906h-24.872c-4.142,0-7.5-3.358-7.5-7.5s3.358-7.5,7.5-7.5h24.872
				c4.142,0,7.5,3.358,7.5,7.5S178.661,253.906,174.519,253.906z"/>
		</g>
		<g id="XMLID_839_">
			<path style="fill:#F98084;" d="M362.353,253.906h-24.872c-4.142,0-7.5-3.358-7.5-7.5s3.358-7.5,7.5-7.5h24.872
				c4.142,0,7.5,3.358,7.5,7.5S366.495,253.906,362.353,253.906z"/>
		</g>
		<circle style="fill:#FFCE1C;" cx="450.14" cy="264.608" r="18.179"/>
		<circle style="fill:#FFCE1C;" cx="61.86" cy="264.608" r="18.179"/>
	</g>
	<g>
		<path d="M162.083,227.065c4.142,0,7.5-3.358,7.5-7.5v-18.261c0-4.142-3.358-7.5-7.5-7.5s-7.5,3.358-7.5,7.5v18.261
			C154.583,223.708,157.941,227.065,162.083,227.065z"/>
		<path d="M349.917,227.065c4.142,0,7.5-3.358,7.5-7.5v-18.261c0-4.142-3.358-7.5-7.5-7.5s-7.5,3.358-7.5,7.5v18.261
			C342.417,223.708,345.775,227.065,349.917,227.065z"/>
		<path d="M256,252.875c8.711,0,16.892-3.643,22.445-9.996c2.726-3.118,2.408-7.856-0.71-10.582
			c-3.12-2.727-7.857-2.408-10.583,0.71c-2.704,3.094-6.769,4.868-11.151,4.868c-4.382,0-8.447-1.774-11.151-4.868
			c-2.726-3.118-7.463-3.437-10.583-0.71c-3.119,2.726-3.437,7.464-0.71,10.583C239.108,249.231,247.289,252.875,256,252.875z"/>
		<path d="M482.671,370.62c-4.977-14.157-9.677-27.529-7.018-39.95c4.669-21.815,0.342-38.88-5.128-50.472
			c3.316-4.326,5.294-9.73,5.294-15.59c0-3.204-0.595-6.27-1.671-9.101c10.819-9.178,17.119-22.563,17.119-37.024
			c0-15.45-7.248-29.231-18.513-38.149c-6.441-45.708-28.074-87.091-62.714-119.852C368.799,21.479,314.094,0,256,0
			c-48.855,0-94.983,14.951-133.395,43.236c-3.335,2.456-4.048,7.151-1.592,10.486c2.456,3.335,7.151,4.049,10.486,1.592
			C167.316,28.94,210.367,15,256,15c54.245,0,105.29,20.023,143.732,56.38c29.406,27.811,48.712,62.274,56.351,100.342
			c-1.194-0.343-8.052-1.639-10.292-1.783c-0.299-1.324-0.599-2.648-0.929-3.965c-0.75-2.994-3.258-5.223-6.319-5.617
			c-67.904-8.724-112.1-35.393-137.218-56.229c-27.239-22.595-38.598-43.426-38.702-43.62c-1.299-2.444-3.843-3.967-6.61-3.973
			c-2.733,0.029-5.318,1.521-6.628,3.959c-0.111,0.208-11.47,21.04-38.709,43.634c-25.119,20.836-69.314,47.504-137.218,56.229
			c-3.062,0.394-5.569,2.623-6.319,5.617c-0.33,1.317-0.629,2.641-0.929,3.965c-2.185,0.141-9.096,1.438-10.29,1.782
			c7.387-36.751,25.705-70.255,53.479-97.569c2.953-2.904,2.993-7.653,0.088-10.606c-2.904-2.953-7.652-2.993-10.606-0.089
			c-32.827,32.283-53.397,72.637-59.635,116.878c-11.265,8.918-18.513,22.698-18.513,38.148c0,14.461,6.3,27.847,17.119,37.024
			c-1.076,2.831-1.671,5.896-1.671,9.101c0,5.859,1.977,11.264,5.293,15.59c-5.469,11.591-9.796,28.656-5.127,50.472
			c2.658,12.421-2.042,25.793-7.018,39.95c-9.635,27.409-21.56,61.369,25.03,94.453V504.5c0,4.142,3.357,7.5,7.5,7.5h388.28
			c4.142,0,7.5-3.358,7.5-7.5v-39.427C504.23,431.989,492.305,398.029,482.671,370.62z M456.715,272.951
			c-1.827,1.455-4.12,2.335-6.574,2.335c-5.772,0-10.679-4.896-10.679-10.679c0-5.741,4.931-10.678,10.679-10.678
			c5.786,0,10.679,4.899,10.679,10.679C460.819,267.939,459.197,270.975,456.715,272.951z M464.964,243.64
			c-0.11-0.079-0.228-0.146-0.34-0.223c-4.224-2.914-9.356-4.488-14.483-4.488c-0.906,0-1.801,0.048-2.683,0.141
			c0.819-4.637,1.438-9.311,1.879-13.999c1.22-12.96,1.002-26.06-0.682-38.969c-0.032-0.247-0.054-0.495-0.086-0.742
			c0.245,0.044,0.487,0.099,0.73,0.148c4.06,0.823,7.966,2.402,11.452,4.641c0.009,0.005,0.018,0.011,0.026,0.017
			c9.311,5.992,15.49,16.446,15.49,28.317C476.266,228.243,472.123,237.306,464.964,243.64z M220.907,115.128
			c17.404-14.545,28.699-28.313,35.093-37.265c6.394,8.953,17.689,22.72,35.093,37.265c26.063,21.782,71.381,49.493,140.368,59.403
			c1.007,4.634,1.751,9.301,2.384,13.999c2.608,19.377,1.298,39.291-3.35,58.263c-0.154,0.63-0.313,1.259-0.474,1.888
			c-1.3,1.638-2.402,3.437-3.275,5.362c-0.017,0.036-0.071,0.155-0.081,0.179c-1.587,3.705-2.381,7.783-2.161,11.815
			c-11.116,29.047-30.155,53.923-54.323,72.769c-32.33,25.211-73.241,38.816-114.181,38.816c-39.91,0-79.822-12.925-111.753-36.959
			c-25.331-19.112-45.386-44.932-56.75-74.627c0.026-0.473,0.042-0.949,0.042-1.43c0-5.736-2.001-11.445-5.565-15.934
			c-0.381-1.479-0.744-2.964-1.087-4.452c-4.863-21.412-5.21-43.8-1.217-65.381c0.002-0.013,0.003-0.027,0.005-0.04
			c0.27-1.427,0.557-2.849,0.865-4.268C149.526,164.621,194.843,136.911,220.907,115.128z M134.198,453.263
			c0,0-70.306-19.79-70.307-19.791l-1.524-0.429l-0.034-0.009c0.075-0.41,0.159-0.826,0.241-1.241
			c5.553-28.264,26.373-50.714,49.729-66.176c0.249-0.165,0.496-0.323,0.744-0.486L219.521,497h-79.855v-36.518
			C139.666,457.123,137.431,454.173,134.198,453.263z M131.868,354.414c0.967-0.473,3.285-1.56,3.483-1.65
			c2.751,2.071,5.56,4.071,8.421,5.996c8.605,5.789,17.696,10.904,27.107,15.263l75.48,93.475l-15.693,19.428l-104.586-129.53
			C126.712,357.057,131.635,354.527,131.868,354.414z M252.165,392.586c2.559,0.048,5.115,0.03,7.673,0
			c0.042,0,0.084-0.002,0.126-0.003c18.344-0.344,36.241-3.074,53.464-8.142l-55.879,69.201h-3.098l-55.884-69.207
			c17.235,5.072,35.117,7.8,53.441,8.146C252.06,392.583,252.112,392.585,252.165,392.586z M60.85,275.236
			c-5.312-0.532-9.669-5.203-9.669-10.628c0-5.721,4.869-10.679,10.679-10.679c5.765,0,10.679,4.942,10.679,10.678
			C72.539,270.7,66.942,275.846,60.85,275.236z M51.246,190.151c3.43-2.207,7.411-3.831,11.468-4.646
			c0.239-0.048,0.477-0.102,0.718-0.146c-0.033,0.247-0.055,0.495-0.086,0.742c-1.231,9.564-1.817,19.313-1.335,28.953
			c0.402,8.043,1.146,16.078,2.533,24.015c-0.882-0.092-1.777-0.141-2.683-0.141c-5.144,0-10.243,1.58-14.484,4.488
			c-0.112,0.077-0.229,0.144-0.34,0.223c-7.159-6.334-11.303-15.397-11.303-25.157C35.733,206.61,41.915,196.154,51.246,190.151z
			 M43.481,375.593c5.445-15.492,11.076-31.513,7.534-48.063c-3.496-16.332-0.892-29.271,2.938-38.482
			c0.071,0.023,0.145,0.039,0.216,0.061c8.476,2.67,17.987,0.63,24.648-5.243c10.566,22.353,25.572,42.092,43.803,58.408
			c-0.561,0.286-1.119,0.567-1.688,0.865c-30.809,16.118-59.644,41.378-70.427,75.438c-1.97,6.223-3.318,12.652-3.975,19.147
			c-0.015,0.153-0.026,0.305-0.032,0.457C28.797,417.37,35.719,397.673,43.481,375.593z M69.36,450.595l55.306,15.567V497H69.36
			V450.595z M341.121,374.023c12.601-5.838,24.525-12.974,35.527-21.259c0.199,0.09,6.279,3.013,9.059,4.485
			c0.077,0.042,0.152,0.085,0.229,0.126l-60.362,74.758c-2.603,3.223-2.099,7.944,1.124,10.547
			c3.223,2.602,7.945,2.099,10.547-1.124l61.707-76.423c1.369,0.893,2.726,1.803,4.068,2.735
			c18.124,12.581,34.194,29.235,42.341,50.045c1.867,4.768,3.372,9.983,4.306,15.121l-71.864,20.229
			c-3.234,0.91-5.468,3.859-5.468,7.219V497h-79.857c0,0,25.771-31.917,25.775-31.922c2.539-3.144,2.06-7.977-1.124-10.547
			c-3.223-2.603-7.945-2.1-10.547,1.123L273.198,497h-31.379L341.121,374.023z M442.64,497h-55.306v-30.837l55.306-15.567V497z
			 M465.5,438.181c-0.006-0.152-1.682-11.615-3.228-17.021c-0.008-0.027-0.016-0.054-0.024-0.082
			c-4.037-14.069-11.347-27.381-21.88-39.729c-13.196-15.471-29.937-27.935-47.836-37.464c-1.04-0.554-2.094-1.085-3.146-1.618
			c18.228-16.315,33.231-36.051,43.796-58.401c0.999,0.88,2.066,1.684,3.193,2.402c6.301,4.019,14.275,5.088,21.454,2.841
			c0.072-0.022,0.146-0.038,0.218-0.061c3.83,9.21,6.434,22.151,2.938,38.482c-3.543,16.551,2.088,32.571,7.534,48.063
			C476.28,397.673,483.204,417.37,465.5,438.181z"/>
	</g>
</g>
<g>
</g>
<g>
</g>
<g>
</g>
<g>
</g>
<g>
</g>
<g>
</g>
<g>
</g>
<g>
</g>
<g>
</g>
<g>
</g>
<g>
</g>
<g>
</g>
<g>
</g>
<g>
</g>
<g>
</g>
</svg>
