<?xml version="1.0" encoding="iso-8859-1"?>
<!-- Generator: Adobe Illustrator 19.0.0, SVG Export Plug-In . SVG Version: 6.00 Build 0)  -->
<svg version="1.1" id="Layer_1" xmlns="http://www.w3.org/2000/svg" xmlns:xlink="http://www.w3.org/1999/xlink" x="0px" y="0px"
	 viewBox="0 0 511.963 511.963" style="enable-background:new 0 0 511.963 511.963;" xml:space="preserve">
<g>
	<g>
		<path style="fill:#00A1E0;" d="M442.385,424.858c0,0,45.523,23.584,45.523,79.624H404.86l-5.401-66.843L442.385,424.858z"/>
		<path style="fill:#00A1E0;" d="M69.58,424.858c0,0-45.523,23.584-45.523,79.624h83.048l5.401-66.843L69.58,424.858z"/>
		<path style="fill:#008FC7;" d="M86.013,429.751l-16.433-4.893c0,0-45.523,23.584-45.523,79.624h24
			C48.057,462.939,73.07,439.236,86.013,429.751z"/>
		<polygon style="fill:#DC5A64;" points="314.195,504.482 197.769,504.482 133.632,479.5 133.632,421.434 178.701,371.471 
			339.345,371.471 378.332,429.6 360.298,486.252 		"/>
		<path style="fill:#87543D;" d="M42.793,284.842c0,38.016,33.253,64.348,8.271,93.381c0,0,6.077,18.905,41.861,31.734
			c35.785,12.828,49.288-67.518,49.288-67.518L94.839,276.27L42.793,284.842z"/>
		<path style="fill:#87543D;" d="M469.171,284.842c0,38.016-33.253,64.348-8.271,93.381c0,0-6.077,18.905-41.861,31.734
			c-35.785,12.828-49.288-67.518-49.288-67.518l47.375-66.168L469.171,284.842z"/>
		<path style="fill:#008FC7;" d="M465.124,443.63c-11.373-12.884-22.739-18.772-22.739-18.772l-42.926,12.781l5.401,66.843h31.628
			C451.43,483.614,460.988,463.283,465.124,443.63z"/>
		<path style="fill:#EFEDEE;" d="M345.049,403.853c0,0,16.894,64.169-30.854,100.629h90.665
			c86.423-103.303-3.153-149.763-3.153-149.763L345.049,403.853z"/>
		<path style="fill:#EFEDEE;" d="M166.916,403.853c0,0-16.894,64.169,30.854,100.629h-90.665
			c-86.423-103.303,3.153-149.763,3.153-149.763L166.916,403.853z"/>
		<path style="fill:#D4D2D3;" d="M124.102,366.725l-13.845-12.006c0,0-89.576,46.46-3.153,149.763h30
			C75.775,431.174,103.077,386.492,124.102,366.725z"/>
		<path style="fill:#FBC4AC;" d="M333.263,414.583c-33.786,10.028-77.281,50.087-77.281,50.087s-43.495-40.058-77.281-50.087
			l19.068-28.934h116.426L333.263,414.583z"/>
		<path style="fill:#87543D;" d="M451.401,155.468h-0.021l0.021-0.003l-195.418-19.269L60.565,155.465
			c-14.773,28.304-22.58,59.695-22.58,92.253h435.993C473.979,215.162,466.173,183.771,451.401,155.468z"/>
		<circle style="fill:#FBC4AC;" cx="63.407" cy="247.718" r="42.463"/>
		<circle style="fill:#FBC4AC;" cx="448.558" cy="247.718" r="42.463"/>
		<ellipse style="fill:#A36549;" cx="255.982" cy="247.718" rx="192.575" ry="182.129"/>
		<path style="fill:#FBC4AC;" d="M113.114,155.465c-18.184,55.353,6.187,110.309,74.528,110.309h136.681
			c68.341,0,92.711-54.956,74.528-110.309l-142.868-7.171L113.114,155.465z"/>
		<path style="fill:#87543D;" d="M255.982,284.586c32.348,33.438,64.475,20.368,80.165,10.195c4.119-2.67,4.256-8.56,0.424-11.628
			c-22.24-17.804-22.253-86.622-80.59-50.587c-58.336-36.035-58.35,32.784-80.59,50.587c-3.832,3.068-3.695,8.958,0.424,11.628
			C191.507,304.954,223.634,318.025,255.982,284.586z"/>
		<path style="fill:#FFCE1C;" d="M424.496,12.266L424.496,12.266c-6.867-6.379-17.492-6.379-24.359,0l-26.904,24.992l-26.904-24.992
			c-6.867-6.379-17.492-6.379-24.359,0l-26.904,24.992l-26.904-24.992c-6.867-6.379-17.492-6.379-24.359,0l-26.904,24.992
			l-26.904-24.992c-6.867-6.379-17.492-6.379-24.359,0l-26.904,24.992l-26.904-24.992c-6.867-6.379-17.492-6.379-24.359,0v0
			C70.312,28.203,60.564,59.677,60.564,83.093v33.833l195.419,19.269L451.4,116.927V83.093
			C451.4,59.677,441.652,28.203,424.496,12.266z"/>
		<path style="fill:#ECB000;" d="M90.564,116.927V83.093c0-22.152,8.728-51.506,24.194-68.105l-2.931-2.723
			c-6.867-6.379-17.492-6.379-24.359,0l0,0C70.312,28.203,60.564,59.677,60.564,83.093v33.833l195.419,19.269l15-1.479
			L90.564,116.927z"/>
		<path style="fill:#DC5A64;" d="M255.982,48.181c-6.153,0-11.141,4.988-11.141,11.14V79.96c0,6.153,4.988,11.141,11.141,11.141
			s11.141-4.988,11.141-11.141V59.321C267.123,53.168,262.135,48.181,255.982,48.181z"/>
		<path style="fill:#FFA74F;" d="M451.401,116.927H60.565c-10.642,0-19.269,8.627-19.269,19.269v0
			c0,10.642,8.627,19.269,19.269,19.269h390.836c10.642,0,19.269-8.627,19.269-19.269v0
			C470.67,125.554,462.043,116.927,451.401,116.927z"/>
		<path style="fill:#F2973D;" d="M71.296,136.196L71.296,136.196c0-10.642,8.627-19.269,19.269-19.269h-30
			c-10.642,0-19.269,8.627-19.269,19.269l0,0c0,10.642,8.627,19.269,19.269,19.269h30C79.923,155.465,71.296,146.838,71.296,136.196
			z"/>
		<path style="fill:#A36549;" d="M166.289,188.897h-14.445c-6.855,0-12.412,5.557-12.412,12.412c0,6.855,5.557,12.412,12.412,12.412
			h14.445c6.855,0,12.412-5.557,12.412-12.412C178.701,194.454,173.144,188.897,166.289,188.897z"/>
		<path style="fill:#A36549;" d="M345.676,188.897h14.445c6.855,0,12.412,5.557,12.412,12.412c0,6.855-5.557,12.412-12.412,12.412
			h-14.445c-6.855,0-12.412-5.557-12.412-12.412C333.263,194.454,338.82,188.897,345.676,188.897z"/>
	</g>
	<g>
		<path d="M255.982,268.714c8.92,0,17.296-3.729,22.981-10.233c2.726-3.118,2.408-7.856-0.711-10.583s-7.857-2.408-10.583,0.71
			c-2.836,3.245-7.096,5.105-11.688,5.105s-8.852-1.861-11.688-5.105c-2.727-3.119-7.464-3.437-10.583-0.711
			c-3.118,2.726-3.437,7.464-0.711,10.583C238.685,264.984,247.062,268.714,255.982,268.714z"/>
		<path d="M151.566,221.189v11.358c0,4.142,3.358,7.5,7.5,7.5c4.143,0,7.5-3.358,7.5-7.5v-11.358
			c10.851-0.15,19.635-9.012,19.635-19.898c0-10.979-8.933-19.912-19.912-19.912h-14.445c-10.98,0-19.913,8.933-19.913,19.912
			C131.931,212.177,140.715,221.039,151.566,221.189z M151.844,196.378h14.445c2.708,0,4.912,2.204,4.912,4.912
			c0,2.709-2.204,4.913-4.912,4.913h-14.445c-2.708,0-4.913-2.204-4.913-4.913C146.931,198.583,149.135,196.378,151.844,196.378z"/>
		<path d="M345.398,221.189v11.358c0,4.142,3.358,7.5,7.5,7.5s7.5-3.358,7.5-7.5v-11.358c10.851-0.151,19.635-9.012,19.635-19.898
			c0-10.979-8.933-19.912-19.912-19.912h-14.445c-10.98,0-19.912,8.933-19.912,19.912
			C325.763,212.177,334.547,221.039,345.398,221.189z M345.675,196.378h14.445c2.709,0,4.912,2.204,4.912,4.912
			c0,2.709-2.204,4.913-4.912,4.913h-14.445c-2.709,0-4.912-2.204-4.912-4.913C340.763,198.583,342.967,196.378,345.675,196.378z"/>
		<path d="M255.982,98.583c10.278,0,18.64-8.362,18.64-18.641v-20.64c0-10.278-8.362-18.64-18.64-18.64
			c-10.279,0-18.641,8.362-18.641,18.64v20.64C237.341,90.22,245.703,98.583,255.982,98.583z M252.341,59.302
			c0-2.007,1.633-3.64,3.641-3.64c2.007,0,3.64,1.633,3.64,3.64v20.64c0,2.007-1.633,3.641-3.64,3.641
			c-2.008,0-3.641-1.633-3.641-3.641V59.302z"/>
		<path d="M13.443,247.7c0,17.192,8.729,32.383,21.988,41.376c0.834,14.415,5.718,27.085,10.084,38.377
			c7.787,20.138,11.62,32.197-0.136,45.859c-1.705,1.982-2.255,4.709-1.452,7.197c0.417,1.292,4.287,12.067,20.031,23.155
			c0.254,0.225-1.998,16.979-1.953,16.95c-11.965,7.654-45.449,33.569-45.449,83.849c0,4.142,3.358,7.5,7.5,7.5h463.851
			c4.142,0,7.5-3.358,7.5-7.5c0-31.291-13.396-53.046-24.635-65.786c-8.04-9.114-15.955-14.927-20.813-18.028
			c-0.049-5.719-0.688-11.408-1.951-16.986c15.742-11.086,19.612-21.86,20.029-23.153c0.804-2.488,0.253-5.215-1.452-7.197
			c-11.756-13.662-7.923-25.721-0.136-45.859c4.366-11.292,9.25-23.963,10.084-38.377c13.258-8.993,21.987-24.184,21.987-41.375
			c0-16.785-8.329-31.652-21.061-40.717c-3.196-16-8.281-31.543-15.162-46.364c9.343-4.182,15.872-13.561,15.872-24.442
			c0-12.157-8.149-22.441-19.27-25.692v-27.41c0-24.402-10.064-58.454-29.3-76.323c-9.692-9.002-24.876-9.002-34.568,0
			l-21.799,20.25l-21.8-20.25c-9.692-9.002-24.876-9.002-34.568,0l-21.8,20.25l-21.8-20.25c-9.691-9.002-24.876-9.002-34.568,0
			l-21.8,20.25l-21.799-20.25c-9.692-9.002-24.875-9.002-34.568,0l-21.8,20.25l-21.8-20.25c-9.692-9.003-24.876-9.002-34.567,0
			c-19.235,17.868-29.3,51.92-29.3,76.322v27.411c-11.12,3.252-19.269,13.535-19.269,25.692c0,10.881,6.529,20.259,15.872,24.441
			c-6.881,14.821-11.969,30.366-15.165,46.366C21.771,216.049,13.443,230.916,13.443,247.7z M45.645,217.596
			c4.16-2.464,8.823-4.019,13.619-4.598c-0.609,3.119-1.129,6.256-1.573,9.404c-0.009,0.063-0.016,0.127-0.025,0.191
			c-2.855,19.538-2.253,39.676,1.458,59.058c0.048,0.252,0.089,0.506,0.139,0.758c-0.078-0.009-0.156-0.013-0.234-0.022
			c-4.264-0.533-8.425-1.874-12.204-3.918C35.89,272.55,28.443,260.98,28.443,247.7C28.443,234.901,35.358,223.689,45.645,217.596z
			 M385.209,231.564c-11.914,16.455-31.295,25.6-56.242,26.6c-0.597-1.254-1.199-2.535-1.816-3.85
			c-8.279-17.622-18.582-39.553-42.266-39.553c-10.259,0-20.113,4.097-28.903,9.071c-9.431-5.337-20.048-9.657-31.084-9.008
			c-22.146,1.303-32.065,22.42-40.085,39.493c-0.057,0.12-0.113,0.239-0.169,0.36c-0.532,1.131-1.054,2.242-1.571,3.328
			c-0.025,0.053-0.05,0.105-0.076,0.158c-24.946-1-44.328-10.145-56.242-26.599c-12.863-17.766-15.942-42.537-8.688-68.617h275.832
			C401.152,189.026,398.073,213.798,385.209,231.564z M198.301,260.88c0.028-0.06,0.058-0.122,0.086-0.181
			c8.486-18.063,15.068-30.108,27.392-30.895c9.303-0.593,18.615,4.4,26.261,9.124c2.33,1.439,5.474,1.488,7.883,0
			c7.4-4.571,16.029-9.167,24.961-9.167c13.17,0,19.91,12.249,28.689,30.934c5.219,11.108,10.151,21.606,18.033,28.071
			c-7.102,4.528-18.051,9.771-30.666,9.771c-13.942,0-27.255-6.454-39.569-19.184c-1.413-1.461-3.358-2.286-5.39-2.286
			s-3.978,0.825-5.39,2.286c-12.315,12.729-25.628,19.184-39.569,19.184c-12.617,0-23.565-5.243-30.667-9.771
			C188.192,282.344,193.114,271.922,198.301,260.88z M114.605,240.361c9.676,13.363,27.791,29,60.365,32.267
			c-1.358,1.865-2.769,3.454-4.265,4.652c-3.723,2.98-5.805,7.586-5.568,12.321c0.235,4.714,2.641,8.889,6.6,11.455
			c8.782,5.693,22.727,12.48,39.286,12.48c16.047,0,31.143-6.241,44.959-18.568c13.817,12.328,28.911,18.568,44.959,18.568
			c16.558,0,30.503-6.787,39.286-12.48c3.958-2.566,6.363-6.741,6.599-11.455c0.237-4.735-1.845-9.341-5.568-12.322
			c-1.496-1.197-2.906-2.787-4.265-4.652c32.574-3.267,50.689-18.904,60.365-32.267c14.89-20.564,19.105-48.345,12.031-77.414
			c0,0,8.423,0,8.424,0c8.437,14.409,14.776,29.952,18.684,46.192c0.019,0.078,0.037,0.157,0.055,0.235
			c6.066,25.538,6.013,52.317-0.261,77.786c-13.82,56.242-56.519,102.158-112.523,123.039c-21.617,8.06-44.723,12.129-67.787,12.129
			c-21.633,0-43.571-3.682-64.149-10.822c-57.772-20.208-102.039-66.884-116.16-124.344c-0.058-0.238-0.11-0.478-0.168-0.717
			c-10.023-41.536-3.261-86.296,18.414-123.103c0.078-0.132,0.154-0.264,0.231-0.396h8.424
			C95.501,192.017,99.715,219.796,114.605,240.361z M311.571,496.963H200.393c-6.478-5.388-18.172-17.3-24.569-36.878
			c-4.672-15.129-4.727-29.968-3.833-40.239c5.014,2.196,10.127,4.189,15.319,5.981c29.827,13.431,63.255,44.031,63.591,44.34
			c2.764,2.542,7.278,2.653,10.159,0c0.334-0.308,33.784-30.928,63.619-44.353c5.182-1.791,10.286-3.78,15.292-5.973
			c0.895,10.271,0.84,25.111-3.832,40.241C329.744,479.662,318.05,491.575,311.571,496.963z M279.179,436.068
			c-9.929,7.313-18.206,14.229-23.198,18.556c-4.993-4.327-13.266-11.242-23.198-18.556c0.541,0.059,15.995,1.26,23.198,1.26
			C263.725,437.328,271.482,436.91,279.179,436.068z M72.529,323.532c5.511,11.977,12.342,23.385,20.445,34.137
			c-8.046,6.764-17.618,17.007-23.976,31.006c-4.679-3.823-7.469-7.287-9.044-9.663c13.973-19.672,6.649-38.613-0.448-56.968
			c-3.215-8.313-6.507-16.825-8.147-25.856c0.032,0.008,0.064,0.013,0.097,0.021c3.727,0.96,7.63,1.421,11.478,1.453
			C63.478,297.665,72.529,323.532,72.529,323.532z M31.856,496.963c2.516-31.144,20.343-50.044,31.722-59.069
			c3.504,18.684,12.839,38.369,27.936,58.869c0.049,0.067,0.095,0.133,0.144,0.2H31.856z M110.64,496.963
			c-0.23-0.283-0.454-0.564-0.682-0.847c-13.747-17.015-26.183-36.436-31.027-58.039c-2.903-12.944-2.638-26.573,2.032-39.08
			c5.104-13.671,14.216-23.526,21.504-29.7c15.438,17.463,34.329,32.381,55.2,43.579c-0.006,0.047-0.012,0.099-0.019,0.146
			c-1.554,11.605-1.494,23.437,0.169,35.027c2.54,17.698,9.446,34.95,21.014,48.698c0.06,0.071,0.115,0.145,0.176,0.216H110.64z
			 M333.127,496.752c11.032-13.091,17.822-29.34,20.625-46.154c0.005-0.029,0.01-0.059,0.014-0.088
			c2.059-12.374,2.184-25.155,0.536-37.586c-0.002-0.015-0.004-0.032-0.006-0.047c20.873-11.198,39.761-26.114,55.2-43.579
			c7.287,6.173,16.398,16.028,21.51,29.715c11.824,29.008-3.363,61.629-20.033,85.255c-3.068,4.349-6.289,8.568-9.649,12.695
			h-68.368C333.015,496.894,333.068,496.822,333.127,496.752z M480.103,496.963h-59.796c0.049-0.066,0.095-0.133,0.144-0.199
			c15.076-20.472,24.405-40.131,27.921-58.792C459.719,447.071,477.563,466.079,480.103,496.963z M445.065,309.854
			c1.194-3.275,3.799-11.611,3.966-12.194c0.24-0.002,7.895-0.736,11.477-1.453c0.033-0.008,0.066-0.013,0.099-0.021
			c-1.64,9.031-4.932,17.543-8.147,25.856c-7.098,18.355-14.421,37.295-0.449,56.968c-1.575,2.376-4.366,5.841-9.044,9.663
			c-6.358-13.999-15.931-24.243-23.977-31.007c8.107-10.761,14.937-22.167,20.446-34.137L445.065,309.854z M465.137,278.469
			c-3.729,2.015-7.814,3.348-12.02,3.891c-0.061,0.008-0.338,0.039-0.416,0.048c0.049-0.252,0.09-0.505,0.139-0.758
			c2.587-13.508,3.607-27.322,3.065-41.064c-0.361-9.167-1.432-18.51-3.205-27.588c0.942,0.114,1.878,0.251,2.808,0.44
			c3.787,0.767,7.485,2.19,10.811,4.159c10.287,6.093,17.201,17.305,17.201,30.104C483.52,260.981,476.073,272.552,465.137,278.469z
			 M457.933,198.625c-2.932-0.555-5.926-0.864-8.911-0.886c-2.308-8.028-5.181-15.883-8.578-23.534
			c-0.071-0.16-3.584-7.727-5.449-11.258h11.798c5.716,11.606,10.226,23.717,13.478,36.178
			C459.497,198.94,458.717,198.773,457.933,198.625z M60.565,124.408c0,0,59.557,0,59.597,0c4.038,0,7.5-3.469,7.5-7.5
			c0-4.142-3.357-7.5-7.5-7.5H68.064V83.075c0-20.635,8.59-50.545,24.508-65.333c3.967-3.686,10.183-3.685,14.15,0l26.904,24.992
			c2.878,2.673,7.331,2.673,10.209,0l26.903-24.992c3.968-3.686,10.184-3.685,14.151,0l26.903,24.992
			c2.879,2.674,7.331,2.674,10.209,0l26.904-24.992c3.967-3.686,10.183-3.685,14.15,0l26.904,24.992
			c2.878,2.674,7.331,2.674,10.209,0l26.904-24.992c3.967-3.686,10.183-3.685,14.15,0l26.904,24.992
			c2.878,2.673,7.331,2.673,10.209,0l26.903-24.992c3.967-3.685,10.183-3.686,14.151,0C435.31,32.53,443.9,62.439,443.9,83.075
			v26.333H150.162c-4.142,0-7.5,3.358-7.5,7.5c0,4.019,3.485,7.5,7.5,7.5c0,0,301.238,0,301.239,0c6.49,0,11.769,5.28,11.769,11.769
			c0,6.49-5.28,11.77-11.769,11.77H60.565c-6.49,0-11.77-5.28-11.77-11.77C48.796,129.688,54.075,124.408,60.565,124.408z
			 M51.691,199.125c3.252-12.46,7.764-24.572,13.479-36.178h11.797c-1.866,3.535-3.606,7.14-5.237,10.789
			c-3.494,7.776-6.433,15.81-8.789,24.003c-0.261,0.002-6.225,0.383-8.909,0.892C53.251,198.78,52.465,198.94,51.691,199.125z"/>
	</g>
</g>
<g>
</g>
<g>
</g>
<g>
</g>
<g>
</g>
<g>
</g>
<g>
</g>
<g>
</g>
<g>
</g>
<g>
</g>
<g>
</g>
<g>
</g>
<g>
</g>
<g>
</g>
<g>
</g>
<g>
</g>
</svg>
