<?xml version="1.0" encoding="iso-8859-1"?>
<!-- Generator: Adobe Illustrator 19.0.0, SVG Export Plug-In . SVG Version: 6.00 Build 0)  -->
<svg version="1.1" id="Layer_1" xmlns="http://www.w3.org/2000/svg" xmlns:xlink="http://www.w3.org/1999/xlink" x="0px" y="0px"
	 viewBox="0 0 512 512" style="enable-background:new 0 0 512 512;" xml:space="preserve">
<g>
	<g>
		<path style="fill:#937FE6;" d="M388.415,499.988l7.5,4.512h49.36c0-114.374-75.738-122.697-75.738-122.697H142.464
			c0,0-75.738,8.323-75.738,122.697h49.359l7.5-7.517l7.5,7.517h249.83L388.415,499.988z"/>
		<g>
			<path style="fill:#8271CC;" d="M166.464,381.802h-24c0,0-75.738,8.323-75.738,122.697h24
				C90.727,390.126,166.464,381.802,166.464,381.802z"/>
		</g>
		<path style="fill:#2FC8B4;" d="M43.023,220.152L43.023,220.152c-21.227-22.126-11.93-58.841,17.27-68.198l0,0l0,0
			C47.4,124.135,68.115,92.428,98.771,93.06h0l0,0c-3.161-30.499,26.727-53.761,55.516-43.21l0,0l0,0
			c6.913-29.873,42.735-42.17,66.538-22.843l0,0l0,0c16.238-26.009,54.112-26.009,70.35,0l0,0l0,0
			c23.803-19.328,59.625-7.03,66.538,22.843v0l0,0c28.789-10.551,58.677,12.711,55.516,43.21v0h0
			c30.656-0.632,51.371,31.075,38.478,58.895l0,0l0,0c29.2,9.356,38.497,46.071,17.27,68.197l0,0H43.023z"/>
		<circle style="fill:#D4D2D3;" cx="442.607" cy="247.497" r="41.147"/>
		<path style="fill:#EFEDEE;" d="M256.001,113.826c0,0-92.535-45.691-161.784,56.756c-14.161,20.95-22.752,45.222-24.552,70.446
			c-0.171,2.397-0.27,4.64-0.27,6.615c0,97.469,83.547,176.484,186.607,176.484s186.607-79.015,186.607-176.484
			c0-1.975-0.099-4.218-0.27-6.615c-1.8-25.223-10.391-49.495-24.552-70.446C348.535,68.135,256,113.826,256.001,113.826z"/>
		<path style="fill:#D4D2D3;" d="M99.394,247.643c0-1.975,0.099-4.218,0.27-6.615c1.8-25.224,10.391-49.496,24.552-70.446
			c31.246-46.226,67.231-62.287,97.319-65.998c-33.259-3.989-84.696,2.941-127.319,65.998c-7.651,11.319-13.66,23.614-17.867,36.5
			c-2.023-0.474-4.319-0.732-6.956-0.732c-22.725,0-41.147,18.422-41.147,41.147c0,22.725,18.422,41.147,41.147,41.147
			c1.817,0,3.462-0.13,4.981-0.358C93.784,366.161,167.731,424.127,256,424.127c5.05,0,10.051-0.196,15-0.569
			C174.955,416.332,99.394,340.336,99.394,247.643z"/>
		<circle style="fill:#DC5A64;" cx="256" cy="266.68" r="29.665"/>
		<circle style="fill:#F98084;" cx="349.912" cy="298.577" r="17.476"/>
		<circle style="fill:#F98084;" cx="162.089" cy="298.577" r="17.476"/>
		<path style="fill:#BF4E57;" d="M235.073,443.088c-52.069,37.158-86.567,41.913-86.567-18.961s34.498-56.119,86.567-18.961V443.088
			z"/>
		<path style="fill:#BF4E57;" d="M276.928,443.088c52.069,37.158,86.567,41.913,86.567-18.961s-34.498-56.119-86.567-18.961V443.088
			z"/>
		<path style="fill:#DC5A64;" d="M260.705,399.166h-9.409c-13.785,0-24.961,11.175-24.961,24.96v0
			c0,13.785,11.175,24.961,24.961,24.961h9.409c13.785,0,24.961-11.175,24.961-24.961v0
			C285.666,410.341,274.49,399.166,260.705,399.166z"/>
	</g>
	<g>
		<path d="M162.088,266.079c4.142,0,7.5-3.358,7.5-7.5v-18.26c0-4.142-3.358-7.5-7.5-7.5s-7.5,3.358-7.5,7.5v18.26
			C154.588,262.721,157.946,266.079,162.088,266.079z"/>
		<path d="M349.912,266.079c4.142,0,7.5-3.358,7.5-7.5v-18.26c0-4.142-3.358-7.5-7.5-7.5s-7.5,3.358-7.5,7.5v18.26
			C342.412,262.721,345.77,266.079,349.912,266.079z"/>
		<path d="M277.732,309.306c-3.118-2.726-7.856-2.407-10.583,0.711c-2.704,3.093-6.768,4.868-11.15,4.868
			c-4.382,0-8.446-1.774-11.15-4.868c-2.726-3.119-7.464-3.438-10.583-0.711c-3.119,2.726-3.437,7.464-0.711,10.583
			c5.553,6.353,13.733,9.996,22.444,9.996c8.711,0,16.892-3.644,22.444-9.996C281.17,316.77,280.852,312.032,277.732,309.306z"/>
		<path d="M256,229.515c-20.493,0-37.165,16.672-37.165,37.165s16.672,37.165,37.165,37.165s37.165-16.672,37.165-37.165
			S276.493,229.515,256,229.515z M256,288.845c-12.222,0-22.165-9.943-22.165-22.165s9.943-22.165,22.165-22.165
			s22.165,9.943,22.165,22.165S268.222,288.845,256,288.845z"/>
		<path d="M349.912,273.601c-13.772,0-24.976,11.204-24.976,24.976c0,13.772,11.204,24.976,24.976,24.976
			s24.976-11.204,24.976-24.976C374.888,284.805,363.684,273.601,349.912,273.601z M349.912,308.552
			c-5.501,0-9.976-4.475-9.976-9.976c0-5.5,4.475-9.976,9.976-9.976s9.976,4.475,9.976,9.976
			C359.888,304.077,355.413,308.552,349.912,308.552z"/>
		<path d="M162.088,273.601c-13.772,0-24.976,11.204-24.976,24.976c0,13.772,11.204,24.976,24.976,24.976
			c13.771,0,24.976-11.204,24.976-24.976C187.064,284.805,175.86,273.601,162.088,273.601z M162.088,308.552
			c-5.501,0-9.976-4.475-9.976-9.976c0-5.5,4.475-9.976,9.976-9.976c5.5,0,9.976,4.475,9.976,9.976
			C172.064,304.077,167.589,308.552,162.088,308.552z"/>
		<circle cx="256" cy="475.563" r="10.999"/>
		<path d="M491.254,247.497c0-11.425-3.969-21.935-10.587-30.245c7.287-11.705,9.327-26.067,5.375-39.583
			c-3.824-13.08-12.857-23.824-24.808-29.885c3.838-13.515,1.702-28.021-6.155-40.048c-7.855-12.024-20.279-19.806-34.194-21.722
			c-0.761-14.026-7.49-27.05-18.825-35.872c-11.334-8.821-25.609-12.148-39.394-9.442c-5.273-13.019-15.867-23.151-29.452-27.815
			c-13.586-4.664-28.169-3.174-40.327,3.86C283.673,6.144,270.364,0,256.001,0c-0.001,0,0,0,0,0
			c-14.362,0-27.673,6.145-36.888,16.745c-12.158-7.034-26.741-8.524-40.327-3.86c-13.584,4.664-24.178,14.796-29.452,27.814
			c-13.783-2.706-28.06,0.621-39.394,9.442c-11.334,8.822-18.064,21.846-18.825,35.872c-13.914,1.917-26.339,9.699-34.194,21.722
			c-7.857,12.027-9.993,26.533-6.155,40.048c-11.95,6.061-20.983,16.806-24.807,29.884c-3.952,13.516-1.913,27.879,5.374,39.583
			c-6.618,8.311-10.587,18.82-10.587,30.246c0,26.606,21.474,48.281,47.999,48.63c9.212,32.04,27.445,61.189,52.939,84.325
			c-9.734,4.429-21.73,12.011-32.614,24.894c-19.803,23.437-29.843,56.797-29.843,99.154c0,4.142,3.358,7.5,7.5,7.5h378.548
			c4.142,0,7.5-3.358,7.5-7.5c0-42.357-10.041-75.717-29.844-99.154c-10.885-12.883-22.881-20.465-32.615-24.894
			c25.494-23.135,43.727-52.285,52.939-84.325C469.78,295.777,491.254,274.103,491.254,247.497z M65.061,280.866
			c-16.515-2.132-29.314-16.284-29.314-33.37c0-17.223,13.622-32.073,30.783-33.526c-0.067,0.26-0.127,0.522-0.193,0.783
			c-2.692,10.688-4.443,21.846-4.443,32.889C61.894,258.635,62.964,269.971,65.061,280.866z M242.789,409.003
			c2.544-1.48,5.457-2.337,8.506-2.337h9.409c9.446,0,17.464,8.001,17.46,17.464c-0.004,9.425-8.025,17.457-17.46,17.457
			c0,0-9.409,0-9.413,0c-9.443-0.008-17.457-8.018-17.457-17.464C233.835,417.808,237.517,412.07,242.789,409.003z M334.041,462.991
			c-11.228-0.72-21.964-6.656-31.461-12.145c-1.193-0.689-14.721-8.935-14.559-9.188c0.079-0.123,1.719-2.965,2.329-4.333
			c1.528-3.423,2.462-7.122,2.731-10.862c18.423-1.658,33.483-1.369,43.827,0.872c3.994,0.867,8.053-1.748,8.918-5.741
			c0.877-4.049-1.694-8.041-5.742-8.918c-12.177-2.639-28.793-2.984-49.426-1.052c-0.098-0.235-0.466-1.05-0.547-1.225
			c-0.066-0.14-2.025-3.854-2.093-3.809c0.454-0.307,5.839-3.847,6.142-4.041c19.897-12.702,32.616-16.859,40.706-17.303
			c8.753-0.48,14.344,4.054,17.396,12.057c3.57,9.361,3.898,19.794,3.704,29.702c-0.255,12.996-2.261,22.63-5.978,28.657
			C346.482,461.345,340.47,463.403,334.041,462.991z M222.65,442.559c-5.511,3.677-16.989,10.4-17.012,10.413
			c-9.028,4.918-19.435,10.091-29.944,10.091c-18.958,0.001-19.688-25.379-19.688-38.937c0-8.944,0.514-18.375,3.731-26.818
			c9.753-25.594,44.336-3.549,58.104,5.24c0.474,0.303,6.162,4.011,6.142,4.041c-1.033,1.552-1.915,3.301-2.641,5.033
			c-20.634-1.933-37.25-1.586-49.426,1.052c-4.048,0.877-6.618,4.869-5.742,8.917c0.861,3.977,4.952,6.603,8.919,5.742
			c10.341-2.24,25.403-2.53,43.826-0.872c0.008,0.103,0.024,0.203,0.032,0.305c0.428,5.266,2.167,10.445,5.028,14.89
			C223.985,441.665,223.349,442.093,222.65,442.559z M377.172,391.371c8.69,2.886,22.238,9.379,34.301,23.656
			c16.308,19.302,25.104,46.855,26.188,81.974h-41.746v-35.935c0-4.143-3.358-7.5-7.5-7.5s-7.5,3.357-7.5,7.5V497h-249.83v-35.935
			c0-4.143-3.358-7.5-7.5-7.5s-7.5,3.357-7.5,7.5V497H74.34c1.083-35.119,9.879-62.672,26.187-81.974
			c12.063-14.276,25.611-20.77,34.301-23.656c1.458,1.104,7.532,5.437,9.028,6.441c-0.011,0.041-0.02,0.085-0.031,0.126
			c-2.207,8.527-2.82,17.408-2.82,26.189c0,17.527,2.695,30.417,8.24,39.409c5.861,9.504,15.005,14.528,26.455,14.528
			c12.718-0.001,25.043-5.486,36.061-11.374c7.998-4.274,15.648-9.161,23.113-14.301c0.072-0.049,0.14-0.094,0.212-0.144
			c0.096,0.056,0.197,0.103,0.294,0.157c4.766,2.696,10.39,4.186,15.916,4.186c0,0,9.409,0,9.411,0
			c5.488,0,11.079-1.456,15.901-4.179c0.101-0.057,0.206-0.105,0.306-0.164c0.071,0.049,0.139,0.094,0.21,0.143
			c16.965,11.7,37.767,25.676,59.183,25.676c28.847,0,34.687-31.202,34.687-53.937c0-8.785-0.642-17.612-2.81-26.148
			c-0.014-0.055-0.026-0.113-0.04-0.167C369.569,396.854,376.621,391.787,377.172,391.371z M370.814,377.324
			c-0.676,0.533-8.722,6.361-8.69,6.409c-0.08-0.121-0.168-0.229-0.249-0.348c-4.935-7.243-12.79-11.999-21.509-12.972
			c-15.196-1.698-35.208,6.26-62.014,24.609c-0.333,0.228-1.291,0.882-1.438,0.984c-4.904-2.812-10.52-4.34-16.176-4.34
			c-0.011,0-0.022-0.001-0.033-0.001h-9.409c-0.01,0-0.02,0.001-0.03,0.001c-5.641,0-11.288,1.535-16.18,4.34
			c-0.148-0.102-1.104-0.756-1.436-0.982c-26.802-18.347-46.814-26.305-62.007-24.612c-3.872,0.431-7.67,1.545-11.104,3.396
			c-4.214,2.273-7.775,5.66-10.444,9.619c-0.071,0.105-0.149,0.2-0.219,0.306c-2.96-2.051-5.89-4.148-8.692-6.411
			c-32.407-25.531-54.064-60.826-61.465-99.717c-0.007-0.037-0.015-0.073-0.022-0.109c-6.967-36.036,0.137-72.245,20.733-102.714
			c10.851-16.052,23.984-30.818,39.821-42.101c3.275-2.333,4.15-7.102,1.756-10.46c-2.328-3.267-7.102-4.146-10.46-1.756
			c-17.298,12.311-31.694,28.387-43.544,45.918c-6.757,9.997-12.32,20.795-16.572,32.086c-0.053,0.14-0.111,0.279-0.163,0.419
			c-1.452-0.058-4.413,0.03-4.456,0.033c-8.698,0.444-16.977,3.197-24.153,7.936c-3.883-7.61-4.772-16.53-2.302-24.978
			c3.211-10.98,11.311-19.284,22.224-22.78c4.233-1.356,6.387-6.26,4.516-10.296c-4.959-10.702-4.069-22.986,2.382-32.861
			c6.451-9.874,17.361-15.629,29.136-15.382c4.433,0.093,8.072-3.866,7.615-8.272c-1.216-11.732,3.615-23.063,12.923-30.308
			c9.308-7.244,21.476-9.146,32.551-5.087c4.18,1.532,8.885-1.021,9.888-5.351c2.659-11.492,10.907-20.639,22.063-24.469
			c11.157-3.83,23.284-1.678,32.441,5.757c3.452,2.803,8.742,1.911,11.09-1.85C233.434,20.973,244.206,15,256.001,15
			c11.795,0,22.565,5.974,28.812,15.978c2.35,3.764,7.643,4.649,11.089,1.851c9.157-7.436,21.284-9.587,32.441-5.757
			c11.156,3.83,19.404,12.977,22.063,24.469c1.001,4.325,5.716,6.881,9.888,5.351c11.075-4.059,23.243-2.157,32.551,5.087
			c9.308,7.245,14.139,18.575,12.923,30.307c-0.458,4.422,3.172,8.365,7.614,8.272c11.799-0.251,22.686,5.507,29.137,15.382
			c6.451,9.874,7.342,22.159,2.382,32.861c-1.868,4.03,0.297,8.943,4.516,10.296c10.914,3.497,19.014,11.8,22.225,22.781
			c2.47,8.448,1.582,17.367-2.302,24.977c-6.515-4.302-13.947-6.965-21.773-7.754c-0.786-0.079-5.385-0.272-6.834-0.214
			c-0.057-0.154-0.121-0.305-0.178-0.459c-4.228-11.286-9.809-22.065-16.559-32.046c-25.903-38.32-65.149-68.017-112.748-70.088
			c-24.118-1.051-43.468,4.816-52.706,8.329c-0.319,0.121-2.048,0.802-2.537,1.004c-1.075-0.446-6.417-2.415-7.835-2.878
			c-11.56-3.781-31.151-8.286-54.431-5.967c-11.251,1.12-22.352,3.756-32.902,7.821c-3.8,1.465-5.762,5.903-4.3,9.696
			c1.49,3.864,5.831,5.791,9.696,4.3c3.166-1.221,6.393-2.277,9.656-3.209c40.755-11.483,75.251,4.433,76.743,5.14
			c0.025,0.012,0.041,0.02,0.047,0.023c1.999,1.119,4.601,0.994,6.625,0.006c0.219-0.107,22.312-10.707,51.949-9.248
			c42.447,2.09,77.319,29.381,100.315,63.473c0.035,0.052,0.067,0.104,0.102,0.156c20.204,29.956,27.349,67.126,20.632,102.557
			c-0.007,0.039-0.016,0.077-0.023,0.115C424.879,316.501,403.221,351.794,370.814,377.324z M446.939,280.866
			c3.706-19.262,4.245-39.273,0.421-58.56c-0.55-2.775-1.445-5.539-1.862-8.333c17.112,1.464,30.755,16.35,30.755,33.523
			C476.254,264.582,463.454,278.734,446.939,280.866z"/>
	</g>
</g>
<g>
</g>
<g>
</g>
<g>
</g>
<g>
</g>
<g>
</g>
<g>
</g>
<g>
</g>
<g>
</g>
<g>
</g>
<g>
</g>
<g>
</g>
<g>
</g>
<g>
</g>
<g>
</g>
<g>
</g>
</svg>
