<?xml version="1.0" encoding="iso-8859-1"?>
<!-- Generator: Adobe Illustrator 19.0.0, SVG Export Plug-In . SVG Version: 6.00 Build 0)  -->
<svg version="1.1" id="Layer_1" xmlns="http://www.w3.org/2000/svg" xmlns:xlink="http://www.w3.org/1999/xlink" x="0px" y="0px"
	 viewBox="0 0 512 512" style="enable-background:new 0 0 512 512;" xml:space="preserve">
<g>
	<g>
		<path style="fill:#DC5A64;" d="M359.375,374.375h-33.551c5.353,9.212,8.389,19.609,8.389,30.619
			c0,37.542-35.086,68.084-78.213,68.084s-78.213-30.543-78.213-68.084c0-11.009,3.036-21.407,8.389-30.619h-33.55l-14.709,65.063
			l14.709,65.063h206.749l14.709-65.063L359.375,374.375z"/>
		<path style="fill:#D4835F;" d="M123.208,384.592c-21.936,14.434-52.805,47.598-52.805,119.908h52.805l14.709-65.063
			L123.208,384.592z"/>
		<path style="fill:#D4835F;" d="M388.793,384.592l-14.709,54.845l14.709,65.063h52.805
			C441.598,432.191,410.729,399.027,388.793,384.592z"/>
		<path style="fill:#EFEDEE;" d="M388.793,384.592V504.5h-29.418V374.375h7.962C367.338,374.375,376.702,376.64,388.793,384.592z"/>
		<path style="fill:#A36549;" d="M93.403,504.5c0-53.005,16.587-84.975,34.084-103.953l-4.279-15.955
			c-6.169,4.06-13.046,9.601-19.743,17.078c-2.604,2.908-5.182,6.108-7.68,9.628c-1.071,1.508-2.127,3.076-3.164,4.704
			c-0.692,1.085-1.375,2.198-2.049,3.338c-7.413,12.54-13.677,28.423-17.175,48.48c-1.272,7.293-2.178,15.139-2.641,23.576
			c-0.231,4.218-0.352,8.584-0.352,13.104H93.403z"/>
		<path style="fill:#EFEDEE;" d="M152.626,374.375V504.5h-29.418V384.592c12.091-7.953,21.455-10.218,21.455-10.218H152.626z"/>
		<path style="fill:#D4D2D3;" d="M123.208,384.592v20.892c7.694-9.444,15.825-16.17,23-20.892c2.248-1.479,4.401-2.759,6.418-3.867
			v-6.351h-7.962C144.663,374.374,135.299,376.64,123.208,384.592z"/>
		<path style="fill:#D4835F;" d="M193.187,403.816c0,27.847,28.178,50.502,62.813,50.502c34.635,0,62.813-22.655,62.813-50.502
			c0-14.715-7.872-27.977-20.404-37.216h-84.818C201.06,375.838,193.187,389.1,193.187,403.816z"/>
		<g>
			<path style="fill:#EFEDEE;" d="M256,473.077c-43.127,0-78.213-30.543-78.213-68.084s35.086-68.084,78.213-68.084
				s78.213,30.543,78.213,68.084S299.127,473.077,256,473.077z M256,363.444c-28.495,0-51.678,18.639-51.678,41.549
				c0,22.91,23.183,41.549,51.678,41.549c28.495,0,51.678-18.639,51.678-41.549C307.678,382.083,284.496,363.444,256,363.444z"/>
		</g>
		<path style="fill:#3A484A;" d="M451.724,214.908V44.641c0-20.513-16.629-37.141-37.141-37.141H97.418
			c-20.513,0-37.141,16.629-37.141,37.141v170.267H451.724z"/>
		<path style="fill:#313D40;" d="M137.418,7.5h-40c-20.513,0-37.141,16.629-37.141,37.142v170.267h40V44.642
			C100.277,24.129,116.905,7.5,137.418,7.5z"/>
		<circle style="fill:#A36549;" cx="438.987" cy="242.677" r="40.349"/>
		<path style="fill:#D4835F;" d="M256,167.664c-82.696,0-150.03-33.339-178.018,34.976c-3.242,12.895-4.969,26.346-4.969,40.179
			c0,95.578,81.926,173.06,182.986,173.06s182.986-77.482,182.986-173.06c0-13.834-1.727-27.284-4.969-40.179
			C406.03,134.325,338.696,167.664,256,167.664z"/>
		<path style="fill:#A36549;" d="M93.014,223.274c0-15.396,1.922-30.365,5.53-44.717c1.128-2.752,2.319-5.339,3.561-7.802
			c-9.795,6.624-17.925,16.759-24.122,31.886c-0.007,0.027-0.012,0.054-0.019,0.081c-1.428-0.252-3.056-0.393-4.95-0.393
			c-22.284,0-40.349,18.065-40.349,40.349c0,22.284,18.065,40.349,40.349,40.349c1.862,0,3.466-0.137,4.877-0.381
			C96.912,359.024,169.432,415.88,256,415.88c6.672,0,13.257-0.347,19.743-1.005C173.099,404.967,93.014,322.966,93.014,223.274z"/>
		<circle style="fill:#FFCE1C;" cx="64.615" cy="283.125" r="16.874"/>
		<circle style="fill:#FFCE1C;" cx="447.386" cy="283.125" r="16.874"/>
		<g id="XMLID_932_">
			<path style="fill:#DC5A64;" d="M174.846,284.898h-24.772c-4.142,0-7.5-3.358-7.5-7.5s3.358-7.5,7.5-7.5h24.772
				c4.142,0,7.5,3.358,7.5,7.5S178.988,284.898,174.846,284.898z"/>
		</g>
		<g id="XMLID_930_">
			<path style="fill:#DC5A64;" d="M361.927,284.898h-24.772c-4.142,0-7.5-3.358-7.5-7.5s3.358-7.5,7.5-7.5h24.772
				c4.142,0,7.5,3.358,7.5,7.5S366.069,284.898,361.927,284.898z"/>
		</g>
	</g>
	<g>
		<path d="M162.459,258.165c4.142,0,7.5-3.358,7.5-7.5v-18.188c0-4.142-3.358-7.5-7.5-7.5s-7.5,3.358-7.5,7.5v18.188
			C154.959,254.807,158.317,258.165,162.459,258.165z"/>
		<path d="M349.541,258.165c4.142,0,7.5-3.358,7.5-7.5v-18.188c0-4.142-3.358-7.5-7.5-7.5s-7.5,3.358-7.5,7.5v18.188
			C342.041,254.807,345.398,258.165,349.541,258.165z"/>
		<path d="M277.667,263.322c-3.118-2.727-7.857-2.409-10.583,0.71c-2.688,3.075-6.728,4.838-11.084,4.838s-8.396-1.763-11.083-4.838
			c-2.727-3.119-7.464-3.436-10.583-0.711c-3.119,2.726-3.437,7.464-0.711,10.583c5.536,6.333,13.692,9.966,22.377,9.966
			c8.685,0,16.841-3.632,22.377-9.966C281.103,270.787,280.785,266.048,277.667,263.322z"/>
		<path d="M459.224,199.333V44.642C459.224,20.026,439.198,0,414.582,0h-46.235c-4.142,0-7.5,3.358-7.5,7.5s3.358,7.5,7.5,7.5
			h46.235c16.344,0,29.642,13.297,29.642,29.642v150.473c-0.04-0.004-0.08-0.005-0.119-0.009c-0.797-0.085-4.417-0.277-5.321-0.277
			c-0.201-0.43-0.746-1.548-0.814-1.687c-8.188-16.668-22.863-29.109-40.386-35.455c-20.307-7.354-41.775-5.967-62.885-3.874
			c-26.192,2.611-52.323,6.353-78.698,6.353c-21.497,0-41.698-2.271-61.233-4.466c-0.084-0.01-0.166-0.019-0.25-0.028
			c-22.841-2.605-46.327-5.961-69.193-1.854c-21.413,3.809-39.165,14.561-51.289,39.318c-0.1,0.204-0.698,1.695-0.818,1.695
			c-0.036,0-3.622,0.088-5.32,0.276c-0.04,0.004-0.081,0.005-0.121,0.01V44.642C67.775,28.297,81.073,15,97.417,15h240.93
			c4.142,0,7.5-3.358,7.5-7.5s-3.358-7.5-7.5-7.5H97.417C72.801,0,52.775,20.026,52.775,44.642v154.691
			c-16.294,7.639-27.61,24.191-27.61,43.344c0,13.491,5.752,26.332,15.616,35.344c-0.352,1.647-0.542,3.353-0.542,5.104
			c0,13.44,10.935,24.375,24.375,24.375c4.448,0,8.619-1.204,12.213-3.294c10.164,26.55,26.992,50.76,48.755,70.199
			c-2.055,1.14-4.225,2.428-6.499,3.923c-15.253,10.038-27.731,23.804-37.085,40.917c-12.671,23.18-19.096,51.864-19.096,85.254
			c0,4.142,3.358,7.5,7.5,7.5h371.196c4.142,0,7.5-3.358,7.5-7.5c0-33.391-6.425-62.075-19.096-85.254
			c-9.354-17.112-21.83-30.877-37.088-40.919c-2.271-1.493-4.441-2.782-6.496-3.922c21.763-19.439,38.592-43.648,48.755-70.198
			c3.594,2.09,7.763,3.293,12.212,3.293c13.44,0,24.375-10.935,24.375-24.375c0-1.75-0.189-3.457-0.542-5.104
			c9.865-9.012,15.617-21.853,15.617-35.344C486.835,223.523,475.518,206.971,459.224,199.333z M62.642,211.509
			c1.954-0.652,3.955-1.094,5.995-1.365c-0.039,0.2-0.071,0.401-0.109,0.602c-2.984,15.784-3.749,31.999-2.268,47.994
			c0.002,0.022,0.003,0.044,0.005,0.067c-0.046-0.003-0.093-0.002-0.139-0.005c-4.268-0.269-8.58,0.616-12.402,2.53
			c-0.449,0.225-5.175,3.233-5.081,3.33c-5.539-5.699-8.479-14.126-8.479-21.985C40.165,228.187,49.596,215.862,62.642,211.509z
			 M64.614,292.5c-5.169,0-9.374-4.205-9.375-9.374c0-5.023,4.353-9.375,9.375-9.375c5.061,0,9.423,4.469,9.368,9.507
			C73.927,288.304,69.641,292.5,64.614,292.5z M256,454.042c28.502,0,52.417-16.494,57.964-39.128
			c4.193-1.266,8.335-2.676,12.425-4.22c-0.008,0.075-0.011,0.151-0.02,0.226c-0.895,7.827-3.621,15.429-7.731,22.138
			c-9.891,16.143-27.163,26.785-45.456,30.702c-10.183,2.179-20.767,2.397-31.032,0.644c-21.766-3.722-42.451-16.892-51.925-37.322
			c-2.367-5.105-3.949-10.571-4.597-16.164c-0.009-0.074-0.012-0.149-0.02-0.223c4.09,1.544,8.232,2.954,12.426,4.22
			C203.582,437.549,227.498,454.042,256,454.042z M216.068,419.433c12.985,2.611,26.342,3.947,39.932,3.947
			c13.59,0,26.947-1.336,39.931-3.947c-7.154,11.585-22.565,19.609-39.931,19.609C238.634,439.042,223.222,431.019,216.068,419.433z
			 M115.707,399.892V497h-37.69C79.603,445.915,97.362,416.605,115.707,399.892z M130.707,388.745
			c2.801-1.664,5.364-2.971,7.554-3.979c1.061,0.792,5.776,4.146,6.864,4.886V497h-14.418V388.745z M160.125,398.899
			c3.34,1.853,6.73,3.605,10.167,5.253c-0.004,0.282-0.006,0.562-0.006,0.841c0,41.677,38.451,75.584,85.714,75.584
			c47.262,0,85.712-33.907,85.712-75.584c0-0.279-0.002-0.559-0.006-0.84c3.437-1.648,6.827-3.4,10.168-5.254V497H160.125V398.899z
			 M433.982,497l-37.69,0v-97.108C414.637,416.604,432.396,445.915,433.982,497z M373.738,384.765
			c2.191,1.009,4.753,2.315,7.554,3.979V497h-14.418V389.651C367.964,388.91,373.619,384.854,373.738,384.765z M367.79,370.434
			C336.078,395.222,296.172,408.38,256,408.38c-40.154,0-79.992-13.145-111.713-37.887c-26.656-20.813-46.519-48.97-56.413-80.078
			c0.178-0.565,0.329-1.143,0.466-1.725c1.839-7.829-0.405-16.195-5.84-22.103c-0.067-0.073-0.126-0.153-0.195-0.225
			c-0.053-0.354-0.112-0.707-0.163-1.06c-2.785-19.292-1.965-39.091,2.465-58.077c6.808-29.31,35.91-40.196,62.986-40.196
			c36.272,0,72.06,8.134,108.407,8.134c32.812,0,65.057-6.336,97.746-7.83c0.043-0.002,0.086-0.004,0.129-0.007
			c20.741-1.178,43.897,0.119,59.311,15.889c19.338,19.783,20.688,49.072,17.611,74.969c-0.28,2.358-1.046,7.803-1.102,8.174
			c-2.043,2.162-3.696,4.709-4.835,7.458c-2.159,5.21-2.429,11.217-0.736,16.6C414.241,321.495,394.407,349.627,367.79,370.434z
			 M447.385,292.5c-3.759,0-7-2.229-8.493-5.431c-0.007-0.015-0.012-0.031-0.018-0.046c-2.474-5.663,1.337-12.585,7.547-13.222
			c5.389-0.553,10.338,3.913,10.338,9.325C456.759,288.294,452.554,292.5,447.385,292.5z M463.343,264.694
			c-0.092,0.034-0.791-0.629-0.893-0.709c-1.815-1.434-3.833-2.606-5.979-3.471c-3.347-1.35-6.999-1.933-10.6-1.712
			c-0.046,0.003-0.092,0.001-0.138,0.005c0.004-0.039,0.006-0.078,0.01-0.116c0.982-10.637,0.981-21.362-0.016-31.998
			c-0.503-5.354-1.269-10.685-2.26-15.971c-0.036-0.192-0.067-0.386-0.104-0.578c0.239,0.032,4.279,0.793,5.997,1.365
			c13.045,4.353,22.476,16.678,22.476,31.167C471.835,250.866,468.745,258.708,463.343,264.694z"/>
	</g>
</g>
<g>
</g>
<g>
</g>
<g>
</g>
<g>
</g>
<g>
</g>
<g>
</g>
<g>
</g>
<g>
</g>
<g>
</g>
<g>
</g>
<g>
</g>
<g>
</g>
<g>
</g>
<g>
</g>
<g>
</g>
</svg>
