<?xml version="1.0" encoding="iso-8859-1"?>
<!-- Generator: Adobe Illustrator 19.0.0, SVG Export Plug-In . SVG Version: 6.00 Build 0)  -->
<svg version="1.1" id="Layer_1" xmlns="http://www.w3.org/2000/svg" xmlns:xlink="http://www.w3.org/1999/xlink" x="0px" y="0px"
	 viewBox="0 0 512 512" style="enable-background:new 0 0 512 512;" xml:space="preserve">
<g>
	<g>
		<polygon style="fill:#EFEDEE;" points="272.941,370.176 239.06,370.176 209.826,439.458 239.06,504.5 272.941,504.5 
			309.126,428.535 		"/>
		<path style="fill:#FFA74F;" d="M401.973,501.82l7.5,2.68h43.005c0-19.602-2.145-36.394-5.72-50.762
			c-18.093-72.688-72.897-83.562-72.897-83.562H272.941V504.5h121.532L401.973,501.82z"/>
		<path style="fill:#FFA74F;" d="M138.141,370.176c0,0-54.804,10.873-72.897,83.562c-3.575,14.369-5.72,31.16-5.72,50.762h43.004
			l7.5-4.049l7.5,4.049H239.06V370.176H138.141z"/>
		<g>
			<path style="fill:#F2973D;" d="M160.141,370.176h-22c0,0-54.804,10.873-72.897,83.562c-3.575,14.369-5.72,31.16-5.72,50.762h22
				c0-19.602,2.145-36.394,5.72-50.762C105.336,381.049,160.141,370.176,160.141,370.176z"/>
		</g>
		<path style="fill:#C99C87;" d="M132.365,375.516h247.27c39.574-32.633,64.586-80.662,64.586-134.218
			c0-14.177-1.762-27.964-5.073-41.184l-182.651-21.023L72.852,200.114c-3.311,13.22-5.073,27.006-5.073,41.184
			C67.779,294.854,92.791,342.882,132.365,375.516z"/>
		<path style="fill:#3A484A;" d="M417.199,287.297l-27.142-19.298c-49.65,40.382-84.737-40.382-134.056-40.382
			s-84.406,80.765-134.056,40.382l-30.648,59.502c32.103,54.745,93.823,91.807,164.704,91.807
			c74.666,0,139.176-41.119,169.599-100.718L417.199,287.297z M256,340.257c-27.421,0-49.65-17.917-49.65-40.019
			S228.579,260.22,256,260.22s49.65,17.917,49.65,40.019S283.422,340.257,256,340.257z"/>
		<path style="fill:#EFEDEE;" d="M63.672,200.114c-46.986,90.393-46.986,219.194-46.986,219.194h105.259V200.114l-30.783-21.023
			L63.672,200.114z"/>
		<path style="fill:#D4D2D3;" d="M107.009,189.914l-15.848-10.823l-27.489,21.023c-46.986,90.393-46.986,219.194-46.986,219.194h30
			c0,0,0-128.801,46.986-219.194L107.009,189.914z"/>
		<path style="fill:#EFEDEE;" d="M448.329,200.114c46.986,90.393,46.986,219.194,46.986,219.194H390.056V200.114l30.783-21.023
			L448.329,200.114z"/>
		<polygon style="fill:#D4D2D3;" points="434.992,189.914 420.84,179.091 390.056,200.114 390.056,419.308 420.056,419.308 
			420.056,200.114 		"/>
		<path style="fill:#EFEDEE;" d="M63.672,158.068C63.672,83.962,125.916,7.5,256,7.5s192.328,76.462,192.328,150.568
			l-191.831,21.023L63.672,158.068z"/>
		<path style="fill:#D4D2D3;" d="M103.672,158.068c0-70.199,55.865-142.499,172.328-149.929C269.518,7.725,262.859,7.5,256,7.5
			C125.917,7.5,63.672,83.961,63.672,158.068l192.825,21.023l19.948-2.187L103.672,158.068z"/>
		<path style="fill:#3A484A;" d="M448.329,158.068H63.672c-11.611,0-21.023,9.412-21.023,21.023v0
			c0,11.611,9.412,21.023,21.023,21.023h384.657c11.611,0,21.023-9.412,21.023-21.023v0
			C469.352,167.48,459.94,158.068,448.329,158.068z"/>
		<path style="fill:#313D40;" d="M82.649,179.091L82.649,179.091c0-11.611,9.412-21.023,21.023-21.023h-40
			c-11.611,0-21.023,9.413-21.023,21.023l0,0c0,11.61,9.412,21.023,21.023,21.023h40C92.062,200.114,82.649,190.702,82.649,179.091z
			"/>
	</g>
	<g>
		<path d="M161.276,258.835c4.142,0,7.5-3.358,7.5-7.5v-18.418c0-4.142-3.358-7.5-7.5-7.5c-4.143,0-7.5,3.358-7.5,7.5v18.418
			C153.776,255.478,157.133,258.835,161.276,258.835z"/>
		<path d="M350.725,258.835c4.142,0,7.5-3.358,7.5-7.5v-18.418c0-4.142-3.358-7.5-7.5-7.5s-7.5,3.358-7.5,7.5v18.418
			C343.225,255.478,346.583,258.835,350.725,258.835z"/>
		<path d="M277.878,283.091c-3.119-2.726-7.857-2.408-10.583,0.71c-2.74,3.135-6.857,4.932-11.296,4.932s-8.556-1.797-11.296-4.932
			c-2.726-3.118-7.464-3.437-10.583-0.711c-3.119,2.726-3.437,7.464-0.711,10.583c5.589,6.394,13.822,10.06,22.59,10.06
			c8.767,0,17.001-3.667,22.589-10.06C281.315,290.556,280.997,285.817,277.878,283.091z"/>
		<path d="M502.815,419.309c0-5.165-0.511-123.796-43.479-213.906c10.278-4.316,17.515-14.484,17.515-26.312
			c0-13.19-9.001-24.313-21.182-27.561c-1.766-38.899-19.26-74.959-49.732-102.134C369.701,17.081,317.854,0,256,0
			S142.299,17.081,106.063,49.396C75.591,76.571,58.097,112.631,56.331,151.53c-12.181,3.248-21.182,14.371-21.182,27.561
			c0,11.828,7.237,21.995,17.515,26.311C9.696,295.512,9.185,414.144,9.185,419.309c0,4.142,3.358,7.5,7.5,7.5H66.49
			c-3.451,7.844-6.315,16.242-8.524,25.118c-3.943,15.845-5.942,33.533-5.942,52.573c0,4.142,3.358,7.5,7.5,7.5h392.953
			c4.142,0,7.5-3.358,7.5-7.5c0-19.038-1.999-36.726-5.942-52.574c-2.209-8.875-5.073-17.273-8.524-25.118h49.805
			C499.457,426.809,502.815,423.451,502.815,419.309z M63.672,165.568h94.507c4.143,0,7.5-3.358,7.5-7.5s-3.357-7.5-7.5-7.5H71.4
			C75.449,83.89,133.607,15,256,15c122.393,0,180.551,68.89,184.6,135.568H188.179c-4.142,0-7.5,3.358-7.5,7.5s3.358,7.5,7.5,7.5
			h260.149c7.457,0,13.523,6.067,13.523,13.523s-6.067,13.523-13.523,13.523h-58.272H63.672c-7.457,0-13.523-6.066-13.523-13.523
			C50.149,171.634,56.215,165.568,63.672,165.568z M382.556,363.001c-1.567,1.452-3.164,2.863-4.775,4.253
			c-0.016,0.014-0.033,0.025-0.05,0.039c-29.427,25.326-65.881,40.477-105.421,43.815c-4.674,0.381-9.354,0.617-14.044,0.673
			c-4.411,0.05-8.848-0.05-13.311-0.308c-30.429-1.758-60.491-10.785-86.562-26.64c-10.337-6.286-20.074-13.611-28.95-21.834
			v-81.188c6.766,3.349,13.641,4.994,20.773,4.994c20.102-0.001,37.817-13.462,54.95-26.48
			c16.311-12.394,33.177-25.209,50.833-25.209c17.657,0,34.522,12.815,50.832,25.209c17.132,13.019,34.848,26.48,54.952,26.48
			c7.133,0,14.008-1.645,20.773-4.994V363.001z M382.556,264.3c-6.989,5.042-13.812,7.506-20.773,7.506
			c-15.052,0-30.024-11.377-45.876-23.423C297.62,234.486,278.71,220.117,256,220.117c-22.708,0-41.62,14.37-59.908,28.266
			c-15.853,12.045-30.826,23.423-45.875,23.423c-6.96,0-13.784-2.463-20.773-7.506v-56.686h253.113V264.3z M68.271,207.614h46.172
			v204.194H24.342C25.216,383.719,30.942,282.618,68.271,207.614z M72.522,455.549c2.587-10.393,6.123-20.041,10.531-28.741h38.891
			c4.143,0,7.5-3.358,7.5-7.5v-36.507c29.114,23.481,64.346,38.16,102.115,42.586V497H117.528v-36.192c0-4.142-3.358-7.5-7.5-7.5
			s-7.5,3.358-7.5,7.5V497H67.135C67.585,482.044,69.391,468.131,72.522,455.549z M246.559,426.594
			c0.239,0.01,0.48,0.015,0.719,0.025c2.905,0.126,5.814,0.189,8.721,0.189c0.011,0,0.023,0,0.042,0c3.028,0,6.054-0.203,9.08-0.203
			c0.106-0.004,0.213-0.006,0.319-0.011V497h-18.882V426.594z M439.479,455.549c3.131,12.583,4.937,26.497,5.386,41.451h-35.393
			v-36.192c0-4.142-3.358-7.5-7.5-7.5s-7.5,3.358-7.5,7.5V497H280.441v-71.612c37.77-4.426,73.001-19.104,102.115-42.585v36.506
			c0,4.142,3.358,7.5,7.5,7.5h38.891C433.356,435.51,436.892,445.157,439.479,455.549z M397.556,411.809V207.614h46.173
			c37.329,75.004,43.055,176.104,43.929,204.194H397.556z"/>
		<path d="M256,252.721c-31.513,0-57.15,21.316-57.15,47.518s25.637,47.518,57.15,47.518s57.15-21.316,57.15-47.518
			S287.513,252.721,256,252.721z M256,332.757c-23.242,0-42.15-14.588-42.15-32.518c0-17.931,18.908-32.518,42.15-32.518
			c23.242,0,42.15,14.587,42.15,32.518C298.15,318.169,279.242,332.757,256,332.757z"/>
	</g>
</g>
<g>
</g>
<g>
</g>
<g>
</g>
<g>
</g>
<g>
</g>
<g>
</g>
<g>
</g>
<g>
</g>
<g>
</g>
<g>
</g>
<g>
</g>
<g>
</g>
<g>
</g>
<g>
</g>
<g>
</g>
</svg>
