<?xml version="1.0" encoding="iso-8859-1"?>
<!-- Generator: Adobe Illustrator 19.0.0, SVG Export Plug-In . SVG Version: 6.00 Build 0)  -->
<svg version="1.1" id="Layer_1" xmlns="http://www.w3.org/2000/svg" xmlns:xlink="http://www.w3.org/1999/xlink" x="0px" y="0px"
	 viewBox="0 0 512 512" style="enable-background:new 0 0 512 512;" xml:space="preserve">
<g>
	<g>
		<polygon style="fill:#F98084;" points="139.401,423.249 115.131,439.605 97.504,472.844 118.824,504.5 393.177,504.5 
			414.497,472.844 396.87,439.605 372.6,423.249 256,396.869 		"/>
		<path style="fill:#DC5A64;" d="M118.824,504.5c0-49.594,20.576-81.251,20.576-81.251c-51.705,0-75.975,53.288-75.975,81.251
			H118.824z"/>
		<path style="fill:#DC5A64;" d="M393.177,504.5c0-49.594-20.576-81.251-20.576-81.251c51.705,0,75.975,53.288,75.975,81.251
			H393.177z"/>
		<circle style="fill:#DC5A64;" cx="328.238" cy="465.589" r="16.663"/>
		<path style="fill:#EFEDEE;" d="M145.752,397.38l-6.356-10.518c-36.679-60.7-59.924-116.845-69.09-166.877
			c-9.412-51.372-4.01-95.455,16.056-131.025c15.285-27.096,38.356-47.894,68.571-61.817C183.216,14.108,217.221,7.5,256,7.5
			s72.784,6.608,101.069,19.642c30.215,13.923,53.286,34.722,68.571,61.817c20.066,35.57,25.468,79.653,16.056,131.025
			c-9.166,50.032-32.411,106.177-69.09,166.877l-6.357,10.518H145.752z"/>
		<path style="fill:#D4D2D3;" d="M86.306,219.984c-9.412-51.372-4.01-95.455,16.056-131.025
			c15.285-27.096,38.356-47.894,68.571-61.817C197.253,15.013,228.534,8.456,264,7.603c-2.645-0.063-5.308-0.103-8-0.103
			c-38.78,0-72.784,6.608-101.069,19.642c-30.214,13.923-53.285,34.722-68.571,61.817c-20.066,35.57-25.468,79.653-16.056,131.025
			c9.167,50.032,32.412,106.177,69.09,166.877l6.356,10.518h16l-6.356-10.518C118.718,326.162,95.472,270.017,86.306,219.984z"/>
		<path style="fill:#2FC8B4;" d="M166.49,370.489C41.091,162.966,95.962,39.156,256,39.156s214.909,123.81,89.511,331.333
			L256,396.869L166.49,370.489z"/>
		<path style="fill:#00AE95;" d="M196.49,370.489C75.094,169.59,122.644,47.148,271,39.535c-4.892-0.251-9.892-0.379-15-0.379
			c-160.039,0-214.909,123.81-89.511,331.333L256,396.869l15-4.42L196.49,370.489z"/>
		<g id="XMLID_927_">
			<path style="fill:#DC5A64;" d="M187.305,285.132h-20.969c-4.142,0-7.5-3.358-7.5-7.5s3.358-7.5,7.5-7.5h20.969
				c4.142,0,7.5,3.358,7.5,7.5S191.447,285.132,187.305,285.132z"/>
		</g>
		<g id="XMLID_925_">
			<path style="fill:#DC5A64;" d="M345.665,285.132h-20.969c-4.142,0-7.5-3.358-7.5-7.5s3.358-7.5,7.5-7.5h20.969
				c4.142,0,7.5,3.358,7.5,7.5S349.807,285.132,345.665,285.132z"/>
		</g>
		<path style="fill:#937FE6;" d="M345.511,370.489H166.49c-14.961,0-27.089,12.128-27.089,27.089v25.671h233.2v-25.671
			C372.6,382.617,360.472,370.489,345.511,370.489z"/>
		<path style="fill:#8271CC;" d="M196.49,370.489h-30c-14.961,0-27.089,12.128-27.089,27.089v25.671h30v-25.671
			C169.401,382.617,181.529,370.489,196.49,370.489z"/>
	</g>
	<g>
		<circle cx="328.007" cy="396.869" r="8.969"/>
		<circle cx="279.996" cy="396.869" r="8.969"/>
		<circle cx="231.984" cy="396.869" r="8.969"/>
		<circle cx="183.972" cy="396.869" r="8.969"/>
		<path d="M184.311,255.002v-15.396c0-4.142-3.358-7.5-7.5-7.5s-7.5,3.358-7.5,7.5v15.396c0,4.143,3.358,7.5,7.5,7.5
			S184.311,259.145,184.311,255.002z"/>
		<path d="M342.669,255.002v-15.396c0-4.142-3.358-7.5-7.5-7.5s-7.5,3.358-7.5,7.5v15.396c0,4.143,3.358,7.5,7.5,7.5
			S342.669,259.145,342.669,255.002z"/>
		<path d="M255.99,284.262c7.684,0,14.904-3.219,19.809-8.83c2.726-3.119,2.408-7.857-0.711-10.583
			c-3.118-2.726-7.856-2.407-10.583,0.711c-2.056,2.353-5.16,3.702-8.515,3.702c-3.355,0-6.458-1.35-8.516-3.702
			c-2.727-3.119-7.464-3.437-10.583-0.71c-3.118,2.726-3.436,7.464-0.71,10.583C241.087,281.043,248.307,284.262,255.99,284.262z"/>
		<path d="M328.227,489.752c13.324,0,24.164-10.839,24.164-24.163s-10.84-24.163-24.164-24.163s-24.163,10.839-24.163,24.163
			S314.903,489.752,328.227,489.752z M328.227,456.426c5.053,0,9.164,4.11,9.164,9.163s-4.111,9.163-9.164,9.163
			s-9.163-4.11-9.163-9.163S323.174,456.426,328.227,456.426z"/>
		<path d="M131.89,416.102c-27.657,2.549-45.529,18.899-55.891,32.806c-12.201,16.374-20.084,38.195-20.084,55.592
			c0,4.142,3.358,7.5,7.5,7.5h385.149c0.007,0,0.013,0,0.02,0c4.142,0,7.5-3.358,7.5-7.5c0-0.199-0.008-0.397-0.023-0.592
			c-0.176-17.298-8.018-38.811-20.081-55c-10.362-13.906-28.233-30.256-55.891-32.806v-18.523c0-2.512-0.276-4.96-0.787-7.321
			c36.982-61.295,60.453-118.126,69.759-168.921c9.154-49.96,4.659-93.498-13.36-129.403c-1.858-3.703-6.367-5.196-10.067-3.34
			c-3.702,1.858-5.197,6.365-3.339,10.067c16.524,32.927,20.565,73.291,12.012,119.972c-8.573,46.799-29.774,99.183-63.055,155.832
			c-3.764-4.199-8.514-7.411-13.828-9.356c31.977-54.599,52.324-104.846,60.501-149.477c8.366-45.663,3.879-84.288-13.334-114.803
			c-25.528-45.252-76.914-69.172-148.6-69.172c-46.302,0-84.102,9.959-112.352,29.602c-28.877,20.078-46.307,49.117-51.806,86.31
			c-0.605,4.098,2.225,7.911,6.323,8.517c4.094,0.605,7.911-2.225,8.516-6.322c9.83-66.489,62.858-103.105,149.319-103.105
			c65.956,0,112.823,21.281,135.535,61.542c31.933,56.605,14.071,146.985-50.269,254.792H170.724
			c-41.777-70.014-64.471-133.977-65.676-185.188c-0.098-4.141-3.506-7.425-7.675-7.321c-4.141,0.098-7.418,3.534-7.321,7.675
			c1.252,53.178,22.956,116.037,64.508,186.952c0,0-0.001,0-0.002,0.001c-5.314,1.946-10.065,5.158-13.83,9.355
			c-33.281-56.647-54.481-109.031-63.056-155.831c-9.087-49.599-3.97-91.988,15.21-125.988
			c14.496-25.694,36.424-45.441,65.177-58.691C185.353,21.377,218.302,15,255.99,15c37.689,0,70.637,6.377,97.93,18.954
			c21.778,10.036,39.758,23.902,53.44,41.213c2.569,3.25,7.286,3.802,10.535,1.233c3.25-2.568,3.802-7.285,1.234-10.534
			c-15.16-19.181-34.987-34.501-58.931-45.535C330.922,6.84,295.862,0,255.99,0s-74.932,6.84-104.208,20.331
			c-31.675,14.597-55.887,36.447-71.963,64.944c-20.951,37.14-26.637,82.917-16.9,136.062
			c9.307,50.796,32.779,107.627,69.759,168.921c-0.511,2.361-0.787,4.81-0.787,7.322V416.102z M368.25,430.75
			c4.261,7.945,14.19,29.251,16.783,59.201c0.184,2.131,0.452,6.883,0.459,7.05H126.49c0.009-0.214,0.613-9.323,1.158-13.636
			c2.304-18.215,7.379-36.39,16.083-52.614H368.25z M126.344,432.072c-4.225,9.39-9.404,23.608-12.448,41.631
			c-0.009,0.051-0.017,0.102-0.026,0.154c-1.275,7.65-2.093,15.392-2.406,23.143H71.541
			C74.848,475.274,91.496,439.38,126.344,432.072z M440.439,497h-39.923c-0.374-9.291-1.455-18.565-3.229-27.692
			c-3.099-15.944-7.776-28.623-11.651-37.236C420.484,439.38,437.132,475.274,440.439,497z M345.501,377.989
			c10.568,0,19.589,9.039,19.589,19.589v18.171h-218.2v-18.171c0-10.57,8.904-19.589,19.589-19.589
			C166.479,377.989,345.4,377.989,345.501,377.989z"/>
	</g>
</g>
<g>
</g>
<g>
</g>
<g>
</g>
<g>
</g>
<g>
</g>
<g>
</g>
<g>
</g>
<g>
</g>
<g>
</g>
<g>
</g>
<g>
</g>
<g>
</g>
<g>
</g>
<g>
</g>
<g>
</g>
</svg>
