<?xml version="1.0" encoding="iso-8859-1"?>
<!-- Generator: Adobe Illustrator 19.0.0, SVG Export Plug-In . SVG Version: 6.00 Build 0)  -->
<svg version="1.1" id="Layer_1" xmlns="http://www.w3.org/2000/svg" xmlns:xlink="http://www.w3.org/1999/xlink" x="0px" y="0px"
	 viewBox="0 0 512 512" style="enable-background:new 0 0 512 512;" xml:space="preserve">
<g>
	<g>
		<path style="fill:#FBC4AC;" d="M125.342,365.228c-2.561,1.561-5.45,3.47-8.572,5.766C93.185,388.414,56.986,423.419,56.986,504.5
			h68.355l29.626-87.911L125.342,365.228z"/>
		<path style="fill:#FBC4AC;" d="M395.232,370.994c-3.123-2.296-6.011-4.205-8.572-5.766l-31.913,51.361l31.913,87.911h68.355
			C455.015,423.419,418.816,388.414,395.232,370.994z"/>
		<path style="fill:#E3B098;" d="M86.986,504.5c0-67.88,25.37-103.461,47.469-123.472l-9.114-15.801
			c-2.562,1.562-5.45,3.47-8.572,5.766c-16.583,12.249-39.402,33.191-51.489,72.73c-2.149,7.029-3.958,14.646-5.334,22.907
			c-1.473,8.851-2.343,17.804-2.727,26.767c-0.154,3.602-0.234,7.301-0.234,11.102H86.986z"/>
		<path style="fill:#3A484A;" d="M386.659,365.228V504.5h-99.706L256,488.682L225.048,504.5h-99.706V365.228
			c6.817-4.143,11.277-5.817,11.277-5.817h238.764C375.383,359.411,379.842,361.084,386.659,365.228z"/>
		<path style="fill:#313D40;" d="M125.342,390.086c7.419-8.109,14.906-14.275,21.428-19.093c3.123-2.296,6.011-4.205,8.572-5.766
			c6.817-4.143,11.277-5.817,11.277-5.817h-30c0,0-2.944,1.105-7.705,3.742c-0.366,0.203-0.743,0.415-1.13,0.636
			c-0.774,0.442-1.59,0.922-2.442,1.439V390.086z"/>
		<polygon style="fill:#00AE95;" points="286.957,504.5 280.271,434.147 231.73,434.147 225.044,504.5 		"/>
		<path style="fill:#2FC8B4;" d="M225.044,385.031v35.773c0,5.253,2.478,10.198,6.686,13.342l14.3,10.686
			c5.912,4.418,14.027,4.418,19.94,0l14.3-10.686c4.208-3.144,6.686-8.089,6.686-13.342v-35.773H225.044z"/>
		<path style="fill:#EFEDEE;" d="M201.912,372.851l-29.49,14.051l10.46,34.147c2.147,7.009,10.318,10.123,16.586,6.321l38.871-23.58
			L201.912,372.851z"/>
		<path style="fill:#EFEDEE;" d="M310.089,372.851l29.49,14.051l-10.46,34.147c-2.147,7.009-10.318,10.123-16.586,6.321
			l-38.871-23.58L310.089,372.851z"/>
		<path style="fill:#EFEDEE;" d="M144.179,36.436c-76.977-4.273-94.256,10.323-78.132,72.761L144.179,36.436z"/>
		<path style="fill:#D4D2D3;" d="M132.438,35.923c-66.966-2.074-81.66,14.148-66.392,73.274l16.54-15.403
			C75.001,52.793,87.827,37.671,132.438,35.923z"/>
		<path style="fill:#EFEDEE;" d="M367.822,36.436c76.977-4.273,94.256,10.323,78.133,72.761L367.822,36.436z"/>
		<path style="fill:#D4D2D3;" d="M379.563,35.923c44.611,1.748,57.437,16.87,49.852,57.871l16.54,15.403
			C461.223,50.071,446.528,33.85,379.563,35.923z"/>
		<path style="fill:#2FC8B4;" d="M59.787,272.597c0,0-14.854,42.533-39.542,68.466c-3.372,3.542-1.162,9.425,3.715,9.788
			c9.918,0.737,23.614,0.444,33.027-5.044c0,0-1.012,12.541-3.761,23.269c-1.21,4.721,3.665,8.684,8.084,6.631
			c13.061-6.069,32.877-18.481,41.742-40.497l10.413-62.613H59.787z"/>
		<path style="fill:#2FC8B4;" d="M452.214,272.597c0,0,14.854,42.533,39.542,68.466c3.372,3.542,1.162,9.425-3.715,9.788
			c-9.918,0.737-23.614,0.444-33.027-5.044c0,0,1.012,12.541,3.761,23.269c1.21,4.721-3.665,8.684-8.084,6.631
			c-13.061-6.069-32.877-18.481-41.742-40.497l-10.413-62.613H452.214z"/>
		<circle style="fill:#EFEDEE;" cx="59.787" cy="229.331" r="43.265"/>
		<circle style="fill:#EFEDEE;" cx="452.214" cy="229.331" r="43.265"/>
		<path style="fill:#2FC8B4;" d="M438.853,98.805C396.653,40.877,327.315,7.5,256.001,7.5c-71.188,0-140.757,33.473-182.853,91.305
			c-25.529,35.044-39.26,76.575-39.26,120.167h444.225C478.113,175.38,464.382,133.849,438.853,98.805z"/>
		<path style="fill:#00AE95;" d="M276.025,8.377C269.381,7.795,262.7,7.5,256.001,7.5c-71.188,0-140.757,33.473-182.853,91.305
			c-25.529,35.044-39.26,76.575-39.26,120.167h40c0-43.592,13.732-85.123,39.26-120.167
			C151.294,46.399,211.998,13.997,276.025,8.377z"/>
		<path style="fill:#FBC4AC;" d="M452.213,218.971c0,0-81.573-29.646-118.312-96.32c0,0-2.128,22.95,4.222,50.509
			c1.326,5.753-4.126,10.764-9.721,8.877c-22.195-7.484-65.144-25.413-72.402-53.944c-7.258,28.531-50.207,46.46-72.402,53.944
			c-5.594,1.886-11.046-3.124-9.721-8.877c6.35-27.559,4.222-50.509,4.222-50.509c-36.739,66.675-118.312,96.32-118.312,96.32
			c0,102.487,87.848,185.569,196.213,185.569S452.214,321.458,452.213,218.971L452.213,218.971L452.213,218.971z"/>
		<g>
			<path style="fill:#E3B098;" d="M75.22,212.302c-9.448,4.491-15.433,6.669-15.433,6.669c0,93.355,72.894,170.598,167.787,183.624
				C142.79,374.663,80.838,300.671,75.22,212.302z"/>
		</g>
		<g id="XMLID_922_">
			<path style="fill:#F98084;" d="M170.329,266.191h-26.15c-4.143,0-7.5-3.358-7.5-7.5s3.357-7.5,7.5-7.5h26.15
				c4.143,0,7.5,3.358,7.5,7.5S174.472,266.191,170.329,266.191z"/>
		</g>
		<g id="XMLID_920_">
			<path style="fill:#F98084;" d="M367.822,266.191h-26.151c-4.143,0-7.5-3.358-7.5-7.5s3.357-7.5,7.5-7.5h26.151
				c4.143,0,7.5,3.358,7.5,7.5S371.965,266.191,367.822,266.191z"/>
		</g>
	</g>
	<g>
		<path d="M157.254,237.97c4.142,0,7.5-3.358,7.5-7.5v-19.2c0-4.143-3.358-7.5-7.5-7.5s-7.5,3.357-7.5,7.5v19.2
			C149.754,234.612,153.112,237.97,157.254,237.97z"/>
		<path d="M354.747,237.97c4.142,0,7.5-3.358,7.5-7.5v-19.2c0-4.143-3.358-7.5-7.5-7.5s-7.5,3.357-7.5,7.5v19.2
			C347.247,234.612,350.604,237.97,354.747,237.97z"/>
		<path d="M278.598,244.146c-3.119-2.726-7.857-2.408-10.583,0.71c-2.916,3.337-7.295,5.25-12.015,5.25s-9.098-1.913-12.015-5.25
			c-2.726-3.119-7.464-3.437-10.583-0.711c-3.119,2.726-3.437,7.464-0.711,10.583c5.765,6.596,14.261,10.378,23.309,10.378
			s17.543-3.782,23.309-10.378C282.035,251.61,281.716,246.872,278.598,244.146z"/>
		<path d="M502.978,229.332c0-15.651-7.206-30.327-19.427-39.925c-4.053-28.86-14.045-56.463-29.541-81.486
			c7.485-30.4,6.503-48.848-3.168-61.334c-9.956-12.854-28.125-18.337-60.755-18.337c-6.182,0-12.908,0.193-20.48,0.584
			c-9.109-4.933-18.603-9.305-28.443-13.065c-3.869-1.478-8.205,0.459-9.683,4.329c-1.479,3.869,0.459,8.204,4.329,9.683
			c18.849,7.203,36.576,16.859,52.786,28.904c0.053,0.04,0.106,0.079,0.159,0.119c19.97,14.909,37.326,33.323,50.792,54.307
			c15.911,24.804,25.922,52.432,29.538,81.365c0.69,5.523,1.167,11.337,1.383,16.999c0,0-16.871-0.001-16.878-0.004
			c-0.151-0.059-0.524-0.207-0.538-0.212c-32.47-12.96-63.522-32.818-87.545-58.321c-9.508-10.094-18.163-21.505-24.962-33.77
			c-0.025-0.045-0.051-0.089-0.076-0.134c-1.589-2.885-4.874-4.395-8.1-3.722c-3.7,0.772-5.748,3.966-6.009,7.543
			c-0.249,3.417-0.919,16.025,1.082,32.691c0.722,6.016,1.79,12.555,3.355,19.387c-1.198-0.404-2.511-0.859-3.908-1.357
			c-19.743-7.044-57.543-23.435-63.622-47.328c-1.87-7.349-12.67-7.341-14.538-0.001c-1.711,6.729-5.953,12.855-11.583,18.353
			c-14.073,13.741-36.885,23.511-51.126,28.673c-1.728,0.626-3.343,1.192-4.787,1.682l-0.049-0.108
			c3.694-16.034,5.357-32.743,4.614-49.193c-0.056-1.232-0.127-2.463-0.234-3.692c-0.683-7.172-10.549-9.254-14.037-2.927
			c-0.021,0.037-0.042,0.073-0.063,0.11c-1.071,1.939-2.186,3.855-3.344,5.744c-33.844,55.209-100.145,82.823-109.729,86.588H41.531
			c0.217-5.677,0.68-11.369,1.385-17.021c3.616-28.929,13.634-56.562,29.556-81.372c20.658-32.182,50.288-57.971,84.516-74.89
			C187.677,23.019,221.915,15,256,15c15.889,0,31.929,1.746,47.675,5.19c4.045,0.884,8.044-1.677,8.929-5.724
			c0.885-4.046-1.678-8.044-5.724-8.929C290.083,1.863,272.965,0,256,0c-36.378,0-72.915,8.556-105.66,24.742
			c-2.652,1.311-5.264,2.688-7.857,4.094c-7.609-0.394-14.364-0.589-20.571-0.589c-32.632,0-50.803,5.483-60.758,18.336
			c-9.67,12.486-10.652,30.934-3.166,61.337c-15.497,25.023-25.488,52.626-29.541,81.486c-12.22,9.599-19.426,24.273-19.426,39.925
			c0,24.373,17.268,44.783,40.21,49.654c-5.62,13.485-17.778,39.425-34.419,56.906c-3.592,3.773-4.66,9.134-2.789,13.99
			c3.241,8.412,11.915,8.764,19.64,8.764c6.034,0,11.499-0.534,16.359-1.597c-0.526,3.26-1.206,6.818-2.063,10.164
			c-2.729,10.65,8.59,19.904,18.509,15.295c13.109-6.09,29.78-16.734,40.392-34.226c4.206,4.411,8.626,8.633,13.239,12.662
			c-1.929,1.265-3.864,2.602-5.789,4.017c-42.276,31.226-62.827,76.87-62.827,139.539c0,4.142,3.358,7.5,7.5,7.5h398.028
			c4.142,0,7.5-3.358,7.5-7.5c0-62.668-20.551-108.312-62.84-139.549c-1.891-1.39-3.795-2.706-5.693-3.953
			c2-1.75,3.979-3.529,5.917-5.361c2.506-2.37,4.935-4.793,7.294-7.263c10.615,17.438,27.252,28.054,40.338,34.135
			c9.892,4.596,21.231-4.675,18.51-15.294c-0.855-3.338-1.535-6.9-2.062-10.165c4.86,1.062,10.324,1.596,16.359,1.596
			c2.661,0,5.44-0.106,8.259-0.315c10.985-0.816,16.163-14.482,8.591-22.439c-16.642-17.481-28.8-43.422-34.42-56.906
			C485.71,274.114,502.978,253.705,502.978,229.332z M438.984,55.771c5.247,6.774,6.363,17.882,3.339,35.131
			c-12.171-16.043-26.572-30.398-42.58-42.607c-2.251-1.717-4.536-3.396-6.855-5.032C418.239,43.524,432.51,47.414,438.984,55.771z
			 M73.014,55.769c6.478-8.363,20.768-12.251,46.158-12.508c-18.259,12.831-34.254,28.042-47.791,45.438
			c-0.177,0.227-1.317,1.691-1.704,2.202C66.652,73.651,67.768,62.542,73.014,55.769z M24.022,229.332
			c0-4.451,0.827-8.791,2.38-12.83c-0.01,0.824-0.015,1.648-0.015,2.47c0,4.076,3.423,7.5,7.5,7.5l18.551-0.001
			c0.526,13.005,2.444,25.986,5.705,38.588C39.183,264.197,24.022,248.501,24.022,229.332z M61.34,367.356
			c2.236-10.19,3.083-20.458,3.122-20.945c0.474-5.916-6.11-10.079-11.253-7.083c-5.451,3.178-14.25,4.666-25.081,4.249
			c17.86-19.973,30.243-47.159,35.668-60.503c7.118,19.204,17.347,37.09,30.503,53.327C86.655,351.732,72.9,361.494,61.34,367.356z
			 M236.219,428.138c-2.302-1.72-3.676-4.461-3.676-7.334c0,0,0-4.727,0.008-4.731l7.605-4.613c5.271,0.383,10.559,0.58,15.844,0.58
			c5.285,0,10.575-0.196,15.846-0.579l7.61,4.616v4.727c0,2.873-1.374,5.614-3.676,7.334c0,0-14.289,10.678-14.299,10.686
			c-3.213,2.401-7.752,2.399-10.961,0L236.219,428.138z M216.33,408.369c0,0-20.736,12.579-20.752,12.589
			c-2.062,1.251-4.818,0.199-5.524-2.106l-5.871-19.163c8.437,3.015,17.065,5.476,25.844,7.394c0.018,0.004,0.036,0.008,0.054,0.012
			C212.158,407.542,214.24,407.979,216.33,408.369z M327.8,399.746l-5.852,19.105c-0.705,2.3-3.478,3.347-5.525,2.106
			l-20.713-12.565C306.683,406.348,317.407,403.449,327.8,399.746z M293.777,497l-5.69-59.869c3.109-3.398,5.204-7.638,6.004-12.177
			c0,0,14.549,8.825,14.552,8.827c10.327,6.264,24.121,0.976,27.647-10.537l9.451-30.853c11.72-5.459,22.906-12.013,33.418-19.604
			V497H293.777z M117.841,379.556V497H64.598C66.829,422.89,101.905,391.709,117.841,379.556z M132.841,372.77
			c10.469,7.532,21.659,14.043,33.377,19.488c0,0,9.485,30.961,9.492,30.986c3.515,11.474,17.377,16.769,27.646,10.537l14.552-8.827
			c0.8,4.539,2.895,8.778,6.004,12.177L218.223,497h-85.381V372.77z M233.29,497l4.643-48.855l3.607,2.696
			c4.208,3.144,9.208,4.805,14.459,4.805c5.105,0,10.311-1.705,14.46-4.806l3.607-2.696L278.71,497H233.29z M447.402,497l-53.244,0
			V379.555C410.109,391.722,445.171,422.906,447.402,497z M336.985,379.788c-25.238,11.363-53.205,17.251-80.991,17.251
			c-29.045,0-58.136-6.381-84.397-18.822c-0.056-0.026-0.111-0.053-0.167-0.079c-49.469-23.496-86.549-66.93-99.314-119.049
			c-0.017-0.071-0.034-0.142-0.052-0.212c-2.723-11.282-4.3-22.744-4.681-34.343c-0.005-0.163-0.009-0.326-0.014-0.488
			c0.051-0.021,0.112-0.047,0.164-0.069c6.07-2.497,12.014-5.294,17.87-8.256c30.941-15.672,59.872-36.684,81.835-63.73
			c1.003-1.235,1.998-2.482,2.992-3.771c-0.095,1.06-0.205,2.151-0.324,3.256c-0.658,6.12-1.702,12.898-3.34,20.014
			c-1.276,5.54,1.046,11.377,5.365,14.957c7.698,6.381,18.174,1.403,26.146-1.716c0.022-0.009,0.045-0.018,0.067-0.026
			c10.688-4.182,21.387-9.254,31.222-15.382c11.838-7.376,20.743-15.352,26.633-23.834c5.891,8.482,14.795,16.458,26.634,23.834
			c7.976,4.97,16.407,9.177,25.05,12.855c9.922,4.222,23.182,12.952,33.18,3.871c3.97-3.606,5.773-9.346,4.568-14.573
			c-1.663-7.213-2.805-14.537-3.523-21.903c-0.044-0.457-0.092-0.92-0.131-1.369c31.447,40.726,76.913,64.318,97.33,73.443
			c2.201,0.997,4.023,1.792,5.522,2.419c-0.005,0.175-0.009,0.35-0.015,0.524c-0.288,8.592-1.238,17.336-2.854,25.848
			c-0.004,0.019-0.007,0.037-0.01,0.056C430.877,307.683,390.966,355.484,336.985,379.788z M480.335,343.646
			c-9.249,0-16.699-1.493-21.545-4.318c-5.145-2.999-11.732,1.163-11.253,7.083c0.039,0.481,0.886,10.752,3.123,20.945
			c-11.555-5.86-25.3-15.614-32.948-30.933c13.185-16.236,23.445-34.188,30.521-53.275c5.441,13.37,17.81,40.493,35.638,60.429
			C482.671,343.623,481.49,343.646,480.335,343.646z M453.897,265.057c2.399-9.33,4.066-18.871,4.98-28.563
			c0.314-3.332,0.549-6.677,0.684-10.022h18.552c4.142,0,7.5-3.358,7.5-7.5c0-0.822-0.005-1.646-0.015-2.471
			c1.553,4.039,2.38,8.379,2.38,12.83C487.978,248.487,472.838,264.173,453.897,265.057z"/>
	</g>
</g>
<g>
</g>
<g>
</g>
<g>
</g>
<g>
</g>
<g>
</g>
<g>
</g>
<g>
</g>
<g>
</g>
<g>
</g>
<g>
</g>
<g>
</g>
<g>
</g>
<g>
</g>
<g>
</g>
<g>
</g>
</svg>
