<?xml version="1.0" encoding="iso-8859-1"?>
<!-- Generator: Adobe Illustrator 19.0.0, SVG Export Plug-In . SVG Version: 6.00 Build 0)  -->
<svg version="1.1" id="Layer_1" xmlns="http://www.w3.org/2000/svg" xmlns:xlink="http://www.w3.org/1999/xlink" x="0px" y="0px"
	 viewBox="0 0 512 512" style="enable-background:new 0 0 512 512;" xml:space="preserve">
<g>
	<g>
		<path style="fill:#DC5A64;" d="M127.61,267.251c0,0-48.878-23.835-70.075-16.564c-14.35,4.923-33.632,24.459-44.591,36.565
			c-4.666,5.154-3.947,13.179,1.555,17.429c21.946,16.951,72.566,59.135,80.13,92.963h65.337l5.507-57.849L127.61,267.251z"/>
		<path style="fill:#DC5A64;" d="M384.391,267.251c0,0,48.878-23.835,70.075-16.564c14.35,4.923,33.632,24.459,44.591,36.565
			c4.666,5.154,3.947,13.179-1.555,17.429c-21.946,16.951-72.566,59.135-80.13,92.963h-65.337l-5.507-57.849L384.391,267.251z"/>
		<path style="fill:#BF4E57;" d="M477.193,265.546c-7.732-6.704-15.803-12.484-22.727-14.859
			c-21.196-7.271-70.075,16.564-70.075,16.564l-37.863,72.544l5.507,57.849h35.287c9.748-6.668,19.014-14.11,27.693-22.317
			C447.178,344.908,468.514,306.917,477.193,265.546z"/>
		<path style="fill:#BF4E57;" d="M165.473,339.795l-37.863-72.544c0,0-48.878-23.835-70.075-16.564
			c-6.924,2.375-14.996,8.156-22.728,14.86c8.679,41.371,30.015,79.361,62.179,109.78c8.678,8.207,17.944,15.648,27.692,22.317
			h35.287L165.473,339.795z"/>
		<path style="fill:#3A484A;" d="M374.857,375.844h-7.672l-23.603,54.822l23.603,73.833h28.836l7.5-6.953l7.5,6.953h43.442
			C454.462,384.57,374.857,375.844,374.857,375.844z"/>
		<path style="fill:#3A484A;" d="M144.817,375.844h-7.672c0,0-79.606,8.726-79.606,128.656h43.442l7.5-7.953l7.5,7.953h28.836
			l28.229-60.753L144.817,375.844z"/>
		<g>
			<path style="fill:#313D40;" d="M146.105,378.942l-1.288-3.098h-7.672c0,0-79.606,8.726-79.606,128.656h21
				C78.539,414.007,123.855,386.833,146.105,378.942z"/>
		</g>
		<rect x="144.817" y="375.844" style="fill:#EFEDEE;" width="222.367" height="128.656"/>
		<path style="fill:#3A484A;" d="M29.598,223.022c0-57.841,23.733-112.142,66.827-152.898C139.125,29.74,195.796,7.5,256,7.5
			s116.876,22.24,159.575,62.623c43.094,40.757,66.828,95.057,66.828,152.898H29.598z"/>
		<path style="fill:#313D40;" d="M146.425,70.123c36.733-34.74,83.809-56.037,134.575-61.315C272.754,7.95,264.414,7.5,256,7.5
			c-60.204,0-116.876,22.24-159.575,62.623c-43.094,40.757-66.827,95.058-66.827,152.898h50
			C79.598,165.181,103.331,110.88,146.425,70.123z"/>
		<circle style="fill:#E3B098;" cx="456.587" cy="223.021" r="44.23"/>
		<path style="fill:#FBC4AC;" d="M456.587,222.568c-0.062-24.823-8.52-48.885-23.468-68.704
			C380.639,84.285,334.702,61.218,256,124.319c-78.701-63.101-124.639-40.034-177.118,29.546
			c-14.948,19.818-23.406,43.881-23.468,68.704c0,0.151-0.001,0.302-0.001,0.453c0,104.771,89.806,189.705,200.587,189.705
			s200.587-84.934,200.587-189.705C456.587,222.87,456.587,222.719,456.587,222.568z"/>
		<path style="fill:#E3B098;" d="M85.414,223.021c0-0.151,0-0.302,0.001-0.454c0.062-24.823,8.52-48.885,23.468-68.704
			c26.791-35.521,51.879-58.909,80.49-64.91c-42.065-8.257-74.763,17.542-110.49,64.91c-6.083,8.066-11.071,16.843-14.876,26.079
			c-2.33-0.745-5.147-1.152-8.593-1.152c-24.427,0-44.23,19.802-44.23,44.23c0,24.427,19.802,44.229,44.23,44.229
			c2.002,0,3.779-0.146,5.39-0.403C81.721,350.487,161.171,412.727,256,412.727c5.046,0,10.047-0.181,15-0.527
			C167.226,404.943,85.414,323.021,85.414,223.021z"/>
		<g id="XMLID_823_">
			<path style="fill:#F98084;" d="M168.42,254.846h-26.734c-4.142,0-7.5-3.358-7.5-7.5s3.358-7.5,7.5-7.5h26.734
				c4.142,0,7.5,3.358,7.5,7.5S172.562,254.846,168.42,254.846z"/>
		</g>
		<g id="XMLID_821_">
			<path style="fill:#F98084;" d="M370.315,254.846h-26.733c-4.142,0-7.5-3.358-7.5-7.5s3.358-7.5,7.5-7.5h26.733
				c4.142,0,7.5,3.358,7.5,7.5S374.457,254.846,370.315,254.846z"/>
		</g>
		<path style="fill:#BF4E57;" d="M239.442,414.981c-41.199,29.401-68.496,33.164-68.496-15.003s27.297-44.404,68.496-15.003V414.981
			z"/>
		<path style="fill:#BF4E57;" d="M272.559,414.981c41.199,29.401,68.496,33.164,68.496-15.003s-27.297-44.404-68.496-15.003V414.981
			z"/>
		<path style="fill:#DC5A64;" d="M259.723,380.228h-7.445c-10.908,0-19.75,8.842-19.75,19.75v0c0,10.908,8.842,19.75,19.75,19.75
			h7.445c10.908,0,19.75-8.842,19.75-19.75v0C279.473,389.07,270.631,380.228,259.723,380.228z"/>
	</g>
	<g>
		<path d="M155.053,225.996c4.142,0,7.5-3.358,7.5-7.5v-19.628c0-4.142-3.358-7.5-7.5-7.5s-7.5,3.358-7.5,7.5v19.628
			C147.553,222.638,150.91,225.996,155.053,225.996z"/>
		<path d="M356.948,225.996c4.142,0,7.5-3.358,7.5-7.5v-19.628c0-4.142-3.358-7.5-7.5-7.5s-7.5,3.358-7.5,7.5v19.628
			C349.448,222.638,352.805,225.996,356.948,225.996z"/>
		<path d="M288.089,229.971c2.726-3.119,2.408-7.857-0.711-10.583c-3.119-2.726-7.856-2.408-10.583,0.711
			c-5.074,5.805-12.653,9.135-20.794,9.135c-8.141,0-15.721-3.33-20.795-9.135c-2.727-3.119-7.464-3.438-10.583-0.711
			c-3.119,2.726-3.437,7.464-0.711,10.583c0.811,0.928,1.672,1.805,2.559,2.65l-3.339,5.552c-2.135,3.55-0.988,8.158,2.562,10.293
			c3.506,2.108,8.186,0.94,10.292-2.563l3.053-5.077c5.264,2.214,11.022,3.407,16.961,3.407c5.939,0,11.697-1.192,16.961-3.407
			c0,0,3.051,5.073,3.053,5.077c2.106,3.502,6.792,4.668,10.292,2.563c3.55-2.135,4.697-6.743,2.562-10.293l-3.339-5.552
			C286.417,231.776,287.277,230.899,288.089,229.971z"/>
		<circle cx="256" cy="448.221" r="8.949"/>
		<circle cx="256" cy="478.856" r="8.949"/>
		<path d="M487.336,264.59c12.719-9.433,20.981-24.553,20.981-41.569c0-17.773-9.012-33.479-22.703-42.795
			c-8.884-43.863-31.267-83.758-64.885-115.552C376.632,22.968,318.13,0,256,0c-30.36,0-59.867,5.437-87.701,16.159
			c-3.865,1.489-5.792,5.829-4.303,9.694c1.489,3.866,5.831,5.791,9.694,4.303C199.798,20.099,227.491,15,256,15
			c58.28,0,113.121,21.512,154.422,60.572c28.639,27.086,48.534,60.433,58.066,97.108c-0.182-0.043-4.298-0.857-6.192-1.066
			c-3.296-0.364-6.544-0.231-9.85-0.156c-0.117,0.003-0.417-0.855-0.479-0.984c-5.198-10.934-12.307-20.658-19.813-30.1
			c-23.604-29.692-44.331-47.21-65.712-55.218c-8.194-3.095-16.893-4.844-25.643-5.182c-25.702-0.983-52.952,10.209-84.8,34.801
			c-31.857-24.599-59.109-35.793-84.821-34.801c-35.418,1.31-62.917,26.15-84.462,51.948c-2.334,2.795-4.626,5.624-6.891,8.475
			c-7.689,9.673-14.993,19.842-20.273,31.062c-0.352-0.028-0.704-0.042-1.056-0.063c-5.021-0.299-10.087,0.134-14.984,1.286
			c9.533-36.677,29.427-70.023,58.066-97.108c13.265-12.546,28.121-23.427,44.154-32.339c3.62-2.012,4.924-6.579,2.911-10.199
			c-2.013-3.62-6.58-4.924-10.199-2.911c-17.127,9.521-32.999,21.146-47.173,34.552c-33.617,31.793-55.999,71.688-64.883,115.551
			c-13.693,9.316-22.705,25.022-22.705,42.796c0,17.016,8.261,32.136,20.981,41.569c-6.714,6.252-12.84,12.723-17.281,17.629
			c-3.621,4.001-5.424,9.376-4.945,14.748c0.479,5.374,3.204,10.35,7.477,13.649c41.058,31.714,69.107,62.969,76.3,84.761
			c-29.706,30.43-36.176,75.587-36.176,109.123c0,4.142,3.358,7.5,7.5,7.5h396.924c4.142,0,7.5-3.358,7.5-7.5
			c0-33.536-6.47-78.693-36.177-109.123c7.193-21.792,35.243-53.047,76.3-84.76c4.273-3.301,6.999-8.276,7.477-13.651
			c0.478-5.371-1.325-10.747-4.946-14.746C500.178,277.315,494.053,270.845,487.336,264.59z M493.297,223.021
			c-0.107,14.272-8.828,27.9-22.081,33.68c-3.415,1.489-6.985,2.356-10.668,2.837c-0.011,0.001-0.022,0.003-0.034,0.004
			c0.015-0.076,0.027-0.152,0.042-0.228c2.673-13.81,4.05-27.954,3.39-42.022c-0.492-10.482-2.367-20.84-5.62-30.943
			c0.133,0.221,2.518,0.195,2.842,0.237C479.003,188.86,493.433,204.958,493.297,223.021z M443.841,265.281
			c-6.23,24.753-17.93,47.875-34.098,67.938c-0.023,0.029-0.046,0.057-0.07,0.086c-16.595,20.613-38.692,38.284-62.399,50.298
			c-2.048-11.542-6.382-18.542-11.585-22.655c-10.047-7.933-23.877-5.461-34.838-1.056c-8.802,3.537-16.808,8.283-24.672,13.486
			c-1.224,0.81-2.467,1.647-3.73,2.516c-3.896-2.067-8.317-3.165-12.727-3.165h-7.445c-4.416,0-8.827,1.096-12.728,3.165
			c-13.353-9.179-28.117-18.983-44.763-20.077c-6.51-0.428-13.238,1.002-18.493,5.145c-5.187,4.101-9.521,11.101-11.569,22.643
			c-9.482-4.805-18.58-10.398-27.152-16.69c-34.675-25.456-59.236-61.328-69.381-101.498c-5.062-20.046-7.099-41.207-3.357-61.664
			c3.685-20.146,13.648-37.508,26.239-53.405c0.009-0.011,0.018-0.022,0.026-0.033c25.431-32.101,47.069-49.043,69.22-53.9
			c28.408-6.229,56.395,8.496,78.813,24.516c0.032,0.023,0.064,0.046,0.096,0.069c4.108,2.947,8.134,6.009,12.078,9.172
			c2.741,2.198,6.642,2.198,9.383,0c3.952-3.168,7.982-6.244,12.103-9.19c0.016-0.011,0.031-0.022,0.047-0.034
			c24.745-17.687,46.507-26.252,66.038-26.008c0.066,0.001,0.132,0.003,0.198,0.004c34.934,0.776,61.579,29.821,81.821,55.371
			c0.009,0.011,0.017,0.022,0.026,0.033c24.135,30.823,32.387,64.875,25.385,103.544c-0.668,3.69-1.449,7.361-2.358,11
			c-0.005,0.02-0.009,0.04-0.014,0.059C443.905,265.06,443.868,265.169,443.841,265.281z M333.555,399.978
			c0,13.886-2.458,20.787-4.521,24.131c-2.21,3.583-5.048,5.112-9.495,5.112c-8.259-0.001-20.386-5.323-36.103-15.833
			c0.024-0.043,0.045-0.088,0.069-0.131c1.728-3.072,2.832-6.487,3.261-9.984c13.831-1.171,25.126-0.915,32.92,0.774
			c3.996,0.868,8.053-1.748,8.918-5.742c0.877-4.048-1.694-8.041-5.742-8.918c-9.569-2.073-22.495-2.393-38.47-0.964
			c-0.276-0.587-0.931-1.81-0.954-1.85c0.091-0.061,0.185-0.126,0.276-0.187c10.579-7.015,22.537-15.647,35.817-15.647
			C333.286,370.739,333.555,390.276,333.555,399.978z M228.564,413.388c-15.72,10.513-27.845,15.833-36.102,15.833
			c-3.833,0-14.017,0-14.017-29.243c0-1.653,0.037-3.2,0.099-4.672c0.001-0.022,0.006-0.044,0.007-0.066
			c1.093-24.5,10.409-24.501,13.917-24.501c9.207,0,17.842,4.815,25.605,9.282c0.899,0.517,10.633,6.297,10.489,6.552
			c-0.02,0.034-0.036,0.07-0.055,0.104c-0.32,0.57-0.621,1.151-0.9,1.745c-15.975-1.428-28.901-1.109-38.469,0.964
			c-4.048,0.877-6.619,4.869-5.742,8.918c0.86,3.972,4.952,6.603,8.919,5.742c7.793-1.688,19.088-1.945,32.921-0.763
			c0.216,1.781,0.607,3.534,1.171,5.237c0.546,1.645,1.245,3.235,2.093,4.746C228.523,413.306,228.541,413.348,228.564,413.388z
			 M244.401,409.183c-2.636-2.283-4.371-5.621-4.373-9.205c0-6.605,5.641-12.25,12.25-12.25h7.445
			c6.118,0,11.526,4.813,12.18,10.953c0.756,7.097-5.047,13.547-12.18,13.547c0,0-7.443,0-7.445,0
			C249.352,412.228,246.571,411.063,244.401,409.183z M18.684,223.021c0-13.599,7.432-25.493,18.445-31.842
			c4.968-2.864,10.756-4.563,16.547-4.831c-3.252,10.101-5.128,20.452-5.62,30.914c-0.662,14.073,0.698,28.24,3.39,42.053
			c0.015,0.075,0.027,0.151,0.042,0.226c-0.011-0.001-0.022-0.003-0.034-0.004c-3.673-0.393-7.283-1.358-10.668-2.837
			C27.793,251.036,18.684,238.076,18.684,223.021z M19.083,298.745c-1.334-1.03-1.641-2.389-1.705-3.107
			c-0.064-0.717-0.002-2.106,1.125-3.352c5.09-5.623,12.488-13.398,20.298-20.271c0.176-0.154,2.74,0.845,3.128,0.949
			c3.504,0.941,7.279,1.553,10.949,1.722c0.759,0.037,1.52,0.06,2.284,0.063c5.615,19.631,14.434,38.387,26.271,55.635
			c9.962,14.517,21.891,27.66,35.266,39.103c1.249,1.069,2.504,2.131,3.78,3.168c-6.413,2.46-14.191,6.294-22.219,12.219
			c-5.794-13.452-16.818-28.621-32.913-45.257C49.09,322.813,31.216,308.116,19.083,298.745z M99.69,403.176
			c0.02-0.019,0.042-0.034,0.062-0.053c9.884-9.237,22.109-16.341,35.377-19.29c0.031-0.007,0.25-0.055,0.33-0.072
			c0.618,0.417,1.235,0.834,1.857,1.244V497H115.98v-57.02c0-4.142-3.358-7.5-7.5-7.5s-7.5,3.358-7.5,7.5V497H65.151
			C66.416,455.51,78.284,423.243,99.69,403.176z M152.317,393.99c3.645,1.987,7.355,3.875,11.133,5.655
			c0,0.113-0.004,0.219-0.004,0.333c0,36.567,15.779,44.243,29.016,44.243c0.001,0,0,0,0,0c12.064,0,27.11-6.429,47.086-20.159
			c3.802,2.018,8.133,3.166,12.729,3.166h7.445c4.596,0,8.927-1.148,12.729-3.167c19.975,13.729,35.019,20.158,47.085,20.16
			c0.002,0,0.003,0,0.006,0c9.624,0,17.321-4.232,22.259-12.239c4.544-7.369,6.753-17.837,6.753-32.004
			c0-0.114-0.004-0.219-0.004-0.333c3.779-1.78,7.489-3.668,11.133-5.655V497H152.317V393.99z M446.849,497H411.02v-57.02
			c0-4.142-3.358-7.5-7.5-7.5s-7.5,3.358-7.5,7.5V497h-21.336V385.005c0.622-0.409,1.238-0.826,1.855-1.242
			c5.354,1.164,18.433,4.949,31.74,15.887C436.691,423.002,445.779,461.837,446.849,497z M494.621,295.637
			c-0.064,0.718-0.37,2.078-1.705,3.108c-12.132,9.371-30.005,24.068-46.264,40.874c-16.094,16.635-27.12,31.804-32.913,45.256
			c-8.028-5.925-15.806-9.759-22.219-12.219c1.295-1.054,2.573-2.128,3.838-3.218c13.355-11.421,25.271-24.555,35.208-39.053
			c11.837-17.248,20.656-36.004,26.271-55.635c0.764-0.003,1.525-0.027,2.284-0.063c4.777-0.231,9.547-1.13,14.077-2.671
			c7.815,6.877,15.21,14.649,20.298,20.271C494.624,293.531,494.685,294.92,494.621,295.637z"/>
	</g>
</g>
<g>
</g>
<g>
</g>
<g>
</g>
<g>
</g>
<g>
</g>
<g>
</g>
<g>
</g>
<g>
</g>
<g>
</g>
<g>
</g>
<g>
</g>
<g>
</g>
<g>
</g>
<g>
</g>
<g>
</g>
</svg>
