<?xml version="1.0" encoding="iso-8859-1"?>
<!-- Generator: Adobe Illustrator 19.0.0, SVG Export Plug-In . SVG Version: 6.00 Build 0)  -->
<svg version="1.1" id="Layer_1" xmlns="http://www.w3.org/2000/svg" xmlns:xlink="http://www.w3.org/1999/xlink" x="0px" y="0px"
	 viewBox="0 0 512 512" style="enable-background:new 0 0 512 512;" xml:space="preserve">
<g>
	<g>
		<path style="fill:#EFEDEE;" d="M372.926,367.841H139.075c0,0-77.999,18.87-77.999,136.659H91.97l164.031-29.349l164.03,29.349
			h30.894C450.925,386.711,372.926,367.841,372.926,367.841z"/>
		<path style="fill:#DC5A64;" d="M390.111,413.878c-12.368-12.337-40.729-28.134-40.842-28.165H162.732
			c-0.113,0.031-28.474,15.828-40.842,28.165c-19.577,19.515-29.916,50.851-29.916,90.622h42.814l7.5-4.304l7.5,4.304h91.435
			L256,491.627l14.777,12.873h91.435l7.5-3.558l7.5,3.558h42.813C420.027,464.729,409.687,433.393,390.111,413.878z"/>
		<rect x="241.223" y="385.713" style="fill:#EFEDEE;" width="29.555" height="118.787"/>
		<path style="fill:#D4D2D3;" d="M241.223,475.071c2.212,0.379,4.47,0.578,6.755,0.578h16.046c2.285,0,4.542-0.199,6.755-0.578
			v-89.358h-29.555V475.071z"/>
		<path style="fill:#EFEDEE;" d="M278.562,433.215l-7.115-38.97h-30.894l-7.115,38.97c-1.657,9.075,5.314,17.434,14.539,17.434
			h16.046C273.249,450.649,280.219,442.29,278.562,433.215z"/>
		<path style="fill:#313D40;" d="M32.261,251.599c-2.473,101.006,79.232,96.889,79.232,96.889l14.409-44.627l-30.045-51.147
			L32.261,251.599z"/>
		<path style="fill:#3A484A;" d="M479.74,251.599c2.473,101.006-79.232,96.889-79.232,96.889l-14.409-44.627l30.045-51.147
			L479.74,251.599z"/>
		<path style="fill:#3A484A;" d="M32.261,220.498c0-57.166,23.456-110.833,66.046-151.113C140.504,29.478,196.507,7.5,256,7.5
			c59.494,0,115.497,21.978,157.694,61.885c42.59,40.28,66.046,93.946,66.046,151.113H32.261z"/>
		<path style="fill:#313D40;" d="M144.308,69.385c36.711-34.719,83.875-55.86,134.693-60.771C271.408,7.88,263.734,7.5,256,7.5
			c-59.494,0-115.496,21.978-157.693,61.885c-42.591,40.28-66.046,93.947-66.046,151.113h46
			C78.261,163.332,101.717,109.665,144.308,69.385z"/>
		<circle style="fill:#E3B098;" cx="453.995" cy="230.953" r="43.658"/>
		<path style="fill:#FBC4AC;" d="M377.173,109.573c0,22.656,8.238,59.042,8.238,59.042c-55.6-20.643-81.011-63.847-81.011-63.847
			c2.746,34.327,10.298,60.415,10.298,60.415C268.015,144.586,256,104.767,256,104.767s-12.014,39.819-58.698,60.415
			c0,0,7.552-26.088,10.298-60.415c0,0-25.41,43.204-81.011,63.847c0,0,8.238-36.386,8.238-59.042c0,0-38.179,63.577-73.751,77.906
			c-2.016,10.719-3.07,21.753-3.07,33.02c0,103.417,88.645,187.253,197.994,187.253s197.994-83.836,197.994-187.253
			c0-11.267-1.054-22.301-3.07-33.02C415.353,173.15,377.173,109.573,377.173,109.573z"/>
		<path style="fill:#E3B098;" d="M83.006,199.426c0-9.411,0.661-18.675,1.94-27.755c-7.75,6.869-15.826,12.545-23.774,15.766
			c-0.989-0.086-2.027-0.143-3.166-0.143c-24.112,0-43.658,19.546-43.658,43.658c0,24.112,19.546,43.658,43.658,43.658
			c3.308,0,5.946-0.38,8.069-1.077C90.26,351.119,166.131,407.751,256,407.751c7.783,0,15.456-0.439,23.004-1.265
			C168.775,395.056,83.006,306.72,83.006,199.426z"/>
		<g id="XMLID_905_">
			<path style="fill:#F98084;" d="M169.552,268.079h-26.388c-4.142,0-7.5-3.358-7.5-7.5s3.358-7.5,7.5-7.5h26.388
				c4.142,0,7.5,3.358,7.5,7.5S173.694,268.079,169.552,268.079z"/>
		</g>
		<g id="XMLID_903_">
			<path style="fill:#F98084;" d="M368.837,268.079h-26.388c-4.142,0-7.5-3.358-7.5-7.5s3.358-7.5,7.5-7.5h26.388
				c4.142,0,7.5,3.358,7.5,7.5S372.979,268.079,368.837,268.079z"/>
		</g>
	</g>
	<g>
		<path d="M156.357,239.602c4.143,0,7.5-3.358,7.5-7.5v-19.374c0-4.142-3.357-7.5-7.5-7.5c-4.142,0-7.5,3.358-7.5,7.5v19.374
			C148.857,236.244,152.215,239.602,156.357,239.602z"/>
		<path d="M355.643,239.602c4.142,0,7.5-3.358,7.5-7.5v-19.374c0-4.142-3.358-7.5-7.5-7.5s-7.5,3.358-7.5,7.5v19.374
			C348.143,236.244,351.5,239.602,355.643,239.602z"/>
		<path d="M278.757,245.952c-3.118-2.726-7.856-2.408-10.583,0.711c-2.956,3.381-7.393,5.321-12.175,5.321s-9.22-1.939-12.175-5.321
			c-2.726-3.119-7.464-3.437-10.583-0.711c-3.118,2.726-3.437,7.464-0.711,10.583c5.805,6.641,14.358,10.449,23.469,10.449
			c9.11,0,17.665-3.809,23.469-10.449C282.195,253.417,281.876,248.678,278.757,245.952z"/>
		<path d="M256,420.389c-2.756,0-4.989,2.234-4.989,4.99v8.554c0,2.756,2.233,4.99,4.989,4.99c2.755,0,4.989-2.234,4.989-4.99
			v-8.554C260.989,422.623,258.755,420.389,256,420.389z"/>
		<path d="M446.351,343.486c29.315-17.804,38.218-48.972,40.333-73.217c11.276-9.392,18.468-23.528,18.468-39.316
			c0-16.514-7.873-31.217-20.054-40.577c-6.846-48.212-29.701-91.872-66.251-126.44C375.252,22.706,317.418,0,256,0
			c-32.86,0-64.561,6.399-94.22,19.021c-3.812,1.622-5.586,6.026-3.964,9.838c1.622,3.812,6.027,5.588,9.838,3.965
			C195.445,20.997,225.168,15,256,15c57.569,0,111.743,21.25,152.541,59.834c31.346,29.646,51.883,66.422,59.917,107.039
			c-1.305-0.385-2.627-0.711-3.96-0.989c-4.062-0.848-8.232-1.215-12.379-1.048c-13-5.844-28.658-20.039-45.417-41.199
			c-8.301-10.48-16.202-21.459-23.098-32.926c-1.736-2.888-5.188-4.265-8.433-3.363c-3.248,0.9-5.496,3.856-5.496,7.226
			c0,14.386,3.1,33.655,5.541,46.599c-43.479-20.676-64.132-54.843-64.349-55.207c-1.748-2.973-5.432-4.39-8.722-3.35
			c-4.021,1.271-5.446,5.047-5.12,8.911c0.488,5.852,1.107,11.449,1.801,16.716c1.423,10.806,3.153,20.223,4.695,27.538
			c-24.134-15.194-35.01-35.532-38.741-44.1c-0.569-1.306-1.25-2.691-1.597-4.08c-0.943-3.123-3.898-5.31-7.159-5.321
			c-3.309,0.036-6.221,2.146-7.194,5.297c-0.093,0.303-8.061,25.148-34.754,44.431c-1.78,1.286-3.643,2.546-5.592,3.773
			c1.542-7.315,3.272-16.732,4.695-27.538c0.694-5.268,1.313-10.865,1.801-16.716c0.328-3.888-1.081-7.636-5.12-8.911
			c-3.334-1.053-6.951,0.337-8.723,3.35c-10.126,17.216-25.886,31.237-42.213,42.453c-6.576,4.517-13.948,8.874-22.136,12.761
			c1.526-8.09,3.309-18.652,4.432-28.949c0.674-6.178,1.109-12.261,1.109-17.657c0-3.371-2.248-6.327-5.496-7.228
			c-3.181-0.882-6.734,0.531-8.433,3.365c-6.847,11.422-14.684,22.284-22.94,32.726c-16.819,21.271-32.537,35.538-45.606,41.399
			c-3.954-0.163-7.942,0.168-11.822,0.944c-1.51,0.304-3.008,0.659-4.486,1.095c8.033-40.617,28.57-77.393,59.917-107.039
			c11.274-10.662,23.736-20.133,37.04-28.15c3.548-2.138,4.691-6.747,2.553-10.295c-2.138-3.548-6.747-4.69-10.294-2.553
			c-14.225,8.571-27.55,18.698-39.605,30.1c-36.551,34.567-59.406,78.228-66.252,126.44c-12.181,9.36-20.053,24.063-20.053,40.576
			c0,15.788,7.191,29.925,18.468,39.316c2.114,24.243,11.018,55.411,40.33,73.215c17.587,10.682,35.716,12.309,42.893,12.503
			c3.997,3.906,8.161,7.659,12.488,11.239c-9.673,5.137-22.551,13.958-34.389,28.458C64.699,422.555,53.576,459.167,53.576,504.5
			c0,4.142,3.357,7.5,7.5,7.5h389.849c4.143,0,7.5-3.358,7.5-7.5c0-45.333-11.124-81.945-33.062-108.816
			c-11.838-14.5-24.716-23.321-34.39-28.458c4.327-3.58,8.491-7.332,12.488-11.239C410.638,355.794,428.765,354.167,446.351,343.486
			z M322.448,388.961c-21.115,7.44-43.916,11.291-66.448,11.291c-22.558,0-45.171-3.794-66.452-11.292
			C127.52,367.103,78.242,313.103,67.664,247.476c-2.755-17.093-2.713-35.196-0.224-52.623c0.108-0.721,0.223-1.44,0.341-2.16
			c0.692-0.338,3.72-1.956,4.527-2.429c10.903-6.299,22.608-16.535,34.977-30.596c6.123-6.943,11.891-14.196,17.377-21.65
			c-1.473,9.694-3.198,19.382-5.388,28.941c-0.607,2.674,0.312,5.494,2.376,7.3c2.062,1.805,4.979,2.341,7.549,1.387
			c15.142-5.622,28.098-12.817,39.023-20.392c12.002-8.321,21.55-17.101,28.737-24.781c-3.093,19.425-6.811,32.444-6.862,32.623
			c-0.811,2.798,0.074,5.813,2.267,7.731c2.162,1.887,5.341,2.373,7.965,1.216c30.73-13.557,47.371-34.846,55.671-49.375
			c8.301,14.529,24.941,35.817,55.671,49.375c2.568,1.133,5.764,0.705,7.962-1.215c2.193-1.917,3.079-4.931,2.271-7.729
			c-0.052-0.181-3.77-13.201-6.863-32.626c2.495,2.667,5.28,5.468,8.345,8.335c13.797,12.909,33.416,27.185,59.416,36.838
			c2.581,0.958,5.478,0.426,7.55-1.388c2.047-1.791,2.975-4.648,2.376-7.3c-2.107-9.318-3.798-18.736-5.272-28.173
			c-0.04-0.256-0.079-0.512-0.118-0.77c4.239,5.76,9.132,12.049,14.481,18.314c10.957,12.905,23.254,25.489,38.018,34.021
			c1.434,0.829,2.895,1.618,4.384,2.345c0.032,0.197,0.068,0.394,0.1,0.591c5.73,35.657-0.161,72.786-16.578,104.951
			c-0.048,0.094-0.097,0.189-0.146,0.283C406.308,340.04,368.583,372.705,322.448,388.961z M271.184,434.562
			c0.803,4.399-2.689,8.586-7.161,8.586c0,0-16.042,0-16.046,0c-4.487,0-7.964-4.193-7.161-8.587l3.582-19.618
			c3.863,0.204,7.734,0.307,11.602,0.307c3.869,0,7.739-0.103,11.603-0.307L271.184,434.562z M470.407,279.421
			c-7.091,40.863-32.819,54.693-51.137,59.316c13.792-17.116,24.59-36.382,31.737-56.716c0.098,0.006,0.195,0.005,0.293,0.01
			C457.665,282.365,464.329,281.486,470.407,279.421z M490.152,230.953c0,15.625-10.556,29.921-25.476,34.539
			c-2.658,0.823-5.41,1.335-8.186,1.522c-0.305,0.021-0.614,0.022-0.92,0.036c0.133-0.515,0.247-1.033,0.375-1.549
			c4.714-18.847,6.428-38.406,5.108-57.788c-0.286-4.157-0.714-8.311-1.271-12.441c4.883,0.79,9.582,2.593,13.742,5.271
			C483.518,206.983,490.152,218.206,490.152,230.953z M21.848,230.953c0-17.427,13.165-32.904,30.37-35.681
			c-0.032,0.237-0.054,0.476-0.085,0.712c-1.553,11.765-1.992,23.7-1.29,35.547c0.71,11.977,2.577,23.903,5.587,35.519
			c-6.948-0.299-13.744-2.619-19.407-6.666C27.843,253.82,21.848,243.074,21.848,230.953z M41.593,279.421
			c6.108,2.075,12.665,2.96,19.104,2.611c0.099-0.005,0.198-0.005,0.297-0.01c7.152,20.342,17.949,39.604,31.736,56.715
			C74.412,334.112,48.683,320.279,41.593,279.421z M98.257,405.17c13.314-16.308,27.92-24.252,36.087-27.712
			c4.292,2.995,8.681,5.816,13.156,8.466c-10.158,6.258-23.562,15.315-30.906,22.641C96.854,428.245,85.857,458.715,84.598,497
			H68.685C69.82,458.699,79.754,427.833,98.257,405.17z M127.186,419.188c8.845-8.823,27.565-20.257,35.746-24.983
			c20.792,10.059,43.167,16.607,66.455,19.436l-3.327,18.227c-1.19,6.521,0.562,13.18,4.807,18.271
			c0.871,1.045,1.831,1.993,2.855,2.848V497h-83.935v-47.529c0-4.142-3.358-7.5-7.5-7.5c-4.143,0-7.5,3.358-7.5,7.5V497H99.604
			C100.801,462.846,110.275,436.045,127.186,419.188z M248.722,458.149h14.556V497h-14.556V458.149z M377.212,497v-47.529
			c0-4.142-3.358-7.5-7.5-7.5s-7.5,3.358-7.5,7.5V497h-83.935v-44.013c1.025-0.855,1.984-1.803,2.855-2.847
			c4.246-5.091,5.998-11.75,4.807-18.271l-3.328-18.227c23.288-2.829,45.663-9.378,66.456-19.436
			c8.181,4.726,26.901,16.16,35.747,24.985c16.909,16.856,26.384,43.656,27.582,77.81H377.212z M413.743,405.17
			c18.502,22.663,28.437,53.528,29.572,91.83h-15.913c-1.26-38.285-12.256-68.755-31.996-88.432
			c-7.346-7.328-20.75-16.385-30.908-22.644c4.475-2.65,8.865-5.47,13.156-8.466C385.822,380.918,400.429,388.863,413.743,405.17z"
			/>
	</g>
</g>
<g>
</g>
<g>
</g>
<g>
</g>
<g>
</g>
<g>
</g>
<g>
</g>
<g>
</g>
<g>
</g>
<g>
</g>
<g>
</g>
<g>
</g>
<g>
</g>
<g>
</g>
<g>
</g>
<g>
</g>
</svg>
