<?xml version="1.0" encoding="iso-8859-1"?>
<!-- Generator: Adobe Illustrator 19.0.0, SVG Export Plug-In . SVG Version: 6.00 Build 0)  -->
<svg version="1.1" id="Layer_1" xmlns="http://www.w3.org/2000/svg" xmlns:xlink="http://www.w3.org/1999/xlink" x="0px" y="0px"
	 viewBox="0 0 512 512" style="enable-background:new 0 0 512 512;" xml:space="preserve">
<g>
	<g>
		<path style="fill:#3A484A;" d="M42.525,253.814L42.525,253.814c-18.242,24.4-5.467,59.5,24.191,66.465h0l0,0
			c-8.797,29.167,15.213,57.781,45.465,54.183h0h34.167l28.265-62.843l-92.187-59.239L42.525,253.814z"/>
		<path style="fill:#3A484A;" d="M469.476,253.814L469.476,253.814c18.242,24.4,5.467,59.5-24.191,66.465h0v0
			c8.797,29.167-15.213,57.781-45.465,54.183h0h-34.167l-28.265-62.843l92.187-59.239L469.476,253.814z"/>
		<path style="fill:#FBC4AC;" d="M133.437,354.775h-0.01c-3.463,1.811-8.346,4.654-13.961,8.797
			C96.338,380.655,60.841,424.989,60.841,504.5h72.596l25.73-74.862L133.437,354.775z"/>
		<path style="fill:#FBC4AC;" d="M392.535,363.572c-5.594-4.123-10.458-6.965-13.921-8.777c-0.01-0.01-0.03-0.01-0.04-0.02h-0.01
			v0.226l-25.73,105.965l25.73,43.533h72.596C451.16,424.989,415.663,380.655,392.535,363.572z"/>
		<path style="fill:#E3B098;" d="M70.191,438.732c-6.529,21.216-9.351,43.613-9.351,65.768h30
			c0-68.642,26.452-111.048,48.566-132.355c0,0-5.97-17.369-5.98-17.369c-3.463,1.811-8.346,4.654-13.961,8.797
			C95.038,381.598,78.987,410.149,70.191,438.732z"/>
		<path style="fill:#00A1E0;" d="M378.564,354.775V504.5H133.437V354.775c3.443-1.801,5.494-2.562,5.494-2.562H373.07
			C373.07,352.213,375.122,352.974,378.564,354.775z"/>
		<path style="fill:#008FC7;" d="M133.436,378.317c5.596-6.203,11.095-11.101,16.029-14.746c5.614-4.143,10.498-6.985,13.961-8.797
			h0.01c3.443-1.801,5.494-2.562,5.494-2.562h-30c0,0-2.052,0.761-5.494,2.562V378.317z"/>
		<path style="fill:#3A484A;" d="M38.569,214.494c0-55.555,22.794-107.709,64.184-146.853C143.76,28.859,198.184,7.5,256,7.5
			c57.817,0,112.241,21.358,153.248,60.141c41.389,39.144,64.184,91.297,64.184,146.853H38.569z"/>
		<circle style="fill:#E3B098;" cx="448.413" cy="224.654" r="42.427"/>
		<ellipse style="fill:#FBC4AC;" cx="256" cy="384.269" rx="81.388" ry="70.693"/>
		<path style="fill:#FBC4AC;" d="M66.755,181.462c-2.092,10.718-3.172,21.757-3.172,33.035
			c0,100.497,86.146,181.969,192.417,181.969s192.417-81.472,192.417-181.969c0-11.279-1.081-22.317-3.172-33.035l-21.45-17.39
			l-78.06-16.012l-89.735-7.459l-73.205,4.123l-76.78,15.345L66.755,181.462z"/>
		<g id="XMLID_890_">
			<path style="fill:#F98084;" d="M171.989,260.944h-25.645c-4.142,0-7.5-3.358-7.5-7.5c0-4.142,3.358-7.5,7.5-7.5h25.645
				c4.142,0,7.5,3.358,7.5,7.5C179.489,257.586,176.131,260.944,171.989,260.944z"/>
		</g>
		<g id="XMLID_888_">
			<path style="fill:#F98084;" d="M365.656,260.944h-25.645c-4.142,0-7.5-3.358-7.5-7.5c0-4.142,3.358-7.5,7.5-7.5h25.645
				c4.142,0,7.5,3.358,7.5,7.5C373.156,257.586,369.799,260.944,365.656,260.944z"/>
		</g>
		<path style="fill:#EFEDEE;" d="M445.245,181.462c-17.583-4.133-105.391-23.728-189.245-23.728S84.339,177.329,66.755,181.462
			c2.352-12.109,5.975-23.798,10.718-34.937c6.225,2.912,13.18,4.543,20.516,4.543c21.426,0,39.59-13.941,45.945-33.245
			c8.537,7.566,19.755,12.169,32.055,12.169c20.306,0,37.679-12.52,44.854-30.253c8.817,9.337,21.296,15.172,35.157,15.172
			s26.34-5.834,35.157-15.172c7.175,17.734,24.549,30.253,44.854,30.253c12.299,0,23.518-4.604,32.055-12.169
			c6.355,19.305,24.519,33.245,45.945,33.245c7.336,0,14.291-1.631,20.516-4.543C439.271,157.664,442.894,169.353,445.245,181.462z"
			/>
		<path style="fill:#E3B098;" d="M93.583,214.498c0-11.279,1.081-22.317,3.172-33.035c2.079-10.703,5.154-21.076,9.115-31.033
			c-2.565,0.421-5.197,0.64-7.881,0.64c-7.336,0-14.291-1.631-20.516-4.543c-4.744,11.138-8.366,22.827-10.718,34.937
			c-0.058,0.296-0.107,0.595-0.163,0.891c-0.959-0.076-1.949-0.128-3.005-0.128c-23.432,0-42.427,18.996-42.427,42.427
			s18.995,42.427,42.427,42.427c3.014,0,5.617-0.32,7.876-0.917C95.011,341.493,168.71,396.467,256,396.467
			c5.048,0,10.05-0.186,15-0.547C171.74,388.682,93.583,310.221,93.583,214.498z"/>
		<path style="fill:#D4D2D3;" d="M98.204,174.774c1.969-8.345,4.536-16.477,7.666-24.344h0c-0.6,0.098-1.204,0.183-1.811,0.26
			c-0.042,0.005-0.084,0.013-0.126,0.018c-0.619,0.076-1.243,0.139-1.869,0.191c-0.03,0.002-0.06,0.007-0.09,0.009
			c-0.468,0.038-0.939,0.062-1.411,0.086c-0.192,0.01-0.381,0.027-0.574,0.035c-0.263,0.011-0.529,0.01-0.793,0.016
			c-0.402,0.01-0.802,0.025-1.207,0.025c-1.834,0-3.644-0.102-5.425-0.301c-2.671-0.298-5.277-0.812-7.798-1.526
			c-2.521-0.713-4.958-1.625-7.293-2.717c-3.558,8.354-6.485,17.017-8.718,25.936c-0.372,1.487-0.725,2.98-1.059,4.48
			c-0.333,1.5-0.647,3.007-0.941,4.521C71.881,180.258,82.982,177.738,98.204,174.774z"/>
	</g>
	<g>
		<path d="M159.167,233.27c4.142,0,7.5-3.358,7.5-7.5v-18.828c0-4.142-3.358-7.5-7.5-7.5c-4.143,0-7.5,3.358-7.5,7.5v18.828
			C151.667,229.912,155.024,233.27,159.167,233.27z"/>
		<path d="M352.834,233.27c4.142,0,7.5-3.358,7.5-7.5v-18.828c0-4.142-3.358-7.5-7.5-7.5s-7.5,3.358-7.5,7.5v18.828
			C345.334,229.912,348.692,233.27,352.834,233.27z"/>
		<path d="M244.328,239.782c-2.727-3.118-7.464-3.437-10.583-0.711c-3.119,2.726-3.437,7.464-0.711,10.583
			c5.681,6.5,14.052,10.227,22.966,10.227s17.286-3.728,22.967-10.228c2.726-3.119,2.407-7.856-0.711-10.583
			c-3.119-2.726-7.857-2.408-10.583,0.711c-2.832,3.24-7.087,5.099-11.673,5.099C251.415,244.881,247.16,243.022,244.328,239.782z"
			/>
		<path d="M29.853,261.422c-4.728,12.281-4.368,25.903,1.187,38.224c5.369,11.907,14.951,20.993,26.872,25.714
			c-1.912,12.905,1.297,25.936,9.205,36.647c6.423,8.7,15.169,14.892,25.064,17.993c-5.805,7.292-11.826,16.283-17.387,27.228
			C60.558,435.248,53.34,467.975,53.34,504.5c0,4.142,3.358,7.5,7.5,7.5H451.16c4.142,0,7.5-3.358,7.5-7.5
			c0-36.525-7.218-69.252-21.453-97.271c-5.56-10.945-11.582-19.936-17.387-27.228c9.896-3.101,18.642-9.292,25.065-17.993
			c7.907-10.711,11.116-23.743,9.204-36.647c11.92-4.721,21.502-13.807,26.871-25.714c5.556-12.322,5.915-25.943,1.188-38.224
			c9.946-9.133,16.193-22.234,16.193-36.769c0-16.085-7.654-30.409-19.502-39.546c-6.675-46.867-28.902-89.31-64.436-122.916
			C371.996,22.087,315.742,0,256,0c-37.751,0-75.025,9.04-107.793,26.141c-3.672,1.917-5.095,6.447-3.179,10.119
			c1.916,3.671,6.447,5.095,10.119,3.179C185.781,23.451,220.655,15,256,15c55.892,0,108.487,20.63,148.095,58.09
			c30.342,28.695,50.251,64.275,58.098,103.567c-0.378-0.109-0.76-0.207-1.141-0.306c-0.085-0.022-0.169-0.046-0.254-0.068
			c-0.734-0.188-1.472-0.358-2.214-0.512c-0.131-0.027-0.262-0.051-0.394-0.077c-0.62-0.123-1.242-0.235-1.867-0.334
			c-0.17-0.027-0.34-0.056-0.511-0.081c-0.733-0.109-1.469-0.205-2.209-0.282c-0.122-0.013-0.246-0.021-0.368-0.033
			c-0.572-0.055-1.145-0.101-1.72-0.136c-2.399-10.647-5.783-21.132-10.087-31.241c-0.797-1.872-2.321-3.34-4.221-4.066
			c-1.9-0.727-4.014-0.651-5.857,0.211c-5.443,2.546-11.277,3.837-17.338,3.837c-17.689,0-33.29-11.289-38.821-28.091
			c-0.789-2.397-2.732-4.237-5.168-4.896c-2.437-0.658-5.041-0.046-6.93,1.628c-7.481,6.63-17.098,10.282-27.079,10.282
			c-16.74,0-31.618-10.036-37.902-25.566c-0.958-2.368-3.055-4.085-5.564-4.558c-2.51-0.472-5.088,0.364-6.841,2.222
			c-7.807,8.267-18.356,12.82-29.704,12.82c-11.348,0-21.896-4.553-29.703-12.82c-1.753-1.857-4.332-2.693-6.841-2.222
			c-2.51,0.473-4.607,2.19-5.564,4.558c-6.284,15.531-21.162,25.566-37.902,25.566c-9.982,0-19.599-3.652-27.08-10.282
			c-1.889-1.674-4.493-2.286-6.93-1.628c-2.437,0.658-4.379,2.498-5.169,4.896c-5.531,16.802-21.132,28.091-38.821,28.091
			c-6.062,0-11.895-1.291-17.337-3.837c-1.843-0.862-3.957-0.938-5.857-0.211c-1.9,0.727-3.424,2.194-4.222,4.066
			c-4.304,10.107-7.683,20.594-10.082,31.24c-3.132,0.193-6.251,0.67-9.289,1.456c-0.084,0.022-1.016,0.265-1.394,0.374
			c7.847-39.292,27.756-74.872,58.098-103.567c6.8-6.432,14.163-12.502,21.881-18.042c3.365-2.415,4.135-7.101,1.719-10.466
			c-2.415-3.365-7.101-4.135-10.466-1.719c-8.266,5.933-16.152,12.436-23.441,19.33C62.065,95.797,39.838,138.24,33.163,185.107
			c-11.849,9.137-19.503,23.461-19.503,39.546C13.66,239.188,19.907,252.289,29.853,261.422z M79.184,353.099
			c-6.557-8.882-8.484-20.055-5.288-30.654c0.598-1.982,0.35-4.123-0.685-5.916s-2.765-3.078-4.78-3.551
			c-10.608-2.492-19.252-9.598-23.716-19.498c-3.399-7.539-4.031-15.763-1.933-23.435c0.28,0.129,0.568,0.237,0.851,0.361
			c7.049,3.091,14.838,4.504,22.524,4.102c0.059-0.003,0.117-0.001,0.176-0.004c10.672,30.354,29.212,57.491,54.109,79.245
			c-1.844,1.217-5.45,3.805-5.459,3.811c-3.926,2.946-7.651,6.136-11.17,9.557C94.026,366.214,85.172,361.211,79.184,353.099z
			 M329.503,390.742c-3.801,31.817-35.315,56.72-73.504,56.72c-38.188,0-69.702-24.903-73.503-56.72
			c18.583,6.983,37.995,11.214,57.975,12.657c0.08,0.006,0.16,0.013,0.24,0.019c10.168,0.744,20.412,0.731,30.581,0
			c0.075-0.005,0.15-0.012,0.225-0.017C291.501,401.958,310.917,397.727,329.503,390.742z M259.77,165.247
			c34.526,0.234,68.83,3.653,103.003,8.482c25.479,3.683,50.846,8.248,75.957,13.93c0.406,2.468,0.756,4.95,1.05,7.441
			c2.119,18.008,1.257,36.635-2.613,54.457c-0.012,0.058-0.026,0.115-0.038,0.173c-11.736,53.786-49.792,98.613-100.857,121.925
			c-0.279,0.127-0.56,0.25-0.84,0.375c-24.909,11.151-52.14,16.937-79.431,16.937c-27.291,0-54.528-5.768-79.432-16.937
			c-0.279-0.125-0.56-0.248-0.838-0.375c-51.071-23.315-89.129-68.149-100.861-121.943c-0.011-0.049-0.022-0.097-0.032-0.146
			c-3.763-17.919-4.758-36.259-2.616-54.46c0.293-2.494,0.644-4.977,1.05-7.447c0.131-0.03,0.256-0.058,0.391-0.089
			c39.181-8.874,79.079-15.396,119.075-19.177C215.014,166.287,237.39,165.095,259.77,165.247z M88.167,414.022
			c9.01-17.735,21.368-34.331,37.769-45.865V497H68.45C69.36,465.888,75.982,438.006,88.167,414.022z M140.936,369.447
			c8.336,5.558,17.092,10.485,26.177,14.753c0,0.022-0.001,0.046-0.001,0.068c0,43.116,39.875,78.193,88.888,78.193
			c49.013,0,88.888-35.078,88.888-78.193c0-0.022-0.001-0.046-0.001-0.068c9.085-4.268,17.841-9.195,26.177-14.753V497H140.936
			V369.447z M443.551,497l-57.487,0V368.158c0.049,0.035,0.096,0.066,0.145,0.101c16.275,11.498,28.67,28.14,37.624,45.764
			C436.018,438.006,442.64,465.888,443.551,497z M469.218,270.046c2.098,7.671,1.466,15.895-1.933,23.434
			c-4.464,9.9-13.108,17.007-23.716,19.499c-2.015,0.473-3.745,1.758-4.78,3.551c-1.035,1.793-1.283,3.934-0.685,5.916
			c3.196,10.598,1.269,21.771-5.288,30.653c-5.989,8.112-14.842,13.115-24.628,14.019c-5.117-4.973-10.67-9.444-16.63-13.368
			c24.897-21.753,43.437-48.891,54.11-79.245c0.059,0.003,0.118,0.001,0.177,0.004c6.722,0.332,13.657-0.702,20-3.074
			C466.063,271.353,469.246,270.147,469.218,270.046z M467.776,253.701c-5.136,3.435-11.159,5.469-17.331,5.817
			c-0.074,0.004-0.149,0.008-0.223,0.011c2.732-10.623,4.485-21.516,5.245-32.457c0.844-12.142,0.473-24.36-1.135-36.426
			c-0.018-0.135-0.03-0.272-0.048-0.407c0.549,0.093,1.099,0.184,1.642,0.303c4.043,0.889,7.92,2.516,11.395,4.762
			c9.63,6.226,16.02,17.053,16.02,29.349C483.34,236.753,477.151,247.431,467.776,253.701z M81.69,156.162
			c5.249,1.6,10.705,2.407,16.299,2.407c20.772,0,39.437-11.386,49.08-29.155c8.67,5.256,18.653,8.079,28.92,8.079
			c19.399,0,36.969-9.858,47.101-25.792c9.482,6.961,20.866,10.71,32.91,10.71c12.044,0,23.429-3.749,32.911-10.71
			c10.132,15.934,27.701,25.792,47.101,25.792c10.267,0,20.25-2.823,28.919-8.079c9.643,17.77,28.308,29.155,49.08,29.155
			c5.594,0,11.05-0.807,16.299-2.407c1.897,5.047,3.547,10.179,4.942,15.365c-2.073-0.449-4.352-0.934-6.809-1.447
			c-0.11-0.023-0.222-0.046-0.333-0.07c-32.295-6.728-64.919-11.965-97.721-15.479c-24.702-2.641-49.54-4.298-74.389-4.298
			c-54.048,0-108.209,7.141-161.168,17.564c-0.046,0.009-0.091,0.018-0.137,0.027c-5.994,1.177-11.977,2.409-17.947,3.702
			C78.143,166.341,79.794,161.209,81.69,156.162z M44.678,195.306c3.948-2.553,8.406-4.279,13.039-5.067
			c-1.407,10.348-1.883,20.814-1.484,31.247c0.49,12.819,2.35,25.617,5.546,38.043c-0.072-0.004-0.144-0.007-0.216-0.011
			c-6.16-0.353-12.177-2.372-17.309-5.797c-9.392-6.267-15.594-16.955-15.594-29.068C28.66,212.359,35.049,201.531,44.678,195.306z"
			/>
	</g>
</g>
<g>
</g>
<g>
</g>
<g>
</g>
<g>
</g>
<g>
</g>
<g>
</g>
<g>
</g>
<g>
</g>
<g>
</g>
<g>
</g>
<g>
</g>
<g>
</g>
<g>
</g>
<g>
</g>
<g>
</g>
</svg>
