<?xml version="1.0" encoding="iso-8859-1"?>
<!-- Generator: Adobe Illustrator 19.0.0, SVG Export Plug-In . SVG Version: 6.00 Build 0)  -->
<svg version="1.1" id="Layer_1" xmlns="http://www.w3.org/2000/svg" xmlns:xlink="http://www.w3.org/1999/xlink" x="0px" y="0px"
	 viewBox="0 0 512 512" style="enable-background:new 0 0 512 512;" xml:space="preserve">
<g>
	<g>
		<path style="fill:#008FC7;" d="M366.732,384.84H145.269c0,0-73.86,8.115-73.86,119.66h39.882l7.5-4.385l7.5,4.385h100.265
			L256,488.245l29.445,16.255H385.71l7.5-4.792l7.5,4.792h39.882C440.592,392.955,366.732,384.84,366.732,384.84z"/>
		<path style="fill:#007BAB;" d="M165.269,384.84h-20c0,0-73.86,8.115-73.86,119.66h20
			C91.409,392.955,165.269,384.84,165.269,384.84z"/>
		<polygon style="fill:#313D40;" points="285.445,504.5 278.132,450.582 233.869,450.582 226.556,504.5 		"/>
		<path style="fill:#3A484A;" d="M284.563,435.761l-3.638-14.555c-1.477-5.909-6.786-10.055-12.877-10.055h-24.096
			c-6.091,0-11.4,4.146-12.877,10.055l-3.638,14.555c-1.456,5.826,1.181,11.905,6.431,14.821l15.686,8.714
			c4.009,2.227,8.883,2.227,12.892,0l15.686-8.714C283.382,447.665,286.02,441.587,284.563,435.761z"/>
		<path style="fill:#00A1E0;" d="M200.833,391.702l-24.764,13.727l6.486,24.281c2.547,9.533,13.301,14.218,22.016,9.591
			l33.637-17.857L200.833,391.702z"/>
		<path style="fill:#00A1E0;" d="M311.168,391.702l24.764,13.727l-6.486,24.281c-2.547,9.533-13.301,14.218-22.016,9.591
			l-33.637-17.857L311.168,391.702z"/>
		<path style="fill:#FFCE1C;" d="M352.215,486.275c-19.374-9.195-18.718-30.234-18.718-30.234l18.718-7.429l18.718,7.429
			C370.933,456.041,371.59,477.08,352.215,486.275z"/>
		<ellipse style="fill:#FFDFBF;" cx="256" cy="244.227" rx="188.221" ry="178.011"/>
		<path style="fill:#E6C9AC;" d="M97.779,244.227c0-93.537,76.283-170.219,173.221-177.448c-4.949-0.369-9.951-0.563-15-0.563
			c-103.952,0-188.221,79.698-188.221,178.01S152.049,422.237,256,422.237c5.049,0,10.051-0.194,15-0.563
			C174.063,414.445,97.779,337.764,97.779,244.227z"/>
		<path style="fill:#F98084;" d="M173.063,278.411h-25.316c-4.142,0-7.5-3.358-7.5-7.5s3.358-7.5,7.5-7.5h25.316
			c4.142,0,7.5,3.358,7.5,7.5S177.205,278.411,173.063,278.411z"/>
		<path style="fill:#F98084;" d="M364.254,278.411h-25.316c-4.142,0-7.5-3.358-7.5-7.5s3.358-7.5,7.5-7.5h25.316
			c4.142,0,7.5,3.358,7.5,7.5S368.397,278.411,364.254,278.411z"/>
		<path style="fill:#87543D;" d="M226.556,295.524c0,0,8.264,13.92,29.445,13.92s29.445-13.92,29.445-13.92v-28.441h-58.889V295.524
			z"/>
		<path style="fill:#A36549;" d="M277.181,241.528c19.703,0,37.928,20.629,37.928,39.839c0,8.166-4.273,12.594-9.185,14.986
			c-6.497,3.163-14.166,2.688-20.478-0.829c-7.334-4.086-19.922-10.216-29.445-10.216c-9.523,0-22.111,6.13-29.445,10.216
			c-6.312,3.517-13.981,3.993-20.478,0.829c-4.913-2.392-9.185-6.82-9.185-14.986c0-19.21,18.225-39.839,37.928-39.839H277.181z"/>
		<path style="fill:#87543D;" d="M383.122,112.956c44.62-43.393,82.055-19.093,85.339,15.715
			c3.284,34.808-5.801,74.833-36.395,52.522S404.835,134.02,383.122,112.956z"/>
		<path style="fill:#87543D;" d="M128.879,112.956c-44.62-43.393-82.055-19.093-85.339,15.715s5.801,74.833,36.395,52.522
			S107.166,134.02,128.879,112.956z"/>
		<path style="fill:#00A1E0;" d="M169.851,85.918c-21.23,27.976-7.93,62.949,86.15,62.949s107.38-34.972,86.15-62.949L328.9,56.264
			H199.355L169.851,85.918z"/>
		<path style="fill:#008FC7;" d="M189.851,85.918l29.505-29.654h-20l-29.505,29.654c-21.23,27.976-7.93,62.949,86.15,62.949
			c3.445,0,6.769-0.052,10-0.144C181.005,146.309,169.398,112.87,189.851,85.918z"/>
		<path style="fill:#008FC7;" d="M342.15,85.918c0,0,7.93-11.429,6.945-34.58S298.854,7.5,256,7.5s-92.11,20.688-93.095,43.838
			c-0.985,23.151,6.945,34.58,6.945,34.58H342.15z"/>
		<path style="fill:#007BAB;" d="M182.905,51.338C183.815,29.972,225.839,10.705,266,7.861c-3.355-0.238-6.696-0.361-10-0.361
			c-42.853,0-92.11,20.688-93.095,43.838c-0.985,23.151,6.945,34.58,6.945,34.58h20C189.851,85.918,181.92,74.489,182.905,51.338z"
			/>
		<path style="fill:#FFCE1C;" d="M263.547,33.051h-15.093c-3.631,0-6.574,2.943-6.574,6.574v13.311c0,2.149,1.05,4.162,2.812,5.391
			l7.546,5.265c2.26,1.577,5.263,1.577,7.523,0l7.546-5.265c1.762-1.229,2.812-3.243,2.812-5.391V39.625
			C270.121,35.994,267.177,33.051,263.547,33.051z"/>
	</g>
	<g>
		<path d="M167.904,245.56v-18.587c0-4.142-3.358-7.5-7.5-7.5s-7.5,3.358-7.5,7.5v18.587c0,4.142,3.358,7.5,7.5,7.5
			S167.904,249.702,167.904,245.56z"/>
		<path d="M359.096,245.56v-18.587c0-4.142-3.358-7.5-7.5-7.5s-7.5,3.358-7.5,7.5v18.587c0,4.142,3.358,7.5,7.5,7.5
			S359.096,249.702,359.096,245.56z"/>
		<path d="M240.401,64.478l7.546,5.265c2.374,1.656,5.159,2.532,8.053,2.532c2.895,0,5.679-0.875,8.053-2.532l7.546-5.265
			c3.77-2.63,6.021-6.945,6.021-11.542V39.625c0-7.761-6.313-14.074-14.074-14.074h-15.092c-7.761,0-14.074,6.313-14.074,14.074
			v13.311C234.38,57.532,236.631,61.847,240.401,64.478z M249.38,40.55h13.241v11.902L256,57.071l-6.62-4.619V40.55z"/>
		<path d="M349.447,441.641l-18.717,7.43c-2.778,1.103-4.636,3.75-4.729,6.737c-0.033,1.059-0.539,26.073,22.999,37.244
			c2.026,0.961,4.408,0.959,6.431,0c23.538-11.17,23.032-36.185,22.999-37.244c-0.093-2.988-1.952-5.634-4.73-6.737l-18.718-7.429
			C353.205,440.936,351.225,440.936,349.447,441.641z M352.215,477.687c-7.263-4.818-9.83-12.042-10.733-16.746l10.733-4.26
			l10.738,4.262C362.051,465.642,359.488,472.866,352.215,477.687z"/>
		<path d="M82.369,82.174c-24.323,0-43.793,19.259-46.296,45.792c-1.941,20.58,0.065,47.055,11.518,59.642
			c4.481,4.925,10.166,7.529,16.445,7.531c1.066,0,2.149-0.082,3.245-0.234c-4.649,15.993-7.003,32.516-7.003,49.321
			c0,29.225,6.978,57.208,20.738,83.17c1.94,3.66,6.48,5.055,10.139,3.114c3.66-1.939,5.054-6.479,3.114-10.139
			c-12.602-23.776-18.992-49.396-18.992-76.146c0-20.038,3.647-39.637,10.844-58.293c0.766-0.584,1.529-1.174,2.269-1.791
			c12.633-10.526,21.289-24.164,28.353-38.952c4.457-9.33,9.173-19.747,17.209-26.703c6.293-5.441,12.97-10.446,19.978-14.981
			c-0.238,0.154-0.257,2.462-0.275,2.753c-0.9,14.122,7.723,26.375,19.263,33.659c0.009,0.006,0.018,0.012,0.027,0.018
			c18.218,11.483,46.258,15.423,71.832,16.252c7.48,0.242,14.963,0.22,22.444,0c35.367-1.146,75.452-8.245,87.749-33.009
			c2.982-6.006,4.06-13,3.097-19.673c7.009,4.536,13.688,9.543,19.981,14.985c8.06,6.969,12.704,17.275,17.207,26.7
			c6.775,14.18,14.579,27.284,26.692,37.573c1.047,0.889,3.431,1.876,3.929,3.169c7.197,18.656,10.845,38.257,10.845,58.294
			c0,83.684-64.227,153.48-148.615,167.814c-9.99,1.697-31.49,2.696-32.105,2.696c-56.04,0-111.166-25.261-145.759-69.711
			c-2.545-3.269-7.256-3.857-10.525-1.313c-3.269,2.544-3.856,7.256-1.313,10.525c8.115,10.427,17.414,20.031,27.636,28.643
			c-9.007,3.956-20.315,10.737-30.746,22.24c-20.826,22.965-31.386,56.4-31.386,99.379c0,4.142,3.358,7.5,7.5,7.5h369.183
			c4.142,0,7.5-3.358,7.5-7.5c0-42.979-10.56-76.414-31.386-99.379c-10.453-11.527-21.787-18.313-30.803-22.264
			c40.351-34.006,65.819-83.548,65.819-138.63c0-16.805-2.354-33.328-7.003-49.321c1.098,0.152,2.182,0.234,3.25,0.234
			c6.273,0,11.958-2.603,16.439-7.527c11.455-12.586,13.462-39.064,11.52-59.646c-2.503-26.534-21.974-45.792-46.296-45.792
			c-15.133,0-31.189,7.188-46.746,20.818c-9.564-7.727-19.88-14.552-30.788-20.391c2.476-6.429,5.116-16.909,4.492-31.581
			c-0.591-13.899-13.107-27.079-35.244-37.113C302.134,5.199,277.706,0,256,0s-46.134,5.199-65.344,13.907
			C168.52,23.94,156.003,37.121,155.412,51.02c-0.625,14.672,2.015,25.152,4.491,31.581c-10.907,5.838-21.223,12.663-30.789,20.391
			C113.557,89.362,97.501,82.174,82.369,82.174z M277.286,437.579c0.632,2.53-0.518,5.181-2.796,6.447l-15.687,8.714
			c-1.711,0.95-3.897,0.95-5.607,0l-15.686-8.714c0,0-0.001,0-0.002-0.001c-2.279-1.266-3.428-3.917-2.797-6.446l1.668-6.673
			l3.382-1.795c3.321,0.256,14.429,0.626,16.237,0.626c1.554,0,14.296-0.477,16.236-0.626l3.382,1.796L277.286,437.579z
			 M214.438,425.573l-13.384,7.105c-4.394,2.333-9.971-0.1-11.254-4.903l-2.614-9.784
			C196.049,421.148,205.151,423.678,214.438,425.573z M324.812,417.99c0,0-2.613,9.779-2.614,9.785
			c-1.279,4.788-6.882,7.223-11.253,4.902l-13.384-7.105C306.849,423.678,315.95,421.148,324.812,417.99z M140.032,393.669
			c9.447,6.603,19.383,12.332,29.716,17.162c0,0,5.557,20.802,5.561,20.815c3.723,13.936,20.045,21.041,32.779,14.281l11.489-6.099
			c0.222,5.3,2.466,10.344,6.276,14.049L220.003,497H126.29v-43.152c0-4.142-3.358-7.5-7.5-7.5s-7.5,3.358-7.5,7.5V497H79.026
			C81.511,418.84,122.756,398.673,140.032,393.669z M235.141,497l4.683-34.529c4.76,2.644,9.266,5.596,14.857,5.954
			c0.878,0.056,1.759,0.056,2.637,0c5.579-0.357,10.12-3.322,14.857-5.954L276.859,497H235.141z M432.974,497H400.71v-43.152
			c0-4.142-3.358-7.5-7.5-7.5s-7.5,3.358-7.5,7.5V497h-93.713l-5.849-43.124c3.81-3.705,6.053-8.749,6.275-14.049l11.49,6.1
			c12.721,6.754,29.035-0.263,32.778-14.281l5.561-20.815c10.333-4.83,20.269-10.559,29.716-17.162
			C389.243,398.673,430.488,418.84,432.974,497z M429.631,97.174c16.677,0,29.574,13.242,31.363,32.202
			c1.998,21.181-1.16,40.976-7.68,48.141c-4.873,5.355-12.127,1.044-16.83-2.384c-8.666-6.318-15.906-14.659-21.349-23.984
			c-6.063-10.387-10.121-21.837-16.925-31.813c-0.225-0.331-4.376-6.012-4.465-5.935C406.168,102.759,418.472,97.174,429.631,97.174
			z M251.981,141.36c-16.055-0.118-32.23-1.19-47.863-5.052c-18.882-4.665-44.889-16.603-31.822-40.436
			c0.457-0.834,0.943-1.654,1.457-2.454h164.496c0.023,0.035,0.045,0.072,0.068,0.107c4.561,7.189,7.128,16.417,2.534,24.229
			c-5.765,9.803-17.382,14.16-27.761,17.158c-13.588,3.924-31.343,6.143-52.466,6.423
			C257.742,141.373,254.861,141.382,251.981,141.36z M170.398,51.657C171.079,35.651,212.712,15,256,15s84.921,20.651,85.602,36.657
			c0.57,13.394-2.157,22.319-4.025,26.761H174.423C172.554,73.976,169.828,65.051,170.398,51.657z M64.034,180.14
			c-1.378,0-3.232-0.299-5.349-2.625c-6.519-7.165-9.677-26.96-7.679-48.138c1.789-18.96,14.686-32.202,31.363-32.202
			c11.159,0,23.463,5.584,35.886,16.226c-0.484,0.582-0.951,1.165-1.409,1.749c-8.401,10.728-12.987,23.585-19.584,35.366
			c-5.317,9.495-12.555,17.828-21.314,24.296C72.594,177.291,68.398,180.14,64.034,180.14z"/>
		<path d="M215.359,305.968c3.039,0,6.072-0.482,8.99-1.392c5.153,5.192,15.241,12.367,31.651,12.367
			c16.41,0,26.497-7.176,31.65-12.367c2.918,0.91,5.951,1.392,8.99,1.392c4.425,0,8.652-0.966,12.565-2.872
			c8.643-4.208,13.402-11.925,13.402-21.729c0-11.188-4.95-22.934-13.58-32.227c-7.253-7.81-16.284-12.911-25.494-14.544
			c-5.667-7.606-49.402-7.606-55.069,0c-9.209,1.633-18.241,6.734-25.494,14.544c-8.63,9.293-13.58,21.04-13.58,32.227
			c0,9.804,4.76,17.521,13.402,21.729C206.707,305.001,210.934,305.968,215.359,305.968z M239.3,297.497
			c0.052-0.023,0.105-0.048,0.157-0.071c5.152-2.285,10.811-4.619,16.545-4.619c5.047,0,10.101,1.902,14.7,3.824
			c0.164,0.069,1.957,0.863,1.948,0.873c-0.756,0.859-2.41,1.385-3.439,1.838c-4.151,1.824-8.691,2.602-13.21,2.602
			C248.433,301.943,242.987,299.815,239.3,297.497z M234.819,249.028h1.442c5.08,3.176,12.047,5.137,19.739,5.137
			c7.691,0,14.659-1.961,19.739-5.137h1.442c14.787,0,30.428,16.623,30.428,32.339c0,4.082-1.486,6.547-4.969,8.243
			c-4.286,2.087-9.433,1.654-13.544-0.638c-2.285-1.273-4.822-2.608-7.51-3.893c-8.064-3.856-17.491-7.271-25.585-7.271
			c-7.083,0-15.18,2.619-22.498,5.856c-3.833,1.696-7.456,3.558-10.6,5.31c-4.115,2.291-9.255,2.723-13.542,0.636
			c-3.483-1.696-4.969-4.161-4.969-8.243C204.392,265.651,220.032,249.028,234.819,249.028z"/>
	</g>
</g>
<g>
</g>
<g>
</g>
<g>
</g>
<g>
</g>
<g>
</g>
<g>
</g>
<g>
</g>
<g>
</g>
<g>
</g>
<g>
</g>
<g>
</g>
<g>
</g>
<g>
</g>
<g>
</g>
<g>
</g>
</svg>
