<?xml version="1.0" encoding="iso-8859-1"?>
<!-- Generator: Adobe Illustrator 19.0.0, SVG Export Plug-In . SVG Version: 6.00 Build 0)  -->
<svg version="1.1" id="Layer_1" xmlns="http://www.w3.org/2000/svg" xmlns:xlink="http://www.w3.org/1999/xlink" x="0px" y="0px"
	 viewBox="0 0 512 512" style="enable-background:new 0 0 512 512;" xml:space="preserve">
<g>
	<g>
		<path style="fill:#DC5A64;" d="M438.546,457.929l-52.883,8.648L371.904,504.5h71.331
			C443.236,487.28,441.489,471.796,438.546,457.929z"/>
		<path style="fill:#DC5A64;" d="M140.097,504.5l-27.276-46.571l-39.366,0l0,0c-2.943,13.867-4.69,29.351-4.69,46.571H140.097z"/>
		<g>
			<path style="fill:#D4835F;" d="M253.768,105.849c-2.607,0-5.247-0.679-7.652-2.106l-111.71-66.306
				c-7.133-4.234-9.483-13.448-5.249-20.581c4.234-7.132,13.449-9.483,20.581-5.249l111.71,66.306
				c7.132,4.234,9.483,13.448,5.249,20.581C263.891,103.222,258.895,105.849,253.768,105.849z"/>
		</g>
		<g>
			<path style="fill:#D4835F;" d="M258.233,105.849c2.607,0,5.247-0.679,7.652-2.106l111.71-66.306
				c7.133-4.234,9.483-13.448,5.249-20.581c-4.234-7.132-13.449-9.483-20.581-5.249l-111.71,66.306
				c-7.132,4.234-9.483,13.448-5.249,20.581C248.11,103.222,253.106,105.849,258.233,105.849z"/>
		</g>
		<ellipse style="fill:#313D40;" cx="256" cy="53.558" rx="58.073" ry="46.058"/>
		<path style="fill:#3A484A;" d="M423.207,414.013c126.154-69.085,39.053-200.254,39.053-200.254
			c0-78.098-45.057-160.201-206.259-160.201S49.741,135.661,49.741,213.759c0,0-87.101,131.169,39.053,200.254H423.207z"/>
		<path style="fill:#313D40;" d="M99.741,213.759c0-73.897,40.359-151.365,181.259-159.488c-8.011-0.462-16.327-0.714-25-0.714
			c-161.203,0-206.259,82.103-206.259,160.202c0,0-87.101,131.169,39.053,200.254h50C12.64,344.928,99.741,213.759,99.741,213.759z"
			/>
		<path style="fill:#EFEDEE;" d="M212.946,504.5l80.601-10.889l109.638-57.572l6.642-43.537l-0.6-0.774
			c-7.65-10.032-15.491-17.447-22.237-22.431l0,0v0c-10.723-7.923-18.676-10.901-18.676-10.901H143.687
			c0,0-7.953,2.977-18.676,10.901c-6.922,5.114-14.999,12.772-22.837,23.205l10.647,65.427L212.946,504.5"/>
		<path style="fill:#D4D2D3;" d="M400.641,389.079c1.219-1.153,2.42-2.317,3.605-3.494c-6.012-6.979-11.97-12.384-17.256-16.289h0
			l0,0c-10.723-7.923-18.676-10.901-18.676-10.901H143.687c0,0-7.953,2.978-18.676,10.901c-5.288,3.906-11.249,9.303-17.264,16.281
			c1.187,1.179,2.392,2.346,3.613,3.502c38.708,36.608,90.075,56.769,144.64,56.769S361.933,425.687,400.641,389.079z"/>
		<path style="fill:#EFEDEE;" d="M256,163.794c0,0-44.314,40.304-175.4,57.146c-3.171,12.661-4.859,15.851-4.859,29.428
			c0,94.153,80.704,170.479,180.258,170.479s180.258-76.326,180.258-170.479c0-13.577-1.688-16.768-4.859-29.428
			C300.315,204.098,256,163.794,256,163.794z"/>
		<circle style="fill:#F98084;" cx="159.119" cy="310.865" r="17.047"/>
		<circle style="fill:#F98084;" cx="352.882" cy="310.865" r="17.047"/>
		<path style="fill:#DC5A64;" d="M393.118,138.698l-2-2.68l1.074-3.166c4.693-13.84-8.521-27.055-22.361-22.361l-3.166,1.074
			l-2.68-2c-11.713-8.741-28.363-0.257-28.177,14.357l0.043,3.343l-2.73,1.931c-11.932,8.438-9.009,26.896,4.947,31.234l3.193,0.993
			l0.992,3.193c4.338,13.956,22.796,16.879,31.234,4.947l1.931-2.73l3.343,0.043C393.374,167.061,401.858,150.41,393.118,138.698z"
			/>
		<path style="fill:#ECB000;" d="M102.174,392.501c-11.615,15.459-22.692,37.027-28.719,65.427
			c21.484,18.48,44.514,33.909,66.642,46.571h72.85l38.963-7.466l4.091-7.502C214.762,473.046,151.672,442.092,102.174,392.501z"/>
		<path style="fill:#FFCE1C;" d="M438.546,457.929c-6.026-28.4-17.104-49.968-28.719-65.427
			C329.36,473.119,212.946,504.5,212.946,504.5h158.958C394.032,491.837,417.062,476.409,438.546,457.929z"/>
	</g>
	<g>
		<path d="M159.119,278.314c4.142,0,7.5-3.358,7.5-7.5v-18.837c0-4.142-3.358-7.5-7.5-7.5s-7.5,3.358-7.5,7.5v18.837
			C151.619,274.957,154.977,278.314,159.119,278.314z"/>
		<path d="M352.881,278.314c4.142,0,7.5-3.358,7.5-7.5v-18.837c0-4.142-3.358-7.5-7.5-7.5s-7.5,3.358-7.5,7.5v18.837
			C345.381,274.957,348.739,278.314,352.881,278.314z"/>
		<path d="M256,304.938c8.918,0,17.292-3.729,22.975-10.23c2.726-3.119,2.408-7.857-0.711-10.583s-7.857-2.408-10.583,0.711
			c-2.834,3.243-7.092,5.103-11.681,5.103c-4.589,0-8.847-1.86-11.681-5.103c-2.726-3.119-7.464-3.437-10.583-0.711
			s-3.437,7.464-0.711,10.583C238.709,301.209,247.083,304.938,256,304.938z"/>
		<path d="M159.119,335.412c13.535,0,24.547-11.012,24.547-24.547s-11.012-24.547-24.547-24.547s-24.547,11.012-24.547,24.547
			S145.584,335.412,159.119,335.412z M159.119,301.318c5.264,0,9.547,4.283,9.547,9.547s-4.283,9.547-9.547,9.547
			s-9.547-4.283-9.547-9.547S153.855,301.318,159.119,301.318z"/>
		<path d="M352.881,335.412c13.535,0,24.547-11.012,24.547-24.547s-11.012-24.547-24.547-24.547s-24.547,11.012-24.547,24.547
			S339.346,335.412,352.881,335.412z M352.881,301.318c5.264,0,9.547,4.283,9.547,9.547s-4.283,9.547-9.547,9.547
			s-9.547-4.283-9.547-9.547S347.617,301.318,352.881,301.318z"/>
		<path d="M335.274,167.408c3.451,10.26,12.975,17.111,23.884,17.111c8.023,0,15.316-3.688,20.103-10.144
			c9.453-0.095,17.94-5.39,22.192-13.868c4.199-8.373,3.433-18.208-1.974-25.813c2.39-7.605,1.122-15.626-3.514-22.094
			c-4.747-6.622-12.367-10.576-20.383-10.576c-2.554,0-5.106,0.396-7.594,1.178c-4.297-3.059-9.291-4.673-14.478-4.673
			c-6.718,0-13.293,2.757-18.039,7.564c-4.568,4.627-7.099,10.76-7.164,17.327c-7.546,5.602-11.305,14.78-9.829,24.102
			C319.955,156.845,326.366,164.413,335.274,167.408z M337.451,135.319c1.915-1.354,3.958-2.828,5.053-4.968
			c1.048-2.048,0.832-4.301,0.803-6.525c-0.071-5.561,4.552-10.295,10.202-10.295c3.505,0,6.015,2.066,8.669,4.045
			c1.978,1.476,4.556,1.884,6.894,1.091c2.114-0.717,4.242-1.642,6.51-1.642c6.837,0,11.668,7.044,9.507,13.418
			c-1.169,3.443-2.416,6.801,0.017,10.062c3.037,4.068,5.488,8.194,2.938,13.279c-2.564,5.112-7.432,5.613-12.531,5.549
			c-0.032,0-0.064,0-0.097,0c-2.433,0-4.717,1.181-6.124,3.17c-2.607,3.687-5.21,7.016-10.134,7.017
			c-6.437,0-9.07-4.961-10.736-10.322c-0.732-2.357-2.578-4.204-4.936-4.936c-4.882-1.518-9.298-3.436-10.193-9.083
			C332.676,141.282,334.23,137.597,337.451,135.319z"/>
		<circle cx="363.331" cy="139.352" r="10.047"/>
		<path d="M78.977,417.036c-5.562,12.118-9.87,25.253-12.86,39.336c-3.22,15.176-4.853,31.369-4.853,48.128
			c0,4.142,3.358,7.5,7.5,7.5h374.47c4.142,0,7.5-3.358,7.5-7.5c0-16.759-1.633-32.952-4.855-48.136
			c-2.987-14.075-7.295-27.21-12.857-39.328c33.541-19.976,54.555-46.375,62.493-78.562
			c14.345-58.163-18.697-115.551-25.768-126.921c-0.481-45.772-16.003-84.66-44.961-112.58
			c-18.168-17.516-41.407-30.723-69.519-39.563c0,0,26.134-15.512,26.154-15.523c10.548-6.261,14.134-20.307,7.872-30.859
			c-6.25-10.532-20.335-14.116-30.859-7.87l-43.12,25.594C304.807,12.595,282.174,0,256,0c-26.174,0-48.806,12.595-59.313,30.75
			c0,0-43.106-25.585-43.12-25.593c-10.539-6.255-24.597-2.678-30.859,7.87c-6.337,10.678-2.807,24.521,7.871,30.859l26.154,15.524
			c-28.111,8.84-51.35,22.046-69.518,39.563c-28.958,27.92-44.48,66.808-44.961,112.58c-7.071,11.37-40.112,68.758-25.768,126.921
			C24.423,370.661,45.437,397.061,78.977,417.036z M110.933,411.109c11.538,10.327,23.73,19.921,36.4,28.822
			c21.199,14.893,43.687,27.949,66.969,39.301c5.653,2.759,11.578,5.545,17.411,8.157c1.358,0.608,2.708,1.207,4.044,1.792
			c-12.517,4.501-21.123,7.043-23.842,7.819h-69.803c-11.679-6.75-23.085-13.973-34.115-21.739
			c-8.986-6.322-17.707-13.004-26.144-20.041c-0.029-0.024-0.057-0.049-0.086-0.073c3.344-14.078,8.263-27.333,14.53-39.269
			c2.099-3.997,4.38-7.907,6.847-11.689c0.035-0.053,0.071-0.105,0.106-0.159C103.156,404.198,109.507,409.833,110.933,411.109z
			 M76.382,497c0.269-8.578,1-16.959,2.188-25.076c0.226,0.182,0.458,0.361,0.685,0.542c10.948,8.747,22.368,16.907,34.123,24.534
			H76.382z M306.674,474.718c3.686-1.89,5.142-6.41,3.251-10.096c-1.845-3.598-6.436-5.131-10.098-3.253
			c-8.136,4.173-16.356,8.251-24.743,11.897c-6.719,3.023-13.122,5.745-19.098,8.17c-0.229-0.093-0.453-0.183-0.683-0.276
			c-23.977-9.774-47.539-21.267-69.908-34.511c-1.6-0.947-7.956-4.811-9.533-5.795c-20.668-12.906-40.356-27.472-58.294-43.983
			c-1.792-1.649-3.57-3.312-5.325-4.999c-0.086-0.083,3.614-4.132,3.958-4.504c0.708-0.765,8.973-9.341,9.376-8.968
			c32.833,30.114,75.147,47.525,120.65,49.709c0.05,0.002,0.1,0.006,0.15,0.009c6.292,0.307,12.855,0.302,19.245,0
			c0.054-0.002,0.107-0.006,0.161-0.009c45.5-2.186,87.809-19.596,120.639-49.708c0.039-0.032,1.11,0.946,1.167,0.995
			c3.82,3.309,7.367,6.923,10.683,10.75c0.496,0.572,0.987,1.15,1.473,1.731c-0.775,0.744-1.558,1.485-2.344,2.225
			c-13.937,13.123-28.979,25.033-44.746,35.879c-8.494,5.846-17.2,11.392-26.074,16.644c-3.746,2.217-4.789,7.42-2.21,10.915
			c2.256,3.059,6.508,3.974,9.851,1.995c9.11-5.393,18.048-11.085,26.771-17.085c16.216-11.153,31.713-23.389,46.078-36.852
			c0.545-0.511,1.078-1.056,1.665-1.509c0.121-0.093,6.428,10.783,6.962,11.784c6.268,11.936,11.188,25.193,14.533,39.274
			c-0.029,0.024-0.057,0.049-0.086,0.073c-7.171,6.011-14.568,11.782-22.183,17.221c-12.299,8.785-24.989,16.997-38.075,24.559
			H257.563C271.738,491.367,288.566,484.005,306.674,474.718z M83.44,246.994c0.377-6.485,1.437-12.796,3.156-19.28
			c2.042-0.276,4.055-0.56,6.055-0.847c0.044-0.006,0.087-0.013,0.131-0.019C194.307,212.255,241.485,183.831,256,173.32
			c14.807,10.722,63.596,40.088,169.404,54.395c0.131,0.493,0.258,0.972,0.382,1.437c3.956,14.917,3.485,30.845,0.984,45.969
			c-0.005,0.031-0.01,0.062-0.015,0.094C414.036,353.324,342.32,413.337,256,413.348c-86.285,0-157.998-59.987-170.743-138.076
			c-0.01-0.064-0.021-0.128-0.032-0.192C83.73,265.847,82.899,256.347,83.44,246.994z M398.622,497
			c0.421-0.273,6.364-4.187,8.888-5.916c6.446-4.399,12.763-8.975,18.962-13.715c2.338-1.791,4.66-3.604,6.958-5.445
			c1.188,8.117,1.919,16.499,2.188,25.076H398.622z M320.73,44.979l45.36-26.923c3.534-2.098,8.206-0.905,10.303,2.627
			c2.099,3.536,0.897,8.212-2.628,10.304l-38.761,23.007c-0.026-0.006-0.054-0.011-0.081-0.017
			c-4.373-0.981-8.836-1.881-13.409-2.68C321.509,51.195,321.094,46.803,320.73,44.979z M256,15
			c23.331,0,43.017,12.11,48.827,28.517c0.033,0.115,1.103,3.77,1.355,5.502c-1.951-0.244-3.918-0.474-5.905-0.688
			c-14.699-1.588-29.496-2.273-44.277-2.273c-8.637,0-17.276,0.238-25.898,0.749c-8.362,0.492-16.458,1.233-24.304,2.216
			c0.273-1.735,1.343-5.389,1.376-5.505C212.984,27.11,232.669,15,256,15z M176.996,53.994l-38.762-23.007
			c-3.565-2.116-4.743-6.738-2.629-10.302c2.096-3.533,6.783-4.721,10.304-2.629c0,0,45.359,26.922,45.36,26.923
			c0.116,0.075-0.962,6.349-0.784,6.318c-4.576,0.8-9.041,1.7-13.417,2.682C177.045,53.984,177.02,53.989,176.996,53.994z
			 M55.989,217.908c0.816-1.229,1.252-2.673,1.252-4.149c0-29.676,7.006-71.807,40.384-103.988
			c26.948-25.982,65.003-39.88,101.676-44.705c44.703-5.881,91.136-6.226,135.219,4.209c0.11,0.026,0.221,0.037,0.331,0.058
			c33.161,7.89,59.775,21.396,79.524,40.437c33.378,32.181,40.384,74.312,40.384,103.988c0,1.476,0.436,2.919,1.252,4.149
			c0.392,0.591,39.059,59.728,24.94,116.974c-6.876,27.881-25.298,50.994-54.806,68.792c-4.619-8.024-9.951-15.567-15.92-22.64
			c-0.947-1.107-12.712-13.697-13.126-13.247c24.843-26.77,40.409-59.568,45.127-94.644c0.017-0.122,0.032-0.244,0.048-0.366
			c2.418-18.047,0.811-36.041-3.599-53.66c-0.75-2.994-3.258-5.223-6.32-5.617c-0.116-0.015-13.02-1.795-14.49-2.015
			c-17.797-2.665-35.571-5.906-53.047-10.226c-75.221-18.193-103.445-42.722-103.772-43.015c-2.817-2.562-7.093-2.596-9.956-0.113
			c-0.037,0.032-0.077,0.06-0.114,0.093c-0.108,0.097-11.144,9.827-37.631,21.443c-40.919,17.946-88.985,27.567-124.835,32.635
			c-2.867,0.405-5.97,1.199-8.866,1.199c-3.062,0.394-5.57,2.623-6.32,5.617c-1.756,7.012-3.601,14.03-4.502,21.216
			c-1.37,10.924-0.49,21.958,0.953,32.825c4.72,35.069,20.287,67.861,45.124,94.627c-7.002,5.888-13.231,12.824-18.681,20.156
			c-0.013,0.018-0.027,0.034-0.042,0.054c-3.732,4.968-7.17,10.201-10.323,15.678c-29.478-17.781-47.894-40.866-54.785-68.71
			C16.931,277.847,55.6,218.496,55.989,217.908z"/>
	</g>
</g>
<g>
</g>
<g>
</g>
<g>
</g>
<g>
</g>
<g>
</g>
<g>
</g>
<g>
</g>
<g>
</g>
<g>
</g>
<g>
</g>
<g>
</g>
<g>
</g>
<g>
</g>
<g>
</g>
<g>
</g>
</svg>
