<?xml version="1.0" encoding="iso-8859-1"?>
<!-- Generator: Adobe Illustrator 19.0.0, SVG Export Plug-In . SVG Version: 6.00 Build 0)  -->
<svg version="1.1" id="Layer_1" xmlns="http://www.w3.org/2000/svg" xmlns:xlink="http://www.w3.org/1999/xlink" x="0px" y="0px"
	 viewBox="0 0 512 512" style="enable-background:new 0 0 512 512;" xml:space="preserve">
<g>
	<g>
		<path style="fill:#313D40;" d="M49.62,214.494v189.059c0,13.699,11.105,24.804,24.804,24.804h363.152
			c13.699,0,24.804-11.105,24.804-24.804V214.494H49.62z"/>
		<path style="fill:#EFEDEE;" d="M428.966,407.679l-27.187-4.757l12.244-18.154c-7.431-9.358-14.954-16.365-21.49-21.193h0
			c-11.177-8.259-19.466-11.362-19.466-11.362H138.934c0,0-8.29,3.104-19.466,11.362c-6.535,4.828-14.059,11.835-21.49,21.193
			l12.244,18.154l-27.187,4.757C70.51,431.135,60.842,463.02,60.842,504.5h60.561l7.5-4.171l7.5,4.171h239.195l7.5-4.171l7.5,4.171
			h60.561C451.159,463.02,441.491,431.135,428.966,407.679z"/>
		<path style="fill:#D4D2D3;" d="M134.222,402.922l-12.244-18.154c7.431-9.358,14.954-16.365,21.49-21.193
			c11.177-8.259,19.466-11.362,19.466-11.362h-24c0,0-8.29,3.104-19.466,11.362c-6.535,4.828-14.059,11.835-21.49,21.193
			l12.244,18.154l-27.187,4.757C70.51,431.135,60.842,463.02,60.842,504.5h24c0-41.48,9.667-73.365,22.193-96.821L134.222,402.922z"
			/>
		<path style="fill:#008FC7;" d="M97.978,384.768c-5.147,6.482-10.244,14.11-14.944,22.911l148.947,40.693l20.349-31.203
			l-117.423-42.936L97.978,384.768z"/>
		<path style="fill:#008FC7;" d="M414.023,384.768c5.147,6.482,10.244,14.11,14.944,22.911l-148.947,40.693l-20.349-31.203
			l117.423-42.936L414.023,384.768z"/>
		<path style="fill:#F98084;" d="M252.331,417.169c-15.003-1.263-30.2,5.544-39.001,19.039c-8.8,13.495-8.901,30.147-1.696,43.367
			c15.003,1.263,30.2-5.544,39.001-19.039S259.535,430.389,252.331,417.169z"/>
		<path style="fill:#F98084;" d="M259.67,417.169c15.003-1.263,30.2,5.544,39.001,19.039c8.8,13.495,8.901,30.147,1.696,43.367
			c-15.003,1.263-30.2-5.544-39.001-19.039C252.566,447.041,252.466,430.389,259.67,417.169z"/>
		<path style="fill:#00A1E0;" d="M392.211,343.02c0,0,30.723,13.588,21.814,41.749L256,438.364L97.976,384.769
			c-8.91-28.161,21.814-41.749,21.814-41.749H392.211z"/>
		<circle style="fill:#E3B098;" cx="448.413" cy="244.669" r="42.427"/>
		<path style="fill:#FBC4AC;" d="M66.604,182.226c-1.981,10.473-3.016,21.256-3.016,32.267
			c0,100.502,86.146,181.975,192.413,181.975s192.413-81.473,192.413-181.975c0-11.012-1.035-21.795-3.016-32.267H66.604z"/>
		<path style="fill:#E3B098;" d="M93.588,214.494c0-11.012,1.035-21.795,3.016-32.267h-30c-1.241,6.56-2.111,13.243-2.587,20.027
			c-0.146-0.002-0.281-0.011-0.429-0.011c-23.432,0-42.427,18.995-42.427,42.427s18.995,42.427,42.427,42.427
			c6.368,0,10.92-1.412,14.189-3.926c28.66,66.455,97.652,113.298,178.223,113.298c5.048,0,10.05-0.186,15-0.547
			C171.745,388.683,93.588,310.221,93.588,214.494z"/>
		<g id="XMLID_880_">
			<path style="fill:#F98084;" d="M171.989,275.956h-25.644c-4.142,0-7.5-3.358-7.5-7.5s3.358-7.5,7.5-7.5h25.644
				c4.142,0,7.5,3.358,7.5,7.5S176.131,275.956,171.989,275.956z"/>
		</g>
		<g id="XMLID_878_">
			<path style="fill:#F98084;" d="M365.656,275.956h-25.644c-4.142,0-7.5-3.358-7.5-7.5s3.358-7.5,7.5-7.5h25.644
				c4.142,0,7.5,3.358,7.5,7.5S369.798,275.956,365.656,275.956z"/>
		</g>
		<path style="fill:#3A484A;" d="M38.569,214.494c0-55.555,22.794-107.709,64.184-146.853C143.76,28.859,198.184,7.5,256,7.5
			c57.817,0,112.241,21.358,153.248,60.141c41.389,39.144,64.184,91.297,64.184,146.853H38.569z"/>
		<path style="fill:#313D40;" d="M142.753,67.641c36.242-34.276,82.966-54.929,133.248-59.269C269.389,7.801,262.719,7.5,256,7.5
			c-57.816,0-112.24,21.359-153.247,60.141c-41.39,39.144-64.184,91.298-64.184,146.853h40
			C78.569,158.939,101.363,106.785,142.753,67.641z"/>
	</g>
	<g>
		<path d="M256,274.893c8.914,0,17.285-3.728,22.967-10.227c2.726-3.119,2.408-7.856-0.711-10.583
			c-3.119-2.726-7.857-2.408-10.583,0.711c-2.833,3.241-7.087,5.099-11.673,5.099c-4.585,0-8.84-1.858-11.673-5.099
			c-2.727-3.119-7.464-3.437-10.583-0.711c-3.118,2.727-3.437,7.464-0.71,10.583C238.715,271.165,247.086,274.893,256,274.893z"/>
		<path d="M42.12,289.737v113.815c0,14.204,8.963,26.164,21.662,30.525c-6.926,21.42-10.44,44.982-10.44,70.423
			c0,4.142,3.358,7.5,7.5,7.5h390.316c4.143,0,7.5-3.358,7.5-7.5c0-25.441-3.513-49.003-10.439-70.423
			c12.698-4.361,21.662-16.321,21.662-30.525V289.737c16.815-8.042,28.459-25.219,28.459-45.068c0-14.619-6.513-28.546-17.57-37.987
			c-2.036-54.699-25.41-105.754-66.369-144.491C371.996,22.087,315.742,0,256,0c-38.215,0-75.887,9.247-108.942,26.741
			c-3.661,1.938-5.058,6.476-3.121,10.137s6.477,5.058,10.137,3.121C184.977,23.645,220.222,15,256,15
			c55.892,0,108.486,20.63,148.095,58.09c38.007,35.945,59.739,83.248,61.693,133.904H46.213
			c1.954-50.656,23.686-97.959,61.694-133.904c6.518-6.164,13.561-12.004,20.933-17.359c3.352-2.434,4.095-7.124,1.661-10.476
			c-2.434-3.352-7.125-4.096-10.476-1.661c-7.895,5.733-15.439,11.99-22.426,18.598c-40.958,38.736-64.333,89.791-66.369,144.49
			c-11.057,9.44-17.571,23.367-17.571,37.987C13.66,264.518,25.305,281.695,42.12,289.737z M57.12,403.552l0-109.375
			c2.14,0.278,4.31,0.419,6.468,0.419c3.623,0,7.201-0.392,10.7-1.158c8.567,17.643,19.906,33.836,33.495,48.067
			c-2.457,1.774-5.138,3.986-7.681,6.665c-9.607,10.119-13.115,22.126-10.31,34.929c-1.77,2.352-10.82,16.264-13.375,21.048
			c-0.617,1.155-7.56,15.803-7.462,15.835C62.03,417.715,57.12,411.247,57.12,403.552z M159.167,238.282c4.142,0,7.5-3.358,7.5-7.5
			v-8.788h178.667v8.788c0,4.142,3.358,7.5,7.5,7.5s7.5-3.358,7.5-7.5v-8.788h80.401c-0.133,2.929-0.335,5.858-0.622,8.776
			C431.385,319.372,352.145,388.968,256,388.968c-96.145,0-175.385-69.596-184.113-158.199c-0.287-2.918-0.489-5.847-0.622-8.776
			h80.401v8.788C151.667,234.924,155.024,238.282,159.167,238.282z M263.791,448.313c0.364-1.634,0.646-3.288,0.844-4.958
			l23.748-8.054c2.82,2.941,5.091,6.351,6.729,10.083c3.724,8.492,3.836,18.244,0.442,26.816
			c-11.331-0.406-21.691-6.232-27.905-15.761c-0.006-0.01-0.012-0.021-0.019-0.031C267.197,455.725,264.472,450.397,263.791,448.313
			z M245.627,454.301c-5.801,10.534-17.071,17.465-29.181,17.899c-3.394-8.571-3.281-18.324,0.443-26.816
			c1.509-3.441,3.543-6.623,6.073-9.404c0.211-0.232,0.438-0.452,0.655-0.679c0,0,25.714,8.721,25.721,8.724
			C250.354,444.603,246.046,453.54,245.627,454.301z M94.369,403.001c0.029-0.048,6.243-9.299,6.313-9.395l107.721,36.534
			c-0.042,0.057-1.963,2.923-2.25,3.4L94.369,403.001z M305.848,433.541c-0.7-1.166-1.455-2.296-2.249-3.4l107.721-36.534
			c0.068,0.094,4.318,6.189,6.222,9.246c0.031,0.049,0.06,0.1,0.09,0.149L305.848,433.541z M407.739,378.98L256,430.445
			l-151.74-51.464c-2.413-13.927,8.203-22.855,14.407-26.794c33.452,30.015,75.996,47.859,121.623,51.199
			c10.453,0.765,20.967,0.776,31.42,0c45.626-3.34,88.17-21.184,121.622-51.198C399.538,356.126,410.152,365.055,407.739,378.98z
			 M390.598,497v-38.702c0-4.142-3.358-7.5-7.5-7.5s-7.5,3.358-7.5,7.5V497H136.403v-38.702c0-4.142-3.358-7.5-7.5-7.5
			s-7.5,3.358-7.5,7.5V497l-52.952,0c0.809-27.671,6.378-55.469,18.505-80.474l113.417,30.986
			c-1.996,8.178-1.862,16.759,0.38,24.937c0.003,0.012,0.007,0.024,0.01,0.037c0.893,3.721,2.457,7.323,4.285,10.678
			c1.206,2.214,3.444,3.673,5.956,3.885c12.512,1.052,25.276-2.774,35.116-10.577c3.484-2.763,6.753-6.176,9.414-9.856
			c0.153-0.211,0.317-0.412,0.467-0.626c0.15,0.214,0.314,0.415,0.467,0.627c2.385,3.304,5.194,6.326,8.313,8.948
			c9.956,8.373,23.258,12.574,36.216,11.484c2.513-0.211,4.75-1.671,5.957-3.885c1.841-3.383,3.25-6.973,4.285-10.68
			c0.003-0.01,0.005-0.021,0.008-0.031c2.243-8.179,2.377-16.761,0.381-24.941l113.417-30.986c2.239,4.616,4.317,9.448,6.19,14.446
			c0.032,0.085,0.079,0.161,0.114,0.245c7.404,19.802,11.5,41.82,12.202,65.783H390.598z M454.881,294.177v109.375
			c0,7.695-4.911,14.163-11.836,16.43c-0.97-2.343-1.995-4.65-3.054-6.934c-4.874-10.503-10.782-20.648-17.78-29.944
			c2.362-10.862,0.152-21.298-6.511-30.395c-3.025-4.13-6.883-7.892-11.477-11.209c13.587-14.23,24.924-30.421,33.49-48.062
			c3.499,0.766,7.077,1.158,10.701,1.158C448.71,294.596,454.881,294.463,454.881,294.177z M473.433,221.994
			c0.467,0,0.951-0.045,1.41-0.132c5.412,6.287,8.497,14.387,8.497,22.808c0,14.801-9.738,28.353-23.765,33.088
			c-3.673,1.24-7.559,1.86-11.435,1.831c-0.309-0.002-4.225-0.31-4.237-0.28c3.988-10.368,6.98-21.101,9.031-32.015
			c1.54-8.196,2.431-16.512,2.803-24.841c0.007-0.153,0.017-0.305,0.023-0.458C455.76,221.994,473.426,221.994,473.433,221.994z
			 M37.158,221.861c0.464,0.088,0.939,0.132,1.411,0.132H56.24c0.553,13.308,2.56,26.551,6.027,39.413
			c1.608,5.967,3.583,12.057,5.831,17.901c-0.705,0.091-1.414,0.157-2.125,0.205c-4.581,0.304-9.225-0.286-13.573-1.765
			c-13.786-4.676-23.739-17.733-23.739-33.079C28.66,236.248,31.746,228.148,37.158,221.861z"/>
	</g>
</g>
<g>
</g>
<g>
</g>
<g>
</g>
<g>
</g>
<g>
</g>
<g>
</g>
<g>
</g>
<g>
</g>
<g>
</g>
<g>
</g>
<g>
</g>
<g>
</g>
<g>
</g>
<g>
</g>
<g>
</g>
</svg>
