<?xml version="1.0" encoding="iso-8859-1"?>
<!-- Generator: Adobe Illustrator 19.0.0, SVG Export Plug-In . SVG Version: 6.00 Build 0)  -->
<svg version="1.1" id="Layer_1" xmlns="http://www.w3.org/2000/svg" xmlns:xlink="http://www.w3.org/1999/xlink" x="0px" y="0px"
	 viewBox="0 0 512 512" style="enable-background:new 0 0 512 512;" xml:space="preserve">
<g>
	<g>
		<path style="fill:#3A484A;" d="M196.42,359.754h-51.692c0,0-5.766,2.162-14.074,7.708l-30.075,68.519l30.075,68.519h65.766
			l30.701-68.519L196.42,359.754z"/>
		<path style="fill:#3A484A;" d="M315.88,359.754h51.692c0,0,5.766,2.162,14.074,7.708l30.075,68.519L381.647,504.5H315.88
			l-30.701-68.519L315.88,359.754z"/>
		<path style="fill:#00A1E0;" d="M130.654,367.462V504.5H70.503c0-75.576,33.744-117.708,55.726-133.945
			C127.771,369.424,129.253,368.383,130.654,367.462z"/>
		<path style="fill:#008FC7;" d="M130.654,367.462c-1.401,0.921-2.883,1.962-4.424,3.093
			c-21.982,16.236-55.726,58.369-55.726,133.945h25c0-54.068,17.271-91.012,35.151-113.61V367.462z"/>
		<path style="fill:#00A1E0;" d="M381.647,367.462V504.5h60.151c0-75.576-33.744-117.708-55.726-133.945
			C384.529,369.424,383.048,368.383,381.647,367.462z"/>
		<rect x="196.42" y="359.754" style="fill:#00A1E0;" width="119.46" height="144.746"/>
		<path style="fill:#DC5A64;" d="M395.563,344.432c0,0-17.624,112.52-139.413,127.869
			c-121.789-15.349-139.413-127.869-139.413-127.869H395.563z"/>
		<path style="fill:#BF4E57;" d="M146.737,344.432h-30c0,0,17.624,112.52,139.413,127.869c5.192-0.655,10.18-1.498,15-2.49
			C162.905,447.55,146.737,344.432,146.737,344.432z"/>
		<circle style="fill:#FBC4AC;" cx="61.116" cy="225.808" r="42.972"/>
		<circle style="fill:#FBC4AC;" cx="450.885" cy="225.808" r="42.972"/>
		<path style="fill:#FBC4AC;" d="M436.413,149.98v72.04c-2.388,35.934-19.206,68.756-42.316,95.795
			c-16.244,19.006-34.821,41.676-60.138,48.21c-29.096,7.508-49.851-18.279-77.809-18.279s-48.714,25.787-77.809,18.279
			c-25.317-6.533-43.894-29.204-60.138-48.21c-23.11-27.04-39.927-59.861-42.316-95.795v-72.04H436.413z"/>
		<path style="fill:#D4835F;" d="M256.3,399.83c107.632,0,194.884-82.519,194.884-184.312c0-5.124-0.232-10.197-0.665-15.215
			l0.008-50.322l-29.693,0v75.209c-2.182,32.828-17.546,62.813-38.658,87.516c-14.84,17.363-31.811,38.075-54.941,44.043
			c-26.581,6.859-45.542-16.699-71.085-16.699s-44.503,23.558-71.085,16.699c-23.129-5.969-40.101-26.68-54.941-44.043
			c-21.113-24.703-36.477-54.688-38.658-87.516V149.98l-29.693,0l0.008,50.322c-0.434,5.019-0.665,10.091-0.665,15.215
			C61.116,317.31,148.369,399.83,256,399.83H256.3z"/>
		<g id="XMLID_807_">
			<path style="fill:#F98084;" d="M170.91,256.841h-25.974c-4.142,0-7.5-3.358-7.5-7.5s3.358-7.5,7.5-7.5h25.974
				c4.142,0,7.5,3.358,7.5,7.5S175.052,256.841,170.91,256.841z"/>
		</g>
		<g id="XMLID_805_">
			<path style="fill:#F98084;" d="M367.065,256.841h-25.974c-4.142,0-7.5-3.358-7.5-7.5s3.358-7.5,7.5-7.5h25.974
				c4.142,0,7.5,3.358,7.5,7.5S371.207,256.841,367.065,256.841z"/>
		</g>
		<path style="fill:#D4835F;" d="M256.15,271.049c25.104,25.95,50.035,15.806,62.212,7.912c3.196-2.072,3.303-6.643,0.329-9.024
			c-17.259-13.816-17.27-67.223-62.541-39.258c-45.272-27.965-45.282,25.442-62.541,39.258c-2.974,2.381-2.867,6.952,0.329,9.024
			C206.115,286.855,231.047,296.999,256.15,271.049z"/>
		<path style="fill:#D4835F;" d="M435.571,74.357l-52.96-26.483H131.024L76.73,74.357c-7.227,18.809-11.101,34.244-11.101,34.244
			l190.522,20.691l190.522-20.691C446.672,108.602,442.798,93.166,435.571,74.357z"/>
		<path style="fill:#A36549;" d="M105.629,108.602c0,0,3.874-15.436,11.101-34.244l54.295-26.483h-40L76.73,74.357
			c-7.227,18.809-11.101,34.244-11.101,34.244l190.522,20.691l20-2.172L105.629,108.602z"/>
		<path style="fill:#A36549;" d="M469.478,108.602H42.823c-11.426,0-20.689,9.263-20.689,20.689v0
			c0,11.426,9.263,20.689,20.689,20.689h426.655c11.426,0,20.689-9.263,20.689-20.689v0
			C490.167,117.865,480.904,108.602,469.478,108.602z"/>
		<path style="fill:#87543D;" d="M82.134,129.291L82.134,129.291c0-11.427,9.263-20.689,20.689-20.689h-60
			c-11.426,0-20.689,9.263-20.689,20.689v0c0,11.426,9.263,20.689,20.689,20.689h60C91.396,149.98,82.134,140.717,82.134,129.291z"
			/>
		<path style="fill:#A36549;" d="M435.571,74.357H76.73C87.991,45.028,107.411,7.5,133.026,7.5
			c42.042,0,56.727,14.344,123.124,14.344S337.232,7.5,379.274,7.5C404.89,7.5,424.309,45.028,435.571,74.357z"/>
		<g>
			<path style="fill:#87543D;" d="M161.827,9.934c-8.672-1.45-17.799-2.434-28.801-2.434c-25.616,0-45.035,37.528-56.297,66.857h40
				C126.286,49.468,141.72,18.687,161.827,9.934z"/>
		</g>
	</g>
	<g>
		<path d="M157.923,228.812c4.142,0,7.5-3.358,7.5-7.5v-19.07c0-4.142-3.358-7.5-7.5-7.5s-7.5,3.358-7.5,7.5v19.07
			C150.423,225.454,153.781,228.812,157.923,228.812z"/>
		<path d="M354.078,228.812c4.142,0,7.5-3.358,7.5-7.5v-19.07c0-4.142-3.358-7.5-7.5-7.5s-7.5,3.358-7.5,7.5v19.07
			C346.578,225.454,349.936,228.812,354.078,228.812z"/>
		<path d="M189.858,285.255c7.006,4.542,18.14,9.955,31.401,9.956c0.001,0,0,0,0.001,0c12.449,0,24.157-4.656,34.89-13.857
			c10.732,9.201,22.442,13.857,34.891,13.857c13.261,0,24.396-5.414,31.401-9.956c3.53-2.289,5.675-6.011,5.886-10.214
			c0.21-4.212-1.639-8.308-4.949-10.958c-3.824-3.062-7.207-10.261-10.479-17.224c-6.627-14.106-14.876-31.663-34.32-31.663
			c-6.774,0-14.145,2.229-22.43,6.796c-8.285-4.567-15.655-6.796-22.43-6.796c-19.448,0-27.695,17.556-34.322,31.663
			c-3.271,6.962-6.652,14.162-10.477,17.223c-3.309,2.649-5.159,6.745-4.949,10.957
			C184.183,279.243,186.328,282.966,189.858,285.255z M212.975,253.237c6.734-14.336,11.491-23.041,20.745-23.041
			c4.895,0,11.115,2.31,18.488,6.864c2.416,1.492,5.467,1.492,7.883,0c7.373-4.554,13.593-6.864,18.488-6.864
			c9.251,0,14.008,8.705,20.744,23.041c3.584,7.628,7.277,15.489,12.715,20.81c-5.276,3.068-12.664,6.164-20.998,6.164
			c-10.347,0-20.272-4.837-29.5-14.376c-1.413-1.46-3.358-2.285-5.391-2.285s-3.978,0.825-5.391,2.285
			c-9.228,9.54-19.153,14.376-29.5,14.376c-8.333,0-15.722-3.095-20.998-6.163C205.699,268.726,209.392,260.865,212.975,253.237z"/>
		<path d="M441.797,512c4.142,0,7.5-3.358,7.5-7.5c0-79.839-36.214-120.674-52.871-135.212c3.579-9.92,5.361-17.598,6.105-21.299
			c20.407-20.226,36.197-44.666,45.764-71.783c0.866,0.045,1.73,0.075,2.589,0.075c27.83,0,50.472-22.642,50.472-50.472
			c0-25.407-18.873-46.479-43.334-49.958l0.003-18.37h11.452c15.543,0,28.189-12.646,28.189-28.189s-12.646-28.189-28.189-28.189
			h-17.074c-1.763-6.192-5.016-16.846-9.669-29.006c-0.102-0.323-0.218-0.64-0.361-0.942C424.158,23.937,402.931,0,379.274,0
			c-19.418,0-33.405,2.972-48.213,6.118c-18.151,3.856-38.724,8.227-74.911,8.227c-36.187,0-56.76-4.371-74.911-8.227
			C166.431,2.972,152.444,0,133.026,0c-23.742,0-45.038,24.112-63.297,71.667l0,0.001c-4.741,12.339-8.049,23.169-9.833,29.435
			H42.822c-15.543,0-28.189,12.646-28.189,28.189s12.646,28.189,28.189,28.189h11.452l0.003,18.332
			c-24.606,3.35-43.634,24.487-43.634,49.997c0,27.83,22.642,50.472,50.473,50.472c0.957,0,1.919-0.038,2.882-0.094
			c9.568,27.13,25.365,51.58,45.782,71.813c0.833,4.245,2.704,11.832,6.117,21.267c-16.646,14.52-52.895,55.355-52.895,135.233
			c0,4.142,3.358,7.5,7.5,7.5H441.797z M59.417,261.24c-18.774-0.89-33.774-16.442-33.774-35.432
			c0-17.227,12.343-31.625,28.636-34.814l0.001,8.989c0,6.098-0.73,12.189-0.638,18.312C53.86,232.764,55.8,247.228,59.417,261.24z
			 M121.958,384.043c0.392,0.847,0.791,1.691,1.195,2.531V497H78.117C80.071,433.531,106.56,398.899,121.958,384.043z
			 M138.153,412.081c5.885,8.284,12.543,16.026,19.87,23.067c8.662,8.359,18.869,16.328,30.896,23.2V497h-50.767L138.153,412.081z
			 M203.92,465.891c5.297,2.328,10.786,4.378,16.424,6.191c11.339,3.659,23.051,6.168,34.868,7.66c0.611,0.077,1.264,0.077,1.876,0
			c11.835-1.492,23.547-4.016,34.905-7.673c5.626-1.81,11.101-3.856,16.387-6.179V497H203.92V465.891z M323.38,458.348
			c10.885-6.219,20.277-13.339,28.387-20.832c0.008-0.007,0.015-0.014,0.023-0.021c8.267-7.731,15.798-16.181,22.357-25.413V497
			H323.38V458.348z M434.183,497h-45.036V386.599c0.413-0.855,0.815-1.705,1.205-2.545C405.751,398.914,432.229,433.544,434.183,497
			z M381.563,366.207c-0.361,0.963-0.753,1.959-1.151,2.962c-3.357,8.455-7.397,16.641-12.104,24.426
			c-10.955,18.109-28.557,39.09-55.958,53.709c-13.477,7.191-28.465,12.407-44.689,15.567c-0.073,0.014-0.145,0.027-0.218,0.041
			c-3.745,0.719-7.511,1.334-11.292,1.828c-3.77-0.493-7.523-1.105-11.257-1.821c-0.088-0.017-0.176-0.033-0.264-0.05
			c-16.22-3.16-31.205-8.375-44.697-15.573c-31.548-16.837-50.104-42.11-60.479-61.716c-3.27-6.179-6.207-12.742-8.687-19.353
			c31.48,23.611,69.304,37.635,109.558,40.531c0.118,0.009,0.236,0.016,0.354,0.024
			C290.362,410.376,341.372,396.363,381.563,366.207z M486.356,225.809c0,18.887-14.839,34.374-33.47,35.416
			c2.812-10.886,4.603-22.058,5.366-33.273c0.639-9.401-0.234-18.601-0.234-27.968l0.001-8.926
			C474.17,194.369,486.356,208.693,486.356,225.809z M443.019,200.301c-0.003,18.458,0.291,37.016-4.135,55.07
			c-0.004,0.016-0.007,0.031-0.011,0.047C419.649,333.761,345.087,392.33,256.3,392.33H256c-88.791,0-163.357-58.575-182.58-136.941
			c-5.921-24.137-4.142-47.992-4.142-72.539l-0.004-25.37h14.692v67.709c0,0.166,0.005,0.332,0.017,0.498
			c2.101,31.62,16.085,63.395,40.44,91.891c16.191,18.97,33.556,39.896,58.768,46.433c15.885,4.1,30.697-1.533,45.014-8.075
			c9.439-4.313,18.355-8.386,27.945-8.386c9.59,0,18.504,4.074,27.942,8.386c14.262,6.517,29.205,12.155,45.017,8.075
			c25.207-6.505,42.578-27.491,58.767-46.433c24.355-28.496,38.339-60.271,40.441-91.891c0.011-0.166,0.017-0.332,0.017-0.498
			V157.48h14.691C443.025,157.48,443.019,200.299,443.019,200.301z M413.334,157.48v67.456
			c-1.942,28.291-14.685,56.951-36.86,82.896c-14.94,17.48-33.379,42.664-59.034,42.669c-9.152,0-17.877-3.987-27.114-8.208
			c-10.482-4.79-21.322-9.743-34.176-9.743s-23.695,4.953-34.179,9.743c-9.237,4.22-17.962,8.207-27.112,8.208
			c-2.683,0-5.273-0.332-7.919-1.015c-19.975-5.154-35.63-23.505-49.447-39.701c-20.529-24.051-36.324-52.763-38.526-84.849V157.48
			H413.334z M133.026,15c17.842,0,30.472,2.683,45.096,5.79c18.874,4.01,40.266,8.555,78.028,8.555
			c37.763,0,59.155-4.545,78.028-8.555c14.624-3.107,27.253-5.79,45.096-5.79c14.737,0,30.95,18.745,45.161,51.857H87.865
			C102.076,33.745,118.289,15,133.026,15z M81.927,81.857h348.445c2.732,7.472,4.881,14.198,6.396,19.245H75.531
			C77.046,96.055,79.195,89.33,81.927,81.857z M42.822,116.102h426.655c7.272,0,13.189,5.917,13.189,13.189
			s-5.917,13.189-13.189,13.189H42.822c-7.272,0-13.189-5.917-13.189-13.189S35.55,116.102,42.822,116.102z"/>
	</g>
</g>
<g>
</g>
<g>
</g>
<g>
</g>
<g>
</g>
<g>
</g>
<g>
</g>
<g>
</g>
<g>
</g>
<g>
</g>
<g>
</g>
<g>
</g>
<g>
</g>
<g>
</g>
<g>
</g>
<g>
</g>
</svg>
