<?xml version="1.0" encoding="iso-8859-1"?>
<!-- Generator: Adobe Illustrator 19.0.0, SVG Export Plug-In . SVG Version: 6.00 Build 0)  -->
<svg version="1.1" id="Layer_1" xmlns="http://www.w3.org/2000/svg" xmlns:xlink="http://www.w3.org/1999/xlink" x="0px" y="0px"
	 viewBox="0 0 512 512" style="enable-background:new 0 0 512 512;" xml:space="preserve">
<g>
	<g>
		<path style="fill:#FF8840;" d="M118.83,454.327l-15.526-18.294l-37.652,18.294c-3.576,14.028-5.714,30.598-5.714,50.173h58.891
			l15.999-20.524L118.83,454.327z"/>
		<path style="fill:#FF8840;" d="M393.171,454.327l15.526-18.294l37.652,18.294c3.576,14.028,5.714,30.598,5.714,50.173h-58.891
			l-15.999-20.524L393.171,454.327z"/>
		<path style="fill:#E6742E;" d="M93.865,440.62l-28.212,13.707c-0.67,2.63-1.29,5.35-1.855,8.162
			c-0.941,4.687-1.729,9.63-2.343,14.844c-0.123,1.043-0.238,2.097-0.347,3.161c-0.651,6.388-1.045,13.17-1.144,20.37
			c-0.017,1.2-0.025,2.412-0.025,3.635h24c0-19.574,2.138-36.145,5.714-50.173C90.893,449.455,92.309,444.897,93.865,440.62z"/>
		<path style="fill:#EFEDEE;" d="M412.509,396.234c-19.496-16.708-38.893-18.836-38.893-18.836h-235.23
			c0,0-19.397,2.128-38.893,18.836c-13.24,11.349-26.539,29.406-33.839,58.094h53.178V504.5h18.521l0,0l7.5-5.664l7.5,5.664l0,0
			h40.575l0,0l7.5-5.664l7.5,5.664l0,0h40.575l0,0l7.5-5.664l7.5,5.664l0,0h40.575l0,0l7.5-5.664l7.5,5.664l0,0h40.575l0,0
			l7.5-5.664l7.5,5.664l0,0h18.521v-50.173h53.177C439.048,425.64,425.749,407.583,412.509,396.234z"/>
		<path style="fill:#D4D2D3;" d="M123.492,396.234c19.496-16.708,38.893-18.836,38.893-18.836h-24c0,0-19.397,2.128-38.893,18.836
			c-13.24,11.349-26.539,29.406-33.839,58.094h24C96.953,425.64,110.252,407.583,123.492,396.234z"/>
		<path style="fill:#E6742E;" d="M161.793,103.029C95.424,30.815-33.491,12.141,59.939,208.848L161.793,103.029z"/>
		<path style="fill:#FFDFBF;" d="M140.033,123.028c-14.725-16.022-33.426-29.238-51.308-36.26
			c-9.279-3.643-16.547-4.885-21.51-4.885c-3.365,0-5.669,0.57-6.825,1.35c-4.117,2.776-12.387,31.6,26.245,112.936L140.033,123.028
			z"/>
		<path style="fill:#E6742E;" d="M350.208,103.029c66.369-72.214,195.283-90.888,101.854,105.819L350.208,103.029z"/>
		<path style="fill:#FFDFBF;" d="M371.968,123.028c14.725-16.022,33.426-29.238,51.308-36.26c9.279-3.643,16.547-4.885,21.51-4.885
			c3.365,0,5.669,0.57,6.825,1.35c4.117,2.776,12.387,31.6-26.245,112.936L371.968,123.028z"/>
		<path style="fill:#BF4E57;" d="M315.902,68.35c0-43.081-15.078-60.85-59.901-60.85s-59.901,17.769-59.901,60.85H315.902z"/>
		<path style="fill:#DC5A64;" d="M334.115,96.344c0,0,1.682-41.065-78.114-41.065s-78.114,41.065-78.114,41.065H334.115z"/>
		<path style="fill:#FF8840;" d="M50.314,321.935c-9.329-17.496-12.472-37.947-8.393-57.906
			C59.772,176.687,126.978,83.178,256,83.178s196.229,93.509,214.079,180.851c4.078,19.959,0.936,40.41-8.393,57.906H50.314z"/>
		<path style="fill:#E6742E;" d="M80.314,321.935c-9.329-17.496-12.472-37.948-8.393-57.906
			c17.145-83.889,79.832-173.451,199.071-180.403c-4.926,0.287-10.043-0.448-14.992-0.448c-26.208,0-49.865,3.858-71.076,10.739
			c-39.452,12.798-73.744,37.885-98.749,70.876c-9.907,13.071-18.355,27.233-25.324,42.075
			c-5.483,11.677-10.06,23.792-13.703,36.167c-3.448,11.714-6.622,23.726-6.948,36c-0.033,1.249-0.039,2.497-0.019,3.743
			c0.146,8.719,1.612,17.327,4.312,25.533c0.386,1.172,0.797,2.337,1.232,3.492c1.307,3.466,2.839,6.85,4.588,10.131H80.314z"/>
		<path style="fill:#FFDFBF;" d="M461.687,321.935c-4.187,7.871-9.635,15.142-16.235,21.505
			C408.686,378.846,340.348,430.851,256,430.851S103.315,378.846,66.549,343.44c-6.6-6.364-12.048-13.634-16.235-21.505
			c0,0,76.634-67.639,205.686-67.639S461.687,321.935,461.687,321.935z"/>
		<path style="fill:#E6C9AC;" d="M256.315,430.848c1.172-0.002,2.34-0.012,3.506-0.034c1.112-0.021,2.22-0.054,3.327-0.093
			c0.138-0.005,0.276-0.007,0.414-0.012c2.495-0.093,4.975-0.23,7.44-0.41c-77.43-5.633-139.891-53.578-174.451-86.86
			c-6.6-6.364-12.048-13.634-16.235-21.505c-2.833-5.312-5.086-10.9-6.749-16.66c-15.221,9.578-23.251,16.66-23.251,16.66
			c1.047,1.968,2.172,3.898,3.375,5.786c3.608,5.664,7.91,10.947,12.86,15.719c12.064,11.617,27.527,25.022,45.839,37.791
			c2.616,1.824,5.29,3.635,8.021,5.426c18.205,11.94,38.924,22.989,61.68,31.052c1.138,0.403,2.281,0.799,3.429,1.187
			c21.812,7.372,45.441,11.955,70.482,11.955C256.106,430.851,256.21,430.849,256.315,430.848z"/>
	</g>
	<g>
		<path d="M167.344,202.995c-4.142,0-7.5,3.358-7.5,7.5v17.238c0,4.142,3.358,7.5,7.5,7.5s7.5-3.358,7.5-7.5v-17.238
			C174.844,206.353,171.486,202.995,167.344,202.995z"/>
		<path d="M344.66,202.995c-4.142,0-7.5,3.358-7.5,7.5v17.238c0,4.142,3.358,7.5,7.5,7.5s7.5-3.358,7.5-7.5v-17.238
			C352.16,206.353,348.802,202.995,344.66,202.995z"/>
		<path d="M231.074,225.214c0,8.743,11.161,15.831,24.928,15.831s24.928-7.087,24.928-15.831S231.074,216.471,231.074,225.214z"/>
		<path d="M238.889,296.575c6.22,0,12.169-1.838,17.113-5.171c4.944,3.333,10.893,5.171,17.113,5.171
			c8.834,0,17.129-3.694,22.76-10.136c2.726-3.119,2.408-7.857-0.711-10.583c-3.118-2.726-7.856-2.409-10.583,0.711
			c-2.782,3.183-6.961,5.008-11.466,5.008s-8.685-1.825-11.466-5.007c-2.936-3.36-8.357-3.358-11.293,0
			c-2.782,3.182-6.961,5.007-11.467,5.007s-8.685-1.825-11.466-5.008c-2.727-3.119-7.464-3.437-10.583-0.711
			c-3.119,2.726-3.437,7.464-0.711,10.583C221.76,292.881,230.055,296.575,238.889,296.575z"/>
		<path d="M483.921,64.528c-8.136-12.872-21.695-19.676-39.211-19.676c-29.345,0-67.455,19.587-96.269,49.152
			c-1.401-0.611-2.807-1.21-4.224-1.79c-1.035-0.424-2.082-0.825-3.125-1.233c-0.97-5.155-3.677-13.055-11.13-20.82
			c-1.995-2.078-4.205-4.007-6.614-5.798C322.279,18.729,302.537,0,256.002,0c-46.54,0-66.285,18.722-67.35,64.366
			c-2.407,1.79-4.616,3.718-6.609,5.795c-7.453,7.765-10.161,15.665-11.13,20.82c-1.043,0.408-2.091,0.809-3.125,1.233
			c-1.416,0.58-2.823,1.18-4.223,1.79C134.749,64.44,96.639,44.853,67.295,44.853c-17.521,0-31.082,6.804-39.218,19.675
			c-16.789,26.561-8.831,75.138,23.613,144.384c-7.523,16.975-13.309,34.995-17.115,53.616c-4.365,21.364-1.125,43.715,9.131,62.948
			c4.61,8.662,10.545,16.523,17.644,23.367c13.492,12.994,27.501,24.72,41.9,35.112c-2.987,2.024-5.875,4.218-8.636,6.584
			c-17.368,14.887-29.556,35.726-36.228,61.945c-3.944,15.475-5.944,32.976-5.944,52.016c0,4.142,3.358,7.5,7.5,7.5h392.123
			c4.142,0,7.5-3.358,7.5-7.5c0-19.035-2-36.534-5.945-52.022c-6.67-26.211-18.859-47.05-36.229-61.938
			c-2.761-2.366-5.648-4.561-8.635-6.584c14.4-10.392,28.41-22.12,41.904-35.115c22.904-22.057,33.134-55.166,26.77-86.312
			c-3.806-18.621-9.591-36.64-17.115-53.615C492.756,139.67,500.712,91.093,483.921,64.528z M388.62,117.245
			c11.729-10.32,24.762-18.535,37.398-23.497c9.674-3.799,15.912-4.366,18.769-4.366c0.793,0,1.415,0.042,1.886,0.095
			c1.291,4.52,4.465,23.848-14.221,71.631C421.003,145.821,406.609,130.582,388.62,117.245z M214.67,26.946
			C222.443,18.796,235.576,15,256.002,15c20.426,0,33.559,3.796,41.332,11.946c5.884,6.169,9.318,15.519,10.549,28.961
			c-11.013-4.373-24.482-6.989-40.324-7.827c-7.695-0.414-15.421-0.407-23.116,0c-15.841,0.838-29.308,3.454-40.321,7.827
			C205.352,42.465,208.787,33.115,214.67,26.946z M193.251,80.152c11.082-11.174,28.416-14.833,43.467-16.427
			c10.091-1.068,20.271-1.184,30.399-0.639c17.173,0.924,36.731,3.704,50.084,15.597c1.999,1.78,3.8,3.787,5.296,6.009
			c-2.309-0.663-4.638-1.285-6.982-1.875c-19.237-4.846-39.083-7.093-58.908-7.138c-0.201,0-0.403-0.001-0.604-0.001
			c-20.02,0-40.074,2.244-59.5,7.135c-2.348,0.592-4.681,1.214-6.994,1.878C190.499,83.219,191.728,81.688,193.251,80.152z
			 M79.553,161.107c-18.685-47.779-15.513-67.109-14.222-71.63c0.471-0.053,1.092-0.095,1.885-0.095
			c2.857,0,9.094,0.567,18.77,4.366c12.635,4.962,25.669,13.178,37.398,23.497C105.395,130.583,91.002,145.821,79.553,161.107z
			 M40.756,72.542c5.322-8.42,14.251-12.69,26.539-12.69c23.998,0,56.595,16.548,81.957,41.057
			c-4.561,2.421-8.934,4.973-13.144,7.627c-13.727-12.644-29.387-22.76-44.64-28.749c-11.375-4.467-19.467-5.404-24.252-5.404
			c-4.721,0-8.427,0.885-11.02,2.632c-8.247,5.563-14.518,32.642,13.154,98.865c-3.369,5.295-6.411,10.523-9.139,15.601
			C26.439,115.347,33.261,84.4,40.756,72.542z M71.598,461.827l39.734,0V497h-43.78C67.934,484.369,69.289,472.585,71.598,461.827z
			 M118.832,446.827H75.644c6.191-18.767,15.831-33.842,28.729-44.898c3.861-3.309,8-6.232,12.346-8.724
			c6.729,4.392,13.604,8.555,20.633,12.449V497h-11.021v-42.673C126.332,450.185,122.974,446.827,118.832,446.827z M248.502,438.217
			V497h-40.575v-64.007c10.888,2.425,21.789,4.018,32.686,4.797C241.045,437.821,248.347,438.212,248.502,438.217z M271.387,437.791
			c10.898-0.778,21.8-2.372,32.689-4.797V497h-40.574v-58.783C264.297,438.19,269.556,437.935,271.387,437.791z M359.651,413.424
			V497h-40.575v-67.878C332.642,425.158,346.177,419.924,359.651,413.424z M192.928,429.122V497h-40.575v-83.575
			C165.827,419.924,179.362,425.158,192.928,429.122z M400.672,497v-35.173h39.734c2.31,10.761,3.665,22.542,4.046,35.173H400.672z
			 M407.629,401.928c12.9,11.058,22.54,26.132,28.731,44.899h-43.188c-4.142,0-7.5,3.358-7.5,7.5V497h-11.021v-91.346
			c4.072-2.255,17.845-10.629,20.633-12.449C399.629,395.696,403.768,398.62,407.629,401.928z M458.879,310.138
			c-0.087-0.065-0.186-0.137-0.274-0.203c-14.817-11.051-30.993-20.327-47.626-28.344c-0.166-0.08-0.331-0.16-0.497-0.239
			c-32.899-15.764-86.405-34.556-154.479-34.556c-43.467,0-85.714,7.505-125.566,22.306c-3.816,1.417-5.834,5.835-4.419,9.642
			c1.442,3.882,5.758,5.862,9.642,4.419c38.176-14.179,78.666-21.368,120.344-21.368c64.987,0,116.061,17.852,147.463,32.828
			c15.98,7.621,31.558,16.55,45.858,27.127c0.81,0.599,2.567,1.929,2.638,1.983c-3.314,5.197-7.238,9.991-11.71,14.303
			c-49.262,47.498-114.08,85.314-184.249,85.314c-70.166,0-134.972-37.807-184.246-85.311c-4.473-4.313-8.397-9.107-11.713-14.305
			c0.072-0.055,0.144-0.111,0.218-0.167c7.594-5.784,15.581-11.024,23.789-15.892c7.38-4.372,14.964-8.321,22.633-12.156
			c3.727-1.807,5.284-6.293,3.477-10.021c-1.781-3.672-6.351-5.256-10.021-3.477c-11.71,5.679-23.121,12.005-34.034,19.1
			c-4.417,2.871-8.758,5.866-12.981,9.016c-5.531-14.109-6.913-29.646-3.855-44.609c3.814-18.663,9.729-36.669,17.469-53.517
			c0.007-0.016,0.018-0.029,0.025-0.045c23.075-49.199,62.181-89.73,113.737-108.579c24.118-8.818,49.87-12.711,75.501-12.711
			c25.633,0,51.377,3.895,75.499,12.711c51.239,18.727,91.398,59.243,113.738,108.579c0.006,0.013,0.015,0.024,0.021,0.037
			c7.741,16.85,13.658,34.86,17.473,53.525C465.79,280.493,464.409,296.029,458.879,310.138z M451.793,191.48
			c-2.729-5.078-5.771-10.306-9.139-15.601c27.673-66.225,21.401-93.303,13.153-98.865c-2.589-1.746-6.297-2.632-11.02-2.632
			c-4.785,0-12.877,0.938-24.251,5.404c-15.253,5.99-30.914,16.106-44.64,28.749c-4.21-2.653-8.583-5.205-13.143-7.626
			c25.362-24.508,57.959-41.057,81.957-41.057c12.283,0,21.209,4.27,26.532,12.69C478.738,84.403,485.563,115.352,451.793,191.48z"
			/>
	</g>
</g>
<g>
</g>
<g>
</g>
<g>
</g>
<g>
</g>
<g>
</g>
<g>
</g>
<g>
</g>
<g>
</g>
<g>
</g>
<g>
</g>
<g>
</g>
<g>
</g>
<g>
</g>
<g>
</g>
<g>
</g>
</svg>
