<?xml version="1.0" encoding="iso-8859-1"?>
<!-- Generator: Adobe Illustrator 19.0.0, SVG Export Plug-In . SVG Version: 6.00 Build 0)  -->
<svg version="1.1" id="Layer_1" xmlns="http://www.w3.org/2000/svg" xmlns:xlink="http://www.w3.org/1999/xlink" x="0px" y="0px"
	 viewBox="0 0 511.997 511.997" style="enable-background:new 0 0 511.997 511.997;" xml:space="preserve">
<g>
	<g>
		<path style="fill:#FBC4AC;" d="M116.791,460.171l-40.439-19.472l-33.109,19.472c-3.294,12.995-5.168,27.813-5.168,44.324h55.737
			l28.206-19.855L116.791,460.171z"/>
		<path style="fill:#FBC4AC;" d="M395.206,460.171l40.439-19.472l33.109,19.472c3.294,12.995,5.168,27.813,5.168,44.324h-55.737
			l-28.206-19.855L395.206,460.171z"/>
		<path style="fill:#E3B098;" d="M58.076,504.495c0-16.51,1.874-31.329,5.168-44.324c1.286-5.084,2.793-9.883,4.485-14.4
			l-24.485,14.4c-0.412,1.625-0.801,3.277-1.168,4.958c-1.832,8.406-3.088,17.517-3.656,27.302
			c-0.227,3.914-0.344,7.936-0.344,12.063H58.076z"/>
		<path style="fill:#3A484A;" d="M116.791,460.171H43.243c10.487-41.463,35.389-64.381,59.807-64.381L116.791,460.171z"/>
		<path style="fill:#313D40;" d="M43.243,460.171h20l0,0c7.741-30.608,23.34-51.095,40.799-59.732l-0.397-1.86l-0.595-2.789
			C78.632,395.79,53.73,418.708,43.243,460.171z"/>
		<path style="fill:#3A484A;" d="M395.206,460.171h73.548c-10.487-41.463-35.389-64.381-59.807-64.381L395.206,460.171z"/>
		<path style="fill:#007BAB;" d="M103.049,395.794c0,0-17.295,35.838-9.236,108.704h103.423l-39.343-38.28v-57.756L103.049,395.794z
			"/>
		<path style="fill:#007BAB;" d="M408.949,395.794c0,0,17.295,35.838,9.236,108.704H314.762l39.343-38.28v-57.756L408.949,395.794z"
			/>
		<polygon style="fill:#3A484A;" points="197.236,504.498 314.762,504.498 354.105,466.218 354.105,408.463 377.89,395.794 
			354.105,358.766 157.893,358.766 157.893,408.463 157.893,466.218 		"/>
		<path style="fill:#00A1E0;" d="M135.229,375.177l-38.058,7.094c0,0,9.501,34.922,47.731,51.711l-30.942,8.73
			c0,0,21.49,44.996,83.275,61.785l-34.329-112.056l-5.014-33.677L135.229,375.177z"/>
		<path style="fill:#00A1E0;" d="M376.769,375.177l38.058,7.094c0,0-9.501,34.922-47.731,51.711l30.942,8.73
			c0,0-21.49,44.996-83.275,61.785l34.329-112.056l5.014-33.677L376.769,375.177z"/>
		<ellipse style="fill:#FBC4AC;" cx="255.999" cy="404.456" rx="54.062" ry="45.69"/>
		<circle style="fill:#E3B098;" cx="451.173" cy="230.167" r="44.072"/>
		<path style="fill:#FBC4AC;" d="M438.584,164.808C410.68,95.115,339.463,45.58,255.999,45.58S101.318,95.115,73.413,164.808
			c-8.14,20.314-12.588,42.349-12.588,65.359c0,101.942,87.383,184.587,195.174,184.587s195.174-82.645,195.174-184.587
			C451.173,207.157,446.724,185.122,438.584,164.808z"/>
		<path style="fill:#E3B098;" d="M90.825,230.167c0-23.01,4.448-45.045,12.589-65.359C129.63,99.33,194.081,51.649,270.999,46.121
			c-4.951-0.356-9.953-0.541-15-0.541c-83.464,0-154.681,49.535-182.585,119.228c-2.818,7.033-5.182,14.277-7.084,21.692
			c-1.683-0.259-3.502-0.405-5.504-0.405c-24.34,0-44.072,19.732-44.072,44.072s19.732,44.072,44.072,44.072
			c2.004,0,3.825-0.146,5.509-0.405c20.743,80.865,97.783,140.92,189.665,140.92c5.047,0,10.049-0.181,15-0.537
			C170.217,406.972,90.825,327.336,90.825,230.167z"/>
		<g id="XMLID_875_">
			<path style="fill:#F98084;" d="M170.883,279.349h-25.981c-4.143,0-7.5-3.358-7.5-7.5s3.357-7.5,7.5-7.5h25.981
				c4.143,0,7.5,3.358,7.5,7.5S175.026,279.349,170.883,279.349z"/>
		</g>
		<g id="XMLID_873_">
			<path style="fill:#F98084;" d="M367.095,279.349h-25.981c-4.143,0-7.5-3.358-7.5-7.5s3.357-7.5,7.5-7.5h25.981
				c4.143,0,7.5,3.358,7.5,7.5S371.238,279.349,367.095,279.349z"/>
		</g>
		<path style="fill:#2FC8B4;" d="M290.332,53.508c-8.105-17.673-22.887-46.01-34.333-46.01c-11.446,0-26.228,28.337-34.333,46.01
			c-3.175,6.922-0.75,15.108,5.668,19.207c6.621,4.229,12.647,9.949,17.446,15.217c6.008,6.595,16.431,6.595,22.439,0
			c4.799-5.268,10.824-10.988,17.446-15.217C291.082,68.616,293.507,60.43,290.332,53.508z"/>
		<path style="fill:#00AE95;" d="M230.245,72.698c8.721-19.015,22.896-46.738,36.315-58.986c-3.638-3.819-7.24-6.215-10.562-6.215
			c-11.446,0-26.228,28.337-34.333,46.01c-3.175,6.922-0.75,15.108,5.668,19.207c0.77,0.492,1.53,1.008,2.283,1.537
			C229.809,73.731,230.01,73.211,230.245,72.698z"/>
	</g>
	<g>
		<path d="M165.392,243.813v-19.076c0-4.142-3.358-7.5-7.5-7.5s-7.5,3.358-7.5,7.5v19.076c0,4.142,3.358,7.5,7.5,7.5
			S165.392,247.955,165.392,243.813z"/>
		<path d="M361.604,243.813v-19.076c0-4.142-3.358-7.5-7.5-7.5s-7.5,3.358-7.5,7.5v19.076c0,4.142,3.358,7.5,7.5,7.5
			S361.604,247.955,361.604,243.813z"/>
		<path d="M255.998,278.273c9.003,0,17.457-3.764,23.194-10.327c2.726-3.119,2.408-7.857-0.711-10.583
			c-3.119-2.726-7.857-2.409-10.583,0.711c-2.888,3.304-7.226,5.199-11.9,5.199s-9.012-1.895-11.9-5.2
			c-2.727-3.119-7.464-3.437-10.583-0.711c-3.119,2.726-3.437,7.464-0.711,10.583C238.541,274.509,246.995,278.273,255.998,278.273z
			"/>
		<path d="M451.289,178.6c-1.643-5.594-3.557-11.124-5.743-16.578c-25.112-62.719-83.41-108.673-152.729-120.744
			C274.642,4.507,263.188,0,255.998,0c-7.188,0-18.639,4.505-36.806,41.253c-35.655,6.202-68.909,21.415-96.391,44.141
			c-3.192,2.64-3.64,7.367-1,10.56c2.64,3.191,7.367,3.64,10.56,1c23.179-19.168,50.806-32.575,80.525-39.17
			c-0.731,8.331,3.35,16.744,10.409,21.254c11.033,7.049,18.162,21.343,32.703,21.343c5.519,0,10.838-2.025,14.946-5.619
			c6.019-5.267,10.938-11.368,17.757-15.724c5.665-3.619,9.574-9.913,10.346-16.65c0.009-0.078,0.011-0.156,0.019-0.234
			c0.134-1.258,0.158-2.715,0.06-4.05c-0.008-0.106-0.008-0.212-0.017-0.319C359.412,71.181,409.509,112.37,431.622,167.6
			c7.876,19.67,12.051,41.232,12.051,62.569c0,13.704-1.692,27.381-5.004,40.678c-14.484,57.919-59.188,104.945-117.482,125.385
			c-20.894,7.326-43.052,11.024-65.189,11.024c-22.419,0-44.871-3.802-65.998-11.315C132.103,375.35,87.745,328.497,73.328,270.847
			c-8.456-33.814-6.032-70.607,7.047-103.249c7.353-18.362,17.877-35.382,31.282-50.588c2.739-3.107,2.441-7.846-0.667-10.585
			s-7.847-2.441-10.585,0.667c-14.54,16.494-25.964,34.975-33.954,54.929c-2.186,5.455-4.1,10.985-5.743,16.58
			c-28.383,0.063-51.455,23.171-51.455,51.569c0,18.511,9.808,34.768,24.495,43.867v15.348c0,4.142,3.358,7.5,7.5,7.5
			s7.5-3.358,7.5-7.5v-9.086c3.854,0.928,7.871,1.434,12.004,1.44c10.176,34.563,30.319,65.22,57.294,89.014
			c0,0-22.232,4.144-22.251,4.148c-4.236,0.79-6.994,5.183-5.862,9.342c0.092,0.338,0.656,2.334,1.892,5.43
			c-10.44,2.539-20.557,8.543-29.287,17.541c-12.065,12.435-21.252,30.111-26.567,51.123c-3.581,14.128-5.396,29.659-5.396,46.162
			c0,4.142,3.358,7.5,7.5,7.5h435.847c4.142,0,7.5-3.358,7.5-7.5c0-16.501-1.815-32.032-5.398-46.167
			c-5.313-21.007-14.499-38.683-26.565-51.118c-8.73-8.997-18.848-15.002-29.287-17.541c1.236-3.095,1.8-5.091,1.892-5.429
			c0.55-2.021,0.229-4.181-0.884-5.956c-1.113-1.774-2.918-3.002-4.978-3.386l-22.25-4.148
			c26.976-23.793,47.119-54.451,57.295-89.014c4.134-0.006,8.15-0.511,12.004-1.44v9.086c0,4.142,3.358,7.5,7.5,7.5
			s7.5-3.358,7.5-7.5v-15.348c14.687-9.099,24.495-25.356,24.495-43.867C502.744,201.771,479.672,178.664,451.289,178.6z
			 M255.968,14.999c0.084,0.008,8.556,1.844,25.161,36.555c1.916,3.998,4.615,8.14,1.848,12.481
			c-1.766,2.77-5.532,4.458-8.069,6.437c-4.393,3.427-8.824,7.57-13.235,12.412c-1.454,1.596-3.516,2.496-5.675,2.497
			c-3.863,0-5.915-2.823-8.348-5.337c-5.451-5.633-10.915-10.22-16.28-13.647c-5.688-3.634-2.801-10.043-0.522-14.801
			C247.466,16.844,255.941,15.007,255.968,14.999z M56.968,266.539c-18.36-1.933-32.715-17.506-32.715-36.37
			c0-18.86,14.35-34.432,32.705-36.369c-1.8,8.901-2.939,17.937-3.396,27.072c-0.003,0.053-0.007,0.107-0.009,0.16
			C52.788,236.256,53.94,251.599,56.968,266.539z M202.781,496.999l-27.795-90.725c3.647,1.505,7.345,2.895,11.08,4.193
			c3.067,1.066,6.158,2.068,9.27,2.997c4.987,25.163,30.537,44.184,60.662,44.184c30.126,0,55.677-19.022,60.662-44.184
			c0.12-0.036,0.239-0.075,0.359-0.111c6.769-2.039,13.453-4.376,19.989-7.073L309.215,497L202.781,496.999z M263.067,422.126
			c11.579-0.377,35.825-4.186,36.551-4.337c-6.638,14.557-23.804,24.859-43.62,24.859c-19.815,0-36.981-10.301-43.619-24.859
			c0.725,0.151,1.454,0.281,2.181,0.424c13.637,2.689,27.537,4.042,41.438,4.042C257.792,422.256,262.503,422.145,263.067,422.126z
			 M133.413,383.146c7.386,5.324,15.18,10.183,23.238,14.487l29.201,95.316c-0.023-0.009-0.048-0.017-0.071-0.026
			c-17.715-6.685-34.178-16.927-47.534-30.393c-5.727-5.773-9.916-11.162-12.759-15.274c0,0,21.406-6.04,21.451-6.053
			c6.614-1.866,7.274-11.32,0.979-14.085c-2.557-1.123-5.06-2.376-7.491-3.75c-15.899-8.986-25.305-21.344-30.596-30.819
			c-0.208-0.431-1.923-3.52-2.411-4.556L133.413,383.146z M91.774,405.264c-2.855,9.937-6.184,25.703-7.253,47.408H53.249
			C61.403,428.345,75.699,410.916,91.774,405.264z M45.711,496.997c0.379-10.313,1.547-20.131,3.489-29.324h34.967
			c0.009,4.44,0.126,9.101,0.344,13.939c0.23,5.133,0.569,10.266,1.019,15.385H45.711z M100.594,497
			c-0.726-7.904-1.189-15.834-1.343-23.771c-0.397-20.047,1.002-40.426,5.936-59.919c0.047-0.185,0.094-0.369,0.141-0.554
			c3.805,4.8,8.471,9.727,14.149,14.386c1.942,1.579,3.926,3.105,5.982,4.534c0,0-13.525,3.816-13.538,3.82
			c-4.403,1.242-6.703,6.319-4.732,10.449c4.21,8.823,10.662,16.79,17.251,23.934c9.94,10.777,21.695,19.899,34.473,27.073
			c0.028,0.016,0.054,0.032,0.082,0.047H100.594z M353.084,496.951c18.066-10.183,34.163-24.184,45.92-41.331
			c2.897-4.225,8.32-10.577,5.865-15.998c-0.912-2.015-2.667-3.524-4.796-4.125l-13.538-3.82c2.118-1.471,4.104-2.993,6.004-4.552
			c5.676-4.659,10.349-9.595,14.156-14.403c0.78,3.007,1.582,6.505,2.336,10.494c0.002,0.01,0.004,0.02,0.006,0.03
			c4.593,24.114,4.608,49.029,2.393,73.408c-0.01,0.115-0.021,0.23-0.032,0.346H353
			C353.029,496.984,353.056,496.967,353.084,496.951z M426.467,496.997c0.014-0.155,0.022-0.308,0.036-0.463
			c0.832-9.595,1.302-19.228,1.313-28.86h34.98c1.942,9.194,3.11,19.012,3.489,29.324H426.467z M458.746,452.673h-31.288
			c-0.018-0.363-0.046-0.719-0.066-1.082c-0.83-15.57-2.872-31.163-7.146-46.184c-0.014-0.049-0.027-0.101-0.042-0.15
			C436.287,410.903,450.591,428.337,458.746,452.673z M402.49,391.998c-8.321,14.216-19.793,25.873-34.607,33.328
			c-1.252,0.63-2.52,1.227-3.803,1.791c-6.307,2.77-5.641,12.217,0.979,14.086l21.451,6.052c-2.844,4.115-7.033,9.502-12.759,15.275
			c-5.834,5.883-12.283,11.151-19.151,15.781c-8.866,5.978-18.393,10.797-28.376,14.608c-0.027,0.01-0.053,0.021-0.08,0.031
			l29.201-95.317c8.055-4.303,15.85-9.162,23.24-14.487l25.958,4.839C403.958,389.218,403.275,390.566,402.49,391.998z
			 M455.029,266.539c2.423-11.956,3.644-24.171,3.644-36.37c0-12.201-1.215-24.409-3.634-36.369
			c18.355,1.938,32.705,17.509,32.705,36.369C487.744,249.032,473.388,264.606,455.029,266.539z"/>
	</g>
</g>
<g>
</g>
<g>
</g>
<g>
</g>
<g>
</g>
<g>
</g>
<g>
</g>
<g>
</g>
<g>
</g>
<g>
</g>
<g>
</g>
<g>
</g>
<g>
</g>
<g>
</g>
<g>
</g>
<g>
</g>
</svg>
