<?xml version="1.0" encoding="iso-8859-1"?>
<!-- Generator: Adobe Illustrator 19.0.0, SVG Export Plug-In . SVG Version: 6.00 Build 0)  -->
<svg version="1.1" id="Layer_1" xmlns="http://www.w3.org/2000/svg" xmlns:xlink="http://www.w3.org/1999/xlink" x="0px" y="0px"
	 viewBox="0 0 512 512" style="enable-background:new 0 0 512 512;" xml:space="preserve">
<g>
	<g>
		<path style="fill:#EFEDEE;" d="M392.533,363.575c-11.177-8.259-19.466-11.362-19.466-11.362H138.934c0,0-8.29,3.103-19.466,11.362
			C96.342,380.66,60.842,424.985,60.842,504.5h60.561l7.5-5.196l7.5,5.196h239.195l7.5-8.013l7.5,8.013h60.561
			C451.159,424.985,415.659,380.66,392.533,363.575z"/>
		<path style="fill:#D4D2D3;" d="M144.468,363.575c11.177-8.259,19.466-11.362,19.466-11.362h-25c0,0-8.29,3.103-19.466,11.362
			C96.342,380.66,60.842,424.985,60.842,504.5h25C85.842,424.985,121.342,380.66,144.468,363.575z"/>
		<path style="fill:#87543D;" d="M409.249,67.641c41.389,39.144,64.184,91.298,64.184,146.853H38.569
			c0-55.555,22.794-107.709,64.184-146.853H409.249z"/>
		<circle style="fill:#E3B098;" cx="448.413" cy="224.654" r="42.427"/>
		<ellipse style="fill:#FBC4AC;" cx="256" cy="214.494" rx="192.413" ry="181.975"/>
		<path style="fill:#E3B098;" d="M93.588,214.493c0-95.728,78.156-174.189,177.412-181.427c-4.95-0.361-9.952-0.547-15-0.547
			c-94.672,0-173.374,64.665-189.421,149.84c-0.935-0.079-1.916-0.132-2.992-0.132c-23.432,0-42.427,18.996-42.427,42.427
			s18.995,42.427,42.427,42.427c3.236,0,5.795-0.374,7.837-1.061C94.923,341.425,168.659,396.468,256,396.468
			c5.048,0,10.05-0.186,15-0.547C171.744,388.683,93.588,310.221,93.588,214.493z"/>
		<path style="fill:#D4835F;" d="M268.669,7.5c-133.102,0-132.435,46.488-187.811,20.468c0,0-51.373,121.426,187.811,121.426
			S474.494,7.5,268.669,7.5z"/>
		<g>
			<path style="fill:#A36549;" d="M108.433,35.801c-7.99-0.418-16.7-2.723-27.575-7.833c0,0-51.373,121.427,187.811,121.427
				c4.906,0,9.687-0.066,14.365-0.183C96.81,144.836,102.089,61.947,108.433,35.801z"/>
		</g>
		<polygon style="fill:#FBE1D5;" points="225.993,201.683 192.455,186.014 134.436,186.014 101.561,206.292 98.182,235.48 
			124.911,283.102 157.764,294.777 199.878,287.403 225.993,256.065 230.909,215.679 		"/>
		<polygon style="fill:#FBE1D5;" points="286.008,201.683 319.546,186.014 377.565,186.014 410.44,206.292 413.82,235.48 
			387.09,283.102 354.237,294.777 312.124,287.403 286.008,256.065 281.093,215.679 		"/>
		<path style="fill:#BF4E57;" d="M239.88,409.938c-40.108,28.622-66.681,32.285-66.681-14.606s26.574-43.228,66.681-14.606V409.938z
			"/>
		<path style="fill:#BF4E57;" d="M272.121,409.938c40.108,28.622,66.681,32.285,66.681-14.606s-26.574-43.228-66.681-14.606V409.938
			z"/>
		<path style="fill:#DC5A64;" d="M259.624,376.105h-7.248c-10.619,0-19.227,8.608-19.227,19.227v0
			c0,10.619,8.608,19.227,19.227,19.227h7.248c10.619,0,19.227-8.608,19.227-19.227v0
			C278.851,384.713,270.243,376.105,259.624,376.105z"/>
		<path style="fill:#D4835F;" d="M256,300.459c31.964,33.042,63.71,20.126,79.215,10.075c4.07-2.639,4.206-8.459,0.419-11.49
			c-21.976-17.592-21.99-85.595-79.634-49.988c-57.645-35.608-57.658,32.395-79.634,49.988c-3.787,3.031-3.651,8.852,0.419,11.49
			C192.29,320.585,224.036,333.501,256,300.459z"/>
	</g>
	<g>
		<path d="M165.264,215.679c-4.142,0-7.5,3.358-7.5,7.5v17.643c0,4.142,3.358,7.5,7.5,7.5c4.143,0,7.5-3.358,7.5-7.5v-17.643
			C172.764,219.037,169.406,215.679,165.264,215.679z"/>
		<path d="M346.736,215.679c-4.142,0-7.5,3.358-7.5,7.5v17.643c0,4.142,3.358,7.5,7.5,7.5s7.5-3.358,7.5-7.5v-17.643
			C354.236,219.037,350.878,215.679,346.736,215.679z"/>
		<circle cx="256" cy="442.286" r="9.34"/>
		<circle cx="256" cy="476.312" r="9.34"/>
		<path d="M478.814,185.089c-4.701-32.837-17.453-64.363-37.055-91.623c0.137-0.497,0.267-0.988,0.382-1.47
			c5.864-24.537-11.129-49.576-45.457-66.979c-3.694-1.874-8.208-0.396-10.081,3.298c-1.873,3.695-0.396,8.208,3.298,10.081
			c27.717,14.052,41.791,32.785,37.65,50.113c-2.752,11.514-12.561,20.184-22.132,26.295
			c-37.548,23.971-87.65,26.719-130.957,27.116c-47.408,0.435-98.052-1.891-141.733-22.128
			c-16.798-7.784-32.783-19.236-41.712-35.868c-9.765-18.189-7.772-36.13-5.477-45.785c25.269,9.774,40.256,4.412,61.931-3.345
			C170.813,26.44,202.78,15,268.669,15c34.606,0,65.524,4.003,91.894,11.899c3.968,1.187,8.148-1.066,9.336-5.034
			c1.188-3.968-1.065-8.148-5.034-9.336C337.099,4.215,304.733,0,268.669,0c-68.492,0-101.876,11.947-126.251,20.67
			c-22.47,8.042-33.75,12.079-58.37,0.509c-1.847-0.868-3.967-0.946-5.871-0.216c-1.905,0.729-3.431,2.204-4.226,4.082
			c-0.574,1.357-12.479,30.37,1.577,61.356c-22.665,28.927-37.251,62.892-42.371,98.71c-11.845,9.137-19.497,23.459-19.497,39.542
			c0,27.53,22.397,49.928,49.928,49.928c0.911,0,1.826-0.034,2.743-0.085c5.327,15.138,12.684,29.641,21.975,43.177
			c9.151,13.332,19.968,25.43,32.153,36.088c-1.82,1.2-3.639,2.446-5.447,3.782c-8.951,6.612-26.077,21.859-40.216,49.686
			C60.56,435.247,53.342,467.974,53.342,504.5c0,4.142,3.358,7.5,7.5,7.5c0,0,390.316,0,390.337,0c4.142,0,7.5-3.358,7.5-7.5
			c0-0.188-0.007-0.375-0.021-0.56c-0.074-36.3-7.291-68.837-21.454-96.711c-14.139-27.827-31.265-43.074-40.215-49.686
			c-1.809-1.336-3.627-2.582-5.448-3.782c12.186-10.658,23.002-22.756,32.154-36.088c9.291-13.536,16.649-28.039,21.975-43.177
			c0.917,0.052,1.832,0.085,2.743,0.085c27.53,0,49.927-22.397,49.927-49.928C498.34,208.558,490.677,194.226,478.814,185.089z
			 M462.173,176.651c-3.194-0.916-10.376-1.812-10.659-1.83c-0.042-0.184-0.824-3.682-1.263-5.22
			c-5.292-18.523-12.534-36.34-22.845-52.657c-0.042-0.066-0.081-0.132-0.123-0.198c2.72-2.65,4.999-5.295,6.892-7.894
			C447.801,129.556,457.323,152.621,462.173,176.651z M49.824,176.652c5.519-27.398,17.067-53.391,33.9-76.258
			c0.033,0.044,6.113,7.424,6.644,7.991c-0.035,0.049-0.067,0.099-0.102,0.147c-14.467,20.266-24.508,42.679-29.801,66.291
			c-0.272,0.017-0.542,0.051-0.813,0.072C56.366,175.153,53.018,175.736,49.824,176.652z M61.786,259.535
			c-18.425-0.941-33.126-16.227-33.126-34.882c0-16.758,12.531-31.606,29.051-34.413c-0.79,5.885-1.293,11.83-1.503,17.821
			C55.607,225.25,57.479,242.777,61.786,259.535z M379.208,363.715c2.523,1.493,5.551,3.442,8.868,5.893
			c7.885,5.825,23.015,19.341,35.755,44.417c12.185,23.982,18.807,51.863,19.718,82.976h-52.952v-54.714c0-4.142-3.358-7.5-7.5-7.5
			s-7.5,3.358-7.5,7.5V497H136.402v-54.714c0-4.142-3.357-7.5-7.5-7.5c-4.142,0-7.5,3.358-7.5,7.5V497H68.451
			c0.911-31.113,7.532-58.994,19.718-82.977c12.74-25.075,27.871-38.591,35.757-44.417c3.315-2.451,6.343-4.399,8.866-5.892
			c8.525,6.331,17.564,11.966,26.981,16.871c2.155,1.123,4.326,2.222,6.52,3.269c-1.534,13.703-1.476,30.593,6.01,42.736
			c4.628,7.507,12.979,12.009,21.846,12.011c0.02,0,0.042-0.002,0.062-0.002c15.362-0.013,30.178-9.193,42.546-17.404
			c1.067-0.709,2.145-1.433,3.243-2.187c2.313,1.214,4.824,2.097,7.472,2.591c1.616,0.301,3.26,0.459,4.904,0.459
			c0,0,7.248,0,7.25,0c4.292,0,8.574-1.055,12.375-3.049c2.37,1.628,4.767,3.215,7.196,4.753
			c16.986,10.756,45.8,26.063,60.327,3.108c6.399-10.112,7.083-23.102,6.736-34.744c-0.082-2.763-0.243-5.525-0.55-8.273
			c0.269-0.128,0.534-0.265,0.803-0.395c11.469-5.526,22.435-12.156,32.671-19.725C379.191,363.728,379.2,363.721,379.208,363.715z
			 M196.075,367.116c11.683,0.924,23.233,8.747,32.709,15.065c0.079,0.053,0.162,0.11,0.241,0.163
			c-0.013,0.022-0.023,0.046-0.036,0.068c-0.265,0.478-0.517,0.964-0.753,1.46c-15.506-1.377-28.062-1.061-37.37,0.955
			c-4.048,0.877-6.619,4.869-5.742,8.918c0.863,3.983,4.947,6.602,8.918,5.743c7.539-1.633,18.456-1.886,31.824-0.763
			c0.01,0.076,0.024,0.151,0.035,0.228c0.44,3.251,1.467,6.448,3.09,9.304c0.012,0.021,0.022,0.044,0.034,0.065
			c-0.064,0.043-0.131,0.089-0.195,0.132c-10.338,6.895-21.711,15.149-34.686,15.149c-7.197,0-10.308-5.766-11.834-11.999
			c-1.298-5.3-1.612-10.834-1.612-16.271C180.698,384.237,180.394,365.876,196.075,367.116z M247.728,384.606
			c1.46-0.645,3.045-1.001,4.648-1.001h7.248c5.337,0,10.155,3.83,11.396,9.012c1.705,7.095-4.101,14.442-11.396,14.442h-7.248
			C239.943,407.058,236.59,389.53,247.728,384.606z M285.833,380.465c9.906-6.38,21.241-14.4,33.675-13.346
			c10.977,0.931,11.617,18.075,11.77,25.97c0.157,8.105,0.074,17.64-3.961,24.964c-2.023,3.672-5.294,5.549-9.461,5.549
			c-0.013,0-0.027-0.002-0.04-0.002c-4.25-0.001-8.428-1.311-12.346-2.859c-7.907-3.124-15.221-7.596-22.285-12.28
			c-0.069-0.046-0.189-0.182-0.178-0.202c1.601-2.948,2.708-6.202,3.128-9.536c13.369-1.123,24.286-0.87,31.824,0.763
			c3.994,0.864,8.052-1.746,8.918-5.742c0.877-4.048-1.693-8.041-5.742-8.918c-9.307-2.017-21.862-2.333-37.37-0.956
			c-0.237-0.497-0.49-0.984-0.756-1.464c-0.012-0.022-0.022-0.045-0.034-0.066C283.94,381.696,284.893,381.07,285.833,380.465z
			 M411.328,309.184c-10.508,15.309-23.405,28.861-38.17,40.28c-9.496,7.343-20.124,13.999-31.043,19.431
			c-0.39-0.933-0.803-1.814-1.235-2.649c-5.661-11.187-14.836-14.185-23.023-14.185c-12.025,0-23.638,5.888-33.753,11.849
			c-4.126,2.431-8.149,5.029-12.096,7.74c-3.792-1.993-8.1-3.045-12.382-3.045c-3.996,0-8.1-0.279-12.05,0.44
			c-2.685,0.49-5.231,1.379-7.574,2.609c-10.307-7.079-21.228-14.108-33.339-17.622c-4.062-1.179-8.277-1.971-12.517-1.971
			c-8.801,0-18.743,3.466-24.233,16.846c-0.395-0.196-0.789-0.391-1.182-0.589c-10.518-5.319-20.539-11.625-29.863-18.836
			c-14.776-11.423-27.68-24.981-38.194-40.298c-9.635-14.036-17.006-29.199-21.983-45.052c-0.004-0.016-0.007-0.032-0.012-0.047
			c-5.036-16.056-7.59-32.741-7.59-49.591c0-33.961,10.894-67.872,30.483-95.938c25.516,19.884,65.274,32.089,118.848,36.479
			c18.222,1.492,36.581,2.125,54.863,1.82c47.865-0.518,86.977-6.695,116.315-18.39c9.626-3.837,17.476-7.995,23.893-12.279
			c0.055,0.087,0.111,0.174,0.166,0.261c1.986,3.199,3.862,6.45,5.621,9.749c11.671,21.884,18.43,46.376,19.474,71.163
			C442.269,243.458,431.757,279.422,411.328,309.184z M450.219,259.514c0.461-1.794,0.895-3.596,1.301-5.404
			c0.02-0.086,0.038-0.173,0.058-0.259c3.839-16.94,5.094-34.506,3.899-51.826c-0.272-3.94-0.667-7.874-1.196-11.787
			c4.646,0.789,9.085,2.509,13.044,5.07c9.627,6.226,16.014,17.052,16.014,29.345C483.34,243.308,468.64,258.594,450.219,259.514z"
			/>
		<path d="M408.165,193.794c-10.033-7.088-28.835-15.538-61.429-15.538s-51.396,8.45-61.429,15.538
			c-4.521,3.195-7.965,7.593-10.079,12.581c-5.081-2.969-11.687-5.574-19.229-5.574s-14.147,2.606-19.229,5.574
			c-2.114-4.988-5.558-9.386-10.079-12.581c-10.033-7.088-28.835-15.538-61.429-15.538c-32.593,0-51.395,8.45-61.428,15.538
			c-8.495,6.002-13.233,16.231-12.367,26.695c1.091,13.169,4.508,32.36,14.589,48.994c12.828,21.167,33.301,32.355,59.206,32.355
			c0.389,0,0.772-0.011,1.159-0.016c-0.238,1.179-0.34,2.392-0.279,3.615c0.234,4.687,2.626,8.837,6.562,11.389
			c8.688,5.632,22.484,12.346,38.868,12.347c0.001,0,0,0,0.001,0c15.856,0,30.773-6.157,44.425-18.318
			c13.653,12.161,28.569,18.318,44.427,18.318c16.384,0,30.18-6.714,38.868-12.347c3.936-2.551,6.327-6.702,6.562-11.389
			c0.061-1.223-0.041-2.435-0.278-3.615c0.386,0.005,0.77,0.016,1.158,0.016c25.905,0,46.378-11.188,59.206-32.355
			c10.081-16.635,13.498-35.825,14.589-48.994C421.398,210.025,416.66,199.796,408.165,193.794z M273.231,223.354
			c0.324,3.135,0.75,6.238,1.279,9.3c-5.749,1.392-11.883,3.942-18.51,7.688c-6.626-3.746-12.762-6.295-18.51-7.688
			c0.528-3.063,0.955-6.168,1.279-9.303c2.92-2.59,9.52-7.55,17.231-7.55C263.697,215.8,270.295,220.752,273.231,223.354z
			 M118.886,261.709c-9.021-14.885-11.684-32.991-12.468-42.458c-0.43-5.195,1.897-10.255,6.074-13.206
			c8.258-5.834,24.117-12.789,52.772-12.789c28.656,0,44.515,6.955,52.773,12.789c4.177,2.951,6.504,8.011,6.074,13.206
			c-0.351,4.235-0.912,8.419-1.675,12.499c-0.042,0.006-0.083,0.015-0.126,0.022c-5.796,0.852-11.185,3.316-15.736,6.987
			c-10.073,8.126-15.579,20.277-20.984,31.775c-2.605,5.542-5.09,10.827-7.773,15.161c-3.952,0.76-8.161,1.145-12.553,1.145
			C144.596,286.839,128.992,278.384,118.886,261.709z M300.427,314.173c-13.751,0-26.885-6.369-39.036-18.929
			c-2.909-3.008-7.875-3.004-10.781,0c-12.151,12.561-25.285,18.93-39.036,18.929c-12.384,0-23.142-5.123-30.152-9.576
			c7.746-6.4,12.607-16.747,17.748-27.691c5.627-11.984,13.039-31.104,29.127-30.488c0.036,0.001,0.07-0.001,0.106,0
			c6.454,0.276,14.403,3.303,23.656,9.018c2.416,1.492,5.467,1.492,7.883,0c9.256-5.717,17.207-8.743,23.662-9.018
			c0.033-0.001,0.066,0.002,0.099,0.001c15.976-0.573,23.556,18.634,29.126,30.489c5.141,10.942,10.003,21.289,17.749,27.69
			C323.568,309.051,312.811,314.173,300.427,314.173z M405.583,219.251c-0.785,9.467-3.447,27.573-12.468,42.458
			c-10.105,16.675-25.709,25.13-46.378,25.13c-4.391,0-8.601-0.384-12.552-1.145c-2.685-4.334-5.168-9.619-7.773-15.162
			c-3.017-6.418-6.061-12.848-9.878-18.839c-6.158-9.651-15.074-18.195-26.836-19.921c-0.045-0.007-0.087-0.016-0.132-0.023
			c-0.763-4.079-1.323-8.264-1.674-12.5c-0.43-5.195,1.896-10.255,6.073-13.206c8.258-5.834,24.117-12.789,52.773-12.789
			s44.515,6.955,52.773,12.789C403.686,208.996,406.013,214.056,405.583,219.251z"/>
	</g>
</g>
<g>
</g>
<g>
</g>
<g>
</g>
<g>
</g>
<g>
</g>
<g>
</g>
<g>
</g>
<g>
</g>
<g>
</g>
<g>
</g>
<g>
</g>
<g>
</g>
<g>
</g>
<g>
</g>
<g>
</g>
</svg>
