<?xml version="1.0" encoding="iso-8859-1"?>
<!-- Generator: Adobe Illustrator 19.0.0, SVG Export Plug-In . SVG Version: 6.00 Build 0)  -->
<svg version="1.1" id="Layer_1" xmlns="http://www.w3.org/2000/svg" xmlns:xlink="http://www.w3.org/1999/xlink" x="0px" y="0px"
	 viewBox="0 0 529.175 529.175" style="enable-background:new 0 0 529.175 529.175;" xml:space="preserve">
<g>
	<g>
		<path style="fill:#FBC4AC;" d="M139.77,366.828c-2.94,1.69-6.44,3.92-10.32,6.78c-14.7,10.85-34.44,32.82-46.69,67.99
			c-6.82,19.61-11.33,43.32-11.33,71.49h68.34l22.15-60.833L139.77,366.828z"/>
		<path style="fill:#FBC4AC;" d="M389.406,366.828c2.94,1.69,6.44,3.92,10.32,6.78c14.7,10.85,34.44,32.82,46.69,67.99
			c6.82,19.61,11.33,43.32,11.33,71.49h-68.34l-22.15-60.833L389.406,366.828z"/>
		<path style="fill:#E3B098;" d="M143.879,382.674c0,0-4.109-15.846-4.111-15.845c-0.735,0.422-1.504,0.878-2.306,1.37
			c-1.757,1.076-3.484,2.206-5.176,3.381c-0.919,0.638-1.866,1.313-2.835,2.028c-8.269,6.103-18.132,15.725-27.36,29.235
			c-13.665,20.006-22.307,43.144-26.771,66.878c-0.273,1.454-0.534,2.925-0.782,4.412c-1.98,11.9-3.108,24.87-3.108,38.955h25
			c0-28.17,4.51-51.88,11.33-71.49C117.248,414.359,131.227,395.043,143.879,382.674z"/>
		<polygon style="fill:#DC5A64;" points="139.768,453.198 139.768,356.828 389.398,357.648 389.398,453.208 360.429,496.254 
			184.589,496.254 		"/>
		<path style="fill:#BF4E57;" d="M139.768,356.828v10.001l0,0v20.066c5.128-5.528,10.145-9.939,14.682-13.287
			c3.879-2.859,7.378-5.089,10.318-6.779v-9.919L139.768,356.828z"/>
		<ellipse style="fill:#E3B098;" cx="264.588" cy="378.588" rx="79.999" ry="69.667"/>
		<path style="fill:#EFEDEE;" d="M389.398,453.208v59.88h-249.63v-59.89c28.3,20.06,73.67,33.06,124.82,33.06
			C315.728,486.258,361.098,473.258,389.398,453.208z"/>
		<path style="fill:#F2973D;" d="M363.114,43.817c23.967-45.299,99.906-33.413,109.151,23.376
			c4.558,27.999,27.416,40.804,49.42,46.591c0,0-11.89,34.512-56.93,36.714L363.114,43.817z"/>
		<path style="fill:#F2973D;" d="M166.062,43.817C142.095-1.483,66.156,10.404,56.911,67.193
			c-4.558,27.999-27.416,40.804-49.42,46.591c0,0,11.89,34.512,56.93,36.714L166.062,43.817z"/>
		<path style="fill:#FFA74F;" d="M49.385,226.053c0-54.985,22.561-106.605,63.527-145.348
			c40.587-38.385,94.453-59.524,151.677-59.524c57.224,0,111.091,21.139,151.678,59.524c40.965,38.743,63.526,90.362,63.526,145.348
			H49.385z"/>
		<circle style="fill:#E3B098;" cx="455.029" cy="236.109" r="41.992"/>
		<path style="fill:#FBC4AC;" d="M264.588,406.163c105.177,0,190.441-80.638,190.441-180.11c0-0.109,0-0.217,0-0.326
			c-0.039-20.73-7.464-40.763-20.553-56.839c-29.076-35.711-91.785-88.248-169.887-9.909
			c-78.102-78.34-140.812-25.803-169.887,9.909c-13.089,16.076-20.514,36.108-20.553,56.839c0,0.109,0,0.217,0,0.326
			C74.148,325.525,159.411,406.163,264.588,406.163z"/>
		<path style="fill:#E3B098;" d="M104.147,226.053c0-0.109,0-0.217,0-0.326c0.039-20.73,7.464-40.763,20.553-56.839
			c15.64-19.209,41.015-43.275,73.278-49.233c-46.594-8.534-83.065,24.407-103.278,49.233c-6.32,7.762-11.304,16.452-14.789,25.692
			c-1.732-0.303-3.644-0.464-5.764-0.464c-23.192,0-41.992,18.801-41.992,41.992s18.801,41.992,41.992,41.992
			c2.989,0,5.566-0.318,7.8-0.911c23.304,74.561,96.248,128.973,182.64,128.973c5.049,0,10.05-0.19,15-0.554
			C181.423,398.374,104.147,320.75,104.147,226.053z"/>
		<g id="XMLID_870_">
			<path style="fill:#F98084;" d="M181.438,272.105h-25.381c-4.142,0-7.5-3.358-7.5-7.5s3.358-7.5,7.5-7.5h25.381
				c4.142,0,7.5,3.358,7.5,7.5S185.58,272.105,181.438,272.105z"/>
		</g>
		<g id="XMLID_868_">
			<path style="fill:#F98084;" d="M373.12,272.105h-25.381c-4.142,0-7.5-3.358-7.5-7.5s3.358-7.5,7.5-7.5h25.381
				c4.142,0,7.5,3.358,7.5,7.5S377.262,272.105,373.12,272.105z"/>
		</g>
		<circle style="fill:#DC5A64;" cx="77.563" cy="283.584" r="15.88"/>
		<circle style="fill:#DC5A64;" cx="451.613" cy="283.584" r="15.88"/>
	</g>
	<g>
		<path d="M168.746,244.714c4.142,0,7.5-3.358,7.5-7.5v-18.635c0-4.142-3.358-7.5-7.5-7.5c-4.143,0-7.5,3.358-7.5,7.5v18.635
			C161.246,241.356,164.603,244.714,168.746,244.714z"/>
		<path d="M360.428,244.714c4.142,0,7.5-3.358,7.5-7.5v-18.635c0-4.142-3.358-7.5-7.5-7.5s-7.5,3.358-7.5,7.5v18.635
			C352.928,241.356,356.286,244.714,360.428,244.714z"/>
		<path d="M286.664,250.321c-3.119-2.726-7.857-2.408-10.583,0.711c-2.789,3.19-6.979,5.02-11.495,5.02
			c-4.517,0-8.707-1.83-11.496-5.02c-2.726-3.118-7.464-3.437-10.583-0.711c-3.119,2.726-3.437,7.464-0.711,10.583
			c5.637,6.449,13.944,10.148,22.789,10.148c8.845,0,17.151-3.699,22.789-10.148C290.101,257.785,289.783,253.047,286.664,250.321z"
			/>
		<path d="M523.591,106.53c-25.875-6.804-40.653-20.445-43.925-40.542c-2.845-17.479-11.527-32.262-25.106-42.75
			c-12.23-9.447-27.609-14.649-43.303-14.649c-21.216,0-39.791,9.439-51.016,25.57c-29.513-13.398-62.023-20.477-95.654-20.477
			c-33.63,0-66.14,7.078-95.653,20.477c-11.226-16.131-29.8-25.57-51.017-25.57c-15.695,0-31.075,5.202-43.304,14.648
			c-13.579,10.488-22.26,25.271-25.105,42.752c-3.271,20.098-18.05,33.738-43.925,40.542c-4.156,1.093-6.586,5.628-5.184,9.696
			c0.513,1.489,12.235,34.032,53.446,40.684c-4.614,12.876-7.922,26.255-9.884,40.016c-11.731,9.058-19.308,23.248-19.308,39.182
			c0,19.848,11.875,37.55,29.631,45.328c-0.065,0.708-0.103,1.423-0.103,2.147c0,12.892,10.488,23.38,23.38,23.38
			c2.714,0,5.319-0.47,7.745-1.324c10.909,22.072,26.165,41.795,44.975,58.243c-1.759,1.162-3.524,2.391-5.287,3.69
			c-9.874,7.287-34.443,28.847-49.321,71.561c-7.794,22.411-11.746,47.292-11.746,73.953c0,4.142,3.357,7.5,7.5,7.5
			c0,0,386.315,0,386.335,0c4.142,0,7.5-3.358,7.5-7.5c0-0.188-0.007-0.375-0.021-0.56c-0.055-26.449-4.006-51.14-11.746-73.397
			c-14.877-42.711-39.446-64.271-49.323-71.56c-1.761-1.298-3.525-2.527-5.284-3.688c18.811-16.449,34.066-36.172,44.976-58.244
			c2.426,0.854,5.031,1.324,7.745,1.324c12.892,0,23.38-10.488,23.38-23.38c0-0.724-0.038-1.439-0.103-2.147
			c17.757-7.778,29.631-25.48,29.631-45.328c0-15.935-7.577-30.125-19.309-39.184c-1.962-13.761-5.271-27.138-9.885-40.014
			c41.212-6.651,52.935-39.193,53.449-40.684C530.18,112.151,527.751,107.624,523.591,106.53z M18.225,118.346
			c26.38-9.232,42.248-26.366,46.087-49.949c5.012-30.788,31.3-44.81,53.604-44.81c15.348,0,28.824,6.358,37.369,17.325
			c-2.146,1.156-4.268,2.358-6.376,3.584c-0.033,0.019-0.065,0.039-0.099,0.058c-21.069,12.084-39.977,27.901-55.929,46.196
			c-13.791,15.822-24.942,33.224-33.263,51.833C35.699,139.818,23.601,126.692,18.225,118.346z M39.654,236.109
			c0-12.123,6.289-22.802,15.773-28.955c4.272-2.771,9.213-4.584,14.293-5.238c-4.932,18.985-3.499,38.879,0.157,57.95
			c0.097,0.507,0.185,1.016,0.286,1.521c-3.753,1.242-7.118,3.42-9.796,6.348C47.956,262.333,39.654,249.969,39.654,236.109z
			 M69.182,283.584c0-4.476,3.899-8.379,8.379-8.379c4.843,0,8.822,4.424,8.337,9.234c-0.002,0.017-0.006,0.034-0.008,0.051
			c-0.453,4.186-4.125,7.474-8.329,7.474C72.942,291.964,69.182,288.204,69.182,283.584z M268.416,413.64
			c5.951-0.115,11.898-0.48,17.818-1.08c15.517-1.58,30.622-4.861,45.114-9.78c-4.281,8.656-10.844,16.461-19.248,22.731
			c-27.238,20.322-67.792,20.319-95.028,0c-8.4-6.267-14.961-14.069-19.242-22.72c14.551,4.938,29.723,8.223,45.316,9.793
			c0.021,0.002,0.042,0.004,0.063,0.007C251.58,413.466,260.002,413.803,268.416,413.64z M89.841,444.064
			c12.724-36.531,32.833-55.693,42.426-63.18v72.313v52.39H79.04C79.705,483.45,83.33,462.784,89.841,444.064z M381.897,505.587
			h-234.63l0-38.795c1.101,0.621,15.437,7.77,21.696,10.233c3.855,1.515,8.209-0.382,9.724-4.237
			c1.515-3.855-0.382-8.208-4.237-9.724c-9.447-3.713-18.631-8.205-27.122-13.786c-0.021-0.013-0.04-0.028-0.06-0.041l0.001-72.068
			c0.769,0.536,1.544,1.065,2.322,1.592c9.433,6.41,19.329,11.968,29.608,16.648c8.82,35.202,44.013,60.345,85.387,60.345
			c41.378,0,76.574-25.147,85.39-60.354c10.199-4.643,20.021-10.146,29.386-16.49c0.849-0.574,1.695-1.151,2.534-1.736v72.065
			c-0.409,0.269-0.825,0.534-1.24,0.8c-17.947,11.497-38.604,18.523-59.358,22.894c-18.624,3.923-37.684,5.823-56.712,5.823
			c-21.33,0-41.932-2.283-61.231-6.787c-4.035-0.941-8.067,1.565-9.008,5.6c-0.941,4.034,1.566,8.067,5.6,9.008
			c20.416,4.764,42.164,7.179,64.64,7.179c22.497,0,45.084-2.37,66.964-7.676c17.376-4.214,34.472-10.328,50.08-19.116
			c0.088-0.05,0.179-0.097,0.267-0.147V505.587z M439.331,444.061c6.511,18.723,10.137,39.39,10.802,61.527h-53.226l-0.002-124.705
			C406.501,388.373,426.609,407.535,439.331,444.061z M377.92,361.554c-0.029,0.021-0.061,0.035-0.089,0.056
			c-32.461,24.268-72.797,37.053-113.245,37.053c-40.705,0-81.506-13.181-114.038-37.652
			c-23.035-17.328-41.247-39.511-53.214-64.943c0.072-0.114,0.134-0.233,0.204-0.348c0.025-0.042,0.049-0.085,0.075-0.127
			c2.153-3.56,3.329-7.802,3.329-12.009c0-8.819-5.159-17.102-13.074-20.979c-0.755-0.37-1.521-0.713-2.313-0.998
			c-0.046-0.208-0.098-0.414-0.143-0.622c-2.504-11.457-3.766-23.206-3.766-34.932l0.001-0.311c0-18.761,6.991-37.529,18.869-52.118
			c32.207-39.558,62.611-47.861,82.446-47.861c25.161,0,50.837,12.957,76.314,38.512c2.889,2.898,7.736,2.894,10.623,0
			c25.477-25.555,51.153-38.512,76.314-38.512c33.743,0,62.165,22.951,82.446,47.861c16.352,20.084,20.698,46.089,17.757,71.405
			c-0.649,5.569-1.58,11.103-2.795,16.576c-0.138,0.05-0.269,0.112-0.405,0.164c-8.41,3.22-14.432,11.529-14.946,20.508
			c-0.275,4.803,0.99,9.724,3.571,13.79C419.749,321.761,401.293,344.149,377.92,361.554z M451.611,291.964
			c-4.518,0-8.383-3.838-8.38-8.386c0.004-4.539,3.84-8.374,8.38-8.374c4.523,0,8.38,3.864,8.38,8.379
			C459.991,288.204,456.232,291.964,451.611,291.964z M468.806,267.736c-2.677-2.928-6.043-5.107-9.796-6.348
			c0.102-0.506,0.189-1.015,0.286-1.521c1.502-7.814,2.482-15.724,2.932-23.668c0.653-11.523,0.138-23.072-2.776-34.282
			c1.003,0.128,2.001,0.288,2.989,0.505c15.611,3.431,27.078,17.714,27.078,33.688C489.52,249.969,481.217,262.333,468.806,267.736z
			 M467.26,188.144c-4.228-1.075-8.743-1.609-13.158-1.519c-0.097-0.219-0.204-0.433-0.302-0.651
			c-3.539-7.813-8.094-15.171-13.509-21.821c-24.846-30.516-60.475-56.634-101.802-53.055c-26.08,2.258-49.547,15.916-68.883,32.877
			c-1.676,1.47-3.349,2.988-5.019,4.555c-26.723-25.066-54.156-37.767-81.625-37.767c-23.087,0-58.15,9.263-94.078,53.39
			c-5.118,6.287-9.511,13.286-12.97,20.66c-0.283,0.603-0.571,1.205-0.842,1.813c-0.102,0.203-2.167,0.01-2.373,0.015
			c-4.084,0.111-8.16,0.735-12.089,1.853c2.373-11.844,5.86-23.344,10.403-34.416c0.129-0.234,0.249-0.474,0.352-0.721
			c18.608-44.711,54.498-81.38,97.797-102.707c29.142-14.354,61.673-21.971,95.425-21.971c33.735,0,66.249,7.609,95.379,21.948
			c31.446,15.478,59.093,39.01,78.933,67.943c14.408,21.011,24.66,44.933,29.667,69.924
			C468.132,188.373,467.697,188.255,467.26,188.144z M469.556,142.582c-8.325-18.616-19.482-36.026-33.282-51.854
			c-17.577-20.159-38.836-37.133-62.386-49.816c8.546-10.967,22.021-17.325,37.369-17.325c22.304,0,48.593,14.022,53.604,44.81
			c3.838,23.575,19.695,40.704,46.059,49.939C505.516,126.669,493.372,139.811,469.556,142.582z"/>
	</g>
</g>
<g>
</g>
<g>
</g>
<g>
</g>
<g>
</g>
<g>
</g>
<g>
</g>
<g>
</g>
<g>
</g>
<g>
</g>
<g>
</g>
<g>
</g>
<g>
</g>
<g>
</g>
<g>
</g>
<g>
</g>
</svg>
