<?xml version="1.0" encoding="iso-8859-1"?>
<!-- Generator: Adobe Illustrator 19.0.0, SVG Export Plug-In . SVG Version: 6.00 Build 0)  -->
<svg version="1.1" id="Layer_1" xmlns="http://www.w3.org/2000/svg" xmlns:xlink="http://www.w3.org/1999/xlink" x="0px" y="0px"
	 viewBox="0 0 512 512" style="enable-background:new 0 0 512 512;" xml:space="preserve">
<g>
	<g>
		<path style="fill:#FFA74F;" d="M478.904,154.586l-0.128-0.41l-203.883-30.91L71.01,154.176
			c-5.715,18.447-8.685,37.784-8.685,57.567c0,54.312,22.285,105.298,62.748,143.566c40.09,37.915,93.297,58.796,149.82,58.796
			s109.73-20.881,149.82-58.796c40.464-38.268,62.748-89.255,62.748-143.566C487.461,192.106,484.54,172.907,478.904,154.586z"/>
		<path style="fill:#DC5A64;" d="M35.493,139.189c15.15,11.483,34.469,13.586,51.016,7.289c1.591-17.633-5.655-35.665-20.805-47.148
			c-15.149-11.483-34.469-13.586-51.016-7.289C13.097,109.674,20.343,127.706,35.493,139.189z"/>
		<path style="fill:#BF4E57;" d="M59.034,190.077c16.666-9.144,26.47-25.923,27.475-43.599c-15.448-8.649-34.868-9.393-51.534-0.249
			C18.31,155.373,8.505,172.152,7.5,189.828C22.949,198.477,42.368,199.221,59.034,190.077z"/>
		<path style="fill:#FFA74F;" d="M73.112,241.074v175.069c0,13.394,10.858,24.252,24.252,24.252h355.061
			c13.394,0,24.252-10.858,24.252-24.252V241.074H73.112z"/>
		<path style="fill:#F2973D;" d="M113.112,416.143V241.074h-40v175.069c0,13.394,10.858,24.252,24.252,24.252h40
			C123.969,440.395,113.112,429.537,113.112,416.143z"/>
		<path style="fill:#F2973D;" d="M112.325,211.743c0-19.783,2.97-39.12,8.685-57.567l178.883-27.12l-25-3.79L71.01,154.176
			c-5.715,18.447-8.685,37.784-8.685,57.567H112.325z"/>
		<circle style="fill:#E3B098;" cx="463.019" cy="241.246" r="41.482"/>
		<path style="fill:#FBC4AC;" d="M147.106,382.693C72.643,428.196,71.01,502.62,71.01,502.62h76.096l25.637-46.93L147.106,382.693z"
			/>
		<path style="fill:#FBC4AC;" d="M478.777,502.62c0,0-1.633-74.424-76.096-119.927v0l0,0l-25.637,72.996l25.637,46.93l0,0v0H478.777
			z"/>
		<path style="fill:#E3B098;" d="M153.258,400.212l-6.153-17.519c-3.49,2.133-6.821,4.33-9.999,6.579
			c-13.354,9.454-25.34,20.843-35.258,33.866c-11.716,15.386-20.523,32.983-25.849,51.574c-2.525,8.813-4.786,18.544-4.991,27.908
			h30C101.01,502.62,102.283,445.044,153.258,400.212z"/>
		<path style="fill:#3A484A;" d="M402.681,382.693V502.62H147.106V382.693c10.031-6.13,21.383-11.733,34.23-16.563h187.116
			C381.298,370.96,392.65,376.563,402.681,382.693z"/>
		<path style="fill:#313D40;" d="M177.106,382.693c10.031-6.13,21.383-11.733,34.23-16.563h-30c-3.212,1.208-6.33,2.463-9.358,3.763
			c-1.514,0.65-3.005,1.311-4.474,1.983c-7.344,3.359-14.129,6.984-20.399,10.816v23.211
			C155.49,397.72,165.396,389.849,177.106,382.693z"/>
		<circle style="fill:#E3B098;" cx="274.893" cy="389.662" r="74.606"/>
		<ellipse style="fill:#FBC4AC;" cx="274.893" cy="211.743" rx="188.125" ry="177.92"/>
		<path style="fill:#E3B098;" d="M112.325,211.743c0-19.783,2.97-39.12,8.685-57.567l178.883-27.12l-25-3.79L98.402,150.023
			c-6.127,15.664-9.991,32.366-11.213,49.751c-0.141-0.001-0.28-0.01-0.421-0.01c-22.91,0-41.482,18.572-41.482,41.482
			s18.572,41.482,41.482,41.482c5.07,0,9.925-0.915,14.416-2.58c18.437,41.825,53.265,75.57,96.901,94.052
			c-8.061-5.724-15.753-12.025-23.012-18.89C134.61,317.041,112.325,266.054,112.325,211.743z"/>
		<path style="fill:#DC5A64;" d="M125.073,68.176c-25.725,24.329-44.088,53.804-54.063,86h407.766
			c-9.974-32.197-28.338-61.671-54.063-86C384.623,30.261,331.417,9.38,274.893,9.38S165.163,30.261,125.073,68.176z"/>
		<path style="fill:#BF4E57;" d="M175.073,68.176c34.119-32.268,77.741-52.188,124.82-57.408c-8.239-0.914-16.581-1.387-25-1.387
			c-56.523,0-109.73,20.881-149.82,58.796c-25.725,24.329-44.088,53.803-54.063,86h50
			C130.985,121.979,149.348,92.505,175.073,68.176z"/>
		<path style="fill:#FFA74F;" d="M188.305,193.792H174.36c-6.618,0-11.983,5.365-11.983,11.983c0,6.618,5.365,11.983,11.983,11.983
			h13.945c6.618,0,11.983-5.365,11.983-11.983C200.287,199.156,194.922,193.792,188.305,193.792z"/>
		<path style="fill:#FFA74F;" d="M361.482,193.792h13.945c6.618,0,11.983,5.365,11.983,11.983c0,6.618-5.365,11.983-11.983,11.983
			h-13.945c-6.618,0-11.983-5.365-11.983-11.983C349.499,199.156,354.864,193.792,361.482,193.792z"/>
		<path style="fill:#FFA74F;" d="M274.893,274.812c3.585,57.359,84.546,85.934,86.35,63.226s-26.057-28.028-27.361-67.788
			c-1.141-29.087-25.736-44.58-49.115-35.004c-6.351,2.602-13.395,2.602-19.746,0c-23.38-9.576-47.975,5.917-49.116,35.004
			c-1.304,39.761-29.164,45.08-27.361,67.788C190.347,360.746,271.308,332.171,274.893,274.812z"/>
		<g id="XMLID_864_">
			<path style="fill:#F98084;" d="M172.742,272.608h-18.419c-4.142,0-7.5-3.358-7.5-7.5s3.358-7.5,7.5-7.5h18.419
				c4.142,0,7.5,3.358,7.5,7.5S176.884,272.608,172.742,272.608z"/>
		</g>
		<g id="XMLID_863_">
			<path style="fill:#F98084;" d="M395.464,272.608h-18.419c-4.142,0-7.5-3.358-7.5-7.5s3.358-7.5,7.5-7.5h18.419
				c4.142,0,7.5,3.358,7.5,7.5S399.606,272.608,395.464,272.608z"/>
		</g>
	</g>
	<g>
		<path d="M173.831,225.23v10.719c0,4.142,3.358,7.5,7.5,7.5s7.5-3.358,7.5-7.5V225.23c10.497-0.283,18.955-8.891,18.955-19.456
			c0-10.743-8.74-19.482-19.483-19.482h-13.944c-10.743,0-19.483,8.74-19.483,19.482
			C154.876,216.339,163.334,224.946,173.831,225.23z M174.359,201.292h13.944c2.472,0,4.483,2.011,4.483,4.482
			s-2.011,4.482-4.483,4.482h-13.944c-2.472,0-4.483-2.011-4.483-4.482S171.888,201.292,174.359,201.292z"/>
		<path d="M360.954,225.23v10.719c0,4.142,3.358,7.5,7.5,7.5s7.5-3.358,7.5-7.5V225.23c10.498-0.283,18.955-8.891,18.955-19.456
			c0-10.743-8.74-19.482-19.482-19.482h-13.945c-10.743,0-19.483,8.74-19.483,19.482
			C341.998,216.339,350.456,224.946,360.954,225.23z M361.481,201.292h13.945c2.472,0,4.482,2.011,4.482,4.482
			s-2.011,4.482-4.482,4.482h-13.945c-2.472,0-4.483-2.011-4.483-4.482S359.01,201.292,361.481,201.292z"/>
		<path d="M181.066,338.631c0.565,7.112,6.032,14.711,19.681,14.711c0.001,0-0.001,0,0.001,0c21.451,0,58.289-18.627,74.145-50.469
			c15.857,31.844,52.695,50.469,74.146,50.469c13.649,0,19.116-7.599,19.681-14.711c1.037-13.05-5.545-21.602-11.911-29.873
			c-7.271-9.448-14.79-19.217-15.433-38.803c-1.023-26.098-18.948-45.039-42.622-45.039c-5.678,0-11.34,1.14-16.83,3.389
			c-4.509,1.847-9.552,1.847-14.061,0c-5.49-2.249-11.153-3.389-16.831-3.389c-23.674,0-41.599,18.942-42.625,45.088
			c-0.641,19.538-8.159,29.307-15.431,38.755C186.612,317.029,180.03,325.581,181.066,338.631z M204.864,317.907
			c7.902-10.268,17.736-23.046,18.534-47.364c0.707-18.033,12.071-30.627,27.634-30.627c3.718,0,7.468,0.764,11.145,2.27
			c8.134,3.332,17.296,3.333,25.432,0c3.677-1.506,7.426-2.27,11.145-2.27c15.563,0,26.927,12.594,27.632,30.579
			c0.799,24.366,10.634,37.145,18.536,47.413c6.193,8.046,9.398,12.569,8.845,19.536c-0.001,0.022-0.004,0.043-0.006,0.061
			c-0.424,0.279-1.859,0.838-4.722,0.838c-19.14,0-64.171-24.179-66.66-63.999c-0.247-3.953-3.525-7.032-7.485-7.032
			s-7.238,3.08-7.485,7.032c-2.489,39.821-47.521,63.999-66.66,63.999c-2.863,0-4.298-0.56-4.722-0.839
			c-0.002-0.018-0.004-0.038-0.006-0.06C195.466,330.476,198.671,325.953,204.864,317.907z"/>
		<path d="M494.808,204.027c-0.664-17.58-3.597-34.939-8.746-51.677c0,0-0.128-0.41-0.13-0.415
			c-10.378-33.487-29.765-64.334-56.066-89.208c-5.531-5.232-11.471-10.28-17.655-15.004c-3.292-2.514-7.999-1.885-10.513,1.407
			c-2.515,3.292-1.885,7.999,1.407,10.513c5.768,4.406,11.304,9.11,16.455,13.982c21.864,20.678,38.575,45.767,48.738,73.051
			l-386.804,0c1.92-5.148,4.061-10.209,6.425-15.169c10.211-21.41,24.561-41.099,42.306-57.882
			c38.691-36.593,90.068-56.745,144.667-56.745c36.5,0,72.258,9.167,103.41,26.508c3.62,2.015,8.187,0.713,10.201-2.905
			c2.015-3.619,0.714-8.186-2.905-10.201C352.221,11.701,313.939,1.88,274.892,1.88c-58.449,0-113.486,21.609-154.974,60.847
			c-14.17,13.401-26.311,28.548-36.14,44.896c-3.681-5.428-8.241-10.25-13.546-14.271C59.615,85.304,46.975,81.05,33.681,81.05
			c-7.432,0-14.72,1.339-21.661,3.981c-2.681,1.021-4.544,3.479-4.802,6.336c-1.749,19.381,5.696,38.013,20.049,50.756
			c-16.062,10.508-26.151,27.851-27.254,47.28c-0.163,2.863,1.322,5.568,3.824,6.969c9.065,5.075,19.341,7.758,29.717,7.758
			c7.374,0,14.716-1.381,21.609-4.021c-0.075,1.306-0.139,2.613-0.189,3.922c-10.508,8.991-17.187,22.333-17.187,37.214
			c0,19.436,11.38,36.264,27.826,44.172v130.725c0,11.107,5.838,21.178,14.907,26.879c-2.519,4.896-4.613,9.572-6.349,13.913
			c-10.1,25.253-10.641,44.687-10.659,45.519c-0.091,4.18,3.336,7.666,7.498,7.666c0,0,407.753,0,407.768,0
			c4.146,0,7.589-3.523,7.498-7.665c-0.018-0.815-0.554-20.255-10.659-45.521c-1.736-4.34-3.829-9.016-6.348-13.912
			c9.069-5.701,14.907-15.773,14.907-26.88V285.417C500.62,277.508,512,260.681,512,241.245
			C512,226.362,505.319,213.018,494.808,204.027z M473.164,161.676c3.021,10.88,5.045,22.033,6.051,33.327
			c-2.149-0.754-4.37-1.346-6.603-1.79c-0.257-0.051-3.105-0.416-3.117-0.526c-0.848-7.869-2.228-15.658-4.124-23.336
			c-0.635-2.573-1.329-5.133-2.077-7.675H473.164z M447.586,161.676c0.028,0.087,0.061,0.172,0.089,0.259
			c0.026,0.081,0.05,0.161,0.076,0.242c6.038,18.739,8.587,38.631,7.533,58.289c-0.006,0.103-0.014,0.206-0.02,0.309
			c-3.983,71.612-55.042,131.644-124.452,153.017c-18.085,5.569-36.998,8.37-55.919,8.37c-18.919,0-37.835-2.802-55.919-8.37
			c-69.41-21.374-120.469-81.405-124.452-153.018c-0.006-0.103-0.014-0.206-0.02-0.309c-1.072-19.718,1.529-39.92,7.698-58.789
			H447.586z M207.889,386.002c16.632,5.754,33.917,9.292,51.624,10.589c10.237,0.75,20.523,0.764,30.759,0
			c17.708-1.298,34.992-4.835,51.624-10.589c0.068,1.224,0.103,2.445,0.103,3.661c0,37.002-30.104,67.106-67.106,67.106
			s-67.106-30.104-67.106-67.106C207.786,388.447,207.82,387.226,207.889,386.002z M21.972,97.566
			c3.812-1.007,7.732-1.516,11.708-1.516c9.996,0,19.503,3.201,27.492,9.256c6.177,4.682,11.016,10.8,14.127,17.825
			c-0.545,1.116-3.479,7.489-4.365,9.572c-0.052,0.122-0.109,0.241-0.16,0.363c-0.129-0.022-0.26-0.037-0.389-0.059
			c-9.205-1.531-18.778-0.908-27.692,1.863c-0.075,0.023-0.152,0.043-0.227,0.067c-0.839-0.552-1.655-1.129-2.443-1.726
			C28.708,124.636,22.169,111.57,21.972,97.566z M56.917,182.644c-7.019,4.213-15.178,6.486-23.365,6.486
			c-6.198,0-12.35-1.272-18.038-3.706c2.243-13.824,10.622-25.792,23.068-32.621c8.064-4.424,17.575-6.336,26.723-5.362
			c-0.905,2.685-1.748,5.39-2.536,8.111c-2.469,8.537-4.332,17.214-5.683,25.996C57.032,181.914,56.97,182.279,56.917,182.644z
			 M70.57,195.003c0.284-3.185,0.642-6.368,1.105-9.532c1.134-8.029,2.794-15.981,4.958-23.795h9.856
			c-0.029,0.098-0.055,0.197-0.083,0.294c-2.914,9.988-4.997,20.326-6.117,30.717C77.585,193.041,71.058,194.832,70.57,195.003z
			 M52.785,241.245c0-11.383,5.629-21.47,14.24-27.64c3.59-2.572,7.695-4.447,11.998-5.449c0.094-0.022,0.189-0.035,0.283-0.056
			c-0.158,7.517,0.173,15.043,0.968,22.52c0.003,0.026,0.005,0.053,0.008,0.079c1.618,15.146,5.175,29.953,10.656,44.26
			c-0.205,0.025-0.409,0.051-0.614,0.072c-4.801,0.491-9.703-0.019-14.285-1.548C62.544,268.979,52.785,256.235,52.785,241.245z
			 M82.198,290.007c3.638,0.345,7.31,0.276,10.935-0.193c0.475-0.061,3.91-0.78,3.959-0.679
			c14.8,30.471,38.362,56.838,67.578,75.795c-0.072,0.033-0.142,0.068-0.214,0.102c-12.606,5.763-24.658,12.778-35.748,21.102
			c-16.402,12.315-30.064,26.997-40.758,43.864c-4.487-3.058-7.338-8.208-7.338-13.855c0,0,0-126.295,0-126.302
			C80.656,289.961,82.034,289.991,82.198,290.007z M88.332,461.919c10.336-25.531,27.759-47.67,49.809-64.118
			c0.485-0.362,0.974-0.717,1.463-1.073v98.392H79.273C80.31,487.765,82.728,475.762,88.332,461.919z M154.604,386.958
			c1.128-0.653,2.272-1.295,3.425-1.929c7.362-4.048,14.999-7.583,22.813-10.664c4.093,2.13,8.271,4.098,12.507,5.938
			c-0.36,3.126-0.564,6.255-0.564,9.358c0,45.273,36.833,82.106,82.106,82.106s82.106-36.833,82.106-82.106
			c0-3.103-0.204-6.232-0.564-9.358c4.237-1.84,8.415-3.809,12.508-5.939c9.034,3.56,17.831,7.727,26.238,12.593V495.12H154.604
			V386.958z M410.181,495.12v-98.392c0.253,0.185,1.229,0.899,1.463,1.073c31.118,23.184,53.424,58.706,58.869,97.319H410.181z
			 M469.175,289.841v126.302c0,5.647-2.852,10.797-7.339,13.855c-10.693-16.866-24.354-31.547-40.754-43.862
			c-11.111-8.342-23.187-15.346-35.81-21.133c-0.053-0.024-0.104-0.05-0.156-0.074c29.222-18.958,52.776-45.319,67.578-75.795
			C458.092,290.298,463.695,290.533,469.175,289.841z M473.733,273.487c-2.616,0.872-5.343,1.419-8.092,1.63
			c-0.031,0.002-0.061,0.005-0.092,0.007c-2.183,0.156-4.486,0.105-6.703-0.165c5.48-14.303,9.037-29.107,10.655-44.248
			c0.004-0.039,0.008-0.077,0.012-0.116c0.712-6.247,1.004-12.566,1.004-18.852c0-1.206-0.013-2.42-0.039-3.641
			c0.086,0.019,0.173,0.032,0.258,0.052c4.293,0.994,8.357,2.847,11.945,5.4c8.658,6.165,14.318,16.277,14.318,27.692
			C497,256.239,487.235,268.987,473.733,273.487z"/>
	</g>
</g>
<g>
</g>
<g>
</g>
<g>
</g>
<g>
</g>
<g>
</g>
<g>
</g>
<g>
</g>
<g>
</g>
<g>
</g>
<g>
</g>
<g>
</g>
<g>
</g>
<g>
</g>
<g>
</g>
<g>
</g>
</svg>
