<?xml version="1.0" encoding="iso-8859-1"?>
<!-- Generator: Adobe Illustrator 19.0.0, SVG Export Plug-In . SVG Version: 6.00 Build 0)  -->
<svg version="1.1" id="Layer_1" xmlns="http://www.w3.org/2000/svg" xmlns:xlink="http://www.w3.org/1999/xlink" x="0px" y="0px"
	 viewBox="0 0 512 512" style="enable-background:new 0 0 512 512;" xml:space="preserve">
<g>
	<circle style="fill:#273B7A;" cx="256" cy="256" r="256"/>
	<circle style="fill:#273B7A;" cx="256" cy="256" r="256"/>
</g>
<path style="fill:#121149;" d="M173.221,92.653l-53.181,35.088l144.932,144.991l-122.751,68.611l165.442,165.442
	C424.283,482.885,512,379.687,512,256c0-10.23-0.619-20.313-1.786-30.229L398.222,113.778l-75.1-22.306L210.606,82.46
	L173.221,92.653z"/>
<circle style="fill:#FFC61B;" cx="256" cy="256" r="142.222"/>
<path style="fill:#EAA22F;" d="M398.222,256c0-78.546-63.674-142.222-142.222-142.222v284.444
	C334.546,398.222,398.222,334.546,398.222,256z"/>
<path style="fill:#C92F00;" d="M255.998,311.824c-12.972,0-24.545-8.22-28.143-19.989c-1.114-3.641,0.936-7.497,4.579-8.609
	c3.646-1.117,7.497,0.938,8.609,4.579c1.839,6.022,7.99,10.228,14.955,10.228s13.114-4.205,14.955-10.228
	c1.112-3.641,4.96-5.699,8.609-4.579c3.641,1.114,5.692,4.967,4.579,8.609C280.547,303.602,268.972,311.824,255.998,311.824z"/>
<path style="fill:#930000;" d="M279.562,283.226c-3.65-1.119-7.499,0.938-8.609,4.579c-1.839,6.022-7.99,10.228-14.955,10.228
	c-0.048,0-0.095-0.005-0.141-0.005v13.791c0.048,0,0.095,0.005,0.141,0.005c12.974,0,24.548-8.221,28.143-19.989
	C285.255,288.192,283.203,284.338,279.562,283.226z"/>
<g>
	<path style="fill:#272525;" d="M196.525,263.758c-17.11,0-31.03-13.921-31.03-31.03c0-4.284,3.474-7.758,7.758-7.758
		s7.758,3.474,7.758,7.758c0,8.556,6.959,15.515,15.515,15.515s15.515-6.959,15.515-15.515c0-4.284,3.474-7.758,7.758-7.758
		s7.758,3.474,7.758,7.758C227.556,249.837,213.635,263.758,196.525,263.758z"/>
	<path style="fill:#272525;" d="M315.475,263.758c-17.11,0-31.03-13.921-31.03-31.03c0-4.284,3.474-7.758,7.758-7.758
		s7.758,3.474,7.758,7.758c0,8.556,6.959,15.515,15.515,15.515c8.556,0,15.515-6.959,15.515-15.515c0-4.284,3.474-7.758,7.758-7.758
		s7.758,3.474,7.758,7.758C346.505,249.837,332.585,263.758,315.475,263.758z"/>
</g>
<path style="fill:#38C6D9;" d="M256,151.876c-35.537,0-69.063-2.791-94.399-7.859c-33.073-6.615-47.823-15.939-47.823-30.239
	s14.75-23.624,47.823-30.239c25.336-5.067,58.863-7.859,94.399-7.859s69.063,2.791,94.399,7.859
	c33.073,6.615,47.823,15.939,47.823,30.239s-14.75,23.624-47.823,30.239C325.063,149.083,291.537,151.876,256,151.876z
	 M142.77,113.778c14.565,6.054,53.398,13.964,113.23,13.964s98.663-7.909,113.23-13.964c-14.565-6.054-53.398-13.964-113.23-13.964
	S157.337,107.723,142.77,113.778z"/>
<path style="fill:#02B2B2;" d="M350.399,83.539c-25.336-5.067-58.863-7.859-94.399-7.859c-0.191,0-0.383,0.002-0.574,0.003v24.135
	c0.193,0,0.381-0.002,0.574-0.002c59.832,0,98.663,7.909,113.23,13.964c-14.565,6.054-53.398,13.964-113.23,13.964
	c-0.193,0-0.381-0.002-0.574-0.002v24.135c0.191,0,0.383,0.003,0.574,0.003c35.537,0,69.063-2.791,94.399-7.859
	c33.073-6.618,47.823-15.943,47.823-30.242S383.472,90.153,350.399,83.539z"/>
<g>
</g>
<g>
</g>
<g>
</g>
<g>
</g>
<g>
</g>
<g>
</g>
<g>
</g>
<g>
</g>
<g>
</g>
<g>
</g>
<g>
</g>
<g>
</g>
<g>
</g>
<g>
</g>
<g>
</g>
</svg>
