<?xml version="1.0" encoding="iso-8859-1"?>
<!-- Generator: Adobe Illustrator 19.0.0, SVG Export Plug-In . SVG Version: 6.00 Build 0)  -->
<svg version="1.1" id="Layer_1" xmlns="http://www.w3.org/2000/svg" xmlns:xlink="http://www.w3.org/1999/xlink" x="0px" y="0px"
	 viewBox="0 0 512 512" style="enable-background:new 0 0 512 512;" xml:space="preserve">
<circle style="fill:#273B7A;" cx="256" cy="256" r="256"/>
<path style="fill:#121149;" d="M154.721,355.837L305.99,507.106c101.283-20.051,181.067-99.837,201.118-201.119L357.136,156.015
	L154.721,355.837z"/>
<circle style="fill:#E09112;" cx="256" cy="256" r="142.222"/>
<path style="fill:#FF5419;" d="M398.222,256c0-78.546-63.674-142.222-142.222-142.222v284.444
	C334.548,398.222,398.222,334.546,398.222,256z"/>
<circle style="fill:#FFEDB5;" cx="199.111" cy="233.589" r="28.444"/>
<circle style="fill:#272525;" cx="199.111" cy="233.589" r="14.222"/>
<circle style="fill:#FFEDB5;" cx="312.889" cy="233.589" r="28.444"/>
<circle style="fill:#272525;" cx="312.889" cy="233.589" r="14.222"/>
<path style="fill:#C92F00;" d="M317.199,300.666c-1.733,0-3.465-0.648-4.805-1.95c-3.153-3.062-17.655-7.377-40.017-7.377
	c-22.363,0-36.864,4.315-40.017,7.377c-2.732,2.653-7.097,2.591-9.75-0.141c-2.653-2.732-2.589-7.097,0.141-9.75
	c8.561-8.314,31.249-11.276,49.626-11.276s41.065,2.962,49.626,11.276c2.731,2.653,2.794,7.018,0.141,9.75
	C320.793,299.968,318.997,300.666,317.199,300.666z"/>
<path style="fill:#930000;" d="M322.005,288.825c-8.561-8.314-31.249-11.276-49.628-11.276c-5.16,0-10.657,0.245-16.089,0.764
	v13.845c4.77-0.505,10.142-0.817,16.089-0.817c22.362,0,36.864,4.315,40.017,7.377c1.339,1.302,3.072,1.95,4.805,1.95
	c1.798,0,3.594-0.698,4.946-2.091C324.799,295.843,324.736,291.478,322.005,288.825z"/>
<g>
	<path style="fill:#272525;" d="M226.69,216.514c-0.898,0-1.812-0.178-2.691-0.55l-41.374-17.563
		c-3.506-1.488-5.141-5.535-3.653-9.04c1.488-3.506,5.539-5.141,9.04-3.653l41.374,17.563c3.506,1.488,5.141,5.535,3.653,9.04
		C231.927,214.937,229.374,216.514,226.69,216.514z"/>
	<path style="fill:#272525;" d="M285.308,216.514c-2.686,0-5.236-1.576-6.351-4.203c-1.488-3.505,0.147-7.552,3.653-9.04
		l41.374-17.563c3.503-1.488,7.554,0.147,9.04,3.653c1.488,3.505-0.147,7.552-3.653,9.04l-41.374,17.563
		C287.12,216.336,286.208,216.514,285.308,216.514z"/>
</g>
<g>
</g>
<g>
</g>
<g>
</g>
<g>
</g>
<g>
</g>
<g>
</g>
<g>
</g>
<g>
</g>
<g>
</g>
<g>
</g>
<g>
</g>
<g>
</g>
<g>
</g>
<g>
</g>
<g>
</g>
</svg>
