<?xml version="1.0" encoding="iso-8859-1"?>
<!-- Generator: Adobe Illustrator 19.0.0, SVG Export Plug-In . SVG Version: 6.00 Build 0)  -->
<svg version="1.1" id="Layer_1" xmlns="http://www.w3.org/2000/svg" xmlns:xlink="http://www.w3.org/1999/xlink" x="0px" y="0px"
	 viewBox="0 0 512 512" style="enable-background:new 0 0 512 512;" xml:space="preserve">
<circle style="fill:#273B7A;" cx="256" cy="256" r="256"/>
<path style="fill:#121149;" d="M349.898,136.092l97.702,96.544l-14.4,13.302l-46.825-46.826l-49.173,91.253l-10.092,6.587
	l-172.527,58.747l151.407,151.407C423.441,483.854,512,380.275,512,256c0-27.567-4.375-54.107-12.438-78.988l-95.049-93.381
	L349.898,136.092z"/>
<circle style="fill:#FFC61B;" cx="256" cy="256" r="142.222"/>
<path style="fill:#EAA22F;" d="M398.222,256c0-78.546-63.674-142.222-142.222-142.222v284.444
	C334.546,398.222,398.222,334.546,398.222,256z"/>
<g>
	<path style="fill:#272525;" d="M196.525,263.758c-17.11,0-31.03-13.921-31.03-31.03c0-4.284,3.474-7.758,7.758-7.758
		s7.758,3.474,7.758,7.758c0,8.556,6.959,15.515,15.515,15.515s15.515-6.959,15.515-15.515c0-4.284,3.474-7.758,7.758-7.758
		s7.758,3.474,7.758,7.758C227.557,249.837,213.635,263.758,196.525,263.758z"/>
	<path style="fill:#272525;" d="M315.475,263.758c-17.11,0-31.03-13.921-31.03-31.03c0-4.284,3.474-7.758,7.758-7.758
		s7.758,3.474,7.758,7.758c0,8.556,6.959,15.515,15.515,15.515c8.556,0,15.515-6.959,15.515-15.515c0-4.284,3.474-7.758,7.758-7.758
		s7.758,3.474,7.758,7.758C346.505,249.837,332.583,263.758,315.475,263.758z"/>
</g>
<ellipse style="fill:#C92F00;" cx="256" cy="305.993" rx="15.515" ry="24.204"/>
<path style="fill:#930000;" d="M256,281.79c8.57,0,15.515,10.836,15.515,24.204S264.57,330.197,256,330.197V281.79z"/>
<g>
	<path style="fill:#FFFFFF;" d="M398.222,138.559h-42.667c-3.138,0-5.966-1.891-7.166-4.789s-0.538-6.234,1.683-8.452l29.422-29.424
		h-23.938c-4.284,0-7.758-3.474-7.758-7.758c0-4.284,3.474-7.758,7.758-7.758h42.667c3.138,0,5.966,1.891,7.166,4.789
		c1.2,2.898,0.538,6.234-1.683,8.452l-29.422,29.424h23.938c4.284,0,7.758,3.474,7.758,7.758S402.506,138.559,398.222,138.559z"/>
	<path style="fill:#FFFFFF;" d="M444.768,263.758h-29.306c-3.138,0-5.966-1.891-7.166-4.789c-1.2-2.898-0.538-6.234,1.683-8.452
		l16.062-16.063h-10.578c-4.284,0-7.758-3.474-7.758-7.758s3.474-7.758,7.758-7.758h29.306c3.138,0,5.966,1.891,7.166,4.789
		c1.2,2.898,0.538,6.234-1.683,8.452l-16.062,16.063h10.578c4.284,0,7.758,3.474,7.758,7.758
		C452.525,260.284,449.052,263.758,444.768,263.758z"/>
</g>
<g>
</g>
<g>
</g>
<g>
</g>
<g>
</g>
<g>
</g>
<g>
</g>
<g>
</g>
<g>
</g>
<g>
</g>
<g>
</g>
<g>
</g>
<g>
</g>
<g>
</g>
<g>
</g>
<g>
</g>
</svg>
