<?xml version="1.0" encoding="iso-8859-1"?>
<!-- Generator: Adobe Illustrator 19.0.0, SVG Export Plug-In . SVG Version: 6.00 Build 0)  -->
<svg version="1.1" id="Layer_1" xmlns="http://www.w3.org/2000/svg" xmlns:xlink="http://www.w3.org/1999/xlink" x="0px" y="0px"
	 viewBox="0 0 512 512" style="enable-background:new 0 0 512 512;" xml:space="preserve">
<circle style="fill:#273B7A;" cx="256" cy="256" r="256"/>
<path style="fill:#121149;" d="M154.721,355.837L305.99,507.106c101.283-20.051,181.067-99.837,201.118-201.119L357.136,156.015
	L154.721,355.837z"/>
<circle style="fill:#FFC61B;" cx="256" cy="256" r="142.222"/>
<path style="fill:#EAA22F;" d="M398.222,256c0-78.546-63.674-142.222-142.222-142.222v284.444
	C334.548,398.222,398.222,334.546,398.222,256z"/>
<circle style="fill:#FFEDB5;" cx="199.111" cy="227.556" r="28.444"/>
<circle style="fill:#272525;" cx="192.215" cy="219.798" r="17.239"/>
<circle style="fill:#FFEDB5;" cx="312.889" cy="227.556" r="28.444"/>
<circle style="fill:#272525;" cx="305.993" cy="219.798" r="17.239"/>
<path style="fill:#C92F00;" d="M284.444,319.785h-56.889c-3.808,0-6.896-3.088-6.896-6.896s3.088-6.896,6.896-6.896h56.889
	c3.808,0,6.896,3.088,6.896,6.896S288.253,319.785,284.444,319.785z"/>
<path style="fill:#930000;" d="M284.444,305.993h-29.019v13.791h29.019c3.808,0,6.896-3.088,6.896-6.896
	S288.253,305.993,284.444,305.993z"/>
<g>
</g>
<g>
</g>
<g>
</g>
<g>
</g>
<g>
</g>
<g>
</g>
<g>
</g>
<g>
</g>
<g>
</g>
<g>
</g>
<g>
</g>
<g>
</g>
<g>
</g>
<g>
</g>
<g>
</g>
</svg>
