<?xml version="1.0" encoding="iso-8859-1"?>
<!-- Generator: Adobe Illustrator 19.0.0, SVG Export Plug-In . SVG Version: 6.00 Build 0)  -->
<svg version="1.1" id="Layer_1" xmlns="http://www.w3.org/2000/svg" xmlns:xlink="http://www.w3.org/1999/xlink" x="0px" y="0px"
	 viewBox="0 0 512 512" style="enable-background:new 0 0 512 512;" xml:space="preserve">
<circle style="fill:#273B7A;" cx="256" cy="256" r="256"/>
<path style="fill:#121149;" d="M154.721,355.837L305.99,507.106c101.283-20.051,181.067-99.837,201.118-201.119L357.136,156.015
	L154.721,355.837z"/>
<circle style="fill:#FFC61B;" cx="256" cy="256" r="142.222"/>
<path style="fill:#EAA22F;" d="M398.222,256c0-78.546-63.674-142.222-142.222-142.222v284.444
	C334.548,398.222,398.222,334.546,398.222,256z"/>
<circle style="fill:#FFEDB5;" cx="193.939" cy="227.556" r="31.03"/>
<circle style="fill:#272525;" cx="193.939" cy="227.556" r="15.515"/>
<circle style="fill:#FFEDB5;" cx="318.061" cy="227.556" r="31.03"/>
<circle style="fill:#272525;" cx="318.061" cy="227.556" r="15.515"/>
<path style="fill:#C92F00;" d="M312.889,305.993H199.111c-3.808,0-6.896-3.088-6.896-6.896s3.088-6.896,6.896-6.896h113.778
	c3.808,0,6.896,3.087,6.896,6.896S316.697,305.993,312.889,305.993z"/>
<path style="fill:#930000;" d="M312.889,292.202h-57.463v13.791h57.463c3.808,0,6.896-3.088,6.896-6.896
	S316.697,292.202,312.889,292.202z"/>
<g>
</g>
<g>
</g>
<g>
</g>
<g>
</g>
<g>
</g>
<g>
</g>
<g>
</g>
<g>
</g>
<g>
</g>
<g>
</g>
<g>
</g>
<g>
</g>
<g>
</g>
<g>
</g>
<g>
</g>
</svg>
