<?xml version="1.0" encoding="iso-8859-1"?>
<!-- Generator: Adobe Illustrator 19.0.0, SVG Export Plug-In . SVG Version: 6.00 Build 0)  -->
<svg version="1.1" id="Layer_1" xmlns="http://www.w3.org/2000/svg" xmlns:xlink="http://www.w3.org/1999/xlink" x="0px" y="0px"
	 viewBox="0 0 512 512" style="enable-background:new 0 0 512 512;" xml:space="preserve">
<circle style="fill:#273B7A;" cx="256" cy="256" r="256"/>
<path style="fill:#121149;" d="M154.721,355.837L305.99,507.106c101.283-20.051,181.067-99.837,201.118-201.119L357.136,156.015
	L154.721,355.837z"/>
<circle style="fill:#FFC61B;" cx="256" cy="256" r="142.222"/>
<path style="fill:#EAA22F;" d="M398.222,256c0-78.546-63.674-142.222-142.222-142.222v284.444
	C334.548,398.222,398.222,334.546,398.222,256z"/>
<path style="fill:#C92F00;" d="M225.602,331.267c-19.968,0.003-31.644-13.791-31.816-14c-2.419-2.941-1.995-7.287,0.948-9.706
	c2.939-2.419,7.287-1.995,9.706,0.948c1.758,2.067,18.339,19.978,47.513-1.202c40.415-29.337,66.012,0.893,66.265,1.202
	c2.419,2.941,1.995,7.287-0.948,9.706c-2.927,2.407-7.249,2-9.676-0.912c-1.824-2.143-18.397-19.987-47.54,1.167
	C246.874,328.035,235.263,331.267,225.602,331.267z"/>
<path style="fill:#930000;" d="M318.216,308.51c-0.245-0.3-24.148-28.513-62.216-3.968v16.691c1.334-0.86,2.681-1.769,4.049-2.763
	c29.143-21.154,45.718-3.31,47.54-1.167c2.427,2.912,6.749,3.32,9.676,0.912C320.21,315.797,320.636,311.451,318.216,308.51z"/>
<circle style="fill:#FFEDB5;" cx="199.111" cy="227.556" r="28.444"/>
<circle style="fill:#272525;" cx="199.111" cy="227.556" r="14.222"/>
<circle style="fill:#FFEDB5;" cx="312.889" cy="227.556" r="28.444"/>
<circle style="fill:#272525;" cx="312.889" cy="227.556" r="14.222"/>
<g>
</g>
<g>
</g>
<g>
</g>
<g>
</g>
<g>
</g>
<g>
</g>
<g>
</g>
<g>
</g>
<g>
</g>
<g>
</g>
<g>
</g>
<g>
</g>
<g>
</g>
<g>
</g>
<g>
</g>
</svg>
