<?xml version="1.0" encoding="iso-8859-1"?>
<!-- Generator: Adobe Illustrator 19.0.0, SVG Export Plug-In . SVG Version: 6.00 Build 0)  -->
<svg version="1.1" id="Layer_1" xmlns="http://www.w3.org/2000/svg" xmlns:xlink="http://www.w3.org/1999/xlink" x="0px" y="0px"
	 viewBox="0 0 512 512" style="enable-background:new 0 0 512 512;" xml:space="preserve">
<circle style="fill:#273B7A;" cx="256" cy="256" r="256"/>
<path style="fill:#121149;" d="M154.721,355.837L305.99,507.106c101.283-20.051,181.067-99.837,201.118-201.119L357.136,156.015
	L154.721,355.837z"/>
<circle style="fill:#FFC61B;" cx="256" cy="256" r="142.222"/>
<path style="fill:#EAA22F;" d="M398.222,256c0-78.546-63.674-142.222-142.222-142.222v284.444
	C334.548,398.222,398.222,334.546,398.222,256z"/>
<path style="fill:#59595B;" d="M378.683,181.01h-91.51c-8.316,0-15.479,4.96-18.735,12.067h-24.876
	c-3.256-7.108-10.421-12.067-18.737-12.067h-91.51c-11.367,0-20.614,9.249-20.614,20.616v11.276c0,36.597,29.774,66.37,66.37,66.37
	c33.377,0,61.066-24.769,65.683-56.889h22.494c4.617,32.12,32.306,56.889,65.683,56.889c36.597,0,66.37-29.774,66.37-66.37v-11.276
	C399.3,190.259,390.051,181.01,378.683,181.01z"/>
<path style="fill:#272525;" d="M378.683,181.01h-91.51c-8.316,0-15.479,4.96-18.735,12.067h-11.862v29.306h10.671
	c4.617,32.12,32.306,56.889,65.683,56.889c36.597,0,66.37-29.774,66.37-66.37v-11.276C399.3,190.259,390.051,181.01,378.683,181.01z
	"/>
<path style="fill:#C92F00;" d="M255.998,319.29c-20.551,0-38.857-12.943-44.52-31.473c-1.114-3.641,0.936-7.497,4.579-8.609
	c3.644-1.117,7.497,0.938,8.609,4.579c3.908,12.784,16.791,21.713,31.332,21.713c14.543,0,27.426-8.928,31.332-21.713
	c1.114-3.639,4.961-5.699,8.609-4.579c3.641,1.114,5.692,4.967,4.579,8.609C294.857,306.347,276.551,319.29,255.998,319.29z"/>
<path style="fill:#930000;" d="M295.939,279.207c-3.648-1.119-7.497,0.94-8.609,4.579c-3.906,12.784-16.789,21.713-31.332,21.713
	c-0.048,0-0.095-0.005-0.141-0.005v13.791c0.048,0,0.095,0.005,0.141,0.005c20.552,0,38.859-12.943,44.52-31.473
	C301.632,284.174,299.582,280.319,295.939,279.207z"/>
<g>
</g>
<g>
</g>
<g>
</g>
<g>
</g>
<g>
</g>
<g>
</g>
<g>
</g>
<g>
</g>
<g>
</g>
<g>
</g>
<g>
</g>
<g>
</g>
<g>
</g>
<g>
</g>
<g>
</g>
</svg>
