<?xml version="1.0" encoding="iso-8859-1"?>
<!-- Generator: Adobe Illustrator 19.0.0, SVG Export Plug-In . SVG Version: 6.00 Build 0)  -->
<svg version="1.1" id="Layer_1" xmlns="http://www.w3.org/2000/svg" xmlns:xlink="http://www.w3.org/1999/xlink" x="0px" y="0px"
	 viewBox="0 0 512 512" style="enable-background:new 0 0 512 512;" xml:space="preserve">
<circle style="fill:#273B7A;" cx="256" cy="256" r="256"/>
<path style="fill:#121149;" d="M154.721,355.837L305.99,507.106c101.283-20.051,181.067-99.837,201.118-201.119L357.136,156.015
	L154.721,355.837z"/>
<circle style="fill:#FFC61B;" cx="256" cy="256" r="142.222"/>
<path style="fill:#EAA22F;" d="M398.222,256c0-78.546-63.674-142.222-142.222-142.222v284.444
	C334.548,398.222,398.222,334.546,398.222,256z"/>
<path style="fill:#02B2B2;" d="M168.081,367.749c16.429,12.943,35.768,22.337,56.889,27.038V219.798l-25.859-20.687l-31.03,15.515
	V367.749z"/>
<path style="fill:#386895;" d="M343.919,367.749c-16.429,12.943-35.768,22.337-56.889,27.038V219.798l25.859-20.687l31.03,15.515
	V367.749z"/>
<g>
	<path style="fill:#272525;" d="M338.747,228.848c-4.284,0-7.758-3.474-7.758-7.758c0-8.556-6.959-15.515-15.515-15.515
		c-8.556,0-15.515,6.959-15.515,15.515c0,4.284-3.474,7.758-7.758,7.758s-7.758-3.474-7.758-7.758c0-17.11,13.921-31.03,31.03-31.03
		s31.03,13.921,31.03,31.03C346.505,225.375,343.033,228.848,338.747,228.848z"/>
	<path style="fill:#272525;" d="M219.798,228.848c-4.284,0-7.758-3.474-7.758-7.758c0-8.556-6.959-15.515-15.515-15.515
		s-15.515,6.959-15.515,15.515c0,4.284-3.474,7.758-7.758,7.758s-7.758-3.474-7.758-7.758c0-17.11,13.921-31.03,31.03-31.03
		s31.03,13.921,31.03,31.03C227.556,225.375,224.084,228.848,219.798,228.848z"/>
</g>
<ellipse style="fill:#C92F00;" cx="256" cy="311.165" rx="21.549" ry="33.616"/>
<path style="fill:#930000;" d="M256,277.549c11.902,0,21.549,15.05,21.549,33.616s-9.647,33.616-21.549,33.616V277.549z"/>
<g>
</g>
<g>
</g>
<g>
</g>
<g>
</g>
<g>
</g>
<g>
</g>
<g>
</g>
<g>
</g>
<g>
</g>
<g>
</g>
<g>
</g>
<g>
</g>
<g>
</g>
<g>
</g>
<g>
</g>
</svg>
