<?xml version="1.0" encoding="iso-8859-1"?>
<!-- Generator: Adobe Illustrator 19.0.0, SVG Export Plug-In . SVG Version: 6.00 Build 0)  -->
<svg version="1.1" id="Layer_1" xmlns="http://www.w3.org/2000/svg" xmlns:xlink="http://www.w3.org/1999/xlink" x="0px" y="0px"
	 viewBox="0 0 512 512" style="enable-background:new 0 0 512 512;" xml:space="preserve">
<circle style="fill:#273B7A;" cx="256" cy="256" r="256"/>
<path style="fill:#121149;" d="M154.721,355.837L305.99,507.106c101.283-20.051,181.067-99.837,201.118-201.119L357.136,156.015
	L154.721,355.837z"/>
<circle style="fill:#FFC61B;" cx="256" cy="256" r="142.222"/>
<path style="fill:#EAA22F;" d="M398.222,256c0-78.546-63.674-142.222-142.222-142.222v284.444
	C334.548,398.222,398.222,334.546,398.222,256z"/>
<circle style="fill:#FFEDB5;" cx="196.232" cy="253.414" r="29.88"/>
<circle style="fill:#272525;" cx="196.232" cy="253.414" r="14.941"/>
<circle style="fill:#FFEDB5;" cx="315.768" cy="253.414" r="29.88"/>
<g>
	<circle style="fill:#272525;" cx="315.768" cy="253.414" r="14.941"/>
	<path style="fill:#272525;" d="M344.223,220.291c-0.017,0-0.031,0-0.045,0c-29.465-0.19-38.888-17.76-39.272-18.506
		c-1.75-3.382-0.426-7.542,2.958-9.292c3.346-1.729,7.465-0.452,9.242,2.862c0.364,0.631,6.665,11.014,27.16,11.145
		c3.808,0.026,6.875,3.131,6.853,6.939C351.092,217.233,348.008,220.291,344.223,220.291z"/>
	<path style="fill:#272525;" d="M167.777,220.291c-3.786,0-6.868-3.058-6.894-6.853c-0.024-3.808,3.044-6.915,6.853-6.939
		c20.689-0.133,26.914-10.711,27.17-11.161c1.748-3.382,5.88-4.655,9.263-2.903c3.382,1.75,4.677,5.965,2.927,9.347
		c-0.386,0.748-9.807,18.316-39.272,18.506C167.807,220.291,167.791,220.291,167.777,220.291z"/>
</g>
<path style="fill:#C92F00;" d="M283.588,333.448c-2.077,0-4.13-0.934-5.487-2.712c-5.311-6.959-13.367-10.952-22.1-10.952
	c-8.733,0-16.789,3.991-22.1,10.952c-2.312,3.029-6.639,3.608-9.664,1.298s-3.61-6.639-1.298-9.664
	c7.942-10.407,19.994-16.375,33.064-16.375s25.121,5.968,33.064,16.375c2.312,3.027,1.729,7.356-1.298,9.664
	C286.518,332.986,285.046,333.448,283.588,333.448z"/>
<path style="fill:#930000;" d="M289.064,322.369c-7.942-10.407-19.994-16.375-33.064-16.375c-0.048,0-0.095,0.003-0.143,0.003
	v13.795c0.048,0,0.095-0.009,0.143-0.009c8.733,0,16.789,3.991,22.1,10.952c1.357,1.777,3.41,2.712,5.487,2.712
	c1.458,0,2.929-0.462,4.179-1.414C290.794,329.725,291.376,325.396,289.064,322.369z"/>
<path style="fill:#02B2B2;" d="M199.111,323.391c-0.098,10.007-8.289,18.039-18.296,17.941
	c-10.006-0.098-18.039-8.289-17.941-18.296c0.098-10.007,18.568-45.942,18.568-45.942S199.209,313.385,199.111,323.391z"/>
<g>
</g>
<g>
</g>
<g>
</g>
<g>
</g>
<g>
</g>
<g>
</g>
<g>
</g>
<g>
</g>
<g>
</g>
<g>
</g>
<g>
</g>
<g>
</g>
<g>
</g>
<g>
</g>
<g>
</g>
</svg>
