<?xml version="1.0" encoding="iso-8859-1"?>
<!-- Generator: Adobe Illustrator 19.0.0, SVG Export Plug-In . SVG Version: 6.00 Build 0)  -->
<svg version="1.1" id="Layer_1" xmlns="http://www.w3.org/2000/svg" xmlns:xlink="http://www.w3.org/1999/xlink" x="0px" y="0px"
	 viewBox="0 0 512 512" style="enable-background:new 0 0 512 512;" xml:space="preserve">
<circle style="fill:#273B7A;" cx="256" cy="256" r="256"/>
<path style="fill:#121149;" d="M154.721,355.837L305.99,507.106c101.283-20.051,181.067-99.837,201.118-201.119L357.136,156.015
	L154.721,355.837z"/>
<circle style="fill:#FFC61B;" cx="256" cy="256" r="142.222"/>
<path style="fill:#EAA22F;" d="M398.222,256c0-78.546-63.674-142.222-142.222-142.222v284.444
	C334.548,398.222,398.222,334.546,398.222,256z"/>
<path style="fill:#FF6262;" d="M227.556,398.222L227.556,398.222c-15.71,0-28.444-12.734-28.444-28.444v-56.889L256,341.333v28.444
	C256,385.488,243.266,398.222,227.556,398.222z"/>
<g>
	<path style="fill:#272525;" d="M219.798,228.848c-4.284,0-7.758-3.474-7.758-7.758c0-8.556-6.959-15.515-15.515-15.515
		s-15.515,6.959-15.515,15.515c0,4.284-3.474,7.758-7.758,7.758s-7.758-3.474-7.758-7.758c0-17.11,13.921-31.03,31.03-31.03
		s31.03,13.921,31.03,31.03C227.556,225.375,224.084,228.848,219.798,228.848z"/>
	<path style="fill:#272525;" d="M338.747,228.848c-4.284,0-7.758-3.474-7.758-7.758c0-8.556-6.959-15.515-15.515-15.515
		c-8.556,0-15.515,6.959-15.515,15.515c0,4.284-3.474,7.758-7.758,7.758s-7.758-3.474-7.758-7.758c0-17.11,13.921-31.03,31.03-31.03
		s31.03,13.921,31.03,31.03C346.505,225.375,343.033,228.848,338.747,228.848z"/>
</g>
<path style="fill:#FF314F;" d="M227.556,376.673c-3.808,0-6.896-3.088-6.896-6.896v-32.754c0-3.808,3.088-6.896,6.896-6.896
	c3.808,0,6.896,3.088,6.896,6.896v32.754C234.451,373.586,231.364,376.673,227.556,376.673z"/>
<path style="fill:#C92F00;" d="M255.998,343.919c-32.113,0-60.7-20.149-69.516-48.999c-1.114-3.641,0.936-7.497,4.579-8.609
	c3.643-1.117,7.499,0.938,8.609,4.579c7.061,23.102,30.224,39.238,56.329,39.238c26.107,0,49.269-16.134,56.329-39.238
	c1.112-3.641,4.96-5.697,8.609-4.579c3.641,1.114,5.692,4.968,4.579,8.609C316.7,323.772,288.115,343.919,255.998,343.919z"/>
<path style="fill:#930000;" d="M320.936,286.311c-3.65-1.117-7.499,0.938-8.609,4.579c-7.006,22.931-29.884,38.978-55.751,39.215
	v13.802c31.88-0.24,60.178-20.311,68.939-48.987C326.628,291.28,324.579,287.425,320.936,286.311z"/>
<g>
</g>
<g>
</g>
<g>
</g>
<g>
</g>
<g>
</g>
<g>
</g>
<g>
</g>
<g>
</g>
<g>
</g>
<g>
</g>
<g>
</g>
<g>
</g>
<g>
</g>
<g>
</g>
<g>
</g>
</svg>
