<?xml version="1.0" encoding="iso-8859-1"?>
<!-- Generator: Adobe Illustrator 19.0.0, SVG Export Plug-In . SVG Version: 6.00 Build 0)  -->
<svg version="1.1" id="Layer_1" xmlns="http://www.w3.org/2000/svg" xmlns:xlink="http://www.w3.org/1999/xlink" x="0px" y="0px"
	 viewBox="0 0 512 512" style="enable-background:new 0 0 512 512;" xml:space="preserve">
<circle style="fill:#273B7A;" cx="256" cy="256" r="256"/>
<path style="fill:#121149;" d="M154.721,355.837L305.99,507.106c101.283-20.051,181.067-99.837,201.118-201.119L357.136,156.015
	L154.721,355.837z"/>
<circle style="fill:#FFC61B;" cx="256" cy="256" r="142.222"/>
<path style="fill:#EAA22F;" d="M398.222,256c0-78.546-63.674-142.222-142.222-142.222v284.444
	C334.548,398.222,398.222,334.546,398.222,256z"/>
<circle style="fill:#FFEDB5;" cx="199.111" cy="227.556" r="28.444"/>
<circle style="fill:#272525;" cx="199.111" cy="227.556" r="14.222"/>
<circle style="fill:#FFEDB5;" cx="312.889" cy="227.556" r="28.444"/>
<circle style="fill:#272525;" cx="312.889" cy="227.556" r="14.222"/>
<path style="fill:#C92F00;" d="M255.998,348.739c-32.113,0-60.7-20.149-69.516-48.999c-1.114-3.641,0.936-7.497,4.579-8.609
	c3.646-1.117,7.497,0.936,8.609,4.579c7.061,23.102,30.224,39.238,56.329,39.238c26.107,0,49.269-16.134,56.329-39.238
	c1.112-3.641,4.96-5.699,8.609-4.579c3.641,1.114,5.692,4.968,4.579,8.609C316.7,328.59,288.115,348.739,255.998,348.739z"/>
<path style="fill:#930000;" d="M320.936,291.131c-3.65-1.119-7.499,0.938-8.609,4.579c-7.059,23.102-30.222,39.238-56.329,39.238
	c-0.048,0-0.095-0.005-0.141-0.005v13.795c0.047,0,0.095,0.003,0.141,0.003c32.116,0,60.702-20.149,69.516-48.999
	C326.628,296.1,324.579,292.243,320.936,291.131z"/>
<g>
</g>
<g>
</g>
<g>
</g>
<g>
</g>
<g>
</g>
<g>
</g>
<g>
</g>
<g>
</g>
<g>
</g>
<g>
</g>
<g>
</g>
<g>
</g>
<g>
</g>
<g>
</g>
<g>
</g>
</svg>
