<?xml version="1.0" encoding="iso-8859-1"?>
<!-- Generator: Adobe Illustrator 19.0.0, SVG Export Plug-In . SVG Version: 6.00 Build 0)  -->
<svg version="1.1" id="Layer_1" xmlns="http://www.w3.org/2000/svg" xmlns:xlink="http://www.w3.org/1999/xlink" x="0px" y="0px"
	 viewBox="0 0 512 512" style="enable-background:new 0 0 512 512;" xml:space="preserve">
<circle style="fill:#273B7A;" cx="256" cy="256" r="256"/>
<path style="fill:#121149;" d="M154.721,355.837L305.99,507.106c101.283-20.051,181.067-99.837,201.118-201.119L357.136,156.015
	L154.721,355.837z"/>
<circle style="fill:#FFC61B;" cx="256" cy="256" r="142.222"/>
<path style="fill:#EAA22F;" d="M398.222,256c0-78.546-63.674-142.222-142.222-142.222v284.444
	C334.548,398.222,398.222,334.546,398.222,256z"/>
<path style="fill:#C92F00;" d="M310.084,290.047c11.688,0,20.113,11.357,16.57,22.495c-9.525,29.943-37.555,51.633-70.653,51.633
	s-61.128-21.692-70.653-51.633c-3.543-11.138,4.88-22.495,16.57-22.495H310.084z"/>
<path style="fill:#930000;" d="M311.374,290.047H256v74.128c33.775,0,62.274-22.588,71.215-53.482
	C330.212,300.334,322.157,290.047,311.374,290.047z"/>
<g>
	<path style="fill:#272525;" d="M336.406,236.642c-1.146,0-2.31-0.288-3.381-0.891c-18.925-10.671-42.146-9.692-42.379-9.683
		c-2.605,0.143-5.077-1.241-6.353-3.529c-1.276-2.286-1.146-5.099,0.334-7.258c0.753-1.1,18.846-26.803,54.412-19.12
		c3.722,0.805,6.087,4.475,5.284,8.197c-0.805,3.724-4.484,6.092-8.197,5.284c-12.438-2.689-21.985,0.028-28.639,3.703
		c9.437,1.329,21.354,4.212,32.309,10.39c3.317,1.87,4.489,6.075,2.62,9.394C341.152,235.377,338.815,236.642,336.406,236.642z"/>
	<path style="fill:#272525;" d="M175.594,236.642c-2.408,0-4.746-1.262-6.013-3.51c-1.87-3.319-0.696-7.523,2.62-9.394
		c10.971-6.185,22.906-9.069,32.346-10.395c-6.647-3.681-16.191-6.401-28.675-3.699c-3.717,0.796-7.392-1.56-8.197-5.284
		c-0.803-3.722,1.562-7.392,5.284-8.197c35.556-7.675,53.66,18.02,54.412,19.12c1.481,2.158,1.612,4.972,0.334,7.258
		c-1.274,2.288-3.739,3.672-6.353,3.529c-0.224-0.009-23.568-0.922-42.379,9.683C177.904,236.354,176.74,236.642,175.594,236.642z"
		/>
</g>
<g>
</g>
<g>
</g>
<g>
</g>
<g>
</g>
<g>
</g>
<g>
</g>
<g>
</g>
<g>
</g>
<g>
</g>
<g>
</g>
<g>
</g>
<g>
</g>
<g>
</g>
<g>
</g>
<g>
</g>
</svg>
