<?xml version="1.0" encoding="iso-8859-1"?>
<!-- Generator: Adobe Illustrator 19.0.0, SVG Export Plug-In . SVG Version: 6.00 Build 0)  -->
<svg version="1.1" id="Layer_1" xmlns="http://www.w3.org/2000/svg" xmlns:xlink="http://www.w3.org/1999/xlink" x="0px" y="0px"
	 viewBox="0 0 512 512" style="enable-background:new 0 0 512 512;" xml:space="preserve">
<circle style="fill:#273B7A;" cx="256" cy="256" r="256"/>
<path style="fill:#121149;" d="M154.721,355.837L305.99,507.106c101.283-20.051,181.067-99.837,201.118-201.119L357.136,156.015
	L154.721,355.837z"/>
<circle style="fill:#FFC61B;" cx="256" cy="256" r="142.222"/>
<path style="fill:#EAA22F;" d="M398.222,256c0-78.546-63.674-142.222-142.222-142.222v284.444
	C334.548,398.222,398.222,334.546,398.222,256z"/>
<path style="fill:#FFEDB5;" d="M338.935,238.761h-38.302c-5.191,5.015-8.432,12.036-8.432,19.825
	c0,15.232,12.348,27.582,27.582,27.582s27.582-12.35,27.582-27.582C347.367,250.797,344.126,243.776,338.935,238.761z"/>
<circle style="fill:#272525;" cx="319.785" cy="258.586" r="10.343"/>
<path style="fill:#FFEDB5;" d="M211.366,238.761h-38.302c-5.191,5.015-8.432,12.036-8.432,19.825
	c0,15.232,12.348,27.582,27.582,27.582s27.582-12.35,27.582-27.582C219.8,250.797,216.559,243.776,211.366,238.761z"/>
<circle style="fill:#272525;" cx="192.215" cy="258.586" r="10.343"/>
<path style="fill:#C92F00;" d="M223.782,337.632c-2.034,0-4.048-0.895-5.408-2.612c-2.367-2.982-1.867-7.321,1.117-9.687
	c31.546-25.019,60.668-15.748,71.658-7.351c3.025,2.313,3.605,6.641,1.293,9.666c-2.303,3.015-6.609,3.603-9.633,1.317
	c-1.058-0.783-24.043-17.184-54.75,7.171C226.794,337.143,225.282,337.632,223.782,337.632z"/>
<path style="fill:#930000;" d="M291.15,317.983c-6.501-4.968-19.351-10.238-35.294-8.537v13.817
	c15.875-2.21,26.25,5.182,26.953,5.703c3.024,2.286,7.33,1.698,9.633-1.317C294.755,324.624,294.176,320.297,291.15,317.983z"/>
<path style="fill:#A6A8AA;" d="M256,113.778c-23.459,0-45.571,5.715-65.077,15.775v15.836l63.44,31.72l92.231-30.744
	C321.991,126.012,290.425,113.778,256,113.778z"/>
<path style="fill:#808183;" d="M256,113.778c-0.048,0-0.095,0.002-0.143,0.002v62.831l90.738-30.246
	C321.991,126.012,290.425,113.778,256,113.778z"/>
<path style="fill:#D0D1D3;" d="M139.64,174.271c57.154,30.196,208.16-2.217,208.16-2.217
	c-53.198-0.341-111.135-33.758-137.266-50.807C181.612,131.001,156.869,149.788,139.64,174.271z"/>
<path style="fill:#FFFFFF;" d="M340.558,141.652c-48.454,14.56-161.795,24.254-196.734,26.976
	c-14.06,18.025-23.862,39.514-27.92,62.986c113.864,1.381,230.066-37.069,262.185-48.568
	C368.414,166.891,355.631,152.817,340.558,141.652z"/>
<path style="fill:#D0D1D3;" d="M340.558,141.652c-20.335,6.111-52.1,11.364-84.701,15.605v59.63
	c57.57-11.735,103.777-27.234,122.23-33.839C368.414,166.891,355.631,152.817,340.558,141.652z"/>
<g>
</g>
<g>
</g>
<g>
</g>
<g>
</g>
<g>
</g>
<g>
</g>
<g>
</g>
<g>
</g>
<g>
</g>
<g>
</g>
<g>
</g>
<g>
</g>
<g>
</g>
<g>
</g>
<g>
</g>
</svg>
