<?xml version="1.0" encoding="iso-8859-1"?>
<!-- Generator: Adobe Illustrator 19.0.0, SVG Export Plug-In . SVG Version: 6.00 Build 0)  -->
<svg version="1.1" id="Layer_1" xmlns="http://www.w3.org/2000/svg" xmlns:xlink="http://www.w3.org/1999/xlink" x="0px" y="0px"
	 viewBox="0 0 512 512" style="enable-background:new 0 0 512 512;" xml:space="preserve">
<circle style="fill:#273B7A;" cx="256" cy="256" r="256"/>
<path style="fill:#121149;" d="M154.721,355.837L305.99,507.106c101.283-20.051,181.067-99.837,201.118-201.119L357.136,156.015
	L154.721,355.837z"/>
<circle style="fill:#FFC61B;" cx="256" cy="256" r="142.222"/>
<path style="fill:#EAA22F;" d="M398.222,256c0-78.546-63.674-142.222-142.222-142.222v284.444
	C334.548,398.222,398.222,334.546,398.222,256z"/>
<path style="fill:#C92F00;" d="M311.953,303.957c-2.824-1.586-6.375-0.991-8.528,1.433c-3.824,4.299-21.064,10.355-47.426,10.355
	c-26.36,0-43.603-6.056-47.426-10.357c-2.155-2.422-5.704-3.019-8.53-1.429c-2.825,1.586-4.165,4.927-3.217,8.026
	c7.511,24.579,31.846,41.746,59.173,41.746c27.331,0,51.664-17.167,59.173-41.746C316.119,308.888,314.78,305.545,311.953,303.957z"
	/>
<path style="fill:#930000;" d="M311.953,303.957c-2.824-1.586-6.375-0.991-8.528,1.433c-3.824,4.299-21.064,10.355-47.426,10.355
	c-0.048,0-0.093-0.002-0.141-0.002v37.986c0.047,0,0.095,0.003,0.141,0.003c27.331,0,51.664-17.167,59.173-41.746
	C316.119,308.888,314.78,305.545,311.953,303.957z"/>
<path style="fill:#C92F00;" d="M223.18,221.663c0-11.535-9.35-20.885-20.885-20.885c-11.535,0-20.885,9.35-20.885,20.885
	c0-11.535-9.35-20.885-20.885-20.885s-20.885,9.35-20.885,20.885c0,23.628,41.772,41.772,41.772,41.772
	S223.18,244.658,223.18,221.663z"/>
<path style="fill:#930000;" d="M372.364,221.663c0-11.535-9.35-20.885-20.885-20.885s-20.885,9.35-20.885,20.885
	c0-11.535-9.35-20.885-20.885-20.885c-11.535,0-20.885,9.35-20.885,20.885c0,23.628,41.772,41.772,41.772,41.772
	S372.364,244.658,372.364,221.663z"/>
<g>
</g>
<g>
</g>
<g>
</g>
<g>
</g>
<g>
</g>
<g>
</g>
<g>
</g>
<g>
</g>
<g>
</g>
<g>
</g>
<g>
</g>
<g>
</g>
<g>
</g>
<g>
</g>
<g>
</g>
</svg>
