<?xml version="1.0" encoding="iso-8859-1"?>
<!-- Generator: Adobe Illustrator 19.0.0, SVG Export Plug-In . SVG Version: 6.00 Build 0)  -->
<svg version="1.1" id="Layer_1" xmlns="http://www.w3.org/2000/svg" xmlns:xlink="http://www.w3.org/1999/xlink" x="0px" y="0px"
	 viewBox="0 0 512 512" style="enable-background:new 0 0 512 512;" xml:space="preserve">
<circle style="fill:#273B7A;" cx="256" cy="256" r="256"/>
<path style="fill:#121149;" d="M154.721,355.837L305.99,507.106c101.283-20.051,181.067-99.837,201.118-201.119L357.136,156.015
	L154.721,355.837z"/>
<circle style="fill:#FFC61B;" cx="256" cy="256" r="142.222"/>
<path style="fill:#EAA22F;" d="M398.222,256c0-78.546-63.674-142.222-142.222-142.222v284.444
	C334.548,398.222,398.222,334.546,398.222,256z"/>
<circle style="fill:#FFEDB5;" cx="184.889" cy="227.556" r="28.444"/>
<circle style="fill:#272525;" cx="184.889" cy="227.556" r="14.222"/>
<circle style="fill:#FFEDB5;" cx="327.111" cy="227.556" r="28.444"/>
<circle style="fill:#272525;" cx="327.111" cy="227.556" r="14.222"/>
<path style="fill:#C92F00;" d="M255.998,348.739c-3.808,0-6.896-3.088-6.896-6.896s3.088-6.896,6.896-6.896
	c26.107,0,49.269-16.134,56.329-39.238c1.112-3.641,4.96-5.698,8.609-4.579c3.641,1.114,5.692,4.968,4.579,8.609
	C316.7,328.59,288.115,348.739,255.998,348.739z"/>
<path style="fill:#02B2B2;" d="M378.683,181.01h-91.51c-11.367,0-20.614,9.249-20.614,20.616v19.034h-21.118v-19.034
	c0-11.367-9.249-20.616-20.616-20.616h-91.51c-11.367,0-20.614,9.249-20.614,20.616v57.03c0,11.367,9.247,20.616,20.614,20.616
	h91.51c11.367,0,20.616-9.249,20.616-20.616v-24.205h21.118v24.205c0,11.367,9.247,20.616,20.614,20.616h91.51
	c11.367,0,20.616-9.249,20.616-20.616v-57.03C399.3,190.259,390.051,181.01,378.683,181.01z M231.65,258.657
	c0,3.763-3.062,6.825-6.825,6.825h-91.51c-3.763,0-6.823-3.062-6.823-6.825v-57.03c0-3.763,3.06-6.825,6.823-6.825h91.51
	c3.763,0,6.825,3.062,6.825,6.825V258.657z M385.508,258.657c0,3.763-3.062,6.825-6.825,6.825h-91.51
	c-3.763,0-6.823-3.062-6.823-6.825v-57.03c0-3.763,3.06-6.825,6.823-6.825h91.51c3.763,0,6.825,3.062,6.825,6.825V258.657
	L385.508,258.657z"/>
<path style="fill:#386895;" d="M378.683,181.01h-91.51c-11.367,0-20.614,9.249-20.614,20.616v19.034h-10.702v13.791h10.702v24.205
	c0,11.367,9.247,20.616,20.614,20.616h91.51c11.367,0,20.616-9.249,20.616-20.616v-57.03
	C399.3,190.259,390.051,181.01,378.683,181.01z M385.508,258.657c0,3.763-3.062,6.825-6.825,6.825h-91.51
	c-3.763,0-6.823-3.062-6.823-6.825v-57.03c0-3.763,3.06-6.825,6.823-6.825h91.51c3.763,0,6.825,3.062,6.825,6.825V258.657
	L385.508,258.657z"/>
<g>
</g>
<g>
</g>
<g>
</g>
<g>
</g>
<g>
</g>
<g>
</g>
<g>
</g>
<g>
</g>
<g>
</g>
<g>
</g>
<g>
</g>
<g>
</g>
<g>
</g>
<g>
</g>
<g>
</g>
</svg>
