<?xml version="1.0" encoding="iso-8859-1"?>
<!-- Generator: Adobe Illustrator 19.0.0, SVG Export Plug-In . SVG Version: 6.00 Build 0)  -->
<svg version="1.1" id="Layer_1" xmlns="http://www.w3.org/2000/svg" xmlns:xlink="http://www.w3.org/1999/xlink" x="0px" y="0px"
	 viewBox="0 0 512 512" style="enable-background:new 0 0 512 512;" xml:space="preserve">
<circle style="fill:#273B7A;" cx="256" cy="256" r="256"/>
<path style="fill:#121149;" d="M154.721,355.837L305.99,507.106c101.283-20.051,181.067-99.837,201.118-201.119L357.136,156.015
	L154.721,355.837z"/>
<circle style="fill:#FFC61B;" cx="256" cy="256" r="142.222"/>
<path style="fill:#EAA22F;" d="M398.222,256c0-78.546-63.674-142.222-142.222-142.222v284.444
	C334.548,398.222,398.222,334.546,398.222,256z"/>
<g>
	<path style="fill:#272525;" d="M322.639,228.417l10.64-10.64c2.694-2.693,2.694-7.059,0-9.75c-2.691-2.694-7.061-2.694-9.75,0
		l-10.64,10.64l-10.64-10.64c-2.691-2.694-7.061-2.694-9.75,0c-2.694,2.693-2.694,7.059,0,9.75l10.64,10.64l-10.64,10.64
		c-2.694,2.693-2.694,7.059,0,9.75c1.345,1.346,3.112,2.02,4.875,2.02c1.764,0,3.531-0.674,4.875-2.02l10.64-10.64l10.64,10.64
		c1.345,1.346,3.112,2.02,4.875,2.02c1.764,0,3.531-0.674,4.875-2.02c2.694-2.693,2.694-7.059,0-9.75L322.639,228.417z"/>
	<path style="fill:#272525;" d="M208.862,228.417l10.64-10.64c2.694-2.693,2.694-7.059,0-9.75c-2.691-2.694-7.061-2.694-9.75,0
		l-10.64,10.64l-10.64-10.64c-2.691-2.694-7.061-2.694-9.75,0c-2.694,2.693-2.694,7.059,0,9.75l10.64,10.64l-10.64,10.64
		c-2.694,2.693-2.694,7.059,0,9.75c1.345,1.346,3.112,2.02,4.875,2.02c1.764,0,3.531-0.674,4.875-2.02l10.64-10.64l10.64,10.64
		c1.345,1.346,3.112,2.02,4.875,2.02c1.764,0,3.531-0.674,4.875-2.02c2.694-2.693,2.694-7.059,0-9.75L208.862,228.417z"/>
</g>
<circle style="fill:#C92F00;" cx="256" cy="312.889" r="39.65"/>
<path style="fill:#930000;" d="M256,273.239c21.899,0,39.65,17.751,39.65,39.65s-17.751,39.65-39.65,39.65V273.239z"/>
<g>
</g>
<g>
</g>
<g>
</g>
<g>
</g>
<g>
</g>
<g>
</g>
<g>
</g>
<g>
</g>
<g>
</g>
<g>
</g>
<g>
</g>
<g>
</g>
<g>
</g>
<g>
</g>
<g>
</g>
</svg>
