<?xml version="1.0" encoding="iso-8859-1"?>
<!-- Generator: Adobe Illustrator 19.0.0, SVG Export Plug-In . SVG Version: 6.00 Build 0)  -->
<svg version="1.1" id="Layer_1" xmlns="http://www.w3.org/2000/svg" xmlns:xlink="http://www.w3.org/1999/xlink" x="0px" y="0px"
	 viewBox="0 0 512 512" style="enable-background:new 0 0 512 512;" xml:space="preserve">
<circle style="fill:#273B7A;" cx="256" cy="256" r="256"/>
<path style="fill:#121149;" d="M154.721,355.837L305.99,507.106c101.283-20.051,181.067-99.837,201.118-201.119L357.136,156.015
	L154.721,355.837z"/>
<circle style="fill:#8BC180;" cx="256" cy="256" r="142.222"/>
<path style="fill:#6CAF5F;" d="M398.222,256c0-78.546-63.674-142.222-142.222-142.222v284.444
	C334.548,398.222,398.222,334.546,398.222,256z"/>
<circle style="fill:#FFEDB5;" cx="199.111" cy="227.556" r="28.444"/>
<circle style="fill:#272525;" cx="199.111" cy="227.556" r="17.239"/>
<circle style="fill:#FFEDB5;" cx="312.889" cy="227.556" r="28.444"/>
<circle style="fill:#272525;" cx="312.889" cy="227.556" r="17.239"/>
<path style="fill:#477F3C;" d="M327.625,332.802c-4.37-1.833-7.944-4.973-10.338-9.082c-2.92-5.011-3.715-10.861-2.236-16.47
	c1.477-5.608,5.053-10.306,10.062-13.226c3.291-1.917,4.405-6.141,2.486-9.43s-6.142-4.406-9.43-2.486
	c-8.195,4.777-14.039,12.457-16.456,21.626c-0.191,0.724-0.317,1.452-0.462,2.179c-16.308-6.092-53.076-16.027-90.591-0.355
	c-1.986-9.509-7.794-18.185-16.827-23.45c-3.289-1.919-7.511-0.803-9.43,2.486c-1.919,3.289-0.805,7.511,2.486,9.43
	c10.343,6.028,13.855,19.351,7.827,29.694c-2.395,4.11-5.972,7.251-10.342,9.085c-3.512,1.472-5.163,5.515-3.691,9.026
	c1.108,2.639,3.667,4.229,6.361,4.229c0.89,0,1.793-0.174,2.665-0.54c7.152-3.001,13.005-8.139,16.92-14.857
	c1.845-3.165,3.141-6.499,3.922-9.895c39.445-19.496,80.843-4.189,90.908,0.115c0.798,3.391,2.103,6.684,3.906,9.78
	c3.913,6.716,9.762,11.854,16.917,14.855c0.872,0.365,1.776,0.54,2.665,0.54c2.694,0,5.254-1.589,6.361-4.229
	C332.788,338.316,331.136,334.274,327.625,332.802z"/>
<path style="fill:#2E5E24;" d="M327.625,332.802c-4.37-1.833-7.944-4.973-10.338-9.082c-2.92-5.011-3.715-10.861-2.236-16.47
	c1.477-5.608,5.053-10.306,10.062-13.226c3.291-1.917,4.405-6.141,2.486-9.43s-6.142-4.406-9.43-2.486
	c-8.195,4.777-14.039,12.457-16.456,21.626c-0.191,0.724-0.317,1.452-0.462,2.179c-9.494-3.546-25.924-8.387-45.394-8.728v13.952
	c21.79,0.462,39.49,7.128,45.606,9.745c0.798,3.391,2.103,6.684,3.906,9.78c3.913,6.716,9.762,11.854,16.917,14.855
	c0.872,0.365,1.776,0.54,2.665,0.54c2.694,0,5.254-1.589,6.361-4.229C332.788,338.316,331.136,334.274,327.625,332.802z"/>
<g>
</g>
<g>
</g>
<g>
</g>
<g>
</g>
<g>
</g>
<g>
</g>
<g>
</g>
<g>
</g>
<g>
</g>
<g>
</g>
<g>
</g>
<g>
</g>
<g>
</g>
<g>
</g>
<g>
</g>
</svg>
