<?xml version="1.0" encoding="iso-8859-1"?>
<!-- Generator: Adobe Illustrator 19.0.0, SVG Export Plug-In . SVG Version: 6.00 Build 0)  -->
<svg version="1.1" id="Layer_1" xmlns="http://www.w3.org/2000/svg" xmlns:xlink="http://www.w3.org/1999/xlink" x="0px" y="0px"
	 viewBox="0 0 512 512" style="enable-background:new 0 0 512 512;" xml:space="preserve">
<circle style="fill:#273B7A;" cx="256" cy="256" r="256"/>
<path style="fill:#121149;" d="M154.721,355.837L305.99,507.106c101.283-20.051,181.067-99.837,201.118-201.119L357.136,156.015
	L154.721,355.837z"/>
<circle style="fill:#FFC61B;" cx="256" cy="256" r="142.222"/>
<path style="fill:#EAA22F;" d="M398.222,256c0-78.546-63.674-142.222-142.222-142.222v284.444
	C334.548,398.222,398.222,334.546,398.222,256z"/>
<circle style="fill:#FFEDB5;" cx="193.939" cy="227.556" r="31.03"/>
<circle style="fill:#272525;" cx="193.939" cy="227.556" r="15.515"/>
<circle style="fill:#FFEDB5;" cx="318.061" cy="227.556" r="31.03"/>
<circle style="fill:#272525;" cx="318.061" cy="227.556" r="15.515"/>
<path style="fill:#C92F00;" d="M208.594,317.547c-1.845,0-3.684-0.736-5.042-2.191c-2.6-2.782-2.45-7.147,0.334-9.745
	c30.632-28.6,97.056-25.683,99.857-25.55c3.803,0.186,6.734,3.419,6.549,7.221c-0.183,3.803-3.432,6.735-7.22,6.553
	c-0.626-0.026-63.41-2.758-89.774,21.857C211.97,316.933,210.28,317.547,208.594,317.547z"/>
<path style="fill:#930000;" d="M303.745,280.061c-1.586-0.076-23.561-1.038-47.887,3.325v14.027
	c23.926-4.582,46.839-3.594,47.216-3.579c3.787,0.183,7.037-2.75,7.22-6.553C310.479,283.479,307.548,280.247,303.745,280.061z"/>
<g>
	<path style="fill:#272525;" d="M162.48,220.231c-2.757,0-5.358-1.664-6.423-4.384c-1.389-3.548,0.362-7.547,3.908-8.935
		c21.79-8.526,24.033-22.313,24.117-22.897c0.421-3.784,3.846-6.442,7.608-6.035c3.786,0.421,6.506,3.886,6.085,7.67
		c-0.102,0.909-2.817,22.378-32.785,34.104C164.166,220.077,163.316,220.231,162.48,220.231z"/>
	<path style="fill:#272525;" d="M349.518,220.231c-0.836,0-1.686-0.153-2.512-0.476c-29.968-11.726-32.684-33.196-32.785-34.104
		c-0.421-3.784,2.307-7.194,6.092-7.614c3.743-0.421,7.137,2.263,7.602,5.996c0.117,0.772,2.488,14.419,24.116,22.881
		c3.546,1.388,5.296,5.387,3.908,8.935C354.878,218.567,352.275,220.231,349.518,220.231z"/>
</g>
<g>
</g>
<g>
</g>
<g>
</g>
<g>
</g>
<g>
</g>
<g>
</g>
<g>
</g>
<g>
</g>
<g>
</g>
<g>
</g>
<g>
</g>
<g>
</g>
<g>
</g>
<g>
</g>
<g>
</g>
</svg>
