<?xml version="1.0" encoding="iso-8859-1"?>
<!-- Generator: Adobe Illustrator 19.0.0, SVG Export Plug-In . SVG Version: 6.00 Build 0)  -->
<svg version="1.1" id="Layer_1" xmlns="http://www.w3.org/2000/svg" xmlns:xlink="http://www.w3.org/1999/xlink" x="0px" y="0px"
	 viewBox="0 0 512 512" style="enable-background:new 0 0 512 512;" xml:space="preserve">
<circle style="fill:#273B7A;" cx="256" cy="256" r="256"/>
<path style="fill:#121149;" d="M154.721,355.837L305.99,507.106c101.283-20.051,181.067-99.837,201.118-201.119L357.136,156.015
	L154.721,355.837z"/>
<circle style="fill:#FFC61B;" cx="256" cy="256" r="142.222"/>
<path style="fill:#EAA22F;" d="M398.222,256c0-78.546-63.674-142.222-142.222-142.222v284.444
	C334.548,398.222,398.222,334.546,398.222,256z"/>
<path style="fill:#C92F00;" d="M310.084,290.047c11.688,0,20.113,11.357,16.57,22.495c-9.525,29.943-37.555,51.633-70.653,51.633
	s-61.128-21.692-70.653-51.633c-3.543-11.138,4.88-22.495,16.57-22.495H310.084z"/>
<path style="fill:#930000;" d="M310.084,290.047h-54.225v74.125c0.048,0,0.095,0.003,0.143,0.003
	c33.097,0,61.128-21.692,70.653-51.633C330.197,301.404,321.772,290.047,310.084,290.047z"/>
<circle style="fill:#FFEDB5;" cx="312.889" cy="227.556" r="28.444"/>
<g>
	<circle style="fill:#272525;" cx="312.889" cy="227.556" r="14.222"/>
	<path style="fill:#272525;" d="M227.556,235.313c-4.284,0-7.758-3.474-7.758-7.758c0-8.556-6.959-15.515-15.515-15.515
		s-15.515,6.959-15.515,15.515c0,4.284-3.474,7.758-7.758,7.758s-7.758-3.474-7.758-7.758c0-17.11,13.921-31.03,31.03-31.03
		s31.03,13.921,31.03,31.03C235.313,231.839,231.841,235.313,227.556,235.313z"/>
</g>
<path style="fill:#FF6262;" d="M256,407.704L256,407.704c-20.945,0-37.926-16.98-37.926-37.926v-79.731h75.852v79.731
	C293.926,390.723,276.947,407.704,256,407.704z"/>
<g>
	<path style="fill:#FF314F;" d="M255.857,290.047V407.7c0.048,0,0.095,0.003,0.143,0.003c20.945,0,37.926-16.98,37.926-37.926
		v-79.731H255.857z"/>
	<path style="fill:#FF314F;" d="M256,376.673c-3.808,0-6.896-3.088-6.896-6.896v-56.889c0-3.808,3.088-6.896,6.896-6.896
		c3.808,0,6.896,3.088,6.896,6.896v56.889C262.896,373.586,259.808,376.673,256,376.673z"/>
</g>
<path style="fill:#A30F44;" d="M256,305.993c-0.048,0-0.095,0.014-0.143,0.014v70.651c0.048,0,0.095,0.014,0.143,0.014
	c3.808,0,6.896-3.088,6.896-6.896v-56.889C262.896,309.081,259.808,305.993,256,305.993z"/>
<g>
</g>
<g>
</g>
<g>
</g>
<g>
</g>
<g>
</g>
<g>
</g>
<g>
</g>
<g>
</g>
<g>
</g>
<g>
</g>
<g>
</g>
<g>
</g>
<g>
</g>
<g>
</g>
<g>
</g>
</svg>
