<?xml version="1.0" encoding="iso-8859-1"?>
<!-- Generator: Adobe Illustrator 19.0.0, SVG Export Plug-In . SVG Version: 6.00 Build 0)  -->
<svg version="1.1" id="Layer_1" xmlns="http://www.w3.org/2000/svg" xmlns:xlink="http://www.w3.org/1999/xlink" x="0px" y="0px"
	 viewBox="0 0 512 512" style="enable-background:new 0 0 512 512;" xml:space="preserve">
<circle style="fill:#273B7A;" cx="256" cy="256" r="256"/>
<path style="fill:#121149;" d="M154.721,355.837L305.99,507.106c101.283-20.051,181.067-99.837,201.118-201.119L357.136,156.015
	L154.721,355.837z"/>
<circle style="fill:#FFC61B;" cx="256" cy="256" r="142.222"/>
<path style="fill:#EAA22F;" d="M398.222,256c0-78.546-63.674-142.222-142.222-142.222v284.444
	C334.548,398.222,398.222,334.546,398.222,256z"/>
<path style="fill:#272525;" d="M340.154,234.453c-1.146,0-2.31-0.288-3.381-0.891c-18.925-10.669-42.141-9.692-42.379-9.683
	c-2.608,0.124-5.075-1.239-6.353-3.529c-1.276-2.286-1.146-5.099,0.334-7.258c0.753-1.098,18.856-26.796,54.412-19.118
	c3.724,0.805,6.087,4.475,5.284,8.197c-0.805,3.725-4.487,6.092-8.197,5.284c-12.438-2.693-21.983,0.028-28.638,3.701
	c9.435,1.329,21.352,4.212,32.308,10.39c3.317,1.87,4.489,6.075,2.62,9.394C344.9,233.189,342.561,234.453,340.154,234.453z"/>
<circle style="fill:#FFEDB5;" cx="199.111" cy="216.35" r="31.03"/>
<circle style="fill:#272525;" cx="199.111" cy="216.35" r="15.515"/>
<path style="fill:#C92F00;" d="M250.983,350.323c-7.63,0-15.817-0.679-24.602-2.195c-3.753-0.648-6.27-4.215-5.622-7.968
	s4.224-6.277,7.968-5.622c34.351,5.927,62.65-1.136,84.109-21.001c15.986-14.8,21.938-31.234,21.997-31.399
	c1.271-3.587,5.21-5.461,8.802-4.196c3.589,1.272,5.466,5.215,4.194,8.804c-0.283,0.802-7.171,19.827-25.624,36.911
	C308.269,336.562,285.341,350.323,250.983,350.323z"/>
<path style="fill:#930000;" d="M343.638,277.944c-3.593-1.265-7.532,0.609-8.802,4.196c-0.059,0.165-6.01,16.599-21.997,31.399
	c-15.413,14.267-34.373,21.892-56.551,22.883v13.769c31.42-1.333,52.712-14.307,65.919-26.531
	c18.453-17.084,25.341-36.109,25.624-36.911C349.105,283.16,347.227,279.218,343.638,277.944z"/>
<g>
</g>
<g>
</g>
<g>
</g>
<g>
</g>
<g>
</g>
<g>
</g>
<g>
</g>
<g>
</g>
<g>
</g>
<g>
</g>
<g>
</g>
<g>
</g>
<g>
</g>
<g>
</g>
<g>
</g>
</svg>
