<svg height="512pt" viewBox="0 0 512 512.00048" width="512pt" xmlns="http://www.w3.org/2000/svg"><path d="m512 256c0 141.386719-114.613281 256-256 256-86.695312 0-163.316406-43.097656-209.628906-109.03125-4.1875-5.960938-6.371094-13.097656-6.371094-20.378906v-59.984375c0-12.484375-10.121094-22.605469-22.605469-22.605469-8.007812 0-14.710937-6.019531-15.640625-13.972656-1.15625-9.851563-1.753906-19.867188-1.753906-30.027344 0-141.382812 114.613281-256 256-256 141.039062 0 256 114.960938 256 256zm0 0" fill="#d80d80"/><path d="m419.339844 198.042969 9.277344 17.71875c3.84375 7.335937 1.011718 16.402343-6.324219 20.246093l-115.160157 60.320313c-7.335937 3.84375-16.402343 1.011719-20.246093-6.324219l-9.28125-17.71875c-3.84375-7.335937-1.011719-16.402344 6.328125-20.246094l115.15625-60.324218c7.339844-3.84375 16.40625-1.011719 20.25 6.328125zm0 0" fill="#98e5fb"/><path d="m404.832031 120.933594v59.066406h-41v-59.066406c-28.65625-8.765625-49.5-35.417969-49.5-66.941406 0-20.738282 9.023438-39.363282 23.351563-52.179688 4.675781-4.179688 11.957031-.640625 11.683594 5.621094-.023438.515625-.035157 1.035156-.035157 1.558594v30c0 19.328124 15.671875 35 35 35 19.332031 0 35-15.671876 35-35v-30c0-.523438-.011719-1.042969-.03125-1.558594-.277343-6.261719 7.007813-9.800782 11.679688-5.621094 14.332031 12.816406 23.351562 31.441406 23.351562 52.179688 0 31.523437-20.839843 58.175781-49.5 66.941406zm0 0" fill="#7daebd"/><path d="m454.332031 53.992188c0 10.792968-2.445312 21.015624-6.808593 30.144531-11.398438 9.875-26.257813 15.863281-42.523438 15.863281-35.898438 0-65-29.101562-65-65 0-11.527344 3.011719-22.34375 8.273438-31.730469.742187 1.160157 1.164062 2.574219 1.09375 4.164063-.023438.519531-.035157 1.035156-.035157 1.558594v30c0 19.332031 15.671875 35 35 35 19.332031 0 35-15.667969 35-35v-30c0-.519532-.011719-1.039063-.03125-1.558594-.277343-6.261719 7.007813-9.800782 11.679688-5.621094 14.332031 12.816406 23.351562 31.441406 23.351562 52.179688zm-59.332031 76.007812c-5.523438 0-10 4.476562-10 10v60c0 5.523438 4.476562 10 10 10s10-4.476562 10-10v-60c0-5.523438-4.476562-10-10-10zm0 0" fill="#95bcc9"/><path d="m330 260v180h-60v-180h10c0-11.046875 8.953125-20 20-20s20 8.953125 20 20zm0 0" fill="#08a8f0"/><path d="m330 403.332031v36.667969h-60v-36.667969zm0 0" fill="#017bad"/><path d="m444.332031 230v230c0 22.089844-17.90625 40-40 40h-40c-22.089843 0-40-17.910156-40-40v-230c0-15.105469 8.378907-28.253906 20.738281-35.058594-4.125-3.664062-6.738281-8.992187-6.738281-14.941406 0-11.046875 8.957031-20 20-20h52c11.046875 0 20 8.953125 20 20 0 5.949219-2.613281 11.277344-6.734375 14.941406 12.359375 6.804688 20.734375 19.953125 20.734375 35.058594zm0 0" fill="#fda800"/><path d="m423.597656 194.941406c4.023438-3.574218 6.609375-8.734375 6.730469-14.511718.238281-11.234376-9.261719-20.429688-20.496094-20.429688h-21.007812c-10.890625 0-20.15625 8.5-20.480469 19.386719-.183594 6.082031 2.359375 11.566406 6.488281 15.347656.917969.839844.808594 2.3125-.199219 3.054687-9.882812 7.28125-16.296874 18.992188-16.296874 32.210938v230c0 22.089844 17.90625 40 40 40h6c22.089843 0 40-17.910156 40-40v-230c-.003907-15.105469-8.378907-28.253906-20.738282-35.058594zm-15.265625 255.058594c0 8.285156-6.714843 15-15 15-8.28125 0-15-6.714844-15-15v-210c0-8.285156 6.71875-15 15-15 8.285157 0 15 6.714844 15 15zm0 0" fill="#fdbf43"/><path d="m290 260v180c0 5.523438-4.476562 10-10 10h-30c-49.707031 0-90-40.292969-90-90v-20c0-49.707031 40.292969-90 90-90h30c5.523438 0 10 4.476562 10 10zm-210 25h-78.355469c5.011719 44.441406 21.390625 85.433594 46.171875 120h32.183594c22.089844 0 40-17.910156 40-40v-40c0-22.089844-17.910156-40-40-40zm0 0" fill="#98e5fb"/><path d="m449 300c8.285156 0 15 6.714844 15 15v20c0 8.285156-6.714844 15-15 15 8.285156 0 15 6.714844 15 15v20c0 8.285156-6.714844 15-15 15 8.285156 0 15 6.714844 15 15v20c0 8.285156-6.714844 15-15 15h-124c-11.046875 0-20-8.953125-20-20v-10c0-11.046875 8.953125-20 20-20-11.046875 0-20-8.953125-20-20v-10c0-11.046875 8.953125-20 20-20-11.046875 0-20-8.953125-20-20v-10c0-11.046875 8.953125-20 20-20-11.046875 0-20-8.953125-20-20v-10c0-11.046875 8.953125-20 20-20h124c8.285156 0 15 6.714844 15 15v20c0 8.285156-6.714844 15-15 15zm0 0" fill="#98e5fb"/><path d="m290 260v132.027344c0 5.507812-4.476562 9.972656-10 9.972656-49.707031 0-90-40.195312-90-89.773438v-19.949218c0-7.46875.929688-14.710938 2.65625-21.644532 14.921875-12.351562 33.898438-19.976562 54.636719-20.589843.902343-.019531 1.800781-.042969 2.707031-.042969h30c5.523438 0 10 4.476562 10 10zm-160 35c-27.613281 0-50 22.386719-50 50s22.386719 50 50 50 50-22.386719 50-50-22.386719-50-50-50zm-100.699219 80h12.945313c6.46875 0 11.152344-6.03125 9.722656-12.339844-1.285156-5.679687-1.96875-11.589844-1.96875-17.660156 0-23.902344 10.496094-45.339844 27.113281-60h-75.46875c3.628907 32.1875 13.226563 62.5625 27.65625 90zm419.699219 25h-76.667969c-8.28125 0-15 6.714844-15 15s6.71875 15 15 15h76.667969c8.285156 0 15-6.714844 15-15s-6.714844-15-15-15zm0-50h-76.667969c-8.28125 0-15 6.714844-15 15s6.71875 15 15 15h76.667969c8.285156 0 15-6.714844 15-15s-6.714844-15-15-15zm0-50h-76.667969c-8.28125 0-15 6.714844-15 15s6.71875 15 15 15h76.667969c8.285156 0 15-6.714844 15-15s-6.714844-15-15-15zm0-50h-76.667969c-8.28125 0-15 6.714844-15 15s6.71875 15 15 15h76.667969c8.285156 0 15-6.714844 15-15s-6.714844-15-15-15zm0 0" fill="#c7eefd"/><path d="m130 375c-16.570312 0-30-13.429688-30-30s13.429688-30 30-30 30 13.429688 30 30-13.429688 30-30 30zm0 0" fill="#01cffa"/><path d="m130 365c-11.046875 0-20-8.953125-20-20s8.953125-20 20-20 20 8.953125 20 20-8.953125 20-20 20zm0 0" fill="#08a8f0"/><path d="m404 250v200h-20v-200zm0 0" fill="#08a8f0"/><path d="m384 430h20v20h-20zm0-30h20v-20h-20zm0-50h20v-20h-20zm0-70v20h20v-20zm0 0" fill="#017bad"/></svg>