<svg height="512pt" viewBox="0 -6 512 512" width="512pt" xmlns="http://www.w3.org/2000/svg"><path d="m500.757812 250.378906c0 138.28125-112.097656 250.378906-250.378906 250.378906-54.265625 0-104.496094-17.261718-145.503906-46.59375-15.90625-11.378906-67.738281-70.960937-77-88.863281-17.8125-34.414062-27.875-73.492187-27.875-114.921875 0-138.28125 112.097656-250.378906 250.378906-250.378906s250.378906 112.097656 250.378906 250.378906zm0 0" fill="#915cb3"/><path d="m512 240.007812c0 57.808594-46.863281 104.671876-104.675781 104.671876h-60.886719c0 .054687.003906.109374.003906.160156 0 29.347656-23.789062 53.136718-53.132812 53.136718h-97.101563c-22.28125 28.527344-54.433593 48.972657-91.328125 56.179688-32.183594-23.019531-58.683594-53.476562-76.992187-88.855469v-124c0-.089843.011719-.171875.011719-.261719-.003907-.34375-.011719-.6875-.011719-1.03125 0-48.742187 33.316406-89.703124 78.417969-101.351562 10.425781-46.816406 52.183593-81.828125 102.140624-81.828125 23.871094 0 45.84375 8.027344 63.453126 21.480469 19.15625-29.304688 52.25-48.671875 89.875-48.671875 59.261718 0 107.304687 48.042969 107.304687 107.304687 0 5.972656-.496094 11.824219-1.433594 17.53125 26.828125 18.953125 44.355469 50.191406 44.355469 85.535156zm0 0" fill="#83e3ea"/><path d="m300 397.539062c-2.191406.277344-4.421875.4375-6.691406.4375h-97.101563c-22.28125 28.527344-54.433593 48.972657-91.328125 56.179688-32.183594-23.019531-58.683594-53.476562-76.992187-88.855469v-124c0-.089843.011719-.171875.011719-.261719-.003907-.34375-.011719-.6875-.011719-1.03125 0-47.265624 31.328125-87.210937 74.351562-100.210937-7.296875 19.8125-11.285156 41.226563-11.285156 63.574219v10.21875c0 101.59375 82.359375 183.949218 183.953125 183.949218zm0 0" fill="#2fcbe0"/><path d="m58.25 197.238281c0-5.644531 4.578125-10.21875 10.222656-10.21875 5.644532 0 10.21875 4.574219 10.21875 10.21875s-4.574218 10.21875-10.21875 10.21875c-5.644531 0-10.222656-4.574219-10.222656-10.21875zm38.835938-18.394531c5.644531 0 10.21875-4.578125 10.21875-10.222656 0-5.644532-4.574219-10.21875-10.21875-10.21875-5.644532 0-10.21875 4.574218-10.21875 10.21875 0 5.644531 4.574218 10.222656 10.21875 10.222656zm65.40625-67.449219c5.644531 0 10.21875-4.578125 10.21875-10.222656 0-5.640625-4.574219-10.21875-10.21875-10.21875-5.644532 0-10.222657 4.578125-10.222657 10.21875 0 5.644531 4.578125 10.222656 10.222657 10.222656zm194.171874-20.441406c5.644532 0 10.21875-4.574219 10.21875-10.21875s-4.574218-10.21875-10.21875-10.21875c-5.644531 0-10.222656 4.574219-10.222656 10.21875s4.578125 10.21875 10.222656 10.21875zm-301.539062 153.292969c5.640625 0 10.21875-4.574219 10.21875-10.21875 0-5.644532-4.578125-10.21875-10.21875-10.21875-5.644531 0-10.222656 4.574218-10.222656 10.21875 0 5.644531 4.578125 10.21875 10.222656 10.21875zm233.917969-96.917969c-11.953125-11.957031-11.953125-31.40625 0-43.359375 2.5625-2.5625 5.46875-4.566406 8.566406-6.03125v-46.992188c6.316406-4.71875 13.164063-8.761718 20.441406-12.015624v56.957031c5.261719 1.285156 10.246094 3.980469 14.351563 8.082031 11.953125 11.953125 11.953125 31.402344 0 43.359375-11.953125 11.953125-31.40625 11.953125-43.359375 0zm14.453125-14.453125c3.984375 3.984375 10.46875 3.984375 14.453125 0s3.984375-10.46875 0-14.453125-10.46875-3.984375-14.453125 0-3.984375 10.46875 0 14.453125zm-141.003906 9.175781c5.644531 0 10.21875-4.574219 10.21875-10.21875s-4.574219-10.21875-10.21875-10.21875c-5.644532 0-10.222657 4.574219-10.222657 10.21875s4.578125 10.21875 10.222657 10.21875zm235.046874 153.292969c-5.640624 0-10.21875 4.578125-10.21875 10.222656 0 5.644532 4.578126 10.21875 10.21875 10.21875 5.644532 0 10.222657-4.574218 10.222657-10.21875 0-5.644531-4.578125-10.222656-10.222657-10.222656zm-18.738281-52.71875c2.8125 4.632812 4.433594 10.0625 4.433594 15.863281 0 16.90625-13.753906 30.65625-30.660156 30.65625s-30.65625-13.75-30.65625-30.65625 13.75-30.660156 30.65625-30.660156c3.621093 0 7.097656.636719 10.324219 1.792969l49.898437-49.898438c1.917969-1.914062 4.515625-2.992187 7.226563-2.992187h70.683593c4.78125 6.292969 8.863281 13.144531 12.140625 20.441406h-78.589844zm-16.007812 15.863281c0-5.636719-4.582031-10.21875-10.21875-10.21875-5.632813 0-10.21875 4.582031-10.21875 10.21875 0 5.632813 4.585937 10.21875 10.21875 10.21875 5.636719 0 10.21875-4.585937 10.21875-10.21875zm102.367187-25.714843c11.953125 11.953124 11.953125 31.40625 0 43.359374-2.558594 2.558594-5.46875 4.566407-8.566406 6.03125v50.214844c-6.441406 3.445313-13.285156 6.234375-20.441406 8.28125v-56.445312c-5.261719-1.285156-10.246094-3.980469-14.347656-8.082032-11.957032-11.953124-11.957032-31.402343 0-43.359374 11.953124-11.953126 31.402343-11.953126 43.355468 0zm-14.453125 14.453124c-3.984375-3.984374-10.46875-3.984374-14.453125 0-3.984375 3.984376-3.984375 10.46875 0 14.453126 3.984375 3.984374 10.46875 3.984374 14.453125 0 3.984375-3.984376 3.984375-10.46875 0-14.453126zm-92.789062 67.332032c11.953125 11.953125 11.953125 31.402344 0 43.359375-11.957031 11.953125-31.40625 11.953125-43.359375 0-2.5625-2.5625-4.570313-5.46875-6.03125-8.570313h-70.566406c-2.710938 0-5.3125-1.078125-7.226563-2.992187l-63.492187-63.488281-17.964844 17.964843c-3.992188 3.992188-10.460938 3.992188-14.453125 0-3.992188-3.988281-3.992188-10.460937 0-14.453125l17.96875-17.964844-1.550781-1.546874c-3.988282-3.992188-3.988282-10.464844 0-14.453126 3.992187-3.992187 10.464843-3.992187 14.453124 0l1.546876 1.546876 39.238281-39.234376c-1.917969-1.859374-3.113281-4.457031-3.113281-7.335937 0-4.863281 3.402343-8.925781 7.953124-9.957031v-51.832032c-5.261718-1.285156-10.246093-3.980468-14.347656-8.082031-11.957031-11.953125-11.957031-31.40625 0-43.359375 11.953125-11.953125 31.402344-11.953125 43.355469 0s11.953125 31.40625 0 43.359375c-2.5625 2.558594-5.46875 4.566407-8.566406 6.03125v53.621094h90.007812l58.882813-58.886719c-2.808594-4.628906-4.429688-10.058594-4.429688-15.859375 0-16.90625 13.753906-30.660156 30.660156-30.660156 16.902344 0 30.65625 13.753906 30.65625 30.660156 0 16.902344-13.753906 30.65625-30.65625 30.65625-3.621093 0-7.097656-.636719-10.324218-1.792969l-63.328125 63.328126c-1.917969 1.914062-4.515625 2.992187-7.226563 2.992187h-94.871094c-.507812 1.390625-1.300781 2.667969-2.367187 3.734375l-47.070313 47.070312 60.496094 60.496094h64.285156c1.285157-5.265625 3.980469-10.25 8.082032-14.351562 11.953125-11.953125 31.402344-11.953125 43.359375 0zm38.746093-192.136719c0 5.636719 4.582032 10.222656 10.21875 10.222656 5.636719 0 10.21875-4.585937 10.21875-10.222656 0-5.632813-4.582031-10.21875-10.21875-10.21875-5.636718 0-10.21875 4.585937-10.21875 10.21875zm-185.238281.644531c3.984375 3.984375 10.464844 3.984375 14.449219 0 3.988281-3.984375 3.988281-10.46875 0-14.453125-3.984375-3.984375-10.464844-3.984375-14.449219 0s-3.984375 10.46875 0 14.453125zm132.039063 205.945313c-3.984375-3.984375-10.46875-3.984375-14.453125 0s-3.984375 10.46875 0 14.453125 10.46875 3.984375 14.453125 0 3.984375-10.46875 0-14.453125zm-272.949219-13.226563c0-5.644531-4.574219-10.21875-10.21875-10.21875h-32.410156v20.4375h32.410156c5.644531 0 10.21875-4.574218 10.21875-10.21875zm47.273437 49.871094c11.957032 11.953125 11.957032 31.40625 0 43.359375-11.953124 11.953125-31.402343 11.953125-43.355468 0s-11.953125-31.402344 0-43.359375c2.5625-2.558594 5.46875-4.566406 8.566406-6.03125v-70.566406c.003906-2.710938 1.078125-5.3125 2.996094-7.226563l79.488281-79.492187c3.992187-3.988282 10.460937-3.988282 14.453125 0 3.988281 3.992187 3.988281 10.464844 0 14.453125l-76.496094 76.496093v64.285157c5.261719 1.285156 10.246094 3.980469 14.347656 8.082031zm-14.449218 14.453125c-3.984375-3.984375-10.46875-3.984375-14.453125 0s-3.984375 10.46875 0 14.453125 10.46875 3.984375 14.453125 0c3.980468-3.984375 3.984375-10.46875 0-14.453125zm-32.824219-105.203125c0-5.644531-4.574219-10.21875-10.21875-10.21875h-32.410156v20.4375h32.410156c5.644531 0 10.21875-4.574219 10.21875-10.21875zm0 0" fill="#0db2cc"/><path d="m285.125 264.6875c0 56.441406-45.753906 102.195312-102.195312 102.195312-56.441407 0-102.195313-45.753906-102.195313-102.195312s45.753906-102.195312 102.195313-102.195312c56.441406 0 102.195312 45.753906 102.195312 102.195312zm0 0" fill="#d2fcff"/><path d="m182.929688 186.535156c-43.160157 0-78.148438 34.988282-78.148438 78.152344 0 43.160156 34.988281 78.148438 78.148438 78.148438 43.160156 0 78.152343-34.988282 78.152343-78.148438 0-43.164062-34.992187-78.152344-78.152343-78.152344zm0 132.253906c-29.878907 0-54.101563-24.222656-54.101563-54.101562 0-29.882812 24.222656-54.105469 54.101563-54.105469 29.878906 0 54.105468 24.226563 54.105468 54.105469s-24.222656 54.101562-54.105468 54.101562zm0 0" fill="#03bdd6"/><path d="m261.070312 263.578125c.605469 43.667969-34.609374 79.257813-78.140624 79.257813-9.429688 0-18.46875-1.675782-26.835938-4.738282-8.277344-3.035156-10.667969-13.589844-4.433594-19.824218l.007813-.007813c3.308593-3.304687 8.230469-4.394531 12.621093-2.78125 5.808594 2.136719 12.089844 3.304687 18.640626 3.304687 30.558593 0 55.199218-25.335937 54.066406-56.144531-1.015625-27.65625-23.246094-50.378906-50.878906-51.96875-7.640626-.441406-14.957032.710938-21.660157 3.148438-4.457031 1.621093-9.441406.628906-12.796875-2.726563-6.207031-6.203125-3.886718-16.761718 4.347656-19.789062 9.46875-3.480469 19.796876-5.179688 30.582032-4.6875 41.027344 1.875 73.914062 35.894531 74.480468 76.957031zm-98.578124 27.933594c0 2.824219 2.285156 5.109375 5.109374 5.109375h30.65625c2.824219 0 5.113282-2.285156 5.113282-5.109375v-5.109375c0-2.820313-2.289063-5.109375-5.113282-5.109375h-30.65625c-2.824218 0-5.109374 2.289062-5.109374 5.109375zm0-24.269531c0 2.820312 2.285156 5.109374 5.109374 5.109374h30.65625c2.824219 0 5.113282-2.289062 5.113282-5.109374v-5.109376c0-2.824218-2.289063-5.109374-5.113282-5.109374h-30.65625c-2.824218 0-5.109374 2.285156-5.109374 5.109374zm5.109374-19.164063h30.65625c2.824219 0 5.113282-2.285156 5.113282-5.109375v-5.109375c0-2.820313-2.289063-5.109375-5.113282-5.109375h-30.65625c-2.824218 0-5.109374 2.289062-5.109374 5.109375v5.109375c0 2.824219 2.285156 5.109375 5.109374 5.109375zm0 0" fill="#2fcbe0"/></svg>