<svg height="512pt" viewBox="0 0 512 512.00091" width="512pt" xmlns="http://www.w3.org/2000/svg"><path d="m500.574219 270.472656c-7.996094 135.074219-123.972657 238.09375-259.046875 230.097656-135.074219-7.992187-238.09375-123.96875-230.101563-259.042968 7.996094-135.074219 123.972657-238.09375 259.046875-230.097656 135.074219 7.992187 238.09375 123.96875 230.101563 259.042968zm0 0" fill="#0573cd"/><path d="m256 181c-41.421875 0-75 33.578125-75 75s33.578125 75 75 75 75-33.578125 75-75-33.578125-75-75-75zm0 110c-19.328125 0-35-15.667969-35-35 0-19.328125 15.671875-35 35-35 19.332031 0 35 15.671875 35 35 0 19.332031-15.667969 35-35 35zm0 0" fill="#83e3ea"/><path d="m437.046875 438.691406c1.835937 2.066406 1.648437 5.226563-.417969 7.0625l-7.476562 6.640625c-2.0625 1.832031-5.222656 1.644531-7.058594-.417969l-41.246094-46.433593c-1.832031-2.066407-1.644531-5.226563.417969-7.0625l7.476563-6.640625c2.066406-1.832032 5.226562-1.644532 7.058593.417968zm56.015625-80.429687-55.875-27.113281c-2.484375-1.207032-5.476562-.167969-6.683594 2.316406l-4.363281 8.996094c-1.207031 2.484374-.171875 5.472656 2.3125 6.679687l55.878906 27.117187c2.484375 1.203126 5.472657.167969 6.679688-2.316406l4.367187-8.996094c1.203125-2.484374.167969-5.476562-2.316406-6.683593zm-158.882812 74.617187c-.902344-2.609375-3.75-3.988281-6.359376-3.085937l-9.449218 3.273437c-2.609375.90625-3.992188 3.753906-3.085938 6.363282l20.335938 58.683593c.902344 2.609375 3.75 3.992188 6.363281 3.085938l9.445313-3.273438c2.609374-.90625 3.992187-3.753906 3.089843-6.363281zm174.082031-121.453125-60.089844-15.695312c-2.671875-.699219-5.40625.902343-6.101563 3.574219l-2.527343 9.675781c-.699219 2.671875.902343 5.402343 3.574219 6.101562l60.089843 15.691407c2.671875.699218 5.40625-.898438 6.101563-3.570313l2.527344-9.679687c.699218-2.667969-.902344-5.402344-3.574219-6.097657zm-141.269531 104.179688c-1.398438-2.382813-4.460938-3.183594-6.84375-1.789063l-8.628907 5.054688c-2.382812 1.398437-3.179687 4.460937-1.785156 6.84375l31.394531 53.585937c1.394532 2.382813 4.457032 3.183594 6.839844 1.789063l8.628906-5.054688c2.382813-1.398437 3.183594-4.457031 1.789063-6.84375zm102.023437-14.371094-49.511719-37.492187c-2.203125-1.667969-5.339844-1.234376-7.003906.964843l-6.039062 7.972657c-1.667969 2.203124-1.234376 5.339843.96875 7.003906l49.511718 37.496094c2.199219 1.667968 5.335938 1.234374 7.003906-.964844l6.039063-7.972656c1.667969-2.203126 1.230469-5.339844-.96875-7.007813zm-170.386719 42.191406c-.375-2.738281-2.902344-4.648437-5.636718-4.269531l-9.90625 1.367188c-2.734376.378906-4.644532 2.902343-4.265626 5.636718l8.496094 61.523438c.378906 2.738281 2.902344 4.648437 5.636719 4.269531l9.90625-1.367187c2.734375-.378907 4.644531-2.902344 4.269531-5.636719zm-65.535156-289.894531c5.390625-1.207031 8.78125-6.550781 7.578125-11.941406-1.207031-5.390625-6.550781-8.78125-11.941406-7.578125s-8.78125 6.550781-7.578125 11.941406c1.207031 5.390625 6.550781 8.78125 11.941406 7.578125zm45.8125 204.941406c-5.390625 1.203125-8.78125 6.550782-7.578125 11.941406 1.207031 5.386719 6.550781 8.78125 11.941406 7.578126 5.390625-1.207032 8.78125-6.554688 7.578125-11.941407-1.203125-5.390625-6.550781-8.785156-11.941406-7.578125zm87.140625-137.320312c-5.386719 1.207031-8.78125 6.550781-7.578125 11.941406 1.207031 5.390625 6.550781 8.78125 11.941406 7.578125s8.785156-6.550781 7.578125-11.941406c-1.203125-5.390625-6.550781-8.78125-11.941406-7.578125zm-220.09375 69.695312c5.390625-1.203125 8.78125-6.550781 7.578125-11.941406-1.207031-5.390625-6.550781-8.78125-11.941406-7.578125-5.390625 1.207031-8.78125 6.550781-7.578125 11.941406s6.550781 8.785157 11.941406 7.578125zm177.023437-140.390625c-4.660156-2.957031-10.839843-1.578125-13.800781 3.085938-2.960937 4.664062-1.578125 10.84375 3.085938 13.800781 4.660156 2.960938 10.839843 1.578125 13.800781-3.082031 2.957031-4.664063 1.578125-10.84375-3.085938-13.804688zm-133.953124 211.085938c4.664062 2.957031 10.84375 1.578125 13.800781-3.085938 2.960937-4.664062 1.578125-10.839843-3.082031-13.800781-4.664063-2.960938-10.84375-1.578125-13.800782 3.085938-2.960937 4.660156-1.582031 10.839843 3.082032 13.800781zm169.433593-52.367188c-4.664062-2.957031-10.839843-1.578125-13.800781 3.085938-2.960938 4.664062-1.578125 10.839843 3.085938 13.800781 4.660156 2.960938 10.839843 1.578125 13.800781-3.085938 2.957031-4.664062 1.578125-10.839843-3.085938-13.800781zm-204.914062-106.351562c4.664062 2.960937 10.84375 1.578125 13.800781-3.082031 2.960938-4.664063 1.578125-10.84375-3.082031-13.804688-4.664063-2.957031-10.84375-1.578125-13.804688 3.085938-2.957031 4.664062-1.578125 10.84375 3.085938 13.800781zm123.945312-69.964844c-5.441406-.945313-10.621093 2.691406-11.570312 8.132813-.949219 5.441406 2.691406 10.621093 8.132812 11.570312 5.441407.949219 10.621094-2.691406 11.570313-8.132812.949218-5.4375-2.691406-10.617188-8.132813-11.570313zm-42.976562 246.28125c5.441406.949219 10.621093-2.691406 11.570312-8.132813.949219-5.441406-2.691406-10.621093-8.132812-11.570312-5.441407-.949219-10.621094 2.691406-11.570313 8.132812-.949218 5.441407 2.691406 10.621094 8.132813 11.570313zm144.628906-101.648437c.949219-5.441407-2.691406-10.621094-8.132813-11.570313-5.441406-.953125-10.621093 2.6875-11.570312 8.128906-.949219 5.441407 2.691406 10.621094 8.132812 11.570313 5.441407.949218 10.621094-2.691406 11.570313-8.128906zm-246.277344-42.980469c-.949219 5.441406 2.6875 10.621093 8.128907 11.570312 5.441406.949219 10.621093-2.691406 11.570312-8.132812.949219-5.441407-2.691406-10.621094-8.132812-11.570313-5.4375-.949218-10.621094 2.691406-11.566407 8.132813zm211.472657-52.820313c-4.515626 3.175782-5.605469 9.414063-2.429688 13.933594s9.414062 5.605469 13.929688 2.429688c4.519531-3.175782 5.609374-9.414063 2.433593-13.929688-3.175781-4.519531-9.414062-5.609375-13.933593-2.433594zm-176.671876 148.617188c4.519532-3.175782 5.605469-9.414063 2.429688-13.929688-3.175781-4.519531-9.410156-5.609375-13.929688-2.433594-4.519531 3.175782-5.609374 9.414063-2.429687 13.933594 3.175781 4.515625 9.410156 5.605469 13.929687 2.429688zm148.714844 11.597656c-4.519531 3.175781-5.609375 9.410156-2.433594 13.929688 3.175782 4.519531 9.414063 5.609374 13.933594 2.433593 4.515625-3.175781 5.605469-9.414062 2.429688-13.933593-3.175782-4.519532-9.414063-5.605469-13.929688-2.429688zm-120.753906-171.8125c4.515625-3.175781 5.605469-9.410156 2.429688-13.929688-3.175782-4.519531-9.414063-5.609374-13.933594-2.433593-4.515625 3.179687-5.605469 9.414062-2.429688 13.933593 3.175782 4.519532 9.414063 5.605469 13.933594 2.429688zm51.628906 269.824219c-97.558594-4.570313-175.253906-85.160157-175.253906-183.917969s77.695312-179.347656 175.253906-183.917969c2.660156-.125 4.746094-2.324219 4.746094-4.988281v-62.085938c0-2.839843-2.363281-5.1054682-5.203125-5.00390575-137.121094 4.85156275-246.796875 117.59765575-246.796875 255.99609375s109.675781 251.144531 246.796875 255.996094c2.839844.101562 5.203125-2.160156 5.203125-5.003906v-62.085938c0-2.664062-2.085938-4.863281-4.746094-4.988281zm178.601563-183.917969c0-89.898438-71.453125-163.09375-160.628907-165.820312-2.820312-.085938-5.15625 2.183593-5.15625 5.007812v12.902344c0 2.703125 2.148438 4.90625 4.847657 4.996094 76.675781 2.558593 138.046875 65.5625 138.046875 142.914062.003906 78.898438-64.050782 142.996094-142.894532 142.996094-77.296874 0-140.257812-61.417969-142.8125-138.144532-.089843-2.703124-2.289062-4.851562-4.992187-4.851562h-12.894531c-2.820313 0-5.089844 2.335938-5.003906 5.160156 2.722656 89.234375 75.871093 160.738282 165.703124 160.738282 91.476563.003906 165.789063-74.359376 165.785157-165.898438zm0 0" fill="#83e3ea"/><path d="m251.042969 509.917969c-.945313 1.308593-2.503907 2.140625-4.246094 2.078125-137.121094-4.847656-246.796875-117.597656-246.796875-255.996094s109.675781-251.144531 246.796875-255.99609375c1.742187-.06250005 3.300781.76953175 4.25 2.07812475-125.332031 16.621094-222.046875 123.957031-222.046875 253.917969s96.714844 237.296875 222.042969 253.917969zm0 0" fill="#2fcbe0"/><path d="m265.484375 209.644531c-2.496094-.324219-4.375-2.433593-4.375-4.953125v-39.144531c0-2.871094 2.414063-5.195313 5.277344-4.992187 45.519531 3.1875 81.875 39.539062 85.0625 85.058593.199219 2.863281-2.121094 5.277344-4.992188 5.277344h-39.148437c-2.519532 0-4.628906-1.878906-4.953125-4.375-2.503907-19.179687-17.6875-34.367187-36.871094-36.871094zm148.5 46.394531c-5.980469 0-10.96875 4.597657-11.40625 10.558594-5.070313 69.09375-59.332031 124.628906-127.828125 131.640625-5.816406.597657-10.222656 5.535157-10.222656 11.382813 0 6.761718 5.832031 12.097656 12.558594 11.410156 79.476562-8.132812 142.441406-72.574219 148.320312-152.746094.484375-6.617187-4.789062-12.246094-11.421875-12.246094zm0 0" fill="#d2fcff"/></svg>