<svg height="511pt" viewBox="0 0 511 511.99988" width="511pt" xmlns="http://www.w3.org/2000/svg"><path d="m512.480469 256.007812c0 141.382813-114.609375 255.992188-255.988281 255.992188-141.382813 0-255.992188-114.609375-255.992188-255.992188 0-141.378906 114.609375-255.9882808 255.992188-255.9882808 141.378906 0 255.988281 114.6093748 255.988281 255.9882808zm0 0" fill="#e83826"/><path d="m361.398438 177.289062h-29.242188v-67.390624h29.242188c6.460937 0 11.695312 5.238281 11.695312 11.695312v44.003906c0 6.457032-5.234375 11.691406-11.695312 11.691406zm0 0" fill="#3d4751"/><path d="m168.800781 112.984375-9.878906-2.808594c-3.234375-.917969-6.679687.496094-8.332031 3.421875l-9.101563 16.105469c-1.941406 3.429687-2.125 7.578125-.503906 11.167969l13.179687 29.152344c2 4.421874 6.402344 7.265624 11.257813 7.265624 6.824219 0 12.355469-5.53125 12.355469-12.355468v-40.0625c0-5.523438-3.664063-10.375-8.976563-11.886719zm0 0" fill="#00adfc"/><path d="m263.855469 511.886719c1.914062-.054688 3.820312-.121094 5.722656-.21875.042969 0 .085937-.003907.128906-.003907 101.617188-5.167968 187.578125-69.601562 224.046875-159.410156l-39.675781-56.53125c-8.535156-12.164062-21.320313-20.691406-35.828125-23.898437l-106.464844-23.550781h-110.589844l-106.464843 23.550781c-14.507813 3.207031-27.289063 11.734375-35.824219 23.898437l-39.675781 56.53125c36.46875 89.808594 122.425781 154.242188 224.042969 159.410156.042968 0 .089843.003907.132812.003907 1.898438.097656 3.808594.164062 5.71875.21875.421875.011719.839844.027343 1.261719.035156 2.027343.046875 4.0625.078125 6.105469.078125 2.039062 0 4.074218-.03125 6.105468-.078125.417969-.007813.839844-.023437 1.257813-.035156zm0 0" fill="#3d4751"/><path d="m418.25 271.824219-106.464844-23.550781h-110.589844l-106.464843 23.550781c-4.410157.976562-8.660157 2.449219-12.679688 4.359375l15.019531 50.664062c2.761719 9.316406 11.320313 15.707032 21.035157 15.707032h27.695312c12.117188 0 21.941407 9.820312 21.941407 21.9375 0 12.121093 9.824218 21.941406 21.941406 21.941406h133.613281c12.117187 0 21.941406-9.820313 21.941406-21.941406 0-12.117188 9.824219-21.9375 21.941407-21.9375h27.695312c9.714844 0 18.277344-6.390626 21.039062-15.707032l15.019532-50.664062c-4.023438-1.910156-8.273438-3.382813-12.683594-4.359375zm0 0" fill="#495560"/><path d="m311.785156 280.742188s-12.484375 28.539062-55.292968 28.539062c-42.8125 0-55.296876-28.539062-55.296876-28.539062l-15.457031-111.183594h141.507813zm0 0" fill="#3d4751"/><path d="m327.246094 169.558594h-141.507813l10.269531 73.871094 15.523438 15.621093c7.3125 7.359375 17.457031 11.578125 27.832031 11.578125h34.257813c10.371094 0 20.515625-4.21875 27.828125-11.578125l15.523437-15.621093zm0 0" fill="#333941"/><path d="m200.15625 17.09375c-21.851562 13.621094-35.09375 37.59375-35.09375 63.34375v97.738281c0 6.285157 2.484375 12.308594 6.914062 16.765625l50.515626 50.832032c4.464843 4.492187 10.535156 7.019531 16.871093 7.019531h34.257813c6.332031 0 12.402344-2.527344 16.867187-7.019531l50.519531-50.832032c4.425782-4.457031 6.914063-10.480468 6.914063-16.765625v-86.746093c-.003906-68.53125-75.398437-119.449219-147.765625-74.335938zm0 0" fill="#495560"/><path d="m235.441406 205.804688c1.316406 1.21875 3.046875 1.890624 4.835938 1.890624h32.425781c1.789063 0 3.515625-.671874 4.835937-1.890624l2.59375-2.394532c1.433594-1.320312.496094-3.714844-1.453124-3.714844h-44.382813c-1.949219 0-2.882813 2.390626-1.453125 3.714844zm0 0" fill="#3d4751"/><path d="m195.058594 80.4375c0-25.75 13.246094-49.722656 35.097656-63.34375 13.816406-8.613281 27.746094-13.714844 41.238281-15.871094-22.085937-3.621094-46.832031.65625-71.238281 15.871094-21.851562 13.621094-35.09375 37.59375-35.09375 63.34375v97.738281c0 6.285157 2.484375 12.308594 6.914062 16.765625l50.515626 50.832032s-27.433594-41.429688-27.433594-67.597657zm0 0" fill="#3d4751"/><path d="m108.046875 464.585938-6.320313-122.03125-26.789062 93.910156c10.210938 10.273437 21.28125 19.6875 33.109375 28.121094zm0 0" fill="#333941"/><path d="m405 464.535156c11.820312-8.429687 22.890625-17.84375 33.09375-28.117187l-26.773438-93.863281zm0 0" fill="#333941"/><path d="m175.0625 80.4375v97.738281.089844c.027344 4.472656 3.828125 8.011719 8.300781 8.011719h18.527344c10.050781 0 18.199219-8.148438 18.199219-18.199219v-7.5c0-10.054687 8.148437-18.203125 18.199218-18.203125 10.050782 0 18.199219-8.148438 18.199219-18.199219v-114.175781c-17.285156 0-34.460937 5.242188-51.042969 15.582031-19.023437 11.859375-30.382812 32.367188-30.382812 54.855469zm0 0" fill="#00adfc"/><path d="m239.855469 11.628906c-11.640625 2.28125-23.164063 6.9375-34.410157 13.949219-19.027343 11.863281-30.382812 32.371094-30.382812 54.855469v97.742187.089844c.027344 4.472656 3.828125 8.007813 8.300781 8.007813h12.441407c-.476563-2.808594-.746094-5.527344-.746094-8.097657v-97.738281c0-25.75 13.246094-49.722656 35.097656-63.34375 3.226562-2.011719 6.464844-3.828125 9.699219-5.464844zm0 0" fill="#00a5fb"/><path d="m276.023438 457h-39.066407c-3.296875 0-6.097656-2.414062-6.578125-5.675781l-13.277344-89.621094c-.59375-4.019531 2.519532-7.625 6.578126-7.625h65.621093c4.0625 0 7.175781 3.605469 6.578125 7.625l-13.273437 89.621094c-.484375 3.261719-3.285157 5.675781-6.582031 5.675781zm0 0" fill="#00b730"/><path d="m260.375 451.324219-13.273438-89.621094c-.597656-4.019531 2.515626-7.625 6.578126-7.625h-30c-4.058594 0-7.171876 3.605469-6.578126 7.625l13.277344 89.621094c.480469 3.261719 3.28125 5.675781 6.578125 5.675781h30c-3.296875 0-6.097656-2.414062-6.582031-5.675781zm0 0" fill="#00a62c"/><path d="m319.070312 116.261719c0 12.765625-10.351562 23.117187-23.117187 23.117187s-23.117187-10.351562-23.117187-23.117187c0-12.769531 10.351562-23.117188 23.117187-23.117188s23.117187 10.347657 23.117187 23.117188zm0 0" fill="#00b730"/><path d="m287.835938 116.261719c0-10.140625 6.535156-18.75 15.617187-21.867188-2.351563-.804687-4.875-1.25-7.5-1.25-12.765625 0-23.117187 10.351563-23.117187 23.117188s10.351562 23.117187 23.117187 23.117187c2.625 0 5.148437-.445312 7.5-1.253906-9.082031-3.113281-15.617187-11.722656-15.617187-21.863281zm0 0" fill="#00a62c"/></svg>