<svg xmlns="http://www.w3.org/2000/svg" height="512pt" version="1.1" viewBox="0 0 512 512" width="512pt">
<g id="surface1">
<path d="M 512 256 C 512 397.386719 397.386719 512 256 512 C 114.613281 512 0 397.386719 0 256 C 0 114.613281 114.613281 0 256 0 C 397.386719 0 512 114.613281 512 256 Z M 512 256 " style=" stroke:none;fill-rule:nonzero;fill:rgb(0%,92.941176%,100%);fill-opacity:1;" />
<path d="M 512 256 C 512 236.964844 509.902344 218.417969 505.964844 200.566406 L 432.757812 127.363281 C 432.757812 126.125 285.039062 149.59375 285.039062 149.59375 L 364.074219 228.628906 C 358.976562 236.304688 354.136719 243.605469 349.777344 250.183594 L 226.957031 127.363281 L 79.242188 149.59375 L 176.449219 246.800781 L 66.332031 289.421875 L 114.1875 337.277344 L 99.851562 360.3125 L 251.480469 511.941406 C 252.988281 511.96875 254.488281 512 256 512 C 397.386719 512 512 397.386719 512 256 Z M 512 256 " style=" stroke:none;fill-rule:nonzero;fill:rgb(2.745098%,74.509804%,90.980392%);fill-opacity:1;" />
<path d="M 164.632812 254.4375 L 185.167969 274.960938 L 99.835938 360.328125 L 79.300781 339.804688 Z M 164.632812 254.4375 " style=" stroke:none;fill-rule:nonzero;fill:rgb(90.196078%,90.196078%,90.196078%);fill-opacity:1;" />
<path d="M 432.660156 339.789062 L 412.125 360.316406 L 326.796875 274.949219 L 347.328125 254.421875 Z M 432.660156 339.789062 " style=" stroke:none;fill-rule:nonzero;fill:rgb(84.313725%,84.313725%,84.313725%);fill-opacity:1;" />
<path d="M 260.445312 426.816406 L 251.554688 426.816406 C 219.09375 426.816406 192.777344 400.5 192.777344 368.039062 L 192.777344 295.316406 L 319.222656 295.316406 L 319.222656 368.039062 C 319.222656 400.5 292.90625 426.816406 260.445312 426.816406 Z M 260.445312 426.816406 " style=" stroke:none;fill-rule:nonzero;fill:rgb(25.490196%,28.627451%,32.156863%);fill-opacity:1;" />
<path d="M 255.761719 295.316406 L 255.761719 426.816406 L 260.445312 426.816406 C 292.90625 426.816406 319.222656 400.5 319.222656 368.039062 L 319.222656 295.316406 Z M 255.761719 295.316406 " style=" stroke:none;fill-rule:nonzero;fill:rgb(13.72549%,15.294118%,16.862745%);fill-opacity:1;" />
<path d="M 301.769531 369.164062 C 301.769531 394.441406 281.277344 414.933594 256 414.933594 C 230.722656 414.933594 210.230469 394.441406 210.230469 369.164062 C 210.230469 343.882812 230.722656 323.390625 256 323.390625 C 281.277344 323.390625 301.769531 343.882812 301.769531 369.164062 Z M 301.769531 369.164062 " style=" stroke:none;fill-rule:nonzero;fill:rgb(43.921569%,46.666667%,53.72549%);fill-opacity:1;" />
<path d="M 256 323.394531 C 255.921875 323.394531 255.84375 323.398438 255.761719 323.398438 L 255.761719 414.929688 C 255.84375 414.929688 255.921875 414.933594 256 414.933594 C 281.277344 414.933594 301.769531 394.441406 301.769531 369.164062 C 301.769531 343.882812 281.277344 323.394531 256 323.394531 Z M 256 323.394531 " style=" stroke:none;fill-rule:nonzero;fill:rgb(38.823529%,41.176471%,47.058824%);fill-opacity:1;" />
<path d="M 293.003906 369.164062 C 293.003906 389.597656 276.4375 406.164062 256 406.164062 C 235.5625 406.164062 218.996094 389.597656 218.996094 369.164062 C 218.996094 348.726562 235.5625 332.160156 256 332.160156 C 276.4375 332.160156 293.003906 348.726562 293.003906 369.164062 Z M 293.003906 369.164062 " style=" stroke:none;fill-rule:nonzero;fill:rgb(76.078431%,89.803922%,100%);fill-opacity:1;" />
<path d="M 256 332.160156 C 255.921875 332.160156 255.84375 332.164062 255.761719 332.164062 L 255.761719 406.160156 C 255.84375 406.160156 255.921875 406.164062 256 406.164062 C 276.4375 406.164062 293.003906 389.597656 293.003906 369.164062 C 293.003906 348.726562 276.4375 332.160156 256 332.160156 Z M 256 332.160156 " style=" stroke:none;fill-rule:nonzero;fill:rgb(70.980392%,85.490196%,100%);fill-opacity:1;" />
<path d="M 255.976562 359.988281 C 255.976562 365.066406 251.859375 369.183594 246.78125 369.183594 C 241.703125 369.183594 237.585938 365.066406 237.585938 359.988281 C 237.585938 354.910156 241.703125 350.789062 246.78125 350.789062 C 251.859375 350.789062 255.976562 354.910156 255.976562 359.988281 Z M 255.976562 359.988281 " style=" stroke:none;fill-rule:nonzero;fill:rgb(100%,100%,100%);fill-opacity:1;" />
<path d="M 240.078125 348.175781 C 240.078125 350.996094 237.789062 353.285156 234.96875 353.285156 C 232.144531 353.285156 229.859375 350.996094 229.859375 348.175781 C 229.859375 345.351562 232.144531 343.066406 234.96875 343.066406 C 237.789062 343.066406 240.078125 345.351562 240.078125 348.175781 Z M 240.078125 348.175781 " style=" stroke:none;fill-rule:nonzero;fill:rgb(100%,100%,100%);fill-opacity:1;" />
<path d="M 185.300781 276.851562 L 326.695312 276.851562 L 326.695312 308.441406 L 185.300781 308.441406 Z M 185.300781 276.851562 " style=" stroke:none;fill-rule:nonzero;fill:rgb(38.823529%,41.176471%,47.058824%);fill-opacity:1;" />
<path d="M 255.761719 276.851562 L 326.699219 276.851562 L 326.699219 308.441406 L 255.761719 308.441406 Z M 255.761719 276.851562 " style=" stroke:none;fill-rule:nonzero;fill:rgb(33.333333%,35.294118%,40%);fill-opacity:1;" />
<path d="M 140.910156 138.476562 L 165.289062 138.476562 L 165.289062 196.921875 L 140.910156 196.921875 Z M 140.910156 138.476562 " style=" stroke:none;fill-rule:nonzero;fill:rgb(38.823529%,41.176471%,47.058824%);fill-opacity:1;" />
<path d="M 124.058594 186.164062 L 182.140625 186.164062 L 182.140625 233.492188 L 124.058594 233.492188 Z M 124.058594 186.164062 " style=" stroke:none;fill-rule:nonzero;fill:rgb(33.333333%,35.294118%,40%);fill-opacity:1;" />
<path d="M 346.710938 138.476562 L 371.089844 138.476562 L 371.089844 196.921875 L 346.710938 196.921875 Z M 346.710938 138.476562 " style=" stroke:none;fill-rule:nonzero;fill:rgb(33.333333%,35.294118%,40%);fill-opacity:1;" />
<path d="M 329.859375 186.164062 L 387.941406 186.164062 L 387.941406 233.492188 L 329.859375 233.492188 Z M 329.859375 186.164062 " style=" stroke:none;fill-rule:nonzero;fill:rgb(25.490196%,28.627451%,32.156863%);fill-opacity:1;" />
<path d="M 79.242188 127.363281 L 226.960938 127.363281 L 226.960938 149.59375 L 79.242188 149.59375 Z M 79.242188 127.363281 " style=" stroke:none;fill-rule:nonzero;fill:rgb(43.921569%,46.666667%,53.72549%);fill-opacity:1;" />
<path d="M 285.042969 127.363281 L 432.761719 127.363281 L 432.761719 149.59375 L 285.042969 149.59375 Z M 285.042969 127.363281 " style=" stroke:none;fill-rule:nonzero;fill:rgb(38.823529%,41.176471%,47.058824%);fill-opacity:1;" />
<path d="M 66.332031 233.492188 L 445.664062 233.492188 L 445.664062 289.421875 L 66.332031 289.421875 Z M 66.332031 233.492188 " style=" stroke:none;fill-rule:nonzero;fill:rgb(100%,100%,100%);fill-opacity:1;" />
<path d="M 255.761719 233.492188 L 445.667969 233.492188 L 445.667969 289.421875 L 255.761719 289.421875 Z M 255.761719 233.492188 " style=" stroke:none;fill-rule:nonzero;fill:rgb(91.372549%,92.941176%,96.078431%);fill-opacity:1;" />
</g>
</svg>