<svg height="512pt" viewBox="0 -11 512 512" width="512pt" xmlns="http://www.w3.org/2000/svg"><path d="m501 245c0 135.308594-109.691406 245-245 245s-245-109.691406-245-245 109.691406-245 245-245 245 109.691406 245 245zm0 0" fill="#8ed0e1"/><path d="m210 394c0 8.285156-6.714844 15-15 15h-90c-8.285156 0-15-6.714844-15-15s6.714844-15 15-15h90c8.285156 0 15 6.714844 15 15zm161.699219-365h-26.699219c-8.285156 0-15 6.714844-15 15s6.714844 15 15 15h70.453125c-13.402344-11.503906-28.066406-21.578125-43.753906-30zm-86.699219 20h-75c-5.523438 0-10-4.476562-10-10s4.476562-10 10-10h15c8.285156 0 15-6.714844 15-15 0-5.484375-2.953125-10.269531-7.351562-12.886719-33.148438 3.136719-64.375 12.871094-92.347657 27.886719h29.699219c5.523438 0 10 4.476562 10 10s-4.476562 10-10 10h-5c-8.285156 0-15 6.714844-15 15s6.714844 15 15 15h120c8.285156 0 15-6.714844 15-15s-6.714844-15-15-15zm-250 230h-21.640625c1.417969 10.214844 3.464844 20.226562 6.105469 30h15.535156c8.285156 0 15-6.714844 15-15s-6.714844-15-15-15zm420 40h-70c-8.285156 0-15 6.714844-15 15s6.714844 15 15 15h70c8.285156 0 15-6.714844 15-15s-6.714844-15-15-15zm0 0" fill="#b0dde9"/><path d="m466.5 370.402344c-5.691406 9.53125-12.007812 18.640625-18.894531 27.273437l-55.566407-96.238281-10.816406 4.082031c-10.332031 3.898438-21.871094-1.320312-25.773437-11.652343l-6.832031-18.109376c-3.898438-10.335937 1.316406-21.875 11.652343-25.773437l46.816407-17.664063c10.332031-3.898437 21.875 1.316407 25.773437 11.652344l6.832031 18.109375c3.898438 10.335938-1.316406 21.875-11.652344 25.773438l-7.554687 2.847656zm-314.769531-120.417969-46.816407-17.664063c-10.332031-3.898437-21.871093 1.316407-25.769531 11.652344l-6.835937 18.109375c-3.898438 10.332031 1.320312 21.871094 11.652344 25.773438l7.554687 2.847656-46.015625 79.699219c5.691406 9.53125 12.007812 18.640625 18.894531 27.273437l55.566407-96.238281 10.816406 4.082031c10.332031 3.898438 21.871094-1.320312 25.773437-11.652343l6.832031-18.109376c3.898438-10.335937-1.316406-21.875-11.652343-25.773437zm0 0" fill="#56bcd6"/><path d="m230 353.742188v-40c0-5.523438 4.476562-10 10-10h32c5.523438 0 10 4.476562 10 10v40c0 5.523437-4.476562 10-10 10h-32c-5.523438 0-10-4.476563-10-10zm122 20h-192c-5.523438 0-10 4.476562-10 10v40c0 5.523437 4.476562 10 10 10h192c5.523438 0 10-4.476563 10-10v-40c0-5.523438-4.476562-10-10-10zm0 0" fill="#968dca"/><path d="m90 143.742188v60c0 5.523437-4.476562 10-10 10h-20c-5.523438 0-10-4.476563-10-10v-60c0-5.523438 4.476562-10 10-10v-50c0-5.523438 4.476562-10 10-10s10 4.476562 10 10v50c5.523438 0 10 4.476562 10 10zm362-10v-50c0-5.523438-4.476562-10-10-10s-10 4.476562-10 10v50c-5.523438 0-10 4.476562-10 10v60c0 5.523437 4.476562 10 10 10h20c5.523438 0 10-4.476563 10-10v-60c0-5.523438-4.476562-10-10-10zm-140 130h-112c-5.523438 0-10 4.476562-10 10v40c0 5.523437 4.476562 10 10 10h112c5.523438 0 10-4.476563 10-10v-40c0-5.523438-4.476562-10-10-10zm0 0" fill="#6354b0"/><path d="m331 463.742188h-150c-5.523438 0-10-4.476563-10-10v-100c0-5.523438 4.476562-10 10-10h150c5.523438 0 10 4.476562 10 10v100c0 5.523437-4.476562 10-10 10zm0 0" fill="#ebe1dc"/><path d="m331 463.742188h-130c-5.523438 0-10-4.476563-10-10v-100c0-5.523438 4.476562-10 10-10h130c5.523438 0 10 4.476562 10 10v100c0 5.523437-4.476562 10-10 10zm0 0" fill="#f5f0eb"/><path d="m311 414c0 30.375-24.625 55-55 55s-55-24.625-55-55 24.625-55 55-55 55 24.625 55 55zm0 0" fill="#8279c0"/><path d="m296.804688 414c0 22.535156-18.269532 40.804688-40.804688 40.804688s-40.804688-18.269532-40.804688-40.804688 18.269532-40.804688 40.804688-40.804688 40.804688 18.269532 40.804688 40.804688zm0 0" fill="#aba4d5"/><path d="m296.804688 414c0 7.628906-2.09375 14.765625-5.738282 20.875-6.105468 3.640625-13.246094 5.738281-20.875 5.738281-22.535156 0-40.804687-18.269531-40.804687-40.804687 0-7.628906 2.09375-14.769532 5.738281-20.875 6.109375-3.644532 13.246094-5.738282 20.875-5.738282 22.535156 0 40.804688 18.269532 40.804688 40.804688zm0 0" fill="#c1bbdf"/><path d="m268.417969 388.097656c5.878906 0 10.644531 4.765625 10.644531 10.644532 0 5.878906-4.765625 10.644531-10.644531 10.644531-5.878907 0-10.644531-4.765625-10.644531-10.644531 0-5.878907 4.765624-10.644532 10.644531-10.644532zm0 0" fill="#ececf1"/><path d="m125 113.742188h-110c-8.285156 0-15-6.714844-15-15 0-8.285157 6.714844-15 15-15h110c8.285156 0 15 6.714843 15 15 0 8.285156-6.714844 15-15 15zm387-15c0-8.285157-6.714844-15-15-15h-110c-8.285156 0-15 6.714843-15 15 0 8.285156 6.714844 15 15 15h110c8.285156 0 15-6.714844 15-15zm-133.507812 31.144531 79.519531 35.570312c39.449219 17.644531 39.449219 73.640625 0 91.285157-128.539063 57.492187-275.484375 57.492187-404.023438 0-39.449219-17.644532-39.449219-73.640626 0-91.285157l79.519531-35.570312c77.941407-34.859375 167.042969-34.859375 244.984376 0zm0 0" fill="#d3d3d8"/><path d="m125 113.742188h-90c-8.285156 0-15-6.714844-15-15 0-8.285157 6.714844-15 15-15h90c8.285156 0 15 6.714843 15 15 0 8.285156-6.714844 15-15 15zm387-15c0-8.285157-6.714844-15-15-15h-90c-8.285156 0-15 6.714843-15 15 0 8.285156 6.714844 15 15 15h90c8.285156 0 15-6.714844 15-15zm-53.988281 66.714843-79.519531-35.570312c-77.941407-34.859375-167.042969-34.859375-244.984376 0l-79.519531 35.570312c-11.621093 5.195313-19.8125 13.722657-24.585937 23.613281 4.773437 9.890626 12.964844 18.414063 24.585937 23.609376 128.539063 57.496093 275.484375 57.496093 404.023438 0 11.621093-5.195313 19.8125-13.71875 24.585937-23.609376-4.773437-9.890624-12.964844-18.417968-24.585937-23.613281zm-252.011719 53.542969c-5.523438 0-10-4.476562-10-10s4.476562-10 10-10 10 4.476562 10 10-4.476562 10-10 10zm50 20c-11.046875 0-20-8.953125-20-20s8.953125-20 20-20 20 8.953125 20 20-8.953125 20-20 20zm50-20c-5.523438 0-10-4.476562-10-10s4.476562-10 10-10 10 4.476562 10 10-4.476562 10-10 10zm0 0" fill="#ececf1"/><path d="m266 219c0 5.523438-4.476562 10-10 10s-10-4.476562-10-10 4.476562-10 10-10 10 4.476562 10 10zm0 0" fill="#fff5f5"/></svg>