<svg height="512pt" viewBox="0 0 512 512" width="512pt" xmlns="http://www.w3.org/2000/svg"><path d="m512 256c0 141.386719-114.613281 256-256 256s-256-114.613281-256-256 114.613281-256 256-256 256 114.613281 256 256zm0 0" fill="#ffe67d"/><path d="m512 256c0-19.59375-2.210938-38.667969-6.378906-56.996094l-192.625-192.625-56.996094 177.824219-103.5 170.796875 152.328125 152.328125c118.027344-22.796875 207.171875-126.644531 207.171875-251.328125zm0 0" fill="#f9d128"/><path d="m158.597656 372.785156-46.253906 40.65625 93.667969 93.664063c16.167969 3.203125 32.878906 4.894531 49.988281 4.894531 13.21875 0 26.199219-1.003906 38.878906-2.933594zm0 0" fill="#f9d128"/><path d="m359.5 355h-47v-36c0-31.152344-25.347656-56.5-56.5-56.5s-56.5 25.347656-56.5 56.5v36h-47v-36c0-57.070312 46.429688-103.5 103.5-103.5s103.5 46.429688 103.5 103.5zm0 0" fill="#636978"/><path d="m256 215.5c-.136719 0-.269531.003906-.40625.003906v47.007813c.136719-.003907.269531-.011719.40625-.011719 31.152344 0 56.5 25.347656 56.5 56.5v36h47v-36c0-57.070312-46.429688-103.5-103.5-103.5zm0 0" fill="#414952"/><path d="m256 0c-19.59375 0-38.667969 2.210938-56.996094 6.378906v161.828125c0 31.480469 25.515625 56.996094 56.996094 56.996094s56.996094-25.519531 56.996094-56.996094v-161.828125c-18.328125-4.167968-37.402344-6.378906-56.996094-6.378906zm0 0" fill="#636978"/><path d="m256 0c-.136719 0-.269531.00390625-.40625.0078125v225.1874995c.136719 0 .269531.007813.40625.007813 31.480469 0 56.996094-25.519531 56.996094-56.996094v-161.828125c-18.328125-4.167968-37.402344-6.378906-56.996094-6.378906zm0 0" fill="#414952"/><path d="m297 225.203125c0 22.644531-18.355469 41-41 41s-41-18.355469-41-41 18.355469-41 41-41 41 18.355469 41 41zm0 0" fill="#fff"/><path d="m256 184.203125c-.136719 0-.269531.011719-.40625.011719v81.976562c.136719.003906.269531.011719.40625.011719 22.644531 0 41-18.355469 41-41s-18.355469-41-41-41zm0 0" fill="#e9edf5"/><path d="m276.101562 225.203125c0 11.101563-9 20.101563-20.101562 20.101563s-20.101562-9-20.101562-20.101563 9-20.101563 20.101562-20.101563 20.101562 9 20.101562 20.101563zm0 0" fill="#7e8596"/><path d="m256 205.101562c-.136719 0-.269531.019532-.40625.019532v40.164062c.136719.003906.269531.023438.40625.023438 11.101562 0 20.101562-9 20.101562-20.105469 0-11.101563-9-20.101563-20.101562-20.101563zm0 0" fill="#636978"/><path d="m256 411.5c-16.152344 0-29.25-13.097656-29.25-29.25v-26.5c0-16.152344 13.097656-29.25 29.25-29.25s29.25 13.097656 29.25 29.25v26.5c0 16.152344-13.097656 29.25-29.25 29.25zm0 0" fill="#fe6a16"/><path d="m256 326.5c-.136719 0-.269531.007812-.40625.011719v84.976562c.136719.003907.269531.011719.40625.011719 16.152344 0 29.25-13.097656 29.25-29.25v-26.5c0-16.152344-13.097656-29.25-29.25-29.25zm0 0" fill="#f24500"/><path d="m353.402344 372.785156c-8.378906 46.1875-48.796875 81.214844-97.402344 81.214844s-89.023438-35.027344-97.402344-81.214844h-130.464844c42.449219 82.660156 128.554688 139.214844 227.867188 139.214844s185.417969-56.554688 227.867188-139.214844zm0 0" fill="#b56d3c"/><path d="m353.402344 372.785156c-8.378906 46.1875-48.796875 81.214844-97.402344 81.214844-.136719 0-.269531-.007812-.40625-.007812v58.003906c.136719 0 .269531.003906.40625.003906 99.3125 0 185.417969-56.554688 227.867188-139.214844zm0 0" fill="#854d28"/></svg>