<?xml version="1.0" encoding="iso-8859-1"?>
<!-- Generator: Adobe Illustrator 19.0.0, SVG Export Plug-In . SVG Version: 6.00 Build 0)  -->
<svg version="1.1" id="Layer_1" xmlns="http://www.w3.org/2000/svg" xmlns:xlink="http://www.w3.org/1999/xlink" x="0px" y="0px"
	 viewBox="0 0 512 512" style="enable-background:new 0 0 512 512;" xml:space="preserve">
<circle style="fill:#FEE187;" cx="256" cy="256" r="256"/>
<path style="fill:#FFC61B;" d="M506.137,310.631L320.01,124.502l-128.943,52.784L170.71,287.03l-24.885,111.192l113.733,113.733
	C380.609,510.304,481.351,424.646,506.137,310.631z"/>
<path style="fill:#273B7A;" d="M319.635,304.75c-0.814,0-1.641-0.128-2.455-0.398c-4.065-1.355-6.261-5.749-4.908-9.812
	l14.696-44.087l-10.55-10.55h-25.997l-10.55,10.55l14.696,44.087c1.353,4.063-0.841,8.457-4.908,9.812
	c-4.058,1.357-8.457-0.843-9.812-4.908l-16.212-48.637c-0.927-2.788-0.203-5.86,1.876-7.937l16.212-16.212
	c1.455-1.457,3.427-2.272,5.485-2.272h32.425c2.057,0,4.03,0.817,5.485,2.272l16.212,16.212c2.079,2.077,2.803,5.149,1.876,7.937
	l-16.212,48.637C325.91,302.695,322.882,304.75,319.635,304.75z"/>
<path style="fill:#121149;" d="M341.33,242.871l-16.212-16.212c-1.455-1.457-3.427-2.272-5.485-2.272h-16.368v15.515h13.155
	l10.55,10.55l-14.696,44.087c-1.353,4.063,0.841,8.457,4.908,9.812c0.814,0.271,1.641,0.398,2.455,0.398
	c3.248,0,6.275-2.055,7.359-5.306l16.212-48.637C344.133,248.02,343.409,244.948,341.33,242.871z"/>
<rect x="287.203" y="151.083" style="fill:#273B7A;" width="32.423" height="64.848"/>
<rect x="303.269" y="151.083" style="fill:#121149;" width="16.368" height="64.848"/>
<rect x="270.998" y="199.714" style="fill:#386895;" width="64.848" height="32.423"/>
<rect x="303.269" y="199.714" style="fill:#273B7A;" width="32.582" height="32.423"/>
<rect x="170.718" y="124.5" style="fill:#FF5419;" width="149.307" height="49.767"/>
<rect x="170.718" y="153.859" style="fill:#C92F00;" width="149.307" height="20.411"/>
<rect x="145.825" y="149.394" style="fill:#E09112;" width="49.767" height="199.059"/>
<rect x="170.96" y="149.394" style="fill:#FF5419;" width="24.638" height="199.059"/>
<rect x="145.825" y="323.577" style="fill:#D35933;" width="223.953" height="74.645"/>
<g>
	<rect x="256.724" y="323.577" style="fill:#B54324;" width="113.054" height="74.645"/>
	<rect x="145.825" y="323.577" style="fill:#B54324;" width="223.953" height="24.883"/>
</g>
<rect x="256.724" y="323.577" style="fill:#930000;" width="113.054" height="24.883"/>
<circle style="fill:#386895;" cx="175.235" cy="154.669" r="37.326"/>
<g>
	<path style="fill:#273B7A;" d="M137.928,153.859c-0.005,0.269-0.021,0.536-0.021,0.807c0,20.614,16.712,37.326,37.326,37.326
		s37.326-16.712,37.326-37.326c0-0.271-0.016-0.538-0.021-0.807H137.928z"/>
	<circle style="fill:#273B7A;" cx="175.235" cy="154.669" r="22.618"/>
</g>
<path style="fill:#121149;" d="M152.652,153.859c-0.009,0.269-0.041,0.534-0.041,0.807c0,12.493,10.128,22.621,22.621,22.621
	s22.621-10.128,22.621-22.621c0-0.272-0.031-0.536-0.041-0.807H152.652z"/>
<g>
</g>
<g>
</g>
<g>
</g>
<g>
</g>
<g>
</g>
<g>
</g>
<g>
</g>
<g>
</g>
<g>
</g>
<g>
</g>
<g>
</g>
<g>
</g>
<g>
</g>
<g>
</g>
<g>
</g>
</svg>
