<svg height="512pt" viewBox="0 0 512 512" width="512pt" xmlns="http://www.w3.org/2000/svg" xmlns:xlink="http://www.w3.org/1999/xlink"><linearGradient id="a" gradientUnits="userSpaceOnUse" x1="74.9807" x2="437.0193" y1="74.9807" y2="437.0193"><stop offset="0" stop-color="#feeccc"/><stop offset="1" stop-color="#fcd999"/></linearGradient><linearGradient id="b"><stop offset="0" stop-color="#d2e3f1"/><stop offset="1" stop-color="#77aad4"/></linearGradient><linearGradient id="c" gradientUnits="userSpaceOnUse" x1="303.8181" x2="361.8733" xlink:href="#b" y1="156.4154" y2="214.4705"/><linearGradient id="d"><stop offset="0" stop-color="#a5c6e3"/><stop offset="1" stop-color="#4a8dc6"/></linearGradient><linearGradient id="e" gradientUnits="userSpaceOnUse" x1="251.992" x2="338.6408" xlink:href="#d" y1="122.4603" y2="209.1092"/><linearGradient id="f" gradientUnits="userSpaceOnUse" x1="124.7269" x2="236.3987" xlink:href="#b" y1="206.8348" y2="318.5066"/><linearGradient id="g" gradientUnits="userSpaceOnUse" x1="173.3592" x2="270.7307" xlink:href="#d" y1="115.3119" y2="212.6834"/><linearGradient id="h" gradientUnits="userSpaceOnUse" x1="207.3142" x2="304.6858" xlink:href="#b" y1="102.8021" y2="200.1736"/><linearGradient id="i"><stop offset="0" stop-color="#4a8dc6"/><stop offset="1" stop-color="#185e98"/></linearGradient><linearGradient id="j" gradientUnits="userSpaceOnUse" x1="229.1934" x2="325.6973" xlink:href="#i" y1="175.5879" y2="272.0918"/><linearGradient id="k" gradientUnits="userSpaceOnUse" x1="185.9453" x2="347.5" xlink:href="#d" y1="240.2813" y2="401.8359"/><linearGradient id="l" gradientUnits="userSpaceOnUse" x1="185.9444" x2="261.7196" xlink:href="#i" y1="326.0599" y2="401.8351"/><linearGradient id="m" gradientUnits="userSpaceOnUse" x1="228.8351" x2="304.6103" xlink:href="#i" y1="326.0599" y2="401.8351"/><linearGradient id="n"><stop offset="0" stop-color="#0e3759"/><stop offset="1" stop-color="#092339"/></linearGradient><linearGradient id="o" gradientUnits="userSpaceOnUse" x1="213.1094" x2="234.5547" xlink:href="#n" y1="256.0047" y2="277.45"/><linearGradient id="p" gradientUnits="userSpaceOnUse" x1="256" x2="277.4453" xlink:href="#n" y1="256.0047" y2="277.45"/><linearGradient id="q" gradientUnits="userSpaceOnUse" x1="298.8906" x2="320.3359" xlink:href="#n" y1="256.0047" y2="277.45"/><path d="m512 256c0 141.386719-114.613281 256-256 256s-256-114.613281-256-256 114.613281-256 256-256 256 114.613281 256 256zm0 0" fill="url(#a)"/><path d="m341.78125 127.335938c-11.84375 0-21.445312 9.601562-21.445312 21.445312l-7.148438 21.445312h-7.148438v64.335938l57.1875-21.445312v-42.890626c0-10.636718 0-18.65625 0-21.445312 0-11.84375-9.601562-21.445312-21.445312-21.445312zm0 0" fill="url(#c)"/><path d="m298.890625 84.445312c-11.84375 0-21.445313 9.601563-21.445313 21.445313l-7.148437 21.445313h-7.148437v100.078124h57.191406s0-34.34375 0-57.1875v-42.890624c0-10.460938 0-18.515626 0-21.445313-.003906-11.84375-9.605469-21.445313-21.449219-21.445313zm0 0" fill="url(#e)"/><path d="m202.386719 213.117188-10.722657-21.445313c0-11.84375-9.601562-21.445313-21.445312-21.445313s-21.445312 9.601563-21.445312 21.445313v85.78125c0 35.078125 16.847656 66.222656 42.890624 85.789063l17.425782-87.128907 4.019531 1.339844v-64.335937zm0 0" fill="url(#f)"/><path d="m241.703125 146.101562 7.148437 2.679688-14.296874-42.890625c0-11.84375-9.601563-21.445313-21.445313-21.445313s-21.445313 9.601563-21.445313 21.445313v21.445313 85.78125l57.1875 21.445312v-64.335938h-7.148437zm0 0" fill="url(#g)"/><path d="m256 63c-11.84375 0-21.445312 9.601562-21.445312 21.445312v21.445313 121.523437h42.890624v-121.523437c0-10.917969 0-18.886719 0-21.445313 0-11.84375-9.601562-21.445312-21.445312-21.445312zm0 0" fill="url(#h)"/><path d="m363.226562 213.117188h-171.5625v21.445312l52.421876 17.472656-9.53125 11.121094 25.734374-5.71875 17.15625 5.71875v-9.53125l85.78125-19.0625zm0 0" fill="url(#j)"/><path d="m277.445312 234.5625h-85.78125v194.4375h21.445313l10.722656-14.296875 10.722657 14.296875h21.445312l5.203125-31.558594 16.242187 31.558594h42.890626v-65.757812c26.042968-19.566407 42.890624-50.710938 42.890624-85.789063 0 0 0-25.949219 0-42.890625zm0 0" fill="url(#k)"/><path d="m213.109375 298.894531h21.445313v130.105469h-21.445313zm0 0" fill="url(#l)"/><path d="m256 298.894531h21.445312v130.105469h-21.445312zm0 0" fill="url(#m)"/><path d="m213.109375 256.003906h21.445313v21.445313h-21.445313zm0 0" fill="url(#o)"/><path d="m256 256.003906h21.445312v21.445313h-21.445312zm0 0" fill="url(#p)"/><path d="m298.890625 256.003906h21.445313v21.445313h-21.445313zm0 0" fill="url(#q)"/></svg>