<svg height="512pt" viewBox="-6 0 512 512" width="512pt" xmlns="http://www.w3.org/2000/svg"><path d="m105.886719 45.875c19.539062-13.828125 110.671875-44.839844 135.507812-45.714844 2.980469-.1054685 5.976563-.160156 8.984375-.160156 138.28125 0 250.378906 112.097656 250.378906 250.378906s-112.097656 250.378906-250.378906 250.378906-250.378906-112.097656-250.378906-250.378906c0-84.460937 41.820312-159.152344 105.886719-204.503906zm0 0" fill="#528ed7"/><path d="m241.394531.179688 101.988281 101.988281c-44.230468 44.230469-113.210937 51.882812-166.0625 18.425781-29.683593-18.792969-54.144531-44.5-71.433593-74.710938 38.542969-27.28125 85.132812-43.929687 135.507812-45.703124zm0 0" fill="#f6a96c"/><path d="m241.394531.179688 98.480469 98.476562c-42.019531 23.605469-94.683594 23.179688-137.003906-3.613281-27.246094-17.25-50.089844-40.324219-67.03125-67.359375 31.824218-16.398438 67.617187-26.167969 105.554687-27.503906zm0 0" fill="#ffbd86"/><path d="m207.15625 253.171875 78.96875 21.160156-42.320312 157.941407-78.96875-21.160157zm0 0" fill="#83e3ea"/><path d="m230.84375 259.519531 31.589844 8.464844-42.320313 157.9375-31.589843-8.460937zm0 0" fill="#2fcbe0"/><path d="m322.445312 178.261719-26.449218 98.714843c-7.304688 27.257813-35.324219 43.433594-62.582032 36.128907-27.257812-7.300781-43.433593-35.320313-36.128906-62.582031l26.449219-98.710938c7.304687-27.257812 35.324219-43.4375 62.582031-36.132812 27.257813 7.304687 43.433594 35.324218 36.128906 62.582031zm0 0" fill="#88b9d3"/><path d="m322.445312 178.261719-26.449218 98.714843c-4.433594 16.550782-16.515625 29.007813-31.421875 34.609376-26.402344-7.875-41.90625-35.382813-34.730469-62.167969l26.453125-98.714844c4.433594-16.550781 16.515625-29.003906 31.421875-34.609375 26.402344 7.878906 41.90625 35.382812 34.726562 62.167969zm0 0" fill="#b3d1e1"/><path d="m226.898438 258.460938 26.449218-98.714844c2.921875-10.902344 14.128906-17.375 25.03125-14.453125s17.375 14.128906 14.453125 25.035156l-26.449219 98.710937c-2.921874 10.90625-14.128906 17.375-25.035156 14.453126-10.902344-2.921876-17.371094-14.128907-14.449218-25.03125zm0 0" fill="#aef7ff"/><path d="m264.445312 236.78125c-1.460937 5.453125-7.0625 8.6875-12.515624 7.226562-5.453126-1.460937-8.6875-7.066406-7.226563-12.515624 1.460937-5.453126 7.066406-8.6875 12.515625-7.226563 5.453125 1.460937 8.6875 7.0625 7.226562 12.515625zm-15.160156 17.097656c-5.453125-1.460937-11.054687 1.773438-12.515625 7.226563-1.460937 5.449219 1.773438 11.054687 7.226563 12.515625 5.449218 1.460937 11.054687-1.773438 12.515625-7.226563 1.460937-5.453125-1.773438-11.054687-7.226563-12.515625zm0 0" fill="#fff5f5"/><path d="m409.765625 512h-215.511719c-2.820312 0-5.109375-2.289062-5.109375-5.109375v-127.746094l230.019531 64.40625c15.058594 4.21875 25.46875 17.941407 25.46875 33.578125 0 19.257813-15.609374 34.871094-34.867187 34.871094zm0 0" fill="#b3d1e1"/><path d="m444.632812 477.128906c0 19.257813-15.609374 34.871094-34.871093 34.871094h-215.507813c-2.820312 0-5.109375-2.289062-5.109375-5.109375v-25.550781h159.382813c11.265625 0 20.398437-9.132813 20.398437-20.398438v-31.457031l20.441407 5.722656v25.734375c0 11.265625 9.132812 20.398438 20.398437 20.398438 13.753906 0 25.644531-7.964844 31.320313-19.535156 2.28125 4.664062 3.546874 9.878906 3.546874 15.324218zm-96.144531-6.007812c5.644531 0 10.21875-4.574219 10.21875-10.21875 0-5.644532-4.574219-10.21875-10.21875-10.21875s-10.222656 4.574218-10.222656 10.21875c0 5.644531 4.578125 10.21875 10.222656 10.21875zm-30.660156 0c5.644531 0 10.21875-4.574219 10.21875-10.21875 0-5.644532-4.574219-10.21875-10.21875-10.21875s-10.21875 4.574218-10.21875 10.21875c0 5.644531 4.574219 10.21875 10.21875 10.21875zm-30.660156 0c5.644531 0 10.222656-4.574219 10.222656-10.21875 0-5.644532-4.578125-10.21875-10.222656-10.21875-5.640625 0-10.21875 4.574218-10.21875 10.21875 0 5.644531 4.578125 10.21875 10.21875 10.21875zm0 0" fill="#88b9d3"/><path d="m360.113281 151.324219c-11.507812 42.949219-55.652343 68.4375-98.605469 56.929687-42.949218-11.507812-68.4375-55.65625-56.925781-98.605468 11.507813-42.949219 55.652344-68.4375 98.601563-56.929688 42.949218 11.511719 68.4375 55.65625 56.929687 98.605469zm-166.878906 199.65625c-44.464844 0-80.511719 36.042969-80.511719 80.511719 0 44.464843 36.046875 80.507812 80.511719 80.507812 44.460937 0 80.507813-36.046875 80.507813-80.511719 0-44.464843-36.042969-80.507812-80.507813-80.507812zm0 0" fill="#d2fcff"/><path d="m298.28125 71.019531c-32.84375-8.800781-66.601562 10.691407-75.402344 43.535157-8.800781 32.84375 10.691406 66.601562 43.535156 75.402343s66.601563-10.691406 75.402344-43.535156c8.800782-32.84375-10.691406-66.601563-43.535156-75.402344zm25.238281 70.5c-6.09375 22.738281-29.464843 36.230469-52.203125 30.136719-22.738281-6.089844-36.230468-29.464844-30.140625-52.199219 6.09375-22.738281 29.464844-36.234375 52.203125-30.140625 22.738282 6.09375 36.230469 29.464844 30.140625 52.203125zm-130.285156 228.402344c-34.003906 0-61.570313 27.566406-61.570313 61.570313 0 34 27.566407 61.566406 61.570313 61.566406 34 0 61.566406-27.566406 61.566406-61.566406 0-34.003907-27.566406-61.570313-61.566406-61.570313zm0 104.191406c-23.542969 0-42.625-19.082031-42.625-42.621093 0-23.542969 19.082031-42.625 42.625-42.625 23.539063 0 42.621094 19.082031 42.621094 42.625 0 23.539062-19.082031 42.621093-42.621094 42.621093zm0 0" fill="#2fcbe0"/><path d="m150.640625 429.882812c-.894531 24.269532 18.519531 44.230469 42.59375 44.230469 5.160156 0 10.105469-.921875 14.683594-2.601562 3.460937-1.273438 7.335937-.414063 9.941406 2.191406l.007813.003906c4.910156 4.910157 3.027343 13.226563-3.492188 15.617188-6.59375 2.414062-13.714844 3.734375-21.140625 3.734375-34.292969 0-62.039063-28.039063-61.5625-62.441406.449219-32.351563 26.355469-59.148438 58.675781-60.628907 8.5-.386719 16.632813.953125 24.09375 3.695313 6.488282 2.382812 8.3125 10.703125 3.425782 15.589844-2.644532 2.644531-6.570313 3.425781-10.082032 2.148437-5.28125-1.921875-11.046875-2.828125-17.066406-2.484375-21.765625 1.253906-39.277344 19.15625-40.078125 40.945312zm167.152344-349.746093c-6.492188-4.578125-14.003907-7.976563-22.3125-9.800781-31.601563-6.9375-63.566407 12.242187-72.371094 43.375-9.363281 33.105468 10.179687 67.371093 43.304687 76.246093 7.175782 1.921875 14.394532 2.488281 21.386719 1.863281 6.917969-.617187 10.886719-8.164062 7.414063-14.179687l-.003906-.007813c-1.84375-3.1875-5.367188-5.019531-9.035157-4.6875-4.859375.441407-9.875.046876-14.859375-1.289062-23.253906-6.230469-36.839844-30.53125-29.695312-53.746094 6.414062-20.839844 27.960937-33.597656 49.3125-29.171875 5.902344 1.222657 11.238281 3.589844 15.839844 6.8125 3.0625 2.140625 7.058593 2.402344 10.292968.535157 5.988282-3.457032 6.378906-11.964844.726563-15.949219zm0 0" fill="#03bdd6"/></svg>