<?xml version="1.0" encoding="iso-8859-1"?>
<!-- Generator: Adobe Illustrator 19.0.0, SVG Export Plug-In . SVG Version: 6.00 Build 0)  -->
<svg version="1.1" id="Capa_1" xmlns="http://www.w3.org/2000/svg" xmlns:xlink="http://www.w3.org/1999/xlink" x="0px" y="0px"
	 viewBox="0 0 512 512" style="enable-background:new 0 0 512 512;" xml:space="preserve">
<circle style="fill:#293D7C;" cx="256" cy="256" r="245"/>
<circle style="fill:#02AF8E;" cx="318.46" cy="40.08" r="21.575"/>
<g>
	<path style="fill:#0F9390;" d="M347.538,40.075c0-16.032-13.043-29.075-29.075-29.075c-16.031,0-29.074,13.043-29.074,29.075
		c0,13.438,9.167,24.773,21.574,28.089V97h15V68.164C338.371,64.849,347.538,53.515,347.538,40.075z M318.463,54.15
		c-7.761,0-14.074-6.314-14.074-14.075S310.702,26,318.463,26c7.761,0,14.075,6.314,14.075,14.075S326.224,54.15,318.463,54.15z"/>
	<path style="fill:#0F9390;" d="M369.155,311.152h38.608c0.001-0.049,0.008-0.096,0.008-0.145v-114.21
		c0-7.122-5.774-12.895-12.896-12.895h-29.439v129.799C366.021,312.213,367.462,311.152,369.155,311.152z"/>
</g>
<path style="fill:#02AF8E;" d="M360.377,394.162l-18.784-11.237c-0.816-0.487-1.284-1.11-1.284-1.708
	c0-0.598,0.468-1.221,1.283-1.708l18.786-11.237c2.679-1.602,4.777-5.303,4.777-8.425v-44.694c0-1.27,0.605-2.389,1.53-3.122
	V125.665c0-16.491-13.368-29.86-29.86-29.86h-94.523V420h94.523c12.862,0,23.822-8.132,28.025-19.534
	C364.186,397.935,362.466,395.41,360.377,394.162z"/>
<g>
	<path style="fill:#60D882;" d="M365.155,317.385h-28.357l-14.117-24.452c-4.73,1.908-9.889,2.97-15.293,2.97
		c-0.107,0-0.211-0.008-0.317-0.008l17.403,30.144c2.158,3.737,6.679,6.347,10.994,6.347h29.686v-15.001H365.155z"/>
	<path style="fill:#60D882;" d="M335.469,184.5c-4.316,0-8.836,2.609-10.995,6.348l-13.41,23.227
		c5.306,0.474,10.32,1.964,14.854,4.271l10.881-18.847h29.887v-15L335.469,184.5L335.469,184.5z"/>
	<path style="fill:#60D882;" d="M243.548,95.805v20.773h36.843c10.23,0,18.602-8.371,18.602-18.604v-2.17L243.548,95.805
		L243.548,95.805z"/>
</g>
<path style="fill:#0F9390;" d="M293.389,331.902h-51.087v32h51.087c5.5,0,10-4.5,10-10v-12
	C303.389,336.402,298.889,331.902,293.389,331.902z"/>
<path style="fill:#FFE2B8;" d="M131.246,224.385h-10.941c-8.879,0-16.076,7.196-16.076,16.073v53.587
	c0,8.878,7.197,16.074,16.076,16.074h10.941V224.385z"/>
<path style="fill:#DB722C;" d="M208.749,95.805c-21.253,0-40.52,8.459-54.655,22.178l13.98,8.071
	c0.817,0.472,1.286,1.067,1.286,1.634c0,0.566-0.469,1.162-1.286,1.634l-19.044,10.994c-2.708,1.564-4.83,5.239-4.83,8.366V167
	c0,2.206-1.794,4-4,4h-9.871c-0.045,1.098-0.083,2.197-0.083,3.306v72.349c0-54.695,44.339-92.319,99.034-92.319h14.268v-58.53
	C239.578,95.186,208.749,95.805,208.749,95.805z"/>
<path style="fill:#FFE2B8;" d="M243.548,151.433H229.28c-54.695,0-99.034,37.624-99.034,92.319v72.177
	c0,54.695,48.535,104.071,103.23,104.071h10.071L243.548,151.433L243.548,151.433z"/>
<path style="fill:#FFC987;" d="M151,315.929v-72.177c0-52.516,40.877-89.286,92.548-92.135v-0.185H229.28
	c-54.695,0-99.034,37.624-99.034,92.319v72.177c0,54.695,48.535,104.071,103.23,104.071h10.071v-0.632
	C193.371,413.486,151,367.032,151,315.929z"/>
<g>
	<path style="fill:#EBAA48;" d="M186.903,277.214c-4.143,0-7.5-3.357-7.5-7.5v-21.09c0-4.143,3.357-7.5,7.5-7.5
		c4.142,0,7.5,3.357,7.5,7.5v21.09C194.403,273.856,191.045,277.214,186.903,277.214z"/>
	<path style="fill:#EBAA48;" d="M243.548,303.751h-0.053v-32.15c0-4.143-3.357-7.5-7.5-7.5c-4.142,0-7.5,3.357-7.5,7.5v34.65
		c0,6.893,5.607,12.5,12.5,12.5h2.553V303.751z"/>
	<path style="fill:#EBAA48;" d="M243.548,340.681h-31.053c-4.143,0-7.5,3.357-7.5,7.5s3.357,7.5,7.5,7.5h31.053V340.681z"/>
</g>
<path style="fill:#0F9390;" d="M307.389,295.902c-22.607,0-41-18.393-41-41s18.393-41,41-41s41,18.393,41,41
	C348.389,277.51,329.996,295.902,307.389,295.902z"/>
<circle style="fill:#60D882;" cx="307.39" cy="254.9" r="20"/>
<path style="fill:#02AF8E;" d="M298,254.902c0-9.206,6.228-16.938,14.694-19.266c-1.692-0.465-3.466-0.734-5.306-0.734
	c-11.046,0-20,8.954-20,20s8.954,20,20,20c1.84,0,3.613-0.27,5.306-0.734C304.228,271.841,298,264.108,298,254.902z"/>
<path style="fill:#60D882;" d="M407.772,221.673h-11.063c-3.278,0-5.938,2.658-5.938,5.937v52.586c0,3.278,2.659,5.936,5.938,5.936
	h11.063V221.673z"/>
<path style="fill:#FE3745;" d="M5,172c-2.75,0-5-2.25-5-5V31.799c0-2.75,2.25-5,5-5h135.201c2.75,0,5,2.25,5,5v74.894
	c0,2.75,1.949,6.125,4.33,7.5l19.044,10.995c2.381,1.375,2.381,3.625,0,5l-19.044,10.994c-2.381,1.375-4.33,4.75-4.33,7.5V167
	c0,2.75-2.25,5-5,5H5z"/>
<path style="fill:#B7092B;" d="M10.639,167V31.799c0-2.75,2.25-5,5-5H5c-2.75,0-5,2.25-5,5V167c0,2.75,2.25,5,5,5h10.639
	C12.889,172,10.639,169.75,10.639,167z"/>
<path style="fill:#FFFFFF;" d="M68.722,145.717c-1.373,0-2.662-0.538-3.635-1.519l-39.924-40.255
	c-4.815-4.855-7.465-11.317-7.465-18.195c0-6.877,2.65-13.34,7.465-18.194c4.819-4.862,11.228-7.536,18.045-7.536
	c6.816,0,13.222,2.674,18.046,7.536l7.613,7.677l7.617-7.677c4.817-4.862,11.224-7.536,18.042-7.536
	c6.822,0,13.226,2.674,18.047,7.536c4.819,4.858,7.472,11.322,7.472,18.194c0,6.873-2.653,13.333-7.474,18.195l-40.234,40.271
	C71.372,145.184,70.085,145.717,68.722,145.717z"/>
<path style="fill:#EEF6FF;" d="M35.465,103.943C30.65,99.088,28,92.626,28,85.748c0-6.877,2.65-13.34,7.465-18.194
	c3.581-3.613,8.042-6.016,12.894-7.013c-1.677-0.344-3.4-0.523-5.15-0.523c-6.817,0-13.227,2.674-18.045,7.536
	c-4.815,4.854-7.465,11.317-7.465,18.194c0,6.878,2.65,13.34,7.465,18.195l39.924,40.255c0.973,0.98,2.262,1.519,3.635,1.519
	c1.363,0,2.65-0.533,3.616-1.503l1.539-1.54L35.465,103.943z"/>
<path style="fill:#1A2B63;" d="M341.079,378.65c-2.36,1.411-2.36,3.722,0,5.133l18.785,11.237c2.36,1.411,4.291,4.816,4.291,7.566
	v44.695c0,2.75,2.25,5,5,5H507c2.75,0,5-2.25,5-5v-132.13c0-2.75-2.25-5-5-5H369.155c-2.75,0-5,2.25-5,5v44.694
	c0,2.75-1.931,6.155-4.291,7.566L341.079,378.65z"/>
<g>
	<path style="fill:#C3DDF4;" d="M436.831,397.347L436.831,397.347c-2.839,0-5.434-1.603-6.705-4.14l-13.382-26.702l-8.988,17.933
		c-1.272,2.538-3.867,4.14-6.705,4.14h-15.066c-4.143,0-7.5-3.357-7.5-7.5c0-4.142,3.357-7.5,7.5-7.5h10.436l13.619-27.171
		c1.272-2.538,3.867-4.14,6.705-4.14l0,0c2.839,0,5.434,1.603,6.705,4.14l13.382,26.702l17.777-35.469
		c1.303-2.6,4.011-4.214,6.897-4.137c2.906,0.074,5.508,1.822,6.676,4.484l15.609,35.59h11.419c4.143,0,7.5,3.358,7.5,7.5
		c0,4.143-3.357,7.5-7.5,7.5h-16.319c-2.978,0-5.673-1.761-6.868-4.487l-11.162-25.449l-17.325,34.566
		C442.265,395.744,439.669,397.347,436.831,397.347z"/>
	<path style="fill:#C3DDF4;" d="M408,429.5h-21c-4.143,0-7.5-3.357-7.5-7.5s3.357-7.5,7.5-7.5h21c4.143,0,7.5,3.357,7.5,7.5
		S412.143,429.5,408,429.5z"/>
	<path style="fill:#C3DDF4;" d="M439,429.5h-11.666c-4.143,0-7.5-3.357-7.5-7.5s3.357-7.5,7.5-7.5H439c4.143,0,7.5,3.357,7.5,7.5
		S443.143,429.5,439,429.5z"/>
	<path style="fill:#C3DDF4;" d="M465.916,429.5h-8.166c-4.143,0-7.5-3.357-7.5-7.5s3.357-7.5,7.5-7.5h8.166
		c4.143,0,7.5,3.357,7.5,7.5S470.059,429.5,465.916,429.5z"/>
	<path style="fill:#C3DDF4;" d="M492.166,429.5H484c-4.143,0-7.5-3.357-7.5-7.5s3.357-7.5,7.5-7.5h8.166c4.143,0,7.5,3.357,7.5,7.5
		S496.309,429.5,492.166,429.5z"/>
</g>
<g>
	<circle style="fill:#60D882;" cx="336" cy="137" r="9.125"/>
	<circle style="fill:#60D882;" cx="308.78" cy="137" r="9.125"/>
	<circle style="fill:#60D882;" cx="281.5" cy="137" r="9.126"/>
</g>
<g>
</g>
<g>
</g>
<g>
</g>
<g>
</g>
<g>
</g>
<g>
</g>
<g>
</g>
<g>
</g>
<g>
</g>
<g>
</g>
<g>
</g>
<g>
</g>
<g>
</g>
<g>
</g>
<g>
</g>
</svg>
