<?xml version="1.0" encoding="iso-8859-1"?>
<!-- Generator: Adobe Illustrator 19.0.0, SVG Export Plug-In . SVG Version: 6.00 Build 0)  -->
<svg version="1.1" id="Capa_1" xmlns="http://www.w3.org/2000/svg" xmlns:xlink="http://www.w3.org/1999/xlink" x="0px" y="0px"
	 viewBox="0 0 512 512" style="enable-background:new 0 0 512 512;" xml:space="preserve">
<circle style="fill:#004EB0;" cx="256" cy="256" r="256"/>
<path style="fill:#003C7D;" d="M512,256c0-3.45-0.089-6.878-0.224-10.295L358.932,92.737c-12.171-11.979-28.84-19.399-47.161-19.399
	H200.229c-37.033,0-67.333,30.3-67.333,67.333v0.385c0,18.319,7.418,34.986,19.394,47.156l65.852,65.854h-26.363l-68.728-68.953
	c-2.482-2.401-5.34-4.465-8.522-6.101l-9.5,18.474l6.53,6.657c0.781,1.603,1.273,3.355,1.43,5.183l-30.896-30.314
	c-11.898,6.118-19.289,18.221-19.289,31.585c0,9.259,3.565,17.699,9.392,24.025l15.729,15.764v39.071
	c0,10.027,3.742,19.194,9.901,26.184l47.456,47.564v10.574l37.835,37.845v19.218l81.016,81.016C401.752,507.562,512,394.663,512,256
	z"/>
<path style="fill:#00C2C9;" d="M403.302,235.353h20.773v54.104c0,21.871-17.793,39.664-39.664,39.664H365.44v-20.773h18.972
	c10.416,0,18.89-8.474,18.89-18.891V235.353z"/>
<path style="fill:#E0E0E2;" d="M397.471,179.013l9.5,18.474c-4.944,2.542-8.016,7.566-8.016,13.111
	c0,8.124,6.61,14.734,14.734,14.734c8.124,0,14.734-6.61,14.734-14.734c0-5.545-3.072-10.568-8.016-13.111l9.5-18.474
	c11.898,6.118,19.289,18.221,19.289,31.585c0,19.579-15.928,35.507-35.507,35.507c-19.579,0-35.507-15.928-35.507-35.507
	C378.181,197.233,385.572,185.131,397.471,179.013z"/>
<path style="fill:#00E8F2;" d="M87.924,235.353h20.774v54.104c0,10.416,8.474,18.891,18.89,18.891h18.972v20.773h-18.972
	c-21.87,0-39.664-17.793-39.664-39.664C87.924,289.457,87.924,235.353,87.924,235.353z"/>
<path style="fill:#FFFFFF;" d="M82.093,179.013l9.5,18.474c-4.944,2.542-8.016,7.566-8.016,13.111
	c0,8.124,6.61,14.734,14.734,14.734s14.734-6.61,14.734-14.734c0-5.545-3.071-10.568-8.016-13.111l9.5-18.474
	c11.898,6.118,19.289,18.221,19.289,31.585c0,19.579-15.928,35.507-35.507,35.507s-35.507-15.928-35.507-35.507
	C62.804,197.233,70.195,185.131,82.093,179.013z"/>
<rect x="233.8" y="367.19" style="fill:#00E8F2;" width="44.4" height="40.848"/>
<rect x="256" y="367.19" style="fill:#00C2C9;" width="22.2" height="40.85"/>
<rect x="183.12" y="405.4" style="fill:#FF9D1C;" width="145.77" height="25.439"/>
<rect x="256" y="405.4" style="fill:#CF7713;" width="72.88" height="25.44"/>
<rect x="219.4" y="202.48" style="fill:#00E8F2;" width="73.2" height="54.37"/>
<rect x="256" y="202.48" style="fill:#00C2C9;" width="36.6" height="54.38"/>
<path style="fill:#FFFFFF;" d="M311.771,208.389H200.229c-37.033,0-67.333-30.3-67.333-67.333v-0.385
	c0-37.033,30.3-67.333,67.333-67.333h111.542c37.033,0,67.333,30.3,67.333,67.333v0.385
	C379.104,178.089,348.804,208.389,311.771,208.389z"/>
<path style="fill:#E0E0E2;" d="M379.1,140.67v0.39c0,37.03-30.3,67.33-67.33,67.33H256V73.34h55.77
	C348.8,73.34,379.1,103.64,379.1,140.67z"/>
<rect x="182.18" y="114.55" style="fill:#00A6FF;" width="147.64" height="52.629"/>
<rect x="256" y="114.55" style="fill:#0073D9;" width="73.82" height="52.63"/>
<circle style="fill:#004EB0;" cx="226.56" cy="140.86" r="14.761"/>
<circle style="fill:#003C7D;" cx="285.44" cy="140.86" r="14.761"/>
<rect x="145.28" y="254.07" style="fill:#FFFFFF;" width="221.44" height="119.71"/>
<rect x="256" y="254.07" style="fill:#E0E0E2;" width="110.72" height="119.71"/>
<rect x="179.07" y="285.92" style="fill:#00A6FF;" width="153.87" height="56"/>
<rect x="256" y="285.92" style="fill:#0073D9;" width="76.93" height="56"/>
<g>
</g>
<g>
</g>
<g>
</g>
<g>
</g>
<g>
</g>
<g>
</g>
<g>
</g>
<g>
</g>
<g>
</g>
<g>
</g>
<g>
</g>
<g>
</g>
<g>
</g>
<g>
</g>
<g>
</g>
</svg>
