<?xml version="1.0" encoding="iso-8859-1"?>
<!-- Generator: Adobe Illustrator 19.0.0, SVG Export Plug-In . SVG Version: 6.00 Build 0)  -->
<svg version="1.1" id="Capa_1" xmlns="http://www.w3.org/2000/svg" xmlns:xlink="http://www.w3.org/1999/xlink" x="0px" y="0px"
	 viewBox="0 0 512 512" style="enable-background:new 0 0 512 512;" xml:space="preserve">
<circle style="fill:#D9ED69;" cx="256" cy="256" r="245"/>
<path style="fill:#159E97;" d="M457.955,336.711h-41.514V311.72c-10.469,9.191-24.171,14.78-39.162,14.78
	c-14.992,0-28.695-5.591-39.163-14.781v90.786c0,2.163,1.752,3.917,3.916,3.917h166.053c2.163,0,3.915-1.754,3.915-3.917v-11.75
	C512,360.956,487.755,336.711,457.955,336.711z"/>
<path style="fill:#37C47A;" d="M377.279,207.609c19.456,0,36.76,9.396,47.61,23.887V78.516
	c-26.718-25.432-59.172-44.886-95.221-56.237v209.219C340.519,217.006,357.823,207.609,377.279,207.609z"/>
<path style="fill:#2BB381;" d="M339.779,25.736c-3.341-1.217-6.704-2.385-10.11-3.457v209.219c2.925-3.906,6.332-7.427,10.11-10.509
	V25.736z"/>
<path style="fill:#FFFFFF;" d="M395.63,151.501c0,10.138-8.216,18.351-18.35,18.351l0,0c-10.134,0-18.349-8.213-18.349-18.351
	V79.848c0-10.133,8.215-18.349,18.349-18.349l0,0c10.134,0,18.35,8.216,18.35,18.349V151.501z"/>
<path style="fill:#D9EAFC;" d="M377.28,161.115c-5.302,0-9.614-4.313-9.614-9.614V79.848c0-5.3,4.313-9.611,9.614-9.611
	c5.3,0,9.61,4.312,9.61,9.611V151.5C386.89,156.803,382.58,161.115,377.28,161.115z"/>
<path style="fill:#159E97;" d="M367.666,115.024v36.477c0,5.302,4.313,9.614,9.614,9.614c5.3,0,9.61-4.313,9.61-9.614v-36.477
	H367.666z"/>
<circle style="fill:#0F9390;" cx="377.28" cy="267.05" r="60.45"/>
<path style="fill:#057C76;" d="M337.11,267.053c0-29.926,21.754-54.756,50.307-59.58c-3.298-0.558-6.681-0.863-10.138-0.863
	c-33.382,0-60.444,27.062-60.444,60.443c0,33.383,27.063,60.447,60.444,60.447c3.457,0,6.84-0.306,10.138-0.863
	C358.864,321.812,337.11,296.978,337.11,267.053z"/>
<circle style="fill:#37C47A;" cx="377.28" cy="267.05" r="27.611"/>
<path style="fill:#2BB381;" d="M359.778,267.053c0-13.52,9.722-24.764,22.556-27.14c-1.64-0.304-3.327-0.47-5.055-0.47
	c-15.25,0-27.61,12.362-27.61,27.609c0,15.248,12.36,27.611,27.61,27.611c1.727,0,3.415-0.166,5.055-0.47
	C369.5,291.818,359.778,280.573,359.778,267.053z"/>
<path style="fill:#37C47A;" d="M412.133,406.422v-2.289c0-10.797-8.833-19.63-19.626-19.63h-54.392v18.002
	c0,2.163,1.752,3.917,3.916,3.917H412.133z"/>
<path style="fill:#2BB381;" d="M359,402.505v-18.002h-20.884v18.002c0,2.163,1.752,3.917,3.916,3.917h20.884
	C360.752,406.422,359,404.668,359,402.505z"/>
<path style="fill:#37C47A;" d="M301.853,168.751c-12.014,12.015-27.989,18.632-44.98,18.632c-0.001,0,0,0-0.001,0
	c-16.993,0-32.969-6.618-44.983-18.634c-0.227-0.226-0.437-0.463-0.659-0.692v168.417l26.295,26.294
	c6.176-1.963,12.681-2.996,19.348-2.996c16.992,0,32.968,6.617,44.982,18.633c0.226,0.227,0.436,0.463,0.659,0.692v-211.04
	C302.291,168.287,302.08,168.524,301.853,168.751z"/>
<path style="fill:#2BB381;" d="M221.715,176.806c-3.497-2.329-6.789-5.019-9.827-8.057c-0.227-0.226-0.437-0.463-0.659-0.692
	v168.417l10.486,10.485V176.806z"/>
<path style="fill:#FFFFFF;" d="M278.635,317.848c0,12.022-9.743,21.764-21.764,21.764l0,0c-12.02,0-21.766-9.742-21.766-21.764
	V232.86c0-12.02,9.746-21.764,21.766-21.764l0,0c12.018,0,21.764,9.744,21.764,21.764V317.848z"/>
<path style="fill:#D9EAFC;" d="M256.872,329.251c-6.288,0-11.398-5.116-11.398-11.402V232.86c0-6.284,5.11-11.4,11.4-11.4
	c6.284,0,11.398,5.116,11.398,11.4v84.988C268.272,324.135,263.158,329.251,256.872,329.251z"/>
<path style="fill:#159E97;" d="M245.473,274.581v43.267c0,6.286,5.11,11.402,11.398,11.402c6.286,0,11.4-5.116,11.4-11.402v-43.267
	H245.473z"/>
<g>
	<path style="fill:#2BB381;" d="M90.721,217.77l14.576-14.576l-39.43-39.43c-4.026-4.024-10.601-4.04-14.608-0.032
		c-4.01,4.008-3.994,10.584,0.034,14.611L90.721,217.77z"/>
	<path style="fill:#2BB381;" d="M86.745,221.747L38.317,173.32c-4.024-4.026-10.599-4.04-14.607-0.03
		c-4.009,4.008-3.995,10.581,0.031,14.605l48.427,48.428L86.745,221.747z"/>
	<path style="fill:#2BB381;" d="M68.195,240.298l-43.127-43.127c-4.028-4.027-10.602-4.04-14.609-0.03
		c-4.011,4.009-3.996,10.583,0.032,14.609l43.124,43.127L68.195,240.298z"/>
	<path style="fill:#2BB381;" d="M49.642,258.849l-32.036-32.036c-4.028-4.026-10.6-4.04-14.609-0.032
		c-4.008,4.008-3.994,10.584,0.032,14.611l32.036,32.035L49.642,258.849z"/>
</g>
<g>
	<path style="fill:#37C47A;" d="M224.555,368.572c4.358-2.579,8.995-4.625,13.834-6.087l-92.98-92.98l-9.96,9.96L224.555,368.572z"
		/>
	<path style="fill:#37C47A;" d="M111.337,303.579l-9.962,9.962l93.933,93.931c1.267-4.936,3.139-9.747,5.603-14.319L111.337,303.579
		z"/>
</g>
<g>
	<path style="fill:#159E97;" d="M224.555,368.572c4.358-2.579,8.995-4.626,13.835-6.088l-47.244-47.244l-9.961,9.961
		L224.555,368.572z"/>
	<path style="fill:#159E97;" d="M157.072,349.314l-9.963,9.962l48.197,48.196c1.268-4.937,3.14-9.747,5.604-14.32L157.072,349.314z"
		/>
</g>
<path style="fill:#2BB381;" d="M149.572,242.352c1.118,1.118,2.048,2.376,2.783,3.73l-0.002-46.157
	c0.002-8.771-7.174-15.944-15.945-15.944h-0.594c-8.768,0-15.942,7.174-15.942,15.944l0.001,12.727L149.572,242.352z"/>
<path style="fill:#159E97;" d="M92.52,284.763c-2.977-2.977-4.615-6.951-4.615-11.191c0-4.24,1.64-8.215,4.616-11.19l1.729-1.732
	c2.976-2.976,6.949-4.615,11.19-4.615c4.24,0,8.216,1.64,11.192,4.615l19.522,19.522l14.123-14.123c6.713-6.71,6.713-17.69,0-24.403
	l-39.373-39.372c-1.677-1.679-4.424-1.679-6.102,0L33.899,273.18c-1.68,1.678-1.68,4.422,0,6.1l39.372,39.374
	c6.712,6.71,17.694,6.71,24.403,0.002l14.369-14.369L92.52,284.763z"/>
<path style="fill:#2BB381;" d="M211.887,378.404c4.098-4.098,8.665-7.551,13.568-10.345L117.34,259.942
	c-6.546-6.544-17.255-6.544-23.797,0l-1.729,1.731c-6.545,6.543-6.546,17.251-0.001,23.796L200.414,394.07
	C203.339,388.428,207.16,383.132,211.887,378.404z"/>
<path style="fill:#FFFFFF;" d="M211.887,378.404c1.353-1.352,2.761-2.625,4.21-3.839l-106.69-106.689
	c-2.15-2.149-5.783-2.149-7.933,0l-1.727,1.729c-2.151,2.149-2.15,5.784-0.002,7.933l106.87,106.87
	C208.232,382.326,209.977,380.314,211.887,378.404z"/>
<circle style="fill:#0F9390;" cx="256.87" cy="423.39" r="64.62"/>
<path style="fill:#057C76;" d="M231.924,469.077c-25.233-25.234-25.233-66.146,0-91.38c9.97-9.97,22.389-15.983,35.319-18.075
	c-19.799-3.204-40.799,2.811-56.063,18.075c-25.233,25.233-25.233,66.146,0,91.38c15.265,15.266,36.265,21.279,56.063,18.076
	C254.313,485.06,241.894,479.047,231.924,469.077z"/>
<circle style="fill:#37C47A;" cx="256.87" cy="423.39" r="28.1"/>
<path style="fill:#2BB381;" d="M247.035,443.255c-10.973-10.973-10.974-28.762-0.001-39.737c4.206-4.205,9.413-6.792,14.854-7.773
	c-8.755-1.581-18.116,1.007-24.885,7.773c-10.973,10.976-10.972,28.765,0.001,39.737c6.768,6.767,16.128,9.354,24.883,7.773
	C256.447,450.047,251.24,447.459,247.035,443.255z"/>
<path style="fill:#0F9390;" d="M302.56,169.458c25.236-25.234,25.236-66.148,0-91.383c-25.232-25.233-66.146-25.233-91.379,0
	c-25.235,25.234-25.235,66.148,0,91.381C236.414,194.691,277.328,194.691,302.56,169.458z"/>
<path style="fill:#057C76;" d="M231.926,169.456c-25.235-25.232-25.235-66.146,0-91.381c9.969-9.969,22.387-15.982,35.317-18.075
	c-19.799-3.203-40.799,2.811-56.063,18.075c-25.235,25.234-25.235,66.148,0,91.381c15.264,15.266,36.265,21.28,56.063,18.076
	C254.314,185.439,241.895,179.426,231.926,169.456z"/>
<circle style="fill:#37C47A;" cx="256.87" cy="123.77" r="28.1"/>
<path style="fill:#2BB381;" d="M247.035,143.634c-10.973-10.973-10.974-28.762,0-39.735c4.205-4.205,9.412-6.791,14.853-7.773
	c-8.755-1.581-18.116,1.007-24.884,7.773c-10.974,10.974-10.973,28.763,0,39.735c6.768,6.769,16.128,9.356,24.883,7.774
	C256.447,150.427,251.24,147.839,247.035,143.634z"/>
<circle style="fill:#FFCA51;" cx="66.772" cy="265.82" r="6.472"/>
<path style="fill:#FFFFFF;" d="M86.79,245.802c-2.528-2.528-6.624-2.528-9.152,0c-2.526,2.526-2.526,6.624,0,9.151
	s6.624,2.525,9.149,0C89.318,252.424,89.317,248.328,86.79,245.802z"/>
<circle style="fill:#EF8318;" cx="97.28" cy="235.31" r="6.472"/>
<path style="fill:#FFCA51;" d="M472.256,393.042c0.002,3.69,2.994,6.683,6.685,6.686c3.692-0.002,6.687-2.994,6.688-6.688
	c0-3.691-2.996-6.683-6.688-6.684C475.25,386.357,472.256,389.351,472.256,393.042z"/>
<path style="fill:#FFFFFF;" d="M449.696,393.042c0.003,3.693,2.992,6.685,6.686,6.685c3.69,0,6.685-2.993,6.685-6.685
	c0.002-3.691-2.994-6.683-6.683-6.683C452.688,386.357,449.696,389.349,449.696,393.042z"/>
<circle style="fill:#EF8318;" cx="434.38" cy="393.04" r="6.686"/>
<circle style="fill:#FFCA51;" cx="399" cy="186.81" r="6.687"/>
<path style="fill:#FFFFFF;" d="M369.753,186.813c0.001,3.693,2.992,6.684,6.686,6.686c3.691,0,6.685-2.993,6.686-6.686
	c0.001-3.691-2.994-6.683-6.684-6.683C372.744,180.129,369.753,183.121,369.753,186.813z"/>
<circle style="fill:#EF8318;" cx="354.43" cy="186.81" r="6.686"/>
<path style="fill:#0F9390;" d="M83.631,308.639l-39.372-39.374c-1.68-1.678-1.68-4.422,0-6.1l-10.36,10.015
	c-1.68,1.678-1.68,4.422,0,6.1l39.372,39.374c6.712,6.71,17.694,6.71,24.403,0.002l8.233-8.233
	C99.176,315.264,89.677,314.681,83.631,308.639z"/>
<g>
</g>
<g>
</g>
<g>
</g>
<g>
</g>
<g>
</g>
<g>
</g>
<g>
</g>
<g>
</g>
<g>
</g>
<g>
</g>
<g>
</g>
<g>
</g>
<g>
</g>
<g>
</g>
<g>
</g>
</svg>
