<svg height="512pt" viewBox="0 0 512 512" width="512pt" xmlns="http://www.w3.org/2000/svg"><path d="m512 256c0 141.386719-114.613281 256-256 256s-256-114.613281-256-256 114.613281-256 256-256 256 114.613281 256 256zm0 0" fill="#feeccc"/><path d="m350.871094 99.828125-32.214844 32.21875-38.824219-38.828125-119.023437 119.023438 82.546875 82.546874-112.027344 112.027344 104.386719 104.382813c6.691406.527343 13.457031.800781 20.285156.800781 139.75 0 253.328125-111.980469 255.9375-251.105469zm0 0" fill="#fcd999"/><path d="m361.382812 319.699219v1.226562l-21.339843 65.832031h-84.042969l-44.707031-86.21875 44.707031-86.222656c58.105469 0 105.382812 47.277344 105.382812 105.382813zm0 0" fill="#6858ad"/><path d="m256 214.316406v172.445313h-84.042969l-21.339843-65.835938v-1.226562c0-58.105469 47.277343-105.382813 105.382812-105.382813zm0 0" fill="#806cd4"/><path d="m188.300781 88.5 25.546875 67.699219-25.546875 67.699219c-21.125 0-38.320312-17.1875-38.320312-38.320313v-58.757813c0-21.132812 17.195312-38.320312 38.320312-38.320312zm0 0" fill="#4a8dc6"/><path d="m323.699219 88.5-25.546875 67.699219 25.546875 67.699219c21.125 0 38.320312-17.1875 38.320312-38.320313v-58.757813c0-21.132812-17.195312-38.320312-38.320312-38.320312zm0 0" fill="#1d71b8"/><path d="m256 88.5-21.535156 67.699219 21.535156 67.699219h67.699219v-135.398438zm0 0" fill="#a5c6e3"/><path d="m188.300781 88.5h67.699219v135.398438h-67.699219zm0 0" fill="#d2e3f1"/><path d="m256 348.4375-9.578125 9.582031 9.578125 9.582031h56.203125v-19.164062zm0 0" fill="#d2e3f1"/><path d="m199.796875 348.4375h56.203125v19.160156h-56.203125zm0 0" fill="#fff"/><path d="m388.84375 332.472656v15.96875l-28.738281 19.160156-28.742188-19.160156v-15.96875c0-15.84375 12.894531-28.738281 28.742188-28.738281 15.84375 0 28.738281 12.894531 28.738281 28.738281zm0 0" fill="#a5c6e3"/><path d="m180.636719 332.472656v15.96875l-28.738281 19.160156-28.742188-19.160156v-15.96875c0-15.84375 12.894531-28.738281 28.742188-28.738281 15.84375 0 28.738281 12.894531 28.738281 28.738281zm0 0" fill="#d2e3f1"/><path d="m180.636719 348.4375v38.320312c0 15.847657-12.894531 28.742188-28.738281 28.742188-15.847657 0-28.742188-12.894531-28.742188-28.742188v-38.320312zm0 0" fill="#0e3759"/><path d="m388.84375 348.4375v38.320312c0 15.847657-12.894531 28.742188-28.738281 28.742188-15.847657 0-28.742188-12.894531-28.742188-28.742188v-38.320312zm0 0" fill="#092339"/><path d="m256 165.777344-9.578125 9.582031 9.578125 9.578125h19.160156v-19.160156zm0 0" fill="#4a8dc6"/><path d="m236.839844 165.777344h19.160156v19.160156h-19.160156zm0 0" fill="#77aad4"/><path d="m275.160156 127.460938h19.160156v19.15625h-19.160156zm0 0" fill="#092339"/><path d="m217.679688 127.460938h19.160156v19.15625h-19.160156zm0 0" fill="#0e3759"/></svg>