<svg height="512pt" viewBox="0 0 512 512" width="512pt" xmlns="http://www.w3.org/2000/svg" xmlns:xlink="http://www.w3.org/1999/xlink"><linearGradient id="a" gradientUnits="userSpaceOnUse" x1="74.9807" x2="437.0193" y1="74.9807" y2="437.0193"><stop offset="0" stop-color="#4a8dc6"/><stop offset="1" stop-color="#185e98"/></linearGradient><linearGradient id="b"><stop offset="0" stop-color="#fbc566"/><stop offset="1" stop-color="#fa9647"/></linearGradient><linearGradient id="c" gradientUnits="userSpaceOnUse" x1="245.993" x2="346.0633" xlink:href="#b" y1="298.7629" y2="398.8333"/><linearGradient id="d" gradientUnits="userSpaceOnUse" x1="169.5756" x2="262.3681" xlink:href="#b" y1="302.4018" y2="395.1944"/><linearGradient id="e"><stop offset="0" stop-color="#fb7a5b"/><stop offset="1" stop-color="#ff2796"/></linearGradient><linearGradient id="f" gradientUnits="userSpaceOnUse" x1="279.653" x2="326.959" xlink:href="#e" y1="399.743" y2="447.049"/><linearGradient id="g" gradientUnits="userSpaceOnUse" x1="185.041" x2="232.347" xlink:href="#e" y1="399.743" y2="447.049"/><linearGradient id="h" gradientUnits="userSpaceOnUse" x1="223.1264" x2="288.8736" xlink:href="#b" y1="79.5118" y2="145.259"/><linearGradient id="i" gradientUnits="userSpaceOnUse" x1="111.0799" x2="206.3287" xlink:href="#e" y1="177.6778" y2="272.9266"/><linearGradient id="j" gradientUnits="userSpaceOnUse" x1="293.7993" x2="412.7921" xlink:href="#e" y1="165.8058" y2="284.7986"/><linearGradient id="k" gradientUnits="userSpaceOnUse" x1="174.6701" x2="337.3299" y1="132.1003" y2="294.7601"><stop offset="0" stop-color="#fa9647"/><stop offset="1" stop-color="#fd5f6e"/></linearGradient><linearGradient id="l" gradientUnits="userSpaceOnUse" x1="232.8421" x2="279.1579" xlink:href="#e" y1="192.0918" y2="238.4076"/><path d="m512 256c0 141.386719-114.613281 256-256 256s-256-114.613281-256-256 114.613281-256 256-256 256 114.613281 256 256zm0 0" fill="url(#a)"/><path d="m266.917969 277.839844v134.640625l50.945312 14.554687v-149.195312zm0 0" fill="url(#c)"/><path d="m194.136719 365.171875v61.863281l50.945312-14.554687v-134.640625h-50.945312zm0 0" fill="url(#d)"/><path d="m266.917969 412.480469h72.777343v21.832031h-72.777343zm0 0" fill="url(#f)"/><path d="m172.304688 412.480469h72.777343v21.832031h-72.777343zm0 0" fill="url(#g)"/><path d="m256 61.6875c-20.066406 0-36.390625 16.324219-36.390625 36.386719v43.667969h72.78125v-43.667969c0-20.0625-16.324219-36.386719-36.390625-36.386719zm0 0" fill="url(#h)"/><path d="m223.25 215.25-43.667969-88.0625c-24.015625 0-43.667969 19.652344-43.667969 43.667969v150.652343h14.558594v-21.835937h29.109375zm0 0" fill="url(#i)"/><path d="m332.417969 127.1875-43.667969 88.0625 43.667969 84.421875h29.109375v21.835937h14.558594v-150.652343c0-24.015625-19.652344-43.667969-43.667969-43.667969zm0 0" fill="url(#j)"/><path d="m256 127.1875h-76.417969v172.484375h152.835938v-172.484375zm0 0" fill="url(#k)"/><path d="m288.75 215.25c0 18.085938-14.664062 32.75-32.75 32.75s-32.75-14.664062-32.75-32.75 14.664062-32.75 32.75-32.75 32.75 14.664062 32.75 32.75zm0 0" fill="url(#l)"/></svg>