<svg height="512pt" viewBox="0 0 512 512" width="512pt" xmlns="http://www.w3.org/2000/svg"><path d="m512 256c0 141.386719-114.613281 256-256 256s-256-114.613281-256-256 114.613281-256 256-256 256 114.613281 256 256zm0 0" fill="#b440a1"/><path d="m510.421875 284.421875-212.421875-212.421875-84 64 28 28-100.5 22-11 65-30.5 65 87.839844 87-3.839844 37 72 72c131.777344 0 240.28125-99.570312 254.421875-227.578125zm0 0" fill="#8e25c0"/><path d="m244 128h24v48h-24zm0 0" fill="#1d71b8"/><path d="m214 72v64h42l18.667969-32-18.667969-32zm0 0" fill="#77aad4"/><path d="m256 72h42v64h-42zm0 0" fill="#1d71b8"/><path d="m220 408h-24v-104l24-16zm0 0" fill="#1d71b8"/><path d="m316 408h-24v-120l24 16zm0 0" fill="#134a79"/><path d="m176 164c-28.671875 0-52 23.328125-52 52v44h24v-44c0-15.4375 12.5625-28 28-28h80v-24zm0 0" fill="#1d71b8"/><path d="m336 164h-80v24h80c15.4375 0 28 12.5625 28 28v44h24v-44c0-28.671875-23.328125-52-52-52zm0 0" fill="#134a79"/><path d="m196 164v140h60l20-70-20-70zm0 0" fill="#77aad4"/><path d="m256 164h60v140h-60zm0 0" fill="#1d71b8"/><path d="m172 316h-24v-32c0-6.617188-5.382812-12-12-12s-12 5.382812-12 12v32h-24v-32c0-19.851562 16.148438-36 36-36s36 16.148438 36 36zm0 0" fill="#fac15c"/><path d="m412 316h-24v-32c0-6.617188-5.382812-12-12-12s-12 5.382812-12 12v32h-24v-32c0-19.851562 16.148438-36 36-36s36 16.148438 36 36zm0 0" fill="#f9b233"/><path d="m208 392c-13.253906 0-24 10.746094-24 24v24h48v-24c0-13.253906-10.746094-24-24-24zm0 0" fill="#134a79"/><path d="m304 392c-13.253906 0-24 10.746094-24 24v24h48v-24c0-13.253906-10.746094-24-24-24zm0 0" fill="#092339"/></svg>