<svg height="512pt" viewBox="0 0 512 512.001" width="512pt" xmlns="http://www.w3.org/2000/svg"><path d="m512 256c0 141.386719-114.613281 256-256 256-141.382812 0-256-114.613281-256-256s114.617188-256 256-256c141.386719 0 256 114.613281 256 256zm0 0" fill="#ffda00"/><path d="m324.867188 502.617188c107.933593-30.074219 187.132812-129.09375 187.132812-246.617188 0-3.8125-.097656-7.605469-.265625-11.378906l-122.5-122.503906-12.664063 14.953124-46.570312-46.570312-5.40625 8.957031-52.457031-52.453125-149.367188 253.519532zm0 0" fill="#ffb000"/><path d="m239.863281 47h32.273438v86.996094h-32.273438zm0 0" fill="#5a54e0"/><path d="m255.90625 47h16.230469v86.996094h-16.230469zm0 0" fill="#3838ba"/><path d="m70.015625 431.902344c15.929687 16.835937 34.117187 31.507812 54.082031 43.535156v-94.722656h-54.082031zm0 0" fill="#9a9af7"/><path d="m387.902344 475.4375c19.964844-12.027344 38.152344-26.699219 54.082031-43.535156v-51.1875h-54.082031zm0 0" fill="#8181ef"/><path d="m155.910156 380.714844c0 23.71875-19.230468 42.945312-42.949218 42.945312s-42.945313-19.226562-42.945313-42.945312 19.226563-42.945313 42.945313-42.945313 42.949218 19.226563 42.949218 42.945313zm0 0" fill="#8181ef"/><path d="m441.984375 380.714844c0 23.71875-19.226563 42.945312-42.945313 42.945312s-42.945312-19.226562-42.945312-42.945312 19.226562-42.945313 42.945312-42.945313 42.945313 19.226563 42.945313 42.945313zm0 0" fill="#7d7def"/><path d="m182 90.5h148v70.527344h-148zm0 0" fill="#8181ef"/><path d="m255.90625 90.5h74.09375v70.527344h-74.09375zm0 0" fill="#7d7def"/><path d="m182 267.242188h148v70.527343h-148zm0 0" fill="#8181ef"/><path d="m255.90625 267.242188h74.09375v70.527343h-74.09375zm0 0" fill="#7d7def"/><path d="m112.960938 468.339844c40.839843 27.566406 90.0625 43.660156 143.039062 43.660156 52.980469 0 102.199219-16.09375 143.039062-43.660156v-130.570313h-286.078124zm0 0" fill="#5a54e0"/><path d="m255.90625 337.769531v174.230469h.09375c52.980469 0 102.199219-16.09375 143.039062-43.65625v-130.574219zm0 0" fill="#3838ba"/><path d="m122.769531 122.117188h266.464844v178.402343h-266.464844zm0 0" fill="#5a54e0"/><path d="m255.90625 122.117188h133.328125v178.402343h-133.328125zm0 0" fill="#3838ba"/><path d="m220.367188 205.820312c0 17.046876-13.820313 30.863282-30.867188 30.863282s-30.863281-13.816406-30.863281-30.863282c0-17.046874 13.816406-30.867187 30.863281-30.867187s30.867188 13.820313 30.867188 30.867187zm0 0" fill="#fff"/><path d="m353.367188 205.820312c0 17.046876-13.820313 30.863282-30.867188 30.863282s-30.863281-13.816406-30.863281-30.863282c0-17.046874 13.816406-30.867187 30.863281-30.867187s30.867188 13.820313 30.867188 30.867187zm0 0" fill="#e9edf5"/><path d="m220.367188 250h71.269531v24.992188h-71.269531zm0 0" fill="#fff"/><path d="m255.90625 250h35.730469v24.992188h-35.730469zm0 0" fill="#e9edf5"/></svg>