<svg height="512pt" viewBox="0 0 512 512.003" width="512pt" xmlns="http://www.w3.org/2000/svg"><path d="m340.875 248.523438c-5.484375 0-10.558594 1.746093-14.707031 4.703124v41.324219c4.148437 2.957031 9.222656 4.703125 14.707031 4.703125 14.011719 0 25.367188-11.355468 25.367188-25.367187 0-14.007813-11.355469-25.363281-25.367188-25.363281zm0 0" fill="#cac0c9"/><path d="m186.523438 253.226562c-4.152344-2.957031-9.226563-4.703124-14.710938-4.703124-14.007812 0-25.363281 11.355468-25.363281 25.363281 0 14.011719 11.355469 25.367187 25.363281 25.367187 5.484375 0 10.558594-1.746094 14.710938-4.703125zm0 0" fill="#cac0c9"/><path d="m340.875 278.25c-5.484375 0-10.558594-1.746094-14.707031-4.707031v21.007812c4.148437 2.957031 9.222656 4.703125 14.707031 4.703125 14.011719 0 25.367188-11.355468 25.367188-25.367187 0-3.746094-.820313-7.300781-2.277344-10.5-3.996094 8.765625-12.828125 14.863281-23.089844 14.863281zm0 0" fill="#bbb0ba"/><path d="m148.726562 263.386719c-1.460937 3.199219-2.277343 6.753906-2.277343 10.5 0 14.011719 11.355469 25.367187 25.363281 25.367187 5.484375 0 10.558594-1.746094 14.710938-4.703125v-21.007812c-4.152344 2.960937-9.226563 4.707031-14.710938 4.707031-10.261719 0-19.09375-6.097656-23.085938-14.863281zm0 0" fill="#bbb0ba"/><path d="m311.164062 325.960938h-109.636718c-8.289063 0-15.003906-6.71875-15.003906-15.003907v-74.140625c0-8.285156 6.714843-15.003906 15.003906-15.003906h109.636718c8.289063 0 15.003907 6.71875 15.003907 15.003906v74.140625c0 8.289063-6.714844 15.003907-15.003907 15.003907zm0 0" fill="#e6e2e6"/><path d="m311.164062 298.953125h-109.636718c-8.289063 0-15.003906-6.714844-15.003906-15v27.003906c0 8.285157 6.714843 15.003907 15.003906 15.003907h109.636718c8.289063 0 15.003907-6.71875 15.003907-15.003907v-27.003906c0 8.285156-6.714844 15-15.003907 15zm0 0" fill="#d8d1d7"/><path d="m277.757812 176.898438c0 11.824218-9.585937 21.414062-21.414062 21.414062-11.824219 0-21.414062-9.589844-21.414062-21.414062 0-11.828126 9.589843-21.414063 21.414062-21.414063 11.828125 0 21.414062 9.585937 21.414062 21.414063zm0 0" fill="#ff4755"/><path d="m256.34375 180.308594c-8.605469 0-16.007812-5.089844-19.410156-12.414063-1.273438 2.738281-2.003906 5.78125-2.003906 9.003907 0 11.824218 9.585937 21.414062 21.414062 21.414062s21.414062-9.589844 21.414062-21.414062c0-3.222657-.730468-6.265626-2.003906-9.003907-3.402344 7.324219-10.800781 12.414063-19.410156 12.414063zm0 0" fill="#fc2b3a"/><path d="m218.675781 504.5h74.652344l8.667969-61.066406c19.304687-4.722656 37.476562-12.335938 54.015625-22.378906l49.3125 37.050781 52.785156-52.785157-37.050781-49.308593c10.042968-16.539063 17.65625-34.710938 22.378906-54.019531l61.0625-8.667969v-74.648438l-61.066406-8.667969c-4.71875-19.308593-12.332032-37.480468-22.375-54.019531l37.050781-49.308593-52.785156-52.789063-49.3125 37.054687c-16.539063-10.042968-34.710938-17.65625-54.015625-22.378906l-8.671875-61.066406h-74.648438l-8.667969 61.066406c-19.308593 4.722656-37.480468 12.335938-54.015624 22.378906l-49.3125-37.054687-52.785157 52.789063 37.050781 49.308593c-10.042968 16.539063-17.65625 34.710938-22.375 54.019531l-61.066406 8.667969v74.648438l61.0625 8.667969c4.722656 19.308593 12.335938 37.480468 22.378906 54.019531l-37.050781 49.308593 52.785157 52.789063 49.3125-37.050781c16.539062 10.039062 34.710937 17.652344 54.015624 22.375zm-103.9375-248.5c0-78.019531 63.246094-141.265625 141.265625-141.265625 78.015625 0 141.261719 63.246094 141.261719 141.265625 0 78.015625-63.246094 141.265625-141.261719 141.265625-78.019531 0-141.265625-63.246094-141.265625-141.265625zm0 0" fill="#ff4755"/><g fill="#fc2b3a"><path d="m115.382812 242.496094c6.796876-71.679688 67.15625-127.761719 140.621094-127.761719 73.460938 0 133.816406 56.082031 140.617188 127.761719.421875-4.445313.644531-8.945313.644531-13.503906 0-78.015626-63.246094-141.261719-141.261719-141.261719-78.019531 0-141.265625 63.246093-141.265625 141.261719 0 4.558593.222657 9.058593.644531 13.503906zm0 0"/><path d="m214.84375 477.492188 3.832031 27.007812h74.648438l3.835937-27.007812zm0 0"/><path d="m70.125 383.71875-16.230469 21.601562 52.785157 52.785157 21.5625-16.199219zm0 0"/><path d="m441.875 383.71875 16.234375 21.601562-52.785156 52.785157-21.5625-16.199219zm0 0"/><path d="m443.433594 274.785156v27.207032l61.066406-8.667969v-27.066407zm0 0"/><path d="m68.570312 274.785156v27.207032l-61.066406-8.667969v-27.066407zm0 0"/></g><path d="m201.527344 214.3125c-12.410156 0-22.507813 10.09375-22.507813 22.503906v5.007813c-2.34375-.523438-4.753906-.804688-7.203125-.804688-18.125 0-32.867187 14.746094-32.867187 32.867188 0 18.125 14.742187 32.871093 32.867187 32.871093 2.449219 0 4.859375-.28125 7.203125-.808593v5.007812c0 12.410157 10.097657 22.503907 22.507813 22.503907h57.394531c4.144531 0 7.503906-3.355469 7.503906-7.5 0-4.144532-3.359375-7.503907-7.503906-7.503907h-57.394531c-4.136719 0-7.503906-3.363281-7.503906-7.5v-74.140625c0-4.136718 3.367187-7.5 7.503906-7.5h109.636718c4.136719 0 7.503907 3.363282 7.503907 7.5v74.140625c0 4.136719-3.367188 7.503907-7.503907 7.503907h-22.234374c-4.144532 0-7.503907 3.359374-7.503907 7.5 0 4.144531 3.359375 7.503906 7.503907 7.503906h22.234374c12.410157 0 22.507813-10.097656 22.507813-22.507813v-5.003906c2.34375.523437 4.753906.804687 7.203125.804687 18.125 0 32.867188-14.746093 32.867188-32.867187 0-18.125-14.742188-32.871094-32.867188-32.871094-2.449219 0-4.859375.28125-7.203125.804688v-5.003907c0-12.410156-10.097656-22.507812-22.507813-22.507812h-47.316406v-9.492188c12.316406-3.3125 21.414063-14.570312 21.414063-27.921874 0-15.945313-12.972657-28.917969-28.917969-28.917969s-28.914062 12.972656-28.914062 28.917969c0 13.351562 9.09375 24.609374 21.414062 27.921874v9.492188zm-29.714844 77.441406c-9.847656 0-17.863281-8.015625-17.863281-17.863281 0-9.851563 8.015625-17.867187 17.863281-17.867187 2.515625 0 4.953125.53125 7.207031 1.53125v32.671874c-2.253906.996094-4.691406 1.527344-7.207031 1.527344zm169.0625-35.730468c9.851562 0 17.863281 8.015624 17.863281 17.863281 0 9.851562-8.011719 17.867187-17.863281 17.867187-2.511719 0-4.949219-.53125-7.203125-1.53125v-32.667968c2.253906-1 4.691406-1.53125 7.203125-1.53125zm-98.441406-79.125c0-7.671876 6.238281-13.914063 13.910156-13.914063s13.914062 6.242187 13.914062 13.914063c0 7.667968-6.242187 13.910156-13.914062 13.910156s-13.910156-6.242188-13.910156-13.910156zm0 0"/><path d="m212.324219 271.96875c0 6.304688 5.128906 11.4375 11.4375 11.4375 6.304687 0 11.4375-5.132812 11.4375-11.4375 0-6.308594-5.132813-11.4375-11.4375-11.4375-6.308594 0-11.4375 5.128906-11.4375 11.4375zm0 0"/><path d="m300.367188 271.96875c0-6.308594-5.132813-11.4375-11.4375-11.4375-6.308594 0-11.4375 5.128906-11.4375 11.4375 0 6.304688 5.128906 11.4375 11.4375 11.4375 6.304687 0 11.4375-5.132812 11.4375-11.4375zm0 0"/><path d="m505.554688 211.246094-56.109376-7.960938c-4.449218-16.378906-10.949218-32.074218-19.382812-46.792968l34.042969-45.304688c2.242187-2.988281 1.949219-7.171875-.691407-9.8125l-52.785156-52.785156c-2.644531-2.644532-6.824218-2.9375-9.8125-.695313l-45.308594 34.042969c-14.71875-8.429688-30.414062-14.929688-46.789062-19.382812l-7.964844-56.105469c-.527344-3.699219-3.691406-6.449219-7.429687-6.449219h-74.648438c-3.734375 0-6.902343 2.75-7.425781 6.449219l-7.964844 56.105469c-16.375 4.449218-32.074218 10.953124-46.792968 19.382812l-45.304688-34.042969c-2.988281-2.242187-7.171875-1.949219-9.8125.695313l-52.785156 52.785156c-2.640625 2.640625-2.9375 6.824219-.691406 9.8125l34.042968 45.304688c-8.433594 14.71875-14.933594 30.417968-19.382812 46.792968l-56.109375 7.960938c-3.699219.527344-6.449219 3.695312-6.449219 7.429687v74.648438c0 3.738281 2.75 6.902343 6.449219 7.429687l56.109375 7.964844c4.449218 16.375 10.949218 32.070312 19.382812 46.789062l-34.042968 45.308594c-2.246094 2.984375-1.949219 7.167969.691406 9.808594l52.785156 52.789062c2.640625 2.640626 6.824219 2.933594 9.8125.691407l15.011719-11.28125c3.3125-2.488281 3.980469-7.191407 1.492187-10.503907-2.492187-3.308593-7.195312-3.976562-10.503906-1.488281l-9.808594 7.367188-43.574218-43.578125 33.136718-44.101563c1.84375-2.453125 2.007813-5.78125.417969-8.402343-9.785156-16.117188-17.023437-33.578126-21.503906-51.90625-.730469-2.976563-3.195313-5.214844-6.230469-5.644532l-54.621094-7.753906v-61.625l54.617188-7.753906c3.039062-.429688 5.503906-2.667969 6.234375-5.644532 4.480469-18.324218 11.714843-35.789062 21.5-51.90625 1.59375-2.621093 1.429687-5.949218-.414063-8.402343l-33.136718-44.101563 43.574218-43.578125 44.105469 33.140625c2.449219 1.839844 5.773437 2.003906 8.398437.414063 16.117188-9.785157 33.578126-17.019531 51.90625-21.503907 2.980469-.726562 5.214844-3.195312 5.648438-6.230468l7.753906-54.617188h61.621094l7.753906 54.617188c.433594 3.035156 2.667969 5.503906 5.644532 6.234375 18.328124 4.480469 35.792968 11.714843 51.910156 21.5 2.621094 1.59375 5.949218 1.425781 8.398437-.414063l44.105469-33.140625 43.574219 43.578125-33.140625 44.105469c-1.839844 2.453125-2.003906 5.777344-.414063 8.398437 9.789063 16.117188 17.023438 33.582032 21.503907 51.90625.726562 2.980469 3.195312 5.214844 6.230468 5.644532l54.617188 7.753906v61.625l-54.617188 7.753906c-3.035156.429688-5.503906 2.667969-6.230468 5.648438-4.484376 18.324218-11.71875 35.789062-21.503907 51.902344-1.589843 2.621093-1.425781 5.949218.414063 8.402343l33.140625 44.101563-43.574219 43.578125-44.105469-33.140625c-2.453125-1.839844-5.777343-2.003906-8.398437-.414063-16.117188 9.789063-33.582032 17.023438-51.90625 21.503907-2.980469.726562-5.214844 3.195312-5.648438 6.234374l-7.753906 54.617188h-61.621094l-7.753906-54.617188c-.433594-3.035156-2.667969-5.503906-5.648438-6.234374-18.324218-4.480469-35.789062-11.714844-51.90625-21.5-2.621093-1.59375-5.949218-1.429688-8.398437.414062l-10.261719 7.710938c-3.3125 2.488281-3.980468 7.191406-1.492187 10.503906s7.191406 3.980468 10.503906 1.492187l6.257813-4.703125c14.71875 8.429688 30.417968 14.933594 46.792968 19.382813l7.964844 56.105469c.523438 3.699218 3.691406 6.449218 7.425781 6.449218h74.648438c3.738281 0 6.902343-2.75 7.429687-6.449218l7.964844-56.109376c16.375-4.449218 32.070312-10.949218 46.789062-19.382812l45.308594 34.042969c2.984375 2.246093 7.167969 1.949219 9.8125-.691407l52.785156-52.785156c2.640626-2.640625 2.9375-6.824218.691407-9.8125l-34.042969-45.304687c8.433594-14.71875 14.933594-30.417969 19.382812-46.792969l56.109376-7.964844c3.699218-.523437 6.445312-3.691406 6.445312-7.425781v-74.652344c0-3.734375-2.746094-6.902343-6.445312-7.429687zm0 0"/><path d="m166.230469 137.363281c-37.492188 28.410157-58.996094 71.652344-58.996094 118.636719 0 82.03125 66.738281 148.765625 148.765625 148.765625 82.03125 0 148.765625-66.734375 148.765625-148.765625s-66.734375-148.765625-148.765625-148.765625c-21.898438 0-42.996094 4.652344-62.707031 13.824219-3.753907 1.746094-5.382813 6.210937-3.632813 9.964844 1.746094 3.757812 6.207032 5.386718 9.964844 3.636718 17.710938-8.242187 36.679688-12.421875 56.375-12.421875 73.757812 0 133.761719 60.003907 133.761719 133.761719s-60.003907 133.761719-133.761719 133.761719-133.761719-60.003907-133.761719-133.761719c0-42.246094 19.335938-81.128906 53.054688-106.679688 3.300781-2.503906 3.949219-7.207031 1.445312-10.511718-2.503906-3.300782-7.207031-3.949219-10.507812-1.445313zm0 0"/></svg>