<?xml version="1.0" encoding="iso-8859-1"?>
<!-- Generator: Adobe Illustrator 19.0.0, SVG Export Plug-In . SVG Version: 6.00 Build 0)  -->
<svg version="1.1" id="Layer_1" xmlns="http://www.w3.org/2000/svg" xmlns:xlink="http://www.w3.org/1999/xlink" x="0px" y="0px"
	 viewBox="0 0 297.001 297.001" style="enable-background:new 0 0 297.001 297.001;" xml:space="preserve">
<g>
	<g>
		<circle style="fill:#404447;" cx="148.501" cy="148.5" r="148.5"/>
	</g>
	<path style="fill:#2C3033;" d="M296.948,152.446l-35.335-35.335L34.587,195.597L135.4,296.419
		c4.318,0.378,8.685,0.582,13.101,0.582C229.196,297,294.856,232.636,296.948,152.446z"/>
	<g>
		<path style="fill:#848C91;" d="M259.028,116.153l-76.721-27.445c-8.188-2.929-16.806,3.141-16.806,11.837v16.492h4.711
			c0.416-5.114,5.594-8.561,10.537-6.793l18.99,6.793h59.136C259.385,117.037,259.51,116.325,259.028,116.153z"/>
	</g>
	<g>
		<path style="fill:#848C91;" d="M37.974,116.153l76.721-27.445c8.188-2.929,16.806,3.141,16.806,11.837v16.492h-4.711
			c-0.416-5.114-5.594-8.561-10.537-6.793l-18.99,6.793H38.127C37.616,117.037,37.492,116.325,37.974,116.153z"/>
	</g>
	<g>
		<path style="fill:#D0D5D9;" d="M257.25,115.5h-217.5c-3.728,0-6.75,3.022-6.75,6.75v69c0,3.728,3.022,6.75,6.75,6.75h79.475
			c5.404,0,10.587-2.147,14.408-5.968l14.866-14.866l14.866,14.866c3.821,3.821,9.004,5.968,14.408,5.968h79.475
			c3.728,0,6.75-3.022,6.75-6.75v-69C264,118.522,260.979,115.5,257.25,115.5z"/>
	</g>
	<g>
		<path style="fill:#A1A5A8;" d="M257.25,115.5H148.168v61.999l0.333-0.333l14.866,14.866c3.821,3.821,9.004,5.968,14.408,5.968
			h79.475c3.728,0,6.75-3.022,6.75-6.75v-69C264,118.522,260.979,115.5,257.25,115.5z"/>
	</g>
	<g>
		<path style="fill:#D35400;" d="M126.835,181.5H54.668c-2.853,0-5.167-2.313-5.167-5.167v-39.167c0-2.853,2.313-5.167,5.167-5.167
			h72.167c2.853,0,5.166,2.313,5.166,5.167v39.167C132.001,179.187,129.688,181.5,126.835,181.5z"/>
	</g>
	<g>
		<path style="fill:#16A085;" d="M242.333,181.5h-72.167c-2.853,0-5.167-2.313-5.167-5.167v-39.167c0-2.853,2.313-5.167,5.167-5.167
			h72.167c2.853,0,5.167,2.313,5.167,5.167v39.167C247.501,179.187,245.188,181.5,242.333,181.5z"/>
	</g>
</g>
<g>
</g>
<g>
</g>
<g>
</g>
<g>
</g>
<g>
</g>
<g>
</g>
<g>
</g>
<g>
</g>
<g>
</g>
<g>
</g>
<g>
</g>
<g>
</g>
<g>
</g>
<g>
</g>
<g>
</g>
</svg>
