<?xml version="1.0" encoding="iso-8859-1"?>
<!-- Generator: Adobe Illustrator 19.0.0, SVG Export Plug-In . SVG Version: 6.00 Build 0)  -->
<svg version="1.1" id="Layer_1" xmlns="http://www.w3.org/2000/svg" xmlns:xlink="http://www.w3.org/1999/xlink" x="0px" y="0px"
	 viewBox="0 0 297 297" style="enable-background:new 0 0 297 297;" xml:space="preserve">
<g>
	<g>
		<circle style="fill:#345065;" cx="148.5" cy="148.5" r="148.5"/>
	</g>
	<path style="fill:#223F51;" d="M295.527,169.41L170.53,44.413l-64.941,214.609l37.868,37.883c1.675,0.056,3.354,0.094,5.043,0.094
		C223.416,297,285.363,241.522,295.527,169.41z"/>
	<g>
		<path style="fill:#BDC3C7;" d="M123.75,75h49.5V50.708c0-4.81-3.899-8.708-8.708-8.708h-32.083c-4.81,0-8.708,3.899-8.708,8.708
			L123.75,75L123.75,75z"/>
	</g>
	<g>
		<path style="fill:#A1A5A8;" d="M173.25,50.708c0-4.81-3.899-8.708-8.708-8.708h-15.875v33h24.583V50.708z"/>
	</g>
	<g>
		<path style="fill:#86C867;" d="M118.666,264h59.667c10.862,0,19.667-8.805,19.667-19.667V85.666C198,74.805,189.195,66,178.333,66
			h-59.667C107.805,66,99,74.805,99,85.666v158.667C99,255.195,107.805,264,118.666,264z"/>
	</g>
	<g>
		<path style="fill:#73AF52;" d="M178.333,66h-29.667v198h29.667c10.862,0,19.667-8.805,19.667-19.667V85.667
			C198,74.805,189.195,66,178.333,66z"/>
	</g>
	<g>
		<rect x="165" y="99" style="fill:#BFF796;" width="16.5" height="132"/>
	</g>
</g>
<g>
</g>
<g>
</g>
<g>
</g>
<g>
</g>
<g>
</g>
<g>
</g>
<g>
</g>
<g>
</g>
<g>
</g>
<g>
</g>
<g>
</g>
<g>
</g>
<g>
</g>
<g>
</g>
<g>
</g>
</svg>
