<?xml version="1.0" encoding="iso-8859-1"?>
<!-- Generator: Adobe Illustrator 19.0.0, SVG Export Plug-In . SVG Version: 6.00 Build 0)  -->
<svg version="1.1" id="Layer_1" xmlns="http://www.w3.org/2000/svg" xmlns:xlink="http://www.w3.org/1999/xlink" x="0px" y="0px"
	 viewBox="0 0 297 297" style="enable-background:new 0 0 297 297;" xml:space="preserve">
<g>
	<g>
		<circle style="fill:#82D9C8;" cx="148.5" cy="148.5" r="148.5"/>
	</g>
	<path style="fill:#17AB93;" d="M297,148.5c0-0.177-0.006-0.353-0.007-0.53l-89.025-88.646L92.15,253.632l42.741,42.741
		c4.483,0.407,9.02,0.627,13.609,0.627C230.514,297,297,230.514,297,148.5z"/>
	<g>
		<path style="fill:#494E51;" d="M143.149,192.536L143.149,192.536c3.404-2.384,8.096-1.556,10.48,1.848l34.528,49.311
			c2.384,3.404,1.556,8.096-1.848,10.48l0,0c-3.404,2.384-8.096,1.556-10.48-1.848l-34.528-49.311
			C138.917,199.611,139.745,194.919,143.149,192.536z"/>
	</g>
	<g>
		<path style="fill:#494E51;" d="M135.851,192.536L135.851,192.536c-3.404-2.384-8.096-1.556-10.48,1.848l-34.527,49.311
			c-2.384,3.404-1.556,8.096,1.848,10.48l0,0c3.404,2.384,8.096,1.556,10.48-1.848l34.527-49.311
			C140.083,199.611,139.255,194.919,135.851,192.536z"/>
	</g>
	<g>
		<circle style="fill:#E3E5E4;" cx="100.713" cy="81.994" r="34.529"/>
		<path style="fill:#778187;" d="M100.713,119.522c-20.693,0-37.529-16.835-37.529-37.528s16.836-37.529,37.529-37.529
			s37.529,16.836,37.529,37.529S121.406,119.522,100.713,119.522z M100.713,50.465c-17.386,0-31.529,14.144-31.529,31.529
			s14.144,31.528,31.529,31.528s31.529-14.144,31.529-31.528C132.242,64.608,118.099,50.465,100.713,50.465z"/>
	</g>
	<g>
		<circle style="fill:#777C7F;" cx="100.713" cy="81.994" r="8.166"/>
	</g>
	<g>
		<circle style="fill:#B5BAB7;" cx="178.078" cy="81.994" r="34.529"/>
		<path style="fill:#666666;" d="M178.078,119.522c-20.693,0-37.529-16.835-37.529-37.528s16.836-37.529,37.529-37.529
			s37.529,16.836,37.529,37.529S198.771,119.522,178.078,119.522z M178.078,50.465c-17.386,0-31.529,14.144-31.529,31.529
			s14.144,31.528,31.529,31.528s31.529-14.144,31.529-31.528C209.607,64.608,195.464,50.465,178.078,50.465z"/>
	</g>
	<g>
		<circle style="fill:#666666;" cx="178.078" cy="81.994" r="8.166"/>
	</g>
	<g>
		<rect x="202.925" y="140.726" style="fill:#32373B;" width="29.788" height="36.106"/>
	</g>
	<g>
		<path style="fill:#345065;" d="M196.856,204.218H84.572c-9.991,0-18.09-8.099-18.09-18.09V131.43c0-9.991,8.099-18.09,18.09-18.09
			h112.284c9.991,0,18.09,8.099,18.09,18.09v54.698C214.946,196.119,206.847,204.218,196.856,204.218z"/>
	</g>
	<g>
		<path style="fill:#FFFFFF;" d="M255.392,191.217l-28.883-14.441v-35.991l28.883-14.441c3.266-1.633,7.108,0.742,7.108,4.393
			v56.088C262.5,190.475,258.657,192.849,255.392,191.217z"/>
	</g>
	<g>
		<path style="fill:#223F51;" d="M196.856,113.34h-55.689v90.878h55.689c9.991,0,18.09-8.099,18.09-18.09V131.43
			C214.946,121.44,206.846,113.34,196.856,113.34z"/>
	</g>
	<g>
		<rect x="96.032" y="146.062" style="fill:#D0D5D9;" width="89.363" height="44.681"/>
	</g>
	<g>
		<rect x="96.032" y="125.301" style="fill:#D0D5D9;" width="89.363" height="13.54"/>
	</g>
	<g>
		<rect x="141.167" y="146.062" style="fill:#AAADAF;" width="44.228" height="44.682"/>
	</g>
	<g>
		<rect x="141.167" y="125.301" style="fill:#AAADAF;" width="44.228" height="13.54"/>
	</g>
</g>
<g>
</g>
<g>
</g>
<g>
</g>
<g>
</g>
<g>
</g>
<g>
</g>
<g>
</g>
<g>
</g>
<g>
</g>
<g>
</g>
<g>
</g>
<g>
</g>
<g>
</g>
<g>
</g>
<g>
</g>
</svg>
