<?xml version="1.0" encoding="iso-8859-1"?>
<!-- Generator: Adobe Illustrator 19.0.0, SVG Export Plug-In . SVG Version: 6.00 Build 0)  -->
<svg version="1.1" id="Layer_1" xmlns="http://www.w3.org/2000/svg" xmlns:xlink="http://www.w3.org/1999/xlink" x="0px" y="0px"
	 viewBox="0 0 297 297" style="enable-background:new 0 0 297 297;" xml:space="preserve">
<g>
	<g>
		<circle style="fill:#D95459;" cx="148.5" cy="148.5" r="148.5"/>
	</g>
	<path style="fill:#B7343E;" d="M77.841,217.826l78.94,78.94c75.374-4.144,135.764-64.492,139.977-139.847l-79.005-79.005
		L77.841,217.826z"/>
	<g>
		<circle style="fill:#D0D5D9;" cx="148.5" cy="148.5" r="99"/>
	</g>
	<g>
		<path style="fill:#A1A5A8;" d="M148.5,49.5c-0.223,0-0.444,0.007-0.666,0.008v197.983c0.222,0.001,0.443,0.008,0.666,0.008
			c54.676,0,99-44.324,99-99C247.5,93.824,203.176,49.5,148.5,49.5z"/>
	</g>
	<g>
		<circle style="fill:#FFFFFF;" cx="148.5" cy="148.5" r="33"/>
	</g>
	<g>
		<path style="fill:#D0D5D9;" d="M148.5,115.5c-0.223,0-0.444,0.012-0.666,0.017v65.966c0.222,0.004,0.443,0.017,0.666,0.017
			c18.225,0,33-14.775,33-33S166.725,115.5,148.5,115.5z"/>
	</g>
	<g>
		<circle style="fill:#32373B;" cx="148.5" cy="148.5" r="16.5"/>
	</g>
	<g>
		<path style="fill:#2C3033;" d="M148.5,132c-0.225,0-0.444,0.025-0.666,0.034v32.933c0.223,0.009,0.441,0.034,0.666,0.034
			c9.113,0,16.5-7.387,16.5-16.5C165,139.387,157.613,132,148.5,132z"/>
	</g>
</g>
<g>
</g>
<g>
</g>
<g>
</g>
<g>
</g>
<g>
</g>
<g>
</g>
<g>
</g>
<g>
</g>
<g>
</g>
<g>
</g>
<g>
</g>
<g>
</g>
<g>
</g>
<g>
</g>
<g>
</g>
</svg>
