<?xml version="1.0" encoding="iso-8859-1"?>
<!-- Generator: Adobe Illustrator 19.0.0, SVG Export Plug-In . SVG Version: 6.00 Build 0)  -->
<svg version="1.1" id="Layer_1" xmlns="http://www.w3.org/2000/svg" xmlns:xlink="http://www.w3.org/1999/xlink" x="0px" y="0px"
	 viewBox="0 0 297 297" style="enable-background:new 0 0 297 297;" xml:space="preserve">
<g>
	<g>
		<circle style="fill:#5B48A2;" cx="148.5" cy="148.5" r="148.5"/>
	</g>
	<path style="fill:#3E3287;" d="M295.007,172.816L194.021,71.83c-31.568,28.496-65.012,55.146-96.521,85.67
		c-13.129,13.129-28.28,25.58-44.344,35.705L156.721,296.77C226.74,292.949,283.836,240.625,295.007,172.816z"/>
	<g>
		<path style="fill:#82D9C8;" d="M217.08,210.899c24.844,0,44.984-20.14,44.984-44.984s-20.14-44.984-44.984-44.984
			c-1.306,0-2.595,0.068-3.873,0.177c0.043-0.972,0.075-1.947,0.074-2.93c-0.033-36.112-29.319-65.397-65.411-65.411
			c-30.769-0.012-56.561,21.25-63.538,49.871c-25.806,4.304-45.481,26.724-45.481,53.751c0,30.105,24.405,54.509,54.509,54.509
			L217.08,210.899L217.08,210.899z"/>
	</g>
	<g>
		<path style="fill:#64BCAB;" d="M217.08,120.931c-1.306,0-2.595,0.068-3.873,0.177c0.043-0.972,0.074-1.947,0.074-2.93
			c-0.003-36.082-29.288-65.367-65.411-65.411c-0.124,0-0.246,0.007-0.37,0.008v158.124h69.58c24.844,0,44.984-20.14,44.984-44.984
			S241.924,120.931,217.08,120.931z"/>
	</g>
	<g>
		<path style="fill:#34495E;" d="M132.36,111.732l49.211,28.412c4.62,2.668,4.62,9.337,0,12.004L132.36,180.56
			c-4.62,2.668-10.396-0.667-10.396-6.002v-56.824C121.964,112.399,127.739,109.065,132.36,111.732z"/>
	</g>
	<g>
		<path style="fill:#20313F;" d="M181.571,140.145L147.5,120.474v51.346l34.071-19.671
			C186.192,149.481,186.192,142.812,181.571,140.145z"/>
	</g>
</g>
<g>
</g>
<g>
</g>
<g>
</g>
<g>
</g>
<g>
</g>
<g>
</g>
<g>
</g>
<g>
</g>
<g>
</g>
<g>
</g>
<g>
</g>
<g>
</g>
<g>
</g>
<g>
</g>
<g>
</g>
</svg>
