<?xml version="1.0" encoding="iso-8859-1"?>
<!-- Generator: Adobe Illustrator 19.0.0, SVG Export Plug-In . SVG Version: 6.00 Build 0)  -->
<svg version="1.1" id="Layer_1" xmlns="http://www.w3.org/2000/svg" xmlns:xlink="http://www.w3.org/1999/xlink" x="0px" y="0px"
	 viewBox="0 0 297 297" style="enable-background:new 0 0 297 297;" xml:space="preserve">
<g>
	<g>
		<circle style="fill:#D95459;" cx="148.5" cy="148.5" r="148.5"/>
	</g>
	<path style="fill:#962331;" d="M297,148.5c0-5.26-0.278-10.454-0.811-15.573L229.54,66.203L66.172,229.495l66.686,66.686
		c5.141,0.538,10.359,0.819,15.642,0.819C230.514,297,297,230.514,297,148.5z"/>
	<g>
		<circle style="fill:#32373B;" cx="148.5" cy="148.5" r="115.5"/>
	</g>
	<g>
		<path style="fill:#2C3033;" d="M148.5,33c-0.111,0-0.222,0.004-0.333,0.004v230.992c0.111,0,0.222,0.004,0.333,0.004
			c63.789,0,115.5-51.711,115.5-115.5S212.289,33,148.5,33z"/>
	</g>
	<g>
		<circle style="fill:#BDC3C7;" cx="148.5" cy="148.5" r="49.5"/>
	</g>
	<g>
		<path style="fill:#A1A5A8;" d="M148.5,99c-0.112,0-0.221,0.008-0.333,0.008v98.983c0.112,0.001,0.221,0.008,0.333,0.008
			c27.338,0,49.5-22.162,49.5-49.5C198,121.162,175.838,99,148.5,99z"/>
	</g>
	<g>
		<circle style="fill:#32373B;" cx="148.5" cy="148.5" r="12.375"/>
	</g>
	<g>
		<path style="fill:#2C3033;" d="M148.5,136.125c-0.112,0-0.221,0.014-0.333,0.017v24.716c0.112,0.003,0.221,0.017,0.333,0.017
			c6.835,0,12.375-5.541,12.375-12.375C160.875,141.665,155.335,136.125,148.5,136.125z"/>
	</g>
</g>
<g>
</g>
<g>
</g>
<g>
</g>
<g>
</g>
<g>
</g>
<g>
</g>
<g>
</g>
<g>
</g>
<g>
</g>
<g>
</g>
<g>
</g>
<g>
</g>
<g>
</g>
<g>
</g>
<g>
</g>
</svg>
