<?xml version="1.0" encoding="iso-8859-1"?>
<!-- Generator: Adobe Illustrator 19.0.0, SVG Export Plug-In . SVG Version: 6.00 Build 0)  -->
<svg version="1.1" id="Layer_1" xmlns="http://www.w3.org/2000/svg" xmlns:xlink="http://www.w3.org/1999/xlink" x="0px" y="0px"
	 viewBox="0 0 297 297" style="enable-background:new 0 0 297 297;" xml:space="preserve">
<g>
	<g>
		<circle style="fill:#4F2B4F;" cx="148.5" cy="148.5" r="148.5"/>
	</g>
	<path style="fill:#3C203D;" d="M50.983,196.13l100.828,100.828c79.413-1.738,143.457-65.812,145.148-145.237L245.208,99.97
		L50.983,196.13z"/>
	<g>
		<path style="fill:#E3E5E4;" d="M74.917,206.25h147.166c18.594,0,33.667-15.073,33.667-33.667v-48.166
			c0-18.594-15.073-33.667-33.667-33.667H74.917c-18.594,0-33.667,15.073-33.667,33.667v48.166
			C41.25,191.177,56.323,206.25,74.917,206.25z"/>
	</g>
	<g>
		<path style="fill:#C4C6C5;" d="M222.083,90.75H148.5v115.5h73.583c18.594,0,33.667-15.073,33.667-33.667v-48.166
			C255.75,105.823,240.677,90.75,222.083,90.75z"/>
	</g>
	<g>
		<g>
			<circle style="fill:#8A8E91;" cx="198" cy="136" r="8.5"/>
		</g>
		<g>
			<circle style="fill:#8A8E91;" cx="223" cy="136" r="8.5"/>
		</g>
		<g>
			<circle style="fill:#8A8E91;" cx="198" cy="161" r="8.5"/>
		</g>
		<g>
			<circle style="fill:#8A8E91;" cx="223" cy="161" r="8.5"/>
		</g>
	</g>
	<g>
		<path style="fill:#515354;" d="M107.791,139H99v-8.791c0-3.153-2.556-5.709-5.709-5.709h-7.582c-3.153,0-5.709,2.556-5.709,5.709
			V139h-8.79c-3.153,0-5.709,2.556-5.709,5.709v7.582c0,3.153,2.556,5.709,5.709,5.709H80v8.791c0,3.153,2.556,5.709,5.709,5.709
			h7.582c3.153,0,5.709-2.556,5.709-5.709V158h8.791c3.153,0,5.709-2.556,5.709-5.709v-7.582C113.5,141.556,110.944,139,107.791,139
			z"/>
	</g>
	<g>
		<path style="fill:#F86E51;" d="M130.875,195.625h35.25c3.245,0,5.875-2.63,5.875-5.875l0,0c0-3.245-2.63-5.875-5.875-5.875h-35.25
			c-3.245,0-5.875,2.63-5.875,5.875l0,0C125,192.995,127.63,195.625,130.875,195.625z"/>
	</g>
	<g>
		<path style="fill:#F86E51;" d="M166.125,183.875H148.5v11.75h17.625c3.245,0,5.875-2.63,5.875-5.875
			S169.37,183.875,166.125,183.875z"/>
	</g>
</g>
<g>
</g>
<g>
</g>
<g>
</g>
<g>
</g>
<g>
</g>
<g>
</g>
<g>
</g>
<g>
</g>
<g>
</g>
<g>
</g>
<g>
</g>
<g>
</g>
<g>
</g>
<g>
</g>
<g>
</g>
</svg>
