<?xml version="1.0" encoding="iso-8859-1"?>
<!-- Generator: Adobe Illustrator 19.0.0, SVG Export Plug-In . SVG Version: 6.00 Build 0)  -->
<svg version="1.1" id="Layer_1" xmlns="http://www.w3.org/2000/svg" xmlns:xlink="http://www.w3.org/1999/xlink" x="0px" y="0px"
	 viewBox="0 0 297 297" style="enable-background:new 0 0 297 297;" xml:space="preserve">
<g>
	<g>
		<circle style="fill:#BDC3C7;" cx="148.5" cy="148.5" r="148.5"/>
	</g>
	<path style="fill:#8C9296;" d="M297,148.5c0-3.061-0.104-6.098-0.286-9.113l-75.521-75.521c-4.231,0.158-8.462-0.553-12.693-2.366
		c-39-17-88-25-118,8c-35,39-35,95-49,146c-0.26,1.04-0.626,1.991-1.075,2.871l74.907,74.906C125.997,295.711,137.098,297,148.5,297
		C230.514,297,297,230.514,297,148.5z"/>
	<g>
		<path style="fill:#43484C;" d="M69.214,133.852c0-43.788,35.497-79.286,79.286-79.286s79.286,35.497,79.286,79.286h21.623
			c0-55.731-45.178-100.909-100.909-100.909S47.591,78.121,47.591,133.852H69.214z"/>
	</g>
	<g>
		<path style="fill:#2B2B2B;" d="M148.5,32.943c-0.111,0-0.222,0.004-0.333,0.004v21.628c0.112,0,0.221-0.009,0.333-0.009
			c43.788,0,79.286,35.497,79.286,79.286h21.624C249.409,78.121,204.231,32.943,148.5,32.943z"/>
	</g>
	<g>
		<path style="fill:#C0392B;" d="M82.357,220.057h-37.16c-4.251,0-7.698-3.446-7.698-7.698v-76.576c0-4.251,3.446-7.698,7.698-7.698
			h37.16c4.251,0,7.698,3.446,7.698,7.698v76.576C90.055,216.611,86.608,220.057,82.357,220.057z"/>
	</g>
	<g>
		<path style="fill:#79302A;" d="M45.197,128.086c-4.251,0-7.697,3.446-7.697,7.697v76.576c0,4.251,3.446,7.698,7.697,7.698h11.546
			v-91.971H45.197z"/>
	</g>
	<g>
		<path style="fill:#9E2019;" d="M214.642,128.086h37.16c4.251,0,7.698,3.446,7.698,7.698v76.576c0,4.251-3.446,7.698-7.698,7.698
			h-37.16c-4.251,0-7.698-3.446-7.698-7.698v-76.576C206.945,131.532,210.391,128.086,214.642,128.086z"/>
	</g>
	<g>
		<path style="fill:#79302A;" d="M251.803,220.057c4.251,0,7.697-3.446,7.697-7.697v-76.576c0-4.251-3.446-7.698-7.698-7.698
			h-11.546v91.971H251.803z"/>
	</g>
</g>
<g>
</g>
<g>
</g>
<g>
</g>
<g>
</g>
<g>
</g>
<g>
</g>
<g>
</g>
<g>
</g>
<g>
</g>
<g>
</g>
<g>
</g>
<g>
</g>
<g>
</g>
<g>
</g>
<g>
</g>
</svg>
