<?xml version="1.0" encoding="iso-8859-1"?>
<!-- Generator: Adobe Illustrator 19.0.0, SVG Export Plug-In . SVG Version: 6.00 Build 0)  -->
<svg version="1.1" id="Layer_1" xmlns="http://www.w3.org/2000/svg" xmlns:xlink="http://www.w3.org/1999/xlink" x="0px" y="0px"
	 viewBox="0 0 297 297" style="enable-background:new 0 0 297 297;" xml:space="preserve">
<g>
	<g>
		<circle style="fill:#5B48A2;" cx="148.5" cy="148.5" r="148.5"/>
	</g>
	<path style="fill:#433789;" d="M297,148.5c0-9.231-0.85-18.264-2.462-27.029l-78.68-78.68L79.764,252.853l41.648,41.674
		c8.784,1.619,17.836,2.473,27.089,2.473C230.514,297,297,230.514,297,148.5z"/>
	<g>
		<path style="fill:#FFFFFF;" d="M94.775,259.5h107.449c11.198,0,20.275-9.078,20.275-20.275V57.775
			c0-11.198-9.078-20.275-20.275-20.275H94.775C83.578,37.5,74.5,46.578,74.5,57.775v181.449
			C74.5,250.422,83.578,259.5,94.775,259.5z"/>
	</g>
	<g>
		<path style="fill:#D0D5D9;" d="M202.225,37.5h-54.058v222h54.058c11.198,0,20.275-9.078,20.275-20.275V57.775
			C222.5,46.578,213.422,37.5,202.225,37.5z"/>
	</g>
	<g>
		<path style="fill:#C9B8C3;" d="M98.709,120.5h99.583c4.395,0,7.958-3.563,7.958-7.959V62.458c0-4.395-3.563-7.958-7.958-7.958
			H98.709c-4.395,0-7.959,3.563-7.959,7.958v50.083C90.75,116.937,94.313,120.5,98.709,120.5z"/>
	</g>
	<g>
		<path style="fill:#AD99A7;" d="M198.292,54.5h-50.125v66h50.125c4.395,0,7.958-3.563,7.958-7.958V62.458
			C206.25,58.063,202.687,54.5,198.292,54.5z"/>
	</g>
	<g>
		<path style="fill:#BDC3C7;" d="M148.5,144c-27.338,0-49.5,22.162-49.5,49.5s22.162,49.5,49.5,49.5s49.5-22.162,49.5-49.5
			S175.838,144,148.5,144z M148.5,216c-12.426,0-22.5-10.074-22.5-22.5s10.074-22.5,22.5-22.5s22.5,10.074,22.5,22.5
			S160.926,216,148.5,216z"/>
	</g>
	<g>
		<path style="fill:#A1A5A8;" d="M148.5,144c-0.112,0-0.221,0.008-0.333,0.008v27c0.111-0.002,0.221-0.008,0.333-0.008
			c12.426,0,22.5,10.074,22.5,22.5S160.926,216,148.5,216c-0.112,0-0.222-0.007-0.333-0.008v27c0.112,0.001,0.221,0.008,0.333,0.008
			c27.338,0,49.5-22.162,49.5-49.5S175.838,144,148.5,144z"/>
	</g>
</g>
<g>
</g>
<g>
</g>
<g>
</g>
<g>
</g>
<g>
</g>
<g>
</g>
<g>
</g>
<g>
</g>
<g>
</g>
<g>
</g>
<g>
</g>
<g>
</g>
<g>
</g>
<g>
</g>
<g>
</g>
</svg>
