<?xml version="1.0" encoding="iso-8859-1"?>
<!-- Generator: Adobe Illustrator 19.0.0, SVG Export Plug-In . SVG Version: 6.00 Build 0)  -->
<svg version="1.1" id="Layer_1" xmlns="http://www.w3.org/2000/svg" xmlns:xlink="http://www.w3.org/1999/xlink" x="0px" y="0px"
	 viewBox="0 0 297 297" style="enable-background:new 0 0 297 297;" xml:space="preserve">
<g>
	<g>
		<circle style="fill:#5E345E;" cx="148.5" cy="148.5" r="148.5"/>
	</g>
	<path style="fill:#3C203D;" d="M297,148.5c0-20.527-4.166-40.081-11.696-57.864l-39.631-39.631
		c1.051,14.335,6.45,28.005,2.828,42.495c-1,2-2,6-1,8c2,25,3,50-4,75c-2,5,1,11,0,15c-3,13-23,8-33,5c-19-7-15-34-12-52
		c2-10,0-26-10-29c-22-5-44-5-63,3c-15,7-34,16-39,29c-11.12,25.661-26.507,48.944-48.285,65.208l81.116,81.42
		c9.432,1.879,19.184,2.872,29.169,2.872C230.514,297,297,230.514,297,148.5z"/>
	<g>
		<path style="fill:#B7B7B7;" d="M235.833,202.5h-26.167c-8.914,0-16.166-7.252-16.166-16.166v-59.168
			c0-3.951-3.215-7.166-7.167-7.166H132v-9h54.333c8.914,0,16.167,7.252,16.167,16.166v59.168c0,3.951,3.215,7.166,7.166,7.166
			h26.167c3.952,0,7.167-3.215,7.167-7.166V66h9v120.334C252,195.248,244.747,202.5,235.833,202.5z"/>
	</g>
	<g>
		<path style="fill:#E3E5E4;" d="M137.167,214.5H44.333C38.074,214.5,33,209.426,33,203.167v-92.833C33,104.074,38.074,99,44.333,99
			h92.833c6.259,0,11.333,5.074,11.333,11.334v92.833C148.5,209.426,143.426,214.5,137.167,214.5z"/>
	</g>
	<g>
		<path style="fill:#D0D5D9;" d="M137.167,99h-47v115.5h47c6.259,0,11.333-5.074,11.333-11.333v-92.833
			C148.5,104.074,143.426,99,137.167,99z"/>
	</g>
	<g>
		<path style="fill:#FFFFFF;" d="M222.5,66c0-9.113-0.613-16.5,8.5-16.5s16.5,7.387,16.5,16.5s-7.387,16.5-16.5,16.5
			S222.5,75.113,222.5,66z"/>
		<path style="fill:#FFFFFF;" d="M231,87c-3.912,0-7.006-1.115-9.195-3.314c-3.858-3.874-3.835-9.804-3.809-16.082L218,66
			l-0.004-1.604c-0.026-6.278-0.05-12.208,3.809-16.082C223.994,46.115,227.088,45,231,45c11.579,0,21,9.421,21,21
			S242.579,87,231,87z M231,54c-0.806,0-2.242,0.086-2.819,0.665c-1.22,1.226-1.201,5.725-1.186,9.695L227,66l-0.005,1.64
			c-0.016,3.971-0.034,8.47,1.186,9.695C228.758,77.914,230.194,78,231,78c6.617,0,12-5.383,12-12S237.617,54,231,54z"/>
	</g>
	<g>
		<rect x="177" y="49.5" style="fill:#B7B7B7;" width="9" height="66"/>
	</g>
	<g>
		<path style="fill:#FFFFFF;" d="M156.5,49.5c0-9.113-0.613-16.5,8.5-16.5s16.5,7.387,16.5,16.5S174.113,66,165,66
			S156.5,58.613,156.5,49.5z"/>
		<path style="fill:#FFFFFF;" d="M165,70.5c-3.912,0-7.006-1.115-9.195-3.314c-3.858-3.874-3.835-9.804-3.809-16.082L152,49.5
			l-0.004-1.604c-0.026-6.278-0.05-12.208,3.809-16.082c2.189-2.199,5.283-3.314,9.195-3.314c11.579,0,21,9.421,21,21
			S176.579,70.5,165,70.5z M165,37.5c-0.806,0-2.242,0.086-2.819,0.665c-1.22,1.226-1.201,5.725-1.186,9.695L161,49.5l-0.005,1.64
			c-0.016,3.971-0.034,8.47,1.186,9.695c0.577,0.579,2.014,0.665,2.819,0.665c6.617,0,12-5.383,12-12S171.617,37.5,165,37.5z"/>
	</g>
	<path style="fill:#BDC3C7;" d="M90.75,115.5c-22.782,0-41.25,18.468-41.25,41.25S67.968,198,90.75,198S132,179.532,132,156.75
		S113.532,115.5,90.75,115.5z M90.75,167.25c-5.799,0-10.5-4.701-10.5-10.5s4.701-10.5,10.5-10.5s10.5,4.701,10.5,10.5
		S96.549,167.25,90.75,167.25z"/>
	<path style="fill:#9EA4A8;" d="M90.75,115.5c-0.196,0-0.388,0.012-0.583,0.015v30.765c0.194-0.011,0.386-0.029,0.583-0.029
		c5.799,0,10.5,4.701,10.5,10.5s-4.701,10.5-10.5,10.5c-0.197,0-0.389-0.019-0.583-0.029v30.765
		c0.195,0.003,0.387,0.015,0.583,0.015c22.782,0,41.25-18.468,41.25-41.25S113.532,115.5,90.75,115.5z"/>
</g>
<g>
</g>
<g>
</g>
<g>
</g>
<g>
</g>
<g>
</g>
<g>
</g>
<g>
</g>
<g>
</g>
<g>
</g>
<g>
</g>
<g>
</g>
<g>
</g>
<g>
</g>
<g>
</g>
<g>
</g>
</svg>
