<?xml version="1.0" encoding="iso-8859-1"?>
<!-- Generator: Adobe Illustrator 19.0.0, SVG Export Plug-In . SVG Version: 6.00 Build 0)  -->
<svg version="1.1" id="Layer_1" xmlns="http://www.w3.org/2000/svg" xmlns:xlink="http://www.w3.org/1999/xlink" x="0px" y="0px"
	 viewBox="0 0 297 297" style="enable-background:new 0 0 297 297;" xml:space="preserve">
<g>
	<g>
		<circle style="fill:#D95459;" cx="148.5" cy="148.5" r="148.5"/>
	</g>
	<path style="fill:#B7343E;" d="M297,148.5c0-14.652-2.132-28.804-6.086-42.174l-53.092-53.207L74.03,177.041l-0.605,78.888
		l36.144,35.903C121.978,295.195,135.027,297,148.5,297C230.514,297,297,230.514,297,148.5z"/>
	<g>
		<path style="fill:#FFFFFF;" d="M99.652,258.763H79.956c-4.689,0-8.583-3.621-8.923-8.298l-6.24-85.793h37.636l6.145,84.495
			C108.952,254.351,104.848,258.763,99.652,258.763z"/>
	</g>
	<g>
		<path style="fill:#FFCD02;" d="M60.802,162.106C46,162.106,34,150.107,34,135.305s12-26.802,26.802-26.802
			C60.802,108.503,60.802,162.106,60.802,162.106z"/>
	</g>
	<g>
		<path style="fill:#345065;" d="M65.459,172.941H115.5V97.668H65.459c-6.981,0-12.641,5.659-12.641,12.641V160.3
			C52.818,167.281,58.478,172.941,65.459,172.941z"/>
	</g>
	<g>
		<path style="fill:#FFCD02;" d="M109.273,172.941l112.735,48.315c8.991,3.853,18.992-2.742,18.992-12.523V61.876
			c0-9.782-10.001-16.376-18.992-12.523L109.273,97.668V172.941z"/>
	</g>
	<g>
		<path style="fill:#D3AB02;" d="M222.008,49.353L148.5,80.856v108.896l73.508,31.503c8.991,3.853,18.992-2.742,18.992-12.523
			V61.876C241,52.095,230.999,45.5,222.008,49.353z"/>
	</g>
</g>
<g>
</g>
<g>
</g>
<g>
</g>
<g>
</g>
<g>
</g>
<g>
</g>
<g>
</g>
<g>
</g>
<g>
</g>
<g>
</g>
<g>
</g>
<g>
</g>
<g>
</g>
<g>
</g>
<g>
</g>
</svg>
