<?xml version="1.0" encoding="iso-8859-1"?>
<!-- Generator: Adobe Illustrator 19.0.0, SVG Export Plug-In . SVG Version: 6.00 Build 0)  -->
<svg version="1.1" id="Layer_1" xmlns="http://www.w3.org/2000/svg" xmlns:xlink="http://www.w3.org/1999/xlink" x="0px" y="0px"
	 viewBox="0 0 297 297" style="enable-background:new 0 0 297 297;" xml:space="preserve">
<g>
	<g>
		<circle style="fill:#345065;" cx="148.5" cy="148.5" r="148.5"/>
	</g>
	<path style="fill:#223F51;" d="M297,148.5c0-8.645-0.747-17.115-2.165-25.356l-87.86-87.86L90.248,261.93l32.906,32.906
		c8.237,1.417,16.704,2.164,25.346,2.164C230.514,297,297,230.514,297,148.5z"/>
	<g>
		<path style="fill:#F3F3E9;" d="M99.652,265.688h97.696c7.54,0,13.652-6.112,13.652-13.652V44.964
			c0-7.54-6.112-13.652-13.652-13.652H99.652C92.112,31.313,86,37.425,86,44.964v207.071C86,259.575,92.112,265.688,99.652,265.688z
			"/>
	</g>
	<g>
		<path style="fill:#D0D5D9;" d="M197.348,31.313h-49.181v234.375h49.181c7.54,0,13.652-6.112,13.652-13.652V44.964
			C211,37.425,204.888,31.313,197.348,31.313z"/>
	</g>
	<g>
		<circle style="fill:#345065;" cx="101.625" cy="44.333" r="5.208"/>
	</g>
	<g>
		<circle style="fill:#345065;" cx="101.625" cy="252.667" r="5.208"/>
	</g>
	<g>
		<circle style="fill:#345065;" cx="195.849" cy="44.333" r="5.208"/>
	</g>
	<g>
		<circle style="fill:#345065;" cx="195.849" cy="252.667" r="5.208"/>
	</g>
	<g>
		<circle style="fill:#5D7486;" cx="148.5" cy="195.375" r="46.875"/>
	</g>
	<g>
		<circle style="fill:#5D7486;" cx="148.5" cy="86" r="31.25"/>
	</g>
	<g>
		<path style="fill:#516572;" d="M148.5,148.5c-0.112,0-0.221,0.008-0.333,0.008v93.733c0.112,0.001,0.221,0.008,0.333,0.008
			c25.888,0,46.875-20.987,46.875-46.875C195.375,169.487,174.388,148.5,148.5,148.5z"/>
	</g>
	<g>
		<path style="fill:#516572;" d="M148.5,54.75c-0.112,0-0.222,0.007-0.333,0.008v62.483c0.111,0.001,0.221,0.008,0.333,0.008
			c17.259,0,31.25-13.991,31.25-31.25S165.759,54.75,148.5,54.75z"/>
	</g>
	<g>
		<circle style="fill:#345065;" cx="148.5" cy="195.375" r="15.625"/>
	</g>
	<g>
		<circle style="fill:#345065;" cx="148.5" cy="86" r="10.417"/>
	</g>
	<g>
		<path style="fill:#244051;" d="M148.5,179.75c-0.112,0-0.221,0.014-0.333,0.017v31.216c0.112,0.002,0.221,0.017,0.333,0.017
			c8.629,0,15.625-6.996,15.625-15.625S157.129,179.75,148.5,179.75z"/>
	</g>
	<g>
		<path style="fill:#244051;" d="M148.5,75.583c-0.112,0-0.221,0.013-0.333,0.017v20.8c0.112,0.004,0.221,0.017,0.333,0.017
			c5.753,0,10.417-4.664,10.417-10.417C158.917,80.247,154.253,75.583,148.5,75.583z"/>
	</g>
</g>
<g>
</g>
<g>
</g>
<g>
</g>
<g>
</g>
<g>
</g>
<g>
</g>
<g>
</g>
<g>
</g>
<g>
</g>
<g>
</g>
<g>
</g>
<g>
</g>
<g>
</g>
<g>
</g>
<g>
</g>
</svg>
