<?xml version="1.0" encoding="iso-8859-1"?>
<!-- Generator: Adobe Illustrator 19.0.0, SVG Export Plug-In . SVG Version: 6.00 Build 0)  -->
<svg version="1.1" id="Layer_1" xmlns="http://www.w3.org/2000/svg" xmlns:xlink="http://www.w3.org/1999/xlink" x="0px" y="0px"
	 viewBox="0 0 297 297" style="enable-background:new 0 0 297 297;" xml:space="preserve">
<g>
	<g>
		<circle style="fill:#5E345E;" cx="148.5" cy="148.5" r="148.5"/>
	</g>
	<path style="fill:#482249;" d="M297,148.5c0-7.976-0.637-15.802-1.847-23.437l-63.777-62.487L64.178,228.454l68.985,67.761
		c5.042,0.517,10.158,0.784,15.337,0.784C230.514,297,297,230.514,297,148.5z"/>
	<path style="fill:#E95755;" d="M62.764,206.314l65.717-77.666l12.833-15.167l26.457-31.268l41.643,41.643l-31.267,26.457
		l-15.167,12.833l-77.666,65.717c-6.353,5.375-15.766,4.984-21.65-0.9l0,0C57.78,222.079,57.388,212.666,62.764,206.314z"/>
	<path style="fill:#E56E6E;" d="M62.764,206.314l65.717-77.666l12.833-15.167l9.519-11.25v71.193l-65.519,55.439
		c-6.353,5.375-15.766,4.984-21.65-0.9l0,0C57.78,222.079,57.388,212.666,62.764,206.314z"/>
	<g>
		<circle style="fill:#E3E5E4;" cx="199.003" cy="92.624" r="44.169"/>
	</g>
	<g>
		<polygon style="fill:#F47CC3;" points="128.481,128.648 141.314,113.481 178.147,150.314 162.98,163.147 		"/>
	</g>
	<g>
		<polygon style="fill:#ED8ACA;" points="141.314,113.481 150.833,123 150.833,151 128.481,128.648 		"/>
	</g>
</g>
<g>
</g>
<g>
</g>
<g>
</g>
<g>
</g>
<g>
</g>
<g>
</g>
<g>
</g>
<g>
</g>
<g>
</g>
<g>
</g>
<g>
</g>
<g>
</g>
<g>
</g>
<g>
</g>
<g>
</g>
</svg>
