<?xml version="1.0" encoding="iso-8859-1"?>
<!-- Generator: Adobe Illustrator 19.0.0, SVG Export Plug-In . SVG Version: 6.00 Build 0)  -->
<svg version="1.1" id="Layer_1" xmlns="http://www.w3.org/2000/svg" xmlns:xlink="http://www.w3.org/1999/xlink" x="0px" y="0px"
	 viewBox="0 0 297 297" style="enable-background:new 0 0 297 297;" xml:space="preserve">
<g>
	<g>
		<circle style="fill:#5B48A2;" cx="148.5" cy="148.5" r="148.5"/>
	</g>
	<path style="fill:#3E3287;" d="M100.503,232.543l64.13,63.582c69.208-7.478,124.157-62.5,131.521-131.742L199.66,67.629
		L100.503,232.543z"/>
	<g>
		<path style="fill:#E3E5E4;" d="M158.333,247.5h-19.667c-31.02,0-56.167-25.147-56.167-56.167v-85.667
			c0-31.02,25.147-56.166,56.167-56.166h19.667c31.02,0,56.167,25.147,56.167,56.166v85.667
			C214.5,222.353,189.353,247.5,158.333,247.5z"/>
	</g>
	<g>
		<path style="fill:#C2C6C4;" d="M158.333,49.5H148.5v198h9.833c31.02,0,56.167-25.147,56.167-56.167v-85.667
			C214.5,74.647,189.353,49.5,158.333,49.5z"/>
	</g>
	<g>
		<path style="fill:#AAAFB2;" d="M147.042,127.25h2.917c5.27,0,9.542-4.272,9.542-9.541V87.291c0-5.27-4.272-9.541-9.542-9.541
			h-2.917c-5.27,0-9.542,4.272-9.542,9.541v30.417C137.5,122.978,141.772,127.25,147.042,127.25z"/>
	</g>
	<g>
		<path style="fill:#808384;" d="M149.958,77.75H148.5v49.5h1.458c5.27,0,9.542-4.272,9.542-9.542V87.292
			C159.5,82.022,155.228,77.75,149.958,77.75z"/>
	</g>
</g>
<g>
</g>
<g>
</g>
<g>
</g>
<g>
</g>
<g>
</g>
<g>
</g>
<g>
</g>
<g>
</g>
<g>
</g>
<g>
</g>
<g>
</g>
<g>
</g>
<g>
</g>
<g>
</g>
<g>
</g>
</svg>
