<?xml version="1.0" encoding="iso-8859-1"?>
<!-- Generator: Adobe Illustrator 19.0.0, SVG Export Plug-In . SVG Version: 6.00 Build 0)  -->
<svg version="1.1" id="Layer_1" xmlns="http://www.w3.org/2000/svg" xmlns:xlink="http://www.w3.org/1999/xlink" x="0px" y="0px"
	 viewBox="0 0 297 297" style="enable-background:new 0 0 297 297;" xml:space="preserve">
<g>
	<g>
		<circle style="fill:#B8C9F1;" cx="148.5" cy="148.5" r="148.5"/>
	</g>
	<path style="fill:#7A93C4;" d="M297,148.5c0-11.427-1.294-22.552-3.738-33.238L212.664,34.73L84.331,245.747l50.632,50.632
		c4.46,0.403,8.973,0.62,13.537,0.62C230.514,297,297,230.514,297,148.5z"/>
	<g>
		<path style="fill:#404447;" d="M88.583,247.5h119.834c3.36,0,6.083-2.724,6.083-6.083V39.083c0-3.36-2.724-6.083-6.083-6.083
			H88.583c-3.36,0-6.083,2.724-6.083,6.083v202.334C82.5,244.776,85.224,247.5,88.583,247.5z"/>
	</g>
	<g>
		<g>
			<g>
				<rect x="92.25" y="49.5" style="fill:#ECF0F1;" width="16.5" height="11"/>
			</g>
			<g>
				<rect x="92.25" y="70.813" style="fill:#ECF0F1;" width="16.5" height="11"/>
			</g>
			<g>
				<rect x="92.25" y="92.125" style="fill:#ECF0F1;" width="16.5" height="11"/>
			</g>
			<g>
				<rect x="92.25" y="113.438" style="fill:#ECF0F1;" width="16.5" height="11"/>
			</g>
			<g>
				<rect x="92.25" y="134.75" style="fill:#ECF0F1;" width="16.5" height="11"/>
			</g>
			<g>
				<rect x="92.25" y="156.063" style="fill:#ECF0F1;" width="16.5" height="11"/>
			</g>
			<g>
				<rect x="92.25" y="177.375" style="fill:#ECF0F1;" width="16.5" height="11"/>
			</g>
			<g>
				<rect x="92.25" y="198.688" style="fill:#ECF0F1;" width="16.5" height="11"/>
			</g>
			<g>
				<rect x="92.25" y="220" style="fill:#ECF0F1;" width="16.5" height="11"/>
			</g>
		</g>
		<g>
			<rect x="115.5" y="49.5" style="fill:#ECF0F1;" width="66" height="49.5"/>
		</g>
	</g>
	<g>
		<path style="fill:#2C3033;" d="M208.417,33h-60.25v214.5h60.25c3.36,0,6.083-2.724,6.083-6.083V39.083
			C214.5,35.724,211.776,33,208.417,33z"/>
	</g>
	<g>
		<rect x="115.5" y="115.5" style="fill:#ECF0F1;" width="66" height="49.5"/>
	</g>
	<g>
		<rect x="115.5" y="181.5" style="fill:#ECF0F1;" width="66" height="49.5"/>
	</g>
	<g>
		<rect x="148.167" y="49.5" style="fill:#A1A5A8;" width="33.333" height="49.5"/>
	</g>
	<g>
		<rect x="148.167" y="115.5" style="fill:#A1A5A8;" width="33.333" height="49.5"/>
	</g>
	<g>
		<rect x="148.167" y="181.5" style="fill:#A1A5A8;" width="33.333" height="49.5"/>
	</g>
	<g>
		<g>
			<rect x="188.25" y="49.5" style="fill:#ECF0F1;" width="16.5" height="11"/>
		</g>
		<g>
			<rect x="188.25" y="70.813" style="fill:#ECF0F1;" width="16.5" height="11"/>
		</g>
		<g>
			<rect x="188.25" y="92.125" style="fill:#ECF0F1;" width="16.5" height="11"/>
		</g>
		<g>
			<rect x="188.25" y="113.438" style="fill:#ECF0F1;" width="16.5" height="11"/>
		</g>
		<g>
			<rect x="188.25" y="134.75" style="fill:#ECF0F1;" width="16.5" height="11"/>
		</g>
		<g>
			<rect x="188.25" y="156.063" style="fill:#ECF0F1;" width="16.5" height="11"/>
		</g>
		<g>
			<rect x="188.25" y="177.375" style="fill:#ECF0F1;" width="16.5" height="11"/>
		</g>
		<g>
			<rect x="188.25" y="198.688" style="fill:#ECF0F1;" width="16.5" height="11"/>
		</g>
		<g>
			<rect x="188.25" y="220" style="fill:#ECF0F1;" width="16.5" height="11"/>
		</g>
	</g>
</g>
<g>
</g>
<g>
</g>
<g>
</g>
<g>
</g>
<g>
</g>
<g>
</g>
<g>
</g>
<g>
</g>
<g>
</g>
<g>
</g>
<g>
</g>
<g>
</g>
<g>
</g>
<g>
</g>
<g>
</g>
</svg>
