<?xml version="1.0" encoding="iso-8859-1"?>
<!-- Generator: Adobe Illustrator 19.0.0, SVG Export Plug-In . SVG Version: 6.00 Build 0)  -->
<svg version="1.1" id="Layer_1" xmlns="http://www.w3.org/2000/svg" xmlns:xlink="http://www.w3.org/1999/xlink" x="0px" y="0px"
	 viewBox="0 0 297 297" style="enable-background:new 0 0 297 297;" xml:space="preserve">
<g>
	<g>
		<circle style="fill:#17AB93;" cx="148.5" cy="148.5" r="148.5"/>
	</g>
	<path style="fill:#0F846E;" d="M297,148.5c0-2.611-0.069-5.205-0.202-7.782l-69.924-69.924L70.724,226.927l69.856,69.862
		c2.623,0.138,5.263,0.211,7.921,0.211C230.514,297,297,230.514,297,148.5z"/>
	<g>
		<path style="fill:#2D5036;" d="M81,231h135c8.284,0,15-6.716,15-15V81c0-8.284-6.716-15-15-15H81c-8.284,0-15,6.716-15,15v135
			C66,224.284,72.716,231,81,231z"/>
	</g>
	<g>
		<path style="fill:#1E3D26;" d="M216,66h-67.833v165H216c8.284,0,15-6.716,15-15V81C231,72.716,224.284,66,216,66z"/>
	</g>
	<g>
		<rect x="99" y="99" style="fill:#86C867;" width="33" height="99"/>
	</g>
	<g>
		<rect x="165" y="99" style="fill:#6AA04D;" width="33" height="99"/>
	</g>
</g>
<g>
</g>
<g>
</g>
<g>
</g>
<g>
</g>
<g>
</g>
<g>
</g>
<g>
</g>
<g>
</g>
<g>
</g>
<g>
</g>
<g>
</g>
<g>
</g>
<g>
</g>
<g>
</g>
<g>
</g>
</svg>
