<?xml version="1.0" encoding="iso-8859-1"?>
<!-- Generator: Adobe Illustrator 19.0.0, SVG Export Plug-In . SVG Version: 6.00 Build 0)  -->
<svg version="1.1" id="Layer_1" xmlns="http://www.w3.org/2000/svg" xmlns:xlink="http://www.w3.org/1999/xlink" x="0px" y="0px"
	 viewBox="0 0 297 297" style="enable-background:new 0 0 297 297;" xml:space="preserve">
<g>
	<g>
		<circle style="fill:#404447;" cx="148.5" cy="148.5" r="148.5"/>
	</g>
	<path style="fill:#2C3033;" d="M297,148.5c0-1.422-0.025-2.839-0.064-4.252l-38.091-38.091l-204.18,84.831l-0.292,22.791
		l81.968,82.723c4.011,0.325,8.064,0.498,12.159,0.498C230.514,297,297,230.514,297,148.5z"/>
	<g>
		<path style="fill:#6F767A;" d="M57.75,214.5L57.75,214.5c-4.556,0-8.25-3.694-8.25-8.25v-16.5c0-4.556,3.694-8.25,8.25-8.25l0,0
			c4.556,0,8.25,3.694,8.25,8.25v16.5C66,210.806,62.306,214.5,57.75,214.5z"/>
	</g>
	<g>
		<path style="fill:#6F767A;" d="M239.25,214.5L239.25,214.5c-4.556,0-8.25-3.694-8.25-8.25v-16.5c0-4.556,3.694-8.25,8.25-8.25l0,0
			c4.556,0,8.25,3.694,8.25,8.25v16.5C247.5,210.806,243.806,214.5,239.25,214.5z"/>
	</g>
	<g>
		<path style="fill:#D0D5D9;" d="M243.667,198H53.333C42.104,198,33,188.896,33,177.667v-58.333C33,108.104,42.104,99,53.333,99
			h190.333c11.23,0,20.333,9.104,20.333,20.334v58.333C264,188.896,254.896,198,243.667,198z"/>
	</g>
	<g>
		<path style="fill:#AAABAD;" d="M243.667,99h-95.5v99h95.5c11.23,0,20.333-9.104,20.333-20.333v-58.333
			C264,108.104,254.896,99,243.667,99z"/>
	</g>
	<g>
		<circle style="fill:#FFFFFF;" cx="214.5" cy="148.5" r="33"/>
	</g>
	<g>
		<circle style="fill:#32373B;" cx="214.5" cy="148.5" r="16.5"/>
	</g>
	<g>
		<path style="fill:#6F767A;" d="M153.25,126.25h-92c-1.381,0-2.5-1.119-2.5-2.5s1.119-2.5,2.5-2.5h92c1.381,0,2.5,1.119,2.5,2.5
			S154.631,126.25,153.25,126.25z"/>
	</g>
	<g>
		<path style="fill:#6F767A;" d="M153.25,142.75h-92c-1.381,0-2.5-1.119-2.5-2.5s1.119-2.5,2.5-2.5h92c1.381,0,2.5,1.119,2.5,2.5
			S154.631,142.75,153.25,142.75z"/>
	</g>
	<g>
		<path style="fill:#6F767A;" d="M153.25,159.25h-92c-1.381,0-2.5-1.119-2.5-2.5s1.119-2.5,2.5-2.5h92c1.381,0,2.5,1.119,2.5,2.5
			S154.631,159.25,153.25,159.25z"/>
	</g>
	<g>
		<path style="fill:#6F767A;" d="M153.25,175.75h-92c-1.381,0-2.5-1.119-2.5-2.5s1.119-2.5,2.5-2.5h92c1.381,0,2.5,1.119,2.5,2.5
			S154.631,175.75,153.25,175.75z"/>
	</g>
</g>
<g>
</g>
<g>
</g>
<g>
</g>
<g>
</g>
<g>
</g>
<g>
</g>
<g>
</g>
<g>
</g>
<g>
</g>
<g>
</g>
<g>
</g>
<g>
</g>
<g>
</g>
<g>
</g>
<g>
</g>
</svg>
