<?xml version="1.0" encoding="iso-8859-1"?>
<!-- Generator: Adobe Illustrator 19.0.0, SVG Export Plug-In . SVG Version: 6.00 Build 0)  -->
<svg version="1.1" id="Layer_1" xmlns="http://www.w3.org/2000/svg" xmlns:xlink="http://www.w3.org/1999/xlink" x="0px" y="0px"
	 viewBox="0 0 297 297" style="enable-background:new 0 0 297 297;" xml:space="preserve">
<g>
	<g>
		<circle style="fill:#F86E51;" cx="148.5" cy="148.5" r="148.5"/>
	</g>
	<path style="fill:#B7343E;" d="M297,148.5c0-4.655-0.225-9.256-0.644-13.802l-43.11-43.11L45.464,227.87l63.91,63.91
		c12.467,3.397,25.583,5.22,39.126,5.22C230.514,297,297,230.514,297,148.5z"/>
	<g>
		<path style="fill:#8E725E;" d="M236.221,96.446L236.221,96.446c-1.623,2.234-4.75,2.729-6.984,1.106l-85.353-62.014
			c-2.234-1.623-2.729-4.75-1.106-6.984l0,0c1.623-2.234,4.75-2.729,6.984-1.106l85.353,62.014
			C237.349,91.085,237.845,94.212,236.221,96.446z"/>
	</g>
	<g>
		<path style="fill:#5E4534;" d="M53.667,231h189.666c6.858,0,12.417-5.559,12.417-12.417V99c0-6.858-5.559-12.417-12.417-12.417
			H53.667c-6.858,0-12.417,5.559-12.417,12.417v119.583C41.25,225.441,46.809,231,53.667,231z"/>
	</g>
	<g>
		<path style="fill:#443022;" d="M243.333,86.583H148.5V231h94.833c6.858,0,12.417-5.559,12.417-12.417V99
			C255.75,92.142,250.191,86.583,243.333,86.583z"/>
	</g>
	<g>
		<circle style="fill:#8E725E;" cx="81.5" cy="168.5" r="16.5"/>
	</g>
	<g>
		<circle style="fill:#F0D3A7;" cx="98.583" cy="199.25" r="8.25"/>
	</g>
	<g>
		<circle style="fill:#F0D3A7;" cx="65.583" cy="199.251" r="8.25"/>
	</g>
	<g>
		<rect x="156.5" y="149.25" style="fill:#8E725E;" width="82.5" height="9"/>
	</g>
	<g>
		<rect x="156.5" y="165.75" style="fill:#8E725E;" width="82.5" height="9"/>
	</g>
	<g>
		<rect x="156.5" y="182.25" style="fill:#8E725E;" width="82.5" height="9"/>
	</g>
	<g>
		<rect x="156.5" y="198.75" style="fill:#8E725E;" width="82.5" height="9"/>
	</g>
	<g>
		<rect x="58" y="99" style="fill:#F0D3A7;" width="181" height="33"/>
	</g>
	<g>
		<rect x="148.5" y="99" style="fill:#D3B184;" width="90.5" height="33"/>
	</g>
	<g>
		<rect x="193.5" y="99" style="fill:#8E725E;" width="9" height="33"/>
	</g>
</g>
<g>
</g>
<g>
</g>
<g>
</g>
<g>
</g>
<g>
</g>
<g>
</g>
<g>
</g>
<g>
</g>
<g>
</g>
<g>
</g>
<g>
</g>
<g>
</g>
<g>
</g>
<g>
</g>
<g>
</g>
</svg>
