<?xml version="1.0" encoding="iso-8859-1"?>
<!-- Generator: Adobe Illustrator 19.0.0, SVG Export Plug-In . SVG Version: 6.00 Build 0)  -->
<svg version="1.1" id="Layer_1" xmlns="http://www.w3.org/2000/svg" xmlns:xlink="http://www.w3.org/1999/xlink" x="0px" y="0px"
	 viewBox="0 0 297 297" style="enable-background:new 0 0 297 297;" xml:space="preserve">
<g>
	<g>
		<circle style="fill:#404447;" cx="148.5" cy="148.5" r="148.5"/>
	</g>
	<path style="fill:#2C3033;" d="M297,148.5c0-2.611-0.069-5.205-0.202-7.782l-69.924-69.924L70.729,226.932l69.851,69.857
		c2.623,0.138,5.263,0.211,7.921,0.211C230.515,297,297,230.514,297,148.5z"/>
	<g>
		<path style="fill:#D0D5D9;" d="M81,231h135c8.284,0,15-6.716,15-15V81c0-8.284-6.716-15-15-15H81c-8.284,0-15,6.716-15,15v135
			C66,224.285,72.716,231,81,231z"/>
	</g>
	<g>
		<path style="fill:#C4C6C5;" d="M216.001,66h-67.5v165h67.5c8.284,0,15-6.716,15-15V81C231,72.716,224.285,66,216.001,66z"/>
	</g>
	<g>
		<rect x="115.5" y="115.5" style="fill:#B85627;" width="66" height="66"/>
	</g>
	<g>
		<rect x="148.5" y="115.5" style="fill:#B7343E;" width="33" height="66"/>
	</g>
</g>
<g>
</g>
<g>
</g>
<g>
</g>
<g>
</g>
<g>
</g>
<g>
</g>
<g>
</g>
<g>
</g>
<g>
</g>
<g>
</g>
<g>
</g>
<g>
</g>
<g>
</g>
<g>
</g>
<g>
</g>
</svg>
