<?xml version="1.0" encoding="iso-8859-1"?>
<!-- Generator: Adobe Illustrator 19.0.0, SVG Export Plug-In . SVG Version: 6.00 Build 0)  -->
<svg version="1.1" id="Layer_1" xmlns="http://www.w3.org/2000/svg" xmlns:xlink="http://www.w3.org/1999/xlink" x="0px" y="0px"
	 viewBox="0 0 297 297" style="enable-background:new 0 0 297 297;" xml:space="preserve">
<g>
	<g>
		<circle style="fill:#404447;" cx="148.5" cy="148.5" r="148.5"/>
	</g>
	<path style="fill:#2C3033;" d="M297,148.5c0-11.638-1.342-22.962-3.874-33.829l-63.835-63.835L66.625,245.08l48.047,48.047
		c10.867,2.531,22.19,3.873,33.828,3.873C230.514,297,297,230.514,297,148.5z"/>
	<g>
		<path style="fill:#ECF0F1;" d="M79.236,251.1h138.528c8.967,0,16.236-7.269,16.236-16.236V62.136
			c0-8.967-7.269-16.236-16.236-16.236H79.236C70.269,45.9,63,53.169,63,62.136v172.728C63,243.831,70.269,251.1,79.236,251.1z"/>
	</g>
	<g>
		<path style="fill:#BEC4C6;" d="M217.764,45.9h-69.597v205.2h69.597c8.967,0,16.236-7.269,16.236-16.236V62.136
			C234,53.169,226.731,45.9,217.764,45.9z"/>
	</g>
	<g>
		<rect x="76.5" y="59.25" style="fill:#828D93;" width="144" height="162"/>
	</g>
	<g>
		<path style="fill:#8C959B;" d="M136,234h25c1.381,0,2.5-1.119,2.5-2.5l0,0c0-1.381-1.119-2.5-2.5-2.5h-25
			c-1.381,0-2.5,1.119-2.5,2.5l0,0C133.5,232.881,134.619,234,136,234z"/>
	</g>
	<g>
		<rect x="148.167" y="59.25" style="fill:#646F75;" width="72.333" height="162"/>
	</g>
	<g>
		<path style="fill:#737B7F;" d="M161,229h-12.833v5H161c1.381,0,2.5-1.119,2.5-2.5S162.381,229,161,229z"/>
	</g>
</g>
<g>
</g>
<g>
</g>
<g>
</g>
<g>
</g>
<g>
</g>
<g>
</g>
<g>
</g>
<g>
</g>
<g>
</g>
<g>
</g>
<g>
</g>
<g>
</g>
<g>
</g>
<g>
</g>
<g>
</g>
</svg>
