<?xml version="1.0" encoding="iso-8859-1"?>
<!-- Generator: Adobe Illustrator 19.0.0, SVG Export Plug-In . SVG Version: 6.00 Build 0)  -->
<svg version="1.1" id="Capa_1" xmlns="http://www.w3.org/2000/svg" xmlns:xlink="http://www.w3.org/1999/xlink" x="0px" y="0px"
	 viewBox="0 0 512 512" style="enable-background:new 0 0 512 512;" xml:space="preserve">
<circle style="fill:#B9EAFF;" cx="256" cy="256" r="256"/>
<path style="fill:#35CCFF;" d="M273.204,511.411C406.564,502.559,512,391.602,512,256c0-12.838-0.957-25.451-2.781-37.781L427,136
	l-93.266,79.177l-119.189,5.869L129.5,136l-5.1,99.314l-52.65,74.644L273.204,511.411z"/>
<g>
	<rect x="155.99" y="208.72" style="fill:#FF9451;" width="20" height="89.26"/>
	<rect x="216" y="227.06" style="fill:#FF9451;" width="20" height="77.05"/>
</g>
<g>
	<rect x="276" y="227.06" style="fill:#F7674F;" width="20" height="70.924"/>
	<rect x="336.01" y="205.34" style="fill:#F7674F;" width="20" height="85.37"/>
</g>
<path style="fill:#FF9451;" d="M256,234.239c-67.053,0-127.747-26.602-154.625-67.772l16.746-10.934
	c23.283,35.663,77.403,58.706,137.879,58.706s114.596-23.043,137.879-58.706l16.746,10.934
	C383.747,207.637,323.053,234.239,256,234.239z"/>
<path style="fill:#F7674F;" d="M393.879,155.533c-23.283,35.663-77.403,58.706-137.879,58.706c-0.016,0-0.032-0.001-0.048-0.001v20
	c0.016,0,0.032,0.001,0.048,0.001c67.053,0,127.747-26.602,154.625-67.772L393.879,155.533z"/>
<path style="fill:#008CC3;" d="M8.336,321C37.103,430.905,137.076,512,256,512s218.897-81.095,247.664-191H8.336z"/>
<path style="fill:#0074A3;" d="M255.952,321v191c0.016,0,0.032,0,0.048,0c118.924,0,218.897-81.095,247.664-191H255.952z"/>
<rect x="85" y="136" style="fill:#FF6838;" width="44.5" height="231.5"/>
<g>
	<rect x="382.5" y="136" style="fill:#AE4E32;" width="44.5" height="231.5"/>
	<rect x="71.75" y="271.46" style="fill:#AE4E32;" width="368.5" height="38.5"/>
</g>
<rect x="255.95" y="271.46" style="fill:#843624;" width="184.3" height="38.5"/>
<g>
</g>
<g>
</g>
<g>
</g>
<g>
</g>
<g>
</g>
<g>
</g>
<g>
</g>
<g>
</g>
<g>
</g>
<g>
</g>
<g>
</g>
<g>
</g>
<g>
</g>
<g>
</g>
<g>
</g>
</svg>
