<?xml version="1.0" encoding="iso-8859-1"?>
<!-- Generator: Adobe Illustrator 19.0.0, SVG Export Plug-In . SVG Version: 6.00 Build 0)  -->
<svg version="1.1" id="Capa_1" xmlns="http://www.w3.org/2000/svg" xmlns:xlink="http://www.w3.org/1999/xlink" x="0px" y="0px"
	 viewBox="0 0 512 512" style="enable-background:new 0 0 512 512;" xml:space="preserve">
<circle style="fill:#662E57;" cx="256" cy="256" r="256"/>
<path style="fill:#590F38;" d="M512,256c0-1.637-0.031-3.266-0.062-4.895L411.167,150.333l-4.49,4.129l-77.751-77.751
	l-98.645,128.941l-78.92-78.92l-44.766,252.934L238.31,511.381C244.157,511.78,250.052,512,256,512C397.385,512,512,397.385,512,256
	z"/>
<path style="fill:#FFFFFF;" d="M97.833,358.583v-208.25h313.333v238H127.583C111.153,388.333,97.833,375.014,97.833,358.583z"/>
<path style="fill:#E0E0E0;" d="M97.833,255.905v102.679c0,16.431,13.32,29.75,29.75,29.75h283.583V255.905H97.833z"/>
<path style="fill:#35CCFF;" d="M157.833,358.333c0-16.569-13.431-30-30-30s-30,13.431-30,30v-213c0-16.569,13.431-30,30-30
	s30,13.431,30,30V358.333z"/>
<path style="fill:#00BAFF;" d="M97.833,255.905v102.429c0-16.568,13.431-30,30-30s30,13.431,30,30V255.905H97.833z"/>
<path style="fill:#FF9451;" d="M347.957,355.289l-28.109-183.058l29.299-4.499l23.61,153.759
	C375.242,337.672,364.138,352.804,347.957,355.289L347.957,355.289z"/>
<path style="fill:#FFB344;" d="M280.252,355.289L280.252,355.289c-16.181-2.485-27.285-17.617-24.8-33.798l23.61-153.759
	l29.299,4.499L280.252,355.289z"/>
<rect x="299.28" y="76.71" style="fill:#FFDC00;" width="29.643" height="33.595"/>
<rect x="313.69" y="76.71" style="fill:#FFC000;" width="15.235" height="33.595"/>
<path style="fill:#FF6838;" d="M314.104,188.563c-24.844,0-45.057-20.212-45.057-45.057s20.213-45.057,45.057-45.057
	s45.057,20.212,45.057,45.057S338.949,188.563,314.104,188.563z M314.104,122.163c-11.769,0-21.343,9.574-21.343,21.343
	s9.574,21.343,21.343,21.343c11.769,0,21.343-9.574,21.343-21.343S325.873,122.163,314.104,122.163z"/>
<path style="fill:#AE4E32;" d="M314.104,98.449c-0.139,0-0.275,0.009-0.414,0.01v23.725c0.139-0.003,0.274-0.021,0.414-0.021
	c11.769,0,21.343,9.574,21.343,21.343s-9.574,21.343-21.343,21.343c-0.14,0-0.275-0.018-0.414-0.021v23.725
	c0.139,0.001,0.275,0.01,0.414,0.01c24.844,0,45.057-20.212,45.057-45.057S338.949,98.449,314.104,98.449z"/>
<g>
</g>
<g>
</g>
<g>
</g>
<g>
</g>
<g>
</g>
<g>
</g>
<g>
</g>
<g>
</g>
<g>
</g>
<g>
</g>
<g>
</g>
<g>
</g>
<g>
</g>
<g>
</g>
<g>
</g>
</svg>
