<?xml version="1.0" encoding="iso-8859-1"?>
<!-- Generator: Adobe Illustrator 19.0.0, SVG Export Plug-In . SVG Version: 6.00 Build 0)  -->
<svg version="1.1" id="Capa_1" xmlns="http://www.w3.org/2000/svg" xmlns:xlink="http://www.w3.org/1999/xlink" x="0px" y="0px"
	 viewBox="0 0 512 512" style="enable-background:new 0 0 512 512;" xml:space="preserve">
<circle style="fill:#005C83;" cx="256" cy="256" r="256"/>
<path style="fill:#00263F;" d="M511.747,267.064L314.499,69.816l-30.543,55.867l-55.867-55.867l-15.421,147.778L106.25,259.749
	l83.236,83.235l-38.684,63.958l105.056,105.056c0.047,0,0.094,0.002,0.142,0.002C393.676,512,505.951,403.314,511.747,267.064z"/>
<path style="fill:#FF6838;" d="M378.971,294.763c0-6.358-0.633-12.554-1.563-18.652l28.341-16.363l-44.551-77.166l-28.27,16.321
	c-9.692-7.787-20.6-14.078-32.376-18.663v-32.673h-89.103v32.673c-11.777,4.585-22.685,10.875-32.376,18.663l-28.27-16.322
	l-44.552,77.165l28.341,16.363c-0.93,6.097-1.563,12.294-1.563,18.652s0.633,12.553,1.563,18.652l-28.341,16.363l44.551,77.166
	l28.27-16.321c9.692,7.787,20.6,14.077,32.376,18.662v32.673h89.103v-32.673c11.777-4.585,22.685-10.874,32.376-18.662l28.27,16.322
	l44.552-77.165l-28.341-16.363C378.339,307.317,378.971,301.121,378.971,294.763z M255.999,348.426
	c-29.636,0-53.662-24.025-53.662-53.661c0-29.636,24.026-53.662,53.662-53.662s53.662,24.026,53.662,53.662
	C309.661,324.402,285.636,348.427,255.999,348.426z"/>
<path style="fill:#AE4E32;" d="M378.971,294.764c0-6.358-0.633-12.554-1.563-18.652l28.341-16.362l-44.552-77.166l-28.27,16.321
	c-9.692-7.788-20.6-14.078-32.376-18.663v-32.673h-44.599v93.535c0.016,0,0.031-0.001,0.047-0.001
	c29.636,0,53.662,24.026,53.662,53.662s-24.026,53.662-53.662,53.661c-0.016,0-0.031-0.001-0.047-0.001v93.531h44.599v-32.673
	c11.776-4.585,22.685-10.875,32.376-18.662l28.27,16.321l44.552-77.165l-28.341-16.363
	C378.339,307.316,378.971,301.121,378.971,294.764z"/>
<path style="fill:#FFDC00;" d="M239.667,511.467C245.069,511.807,250.512,512,256,512s10.931-0.193,16.333-0.533V236.333h-32.667
	L239.667,511.467L239.667,511.467z"/>
<path style="fill:#FFC000;" d="M255.952,236.333V512c0.016,0,0.032,0,0.048,0c5.488,0,10.931-0.193,16.333-0.533V236.333H255.952z"
	/>
<rect x="197.5" y="69.816" style="fill:#E0E0E0;" width="30.588" height="87.17"/>
<rect x="283.91" y="69.816" style="fill:#C0C0C0;" width="30.588" height="87.17"/>
<path style="fill:#FFFFFF;" d="M307.808,257.547H204.193c-20.166,0-36.514-16.348-36.514-36.514v-77.042l176.643,0.001v77.042
	C344.322,241.199,327.974,257.547,307.808,257.547z"/>
<path style="fill:#E0E0E0;" d="M255.952,143.99v113.556h51.855c20.166,0,36.514-16.348,36.514-36.514V143.99L255.952,143.99z"/>
<g>
</g>
<g>
</g>
<g>
</g>
<g>
</g>
<g>
</g>
<g>
</g>
<g>
</g>
<g>
</g>
<g>
</g>
<g>
</g>
<g>
</g>
<g>
</g>
<g>
</g>
<g>
</g>
<g>
</g>
</svg>
