<?xml version="1.0" encoding="iso-8859-1"?>
<!-- Generator: Adobe Illustrator 19.0.0, SVG Export Plug-In . SVG Version: 6.00 Build 0)  -->
<svg version="1.1" id="Capa_1" xmlns="http://www.w3.org/2000/svg" xmlns:xlink="http://www.w3.org/1999/xlink" x="0px" y="0px"
	 viewBox="0 0 512 512" style="enable-background:new 0 0 512 512;" xml:space="preserve">
<circle style="fill:#005C83;" cx="256" cy="256" r="256"/>
<path style="fill:#00263F;" d="M511.754,266.89l-93.42-93.42l-27.106,23.809l-98.894-98.894l-37.891,113.761l-88.109-88.109
	L61.75,344.698l165.71,165.71c9.372,1.04,18.891,1.592,28.54,1.592C393.735,512,506.046,403.221,511.754,266.89z"/>
<path style="fill:#FFB344;" d="M70.133,301.317c0-102.651,83.215-185.867,185.867-185.867s185.867,83.215,185.867,185.867H70.133z"
	/>
<path style="fill:#FF9451;" d="M256,115.451c-0.016,0-0.032,0.001-0.048,0.001v185.866h185.914
	C441.867,198.666,358.651,115.451,256,115.451z"/>
<rect x="219.67" y="98.38" style="fill:#FFDC00;" width="72.67" height="204"/>
<rect x="255.95" y="98.38" style="fill:#FFC000;" width="36.38" height="204"/>
<polygon style="fill:#FFDC00;" points="166.333,302.384 93.667,302.384 93.667,173.469 166.333,124.036 "/>
<g>
	<polygon style="fill:#FFC000;" points="345.667,302.384 418.333,302.384 418.333,173.469 345.667,124.036 	"/>
	<rect x="61.75" y="273.88" style="fill:#FFC000;" width="388.5" height="70.814"/>
</g>
<rect x="255.95" y="273.88" style="fill:#D39C00;" width="194.3" height="70.814"/>
<g>
</g>
<g>
</g>
<g>
</g>
<g>
</g>
<g>
</g>
<g>
</g>
<g>
</g>
<g>
</g>
<g>
</g>
<g>
</g>
<g>
</g>
<g>
</g>
<g>
</g>
<g>
</g>
<g>
</g>
</svg>
