<?xml version="1.0" encoding="iso-8859-1"?>
<!-- Generator: Adobe Illustrator 19.0.0, SVG Export Plug-In . SVG Version: 6.00 Build 0)  -->
<svg version="1.1" id="Capa_1" xmlns="http://www.w3.org/2000/svg" xmlns:xlink="http://www.w3.org/1999/xlink" x="0px" y="0px"
	 viewBox="0 0 512 512" style="enable-background:new 0 0 512 512;" xml:space="preserve">
<circle style="fill:#FF9451;" cx="256" cy="256" r="256"/>
<path style="fill:#F7674F;" d="M512,256c0-11.093-0.707-22.021-2.076-32.743L425,138.333l-17.188,29.311L329.667,89.5
	l-141.572,13.429v176.512l-91.762,6.893l70.077,70.077l-63.077,29.923l124.068,124.068C236.792,511.445,246.331,512,256,512
	C397.385,512,512,397.385,512,256z"/>
<path style="fill:#B9EAFF;" d="M329.667,187.167H182.333V89.5h147.333v97.667H329.667z M202.333,167.167h107.333V109.5H202.333
	V167.167z"/>
<polygon style="fill:#35CCFF;" points="329.667,89.5 255.952,89.5 255.952,109.5 309.667,109.5 309.667,167.167 255.952,167.167 
	255.952,187.167 329.667,187.167 "/>
<rect x="103.33" y="238.33" style="fill:#B9EAFF;" width="314.67" height="148"/>
<g>
	<rect x="255.95" y="238.33" style="fill:#35CCFF;" width="162.05" height="148"/>
	<rect x="96.33" y="138.33" style="fill:#35CCFF;" width="328.67" height="148"/>
</g>
<rect x="255.95" y="138.33" style="fill:#00BAFF;" width="169.05" height="148"/>
<rect x="138" y="138.33" style="fill:#FFFFFF;" width="42" height="248"/>
<rect x="127.83" y="250" style="fill:#008CC3;" width="62.67" height="57.33"/>
<rect x="331.67" y="138.33" style="fill:#E0E0E0;" width="42" height="248"/>
<rect x="321.5" y="250" style="fill:#0074A3;" width="62.67" height="57.33"/>
<g>
</g>
<g>
</g>
<g>
</g>
<g>
</g>
<g>
</g>
<g>
</g>
<g>
</g>
<g>
</g>
<g>
</g>
<g>
</g>
<g>
</g>
<g>
</g>
<g>
</g>
<g>
</g>
<g>
</g>
</svg>
