<?xml version="1.0" encoding="iso-8859-1"?>
<!-- Generator: Adobe Illustrator 19.0.0, SVG Export Plug-In . SVG Version: 6.00 Build 0)  -->
<svg version="1.1" id="Capa_1" xmlns="http://www.w3.org/2000/svg" xmlns:xlink="http://www.w3.org/1999/xlink" x="0px" y="0px"
	 viewBox="0 0 512.001 512.001" style="enable-background:new 0 0 512.001 512.001;" xml:space="preserve">
<circle style="fill:#FF9451;" cx="256" cy="256" r="256"/>
<path style="fill:#F7674F;" d="M508.547,298.026L274.224,63.703l3.157,223.749L89.397,352.249l159.655,159.655
	c2.309,0.062,4.625,0.097,6.948,0.097C383.069,512,488.496,419.414,508.547,298.026z"/>
<path style="fill:#35CCFF;" d="M305.48,230.341h-98.96l18.197-142.944C227.287,69.914,240.511,57.11,256,57.11l0,0
	c15.489,0,28.713,12.803,31.283,30.287L305.48,230.341z"/>
<path style="fill:#00BAFF;" d="M287.283,87.397C284.714,69.914,271.49,57.11,256,57.11l0,0c-0.016,0-0.032,0.001-0.048,0.001v173.23
	h49.527L287.283,87.397z"/>
<path style="fill:#B9EAFF;" d="M256,512c27.593,0,54.158-4.383,79.059-12.461l-26.886-211.2
	c-4.285-29.159-26.34-50.513-52.172-50.513l0,0c-25.832,0-47.887,21.354-52.172,50.513l-26.886,211.2
	C201.842,507.617,228.407,512,256,512z"/>
<path style="fill:#35CCFF;" d="M335.059,499.539l-26.886-211.2c-4.285-29.159-26.34-50.513-52.172-50.513
	c-0.016,0-0.032,0.001-0.048,0.001V512c0.016,0,0.032,0,0.048,0C283.593,512,310.158,507.617,335.059,499.539z"/>
<path style="fill:#00BAFF;" d="M249.882,305.446l49.48-85.701l114.694,87.231c13.857,10.967,18.333,28.821,10.588,42.235l0,0
	c-7.744,13.414-25.445,18.464-41.871,11.948L249.882,305.446z"/>
<path style="fill:#35CCFF;" d="M212.639,219.744l49.48,85.701l-132.891,55.713c-16.426,6.517-34.126,1.466-41.871-11.948l0,0
	c-7.744-13.414-3.268-31.268,10.588-42.235L212.639,219.744z"/>
<circle style="fill:#FFFFFF;" cx="255.09" cy="251.84" r="62.69"/>
<path style="fill:#E0E0E0;" d="M317.783,251.844c0-34.334-27.605-62.206-61.829-62.668v125.337
	C290.177,314.049,317.783,286.178,317.783,251.844z"/>
<g>
</g>
<g>
</g>
<g>
</g>
<g>
</g>
<g>
</g>
<g>
</g>
<g>
</g>
<g>
</g>
<g>
</g>
<g>
</g>
<g>
</g>
<g>
</g>
<g>
</g>
<g>
</g>
<g>
</g>
</svg>
