<?xml version="1.0" encoding="iso-8859-1"?>
<!-- Generator: Adobe Illustrator 19.0.0, SVG Export Plug-In . SVG Version: 6.00 Build 0)  -->
<svg version="1.1" id="Capa_1" xmlns="http://www.w3.org/2000/svg" xmlns:xlink="http://www.w3.org/1999/xlink" x="0px" y="0px"
	 viewBox="0 0 512 512" style="enable-background:new 0 0 512 512;" xml:space="preserve">
<circle style="fill:#005C83;" cx="256" cy="256" r="256"/>
<path style="fill:#00263F;" d="M512,256c0-5.802-0.212-11.553-0.592-17.259L393,120.333L115,390.271l120.951,120.951
	C242.567,511.735,249.253,512,256,512C397.385,512,512,397.385,512,256z"/>
<rect x="115" y="120.33" style="fill:#FF9451;" width="278" height="269.94"/>
<rect x="255.95" y="120.33" style="fill:#F7674F;" width="137.05" height="269.94"/>
<rect x="300.33" y="120.33" style="fill:#FFB344;" width="92.67" height="54"/>
<rect x="115" y="120.33" style="fill:#FFCF35;" width="92.67" height="54"/>
<rect x="300.33" y="228.3" style="fill:#FFB344;" width="92.67" height="54"/>
<g>
	<rect x="115" y="228.3" style="fill:#FFCF35;" width="92.67" height="54"/>
	<rect x="207.67" y="174.33" style="fill:#FFCF35;" width="92.67" height="54"/>
</g>
<g>
	<rect x="255.95" y="174.33" style="fill:#FFB344;" width="44.38" height="54"/>
	<rect x="300.33" y="336.27" style="fill:#FFB344;" width="92.67" height="54"/>
</g>
<g>
	<rect x="115" y="336.27" style="fill:#FFCF35;" width="92.67" height="54"/>
	<rect x="207.67" y="282.3" style="fill:#FFCF35;" width="92.67" height="54"/>
</g>
<rect x="255.95" y="282.3" style="fill:#FFB344;" width="44.38" height="54"/>
<g>
</g>
<g>
</g>
<g>
</g>
<g>
</g>
<g>
</g>
<g>
</g>
<g>
</g>
<g>
</g>
<g>
</g>
<g>
</g>
<g>
</g>
<g>
</g>
<g>
</g>
<g>
</g>
<g>
</g>
</svg>
