<?xml version="1.0" encoding="iso-8859-1"?>
<!-- Generator: Adobe Illustrator 19.0.0, SVG Export Plug-In . SVG Version: 6.00 Build 0)  -->
<svg version="1.1" id="Capa_1" xmlns="http://www.w3.org/2000/svg" xmlns:xlink="http://www.w3.org/1999/xlink" x="0px" y="0px"
	 viewBox="0 0 512 512" style="enable-background:new 0 0 512 512;" xml:space="preserve">
<circle style="fill:#FFECB3;" cx="256" cy="256" r="256"/>
<path style="fill:#FFD863;" d="M511.568,270.735L426.333,185.5l-28.856,23.834L253.274,65.131L134.012,184.393L85.667,385.5
	l121.905,121.905C223.256,510.409,239.441,512,256,512C392.438,512,503.932,405.261,511.568,270.735z"/>
<polygon style="fill:#4D4D4D;" points="395.11,211.906 256,81.22 116.891,211.893 103.197,197.315 256,53.78 408.804,197.329 "/>
<polygon style="fill:#333333;" points="256,53.78 255.952,53.825 255.952,81.265 256,81.22 395.11,211.906 408.804,197.329 "/>
<rect x="85.67" y="185.5" style="fill:#0074A3;" width="340.67" height="200"/>
<rect x="255.95" y="185.5" style="fill:#005C83;" width="170.38" height="200"/>
<g>
	<rect x="367.5" y="210.5" style="fill:#008CC3;" width="26" height="150"/>
	<rect x="317.7" y="210.5" style="fill:#008CC3;" width="26" height="150"/>
	<rect x="267.9" y="210.5" style="fill:#008CC3;" width="26" height="150"/>
</g>
<g>
	<rect x="218.1" y="210.5" style="fill:#00BAFF;" width="26" height="150"/>
	<rect x="168.3" y="210.5" style="fill:#00BAFF;" width="26" height="150"/>
	<rect x="118.5" y="210.5" style="fill:#00BAFF;" width="26" height="150"/>
</g>
<g>
</g>
<g>
</g>
<g>
</g>
<g>
</g>
<g>
</g>
<g>
</g>
<g>
</g>
<g>
</g>
<g>
</g>
<g>
</g>
<g>
</g>
<g>
</g>
<g>
</g>
<g>
</g>
<g>
</g>
</svg>
