<?xml version="1.0" encoding="iso-8859-1"?>
<!-- Generator: Adobe Illustrator 19.0.0, SVG Export Plug-In . SVG Version: 6.00 Build 0)  -->
<svg version="1.1" id="Capa_1" xmlns="http://www.w3.org/2000/svg" xmlns:xlink="http://www.w3.org/1999/xlink" x="0px" y="0px"
	 viewBox="0 0 512 512" style="enable-background:new 0 0 512 512;" xml:space="preserve">
<circle style="fill:#662E57;" cx="256" cy="256" r="256"/>
<path style="fill:#590F38;" d="M512,256c0-5.283-0.179-10.524-0.495-15.728L368.891,97.658l-211.45,64.794l30.741,254.087
	l94.125,94.124C411.332,497.493,512,388.503,512,256z"/>
<polygon style="fill:#FF6838;" points="419.471,172.648 92.529,172.648 143.109,97.658 368.891,97.658 "/>
<polygon style="fill:#AE4E32;" points="368.891,97.658 255.952,97.658 255.952,172.647 419.471,172.647 "/>
<polygon style="fill:#FF9451;" points="92.529,172.648 143.109,97.658 273.521,308.611 200.283,353.815 "/>
<polygon style="fill:#F7674F;" points="419.471,172.648 368.891,97.658 238.479,308.611 311.717,353.815 "/>
<circle style="fill:#FFDC00;" cx="256" cy="353.63" r="92.51"/>
<path style="fill:#FFC000;" d="M256,261.117c-0.016,0-0.032,0-0.048,0v185.021c0.016,0,0.032,0,0.048,0
	c51.092,0,92.511-41.418,92.511-92.511C348.511,302.535,307.092,261.117,256,261.117z"/>
<path style="fill:#FFFFFF;" d="M316.171,353.628c0-3.111-0.31-6.143-0.765-9.126l13.868-8.006l-21.8-37.758l-13.833,7.986
	c-4.742-3.81-10.08-6.888-15.842-9.132v-15.987H234.2v15.987c-5.762,2.244-11.1,5.321-15.842,9.132l-13.833-7.986l-21.8,37.758
	l13.868,8.006c-0.455,2.984-0.765,6.016-0.765,9.126c0,3.111,0.31,6.142,0.765,9.126l-13.868,8.006l21.8,37.758l13.833-7.986
	c4.742,3.81,10.08,6.888,15.842,9.131v15.987h43.599v-15.987c5.762-2.244,11.1-5.321,15.842-9.131l13.833,7.986l21.8-37.758
	l-13.868-8.006C315.861,359.77,316.171,356.739,316.171,353.628z M256,379.886c-14.501,0-26.257-11.756-26.257-26.257
	c0-14.501,11.756-26.257,26.257-26.257s26.257,11.756,26.257,26.257C282.257,368.13,270.501,379.886,256,379.886z"/>
<path style="fill:#E0E0E0;" d="M316.171,353.628c0-3.111-0.31-6.143-0.765-9.126l13.868-8.006l-21.799-37.758l-13.833,7.986
	c-4.742-3.811-10.08-6.889-15.842-9.132v-15.987h-21.847v45.768c0.016,0,0.031-0.001,0.047-0.001
	c14.501,0,26.257,11.756,26.257,26.257S270.501,379.886,256,379.886c-0.016,0-0.031-0.001-0.047-0.001v45.767H277.8v-15.987
	c5.762-2.244,11.1-5.321,15.842-9.132l13.833,7.986l21.799-37.758l-13.868-8.006C315.861,359.771,316.171,356.739,316.171,353.628z"
	/>
<g>
</g>
<g>
</g>
<g>
</g>
<g>
</g>
<g>
</g>
<g>
</g>
<g>
</g>
<g>
</g>
<g>
</g>
<g>
</g>
<g>
</g>
<g>
</g>
<g>
</g>
<g>
</g>
<g>
</g>
</svg>
