<?xml version="1.0" encoding="iso-8859-1"?>
<!-- Generator: Adobe Illustrator 19.0.0, SVG Export Plug-In . SVG Version: 6.00 Build 0)  -->
<svg version="1.1" id="Capa_1" xmlns="http://www.w3.org/2000/svg" xmlns:xlink="http://www.w3.org/1999/xlink" x="0px" y="0px"
	 viewBox="0 0 512 512" style="enable-background:new 0 0 512 512;" xml:space="preserve">
<circle style="fill:#B9EAFF;" cx="256" cy="256" r="256"/>
<path style="fill:#35CCFF;" d="M512,256c0-28.917-4.8-56.712-13.638-82.638L435.5,110.5l-113,11.587l-66.286-53.778l-87.45,66.71
	L76.5,143.5l180.185,180.185L87,379l130.056,130.056C229.755,510.994,242.76,512,256,512C397.385,512,512,397.385,512,256z"/>
<polygon style="fill:#4D4D4D;" points="396.454,174.967 256,82.402 115.546,174.954 104.541,158.254 256.001,58.45 407.46,158.268 
	"/>
<polygon style="fill:#333333;" points="256,82.402 396.454,174.967 407.46,158.268 256.001,58.45 "/>
<rect x="87" y="142" style="fill:#FFFFFF;" width="338" height="237"/>
<g>
	<rect x="255.95" y="142" style="fill:#E0E0E0;" width="169.05" height="237"/>
	<rect x="76.5" y="110.5" style="fill:#E0E0E0;" width="359" height="33"/>
</g>
<rect x="255.95" y="110.5" style="fill:#C0C0C0;" width="179.55" height="33"/>
<path style="fill:#FFCF35;" d="M156.726,217.895v-19.153c7.824-3.745,13.242-11.74,13.242-20.977
	c0-12.816-10.426-23.242-23.242-23.242s-23.242,10.426-23.242,23.242c0,9.237,5.418,17.232,13.242,20.977v39.153h68.17v-20H156.726z
	"/>
<g>
	<path style="fill:#F7674F;" d="M362.923,177.764c0-12.816-10.426-23.242-23.242-23.242s-23.242,10.426-23.242,23.242
		c0,9.237,5.418,17.232,13.242,20.977v16.789h-38.906v20h58.906v-36.789C357.506,194.996,362.923,187.001,362.923,177.764z"/>
	<path style="fill:#F7674F;" d="M390.758,243.161c-9.238,0-17.232,5.418-20.977,13.243h-75.612v20h75.613
		c3.745,7.824,11.739,13.241,20.976,13.241c12.816,0,23.242-10.426,23.242-23.242C414,253.587,403.574,243.161,390.758,243.161z"/>
	<path style="fill:#F7674F;" d="M361.671,323.248v-34.887h-65.026v20h45.026v14.887c-7.824,3.745-13.242,11.739-13.242,20.977
		c0,12.815,10.426,23.242,23.242,23.242s23.242-10.426,23.242-23.242C374.914,334.988,369.496,326.993,361.671,323.248z"/>
</g>
<g>
	<path style="fill:#FFCF35;" d="M208.68,304.775v-20h-53.037v38.473c-7.824,3.745-13.242,11.74-13.242,20.978
		c0,12.815,10.426,23.242,23.242,23.242c12.815,0,23.242-10.426,23.242-23.242c0-9.238-5.418-17.232-13.242-20.977v-18.473h33.037
		V304.775z"/>
	<path style="fill:#FFCF35;" d="M216.72,251.946h-74.885c-3.422-8.58-11.808-14.661-21.593-14.661
		c-12.816,0-23.242,10.426-23.242,23.242s10.426,23.242,23.242,23.242c8.667,0,16.236-4.772,20.231-11.823h76.246v-20H216.72z"/>
</g>
<path style="fill:#FF6838;" d="M320.989,266.403c0-3.361-0.334-6.637-0.826-9.861l14.984-8.651l-23.555-40.798l-14.947,8.629
	c-5.124-4.117-10.891-7.443-17.118-9.867v-17.274h-47.109v17.274c-6.226,2.424-11.994,5.75-17.118,9.867l-14.947-8.629
	l-23.555,40.798l14.984,8.651c-0.492,3.224-0.826,6.5-0.826,9.861s0.334,6.637,0.826,9.861l-14.984,8.651l23.555,40.798
	l14.947-8.629c5.124,4.117,10.891,7.442,17.118,9.867v17.274h47.109v-17.274c6.226-2.424,11.994-5.749,17.118-9.867l14.947,8.629
	l23.555-40.798l-14.984-8.651C320.654,273.04,320.989,269.765,320.989,266.403z M255.972,294.775
	c-15.669,0-28.372-12.702-28.372-28.371s12.703-28.372,28.372-28.372s28.372,12.703,28.372,28.372S271.641,294.776,255.972,294.775z
	"/>
<path style="fill:#AE4E32;" d="M320.989,266.403c0-3.361-0.334-6.638-0.826-9.861l14.984-8.651l-23.555-40.798l-14.947,8.629
	c-5.124-4.117-10.891-7.443-17.118-9.867v-17.274h-23.575v49.453c0.007,0,0.013,0,0.02,0c15.669,0,28.372,12.703,28.372,28.372
	s-12.703,28.372-28.372,28.371c-0.007,0-0.013,0-0.02,0v49.451h23.575v-17.274c6.226-2.424,11.994-5.75,17.118-9.867l14.947,8.629
	l23.555-40.798l-14.984-8.651C320.654,273.04,320.989,269.765,320.989,266.403z"/>
<g>
</g>
<g>
</g>
<g>
</g>
<g>
</g>
<g>
</g>
<g>
</g>
<g>
</g>
<g>
</g>
<g>
</g>
<g>
</g>
<g>
</g>
<g>
</g>
<g>
</g>
<g>
</g>
<g>
</g>
</svg>
