<?xml version="1.0" encoding="iso-8859-1"?>
<!-- Generator: Adobe Illustrator 19.0.0, SVG Export Plug-In . SVG Version: 6.00 Build 0)  -->
<svg version="1.1" id="Capa_1" xmlns="http://www.w3.org/2000/svg" xmlns:xlink="http://www.w3.org/1999/xlink" x="0px" y="0px"
	 viewBox="0 0 512 512" style="enable-background:new 0 0 512 512;" xml:space="preserve">
<circle style="fill:#FFECB3;" cx="256" cy="256" r="256"/>
<path style="fill:#FFD863;" d="M511.528,271.367L323.909,83.749l-0.901,15.645L284.76,61.146l-125.429,72.416l47.557,47.557
	l-18.797,47.462l53.072,53.073h-92.949l-42.852,125.308l100.025,100.025C221.75,510.269,238.672,512,256,512
	C392.224,512,503.578,405.595,511.528,271.367z"/>
<polygon style="fill:#0074A3;" points="269,268.808 269,221.308 243,221.308 243,268.808 132.612,268.808 132.612,342.308 
	158.612,342.308 158.612,294.808 243,294.808 243,342.308 269,342.308 269,294.808 352.09,294.808 352.09,342.308 378.09,342.308 
	378.09,268.808 "/>
<polygon style="fill:#005C83;" points="269,268.808 269,221.308 255.952,221.308 255.952,342.308 269,342.308 269,294.808 
	352.09,294.808 352.09,342.308 378.09,342.308 378.09,268.808 "/>
<path style="fill:#FF6838;" d="M335.382,156.165c0-4.104-0.408-8.104-1.009-12.04l18.295-10.563l-28.76-49.813L305.66,94.285
	c-6.256-5.027-13.298-9.088-20.9-12.048V61.146h-57.52v21.092c-7.602,2.96-14.644,7.02-20.9,12.048L188.091,83.75l-28.76,49.813
	l18.295,10.563c-0.6,3.936-1.009,7.936-1.009,12.04c0,4.104,0.408,8.104,1.009,12.04l-18.295,10.563l28.76,49.813l18.249-10.536
	c6.256,5.027,13.298,9.087,20.9,12.047v21.092h57.519v-21.092c7.602-2.96,14.644-7.02,20.9-12.047l18.249,10.536l28.76-49.813
	l-18.295-10.563C334.974,164.269,335.382,160.269,335.382,156.165z M255.999,190.807c-19.131,0-34.641-15.509-34.641-34.64
	s15.509-34.641,34.641-34.641s34.641,15.509,34.641,34.641S275.131,190.807,255.999,190.807z"/>
<path style="fill:#AE4E32;" d="M335.382,156.165c0-4.104-0.408-8.104-1.009-12.04l18.295-10.563l-28.76-49.813L305.66,94.285
	c-6.256-5.027-13.298-9.088-20.9-12.048V61.146h-28.807v60.381c0.016,0,0.031-0.001,0.047-0.001
	c19.131,0,34.641,15.51,34.641,34.641s-15.51,34.641-34.641,34.64c-0.016,0-0.031-0.001-0.047-0.001v60.378h28.807v-21.092
	c7.602-2.96,14.644-7.02,20.9-12.047l18.249,10.536l28.76-49.813l-18.295-10.563C334.974,164.269,335.382,160.269,335.382,156.165z"
	/>
<g>
	<rect x="105.36" y="313.46" style="fill:#FFFFFF;" width="80.5" height="93.5"/>
	<rect x="215.1" y="313.46" style="fill:#FFFFFF;" width="80.5" height="93.5"/>
</g>
<g>
	<rect x="255.95" y="313.46" style="fill:#E0E0E0;" width="39.649" height="93.5"/>
	<rect x="324.84" y="313.46" style="fill:#E0E0E0;" width="80.5" height="93.5"/>
</g>
<g>
</g>
<g>
</g>
<g>
</g>
<g>
</g>
<g>
</g>
<g>
</g>
<g>
</g>
<g>
</g>
<g>
</g>
<g>
</g>
<g>
</g>
<g>
</g>
<g>
</g>
<g>
</g>
<g>
</g>
</svg>
