<?xml version="1.0" encoding="iso-8859-1"?>
<!-- Generator: Adobe Illustrator 19.0.0, SVG Export Plug-In . SVG Version: 6.00 Build 0)  -->
<svg version="1.1" id="Capa_1" xmlns="http://www.w3.org/2000/svg" xmlns:xlink="http://www.w3.org/1999/xlink" x="0px" y="0px"
	 viewBox="0 0 512 512" style="enable-background:new 0 0 512 512;" xml:space="preserve">
<circle style="fill:#FFECB3;" cx="256" cy="256" r="256"/>
<path style="fill:#FFD863;" d="M511.942,260.607L411.879,160.544L236.905,80.861l-126.026,96.544L231.164,297.69l-177.991,7.308
	l76.976,76.976l-57.623,7.871L184.57,501.888C207.243,508.463,231.207,512,256,512C395.845,512,509.482,399.864,511.942,260.607z"/>
<polygon style="fill:#AE4E32;" points="381.667,404.371 130.333,404.371 130.333,161.051 256,80.861 381.667,161.051 "/>
<polygon style="fill:#752F1F;" points="381.667,161.051 256,80.861 256,80.891 256,404.371 381.667,404.371 "/>
<rect x="192.33" y="272.33" style="fill:#FF6838;" width="127.33" height="132.04"/>
<rect x="256.01" y="272.33" style="fill:#AE4E32;" width="63.66" height="132.04"/>
<polygon style="fill:#FF6838;" points="401.121,177.404 256,84.8 110.879,177.404 100.121,160.544 256,61.075 411.879,160.544 "/>
<polygon style="fill:#AE4E32;" points="256,84.8 401.121,177.404 411.879,160.544 256,61.075 "/>
<rect x="151.67" y="168.97" style="fill:#FFB344;" width="82.67" height="86.74"/>
<rect x="277.67" y="168.97" style="fill:#FF9451;" width="82.67" height="86.74"/>
<path style="fill:#005C83;" d="M405.878,303.456H183.04c-2.717-6.141-5.965-12.004-10.047-17.249
	C159.716,271.463,140.695,262,119.293,262c-29.512,0-54.796,17.695-66.12,42.997h52.755l22.289,29.531l-22.288,29.532H53.174
	c11.324,25.301,36.609,42.994,66.121,42.994c21.402,0,40.423-9.461,53.699-24.207c4.082-5.245,7.332-11.108,10.048-17.251h222.837
	c17.16,0,31.07-13.911,31.07-31.071l0,0C436.947,317.366,423.037,303.456,405.878,303.456z"/>
<path style="fill:#00263F;" d="M405.878,303.456H256v62.14h149.878c17.16,0,31.07-13.911,31.07-31.071l0,0
	C436.947,317.366,423.037,303.456,405.878,303.456z"/>
<path style="fill:#0074A3;" d="M353,346.527H229.667c-6.627,0-12-5.373-12-12l0,0c0-6.627,5.373-12,12-12H353
	c6.627,0,12,5.373,12,12l0,0C365,341.154,359.627,346.527,353,346.527z"/>
<path style="fill:#005C83;" d="M353,322.527h-96.988v24H353c6.627,0,12-5.373,12-12l0,0C365,327.899,359.627,322.527,353,322.527z"
	/>
<g>
</g>
<g>
</g>
<g>
</g>
<g>
</g>
<g>
</g>
<g>
</g>
<g>
</g>
<g>
</g>
<g>
</g>
<g>
</g>
<g>
</g>
<g>
</g>
<g>
</g>
<g>
</g>
<g>
</g>
</svg>
