<?xml version="1.0" encoding="iso-8859-1"?>
<!-- Generator: Adobe Illustrator 19.0.0, SVG Export Plug-In . SVG Version: 6.00 Build 0)  -->
<svg version="1.1" id="Capa_1" xmlns="http://www.w3.org/2000/svg" xmlns:xlink="http://www.w3.org/1999/xlink" x="0px" y="0px"
	 viewBox="0 0 512 512" style="enable-background:new 0 0 512 512;" xml:space="preserve">
<circle style="fill:#FFECB3;" cx="256" cy="256" r="256"/>
<path style="fill:#FFD863;" d="M512,256c0-10.395-0.636-20.641-1.84-30.711L379.5,94.629l-247,324l91.369,91.369
	C234.394,511.316,245.117,512,256,512C397.385,512,512,397.385,512,256z"/>
<rect x="132.5" y="94.63" style="fill:#333333;" width="247" height="324"/>
<rect x="255.95" y="94.63" style="fill:#1A1A1A;" width="123.55" height="324"/>
<rect x="154" y="118.96" style="fill:#35CCFF;" width="204" height="92.41"/>
<rect x="255.95" y="118.96" style="fill:#00BAFF;" width="102.05" height="92.41"/>
<g>
	<rect x="154" y="236.63" style="fill:#999999;" width="41" height="41"/>
	<rect x="154" y="295.86" style="fill:#999999;" width="41" height="41"/>
	<rect x="154" y="355.09" style="fill:#999999;" width="41" height="41"/>
	<rect x="209" y="236.63" style="fill:#999999;" width="41" height="41"/>
	<rect x="209" y="295.86" style="fill:#999999;" width="41" height="41"/>
	<rect x="209" y="355.09" style="fill:#999999;" width="41" height="41"/>
</g>
<g>
	<rect x="262" y="236.63" style="fill:#808080;" width="41" height="41"/>
	<rect x="262" y="295.86" style="fill:#808080;" width="41" height="41"/>
	<rect x="262" y="355.09" style="fill:#808080;" width="41" height="41"/>
	<rect x="317" y="236.63" style="fill:#808080;" width="41" height="41"/>
</g>
<g>
	<rect x="317" y="295.86" style="fill:#97CC52;" width="41" height="41"/>
	<rect x="317" y="355.09" style="fill:#97CC52;" width="41" height="41"/>
</g>
<g>
</g>
<g>
</g>
<g>
</g>
<g>
</g>
<g>
</g>
<g>
</g>
<g>
</g>
<g>
</g>
<g>
</g>
<g>
</g>
<g>
</g>
<g>
</g>
<g>
</g>
<g>
</g>
<g>
</g>
</svg>
