<?xml version="1.0" encoding="iso-8859-1"?>
<!-- Generator: Adobe Illustrator 19.0.0, SVG Export Plug-In . SVG Version: 6.00 Build 0)  -->
<svg version="1.1" id="Capa_1" xmlns="http://www.w3.org/2000/svg" xmlns:xlink="http://www.w3.org/1999/xlink" x="0px" y="0px"
	 viewBox="0 0 512 512" style="enable-background:new 0 0 512 512;" xml:space="preserve">
<circle style="fill:#FFECB3;" cx="256" cy="256" r="256"/>
<path style="fill:#FFD863;" d="M512,256c0-7.458-0.338-14.837-0.963-22.133L395.665,119.168L250,175.548L142.988,313.643
	l-27.915,80.698l116.492,116.492C239.608,511.595,247.756,512,256,512C397.385,512,512,397.385,512,256z"/>
<path style="fill:#005C83;" d="M282.617,148.179l82.755,86.516L190.495,373l-47.507-48.959L282.617,148.179 M281.145,116.26
	L115.072,325.427l73.566,75.814l207.858-164.389L281.145,116.26L281.145,116.26z"/>
<polygon style="fill:#00263F;" points="323.702,191.131 365.372,234.694 190.495,373 166.531,348.303 151.68,363.153 
	188.638,401.242 396.496,236.853 338.555,176.278 "/>
<circle style="fill:#008CC3;" cx="336.87" cy="178.43" r="83.49"/>
<path style="fill:#0074A3;" d="M395.665,119.168l-118.059,118.06c15.126,15.244,36.088,24.688,59.259,24.688
	c46.109,0,83.488-37.379,83.488-83.488C420.353,155.256,410.909,134.295,395.665,119.168z"/>
<circle style="fill:#005C83;" cx="336.87" cy="178.43" r="49.51"/>
<path style="fill:#00263F;" d="M371.636,143.197l-70.002,70.001c8.976,9.094,21.443,14.736,35.231,14.736
	c27.342,0,49.506-22.165,49.506-49.507C386.372,164.64,380.731,152.174,371.636,143.197z"/>
<circle style="fill:#B9EAFF;" cx="336.87" cy="178.43" r="19.492"/>
<path style="fill:#35CCFF;" d="M350.407,164.426l-27.544,27.544c3.544,3.664,8.502,5.95,14.002,5.95
	c10.765,0,19.492-8.727,19.492-19.492C356.357,172.928,354.071,167.97,350.407,164.426z"/>
<circle style="fill:#B9EAFF;" cx="336.87" cy="111.8" r="8.202"/>
<g>
	<circle style="fill:#35CCFF;" cx="336.87" cy="245.06" r="8.202"/>
	<circle style="fill:#35CCFF;" cx="403.49" cy="178.43" r="8.202"/>
</g>
<g>
	<circle style="fill:#B9EAFF;" cx="270.24" cy="178.43" r="8.202"/>
	<circle style="fill:#B9EAFF;" cx="383.98" cy="131.32" r="8.202"/>
</g>
<path style="fill:#35CCFF;" d="M389.535,125.298l-11.576,11.576c0.074,0.08,0.141,0.164,0.218,0.241
	c3.203,3.203,8.396,3.203,11.599,0s3.203-8.396,0-11.599C389.699,125.438,389.615,125.372,389.535,125.298z"/>
<circle style="fill:#B9EAFF;" cx="289.75" cy="225.54" r="8.202"/>
<path style="fill:#35CCFF;" d="M295.312,219.521l-11.576,11.576c0.073,0.08,0.14,0.163,0.217,0.24c3.203,3.203,8.396,3.203,11.599,0
	s3.203-8.396,0-11.599C295.475,219.661,295.392,219.595,295.312,219.521z"/>
<circle style="fill:#B9EAFF;" cx="289.75" cy="131.32" r="8.202"/>
<circle style="fill:#35CCFF;" cx="383.98" cy="225.54" r="8.202"/>
<circle style="fill:#008CC3;" cx="155.42" cy="359.88" r="53.06"/>
<path style="fill:#0074A3;" d="M192.704,322.129l-75.033,75.033c9.62,9.738,22.976,15.778,37.746,15.778
	c29.307,0,53.064-23.758,53.064-53.064C208.482,345.105,202.442,331.75,192.704,322.129z"/>
<circle style="fill:#005C83;" cx="155.42" cy="359.88" r="31.466"/>
<path style="fill:#00263F;" d="M177.432,337.401l-44.488,44.488c5.711,5.83,13.668,9.452,22.474,9.452
	c17.378,0,31.466-14.087,31.466-31.466C186.883,351.069,183.262,343.113,177.432,337.401z"/>
<g>
</g>
<g>
</g>
<g>
</g>
<g>
</g>
<g>
</g>
<g>
</g>
<g>
</g>
<g>
</g>
<g>
</g>
<g>
</g>
<g>
</g>
<g>
</g>
<g>
</g>
<g>
</g>
<g>
</g>
</svg>
