<?xml version="1.0" encoding="iso-8859-1"?>
<!-- Generator: Adobe Illustrator 19.0.0, SVG Export Plug-In . SVG Version: 6.00 Build 0)  -->
<svg version="1.1" id="Capa_1" xmlns="http://www.w3.org/2000/svg" xmlns:xlink="http://www.w3.org/1999/xlink" x="0px" y="0px"
	 viewBox="0 0 512 512" style="enable-background:new 0 0 512 512;" xml:space="preserve">
<circle style="fill:#662E57;" cx="256" cy="256" r="256"/>
<path style="fill:#590F38;" d="M512,256c0-5.972-0.221-11.891-0.624-17.76L410.052,136.915L319.648,307.05L74.5,359.667
	l150.455,150.455C235.133,511.352,245.49,512,256,512C397.385,512,512,397.385,512,256z"/>
<rect x="74.5" y="313.76" style="fill:#FFFFFF;" width="219" height="45.905"/>
<path style="fill:#FFDC00;" d="M229.333,359.667H376c25.221,0,45.667-20.446,45.667-45.667V167.333
	c0-25.221-20.446-45.667-45.667-45.667H229.333c-25.221,0-45.667,20.446-45.667,45.667V314
	C183.667,339.221,204.112,359.667,229.333,359.667z"/>
<path style="fill:#FFC000;" d="M376,121.667h-74.81v238H376c25.221,0,45.667-20.446,45.667-45.667V167.333
	C421.667,142.112,401.221,121.667,376,121.667z"/>
<circle style="fill:#666666;" cx="302.67" cy="240.67" r="65.67"/>
<path style="fill:#4D4D4D;" d="M302.667,175c-0.495,0-0.984,0.026-1.476,0.037v131.259c0.493,0.011,0.981,0.037,1.476,0.037
	c36.267,0,65.667-29.4,65.667-65.667C368.333,204.4,338.933,175,302.667,175z"/>
<rect x="74.5" y="313.76" style="fill:#FF6838;" width="32.5" height="45.905"/>
<g>
</g>
<g>
</g>
<g>
</g>
<g>
</g>
<g>
</g>
<g>
</g>
<g>
</g>
<g>
</g>
<g>
</g>
<g>
</g>
<g>
</g>
<g>
</g>
<g>
</g>
<g>
</g>
<g>
</g>
</svg>
