<?xml version="1.0" encoding="iso-8859-1"?>
<!-- Generator: Adobe Illustrator 19.0.0, SVG Export Plug-In . SVG Version: 6.00 Build 0)  -->
<svg version="1.1" id="Capa_1" xmlns="http://www.w3.org/2000/svg" xmlns:xlink="http://www.w3.org/1999/xlink" x="0px" y="0px"
	 viewBox="0 0 512 512" style="enable-background:new 0 0 512 512;" xml:space="preserve">
<circle style="fill:#B9EAFF;" cx="256" cy="256" r="256"/>
<path style="fill:#35CCFF;" d="M512,256c0-9.54-0.539-18.953-1.556-28.223L429,146.333L77,271l59.083,59.083l-3.417,50.583
	L98.25,406.25l98.956,98.956C216.085,509.643,235.767,512,256,512C397.385,512,512,397.385,512,256z"/>
<rect x="115.25" y="222.75" style="fill:#FFECB3;" width="27" height="177.5"/>
<g>
	<rect x="369.75" y="222.75" style="fill:#FFD863;" width="27" height="177.5"/>
	<rect x="98.25" y="378.75" style="fill:#FFD863;" width="61" height="27.5"/>
</g>
<rect x="352.75" y="378.75" style="fill:#FFCF35;" width="61" height="27.5"/>
<rect x="77" y="146.33" style="fill:#FFDC00;" width="352" height="124.67"/>
<rect x="255.95" y="146.33" style="fill:#FFC000;" width="173.05" height="124.67"/>
<g>
	<polygon style="fill:#333333;" points="214.047,146.333 149.047,146.333 77,228.283 77,271 104.446,271 	"/>
	<polygon style="fill:#333333;" points="165.696,271 230.696,271 340.297,146.333 275.297,146.333 	"/>
</g>
<g>
	<polygon style="fill:#1A1A1A;" points="275.297,146.333 255.952,168.337 255.952,242.271 340.297,146.333 	"/>
	<polygon style="fill:#1A1A1A;" points="291.946,271 356.946,271 429,189.041 429,146.333 401.547,146.333 	"/>
</g>
<g>
</g>
<g>
</g>
<g>
</g>
<g>
</g>
<g>
</g>
<g>
</g>
<g>
</g>
<g>
</g>
<g>
</g>
<g>
</g>
<g>
</g>
<g>
</g>
<g>
</g>
<g>
</g>
<g>
</g>
</svg>
