<?xml version="1.0" encoding="iso-8859-1"?>
<!-- Generator: Adobe Illustrator 19.0.0, SVG Export Plug-In . SVG Version: 6.00 Build 0)  -->
<svg version="1.1" id="Capa_1" xmlns="http://www.w3.org/2000/svg" xmlns:xlink="http://www.w3.org/1999/xlink" x="0px" y="0px"
	 viewBox="0 0 512 512" style="enable-background:new 0 0 512 512;" xml:space="preserve">
<circle style="fill:#005C83;" cx="256" cy="256" r="256"/>
<path style="fill:#00263F;" d="M512,256c0-12.482-0.911-24.75-2.637-36.755L387.356,97.239l-31.671,80.006l-80.006-80.006
	L92.647,187.863l93.746,93.746l-15.966,139.593l90.733,90.733c38.952-0.771,75.765-10.243,108.587-26.55
	c2.424-2.464,4.799-4.787,7.094-6.919l1.944,2.212C458.167,437.203,512,352.891,512,256z"/>
<rect x="170.43" y="156.82" style="fill:#FF6838;" width="50.664" height="264.38"/>
<rect x="195.83" y="156.82" style="fill:#AE4E32;" width="25.26" height="264.38"/>
<polygon style="fill:#E0E0E0;" points="171.262,97.239 92.647,146.308 92.647,187.863 275.679,187.863 275.679,97.239 "/>
<rect x="195.83" y="97.24" style="fill:#C0C0C0;" width="79.84" height="90.62"/>
<rect x="302.44" y="97.24" style="fill:#FFDC00;" width="84.92" height="323.96"/>
<rect x="344.64" y="97.24" style="fill:#FFC000;" width="42.713" height="323.96"/>
<rect x="302.44" y="121.93" style="fill:#FF9451;" width="55.737" height="16"/>
<rect x="344.64" y="121.93" style="fill:#F7674F;" width="13.53" height="16"/>
<g>
	<rect x="302.44" y="165.19" style="fill:#FF9451;" width="31.584" height="16"/>
	<rect x="302.44" y="208.45" style="fill:#FF9451;" width="55.737" height="16"/>
</g>
<rect x="344.64" y="208.45" style="fill:#F7674F;" width="13.53" height="16"/>
<g>
	<rect x="302.44" y="251.71" style="fill:#FF9451;" width="31.584" height="16"/>
	<rect x="302.44" y="294.96" style="fill:#FF9451;" width="55.737" height="16"/>
</g>
<rect x="344.64" y="294.96" style="fill:#F7674F;" width="13.53" height="16"/>
<g>
	<rect x="302.44" y="338.22" style="fill:#FF9451;" width="31.584" height="16"/>
	<rect x="302.44" y="381.48" style="fill:#FF9451;" width="55.737" height="16"/>
</g>
<rect x="344.64" y="381.48" style="fill:#F7674F;" width="13.53" height="16"/>
<g>
</g>
<g>
</g>
<g>
</g>
<g>
</g>
<g>
</g>
<g>
</g>
<g>
</g>
<g>
</g>
<g>
</g>
<g>
</g>
<g>
</g>
<g>
</g>
<g>
</g>
<g>
</g>
<g>
</g>
</svg>
