<?xml version="1.0" encoding="iso-8859-1"?>
<!-- Generator: Adobe Illustrator 19.0.0, SVG Export Plug-In . SVG Version: 6.00 Build 0)  -->
<svg version="1.1" id="Capa_1" xmlns="http://www.w3.org/2000/svg" xmlns:xlink="http://www.w3.org/1999/xlink" x="0px" y="0px"
	 viewBox="0 0 512.001 512.001" style="enable-background:new 0 0 512.001 512.001;" xml:space="preserve">
<circle style="fill:#662E57;" cx="256" cy="256" r="256"/>
<path style="fill:#590F38;" d="M512,256c0-3.407-0.087-6.794-0.219-10.169L404.712,138.762l-3.998,22.79l-59.383-59.383
	l-249,245.308l69.407,70.397l-8.32,1.469l93.266,92.471c3.094,0.111,6.196,0.187,9.316,0.187C397.385,512,512,397.385,512,256z"/>
<path style="fill:#FF6838;" d="M423.286,256c0-6.644-0.661-13.12-1.633-19.493l29.619-17.101l-46.561-80.645l-29.545,17.058
	c-10.129-8.139-21.529-14.712-33.836-19.504v-34.146h-93.121v34.146c-12.308,4.792-23.708,11.366-33.836,19.504l-29.545-17.058
	l-46.561,80.645l29.619,17.101c-0.972,6.372-1.633,12.848-1.633,19.493c0,6.644,0.661,13.119,1.633,19.493l-29.619,17.101
	l46.561,80.645l29.545-17.058c10.129,8.139,21.529,14.711,33.836,19.503v34.146h93.121v-34.146
	c12.308-4.792,23.708-11.365,33.836-19.503l29.545,17.058l46.561-80.645l-29.619-17.101C422.625,269.12,423.286,262.645,423.286,256
	z M294.77,312.083c-30.973,0-56.082-25.108-56.082-56.081s25.109-56.082,56.082-56.082s56.082,25.109,56.082,56.082
	S325.742,312.084,294.77,312.083z"/>
<path style="fill:#AE4E32;" d="M423.286,256c0-0.032-0.001-0.064-0.001-0.096h-72.437c0,0.033,0.002,0.065,0.002,0.098
	c0,30.973-25.109,56.082-56.082,56.081c-30.973,0-56.082-25.108-56.082-56.081c0-0.033,0.002-0.065,0.002-0.098h-72.435
	c0,0.032-0.001,0.064-0.001,0.096c0,6.644,0.661,13.119,1.633,19.493l-29.619,17.101l46.561,80.646l29.545-17.058
	c10.129,8.138,21.529,14.711,33.836,19.503v34.146h93.121v-34.146c12.308-4.792,23.708-11.365,33.836-19.503l29.545,17.058
	l46.561-80.646l-29.619-17.101C422.625,269.12,423.286,262.645,423.286,256z"/>
<path style="fill:#E0E0E0;" d="M215.537,76.969c-35.985,0-66.502,24.759-77.306,59.093c-40.718,10.878-71.346,57.903-71.346,114.266
	c0,55.006,29.174,101.111,68.426,113.41c6.775,40.517,40.103,71.294,80.227,71.294c23.986,0,45.548-10.998,60.463-28.498V105.467
	C261.085,87.967,239.523,76.969,215.537,76.969z"/>
<g>
	<path style="fill:#C0C0C0;" d="M66.992,255.905c1.895,52.523,30.402,95.952,68.319,107.833
		c6.775,40.517,40.103,71.294,80.227,71.294c23.985,0,45.548-10.999,60.463-28.499V255.905H66.992z"/>
	<path style="fill:#C0C0C0;" d="M239.27,329.038c-37.112,0-67.305-32.765-67.305-73.038s30.192-73.038,67.305-73.038v20
		c-26.084,0-47.305,23.793-47.305,53.038s21.221,53.038,47.305,53.038L239.27,329.038L239.27,329.038z"/>
</g>
<path style="fill:#758F9B;" d="M191.965,256c0-0.032,0.002-0.063,0.002-0.095h-20c0,0.032-0.002,0.063-0.002,0.095
	c0,40.273,30.192,73.038,67.305,73.038v-20C213.186,309.038,191.965,285.245,191.965,256z"/>
<path style="fill:#C0C0C0;" d="M283.61,98.98c-17.338-20.343-42.15-32.011-68.073-32.011c-37.788,0-71.364,24.305-85.099,61.015
	c-20.226,6.893-38.396,21.921-51.603,42.81c-14.155,22.39-21.951,50.635-21.951,79.534c0,55.934,28.382,104.626,69.722,120.933
	c9.825,43.088,46.357,73.771,88.931,73.771c25.923,0,50.734-11.668,68.073-32.012l2.39-2.803V101.784L283.61,98.98z M266,402.716
	c-13.36,14.224-31.561,22.315-50.463,22.315c-34.673,0-64.265-26.471-70.363-62.943l-1.013-6.057l-5.86-1.836
	c-35.587-11.151-61.416-54.833-61.416-103.868c0-43.276,19.583-81.638,48.341-98.115c-2.721,23.838,2.494,48.764,16.01,68.337
	l16.457-11.364c-14.312-20.726-16.769-49.962-8.08-73.985c-0.177,0.033-0.357,0.05-0.535,0.079
	c10.754-29.054,36.995-48.31,66.459-48.31c18.902,0,37.103,8.09,50.463,22.314V402.716z"/>
<path style="fill:#758F9B;" d="M266,255.905v146.812c-13.331,14.193-31.482,22.277-50.34,22.312
	c-22.38-0.72-42.762-11.148-55.965-28.663c-21.915-28.839-20.697-71.475,2.831-99.174l-15.242-12.948
	c-15.166,17.854-22.904,40.669-23.121,63.531c-26.841-16.161-45.552-51.843-47.154-91.869H56.984
	c1.816,53.572,29.663,99.593,69.622,115.355c0.044,0.194,0.098,0.383,0.144,0.576c0.005-0.004,0.01-0.008,0.016-0.011
	c3.024,13.123,8.664,25.664,16.982,36.611c15.064,19.985,37.432,32.747,62.351,35.875c-0.05,0.061-0.094,0.127-0.145,0.188
	c3.155,0.346,6.35,0.533,9.583,0.533c25.923,0,50.734-11.668,68.073-32.012l2.39-2.803V255.905H266z"/>
<g>
</g>
<g>
</g>
<g>
</g>
<g>
</g>
<g>
</g>
<g>
</g>
<g>
</g>
<g>
</g>
<g>
</g>
<g>
</g>
<g>
</g>
<g>
</g>
<g>
</g>
<g>
</g>
<g>
</g>
</svg>
