<?xml version="1.0" encoding="iso-8859-1"?>
<!-- Generator: Adobe Illustrator 19.0.0, SVG Export Plug-In . SVG Version: 6.00 Build 0)  -->
<svg version="1.1" id="Capa_1" xmlns="http://www.w3.org/2000/svg" xmlns:xlink="http://www.w3.org/1999/xlink" x="0px" y="0px"
	 viewBox="0 0 512 512" style="enable-background:new 0 0 512 512;" xml:space="preserve">
<circle style="fill:#662E57;" cx="256" cy="256" r="256"/>
<path style="fill:#590F38;" d="M512,256c0-6.705-0.26-13.348-0.767-19.923L388.771,113.615l-2.295,30.056l-74.248-74.248L67,211.006
	l113.576,113.576l-57.347,72.199l114.567,114.567C243.81,511.771,249.878,512,256,512C397.385,512,512,397.385,512,256z"/>
<path style="fill:#35CCFF;" d="M411.202,255.198c0-8.024-0.798-15.845-1.972-23.54L445,211.006l-56.229-97.391l-35.68,20.6
	c-12.232-9.829-25.999-17.767-40.862-23.554V69.423H199.771v41.237c-14.863,5.787-28.63,13.726-40.862,23.554l-35.68-20.6
	L67,211.006l35.77,20.651c-1.174,7.696-1.972,15.516-1.972,23.54s0.798,15.844,1.972,23.54L67,299.39l56.229,97.391l35.68-20.6
	c12.232,9.829,25.999,17.766,40.862,23.553v41.237h112.458v-41.237c14.863-5.787,28.63-13.725,40.862-23.553l35.68,20.6L445,299.39
	l-35.77-20.651C410.404,271.042,411.202,263.222,411.202,255.198z"/>
<path style="fill:#00BAFF;" d="M411.203,255.198c0-8.024-0.798-15.845-1.972-23.54L445,211.006l-56.229-97.391l-35.68,20.599
	c-12.232-9.828-25.999-17.767-40.862-23.554V69.423h-56.276v371.548h56.276v-41.237c14.863-5.787,28.63-13.725,40.862-23.553
	l35.68,20.599L445,299.39l-35.77-20.651C410.404,271.042,411.203,263.222,411.203,255.198z"/>
<g>
	<rect x="150" y="207.64" style="fill:#FFFFFF;" width="56" height="17.455"/>
	<rect x="150" y="247.27" style="fill:#FFFFFF;" width="56" height="17.455"/>
	<rect x="150" y="286.91" style="fill:#FFFFFF;" width="56" height="17.455"/>
</g>
<g>
	<rect x="306" y="207.64" style="fill:#E0E0E0;" width="56" height="17.455"/>
	<rect x="306" y="247.27" style="fill:#E0E0E0;" width="56" height="17.455"/>
	<rect x="306" y="286.91" style="fill:#E0E0E0;" width="56" height="17.455"/>
	<rect x="286.91" y="150" style="fill:#E0E0E0;" width="17.455" height="56"/>
</g>
<rect x="247.27" y="150" style="fill:#FFFFFF;" width="17.455" height="56"/>
<rect x="255.95" y="150" style="fill:#E0E0E0;" width="8.775" height="56"/>
<rect x="207.64" y="150" style="fill:#FFFFFF;" width="17.455" height="56"/>
<rect x="286.91" y="306" style="fill:#E0E0E0;" width="17.455" height="56"/>
<rect x="247.27" y="306" style="fill:#FFFFFF;" width="17.455" height="56"/>
<rect x="255.95" y="306" style="fill:#E0E0E0;" width="8.775" height="56"/>
<rect x="207.64" y="306" style="fill:#FFFFFF;" width="17.455" height="56"/>
<path style="fill:#0074A3;" d="M307.273,330.182H204.727c-12.652,0-22.909-10.257-22.909-22.909V204.727
	c0-12.652,10.257-22.909,22.909-22.909h102.545c12.652,0,22.909,10.257,22.909,22.909v102.545
	C330.182,319.925,319.925,330.182,307.273,330.182z"/>
<path style="fill:#005C83;" d="M307.273,181.818h-51.32v148.364h51.32c12.652,0,22.909-10.257,22.909-22.909V204.727
	C330.182,192.075,319.925,181.818,307.273,181.818z"/>
<rect x="226.54" y="226.54" style="fill:#FFDC00;" width="58.909" height="58.909"/>
<rect x="255.95" y="226.54" style="fill:#FFC000;" width="29.502" height="58.909"/>
<g>
</g>
<g>
</g>
<g>
</g>
<g>
</g>
<g>
</g>
<g>
</g>
<g>
</g>
<g>
</g>
<g>
</g>
<g>
</g>
<g>
</g>
<g>
</g>
<g>
</g>
<g>
</g>
<g>
</g>
</svg>
