<?xml version="1.0" encoding="iso-8859-1"?>
<!-- Generator: Adobe Illustrator 19.0.0, SVG Export Plug-In . SVG Version: 6.00 Build 0)  -->
<svg version="1.1" id="Capa_1" xmlns="http://www.w3.org/2000/svg" xmlns:xlink="http://www.w3.org/1999/xlink" x="0px" y="0px"
	 viewBox="0 0 512 512" style="enable-background:new 0 0 512 512;" xml:space="preserve">
<circle style="fill:#FFECB3;" cx="256" cy="256" r="256"/>
<path style="fill:#FFD863;" d="M512,256c0-9.787-0.569-19.439-1.638-28.94l-96.71-96.71l-295.319,70.817l25.381,222.873
	l-23.381,18.627l56.999,56.999C202.12,507.663,228.552,512,256,512C397.385,512,512,397.385,512,256z"/>
<path style="fill:#0074A3;" d="M319.667,142.667H182.333c-19.882,0-36,16.118-36,36l0,0c0,19.882,16.118,36,36,36h137.333
	c0.447,0,0.89-0.017,1.333-0.034V142.7C320.557,142.684,320.114,142.667,319.667,142.667z"/>
<path style="fill:#005C83;" d="M319.667,142.667h-63.714v72h63.714c0.447,0,0.89-0.017,1.333-0.034V142.7
	C320.557,142.684,320.114,142.667,319.667,142.667z"/>
<path style="fill:#008CC3;" d="M206.552,204.185l-97.109,97.109c-14.059,14.059-36.853,14.059-50.912,0l0,0
	c-14.059-14.059-14.059-36.853,0-50.912l97.109-97.109c14.059-14.059,36.853-14.059,50.912,0l0,0
	C220.611,167.332,220.611,190.126,206.552,204.185z"/>
<path style="fill:#0074A3;" d="M185.892,428.632L58.541,301.281c-14.059-14.059-14.059-36.853,0-50.912l0,0
	c14.059-14.059,36.853-14.059,50.912,0L236.804,377.72c14.059,14.059,14.059,36.853,0,50.912l0,0
	C222.745,442.691,199.951,442.691,185.892,428.632z"/>
<circle style="fill:#008CC3;" cx="82" cy="276.67" r="16.667"/>
<g>
	<circle style="fill:#0074A3;" cx="179.87" cy="179.78" r="16.667"/>
	<path style="fill:#0074A3;" d="M386.302,208.107c-5.596,3.72-12.31,5.893-19.534,5.893c-19.514,0-35.333-15.819-35.333-35.333
		s15.819-35.333,35.333-35.333c7.224,0,13.938,2.172,19.534,5.893h41.032c-10.924-22.432-33.937-37.893-60.566-37.893
		c-37.187,0-67.333,30.146-67.333,67.333S329.581,246,366.768,246c26.629,0,49.642-15.461,60.566-37.893H386.302z"/>
</g>
<path style="fill:#008CC3;" d="M344.333,442.667h-224v-34.333c0-16.753,13.581-30.333,30.333-30.333H314
	c16.753,0,30.333,13.581,30.333,30.333V442.667z"/>
<path style="fill:#0074A3;" d="M344.333,408.333c0-16.752-13.58-30.333-30.333-30.333h-58.048v64.667h88.381V408.333z"/>
<g>
</g>
<g>
</g>
<g>
</g>
<g>
</g>
<g>
</g>
<g>
</g>
<g>
</g>
<g>
</g>
<g>
</g>
<g>
</g>
<g>
</g>
<g>
</g>
<g>
</g>
<g>
</g>
<g>
</g>
</svg>
