<?xml version="1.0" encoding="iso-8859-1"?>
<!-- Generator: Adobe Illustrator 19.0.0, SVG Export Plug-In . SVG Version: 6.00 Build 0)  -->
<svg version="1.1" id="Capa_1" xmlns="http://www.w3.org/2000/svg" xmlns:xlink="http://www.w3.org/1999/xlink" x="0px" y="0px"
	 viewBox="0 0 512 512" style="enable-background:new 0 0 512 512;" xml:space="preserve">
<circle style="fill:#005C83;" cx="256" cy="256" r="256"/>
<path style="fill:#00263F;" d="M511.059,277.884l-192.42-192.42l-78.163,161.512l-123.188,34.225l91.391,91.391l-50.123,44.954
	l94.415,94.415c1.01,0.012,2.017,0.038,3.029,0.038C390.011,512,499.955,409.023,511.059,277.884z"/>
<path style="fill:#FF6838;" d="M369.907,313.635c0-5.889-0.586-11.629-1.448-17.277l26.252-15.157l-41.268-71.478l-26.187,15.119
	c-8.977-7.213-19.081-13.04-29.99-17.287V177.29H214.73v30.265c-10.909,4.247-21.013,10.074-29.99,17.287l-26.187-15.119
	l-41.268,71.478l26.252,15.157c-0.862,5.648-1.448,11.388-1.448,17.277s0.586,11.628,1.448,17.277l-26.252,15.157l41.268,71.478
	l26.187-15.119c8.977,7.213,19.081,13.039,29.99,17.286v30.265h82.536v-30.265c10.909-4.247,21.013-10.073,29.99-17.286
	l26.187,15.119l41.268-71.478l-26.252-15.157C369.321,325.263,369.907,319.524,369.907,313.635z M255.999,363.343
	c-27.452,0-49.707-22.254-49.707-49.706s22.255-49.707,49.707-49.707s49.707,22.255,49.707,49.707S283.451,363.344,255.999,363.343z
	"/>
<path style="fill:#AE4E32;" d="M369.907,313.635c0-5.889-0.586-11.629-1.448-17.277l26.252-15.157l-41.268-71.478l-26.187,15.118
	c-8.977-7.213-19.082-13.04-29.99-17.287V177.29h-41.315v86.641c0.016,0,0.031-0.001,0.047-0.001
	c27.452,0,49.707,22.255,49.707,49.707s-22.255,49.707-49.707,49.706c-0.016,0-0.031-0.001-0.047-0.001v86.638h41.315v-30.265
	c10.908-4.247,21.013-10.073,29.99-17.286l26.187,15.119l41.268-71.478l-26.252-15.156
	C369.322,325.263,369.907,319.524,369.907,313.635z"/>
<path style="fill:#FFDC00;" d="M347.71,152.446c0-51.086-41.77-92.416-93.02-91.701c-49.728,0.694-90.166,41.53-90.398,91.262
	c-0.127,27.178,11.569,51.625,30.242,68.498c15.291,13.817,24.122,33.386,24.122,53.995v11.574h74.689v-11.569
	c0-20.386,8.421-40.008,23.642-53.57C335.838,204.14,347.71,179.68,347.71,152.446z"/>
<path style="fill:#FFC000;" d="M255.952,60.744v225.331h37.392v-11.569c0-20.386,8.421-40.008,23.642-53.57
	c18.851-16.796,30.723-41.255,30.723-68.49C347.71,101.781,306.624,60.719,255.952,60.744z"/>
<path style="fill:#FFFFFF;" d="M256,349.604L256,349.604c-20.625,0-37.345-16.72-37.345-37.345v-34.158h74.689v34.158
	C293.345,332.884,276.625,349.604,256,349.604z"/>
<g>
	<path style="fill:#E0E0E0;" d="M255.952,278.101v71.502c0.016,0,0.031,0.001,0.048,0.001l0,0c20.625,0,37.345-16.72,37.345-37.345
		v-34.158L255.952,278.101L255.952,278.101z"/>
	<rect x="218.66" y="293.29" style="fill:#E0E0E0;" width="74.69" height="16.16"/>
</g>
<rect x="255.95" y="293.29" style="fill:#C0C0C0;" width="37.39" height="16.16"/>
<g>
</g>
<g>
</g>
<g>
</g>
<g>
</g>
<g>
</g>
<g>
</g>
<g>
</g>
<g>
</g>
<g>
</g>
<g>
</g>
<g>
</g>
<g>
</g>
<g>
</g>
<g>
</g>
<g>
</g>
</svg>
