<?xml version="1.0" encoding="iso-8859-1"?>
<!-- Generator: Adobe Illustrator 19.0.0, SVG Export Plug-In . SVG Version: 6.00 Build 0)  -->
<svg version="1.1" id="Capa_1" xmlns="http://www.w3.org/2000/svg" xmlns:xlink="http://www.w3.org/1999/xlink" x="0px" y="0px"
	 viewBox="0 0 512 512" style="enable-background:new 0 0 512 512;" xml:space="preserve">
<circle style="fill:#005C83;" cx="256" cy="256" r="256"/>
<path style="fill:#00263F;" d="M512,256c0-1.637-0.031-3.266-0.062-4.895L411.167,150.333L296.705,271.821L149.916,125.032
	l-44.2,253.716l132.635,132.635C244.184,511.781,250.066,512,256,512C397.385,512,512,397.385,512,256z"/>
<path style="fill:#FFFFFF;" d="M97.833,358.583v-208.25h313.333v238H127.583C111.153,388.333,97.833,375.014,97.833,358.583z"/>
<g>
	<path style="fill:#E0E0E0;" d="M97.833,255.905v102.679c0,16.43,13.32,29.75,29.75,29.75h283.583V255.905H97.833z"/>
	<path style="fill:#E0E0E0;" d="M157.833,358.333c0-16.569-13.431-30-30-30s-30,13.431-30,30v-213c0-16.569,13.431-30,30-30
		s30,13.431,30,30V358.333z"/>
</g>
<path style="fill:#C0C0C0;" d="M97.833,255.905v102.429c0-16.569,13.431-30,30-30s30,13.431,30,30V255.905H97.833z"/>
<path style="fill:#FF6838;" d="M356.418,264.334c0-4.054-0.403-8.006-0.997-11.894l18.073-10.434l-28.41-49.208l-18.028,10.408
	c-6.18-4.966-13.136-8.977-20.646-11.901V170.47h-56.82v20.835c-7.51,2.924-14.466,6.935-20.646,11.901l-18.028-10.408
	l-28.41,49.208l18.073,10.434c-0.593,3.888-0.997,7.84-0.997,11.894s0.403,8.005,0.997,11.894l-18.073,10.434l28.41,49.208
	l18.028-10.408c6.18,4.966,13.136,8.977,20.646,11.901v20.835h56.821v-20.835c7.51-2.924,14.466-6.935,20.646-11.901l18.028,10.408
	l28.41-49.208l-18.073-10.434C356.015,272.339,356.418,268.388,356.418,264.334z M277.999,298.554
	c-18.899,0-34.22-15.32-34.22-34.219s15.321-34.22,34.22-34.22s34.22,15.321,34.22,34.22S296.898,298.555,277.999,298.554z"/>
<path style="fill:#AE4E32;" d="M356.418,264.334c0-2.857-0.208-5.66-0.533-8.429H311.17c0.683,2.697,1.049,5.521,1.049,8.43
	c0,18.899-15.321,34.22-34.22,34.219c-18.899,0-34.22-15.32-34.22-34.219c0-2.909,0.366-5.733,1.049-8.43h-44.713
	c-0.326,2.769-0.534,5.572-0.534,8.429c0,4.054,0.403,8.005,0.997,11.894l-18.073,10.434l28.41,49.208l18.028-10.408
	c6.18,4.966,13.136,8.977,20.646,11.901v20.835h56.821v-20.835c7.51-2.924,14.466-6.935,20.646-11.901l18.028,10.408l28.41-49.208
	l-18.073-10.434C356.015,272.339,356.418,268.388,356.418,264.334z"/>
<g>
</g>
<g>
</g>
<g>
</g>
<g>
</g>
<g>
</g>
<g>
</g>
<g>
</g>
<g>
</g>
<g>
</g>
<g>
</g>
<g>
</g>
<g>
</g>
<g>
</g>
<g>
</g>
<g>
</g>
</svg>
