<?xml version="1.0" encoding="iso-8859-1"?>
<!-- Generator: Adobe Illustrator 19.0.0, SVG Export Plug-In . SVG Version: 6.00 Build 0)  -->
<svg version="1.1" id="Capa_1" xmlns="http://www.w3.org/2000/svg" xmlns:xlink="http://www.w3.org/1999/xlink" x="0px" y="0px"
	 viewBox="0 0 512 512" style="enable-background:new 0 0 512 512;" xml:space="preserve">
<circle style="fill:#005C83;" cx="256" cy="256" r="256"/>
<path style="fill:#00263F;" d="M512,256c0-9.556-0.541-18.983-1.561-28.267L398.506,115.799H113.494l102.468,102.468L99.25,410.999
	l92.996,92.996C212.628,509.219,233.989,512,256,512C397.385,512,512,397.385,512,256z"/>
<polygon style="fill:#FF9451;" points="183.494,71.5 328.506,71.5 328.506,407.5 264.75,440.5 247.25,440.499 181,408.5 "/>
<polygon style="fill:#F7674F;" points="255.952,71.5 255.952,440.5 264.75,440.5 328.506,407.5 328.506,71.5 "/>
<path style="fill:#FFDC00;" d="M247.25,152.491L183.494,71.5l-70,44.299c0,0,59.756,76.614,11.605,121.614L99.25,410.999l148,29.5
	V152.491z"/>
<path style="fill:#FFC000;" d="M264.75,152.491L328.506,71.5l70,44.299c0,0-59.756,76.614-11.605,121.614L412.75,411l-148,29.5
	V152.491z"/>
<polygon style="fill:#FF6838;" points="173.798,77.637 150.798,92.192 150.798,421.274 173.798,425.859 "/>
<g>
	<polygon style="fill:#AE4E32;" points="338.202,425.859 361.202,421.274 361.202,92.192 338.202,77.637 	"/>
	<polygon style="fill:#AE4E32;" points="247.25,335 247.25,300 115.779,300 110.567,335 	"/>
</g>
<polygon style="fill:#7C2E1C;" points="264.75,335 401.433,335 396.221,300 264.75,300 "/>
<g>
</g>
<g>
</g>
<g>
</g>
<g>
</g>
<g>
</g>
<g>
</g>
<g>
</g>
<g>
</g>
<g>
</g>
<g>
</g>
<g>
</g>
<g>
</g>
<g>
</g>
<g>
</g>
<g>
</g>
</svg>
