<?xml version="1.0" encoding="iso-8859-1"?>
<!-- Generator: Adobe Illustrator 19.0.0, SVG Export Plug-In . SVG Version: 6.00 Build 0)  -->
<svg version="1.1" id="Capa_1" xmlns="http://www.w3.org/2000/svg" xmlns:xlink="http://www.w3.org/1999/xlink" x="0px" y="0px"
	 viewBox="0 0 512 512" style="enable-background:new 0 0 512 512;" xml:space="preserve">
<circle style="fill:#FFECB3;" cx="256" cy="256" r="256"/>
<path style="fill:#FFD863;" d="M512,256c0-5.674-0.205-11.299-0.568-16.881L389.991,117.678L59.5,267.509l96.671,96.671
	l-28.4,27.759l119.913,119.914C250.447,511.94,253.216,512,256,512C397.385,512,512,397.385,512,256z"/>
<path style="fill:#FF6838;" d="M405.893,255.198c0-7.749-0.771-15.303-1.905-22.735l34.546-19.945l-54.305-94.06l-34.46,19.895
	c-11.814-9.492-25.11-17.16-39.465-22.749V75.778H201.695v39.826c-14.355,5.589-27.651,13.256-39.465,22.749l-34.46-19.895
	l-54.305,94.06l34.546,19.945c-1.134,7.432-1.905,14.986-1.905,22.735s0.771,15.302,1.905,22.735l-34.546,19.945l54.305,94.06
	l34.46-19.895c11.813,9.492,25.11,17.159,39.465,22.748v39.826h108.611v-39.826c14.355-5.589,27.651-13.255,39.465-22.748
	l34.46,19.895l54.305-94.06l-34.546-19.945C405.122,270.5,405.893,262.947,405.893,255.198z M255.999,320.61
	c-36.125,0-65.411-29.285-65.411-65.409s29.286-65.411,65.411-65.411s65.411,29.286,65.411,65.411S292.124,320.611,255.999,320.61z"
	/>
<path style="fill:#AE4E32;" d="M405.894,255.198c0-7.75-0.771-15.303-1.905-22.735l34.546-19.945l-54.305-94.06l-34.459,19.895
	c-11.813-9.492-25.11-17.16-39.465-22.749V75.778h-54.353v114.013c0.016,0,0.031-0.001,0.046-0.001
	c36.125,0,65.411,29.286,65.411,65.411s-29.286,65.411-65.411,65.41c-0.016,0-0.031-0.001-0.046-0.001v114.008h54.353v-39.826
	c14.355-5.589,27.651-13.255,39.465-22.748l34.459,19.895l54.305-94.06l-34.546-19.945
	C405.122,270.5,405.894,262.948,405.894,255.198z"/>
<path style="fill:#333333;" d="M59.5,267.508c0-113.142,87.976-204.862,196.5-204.862s196.5,91.72,196.5,204.862H59.5z"/>
<path style="fill:#1A1A1A;" d="M256,62.647c-0.016,0-0.032,0-0.048,0v204.861H452.5C452.5,154.367,364.524,62.647,256,62.647z"/>
<path style="fill:#35CCFF;" d="M407.904,240.946h-50.646v-20h26.275C367.811,161.612,315.897,119.701,256,119.701
	c-59.898,0-111.811,41.911-127.534,101.245h23.268v20h-47.638l2.085-11.748C119.5,154.163,182.508,99.701,256,99.701
	s136.5,54.461,149.818,129.497L407.904,240.946z"/>
<path style="fill:#00BAFF;" d="M357.258,240.946h50.646l-2.086-11.748C392.5,154.162,329.492,99.701,256,99.701
	c-0.016,0-0.032,0-0.048,0v20c0.016,0,0.032,0,0.048,0c59.897,0,111.811,41.911,127.533,101.245h-26.275V240.946z"/>
<path style="fill:#35CCFF;" d="M242.358,250.965c-6.552-7.688-52.857-90.216-52.857-90.216s74.148,58.8,80.7,66.488
	c6.552,7.688,5.631,19.232-2.058,25.784C260.455,259.573,248.91,258.653,242.358,250.965z"/>
<path style="fill:#00BAFF;" d="M270.201,227.237c-1.559-1.829-6.948-6.554-14.249-12.688v42.821
	c4.306,0.079,8.656-1.335,12.192-4.348C275.833,246.469,276.754,234.925,270.201,227.237z"/>
<g>
</g>
<g>
</g>
<g>
</g>
<g>
</g>
<g>
</g>
<g>
</g>
<g>
</g>
<g>
</g>
<g>
</g>
<g>
</g>
<g>
</g>
<g>
</g>
<g>
</g>
<g>
</g>
<g>
</g>
</svg>
