<?xml version="1.0" encoding="iso-8859-1"?>
<!-- Generator: Adobe Illustrator 19.0.0, SVG Export Plug-In . SVG Version: 6.00 Build 0)  -->
<svg version="1.1" id="Capa_1" xmlns="http://www.w3.org/2000/svg" xmlns:xlink="http://www.w3.org/1999/xlink" x="0px" y="0px"
	 viewBox="0 0 512 512" style="enable-background:new 0 0 512 512;" xml:space="preserve">
<circle style="fill:#FFECB3;" cx="256" cy="256" r="256"/>
<path style="fill:#FFD863;" d="M511.951,259.898L391.213,139.16L220.589,72.825L90.213,156.02l157.765,157.765l-138.311,74.549
	l122.558,122.558C240.055,511.613,247.982,512,256,512C396.082,512,509.865,399.483,511.951,259.898z"/>
<polygon style="fill:#AE4E32;" points="361,388.333 109.667,388.333 109.667,139.667 235.333,59.477 361,139.667 "/>
<polygon style="fill:#772F1E;" points="361,139.667 235.333,59.477 235.333,59.993 235.333,388.333 361,388.333 "/>
<g>
	<rect x="171.67" y="276.33" style="fill:#FF6838;" width="127.33" height="112"/>
	<polygon style="fill:#FF6838;" points="380.454,156.02 235.333,63.416 90.213,156.02 79.454,139.16 235.333,39.691 391.213,139.16 
			"/>
</g>
<polygon style="fill:#AE4E32;" points="235.333,63.416 380.454,156.02 391.213,139.16 235.333,39.691 "/>
<path style="fill:#FFFFFF;" d="M220.589,395.796V266.031h195.244v148.303H239.126C228.889,414.333,220.589,406.034,220.589,395.796z
	"/>
<g>
	<path style="fill:#E0E0E0;" d="M220.589,330.905v64.891c0,10.238,8.3,18.538,18.538,18.538h176.707v-83.429L220.589,330.905
		L220.589,330.905z"/>
	<path style="fill:#E0E0E0;" d="M257.976,395.64c0-10.324-8.369-18.694-18.694-18.694c-10.324,0-18.694,8.369-18.694,18.694V262.915
		c0-10.324,8.369-18.694,18.694-18.694s18.694,8.369,18.694,18.694V395.64z"/>
</g>
<path style="fill:#C0C0C0;" d="M220.589,330.905v64.735c0-10.324,8.369-18.693,18.694-18.693c10.324,0,18.694,8.369,18.694,18.693
	v-64.735L220.589,330.905L220.589,330.905z"/>
<rect x="131" y="147.59" style="fill:#B9EAFF;" width="82.67" height="86.74"/>
<rect x="257" y="147.59" style="fill:#35CCFF;" width="82.67" height="86.74"/>
<polygon style="fill:#999999;" points="385.225,388.333 294.108,388.333 294.108,319.393 339.667,290.321 385.225,319.393 "/>
<polygon style="fill:#808080;" points="385.225,319.393 339.667,290.321 339.706,388.333 385.225,388.333 "/>
<polygon style="fill:#666666;" points="392.278,325.321 339.667,291.749 287.055,325.321 283.155,319.209 339.667,283.148 
	396.178,319.209 "/>
<polygon style="fill:#4D4D4D;" points="396.179,319.209 339.667,283.148 339.667,291.749 392.278,325.321 "/>
<g>
</g>
<g>
</g>
<g>
</g>
<g>
</g>
<g>
</g>
<g>
</g>
<g>
</g>
<g>
</g>
<g>
</g>
<g>
</g>
<g>
</g>
<g>
</g>
<g>
</g>
<g>
</g>
<g>
</g>
</svg>
