<?xml version="1.0" encoding="iso-8859-1"?>
<!-- Generator: Adobe Illustrator 19.0.0, SVG Export Plug-In . SVG Version: 6.00 Build 0)  -->
<svg version="1.1" id="Capa_1" xmlns="http://www.w3.org/2000/svg" xmlns:xlink="http://www.w3.org/1999/xlink" x="0px" y="0px"
	 viewBox="0 0 512 512" style="enable-background:new 0 0 512 512;" xml:space="preserve">
<circle style="fill:#FF9451;" cx="256" cy="256" r="256"/>
<path style="fill:#F7674F;" d="M512,256c0-2.376-0.038-4.742-0.102-7.102L443,180l-27.456,39.878L252.001,56.334L69,332
	l63.665,63.665L100,430.333l65,65C193.278,506.092,223.947,512,256,512C397.385,512,512,397.385,512,256z"/>
<rect x="69" y="180" style="fill:#333333;" width="374" height="152"/>
<rect x="69" y="255.91" style="fill:#1A1A1A;" width="374" height="76.09"/>
<rect x="211.21" y="239" style="fill:#CCCCCC;" width="89.58" height="34"/>
<rect x="211.21" y="255.91" style="fill:#B3B3B3;" width="89.58" height="17.09"/>
<g>
	<rect x="100.21" y="239" style="fill:#CCCCCC;" width="89.58" height="34"/>
	<rect x="322.21" y="239" style="fill:#CCCCCC;" width="89.58" height="34"/>
</g>
<rect x="322.21" y="255.91" style="fill:#B3B3B3;" width="89.58" height="17.09"/>
<rect x="100" y="56.33" style="fill:#666666;" width="152" height="374"/>
<rect x="100" y="255.91" style="fill:#4D4D4D;" width="152" height="174.43"/>
<rect x="159" y="198.54" style="fill:#FFFFFF;" width="34" height="89.58"/>
<g>
	<rect x="159" y="255.91" style="fill:#E0E0E0;" width="34" height="32.22"/>
	<rect x="159" y="309.54" style="fill:#E0E0E0;" width="34" height="89.58"/>
</g>
<rect x="159" y="87.54" style="fill:#FFFFFF;" width="34" height="89.58"/>
<g>
</g>
<g>
</g>
<g>
</g>
<g>
</g>
<g>
</g>
<g>
</g>
<g>
</g>
<g>
</g>
<g>
</g>
<g>
</g>
<g>
</g>
<g>
</g>
<g>
</g>
<g>
</g>
<g>
</g>
</svg>
