<?xml version="1.0" encoding="iso-8859-1"?>
<!-- Generator: Adobe Illustrator 19.0.0, SVG Export Plug-In . SVG Version: 6.00 Build 0)  -->
<svg version="1.1" id="Capa_1" xmlns="http://www.w3.org/2000/svg" xmlns:xlink="http://www.w3.org/1999/xlink" x="0px" y="0px"
	 viewBox="0 0 512 512" style="enable-background:new 0 0 512 512;" xml:space="preserve">
<circle style="fill:#FFECB3;" cx="256" cy="256" r="256"/>
<path style="fill:#FFD863;" d="M254.667,368l116.619,116.619c80.623-40.736,136.756-122.857,140.495-218.443L342.714,97.109
	L254.667,368z"/>
<circle style="fill:#333333;" cx="256" cy="186.67" r="124.67"/>
<path style="fill:#1A1A1A;" d="M256,62c-0.016,0-0.032,0.001-0.048,0.001v249.332c0.016,0,0.032,0,0.048,0
	c68.852,0,124.667-55.815,124.667-124.667S324.852,62,256,62z"/>
<path style="fill:#666666;" d="M103.057,461.307C145.73,493.148,198.663,512,256,512c58.611,0,112.611-19.711,155.763-52.847
	l-63.865-188.255H164.102L103.057,461.307z"/>
<path style="fill:#4D4D4D;" d="M411.763,459.153l-63.865-188.255h-91.945V512c0.016,0,0.032,0,0.048,0
	C314.611,512,368.611,492.289,411.763,459.153z"/>
<polygon style="fill:#FFFFFF;" points="242.15,286 238.767,349.5 277.935,349.5 274.354,286 "/>
<polygon style="fill:#E0E0E0;" points="274.354,286 255.952,286 255.952,349.5 277.935,349.5 "/>
<polygon style="fill:#FFFFFF;" points="285.452,485.506 279.401,378.173 237.381,378.173 231.662,485.506 "/>
<polygon style="fill:#E0E0E0;" points="279.401,378.173 255.952,378.173 255.952,485.506 285.452,485.506 "/>
<g>
</g>
<g>
</g>
<g>
</g>
<g>
</g>
<g>
</g>
<g>
</g>
<g>
</g>
<g>
</g>
<g>
</g>
<g>
</g>
<g>
</g>
<g>
</g>
<g>
</g>
<g>
</g>
<g>
</g>
</svg>
