<?xml version="1.0" encoding="iso-8859-1"?>
<!-- Generator: Adobe Illustrator 19.0.0, SVG Export Plug-In . SVG Version: 6.00 Build 0)  -->
<svg version="1.1" id="Capa_1" xmlns="http://www.w3.org/2000/svg" xmlns:xlink="http://www.w3.org/1999/xlink" x="0px" y="0px"
	 viewBox="0 0 512 512" style="enable-background:new 0 0 512 512;" xml:space="preserve">
<circle style="fill:#FF9451;" cx="256" cy="256" r="256"/>
<path style="fill:#F7674F;" d="M512,256c0-6.968-0.289-13.868-0.835-20.695L383.031,107.17L83.212,291.521l59.644,59.644
	L127.845,412.5l97.688,97.688C235.525,511.373,245.689,512,256,512C397.385,512,512,397.385,512,256z"/>
<rect x="137.09" y="329.5" style="fill:#FFFFFF;" width="237.81" height="33"/>
<g>
	<rect x="255.95" y="329.5" style="fill:#E0E0E0;" width="118.95" height="33"/>
	<rect x="127.84" y="273" style="fill:#E0E0E0;" width="18.5" height="139.5"/>
</g>
<rect x="365.65" y="273" style="fill:#C0C0C0;" width="18.5" height="139.5"/>
<polygon style="fill:#FFFFFF;" points="428.788,291.522 83.212,291.522 128.969,107.17 383.031,107.17 "/>
<polygon style="fill:#E0E0E0;" points="383.031,107.17 255.952,107.17 255.952,291.521 428.788,291.521 "/>
<polygon style="fill:#008CC3;" points="374.465,247 137.535,247 164.977,135.327 347.023,135.327 "/>
<polygon style="fill:#0074A3;" points="347.023,135.327 255.952,135.327 255.952,247 374.465,247 "/>
<g>
</g>
<g>
</g>
<g>
</g>
<g>
</g>
<g>
</g>
<g>
</g>
<g>
</g>
<g>
</g>
<g>
</g>
<g>
</g>
<g>
</g>
<g>
</g>
<g>
</g>
<g>
</g>
<g>
</g>
</svg>
