<?xml version="1.0" encoding="iso-8859-1"?>
<!-- Generator: Adobe Illustrator 19.0.0, SVG Export Plug-In . SVG Version: 6.00 Build 0)  -->
<svg version="1.1" id="Capa_1" xmlns="http://www.w3.org/2000/svg" xmlns:xlink="http://www.w3.org/1999/xlink" x="0px" y="0px"
	 viewBox="0 0 512 512" style="enable-background:new 0 0 512 512;" xml:space="preserve">
<circle style="fill:#662E57;" cx="256" cy="256" r="256"/>
<path style="fill:#590F38;" d="M512,256c0-1.637-0.031-3.266-0.062-4.895L411.167,150.333l-89.69,146.229L148.779,123.865
	l-41.802,252.38l-2.778,0.718l134.439,134.439C244.377,511.786,250.163,512,256,512C397.385,512,512,397.385,512,256z"/>
<path style="fill:#00BAFF;" d="M97.833,358.583v-208.25h313.333v238H127.583C111.153,388.333,97.833,375.014,97.833,358.583z"/>
<path style="fill:#008CC3;" d="M97.833,255.667v102.917c0,16.43,13.32,29.75,29.75,29.75h283.583V255.667H97.833z"/>
<path style="fill:#B9EAFF;" d="M157.833,358.333c0-16.569-13.431-30-30-30s-30,13.431-30,30v-213c0-16.569,13.431-30,30-30
	s30,13.431,30,30V358.333z"/>
<path style="fill:#35CCFF;" d="M97.833,255.667v102.667c0-16.569,13.431-30,30-30s30,13.431,30,30V255.667H97.833z"/>
<path style="fill:#0074A3;" d="M378.333,362.333H177V179.667h201.333V362.333z M197,342.333h161.333V199.667H197V342.333z"/>
<polygon style="fill:#005C83;" points="358.333,255.667 358.333,342.333 197,342.333 197,255.667 177,255.667 177,362.333 
	378.333,362.333 378.333,255.667 "/>
<g>
	<rect x="299" y="189.67" style="fill:#0074A3;" width="20" height="66.33"/>
	<rect x="207" y="226.83" style="fill:#0074A3;" width="98.67" height="20"/>
</g>
<g>
	<rect x="227.67" y="299.67" style="fill:#005C83;" width="20" height="52.667"/>
	<rect x="237.67" y="313" style="fill:#005C83;" width="71.33" height="20"/>
</g>
<g>
</g>
<g>
</g>
<g>
</g>
<g>
</g>
<g>
</g>
<g>
</g>
<g>
</g>
<g>
</g>
<g>
</g>
<g>
</g>
<g>
</g>
<g>
</g>
<g>
</g>
<g>
</g>
<g>
</g>
</svg>
