<svg height="512pt" viewBox="0 0 512 512" width="512pt" xmlns="http://www.w3.org/2000/svg"><path d="m512 256c0 141.386719-114.613281 256-256 256s-256-114.613281-256-256 114.613281-256 256-256 256 114.613281 256 256zm0 0" fill="#1d71b8"/><path d="m136.746094 389.296875 122.660156 122.660156c139.8125-1.824219 252.59375-115.710937 252.59375-255.957031 0-7.460938-.339844-14.839844-.964844-22.136719l-127.859375-127.863281-19.566406 39.566406-19.566406-20-19.566407.433594-19.5625-20-19.566406 48.914062 69.425782 69 5.195312 17.113282-128.789062-128.773438-33.875 42.746094-48.914063-49-19.566406 68.476562 68.480469 68 5.457031 17.429688-49.839844-49.828125zm0 0" fill="#134a79"/><path d="m236.433594 125.566406v221.738282c0 32.417968-26.273438 58.695312-58.695313 58.695312l-19.5625-58.695312 19.5625-78.261719c10.808594 0 19.566407-8.757813 19.566407-19.566407v-123.910156c0-10.808594 8.757812-19.566406 19.5625-19.566406 10.808593 0 19.566406 8.757812 19.566406 19.566406zm0 0" fill="#fd5575"/><path d="m177.738281 269.042969v136.957031c-32.417969 0-58.695312-26.277344-58.695312-58.695312v-123.914063c0-10.804687 8.757812-19.566406 19.566406-19.566406 10.804687 0 19.5625 8.761719 19.5625 19.566406v26.085937c.003906 10.808594 8.761719 19.566407 19.566406 19.566407zm0 0" fill="#fb8454"/><path d="m138.609375 347.304688c0 21.609374 17.519531 39.128906 39.128906 39.128906l17.390625-39.128906-17.390625-39.128907c-21.609375 0-39.128906 17.515625-39.128906 39.128907zm0 0" fill="#fde0ae"/><path d="m177.738281 308.175781v78.257813c21.613281 0 39.128907-17.519532 39.128907-39.128906 0-21.609376-17.515626-39.128907-39.128907-39.128907zm0 0" fill="#fac15c"/><path d="m177.738281 366.871094c-10.789062 0-19.5625-8.777344-19.5625-19.566406 0-10.789063 8.773438-19.566407 19.5625-19.566407 10.789063 0 19.566407 8.777344 19.566407 19.566407 0 10.789062-8.777344 19.566406-19.566407 19.566406zm0 0" fill="#fff"/><path d="m363.609375 106h19.566406v75h-19.566406zm0 0" fill="#fb8454"/><path d="m285.347656 106h19.566406v48.914062h-19.566406zm0 0" fill="#fac15c"/><path d="m324.476562 125.566406h19.566407v29.347656h-19.566407zm0 0" fill="#fb8454"/><path d="m128.824219 106h19.566406v68.476562h-19.566406zm0 0" fill="#fac15c"/><path d="m392.957031 229.914062v78.261719c0 32.417969-26.277343 58.695313-58.695312 58.695313l-26.085938-58.042969 26.085938-59.347656c10.804687 0 19.5625-8.761719 19.5625-19.566407 0-10.804687 8.761719-19.566406 19.566406-19.566406s19.566406 8.757813 19.566406 19.566406zm0 0" fill="#fd5575"/><path d="m334.261719 249.476562v117.394532c-32.421875 0-58.695313-26.277344-58.695313-58.695313v-104.351562c0-10.804688 8.757813-19.5625 19.5625-19.5625 10.808594 0 19.566406 8.757812 19.566406 19.5625v26.089843c0 10.804688 8.757813 19.5625 19.566407 19.5625zm0 0" fill="#fb8454"/><path d="m295.128906 308.175781c0 21.609375 17.519532 39.128907 39.132813 39.128907l17.390625-39.128907-17.390625-39.132812c-21.613281 0-39.132813 17.519531-39.132813 39.132812zm0 0" fill="#fde0ae"/><path d="m334.261719 269.042969v78.261719c21.609375 0 39.128906-17.519532 39.128906-39.128907 0-21.613281-17.519531-39.132812-39.128906-39.132812zm0 0" fill="#fac15c"/><path d="m334.261719 327.738281c10.789062 0 19.5625-8.777343 19.5625-19.5625 0-10.789062-8.773438-19.566406-19.5625-19.566406-10.789063 0-19.566407 8.777344-19.566407 19.566406 0 10.785157 8.777344 19.5625 19.566407 19.5625zm0 0" fill="#fff"/></svg>