<svg height="512pt" viewBox="0 0 512 512" width="512pt" xmlns="http://www.w3.org/2000/svg"><path d="m512 256c0 141.386719-114.613281 256-256 256s-256-114.613281-256-256 114.613281-256 256-256 256 114.613281 256 256zm0 0" fill="#fac15c"/><path d="m506.074219 310.921875-152-151.996094-236.074219 235.074219 117.152344 117.152344c6.875.554687 13.828125.847656 20.847656.847656 122.53125 0 224.933594-86.089844 250.074219-201.078125zm0 0" fill="#fb8454"/><path d="m274 232.734375v101.265625l120-12v-66zm0 0" fill="#4a8ec6"/><path d="m394 322v36l-120 12v-48zm0 0" fill="#134a79"/><path d="m256 118c-38.113281 0-72.613281 15.445312-97.585938 40.414062l.027344.027344 157.558594 97.558594h78c0-76.21875-61.78125-138-138-138zm0 0" fill="#77aad4"/><path d="m272.648438 229.125c-12.261719-24.582031-32.226563-44.648438-56.738282-57.035156l-24.890625 7.570312 3.515625-16.042968c-11.445312-3.371094-23.558594-5.175782-36.097656-5.175782l-.023438-.027344c-24.96875 24.972657-40.414062 59.472657-40.414062 97.585938v102l168 12v-84zm0 0" fill="#d2e3f1"/><path d="m163 256c0-36.933594 21.644531-68.90625 52.910156-83.90625-6.796875-3.4375-13.945312-6.285156-21.375-8.476562-29.839844 19.917968-49.535156 53.894531-49.535156 92.382812zm0 0" fill="#fff"/><path d="m145 274h18v57h-18zm0 0" fill="#fff"/><path d="m250 256c0 19.882812 16.117188 36 36 36l16-36-16-36c-19.882812 0-36 16.117188-36 36zm0 0" fill="#1d71b8"/><path d="m320.535156 208.730469 12.730469 12.726562-19.6875 19.6875-12.730469-12.726562zm0 0" fill="#1d71b8"/><path d="m286 220v72c19.882812 0 36-16.117188 36-36s-16.117188-36-36-36zm0 0" fill="#134a79"/><path d="m394 358v36h-138l-18-18 18-18zm0 0" fill="#4a8ec6"/><path d="m118 358h138v36h-138zm0 0" fill="#77aad4"/></svg>