<svg height="512pt" viewBox="0 0 512 512" width="512pt" xmlns="http://www.w3.org/2000/svg"><path d="m512 256c0 141.386719-114.613281 256-256 256s-256-114.613281-256-256 114.613281-256 256-256 256 114.613281 256 256zm0 0" fill="#fac15c"/><path d="m503.734375 320.734375-136.734375-136.734375-6.238281 2.738281-42.328125-42.320312-173.433594 81.582031 33 32.175781 19.332031 41.859375-79.332031 93.964844 117.152344 117.152344c6.875.554687 13.828125.847656 20.847656.847656 119.019531 0 219.0625-81.226562 247.734375-191.265625zm0 0" fill="#fb8454"/><path d="m394 318.035156v75.964844h-138l-24-93.964844h102zm0 0" fill="#77aad4"/><path d="m256 300.035156v93.964844h-138v-75.964844l60-18zm0 0" fill="#d2e3f1"/><path d="m145 184v42l34.277344 6v-54zm0 0" fill="#1d71b8"/><path d="m332.722656 178v54l34.277344-6v-42zm0 0" fill="#134a79"/><path d="m307 355v39h-51l-6.652344-19.5 6.652344-19.5zm0 0" fill="#134a79"/><path d="m205 355h51v39h-51zm0 0" fill="#1d71b8"/><path d="m334 243.566406v56.46875c-21.238281 17.464844-48.421875 27.964844-78 27.964844l-24-84.433594zm0 0" fill="#4a8ec6"/><path d="m256 243.566406v84.433594c-29.578125 0-56.761719-10.5-78-27.964844v-56.46875zm0 0" fill="#77aad4"/><path d="m169 205c0 48.050781 38.949219 87 87 87l38.667969-87-38.667969-87c-48.050781 0-87 38.949219-87 87zm0 0" fill="#4a8ec6"/><path d="m256 118v174c48.050781 0 87-38.949219 87-87s-38.949219-87-87-87zm0 0" fill="#1d71b8"/><path d="m187 205c0 38.109375 30.890625 69 69 69l30.667969-69-30.667969-69c-38.109375 0-69 30.890625-69 69zm0 0" fill="#fff"/><path d="m256 136v138c38.109375 0 69-30.890625 69-69s-30.890625-69-69-69zm0 0" fill="#d2e3f1"/><path d="m169 355h18v39h-18zm0 0" fill="#1d71b8"/><path d="m325 355h18v39h-18zm0 0" fill="#134a79"/></svg>