<svg height="512pt" viewBox="0 0 512 512" width="512pt" xmlns="http://www.w3.org/2000/svg"><path d="m512 256c0 141.386719-114.613281 256-256 256s-256-114.613281-256-256 114.613281-256 256-256 256 114.613281 256 256zm0 0" fill="#ff2796"/><path d="m511.425781 272.960938-100.925781-100.929688-114.195312 20.253906c-.160157-.160156-78.492188-78.46875-78.492188-78.46875l-56.972656 56.976563s11.195312 11.210937 11.300781 11.316406l-70.640625 120.914063 52.359375 51.773437-18.773437 55.703125 100.710937 100.707031c6.664063.523438 13.402344.792969 20.203125.792969 135.683594 0 246.695312-105.566406 255.425781-239.039062zm0 0" fill="#b440a1"/><path d="m410.5 208.976562v36.949219h-94.042969l-6.71875-50.382812zm0 0" fill="#f9b233"/><path d="m410.5 172.03125v36.945312h-100.761719l6.71875-36.945312zm0 0" fill="#fac15c"/><path d="m296.304688 172.03125h20.152343v238.46875h-20.152343zm0 0" fill="#134a79"/><path d="m242.566406 356.761719v53.738281h-53.742187l-13.433594-67.175781zm0 0" fill="#134a79"/><path d="m188.824219 343.324219v67.175781h-53.738281v-53.738281zm0 0" fill="#1d71b8"/><path d="m242.566406 303.023438v53.738281h-53.742187l-13.433594-67.175781zm0 0" fill="#77aad4"/><path d="m188.824219 289.585938v67.175781h-53.738281v-53.738281zm0 0" fill="#a4c6e2"/><path d="m148.523438 195.542969-13.4375 107.476562h-33.585938v-87.324219c0-18.472656 15.113281-33.585937 33.585938-33.585937zm0 0" fill="#a4c6e2"/><path d="m276.152344 215.695312v87.328126h-33.585938l-13.4375-107.480469 13.4375-13.433594c18.472656 0 33.585938 15.113281 33.585938 33.585937zm0 0" fill="#77aad4"/><path d="m135.085938 182.109375h107.480468v120.914063h-107.480468zm0 0" fill="#d2e3f1"/><path d="m148.523438 141.804688c0 22.257812 18.042968 40.304687 40.300781 40.304687l17.914062-40.304687-17.914062-40.304688c-22.257813 0-40.300781 18.046875-40.300781 40.304688zm0 0" fill="#a4c6e2"/><path d="m188.824219 101.5v80.609375c22.261719 0 40.304687-18.046875 40.304687-40.304687 0-22.257813-18.042968-40.304688-40.304687-40.304688zm0 0" fill="#77aad4"/><path d="m155.238281 202.261719h67.175781v20.152343h-67.175781zm0 0" fill="#fff"/></svg>