<svg height="512pt" viewBox="0 0 512 512" width="512pt" xmlns="http://www.w3.org/2000/svg"><path d="m512 256c0 141.386719-114.613281 256-256 256s-256-114.613281-256-256 114.613281-256 256-256 256 114.613281 256 256zm0 0" fill="#fac15c"/><path d="m512 256c0-7.019531-.292969-13.972656-.847656-20.847656l-117.152344-117.152344-276 276 117.152344 117.152344c6.875.554687 13.828125.847656 20.847656.847656 141.386719 0 256-114.613281 256-256zm0 0" fill="#fb8454"/><path d="m394 256v138h-276v-138l138-36zm0 0" fill="#092339"/><path d="m118 118h276v138h-276zm0 0" fill="#134a79"/><g fill="#1d71b8"><path d="m162.855469 254.648438 15.304687 102.046874-17.800781 2.671876-15.304687-102.046876zm0 0"/><path d="m253 318.949219 5.992188 16.972656-86.746094 30.613281-5.988282-16.972656zm0 0"/><path d="m153.949219 247h117.359375v18h-117.359375zm0 0"/><path d="m277.824219 182.667969 17.597656 3.769531-30.609375 142.871094-17.601562-3.769532zm0 0"/><path d="m354.507812 145.660156 7.089844 16.542969-71.433594 30.613281-7.089843-16.542968zm0 0"/></g><path d="m187.257812 358.050781c0 9.941407-8.0625 18-18 18-9.941406 0-18-8.058593-18-18 0-9.941406 8.058594-18 18-18 9.9375 0 18 8.058594 18 18zm0 0" fill="#fde0ae"/><path d="m274 327.4375c0 9.941406-8.058594 18-18 18s-18-8.058594-18-18 8.058594-18 18-18 18 8.058594 18 18zm0 0" fill="#f9b233"/><path d="m304.617188 184.5625c0 9.941406-8.058594 18-18 18-9.941407 0-18-8.058594-18-18s8.058593-18 18-18c9.941406 0 18 8.058594 18 18zm0 0" fill="#f9b233"/><path d="m376.050781 153.949219c0 9.941406-8.058593 18-18 18-9.941406 0-18-8.058594-18-18 0-9.941407 8.058594-18 18-18 9.941407 0 18 8.058593 18 18zm0 0" fill="#f9b233"/><path d="m171.949219 256c0 9.941406-8.058594 18-18 18-9.941407 0-18-8.058594-18-18s8.058593-18 18-18c9.941406 0 18 8.058594 18 18zm0 0" fill="#fde0ae"/><path d="m289.308594 256c0 9.941406-8.058594 18-18 18s-18-8.058594-18-18 8.058594-18 18-18 18 8.058594 18 18zm0 0" fill="#f9b233"/></svg>