<svg height="512pt" viewBox="0 0 512 512" width="512pt" xmlns="http://www.w3.org/2000/svg"><path d="m512 256c0 141.386719-114.613281 256-256 256s-256-114.613281-256-256 114.613281-256 256-256 256 114.613281 256 256zm0 0" fill="#b440a1"/><path d="m87 335.90625 175.992188 175.996094c122.242187-3.28125 223.097656-92.25 244.710937-209.019532l-170.878906-170.878906zm0 0" fill="#8e25c0"/><path d="m336.824219 176.09375v129.179688h-97.355469l-22.042969-151.222657zm0 0" fill="#fb8454"/><path d="m239.46875 154.050781v151.222657l-152.46875-13.453126v-42.25l110.21875-95.519531zm0 0" fill="#f9b233"/><path d="m391.933594 291.820312v44.085938h-152.464844l-19.890625-22.042969 19.890625-22.042969zm0 0" fill="#1d71b8"/><path d="m87 291.820312h152.46875v44.085938h-152.46875zm0 0" fill="#4a8ec6"/><path d="m336.824219 132.003906v44.089844h-161.648438l22.042969-44.089844zm0 0" fill="#1d71b8"/><path d="m197.21875 176.09375v73.476562h-110.21875v-29.390624c0-48.496094 39.679688-88.175782 88.175781-88.175782h22.042969zm0 0" fill="#d2e3f1"/><path d="m248.652344 346.929688c0 18.261718 14.804687 33.0625 33.066406 33.0625l14.695312-33.0625-14.695312-33.066407c-18.261719 0-33.066406 14.804688-33.066406 33.066407zm0 0" fill="#134a79"/><path d="m281.71875 313.863281v66.128907c18.257812 0 33.0625-14.800782 33.0625-33.0625 0-18.261719-14.800781-33.066407-33.0625-33.066407zm0 0" fill="#092339"/><path d="m358.871094 346.929688c0 18.261718 14.804687 33.0625 33.0625 33.0625l14.699218-33.0625-14.699218-33.066407c-18.261719 0-33.0625 14.804688-33.0625 33.066407zm0 0" fill="#134a79"/><path d="m391.933594 313.863281v66.128907c18.261718 0 33.066406-14.800782 33.066406-33.0625 0-18.261719-14.804688-33.066407-33.066406-33.066407zm0 0" fill="#092339"/><path d="m138.433594 346.929688c0 18.261718 14.804687 33.0625 33.066406 33.0625l14.695312-33.0625-14.695312-33.066407c-18.261719 0-33.066406 14.804688-33.066406 33.066407zm0 0" fill="#134a79"/><path d="m171.5 313.863281v66.128907c18.261719 0 33.066406-14.800782 33.066406-33.0625 0-18.261719-14.804687-33.066407-33.066406-33.066407zm0 0" fill="#092339"/></svg>