<svg height="512pt" viewBox="0 0 512 512" width="512pt" xmlns="http://www.w3.org/2000/svg"><path d="m512 256c0 141.386719-114.613281 256-256 256s-256-114.613281-256-256 114.613281-256 256-256 256 114.613281 256 256zm0 0" fill="#ff2796"/><path d="m512 256c0-23.589844-3.207031-46.425781-9.179688-68.113281l-76.382812-76.386719-340.875 133.386719 32 32-11.929688 104.546875 129.734376 129.738281c6.808593.542969 13.6875.828125 20.632812.828125 141.386719 0 256-114.613281 256-256zm0 0" fill="#b440a1"/><path d="m141.140625 230.0625h22.230469v44.464844h-22.230469zm0 0" fill="#1d71b8"/><path d="m348.628906 230.0625h22.230469v44.464844h-22.230469zm0 0" fill="#134a79"/><path d="m218.949219 111.5 22.230469 111.152344-155.617188-22.230469c0-48.90625 40.015625-88.921875 88.925781-88.921875zm0 0" fill="#d2e3f1"/><path d="m426.4375 111.5v88.921875l-207.488281 22.230469v-111.152344h62.988281l11.113281 7.410156 11.117188-7.410156h22.230469l11.113281 7.410156 11.117187-7.410156h22.230469l11.113281 7.410156 11.117188-7.410156zm0 0" fill="#f9b233"/><path d="m359.742188 267.113281c36.777343 0 66.695312 29.917969 66.695312 66.695313s-29.917969 66.691406-66.695312 66.691406h-103.742188l-33.347656-66.691406 33.347656-66.695313zm0 0" fill="#1d71b8"/><path d="m256 267.113281v133.386719h-103.742188c-36.777343 0-66.695312-29.914062-66.695312-66.691406s29.917969-66.691406 66.695312-66.691406h103.742188zm0 0" fill="#4a8ec6"/><path d="m118.910156 333.808594c0 18.417968 14.929688 33.34375 33.347656 33.34375l14.820313-33.34375-14.820313-33.347656c-18.417968 0-33.347656 14.929687-33.347656 33.347656zm0 0" fill="#1d71b8"/><path d="m152.257812 300.460938v66.691406c18.414063 0 33.34375-14.929688 33.34375-33.34375 0-18.417969-14.929687-33.347656-33.34375-33.347656zm0 0" fill="#134a79"/><path d="m222.652344 333.808594c0 18.417968 14.933594 33.34375 33.347656 33.34375l14.820312-33.34375-14.820312-33.347656c-18.417969 0-33.347656 14.929687-33.347656 33.347656zm0 0" fill="#1d71b8"/><path d="m256 300.460938v66.691406c18.417969 0 33.347656-14.929688 33.347656-33.34375 0-18.417969-14.929687-33.347656-33.347656-33.347656zm0 0" fill="#092339"/><path d="m326.398438 333.808594c0 18.417968 14.929687 33.34375 33.34375 33.34375l14.820312-33.34375-14.820312-33.347656c-18.414063 0-33.34375 14.929687-33.34375 33.347656zm0 0" fill="#134a79"/><path d="m359.742188 300.460938v66.691406c18.417968 0 33.347656-14.929688 33.347656-33.34375 0-18.417969-14.929688-33.347656-33.347656-33.347656zm0 0" fill="#092339"/><g fill="#fde0ae"><path d="m370.859375 111.5h22.230469v33.347656h-22.230469zm0 0"/><path d="m326.398438 111.5h22.230468v33.347656h-22.230468zm0 0"/><path d="m281.9375 111.5h22.230469v33.347656h-22.230469zm0 0"/></g><path d="m426.4375 200.421875v44.464844h-170.4375l-22.230469-22.234375 22.230469-22.230469zm0 0" fill="#092339"/><path d="m85.5625 200.421875h170.4375v44.464844h-170.4375zm0 0" fill="#134a79"/></svg>