<svg height="512pt" viewBox="0 0 512 512" width="512pt" xmlns="http://www.w3.org/2000/svg"><path d="m512 256c0 141.386719-114.613281 256-256 256s-256-114.613281-256-256 114.613281-256 256-256 256 114.613281 256 256zm0 0" fill="#1d71b8"/><path d="m512 256c0-7.460938-.339844-14.839844-.964844-22.136719l-116.277344-116.28125-276.84375 277.503907 115.949219 115.949218c7.296875.625 14.675781.964844 22.136719.964844 141.386719 0 256-114.613281 256-256zm0 0" fill="#134a79"/><path d="m450.347656 230.433594-219.914062-25.5625 25.566406 178.953125s67.152344 56.371093 67.152344 56.363281c55.578125-20.257812 99.40625-64.964844 118.476562-121.113281l-13.910156-12.363281 20.53125-12.363282c2.460938-12.402344 3.75-25.222656 3.75-38.347656 0-8.667969-.5625-17.195312-1.652344-25.566406zm0 0" fill="#fd5575"/><path d="m436.429688 179.304688-205.996094 25.566406 25.566406-76.695313 67.152344-56.363281c51 18.59375 92.117187 57.777344 113.277344 107.492188zm0 0" fill="#fb8454"/><path d="m188.847656 71.8125c-55.300781 20.15625-98.96875 64.519531-118.191406 120.273438l13.445312 12.78125-20.351562 12.785156c-2.460938 12.402344-3.75 25.222656-3.75 38.347656 0 8.683594.5625 17.238281 1.660156 25.625l.429688-.058594 13.488281 51.128906c21.152344 49.714844 62.269531 88.898438 113.269531 107.5 5.589844-32.023437 33.527344-56.371093 67.152344-56.371093v-255.648438c-33.628906 0-61.5625-24.347656-67.152344-56.363281zm0 0" fill="#f9b233"/><path d="m183.640625 281.566406c14.121094 0 25.566406 11.445313 25.566406 25.5625 0 14.121094-11.445312 25.566406-25.566406 25.566406h-108.0625c-6.835937-16.039062-11.582031-33.175781-13.917969-51.070312l.429688-.0625h121.550781zm0 0" fill="#fde0ae"/><path d="m450.347656 230.433594h-194.347656l-18.824219-25.5625 18.824219-25.566406h180.429688c6.835937 16.054687 11.582031 33.210937 13.917968 51.128906zm0 0" fill="#fac15c"/><g fill="#fde0ae"><path d="m256 179.304688v51.128906h-27.347656c-14.121094 0-25.5625-11.445313-25.5625-25.566406 0-14.121094 11.445312-25.5625 25.5625-25.5625zm0 0"/><path d="m323.152344 440.1875c-20.949219 7.644531-43.5625 11.8125-67.152344 11.8125l-17.042969-34.085938 17.042969-34.089843c33.628906 0 61.5625 24.347656 67.152344 56.363281zm0 0"/><path d="m323.152344 71.804688c-5.589844 32.023437-33.527344 56.371093-67.152344 56.371093l-17.042969-34.089843 17.042969-34.085938c23.589844 0 46.203125 4.167969 67.152344 11.804688zm0 0"/></g><path d="m448.246094 294.347656h-98.425782v25.566406h91.519532c2.855468-8.285156 5.171875-16.820312 6.90625-25.566406zm0 0" fill="#fac15c"/><path d="m281.566406 294.347656h42.6875v25.566406h-42.6875zm0 0" fill="#fde0ae"/><path d="m63.753906 217.652344h100.984375v-25.566406h-94.078125c-2.855468 8.285156-5.171875 16.820312-6.90625 25.566406zm0 0" fill="#fff"/><path d="m256 383.824219v68.175781c-23.589844 0-46.203125-4.167969-67.152344-11.804688 5.589844-32.023437 33.523438-56.371093 67.152344-56.371093zm0 0" fill="#fff"/><path d="m256 60v68.175781c-33.628906 0-61.5625-24.347656-67.152344-56.363281 20.949219-7.644531 43.5625-11.8125 67.152344-11.8125zm0 0" fill="#fff"/></svg>