<svg height="512pt" viewBox="0 0 512 512" width="512pt" xmlns="http://www.w3.org/2000/svg"><path d="m512 256c0 141.386719-114.613281 256-256 256s-256-114.613281-256-256 114.613281-256 256-256 256 114.613281 256 256zm0 0" fill="#b440a1"/><path d="m298.523438 508.464844c121.140624-20.257813 213.476562-125.570313 213.476562-252.464844 0-4.757812-.140625-9.480469-.394531-14.171875l-153.5-153.496094-98.765625 20.265625 1.160156 113.152344-76.371094 172.320312zm0 0" fill="#8e25c0"/><path d="m357.566406 332.128906c-5.285156 51.425782-48.742187 91.535156-101.566406 91.535156l-14.585938-80.40625zm0 0" fill="#1d71b8"/><path d="m256 343.257812v80.410157c-34.914062 0-65.734375-17.527344-84.152344-44.265625.007813 0 84.152344-36.144532 84.152344-36.144532zm0 0" fill="#4a8ec6"/><path d="m358.105469 117.507812v29.171876h-96.269531l-5.835938-39.78125zm0 0" fill="#f9b233"/><path d="m358.105469 88.332031v29.175781h-102.105469l10.941406-29.175781zm0 0" fill="#fac15c"/><path d="m245.058594 88.335938h21.882812v152.996093h-21.882812zm0 0" fill="#134a79"/><path d="m358.105469 321.558594c0 3.566406-.179688 7.097656-.539063 10.570312-46.78125 3.511719-73.625 14.832032-101.566406 25.714844l-21.882812-55.78125 21.882812-82.609375c56.390625 0 102.105469 45.714844 102.105469 102.105469zm0 0" fill="#4a8ec6"/><path d="m256 219.453125v138.390625c-23.25 9.074219-47.261719 17.839844-84.144531 21.558594-11.332031-16.4375-17.964844-36.363282-17.964844-57.84375.003906-56.390625 45.71875-102.105469 102.109375-102.105469zm0 0" fill="#77aad4"/><g fill="#1d71b8"><path d="m234.121094 263.210938h21.878906v21.878906h-21.878906zm0 0"/><path d="m190.359375 299.675781h21.878906v21.882813h-21.878906zm0 0"/></g></svg>