<svg height="512pt" viewBox="0 0 512 512" width="512pt" xmlns="http://www.w3.org/2000/svg"><path d="m512 256c0 141.386719-114.613281 256-256 256s-256-114.613281-256-256 114.613281-256 256-256 256 114.613281 256 256zm0 0" fill="#fb8454"/><path d="m265.1875 511.816406c137.125-4.835937 246.8125-117.507812 246.8125-255.816406 0-6.179688-.230469-12.304688-.664062-18.375l-97.722657-97.722656-84.363281 36.378906-195 204.601562zm0 0" fill="#fd5575"/><path d="m98.386719 295.023438c0 66.675781 54.050781 120.726562 120.726562 120.726562l53.65625-120.726562-53.65625-120.730469c-66.675781 0-120.726562 54.054687-120.726562 120.730469zm0 0" fill="#1d71b8"/><path d="m219.113281 174.292969v241.457031c66.675781 0 120.726563-54.050781 120.726563-120.726562 0-66.675782-54.050782-120.730469-120.726563-120.730469zm0 0" fill="#134a79"/><path d="m253.546875 241.761719 29.101563-29.101563 14.550781 14.550782-29.101563 29.105468zm0 0" fill="#092339"/><path d="m311.753906 183.558594 29.101563-29.101563 14.550781 14.550781-29.101562 29.101563zm0 0" fill="#134a79"/><path d="m282.652344 227.210938c12.054687 12.054687 31.601562 12.054687 43.65625 0l-12.128906-31.527344-31.527344-12.125c-12.054688 12.054687-12.054688 31.597656 0 43.652344zm0 0" fill="#a4c6e2"/><path d="m282.652344 183.558594 43.65625 43.652344c12.054687-12.054688 12.054687-31.597657 0-43.652344-12.054688-12.054688-31.601563-12.054688-43.65625 0zm0 0" fill="#d2e3f1"/><path d="m292.355469 261.164062-53.351563 53.355469-43.65625-43.652343 53.355469-53.355469zm0 0" fill="#f9b233"/><path d="m316.601562 149.605469 53.355469-53.355469 43.652344 43.65625-53.351563 53.351562zm0 0" fill="#fac15c"/></svg>