<svg height="512pt" viewBox="0 0 512 512" width="512pt" xmlns="http://www.w3.org/2000/svg"><path d="m512 256c0 141.386719-114.613281 256-256 256s-256-114.613281-256-256 114.613281-256 256-256 256 114.613281 256 256zm0 0" fill="#fac15c"/><path d="m512 256c0-7.460938-.339844-14.839844-.964844-22.136719l-116.277344-116.28125-276.84375 277.503907 115.949219 115.949218c7.296875.625 14.675781.964844 22.136719.964844 141.386719 0 256-114.613281 256-256zm0 0" fill="#fb8454"/><path d="m392.347656 256c0-196-187.476562-189.25-187.476562-189.25-62.832032 16.914062-113.171875 64.300781-134.214844 125.335938l12.070312 16.867187-18.976562 8.695313c-2.460938 12.40625-3.75 25.226562-3.75 38.351562 0 42.988281 13.839844 82.742188 37.300781 115.050781l37.441407 14.796875-15.289063 10.765625c23.539063 22.859375 52.792969 39.859375 85.417969 48.644531 0 0 187.476562 6.742188 187.476562-189.257812zm0 0" fill="#1d71b8"/><path d="m368.554688 319.914062h-112.476563l-25.5625-12.785156 25.5625-12.78125h112.476563zm0 0" fill="#4a8ec6"/><path d="m192.085938 294.347656h63.992187v25.566406h-63.992187zm0 0" fill="#77aad4"/><path d="m256.078125 243.21875h119.226563v25.5625h-119.226563zm0 0" fill="#4a8ec6"/><path d="m115.390625 294.347656h51.128906v25.566406h-51.128906zm0 0" fill="#a4c6e2"/><path d="m119.453125 396.609375h102.539063v-25.566406h-124.683594c6.640625 9.148437 14.050781 17.707031 22.144531 25.566406zm0 0" fill="#77aad4"/><path d="m63.757812 217.652344h115.546876v-25.566406h-108.640626c-2.855468 8.285156-5.171874 16.820312-6.90625 25.566406zm0 0" fill="#a4c6e2"/><path d="m204.871094 192.085938h25.5625v25.566406h-25.5625zm0 0" fill="#77aad4"/><path d="m256 60c-17.691406 0-34.828125 2.359375-51.128906 6.753906 83.449218 22.488282 144.867187 98.6875 144.867187 189.246094s-61.417969 166.757812-144.867187 189.25c16.300781 4.390625 33.4375 6.75 51.128906 6.75 108.246094 0 196-87.753906 196-196s-87.753906-196-196-196zm0 0" fill="#134a79"/></svg>