<svg height="512pt" viewBox="0 0 512 512" width="512pt" xmlns="http://www.w3.org/2000/svg"><path d="m512 256c0 141.386719-114.613281 256-256 256s-256-114.613281-256-256 114.613281-256 256-256 256 114.613281 256 256zm0 0" fill="#ff2796"/><path d="m331.46875 181.652344 164.273438 164.273437c10.5-27.980469 16.257812-58.277343 16.257812-89.925781 0-7.792969-.367188-15.5-1.050781-23.117188l-115.417969-115.414062zm0 0" fill="#b440a1"/><path d="m138.605469 374.964844 136.335937 136.335937c86.648438-6.335937 161.316406-55.800781 202.636719-127.019531l-174.285156-174.285156zm0 0" fill="#b440a1"/><path d="m114.453125 242.742188.4375 98.980468c18.710937 39.382813 58.84375 66.609375 105.34375 66.609375l13.246094-116.566406-13.246094-116.570313c-46.867187 0-87.261719 27.664063-105.78125 67.546876zm0 0" fill="#4a8ec6"/><path d="m316.160156 225.53125c-21.035156-30.410156-56.148437-50.335938-95.925781-50.335938v233.136719l112.714844-86.761719c1.695312-6.425781 2.855469-13.0625 3.429687-19.871093zm0 0" fill="#1d71b8"/><path d="m362.964844 103.667969c-8.265625 0-16.003906 2.21875-22.675782 6.078125v78.578125c6.671876 3.859375 14.410157 6.082031 22.675782 6.082031 25.054687 0 45.367187-20.3125 45.367187-45.371094 0-25.054687-20.3125-45.367187-45.367187-45.367187zm0 0" fill="#fac15c"/><path d="m362.964844 149.035156c0-16.789062-9.121094-31.445312-22.675782-39.289062-13.5625 7.84375-22.695312 22.496094-22.695312 39.289062 0 16.792969 9.132812 31.445313 22.695312 39.289063 13.554688-7.84375 22.675782-22.5 22.675782-39.289063zm0 0" fill="#134a79"/><path d="m185.257812 262.609375-.027343-19.871094-29.789063.046875v-.046875h-40.988281c-6.917969 14.90625-10.789063 31.511719-10.789063 49.027344 0 17.878906 4.03125 34.816406 11.226563 49.957031h40.546875v-79.066406zm0 0" fill="#f9b233"/><path d="m336.378906 301.699219c.273438-3.273438.425782-6.585938.425782-9.933594 0-24.605469-7.628907-47.421875-20.644532-66.234375h-60.015625v19.871094h-35.910156v56.296875h48.351563v19.871093h-48.351563v86.765626c54.078125 0 99.546875-36.828126 112.714844-86.765626h-44.496094v-19.871093zm0 0" fill="#fb8454"/></svg>