<svg height="512pt" viewBox="0 0 512 512" width="512pt" xmlns="http://www.w3.org/2000/svg"><path d="m512 256c0 141.386719-114.613281 256-256 256s-256-114.613281-256-256 114.613281-256 256-256 256 114.613281 256 256zm0 0" fill="#fb8454"/><path d="m510.707031 281.859375-138.53125-138.535156-25.652343 25.597656 3.261718 3.273437 6.429688 34.839844-78.332032-78.328125-52.136718 66.261719-6.050782 1.582031-53.246093-53.222656-25.648438 25.589844 3.261719 3.277343 12.042969 63.15625 63.589843 63.609376 1.804688 9.164062-74.414062 71.386719-27.226563 18.152343 113.308594 113.308594c7.523437.667969 15.136719 1.027344 22.832031 1.027344 132.65625 0 241.742188-100.902344 254.707031-230.140625zm0 0" fill="#fd5575"/><path d="m213.644531 306.90625c-21.683593 0-39.328125 17.644531-39.328125 39.328125v12.101563l18.152344-12.101563c0-11.675781 9.5-21.175781 21.175781-21.175781h6.050781l18.152344-18.152344zm0 0" fill="#1d71b8"/><path d="m298.355469 306.90625h-24.203125l18.152344 18.152344h6.050781c11.675781 0 21.175781 9.5 21.175781 21.175781l18.152344 12.101563v-12.101563c0-21.683594-17.644532-39.328125-39.328125-39.328125zm0 0" fill="#134a79"/><path d="m147.085938 346.234375v33.28125h-27.226563v18.152344h72.609375v-51.433594zm0 0" fill="#134a79"/><path d="m364.914062 379.515625v-33.28125h-45.382812v51.433594h72.609375v-18.152344zm0 0" fill="#092339"/><path d="m183.390625 228.246094c-11.675781 0-21.175781-9.5-21.175781-21.179688v-45.378906h-18.152344v45.378906c0 21.6875 17.640625 39.332032 39.328125 39.332032h72.609375v-18.152344zm0 0" fill="#1d71b8"/><path d="m349.785156 161.6875v45.378906c0 11.679688-9.5 21.179688-21.175781 21.179688h-72.609375v18.152344h72.609375c21.6875 0 39.328125-17.644532 39.328125-39.332032v-45.378906zm0 0" fill="#134a79"/><path d="m219.695312 276.652344v48.40625h36.304688l12.101562-48.40625zm0 0" fill="#134a79"/><path d="m256 276.652344h36.304688v48.40625h-36.304688zm0 0" fill="#092339"/><path d="m225.746094 149.585938v57.484374h42.355468l-12.101562-87.738281c-16.710938 0-30.253906 13.546875-30.253906 30.253907zm0 0" fill="#d2e3f1"/><path d="m286.253906 149.585938c0-16.707032-13.542968-30.253907-30.253906-30.253907v87.738281h30.253906zm0 0" fill="#77aad4"/><path d="m219.695312 194.96875v48.402344h48.40625l-12.101562-48.402344zm0 0" fill="#134a79"/><path d="m256 194.96875h36.304688v48.402344h-36.304688zm0 0" fill="#092339"/><path d="m210.621094 228.246094v60.507812h45.378906l12.101562-30.253906-12.101562-30.253906zm0 0" fill="#77aad4"/><path d="m256 228.246094h45.378906v60.507812h-45.378906zm0 0" fill="#1d71b8"/><path d="m171.289062 155.636719c0 10.027343-8.125 18.152343-18.152343 18.152343-10.023438 0-18.152344-8.125-18.152344-18.152343 0-10.023438 8.128906-18.152344 18.152344-18.152344 10.027343 0 18.152343 8.128906 18.152343 18.152344zm0 0" fill="#fac15c"/><path d="m377.015625 155.636719c0 10.027343-8.128906 18.152343-18.152344 18.152343-10.027343 0-18.152343-8.125-18.152343-18.152343 0-10.023438 8.125-18.152344 18.152343-18.152344 10.023438 0 18.152344 8.128906 18.152344 18.152344zm0 0" fill="#f9b233"/></svg>