<svg height="512pt" viewBox="0 0 512 512" width="512pt" xmlns="http://www.w3.org/2000/svg"><path d="m512 256c0 141.386719-114.613281 256-256 256s-256-114.613281-256-256 114.613281-256 256-256 256 114.613281 256 256zm0 0" fill="#fb8454"/><path d="m256.027344 512c53.304687-.007812 102.796875-16.308594 143.78125-44.1875l-197.773438-197.773438-68.414062 68.414063 13.570312 13.570313-13.570312 37.570312zm0 0" fill="#fd5575"/><path d="m209.214844 251.648438 205.34375 205.34375c59.347656-46.882813 97.441406-119.488282 97.441406-200.992188 0-7.464844-.339844-14.847656-.964844-22.148438l-116.441406-116.445312zm0 0" fill="#fd5575"/><path d="m190.039062 258.039062 12.78125 12.78125-68.414062 68.414063-12.78125-12.78125zm0 0" fill="#fac15c"/><path d="m215.605469 283.605469 12.785156 12.785156-93.984375 93.984375-12.785156-12.785156zm0 0" fill="#f9b233"/><path d="m241.175781 309.175781 12.785157 12.785157-68.414063 68.414062-12.785156-12.785156zm0 0" fill="#f9b233"/><path d="m279.53125 181.332031-70.589844 18.902344-25.570312 25.570313 25.84375 25.84375 43.679687-26.636719zm0 0" fill="#134a79"/><path d="m330.667969 232.46875-43.679688 26.636719-26.636719 43.679687 25.84375 25.84375 25.570313-25.570312zm0 0" fill="#092339"/><path d="m326.40625 134.453125-91.625 91.625 25.570312 42.617187 108.671876-108.671874zm0 0" fill="#d2e3f1"/><path d="m360.5 151.5-108.671875 108.671875 34.09375 17.046875 91.625-91.625zm0 0" fill="#77aad4"/><path d="m234.78125 226.078125-25.566406 25.570313 25.566406 25.570312 21.308594-4.265625 4.261718-21.304687zm0 0" fill="#1d71b8"/><path d="m234.777344 277.214844 25.570312-25.566406 25.570313 25.566406-25.570313 25.570312zm0 0" fill="#134a79"/><path d="m313.621094 185.59375 12.78125-12.785156 12.785156 12.785156-12.785156 12.785156zm0 0" fill="#fff"/><path d="m394.59375 117.40625-68.1875 17.046875 25.570312 25.570313h17.046876zm0 0" fill="#f9b233"/><path d="m377.546875 185.59375 17.046875-68.1875-42.617188 42.617188zm0 0" fill="#fb8454"/></svg>