<svg height="512pt" viewBox="0 0 512 512" width="512pt" xmlns="http://www.w3.org/2000/svg"><path d="m512 256c0 141.386719-114.613281 256-256 256s-256-114.613281-256-256 114.613281-256 256-256 256 114.613281 256 256zm0 0" fill="#ff2796"/><path d="m502.539062 325.148438-220.445312-220.449219-77.679688 152.347656-10.644531-10.625-33.574219 179.078125 86.308594 86.308594c3.152344.113281 6.316406.191406 9.496094.191406 117.421875 0 216.371094-79.058594 246.539062-186.851562zm0 0" fill="#b440a1"/><path d="m182.304688 425.5h-22.109376v-32.425781l22.109376-14.738281zm0 0" fill="#134a79"/><path d="m204.414062 272.703125c0-15.300781-9.074218-28.476563-22.109374-34.390625-13.039063 5.914062-22.109376 19.089844-22.109376 34.390625v120.371094h44.214844v-120.371094zm0 0" fill="#fac15c"/><path d="m226.523438 425.5h-22.109376v-32.425781l22.109376-14.738281zm0 0" fill="#134a79"/><path d="m307.585938 425.5h-22.109376v-47.164062l22.109376 14.738281zm0 0" fill="#092339"/><path d="m351.804688 425.5h-22.109376v-47.164062l22.109376 14.738281zm0 0" fill="#092339"/><path d="m329.695312 238.3125c-13.035156 5.914062-22.109374 19.089844-22.109374 34.390625v120.371094h44.21875v-120.371094c0-15.300781-9.074219-28.476563-22.109376-34.390625zm0 0" fill="#f9b233"/><path d="m270.738281 152.007812-66.324219 14.738282v182.109375l66.324219 14.742187zm0 0" fill="#a4c6e2"/><path d="m256 152.007812v211.589844l51.585938-14.742187v-182.109375zm0 0" fill="#77aad4"/><path d="m256 86.5c-30.417969 13.804688-51.585938 44.542969-51.585938 80.246094h51.585938l14.738281-40.125zm0 0" fill="#d2e3f1"/><path d="m204.414062 348.855469v44.21875h51.585938l14.738281-22.109375-14.738281-22.109375zm0 0" fill="#1d71b8"/><path d="m256 348.855469h51.585938v44.21875h-51.585938zm0 0" fill="#134a79"/><path d="m307.585938 166.746094c0-35.707032-21.167969-66.445313-51.585938-80.246094v80.246094zm0 0" fill="#a4c6e2"/><path d="m204.414062 261.648438v22.109374h51.585938l7.371094-11.054687-7.371094-11.054687zm0 0" fill="#d2e3f1"/><path d="m256 261.648438h51.585938v22.109374h-51.585938zm0 0" fill="#a4c6e2"/></svg>