<svg height="512pt" viewBox="0 0 512 512" width="512pt" xmlns="http://www.w3.org/2000/svg"><path d="m512 256c0 141.386719-114.613281 256-256 256s-256-114.613281-256-256 114.613281-256 256-256 256 114.613281 256 256zm0 0" fill="#fb8454"/><path d="m493.265625 352.265625-192.265625-192.265625-90 150 48.273438 48 4.925781 8.296875-18.257813-18.242187-127.941406 45.945312 117.152344 117.152344c6.875.554687 13.828125.847656 20.847656.847656 107.332031 0 199.21875-66.0625 237.265625-159.734375zm0 0" fill="#fd5575"/><path d="m211 160 57 12-12-54zm0 0" fill="#fac15c"/><path d="m256 118v54l45-12zm0 0" fill="#f9b233"/><path d="m211 283h18v27h-18zm0 0" fill="#134a79"/><path d="m283 283h18v27h-18zm0 0" fill="#092339"/><path d="m211 160v123h45l12-61.5-12-61.5zm0 0" fill="#77aad4"/><path d="m256 160h45v123h-45zm0 0" fill="#1d71b8"/><path d="m247 256h18v54h-18zm0 0" fill="#134a79"/><path d="m247 187h18v51h-18zm0 0" fill="#fff"/><path d="m169 320.109375c-28.167969 0-51 22.832031-51 51v22.890625h66l24.523438-55.121094c-9.351563-11.453125-23.582032-18.769531-39.523438-18.769531zm0 0" fill="#d2e3f1"/><path d="m343 320.109375c-15.941406 0-30.171875 7.316406-39.523438 18.769531l24.523438 55.121094h66v-22.890625c0-28.167969-22.832031-51-51-51zm0 0" fill="#a4c6e2"/><path d="m220 337c-19.882812 0-36 16.117188-36 36v21h72l12-10.5-12-10.5c0-19.882812-16.117188-36-36-36zm0 0" fill="#a4c6e2"/><path d="m292 337c-19.882812 0-36 16.117188-36 36v21h72v-21c0-19.882812-16.117188-36-36-36zm0 0" fill="#77aad4"/></svg>