<svg height="512pt" viewBox="0 0 512 512" width="512pt" xmlns="http://www.w3.org/2000/svg"><path d="m512 256c0 141.386719-114.613281 256-256 256s-256-114.613281-256-256 114.613281-256 256-256 256 114.613281 256 256zm0 0" fill="#b440a1"/><path d="m499.804688 334.234375-243.804688-255.234375-76.957031 292.433594 24.78125 24 4.824219 22.917968-37.300782 14.648438 78.925782 78.925781c1.90625.042969 3.8125.074219 5.726562.074219 114.097656 0 210.742188-74.648438 243.804688-177.765625zm0 0" fill="#8e25c0"/><path d="m263.695312 356.042969-53.871093 15.390625-12.503907 50.023437h66.375zm0 0" fill="#134a79"/><path d="m256 421.457031h58.679688l-12.503907-50.023437-46.175781-15.390625zm0 0" fill="#092339"/><path d="m256 79-76.957031 89.78125 92.347656 15.394531zm0 0" fill="#fac15c"/><path d="m332.957031 168.78125-76.957031-89.78125v105.175781zm0 0" fill="#f9b233"/><path d="m179.042969 214.957031v46.171875l15.390625 34.632813-15.390625 34.628906v41.042969h76.957031l15.390625-171.867188zm0 0" fill="#a4c6e2"/><path d="m256 199.566406v171.867188h76.957031v-156.476563zm0 0" fill="#77aad4"/><path d="m256 168.78125h-76.957031v46.175781h76.957031l15.390625-23.089843zm0 0" fill="#77aad4"/><path d="m256 168.78125h76.957031v46.175781h-76.957031zm0 0" fill="#1d71b8"/><path d="m171.347656 409.914062v23.085938h84.652344l13.542969-11.542969-13.542969-11.542969zm0 0" fill="#092339"/><path d="m256 409.914062h84.652344v23.085938h-84.652344zm0 0" fill="#092339"/><path d="m256 295.761719c0-19.125-15.503906-34.628907-34.628906-34.628907h-42.328125v69.257813h42.328125c19.125 0 34.628906-15.503906 34.628906-34.628906zm0 0" fill="#4a8ec6"/></svg>