<svg height="512pt" viewBox="0 0 512 512" width="512pt" xmlns="http://www.w3.org/2000/svg"><path d="m512 256c0 141.386719-114.613281 256-256 256s-256-114.613281-256-256 114.613281-256 256-256 256 114.613281 256 256zm0 0" fill="#ff2796"/><path d="m290.445312 509.6875c125.09375-16.828125 221.554688-123.984375 221.554688-253.6875 0-7.371094-.328125-14.664062-.941406-21.878906l-110.351563-110.351563-215.988281 172.53125-19.609375 88.050781zm0 0" fill="#b440a1"/><path d="m161.433594 327.28125-34.324219 19.070312 19.269531 19.269532 26.699219-26.699219zm0 0" fill="#134a79"/><path d="m184.71875 350.566406-11.640625-11.644531-26.699219 26.699219 19.269532 19.265625zm0 0" fill="#092339"/><path d="m208.421875 253.675781-21.828125 38.464844-38.464844 21.832031-24.953125-24.949218 12.476563-12.476563zm0 0" fill="#1d71b8"/><path d="m374.757812 137.242188-53.226562 13.304687 19.960938 36.59375zm0 0" fill="#d2e3f1"/><path d="m361.449219 190.46875 13.308593-53.226562-33.265624 33.265624zm0 0" fill="#a4c6e2"/><path d="m333.175781 195.460938-36.59375-19.960938-63.207031 53.226562 24.949219 41.582032zm0 0" fill="#a4c6e2"/><path d="m250.007812 261.992188 33.265626 16.632812 53.226562-63.207031-11.640625-28.277344zm0 0" fill="#77aad4"/><path d="m258.324219 303.574219-38.464844 21.832031-21.832031 38.464844 24.949218 24.953125 12.476563-12.476563zm0 0" fill="#092339"/><path d="m341.492188 170.507812-19.960938-19.960937-24.949219 24.953125 19.957031 19.960938 20.792969-4.160157zm0 0" fill="#77aad4"/><path d="m336.5 215.421875-19.957031-19.960937 24.949219-24.949219 19.960937 19.960937zm0 0" fill="#1d71b8"/><path d="m208.421875 253.675781-60.292969 60.296875 24.949219 24.949219 76.929687-60.296875zm0 0" fill="#a4c6e2"/><path d="m241.691406 270.308594-68.613281 68.613281 24.949219 24.949219 60.296875-60.296875zm0 0" fill="#77aad4"/><path d="m258.324219 253.675781-24.949219-24.949219-24.953125 24.949219 24.953125 24.949219 20.789062-4.15625zm0 0" fill="#77aad4"/><path d="m283.277344 278.625-24.949219 24.949219-24.949219-24.949219 24.949219-24.949219zm0 0" fill="#1d71b8"/><path d="m358.121094 141.402344 30.105468-30.105469 12.476563 12.472656-30.105469 30.105469zm0 0" fill="#a4c6e2"/></svg>