<svg height="512pt" viewBox="0 0 512 512" width="512pt" xmlns="http://www.w3.org/2000/svg"><path d="m512 256c0 141.386719-114.613281 256-256 256s-256-114.613281-256-256 114.613281-256 256-256 256 114.613281 256 256zm0 0" fill="#ff2796"/><g fill="#b440a1"><path d="m502.363281 325.804688c6.277344-22.191407 9.636719-45.605469 9.636719-69.804688 0-7.511719-.34375-14.941406-.976562-22.285156l-116.367188-116.371094-65.910156-6.546875 31 30.972656-31 10.414063zm0 0"/><path d="m189.445312 335.910156 158.90625 158.910156c66.859376-25.875 120.136719-79 146.199219-145.761718l-159.128906-159.125-50.746094 50.742187-45.761719-45.703125-31.914062 14.527344-12.027344 29.410156 45.539063 45.933594zm0 0"/><path d="m152.183594 328.746094-10.414063 31-30.972656-31 6.550781 65.910156 116.367188 116.367188c7.34375.632812 14.773437.976562 22.285156.976562 24.199219 0 47.613281-3.359375 69.804688-9.636719zm0 0"/></g><path d="m270.648438 255.996094 48.820312 48.824218-14.648438 14.644532-48.820312-48.820313zm0 0" fill="#134a79"/><path d="m207.179688 192.527344 48.820312 48.824218-14.648438 14.644532-48.820312-48.820313zm0 0" fill="#1d71b8"/><path d="m207.179688 290.171875 14.644531 14.644531-31.734375 31.734375-14.644532-14.644531zm0 0" fill="#134a79"/><path d="m321.421875 175.929688 14.644531 14.644531-31.734375 31.734375-14.644531-14.644532zm0 0" fill="#092339"/><path d="m253.070312 210.105469-72.746093 72.746093 24.414062 24.410157 91.574219-63.675781zm0 0" fill="#77aad4"/><path d="m306.773438 205.226562-24.410157-24.414062-29.292969 29.292969 38.359376 38.363281zm0 0" fill="#1d71b8"/><path d="m204.738281 307.261719 24.410157 24.414062 72.746093-72.746093-7.324219-17.085938-17.089843-7.324219zm0 0" fill="#1d71b8"/><path d="m277.476562 234.519531 29.292969-29.292969 24.410157 24.410157-29.292969 29.292969zm0 0" fill="#134a79"/><path d="m317.027344 273.082031 97.773437 97.777344-43.9375 43.9375-97.773437-97.773437zm0 0" fill="#092339"/><path d="m194.972656 238.914062-97.773437-97.773437 43.9375-43.941406 97.773437 97.773437zm0 0" fill="#134a79"/><path d="m328.746094 110.796875v-20.714844c24.921875 0 48.328125 9.683594 65.910156 27.261719 17.578125 17.582031 27.257812 40.988281 27.261719 65.910156h-20.714844c0-19.390625-7.527344-37.59375-21.195313-51.261718-13.667968-13.667969-31.875-21.195313-51.261718-21.195313zm0 0" fill="#f9b233"/><path d="m328.746094 152.183594v-20.710938c13.832031 0 26.835937 5.386719 36.613281 15.167969 9.78125 9.78125 15.167969 22.78125 15.167969 36.613281h-20.710938c0-8.296875-3.234375-16.101562-9.101562-21.96875-5.867188-5.867187-13.671875-9.101562-21.96875-9.101562zm0 0" fill="#f9b233"/><path d="m117.34375 394.65625c-17.578125-17.582031-27.261719-40.988281-27.261719-65.910156h20.714844c0 19.386718 7.527344 37.59375 21.195313 51.261718 13.667968 13.667969 31.871093 21.195313 51.261718 21.195313v20.710937c-24.921875 0-48.328125-9.679687-65.910156-27.257812zm0 0" fill="#fac15c"/><path d="m146.640625 365.359375c-9.78125-9.777344-15.167969-22.78125-15.167969-36.613281h20.710938c0 8.296875 3.234375 16.101562 9.101562 21.96875 5.867188 5.867187 13.671875 9.101562 21.96875 9.101562v20.710938c-13.832031 0-26.835937-5.386719-36.613281-15.167969zm0 0" fill="#fac15c"/></svg>