<svg height="512pt" viewBox="0 0 512 512" width="512pt" xmlns="http://www.w3.org/2000/svg"><path d="m512 256c0 141.386719-114.613281 256-256 256s-256-114.613281-256-256 114.613281-256 256-256 256 114.613281 256 256zm0 0" fill="#ff2796"/><path d="m510.238281 286.023438-142.132812-142.128907-171.105469 163.132813-67.910156 91.171875 113.445312 113.449219c4.460938.230468 8.949219.351562 13.464844.351562 131.226562 0 239.371094-98.742188 254.238281-225.976562zm0 0" fill="#b440a1"/><path d="m286.574219 271.285156 56.191406 56.1875-15.289063 15.289063-56.1875-56.191407zm0 0" fill="#092339"/><path d="m184.523438 169.230469 56.1875 56.191406-15.285157 15.289063-56.191406-56.191407zm0 0" fill="#134a79"/><path d="m152.019531 344.691406 15.289063 15.285156-38.21875 38.21875-15.289063-15.285156zm0 0" fill="#fb8454"/><path d="m227.972656 268.738281 15.289063 15.285157-50.984375 50.984374-15.289063-15.289062zm0 0" fill="#134a79"/><path d="m322.246094 143.894531-22.933594 22.929688 33.125 33.121093 35.667969-56.050781c-12.664063-12.667969-33.195313-12.667969-45.859375 0zm0 0" fill="#134a79"/><path d="m368.105469 189.753906c12.667969-12.664062 12.664062-33.195312 0-45.859375l-45.859375 45.859375 22.929687 22.933594zm0 0" fill="#092339"/><path d="m98.402344 290.058594-8.152344 8.152344 61.769531 61.769531 31.59375-11.210938 18.855469-39.238281c-28.140625-28.136719-69.71875-34.617188-104.066406-19.472656zm0 0" fill="#fac15c"/><path d="m291.671875 138.796875-107.011719 107.011719 40.765625 40.765625 66.050781-40.960938 40.960938-66.050781zm0 0" fill="#77aad4"/><path d="m332.4375 179.558594 40.765625 40.765625-107.011719 107.011719-40.765625-40.765626zm0 0" fill="#4a8ec6"/><path d="m382.257812 321.109375-39.492187-39.492187-30.574219 30.574218 40.5625 60.945313zm0 0" fill="#1d71b8"/><path d="m312.191406 312.191406-30.574218 30.574219 39.492187 39.492187 41.835937-19.3125zm0 0" fill="#134a79"/><path d="m321.109375 382.257812 39.492187 39.492188 30.574219-30.574219-9.554687-29.9375-29.9375-9.554687zm0 0" fill="#092339"/><path d="m351.679688 351.683594 30.574218-30.574219 39.492188 39.492187-30.574219 30.574219zm0 0" fill="#134a79"/><path d="m190.890625 129.742188-39.492187-39.492188-30.574219 30.574219 40.5625 60.945312zm0 0" fill="#77aad4"/><path d="m120.824219 120.824219-30.574219 30.574219 39.492188 39.492187 41.835937-19.3125zm0 0" fill="#4a8ec6"/><path d="m160.316406 160.316406-30.574218 30.574219 39.492187 39.492187 30.574219-30.574218-9.554688-29.9375zm0 0" fill="#1d71b8"/><path d="m230.386719 169.234375-30.574219 30.574219-39.492188-39.492188 30.574219-30.574218zm0 0" fill="#4a8ec6"/><path d="m221.941406 413.597656c15.144532-34.347656 8.664063-75.925781-19.472656-104.066406l-50.449219 50.449219 61.765625 61.769531zm0 0" fill="#f9b233"/></svg>