<svg height="512pt" viewBox="0 0 512 512" width="512pt" xmlns="http://www.w3.org/2000/svg"><path d="m512 256c0 141.386719-114.613281 256-256 256s-256-114.613281-256-256 114.613281-256 256-256 256 114.613281 256 256zm0 0" fill="#ff2796"/><path d="m512 256c0-7.019531-.292969-13.972656-.847656-20.847656l-117.152344-117.152344-276 276 117.152344 117.152344c6.875.554687 13.828125.847656 20.847656.847656 141.386719 0 256-114.613281 256-256zm0 0" fill="#b440a1"/><path d="m394 256v138h-62.910156l-36-18-36 18h-51.089844l-36-18-36 18h-18v-138l138-24zm0 0" fill="#092339"/><path d="m118 118h276v138h-276zm0 0" fill="#134a79"/><g fill="#fac15c"><path d="m357.398438 136h18v18h-18zm0 0"/><path d="m136.601562 136h18v18h-18zm0 0"/><path d="m210.199219 136h18v18h-18zm0 0"/><path d="m283.800781 136h18v18h-18zm0 0"/><path d="m320.601562 172h18v18h-18zm0 0"/><path d="m173.398438 172h18v18h-18zm0 0"/></g><path d="m247 172h18v18h-18zm0 0" fill="#fde0ae"/><path d="m247 172h18v18h-18zm0 0" fill="#fac15c"/><path d="m227.09375 232.449219 12.726562 12.726562-36 36-12.726562-12.726562zm0 0" fill="#fff"/><path d="m350.179688 232.449219 12.726562 12.726562-35.996094 35.996094-12.726562-12.726563zm0 0" fill="#fff"/><path d="m280.175781 315.183594-21.085937 78.816406h72v-57.730469zm0 0" fill="#fb8454"/><path d="m157.089844 315.183594-21.089844 78.816406h72v-57.730469zm0 0" fill="#fb8454"/><path d="m208 264.273438 50.910156 50.910156c-14.058594 14.058594-32.484375 21.085937-50.910156 21.085937s-36.851562-7.027343-50.910156-21.085937l13.945312-37.945313zm0 0" fill="#fac15c"/><path d="m157.089844 213.359375 50.910156 50.914063-50.910156 50.910156c-28.121094-28.117188-28.121094-73.703125 0-101.824219zm0 0" fill="#fde0ae"/><path d="m331.089844 264.273438 50.910156 50.910156c-14.058594 14.058594-32.484375 21.085937-50.910156 21.085937-18.425782 0-36.851563-7.027343-50.910156-21.085937l13.949218-37.945313zm0 0" fill="#fac15c"/><path d="m280.179688 213.359375 50.910156 50.914063-50.910156 50.910156c-28.121094-28.117188-28.121094-73.703125 0-101.824219zm0 0" fill="#fde0ae"/></svg>