<svg height="512pt" viewBox="0 0 512 512" width="512pt" xmlns="http://www.w3.org/2000/svg"><path d="m512 256c0 141.386719-114.613281 256-256 256s-256-114.613281-256-256 114.613281-256 256-256 256 114.613281 256 256zm0 0" fill="#1d71b8"/><path d="m512 256c0-7.066406-.300781-14.058594-.859375-20.980469l-117.082031-117.078125-71.390625 10.722656-191 195.667969-13.726563 69.726563 117.078125 117.082031c6.921875.558594 13.914063.859375 20.980469.859375 141.386719 0 256-114.613281 256-256zm0 0" fill="#134a79"/><path d="m372.28125 110c-21.9375 0-50.757812 15.515625-71.074219 28.535156-14.660156 9.394532-29.878906 20.613282-45.207031 33.289063v23.453125c18.605469-16.230469 37.171875-30.359375 54.851562-41.691406 25.875-16.578126 47.691407-25.707032 61.429688-25.707032 4.269531 0 7.34375.910156 9.136719 2.703125h12.640625v-12.640625c-5.269532-5.269531-12.59375-7.941406-21.777344-7.941406zm0 0" fill="#f9b233"/><path d="m211.984375 211.984375c-35.761719 35.757813-65.453125 73.46875-83.609375 106.175781-20.160156 36.320313-23.765625 62.566406-10.433594 75.898438h12.640625v-12.640625c-5.003906-5.003907-4.492187-22.300781 13.425781-54.582031 17.371094-31.292969 46-67.59375 80.617188-102.210938 10.371094-10.371094 20.878906-20.191406 31.375-29.347656v-23.453125c-14.699219 12.15625-29.503906 25.648437-44.015625 40.160156zm0 0" fill="#fde0ae"/><path d="m256 172.570312c-46.074219 0-83.429688 37.351563-83.429688 83.429688 0 26.257812 12.132813 49.683594 31.09375 64.976562l15.421876 9.863282c11.128906 5.5 23.660156 8.589844 36.914062 8.589844l11.917969-83.429688zm0 0" fill="#fb8454"/><path d="m308.335938 191.023438-15.421876-9.863282c-11.128906-5.5-23.660156-8.589844-36.914062-8.589844v166.859376c46.074219 0 83.429688-37.351563 83.429688-83.429688 0-26.257812-12.132813-49.683594-31.09375-64.976562zm0 0" fill="#fd5575"/><path d="m220.183594 253.890625 12.640625 12.640625-18.960938 18.960938-12.640625-12.640626zm0 0" fill="#fac15c"/><path d="m232.824219 241.253906 12.640625 12.640625 10.535156-10.535156 5.960938-25.285156h-5.960938zm0 0" fill="#fac15c"/><path d="m292.910156 181.164062-36.910156 36.910157v25.285156l52.328125-52.332031c-4.738281-3.824219-9.90625-7.136719-15.417969-9.863282zm0 0" fill="#f9b233"/><path d="m203.671875 320.972656c4.738281 3.824219 9.90625 7.136719 15.417969 9.863282l36.910156-36.910157 5.960938-25.285156h-5.960938zm0 0" fill="#fac15c"/><path d="m262.320312 262.320312-6.320312 6.320313v25.285156l18.960938-18.964843zm0 0" fill="#f9b233"/><path d="m201.148438 358.414062c-25.875 16.578126-47.6875 25.707032-61.429688 25.707032-4.269531 0-7.34375-.910156-9.136719-2.703125l-12.640625 12.640625c5.265625 5.269531 12.59375 7.941406 21.777344 7.941406 21.9375 0 50.757812-15.515625 71.074219-28.535156 14.660156-9.394532 29.878906-20.613282 45.207031-33.289063l5.957031-23.453125h-5.957031c-18.605469 16.230469-37.171875 30.363282-54.851562 41.691406zm0 0" fill="#fde0ae"/><path d="m394.058594 117.941406-12.640625 12.640625c5.003906 5.003907 4.492187 22.300781-13.425781 54.582031-17.371094 31.292969-46 67.59375-80.617188 102.210938-10.371094 10.371094-20.878906 20.191406-31.375 29.347656v23.453125c14.699219-12.15625 29.503906-25.648437 44.015625-40.160156 35.761719-35.757813 65.453125-73.46875 83.609375-106.175781 20.160156-36.320313 23.765625-62.566406 10.433594-75.898438zm0 0" fill="#f9b233"/></svg>