<svg height="512pt" viewBox="0 0 512 512" width="512pt" xmlns="http://www.w3.org/2000/svg"><path d="m512 256c0 141.386719-114.613281 256-256 256s-256-114.613281-256-256 114.613281-256 256-256 256 114.613281 256 256zm0 0" fill="#fac15c"/><path d="m512 256c0-7.019531-.292969-13.972656-.847656-20.847656l-117.152344-117.152344-276 276 117.152344 117.152344c6.875.554687 13.828125.847656 20.847656.847656 141.386719 0 256-114.613281 256-256zm0 0" fill="#fb8454"/><path d="m394 256v138h-85.523438l-7.8125-6-19.8125 6h-162.851562v-22.210938l12-10.292968-12-10.28125v-95.214844l138.199219-30zm0 0" fill="#092339"/><path d="m394 118v138h-276v-95.214844l12-10.28125-12-10.292968v-22.210938h162.851562l19.8125 6 7.8125-6zm0 0" fill="#134a79"/><path d="m136 256c0 31.480469 25.519531 57 57 57l25.332031-57-25.332031-57c-31.480469 0-57 25.519531-57 57zm0 0" fill="#fac15c"/><path d="m193 199v114c31.480469 0 57-25.519531 57-57s-25.519531-57-57-57zm0 0" fill="#f9b233"/><path d="m266.21875 164.78125c-24.367188-24.363281-56.761719-37.78125-91.21875-37.78125-20.097656 0-39.488281 4.574219-57 13.210938v20.578124c16.671875-10.019531 36.175781-15.789062 57-15.789062 61.207031 0 111 49.792969 111 111h18c0-34.457031-13.417969-66.851562-37.78125-91.21875zm0 0" fill="#d2e3f1"/><path d="m286 256c0 61.207031-49.792969 111-111 111-20.824219 0-40.328125-5.769531-57-15.789062v20.578124c17.511719 8.636719 36.902344 13.210938 57 13.210938 34.457031 0 66.851562-13.417969 91.21875-37.78125 24.363281-24.367188 37.78125-56.761719 37.78125-91.21875zm0 0" fill="#a4c6e2"/><path d="m268 256c0 14.910156 12.089844 27 27 27l12-27-12-27c-14.910156 0-27 12.089844-27 27zm0 0" fill="#77aad4"/><path d="m295 229v54c14.910156 0 27-12.089844 27-27s-12.089844-27-27-27zm0 0" fill="#4a8ec6"/><path d="m310.765625 120.234375c-.757813-.753906-1.523437-1.492187-2.289063-2.234375h-27.625c41.40625 31.835938 68.148438 81.851562 68.148438 138h18c0-51.285156-19.972656-99.5-56.234375-135.765625zm0 0" fill="#d2e3f1"/><path d="m349 256c0 56.148438-26.742188 106.164062-68.152344 138h27.625c.765625-.742188 1.535156-1.480469 2.292969-2.234375 36.261719-36.265625 56.234375-84.480469 56.234375-135.765625zm0 0" fill="#a4c6e2"/><path d="m340 256c0 9.941406 8.058594 18 18 18l8-18-8-18c-9.941406 0-18 8.058594-18 18zm0 0" fill="#fb8454"/><path d="m358 238v36c9.941406 0 18-8.058594 18-18s-8.058594-18-18-18zm0 0" fill="#fd5575"/></svg>