<svg height="512pt" viewBox="0 0 512 512" width="512pt" xmlns="http://www.w3.org/2000/svg"><path d="m512 256c0 141.386719-114.613281 256-256 256s-256-114.613281-256-256 114.613281-256 256-256 256 114.613281 256 256zm0 0" fill="#ff2796"/><path d="m512 256c0-7.019531-.292969-13.972656-.847656-20.847656l-117.152344-117.152344-276 276 117.152344 117.152344c6.875.554687 13.828125.847656 20.847656.847656 141.386719 0 256-114.613281 256-256zm0 0" fill="#b440a1"/><path d="m394 256v138h-276v-18l30-144zm0 0" fill="#092339"/><path d="m394 118v138h-246l-30-120v-18zm0 0" fill="#134a79"/><path d="m118 136v240c66.273438 0 120-53.726562 120-120s-53.726562-120-120-120zm0 0" fill="#f9b233"/><path d="m340 256c0 9.941406 8.058594 18 18 18l8-18-8-18c-9.941406 0-18 8.058594-18 18zm0 0" fill="#fb8454"/><path d="m358 238v36c9.941406 0 18-8.058594 18-18s-8.058594-18-18-18zm0 0" fill="#fd5575"/><path d="m247 331h18v18h-18zm0 0" fill="#fde0ae"/><path d="m349 163h18v18h-18zm0 0" fill="#fff"/><path d="m256 256c0 18.226562 14.773438 33 33 33l14.667969-33-14.667969-33c-18.226562 0-33 14.773438-33 33zm0 0" fill="#77aad4"/><path d="m289 223v66c18.226562 0 33-14.773438 33-33s-14.773438-33-33-33zm0 0" fill="#4a8ec6"/></svg>