<svg height="512pt" viewBox="0 0 512 512" width="512pt" xmlns="http://www.w3.org/2000/svg"><path d="m512 256c0 141.386719-114.613281 256-256 256s-256-114.613281-256-256 114.613281-256 256-256 256 114.613281 256 256zm0 0" fill="#ff2796"/><path d="m282.273438 510.667969c129.042968-13.15625 229.726562-122.152344 229.726562-254.667969 0-1.191406-.027344-2.378906-.046875-3.570312l-146.996094-146.996094-262.347656 107.957031 158.640625 136.347656-50.417969 89.484375zm0 0" fill="#b440a1"/><path d="m390.734375 195.886719 18.648437 17.484375-143.792968 153.382812-18.652344-17.484375zm0 0" fill="#fac15c"/><path d="m243.21875 196.347656v129.648438l-121.960938-130.089844-18.648437 17.484375 140.609375 149.984375h25.5625v-167.027344zm0 0" fill="#fde0ae"/><path d="m256 349.738281h-25.566406l-17.042969 51.132813 59.652344 17.042968zm0 0" fill="#77aad4"/><path d="m298.609375 400.871094-17.042969-51.132813h-25.566406v68.175781zm0 0" fill="#4a8ec6"/><path d="m213.390625 400.871094-8.523437 25.5625c.003906 17.042968 25.566406 25.566406 51.132812 25.566406l17.042969-25.566406-17.042969-25.5625zm0 0" fill="#1d71b8"/><path d="m256 400.871094v51.128906c25.566406 0 51.128906-8.523438 51.128906-25.566406l-8.519531-25.5625zm0 0" fill="#134a79"/><path d="m102.609375 213.390625h102.261719l51.128906-153.390625c-84.714844 0-153.390625 68.675781-153.390625 153.390625zm0 0" fill="#f9b233"/><path d="m256 60 51.128906 153.390625h102.261719c0-84.714844-68.675781-153.390625-153.390625-153.390625zm0 0" fill="#fd5575"/><path d="m256 60c-28.238281 0-51.128906 68.675781-51.128906 153.390625h102.257812c0-84.714844-22.890625-153.390625-51.128906-153.390625zm0 0" fill="#fb8454"/></svg>