<svg height="512pt" viewBox="0 0 512 512" width="512pt" xmlns="http://www.w3.org/2000/svg"><path d="m512 256c0 141.386719-114.613281 256-256 256s-256-114.613281-256-256 114.613281-256 256-256 256 114.613281 256 256zm0 0" fill="#1d71b8"/><path d="m175.609375 382.457031 125.566406 125.566407c119.839844-21.335938 210.824219-126.054688 210.824219-252.023438 0-6.238281-.234375-12.421875-.675781-18.550781l-140.921875-140.921875zm0 0" fill="#134a79"/><path d="m256 96.527344v318.945312c63.183594 0 114.402344-51.21875 114.402344-114.40625 0-63.183594 0-204.539062 0-204.539062zm0 0" fill="#f9b233"/><path d="m141.597656 96.527344v204.539062c0 63.183594 51.21875 114.40625 114.402344 114.40625l13.867188-159.472656-13.867188-159.472656zm0 0" fill="#fac15c"/><path d="m201.609375 238.664062-14.257813 38.125c-2.6875 7.59375-4.15625 15.765626-4.15625 24.277344 0 40.210938 32.597657 72.804688 72.804688 72.804688l13.867188-149.074219zm0 0" fill="#77aad4"/><path d="m256 197.066406h-38.828125l-15.5625 41.597656h68.257813zm0 0" fill="#134a79"/><path d="m324.648438 276.789062-14.257813-38.125-27.195313-13.863281-27.195312 13.863281v135.207032c40.207031 0 72.800781-32.597656 72.800781-72.804688 0-8.511718-1.464843-16.683594-4.152343-24.277344zm0 0" fill="#1d71b8"/><path d="m310.390625 238.664062-15.5625-41.597656h-38.828125v41.597656zm0 0" fill="#092339"/><path d="m245.601562 96.527344h20.800782v69.335937h-20.800782zm0 0" fill="#fb8454"/><path d="m235.199219 301.066406c0 11.488282 9.3125 20.800782 20.800781 20.800782l6.933594-20.800782-6.933594-20.800781c-11.488281 0-20.800781 9.3125-20.800781 20.800781zm0 0" fill="#fff"/><path d="m256 280.265625v41.601563c11.488281 0 20.800781-9.3125 20.800781-20.800782 0-11.488281-9.3125-20.800781-20.800781-20.800781zm0 0" fill="#f9b233"/></svg>