<svg height="512pt" viewBox="0 0 512 512" width="512pt" xmlns="http://www.w3.org/2000/svg"><path d="m512 256c0 141.386719-114.613281 256-256 256s-256-114.613281-256-256 114.613281-256 256-256 256 114.613281 256 256zm0 0" fill="#fb8454"/><path d="m511.414062 273.128906-116.664062-116.667968-18.097656 44.984374-47.355469-48-20.230469 8.015626-44.015625-44.210938-11.300781 42.375-53.09375 22.285156 46.292969 46.300782 13.226562 25.933593-40.828125-13.226562-84-84.457031-18.097656 111.605468 39.371094 39-1.453125 69.585938-37.917969 18.097656 116.253906 116.253906c7.414063.648438 14.914063.996094 22.496094.996094 135.628906 0 246.601562-105.476562 255.414062-238.871094zm0 0" fill="#fd5575"/><path d="m246.949219 117.25h18.101562v57.308594h-18.101562zm0 0" fill="#1d71b8"/><path d="m162.496094 213.773438h18.097656v39.210937h-18.097656zm0 0" fill="#134a79"/><path d="m249.707031 264.554688 99.582031 95.648437-20.480468-87.050781 17.617187-4.144532 25.328125 107.644532h22.996094v18.097656h-35.613281l-121.964844-117.140625zm0 0" fill="#092339"/><path d="m262.292969 264.554688-99.582031 95.648437 20.480468-87.050781-17.617187-4.144532-25.328125 107.644532h-22.996094v18.097656h35.613281l121.964844-117.140625zm0 0" fill="#134a79"/><path d="m246.949219 192.65625h18.101562v60.328125h-18.101562zm0 0" fill="#134a79"/><path d="m182.703125 153.445312v1.089844c11.394531 29.363282 39.90625 50.1875 73.296875 50.1875l12.066406-25.636718-12.066406-25.640626zm0 0" fill="#d2e3f1"/><path d="m256 153.445312v51.277344c33.390625 0 61.902344-20.824218 73.296875-50.1875v-1.089844zm0 0" fill="#a4c6e2"/><path d="m171.410156 268.066406h-54.160156v-111.605468h18.097656v93.507812h36.0625zm0 0" fill="#1d71b8"/><path d="m394.75 268.066406h-54.160156v-18.097656h36.0625v-93.507812h18.097656zm0 0" fill="#134a79"/><path d="m153.445312 240.917969v42.230469h102.554688l12.066406-21.117188-12.066406-21.113281zm0 0" fill="#fac15c"/><path d="m256 240.917969h102.554688v42.226562h-102.554688zm0 0" fill="#f9b233"/></svg>