<svg height="512pt" viewBox="0 0 512 512" width="512pt" xmlns="http://www.w3.org/2000/svg"><path d="m512 256c0 141.386719-114.613281 256-256 256s-256-114.613281-256-256 114.613281-256 256-256 256 114.613281 256 256zm0 0" fill="#fac15c"/><path d="m498.734375 337.535156-242.035156-242.035156-161.199219 272.152344 143.789062 143.789062c5.527344.359375 11.09375.558594 16.710938.558594 112.878906 0 208.683594-73.058594 242.734375-174.464844zm0 0" fill="#fb8454"/><path d="m235.066406 353.695312v62.804688h20.933594l6.976562-62.804688zm0 0" fill="#134a79"/><path d="m256 353.695312h20.933594v62.804688h-20.933594zm0 0" fill="#092339"/><path d="m318.804688 353.695312h41.871093v62.804688h-41.871093zm0 0" fill="#092339"/><path d="m151.324219 353.695312h41.871093v62.804688h-41.871093zm0 0" fill="#134a79"/><path d="m257.429688 353.695312 12.527343-122.121093-13.957031-136.074219h-.699219l-159.800781 270.757812v1.394532h66.292969l10.46875-13.957032 10.464843 13.957032h62.804688zm0 0" fill="#77aad4"/><path d="m256.699219 95.5h-.699219v258.195312l10.46875 13.957032h62.804688l10.464843-13.957032 10.46875 13.957032h66.292969v-1.394532zm0 0" fill="#4a8ec6"/><path d="m329.273438 318.804688h20.933593v48.847656h-20.933593zm0 0" fill="#a4c6e2"/><path d="m245.53125 318.804688h20.9375v48.847656h-20.9375zm0 0" fill="#d2e3f1"/><path d="m245.53125 275.078125h20.9375v20.933594h-20.9375zm0 0" fill="#134a79"/><path d="m287.402344 275.078125h20.933594v20.933594h-20.933594zm0 0" fill="#134a79"/><path d="m203.664062 275.078125h20.933594v20.933594h-20.933594zm0 0" fill="#1d71b8"/><path d="m161.792969 318.804688h20.933593v48.847656h-20.933593zm0 0" fill="#d2e3f1"/><path d="m255.453125 177.617188-37.890625 64.199218h38.4375l6.976562-32.097656-6.976562-32.101562zm0 0" fill="#fff"/><path d="m256.546875 177.617188h-.546875v64.199218h38.4375zm0 0" fill="#fac15c"/></svg>