<svg height="512pt" viewBox="0 0 512 512" width="512pt" xmlns="http://www.w3.org/2000/svg"><path d="m512 256c0 141.386719-114.613281 256-256 256s-256-114.613281-256-256 114.613281-256 256-256 256 114.613281 256 256zm0 0" fill="#fb8454"/><path d="m499.316406 335.742188-212.882812-212.882813-90.824219 158.714844-14.65625-14.644531-45.734375 143.402343 100.902344 100.90625c6.5625.503907 13.191406.761719 19.878906.761719 113.539062 0 209.796875-73.921875 243.316406-176.257812zm0 0" fill="#fd5575"/><path d="m165.414062 256c-17.804687 8.078125-30.195312 26.070312-30.195312 46.972656v67.097656l30.195312 13.421876 30.195313-13.421876v-67.097656c0-20.902344-12.390625-38.894531-30.195313-46.972656zm0 0" fill="#d2e3f1"/><path d="m135.21875 410.332031h60.390625l13.417969-40.261719h-73.808594zm0 0" fill="#77aad4"/><path d="m346.585938 256c-17.804688 8.078125-30.195313 26.070312-30.195313 46.972656v67.097656l30.195313 13.421876 30.195312-13.421876v-67.097656c0-20.902344-12.390625-38.894531-30.195312-46.972656zm0 0" fill="#a4c6e2"/><path d="m316.390625 410.332031h60.390625v-40.261719h-73.808594zm0 0" fill="#4a8ec6"/><path d="m195.609375 195.609375v154.332031h73.8125l-13.421875-248.273437c-35.609375 16.15625-60.390625 52.140625-60.390625 93.941406zm0 0" fill="#fac15c"/><path d="m316.390625 195.609375c0-41.796875-24.78125-77.785156-60.390625-93.941406v248.273437h60.390625zm0 0" fill="#f9b233"/><path d="m195.609375 370.070312v40.261719h40.261719l6.707031-53.679687zm0 0" fill="#1d71b8"/><path d="m316.390625 370.070312-46.96875-13.417968 6.707031 53.679687h40.261719zm0 0" fill="#134a79"/><path d="m175.476562 329.8125v40.257812h60.394532l13.417968-50.324218-13.417968-50.324219zm0 0" fill="#a4c6e2"/><path d="m235.871094 220.210938v149.859374l26.839844 13.421876-6.710938-194.59375c-11.871094 5.386718-20.128906 17.382812-20.128906 31.3125zm0 0" fill="#77aad4"/><path d="m276.128906 269.421875-13.417968 50.324219 13.417968 50.324218h60.394532v-40.257812zm0 0" fill="#1d71b8"/><path d="m276.128906 220.210938c0-13.933594-8.257812-25.925782-20.128906-31.3125v194.59375l20.128906-13.421876zm0 0" fill="#4a8ec6"/><path d="m235.871094 370.070312h40.261718v40.261719h-40.261718zm0 0" fill="#092339"/></svg>