<svg height="512pt" viewBox="0 0 512 512" width="512pt" xmlns="http://www.w3.org/2000/svg"><path d="m512 256c0 141.386719-114.613281 256-256 256s-256-114.613281-256-256 114.613281-256 256-256 256 114.613281 256 256zm0 0" fill="#1d71b8"/><path d="m512 256c0-6.933594-.285156-13.804688-.828125-20.597656l-126.277344-126.28125-7.277343 7.277344-35.246094-35.6875-35.519532 19.289062-38.132812-39-25.4375 60.355469-50.15625-50.378907 5.957031 80.84375-47.261719 47.261719-80.84375-5.957031 50.378907 50.15625-60.355469 25.4375 39 38.132812-19.289062 35.519532 35.6875 35.246094 10.707031 25.261718 108.296875 108.296875c6.792968.539063 13.664062.824219 20.597656.824219 141.386719 0 256-114.613281 256-256zm0 0" fill="#134a79"/><path d="m451 243.28125h-131.066406l121.089844-50.15625-9.734376-23.496094-121.089843 50.15625 92.679687-92.679687-17.984375-17.984375-92.679687 92.679687 50.15625-121.089843-23.496094-9.734376-62.875 151.792969-12.71875 33.230469v195h25.4375v-131.066406l50.15625 121.089844 23.496094-9.734376-50.15625-121.089843 92.679687 92.679687 17.984375-17.984375-92.679687-92.679687 121.089843 50.15625 9.734376-23.496094-121.089844-50.15625h131.066406zm0 0" fill="#f9b233"/><path d="m268.71875 61h-25.4375v131.066406l-50.15625-121.089844-23.496094 9.734376 50.15625 121.089843-92.679687-92.679687-17.984375 17.984375 92.679687 92.679687-121.089843-50.15625-9.734376 23.496094 121.089844 50.15625h-131.066406v25.4375h131.066406l-121.089844 50.15625 9.734376 23.496094 121.089843-50.15625-92.679687 92.679687 17.984375 17.984375 92.679687-92.679687-50.15625 121.089843 23.496094 9.734376 62.875-151.792969 12.71875-33.230469zm0 0" fill="#fac15c"/><path d="m137.304688 256c0 65.554688 53.140624 118.695312 118.695312 118.695312l16.957031-118.695312-16.957031-118.695312c-65.554688 0-118.695312 53.140624-118.695312 118.695312zm0 0" fill="#f9b233"/><path d="m256 137.304688v237.390624c65.554688 0 118.695312-53.140624 118.695312-118.695312s-53.140624-118.695312-118.695312-118.695312zm0 0" fill="#fb8454"/></svg>