<svg height="512pt" viewBox="0 0 512 512" width="512pt" xmlns="http://www.w3.org/2000/svg"><path d="m512 256c0 141.386719-114.613281 256-256 256s-256-114.613281-256-256 114.613281-256 256-256 256 114.613281 256 256zm0 0" fill="#1d71b8"/><path d="m507.816406 302.273438-201.273437-201.273438-20.21875 17.3125-46.648438-2.726562-14-14.585938-79.34375 124.675781-21.746093 20.214844 10.109374 10 19.304688 10.21875-29.414062 20.214844 10.109374 10 27.304688 64.132812-27.304688 50.542969 100.121094 100.121094c6.988282.574218 14.050782.878906 21.183594.878906 125.585938 0 230.035156-90.429688 251.816406-209.726562zm0 0" fill="#134a79"/><path d="m269.476562 205.457031-53.910156-84.066406c-47.113281 16.652344-80.871094 61.578125-80.871094 114.390625h134.78125zm0 0" fill="#d2e3f1"/><path d="m134.695312 411h121.304688l13.476562-134.78125h-134.78125zm0 0" fill="#d2e3f1"/><path d="m134.695312 235.78125h134.785157v40.4375h-134.785157zm0 0" fill="#f9b233"/><path d="m256 276.21875h121.304688v134.78125h-121.304688zm0 0" fill="#a4c6e2"/><path d="m256 235.78125h121.304688v40.4375h-121.304688zm0 0" fill="#fb8454"/><path d="m296.433594 121.390625-40.433594 84.066406v30.324219h121.304688c0-52.8125-33.757813-97.738281-80.871094-114.390625zm0 0" fill="#a4c6e2"/><path d="m215.566406 154.914062v70.761719h40.433594l13.476562-84.242187zm0 0" fill="#1d71b8"/><path d="m256 114.476562c-14.179688 0-27.785156 2.441407-40.433594 6.914063v33.523437h53.910156zm0 0" fill="#a4c6e2"/><path d="m256 154.914062v70.761719h40.433594v-70.761719l-20.214844-13.480468zm0 0" fill="#134a79"/><path d="m296.433594 121.390625c-12.648438-4.472656-26.253906-6.914063-40.433594-6.914063v40.4375h40.433594zm0 0" fill="#77aad4"/><path d="m266.109375 195.347656c0 5.582032-4.527344 10.109375-10.109375 10.109375s-10.109375-4.527343-10.109375-10.109375c0-5.582031 4.527344-10.109375 10.109375-10.109375s10.109375 4.527344 10.109375 10.109375zm0 0" fill="#092339"/><path d="m205.457031 101h20.214844v138.152344h-20.214844zm0 0" fill="#a4c6e2"/><path d="m286.324219 101h20.21875v138.152344h-20.21875zm0 0" fill="#77aad4"/><path d="m241.847656 360.457031v-20.21875h14.152344l6.738281-10.105469-6.738281-10.109374h-121.304688v20.214843h38.414063v20.21875h-38.414063v20.214844h121.304688l6.738281-10.109375-6.738281-10.105469zm-20.21875 0h-28.304687v-20.21875h28.304687zm0 0" fill="#a4c6e2"/><path d="m377.304688 340.238281v-20.214843h-121.304688v20.214843h14.152344v20.21875h-14.152344v20.214844h121.304688v-20.214844h-38.414063v-20.21875zm-58.628907 20.21875h-28.304687v-20.21875h28.304687zm0 0" fill="#77aad4"/><path d="m124.585938 225.675781v20.214844h131.414062l6.738281-10.109375-6.738281-10.105469zm0 0" fill="#a4c6e2"/><path d="m256 225.675781h131.414062v20.214844h-131.414062zm0 0" fill="#77aad4"/><path d="m124.585938 266.109375v20.214844h131.414062l6.738281-10.105469-6.738281-10.109375zm0 0" fill="#a4c6e2"/><path d="m256 266.109375h131.414062v20.214844h-131.414062zm0 0" fill="#77aad4"/></svg>