<svg height="512pt" viewBox="0 0 512 512" width="512pt" xmlns="http://www.w3.org/2000/svg"><path d="m512 256c0 141.386719-114.613281 256-256 256s-256-114.613281-256-256 114.613281-256 256-256 256 114.613281 256 256zm0 0" fill="#fac15c"/><path d="m512 256c0-6.078125-.226562-12.101562-.644531-18.070312l-95.855469-95.859376-19.53125 117.429688-83.542969-43.734375-7.539062-7.53125-112.894531 9.835937-75.960938-76-19.53125 227.859376 141.429688 141.425781c5.96875.417969 11.992187.644531 18.070312.644531 141.386719 0 256-114.613281 256-256zm0 0" fill="#fb8454"/><path d="m310.929688 215.3125v81.375l94.804687-26.507812v-26.039063zm0 0" fill="#4a8ec6"/><path d="m106.265625 244.140625v26.039063l94.804687 26.507812v-81.375zm0 0" fill="#77aad4"/><path d="m187.644531 256c0 18.875 7.648438 35.964844 20.019531 48.335938h61.355469l-13.019531-116.691407c-37.753906 0-68.355469 30.601563-68.355469 68.355469zm0 0" fill="#1d71b8"/><path d="m96.5 142.070312h19.53125v227.859376h-19.53125zm0 0" fill="#4a8ec6"/><path d="m395.96875 142.070312h19.53125v227.859376h-19.53125zm0 0" fill="#1d71b8"/><path d="m256 187.644531v116.691407h48.335938c12.371093-12.371094 20.019531-29.457032 20.019531-48.335938 0-37.753906-30.601563-68.355469-68.355469-68.355469zm0 0" fill="#092339"/><path d="m235.285156 276.714844-27.621094 27.621094c12.371094 12.367187 29.460938 20.019531 48.335938 20.019531l13.019531-47.640625zm0 0" fill="#4a8ec6"/><path d="m276.714844 276.714844h-20.714844v47.640625c18.875 0 35.964844-7.648438 48.335938-20.019531zm0 0" fill="#1d71b8"/><path d="m226.703125 256c0 16.179688 13.117187 29.296875 29.296875 29.296875l13.019531-29.296875-13.019531-29.296875c-16.179688 0-29.296875 13.117187-29.296875 29.296875zm0 0" fill="#fff"/><path d="m256 226.703125v58.59375c16.179688 0 29.296875-13.117187 29.296875-29.296875s-13.117187-29.296875-29.296875-29.296875zm0 0" fill="#fac15c"/></svg>