<?xml version="1.0" encoding="iso-8859-1"?>
<!-- Generator: Adobe Illustrator 19.0.0, SVG Export Plug-In . SVG Version: 6.00 Build 0)  -->
<svg version="1.1" id="Layer_1" xmlns="http://www.w3.org/2000/svg" xmlns:xlink="http://www.w3.org/1999/xlink" x="0px" y="0px"
	 viewBox="0 0 512 512" style="enable-background:new 0 0 512 512;" xml:space="preserve">
<g>
	<g>
		<circle style="fill:#71E2EF;" cx="256" cy="256" r="256"/>
	</g>
	<path style="fill:#38C6D9;" d="M369,128.496L198.385,416.69l92.881,92.881c119.827-16.513,213.176-115.941,220.282-238.526
		L369,128.496z"/>
	<g>
		<path style="fill:#273B7A;" d="M107.744,220.97c0-90.672,66.377-131.341,148.256-131.341s148.256,40.669,148.256,131.341
			c0,79.103-90.002,229.847-148.256,229.847C196.998,450.815,107.744,300.57,107.744,220.97z"/>
	</g>
	<g>
		<path style="fill:#121149;" d="M256,89.629c81.879,0,148.256,40.669,148.256,131.341c0,79.103-90.002,229.847-148.256,229.847
			V89.629z"/>
	</g>
	<g>
		<g>
			<path style="fill:#38C6D9;" d="M230.884,340.268c0,0,0.407-25.569-22.549-41.643c-23.131-16.196-46.844-6.947-46.844-6.947
				s-1.458,24.833,22.549,41.643C207.172,349.518,230.884,340.268,230.884,340.268z"/>
		</g>
		<g>
			<path style="fill:#38C6D9;" d="M281.116,340.268c0,0-0.407-25.569,22.549-41.643c23.131-16.196,46.844-6.947,46.844-6.947
				s1.458,24.833-22.549,41.643C304.828,349.518,281.116,340.268,281.116,340.268z"/>
		</g>
	</g>
</g>
<g>
</g>
<g>
</g>
<g>
</g>
<g>
</g>
<g>
</g>
<g>
</g>
<g>
</g>
<g>
</g>
<g>
</g>
<g>
</g>
<g>
</g>
<g>
</g>
<g>
</g>
<g>
</g>
<g>
</g>
</svg>
