<?xml version="1.0" encoding="iso-8859-1"?>
<!-- Generator: Adobe Illustrator 19.0.0, SVG Export Plug-In . SVG Version: 6.00 Build 0)  -->
<svg version="1.1" id="Layer_1" xmlns="http://www.w3.org/2000/svg" xmlns:xlink="http://www.w3.org/1999/xlink" x="0px" y="0px"
	 viewBox="0 0 512 512" style="enable-background:new 0 0 512 512;" xml:space="preserve">
<g>
	<g>
		<circle style="fill:#263A7A;" cx="256" cy="256" r="256"/>
	</g>
	<path style="fill:#121149;" d="M358.3,116.272L90.793,395.338l110.863,110.863C219.172,509.986,237.351,512,256,512
		c136.818,0,248.563-107.332,255.64-242.388L358.3,116.272z"/>
	<g>
		<path style="fill:#FCCC86;" d="M113.778,215.057c0-78.546,63.676-142.222,142.222-142.222s142.222,63.676,142.222,142.222v113.778
			H113.778V215.057z"/>
	</g>
	<g>
		<path style="fill:#FF7F4F;" d="M398.222,215.057c0-78.548-63.676-142.222-142.222-142.222c-0.193,0-0.381,0.014-0.574,0.014
			v255.986h142.796V215.057z"/>
	</g>
	<g>
		<path style="fill:#FF0F27;" d="M99.556,341.333h312.889c7.854,0,14.222-6.368,14.222-14.222l0,0
			c0-7.854-6.368-14.222-14.222-14.222H99.556c-7.854,0-14.222,6.368-14.222,14.222l0,0
			C85.333,334.965,91.701,341.333,99.556,341.333z"/>
	</g>
	<g>
		<path style="fill:#FF0F27;" d="M99.556,398.222h312.889c7.854,0,14.222-6.368,14.222-14.222l0,0
			c0-7.854-6.368-14.222-14.222-14.222H99.556c-7.854,0-14.222,6.368-14.222,14.222l0,0
			C85.333,391.854,91.701,398.222,99.556,398.222z"/>
	</g>
	<g>
		<path style="fill:#FFAD9E;" d="M99.556,369.778h312.889c7.854,0,14.222-6.368,14.222-14.222l0,0
			c0-7.854-6.368-14.222-14.222-14.222H99.556c-7.854,0-14.222,6.368-14.222,14.222l0,0
			C85.333,363.41,91.701,369.778,99.556,369.778z"/>
	</g>
	<g>
		<path style="fill:#940030;" d="M412.444,312.889H255.426v28.444h157.019c7.854,0,14.222-6.368,14.222-14.222
			C426.667,319.257,420.299,312.889,412.444,312.889z"/>
	</g>
	<g>
		<path style="fill:#940030;" d="M412.444,369.778H255.426v28.444h157.019c7.854,0,14.222-6.368,14.222-14.222
			C426.667,376.146,420.299,369.778,412.444,369.778z"/>
	</g>
	<g>
		<path style="fill:#FF6262;" d="M412.444,341.333H255.426v28.444h157.019c7.854,0,14.222-6.368,14.222-14.222
			C426.667,347.701,420.299,341.333,412.444,341.333z"/>
	</g>
	<g>
		<path style="fill:#FF7F4F;" d="M161.761,284.444h188.48c10.79,0,19.537-8.747,19.537-19.537v-74.702
			c0-10.79-8.747-19.539-19.537-19.539h-188.48c-10.79,0-19.539,8.747-19.539,19.539v74.702
			C142.222,275.697,150.969,284.444,161.761,284.444z"/>
	</g>
	<g>
		<path style="fill:#E03A00;" d="M350.241,170.667h-94.815v113.778h94.815c10.79,0,19.537-8.747,19.537-19.537v-74.702
			C369.778,179.414,361.031,170.667,350.241,170.667z"/>
	</g>
	<g>
		<path style="fill:#FF7F4F;" d="M114.855,284.444h-17.67c-2.975,0-5.387-2.412-5.387-5.387v-74.559
			c0-2.975,2.412-5.387,5.387-5.387h17.67c2.975,0,5.387,2.412,5.387,5.387v74.559C120.242,282.033,117.831,284.444,114.855,284.444
			z"/>
	</g>
	<g>
		<path style="fill:#E03A00;" d="M414.815,284.444h-17.67c-2.975,0-5.387-2.412-5.387-5.387v-74.559
			c0-2.975,2.412-5.387,5.387-5.387h17.67c2.975,0,5.387,2.412,5.387,5.387v74.559C420.202,282.033,417.79,284.444,414.815,284.444z
			"/>
	</g>
</g>
<g>
</g>
<g>
</g>
<g>
</g>
<g>
</g>
<g>
</g>
<g>
</g>
<g>
</g>
<g>
</g>
<g>
</g>
<g>
</g>
<g>
</g>
<g>
</g>
<g>
</g>
<g>
</g>
<g>
</g>
</svg>
