<?xml version="1.0" encoding="iso-8859-1"?>
<!-- Generator: Adobe Illustrator 19.0.0, SVG Export Plug-In . SVG Version: 6.00 Build 0)  -->
<svg version="1.1" id="Layer_1" xmlns="http://www.w3.org/2000/svg" xmlns:xlink="http://www.w3.org/1999/xlink" x="0px" y="0px"
	 viewBox="0 0 512 512" style="enable-background:new 0 0 512 512;" xml:space="preserve">
<g>
	<g>
		<circle style="fill:#FF7F4F;" cx="256" cy="256" r="256"/>
	</g>
	<path style="fill:#FF5419;" d="M442.094,233.534c-72.009,16.031-147.153-2.96-222.296,10.399
		c-25.859,3.448-43.098,25.859-48.269,53.441c-8.932,42.108-15.982,83.27-29.525,122.092l91.543,91.543
		C240.947,511.652,248.432,512,256,512c126.483,0,231.526-91.732,252.268-212.292L442.094,233.534z"/>
	<g>
		<path style="fill:#FFC61B;" d="M438.303,246.256h-61.119c-3.808,0-6.896-3.088-6.896-6.896s3.088-6.896,6.896-6.896h61.119
			c3.808,0,6.896,3.088,6.896,6.896S442.111,246.256,438.303,246.256z"/>
	</g>
	<g>
		<path style="fill:#D48B07;" d="M370.348,238.761c-0.017,0.2-0.06,0.395-0.06,0.6c0,3.808,3.088,6.896,6.896,6.896h61.119
			c3.808,0,6.896-3.088,6.896-6.896c0-0.205-0.043-0.398-0.06-0.6H370.348z"/>
	</g>
	<g>
		<circle style="fill:#FEE187;" cx="370.7" cy="238.897" r="30.56"/>
	</g>
	<g>
		<path style="fill:#FFC61B;" d="M340.147,238.761c0,0.047-0.007,0.09-0.007,0.136c0,16.879,13.683,30.56,30.56,30.56
			s30.56-13.683,30.56-30.56c0-0.047-0.007-0.09-0.007-0.136H340.147z"/>
	</g>
	<g>
		<path style="fill:#4878A0;" d="M213.311,265.857c0,0-9.731,65.853,12.902,109.496c7.454,14.374,0.172,32.008-15.189,37.128
			l-41.594,13.865c-13.908,4.636-28.919-2.912-33.508-16.834c-10.342-31.38-20.963-88.207,10.071-143.653h67.319V265.857z"/>
	</g>
	<g>
		<path style="fill:#FEE187;" d="M254.942,166.698c0,0-92.915-92.606-122.24,30.56L254.942,166.698z"/>
	</g>
	<g>
		<ellipse style="fill:#273B7A;" cx="239.663" cy="238.897" rx="137.521" ry="76.4"/>
	</g>
	<g>
		<path style="fill:#121149;" d="M102.148,238.761c0,0.047-0.007,0.091-0.007,0.136c0,42.194,61.569,76.4,137.521,76.4
			c75.95,0,137.521-34.206,137.521-76.4c0-0.047-0.005-0.091-0.007-0.136L102.148,238.761L102.148,238.761z"/>
	</g>
</g>
<g>
</g>
<g>
</g>
<g>
</g>
<g>
</g>
<g>
</g>
<g>
</g>
<g>
</g>
<g>
</g>
<g>
</g>
<g>
</g>
<g>
</g>
<g>
</g>
<g>
</g>
<g>
</g>
<g>
</g>
</svg>
