<?xml version="1.0" encoding="iso-8859-1"?>
<!-- Generator: Adobe Illustrator 19.0.0, SVG Export Plug-In . SVG Version: 6.00 Build 0)  -->
<svg version="1.1" id="Layer_1" xmlns="http://www.w3.org/2000/svg" xmlns:xlink="http://www.w3.org/1999/xlink" x="0px" y="0px"
	 viewBox="0 0 512 512" style="enable-background:new 0 0 512 512;" xml:space="preserve">
<g>
	<g>
		<circle style="fill:#71E2EF;" cx="256" cy="256" r="256"/>
	</g>
	<path style="fill:#38C6D9;" d="M510.578,228.952L394.89,113.264c-45.499,20.659-122.018-0.55-133.718,47.921
		c-17.239,65.508,17.239,141.36-25.859,203.421c-17.239,24.135-51.717,22.411-70.68,41.374
		c-6.827,5.851-14.205,14.458-22.757,20.832l83.339,83.339C235.31,511.36,245.579,512,256,512c141.384,0,256-114.616,256-256
		C512,246.863,511.512,237.84,510.578,228.952z"/>
	<g>
		<path style="fill:#386895;" d="M369.766,427.172c0-0.169,0.012-0.336,0.012-0.505c0-62.838-50.94-113.778-113.778-113.778
			s-113.778,50.94-113.778,113.778c0,0.169,0.012,0.336,0.012,0.505c32.251,22.494,71.463,35.697,113.766,35.697
			S337.515,449.667,369.766,427.172z"/>
	</g>
	<g>
		<path style="fill:#273B7A;" d="M256,312.889c-0.193,0-0.381,0.014-0.574,0.014v149.954c0.193,0,0.383,0.01,0.574,0.01
			c42.301,0,81.515-13.203,113.764-35.697c0-0.169,0.012-0.336,0.012-0.505C369.778,363.829,318.838,312.889,256,312.889z"/>
	</g>
	<g>
		<path style="fill:#263A7A;" d="M391.47,196.387c-42.906-14.633-85.813,20.08-128.719,5.448c-3.729-1.262-6.751-5.753-6.751-9.476
			c0-23.943,0-47.887,0-71.83c0-3.734,3.024-5.289,6.751-4.027c42.906,14.633,85.813-20.08,128.719-5.448
			c3.729,1.262,6.753,5.753,6.753,9.476c0,23.943,0,47.887,0,71.83C398.22,196.093,395.2,197.649,391.47,196.387z"/>
	</g>
	<g>
		<path style="fill:#FFEDB5;" d="M256,351.677c-5.711,0-10.343-4.632-10.343-10.343V113.778c0-5.711,4.632-10.343,10.343-10.343
			c5.711,0,10.343,4.632,10.343,10.343v227.556C266.343,347.045,261.711,351.677,256,351.677z"/>
	</g>
	<g>
		<path style="fill:#FEE187;" d="M256,103.434c-0.193,0-0.383,0.019-0.574,0.029v248.184c0.191,0.01,0.381,0.029,0.574,0.029
			c5.711,0,10.343-4.632,10.343-10.343V113.778C266.343,108.066,261.711,103.434,256,103.434z"/>
	</g>
</g>
<g>
</g>
<g>
</g>
<g>
</g>
<g>
</g>
<g>
</g>
<g>
</g>
<g>
</g>
<g>
</g>
<g>
</g>
<g>
</g>
<g>
</g>
<g>
</g>
<g>
</g>
<g>
</g>
<g>
</g>
</svg>
