<?xml version="1.0" encoding="iso-8859-1"?>
<!-- Generator: Adobe Illustrator 19.0.0, SVG Export Plug-In . SVG Version: 6.00 Build 0)  -->
<svg version="1.1" id="Layer_1" xmlns="http://www.w3.org/2000/svg" xmlns:xlink="http://www.w3.org/1999/xlink" x="0px" y="0px"
	 viewBox="0 0 512 512" style="enable-background:new 0 0 512 512;" xml:space="preserve">
<g>
	<g>
		<circle style="fill:#FFAD9E;" cx="256" cy="256" r="256"/>
	</g>
	<path style="fill:#FF6262;" d="M370.95,143.527c-12.173,4.065-25.676,5.063-35.65,10.762c-6.896,3.448-12.067,3.448-17.239,3.448
		c-43.098-1.724-91.367-12.067-129.293,3.448c-15.515,6.896-22.411,37.926-32.754,60.337c-8.62,15.515-18.963,31.03-31.03,48.269
		c-9.823,14.733-20.523,28.598-31.472,42.829l197.049,197.049c116.195-15.684,207.651-109.308,220.007-226.525L370.95,143.527z"/>
	<g>
		<path style="fill:#FFEDB5;" d="M255.676,394.678l-160.12-93.891l90.227-150.376h177.498l87.092,145.151l-10.347,6.21
			l-83.575-139.293H194.691l57.387,77.241L255.676,394.678z M112.175,296.546l130.934,76.776l-3.01-129.484l-53.274-71.709
			L112.175,296.546z"/>
	</g>
	<g>
		<polygon style="fill:#FEE187;" points="363.28,150.411 260.024,150.411 260.024,162.478 356.45,162.478 440.025,301.771 
			450.372,295.562 		"/>
	</g>
	<g>
		<circle style="fill:#366695;" cx="189.199" cy="156.444" r="17.239"/>
	</g>
	<g>
		<circle style="fill:#366695;" cx="103.865" cy="298.667" r="17.239"/>
	</g>
	<g>
		<circle style="fill:#366695;" cx="246.088" cy="384" r="17.239"/>
	</g>
	<g>
		<circle style="fill:#366695;" cx="246.088" cy="241.778" r="17.239"/>
	</g>
	<g>
		<circle style="fill:#366695;" cx="359.865" cy="156.444" r="17.239"/>
	</g>
	<g>
		<circle style="fill:#366695;" cx="445.199" cy="298.667" r="17.239"/>
	</g>
</g>
<g>
</g>
<g>
</g>
<g>
</g>
<g>
</g>
<g>
</g>
<g>
</g>
<g>
</g>
<g>
</g>
<g>
</g>
<g>
</g>
<g>
</g>
<g>
</g>
<g>
</g>
<g>
</g>
<g>
</g>
</svg>
