<?xml version="1.0" encoding="iso-8859-1"?>
<!-- Generator: Adobe Illustrator 19.0.0, SVG Export Plug-In . SVG Version: 6.00 Build 0)  -->
<svg version="1.1" id="Layer_1" xmlns="http://www.w3.org/2000/svg" xmlns:xlink="http://www.w3.org/1999/xlink" x="0px" y="0px"
	 viewBox="0 0 512 512" style="enable-background:new 0 0 512 512;" xml:space="preserve">
<g>
	<g>
		<circle style="fill:#386895;" cx="256" cy="256" r="256"/>
	</g>
	<path style="fill:#273B7A;" d="M378.83,137.483L129.014,370.267l141.326,141.326c129.995-7.178,234.124-111.335,241.261-241.34
		L378.83,137.483z"/>
	<g>
		<circle style="fill:#FF7F4F;" cx="256" cy="256" r="170.667"/>
	</g>
	<g>
		<path style="fill:#FF5419;" d="M256,85.333c-0.191,0-0.383,0.007-0.574,0.007v341.32c0.191,0,0.383,0.007,0.574,0.007
			c94.256,0,170.667-76.41,170.667-170.667S350.256,85.333,256,85.333z"/>
	</g>
	<g>
		<path style="fill:#FF5419;" d="M391.921,359.169c-33.178-11.011-65.66-22.016-101.443-25.593
			c-58.908-6.201-124.78-10.992-181.332,9.413c17.76,29.918,44.403,53.938,76.29,68.441c20.073-1.312,40.146-3.219,60.221-5.449
			c30.67-3.408,60.592-1.574,90.75,0.565C358.153,394.895,377.091,378.68,391.921,359.169z"/>
	</g>
	<g>
		<path style="fill:#FF5419;" d="M425.66,237.403c-28.265-11.773-58.011-18.603-88.636-21.052
			c-79.153-6.737-164.881,6.244-239.516-23.69c-7.837,19.589-12.174,40.953-12.174,63.34c0,7.471,0.484,14.829,1.415,22.047
			c112.128,1.148,230.238-22.935,333.603,24.092c4.112-14.676,6.316-30.149,6.316-46.137
			C426.667,249.715,426.324,243.51,425.66,237.403z"/>
	</g>
	<g>
		<path style="fill:#E03A00;" d="M425.66,237.403c-2.831-26.098-11.548-50.431-24.791-71.647
			c-88.03-6.275-173.89,11.086-265.542-6.296c-5.799-0.967-11.042-3.041-15.948-5.758c-8.907,11.878-16.275,24.967-21.871,38.957
			c74.635,29.934,160.363,16.953,239.516,23.69C367.649,218.8,397.395,225.63,425.66,237.403z"/>
	</g>
	<g>
		<path style="fill:#EA1332;" d="M290.478,333.576c-11.461-1.207-23.185-2.357-35.052-3.281v74.78
			c27.272-2.098,54.032-0.441,80.98,1.469c21.747-11.648,40.684-27.863,55.515-47.375
			C358.743,348.16,326.261,337.155,290.478,333.576z"/>
	</g>
	<g>
		<path style="fill:#EA1332;" d="M425.66,237.403c-28.265-11.773-58.011-18.603-88.636-21.052
			c-26.677-2.27-54.103-2.301-81.598-2.491v59.033c56.953-0.095,112.812,5.537,164.924,29.244
			c4.112-14.676,6.316-30.149,6.316-46.137C426.667,249.715,426.324,243.51,425.66,237.403z"/>
	</g>
	<g>
		<path style="fill:#940030;" d="M425.66,237.403c-2.831-26.098-11.548-50.431-24.791-71.647
			c-48.695-3.472-96.728,0.284-145.442,1.398v46.706c27.495,0.188,54.92,0.221,81.598,2.491
			C367.649,218.8,397.395,225.63,425.66,237.403z"/>
	</g>
</g>
<g>
</g>
<g>
</g>
<g>
</g>
<g>
</g>
<g>
</g>
<g>
</g>
<g>
</g>
<g>
</g>
<g>
</g>
<g>
</g>
<g>
</g>
<g>
</g>
<g>
</g>
<g>
</g>
<g>
</g>
</svg>
