<?xml version="1.0" encoding="iso-8859-1"?>
<!-- Generator: Adobe Illustrator 19.0.0, SVG Export Plug-In . SVG Version: 6.00 Build 0)  -->
<svg version="1.1" id="Layer_1" xmlns="http://www.w3.org/2000/svg" xmlns:xlink="http://www.w3.org/1999/xlink" x="0px" y="0px"
	 viewBox="0 0 512 512" style="enable-background:new 0 0 512 512;" xml:space="preserve">
<g>
	<g>
		<circle style="fill:#C2001B;" cx="256" cy="256" r="256"/>
	</g>
	<path style="fill:#940030;" d="M411.176,320.815c-58.766,46.675-149.699,33.513-222.408,36.895c0,0,1.724,6.896,0,8.62
		c-12.067,12.067-29.306,10.343-44.822,12.067c-2.058,0-4.167,0.11-6.292,0.328l132.858,132.858
		c87.773-4.906,163.728-54.027,205.974-125.457L411.176,320.815z"/>
	<path style="fill:#940030;" d="M511.478,272.143l-94.086-94.086l-39.377,41.053l120.134,120.134
		C505.449,318,510.024,295.495,511.478,272.143z"/>
	<g>
		<circle style="fill:#FFAD9E;" cx="398.222" cy="199.111" r="28.444"/>
	</g>
	<g>
		<circle style="fill:#FFAD9E;" cx="270.222" cy="99.556" r="14.222"/>
	</g>
	<g>
		<circle style="fill:#FFAD9E;" cx="327.111" cy="270.222" r="14.222"/>
	</g>
	<g>
		<path style="fill:#C1FAFE;" d="M300.673,330.373c-58.185-15.119-103.927-60.859-119.046-119.046
			c-10.461-40.262-6.577-79.072,7.62-112.44c-62.448,26.565-105.819,89.271-103.85,161.861
			c2.445,90.091,75.766,163.411,165.857,165.855c72.59,1.97,135.294-41.401,161.859-103.85
			C379.745,336.948,340.937,340.833,300.673,330.373z"/>
	</g>
	<g>
		<path style="fill:#71E2EF;" d="M300.673,330.373c-29.229-7.594-55.311-22.919-75.955-43.665l-89.543,89.543
			c29.922,30.063,70.889,49.124,116.079,50.35c72.59,1.97,135.294-41.401,161.859-103.85
			C379.745,336.948,340.937,340.833,300.673,330.373z"/>
	</g>
</g>
<g>
</g>
<g>
</g>
<g>
</g>
<g>
</g>
<g>
</g>
<g>
</g>
<g>
</g>
<g>
</g>
<g>
</g>
<g>
</g>
<g>
</g>
<g>
</g>
<g>
</g>
<g>
</g>
<g>
</g>
</svg>
