<?xml version="1.0" encoding="iso-8859-1"?>
<!-- Generator: Adobe Illustrator 19.0.0, SVG Export Plug-In . SVG Version: 6.00 Build 0)  -->
<svg version="1.1" id="Layer_1" xmlns="http://www.w3.org/2000/svg" xmlns:xlink="http://www.w3.org/1999/xlink" x="0px" y="0px"
	 viewBox="0 0 512 512" style="enable-background:new 0 0 512 512;" xml:space="preserve">
<g>
	<g>
		<circle style="fill:#71E2F0;" cx="256" cy="256" r="256"/>
	</g>
	<path style="fill:#38C6D9;" d="M438.631,215.407l-70.892,68.568l-68.761-68.76l-71.168,67.041l-68.68-68.68L76.49,299.277
		l210.815,210.816c116.484-14.205,208.801-106.639,222.83-223.179L438.631,215.407z"/>
	<g>
		<circle style="fill:#263A7A;" cx="256" cy="256" r="59.437"/>
	</g>
	<g>
		<path style="fill:#121149;" d="M256,196.563c32.827,0,59.437,26.61,59.437,59.437s-26.61,59.437-59.437,59.437V196.563z"/>
	</g>
	<g>
		<path style="fill:#FFC91B;" d="M258.058,205.569c27.853,0,50.431,22.58,50.431,50.431c0,27.851-22.58,50.431-50.431,50.431
			V205.569z"/>
	</g>
	<g>
		<circle style="fill:#263A7A;" cx="117.089" cy="256" r="59.437"/>
	</g>
	<g>
		<path style="fill:#121149;" d="M117.089,196.563c32.827,0,59.437,26.61,59.437,59.437s-26.61,59.437-59.437,59.437
			L117.089,196.563L117.089,196.563z"/>
	</g>
	<g>
		<path style="fill:#FFC91B;" d="M121.487,205.627c17.07,10.283,28.489,28.993,28.489,50.373s-11.419,40.089-28.489,50.373
			c26.767-1.222,48.094-23.304,48.094-50.373S148.254,206.85,121.487,205.627z"/>
	</g>
	<g>
		<circle style="fill:#263A7A;" cx="394.911" cy="256" r="59.437"/>
	</g>
	<g>
		<path style="fill:#121149;" d="M394.911,196.563c32.827,0,59.437,26.612,59.437,59.437c0,32.827-26.612,59.437-59.437,59.437
			L394.911,196.563z"/>
	</g>
	<g>
		<path style="fill:#FFC91B;" d="M390.513,306.373c-17.07-10.283-28.489-28.993-28.489-50.373s11.419-40.089,28.489-50.373
			c-26.767,1.222-48.094,23.304-48.094,50.373S363.746,305.15,390.513,306.373z"/>
	</g>
</g>
<g>
</g>
<g>
</g>
<g>
</g>
<g>
</g>
<g>
</g>
<g>
</g>
<g>
</g>
<g>
</g>
<g>
</g>
<g>
</g>
<g>
</g>
<g>
</g>
<g>
</g>
<g>
</g>
<g>
</g>
</svg>
