<?xml version="1.0" encoding="iso-8859-1"?>
<!-- Generator: Adobe Illustrator 19.0.0, SVG Export Plug-In . SVG Version: 6.00 Build 0)  -->
<svg version="1.1" id="Layer_1" xmlns="http://www.w3.org/2000/svg" xmlns:xlink="http://www.w3.org/1999/xlink" x="0px" y="0px"
	 viewBox="0 0 512.002 512.002" style="enable-background:new 0 0 512.002 512.002;" xml:space="preserve">
<g>
	<g>
		<circle style="fill:#71E2F0;" cx="256" cy="256.001" r="256"/>
	</g>
	<path style="fill:#38C6D9;" d="M511.974,253.956L355.521,97.503L113.449,397.892l112.323,112.323
		c9.916,1.167,20.001,1.786,30.23,1.786c141.384,0,256-114.616,256-256C512,255.318,511.979,254.639,511.974,253.956z"/>
	<g>
		<path style="fill:#386895;" d="M113.778,199.112c0-78.546,63.676-142.222,142.222-142.222s142.222,63.676,142.222,142.222v56.889
			H113.778V199.112z"/>
	</g>
	<g>
		<path style="fill:#273B7A;" d="M398.222,199.112c0-78.451-63.521-142.058-141.934-142.215v199.104h141.934V199.112z"/>
	</g>
	<g>
		<path style="fill:#719EBC;" d="M251.259,56.89c-8.118,0-16.044,0.984-23.704,2.85c54.096,13.178,94.815,70.566,94.815,139.373
			v56.889h47.407v-56.889C369.778,120.566,316.716,56.89,251.259,56.89z"/>
	</g>
	<g>
		<circle style="fill:#FFFFFF;" cx="331.852" cy="132.742" r="18.963"/>
	</g>
	<g>
		<rect x="113.778" y="284.445" style="fill:#273B7A;" width="284.444" height="113.778"/>
	</g>
	<g>
		<rect x="256.288" y="284.445" style="fill:#121149;" width="141.934" height="113.778"/>
	</g>
	<g>
		<rect x="284.444" y="312.89" style="fill:#719EBC;" width="85.333" height="85.333"/>
	</g>
	<g>
		<path style="fill:#121149;" d="M113.588,290.048h284.824c8.94,0,16.187-7.247,16.187-16.187v-7.277
			c0-8.94-7.247-16.187-16.187-16.187H113.588c-8.94,0-16.187,7.247-16.187,16.187v7.277
			C97.401,282.801,104.648,290.048,113.588,290.048z"/>
	</g>
	<g>
		<path style="fill:#0D0D3A;" d="M398.412,250.398H256.288v39.65h142.124c8.94,0,16.188-7.247,16.188-16.187v-7.277
			C414.599,257.645,407.352,250.398,398.412,250.398z"/>
	</g>
</g>
<g>
</g>
<g>
</g>
<g>
</g>
<g>
</g>
<g>
</g>
<g>
</g>
<g>
</g>
<g>
</g>
<g>
</g>
<g>
</g>
<g>
</g>
<g>
</g>
<g>
</g>
<g>
</g>
<g>
</g>
</svg>
