<?xml version="1.0" encoding="iso-8859-1"?>
<!-- Generator: Adobe Illustrator 19.0.0, SVG Export Plug-In . SVG Version: 6.00 Build 0)  -->
<svg version="1.1" id="Layer_1" xmlns="http://www.w3.org/2000/svg" xmlns:xlink="http://www.w3.org/1999/xlink" x="0px" y="0px"
	 viewBox="0 0 512 512" style="enable-background:new 0 0 512 512;" xml:space="preserve">
<g>
	<g>
		<circle style="fill:#FEE187;" cx="256" cy="256" r="256"/>
	</g>
	<path style="fill:#FFC61B;" d="M369.545,148.316L143.519,364.753L288.696,509.93c115.236-14.691,206.541-105.993,221.234-221.229
		L369.545,148.316z"/>
	<g>
		<circle style="fill:#71E2EF;" cx="256" cy="256" r="156.444"/>
	</g>
	<g>
		<path style="fill:#38C6D9;" d="M256,99.556c86.402,0,156.444,70.042,156.444,156.444S342.402,412.444,256,412.444V99.556z"/>
	</g>
	<g>
		<path style="fill:#366695;" d="M297.207,105.051c-3.998,2.546-8.044,5.616-12.136,9.297c-9.568,8.604-6.684,35.1,23.63,45.723
			c10.702,3.749,19.728,10.554,26.939,17.784c-9.573-0.491-18.084,0.367-24.361,2.519c-13.453,4.613-16.377,15.803,0,56.889
			s37.064,45.684,28.444,85.333c-6.418,29.525,34.318,23.037,62.779-11.621c6.422-17.105,9.943-35.628,9.943-54.975
			C412.444,183.861,363.615,123.139,297.207,105.051z"/>
	</g>
	<g>
		<path style="fill:#366695;" d="M99.556,256c0,2.176,0.057,4.337,0.145,6.492c18.941,0.693,44.08-16.463,42.522-6.492
			c-1.672,10.711-22.469,19.241-40.758,24.467c8.142,51.838,41.739,95.222,87.597,116.965c5.515-10.592,10.049-21.421,10.049-27.653
			c0-56.315,24.71-51.143,28.444-85.333c3.734-34.19-46.268-16.61-56.889-28.444c-37.223-41.474,26.721-8.62,28.444-56.889
			c1.019-28.529,9.868-67.329,8.568-91.938C144.929,127.533,99.556,186.463,99.556,256z"/>
	</g>
</g>
<g>
</g>
<g>
</g>
<g>
</g>
<g>
</g>
<g>
</g>
<g>
</g>
<g>
</g>
<g>
</g>
<g>
</g>
<g>
</g>
<g>
</g>
<g>
</g>
<g>
</g>
<g>
</g>
<g>
</g>
</svg>
