<?xml version="1.0" encoding="iso-8859-1"?>
<!-- Generator: Adobe Illustrator 19.0.0, SVG Export Plug-In . SVG Version: 6.00 Build 0)  -->
<svg version="1.1" id="Layer_1" xmlns="http://www.w3.org/2000/svg" xmlns:xlink="http://www.w3.org/1999/xlink" x="0px" y="0px"
	 viewBox="0 0 512 512" style="enable-background:new 0 0 512 512;" xml:space="preserve">
<g>
	<g>
		<circle style="fill:#FF0F27;" cx="256" cy="256" r="256"/>
	</g>
	<path style="fill:#940030;" d="M510.735,230.467L381.199,100.931c-4.324,3.031-8.314,6.639-13.145,10.261
		c-8.62,8.62-13.791,20.687-22.411,29.306c-41.374,32.754-86.195,63.785-98.263,112.054
		c-16.556,62.09-47.495,119.727-101.604,145.582l113.821,113.821C399.322,510.028,512,396.183,512,256
		C512,247.382,511.567,238.866,510.735,230.467z"/>
	<g>
		<path style="fill:#FFC91B;" d="M284.444,208.593c-2.426,0-4.853-0.926-6.704-2.777c-3.703-3.701-3.703-9.706,0-13.407
			l85.333-85.333c3.699-3.703,9.707-3.703,13.407,0c3.703,3.701,3.703,9.706,0,13.407l-85.333,85.333
			C289.297,207.667,286.87,208.593,284.444,208.593z"/>
	</g>
	<g>
		<path style="fill:#D48B07;" d="M376.008,106.687l-98.654,98.654c0.136,0.155,0.24,0.326,0.388,0.474
			c1.85,1.851,4.277,2.777,6.704,2.777c2.427,0,4.853-0.926,6.704-2.777l85.333-85.333c3.703-3.701,3.703-9.706,0-13.407
			C376.334,106.927,376.161,106.822,376.008,106.687z"/>
	</g>
	<g>
		<path style="fill:#FFEDB5;" d="M252.513,228.645c42.689,42.689,106.798,50.845,157.71,24.531
			c4.873-2.519,5.904-9.052,2.026-12.933L240.914,68.91c-3.879-3.879-10.412-2.848-12.933,2.026
			C201.668,121.847,209.823,185.956,252.513,228.645z"/>
	</g>
	<g>
		<path style="fill:#E2C164;" d="M412.246,240.243l-84.899-84.899l-74.052,74.052c42.687,42.017,106.32,49.933,156.925,23.778
			C415.094,250.658,416.127,244.124,412.246,240.243z"/>
	</g>
	<g>
		<path style="fill:#FFC91B;" d="M170.667,398.222h170.667l-21.388-171.106c-4.03-32.249-31.444-56.449-63.945-56.449l0,0
			c-32.501,0-59.914,24.2-63.945,56.449L170.667,398.222z"/>
	</g>
	<g>
		<circle style="fill:#D48B07;" cx="256" cy="227.556" r="40.512"/>
	</g>
	<g>
		<circle style="fill:#FFEDB5;" cx="369.778" cy="113.778" r="17.239"/>
	</g>
	<g>
		<path style="fill:#FDE085;" d="M381.516,101.178l-24.338,24.338c3.148,3.377,7.62,5.501,12.6,5.501
			c9.521,0,17.239-7.718,17.239-17.239C387.017,108.797,384.893,104.326,381.516,101.178z"/>
	</g>
	<g>
		<path style="fill:#D48B07;" d="M355.556,402.963H156.444c-7.854,0-14.222-6.368-14.222-14.222l0,0
			c0-7.854,6.368-14.222,14.222-14.222h199.111c7.854,0,14.222,6.368,14.222,14.222l0,0
			C369.778,396.595,363.41,402.963,355.556,402.963z"/>
	</g>
</g>
<g>
</g>
<g>
</g>
<g>
</g>
<g>
</g>
<g>
</g>
<g>
</g>
<g>
</g>
<g>
</g>
<g>
</g>
<g>
</g>
<g>
</g>
<g>
</g>
<g>
</g>
<g>
</g>
<g>
</g>
</svg>
