<?xml version="1.0" encoding="iso-8859-1"?>
<!-- Generator: Adobe Illustrator 19.0.0, SVG Export Plug-In . SVG Version: 6.00 Build 0)  -->
<svg version="1.1" id="Layer_1" xmlns="http://www.w3.org/2000/svg" xmlns:xlink="http://www.w3.org/1999/xlink" x="0px" y="0px"
	 viewBox="0 0 512 512" style="enable-background:new 0 0 512 512;" xml:space="preserve">
<g>
	<g>
		<circle style="fill:#FF7F4F;" cx="256" cy="256" r="256"/>
	</g>
	<path style="fill:#FF5419;" d="M426.875,247.106l-237.821,190.69l74.1,74.1c114.945-3.155,210.947-82.077,239.894-188.618
		L426.875,247.106z"/>
	<g>
		<path style="fill:#940030;" d="M200.318,441.634h111.364c11.078,0,19.506-9.947,17.684-20.875l-13.236-79.413
			c-1.441-8.645-8.919-14.981-17.684-14.981h-84.894c-8.764,0-16.243,6.335-17.684,14.981l-13.236,79.413
			C180.812,431.687,189.238,441.634,200.318,441.634z"/>
	</g>
	<g>
		<path style="fill:#75002A;" d="M329.366,420.759l-13.236-79.413c-1.441-8.645-8.919-14.981-17.684-14.981H256v115.269h55.682
			C322.762,441.634,331.188,431.687,329.366,420.759z"/>
	</g>
	<path style="fill:#FFC91B;" d="M349.043,280.59l-73.218-146.435c5.311-5.168,8.62-12.381,8.62-20.377
		c0-15.71-12.734-28.444-28.444-28.444s-28.444,12.734-28.444,28.444c0,7.995,3.31,15.208,8.62,20.377L162.957,280.59
		c-2.129,4.258-0.403,9.437,3.853,11.564c4.26,2.132,9.437,0.402,11.564-3.853l73.226-146.451c1.438,0.224,2.898,0.374,4.398,0.374
		s2.962-0.15,4.398-0.374l73.226,146.451c1.51,3.02,4.555,4.767,7.716,4.767c1.295,0,2.612-0.293,3.848-0.912
		C349.446,290.025,351.172,284.846,349.043,280.59z"/>
	<path style="fill:#DBA50E;" d="M349.043,280.59l-73.218-146.435c5.311-5.168,8.62-12.381,8.62-20.377
		c0-15.71-12.734-28.444-28.444-28.444v56.889c1.5,0,2.96-0.15,4.398-0.374l73.226,146.451c1.51,3.02,4.555,4.767,7.716,4.767
		c1.295,0,2.612-0.293,3.848-0.912C349.446,290.025,351.172,284.846,349.043,280.59z"/>
	<g>
		<path style="fill:#FFEDB5;" d="M83.694,248.537C108.418,319.926,176.199,371.209,256,371.209s147.582-51.281,172.306-122.671
			H83.694z"/>
	</g>
	<g>
		<path style="fill:#FDE085;" d="M428.306,248.537H256v122.671C335.8,371.207,403.582,319.926,428.306,248.537z"/>
	</g>
</g>
<g>
</g>
<g>
</g>
<g>
</g>
<g>
</g>
<g>
</g>
<g>
</g>
<g>
</g>
<g>
</g>
<g>
</g>
<g>
</g>
<g>
</g>
<g>
</g>
<g>
</g>
<g>
</g>
<g>
</g>
</svg>
