<?xml version="1.0" encoding="iso-8859-1"?>
<!-- Generator: Adobe Illustrator 19.0.0, SVG Export Plug-In . SVG Version: 6.00 Build 0)  -->
<svg version="1.1" id="Layer_1" xmlns="http://www.w3.org/2000/svg" xmlns:xlink="http://www.w3.org/1999/xlink" x="0px" y="0px"
	 viewBox="0 0 512.002 512.002" style="enable-background:new 0 0 512.002 512.002;" xml:space="preserve">
<g>
	<g>
		<circle style="fill:#5488A8;" cx="256" cy="256.001" r="256"/>
	</g>
	<path style="fill:#386997;" d="M507.411,207.6l-66.794-66.794c-55.206,10.702-110.237,16.706-162.206,41.067
		c-32.754,17.239-63.785,37.926-87.919,63.785c-34.361,38.655-71.108,72.552-110.223,105.646L240.485,511.52
		c5.136,0.307,10.305,0.481,15.517,0.481c141.384,0,256-114.616,256-256C512,239.451,510.411,223.276,507.411,207.6z"/>
	<g>
		<path style="fill:#121149;" d="M317.774,159.388c-42.682,6.127-179.593,35.564-240.154,165.331
			c-5.882,12.602-0.696,27.605,11.742,33.825l80.077,40.038c15.165,7.582,33.33-1.389,36.607-18.025
			c8.656-43.944,36.824-120.634,128.278-173.702c14.507-8.418,17.017-28.353,5.156-40.214l0,0
			C333.784,160.946,325.747,158.245,317.774,159.388z"/>
	</g>
	<g>
		<path style="fill:#FFC91B;" d="M368.271,88.679l19.592,39.7c0.874,1.77,2.563,2.998,4.518,3.282l43.81,6.366
			c4.922,0.715,6.887,6.763,3.325,10.235l-31.701,30.901c-1.414,1.379-2.06,3.365-1.726,5.311l7.483,43.634
			c0.841,4.901-4.305,8.64-8.706,6.325l-39.186-20.601c-1.748-0.919-3.836-0.919-5.584,0l-39.184,20.601
			c-4.403,2.313-9.547-1.424-8.706-6.325l7.483-43.634c0.334-1.946-0.312-3.932-1.726-5.311l-31.701-30.901
			c-3.562-3.472-1.596-9.519,3.325-10.235l43.81-6.366c1.955-0.284,3.644-1.512,4.518-3.282l19.592-39.7
			C359.71,84.219,366.07,84.219,368.271,88.679z"/>
	</g>
	<g>
		<path style="fill:#D48B07;" d="M439.517,148.262c3.562-3.472,1.596-9.519-3.325-10.235l-43.811-6.366
			c-1.955-0.284-3.644-1.512-4.518-3.282l-19.59-39.7c-1.102-2.232-3.246-3.348-5.389-3.344v127.809
			c0.962-0.002,1.924,0.228,2.8,0.688l39.186,20.601c4.403,2.313,9.547-1.424,8.706-6.325l-7.483-43.634
			c-0.334-1.946,0.312-3.932,1.726-5.311L439.517,148.262z"/>
	</g>
</g>
<g>
</g>
<g>
</g>
<g>
</g>
<g>
</g>
<g>
</g>
<g>
</g>
<g>
</g>
<g>
</g>
<g>
</g>
<g>
</g>
<g>
</g>
<g>
</g>
<g>
</g>
<g>
</g>
<g>
</g>
</svg>
