<?xml version="1.0" encoding="iso-8859-1"?>
<!-- Generator: Adobe Illustrator 19.0.0, SVG Export Plug-In . SVG Version: 6.00 Build 0)  -->
<svg version="1.1" id="Layer_1" xmlns="http://www.w3.org/2000/svg" xmlns:xlink="http://www.w3.org/1999/xlink" x="0px" y="0px"
	 viewBox="0 0 512 512" style="enable-background:new 0 0 512 512;" xml:space="preserve">
<g>
	<g>
		<circle style="fill:#FEE187;" cx="256" cy="256" r="256"/>
	</g>
	<path style="fill:#FFC61B;" d="M511.933,250.651L406.185,144.903L105.977,367.257l144.674,144.674
		c1.779,0.036,3.562,0.067,5.349,0.067c141.384,0,256-114.616,256-256C512,254.212,511.969,252.43,511.933,250.651z"/>
	<g>
		<path style="fill:#FF5419;" d="M68.956,256c0-18.877,26.534-33.328,32.065-50.36c5.732-17.653-7.04-44.903,3.653-59.595
			c10.8-14.839,40.734-11.059,55.575-21.859c14.693-10.693,20.287-40.389,37.94-46.121c17.03-5.529,38.936,15.027,57.811,15.027
			c18.877,0,40.781-20.556,57.813-15.026c17.653,5.732,23.247,35.428,37.94,46.121c14.839,10.8,44.775,7.02,55.575,21.859
			c10.693,14.693-2.081,41.943,3.651,59.594c5.53,17.032,32.065,31.484,32.065,50.359c0,18.877-26.534,33.328-32.065,50.36
			c-5.732,17.653,7.04,44.903-3.653,59.595c-10.8,14.839-40.734,11.059-55.575,21.859c-14.693,10.693-20.287,40.389-37.94,46.121
			c-17.032,5.53-38.936-15.026-57.813-15.026s-40.781,20.556-57.813,15.026c-17.653-5.732-23.247-35.428-37.94-46.121
			c-14.839-10.8-44.775-7.02-55.575-21.859c-10.693-14.693,2.081-41.943-3.651-59.594C95.491,289.327,68.956,274.875,68.956,256z"/>
	</g>
	<g>
		<path style="fill:#940030;" d="M410.979,306.36c5.53-17.032,32.065-31.484,32.065-50.36c0-18.875-26.534-33.327-32.065-50.359
			c-5.732-17.653,7.042-44.901-3.651-59.594c-10.8-14.841-40.734-11.059-55.575-21.859c-14.693-10.693-20.287-40.389-37.94-46.121
			c-16.946-5.503-38.716,14.81-57.525,15.015v325.837c18.811,0.205,40.579,20.518,57.525,15.017
			c17.653-5.732,23.247-35.428,37.94-46.121c14.841-10.8,44.775-7.02,55.575-21.859C418.02,351.261,405.247,324.012,410.979,306.36z
			"/>
	</g>
	<g>
		<circle style="fill:#FF7F4F;" cx="256" cy="256" r="124.983"/>
	</g>
	<g>
		<path style="fill:#FF5419;" d="M380.983,256c0-68.93-55.803-124.819-124.695-124.976v249.953
			C325.18,380.819,380.983,324.93,380.983,256z"/>
	</g>
</g>
<g>
</g>
<g>
</g>
<g>
</g>
<g>
</g>
<g>
</g>
<g>
</g>
<g>
</g>
<g>
</g>
<g>
</g>
<g>
</g>
<g>
</g>
<g>
</g>
<g>
</g>
<g>
</g>
<g>
</g>
</svg>
