<?xml version="1.0" encoding="iso-8859-1"?>
<!-- Generator: Adobe Illustrator 21.0.0, SVG Export Plug-In . SVG Version: 6.00 Build 0)  -->
<svg version="1.1" id="Capa_1" xmlns="http://www.w3.org/2000/svg" xmlns:xlink="http://www.w3.org/1999/xlink" x="0px" y="0px"
	 viewBox="0 0 512 512" style="enable-background:new 0 0 512 512;" xml:space="preserve">
<g>
	<path style="fill:#1D3260;" d="M245.002,10.998c-18.27,0-36.068,2.016-53.197,5.809v478.385c17.13,3.793,34.927,5.809,53.197,5.809
		c135.311,0,245.002-109.691,245.002-245.002S380.313,10.998,245.002,10.998z"/>
	<path style="fill:#DEEEFA;" d="M209.171,16.066c-5.154,0-10.277,0.104-15.367,0.306C83.073,39.916,0,138.25,0,256
		s83.073,216.084,193.804,239.628c5.09,0.202,10.213,0.306,15.367,0.306C376.419,495.934,512,388.512,512,256
		S376.419,16.066,209.171,16.066z"/>
	<path style="fill:#B8DCF2;" d="M244.62,448.063c1.842-8.404-2.35-16.925-10.067-20.729
		C71.344,346.893,118.412,146.313,133.499,95.269c1.972-6.671-0.107-13.794-5.149-18.587c-16.442-15.628-5.473-32.844-5.217-33.239
		C49.558,85.712,0,165.059,0,256c0,117.75,83.073,216.084,193.804,239.628c5.091,0.202,10.214,0.306,15.367,0.306
		c21.1,0,41.693-1.715,61.576-4.969C243.362,479.928,241.786,460.989,244.62,448.063z"/>
	<path style="fill:#B8DCF2;" d="M386.573,132.7c-95.77-75.876-254.777-76.842-352.067-2.113C12.6,167.276,0,210.164,0,256
		c0,45.836,12.6,88.724,34.506,125.413c96.948,74.461,255.951,74.037,352.067-2.113C474.874,309.337,475.02,202.778,386.573,132.7z"
		/>
	<path style="fill:#89C2E5;" d="M242.699,435.097c-1.814-3.268-4.81-5.646-8.146-7.763
		C89.616,335.397,118.412,146.313,133.499,95.269c1.089-3.685,0.937-7.507-0.263-10.999c-36.13,8.901-70.103,24.329-98.729,46.317
		C12.6,167.276,0,210.164,0,256c0,45.836,12.6,88.724,34.506,125.413C91.056,424.846,168.718,442.788,242.699,435.097z"/>
	<path style="fill:#AA6355;" d="M485.764,243.319c1.415-1.56,1.054-4.01-0.74-5.113l-7.698-4.737
		c-1.727-1.062-2.128-3.399-0.855-4.977l5.869-7.272c1.087-1.346,0.975-3.316-0.26-4.529
		c-109.723-107.742-215.585-62.34-325.959-34.134C74.188,203.496,34.086,204.725,18.68,195.703
		c-4.51-2.641-7.337-7.355-7.672-12.537c-4.724,15.194-8.004,31.024-9.691,47.327C272.354,460.606,461.45,270.11,485.764,243.319z"
		/>
	<path style="fill:#975242;" d="M265.104,342.757c-39.374-27.485-50.922-78.393-50.922-78.393l-14.561-9.684
		c-37.291-37.291-14.308-79.894-14.308-79.894l-0.001,0c-9.699,2.646-19.427,5.277-29.191,7.772
		C74.188,203.496,34.087,204.725,18.68,195.703c-4.51-2.641-7.337-7.355-7.672-12.537c-4.724,15.194-8.004,31.024-9.691,47.327
		C101.96,315.94,191.3,343.383,265.104,342.757z"/>
	<path style="fill:#BA756A;" d="M485.024,238.206l-7.698-4.737c-1.727-1.063-2.129-3.399-0.856-4.977l5.869-7.272
		c1.087-1.346,0.975-3.317-0.259-4.529c-33.784-33.174-67.203-51.814-100.499-60.923c-22.615,19.505-36.95,48.346-36.95,80.553
		c0,32.324,14.438,61.259,37.195,80.766c57.714-25.725,94.157-62.991,103.938-73.768
		C487.179,241.759,486.818,239.309,485.024,238.206z"/>
	<circle style="fill:#AA6355;" cx="404.042" cy="213.898" r="15.38"/>
	<circle style="fill:#975242;" cx="400.553" cy="217.387" r="11.891"/>
	<g>
		<path style="fill:#FECF2B;" d="M199.622,273.159c-10.038,0-16.673-10.826-23.689-22.27c-2.825-4.606-7.32-11.941-10.164-14.505
			c-2.681,2.421-7.036,8.837-9.786,12.89c-8.096,11.927-15.765,23.172-26.854,22.011c-10.554-1.125-15.451-13.237-20.634-26.062
			c-1.981-4.901-5.131-12.693-7.458-15.681c-3.063,1.962-8.421,7.573-10.622,9.88c-3.334,3.49-8.868,3.618-12.36,0.287
			c-3.492-3.334-3.62-8.869-0.286-12.36c7.812-8.182,16.665-17.462,26.464-15.619c10.368,1.944,15.276,14.087,20.472,26.941
			c1.752,4.337,4.478,11.077,6.567,14.252c2.937-2.697,7.395-9.265,10.245-13.465c7.698-11.343,14.362-21.161,24.135-21.161
			c0.128,0,0.254,0.003,0.382,0.005c10.597,0.277,17.498,11.533,24.805,23.451c2.434,3.97,6.217,10.141,8.783,12.929
			c2.532-3.206,6.001-10.797,8.012-15.193c5.696-12.46,10.616-23.222,20.383-24.545c10.795-1.443,19.662,8.748,29.066,19.553
			c2.971,3.415,7.594,8.727,10.475,11.009c2.262-3.686,4.676-13.044,5.922-17.876c3.217-12.476,5.995-23.25,14.729-26.008
			c15.536-4.901,26.974,7.1,33.809,14.272c3.331,3.495,3.197,9.03-0.299,12.359c-3.495,3.333-9.027,3.198-12.359-0.298
			c-6.439-6.757-10.677-10.304-14.617-9.924c-1.42,2.666-3.147,9.365-4.333,13.964c-3.667,14.219-7.458,28.922-19.414,31.557
			c-9.898,2.176-17.873-6.975-27.101-17.579c-3.497-4.018-9.667-11.109-13.089-13.181c-2.164,2.796-5.292,9.638-7.27,13.964
			c-6.058,13.252-11.78,25.768-23.145,26.384C200.13,273.151,199.875,273.159,199.622,273.159z M166.883,235.568 M229.643,232.26
			L229.643,232.26L229.643,232.26z M102.277,228.917"/>
	</g>
	<g>
		<path style="fill:#FABD2B;" d="M209.098,265.833c-5.292,0-9.583-4.291-9.583-9.583c0-0.556,0.058-1.098,0.148-1.628
			c-0.014,0.018-0.028,0.04-0.042,0.057c-2.566-2.788-6.349-8.959-8.783-12.929c-7.307-11.917-14.208-23.174-24.805-23.451
			c-0.128-0.002-0.255-0.005-0.382-0.005c-9.773,0-16.438,9.817-24.136,21.161c-2.851,4.2-7.309,10.769-10.245,13.465
			c-2.089-3.174-4.814-9.915-6.567-14.252c-5.196-12.854-10.104-24.997-20.472-26.941c-9.799-1.843-18.652,7.437-26.464,15.619
			c-3.333,3.492-3.205,9.026,0.286,12.36c3.492,3.332,9.025,3.204,12.36-0.287c2.201-2.306,7.559-7.917,10.622-9.88
			c2.328,2.988,5.477,10.78,7.458,15.681c5.184,12.825,10.081,24.938,20.635,26.062c11.088,1.161,18.758-10.083,26.853-22.011
			c2.751-4.053,7.105-10.469,9.787-12.89c2.844,2.565,7.34,9.899,10.164,14.505c7.016,11.444,13.652,22.27,23.689,22.27
			c0.253,0,0.509-0.007,0.766-0.021c5.805-0.315,10.136-3.738,13.794-8.775C212.707,265.289,210.968,265.833,209.098,265.833z"/>
	</g>
	<g>
		<path style="fill:#96CC1F;" d="M200.671,313.758c-3.372-1.033-6.75-1.381-10.009-1.136c-5.692,0.427-11.016-3.254-12.272-8.823
			c-2.313-10.249-10.552-18.545-21.349-20.589c-1.931-0.365-3.852-0.514-5.738-0.464c-6.093,0.162-11.466-4.31-12.015-10.381
			c-1.037-11.48-9.424-21.815-21.909-24.178c-12.474-2.361-24.068,4.19-29.232,14.503c-2.728,5.448-9.364,7.644-14.975,5.267
			c-1.737-0.736-3.579-1.299-5.51-1.665c-10.8-2.044-21.499,2.67-27.396,11.362c-1.711,2.522-4.307,4.11-7.135,4.674l7.608,13.177
			l0,0l27.74,48.047l0.027,0.047l119.126,22.548c15.674,2.967,30.746-8.241,31.999-24.612
			C220.583,329.096,212.6,317.413,200.671,313.758z"/>
	</g>
	<g>
		<path style="fill:#7FBC0A;" d="M67.792,318.18c4.288-11.962,15.807-18.627,27.308-17.855c6.081,0.408,11.34-4.199,12.133-10.242
			c0.246-1.871,0.693-3.744,1.356-5.594c3.708-10.345,13.192-17.184,23.676-17.865c1.921-0.125,3.697-0.749,5.232-1.728
			c-3.235-8.239-10.435-14.875-20.118-16.708c-12.474-2.361-24.069,4.19-29.232,14.503c-2.728,5.448-9.364,7.644-14.975,5.267
			c-1.737-0.736-3.579-1.299-5.51-1.665c-10.8-2.044-21.499,2.67-27.396,11.362c-1.711,2.522-4.307,4.11-7.135,4.674l7.608,13.177
			l27.74,48.047l0.027,0.047l3.754,0.71C66.605,337.318,64.418,327.592,67.792,318.18z"/>
	</g>
	<g>
		<path style="fill:#7FBC0A;" d="M184.878,204.582c-6.902,0-12.847-5.571-12.847-12.847c0-8.249,7.603-14.141,15.353-12.59
			c6.307,1.28,10.342,6.759,10.342,12.59C197.725,198.688,192.086,204.582,184.878,204.582z"/>
	</g>
	<g>
		<path style="fill:#7FBC0A;" d="M278.969,334.966c-6.902,0-12.847-5.571-12.847-12.847c0-8.249,7.603-14.141,15.353-12.59
			c6.307,1.28,10.342,6.759,10.342,12.59C291.816,329.073,286.177,334.966,278.969,334.966z"/>
	</g>
	<g>
		<path style="fill:#F94862;" d="M257.128,293.243c-5.098,0-8.993-4.187-8.993-9.006c0-11.589,17.986-12.21,17.986,0
			C266.121,289.208,262.064,293.243,257.128,293.243z"/>
	</g>
	<g>
		<path style="fill:#7FBC0A;" d="M257.116,144.928c-7.055,0-12.835-5.722-12.835-12.847c0-8.224,7.564-14.159,15.353-12.59
			c6.241,1.267,10.342,6.701,10.342,12.59C269.976,139.052,264.312,144.928,257.116,144.928z"/>
	</g>
	<g>
		<path style="fill:#F94862;" d="M257.116,200.475c-7.055,0-12.835-5.722-12.835-12.847c0-8.223,7.564-14.159,15.353-12.59
			c6.241,1.267,10.342,6.701,10.342,12.59C269.976,194.599,264.312,200.475,257.116,200.475z"/>
	</g>
	<g>
		<path style="fill:#7FBC0A;" d="M293.506,294.724c-3.103-4.324-2.113-10.343,2.21-13.446l13.458-9.658
			c4.324-3.103,10.344-2.113,13.447,2.209c3.103,4.323,2.113,10.343-2.21,13.446l-13.458,9.658
			C302.619,300.042,296.604,299.04,293.506,294.724z"/>
	</g>
	<g>
		<path style="fill:#FC7E9C;" d="M35.356,280.745c-27.658,23.858-35.395,64.715-16.459,97.512
			c18.935,32.797,58.187,46.526,92.678,34.502c4.248-1.481,6.103-6.467,3.854-10.364l-69.17-119.806
			C44.008,278.693,38.763,277.806,35.356,280.745z"/>
		<path style="fill:#F94862;" d="M115.428,402.395l-41.302-71.537H34.63c-1.405,6.145-6.894,10.734-13.465,10.734
			c-5.485,0-10.21-3.203-12.444-7.834c-1.121,15.001,2.084,30.484,10.175,44.498c18.935,32.797,58.187,46.525,92.678,34.502
			C115.823,411.277,117.678,406.291,115.428,402.395z"/>
		<path style="fill:#F94862;" d="M80.324,341.593l-26.195-45.371c-1.216-0.034-2.453,0.358-3.463,1.229
			c-11.821,10.197-18.505,24.77-19.025,39.834L80.324,341.593z"/>
		<path style="fill:#DB2640;" d="M60.751,387.706c13.306,7.082,29.269,8.58,44.01,3.441c1.26-0.439,2.217-1.315,2.796-2.385
			l-26.195-45.371L60.751,387.706z"/>
		<path style="fill:#ED3346;" d="M79.829,340.735l-48.161-4.262c-0.503,10.208,1.824,20.674,7.316,30.186
			c5.491,9.512,13.392,16.76,22.484,21.429l20.389-43.839L79.829,340.735z"/>
		<g>
			<path style="fill:#FC7E9C;" d="M53.71,330.858c-4.808,0-8.482-3.949-8.482-8.494c0-10.93,16.964-11.516,16.964,0
				C62.193,327.053,58.365,330.858,53.71,330.858z"/>
		</g>
		<g>
			<path style="fill:#ED3346;" d="M84.154,385.706c-4.808,0-8.482-3.949-8.482-8.494c0-10.93,16.964-11.516,16.964,0
				C92.636,381.901,88.809,385.706,84.154,385.706z"/>
		</g>
		<g>
			<path style="fill:#F94862;" d="M58.506,364.943c-4.808,0-8.482-3.949-8.482-8.494c0-10.93,16.965-11.516,16.965,0
				C66.988,361.138,63.161,364.943,58.506,364.943z"/>
		</g>
	</g>
	<g>
		<path style="fill:#FC7E9C;" d="M108.388,280.745c-27.658,23.858-35.395,64.715-16.459,97.512
			c18.936,32.797,58.187,46.526,92.678,34.502c4.249-1.481,6.104-6.467,3.854-10.364l-69.17-119.806
			C117.04,278.693,111.795,277.806,108.388,280.745z"/>
		<path style="fill:#F94862;" d="M188.46,402.395l-41.302-71.537h-39.496c-1.405,6.145-6.894,10.734-13.465,10.734
			c-5.485,0-10.21-3.203-12.444-7.834c-1.121,15.001,2.085,30.484,10.175,44.498c18.936,32.797,58.187,46.525,92.678,34.502
			C188.855,411.277,190.71,406.291,188.46,402.395z"/>
		<path style="fill:#F94862;" d="M153.356,341.593l-26.195-45.371c-1.215-0.034-2.453,0.358-3.463,1.229
			c-11.822,10.197-18.505,24.77-19.025,39.834L153.356,341.593z"/>
		<path style="fill:#DB2640;" d="M133.783,387.706c13.305,7.082,29.269,8.58,44.01,3.441c1.26-0.439,2.217-1.315,2.796-2.385
			l-26.195-45.371L133.783,387.706z"/>
		<path style="fill:#ED3346;" d="M152.86,340.735l-48.161-4.262c-0.503,10.208,1.824,20.674,7.316,30.186
			c5.492,9.512,13.392,16.76,22.484,21.429l20.389-43.839L152.86,340.735z"/>
		<g>
			<path style="fill:#FC7E9C;" d="M126.742,330.858c-4.808,0-8.482-3.949-8.482-8.494c0-10.93,16.964-11.516,16.964,0
				C135.224,327.053,131.397,330.858,126.742,330.858z"/>
		</g>
		<g>
			<path style="fill:#ED3346;" d="M157.186,385.706c-4.808,0-8.482-3.949-8.482-8.494c0-10.93,16.964-11.516,16.964,0
				C165.668,381.901,161.841,385.706,157.186,385.706z"/>
		</g>
		<g>
			<path style="fill:#F94862;" d="M131.538,364.943c-4.808,0-8.482-3.949-8.482-8.494c0-10.93,16.965-11.516,16.965,0
				C140.02,361.138,136.193,364.943,131.538,364.943z"/>
		</g>
	</g>
	<g>
		<path style="fill:#FC7E9C;" d="M181.419,280.745c-27.658,23.858-35.395,64.715-16.459,97.512
			c18.936,32.797,58.187,46.526,92.678,34.502c4.249-1.481,6.103-6.467,3.854-10.364l-69.17-119.806
			C190.072,278.693,184.826,277.806,181.419,280.745z"/>
		<path style="fill:#F94862;" d="M261.491,402.395l-41.302-71.537h-39.496c-1.405,6.145-6.894,10.734-13.465,10.734
			c-5.485,0-10.21-3.203-12.444-7.834c-1.121,15.001,2.085,30.484,10.175,44.498c18.936,32.797,58.187,46.525,92.678,34.502
			C261.886,411.277,263.741,406.291,261.491,402.395z"/>
		<path style="fill:#F94862;" d="M226.387,341.593l-26.195-45.371c-1.216-0.034-2.453,0.358-3.463,1.229
			c-11.821,10.197-18.505,24.77-19.025,39.834L226.387,341.593z"/>
		<path style="fill:#DB2640;" d="M206.815,387.706c13.306,7.082,29.269,8.58,44.01,3.441c1.26-0.439,2.217-1.315,2.796-2.385
			l-26.195-45.371L206.815,387.706z"/>
		<path style="fill:#ED3346;" d="M225.892,340.735l-48.161-4.262c-0.503,10.208,1.824,20.674,7.316,30.186
			c5.492,9.512,13.392,16.76,22.484,21.429l20.389-43.839L225.892,340.735z"/>
		<g>
			<path style="fill:#FC7E9C;" d="M199.774,330.858c-4.808,0-8.482-3.949-8.482-8.494c0-10.93,16.964-11.516,16.964,0
				C208.256,327.053,204.429,330.858,199.774,330.858z"/>
		</g>
		<g>
			<path style="fill:#ED3346;" d="M230.218,385.706c-4.808,0-8.482-3.949-8.482-8.494c0-10.93,16.964-11.516,16.964,0
				C238.7,381.901,234.873,385.706,230.218,385.706z"/>
		</g>
		<g>
			<path style="fill:#F94862;" d="M204.569,364.943c-4.808,0-8.482-3.949-8.482-8.494c0-10.93,16.965-11.516,16.965,0
				C213.051,361.138,209.224,364.943,204.569,364.943z"/>
		</g>
	</g>
	
		<ellipse transform="matrix(0.9858 -0.1681 0.1681 0.9858 -24.2258 16.3642)" style="fill:#FFDD71;" cx="84.514" cy="151.229" rx="27.003" ry="27.003"/>
	<path style="fill:#FECF2B;" d="M79.157,143.09c2.343,13.735,14.674,23.262,28.274,22.411c-3.94,6.321-10.457,10.996-18.376,12.347
		c-14.701,2.508-28.651-7.377-31.159-22.077c-2.508-14.701,7.377-28.651,22.078-31.159c0.966-0.165,1.928-0.272,2.885-0.333
		C79.484,129.691,78,136.309,79.157,143.09z"/>
	
		<ellipse transform="matrix(0.9858 -0.1682 0.1682 0.9858 -20.1993 23.7087)" style="fill:#FECF2B;" cx="129.891" cy="131.124" rx="33.754" ry="33.754"/>
	<path style="fill:#FABD2B;" d="M117.879,124.12c3.122,18.302,20.432,30.627,38.726,27.63c-4.996,6.474-12.341,11.164-21.038,12.648
		c-18.377,3.135-35.815-9.221-38.95-27.598c-3.135-18.377,9.221-35.815,27.598-38.949c0.075-0.012,0.149-0.02,0.224-0.032
		C118.878,105.023,116.228,114.44,117.879,124.12z"/>
	
		<ellipse transform="matrix(0.9858 -0.1682 0.1682 0.9858 -18.1447 32.7416)" style="fill:#FABD2B;" cx="184.255" cy="123.509" rx="37.131" ry="37.131"/>
	<path style="fill:#F6AC2B;" d="M168.914,117.073c3.448,20.215,22.631,33.806,42.846,30.358c0.355-0.061,0.703-0.137,1.054-0.207
		c-5.465,6.588-13.215,11.334-22.315,12.887c-20.215,3.448-39.398-10.144-42.846-30.358c-3.388-19.86,9.677-38.713,29.305-42.639
		C170.282,95.161,167.018,105.957,168.914,117.073z"/>
</g>
<g>
</g>
<g>
</g>
<g>
</g>
<g>
</g>
<g>
</g>
<g>
</g>
<g>
</g>
<g>
</g>
<g>
</g>
<g>
</g>
<g>
</g>
<g>
</g>
<g>
</g>
<g>
</g>
<g>
</g>
</svg>
