<?xml version="1.0" encoding="iso-8859-1"?>
<!-- Generator: Adobe Illustrator 21.0.0, SVG Export Plug-In . SVG Version: 6.00 Build 0)  -->
<svg version="1.1" id="Capa_1" xmlns="http://www.w3.org/2000/svg" xmlns:xlink="http://www.w3.org/1999/xlink" x="0px" y="0px"
	 viewBox="0 0 512 512" style="enable-background:new 0 0 512 512;" xml:space="preserve">
<g>
	<path style="fill:#1D3260;" d="M131.672,478.135c25.624,15.122,54.238,25.709,84.745,30.665l72.305,1.019
		c30.382-4.056,59.003-13.673,84.802-27.804l72.305-60.134c34.481-42.211,55.172-96.128,55.172-154.882
		c0-135.311-109.691-245.002-245.002-245.002c-135.311,0-245.002,109.691-245.002,245.002c0,54.784,17.986,105.365,48.368,146.171
		L131.672,478.135z"/>
	<path style="fill:#B8DCF2;" d="M442.479,209.946c-9.835,7.516-20.986,11.759-32.803,11.759s-22.967-4.243-32.802-11.759
		c5.157,8.878,21.315,42.613,13.802,91.292c13.29,0,24.711,0,38.001,0C421.164,252.559,437.322,218.824,442.479,209.946z"/>
	<g>
		<path style="fill:#89C2E5;" d="M427.002,266.457c-0.928,6.297-6.405,11.197-13.048,11.197h-8.555
			c-6.643,0-12.12-4.901-13.048-11.197c0.626,10.508,0.27,22.181-1.675,34.78c13.291,0,24.711,0,38.002,0
			C426.733,288.639,426.377,276.965,427.002,266.457z"/>
	</g>
	<path style="fill:#B8DCF2;" d="M260.711,9.488c-72.679,30.842-66.063,203.565-64.101,236.723c0.201,3.394,2.213,6.409,5.265,7.905
		c1.8,0.882,3.986,1.953,6.363,3.118c15.992,7.836,26.133,24.093,26.133,41.901v4.966h38.412V17.573
		C272.783,11.351,266.438,7.058,260.711,9.488z"/>
	<g>
		<path style="fill:#89C2E5;" d="M242.252,275.215c-6.609,0-12.778-1.871-18.017-5.105c6.441,8.106,10.136,18.282,10.136,29.026
			v4.966h38.412v-47.509C267.078,267.65,255.552,275.215,242.252,275.215z"/>
	</g>
	<path style="fill:#DEEEFA;" d="M260.517,9.571c-35.932,15.403-52.42,65.56-59.678,116.259l8.825-2.976
		c5.72-1.929,9.999-6.746,11.21-12.66c8.319-40.607,23.775-77.505,51.91-92.136v-0.485C272.783,11.26,266.319,7.084,260.517,9.571z"
		/>
	<path style="fill:#FECF2B;" d="M433.139,300.065h-46.925c-3.155,0-5.713,2.558-5.713,5.713v22.196c0,3.155,2.558,5.713,5.713,5.713
		h46.925c3.155,0,5.713-2.558,5.713-5.713v-22.196C438.852,302.623,436.294,300.065,433.139,300.065z"/>
	<path style="fill:#FABD2B;" d="M407.168,316.877c0-9.285,7.527-16.811,16.811-16.811h-37.765c-3.155,0-5.713,2.558-5.713,5.713
		v22.196c0,3.155,2.558,5.713,5.713,5.713h37.765C414.694,333.688,407.168,326.161,407.168,316.877z"/>
	<path style="fill:#EE3346;" d="M445.83,421.881v-79.424c0-5.49-4.451-9.941-9.941-9.941h-52.424c-5.49,0-9.941,4.451-9.941,9.941
		v139.559C401.352,466.772,425.895,446.284,445.83,421.881z"/>
	<path style="fill:#FECF2B;" d="M276.032,300.065h-46.925c-3.155,0-5.713,2.558-5.713,5.713v22.196c0,3.155,2.558,5.713,5.713,5.713
		h46.925c3.155,0,5.713-2.558,5.713-5.713v-22.196C281.745,302.623,279.187,300.065,276.032,300.065z"/>
	<path style="fill:#FABD2B;" d="M250.06,316.877L250.06,316.877c0-9.285,7.527-16.811,16.811-16.811h-37.765
		c-3.155,0-5.713,2.558-5.713,5.713v22.196c0,3.155,2.558,5.713,5.713,5.713h37.765C257.587,333.688,250.06,326.161,250.06,316.877z
		"/>
	<path style="fill:#EE3346;" d="M278.781,332.515h-52.424c-5.49,0-9.941,4.451-9.941,9.941v166.344
		C229.303,510.894,242.521,512,256,512c11.097,0,22.017-0.752,32.722-2.181V342.456
		C288.722,336.966,284.272,332.515,278.781,332.515z"/>
	<path style="fill:#B8DCF2;" d="M48.219,168.511L56.232,9.257c0.254-4.851-3.473-8.99-8.325-9.244
		c-4.832-0.254-8.99,3.474-9.244,8.325l-7.431,142.098C35.015,157.162,40.895,163.428,48.219,168.511z"/>
	<path style="fill:#B8DCF2;" d="M143.089,167.623c0.001,0.012,0.003,0.022,0.004,0.034c7.171-5.24,12.93-11.6,16.659-18.277
		L152.369,8.338c-0.254-4.851-4.391-8.588-9.245-8.325c-4.851,0.254-8.578,4.393-8.325,9.245L143.089,167.623z"/>
	<path style="fill:#B8DCF2;" d="M106.275,182.136c-0.02,0.269-0.023,0.534-0.019,0.798c6.266-0.659,12.277-2.204,17.875-4.424
		c0.39-9.415-0.538-26.834-3.294-169.896c-0.102-4.857-4.127-8.671-8.979-8.611c-4.857,0.102-8.712,4.122-8.61,8.979
		C106.453,173.656,107.109,170.931,106.275,182.136z"/>
	<path style="fill:#B8DCF2;" d="M84.784,182.957c0.005-0.272,0.001-0.545-0.019-0.821c-0.837-11.212-0.175-8.641,3.027-173.153
		c0.102-4.857-3.753-8.877-8.61-8.979c-4.883-0.105-8.877,3.753-8.979,8.611c-2.724,141.438-3.758,159.184-3.271,170.176
		C72.524,180.89,78.528,182.339,84.784,182.957z"/>
	<path style="fill:#B8DCF2;" d="M121.671,224.077c-5.982,2.368-12.401,3.715-19.08,3.715H88.448c-6.679,0-13.098-1.347-19.08-3.715
		c6.054,15.678,12.418,43.038,7.151,77.161c13.291,0,24.711,0,38.001,0C109.253,267.115,115.617,239.754,121.671,224.077z"/>
	<g>
		<path style="fill:#89C2E5;" d="M112.845,266.457c-0.928,6.297-6.405,11.197-13.048,11.197h-8.555
			c-6.643,0-12.12-4.901-13.048-11.197c0.626,10.508,0.27,22.181-1.675,34.78c13.291,0,24.711,0,38.002,0
			C112.576,288.639,112.22,276.965,112.845,266.457z"/>
	</g>
	<path style="fill:#FECF2B;" d="M118.982,300.065H72.057c-3.155,0-5.713,2.558-5.713,5.713v22.196c0,3.155,2.558,5.713,5.713,5.713
		h46.925c3.155,0,5.713-2.558,5.713-5.713v-22.196C124.695,302.623,122.137,300.065,118.982,300.065z"/>
	<path style="fill:#FABD2B;" d="M93.011,316.877L93.011,316.877c0-9.285,7.527-16.811,16.811-16.811H72.057
		c-3.155,0-5.713,2.558-5.713,5.713v22.196c0,3.155,2.558,5.713,5.713,5.713h37.765C100.537,333.688,93.011,326.161,93.011,316.877z
		"/>
	<path style="fill:#EE3346;" d="M121.731,332.515H69.307c-5.49,0-9.941,4.451-9.941,9.941v70.712
		c19.489,26.174,44.085,48.313,72.306,64.967V342.456C131.673,336.966,127.222,332.515,121.731,332.515z"/>
	<path style="fill:#DB2640;" d="M409.677,419.714L409.677,419.714c-19.967,0-36.153-16.186-36.153-36.153v98.454
		c27.829-15.243,52.371-35.732,72.306-60.135v-38.319C445.83,403.528,429.643,419.714,409.677,419.714z"/>
	<path style="fill:#DB2640;" d="M252.569,419.714L252.569,419.714c-19.967,0-36.153-16.186-36.153-36.153V508.8
		c12.887,2.094,26.105,3.2,39.584,3.2c11.097,0,22.017-0.752,32.722-2.181V383.561C288.722,403.528,272.536,419.714,252.569,419.714
		z"/>
	<path style="fill:#DB2640;" d="M95.52,419.714L95.52,419.714c-19.967,0-36.153-16.186-36.153-36.153v29.607
		c19.489,26.174,44.085,48.313,72.306,64.967v-94.574C131.672,403.528,115.486,419.714,95.52,419.714z"/>
	<path style="fill:#DEEEFA;" d="M102.785,179.995h-14.53c-26.064,0-48.899-15.25-56.852-32.825l-0.886,15.566
		c-2.136,37.533,27.083,66.227,57.932,66.227h14.143c30.719,0,60.005-28.531,57.918-66.136l-0.927-16.697
		C151.628,163.706,128.849,179.995,102.785,179.995z"/>
	<ellipse style="fill:#DEEEFA;" cx="409.677" cy="115.838" rx="71.917" ry="107.04"/>
</g>
<g>
</g>
<g>
</g>
<g>
</g>
<g>
</g>
<g>
</g>
<g>
</g>
<g>
</g>
<g>
</g>
<g>
</g>
<g>
</g>
<g>
</g>
<g>
</g>
<g>
</g>
<g>
</g>
<g>
</g>
</svg>
