<?xml version="1.0" encoding="iso-8859-1"?>
<!-- Generator: Adobe Illustrator 21.0.0, SVG Export Plug-In . SVG Version: 6.00 Build 0)  -->
<svg version="1.1" id="Capa_1" xmlns="http://www.w3.org/2000/svg" xmlns:xlink="http://www.w3.org/1999/xlink" x="0px" y="0px"
	 viewBox="0 0 512 512" style="enable-background:new 0 0 512 512;" xml:space="preserve">
<g>
	<path style="fill:#1D3260;" d="M23.707,151.511L397.009,448.27c56.648-44.876,92.994-114.263,92.994-192.145
		c0-135.311-109.691-245.002-245.002-245.002c-97.833,0-182.26,57.35-221.53,140.258L23.707,151.511z"/>
	<path style="fill:#975242;" d="M25.591,364.974c40.132,80.554,123.301,135.903,219.411,135.903s179.279-55.349,219.411-135.903
		H25.591z"/>
	<g>
		<path style="fill:#823C33;" d="M236.853,364.974H25.591c38.412,77.102,116.254,131.106,207.132,135.593
			C145.188,496.025,148.981,364.974,236.853,364.974z"/>
	</g>
	<g>
		<path style="fill:#7FBC0A;" d="M107.82,181.867c-3.493-3.181-3.751-8.59-0.573-12.085c2.37-2.606,58.825-63.768,126.677-59.86
			c85.228,4.887,98.612-25.059,131.704-58.151c3.343-3.344,8.763-3.344,12.108-0.001c3.343,3.343,3.343,8.764,0,12.107
			c-32.366,32.366-50.994,68.527-144.793,63.138c-59.664-3.41-112.505,53.712-113.032,54.29
			C116.748,184.772,111.339,185.069,107.82,181.867z"/>
	</g>
	<g>
		<path style="fill:#79AD05;" d="M219.659,118.226c0-3.385,1.547-6.409,3.973-8.403c-63.179,2.289-114.135,57.485-116.384,59.958
			c-3.178,3.496-2.92,8.904,0.573,12.085c3.518,3.203,8.928,2.905,12.091-0.563c0.5-0.549,48.219-52.126,104.146-54.356
			C221.393,124.966,219.659,121.803,219.659,118.226z"/>
	</g>
	<path style="fill:#D1F44E;" d="M344.986,193.803c53.795,23.183,97.444-18.389,117.377-56.182
		c9.768-18.521,20.596-31.736,29.328-40.54c5.736-5.783,1.618-15.575-6.525-15.663c-108.048-1.166-138.358,76.53-145.299,101.47
		C338.639,187.298,340.782,191.991,344.986,193.803z"/>
	<g>
		<path style="fill:#B4E234;" d="M441.499,162.948c-12.15,0-22-9.85-22-22c0-0.008,0-0.017,0-0.025
			c0.001-1.264-1.007-2.302-2.27-2.257c-0.256,0.009-0.514,0.014-0.773,0.014c-12.615,0-22.75-10.617-21.956-23.403
			c0.302-4.864,2.233-9.321,5.24-12.839c-40.536,24.584-55.294,63.996-59.874,80.451c-1.227,4.41,0.915,9.103,5.119,10.915
			c41.888,18.052,77.623-3.159,100.801-31.276C444.4,162.801,442.967,162.948,441.499,162.948z"/>
	</g>
	<path style="fill:#B4E234;" d="M485.166,81.417c-108.048-1.166-138.358,76.53-145.299,101.47c-1.227,4.41,0.915,9.103,5.119,10.915
		c0.59,0.254,1.176,0.49,1.763,0.729c18.457-8.878,49.444-26.999,73.882-57.421c23.498-29.252,53.66-43.755,72.76-50.484
		C491.958,83.688,489.023,81.459,485.166,81.417z"/>
	<g>
		<path style="fill:#96CC1F;" d="M417.229,138.666c-0.256,0.009-0.514,0.014-0.773,0.014c-12.615,0-22.75-10.617-21.956-23.403
			c0.302-4.864,2.233-9.321,5.24-12.839c-40.536,24.584-55.294,63.996-59.874,80.451c-1.227,4.41,0.915,9.103,5.119,10.915
			c0.59,0.254,1.176,0.49,1.763,0.729c18.008-8.662,47.943-26.13,72.086-55.232C418.425,138.89,417.859,138.643,417.229,138.666z"/>
	</g>
	<path style="fill:#D1F44E;" d="M336.27,189.02c-40.149-14.359-42.753-58.158-34.606-88.174c3.993-14.71,4.787-27.12,4.508-36.141
		c-0.183-5.926,6.869-9.096,11.249-5.1c58.105,53.01,35.677,109.421,26.993,126.145C342.878,188.706,339.407,190.142,336.27,189.02z
		"/>
	<g>
		<path style="fill:#B4E234;" d="M340.928,129.554c-3.529,0-6.807-1.062-9.538-2.882c-1.359-0.905-3.204-0.734-4.204,0.558
			c-3.153,4.073-8.083,6.699-13.633,6.699c-6.824,0-12.716-3.965-15.514-9.714c-1.105,25.956,7.707,53.888,38.231,64.804
			c3.137,1.122,6.608-0.314,8.143-3.27c5.171-9.959,15.213-33.992,10.224-62.998C351.485,126.881,346.523,129.554,340.928,129.554z"
			/>
	</g>
	<path style="fill:#B4E234;" d="M306.171,64.705c0.279,9.022-0.515,21.432-4.508,36.141c-7.82,28.811-5.712,70.305,29.973,86.289
		c2.866-68.811-12.965-111.364-21.348-128.777C307.902,59.348,306.077,61.656,306.171,64.705z"/>
	<g>
		<path style="fill:#96CC1F;" d="M327.186,127.23c-3.153,4.073-8.083,6.699-13.633,6.699c-6.83,0-12.726-3.972-15.521-9.729
			c-1.042,24.584,6.828,50.941,33.605,62.935c0.972-23.344-0.211-43.656-2.521-60.999
			C328.374,126.234,327.677,126.595,327.186,127.23z"/>
	</g>
	<path style="fill:#D1F44E;" d="M200.922,115.178c-15.364-2.658-16.573-18.031-13.619-29.169c1.448-5.458,1.689-9.907,1.538-13.089
		c-0.099-2.09,2.571-3.642,4.259-2.491c22.395,15.275,14.132,36.639,10.907,43.096C203.438,114.666,202.123,115.386,200.922,115.178
		z"/>
	<path style="fill:#D1F44E;" d="M422.039,234.49c-7.839-26.007,14.394-42.148,33.453-47.974c9.34-2.855,16.23-6.621,20.908-9.81
		c3.073-2.095,7.47,0.555,7.036,4.211c-5.753,48.506-44.313,55.702-56.528,56.763C424.749,237.868,422.651,236.522,422.039,234.49z"
		/>
	<g>
		<path style="fill:#B4E234;" d="M459.929,223.851c-10.758,0-19.48-8.721-19.48-19.48c0-5.871,2.609-11.122,6.717-14.694
			c-16.509,7.521-31.838,22.548-25.128,44.812c0.613,2.032,2.71,3.378,4.87,3.19c6.888-0.598,22.153-3.149,35.189-13.957
			C461.385,223.803,460.663,223.851,459.929,223.851z"/>
	</g>
	<path style="fill:#D1F44E;" d="M265.881,59.999c-1.28,0.078-2.408,0.953-2.801,2.174c-1.538,4.768-0.78,10.183,2.524,14.44
		c3.303,4.257,8.361,6.336,13.362,6.03c1.28-0.078,2.407-0.953,2.801-2.174c1.538-4.768,0.78-10.184-2.524-14.44
		C275.939,61.771,270.882,59.692,265.881,59.999z"/>
	<path style="fill:#79AD05;" d="M23.755,150.523C8.531,182.438,0,218.159,0,255.875c0,40.759,9.965,79.187,27.574,112.999h303.229
		v-2.283c-58.013-1.2-104.673-48.598-104.673-106.899c0-58.3,46.66-105.698,104.673-106.898v-2.283H24.707
		C24.389,150.511,24.073,150.52,23.755,150.523z"/>
	<g>
		<path style="fill:#7FBC0A;" d="M218.603,228.357c-9.652-1.137-19.255-3.388-28.964-2.939c-7.485,0.346-14.85,2.295-22.344,2.325
			c-10.338,0.041-20.302-3.556-30.012-7.106c-10.123-3.701-20.245-7.402-30.368-11.103c-7.941-2.904-16.269-5.854-24.652-4.751
			c-11.628,1.529-20.776,10.427-31.528,15.111c-13.356,5.818-28.535,4.898-43.085,4.207c-1.856-0.088-3.713-0.156-5.569-0.233
			C0.714,234.343,0,245.025,0,255.875c0,3.605,0.094,7.188,0.248,10.755c0.466,0.084,0.933,0.158,1.396,0.257
			c12.709,2.72,23.512,10.998,35.819,15.176c15.548,5.277,33.336,3.524,47.556-4.686c7.607-4.393,14.364-10.583,22.813-12.988
			c18.626-5.301,37.385,9.392,56.739,8.731c7.682-0.262,15.056-2.948,22.634-4.238c7.578-1.29,16.085-0.931,21.96,4.026
			c1.883,1.589,3.391,3.567,5.096,5.345c4.361,4.545,9.761,7.577,15.651,9.708c-2.463-9.005-3.783-18.482-3.783-28.269
			c0-10.601,1.549-20.839,4.423-30.507C226.559,229.098,222.57,228.824,218.603,228.357z"/>
	</g>
	<g>
		<path style="fill:#7FBC0A;" d="M23.753,150.528c-1.905,3.995-3.699,8.053-5.391,12.164c1.643,0.293,3.276,0.661,4.896,1.121
			c5.48,1.557,10.646,4.098,16.146,5.583c22.92,6.19,46.672-6.676,70.408-6.155c22.212,0.488,42.404,12.568,64.101,17.353
			c17.737,3.912,36.55,2.817,53.714-3.125c4.964-1.719,9.915-3.859,15.165-4.029c4.598-0.149,9.095,1.228,13.473,2.639
			c2.423,0.78,4.834,1.593,7.246,2.403c18.168-15.571,41.616-25.157,67.293-25.688v-2.283H24.707
			C24.388,150.511,24.072,150.525,23.753,150.528z"/>
	</g>
	<g>
		<path style="fill:#7FBC0A;" d="M240.721,313.633l-3.117-2.171c-7.302,2.815-14.499,5.903-21.871,8.527
			c-22.187,7.897-45.663,11.494-69.077,14.021c-27.609,2.979-56.54,4.344-82.135-6.429c-8.828-3.715-17.116-8.828-26.354-11.363
			c-10.175-2.792-20.429-2.277-30.727-0.232c2.759,10.937,6.258,21.578,10.432,31.875c1.159-0.177,2.321-0.331,3.493-0.428
			c21.389-1.783,41.026,10.558,59.746,21.056c0.232,0.13,0.468,0.255,0.701,0.385h211.507l2.507-8.928
			C272.552,351.3,253.107,334.787,240.721,313.633z"/>
	</g>
	<g>
		
			<ellipse transform="matrix(0.5 -0.866 0.866 0.5 -59.5054 416.3544)" style="fill:#96CC1F;" cx="330.821" cy="259.71" rx="109.181" ry="109.181"/>
		<g>
			<path style="fill:#7FBC0A;" d="M412.318,305.267c-2.305-1.038-4.251-2.499-5.804-4.24c-2.615-2.934-6.288-4.698-10.218-4.715
				c-4.459-0.019-8.973-1.165-13.111-3.554c-3.596-2.076-6.52-4.868-8.698-8.092c-2.926-4.33-8.236-6.48-13.372-5.518
				c-12.164,2.278-25.169,0.393-36.727-6.281c-11.713-6.762-19.913-17.268-23.969-29.133c-1.805-5.279-6.63-9.062-12.205-9.289
				c-4.141-0.168-8.303-1.313-12.142-3.53c-4.139-2.389-7.388-5.727-9.634-9.579c-1.958-3.359-5.261-5.703-9.073-6.465
				c-1.781-0.356-3.536-1.005-5.197-1.964c-7.06-4.076-10.104-12.408-7.805-19.882c-2.923,3.799-5.633,7.831-8.096,12.095
				c-30.15,52.221-12.257,118.995,39.963,149.144c52.221,30.15,118.995,12.258,149.145-39.963c2.427-4.204,4.539-8.503,6.35-12.87
				C426.81,306.565,418.965,308.258,412.318,305.267z"/>
		</g>
		
			<ellipse transform="matrix(0.5 -0.866 0.866 0.5 -59.5053 416.3546)" style="fill:#D0EA8B;" cx="330.821" cy="259.71" rx="80.647" ry="80.647"/>
		<g>
			<path style="fill:#B9D65F;" d="M396.296,296.311c-4.459-0.019-8.973-1.165-13.111-3.554c-3.596-2.076-6.52-4.868-8.698-8.092
				c-2.926-4.33-8.236-6.48-13.372-5.518c-12.164,2.278-25.169,0.393-36.727-6.281c-11.713-6.762-19.913-17.268-23.969-29.133
				c-1.805-5.279-6.63-9.062-12.205-9.289c-4.141-0.168-8.303-1.313-12.142-3.53c-4.139-2.389-7.388-5.727-9.634-9.579
				c-1.014-1.739-2.394-3.199-4.012-4.315c-0.488,0.783-0.982,1.56-1.447,2.366c-22.27,38.573-9.054,87.896,29.519,110.166
				c38.573,22.27,87.896,9.054,110.167-29.519c0.461-0.799,0.884-1.609,1.315-2.416C400.22,296.784,398.292,296.32,396.296,296.311z
				"/>
		</g>
		
			<ellipse transform="matrix(0.5 -0.866 0.866 0.5 -59.5053 417.3616)" style="fill:#B9D65F;" cx="331.693" cy="260.214" rx="39.141" ry="39.141"/>
		<path style="fill:#96CC1F;" d="M365.943,279.138c-1.573-0.286-3.209-0.293-4.827,0.01c-12.164,2.278-25.169,0.393-36.727-6.281
			c-11.713-6.762-19.913-17.268-23.969-29.133c-0.492-1.438-1.214-2.759-2.108-3.934c-0.172,0.281-0.35,0.556-0.515,0.843
			c-10.809,18.721-4.394,42.66,14.327,53.468c18.721,10.809,42.659,4.394,53.468-14.327
			C365.714,279.57,365.823,279.353,365.943,279.138z"/>
		
			<ellipse transform="matrix(0.5 -0.866 0.866 0.5 -59.5056 372.3204)" style="fill:#F4FFD2;" cx="292.687" cy="237.694" rx="7.771" ry="14.346"/>
		
			<ellipse transform="matrix(0.5 -0.866 0.866 0.5 -59.5056 460.3876)" style="fill:#F4FFD2;" cx="368.955" cy="281.727" rx="7.771" ry="14.346"/>
		
			<ellipse transform="matrix(0.5 -0.866 0.866 0.5 -15.4716 416.3548)" style="fill:#F4FFD2;" cx="352.838" cy="221.576" rx="14.346" ry="7.771"/>
		
			<ellipse transform="matrix(0.5 -0.866 0.866 0.5 -103.5389 416.3548)" style="fill:#F4FFD2;" cx="308.804" cy="297.845" rx="14.346" ry="7.771"/>
		
			<ellipse transform="matrix(0.9659 -0.2588 0.2588 0.9659 -60.3446 83.8521)" style="fill:#F4FFD2;" cx="288.288" cy="271.107" rx="14.346" ry="7.771"/>
		
			<ellipse transform="matrix(0.9659 -0.2588 0.2588 0.9659 -51.5461 105.0909)" style="fill:#F4FFD2;" cx="373.354" cy="248.314" rx="14.346" ry="7.771"/>
		
			<ellipse transform="matrix(0.9659 -0.2588 0.2588 0.9659 -45.3247 90.0709)" style="fill:#F4FFD2;" cx="319.424" cy="217.177" rx="7.771" ry="14.346"/>
		
			<ellipse transform="matrix(0.9659 -0.2588 0.2588 0.9659 -66.566 98.8718)" style="fill:#F4FFD2;" cx="342.218" cy="302.244" rx="7.771" ry="14.346"/>
	</g>
	<ellipse style="fill:#F4FFD2;" cx="330.803" cy="303.726" rx="7.771" ry="14.346"/>
	<ellipse style="fill:#F4FFD2;" cx="374.836" cy="259.692" rx="14.346" ry="7.771"/>
	<ellipse style="fill:#F4FFD2;" cx="286.769" cy="259.692" rx="14.346" ry="7.771"/>
	
		<ellipse transform="matrix(0.7071 -0.7071 0.7071 0.7071 -99.6379 341.1073)" style="fill:#F4FFD2;" cx="361.939" cy="290.829" rx="7.771" ry="14.346"/>
	
		<ellipse transform="matrix(0.7071 -0.7071 0.7071 0.7071 -117.8768 297.0778)" style="fill:#F4FFD2;" cx="299.666" cy="290.829" rx="14.346" ry="7.771"/>
	<path style="fill:#B4E234;" d="M470.436,238.794c-0.474,1.191-0.163,2.584,0.773,3.46c3.658,3.423,8.881,5.044,14.14,3.868
		c5.258-1.175,9.294-4.866,11.147-9.52c0.474-1.191,0.163-2.584-0.773-3.46c-3.659-3.423-8.881-5.043-14.14-3.868
		C476.325,230.449,472.289,234.139,470.436,238.794z"/>
	<g>
		<path style="fill:#B4E234;" d="M198.601,99.268c-5.806,0-10.68-3.937-12.131-9.284c-1.653,10.523,0.851,22.841,14.453,25.194
			c1.201,0.208,2.515-0.512,3.086-1.653c1.639-3.282,4.572-10.416,4.127-18.642C205.827,97.564,202.416,99.268,198.601,99.268z"/>
	</g>
	<g>
		<ellipse style="fill:#7FBC0A;" cx="313.733" cy="353.325" rx="122.818" ry="109.181"/>
		<path style="fill:#79AD05;" d="M274.779,447.879c-52.22-30.149-70.113-96.923-39.963-149.144c2.244-3.888,4.696-7.58,7.326-11.082
			l-1.23-1.013c0,0-23.271,19.078-26.718,2.728c-14.641,17.976-23.278,40.069-23.278,63.958
			c0,60.299,54.987,109.181,122.818,109.181c2.719,0,5.415-0.088,8.091-0.242C305.75,461.162,289.672,456.478,274.779,447.879z"/>
		
			<ellipse transform="matrix(0.5 -0.866 0.866 0.5 -142.3039 460.1725)" style="fill:#96CC1F;" cx="327.369" cy="353.325" rx="109.181" ry="109.181"/>
		<g>
			<path style="fill:#7FBC0A;" d="M408.867,398.881c-2.305-1.038-4.251-2.499-5.804-4.24c-2.616-2.934-6.288-4.698-10.218-4.715
				c-4.459-0.019-8.973-1.165-13.111-3.554c-3.596-2.076-6.52-4.868-8.698-8.092c-2.926-4.33-8.236-6.48-13.372-5.518
				c-12.164,2.278-25.169,0.393-36.727-6.281c-11.713-6.762-19.913-17.268-23.969-29.133c-1.805-5.279-6.63-9.062-12.205-9.289
				c-4.141-0.168-8.303-1.313-12.142-3.53c-4.139-2.389-7.388-5.727-9.634-9.579c-1.958-3.358-5.261-5.703-9.073-6.465
				c-1.781-0.356-3.536-1.005-5.197-1.964c-7.059-4.076-10.104-12.408-7.805-19.882c-2.923,3.799-5.633,7.831-8.096,12.095
				c-30.15,52.221-12.257,118.995,39.963,149.144c52.221,30.15,118.995,12.258,149.145-39.963c2.427-4.204,4.539-8.504,6.35-12.87
				C423.358,400.179,415.513,401.873,408.867,398.881z"/>
		</g>
		
			<ellipse transform="matrix(0.5 -0.866 0.866 0.5 -142.3038 460.1727)" style="fill:#D0EA8B;" cx="327.369" cy="353.325" rx="80.647" ry="80.647"/>
		<g>
			<path style="fill:#B9D65F;" d="M392.844,389.926c-4.459-0.019-8.973-1.165-13.111-3.554c-3.596-2.076-6.52-4.868-8.698-8.092
				c-2.926-4.33-8.236-6.48-13.372-5.518c-12.164,2.278-25.169,0.393-36.727-6.281c-11.713-6.762-19.913-17.268-23.969-29.133
				c-1.805-5.279-6.63-9.062-12.205-9.289c-4.141-0.168-8.303-1.313-12.142-3.53c-4.139-2.389-7.388-5.727-9.634-9.579
				c-1.014-1.739-2.393-3.199-4.012-4.315c-0.488,0.783-0.982,1.56-1.447,2.366c-22.27,38.573-9.054,87.896,29.519,110.166
				c38.573,22.27,87.896,9.054,110.167-29.519c0.461-0.799,0.884-1.609,1.315-2.416
				C396.768,390.398,394.841,389.935,392.844,389.926z"/>
		</g>
		
			<ellipse transform="matrix(0.5 -0.866 0.866 0.5 -142.3039 461.1797)" style="fill:#B9D65F;" cx="328.241" cy="353.829" rx="39.141" ry="39.141"/>
		<path style="fill:#96CC1F;" d="M362.491,372.752c-1.573-0.286-3.209-0.293-4.827,0.01c-12.164,2.278-25.169,0.393-36.727-6.281
			c-11.713-6.762-19.913-17.268-23.969-29.133c-0.492-1.438-1.214-2.759-2.108-3.934c-0.172,0.281-0.35,0.556-0.515,0.843
			c-10.809,18.721-4.394,42.659,14.327,53.468c18.721,10.809,42.659,4.394,53.468-14.327
			C362.262,373.185,362.372,372.967,362.491,372.752z"/>
		
			<ellipse transform="matrix(0.5 -0.866 0.866 0.5 -142.3041 416.1379)" style="fill:#F4FFD2;" cx="289.235" cy="331.308" rx="7.771" ry="14.346"/>
		
			<ellipse transform="matrix(0.5 -0.866 0.866 0.5 -142.304 504.2056)" style="fill:#F4FFD2;" cx="365.504" cy="375.342" rx="7.771" ry="14.346"/>
		
			<ellipse transform="matrix(0.5 -0.866 0.866 0.5 -98.2702 460.1731)" style="fill:#F4FFD2;" cx="349.386" cy="315.191" rx="14.346" ry="7.771"/>
		
			<ellipse transform="matrix(0.5 -0.866 0.866 0.5 -186.3374 460.1731)" style="fill:#F4FFD2;" cx="305.352" cy="391.459" rx="14.346" ry="7.771"/>
		
			<ellipse transform="matrix(0.9659 -0.2588 0.2588 0.9659 -84.6914 86.1486)" style="fill:#F4FFD2;" cx="284.836" cy="364.722" rx="14.346" ry="7.771"/>
		
			<ellipse transform="matrix(0.9659 -0.2588 0.2588 0.9659 -75.8924 107.3867)" style="fill:#F4FFD2;" cx="369.903" cy="341.928" rx="14.346" ry="7.771"/>
		
			<ellipse transform="matrix(0.9659 -0.2588 0.2588 0.9659 -69.671 92.3673)" style="fill:#F4FFD2;" cx="315.973" cy="310.792" rx="7.771" ry="14.346"/>
		
			<ellipse transform="matrix(0.9659 -0.2588 0.2588 0.9659 -90.913 101.1684)" style="fill:#F4FFD2;" cx="338.766" cy="395.858" rx="7.771" ry="14.346"/>
	</g>
	<g>
		<ellipse style="fill:#7FBC0A;" cx="389.164" cy="353.325" rx="122.818" ry="109.181"/>
		<path style="fill:#79AD05;" d="M350.21,447.879c-52.22-30.149-70.113-96.923-39.963-149.144c2.244-3.888,4.696-7.58,7.326-11.082
			l-1.23-1.013c0,0-23.271,19.078-26.718,2.728c-14.641,17.976-23.278,40.069-23.278,63.958
			c0,60.299,54.987,109.181,122.818,109.181c2.719,0,5.415-0.088,8.091-0.242C381.181,461.162,365.103,456.478,350.21,447.879z"/>
		
			<ellipse transform="matrix(0.5 -0.866 0.866 0.5 -104.5882 525.4981)" style="fill:#96CC1F;" cx="402.801" cy="353.325" rx="109.181" ry="109.181"/>
		<g>
			<path style="fill:#7FBC0A;" d="M484.298,398.881c-2.305-1.038-4.251-2.499-5.804-4.24c-2.616-2.934-6.288-4.698-10.218-4.715
				c-4.459-0.019-8.973-1.165-13.111-3.554c-3.596-2.076-6.52-4.868-8.698-8.092c-2.926-4.33-8.236-6.48-13.372-5.518
				c-12.164,2.278-25.169,0.393-36.727-6.281c-11.713-6.762-19.913-17.268-23.969-29.133c-1.805-5.279-6.63-9.062-12.205-9.289
				c-4.141-0.168-8.303-1.313-12.142-3.53c-4.139-2.389-7.388-5.727-9.634-9.579c-1.958-3.358-5.261-5.703-9.073-6.465
				c-1.781-0.356-3.536-1.005-5.197-1.964c-7.06-4.076-10.104-12.408-7.805-19.882c-2.923,3.799-5.633,7.831-8.096,12.095
				c-30.15,52.221-12.257,118.995,39.963,149.144c52.221,30.15,118.995,12.258,149.145-39.963c2.427-4.204,4.539-8.504,6.35-12.87
				C498.789,400.179,490.944,401.873,484.298,398.881z"/>
		</g>
		
			<ellipse transform="matrix(0.5 -0.866 0.866 0.5 -104.5882 525.498)" style="fill:#D0EA8B;" cx="402.801" cy="353.325" rx="80.647" ry="80.647"/>
		<g>
			<path style="fill:#B9D65F;" d="M468.276,389.926c-4.459-0.019-8.973-1.165-13.111-3.554c-3.596-2.076-6.52-4.868-8.698-8.092
				c-2.926-4.33-8.236-6.48-13.372-5.518c-12.164,2.278-25.169,0.393-36.727-6.281c-11.713-6.762-19.913-17.268-23.969-29.133
				c-1.805-5.279-6.63-9.062-12.205-9.289c-4.141-0.168-8.303-1.313-12.142-3.53c-4.139-2.389-7.388-5.727-9.634-9.579
				c-1.014-1.739-2.393-3.199-4.012-4.315c-0.488,0.783-0.982,1.56-1.447,2.366c-22.27,38.573-9.054,87.896,29.519,110.166
				c38.573,22.27,87.896,9.054,110.167-29.519c0.461-0.799,0.884-1.609,1.315-2.416C472.2,390.398,470.272,389.935,468.276,389.926z
				"/>
		</g>
		
			<ellipse transform="matrix(0.5 -0.866 0.866 0.5 -104.5883 526.505)" style="fill:#B9D65F;" cx="403.673" cy="353.829" rx="39.141" ry="39.141"/>
		<path style="fill:#96CC1F;" d="M437.922,372.752c-1.573-0.286-3.209-0.293-4.827,0.01c-12.164,2.278-25.169,0.393-36.727-6.281
			c-11.713-6.762-19.913-17.268-23.969-29.133c-0.492-1.438-1.214-2.759-2.108-3.934c-0.172,0.281-0.35,0.556-0.515,0.843
			c-10.809,18.721-4.394,42.659,14.327,53.468c18.721,10.809,42.659,4.394,53.468-14.327
			C437.694,373.185,437.803,372.967,437.922,372.752z"/>
		
			<ellipse transform="matrix(0.5 -0.866 0.866 0.5 -104.5885 481.4637)" style="fill:#F4FFD2;" cx="364.666" cy="331.308" rx="7.771" ry="14.346"/>
		
			<ellipse transform="matrix(0.5 -0.866 0.866 0.5 -104.5886 569.5309)" style="fill:#F4FFD2;" cx="440.935" cy="375.342" rx="7.771" ry="14.346"/>
		
			<ellipse transform="matrix(0.5 -0.866 0.866 0.5 -60.5552 525.4969)" style="fill:#F4FFD2;" cx="424.817" cy="315.191" rx="14.346" ry="7.771"/>
		
			<ellipse transform="matrix(0.5 -0.866 0.866 0.5 -148.6222 525.4968)" style="fill:#F4FFD2;" cx="380.784" cy="391.459" rx="14.346" ry="7.771"/>
		
			<ellipse transform="matrix(0.9659 -0.2588 0.2588 0.9659 -82.1212 105.6716)" style="fill:#F4FFD2;" cx="360.267" cy="364.722" rx="14.346" ry="7.771"/>
		
			<ellipse transform="matrix(0.9659 -0.2588 0.2588 0.9659 -73.3222 126.9094)" style="fill:#F4FFD2;" cx="445.334" cy="341.928" rx="14.346" ry="7.771"/>
		
			<ellipse transform="matrix(0.9659 -0.2588 0.2588 0.9659 -67.1009 111.8899)" style="fill:#F4FFD2;" cx="391.404" cy="310.792" rx="7.771" ry="14.346"/>
		
			<ellipse transform="matrix(0.9659 -0.2588 0.2588 0.9659 -88.3427 120.6916)" style="fill:#F4FFD2;" cx="414.197" cy="395.858" rx="7.771" ry="14.346"/>
	</g>
</g>
<g>
</g>
<g>
</g>
<g>
</g>
<g>
</g>
<g>
</g>
<g>
</g>
<g>
</g>
<g>
</g>
<g>
</g>
<g>
</g>
<g>
</g>
<g>
</g>
<g>
</g>
<g>
</g>
<g>
</g>
</svg>
