<?xml version="1.0" encoding="iso-8859-1"?>
<!-- Generator: Adobe Illustrator 21.0.0, SVG Export Plug-In . SVG Version: 6.00 Build 0)  -->
<svg version="1.1" id="Capa_1" xmlns="http://www.w3.org/2000/svg" xmlns:xlink="http://www.w3.org/1999/xlink" x="0px" y="0px"
	 viewBox="0 0 512 512" style="enable-background:new 0 0 512 512;" xml:space="preserve">
<g>
	<path style="fill:#7FBC0A;" d="M256,21.997c-135.311,0-245.002,109.691-245.002,245.002c0,89.917,48.448,168.506,120.655,211.126
		l249.974-0.757c71.5-42.79,119.375-120.983,119.375-210.369C501.002,131.688,391.311,21.997,256,21.997z"/>
	<g>
		<path style="fill:#DEEEFA;" d="M270.101,23.683V13.016C270.101,5.857,264.244,0,257.085,0c-7.159,0-13.016,5.857-13.016,13.016
			v10.667H270.101z"/>
	</g>
	<path style="fill:#0D9CDA;" d="M330.72,22.602H183.45c-7.159,0-13.016,5.857-13.016,13.016c0,7.159,5.857,13.016,13.016,13.016
		h147.27c7.159,0,13.016-5.857,13.016-13.016C343.736,28.459,337.879,22.602,330.72,22.602z"/>
	<path style="fill:#0F89CB;" d="M217.574,35.618c0-7.159,5.857-13.016,13.016-13.016H183.45c-7.158,0-13.016,5.857-13.016,13.016
		c0,7.159,5.857,13.016,13.016,13.016h47.141C223.432,48.634,217.574,42.777,217.574,35.618z"/>
	<polygon style="fill:#0D9CDA;" points="170.626,358.815 174.428,388.974 339.047,388.974 342.848,358.815 	"/>
	<path style="fill:#0F89CB;" d="M242.13,375.781L242.13,375.781c-1.135-9.005,5.885-16.966,14.962-16.966h-86.466l3.802,30.159
		h82.664C249.492,388.974,243.081,383.32,242.13,375.781z"/>
	<path style="fill:#0F89CB;" d="M257.085,75.748h107.029c0.372,0,0.739,0.025,1.1,0.065V59.901c0-6.792-5.557-12.348-12.348-12.348
		H164.214c-6.791,0-12.348,5.557-12.348,12.348v15.846H257.085z"/>
	<g>
		<path style="fill:#1075BB;" d="M211.354,47.553h-47.14c-6.791,0-12.348,5.557-12.348,12.348v15.846h47.141V59.901
			C199.007,53.11,204.563,47.553,211.354,47.553z"/>
	</g>
	<path style="fill:#DEEEFA;" d="M141.293,73.585H99.877c-7.295,0-10.819,8.933-5.489,13.914l47.505,44.39
		C141.506,113.487,141.293,94.06,141.293,73.585z"/>
	<path style="fill:#DEEEFA;" d="M477.789,252.137l-15.983-130.552c-1.558-12.741-12.412-22.349-25.249-22.349h-64.753
		c-0.113,12.456-0.31,24.334-0.577,35.68h56.263l14.883,121.556c0.938,7.67-3.398,15.076-10.546,18.011l-73.332,30.11
		c-2.836,18.795-5.587,32.206-7.64,41.708l94.525-38.812C467.346,298.47,480.674,275.708,477.789,252.137z"/>
	<g>
		<path style="fill:#B8DCF2;" d="M416.86,99.236h-45.056c-0.114,12.456-0.311,24.334-0.577,35.68h45.953
			C402.579,127.542,402.454,106.835,416.86,99.236z"/>
		<path style="fill:#B8DCF2;" d="M419.127,279.698l-60.631,24.895c-2.836,18.795-5.586,32.206-7.64,41.708l82.31-33.796
			C416.907,311.355,408.765,292.208,419.127,279.698z"/>
	</g>
	<path style="fill:#B8DCF2;" d="M365.215,73.651v11.456c0,6.791-5.557,12.348-12.348,12.348H164.214
		c-6.791,0-12.348-5.557-12.348-12.348V73.585h-11.654c0,189.507,18.249,258.931,23.258,282.825c0.694,3.31,3.615,5.672,6.997,5.672
		h18.268v-13.809c0-6.728,5.505-12.233,12.233-12.233h116.299c6.728,0,12.233,5.505,12.233,12.233v13.809h14.206
		c3.382,0,6.303-2.362,6.997-5.672c4.921-23.475,22.622-90.897,23.241-272.964C373.96,78.38,370.134,74.2,365.215,73.651z"/>
	<g>
		<path style="fill:#89C2E5;" d="M324.015,262.005c-3.578-3.888-9.762-3.887-13.34,0c-12.6,13.692-30.667,22.273-50.742,22.273
			s-38.141-8.581-50.742-22.273c-3.578-3.887-9.762-3.887-13.34,0c-11.395,12.382-27.268,20.561-45.046,22.017
			c4.962,39.579,10.294,61.085,12.664,72.389c0.694,3.31,3.615,5.672,6.997,5.672h18.268v-13.809
			c0-6.728,5.505-12.233,12.233-12.233h116.298c6.729,0,12.233,5.505,12.233,12.233v13.809h14.207c3.382,0,6.303-2.362,6.997-5.672
			c2.383-11.369,7.764-33.046,12.75-73.061C347.954,280.791,334.198,273.07,324.015,262.005z"/>
	</g>
	<path style="fill:#DEEEFA;" d="M308.487,336.04c3.49-34.115,9.01-102.859,9.595-238.585H199.007
		c0.586,135.728,6.106,204.471,9.596,238.585H308.487z"/>
	<g>
		<path style="fill:#B8DCF2;" d="M310.675,262.005c-12.6,13.692-30.667,22.273-50.742,22.273s-38.141-8.581-50.742-22.273
			c-1.689-1.835-3.959-2.793-6.261-2.895c1.844,36.067,3.994,60.512,5.673,76.931h99.884c1.67-16.331,3.806-40.605,5.643-76.356
			C312.854,260.165,311.663,260.931,310.675,262.005z"/>
	</g>
	<polygon style="fill:#0F89CB;" points="160.432,420.191 174.428,388.974 339.047,388.974 353.043,420.191 	"/>
	<path style="fill:#1075BB;" d="M239.324,398.942l0.474-1.057c2.431-5.422,7.818-8.91,13.76-8.91h-79.131l-13.996,31.217h92.653
		C242.151,420.191,234.851,408.919,239.324,398.942z"/>
	<path style="fill:#89C2E5;" d="M352.866,99.617c6.791,0,12.348-5.557,12.348-12.348V73.651c-0.362-0.04-0.728-0.065-1.1-0.065
		H257.085H151.866v13.684c0,6.791,5.557,12.348,12.348,12.348H352.866z"/>
	<path style="fill:#B8DCF2;" d="M318.073,99.617c0.025-5.289,0.043-10.675,0.052-16.171c0.01-5.439-2.238-9.861-5.011-9.861
		c-11.693,0-100.84,0-114.16,0c0,8.943,0.021,17.616,0.06,26.032H318.073z"/>
	<path style="fill:#FECF2B;" d="M361.982,423.736c-2.801-4.87-7.997-7.87-13.615-7.87h-183.26c-5.618,0-10.813,3-13.615,7.87
		c-9.649,16.771-16.857,34.751-21.522,53.393C166.794,499.262,209.908,512,256,512c46.627,0,90.21-13.028,127.312-35.638
		C378.642,457.994,371.499,440.278,361.982,423.736z"/>
	<path style="fill:#FABD2B;" d="M242.516,415.867h-77.409c-5.618,0-10.813,3-13.615,7.87c-9.649,16.771-16.857,34.751-21.522,53.393
		C166.794,499.262,209.908,512,256,512c0.246,0,0.491-0.006,0.737-0.006v-33.639h-8.108c-12.203-4.796-12.646-13.243-11.375-18.719
		c0.838-3.613,0.223-7.413-1.53-10.682C224.95,428.851,242.516,415.867,242.516,415.867z"/>
	<path style="fill:#FABD2B;" d="M191.111,503.297C211.78,508.96,233.533,512,256,512c22.969,0,45.195-3.169,66.276-9.079
		c-7.484-29.218-33.989-50.816-65.539-50.816C225.052,452.105,198.464,473.89,191.111,503.297z"/>
	<path style="fill:#F6AC2B;" d="M256.737,511.994v-33.639h-8.108c-12.203-4.796-12.646-13.243-11.375-18.719
		c0.364-1.569,0.438-3.172,0.28-4.753c-22.822,6.747-40.618,25.201-46.423,48.414C211.78,508.96,233.533,512,256,512
		C256.246,512,256.491,511.994,256.737,511.994z"/>
	<path style="fill:#F29A2B;" d="M216.01,508.733C229.025,510.87,242.38,512,256,512c14.112,0,27.939-1.209,41.398-3.5
		c-4.928-17.834-21.26-30.934-40.661-30.934C237.251,477.566,220.859,490.78,216.01,508.733z"/>
	<path style="fill:#FECF2B;" d="M256,512c6.123,0,12.191-0.232,18.202-0.673c-1.609-3.308-4.132-6.094-7.239-8.028
		c-1.332-0.83-2.117-2.31-2.117-3.879v-28.787c0-4.44-3.421-8.312-7.859-8.445c-4.592-0.138-8.358,3.544-8.358,8.105v29.128
		c0,1.572-0.789,3.052-2.124,3.883c-3.131,1.951-5.662,4.771-7.267,8.115C244.778,511.792,250.365,512,256,512z"/>
	<path style="fill:#F6AC2B;" d="M266.962,503.299c-1.332-0.83-2.117-2.31-2.117-3.879v-13.085c0,4.44-3.421,8.312-7.859,8.445
		c-4.592,0.138-8.358-3.544-8.358-8.105v12.745c0,1.572-0.79,3.052-2.124,3.883c-3.131,1.951-5.662,4.771-7.268,8.115
		C244.778,511.792,250.365,512,256,512c6.123,0,12.191-0.232,18.201-0.673C272.592,508.018,270.069,505.233,266.962,503.299z"/>
	<path style="fill:#89C2E5;" d="M291.62,289.498c-4.478,0-8.108,3.63-8.108,8.109c0,3.418-2.781,6.199-6.199,6.199h-36.628
		c-3.418,0-6.199-2.781-6.199-6.199c0-4.478-3.63-8.109-8.109-8.109s-8.109,3.63-8.109,8.109c0,11.929,9.374,21.684,21.139,22.351
		l4.757,16.083h27.864l4.738-16.018h0.547c12.36,0,22.416-10.056,22.416-22.416C299.729,293.128,296.099,289.498,291.62,289.498z"/>
	<path style="fill:#89C2E5;" d="M317.265,333.878H200.967c-6.728,0-12.233,5.505-12.233,12.233v15.971h68.692h72.073v-15.971
		C329.498,339.383,323.994,333.878,317.265,333.878z"/>
	<path style="fill:#5DB1DB;" d="M259.933,333.878h-58.966c-6.728,0-12.233,5.505-12.233,12.233v15.971h58.966v-15.971
		C247.699,339.383,253.205,333.878,259.933,333.878z"/>
</g>
<g>
</g>
<g>
</g>
<g>
</g>
<g>
</g>
<g>
</g>
<g>
</g>
<g>
</g>
<g>
</g>
<g>
</g>
<g>
</g>
<g>
</g>
<g>
</g>
<g>
</g>
<g>
</g>
<g>
</g>
</svg>
