<?xml version="1.0" encoding="iso-8859-1"?>
<!-- Generator: Adobe Illustrator 21.0.0, SVG Export Plug-In . SVG Version: 6.00 Build 0)  -->
<svg version="1.1" id="Capa_1" xmlns="http://www.w3.org/2000/svg" xmlns:xlink="http://www.w3.org/1999/xlink" x="0px" y="0px"
	 viewBox="0 0 512 512" style="enable-background:new 0 0 512 512;" xml:space="preserve">
<g>
	<path style="fill:#4ECDF9;" d="M256,21.996c-135.311,0-245.001,109.691-245.001,245.002c0,117.14,82.214,215.061,192.085,239.254
		l97.222,1.742c114.16-20.853,200.696-120.814,200.696-240.996C501.002,131.687,391.311,21.996,256,21.996z"/>
	<path style="fill:#96CC1F;" d="M248.271,191.332c0.123,0.048,0.243,0.1,0.366,0.149c2.325,0.15,4.628,0.362,6.904,0.642
		c4.687-4.669,10.408-9.315,16.562-11.938c13.017-5.549,32.881-10.072,38.032-28.003c1.595-5.554,7.136-8.922,12.881-8.296
		c4.471,0.488,9.676-0.245,14.599-4.051c7.082-5.475,8.296-13.643,8.054-19.576c-0.179-4.369,1.977-8.521,5.772-10.692
		c8.805-5.037,22.577-16.737,19.842-39.816c-2.871-24.217-21.559-36.136-38.606-37.143c-3.063-0.181-6.082-0.61-9.033-1.275
		c-0.885,11.091-6.055,19.804-10.374,25.27c-3.166,4.007-3.693,9.446-1.595,14.103c2.849,6.325,5.095,15.705-0.193,24.725
		c-3.675,6.269-8.997,9.333-14.055,10.753c-6.498,1.825-11.035,7.891-10.342,14.605c2.235,21.677-17.32,35.238-29.007,46.925
		c-5.764,5.765-10.054,13.708-13.127,21.075c0.005,0.444,0.018,0.896,0.017,1.331C246.068,190.506,247.171,190.905,248.271,191.332z
		"/>
	<g>
		<path style="fill:#7FBC0A;" d="M300.049,125.582c0-4.332,1.425-8.321,3.808-11.563h-15.658c-0.936,2.067-1.364,4.375-1.117,6.77
			c2.235,21.677-17.32,35.238-29.007,46.925c-5.765,5.765-10.054,13.708-13.127,21.075c0.006,0.444,0.018,0.896,0.017,1.331
			c1.104,0.385,2.206,0.784,3.306,1.211c0.124,0.048,0.243,0.1,0.366,0.149c2.325,0.15,4.627,0.362,6.904,0.642
			c4.687-4.669,10.408-9.315,16.562-11.938c13.017-5.549,32.881-10.072,38.031-28.003c0.97-3.379,3.405-5.941,6.453-7.295
			C307.223,143.43,300.049,135.355,300.049,125.582z"/>
	</g>
	<path style="fill:#96CC1F;" d="M257.071,191.332c-0.123,0.048-0.243,0.1-0.366,0.149c-2.325,0.15-4.628,0.362-6.904,0.642
		c-4.687-4.669-10.408-9.315-16.562-11.938c-13.017-5.549-32.881-10.072-38.032-28.003c-1.595-5.554-7.136-8.922-12.88-8.296
		c-4.471,0.488-9.676-0.245-14.599-4.051c-7.082-5.475-8.296-13.643-8.054-19.576c0.179-4.369-1.977-8.521-5.772-10.692
		c-8.805-5.037-22.577-16.737-19.842-39.816c2.871-24.217,21.559-36.136,38.606-37.143c3.063-0.181,6.082-0.61,9.033-1.275
		c0.885,11.091,6.055,19.804,10.374,25.27c3.166,4.007,3.693,9.446,1.595,14.103c-2.849,6.325-5.095,15.705,0.193,24.725
		c3.675,6.269,8.997,9.333,14.055,10.753c6.498,1.825,11.035,7.891,10.342,14.605c-2.235,21.677,17.32,35.238,29.007,46.925
		c5.765,5.765,10.054,13.708,13.127,21.075c-0.005,0.444-0.017,0.896-0.017,1.331C259.273,190.506,258.17,190.905,257.071,191.332z"
		/>
	<g>
		<path style="fill:#7FBC0A;" d="M247.267,167.715c-11.688-11.687-31.243-25.248-29.007-46.925c0.247-2.395-0.181-4.703-1.117-6.77
			h-15.667c2.383,3.242,3.809,7.231,3.809,11.563c0,9.771-7.171,17.845-16.533,19.304c3.049,1.354,5.484,3.916,6.455,7.296
			c5.15,17.932,25.015,22.455,38.032,28.003c6.154,2.623,11.875,7.269,16.562,11.938c2.276-0.28,4.58-0.493,6.904-0.642
			c0.123-0.048,0.243-0.101,0.366-0.149c1.099-0.427,2.202-0.825,3.306-1.211c-0.001-0.436,0.011-0.888,0.017-1.331
			C257.321,181.423,253.031,173.479,247.267,167.715z"/>
	</g>
	<path style="fill:#9E5AA5;" d="M308.908,199.331c-0.132,3.614-2.486,7.117-6.8,7.884c-14.491,2.575-31.431,4.055-49.53,4.055
		c-18.015,0-34.88-1.466-49.326-4.019c-4.268-0.755-6.63-4.21-6.812-7.792c-56.731,22.286-97.612,77.17-98.981,141.209
		c-1.12,52.391,23.728,99.013,62.553,127.928c14.302,10.652,27.156,22.955,38.369,36.572C216.861,509.623,236.151,512,256,512
		c16.809,0,33.221-1.696,49.078-4.92c11.352-14.188,24.505-26.938,39.311-37.794c38.513-28.24,63.523-73.798,63.523-125.219
		C407.912,278.164,366.845,221.861,308.908,199.331z"/>
	<g>
		<path style="fill:#914E9B;" d="M224.077,478.228c-19.95-29.949-32.718-78.24-32.143-132.505
			c0.609-57.405,16.431-107.689,39.573-135.149c-10.098-0.668-19.616-1.796-28.255-3.323c-4.268-0.755-6.631-4.21-6.813-7.792
			c-56.731,22.286-97.612,77.17-98.981,141.209c-1.121,52.391,23.728,99.013,62.553,127.928
			c14.302,10.652,27.155,22.955,38.369,36.572c14.07,3.392,28.612,5.571,43.51,6.422
			C236.589,499.276,230.632,488.068,224.077,478.228z"/>
	</g>
	<path style="fill:#B277BF;" d="M330.287,454.66c-10.387,1.513-20.953-1.214-28.891-8.081
		c-12.672-10.963-29.189-17.598-47.261-17.598c-18.072,0-34.589,6.635-47.261,17.598c-7.938,6.867-18.504,9.594-28.891,8.081
		c-10.666-1.553-20.897,0.086-29.896,4.079c3.81,3.474,7.782,6.772,11.924,9.856c14.302,10.652,27.156,22.955,38.369,36.572
		C216.861,509.623,236.151,512,256,512c16.809,0,33.221-1.696,49.078-4.92c11.352-14.188,24.505-26.938,39.311-37.794
		c4.817-3.532,9.422-7.335,13.794-11.386C349.68,454.526,340.172,453.221,330.287,454.66z"/>
	<g>
		<path style="fill:#A866B2;" d="M224.077,478.228c-6.137-9.213-11.59-20.166-16.189-32.49c-0.337,0.281-0.683,0.553-1.015,0.84
			c-7.939,6.867-18.504,9.594-28.891,8.081c-10.667-1.553-20.897,0.086-29.896,4.079c3.809,3.474,7.782,6.772,11.924,9.856
			c14.302,10.652,27.155,22.955,38.369,36.572c14.07,3.392,28.612,5.571,43.51,6.422
			C236.589,499.276,230.632,488.068,224.077,478.228z"/>
	</g>
	<circle style="fill:#A866B2;" cx="330.14" cy="264.547" r="21.32"/>
	<circle style="fill:#A866B2;" cx="294.69" cy="291.808" r="10.933"/>
	<path style="fill:#B4E234;" d="M185.457,70.042c-6.618-8.375-15.468-25.205-3.735-46.661
		c12.312-22.514,35.236-26.811,52.274-21.099c12.166,4.079,25.182,4.079,37.348,0c17.037-5.712,39.961-1.414,52.274,21.099
		c11.733,21.456,2.883,38.286-3.734,46.661c-2.852,3.609-3.327,8.509-1.437,12.703c2.567,5.698,4.59,14.148-0.174,22.274
		c-3.313,5.651-8.111,8.411-12.671,9.69c-5.851,1.641-9.93,7.109-9.307,13.154c2.014,19.528-15.602,31.744-26.13,42.272
		c-5.551,5.551-9.6,13.353-12.397,20.357c-1.229-0.057-2.462-0.101-3.703-0.116c-2.182-0.026-4.346,0.018-6.49,0.119
		c-2.797-7.005-6.846-14.808-12.398-20.36c-10.529-10.528-28.144-22.744-26.131-42.272c0.624-6.048-3.463-11.512-9.316-13.157
		c-4.557-1.28-9.35-4.04-12.661-9.687c-4.764-8.126-2.741-16.576-0.174-22.273C188.784,78.551,188.309,73.652,185.457,70.042z"/>
	<path style="fill:#96CC1F;" d="M300.387,117.577c-3.138,0.835-6.433,1.286-9.835,1.286c-11.555,0-21.906-5.137-28.9-13.252
		c-4.754-5.516-13.215-5.516-17.97,0c-6.994,8.115-17.346,13.252-28.9,13.252c-3.4,0-6.693-0.451-9.831-1.285
		c2.854,2.553,4.507,6.288,4.095,10.285c-2.014,19.528,15.602,31.744,26.131,42.272c5.552,5.552,9.602,13.355,12.398,20.36
		c2.145-0.101,4.308-0.145,6.49-0.119c1.241,0.015,2.474,0.059,3.703,0.116c2.796-7.004,6.846-14.805,12.397-20.357
		c10.528-10.528,28.143-22.744,26.13-42.272C295.883,123.866,297.534,120.129,300.387,117.577z"/>
	<g>
		<path style="fill:#D1F44E;" d="M252.67,198.098c-4.265,0-7.722-3.457-7.722-7.723V47.278c0-4.265,3.458-7.722,7.722-7.722
			c4.265,0,7.723,3.458,7.723,7.722v143.098C260.393,194.641,256.935,198.098,252.67,198.098z"/>
	</g>
	<path style="fill:#B4E234;" d="M260.393,104.37c-4.435-3.841-11.007-3.843-15.445-0.006v80.196
		c0.972,1.997,1.853,3.996,2.626,5.936c2.145-0.101,4.308-0.145,6.49-0.119c1.241,0.015,2.474,0.059,3.703,0.116
		c0.774-1.938,1.654-3.937,2.625-5.932V104.37z"/>
	<path style="fill:#914E9B;" d="M308.14,193.089c-16.886-7.824-36.437-12.193-57.249-11.945
		c-19.444,0.232-37.771,4.574-53.753,12.013c-7.966,3.709-6.484,15.514,2.17,17.044c15.598,2.757,33.809,4.34,53.261,4.34
		c19.544,0,37.835-1.598,53.482-4.379C314.742,208.617,316.148,196.799,308.14,193.089z"/>
	<path style="fill:#803F8E;" d="M231.769,185.631c2.106-1.303,4.251-2.536,6.415-3.732c-14.717,1.557-28.596,5.461-41.046,11.257
		c-7.967,3.709-6.484,15.514,2.17,17.044c9.334,1.65,19.608,2.875,30.52,3.597C222.638,207.194,222.672,191.258,231.769,185.631z"/>
</g>
<g>
</g>
<g>
</g>
<g>
</g>
<g>
</g>
<g>
</g>
<g>
</g>
<g>
</g>
<g>
</g>
<g>
</g>
<g>
</g>
<g>
</g>
<g>
</g>
<g>
</g>
<g>
</g>
<g>
</g>
</svg>
