<?xml version="1.0" encoding="iso-8859-1"?>
<!-- Generator: Adobe Illustrator 21.0.0, SVG Export Plug-In . SVG Version: 6.00 Build 0)  -->
<svg version="1.1" id="Capa_1" xmlns="http://www.w3.org/2000/svg" xmlns:xlink="http://www.w3.org/1999/xlink" x="0px" y="0px"
	 viewBox="0 0 512 512" style="enable-background:new 0 0 512 512;" xml:space="preserve">
<g>
	<path style="fill:#FF7133;" d="M483.613,357.8c11.213-28.081,17.389-58.719,17.389-90.802
		c0-135.311-109.691-245.002-245.002-245.002c-61.448,0-117.61,22.625-160.617,59.994L483.613,357.8z"/>
	<path style="fill:#975242;" d="M459.128,163.903C388.938,42.33,233.482,0.676,111.909,70.866
		c-4.284,2.474-8.458,5.064-12.543,7.744c-53.993,44.941-88.368,112.647-88.368,188.388C10.998,402.309,120.689,512,256,512
		c105.11,0,194.746-66.197,229.53-159.169C501.032,291.053,493.49,223.42,459.128,163.903z"/>
	<path style="fill:#8E4739;" d="M66.776,279.037c0-108.679,65.957-201.948,160.022-241.977
		c-39.203,1.851-78.559,12.831-114.889,33.806c-4.284,2.473-8.458,5.064-12.542,7.744c-53.993,44.941-88.368,112.647-88.368,188.388
		c0,113.71,77.47,209.315,182.506,236.946C117.536,457.862,66.776,374.378,66.776,279.037z"/>
	<path style="fill:#8E4739;" d="M15.284,221.234c-2.802,14.828-4.285,30.122-4.285,45.764c0,107.031,68.639,198.016,164.294,231.379
		L15.284,221.234z"/>
	<path style="fill:#823C33;" d="M69.177,314.58l-53.893-93.345c-2.802,14.828-4.286,30.121-4.286,45.764
		c0,107.031,68.639,198.016,164.294,231.379l-6.686-11.58C115.493,445.57,78.62,384.433,69.177,314.58z"/>
	<path style="fill:#8E4739;" d="M485.494,352.926c5.442-21.652,8.062-44.021,7.677-66.514L370.054,73.168
		c-28.498-17.11-60.035-28.427-92.679-33.434l196.243,339.902C478.087,371.02,482.056,362.103,485.494,352.926z"/>
	<path style="fill:#8E4739;" d="M44.073,144.007l212.457,367.986c23.527-0.05,46.272-3.422,67.798-9.661L86.389,90.21
		C69.905,106.029,55.633,124.131,44.073,144.007z"/>
	<path style="fill:#823C33;" d="M111.076,132.969L86.389,90.21c-16.484,15.819-30.756,33.921-42.316,53.797l33.946,58.796
		C85.603,177.738,96.822,154.254,111.076,132.969z"/>
	<path style="fill:#8E4739;" d="M433.006,436.386L203.705,39.225c-21.412,2.994-42.683,8.762-63.293,17.464l242.455,419.945
		C401.316,465.445,418.168,451.887,433.006,436.386z"/>
	<path style="fill:#823C33;" d="M207.693,46.133l-3.988-6.908c-21.412,2.994-42.683,8.762-63.293,17.464l14.831,25.689
		C171.126,68.283,188.726,56.084,207.693,46.133z"/>
	<path style="fill:#C1713A;" d="M177.396,448.49c6.176,16.39,5.823,34.719-0.106,50.591c13.192,4.473,26.89,7.849,40.983,10.027
		c-10.03-17.565-12.319-40.546-4.755-60.618H177.396z"/>
	<path style="fill:#D08245;" d="M177.396,133.584c8.961-23.781,4.18-51.645-11.44-70.163c-6.231-7.386-9.74-17.141-8.971-27.726
		c1.378-18.964,16.769-34.294,35.738-35.601c22.542-1.553,41.31,16.273,41.31,38.482c0,9.523-3.455,18.235-9.175,24.962
		c-15.385,18.093-20.35,46.134-11.341,70.045H177.396z"/>
	<g>
		<path style="fill:#C1713A;" d="M219.344,71.162c-7.229,5.711-16.545,8.896-26.621,8.202c-7.99-0.55-15.339-3.596-21.279-8.346
			c11.132,18.036,13.758,41.849,5.951,62.565h36.122C205.693,112.817,208.415,88.937,219.344,71.162z"/>
	</g>
	<path style="fill:#F2B186;" d="M289.431,152.095c-18.162,0-35.508,3.49-51.411,9.827c9.611,5.528,16.125,15.9,16.125,27.725
		c0,28.677,0,174.274,0,202.781c0,11.825-6.513,22.197-16.125,27.725c15.902,6.338,33.248,9.827,51.411,9.827
		c76.736,0,138.942-62.207,138.942-138.942S366.167,152.095,289.431,152.095z"/>
	<path style="fill:#E29764;" d="M296.268,383.223V198.851c0-18.809,11.262-35.105,27.371-42.508
		c-10.944-2.771-22.403-4.248-34.207-4.248c-18.162,0-35.508,3.49-51.411,9.827c9.612,5.528,16.124,15.899,16.124,27.725
		c0,28.677,0,174.274,0,202.781c0,11.826-6.513,22.197-16.124,27.725c15.902,6.338,33.248,9.827,51.411,9.827
		c11.805,0,23.264-1.477,34.207-4.248C307.53,418.328,296.268,402.032,296.268,383.223z"/>
	<path style="fill:#DEEEFA;" d="M160.99,437.012c0,7.57,6.194,13.764,13.764,13.764h41.407c7.57,0,13.764-6.194,13.764-13.764
		c0-7.57-6.194-13.764-13.764-13.764h-41.407C167.183,423.248,160.99,429.442,160.99,437.012z"/>
	<path style="fill:#CAE3F6;" d="M192.656,437.012c0-7.57,6.194-13.764,13.764-13.764h-31.667c-7.57,0-13.764,6.194-13.764,13.764
		c0,7.57,6.194,13.764,13.764,13.764h31.667C198.85,450.776,192.656,444.583,192.656,437.012z"/>
	<path style="fill:#DEEEFA;" d="M160.99,145.062c0-7.57,6.194-13.764,13.764-13.764h41.407c7.57,0,13.764,6.194,13.764,13.764
		c0,7.57-6.194,13.764-13.764,13.764h-41.407C167.183,158.826,160.99,152.632,160.99,145.062z"/>
	<path style="fill:#CAE3F6;" d="M192.656,145.062c0-7.57,6.194-13.764,13.764-13.764h-31.667c-7.57,0-13.764,6.194-13.764,13.764
		c0,7.57,6.194,13.764,13.764,13.764h31.667C198.85,158.826,192.656,152.632,192.656,145.062z"/>
	<path style="fill:#D08245;" d="M134.483,189.647c0,28.664,0,174.377,0,202.781c0,17.58,14.384,31.964,31.964,31.964h58.021
		c17.58,0,31.964-14.384,31.964-31.964c0-28.507,0-174.104,0-202.781c0-17.58-14.384-31.964-31.964-31.964h-58.021
		C148.866,157.683,134.483,172.066,134.483,189.647z"/>
	<path style="fill:#C1713A;" d="M184.2,392.428c0-28.404,0-174.117,0-202.781c0-17.58,8.52-31.964,18.933-31.964h21.361
		l-0.017-0.001h-58.03c-17.58,0-31.964,14.384-31.964,31.964c0,28.664,0,174.377,0,202.781c0,17.58,14.384,31.964,31.964,31.964
		h36.67C192.711,424.376,184.2,409.999,184.2,392.428z"/>
</g>
<g>
</g>
<g>
</g>
<g>
</g>
<g>
</g>
<g>
</g>
<g>
</g>
<g>
</g>
<g>
</g>
<g>
</g>
<g>
</g>
<g>
</g>
<g>
</g>
<g>
</g>
<g>
</g>
<g>
</g>
</svg>
