<?xml version="1.0" encoding="iso-8859-1"?>
<!-- Generator: Adobe Illustrator 21.0.0, SVG Export Plug-In . SVG Version: 6.00 Build 0)  -->
<svg version="1.1" id="Capa_1" xmlns="http://www.w3.org/2000/svg" xmlns:xlink="http://www.w3.org/1999/xlink" x="0px" y="0px"
	 viewBox="0 0 512 512" style="enable-background:new 0 0 512 512;" xml:space="preserve">
<g>
	<path style="fill:#1D3260;" d="M91.12,446.863h332.669c48.372-44.755,78.668-108.767,78.668-179.865
		c0-135.311-109.691-245.002-245.002-245.002c-135.311,0-245.002,109.691-245.002,245.002
		C12.453,338.095,42.748,402.108,91.12,446.863z"/>
	<g>
		<path style="fill:#B8DCF2;" d="M21.671,157.621H9.657c-4.53,0-8.203-3.672-8.203-8.202s3.672-8.202,8.203-8.202h12.014
			c4.53,0,8.202,3.672,8.202,8.202S26.201,157.621,21.671,157.621z"/>
	</g>
	<g>
		<path style="fill:#B8DCF2;" d="M21.671,185.706H9.657c-4.53,0-8.203-3.672-8.203-8.202c0-4.531,3.672-8.202,8.203-8.202h12.014
			c4.53,0,8.202,3.672,8.202,8.202C29.874,182.035,26.201,185.706,21.671,185.706z"/>
	</g>
	<g>
		<path style="fill:#B8DCF2;" d="M21.671,213.79H9.657c-4.53,0-8.203-3.672-8.203-8.202c0-4.531,3.672-8.202,8.203-8.202h12.014
			c4.53,0,8.202,3.672,8.202,8.202C29.874,210.119,26.201,213.79,21.671,213.79z"/>
	</g>
	<g>
		<path style="fill:#B8DCF2;" d="M21.671,241.874H9.657c-4.53,0-8.203-3.672-8.203-8.202c0-4.531,3.672-8.202,8.203-8.202h12.014
			c4.53,0,8.202,3.672,8.202,8.202C29.874,238.202,26.201,241.874,21.671,241.874z"/>
	</g>
	<polygon style="fill:#89C2E5;" points="105.62,219.981 151.614,267.615 151.614,219.981 	"/>
	<path style="fill:#DEEEFA;" d="M88.605,221.074h63.009v-13.069c0-4.259,3.452-7.711,7.711-7.711h119.824v-38.278H88.605
		c0.011,0.254,0.038,0.503,0.038,0.759v57.54C88.643,220.572,88.616,220.821,88.605,221.074z"/>
	<g>
		<path style="fill:#B8DCF2;" d="M218.676,162.016c10.57,0,19.139,8.569,19.139,19.139s-8.569,19.139-19.139,19.139h60.472v-38.278
			H218.676z"/>
	</g>
	<path style="fill:#B8DCF2;" d="M70.939,144.428H43.121v94.235h27.818c10.986,0,19.892-8.214,19.892-18.347v-57.54
		C90.831,152.643,81.925,144.428,70.939,144.428z"/>
	<path style="fill:#89C2E5;" d="M70.939,204.739H43.121v33.924h27.818c10.986,0,19.892-8.215,19.892-18.348v-33.924
		C90.831,196.524,81.925,204.739,70.939,204.739z"/>
	<g>
		<path style="fill:#DEEEFA;" d="M30.155,258.717c-8.154,0-14.765-6.61-14.765-14.764V139.139c0-8.154,6.61-14.765,14.765-14.765
			c8.154,0,14.765,6.61,14.765,14.765v104.814C44.919,252.107,38.309,258.717,30.155,258.717z"/>
	</g>
	<path style="fill:#B8DCF2;" d="M30.155,217.741c-8.154,0-14.764-6.61-14.764-14.764v40.976c0,8.155,6.61,14.764,14.764,14.764
		c8.154,0,14.765-6.61,14.765-14.764v-40.976C44.919,211.131,38.309,217.741,30.155,217.741z"/>
	<path style="fill:#0D9CDA;" d="M459.666,128.648H290.951c-7.695,0-13.99,6.296-13.99,13.99v64.448h218.103
		C487.914,178.637,475.788,152.167,459.666,128.648z"/>
	<path style="fill:#0F89CB;" d="M354.172,128.648h-63.221c-7.695,0-13.99,6.295-13.99,13.99v64.448h63.221v-64.448
		C340.182,134.944,346.477,128.648,354.172,128.648z"/>
	<path style="fill:#B8DCF2;" d="M205.824,116.906h-46.081c-2.332,0-4.53-0.558-6.488-1.525v46.636l0,0
		c14.182,20.818,44.876,20.818,59.058,0l0,0V115.38C210.353,116.348,208.156,116.906,205.824,116.906z"/>
	<g>
		<path style="fill:#89C2E5;" d="M182.783,150.986v-34.08h-23.041c-2.332,0-4.529-0.558-6.488-1.525v46.636
			c10.286,15.098,29.251,19.236,44.309,12.435C188.509,170.253,182.783,161.025,182.783,150.986z"/>
	</g>
	<path style="fill:#89C2E5;" d="M145.049,90.77v13.629c0,8.115,6.579,14.694,14.694,14.694h46.081
		c8.115,0,14.694-6.579,14.694-14.694V90.77H145.049z"/>
	<path style="fill:#5DB1DB;" d="M176.299,104.399V90.77h-31.25v13.629c0,8.115,6.579,14.694,14.694,14.694h31.25
		C182.878,119.093,176.299,112.514,176.299,104.399z"/>
	<path style="fill:#B8DCF2;" d="M90.831,27.342v16.511c0,26.516,21.495,48.011,48.011,48.011h305.619
		c26.516,0,48.011-21.495,48.011-48.011V27.342H90.831z"/>
	<path style="fill:#89C2E5;" d="M247.331,43.853V27.342h-156.5v16.511c0,26.516,21.495,48.011,48.011,48.011h156.5
		C268.826,91.864,247.331,70.369,247.331,43.853z"/>
	<path style="fill:#DEEEFA;" d="M510.545,14.764C510.545,6.61,503.935,0,495.781,0H87.522c-8.154,0-14.764,6.61-14.764,14.764
		c0,8.154,6.61,14.764,14.764,14.764h408.258C503.935,29.529,510.545,22.919,510.545,14.764z"/>
	<path style="fill:#B8DCF2;" d="M233.258,14.764c0-7.296,5.188-13.378,12.076-14.764H87.522c-8.154,0-14.764,6.61-14.764,14.764
		c0,8.154,6.61,14.764,14.764,14.764h157.811C238.446,28.143,233.258,22.061,233.258,14.764z"/>
	<path style="fill:#0F89CB;" d="M502.456,266.998c0-23.921-3.443-47.035-9.835-68.891h-334.39c-4.259,0-7.711,3.452-7.711,7.711
		v238.024h276.488C473.504,399.251,502.456,336.508,502.456,266.998z"/>
	<path style="fill:#1075BB;" d="M220.693,198.107h-62.462c-4.258,0-7.711,3.452-7.711,7.711v238.024h62.462V205.818
		C212.982,201.56,216.434,198.107,220.693,198.107z"/>
	<g>
		<path style="fill:#0D9CDA;" d="M234.308,244.431h-42.653c-4.53,0-8.203-3.672-8.203-8.202c0-4.531,3.673-8.202,8.203-8.202h42.653
			c4.53,0,8.203,3.672,8.203,8.202C242.511,240.759,238.839,244.431,234.308,244.431z"/>
	</g>
	<circle style="fill:#0CB0EA;" cx="320.544" cy="339.596" r="60.163"/>
	<g>
		<path style="fill:#0D9CDA;" d="M353.788,359.53h-33.243v-80.097h0c-33.227,0-60.163,26.936-60.163,60.163
			c0,33.227,26.936,60.163,60.163,60.163c21.786,0,40.866-11.58,51.424-28.921C363.699,377.36,351.57,370.003,353.788,359.53z"/>
	</g>
	
		<ellipse transform="matrix(0.866 -0.5 0.5 0.866 -126.8531 205.7692)" style="fill:#B8DCF2;" cx="320.544" cy="339.596" rx="39.372" ry="39.372"/>
	<path style="fill:#89C2E5;" d="M317.336,341.449c-7.661-13.27-6.71-29.141,1.104-41.165c-6.001,0.317-12.02,2.005-17.581,5.216
		c-18.831,10.872-25.283,34.952-14.411,53.783c10.872,18.831,34.952,25.284,53.783,14.411c5.561-3.211,10.033-7.579,13.307-12.618
		C339.217,361.83,324.997,354.719,317.336,341.449z"/>
	<path style="fill:#DEEEFA;" d="M320.544,261.759c-5.877,0-11.139-2.576-14.764-6.642v78.452c0,8.155,6.61,14.764,14.764,14.764
		c8.154,0,14.765-6.61,14.765-14.764v-78.452C331.684,259.183,326.421,261.759,320.544,261.759z"/>
	<path style="fill:#B8DCF2;" d="M320.544,261.759c-5.876,0-11.139-2.576-14.764-6.642v45.399c0-8.155,6.61-14.764,14.764-14.764
		c8.155,0,14.765,6.61,14.765,14.764v-45.399C331.684,259.183,326.421,261.759,320.544,261.759z"/>
	<path style="fill:#0F89CB;" d="M104.782,458.607C146.657,492.018,199.719,512,257.455,512c57.736,0,110.797-19.982,152.673-53.393
		H104.782z"/>
	<path style="fill:#1075BB;" d="M234.404,458.607H104.782c32.78,26.154,72.416,44.077,115.782,50.63
		C199.983,496.952,205.761,458.607,234.404,458.607z"/>
	<path style="fill:#0D9CDA;" d="M427.008,443.843H87.901c11.475,11.004,24.013,20.908,37.454,29.529h264.199
		C402.995,464.75,415.534,454.847,427.008,443.843z"/>
	<path style="fill:#0F89CB;" d="M205.393,470.596c-11.977-8.037-6.222-26.754,8.202-26.754H87.901
		c11.475,11.004,24.013,20.908,37.454,29.529h88.636c-2.922,0-5.771-0.886-8.201-2.509
		C205.658,470.774,205.525,470.685,205.393,470.596z"/>
	<circle style="fill:#0CB0EA;" cx="320.545" cy="244.151" r="19.795"/>
	<path style="fill:#0D9CDA;" d="M327.315,250.405c-7.193,0-13.025-5.831-13.025-13.025c0-6.152,4.271-11.296,10.006-12.659
		c-1.216-0.234-2.468-0.366-3.752-0.366c-10.933,0-19.795,8.863-19.795,19.795c0,10.932,8.863,19.795,19.795,19.795
		s19.795-8.863,19.795-19.795c0-1.284-0.132-2.536-0.366-3.752C338.61,246.135,333.467,250.405,327.315,250.405z"/>
</g>
<g>
</g>
<g>
</g>
<g>
</g>
<g>
</g>
<g>
</g>
<g>
</g>
<g>
</g>
<g>
</g>
<g>
</g>
<g>
</g>
<g>
</g>
<g>
</g>
<g>
</g>
<g>
</g>
<g>
</g>
</svg>
