<?xml version="1.0" encoding="iso-8859-1"?>
<!-- Generator: Adobe Illustrator 21.0.0, SVG Export Plug-In . SVG Version: 6.00 Build 0)  -->
<svg version="1.1" id="Capa_1" xmlns="http://www.w3.org/2000/svg" xmlns:xlink="http://www.w3.org/1999/xlink" x="0px" y="0px"
	 viewBox="0 0 512 512" style="enable-background:new 0 0 512 512;" xml:space="preserve">
<g>
	<path style="fill:#FF7133;" d="M445.473,422.323c34.697-42.276,55.529-96.366,55.529-155.325
		c0-135.311-109.691-245.002-245.002-245.002c-135.311,0-245.001,109.691-245.001,245.002c0,58.959,20.831,113.049,55.528,155.325
		H445.473z"/>
	<path style="fill:#975242;" d="M372.289,0H139.71C98.573,0,64.916,33.657,64.916,74.794v345.529
		c16.451,20.477,36.135,38.239,58.26,52.547l71.18,31.291C214.053,509.269,234.706,512,256,512
		c77.274,0,146.18-35.786,191.084-91.677V74.794C447.084,33.657,413.426,0,372.289,0z M324.342,78.43H187.658
		c-11.601,0-21.006-9.405-21.006-21.006c0-11.601,9.405-21.006,21.006-21.006h136.684c11.601,0,21.006,9.405,21.006,21.006
		C345.347,69.025,335.943,78.43,324.342,78.43z"/>
	<path style="fill:#823C33;" d="M165.583,491.513V74.794c0-4.807,0.477-9.506,1.354-14.067c-0.17-1.079-0.285-2.176-0.285-3.303
		c0-5.677,2.264-10.817,5.925-14.597c-7.463-3.954-12.55-11.797-12.55-20.831c0-10.035,6.275-18.599,15.113-21.996h-35.43
		C98.573,0,64.916,33.657,64.916,74.794v345.529c16.444,20.467,36.109,38.231,58.225,52.532L165.583,491.513z"/>
	<path style="fill:#ED3346;" d="M181.111,118.945c11.718-7.005,19.391-20.075,18.67-34.878
		c-0.967-19.845-17.332-35.869-37.192-36.446c-21.72-0.631-39.525,16.788-39.525,38.366v166.316c0,6.132,4.972,11.104,11.104,11.104
		h42.383c10.087,0,15.985-11.37,10.175-19.616l-8.847-12.556c-3.079-4.37-4.25-9.784-3.319-15.048
		c2.956-16.715,4.678-19.915,4.678-41.489c0-21.618-1.73-24.855-4.697-41.591c-0.007-0.039-0.014-0.079-0.021-0.118
		C173.572,127.43,176.272,121.837,181.111,118.945z"/>
	<ellipse style="fill:#FFDD71;" cx="328.082" cy="207.869" rx="64.292" ry="75.043"/>
	<path style="fill:#FECF2B;" d="M311.737,225.913c-19.226-33.301-13.602-73.126,11.867-92.884
		c-33.416,2.687-59.814,35.156-59.814,74.841c0,41.445,28.785,75.043,64.292,75.043c15.516,0,29.748-6.417,40.855-17.099
		C346.856,263.15,324.996,248.879,311.737,225.913z"/>
	<ellipse style="fill:#FECF2B;" cx="328.082" cy="279.663" rx="64.292" ry="75.043"/>
	<path style="fill:#FABD2B;" d="M311.737,297.706c-19.226-33.301-13.602-73.126,11.867-92.885
		c-33.416,2.687-59.814,35.156-59.814,74.841c0,41.445,28.785,75.043,64.292,75.043c15.516,0,29.748-6.417,40.855-17.099
		C346.856,334.943,324.996,320.673,311.737,297.706z"/>
	<ellipse style="fill:#FFDD71;" cx="328.082" cy="351.457" rx="64.292" ry="75.043"/>
	<path style="fill:#FECF2B;" d="M311.737,369.5c-19.226-33.301-13.602-73.126,11.867-92.884
		c-33.416,2.687-59.814,35.156-59.814,74.841c0,41.445,28.785,75.043,64.292,75.043c15.516,0,29.748-6.417,40.855-17.099
		C346.856,406.737,324.996,392.466,311.737,369.5z"/>
	<circle style="fill:#FF6683;" cx="161.446" cy="86.468" r="13.067"/>
	<g>
		<path style="fill:#DB2640;" d="M177.879,231.233c-3.079-4.37-4.25-9.784-3.319-15.048c2.21-12.499,3.73-17.443,4.357-28.161
			c-5.417,9.889-15.92,16.596-27.991,16.596c-11.979,0-22.409-6.606-27.862-16.37v64.052c0,6.132,4.972,11.104,11.104,11.104h42.383
			c10.087,0,15.985-11.37,10.175-19.616L177.879,231.233z"/>
	</g>
	<path style="fill:#B8DCF2;" d="M210.428,262.681h-78.954c-4.646,0-8.411,3.766-8.411,8.411v201.729
		c21.676,14.029,45.703,24.731,71.368,31.374c15.841-31.356,24.408-66.345,24.408-102.363v-130.74
		C218.84,266.447,215.074,262.681,210.428,262.681z"/>
	<g>
		<path style="fill:#89C2E5;" d="M204.736,405.196c-4.759,0-9.016-2.124-11.889-5.473c-1.002-1.168-2.896-1.03-3.728,0.265
			c-2.66,4.143-7.303,6.904-12.565,6.904h-39.297c-6.606,0-12.239-4.351-14.192-10.326v76.255
			c21.676,14.029,45.703,24.731,71.368,31.374c15.841-31.356,24.408-66.345,24.408-102.363v-5.467
			C216.294,401.591,210.939,405.196,204.736,405.196z"/>
	</g>
	<path style="fill:#DEEEFA;" d="M210.428,262.681h-23.68c2.356,1.376,3.998,4.416,3.998,7.954V407.65
		c0,31.694-4.982,62.617-14.297,91.135c5.897,2.023,11.892,3.834,17.982,5.41c15.841-31.356,24.408-66.345,24.408-102.363v-130.74
		C218.84,266.447,215.074,262.681,210.428,262.681z"/>
	<g>
		<path style="fill:#B8DCF2;" d="M204.736,405.196c-4.759,0-9.016-2.124-11.889-5.473c-0.542-0.632-1.345-0.869-2.1-0.759v8.686
			c0,31.694-4.982,62.617-14.297,91.135c5.896,2.023,11.892,3.834,17.982,5.41c15.841-31.356,24.408-66.345,24.408-102.363v-5.467
			C216.294,401.591,210.939,405.196,204.736,405.196z"/>
	</g>
	<ellipse style="fill:#FECF2B;" cx="328.082" cy="423.25" rx="64.292" ry="75.043"/>
	<path style="fill:#FABD2B;" d="M311.737,441.293c-19.226-33.301-13.602-73.126,11.867-92.885
		c-33.416,2.687-59.814,35.156-59.814,74.841c0,41.445,28.785,75.043,64.292,75.043c15.516,0,29.748-6.417,40.855-17.099
		C346.856,478.53,324.996,464.26,311.737,441.293z"/>
</g>
<g>
</g>
<g>
</g>
<g>
</g>
<g>
</g>
<g>
</g>
<g>
</g>
<g>
</g>
<g>
</g>
<g>
</g>
<g>
</g>
<g>
</g>
<g>
</g>
<g>
</g>
<g>
</g>
<g>
</g>
</svg>
