<?xml version="1.0" encoding="iso-8859-1"?>
<!-- Generator: Adobe Illustrator 21.0.0, SVG Export Plug-In . SVG Version: 6.00 Build 0)  -->
<svg version="1.1" id="Capa_1" xmlns="http://www.w3.org/2000/svg" xmlns:xlink="http://www.w3.org/1999/xlink" x="0px" y="0px"
	 viewBox="0 0 512 512" style="enable-background:new 0 0 512 512;" xml:space="preserve">
<g>
	<path style="fill:#4ECDF9;" d="M446.198,421.423c34.258-42.143,54.803-95.881,54.803-154.424
		c0-135.311-109.691-245.002-245.002-245.002c-135.311,0-245.002,109.691-245.002,245.002c0,58.544,20.545,112.282,54.803,154.425
		L446.198,421.423z"/>
	<path style="fill:#8E4739;" d="M325.895,170.319c0.386,5.282,0.239,10.266-0.041,14.135c-0.324,4.472,0.739,8.957,3.156,12.749
		c1.427,2.239,2.559,4.612,3.458,6.956c1.117,2.914,1.911,5.924,2.402,8.981c2.592-1.256,6.296-2.623,9.465-2.175
		c0.388-13.446,1.629-27.941,1.629-27.941c0.476-2.333,0.866-4.622,1.176-6.871C340.101,173.945,333.016,171.997,325.895,170.319z"
		/>
	<path style="fill:#8E4739;" d="M186.016,171.667c-5.725,1.463-11.427,3.096-17.098,4.904l-3.034,0.967
		c0.125,17.368,3.801,33.366,3.801,33.366c2.634,0.176,5.391,1.243,7.447,2.238c0.503-3.134,1.326-6.219,2.486-9.2
		c0.884-2.273,1.99-4.568,3.373-6.737c2.399-3.763,3.491-8.202,3.165-12.64C185.893,181.008,185.741,176.494,186.016,171.667z"/>
	<path style="fill:#FFAA7B;" d="M350.002,211.712c-3.927-3.599-11.75-1.775-15.132,0.429c0.741,4.614,0.783,9.335,0.143,13.996
		l-3.991,29.07c0,2.343-0.074,4.643-0.21,6.902c9.733,2.936,14.567-5.802,15.382-11.798c0.35-2.581,0.924-5.126,1.719-7.608
		C350.502,234.617,359.842,220.729,350.002,211.712z"/>
	<g>
		<path style="fill:#FC9B6B;" d="M342.61,238.268c-3.54,0-6.677-1.693-8.672-4.305l-2.917,21.245c0,2.343-0.074,4.643-0.21,6.902
			c9.733,2.936,14.568-5.802,15.382-11.798c0.351-2.581,0.924-5.126,1.719-7.608c0.828-2.586,2.345-5.766,3.706-9.19
			C349.652,236.383,346.353,238.268,342.61,238.268z"/>
	</g>
	<path style="fill:#FFAA7B;" d="M161.998,211.712c3.927-3.599,11.75-1.775,15.132,0.429c-0.741,4.614-0.783,9.335-0.143,13.996
		l3.991,29.07c0,2.343,0.074,4.643,0.21,6.902c-9.733,2.936-14.567-5.802-15.382-11.798c-0.351-2.581-0.924-5.126-1.719-7.608
		C161.498,234.617,152.159,220.729,161.998,211.712z"/>
	<g>
		<path style="fill:#FC9B6B;" d="M180.979,255.208l-2.917-21.245c-1.994,2.613-5.132,4.306-8.672,4.306
			c-3.742,0-7.041-1.885-9.008-4.755c1.361,3.423,2.878,6.604,3.706,9.189c0.795,2.482,1.368,5.027,1.719,7.608
			c0.815,5.997,5.649,14.734,15.382,11.798C181.053,259.85,180.979,257.551,180.979,255.208z"/>
	</g>
	<polygon style="fill:#503B27;" points="176.131,212.141 176.131,212.141 176.13,212.142 	"/>
	<path style="fill:#B8DCF2;" d="M199.926,485.214c0-22.039,17.057-39.905,38.099-39.905h3.232c20.536,0,37.269-20.83,38.06-42.32
		c-13.524,3.363-23.107,3.458-23.318,3.458c-0.471,0-47.432-0.418-80.963-36.553c-0.403-0.435-0.411-1.116-0.017-1.586l0.198-0.236
		c-14.495,4.736-28.246,10.97-41.829,18.63c-7.635,4.305-11.082,6.818-17.561,7.348c-23.836,1.949-40.293,11.901-51.636,25.372
		c33.738,42.399,81.234,73.359,135.736,86.124V485.214z"/>
	<path style="fill:#DEEEFA;" d="M256,512c77.69,0,146.924-36.169,191.809-92.577c-11.343-13.471-27.8-23.424-51.636-25.372
		c-6.478-0.53-9.925-3.043-17.561-7.348c-13.584-7.66-27.334-13.893-41.83-18.63l0.198,0.236c0.393,0.47,0.385,1.151-0.017,1.586
		c-19.201,20.692-42.84,29.67-59.608,33.566v1.898c0,21.041-17.057,38.098-38.098,38.098h-3.232
		c-21.041,0-38.098,17.057-38.098,38.099v23.501C216.545,509.583,235.989,512,256,512z"/>
	<path style="fill:#FFAA7B;" d="M314.073,356.742c-5.817-10.138-7.508-24.24-7.868-34.7c-5.071,5.907-10.393,10.847-15.478,14.796
		c-9.908,7.694-22.134,11.873-34.727,11.873c-12.592,0-24.819-4.179-34.727-11.873c-5.085-3.949-10.408-8.89-15.479-14.796
		c-0.36,10.459-2.051,24.562-7.869,34.7C231.605,383.512,280.395,383.512,314.073,356.742z"/>
	<path style="fill:#FC9B6B;" d="M205.795,322.043c-0.36,10.459-2.051,24.562-7.869,34.7c16.04,12.75,35.509,19.413,55.14,20.018
		c1.789-11.722,1.529-20.369,1.529-20.369l-0.359-7.716c-11.967-0.371-23.519-4.502-32.963-11.836
		C216.188,332.889,210.866,327.949,205.795,322.043z"/>
	<path style="fill:#FFBB99;" d="M330.01,196.203c-2.417-3.792-3.48-8.277-3.156-12.749c0.28-3.869,0.427-8.854,0.041-14.135
		c-46.817-11.029-95.153-10.59-141.879,1.348c-0.275,4.828-0.122,9.342,0.139,12.898c0.326,4.438-0.766,8.877-3.165,12.64
		c-1.382,2.169-2.488,4.464-3.373,6.736c-2.869,7.37-3.705,15.364-2.631,23.19l3.992,29.077c0,41.802,22.314,70.215,41.295,84.955
		c9.908,7.694,22.134,11.873,34.726,11.873c12.592,0,24.819-4.179,34.726-11.873c18.981-14.74,41.295-43.152,41.295-84.955
		l3.991-29.07c1.064-7.75,0.257-15.665-2.545-22.978C332.569,200.816,331.437,198.442,330.01,196.203z"/>
	<g>
		<path style="fill:#FFAA7B;" d="M253.224,340.162c-13.716-14.74-29.841-43.152-29.841-84.955l-2.885-29.077
			c-0.777-7.827-0.172-44.634,1.901-52.005c0.639-2.272,1.438-4.568,2.437-6.736c0.615-1.336,1.106-2.76,1.479-4.236
			c-13.852,1.525-27.645,4.024-41.3,7.513c-0.275,4.828-0.122,9.342,0.139,12.898c0.326,4.438-0.766,8.877-3.165,12.64
			c-1.382,2.169-2.488,4.464-3.372,6.736c-2.869,7.37-3.705,15.364-2.631,23.19l3.992,29.077c0,41.802,22.314,70.215,41.295,84.955
			c9.908,7.694,22.134,11.873,34.726,11.873c4.392,0,8.736-0.52,12.956-1.508C263.262,348.681,257.887,345.173,253.224,340.162z"/>
	</g>
	<g>
		<path style="fill:#ED3346;" d="M338.356,367.156l-8.647-10.308c-4.177-4.98-11.545-5.66-16.626-1.607
			c-17.008,13.569-38.03,20.29-59.038,19.865c11.331,1.915,19.977,11.658,19.977,23.513v7.454
			c17.075-3.42,43.17-12.234,64.258-34.958C339.303,370.012,339.323,368.309,338.356,367.156z"/>
	</g>
	<g>
		<path style="fill:#DB2640;" d="M274.022,398.619v7.449c9.074-1.818,20.688-5.154,32.754-11.297
			c-0.527,0.052-1.062,0.081-1.603,0.081c-8.836,0-16-7.163-16-16c0-5.064,2.359-9.571,6.032-12.503
			c-12.923,6.094-27.064,9.037-41.198,8.749C265.356,376.998,274.022,386.75,274.022,398.619z"/>
	</g>
	<path style="fill:#F94862;" d="M255.111,375.124c-19.864-0.167-39.776-6.732-56.334-19.996c-5.018-4.02-12.354-3.207-16.486,1.719
		l-8.647,10.308c-0.967,1.153-0.948,2.857,0.076,3.96c34.452,37.126,82.28,37.126,82.28,37.126s8.704-0.002,21.356-2.883v-7.986
		C277.355,385.086,267.398,375.228,255.111,375.124z"/>
	<circle style="fill:#89C2E5;" cx="233.641" cy="481.87" r="12.651"/>
	<path style="fill:#B8DCF2;" d="M161.424,177.639l6.493-2.069c59.735-19.042,122.791-18.936,182.439,0.274
		c-1.944-16.659-2.632-43.43,7.608-67.428c-4.52,1.427-9.328,2.204-14.319,2.204c-10.244,0-19.731-3.241-27.491-8.754
		c-2.51-1.783-5.983-1.175-7.878,1.251c-11.911,15.253-30.46,25.067-51.312,25.067c-20.852,0-39.402-9.814-51.312-25.067
		c-1.895-2.426-5.368-3.034-7.878-1.251c-7.76,5.513-17.247,8.754-27.491,8.754c-5.833,0-11.417-1.059-16.58-2.982
		C164.679,132.714,163.545,160.986,161.424,177.639z"/>
	<g>
		<path style="fill:#89C2E5;" d="M222.032,118.008c-6.272-4.002-11.815-9.045-16.38-14.891c-1.895-2.426-5.368-3.034-7.878-1.251
			c-7.76,5.513-17.247,8.754-27.491,8.754c-5.833,0-11.417-1.059-16.58-2.982c10.976,25.076,9.843,53.348,7.722,70.001l6.493-2.069
			c19.201-6.121,38.745-10.251,58.409-12.417C227.069,150.181,226.517,133.959,222.032,118.008z"/>
	</g>
	<path style="fill:#ED3346;" d="M167.918,175.57c59.735-19.042,122.791-18.936,182.439,0.274
		c-0.714-6.118-1.256-13.603-1.152-21.811c-59.308-18.842-121.936-18.829-181.287,0.09l-5.109,1.628
		c0.015,8.344-0.618,15.875-1.384,21.888L167.918,175.57z"/>
	<path style="fill:#DB2640;" d="M226.142,141.729c-34.277,3.795-61.031,13.399-63.333,14.022c0.013,7.237-0.465,14.664-1.384,21.888
		c13.472-5.021,37.586-11.135,64.902-14.486C226.697,156.676,226.745,149.388,226.142,141.729z"/>
	<g>
		<path style="fill:#DEEEFA;" d="M164.685,202.272c-5.721,0-11.03-3.664-12.86-9.405c-2.263-7.105,1.661-14.698,8.765-16.962
			l7.328-2.335c60.116-19.163,123.599-18.943,183.583,0.635c7.088,2.313,10.959,9.935,8.646,17.023
			c-2.313,7.088-9.938,10.958-17.022,8.645c-54.568-17.811-112.316-18.009-167.008-0.577l-7.329,2.336
			C167.423,202.065,166.042,202.272,164.685,202.272z"/>
	</g>
	<path style="fill:#DEEEFA;" d="M391.057,61.723c-1.646-23.883-21.313-43.04-45.228-44.11c-11.064-0.495-21.34,2.794-29.643,8.682
		c-2.524,1.79-6.003,1.213-7.907-1.225C296.368,9.816,277.817,0,256.964,0c-20.854,0-39.404,9.816-51.315,25.07
		c-1.904,2.439-5.383,3.015-7.907,1.225c-8.303-5.888-18.58-9.178-29.643-8.682c-23.915,1.071-43.582,20.228-45.228,44.11
		c-1.914,27.772,20.048,50.897,47.411,50.897c10.244,0,19.731-3.241,27.491-8.754c2.51-1.783,5.983-1.175,7.878,1.251
		c11.911,15.253,30.46,25.067,51.312,25.067c20.852,0,39.401-9.814,51.312-25.067c1.895-2.427,5.368-3.034,7.878-1.251
		c7.761,5.513,17.247,8.754,27.491,8.754C371.008,112.62,392.971,89.495,391.057,61.723z"/>
	<path style="fill:#975242;" d="M256,262.861v4.958c0,5.938,4.128,12.782,9.927,14.062l3.133,0.691
		c12.941,2.857,23.592,12.004,28.37,24.366l0,0c1.417,3.665,6.867,2.579,6.77-1.349l-0.267-12.593
		c-0.324-13.232-9.595-27.962-22.504-30.889l-17.537-5.152C259.949,255.796,256,258.752,256,262.861z"/>
	<path style="fill:#975242;" d="M329.709,271.201L329.709,271.201c-0.43,0-0.81,0.253-0.979,0.648
		c-3.81,8.944-11.716,19.713-28.076,23.508c-2.64,0.612-4.67,2.685-5.165,5.35c-1.023,5.506-4.683,14.677-17.515,19.211
		c-8.154,2.881-17.053-2.247-18.097-10.736c-0.014-0.11-0.026-0.22-0.039-0.332c-0.171-1.583-1.497-2.799-3.11-2.799h-0.001
		c-1.613,0-2.938,1.217-3.109,2.799c-0.012,0.112-0.025,0.223-0.039,0.332c-1.045,8.488-9.943,13.617-18.097,10.736
		c-13.227-4.674-17.572-14.275-18.993-19.71c-0.629-2.407-2.608-4.211-5.037-4.751c-16.658-3.703-24.673-14.584-28.517-23.609
		c-0.168-0.395-0.549-0.648-0.979-0.648c-0.655,0-1.162,0.591-1.064,1.239c7.11,46.947,35.116,69.181,54.804,79.175
		c12.625,6.409,27.621,6.418,40.247,0.012c19.689-9.988,47.714-32.221,54.828-79.188
		C330.871,271.792,330.364,271.201,329.709,271.201z"/>
	<g>
		<path style="fill:#B8DCF2;" d="M186.211,65.092c0-14.701,5.855-28.028,15.349-37.8c-1.312,0.123-2.664-0.178-3.818-0.996
			c-8.304-5.888-18.58-9.178-29.643-8.682c-23.915,1.071-43.582,20.228-45.228,44.11c-1.915,27.772,20.048,50.897,47.411,50.897
			c10.244,0,19.731-3.241,27.491-8.754c1.141-0.811,2.48-1.104,3.781-0.98C192.064,93.114,186.211,79.79,186.211,65.092z"/>
	</g>
	<path style="fill:#B8DCF2;" d="M226.416,161.14c-19.694,2.164-39.269,6.301-58.498,12.43l-7.328,2.335
		c-7.104,2.264-11.027,9.857-8.765,16.962c1.83,5.741,7.14,9.405,12.861,9.405c1.358,0,2.738-0.207,4.102-0.641l7.329-2.336
		c16.945-5.401,34.183-9.105,51.529-11.122c-0.001-0.001-0.001-0.001-0.002-0.002C210.947,173.887,226.109,161.39,226.416,161.14z"
		/>
	<path style="fill:#8E4739;" d="M235.698,351.615c5.939,3.015,12.403,4.595,18.898,4.775
		c-27.565-12.517-15.301-35.693-15.301-35.693l-0.003-0.021c-1.267-0.079-2.545-0.312-3.808-0.758
		c-13.227-4.674-17.572-14.275-18.993-19.71c-0.629-2.407-2.608-4.211-5.037-4.751c-16.658-3.703-24.673-14.584-28.517-23.609
		c-0.168-0.395-0.549-0.648-0.979-0.648c-0.655,0-1.162,0.591-1.064,1.239C188.004,319.387,216.01,341.621,235.698,351.615z"/>
	<path style="fill:#975242;" d="M256,262.861v4.958c0,5.938-4.128,12.782-9.927,14.062l-3.132,0.691
		c-12.941,2.857-23.592,12.004-28.37,24.366l0,0c-1.416,3.665-6.866,2.579-6.77-1.349l0.267-12.593
		c0.324-13.232,9.595-27.962,22.504-30.889l17.537-5.152C252.051,255.796,256,258.752,256,262.861z"/>
	<g>
		<path style="fill:#8E4739;" d="M233.172,285.602c-6.697,0-12.125-5.428-12.125-12.125c0-4.045,1.988-7.618,5.033-9.82
			c-10.517,4.904-17.727,17.699-18.012,29.339l-0.267,12.593c-0.096,3.928,5.354,5.014,6.77,1.349
			c3.672-9.501,10.822-17.09,19.806-21.396C233.981,285.581,233.579,285.602,233.172,285.602z"/>
	</g>
</g>
<g>
</g>
<g>
</g>
<g>
</g>
<g>
</g>
<g>
</g>
<g>
</g>
<g>
</g>
<g>
</g>
<g>
</g>
<g>
</g>
<g>
</g>
<g>
</g>
<g>
</g>
<g>
</g>
<g>
</g>
</svg>
