<?xml version="1.0" encoding="iso-8859-1"?>
<!-- Generator: Adobe Illustrator 21.0.0, SVG Export Plug-In . SVG Version: 6.00 Build 0)  -->
<svg version="1.1" id="Capa_1" xmlns="http://www.w3.org/2000/svg" xmlns:xlink="http://www.w3.org/1999/xlink" x="0px" y="0px"
	 viewBox="0 0 512 512" style="enable-background:new 0 0 512 512;" xml:space="preserve">
<g>
	<path style="fill:#7FBC0A;" d="M43.151,400.369L43.151,400.369c3.372,4.891,6.915,9.653,10.624,14.278l78.719,64.539l0,0
		c33.692,17.449,71.946,27.315,112.507,27.315c45.657,0,88.388-12.503,124.981-34.251v0l60.081-50.196v0
		c37.337-42.999,59.939-99.137,59.939-160.555c0-135.311-109.691-245.002-245.002-245.002C109.691,16.497,0,126.188,0,261.499
		c0,33.471,6.721,65.37,18.873,94.434L43.151,400.369z"/>
	<g>
		<path style="fill:#B8DCF2;" d="M296.461,464.615c-4.647,0-8.415-3.767-8.415-8.415v-5.463c0-4.648,3.767-8.415,8.415-8.415
			c4.647,0,8.415,3.767,8.415,8.415v5.463C304.876,460.848,301.108,464.615,296.461,464.615z"/>
	</g>
	<g>
		<path style="fill:#B8DCF2;" d="M191.269,464.615c-4.647,0-8.415-3.767-8.415-8.415v-5.463c0-4.648,3.767-8.415,8.415-8.415
			c4.647,0,8.415,3.767,8.415,8.415v5.463C199.684,460.848,195.917,464.615,191.269,464.615z"/>
	</g>
	<path style="fill:#DEEEFA;" d="M358.882,449.916l11.101,22.333c11.138-6.619,21.709-14.09,31.617-22.333H358.882z"/>
	<path style="fill:#DEEEFA;" d="M132.495,479.186v-29.27H88.403C101.944,461.183,116.718,471.016,132.495,479.186z"/>
	<path style="fill:#B8DCF2;" d="M75.017,422.054c-8.019,0-15.398-2.776-21.242-7.407c11.135,13.886,23.75,26.531,37.608,37.7H398.62
		c11.356-9.152,21.887-19.287,31.444-30.293H75.017z"/>
	<g>
		<path style="fill:#89C2E5;" d="M235.451,437.695c0-6.49,3.259-12.214,8.225-15.642H75.017c-8.019,0-15.397-2.776-21.242-7.407
			c11.136,13.886,23.75,26.531,37.608,37.7h150.971C238.138,448.862,235.451,443.593,235.451,437.695z"/>
	</g>
	<path style="fill:#89C2E5;" d="M40.746,387.783c0-8.087,2.875-15.943,8.096-22.12l28.68-33.939
		c15.882-18.794,23.232-43.576,20.168-67.99L80.22,109.028H49.69l17.943,158.479c2.013,16.038-2.817,32.319-13.25,44.665
		l-28.68,33.938c-2.594,3.069-4.871,6.363-6.832,9.822c6.569,15.711,14.732,30.587,24.279,44.438
		C41.605,396.47,40.746,392.226,40.746,387.783z"/>
	<path style="fill:#ED3346;" d="M56.812,31.549H40.344l5.623,50.552h30.48l-6.215-55.88C66.719,29.516,62.008,31.549,56.812,31.549z
		"/>
	<g>
		<path style="fill:#FF6683;" d="M63.482,44.768H19.634C8.791,44.768,0,35.977,0,25.133C0,14.29,8.791,5.499,19.634,5.499h43.847
			c10.844,0,19.634,8.79,19.634,19.634C83.116,35.977,74.326,44.768,63.482,44.768z"/>
	</g>
	<path style="fill:#F94862;" d="M39.896,25.133c0-10.844,8.791-19.634,19.634-19.634H19.634C8.791,5.499,0,14.29,0,25.133
		c0,10.844,8.791,19.634,19.634,19.634H59.53C48.686,44.768,39.896,35.977,39.896,25.133z"/>
	<g>
		<path style="fill:#DEEEFA;" d="M84.003,110.15H45.015c-8.366,0-15.147-6.781-15.147-15.146c0-8.365,6.781-15.146,15.147-15.146
			h38.988c8.365,0,15.146,6.781,15.146,15.146C99.149,103.369,92.368,110.15,84.003,110.15z"/>
	</g>
	<path style="fill:#B8DCF2;" d="M64.509,95.003c0-8.365,6.781-15.146,15.146-15.146H45.015c-8.366,0-15.147,6.781-15.147,15.146
		c0,8.365,6.781,15.146,15.147,15.146h34.641C71.29,110.15,64.509,103.369,64.509,95.003z"/>
	<g>
		<path style="fill:#B8DCF2;" d="M480.737,337.809H120.321c-12.477,0-22.955-9.348-24.373-21.746L73.353,118.398
			c-0.293-2.565,0.607-5.122,2.442-6.938c1.836-1.815,4.404-2.688,6.964-2.367l401.025,50.216h0.001
			c12.247,1.534,21.483,11.999,21.483,24.341v129.628C505.268,326.805,494.263,337.809,480.737,337.809z M91.29,127.121
			l21.379,187.032c0.445,3.892,3.734,6.827,7.652,6.827h360.416c4.247,0,7.702-3.455,7.702-7.702V183.651
			c0-3.875-2.9-7.161-6.745-7.643v0.001L91.29,127.121z"/>
	</g>
	<g>
		<path style="fill:#FFFFFF;" d="M138.674,341.175c-4.647,0-8.415-3.767-8.415-8.415V120.087c0-4.648,3.767-8.415,8.415-8.415
			c4.647,0,8.415,3.767,8.415,8.415v212.673C147.089,337.408,143.321,341.175,138.674,341.175z"/>
	</g>
	<g>
		<path style="fill:#FFFFFF;" d="M191.269,341.175c-4.647,0-8.415-3.767-8.415-8.415V126.673c0-4.648,3.767-8.415,8.415-8.415
			c4.647,0,8.415,3.767,8.415,8.415v206.087C199.684,337.408,195.917,341.175,191.269,341.175z"/>
	</g>
	<g>
		<path style="fill:#FFFFFF;" d="M243.865,341.175c-4.647,0-8.415-3.767-8.415-8.415V133.259c0-4.648,3.767-8.415,8.415-8.415
			c4.647,0,8.415,3.767,8.415,8.415v199.501C252.28,337.408,248.513,341.175,243.865,341.175z"/>
	</g>
	<g>
		<path style="fill:#FFFFFF;" d="M349.057,341.175c-4.647,0-8.415-3.767-8.415-8.415V146.431c0-4.648,3.767-8.415,8.415-8.415
			c4.647,0,8.415,3.767,8.415,8.415v186.329C357.471,337.408,353.704,341.175,349.057,341.175z"/>
	</g>
	<g>
		<path style="fill:#FFFFFF;" d="M296.461,341.175c-4.647,0-8.415-3.767-8.415-8.415V139.845c0-4.648,3.767-8.415,8.415-8.415
			c4.647,0,8.415,3.767,8.415,8.415v192.915C304.876,337.408,301.108,341.175,296.461,341.175z"/>
	</g>
	<g>
		<path style="fill:#FFFFFF;" d="M401.653,341.175c-4.647,0-8.415-3.767-8.415-8.415V153.017c0-4.648,3.767-8.415,8.415-8.415
			c4.647,0,8.415,3.767,8.415,8.415v179.743C410.068,337.408,406.3,341.175,401.653,341.175z"/>
	</g>
	<g>
		<path style="fill:#FFFFFF;" d="M454.249,341.175c-4.647,0-8.415-3.767-8.415-8.415V159.603c0-4.648,3.767-8.415,8.415-8.415
			c4.647,0,8.415,3.767,8.415,8.415v173.157C462.663,337.408,458.896,341.175,454.249,341.175z"/>
	</g>
	<path style="fill:#DEEEFA;" d="M138.674,246.182c-4.648,0-8.415-3.767-8.415-8.415v94.993c0,4.648,3.767,8.415,8.415,8.415
		c4.647,0,8.414-3.767,8.414-8.415v-94.993C147.088,242.415,143.321,246.182,138.674,246.182z"/>
	<path style="fill:#DEEEFA;" d="M191.27,246.182c-4.648,0-8.415-3.767-8.415-8.415v94.993c0,4.648,3.768,8.415,8.415,8.415
		c4.647,0,8.414-3.767,8.414-8.415v-94.993C199.684,242.415,195.917,246.182,191.27,246.182z"/>
	<path style="fill:#DEEEFA;" d="M243.866,246.182c-4.647,0-8.415-3.767-8.415-8.415v94.993c0,4.648,3.768,8.415,8.415,8.415
		c4.647,0,8.415-3.767,8.415-8.415v-94.993C252.28,242.415,248.513,246.182,243.866,246.182z"/>
	<path style="fill:#DEEEFA;" d="M349.057,246.182c-4.647,0-8.415-3.767-8.415-8.415v94.993c0,4.648,3.768,8.415,8.415,8.415
		c4.647,0,8.414-3.767,8.414-8.415v-94.993C357.471,242.415,353.704,246.182,349.057,246.182z"/>
	<path style="fill:#DEEEFA;" d="M296.461,246.182c-4.647,0-8.415-3.767-8.415-8.415v94.993c0,4.648,3.768,8.415,8.415,8.415
		c4.647,0,8.414-3.767,8.414-8.415v-94.993C304.875,242.415,301.108,246.182,296.461,246.182z"/>
	<path style="fill:#DEEEFA;" d="M401.653,246.182c-4.647,0-8.415-3.767-8.415-8.415v94.993c0,4.648,3.767,8.415,8.415,8.415
		c4.647,0,8.415-3.767,8.415-8.415v-94.993C410.067,242.415,406.3,246.182,401.653,246.182z"/>
	<path style="fill:#DEEEFA;" d="M454.249,246.182c-4.647,0-8.415-3.767-8.415-8.415v94.993c0,4.648,3.768,8.415,8.415,8.415
		c4.647,0,8.414-3.767,8.414-8.415v-94.993C462.663,242.415,458.896,246.182,454.249,246.182z"/>
	<g>
		<path style="fill:#B8DCF2;" d="M503.594,226.948c-0.224,0-0.449-0.009-0.675-0.026L89.203,194.089
			c-4.633-0.368-8.09-4.421-7.723-9.055c0.368-4.632,4.426-8.082,9.054-7.722l413.716,32.833c4.633,0.368,8.09,4.421,7.723,9.055
			C511.624,223.605,507.94,226.948,503.594,226.948z"/>
	</g>
	<g>
		<path style="fill:#B8DCF2;" d="M503.588,282.205c-0.056,0-0.112,0-0.169-0.002l-404.774-7.978
			c-4.646-0.092-8.339-3.933-8.247-8.579c0.091-4.646,3.907-8.375,8.579-8.247l404.774,7.977c4.646,0.092,8.338,3.934,8.247,8.579
			C511.908,278.545,508.158,282.205,503.588,282.205z"/>
	</g>
	<g>
		<path style="fill:#F94862;" d="M496.853,198.797c-8.365,0-15.146-6.781-15.146-15.146c0-0.489-0.365-0.903-0.848-0.963
			l-47.024-5.888c-8.299-1.04-14.187-8.611-13.147-16.911c1.04-8.3,8.606-14.19,16.911-13.147l47.021,5.888
			c15.608,1.954,27.378,15.29,27.378,31.021C512,192.016,505.219,198.797,496.853,198.797z"/>
	</g>
	<g>
		<path style="fill:#B8DCF2;" d="M296.461,402.42c-4.647,0-8.415-3.767-8.415-8.415v-5.463c0-4.648,3.767-8.415,8.415-8.415
			c4.647,0,8.415,3.767,8.415,8.415v5.463C304.876,398.653,301.108,402.42,296.461,402.42z"/>
	</g>
	<g>
		<path style="fill:#B8DCF2;" d="M191.269,402.42c-4.647,0-8.415-3.767-8.415-8.415v-5.463c0-4.648,3.767-8.415,8.415-8.415
			c4.647,0,8.415,3.767,8.415,8.415v5.463C199.684,398.653,195.917,402.42,191.269,402.42z"/>
	</g>
	<path style="fill:#DEEEFA;" d="M465.086,334.049H130.742l0,0c-24.302,0-44.003,19.701-44.003,44.003
		c0,24.302,19.701,44.003,44.003,44.003l0,0h266.099c8.365,0,15.146-6.781,15.146-15.146c0-8.365-6.781-15.146-15.146-15.146
		H130.742c-7.572,0-13.71-6.138-13.71-13.71c0-7.572,6.138-13.71,13.71-13.71h334.344c8.365,0,15.146-6.781,15.146-15.146
		C480.233,340.83,473.451,334.049,465.086,334.049z"/>
	<g>
		<path style="fill:#ED3346;" d="M469.836,168.905c0-7.681,4.897-14.201,11.732-16.658l-43.967-5.506
			c-8.305-1.043-15.872,4.847-16.912,13.147c-1.04,8.3,4.847,15.872,13.146,16.911l41.86,5.242
			C472.105,178.799,469.836,174.123,469.836,168.905z"/>
	</g>
	<g>
		<path style="fill:#B8DCF2;" d="M235.451,406.524c0-5.963,2.752-11.279,7.05-14.762H130.742c-7.571,0-13.71-6.138-13.71-13.71
			c0-7.572,6.138-13.71,13.71-13.71h111.52c-4.162-3.485-6.812-8.716-6.812-14.568c0-6.54,3.306-12.307,8.336-15.725H130.742
			c-24.302,0-44.002,19.701-44.002,44.003s19.701,44.003,44.002,44.003h112.785C238.648,418.615,235.451,412.947,235.451,406.524z"
			/>
	</g>
</g>
<g>
</g>
<g>
</g>
<g>
</g>
<g>
</g>
<g>
</g>
<g>
</g>
<g>
</g>
<g>
</g>
<g>
</g>
<g>
</g>
<g>
</g>
<g>
</g>
<g>
</g>
<g>
</g>
<g>
</g>
</svg>
