<?xml version="1.0" encoding="iso-8859-1"?>
<!-- Generator: Adobe Illustrator 21.0.0, SVG Export Plug-In . SVG Version: 6.00 Build 0)  -->
<svg version="1.1" id="Capa_1" xmlns="http://www.w3.org/2000/svg" xmlns:xlink="http://www.w3.org/1999/xlink" x="0px" y="0px"
	 viewBox="0 0 512 512" style="enable-background:new 0 0 512 512;" xml:space="preserve">
<g>
	<path style="fill:#4ECDF9;" d="M270.654,12.332L96.749,449.623h298.37c57.728-44.822,94.885-114.879,94.885-193.623
		C490.004,129.353,393.908,25.157,270.654,12.332z"/>
	<path style="fill:#284270;" d="M94.885,449.623c41.469,32.198,93.55,51.379,150.117,51.379c56.567,0,108.648-19.18,150.117-51.379
		H94.885z"/>
	<g>
		<path style="fill:#1D3260;" d="M246.486,449.623H94.884c41.47,32.198,93.551,51.379,150.117,51.379
			c0.751,0,1.499-0.017,2.249-0.024C223.307,493.51,223.612,457.731,246.486,449.623z"/>
	</g>
	<path style="fill:#FECF2B;" d="M245.002,10.998c9.123,0,18.125,0.515,26.989,1.487v61.604h-10.956
		c-7.221,0-13.423,5.393-14.425,12.542l-6.045,43.065c-0.465,3.318-1.203,6.73-2.192,10.14l-0.352,1.215h-1.761V11.17
		C239.162,11.068,242.074,10.998,245.002,10.998z"/>
	<path style="fill:#FFDD71;" d="M236.259,11.17v129.881h-12.775c-7.83,0-15.515,0.856-22.957,2.491V15.037
		C212.17,12.901,224.102,11.597,236.259,11.17z"/>
	<path style="fill:#FECF2B;" d="M200.527,15.037v128.505c-12.819,2.817-24.904,7.975-35.732,15.173V24.444
		C176.339,20.446,188.272,17.284,200.527,15.037z"/>
	<path style="fill:#FABD2B;" d="M164.795,158.715c10.828-7.198,22.913-12.356,35.732-15.173h-35.732V158.715z"/>
	<path style="fill:#FFDD71;" d="M164.795,24.444v134.271c-12.606,8.38-23.508,19.516-31.855,32.962l-0.495,0.796h-3.382V40.124
		C140.461,33.989,152.403,28.736,164.795,24.444z"/>
	<path style="fill:#FECF2B;" d="M129.063,143.542v48.932h3.382l0.495-0.796c8.347-13.446,19.249-24.582,31.855-32.962v-15.173
		H129.063z"/>
	<path style="fill:#FECF2B;" d="M129.063,40.124v152.35H93.33V63.584C104.496,54.771,116.448,46.912,129.063,40.124z"/>
	<rect x="93.331" y="143.542" style="fill:#FABD2B;" width="35.732" height="48.932"/>
	<path style="fill:#FFDD71;" d="M57.598,98.202c10.71-12.707,22.68-24.316,35.732-34.618v128.89
		c-2.281-0.245-17.618,1.586-35.732-6.961V98.202z"/>
	<path style="fill:#FECF2B;" d="M80.769,143.542c-8.383,0-16.282-2.171-23.17-5.971v47.941c18.114,8.547,33.451,6.716,35.732,6.961
		v-48.932H80.769z"/>
	<path style="fill:#FECF2B;" d="M23.248,151.735c9.123-19.368,20.706-37.345,34.351-53.533v87.311
		C42.056,178.175,30.257,165.956,23.248,151.735z"/>
	<path style="fill:#FABD2B;" d="M40.267,121.422c-6.357,9.651-12.055,19.774-17.019,30.313c7.01,14.221,18.808,26.439,34.351,33.778
		v-47.941C50.578,133.699,44.619,128.126,40.267,121.422z"/>
	<path style="fill:#DEEEFA;" d="M296.3,141.051h-60.041c1.179-3.733,2.078-7.599,2.638-11.589l6.044-43.065
		c1.126-8.024,7.991-13.993,16.094-13.993h34.403c4.562,0,8.095,3.991,7.543,8.52L296.3,141.051z"/>
	<path style="fill:#DEEEFA;" d="M24.173,149.755c11.454,24.473,36.255,41.035,64.505,41.035h39.841h4.896
		c-10.396,16.44-16.423,35.904-16.423,56.752c0,2.473,0.975,4.76,2.746,6.438l5.814,5.511l-8.004,0.302
		c-7.267,0.274-12.96,6.189-12.96,13.467c0,7.087,5.535,12.995,12.603,13.448l2.376,0.152l0.649,2.29
		c0.886,3.124,3.041,5.798,5.912,7.34l5.727,3.075l-5.814,2.908c-3.881,1.94-6.292,5.831-6.292,10.154
		c0,3.14,1.312,6.162,3.597,8.288l5.914,5.5l-8.069,0.332c-14.25,0.588-25.412,12.227-25.412,26.497
		c0,11.782,7.562,21.983,18.818,25.383l2.394,0.724v22.786c0,27.709,22.543,50.252,50.252,50.252h6.65v1.685h-45.376h-27.713
		C39.711,409.521,0,337.404,0,256C0,217.933,8.682,181.894,24.173,149.755z"/>
	<g>
		<path style="fill:#B8DCF2;" d="M116.992,402.137v-22.786l-2.394-0.724c-11.216-3.388-18.76-13.53-18.813-25.259H60.729
			c-22.7,0-42.345-13.026-51.906-32.003c14.922,54.016,47.878,100.546,91.983,132.708h27.713h45.376v-1.684h-6.65
			C139.535,452.389,116.992,429.847,116.992,402.137z"/>
	</g>
	<path style="fill:#ED3346;" d="M29.283,372.237V158.874c12.841,19.378,34.815,31.915,59.395,31.915h6.207v258.833
		C67.995,428.745,45.568,402.396,29.283,372.237z"/>
	<path style="fill:#DB2640;" d="M60.729,353.368c-11.592,0-22.381-3.408-31.447-9.257v28.126
		c16.285,30.159,38.712,56.508,65.602,77.386v-96.255H60.729z"/>
	<path style="fill:#F2B186;" d="M490.788,379.202v22.935c0,28.565-23.371,51.936-51.936,51.936H167.244
		c-28.565,0-51.936-23.371-51.936-51.936v-22.935H490.788z"/>
	<path style="fill:#E29764;" d="M196.961,402.138v-22.935h-81.653v22.935c0,28.565,23.371,51.936,51.936,51.936h81.653
		C220.332,454.074,196.961,430.703,196.961,402.138z"/>
	<path style="fill:#975242;" d="M122.3,325.041h361.496c15.577,0,28.204,12.627,28.204,28.204l0,0
		c0,15.577-12.628,28.204-28.204,28.204H122.3c-15.577,0-28.204-12.627-28.204-28.204l0,0
		C94.096,337.668,106.723,325.041,122.3,325.041z"/>
	<path style="fill:#823C33;" d="M177.596,353.245c0-15.577,12.627-28.204,28.204-28.204h-83.5
		c-15.577,0-28.204,12.627-28.204,28.204c0,15.577,12.627,28.204,28.204,28.204h83.5
		C190.223,381.449,177.596,368.821,177.596,353.245z"/>
	<path style="fill:#FABD2B;" d="M465.212,323.918l-116.435,65.768c-28.379,16.029-63.078,16.029-91.457,0l-116.435-65.768H465.212z"
		/>
	<path style="fill:#F29A2B;" d="M286.384,323.918h-145.5l116.435,65.768c6.051,3.418,12.391,6.1,18.894,8.061
		C253.259,376.067,260.209,337.914,286.384,323.918z"/>
	<path style="fill:#F2B186;" d="M223.483,139.367h159.129c59.496,0,108.175,51.509,108.175,114.465l0,0
		c0,6.169-4.726,11.17-10.556,11.17H125.864c-5.83,0-10.556-5.001-10.556-11.17l0,0
		C115.308,190.876,163.987,139.367,223.483,139.367z"/>
	<path style="fill:#E29764;" d="M196.961,253.832c0-62.956,48.679-114.465,108.175-114.465h-81.653
		c-59.497,0-108.175,51.509-108.175,114.465c0,6.169,4.726,11.17,10.556,11.17h81.654
		C201.687,265.002,196.961,260.001,196.961,253.832z"/>
	<path style="fill:#F94862;" d="M118.065,312.627c0-7.165,5.863-13.028,13.028-13.028h136.464c7.165,0,13.028,5.863,13.028,13.028
		c0,7.166-5.863,13.028-13.028,13.028H131.094C123.928,325.655,118.065,319.792,118.065,312.627z"/>
	<path style="fill:#F94862;" d="M331.125,312.627c0-7.165,5.863-13.028,13.028-13.028h130.849c7.165,0,13.028,5.863,13.028,13.028
		c0,7.166-5.863,13.028-13.028,13.028H344.153C336.987,325.655,331.125,319.792,331.125,312.627z"/>
	<path style="fill:#7FBC0A;" d="M131.796,272.137h342.503c7.552,0,13.731,6.179,13.731,13.731c0,7.552-6.179,13.731-13.731,13.731
		H131.796c-7.552,0-13.731-6.179-13.731-13.731C118.065,278.315,124.244,272.137,131.796,272.137z"/>
	<path style="fill:#79AD05;" d="M200.527,285.867c0-7.552,6.179-13.731,13.731-13.731h-82.461c-7.552,0-13.731,6.179-13.731,13.731
		c0,7.552,6.179,13.731,13.731,13.731h82.461C206.706,299.598,200.527,293.42,200.527,285.867z"/>
	<g>
		<path style="fill:#96CC1F;" d="M155.344,246.867c13.534,0,21.006,4.503,26.464,7.79c3.92,2.362,5.709,3.441,10.814,3.441
			c5.103,0,6.891-1.078,10.811-3.439c5.456-3.288,12.929-7.791,26.462-7.791c13.534,0,21.006,4.503,26.462,7.791
			c3.92,2.361,5.709,3.439,10.812,3.439c5.103,0,6.891-1.078,10.811-3.439c5.455-3.288,12.928-7.791,26.461-7.791
			c13.533,0,21.006,4.503,26.461,7.791c3.92,2.361,5.708,3.439,10.811,3.439c5.101,0,6.89-1.078,10.807-3.439
			c5.455-3.288,12.927-7.791,26.459-7.791c13.533,0,21.005,4.503,26.46,7.791c3.918,2.361,5.706,3.439,10.806,3.439
			c5.103,0,6.891-1.078,10.811-3.439c5.455-3.288,12.928-7.791,26.461-7.791c13.534,0,21.006,4.503,26.462,7.791
			c3.918,2.361,5.706,3.439,10.809,3.439c8.374,0,15.161,6.788,15.161,15.161s-6.788,15.161-15.161,15.161
			c-13.533,0-21.005-4.503-26.46-7.791c-3.92-2.361-5.707-3.439-10.811-3.439c-5.103,0-6.891,1.078-10.81,3.439
			c-5.455,3.288-12.929,7.791-26.461,7.791c-13.532,0-21.004-4.503-26.459-7.791c-3.918-2.361-5.706-3.439-10.807-3.439
			c-5.1,0-6.889,1.078-10.806,3.439c-5.455,3.288-12.927,7.791-26.46,7.791s-21.006-4.503-26.461-7.791
			c-3.92-2.361-5.707-3.439-10.811-3.439c-5.103,0-6.891,1.078-10.811,3.439c-5.455,3.288-12.928,7.791-26.461,7.791
			c-13.534,0-21.006-4.503-26.462-7.791c-3.92-2.361-5.709-3.439-10.812-3.439c-5.103,0-6.892,1.078-10.812,3.439
			c-5.456,3.288-12.928,7.791-26.461,7.791c-13.535,0-21.007-4.503-26.465-7.79c-3.92-2.362-5.708-3.44-10.813-3.44
			c-5.105,0-6.894,1.078-10.815,3.44c-5.456,3.287-12.93,7.79-26.463,7.79c-8.374,0-15.161-6.788-15.161-15.161
			s6.788-15.161,15.161-15.161c5.105,0,6.894-1.078,10.815-3.441C134.337,251.371,141.81,246.867,155.344,246.867z"/>
	</g>
	<path style="fill:#DB2640;" d="M210.547,312.627c0-7.165,5.863-13.028,13.028-13.028h158.926c7.165,0,13.028,5.863,13.028,13.028
		c0,7.166-5.863,13.028-13.028,13.028H223.576C216.41,325.655,210.547,319.792,210.547,312.627z"/>
	<g>
		<path style="fill:#7FBC0A;" d="M189.951,271.546c0-5.786,2.915-10.888,7.353-13.928c-1.282,0.323-2.742,0.48-4.684,0.48
			c-5.105,0-6.894-1.078-10.814-3.441c-5.458-3.287-12.929-7.79-26.463-7.79c-13.534,0-21.007,4.503-26.464,7.79
			c-3.921,2.363-5.71,3.441-10.815,3.441c-8.374,0-15.161,6.788-15.161,15.161s6.788,15.161,15.161,15.161
			c13.534,0,21.007-4.503,26.463-7.79c3.921-2.362,5.71-3.44,10.815-3.44c5.104,0,6.893,1.078,10.813,3.44
			c5.458,3.287,12.93,7.79,26.465,7.79c3.417,0,6.445-0.288,9.154-0.771C194.923,285.504,189.951,279.106,189.951,271.546z"/>
	</g>
</g>
<g>
</g>
<g>
</g>
<g>
</g>
<g>
</g>
<g>
</g>
<g>
</g>
<g>
</g>
<g>
</g>
<g>
</g>
<g>
</g>
<g>
</g>
<g>
</g>
<g>
</g>
<g>
</g>
<g>
</g>
</svg>
