<?xml version="1.0" encoding="iso-8859-1"?>
<!-- Generator: Adobe Illustrator 21.0.0, SVG Export Plug-In . SVG Version: 6.00 Build 0)  -->
<svg version="1.1" id="Capa_1" xmlns="http://www.w3.org/2000/svg" xmlns:xlink="http://www.w3.org/1999/xlink" x="0px" y="0px"
	 viewBox="0 0 512 512" style="enable-background:new 0 0 512 512;" xml:space="preserve">
<g>
	<path style="fill:#FECF2B;" d="M256,21.997c-52.244,0-100.66,16.364-140.427,44.23l140.324,445.762v0.01
		c0.034,0,0.068,0.001,0.103,0.001c135.311,0,245.002-109.691,245.002-245.002S391.31,21.997,256,21.997z"/>
	<path style="fill:#B8DCF2;" d="M30.417,171.255h221.497C241.288,111.063,188.73,65.337,125.49,65.337
		c-3.058,0-6.091,0.11-9.096,0.32C78.642,91.883,48.611,128.443,30.417,171.255z"/>
	<g>
		<path style="fill:#89C2E5;" d="M54.345,127.846c-9.366,13.544-17.41,28.073-23.928,43.409h46.94
			C55.019,171.255,41.831,146.258,54.345,127.846z"/>
	</g>
	<g>
		<path style="fill:#F94862;" d="M165.574,184.5c-1.016,0-2.05-0.159-3.067-0.495c-5.137-1.693-7.928-7.229-6.235-12.365
			l46.163-140.067c1.693-5.136,7.232-7.928,12.365-6.235c5.137,1.693,7.928,7.229,6.235,12.365L174.872,177.77
			C173.515,181.889,169.686,184.5,165.574,184.5z"/>
	</g>
	<path style="fill:#ED3346;" d="M156.399,171.255h20.621l26.257-79.668c-5.354-4.084-11.037-7.757-17.005-10.971L156.399,171.255z"
		/>
	<g>
		<path style="fill:#F94862;" d="M286.161,22.849h-44.589c-5.408,0-9.792-4.383-9.792-9.792s4.384-9.792,9.792-9.792h44.589
			c5.408,0,9.792,4.384,9.792,9.792S291.569,22.849,286.161,22.849z"/>
	</g>
	<g>
		<path style="fill:#ED3346;" d="M211.737,47.698c-1.355,0-2.732-0.213-4.089-0.66c-6.849-2.257-10.57-9.639-8.313-16.488
			C205.358,12.278,222.332,0,241.572,0c7.211,0,13.056,5.846,13.056,13.057c0,7.21-5.845,13.057-13.056,13.057
			c-7.943,0-14.95,5.068-17.436,12.613C222.325,44.216,217.22,47.698,211.737,47.698z"/>
	</g>
	<path style="fill:#0D9CDA;" d="M13.536,231.725c-1.661,11.52-2.538,23.293-2.538,35.273c0,120.476,86.958,220.641,201.532,241.156
		c3.519-2.785,5.984-6.875,6.602-11.618l34.744-266.239c-2.606,0.923-5.406,1.428-8.318,1.428H13.536z"/>
	<g>
		<path style="fill:#0F89CB;" d="M67.4,231.725H13.536c-1.661,11.52-2.538,23.293-2.538,35.273
			c0,74.268,33.054,140.807,85.244,185.737L67.4,231.725z"/>
	</g>
	<path style="fill:#0CB0EA;" d="M38.914,283.178c-9.438,0-18.524,1.486-27.067,4.191c5.181,62.927,34.139,119.107,77.875,159.546
		c23.519-16.182,38.942-43.281,38.942-73.987C128.665,323.361,88.482,283.178,38.914,283.178z"/>
	<path style="fill:#0D9CDA;" d="M94.972,443.003L75.107,290.782c-11.072-4.885-23.314-7.603-36.193-7.603
		c-9.438,0-18.524,1.486-27.067,4.191c5.012,60.9,32.629,117.683,77.89,159.536C91.533,445.67,93.274,444.363,94.972,443.003z"/>
	<g>
		<path style="fill:#0CB0EA;" d="M217.409,269.576h-17.06c-4.416,0-7.997-3.58-7.997-7.997c0-4.417,3.58-7.997,7.997-7.997h17.06
			c4.416,0,7.997,3.58,7.997,7.997C225.406,265.996,221.826,269.576,217.409,269.576z"/>
	</g>
	<path style="fill:#B8DCF2;" d="M13.238,233.857h232.321c13.457,0,21.326-11.799,21.877-25.127H17.989
		C15.983,216.952,14.39,225.334,13.238,233.857z"/>
	<path style="fill:#89C2E5;" d="M53.016,208.731H17.989c-2.006,8.221-3.598,16.604-4.751,25.127h61.655
		C61.436,233.857,53.568,222.058,53.016,208.731z"/>
	<path style="fill:#F2B186;" d="M256.898,512h145.347c32.849,0,59.725-22.572,59.725-50.159c0-5.268-5.085-9.538-11.356-9.538H95.72
		C138.683,489.497,194.713,512,256,512c0.3,0,0.598-0.01,0.898-0.011V512z"/>
	<path style="fill:#F2B186;" d="M92.199,398.363h358.413c6.272,0,11.356-4.27,11.356-9.538l0,0c0-27.588-26.876-50.16-59.725-50.16
		H140.567c-32.849,0-59.725,22.572-59.725,50.16l0,0C80.843,394.093,85.927,398.363,92.199,398.363z"/>
	<g>
		<path style="fill:#E29764;" d="M177.957,461.84c0-5.267,5.085-9.538,11.356-9.538H95.72
			c33.701,29.176,75.444,49.306,121.456,56.632C194.35,501.871,177.957,483.385,177.957,461.84z"/>
	</g>
	<path style="fill:#E29764;" d="M177.957,388.825c0-27.588,26.876-50.16,59.725-50.16h-97.115c-32.849,0-59.725,22.572-59.725,50.16
		c0,5.267,5.084,9.538,11.357,9.538h97.114C183.042,398.363,177.957,394.093,177.957,388.825z"/>
	<path style="fill:#F94862;" d="M452.933,396.23H89.879c-13.015,0-24.106,8.659-27.796,20.501
		c10.685,13.818,22.813,26.459,36.16,37.704h354.691c16.006,0,29.102-13.096,29.102-29.102l0,0
		C482.035,409.327,468.939,396.23,452.933,396.23z"/>
	<path style="fill:#ED3346;" d="M156.448,425.333c0-16.006,13.096-29.102,29.103-29.102H89.879
		c-13.015,0-24.106,8.659-27.796,20.501c10.685,13.818,22.813,26.459,36.16,37.704h87.309
		C169.544,454.435,156.448,441.339,156.448,425.333z"/>
	<g>
		<path style="fill:#DEEEFA;" d="M442.712,439.727c-10.651,0-16.432-4.748-20.652-8.214c-3.477-2.856-5.575-4.58-10.5-4.58
			c-4.924,0-7.023,1.724-10.5,4.579c-4.221,3.467-10.001,8.215-20.652,8.215c-10.651,0-16.43-4.748-20.65-8.215
			c-3.477-2.855-5.575-4.579-10.498-4.579c-4.923,0-7.022,1.724-10.498,4.579c-4.22,3.467-10,8.215-20.651,8.215
			c-10.65,0-16.43-4.748-20.65-8.215c-3.476-2.856-5.574-4.579-10.498-4.579c-4.923,0-7.021,1.723-10.497,4.579
			c-4.22,3.467-10,8.215-20.65,8.215c-4.416,0-7.997-3.58-7.997-7.997c0-4.417,3.58-7.997,7.997-7.997
			c4.923,0,7.022-1.723,10.497-4.579c4.22-3.467,10-8.215,20.65-8.215s16.43,4.748,20.65,8.215
			c3.476,2.856,5.574,4.579,10.497,4.579c4.924,0,7.022-1.724,10.499-4.579c4.22-3.467,9.999-8.215,20.65-8.215
			c10.651,0,16.43,4.748,20.65,8.215c3.476,2.855,5.575,4.579,10.498,4.579c4.925,0,7.024-1.724,10.5-4.58
			c4.221-3.466,10-8.214,20.652-8.214c10.651,0,16.432,4.748,20.652,8.214c3.477,2.856,5.575,4.58,10.5,4.58
			c4.416,0,7.997,3.58,7.997,7.997C450.708,436.147,447.128,439.727,442.712,439.727z"/>
	</g>
	<g>
		<path style="fill:#FABD2B;" d="M255.815,439.727c-10.65,0-16.428-4.748-20.648-8.215c-3.476-2.856-5.573-4.579-10.495-4.579
			c-4.922,0-7.02,1.723-10.495,4.579c-4.22,3.467-9.998,8.215-20.648,8.215c-10.649,0-16.428-4.748-20.647-8.215
			c-3.475-2.856-5.572-4.579-10.493-4.579c-4.922,0-7.02,1.723-10.496,4.579c-4.22,3.467-9.999,8.215-20.65,8.215
			c-10.65,0-16.429-4.748-20.649-8.215c-3.476-2.856-5.573-4.579-10.496-4.579c-4.416,0-7.997-3.58-7.997-7.997
			c0-4.417,3.58-7.997,7.997-7.997c10.65,0,16.429,4.748,20.649,8.215c3.476,2.856,5.573,4.579,10.496,4.579
			c4.923,0,7.021-1.723,10.497-4.579c4.22-3.467,10-8.215,20.649-8.215c10.649,0,16.428,4.749,20.647,8.216
			c3.475,2.855,5.572,4.578,10.493,4.578c4.921,0,7.019-1.723,10.495-4.579c4.219-3.467,9.998-8.215,20.648-8.215
			c10.65,0,16.428,4.748,20.648,8.215c3.475,2.856,5.573,4.579,10.495,4.579c4.416,0,7.997,3.58,7.997,7.997
			C263.812,436.147,260.232,439.727,255.815,439.727z"/>
	</g>
	<path style="fill:#DEEEFA;" d="M267.04,169.122H31.35c-5.676,13.01-10.256,26.605-13.621,40.675H267.04
		c7.973,0,14.497-6.524,14.497-14.497v-11.68C281.537,175.646,275.013,169.122,267.04,169.122z"/>
	<path style="fill:#B8DCF2;" d="M38.914,195.3v-11.68c0-7.973,6.524-14.497,14.497-14.497H31.35
		c-5.676,13.01-10.256,26.605-13.621,40.675h35.683C45.438,209.797,38.914,203.273,38.914,195.3z"/>
	<circle style="fill:#DEEEFA;" cx="153.193" cy="92.644" r="12.028"/>
	<circle style="fill:#DEEEFA;" cx="132.96" cy="109.024" r="5.902"/>
</g>
<g>
</g>
<g>
</g>
<g>
</g>
<g>
</g>
<g>
</g>
<g>
</g>
<g>
</g>
<g>
</g>
<g>
</g>
<g>
</g>
<g>
</g>
<g>
</g>
<g>
</g>
<g>
</g>
<g>
</g>
</svg>
