<?xml version="1.0" encoding="iso-8859-1"?>
<!-- Generator: Adobe Illustrator 21.0.0, SVG Export Plug-In . SVG Version: 6.00 Build 0)  -->
<svg version="1.1" id="Capa_1" xmlns="http://www.w3.org/2000/svg" xmlns:xlink="http://www.w3.org/1999/xlink" x="0px" y="0px"
	 viewBox="0 0 512 512" style="enable-background:new 0 0 512 512;" xml:space="preserve">
<g>
	<path style="fill:#7FBC0A;" d="M456.74,407.471c27.885-39.775,44.262-88.209,44.262-140.473
		C501.002,131.688,391.31,21.997,256,21.997S10.998,131.688,10.998,266.998c0,52.264,16.376,100.698,44.262,140.473L456.74,407.471z
		"/>
	<path style="fill:#F94862;" d="M271.481,14.943c0.201-0.876,0.317-1.783,0.317-2.717C271.798,5.502,266.296,0,259.572,0h-7.132
		c-6.724,0-12.226,5.502-12.226,12.226c0,0.934,0.116,1.841,0.317,2.717H271.481z"/>
	<path style="fill:#503B27;" d="M362.985,192.442l-10.039-42.906c-5.918,7.721-15.884,12.237-26.67,10.037
		c-5.793-1.181-11.977-2.724-18.411-4.74c-33.799-10.589-69.996-10.806-103.92-0.626l-4.291,1.287
		c-4.748,1.425-9.364,2.593-13.773,3.551c-10.78,2.342-20.82-2.055-26.784-9.707l-10.084,43.103
		c-9.634,35.978,17.478,71.305,54.724,71.305c14.948,0,89.595,0,104.522,0C345.507,263.747,372.619,228.421,362.985,192.442z"/>
	<g>
		<path style="fill:#FFAA7B;" d="M194.69,310.791v17.601c0,33.189,26.904,60.093,60.093,60.093
			c33.189,0,60.093-26.905,60.093-60.093v-19.05c0-0.295,0.041-0.576,0.108-0.842c-10.875-7.012-18.404-15.338-18.404-24.963
			c0-5.64,0-3.95,0-7.602c-9.833,8.79-26.695,19.99-40.581,20.326c-13.887-0.336-30.749-11.536-40.581-20.326
			c0,3.847,0,1.548,0,7.602c0,10.325-8.658,19.158-20.823,26.474C194.653,310.26,194.69,310.519,194.69,310.791z"/>
	</g>
	<path style="fill:#FC9B6B;" d="M256,296.262c-13.887-0.336-30.749-11.536-40.581-20.326c0,3.847,0,1.548,0,7.602
		c0,10.325-8.658,19.158-20.823,26.474c0.058,0.249,0.095,0.507,0.095,0.78v17.601c0,9.511,2.218,18.5,6.151,26.493
		c9.13-2.368,20.436-3.135,40.713-14.196c19.906-10.858,25.983-32.176,27.673-47.386C264.731,295.046,260.228,296.159,256,296.262z"
		/>
	<path style="fill:#FFAA7B;" d="M177.259,198.144c0,0-4.881-30.89,0.741-49.286c-5.101-3.4-14.956-5.06-19.388-0.727
		c-9.074,8.871-2.426,22.268,0.756,30.73c0.977,2.598,1.607,5.226,1.892,7.859c0.619,5.721,3.721,14.094,16.582,13.897
		C177.648,199.793,177.449,198.982,177.259,198.144z"/>
	<g>
		<path style="fill:#FC9B6B;" d="M175.361,176.406c-5.198,4.016-12.505,3.661-17.292-0.885c0.462,1.176,0.907,2.296,1.3,3.34
			c0.977,2.598,1.607,5.226,1.892,7.859c0.619,5.721,3.721,14.094,16.582,13.896c-0.194-0.824-0.393-1.635-0.583-2.473
			C177.259,198.144,175.704,188.294,175.361,176.406z"/>
	</g>
	<path style="fill:#FFAA7B;" d="M353.388,148.131c-4.432-4.333-14.287-2.673-19.388,0.727c5.622,18.396,0.741,49.286,0.741,49.286
		c-0.19,0.838-0.389,1.649-0.583,2.473c12.861,0.197,15.963-8.176,16.582-13.897c0.285-2.633,0.915-5.261,1.892-7.859
		C355.814,170.399,362.462,157.003,353.388,148.131z"/>
	<path style="fill:#FFAA7B;" d="M353.388,148.131c-4.432-4.333-14.287-2.673-19.388,0.727c5.622,18.396,0.741,49.286,0.741,49.286
		c-0.19,0.838-0.389,1.649-0.583,2.473c12.861,0.197,15.963-8.176,16.582-13.897c0.285-2.633,0.915-5.261,1.892-7.859
		C355.814,170.399,362.462,157.003,353.388,148.131z"/>
	<g>
		<path style="fill:#FC9B6B;" d="M336.628,176.772c-0.364,11.723-1.887,21.373-1.887,21.373c-0.19,0.838-0.389,1.649-0.583,2.473
			c12.861,0.198,15.963-8.176,16.582-13.896c0.285-2.633,0.915-5.261,1.892-7.859c0.489-1.301,1.06-2.719,1.644-4.218
			C349.78,179.765,342.198,180.683,336.628,176.772z"/>
	</g>
	<path style="fill:#FFBB99;" d="M326.82,132.232c-0.162-5.428-1.007-15.292-4.645-24.808c-43.838-9.545-88.883-9.252-132.676,0.881
		c-3.36,9.24-4.165,18.666-4.322,23.927c-0.075,2.528-1.094,4.967-2.949,7.056c-10.217,11.513-7.979,45.149-5.596,58.998
		c5.279,23.3,12.925,43.617,22.724,60.388c9.948,17.025,25.013,30.266,43.567,38.293c8.31,3.594,17.839,3.594,26.148,0
		c18.554-8.027,33.619-21.268,43.567-38.293c9.798-16.766,17.444-37.083,22.734-60.429c2.29-14.557,4.728-47.311-5.605-58.956
		C327.914,137.199,326.895,134.759,326.82,132.232z"/>
	<path style="fill:#FFAA7B;" d="M244.814,258.673c-6.572-16.771-11.7-37.087-15.241-60.388c-1.598-13.848-3.099-47.485,3.753-58.998
		c1.244-2.089,1.927-4.528,1.978-7.056c0.105-5.261,0.645-14.688,2.898-23.927c11.667-4.025,23.467-6.492,35.296-7.411
		c-28.086-1.466-56.293,1.001-83.999,7.411c-3.36,9.24-4.165,18.666-4.321,23.927c-0.075,2.528-1.094,4.967-2.949,7.056
		c-10.217,11.513-7.979,45.149-5.596,58.998c5.279,23.3,12.926,43.617,22.725,60.388c9.948,17.025,25.013,30.266,43.566,38.293
		c8.311,3.594,17.839,3.594,26.148,0c1.001-0.433,1.988-0.889,2.969-1.353C260.511,287.491,251.125,274.778,244.814,258.673z"/>
	<path style="fill:#ED3346;" d="M447.466,374.516c-14.913-29.825-41.086-38.153-53.011-40.443c0,0-49.23-8.984-77.859-26.593
		c-2.127-1.308-4.858,0.205-4.858,2.702v18.035c0,31.419-25.47,56.889-56.889,56.889c-31.418,0-56.889-25.47-56.889-56.889v-16.663
		c0-2.457-2.655-3.98-4.781-2.749c-28.878,16.734-75.634,25.268-75.634,25.268c-11.925,2.29-38.098,10.618-53.011,40.443
		c-4.28,8.56-7.547,19.467-9.967,31.955c23.882,34.426,56.36,62.434,94.327,80.924l213.625,0.287
		c38.219-18.487,70.909-46.607,94.914-81.21C455.012,393.983,451.746,383.076,447.466,374.516z"/>
	<path style="fill:#DB2640;" d="M157.043,364.175h27.508c6.762-6.762,12.373-8.478,19.638-10.085
		c-3.974-7.764-6.229-16.553-6.229-25.874v-16.663c0-2.457-2.655-3.98-4.781-2.749c-28.878,16.734-75.634,25.268-75.634,25.268
		c-11.925,2.29-38.098,10.618-53.011,40.443c-4.28,8.56-7.547,19.467-9.967,31.955c12.378,17.843,27.065,33.961,43.628,47.926
		C103.331,364.488,157.043,364.175,157.043,364.175z"/>
	<path style="fill:#F94862;" d="M316.595,307.48c-2.127-1.308-4.858,0.205-4.858,2.702v18.034c0,31.419-25.47,56.889-56.889,56.889
		c-31.419,0-56.889-25.47-56.889-56.889v-16.663c0-2.457-2.655-3.98-4.781-2.749c-5.137,2.977-10.841,5.692-16.745,8.148v12.468
		c0,43.27,35.077,78.348,78.348,78.348s78.348-35.077,78.348-78.348v-13.499C327.237,313.373,321.601,310.559,316.595,307.48z"/>
	<path style="fill:#ED3346;" d="M204.189,354.09c-3.973-7.764-6.229-16.553-6.229-25.874v-16.663c0-2.457-2.655-3.98-4.781-2.749
		c-5.137,2.977-10.84,5.692-16.745,8.148v12.468c0,12.482,2.933,24.273,8.125,34.746
		C191.317,357.412,196.927,355.697,204.189,354.09z"/>
	<path style="fill:#FABD2B;" d="M178.886,311.191l-19.45,8.644c-1.455,0.647-2.393,2.09-2.393,3.682V448.08h27.508V314.873
		C184.551,311.957,181.55,310.007,178.886,311.191z"/>
	<path style="fill:#FABD2B;" d="M350.6,319.836l-19.45-8.644c-2.664-1.184-5.665,0.766-5.665,3.682V448.08h27.508V323.517
		C352.993,321.925,352.055,320.482,350.6,319.836z"/>
	<path style="fill:#F29A2B;" d="M165.211,399.63L165.211,399.63c-4.967-2.208-8.168-7.133-8.168-12.568v61.018h27.508v-61.018
		C184.551,397.014,174.306,403.672,165.211,399.63z"/>
	<path style="fill:#F29A2B;" d="M344.825,399.63c-9.095,4.042-19.34-2.615-19.34-12.568v61.018h27.508v-61.018
		C352.993,392.497,349.792,397.422,344.825,399.63z"/>
	<path style="fill:#DEEEFA;" d="M345.159,439.999H164.86c-4.78,0-8.656,3.875-8.656,8.655v6.216c0,11.326-3.321,22.244-9.337,31.521
		C179.732,502.772,216.786,512,256,512c38.981,0,75.826-9.119,108.544-25.316c-6.902-9.703-10.73-21.416-10.73-33.589v-4.441
		C353.815,443.875,349.94,439.999,345.159,439.999z"/>
	<path style="fill:#B8DCF2;" d="M246.888,477.502c-10.113-0.764-18.086-9.193-18.086-19.502c0-8.078,4.894-15.009,11.876-18H164.86
		c-4.78,0-8.656,3.875-8.656,8.655v6.216c0,11.326-3.321,22.244-9.337,31.521c30.307,15.104,64.18,24.108,100.02,25.421V477.502z"/>
	<path style="fill:#B8DCF2;" d="M323.318,474.639H188.696c-3.056,0-5.534,2.477-5.534,5.534v20.818
		C206.172,508.146,230.636,512,256,512c25.369,0,49.837-3.856,72.851-11.013v-20.814
		C328.851,477.116,326.374,474.639,323.318,474.639z"/>
	<path style="fill:#89C2E5;" d="M235.057,482.903c0-3.615,1.239-6.738,3.043-8.264h-49.403c-3.056,0-5.534,2.477-5.534,5.533v20.818
		c16.609,5.164,33.979,8.599,51.895,10.116V482.903z"/>
	<path style="fill:#ED3346;" d="M357.591,132.44H154.413V84.187c0-39.368,31.914-71.282,71.282-71.282h60.614
		c39.368,0,71.282,31.914,71.282,71.282V132.44z"/>
	<path style="fill:#DB2640;" d="M253.505,12.905h-27.81c-39.368,0-71.282,31.914-71.282,71.282v48.253h73.242V61.936
		C227.655,41.577,237.897,23.616,253.505,12.905z"/>
	<path style="fill:#F94862;" d="M357.591,119.054c-2.226-0.155-25.389,1.27-54.345-7.802h0c-30.789-9.645-63.761-9.844-94.663-0.57
		l-3.908,1.173c-26.361,7.91-49.518,7.146-50.262,7.199v0c-5.149,19.289,11.96,37.098,31.47,32.86
		c4.408-0.958,9.024-2.126,13.773-3.551l4.29-1.287c33.924-10.181,70.121-9.963,103.92,0.626l0,0
		c6.433,2.015,12.618,3.559,18.411,4.74C345.843,156.431,362.741,138.347,357.591,119.054L357.591,119.054z"/>
	<path style="fill:#ED3346;" d="M227.626,106.226c-6.408,1.102-12.77,2.574-19.043,4.456l-3.908,1.173
		c-26.361,7.91-49.518,7.146-50.262,7.199v0c-5.149,19.289,11.96,37.098,31.47,32.86c4.408-0.958,9.024-2.126,13.773-3.551
		l4.29-1.287c9.354-2.807,18.88-4.819,28.482-6.046c-0.001-0.001-0.001-0.002-0.002-0.003
		C211.331,117.447,227.021,106.629,227.626,106.226z"/>
	<circle style="fill:#FABD2B;" cx="256.007" cy="61.543" r="28.352"/>
	<circle style="fill:#F6AC2B;" cx="256.007" cy="61.543" r="14.176"/>
</g>
<g>
</g>
<g>
</g>
<g>
</g>
<g>
</g>
<g>
</g>
<g>
</g>
<g>
</g>
<g>
</g>
<g>
</g>
<g>
</g>
<g>
</g>
<g>
</g>
<g>
</g>
<g>
</g>
<g>
</g>
</svg>
