<?xml version="1.0" encoding="iso-8859-1"?>
<!-- Generator: Adobe Illustrator 21.0.0, SVG Export Plug-In . SVG Version: 6.00 Build 0)  -->
<svg version="1.1" id="Capa_1" xmlns="http://www.w3.org/2000/svg" xmlns:xlink="http://www.w3.org/1999/xlink" x="0px" y="0px"
	 viewBox="0 0 512 512" style="enable-background:new 0 0 512 512;" xml:space="preserve">
<g>
	<path style="fill:#1D3260;" d="M436.921,432.198c39.8-43.563,64.081-101.544,64.081-165.2
		c0-135.311-109.691-245.002-245.002-245.002S10.998,131.688,10.998,266.998c0,63.656,24.281,121.637,64.081,165.2H436.921z"/>
	<g>
		<rect x="77.329" y="196.732" style="fill:#0CB0EA;" width="357.341" height="236.202"/>
	</g>
	<path style="fill:#0D9CDA;" d="M135.559,404.244V225.422c0-15.845,12.845-28.69,28.69-28.69H77.33v236.202h86.919
		C148.403,432.934,135.559,420.089,135.559,404.244z"/>
	<g>
		<path style="fill:#B8DCF2;" d="M205.868,227.565v20.66c0,9.022,7.313,16.335,16.335,16.335s16.335-7.313,16.335-16.335v-20.66
			H205.868z"/>
	</g>
	<g>
		<path style="fill:#B8DCF2;" d="M271.208,227.565v20.66c0,9.022,7.313,16.335,16.335,16.335c9.022,0,16.335-7.313,16.335-16.335
			v-20.66H271.208z"/>
	</g>
	<path style="fill:#89C2E5;" d="M205.868,227.565v20.66c0,1.264,0.158,2.489,0.429,3.671c1.668-7.251,8.148-12.664,15.906-12.664
		c7.758,0,14.238,5.413,15.906,12.664c0.271-1.182,0.429-2.406,0.429-3.671v-20.66H205.868z"/>
	<path style="fill:#89C2E5;" d="M271.208,227.565v20.66c0,1.264,0.158,2.489,0.429,3.671c1.668-7.251,8.148-12.664,15.906-12.664
		c7.758,0,14.238,5.413,15.906,12.664c0.272-1.182,0.429-2.406,0.429-3.671v-20.66H271.208z"/>
	<path style="fill:#DEEEFA;" d="M336.95,197.148c0.055,0.745,0.092,1.494,0.092,2.253c0,16.799-13.618,30.417-30.417,30.417H205.375
		c-16.799,0-30.417-13.618-30.417-30.417c0-0.759,0.037-1.508,0.092-2.253H336.95z"/>
	<path style="fill:#B8DCF2;" d="M226.886,199.401c0-0.759,0.037-1.508,0.092-2.253H175.05c-0.054,0.745-0.092,1.494-0.092,2.253
		c0,16.8,13.618,30.417,30.417,30.417h51.928C240.504,229.818,226.886,216.2,226.886,199.401z"/>
	<path style="fill:#8E4739;" d="M291.501,411.655h-71.001c-7.013,0-13.827-2.077-19.623-5.912
		c4.051,8.179,9.57,14.086,14.151,17.978c4.504,3.828,10.217,5.93,16.128,5.93h49.69c5.911,0,11.624-2.103,16.128-5.93
		c4.581-3.893,10.099-9.799,14.151-17.978C305.328,409.578,298.514,411.655,291.501,411.655z"/>
	<g>
		<path style="fill:#8E4739;" d="M317.979,383.775c-1.887-4.269,0.043-9.258,4.31-11.145l22.978-10.16
			c5.402-2.388,11.343-4.336,18.697-6.128c8.255-2.013,13.863-9.66,13.333-18.184c-0.98-15.791-21.081-22.376-31.173-9.879
			c-2.933,3.628-8.253,4.193-11.882,1.264c-3.631-2.933-4.196-8.252-1.264-11.883c19.831-24.551,59.262-11.537,61.185,19.451
			c1.037,16.703-9.98,31.694-26.197,35.648c-6.359,1.551-11.401,3.193-15.866,5.166l-22.978,10.16
			C324.847,389.979,319.861,388.031,317.979,383.775z"/>
	</g>
	<path style="fill:#B8DCF2;" d="M133.693,479.33C169.686,500.107,211.453,512,256,512s86.314-11.893,122.307-32.67H133.693z"/>
	<path style="fill:#89C2E5;" d="M239.797,479.33H133.693c31.341,18.092,67.061,29.443,105.18,32.076
		C224.305,506.24,224.959,483.771,239.797,479.33z"/>
	<path style="fill:#DEEEFA;" d="M435.123,429.198H76.877c-1.374,0-2.7,0.21-3.952,0.596c19.478,21.889,42.819,40.257,68.957,54.042
		h228.234c26.139-13.785,49.479-32.153,68.957-54.042C437.823,429.408,436.496,429.198,435.123,429.198z"/>
	<path style="fill:#0CB0EA;" d="M429.961,32.67c0.054-0.745,0.092-1.494,0.092-2.253C430.053,13.618,416.435,0,399.636,0H112.364
		C95.565,0,81.947,13.618,81.947,30.417c0,0.759,0.037,1.508,0.092,2.253H429.961z"/>
	<g>
		<path style="fill:#0D9CDA;" d="M220.246,16.335c0-7.564,4.858-13.978,11.618-16.335h-119.5C95.565,0,81.947,13.618,81.947,30.417
			c0,0.759,0.038,1.508,0.092,2.253h149.825C225.104,30.313,220.246,23.899,220.246,16.335z"/>
	</g>
	<path style="fill:#DEEEFA;" d="M435.123,30.417H76.877c-7.435,0-13.519,6.084-13.519,13.519v143.073
		c0,7.435,6.083,13.519,13.519,13.519h358.245c7.435,0,13.519-6.084,13.519-13.519V43.936
		C448.641,36.501,442.558,30.417,435.123,30.417z"/>
	<circle style="fill:#30AEE5;" cx="404.423" cy="86.3" r="16.335"/>
	<circle style="fill:#F94862;" cx="404.423" cy="139.52" r="16.335"/>
	<path style="fill:#B8DCF2;" d="M123.066,199.776v-67.969c0-9.021-7.313-16.335-16.335-16.335l0,0
		c-9.022,0-16.335,7.314-16.335,16.335v67.969c0,9.022,7.313,16.335,16.335,16.335l0,0
		C115.753,216.111,123.066,208.798,123.066,199.776z"/>
	<path style="fill:#89C2E5;" d="M106.731,168.045c-9.021,0-16.335-7.313-16.335-16.335v48.066c0,9.022,7.313,16.335,16.335,16.335
		c9.022,0,16.335-7.314,16.335-16.335V151.71C123.066,160.732,115.753,168.045,106.731,168.045z"/>
	<rect x="151.749" y="30.417" style="fill:#B8DCF2;" width="208.501" height="170.11"/>
	<path style="fill:#89C2E5;" d="M197.771,168.178V62.767c0-17.866,14.484-32.35,32.35-32.35h-78.371v170.11h78.371
		C212.255,200.527,197.771,186.044,197.771,168.178z"/>
	<path style="fill:#0F89CB;" d="M271.207,115.472c0,0.768-0.075,1.516-0.185,2.253h43.15c0.029-0.748,0.057-1.497,0.057-2.253
		c0-32.159-26.07-58.229-58.229-58.229c-0.378,0-0.75,0.021-1.126,0.029v43.05c0.374-0.028,0.746-0.057,1.126-0.057
		C264.398,100.265,271.207,107.074,271.207,115.472z"/>
	<path style="fill:#0D9CDA;" d="M240.978,117.725c-0.11-0.737-0.185-1.485-0.185-2.253c0-8.399,6.809-15.207,15.207-15.207V57.243
		c-32.159,0-58.229,26.07-58.229,58.229c0,0.756,0.029,1.505,0.057,2.253H240.978z"/>
	<path style="fill:#0D9CDA;" d="M256,130.68c-0.38,0-0.753-0.03-1.126-0.057v43.05c0.376,0.008,0.749,0.029,1.126,0.029
		c32.159,0,58.229-26.07,58.229-58.229h-43.022C271.207,123.871,264.398,130.68,256,130.68z"/>
	<path style="fill:#0F89CB;" d="M256,173.701V130.68c-8.399,0-15.207-6.809-15.207-15.208h-43.021
		C197.771,147.631,223.841,173.701,256,173.701z"/>
	<circle style="fill:#1075BB;" cx="256" cy="115.472" r="21.063"/>
	<path style="fill:#AA6355;" d="M335.916,297.067H176.084c-3.843,0-6.958,3.115-6.958,6.958v39.944
		c0,31.538,16.399,51.208,28.328,61.345c6.436,5.47,14.599,8.474,23.045,8.474h71.001c8.446,0,16.609-3.004,23.045-8.474
		c11.929-10.137,28.328-29.807,28.328-61.345v-39.944C342.874,300.182,339.759,297.067,335.916,297.067z"/>
	<path style="fill:#975242;" d="M222.203,343.968v-39.944c0-3.843,3.115-6.958,6.958-6.958h-53.077
		c-3.843,0-6.958,3.115-6.958,6.958v39.944c0,31.538,16.399,51.208,28.328,61.345c6.436,5.47,14.599,8.474,23.045,8.474h53.077
		c-8.446,0-16.609-3.004-23.045-8.474C238.602,395.176,222.203,375.506,222.203,343.968z"/>
	<path style="fill:#B8DCF2;" d="M207.869,456.517c0-15.088,12.231-27.319,27.319-27.319H76.877c-1.374,0-2.7,0.21-3.952,0.596
		c19.478,21.889,42.819,40.257,68.957,54.042h93.305C220.1,483.836,207.869,471.605,207.869,456.517z"/>
</g>
<g>
</g>
<g>
</g>
<g>
</g>
<g>
</g>
<g>
</g>
<g>
</g>
<g>
</g>
<g>
</g>
<g>
</g>
<g>
</g>
<g>
</g>
<g>
</g>
<g>
</g>
<g>
</g>
<g>
</g>
</svg>
