<?xml version="1.0" encoding="iso-8859-1"?>
<!-- Generator: Adobe Illustrator 21.0.0, SVG Export Plug-In . SVG Version: 6.00 Build 0)  -->
<svg version="1.1" id="Capa_1" xmlns="http://www.w3.org/2000/svg" xmlns:xlink="http://www.w3.org/1999/xlink" x="0px" y="0px"
	 viewBox="0 0 512 512" style="enable-background:new 0 0 512 512;" xml:space="preserve">
<g>
	<path style="fill:#FECF2B;" d="M245.002,21.996c-112.913,0-207.968,76.389-236.349,180.301l301.052,301.05
		c103.911-28.382,180.299-123.437,180.299-236.349C490.004,131.688,380.313,21.996,245.002,21.996z"/>
	<path style="fill:#36527A;" d="M152.059,145.838c-54.906,0-105.043,20.783-142.98,54.885c-5.308,18.932-8.396,38.791-8.972,59.279
		L252,511.893c20.488-0.576,40.347-3.665,59.279-8.972c34.101-37.936,54.883-88.073,54.883-142.978
		C366.162,241.885,270.116,145.838,152.059,145.838z"/>
	<path style="fill:#1D3260;" d="M302.488,473.112c-1.767-3.377-5.102-5.685-8.909-5.858c-10.332-0.47-14.931-6.815-16.928-11.507
		c-1.379-3.24-4.378-5.507-7.844-6.125C66.464,413.566,70.909,274.295,74.615,242.701c0.438-3.729-1.137-7.378-4.095-9.69
		c-11.32-8.846-10-20.184-7.383-27.493c1.501-4.192,0.25-8.826-3.157-11.692c-12.995-10.931-3.203-25.533-3.153-25.608
		c-17.386,8.673-33.437,19.64-47.749,32.505c-5.307,18.932-8.396,38.791-8.972,59.279L252,511.893
		c20.488-0.576,40.347-3.665,59.279-8.972c5.803-6.455,11.209-13.271,16.203-20.396
		C311.922,484.915,305.291,478.468,302.488,473.112z"/>
	<path style="fill:#FCEBBB;" d="M152.059,177.003c-63.193,0-119.001,32.209-151.88,81.071C0.073,261.037,0,264.009,0,266.998
		C0,402.309,109.691,512,245.002,512c2.99,0,5.962-0.073,8.926-0.179c48.861-32.879,81.069-88.686,81.069-151.879
		C334.998,259.069,252.932,177.003,152.059,177.003z"/>
	<path style="fill:#FFDD71;" d="M293.579,467.254c-10.332-0.47-14.931-6.815-16.928-11.507c-1.379-3.24-4.378-5.507-7.844-6.125
		C66.464,413.566,70.909,274.295,74.615,242.701c0.438-3.729-1.137-7.378-4.095-9.69c-11.32-8.846-10-20.184-7.383-27.493
		c0.664-1.854,0.788-3.795,0.426-5.631c-25.446,14.127-47.198,34.133-63.385,58.187C0.073,261.037,0,264.009,0,266.998
		C0,402.309,109.691,512,245.002,512c2.99,0,5.962-0.073,8.926-0.179c17.283-11.63,32.469-26.14,44.896-42.82
		C297.288,467.97,295.494,467.341,293.579,467.254z"/>
	<path style="fill:#FFDD71;" d="M152.059,214.164c-71.013,0-130.319,51.043-143.181,118.364
		c22.883,82.63,87.965,147.713,170.596,170.595c67.321-12.863,118.363-72.169,118.363-143.181
		C297.837,279.56,232.441,214.164,152.059,214.164z"/>
	<path style="fill:#FABD2B;" d="M267.138,449.316C66.497,412.79,70.919,274.208,74.615,242.701c0.231-1.966-0.111-3.903-0.907-5.64
		C40.56,258.275,16.52,292.528,8.877,332.529c22.883,82.63,87.966,147.712,170.596,170.595
		C214.889,496.357,245.794,476.732,267.138,449.316z"/>
	<path style="fill:#B8DCF2;" d="M351.313,160.688c-4.123-4.123-6.882-9.091-8.294-14.345c-0.653,0.481-1.288,0.998-1.879,1.589
		l-43.075,43.076c6.012-0.506,12.197,1.531,16.797,6.131c4.6,4.6,6.637,10.784,6.132,16.796l43.074-43.075
		c0.59-0.59,1.108-1.225,1.588-1.878C360.402,167.57,355.435,164.811,351.313,160.688z"/>
	<path style="fill:#B8DCF2;" d="M351.313,160.688c-4.123-4.123-6.882-9.091-8.294-14.345c-0.653,0.481-1.288,0.998-1.879,1.589
		l-43.075,43.076c6.012-0.506,12.197,1.531,16.797,6.131c4.6,4.6,6.637,10.784,6.132,16.796l43.074-43.075
		c0.59-0.59,1.108-1.225,1.588-1.878C360.402,167.57,355.435,164.811,351.313,160.688z"/>
	<g>
		<path style="fill:#89C2E5;" d="M351.313,160.688c-4.123-4.123-6.882-9.091-8.294-14.345c-0.653,0.481-1.288,0.998-1.879,1.589
			l-20.796,20.796c13.701-2.928,25.858,9.214,22.93,22.925l20.793-20.794c0.59-0.59,1.107-1.225,1.588-1.878
			C360.402,167.57,355.436,164.811,351.313,160.688z"/>
	</g>
	<g>
		<path style="fill:#DEEEFA;" d="M266.495,245.506c-8.208-8.207-8.208-21.513,0-29.72l22.027-22.027
			c8.207-8.207,21.513-8.207,29.72,0c8.208,8.207,8.208,21.513,0,29.72l-22.027,22.027
			C288.007,253.714,274.702,253.713,266.495,245.506z"/>
	</g>
	<g>
		<path style="fill:#F94862;" d="M349.692,162.309c-12.662-12.662-12.662-33.193,0-45.855L456.648,9.498
			c12.661-12.663,33.191-12.663,45.855,0c12.662,12.662,12.662,33.193,0,45.855L395.547,162.309
			C382.886,174.97,362.354,174.974,349.692,162.309z"/>
	</g>
	<path style="fill:#ED3346;" d="M409.332,102.668c-10.806-10.806-12.784-27.093-5.943-39.911l-53.697,53.697
		c-12.662,12.662-12.662,33.193,0,45.855c12.662,12.665,33.194,12.661,45.855,0l53.699-53.699
		C436.428,115.452,420.139,113.477,409.332,102.668z"/>
	<g>
		<path style="fill:#DB2640;" d="M481.053,47.974c-9.583,0-17.353-7.791-17.353-17.371c0-11.048,10.142-19.163,20.758-17.025
			c8.207,1.665,13.966,8.783,13.966,17.025C498.424,40.18,490.665,47.974,481.053,47.974z"/>
	</g>
	<path style="fill:#FF6683;" d="M168.143,300.169c-11.855,2.253-23.753-3.738-29.244-14.484l-9.881-19.333
		c-13.925-27.247-47.302-38.046-74.549-24.121l0,0c-27.247,13.925-38.046,47.302-24.121,74.549l65.509,128.179
		c25.424,49.747,86.188,70.987,136.26,46.211c50.876-25.175,71.214-86.992,45.46-137.382
		C256.55,312.643,211.353,291.959,168.143,300.169z"/>
	<path style="fill:#F94862;" d="M160.493,408.801L80.35,289.225c-10.9-16.263-12.029-36.203-4.782-52.923
		c-7.149,0.529-14.314,2.462-21.098,5.929c-27.247,13.925-38.046,47.302-24.121,74.549l65.509,128.179
		c25.424,49.746,86.188,70.987,136.26,46.21c18.785-9.295,33.4-23.588,43.075-40.454C233.219,463.202,186.1,447.009,160.493,408.801
		z"/>
	<circle style="fill:#F94862;" cx="189.031" cy="401.289" r="54.778"/>
	<g>
		<path style="fill:#FABD2B;" d="M231.454,292.311c-6.638,0-12.354-5.358-12.354-12.354c0-7.933,7.311-13.598,14.764-12.107
			c6.065,1.23,9.945,6.5,9.945,12.107C243.808,286.643,238.385,292.311,231.454,292.311z"/>
	</g>
	<g>
		<path style="fill:#F29A2B;" d="M36.621,383.874c-6.637,0-12.354-5.358-12.354-12.354c0-7.933,7.311-13.599,14.764-12.107
			c6.065,1.231,9.945,6.5,9.945,12.107C48.976,378.207,43.552,383.874,36.621,383.874z"/>
	</g>
	<g>
		<path style="fill:#7FBC0A;" d="M160.707,267.455c-4.902,0-8.648-4.026-8.648-8.66c0-11.144,17.296-11.741,17.296,0
			C169.355,263.576,165.453,267.455,160.707,267.455z"/>
	</g>
	<g>
		<path style="fill:#7FBC0A;" d="M57.624,409.911c-4.902,0-8.648-4.026-8.648-8.66c0-11.144,17.296-11.741,17.296,0
			C66.272,406.031,62.37,409.911,57.624,409.911z"/>
	</g>
	<g>
		<path style="fill:#7FBC0A;" d="M85.821,307.119c-4.902,0-8.648-4.026-8.648-8.66c0-11.144,17.296-11.741,17.296,0
			C94.469,303.24,90.567,307.119,85.821,307.119z"/>
	</g>
	<g>
		<path style="fill:#7FBC0A;" d="M78.912,338.336c-2.984-4.158-2.032-9.946,2.125-12.93l12.941-9.288
			c4.158-2.984,9.947-2.032,12.93,2.125c2.984,4.158,2.032,9.946-2.125,12.93l-12.941,9.288
			C87.675,343.451,81.891,342.487,78.912,338.336z"/>
	</g>
	<g>
		<path style="fill:#7FBC0A;" d="M203.11,269.085c-4.807,1.755-10.126-0.719-11.881-5.526l-5.463-14.963
			c-1.755-4.808,0.72-10.127,5.525-11.882c4.807-1.755,10.126,0.719,11.881,5.526l5.463,14.963
			C210.394,262.02,207.91,267.332,203.11,269.085z"/>
	</g>
	<path style="fill:#ED3346;" d="M199.208,418.701l-29.067-24.49c-22.247,6.344-30.517-16.529-30.532-16.569
		c-3.431,7.159-5.356,15.178-5.356,23.647c0,30.253,24.525,54.778,54.778,54.778c9.228,0,17.917-2.292,25.545-6.322
		C195.595,438.464,199.208,418.701,199.208,418.701z"/>
	<circle style="fill:#DB2640;" cx="189.031" cy="401.289" r="20.17"/>
</g>
<g>
</g>
<g>
</g>
<g>
</g>
<g>
</g>
<g>
</g>
<g>
</g>
<g>
</g>
<g>
</g>
<g>
</g>
<g>
</g>
<g>
</g>
<g>
</g>
<g>
</g>
<g>
</g>
<g>
</g>
</svg>
