<?xml version="1.0" encoding="iso-8859-1"?>
<!-- Generator: Adobe Illustrator 21.0.0, SVG Export Plug-In . SVG Version: 6.00 Build 0)  -->
<svg version="1.1" id="Capa_1" xmlns="http://www.w3.org/2000/svg" xmlns:xlink="http://www.w3.org/1999/xlink" x="0px" y="0px"
	 viewBox="0 0 512 512" style="enable-background:new 0 0 512 512;" xml:space="preserve">
<g>
	<path style="fill:#7FBC0A;" d="M245.002,21.996c-112.913,0-207.968,76.389-236.349,180.301l301.052,301.05
		c103.911-28.382,180.298-123.437,180.298-236.349C490.004,131.688,380.313,21.996,245.002,21.996z"/>
	<path style="fill:#36527A;" d="M152.059,145.838c-54.906,0-105.044,20.783-142.98,54.885c-5.308,18.932-8.396,38.791-8.972,59.279
		L252,511.893c20.488-0.576,40.347-3.665,59.279-8.972c34.101-37.936,54.883-88.073,54.883-142.978
		C366.162,241.885,270.116,145.838,152.059,145.838z"/>
	<path style="fill:#1D3260;" d="M302.488,473.112c-1.767-3.377-5.102-5.685-8.909-5.858c-10.332-0.47-14.931-6.815-16.928-11.507
		c-1.379-3.24-4.378-5.507-7.844-6.125C66.464,413.566,70.909,274.295,74.615,242.701c0.438-3.729-1.137-7.378-4.095-9.69
		c-11.32-8.846-10-20.184-7.383-27.493c1.501-4.192,0.25-8.826-3.157-11.692c-12.995-10.931-3.203-25.533-3.153-25.608
		c-17.386,8.673-33.437,19.64-47.749,32.505c-5.307,18.932-8.396,38.791-8.972,59.279L252,511.893
		c20.488-0.576,40.347-3.665,59.279-8.972c5.802-6.455,11.209-13.271,16.203-20.396
		C311.922,484.915,305.291,478.468,302.488,473.112z"/>
	<path style="fill:#FCEBBB;" d="M152.059,177.003c-63.193,0-119.001,32.209-151.88,81.071C0.073,261.037,0,264.009,0,266.998
		C0,402.309,109.691,512,245.002,512c2.99,0,5.962-0.073,8.926-0.179c48.861-32.879,81.069-88.686,81.069-151.879
		C334.998,259.069,252.932,177.003,152.059,177.003z"/>
	<path style="fill:#FFDD71;" d="M293.579,467.254c-10.332-0.47-14.931-6.815-16.928-11.507c-1.379-3.24-4.378-5.507-7.844-6.125
		C66.464,413.566,70.909,274.295,74.615,242.701c0.438-3.729-1.137-7.378-4.095-9.69c-11.32-8.846-10-20.184-7.383-27.493
		c0.664-1.854,0.788-3.795,0.426-5.631c-25.446,14.127-47.198,34.133-63.385,58.187C0.073,261.037,0,264.009,0,266.998
		C0,402.309,109.691,512,245.002,512c2.99,0,5.962-0.073,8.926-0.179c17.283-11.63,32.469-26.14,44.896-42.82
		C297.288,467.97,295.494,467.341,293.579,467.254z"/>
	<path style="fill:#FFDD71;" d="M152.059,214.164c-71.013,0-130.319,51.043-143.182,118.364
		c22.883,82.63,87.965,147.713,170.596,170.595c67.321-12.863,118.363-72.169,118.363-143.181
		C297.837,279.56,232.441,214.164,152.059,214.164z"/>
	<path style="fill:#FABD2B;" d="M267.138,449.316C66.497,412.79,70.919,274.208,74.615,242.701c0.231-1.966-0.111-3.903-0.907-5.64
		C40.56,258.275,16.52,292.528,8.877,332.529c22.883,82.63,87.966,147.712,170.596,170.595
		C214.889,496.357,245.794,476.732,267.138,449.316z"/>
	<path style="fill:#B8DCF2;" d="M351.313,160.688c-4.123-4.123-6.882-9.091-8.294-14.345c-0.653,0.481-1.288,0.998-1.879,1.589
		l-43.075,43.076c6.012-0.506,12.197,1.531,16.797,6.131c4.6,4.6,6.637,10.784,6.132,16.796l43.074-43.075
		c0.59-0.59,1.108-1.225,1.588-1.878C360.402,167.57,355.435,164.811,351.313,160.688z"/>
	<path style="fill:#B8DCF2;" d="M351.313,160.688c-4.123-4.123-6.882-9.091-8.294-14.345c-0.653,0.481-1.288,0.998-1.879,1.589
		l-43.075,43.076c6.012-0.506,12.197,1.531,16.797,6.131c4.6,4.6,6.637,10.784,6.132,16.796l43.074-43.075
		c0.59-0.59,1.108-1.225,1.588-1.878C360.402,167.57,355.435,164.811,351.313,160.688z"/>
	<g>
		<path style="fill:#89C2E5;" d="M351.313,160.688c-4.123-4.123-6.882-9.091-8.294-14.345c-0.653,0.481-1.288,0.998-1.879,1.589
			l-20.796,20.796c13.701-2.928,25.858,9.214,22.93,22.925l20.793-20.794c0.59-0.59,1.107-1.225,1.588-1.878
			C360.402,167.57,355.436,164.811,351.313,160.688z"/>
	</g>
	<g>
		<path style="fill:#DEEEFA;" d="M266.495,245.506c-8.208-8.207-8.208-21.513,0-29.72l22.027-22.027
			c8.207-8.207,21.513-8.207,29.72,0c8.208,8.207,8.208,21.513,0,29.72l-22.027,22.027
			C288.007,253.714,274.702,253.713,266.495,245.506z"/>
	</g>
	<g>
		<path style="fill:#F94862;" d="M349.692,162.309c-12.662-12.662-12.662-33.193,0-45.855L456.648,9.498
			c12.661-12.663,33.191-12.663,45.855,0c12.662,12.662,12.662,33.193,0,45.855L395.547,162.309
			C382.886,174.97,362.354,174.974,349.692,162.309z"/>
	</g>
	<path style="fill:#ED3346;" d="M409.332,102.668c-10.806-10.806-12.784-27.093-5.943-39.911l-53.697,53.697
		c-12.662,12.662-12.662,33.193,0,45.855c12.662,12.665,33.194,12.661,45.855,0l53.699-53.699
		C436.428,115.452,420.139,113.477,409.332,102.668z"/>
	<g>
		<path style="fill:#DB2640;" d="M481.053,47.974c-9.583,0-17.353-7.791-17.353-17.371c0-11.048,10.142-19.163,20.758-17.025
			c8.207,1.665,13.966,8.783,13.966,17.025C498.424,40.18,490.665,47.974,481.053,47.974z"/>
	</g>
	
		<ellipse transform="matrix(0.1181 -0.993 0.993 0.1181 -143.3644 606.4269)" style="fill:#FCEBBB;" cx="269.73" cy="383.926" rx="24.891" ry="20.641"/>
	<path style="fill:#FCEBBB;" d="M129.215,277.382c-51.487-16.894-77.763,16.09-77.763,16.09
		c-8.445,8.445-26.227,33.232-32.518,68.111c23.419,55.908,66.973,101.282,121.593,127.072c4.06-1.802,7.588-4.113,10.41-6.934
		c37.361-37.361,99.534-0.37,99.534-68.159c0-72.697,42.211-92.574,4.244-130.541C211.139,239.445,180.702,294.277,129.215,277.382z
		"/>
	<path style="fill:#FFDD71;" d="M242.947,444.188c-134.904-32.83-163.982-115.91-168.61-166.545
		c-15.197,6.188-22.885,15.829-22.885,15.829c-8.443,8.443-26.219,33.221-32.514,68.088
		c23.846,56.782,67.631,101.653,121.596,127.09c4.056-1.801,7.582-4.111,10.402-6.93
		C180.398,452.258,225.281,469.019,242.947,444.188z"/>
	<circle style="fill:#FABD2B;" cx="126.019" cy="386.784" r="54.347"/>
	<g>
		<path style="fill:#7FBC0A;" d="M196.48,489.424c-6.797,0-12.651-5.486-12.651-12.651c0-8.123,7.486-13.925,15.118-12.398
			c6.211,1.26,10.184,6.656,10.184,12.398C209.131,483.62,203.578,489.424,196.48,489.424z"/>
	</g>
	<g>
		<path style="fill:#F94862;" d="M196.48,302.51c-6.797,0-12.651-5.486-12.651-12.651c0-8.123,7.486-13.925,15.118-12.398
			c6.211,1.26,10.184,6.656,10.184,12.398C209.131,296.707,203.578,302.51,196.48,302.51z"/>
	</g>
	<g>
		<path style="fill:#F94862;" d="M100.526,259.67c-5.02,0-8.856-4.123-8.856-8.868c0-11.411,17.711-12.023,17.711,0
			C109.382,255.697,105.386,259.67,100.526,259.67z"/>
	</g>
	<g>
		<path style="fill:#7FBC0A;" d="M227.284,443.767c-5.02,0-8.856-4.123-8.856-8.868c0-11.411,17.712-12.023,17.712,0
			C236.14,439.794,232.144,443.767,227.284,443.767z"/>
	</g>
	<g>
		<path style="fill:#7FBC0A;" d="M171.968,258.664c-3.055-4.257-2.081-10.185,2.176-13.24l13.252-9.511
			c4.258-3.055,10.186-2.08,13.241,2.176c3.055,4.257,2.081,10.185-2.176,13.24l-13.252,9.511
			C180.942,263.902,175.019,262.915,171.968,258.664z"/>
	</g>
	<g>
		<path style="fill:#7FBC0A;" d="M133.087,239.636c4.638-2.439,10.375-0.658,12.814,3.98l7.594,14.436
			c2.439,4.638,0.657,10.376-3.979,12.815c-4.638,2.439-10.375,0.658-12.814-3.98l-7.594-14.436
			C126.663,247.802,128.456,242.071,133.087,239.636z"/>
	</g>
	<path style="fill:#F29A2B;" d="M170.879,417.459c-38.687-6.277-69.433-35.875-77.175-74.296l-0.013-0.062
		c-13.358,9.902-22.019,25.78-22.019,43.684c0,30.015,24.332,54.347,54.347,54.347C144.651,441.131,161.088,431.75,170.879,417.459z
		"/>
</g>
<g>
</g>
<g>
</g>
<g>
</g>
<g>
</g>
<g>
</g>
<g>
</g>
<g>
</g>
<g>
</g>
<g>
</g>
<g>
</g>
<g>
</g>
<g>
</g>
<g>
</g>
<g>
</g>
<g>
</g>
</svg>
