<?xml version="1.0" encoding="iso-8859-1"?>
<!-- Generator: Adobe Illustrator 21.0.0, SVG Export Plug-In . SVG Version: 6.00 Build 0)  -->
<svg version="1.1" id="Capa_1" xmlns="http://www.w3.org/2000/svg" xmlns:xlink="http://www.w3.org/1999/xlink" x="0px" y="0px"
	 viewBox="0 0 512 512" style="enable-background:new 0 0 512 512;" xml:space="preserve">
<g>
	<path style="fill:#7FBC0A;" d="M456.449,406.006c0.353,0.123,0.698,0.248,1.049,0.372c27.422-39.569,43.504-87.592,43.504-139.38
		C501.002,131.687,391.31,21.996,256,21.996c-49.633,0-95.81,14.773-134.399,40.142C123.197,70.966,168.121,305.204,456.449,406.006
		z"/>
	<path style="fill:#FECF2B;" d="M254.076,47.536c-11.062-3.322-19.947-11.538-24.715-22.058C221.951,9.128,213.695,0,204.989,0
		c-8.705,0-16.963,9.128-24.372,25.478c-4.767,10.52-13.652,18.736-24.714,22.058c-11.18,3.358-21.991,7.84-32.35,13.335
		C55.847,104.464,10.998,180.487,10.998,266.998C10.998,402.309,120.689,512,256,512c8.956,0,17.796-0.494,26.503-1.431
		c73.411-36.714,125.05-124.001,125.05-225.854C407.553,170.157,342.23,74.01,254.076,47.536z"/>
	<path style="fill:#F6AC2B;" d="M458.448,405.006L277.974,92.416c-2.049-3.549-6.593-4.816-10.143-2.768
		c-0.022,0.012-0.044,0.025-0.065,0.038c-116.734,67.396-156.73,216.664-89.334,333.397c21.987,38.083,52.692,67.992,88.134,88.676
		C346.314,508.373,416.189,466.878,458.448,405.006z"/>
	<path style="fill:#FABD2B;" d="M458.448,405.006L277.974,92.416c-1.983-3.435-6.296-4.703-9.79-2.927
		c-95.695,57.181-119.279,196.2-52.404,312.031c26.004,45.04,61.884,79.982,101.751,102.685
		C375.699,489.159,425.477,453.28,458.448,405.006z"/>
	<path style="fill:#FABD2B;" d="M304.759,138.808L304.759,138.808l-26.785-46.392c-1.983-3.435-6.296-4.703-9.79-2.927
		c-95.695,57.181-119.279,196.2-52.404,312.031c26.004,45.04,61.885,79.982,101.751,102.685v0
		c-4.272-16.455,11.949-19.433,11.949-19.433c-6.761-23.361,15.378-27.427,15.378-27.427
		c-42.787-27.008-63.423-82.532-63.423-82.532c-14.201-5.68-7.056-18.326-7.056-18.326c-20.423-45.839-9.636-85.515-9.636-85.515
		c-8.976-12.063,1.579-19.994,1.579-19.994c-9.146-55.681,24.418-93.927,24.418-93.927
		C286.68,138.109,304.759,138.808,304.759,138.808z"/>
	<path style="fill:#FCE197;" d="M458.448,405.006l-172.94-299.541c-1.59-0.447-3.337-0.328-4.907,0.47
		c-87.675,52.389-105.051,177.313-43.78,283.437c27.959,48.427,67.5,84.62,110.705,104.944
		C392.761,476.085,431.302,444.751,458.448,405.006z"/>
	<path style="fill:#FFDD71;" d="M304.759,138.808L304.759,138.808l-19.25-33.343c-1.59-0.447-3.337-0.328-4.906,0.47
		c-87.675,52.389-105.051,177.313-43.781,283.437c24.013,41.592,56.573,74.149,92.656,95.389
		c-6.751-23.352,15.381-27.416,15.381-27.416c-42.787-27.008-63.423-82.532-63.423-82.532c-14.201-5.68-7.056-18.326-7.056-18.326
		c-20.423-45.839-9.636-85.515-9.636-85.515c-8.976-12.063,1.579-19.994,1.579-19.994c-9.146-55.681,24.418-93.927,24.418-93.927
		C286.68,138.109,304.759,138.808,304.759,138.808z"/>
	<path style="fill:#FECF2B;" d="M370.532,333.869c0.88-4.623-4.076-8.142-8.151-5.79l-93.305,53.87
		c-2.759,1.593-3.592,5.192-1.82,7.838c19.4,28.972,44.454,52.259,72.553,67.502c3.255,1.766,7.29-0.195,7.981-3.833
		L370.532,333.869z"/>
	<path style="fill:#FABD2B;" d="M267.256,389.787c19.4,28.972,44.455,52.259,72.553,67.502c0.931,0.505,1.925,0.696,2.887,0.64
		c1.31-0.424,2.162-0.583,2.162-0.583c-42.787-27.008-63.423-82.532-63.423-82.532l-12.36,7.136
		C266.317,383.542,265.483,387.141,267.256,389.787z"/>
	<path style="fill:#FECF2B;" d="M351.744,301.325l-114.936-40.099c-3.496-1.22-7.212,1.293-7.31,4.995
		c-0.853,31.958,6.789,65.296,22.181,96.585c1.406,2.858,4.939,3.936,7.698,2.343l93.306-53.87
		C356.758,308.926,356.187,302.875,351.744,301.325z"/>
	<path style="fill:#FABD2B;" d="M264.743,270.973l-27.936-9.746c-3.496-1.22-7.211,1.293-7.31,4.995
		c-0.852,31.958,6.789,65.296,22.181,96.585c1.406,2.858,4.939,3.936,7.698,2.343l15.003-8.662v0
		C253.956,310.648,264.743,270.973,264.743,270.973z"/>
	<path style="fill:#FECF2B;" d="M357.407,272.521l-66.666-115.469c-1.631-2.824-5.37-3.646-7.992-1.707
		c-24.988,18.487-42.139,45.901-49.408,78.98c-0.598,2.724,0.931,5.473,3.565,6.391l113.928,39.746
		C355.646,282.142,359.956,276.936,357.407,272.521z"/>
	<path style="fill:#FABD2B;" d="M290.741,157.052L290.741,157.052c-1.631-2.824-5.37-3.646-7.992-1.707
		c-24.988,18.487-42.139,45.901-49.408,78.98c-0.599,2.724,0.931,5.473,3.565,6.391l29.417,10.263
		C257.177,195.299,290.74,157.053,290.741,157.052z"/>
	<path style="fill:#FECF2B;" d="M444.544,423.446l-46.234-80.08c-2.549-4.415-9.212-3.285-10.165,1.722l-22.541,118.538
		c-0.521,2.74,1.095,5.439,3.753,6.283c5.759,1.828,11.52,3.286,17.259,4.39C408.51,460.475,428.064,443.286,444.544,423.446z"/>
	<path style="fill:#FFDD71;" d="M324.961,251.663c1.495-0.666,2.452-2.217,2.377-3.853c-0.294-6.389-3.624-12.526-9.478-16.138
		c-5.854-3.612-12.833-3.835-18.675-1.232c-1.495,0.666-2.452,2.217-2.377,3.852c0.294,6.39,3.624,12.526,9.478,16.138
		C312.141,254.043,319.119,254.267,324.961,251.663z"/>
	<path style="fill:#FFDD71;" d="M321.453,309.122c0.734-1.463,0.49-3.27-0.605-4.486c-4.279-4.754-10.744-7.388-17.562-6.469
		c-6.817,0.919-12.355,5.171-15.222,10.889c-0.734,1.464-0.49,3.27,0.605,4.486c4.279,4.754,10.745,7.388,17.562,6.469
		C313.049,319.092,318.586,314.839,321.453,309.122z"/>
	<path style="fill:#FFDD71;" d="M351.353,359.208c-0.534-1.548-1.995-2.636-3.631-2.704c-6.391-0.264-12.794,2.518-16.902,8.036
		c-4.108,5.517-4.939,12.45-2.854,18.497c0.534,1.548,1.995,2.636,3.631,2.704c6.391,0.264,12.794-2.519,16.902-8.036
		C352.608,372.187,353.438,365.255,351.353,359.208z"/>
	<path style="fill:#FFDD71;" d="M402.719,379.962c-1.496-0.665-3.288-0.339-4.453,0.811c-4.552,4.493-6.885,11.074-5.652,17.842
		c1.233,6.768,5.736,12.103,11.579,14.703c1.496,0.665,3.289,0.339,4.454-0.811c4.552-4.494,6.885-11.074,5.652-17.842
		C413.066,387.897,408.563,382.562,402.719,379.962z"/>
	<path style="fill:#FABD2B;" d="M180.618,25.478c-4.768,10.52-13.652,18.736-24.714,22.058c-11.18,3.358-21.991,7.84-32.35,13.335
		C55.847,104.464,10.998,180.487,10.998,266.998c0,89.113,47.582,167.107,118.72,209.982
		C40.125,233.687,168.417,78.712,187.803,59.327C209.636,37.494,204.989,0,204.989,0C196.284,0,188.027,9.128,180.618,25.478z"/>
	<circle style="fill:#FABD2B;" cx="107.378" cy="183.333" r="25.908"/>
	<circle style="fill:#FABD2B;" cx="96.506" cy="300.765" r="39.849"/>
	<circle style="fill:#FABD2B;" cx="103.506" cy="247.657" r="18.963"/>
	<circle style="fill:#FABD2B;" cx="122.469" cy="363.475" r="11.338"/>
	<circle style="fill:#FABD2B;" cx="166.379" cy="85.232" r="11.338"/>
</g>
<g>
</g>
<g>
</g>
<g>
</g>
<g>
</g>
<g>
</g>
<g>
</g>
<g>
</g>
<g>
</g>
<g>
</g>
<g>
</g>
<g>
</g>
<g>
</g>
<g>
</g>
<g>
</g>
<g>
</g>
</svg>
