<?xml version="1.0" encoding="iso-8859-1"?>
<!-- Generator: Adobe Illustrator 21.0.0, SVG Export Plug-In . SVG Version: 6.00 Build 0)  -->
<svg version="1.1" id="Capa_1" xmlns="http://www.w3.org/2000/svg" xmlns:xlink="http://www.w3.org/1999/xlink" x="0px" y="0px"
	 viewBox="0 0 512 512" style="enable-background:new 0 0 512 512;" xml:space="preserve">
<g>
	<path style="fill:#FF7133;" d="M466.477,392.442c21.918-36.695,34.525-79.594,34.525-125.444
		c0-135.311-109.691-245.002-245.002-245.002S10.998,131.688,10.998,266.998c0,45.849,12.607,88.749,34.525,125.444H466.477z"/>
	<path style="fill:#975242;" d="M330.804,0H128.425c-8.962,0-16.227,7.265-16.227,16.227v22.405h234.833V16.227
		C347.031,7.265,339.766,0,330.804,0z"/>
	<path style="fill:#8E4739;" d="M182.713,0h-54.288c-8.962,0-16.227,7.265-16.227,16.227v22.405h54.288V16.227
		C166.486,7.265,173.751,0,182.713,0z"/>
	<path style="fill:#DEEEFA;" d="M283.902,112.704H44.341v277.738C86.836,463.148,165.708,512,256,512
		c9.437,0,18.743-0.552,27.902-1.591V112.704z"/>
	<path style="fill:#B8DCF2;" d="M88.982,445.071c-2.841-4.498-4.388-9.692-4.388-15.012V140.556
		c0-15.382,12.47-27.852,27.852-27.852H44.341v277.738c12.538,21.45,28.243,40.822,46.472,57.478
		C90.197,446.974,89.585,446.026,88.982,445.071z"/>
	<rect x="279.173" y="112.704" style="fill:#B8DCF2;" width="135.715" height="102.851"/>
	<path style="fill:#89C2E5;" d="M279.173,409.149v101.753c51.549-4.837,98.451-25.641,135.715-57.422v-44.331H279.173z"/>
	
		<rect x="279.173" y="212.528" transform="matrix(-1 -1.224647e-16 1.224647e-16 -1 694.0618 624.7039)" style="fill:#B8DCF2;" width="135.715" height="199.648"/>
	<path style="fill:#89C2E5;" d="M379.789,376.079h-65.517c-19.385,0-35.099-15.714-35.099-35.099v71.196h135.715V340.98
		C414.888,360.365,399.174,376.079,379.789,376.079z"/>
	<path style="fill:#AA6355;" d="M112.198,37.616l-67.857,75.088c6.82,0,234.105,0,240.933,0l61.758-75.088H112.198z"/>
	<path style="fill:#975242;" d="M104.506,96.753l45.245-50.067c5.219-5.775,12.639-9.07,20.422-9.07h-57.975l-67.858,75.088
		c2.344,0,30.726,0,67.25,0C103.314,112.704,98.957,102.893,104.506,96.753z"/>
	<path style="fill:#89C2E5;" d="M205.144,36.357L189.292,22.16l-0.049,0.055c11.45,11.662,12.022,30.368,0.964,42.715
		c-11.058,12.346-29.714,13.832-42.563,3.732l-0.048,0.054l15.852,14.198c12.856,11.514,32.611,10.427,44.126-2.43
		C219.087,67.627,218,47.871,205.144,36.357z"/>
	<g>
		<path style="fill:#B8DCF2;" d="M248.123,150.584h-21.349c-4.211,0-7.625-3.413-7.625-7.625c0-4.211,3.414-7.625,7.625-7.625
			h21.349c4.211,0,7.625,3.413,7.625,7.625C255.748,147.17,252.334,150.584,248.123,150.584z"/>
	</g>
	<path style="fill:#FFDD71;" d="M245.959,297.076c-6.796-26.643-30.95-46.345-59.71-46.345h-48.985
		c-28.759,0-52.914,19.703-59.71,46.345H245.959z"/>
	<path style="fill:#FFDD71;" d="M77.555,327.628c6.796,26.643,30.95,46.345,59.71,46.345h48.985
		c28.759,0,52.914-19.703,59.71-46.345H77.555z"/>
	<g>
		<path style="fill:#FECF2B;" d="M150.487,250.877c1.413-0.097,2.84-0.146,4.278-0.146h-17.5c-28.759,0-52.914,19.703-59.71,46.345
			h74.909C122.9,297.076,120.992,252.9,150.487,250.877z"/>
	</g>
	<g>
		<path style="fill:#FECF2B;" d="M152.464,327.628H77.555c6.796,26.643,30.95,46.345,59.71,46.345h17.5
			c-1.438,0-2.864-0.049-4.278-0.146C120.992,371.804,122.9,327.628,152.464,327.628z"/>
	</g>
	<path style="fill:#FECF2B;" d="M249.026,295.069H74.488c-3.084,0-5.584,2.5-5.584,5.584v23.397c0,3.084,2.5,5.584,5.584,5.584
		h174.539c3.084,0,5.584-2.5,5.584-5.584v-23.397C254.61,297.569,252.11,295.069,249.026,295.069z"/>
	<path style="fill:#FABD2B;" d="M122.951,312.352L122.951,312.352c0-9.545,7.738-17.283,17.283-17.283H74.488
		c-3.084,0-5.584,2.5-5.584,5.584v23.397c0,3.084,2.501,5.584,5.584,5.584h65.746C130.689,329.635,122.951,321.897,122.951,312.352z
		"/>
	<path style="fill:#DEEEFA;" d="M467.66,390.442V283.629c0-3.96-3.21-7.17-7.17-7.17H323.701c-3.96,0-7.17,3.21-7.17,7.17v212.515
		c0,2.793,0.486,5.469,1.354,7.965C381.606,487.524,435.226,445.933,467.66,390.442z"/>
	<path style="fill:#B8DCF2;" d="M452.577,413.246V276.459H331.614v188.919c0,10.74,8.706,19.446,19.446,19.446h17.187
		C401.526,467.639,430.362,443.057,452.577,413.246z"/>
	<path style="fill:#89C2E5;" d="M366.066,477.725V288.459c0-6.6,5.4-12,12-12h-46.452v188.919c0,10.74,8.706,19.446,19.446,19.446
		h17.187c0.042-0.022,0.083-0.045,0.125-0.067C366.93,482.775,366.066,480.349,366.066,477.725z"/>
	<path style="fill:#AA6355;" d="M452.577,413.246v-78.032c-15.121,0-15.121,10.706-30.242,10.706
		c-15.121,0-15.121-10.706-30.243-10.706c-15.119,0-15.119,10.706-30.239,10.706c-15.119,0-15.119-10.706-30.239-10.706v130.163
		c0,10.74,8.706,19.446,19.446,19.446h17.187C401.526,467.639,430.362,443.057,452.577,413.246z"/>
	<path style="fill:#975242;" d="M366.066,477.725V345.599c-1.269,0.203-2.657,0.322-4.213,0.322
		c-15.119,0-15.119-10.706-30.239-10.706v130.163c0,10.74,8.706,19.446,19.446,19.446h17.187c0.042-0.022,0.083-0.045,0.125-0.067
		C366.93,482.775,366.066,480.349,366.066,477.725z"/>
	<path style="fill:#975242;" d="M351.06,464.837c-10.739,0-19.446-8.706-19.446-19.445v19.986c0,10.74,8.706,19.445,19.446,19.445
		h17.188c11.3-5.835,22.081-12.529,32.271-19.986H351.06z"/>
	<path style="fill:#8E4739;" d="M366.066,477.725v-12.888H351.06c-10.739,0-19.446-8.706-19.446-19.445v19.986
		c0,10.74,8.706,19.445,19.446,19.445h17.188c0.042-0.022,0.083-0.045,0.126-0.066C366.93,482.776,366.066,480.349,366.066,477.725z
		"/>
	<g>
		<path style="fill:#BA756A;" d="M385.649,407.992c-5.918,0-11.014-4.777-11.014-11.015c0-7.072,6.518-12.124,13.163-10.794
			c5.407,1.097,8.867,5.795,8.867,10.794C396.664,402.939,391.829,407.992,385.649,407.992z"/>
	</g>
	<g>
		<path style="fill:#BA756A;" d="M404.374,434.067c-4.37,0-7.71-3.59-7.71-7.721c0-9.935,15.42-10.468,15.42,0
			C412.084,430.608,408.606,434.067,404.374,434.067z"/>
	</g>
	<polygon style="fill:#975242;" points="279.173,112.704 347.031,37.616 414.888,112.704 	"/>
	<path style="fill:#8E4739;" d="M329.601,90.659l24.942-27.6c3.503-3.876,5.816-6.523,10.518-5.491l-18.031-19.952l-67.857,75.088
		h57.944C325.039,112.704,321.503,99.619,329.601,90.659z"/>
	
		<ellipse transform="matrix(0.6672 -0.7449 0.7449 0.6672 22.2173 140.599)" style="fill:#DEEEFA;" cx="168.443" cy="45.438" rx="31.249" ry="31.249"/>
	<path style="fill:#B8DCF2;" d="M194.397,51.898c-8.711,9.727-23.659,10.55-33.385,1.838c-9.727-8.712-10.55-23.659-1.838-33.386
		c2.513-2.806,5.553-4.845,8.828-6.154c-8.423,0.121-16.772,3.623-22.835,10.393c-11.514,12.856-10.426,32.611,2.43,44.126
		c12.856,11.514,32.612,10.426,44.126-2.43c6.063-6.77,8.627-15.453,7.824-23.838C198.603,45.847,196.91,49.092,194.397,51.898z"/>
</g>
<g>
</g>
<g>
</g>
<g>
</g>
<g>
</g>
<g>
</g>
<g>
</g>
<g>
</g>
<g>
</g>
<g>
</g>
<g>
</g>
<g>
</g>
<g>
</g>
<g>
</g>
<g>
</g>
<g>
</g>
</svg>
