<?xml version="1.0" encoding="iso-8859-1"?>
<!-- Generator: Adobe Illustrator 21.0.0, SVG Export Plug-In . SVG Version: 6.00 Build 0)  -->
<svg version="1.1" id="Capa_1" xmlns="http://www.w3.org/2000/svg" xmlns:xlink="http://www.w3.org/1999/xlink" x="0px" y="0px"
	 viewBox="0 0 512 512" style="enable-background:new 0 0 512 512;" xml:space="preserve">
<g>
	<path style="fill:#7FBC0A;" d="M256,21.997c-135.311,0-245.002,109.691-245.002,245.002c0,36.152,7.836,70.471,21.892,101.362
		l303.213,130.23c95.971-33.19,164.898-124.336,164.898-231.592C501.002,131.688,391.311,21.997,256,21.997z"/>
	<path style="fill:#975242;" d="M270.866,61.095h0.422c2.521,0,4.445,2.242,4.061,4.734c-0.885,5.744-2.112,11.942-3.464,18.582
		h72.122c-1.352-6.641-2.579-12.839-3.464-18.582c-0.384-2.492,1.539-4.734,4.061-4.734c7.033,0,13.204-5.189,13.89-12.188
		c0.789-8.042-5.58-14.881-13.468-14.881h-73.737c-7.032,0-13.204,5.188-13.891,12.187
		C256.609,54.254,262.978,61.095,270.866,61.095z"/>
	<path style="fill:#975242;" d="M373.88,206.439c-12.425-14.91-19.544-33.546-20.149-52.945c-0.329-10.556-1.308-20.499-2.6-29.87
		H264.76c-1.292,9.371-2.27,19.315-2.599,29.87c-0.605,19.399-7.724,38.035-20.149,52.945l-5.638,6.766
		c-13.05,15.661-20.196,35.401-20.196,55.786v238.45c0,0.444,0.012,0.886,0.034,1.325C229.163,510.882,242.45,512,256,512
		c53.694,0,103.343-17.286,143.715-46.577V268.992c0-20.385-7.147-40.125-20.196-55.786L373.88,206.439z"/>
	<path style="fill:#BA756A;" d="M343.737,83.075h-71.581c-2.506,12.364-5.494,26.325-7.575,41.885h86.731
		C349.231,109.399,346.243,95.438,343.737,83.075z"/>
	<path style="fill:#8E4739;" d="M314.638,61.095h-0.28c-5.226,0-9.445-6.841-8.922-14.882c0.455-6.999,4.543-12.187,9.202-12.187
		h-43.349c-7.032,0-13.204,5.188-13.891,12.187c-0.789,8.042,5.58,14.882,13.468,14.882h0.422c2.521,0,4.445,2.242,4.061,4.733
		c-0.885,5.744-2.112,11.942-3.464,18.582h43.147c0.896-6.641,1.708-12.839,2.295-18.582
		C317.582,63.337,316.308,61.095,314.638,61.095z"/>
	<path style="fill:#8E4739;" d="M264.76,123.624c-1.3,9.427-2.282,19.433-2.605,30.059c-0.588,19.336-7.759,37.895-20.143,52.757
		l-5.637,6.765c-13.05,15.661-20.197,35.402-20.197,55.787v238.45c0,0.444,0.011,0.886,0.034,1.325
		C229.163,510.882,242.45,512,256,512c9.894,0,19.649-0.591,29.236-1.732c-0.024-0.004-0.047-0.009-0.071-0.013
		c-4.082-0.735-7.024-4.331-7.027-8.478c-0.017-22.913-0.005-101.816-0.009-232.785c0-20.385,4.734-40.125,13.379-55.786
		l3.735-6.766c8.23-14.91,12.947-33.546,13.348-52.945c0.218-10.556,0.866-20.499,1.722-29.87H264.76z"/>
	<path style="fill:#AA6355;" d="M272.155,83.075c-2.506,12.364-5.494,26.325-7.575,41.885h45.613
		c1.378-15.561,3.358-29.521,5.018-41.885H272.155z"/>
	<g>
		<path style="fill:#FABD2B;" d="M369.425,341.512v-48.505c0-18.166-14.726-32.893-32.893-32.893H279.36
			c-18.166,0-32.893,14.727-32.893,32.893v48.505H369.425z"/>
		<path style="fill:#FABD2B;" d="M246.467,404.674v48.506c0,18.166,14.727,32.893,32.893,32.893h57.172
			c18.167,0,32.893-14.727,32.893-32.893v-48.506H246.467z"/>
	</g>
	<g>
		<path style="fill:#F29A2B;" d="M278.129,341.512v-48.505c0-18.166,14.727-32.893,32.893-32.893H279.36
			c-18.166,0-32.893,14.727-32.893,32.893v48.505H278.129z"/>
		<path style="fill:#F29A2B;" d="M278.129,453.18v-48.506h-31.662v48.506c0,18.166,14.727,32.893,32.893,32.893h31.662
			C292.856,486.073,278.129,471.346,278.129,453.18z"/>
	</g>
	<rect x="246.467" y="340.243" style="fill:#7FBC0A;" width="122.958" height="65.701"/>
	<rect x="246.467" y="340.243" style="fill:#79AD05;" width="31.662" height="65.701"/>
	<g>
		<path style="fill:#FFDD71;" d="M335.494,313.411c-7.328-7.449-17.111-11.551-27.547-11.551c-10.436,0-20.22,4.102-27.549,11.551
			c-3.201,3.255-8.436,3.297-11.69,0.096c-3.255-3.202-3.298-8.437-0.095-11.691c10.461-10.634,24.43-16.49,39.334-16.49
			c14.904,0,28.873,5.856,39.334,16.49c3.202,3.255,3.159,8.489-0.096,11.691C343.934,316.704,338.7,316.67,335.494,313.411z"/>
	</g>
	<g>
		<path style="fill:#B4E234;" d="M329.497,381.36h-43.102c-4.565,0-8.267-3.701-8.267-8.267s3.701-8.267,8.267-8.267h43.102
			c4.565,0,8.267,3.701,8.267,8.267S334.063,381.36,329.497,381.36z"/>
	</g>
	<path style="fill:#F94862;" d="M87.329,61.095h0.422c2.521,0,4.445,2.242,4.061,4.734c-0.885,5.744-2.112,11.942-3.464,18.582
		h72.122c-1.352-6.641-2.579-12.839-3.464-18.582c-0.384-2.492,1.54-4.734,4.061-4.734c7.033,0,13.204-5.189,13.89-12.188
		c0.789-8.042-5.58-14.881-13.468-14.881H87.752c-7.033,0-13.204,5.188-13.891,12.187C73.071,54.254,79.44,61.095,87.329,61.095z"/>
	<path style="fill:#F94862;" d="M190.343,206.439c-12.424-14.91-19.544-33.546-20.149-52.945
		c-0.329-10.556-1.307-20.499-2.599-29.87H81.223c-1.292,9.371-2.271,19.315-2.599,29.87c-0.605,19.399-7.724,38.035-20.149,52.945
		l-5.639,6.766c-13.05,15.661-20.196,35.401-20.196,55.786v98.831c33.188,73.406,101.503,127.515,183.505,140.933
		c0.022-0.435,0.033-0.873,0.033-1.314v-238.45c0-20.385-7.147-40.125-20.196-55.786L190.343,206.439z"/>
	<path style="fill:#FF6683;" d="M160.199,83.075H88.618c-2.506,12.364-5.494,26.325-7.575,41.885h86.731
		C165.693,109.399,162.705,95.438,160.199,83.075z"/>
	<path style="fill:#ED3346;" d="M131.495,84.41c0.896-6.641,1.709-12.839,2.295-18.583c0.254-2.492-1.02-4.733-2.69-4.733
		c-4.659,0-8.747-5.189-9.202-12.188c-0.522-8.039,3.693-14.875,8.916-14.881H87.752c-7.033,0-13.204,5.188-13.891,12.187
		c-0.789,8.042,5.58,14.882,13.468,14.882h0.422c2.521,0,4.445,2.242,4.061,4.733c-0.885,5.744-2.112,11.942-3.464,18.582h72.122
		l-0.001,0H131.495z"/>
	<g>
		<path style="fill:#ED3346;" d="M94.591,268.992c0-20.385,4.734-40.125,13.379-55.786l3.735-6.766
			c8.231-14.91,12.947-33.546,13.348-52.945c0.218-10.555,0.866-20.499,1.722-29.87H81.223c-1.292,9.371-2.271,19.314-2.599,29.87
			c-0.605,19.399-7.724,38.035-20.149,52.945l-5.639,6.766c-13.05,15.661-20.196,35.401-20.196,55.786v98.831
			c14.522,32.122,35.772,60.548,61.951,83.488V268.992z"/>
	</g>
	<path style="fill:#F94862;" d="M88.618,83.075c-2.506,12.364-5.494,26.325-7.575,41.885l45.613,0
		c1.379-15.561,3.357-29.521,5.018-41.885H88.618z"/>
	<g>
		<path style="fill:#FABD2B;" d="M185.888,341.653v-48.646c0-18.166-14.727-32.893-32.893-32.893H95.822
			c-18.166,0-32.893,14.727-32.893,32.893v48.646H185.888z"/>
		<path style="fill:#FABD2B;" d="M62.93,404.533v13.303c22.273,28.469,50.709,51.876,83.296,68.237h6.769
			c18.166,0,32.893-14.727,32.893-32.893v-48.647H62.93z"/>
	</g>
	<g>
		<path style="fill:#F29A2B;" d="M94.591,341.653v-48.646c0-18.166,14.727-32.893,32.893-32.893H95.822
			c-18.166,0-32.893,14.727-32.893,32.893v48.646H94.591z"/>
		<path style="fill:#F29A2B;" d="M62.93,404.533v13.303c9.485,12.124,20.097,23.318,31.662,33.453v-46.756H62.93z"/>
	</g>
	<g>
		<path style="fill:#FFDD71;" d="M151.956,313.411c-7.328-7.449-17.111-11.551-27.547-11.551s-20.22,4.102-27.548,11.551
			c-3.201,3.255-8.436,3.297-11.69,0.096c-3.255-3.202-3.298-8.437-0.095-11.691c10.461-10.634,24.43-16.49,39.334-16.49
			c14.904,0,28.873,5.856,39.334,16.49c3.202,3.255,3.159,8.489-0.096,11.691C160.396,316.704,155.163,316.67,151.956,313.411z"/>
	</g>
	<path style="fill:#FF6683;" d="M396.203,337.723h-51.448c-14.58,0-26.51,11.93-26.51,26.51v2.643h104.468v-2.643
		C422.713,349.653,410.783,337.723,396.203,337.723z"/>
	<path style="fill:#F94862;" d="M392.755,337.723h-48c-14.581,0-26.51,11.93-26.51,26.51v2.644h48v-2.644
		C366.245,349.653,378.174,337.723,392.755,337.723z"/>
	<path style="fill:#F94862;" d="M429.45,365.864H311.507c-14.58,0-26.51,11.929-26.51,26.51v2.643h170.963v-2.643
		C455.961,377.793,444.031,365.864,429.45,365.864z"/>
	<path style="fill:#ED3346;" d="M370.257,365.864h-58.75c-14.58,0-26.51,11.93-26.51,26.51v2.643h58.75v-2.643
		C343.747,377.794,355.677,365.864,370.257,365.864z"/>
	<path style="fill:#B8DCF2;" d="M276.629,420.337c3.045,36.392,17.933,68.065,39.463,88.14c2.301,2.145,5.357,3.292,8.503,3.292
		h91.767c3.146,0,6.202-1.147,8.503-3.292c21.53-20.075,36.418-51.749,39.463-88.14H276.629z"/>
	<path style="fill:#89C2E5;" d="M370.386,508.477c-13.645-20.075-23.079-51.749-25.009-88.14h-68.748
		c3.045,36.392,17.933,68.065,39.463,88.14c2.3,2.145,5.357,3.292,8.503,3.292h51.179
		C373.781,511.769,371.844,510.622,370.386,508.477z"/>
	<g>
		<path style="fill:#DEEEFA;" d="M464.329,421.35h-187.7c-7.551,0-13.672-6.121-13.672-13.672c0-7.551,6.121-13.673,13.672-13.673
			h187.7c7.551,0,13.672,6.121,13.672,13.673C478.001,415.229,471.88,421.35,464.329,421.35z"/>
	</g>
	<path style="fill:#B8DCF2;" d="M333.457,407.677c0-7.551,6.121-13.673,13.672-13.673h-70.5c-7.551,0-13.672,6.121-13.672,13.673
		s6.121,13.672,13.672,13.672h70.5C339.578,421.35,333.457,415.229,333.457,407.677z"/>
	<path style="fill:#DEEEFA;" d="M165.317,8.318C163.594,3.415,157.688,0,150.934,0H98.102c-6.754,0-12.66,3.415-14.383,8.318
		L75.62,31.354c-1.353,4.256,0.639,6.59,5.467,6.59h86.655c4.828,0,6.484-3.092,5.673-6.59L165.317,8.318z"/>
	<path style="fill:#B8DCF2;" d="M118.985,31.354l8.098-23.036C128.807,3.416,134.714,0,141.467,0H98.101
		c-6.754,0-12.66,3.415-14.383,8.318L75.62,31.354c-1.353,4.256,0.639,6.59,5.467,6.59h43.365
		C119.625,37.944,117.632,35.61,118.985,31.354z"/>
	
		<ellipse transform="matrix(0.866 -0.5 0.5 0.866 -35.6167 76.2139)" style="fill:#FABD2B;" cx="124.409" cy="104.569" rx="28.107" ry="28.107"/>
	<rect x="62.93" y="340.243" style="fill:#7FBC0A;" width="122.958" height="65.701"/>
	<rect x="62.93" y="340.243" style="fill:#79AD05;" width="31.662" height="65.701"/>
	<g>
		<path style="fill:#B4E234;" d="M145.959,381.36h-43.101c-4.566,0-8.267-3.701-8.267-8.267s3.701-8.267,8.267-8.267h43.101
			c4.566,0,8.267,3.701,8.267,8.267S150.525,381.36,145.959,381.36z"/>
	</g>
	<path style="fill:#DEEEFA;" d="M348.855,8.318C347.131,3.415,341.225,0,334.471,0h-52.832c-6.754,0-12.66,3.415-14.383,8.318
		l-8.098,23.036c-1.353,4.256,0.639,6.59,5.467,6.59h86.655c4.828,0,6.484-3.092,5.673-6.59L348.855,8.318z"/>
	<path style="fill:#B8DCF2;" d="M302.523,31.354l8.098-23.036C312.345,3.416,318.251,0,325.004,0h-43.365
		c-6.754,0-12.66,3.415-14.383,8.318l-8.098,23.036c-1.353,4.256,0.639,6.59,5.467,6.59h43.366
		C303.162,37.944,301.17,35.61,302.523,31.354z"/>
	<g>
		<path style="fill:#F6AC2B;" d="M128.965,123.941c-1.864-3.228-1.81-7.03-0.206-10.107l-10.177-17.627
			c-3.467-0.15-6.786-2.004-8.65-5.232c-1.942-3.365-1.802-7.353,0.006-10.494c-13.116,7.875-17.55,24.838-9.87,38.14
			c7.666,13.279,24.529,17.927,37.896,10.559C134.372,129.145,130.891,127.277,128.965,123.941z"/>
	</g>
	
		<ellipse transform="matrix(0.866 -0.5 0.5 0.866 -35.6167 76.2139)" style="fill:#F29A2B;" cx="124.409" cy="104.569" rx="12.542" ry="12.542"/>
	
		<ellipse transform="matrix(0.866 -0.5 0.5 0.866 -11.0273 167.983)" style="fill:#B4E234;" cx="307.946" cy="104.569" rx="28.107" ry="28.107"/>
	<g>
		<path style="fill:#7FBC0A;" d="M312.503,123.941c-1.864-3.228-1.809-7.03-0.206-10.107L302.12,96.208
			c-3.467-0.15-6.786-2.004-8.65-5.232c-1.943-3.365-1.803-7.353,0.005-10.494c-13.116,7.875-17.55,24.838-9.871,38.14
			c7.666,13.279,24.529,17.927,37.896,10.559C317.909,129.145,314.429,127.277,312.503,123.941z"/>
	</g>
	
		<ellipse transform="matrix(0.866 -0.5 0.5 0.866 -11.0273 167.9827)" style="fill:#79AD05;" cx="307.946" cy="104.569" rx="12.542" ry="12.542"/>
</g>
<g>
</g>
<g>
</g>
<g>
</g>
<g>
</g>
<g>
</g>
<g>
</g>
<g>
</g>
<g>
</g>
<g>
</g>
<g>
</g>
<g>
</g>
<g>
</g>
<g>
</g>
<g>
</g>
<g>
</g>
</svg>
