<?xml version="1.0" encoding="iso-8859-1"?>
<!-- Generator: Adobe Illustrator 21.0.0, SVG Export Plug-In . SVG Version: 6.00 Build 0)  -->
<svg version="1.1" id="Capa_1" xmlns="http://www.w3.org/2000/svg" xmlns:xlink="http://www.w3.org/1999/xlink" x="0px" y="0px"
	 viewBox="0 0 512.039 512.039" style="enable-background:new 0 0 512.039 512.039;" xml:space="preserve">
<g>
	<path style="fill:#1D3260;" d="M114.047,474.108L114.047,474.108c30.14,19.099,64.733,31.792,101.873,36.186l59.319-0.132l0,0l0,0
		c37.863-4.661,73.046-17.963,103.53-37.869l59.318-54.458c32.525-41.582,51.916-93.934,51.916-150.817
		c0-135.311-109.691-245.002-245.002-245.002C109.691,22.016,0,131.707,0,267.018c0,58.501,20.516,112.203,54.729,154.332
		L114.047,474.108z"/>
	<path style="fill:#DEEEFA;" d="M289.872,0.02h-88.586c-18.584,0-33.79,15.206-33.79,33.79v139.642
		c0,18.585,15.206,33.79,33.79,33.79c12.762,0,23.108,10.346,23.108,23.107v116.486h42.371V230.349
		c0-12.762,10.345-23.107,23.108-23.107c18.584,0,33.79-15.206,33.79-33.79V33.81C323.663,15.225,308.457,0.02,289.872,0.02z"/>
	<path style="fill:#B8DCF2;" d="M289.872,184.783h-88.586c-18.584,0-33.79-15.206-33.79-33.79v22.458
		c0,18.585,15.206,33.79,33.79,33.79c12.762,0,23.108,10.346,23.108,23.107v116.486h42.371V230.349
		c0-12.762,10.345-23.107,23.108-23.107c18.584,0,33.79-15.206,33.79-33.79v-22.458
		C323.663,169.577,308.457,184.783,289.872,184.783z"/>
	<path style="fill:#DEEEFA;" d="M402.789,0.169c-53.472,2.833-96.315,46.748-97.924,100.271
		c-1.226,40.833,21.182,76.549,54.563,94.499c17.245,9.272,27.814,27.463,27.814,47.043v104.853h42.371V241.986
		c0-19.525,10.466-37.753,27.676-46.973c32.585-17.457,54.75-51.829,54.75-91.382C512.039,44.54,462.572-2.999,402.789,0.169z"/>
	<path style="fill:#B8DCF2;" d="M401.926,205.269c-15.183-0.805-29.621-4.487-42.79-10.495c0.099,0.053,0.195,0.111,0.293,0.164
		c17.245,9.272,27.814,27.463,27.814,47.043v104.853h42.371V241.986c0-19.517,10.458-37.738,27.657-46.962
		C440.513,202.541,421.711,206.317,401.926,205.269z"/>
	<path style="fill:#DEEEFA;" d="M50.882,160.508c7.756,5.682,12.32,14.731,12.32,24.346v161.981h42.371V184.853
		c0-9.614,4.564-18.664,12.32-24.346c20.234-14.823,33.865-42.648,33.865-74.548c0-47.463-30.163-85.94-67.371-85.94
		c-37.208,0-67.371,38.477-67.371,85.94C17.017,117.86,30.649,145.685,50.882,160.508z"/>
	<path style="fill:#B8DCF2;" d="M149.666,64.64c-2.385,43.349-30.689,77.578-65.278,77.578c-34.59,0-62.894-34.229-65.278-77.578
		c-1.364,6.817-2.093,13.96-2.093,21.32c0,31.9,13.632,59.726,33.866,74.548c7.756,5.682,12.32,14.731,12.32,24.346v161.981h42.371
		V184.853c0-9.614,4.564-18.664,12.32-24.346c20.234-14.823,33.865-42.648,33.865-74.548C151.759,78.6,151.031,71.457,149.666,64.64
		z"/>
	<g>
		<path style="fill:#89C2E5;" d="M245.579,312.132c-11.7,0-21.185-9.485-21.185-21.185v55.887h42.37v-55.887
			C266.765,302.647,257.28,312.132,245.579,312.132z"/>
	</g>
	<g>
		<path style="fill:#89C2E5;" d="M408.429,312.132L408.429,312.132c-11.701,0-21.186-9.485-21.186-21.185v55.887h42.371v-55.887
			C429.614,302.647,420.129,312.132,408.429,312.132z"/>
	</g>
	<g>
		<path style="fill:#89C2E5;" d="M84.388,312.132L84.388,312.132c-11.701,0-21.186-9.485-21.186-21.185v55.887h42.371v-55.887
			C105.573,302.647,96.088,312.132,84.388,312.132z"/>
	</g>
	<g>
		<path style="fill:#B8DCF2;" d="M284.621,155.959c-5.014,0-9.079-4.064-9.079-9.079V39.137c0-5.015,4.065-9.079,9.079-9.079
			c5.014,0,9.079,4.064,9.079,9.079v107.742C293.701,151.894,289.636,155.959,284.621,155.959z"/>
	</g>
	<g>
		<path style="fill:#B8DCF2;" d="M245.58,155.959c-5.014,0-9.079-4.064-9.079-9.079V39.137c0-5.015,4.065-9.079,9.079-9.079
			c5.014,0,9.079,4.064,9.079,9.079v107.742C254.659,151.894,250.594,155.959,245.58,155.959z"/>
	</g>
	<g>
		<path style="fill:#B8DCF2;" d="M206.538,155.959c-5.014,0-9.079-4.064-9.079-9.079V39.137c0-5.015,4.065-9.079,9.079-9.079
			c5.014,0,9.079,4.064,9.079,9.079v107.742C215.618,151.894,211.553,155.959,206.538,155.959z"/>
	</g>
	<path style="fill:#89C2E5;" d="M284.621,110.492c-5.015,0-9.08-4.064-9.08-9.079v45.467c0,5.015,4.065,9.079,9.08,9.079
		c5.014,0,9.079-4.064,9.079-9.079v-45.467C293.701,106.427,289.636,110.492,284.621,110.492z"/>
	<path style="fill:#89C2E5;" d="M245.58,110.492c-5.015,0-9.08-4.064-9.08-9.079v45.467c0,5.015,4.065,9.079,9.08,9.079
		c5.014,0,9.079-4.064,9.079-9.079v-45.467C254.659,106.427,250.594,110.492,245.58,110.492z"/>
	<path style="fill:#89C2E5;" d="M206.538,110.492c-5.015,0-9.08-4.064-9.08-9.079v45.467c0,5.015,4.065,9.079,9.08,9.079
		c5.014,0,9.079-4.064,9.079-9.079v-45.467C215.618,106.427,211.553,110.492,206.538,110.492z"/>
	<path style="fill:#ED3346;" d="M215.92,510.294c9.538,1.128,19.239,1.726,29.081,1.726c10.239,0,20.328-0.638,30.238-1.858V373.467
		H215.92V510.294z"/>
	<path style="fill:#ED3346;" d="M378.769,472.293c22.646-14.788,42.7-33.212,59.319-54.458v-44.368h-59.319V472.293z"/>
	<path style="fill:#ED3346;" d="M54.729,421.35c16.753,20.629,36.789,38.481,59.319,52.758V373.467H54.729V421.35z"/>
	<path style="fill:#DB2640;" d="M215.92,373.467v59.21c0-16.381,13.279-29.659,29.659-29.659l0,0c16.38,0,29.66,13.279,29.66,29.659
		v-59.21H215.92z"/>
	<path style="fill:#DB2640;" d="M378.769,373.467v59.21c0-16.381,13.279-29.659,29.66-29.659l0,0
		c12.191,0,22.659,7.357,27.219,17.872c0.819-1.014,1.637-2.028,2.44-3.055v-44.368H378.769z"/>
	<path style="fill:#DB2640;" d="M54.729,373.467v47.882c0.51,0.628,1.033,1.246,1.549,1.869
		c3.949-11.741,15.038-20.201,28.11-20.201h0c16.38,0,29.659,13.279,29.659,29.659v-59.21H54.729z"/>
	<g>
		<path style="fill:#FF6683;" d="M275.239,375.283H215.92c-9.026,0-16.343-7.317-16.343-16.343c0-9.026,7.317-16.343,16.343-16.343
			h59.319c9.026,0,16.343,7.317,16.343,16.343C291.582,367.967,284.265,375.283,275.239,375.283z"/>
	</g>
	<g>
		<path style="fill:#FF6683;" d="M438.088,375.283h-59.319c-9.026,0-16.343-7.317-16.343-16.343c0-9.026,7.317-16.343,16.343-16.343
			h59.319c9.026,0,16.343,7.317,16.343,16.343C454.431,367.967,447.114,375.283,438.088,375.283z"/>
	</g>
	<g>
		<path style="fill:#FF6683;" d="M114.047,375.283H54.729c-9.026,0-16.343-7.317-16.343-16.343c0-9.026,7.317-16.343,16.343-16.343
			h59.319c9.026,0,16.343,7.317,16.343,16.343C130.39,367.967,123.074,375.283,114.047,375.283z"/>
	</g>
	<path style="fill:#F94862;" d="M244.751,358.941c0-9.026,7.316-16.343,16.343-16.343H215.92c-9.026,0-16.343,7.317-16.343,16.343
		c0,9.026,7.317,16.343,16.343,16.343h45.174C252.067,375.283,244.751,367.966,244.751,358.941z"/>
	<path style="fill:#F94862;" d="M407.6,358.941c0-9.026,7.317-16.343,16.343-16.343h-45.174c-9.026,0-16.343,7.317-16.343,16.343
		c0,9.026,7.316,16.343,16.343,16.343h45.174C414.917,375.283,407.6,367.966,407.6,358.941z"/>
	<path style="fill:#F94862;" d="M83.56,358.941c0-9.026,7.316-16.343,16.343-16.343H54.729c-9.026,0-16.343,7.317-16.343,16.343
		c0,9.026,7.316,16.343,16.343,16.343h45.174C90.876,375.283,83.56,367.966,83.56,358.941z"/>
	<circle style="fill:#89C2E5;" cx="408.428" cy="47.541" r="9.075"/>
	<circle style="fill:#89C2E5;" cx="408.428" cy="160.266" r="9.075"/>
	<circle style="fill:#89C2E5;" cx="408.428" cy="127.736" r="9.075"/>
	<circle style="fill:#89C2E5;" cx="408.428" cy="80.077" r="9.075"/>
	<circle style="fill:#89C2E5;" cx="432.258" cy="103.906" r="9.075"/>
	<circle style="fill:#89C2E5;" cx="384.599" cy="103.906" r="9.075"/>
	
		<ellipse transform="matrix(0.7071 -0.7071 0.7071 0.7071 62.664 279.3819)" style="fill:#89C2E5;" cx="368.574" cy="64.049" rx="9.075" ry="9.075"/>
	
		<ellipse transform="matrix(0.7071 -0.7071 0.7071 0.7071 29.6467 359.0894)" style="fill:#89C2E5;" cx="448.283" cy="143.758" rx="9.075" ry="9.075"/>
	<circle style="fill:#89C2E5;" cx="352.066" cy="103.904" r="9.075"/>
	<circle style="fill:#89C2E5;" cx="464.791" cy="103.904" r="9.075"/>
	
		<ellipse transform="matrix(0.7071 -0.7071 0.7071 0.7071 6.3 302.7254)" style="fill:#89C2E5;" cx="368.574" cy="143.758" rx="9.075" ry="9.075"/>
	
		<ellipse transform="matrix(0.7071 -0.7071 0.7071 0.7071 86.0093 335.7432)" style="fill:#89C2E5;" cx="448.283" cy="64.049" rx="9.075" ry="9.075"/>
</g>
<g>
</g>
<g>
</g>
<g>
</g>
<g>
</g>
<g>
</g>
<g>
</g>
<g>
</g>
<g>
</g>
<g>
</g>
<g>
</g>
<g>
</g>
<g>
</g>
<g>
</g>
<g>
</g>
<g>
</g>
</svg>
