<?xml version="1.0" encoding="iso-8859-1"?>
<!-- Generator: Adobe Illustrator 21.0.0, SVG Export Plug-In . SVG Version: 6.00 Build 0)  -->
<svg version="1.1" id="Capa_1" xmlns="http://www.w3.org/2000/svg" xmlns:xlink="http://www.w3.org/1999/xlink" x="0px" y="0px"
	 viewBox="0 0 512.003 512.003" style="enable-background:new 0 0 512.003 512.003;" xml:space="preserve">
<g>
	<path style="fill:#4ECDF9;" d="M438.146,430.842c39.071-43.407,62.858-100.845,62.858-163.844
		c0-135.311-109.691-245.002-245.002-245.002S11,131.688,11,266.998c0,60.807,22.162,116.431,58.835,159.26L438.146,430.842z"/>
	<path style="fill:#FF6683;" d="M438.709,322.355c-5.539,19.388-86.111,34.769-184.707,34.769S74.834,341.743,69.295,322.355H68.98
		v102.893c28.966,34.198,67.146,60.332,110.7,74.604l0,0l147.23,1.714c43.809-13.231,82.442-38.391,112.113-71.712V322.355H438.709z
		"/>
	<path style="fill:#F94862;" d="M439.023,359.64h-0.315c-3.944,13.804-45.933,25.575-105.376,31.212
		c17.48,27.99,18.884,63.27,3.657,92.601c16.629-1.667,31.82-3.821,45.113-6.366c21.298-12.811,40.482-28.772,56.921-47.234V359.64z
		"/>
	<path style="fill:#F94862;" d="M69.295,359.64H68.98v65.607c17.745,20.951,38.945,38.877,62.723,52.905
		c11.854,2.084,25.055,3.87,39.312,5.3c-15.206-29.289-13.848-64.569,3.657-92.601C115.228,385.216,73.238,373.444,69.295,359.64z"
		/>
	<path style="fill:#FECF2B;" d="M209.988,356.072c-54.941,28.741-66.337,99.042-30.318,143.776
		C203.693,507.722,229.345,512,256.002,512c24.659,0,48.462-3.655,70.909-10.434c37.766-44.663,26.695-116.413-28.895-145.493
		C292.154,356.205,260.569,358.369,209.988,356.072z"/>
	<path style="fill:#F6AC2B;" d="M276.046,486.231c-48.359-15.504-59.373-57.545-61.88-76.418c-0.677-5.103-4.513-9.131-9.512-10.362
		c-20.523-5.057-15.471-28.172-15.471-28.172l-0.021-0.572c-36.398,33.636-40.371,90.787-9.482,129.144
		c35.459,11.62,72.864,14.841,109.276,9.943c-3.129-3.944-4.156-8.337-4.299-12.075
		C284.455,492.449,281.068,487.841,276.046,486.231z"/>
	<circle style="fill:#F6AC2B;" cx="253.84" cy="441.206" r="57.418"/>
	<path style="fill:#F29A2B;" d="M276.046,486.231c-48.359-15.504-59.373-57.545-61.88-76.418c-0.345-2.603-1.516-4.923-3.24-6.737
		c-9.018,10.141-14.504,23.492-14.504,38.13c0,31.711,25.706,57.418,57.417,57.418c10.412,0,20.168-2.786,28.588-7.631
		C280.915,488.794,278.715,487.087,276.046,486.231z"/>
	<path style="fill:#F94862;" d="M312.643,444.032c-0.558-1.505-0.558-3.159,0-4.664l6.426-17.323
		c1.816-4.896-2.42-9.918-7.547-8.929c-10.01,1.931-19.119,6.388-26.652,12.673c-2.974,2.482-7.226,2.482-10.2,0
		c-10.275-8.573-23.48-13.744-37.909-13.744c-20.37,0-38.329,10.277-49.006,25.922c-1.529,2.241-1.529,5.224-0.001,7.464
		c10.676,15.646,28.636,25.924,49.007,25.924c14.429,0,27.634-5.171,37.909-13.744c2.975-2.482,7.226-2.482,10.2,0
		c7.533,6.285,16.641,10.742,26.652,12.673c5.128,0.989,9.364-4.034,7.547-8.929L312.643,444.032z"/>
	<ellipse style="fill:#284270;" cx="254.002" cy="104.617" rx="185.021" ry="36.027"/>
	<g>
		<path style="fill:#1D3260;" d="M254.002,68.589c-12.665,0-25.032,0.249-36.982,0.72c47.041,3.337,82.451,17.876,82.451,35.307
			c0,17.431-35.409,31.97-82.451,35.307c11.95,0.472,24.317,0.72,36.982,0.72c102.185,0,185.021-16.13,185.021-36.027
			S356.186,68.589,254.002,68.589z"/>
	</g>
	<g>
		<path style="fill:#89C2E5;" d="M439.023,120.265c-7.079,0-12.965-5.112-14.166-11.846c-2.481-2.123-13.59-9.605-52.356-16.289
			c-32.783-5.652-74.866-8.765-118.499-8.765s-85.717,3.113-118.499,8.765c-38.767,6.684-49.875,14.167-52.356,16.289
			c-1.201,6.734-7.087,11.846-14.166,11.846c-7.948,0-14.391-6.443-14.391-14.391c0-11.036,7.668-20.248,22.793-27.38
			c41.549-19.591,130.306-23.911,176.619-23.911c47.055,0,135.275,4.418,176.619,23.911c15.124,7.132,22.793,16.343,22.793,27.38
			C453.414,113.822,446.971,120.265,439.023,120.265z"/>
	</g>
	<path style="fill:#96CC1F;" d="M254.002,140.644c-98.595,0-179.168-15.382-184.707-34.769H68.98v161.676
		c0,20.38,82.837,36.901,185.021,36.901c102.185,0,185.022-16.521,185.022-36.901V105.875h-0.315
		C433.169,125.262,352.597,140.644,254.002,140.644z"/>
	<path style="fill:#7FBC0A;" d="M438.708,143.16c-3.944,13.804-45.933,25.575-105.376,31.212c17.48,27.99,18.884,63.27,3.657,92.601
		c60.509-6.067,102.034-18.559,102.034-32.988V143.16H438.708z"/>
	<path style="fill:#7FBC0A;" d="M174.672,174.372c-59.444-5.636-101.434-17.408-105.377-31.212H68.98v90.825
		c0,14.428,41.525,26.921,102.035,32.988C155.809,237.683,157.167,202.403,174.672,174.372z"/>
	<path style="fill:#FECF2B;" d="M298.015,139.592c-28.829,1.403-59.199,1.403-88.027,0c-63.898,33.426-68.898,123.068-8.907,163.326
		c33.945,2.018,70.931,2.075,105.84,0C366.99,262.607,361.834,172.977,298.015,139.592z"/>
	<path style="fill:#F6AC2B;" d="M284.657,281.239c-0.202-5.27-3.589-9.878-8.611-11.489c-48.359-15.504-59.373-57.545-61.88-76.417
		c-0.677-5.103-4.513-9.131-9.512-10.362c-20.523-5.057-15.471-28.172-15.471-28.172l-0.021-0.572
		c-43.316,40.029-40.718,113.367,11.919,148.69c33.945,2.018,70.931,2.075,105.84,0l0,0
		C288.893,299.211,284.95,288.862,284.657,281.239z"/>
	<g>
		<path style="fill:#DEEEFA;" d="M254.002,157.166c-46.92,0-135.249-4.405-176.619-23.911c-15.124-7.132-22.793-16.343-22.793-27.38
			c0-7.948,6.443-14.391,14.391-14.391c7.079,0,12.965,5.112,14.166,11.846c2.481,2.122,13.59,9.605,52.356,16.289
			c32.782,5.653,74.866,8.765,118.499,8.765s85.717-3.113,118.499-8.765c38.767-6.684,49.875-14.167,52.356-16.289
			c1.201-6.734,7.087-11.846,14.166-11.846c7.948,0,14.391,6.443,14.391,14.391c0,11.036-7.669,20.248-22.793,27.38
			C389.071,152.845,300.321,157.166,254.002,157.166z"/>
	</g>
	
		<ellipse transform="matrix(0.9698 -0.244 0.244 0.9698 -6.9752 58.8862)" style="fill:#DEEEFA;" cx="234.251" cy="57.604" rx="185.021" ry="36.901"/>
	<path style="fill:#B8DCF2;" d="M187.922,69.258c-3.773-15.002,17.623-34.389,52.96-51.228c-5.164,1.205-10.376,2.465-15.633,3.788
		C126.152,46.746,49.848,82.976,54.819,102.74c4.972,19.764,89.336,15.578,188.434-9.35c5.257-1.322,10.445-2.678,15.565-4.06
		C219.72,91.215,191.696,84.26,187.922,69.258z"/>
	<circle style="fill:#F6AC2B;" cx="253.84" cy="224.726" r="57.418"/>
	<path style="fill:#F29A2B;" d="M276.046,269.751c-48.359-15.504-59.373-57.545-61.88-76.417c-0.345-2.603-1.516-4.923-3.24-6.737
		c-9.018,10.141-14.504,23.492-14.504,38.13c0,31.711,25.706,57.417,57.417,57.417c10.412,0,20.168-2.786,28.588-7.631
		C280.915,272.314,278.715,270.607,276.046,269.751z"/>
	<path style="fill:#F94862;" d="M312.643,227.552c-0.558-1.505-0.558-3.159,0-4.664l6.426-17.323
		c1.816-4.896-2.42-9.918-7.547-8.929c-10.01,1.931-19.119,6.388-26.652,12.673c-2.974,2.482-7.226,2.482-10.2,0
		c-10.275-8.573-23.48-13.744-37.909-13.744c-20.37,0-38.329,10.277-49.006,25.922c-1.529,2.241-1.529,5.224-0.001,7.464
		c10.676,15.646,28.636,25.924,49.007,25.924c14.429,0,27.634-5.171,37.909-13.744c2.975-2.482,7.226-2.482,10.2,0
		c7.533,6.285,16.641,10.742,26.652,12.673c5.128,0.989,9.364-4.034,7.547-8.929L312.643,227.552z"/>
	<g>
		<path style="fill:#B8DCF2;" d="M180.513,140.644c0-6.518,3.924-12.114,9.536-14.572c-19.831-1.484-38.33-3.656-54.547-6.452
			c-38.767-6.684-49.875-14.167-52.356-16.289c-1.201-6.734-7.087-11.847-14.166-11.847c-7.948,0-14.39,6.443-14.39,14.391
			c0,11.036,7.668,20.248,22.792,27.38c26.021,12.269,70.615,18.562,111.801,21.544C184.04,152.163,180.513,146.821,180.513,140.644
			z"/>
	</g>
	<path style="fill:#DEEEFA;" d="M453.508,305.721l-0.219-0.355c-3.886-6.304-11.187-8.557-17.434-5.484
		c-44.319,21.799-132.426,27.372-181.854,27.372c-49.213,0-137.467-5.539-181.854-27.372c-6.247-3.073-13.548-0.819-17.434,5.484
		l-0.219,0.355c-5.1,8.274-2.19,19.68,5.996,23.749c48.469,24.089,139.606,30.171,193.51,30.171
		c54.537,0,145.258-6.189,193.511-30.171C455.698,325.401,458.608,313.995,453.508,305.721z"/>
	<path style="fill:#B8DCF2;" d="M292.17,358.724l0.127-0.985l-1.79-1.571c-8.974-7.88-9.035-21.834-0.13-29.792l0,0
		c-13.363,0.619-25.762,0.877-36.376,0.877c-49.213,0-137.467-5.539-181.854-27.372c-6.247-3.073-13.548-0.819-17.434,5.484
		l-0.219,0.354c-5.1,8.274-2.19,19.68,5.996,23.749c48.469,24.089,139.606,30.17,193.511,30.17
		C265.385,359.64,278.349,359.369,292.17,358.724z"/>
	<path style="fill:#DEEEFA;" d="M453.508,274.267l-0.219-0.355c-3.886-6.304-11.187-8.557-17.434-5.484
		c-44.319,21.799-132.426,27.371-181.854,27.371c-49.213,0-137.467-5.539-181.854-27.371c-6.247-3.073-13.548-0.819-17.434,5.484
		l-0.219,0.355c-5.1,8.274-2.19,19.68,5.996,23.749c48.469,24.089,139.606,30.171,193.51,30.171
		c54.537,0,145.258-6.189,193.511-30.171C455.698,293.947,458.608,282.54,453.508,274.267z"/>
	<path style="fill:#B8DCF2;" d="M292.17,327.27l0.127-0.985l-1.79-1.571c-8.974-7.88-9.035-21.834-0.13-29.792l0,0
		c-13.363,0.619-25.762,0.877-36.376,0.877c-49.213,0-137.467-5.539-181.854-27.372c-6.247-3.073-13.548-0.819-17.434,5.484
		l-0.219,0.355c-5.1,8.274-2.19,19.68,5.996,23.749c48.469,24.089,139.606,30.17,193.511,30.17
		C265.385,328.186,278.349,327.915,292.17,327.27z"/>
</g>
<g>
</g>
<g>
</g>
<g>
</g>
<g>
</g>
<g>
</g>
<g>
</g>
<g>
</g>
<g>
</g>
<g>
</g>
<g>
</g>
<g>
</g>
<g>
</g>
<g>
</g>
<g>
</g>
<g>
</g>
</svg>
