<?xml version="1.0" encoding="iso-8859-1"?>
<!-- Generator: Adobe Illustrator 21.0.0, SVG Export Plug-In . SVG Version: 6.00 Build 0)  -->
<svg version="1.1" id="Capa_1" xmlns="http://www.w3.org/2000/svg" xmlns:xlink="http://www.w3.org/1999/xlink" x="0px" y="0px"
	 viewBox="0 0 512 512" style="enable-background:new 0 0 512 512;" xml:space="preserve">
<g>
	<path style="fill:#4ECDF9;" d="M245.002,10.998c-86.11,0-161.834,44.432-205.525,111.613l360.735,322.955
		c54.812-44.931,89.791-113.161,89.791-189.565C490.003,120.689,380.313,10.998,245.002,10.998z"/>
	<path style="fill:#ED3346;" d="M344.689,85.724c-0.196,0-0.398,0-0.596,0.001c-6.545,0.023-12.999,0.441-19.35,1.208
		c82.926,9.935,147.166,80.414,147.166,166.108c0,53.669-26.036,104.456-69.647,135.855c-38.4,27.645-43.069,69.486-43.46,84.106
		c16.275-8.553,31.475-18.874,45.332-30.723c5.43-17.3,16.355-37.642,38.219-53.382C485.964,357.497,512,306.71,512,253.041
		C512,160.521,437.122,85.724,344.689,85.724z"/>
	<path style="fill:#DB2640;" d="M446.355,385.922c-38.125,19.482-33.193-2.628-33.193-2.628c-1.195,0-2.308-0.062-3.358-0.169
		c-2.453,1.988-4.963,3.916-7.54,5.772c-38.4,27.645-43.069,69.486-43.46,84.106c16.275-8.553,31.475-18.874,45.332-30.723
		c5.43-17.3,16.355-37.642,38.219-53.382C443.704,387.923,445.038,386.931,446.355,385.922z"/>
	<path style="fill:#F94862;" d="M475.477,253.035c0-92.52-74.878-167.316-167.311-167.316c-0.196,0-0.398,0-0.596,0.001
		c-91.932,0.319-166.726,76.124-166.726,168.983v223.102c31.611,14.871,66.91,23.198,104.158,23.198
		c42.554,0,82.569-10.855,117.44-29.938c0.759-16.093,6.562-55.661,43.388-82.173C449.441,357.492,475.477,306.705,475.477,253.035z
		"/>
	<path style="fill:#ED3346;" d="M405.83,388.891c2.501-1.801,4.936-3.672,7.319-5.597c-14.847-0.005-18.165-8.745-18.69-14.756
		c-0.283-3.237-2.614-5.945-5.778-6.683c-30.193-7.039-33.016-29.642-32.421-41.008c0.188-3.592-2.249-6.769-5.728-7.683
		c-9.591-2.519-11.923-8.692-12.173-13.482c-0.174-3.321-2.405-6.233-5.636-7.021c-15.159-3.699-10.807-20.833-10.807-20.833
		L201.105,124.997c-36.795,31.043-60.26,77.697-60.26,129.705v223.102c31.611,14.871,66.909,23.198,104.158,23.198
		c42.554,0,82.569-10.856,117.44-29.938C363.201,454.971,369.003,415.403,405.83,388.891z"/>
	<path style="fill:#FF6683;" d="M308.164,113.124c-0.168,0-0.332,0-0.499,0.001c-76.874,0.267-139.416,63.778-139.416,141.577
		V480.55c0,2.793,0.138,5.563,0.407,8.304c24.028,7.873,49.686,12.148,76.346,12.148c31.759,0,62.107-6.044,89.956-17.043
		c0.065-1.697,0.097-3.408,0.062-5.144c-0.914-44.873,19.572-86.805,54.797-112.165c36.477-26.262,58.254-68.735,58.254-113.614
		C448.072,175.742,385.53,113.124,308.164,113.124z"/>
	<path style="fill:#F94862;" d="M335.021,478.815c-0.914-44.873,19.572-86.805,54.797-112.165c1.002-0.722,1.989-1.46,2.969-2.206
		c-1.026-1.263-2.446-2.201-4.105-2.588c-30.193-7.039-33.016-29.642-32.421-41.008c0.188-3.592-2.249-6.769-5.728-7.683
		c-9.591-2.519-11.923-8.692-12.173-13.482c-0.174-3.321-2.405-6.233-5.636-7.021c-15.159-3.699-10.807-20.833-10.807-20.833
		L218.506,146.146c-30.69,26.009-50.257,65.046-50.257,108.556V480.55c0,2.793,0.139,5.563,0.407,8.304
		c24.028,7.873,49.686,12.148,76.346,12.148c31.759,0,62.107-6.044,89.956-17.043C335.023,482.261,335.055,480.551,335.021,478.815z
		"/>
	<circle style="fill:#F94862;" cx="308.161" cy="248.002" r="82.323"/>
	<path style="fill:#ED3346;" d="M354.693,315.906c-1.018-1.309-2.463-2.296-4.161-2.742c-9.591-2.519-11.923-8.692-12.173-13.482
		c-0.174-3.321-2.405-6.233-5.636-7.021c-15.159-3.699-10.807-20.833-10.807-20.833l-69.464-84.424
		c-16.358,15.045-26.615,36.621-26.615,60.598c0,45.465,36.857,82.322,82.323,82.322
		C325.432,330.325,341.454,324.996,354.693,315.906z"/>
	<circle style="fill:#FF6683;" cx="308.161" cy="248.002" r="54.917"/>
	<path style="fill:#F94862;" d="M336.517,295.039c-0.969-1.144-2.263-2.004-3.793-2.377c-15.159-3.699-10.807-20.833-10.807-20.833
		l-52.009-63.211c-10.272,9.979-16.664,23.932-16.664,39.385c0,30.33,24.587,54.917,54.918,54.917
		C318.537,302.92,328.239,300.039,336.517,295.039z"/>
	
		<ellipse transform="matrix(0.866 -0.5 0.5 0.866 -82.7154 187.306)" style="fill:#FCEBBB;" cx="308.161" cy="248.002" rx="27.512" ry="27.512"/>
	<path style="fill:#FFDD71;" d="M298.697,253.466c-5.427-9.4-6.316-20.158-3.388-29.783c-0.303,0.16-0.606,0.32-0.905,0.492
		c-13.159,7.597-17.667,24.424-10.07,37.583c7.597,13.159,24.424,17.667,37.582,10.07c0.299-0.173,0.589-0.355,0.879-0.538
		C312.997,269.015,304.124,262.866,298.697,253.466z"/>
	<path style="fill:#ED3346;" d="M168.363,82.036c-0.157,0-0.318,0.001-0.475,0.001c-6.114,0.021-12.13,0.471-18.026,1.304
		c28.389,3.968,54.612,16.939,75.281,37.537c58.106,57.905,50.637,154.295-16.263,202.459
		c-20.895,15.044-33.042,40.079-32.495,66.969c0,0,0,0.011,0.001,0.017c0.016,0.852,0.022,1.707,0.015,2.563
		c-0.188,23.181-9.319,45.12-25.713,61.777c-6.938,7.049-14.515,12.595-22.457,16.774c5.156,2.801,10.425,5.42,15.796,7.853
		c15.69-3.469,30.895-11.435,43.878-24.626c16.394-16.656,25.525-38.596,25.713-61.777c0.007-0.856,0.001-1.712-0.015-2.563
		c-0.001-0.006-0.001-0.012-0.001-0.012c-0.547-26.896,11.6-51.931,32.495-66.974c66.9-48.164,74.368-144.554,16.263-202.459
		C237.214,95.818,203.852,82.036,168.363,82.036z"/>
	<path style="fill:#DB2640;" d="M213.618,392.887c0.007-0.856,0.001-1.712-0.015-2.563c-0.001-0.006-0.001-0.012-0.001-0.012
		c-0.454-22.325,7.844-43.361,22.625-58.472c-26.647,14.237-30.255-4.615-30.255-4.615c-0.679,0-1.325-0.025-1.957-0.061
		c-17.896,15.263-28.134,38.415-27.63,63.142c0,0,0,0.011,0.001,0.017c0.016,0.852,0.022,1.707,0.015,2.563
		c-0.189,23.181-9.319,45.12-25.713,61.776c-6.938,7.049-14.515,12.595-22.457,16.774c5.156,2.801,10.425,5.42,15.796,7.852
		c15.69-3.469,30.895-11.435,43.878-24.626C204.298,438.007,213.429,416.068,213.618,392.887z"/>
	<path style="fill:#F94862;" d="M129.237,471.968c8.316-4.235,16.245-9.953,23.481-17.305
		c16.394-16.656,25.525-38.596,25.713-61.777c0.007-0.856,0.001-1.712-0.015-2.563c-0.001-0.006-0.001-0.012-0.001-0.012
		c-0.547-26.896,11.6-51.931,32.495-66.974c66.9-48.164,74.369-144.554,16.263-202.459c-25.146-25.06-58.509-38.842-93.997-38.842
		c-0.157,0-0.318,0.001-0.475,0.001c-34.895,0.121-66.681,13.909-90.394,36.309C15.611,157.581,0,204.966,0,256
		C0,349.436,52.31,430.647,129.237,471.968z"/>
	<path style="fill:#ED3346;" d="M205.972,327.227l0-0.001c-14.204,0-17.838-8.281-18.617-14.229
		c-0.477-3.643-2.829-6.727-6.221-8.138c-22.621-9.415-23.609-27.383-22.077-37.545c0.61-4.043-1.142-8.148-4.667-10.219
		c-12.553-7.374-7.463-20.842-7.463-20.842l-26.607-48.145c-11.164-5.632-11.349-14.425-9.815-20.397
		c1.014-3.948-0.355-8.116-3.593-10.592c-16.17-12.365-15.597-26.501-13.468-34.467c0.991-3.708-0.315-7.628-3.228-10.127
		c-11.504-9.868-3.766-21.923-3.765-21.925c-16.512,6.28-31.479,15.784-44.143,27.746C15.611,157.581,0,204.966,0,256
		c0,93.437,52.31,174.647,129.237,215.969c8.316-4.235,16.245-9.953,23.481-17.305c16.394-16.656,25.525-38.596,25.713-61.776
		c0.007-0.856,0.001-1.712-0.015-2.563c-0.001-0.006-0.001-0.012-0.001-0.012C177.913,365.613,188.121,342.491,205.972,327.227z"/>
	<path style="fill:#FF6683;" d="M133.173,109.442c-0.126,0-0.251,0-0.377,0.001c-58.113,0.2-105.391,48.229-105.391,107.062v152.174
		c17.309,33.357,42.059,62.227,72.057,84.415c28.893-4.927,51.321-30.387,51.563-60.429c0.005-0.603,0.001-1.202-0.01-1.801
		c-0.732-35.9,15.673-69.459,43.882-89.768c27.576-19.853,44.039-51.961,44.039-85.889
		C238.937,156.771,191.651,109.442,133.173,109.442z"/>
	<path style="fill:#F94862;" d="M99.462,453.094c28.893-4.927,51.321-30.387,51.563-60.429c0.005-0.602,0.001-1.202-0.01-1.801
		c-0.648-31.783,12.144-61.723,34.659-82.267c-1.1-1.633-2.65-2.952-4.541-3.738c-22.621-9.415-23.609-27.383-22.077-37.545
		c0.61-4.043-1.142-8.148-4.667-10.219c-12.553-7.374-7.463-20.842-7.463-20.842l-26.607-48.145
		c-11.164-5.632-11.349-14.425-9.815-20.397c1.014-3.948-0.355-8.116-3.593-10.592c-16.17-12.365-15.597-26.501-13.468-34.467
		c0.476-1.783,0.41-3.611-0.099-5.31c-38.623,15.976-65.939,54.445-65.939,99.163v152.174
		C44.714,402.036,69.464,430.906,99.462,453.094z"/>
	<circle style="fill:#F94862;" cx="133.171" cy="212.426" r="54.917"/>
	<path style="fill:#ED3346;" d="M133.171,267.344c9.015,0,17.514-2.186,25.019-6.035c-0.808-1.722-2.091-3.21-3.8-4.213
		c-12.553-7.374-7.463-20.842-7.463-20.842l-26.607-48.145c-11.164-5.632-11.349-14.425-9.815-20.397
		c0.456-1.775,0.406-3.588-0.055-5.278c-18.988,8.644-32.196,27.77-32.196,49.994C78.254,242.757,102.841,267.344,133.171,267.344z"
		/>
	
		<ellipse transform="matrix(0.866 -0.5 0.5 0.866 -88.3714 95.0449)" style="fill:#FCEBBB;" cx="133.171" cy="212.426" rx="27.512" ry="27.512"/>
	<path style="fill:#FFDD71;" d="M123.708,217.89c-5.427-9.4-6.316-20.158-3.388-29.783c-0.303,0.16-0.606,0.32-0.905,0.493
		c-13.159,7.597-17.667,24.424-10.07,37.582c7.597,13.159,24.424,17.667,37.582,10.07c0.299-0.173,0.589-0.355,0.879-0.538
		C138.007,233.44,129.135,227.29,123.708,217.89z"/>
</g>
<g>
</g>
<g>
</g>
<g>
</g>
<g>
</g>
<g>
</g>
<g>
</g>
<g>
</g>
<g>
</g>
<g>
</g>
<g>
</g>
<g>
</g>
<g>
</g>
<g>
</g>
<g>
</g>
<g>
</g>
</svg>
