<?xml version="1.0" encoding="iso-8859-1"?>
<!-- Generator: Adobe Illustrator 21.0.0, SVG Export Plug-In . SVG Version: 6.00 Build 0)  -->
<svg version="1.1" id="Capa_1" xmlns="http://www.w3.org/2000/svg" xmlns:xlink="http://www.w3.org/1999/xlink" x="0px" y="0px"
	 viewBox="0 0 512 512" style="enable-background:new 0 0 512 512;" xml:space="preserve">
<g>
	<path style="fill:#7FBC0A;" d="M439.388,429.44c38.329-43.239,61.614-100.117,61.614-162.442
		c0-135.311-109.691-245.002-245.002-245.002S10.998,131.688,10.998,266.998c0,62.325,23.285,119.203,61.614,162.442H439.388z"/>
	<path style="fill:#8E4739;" d="M91.849,263.62c0-8.958,7.261-16.219,16.219-16.219h297.507c8.958,0,16.219,7.261,16.219,16.219
		c0,8.957-7.261,16.219-16.219,16.219H108.068C99.11,279.838,91.849,272.577,91.849,263.62z"/>
	<path style="fill:#8E4739;" d="M91.849,366.358c0-8.958,7.261-16.219,16.219-16.219h297.507c8.958,0,16.219,7.261,16.219,16.219
		c0,8.958-7.261,16.219-16.219,16.219H108.068C99.11,382.576,91.849,375.315,91.849,366.358z"/>
	<path style="fill:#823C33;" d="M166.849,263.62c0-8.958,7.261-16.219,16.219-16.219h-75c-8.958,0-16.219,7.261-16.219,16.219
		c0,8.958,7.261,16.218,16.219,16.218h75C174.11,279.838,166.849,272.577,166.849,263.62z"/>
	<path style="fill:#823C33;" d="M166.849,366.358c0-8.958,7.261-16.219,16.219-16.219h-75c-8.958,0-16.219,7.261-16.219,16.219
		c0,8.957,7.261,16.219,16.219,16.219h75C174.11,382.576,166.849,375.315,166.849,366.358z"/>
	<path style="fill:#B8DCF2;" d="M136.146,480.713C171.58,500.628,212.459,512,256,512c43.541,0,84.42-11.372,119.854-31.287H136.146
		z"/>
	<path style="fill:#89C2E5;" d="M186.541,480.713h-50.395c15.678,8.812,32.424,15.947,49.993,21.168
		C177.63,497.271,178.543,484.753,186.541,480.713z"/>
	<circle style="fill:#F94862;" cx="258.318" cy="79.204" r="37.875"/>
	<path style="fill:#ED3346;" d="M272.909,87.895c-12.859,0-23.283-10.424-23.283-23.283c0-10.638,7.137-19.603,16.882-22.385
		c-2.639-0.582-5.377-0.899-8.191-0.899c-20.917,0-37.874,16.957-37.874,37.875c0,20.918,16.957,37.875,37.874,37.875
		c20.918,0,37.875-16.957,37.875-37.875c0-2.814-0.316-5.552-0.898-8.191C292.512,80.758,283.547,87.895,272.909,87.895z"/>
	<g>
		<path style="fill:#975242;" d="M258.318,50.02c-4.8,0-8.691-3.891-8.691-8.691v-5.196C249.627,16.209,265.836,0,285.76,0
			c4.8,0,8.691,3.891,8.691,8.691s-3.891,8.691-8.691,8.691c-10.34,0-18.752,8.411-18.752,18.751v5.196
			C267.009,46.13,263.117,50.02,258.318,50.02z"/>
	</g>
	<path style="fill:#8E4739;" d="M384.54,160.798c0-8.958-7.261-16.219-16.219-16.219H143.679c-8.958,0-16.219,7.261-16.219,16.219
		c0,8.958,7.261,16.219,16.219,16.219h224.642C377.278,177.017,384.54,169.756,384.54,160.798z"/>
	<path style="fill:#975242;" d="M344.494,129.52c0-8.958-7.261-16.219-16.219-16.219h-144.55c-8.957,0-16.219,7.261-16.219,16.219
		c0,8.957,7.261,16.219,16.219,16.219h144.55C337.232,145.738,344.494,138.477,344.494,129.52z"/>
	<path style="fill:#823C33;" d="M187.951,160.798c0-8.958,7.261-16.219,16.219-16.219h-60.491c-8.958,0-16.219,7.261-16.219,16.219
		c0,8.958,7.261,16.219,16.219,16.219h60.491C195.212,177.017,187.951,169.756,187.951,160.798z"/>
	<path style="fill:#8E4739;" d="M227.998,129.52c0-8.958,7.261-16.219,16.219-16.219h-60.491c-8.958,0-16.219,7.261-16.219,16.219
		s7.261,16.219,16.219,16.219h60.491C235.259,145.738,227.998,138.477,227.998,129.52z"/>
	<path style="fill:#FCEBBB;" d="M96.399,452.877h319.202c8.798-7.561,17.049-15.737,24.695-24.459v-26.62
		c0-11.126-9.019-20.145-20.145-20.145H91.849c-11.126,0-20.145,9.019-20.145,20.145v26.62
		C79.35,437.14,87.602,445.316,96.399,452.877z"/>
	<path style="fill:#FCEBBB;" d="M91.849,278.915h328.302c11.126,0,20.145,9.019,20.145,20.145v30.934
		c0,11.126-9.019,20.145-20.145,20.145H91.849c-11.126,0-20.145-9.019-20.145-20.145V299.06
		C71.704,287.934,80.724,278.915,91.849,278.915z"/>
	<path style="fill:#FCEBBB;" d="M91.849,176.177h328.302c11.126,0,20.145,9.019,20.145,20.145v30.934
		c0,11.126-9.019,20.145-20.145,20.145H91.849c-11.126,0-20.145-9.019-20.145-20.145v-30.934
		C71.704,185.197,80.724,176.177,91.849,176.177z"/>
	<path style="fill:#FFDD71;" d="M167.807,432.732c0-9.579,0-21.353,0-30.934c0-11.125,9.018-20.144,20.143-20.145H91.849
		c-11.125,0-20.145,9.019-20.145,20.145v26.62c7.646,8.722,15.897,16.898,24.695,24.459h91.552
		C176.826,452.877,167.807,443.858,167.807,432.732z"/>
	<path style="fill:#FFDD71;" d="M167.807,329.994V299.06c0-11.125,9.019-20.145,20.145-20.145H91.849
		c-11.125,0-20.145,9.019-20.145,20.145v30.934c0,11.126,9.019,20.145,20.145,20.145h96.102
		C176.826,350.139,167.807,341.12,167.807,329.994z"/>
	<path style="fill:#FFDD71;" d="M167.807,227.256v-30.934c0-11.126,9.019-20.145,20.145-20.145H91.849
		c-11.125,0-20.145,9.019-20.145,20.145v30.934c0,11.126,9.019,20.145,20.145,20.145h96.102
		C176.826,247.401,167.807,238.382,167.807,227.256z"/>
	<path style="fill:#8E4739;" d="M324.317,255.469v61.061c0,8.957-7.261,16.219-16.219,16.219c-8.957,0-16.219-7.261-16.219-16.219
		v-20.306c0,8.957-7.261,16.219-16.219,16.219c-8.958,0-16.219-7.261-16.219-16.219v-40.755H324.317z"/>
	<path style="fill:#8E4739;" d="M264.094,160.798v61.061c0,8.957-7.261,16.219-16.219,16.219c-8.957,0-16.219-7.261-16.219-16.219
		v-20.306c0,8.957-7.261,16.218-16.219,16.218c-8.957,0-16.219-7.261-16.219-16.218v-40.755H264.094z"/>
	<path style="fill:#8E4739;" d="M384.54,350.139V411.2c0,8.957-7.261,16.219-16.219,16.219c-8.958,0-16.219-7.261-16.219-16.219
		v-20.306c0,8.957-7.261,16.219-16.219,16.219c-8.958,0-16.219-7.261-16.219-16.219v-40.755H384.54z"/>
	<path style="fill:#DEEEFA;" d="M140.356,483.03h231.288c16.196-8.688,31.304-19.137,45.061-31.103H95.295
		C109.052,463.893,124.16,474.342,140.356,483.03z"/>
	<g>
		<path style="fill:#B8DCF2;" d="M186.071,451.927H95.295c13.758,11.966,28.866,22.415,45.061,31.103h46.194
			c-2.668,0-5.283-0.708-7.613-2.009C164.224,472.803,170.496,451.927,186.071,451.927z"/>
	</g>
</g>
<g>
</g>
<g>
</g>
<g>
</g>
<g>
</g>
<g>
</g>
<g>
</g>
<g>
</g>
<g>
</g>
<g>
</g>
<g>
</g>
<g>
</g>
<g>
</g>
<g>
</g>
<g>
</g>
<g>
</g>
</svg>
