<?xml version="1.0" encoding="iso-8859-1"?>
<!-- Generator: Adobe Illustrator 21.0.0, SVG Export Plug-In . SVG Version: 6.00 Build 0)  -->
<svg version="1.1" id="Capa_1" xmlns="http://www.w3.org/2000/svg" xmlns:xlink="http://www.w3.org/1999/xlink" x="0px" y="0px"
	 viewBox="0 0 512 512" style="enable-background:new 0 0 512 512;" xml:space="preserve">
<g>
	<path style="fill:#FF7133;" d="M245.001,21.997C109.691,21.997,0,131.687,0,266.998c0,46.913,13.194,90.74,36.061,127.99l0,0
		l27.327,36.452c14.302,15.786,30.636,29.692,48.586,41.321l99.979,37.013c10.811,1.458,21.839,2.227,33.049,2.227
		c135.311,0,245.002-109.691,245.002-245.002S380.313,21.997,245.001,21.997z"/>
	<path style="fill:#FCEBBB;" d="M246.886,388.262c-13.62-3.847-26.14-11.076-36.28-20.947l-48.522,84.043
		c-2.725,4.719-8.527,6.544-13.55,4.431c-0.081-0.034-0.162-0.068-0.243-0.102c-11.513-4.72-25.024-0.852-32.332,9.219
		c-1.797,2.477-3.115,5.127-3.986,7.853c29.554,19.147,63.492,32.092,99.98,37.013c0.566-8.843-3.177-17.739-10.439-23.357
		c-0.071-0.054-0.142-0.109-0.213-0.163c-4.341-3.293-5.661-9.23-2.937-13.949L246.886,388.262z"/>
	<path style="fill:#FCEBBB;" d="M65.499,343.999l-29.438,50.989c7.981,13.001,17.136,25.204,27.327,36.453l38.391-66.495
		C88.159,361.099,75.639,353.869,65.499,343.999z"/>
	<g>
		<path style="fill:#FFDD71;" d="M82.382,398.541l19.397-33.596c-13.62-3.847-26.14-11.076-36.28-20.947l-19.291,33.413
			C62.038,366.616,84.023,378.827,82.382,398.541z"/>
	</g>
	<g>
		<path style="fill:#FFDD71;" d="M222.753,430.06l24.132-41.798c-13.62-3.847-26.141-11.076-36.28-20.947l-25.305,43.829
			C200.54,399.247,223.314,410.292,222.753,430.06z"/>
	</g>
	<path style="fill:#8E4739;" d="M266.471,394.494c34.922,0.358,65.474-7.806,82.444-43.15c4.1-8.54,10.719-15.629,19.125-19.997
		c36.994-19.223,44.155-8.522,82.484-59.949l53.772-69.126c-24.858,30.107-96.493,23.68-165.389-16.097
		c-68.896-39.777-110.279-98.601-96.635-135.182l-32.979,81.131c-25.373,58.908-12.525,59.758-10.675,101.408
		c0.42,9.464-2.41,18.74-7.756,26.561c-22.124,32.368-13.918,62.909,3.853,92.974C209.629,378.295,237.153,394.194,266.471,394.494z
		"/>
	<g>
		<path style="fill:#823C33;" d="M254.795,379.696c5.864-18.438,17.082-38.855,45.442-65.776
			c6.853-6.505,13.104-13.618,17.715-20.309c20.291-29.445,13.86-27.851,57.516-74.293l10.386-11.186
			c-15.401-5.563-31.244-12.891-46.946-21.957c-68.896-39.777-110.279-98.601-96.635-135.182l-32.979,81.131
			c-25.372,58.908-12.525,59.758-10.675,101.408c0.42,9.464-2.41,18.74-7.755,26.561c-22.124,32.369-13.918,62.909,3.853,92.974
			c12.784,21.628,34.838,36.388,59.343,40.353C252.72,390.232,252.914,385.612,254.795,379.696z"/>
	</g>
	
		<ellipse transform="matrix(0.5 -0.866 0.866 0.5 80.8762 386.5901)" style="fill:#975242;" cx="375.235" cy="123.254" rx="75.055" ry="151.819"/>
	<path style="fill:#8E4739;" d="M412.762,58.255c-72.614-41.924-148.281-46.809-169.007-10.91
		c-16.498,28.576,6.792,74.38,53.606,113.023c0-0.025-0.124-15.735,21.043-14.834c4.112,0.175,7.954-2.006,9.833-5.667
		c2.057-4.007,6.784-8.229,17.611-7.703c4.907,0.238,9.27-3.078,10.56-7.82c2.061-7.582,9.073-16.317,31.409-11.66
		c4.588,0.956,9.141-1.248,11.443-5.33c2.19-3.884,7.063-7.642,17.785-7.171c4.029,0.177,7.695-2.049,9.598-5.605
		c2.48-4.633,9.25-9.66,27.383-7.67C441.804,76.726,427.955,67.026,412.762,58.255z"/>
	
		<ellipse transform="matrix(0.5 -0.866 0.866 0.5 80.8761 386.59)" style="fill:#8E4739;" cx="375.235" cy="123.254" rx="46.931" ry="94.931"/>
	<path style="fill:#823C33;" d="M398.7,82.611c-45.405-26.215-92.719-29.269-105.679-6.822
		c-10.003,17.327,3.391,44.783,30.903,68.464c1.81-0.98,3.332-2.474,4.313-4.385c2.057-4.007,6.784-8.229,17.611-7.703
		c4.907,0.238,9.27-3.078,10.56-7.82c2.061-7.582,9.073-16.317,31.409-11.66c4.588,0.956,9.141-1.248,11.443-5.33
		c2.19-3.884,7.063-7.642,17.785-7.171c1.95,0.086,3.809-0.402,5.43-1.32C415.34,93.104,407.37,87.616,398.7,82.611z"/>
	
		<ellipse transform="matrix(0.5 -0.866 0.866 0.5 80.8762 386.59)" style="fill:#FCEBBB;" cx="375.235" cy="123.254" rx="19.592" ry="39.63"/>
	<path style="fill:#FFDD71;" d="M385.03,106.287c-18.955-10.943-38.706-12.218-44.116-2.848
		c-3.954,6.848,0.853,17.486,11.123,26.989c2.085-1.394,3.677-3.528,4.372-6.084c2.061-7.582,9.073-16.317,31.409-11.66
		c2.069,0.431,4.128,0.215,5.98-0.521C391.121,110.09,388.189,108.111,385.03,106.287z"/>
	<path style="fill:#975242;" d="M121.365,371.177c34.922,0.358,65.474-7.806,82.444-43.15c4.1-8.54,10.719-15.629,19.125-19.997
		c36.994-19.223,44.155-8.522,82.484-59.949l53.772-69.126c-24.858,30.107-96.493,23.68-165.389-16.097
		C124.905,123.081,83.522,64.257,97.166,27.676l-32.979,81.131c-25.373,58.908-12.526,59.759-10.675,101.408
		c0.42,9.464-2.41,18.74-7.756,26.561c-22.124,32.368-13.918,62.909,3.853,92.974C64.522,354.979,92.047,370.877,121.365,371.177z"
		/>
	<g>
		<path style="fill:#8E4739;" d="M102.591,360.338c-9.407-25.235-11.461-52.224,9.845-85.065c5.148-7.935,8.58-16.864,9.561-25.52
			c4.315-38.089-5.355-37.107,22.074-94.827l9.206-20.105C109.594,98.698,86.47,56.353,97.166,27.676l-32.979,81.131
			c-25.373,58.908-12.525,59.759-10.676,101.408c0.42,9.464-2.41,18.74-7.756,26.561c-22.124,32.368-13.918,62.909,3.853,92.974
			c12.492,21.133,33.833,35.712,57.663,40.068C105.447,366.941,103.873,363.778,102.591,360.338z"/>
	</g>
	
		<ellipse transform="matrix(0.5 -0.866 0.866 0.5 28.5156 249.2658)" style="fill:#AA6355;" cx="230.128" cy="99.938" rx="75.055" ry="151.819"/>
	<path style="fill:#975242;" d="M267.656,34.938C195.042-6.985,119.375-11.87,98.649,24.028
		c-16.498,28.576,6.792,74.38,53.606,113.024c0-0.025-0.123-15.735,21.043-14.834c4.112,0.175,7.954-2.006,9.833-5.668
		c2.057-4.007,6.784-8.229,17.611-7.703c4.907,0.238,9.271-3.078,10.56-7.82c2.061-7.582,9.073-16.317,31.409-11.66
		c4.588,0.957,9.141-1.248,11.443-5.33c2.19-3.884,7.063-7.642,17.785-7.171c4.029,0.177,7.695-2.049,9.598-5.605
		c2.48-4.633,9.25-9.66,27.383-7.67C296.697,53.41,282.848,43.71,267.656,34.938z"/>
	
		<ellipse transform="matrix(0.5 -0.866 0.866 0.5 28.5155 249.2657)" style="fill:#975242;" cx="230.128" cy="99.938" rx="46.931" ry="94.931"/>
	<path style="fill:#8E4739;" d="M253.594,59.294c-45.405-26.215-92.719-29.269-105.679-6.822
		c-10.003,17.327,3.391,44.783,30.903,68.464c1.81-0.98,3.332-2.474,4.313-4.386c2.057-4.007,6.784-8.229,17.611-7.703
		c4.907,0.238,9.271-3.078,10.56-7.82c2.061-7.582,9.073-16.317,31.409-11.66c4.588,0.957,9.141-1.248,11.443-5.33
		c2.19-3.884,7.063-7.642,17.785-7.171c1.95,0.086,3.809-0.402,5.43-1.32C270.233,69.788,262.263,64.299,253.594,59.294z"/>
	
		<ellipse transform="matrix(0.5 -0.866 0.866 0.5 28.5155 249.2657)" style="fill:#FCEBBB;" cx="230.128" cy="99.938" rx="19.592" ry="39.63"/>
	<path style="fill:#FFDD71;" d="M239.924,82.971c-18.955-10.943-38.706-12.218-44.116-2.848
		c-3.954,6.848,0.854,17.486,11.123,26.989c2.085-1.394,3.677-3.529,4.372-6.084c2.061-7.582,9.073-16.317,31.409-11.66
		c2.069,0.431,4.128,0.215,5.98-0.521C246.014,86.774,243.083,84.794,239.924,82.971z"/>
</g>
<g>
</g>
<g>
</g>
<g>
</g>
<g>
</g>
<g>
</g>
<g>
</g>
<g>
</g>
<g>
</g>
<g>
</g>
<g>
</g>
<g>
</g>
<g>
</g>
<g>
</g>
<g>
</g>
<g>
</g>
</svg>
