<?xml version="1.0" encoding="iso-8859-1"?>
<!-- Generator: Adobe Illustrator 21.0.0, SVG Export Plug-In . SVG Version: 6.00 Build 0)  -->
<svg version="1.1" id="Capa_1" xmlns="http://www.w3.org/2000/svg" xmlns:xlink="http://www.w3.org/1999/xlink" x="0px" y="0px"
	 viewBox="0 0 512 512" style="enable-background:new 0 0 512 512;" xml:space="preserve">
<g>
	<path style="fill:#4ECDF9;" d="M436.869,432.254c39.83-43.569,64.133-101.572,64.133-165.256
		c0-135.311-109.691-245.002-245.001-245.002c-135.311,0-245.002,109.691-245.002,245.002c0,63.684,24.303,121.687,64.133,165.256
		L436.869,432.254z"/>
	<circle style="fill:#F94862;" cx="256.701" cy="82.359" r="39.383"/>
	<path style="fill:#ED3346;" d="M271.874,91.396c-13.371,0-24.21-10.839-24.21-24.21c0-11.062,7.421-20.383,17.554-23.276
		c-2.744-0.605-5.592-0.934-8.518-0.934c-21.751,0-39.383,17.633-39.383,39.383c0,21.751,17.632,39.383,39.383,39.383
		c21.751,0,39.383-17.632,39.383-39.383c0-2.926-0.329-5.774-0.934-8.518C292.258,83.975,282.936,91.396,271.874,91.396z"/>
	<g>
		<path style="fill:#975242;" d="M256.701,52.013c-4.991,0-9.037-4.046-9.037-9.037v-5.403C247.664,16.855,264.519,0,285.237,0
			c4.991,0,9.037,4.046,9.037,9.037c0,4.992-4.046,9.037-9.037,9.037c-10.751,0-19.499,8.746-19.499,19.498v5.403
			C265.738,47.967,261.692,52.013,256.701,52.013z"/>
	</g>
	<path style="fill:#FF6683;" d="M159.991,159.747c26.324-7.085,59.695-11.323,96.009-11.323c36.315,0,69.686,4.238,96.009,11.323
		c3.251-3.34,5.033-6.903,5.033-10.609c0-18.797-45.238-34.035-101.042-34.035c-55.804,0-101.043,15.238-101.043,34.035
		C154.958,152.844,156.74,156.408,159.991,159.747z"/>
	<path style="fill:#F94862;" d="M260.477,115.138c-1.485-0.022-2.976-0.035-4.477-0.035c-55.804,0-101.042,15.238-101.042,34.035
		c0,3.706,1.782,7.269,5.033,10.609c18.76-5.049,41.111-8.642,65.545-10.295c4.294-2.873,6.466-8.07,5.583-13.357
		C228.691,121.566,258.004,115.614,260.477,115.138z"/>
	<path style="fill:#FCEBBB;" d="M121.465,223.027c36.849-8.054,83.622-12.876,134.535-12.876c50.912,0,97.686,4.822,134.535,12.876
		c12.352-7.463,19.399-16.058,19.399-25.209c0-28.637-68.918-51.851-153.934-51.851s-153.934,23.214-153.934,51.851
		C102.067,206.969,109.114,215.564,121.465,223.027z"/>
	<path style="fill:#FFDD71;" d="M102.067,197.818c0,9.151,7.047,17.746,19.399,25.209c23.002-5.028,49.873-8.796,79.203-10.918
		c3.372-3.809,4.437-9.301,2.314-14.186c-12.096-27.821,6.206-41.293,20.393-47.298c2.047-0.867,3.747-2.199,5.046-3.828
		C156.567,151.176,102.067,172.352,102.067,197.818z"/>
	<path style="fill:#FFDD71;" d="M66.701,294.257H445.3c16.517-8.301,25.898-17.81,25.898-27.917
		c0-32.39-96.347-58.648-215.198-58.648S40.802,233.95,40.802,266.34C40.802,276.447,50.184,285.955,66.701,294.257z"/>
	<path style="fill:#FECF2B;" d="M197.327,214.863c2.25-1.311,3.997-3.183,5.152-5.342c-92.957,6.484-161.677,29.464-161.677,56.819
		c0,10.107,9.381,19.616,25.898,27.917h112.091C148.556,251.352,178.986,225.556,197.327,214.863z"/>
	<path style="fill:#975242;" d="M453.127,343.492c2.664-15.233,15.03-17.157,15.03-17.157v-1.347c-50.3,0-375.055,0-424.317,0v1.347
		c0,0,12.366,1.925,15.03,17.157c0.007,0.04,0.016,0.072,0.024,0.113l15.328,87.65C119.055,480.84,183.887,512,256,512
		c72.113,0,136.945-31.16,181.779-80.746L453.127,343.492L453.127,343.492z"/>
	<g>
		<path style="fill:#8E4739;" d="M366.796,445.478H146.973c-30.614,0-58.127-13.938-76.521-35.777l3.769,21.553
			C119.055,480.84,183.887,512,256,512c72.114,0,136.945-31.16,181.779-80.746l3.324-19.008
			C422.753,432.617,396.204,445.478,366.796,445.478z"/>
	</g>
	<g>
		<path style="fill:#AA6355;" d="M468.157,326.335H43.843c-9.456,0-17.122-7.665-17.122-17.122c0-9.456,7.666-17.122,17.122-17.122
			h424.314c9.456,0,17.122,7.666,17.122,17.122C485.279,318.669,477.613,326.335,468.157,326.335z"/>
	</g>
	<g>
		<path style="fill:#BA756A;" d="M468.157,326.335H43.843c-9.456,0-17.122-7.665-17.122-17.122c0-9.456,7.666-17.122,17.122-17.122
			h424.314c9.456,0,17.122,7.666,17.122,17.122C485.279,318.669,477.613,326.335,468.157,326.335z"/>
	</g>
	<path style="fill:#AA6355;" d="M158.422,309.213c0-9.456,7.666-17.122,17.122-17.122h-131.7c-9.456,0-17.122,7.665-17.122,17.122
		c0,9.457,7.666,17.122,17.122,17.122h131.7C166.087,326.335,158.422,318.669,158.422,309.213z"/>
	<path style="fill:#8E4739;" d="M321.324,361.32c-13.777-0.562-17.4,62.644-17.978,76.4c-0.447,10.615-1.562,50.796,4.301,68.809
		c5.703-1.224,11.333-2.642,16.882-4.256c5.941-19.175,7.887-53.673,8.293-63.312C333.399,425.22,335.101,361.901,321.324,361.32z"
		/>
	<path style="fill:#8E4739;" d="M388.875,361.745c-13.707-1.497-21.808,61.223-23.366,74.928c-0.884,7.769-3.27,31.521-2.641,50.845
		c9.376-4.552,18.413-9.692,27.075-15.359C398.702,427.33,401.576,363.189,388.875,361.745z"/>
	<path style="fill:#8E4739;" d="M256,361.251c-13.789,0-14.751,63.336-14.751,77.089c0,11.806,0.71,60.141,9.632,73.595
		C252.584,511.97,254.289,512,256,512c1.712,0,3.416-0.03,5.12-0.065c8.922-13.454,9.632-61.79,9.632-73.595
		C270.752,424.588,269.789,361.251,256,361.251z"/>
	<path style="fill:#8E4739;" d="M190.676,361.32c-13.777,0.581-12.075,63.901-11.497,77.641c0.406,9.64,2.352,44.138,8.293,63.313
		c5.548,1.613,11.178,3.032,16.881,4.256c5.863-18.014,4.748-58.197,4.301-68.809C208.079,424.012,204.452,360.705,190.676,361.32z"
		/>
	<path style="fill:#8E4739;" d="M123.126,361.745c-12.711,1.445-9.83,65.586-1.067,110.415c8.662,5.667,17.698,10.806,27.075,15.359
		c0.628-19.322-1.758-43.073-2.642-50.845C144.937,422.998,136.829,360.207,123.126,361.745z"/>
	<path style="fill:#823C33;" d="M394.665,441.5c-14.286-11.178-30.051,3.972-30.057,3.978c-1.009,10.874-2.207,27.677-1.74,42.039
		c9.376-4.552,18.413-9.692,27.074-15.359C391.819,462.557,393.424,452.068,394.665,441.5z"/>
	<path style="fill:#823C33;" d="M332.489,445.478c-15.142-11.366-27.934-1.342-29.39-0.121c-0.379,15.886-0.33,46.189,4.547,61.171
		c5.703-1.224,11.333-2.642,16.881-4.255C329.502,486.219,331.675,459.432,332.489,445.478z"/>
	<path style="fill:#823C33;" d="M261.12,511.935c7.649-11.535,9.261-48.693,9.565-66.503c-15.706-11.49-29.352,0.031-29.369,0.045
		c0.307,17.828,1.922,54.932,9.564,66.458c1.703,0.035,3.408,0.065,5.12,0.065C257.712,512,259.416,511.97,261.12,511.935z"/>
	<path style="fill:#823C33;" d="M208.904,445.478c-14.499-14.498-29.387-0.005-29.392,0c0.814,13.955,2.987,40.741,7.961,56.795
		c5.548,1.613,11.178,3.032,16.881,4.255C209.218,491.583,209.279,461.395,208.904,445.478z"/>
	<path style="fill:#823C33;" d="M117.268,440.941c1.251,10.758,2.881,21.447,4.79,31.218c8.662,5.667,17.698,10.806,27.075,15.359
		c0.467-14.362-0.731-31.164-1.74-42.04h-0.42C130.341,428.846,117.27,440.939,117.268,440.941z"/>
</g>
<g>
</g>
<g>
</g>
<g>
</g>
<g>
</g>
<g>
</g>
<g>
</g>
<g>
</g>
<g>
</g>
<g>
</g>
<g>
</g>
<g>
</g>
<g>
</g>
<g>
</g>
<g>
</g>
<g>
</g>
</svg>
