<?xml version="1.0" encoding="iso-8859-1"?>
<!-- Generator: Adobe Illustrator 21.0.0, SVG Export Plug-In . SVG Version: 6.00 Build 0)  -->
<svg version="1.1" id="Capa_1" xmlns="http://www.w3.org/2000/svg" xmlns:xlink="http://www.w3.org/1999/xlink" x="0px" y="0px"
	 viewBox="0 0 512 512" style="enable-background:new 0 0 512 512;" xml:space="preserve">
<g>
	<path style="fill:#FECF2B;" d="M439.534,429.276c38.242-43.218,61.468-100.031,61.468-162.278
		c0-135.311-109.691-245.002-245.001-245.002c-135.311,0-245.002,109.691-245.002,245.002c0,62.246,23.226,119.06,61.468,162.278
		L439.534,429.276z"/>
	<path style="fill:#FFAA7B;" d="M193.181,370.96c26.127,19.38,61.346,18.817,62.759,18.784c1.492,0.034,36.686,0.606,62.826-18.784
		c0.742-0.551,1.539-0.999,2.369-1.357c-14.428-7.583-25.302-17.085-25.302-28.554c0-5.536,0-3.877,0-7.461
		c-9.651,8.628-26.202,19.621-39.833,19.951c-13.63-0.33-30.181-11.323-39.832-19.951c0,3.776,0,1.519,0,7.461
		c0,11.454-10.874,20.966-25.301,28.566C191.672,369.974,192.449,370.417,193.181,370.96z"/>
	<path style="fill:#FC9B6B;" d="M257.829,353.426c-0.614,0.055-1.226,0.098-1.829,0.113c-13.63-0.33-30.181-11.323-39.832-19.951
		c0,3.776,0,1.519,0,7.461c0,11.454-10.874,20.966-25.301,28.566c0.805,0.359,1.583,0.802,2.314,1.345
		c21.457,15.916,49.03,18.379,58.99,18.734C256.262,374.547,257.476,360.944,257.829,353.426z"/>
	<path style="fill:#B8DCF2;" d="M209.61,484.841c0-22.11,17.923-40.033,40.033-40.033h3.396c20.201,0,36.898-14.965,39.632-34.412
		c-10.926,2.93-23.215,4.848-36.699,4.848c-48.868-0.001-82.133-25.113-91.164-32.809c-0.287-0.245-0.32-0.551-0.314-0.712
		c0.006-0.162,0.061-0.466,0.367-0.692l1.388-1.021c-22.989,7.964-45.404,12.072-46.149,12.391
		c-11.034,2.119-34.491,9.513-49.406,34.875c35.298,40.774,83.831,69.768,138.915,80.326V484.841z"/>
	<path style="fill:#DEEEFA;" d="M391.9,392.401c-1.089-0.475-27.99-5.395-53.046-14.931c-17.517,15.387-37.255,22.607-51.815,25.991
		v1.898c0,21.041-17.057,38.098-38.098,38.098h-3.233c-21.042,0-38.098,17.057-38.098,38.099v25.655
		C223.254,510.346,239.433,512,256,512c74.025,0,140.382-32.83,185.306-84.724C426.391,401.914,402.934,394.52,391.9,392.401z"/>
	<circle style="fill:#89C2E5;" cx="243.324" cy="481.87" r="12.651"/>
	<path style="fill:#734438;" d="M361.011,251.634l-12.466-53.283c-2.071,0.344-4.252,0.217-6.385-0.479
		c-54.568-17.811-112.316-18.009-167.008-0.577l-7.329,2.336c-1.363,0.434-2.744,0.641-4.102,0.641
		c-0.237,0-0.473-0.016-0.708-0.028l-12.023,51.39c-9.456,35.315,17.156,69.989,53.714,69.989c14.672,0,87.942,0,102.593,0
		C343.855,321.623,370.467,286.949,361.011,251.634z"/>
	<path style="fill:#FFAA7B;" d="M178.712,257.231c0,0-4.791-30.32,0.727-48.376c-5.007-3.337-14.68-4.967-19.03-0.714
		c-8.907,8.708-2.381,21.857,0.742,30.163c0.959,2.55,1.577,5.13,1.857,7.714c0.608,5.615,3.652,13.834,16.276,13.64
		C179.094,258.85,178.899,258.054,178.712,257.231z"/>
	<g>
		<path style="fill:#FC9B6B;" d="M176.816,234.486c-2.185,1.636-4.888,2.617-7.826,2.617c-4.126,0-7.8-1.914-10.198-4.898
			c0.817,2.202,1.671,4.269,2.36,6.1c0.958,2.55,1.577,5.13,1.857,7.714c0.608,5.615,3.652,13.834,16.276,13.64
			c-0.191-0.809-0.386-1.605-0.572-2.428C178.713,257.231,177.062,246.774,176.816,234.486z"/>
	</g>
	<path style="fill:#FFAA7B;" d="M351.591,208.141c-4.35-4.253-14.024-2.624-19.03,0.714c5.518,18.057,0.727,48.376,0.727,48.376
		c-0.186,0.822-0.382,1.619-0.573,2.428c12.624,0.194,15.668-8.025,16.276-13.64c0.28-2.584,0.898-5.164,1.857-7.714
		C353.972,229.999,360.498,216.849,351.591,208.141z"/>
	<g>
		<path style="fill:#FC9B6B;" d="M343.01,237.102c-2.939,0-5.642-0.981-7.826-2.617c-0.247,12.288-1.897,22.746-1.897,22.746
			c-0.186,0.822-0.382,1.619-0.573,2.428c12.624,0.194,15.668-8.025,16.276-13.64c0.28-2.584,0.898-5.164,1.857-7.714
			c0.689-1.831,1.542-3.898,2.359-6.1C350.81,235.188,347.136,237.102,343.01,237.102z"/>
	</g>
	<path style="fill:#FFBB99;" d="M325.513,192.536c-0.159-5.328-0.989-15.009-4.559-24.35c-43.029-9.369-87.242-9.081-130.228,0.864
		c-3.298,9.069-4.088,18.322-4.242,23.486c-0.074,2.481-1.074,4.875-2.894,6.925c-10.028,11.301-7.832,44.316-5.492,57.909
		c5.181,22.87,12.687,42.812,22.305,59.273c9.764,16.711,24.552,29.707,42.763,37.586c8.157,3.528,17.51,3.528,25.665,0
		c18.211-7.879,32.999-20.876,42.763-37.586c9.617-16.456,17.122-36.399,22.315-59.314c2.248-14.289,4.641-46.438-5.502-57.868
		C326.587,197.411,325.587,195.016,325.513,192.536z"/>
	<g>
		<path style="fill:#FFAA7B;" d="M244.12,312.089c-6.515-18.324-11.598-40.523-15.107-65.982
			c-1.585-15.131-3.072-51.884,3.72-64.464c1.232-2.282,1.91-4.947,1.96-7.709c0.053-2.925,0.219-7.03,0.662-11.685
			c-14.956,1.137-29.865,3.386-44.628,6.801c-3.299,9.069-4.088,18.322-4.242,23.486c-0.074,2.481-1.074,4.875-2.894,6.925
			c-10.028,11.301-7.832,44.316-5.493,57.909c5.181,22.87,12.687,42.812,22.305,59.273c9.764,16.711,24.551,29.707,42.763,37.586
			c8.157,3.528,17.51,3.528,25.665,0c0.976-0.422,1.937-0.866,2.893-1.318C260.015,344.061,250.487,329.999,244.12,312.089z"/>
	</g>
	<path style="fill:#B8DCF2;" d="M160.461,177.639l6.493-2.069c59.735-19.042,122.791-18.936,182.439,0.274
		c-1.944-16.659-2.632-43.43,7.608-67.428c-4.52,1.427-9.328,2.204-14.319,2.204c-10.244,0-19.731-3.241-27.491-8.754
		c-2.51-1.783-5.983-1.175-7.878,1.251c-11.911,15.253-30.46,25.067-51.312,25.067c-20.852,0-39.402-9.814-51.312-25.067
		c-1.895-2.426-5.368-3.034-7.878-1.251c-7.76,5.513-17.247,8.754-27.491,8.754c-5.833,0-11.417-1.059-16.58-2.982
		C163.715,132.714,162.582,160.986,160.461,177.639z"/>
	<path style="fill:#89C2E5;" d="M223.255,119.342c-7.174-4.19-13.478-9.709-18.567-16.226c-1.895-2.426-5.368-3.034-7.878-1.251
		c-7.76,5.513-17.247,8.754-27.491,8.754c-5.833,0-11.417-1.059-16.58-2.982c10.977,25.076,9.843,53.348,7.722,70.001l6.493-2.069
		c20.387-6.499,41.161-10.763,62.054-12.803C228.374,144.674,226.039,130.341,223.255,119.342z"/>
	<path style="fill:#ED3346;" d="M166.954,175.57c59.735-19.042,122.792-18.936,182.439,0.274
		c-0.714-6.118-1.256-13.603-1.152-21.811c-59.308-18.842-121.937-18.829-181.287,0.09l-5.109,1.628
		c0.015,8.344-0.618,15.875-1.384,21.888L166.954,175.57z"/>
	<path style="fill:#DB2640;" d="M227.347,141.496c-20.333,2.1-40.547,6.301-60.394,12.627l-5.109,1.628
		c0.015,8.344-0.618,15.875-1.384,21.888l6.493-2.069c20.387-6.499,41.161-10.763,62.054-12.803
		C228.736,154.993,228.149,147.915,227.347,141.496z"/>
	<g>
		<path style="fill:#DEEEFA;" d="M163.721,202.272c-5.721,0-11.03-3.664-12.86-9.405c-2.263-7.104,1.661-14.698,8.765-16.962
			l7.328-2.335c60.116-19.163,123.599-18.943,183.583,0.635c7.088,2.313,10.959,9.935,8.646,17.022
			c-2.314,7.088-9.939,10.958-17.022,8.646c-54.568-17.811-112.316-18.009-167.008-0.577l-7.329,2.336
			C166.46,202.065,165.079,202.272,163.721,202.272z"/>
	</g>
	<g>
		<path style="fill:#ED3346;" d="M347.976,379.823l-13.63-10.027c-4.896-3.602-11.592-3.663-16.473-0.042
			c-22.445,16.649-52.074,18.334-59.91,18.481c14.072,0.255,26.008,11.523,27.102,25.499c33.611-7.003,56.14-24.272,63.047-30.158
			C349.289,382.573,349.221,380.74,347.976,379.823z"/>
	</g>
	<g>
		<path style="fill:#DB2640;" d="M257.964,388.236c14.071,0.255,26.008,11.523,27.101,25.499
			c10.699-2.231,20.282-5.495,28.589-9.109c-0.749,0.115-1.509,0.192-2.29,0.192c-8.321,0-15.066-6.745-15.066-15.066
			c0-3.922,1.511-7.483,3.967-10.163C282.058,387.136,263.865,388.123,257.964,388.236z"/>
	</g>
	<path style="fill:#F94862;" d="M286.155,413.515c0-14.414-12.002-25.89-26.405-25.332c-20.982,0.813-47.661-5.066-65.675-18.428
		c-4.881-3.621-11.577-3.56-16.473,0.042l-13.63,10.027c-1.246,0.917-1.313,2.75-0.136,3.754
		C195.015,410.146,241.074,423.27,286.155,413.515L286.155,413.515z"/>
	<g>
		<path style="fill:#B8DCF2;" d="M220.673,173.72c0-5.469,2.945-10.238,7.326-12.846c-20.553,2.079-40.986,6.303-61.044,12.697
			l-7.328,2.335c-7.104,2.264-11.027,9.857-8.765,16.962c1.83,5.741,7.14,9.405,12.86,9.405c1.357,0,2.738-0.207,4.102-0.641
			l7.329-2.336c18.195-5.799,36.73-9.636,55.373-11.533C224.782,185.675,220.673,180.184,220.673,173.72z"/>
	</g>
	<path style="fill:#DEEEFA;" d="M390.093,61.723c-1.646-23.883-21.313-43.04-45.228-44.11c-11.064-0.495-21.34,2.794-29.643,8.682
		c-2.524,1.79-6.003,1.213-7.907-1.225C295.404,9.816,276.853,0,256,0c-20.854,0-39.404,9.816-51.315,25.07
		c-1.904,2.439-5.383,3.015-7.907,1.225c-8.303-5.888-18.58-9.178-29.643-8.682c-23.915,1.071-43.582,20.228-45.228,44.11
		c-1.914,27.772,20.048,50.897,47.411,50.897c10.244,0,19.731-3.241,27.491-8.754c2.51-1.783,5.983-1.175,7.878,1.251
		c11.911,15.253,30.46,25.067,51.312,25.067c20.852,0,39.401-9.814,51.312-25.067c1.895-2.427,5.368-3.034,7.878-1.251
		c7.761,5.513,17.247,8.754,27.491,8.754C370.045,112.62,392.007,89.495,390.093,61.723z"/>
	<g>
		<path style="fill:#B8DCF2;" d="M185.247,65.092c0-14.701,5.855-28.028,15.349-37.8c-1.312,0.123-2.664-0.178-3.818-0.996
			c-8.304-5.888-18.58-9.178-29.643-8.682c-23.916,1.071-43.583,20.228-45.228,44.11c-1.914,27.772,20.048,50.897,47.411,50.897
			c10.244,0,19.731-3.241,27.491-8.754c1.141-0.811,2.48-1.104,3.781-0.98C191.1,93.114,185.247,79.79,185.247,65.092z"/>
	</g>
</g>
<g>
</g>
<g>
</g>
<g>
</g>
<g>
</g>
<g>
</g>
<g>
</g>
<g>
</g>
<g>
</g>
<g>
</g>
<g>
</g>
<g>
</g>
<g>
</g>
<g>
</g>
<g>
</g>
<g>
</g>
</svg>
