<?xml version="1.0" encoding="iso-8859-1"?>
<!-- Generator: Adobe Illustrator 21.0.0, SVG Export Plug-In . SVG Version: 6.00 Build 0)  -->
<svg version="1.1" id="Capa_1" xmlns="http://www.w3.org/2000/svg" xmlns:xlink="http://www.w3.org/1999/xlink" x="0px" y="0px"
	 viewBox="0 0 512 512" style="enable-background:new 0 0 512 512;" xml:space="preserve">
<g>
	<path style="fill:#1D3260;" d="M224.036,509.925C234.499,511.288,245.166,512,256,512c10.834,0,21.501-0.711,31.964-2.075
		l147.861-76.551c40.445-43.693,65.176-102.142,65.176-166.376c0-135.311-109.691-245.002-245.001-245.002
		c-135.311,0-245.002,109.691-245.002,245.002c0,64.234,24.731,122.683,65.176,166.376L224.036,509.925z"/>
	<path style="fill:#ED3346;" d="M411.768,456.093c35.686-62.044,64.286-140.566,64.286-235.548
		c0-144.125-103.195-189.552-168.249-203.871c-33.51-7.376-70.092-7.378-103.612,0C139.141,30.993,35.946,76.421,35.946,220.546
		c0,94.982,28.6,173.503,64.286,235.548c32.233,26.584,71.37,45.097,114.329,52.415C194.739,430.622,168.809,283.42,256,283.42
		s61.261,147.202,41.439,225.089C340.398,501.19,379.535,482.678,411.768,456.093z"/>
	<path style="fill:#DB2640;" d="M274.21,135.057c-0.948,9.221-8.738,16.413-18.21,16.413c-9.471,0-17.262-7.192-18.21-16.413H50.958
		c-9.41,23.714-15.012,51.922-15.012,85.489c0,94.982,28.6,173.503,64.286,235.548c32.233,26.584,71.37,45.097,114.329,52.415
		C194.739,430.622,168.808,283.42,256,283.42s61.261,147.202,41.439,225.089c42.958-7.318,82.096-25.831,114.329-52.415
		c35.686-62.044,64.286-140.566,64.286-235.548c0-33.567-5.602-61.776-15.012-85.489H274.21z"/>
	<path style="fill:#F94862;" d="M137.822,40.49C85.656,68.029,35.946,120.514,35.946,220.546c0,94.982,28.6,173.503,64.286,235.547
		c32.233,26.584,71.37,45.097,114.329,52.416c-18.518-72.76-42.365-206.013,25.664-223.235
		c-52.059-14.094-61.365-84.138-14.635-111.221c9.328-5.406,15.256-15.184,15.256-25.965v-45.169
		C240.846,49.834,184.205,16.004,137.822,40.49z"/>
	<path style="fill:#F94862;" d="M411.768,456.093c35.686-62.044,64.286-140.566,64.286-235.548
		c0-100.031-49.71-152.516-101.876-180.056C327.787,16,271.154,49.843,271.154,102.92v44.95c0,10.652,5.543,20.661,14.805,25.924
		c47.309,26.88,37.96,97.474-14.145,111.49c67.98,17.264,44.138,150.479,25.625,223.225
		C340.398,501.19,379.535,482.678,411.768,456.093z"/>
	<circle style="fill:#DEEEFA;" cx="256" cy="226.637" r="30.427"/>
	<path style="fill:#FF6683;" d="M240.846,126.282c-0.435,0.001-0.874,0.024-1.317,0.095c-23.752,3.761-47.447,15.995-65.01,33.565
		c-19.025,19.033-29.503,42.719-29.503,66.695c0,40.047,32.723,72.696,60.745,88.487c0.03,0.017,0.061,0.027,0.091,0.044
		c2.498-5.283,5.486-10.036,9.018-14.164c-0.268-0.196-0.546-0.382-0.842-0.549c-38.51-21.7-52.174-53.327-52.174-73.818
		c0-33.798,30.168-75.008,78.992-83.391V126.282z"/>
	<path style="fill:#FF6683;" d="M366.027,226.637c0-23.787-10.362-47.336-29.178-66.309c-17.333-17.479-40.766-29.786-64.291-33.765
		c-0.472-0.08-0.941-0.11-1.404-0.111v16.982c48.235,8.85,78.035,49.846,78.035,83.203c0,32.342-27.762,59.78-51.536,73.45
		c-0.291,0.167-0.564,0.353-0.827,0.548c3.57,4.098,6.582,8.839,9.111,14.102c0.035-0.02,0.073-0.033,0.108-0.053
		C333.715,298.775,366.027,266.169,366.027,226.637z"/>
	<path style="fill:#FF6683;" d="M240.846,102.919c0-3.281-0.218-6.488-0.635-9.612c-0.044,0.003-0.086,0.001-0.13,0.005
		c-37.605,3.341-72.419,18.553-98.031,42.834c-26.103,24.746-40.479,56.884-40.479,90.492c0,53.557,36.596,101.874,93.234,123.095
		c0.561,0.21,1.13,0.349,1.7,0.436c0.722-5.811,1.717-11.387,3.01-16.675c-49.309-18.954-81.106-60.765-81.106-106.856
		c0-28.94,12.51-56.737,35.225-78.272c22.704-21.524,53.654-35.066,87.212-38.202V102.919z"/>
	<path style="fill:#FF6683;" d="M410.43,226.637c0-33.609-14.376-65.746-40.48-90.493c-25.612-24.28-60.426-39.491-98.031-42.833
		c-0.044-0.004-0.087-0.002-0.13-0.005c-0.417,3.125-0.635,6.332-0.635,9.613v7.243c33.559,3.135,64.509,16.678,87.212,38.201
		c22.716,21.535,35.226,49.333,35.226,78.273c0,46.091-31.797,87.901-81.107,106.856c1.294,5.288,2.288,10.863,3.011,16.675
		c0.57-0.086,1.139-0.226,1.7-0.436C373.833,328.512,410.43,280.193,410.43,226.637z"/>
	<path style="fill:#FF6683;" d="M225.001,58.371c-46.186,5.996-88.609,25.429-119.885,55.008
		c-32.972,31.181-51.129,71.404-51.129,113.258c0,73.711,55.748,138.711,138.721,161.74c0.753,0.209,1.511,0.309,2.256,0.309
		c0.063,0,0.125-0.014,0.188-0.015c-0.214-5.812-0.268-11.541-0.143-17.149c-74.376-21.5-124.184-79.474-124.184-144.884
		c0-76.656,69.071-142.041,160.665-152.088c1.102-0.12,2.127-0.454,3.048-0.947C232.004,68.067,228.782,62.962,225.001,58.371z"/>
	<path style="fill:#FF6683;" d="M458.013,226.637c0-41.855-18.158-82.077-51.129-113.258
		c-31.276-29.578-73.698-49.011-119.885-55.008c-3.781,4.591-7.003,9.695-9.537,15.232c0.921,0.492,1.947,0.826,3.048,0.947
		c91.594,10.047,160.665,75.431,160.665,152.088c0,65.41-49.809,123.384-124.185,144.884c0.125,5.608,0.072,11.337-0.142,17.149
		c0.063,0.001,0.124,0.015,0.187,0.015c0.745,0,1.504-0.1,2.257-0.309C402.266,365.348,458.013,300.35,458.013,226.637z"/>
	<g>
		<path style="fill:#FF6683;" d="M314.011,431.468c-3.884,0-7.376-2.704-8.223-6.655c-0.976-4.547,1.919-9.023,6.466-9.997
			c63.752-13.676,116.866-49.83,145.72-99.195c2.347-4.013,7.504-5.367,11.517-3.019c4.014,2.346,5.366,7.503,3.02,11.517
			c-31.236,53.438-88.36,92.496-156.726,107.16C315.19,431.406,314.596,431.468,314.011,431.468z"/>
	</g>
	<g>
		<path style="fill:#FF6683;" d="M305.936,480.002c-4.064,0-7.64-2.949-8.303-7.089c-0.735-4.592,2.391-8.909,6.983-9.645
			c44.097-7.056,85.778-23.911,120.535-48.741c3.783-2.705,9.041-1.828,11.744,1.957c2.703,3.783,1.827,9.042-1.956,11.744
			c-36.864,26.336-81.009,44.202-127.662,51.668C306.827,479.967,306.378,480.002,305.936,480.002z"/>
	</g>
	<path style="fill:#ED3346;" d="M423.918,61.666C371.561,13.58,283.226-12.212,201.781,5.712h-0.001
		C93.438,29.559,24.721,101.99,24.721,220.546c0,76.533,17.877,146.5,49.705,210.923c14.587,16.095,31.282,30.244,49.653,42.007
		c-48.762-75.653-76.908-159.185-76.908-252.93c0-105.908,59.277-170.861,159.436-192.908
		c74.575-16.413,155.256,7.517,202.125,50.562c37.223,34.187,56.097,82.078,56.097,142.345c0,93.861-28.216,177.387-76.908,252.93
		c18.371-11.763,35.065-25.911,49.652-42.006c31.865-64.497,49.706-134.466,49.706-210.924
		C487.28,153.734,465.962,100.279,423.918,61.666z"/>
	<path style="fill:#ED3346;" d="M309.68,506.091c25.254-101.28,38.342-233.897-53.68-233.897
		c-92.098,0-78.882,132.819-53.679,233.897c7.953,1.778,16.05,3.175,24.274,4.158c-21.919-84.178-42.45-215.605,29.405-215.605
		c71.853,0,51.328,131.414,29.406,215.605C293.63,509.266,301.727,507.869,309.68,506.091z"/>
	<path style="fill:#ED3346;" d="M209.97,307.65c-5.702-4.45-5.019-12.79-5.019-12.79C65.092,282.508,73.536,114.761,73.536,114.761
		c-5.518,1.931-9.589,1.031-12.548-0.907c-15.333,27.583-25.042,62.494-25.042,106.692c0,94.982,28.6,173.503,64.286,235.547
		c32.233,26.584,71.37,45.097,114.329,52.416C199.694,450.093,181.404,352.7,209.97,307.65z"/>
	<path style="fill:#F94862;" d="M204.952,294.86c-12.04-1.063-22.98-3.279-32.922-6.439c10.31,11.158,22.983,20.795,33.821,26.747
		c1.137-2.404,2.649-5.195,4.119-7.518C204.268,303.2,204.952,294.86,204.952,294.86z"/>
	<path style="fill:#F94862;" d="M194.804,349.732c0.561,0.21,1.13,0.349,1.7,0.435c0.33-3.219,1.453-10.225,3.01-16.675
		c-36.862-14.17-63.932-41.115-75.252-73.072c-9.016-8.558-16.443-18.186-22.556-28.313
		C104.105,283.464,140.103,329.237,194.804,349.732z"/>
	<path style="fill:#F94862;" d="M195.009,371.522c-74.375-21.5-124.184-79.474-124.184-144.884c0-16.848,3.339-33.151,9.519-48.443
		c-2.372-9.946-3.942-19.411-4.977-27.852c-13.954,23.478-21.38,49.551-21.38,76.295c0,73.711,55.748,138.711,138.721,161.74
		c0.91,0.253,1.62,0.313,2.444,0.294C194.965,383.659,194.878,377.02,195.009,371.522z"/>
	<g>
		<path style="fill:#F94862;" d="M197.989,436.819c-0.585,0-1.178-0.064-1.774-0.198c-68.366-15.318-125.49-56.118-156.726-111.938
			c-2.346-4.193-0.994-9.58,3.02-12.03c4.013-2.453,9.171-1.039,11.517,3.154c28.855,51.566,81.968,89.333,145.72,103.618
			c4.547,1.018,7.442,5.693,6.466,10.443C205.365,433.994,201.873,436.819,197.989,436.819z"/>
	</g>
	<g>
		<path style="fill:#F94862;" d="M206.064,487.517c-0.442,0-0.89-0.036-1.341-0.111c-46.654-7.799-90.799-26.462-127.662-53.972
			c-3.783-2.824-4.659-8.316-1.956-12.267c2.703-3.953,7.96-4.87,11.744-2.044c34.756,25.938,76.436,43.544,120.534,50.915
			c4.591,0.768,7.718,5.278,6.983,10.075C213.704,484.437,210.127,487.517,206.064,487.517z"/>
	</g>
	<path style="fill:#DB2640;" d="M73.536,114.761L73.536,114.761c-15.259,5.339-19.498-10.917-19.547-11.11
		C35.046,135.597,24.72,174.605,24.72,220.546c0,76.533,17.877,146.499,49.706,210.923c14.587,16.096,31.282,30.244,49.653,42.007
		c-48.762-75.653-76.907-159.185-76.907-252.93C47.172,178.915,56.336,143.617,73.536,114.761z"/>
	<path style="fill:#DB2640;" d="M222.3,310.17c-0.007,0.001-0.013,0-0.02,0.001c-18.643,2.265-17.348-15.059-17.329-15.3
		c-33.621,42.254-21.481,135.613-2.63,211.221c7.953,1.778,16.05,3.175,24.274,4.158C209.244,443.616,192.775,347.392,222.3,310.17z
		"/>
</g>
<g>
</g>
<g>
</g>
<g>
</g>
<g>
</g>
<g>
</g>
<g>
</g>
<g>
</g>
<g>
</g>
<g>
</g>
<g>
</g>
<g>
</g>
<g>
</g>
<g>
</g>
<g>
</g>
<g>
</g>
</svg>
