<?xml version="1.0" encoding="iso-8859-1"?>
<!-- Generator: Adobe Illustrator 21.0.0, SVG Export Plug-In . SVG Version: 6.00 Build 0)  -->
<svg version="1.1" id="Capa_1" xmlns="http://www.w3.org/2000/svg" xmlns:xlink="http://www.w3.org/1999/xlink" x="0px" y="0px"
	 viewBox="0 0 512 512" style="enable-background:new 0 0 512 512;" xml:space="preserve">
<g>
	<path style="fill:#FF7133;" d="M245.002,10.998c-48.913,0-94.474,14.341-132.721,39.037h0l-61.373,56.461v0
		c-5.319,6.895-10.283,14.077-14.855,21.527l0,0L19.781,159.43l0,0C7.057,189.064,0,221.706,0,256
		c0,29.83,5.337,58.412,15.099,84.851h459.806c9.761-26.439,15.099-55.021,15.099-84.851
		C490.004,120.689,380.313,10.998,245.002,10.998z"/>
	<path style="fill:#284270;" d="M102.182,455.077c40.209,28.898,89.524,45.924,142.82,45.924s102.61-17.027,142.82-45.924H102.182z"
		/>
	<g>
		<path style="fill:#1D3260;" d="M199.747,455.077h-97.565c27.389,19.684,59.005,33.853,93.224,40.892
			C171.202,490.837,174.907,455.077,199.747,455.077z"/>
	</g>
	<path style="fill:#FCEBBB;" d="M50.909,106.496c6.761,4.381,15.693,4.643,22.704,0.28c0.058-0.036,0.116-0.072,0.173-0.109
		c3.575-2.27,8.258-1.624,10.957,1.64l37.764,45.65c2.79-4.293,6.19-8.26,10.202-11.753c4.487-3.907,9.433-7.001,14.646-9.289
		L109.83,87.553c-2.699-3.263-2.457-7.983,0.443-11.069c0.047-0.051,0.095-0.102,0.142-0.153c6.556-7.11,7.398-17.999,2.04-26.05
		c-0.056-0.084-0.117-0.163-0.173-0.246C88.739,65.237,67.978,84.368,50.909,106.496z"/>
	<g>
		<path style="fill:#FFDD71;" d="M117.314,96.6c2.752,13.807-9.636,25.941-23.475,22.701l28.669,34.655
			c6.114-9.407,14.805-16.634,24.847-21.042L117.314,96.6z"/>
	</g>
	<path style="fill:#FFDD71;" d="M37.297,180.604c2.791-4.293,6.19-8.261,10.201-11.753c4.488-3.907,9.434-7.001,14.647-9.289
		l-26.091-31.539c-6.148,10.016-11.593,20.507-16.273,31.407L37.297,180.604z"/>
	<path style="fill:#823C33;" d="M239.196,172.48c15.791,0,31.052,1.429,45.492,4.081c-11.082-13.589-27.402-23.311-47.684-25.411
		c-12.235-1.267-23.921-5.724-33.613-13.297c-21.632-16.903-52.271-16.164-73.08,1.952c-19.441,16.925-24.745,44.876-14.02,68.128
		C146.164,186.288,190.079,172.48,239.196,172.48z"/>
	<path style="fill:#72302B;" d="M157.971,179.255c-10.546-17.44-13.939-36.012-9.814-50.021c-6.39,2.356-12.449,5.874-17.845,10.572
		c-19.441,16.925-24.745,44.876-14.02,68.128c12.728-9.223,28.012-17.016,45.155-22.931L157.971,179.255z"/>
	<path style="fill:#975242;" d="M435.301,259.166c-19.435-4.249-37.093-15.077-49.634-31.254
		c-26.553-34.252-82.161-57.83-146.47-57.83c-76.164,0-139.875,33.171-157.997,77.349c-10.688,26.055-16.812,47.356-40.105,61.689
		c-13.459,8.282-22.876,18.899-26.364,30.731c7.491,20.568,17.662,39.848,30.086,57.421c14.104,7.427,32.636,11.832,55.008,11.832
		h308.715c54.802,0,99.227-34.224,99.227-76.441C507.765,295.271,475.069,267.861,435.301,259.166z"/>
	<path style="fill:#975242;" d="M435.301,259.166c-19.435-4.249-37.093-15.077-49.634-31.254
		c-26.553-34.252-82.161-57.83-146.47-57.83c-76.164,0-139.875,33.171-157.997,77.349c-10.688,26.055-16.812,47.356-40.105,61.689
		c-13.459,8.282-22.876,18.899-26.364,30.731c7.491,20.568,17.662,39.848,30.086,57.421c14.104,7.427,32.636,11.832,55.008,11.832
		h308.715c54.802,0,99.227-34.224,99.227-76.441C507.765,295.271,475.069,267.861,435.301,259.166z"/>
	<g>
		<path style="fill:#8E4739;" d="M310.615,300.106c-12.247-11.285-19.925-27.452-19.925-45.418
			c0-30.858,22.634-56.426,52.205-61.016c-28.186-14.731-64.303-23.591-103.699-23.591c-76.164,0-139.875,33.171-157.997,77.349
			c-10.688,26.055-16.812,47.355-40.105,61.688c-13.459,8.282-22.876,18.899-26.365,30.732
			c7.492,20.568,17.662,39.848,30.086,57.421c14.104,7.427,32.636,11.832,55.008,11.832h210.792V300.106z"/>
	</g>
	<path style="fill:#AA6355;" d="M377.012,381.111h-85.898c-25.397,0-46.177-20.78-46.177-46.177l0,0
		c0-25.398,20.78-46.177,46.177-46.177h85.898c25.397,0,46.177,20.78,46.177,46.177l0,0
		C423.189,360.331,402.409,381.111,377.012,381.111z"/>
	<path style="fill:#AA6355;" d="M189.684,303.959l-17.019,14.395c-35.533,29.394-89.139,18.391-110.219-22.624L32.19,236.861
		c-12.171-23.68-7.172-52.927,12.909-70.409c20.809-18.117,51.448-18.855,73.08-1.952c9.692,7.573,21.378,12.03,33.613,13.297
		C213.974,184.235,238.96,262.281,189.684,303.959z"/>
	<path style="fill:#975242;" d="M103.669,261.628l-33.815-55.923c-10.637-17.592-13.344-36.461-7.604-49.575
		c-6.135,2.353-11.95,5.795-17.15,10.323c-20.081,17.483-25.08,46.729-12.909,70.409l30.256,58.868
		c21.08,41.015,74.686,52.018,110.219,22.624l17.019-14.395c0.906-0.766,1.778-1.548,2.634-2.338
		C167.62,316.74,126.007,298.569,103.669,261.628z"/>
	<path style="fill:#B4E234;" d="M283.599,379.692c-1.455-13.088-12.029-23.639-25.119-25.089c-3.7-0.41-7.273-0.107-10.604,0.787
		c-5.82,1.561-12.064-1.212-14.461-6.741c-4.411-10.176-14.585-17.164-26.186-17.164c-2.075,0-4.096,0.222-6.042,0.645
		c-6.288,1.365-12.738-2.22-14.5-8.408c-3.33-11.703-14.057-20.776-27.47-20.776c-13.402,0-24.141,9.071-27.472,20.781
		c-1.76,6.186-8.212,9.767-14.498,8.403c-1.946-0.422-3.968-0.645-6.042-0.645c-11.603,0-21.774,6.99-26.184,17.163
		c-2.398,5.53-8.641,8.303-14.462,6.742c-3.331-0.894-6.904-1.196-10.605-0.787c-13.09,1.45-23.663,12-25.119,25.089
		c-0.076,0.682-0.119,1.358-0.147,2.031c5.971,9.968,12.632,19.473,19.915,28.455c2.712,0.855,5.595,1.324,8.589,1.324h192.048
		C272.081,411.502,285.514,396.918,283.599,379.692z"/>
	<g>
		<path style="fill:#96CC1F;" d="M112.148,401.502c2.846-2.4,5.982-4.137,9.247-5.25c5.704-1.943,9.347-7.722,8.26-13.65
			c-2-10.909,2.563-22.377,12.2-28.835c1.724-1.155,3.527-2.095,5.378-2.828c5.983-2.367,9.347-8.935,7.365-15.057
			c-3.699-11.424,0.027-24.718,10.834-32.242c-1.993-0.44-4.064-0.696-6.215-0.696c-13.402,0-24.141,9.071-27.473,20.781
			c-1.76,6.186-8.212,9.767-14.498,8.403c-1.946-0.422-3.968-0.645-6.042-0.645c-11.603,0-21.775,6.99-26.184,17.163
			c-2.398,5.529-8.64,8.303-14.462,6.742c-3.331-0.893-6.904-1.196-10.604-0.787c-13.09,1.45-23.664,12-25.119,25.089
			c-0.076,0.682-0.119,1.357-0.147,2.03c5.971,9.968,12.632,19.473,19.915,28.456c2.712,0.855,5.595,1.324,8.59,1.324h41.451
			C106.343,407.725,108.854,404.281,112.148,401.502z"/>
	</g>
	<circle style="fill:#FF6683;" cx="204.152" cy="389.464" r="22.039"/>
	<path style="fill:#F94862;" d="M212.969,393.868c-7.302,0-13.222-5.919-13.222-13.222c0-5.966,3.953-11.005,9.381-12.651
		c-1.6-0.369-3.264-0.571-4.976-0.571c-12.172,0-22.039,9.867-22.039,22.039c0,12.171,9.867,22.039,22.039,22.039
		c12.171,0,22.038-9.867,22.038-22.039c0-1.712-0.202-3.376-0.571-4.976C223.973,389.916,218.935,393.868,212.969,393.868z"/>
	<path style="fill:#FCEBBB;" d="M264.838,286.808c-28.156,24.287-36.032,65.88-16.756,99.267
		c19.276,33.388,59.235,47.363,94.346,35.123c4.325-1.508,6.213-6.584,3.923-10.551l-70.415-121.962
		C273.646,284.719,268.306,283.816,264.838,286.808z"/>
	<path style="fill:#FFDD71;" d="M346.351,410.648L305.5,339.893h-43.281c-0.2,6.659-5.648,12-12.356,12
		c-6.137,0-11.216-4.472-12.192-10.331c-0.973,15.026,2.316,30.493,10.411,44.514c19.276,33.388,59.235,47.363,94.346,35.123
		C346.753,419.691,348.641,414.615,346.351,410.648z"/>
	<path style="fill:#F6AC2B;" d="M310.615,348.752l-26.667-46.188c-1.238-0.034-2.497,0.364-3.526,1.251
		c-12.034,10.381-18.839,25.216-19.368,40.551L310.615,348.752z"/>
	<path style="fill:#FECF2B;" d="M290.69,395.695c13.545,7.209,29.795,8.734,44.802,3.503c1.282-0.447,2.257-1.339,2.846-2.428
		l-26.667-46.188L290.69,395.695z"/>
	<path style="fill:#FABD2B;" d="M310.111,347.878l-49.027-4.338c-0.512,10.392,1.857,21.047,7.448,30.729
		c5.59,9.683,13.633,17.062,22.889,21.814l20.756-44.628L310.111,347.878z"/>
	<path style="fill:#FCEBBB;" d="M340.695,286.808c-28.156,24.287-36.032,65.88-16.756,99.267
		c19.276,33.388,59.235,47.363,94.346,35.123c4.325-1.508,6.213-6.584,3.923-10.551l-70.415-121.962
		C349.503,284.719,344.163,283.816,340.695,286.808z"/>
	<path style="fill:#FFDD71;" d="M422.208,410.648l-40.851-70.755h-43.74c0,6.834-5.54,12.375-12.375,12.375
		c-5.564,0-10.269-3.672-11.826-8.725c-0.57,14.4,2.783,29.127,10.523,42.533c19.276,33.388,59.235,47.363,94.346,35.123
		C422.61,419.691,424.499,414.615,422.208,410.648z"/>
	<path style="fill:#F6AC2B;" d="M386.473,348.752l-26.667-46.188c-1.237-0.034-2.497,0.364-3.525,1.251
		c-12.034,10.381-18.839,25.216-19.368,40.551L386.473,348.752z"/>
	<path style="fill:#FECF2B;" d="M366.547,395.695c13.545,7.209,29.795,8.734,44.803,3.503c1.282-0.447,2.257-1.339,2.846-2.428
		l-26.667-46.188L366.547,395.695z"/>
	<path style="fill:#FABD2B;" d="M385.968,347.878l-49.027-4.338c-0.512,10.392,1.857,21.047,7.448,30.729
		c5.59,9.683,13.633,17.062,22.889,21.814l20.757-44.628L385.968,347.878z"/>
	<path style="fill:#B8DCF2;" d="M427.762,438.89H93.238c-3.122,0-6.026,0.899-8.498,2.429
		c13.231,11.452,27.702,21.508,43.182,29.946h299.841c8.94,0,16.187-7.247,16.187-16.188
		C443.95,446.137,436.703,438.89,427.762,438.89z"/>
	<path style="fill:#89C2E5;" d="M164.739,455.077c0-8.94,7.247-16.188,16.187-16.188H93.238c-3.122,0-6.026,0.898-8.498,2.429
		c13.23,11.452,27.702,21.508,43.182,29.946h53.005C171.986,471.265,164.739,464.018,164.739,455.077z"/>
	<path style="fill:#DEEEFA;" d="M505.67,409.104H53.74c9.331,11.642,19.691,22.424,30.963,32.184H467.33
		c17.741,0,33.545-8.682,43.391-22.005C513.838,415.067,510.913,409.104,505.67,409.104z"/>
	<path style="fill:#B8DCF2;" d="M173.438,409.104H53.74c9.331,11.642,19.691,22.424,30.963,32.184h89.067
		c-3.959,0-7.787-1.461-10.713-4.128C151.649,426.762,159.096,409.104,173.438,409.104z"/>
	<circle style="fill:#8E4739;" cx="299.395" cy="218.58" r="18.083"/>
	<circle style="fill:#975242;" cx="80.035" cy="229.316" r="22.056"/>
	<circle style="fill:#975242;" cx="98.986" cy="255.136" r="11.735"/>
	<circle style="fill:#8E4739;" cx="317.479" cy="202.711" r="7.389"/>
	<circle style="fill:#8E4739;" cx="324.868" cy="248.611" r="7.389"/>
	<circle style="fill:#975242;" cx="128.752" cy="262.526" r="7.389"/>
</g>
<g>
</g>
<g>
</g>
<g>
</g>
<g>
</g>
<g>
</g>
<g>
</g>
<g>
</g>
<g>
</g>
<g>
</g>
<g>
</g>
<g>
</g>
<g>
</g>
<g>
</g>
<g>
</g>
<g>
</g>
</svg>
