<?xml version="1.0" encoding="iso-8859-1"?>
<!-- Generator: Adobe Illustrator 21.0.0, SVG Export Plug-In . SVG Version: 6.00 Build 0)  -->
<svg version="1.1" id="Capa_1" xmlns="http://www.w3.org/2000/svg" xmlns:xlink="http://www.w3.org/1999/xlink" x="0px" y="0px"
	 viewBox="0 0 512 512" style="enable-background:new 0 0 512 512;" xml:space="preserve">
<g>
	<path style="fill:#7FBC0A;" d="M94.639,451.346H417.36c51.263-44.907,83.642-110.842,83.642-184.348
		c0-135.311-109.691-245.002-245.002-245.002c-135.311,0-245.002,109.691-245.002,245.002
		C10.998,340.504,43.377,406.439,94.639,451.346z"/>
	<path style="fill:#DEEEFA;" d="M318.274,174.234c0.587,1.394,1.757,2.449,3.209,2.894c1.506,0.461,3.134,0.227,4.464-0.645
		c5.029-3.285,11.184-4.426,16.89-3.134c0.211,0.048,0.415,0.111,0.624,0.165l58.533-156.799c1.176-3.152-0.96-6.777-4.702-7.979
		L371.31,0.386c-3.743-1.202-7.59,0.5-8.47,3.747l-45.535,168.105C317.656,172.885,317.985,173.547,318.274,174.234z"/>
	<g>
		<path style="fill:#B8DCF2;" d="M334.063,110.368l-16.759,61.871c0.352,0.647,0.681,1.308,0.97,1.995
			c0.587,1.394,1.757,2.449,3.209,2.894c1.506,0.461,3.134,0.227,4.464-0.645c5.029-3.285,11.184-4.426,16.89-3.134
			c0.211,0.048,0.415,0.111,0.624,0.165l20.065-53.751C353.339,129.029,336.978,123.755,334.063,110.368z"/>
	</g>
	<path style="fill:#DEEEFA;" d="M359.781,190.498c0.32,1.534,1.288,2.834,2.656,3.565c1.163,0.623,2.503,0.748,3.775,0.42
		L459.787,44.22c1.778-2.856,0.404-6.833-3.026-8.754l-23.81-13.337c-3.43-1.921-7.538-1.016-9.045,1.992l-75.698,151.181
		C354.112,178.318,358.375,183.78,359.781,190.498z"/>
	<g>
		<path style="fill:#B8DCF2;" d="M374.355,123.082l-26.147,52.22c5.904,3.016,10.167,8.478,11.572,15.195
			c0.32,1.534,1.288,2.834,2.656,3.565c1.163,0.623,2.503,0.748,3.775,0.42l35.656-57.256
			C390.398,144.642,375.017,136.887,374.355,123.082z"/>
	</g>
	<path style="fill:#FCEBBB;" d="M477.907,313.475c1.203-11.851-6.644-23.123-18.871-25.679c-2.19-0.458-3.415-2.75-2.579-4.825
		c6.314-15.676-5.1-32.61-21.905-32.759c-2.227-0.02-3.895-2.016-3.476-4.204c3.157-16.503-11.225-31.033-27.85-27.884
		c-2.209,0.418-4.213-1.248-4.234-3.496c-0.159-16.652-16.937-28.222-32.727-21.874c-2.094,0.842-4.395-0.386-4.857-2.595
		c-3.406-16.279-22.119-24.37-36.368-15.066c-1.855,1.212-4.374,0.54-5.234-1.502c-6.528-15.515-26.592-19.611-38.67-7.756
		c-1.574,1.546-4.171,1.36-5.406-0.468c-9.467-14.007-29.997-14.009-39.465,0.001c-1.236,1.829-3.832,2.014-5.407,0.468
		c-12.027-11.805-32.053-7.822-38.651,7.685c-0.863,2.03-3.332,2.852-5.173,1.636c-14.042-9.271-32.996-1.542-36.461,15.023
		c-0.46,2.198-2.761,3.411-4.845,2.574c-15.645-6.288-32.578,5.081-32.741,21.897c-0.022,2.237-2.031,3.887-4.229,3.471
		c-16.56-3.126-31.008,11.324-27.84,27.886c0.418,2.188-1.249,4.183-3.476,4.204c-16.863,0.153-28.204,17.145-21.901,32.769
		c0.833,2.065-0.372,4.368-2.553,4.819c-12.065,2.495-20.121,13.642-18.893,25.676H477.907z"/>
	<g>
		<path style="fill:#FFDD71;" d="M174.819,294.963c2.061-0.892,2.818-3.381,1.58-5.254c-9.333-14.117-1.49-33.024,14.977-36.48
			c2.159-0.453,3.312-2.786,2.477-4.827c-6.377-15.599,4.882-32.631,21.733-32.873c2.206-0.031,3.901-2.007,3.471-4.172
			c-3.295-16.585,11.151-31.173,27.766-28.045c2.168,0.408,4.127-1.306,4.137-3.512c0.046-10.692,6.862-19.163,15.811-22.374
			c-10.195-5.167-23.436-2.523-30.508,7.941c-1.235,1.829-3.832,2.015-5.407,0.468c-12.027-11.805-32.053-7.821-38.65,7.685
			c-0.864,2.03-3.333,2.852-5.173,1.636c-14.042-9.271-32.996-1.542-36.461,15.023c-0.46,2.198-2.761,3.411-4.845,2.574
			c-15.645-6.288-32.578,5.081-32.741,21.897c-0.022,2.237-2.031,3.886-4.229,3.471c-16.56-3.126-31.008,11.324-27.84,27.886
			c0.418,2.188-1.249,4.184-3.476,4.204c-16.863,0.153-28.204,17.145-21.901,32.769c0.833,2.065-0.372,4.369-2.553,4.819
			c-12.065,2.496-20.121,13.642-18.893,25.676h126.559C161.767,305.693,166.681,298.483,174.819,294.963z"/>
	</g>
	<g>
		<path style="fill:#FFDD71;" d="M346.47,242.466c-4.553,0-8.307-3.686-8.307-8.296c0-3.948,2.739-7.334,6.679-8.151
			c5.022-1.009,9.936,2.821,9.936,8.151C354.777,238.863,350.934,242.466,346.47,242.466z"/>
	</g>
	<g>
		<path style="fill:#FECF2B;" d="M224.819,242.473c-4.736,0-8.318-3.907-8.318-8.307c0-5.208,4.808-9.183,9.935-8.152
			c3.425,0.711,5.85,3.295,6.524,6.523C234.009,237.57,230.06,242.473,224.819,242.473z"/>
	</g>
	<g>
		<path style="fill:#FECF2B;" d="M167.122,248.948c-6.218,0-11.076-5.072-11.076-11.076c0-7.014,6.459-12.211,13.247-10.854
			c5.359,1.105,8.906,5.732,8.906,10.854C178.198,243.906,173.302,248.948,167.122,248.948z"/>
	</g>
	<circle style="fill:#F94862;" cx="303.988" cy="250.413" r="13.292"/>
	<circle style="fill:#7FBC0A;" cx="250.934" cy="274.342" r="17.804"/>
	<g>
		<path style="fill:#FECF2B;" d="M300.686,212.266h-6.277c-4.588,0-8.307-3.719-8.307-8.307s3.719-8.307,8.307-8.307h6.277
			c4.588,0,8.307,3.719,8.307,8.307S305.274,212.266,300.686,212.266z"/>
	</g>
	<path style="fill:#F94862;" d="M256,512c62.889,0,120.235-23.705,163.615-62.654c4.952-8.971,9.532-19.108,13.481-30.577
		c23.361-67.851,52.064-78.711,52.064-78.711H26.84c0,0,28.703,10.86,52.064,78.711c3.949,11.47,8.529,21.606,13.482,30.577
		C135.765,488.295,193.111,512,256,512z"/>
	<g>
		<path style="fill:#ED3346;" d="M188.403,458.876c-13.138-81.218-28.586-109.911-35.001-118.818H26.84
			c0,0,28.703,10.86,52.064,78.711c3.949,11.47,8.529,21.606,13.482,30.577c29.572,26.552,65.638,46.01,105.522,55.713
			C194.423,491.444,191.195,476.139,188.403,458.876z"/>
	</g>
	<path style="fill:#ED3346;" d="M67.261,390.065h377.477c20.274-42.375,40.421-50.007,40.421-50.007H26.84
		C26.84,340.058,46.987,347.689,67.261,390.065z"/>
	<g>
		<path style="fill:#DB2640;" d="M153.402,340.058H26.84c0,0,20.147,7.632,40.421,50.007h106.584
			C165.313,359.57,157.508,345.758,153.402,340.058z"/>
	</g>
	<g>
		<path style="fill:#FF6683;" d="M489.421,341.166H22.579c-8.259,0-14.953-6.694-14.953-14.953c0-8.259,6.694-14.953,14.953-14.953
			h466.841c8.259,0,14.953,6.694,14.953,14.953C504.374,334.471,497.679,341.166,489.421,341.166z"/>
	</g>
	<path style="fill:#F94862;" d="M142.96,326.213c0-8.258,6.694-14.953,14.953-14.953H22.58c-8.259,0-14.953,6.694-14.953,14.953
		s6.694,14.953,14.953,14.953h135.333C149.654,341.166,142.96,334.471,142.96,326.213z"/>
</g>
<g>
</g>
<g>
</g>
<g>
</g>
<g>
</g>
<g>
</g>
<g>
</g>
<g>
</g>
<g>
</g>
<g>
</g>
<g>
</g>
<g>
</g>
<g>
</g>
<g>
</g>
<g>
</g>
<g>
</g>
</svg>
