<?xml version="1.0" encoding="iso-8859-1"?>
<!-- Generator: Adobe Illustrator 21.0.0, SVG Export Plug-In . SVG Version: 6.00 Build 0)  -->
<svg version="1.1" id="Capa_1" xmlns="http://www.w3.org/2000/svg" xmlns:xlink="http://www.w3.org/1999/xlink" x="0px" y="0px"
	 viewBox="0 0 512 512" style="enable-background:new 0 0 512 512;" xml:space="preserve">
<g>
	<path style="fill:#4ECDF9;" d="M245.002,21.996c-32.888,0-64.254,6.496-92.908,18.249l-16.295,446.112
		C168.681,502.758,205.76,512,245.002,512c135.311,0,245.001-109.691,245.001-245.002
		C490.003,131.687,380.313,21.996,245.002,21.996z"/>
	<path style="fill:#284270;" d="M115.508,475c37.573,23.441,81.946,37,129.494,37c47.547,0,91.921-13.559,129.494-37H115.508z"/>
	<path style="fill:#1D3260;" d="M209.345,475h-93.837c27.525,17.172,58.704,29.032,92.103,34.152
		C192.497,502.825,193.858,479.706,209.345,475z"/>
	<path style="fill:#D1F44E;" d="M121.62,128.208c0.114,1.466,0.163,2.944,0.146,4.393c-0.133,11.069,4.762,21.876,13.428,29.649
		c11.127,9.98,19.728,22.63,24.872,36.582l0.638,1.73l1.687-0.745c4.342-1.916,8.93-2.887,13.634-2.887
		c2.421,0,4.836,0.258,7.18,0.766c2.189,0.475,4.431,0.524,6.661,0.146l2.307-0.392l-1.047-2.092
		c-4.848-9.688-7.307-20.114-7.307-30.99c0-21.525,9.854-40.791,25.288-53.525c-0.372-4.051-1.297-7.479-2.057-9.742
		c-0.615-1.829-0.397-3.812,0.565-5.485c2.933-5.101,7.746-17.145-2.191-30.038c-9.273-12.031-21.722-11.236-28.24-9.728
		c-2.643,0.611-5.398-0.479-6.927-2.721c-4.902-7.188-10.551-11.385-16.132-13.714c-27.441,10.967-52.438,26.745-73.939,46.304
		C96.894,94.003,120.336,111.731,121.62,128.208z"/>
	<g>
		<path style="fill:#FFDD71;" d="M203.347,185.983c4.137-14.541,17.561-24.697,32.646-24.697c15.083,0,28.507,10.153,32.643,24.69
			c2.418,8.499,11.268,13.647,20.144,11.721c2.343-0.508,4.759-0.766,7.18-0.766c4.821,0,9.511,1.015,13.941,3.016l3.822,1.727
			c0.091-0.148,0.191-0.29,0.281-0.438l-23.277-46.098c-5.884-11.653-5.311-25.247,1.529-36.365c1.977-3.213,4.385-6.038,7.11-8.45
			c-12.425-10.626-28.545-17.057-46.176-17.057c-39.27,0-71.105,31.835-71.105,71.104c0,12.062,3.014,23.417,8.314,33.369
			C196.465,196.513,201.596,192.136,203.347,185.983z"/>
	</g>
	<path style="fill:#FFDD71;" d="M203.347,185.983c4.137-14.541,17.561-24.697,32.646-24.697c15.083,0,28.507,10.153,32.643,24.69
		c2.418,8.499,11.268,13.647,20.144,11.721c2.343-0.508,4.759-0.766,7.18-0.766c4.821,0,9.511,1.015,13.941,3.016l3.822,1.727
		c0.091-0.148,0.191-0.29,0.281-0.438l-23.277-46.098c-5.884-11.653-5.311-25.247,1.529-36.365c1.977-3.213,4.385-6.038,7.11-8.45
		c-12.425-10.626-28.545-17.057-46.176-17.057c-39.27,0-71.105,31.835-71.105,71.104c0,12.062,3.014,23.417,8.314,33.369
		C196.465,196.513,201.596,192.136,203.347,185.983z"/>
	<path style="fill:#FECF2B;" d="M251.541,165.103v-2.002c-44.326-33.759-19.415-66.556-19.311-66.693
		c-29.039,8.946-50.145,35.986-50.145,67.96c0,12.063,3.014,23.417,8.315,33.369c6.065-1.224,11.196-5.602,12.947-11.755
		c4.137-14.542,17.561-24.697,32.646-24.697C241.525,161.286,246.832,162.656,251.541,165.103z"/>
	<path style="fill:#D1F44E;" d="M305.979,56.236c1.031,0.882,1.641,2.144,1.664,3.5c0.089,5.186,1.722,18.124,15.329,23.229
		c12.997,4.877,16.062,14.308,16.784,18.629h6.906h6.906c0.722-4.321,3.786-13.752,16.784-18.629
		c13.607-5.105,15.241-18.043,15.329-23.229c0.023-1.356,0.633-2.618,1.664-3.5c3.142-2.69,9.161-9.535,5.61-20.412
		c-3.314-10.149-11.746-12.549-16.419-13.082c-1.895-0.217-3.463-1.587-3.949-3.431C367.09-1.568,346.661,0.028,346.661,0.028
		s-20.428-1.596-25.925,19.283c-0.486,1.844-2.054,3.214-3.949,3.431c-4.672,0.534-13.105,2.933-16.419,13.082
		C296.818,46.7,302.837,53.546,305.979,56.236z"/>
	<g>
		<path style="fill:#B4E234;" d="M339.791,82.965c-6.803-5.105-7.62-18.043-7.664-23.229c-0.011-1.356-0.316-2.618-0.832-3.5
			c-1.571-2.69-4.581-9.535-2.805-20.412c1.657-10.149,5.873-12.549,8.21-13.082c0.947-0.217,1.732-1.586,1.974-3.431
			c2.057-15.627,8.296-18.663,11.304-19.202c-2.022-0.181-3.316-0.081-3.316-0.081s-20.428-1.596-25.925,19.283
			c-0.486,1.844-2.054,3.214-3.949,3.431c-4.672,0.534-13.104,2.933-16.419,13.082c-3.551,10.876,2.468,17.722,5.61,20.412
			c1.031,0.882,1.641,2.144,1.664,3.5c0.088,5.186,1.722,18.124,15.329,23.229c12.997,4.877,16.061,14.308,16.784,18.629h6.906
			h1.521C347.822,97.272,346.29,87.842,339.791,82.965z"/>
	</g>
	<path style="fill:#FFA733;" d="M311.901,200.918c6.637,3.53,12.059,9.223,15.173,16.406c3.275,7.555,11.918,11.599,20.101,9.404
		c2.708-0.727,5.541-1.109,8.422-1.136l0.822-0.008l31.796-39.729c0.492-0.615,1.046-1.162,1.643-1.648l14.285-28.291
		c13.11-25.966-5.761-56.634-34.848-56.634h-22.634h-22.634c-29.087,0-47.958,30.669-34.848,56.634L311.901,200.918z"/>
	<path style="fill:#FF8C33;" d="M345.194,226.217L334.158,162c-4.233-24.634,5.15-49.88,19.865-62.717h-7.361h-22.634
		c-29.087,0-47.958,30.669-34.848,56.634l22.722,45.001c6.637,3.53,12.059,9.224,15.173,16.406
		c3.105,7.163,11.034,11.159,18.823,9.686C345.665,226.743,345.433,226.474,345.194,226.217z"/>
	<g>
		<path style="fill:#F94862;" d="M359.78,225.795c15.563,1.724,28.113,14.259,29.841,29.805
			c1.721,15.481-7.203,30.123-21.701,35.608l-7.066,2.673l0.851,0.681h83.319l30.851-38.548c4.339-5.422,3.462-13.335-1.96-17.674
			l-69.379-55.525c-5.422-4.339-13.335-3.461-17.674,1.96l-32.703,40.862C356.017,225.539,357.893,225.586,359.78,225.795z"/>
	</g>
	<path style="fill:#ED3346;" d="M404.536,182.813c-5.422-4.339-13.334-3.461-17.674,1.96l-32.703,40.862
		c1.858-0.096,3.734-0.049,5.621,0.159c14.39,1.595,26.197,12.434,29.262,26.348c5.455-16.098,22.616-15.569,22.616-15.569
		l4.738-13.743c0-13.817,7.249-18.632,12.78-20.297L404.536,182.813z"/>
	<path style="fill:#FF8C33;" d="M346.661,116.641c13.403,0,25.342-6.241,33.092-15.967c-3.295-0.902-6.796-1.391-10.459-1.391
		h-22.634h-22.634c-3.663,0-7.163,0.489-10.459,1.391C321.319,110.4,333.258,116.641,346.661,116.641z"/>
	<g>
		<path style="fill:#FCC683;" d="M316.978,164.581h-27.798c-4.785,0-8.665-3.879-8.665-8.665c0-4.786,3.879-8.665,8.665-8.665
			h27.798c4.785,0,8.665,3.879,8.665,8.665C325.642,160.703,321.763,164.581,316.978,164.581z"/>
	</g>
	<g>
		<path style="fill:#FCC683;" d="M354.159,188.72H338.35c-4.785,0-8.665-3.879-8.665-8.665c0-4.786,3.879-8.665,8.665-8.665h15.809
			c4.785,0,8.665,3.879,8.665,8.665C362.824,184.842,358.944,188.72,354.159,188.72z"/>
	</g>
	<g>
		<path style="fill:#FCC683;" d="M407.805,153.616h-47.505c-4.785,0-8.665-3.879-8.665-8.665c0-4.786,3.879-8.665,8.665-8.665
			h47.505c4.785,0,8.665,3.879,8.665,8.665C416.47,149.738,412.591,153.616,407.805,153.616z"/>
	</g>
	<path style="fill:#D1F44E;" d="M165.701,230.538l-0.016,0.63l0.007,1.741h1.742c11.65,0,22.373,5.336,29.421,14.639l1.381,1.823
		l1.382-1.823c7.047-9.304,17.771-14.639,29.421-14.639c11.649,0,22.373,5.336,29.421,14.639l1.381,1.823l1.382-1.823
		c7.048-9.304,17.771-14.639,29.421-14.639c20.342,0,36.891,16.55,36.891,36.891c0,7.982-2.521,15.587-7.291,21.993l-2.061,2.768
		h44.107c17.927-3.233,31.197-19.861,29.053-39.153c-1.818-16.346-15.025-29.524-31.373-31.335
		c-4.621-0.512-9.083-0.133-13.244,0.983c-7.27,1.949-15.068-1.514-18.061-8.42c-5.51-12.709-18.217-21.438-32.706-21.438
		c-2.591,0-5.116,0.278-7.547,0.806c-7.854,1.704-15.91-2.772-18.11-10.502c-4.159-14.618-17.557-25.949-34.31-25.949
		c-16.739,0-30.152,11.329-34.313,25.955c-2.198,7.727-10.256,12.199-18.108,10.495c-2.431-0.528-4.956-0.806-7.546-0.806
		c-5.714,0-11.14,1.374-15.966,3.798C163.735,209.006,165.701,219.67,165.701,230.538z"/>
	<g>
		<path style="fill:#B4E234;" d="M165.686,231.168l0.007,1.741h1.742c11.65,0,22.374,5.335,29.421,14.639l1.381,1.823l1.382-1.823
			c0.235-0.311,0.485-0.605,0.729-0.907c-0.038-2.021,0.09-4.072,0.412-6.141c2.229-14.316,12.808-25.529,26.214-29.018
			c7.284-1.896,11.905-9.068,11.098-16.551c-0.463-4.283-0.15-8.75,1.066-13.237c2.044-7.539,6.516-13.98,12.404-18.593
			c-4.654-2.26-9.91-3.548-15.548-3.548c-16.739,0-30.152,11.329-34.313,25.955c-2.197,7.727-10.256,12.199-18.107,10.495
			c-2.431-0.527-4.956-0.805-7.546-0.805c-5.714,0-11.14,1.374-15.966,3.797c3.675,10.011,5.641,20.674,5.641,31.542
			L165.686,231.168z"/>
	</g>
	<g>
		<path style="fill:#B4E234;" d="M121.62,128.208c0.114,1.466,0.163,2.944,0.146,4.393c-0.072,5.978,1.335,11.875,3.998,17.264
			c5.241-2.162,9.035-7.271,9.489-13.258c0.188-2.48,0.642-4.98,1.381-7.463c4.133-13.886,16.125-23.575,29.877-25.23
			c7.473-0.899,13.017-7.385,13.223-14.909c0.118-4.306,1.028-8.691,2.837-12.974c3.158-7.477,8.753-13.427,15.554-17.19
			c-7.75-4.856-16.028-4.127-20.94-2.991c-2.643,0.611-5.398-0.479-6.927-2.721c-4.902-7.188-10.552-11.385-16.133-13.714
			c-27.44,10.968-52.438,26.745-73.938,46.304C96.894,94.003,120.335,111.731,121.62,128.208z"/>
	</g>
	<g>
		<path style="fill:#FF6683;" d="M167.434,231.176c-21.331,0-38.624,17.293-38.624,38.624c0,9.699,3.583,18.555,9.486,25.338h58.275
			c5.904-6.783,9.487-15.64,9.487-25.338C206.058,248.469,188.765,231.176,167.434,231.176z"/>
		<path style="fill:#F94862;" d="M181.855,283.08c-14.775,0-26.753-11.978-26.753-26.753c0-11.295,7.003-20.948,16.902-24.873
			c-1.499-0.177-3.022-0.278-4.569-0.278c-21.331,0-38.624,17.293-38.624,38.624c0,9.699,3.583,18.555,9.486,25.338h58.274
			c5.904-6.784,9.487-15.64,9.487-25.338c0-0.658-0.017-1.311-0.05-1.961C201.705,276.852,192.508,283.08,181.855,283.08z"/>
	</g>
	<g>
		<path style="fill:#FF6683;" d="M229.039,231.176c-21.331,0-38.624,17.293-38.624,38.624c0,9.699,3.583,18.555,9.487,25.338h58.275
			c5.904-6.783,9.487-15.64,9.487-25.338C267.664,248.469,250.371,231.176,229.039,231.176z"/>
		<path style="fill:#F94862;" d="M243.46,283.08c-14.775,0-26.753-11.978-26.753-26.753c0-11.295,7.003-20.948,16.902-24.873
			c-1.499-0.177-3.022-0.278-4.569-0.278c-21.331,0-38.624,17.293-38.624,38.624c0,9.699,3.583,18.555,9.486,25.338h58.274
			c5.904-6.784,9.487-15.64,9.487-25.338c0-0.658-0.017-1.311-0.05-1.961C263.311,276.852,254.113,283.08,243.46,283.08z"/>
	</g>
	<g>
		<path style="fill:#FF6683;" d="M290.645,231.176c-21.332,0-38.624,17.293-38.624,38.624c0,9.699,3.583,18.555,9.486,25.338h58.275
			c5.904-6.783,9.487-15.64,9.487-25.338C329.269,248.469,311.976,231.176,290.645,231.176z"/>
		<path style="fill:#F94862;" d="M305.065,283.08c-14.775,0-26.753-11.978-26.753-26.753c0-11.295,7.003-20.948,16.902-24.873
			c-1.5-0.177-3.022-0.278-4.569-0.278c-21.331,0-38.624,17.293-38.624,38.624c0,9.699,3.583,18.555,9.486,25.338h58.274
			c5.904-6.784,9.487-15.64,9.487-25.338c0-0.658-0.017-1.311-0.05-1.961C324.916,276.852,315.719,283.08,305.065,283.08z"/>
	</g>
	<path style="fill:#7FBC0A;" d="M0,266.998c0,9.519,0.562,18.905,1.618,28.141h138.987c16.618-17.375,26.829-40.929,26.829-66.87
		c0-28.613-12.429-54.311-32.176-72.021c-8.349-7.488-13.438-18.119-13.303-29.333c0.019-1.554-0.032-3.124-0.156-4.708
		c-1.566-20.078-14.937-37.022-33.068-43.902C34.528,123.243,0,191.087,0,266.998z"/>
	<path style="fill:#79AD05;" d="M114.432,292.828c-26.63-9.002-15.026-29.671-15.026-29.671l-35.974-99.223
		c-18.064-16.888-16.764-34.743-14.2-44.23C18.334,160.704,0,211.705,0,266.998c0,9.519,0.562,18.905,1.618,28.141h112.814V292.828z
		"/>
	<path style="fill:#B4E234;" d="M70.667,186.625c22.727,0,41.478,16.967,44.312,38.922c0.244-2.337,0.384-4.714,0.384-7.133
		c0-30.492-20.011-55.211-44.696-55.211c-24.685,0-44.696,24.719-44.696,55.211c0,2.419,0.14,4.796,0.384,7.133
		C29.19,203.592,47.941,186.625,70.667,186.625z"/>
	<g>
		<path style="fill:#96CC1F;" d="M58.524,174.282c0-4.172,1.913-7.896,4.908-10.347c-21.243,4.273-37.46,27.033-37.46,54.48
			c0,2.419,0.14,4.796,0.384,7.133c2.687-20.815,19.684-37.136,40.809-38.776C62.118,184.861,58.524,179.997,58.524,174.282z"/>
	</g>
	<circle style="fill:#975242;" cx="70.668" cy="228.929" r="44.696"/>
	<path style="fill:#8E4739;" d="M85.11,244.739c-16.708,0-30.252-13.545-30.252-30.253c0-14.467,10.157-26.555,23.728-29.54
		c-2.571-0.46-5.214-0.713-7.918-0.713c-24.685,0-44.696,20.011-44.696,44.696c0,24.685,20.011,44.696,44.696,44.696
		c24.685,0,44.696-20.011,44.696-44.696c0-2.704-0.253-5.346-0.713-7.918C111.665,234.582,99.578,244.739,85.11,244.739z"/>
	<path style="fill:#8E4739;" d="M401.75,456.141H89.266c14.807,12.205,31.075,22.697,48.497,31.193h232.794
		C387.785,487.333,401.75,473.368,401.75,456.141z"/>
	<path style="fill:#823C33;" d="M173.752,456.141H89.266c14.807,12.205,31.076,22.697,48.498,31.192h67.181
		C187.718,487.333,173.752,473.368,173.752,456.141z"/>
	<path style="fill:#975242;" d="M90.832,457.402c9.835,1.857,19.904,2.784,30.016,2.784H373.75c16.163,0,32.217-2.367,47.378-7.116
		c62.961-19.724,57.504-49.736,75.276-130.204H6.405C18.962,376.705,49.276,423.712,90.832,457.402z"/>
	<path style="fill:#8E4739;" d="M115.363,322.865H6.405c12.557,53.839,42.872,100.847,84.427,134.536
		c9.835,1.857,19.904,2.784,30.016,2.784h52.905C128.547,438.067,131.362,403.117,115.363,322.865z"/>
	<path style="fill:#AA6355;" d="M496.404,292.828H1.354c1.112,10.615,2.909,21.025,5.332,31.193h489.717
		c8.614,0,15.596-6.983,15.596-15.596C512,299.811,505.018,292.828,496.404,292.828z"/>
	<path style="fill:#975242;" d="M98.836,308.425c0-8.614,6.982-15.596,15.596-15.596H1.354c1.112,10.615,2.909,21.025,5.332,31.192
		h107.746C105.818,324.021,98.836,317.038,98.836,308.425z"/>
	<g>
		<path style="fill:#FF6683;" d="M411.658,236.574h-6.547c-4.785,0-8.665-3.879-8.665-8.665c0-4.786,3.879-8.665,8.665-8.665h6.547
			c4.785,0,8.665,3.879,8.665,8.665C420.322,232.695,416.443,236.574,411.658,236.574z"/>
	</g>
	<g>
		<path style="fill:#FF6683;" d="M423.791,274.707c-6.485,0.002-11.554-5.287-11.556-11.55c-0.002-7.315,6.733-12.738,13.814-11.325
			c5.59,1.151,9.29,5.976,9.291,11.319C435.343,269.446,430.238,274.706,423.791,274.707z"/>
	</g>
	<path style="fill:#FF7133;" d="M346.661,99.283h-22.634c-3.663,0-7.163,0.489-10.458,1.391
		c6.665,8.364,16.431,14.138,27.557,15.595C340.979,116.066,333.222,105.345,346.661,99.283z"/>
</g>
<g>
</g>
<g>
</g>
<g>
</g>
<g>
</g>
<g>
</g>
<g>
</g>
<g>
</g>
<g>
</g>
<g>
</g>
<g>
</g>
<g>
</g>
<g>
</g>
<g>
</g>
<g>
</g>
<g>
</g>
</svg>
