<?xml version="1.0" encoding="iso-8859-1"?>
<!-- Generator: Adobe Illustrator 21.0.0, SVG Export Plug-In . SVG Version: 6.00 Build 0)  -->
<svg version="1.1" id="Capa_1" xmlns="http://www.w3.org/2000/svg" xmlns:xlink="http://www.w3.org/1999/xlink" x="0px" y="0px"
	 viewBox="0 0 512 512" style="enable-background:new 0 0 512 512;" xml:space="preserve">
<g>
	<path style="fill:#1D3260;" d="M245.002,21.996C109.691,21.996,0,131.687,0,266.998c0,8.04,0.399,15.987,1.156,23.83
		c0.013,0.038,80.709,226.431,285.391,217.647l0,0c115.521-19.735,203.456-120.33,203.456-241.477
		C490.004,131.687,380.313,21.996,245.002,21.996z"/>
	<g>
		<path style="fill:#FF7133;" d="M431.201,179.182c-20.087,0-39.47-6.488-54.794-18.622c-3.581-2.837-4.185-8.038-1.349-11.619
			c2.836-3.582,8.038-4.184,11.619-1.349c15.475,12.257,36.191,17.373,56.84,14.062c19.398-3.119,35.968-13.179,45.46-27.599
			c8.111-12.321,8.73-28.303,1.699-43.847c-10.466-23.137-35.065-39.517-65.803-43.819c-43.985-6.156-60.958-22.014-67.452-34.234
			c-2.144-4.034-0.611-9.041,3.423-11.185c4.033-2.144,9.041-0.612,11.185,3.423c3.837,7.221,16.104,20.152,55.137,25.614
			c36.388,5.092,65.765,25.049,78.582,53.384c9.279,20.512,8.175,42.853-2.953,59.759c-12.036,18.284-32.685,30.982-56.652,34.835
			C441.155,178.786,436.155,179.181,431.201,179.182z"/>
	</g>
	<g>
		<path style="fill:#ED5926;" d="M502.165,134.777c-4.657,0-8.553-3.214-9.619-7.542c-0.962,2.37-2.143,4.653-3.568,6.819
			c-9.492,14.421-26.062,24.48-45.46,27.599c-20.649,3.311-41.365-1.805-56.84-14.062c-3.58-2.835-8.783-2.232-11.619,1.35
			c-2.836,3.581-2.232,8.782,1.349,11.619c15.323,12.135,34.707,18.623,54.794,18.623c4.953-0.001,9.954-0.395,14.941-1.198
			c23.967-3.853,44.616-16.55,56.652-34.835c2.154-3.271,3.927-6.749,5.327-10.375C506.462,134.026,504.403,134.777,502.165,134.777
			z"/>
	</g>
	<path style="fill:#FF7133;" d="M296.944,143.892c4.746-10.317,14.569-20.345,25.88-29.279c16.133-3.278,43.19-7.393,68.395-4.788
		c16.833,1.74,31.01-2.12,41.004-5.555c6.915-2.377,12.491,6.112,7.53,11.485c-25.419,27.535-113.925,90.286-186.86,92.78
		C271.431,188.55,287.995,163.346,296.944,143.892z"/>
	<g>
		<path style="fill:#ED5926;" d="M315.914,145.856c0-14.422,7.948-26.981,19.698-33.557c-4.74,0.754-9.059,1.556-12.789,2.313
			c-11.311,8.934-21.134,18.962-25.88,29.279c-8.949,19.454-25.513,44.658-44.051,64.643c29.252-1,61.007-11.697,90.194-25.924
			C327.356,177.796,315.914,163.164,315.914,145.856z"/>
	</g>
	
		<ellipse transform="matrix(0.9379 -0.3469 0.3469 0.9379 -21.0816 132.284)" style="fill:#DEEEFA;" cx="358.954" cy="125.027" rx="17.601" ry="17.601"/>
	<path style="fill:#FFA733;" d="M405.054,50.316c-39.608-5.543-62.197-18.679-71.954-27.231c-2.913-2.553-7.17-2.842-10.338-0.613
		l-0.07,0.049c-4.368,3.072-4.729,9.377-0.786,12.978c10.244,9.356,33.475,24.57,80.855,31.2
		c61.227,8.568,82.588,59.587,64.104,87.665c-20.057,30.47-70.047,39.083-102.3,13.537c-3.58-2.834-8.783-2.231-11.618,1.349
		c-2.836,3.581-2.232,8.783,1.349,11.619c39.235,31.072,100.566,21.814,126.387-17.41
		C506.273,124.582,477.644,60.473,405.054,50.316z"/>
	<g>
		<path style="fill:#FF8C33;" d="M462.247,181.859c-5.477,0-9.917-4.44-9.917-9.917c0-0.983,0.148-1.931,0.414-2.828
			c-24.054,17.748-61.972,19.544-88.179-1.213c-3.58-2.835-8.783-2.231-11.619,1.35c-2.836,3.581-2.232,8.782,1.349,11.619
			c32.12,25.437,79.043,23.84,109.174,0.907C463.068,181.825,462.662,181.859,462.247,181.859z"/>
	</g>
	<path style="fill:#1D3260;" d="M367.427,134.514c5.054-1.87,8.373-6.354,9.012-11.352c-0.152-1.419-0.459-2.841-0.977-4.241
		c-2.394-6.472-8.193-10.677-14.616-11.378c-1.044,0.131-2.089,0.369-3.118,0.75c-7.241,2.678-10.939,10.719-8.261,17.96
		C352.145,133.493,360.186,137.192,367.427,134.514z"/>
	<g>
		<path style="fill:#FF7133;" d="M307.378,278.708l-26.551-26.124c-3.256-3.203-3.298-8.44-0.095-11.696
			c3.204-3.257,8.441-3.299,11.697-0.095l26.551,26.124c3.256,3.203,3.298,8.44,0.095,11.695
			C315.887,281.854,310.651,281.929,307.378,278.708z"/>
	</g>
	<g>
		<path style="fill:#ED5926;" d="M286.627,257.717c-2.793,0-5.586-1.053-7.734-3.167c-2.446-2.407-5.672-3.933-9.084-4.298
			l-78.375-8.379c-6.056-0.647-10.44-6.081-9.793-12.137c0.647-6.057,6.087-10.449,12.138-9.794l78.375,8.379
			c8.342,0.892,16.229,4.623,22.208,10.508c4.341,4.271,4.398,11.254,0.126,15.595C292.33,256.617,289.479,257.717,286.627,257.717z
			"/>
	</g>
	<g>
		<path style="fill:#FF7133;" d="M223.922,334.501l-20.756-29.953c-2.602-3.754-1.667-8.907,2.087-11.509
			c3.756-2.602,8.907-1.666,11.509,2.088l20.756,29.953c2.602,3.754,1.667,8.907-2.087,11.509
			C231.691,339.179,226.537,338.274,223.922,334.501z"/>
	</g>
	<g>
		<path style="fill:#ED5926;" d="M209.974,310.867c-3.495,0-6.933-1.657-9.074-4.748c-2.052-2.96-5.098-5.108-8.578-6.046
			l-41.208-11.097c-5.881-1.584-9.365-7.635-7.78-13.517c1.584-5.881,7.638-9.363,13.516-7.781l41.209,11.098
			c8.507,2.292,15.954,7.541,20.971,14.781c3.469,5.006,2.222,11.877-2.784,15.345C214.33,310.229,212.14,310.867,209.974,310.867z"
			/>
	</g>
	<g>
		<path style="fill:#FF7133;" d="M198.091,370.79l-20.256-28.502c-2.646-3.723-1.773-8.887,1.95-11.533
			c3.724-2.647,8.887-1.775,11.533,1.95l20.256,28.502c2.646,3.723,1.773,8.887-1.95,11.533
			C205.876,375.403,200.72,374.491,198.091,370.79z"/>
	</g>
	<g>
		<path style="fill:#ED5926;" d="M184.586,348.525c-3.45,0-6.847-1.614-8.999-4.641c-2.05-2.885-5.062-4.98-8.479-5.898
			l-42.886-11.529c-5.882-1.581-9.368-7.631-7.787-13.512c1.581-5.882,7.631-9.366,13.513-7.787l42.885,11.529
			c8.356,2.247,15.719,7.367,20.732,14.421c3.529,4.965,2.364,11.85-2.6,15.378C189.028,347.863,186.796,348.525,184.586,348.525z"
			/>
	</g>
	<g>
		<path style="fill:#FF7133;" d="M172.328,401.287l-15.267-20.306c-2.745-3.651-2.011-8.836,1.641-11.581
			c3.65-2.743,8.836-2.011,11.581,1.641l15.267,20.306c2.745,3.651,2.011,8.836-1.641,11.582
			C180.259,405.672,175.072,404.939,172.328,401.287z"/>
	</g>
	<g>
		<path style="fill:#ED5926;" d="M163.681,387.04c-3.348,0-6.655-1.518-8.822-4.4c-2.199-2.924-5.377-4.964-8.95-5.742
			l-33.436-7.292c-5.951-1.298-9.723-7.173-8.425-13.125c1.298-5.951,7.173-9.716,13.125-8.425l33.436,7.292
			c8.734,1.905,16.504,6.889,21.877,14.035c3.661,4.868,2.682,11.782-2.186,15.442C168.314,386.319,165.987,387.04,163.681,387.04z"
			/>
	</g>
	<path style="fill:#FFA733;" d="M278.974,466.72L278.974,466.72c-5.349-10.043-17.78-13.76-27.869-8.5
		c-41.545,21.661-80.529,20.814-80.529,20.814l-7.188,1.993c-4.681,3.018-7.91,6.41-10.112,9.825h3.684
		c0,0,50.232,10.911,100.676,1.351c5.048-0.957,9.987-0.328,14.345,1.505C280.919,488.038,284.048,476.248,278.974,466.72z"/>
	<g>
		<path style="fill:#FF8C33;" d="M227.247,478.5c0-4.418,1.637-8.447,4.323-11.541c-33.453,12.67-60.994,12.075-60.994,12.075
			l-7.188,1.994c-4.681,3.018-7.91,6.41-10.112,9.825h3.684c0,0,38.266,8.31,81.54,4.068
			C231.92,492.364,227.247,485.985,227.247,478.5z"/>
	</g>
	<path style="fill:#FFA733;" d="M122.5,427.535c-0.422,4.025-3.069,7.7-7.105,9.366c-7.737,3.194-13.247,9.383-18.577,15.368
		c-1.771,1.989-3.501,3.929-5.265,5.714c18.531,14.908,39.273,27.173,61.662,36.226c2.705-5.36,7.844-10.932,17.362-15.174
		C170.576,479.035,147.602,445.184,122.5,427.535z"/>
	<path style="fill:#FF8C33;" d="M107.045,451.467c-1.456-1.868-3.265-3.404-5.298-4.58c-1.697,1.754-3.322,3.577-4.929,5.382
		c-1.771,1.989-3.501,3.929-5.265,5.714c18.531,14.908,39.273,27.173,61.662,36.226C134,484.432,114.568,461.117,107.045,451.467z"
		/>
	<path style="fill:#FF8C33;" d="M104.976,383.952c-2.952,0.592-5.998,0.029-8.544-1.628c-7.24-4.709-15.258-6.273-23.428-6.273
		c-8.605,0-17.378,1.735-25.589,3.359c-6.547,1.295-12.831,2.534-18.628,2.887c15.915,29.783,37.798,55.891,64.06,76.728
		c7.1-7.209,13.349-16.537,23.179-20.595c6.075-2.508,9.486-8.985,7.745-15.323C120.953,412.849,115.446,398.07,104.976,383.952z"/>
	<path style="fill:#FF7133;" d="M98.912,445.531c-35.819-13.565-37.421-49.94-36.831-62.638c0.094-2.014-0.15-4.024-0.713-5.948
		c-4.74,0.653-9.433,1.571-13.953,2.465c-6.547,1.295-12.831,2.534-18.628,2.887c15.915,29.783,37.798,55.892,64.06,76.728
		c3.472-3.525,6.743-7.555,10.326-11.229C101.86,446.869,100.43,446.106,98.912,445.531z"/>
	<path style="fill:#FFA733;" d="M122.91,327.711c-2.639,2.754-6.454,3.94-10.213,3.176c-3.671-0.747-6.647-3.261-7.959-6.724
		c-8.008-21.147-28.121-29.931-45.867-37.681c-20.471-8.94-38.237-16.699-33.783-40.707c-4.786,6.217-16.352,22.645-23.932,45.053
		c3.229,33.449,13.173,64.934,28.485,93.081c20.508-1.542,46.057-13.096,65.889-0.197c7.121,4.632,16.736,1.38,19.692-6.584
		c4.746-12.784,9.561-30.985,8.319-50.081C123.331,327.267,123.116,327.496,122.91,327.711z"/>
	<path style="fill:#FF8C33;" d="M61.765,378.542c-0.281-1.441-0.738-2.848-1.372-4.184c-18.219-38.434,1.85-62.605,12.52-71.986
		c2.156-1.896,3.778-4.271,4.823-6.895c-6.166-3.447-12.659-6.286-18.865-8.996c-20.471-8.939-38.237-16.699-33.783-40.707
		c-4.786,6.216-16.352,22.645-23.932,45.053c3.229,33.449,13.173,64.934,28.485,93.08C39.574,383.161,50.689,380.07,61.765,378.542z
		"/>
	<path style="fill:#FF8C33;" d="M151.51,251.552c-0.071,0-0.139,0-0.211,0c-25.352,0-41.856-9.859-49.048-29.304
		c-6.126-16.562-4.362-33.706,5.103-49.58c3.187-5.346,7.164-10.386,11.75-15.024l-0.88-1.447c0,0-81.014,30.598-94.248,86.841
		c-11.712,49.776,62.092,36.495,79.216,81.711c3.264,8.619,14.538,10.764,20.912,4.107c17.676-18.461,42.917-49.467,46.472-78.965
		C163.774,250.97,157.38,251.539,151.51,251.552z"/>
	<path style="fill:#FF7133;" d="M77.061,296.984c1.088-2.153,1.762-4.519,1.965-6.967c2.898-35.122,24.947-46.446,35.336-49.856
		c-5.348-4.594-9.395-10.569-12.111-17.913c-6.125-16.562-4.362-33.707,5.103-49.58c3.187-5.346,7.164-10.386,11.75-15.024
		l-0.88-1.447c0,0-81.014,30.599-94.248,86.841C15.7,278.205,50.11,281.9,77.061,296.984z"/>
	<path style="fill:#FFA733;" d="M359.537,80.645c5.757-1.011,8.453,6.85,3.307,9.621c-21.496,11.574-54.593,32.224-64.693,54.181
		c-15.366,33.404-53.172,83.791-84.902,95.527c-31.73,11.736-95.382,29.267-112.551-17.152
		c-17.169-46.419,28.63-88.741,75.589-95.422c46.958-6.681,94.561-42.322,104.542-27.979
		C288.837,110.929,326.934,86.369,359.537,80.645z"/>
	<g>
		<path style="fill:#FF8C33;" d="M164.804,199.112c-11.292-30.53-0.739-57.291,18.314-72.881c-2.276,0.451-4.554,0.845-6.831,1.169
			c-46.958,6.681-92.758,49.003-75.589,95.422c17.169,46.419,80.821,28.888,112.551,17.152c5.112-1.891,10.382-4.796,15.691-8.461
			C204.886,235.374,176.875,231.746,164.804,199.112z"/>
	</g>
	<path style="fill:#FF7133;" d="M245.002,512c14.163,0,28.041-1.217,41.546-3.525c-3.117-12.577-15.643-20.992-28.912-18.477
		c-50.444,9.56-100.676-1.351-100.676-1.351h-2.11c-1.291,1.643-2.307,3.306-3.123,4.954C180.48,505.449,211.974,512,245.002,512z"
		/>
</g>
<g>
</g>
<g>
</g>
<g>
</g>
<g>
</g>
<g>
</g>
<g>
</g>
<g>
</g>
<g>
</g>
<g>
</g>
<g>
</g>
<g>
</g>
<g>
</g>
<g>
</g>
<g>
</g>
<g>
</g>
</svg>
