<?xml version="1.0" encoding="iso-8859-1"?>
<!-- Generator: Adobe Illustrator 21.0.0, SVG Export Plug-In . SVG Version: 6.00 Build 0)  -->
<svg version="1.1" id="Capa_1" xmlns="http://www.w3.org/2000/svg" xmlns:xlink="http://www.w3.org/1999/xlink" x="0px" y="0px"
	 viewBox="0 0 512 512" style="enable-background:new 0 0 512 512;" xml:space="preserve">
<g>
	<path style="fill:#4ECDF9;" d="M256,21.996c-135.311,0-245.002,109.691-245.002,245.002c0,98.696,58.366,183.747,142.458,222.558
		h205.087c84.092-38.811,142.458-123.862,142.458-222.558C501.002,131.687,391.311,21.996,256,21.996z"/>
	<path style="fill:#F29A2B;" d="M306.011,78.468H205.989c-8.174,0-14.861,6.688-14.861,14.862v409.326
		c0,0.221,0.024,0.436,0.033,0.654C211.815,508.964,233.552,512,256,512s44.185-3.036,64.839-8.69
		c0.01-0.219,0.033-0.434,0.033-0.654V93.33C320.872,85.156,314.185,78.468,306.011,78.468z"/>
	<g>
		<path style="fill:#FCEBBB;" d="M203.75,61.62c9.448,0,17.178,7.73,17.178,17.178l0,0c0-9.448,7.73-17.178,17.178-17.178h35.788
			c9.448,0,17.178,7.73,17.178,17.178c0-9.448,7.73-17.178,17.178-17.178h14.412c-3.191-5.662-6.938-10.9-11.178-15.593
			c-5.217-5.774-9.811-11.9-13.138-18.479C290.034,11.11,274.189,0,256,0c-18.189,0-34.034,11.109-42.346,27.548
			c-3.326,6.579-7.921,12.705-13.138,18.479c-4.24,4.693-7.987,9.931-11.178,15.593H203.75z"/>
	</g>
	<g>
		<path style="fill:#FCEBBB;" d="M203.75,61.62c9.448,0,17.178,7.73,17.178,17.178l0,0c0-9.448,7.73-17.178,17.178-17.178h35.788
			c9.448,0,17.178,7.73,17.178,17.178c0-9.448,7.73-17.178,17.178-17.178h14.412c-3.191-5.662-6.938-10.9-11.178-15.593
			c-5.217-5.774-9.811-11.9-13.138-18.479C290.034,11.11,274.189,0,256,0c-18.189,0-34.034,11.109-42.346,27.548
			c-3.326,6.579-7.921,12.705-13.138,18.479c-4.24,4.693-7.987,9.931-11.178,15.593H203.75z"/>
	</g>
	<path style="fill:#FFDD71;" d="M272.917,3.373C267.649,1.196,261.952,0,256,0c-18.189,0-34.034,11.109-42.346,27.547
		c-3.326,6.579-7.921,12.705-13.138,18.479c-4.24,4.693-7.987,9.931-11.178,15.593h14.412c9.448,0,17.178,7.731,17.178,17.178
		c0-9.448,7.73-17.178,17.178-17.178h24.915c-0.599-0.954-1.227-1.924-1.915-2.928C239.521,27.183,260.683,10.067,272.917,3.373z"/>
	<path style="fill:#FECF2B;" d="M344.038,291.048H308.25c-9.448,0-17.178-7.73-17.178-17.178v-4.295
		c0-9.448,7.73-17.178,17.178-17.178h35.788c9.448,0,17.178,7.73,17.178,17.178v4.295
		C361.216,283.318,353.486,291.048,344.038,291.048z"/>
	<path style="fill:#FECF2B;" d="M273.894,291.048h-35.788c-9.448,0-17.178-7.73-17.178-17.178v-4.295
		c0-9.448,7.73-17.178,17.178-17.178h35.788c9.448,0,17.178,7.73,17.178,17.178v4.295
		C291.072,283.318,283.342,291.048,273.894,291.048z"/>
	<path style="fill:#F6AC2B;" d="M203.75,291.048h-35.788c-9.448,0-17.178-7.73-17.178-17.178v-4.295
		c0-9.448,7.73-17.178,17.178-17.178h35.788c9.448,0,17.178,7.73,17.178,17.178v4.295
		C220.928,283.318,213.198,291.048,203.75,291.048z"/>
	<path style="fill:#FECF2B;" d="M344.038,329.699H308.25c-9.448,0-17.178-7.73-17.178-17.178v-4.295
		c0-9.448,7.73-17.178,17.178-17.178h35.788c9.448,0,17.178,7.73,17.178,17.178v4.295
		C361.216,321.969,353.486,329.699,344.038,329.699z"/>
	<path style="fill:#FECF2B;" d="M273.894,329.699h-35.788c-9.448,0-17.178-7.73-17.178-17.178v-4.295
		c0-9.448,7.73-17.178,17.178-17.178h35.788c9.448,0,17.178,7.73,17.178,17.178v4.295
		C291.072,321.969,283.342,329.699,273.894,329.699z"/>
	<path style="fill:#F6AC2B;" d="M203.75,329.699h-35.788c-9.448,0-17.178-7.73-17.178-17.178v-4.295
		c0-9.448,7.73-17.178,17.178-17.178h35.788c9.448,0,17.178,7.73,17.178,17.178v4.295
		C220.928,321.969,213.198,329.699,203.75,329.699z"/>
	<path style="fill:#FECF2B;" d="M273.894,368.35h-35.788c-9.448,0-17.178-7.73-17.178-17.178v-4.294
		c0-9.448,7.73-17.178,17.178-17.178h35.788c9.448,0,17.178,7.73,17.178,17.178v4.294C291.072,360.62,283.342,368.35,273.894,368.35
		z"/>
	<path style="fill:#FECF2B;" d="M273.894,407.001h-35.788c-9.448,0-17.178-7.73-17.178-17.178v-4.294
		c0-9.448,7.73-17.178,17.178-17.178h35.788c9.448,0,17.178,7.73,17.178,17.178v4.294
		C291.072,399.271,283.342,407.001,273.894,407.001z"/>
	<path style="fill:#FECF2B;" d="M273.894,445.651h-35.788c-9.448,0-17.178-7.73-17.178-17.178v-4.294
		c0-9.448,7.73-17.178,17.178-17.178h35.788c9.448,0,17.178,7.73,17.178,17.178v4.294
		C291.072,437.921,283.342,445.651,273.894,445.651z"/>
	<path style="fill:#FABD2B;" d="M273.894,484.302h-35.788c-9.448,0-17.178-7.73-17.178-17.178v-4.294
		c0-9.448,7.73-17.178,17.178-17.178h35.788c9.448,0,17.178,7.73,17.178,17.178v4.294
		C291.072,476.572,283.342,484.302,273.894,484.302z"/>
	<path style="fill:#FABD2B;" d="M273.894,484.302h-35.788c-9.448,0-17.178,7.73-17.178,17.178v4.294
		c0,1.298,0.159,2.559,0.435,3.776C232.68,511.153,244.24,512,256,512c11.76,0,23.32-0.847,34.637-2.449
		c0.276-1.217,0.435-2.478,0.435-3.776v-4.294C291.072,492.033,283.342,484.302,273.894,484.302z"/>
	<path style="fill:#FECF2B;" d="M344.038,136.445H308.25c-9.448,0-17.178-7.73-17.178-17.178v-4.295
		c0-9.448,7.73-17.178,17.178-17.178h35.788c9.448,0,17.178,7.73,17.178,17.178v4.295
		C361.216,128.715,353.486,136.445,344.038,136.445z"/>
	<path style="fill:#FECF2B;" d="M273.894,136.445h-35.788c-9.448,0-17.178-7.73-17.178-17.178v-4.295
		c0-9.448,7.73-17.178,17.178-17.178h35.788c9.448,0,17.178,7.73,17.178,17.178v4.295
		C291.072,128.715,283.342,136.445,273.894,136.445z"/>
	<path style="fill:#F6AC2B;" d="M203.75,136.445h-35.788c-9.448,0-17.178-7.73-17.178-17.178v-4.295
		c0-9.448,7.73-17.178,17.178-17.178h35.788c9.448,0,17.178,7.73,17.178,17.178v4.295
		C220.928,128.715,213.198,136.445,203.75,136.445z"/>
	<path style="fill:#FECF2B;" d="M340.129,80.616v-4.295c0-9.448-7.73-17.178-17.178-17.178H308.25
		c-9.448,0-17.178,7.73-17.178,17.178v4.295c0,9.448,7.73,17.178,17.178,17.178h14.701
		C332.399,97.794,340.129,90.064,340.129,80.616z"/>
	<path style="fill:#F6AC2B;" d="M220.928,80.616v-4.295c0-9.448-7.73-17.178-17.178-17.178h-14.701
		c-9.448,0-17.178,7.73-17.178,17.178v4.295c0,9.448,7.73,17.178,17.178,17.178h14.701
		C213.198,97.794,220.928,90.064,220.928,80.616z"/>
	<path style="fill:#FECF2B;" d="M273.894,97.794h-35.788c-9.448,0-17.178-7.73-17.178-17.178v-4.295
		c0-9.448,7.73-17.178,17.178-17.178h35.788c9.448,0,17.178,7.73,17.178,17.178v4.295C291.072,90.064,283.342,97.794,273.894,97.794
		z"/>
	<path style="fill:#FECF2B;" d="M344.038,175.096H308.25c-9.448,0-17.178-7.73-17.178-17.178v-4.295
		c0-9.448,7.73-17.178,17.178-17.178h35.788c9.448,0,17.178,7.73,17.178,17.178v4.295
		C361.216,167.365,353.486,175.096,344.038,175.096z"/>
	<path style="fill:#FECF2B;" d="M273.894,175.096h-35.788c-9.448,0-17.178-7.73-17.178-17.178v-4.295
		c0-9.448,7.73-17.178,17.178-17.178h35.788c9.448,0,17.178,7.73,17.178,17.178v4.295
		C291.072,167.365,283.342,175.096,273.894,175.096z"/>
	<path style="fill:#F6AC2B;" d="M203.75,175.096h-35.788c-9.448,0-17.178-7.73-17.178-17.178v-4.295
		c0-9.448,7.73-17.178,17.178-17.178h35.788c9.448,0,17.178,7.73,17.178,17.178v4.295
		C220.928,167.365,213.198,175.096,203.75,175.096z"/>
	<path style="fill:#FECF2B;" d="M344.038,213.747H308.25c-9.448,0-17.178-7.73-17.178-17.178v-4.294
		c0-9.448,7.73-17.178,17.178-17.178h35.788c9.448,0,17.178,7.73,17.178,17.178v4.294
		C361.216,206.016,353.486,213.747,344.038,213.747z"/>
	<path style="fill:#FECF2B;" d="M273.894,213.747h-35.788c-9.448,0-17.178-7.73-17.178-17.178v-4.294
		c0-9.448,7.73-17.178,17.178-17.178h35.788c9.448,0,17.178,7.73,17.178,17.178v4.294
		C291.072,206.016,283.342,213.747,273.894,213.747z"/>
	<path style="fill:#F6AC2B;" d="M203.75,213.747h-35.788c-9.448,0-17.178-7.73-17.178-17.178v-4.294
		c0-9.448,7.73-17.178,17.178-17.178h35.788c9.448,0,17.178,7.73,17.178,17.178v4.294
		C220.928,206.016,213.198,213.747,203.75,213.747z"/>
	<path style="fill:#FECF2B;" d="M344.038,252.397H308.25c-9.448,0-17.178-7.73-17.178-17.178v-4.294
		c0-9.448,7.73-17.178,17.178-17.178h35.788c9.448,0,17.178,7.73,17.178,17.178v4.294
		C361.216,244.667,353.486,252.397,344.038,252.397z"/>
	<path style="fill:#FECF2B;" d="M273.894,252.397h-35.788c-9.448,0-17.178-7.73-17.178-17.178v-4.294
		c0-9.448,7.73-17.178,17.178-17.178h35.788c9.448,0,17.178,7.73,17.178,17.178v4.294
		C291.072,244.667,283.342,252.397,273.894,252.397z"/>
	<path style="fill:#FABD2B;" d="M256,273.87v-4.294c0-9.448,7.73-17.178,17.178-17.178h-35.072c-9.448,0-17.178,7.73-17.178,17.178
		v4.294c0,9.448,7.73,17.178,17.178,17.178h35.072C263.73,291.048,256,283.318,256,273.87z"/>
	<path style="fill:#FABD2B;" d="M256,312.521v-4.294c0-9.448,7.73-17.178,17.178-17.178h-35.072c-9.448,0-17.178,7.73-17.178,17.178
		v4.294c0,9.448,7.73,17.178,17.178,17.178h35.072C263.73,329.699,256,321.969,256,312.521z"/>
	<path style="fill:#FABD2B;" d="M256,351.172v-4.294c0-9.448,7.73-17.178,17.178-17.178h-35.072c-9.448,0-17.178,7.73-17.178,17.178
		v4.294c0,9.448,7.73,17.178,17.178,17.178h35.072C263.73,368.35,256,360.619,256,351.172z"/>
	<path style="fill:#FABD2B;" d="M256,389.823v-4.294c0-9.448,7.73-17.178,17.178-17.178h-35.072c-9.448,0-17.178,7.73-17.178,17.178
		v4.294c0,9.448,7.73,17.178,17.178,17.178h35.072C263.73,407.001,256,399.271,256,389.823z"/>
	<path style="fill:#FABD2B;" d="M256,428.473v-4.294c0-9.448,7.73-17.178,17.178-17.178h-35.072c-9.448,0-17.178,7.73-17.178,17.178
		v4.294c0,9.448,7.73,17.178,17.178,17.178h35.072C263.73,445.652,256,437.921,256,428.473z"/>
	<path style="fill:#FABD2B;" d="M256,119.267v-4.295c0-9.448,7.73-17.178,17.178-17.178h-35.072c-9.448,0-17.178,7.73-17.178,17.178
		v4.295c0,9.448,7.73,17.178,17.178,17.178h35.072C263.73,136.445,256,128.714,256,119.267z"/>
	<path style="fill:#FABD2B;" d="M256,80.616v-4.294c0-9.448,7.73-17.178,17.178-17.178h-35.072c-9.448,0-17.178,7.73-17.178,17.178
		v4.294c0,9.448,7.73,17.178,17.178,17.178h35.072C263.73,97.794,256,90.064,256,80.616z"/>
	<path style="fill:#FABD2B;" d="M256,157.918v-4.295c0-9.448,7.73-17.178,17.178-17.178h-35.072c-9.448,0-17.178,7.73-17.178,17.178
		v4.295c0,9.448,7.73,17.178,17.178,17.178h35.072C263.73,175.095,256,167.365,256,157.918z"/>
	<path style="fill:#FABD2B;" d="M256,196.569v-4.295c0-9.448,7.73-17.178,17.178-17.178h-35.072c-9.448,0-17.178,7.73-17.178,17.178
		v4.295c0,9.448,7.73,17.178,17.178,17.178h35.072C263.73,213.746,256,206.016,256,196.569z"/>
	<path style="fill:#FABD2B;" d="M256,235.219v-4.294c0-9.448,7.73-17.178,17.178-17.178h-35.072c-9.448,0-17.178,7.73-17.178,17.178
		v4.294c0,9.448,7.73,17.178,17.178,17.178h35.072C263.73,252.397,256,244.667,256,235.219z"/>
	<path style="fill:#F6AC2B;" d="M203.75,252.397h-35.788c-9.448,0-17.178-7.73-17.178-17.178v-4.294
		c0-9.448,7.73-17.178,17.178-17.178h35.788c9.448,0,17.178,7.73,17.178,17.178v4.294
		C220.928,244.667,213.198,252.397,203.75,252.397z"/>
	<path style="fill:#96CC1F;" d="M354.973,255.423c-0.165-0.028-0.342-0.05-0.509-0.078c-10.012,5.369-19.066,12.277-26.651,20.583
		c-49.698,54.421-67.139,156.46-72.848,236.059c0.346,0.001,0.689,0.013,1.035,0.013c38.284,0,74.513-8.787,106.79-24.444
		c1.212-14.293,2.367-26.327,3.632-33.801c6.763-39.965,19.933-72.293,19.933-72.293l0.792-1.573v-89.522
		C387.148,273.403,373.725,258.649,354.973,255.423z"/>
	<path style="fill:#7FBC0A;" d="M327.813,275.928c7.586-8.306,16.639-15.213,26.651-20.583c0.167,0.028,0.344,0.05,0.509,0.078
		c18.752,3.226,32.175,17.98,32.175,34.944v89.521l-0.792,1.573c0,0-4.037,9.917-8.787,25.539c0,0,12.489-84.947-87.241-68.921
		C300.138,314.186,312.429,292.774,327.813,275.928z"/>
	<path style="fill:#B4E234;" d="M354.711,259.046c-1.716-0.295-3.525-0.54-5.417-0.735c22.149-13.545,49.818-19.112,77-14.792
		c0.115,0.018,0.23,0.037,0.345,0.055c34.437,5.531,58.079,35.174,58.079,63.557v142.845c0,8.532-9.432,14.615-18.529,11.873
		c-73.447-22.144-79.835-80.388-79.835-80.388v-88.047C386.356,276.731,373.154,262.219,354.711,259.046z"/>
	<path style="fill:#96CC1F;" d="M435.57,378.527v-98.633c0-17.572-13.075-32.991-31.81-37.726
		c-19.528,0.726-38.441,6.345-54.466,16.145c1.892,0.195,3.701,0.439,5.417,0.735c18.443,3.172,31.645,17.684,31.645,34.368v88.047
		c0,0,6.388,58.244,79.834,80.388c9.06,2.732,18.445-3.293,18.522-11.77C440.202,420.656,435.57,378.527,435.57,378.527z"/>
	<path style="fill:#7FBC0A;" d="M257.035,511.987c-5.709-79.599-23.15-181.638-72.848-236.059
		c-7.585-8.306-16.639-15.214-26.651-20.583c-0.167,0.028-0.344,0.05-0.509,0.078c-18.753,3.226-32.175,17.98-32.175,34.944v89.522
		l0.792,1.573c0,0,13.17,32.327,19.933,72.293c1.265,7.474,2.42,19.508,3.632,33.801C181.487,503.213,217.717,512,256,512
		C256.346,512,256.689,511.988,257.035,511.987z"/>
	<path style="fill:#7FBC0A;" d="M257.035,511.987c-5.709-79.599-23.15-181.638-72.848-236.059
		c-7.585-8.306-16.639-15.214-26.651-20.583c-0.167,0.028-0.344,0.05-0.509,0.078c-18.753,3.226-32.175,17.98-32.175,34.944v89.522
		l0.792,1.573c0,0,13.17,32.327,19.933,72.293c1.265,7.474,2.42,19.508,3.632,33.801C181.487,503.213,217.717,512,256,512
		C256.346,512,256.689,511.988,257.035,511.987z"/>
	<path style="fill:#79AD05;" d="M184.187,275.928c-7.586-8.306-16.639-15.213-26.651-20.583c-0.167,0.028-0.344,0.05-0.509,0.078
		c-18.752,3.226-32.175,17.98-32.175,34.944v89.521l0.792,1.573c0,0,4.037,9.917,8.787,25.539c0,0-12.489-84.947,87.242-68.921
		C211.862,314.186,199.571,292.774,184.187,275.928z"/>
	<path style="fill:#96CC1F;" d="M157.289,259.046c1.716-0.295,3.525-0.54,5.417-0.735c-22.149-13.545-49.818-19.112-77-14.792
		c-0.115,0.018-0.23,0.037-0.345,0.055c-34.437,5.531-58.08,35.174-58.08,63.557v142.845c0,8.532,9.432,14.615,18.529,11.873
		c73.447-22.144,79.834-80.388,79.834-80.388v-88.047C125.644,276.731,138.846,262.219,157.289,259.046z"/>
	<path style="fill:#7FBC0A;" d="M67.947,440.965V298.12c0-21.746,13.889-44.219,35.869-56.034
		c-6.017,0.005-12.076,0.475-18.111,1.434c-0.115,0.018-0.23,0.036-0.345,0.055c-34.437,5.531-58.08,35.174-58.08,63.557v142.845
		c0,8.532,9.432,14.615,18.529,11.872c10.359-3.123,19.383-6.965,27.244-11.26C69.981,448.322,67.947,444.913,67.947,440.965z"/>
</g>
<g>
</g>
<g>
</g>
<g>
</g>
<g>
</g>
<g>
</g>
<g>
</g>
<g>
</g>
<g>
</g>
<g>
</g>
<g>
</g>
<g>
</g>
<g>
</g>
<g>
</g>
<g>
</g>
<g>
</g>
</svg>
