<?xml version="1.0" encoding="iso-8859-1"?>
<!-- Generator: Adobe Illustrator 21.0.0, SVG Export Plug-In . SVG Version: 6.00 Build 0)  -->
<svg version="1.1" id="Capa_1" xmlns="http://www.w3.org/2000/svg" xmlns:xlink="http://www.w3.org/1999/xlink" x="0px" y="0px"
	 viewBox="0 0 512 512" style="enable-background:new 0 0 512 512;" xml:space="preserve">
<g>
	<circle style="fill:#FECF2B;" cx="256" cy="256" r="245.002"/>
	<path style="fill:#DB2640;" d="M65.88,270.851c1.477-1.773,3.278-3.189,5.337-4.299c-1.545-7.521-5.449-14.18-10.904-19.173
		c-11.494,10.892-23.125,17.972-33.099,19.801c-6.681,1.227-12.116,0.013-16.157-3.599c-2.455-2.195-4.249-5.11-5.567-8.284
		c-3.264,5.398-5.144,11.727-5.144,18.495c0,19.773,16.029,35.802,35.802,35.802c5.613,0,10.923-1.295,15.652-3.597
		C50.794,290.716,65.766,271.003,65.88,270.851z"/>
	<g>
		<path style="fill:#C61E3F;" d="M53.044,293.736c0-13.832-10.293-25.254-23.635-27.043c9.466-2.395,20.243-9.211,30.904-19.314
			c5.455,4.993,9.359,11.652,10.904,19.173c-2.059,1.11-3.86,2.525-5.337,4.299c-0.091,0.122-9.597,12.648-12.96,25.462
			C52.999,295.464,53.044,294.606,53.044,293.736z"/>
	</g>
	<path style="fill:#ED3346;" d="M167.088,120.724c-9.616,5.849-27.473,15.33-51.492,22.22c-3.049,15.693-7.836,30.534-13.751,44.176
		c11.066-9.994,31.128-24.889,52.439-24.889c22.443,0,23.69-22.941,22.418-36.706C176.271,120.87,171.082,118.294,167.088,120.724z"
		/>
	<g>
		<path style="fill:#DB2640;" d="M134.503,146.567c0,7.27,4.175,13.551,10.249,16.619c-17.626,3.434-33.51,15.449-42.907,23.935
			c5.915-13.643,10.702-28.484,13.751-44.176c8.458-2.426,16.132-5.174,22.971-7.971
			C136.029,138.155,134.503,142.18,134.503,146.567z"/>
	</g>
	<path style="fill:#F94862;" d="M69.815,350.508c5.235-2.453,11.463-0.195,13.914,5.037c2.451,5.233,0.196,11.463-5.037,13.914
		l-31.495,14.753c-3.658-5.944-7.066-12.057-10.216-18.324L69.815,350.508z"/>
	<g>
		<path style="fill:#ED3346;" d="M151.469,377.495c7.517,0,13.769-5.924,14.101-13.507c0.342-7.794-5.699-14.389-13.493-14.732
			l-77.204-3.386c-7.799-0.361-14.389,5.699-14.731,13.493c-0.342,7.794,5.699,14.389,13.493,14.732l77.204,3.386
			C151.05,377.491,151.26,377.495,151.469,377.495z"/>
	</g>
	<g>
		<path style="fill:#DB2640;" d="M115.419,360.593c0-5.36-2.502-10.129-6.395-13.225l43.053,1.889
			c7.794,0.342,13.835,6.937,13.493,14.732c-0.333,7.583-6.585,13.507-14.101,13.507c-0.209,0-0.419-0.004-0.629-0.014
			l-44.428-1.949C111.767,372.697,115.419,367.075,115.419,360.593z"/>
	</g>
	<path style="fill:#F94862;" d="M87.34,401.61c4.296-3.868,10.911-3.518,14.777,0.778c3.866,4.295,3.518,10.911-0.778,14.777
		L85.233,431.66c-5.004-4.865-9.811-9.931-14.386-15.206L87.34,401.61z"/>
	<g>
		<path style="fill:#ED3346;" d="M94.33,423.516c1.161,0,2.34-0.144,3.517-0.445l74.86-19.185
			c7.557-1.936,12.113-9.633,10.177-17.19c-1.937-7.558-9.634-12.117-17.191-10.176l-74.86,19.185
			c-7.557,1.936-12.113,9.633-10.177,17.19C82.292,419.274,88.034,423.516,94.33,423.516z"/>
	</g>
	<g>
		<path style="fill:#DB2640;" d="M131.77,403.593c0-7.099-4.381-13.165-10.582-15.669l44.505-11.406
			c7.556-1.94,15.253,2.619,17.191,10.176c1.936,7.558-2.62,15.254-10.177,17.19l-46.042,11.799
			C129.811,412.615,131.77,408.336,131.77,403.593z"/>
	</g>
	<path style="fill:#ED3346;" d="M122.279,451.816l59.558-49.242c6.013-4.971,14.917-4.127,19.888,1.885
		c4.971,6.012,4.127,14.916-1.885,19.888l-58.379,48.268c-8.153-4.32-16.033-9.082-23.607-14.263
		C118.651,455.88,120.128,453.594,122.279,451.816z"/>
	<g>
		<path style="fill:#DB2640;" d="M170.02,445.2c0-9.335-7.567-16.902-16.902-16.902c-0.913,0-1.802,0.093-2.676,0.232l31.394-25.957
			c6.014-4.971,14.917-4.127,19.888,1.886c4.971,6.012,4.128,14.917-1.885,19.888l-30.384,25.122
			C169.811,448.103,170.02,446.677,170.02,445.2z"/>
	</g>
	<path style="fill:#ED3346;" d="M177.465,69.912c-43.532-18.163-51.041,12.383-106.642,37.866
		C9.754,135.768,0.085,231.442,0.085,231.442s-3.053,43.257,27.481,37.659c30.534-5.598,76.336-58.015,89.567-126.209
		c9.075-46.768,40.649-60.505,59.594-64.519C180.98,77.472,181.477,71.586,177.465,69.912z"/>
	<path style="fill:#ED3346;" d="M136.42,277.978c1.021-1.37,2.067-2.698,3.122-4.011c-24.374-9.661-61.611-20.64-75.162-4.365
		c0,0-29.137,37.905-5.053,51.575c16.386,9.3,47.553,13.729,65.808,15.611C119.847,317.003,123.529,295.274,136.42,277.978z"/>
	<path style="fill:#DB2640;" d="M73.127,327.003c19.202-0.472,34.626-16.174,34.626-35.49c0-12.701-6.672-23.837-16.697-30.114
		c15.709,0.869,34.28,6.938,48.486,12.568c-1.055,1.313-2.101,2.641-3.122,4.011c-12.891,17.296-16.573,39.025-11.285,58.809
		C111.213,335.352,89.785,332.432,73.127,327.003z"/>
	<path style="fill:#DB2640;" d="M61.726,112.673c2.9-1.796,5.925-3.441,9.097-4.895c55.601-25.483,63.11-56.029,106.642-37.866
		c4.013,1.674,3.516,7.56-0.738,8.461c-18.944,4.015-50.52,17.751-59.594,64.52C102.18,95.094,61.726,112.673,61.726,112.673z"/>
	<path style="fill:#DB2640;" d="M446.12,270.851c-1.477-1.773-3.278-3.189-5.337-4.299c1.545-7.521,5.449-14.18,10.904-19.173
		c11.494,10.892,23.125,17.972,33.099,19.801c6.681,1.227,12.116,0.013,16.156-3.599c2.455-2.195,4.249-5.11,5.568-8.284
		c3.264,5.398,5.144,11.727,5.144,18.495c0,19.773-16.029,35.802-35.802,35.802c-5.613,0-10.923-1.295-15.652-3.597
		C461.206,290.716,446.234,271.003,446.12,270.851z"/>
	<g>
		<path style="fill:#C61E3F;" d="M458.956,293.736c0-13.832,10.293-25.254,23.635-27.043c-9.466-2.395-20.243-9.211-30.904-19.314
			c-5.455,4.993-9.359,11.652-10.904,19.173c2.059,1.11,3.86,2.525,5.337,4.299c0.091,0.122,9.597,12.648,12.96,25.462
			C459.001,295.464,458.956,294.606,458.956,293.736z"/>
	</g>
	<path style="fill:#ED3346;" d="M344.912,120.724c9.616,5.849,27.473,15.33,51.492,22.22c3.049,15.693,7.836,30.534,13.751,44.176
		c-11.066-9.994-31.128-24.889-52.439-24.889c-22.443,0-23.69-22.941-22.418-36.706C335.729,120.87,340.918,118.294,344.912,120.724
		z"/>
	<g>
		<path style="fill:#DB2640;" d="M377.497,146.567c0,7.27-4.175,13.551-10.249,16.619c17.626,3.434,33.51,15.449,42.907,23.935
			c-5.914-13.643-10.702-28.484-13.751-44.176c-8.457-2.426-16.132-5.174-22.971-7.971
			C375.971,138.155,377.497,142.18,377.497,146.567z"/>
	</g>
	<path style="fill:#F94862;" d="M442.185,350.508c-5.235-2.453-11.463-0.195-13.914,5.037c-2.451,5.233-0.196,11.463,5.037,13.914
		l31.495,14.753c3.658-5.944,7.066-12.057,10.216-18.324L442.185,350.508z"/>
	<g>
		<path style="fill:#ED3346;" d="M360.531,377.495c-7.517,0-13.769-5.924-14.101-13.507c-0.342-7.794,5.699-14.389,13.493-14.732
			l77.204-3.386c7.798-0.361,14.389,5.699,14.731,13.493c0.342,7.794-5.699,14.389-13.493,14.732l-77.204,3.386
			C360.95,377.491,360.74,377.495,360.531,377.495z"/>
	</g>
	<g>
		<path style="fill:#DB2640;" d="M396.581,360.593c0-5.36,2.503-10.129,6.395-13.225l-43.053,1.889
			c-7.793,0.342-13.835,6.937-13.493,14.732c0.333,7.583,6.585,13.507,14.101,13.507c0.209,0,0.419-0.004,0.629-0.014l44.428-1.949
			C400.233,372.697,396.581,367.075,396.581,360.593z"/>
	</g>
	<path style="fill:#F94862;" d="M424.66,401.61c-4.296-3.868-10.911-3.518-14.777,0.778c-3.866,4.295-3.518,10.911,0.778,14.777
		l16.106,14.495c5.004-4.865,9.811-9.931,14.386-15.206L424.66,401.61z"/>
	<g>
		<path style="fill:#ED3346;" d="M417.67,423.516c-1.161,0-2.34-0.144-3.517-0.445l-74.86-19.185
			c-7.557-1.936-12.113-9.633-10.177-17.19c1.937-7.558,9.634-12.117,17.191-10.176l74.86,19.185
			c7.557,1.936,12.113,9.633,10.177,17.19C429.708,419.274,423.966,423.516,417.67,423.516z"/>
	</g>
	<g>
		<path style="fill:#DB2640;" d="M380.23,403.593c0-7.099,4.381-13.165,10.583-15.669l-44.505-11.406
			c-7.556-1.94-15.253,2.619-17.191,10.176c-1.936,7.558,2.62,15.254,10.177,17.19l46.042,11.799
			C382.189,412.615,380.23,408.336,380.23,403.593z"/>
	</g>
	<path style="fill:#ED3346;" d="M389.721,451.816l-59.558-49.242c-6.013-4.971-14.917-4.127-19.888,1.885
		c-4.971,6.012-4.127,14.916,1.885,19.888l58.379,48.268c8.153-4.32,16.033-9.082,23.607-14.263
		C393.349,455.88,391.872,453.594,389.721,451.816z"/>
	<g>
		<path style="fill:#DB2640;" d="M341.98,445.2c0-9.335,7.567-16.902,16.902-16.902c0.913,0,1.802,0.093,2.676,0.232l-31.394-25.957
			c-6.014-4.971-14.917-4.127-19.888,1.886c-4.971,6.012-4.127,14.917,1.885,19.888l30.384,25.122
			C342.189,448.103,341.98,446.677,341.98,445.2z"/>
	</g>
	<path style="fill:#ED3346;" d="M334.535,69.912c43.532-18.163,51.041,12.383,106.642,37.866
		c61.069,27.99,70.738,123.664,70.738,123.664s3.053,43.257-27.481,37.659c-30.534-5.598-76.336-58.015-89.567-126.209
		c-9.075-46.768-40.649-60.505-59.594-64.519C331.02,77.472,330.523,71.586,334.535,69.912z"/>
	<path style="fill:#ED3346;" d="M375.58,277.978c-1.021-1.37-2.067-2.698-3.122-4.011c24.374-9.661,61.611-20.64,75.162-4.365
		c0,0,29.137,37.905,5.053,51.575c-16.386,9.3-47.553,13.729-65.808,15.611C392.153,317.003,388.471,295.274,375.58,277.978z"/>
	<path style="fill:#DB2640;" d="M438.873,327.003c-19.202-0.472-34.626-16.174-34.626-35.49c0-12.701,6.672-23.837,16.697-30.114
		c-15.709,0.869-34.28,6.938-48.486,12.568c1.055,1.313,2.1,2.641,3.121,4.011c12.891,17.296,16.573,39.025,11.285,58.809
		C400.787,335.352,422.215,332.432,438.873,327.003z"/>
	<path style="fill:#ED3346;" d="M304.286,425.877H256h-48.286c-1.386,0-2.759-0.113-4.107-0.334
		c1.462,19.582,24.358,35.141,52.393,35.141s50.93-15.56,52.393-35.141C307.045,425.763,305.672,425.877,304.286,425.877z"/>
	<path style="fill:#DB2640;" d="M256,460.684L256,460.684c-7.465-11.407-6.823-19.976-4.677-25.424
		c1.233-3.132,0.972-6.559-0.559-9.383h-43.05c-1.386,0-2.759-0.113-4.107-0.334C205.07,445.125,227.966,460.684,256,460.684
		L256,460.684z"/>
	<path style="fill:#FF6683;" d="M377.44,276.704c-36.898-49.509-96.906-60.366-115.655-62.598c-3.86-0.46-7.74-0.457-11.6,0.004
		c-18.784,2.241-78.747,13.113-115.625,62.595c-18.946,25.421-17.662,60.603,3.158,84.514l50.794,58.338
		c4.836,5.554,11.839,8.742,19.203,8.742H256h48.286c7.364,0,14.367-3.188,19.203-8.742l50.794-58.338
		C395.102,337.307,396.387,302.125,377.44,276.704z"/>
	<path style="fill:#F94862;" d="M247.912,422.486c-40.628-32.188-16.266-65.216-16.266-65.216l-8.732-37.579c0,0,0,0-27.073-33.694
		c-27.073-33.695,2.656-58.025,2.656-58.025l0,0c-21.773,9.209-45.683,24.238-63.937,48.731
		c-18.946,25.421-17.662,60.603,3.157,84.514l50.795,58.339c4.835,5.554,11.839,8.742,19.203,8.742h44.013
		C251.13,426.057,249.829,424.005,247.912,422.486z"/>
	<circle style="fill:#1D3260;" cx="297.628" cy="216.117" r="19.812"/>
	<path style="fill:#36527A;" d="M317.134,212.757c-1.411-8.244-7.902-14.735-16.146-16.146c-6.137,1.313-10.741,6.762-10.741,13.291
		c0,7.509,6.087,13.597,13.597,13.597C310.373,223.498,315.822,218.894,317.134,212.757z"/>
	<g>
		<path style="fill:#ED3346;" d="M229.523,357.563c-3.43,0-6.581-2.266-7.552-5.731l-8.784-31.336l-18.618-23.474
			c-2.693-3.396-2.124-8.332,1.272-11.024c3.396-2.693,8.332-2.123,11.025,1.272l19.6,24.712c0.647,0.816,1.126,1.755,1.408,2.758
			l9.211,32.857c1.17,4.173-1.265,8.505-5.438,9.675C230.938,357.468,230.224,357.563,229.523,357.563z"/>
	</g>
	<g>
		<path style="fill:#ED3346;" d="M282.477,357.563c-0.701,0-1.414-0.095-2.122-0.293c-4.173-1.17-6.608-5.501-5.438-9.675
			l9.211-32.857c0.281-1.003,0.76-1.941,1.408-2.758l19.598-24.712c2.694-3.396,7.629-3.966,11.025-1.272
			c3.396,2.693,3.965,7.629,1.272,11.024l-18.618,23.474l-8.784,31.336C289.058,355.297,285.907,357.563,282.477,357.563z"/>
	</g>
	<circle style="fill:#1D3260;" cx="214.372" cy="216.117" r="19.812"/>
	<path style="fill:#36527A;" d="M194.866,212.757c1.411-8.244,7.902-14.735,16.146-16.146c6.137,1.313,10.741,6.762,10.741,13.291
		c0,7.509-6.087,13.597-13.597,13.597C201.627,223.498,196.178,218.894,194.866,212.757z"/>
	<path style="fill:#DB2640;" d="M450.274,112.673c-2.9-1.796-5.925-3.441-9.097-4.895c-55.601-25.483-63.11-56.029-106.642-37.866
		c-4.013,1.674-3.516,7.56,0.738,8.461c18.944,4.015,50.52,17.751,59.594,64.52C409.82,95.094,450.274,112.673,450.274,112.673z"/>
</g>
<g>
</g>
<g>
</g>
<g>
</g>
<g>
</g>
<g>
</g>
<g>
</g>
<g>
</g>
<g>
</g>
<g>
</g>
<g>
</g>
<g>
</g>
<g>
</g>
<g>
</g>
<g>
</g>
<g>
</g>
</svg>
