<?xml version="1.0" encoding="iso-8859-1"?>
<!-- Generator: Adobe Illustrator 21.0.0, SVG Export Plug-In . SVG Version: 6.00 Build 0)  -->
<svg version="1.1" id="Capa_1" xmlns="http://www.w3.org/2000/svg" xmlns:xlink="http://www.w3.org/1999/xlink" x="0px" y="0px"
	 viewBox="0 0 512 512" style="enable-background:new 0 0 512 512;" xml:space="preserve">
<g>
	<path style="fill:#1D3260;" d="M101.256,456.94l383.889-103.096c10.237-26.995,15.857-56.262,15.857-86.846
		c0-135.311-109.691-245.002-245.001-245.002c-135.311,0-245.002,109.691-245.002,245.002
		C10.998,343.618,46.178,412.013,101.256,456.94z"/>
	<path style="fill:#D1F44E;" d="M208.024,133.992c0.657-8.209,3.437-22.943,14.085-38.856c3.228-4.824,7.661-6.797,12.706-6.783
		c1.893,0.005,3.615-1.085,4.307-2.847l1.202-3.064c4.1-11.066,10.405-17.331,17.2-20.69c19.083-9.436,41.313,3.967,43.422,25.151
		c1.159,11.648-2.885,24.579-21.979,32.327c-2.192,0.889-3.359,3.236-2.801,5.534c1.103,4.541,0.23,12.063-14.354,17.157
		c-13.063,4.563-21.263,9.572-25.791,12.912c-2.493,1.839-3.411,5.127-2.202,7.98c1.983,4.678,2.952,11.932-8.466,14.196
		c-14.283,2.831-28.446,15.27-35.463,23.268c-2.099,2.393-5.632,2.886-8.277,1.116l-0.01-0.006
		c-2.186-1.463-3.238-4.126-2.632-6.686c3.094-13.068,13.157-51.796,24.385-54.804C206.006,139.184,207.805,136.726,208.024,133.992
		z"/>
	<g>
		<path style="fill:#B4E234;" d="M257.523,61.75c-6.794,3.36-13.1,9.625-17.2,20.69l-1.202,3.065
			c-0.691,1.763-2.413,2.853-4.307,2.848c-5.045-0.014-9.478,1.959-12.706,6.783c-10.648,15.913-13.429,30.647-14.085,38.856
			c-0.219,2.735-2.018,5.192-4.667,5.902c-10.344,2.771-19.693,35.84-23.522,51.252h3.685c7.458-12.89,25.477-42.581,34.642-45.195
			c2.3-0.656,4.465-2.796,5.474-5.144c3.027-7.051,9.719-19.736,22.955-33.572c4.012-4.194,8.1-5.964,12.06-6.042
			c1.486-0.029,3.173-0.995,4.256-2.519l1.881-2.649c6.607-9.562,13.479-15.046,19.847-18.048c4.634-2.185,8.96-3.048,12.751-2.828
			C289.972,61.243,272.751,54.221,257.523,61.75z"/>
	</g>
	<path style="fill:#96CC1F;" d="M171.118,116.37c-3.497-9.164-8.052-26.432-4.75-48.997c1.001-6.84,4.758-11.232,10.19-13.8
		c2.038-0.964,3.332-3.018,3.173-5.267l-0.277-3.911c-1.257-13.999,2.315-23.965,7.901-31.057
		c15.689-19.918,46.458-16.889,59.572,4.811c7.212,11.933,9.484,27.908-7.081,46.017c-1.901,2.079-1.955,5.199-0.178,7.385
		c3.512,4.319,6.424,12.854-6.65,25.8c-11.711,11.596-17.964,21.181-21.123,27.092c-1.74,3.255-1.043,7.26,1.718,9.708
		c4.528,4.014,9.285,11.32-1.835,19.6c-13.91,10.359-22.77,30.986-26.22,43.181c-1.032,3.648-4.578,5.987-8.329,5.438l-0.014-0.002
		c-3.1-0.454-5.595-2.779-6.254-5.842c-3.364-15.637-12.375-62.435-1.841-71.42C171.607,122.987,172.283,119.423,171.118,116.37z"/>
	<path style="fill:#7FBC0A;" d="M181.434,195.375c0.142-15.479,1.309-61.765,10.129-70.179c2.082-1.985,3.125-5.458,2.797-8.5
		c-0.986-9.13-1.418-26.256,4.504-48.279c1.795-6.676,5.13-10.842,9.349-13.153c1.583-0.868,2.818-2.834,3.066-5.048l0.431-3.849
		c1.357-13.79,5.455-23.436,10.504-30.182c3.841-5.132,8.189-8.555,12.6-10.404c-14.969-9.446-35.553-7.558-47.458,7.558
		c-5.586,7.092-9.159,17.058-7.901,31.057l0.277,3.911c0.159,2.249-1.134,4.303-3.173,5.267c-5.432,2.568-9.189,6.959-10.19,13.8
		c-3.302,22.564,1.253,39.832,4.75,48.997c1.165,3.053,0.489,6.617-1.997,8.737c-10.534,8.985-1.524,55.783,1.841,71.42
		c0.659,3.063,3.153,5.389,6.253,5.842l0.014,0.002c2.293,0.335,4.505-0.412,6.118-1.874
		C182.143,199.431,181.413,197.581,181.434,195.375z"/>
	<path style="fill:#96CC1F;" d="M136.345,133.992c-0.657-8.209-3.437-22.943-14.085-38.856c-3.228-4.824-7.661-6.797-12.706-6.783
		c-1.893,0.005-3.615-1.085-4.306-2.847l-1.202-3.064c-4.1-11.066-10.406-17.331-17.2-20.69
		c-19.082-9.436-41.313,3.967-43.421,25.151c-1.16,11.648,2.885,24.579,21.978,32.327c2.192,0.889,3.359,3.236,2.801,5.534
		c-1.103,4.541-0.23,12.063,14.354,17.157c13.063,4.563,21.263,9.572,25.792,12.912c2.493,1.839,3.411,5.127,2.202,7.98
		c-1.983,4.678-2.952,11.932,8.466,14.196c14.283,2.831,28.446,15.27,35.463,23.268c2.099,2.393,5.632,2.886,8.277,1.116l0.01-0.006
		c2.186-1.463,3.238-4.126,2.632-6.686c-3.094-13.068-13.157-51.796-24.385-54.804C138.362,139.184,136.564,136.726,136.345,133.992
		z"/>
	<g>
		<path style="fill:#7FBC0A;" d="M157.961,197.657c-5.749-8.887-17.012-23.51-27.482-29.57c-8.371-4.844-8.342-11.094-7.352-14.788
			c0.603-2.253-0.354-5.42-2.305-7.681c-3.543-4.105-9.863-10.611-19.621-17.919c-10.892-8.158-12.205-15.101-11.832-18.891
			c0.188-1.918-0.861-4.305-2.509-5.642C72.502,91.521,68.427,78.957,68.19,68.824c-0.089-3.816,0.477-7.111,1.547-9.835
			C56.402,60.912,44.91,71.966,43.424,86.901c-1.16,11.648,2.885,24.579,21.978,32.327c2.192,0.889,3.359,3.235,2.801,5.534
			c-1.103,4.542-0.23,12.063,14.354,17.157c13.063,4.563,21.264,9.572,25.792,12.912c2.494,1.839,3.412,5.127,2.202,7.98
			c-1.983,4.677-2.952,11.932,8.466,14.195c14.283,2.831,28.446,15.27,35.462,23.268c2.099,2.393,5.632,2.886,8.277,1.116
			l0.01-0.006c0.208-0.139,0.395-0.298,0.582-0.458C161.666,201.3,159.482,200.008,157.961,197.657z"/>
	</g>
	<path style="fill:#D1F44E;" d="M173.25,116.37c3.497-9.164,8.052-26.432,4.75-48.997c-1.001-6.84-4.758-11.232-10.19-13.8
		c-2.039-0.964-3.332-3.018-3.173-5.267l0.277-3.911c1.258-13.999-2.315-23.965-7.901-31.057
		c-15.689-19.918-46.458-16.889-59.572,4.811c-7.212,11.933-9.484,27.908,7.081,46.017c1.901,2.079,1.955,5.199,0.178,7.385
		c-3.512,4.319-6.424,12.854,6.65,25.8c11.711,11.596,17.964,21.181,21.123,27.092c1.74,3.255,1.043,7.26-1.718,9.708
		c-4.528,4.014-9.285,11.32,1.835,19.6c13.91,10.359,22.77,30.986,26.22,43.181c1.032,3.648,4.578,5.987,8.329,5.438l0.014-0.002
		c3.1-0.454,5.595-2.779,6.254-5.842c3.364-15.637,12.375-62.435,1.84-71.42C172.761,122.987,172.085,119.423,173.25,116.37z"/>
	<path style="fill:#B4E234;" d="M166.721,195.897c-1.867-12.47-6.954-33.877-15.545-45.605c-6.868-9.376-3.632-16.141-0.633-19.66
		c1.83-2.146,2.384-6.053,1.363-9.466c-1.854-6.198-5.58-16.367-12.734-29.097c-7.987-14.211-5.894-22.389-3.535-26.316
		c1.194-1.988,1.245-5.093,0.089-7.354c-10.073-19.702-8.185-35.336-3.256-46.444c1.988-4.48,4.506-7.953,7.323-10.419
		C124.519-3.089,106.64,2.93,97.441,18.151c-7.212,11.933-9.483,27.908,7.081,46.017c1.901,2.079,1.956,5.199,0.178,7.385
		c-3.512,4.319-6.424,12.854,6.65,25.8c11.711,11.596,17.964,21.182,21.123,27.092c1.74,3.255,1.043,7.26-1.718,9.708
		c-4.528,4.014-9.285,11.319,1.835,19.6c13.91,10.359,22.77,30.986,26.22,43.181c1.032,3.648,4.578,5.987,8.33,5.438l0.013-0.002
		c0.912-0.133,1.761-0.445,2.537-0.874C168.241,200.49,167.101,198.436,166.721,195.897z"/>
	<path style="fill:#FFA733;" d="M174.26,190.28c-0.976-0.017-1.961-0.026-2.955-0.026c-0.994,0-1.979,0.009-2.955,0.026
		c-61.425,1.083-106.851,57.729-95.688,118.141c11.205,59.027,20.27,107.632,27.663,147.768
		c36.598,30.149,82.098,49.874,131.961,54.664c8.764-48.269,20.788-113.542,37.662-202.433
		C281.111,248.009,235.686,191.362,174.26,190.28z"/>
	<g>
		<path style="fill:#FF8C33;" d="M137.232,308.421c-6.848-54.866,17.834-106.623,53.505-116.475
			c-5.337-0.996-10.838-1.567-16.476-1.667c-0.976-0.017-1.961-0.026-2.956-0.026c-0.994,0-1.979,0.009-2.955,0.026
			c-61.425,1.083-106.851,57.73-95.688,118.142c11.205,59.026,20.27,107.631,27.663,147.768
			c18.051,14.87,38.271,27.198,60.108,36.456C154.746,446.504,147.257,386.6,137.232,308.421z"/>
	</g>
	<g>
		<path style="fill:#FFBE69;" d="M271.641,300.564H248.08c-5.667,0-10.262-4.594-10.262-10.262c0-5.668,4.594-10.262,10.262-10.262
			h23.561c5.667,0,10.262,4.594,10.262,10.262C281.903,295.97,277.309,300.564,271.641,300.564z"/>
	</g>
	<g>
		<path style="fill:#FFBE69;" d="M186.822,319.278h-41.175c-5.667,0-10.262-4.594-10.262-10.262c0-5.668,4.594-10.262,10.262-10.262
			h41.175c5.667,0,10.262,4.594,10.262,10.262C197.084,314.685,192.49,319.278,186.822,319.278z"/>
	</g>
	<g>
		<path style="fill:#FFA733;" d="M112.392,356.619H79.841c-5.667,0-10.262-4.594-10.262-10.262c0-5.668,4.594-10.262,10.262-10.262
			h32.551c5.667,0,10.262,4.594,10.262,10.262C122.654,352.026,118.059,356.619,112.392,356.619z"/>
	</g>
	<g>
		<path style="fill:#FFBE69;" d="M262.77,356.619h-78.323c-5.667,0-10.262-4.594-10.262-10.262c0-5.668,4.594-10.262,10.262-10.262
			h78.323c5.668,0,10.262,4.594,10.262,10.262C273.032,352.026,268.438,356.619,262.77,356.619z"/>
	</g>
	<g>
		<path style="fill:#FFA733;" d="M143.272,259.216H79.841c-5.667,0-10.262-4.594-10.262-10.262c0-5.668,4.594-10.262,10.262-10.262
			h63.432c5.667,0,10.262,4.594,10.262,10.262C153.534,254.623,148.94,259.216,143.272,259.216z"/>
	</g>
	<path style="fill:#FFBE69;" d="M153.535,248.955c0-5.669-4.595-10.262-10.262-10.262h-21.454c-5.668,0-10.262,4.594-10.262,10.262
		c0,5.668,4.594,10.262,10.262,10.262h21.454C148.94,259.216,153.535,254.623,153.535,248.955z"/>
	<g>
		<path style="fill:#FFA733;" d="M157.246,462.332h-24.331c-5.667,0-10.262-4.594-10.262-10.262c0-5.668,4.594-10.262,10.262-10.262
			h24.331c5.668,0,10.262,4.594,10.262,10.262C167.508,457.738,162.914,462.332,157.246,462.332z"/>
	</g>
	<path style="fill:#FFBE69;" d="M167.508,452.07c0-5.668-4.595-10.262-10.262-10.262h-5.955c-5.668,0-10.262,4.594-10.262,10.262
		c0,5.668,4.594,10.262,10.262,10.262h5.955C162.913,462.332,167.508,457.738,167.508,452.07z"/>
	<path style="fill:#FF8C33;" d="M171.305,217.201c21.795,0,41.071-4.859,52.867-12.308c-14.462-8.946-31.464-14.288-49.912-14.613
		c-0.976-0.017-1.961-0.026-2.955-0.026c-0.994,0-1.979,0.009-2.955,0.026c-18.448,0.325-35.449,5.667-49.912,14.613
		C130.234,212.342,149.51,217.201,171.305,217.201z"/>
	<path style="fill:#FCC683;" d="M282.469,332.268c-58.33,0-105.615,47.286-105.615,105.615c0,25.939,9.357,49.689,24.871,68.072
		C219.184,509.905,237.347,512,256,512c45.28,0,87.682-12.298,124.074-33.715c5.158-12.447,8.01-26.09,8.01-40.402
		C388.084,379.554,340.799,332.268,282.469,332.268z"/>
	<path style="fill:#FFBE69;" d="M331.647,499.122c-26.646,0-31.518-17.781-32.299-26.573c-0.266-2.996-1.989-5.652-4.614-7.121
		c-23.991-13.431-29.287-36.657-30.42-47.811c-0.363-3.572-2.786-6.612-6.213-7.682c-16.28-5.083-18.905-19.032-18.798-27.966
		c0.049-4.119-2.68-7.722-6.652-8.813c-15.43-4.238-8.563-22.128-8.563-22.128L223,350.596
		c-27.857,19.016-46.146,51.014-46.146,87.288c0,25.939,9.356,49.689,24.871,68.073C219.184,509.905,237.347,512,256,512
		c27.334,0,53.616-4.488,78.164-12.752C333.36,499.172,332.529,499.122,331.647,499.122z"/>
	<path style="fill:#FFA733;" d="M282.469,360.336c-42.828,0-77.547,34.719-77.547,77.547c0,34.813,22.94,64.267,54.529,74.073
		c23.299-0.322,45.809-3.893,67.103-10.286c20.213-13.997,33.463-37.339,33.463-63.787
		C360.016,395.056,325.297,360.336,282.469,360.336z"/>
	<path style="fill:#FF8C33;" d="M330.062,499.088c-25.244-0.698-29.95-17.927-30.715-26.54c-0.266-2.996-1.989-5.652-4.614-7.121
		c-23.991-13.431-29.287-36.657-30.42-47.811c-0.363-3.572-2.786-6.612-6.213-7.682c-16.28-5.083-18.905-19.032-18.798-27.966
		c0.03-2.548-1.004-4.896-2.736-6.577c-19.186,14.117-31.644,36.846-31.644,62.493c0,34.813,22.94,64.267,54.529,74.073
		c23.299-0.322,45.809-3.893,67.103-10.286C327.748,500.843,328.917,499.98,330.062,499.088z"/>
	<circle style="fill:#FF8C33;" cx="282.469" cy="437.884" r="33.355"/>
	<path style="fill:#FF7133;" d="M297.403,467.707c-0.725-0.911-1.622-1.693-2.67-2.28c-23.991-13.431-29.287-36.657-30.42-47.811
		c-0.225-2.212-1.242-4.217-2.796-5.679c-7.563,6.115-12.403,15.463-12.403,25.947c0,18.422,14.934,33.355,33.355,33.355
		C287.84,471.239,292.909,469.962,297.403,467.707z"/>
	<path style="fill:#FCC683;" d="M485.568,352.73c-11.19-46.318-52.902-80.727-102.658-80.727
		c-58.33,0-105.615,47.286-105.615,105.615c0,54.736,41.64,99.746,94.97,105.083C424.121,454.693,464.72,408.53,485.568,352.73z"/>
	<path style="fill:#FFBE69;" d="M398.743,411.824c-0.266-2.997-1.989-5.652-4.614-7.122c-23.991-13.431-29.287-36.657-30.42-47.811
		c-0.363-3.572-2.786-6.612-6.213-7.682c-16.28-5.083-18.905-19.032-18.798-27.966c0.049-4.119-2.68-7.722-6.652-8.813
		c-15.43-4.238-8.563-22.128-8.563-22.128l0,0c-27.881,19.012-46.188,51.025-46.188,87.317c0,54.736,41.64,99.746,94.97,105.083
		c21.79-11.77,41.582-26.756,58.768-44.305C404.396,438.393,399.524,420.615,398.743,411.824z"/>
	<path style="fill:#FFA733;" d="M449.697,417.019c6.828-11.549,10.761-25.012,10.761-39.401c0-42.828-34.719-77.547-77.547-77.547
		c-42.828,0-77.547,34.719-77.547,77.547s34.719,77.547,77.547,77.547c18.191,0,34.906-6.281,48.132-16.769
		C437.66,431.64,443.892,424.504,449.697,417.019z"/>
	<path style="fill:#FF8C33;" d="M431.043,438.397c-26.646,0-31.518-17.781-32.299-26.573c-0.266-2.997-1.989-5.652-4.614-7.122
		c-23.991-13.431-29.287-36.657-30.42-47.811c-0.363-3.572-2.786-6.612-6.213-7.682c-16.28-5.083-18.905-19.032-18.798-27.966
		c0.026-2.199-0.746-4.247-2.069-5.848c-18.975,14.136-31.266,36.744-31.266,62.224c0,42.828,34.719,77.547,77.547,77.547
		C401.102,455.166,417.816,448.885,431.043,438.397z"/>
	<circle style="fill:#FF8C33;" cx="382.91" cy="377.619" r="33.355"/>
	<path style="fill:#FF7133;" d="M397.328,407.704c-0.793-1.228-1.882-2.265-3.199-3.002c-23.991-13.431-29.287-36.657-30.42-47.811
		c-0.189-1.86-0.946-3.567-2.103-4.935c-7.362,6.118-12.051,15.342-12.051,25.663c0,18.421,14.934,33.355,33.355,33.355
		C388.075,410.974,392.965,409.799,397.328,407.704z"/>
	<path style="fill:#FF7133;" d="M118.439,204.893c9.285,5.864,23.216,10.11,39.352,11.657c-0.431-0.3-15.363-10.869-0.842-25.404
		C142.887,193.017,129.868,197.823,118.439,204.893z"/>
</g>
<g>
</g>
<g>
</g>
<g>
</g>
<g>
</g>
<g>
</g>
<g>
</g>
<g>
</g>
<g>
</g>
<g>
</g>
<g>
</g>
<g>
</g>
<g>
</g>
<g>
</g>
<g>
</g>
<g>
</g>
</svg>
