<?xml version="1.0" encoding="iso-8859-1"?>
<!-- Generator: Adobe Illustrator 21.0.0, SVG Export Plug-In . SVG Version: 6.00 Build 0)  -->
<svg version="1.1" id="Capa_1" xmlns="http://www.w3.org/2000/svg" xmlns:xlink="http://www.w3.org/1999/xlink" x="0px" y="0px"
	 viewBox="0 0 512 512" style="enable-background:new 0 0 512 512;" xml:space="preserve">
<g>
	<path style="fill:#7FBC0A;" d="M250.501,21.996c-124.395,0-227.127,92.709-242.894,212.801l0.262,0.125l215.67,275.594
		c8.856,0.97,17.848,1.483,26.962,1.483c135.31,0,245.001-109.691,245.001-245.002S385.812,21.996,250.501,21.996z"/>
	<path style="fill:#B4E234;" d="M231.115,20.399h-18.083c-3.517,18.226-5.512,34.951-6.641,48.833h0.169
		c0.024-0.279,0.044-0.547,0.069-0.827c0.365-0.297,0.718-0.607,1.048-0.941c0.729-0.737,1.903-0.688,2.61,0.07
		c1.601,1.718,3.881,2.794,6.415,2.794c2.422,0,4.605-0.992,6.192-2.581c2.778-14.454,7.133-28.754,13.06-42.768
		C236.919,22.694,234.494,20.399,231.115,20.399z"/>
	<g>
		<path style="fill:#79AD05;" d="M216.701,68.327c-2.534,0-4.814-1.076-6.415-2.794c-0.707-0.759-1.881-0.808-2.61-0.07
			c-0.33,0.334-0.683,0.645-1.048,0.941c-0.998,11.398-1.417,21.038-1.587,28.217h9.615c1.751,0,3.398,0.44,4.84,1.213
			c0.508-10.257,1.814-20.478,3.896-30.619C221.784,67.115,219.386,68.327,216.701,68.327z"/>
	</g>
	<path style="fill:#B4E234;" d="M189.393,67.463c0.339,0.343,0.702,0.66,1.077,0.963c0.008,0.093,0.014,0.187,0.022,0.28h0.153
		c-1.323-16.274-3.517-32.418-6.601-48.307h-18.088c-3.379,0-5.805,2.295-4.839,4.58h0c5.927,14.014,10.282,28.314,13.06,42.767
		c1.587,1.589,3.769,2.581,6.191,2.581c2.534,0,4.814-1.075,6.415-2.794C187.489,66.775,188.664,66.726,189.393,67.463z"/>
	<g>
		<path style="fill:#79AD05;" d="M189.393,65.463c-0.729-0.737-1.903-0.688-2.61,0.07c-1.601,1.718-3.881,2.794-6.415,2.794
			c-2.685,0-5.082-1.212-6.691-3.112c2.082,10.142,3.388,20.363,3.897,30.619c1.442-0.772,3.089-1.213,4.84-1.213h9.601
			c-0.218-9.429-0.735-18.835-1.544-28.196C190.094,66.123,189.732,65.805,189.393,65.463z"/>
	</g>
	<path style="fill:#D1F44E;" d="M189.771,94.622h17.514c0.425-17.936,2.387-51.19,11.112-88.982c0.649-2.813-0.981-5.64-3.252-5.64
		c-12.327,0-23.435,0-33.219,0c-2.271,0-3.902,2.827-3.252,5.64C185.351,34.565,189.072,64.479,189.771,94.622z"/>
	<g>
		<path style="fill:#B4E234;" d="M207.676,65.463c-2.331,2.358-5.563,3.822-9.142,3.822c-3.578,0-6.811-1.464-9.142-3.822
			c-0.361-0.365-0.832-0.537-1.301-0.525c0.884,9.852,1.449,19.755,1.679,29.684h17.514c0.178-7.485,0.625-17.646,1.718-29.683
			C208.525,64.92,208.044,65.091,207.676,65.463z"/>
	</g>
	<path style="fill:#914E9B;" d="M265.838,155.646c-24.144-6.13-40.906-28.081-40.906-52.991c0-5.675-4.601-10.276-10.276-10.276
		h-32.243c-5.675,0-10.276,4.601-10.276,10.276c0,24.91-16.762,46.861-40.906,52.991C79.634,168.747,36.04,196.514,7.87,232.922
		c-1.55,11.138-2.37,22.511-2.37,34.076c0,126.788,96.308,231.079,219.759,243.715c111.614-10.715,198.184-87.68,198.184-181.049
		C423.443,247.971,357.172,178.837,265.838,155.646z"/>
	<path style="fill:#803F8E;" d="M225.258,510.713c85.043-8.164,155.537-54.793,184.286-117.831H196.621
		c0,0-37.482,5.125-59.009-14.554c-3.84-3.51-9.437-4.363-14.004-1.872c-14.081,7.679-44.647,18.265-72.26-13.249
		c-2.534-2.891-6.285-4.417-10.114-4.077c-4.949,0.439-12.357-0.016-19.622-4.612C53.969,439.09,131.834,501.151,225.258,510.713z"
		/>
	<path style="fill:#9E5AA5;" d="M244.397,155.646c-16.452-6.13-27.874-28.081-27.874-52.991c0-5.675-3.135-10.276-7.003-10.276
		h-21.971c-3.867,0-7.002,4.601-7.002,10.276c0,24.91-11.422,46.861-27.874,52.991C90.436,178.837,45.277,247.971,45.277,329.664
		c0,40.803,11.267,78.474,30.299,108.854c37.84,38.586,88.336,64.708,144.777,71.635c74.306-12.602,131.44-88.601,131.44-180.488
		C351.793,247.971,306.634,178.837,244.397,155.646z"/>
	<path style="fill:#914E9B;" d="M196.621,392.882c0,0-37.482,5.125-59.009-14.554c-3.84-3.51-9.437-4.363-14.004-1.872
		c-14.081,7.679-44.647,18.265-72.26-13.249c-1.103-1.259-2.445-2.24-3.916-2.94c4.117,28.979,13.978,55.636,28.145,78.25
		c37.839,38.586,88.335,64.708,144.777,71.635c56.331-9.554,102.784-55.546,121.966-117.27H196.621z"/>
	<path style="fill:#A866B2;" d="M219.137,155.646c-7.391-6.13-12.521-28.081-12.521-52.991c0-5.675-1.409-10.276-3.146-10.276h-9.87
		c-1.737,0-3.146,4.601-3.146,10.276c0,24.91-5.131,46.861-12.521,52.991c-27.958,23.191-48.244,92.325-48.244,174.018
		c0,77.421,18.22,143.564,43.923,170.012c12.166,4.018,24.754,7.107,37.68,9.187c31.926-15.845,56.088-90.043,56.088-179.199
		C267.38,247.971,247.094,178.837,219.137,155.646z"/>
	<path style="fill:#9E5AA5;" d="M196.621,392.882c0,0-37.482,5.125-59.009-14.554c-1.661-1.519-3.652-2.537-5.746-3.005
		c5.556,57.056,21.278,103.291,41.746,124.353c12.166,4.018,24.754,7.107,37.68,9.187c23.967-11.895,43.558-56.675,51.836-115.98
		H196.621z"/>
	<ellipse style="fill:#914E9B;" cx="337.161" cy="358.025" rx="169.34" ry="153.975"/>
	<path style="fill:#803F8E;" d="M411.125,454.879v-61.997H172.18C189.551,461.13,256.822,512,337.161,512
		c45.147,0,86.148-16.081,116.504-42.266C420.135,482.705,411.125,454.879,411.125,454.879z"/>
	
		<ellipse transform="matrix(0.6805 -0.7328 0.7328 0.6805 -163.6948 340.6508)" style="fill:#BE83CC;" cx="308.757" cy="358.025" rx="140.936" ry="140.936"/>
	<g>
		<path style="fill:#B275BF;" d="M397.24,451.503c-4.872-3.849-7.064-9.659-6.529-15.281c0.092-0.964-0.781-1.76-1.736-1.598
			c-5.133,0.872-10.595-0.557-14.705-4.374c-4.201-3.901-6.028-9.396-5.424-14.686c0.113-0.993-0.778-1.821-1.76-1.635
			c-5.23,0.993-10.846-0.423-15.047-4.324c-4.069-3.778-5.9-9.051-5.462-14.185c0.082-0.956-0.771-1.748-1.718-1.596
			c-5.087,0.817-10.481-0.62-14.549-4.398c-4.349-4.039-6.159-9.787-5.357-15.246c0.133-0.908-0.531-1.732-1.448-1.752
			c-7.33-0.164-14.631-2.908-20.427-8.29c-5.774-5.362-9.047-12.408-9.768-19.678c-0.09-0.909-0.956-1.508-1.848-1.312
			c-5.368,1.18-11.207-0.202-15.539-4.226c-4.111-3.817-5.939-9.16-5.448-14.344c0.091-0.968-0.774-1.771-1.732-1.609
			c-5.134,0.873-10.597-0.556-14.708-4.373c-4.201-3.901-6.028-9.396-5.425-14.686c0.113-0.993-0.778-1.821-1.76-1.635
			c-5.23,0.993-10.846-0.423-15.047-4.324c-4.068-3.778-5.9-9.051-5.462-14.185c0.082-0.956-0.771-1.748-1.719-1.596
			c-5.087,0.817-10.481-0.62-14.549-4.398c-4.219-3.918-6.031-9.443-5.405-14.754c-52.107,57.071-48.554,145.588,8.186,198.278
			c56.715,52.666,145.2,49.691,198.27-6.421C406.346,455.755,401.242,454.666,397.24,451.503z"/>
	</g>
	
		<ellipse transform="matrix(0.6805 -0.7328 0.7328 0.6805 -163.6948 340.6509)" style="fill:#B275BF;" cx="308.757" cy="358.025" rx="112.136" ry="112.136"/>
	<g>
		<path style="fill:#A866B2;" d="M388.976,434.625c-5.133,0.872-10.595-0.557-14.705-4.374c-4.201-3.901-6.028-9.396-5.424-14.686
			c0.113-0.993-0.778-1.821-1.76-1.635c-5.23,0.993-10.846-0.423-15.047-4.324c-4.069-3.778-5.9-9.051-5.462-14.185
			c0.082-0.956-0.771-1.748-1.718-1.596c-5.087,0.817-10.481-0.62-14.549-4.398c-4.349-4.039-6.159-9.787-5.357-15.246
			c0.133-0.908-0.531-1.732-1.448-1.752c-7.33-0.164-14.631-2.908-20.427-8.29c-5.774-5.362-9.047-12.408-9.768-19.678
			c-0.09-0.909-0.956-1.508-1.848-1.312c-5.368,1.18-11.207-0.202-15.539-4.226c-4.111-3.817-5.939-9.16-5.448-14.344
			c0.091-0.968-0.774-1.771-1.732-1.609c-5.134,0.873-10.597-0.556-14.708-4.373c-4.201-3.901-6.028-9.396-5.425-14.686
			c0.113-0.993-0.778-1.821-1.76-1.635c-5.23,0.993-10.846-0.423-15.047-4.324c-4.068-3.778-5.9-9.051-5.462-14.185
			c0.042-0.488-0.162-0.932-0.496-1.231c-41.36,45.412-38.504,115.766,6.607,157.657c45.145,41.922,115.589,39.535,157.809-5.166
			C389.933,434.714,389.467,434.542,388.976,434.625z"/>
	</g>
	
		<ellipse transform="matrix(0.6805 -0.7328 0.7328 0.6805 -163.6948 340.6505)" style="fill:#A866B2;" cx="308.757" cy="358.025" rx="82.101" ry="82.101"/>
	<g>
		<path style="fill:#9E5AA5;" d="M367.086,413.931c-5.23,0.993-10.846-0.423-15.047-4.324c-4.069-3.778-5.9-9.051-5.462-14.185
			c0.082-0.956-0.771-1.748-1.718-1.596c-5.087,0.817-10.481-0.62-14.549-4.398c-4.349-4.039-6.159-9.787-5.357-15.246
			c0.133-0.908-0.531-1.732-1.448-1.752c-7.33-0.164-14.631-2.908-20.427-8.29c-5.774-5.362-9.047-12.408-9.768-19.678
			c-0.09-0.909-0.956-1.508-1.848-1.312c-5.368,1.18-11.207-0.202-15.539-4.226c-4.111-3.817-5.939-9.16-5.448-14.344
			c0.091-0.968-0.774-1.771-1.732-1.609c-5.134,0.873-10.597-0.556-14.708-4.373c-4.201-3.901-6.028-9.396-5.425-14.686
			c0.056-0.492-0.135-0.942-0.461-1.249c-30.376,33.246-28.32,84.823,4.741,115.524c33.059,30.699,84.641,28.938,115.551-3.806
			C368.108,414.028,367.613,413.831,367.086,413.931z"/>
	</g>
	
		<ellipse transform="matrix(0.6805 -0.7328 0.7328 0.6805 -163.6948 340.6509)" style="fill:#9E5AA5;" cx="308.757" cy="358.025" rx="51.998" ry="51.998"/>
	<g>
		<path style="fill:#914E9B;" d="M344.859,393.827c-5.087,0.817-10.481-0.62-14.549-4.398c-4.349-4.039-6.159-9.787-5.357-15.246
			c0.133-0.908-0.531-1.732-1.448-1.752c-7.33-0.164-14.631-2.908-20.427-8.29c-5.774-5.362-9.047-12.408-9.768-19.678
			c-0.09-0.909-0.956-1.508-1.848-1.312c-5.368,1.18-11.207-0.202-15.539-4.226c-4.111-3.817-5.939-9.16-5.448-14.344
			c0.045-0.477-0.144-0.912-0.459-1.214c-18.858,21.068-17.447,53.44,3.359,72.761c20.772,19.289,53.089,18.337,72.714-1.93
			C345.768,393.907,345.326,393.752,344.859,393.827z"/>
	</g>
	
		<ellipse transform="matrix(0.6805 -0.7328 0.7328 0.6805 -163.6948 340.6498)" style="fill:#914E9B;" cx="308.757" cy="358.025" rx="22.04" ry="22.04"/>
	<path style="fill:#803F8E;" d="M323.504,372.43c-7.33-0.164-14.631-2.908-20.427-8.29c-5.774-5.362-9.047-12.408-9.768-19.678
		c-0.056-0.567-0.415-1.013-0.892-1.221c-8.081,8.927-7.508,22.716,1.342,30.934c8.866,8.234,22.697,7.769,30.996-0.998
		C324.505,372.744,324.052,372.443,323.504,372.43z"/>
</g>
<g>
</g>
<g>
</g>
<g>
</g>
<g>
</g>
<g>
</g>
<g>
</g>
<g>
</g>
<g>
</g>
<g>
</g>
<g>
</g>
<g>
</g>
<g>
</g>
<g>
</g>
<g>
</g>
<g>
</g>
</svg>
