<?xml version="1.0" encoding="iso-8859-1"?>
<!-- Generator: Adobe Illustrator 21.0.0, SVG Export Plug-In . SVG Version: 6.00 Build 0)  -->
<svg version="1.1" id="Capa_1" xmlns="http://www.w3.org/2000/svg" xmlns:xlink="http://www.w3.org/1999/xlink" x="0px" y="0px"
	 viewBox="0 0 512 512" style="enable-background:new 0 0 512 512;" xml:space="preserve">
<g>
	<path style="fill:#7FBC0A;" d="M245.002,10.998c-18.27,0-36.068,2.016-53.197,5.809v478.385c17.13,3.793,34.927,5.809,53.197,5.809
		c135.311,0,245.002-109.691,245.002-245.002S380.313,10.998,245.002,10.998z"/>
	<path style="fill:#DEEEFA;" d="M209.171,16.066c-5.154,0-10.277,0.104-15.367,0.306c-67.213,14.291-124.23,56.142-158.669,113.16
		L0.201,265.504l-0.008-0.008C4.521,379.006,86.064,472.72,193.804,495.628c5.091,0.202,10.214,0.306,15.367,0.306
		C376.419,495.934,512,388.512,512,256S376.419,16.066,209.171,16.066z"/>
	<path style="fill:#B8DCF2;" d="M244.62,448.063c1.842-8.404-2.35-16.925-10.067-20.729
		C71.344,346.893,118.412,146.313,133.499,95.269c1.972-6.671-0.107-13.794-5.149-18.587c-16.442-15.628-5.473-32.844-5.217-33.239
		c-36.141,20.763-66.48,50.478-88.004,86.114L0.201,265.504l-0.008-0.008C4.521,379.006,86.064,472.72,193.804,495.628
		c5.091,0.202,10.214,0.306,15.367,0.306c21.1,0,41.693-1.715,61.576-4.969C243.362,479.928,241.786,460.989,244.62,448.063z"/>
	<path style="fill:#B8DCF2;" d="M386.573,132.7c-95.626-75.762-254.295-76.835-351.624-2.444L0.201,265.504
		c0,0-0.013-0.012-0.014-0.014c1.612,42.263,13.933,81.778,34.32,115.922c96.948,74.461,255.951,74.037,352.067-2.113
		C474.874,309.337,475.02,202.778,386.573,132.7z"/>
	<path style="fill:#89C2E5;" d="M234.553,427.334C89.616,335.397,118.412,146.313,133.499,95.269
		c1.089-3.685,0.937-7.507-0.263-10.999c-35.946,8.856-69.752,24.177-98.287,45.988L0.201,265.504c0,0-0.013-0.012-0.014-0.014
		c1.612,42.263,13.933,81.778,34.32,115.922c56.55,43.433,134.212,61.375,208.193,53.684
		C240.885,431.828,237.889,429.45,234.553,427.334z"/>
	<g>
		<path style="fill:#FC7E9C;" d="M41.761,279.43c-27.777,23.96-35.547,64.993-16.53,97.931
			c19.017,32.938,58.437,46.725,93.075,34.65c4.267-1.488,6.13-6.495,3.87-10.408L52.71,281.282
			C50.451,277.369,45.183,276.478,41.761,279.43z"/>
		<path style="fill:#F94862;" d="M122.177,401.602l-41.479-71.844H41.032c-1.411,6.172-6.923,10.781-13.522,10.781
			c-5.509,0-10.254-3.217-12.497-7.867c-1.126,15.066,2.094,30.615,10.219,44.689c19.017,32.938,58.437,46.725,93.075,34.65
			C122.573,410.523,124.436,405.515,122.177,401.602z"/>
		<path style="fill:#F94862;" d="M86.922,340.539l-26.307-45.566c-1.221-0.034-2.463,0.359-3.478,1.234
			c-11.872,10.241-18.585,24.877-19.107,40.005L86.922,340.539z"/>
		<path style="fill:#DB2640;" d="M67.266,386.85c13.363,7.112,29.394,8.617,44.199,3.456c1.265-0.441,2.227-1.321,2.808-2.395
			l-26.307-45.566L67.266,386.85z"/>
		<path style="fill:#ED3346;" d="M86.425,339.677l-48.367-4.28c-0.505,10.252,1.832,20.763,7.347,30.316
			c5.515,9.552,13.449,16.832,22.581,21.521l20.477-44.027L86.425,339.677z"/>
		<g>
			<path style="fill:#FC7E9C;" d="M60.194,329.758c-4.829,0-8.519-3.966-8.519-8.53c0-10.977,17.037-11.565,17.037,0
				C68.713,325.937,64.869,329.758,60.194,329.758z"/>
		</g>
		<g>
			<path style="fill:#ED3346;" d="M90.769,384.842c-4.829,0-8.519-3.966-8.519-8.531c0-10.977,17.037-11.565,17.037,0
				C99.288,381.02,95.444,384.842,90.769,384.842z"/>
		</g>
		<g>
			<path style="fill:#F94862;" d="M65.01,363.989c-4.829,0-8.519-3.966-8.519-8.531c0-10.977,17.037-11.565,17.037,0
				C73.529,360.168,69.686,363.989,65.01,363.989z"/>
		</g>
	</g>
	<path style="fill:#FCEBBB;" d="M206.531,238.024c10.973-61.573,65.48-108.077,130.554-106.544
		c68.667,1.618,124.668,57.62,126.283,126.287c1.715,72.916-56.88,132.563-129.406,132.563H225.285
		c-40.112,0-72.629-32.517-72.629-72.629v0c0-18.8,10.587-35.998,27.374-44.464l0,0
		C193.861,266.261,203.813,253.274,206.531,238.024z"/>
	<path style="fill:#FFDD71;" d="M411.162,364.786L411.162,364.786c-45.578-12.605-29.359-58.341-29.359-58.341l-43.455-113.557
		c-48.694-19.617-23.83-59.987-23.83-59.987c-54.777,8.253-98.311,50.824-107.987,105.122c-2.718,15.25-12.67,28.237-26.501,35.213
		c-16.786,8.466-27.374,25.664-27.374,44.464v0c0,40.112,32.517,72.629,72.629,72.629h108.676
		C362.896,390.329,389.607,380.828,411.162,364.786z"/>
	
		<ellipse transform="matrix(0.934 -0.3574 0.3574 0.934 -69.3626 138.7681)" style="fill:#FABD2B;" cx="340.774" cy="257.053" rx="64.212" ry="64.212"/>
	<path style="fill:#F6AC2B;" d="M319.406,265.23c-10.089-26.366-1.63-55.255,18.942-72.341c-6.847,0.259-13.768,1.608-20.523,4.193
		c-33.121,12.674-49.697,49.799-37.022,82.92c12.674,33.121,49.799,49.697,82.92,37.022c6.756-2.585,12.809-6.201,18.08-10.579
		C355.079,307.458,329.495,291.596,319.406,265.23z"/>
	
		<ellipse transform="matrix(0.9326 -0.3609 0.3609 0.9326 -39.4134 46.8345)" style="fill:#FABD2B;" cx="105.702" cy="128.955" rx="33.848" ry="33.848"/>
	<path style="fill:#F6AC2B;" d="M100.588,134.17c-5.464-14.12-0.817-29.66,10.409-38.643c-5.71-0.91-11.728-0.377-17.509,1.86
		c-17.434,6.746-26.099,26.348-19.353,43.782c6.746,17.434,26.348,26.098,43.782,19.352c3.314-1.282,6.309-3.031,8.943-5.139
		C115.351,153.548,105.097,145.822,100.588,134.17z"/>
	<path style="fill:#FECF2B;" d="M40.706,126.882c-1.946,0.753-3.801,1.64-5.567,2.636c-8.346,13.819-15.358,28.531-20.875,43.955
		c0.47,2.73,1.213,5.455,2.251,8.138c8.433,21.793,32.936,32.624,54.729,24.191c21.793-8.433,32.624-32.936,24.191-54.729
		C87.002,129.28,62.499,118.449,40.706,126.882z"/>
	<path style="fill:#FABD2B;" d="M47.953,173.647c-6.908-17.852-1.543-37.425,11.974-49.43c-6.329-0.599-12.889,0.215-19.222,2.665
		c-1.946,0.753-3.801,1.64-5.567,2.636c-8.346,13.819-15.358,28.531-20.875,43.955c0.469,2.73,1.213,5.455,2.251,8.138
		c8.433,21.793,32.936,32.624,54.729,24.191c3.188-1.233,6.133-2.819,8.826-4.682C65.934,198.037,53.565,188.15,47.953,173.647z"/>
	<path style="fill:#FFDD71;" d="M0.201,265.504c9.792,3.151,20.684,3.1,31.025-0.901c23.973-9.276,35.887-36.231,26.611-60.204
		c-7.212-18.639-25.112-29.983-43.987-29.751C4.89,200.105,0,227.48,0,256C0,259.184,0.08,262.349,0.201,265.504z"/>
	<path style="fill:#FECF2B;" d="M4.946,218.187c-0.525-1.372-0.973-2.755-1.357-4.143C1.232,227.676,0,241.694,0,256
		c0,3.184,0.08,6.349,0.201,9.504c9.792,3.151,20.684,3.1,31.025-0.901c9.383-3.631,16.907-9.977,22.048-17.785
		C32.928,249.61,12.602,238.193,4.946,218.187z"/>
	<path style="fill:#FC7E9C;" d="M116.597,279.43c-27.777,23.96-35.547,64.993-16.53,97.931
		c19.017,32.938,58.437,46.725,93.075,34.65c4.267-1.488,6.13-6.495,3.87-10.408l-69.467-120.32
		C125.287,277.369,120.018,276.478,116.597,279.43z"/>
	<path style="fill:#F94862;" d="M197.012,401.602l-41.479-71.844h-39.666c-1.411,6.172-6.923,10.781-13.522,10.781
		c-5.509,0-10.254-3.217-12.497-7.867c-1.126,15.066,2.094,30.615,10.219,44.689c19.017,32.938,58.437,46.725,93.075,34.65
		C197.409,410.523,199.272,405.515,197.012,401.602z"/>
	<path style="fill:#F94862;" d="M161.758,340.539l-26.307-45.566c-1.221-0.034-2.463,0.359-3.478,1.234
		c-11.872,10.241-18.585,24.877-19.107,40.005L161.758,340.539z"/>
	<path style="fill:#DB2640;" d="M142.101,386.85c13.363,7.112,29.394,8.617,44.199,3.456c1.265-0.441,2.227-1.321,2.808-2.395
		l-26.307-45.566L142.101,386.85z"/>
	<path style="fill:#ED3346;" d="M161.26,339.677l-48.367-4.28c-0.505,10.252,1.832,20.763,7.347,30.316
		c5.515,9.552,13.449,16.832,22.581,21.521l20.477-44.027L161.26,339.677z"/>
	<g>
		<path style="fill:#7FBC0A;" d="M48.32,253.139c-6.669,0-12.169-5.428-12.169-12.169c0-7.766,7.125-13.431,14.542-11.938
			c5.944,1.206,9.797,6.37,9.797,11.938C60.489,247.693,54.963,253.139,48.32,253.139z"/>
	</g>
	<g>
		<path style="fill:#7FBC0A;" d="M82.284,259.419c-6.538,0-12.169-5.278-12.169-12.169c0-7.814,7.201-13.395,14.543-11.926
			c5.974,1.212,9.796,6.402,9.796,11.926C94.454,253.836,89.112,259.419,82.284,259.419z"/>
	</g>
	<g>
		<path style="fill:#7FBC0A;" d="M82.284,286.204c-4.828,0-8.519-3.966-8.519-8.531c0-10.977,17.037-11.565,17.037,0
			C90.803,282.382,86.959,286.204,82.284,286.204z"/>
	</g>
	<g>
		<path style="fill:#FC7E9C;" d="M135.03,329.758c-4.829,0-8.519-3.966-8.519-8.53c0-10.977,17.037-11.565,17.037,0
			C143.549,325.937,139.705,329.758,135.03,329.758z"/>
	</g>
	<g>
		<path style="fill:#ED3346;" d="M165.605,384.842c-4.829,0-8.519-3.966-8.519-8.531c0-10.977,17.037-11.565,17.037,0
			C174.123,381.02,170.28,384.842,165.605,384.842z"/>
	</g>
	<g>
		<path style="fill:#F94862;" d="M139.846,363.989c-4.829,0-8.519-3.966-8.519-8.531c0-10.977,17.037-11.565,17.037,0
			C148.365,360.168,144.521,363.989,139.846,363.989z"/>
	</g>
	<g>
		<path style="fill:#7FBC0A;" d="M81.019,189.603c-6.683,0-12.158-5.42-12.158-12.169c0-7.79,7.165-13.411,14.543-11.926
			c5.912,1.2,9.796,6.347,9.796,11.926C93.201,184.037,87.836,189.603,81.019,189.603z"/>
	</g>
	<g>
		<path style="fill:#FECF2B;" d="M371.935,235.891c-6.316,0-11.491-5.123-11.491-11.502c0-7.363,6.773-12.676,13.745-11.272
			c5.588,1.135,9.259,5.999,9.259,11.272C383.449,230.631,378.378,235.891,371.935,235.891z"/>
	</g>
	<g>
		<path style="fill:#FECF2B;" d="M356.875,246.185c-2.827,0-5.143-2.293-5.143-5.148c0-3.295,3.031-5.673,6.152-5.045
			c2.501,0.508,4.144,2.685,4.144,5.045C362.028,243.831,359.758,246.185,356.875,246.185z"/>
	</g>
	<g>
		<path style="fill:#7FBC0A;" d="M63.24,222.749c-2.939-4.095-2.002-9.797,2.093-12.736l12.748-9.148
			c4.096-2.939,9.799-2.001,12.737,2.093c2.939,4.095,2.002,9.797-2.093,12.736l-12.748,9.148
			C71.872,227.787,66.174,226.838,63.24,222.749z"/>
	</g>
	<path style="fill:#FF6683;" d="M139.023,249.056c-19.935-30.32-21.186-68.732-3.264-100.242
		c17.922-31.511,51.631-50.096,87.826-48.435c12.996,0.586,23.057,11.596,22.471,24.592c-0.581,12.885-11.409,22.884-24.259,22.484
		c-0.111-0.003-0.222-0.008-0.333-0.013c-18.46-0.876-35.628,8.618-44.754,24.663c-9.126,16.046-8.483,35.615,1.678,51.07
		c7.147,10.87,4.129,25.476-6.742,32.623C160.777,262.943,146.173,259.928,139.023,249.056z"/>
	<path style="fill:#F94862;" d="M171.647,255.797c10.871-7.148,13.888-21.753,6.742-32.623
		c-10.161-15.454-10.804-35.024-1.678-51.07c0.469-0.825,0.965-1.628,1.476-2.418l-17.446-9.927
		c-15.783-5.472-17.46-16.307-16.721-23.177c-3.025,3.824-5.796,7.901-8.26,12.232c-17.922,31.511-16.67,69.922,3.264,100.242
		C146.174,259.928,160.777,262.943,171.647,255.797z"/>
	<g>
		<path style="fill:#F94862;" d="M193.144,154.071l-4.525-11.114c-1.901-4.668,0.343-9.994,5.011-11.895
			c4.669-1.901,9.994,0.342,11.895,5.012l4.525,11.114c1.901,4.668-0.343,9.993-5.011,11.895
			C200.369,160.983,195.045,158.74,193.144,154.071z"/>
	</g>
	<g>
		<path style="fill:#DB2640;" d="M172.713,180.309l-11.487-5.596c-4.532-2.208-6.416-7.671-4.208-12.203
			c2.208-4.531,7.672-6.414,12.202-4.207l11.487,5.596c4.532,2.208,6.416,7.671,4.208,12.203
			C182.704,180.641,177.237,182.515,172.713,180.309z"/>
	</g>
	<g>
		<path style="fill:#DB2640;" d="M150.199,213.703c-1.663-4.758,0.847-9.964,5.605-11.626l12.53-4.378
			c4.76-1.664,9.964,0.846,11.627,5.606c1.663,4.758-0.847,9.964-5.605,11.626l-12.53,4.378
			C157.047,220.979,151.854,218.441,150.199,213.703z"/>
	</g>
</g>
<g>
</g>
<g>
</g>
<g>
</g>
<g>
</g>
<g>
</g>
<g>
</g>
<g>
</g>
<g>
</g>
<g>
</g>
<g>
</g>
<g>
</g>
<g>
</g>
<g>
</g>
<g>
</g>
<g>
</g>
</svg>
