<?xml version="1.0" encoding="iso-8859-1"?>
<!-- Generator: Adobe Illustrator 21.0.0, SVG Export Plug-In . SVG Version: 6.00 Build 0)  -->
<svg version="1.1" id="Capa_1" xmlns="http://www.w3.org/2000/svg" xmlns:xlink="http://www.w3.org/1999/xlink" x="0px" y="0px"
	 viewBox="0 0 512 512" style="enable-background:new 0 0 512 512;" xml:space="preserve">
<g>
	<path style="fill:#1D3260;" d="M21.861,196.654h468.279h0.595C460.502,95.632,366.858,21.996,256,21.996
		S51.497,95.632,21.266,196.654H21.861z"/>
	<g>
		<path style="fill:#E29764;" d="M341.611,74.293c0,11.509-4.871,22.34-13.448,31.811c-2.264,2.499-1.806,6.486,0.996,8.362
			c8.752,5.857,14.545,15.827,14.545,27.091v22.25h43.715v-22.25c0-11.263-5.793-21.234-14.545-27.091
			c-2.802-1.876-3.26-5.863-0.996-8.363c8.577-9.469,13.448-20.3,13.448-31.809C385.327,37.183,334.74,0,272.34,0
			c-7.479,0-14.785,0.539-21.858,1.543C302.421,8.917,341.611,41.631,341.611,74.293z"/>
	</g>
	<g>
		<path style="fill:#D08245;" d="M383.284,74.293c0,11.509-4.871,22.34-13.448,31.811c-2.264,2.499-1.806,6.486,0.997,8.362
			c8.752,5.857,14.546,15.827,14.546,27.091v22.25h33.995v-22.25c0-11.263-5.793-21.234-14.545-27.091
			c-2.802-1.876-3.26-5.863-0.996-8.362c8.577-9.471,13.448-20.302,13.448-31.811C417.279,37.183,366.693,0,304.292,0h-33.996
			C332.697,0,383.284,37.183,383.284,74.293z"/>
	</g>
	<g>
		<path style="fill:#C1713A;" d="M401.513,144.808c-7.349,0-13.656-3.035-16.397-7.37c0.172,1.349,0.262,2.723,0.262,4.118v22.25
			h33.995v-22.25c0-2.039-0.196-4.034-0.559-5.972C416.865,140.881,409.869,144.808,401.513,144.808z"/>
	</g>
	<g>
		<path style="fill:#E29764;" d="M98.318,114.465c-8.752,5.857-14.545,15.828-14.545,27.091v22.25h230.162v-22.25
			c0-11.263-5.793-21.234-14.545-27.091c-2.802-1.876-3.26-5.863-0.997-8.363c8.577-9.469,13.448-20.3,13.448-31.809
			C311.842,37.183,261.256,0,198.855,0C136.453,0,85.867,37.183,85.867,74.293c0,11.509,4.871,22.341,13.448,31.809
			C101.579,108.602,101.121,112.589,98.318,114.465z"/>
	</g>
	<path style="fill:#D08245;" d="M151.24,114.465c2.115-1.876,2.46-5.863,0.752-8.363c-6.472-9.469-10.147-20.3-10.147-31.809
		c0-33.87,31.803-67.786,73.154-73.451C209.725,0.293,204.337,0,198.855,0C136.453,0,85.867,37.183,85.867,74.293
		c0,11.509,4.871,22.341,13.448,31.809c2.264,2.5,1.806,6.487-0.996,8.363c-8.752,5.857-14.545,15.828-14.545,27.091v22.25h56.492
		v-22.25C140.265,130.293,144.636,120.322,151.24,114.465z"/>
	<g>
		<path style="fill:#D08245;" d="M309.799,74.293c0,11.509-4.871,22.34-13.448,31.811c-2.264,2.499-1.806,6.486,0.997,8.362
			c8.752,5.857,14.545,15.827,14.545,27.091v22.25h25.452h2.183h6.361v-22.25c0-11.263-5.793-21.234-14.546-27.091
			c-2.802-1.876-3.26-5.863-0.996-8.362c8.577-9.471,13.448-20.302,13.448-31.811C343.794,37.183,293.208,0,230.807,0h-33.995
			C259.213,0,309.799,37.183,309.799,74.293z"/>
	</g>
	<g>
		<path style="fill:#D08245;" d="M309.799,74.293c0,11.509-4.871,22.34-13.448,31.811c-2.264,2.499-1.806,6.486,0.997,8.362
			c8.752,5.857,14.545,15.827,14.545,27.091v22.25h25.452h2.183h6.361v-22.25c0-11.263-5.793-21.234-14.546-27.091
			c-2.802-1.876-3.26-5.863-0.996-8.362c8.577-9.471,13.448-20.302,13.448-31.811C343.794,37.183,293.208,0,230.807,0h-33.995
			C259.213,0,309.799,37.183,309.799,74.293z"/>
	</g>
	<g>
		<path style="fill:#C1713A;" d="M328.028,144.808c-7.349,0-13.657-3.036-16.397-7.37c0.172,1.349,0.262,2.723,0.262,4.118v22.25
			h25.451h2.183h6.361v-22.25c0-2.039-0.196-4.034-0.559-5.972C343.38,140.881,336.385,144.808,328.028,144.808z"/>
	</g>
	<path style="fill:#FECF2B;" d="M362.282,193.051v-10.857c0-12.515-10.24-22.755-22.755-22.755H75.365
		c-12.515,0-22.755,10.24-22.755,22.755v10.857H362.282z"/>
	<path style="fill:#FABD2B;" d="M132.523,159.439H75.365c-12.515,0-22.755,10.24-22.755,22.755v10.857h57.158v-10.857
		C109.768,169.679,120.008,159.439,132.523,159.439z"/>
	<path style="fill:#FFDD71;" d="M424.674,159.439h-87.329c12.515,0,22.755,10.24,22.755,22.755v10.857h9.765h0.005h77.56v-10.857
		C447.428,169.679,437.189,159.439,424.674,159.439z"/>
	<path style="fill:#B8DCF2;" d="M490.139,194.654c-4.523-2.411-9.673-3.786-15.131-3.786H368.772
		c17.801,0,32.366,14.565,32.366,32.366v241.15c60.561-44.606,99.863-116.401,99.863-197.386
		C501.002,241.814,497.197,217.521,490.139,194.654z"/>
	<path style="fill:#DEEEFA;" d="M370.956,190.868H36.992c-5.458,0-10.608,1.374-15.131,3.786
		c-7.057,22.867-10.863,47.161-10.863,72.344C10.998,402.309,120.689,512,256,512c55.302,0,106.318-18.33,147.322-49.236v-239.53
		C403.322,205.433,388.757,190.868,370.956,190.868z"/>
	<g>
		<path style="fill:#B8DCF2;" d="M71.666,223.235c0-17.801,14.565-32.366,32.366-32.366H36.991c-5.458,0-10.608,1.374-15.131,3.786
			c-7.057,22.867-10.862,47.161-10.862,72.344c0,61.813,22.9,118.271,60.668,161.376V223.235z"/>
	</g>
	<path style="fill:#30AEE5;" d="M295.998,365.717H111.95c-9.811,0-17.837,8.027-17.837,17.837v67.324
		C137.282,488.915,193.941,512,256,512c19.926,0,39.289-2.396,57.835-6.885v-121.56
		C313.835,373.744,305.808,365.717,295.998,365.717z"/>
	<path style="fill:#0F89CB;" d="M295.998,365.717H111.95c-9.811,0-17.837,8.027-17.837,17.837v67.324
		C137.282,488.915,193.941,512,256,512c19.926,0,39.289-2.396,57.835-6.885v-121.56
		C313.835,373.744,305.808,365.717,295.998,365.717z"/>
	<g>
		<path style="fill:#1075BB;" d="M149.05,383.555c0-9.811,8.027-17.837,17.837-17.837H111.95c-9.811,0-17.837,8.027-17.837,17.837
			v67.324c16.492,14.531,34.959,26.871,54.937,36.584V383.555z"/>
	</g>
	<circle style="fill:#0D9CDA;" cx="203.974" cy="288.676" r="37.983"/>
	<circle style="fill:#0F89CB;" cx="203.969" cy="288.676" r="20.084"/>
	<path style="fill:#89C2E5;" d="M454.853,288.995c-5.751,0-10.927-2.424-14.596-6.291v82.734c0,8.061,6.535,14.596,14.596,14.596
		c8.061,0,14.596-6.535,14.596-14.596v-82.734C465.779,286.571,460.604,288.995,454.853,288.995z"/>
	<path style="fill:#5DB1DB;" d="M454.853,288.995c-5.751,0-10.927-2.424-14.596-6.291v48.944c0-8.061,6.535-14.596,14.596-14.596
		c8.061,0,14.596,6.535,14.596,14.596v-48.944C465.779,286.571,460.604,288.995,454.853,288.995z"/>
	<g>
		<path style="fill:#4ECDF9;" d="M203.974,296.862c-4.522,0-8.187-3.665-8.187-8.187v-40.87c0-4.522,3.666-8.187,8.187-8.187
			c4.521,0,8.187,3.665,8.187,8.187v40.87C212.161,293.197,208.495,296.862,203.974,296.862z"/>
	</g>
	<path style="fill:#0CB0EA;" d="M203.974,273.112c-4.521,0-8.187-3.665-8.187-8.187v23.75c0,4.522,3.666,8.187,8.187,8.187
		s8.187-3.665,8.187-8.187v-23.75C212.161,269.447,208.495,273.112,203.974,273.112z"/>
	<g>
		<g>
			<path style="fill:#F94862;" d="M203.969,232.163c-6.01,0-10.916-4.907-10.916-10.916c0-6.926,6.394-12.051,13.056-10.709
				c5.214,1.066,8.777,5.593,8.777,10.709C214.886,227.304,209.963,232.163,203.969,232.163z"/>
		</g>
	</g>
	<g>
		<path style="fill:#89C2E5;" d="M298.179,251.424c-4.521,0-8.187-3.665-8.187-8.187v-12.692c0-4.522,3.666-8.187,8.187-8.187
			c4.522,0,8.187,3.665,8.187,8.187v12.692C306.366,247.759,302.701,251.424,298.179,251.424z"/>
	</g>
	<g>
		<path style="fill:#89C2E5;" d="M328.094,251.424c-4.522,0-8.187-3.665-8.187-8.187v-12.692c0-4.522,3.666-8.187,8.187-8.187
			c4.521,0,8.187,3.665,8.187,8.187v12.692C336.281,247.759,332.615,251.424,328.094,251.424z"/>
	</g>
	<g>
		<path style="fill:#89C2E5;" d="M358.009,251.424c-4.521,0-8.187-3.665-8.187-8.187v-12.692c0-4.522,3.666-8.187,8.187-8.187
			c4.522,0,8.187,3.665,8.187,8.187v12.692C366.196,247.759,362.53,251.424,358.009,251.424z"/>
	</g>
	<g>
		<path style="fill:#5DB1DB;" d="M49.938,251.424c-4.522,0-8.187-3.665-8.187-8.187v-12.692c0-4.522,3.666-8.187,8.187-8.187
			c4.521,0,8.187,3.665,8.187,8.187v12.692C58.125,247.759,54.46,251.424,49.938,251.424z"/>
	</g>
	<g>
		<path style="fill:#89C2E5;" d="M79.853,251.424c-4.522,0-8.187-3.665-8.187-8.187v-12.692c0-4.522,3.666-8.187,8.187-8.187
			c4.521,0,8.187,3.665,8.187,8.187v12.692C88.04,247.759,84.375,251.424,79.853,251.424z"/>
	</g>
	<g>
		<path style="fill:#89C2E5;" d="M109.768,251.424c-4.522,0-8.187-3.665-8.187-8.187v-12.692c0-4.522,3.666-8.187,8.187-8.187
			s8.187,3.665,8.187,8.187v12.692C117.955,247.759,114.289,251.424,109.768,251.424z"/>
	</g>
	<circle style="fill:#0D9CDA;" cx="454.853" cy="271.039" r="20.139"/>
	<path style="fill:#0F89CB;" d="M462.951,274.981c-6.649,0-12.04-5.391-12.04-12.04c0-5.413,3.572-9.99,8.487-11.506
		c-1.463-0.338-2.98-0.534-4.546-0.534c-11.122,0-20.139,9.016-20.139,20.139c0,11.122,9.017,20.139,20.139,20.139
		c11.122,0,20.139-9.016,20.139-20.139c0-1.566-0.196-3.083-0.534-4.546C472.941,271.409,468.364,274.981,462.951,274.981z"/>
</g>
<g>
</g>
<g>
</g>
<g>
</g>
<g>
</g>
<g>
</g>
<g>
</g>
<g>
</g>
<g>
</g>
<g>
</g>
<g>
</g>
<g>
</g>
<g>
</g>
<g>
</g>
<g>
</g>
<g>
</g>
</svg>
