<?xml version="1.0" encoding="iso-8859-1"?>
<!-- Generator: Adobe Illustrator 21.0.0, SVG Export Plug-In . SVG Version: 6.00 Build 0)  -->
<svg version="1.1" id="Capa_1" xmlns="http://www.w3.org/2000/svg" xmlns:xlink="http://www.w3.org/1999/xlink" x="0px" y="0px"
	 viewBox="0 0 512 512" style="enable-background:new 0 0 512 512;" xml:space="preserve">
<g>
	<path style="fill:#4ECDF9;" d="M245.002,10.998c-18.27,0-36.068,2.016-53.197,5.809v478.385c17.13,3.793,34.927,5.809,53.197,5.809
		c135.311,0,245.002-109.691,245.002-245.002S380.313,10.998,245.002,10.998z"/>
	<path style="fill:#DEEEFA;" d="M209.171,16.066c-5.154,0-10.277,0.104-15.367,0.306C83.073,39.916,0,138.25,0,256
		s83.073,216.084,193.804,239.628c5.09,0.202,10.213,0.306,15.367,0.306C376.419,495.934,512,388.512,512,256
		S376.419,16.066,209.171,16.066z"/>
	<path style="fill:#B8DCF2;" d="M244.62,448.063c1.842-8.404-2.35-16.925-10.067-20.729
		C71.344,346.893,118.412,146.313,133.499,95.269c1.972-6.671-0.107-13.794-5.149-18.587c-16.442-15.628-5.473-32.844-5.217-33.239
		C49.558,85.712,0,165.059,0,256c0,117.75,83.073,216.084,193.804,239.628c5.091,0.202,10.214,0.306,15.367,0.306
		c21.1,0,41.693-1.715,61.576-4.969C243.362,479.928,241.786,460.989,244.62,448.063z"/>
	<path style="fill:#B8DCF2;" d="M386.573,132.7c-95.77-75.876-254.777-76.842-352.067-2.113C12.6,167.276,0,210.164,0,256
		c0,45.836,12.6,88.724,34.506,125.413c96.948,74.461,255.951,74.037,352.067-2.113C474.874,309.337,475.02,202.778,386.573,132.7z"
		/>
	<path style="fill:#89C2E5;" d="M242.699,435.097c-1.814-3.268-4.81-5.646-8.146-7.763
		C89.616,335.397,118.412,146.313,133.499,95.269c1.089-3.685,0.937-7.507-0.263-10.999c-36.13,8.901-70.103,24.329-98.729,46.317
		C12.6,167.276,0,210.164,0,256c0,45.836,12.6,88.724,34.506,125.413C91.056,424.846,168.718,442.788,242.699,435.097z"/>
	<path style="fill:#B26632;" d="M345.933,131.48c1.822,3.266,2.934,6.692,3.405,10.124c0.824,5.998,5.825,10.696,11.879,10.761
		c5.207,0.055,10.251,1.563,14.619,4.234l-30.935-72.732c-2.781-6.539-12.254-5.887-14.115,0.971l-8.695,32.057
		C331.808,117.311,341.028,122.686,345.933,131.48z"/>
	<path style="fill:#C1713A;" d="M451.54,334.594L397.49,207.511c-1.941,0.85-3.799,1.901-5.521,3.169
		c-5.202,3.831-12.529,2.708-16.683-2.242c-1.286-1.532-2.755-2.952-4.402-4.228c-9.216-7.135-21.594-7.839-31.352-2.47
		c-5.305,2.917-11.969,1.281-15.633-3.538c-2.097-2.758-4.748-5.196-7.94-7.146c-2.638-1.612-5.476-2.726-8.388-3.394l-2.843-6.752
		l-32.411,119.497c-1.125,4.147,1.464,8.387,5.667,9.282l165.107,35.158C449.02,346.109,453.913,340.171,451.54,334.594z"/>
	
		<ellipse transform="matrix(0.1953 -0.9807 0.9807 0.1953 -242.8635 544.7615)" style="fill:#FFDD71;" cx="210.533" cy="420.376" rx="24.544" ry="24.544"/>
	<path style="fill:#FECF2B;" d="M217.794,425.448c-12.421-2.473-20.768-13.917-19.653-26.252
		c-5.842,3.421-10.253,9.225-11.679,16.387c-2.648,13.295,5.984,26.218,19.278,28.865c13.294,2.647,26.218-5.984,28.865-19.279
		c0.174-0.874,0.296-1.745,0.375-2.613C229.977,425.486,223.926,426.669,217.794,425.448z"/>
	
		<ellipse transform="matrix(0.1953 -0.9807 0.9807 0.1953 -203.1848 586.0059)" style="fill:#FECF2B;" cx="255.506" cy="416.819" rx="30.681" ry="30.681"/>
	<path style="fill:#FABD2B;" d="M261.569,427.91c-16.551-3.296-27.316-19.333-24.134-35.88c-6.008,4.377-10.454,10.933-12.02,18.798
		c-3.309,16.618,7.48,32.773,24.099,36.082c16.619,3.309,32.773-7.48,36.082-24.099c0.013-0.068,0.022-0.135,0.035-0.202
		C278.945,427.48,270.323,429.653,261.569,427.91z"/>
	
		<ellipse transform="matrix(0.1953 -0.9807 0.9807 0.1953 -148.4676 617.8338)" style="fill:#FABD2B;" cx="302.26" cy="399.39" rx="33.751" ry="33.75"/>
	<path style="fill:#F6AC2B;" d="M307.723,413.49c-18.281-3.64-30.149-21.411-26.509-39.692c0.064-0.321,0.142-0.635,0.214-0.952
		c-6.123,4.801-10.63,11.723-12.269,19.952c-3.64,18.281,8.228,36.052,26.509,39.692c17.96,3.576,35.418-7.821,39.477-25.557
		C327.667,412.797,317.775,415.492,307.723,413.49z"/>
	<g>
		<g>
			<path style="fill:#FF6683;" d="M212.064,375.114c-41.869-30.903-66.866-80.381-66.866-132.354
				c0-51.974,24.996-101.452,66.866-132.354c13.447-9.929,32.397-7.074,42.325,6.378c9.927,13.449,7.072,32.399-6.378,42.325
				c-26.868,19.832-42.279,50.322-42.279,83.652c0,33.329,15.411,63.819,42.279,83.651c13.449,9.926,16.305,28.876,6.378,42.325
				C244.434,382.226,225.473,385.012,212.064,375.114z"/>
		</g>
		<g>
			<path style="fill:#FF6683;" d="M200.226,253.084h-16.835c-5.702,0-10.325-4.622-10.325-10.325
				c0-5.703,4.623-10.325,10.325-10.325h16.835c5.702,0,10.325,4.622,10.325,10.325C210.55,248.462,205.928,253.084,200.226,253.084
				z"/>
		</g>
		<g>
			<path style="fill:#FF6683;" d="M223.626,176.722l-11.672-11.008c-4.148-3.912-4.34-10.447-0.427-14.594
				c3.911-4.147,10.446-4.342,14.595-0.428l11.672,11.008c4.148,3.912,4.34,10.447,0.427,14.594
				C234.305,180.448,227.769,180.63,223.626,176.722z"/>
		</g>
		<g>
			<path style="fill:#FF6683;" d="M204.025,211.995l-15.063-6.691c-5.211-2.315-7.559-8.416-5.244-13.628
				c2.315-5.211,8.418-7.555,13.626-5.244l15.063,6.691c5.211,2.315,7.559,8.416,5.244,13.628
				C215.341,211.954,209.244,214.313,204.025,211.995z"/>
		</g>
		<g>
			<path style="fill:#FF6683;" d="M211.528,334.398c-3.913-4.147-3.721-10.682,0.427-14.594l11.672-11.008
				c4.149-3.912,10.684-3.718,14.595,0.428c3.913,4.147,3.721,10.682-0.427,14.594l-11.672,11.008
				C221.985,338.728,215.451,338.558,211.528,334.398z"/>
		</g>
		<g>
			<path style="fill:#FF6683;" d="M183.718,293.841c-2.315-5.212,0.033-11.313,5.244-13.628l15.063-6.691
				c5.21-2.315,11.312,0.032,13.626,5.244c2.315,5.212-0.033,11.313-5.244,13.628l-15.063,6.691
				C192.124,301.405,186.028,299.042,183.718,293.841z"/>
		</g>
	</g>
	<g>
		<g>
			<path style="fill:#F94862;" d="M248.011,326.411c-26.868-19.832-42.279-50.322-42.279-83.651c0-2.474,0.095-4.929,0.263-7.368
				h-27.071c-1.401,7.977-8.347,14.043-16.726,14.043c-8.376,0-15.304-6.069-16.708-14.043h-0.104
				c-0.113,2.45-0.188,4.905-0.188,7.368c0,51.974,24.997,101.452,66.866,132.354c13.409,9.898,32.37,7.112,42.325-6.378
				C264.316,355.287,261.461,336.337,248.011,326.411z"/>
		</g>
		<g>
			<path style="fill:#ED3346;" d="M200.226,253.084h-16.835c-5.702,0-10.325-4.622-10.325-10.325
				c0-5.703,4.623-10.325,10.325-10.325h16.835c5.702,0,10.325,4.622,10.325,10.325C210.55,248.462,205.928,253.084,200.226,253.084
				z"/>
		</g>
		<g>
			<path style="fill:#F94862;" d="M223.626,176.722l-11.672-11.008c-4.148-3.912-4.34-10.447-0.427-14.594
				c3.911-4.147,10.446-4.342,14.595-0.428l11.672,11.008c4.148,3.912,4.34,10.447,0.427,14.594
				C234.305,180.448,227.769,180.63,223.626,176.722z"/>
		</g>
		<g>
			<path style="fill:#F94862;" d="M204.025,211.995l-15.063-6.691c-5.211-2.315-7.559-8.416-5.244-13.628
				c2.315-5.211,8.418-7.555,13.626-5.244l15.063,6.691c5.211,2.315,7.559,8.416,5.244,13.628
				C215.341,211.954,209.244,214.313,204.025,211.995z"/>
		</g>
		<g>
			<path style="fill:#ED3346;" d="M211.528,334.398c-3.913-4.147-3.721-10.682,0.427-14.594l11.672-11.008
				c4.149-3.912,10.684-3.718,14.595,0.428c3.913,4.147,3.721,10.682-0.427,14.594l-11.672,11.008
				C221.985,338.728,215.451,338.558,211.528,334.398z"/>
		</g>
		<g>
			<path style="fill:#ED3346;" d="M183.718,293.841c-2.315-5.212,0.033-11.313,5.244-13.628l15.063-6.691
				c5.21-2.315,11.312,0.032,13.626,5.244c2.315,5.212-0.033,11.313-5.244,13.628l-15.063,6.691
				C192.124,301.405,186.028,299.042,183.718,293.841z"/>
		</g>
	</g>
	<g>
		<path style="fill:#FF6683;" d="M130.027,375.114c-41.869-30.903-66.866-80.381-66.866-132.354
			c0-51.974,24.996-101.452,66.866-132.354c13.447-9.929,32.398-7.074,42.325,6.378c9.927,13.449,7.071,32.399-6.378,42.325
			c-26.868,19.832-42.279,50.322-42.279,83.652c0,33.329,15.411,63.819,42.279,83.651c13.449,9.926,16.305,28.876,6.378,42.325
			C162.397,382.226,143.436,385.012,130.027,375.114z"/>
	</g>
	<g>
		<path style="fill:#F94862;" d="M165.974,326.411c-26.869-19.832-42.279-50.322-42.279-83.651c0-0.792,0.017-1.58,0.034-2.368
			H93.366c-2.855,5.378-8.506,9.043-15.019,9.043c-6.617,0-12.337-3.788-15.146-9.307c-0.014,0.877-0.039,1.753-0.039,2.631
			c0,51.974,24.996,101.452,66.866,132.354c13.409,9.898,32.37,7.112,42.325-6.378C182.279,355.287,179.424,336.337,165.974,326.411
			z"/>
	</g>
	<g>
		<path style="fill:#ED3346;" d="M118.189,253.084h-16.835c-5.702,0-10.325-4.622-10.325-10.325c0-5.703,4.623-10.325,10.325-10.325
			h16.835c5.702,0,10.325,4.622,10.325,10.325C128.513,248.462,123.891,253.084,118.189,253.084z"/>
	</g>
	<g>
		<path style="fill:#F94862;" d="M141.589,176.722l-11.672-11.008c-4.148-3.912-4.339-10.447-0.427-14.594
			c3.911-4.147,10.446-4.342,14.595-0.428l11.672,11.008c4.148,3.912,4.34,10.447,0.427,14.594
			C152.268,180.448,145.732,180.63,141.589,176.722z"/>
	</g>
	<g>
		<path style="fill:#F94862;" d="M121.989,211.995l-15.063-6.691c-5.211-2.315-7.559-8.416-5.244-13.628
			c2.315-5.211,8.419-7.555,13.627-5.244l15.063,6.691c5.211,2.315,7.559,8.416,5.244,13.628
			C133.304,211.954,127.206,214.313,121.989,211.995z"/>
	</g>
	<g>
		<path style="fill:#ED3346;" d="M129.491,334.398c-3.913-4.147-3.721-10.682,0.427-14.594l11.672-11.008
			c4.149-3.912,10.684-3.718,14.595,0.428c3.913,4.147,3.721,10.682-0.427,14.594l-11.672,11.008
			C139.948,338.728,133.415,338.558,129.491,334.398z"/>
	</g>
	<g>
		<path style="fill:#ED3346;" d="M101.681,293.841c-2.315-5.212,0.033-11.313,5.244-13.628l15.063-6.691
			c5.21-2.315,11.312,0.032,13.626,5.244c2.315,5.212-0.033,11.313-5.244,13.628l-15.063,6.691
			C110.087,301.405,103.991,299.042,101.681,293.841z"/>
	</g>
	<path style="fill:#F94862;" d="M84.287,159.108c13.449-9.926,16.305-28.876,6.378-42.325c-9.927-13.452-28.878-16.307-42.325-6.378
		c-0.297,0.219-0.585,0.449-0.881,0.67C17.632,151.663,0,201.769,0,256c0,30.882,5.73,60.422,16.158,87.636
		c9.154,11.809,19.94,22.442,32.182,31.477c13.409,9.898,32.37,7.112,42.325-6.378c9.927-13.449,7.071-32.399-6.378-42.325
		c-26.868-19.832-42.279-50.322-42.279-83.651C42.008,209.43,57.419,178.94,84.287,159.108z"/>
	<path style="fill:#FF6683;" d="M84.287,159.108c13.449-9.926,16.305-28.876,6.378-42.325c-9.927-13.452-28.878-16.307-42.325-6.378
		c-0.297,0.219-0.585,0.449-0.881,0.67C17.632,151.663,0,201.769,0,256c0,30.882,5.73,60.422,16.158,87.636
		c9.154,11.809,19.94,22.442,32.182,31.477c13.409,9.898,32.37,7.112,42.325-6.378c9.927-13.449,7.071-32.399-6.378-42.325
		c-26.868-19.832-42.279-50.322-42.279-83.651C42.008,209.43,57.419,178.94,84.287,159.108z"/>
	<g>
		<path style="fill:#F94862;" d="M84.287,326.411c-26.868-19.832-42.279-50.322-42.279-83.651c0-0.88,0.017-1.756,0.038-2.632
			H12.457c-2.407,4.716-6.945,8.162-12.352,9.058C0.043,251.451,0,253.72,0,256c0,30.882,5.73,60.422,16.158,87.636
			c9.154,11.809,19.94,22.442,32.182,31.477c13.409,9.898,32.37,7.112,42.325-6.378C100.592,355.287,97.736,336.337,84.287,326.411z
			"/>
	</g>
	<g>
		<path style="fill:#ED3346;" d="M36.502,253.084H19.667c-5.702,0-10.325-4.622-10.325-10.325c0-5.703,4.623-10.325,10.325-10.325
			h16.835c5.702,0,10.325,4.622,10.325,10.325C46.826,248.462,42.204,253.084,36.502,253.084z"/>
	</g>
	<g>
		<path style="fill:#F94862;" d="M59.902,176.722L48.23,165.714c-4.148-3.912-4.34-10.447-0.427-14.594
			c3.911-4.147,10.445-4.342,14.595-0.428L74.07,161.7c4.148,3.912,4.34,10.447,0.427,14.594
			C70.581,180.448,64.045,180.63,59.902,176.722z"/>
	</g>
	<g>
		<path style="fill:#F94862;" d="M40.301,211.995l-15.063-6.691c-5.211-2.315-7.559-8.416-5.244-13.628
			c2.315-5.211,8.418-7.555,13.626-5.244l15.063,6.691c5.211,2.315,7.559,8.416,5.244,13.628
			C51.617,211.954,45.519,214.313,40.301,211.995z"/>
	</g>
	<g>
		<path style="fill:#ED3346;" d="M47.804,334.398c-3.913-4.147-3.721-10.682,0.427-14.594l11.672-11.008
			c4.149-3.912,10.684-3.718,14.595,0.428c3.913,4.147,3.721,10.682-0.427,14.594l-11.672,11.008
			C58.261,338.728,51.727,338.558,47.804,334.398z"/>
	</g>
	<g>
		<path style="fill:#ED3346;" d="M19.994,293.841c-2.315-5.212,0.033-11.313,5.244-13.628l15.063-6.691
			c5.21-2.315,11.312,0.032,13.627,5.244c2.315,5.212-0.033,11.313-5.244,13.628l-15.063,6.691
			C28.4,301.405,22.304,299.042,19.994,293.841z"/>
	</g>
	<path style="fill:#96CC1F;" d="M410.877,346.311c11.55-6.449,17.196-20.351,13.437-33.034c-1.063-3.585-2.736-6.775-4.861-9.511
		c-3.714-4.78-3.58-11.641,0.605-16.016c7.701-8.05,10.205-20.193,5.684-30.933c-0.809-1.921-1.803-3.705-2.952-5.343
		c-3.714-5.29-2.91-12.658,2.133-16.701c9.537-7.644,13.755-21.112,8.527-33.53c-5.224-12.408-17.807-18.815-29.948-17.334
		c-6.413,0.782-12.243-3.796-13.43-10.147c-0.368-1.967-0.949-3.925-1.758-5.845c-4.522-10.742-14.959-17.435-26.096-17.552
		c-6.054-0.065-11.055-4.763-11.879-10.761c-0.471-3.432-1.584-6.858-3.405-10.124c-6.445-11.554-20.334-17.23-33.018-13.477
		c-16.694,4.942-24.961,23.063-18.397,38.652l74.856,177.801C376.937,348.046,395.675,354.798,410.877,346.311z"/>
	<g>
		<path style="fill:#7FBC0A;" d="M308.572,185.662c2.913,0.668,5.75,1.782,8.388,3.394c3.191,1.95,5.843,4.388,7.94,7.146
			c3.664,4.82,10.328,6.456,15.633,3.538c9.758-5.368,22.136-4.665,31.352,2.47c1.647,1.275,3.116,2.695,4.402,4.228
			c4.154,4.949,11.481,6.073,16.683,2.242c9.848-7.253,23.956-7.853,34.6,0.389c3.243,2.511,5.762,5.541,7.582,8.855
			c1.074-5.361,0.637-11.124-1.702-16.681c-5.224-12.408-17.807-18.815-29.948-17.334c-6.413,0.782-12.243-3.796-13.43-10.147
			c-0.368-1.967-0.95-3.925-1.758-5.845c-4.522-10.742-14.958-17.435-26.095-17.552c-6.054-0.065-11.055-4.763-11.879-10.761
			c-0.471-3.432-1.583-6.858-3.405-10.124c-6.445-11.554-20.334-17.23-33.019-13.477c-16.694,4.942-24.96,23.063-18.397,38.652
			L308.572,185.662z"/>
	</g>
	<circle style="fill:#F94862;" cx="378.356" cy="253.084" r="25.302"/>
	<circle style="fill:#FECF2B;" cx="362.103" cy="219.602" r="25.302"/>
	<path style="fill:#D08245;" d="M413.649,348.59L307.011,97.862c-2.781-6.539-12.255-5.887-14.115,0.971l-58.468,215.57
		c-1.124,4.147,1.464,8.387,5.667,9.282l165.107,35.158C411.13,360.104,416.022,354.167,413.649,348.59z"/>
	<path style="fill:#C1713A;" d="M279.439,324.555l48.28-178.005l-20.708-48.688c-2.782-6.539-12.255-5.887-14.115,0.971
		l-58.468,215.57c-1.125,4.147,1.464,8.387,5.667,9.282l42.372,9.022C279.905,330.969,278.576,327.737,279.439,324.555z"/>
	<path style="fill:#B26632;" d="M247.287,293.681c13.679,0,24.769-11.09,24.769-24.769c0-11.61-7.998-21.325-18.778-24.008
		l-12.956,47.767C242.533,293.317,244.866,293.681,247.287,293.681z"/>
	<g>
		<path style="fill:#C1713A;" d="M316.372,309.652c-6.305,0-11.35-5.135-11.35-11.365c0-7.405,6.861-12.525,13.578-11.139
			c5.612,1.176,9.153,5.985,9.153,11.139C327.752,304.488,322.707,309.652,316.372,309.652z"/>
	</g>
	<g>
		<path style="fill:#C1713A;" d="M319.857,263.614c-8.529,0-15.154-6.97-15.154-15.154c0-9.645,8.875-16.71,18.109-14.85
			c7.356,1.494,12.198,7.9,12.198,14.85C335.01,256.702,328.33,263.614,319.857,263.614z"/>
	</g>
</g>
<g>
</g>
<g>
</g>
<g>
</g>
<g>
</g>
<g>
</g>
<g>
</g>
<g>
</g>
<g>
</g>
<g>
</g>
<g>
</g>
<g>
</g>
<g>
</g>
<g>
</g>
<g>
</g>
<g>
</g>
</svg>
