<?xml version="1.0" encoding="iso-8859-1"?>
<!-- Generator: Adobe Illustrator 21.0.0, SVG Export Plug-In . SVG Version: 6.00 Build 0)  -->
<svg version="1.1" id="Capa_1" xmlns="http://www.w3.org/2000/svg" xmlns:xlink="http://www.w3.org/1999/xlink" x="0px" y="0px"
	 viewBox="0 0 512 512" style="enable-background:new 0 0 512 512;" xml:space="preserve">
<g>
	<path style="fill:#FF7133;" d="M245.002,21.996C109.691,21.996,0,131.688,0,266.998c0,5.581,0.205,11.113,0.572,16.6l324.4,215.039
		c96.04-33.151,165.032-124.333,165.032-231.639C490.004,131.688,380.313,21.996,245.002,21.996z"/>
	<path style="fill:#B8DCF2;" d="M420.702,77.678c0.09-0.122,0.195-0.227,0.304-0.327c-13.177-19.613-24.429-34.202-32.175-43.342
		c-5.654-6.671-15.184-8.494-22.895-4.373l-24.882,13.296c1.901,3.021,3.018,6.586,3.018,10.42c0,6.376-3.057,12.025-7.77,15.607
		v31.581c0,2.242-0.617,4.335-1.676,6.139h34.141c5.521,0,10.776,2.438,14.281,6.704c5.874,7.149,11.583,15.174,17.09,23.731
		C398.406,107.757,415.079,85.26,420.702,77.678z"/>
	<path style="fill:#89C2E5;" d="M396.506,43.443c-2.83-3.601-5.407-6.758-7.675-9.434c-5.653-6.671-15.184-8.494-22.895-4.373
		l-24.882,13.296c1.901,3.021,3.018,6.586,3.018,10.42c0,6.376-3.057,12.025-7.77,15.607v31.581c0,2.242-0.617,4.335-1.675,6.139
		h34.141C355.947,57.008,396.432,43.468,396.506,43.443z"/>
	<path style="fill:#284270;" d="M324.085,69.942c-11.23,0-20.334-9.104-20.334-20.334c0-0.887,0.076-1.754,0.186-2.61h-24.596
		v33.724c0,11.587,2.357,29.262,6.881,39.863c7.141-8.065,21.423-9.446,21.423-9.446h18.608c6.963,0,12.608-5.645,12.608-12.608
		V63.549C335.153,67.477,329.913,69.942,324.085,69.942z"/>
	<path style="fill:#1D3260;" d="M303.47,89.289c0-8.917,4.255-16.837,10.843-21.85c-6.293-3.457-10.561-10.144-10.561-17.831
		c0-0.887,0.076-1.754,0.186-2.61h-24.596v33.724c0,11.587,2.357,29.262,6.88,39.863c7.141-8.065,21.423-9.446,21.423-9.446h6.669
		C307.726,106.126,303.47,98.206,303.47,89.289z"/>
	<circle style="fill:#DEEEFA;" cx="324.085" cy="49.608" r="21.947"/>
	<path style="fill:#B8DCF2;" d="M332.649,54.428c-7.392,0-13.383-5.992-13.383-13.383c0-6.093,4.076-11.226,9.647-12.844
		c-1.554-0.349-3.168-0.539-4.828-0.539c-12.121,0-21.947,9.826-21.947,21.947s9.826,21.947,21.947,21.947
		c12.121,0,21.947-9.826,21.947-21.947c0-1.659-0.19-3.273-0.539-4.827C343.875,50.352,338.742,54.428,332.649,54.428z"/>
	<path style="fill:#284270;" d="M510.106,244.772c-29.904-76.4-63.772-133.587-86.916-168.106c-0.398-0.593-1.058-0.955-1.77-0.972
		c-0.751-0.033-1.391,0.314-1.815,0.887c-5.841,7.877-23.619,31.846-20.286,62.884c0.035,0.334,0.148,0.656,0.328,0.94
		c26.293,41.535,47.809,95.593,58.296,124.121c5.437,14.79,22.051,22.166,36.713,16.178
		C508.687,274.974,515.618,258.855,510.106,244.772z"/>
	<path style="fill:#36527A;" d="M65.642,45.385l36.008,39.239l19.037-54.465H72.335C64.428,30.159,60.296,39.56,65.642,45.385z"/>
	<path style="fill:#36527A;" d="M246.639,0h-97.755c-11.171,0-20.31,9.14-20.31,20.31v13.404h138.376V20.31
		C266.949,9.14,257.81,0,246.639,0z"/>
	<path style="fill:#284270;" d="M197.017,0h-48.133c-11.17,0-20.31,9.14-20.31,20.31v13.404h48.132V20.31
		C176.706,9.14,185.846,0,197.017,0z"/>
	<path style="fill:#284270;" d="M303.47,141.897l-10.884-19.63c-7.049-12.712-10.747-27.009-10.747-41.545V38.98
		c0-4.872-3.949-8.821-8.821-8.821H117.843L98.806,84.624l-18.217,57.273H303.47z"/>
	<polygon style="fill:#1D3260;" points="176.706,30.159 117.843,30.159 98.806,84.624 80.589,141.897 151.266,141.897 
		163.706,84.624 	"/>
	<path style="fill:#DEEEFA;" d="M33.194,301.522c19.947,0,19.947-14.357,39.893-14.357s19.946,14.357,39.891,14.357
		c19.943,0,19.943-14.357,39.887-14.357c19.946,0,19.946,14.357,39.892,14.357c19.946,0,19.946-14.357,39.892-14.357
		c19.947,0,19.947,14.357,39.894,14.357c19.946,0,19.946-14.357,39.892-14.357c19.95,0,19.95,14.357,39.898,14.357
		c18.14,0,19.789-11.868,34.938-14.021h1.208l-63.805-105.633c-3.595-5.951-10.04-9.588-16.993-9.588c-46.68,0-183.045,0-229.827,0
		c-6.952,0-13.398,3.637-16.993,9.588L0.462,281.862c0.123,2.058,0.28,4.107,0.454,6.151
		C13.667,291.083,16.179,301.522,33.194,301.522z"/>
	<path style="fill:#B8DCF2;" d="M33.194,301.522c19.947,0,19.947-14.357,39.893-14.357c15.911,0,19.138,9.129,29.913,12.825
		l39.407-118.123c1.983-5.944,5.537-9.578,9.371-9.587c-30.459,0-57.629,0-73.925,0c-6.952,0-13.398,3.637-16.993,9.588
		L0.462,281.862c0.123,2.058,0.28,4.107,0.454,6.151C13.667,291.083,16.179,301.522,33.194,301.522z"/>
	<path style="fill:#30AEE5;" d="M387.271,285.502c-15.148,2.153-16.797,14.021-34.938,14.021c-19.949,0-19.949-14.357-39.898-14.357
		c-19.946,0-19.946,14.357-39.892,14.357c-19.947,0-19.947-14.357-39.894-14.357c-19.946,0-19.946,14.357-39.892,14.357
		c-19.946,0-19.946-14.357-39.892-14.357c-19.943,0-19.943,14.357-39.886,14.357c-19.946,0-19.946-14.357-39.891-14.357
		c-19.946,0-19.946,14.357-39.892,14.357c-17.102,0-19.549-10.548-32.47-13.558c6.55,85.552,57.047,158.797,128.951,197.233
		c53.449,0,132.044,0,164.434,0c45.087,0,86.366-25.285,106.85-65.45v0c18.843-36.947,17.262-81.006-4.182-116.507L387.271,285.502z
		"/>
	<g>
		<path style="fill:#0D9CDA;" d="M159.288,483.197c-24.902,0-47.701-25.285-59.014-65.45v0
			c-10.408-36.947-9.534-81.007,2.31-116.507l1.015-3.043c-11.268-3.554-14.306-13.031-30.512-13.031
			c-19.946,0-19.946,14.357-39.893,14.357c-17.102,0-19.549-10.548-32.469-13.558c6.55,85.552,57.046,158.797,128.951,197.233
			c9.277,0,19.307,0,29.716,0C159.359,483.198,159.321,483.197,159.288,483.197z"/>
	</g>
	
		<ellipse transform="matrix(0.6635 -0.7482 0.7482 0.6635 -265.5655 227.0666)" style="fill:#4ECDF9;" cx="119.632" cy="408.745" rx="13.437" ry="13.437"/>
	<g>
		<path style="fill:#4ECDF9;" d="M122.31,344.769c-4.962,0-9.113-4.049-9.113-9.114c0-8.039,9.826-12.144,15.541-6.427
			c1.695,1.695,2.662,4.039,2.662,6.427C131.399,340.715,127.286,344.769,122.31,344.769z"/>
	</g>
	<g>
		<path style="fill:#4ECDF9;" d="M80.591,377.033c-6.273,0-11.377-5.085-11.377-11.377c0-7.266,6.685-12.54,13.595-11.149
			c6.271,1.272,10.148,7.294,8.931,13.379C90.631,373.274,85.992,377.033,80.591,377.033z"/>
	</g>
	<path style="fill:#0D9CDA;" d="M87.605,454.74c12.952,10.87,27.043,20.424,42.072,28.458c53.449,0,132.044,0,164.434,0
		c35.354,0,68.362-15.551,90.843-41.627c-19.272,8.535-40.412,13.169-62.252,13.169C275.922,454.74,153.964,454.74,87.605,454.74z"
		/>
	<g>
		<path style="fill:#0F89CB;" d="M155.266,482.97c-14.469-1.591-28.034-11.705-38.806-28.23c-10.383,0-20.105,0-28.855,0
			c12.952,10.87,27.042,20.424,42.071,28.458c8.041,0,16.653,0,25.589,0V482.97z"/>
	</g>
	<g>
		<path style="fill:#36527A;" d="M306.931,173.113H78.603c-9.31,0-16.857-7.547-16.857-16.857c0-9.31,7.547-16.857,16.857-16.857
			h228.328c9.31,0,16.857,7.547,16.857,16.857C323.788,165.566,316.241,173.113,306.931,173.113z"/>
	</g>
	<path style="fill:#284270;" d="M134.997,156.256c0-9.31,7.547-16.857,16.857-16.857h-73.25c-9.31,0-16.857,7.547-16.857,16.857
		c0,9.31,7.547,16.857,16.857,16.857h73.25C142.543,173.113,134.997,165.566,134.997,156.256z"/>
	<path style="fill:#B8DCF2;" d="M324.674,491.649L324.674,491.649c-3.595-5.951-10.04-9.588-16.993-9.588H127.559
		C162.431,501.144,202.447,512,245.002,512c28.616,0,56.079-4.923,81.608-13.94C326.529,495.905,325.92,493.711,324.674,491.649z"/>
	<g>
		<path style="fill:#1D3260;" d="M470.71,157.566c-17.516-33.954-34.275-61.145-47.519-80.899c-0.398-0.593-1.058-0.955-1.771-0.972
			c-0.751-0.033-1.391,0.314-1.815,0.887c-5.841,7.877-23.619,31.846-20.286,62.884c0.035,0.334,0.148,0.656,0.328,0.94
			c7.987,12.617,15.53,26.391,22.46,40.253C419.99,154.197,451.787,139.43,470.71,157.566z"/>
	</g>
</g>
<g>
</g>
<g>
</g>
<g>
</g>
<g>
</g>
<g>
</g>
<g>
</g>
<g>
</g>
<g>
</g>
<g>
</g>
<g>
</g>
<g>
</g>
<g>
</g>
<g>
</g>
<g>
</g>
<g>
</g>
</svg>
