<?xml version="1.0" encoding="iso-8859-1"?>
<!-- Generator: Adobe Illustrator 19.0.0, SVG Export Plug-In . SVG Version: 6.00 Build 0)  -->
<svg version="1.1" id="Capa_1" xmlns="http://www.w3.org/2000/svg" xmlns:xlink="http://www.w3.org/1999/xlink" x="0px" y="0px"
	 viewBox="0 0 511.998 511.998" style="enable-background:new 0 0 511.998 511.998;" xml:space="preserve">
<path style="fill:#7CB777;" d="M393.325,14.695c-8.463,1.695-14.91,8.972-15.089,17.601c-0.141,6.804-4.789,11.374-24.144-0.473
	c-4.862-2.975-10.815-3.646-16.185-1.735c-33.985,12.094-66.145,28.505-95.838,47.892c-10.667,6.965-16.247,19.692-13.615,32.158
	c2.575,12.192-1.597,16.762-20.736,10.929c-10.542-3.212-22.003-0.511-30.151,6.91c-29.333,26.715-54.758,55.996-75.294,85.819
	c-4.756,6.907-4.619,16.157,0.62,22.705c7.429,9.286,13.561,23.262-6.514,31.821c-4.034,1.721-7.641,2.116-10.865,1.495
	c-8.685-1.675-17.372,3.115-20.861,11.243c-17.841,41.557-24.532,81.148-17.354,113.074c4.925,21.915,19.748,41.897,40.971,47.361
	c45.807,11.789,89.078,2.432,129.043-20.246c7.127-4.044,11.823-11.444,12.019-19.636c0.308-12.853,11.991-13.615,20.766-12.358
	c6.839,0.979,13.751-1.202,18.894-5.815c22.315-20.009,43.296-43.62,62.784-69.103c6.255-8.179,5.992-19.4-0.191-27.633
	c-10.105-13.456-2.972-30.119,20.536-25.969c9.266,1.635,18.598-2.438,23.558-10.434c19.247-31.036,36.393-62.689,51.189-92.434
	c2.954-5.94,2.101-12.989-1.941-18.249c-10.583-13.772,3.002-18.988,12.785-20.916c5.453-1.075,10.042-4.726,12.323-9.794
	c26.217-58.273,40.59-100.532,40.59-100.532C457.333,5.988,424.752,8.399,393.325,14.695z"/>
<path style="fill:#35925D;" d="M445.031,44.615c-26.992,16.067-52.588,35.284-77.706,54.379
	c-40.363,30.685-78.308,64.731-114.141,100.57c-26.618,26.623-51.731,54.998-74.926,84.653
	c-16.582,21.201-32.702,42.834-47.476,65.344C105.618,387.9,80.99,428.626,62.936,470.881c-3.626,8.062-7.253,16.123-10.879,24.185
	c-3.633,8.077-13.127,11.679-21.204,8.046s-11.704-13.071-8.071-21.148c0,0,3.982-8.944,10.952-24.597
	c18.915-42.479,42.973-83.234,68.966-121.724c16.206-23.998,33.863-47.576,52.255-70.202c24.493-30.045,50.872-58.695,78.951-85.412
	c38.027-36.182,78.079-70.145,121.448-99.784c26.399-18.041,53.654-35.26,82.516-49.107c3.802-1.824,8.364-0.221,10.188,3.581
	c1.711,3.565,0.408,7.798-2.896,9.816L445.031,44.615z"/>
<path d="M134.567,343.794c3.365,2.307,8.121,1.419,10.428-1.945c11.159-16.277,23.596-33.113,39.138-52.984
	c22.967-29.364,47.972-57.616,74.322-83.971c38.45-38.457,75.535-71.135,113.376-99.903c26.762-20.345,51.027-38.444,77.021-53.916
	l0.188-0.112c6.651-4.063,9.123-12.43,5.75-19.462c-3.61-7.525-12.671-10.709-20.195-7.099
	c-32.167,15.434-61.522,34.655-83.504,49.677c-17.513,11.968-35.42,25.31-53.223,39.654c-3.226,2.599-3.734,7.321-1.135,10.547
	c2.599,3.226,7.322,3.733,10.546,1.135c17.499-14.098,35.087-27.202,52.277-38.95c21.542-14.722,50.275-33.543,81.528-48.538
	c0.066-0.032,0.149-0.004,0.181,0.063c0.045,0.094-0.023,0.158,0.01,0.138l-0.113,0.068c-26.649,15.863-51.277,34.227-78.408,54.854
	c-38.387,29.181-75.972,62.297-114.906,101.239c-26.778,26.783-52.19,55.495-75.53,85.335
	c-15.74,20.124-28.353,37.201-39.694,53.743C130.279,336.782,131.15,341.451,134.567,343.794z"/>
<path d="M27.742,509.978c11.693,5.261,25.866-0.125,31.122-11.809c1.863-4.141,21.978-51.142,23.151-50.73
	c1.439,0.505,2.889,0.968,4.353,1.345c13.817,3.556,27.701,5.331,41.62,5.331c30.978,0,62.114-8.794,92.995-26.316
	c9.501-5.391,15.562-15.346,15.817-25.981c0.071-2.95,1.005-3.74,1.312-4c1.69-1.431,5.763-1.846,10.893-1.112
	c9.004,1.289,18.102-1.501,24.964-7.655c21.333-19.129,42.776-42.725,63.734-70.132c8.271-10.815,8.209-25.562-0.152-36.693
	c-2.94-3.916-3.77-8.189-2.113-10.887c2.047-3.333,7.786-4.527,15.349-3.191c12.395,2.187,24.655-3.256,31.236-13.868
	c17.586-28.356,34.923-59.662,51.53-93.047c4.217-8.475,3.178-18.499-2.709-26.16c-2.436-3.17-2.289-4.517-2.285-4.527
	c0.204-0.542,2.597-2.887,10.573-4.46c7.819-1.541,14.441-6.803,17.713-14.076c26.038-57.876,40.679-100.691,40.85-101.193
	c1.574-4.619-1.731-9.552-6.566-9.898c-32.806-2.349-66.218-0.179-99.309,6.45C380.06,9.719,371.29,19.8,370.726,31.484
	c-1.909-0.417-5.786-1.768-12.752-6.033c-6.863-4.202-15.106-5.079-22.616-2.405c-33.352,11.869-66.131,28.246-97.425,48.678
	c-13.298,8.682-20.07,24.752-16.853,39.989c0.48,2.271,0.55,3.626,0.523,4.37c-1.332,0.116-4.64-0.004-11.733-2.166
	c-12.946-3.945-27.272-0.673-37.387,8.54c-29.248,26.637-54.961,55.945-76.421,87.11c-6.64,9.641-6.254,22.654,0.94,31.645
	c4.094,5.117,6.005,9.788,5.244,12.815c-0.85,3.378-5.278,5.9-8.843,7.42c-2.481,1.058-4.607,1.395-6.502,1.029
	c-12.017-2.318-24.286,4.264-29.174,15.65c-18.993,44.241-25.141,84.934-17.779,117.678c1.44,6.409,3.627,12.56,6.495,18.352
	c-11.163,21.132-20.818,42.939-30.534,64.757C10.69,490.631,16.053,504.718,27.742,509.978z M29.601,485.04
	c10.098-22.681,20.713-44.903,31.813-67.102c0.04-0.069,0.089-0.132,0.127-0.203c27.944-52.282,61.764-101.614,99.195-147.53
	c37.427-45.911,79.308-87.882,124.33-126.339c3.09-2.644,3.473-7.48,0.823-10.576c-2.635-3.078-7.492-3.46-10.576-0.823
	c-31.966,27.342-62.551,56.379-90.949,87.422c-38.627,42.251-73.431,87.993-104.124,136.308
	c-8.511,13.399-16.699,27.007-24.474,40.847c-0.445-1.491-0.839-3.002-1.183-4.533c-6.665-29.643-0.811-67.151,16.928-108.471
	c2.127-4.955,7.405-7.83,12.547-6.838c4.858,0.938,9.981,0.278,15.228-1.96c9.729-4.147,15.619-10.056,17.507-17.559
	c2-7.951-0.717-16.648-8.078-25.847c-3.094-3.867-3.217-9.527-0.299-13.764c20.811-30.223,45.765-58.661,74.167-84.528
	c6.223-5.668,15.003-7.691,22.913-5.281c9.472,2.886,20.04,5.027,26.601-0.982c5.712-5.232,4.825-13.163,3.661-18.672
	c-1.948-9.227,2.221-19.003,10.376-24.327c30.304-19.784,62.015-35.633,94.254-47.106c3.219-1.146,6.774-0.757,9.753,1.066
	c13.442,8.227,22.324,10.316,28.796,6.776c2.456-1.343,6.602-4.76,6.763-12.544c0.104-4.997,3.915-9.371,9.063-10.402
	c28.448-5.699,57.131-7.966,85.406-6.761c-5.647,15.521-18.351,49.066-37.008,90.537c-1.282,2.849-3.874,4.91-6.934,5.513
	c-11.81,2.328-19.114,7.001-21.711,13.887c-1.522,4.039-1.99,10.606,4.429,18.959c2.365,3.077,2.814,7.039,1.173,10.337
	c-16.399,32.968-33.506,63.862-50.847,91.822c-3.329,5.368-9.566,8.116-15.879,7.001c-19.977-3.525-28.151,5.899-30.741,10.115
	c-4.977,8.104-3.864,18.735,2.902,27.745c4.278,5.696,4.371,13.16,0.231,18.573c-20.391,26.665-41.195,49.569-61.832,68.075
	c-3.549,3.183-8.224,4.632-12.824,3.973c-9.864-1.412-17.504,0.105-22.71,4.511c-2.913,2.465-6.427,7.085-6.619,15.093
	c-0.13,5.395-3.28,10.488-8.223,13.293c-41.257,23.411-82.799,29.974-123.473,19.505c-0.395-0.102-0.79-0.21-1.183-0.326
	c0.418-0.793,0.833-1.585,1.258-2.383c1.387-2.607,2.786-5.208,4.207-7.797c0.013-0.024,0.027-0.049,0.04-0.073
	c10.563-19.561,22.268-38.48,34.277-57.166c2.239-3.485,1.23-8.126-2.255-10.365c-3.409-2.191-8.148-1.196-10.366,2.255
	c-15.8,24.593-30.867,49.693-44.168,75.736c-0.041,0.08-0.083,0.161-0.127,0.248c-9.624,18.863-17.92,38.326-26.605,57.631
	c-1.93,4.292-6.994,6.213-11.285,4.283C29.644,494.384,27.685,489.299,29.601,485.04z"/>
<g>
</g>
<g>
</g>
<g>
</g>
<g>
</g>
<g>
</g>
<g>
</g>
<g>
</g>
<g>
</g>
<g>
</g>
<g>
</g>
<g>
</g>
<g>
</g>
<g>
</g>
<g>
</g>
<g>
</g>
</svg>
