<?xml version="1.0" encoding="iso-8859-1"?>
<!-- Generator: Adobe Illustrator 19.0.0, SVG Export Plug-In . SVG Version: 6.00 Build 0)  -->
<svg version="1.1" id="Capa_1" xmlns="http://www.w3.org/2000/svg" xmlns:xlink="http://www.w3.org/1999/xlink" x="0px" y="0px"
	 viewBox="0 0 512 512" style="enable-background:new 0 0 512 512;" xml:space="preserve">
<path style="fill:#85E7FF;" d="M180.184,422.918h-73.116c-37.435,0-67.891-30.456-67.891-67.891V284.67
	c0-37.435,30.456-67.891,67.891-67.891h73.116c11.125,0,20.144,9.019,20.144,20.144s-9.019,20.144-20.144,20.144h-73.116
	c-15.221,0-27.603,12.383-27.603,27.603v70.357c0,15.221,12.383,27.603,27.603,27.603h73.116c11.125,0,20.144,9.018,20.144,20.144
	C200.328,413.899,191.31,422.918,180.184,422.918z"/>
<path style="fill:#EFEDEE;" d="M472.674,29.633l-3.776-17.171c-0.749-3.407-4.119-5.562-7.526-4.813l-82.381,18.116
	c-4.199,0.923-7.805,3.592-9.917,7.337l-32.172,57.074l26.323,14.837l28.854-51.188l75.782-16.665
	C471.269,36.41,473.424,33.04,472.674,29.633z"/>
<polygon style="fill:#D2D2D2;" points="390.962,55.808 356.275,55.808 336.902,90.175 363.225,105.013 "/>
<path style="fill:#85E7FF;" d="M400.08,80.808H177.171c-8.348,0-15.116,6.768-15.116,15.116v11.398
	c0,8.348,6.768,15.116,15.116,15.116l111.454,25.516l111.454-25.516c8.348,0,15.116-6.768,15.116-15.116V95.924
	C415.196,87.575,408.428,80.808,400.08,80.808z"/>
<path style="fill:#57D0E6;" d="M177.171,122.438c0,0-56.243,25.851-56.243,79.736v222.59c0,14.433,4.035,26.856,9.944,37.308
	c14.976,26.492,43.497,42.428,73.928,42.428h167.65c30.432,0,58.953-15.936,73.928-42.428c5.909-10.453,9.944-22.875,9.944-37.308
	v-222.59c0-53.885-56.243-79.736-56.243-79.736L177.171,122.438L177.171,122.438z"/>
<path style="fill:#FADC60;" d="M397.732,202.174H179.518c-12.89,0-23.339,10.449-23.339,23.339v199.251
	c0,7.028,1.76,13.557,5.38,19.961c8.551,15.127,25.12,24.524,43.24,24.524h167.65c18.121,0,34.689-9.397,43.24-24.523
	c3.621-6.405,5.38-12.935,5.38-19.962V225.513C421.071,212.624,410.622,202.174,397.732,202.174z"/>
<path style="fill:#7CB777;" d="M296.263,365.572l-7.77-15.27l-58.518-50.71l10.278-44.1l-7.77-15.26c-2.04-4-7.08-5.3-10.84-2.86
	c-33.05,21.52-45.26,65.08-26.98,101c18.28,35.93,60.69,51.69,97.53,37.63C296.383,374.412,298.293,369.562,296.263,365.572z"/>
<path style="fill:#F2C42C;" d="M288.493,350.302c-26.18,13.32-58.2,2.9-71.52-23.28c-13.33-26.18-2.9-58.2,23.28-71.53
	L288.493,350.302z"/>
<path style="fill:#7CB777;" d="M363.693,299.742c-3.02-3.75-8.6-4.09-12-0.69l-13,13l-15.574,52.33l-65.146,28.39l-12.99,13
	c-3.41,3.4-3.06,8.98,0.68,12c32.93,26.58,81.44,24.58,112.03-6.01C388.273,381.182,390.273,332.672,363.693,299.742z"/>
<path style="fill:#F2C42C;" d="M338.693,392.772c-22.29,22.29-58.43,22.29-80.72,0l80.72-80.72
	C360.983,334.342,360.983,370.482,338.693,392.772z"/>
<path d="M204.798,476.749h167.65c20.819,0,39.89-10.856,49.769-28.332c4.274-7.561,6.352-15.297,6.352-23.652v-133.5
	c0-4.142-3.358-7.5-7.5-7.5s-7.5,3.358-7.5,7.5v133.5c0,5.7-1.442,11.022-4.409,16.271c-7.223,12.777-21.29,20.714-36.711,20.714
	h-167.65c-15.422,0-29.489-7.938-36.711-20.715c-2.967-5.248-4.409-10.569-4.409-16.269v-199.25c0-8.734,7.105-15.839,15.839-15.839
	H397.73c8.733,0,15.839,7.105,15.839,15.839v35.858c0,4.142,3.358,7.5,7.5,7.5s7.5-3.358,7.5-7.5v-35.858
	c0-17.005-13.834-30.839-30.839-30.839H179.516c-17.004,0-30.839,13.834-30.839,30.839v199.25c0,8.356,2.078,16.092,6.351,23.651
	C164.907,465.892,183.978,476.749,204.798,476.749z"/>
<path d="M214.496,178.729c4.142,0,7.5-3.358,7.5-7.5v-13.416c0-4.142-3.358-7.5-7.5-7.5s-7.5,3.358-7.5,7.5v13.416
	C206.996,175.372,210.354,178.729,214.496,178.729z"/>
<path d="M362.75,178.729c4.142,0,7.5-3.358,7.5-7.5v-13.416c0-4.142-3.358-7.5-7.5-7.5s-7.5,3.358-7.5,7.5v13.416
	C355.25,175.372,358.608,178.729,362.75,178.729z"/>
<path d="M288.623,185.891c9.295,0,18.021-3.885,23.942-10.659c2.726-3.119,2.408-7.857-0.711-10.583s-7.856-2.408-10.583,0.711
	c-3.072,3.515-7.682,5.53-12.648,5.53s-9.577-2.016-12.649-5.531c-2.725-3.119-7.463-3.437-10.583-0.711
	c-3.119,2.726-3.437,7.464-0.71,10.583C270.602,182.005,279.329,185.891,288.623,185.891z"/>
<path d="M235.147,412.271c0.235,4.419,2.35,8.551,5.802,11.338c16.141,13.028,36.521,20.203,57.385,20.203c0.001,0,0,0,0.001,0
	c24.448,0,47.412-9.499,64.656-26.743c16.04-16.039,25.496-37.37,26.628-60.063c1.124-22.525-6.011-44.536-20.089-61.978
	c-2.987-3.702-7.422-5.825-12.167-5.825c-4.144,0-8.042,1.615-10.975,4.548l-51.865,51.865l-23.469-46.117l-31.892-62.669
	c-2.571-5.051-7.696-8.189-13.376-8.189c-2.924,0-5.771,0.847-8.233,2.45c-17.61,11.464-30.356,29.015-35.889,49.42
	c-5.575,20.558-3.333,42.316,6.311,61.268c12.844,25.239,36.862,42.121,64.413,45.973l-12.715,12.715
	C236.563,403.576,234.914,407.878,235.147,412.271z M237.241,266.125l12.233,24.04l-25.644-8.346
	C227.042,275.61,231.607,270.262,237.241,266.125z M220.803,316.656c-2.118-6.659-2.666-13.666-1.609-20.572l25.638,8.344
	L220.803,316.656z M251.635,317.796l-8.354,25.667c-6.13-3.183-11.487-7.765-15.662-13.446L251.635,317.796z M265.898,322.438
	l12.235,24.043c-4.423,1.408-9.013,2.118-13.718,2.118h-0.002c-2.323,0-4.612-0.186-6.86-0.522L265.898,322.438z M275.137,386.215
	c0.001-0.001,0.002-0.002,0.004-0.003l14.902-14.902l0.792-0.792v30.906c-7.935-1.197-15.401-4.283-21.858-9.047L275.137,386.215z
	 M305.834,370.518l21.855,21.855c-6.457,4.764-13.921,7.856-21.855,9.053V370.518z M338.287,381.758l-21.846-21.846h30.876
	C346.141,367.658,343.129,375.173,338.287,381.758z M316.441,344.912l21.854-21.854c4.843,6.585,7.847,14.106,9.023,21.854H316.441z
	 M201.344,334.975c-16.439-32.303-5.952-71.56,24.451-91.342l4.582,9.003c-11.172,7.523-19.48,18.471-23.715,31.481
	c-5.017,15.415-3.731,31.86,3.622,46.308c10.413,20.462,31.154,33.174,54.13,33.175c0.001,0,0.002,0,0.003,0
	c4.663,0,9.237-0.534,13.697-1.574l-11.535,11.535C238.901,374.381,213.779,359.409,201.344,334.975z M250.28,411.072l8.009-8.009
	c11.361,9.018,25.322,13.927,40.046,13.927c17.25,0,33.466-6.718,45.664-18.915c12.383-12.382,18.661-28.584,18.865-44.848
	c0.029-0.268,0.046-0.54,0.046-0.815s-0.017-0.548-0.046-0.816c-0.174-13.907-4.801-27.76-13.88-39.227l8.012-8.011
	c0.077-0.077,0.18-0.155,0.368-0.155c0.197,0,0.364,0.083,0.496,0.246c11.76,14.571,17.719,32.97,16.779,51.81
	c-0.946,18.971-8.849,36.8-22.253,50.204c-14.413,14.413-33.608,22.35-54.051,22.35c-17.448,0-34.481-5.994-47.963-16.875
	c-0.153-0.123-0.235-0.279-0.245-0.463C250.114,411.238,250.23,411.122,250.28,411.072z"/>
<path d="M107.066,430.418h6.554c0.838,12.354,4.432,24.22,10.721,35.345C140.463,494.283,171.292,512,204.798,512h167.65
	c33.506,0,64.335-17.717,80.457-46.237c7.243-12.813,10.916-26.607,10.916-40.999v-222.59c0-41.486-29.716-67.308-47.561-79.075
	c3.977-4.078,6.434-9.645,6.434-15.777V95.924c0-12.471-10.146-22.616-22.616-22.616h-10.373l7.26-12.879l72.505-15.944
	c3.604-0.792,6.685-2.941,8.673-6.051c1.989-3.109,2.647-6.807,1.854-10.412l-3.776-17.171C474.839,4.563,469.167,0,462.733,0
	c-0.997,0-1.997,0.109-2.974,0.324l-82.38,18.116c-6.274,1.38-11.683,5.381-14.84,10.979l-24.74,43.89H243.04
	c-4.142,0-7.5,3.358-7.5,7.5s3.358,7.5,7.5,7.5h157.038c4.199,0,7.616,3.417,7.616,7.616v11.398c0,4.2-3.417,7.616-7.616,7.616
	h-222.91c-4.2,0-7.616-3.417-7.616-7.616V95.924c0-4.2,3.417-7.616,7.616-7.616h35.871c4.142,0,7.5-3.358,7.5-7.5
	s-3.358-7.5-7.5-7.5h-35.871c-12.471,0-22.616,10.146-22.616,22.616v11.398c0,6.132,2.457,11.699,6.434,15.777
	c-17.846,11.767-47.561,37.588-47.561,79.075v7.104h-6.359c-41.571,0-75.391,33.82-75.391,75.391v70.357
	C31.675,396.598,65.496,430.418,107.066,430.418z M375.605,36.785c1.063-1.884,2.883-3.231,4.995-3.695l81.225-17.862l3.268,14.86
	l-74.626,16.411c-2.084,0.458-3.875,1.783-4.923,3.642l-13.059,23.167h-17.468L375.605,36.785z M113.425,375.13h-6.359
	c-11.085,0-20.104-9.018-20.104-20.103V284.67c0-11.085,9.019-20.104,20.104-20.104h6.359
	C113.425,264.566,113.425,375.13,113.425,375.13z M128.425,202.174c0-20.059,8.557-38.33,25.434-54.304
	c10.573-10.008,21.333-16.003,25.068-17.932h219.392c3.745,1.935,14.5,7.929,25.068,17.932
	c16.876,15.974,25.434,34.245,25.434,54.304v222.59c0,11.773-3.019,23.084-8.973,33.617C426.382,482.202,400.556,497,372.448,497
	h-167.65c-28.107,0-53.934-14.798-67.399-38.619c-5.954-10.533-8.973-21.844-8.973-33.617L128.425,202.174L128.425,202.174z
	 M46.675,284.67c0-33.3,27.091-60.391,60.391-60.391h6.359v25.288h-6.359c-19.356,0-35.104,15.748-35.104,35.104v70.357
	c0,19.356,15.748,35.103,35.104,35.103h6.359v25.288h-6.359c-33.3,0-60.391-27.091-60.391-60.391
	C46.675,355.028,46.675,284.67,46.675,284.67z"/>
<g>
</g>
<g>
</g>
<g>
</g>
<g>
</g>
<g>
</g>
<g>
</g>
<g>
</g>
<g>
</g>
<g>
</g>
<g>
</g>
<g>
</g>
<g>
</g>
<g>
</g>
<g>
</g>
<g>
</g>
</svg>
