<?xml version="1.0" encoding="iso-8859-1"?>
<!-- Generator: Adobe Illustrator 19.0.0, SVG Export Plug-In . SVG Version: 6.00 Build 0)  -->
<svg version="1.1" id="Capa_1" xmlns="http://www.w3.org/2000/svg" xmlns:xlink="http://www.w3.org/1999/xlink" x="0px" y="0px"
	 viewBox="0 0 512 512" style="enable-background:new 0 0 512 512;" xml:space="preserve">
<path style="fill:#FD6F71;" d="M235.746,235.744c-73.01,73.01-96.981,38.772-203.012,181.616
	c-7.846,10.57-5.347,25.549,5.523,32.975l1.886,1.288c4.235,2.893,9.306,4.231,14.431,4c10.024-0.452,31.409,3.09,65.625,30.393
	c49.768,39.714,106.712,6.899,132.281-18.67c28.014-22.863,66.399-76.212,31.9-129.728c-11.823-18.341-18.094-32.915-21.228-44.15
	c-5.134-18.404,11.916-35.454,30.32-30.32c11.234,3.134,25.808,9.404,44.15,21.228c53.515,34.498,106.865-3.885,129.728-31.9
	c25.569-25.569,58.383-82.513,18.67-132.281c-27.303-34.215-30.846-55.6-30.393-65.625c0.231-5.124-1.107-10.195-4-14.431
	l-1.288-1.886c-7.426-10.87-22.405-13.37-32.975-5.523C274.517,138.763,308.755,162.734,235.746,235.744z"/>
<path style="fill:#85E7FF;" d="M90.943,398.75c19.48-24.792,58.393-69.729,116.872-96.391c7.898-3.601,17.217-1.801,23.228,4.461
	c21.541,22.442,63.495,78.807,4.24,139.015c-55.695,56.59-113.556,8.517-142.529-19.798C85.279,418.73,84.485,406.969,90.943,398.75
	z"/>
<path style="fill:#57D0E6;" d="M113.968,404.823c-7.475-7.306-8.269-19.068-1.811-27.287c5.495-6.994,12.539-15.593,21.131-24.931
	c-18.735,17.201-32.854,34.064-42.346,46.145c-6.458,8.219-5.664,19.981,1.811,27.287c28.972,28.316,86.833,76.389,142.529,19.798
	c3.664-3.723,6.938-7.431,9.857-11.117C193.083,474.764,140.975,431.218,113.968,404.823z"/>
<path style="fill:#FADC60;" d="M66.864,432.696c2.819-2.747,1.264-7.534-2.632-8.1l-12.784-1.857
	c-1.547-0.225-2.884-1.196-3.576-2.598l-5.716-11.583c-1.742-3.53-6.776-3.53-8.518,0l-5.716,11.583
	c-0.692,1.402-2.029,2.373-3.576,2.598l-12.783,1.857c-3.895,0.566-5.45,5.353-2.632,8.1l9.249,9.016
	c1.12,1.091,1.63,2.663,1.366,4.203l-2.183,12.732c-0.665,3.88,3.407,6.838,6.891,5.006l11.433-6.011
	c1.383-0.727,3.036-0.727,4.42,0l11.433,6.011c3.484,1.832,7.556-1.127,6.891-5.006l-2.183-12.732
	c-0.264-1.541,0.246-3.112,1.366-4.203L66.864,432.696z"/>
<path style="fill:#85E7FF;" d="M398.751,90.942c-24.792,19.48-69.729,58.393-96.391,116.872c-3.601,7.898-1.801,17.217,4.461,23.228
	c22.442,21.541,78.807,63.495,139.015,4.24c56.59-55.695,8.517-113.556-19.798-142.529
	C418.732,85.276,406.972,84.482,398.751,90.942z"/>
<path style="fill:#57D0E6;" d="M328.036,209.827c-6.262-6.011-8.061-15.33-4.461-23.228c13.671-29.985,32.145-54.812,50.246-74.527
	c-23.762,21.864-52.32,53.76-71.46,95.741c-3.601,7.898-1.802,17.217,4.461,23.228c22.442,21.541,78.807,63.495,139.014,4.24
	c3.84-3.779,7.181-7.567,10.096-11.356C400.002,268.21,349.09,230.036,328.036,209.827z"/>
<path style="fill:#FADC60;" d="M457.645,40.107c-0.728-1.384-0.728-3.036,0-4.42l6.011-11.433c1.831-3.484-1.127-7.556-5.006-6.891
	l-12.731,2.184c-1.541,0.264-3.112-0.247-4.204-1.366l-9.016-9.25c-2.748-2.819-7.534-1.263-8.101,2.632l-1.858,12.784
	c-0.225,1.547-1.196,2.884-2.598,3.576l-11.583,5.717c-3.53,1.742-3.53,6.775,0,8.517l11.583,5.717
	c1.402,0.692,2.373,2.029,2.598,3.576l1.858,12.783c0.566,3.895,5.353,5.451,8.101,2.632l9.016-9.25
	c1.091-1.119,2.663-1.63,4.204-1.366l12.731,2.184c3.879,0.665,6.838-3.407,5.006-6.891L457.645,40.107z"/>
<path d="M150.791,347.26c3.192-2.64,3.641-7.367,1.001-10.56c-2.638-3.192-7.365-3.641-10.559-1.002
	c-19.814,16.38-38.205,35.491-56.228,58.428c-8.835,11.246-7.775,27.275,2.466,37.285c14.637,14.306,37.204,34.376,64.08,43.479
	c9.493,3.215,18.755,4.82,27.771,4.819c22.003,0,42.526-9.561,61.266-28.603c27.589-28.033,37.727-58.534,30.132-90.657
	c-5.982-25.301-21.958-45.948-34.307-58.813c-8.214-8.556-20.973-11.004-31.75-6.091c-13.354,6.088-26.604,13.543-39.382,22.158
	c-3.435,2.315-4.342,6.977-2.026,10.411c2.316,3.434,6.976,4.342,10.411,2.026c12.094-8.153,24.617-15.201,37.219-20.947
	c4.987-2.274,10.898-1.136,14.706,2.83c11.055,11.518,25.327,29.868,30.53,51.877c6.33,26.77-2.494,52.57-26.225,76.683
	c-15.862,16.116-32.575,24.106-50.64,24.105c-7.393,0-15.016-1.339-22.894-4.007c-23.979-8.121-44.818-26.718-58.407-40
	c-4.753-4.646-5.25-12.078-1.156-17.29C114.152,381.309,131.813,362.948,150.791,347.26z"/>
<path d="M301.588,236.462c31.609,30.341,60.425,36.71,79.034,36.71c0.001,0,0.001,0,0.002,0c24.799,0,48.498-10.946,70.434-32.535
	c26.844-26.419,34.845-56.375,23.784-89.036c-9.102-26.876-29.173-49.443-43.479-64.08c-5.316-5.439-12.43-8.434-20.034-8.434
	c-6.227,0-12.353,2.12-17.252,5.968c-45.521,35.766-78.688,76.025-98.581,119.658C290.583,215.488,293.03,228.248,301.588,236.462z
	 M309.145,210.934c18.89-41.432,50.583-79.815,94.2-114.085c2.3-1.808,5.061-2.763,7.983-2.763c3.531,0,6.835,1.392,9.305,3.919
	c13.282,13.589,31.877,34.428,40,58.406c9.188,27.128,2.614,51.181-20.098,73.534c-19.032,18.73-39.19,28.227-59.913,28.226
	c-15.855,0-40.636-5.645-68.647-32.531C308.009,221.833,306.871,215.922,309.145,210.934z"/>
<path d="M11.87,446.083c0,0-1.937,11.297-1.938,11.306c-1.263,7.366,4.599,14.331,12.072,14.331c5.456,0,11.151-4.283,15.855-6.755
	c0,0,10.151,5.337,10.152,5.337c5.057,2.659,11.405,1.4,15.084-2.962c0.811-0.962,1.448-2.035,1.921-3.17
	c10.361,2.277,27.05,9.035,50.464,27.719c16.712,13.335,35.7,20.111,55.898,20.111c8.468,0,17.151-1.191,25.965-3.59
	c30.229-8.224,51.94-27.345,60.131-35.482c8.921-7.33,30.131-27.004,41.359-56.252c11.082-28.868,8.25-57.606-8.19-83.11
	c-10.015-15.536-16.848-29.701-20.308-42.102c-1.674-6-0.024-12.23,4.412-16.668c4.436-4.437,10.667-6.086,16.668-4.412
	c12.4,3.459,26.565,10.292,42.102,20.308c25.503,16.441,54.244,19.273,83.11,8.19c29.247-11.228,48.921-32.438,56.252-41.359
	c8.137-8.191,27.258-29.902,35.482-60.131c8.118-29.837,2.405-58.145-16.521-81.863c-18.672-23.399-25.433-40.083-27.715-50.446
	c2.362-0.98,4.389-2.7,5.777-4.996c2.234-3.698,2.366-8.194,0.352-12.025l-5.338-10.153l5.338-10.153
	c2.014-3.831,1.882-8.326-0.352-12.024c-2.582-4.275-7.642-6.59-12.563-5.749l-11.306,1.939l-8.006-8.214
	C435.7,1.315,432.594,0,429.283,0c-6.155,0-11.264,4.413-12.148,10.493l-1.649,11.352l-10.286,5.076
	c-4.136,2.041-6.727,6.137-6.82,10.731c-15.189,11.668-28.901,22.886-40.771,33.375c-3.104,2.743-3.396,7.482-0.654,10.586
	c2.743,3.104,7.482,3.396,10.586,0.654c11.517-10.177,24.815-21.071,39.584-32.427l8.36,4.126l1.649,11.352
	c0.709,4.876,4.359,8.941,9.149,10.121c0.048,0.012,0.096,0.021,0.144,0.033c4.074,0.997,8.643-0.327,11.601-3.366l8.006-8.214
	c0.896,0.154,1.791,0.307,2.687,0.461c2.073,13.225,9.613,33.235,31.394,60.529c36.502,45.744,5.791,98.399-18.111,122.3
	c-0.179,0.178-0.348,0.366-0.507,0.561c-21.372,26.188-70.667,62.047-119.854,30.338c-16.803-10.832-32.345-18.284-46.197-22.148
	c-11.288-3.148-22.99-0.063-31.307,8.254c-8.316,8.316-11.402,20.02-8.253,31.306c3.864,13.853,11.316,29.395,22.148,46.198
	c31.709,49.188-4.151,98.482-30.338,119.854c-0.195,0.16-0.383,0.329-0.561,0.507c-23.902,23.901-76.557,54.612-122.3,18.111
	c-27.293-21.779-47.306-29.321-60.529-31.394l-0.461-2.687l7.006-6.829c3.78-3.685,6.04-8.405,4.307-13.736
	c-1.419-4.367-5.337-7.678-9.888-8.335l-11.352-1.649l-4.132-8.373c28.494-37.401,59.017-75.926,120.84-112.745
	c20.695-12.326,42.095-25.07,70.381-53.357s41.033-49.687,53.358-70.382c12.542-21.056,24.386-40.944,51.961-68.533
	c2.928-2.93,2.927-7.678-0.003-10.606s-7.679-2.927-10.606,0.003c-28.896,28.91-41.78,50.542-54.239,71.461
	c-12.401,20.821-24.114,40.488-51.078,67.451s-46.629,38.676-67.45,51.076c-32.237,19.2-65.556,39.044-125.356,116.901
	c-4.59,0.096-8.683,2.687-10.723,6.819l-5.076,10.286c0,0-11.342,1.648-11.352,1.649c-9.846,1.431-13.921,13.942-6.789,20.894
	L11.87,446.083z M423.419,34.656c3.617-1.785,6.122-5.233,6.701-9.223l1.056-7.267l5.127,5.26c2.774,2.845,6.918,4.194,10.841,3.521
	l7.237-1.241l-3.417,6.499c-1.877,3.57-1.877,7.832,0,11.401l3.417,6.499c-2.412-0.414-4.825-0.827-7.237-1.241
	c-0.044-0.008-0.09-0.007-0.134-0.015c-3.924-0.628-7.908,0.678-10.708,3.538l-5.125,5.258l-1.056-7.266
	c-0.012-0.083-0.037-0.162-0.051-0.245c-0.672-4.076-3.26-6.892-6.65-8.979l-6.481-3.199l-0.104-0.051L423.419,34.656z
	 M25.385,430.17c3.991-0.58,7.439-3.085,9.223-6.701l3.25-6.585c1.083,2.195,2.167,4.39,3.25,6.585
	c1.785,3.617,5.233,6.122,9.223,6.701l7.267,1.056l-5.257,5.125c-2.853,2.786-4.197,6.917-3.523,10.843l1.241,7.237l-6.499-3.417
	c-3.536-1.859-7.865-1.859-11.4,0l-6.5,3.417l1.241-7.237c0.682-3.975-0.636-8.028-3.522-10.842l-5.258-5.125L25.385,430.17z"/>
<g>
</g>
<g>
</g>
<g>
</g>
<g>
</g>
<g>
</g>
<g>
</g>
<g>
</g>
<g>
</g>
<g>
</g>
<g>
</g>
<g>
</g>
<g>
</g>
<g>
</g>
<g>
</g>
<g>
</g>
</svg>
