<?xml version="1.0" encoding="iso-8859-1"?>
<!-- Generator: Adobe Illustrator 19.0.0, SVG Export Plug-In . SVG Version: 6.00 Build 0)  -->
<svg version="1.1" id="Capa_1" xmlns="http://www.w3.org/2000/svg" xmlns:xlink="http://www.w3.org/1999/xlink" x="0px" y="0px"
	 viewBox="0 0 512.001 512.001" style="enable-background:new 0 0 512.001 512.001;" xml:space="preserve">
<path style="fill:#FF98C5;" d="M497.537,221.811c13.643-13.299,6.115-36.469-12.74-39.209l-131.89-19.165
	c-7.487-1.088-13.959-5.79-17.308-12.575L276.614,31.348c-8.432-17.085-32.795-17.085-41.227,0l-58.984,119.513
	c-3.348,6.784-9.821,11.487-17.308,12.575l-131.89,19.165c-18.854,2.74-26.383,25.91-12.74,39.209l95.437,93.028
	c5.418,5.281,7.89,12.89,6.611,20.347L93.984,466.543c-3.221,18.778,16.489,33.098,33.353,24.232l117.967-62.019
	c6.697-3.521,14.697-3.521,21.394,0l117.966,62.019c16.864,8.866,36.574-5.454,33.353-24.232l-22.529-131.358
	c-1.279-7.457,1.193-15.066,6.611-20.347L497.537,221.811z"/>
<circle cx="256.003" cy="57.011" r="7"/>
<path d="M203.107,96.764c3.714,1.833,8.211,0.308,10.045-3.406l28.961-58.682c2.668-5.406,7.86-8.633,13.888-8.633
	c6.028,0,11.22,3.228,13.887,8.633l58.984,119.513c4.442,9,13.023,15.234,22.954,16.677l131.891,19.165
	c5.966,0.867,10.639,4.808,12.502,10.541c1.863,5.733,0.398,11.668-3.918,15.876l-95.437,93.028
	c-7.187,7.005-10.465,17.093-8.769,26.985l9.951,58.022c0.626,3.653,3.797,6.233,7.383,6.233c0.421,0,0.848-0.036,1.276-0.109
	c4.083-0.7,6.825-4.577,6.125-8.66l-9.951-58.021c-0.862-5.025,0.803-10.149,4.454-13.708l95.438-93.028
	c8.371-8.16,11.327-20.135,7.714-31.252c-3.612-11.118-13.043-19.068-24.611-20.749l-131.891-19.165
	c-5.045-0.733-9.404-3.9-11.661-8.472L283.339,28.038c-5.173-10.482-15.648-16.994-27.338-16.995l0,0
	c-11.689,0-22.166,6.513-27.339,16.995l-28.961,58.682C197.867,90.434,199.392,94.931,203.107,96.764z"/>
<path d="M104.668,320.219c3.65,3.559,5.315,8.683,4.454,13.708l-22.53,131.357c-1.976,11.522,2.671,22.948,12.128,29.819
	c5.344,3.882,11.596,5.855,17.891,5.855c4.845,0,9.716-1.169,14.216-3.535l117.966-62.019c4.513-2.373,9.901-2.373,14.414,0
	l117.967,62.019c10.347,5.44,22.649,4.551,32.106-2.32c9.458-6.871,14.105-18.297,12.129-29.819l-7.626-44.465
	c-0.7-4.083-4.574-6.825-8.66-6.125c-4.083,0.7-6.824,4.578-6.124,8.66l7.626,44.465c1.019,5.941-1.284,11.604-6.161,15.147
	c-4.877,3.543-10.974,3.984-16.31,1.178l-117.967-62.019c-8.883-4.669-19.489-4.67-28.374,0l-117.966,62.02
	c-5.336,2.805-11.433,2.364-16.31-1.179c-4.877-3.543-7.18-9.206-6.161-15.147l22.529-131.358
	c1.696-9.892-1.581-19.979-8.768-26.984l-95.438-93.028c-4.316-4.208-5.782-10.143-3.919-15.876
	c1.863-5.733,6.536-9.673,12.502-10.541l131.891-19.165c9.932-1.443,18.513-7.678,22.955-16.677l15.948-32.313
	c1.833-3.714,0.308-8.212-3.406-10.045c-3.716-1.833-8.212-0.308-10.045,3.406l-15.948,32.313
	c-2.256,4.572-6.615,7.739-11.661,8.472L26.125,175.187c-11.568,1.681-20.999,9.632-24.61,20.75
	c-3.612,11.118-0.656,23.093,7.715,31.252L104.668,320.219z"/>
<path d="M199.974,262.282v-11.497c0-4.143-3.358-7.5-7.5-7.5c-4.142,0-7.5,3.357-7.5,7.5v11.497c0,4.142,3.358,7.5,7.5,7.5
	C196.616,269.782,199.974,266.424,199.974,262.282z"/>
<path d="M327.027,262.282v-11.497c0-4.143-3.358-7.5-7.5-7.5s-7.5,3.357-7.5,7.5v11.497c0,4.142,3.358,7.5,7.5,7.5
	S327.027,266.424,327.027,262.282z"/>
<path d="M235.385,255.834c-3.119,2.726-3.437,7.464-0.711,10.583c5.278,6.038,13.051,9.501,21.326,9.501
	c8.275,0,16.048-3.463,21.326-9.501c2.726-3.119,2.408-7.856-0.711-10.583c-3.119-2.726-7.857-2.408-10.583,0.711
	c-2.429,2.779-6.085,4.373-10.032,4.373c-3.947,0-7.603-1.594-10.032-4.373C243.241,253.427,238.504,253.109,235.385,255.834z"/>
<circle cx="256.003" cy="94.511" r="9.5"/>
<circle cx="256.003" cy="132.012" r="12"/>
<circle cx="61.421" cy="214.283" r="7"/>
<circle cx="98.092" cy="222.143" r="9.5"/>
<circle cx="134.752" cy="230.013" r="12"/>
<circle cx="147.942" cy="423.115" r="7"/>
<circle cx="168.302" cy="391.624" r="9.5"/>
<circle cx="188.663" cy="360.134" r="12"/>
<circle cx="450.575" cy="214.283" r="7"/>
<circle cx="413.915" cy="222.143" r="9.5"/>
<circle cx="377.244" cy="230.013" r="12"/>
<circle cx="364.064" cy="423.115" r="7"/>
<circle cx="343.694" cy="391.624" r="9.5"/>
<circle cx="323.334" cy="360.134" r="12"/>
<g>
</g>
<g>
</g>
<g>
</g>
<g>
</g>
<g>
</g>
<g>
</g>
<g>
</g>
<g>
</g>
<g>
</g>
<g>
</g>
<g>
</g>
<g>
</g>
<g>
</g>
<g>
</g>
<g>
</g>
</svg>
