<?xml version="1.0" encoding="iso-8859-1"?>
<!-- Generator: Adobe Illustrator 19.0.0, SVG Export Plug-In . SVG Version: 6.00 Build 0)  -->
<svg version="1.1" id="Capa_1" xmlns="http://www.w3.org/2000/svg" xmlns:xlink="http://www.w3.org/1999/xlink" x="0px" y="0px"
	 viewBox="0 0 511.999 511.999" style="enable-background:new 0 0 511.999 511.999;" xml:space="preserve">
<g>
	<polygon style="fill:#C86D5C;" points="427.201,141.311 407.835,142.822 390.11,172.866 390.11,199.874 411.106,199.874 
		428.842,169.831 	"/>
	<polygon style="fill:#C86D5C;" points="460.1,85.702 443.294,82.746 425.569,112.79 427.201,141.311 446.567,139.788 
		464.29,109.754 	"/>
</g>
<g>
	<polygon style="fill:#EFEDEE;" points="411.106,199.874 384.101,245.636 356.706,229.468 390.11,172.866 	"/>
	<polygon style="fill:#EFEDEE;" points="446.567,139.788 428.842,169.831 407.835,142.822 425.569,112.79 	"/>
	<path style="fill:#EFEDEE;" d="M475.708,90.413l-11.418,19.341l-20.996-27.008l5.019-8.501c2.42-4.091,7.695-5.445,11.777-3.036
		l12.582,7.427C476.764,81.046,478.129,86.322,475.708,90.413z"/>
</g>
<path style="fill:#FF98C5;" d="M309.056,173.938c-21.893,0-42.11,7.169-58.438,19.284c-4.152-7.089-11.843-11.854-20.652-11.854
	c-13.212,0-23.922,10.71-23.922,23.922c0,10.229,6.423,18.955,15.455,22.375c-6.788,13.345-10.617,28.448-10.617,44.446
	c0,12.426,2.309,24.313,6.521,35.256l184.17-2.333c3.663-10.292,5.657-21.375,5.657-32.923
	C407.23,217.891,363.276,173.938,309.056,173.938z"/>
<path style="fill:#EB5E8A;" d="M401.573,305.035c3.663-10.292,5.657-21.375,5.657-32.923c0-54.22-43.954-98.174-98.174-98.174
	c-5.084,0-10.073,0.402-14.948,1.148c47.074,7.243,83.122,47.924,83.122,97.026c0,11.549-1.994,22.631-5.657,32.923H401.573z"/>
<path style="fill:#C86D5C;" d="M242.531,307.368c4.212-10.942,6.521-22.83,6.521-35.256c0-54.22-43.954-98.174-98.174-98.174
	s-98.174,43.954-98.174,98.174c0,11.549,1.994,22.632,5.657,32.923L242.531,307.368z"/>
<path style="fill:#AD4F3D;" d="M88.361,305.035c-3.663-10.292-5.657-21.375-5.657-32.923c0-49.12,36.074-89.813,83.174-97.035
	c-4.891-0.75-9.9-1.139-15-1.139c-54.22,0-98.174,43.954-98.174,98.174c0,11.549,1.994,22.631,5.657,32.923H88.361z"/>
<path style="fill:#85E7FF;" d="M268.708,446.523c-11.897-5.163-19.657-16.819-19.657-29.789v-18.065l-19.085-19.278l-19.084,19.278
	v18.065c0,12.969-7.759,24.626-19.657,29.789c-13.212,5.734-30.033,15.629-40.348,31.471l79.089,13.253l79.089-13.253l0,0
	C298.741,462.151,281.92,452.256,268.708,446.523z"/>
<path style="fill:#57D0E6;" d="M180.878,477.994c10.315-15.843,27.137-25.738,40.348-31.472
	c11.897-5.163,19.657-16.819,19.657-29.789v-18.065l4.084-4.126l-15-15.152l-19.084,19.278v18.065
	c0,12.969-7.759,24.625-19.657,29.789c-13.212,5.734-30.033,15.629-40.348,31.472l79.089,13.253l15-2.513L180.878,477.994z"/>
<path style="fill:#85E7FF;" d="M418.478,285.465H41.456c-4.184,0-7.233,3.966-6.142,8.005c6.989,25.88,40.993,105.63,194.654,105.63
	s187.664-79.749,194.654-105.63C425.711,289.431,422.662,285.465,418.478,285.465z"/>
<path style="fill:#57D0E6;" d="M65.313,293.47c-1.091-4.039,1.959-8.005,6.142-8.005h-30c-4.184,0-7.233,3.966-6.142,8.005
	c6.989,25.88,40.993,105.63,194.654,105.63c5.136,0,10.128-0.096,15-0.269C104.074,393.822,72.069,318.485,65.313,293.47z"/>
<path style="fill:#FADC60;" d="M229.967,195.291c0,17.002-13.783,30.784-30.784,30.784l0,0c-17.002,0-30.784-13.783-30.784-30.784
	c0,17.002-13.783,30.784-30.784,30.784l0,0c-17.002,0-30.784-13.783-30.784-30.784c0-68.007,55.13-123.137,123.137-123.137
	s123.137,55.13,123.137,123.137c0,17.002-13.783,30.784-30.785,30.784l0,0c-17.002,0-30.784-13.783-30.784-30.784
	c0,17.002-13.783,30.784-30.784,30.784l0,0C243.749,226.075,229.967,212.292,229.967,195.291z"/>
<path style="fill:#F2C42C;" d="M136.83,195.291c0-62.928,47.206-114.825,108.137-122.226c-4.917-0.597-9.922-0.911-15-0.911
	c-68.007,0-123.137,55.13-123.137,123.137c0,17.001,13.783,30.784,30.784,30.784l0,0c5.448,0,10.561-1.421,15-3.903
	C143.199,216.906,136.83,206.845,136.83,195.291z"/>
<path style="fill:#FF98C5;" d="M331.657,493.726c-9.344-12.316-22.601-15.732-22.601-15.732H150.878c0,0-13.257,3.416-22.601,15.732
	c-3.352,4.418-0.104,10.774,5.441,10.774h192.499C331.761,504.501,335.009,498.144,331.657,493.726z"/>
<path style="fill:#EB5E8A;" d="M158.277,493.726c9.344-12.316,22.601-15.732,22.601-15.732h-30c0,0-13.257,3.416-22.601,15.732
	c-3.352,4.418-0.104,10.774,5.441,10.774h30C158.172,504.501,154.925,498.144,158.277,493.726z"/>
<circle style="fill:#FD6F71;" cx="229.968" cy="63.67" r="27.566"/>
<path d="M153.422,326.338v12.496c0,4.142,3.358,7.5,7.5,7.5s7.5-3.358,7.5-7.5v-12.496c0-4.142-3.358-7.5-7.5-7.5
	S153.422,322.196,153.422,326.338z"/>
<path d="M291.511,326.338v12.496c0,4.142,3.358,7.5,7.5,7.5s7.5-3.358,7.5-7.5v-12.496c0-4.142-3.358-7.5-7.5-7.5
	S291.511,322.196,291.511,326.338z"/>
<path d="M241.361,333.028c-2.765,3.162-6.917,4.976-11.395,4.976s-8.63-1.813-11.394-4.976c-2.727-3.119-7.464-3.437-10.583-0.711
	s-3.437,7.464-0.711,10.583c5.613,6.421,13.882,10.104,22.688,10.104s17.075-3.683,22.688-10.104
	c2.726-3.118,2.408-7.856-0.71-10.583S244.086,329.909,241.361,333.028z"/>
<path d="M441.854,70.432l-69.198,117.252c-4.1-3.073-8.451-5.879-13.045-8.379c-3.03-24.475-12.952-47.794-28.699-66.94
	c-17.166-20.872-40.493-35.961-66.336-43.065c0.297-1.833,0.458-3.712,0.458-5.628c0-15.778-10.476-29.151-24.836-33.541
	c-1.638-11.822-7.377-21.652-16.831-28.657c-3.328-2.466-8.025-1.767-10.491,1.561s-1.767,8.025,1.561,10.491
	c5.303,3.93,8.744,9.118,10.298,15.47c-16.862,2.534-29.834,17.117-29.834,34.675c0,1.918,0.161,3.799,0.459,5.635
	c-16.561,4.559-32.28,12.446-45.856,23.075c-3.262,2.553-3.836,7.267-1.283,10.528s7.268,3.836,10.529,1.282
	c12.455-9.75,26.943-16.901,42.184-20.857c0.296,0.438,0.612,0.859,0.927,1.281c0.007,0.009,0.013,0.018,0.02,0.027
	c6.324,8.584,16.775,13.847,27.408,14.086c10.577,0.238,21.124-4.662,27.804-12.862c0.668-0.816,1.314-1.654,1.91-2.534
	c23.508,6.094,44.769,19.646,60.325,38.56c14.793,17.986,23.781,40.136,25.826,63.254c0.298,3.37,0.452,6.759,0.452,10.143
	c0,12.839-10.446,23.285-23.285,23.285s-23.284-10.445-23.284-23.284c0-4.079-3.423-7.5-7.5-7.5c-4.079,0-7.5,3.42-7.5,7.5
	c0,12.839-10.445,23.284-23.284,23.284c-8.471,0-16.604-4.912-20.571-12.392c-1.729-3.252-2.714-6.959-2.714-10.893
	c0-4.142-3.358-7.5-7.5-7.5s-7.5,3.358-7.5,7.5c0,3.932-0.983,7.637-2.711,10.888c-3.97,7.47-12.098,12.396-20.573,12.396
	c-12.839,0-23.284-10.445-23.284-23.284c0-4.05-3.444-7.5-7.5-7.5c-4.024,0-7.5,3.468-7.5,7.5c0,12.839-10.445,23.284-23.284,23.284
	s-23.284-10.445-23.284-23.284c0-3.515,0.17-7.044,0.481-10.543c1.976-22.139,10.167-42.921,24.012-60.624
	c2.552-3.263,1.976-7.977-1.287-10.528c-3.264-2.552-7.977-1.975-10.528,1.287c-14.797,18.92-23.886,40.948-26.717,64.441
	c-34.085,18.565-55.087,53.738-55.087,92.788c0,1.94,0.069,3.896,0.178,5.854h-3.927c-4.352,0-8.364,1.981-11.009,5.435
	c-2.641,3.449-3.506,7.832-2.374,12.025c3.878,14.362,14.862,42.084,44.842,66.39c31.698,25.698,75.51,40.432,130.467,43.949v10.969
	c0,9.925-5.944,18.917-15.142,22.909c-12.981,5.634-30.539,15.709-42.096,32.019c-5.043,1.861-15.709,6.811-23.843,17.532
	c-3.267,4.306-3.797,10-1.385,14.859c2.435,4.902,7.339,7.948,12.801,7.948h192.499c5.461,0,10.367-3.045,12.801-7.948
	c2.413-4.859,1.882-10.553-1.385-14.859c-8.133-10.72-18.797-15.669-23.841-17.531c-11.558-16.31-29.115-26.386-42.097-32.02
	c-9.199-3.992-15.143-12.984-15.143-22.909v-10.989c32.148-2.083,60.691-8.025,85.084-17.775c3.846-1.538,5.718-5.902,4.181-9.748
	c-1.538-3.846-5.902-5.718-9.748-4.181c-24.838,9.928-54.447,15.67-88.183,17.156c-12.208,0.538-24.444,0.559-36.651-0.028
	c-0.05-0.002-0.1,0.002-0.15,0.001c-54.975-2.52-98.222-16.278-128.723-41.006c-25.71-20.844-35.659-44.232-39.402-57.199h374.014
	c-3.929,13.536-16.556,44.188-53.861,67.485c-3.514,2.194-4.583,6.821-2.389,10.334c2.193,3.513,6.82,4.583,10.334,2.389
	c41.663-26.019,55.979-59.88,60.804-77.748c1.132-4.193,0.267-8.576-2.374-12.025c-2.645-3.454-6.658-5.435-11.009-5.435h-3.926
	c0.109-1.958,0.178-3.913,0.178-5.854c0-16.309-3.667-31.94-10.417-45.97l77.85-131.909c2.191-3.704,2.806-8.039,1.732-12.206
	c-1.074-4.168-3.708-7.667-7.411-9.848l-12.583-7.428c-2.476-1.461-5.3-2.233-8.168-2.233
	C450.061,62.517,444.744,65.548,441.854,70.432z M229.966,43.605c11.064,0,20.066,9.001,20.066,20.066
	c0,10.886-9.181,20.066-20.066,20.066c-10.899,0-20.066-9.18-20.066-20.066C209.9,52.607,218.902,43.605,229.966,43.605z
	 M324.679,497H135.253c6.268-7.506,14.29-10.671,16.747-11.506h155.926C310.43,486.345,318.427,489.514,324.679,497z M241.55,406.44
	v10.294c0,15.904,9.488,30.297,24.171,36.669c8.195,3.556,18.47,9.091,27.138,17.091H167.073c8.668-8,18.944-13.535,27.138-17.091
	c14.683-6.372,24.17-20.766,24.17-36.669v-10.291c0.009,0.188,10.945,0.157,11.584,0.157c0.073,0,0.144-0.002,0.217-0.002
	C233.972,406.597,237.763,406.544,241.55,406.44z M444.146,96.062l11.094,14.271l-9.526,16.142l-11.095-14.265L444.146,96.062z
	 M426.419,126.1l11.097,14.268l-9.528,16.15l-11.102-14.274L426.419,126.1z M408.688,156.135l11.102,14.275l-9.535,16.15
	l-11.096-14.274L408.688,156.135z M60.203,272.111c0-30.301,14.734-57.885,39.186-74.669c0.021,0.377,0.058,0.75,0.09,1.125
	c0.917,10.741,6.633,20.981,15.285,27.412c7.835,5.824,17.811,8.493,27.504,7.314c10.683-1.301,20.022-7.019,26.129-15.267
	c3.927,5.302,9.188,9.559,15.284,12.269c7.072,3.144,15.072,4.054,22.672,2.601c7.628-1.459,14.721-5.231,20.157-10.785
	c0.146,0.22,0.287,0.442,0.43,0.663c8.254,12.735,13.218,27.411,14.355,42.595c0.314,4.196,0.329,8.397,0.059,12.596H60.394
	C60.267,276.005,60.203,274.05,60.203,272.111z M256.387,277.965c0.028-0.507,0.19-7.542,0.056-10.552
	c-0.541-12.449-3.223-24.525-7.93-35.833c1.666,0.56,3.38,1,5.126,1.328c3.873,0.727,7.854,0.862,11.766,0.386
	c10.683-1.301,20.022-7.019,26.129-15.267c4.307,5.816,10.224,10.368,17.082,13.006c14.675,5.645,31.764,1.439,42.242-10.26
	c5.503-6.145,8.889-13.978,9.594-22.196c0.032-0.378,0.07-0.754,0.091-1.135c3.032,2.081,5.913,4.329,8.636,6.727
	c20.761,18.282,32.151,46.224,30.358,73.796H256.387z M384.167,197.69l6.792-11.51l11.095,14.272l-6.43,10.896
	C392.214,206.494,388.383,201.926,384.167,197.69z M455.732,77.517c0.194,0,0.373,0.049,0.544,0.151l12.589,7.431
	c0.519,0.306,0.688,0.985,0.383,1.501l-5.809,9.84l-11.096-14.272l2.423-4.104C455.068,77.556,455.582,77.517,455.732,77.517z"/>
<g>
</g>
<g>
</g>
<g>
</g>
<g>
</g>
<g>
</g>
<g>
</g>
<g>
</g>
<g>
</g>
<g>
</g>
<g>
</g>
<g>
</g>
<g>
</g>
<g>
</g>
<g>
</g>
<g>
</g>
</svg>
