<?xml version="1.0" encoding="iso-8859-1"?>
<!-- Generator: Adobe Illustrator 19.0.0, SVG Export Plug-In . SVG Version: 6.00 Build 0)  -->
<svg version="1.1" id="Capa_1" xmlns="http://www.w3.org/2000/svg" xmlns:xlink="http://www.w3.org/1999/xlink" x="0px" y="0px"
	 viewBox="0 0 511.999 511.999" style="enable-background:new 0 0 511.999 511.999;" xml:space="preserve">
<g>
	<path style="fill:#7CB777;" d="M460.999,436.546c-3.803,102.469-58.198,58.569-205,58.569S54.803,539.016,51,436.546H460.999z"/>
	<path style="fill:#7CB777;" d="M390.167,57.322L256.004,27.521L121.831,57.322c-3.923,12.753-8.358,27.384-13.044,43.478
		l147.212,28.568L403.212,100.8C398.526,84.706,394.091,70.076,390.167,57.322z"/>
</g>
<path style="fill:#FA9F6A;" d="M99.546,133.342C79.467,206.04,57.864,298.807,52.305,383.736l17.519,36.003l186.175,16.807
	l178.94-16.807l24.755-36.003c-5.559-84.93-27.163-177.696-47.241-250.394l-24.755-28.814H161.236L99.546,133.342z"/>
<path style="fill:#E0712F;" d="M80.8,420.73c0.091-10.925,0.604-23.201,1.505-36.994c5.559-84.93,27.163-177.696,47.241-250.395
	c1.517-5.493,3.025-10.867,4.517-16.122l-34.518,16.122c-3.765,13.631-7.583,27.968-11.339,42.826
	c-12.52,49.526-24.35,104.848-31.199,159.153c-0.342,2.715-0.672,5.428-0.989,8.137c-0.634,5.418-1.216,10.823-1.742,16.208
	c-0.789,8.077-1.451,16.108-1.972,24.071l17.519,36.003L80.8,420.73z"/>
<g>
	<path style="fill:#C86D5C;" d="M163.477,182.318l-67.624-11.233c-11.601-1.927-22.569,5.915-24.496,17.516l-1.243,7.481
		c-1.927,11.601,5.915,22.569,17.516,24.496l67.624,11.233c11.601,1.927,22.569-5.915,24.496-17.516l1.243-7.481
		C182.921,195.213,175.078,184.245,163.477,182.318z"/>
	<path style="fill:#C86D5C;" d="M348.521,182.318l67.624-11.233c11.601-1.927,22.569,5.915,24.496,17.516l1.243,7.481
		c1.927,11.601-5.915,22.569-17.516,24.496l-67.624,11.233c-11.601,1.927-22.569-5.915-24.496-17.516l-1.243-7.481
		C329.078,195.213,336.92,184.245,348.521,182.318z"/>
	<path style="fill:#C86D5C;" d="M460.999,436.546c-27.173,8.589-85.02,19.185-205,19.185S78.173,445.135,51,436.546
		c-0.542-14.489-0.06-31.919,1.304-52.81c0,0,23.41,26.762,203.695,26.762s203.695-26.762,203.695-26.762
		C461.059,404.628,461.541,422.057,460.999,436.546z"/>
	<path style="fill:#C86D5C;" d="M255.999,346.165c-26.873,0-52.65-5.641-72.585-15.884c-19.716-10.131-27.487-34.328-17.355-54.044
		c10.131-19.716,34.328-27.487,54.043-17.355c8.542,4.39,21.962,7.01,35.896,7.01c13.935,0,27.354-2.62,35.894-7.009
		c19.713-10.132,43.911-2.363,54.044,17.353c10.132,19.715,2.363,43.912-17.353,54.044
		C308.652,340.523,282.874,346.165,255.999,346.165z"/>
	<path style="fill:#C86D5C;" d="M390.167,57.322c-32.23-3.391-75.658-5.719-134.168-5.719s-101.937,2.328-134.168,5.719
		c2.057-6.683,3.963-12.854,5.699-18.442c5.79-18.693,23.079-31.427,42.646-31.427h171.646c19.566,0,36.856,12.733,42.646,31.427
		C386.203,44.469,388.11,50.64,390.167,57.322z"/>
	<path style="fill:#C86D5C;" d="M412.453,133.342c-83.154-14.288-156.454,42.355-156.454,42.355s-73.3-56.643-156.454-42.355
		c3.141-11.368,6.241-22.256,9.241-32.541c33.254-4.174,80.404-7.214,147.212-7.214s113.959,3.04,147.212,7.214
		C406.212,111.086,409.313,121.973,412.453,133.342z"/>
</g>
<path style="fill:#35925D;" d="M51.193,440.749c0.707,13.317,2.081,27.175,7.687,39.523c2.582,5.691,6.309,10.999,11.27,14.858
	c4.386,3.412,9.534,5.624,14.891,7.002c12.288,3.161,25.136,2.578,37.681,1.801c0.608-0.038,1.217-0.076,1.854-0.119
	c-28.715-3.163-41.781-18.918-43.575-67.269H51C51.054,437.979,51.119,439.373,51.193,440.749z"/>
<path style="fill:#AD4F3D;" d="M51,436.546c7.54,2.383,17.448,4.921,30.386,7.344c-0.157-2.366-0.29-4.8-0.385-7.344
	c-0.433-11.582-0.211-25.049,0.592-40.654c-24.128-6.258-29.289-12.156-29.289-12.156c-0.9,13.774-1.555,27.578-1.521,41.384
	C50.793,429.118,50.864,432.924,51,436.546z"/>
<path style="fill:#35925D;" d="M137.191,106.312c0.534-1.848,1.069-3.701,1.598-5.512c4.686-16.095,9.121-30.725,13.044-43.478
	c0.758-2.464,1.489-4.833,2.205-7.153l-32.206,7.153l0,0c-1.471,4.782-10.144,33.582-11.299,37.512
	c-0.577,1.965-1.159,3.954-1.745,5.966L137.191,106.312z"/>
<path style="fill:#AD4F3D;" d="M152.646,54.682c1.745-5.665,3.383-10.964,4.886-15.802c5.79-18.693,23.079-31.427,42.646-31.427
	h-30.001c-8.56,0-16.685,2.437-23.602,6.744c-8.994,5.601-15.884,14.481-19.044,24.683c-1.302,4.192-5.185,16.772-5.699,18.443
	C131.136,56.343,141.381,55.453,152.646,54.682z"/>
<path style="fill:#EFEDEE;" d="M255.999,290.976c-12.415,0-24.478-1.697-34.738-4.79l-0.037,0.008v0.029l-11.983,12.18
	l11.983,18.883c10.849,2.478,22.632,3.792,34.775,3.792l11.243-14.617L255.999,290.976z"/>
<path style="fill:#D2D2D2;" d="M290.774,286.195l-0.037-0.008c-10.26,3.092-22.323,4.79-34.738,4.79v30.103
	c12.143,0,23.926-1.314,34.775-3.792l13.136-24.16L290.774,286.195z"/>
<path style="fill:#EFEDEE;" d="M323.627,287.702c-2.594-5.046-7.736-8.181-13.42-8.181c-2.383,0-4.687,0.563-6.845,1.672
	c-3.755,1.93-8.01,3.604-12.628,4.995c0.002,0,0.004-0.001,0.005-0.001l0.037,0.008v31.092c9.666-2.208,18.593-5.335,26.345-9.319
	c3.576-1.838,6.221-4.958,7.451-8.786C325.799,295.354,325.464,291.276,323.627,287.702z"/>
<path style="fill:#D2D2D2;" d="M188.373,287.702c2.594-5.046,7.736-8.181,13.42-8.181c2.383,0,4.687,0.563,6.845,1.672
	c3.755,1.93,8.01,3.604,12.628,4.995c-0.002,0-0.004-0.001-0.005-0.001l-0.037,0.008v31.092c-9.666-2.208-18.593-5.335-26.345-9.319
	c-3.576-1.838-6.221-4.958-7.451-8.786C186.2,295.354,186.535,291.276,188.373,287.702z"/>
<path style="fill:#AD4F3D;" d="M130.181,131.06c2.923-10.538,5.809-20.669,8.607-30.26c0.311-1.067,0.617-2.11,0.925-3.164
	c-11.452,0.941-21.725,2.008-30.926,3.164l0,0c-0.75,2.571-1.506,5.18-2.268,7.825c-1.523,5.289-3.068,10.721-4.626,16.281
	c-0.779,2.78-1.562,5.592-2.347,8.434C109.953,131.554,120.206,130.877,130.181,131.06z"/>
<path d="M310.206,246.983c-7.506,0-15.024,1.824-21.741,5.276c-7.417,3.812-19.856,6.18-32.466,6.18
	c-12.608,0-25.05-2.368-32.468-6.181c-6.715-3.451-14.233-5.275-21.74-5.275c-17.954,0-34.203,9.914-42.403,25.874
	c-12.005,23.364-2.765,52.138,20.598,64.143c20.975,10.778,47.971,16.713,76.013,16.713c28.044,0,55.04-5.936,76.014-16.714
	c23.363-12.006,32.602-40.781,20.595-64.145C344.407,256.896,328.159,246.983,310.206,246.983z M325.157,323.657
	c-18.892,9.708-43.453,15.056-69.158,15.056c-25.703,0-50.262-5.347-69.157-15.055c-16.006-8.225-22.337-27.939-14.111-43.946
	c5.619-10.936,16.754-17.729,29.062-17.729c5.206,0,10.213,1.217,14.883,3.616c9.694,4.982,24.028,7.84,39.324,7.84
	c15.297,0,29.63-2.857,39.322-7.839c4.67-2.4,9.677-3.617,14.883-3.617c12.306,0,23.442,6.792,29.062,17.727
	C347.492,295.717,341.163,315.43,325.157,323.657z"/>
<path d="M310.206,272.068c-3.588,0-7.045,0.842-10.273,2.502c-11.072,5.69-27.085,8.954-43.933,8.954s-32.861-3.264-43.933-8.954
	c-3.23-1.661-6.687-2.502-10.274-2.502c-8.508,0-16.207,4.695-20.09,12.252c-5.683,11.06-1.309,24.683,9.75,30.367
	c19.691,10.12,42.575,13.94,64.548,13.94c21.997,0,44.83-3.805,64.549-13.941c5.355-2.753,9.32-7.427,11.163-13.164
	C336.332,287.141,325.231,272.068,310.206,272.068z M248.499,313.446c-6.807-0.317-13.438-1.061-19.774-2.213v-15.412
	c6.277,1.291,12.942,2.14,19.774,2.501V313.446z M263.499,298.322c6.832-0.361,13.497-1.21,19.774-2.501v15.412
	c-6.335,1.152-12.967,1.896-19.774,2.213V298.322z M195.043,291.177c1.302-2.534,3.888-4.108,6.749-4.108
	c1.196,0,2.313,0.276,3.417,0.843c2.631,1.353,5.488,2.583,8.515,3.696v15.963c-5.538-1.731-10.715-3.811-15.416-6.226
	C194.604,299.442,193.14,294.88,195.043,291.177z M317.43,296.935c-0.618,1.921-1.946,3.488-3.739,4.41
	c-4.701,2.416-9.878,4.495-15.417,6.226v-15.963c3.027-1.113,5.884-2.344,8.516-3.697c1.102-0.567,2.22-0.843,3.415-0.843
	C315.226,287.068,318.967,292.142,317.43,296.935z"/>
<path d="M467.178,383.295c-3.122-47.698-11.666-102.837-25.376-163.92c5.958-6.326,9.01-15.259,7.479-24.475l-1.243-7.48
	c-1.807-10.879-9.463-19.432-19.445-22.672c-2.798-10.832-15.068-55.325-18.177-65.982c-0.001-0.005-0.002-0.009-0.003-0.014
	c-4-13.738-17.045-56.454-18.781-62.043C384.832,14.752,364.815,0,341.822,0H170.176c-22.993,0-43.01,14.752-49.808,36.703
	c-1.737,5.594-3.646,11.77-5.704,18.458c0,0.001-0.001,0.002-0.001,0.003c-4.922,15.998-9.077,29.849-13.077,43.586l0,0
	c-3.166,10.853-6.284,21.834-9.268,32.636c0,0.002-0.001,0.003-0.002,0.005c-3.087,11.178-6.073,22.369-8.91,33.355
	c-9.983,3.239-17.639,11.792-19.446,22.672l-1.243,7.48c-1.261,7.587,0.509,15.211,4.983,21.467
	c0.768,1.073,1.603,2.079,2.492,3.024c-13.705,61.074-22.25,116.208-25.371,163.906v0.001c-1.42,21.745-1.85,39.27-1.315,53.578
	v0.001c1.196,32.22,7.441,51.576,20.25,62.76c18.572,16.217,48.051,13.315,92.67,8.924c26.697-2.627,59.92-5.897,99.573-5.897
	s72.877,3.27,99.573,5.897c18.815,1.852,34.939,3.438,48.687,3.438c18.854,0,33.243-2.984,43.983-12.363
	c12.809-11.184,19.054-30.541,20.25-62.761v-0.001C469.028,422.56,468.598,405.034,467.178,383.295L467.178,383.295z
	 M451.849,380.185c-6.854,3.898-14.417,6.082-21.979,8.137c-33.268,9.043-68.421,11.375-102.707,13.096
	c-21.534,1.081-45.273,1.627-71.164,1.627c-70.676,0-125.397-4.049-162.644-12.036c-4.905-1.051-9.716-2.398-14.578-3.614
	c-5.759-1.44-11.565-3.57-16.86-6.261c-0.623-0.316-1.239-0.647-1.846-0.994c3.196-44.725,11.152-96.023,23.682-152.686
	c0.432,0.114,2.199,0.495,2.65,0.57l28.642,4.758v23.021c0,4.142,3.358,7.5,7.5,7.5c4.142,0,7.5-3.358,7.5-7.5v-20.528l23.982,3.983
	c15.529,2.581,30.546-8.17,33.124-23.687c0,0,1.242-7.48,1.244-7.497c1.242-7.496-0.565-15.27-4.985-21.452
	c-4.411-6.168-11.231-10.395-18.703-11.656l-65.632-10.902c2.07-7.934,4.216-15.964,6.415-24.001
	c0.171-0.024,0.343-0.048,0.514-0.071c18.256-2.488,36.877-1.587,54.928,1.989c9.266,1.843,18.41,4.314,27.354,7.357
	c18.496,6.293,36.301,14.868,52.806,25.322c2.92,1.848,5.821,3.762,8.622,5.773c0.019,0.014,0.041,0.029,0.059,0.042
	c1.293,0.919,2.466,1.941,4.009,2.419c1.111,0.343,2.282,0.435,3.423,0.249c1.306-0.212,2.539-0.838,3.589-1.624
	c3.305-2.471,6.745-4.721,10.225-6.932c8.82-5.577,22.777-13.548,40.142-20.576c0.015-0.006,0.031-0.012,0.046-0.018
	c15.402-6.459,31.81-10.997,48.323-13.474c15.609-2.341,31.339-2.64,46.979-0.457c2.199,8.036,4.345,16.065,6.415,24.001
	l-16.932,2.813l-48.699,8.089c-9.299,1.545-16.823,7.411-20.856,15.2c-2.788,5.384-3.838,11.845-2.829,17.923
	c1.316,7.92,2.435,15.359,7.883,21.653c6.479,7.484,16.728,11.136,26.484,9.514l23.982-3.983V255.8c0,4.142,3.358,7.5,7.5,7.5
	s7.5-3.358,7.5-7.5v-23.021c0,0,28.431-4.723,28.64-4.758c0.25-0.042,2.66-0.528,2.651-0.571
	c12.529,56.665,20.486,107.966,23.682,152.687C451.9,380.155,451.876,380.17,451.849,380.185z M109.83,124.433
	c1.569-5.572,3.165-11.162,4.777-16.733c0.121-0.379,18.76-1.972,25.751-2.543c27.265-2.235,54.615-3.281,81.964-3.741
	c13.014-0.219,26.031-0.274,39.046-0.274c25.86,0.059,51.724,0.584,77.553,1.879c10.288,0.517,20.568,1.181,30.838,1.986
	c9.227,0.717,18.44,1.627,27.635,2.693c1.611,5.566,3.207,11.158,4.777,16.732c-5.688-0.572-11.414-0.853-17.13-0.853
	c-0.022,0-0.043-0.001-0.065-0.001c-54.378,0-100.592,24.677-121.576,37.998c-2.998,1.903-5.48,3.574-7.398,4.908
	c-4.794-3.335-13.118-8.775-24.195-14.68c-24.368-12.99-62.053-28.226-104.778-28.226c-0.022,0-0.043,0.001-0.065,0.001
	C121.243,123.582,115.518,123.86,109.83,124.433z M434.484,197.359c0.897,5.403-1.501,10.593-5.709,13.548
	c-1.674,1.174-3.619,1.984-5.638,2.32l-67.624,11.233c-7.366,1.224-14.642-3.972-15.868-11.347l-1.243-7.48
	c-1.231-7.412,3.94-14.637,11.347-15.867c0,0,67.625-11.234,67.639-11.236c1.27-0.209,2.573-0.237,3.852-0.087
	c6.051,0.69,10.978,5.281,12.001,11.437L434.484,197.359z M134.695,41.147C139.539,25.508,153.798,15,170.176,15h171.646
	c16.378,0,30.638,10.507,35.483,26.152c0.759,2.444,1.551,4.999,2.374,7.66c-0.189-0.017-1.578-0.138-2.08-0.182
	c-13.173-1.147-26.311-2.008-39.516-2.657c-4.127-0.206-7.655,2.986-7.859,7.123c-0.2,4.062,3.068,7.66,7.124,7.859
	c5.252,0.258,10.58,0.889,15.833,0.889c10.256,0.657,20.503,1.439,30.732,2.431c0.184,0.018,0.362,0.037,0.545,0.055
	c3.021,9.863,5.757,18.941,8.366,27.758c-0.096-0.011-0.196-0.02-0.292-0.03c-45.265-4.837-90.923-5.926-136.417-5.926
	c-0.039,0-0.077,0-0.116,0s-0.077,0-0.116,0c-45.514,0-91.146,1.072-136.432,5.927c-0.091,0.01-0.186,0.019-0.277,0.029
	c2.608-8.815,5.344-17.893,8.365-27.755c0.333-0.033,0.656-0.067,0.99-0.099c11.948-1.153,24.233-2.747,36.245-2.747
	c30.392,0,60.79-2.337,91.225-2.337c18.029,0,35.375,0.227,51.557,0.675c4.098,0.113,7.591-3.193,7.705-7.29
	c0.115-4.141-3.149-7.59-7.29-7.705c-1.149-0.032-2.316-0.06-3.477-0.089c-15.305-0.391-31.592-0.591-48.495-0.591
	c-30.42,0-60.849,0.569-91.222,2.308c-10.323,0.592-20.639,1.314-30.94,2.222c-0.502,0.044-1.018,0.086-1.517,0.131
	C133.143,46.15,133.935,43.593,134.695,41.147z M77.513,197.359c0,0,1.241-7.469,1.243-7.481
	c1.212-7.299,8.573-12.558,15.868-11.347l67.624,11.233c0.04,0.007,0.079,0.019,0.12,0.026c7.264,1.227,12.431,8.603,11.226,15.842
	c-0.414,2.493-0.828,4.987-1.242,7.48c-1.229,7.397-8.481,12.56-15.867,11.347L88.86,213.226
	C81.559,212.008,76.306,204.67,77.513,197.359z M438.377,488.337c-13.688,11.953-40.601,9.304-81.335,5.295
	c-27.022-2.66-60.652-5.969-101.042-5.969s-74.021,3.31-101.043,5.969c-40.735,4.008-67.647,6.657-81.335-5.295
	c-8.062-7.039-12.746-20.385-14.515-41.625c7.699,1.956,15.45,3.612,23.265,5.035c12.558,2.286,25.226,3.908,37.901,5.382
	c4.041,0.443,7.83-2.589,8.274-6.636c0.443-4.028-2.602-7.83-6.636-8.274c-11.662-1.281-23.287-2.851-34.846-4.866
	c-9.357-1.644-18.723-3.54-27.865-6.152c-0.289-0.081-0.57-0.163-0.856-0.244c-0.189-9.912,0.054-21.367,0.739-34.667
	c0.386,0.167,0.788,0.336,1.197,0.505c14.097,5.842,29.176,8.972,44.163,11.538c0.017,0.003,0.034,0.006,0.051,0.009
	c49.909,8.556,100.973,9.702,151.506,9.702c25.254,0,50.536-0.475,75.75-1.878c0.458-0.025,0.916-0.05,1.371-0.075
	c70.786-3.951,104.306-13.089,119.795-19.79c0.684,13.294,0.928,24.75,0.738,34.663c-0.065,0.019-0.611,0.172-0.82,0.23
	c-17.218,4.782-34.921,7.662-52.635,9.862c-24.821,3.07-49.773,4.774-74.754,5.866c-23.134,0.961-46.292,1.356-69.446,1.356
	c-19.447,0-37.952-0.283-55.392-0.846c-17.439-0.563-33.816-1.405-49.004-2.522c-4.041-0.297-7.729,2.837-8.03,6.93
	c-0.301,4.076,2.855,7.73,6.93,8.03c20.957,1.544,41.963,2.434,62.97,2.927c14.174,0.335,28.348,0.482,42.527,0.482
	c22.927,0,45.855-0.371,68.763-1.328c26.022-1.088,52.049-2.849,77.895-6.118c16.802-2.125,33.577-4.827,49.989-9.062
	c0.079-0.021,0.161-0.041,0.245-0.063C451.124,467.949,446.438,481.298,438.377,488.337z"/>
<g>
</g>
<g>
</g>
<g>
</g>
<g>
</g>
<g>
</g>
<g>
</g>
<g>
</g>
<g>
</g>
<g>
</g>
<g>
</g>
<g>
</g>
<g>
</g>
<g>
</g>
<g>
</g>
<g>
</g>
</svg>
