<?xml version="1.0" encoding="iso-8859-1"?>
<!-- Generator: Adobe Illustrator 19.0.0, SVG Export Plug-In . SVG Version: 6.00 Build 0)  -->
<svg version="1.1" id="Capa_1" xmlns="http://www.w3.org/2000/svg" xmlns:xlink="http://www.w3.org/1999/xlink" x="0px" y="0px"
	 viewBox="0 0 512 512" style="enable-background:new 0 0 512 512;" xml:space="preserve">
<path style="fill:#B8B8B8;" d="M467.82,96.196L467.82,96.196l-7.363,1.227l-9.626-10.277c-26.7-9.233-57.751,0.793-74.434,29.109
	c-37.969-36.377-89.48-58.732-146.215-58.732c-116.745,0-211.386,94.641-211.386,211.387c0,41.117,11.752,79.484,32.062,111.948
	h358.649C525.551,220.956,510.108,127.901,467.82,96.196z"/>
<path style="fill:#D2D2D2;" d="M245.212,58.057c-4.965-0.349-9.976-0.535-15.03-0.535c-116.745,0-211.386,94.641-211.386,211.387
	c0,41.117,11.752,79.484,32.062,111.948h30c-20.31-32.464-32.062-70.831-32.062-111.948
	C48.796,157.198,135.454,65.738,245.212,58.057z"/>
<path style="fill:#85E7FF;" d="M504.5,314.575c-22.656-9.783-48.344-9.783-71,0l0,0c-22.656,9.783-48.344,9.783-71,0l0,0
	c-22.656-9.783-48.344-9.783-71,0l0,0c-22.656,9.783-48.344,9.783-71,0l0,0c-22.656-9.783-48.344-9.783-71,0l0,0
	c-22.656,9.783-48.344,9.783-71,0l0,0c-22.656-9.783-48.344-9.783-71,0v139.902h497V314.575z"/>
<path d="M344.238,190.334c2.856,2.856,7.702,2.904,10.606,0c2.929-2.929,2.929-7.677,0-10.606l-16.03-16.031
	c-2.928-2.929-7.677-2.929-10.606,0s-2.929,7.678,0,10.606C328.208,174.303,344.234,190.33,344.238,190.334z"/>
<ellipse transform="matrix(0.7071 -0.7071 0.7071 0.7071 -61.5591 119.4078)" cx="113.358" cy="134.012" rx="15.869" ry="8.273"/>
<path d="M462.408,83.974c-15.023-7.729-32.877-9.714-49.208-5.294c-15.102,4.087-28.384,13.24-38.156,26.138
	c-40.038-35.401-91.135-54.795-144.862-54.795c-57.36,0-111.587,22.044-152.69,62.073c-2.968,2.89-3.031,7.638-0.141,10.605
	c2.89,2.968,7.639,3.03,10.605,0.141c38.287-37.285,88.796-57.819,142.225-57.819c52.813,0,102.898,20.118,141.026,56.648
	c1.655,1.585,3.945,2.328,6.214,2.014c2.27-0.313,4.272-1.648,5.436-3.623c7.969-13.527,20.136-23.081,34.26-26.903
	c11.883-3.216,24.279-2.231,35.448,2.722c1.719,10.495,4.993,44.358-16.581,76.642c-8.082-4.023-16.165-4.583-19.955-4.583
	c-0.015,0-0.032,0-0.046,0c-4.142,0.005-7.496,3.367-7.491,7.509c0.005,4.139,3.362,7.491,7.5,7.491c0.015,0,0.033,0,0.051,0
	c7.781,0,21.417,2.593,25.67,19.886c0.973,3.956,5.128,6.46,9.074,5.493c4.022-0.989,6.481-5.052,5.492-9.074
	c-1.827-7.427-4.854-13.094-8.47-17.429c19.263-28.149,21.838-57.028,20.992-74.977c13.212,12.678,21.118,32.054,22.596,56.034
	c2.33,37.809-11.535,85.635-40.122,138.491c-5.269,0.978-10.45,2.396-15.52,4.249c-1.762,0.644-3.508,1.331-5.229,2.077
	c-20.672,8.926-44.382,8.926-65.054,0c-12.219-5.277-25.164-7.952-38.473-7.952s-26.254,2.675-38.473,7.952
	c-20.672,8.926-44.382,8.926-65.054,0c-12.219-5.277-25.164-7.952-38.473-7.952s-26.254,2.675-38.473,7.952
	c-20.672,8.926-44.382,8.926-65.054,0c-12.121-5.235-25.271-7.952-38.473-7.952c-4.794,0-9.539,0.353-14.221,1.043
	c-1.649-10.506-2.484-21.196-2.484-31.872c0-45.744,14.808-88.972,42.824-125.013c2.542-3.271,1.952-7.982-1.318-10.524
	c-3.271-2.542-7.982-1.952-10.524,1.318c-30.081,38.698-45.981,85.11-45.981,134.219c0,11.799,0.964,23.613,2.842,35.217
	c-3.247,1.015-6.453,2.201-9.61,3.564C1.779,308.876,0,311.582,0,314.575v139.902c0,4.142,3.358,7.5,7.5,7.5h497
	c4.142,0,7.5-3.358,7.5-7.5V314.575c0-2.993-1.779-5.699-4.527-6.885c-12.188-5.263-25.097-7.937-38.37-7.951
	c62.345-120.612,37.39-190.732-4.224-214.427C464.064,84.849,463.24,84.402,462.408,83.974z M497,446.977H15V319.66
	c3.136-1.142,6.326-2.073,9.555-2.819c16.92-3.91,35.024-2.231,50.971,4.619c12.219,5.276,25.164,7.952,38.473,7.952
	s26.254-2.676,38.473-7.952c20.672-8.926,44.382-8.926,65.054,0c12.219,5.276,25.164,7.952,38.473,7.952s26.254-2.676,38.473-7.952
	c20.672-8.926,44.382-8.926,65.054,0c12.219,5.276,25.164,7.952,38.473,7.952s26.254-2.676,38.473-7.952
	c10.236-4.416,21.378-6.723,32.527-6.723c9.623,0,19.019,1.654,28,4.923v127.317H497z"/>
<g>
</g>
<g>
</g>
<g>
</g>
<g>
</g>
<g>
</g>
<g>
</g>
<g>
</g>
<g>
</g>
<g>
</g>
<g>
</g>
<g>
</g>
<g>
</g>
<g>
</g>
<g>
</g>
<g>
</g>
</svg>
