<?xml version="1.0" encoding="iso-8859-1"?>
<!-- Generator: Adobe Illustrator 19.0.0, SVG Export Plug-In . SVG Version: 6.00 Build 0)  -->
<svg version="1.1" id="Capa_1" xmlns="http://www.w3.org/2000/svg" xmlns:xlink="http://www.w3.org/1999/xlink" x="0px" y="0px"
	 viewBox="0 0 512.001 512.001" style="enable-background:new 0 0 512.001 512.001;" xml:space="preserve">
<path style="fill:#7CB777;" d="M474.666,206.651c-0.997,0-1.983,0.056-2.955,0.161C454.572,112.98,364.527,41.414,256,41.414
	S57.428,112.98,40.289,206.812c-0.972-0.105-1.957-0.161-2.955-0.161c-16.477,0-29.834,14.631-29.834,32.68
	s13.357,32.68,29.834,32.68c0.997,0,1.983-0.056,2.955-0.161C57.428,365.683,147.473,437.248,256,437.248
	s198.572-71.565,215.711-165.398c0.972,0.105,1.957,0.161,2.955,0.161c16.477,0,29.834-14.631,29.834-32.68
	C504.5,221.283,491.143,206.651,474.666,206.651z"/>
<path style="fill:#35925D;" d="M427.281,270.189l33.376-12.246c8.734-3.201,18.251,1.936,20.507,10.962
	c19.884,79.414-23.075,162.925-101.63,191.74c-78.545,28.816-165.323-7.11-201.503-80.546c-4.117-8.346-0.179-18.411,8.554-21.621
	l33.376-12.246l111.234-12.535L427.281,270.189z"/>
<path style="fill:#FADC60;" d="M361.642,411.87c-57.245,20.998-120.673-8.384-141.681-65.638l207.319-76.043
	C448.279,327.433,418.896,390.872,361.642,411.87z"/>
<path d="M172.545,231.48v-16.461c0-4.142-3.358-7.5-7.5-7.5s-7.5,3.358-7.5,7.5v16.461c0,4.143,3.358,7.5,7.5,7.5
	S172.545,235.623,172.545,231.48z"/>
<path d="M354.454,231.48v-16.461c0-4.142-3.358-7.5-7.5-7.5s-7.5,3.358-7.5,7.5v16.461c0,4.143,3.358,7.5,7.5,7.5
	S354.454,235.623,354.454,231.48z"/>
<path d="M256,247.767c10.913,0,21.153-4.555,28.095-12.496c2.726-3.118,2.408-7.856-0.71-10.583
	c-3.118-2.726-7.857-2.409-10.583,0.71c-4.093,4.683-10.218,7.368-16.802,7.368c-6.585,0-12.709-2.686-16.803-7.369
	c-2.727-3.119-7.464-3.437-10.583-0.71s-3.437,7.464-0.71,10.583C234.846,243.212,245.087,247.767,256,247.767z"/>
<path d="M402.72,83.005C361.879,51.353,309.773,33.921,256,33.921c-45.274,0-88.968,12.114-126.358,35.033
	c-3.532,2.165-4.64,6.782-2.475,10.314c2.165,3.531,6.782,4.64,10.314,2.475C172.511,60.271,213.494,48.921,256,48.921
	c50.463,0,99.307,16.315,137.532,45.94c37.639,29.17,62.784,69.41,70.802,113.306c0.706,3.866,4.281,6.53,8.183,6.109
	c0.724-0.078,1.447-0.118,2.149-0.118c12.315,0,22.334,11.296,22.334,25.18c0,9.159-4.305,17.303-11.009,21.719
	c-0.045-0.077-0.096-0.149-0.141-0.226c-3.426-5.746-9.308-9.841-15.905-10.986c-3.943-0.685-8.043-0.34-11.872,1.064
	c0,0-273.924,100.48-274.075,100.536c-12.686,4.653-18.651,19.9-12.695,31.975c0.011,0.023,0.023,0.045,0.035,0.067
	c6.967,14.123,15.927,27.334,26.54,38.973c-34.14-8.756-65.158-25.148-90.783-48.136C75.434,345.92,54.884,310.022,47.667,270.51
	c-0.706-3.864-4.276-6.529-8.179-6.109c-0.727,0.078-1.451,0.118-2.154,0.118c-12.315,0-22.333-11.295-22.333-25.18
	c0-13.885,10.019-25.18,22.333-25.18c0.703,0,1.426,0.04,2.15,0.118c3.909,0.421,7.477-2.243,8.183-6.109
	c7.334-40.151,28.376-76.488,60.851-105.082c3.109-2.737,3.41-7.477,0.673-10.585c-2.737-3.109-7.477-3.41-10.585-0.673
	c-33.368,29.38-55.563,66.43-64.463,107.477C15.044,201.051,0,218.339,0,239.339c0,20.999,15.044,38.287,34.143,40.034
	c8.757,40.374,30.424,76.951,62.936,106.117c33.55,30.099,75.677,49.608,121.939,56.514c29.736,23.183,67.006,36.076,104.721,36.076
	c19.743,0,39.492-3.458,58.379-10.387c26.766-9.818,50.775-26.34,69.433-47.777c2.72-3.125,2.391-7.862-0.733-10.581
	s-7.861-2.391-10.581,0.733c-17.003,19.536-38.886,34.593-63.285,43.543c-50.41,18.492-108.348,8.871-150.233-24.638
	c-17.578-14.062-32-31.999-41.961-52.186c-2.084-4.223-0.05-9.621,4.411-11.263l26.557-9.744c0.148,0.335,2.024,4.348,2.866,5.996
	c12.606,24.662,34.192,44.682,59.954,55.333c41.982,17.356,91.532,8.709,124.996-22.11c32.348-29.791,45.855-77.306,33.344-119.563
	c-0.068-0.234-0.131-0.469-0.2-0.703l26.552-9.742c4.464-1.637,9.505,1.157,10.651,5.742c0.01,0.042,0.02,0.084,0.03,0.125
	c9.814,39.335,3.864,80.404-16.762,115.655c-2.092,3.575-0.89,8.169,2.686,10.261c3.573,2.091,8.169,0.89,10.261-2.686
	c21.125-36.104,28.203-77.785,20.271-118.295c13.015-6.461,21.626-20.53,21.626-36.457c0-21-15.047-38.288-34.146-40.035
	C468.026,154.181,441.524,113.079,402.72,83.005z M330.72,410.891c-14.72,1.007-29.616-1.215-43.415-6.434l35.511-76.655
	l29.105,79.344C351.231,407.343,337.175,410.449,330.72,410.891z M406.623,369.073c-3.956,5.425-8.461,10.444-13.405,14.985
	c-8.503,6.564-17.664,12.556-27.245,17.84l-29.075-79.262l76.679,35.521C411.483,361.942,409.164,365.588,406.623,369.073z
	 M422.565,279.915c0.448,1.397,0.784,2.84,1.129,4.265c3.253,13.432,3.763,27.553,1.443,41.179
	c-1.102,6.469-2.898,12.987-5.249,19.19l-76.687-35.525C343.201,309.024,422.539,279.924,422.565,279.915z M309.206,321.493
	L273.7,398.14c-19.022-10.596-34.61-27.114-43.856-47.537L309.206,321.493z"/>
<g>
</g>
<g>
</g>
<g>
</g>
<g>
</g>
<g>
</g>
<g>
</g>
<g>
</g>
<g>
</g>
<g>
</g>
<g>
</g>
<g>
</g>
<g>
</g>
<g>
</g>
<g>
</g>
<g>
</g>
</svg>
