<?xml version="1.0" encoding="iso-8859-1"?>
<!-- Generator: Adobe Illustrator 19.0.0, SVG Export Plug-In . SVG Version: 6.00 Build 0)  -->
<svg version="1.1" id="Capa_1" xmlns="http://www.w3.org/2000/svg" xmlns:xlink="http://www.w3.org/1999/xlink" x="0px" y="0px"
	 viewBox="0 0 511.999 511.999" style="enable-background:new 0 0 511.999 511.999;" xml:space="preserve">
<path style="fill:#FF98C5;" d="M150.935,496.109h64.606c-0.049-17.107,4.583-30.499,9.995-46.149
	c11.23-32.468,25.209-72.876-9.109-142.181l-57.915,28.675c22.314,45.067,15.803,63.889,5.948,92.379
	C158.198,446.943,150.878,468.134,150.935,496.109z"/>
<path style="fill:#B8B8B8;" d="M332.402,244.258c54.912,24.833,80.634-46.699,146.649-34.463l-4.907-45.431l-132.526-6.071
	L303.798,186.9L332.402,244.258z"/>
<path style="fill:#D2D2D2;" d="M441.67,188.868c-23.753-7.398-56.214-8.362-98.659,8.65L312.498,86.55
	c37.602-10.479,70.869-14.963,98.699-13.392C454.615,118.793,441.879,187.765,441.67,188.868z"/>
<path style="fill:#3A484A;" d="M411.196,73.158c72.013,4.057,107.666,48.608,87.881,134.591c-1.74,7.606-11.125,10.469-16.743,5.061
	c-8.511-8.193-21.864-18.075-40.665-23.932c0,0,0,0,0-0.01L411.196,73.158z"/>
<path style="fill:#EB5E8A;" d="M216.429,307.778l-57.915,28.675c9.35,18.882,13.625,33.149,14.728,45.459
	c0.766,0.009,1.53,0.029,2.298,0.029c21.143,0,41.849-3.315,61.534-9.742C234.84,353.803,228.745,332.652,216.429,307.778z"/>
<path style="fill:#FF98C5;" d="M332.402,244.258c-24.24,62.996-85.326,107.686-156.862,107.686
	c-92.803,0-168.027-75.225-168.027-168.027S82.738,15.89,175.541,15.89c56.503,0,106.493,27.889,136.957,70.661L332.402,244.258z"/>
<path style="fill:#EFEDEE;" d="M343.568,183.917c0,21.267-3.957,41.619-11.165,60.341c-55.568,43.449-156.534,50.686-190.994-38.795
	c-34.47-89.482,68.254-182.274,171.09-118.912c0,0.01,0.01,0.01,0.01,0.01C332.065,114.022,343.568,147.627,343.568,183.917z"/>
<path d="M283.79,145.685c-7.597-4.746-17.033-5.931-25.89-3.249c-8.857,2.682-16.051,8.902-19.739,17.064
	c-1.705,3.775-0.028,8.217,3.747,9.922c1.002,0.453,2.051,0.667,3.083,0.667c2.857,0,5.587-1.642,6.839-4.415
	c1.906-4.218,5.702-7.457,10.416-8.884c4.714-1.427,9.669-0.839,13.595,1.614c3.512,2.195,8.139,1.126,10.334-2.387
	C288.371,152.508,287.302,147.881,283.79,145.685z"/>
<path d="M336.523,253.909c6.312,2.088,12.522,3.126,18.816,3.126c19.454,0,35.907-10.131,51.819-19.93
	c16.951-10.438,34.48-21.232,56.793-21.232c3.819,0,7.75,0.337,11.708,0.966c0.507,0.466,0.994,0.925,1.459,1.373
	c3.274,3.152,7.56,4.888,12.069,4.888c8.277,0,15.343-5.625,17.184-13.669c10.505-45.655,6.287-81.515-12.54-106.58
	c-16.935-22.549-44.597-35.057-82.227-37.179c-3.735-0.211-7.616-0.317-11.533-0.317c-24.863,0-53.303,4.247-84.593,12.612
	C282.363,34.303,230.44,8.39,175.527,8.39c-53.156,0-102.87,23.709-136.393,65.049c-2.609,3.217-2.116,7.94,1.101,10.548
	c3.218,2.609,7.94,2.116,10.548-1.101c30.662-37.811,76.13-59.497,124.743-59.497c39.84,0,77.957,14.913,107.136,41.016
	c-20.187-6.502-39.403-7.567-56.841-4.955c-17.472,2.598-34.328,9.066-48.968,18.965c-35.086,23.725-55.432,66.689-48.216,108.846
	c0.015,0.087,0.03,0.174,0.045,0.261c9.809,57.247,60.084,96.869,117.58,95.34c23.024-0.604,46.714-6.825,67.935-17.985
	c-11.656,19.974-27.539,37.232-46.8,50.7c-29.482,20.612-65.585,30.698-101.475,28.572
	c-84.062-4.987-150.924-74.943-150.924-160.233c0-26.845,6.757-53.407,19.541-76.819c1.985-3.635,0.647-8.192-2.988-10.176
	c-3.636-1.985-8.193-0.647-10.176,2.988C7.392,125.519,0,154.568,0,183.917C0,275.48,70.476,350.88,160.031,358.752
	c10.661,29.045,5.557,43.849-2.67,67.63c-6.237,18.031-13.999,40.471-13.938,69.743c0.009,4.136,3.364,7.484,7.5,7.484
	c0,0,64.606,0,64.626,0c4.142,0,7.5-3.358,7.5-7.5c0-0.186-0.007-0.369-0.02-0.551c0.05-15.584,4.264-27.768,9.583-43.146
	c8.947-25.866,19.963-57.781,7.133-105.078c12.709-5,24.865-11.505,36.247-19.463C302.795,309.131,323.595,283.666,336.523,253.909z
	 M322.807,242.028c-23.231,16.407-52.129,26.094-80.661,25.896c-0.07,0-0.142-0.001-0.212-0.001
	c-41.036-0.173-76.75-24.355-92.4-62.298c-11.913-28.884-8.646-62.544,9.09-88.379c17.406-25.357,46.728-42.079,77.497-43.823
	c24.816-1.407,49.03,6.083,68.463,17.166c0.826,0.476,1.653,0.95,2.477,1.445c0.063,0.038,0.124,0.076,0.187,0.113
	c1.95,2.789,3.812,5.637,5.577,8.546c17.395,28.651,25.377,62.814,22.702,96.21c-0.909,11.344-3.121,23.076-6.512,34.146
	c-0.884,2.885-1.867,5.739-2.915,8.57C325.852,239.804,323.326,241.682,322.807,242.028z M399.293,224.333
	c-15.426,9.499-28.749,17.703-43.955,17.703c-4.434,0-8.865-0.702-13.411-2.132c0.018-0.054,0.034-0.108,0.052-0.162
	c0.987-2.942,1.891-5.906,2.718-8.888c0.008-0.029,0.015-0.058,0.023-0.086c0.412-1.488,0.801-2.982,1.173-4.48
	c0.009-0.038,0.019-0.076,0.028-0.114c1.899-7.67,3.274-15.462,4.118-23.349c10.44-3.947,21.198-7.106,32.18-9.13
	c15.369-2.833,31.019-3.233,46.41-0.351c8.473,1.586,16.833,4.393,24.621,8.213C431.82,204.306,414.673,214.863,399.293,224.333z
	 M481.84,111.857c16.048,21.367,19.384,53.063,9.914,94.219c-0.428,1.873-2.822,2.688-4.232,1.331
	c-2.174-2.093-4.446-4.068-6.778-5.981c-9.228-7.506-19.54-13.414-30.773-17.621c-0.156-0.062,0.452-4.412,0.461-4.514
	c1.718-19.5,0.304-39.442-4.796-58.365c-3.602-13.365-9.182-26.251-16.891-37.768c-0.123-0.184-0.236-0.37-0.36-0.553
	C452.401,86.742,470.339,96.544,481.84,111.857z M407.751,80.501c0.064,0.071,0.125,0.144,0.188,0.216
	c15.361,17.27,23.716,39.746,26.705,62.444c1.414,10.739,1.652,21.583,0.976,32.387c-0.002,0.03-0.004,0.059-0.006,0.089
	c-0.093,1.354-0.196,2.613-0.303,3.762c-0.033-0.008-0.066-0.013-0.099-0.021c-20.308-4.513-41.224-3.677-61.47,0.73
	c-7.369,1.604-14.622,3.677-21.762,6.098c-0.316,0.107-0.63,0.203-0.947,0.312c0.14-9.241-0.447-18.495-1.753-27.644
	c-3.402-23.893-11.831-46.943-24.546-67.449c-0.068-0.11-0.131-0.222-0.199-0.332C355.772,83.129,383.708,79.549,407.751,80.501z
	 M218.436,447.508c-4.823,13.942-9.081,26.251-10.15,41.102h-49.694c1.103-23.094,7.361-41.182,12.944-57.324
	c7.882-22.783,14.271-41.252,4.58-71.843c0.133,0,0.265-0.008,0.398-0.008c8.219-0.03,16.423-0.656,24.556-1.838
	c0.044-0.006,0.089-0.013,0.133-0.019c8.258-1.208,16.388-2.995,24.341-5.353C236.766,394.516,227.056,422.586,218.436,447.508z"/>
<g>
</g>
<g>
</g>
<g>
</g>
<g>
</g>
<g>
</g>
<g>
</g>
<g>
</g>
<g>
</g>
<g>
</g>
<g>
</g>
<g>
</g>
<g>
</g>
<g>
</g>
<g>
</g>
<g>
</g>
</svg>
