<?xml version="1.0" encoding="iso-8859-1"?>
<!-- Generator: Adobe Illustrator 19.0.0, SVG Export Plug-In . SVG Version: 6.00 Build 0)  -->
<svg version="1.1" id="Capa_1" xmlns="http://www.w3.org/2000/svg" xmlns:xlink="http://www.w3.org/1999/xlink" x="0px" y="0px"
	 viewBox="0 0 512 512" style="enable-background:new 0 0 512 512;" xml:space="preserve">
<path style="fill:#E0712F;" d="M257.202,402.304l-196.833,32.23v44.924c0,13.833,11.214,25.048,25.048,25.048h342.593
	c13.833,0,25.048-11.214,25.048-25.048v-44.924L257.202,402.304z"/>
<path style="fill:#CC7643;" d="M90.37,479.458v-44.925l181.795-29.767l-14.963-2.462L60.369,434.533v44.925
	c0,13.833,11.214,25.048,25.048,25.048h30.001C101.584,504.506,90.37,493.292,90.37,479.458z"/>
<g>
	<rect x="73.342" y="159.154" style="fill:#C86D5C;" width="32.221" height="184.535"/>
	<rect x="405.011" y="159.154" style="fill:#C86D5C;" width="32.221" height="184.535"/>
</g>
<g>
	<path style="fill:#AD4F3D;" d="M73.344,228.936c3.949,0.846,7.981,1.373,12.067,1.521c0.897,0.032,1.798,0.049,2.702,0.049
		c5.984,0,11.831-0.721,17.453-2.077v-69.276H73.344V228.936z"/>
	<path style="fill:#AD4F3D;" d="M437.231,159.153h-32.223v69.276c5.622,1.356,11.469,2.077,17.453,2.077
		c0.904,0,1.805-0.017,2.706-0.049c4.084-0.148,8.115-0.675,12.063-1.521V159.153z"/>
</g>
<path style="fill:#7CB777;" d="M253.862,7.493c124.812,0,198.603,73.088,209.096,145.001c3.558,24.383-14.251,47.089-38.876,47.981
	c-0.537,0.019-1.077,0.029-1.619,0.029c-19.52,0-36.066-12.727-41.794-30.336v0.001c-5.728,17.608-22.275,30.335-41.793,30.335
	c-19.52,0-36.066-12.727-41.794-30.336v0.001c-5.728,17.608-22.275,30.335-41.793,30.335s-36.065-12.727-41.793-30.335v-0.001
	c-5.728,17.608-22.275,30.336-41.794,30.336c-19.518,0-36.065-12.727-41.793-30.335v-0.001
	c-5.728,17.608-22.275,30.336-41.794,30.336c-0.542,0-1.082-0.01-1.619-0.029c-24.625-0.892-42.434-23.599-38.876-47.981
	C58.111,80.581,131.902,7.493,256.714,7.493H253.862z"/>
<path style="fill:#35925D;" d="M87.619,152.495c9.877-67.696,75.852-136.421,187.67-144.253c-6.512-0.456-13.179-0.705-20.001-0.736
	C131.344,8.063,58.071,80.856,47.618,152.495c-3.558,24.383,14.251,47.089,38.876,47.981c0.537,0.02,1.077,0.029,1.62,0.029
	c7.372,0,14.319-1.818,20.421-5.026C93.9,187.343,85.01,170.375,87.619,152.495z"/>
<polygon style="fill:#FA9F6A;" points="257.202,339.923 60.369,364.551 60.369,434.534 453.058,434.534 453.058,364.551 "/>
<polygon style="fill:#E0712F;" points="272.165,341.804 257.202,339.923 60.369,364.551 60.369,434.534 90.37,434.534 
	90.37,364.551 "/>
<path style="fill:#FADC60;" d="M453.062,315.291H60.365c-6.503,0-11.774,5.271-11.774,11.774v25.714
	c0,6.503,5.271,11.774,11.774,11.774h392.697c6.503,0,11.774-5.271,11.774-11.774v-25.714
	C464.836,320.563,459.565,315.291,453.062,315.291z"/>
<path style="fill:#F2C42C;" d="M78.592,352.78v-25.714c0-6.502,5.271-11.774,11.774-11.774H60.365
	c-6.503,0-11.774,5.271-11.774,11.774v25.714c0,6.502,5.271,11.774,11.774,11.774h30.001
	C83.863,364.553,78.592,359.282,78.592,352.78z"/>
<path d="M182.553,110.53V95.751c0-4.143-3.358-7.5-7.5-7.5s-7.5,3.357-7.5,7.5v14.778c0,4.142,3.358,7.5,7.5,7.5
	S182.553,114.672,182.553,110.53z"/>
<path d="M345.869,110.53V95.751c0-4.143-3.358-7.5-7.5-7.5c-4.142,0-7.5,3.357-7.5,7.5v14.778c0,4.142,3.358,7.5,7.5,7.5
	C342.511,118.03,345.869,114.672,345.869,110.53z"/>
<path d="M256.711,125.919c10.019,0,19.423-4.185,25.801-11.481c2.726-3.119,2.408-7.856-0.711-10.583
	c-3.119-2.727-7.857-2.408-10.583,0.711c-3.529,4.037-8.816,6.353-14.506,6.353c-5.69,0-10.978-2.315-14.507-6.353
	c-2.726-3.12-7.464-3.437-10.583-0.711c-3.119,2.726-3.437,7.464-0.711,10.583C237.288,121.733,246.692,125.919,256.711,125.919z"/>
<path d="M65.841,202.574v105.211h-5.479c-10.627,0-19.274,8.646-19.274,19.274v25.714c0,7.971,4.863,14.827,11.778,17.757v108.922
	C52.866,497.4,67.467,512,85.414,512h342.593c17.947,0,32.548-14.601,32.548-32.548V370.53c6.915-2.93,11.778-9.786,11.778-17.757
	v-25.714c0-10.628-8.646-19.274-19.274-19.274h-8.331V202.574c5.497-2.89,10.453-6.876,14.615-11.87
	c9.068-10.879,13.089-25.204,11.032-39.299c-5.761-39.484-28.527-76.416-64.103-103.994C366.604,16.66,314.405,0.266,255.251,0
	C206.673,0.218,161.83,11.632,125.57,33.008c-3.568,2.104-4.756,6.701-2.652,10.27c2.104,3.568,6.702,4.756,10.27,2.652
	C167.161,25.902,209.394,15.206,255.251,15c55.752,0.25,104.798,15.557,141.833,44.266c32.494,25.189,53.251,58.679,58.449,94.304
	c1.442,9.884-1.369,19.919-7.712,27.529c-6.234,7.478-15.554,11.898-25.362,11.898c-15.642,0-29.824-10.284-34.661-25.155
	c-1.005-3.089-3.884-5.18-7.132-5.18c-3.248,0-6.127,2.091-7.132,5.18c-4.895,15.045-18.823,25.155-34.661,25.155
	c-15.837,0-29.767-10.108-34.661-25.155c-1.005-3.089-3.884-5.18-7.132-5.18s-6.127,2.091-7.132,5.18
	c-4.895,15.045-18.824,25.155-34.662,25.155c-15.836,0-29.766-10.109-34.661-25.156c-1.005-3.089-3.884-5.18-7.132-5.18
	c-3.248,0-6.127,2.091-7.132,5.18c-4.895,15.046-18.824,25.156-34.662,25.156s-29.767-10.109-34.661-25.156
	c-1.005-3.089-3.884-5.18-7.132-5.18c-3.248,0-6.127,2.091-7.132,5.18c-3.303,10.155-10.725,18.055-20.069,22.123
	c-0.04,0.017-0.082,0.026-0.122,0.044c-4.95,2.173-10.421,3.153-15.818,2.965c-9.314-0.334-18.06-4.734-24.015-11.874
	c-6.343-7.61-9.154-17.644-7.712-27.529c4.942-33.873,24.208-66.168,54.245-90.936c3.196-2.635,3.65-7.362,1.015-10.558
	c-2.635-3.195-7.362-3.65-10.558-1.015C66.822,78.204,45.676,113.84,40.195,151.405c-2.057,14.095,1.964,28.42,11.032,39.299
	C55.389,195.698,60.344,199.684,65.841,202.574z M90.3,207.932c2.602-0.108,5.207-0.397,7.764-0.896v100.748H80.842V207.467
	c0.013,0.002,0.026,0.003,0.039,0.004C81.647,207.56,87.902,208.031,90.3,207.932z M445.556,479.451
	c0,9.676-7.872,17.547-17.547,17.547H85.415c-9.676,0-17.547-7.872-17.547-17.547v-37.424h292.461c4.142,0,7.5-3.358,7.5-7.5
	c0-4.142-3.358-7.5-7.5-7.5H67.867v-54.979h377.689v54.979h-55.226c-4.142,0-7.5,3.358-7.5,7.5c0,4.142,3.358,7.5,7.5,7.5h55.226
	L445.556,479.451L445.556,479.451z M457.334,327.059v25.714c0,2.357-1.917,4.274-4.274,4.274h-0.001h-0.002H60.367h-0.002h-0.003
	c-2.356,0-4.274-1.917-4.274-4.274v-25.714c0-2.357,1.917-4.274,4.274-4.274h392.697
	C455.416,322.784,457.334,324.702,457.334,327.059z M429.729,207.467v100.317h-17.222V207.037c0.097,0.019,0.197,0.03,0.295,0.049
	c2.47,0.468,4.963,0.743,7.474,0.847c3.139,0.13,6.303-0.003,9.413-0.46C429.702,207.47,429.715,207.469,429.729,207.467z
	 M129.905,186.602c9.471,13.205,24.861,21.397,41.793,21.397c16.933,0,32.323-8.191,41.794-21.397
	c9.471,13.205,24.861,21.397,41.793,21.397c16.933,0,32.322-8.191,41.793-21.397c9.471,13.206,24.86,21.397,41.793,21.397
	c16.933,0,32.322-8.191,41.793-21.397c4.453,6.209,10.225,11.29,16.839,14.952v106.231H113.064V201.553
	C119.68,197.892,125.452,192.811,129.905,186.602z"/>
<g>
</g>
<g>
</g>
<g>
</g>
<g>
</g>
<g>
</g>
<g>
</g>
<g>
</g>
<g>
</g>
<g>
</g>
<g>
</g>
<g>
</g>
<g>
</g>
<g>
</g>
<g>
</g>
<g>
</g>
</svg>
