<?xml version="1.0" encoding="iso-8859-1"?>
<!-- Generator: Adobe Illustrator 19.0.0, SVG Export Plug-In . SVG Version: 6.00 Build 0)  -->
<svg version="1.1" id="Capa_1" xmlns="http://www.w3.org/2000/svg" xmlns:xlink="http://www.w3.org/1999/xlink" x="0px" y="0px"
	 viewBox="0 0 512 512" style="enable-background:new 0 0 512 512;" xml:space="preserve">
<path style="fill:#FA9F6A;" d="M353.926,42.718L256,25.109l-97.926,17.609c-17.021,23.167-30.248,46.742-40.308,70.357L256,136.979
	l138.234-23.904C384.174,89.46,370.948,65.885,353.926,42.718z"/>
<path style="fill:#E0712F;" d="M147.766,113.075c10.06-23.615,23.286-47.19,40.308-70.357L271,27.807l-15-2.697l-97.926,17.609
	c-17.021,23.167-30.248,46.742-40.308,70.357L256,136.979l15-2.594L147.766,113.075z"/>
<path style="fill:#85E7FF;" d="M372.95,473.744c-9.86,18.884-29.362,30.756-50.666,30.756H189.717
	c-21.304,0-40.806-11.872-50.666-30.756c-32.818-62.847-84.38-212.595-21.284-360.669h276.467
	C457.33,261.149,405.768,410.897,372.95,473.744z"/>
<path style="fill:#57D0E6;" d="M169.051,473.744c-32.818-62.847-84.381-212.595-21.284-360.669h-30
	c-63.096,148.074-11.534,297.822,21.284,360.669c9.86,18.884,29.362,30.756,50.666,30.756h30
	C198.413,504.5,178.911,492.628,169.051,473.744z"/>
<polygon style="fill:#E0712F;" points="333.547,205.623 353.89,210.772 352.814,231.729 370.736,242.646 363.531,262.355 
	377.438,278.069 364.744,294.779 373.402,313.894 356.346,326.119 358.985,346.937 339.084,353.592 335.469,374.263 314.49,374.757 
	304.943,393.444 284.751,387.732 270.12,402.775 252.509,391.365 234.094,401.427 220.628,385.332 200.066,389.519 191.942,370.171 
	171.059,368.111 168.999,347.228 149.651,339.104 153.838,318.542 137.744,305.076 147.806,286.661 136.396,269.05 151.439,254.419 
	145.726,234.227 164.414,224.68 164.907,203.701 185.578,200.087 192.233,180.185 213.051,182.824 225.276,165.769 244.392,174.426 
	261.101,161.732 276.815,175.64 296.524,168.435 307.441,186.356 328.398,185.28 "/>
<circle style="fill:#FADC60;" cx="256.1" cy="282.82" r="86.84"/>
<path style="fill:#EFEDEE;" d="M353.924,7.5H158.076c-9.726,0-17.611,7.885-17.611,17.611l0,0c0,9.726,7.885,17.611,17.611,17.611
	h195.849c9.726,0,17.611-7.885,17.611-17.611l0,0C371.535,15.385,363.651,7.5,353.924,7.5z"/>
<path style="fill:#D2D2D2;" d="M170.465,25.111L170.465,25.111c0-9.726,7.885-17.611,17.611-17.611h-30
	c-9.726,0-17.611,7.885-17.611,17.611l0,0c0,9.727,7.885,17.611,17.611,17.611h30C178.35,42.722,170.465,34.837,170.465,25.111z"/>
<path d="M320.257,435.776c0-4.142-3.358-7.5-7.5-7.5H199.213c-4.142,0-7.5,3.358-7.5,7.5c0,4.143,3.358,7.5,7.5,7.5h113.543
	C316.899,443.276,320.257,439.919,320.257,435.776z"/>
<path d="M210.667,456.662c-4.142,0-7.5,3.358-7.5,7.5c0,4.143,3.358,7.5,7.5,7.5h90.635c4.142,0,7.5-3.357,7.5-7.5
	c0-4.142-3.358-7.5-7.5-7.5H210.667z"/>
<path d="M256.086,377.164c52.02,0,94.342-42.322,94.342-94.342s-42.322-94.342-94.342-94.342c-52.021,0-94.342,42.322-94.342,94.342
	S204.066,377.164,256.086,377.164z M256.086,203.479c43.749,0,79.342,35.593,79.342,79.342s-35.593,79.342-79.342,79.342
	c-43.75,0-79.342-35.593-79.342-79.342S212.337,203.479,256.086,203.479z"/>
<path d="M130.086,273.128l8.979,13.859l-7.918,14.492c-1.715,3.14-0.975,7.053,1.769,9.349l12.666,10.598l-3.295,16.182
	c-0.714,3.506,1.147,7.027,4.446,8.412l15.227,6.393l1.621,16.435c0.351,3.56,3.167,6.376,6.728,6.728l16.435,1.621l6.394,15.227
	c1.384,3.299,4.907,5.16,8.412,4.445l16.182-3.295l10.598,12.666c2.295,2.744,6.21,3.483,9.348,1.769l14.492-7.918l13.86,8.98
	c2.97,1.924,6.988,1.47,9.455-1.065l11.514-11.839l15.891,4.495c3.442,0.974,7.093-0.619,8.72-3.805l7.514-14.706l16.509-0.389
	c3.576-0.084,6.595-2.682,7.211-6.206l2.845-16.268l15.662-5.237c3.393-1.135,5.512-4.507,5.062-8.056l-2.077-16.384l13.422-9.621
	c2.907-2.084,3.938-5.932,2.462-9.19l-6.813-15.043l9.99-13.15c2.164-2.848,2.015-6.829-0.356-9.507l-10.945-12.367l5.67-15.51
	c1.229-3.36-0.087-7.12-3.142-8.98l-14.104-8.591l0.847-16.493c0.183-3.573-2.182-6.777-5.65-7.655l-16.01-4.052l-4.052-16.009
	c-0.877-3.468-4.084-5.835-7.655-5.65l-16.493,0.847l-8.591-14.104c-1.861-3.055-5.62-4.371-8.98-3.142l-15.51,5.67l-12.367-10.945
	c-2.679-2.371-6.658-2.52-9.508-0.356l-13.15,9.99l-15.043-6.813c-3.258-1.476-7.106-0.445-9.19,2.462l-9.621,13.422l-16.383-2.077
	c-3.554-0.451-6.922,1.669-8.056,5.062l-5.237,15.662l-16.268,2.845c-3.523,0.616-6.122,3.635-6.206,7.211l-0.388,16.51
	l-14.707,7.513c-3.186,1.627-4.778,5.278-3.805,8.72l4.495,15.891l-11.838,11.514C128.587,266.167,128.141,270.125,130.086,273.128z
	 M158.64,252.377l-4.037-14.271l13.208-6.748c2.453-1.253,4.021-3.75,4.086-6.502l0.349-14.827l14.61-2.555
	c2.713-0.475,4.947-2.398,5.821-5.01l4.704-14.065l14.713,1.865c2.732,0.346,5.435-0.833,7.039-3.071l8.641-12.054l13.51,6.119
	c2.508,1.136,5.438,0.806,7.631-0.86l11.81-8.972l11.106,9.829c2.063,1.825,4.96,2.373,7.546,1.428l13.929-5.092l7.716,12.667
	c1.433,2.352,4.041,3.728,6.79,3.588l14.812-0.76l3.639,14.377c0.676,2.67,2.76,4.754,5.43,5.43l14.378,3.64l-0.76,14.812
	c-0.141,2.75,1.236,5.357,3.588,6.79l12.667,7.716l-5.092,13.929c-0.946,2.587-0.397,5.483,1.428,7.546l9.829,11.106l-8.972,11.81
	c-1.666,2.193-1.996,5.123-0.86,7.631l6.119,13.51l-12.054,8.641c-2.238,1.604-3.417,4.307-3.071,7.039l1.865,14.713l-14.065,4.704
	c-2.612,0.873-4.535,3.108-5.009,5.821l-2.555,14.609l-14.827,0.349c-2.753,0.064-5.25,1.633-6.502,4.086l-6.748,13.207
	l-14.271-4.037c-2.649-0.75-5.497,0.013-7.418,1.987l-10.34,10.632c0,0-12.443-8.062-12.447-8.064
	c-2.291-1.485-5.28-1.596-7.674-0.287l-13.015,7.112l-9.518-11.375c-1.768-2.112-4.549-3.086-7.249-2.536l-14.533,2.959
	l-5.742-13.675c-1.066-2.539-3.438-4.29-6.179-4.561l-14.76-1.456l-1.456-14.759c-0.271-2.741-2.021-5.113-4.561-6.179
	l-13.674-5.742l2.959-14.533c0.55-2.698-0.424-5.481-2.536-7.249l-11.375-9.517l7.111-13.015c1.321-2.417,1.21-5.363-0.287-7.674
	l-8.064-12.447l10.632-10.341C158.627,257.875,159.39,255.027,158.64,252.377z"/>
<path d="M206.043,292.001c4.142,0,7.5-3.358,7.5-7.5v-9.039c0-4.142-3.358-7.5-7.5-7.5s-7.5,3.358-7.5,7.5v9.039
	C198.543,288.643,201.901,292.001,206.043,292.001z"/>
<path d="M305.927,292.001c4.142,0,7.5-3.358,7.5-7.5v-9.039c0-4.142-3.358-7.5-7.5-7.5s-7.5,3.358-7.5,7.5v9.039
	C298.427,288.643,301.785,292.001,305.927,292.001z"/>
<path d="M255.985,296.825c6.969,0,13.52-2.922,17.974-8.018c2.726-3.119,2.408-7.856-0.711-10.583s-7.856-2.408-10.583,0.711
	c-1.605,1.836-4.04,2.889-6.68,2.889s-5.074-1.053-6.679-2.89c-2.727-3.119-7.464-3.436-10.583-0.711
	c-3.119,2.726-3.437,7.464-0.711,10.583C242.466,293.903,249.017,296.825,255.985,296.825z"/>
<path d="M90.744,214.277c-4.118-0.419-7.801,2.581-8.221,6.702c-12.704,124.824,34.955,227.684,49.864,256.235
	C143.591,498.671,165.552,512,189.702,512h132.567c24.149,0,46.111-13.329,57.314-34.785C390.286,456.72,416.327,401,426.97,326.429
	c11.041-77.357,2.343-150.129-25.851-216.294c-0.001-0.001-0.002-0.003-0.002-0.004c-9.294-21.817-21.025-43.006-34.938-63.123
	c7.656-4.307,12.842-12.505,12.842-21.897C379.02,11.265,367.755,0,353.91,0h-30.706c-4.142,0-7.5,3.358-7.5,7.5s3.358,7.5,7.5,7.5
	h30.706c5.575,0,10.11,4.536,10.11,10.111s-4.536,10.111-10.11,10.111h-0.08H158.145h-0.084c-5.575,0-10.111-4.536-10.111-10.111
	S152.486,15,158.061,15h135.698c4.142,0,7.5-3.358,7.5-7.5s-3.358-7.5-7.5-7.5H158.061c-13.846,0-25.111,11.265-25.111,25.111
	c0,9.392,5.186,17.591,12.842,21.897c-13.912,20.116-25.644,41.305-34.938,63.123c-0.001,0.001-0.002,0.003-0.002,0.004
	c-10.883,25.542-18.958,52.545-23.999,80.261c-0.741,4.076,1.961,7.98,6.037,8.721c4.071,0.741,7.979-1.961,8.721-6.037
	c4.542-24.976,11.646-49.342,21.135-72.506h266.48c25.583,62.391,33.288,130.909,22.894,203.734
	c-10.315,72.273-35.489,126.152-45.833,145.963C357.678,486.759,340.811,497,322.269,497H189.702
	c-18.543,0-35.41-10.241-44.018-26.728c-14.421-27.617-60.519-127.102-48.237-247.774C97.866,218.377,94.865,214.697,90.744,214.277
	z M129.316,105.575c8.95-19.129,19.868-37.691,32.562-55.354h188.216c12.693,17.661,23.612,36.227,32.561,55.354H129.316z"/>
<g>
</g>
<g>
</g>
<g>
</g>
<g>
</g>
<g>
</g>
<g>
</g>
<g>
</g>
<g>
</g>
<g>
</g>
<g>
</g>
<g>
</g>
<g>
</g>
<g>
</g>
<g>
</g>
<g>
</g>
</svg>
