<?xml version="1.0" encoding="iso-8859-1"?>
<!-- Generator: Adobe Illustrator 19.0.0, SVG Export Plug-In . SVG Version: 6.00 Build 0)  -->
<svg version="1.1" id="Capa_1" xmlns="http://www.w3.org/2000/svg" xmlns:xlink="http://www.w3.org/1999/xlink" x="0px" y="0px"
	 viewBox="0 0 511.999 511.999" style="enable-background:new 0 0 511.999 511.999;" xml:space="preserve">
<path style="fill:#FF98C5;" d="M133.701,308.395C37.409,366.049,83.98,419.296,79.623,490.233
	c63.649-31.621,160.741-25.973,176.376-137.111c15.635,111.138,112.728,105.49,176.376,137.11
	c-4.358-70.937,42.214-124.184-54.078-181.838l0,0c111.41-13.565,93.403-87.197,126.202-150.247
	c-71.005,3.038-130.101-44.435-189.536,50.768c48.39-101.264-23.393-125.619-58.964-187.147
	c-35.571,61.528-107.354,85.883-58.964,187.148c-59.435-95.203-118.53-47.73-189.536-50.768
	C40.298,221.197,22.292,294.829,133.701,308.395L133.701,308.395z"/>
<path d="M504.179,150.654c-18.317,0.784-36.133-1.98-53.363-4.653c-24.865-3.857-48.349-7.5-72.146-0.978
	c-15.331,4.202-29.161,12.201-42.096,24.515c3.441-17.524,2.761-33.486-1.928-48.676c-7.279-23.577-22.964-41.431-39.57-60.333
	c-11.507-13.099-23.407-26.643-32.583-42.516c-1.34-2.318-3.815-3.746-6.493-3.746s-5.153,1.428-6.493,3.746
	c-9.178,15.875-21.077,29.422-32.585,42.523c-5.624,6.402-11.438,13.022-16.721,19.698c-2.57,3.249-2.02,7.965,1.228,10.536
	c3.25,2.57,7.965,2.02,10.536-1.228c5.042-6.374,10.475-12.559,16.227-19.106c9.49-10.805,19.237-21.901,27.807-34.569
	c8.57,12.665,18.317,23.76,27.807,34.563c15.518,17.663,30.174,34.347,36.507,54.858c7.042,22.812,3.192,48.357-12.117,80.394
	c-1.715,3.59-0.329,7.895,3.159,9.809c3.488,1.915,7.863,0.772,9.97-2.603c18.803-30.119,38.285-47.086,61.309-53.396
	c20.704-5.675,42.648-2.271,65.882,1.334c14.21,2.204,28.803,4.468,44.089,4.895c-6.082,14.032-10.206,28.21-14.222,42.019
	c-6.566,22.576-12.768,43.9-26.67,60.257c-15.46,18.191-39.077,28.663-74.323,32.954c-3.181,0.388-5.765,2.753-6.43,5.888
	c-0.666,3.134,0.734,6.346,3.484,7.992c18.932,11.335,32.696,22.747,42.081,34.889c2.494,3.227,7.301,3.836,10.521,1.347
	c3.277-2.533,3.88-7.243,1.347-10.521c-7.518-9.726-17.36-18.93-29.838-27.873c28.885-6.099,49.678-17.418,64.588-34.961
	c15.979-18.802,22.617-41.622,29.644-65.782c4.869-16.742,9.904-34.054,18.365-50.318c1.236-2.376,1.111-5.23-0.327-7.489
	C509.388,151.861,506.846,150.542,504.179,150.654z"/>
<path d="M193.388,102.672c-3.709-1.847-8.21-0.336-10.056,3.372c-9.712,19.509-12.337,40.284-7.792,63.605
	c-12.968-12.377-26.834-20.411-42.211-24.625c-23.796-6.521-47.282-2.879-72.146,0.978c-17.229,2.673-35.041,5.438-53.363,4.653
	c-2.669-0.112-5.209,1.207-6.647,3.465s-1.563,5.113-0.327,7.489c8.461,16.265,13.496,33.577,18.365,50.318
	c7.027,24.16,13.664,46.98,29.644,65.782c14.912,17.546,35.708,28.866,64.6,34.964c-57.029,40.919-51.214,81.531-45.088,124.326
	c2.413,16.854,4.907,34.283,3.771,52.773c-0.164,2.673,1.109,5.23,3.341,6.711c2.232,1.479,5.084,1.658,7.482,0.466
	c15.44-7.671,32.875-13.058,51.335-18.762c47.455-14.663,100.404-31.027,121.703-92.455c21.299,61.428,74.248,77.792,121.704,92.455
	c18.459,5.704,35.895,11.091,51.335,18.762c2.382,1.184,5.265,1.005,7.482-0.466c2.231-1.48,3.505-4.038,3.341-6.711
	c-1.136-18.488,1.356-35.915,3.766-52.769c3.367-23.55,6.548-45.794-0.362-68.214c-1.22-3.958-5.416-6.179-9.376-4.958
	c-3.958,1.22-6.178,5.417-4.958,9.376c5.919,19.207,2.97,39.834-0.152,61.673c-1.994,13.946-4.042,28.269-4.194,43.574
	c-13.597-5.683-28.214-10.199-42.452-14.599c-26.657-8.237-54.222-16.754-75.847-32.931c-24.222-18.12-37.84-43.174-42.859-78.849
	c-0.521-3.702-3.688-6.455-7.427-6.455s-6.906,2.753-7.427,6.455c-5.019,35.675-18.638,60.729-42.859,78.849
	c-21.625,16.177-49.189,24.694-75.846,32.931c-14.238,4.399-28.855,8.916-42.453,14.599c-0.152-15.309-2.203-29.633-4.2-43.582
	c-6.446-45.032-11.537-80.601,54.34-120.044c2.749-1.646,4.149-4.857,3.483-7.992c-0.666-3.134-3.249-5.5-6.43-5.887
	c-35.247-4.292-58.863-14.763-74.324-32.954c-13.902-16.357-20.104-37.681-26.67-60.257c-4.016-13.808-8.14-27.987-14.222-42.019
	c15.286-0.427,29.88-2.69,44.089-4.895c23.233-3.604,45.177-7.008,65.882-1.334c23.024,6.31,42.505,23.277,61.309,53.396
	c2.106,3.375,6.482,4.518,9.97,2.603c3.488-1.914,4.874-6.219,3.159-9.809c-18.059-37.792-20.231-66.459-7.042-92.953
	C198.606,109.02,197.096,104.518,193.388,102.672z"/>
<path d="M186.066,287.45c4.142,0,7.5-3.358,7.5-7.5v-12.657c0-4.142-3.358-7.5-7.5-7.5s-7.5,3.358-7.5,7.5v12.657
	C178.566,284.092,181.924,287.45,186.066,287.45z"/>
<path d="M325.931,259.794c-4.142,0-7.5,3.358-7.5,7.5v12.657c0,4.142,3.358,7.5,7.5,7.5s7.5-3.358,7.5-7.5v-12.657
	C333.431,263.152,330.073,259.794,325.931,259.794z"/>
<path d="M244.386,274.133c-2.727-3.119-7.464-3.436-10.583-0.711c-3.119,2.726-3.437,7.464-0.711,10.583
	c5.667,6.482,14.016,10.201,22.907,10.201c8.891,0,17.24-3.718,22.907-10.2c2.726-3.119,2.408-7.857-0.71-10.583
	s-7.856-2.409-10.583,0.71c-2.818,3.224-7.051,5.073-11.614,5.073C251.436,279.206,247.203,277.357,244.386,274.133z"/>
<path d="M263.499,178.333V73.767c0-4.142-3.358-7.5-7.5-7.5s-7.5,3.358-7.5,7.5v104.566c0,4.142,3.358,7.5,7.5,7.5
	S263.499,182.475,263.499,178.333z"/>
<path d="M148.077,237.745c2.761-3.087,2.497-7.829-0.591-10.59C99.13,183.909,54.97,176.926,53.114,176.65
	c-4.099-0.609-7.913,2.218-8.522,6.315c-0.609,4.097,2.218,7.912,6.315,8.521c0.41,0.061,41.538,6.567,86.58,46.849
	C140.542,241.068,145.349,240.796,148.077,237.745z"/>
<path d="M106.28,446.896c3.913,1.18,8.164-1.097,9.346-5.015c0.13-0.432,13.591-43.672,61.122-80.767
	c3.266-2.548,3.847-7.261,1.298-10.527c-2.549-3.266-7.262-3.847-10.527-1.298c-51.248,39.996-65.666,86.309-66.254,88.261
	C100.069,441.516,102.314,445.7,106.28,446.896z"/>
<path d="M369.513,240.188c1.786,0.009,3.585-0.589,4.997-1.852c44.743-40.014,86.108-46.775,86.596-46.851
	c4.089-0.617,6.908-4.427,6.299-8.519c-0.609-4.097-4.42-6.925-8.522-6.315c-1.856,0.276-46.016,7.259-94.372,50.505
	c-3.088,2.761-3.352,7.502-0.591,10.59C365.34,239.332,367.418,240.178,369.513,240.188z"/>
<path d="M333.951,350.588c-2.548,3.266-1.967,7.979,1.298,10.527c47.268,36.889,60.982,80.31,61.126,80.78
	c1.193,3.894,5.446,6.177,9.342,5.002c3.966-1.196,6.211-5.38,5.015-9.346c-0.589-1.952-15.006-48.265-66.254-88.261
	C341.212,346.741,336.5,347.323,333.951,350.588z"/>
<g>
</g>
<g>
</g>
<g>
</g>
<g>
</g>
<g>
</g>
<g>
</g>
<g>
</g>
<g>
</g>
<g>
</g>
<g>
</g>
<g>
</g>
<g>
</g>
<g>
</g>
<g>
</g>
<g>
</g>
</svg>
