<?xml version="1.0" encoding="iso-8859-1"?>
<!-- Generator: Adobe Illustrator 19.0.0, SVG Export Plug-In . SVG Version: 6.00 Build 0)  -->
<svg version="1.1" id="Capa_1" xmlns="http://www.w3.org/2000/svg" xmlns:xlink="http://www.w3.org/1999/xlink" x="0px" y="0px"
	 viewBox="0 0 512 512" style="enable-background:new 0 0 512 512;" xml:space="preserve">
<path style="fill:#C86D5C;" d="M504.5,347.597l-2.523-30.979c-1.779-21.85-6.491-43.391-14.389-63.841
	c-4.01-10.382-8.791-20.494-14.052-27.204l-15.331-19.554c-4.794-6.114-9.014-12.657-12.609-19.545l-20.988-40.223
	c-3.731-7.151-6.771-14.642-9.076-22.372l-14.699-49.28l-55.74-21.546L256,44.599l-89.092,8.454l-55.74,21.546l-14.701,49.28
	c-2.306,7.729-5.345,15.221-9.076,22.372l-20.988,40.223c-3.594,6.888-7.815,13.431-12.609,19.545l-15.331,19.554
	c-5.261,6.71-10.042,16.822-14.052,27.204c-7.898,20.45-12.609,41.991-14.389,63.841L7.5,347.597L256,441.5L504.5,347.597z"/>
<path style="fill:#AD4F3D;" d="M37.5,347.597l2.523-30.979c1.779-21.85,6.491-43.392,14.389-63.841
	c4.01-10.382,8.791-20.494,14.052-27.205l15.331-19.554c4.794-6.114,9.014-12.657,12.609-19.545l20.988-40.222
	c3.731-7.151,6.771-14.643,9.076-22.372l14.701-49.28l55.74-21.546L271,46.022l-15-1.423l-89.092,8.454l-55.74,21.546l-14.701,49.28
	c-2.306,7.729-5.345,15.221-9.076,22.372l-20.988,40.222c-3.594,6.888-7.815,13.431-12.609,19.545l-15.331,19.554
	c-5.261,6.71-10.042,16.822-14.052,27.205c-7.898,20.45-12.609,41.991-14.389,63.841L7.5,347.597L256,441.5l15-5.668L37.5,347.597z"
	/>
<path style="fill:#7CB777;" d="M482.96,388.109c3.098-16.297-6.294-34.062-24.638-38.638c14.582-22.499-2.074-52.123-28.875-51.354
	l0,0l0,0c7.971-25.599-16.06-49.63-41.659-41.659l0,0c0.769-26.801-28.854-43.457-51.354-28.875l0,0l0,0
	c-6.49-26.014-39.509-34.061-57.24-13.949l0,0c-13.268-23.299-47.233-22.138-58.88,2.011l0,0
	c-19.062-18.855-51.454-8.574-56.154,17.823l0,0l0,0c-23.442-13.013-51.86,5.626-49.263,32.312l0,0l0,0
	c-26.084-6.206-48.419,19.409-38.719,44.405l0,0l0,0c-26.791,1.062-41.387,31.753-25.303,53.204l0,0
	c-12.515,4.047-20.265,14.172-22.417,25.36v58.083h455.086L482.96,388.109z"/>
<path style="fill:#FD6F71;" d="M256.003,24.499h114.778c18.994,0,34.391,15.398,34.391,34.391l0,0
	c0,15.939-12.327,29.513-28.25,30.234c-0.525,0.024-1.054,0.036-1.585,0.036l0,0c-12.746,0-23.874-6.922-29.832-17.212v-0.005
	c-5.957,10.293-17.088,17.217-29.835,17.217l0,0c-12.746,0-23.874-6.922-29.832-17.212v-0.005
	c-5.957,10.293-17.088,17.217-29.835,17.217l0,0l0,0c-12.748,0-23.878-6.924-29.835-17.217v0.005
	c-5.958,10.29-17.087,17.212-29.832,17.212l0,0c-12.748,0-23.878-6.924-29.835-17.217v0.005
	c-5.958,10.29-17.087,17.212-29.832,17.212l0,0c-0.531,0-1.059-0.012-1.585-0.036c-15.923-0.721-28.25-14.295-28.25-30.234l0,0
	c0-18.994,15.397-34.391,34.391-34.391H256C256,24.5,256.003,24.5,256.003,24.499z"/>
<path style="fill:#E34B4C;" d="M136.832,58.89L136.832,58.89c0-18.994,15.398-34.391,34.391-34.391h-30
	c-18.994,0-34.391,15.397-34.391,34.391l0,0c0,15.939,12.327,29.514,28.25,30.234c0.525,0.024,1.054,0.036,1.585,0.036l0,0
	c5.607,0,10.899-1.342,15.577-3.718C143.001,80.246,136.832,70.163,136.832,58.89z"/>
<polygon style="fill:#57D0E6;" points="483.543,361.362 21.983,361.362 7.5,387.597 7.5,487.5 504.5,487.5 504.5,387.597 "/>
<path style="fill:#85E7FF;" d="M433.501,347.597L433.501,347.597c-22.656,9.783-48.344,9.783-71,0l0,0
	c-22.656-9.783-48.344-9.783-71,0l0,0c-22.656,9.783-48.344,9.783-71,0l0,0c-22.656-9.783-48.344-9.783-71,0l0,0
	c-22.656,9.783-48.344,9.783-71,0l0,0c-22.656-9.783-48.344-9.783-71,0v40c22.656-9.783,48.344-9.783,71,0l0,0
	c22.656,9.783,48.344,9.783,71,0l0,0c22.656-9.783,48.344-9.783,71,0l0,0c22.656,9.783,48.344,9.783,71,0l0,0
	c22.656-9.783,48.344-9.783,71,0l0,0c22.656,9.783,48.344,9.783,71,0l0,0c22.656-9.783,48.344-9.783,71,0v-40
	C481.845,337.815,456.156,337.815,433.501,347.597z"/>
<path d="M174.981,138.425v13.306c0,4.142,3.358,7.5,7.5,7.5s7.5-3.358,7.5-7.5v-13.306c0-4.143-3.358-7.5-7.5-7.5
	S174.981,134.283,174.981,138.425z"/>
<path d="M322.019,138.425v13.306c0,4.142,3.358,7.5,7.5,7.5s7.5-3.358,7.5-7.5v-13.306c0-4.143-3.358-7.5-7.5-7.5
	S322.019,134.283,322.019,138.425z"/>
<path d="M268.499,145.868c-3.035,3.473-7.591,5.464-12.499,5.464s-9.463-1.992-12.499-5.464c-2.726-3.119-7.464-3.437-10.583-0.711
	s-3.437,7.464-0.711,10.583c5.884,6.731,14.556,10.592,23.792,10.592s17.908-3.861,23.792-10.592
	c2.726-3.118,2.408-7.856-0.711-10.583C275.963,142.432,271.225,142.751,268.499,145.868z"/>
<path d="M7.5,495h497c4.142,0,7.5-3.358,7.5-7.5V347.597c0-0.198-0.009-0.411-0.025-0.609l-2.523-30.979
	c-1.878-23.071-6.881-45.255-14.868-65.935c-4.956-12.832-10.051-22.632-15.146-29.129l-6.753-8.614
	c-2.556-3.26-7.271-3.831-10.53-1.275c-3.26,2.556-3.831,7.27-1.275,10.53l6.753,8.614c4.178,5.328,8.537,13.833,12.958,25.278
	c7.468,19.337,12.148,40.112,13.91,61.749l1.578,19.382c-8.082-2.355-16.415-3.635-24.906-3.822
	c0.288-9.186-2.556-18.423-8.232-25.982c-6.122-8.153-14.818-13.553-24.581-15.448c0.789-9.643-1.885-19.214-7.772-27.213
	c-7.714-10.482-19.956-16.74-32.747-16.74c-1.098,0-2.197,0.046-3.295,0.136c-1.484-7.648-5.125-14.672-10.643-20.352
	c-7.729-7.954-18.467-12.516-29.46-12.516c-4.756,0-9.461,0.857-13.928,2.514c-6.839-13.497-20.805-22.341-36.517-22.341
	c-8.674,0-16.828,2.671-23.666,7.65c-7.606-8.369-18.319-13.168-30.023-13.168c-12.691,0-24.27,5.695-31.892,15.3
	c-6.378-3.993-13.716-6.13-21.337-6.13c-16.746,0-31.413,10.042-37.698,24.863c-3.677-1.089-7.469-1.638-11.344-1.638
	c-11.477,0-22.536,4.934-30.343,13.537c-5.677,6.256-9.152,13.885-10.16,22.084c-13.528-0.209-26.285,6.516-34.04,17.843
	c-5.929,8.661-8.219,18.822-6.685,28.865c-14.018,3.73-24.945,14.625-28.716,28.83c-7.548,0.376-14.963,1.625-22.177,3.727
	l1.578-19.382c1.763-21.638,6.442-42.413,13.911-61.75c6.571-17.014,17.159-30.636,28.287-44.831
	c14.247-18.17,23.701-40.526,34.344-60.926c9.632-18.461,14.519-40.14,20.528-60.281c4.933,3.659,10.8,6.103,17.196,6.913
	c12.692,1.607,25.76-3.107,34.736-12.164c7.792,7.861,18.524,12.473,29.834,12.473c11.309,0,22.042-4.612,29.834-12.473
	c7.792,7.86,18.525,12.473,29.834,12.473c11.31,0,22.042-4.612,29.834-12.473c7.792,7.861,18.524,12.473,29.834,12.473
	c11.31,0,22.042-4.612,29.834-12.473c7.792,7.861,18.524,12.473,29.834,12.473c7.927,0,15.72-2.492,22.097-7.22l10.913,36.582
	c2.436,8.167,5.671,16.14,9.614,23.698l20.987,40.222c1.06,2.031,2.235,4.139,3.494,6.265c2.11,3.564,6.71,4.743,10.274,2.633
	s4.743-6.71,2.633-10.274c-1.123-1.896-2.166-3.767-3.102-5.562l-20.987-40.223c-3.502-6.712-6.375-13.793-8.539-21.046
	l-13.797-46.256c2.399-5.011,3.75-10.638,3.75-16.588c0-23.099-18.792-41.891-41.891-41.891H212.814c-4.142,0-7.5,3.358-7.5,7.5
	s3.358,7.5,7.5,7.5H370.78c14.828,0,26.891,12.063,26.891,26.891c0,14.235-12.976,24.756-26.915,22.361
	c-7.734-1.343-14.694-6.141-18.674-12.909c-2.889-4.913-10.138-5.221-13.07-0.155c-4.81,8.311-13.755,13.474-23.344,13.474
	c-9.248,0-17.887-4.813-22.805-12.611c-1.279-2.027-2.665-3.699-5.082-4.349c-3.278-0.881-6.737,0.55-8.436,3.486
	c-4.81,8.311-13.755,13.474-23.344,13.474c-9.589,0-18.534-5.163-23.344-13.474c-2.834-4.896-10.251-4.832-13.025,0.078
	c-4.642,8.217-13.906,13.396-23.299,13.396c-9.589,0-18.534-5.163-23.344-13.474c-1.678-2.901-5.197-4.355-8.437-3.484
	c-2.656,0.714-4.131,3.135-5.65,5.216c-5.497,7.531-14.039,12.132-23.482,11.713c-11.869-0.534-21.09-11.056-21.09-22.742
	c0-14.828,12.063-26.891,26.891-26.891h41.592c4.142,0,7.5-3.358,7.5-7.5s-3.358-7.5-7.5-7.5h-41.592
	c-23.099,0-41.891,18.792-41.891,41.891c0,5.949,1.35,11.575,3.748,16.585c-6.653,22.301-11.465,46.592-22.339,67.305
	c-10.218,19.584-19.153,41.143-32.849,58.61C35.583,217.09,24.664,231.3,17.413,250.076C9.43,270.753,4.427,292.937,2.548,316.01
	c0,0-2.522,30.977-2.522,30.979C0.01,347.175,0,347.399,0,347.597V487.5C0,491.641,3.358,495,7.5,495z M15,480V352.703
	c18.16-6.58,38.244-6.542,56.376,0.128c0.087,0.032,0.176,0.059,0.263,0.092c26.898,10.062,53.788,13.238,80.834,1.56
	c20.637-8.912,44.304-8.924,64.951-0.042c0.034,0.015,0.068,0.027,0.102,0.041c24.34,10.577,52.604,10.511,76.947,0
	c0.034-0.015,0.069-0.027,0.102-0.042c20.647-8.882,44.314-8.871,64.951,0.041c24.347,10.514,52.52,10.522,76.868,0.032
	c0.026-0.011,0.052-0.021,0.078-0.032c19.049-8.229,41.024-8.847,60.527-1.78V480H15z M76.475,317.68
	c5.068-0.202,8.531-5.476,6.695-10.208c-3.126-8.055-2.14-16.734,2.705-23.811c4.853-7.088,12.747-11.321,21.118-11.321
	c2.037,0,4.112,0.248,6.168,0.736c4.944,1.174,9.691-2.975,9.201-8.022c-0.715-7.347,1.573-14.348,6.443-19.714
	c4.969-5.477,11.98-8.617,19.235-8.617c4.333,0,8.532,1.111,12.481,3.303c4.441,2.465,10.137-0.261,11.024-5.243
	c2.604-14.625,15.063-21.285,25.537-21.285c4.743,0,11.708,1.298,17.959,7.48c3.501,3.463,9.792,2.568,12.03-2.074
	c4.336-8.991,13.242-14.577,23.241-14.577c9.363,0,17.724,4.866,22.366,13.018c2.513,4.412,8.789,5.054,12.144,1.25
	c4.974-5.642,11.785-8.75,19.179-8.75c10.094,0,21.787,6.046,25.158,19.553c1.225,4.908,7.111,7.231,11.356,4.479
	c4.305-2.791,8.992-4.205,13.931-4.205c6.964,0,13.781,2.904,18.702,7.969c4.809,4.949,7.346,11.555,7.144,18.601
	c-0.145,5.071,4.882,8.885,9.727,7.376c2.588-0.806,5.221-1.215,7.825-1.215c8.042,0,15.767,3.975,20.666,10.631
	c4.864,6.609,6.242,14.939,3.778,22.851c-1.508,4.845,2.31,9.875,7.375,9.728c8.503-0.24,16.254,3.497,21.286,10.198
	c3.89,5.18,5.701,11.572,5.175,17.803c-4.398,0.585-8.74,1.475-13.014,2.661c-0.01,0.003-0.02,0.005-0.03,0.008
	c-4.357,1.245-8.641,2.739-12.804,4.53c-20.529,8.782-44.018,8.782-64.547,0c-24.849-10.63-52.824-10.504-77.66,0.083
	c-20.512,8.708-43.957,8.672-64.44-0.123c-0.051-0.022-0.103-0.04-0.154-0.062c-24.394-10.504-52.556-10.533-76.947,0
	c-0.051,0.022-0.104,0.04-0.155,0.063c-20.55,8.824-44.082,8.836-64.642,0.041c-4.509-1.929-9.137-3.558-13.876-4.825
	c-4.611-1.224-9.313-2.101-14.054-2.628C57.324,325.094,65.159,318.128,76.475,317.68z"/>
<g>
</g>
<g>
</g>
<g>
</g>
<g>
</g>
<g>
</g>
<g>
</g>
<g>
</g>
<g>
</g>
<g>
</g>
<g>
</g>
<g>
</g>
<g>
</g>
<g>
</g>
<g>
</g>
<g>
</g>
</svg>
