<?xml version="1.0" encoding="iso-8859-1"?>
<!-- Generator: Adobe Illustrator 19.0.0, SVG Export Plug-In . SVG Version: 6.00 Build 0)  -->
<svg version="1.1" id="Capa_1" xmlns="http://www.w3.org/2000/svg" xmlns:xlink="http://www.w3.org/1999/xlink" x="0px" y="0px"
	 viewBox="0 0 512 512" style="enable-background:new 0 0 512 512;" xml:space="preserve">
<path style="fill:#FD6F71;" d="M255.999,211.42L69.952,237.253l42.976,221.286c5.531,26.779,29.112,45.988,56.457,45.988h173.227
	c27.344,0,50.926-19.209,56.457-45.988l42.976-221.286L255.999,211.42z"/>
<path style="fill:#E34B4C;" d="M152.934,458.54l-42.976-221.287l166.045-23.056L256,211.42L69.953,237.253l42.976,221.287
	c5.531,26.779,29.112,45.988,56.457,45.988h40.005C182.047,504.529,158.465,485.319,152.934,458.54z"/>
<path style="fill:#EFEDEE;" d="M307.549,285.578h-103.1c-7.414,0-13.425,6.011-13.425,13.425v13.083
	c0,7.414,6.011,13.425,13.425,13.425h103.1c7.414,0,13.425-6.011,13.425-13.425v-13.083
	C320.974,291.588,314.964,285.578,307.549,285.578z"/>
<path style="fill:#FADC60;" d="M414.338,28.894L354.909,9.552c-22.155-7.211-45.961,4.905-53.171,27.059l0,0
	c-7.211,22.155,4.905,45.96,27.059,53.171l15.234,4.958l-37.565,115.422l28.961,9.426l37.565-115.422l15.234,4.958
	c22.155,7.211,45.961-4.905,53.171-27.059l0,0C448.608,59.911,436.493,36.105,414.338,28.894z M396.081,84.99l-59.429-19.342
	c-8.812-2.868-13.648-12.369-10.779-21.182c2.867-8.811,12.369-13.647,21.182-10.779l59.429,19.342
	c8.812,2.868,13.648,12.369,10.779,21.182C414.395,83.023,404.893,87.858,396.081,84.99z"/>
<polygon style="fill:#F2C42C;" points="331.028,134.693 306.465,210.163 335.427,219.589 363.057,134.693 "/>
<path style="fill:#EFEDEE;" d="M442.046,164.696H69.952c-13.607,0-24.637,11.03-24.637,24.637v23.283
	c0,13.607,11.03,24.637,24.637,24.637h372.094c13.607,0,24.637-11.03,24.637-24.637v-23.283
	C466.683,175.727,455.653,164.696,442.046,164.696z"/>
<path style="fill:#D2D2D2;" d="M85.32,212.616v-23.283c0-13.607,11.03-24.637,24.637-24.637H69.952
	c-13.607,0-24.637,11.03-24.637,24.637v23.283c0,13.607,11.03,24.637,24.637,24.637h40.005
	C96.35,237.254,85.32,226.224,85.32,212.616z"/>
<path d="M188.244,204.119v-13.62c0-4.142-3.358-7.501-7.501-7.501c-4.142,0-7.501,3.358-7.501,7.501v13.62
	c0,4.143,3.358,7.501,7.501,7.501C184.886,211.62,188.244,208.261,188.244,204.119z"/>
<path d="M338.757,204.119v-13.62c0-4.142-3.358-7.501-7.501-7.501c-4.143,0-7.501,3.358-7.501,7.501v13.62
	c0,4.143,3.358,7.501,7.501,7.501C335.399,211.62,338.757,208.261,338.757,204.119z"/>
<path d="M255.999,218.89c9.404,0,18.232-3.93,24.222-10.782c2.726-3.119,2.408-7.858-0.711-10.584
	c-3.118-2.726-7.857-2.408-10.584,0.71c-3.14,3.592-7.852,5.654-12.927,5.654c-5.075,0-9.786-2.061-12.927-5.654
	c-2.726-3.119-7.466-3.437-10.584-0.711c-3.119,2.727-3.438,7.465-0.711,10.584C237.767,214.96,246.596,218.89,255.999,218.89z"/>
<path d="M18.041,268.287c0,24.663,20.065,44.727,44.727,44.727h14.263l28.551,147.013c6.22,30.116,33.053,51.973,63.803,51.973
	h173.228c30.75,0,57.583-21.858,63.821-52.06l7.035-36.221c0.79-4.066-1.866-8.003-5.934-8.793c-4.068-0.79-8.003,1.866-8.793,5.934
	l-7.018,36.133c-4.788,23.181-25.441,40.005-49.111,40.005H169.386c-23.67,0-44.323-16.824-49.094-39.918L92.314,313.014h91.259
	c0.507,11.092,9.662,19.966,20.876,19.966h103.1c11.214,0,20.37-8.874,20.877-19.966h91.259l-15.118,77.841
	c-0.79,4.066,1.866,8.003,5.934,8.793c4.063,0.79,8.003-1.865,8.793-5.934l15.673-80.701h14.263
	c24.663,0,44.727-20.064,44.727-44.727l0.002-47.577c0.02-8.67,0.039-16.86-5.536-22.448c-3.189-3.197-7.622-4.819-13.174-4.819
	c-0.363,0-0.717,0.035-1.066,0.084v-4.226c0-17.721-14.418-32.138-32.138-32.138h-78.425l14.182-43.575l8.102,2.637
	c4.997,1.626,10.172,2.45,15.385,2.45c21.575,0,40.559-13.793,47.24-34.321c8.479-26.052-5.818-54.146-31.871-62.624
	c0,0-59.422-19.34-59.429-19.342c-25.81-8.4-54.235,6.093-62.625,31.871c-8.479,26.052,5.818,54.145,31.871,62.624l8.102,2.636
	l-18.761,57.644h-169.06c-4.143,0-7.501,3.358-7.501,7.501c0,4.142,3.358,7.501,7.501,7.501h295.291
	c9.449,0,17.136,7.688,17.136,17.136v23.283c0,9.449-7.688,17.136-17.136,17.136H69.953c-9.449,0-17.136-7.688-17.136-17.136
	v-23.283c0-9.449,7.688-17.136,17.136-17.136h46.799c4.142,0,7.501-3.358,7.501-7.501c0-4.143-3.358-7.501-7.501-7.501H69.953
	c-17.721,0-32.138,14.418-32.138,32.138v4.226c-0.349-0.05-0.703-0.084-1.066-0.084c-5.552,0-9.983,1.621-13.174,4.819
	c-5.575,5.588-5.556,13.778-5.536,22.448L18.041,268.287z M331.592,157.164l19.571-60.133c1.282-3.938-0.872-8.172-4.812-9.454
	l-15.234-4.959c-18.187-5.919-28.167-25.53-22.249-43.717c5.835-17.928,25.805-28.079,43.717-22.248l59.429,19.342
	c18.186,5.919,28.166,25.53,22.248,43.716c-4.665,14.333-17.916,23.962-32.975,23.962c-3.633,0-7.248-0.577-10.742-1.714
	l-15.234-4.959c-1.892-0.615-3.949-0.455-5.724,0.448c-1.772,0.902-3.114,2.472-3.73,4.364l-18.014,55.35h-16.252V157.164z
	 M313.473,312.055c0,3.266-2.657,5.924-5.924,5.924h-103.1c-3.266,0-5.924-2.657-5.924-5.924v-13.084
	c0-3.266,2.657-5.924,5.924-5.924h103.1c3.266,0,5.924,2.657,5.924,5.924V312.055z M474.184,212.586v-4.226
	c0.349,0.05,0.703,0.084,1.066,0.084c1.761,0,2.472,0.331,2.553,0.412c1.179,1.181,1.164,7.84,1.154,11.817l-0.002,47.612
	c0,16.391-13.335,29.726-29.726,29.726h-11.349l10.47-53.912C463.064,241.159,474.184,228.149,474.184,212.586z M432.948,244.724
	l-10.349,53.288h-94.173c-0.507-11.091-9.662-19.966-20.877-19.966H204.449c-11.214,0-20.37,8.875-20.877,19.966H89.399
	L79.05,244.724L432.948,244.724L432.948,244.724z M34.195,208.857c0.082-0.081,0.792-0.412,2.553-0.412
	c0.363,0,0.717-0.035,1.066-0.084v4.226c0,15.564,11.121,28.574,25.833,31.514l10.47,53.912H62.768
	c-16.391,0-29.726-13.335-29.726-29.726l-0.002-47.612C33.032,216.696,33.016,210.039,34.195,208.857z"/>
<path d="M401.271,93.258c10.2-0.065,19.83-6.634,23.126-16.757c4.148-12.745-2.847-26.487-15.591-30.635
	c0,0-59.417-19.338-59.429-19.342c-12.615-4.105-26.534,2.986-30.636,15.59c-4.1,12.602,3.021,26.545,15.591,30.637
	c0,0,59.423,19.34,59.428,19.341C396.241,92.9,398.772,93.274,401.271,93.258z M333.601,53.837c-1.087-2.135-1.377-4.677-0.595-7.08
	c1.564-4.809,6.929-7.531,11.727-5.968l59.429,19.342c4.879,1.588,7.556,6.848,5.969,11.726c-1.565,4.812-6.926,7.533-11.728,5.969
	c0,0-59.388-19.328-59.428-19.341C336.57,57.702,334.687,55.972,333.601,53.837z"/>
<g>
</g>
<g>
</g>
<g>
</g>
<g>
</g>
<g>
</g>
<g>
</g>
<g>
</g>
<g>
</g>
<g>
</g>
<g>
</g>
<g>
</g>
<g>
</g>
<g>
</g>
<g>
</g>
<g>
</g>
</svg>
