<?xml version="1.0" encoding="iso-8859-1"?>
<!-- Generator: Adobe Illustrator 19.0.0, SVG Export Plug-In . SVG Version: 6.00 Build 0)  -->
<svg version="1.1" id="Capa_1" xmlns="http://www.w3.org/2000/svg" xmlns:xlink="http://www.w3.org/1999/xlink" x="0px" y="0px"
	 viewBox="0 0 512 512" style="enable-background:new 0 0 512 512;" xml:space="preserve">
<rect x="224.84" y="152.972" transform="matrix(-0.9231 -0.3846 0.3846 -0.9231 346.159 664.4051)" style="fill:#EFEDEE;" width="29.352" height="289.234"/>
<path style="fill:#E34B4C;" d="M138.156,125.342l-46.975,8.87c-8.486,20.367,1.146,43.758,21.514,52.243l0,0
	c20.367,8.486,43.758-1.146,52.243-21.514L138.156,125.342z"/>
<path style="fill:#D2D2D2;" d="M281.583,158.453L235.72,268.532c4.016,2.771,8.341,5.155,12.951,7.075
	c4.596,1.915,9.326,3.307,14.148,4.204l45.858-110.069L281.583,158.453z"/>
<g>
	<path style="fill:#E34B4C;" d="M285.671,186.801l-46.976,8.87c-8.486,20.367,1.146,43.758,21.514,52.243l0,0
		c20.367,8.486,43.758-1.146,52.243-21.514L285.671,186.801z"/>
	<path style="fill:#E34B4C;" d="M433.185,248.261l-46.975,8.87l0,0c-8.486,20.367,1.146,43.758,21.514,52.243l0,0
		c20.367,8.486,43.758-1.146,52.243-21.514L433.185,248.261z"/>
</g>
<g>
	<path style="fill:#FD6F71;" d="M366.498,57.249L352.405,26.66l-0.005-0.013c0,0,0,0-0.013,0.005
		c-0.005,0.004-0.024,0.018-0.033,0.025l-27.891,9.349l-82.222,57.427l-29.35,70.446l25.801,31.768l73.76,30.731l46.974-8.867
		l25.399-60.963L366.498,57.249z"/>
	<path style="fill:#FD6F71;" d="M91.182,134.209l73.76,30.731l90.872-62.652l45.657-57.292l50.915-18.343
		c0.013-0.005,0.013-0.005,0.013-0.005C250.561-15.782,133.608,32.379,91.182,134.209z"/>
	<path style="fill:#FD6F71;" d="M459.965,287.856C502.391,186.026,454.23,69.073,352.4,26.647l0.005,0.013
		c0.003,0.003,0.006,0.006,0.01,0.009l-0.016-0.011l22.83,49.068l-8.527,72.762l19.506,108.639l0.008-0.002l-0.002,0.004
		L459.965,287.856z"/>
</g>
<g>
	<path style="fill:#D2D2D2;" d="M211.914,156.072l-46.975,8.87c-8.486,20.367,1.146,43.758,21.514,52.243l0,0
		c20.367,8.486,43.758-1.146,52.243-21.514L211.914,156.072z"/>
	<path style="fill:#D2D2D2;" d="M359.428,217.531l-46.975,8.87c-8.486,20.367,1.146,43.758,21.514,52.243l0,0
		c20.367,8.486,43.758-1.146,52.243-21.514L359.428,217.531z"/>
</g>
<g>
	<path style="fill:#EFEDEE;" d="M386.214,257.129l-73.76-30.731c55.799-86.762,40.16-198.23,39.951-199.738
		C455.56,121.213,386.214,257.129,386.214,257.129z"/>
	<path style="fill:#EFEDEE;" d="M238.694,195.667l-73.751-30.727c0,0,47.67-144.946,187.444-138.287
		C351.169,27.565,261.012,94.956,238.694,195.667z"/>
</g>
<path style="fill:#F2C42C;" d="M256,425.001c0,0-127.714-44.599-248.5,4.906v70.861h125.221l105.807-36.887L256,425.001z"/>
<path style="fill:#FADC60;" d="M504.5,394.962c0,0-247.529-23.297-371.779,105.807H504.5V394.962z"/>
<path d="M238.029,112.527c3.772,1.57,8.236-0.262,9.808-4.039l5.048-12.116c1.593-3.823-0.215-8.215-4.039-9.808
	c-3.824-1.593-8.214,0.215-9.808,4.039l-5.048,12.117C232.397,106.543,234.206,110.934,238.029,112.527z"/>
<path d="M371.925,168.313c3.775,1.572,8.233-0.26,9.808-4.039l5.048-12.117c1.593-3.823-0.215-8.214-4.039-9.808
	c-3.823-1.593-8.214,0.215-9.808,4.039l-5.048,12.116C366.293,162.328,368.102,166.72,371.925,168.313z"/>
<path d="M314.601,149.37c4.652,0,9.255-1.038,13.45-3.104c3.716-1.83,5.244-6.326,3.414-10.042s-6.326-5.244-10.042-3.414
	c-4.055,1.998-8.928,2.082-13.371,0.231c-4.442-1.851-7.814-5.37-9.251-9.656c-1.317-3.928-5.567-6.043-9.495-4.727
	c-3.927,1.316-6.043,5.568-4.727,9.495c2.813,8.39,9.266,15.218,17.704,18.734C306.261,148.545,310.451,149.37,314.601,149.37z"/>
<path d="M505.203,387.454c-2.249-0.211-55.899-5.094-126.377,2.739c-4.117,0.458-7.083,4.166-6.625,8.283s4.165,7.083,8.283,6.625
	c54.667-6.076,99.92-4.246,116.518-3.208v91.335H151.32c0.159-0.142,0.317-0.284,0.477-0.425
	c12.188-10.842,25.384-20.487,39.29-29.009c21.035-12.888,43.582-23.245,66.797-31.539c28.213-10.081,59.375-17.857,92.942-23.169
	c4.091-0.647,6.883-4.489,6.235-8.58c-0.647-4.091-4.489-6.882-8.58-6.236c-33.262,5.264-64.267,12.908-92.532,22.771
	c-5.385-1.733-18.906-5.797-38.185-9.629l62.144-149.16c8.292-0.754,16.076-3.645,22.698-8.234c0.595,3.313,1.535,6.589,2.848,9.775
	c4.826,11.72,13.927,20.858,25.627,25.733c14.805,6.169,32.132,4.35,45.309-4.798c2.749,15.371,12.994,29.089,28.448,35.527
	c23.919,9.965,52.097-1.664,62.051-25.552c0.008-0.019,0.012-0.038,0.019-0.056C510.82,185.17,460.755,63.625,355.283,19.682
	c-43.653-18.187-92.65-20.878-137.965-7.578c-3.975,1.167-6.25,5.335-5.084,9.309s5.333,6.25,9.309,5.084
	c28.78-8.448,59.164-9.939,88.461-4.624c-5.103,0.936-10.136,2.092-15.097,3.466c-25.727,7.124-49.483,20.308-69.645,37.743
	c-0.075,0.065-0.151,0.129-0.227,0.194c-24.875,21.576-44.418,48.976-58.589,78.599c-2.056,4.298-4.012,8.692-5.794,13.111
	l-59.529-24.802c18.656-40.291,50.641-72.876,90.749-92.254c3.729-1.802,5.292-6.286,3.49-10.016
	c-1.802-3.73-6.286-5.292-10.016-3.49c-45.67,22.066-81.571,60.016-101.09,106.865c-9.951,23.885,1.753,52.132,25.554,62.049
	c14.806,6.169,32.128,4.353,45.309-4.798c2.749,15.371,12.994,29.088,28.448,35.527c14.792,6.163,32.111,4.35,45.282-4.779
	c1.44,8.02,4.932,15.629,10.112,21.922l-66.508,159.631c-12.188-1.126-25.3-1.826-39.097-1.826
	c-46.688,0-89.99,8.045-128.701,23.911C1.839,424.081,0,426.823,0,429.867v70.861c0,4.142,3.358,7.5,7.5,7.5h497
	c4.142,0,7.5-3.358,7.5-7.5V394.921C512,391.052,509.056,387.817,505.203,387.454z M275.558,243.457
	c-8.616,0-16.459-3.566-22.743-9.313c-3.082-3.029-5.553-6.676-7.248-10.792c-2.327-5.65-3.004-11.702-2.033-17.584l58.31,24.294
	C295.831,238.375,286.145,243.457,275.558,243.457z M202.506,110.359c12.605-18.007,28.534-34.21,46.489-46.889
	c17.768-12.547,38.124-21.588,59.429-26.049c7.625-1.596,15.356-2.616,23.127-3.131c-0.078,0.07-0.162,0.147-0.24,0.218
	c-8.512,7.661-16.646,15.734-24.425,24.138c-26.87,29.03-49.967,62.614-64.557,99.72c-3.421,8.7-6.383,17.591-8.764,26.633
	c-0.029,0.11-0.063,0.218-0.092,0.329l-58.951-24.561c3.972-9.797,12.914-29.462,27.941-50.349
	C202.479,110.397,202.493,110.378,202.506,110.359z M363.451,48.943c22.307,26.546,34.913,59.237,37.57,93.72
	c2.716,35.258-4.476,70.952-18.083,103.442c-0.054,0.129-0.107,0.254-0.16,0.381c-0.128,0.302-0.255,0.604-0.377,0.889
	l-58.959-24.564c0.085-0.145,0.167-0.29,0.251-0.434c14.806-25.26,24.701-53.224,30.724-81.816
	c8.008-38.015,8.239-72.609,7.208-93.736C362.238,47.527,362.851,48.229,363.451,48.943z M247.471,191.158
	c0.065-0.257,0.131-0.514,0.197-0.771c10.742-41.853,33.518-80.007,61.859-112.315c0.024-0.028,0.049-0.056,0.073-0.084
	c11.325-13.071,23.56-25.397,36.657-36.695c0.012-0.011,0.025-0.021,0.037-0.032c0.004,0.064,0.009,0.127,0.013,0.191
	c0.604,8.855,0.792,17.715,0.792,26.588c0,38.334-6.157,76.921-20.019,112.748c-4.849,12.533-10.703,24.676-17.637,36.191
	L247.471,191.158z M349.318,274.187h-0.002c-4.28-0.001-8.474-0.844-12.465-2.507c-8.001-3.333-14.226-9.583-17.526-17.599
	c-2.327-5.65-3.004-11.702-2.033-17.584l58.311,24.294C369.587,269.105,359.902,274.187,349.318,274.187z M423.072,304.916
	c-4.28,0-8.474-0.844-12.464-2.506c-14.136-5.89-21.916-20.683-19.552-35.18l58.302,24.291
	C443.344,299.834,433.656,304.916,423.072,304.916z M455.793,277.952l-59.521-24.799c0.165-0.382,0.334-0.78,0.507-1.19
	c0.005-0.012,0.01-0.024,0.015-0.036c7.765-18.366,13.232-37.742,16.487-57.406c8.008-48.362,0.816-98.741-26.848-139.917
	c-0.225-0.335-0.446-0.673-0.674-1.007c-0.074-0.108-0.145-0.219-0.219-0.328C456.138,102.473,486.737,194.796,455.793,277.952z
	 M128.044,181.998c-19.57,0-35.213-18.369-32.024-37.689l58.311,24.294C148.316,176.916,138.63,181.998,128.044,181.998z
	 M201.803,212.728c0,0-0.001,0-0.002,0c-4.28-0.001-8.474-0.844-12.465-2.507c-14.136-5.89-21.916-20.683-19.551-35.18
	l58.303,24.291C222.073,207.645,212.387,212.728,201.803,212.728z M250.907,251.539c0.288,0.174,0.583,0.337,0.875,0.506
	c3.827,2.208,8.04,3.927,12.374,5.012L202.65,404.685c-4.662-0.757-9.554-1.476-14.66-2.13L250.907,251.539z M15,434.947
	c35.71-13.891,75.501-20.932,118.356-20.932c41.735,0,77.539,6.801,98.937,12.054c-27.877,11.647-54.517,26.542-78.254,45.297
	c-8.589,6.786-16.792,14.07-24.482,21.862H15V434.947z"/>
<g>
</g>
<g>
</g>
<g>
</g>
<g>
</g>
<g>
</g>
<g>
</g>
<g>
</g>
<g>
</g>
<g>
</g>
<g>
</g>
<g>
</g>
<g>
</g>
<g>
</g>
<g>
</g>
<g>
</g>
</svg>
