<?xml version="1.0" encoding="iso-8859-1"?>
<!-- Generator: Adobe Illustrator 19.0.0, SVG Export Plug-In . SVG Version: 6.00 Build 0)  -->
<svg version="1.1" id="Capa_1" xmlns="http://www.w3.org/2000/svg" xmlns:xlink="http://www.w3.org/1999/xlink" x="0px" y="0px"
	 viewBox="0 0 512 512" style="enable-background:new 0 0 512 512;" xml:space="preserve">
<polygon style="fill:#57D0E6;" points="481.906,348.978 23.906,348.978 7.5,368.978 7.5,468.88 504.5,468.88 504.5,368.978 "/>
<path style="fill:#3A484A;" d="M249.977,54.957c-13.192-12.191-30.773-12.494-48.705-11.461l-38.469,2.215
	c-24.87,1.432-44.821,15.085-46.628,39.93l-1.148,15.793l14.306,12.446l141.564-29.333V74.29L249.977,54.957z"/>
<path style="fill:#EFEDEE;" d="M355.228,76.66c-10.715-8.951-24.828-12.732-38.583-10.336l-201.619,35.11
	c-17.952,3.126-32.53,16.251-37.519,33.777l-15.876,55.778L77,221.214l349.133-64v-21.325L355.228,76.66z"/>
<g>
	<path style="fill:#57D0E6;" d="M234.068,167.549l154.683-22.15l-52.755-45.715c-3.139-2.621-7.117-4.065-11.205-4.065
		c-1.001,0-2.01,0.087-2.999,0.26l-96.229,16.758L234.068,167.549z"/>
	<path style="fill:#57D0E6;" d="M196.003,117.784l-75.829,13.205c-6.565,1.144-11.986,6.024-13.811,12.434l-12.584,44.215
		l110.591-15.836L196.003,117.784z"/>
</g>
<path style="fill:#506366;" d="M258.437,190.557L26.67,251.28l13.64,47.93l221.745-7.13l229.835-61.13
	c3.91-18.41,5.37-35.75,5.55-50.84L258.437,190.557z"/>
<path style="fill:#3A484A;" d="M491.89,230.95c-8.31,39.29-27.75,83.44-69.56,120.93l-366.66,1.33l-15.36-54L491.89,230.95z"/>
<path style="fill:#FD6F71;" d="M497.44,180.11L26.67,251.28l-6.16-21.64c-4.69-16.5,6.16-33.36,23.12-35.93l420.4-63.55
	c16.37-2.48,31.37,9.49,32.64,25.99C497.21,163.2,497.55,171.27,497.44,180.11z"/>
<path style="fill:#85E7FF;" d="M433.5,328.978L433.5,328.978c-22.656,9.783-48.344,9.783-71,0l0,0c-22.656-9.783-48.344-9.783-71,0
	l0,0c-22.656,9.783-48.344,9.783-71,0l0,0c-22.656-9.783-48.344-9.783-71,0l0,0c-22.656,9.783-48.344,9.783-71,0l0,0
	c-22.656-9.783-48.344-9.783-71,0v40c22.656-9.783,48.344-9.783,71,0l0,0c22.656,9.783,48.344,9.783,71,0l0,0
	c22.656-9.783,48.344-9.783,71,0l0,0c22.656,9.783,48.344,9.783,71,0l0,0c22.656-9.783,48.344-9.783,71,0l0,0
	c22.656,9.783,48.344,9.783,71,0l0,0c22.656-9.783,48.344-9.783,71,0v-40C481.845,319.195,456.156,319.195,433.5,328.978z"/>
<path d="M308.615,187.533c0.651,3.63,3.811,6.178,7.374,6.178c0.439,0,0.885-0.039,1.332-0.119c4.077-0.731,6.79-4.629,6.059-8.706
	l-1.798-10.029c-0.731-4.078-4.632-6.79-8.706-6.059c-4.077,0.731-6.79,4.629-6.059,8.706L308.615,187.533z"/>
<path d="M419.443,167.663c0.651,3.629,3.811,6.177,7.374,6.177c0.439,0,0.885-0.039,1.333-0.119c4.077-0.731,6.79-4.629,6.059-8.706
	l-1.798-10.029c-0.731-4.077-4.634-6.79-8.706-6.059c-4.077,0.731-6.79,4.629-6.059,8.706L419.443,167.663z"/>
<path d="M352.922,183.884c4.524,3.621,10.184,5.549,16.032,5.549c1.572,0,3.16-0.14,4.741-0.423
	c7.46-1.338,13.911-5.72,17.697-12.023c2.133-3.551,0.983-8.159-2.567-10.292c-3.552-2.133-8.158-0.983-10.291,2.568
	c-1.558,2.593-4.286,4.409-7.486,4.982c-3.201,0.575-6.39-0.181-8.751-2.071c-3.234-2.589-7.953-2.066-10.542,1.167
	C349.166,176.575,349.688,181.295,352.922,183.884z"/>
<path d="M4.527,322.092C1.779,323.278,0,325.984,0,328.978V468.88c0,4.143,3.358,7.5,7.5,7.5h497c4.142,0,7.5-3.357,7.5-7.5V328.978
	c0-2.992-1.779-5.699-4.527-6.885c-12.219-5.276-25.164-7.952-38.473-7.952c-1.329,0-2.653,0.034-3.974,0.087
	c16.376-24.377,27.869-51.784,34.202-81.73c3.573-16.827,5.493-34.4,5.708-52.233c0-0.021,0.003-0.041,0.003-0.061
	c0.102-8.162-0.165-16.447-0.792-24.628c-1.572-20.527-20.862-35.921-41.239-32.831l-34.559,5.224c0,0-68.303-57.056-68.314-57.065
	c-12.293-10.269-28.903-14.715-44.677-11.969l-42.095,7.331l-18.197-16.816c-13.264-12.257-29.699-13.829-42.535-13.829
	c-16.694,0-33.496,1.644-50.16,2.604c-30.665,1.765-51.735,20.164-53.677,46.873l-0.748,10.291
	c-18.003,5.223-32.459,19.526-37.652,37.77L55.74,184.294c0,0-13.226,2-13.234,2.001c-21.093,3.189-35.044,24.871-29.209,45.398
	l23.521,82.649C25.681,315.044,14.845,317.637,4.527,322.092z M497,334.063V461.38H15V334.063c8.98-3.269,18.377-4.923,28-4.923
	c11.108,0,22.299,2.277,32.492,6.709c0.011,0.005,0.023,0.009,0.034,0.014c0.066,0.028,0.132,0.054,0.198,0.083
	c24.083,10.424,51.949,10.377,76.092,0.191c0.219-0.092,0.439-0.179,0.657-0.274c20.671-8.926,44.382-8.926,65.053,0
	c0.064,0.028,0.129,0.053,0.194,0.081c24.118,10.354,51.93,10.422,76.096,0.193c0.219-0.092,0.439-0.179,0.657-0.274
	c20.671-8.926,44.382-8.926,65.053,0c24.216,10.456,52.221,10.524,76.483,0.193c10.446-4.448,21.618-6.916,32.991-6.916
	C478.623,329.141,488.019,330.794,497,334.063z M239.938,156.45l-5.837-37.688l88.979-15.495c2.859-0.497,5.838,0.299,8.064,2.135
	l36.611,31.726l-3.466,0.524l-64.46,9.744L239.938,156.45z M104.631,176.903l8.945-31.427c1.042-3.659,4.137-6.446,7.884-7.099
	l68.301-11.894l5.683,36.691L104.631,176.903z M163.234,53.198c16.38-0.943,32.885-2.578,49.297-2.578
	c15.211,0,24.887,2.944,32.355,9.845l9.781,9.039L123.204,92.397l0.452-6.212C125.06,66.875,139.855,54.544,163.234,53.198z
	 M84.722,137.264c4.173-14.662,16.573-25.825,31.592-28.44l201.619-35.11c11.485-2.002,23.539,1.228,32.488,8.703l58.118,48.547
	l-21.281,3.217l-46.349-40.164c-0.034-0.03-0.069-0.059-0.104-0.088c-5.572-4.676-13.141-6.684-20.298-5.438l-96.229,16.757
	c-4.027,0.702-6.751,4.498-6.125,8.537l6.955,44.908l-14.832,2.242l-6.861-44.298c-0.308-1.99-1.404-3.772-3.04-4.946
	c-1.636-1.174-3.674-1.641-5.659-1.295l-75.829,13.205c-9.383,1.634-17.13,8.609-19.738,17.77l-10.814,37.997l-16.297,2.463
	L84.722,137.264z M30.257,210.511c3.257-5.062,8.541-8.483,14.494-9.385c0,0,420.055-63.498,420.402-63.551
	c11.913-1.801,23.116,7.168,24.039,19.148c0.431,5.621,0.681,11.293,0.75,16.935c0,0-357.681,54.073-357.822,54.095
	c-4.019,0.608-6.902,4.523-6.295,8.537c0.609,4.027,4.513,6.904,8.537,6.295l355.325-53.717c-0.55,12.055-1.927,23.929-4.114,35.452
	l-81.956,12.388c-4.044,0.613-6.905,4.495-6.295,8.537c0.005,0.034,0.015,0.065,0.02,0.099c0.623,3.903,4.569,6.791,8.517,6.196
	l76.187-11.517c-7.463,28.614-20.121,54.565-37.714,77.297c-3.425,0.902-12.604,4.231-13.804,4.772
	c-20.589,8.891-44.191,8.92-64.804,0.1c-0.083-0.035-0.167-0.064-0.25-0.1c-12.219-5.276-25.164-7.952-38.473-7.952
	c-13.31,0-26.254,2.675-38.473,7.952c-20.655,8.919-44.344,8.925-65.004,0.02c-0.017-0.007-0.033-0.013-0.05-0.02
	c-12.219-5.276-25.163-7.952-38.473-7.952c-13.31,0-26.254,2.675-38.473,7.952c-20.655,8.919-44.344,8.925-65.004,0.02
	c-0.017-0.007-0.033-0.013-0.05-0.02c-9.199-3.971-19.014-6.518-28.987-7.489l-2.631-9.251c0,0,325.839-49.253,326.004-49.278
	c4-0.605,6.898-4.533,6.294-8.537c-0.603-3.999-4.504-6.907-8.537-6.294l-327.9,49.564l-9.5-33.385l68.679-10.383
	c4.096-0.619,6.914-4.441,6.295-8.537s-4.441-6.915-8.537-6.294l-70.578,10.67l-4.353-15.288
	C26.078,221.797,27.001,215.572,30.257,210.511z"/>
<g>
</g>
<g>
</g>
<g>
</g>
<g>
</g>
<g>
</g>
<g>
</g>
<g>
</g>
<g>
</g>
<g>
</g>
<g>
</g>
<g>
</g>
<g>
</g>
<g>
</g>
<g>
</g>
<g>
</g>
</svg>
