<?xml version="1.0" encoding="iso-8859-1"?>
<!-- Generator: Adobe Illustrator 19.0.0, SVG Export Plug-In . SVG Version: 6.00 Build 0)  -->
<svg version="1.1" id="Capa_1" xmlns="http://www.w3.org/2000/svg" xmlns:xlink="http://www.w3.org/1999/xlink" x="0px" y="0px"
	 viewBox="0 0 512 512" style="enable-background:new 0 0 512 512;" xml:space="preserve">
<path style="fill:#FADC60;" d="M101.862,239.335C112.688,163.893,177.564,105.904,256,105.904s143.312,57.988,154.137,133.431
	H101.862z"/>
<path style="fill:#F2C42C;" d="M270.992,106.621c-2.428-0.231-4.872-0.408-7.332-0.528c-2.516-0.123-5.035-0.186-7.555-0.188
	c-0.035,0-0.071-0.001-0.106-0.001c-78.436,0-143.312,57.987-154.137,133.431h30.003
	C141.992,168.76,199.421,113.465,270.992,106.621z"/>
<path style="fill:#FD6F71;" d="M410.407,281.889c0.87-6.63,1.315-13.383,1.315-20.251c0-7.572-0.539-15.02-1.585-22.302
	c-43.216-12.679-96.502-20.169-154.137-20.169s-110.921,7.49-154.137,20.169c-1.046,7.282-1.585,14.73-1.585,22.302
	c0,6.868,0.445,13.621,1.315,20.251l83.622,11.167h153.308L410.407,281.889z"/>
<path style="fill:#F2C42C;" d="M504.523,333.862C470.255,375.802,371.939,406.09,256,406.09
	c-71.008,0-135.406-11.361-182.527-29.802l57.186-46.631l209.246-36.6l91.157,11.049l42.816,12.43L504.523,333.862z"/>
<g>
	<path style="fill:#E34B4C;" d="M385.906,255.066c0,0,71.262-43.657,86.382-9.702c15.12,33.955-3.635,61.226-3.635,61.226
		l-97.337-19.208L385.906,255.066z"/>
	<path style="fill:#E34B4C;" d="M353.385,248.65c0,0-49.336-67.455-76.221-41.789c-26.886,25.666-19.896,58.017-19.896,58.017
		l97.337,19.208L353.385,248.65z"/>
	<path style="fill:#E34B4C;" d="M380.541,240.634l-16.711-3.297c-9.605-1.895-18.927,4.354-20.822,13.958l-2.361,11.968
		c-1.895,9.605,4.354,18.927,13.958,20.822l16.711,3.297c9.605,1.895,18.927-4.354,20.822-13.958l2.361-11.968
		C396.395,251.852,390.146,242.529,380.541,240.634z"/>
	<path style="fill:#E34B4C;" d="M101.593,281.889l83.623,11.167h30.002l-83.622-11.167c-0.87-6.63-1.315-13.383-1.315-20.252
		c0-7.573,0.539-15.02,1.585-22.302c0.381-2.654,0.837-5.284,1.349-7.893c-10.935,2.339-21.413,4.976-31.352,7.893
		c-0.959,6.676-1.469,13.495-1.551,20.418c-0.007,0.629-0.034,1.254-0.034,1.885C100.277,268.506,100.723,275.259,101.593,281.889z"
		/>
</g>
<path style="fill:#FADC60;" d="M504.523,333.862c-34.268-41.94-132.584-72.228-248.523-72.228
	c-115.94,0-214.256,30.288-248.523,72.229C94.923,432.38,256,356.762,256,356.762C360.623,317.398,447.465,314.07,504.523,333.862z"
	/>
<path d="M201.004,168.58v-11.315c0-4.142-3.358-7.501-7.501-7.501c-4.142,0-7.501,3.358-7.501,7.501v11.315
	c0,4.142,3.358,7.501,7.501,7.501C197.645,176.081,201.004,172.722,201.004,168.58z"/>
<path d="M326.046,168.58v-11.315c0-4.142-3.358-7.501-7.501-7.501s-7.501,3.358-7.501,7.501v11.315c0,4.142,3.358,7.501,7.501,7.501
	S326.046,172.722,326.046,168.58z"/>
<path d="M256.025,182.121c8.179,0,15.861-3.423,21.078-9.392c2.726-3.119,2.408-7.858-0.711-10.584
	c-3.119-2.726-7.858-2.408-10.584,0.711c-2.368,2.708-5.934,4.262-9.783,4.262c-3.85,0-7.416-1.554-9.784-4.263
	c-2.727-3.119-7.465-3.437-10.584-0.711c-3.119,2.726-3.437,7.465-0.711,10.584C240.162,178.697,247.845,182.121,256.025,182.121z"
	/>
<path d="M510.356,338.608c2.195-2.682,2.189-6.813,0-9.492c-7.691-9.412-18.278-18.173-31.26-26.146
	c5.109-11.366,11.834-34.235,0.069-60.656c-3.531-7.929-11.595-17.381-29.961-17.381c-10.351,0-21.964,3.078-32.653,7.055
	c-6.631-36.053-25.346-68.991-53.167-93.307c-29.718-25.973-67.844-40.277-107.359-40.277c-45.034,0-88.508,18.886-119.275,51.816
	c-2.828,3.026-2.667,7.773,0.36,10.602c3.026,2.827,7.773,2.667,10.601-0.36c27.941-29.904,67.419-47.055,108.313-47.055
	c35.882,0,70.504,12.988,97.487,36.571c23.769,20.774,40.227,48.471,47.105,78.927c-0.237-0.062-0.481-0.12-0.719-0.181
	c-13.012-3.367-26.159-6.167-39.404-8.451c-8.091-1.366-25.38-3.772-25.791-3.823c-0.083-0.079-1.591-1.467-2.272-2.08
	c-31.261-28.253-50.054-22.832-60.422-12.934c-0.013,0.013-0.026,0.026-0.039,0.039c-3.273,3.097-6.312,6.575-8.989,10.23
	c-0.199-0.002-0.397-0.001-0.596-0.003c-31.867-0.419-63.853,1.62-95.399,6.135c-18.69,2.674-37.296,6.278-55.563,11.071
	c3.625-16.132,9.915-31.431,18.765-45.616c2.192-3.514,1.121-8.141-2.393-10.334c-3.517-2.193-8.142-1.121-10.334,2.394
	c-12.035,19.291-19.773,40.456-22.998,62.92c-1.102,7.671-1.661,15.533-1.661,23.369c0,4.986,0.242,9.986,0.694,14.934
	c-41.774,13.03-74.284,31.104-91.803,52.546c-2.329,2.851-2.245,6.972,0.199,9.725c18.584,20.938,41.721,35.841,68.874,44.431
	c49.958,19.551,115.75,30.318,185.258,30.318C371.503,413.59,473.71,383.457,510.356,338.608z M264.444,254.192
	c-0.154-0.002-0.306-0.007-0.46-0.009c0.118-7.756,1.817-19.376,9.223-30.862c3.876-6.013,9.935-14.536,17.88-14.768
	c0.033-0.001,0.066-0.003,0.1-0.004c3.315-0.096,6.633,0.893,9.662,2.159c7.405,3.094,15.907,9.246,25.273,18.283
	c4.761,4.595,9.031,9.265,12.418,13.184c-0.187,0.326-0.349,0.665-0.521,0.999c-0.095,0.183-0.196,0.362-0.286,0.548
	c-0.043,0.089-0.095,0.173-0.145,0.282c-11.961-7.323-27.794-14.342-45.655-15.413c-4.146-0.253-7.689,2.904-7.936,7.039
	c-0.248,4.135,2.903,7.689,7.039,7.937c16.41,0.983,31.092,8.161,41.708,15.118c-9.235-1.122-18.606-2.031-28.077-2.738
	C304.006,255.895,277.204,254.361,264.444,254.192z M385.64,267.729c-11.832-2.669-24.171-4.973-36.847-6.879
	c0,0,1.211-6.14,1.212-6.144c0.238-1.204,0.419-2.429,0.854-3.583c1.729-4.59,6.731-7.376,11.544-6.428
	c0,0,16.698,3.294,16.71,3.297c5.41,1.067,9.121,6.605,8.052,12.011L385.64,267.729z M465.46,248.416
	c9.052,20.326,4.477,37.87,0.539,47.137c-17.913-9.26-39.143-17.177-63.31-23.626c12.262-2.204,27.918-2.989,42.872,2.13
	c3.867,1.326,8.202-0.802,9.525-4.667c1.341-3.919-0.748-8.185-4.667-9.526c-16.92-5.793-34.238-5.324-48.081-3.096
	c-0.033-0.684-0.1-1.364-0.188-2.041c11.673-5.896,31.82-14.793,47.054-14.793C460.389,239.935,463.838,244.774,465.46,248.416z
	 M108.179,272.235c-0.25-3.52-0.376-7.063-0.376-10.598c0-5.495,0.302-11.001,0.899-16.429c0.646-0.181,1.286-0.366,1.935-0.544
	c38.653-10.612,78.653-15.811,118.654-17.447c6.655-0.272,23.486-0.534,25.247-0.537c-4.297,10.376-5.49,20.152-5.566,27.491
	c-8.438,0.086-16.876,0.348-25.303,0.759C182.317,256.944,143.008,262.809,108.179,272.235z M256.025,398.589
	c-34.605,0-68.213-2.72-99.243-7.902c2.888-0.284,5.8-0.614,8.731-0.992c50.102-6.449,89.405-24.159,93.418-26.012
	c2.271-1.049,4.771-1.775,7.121-2.627c31.399-11.389,62.086-19.803,91.411-25.06c2.102-0.377,4.198-0.738,6.287-1.082
	c4.087-0.674,6.855-4.533,6.181-8.621c-0.664-4.027-4.594-6.846-8.621-6.181c-2.154,0.355-4.315,0.727-6.484,1.116
	c-21.122,3.786-42.908,9.164-65.125,16.051c-11.991,3.717-24.106,7.869-36.315,12.461c-0.183,0.07-0.369,0.148-0.546,0.23
	c-0.877,0.412-81.625,37.694-157.528,23.934c-29.343-5.32-56.741-18.705-77.663-40.149c16.953-17.454,46.998-33.129,85.616-44.543
	c35.456-10.48,72.298-16.085,109.137-18.616c22.191-1.525,44.483-1.821,66.711-1.044c36.972,1.315,73.936,5.678,109.924,14.382
	c0.034,0.008,0.069,0.016,0.103,0.023c19.133,4.355,37.903,10.464,55.897,18.293c10.75,4.676,21.242,10.046,31.01,16.551
	c-0.23-0.042-0.466-0.078-0.697-0.119c-7.454-1.317-14.972-2.296-22.514-2.948c-20.251-1.783-40.681-1.463-60.914,0.408
	c-4.289,0.397-7.81,3.684-7.383,8.228c0.388,4.124,4.039,7.154,8.17,6.766c20.184-1.894,40.56-2.211,60.754-0.28
	c0.017,0.002,0.035,0.003,0.052,0.005c12.522,1.201,25.002,3.266,37.148,6.57c0.046,0.012,0.091,0.027,0.136,0.04
	c-17.437,16.043-45.996,30.394-82.012,41.039C364.345,391.646,311.52,398.589,256.025,398.589z"/>
<g>
</g>
<g>
</g>
<g>
</g>
<g>
</g>
<g>
</g>
<g>
</g>
<g>
</g>
<g>
</g>
<g>
</g>
<g>
</g>
<g>
</g>
<g>
</g>
<g>
</g>
<g>
</g>
<g>
</g>
</svg>
