<?xml version="1.0" encoding="iso-8859-1"?>
<!-- Generator: Adobe Illustrator 19.0.0, SVG Export Plug-In . SVG Version: 6.00 Build 0)  -->
<svg version="1.1" id="Capa_1" xmlns="http://www.w3.org/2000/svg" xmlns:xlink="http://www.w3.org/1999/xlink" x="0px" y="0px"
	 viewBox="0 0 512 512" style="enable-background:new 0 0 512 512;" xml:space="preserve">
<path style="fill:#FADC60;" d="M123.784,75.963L123.784,75.963c-54.243,0-98.215,43.972-98.215,98.215v163.645
	c0,54.243,43.972,98.215,98.215,98.215l0,0c54.243,0,98.215-43.972,98.215-98.215V174.178
	C221.999,119.935,178.027,75.963,123.784,75.963z"/>
<path style="fill:#F2C42C;" d="M48.569,337.822V174.178c0-50.352,37.892-91.846,86.715-97.541c-3.773-0.44-7.609-0.674-11.5-0.674
	l0,0c-54.243,0-98.215,43.972-98.215,98.215v163.645c0,54.243,43.972,98.215,98.215,98.215l0,0c3.891,0,7.727-0.233,11.5-0.673
	C86.462,429.668,48.569,388.174,48.569,337.822z"/>
<path style="fill:#FD6F71;" d="M143.617,149.413v-15.227c0-10.953-8.879-19.832-19.832-19.832s-19.832,8.879-19.832,19.832v15.227
	C49.248,158.853,7.5,206.639,7.5,263.998v29.287c0,10.953,8.879,19.832,19.832,19.832s19.832-8.879,19.832-19.832v-29.287
	c0-42.248,34.371-76.62,76.62-76.62s76.62,34.371,76.62,76.62v29.287c0,10.953,8.879,19.832,19.832,19.832
	s19.832-8.879,19.832-19.832v-29.287C240.069,206.639,198.321,158.853,143.617,149.413z"/>
<path style="fill:#FADC60;" d="M388.216,75.963L388.216,75.963c54.243,0,98.215,43.972,98.215,98.215v163.645
	c0,54.243-43.972,98.215-98.215,98.215l0,0c-54.243,0-98.215-43.972-98.215-98.215V174.178
	C290.001,119.935,333.973,75.963,388.216,75.963z"/>
<path style="fill:#F2C42C;" d="M313.001,337.822V174.178c0-50.352,37.892-91.846,86.715-97.541c-3.773-0.44-7.609-0.674-11.5-0.674
	l0,0c-54.242,0-98.215,43.972-98.215,98.215v163.645c0,54.243,43.972,98.215,98.215,98.215l0,0c3.891,0,7.727-0.233,11.5-0.673
	C350.893,429.668,313.001,388.174,313.001,337.822z"/>
<path style="fill:#FD6F71;" d="M368.383,149.413v-15.227c0-10.953,8.879-19.832,19.832-19.832s19.832,8.879,19.832,19.832v15.227
	c54.704,9.44,96.452,57.226,96.452,114.585v29.287c0,10.953-8.879,19.832-19.832,19.832s-19.832-8.879-19.832-19.832v-29.287
	c0-42.248-34.371-76.62-76.62-76.62s-76.62,34.371-76.62,76.62v29.287c0,10.953-8.879,19.832-19.832,19.832
	s-19.832-8.879-19.832-19.832v-29.287C271.931,206.639,313.679,158.853,368.383,149.413z"/>
<path d="M57.296,339.707v10.676c0,4.142,3.358,7.5,7.5,7.5s7.5-3.358,7.5-7.5v-10.676c0-4.142-3.358-7.5-7.5-7.5
	S57.296,335.565,57.296,339.707z"/>
<path d="M182.772,357.883c4.142,0,7.5-3.358,7.5-7.5v-10.676c0-4.142-3.358-7.5-7.5-7.5s-7.5,3.358-7.5,7.5v10.676
	C175.272,354.525,178.63,357.883,182.772,357.883z"/>
<path d="M123.785,363.581c7.838,0,15.203-3.282,20.206-9.005c2.726-3.119,2.408-7.856-0.711-10.583
	c-3.118-2.726-7.856-2.408-10.583,0.711c-2.154,2.464-5.402,3.877-8.912,3.877s-6.758-1.413-8.912-3.877
	c-2.727-3.119-7.464-3.437-10.583-0.711s-3.437,7.464-0.711,10.583C108.582,360.299,115.946,363.581,123.785,363.581z"/>
<path d="M123.785,68.463c-58.292,0-105.715,47.424-105.715,105.715v25.51C6.327,218.966,0,241.221,0,263.998v29.287
	c0,11.821,7.544,21.911,18.07,25.714v18.823c0,58.291,47.423,105.715,105.715,105.715S229.5,396.113,229.5,337.822v-18.823
	c10.525-3.803,18.069-13.893,18.069-25.714v-29.287c0-22.777-6.327-45.032-18.069-64.31v-25.511
	C229.5,115.887,182.076,68.463,123.785,68.463z M123.785,83.463c50.021,0,90.715,40.694,90.715,90.715v5.692
	c-0.009-0.01-0.018-0.019-0.027-0.028c-9.176-9.878-19.983-18.253-31.834-24.681c-9.898-5.376-20.535-9.407-31.521-11.898v-9.078
	c0-15.071-12.261-27.333-27.333-27.333s-27.333,12.261-27.333,27.333v9.078c-13.218,2.996-25.956,8.242-37.49,15.354
	c-9.524,5.873-18.28,13.051-25.893,21.252v-5.692C33.07,124.157,73.764,83.463,123.785,83.463z M232.569,293.285
	c0,6.666-5.671,12.333-12.332,12.333c-6.715,0-12.333-5.619-12.333-12.333v-29.287c0-46.384-37.736-84.12-84.12-84.12
	c-18.964,0-37.585,6.537-52.433,18.406c-3.235,2.586-3.762,7.306-1.175,10.541c2.587,3.235,7.306,3.762,10.542,1.175
	c12.375-9.893,27.268-15.122,43.066-15.122c38.113,0,69.12,31.007,69.12,69.12c0,0,0,29.281,0,29.287
	c0,12.599,9.13,23.967,21.418,26.681c0.06,0.013,0.117,0.033,0.177,0.046v17.811c0,50.021-40.694,90.715-90.715,90.715
	S33.07,387.843,33.07,337.822v-17.811c0.06-0.013,0.117-0.033,0.177-0.046c7.381-1.635,13.936-6.467,17.731-12.997
	c2.392-4.116,3.687-8.921,3.687-13.684v-29.287c0-11.227,2.765-22.324,8.014-32.236c1.137-2.148,2.382-4.424,1.954-6.941
	c-0.37-2.174-1.74-4.164-3.655-5.26c-3.548-2.03-8.204-0.764-10.234,2.784c-7.248,12.665-11.079,27.068-11.079,41.653
	c0,0,0,29.258,0,29.287c0,7.008-6.462,12.902-13.437,12.272c-0.057-0.005-0.113-0.002-0.169-0.006
	C19.855,304.913,15,299.656,15,293.285v-29.287c0-20.862,6.043-41.226,17.22-58.649c12.957-20.198,32.579-35.744,55.16-43.835
	c5.69-2.039,11.794-3.665,17.848-4.709c3.597-0.621,6.225-3.74,6.225-7.391v-15.227c0-6.8,5.532-12.333,12.333-12.333
	s12.333,5.532,12.333,12.333v15.227c0,3.65,2.628,6.77,6.225,7.391c6.082,1.05,12.085,2.639,17.897,4.717
	c22.529,8.053,42.175,23.688,55.103,43.816c11.182,17.426,17.227,37.794,17.227,58.661
	C232.569,263.998,232.569,293.271,232.569,293.285z"/>
<path d="M454.704,339.707v10.676c0,4.142-3.358,7.5-7.5,7.5s-7.5-3.358-7.5-7.5v-10.676c0-4.142,3.358-7.5,7.5-7.5
	S454.704,335.565,454.704,339.707z"/>
<path d="M329.228,357.883c-4.142,0-7.5-3.358-7.5-7.5v-10.676c0-4.142,3.358-7.5,7.5-7.5s7.5,3.358,7.5,7.5v10.676
	C336.728,354.525,333.37,357.883,329.228,357.883z"/>
<path d="M388.215,363.581c-7.838,0-15.203-3.282-20.206-9.005c-2.726-3.119-2.408-7.856,0.711-10.583
	c3.118-2.726,7.856-2.408,10.583,0.711c2.154,2.464,5.402,3.877,8.912,3.877c3.51,0,6.758-1.413,8.912-3.877
	c2.727-3.119,7.464-3.437,10.583-0.711c3.119,2.726,3.437,7.464,0.711,10.583C403.418,360.299,396.054,363.581,388.215,363.581z"/>
<path d="M282.5,174.178v25.511c-11.742,19.278-18.069,41.533-18.069,64.31v29.287c0,11.821,7.544,21.911,18.069,25.714v18.823
	c0,58.291,47.423,105.715,105.715,105.715S493.93,396.113,493.93,337.822v-18.823c10.526-3.803,18.07-13.893,18.07-25.714v-29.287
	c0-22.777-6.327-45.032-18.07-64.311v-25.51c0-58.291-47.423-105.715-105.715-105.715S282.5,115.887,282.5,174.178z M478.93,174.178
	v5.692c-7.613-8.201-16.369-15.379-25.893-21.252c-11.534-7.112-24.272-12.358-37.49-15.354v-9.078
	c0-15.071-12.261-27.333-27.333-27.333s-27.333,12.261-27.333,27.333v9.078c-10.987,2.49-21.623,6.521-31.521,11.898
	c-11.851,6.428-22.659,14.802-31.834,24.681c-0.009,0.009-0.018,0.018-0.027,0.028v-5.692c0-50.021,40.694-90.715,90.715-90.715
	S478.93,124.157,478.93,174.178z M279.431,263.998c0-20.867,6.045-41.235,17.227-58.661c12.928-20.128,32.573-35.763,55.103-43.816
	c5.812-2.077,11.815-3.667,17.897-4.717c3.597-0.621,6.225-3.74,6.225-7.391v-15.227c0-6.8,5.532-12.333,12.333-12.333
	s12.333,5.532,12.333,12.333v15.227c0,3.65,2.628,6.77,6.225,7.391c6.054,1.045,12.158,2.67,17.848,4.709
	c22.581,8.092,42.203,23.638,55.16,43.835c11.177,17.423,17.22,37.788,17.22,58.649v29.287c0,6.371-4.855,11.627-11.059,12.267
	c-0.057,0.004-0.113,0.001-0.169,0.006c-6.974,0.629-13.437-5.264-13.437-12.272c0-0.029,0-29.287,0-29.287
	c0-14.585-3.831-28.989-11.079-41.653c-2.031-3.548-6.687-4.814-10.234-2.784c-1.915,1.096-3.285,3.087-3.655,5.26
	c-0.428,2.518,0.816,4.793,1.953,6.941c5.249,9.912,8.014,21.009,8.014,32.236v29.287c0,4.762,1.295,9.567,3.687,13.684
	c3.795,6.531,10.351,11.362,17.731,12.997c0.06,0.013,0.117,0.033,0.177,0.046v17.811c0,50.021-40.694,90.715-90.715,90.715
	S297.5,387.843,297.5,337.822v-17.811c0.06-0.013,0.117-0.033,0.177-0.046c12.289-2.713,21.418-14.082,21.418-26.681
	c0-0.006,0-29.287,0-29.287c0-38.113,31.007-69.12,69.12-69.12c15.799,0,30.691,5.229,43.066,15.122
	c3.236,2.587,7.955,2.061,10.542-1.175c2.587-3.236,2.06-7.955-1.175-10.541c-14.848-11.869-33.468-18.406-52.433-18.406
	c-46.384,0-84.12,37.736-84.12,84.12v29.287c0,6.713-5.618,12.333-12.333,12.333c-6.661,0-12.332-5.666-12.332-12.333
	C279.431,293.271,279.431,263.998,279.431,263.998z"/>
<g>
</g>
<g>
</g>
<g>
</g>
<g>
</g>
<g>
</g>
<g>
</g>
<g>
</g>
<g>
</g>
<g>
</g>
<g>
</g>
<g>
</g>
<g>
</g>
<g>
</g>
<g>
</g>
<g>
</g>
</svg>
