<?xml version="1.0" encoding="iso-8859-1"?>
<!-- Generator: Adobe Illustrator 19.0.0, SVG Export Plug-In . SVG Version: 6.00 Build 0)  -->
<svg version="1.1" id="Capa_1" xmlns="http://www.w3.org/2000/svg" xmlns:xlink="http://www.w3.org/1999/xlink" x="0px" y="0px"
	 viewBox="0 0 512.001 512.001" style="enable-background:new 0 0 512.001 512.001;" xml:space="preserve">
<g>
	<path style="fill:#35925D;" d="M217.318,155.282c0,0-115.112-48.658-200.759-9.966c-5.046,2.279-10.411-2.46-8.743-7.74
		c61.625-195.047,255.202-91.47,242.026-17.488L217.318,155.282z"/>
	<path style="fill:#35925D;" d="M294.683,155.282c0,0,115.112-48.658,200.759-9.966c5.046,2.279,10.411-2.46,8.743-7.74
		c-61.625-195.047-255.202-91.47-242.026-17.488L294.683,155.282z"/>
</g>
<path style="fill:#7CB777;" d="M256,102.537C217.311,33.164-10.417,77.829,69.572,278.706c2.165,5.437,9.727,5.729,12.333,0.489
	c44.236-88.949,171.007-126.098,171.007-126.098l1.068-17.488h4.041l1.068,17.488c0,0,126.771,37.148,171.007,126.098
	c2.606,5.24,10.168,4.948,12.333-0.489C522.418,77.829,294.689,33.164,256,102.537z"/>
<path style="fill:#F2C42C;" d="M356.638,305.756l-75.609-18.836l-125.668,18.836c-5.176,30.575-8.59,68.16-5.897,109.218
	l103.446,44.816l109.624-44.816C365.228,373.916,361.814,336.332,356.638,305.756z"/>
<g>
	<path style="fill:#FADC60;" d="M356.638,305.756c-28.823,6.658-63.425,10.533-100.638,10.533s-71.815-3.875-100.638-10.533
		c8.05-47.696,20.364-78.301,20.364-78.301h160.548C336.274,227.454,348.589,258.06,356.638,305.756z"/>
	<path style="fill:#FADC60;" d="M362.535,414.974c-0.39,6.027-0.921,12.124-1.592,18.292c-2.783,25.48-22.457,45.874-47.846,49.418
		c-15.248,2.132-34.43,3.805-57.097,3.805s-41.849-1.672-57.097-3.805c-25.39-3.544-45.063-23.939-47.846-49.418
		c-0.671-6.167-1.201-12.265-1.592-18.292c29.945,7.529,66.749,11.964,106.535,11.964S332.589,422.503,362.535,414.974z"/>
</g>
<circle style="fill:#AD4F3D;" cx="295.964" cy="212.335" r="43.049"/>
<circle style="fill:#B35948;" cx="216.036" cy="212.335" r="43.049"/>
<path style="fill:#F2C42C;" d="M336.274,227.454H175.726c0,0-4.88,12.134-10.503,33.016c12.775,13.478,30.823,21.91,50.816,21.91
	c14.679,0,28.509-4.491,39.961-12.438c11.452,7.946,25.283,12.438,39.961,12.438c19.992,0,38.04-8.432,50.815-21.91
	C341.154,239.589,336.274,227.454,336.274,227.454z"/>
<path style="fill:#B35948;" d="M295.962,169.28c-18.116,0-33.607,11.195-39.961,27.039c-6.355-15.845-21.846-27.039-39.961-27.039
	c-23.777,0-43.05,19.275-43.05,43.05c0,23.777,19.275,43.05,43.05,43.05c18.116,0,33.607-11.195,39.961-27.039
	c6.355,15.845,21.846,27.039,39.961,27.039c23.777,0,43.05-19.274,43.05-43.05C339.012,188.555,319.738,169.28,295.962,169.28z"/>
<circle style="fill:#C86D5C;" cx="255.995" cy="159.106" r="46.554"/>
<path d="M192.607,348.944c-4.142,0-7.5,3.358-7.5,7.5v11.473c0,4.142,3.358,7.5,7.5,7.5s7.5-3.358,7.5-7.5v-11.473
	C200.107,352.302,196.749,348.944,192.607,348.944z"/>
<path d="M319.396,375.417c4.142,0,7.5-3.358,7.5-7.5v-11.473c0-4.142-3.358-7.5-7.5-7.5c-4.142,0-7.5,3.358-7.5,7.5v11.473
	C311.896,372.059,315.254,375.417,319.396,375.417z"/>
<path d="M276.583,361.472c-3.118-2.726-7.857-2.408-10.583,0.711c-2.421,2.77-6.066,4.358-10,4.358c-3.934,0-7.579-1.589-10-4.359
	c-2.726-3.118-7.464-3.437-10.583-0.711c-3.119,2.726-3.437,7.464-0.711,10.583c5.27,6.029,13.031,9.487,21.294,9.487
	c8.262,0,16.024-3.458,21.294-9.487C280.02,368.936,279.702,364.198,276.583,361.472z"/>
<path d="M4.679,149.878c3.994,3.548,9.93,4.548,14.968,2.272c11.589-5.235,24.429-9.059,38.311-11.42
	c-3.29,6.862-5.967,14.066-7.993,21.57c-9.334,34.577-5.081,74.676,12.642,119.181c2.108,5.296,6.954,8.731,12.645,8.967
	c0.207,0.008,0.413,0.013,0.619,0.013c5.452,0,10.3-2.995,12.752-7.925c10.64-21.394,32.666-51.55,77.98-80.691
	c-0.721,3.393-1.112,6.899-1.112,10.487c0,5.211,0.793,10.239,2.264,14.973c-3.166,8.499-12.943,36.657-19.786,77.207
	c-6.342,37.466-8.356,74.794-5.986,110.949c0.396,6.103,0.941,12.367,1.621,18.621c3.165,28.972,25.479,52.013,54.263,56.031
	c18.396,2.573,37.955,3.877,58.136,3.877s39.74-1.304,58.134-3.876c28.785-4.018,51.1-27.059,54.265-56.035
	c0.68-6.25,1.225-12.514,1.62-18.62c2.37-36.15,0.357-73.476-5.986-110.948c-4.223-25.021-9.625-45.32-13.413-57.945
	c-2.154-7.179-4.032-12.71-5.228-16.086c-0.448-1.266-0.83-2.312-1.148-3.167c1.472-4.736,2.267-9.767,2.267-14.981
	c0-3.588-0.391-7.094-1.112-10.487c45.313,29.14,67.341,59.298,77.98,80.691c2.431,4.888,7.325,7.924,12.774,7.924
	c5.872,0,11.069-3.524,13.241-8.979c15.44-38.773,27.637-92.937,4.683-140.744c13.87,2.363,26.697,6.184,38.276,11.414
	c5.953,2.689,13.111,0.796,16.97-4.47c2.628-3.587,3.362-8.093,2.013-12.364c-12.714-40.239-31.756-70.792-56.599-90.81
	c-21.512-17.334-47.499-26.495-75.154-26.495c-24.414,0-50.107,7.238-72.349,20.38c-20.751,12.262-36.948,28.544-45.833,45.986
	c-1.938,1.678-3.736,3.454-5.393,5.318c-1.668-1.885-3.486-3.676-5.443-5.371c-9.364-18.316-27.273-35.746-49.456-48.021
	c-24.319-13.456-51.929-19.838-77.745-17.967c-26.321,1.906-49.932,11.861-70.176,29.586C30.336,67.937,12.664,97.339,0.665,135.317
	C-1.008,140.613,0.53,146.192,4.679,149.878z M329.085,225.183c-4.865,12.513-16.783,21.432-30.161,22.565
	c-10.554,0.894-21.218-3.246-28.56-10.844c-1.574-1.628-6.547-8.042-6.273-8.873c0.031-0.094,0.056-0.188,0.086-0.282
	c1.593-4.973,2.413-10.196,2.413-15.418c0-0.073,0-0.146,0-0.22c13.688-2.73,25.517-10.648,33.368-21.606
	c0.044-0.061,0.087-0.122,0.131-0.184c2.563-3.608,4.692-7.536,6.292-11.664c0.036-0.094,0.08-0.183,0.116-0.276
	C325.56,184.247,336.313,206.594,329.085,225.183z M228.106,245.772c-14.646,4.579-30.57,0.673-40.186-11.728
	c-10.669-13.76-9.53-33.811,2.5-46.338c4.077-4.245,9.376-7.566,15.069-9.321c7.206,19.051,24.464,32.372,44.842,34.474
	c0.118,0.012,0.912,0.065,1.197,0.163C253.019,226.717,240.809,241.801,228.106,245.772z M256.002,120.052
	c19.264,0.229,36.125,14.64,38.71,33.882c0.142,1.057,0.24,2.119,0.294,3.184c0.995,19.534-13.982,37.748-33.309,40.615
	c-1.885,0.28-3.79,0.426-5.695,0.426c-20.698,0-38.383-17.225-39.033-37.869c-0.62-19.682,14.891-37.536,34.365-39.953
	C252.882,120.145,254.441,120.033,256.002,120.052z M353.489,432.451c-2.418,22.136-19.454,39.737-41.429,42.805
	c-17.71,2.477-36.57,3.732-56.059,3.732c-19.489,0-38.349-1.256-56.06-3.732c-21.974-3.067-39.009-20.67-41.427-42.801
	c-0.284-2.615-0.544-5.232-0.778-7.838c0.367,0.08,0.743,0.155,1.112,0.234c19.747,4.247,39.572,6.824,59.706,8.263
	c4.604,0.328,9.213,0.593,13.824,0.797c18.398,0.829,36.71,0.335,55.098-0.375c3.475-0.134,6.457-2.736,7.083-6.153
	c0.796-4.344-2.455-8.373-6.789-8.797c-0.591-0.058-1.186-0.064-1.779-0.029c-9.948,0.582-20.032,0.882-29.989,0.882
	c-5.488,0-10.973-0.087-16.459-0.267c-26.815-0.846-53.693-3.654-79.902-9.495c-0.923-0.206-1.845-0.415-2.766-0.629
	c-0.084-0.02-0.166-0.041-0.25-0.06c-1.622-30.774,0.017-62.402,4.881-94.21c31.039,6.422,62.826,9.012,94.495,9.012
	c21.59,0,43.193-1.296,64.61-4.042c2.489-0.319,29.985-4.297,29.885-4.97c4.865,31.809,6.504,63.437,4.881,94.211
	c-1.627,0.378-3.273,0.746-4.935,1.105c-11.399,2.463-22.949,4.408-34.532,5.771c-4.111,0.507-7.033,4.25-6.526,8.361
	c0.507,4.111,4.252,7.034,8.361,6.526c10.234-1.264,20.623-2.902,30.808-4.947c1.907-0.384,3.814-0.776,5.715-1.19
	C354.033,427.22,353.773,429.837,353.489,432.451z M334.447,245.062c3.848,12.127,9.182,31.135,13.555,54.904
	c-0.828,0.172-62.005,8.823-92.001,8.823c-30.817,0-61.804-2.535-92.001-8.823c4.377-23.797,9.708-42.794,13.553-54.907
	c0.062,0.072,0.128,0.139,0.19,0.21c0.516,0.6,1.046,1.187,1.589,1.761c7.671,8.02,17.772,13.472,28.759,15.215
	c6.1,0.968,12.382,0.802,18.427-0.463c11.772-2.461,22.192-8.998,29.484-18.454c0.069,0.089,0.144,0.172,0.213,0.26
	c7.272,9.269,17.695,15.751,29.217,18.186c17.895,3.783,36.853-2.67,48.812-16.489C334.311,245.209,334.382,245.138,334.447,245.062
	z M436.071,274.386c-13.51-26.439-42.662-64.454-105.15-98.546c-0.807-0.775-1.651-1.518-2.51-2.234
	c-5.404-4.506-11.752-7.927-18.559-9.868c0.491-5.677,0.058-11.475-1.247-17.021c-5.041-21.412-22.838-37.948-44.904-41.11
	l-0.075-1.221c2.168-3.404,4.94-6.506,8.243-9.277c0.094-0.07,0.197-0.123,0.289-0.198c11.345-9.318,28.483-14.713,48.58-15.357
	c0.029-0.001,0.059-0.002,0.088-0.003c43.239-1.453,88.753,18.546,112.773,55.36C456.953,170.712,457.822,218.85,436.071,274.386z
	 M379.584,33.011c53.358,0,94.73,37.074,116.697,104.476c-15.511-6.704-32.89-11.146-51.749-13.226
	c-0.075-0.108-0.155-0.214-0.23-0.322c-7.157-10.338-15.996-19.662-26.212-27.694c-0.02-0.016-0.038-0.032-0.058-0.047
	c-27.574-21.373-62.912-32.747-97.906-31.626c-9.696,0.324-19.387,1.644-28.726,4.304C314.722,46.051,350.688,33.011,379.584,33.011
	z M63.073,59.209c17.734-15.529,38.384-24.247,61.378-25.911c37.559-2.718,73.494,13.917,95.712,35.458
	c-3.847-1.072-7.875-1.957-12.075-2.637c-18.733-3.033-39.166-1.841-59.013,3.275c-5.774,1.488-11.47,3.295-17.041,5.42
	c-3.965,1.515-6.306,5.714-4.714,9.846c1.47,3.814,5.882,5.774,9.697,4.304c4.755-1.831,9.572-3.367,14.492-4.688
	c20.762-5.502,42.134-6.149,59.969-2.192c14.062,3.12,28.876,9.741,36.896,22.305l-0.074,1.219
	c-22.067,3.163-39.863,19.7-44.904,41.11c-0.016,0.069-0.032,0.138-0.048,0.207c-1.186,5.069-1.617,10.554-1.262,15.85
	c0.022,0.322,0.035,0.643,0.063,0.965c-7.822,2.23-15.067,6.383-20.954,11.999c-0.037,0.036-0.077,0.067-0.114,0.103
	c-35.02,19.112-81.156,51.537-105.15,98.546c-15.985-40.8-19.851-77.188-11.485-108.177c7.035-26.061,23.788-48.528,46.11-63.542
	c3.438-2.31,4.353-6.97,2.042-10.408c-2.283-3.394-7.019-4.339-10.42-2.055c-13.527,9.085-25.471,20.613-34.708,34.056
	c-18.859,2.08-36.239,6.522-51.749,13.226C26.851,103.309,42.775,76.983,63.073,59.209z"/>
<g>
</g>
<g>
</g>
<g>
</g>
<g>
</g>
<g>
</g>
<g>
</g>
<g>
</g>
<g>
</g>
<g>
</g>
<g>
</g>
<g>
</g>
<g>
</g>
<g>
</g>
<g>
</g>
<g>
</g>
</svg>
