<?xml version="1.0" encoding="iso-8859-1"?>
<!-- Generator: Adobe Illustrator 19.0.0, SVG Export Plug-In . SVG Version: 6.00 Build 0)  -->
<svg version="1.1" id="Capa_1" xmlns="http://www.w3.org/2000/svg" xmlns:xlink="http://www.w3.org/1999/xlink" x="0px" y="0px"
	 viewBox="0 0 512 512" style="enable-background:new 0 0 512 512;" xml:space="preserve">
<path style="fill:#F2C42C;" d="M336.31,216.78c-2.294,0-4.618-0.591-6.741-1.833c-6.373-3.73-8.515-11.92-4.785-18.293
	l106.84-182.535c3.73-6.373,11.916-8.516,18.293-4.785c6.373,3.73,8.515,11.92,4.785,18.293L347.861,210.162
	C345.373,214.412,340.903,216.78,336.31,216.78z"/>
<path style="fill:#EFEDEE;" d="M178.207,65.001c-8.035-17.211-24.713-28.764-43.65-30.237l-86.84-6.756
	c-6.074-0.473-11.381,4.068-11.853,10.142l-0.778,9.995c-0.473,6.074,4.068,11.381,10.142,11.853l86.84,6.756
	c7.39,0.575,13.928,5.105,17.063,11.82l41.56,89.015l29.075-13.575L178.207,65.001z"/>
<path style="fill:#FF98C5;" d="M441.438,43.813l-14.79-8.657c-32.582-19.07-74.454-8.118-93.524,24.464l0,0
	c-5.365,9.166-2.284,20.947,6.883,26.312s20.947,2.284,26.312-6.883c-5.365,9.166-2.284,20.947,6.883,26.312
	c9.166,5.365,20.947,2.284,26.312-6.883c-5.365,9.166-2.284,20.947,6.883,26.312c9.166,5.365,20.947,2.284,26.312-6.883
	c-5.365,9.166-2.284,20.947,6.883,26.312c9.166,5.365,20.947,2.284,26.312-6.883l0,0C484.972,104.756,474.02,62.884,441.438,43.813z
	"/>
<path style="fill:#EB5E8A;" d="M353.124,69.621L353.124,69.621c16.621-28.397,50.562-40.356,80.577-30.335l-7.053-4.128
	c-32.581-19.071-74.454-8.118-93.524,24.464l0,0c-5.365,9.167-2.284,20.947,6.883,26.312c3.998,2.34,8.493,3.071,12.736,2.394
	C349.738,82.638,349.635,75.581,353.124,69.621z"/>
<path style="fill:#7CB777;" d="M476.904,249.796c0,129.562-5.703,254.704-220.691,254.704S35.521,379.357,35.521,249.796
	l23.886-30.878h379.707L476.904,249.796z"/>
<path style="fill:#EFEDEE;" d="M256.213,135.987c229.593,0,220.691,113.809,220.691,113.809l-22.069-9.273
	c-14.115-5.931-30.023-5.931-44.138,0l0,0c-14.115,5.931-30.023,5.931-44.138,0l0,0c-14.115-5.931-30.023-5.931-44.138,0l0,0
	c-14.115,5.931-30.023,5.931-44.138,0l0,0c-14.115-5.931-30.023-5.931-44.138,0l0,0c-14.115,5.931-30.023,5.931-44.138,0l0,0
	c-14.115-5.931-30.023-5.931-44.138,0l0,0c-14.115,5.931-30.023,5.931-44.138,0l0,0c-14.115-5.931-30.023-5.931-44.138,0
	l-22.069,9.273C35.521,249.796,26.619,135.987,256.213,135.987z"/>
<path style="fill:#35925D;" d="M256.213,504.5c0.244,0,0.482-0.003,0.725-0.003c4.794-0.009,9.589-0.073,14.381-0.212
	c0.045-0.001,0.089-0.003,0.133-0.004c1.591-0.047,3.171-0.1,4.758-0.162C80.868,496.483,75.521,375.211,75.521,249.795
	c0,0-1.041-13.336,6.798-30.877H59.407l-23.886,30.877c0,47.528-0.305,96.981,14.745,142.612
	C71.911,458.03,125.204,504.5,256.213,504.5z"/>
<path style="fill:#D2D2D2;" d="M76.773,236.149c5.809-29.067,36.945-94.87,199.437-99.86c-0.052-0.001-0.104-0.002-0.156-0.004
	c-6.609-0.25-13.228-0.299-19.841-0.299c-152.464,0-199.757,50.188-214.326,83.907c-0.343,0.793-0.667,1.578-0.975,2.352
	c-1.384,3.484-2.42,6.766-3.194,9.767c-0.344,1.334-0.637,2.612-0.885,3.828c-0.248,1.215-0.452,2.369-0.62,3.452
	c-0.209,1.354-0.362,2.601-0.471,3.725c-0.088,0.899-0.148,1.72-0.189,2.456c-0.154,2.759-0.031,4.322-0.031,4.322l22.069-9.273
	C63.743,237.938,70.236,236.481,76.773,236.149z"/>
<path d="M141.617,342.991v19.383c0,4.142,3.358,7.5,7.5,7.5s7.5-3.358,7.5-7.5v-19.383c0-4.142-3.358-7.5-7.5-7.5
	S141.617,338.849,141.617,342.991z"/>
<path d="M355.809,342.991v19.383c0,4.142,3.358,7.5,7.5,7.5s7.5-3.358,7.5-7.5v-19.383c0-4.142-3.358-7.5-7.5-7.5
	S355.809,338.849,355.809,342.991z"/>
<path d="M276.998,356.089c-5.072,5.802-12.648,9.13-20.786,9.13c-8.138,0-15.714-3.328-20.786-9.131
	c-2.727-3.119-7.464-3.437-10.583-0.711c-3.119,2.726-3.437,7.464-0.711,10.583c7.921,9.062,19.613,14.259,32.08,14.259
	c12.466,0,24.159-5.197,32.08-14.259c2.726-3.119,2.408-7.857-0.711-10.583C284.463,352.652,279.725,352.97,276.998,356.089z"/>
<path d="M484.404,250.014c0.201-3.686,0.862-32.909-26.02-61.976c-15.654-16.926-37.628-30.459-65.309-40.274l9.627-16.448
	c4.073,2.362,8.7,3.613,13.391,3.613c2.474,0,4.906-0.347,7.234-1.004c0.037,0.155,0.076,0.309,0.117,0.463
	c3.048,11.606,13.824,19.97,25.844,19.97c9.463,0,18.31-5.069,23.087-13.231c10.235-17.487,13.048-37.913,7.921-57.515
	c-4.208-16.084-13.354-30.027-26.16-40.17l7.039-12.026c5.813-9.932,2.462-22.741-7.47-28.555C450.506,0.989,446.865,0,443.174,0
	c-7.387,0-14.293,3.958-18.022,10.331l-7.299,12.47c-8.217-2.969-16.905-4.517-25.671-4.517c-26.864,0-51.975,14.388-65.531,37.549
	c-7.446,12.721-3.154,29.127,9.566,36.573c6.217,3.639,13.788,4.619,20.72,2.66c0.038,0.155,0.077,0.31,0.117,0.464
	c1.536,5.875,4.946,10.936,9.719,14.538l-15.531,26.534c-27.802-5.382-59.585-8.115-95.031-8.115
	c-13.728,0-26.895,0.419-39.513,1.232l-31.697-67.891c-9.164-19.626-28.271-32.861-49.864-34.542l-86.84-6.756
	c-10.226-0.794-19.13,6.974-19.913,17.038l-0.777,9.995c-0.384,4.935,1.177,9.724,4.395,13.485
	c3.218,3.761,7.708,6.043,12.643,6.427l86.839,6.757c4.699,0.366,8.856,3.245,10.85,7.516l25.068,53.693
	c-15.391,2.704-29.62,6.186-42.609,10.45c-3.936,1.292-6.079,5.53-4.787,9.465s5.529,6.079,9.465,4.787
	c33.665-11.053,76.306-16.657,126.739-16.657c63.844,0,148.765,9.422,190.763,54.311c14.366,15.354,19.596,30.476,21.469,40.309
	l-10.705-4.498c-15.872-6.668-34.077-6.668-49.949,0c-12.179,5.117-26.149,5.117-38.328,0c-15.872-6.668-34.076-6.668-49.949,0
	c-12.114,5.09-26.212,5.091-38.328,0c-15.872-6.668-34.077-6.668-49.949,0c-14.046,5.901-27.511,3.824-41.33-1.172
	c-15.136-5.47-32.067-5.08-46.947,1.172c-12.179,5.117-26.149,5.117-38.328,0c-15.872-6.668-34.078-6.668-49.949,0l-10.637,4.469
	c0.838-4.357,2.318-9.733,4.921-15.653c8.96-20.388,26.284-37.309,51.489-50.294c3.682-1.897,5.129-6.42,3.232-10.103
	c-1.896-3.682-6.418-5.129-10.102-3.232c-67.012,34.524-65.858,86.099-65.567,91.24c0.005,70.004,2.349,131.832,30.782,179.539
	c16.004,26.852,38.628,46.542,69.167,60.196C161.428,504.728,203.376,512,256.213,512c62.505,0,110.202-10.236,145.817-31.294
	c3.565-2.108,4.747-6.708,2.639-10.273c-2.108-3.566-6.707-4.745-10.273-2.639C361.157,487.447,315.957,497,256.213,497
	c-49.979,0-91.066-7.04-122.12-20.925c-27.623-12.35-48.035-30.073-62.404-54.181c-25.86-43.388-28.547-101.328-28.663-167.115
	l17.47-7.341c12.179-5.117,26.149-5.117,38.328,0c15.872,6.669,34.077,6.669,49.949,0c12.179-5.117,26.149-5.117,38.328,0
	c15.872,6.668,34.077,6.669,49.949,0c12.179-5.117,26.149-5.117,38.328,0c15.872,6.668,34.077,6.669,49.949,0
	c12.179-5.117,26.149-5.117,38.328,0c15.814,6.645,34.136,6.644,49.949,0c12.179-5.117,26.149-5.117,38.328,0l17.471,7.341
	c-0.055,38.306-0.853,75.373-7.457,108.651c-7.549,38.042-22.089,66.585-44.449,87.262c-3.042,2.812-3.227,7.557-0.415,10.598
	c2.813,3.041,7.558,3.227,10.599,0.415c24.77-22.904,40.791-54.095,48.979-95.355C483.799,330.359,484.402,290.785,484.404,250.014z
	 M132.65,59.277l-86.839-6.756c-1.941-0.151-3.398-1.854-3.247-3.795l0.777-9.995c0.142-1.827,1.683-3.258,3.508-3.258
	c0.095,0,0.19,0.003,0.286,0.011l86.84,6.756c16.211,1.262,30.556,11.198,37.436,25.933l29.318,62.795
	c-6.108,0.583-12.089,1.272-17.897,2.059l-26.904-57.626C151.651,66.241,142.731,60.063,132.65,59.277z M438.097,17.907
	c1.615-2.76,5.274-3.714,8.032-2.101c2.793,1.635,3.735,5.238,2.101,8.032l-6.653,11.366c-3.236-2.158-6.77-3.973-10.132-5.931
	C431.445,29.273,438.091,17.918,438.097,17.907z M359.846,75.262c-3.171,5.418-10.511,7.441-16.051,4.198
	c-5.583-3.268-7.466-10.468-4.198-16.051c10.876-18.582,31.026-30.126,52.585-30.126c17.871,0,33.384,9.073,47.948,18.542
	c0.019,0.012,0.04,0.02,0.059,0.032c12.694,8.272,21.734,20.79,25.595,35.55c4.113,15.726,1.857,32.113-6.354,46.142
	c-5.167,8.828-18.889,6.926-21.474-2.957c-0.793-3.031-0.358-6.19,1.225-8.895c2.068-3.534,0.845-8.196-2.684-10.261
	c-3.574-2.092-8.168-0.891-10.261,2.684c-3.223,5.506-10.547,7.42-16.051,4.198c-5.497-3.217-7.421-10.547-4.199-16.05
	c2.137-3.65,0.704-8.002-2.684-10.261c-3.575-2.093-8.169-0.892-10.261,2.684c-3.177,5.429-10.633,7.37-16.05,4.199
	c-2.705-1.583-4.63-4.125-5.423-7.156s-0.358-6.19,1.225-8.895c2.067-3.531,0.846-8.196-2.684-10.262
	C366.533,70.484,361.939,71.687,359.846,75.262z M366.672,139.936l14.344-24.507c0.625,0.044,6.772-0.273,9.105-0.932
	c0.445,1.828,1.085,3.618,1.92,5.337l-13.596,23.228C374.545,141.939,370.616,140.897,366.672,139.936z"/>
<g>
</g>
<g>
</g>
<g>
</g>
<g>
</g>
<g>
</g>
<g>
</g>
<g>
</g>
<g>
</g>
<g>
</g>
<g>
</g>
<g>
</g>
<g>
</g>
<g>
</g>
<g>
</g>
<g>
</g>
</svg>
