<?xml version="1.0" encoding="iso-8859-1"?>
<!-- Generator: Adobe Illustrator 19.0.0, SVG Export Plug-In . SVG Version: 6.00 Build 0)  -->
<svg version="1.1" id="Capa_1" xmlns="http://www.w3.org/2000/svg" xmlns:xlink="http://www.w3.org/1999/xlink" x="0px" y="0px"
	 viewBox="0 0 512 512" style="enable-background:new 0 0 512 512;" xml:space="preserve">
<path style="fill:#3A484A;" d="M459.595,319.801c0,0-13.889,39.163-66.591,49.898c-52.702,10.736-68.317-75.919-68.317-75.919
	l35.31-37.78l54.596,5.368l45.002,34.159L459.595,319.801L459.595,319.801z"/>
<path style="fill:#506366;" d="M402.56,137.656l-46.643,31.972l-31.231,124.153h35.124c59.707-10.361,92.957,16.502,108.334,35.216
	c6.312,7.682,18.445,6.09,22.478-2.998C516.683,267.268,515.49,137.656,402.56,137.656z"/>
<path style="fill:#7CB777;" d="M271.985,55.441c14.157,22.024-13.526,42.783-24.802,50.008l-4.477,2.693l0.02,20.511l29.465,30.519
	l62.026,8.814l53.361-3.005c8.208-16.953,14.981-27.327,14.981-27.327C385.938,95.621,349.72,55.441,271.985,55.441z"/>
<path style="fill:#EFEDEE;" d="M387.578,164.982c0,0-49.227-84.167-144.871-56.84l-34.338,41.897L173.55,313.31l41.514,3.511
	c0.001,0.001,0.001,0.002,0.002,0.004l-15.516,76.828l83.727,18l87.273-18l22.454-23.954
	C333.314,302.904,365.609,210.374,387.578,164.982z"/>
<path style="fill:#85E7FF;" d="M271.985,55.441c-144.159,0-240.213,145.066-260.484,327.824l33.049,24.388l115-137.609
	l83.156-161.902c0,0,0.01,0,0.02-0.01C243.926,107.479,289.318,82.406,271.985,55.441z"/>
<path style="fill:#57D0E6;" d="M49.749,401.432c0.502-6.094,1.086-12.152,1.753-18.167C69.93,217.114,151,82.132,273.903,58.969
	c-0.239-0.532-0.507-1.064-0.792-1.598c-0.052-0.097-0.104-0.195-0.157-0.292c-0.299-0.545-0.617-1.091-0.969-1.638
	c-144.159,0-240.213,145.066-260.484,327.824l33.049,24.388L49.749,401.432z"/>
<path style="fill:#FADC60;" d="M389.55,427.587l-134-47.934l-36-45.75l-4.483-17.082l-0.01,0.002v-0.002h0.01
	c-11.097-22.115-8.589-49.881,8.901-69.83c0.176-0.195,0.342-0.39,0.517-0.585c55.308-62.461,68.317-138.264,18.221-138.264
	C84.435,153.358,111.157,368.528,11.502,383.265C8.857,407.127,7.5,431.643,7.5,456.56h343.55h59.521L389.55,427.587z"/>
<path style="fill:#506366;" d="M410.571,456.56c-201.048,0-195.514-139.738-195.514-139.738h0.01
	c4.275,8.54,10.579,16.24,18.836,22.32c30.704,22.623,81.834,44.084,159.101,30.557C393.004,369.699,410.571,380.435,410.571,456.56
	z"/>
<path style="fill:#F2C42C;" d="M54.832,358.003c-11.561,13.471-25.4,22.611-43.33,25.262C8.857,407.127,7.5,431.643,7.5,456.56h40
	c0-24.917,1.357-49.432,4.001-73.295C52.445,374.757,53.562,366.336,54.832,358.003z"/>
<path d="M283.045,220.865c3.728,1.684,8.24-0.022,9.922-3.748c1.838-4.069,5.503-7.194,10.055-8.572
	c4.551-1.379,9.333-0.812,13.121,1.555c3.514,2.195,8.14,1.126,10.335-2.386c2.194-3.513,1.126-8.14-2.387-10.335
	c-7.458-4.66-16.724-5.822-25.416-3.19c-8.694,2.633-15.757,8.739-19.377,16.753C277.593,214.718,279.271,219.16,283.045,220.865z"
	/>
<path d="M407.615,130.253c-10.019-23.261-24.463-41.921-42.988-55.515c-24.232-17.782-55.401-26.798-92.642-26.798
	c-29.461,0-57.833,5.9-84.327,17.538c-25.315,11.119-49.001,27.504-70.4,48.701c-40.749,40.363-72.974,98.114-93.191,167.01
	c-1.166,3.975,1.11,8.142,5.086,9.309c3.92,1.148,8.156-1.158,9.308-5.085c19.504-66.468,50.402-121.994,89.354-160.576
	c40.305-39.923,87.26-60.716,139.637-61.846c0.308-0.007,0.786,2.915,0.831,3.241c1.427,10.438-8.014,19.246-15.035,25.487
	c-0.009,0.008-0.018,0.015-0.026,0.022c-4.69,3.957-9.462,7.13-12.686,9.016c-0.965,0.564-2.042,0.821-3.109,1.146
	c-9.421,2.869-18.598,6.485-27.446,10.807c-3.242,1.583-6.431,3.268-9.563,5.06c-3.596,2.057-4.843,6.639-2.786,10.234
	c2.026,3.541,6.698,4.8,10.234,2.785c3.381-1.926,6.817-3.734,10.337-5.394c8.247-3.891,16.775-7.17,25.529-9.729
	c2.912,0.075,5.84,0.431,8.61,1.369c10.682,3.618,14.022,14.775,14.126,25.006c0.096,9.503-2.198,21.046-6.792,33.529
	c-9.787,26.594-26.652,47.557-43.874,69.546c-16.401,20.942-19.639,49.14-8.261,73.373c0,0.033,0.001,0.075,0.001,0.108
	c0.2,26.942,10.402,54.198,26.154,75.844c18.622,25.587,46.117,43.675,75.662,54.285c0.305,0.11,0.603,0.226,0.909,0.334H15.042
	c0.223-20.006,1.339-39.953,3.328-59.459c0.049-0.011,0.096-0.026,0.145-0.037c21.519-4.981,38.657-20.395,50.817-38.259
	c13.618-20.047,24.13-45.832,35.26-73.131c18.621-45.674,39.726-97.442,80.32-131.393c3.076-2.572,3.564-7.429,0.942-10.565
	c-2.658-3.178-7.388-3.599-10.565-0.942c-43.454,36.342-65.307,89.944-84.587,137.236c-10.272,25.195-19.938,51.37-36.067,73.551
	c-0.062,0.086-0.124,0.173-0.187,0.259c-8.644,11.852-19.858,22.299-33.963,27.094c-0.087,0.029-0.174,0.059-0.261,0.088
	c2.379-18.531,5.578-36.792,9.537-54.421c0.907-4.042-1.633-8.054-5.675-8.961c-4.042-0.906-8.054,1.634-8.961,5.675
	c-4.831,21.514-8.557,43.935-11.077,66.643C1.362,406.666,0,431.604,0,456.56c0,4.142,3.358,7.5,7.5,7.5h403.04
	c0.01,0,0.021,0,0.051,0c4.142,0,7.5-3.358,7.5-7.5c0-0.187-0.007-0.373-0.021-0.556c-0.052-46.498-6.645-69.995-12.561-81.725
	c32.03-9.642,48.493-29.398,55.938-41.597c0.304,0.36,0.61,0.72,0.903,1.076c9.671,11.772,28.946,9.214,35.128-4.718
	c9.266-20.881,14.559-48.155,14.522-74.829c-0.03-21.849-3.679-53.448-20.888-79.912
	C473.148,146.677,444.347,131.52,407.615,130.253z M391.152,448.597c-28.912-1.405-58.188-6.05-85.058-17.173
	c-14.626-6.055-28.56-14.077-40.529-24.491c-19.235-16.737-33.008-38.673-39.366-63.405c-0.035-0.138-0.218-0.883-0.277-1.121
	c0.105,0.088,2.434,1.969,3.532,2.779c10.528,7.755,21.765,14.269,33.667,19.545c24.984,11.079,52.912,16.678,83.45,16.678
	c11.437,0,22.871-0.818,34.211-2.278c3.175-0.409,6.347-0.858,9.507-1.369c1.085,1.686,2.768,4.714,4.441,9.362
	c3.546,9.849,7.726,28.429,8.279,61.862C401.992,448.966,394.083,448.747,391.152,448.597z M227.79,254.177
	c9.849-12.736,20.268-24.555,28.72-38.365c13.088-21.386,24.529-46.458,24.942-71.973c0.139-8.511-1.179-16.171-4.083-22.622
	c-1.766-3.921-4.234-7.579-7.319-10.585c3.329-0.283,6.666-0.449,10.007-0.449c16.93,0,33.028,3.713,48.133,11.064
	c9.393,4.572,18.403,10.548,26.988,17.923c8.906,7.651,16.947,16.404,23.619,26.075c0.069,0.1,0.14,0.202,0.206,0.298
	c-0.436,0.928-0.865,1.86-1.292,2.792c-12.314,26.83-24.795,62.894-26.182,100.808c-0.089,2.425-0.143,4.854-0.138,7.281
	c0.013,33.631,9.229,63.066,27.518,87.825c-10.72,1.382-21.518,2.157-32.33,2.157c-27.94,0-53.463-5.009-76.275-14.918
	c-18.937-8.226-38.893-18.77-48.533-38.031C212.191,294.318,214.738,271.055,227.79,254.177z M394.166,136.948
	c-1.734,2.864-4.419,7.46-7.623,13.494c-4.777-6.142-11.829-14.204-21.16-22.28c-10.127-8.765-21.01-15.852-32.434-21.176
	c-16.698-7.784-34.552-11.805-52.895-11.805c-2.966,0-6.053,0.108-9.05,0.316c0.41-0.451,0.813-0.911,1.213-1.375
	c0.011-0.013,0.022-0.026,0.033-0.039c3.651-4.315,6.821-8.968,8.893-14.256c2.08-5.31,2.724-10.969,1.846-16.6
	C337.294,66.124,374.649,90.882,394.166,136.948z M395.756,361.399c-0.226,0.041-1.409-1.73-1.54-1.893
	c-10.489-13.174-21.501-32.659-25.926-59.407c8.647-1.093,17.437-1.443,26.133-0.781c26.048,1.983,44.307,12.409,56.067,22.382
	C445.517,331.139,430.614,352.882,395.756,361.399z M483.767,322.958c-1.749,3.941-7.126,4.564-9.827,1.277
	c-13.856-16.862-38.267-36.684-77.598-39.818c-9.662-0.769-19.378-0.487-28.996,0.687c-0.235,0.028-0.467,0.048-0.702,0.077
	c-1.405-25.747,2.832-64.629,26.588-114.622c4.106-8.641,8.541-17.138,13.468-25.341c32.233,0.979,56.387,13.501,71.837,37.26
	C503.676,221.135,500.938,284.261,483.767,322.958z"/>
<g>
</g>
<g>
</g>
<g>
</g>
<g>
</g>
<g>
</g>
<g>
</g>
<g>
</g>
<g>
</g>
<g>
</g>
<g>
</g>
<g>
</g>
<g>
</g>
<g>
</g>
<g>
</g>
<g>
</g>
</svg>
