<?xml version="1.0" encoding="iso-8859-1"?>
<!-- Generator: Adobe Illustrator 19.0.0, SVG Export Plug-In . SVG Version: 6.00 Build 0)  -->
<svg version="1.1" id="Capa_1" xmlns="http://www.w3.org/2000/svg" xmlns:xlink="http://www.w3.org/1999/xlink" x="0px" y="0px"
	 viewBox="0 0 512 512" style="enable-background:new 0 0 512 512;" xml:space="preserve">
<path style="fill:#B6A4FF;" d="M314.824,61.215c-30.786,9.403-41.076,47.808-19.117,71.344
	c-7.249,31.363,20.865,59.477,52.228,52.228c23.536,21.96,61.941,11.669,71.344-19.117l0,0
	c30.786-9.403,41.076-47.808,19.117-71.344c7.25-31.363-20.865-59.477-52.228-52.228C362.632,20.139,324.228,30.43,314.824,61.215
	L314.824,61.215z"/>
<path style="fill:#937FE6;" d="M347.935,184.787c-11.903,2.751-23.332,0.4-32.544-5.28c3.444-5.979,7.724-11.481,12.781-16.318
	c3.357-13.795,10.637-26.293,21.227-36.146c13.748-12.791,31.594-19.835,50.25-19.835c6.878,0,13.765,1.001,20.409,2.939
	c6.645-1.938,13.53-2.939,20.408-2.939c2.148,0,4.284,0.104,6.406,0.289c9.341,22.663-2.073,50.378-27.592,58.173l0,0
	C409.876,196.456,371.472,206.747,347.935,184.787z"/>
<path style="fill:#FD6F71;" d="M420.058,142.364c-28.418-15.12-62.85,4.76-63.965,36.93c-27.303,17.051-27.303,56.81,0,73.861
	c1.115,32.171,35.548,52.05,63.965,36.93l0,0c28.418,15.12,62.851-4.76,63.965-36.93c27.303-17.051,27.303-56.81,0-73.861
	C482.908,147.124,448.476,127.245,420.058,142.364L420.058,142.364z"/>
<path style="fill:#E34B4C;" d="M340.978,214.043c11.369-6.899,24.412-10.595,37.884-10.595c27.459,0,51.861,14.81,64.583,38.058
	c14.483,7.937,25.807,20.504,32.24,35.852c-12.139,16.511-35.401,23.489-55.627,12.728l0,0c-28.418,15.12-62.85-4.76-63.965-36.931
	c-14.327-8.947-21.123-24.146-20.414-39.036c1.209-0.06,2.422-0.096,3.641-0.096C339.871,214.024,340.424,214.03,340.978,214.043z"
	/>
<path style="fill:#FADC60;" d="M420.65,264.292c-9.403-30.786-47.808-41.076-71.344-19.117
	c-31.363-7.25-59.477,20.865-52.228,52.228c-21.96,23.536-11.669,61.941,19.117,71.344l0,0
	c9.403,30.786,47.808,41.076,71.344,19.117c31.363,7.25,59.477-20.865,52.228-52.228C461.727,312.1,451.436,273.697,420.65,264.292
	L420.65,264.292z"/>
<path style="fill:#B6A4FF;" d="M197.177,61.215c30.786,9.403,41.076,47.808,19.117,71.344c7.249,31.363-20.865,59.477-52.228,52.228
	c-23.536,21.96-61.941,11.669-71.344-19.117l0,0c-30.786-9.403-41.076-47.808-19.117-71.344
	c-7.25-31.363,20.865-59.477,52.228-52.228C149.369,20.139,187.773,30.43,197.177,61.215L197.177,61.215z"/>
<path style="fill:#937FE6;" d="M164.066,184.787c11.903,2.751,23.332,0.4,32.544-5.28c-3.444-5.979-7.724-11.481-12.781-16.318
	c-3.357-13.795-10.637-26.293-21.227-36.146c-13.748-12.791-31.594-19.835-50.25-19.835c-6.878,0-13.765,1.001-20.409,2.939
	c-6.645-1.938-13.53-2.939-20.408-2.939c-2.148,0-4.284,0.104-6.406,0.289c-9.341,22.663,2.073,50.378,27.592,58.173l0,0
	C102.125,196.456,140.529,206.747,164.066,184.787z"/>
<path style="fill:#FD6F71;" d="M91.943,142.364c28.418-15.12,62.85,4.76,63.965,36.93c27.303,17.051,27.303,56.81,0,73.861
	c-1.115,32.171-35.548,52.05-63.965,36.93l0,0c-28.418,15.12-62.851-4.76-63.965-36.93c-27.303-17.051-27.303-56.81,0-73.861
	C29.093,147.124,63.525,127.245,91.943,142.364L91.943,142.364z"/>
<path style="fill:#E34B4C;" d="M171.023,214.043c-11.369-6.899-24.412-10.595-37.884-10.595c-27.459,0-51.861,14.81-64.583,38.058
	c-14.483,7.937-25.807,20.504-32.24,35.852c12.139,16.511,35.401,23.489,55.627,12.728l0,0c28.418,15.12,62.85-4.76,63.965-36.931
	c14.327-8.947,21.123-24.146,20.414-39.036c-1.209-0.06-2.422-0.096-3.641-0.096C172.129,214.024,171.577,214.031,171.023,214.043z"
	/>
<path style="fill:#FADC60;" d="M91.351,264.292c9.403-30.786,47.808-41.076,71.344-19.117c31.363-7.25,59.477,20.865,52.228,52.228
	c21.96,23.536,11.669,61.941-19.117,71.344l0,0c-9.403,30.786-47.808,41.076-71.344,19.117
	c-31.363,7.25-59.477-20.865-52.228-52.228C50.274,312.1,60.565,273.697,91.351,264.292L91.351,264.292z"/>
<g>
	<path style="fill:#F2C42C;" d="M202.955,305.311c-19.265,4.701-35.877,17.009-46.065,34.655s-12.54,38.187-6.979,57.221
		c-0.208,0.713-0.383,1.431-0.569,2.147c19.688,2.129,39.976-9.349,46.463-30.587l0,0c30.786-9.403,41.076-47.808,19.117-71.344
		c0.192-0.832,0.347-1.66,0.49-2.487C210.918,297.895,206.731,301.362,202.955,305.311z"/>
	<path style="fill:#F2C42C;" d="M309.045,305.311c19.265,4.701,35.877,17.009,46.065,34.655
		c10.188,17.646,12.54,38.187,6.979,57.221c0.208,0.713,0.383,1.431,0.569,2.147c-19.688,2.129-39.976-9.349-46.463-30.587l0,0
		c-30.786-9.403-41.076-47.808-19.117-71.344c-0.192-0.832-0.347-1.66-0.49-2.487C301.082,297.895,305.27,301.362,309.045,305.311z"
		/>
</g>
<path style="fill:#FF98C5;" d="M329.861,397.188c15.12-28.418-4.76-62.85-36.93-63.965c-17.051-27.303-56.81-27.303-73.861,0
	c-32.171,1.115-52.05,35.548-36.93,63.965l0,0c-15.12,28.418,4.76,62.851,36.93,63.965c17.051,27.303,56.81,27.303,73.861,0
	C325.102,460.038,344.981,425.605,329.861,397.188L329.861,397.188z"/>
<path d="M211.939,383.572c-4.142,0-7.5,3.358-7.5,7.5v7.974c0,4.142,3.358,7.5,7.5,7.5s7.5-3.358,7.5-7.5v-7.974
	C219.439,386.929,216.082,383.572,211.939,383.572z"/>
<path d="M300.062,383.572c-4.142,0-7.5,3.358-7.5,7.5v7.974c0,4.142,3.358,7.5,7.5,7.5s7.5-3.358,7.5-7.5v-7.974
	C307.562,386.929,304.204,383.572,300.062,383.572z"/>
<path d="M271.811,392.844c-3.118-2.726-7.857-2.409-10.583,0.711c-1.249,1.428-3.154,2.247-5.228,2.247s-3.98-0.819-5.229-2.247
	c-2.727-3.118-7.464-3.437-10.583-0.711s-3.437,7.464-0.71,10.583c4.097,4.687,10.119,7.375,16.521,7.375s12.424-2.688,16.521-7.375
	C275.248,400.309,274.93,395.57,271.811,392.844z"/>
<path d="M491.238,175.131c-2.207-20.148-15.891-36.557-34.351-42.757c2.358-14.224-1.373-28.849-10.445-40.2
	c2.15-14.022-1.57-28.177-10.462-39.359c-9.789-12.309-24.304-19.369-39.824-19.369c-2.604,0-5.226,0.203-7.833,0.605
	c-9.03-7.236-20.149-11.181-31.709-11.181c-21.361,0-40.058,12.889-47.679,32.455c-15.109,5.887-26.445,18.472-30.692,34.321
	c-4.247,15.849-0.722,32.415,9.42,45.069c-2.149,14.021,1.571,28.173,10.461,39.354c8.863,11.146,21.605,17.967,35.456,19.162
	c-2.387,4.732-4.054,9.848-4.867,15.201c-1.496,9.85-0.111,19.742,3.806,28.567c-12.905,1.745-24.684,8.403-33.026,18.893
	c-8.89,11.179-12.61,25.331-10.462,39.352c-3.921,4.876-6.848,10.316-8.723,16.138c-7.325-3.964-15.627-6.137-24.308-6.137
	c-8.682,0-16.984,2.172-24.309,6.137c-1.875-5.822-4.802-11.262-8.723-16.138c2.147-14.02-1.573-28.171-10.463-39.351
	c-8.342-10.49-20.121-17.149-33.024-18.894c3.917-8.825,5.303-18.716,3.807-28.566c-0.813-5.353-2.48-10.469-4.867-15.201
	c13.85-1.193,26.592-8.013,35.454-19.157c8.892-11.181,12.613-25.336,10.463-39.36c10.142-12.653,13.667-29.22,9.42-45.068
	c-4.247-15.849-15.582-28.434-30.692-34.321c-7.621-19.565-26.318-32.455-47.679-32.455c-11.56,0-22.679,3.944-31.709,11.181
	c-2.607-0.402-5.229-0.605-7.833-0.605c-15.521,0-30.037,7.059-39.825,19.368c-8.891,11.181-12.611,25.337-10.461,39.36
	c-9.072,11.351-12.803,25.976-10.445,40.2c-18.461,6.2-32.145,22.609-34.351,42.757C7.693,184.728,0,199.818,0,216.225
	c0,16.409,7.694,31.5,20.767,41.097c2.13,19.092,14.855,35.306,32.689,42.076c-1.804,13.728,2.008,27.509,10.733,38.394
	c-2.149,14.021,1.571,28.174,10.462,39.355c9.788,12.309,24.304,19.369,39.824,19.369c2.604,0,5.226-0.203,7.833-0.605
	c9.026,7.233,20.142,11.176,31.699,11.177c0.002,0,0.002,0,0.004,0c5.908,0,11.809-1.05,17.369-3.034
	c-3.635,13.039-1.967,27.044,4.996,39.104c8.204,14.21,22.411,23.432,38.53,25.207c9.597,13.071,24.687,20.764,41.095,20.764
	s31.498-7.693,41.095-20.764c16.119-1.776,30.326-10.997,38.53-25.207c6.963-12.06,8.631-26.065,4.996-39.105
	c5.562,1.985,11.463,3.034,17.373,3.034c11.556,0,22.672-3.944,31.699-11.177c2.606,0.402,5.228,0.605,7.833,0.605
	c0.001,0,0.003,0,0.005,0c15.518,0,30.031-7.058,39.818-19.364c8.892-11.181,12.613-25.336,10.463-39.359
	c8.725-10.885,12.536-24.665,10.733-38.394c17.833-6.77,30.559-22.984,32.689-42.076C504.306,247.725,512,232.635,512,216.225
	C512,199.818,504.308,184.728,491.238,175.131z M309.864,164.733c-6.842-8.604-9.339-19.716-6.85-30.485
	c0.562-2.43-0.122-4.981-1.823-6.805c-8.537-9.149-11.699-21.828-8.46-33.915c3.239-12.086,12.317-21.485,24.284-25.14
	c2.386-0.729,4.253-2.596,4.982-4.982c4.665-15.273,18.576-25.535,34.616-25.535c6.4,0,15.836,1.685,24.439,9.711
	c1.824,1.702,4.374,2.385,6.805,1.824c2.753-0.637,5.545-0.959,8.298-0.959c10.921,0,21.157,4.996,28.083,13.705
	c6.842,8.605,9.339,19.717,6.85,30.486c-0.562,2.43,0.122,4.981,1.823,6.805c7.791,8.351,11.069,19.352,9.249,30.306
	c-0.077,0.146-2.989-0.007-3.17-0.002c-6.453,0.175-12.983,1.656-18.933,4.283c-7.916-3.496-16.678-4.9-25.291-4.094
	c-22.491,2.104-40.669,18.608-45.143,40.441c-0.32,1.559-0.569,3.146-0.746,4.755c-0.636,0.467-2.614,2.35-3.084,2.45
	c-2.606,0.569-5.243,0.857-7.845,0.857C327.027,178.438,316.791,173.443,309.864,164.733z M79.088,99.442
	c1.702-1.824,2.385-4.375,1.823-6.805c-2.489-10.771,0.007-21.882,6.849-30.486c6.926-8.709,17.162-13.704,28.084-13.704
	c2.752,0,5.544,0.323,8.298,0.959c2.431,0.562,4.982-0.122,6.805-1.824c6.81-6.354,15.261-9.711,24.439-9.711
	c16.04,0,29.951,10.262,34.616,25.535c0.729,2.386,2.596,4.253,4.982,4.982c11.967,3.655,21.045,13.054,24.284,25.14
	c3.239,12.087,0.076,24.766-8.46,33.915c-1.702,1.824-2.385,4.375-1.823,6.805c2.49,10.771-0.007,21.884-6.851,30.489
	c-6.925,8.708-17.159,13.702-28.082,13.701c-2.604,0-5.241-0.289-7.847-0.858c-0.424-0.093-2.43-1.97-3.083-2.45
	c-0.177-1.61-0.426-3.196-0.746-4.755c-4.474-21.833-22.652-38.337-45.143-40.441c-3.527-0.329-7.077-0.295-10.596,0.104
	c-5.049,0.573-9.965,1.901-14.695,3.99c-6.41-2.831-13.4-4.321-20.409-4.321c-0.568,0-1.131,0.021-1.694,0.04
	C68.019,118.794,71.298,107.793,79.088,99.442z M35.473,252.896c-0.086-2.493-1.407-4.78-3.523-6.102
	C21.336,240.166,15,228.738,15,216.225c0-12.514,6.336-23.941,16.95-30.569c2.116-1.321,3.437-3.608,3.523-6.102
	c0.671-19.369,15.077-31.808,30.292-34.353c7.759-1.279,15.721,0.095,22.656,3.783c2.178,1.158,4.869,1.158,7.045,0
	c5.334-2.838,11.015-4.277,16.886-4.277c17.132,0,35.305,13.034,36.061,34.846c0.084,2.448,1.433,4.815,3.523,6.102
	c0.016,0.01,0.031,0.021,0.047,0.031c8.851,5.547,14.905,14.662,16.475,24.999c1.35,8.885-0.578,17.806-5.324,25.126
	c-0.016-0.012-0.032-0.022-0.048-0.034c-8.633-6.328-19.236-9.831-29.946-9.831c-21.304,0-39.955,12.82-47.614,32.299
	c-0.021,0.052-0.044,0.104-0.064,0.156c-12.206,4.716-22.211,14.176-27.69,26.052c-0.057,0.123-0.113,0.245-0.168,0.368
	c-0.011,0.025-0.025,0.05-0.036,0.076C44.762,279.501,35.966,267.115,35.473,252.896z M154.007,392.089
	c-6.398,0-15.831-1.685-24.43-9.708c-4.211-3.929-10.151-0.864-15.103-0.864c-10.921,0-21.157-4.995-28.083-13.705
	c-6.843-8.604-9.339-19.716-6.85-30.486c0.562-2.43-0.122-4.981-1.823-6.805c-8.537-9.149-11.7-21.827-8.461-33.914
	c0.034-0.125,0.077-0.246,0.117-0.384c3.119-11.15,11.252-19.98,21.981-24.014c3.144-1.182,6.076-2.148,7.169-5.726
	c4.665-15.273,18.576-25.535,34.616-25.535c7.386,0,14.776,2.355,20.796,6.719c2.764,2.004,4.904,4.936,8.617,5.008
	c1.658,0.032,8.377-1.151,10.129-1.151c10.921,0,21.157,4.996,28.083,13.705c6.842,8.605,9.339,19.717,6.85,30.485
	c-0.562,2.431,0.122,4.982,1.823,6.806c5.002,5.361,8.168,11.838,9.264,18.889c-1.349,1.452-2.616,2.987-3.797,4.596
	c-13.079,1.425-24.821,7.686-33.239,17.68c-10.105,11.997-14.323,28.316-11.018,43.675c0.046,0.218,0.082,0.437,0.131,0.654
	C165.623,390.663,159.823,392.089,154.007,392.089z M322.635,435.658c-6.257,10.837-17.458,17.565-29.964,17.998
	c-2.493,0.086-4.78,1.407-6.102,3.523c-6.628,10.614-18.056,16.95-30.569,16.95s-23.941-6.337-30.569-16.95
	c-1.321-2.116-3.608-3.437-6.102-3.523c-12.506-0.433-23.707-7.162-29.964-17.998c-6.256-10.837-6.483-23.902-0.605-34.949
	c1.172-2.202,1.172-4.843,0-7.045c-5.012-9.42-5.599-20.774-1.515-30.64c4.421-10.678,13.841-18.779,25.114-21.388
	c0.045-0.01,0.089-0.022,0.134-0.033c4.444-1.014,10.072,0.18,12.937-4.409c6.55-10.488,18.205-16.95,30.569-16.95
	c10.164,0,19.612,4.181,26.354,11.44c0.014,0.015,0.027,0.032,0.042,0.047c1.559,1.666,2.965,3.529,4.173,5.463
	c2.787,4.463,8.494,3.394,12.937,4.409c0.045,0.01,0.089,0.022,0.134,0.033c19.87,4.548,32.285,25.983,26.301,45.49
	c-1.337,4.36-5.177,8.931-2.701,13.584C329.118,411.757,328.891,424.822,322.635,435.658z M434.283,330.52
	c-1.702,1.824-2.385,4.375-1.823,6.805c2.49,10.772-0.007,21.885-6.851,30.49c-6.925,8.708-17.159,13.701-28.082,13.701
	c-2.755,0-5.547-0.323-8.299-0.959c-2.432-0.562-4.982,0.122-6.806,1.823c-8.6,8.024-18.031,9.708-24.429,9.708
	c-5.814,0-11.616-1.425-16.773-4.073c0.052-0.23,0.09-0.463,0.139-0.693c2.295-10.704,1.075-21.893-3.633-32.017
	c-7.49-16.108-22.945-27.372-40.632-29.299c-1.181-1.609-2.448-3.144-3.796-4.596c1.095-7.051,4.262-13.528,9.264-18.889
	c1.702-1.824,2.385-4.375,1.823-6.806c-2.489-10.77,0.007-21.882,6.849-30.486c6.926-8.709,17.162-13.704,28.084-13.704
	c4.868,0,11.023,2.941,15.104-0.864c6.575-6.132,15.436-9.712,24.439-9.712c16.04,0,29.951,10.262,34.616,25.536
	c0.729,2.386,2.596,4.253,4.982,4.982c11.645,3.559,20.927,12.998,24.167,24.757c0.003,0.01,0.007,0.018,0.01,0.027
	C445.989,308.292,442.817,321.373,434.283,330.52z M480.05,246.794c-2.116,1.321-3.437,3.608-3.523,6.102
	c-0.493,14.218-9.29,26.605-22.094,32.002c-0.01-0.022-0.021-0.043-0.031-0.066c-2.022-4.479-4.697-8.669-7.916-12.382
	c-4.78-5.514-10.777-9.969-17.423-12.979c-0.831-0.377-1.673-0.738-2.523-1.069c-0.024-0.063-0.052-0.123-0.076-0.186
	c-7.667-19.461-26.309-32.269-47.603-32.269c-4.852,0-9.711,0.714-14.363,2.092c-4.937,1.466-9.645,3.688-13.916,6.566
	c-0.58,0.391-1.154,0.793-1.719,1.208c-4.742-7.323-6.67-16.245-5.321-25.13c1.18-7.764,4.711-14.65,10.143-20.001
	c0.021-0.02,0.045-0.037,0.066-0.057c1.958-1.913,4.116-3.506,6.389-5.018c2.027-1.348,3.362-3.602,3.446-6.053
	c0.756-21.812,18.928-34.846,36.061-34.846c5.871,0,11.552,1.439,16.886,4.277c2.17,1.154,4.879,1.153,7.046,0
	c6.923-3.683,14.91-5.06,22.655-3.783c15.215,2.545,29.621,14.983,30.292,34.353c0.086,2.493,1.407,4.78,3.523,6.102
	c10.614,6.628,16.95,18.056,16.95,30.569C497,228.738,490.664,240.166,480.05,246.794z"/>
<g>
</g>
<g>
</g>
<g>
</g>
<g>
</g>
<g>
</g>
<g>
</g>
<g>
</g>
<g>
</g>
<g>
</g>
<g>
</g>
<g>
</g>
<g>
</g>
<g>
</g>
<g>
</g>
<g>
</g>
</svg>
