<?xml version="1.0" encoding="iso-8859-1"?>
<!-- Generator: Adobe Illustrator 19.0.0, SVG Export Plug-In . SVG Version: 6.00 Build 0)  -->
<svg version="1.1" id="Capa_1" xmlns="http://www.w3.org/2000/svg" xmlns:xlink="http://www.w3.org/1999/xlink" x="0px" y="0px"
	 viewBox="0 0 512 512" style="enable-background:new 0 0 512 512;" xml:space="preserve">
<polygon style="fill:#FADC60;" points="149.151,153.627 198.671,166.311 362.85,153.627 393.108,236.999 414.919,248.461 
	425.842,303.018 412.498,406.52 383.156,492.931 299.3,504.5 232.778,488.702 212.701,504.5 128.845,492.931 91.95,410.492 
	86.159,303.018 97.082,248.461 "/>
<path style="fill:#7CB777;" d="M411.502,76.649c-15.277-4.415-39.319-7.314-62.984,6.387c0,0,10.374-27.257,22.972-45.725
	c3.846-5.637-0.755-13.198-7.537-12.44c-21.246,2.373-55.091,10.911-74.715,40.347c0,0-14.22-36.775-26.691-54.333
	c-3.205-4.512-9.888-4.512-13.093,0c-12.471,17.558-26.691,54.333-26.691,54.333c-19.624-29.436-53.469-37.973-74.715-40.347
	c-6.782-0.758-11.382,6.803-7.537,12.44c12.598,18.468,22.972,45.725,22.972,45.725c-23.665-13.701-47.707-10.801-62.984-6.387
	c-6.45,1.864-7.846,10.453-2.313,14.254c30.44,20.915,53.528,59.978,53.528,59.978L256,185.148l104.287-34.266
	c0,0,23.088-39.064,53.528-59.978C419.348,87.102,417.952,78.513,411.502,76.649z"/>
<path style="fill:#35925D;" d="M130.034,120.883c13.306,15.836,21.679,30,21.679,30L256,185.148l104.287-34.266
	c0,0,8.373-14.164,21.679-30H130.034V120.883z"/>
<g>
	<path style="fill:#F2C42C;" d="M89.104,395.096c3.358,3.771,6.828,7.576,10.398,11.425c-2.499,1.339-5.009,2.667-7.553,3.972
		C90.89,405.405,89.941,400.261,89.104,395.096z"/>
	<path style="fill:#F2C42C;" d="M412.498,406.52c3.57-3.849,7.04-7.654,10.398-11.425c-0.837,5.166-1.785,10.309-2.845,15.397
		C417.508,409.187,414.997,407.859,412.498,406.52z"/>
	<path style="fill:#F2C42C;" d="M248.191,150.882c-15.385,19.982-34.397,42.363-57.257,65.435
		c-20.763-27.39-34.486-49.86-41.783-62.691c0.848-0.926,1.707-1.841,2.566-2.745L248.191,150.882L248.191,150.882z"/>
	<path style="fill:#F2C42C;" d="M118.893,279.611c-10.421,7.933-21.332,15.765-32.734,23.407
		c2.042-19.022,5.757-37.309,10.923-54.557c3.381,5.132,6.85,10.186,10.342,15.196C111.173,269.034,115,274.356,118.893,279.611z"/>
	<path style="fill:#F2C42C;" d="M383.156,492.931c-9.985,7.364-22.247,11.57-35.211,11.57H299.3
		c14.939-10.298,29.008-20.886,42.207-31.596C355.062,480.078,368.93,486.761,383.156,492.931z"/>
	<path style="fill:#F2C42C;" d="M256,418.213c-27.134,20.629-55.528,38.859-85.506,54.691
		c-27.256-22.113-50.853-44.739-70.991-66.384c30.492-16.289,58.15-34.196,83.108-52.783c9.394,9.483,19.056,18.699,28.963,27.636
		C226.022,394.404,240.816,406.688,256,418.213z"/>
	<path style="fill:#F2C42C;" d="M393.108,279.611c-19.435,26.185-40.778,50.954-63.717,74.126
		c-27.758-20.651-52.17-42.14-73.39-63.159c26.587-26.341,48.164-51.935,65.067-74.26
		C341.842,237.281,365.807,258.814,393.108,279.611z"/>
	<path style="fill:#F2C42C;" d="M212.701,504.5h-48.644c-12.964,0-25.226-4.206-35.211-11.57
		c14.225-6.17,28.093-12.853,41.649-20.027C183.693,483.615,197.761,494.202,212.701,504.5z"/>
	<path style="fill:#F2C42C;" d="M412.498,406.52c-20.138,21.644-43.735,44.271-70.991,66.384
		c-29.979-15.832-58.373-34.062-85.506-54.691c15.185-11.525,29.979-23.809,44.427-36.84c9.907-8.937,19.569-18.152,28.963-27.636
		C354.348,372.324,382.006,390.231,412.498,406.52z"/>
	<path style="fill:#F2C42C;" d="M425.842,303.018c-11.402-7.642-22.314-15.475-32.734-23.407
		c3.894-5.255,7.721-10.577,11.469-15.954c3.492-5.009,6.962-10.064,10.342-15.196C420.085,265.709,423.8,283.995,425.842,303.018z"
		/>
	<path style="fill:#F2C42C;" d="M362.85,153.627c-7.297,12.83-21.02,35.3-41.783,62.691c-22.86-23.072-41.872-45.453-57.257-65.435
		h96.474C361.143,151.786,362.002,152.701,362.85,153.627z"/>
	<path style="fill:#F2C42C;" d="M256,290.578c-21.22,21.02-45.632,42.508-73.39,63.159c-22.939-23.173-44.282-47.941-63.717-74.126
		c27.301-20.796,51.266-42.329,72.04-63.293C207.836,238.643,229.414,264.237,256,290.578z"/>
</g>
<g>
	<path style="fill:#FADC60;" d="M190.933,216.318c-20.774,20.964-44.739,42.497-72.04,63.293
		c-3.894-5.255-7.721-10.577-11.469-15.954c-3.492-5.009-6.962-10.064-10.342-15.196c11.213-37.42,29.276-70.01,52.069-94.834
		C156.447,166.458,170.17,188.928,190.933,216.318z"/>
	<path style="fill:#FADC60;" d="M420.051,410.492c-4.173,20.149-9.963,39.551-17.159,57.112c-4.217,10.32-11.135,19-19.737,25.326
		c-14.225-6.17-28.093-12.853-41.649-20.027c27.256-22.113,50.853-44.739,70.991-66.384
		C414.997,407.859,417.508,409.187,420.051,410.492z"/>
	<path style="fill:#FADC60;" d="M414.919,248.461c-3.381,5.132-6.85,10.186-10.342,15.196c-3.749,5.378-7.576,10.699-11.469,15.954
		c-27.301-20.796-51.266-42.329-72.04-63.293c20.763-27.39,34.486-49.86,41.783-62.691
		C385.644,178.451,403.707,211.04,414.919,248.461z"/>
	<path style="fill:#FADC60;" d="M170.494,472.904c-13.556,7.174-27.424,13.857-41.649,20.027
		c-8.602-6.326-15.519-15.006-19.737-25.326c-7.196-17.561-12.987-36.963-17.159-57.112c2.544-1.305,5.054-2.633,7.553-3.972
		C119.641,428.165,143.238,450.791,170.494,472.904z"/>
	<path style="fill:#FADC60;" d="M329.391,353.737c-9.394,9.483-19.056,18.699-28.963,27.636
		c-14.448,13.031-29.242,25.315-44.427,36.84c-15.185-11.525-29.979-23.809-44.427-36.84c-9.907-8.937-19.569-18.152-28.963-27.636
		c27.758-20.651,52.17-42.14,73.39-63.159C277.221,311.598,301.632,333.086,329.391,353.737z"/>
	<path style="fill:#FADC60;" d="M341.507,472.904c-13.199,10.711-27.267,21.299-42.207,31.596h-86.6
		c-14.939-10.298-29.008-20.886-42.207-31.596c29.979-15.832,58.373-34.062,85.506-54.691
		C283.134,438.842,311.528,457.072,341.507,472.904z"/>
	<path style="fill:#FADC60;" d="M427.672,337.459c0,19.023-1.651,38.536-4.775,57.637c-3.358,3.771-6.828,7.576-10.398,11.425
		c-30.492-16.289-58.15-34.196-83.108-52.783c22.939-23.173,44.282-47.941,63.717-74.126c10.421,7.933,21.332,15.765,32.734,23.407
		C427.047,314.264,427.672,325.756,427.672,337.459z"/>
	<path style="fill:#FADC60;" d="M321.067,216.318c-16.903,22.325-38.48,47.919-65.067,74.26
		c-26.587-26.341-48.164-51.935-65.067-74.26c22.86-23.072,41.872-45.453,57.257-65.435h15.62
		C279.196,170.865,298.207,193.245,321.067,216.318z"/>
	<path style="fill:#FADC60;" d="M182.61,353.737c-24.958,18.587-52.616,36.494-83.108,52.783c-3.57-3.849-7.04-7.654-10.398-11.425
		c-3.124-19.101-4.775-38.614-4.775-57.637c0-11.704,0.625-23.195,1.83-34.441c11.402-7.642,22.314-15.475,32.734-23.407
		C138.329,305.796,159.672,330.564,182.61,353.737z"/>
</g>
<path d="M105.568,247.496c-0.052-0.078-0.102-0.153-0.154-0.23c4.566-14.568,10.258-28.509,16.939-41.484
	c1.896-3.683,0.448-8.205-3.234-10.102c-3.683-1.896-8.205-0.449-10.102,3.234c-7.613,14.783-14.006,30.729-18.999,47.396
	c-21.679,72.36-16.245,154.352,12.27,224.13c10.171,24.888,35.016,41.56,61.891,41.56c0,0,183.779,0,183.888,0
	c26.869,0,51.728-16.691,61.888-41.552c7.327-17.879,13.235-37.536,17.563-58.437c10.459-50.501,10.786-103.487-1.948-153.611
	c-9.982-39.295-28.293-77.862-55.759-108.367c6.991-10.718,25.728-37.389,48.373-52.948c4.973-3.417,7.461-9.251,6.495-15.228
	c-0.967-5.981-5.172-10.737-10.973-12.414c-9.092-2.627-18.237-3.959-27.183-3.959c-8.189,0-16.093,1.116-23.652,3.331
	c3.972-8.582,9.243-18.931,14.938-27.278c3.235-4.742,3.578-10.843,0.895-15.921c-2.704-5.119-7.949-8.298-13.688-8.298
	c-0.587,0-1.183,0.033-1.771,0.099c-18.161,2.028-49.699,9.057-71.808,33.061c-5.357-12.604-14.269-32.135-22.652-43.938
	C265.875,2.445,261.142,0,256.123,0c-5.019,0-9.752,2.445-12.661,6.541c-8.383,11.802-17.295,31.334-22.652,43.938
	c-22.108-24.004-53.647-31.033-71.807-33.061c-0.589-0.066-1.185-0.099-1.772-0.099c-5.739,0-10.984,3.18-13.688,8.298
	c-2.683,5.079-2.34,11.179,0.895,15.921c5.685,8.334,10.959,18.688,14.934,27.277c-7.557-2.214-15.462-3.33-23.649-3.33
	c-8.946,0-18.091,1.332-27.183,3.959c-5.801,1.676-10.005,6.433-10.973,12.413c-0.966,5.977,1.522,11.812,6.495,15.228
	c22.637,15.553,41.369,42.212,48.365,52.936c-5.913,6.573-11.618,13.793-16.97,21.505c-2.362,3.403-1.517,8.076,1.885,10.438
	c3.403,2.361,8.076,1.517,10.438-1.885c3.307-4.766,6.752-9.328,10.297-13.638c0.524,0.874,1.067,1.771,1.622,2.684
	c4.988,8.199,10.206,16.257,15.604,24.192c1.238,1.819,16.107,22.008,15.833,22.278c-18.61,18.373-38.202,35.766-58.768,51.924
	c-0.614,0.482-1.232,0.954-1.847,1.433C120.255,268.583,107.633,250.581,105.568,247.496z M108.581,278.059
	c0.13,0.211-10.042,7.336-11.142,8.12c-0.483,0.344-0.969,0.68-1.453,1.022c1.158-7.08,2.563-14.083,4.208-20.979
	c0.392,0.564,0.791,1.138,1.199,1.723C103.445,270.883,108.257,277.61,108.581,278.059z M134.846,276.773
	c18.806-14.961,36.824-30.898,54.001-47.702c0.483-0.473,0.974-0.938,1.456-1.413c0.437,0.563,0.887,1.119,1.326,1.68
	c12.847,16.432,26.425,32.257,40.679,47.483c1.051,1.122,13.083,13.736,13.141,13.68c-6.138,5.973-12.402,11.819-18.779,17.536
	c-13.147,11.787-26.714,23.106-40.724,33.853c-0.817,0.627-1.64,1.241-2.459,1.864c-0.746-0.768-1.498-1.532-2.24-2.303
	c-17.8-18.493-34.569-37.963-50.178-58.341c-0.533-0.697-1.055-1.398-1.586-2.096C131.279,279.614,133.063,278.192,134.846,276.773z
	 M183.635,193.464c-7.396-10.492-14.467-21.213-21.147-32.176c-0.602-0.99-1.19-1.963-1.754-2.906h72.09
	c-10.063,12.472-20.552,24.595-31.456,36.34c-0.96,1.034-9.736,9.83-9.553,10.077C189.05,201.049,186.32,197.273,183.635,193.464z
	 M410.851,267.945c0.401-0.574,0.801-1.148,1.2-1.722c1.646,6.896,3.051,13.899,4.209,20.979
	c-3.025-2.141-12.609-9.124-12.595-9.143C403.985,277.615,408.798,270.889,410.851,267.945z M396.819,412.24
	c-15.796,16.233-32.359,31.681-49.642,46.321c-0.592,0.5-6.034,5.58-6.446,5.357c-0.111-0.06-0.221-0.118-0.332-0.177
	c-2.717-1.467-5.426-2.962-8.129-4.477c-21.829-12.236-42.869-25.867-63.061-40.646c-0.227-0.167-0.453-0.334-0.68-0.501
	c7.311-5.729,14.346-11.777,21.562-17.619c12.687-10.27,24.49-21.587,36.165-32.978c1.336-1.303,2.675-2.604,4-3.918
	c0.081,0.059,0.164,0.117,0.245,0.176c2.46,1.794,4.936,3.567,7.42,5.327c19.894,14.086,40.537,27.11,61.847,38.946
	c0.234,0.13,0.466,0.265,0.7,0.395c-0.295,0.309-0.585,0.623-0.881,0.931C398.667,410.335,397.745,411.289,396.819,412.24z
	 M320.873,479.679c-7.812,5.939-15.743,11.725-23.804,17.321h-81.892c-10.39-7.208-20.554-14.739-30.528-22.512
	c-0.162-0.126-0.322-0.254-0.484-0.381c0.136-0.075,0.271-0.154,0.407-0.229c12.592-6.984,24.941-14.401,37.023-22.235
	c11.679-7.572,23.112-15.526,34.269-23.849c0.086-0.064,0.174-0.126,0.26-0.19c0.086,0.064,0.174,0.126,0.26,0.19
	c16.007,11.929,32.571,23.064,49.604,33.472c7.136,4.36,14.371,8.562,21.687,12.613c0.136,0.075,0.271,0.154,0.406,0.229
	c-0.174,0.136-0.347,0.274-0.521,0.41C325.341,476.252,323.114,477.975,320.873,479.679z M165.072,458.55
	c-18.285-15.481-35.798-31.872-52.395-49.152c-0.302-0.315-0.598-0.635-0.9-0.95c0.227-0.126,0.453-0.258,0.68-0.384
	c3.071-1.707,6.13-3.437,9.174-5.193c20.713-11.95,40.778-25.005,60.106-39.086c0.084-0.061,0.169-0.121,0.253-0.182
	c0.483,0.479,0.976,0.954,1.462,1.432c17.869,17.599,36.612,34.279,56.235,49.897c0.312,0.248,3.888,3.29,4.031,3.186
	c-0.227,0.167-40.913,28.264-62.19,40.274c-3.21,1.813-6.438,3.594-9.68,5.349c-0.111,0.06-0.221,0.118-0.333,0.178
	C170.913,464.218,165.554,458.958,165.072,458.55z M117.527,290.118c0.544,0.716,1.104,1.425,1.651,2.14
	c16.125,21.044,33.449,41.164,51.858,60.241c0.093,0.097,0.187,0.193,0.28,0.29c-0.553,0.401-1.101,0.81-1.656,1.209
	c-7.416,5.343-14.953,10.526-22.585,15.556c-12.663,8.345-41.369,25.087-42.635,25.789c-1.087,0.602-2.179,1.191-3.269,1.786
	c-1.468-1.591-4.714-5.2-4.889-5.396c-2.875-18.257-4.331-36.504-4.331-54.273c0-10.088,0.482-20.226,1.437-30.188
	c1.484-1.006,2.965-2.029,4.447-3.052C98.061,304.065,117.534,290.127,117.527,290.118z M223.786,330.524
	c11.076-9.477,21.873-19.295,32.337-29.445c0.675,0.655,1.362,1.297,2.04,1.949c15.781,15.177,32.265,29.625,49.399,43.257
	c0.822,0.654,10.306,8.457,10.533,8.234c-0.17,0.168-0.337,0.337-0.508,0.505c-7.205,7.081-14.562,14.01-22.061,20.779
	c-8.125,7.328-16.426,14.459-24.891,21.393c-4.504,3.689-9.848,7.025-13.956,11.134c-0.186,0.144-0.371,0.284-0.557,0.427
	c-0.184-0.143-0.369-0.282-0.553-0.425c-18.942-14.677-37.065-30.41-54.377-46.975c-0.484-0.464-6.864-6.966-7.041-6.838
	C195.766,353.286,215.673,337.467,223.786,330.524z M271.819,285.348c8.123-8.387,16.033-16.981,23.741-25.75
	c8.635-9.847,16.991-19.941,25.057-30.259c0.439-0.562,0.889-1.118,1.326-1.68c0.476,0.468,0.96,0.928,1.437,1.395
	c11.794,11.546,23.983,22.674,36.555,33.367c1.724,1.465,22.732,18.723,22.83,18.594c-0.531,0.699-1.054,1.402-1.588,2.1
	c-14.704,19.19-30.444,37.594-47.096,55.119c-1.761,1.853-3.539,3.688-5.32,5.522c-0.182,0.165-5.598-4.285-5.856-4.485
	c-17.763-13.804-34.824-28.496-51.135-43.988c-1.667-1.583-3.32-3.18-4.971-4.78C268.483,288.795,270.151,287.071,271.819,285.348z
	 M418.857,307.272c0.954,9.961,1.437,20.098,1.437,30.188c0,17.771-1.456,36.017-4.331,54.272c-0.538,0.6-3.335,3.694-4.198,4.64
	c-0.229,0.25-0.461,0.504-0.692,0.756c-22.448-12.258-44.155-25.848-65.011-40.653c-1.718-1.22-3.427-2.45-5.133-3.687
	c0.489-0.506,0.968-1.022,1.456-1.53c11.661-12.145,22.897-24.697,33.653-37.651c6.311-7.6,12.644-15.544,18.681-23.491
	c0.429,0.319,0.863,0.633,1.293,0.951C398.59,292.978,417.378,306.269,418.857,307.272z M406.629,247.571
	c-2.651,3.96-12.604,18.202-14.904,21.381c-0.613-0.478-28.524-23.235-41.226-34.877c-6.584-6.033-13.044-12.196-19.389-18.48
	c1.064-1.431,2.102-2.844,3.127-4.246c7.26-9.931,14.247-20.064,20.908-30.406c3.084-4.789,6.099-9.623,9.029-14.508
	c18.351,22.262,32.977,49.948,42.657,80.834C406.763,247.369,406.697,247.468,406.629,247.571z M351.494,158.412
	c-0.018,0.03-0.037,0.061-0.055,0.091c-9.128,15.254-19.081,29.975-29.56,44.33c-0.476,0.65-0.965,1.31-1.449,1.967
	c-0.286-0.296-0.577-0.587-0.862-0.884c-14.041-14.577-27.438-29.782-40.147-45.533h72.09
	C351.505,158.393,351.5,158.402,351.494,158.412z M260.255,158.382c8.805,11.308,17.905,22.414,27.467,33.093
	c7.704,8.603,15.485,17.157,23.54,25.434c-0.666,0.862-11.833,15.232-17.09,21.241c-12.108,14.438-24.806,28.371-38.048,41.777
	c-12.455-12.609-24.48-25.645-35.897-39.204c-1.683-1.987-19.881-23.156-19.241-23.814c4.018-4.128,7.973-8.315,11.888-12.54
	c13.682-14.765,26.752-30.103,39.118-45.987L260.255,158.382L260.255,158.382z M116.171,464.761
	c-5.708-13.928-10.518-29.022-14.346-44.996c0.149,0.155,1.528,1.567,2.065,2.122c16.76,17.294,34.38,33.821,52.844,49.276
	c0.116,0.098,0.231,0.198,0.347,0.295c-0.021,0.011-0.042,0.022-0.064,0.032c-8.703,4.401-17.518,8.585-26.434,12.536
	c-0.16,0.071-0.321,0.141-0.481,0.212C124.021,478.946,119.246,472.285,116.171,464.761z M164.179,497
	c-6.395,0-12.619-1.148-18.455-3.373c0.323-0.15,0.645-0.305,0.967-0.456c7.626-3.554,15.175-7.275,22.649-11.138
	c0.133-0.069,0.268-0.136,0.401-0.205c0.142,0.114,0.289,0.225,0.431,0.338c6.086,4.859,19.042,14.662,19.272,14.833L164.179,497
	L164.179,497z M348.067,497H322.8c0.229-0.17,13.156-9.957,19.272-14.833c0.143-0.114,0.289-0.225,0.431-0.338
	c0.135,0.07,0.27,0.137,0.405,0.207c7.784,4.033,15.662,7.897,23.613,11.591C360.686,495.853,354.462,497,348.067,497z
	 M396.072,464.767c-3.072,7.518-7.847,14.178-13.928,19.472c-0.164-0.073-0.327-0.143-0.491-0.216
	c-8.909-3.955-17.721-8.137-26.422-12.531c-0.022-0.011-0.044-0.022-0.066-0.033c0.116-0.098,0.232-0.198,0.348-0.296
	c13.188-11.086,25.96-22.663,38.296-34.688c5.47-5.332,10.867-10.742,16.163-16.247c0.149-0.155,0.301-0.307,0.45-0.462
	C406.593,435.738,401.782,450.833,396.072,464.767z M102.556,84.722c-0.108-0.075-0.231-0.159-0.182-0.47
	c0.052-0.317,0.206-0.362,0.33-0.398c7.738-2.236,15.483-3.37,23.019-3.37c12.281,0,23.762,3.042,34.125,9.042
	c2.748,1.59,6.199,1.279,8.617-0.778s3.279-5.414,2.15-8.381c-0.437-1.146-10.838-28.303-23.786-47.284
	c-0.084-0.123-0.151-0.221-0.023-0.461c0.128-0.243,0.313-0.322,0.532-0.299c39.833,4.449,59.675,22.605,69.307,37.053
	c1.553,2.33,4.276,3.595,7.06,3.295c2.784-0.306,5.165-2.138,6.176-4.75c0.139-0.359,14.031-36.112,25.811-52.695
	c0.052-0.074,0.161-0.228,0.432-0.228c0.271,0,0.38,0.154,0.432,0.228c11.779,16.583,25.672,52.336,25.811,52.695
	c1.01,2.612,3.392,4.444,6.176,4.75c2.781,0.302,5.506-0.964,7.06-3.295c9.632-14.448,29.475-32.604,69.308-37.053
	c0.215-0.023,0.403,0.056,0.531,0.299c0.127,0.241,0.061,0.338-0.023,0.461c-12.948,18.981-23.349,46.137-23.786,47.284
	c-1.129,2.967-0.268,6.324,2.15,8.381s5.87,2.369,8.617,0.778c10.363-6,21.845-9.042,34.125-9.042c7.536,0,15.281,1.134,23.019,3.37
	c0.124,0.036,0.278,0.081,0.33,0.398c0.05,0.311-0.073,0.395-0.182,0.47c-26.211,18.009-46.773,48.163-53.458,58.66H156.013
	C149.329,132.885,128.767,102.731,102.556,84.722z"/>
<g>
</g>
<g>
</g>
<g>
</g>
<g>
</g>
<g>
</g>
<g>
</g>
<g>
</g>
<g>
</g>
<g>
</g>
<g>
</g>
<g>
</g>
<g>
</g>
<g>
</g>
<g>
</g>
<g>
</g>
</svg>
