<?xml version="1.0" encoding="iso-8859-1"?>
<!-- Generator: Adobe Illustrator 19.0.0, SVG Export Plug-In . SVG Version: 6.00 Build 0)  -->
<svg version="1.1" id="Capa_1" xmlns="http://www.w3.org/2000/svg" xmlns:xlink="http://www.w3.org/1999/xlink" x="0px" y="0px"
	 viewBox="0 0 511.997 511.997" style="enable-background:new 0 0 511.997 511.997;" xml:space="preserve">
<path style="fill:#E0712F;" d="M61.52,374.14c-38.305,103.501,37.054,154.557,77.506,119.198L61.52,374.14z"/>
<path style="fill:#FA9F6A;" d="M83.322,238.677c-73.561,62.005-35.271,187.221,38.72,243.621s112.281-20.179,112.281-20.179
	L83.322,238.677z"/>
<g>
	<path style="fill:#E0712F;" d="M152.206,155.225c-84.494,44.042-119.162,175.985,5.02,300.167
		c58.469,58.469,118.842,21.956,130.308,5.286S152.206,155.225,152.206,155.225z"/>
	<path style="fill:#E0712F;" d="M447.374,157.418c3.365,42.58,9.596,84.864,17.589,126.822
		c11.368,59.671-2.877,115.164-103.1,149.202L399.166,61.94C434.761,95.843,444.484,120.843,447.374,157.418z"/>
</g>
<path style="fill:#FA9F6A;" d="M246.067,92.478c39.939-12.422,65.848-37.294,83.684-71.577c7.954-15.287,28.815-18.072,40.48-5.387
	c26.627,28.957,59.14,89.418,35.361,202.377c-8.595,40.829,1.651,78.863,0.541,119.556c-1.21,44.312-27.546,91.126-67.422,112.519
	c-47.319,25.387-99.829,3.148-137.309-29.48c-65.197-56.755-98.422-150.201-65.957-233.145
	C156.02,134.773,193.434,108.848,246.067,92.478z"/>
<path d="M305.404,376.982c1.916,0.004,3.845-0.699,5.304-2.158l11.115-11.115c2.929-2.929,2.929-7.678,0-10.606
	c-2.929-2.929-7.678-2.929-10.606,0l-11.115,11.115c-2.929,2.929-2.929,7.678,0,10.606
	C301.519,376.241,303.455,376.977,305.404,376.982z"/>
<path d="M182.578,254.193c1.919,0,3.839-0.732,5.303-2.197l11.115-11.115c2.929-2.929,2.929-7.678,0-10.606
	c-2.929-2.929-7.678-2.929-10.606,0l-11.115,11.115c-2.929,2.929-2.929,7.678,0,10.606
	C178.739,253.461,180.658,254.193,182.578,254.193z"/>
<path d="M258.134,330.05c4.833,0.006,9.647-2.484,9.273-8.061c-0.278-4.133-3.843-7.249-7.986-6.981
	c-5.826,0.398-11.681-1.894-16.058-6.272c-4.377-4.376-6.663-10.229-6.271-16.058c0.277-4.133-2.848-7.708-6.981-7.986
	c-4.144-0.269-7.708,2.848-7.986,6.981c-0.681,10.147,3.194,20.232,10.632,27.669C239.458,326.045,248.664,330.038,258.134,330.05z"
	/>
<path d="M61.684,486.608c12.451,16.134,29.99,25.388,48.124,25.389c10.926,0,21.25-3.381,30.147-9.814
	c11.958,5.707,25.194,9.102,38.503,8.186c13.952-0.96,27.011-6.354,38.868-16.035c5.79,0.596,11.622,0.639,17.419,0.108
	c16.376-1.501,29.389-7.137,37.422-11.6c7.716-4.287,14.346-9.394,18.815-14.427c1.366,0.053,2.729,0.085,4.085,0.085
	c16.606,0,32.402-3.981,47.209-11.925c8.351-4.48,16.226-10.051,23.514-16.551c47.868-16.493,79.285-38.691,95.996-67.841
	c13.932-24.303,17.388-53.529,10.564-89.347c-8.65-45.405-14.368-86.624-17.48-126.009c-2.796-35.386-11.826-63.061-49.345-99.187
	c-7.443-17.943-17.399-33.767-29.754-47.202c-7.126-7.75-17.636-11.546-28.124-10.156c-10.494,1.392-19.664,7.806-24.53,17.158
	c-18.306,35.184-43.49,56.751-79.258,67.877c-29.03,9.029-51.876,20.546-69.847,35.208c-10.327,8.426-19.257,18.026-26.92,28.943
	c-30.195,16.256-53.96,43.197-67.032,76.071c-1.159,2.915-2.221,5.864-3.205,8.839c-27.522,24.047-41.541,57.97-40.552,98.273
	c0.482,19.631,4.653,39.901,11.836,59.513C35.591,442.68,51.156,472.966,61.684,486.608z M125.032,493.637
	c-4.758,2.215-9.897,3.36-15.226,3.36c-13.447-0.001-26.658-7.127-36.247-19.553c-7.338-9.51-17.544-28.8-14.583-60.352
	c14.469,28.273,34.731,53.022,58.539,71.17c2.422,1.846,4.903,3.624,7.434,5.319C124.977,493.598,125.005,493.619,125.032,493.637z
	 M248.315,99.638c39.292-12.221,68.114-36.844,88.11-75.277c2.65-5.094,7.46-8.451,13.196-9.212
	c5.724-0.758,11.232,1.223,15.11,5.44c9.633,10.476,19.477,24.551,27.177,43.134c0.085,0.348,0.19,0.694,0.328,1.034
	c14.968,36.915,18.064,82.283,9.204,134.842c-0.688,4.084,2.064,7.954,6.149,8.642c4.029,0.681,7.967-2.114,8.647-6.148
	c2.773-16.45,4.561-33.09,5.002-49.771c0.006-0.221,0.016-0.445,0.021-0.666c0.505-20.187-0.965-40.537-5.251-60.294
	c17.06,22.208,21.925,41.534,23.909,66.646c3.156,39.937,8.945,81.687,17.698,127.635c6.21,32.595,3.4,57.723-8.842,79.08
	c-11.608,20.249-31.754,36.906-61.204,50.506c2.034-2.949,3.988-5.984,5.836-9.124c14.419-24.503,20.816-51.891,20.282-80.208
	c-0.22-11.68-1.136-23.133-2.029-34.301c-1.637-20.482-3.184-39.829-0.729-59.878c0.503-4.111-2.421-7.853-6.533-8.356
	c-4.109-0.506-7.853,2.421-8.356,6.533c-2.64,21.556-0.96,42.572,0.665,62.898c1.014,12.685,2.058,25.747,2.03,38.838
	c-0.054,25.127-7.424,50.341-21.116,71.435c-19.816,30.704-52.454,53.147-90.143,50.078c-30.528-2.486-58.43-18.552-81.132-38.314
	c-31.545-27.462-55.463-64.138-67.35-103.275c-5.908-19.454-8.784-39.019-8.642-58.227c0.161-21.769,4.199-43.08,12.094-63.252
	c4.393-11.222,9.768-21.519,15.977-30.604c0.135-0.197,0.25-0.404,0.364-0.611C177.908,131.17,206.228,112.728,248.315,99.638z
	 M70.028,264.286c-2.879,21.93-1.457,44.886,4.274,68.065c0.823,3.327,1.822,7.009,2.86,10.44c2.802,9.262,17.164,4.927,14.36-4.343
	c-9.482-31.339-10.99-65.503-1.194-96.965c1.094-3.513,2.313-6.985,3.672-10.405c8.134-20.458,20.841-38.352,36.862-52.27
	c-0.042,0.097-0.079,0.197-0.121,0.293c-0.774,1.809-1.531,3.639-2.261,5.503c-8.555,21.856-12.939,44.916-13.132,68.444
	c-0.057,6.92,0.249,13.88,0.918,20.861c1.338,13.964,4.129,28.014,8.377,42.001c11.106,36.571,32.031,71.115,59.627,98.799
	c23.906,23.983,53.401,43.914,86.901,51.144c-9.026,6.238-22.487,12.246-37.796,13.649c-27.114,2.487-52.072-10.663-70.826-29.416
	c-26.99-26.991-47.448-55.49-60.804-84.707c-3.919-8.573-17.734-2.713-13.644,6.235c16.37,35.809,41.505,70.097,71.254,96.001
	c0.1,0.087,0.2,0.179,0.3,0.266c11.817,10.249,24.305,17.62,37.335,22.033c-16.403,8.468-34.543,7.437-54.205-3.067
	c-0.069-0.04-0.132-0.088-0.202-0.126c-9.605-5.139-18.368-11.815-26.449-19.089c-22.7-20.435-41.679-48.271-53.062-78.208
	c-7.14-18.798-11.31-38.292-11.773-57.144C50.821,312.814,54.177,287.191,70.028,264.286z"/>
<g>
</g>
<g>
</g>
<g>
</g>
<g>
</g>
<g>
</g>
<g>
</g>
<g>
</g>
<g>
</g>
<g>
</g>
<g>
</g>
<g>
</g>
<g>
</g>
<g>
</g>
<g>
</g>
<g>
</g>
</svg>
