<?xml version="1.0" encoding="iso-8859-1"?>
<!-- Generator: Adobe Illustrator 19.0.0, SVG Export Plug-In . SVG Version: 6.00 Build 0)  -->
<svg version="1.1" id="Capa_1" xmlns="http://www.w3.org/2000/svg" xmlns:xlink="http://www.w3.org/1999/xlink" x="0px" y="0px"
	 viewBox="0 0 511.999 511.999" style="enable-background:new 0 0 511.999 511.999;" xml:space="preserve">
<path style="fill:#3A484A;" d="M261.349,148.585c2.567-18.179,3.793-30.443,3.793-30.443s85.568-68.454,187.299,0
	s19.966,242.443,37.08,306.143H306.976L261.349,148.585z"/>
<path style="fill:#EFEDEE;" d="M306.976,424.285H182.426c0,0,8.281-95.076,38.838-134.057
	c21.287-27.144,34.209-99.943,40.084-141.644l5.98-6.978c61.514-32.973,135.673,0,141.377,55.448
	C419.906,305.916,306.976,335.864,306.976,424.285z"/>
<path style="fill:#D2D2D2;" d="M221.265,290.228c-30.557,38.981-38.838,134.057-38.838,134.057h30.001
	c0,0,8.925-102.468,41.858-144.48L221.265,290.228z"/>
<path style="fill:#E0712F;" d="M17.928,292.546c29.772,26.721,81.783-14.678,121.081-9.607
	c78.11,10.515,121.697,19.015,134.374-36.129l-14.895-35.495H132.672l-95.711,50.073L17.928,292.546z"/>
<path style="fill:#3A484A;" d="M100.718,141.607c-50.836,29.881-90.92,81.707-93.231,157.179c0,0,33.619-22.542,90.502-38.962
	l34.681-48.507L100.718,141.607z"/>
<path style="fill:#FA9F6A;" d="M273.385,246.807c-69.775-9.288-129.996-0.086-175.396,13.016
	c-18.825-45.921,13.13-61.181,2.729-118.217c53.385-31.394,118.635-38.563,164.423-23.464
	C267.681,182.156,289.862,166.316,273.385,246.807z"/>
<path d="M332.998,216.962c4.273,1.638,7.573,4.89,9.054,8.92c1.407,3.827,5.805,5.856,9.627,4.452
	c3.888-1.429,5.881-5.739,4.452-9.627c-2.975-8.094-9.451-14.565-17.765-17.752c-8.315-3.188-17.456-2.704-25.079,1.326
	c-3.662,1.936-5.061,6.474-3.125,10.137s6.474,5.061,10.136,3.125C324.096,215.535,328.726,215.324,332.998,216.962z"/>
<path d="M88.935,299.352c14.697-4.616,29.894-9.389,43.026-9.389c5.358,0,10.686,0.993,15.981,1.714
	c22.547,3.068,42.363,5.761,59.251,6.336c-24.881,44.409-31.91,121.949-32.226,125.577c-0.36,4.126,2.999,8.153,7.471,8.153
	c0,0,306.407,0,307.092,0c4.878,0,8.512-4.726,7.244-9.447c-5.215-19.414-0.101-52.638,5.314-87.813
	c11.043-71.738,24.787-161.02-32.156-212.249c-3.079-2.771-7.822-2.519-10.593,0.56c-2.771,3.079-2.52,7.821,0.56,10.593
	c22.454,20.201,34.465,49.4,36.717,89.267c2.016,35.686-4.024,74.927-9.354,109.547c-5.127,33.31-9.647,62.677-6.807,84.541H314.792
	c0.01-0.13,0.023-0.26,0.034-0.389c0.819-9.681,3.219-19.2,6.975-28.156c1.589-3.825-0.225-8.214-4.05-9.803
	c-3.825-1.589-8.214,0.224-9.803,4.05c-4.556,10.97-7.354,22.247-8.187,34.107c-0.005,0.064-0.013,0.128-0.017,0.193H190.786
	c2.691-22.787,12.04-87.488,34.258-119.043c13.291-1.076,26.348-4.536,36.813-13.907c0.871-0.78,1.719-1.586,2.533-2.426
	c17.674-18.243,20.666-48.513,22.259-72.581c1.296-19.585-1.597-30.505-5.765-43.728c-1.777-5.636-3.472-11.293-4.715-17.075
	c-0.117-0.544-0.421-2.036-0.458-2.224c0.132-0.062,0.263-0.127,0.395-0.189c9.454-4.394,19.631-7.385,29.976-8.711
	c20.471-2.7,41.942,0.839,59.992,11.035c18.41,10.398,32.974,28.386,35.185,49.883c5.725,55.652-23.333,90.101-51.436,123.417
	c-8.1,9.602-16.476,19.532-23.812,29.746c-2.383,3.317-1.595,8.089,1.716,10.468c3.281,2.356,8.11,1.565,10.468-1.716
	c6.996-9.74,14.816-19.011,23.095-28.825c28.718-34.046,61.269-72.635,54.891-134.625c-2.68-26.056-19.105-48.904-45.061-62.687
	c-22.639-12.021-49.375-15.239-74.425-10.327c-7.95,1.559-15.748,3.938-23.211,7.093c-0.019-0.197-0.639-8.472-0.643-8.538
	c6.49-4.475,23.095-14.807,46.186-21.161c39.844-10.965,79.248-5.523,117.119,16.172c3.595,2.059,8.176,0.814,10.236-2.78
	c2.059-3.594,0.814-8.177-2.78-10.237c-51.824-29.687-98.74-25.905-128.972-17.504c-25.609,7.116-43.753,18.557-50.857,23.534
	c-15.105-4.52-31.856-6.814-49.862-6.814c-40.229,0-81.769,11.4-116.98,32.103C36.565,170.581,2.143,228.617,0.004,298.515
	c-0.183,5.969,6.692,9.788,11.669,6.462c0.078-0.052,2.019-1.332,5.633-3.45c7.354,5.058,16.018,7.538,26.328,7.538
	C58.011,309.065,73.732,304.127,88.935,299.352z M257.924,123.723c0.235,0.089,0.22,3.289,0.249,3.663
	c1.537,20.409,5.159,31.908,8.402,42.194c4.892,15.516,6.16,31.115,4.248,47.236c-0.209,1.768-2.917,21.701-3.432,21.641
	c-0.021-0.002-0.042-0.004-0.063-0.007c-0.498-0.058-0.998-0.107-1.497-0.164c-14.077-1.592-28.233-2.577-42.4-2.738
	c-20.762-0.236-41.492,0.837-62.091,3.486c-17.22,2.207-34.313,5.441-51.146,9.687c-2.521,0.636-5.034,1.289-7.543,1.97
	c-0.026-0.081-0.05-0.161-0.076-0.242c-2.772-8.666-3.75-17.919-2.629-26.959c1.732-13.962,6.906-27.241,9.033-41.148
	c0.014-0.089,0.026-0.18,0.04-0.27c1.853-12.113,1.727-24.467-0.042-36.583c31.955-17.757,69.012-27.493,104.934-27.493
	C229.838,117.997,244.618,119.922,257.924,123.723z M42.242,207.092c13.28-20.819,30.955-38.616,52.637-53.025
	c0.168,1.813,0.299,3.626,0.378,5.446c0.93,21.342-7.332,40.652-10.127,61.471c-1.481,11.033-0.471,22.177,2.773,32.812
	c0.109,0.359,0.214,0.715,0.33,1.077c-33.726,10.408-58.515,22.546-72.344,30.171C18.712,256.291,27.551,230.123,42.242,207.092z
	 M67.195,278.005c34.925-13.379,71.696-21.924,108.913-25.534c22.31-2.164,44.746-2.511,67.116-1.121
	c6.79,0.422,13.766,1.042,20.604,1.81c-0.378,1.128-0.782,2.248-1.222,3.354c-2.966,7.455-7.566,14.269-14.316,18.765
	c-10.075,6.711-22.936,7.852-34.722,7.852c-17.187,0-38.698-2.927-63.604-6.317c-5.978-0.814-11.955-1.851-18.004-1.851
	c-15.432,0-31.745,5.124-47.521,10.079c-14.774,4.64-28.729,9.023-40.807,9.023c-3.732,0-7.074-0.421-10.103-1.285
	C42.352,288.363,53.663,283.188,67.195,278.005z"/>
<g>
</g>
<g>
</g>
<g>
</g>
<g>
</g>
<g>
</g>
<g>
</g>
<g>
</g>
<g>
</g>
<g>
</g>
<g>
</g>
<g>
</g>
<g>
</g>
<g>
</g>
<g>
</g>
<g>
</g>
</svg>
