<?xml version="1.0" encoding="iso-8859-1"?>
<!-- Generator: Adobe Illustrator 19.0.0, SVG Export Plug-In . SVG Version: 6.00 Build 0)  -->
<svg version="1.1" id="Capa_1" xmlns="http://www.w3.org/2000/svg" xmlns:xlink="http://www.w3.org/1999/xlink" x="0px" y="0px"
	 viewBox="0 0 511.999 511.999" style="enable-background:new 0 0 511.999 511.999;" xml:space="preserve">
<path style="fill:#7CB777;" d="M504.473,168.31c-14.147-25.669-41.46-43.065-72.842-43.065s-58.694,17.396-72.842,43.065
	c14.147,25.669,41.46,43.065,72.842,43.065S490.325,193.98,504.473,168.31z"/>
<path style="fill:#35925D;" d="M336.51,181.778c-0.305-0.305-0.599-0.625-0.881-0.961c-5.341-6.344-4.531-15.816,1.81-21.161
	c0.707-0.6,46.53-39.866,52.657-81.132c1.219-8.207,8.86-13.872,17.067-12.654c8.207,1.22,13.872,8.86,12.654,17.067
	c-3.34,22.488-15.045,46.165-34.791,70.375c-14.299,17.532-27.667,28.848-28.229,29.322
	C350.785,187.696,341.966,187.234,336.51,181.778z"/>
<path style="fill:#FA9F6A;" d="M369.893,148.371c-59.287-59.287-155.41-59.287-214.697,0
	c-59.578,59.578-45.633,73.961-79.356,107.704c-18.692,18.703-44.98,34.725-58.467,58.776
	c-46.317,82.605,82.68,128.101,139.697,131.075c79.268,4.135,156.839-26.872,212.825-82.86
	C429.18,303.779,429.179,207.658,369.893,148.371z"/>
<path style="fill:#E0712F;" d="M369.893,148.371c-5.09-5.09-10.459-9.734-16.046-13.951c44.888,59.482,40.246,144.453-13.949,198.65
	c-55.986,55.988-133.558,86.994-212.825,82.859c-29.176-1.522-77.198-14.179-110.934-37.245
	c25.428,42.116,100.91,65.154,140.931,67.242c79.268,4.135,156.839-26.872,212.825-82.859
	C429.18,303.779,429.179,207.658,369.893,148.371z"/>
<path d="M223.135,185.799l10.868-10.868c2.929-2.929,2.929-7.677,0-10.605c-2.929-2.929-7.677-2.929-10.605,0l-10.868,10.868
	c-2.929,2.929-2.929,7.677,0,10.605C215.421,188.691,220.247,188.689,223.135,185.799z"/>
<path d="M343.235,305.899l10.868-10.868c2.929-2.929,2.929-7.677,0-10.605c-2.929-2.929-7.677-2.929-10.605,0l-10.868,10.868
	c-2.929,2.929-2.929,7.677,0,10.605C335.471,308.741,340.321,308.813,343.235,305.899z"/>
<path d="M264.32,217.487c-4.133-0.274-7.707,2.848-7.985,6.98c-0.669,9.969,3.138,19.877,10.444,27.184
	c7.09,7.091,17.135,11.122,27.184,10.443c4.133-0.277,7.257-3.853,6.979-7.984c-0.277-4.132-3.841-7.263-7.984-6.979
	c-5.655,0.375-11.328-1.838-15.573-6.084c-4.247-4.247-6.464-9.923-6.084-15.574C271.577,221.339,268.453,217.765,264.32,217.487z"
	/>
<path d="M73.322,432.248c25.1,11.125,54.593,18.976,78.895,20.999c0.212,0.018,0.422,0.026,0.631,0.026
	c3.86,0,7.139-2.962,7.465-6.877c0.344-4.128-2.724-7.752-6.851-8.096c-22.384-1.864-50.763-9.437-74.061-19.765
	c-20.146-8.929-46.635-24.23-58.421-46.415c-8.844-16.647-7.875-34.135,2.963-53.464c8.429-15.031,22.847-27.178,36.79-38.925
	c6.945-5.851,14.126-11.902,20.439-18.217c15.289-15.298,21.468-27.147,28.009-39.692c8.511-16.322,18.157-34.822,51.346-68.011
	c22.541-22.541,51.117-36.703,82.639-40.956c4.105-0.554,6.982-4.331,6.429-8.435c-0.554-4.104-4.32-6.985-8.435-6.429
	c-34.805,4.695-66.356,20.331-91.239,45.214c-34.817,34.817-45.476,55.257-54.039,71.681c-6.254,11.995-11.656,22.354-25.318,36.024
	c-5.858,5.861-12.482,11.442-19.494,17.349c-14.968,12.611-30.447,25.65-40.21,43.06c-13.344,23.798-14.395,46.622-3.126,67.836
	C21.528,405.123,51.015,422.361,73.322,432.248z"/>
<path d="M511.068,172.068c1.242-2.253,1.242-4.986,0-7.239c-15.959-28.957-46.388-46.945-79.409-46.945
	c-5.241,0-10.426,0.47-15.532,1.358c5.693-11.882,9.432-23.596,11.136-35.065c1.822-12.283-6.687-23.76-18.97-25.585
	c-1.101-0.164-2.22-0.247-3.327-0.247c-11.063,0-20.632,8.261-22.26,19.216c-2.734,18.409-14.423,36.744-25.259,50.323
	c-24.562-18.218-53.963-29.072-84.817-31.014c-4.131-0.247-7.695,2.88-7.955,7.014c-0.26,4.134,2.88,7.695,7.014,7.955
	c30.552,1.922,59.536,13.488,82.935,32.875c11.879,9.842,22.132,21.581,30.337,34.641c0.031,0.049,0.062,0.098,0.092,0.147
	c34.715,55.678,27.905,130.059-20.433,178.399c-24.249,24.249-52.411,43.599-83.706,57.512
	c-31.432,13.974-64.537,21.796-98.399,23.25c-4.138,0.178-7.348,3.677-7.17,7.814c0.173,4.029,3.493,7.177,7.487,7.177
	c0.108,0,0.218-0.002,0.327-0.007c35.75-1.536,70.689-9.789,103.848-24.529c32.982-14.662,62.663-35.055,88.22-60.611
	c40.775-40.776,54.782-98.337,42.024-150.646c4.747,0.76,9.561,1.152,14.409,1.152C464.681,219.012,495.108,201.024,511.068,172.068
	z M369.066,137.366c12.089-15.142,25.259-35.943,28.476-57.602c0.544-3.661,3.736-6.421,7.424-6.421c0.372,0,0.75,0.028,1.123,0.083
	c4.104,0.61,6.946,4.445,6.338,8.547c-2.297,15.462-8.902,31.632-19.668,48.261c-3.874,5.982-12.816,17.605-12.942,17.761
	C378.93,147.032,369.142,137.271,369.066,137.366z M403.43,181.413c-2.288-4.329-4.77-8.55-7.447-12.651
	c-0.112-0.172-0.219-0.345-0.332-0.517c31.467-3.975,50.731,1.335,61.653,6.886c3.648,1.855,8.229,0.361,10.083-3.287
	c1.877-3.692,0.405-8.206-3.287-10.083c-21.208-10.781-47.532-11.121-69.31-8.518c3.331-4.306,10.746-15.703,11.213-15.873
	c8.238-2.98,16.857-4.49,25.655-4.49c26.154,0,50.361,13.525,64.147,35.566c-13.786,22.041-37.992,35.566-64.147,35.566
	c-6.55,0-13.024-0.835-19.297-2.486C409.977,194.937,403.6,181.734,403.43,181.413z"/>
<g>
</g>
<g>
</g>
<g>
</g>
<g>
</g>
<g>
</g>
<g>
</g>
<g>
</g>
<g>
</g>
<g>
</g>
<g>
</g>
<g>
</g>
<g>
</g>
<g>
</g>
<g>
</g>
<g>
</g>
</svg>
