<?xml version="1.0" encoding="iso-8859-1"?>
<!-- Generator: Adobe Illustrator 19.0.0, SVG Export Plug-In . SVG Version: 6.00 Build 0)  -->
<svg version="1.1" id="Capa_1" xmlns="http://www.w3.org/2000/svg" xmlns:xlink="http://www.w3.org/1999/xlink" x="0px" y="0px"
	 viewBox="0 0 511.999 511.999" style="enable-background:new 0 0 511.999 511.999;" xml:space="preserve">
<path style="fill:#57D0E6;" d="M355.552,488.919c-14.492-18.131-49.205-29.892-49.205-29.892h-51.509
	c0,0-34.713,11.76-49.205,29.892c-5.022,6.283-0.59,15.581,7.453,15.581h135.013C356.142,504.5,360.574,495.201,355.552,488.919z"/>
<ellipse style="fill:#85E7FF;" cx="280.59" cy="424.6" rx="51.1" ry="39.871"/>
<path style="fill:#EFEDEE;" d="M326.71,117.861l-27.79-9.263l18.877-56.633c1.278-3.833,4.082-6.968,7.75-8.664L403.011,7.5
	L415.3,34.09l-71.716,33.146L326.71,117.861z"/>
<polygon style="fill:#D2D2D2;" points="343.188,68.425 312.311,68.425 298.92,108.598 326.71,117.861 "/>
<path style="fill:#57D0E6;" d="M381.164,227.195c-6.928-56.002,0.823-92.546,8.316-113.064c3.676-10.065-3.838-20.707-14.553-20.707
	H161.469c0,0,30.269,39.057,18.552,133.77S141.94,435.172,280.593,435.172S392.881,321.908,381.164,227.195z"/>
<path style="fill:#FA9F6A;" d="M354.938,252.66c-0.957-7.186-1.943-14.617-2.841-21.872c-0.517-4.14-0.957-8.192-1.318-12.156
	l-70.185-22.682l-70.185,22.682c-0.361,3.964-0.801,8.016-1.318,12.156c-0.898,7.255-1.884,14.685-2.841,21.872
	c-3.73,27.975-7.743,58.029-6.688,83.611l81.033,20.463l81.033-20.463C362.681,310.689,358.668,280.635,354.938,252.66z"/>
<path style="fill:#E0712F;" d="M219.559,336.271c-1.055-25.582,2.958-55.637,6.688-83.611c0.957-7.186,1.943-14.617,2.841-21.872
	c0.517-4.14,0.957-8.192,1.318-12.156c0.21-2.246,0.393-4.457,0.56-6.645l-20.56,6.645c-0.361,3.964-0.801,8.017-1.318,12.156
	c-0.449,3.627-0.92,7.299-1.399,10.962c-0.239,1.831-0.48,3.661-0.721,5.481c-0.241,1.821-0.482,3.633-0.721,5.429
	c-2.098,15.736-4.286,32.129-5.611,48.015c-0.442,5.295-0.787,10.534-1.002,15.673c-0.143,3.426-0.228,6.808-0.244,10.133
	c-0.016,3.325,0.037,6.592,0.168,9.79l20.298,5.125C219.737,339.707,219.632,338.004,219.559,336.271z"/>
<path style="fill:#FADC60;" d="M350.778,218.632H210.407c3.876-41.469,0.186-73.066-5.527-95.914h151.424
	C350.592,145.566,346.902,177.163,350.778,218.632z"/>
<path style="fill:#F2C42C;" d="M212.006,185.96c-0.016,10.126-0.508,21.009-1.598,32.672h20l0,0
	c3.876-41.469,0.186-73.066-5.526-95.914h-20c0.536,2.142,1.053,4.361,1.549,6.658C209.732,144.687,212.042,163.457,212.006,185.96z
	"/>
<circle style="fill:#35925D;" cx="161.47" cy="93.42" r="64.769"/>
<circle style="fill:#FADC60;" cx="161.47" cy="93.42" r="38.31"/>
<path style="fill:#FD6F71;" d="M361.626,336.271c-0.849,20.349-4.911,37.866-14.871,49.241
	c-11.834,13.514-34.087,20.368-66.163,20.368s-54.328-6.855-66.163-20.368c-9.96-11.375-14.021-28.892-14.871-49.241H361.626z"/>
<path style="fill:#E34B4C;" d="M280.593,405.881c0.004,0,0.007,0,0.011,0c1.656,0,3.281-0.022,4.883-0.06
	c0.097-0.002,0.194-0.004,0.291-0.006c1.631-0.041,3.237-0.099,4.815-0.177c-26.734-1.314-45.601-8.065-56.163-20.125
	c-9.96-11.375-14.021-28.893-14.871-49.241h-20c0.053,1.272,0.119,2.532,0.198,3.781c0.946,14.986,3.794,28.264,9.675,38.435
	c0.49,0.848,1.001,1.674,1.534,2.477c1.066,1.607,2.219,3.125,3.464,4.547C226.264,399.026,248.517,405.881,280.593,405.881z"/>
<path d="M194.377,125.239c7.975-8.247,12.897-19.463,12.897-31.814c0-22.185-16.367-41.546-38.285-45.188
	c-13.664-2.271-31.34,2.212-40.432,13.374c-7.975,8.247-12.896,19.463-12.896,31.814c0,22.341,17.212,42.177,39.285,45.343
	C168.312,140.684,185.534,136.1,194.377,125.239z M135.044,77.607l8.317,8.317h-11.772
	C132.334,82.959,133.508,80.163,135.044,77.607z M191.347,85.924h-11.773l8.317-8.317C189.428,80.163,190.602,82.959,191.347,85.924
	z M168.968,75.318V63.545c2.965,0.745,5.761,1.919,8.317,3.455L168.968,75.318z M153.968,75.318l-8.317-8.317
	c2.556-1.536,5.352-2.71,8.317-3.455V75.318z M131.589,100.924h11.772l-8.317,8.317C133.508,106.685,132.334,103.89,131.589,100.924
	z M153.968,111.531v11.772c-2.965-0.745-5.761-1.919-8.317-3.455L153.968,111.531z M168.968,111.531l8.317,8.317
	c-2.556,1.536-5.352,2.71-8.317,3.455V111.531z M179.574,100.924h11.773c-0.745,2.965-1.919,5.761-3.455,8.317L179.574,100.924z"/>
<path d="M231.338,293.304c4.142,0,7.5-3.358,7.5-7.5v-8.914c0-4.142-3.358-7.5-7.5-7.5s-7.5,3.358-7.5,7.5v8.914
	C223.838,289.946,227.196,293.304,231.338,293.304z"/>
<path d="M329.845,293.304c4.142,0,7.5-3.358,7.5-7.5v-8.914c0-4.142-3.358-7.5-7.5-7.5s-7.5,3.358-7.5,7.5v8.914
	C322.345,289.946,325.703,293.304,329.845,293.304z"/>
<path d="M280.592,298.063c6.902,0,13.391-2.895,17.803-7.942c2.726-3.119,2.408-7.857-0.711-10.583
	c-3.118-2.725-7.856-2.408-10.583,0.711c-1.563,1.789-3.936,2.814-6.51,2.814s-4.946-1.026-6.51-2.814
	c-2.726-3.119-7.464-3.437-10.583-0.711c-3.119,2.726-3.437,7.464-0.711,10.583C267.201,295.168,273.69,298.063,280.592,298.063z"/>
<path d="M418.446,40.898c3.76-1.738,5.399-6.194,3.662-9.955l-12.289-26.59c-0.834-1.806-2.352-3.206-4.219-3.893
	c-1.867-0.685-3.93-0.603-5.736,0.231L322.4,36.493c-5.524,2.553-9.795,7.328-11.719,13.1l-12.11,36.331h-65.223
	c-3.764-36.338-34.563-64.77-71.88-64.77c-39.85,0-72.27,32.42-72.27,72.27s32.42,72.27,72.27,72.27
	c4.416,0,8.733-0.42,12.932-1.182c1.515,18.966,0.907,39.695-1.823,61.761c-0.875,7.073-1.854,14.414-2.801,21.513
	c-5.288,39.654-10.756,80.658-4.325,115.034c0.674,3.606,3.824,6.123,7.364,6.123c0.458,0,0.922-0.042,1.388-0.129
	c4.072-0.762,6.755-4.68,5.993-8.751c-5.989-32.016-0.683-71.81,4.449-110.293c0.951-7.134,1.935-14.51,2.819-21.654
	c3.001-24.263,3.546-47.067,1.626-67.89c4.849-1.995,9.393-4.484,13.594-7.386c2.334,20.061,2.425,41.89,0.254,65.111
	c-1.054,11.274-2.631,22.496-4.124,33.718l-0.015,0.111c-3.841,28.809-7.813,58.599-6.733,84.804
	c1.025,24.568,6.495,42.188,16.722,53.869c13.323,15.213,37.481,22.927,71.805,22.927s58.482-7.714,71.805-22.928
	c10.226-11.68,15.696-29.3,16.721-53.872c1.081-26.208-2.893-56.004-6.748-84.91c-1.041-7.82-1.973-14.858-2.834-21.812
	c-0.505-4.041-0.939-8.047-1.292-11.925c-3.253-34.8-1.458-66.223,5.335-93.396c1.16-4.641-2.505-9.32-7.276-9.32h-125.89
	c1.091-3.478,1.916-7.063,2.476-10.729c0.007-0.047,0.015-0.093,0.022-0.14c0.171-1.135,0.325-2.275,0.443-3.424
	c0,0,141.234,0,141.571,0c5.408,0,9.373,5.528,7.508,10.634c-5.339,14.619-8.862,31.498-10.471,50.167
	c-0.356,4.127,2.701,7.761,6.828,8.116c4.134,0.365,7.76-2.701,8.116-6.828c1.496-17.351,4.731-32.932,9.617-46.31
	c5.383-14.739-5.974-30.779-21.598-30.779H345.26l4.414-13.242L418.446,40.898z M104.198,93.424c0-31.579,25.691-57.27,57.27-57.27
	c31.577,0,57.268,25.689,57.269,57.27c0,0.015-0.001,0.03-0.001,0.045c0,12.294-4.077,24.259-11.35,34.14
	c-0.022,0.031-0.045,0.061-0.068,0.092c-10.455,13.949-27.116,22.992-45.851,22.992C129.889,150.694,104.198,125.003,104.198,93.424
	z M344.652,231.71c0.868,7.008,1.804,14.083,2.863,22.034c3.402,25.508,6.908,51.802,6.781,75.028H206.888
	c-0.127-23.221,3.378-49.507,6.778-75.008l0.015-0.113c1.046-7.857,1.982-14.932,2.849-21.931c0.234-1.869,0.453-3.735,0.657-5.587
	h126.808C344.2,227.979,344.419,229.841,344.652,231.71z M341.112,380.571c-10.349,11.817-30.711,17.809-60.52,17.809
	s-50.172-5.992-60.52-17.809c-6.867-7.843-10.984-19.926-12.511-36.8h146.062C352.096,360.645,347.979,372.728,341.112,380.571z
	 M346.912,130.217c-4.979,24.326-6.417,51.469-4.283,80.914H218.554c1.82-25.179,1.02-48.797-2.385-70.375
	c2.837-3.276,5.371-6.804,7.573-10.539H346.912z M314.382,85.924l10.529-31.588c0.621-1.863,1.999-3.403,3.782-4.227l70.656-32.656
	l5.996,12.974l-64.908,29.999c-1.878,0.868-3.314,2.474-3.969,4.437l-7.02,21.061C329.448,85.924,314.382,85.924,314.382,85.924z"/>
<path d="M338.026,434.014c14.928-5.46,27.005-13.52,36.415-24.268c33.467-38.227,25.08-101.122,16.968-161.946
	c-0.947-7.103-1.927-14.448-2.802-21.525c-1.462-11.816-2.325-23.413-2.564-34.468c-0.089-4.141-3.497-7.443-7.66-7.336
	c-4.141,0.089-7.426,3.519-7.336,7.66c0.25,11.561,1.149,23.667,2.673,35.985c0.884,7.148,1.869,14.529,2.821,21.667
	c7.669,57.508,15.6,116.975-13.386,150.083c-20.206,23.08-53.577,27.808-82.564,27.808c-13.306,0-26.743-1.017-39.718-4.08
	c-25.01-5.903-42.175-18.25-52.035-37.298c-1.904-3.678-6.43-5.116-10.108-3.213c-3.679,1.904-5.117,6.43-3.213,10.108
	c9.991,19.3,25.752,32.84,47.639,40.822c2.243,9.116,7.648,17.2,15.229,23.544c-12.071,5.443-28.971,14.616-38.612,26.678
	c-4.147,5.188-4.937,12.125-2.062,18.103c2.866,5.959,8.756,9.661,15.373,9.661h135.014c6.617,0,12.508-3.702,15.373-9.661
	c2.875-5.978,2.085-12.915-2.062-18.103c-9.641-12.062-26.541-21.236-38.612-26.678
	C330.378,451.213,335.783,443.129,338.026,434.014z M274.875,442.61c5.368,0.119,10.732,0.048,16.097-0.158
	c0.034-0.001,0.068-0.003,0.101-0.004c10.23-0.435,19.68-1.523,28.377-3.275c-5.86,8.503-16.643,14.842-29.349,16.99
	c-6.285,1.063-12.733,1.063-19.018,0c-12.712-2.15-23.5-8.493-29.358-17.002C252.631,441.358,263.755,442.363,274.875,442.61z
	 M349.692,493.601c0.69,0.863,0.523,1.693,0.261,2.237c-0.255,0.53-0.783,1.162-1.855,1.162H213.085c-1.072,0-1.6-0.632-1.855-1.162
	c-0.262-0.544-0.429-1.374,0.261-2.237c10.754-13.454,35.039-23.453,43.086-26.498c5.861,2.329,12.275,3.882,19.038,4.521
	c2.319,0.219,4.647,0.341,6.977,0.341c8.86,0,17.773-1.587,26.014-4.862C314.678,470.158,338.944,480.153,349.692,493.601z"/>
<g>
</g>
<g>
</g>
<g>
</g>
<g>
</g>
<g>
</g>
<g>
</g>
<g>
</g>
<g>
</g>
<g>
</g>
<g>
</g>
<g>
</g>
<g>
</g>
<g>
</g>
<g>
</g>
<g>
</g>
</svg>
