<?xml version="1.0" encoding="iso-8859-1"?>
<!-- Generator: Adobe Illustrator 19.0.0, SVG Export Plug-In . SVG Version: 6.00 Build 0)  -->
<svg version="1.1" id="Capa_1" xmlns="http://www.w3.org/2000/svg" xmlns:xlink="http://www.w3.org/1999/xlink" x="0px" y="0px"
	 viewBox="0 0 511.998 511.998" style="enable-background:new 0 0 511.998 511.998;" xml:space="preserve">
<g>
	<path style="fill:#FF98C5;" d="M92.358,472.638c-3.048,0-6.145-0.576-9.143-1.79c-12.472-5.054-18.486-19.262-13.432-31.734
		c14.714-36.313,14.007-56.266,13.188-79.371c-0.968-27.324-2.065-58.294,20.852-112.487c5.241-12.395,19.539-18.193,31.933-12.952
		c12.394,5.241,18.193,19.538,12.952,31.932c-18.719,44.262-17.901,67.343-17.035,91.781c0.888,25.052,1.894,53.449-16.725,99.397
		C111.11,466.89,101.988,472.638,92.358,472.638z"/>
	<path style="fill:#FF98C5;" d="M160.502,504.553c-7.21,0-14.348-3.185-19.156-9.288c-8.329-10.571-6.51-25.892,4.06-34.219
		c22.791-17.956,24.065-47.293,24.257-93.671c0.185-44.781,0.395-95.538,32.283-140.955c7.733-11.014,22.929-13.673,33.943-5.941
		c11.013,7.733,13.674,22.93,5.941,33.943c-23.103,32.907-23.272,73.703-23.435,113.155c-0.095,22.998-0.194,46.78-4.96,68.573
		c-5.927,27.104-18.315,47.768-37.871,63.177C171.097,502.846,165.78,504.553,160.502,504.553z"/>
	<path style="fill:#FF98C5;" d="M419.645,472.638c3.048,0,6.145-0.576,9.143-1.79c12.472-5.054,18.486-19.262,13.432-31.734
		c-14.714-36.313-14.007-56.266-13.188-79.371c0.968-27.324,2.065-58.294-20.852-112.487c-5.241-12.395-19.539-18.193-31.933-12.952
		c-12.394,5.241-18.193,19.538-12.952,31.932c18.719,44.262,17.901,67.343,17.035,91.781c-0.888,25.052-1.894,53.449,16.725,99.397
		C400.893,466.89,410.015,472.638,419.645,472.638z"/>
	<path style="fill:#FF98C5;" d="M351.502,504.553c7.21,0,14.348-3.185,19.156-9.288c8.329-10.571,6.51-25.892-4.06-34.219
		c-22.791-17.956-24.065-47.293-24.257-93.671c-0.185-44.781-0.395-95.538-32.283-140.955c-7.733-11.014-22.929-13.673-33.943-5.941
		c-11.013,7.733-13.674,22.93-5.941,33.943c23.103,32.907,23.272,73.703,23.435,113.155c0.095,22.998,0.194,46.78,4.96,68.573
		c5.927,27.104,18.315,47.768,37.871,63.177C340.905,502.846,346.223,504.553,351.502,504.553z"/>
</g>
<g>
	<path style="fill:#EB5E8A;" d="M408.179,247.257c-5.241-12.395-19.539-18.193-31.933-12.951
		c-12.394,5.241-18.193,19.538-12.951,31.933c9.571,22.631,14.028,39.717,15.988,54.287c3.571,0.386,7.226,0.616,10.974,0.616
		l0.677-0.002c12.774-0.091,25.156-2.174,36.819-6.087C425.383,296.812,419.956,275.105,408.179,247.257z"/>
	<path style="fill:#EB5E8A;" d="M340.048,311.25c-3.179-28.572-10.913-57.656-29.991-84.83
		c-7.733-11.013-22.929-13.673-33.943-5.941c-11.013,7.733-13.674,22.93-5.941,33.943c10.127,14.425,15.847,30.367,19.092,47.045
		c15.636,1.6,30.76,4.337,45.209,8.21C336.289,310.165,338.147,310.695,340.048,311.25z"/>
	<path style="fill:#EB5E8A;" d="M235.89,220.478c-11.015-7.732-26.211-5.073-33.943,5.941
		c-19.078,27.174-26.813,56.258-29.991,84.83c1.901-0.555,3.758-1.085,5.575-1.572c14.45-3.873,29.573-6.609,45.21-8.21
		c3.245-16.68,8.965-32.62,19.092-47.045C249.564,243.408,246.903,228.212,235.89,220.478z"/>
	<path style="fill:#EB5E8A;" d="M135.756,234.305c-12.394-5.241-26.692,0.557-31.933,12.951
		c-11.778,27.848-17.205,49.555-19.574,67.795c11.663,3.913,24.045,5.996,36.819,6.087c0,0,0.677,0.002,0.678,0.002
		c3.749,0,7.403-0.23,10.973-0.616c1.961-14.569,6.418-31.656,15.988-54.287C153.949,253.844,148.151,239.546,135.756,234.305z"/>
</g>
<path style="fill:#FF98C5;" d="M256.001,269.781c29.224,0,58.01,3.347,86.241,10.913c15.848,4.248,31.843,10.557,48.479,10.438
	c51.263-0.365,89.255-43.445,86.197-93.343C470.076,86.199,356.807,7.447,256.001,7.447c-100.805,0-214.074,78.751-220.915,190.343
	c-3.059,49.898,34.934,92.978,86.197,93.343c16.636,0.119,32.631-6.19,48.479-10.438
	C197.991,273.128,226.777,269.781,256.001,269.781z"/>
<path style="fill:#EB5E8A;" d="M65.093,197.789C71.595,91.706,174.281,15.308,271.004,8.024c-5.022-0.378-10.028-0.577-15.003-0.577
	c-100.805,0-214.074,78.751-220.915,190.343c-3.059,49.898,34.934,92.978,86.197,93.343c4.99,0.035,9.921-0.515,14.809-1.406
	C92.725,281.927,62.345,242.612,65.093,197.789z"/>
<path d="M171.761,206.234v-16.604c0-4.143-3.359-7.502-7.502-7.502c-4.143,0-7.502,3.359-7.502,7.502v16.604
	c0,4.143,3.359,7.502,7.502,7.502C168.402,213.736,171.761,210.378,171.761,206.234z"/>
<path d="M355.244,206.234v-16.604c0-4.143-3.359-7.502-7.502-7.502c-4.143,0-7.502,3.359-7.502,7.502v16.604
	c0,4.143,3.359,7.502,7.502,7.502C351.886,213.736,355.244,210.378,355.244,206.234z"/>
<path d="M256.001,222.599c10.989,0,21.301-4.586,28.291-12.583c2.728-3.12,2.409-7.858-0.71-10.585
	c-3.12-2.727-7.859-2.41-10.585,0.711c-4.141,4.737-10.335,7.454-16.995,7.454c-6.659,0-12.855-2.717-16.995-7.454
	c-2.727-3.119-7.466-3.438-10.585-0.711c-3.12,2.728-3.438,7.466-0.71,10.585C234.701,218.013,245.012,222.599,256.001,222.599z"/>
<path d="M406.4,54.984C363.005,20.041,308.187,0,256.001,0c-47.636,0-98.774,17.236-140.299,47.289
	c-3.357,2.429-4.108,7.119-1.679,10.475c2.429,3.356,7.119,4.109,10.475,1.679c39.023-28.243,86.955-44.441,131.503-44.441
	c48.824,0,100.213,18.832,140.989,51.666c43.663,35.16,69.39,81.909,72.439,131.635c1.37,22.357-6.455,44.401-21.472,60.479
	c-8.221,8.803-18.13,15.431-29.083,19.631c-14.601,5.611-30.191,6.568-45.421,3.223c-0.019-0.004-0.039-0.005-0.058-0.009
	c-19.078-4.155-37.55-10.765-56.798-14.189c-19.971-3.551-40.323-5.106-60.596-5.106c-23.556,0-47.375,1.954-70.41,6.999
	c-15.795,3.459-31.043,9.048-46.893,12.283c-0.05,0.01-0.1,0.012-0.15,0.023c-15.084,3.312-30.975,2.316-45.416-3.222
	c-10.954-4.201-20.865-10.83-29.087-19.633c-15.016-16.079-22.842-38.123-21.472-60.479c3.463-56.482,34.223-96.588,59.418-120.287
	c3.018-2.839,3.163-7.586,0.324-10.604c-2.838-3.019-7.586-3.164-10.604-0.324c-38.964,36.65-61.135,81.706-64.114,130.297
	c-1.621,26.45,7.667,52.561,25.481,71.637c8.205,8.785,17.811,15.758,28.372,20.733c-7.411,29.83-6.653,51.258-5.978,70.307
	c0.821,23.163,1.469,41.458-12.644,76.287c-6.525,16.105,1.513,34.997,17.568,41.503c16.136,6.539,34.973-1.452,41.503-17.567
	c19.221-47.434,18.184-76.679,17.269-102.481c-0.652-18.401-1.262-35.837,6.862-62.517c4.989-1.247,9.894-2.705,14.734-4.146
	c2.413-0.718,4.736-1.407,7.042-2.065c-5.426,27.007-5.546,54.068-5.647,78.32c-0.182,44.133-1.313,71.985-21.399,87.809
	c-13.803,10.874-16.184,30.952-5.31,44.754c10.737,13.628,31.13,16.046,44.755,5.311c20.977-16.528,34.242-38.596,40.557-67.465
	c4.937-22.57,5.037-46.756,5.133-70.144c0.127-30.794,0.267-62.581,11.646-89.842c6.096-0.315,12.25-0.483,18.459-0.483
	c6.209,0,12.362,0.168,18.459,0.483c11.377,27.261,11.518,59.049,11.646,89.842c0.097,23.388,0.197,47.573,5.133,70.144
	c6.313,28.869,19.58,50.938,40.557,67.466c13.663,10.765,34.008,8.331,44.754-5.31c10.875-13.803,8.493-33.88-5.31-44.755
	c-20.084-15.823-21.216-43.675-21.399-87.81c-0.101-24.252-0.221-51.313-5.647-78.32c2.306,0.658,4.631,1.347,7.042,2.066
	c4.84,1.441,9.744,2.899,14.733,4.146c8.125,26.681,7.515,44.115,6.862,62.516c-0.915,25.803-1.951,55.048,17.269,102.48
	c6.509,16.063,25.457,24.067,41.503,17.568c16.093-6.518,24.094-25.396,17.568-41.503c-14.113-34.829-13.465-53.125-12.644-76.287
	c0.675-19.049,1.432-40.477-5.978-70.307c10.561-4.975,20.168-11.949,28.373-20.733c17.816-19.076,27.103-45.188,25.481-71.637
	C481.094,143.396,453.392,92.823,406.4,54.984z M124.177,358.339c0.861,24.302,1.838,51.847-16.18,96.314
	c-3.451,8.515-13.466,12.742-21.963,9.298c-8.531-3.457-12.756-13.432-9.298-21.964c15.315-37.796,14.546-59.488,13.732-82.454
	c-0.656-18.525-1.333-37.626,5.131-64.478c3.076,0.875,6.208,1.594,9.389,2.156c0.035,0.006,0.07,0.012,0.104,0.018
	c8.071,1.411,16.325,1.87,24.486,1.058C122.939,323.396,123.566,341.123,124.177,358.339z M210.893,367.601
	c-0.094,22.608-0.19,45.984-4.787,67c-5.541,25.335-17.05,44.598-35.184,58.886c-7.235,5.7-17.992,4.418-23.685-2.81
	c-5.755-7.305-4.495-17.93,2.811-23.685c25.498-20.088,26.916-50.909,27.116-99.531c0.112-26.946,0.227-54.764,6.895-82.48
	c11.368-2.52,22.876-4.384,34.45-5.648c0.823-0.089,1.649-0.169,2.476-0.252C211.143,307.165,211.016,337.828,210.893,367.601z
	 M361.954,466.993c7.305,5.755,8.565,16.38,2.811,23.684c-5.699,7.235-16.462,8.501-23.684,2.812
	c-18.135-14.289-29.644-33.55-35.186-58.887c-4.596-21.017-4.693-44.394-4.787-67c-0.123-29.774-0.25-60.437-10.091-88.521
	c4.582,0.462,9.164,0.962,13.717,1.663c7.611,1.08,23.035,4.199,23.209,4.238c6.668,27.716,6.783,55.534,6.896,82.48
	C335.039,416.085,336.456,446.906,361.954,466.993z M421.535,359.533c-0.814,22.965-1.583,44.658,13.732,82.453
	c3.453,8.522-0.808,18.524-9.296,21.964c-8.536,3.459-18.503-0.755-21.964-9.296c-18.018-44.467-17.042-72.012-16.18-96.315
	c0.61-17.216,1.238-34.944-5.401-60.051c1.213,0.121,2.435,0.21,3.661,0.277c6.952,0.382,13.974-0.126,20.827-1.336
	c0.033-0.006,0.067-0.011,0.101-0.017c3.181-0.562,6.314-1.281,9.39-2.156C422.868,321.907,422.191,341.008,421.535,359.533z"/>
<g>
</g>
<g>
</g>
<g>
</g>
<g>
</g>
<g>
</g>
<g>
</g>
<g>
</g>
<g>
</g>
<g>
</g>
<g>
</g>
<g>
</g>
<g>
</g>
<g>
</g>
<g>
</g>
<g>
</g>
</svg>
