<?xml version="1.0" encoding="iso-8859-1"?>
<!-- Generator: Adobe Illustrator 19.0.0, SVG Export Plug-In . SVG Version: 6.00 Build 0)  -->
<svg version="1.1" id="Capa_1" xmlns="http://www.w3.org/2000/svg" xmlns:xlink="http://www.w3.org/1999/xlink" x="0px" y="0px"
	 viewBox="0 0 512 512" style="enable-background:new 0 0 512 512;" xml:space="preserve">
<path style="fill:#B3F0FF;" d="M431.555,171.339c5.831,3.803,13.502-0.67,13.124-7.622
	c-1.855-34.113-18.712-104.589-126.345-104.589c-48.229,0-93.365,19.539-134.098,43.856c-37.532,22.406-73.82,48.219-104.355,79.66
	c-25.792,26.557-47.206,57.589-59.667,92.625C11.76,299.037,7.5,324.372,7.5,349.588v0.108l18.652,18.652H474l30.5-18.652v-47.919
	C286.924,301.778,354.114,120.837,431.555,171.339z"/>
<path style="fill:#57D0E6;" d="M504.5,397.615v47.919c-22.656-9.783-48.344-9.783-71,0l0,0c-22.656,9.783-48.344,9.783-71,0l0,0
	c-22.656-9.783-48.344-9.783-71,0l0,0c-22.656,9.783-48.344,9.783-71,0l0,0c-22.656-9.783-48.344-9.783-71,0l0,0
	c-22.656,9.783-48.344,9.783-71,0l0,0c-22.656-9.783-48.344-9.783-71,0v-47.919l18.652-29.267H474L504.5,397.615z"/>
<path style="fill:#85E7FF;" d="M7.5,397.615c22.656-9.783,48.344-9.783,71,0l0,0c22.656,9.783,48.344,9.783,71,0l0,0
	c22.656-9.783,48.344-9.783,71,0l0,0c22.656,9.783,48.344,9.783,71,0l0,0c22.656-9.783,48.344-9.783,71,0l0,0
	c22.656,9.783,48.344,9.783,71,0l0,0c22.656-9.783,48.344-9.783,71,0v-47.919c-22.656-9.783-48.344-9.783-71,0l0,0
	c-22.656,9.783-48.344,9.783-71,0l0,0c-22.656-9.783-48.344-9.783-71,0l0,0c-22.656,9.783-48.344,9.783-71,0l0,0
	c-22.656-9.783-48.344-9.783-71,0l0,0c-22.656,9.783-48.344,9.783-71,0l0,0c-22.656-9.783-48.344-9.783-71,0V397.615z"/>
<path d="M175.373,307.41v-15.95c0-4.142-3.358-7.5-7.5-7.5s-7.5,3.358-7.5,7.5v15.95c0,4.142,3.358,7.5,7.5,7.5
	S175.373,311.552,175.373,307.41z"/>
<path d="M351.627,307.41v-15.95c0-4.142-3.358-7.5-7.5-7.5s-7.5,3.358-7.5,7.5v15.95c0,4.142,3.358,7.5,7.5,7.5
	S351.627,311.552,351.627,307.41z"/>
<path d="M256,323.424c10.642,0,20.628-4.442,27.398-12.188c2.726-3.119,2.408-7.857-0.711-10.583s-7.857-2.408-10.583,0.711
	c-3.921,4.486-9.791,7.06-16.104,7.06s-12.183-2.573-16.104-7.06c-2.726-3.119-7.464-3.437-10.583-0.711s-3.437,7.464-0.711,10.583
	C235.372,318.981,245.358,323.424,256,323.424z"/>
<path d="M504.5,294.278c-104.724,0-130.409-41.848-136.592-59.84c-7.243-21.08-1.133-44.505,14.859-56.966
	c12.874-10.032,29.163-9.976,44.69,0.15c10.8,7.043,25.406-1.516,24.709-14.311c-1.826-33.58-18.522-111.682-133.834-111.682
	c-42.78,0-86.612,14.272-137.942,44.916c-43.79,26.142-78.427,52.596-105.891,80.875c-4.98,5.128-9.794,10.419-14.308,15.726
	c-2.683,3.155-2.301,7.889,0.854,10.572c3.155,2.683,7.889,2.301,10.572-0.854c4.3-5.057,8.89-10.101,13.642-14.994
	c26.538-27.326,60.17-52.985,102.819-78.446c48.907-29.197,90.296-42.795,130.253-42.795c98.802,0,116.876,61.084,118.856,97.496
	c0.044,0.806-0.849,1.378-1.538,0.933c-20.915-13.64-44.131-13.421-62.103,0.583c-20.965,16.336-29.117,46.631-19.825,73.673
	c6.927,20.16,22.685,37.14,45.569,49.102c24.94,13.037,57.785,20.022,97.708,20.792v29.78c-9.056-2.737-18.432-4.127-27.999-4.127
	c-13.192,0-26.363,2.721-38.474,7.952c-0.067,0.029-0.136,0.053-0.203,0.082c-20.624,8.839-44.246,8.815-64.85-0.082
	c-0.12-0.052-0.241-0.099-0.361-0.15c-24.301-10.382-52.33-10.324-76.586,0.15c-0.067,0.029-0.136,0.053-0.203,0.082
	c-20.624,8.839-44.246,8.815-64.85-0.082c-0.12-0.052-0.241-0.099-0.361-0.15c-24.301-10.382-52.331-10.324-76.586,0.15
	c-20.671,8.925-44.382,8.926-65.054,0c-20.789-8.976-44.517-10.395-66.214-3.903c1.019-21.01,5.05-41.525,12.021-61.126
	c6.225-17.5,15.13-34.824,26.469-51.491c2.33-3.425,1.442-8.09-1.982-10.42c-3.424-2.329-8.089-1.443-10.42,1.982
	c-12.059,17.725-21.546,36.197-28.2,54.902C4.423,297.284,0,323.134,0,349.588v0.108c0,0,0,95.738,0,95.837
	c0,5.307,5.594,8.996,10.473,6.885c20.602-8.911,44.454-8.895,65.054,0c24.373,10.524,52.581,10.522,76.946,0
	c20.597-8.895,44.466-8.89,65.054,0c24.372,10.524,52.582,10.522,76.946,0c20.615-8.902,44.442-8.901,65.054,0
	c12.219,5.277,25.163,7.952,38.473,7.952s26.254-2.675,38.473-7.952c20.614-8.902,44.442-8.9,65.052-0.001
	c4.87,2.103,10.475-1.596,10.475-6.885V301.778C512,297.636,508.642,294.278,504.5,294.278z M493.792,385.995
	c-20.895-5.529-43.423-3.828-63.266,4.735c-20.614,8.903-44.442,8.901-65.053,0c-23.191-10.015-49.9-10.543-73.456-1.42
	c-22.635,8.766-45.635,11.313-68.544,1.42c-24.382-10.53-52.57-10.527-76.947,0c-20.615,8.902-44.442,8.9-65.054,0
	c-20.735-8.953-44.417-10.397-66.068-3.947c-0.134,0.04-0.27,0.074-0.405,0.114v-32.095c19.555-7.086,41.347-6.501,60.527,1.78
	c24.383,10.528,52.569,10.527,76.946,0c20.67-8.926,44.381-8.926,65.054,0c24.385,10.529,52.564,10.529,76.946,0
	c20.67-8.926,44.381-8.926,65.054,0c24.361,10.519,52.595,10.516,76.946,0c19.177-8.282,40.969-8.866,60.527-1.78v32.095
	C496.868,386.857,494.732,386.244,493.792,385.995z M469,430.697c-13.31,0-26.254,2.675-38.473,7.952
	c-20.614,8.902-44.444,8.9-65.054,0c-24.382-10.529-52.567-10.528-76.946,0c-20.613,8.901-44.444,8.9-65.054,0
	c-24.369-10.523-52.586-10.52-76.947,0c-20.613,8.901-44.444,8.899-65.054,0c-20.85-9.004-44.73-10.404-66.473-3.833v-32.1
	c0.166-1.306,11.182-3.197,12.594-3.467c16.085-3.071,32.896-1.241,47.932,5.251c24.375,10.524,52.572,10.526,76.946,0
	c20.614-8.901,44.442-8.899,65.054,0c4.582,1.979,9.266,3.592,14.033,4.835c20.785,5.42,43.197,3.682,62.913-4.834
	c20.614-8.901,44.442-8.899,65.054,0c24.375,10.524,52.57,10.521,76.946,0c10.331-4.461,21.274-6.723,32.527-6.723
	c9.564,0,19.015,1.669,28,4.938v32.1C487.945,432.079,478.566,430.697,469,430.697z"/>
<g>
</g>
<g>
</g>
<g>
</g>
<g>
</g>
<g>
</g>
<g>
</g>
<g>
</g>
<g>
</g>
<g>
</g>
<g>
</g>
<g>
</g>
<g>
</g>
<g>
</g>
<g>
</g>
<g>
</g>
</svg>
