<?xml version="1.0" encoding="iso-8859-1"?>
<!-- Generator: Adobe Illustrator 19.0.0, SVG Export Plug-In . SVG Version: 6.00 Build 0)  -->
<svg version="1.1" id="Capa_1" xmlns="http://www.w3.org/2000/svg" xmlns:xlink="http://www.w3.org/1999/xlink" x="0px" y="0px"
	 viewBox="0 0 512 512" style="enable-background:new 0 0 512 512;" xml:space="preserve">
<g>
	<path style="fill:#FD6F71;" d="M64.718,211.286c-2.936-9.542-3.324-19.828-0.891-29.789l7.633-31.256
		c2.401-9.846-3.628-19.775-13.473-22.176c-9.846-2.401-19.775,3.628-22.176,13.473l-7.633,31.246
		c-3.712,15.204-3.46,30.869,0.409,45.59l20.174,8.133L64.718,211.286z"/>
	<path style="fill:#FD6F71;" d="M447.282,211.286c2.936-9.542,3.324-19.828,0.891-29.789l-7.633-31.256
		c-2.401-9.846,3.628-19.775,13.473-22.176c9.846-2.401,19.775,3.628,22.176,13.473l7.633,31.246
		c3.712,15.204,3.46,30.869-0.409,45.59l-20.174,8.133L447.282,211.286z"/>
</g>
<g>
	<path style="fill:#E34B4C;" d="M109.731,275.906c0,10.139-8.21,18.349-18.349,18.349c-8.724,0-12.394-4.079-23.298-16.189
		c-4.844-5.379-11.439-12.834-19.586-22.145c-9.583-10.947-16.315-23.843-19.911-37.548c9.395-9.196,23.602-12.215,36.132-7.088
		c2.286,7.455,6.123,14.449,11.397,20.467c19.125,21.851,24.85,27.975,26.528,29.663
		C106.963,264.781,109.731,270.013,109.731,275.906z"/>
	<path style="fill:#E34B4C;" d="M402.269,275.906c0,10.139,8.21,18.349,18.349,18.349c8.724,0,12.394-4.079,23.298-16.189
		c4.844-5.379,11.439-12.834,19.586-22.145c9.583-10.947,16.315-23.843,19.911-37.548c-9.395-9.196-23.602-12.215-36.132-7.088
		c-2.286,7.455-6.123,14.449-11.397,20.467c-19.125,21.851-24.85,27.975-26.528,29.663
		C405.037,264.781,402.269,270.013,402.269,275.906z"/>
</g>
<path style="fill:#FD6F71;" d="M73.704,379.637c-5.306,10.422-4.173,22.292-0.367,33.165c2.181,6.239,5.106,12.152,8.483,17.825
	l0.199,0.336c3.387,5.662,1.531,12.981-4.131,16.367c-5.316,3.167-12.142,1.688-15.738-3.198
	c-4.991-6.742-9.332-13.893-12.834-21.526c-8.797-19.156-10.622-40.2-1.279-59.598c0.566-1.174,1.164-2.317,1.814-3.439h19.12
	L73.704,379.637z"/>
<path style="fill:#E34B4C;" d="M126.057,336.867c0,0-7.256,5.274-18.15,13.201c-11.314,8.21-25.29,14.92-32.871,27.178
	c-0.493,0.786-0.933,1.583-1.332,2.391c-10.852-2.37-19.733-9.992-23.854-20.069c8.504-14.91,23.476-25.783,36.132-36.908
	c10.108-8.891,16.86-14.816,16.86-14.816c7.717-6.784,19.471-6.029,26.255,1.688C136.196,317.606,134.707,330.545,126.057,336.867z"
	/>
<path style="fill:#FD6F71;" d="M148.499,414.612c-2.415,11.443,1.763,22.61,8.264,32.121c3.727,5.458,8.089,10.408,12.823,15.008
	l0.28,0.272c4.742,4.587,4.852,12.137,0.264,16.879c-4.31,4.439-11.286,4.785-16.029,1.002
	c-6.572-5.213-12.622-10.991-17.987-17.451c-13.473-16.212-20.704-36.059-16.723-57.218c0.242-1.281,0.522-2.54,0.858-3.792
	l18.463-4.969L148.499,414.612z"/>
<path style="fill:#E34B4C;" d="M187.939,359.707c0,0-5.636,6.978-14.096,17.464c-8.791,10.868-20.544,20.98-24.679,34.786
	c-0.271,0.887-0.49,1.771-0.665,2.655c-11.095,0.532-21.652-4.521-28.25-13.18c4.337-16.608,15.97-30.998,25.299-45.03
	c7.45-11.213,12.431-18.688,12.431-18.688c5.689-8.556,17.235-10.882,25.792-5.193C192.724,338.472,194.649,351.354,187.939,359.707
	z"/>
<path style="fill:#FD6F71;" d="M438.296,379.637c5.306,10.422,4.173,22.292,0.367,33.165c-2.181,6.239-5.106,12.152-8.483,17.825
	l-0.199,0.336c-3.387,5.662-1.531,12.981,4.131,16.367c5.316,3.167,12.142,1.688,15.738-3.198
	c4.991-6.742,9.332-13.893,12.834-21.526c8.797-19.156,10.622-40.2,1.279-59.598c-0.566-1.174-1.164-2.317-1.814-3.439h-19.12
	L438.296,379.637z"/>
<path style="fill:#E34B4C;" d="M385.944,336.867c0,0,7.256,5.274,18.15,13.201c11.314,8.21,25.29,14.92,32.871,27.178
	c0.493,0.786,0.933,1.583,1.332,2.391c10.852-2.37,19.733-9.992,23.854-20.069c-8.504-14.91-23.476-25.783-36.132-36.908
	c-10.108-8.891-16.86-14.816-16.86-14.816c-7.717-6.784-19.471-6.029-26.255,1.688C375.804,317.606,377.293,330.545,385.944,336.867
	z"/>
<path style="fill:#FD6F71;" d="M363.501,414.612c2.415,11.443-1.763,22.61-8.264,32.121c-3.727,5.458-8.089,10.408-12.823,15.008
	l-0.28,0.272c-4.742,4.587-4.852,12.137-0.264,16.879c4.31,4.439,11.286,4.785,16.029,1.002
	c6.572-5.213,12.622-10.991,17.987-17.451c13.473-16.212,20.704-36.059,16.723-57.218c-0.242-1.281-0.522-2.54-0.858-3.792
	l-18.463-4.969L363.501,414.612z"/>
<path style="fill:#E34B4C;" d="M324.061,359.707c0,0,5.636,6.978,14.096,17.464c8.791,10.868,20.544,20.98,24.679,34.786
	c0.271,0.887,0.49,1.771,0.665,2.655c11.095,0.532,21.652-4.521,28.25-13.18c-4.337-16.608-15.97-30.998-25.299-45.03
	c-7.45-11.213-12.431-18.688-12.431-18.688c-5.689-8.556-17.235-10.882-25.792-5.193
	C319.276,338.472,317.351,351.354,324.061,359.707z"/>
<path style="fill:#FD6F71;" d="M256,350.85c24.297,0,48.23,2.928,71.7,9.549c13.176,3.717,26.474,9.237,40.305,9.133
	c42.62-0.32,74.207-38.012,71.663-81.67C433.982,190.226,339.81,131.227,256,131.226c-83.809,0-177.981,59-183.669,156.636
	c-2.543,43.658,29.044,81.35,71.663,81.67c13.831,0.104,27.129-5.416,40.305-9.133C207.77,353.778,231.703,350.85,256,350.85z"/>
<g>
	<path style="fill:#E34B4C;" d="M136.213,90.62c-0.369-4.303-5.876-5.911-8.42-2.421c-7.248,9.941-18.025,17.467-26.729,22.413
		c-6.915,3.929-15.4-1.514-14.704-9.438c2.269-25.809,16.917-44.821,23.698-52.352c1.85-2.054,1.512-5.25-0.709-6.897
		c-10.541-7.818-23.434-12.422-37.365-12.422C36.371,29.503,7.5,59.547,7.5,96.609c0,37.061,28.871,67.105,64.484,67.105
		s64.484-30.044,64.484-67.105C136.469,94.59,136.382,92.593,136.213,90.62z"/>
	<path style="fill:#E34B4C;" d="M375.788,90.62c0.369-4.303,5.876-5.911,8.42-2.421c7.248,9.941,18.025,17.467,26.729,22.413
		c6.915,3.929,15.4-1.514,14.704-9.438c-2.269-25.809-16.917-44.821-23.698-52.352c-1.85-2.054-1.512-5.25,0.709-6.897
		c10.541-7.818,23.434-12.422,37.365-12.422c35.614,0,64.484,30.044,64.484,67.105s-28.871,67.105-64.484,67.105
		s-64.484-30.044-64.484-67.105C375.532,94.59,375.618,92.593,375.788,90.62z"/>
</g>
<path d="M171.46,292.244c-4.142,0-7.5,3.358-7.5,7.5v15.3c0,4.142,3.358,7.5,7.5,7.5s7.5-3.358,7.5-7.5v-15.3
	C178.96,295.602,175.602,292.244,171.46,292.244z"/>
<path d="M348.04,315.044v-15.3c0-4.142-3.358-7.5-7.5-7.5s-7.5,3.358-7.5,7.5v15.3c0,4.142,3.358,7.5,7.5,7.5
	S348.04,319.186,348.04,315.044z"/>
<path d="M256,330.711c10.296,0,19.96-4.299,26.512-11.795c2.726-3.119,2.408-7.857-0.711-10.583s-7.857-2.408-10.583,0.711
	c-3.704,4.237-9.251,6.667-15.219,6.667c-5.968,0-11.515-2.43-15.219-6.667c-2.726-3.119-7.464-3.438-10.583-0.711
	c-3.119,2.726-3.437,7.464-0.711,10.583C236.04,326.411,245.703,330.711,256,330.711z"/>
<path d="M512,96.638c0-41.138-32.292-74.605-71.984-74.605c-15.107,0-29.572,4.806-41.833,13.897
	c-2.757,2.045-4.535,5.176-4.877,8.589c-0.341,3.402,0.775,6.811,3.063,9.351c5.858,6.506,19.708,24.204,21.8,47.988
	c0.166,1.882-1.882,3.197-3.527,2.262c-7.45-4.233-17.727-11.192-24.375-20.311c-2.309-3.167-5.863-4.983-9.75-4.983
	c-6.409,0-11.655,4.807-12.202,11.183c-0.188,2.19-0.283,4.42-0.283,6.628c0,40.412,31.169,73.399,69.896,74.551l2.959,12.117
	c2.074,8.494,1.807,17.417-0.776,25.81c-1.933,6.303-5.063,12.019-9.287,17.024c-11.173-22.423-27.757-42.543-49.096-59.105
	c-35.439-27.504-81.266-43.279-125.729-43.279c-22.528,0-46.203,4.193-68.465,12.127c-3.902,1.391-5.938,5.681-4.547,9.583
	c1.39,3.902,5.681,5.938,9.582,4.547c20.665-7.364,42.599-11.257,63.43-11.257c41.198,0,83.672,14.626,116.532,40.129
	c32.948,25.571,55.564,62.949,59.305,104.829c2.179,24.391-6.166,49.551-25.794,64.997c-0.033,0.026-0.062,0.057-0.095,0.084
	c-22.918,18.683-50.513,11.658-76.213,4.414c-0.123-0.035-0.246-0.066-0.368-0.1c-23.018-6.454-47.698-9.729-73.366-9.729
	c-25.805,0-50.613,3.308-73.736,9.83c-14.588,4.115-28.942,10.168-44.615,8.468c-0.046-0.005-0.091-0.001-0.136-0.005
	c-39.488-3.602-61.106-44.65-57.044-81.014c5.839-52.261,40.578-95.185,86.259-119.303c3.663-1.934,5.065-6.471,3.131-10.134
	c-1.934-3.664-6.472-5.064-10.134-3.131c-35.746,18.871-62.677,45.943-78.609,77.978c-4.125-4.905-7.196-10.496-9.126-16.648
	c-2.603-8.296-2.977-17.521-0.877-26.116l2.959-12.117c38.728-1.152,69.896-34.138,69.896-74.551c0-2.207-0.095-4.437-0.283-6.628
	c-0.937-10.919-15.455-15.111-21.952-6.2c-6.647,9.117-16.921,16.075-24.371,20.308c-1.673,0.951-3.697-0.375-3.532-2.258
	c2.091-23.784,15.942-41.484,21.8-47.99c4.749-5.274,3.871-13.723-1.814-17.94c-12.26-9.092-26.725-13.897-41.833-13.897
	C32.292,22.033,0,55.5,0,96.638c0,22.65,9.802,42.959,25.226,56.653l-4.334,17.743c-3.941,16.139-3.789,33.177,0.44,49.272
	c3.923,14.948,11.366,28.981,21.522,40.583c8.123,9.283,14.736,16.761,19.658,22.226c0.864,0.959,1.678,1.863,2.455,2.719
	c-0.037,0.542-0.09,1.079-0.122,1.622c-0.771,13.233,1.385,26.301,6.103,38.213c-10.324,8.779-20.655,18.045-27.62,30.228
	c-0.706,1.223-1.376,2.492-2.048,3.885c-9.739,20.22-9.316,43.037,1.219,65.98c3.57,7.781,8.153,15.473,13.611,22.845
	c5.864,7.921,17.153,10.238,25.628,5.189c9.081-5.41,12.158-17.56,6.73-26.633l-0.203-0.342c-3.411-5.73-5.977-11.115-7.848-16.466
	c-3.763-10.75-3.772-19.93-0.028-27.285c0.008-0.015,0.013-0.032,0.021-0.047c0.006-0.013,0.015-0.024,0.021-0.037
	c0.301-0.611,0.616-1.176,0.984-1.764c4.424-7.153,11.748-12.283,19.678-17.498c7.156,4.867,15.004,8.489,23.308,10.711
	c-4.67,7.562-8.995,15.939-11.411,25.151c-5.979,22.799,0.842,46.341,14.971,64.698c6.12,7.951,13.535,15.212,21.464,21.503
	c7.749,6.148,19.203,5.45,26.096-1.65c7.456-7.707,7.259-20.036-0.427-27.472l-0.281-0.273
	c-10.7-10.397-23.361-26.226-18.465-42.253c3.948-12.922,15.115-22.045,23.332-32.228c6.11-7.573,10.733-13.299,12.837-15.905
	c20.027-5.056,41.346-7.625,63.483-7.625s43.457,2.57,63.483,7.625c2.104,2.606,6.728,8.333,12.843,15.912
	c8.19,10.125,19.48,19.377,23.337,32.261c2.973,9.925-1.03,20.166-6.621,28.354c-3.508,5.138-7.672,9.787-12.124,14.12
	c-7.698,7.448-7.895,19.777-0.43,27.494c6.776,7.004,18.338,7.822,26.071,1.653c7.2-5.712,13.625-11.948,19.094-18.534
	c16.138-19.419,22.475-41.341,18.325-63.399c-1.987-10.563-6.769-20.349-12.379-29.432c8.304-2.222,16.152-5.844,23.308-10.712
	c7.93,5.215,15.255,10.348,19.701,17.536c5.463,8.832,4.258,19.717,0.974,29.097c-3.584,10.239-13.105,20.024-10.202,31.511
	c2.147,8.495,10.035,14.664,18.802,14.664c15.439,0,23.843-18.835,29.316-30.766c10.538-22.945,10.96-45.761,1.219-65.987
	c-6.671-13.824-18.155-24.32-29.666-34.107c4.719-11.913,6.874-24.98,6.103-38.214c-0.032-0.544-0.08-1.084-0.117-1.627
	c0.775-0.855,1.588-1.757,2.45-2.714c4.921-5.464,11.535-12.942,19.656-22.224c10.158-11.603,17.601-25.637,21.524-40.591
	c4.228-16.09,4.379-33.126,0.439-49.266l-4.334-17.742C502.198,139.597,512,119.288,512,96.638z M15,96.638
	c0-32.867,25.563-59.605,56.984-59.605c10.863,0,21.314,3.172,30.412,9.202c-7.618,9.067-21.246,28.589-23.508,54.311
	c-1.196,13.6,14.058,23.334,25.88,16.616c7.116-4.043,16.493-10.292,24.169-18.57c-0.989,31.965-26.158,57.652-56.954,57.652
	C39.846,156.244,15,127.954,15,96.638z M47.437,166.775c3.513,1.315,7.132,2.35,10.806,3.089c0.226,0.045,0.449,0.099,0.676,0.142
	l-2.379,9.741c-1.737,7.113-2.221,14.453-1.46,21.691c-0.109-0.008-0.221-0.005-0.33-0.012c-7.093-0.459-14.201,0.969-20.596,4.054
	c-0.139,0.067-0.281,0.125-0.419,0.193c-1.325-10.356-0.751-20.928,1.728-31.08l2.923-11.964
	C41.297,164.224,44.326,165.61,47.437,166.775z M67.505,266.19c-3.831-4.315-8.301-9.393-13.365-15.18
	c-7.603-8.684-13.417-18.974-16.977-29.987c0.062-0.043,0.124-0.086,0.187-0.128c6.149-4.179,14.054-5.604,21.255-3.726
	c0.068,0.018,0.136,0.038,0.204,0.056c2.683,7.17,6.596,13.715,11.662,19.496c1.414,1.616,2.753,3.143,4.022,4.588
	C72.783,245.902,67.858,264.368,67.505,266.19z M74.048,440.915c-1.954,1.169-4.531,0.604-5.871-1.217
	c-4.854-6.557-8.907-13.35-12.047-20.194c-5.102-11.111-9.556-27.109-4.785-44.114c0.367,0.381,0.745,0.749,1.126,1.115
	c3.348,3.217,7.28,5.89,11.514,7.801c-2.393,9.272-1.64,19.826,2.271,31c2.206,6.307,5.188,12.583,9.114,19.179l0.211,0.356
	C76.834,436.935,76.142,439.662,74.048,440.915z M70.388,370.728c-2.398-1.056-4.637-2.483-6.61-4.206
	c-2.123-1.854-3.951-4.066-5.369-6.503c5.079-7.57,12.152-14.215,19.486-20.552c2.849,4.575,6.127,8.875,9.818,12.817
	c0.444,0.474,0.907,0.921,1.36,1.382c0.009,0.009,0.016,0.018,0.025,0.027C82.169,358.406,75.465,363.621,70.388,370.728z
	 M164.359,467.148c1.805,1.754,2.3,4.575,0.389,6.55c-1.587,1.633-4.218,1.759-5.985,0.349c-6.392-5.071-12.07-10.578-16.88-16.37
	c-7.819-9.409-16.282-23.709-16.084-41.385c0.166,0.099,0.336,0.189,0.503,0.286c4.249,2.466,8.904,4.167,13.745,5.007
	c0.092,0.016,0.182,0.037,0.274,0.052c0.097,9.579,3.566,19.578,10.249,29.354C154.338,456.509,158.849,461.794,164.359,467.148z
	 M161.267,380.281c-7.076,7.929-14.373,16.105-18.29,26.583c-3.401-0.529-6.696-1.739-9.632-3.533
	c-1.706-1.042-3.294-2.288-4.718-3.691c2.75-8.065,7.377-15.76,11.978-22.679c1.12,0.059,2.227,0.092,3.333,0.1
	c5.693,0.043,11.363-0.763,16.906-2.016c2.004-0.453,3.994-0.962,5.974-1.509c0.141-0.039,0.284-0.075,0.426-0.115
	C165.376,375.677,163.373,377.922,161.267,380.281z M370.116,457.68c-4.81,5.791-10.488,11.298-16.894,16.38
	c-1.763,1.399-4.391,1.264-5.962-0.354c-1.705-1.762-1.665-4.577,0.102-6.286l0.279-0.271c5.513-5.356,10.023-10.642,13.788-16.155
	c6.685-9.778,10.155-19.778,10.251-29.356c0.092-0.015,0.182-0.036,0.273-0.052c5.013-0.862,9.886-2.677,14.248-5.293
	C386.398,433.969,377.935,448.27,370.116,457.68z M371.395,376.961c4.601,6.919,9.228,14.614,11.978,22.679
	c-0.088,0.087-0.178,0.172-0.267,0.257c-2.859,2.738-6.336,4.807-10.105,6.018c-0.315,0.101-3.897,1.171-3.981,0.947
	c-3.929-10.493-11.218-18.661-18.287-26.581c-2.107-2.361-4.112-4.607-5.977-6.86c0.035,0.01,0.071,0.019,0.106,0.029
	c1.002,0.278,2.006,0.546,3.013,0.805C355.576,376.232,363.431,377.377,371.395,376.961z M455.868,419.507
	c-3.139,6.841-7.191,13.634-12.057,20.208c-1.278,1.727-3.86,2.391-5.848,1.207c-2.104-1.259-2.798-3.986-1.533-6.101l0.195-0.329
	c3.93-6.603,6.913-12.878,9.117-19.183c3.912-11.175,4.665-21.73,2.272-31.002c4.719-2.132,9.047-5.185,12.64-8.916
	C465.425,392.398,460.971,408.395,455.868,419.507z M453.59,360.019c-0.063,0.107-0.127,0.213-0.192,0.32
	c-2.745,4.551-6.92,8.248-11.789,10.39c-5.089-7.115-11.787-12.327-18.707-17.037c0.007-0.007,0.014-0.015,0.021-0.022
	c0.455-0.463,0.919-0.911,1.364-1.386c3.691-3.942,6.969-8.241,9.817-12.816C441.438,345.805,448.512,352.449,453.59,360.019z
	 M383.062,98.592c7.676,8.278,17.053,14.527,24.169,18.57c11.908,6.766,27.078-2.994,25.88-16.615
	c-2.261-25.724-15.889-45.246-23.507-54.312c9.098-6.03,19.549-9.202,30.412-9.202c31.421,0,56.984,26.739,56.984,59.605
	c0,24.636-14.364,45.829-34.791,54.898c-0.023,0.01-0.046,0.02-0.068,0.03c-6.92,3.051-14.559,4.677-22.125,4.677
	C409.22,156.244,384.051,130.558,383.062,98.592z M457.858,251.012c-5.063,5.786-9.532,10.863-13.363,15.178
	c-1.647-8.493-3.982-16.811-6.988-24.88c1.269-1.445,2.606-2.971,4.019-4.584c5.068-5.784,8.982-12.329,11.666-19.5
	c0.068-0.018,0.136-0.038,0.204-0.056c7.212-1.88,15.108-0.461,21.256,3.726c0.062,0.042,0.124,0.085,0.186,0.128
	C471.277,232.036,465.463,242.326,457.858,251.012z M473.615,162.629l2.922,11.963c2.479,10.154,3.053,20.725,1.728,31.081
	c-6.467-3.216-13.807-4.713-21.015-4.247c-0.11,0.007-0.221,0.004-0.33,0.012c0.76-7.238,0.277-14.578-1.46-21.691l-2.379-9.741
	C456.89,169.283,473.615,163.692,473.615,162.629z"/>
<g>
</g>
<g>
</g>
<g>
</g>
<g>
</g>
<g>
</g>
<g>
</g>
<g>
</g>
<g>
</g>
<g>
</g>
<g>
</g>
<g>
</g>
<g>
</g>
<g>
</g>
<g>
</g>
<g>
</g>
</svg>
