<?xml version="1.0" encoding="iso-8859-1"?>
<!-- Generator: Adobe Illustrator 19.0.0, SVG Export Plug-In . SVG Version: 6.00 Build 0)  -->
<svg version="1.1" id="Capa_1" xmlns="http://www.w3.org/2000/svg" xmlns:xlink="http://www.w3.org/1999/xlink" x="0px" y="0px"
	 viewBox="0 0 512 512" style="enable-background:new 0 0 512 512;" xml:space="preserve">
<path style="fill:#B8B8B8;" d="M275.045,7.5h-38.091c-10.194,0-18.458,8.264-18.458,18.458v72.815h75.006V25.958
	C293.503,15.764,285.239,7.5,275.045,7.5z"/>
<circle style="fill:#3A484A;" cx="256" cy="278.82" r="225.68"/>
<circle style="fill:#85E7FF;" cx="256" cy="278.82" r="183.87"/>
<path style="fill:#57D0E6;" d="M102.126,278.818c0-96.5,74.34-175.629,168.875-183.262c-4.948-0.4-9.949-0.612-15-0.612
	c-101.551,0-183.875,82.323-183.875,183.874s82.323,183.875,183.875,183.875c5.051,0,10.052-0.212,15-0.612
	C176.466,454.447,102.126,375.318,102.126,278.818z"/>
<ellipse transform="matrix(0.7071 -0.7071 0.7071 0.7071 -122.1704 262.677)" style="fill:none;stroke:#000000;stroke-width:15;stroke-linecap:round;stroke-linejoin:round;stroke-miterlimit:10;" cx="255.994" cy="278.811" rx="24.653" ry="22.839"/>
<circle style="fill:#EFEDEE;" cx="256" cy="278.82" r="76.07"/>
<g>
	<polygon style="fill:#FA9F6A;" points="309.037,278.818 256,406.563 202.963,278.818 256,234.16 	"/>
	<polygon style="fill:#FA9F6A;" points="309.037,278.818 202.963,278.818 256,151.074 	"/>
	<polygon style="fill:#FA9F6A;" points="256,331.855 128.256,278.818 256,225.781 300.659,278.818 	"/>
	<polygon style="fill:#FA9F6A;" points="256,331.855 256,225.781 383.744,278.818 	"/>
</g>
<polygon style="fill:#E34B4C;" points="293.503,316.321 146.973,387.845 218.497,241.315 294.115,240.703 "/>
<polygon style="fill:#FD6F71;" points="293.503,316.321 218.497,241.315 365.027,169.791 "/>
<ellipse transform="matrix(0.7071 -0.7071 0.7071 0.7071 -122.1704 262.677)" style="fill:#EFEDEE;" cx="255.994" cy="278.811" rx="24.653" ry="22.839"/>
<path d="M391.907,413.542c35.769-36.081,55.468-83.927,55.468-134.724c0-105.524-85.85-191.375-191.375-191.375
	S64.625,173.294,64.625,278.818c0,105.52,85.843,191.367,191.362,191.374c0.004,0,0.009,0.001,0.013,0.001s0.008-0.001,0.012-0.001
	c40.57-0.002,79.337-12.55,112.113-36.285c3.355-2.43,4.105-7.119,1.676-10.474c-2.429-3.354-7.118-4.105-10.474-1.675
	c-28.177,20.406-61.166,31.832-95.827,33.274v-19.437c0-4.142-3.358-7.5-7.5-7.5s-7.5,3.358-7.5,7.5v19.427
	c-91.299-3.84-164.865-77.405-168.704-168.704h19.427c4.142,0,7.5-3.358,7.5-7.5s-3.358-7.5-7.5-7.5H79.796
	c3.84-91.299,77.405-164.865,168.704-168.704v19.427c0,4.142,3.358,7.5,7.5,7.5s7.5-3.358,7.5-7.5v-19.427
	c91.299,3.84,164.865,77.405,168.704,168.704h-19.427c-4.142,0-7.5,3.358-7.5,7.5s3.358,7.5,7.5,7.5h19.431
	c-1.833,44.008-19.755,85.192-50.953,116.663c-2.917,2.942-2.896,7.69,0.046,10.606
	C384.242,416.504,388.991,416.483,391.907,413.542z"/>
<path d="M301.003,49.958v-24C301.003,11.645,289.358,0,275.045,0h-38.09c-14.313,0-25.958,11.645-25.958,25.958v24.038
	c-28.101,5.506-55.01,16.161-79.417,31.588c-3.501,2.213-4.545,6.846-2.333,10.347c2.213,3.501,6.846,4.545,10.347,2.333
	c24.697-15.611,52.139-25.992,80.768-30.709c11.769-1.939,23.709-2.918,35.636-2.918c12.138,0,24.295,1.008,36.266,3.016
	c0.095,0.016,0.191,0.011,0.286,0.024c44.379,7.443,85.267,28.405,117.726,60.864c41.209,41.209,63.904,96,63.904,154.278
	s-22.695,113.069-63.904,154.278S314.278,497,256,497s-113.069-22.695-154.278-63.904s-63.904-96-63.904-154.278
	c0-64.676,28.46-125.635,78.084-167.249c3.174-2.661,3.589-7.392,0.928-10.566c-2.662-3.174-7.392-3.589-10.566-0.927
	c-53.031,44.47-83.445,109.619-83.445,178.742c0,62.285,24.255,120.842,68.297,164.884C135.158,487.745,193.715,512,256,512
	s120.842-24.255,164.884-68.297s68.297-102.599,68.297-164.884s-24.255-120.842-68.297-164.884
	C387.646,80.696,346.139,58.736,301.003,49.958z M225.997,47.566V25.958c0-6.042,4.916-10.958,10.958-10.958h38.09
	c6.042,0,10.958,4.916,10.958,10.958v21.59c-4.797-0.612-24.828-1.911-30.003-1.911c-9.965,0-19.928,0.651-29.813,1.907
	C226.124,47.552,226.06,47.558,225.997,47.566z"/>
<path d="M141.669,393.148c2.25,2.25,5.739,2.83,8.593,1.437l77.033-37.601l21.778,52.454c1.162,2.799,3.896,4.624,6.927,4.624
	c3.031,0,5.765-1.825,6.927-4.624l21.622-52.077c23.21-8.433,41.545-26.771,49.984-49.99l52.088-21.626
	c2.799-1.162,4.624-3.896,4.624-6.927s-1.825-5.764-4.624-6.927l-52.454-21.779l37.601-77.032c1.405-2.877,0.828-6.329-1.437-8.593
	c-2.264-2.264-5.715-2.841-8.593-1.437l-77.032,37.601l-21.778-52.455c-1.162-2.799-3.896-4.624-6.927-4.624
	s-5.765,1.825-6.927,4.624l-21.622,52.077c-23.21,8.433-41.545,26.77-49.984,49.991L125.38,271.89
	c-2.799,1.162-4.624,3.896-4.624,6.927s1.825,5.765,4.624,6.927l52.455,21.778l-37.601,77.032
	C138.828,387.432,139.405,390.884,141.669,393.148z M245.153,267.972c3.443-3.442,8.059-5.417,12.665-5.417
	c3.983,0,7.645,1.468,10.311,4.134c2.82,2.82,4.284,6.704,4.123,10.936c-0.17,4.448-2.089,8.724-5.405,12.04
	c-3.442,3.442-8.059,5.417-12.666,5.417c-3.982,0-7.644-1.468-10.31-4.134c-2.82-2.82-4.284-6.704-4.123-10.936
	C239.918,275.563,241.838,271.288,245.153,267.972z M256,387.003l-15.2-36.611l38.127-18.61L256,387.003z M293.254,336.394
	l5.962-14.36l14.35-5.958C308.305,324.201,301.376,331.133,293.254,336.394z M327.574,263.618l36.61,15.201l-55.221,22.927
	L327.574,263.618z M295.943,294.224l-4.569,9.361l-9.201-9.202c3.086-4.873,4.849-10.433,5.068-16.187
	c0.323-8.454-2.698-16.308-8.505-22.115c-5.499-5.5-12.927-8.528-20.917-8.528c-6.088,0-12.141,1.812-17.372,5.104l-9.214-9.213
	l117.49-57.35L295.943,294.224z M256,170.633l15.2,36.611l-38.127,18.61L256,170.633z M218.746,221.242l-4.452,10.722l-1.51,3.638
	l-2.189,0.909l-12.161,5.049C203.694,233.435,210.625,226.503,218.746,221.242z M203.036,255.892l-18.61,38.127l-36.611-15.2
	L203.036,255.892z M220.626,254.051l9.201,9.201c-3.086,4.873-4.849,10.433-5.068,16.187c-0.323,8.454,2.697,16.308,8.505,22.115
	c5.5,5.5,12.929,8.528,20.917,8.528c6.089,0,12.141-1.812,17.371-5.104l9.214,9.214l-117.49,57.349L220.626,254.051z"/>
<g>
</g>
<g>
</g>
<g>
</g>
<g>
</g>
<g>
</g>
<g>
</g>
<g>
</g>
<g>
</g>
<g>
</g>
<g>
</g>
<g>
</g>
<g>
</g>
<g>
</g>
<g>
</g>
<g>
</g>
</svg>
