<?xml version="1.0" encoding="UTF-8" standalone="no"?>
<!-- Created with Inkscape (http://www.inkscape.org/) -->

<svg
   xmlns:dc="http://purl.org/dc/elements/1.1/"
   xmlns:cc="http://creativecommons.org/ns#"
   xmlns:rdf="http://www.w3.org/1999/02/22-rdf-syntax-ns#"
   xmlns:svg="http://www.w3.org/2000/svg"
   xmlns="http://www.w3.org/2000/svg"
   xmlns:sodipodi="http://sodipodi.sourceforge.net/DTD/sodipodi-0.dtd"
   xmlns:inkscape="http://www.inkscape.org/namespaces/inkscape"
   version="1.1"
   id="svg2"
   xml:space="preserve"
   width="1185.1852"
   height="666.66669"
   viewBox="0 0 1185.1852 666.66669"
   sodipodi:docname="sunset.svg"
   inkscape:version="0.92.3 (unknown)"><metadata
     id="metadata8"><rdf:RDF><cc:Work
         rdf:about=""><dc:format>image/svg+xml</dc:format><dc:type
           rdf:resource="http://purl.org/dc/dcmitype/StillImage" /><dc:title></dc:title></cc:Work></rdf:RDF></metadata><defs
     id="defs6"><clipPath
       clipPathUnits="userSpaceOnUse"
       id="clipPath18"><path
         d="M 0,0 H 500 V 500 H 0 Z"
         id="path16"
         inkscape:connector-curvature="0" /></clipPath><linearGradient
       x1="0"
       y1="0"
       x2="1"
       y2="0"
       gradientUnits="userSpaceOnUse"
       gradientTransform="matrix(0,500,500,0,250,0)"
       spreadMethod="pad"
       id="linearGradient30"><stop
         style="stop-opacity:1;stop-color:#f1bc7d"
         offset="0"
         id="stop24" /><stop
         style="stop-opacity:1;stop-color:#f39773"
         offset="0.451358"
         id="stop26" /><stop
         style="stop-opacity:1;stop-color:#f2485f"
         offset="1"
         id="stop28" /></linearGradient><clipPath
       clipPathUnits="userSpaceOnUse"
       id="clipPath92"><path
         d="M 0,0 H 500 V 500 H 0 Z"
         id="path90"
         inkscape:connector-curvature="0" /></clipPath><clipPath
       clipPathUnits="userSpaceOnUse"
       id="clipPath100"><path
         d="M 56.5125,500 H 451.054 V 365.945 H 56.5125 Z"
         id="path98"
         inkscape:connector-curvature="0" /></clipPath><clipPath
       clipPathUnits="userSpaceOnUse"
       id="clipPath116"><path
         d="M 306.799,254.051 H 572.041 V 197.634 H 306.799 Z"
         id="path114"
         inkscape:connector-curvature="0" /></clipPath><clipPath
       clipPathUnits="userSpaceOnUse"
       id="clipPath132"><path
         d="M -92.0618,264.122 H 226.741 V 198.736 H -92.0618 Z"
         id="path130"
         inkscape:connector-curvature="0" /></clipPath><clipPath
       clipPathUnits="userSpaceOnUse"
       id="clipPath184"><path
         d="M -58.8012,448.454 H 513.443 V 259.391 H -58.8012 Z"
         id="path182"
         inkscape:connector-curvature="0" /></clipPath><clipPath
       clipPathUnits="userSpaceOnUse"
       id="clipPath248"><path
         d="M 0,0 H 500 V 500 H 0 Z"
         id="path246"
         inkscape:connector-curvature="0" /></clipPath><clipPath
       clipPathUnits="userSpaceOnUse"
       id="clipPath260"><path
         d="M 0,500 H 500 V 0 H 0 Z"
         id="path258"
         inkscape:connector-curvature="0" /></clipPath></defs><sodipodi:namedview
     pagecolor="#ffffff"
     bordercolor="#666666"
     borderopacity="1"
     objecttolerance="10"
     gridtolerance="10"
     guidetolerance="10"
     inkscape:pageopacity="0"
     inkscape:pageshadow="2"
     inkscape:window-width="1920"
     inkscape:window-height="1044"
     id="namedview4"
     showgrid="false"
     inkscape:zoom="0.70799998"
     inkscape:cx="313.81349"
     inkscape:cy="402.3404"
     inkscape:window-x="0"
     inkscape:window-y="0"
     inkscape:window-maximized="1"
     inkscape:current-layer="g86" /><g
     id="g10"
     inkscape:groupmode="layer"
     inkscape:label="1959975"
     transform="matrix(1.3333333,0,0,-1.3333333,0,666.66667)"><g
       id="g12"
       transform="scale(1.786017,1)"><g
         id="g14"
         clip-path="url(#clipPath18)"><g
           id="g20"><g
             id="g22"><path
               d="M 0,0 H 500 V 500 H 0 Z"
               style="fill:url(#linearGradient30);stroke:none"
               id="path32"
               inkscape:connector-curvature="0" /></g></g><g
           id="g34"
           transform="translate(497.1084,308.0171)"><path
             d="m 0,0 c -0.182,0.348 -0.439,0.579 -0.807,0.56 -3.814,-0.195 -5.535,-5.197 -6.39,-8.885 -0.02,0.015 -0.046,0.024 -0.063,0.042 -0.732,0.751 -0.72,2.681 -1.58,3.515 0.005,0.101 0.016,0.202 0.016,0.3 0,1.066 -0.372,2.859 -1.636,2.795 -1.878,-0.097 -5.395,-3.827 -6.441,-7.783 -2.091,-1.019 -5.041,-1.62 -5.667,-3.935 -0.004,-0.016 -0.006,-0.032 -0.006,-0.048 0,-0.4 1.228,-0.894 1.228,-1.534 0,-0.937 -2.328,-1.197 -2.328,-2.14 0,-0.375 -0.055,-0.741 1.297,-0.672 1.428,0.074 2.865,0.901 4.353,0.977 1.603,0.082 1.083,-0.96 -0.353,-2.367 -0.855,0.164 -1.719,0.225 -2.576,0.181 -3.611,-0.184 -7.097,-2.121 -9.337,-5.014 -0.709,-0.915 -2.466,-1.603 -3.374,-2.436 -1.113,-1.021 -2.022,-2.184 -2.819,-3.452 -2.806,1.372 -0.328,7.016 -5.025,6.776 -1.162,-0.06 -0.123,0.081 -0.123,2.225 0,0.68 -0.137,1.19 -2.05,1.093 -1.689,-0.086 -3.295,-0.983 -4.684,-2.214 -1.51,0.447 -3.053,0.674 -4.592,0.595 -2.452,-0.125 -4.894,-1.022 -7.175,-3.028 -1.288,3.776 -3.101,4.523 -6.387,4.355 -6.227,-0.318 -16.339,-8.333 -16.339,-15.115 0,-1.341 0.311,-2.657 0.952,-3.834 -1.684,-0.076 -3.572,0.165 -3.657,0.161 -4.467,-0.228 -2.775,-5.387 -6.516,-5.578 -3.182,-0.163 -5.705,-3.661 -7.48,-6.269 -0.749,0.705 -1.717,1.311 -2.708,1.26 -1.74,-0.089 -7.192,-4.906 -7.697,-10.888 -6.721,-3.599 -13.531,-7.726 -17.7,-15.188 -1.881,-3.369 -15.124,0.839 -15.124,-10.891 0,-2.013 0.265,-4.147 0.336,-6.104 -3.625,-1.682 -6.914,-4.227 -9.334,-7.388 -1.02,0.962 -2.217,1.33 -3.435,1.268 -2.377,-0.122 -4.825,-1.888 -6.18,-4.091 -4.145,0.275 -4.949,7.91 -8.808,10.269 -3.611,-0.185 -4.305,1.107 -4.305,3.013 0,1.329 0.398,2.828 0.398,4.221 0,1.821 -1.711,3.216 -2.846,3.158 -0.254,-0.013 -0.509,-0.031 -0.763,-0.05 0.039,0.142 0.065,0.282 0.065,0.415 0,0.817 -1.394,1.637 -2.945,1.558 -1.167,-0.06 -2.392,-0.52 -3.448,-0.978 0,1.153 -0.707,2.616 -1.939,2.554 -0.806,-0.041 -1.698,-0.587 -2.413,-0.688 -0.012,-0.002 -0.024,-0.003 -0.034,-0.004 -0.588,-0.029 -1.025,1.293 -2.155,1.236 -0.02,-0.001 -0.041,-0.003 -0.062,-0.005 -1.203,-0.114 -2.4,-0.519 -3.442,-1.147 -0.804,0.703 -1.223,1.229 -1.225,1.229 -1.762,-0.09 -5.216,-3.242 -8.074,-3.389 -1.956,-0.099 -6.381,2.601 -2.254,2.812 0.626,0.032 1.875,-0.034 1.956,-0.03 1.373,0.071 2.814,1.62 2.814,3.03 0,1.049 -0.907,2.746 -4.124,2.582 -1.281,-0.066 -3.026,-0.466 -3.026,-0.466 -0.172,-0.009 -1.573,2.222 -3.849,2.105 -2.99,-0.152 -1.9,-2.182 -2.62,-2.709 -0.614,0.076 -1.23,0.115 -1.837,0.084 -3.029,-0.155 -4.908,-2.217 -4.995,-4.112 -0.516,0.863 -1.522,1.31 -2.633,1.253 -3.613,-0.185 -4.78,-4.322 -6.012,-6.383 -0.645,-1.078 -1.753,-1.902 -2.909,-2.74 -0.333,-0.123 -0.645,-0.201 -0.935,-0.216 -1.919,-0.098 -4.552,0.299 -6.929,0.178 -6.057,-0.31 -6.726,-7.915 -9.18,-12.08 -2.596,-4.405 -7.096,-7.446 -11.931,-8.805 -5.102,-1.434 -9.444,0.125 -14.463,-0.132 -0.965,-0.049 -2.723,-0.559 -2.723,-0.559 0,2.288 -1.9,3.532 -4,3.424 -1.911,-0.097 -8.357,-2.229 -14.364,-7.512 -0.041,-0.007 -0.083,-0.013 -0.125,-0.021 -2.971,3.7 -9.601,1.026 -13.139,2.603 -1.537,0.685 -1.271,4.769 -5.208,4.568 -2.304,-0.117 -4.536,-1.71 -6.273,-1.799 -2.364,-0.121 -4.727,0.094 -7.091,-0.027 -2.363,-0.12 -4.727,-0.576 -7.091,-2.04 0,3.83 -2.84,8.454 -6.467,8.268 -2.076,-0.105 -4.082,-1.47 -5.822,-1.559 -2.932,-0.15 -5.834,6.405 -11.687,6.106 -2.456,-0.126 -5.253,-1.603 -5.253,-1.603 -0.204,-0.011 -0.724,6.335 -5.268,6.103 -5.906,-0.301 -8.45,-7.895 -12.1,-12.313 -1.422,-0.072 -2.879,0.086 -4.217,0.017 -2.045,-0.104 -4.11,-0.965 -4.11,-2.975 0,-1.315 0.116,-1.878 0.17,-2.059 -0.096,0.184 -0.473,0.669 -1.536,0.616 -0.601,-0.032 -1.214,-0.198 -1.6,-0.217 -0.164,-0.009 -3.2,0.641 -4.574,0.572 -1.516,-0.077 -3.662,-0.532 -1.94,-2.26 4.393,-4.406 10.872,-5.871 16.934,-6.856 6.555,-1.067 13.245,-1.195 19.904,-1.485 99.416,-4.33 200.571,-10.291 300.396,10.161 -4.528,1.697 -15.849,-0.022 -12.956,2.711 4.124,1.65 10.241,3.949 10.241,6.974 -0.001,0.681 -2.218,0.332 -2.618,0.378 -1.662,0.192 -1.347,1.358 -2.751,1.805 -0.629,0.199 -1.317,0.148 -1.986,0.151 -3.518,0.016 -7.459,0.767 -10.591,2.208 -1.357,0.626 -5.04,2.929 -1.848,4.022 19.036,6.511 38.05,12.916 58.076,13.939 52.202,2.666 -27.065,-20.804 30.833,-18.312 V 1.844 C 1.869,1.406 0.911,0.771 0,0"
             style="fill:#f3a878;fill-opacity:1;fill-rule:nonzero;stroke:none"
             id="path36"
             inkscape:connector-curvature="0" /></g><g
           id="g38"
           transform="translate(393.9463,195.3154)"><path
             d="M 0,0 C -8.603,-0.764 -17.471,-1.105 -25.848,-1.07 -45.639,-0.987 3.353,2.704 11.07,11.205 -5.165,6.38 -10.994,6.25 -23.79,4.718 c -3.419,-0.41 -7.413,-0.306 -10.276,-0.684 -2.262,-0.298 -4.326,0.054 -6.436,0.168 5.987,1.465 7.608,2.959 -18.894,-0.827 0.58,-0.29 1.162,-0.36 1.743,-0.36 0.547,0 1.092,0.061 1.636,0.061 0.216,0 0.432,-0.01 0.647,-0.036 1.757,-0.223 3.546,-0.351 5.334,-0.351 0.378,0 0.825,0.024 1.32,0.068 -3.977,-0.947 -8.134,-1.541 -12.066,-2.237 -6.834,-1.212 -13.7,-2.247 -20.587,-3.111 -2.045,0 4.976,2.969 4.976,4.682 0,0.329 -0.071,0.629 -0.203,0.895 -4.908,-1.124 -9.817,-2.246 -14.729,-3.355 -5.18,-1.17 -10.36,-2.339 -15.539,-3.509 -0.426,-0.096 2.525,-1.668 2.861,-1.751 8.979,-2.214 18.347,-1.671 27.492,-1.199 10.213,0.526 20.402,1.653 30.638,1.653 4.748,0 9.467,-0.275 14.138,-1.03 -46.304,-6.518 -93.952,-5.014 -140.256,-9.024 12.232,0.358 24.57,0.444 36.963,0.444 11.49,0 23.027,-0.074 34.568,-0.074 21.134,0 42.289,0.737 63.342,2.654 10.52,0.958 20.974,2.465 31.433,3.929 1.658,0.232 2.581,0.547 3.494,1.266 0.449,0.354 0.896,0.806 1.427,1.393 0.603,0.666 1.541,1.08 2.345,1.432 7.004,3.07 10.941,4.438 18.438,5.546 2.533,0.375 7.364,1.724 7.605,2.574 C 22.124,2.882 12.017,0.549 0,0"
             style="fill:#f3a878;fill-opacity:1;fill-rule:nonzero;stroke:none"
             id="path40"
             inkscape:connector-curvature="0" /></g><g
           id="g42"
           transform="translate(200.7471,187.3564)"><path
             d="m 0,0 c 4.647,-0.902 9.603,-0.855 14.319,-1.047 7.278,-0.296 14.562,-0.468 21.845,-0.607 14.897,-0.287 29.862,-0.695 44.739,0.205 -2.353,0.772 -4.863,0.945 -7.341,1.111 C 63.41,0.345 53.257,1.027 43.092,1.498 33.158,1.958 23.319,1.774 13.429,1.774 7.044,1.774 28.058,4.459 2.574,4.459 0.054,4.459 -2.459,4.43 -4.967,4.43 -28.887,4.43 -4.683,3.047 4.456,1.044 3.227,-0.299 1.382,0.597 0,0"
             style="fill:#f3a878;fill-opacity:1;fill-rule:nonzero;stroke:none"
             id="path44"
             inkscape:connector-curvature="0" /></g><g
           id="g46"
           transform="translate(272.9189,192.7275)"><path
             d="m 0,0 c 1.941,-0.04 3.959,-0.092 5.981,-0.092 11.265,0 22.43,2.835 -9.71,0.539 C -2.535,0.074 -1.229,0.025 0,0"
             style="fill:#f3a878;fill-opacity:1;fill-rule:nonzero;stroke:none"
             id="path48"
             inkscape:connector-curvature="0" /></g><g
           id="g50"
           transform="translate(412.8906,219.0684)"><path
             d="m 0,0 c -9.391,-2.484 -18.938,-3.37 -28.716,-4.122 32.057,10.453 13.408,4.58 13.408,8.306 0,5.252 47.092,18.528 42.071,14.064 C 23.107,15 15.271,13.762 15.271,9.495 c 0,-0.427 0.446,-0.538 1.128,-0.538 0.742,0 1.762,0.132 2.792,0.132 C 19.901,9.088 20.77,9.106 21.25,8.634 17.137,5.414 10.878,3.515 5.98,1.818 3.993,1.13 2,0.529 0,0"
             style="fill:#f3a878;fill-opacity:1;fill-rule:nonzero;stroke:none"
             id="path52"
             inkscape:connector-curvature="0" /></g><g
           id="g54"
           transform="translate(380.2969,212.6719)"><path
             d="m 0,0 c -0.597,0.047 -1.193,0.069 -1.79,0.069 -5.104,0 -10.169,-1.633 -14.876,-3.536 C -11.073,-3.355 -4.921,-3.02 0,0"
             style="fill:#f3a878;fill-opacity:1;fill-rule:nonzero;stroke:none"
             id="path56"
             inkscape:connector-curvature="0" /></g><g
           id="g58"
           transform="translate(408.708,200.2568)"><path
             d="M 0,0 C 7.605,1.483 17.001,1.669 21.699,7.605 14.093,5.75 7.158,2.782 0,0"
             style="fill:#f3a878;fill-opacity:1;fill-rule:nonzero;stroke:none"
             id="path60"
             inkscape:connector-curvature="0" /></g><g
           id="g62"
           transform="translate(429.7734,238.958)"><path
             d="m 0,0 c 80.653,23.855 31.215,10.606 29.585,10.431 9.395,3.58 16.331,8.837 26.621,14.094 C 43.863,19.15 9.013,7.683 15.943,7.683 c 1.11,0 27.026,5.047 -4.702,-3.515 C 7.259,3.093 3.804,1.343 0,0"
             style="fill:#f3a878;fill-opacity:1;fill-rule:nonzero;stroke:none"
             id="path64"
             inkscape:connector-curvature="0" /></g><g
           id="g66"
           transform="translate(470.9346,240.4395)"><path
             d="m 0,0 c 4.456,1.4 8.65,2.684 13.273,3.579 0,0 -5.13,-4.792 -13.156,-4.792 -0.827,0 -1.662,0.055 -2.503,0.168 C -1.79,-0.299 -0.766,-0.241 0,0"
             style="fill:#f3a878;fill-opacity:1;fill-rule:nonzero;stroke:none"
             id="path68"
             inkscape:connector-curvature="0" /></g><g
           id="g70"
           transform="translate(339.3594,203.1855)"><path
             d="M 0,0 C 9.354,1.227 18.791,2.308 28.187,4.229 16.777,-2.307 2.014,-0.769 -11.186,-1.729 -7.383,-1.153 -3.862,-0.506 0,0"
             style="fill:#f3a878;fill-opacity:1;fill-rule:nonzero;stroke:none"
             id="path72"
             inkscape:connector-curvature="0" /></g><g
           id="g74"
           transform="translate(432.9424,198.6904)"><path
             d="M 0,0 C 4.032,0.391 7.755,2.088 11.633,3.132 9.359,0.102 5.83,-0.729 2.241,-0.729 0.885,-0.729 -0.48,-0.611 -1.79,-0.447 -1.193,-0.298 -0.594,-0.058 0,0"
             style="fill:#f3a878;fill-opacity:1;fill-rule:nonzero;stroke:none"
             id="path76"
             inkscape:connector-curvature="0" /></g><g
           id="g78"
           transform="translate(467.877,221.5088)"><path
             d="M 0,0 C -8.579,-3.677 -20.593,-7.81 -11.869,-7.81 0.835,-7.81 6.055,-1.55 6.055,0.3 6.055,0.937 4.63,1.063 4.02,1.063 2.604,1.063 1.237,0.529 0,0"
             style="fill:#f3a878;fill-opacity:1;fill-rule:nonzero;stroke:none"
             id="path80"
             inkscape:connector-curvature="0" /></g><g
           id="g82"
           transform="translate(193.52,185.8437)"><path
             d="m 0,0 c -1.478,0 -3.277,-0.524 -4.764,-0.524 -1.307,0 -14.105,4.758 -18.342,14.287 -0.568,1.277 -1.647,1.872 -2.888,2.209 -0.403,0.934 -1.608,1.432 -2.886,1.432 -0.731,0 -1.485,-0.166 -2.13,-0.504 -0.105,0.037 -0.211,0.071 -0.31,0.113 0.005,0.08 0.014,0.158 0.014,0.239 0,0.259 -0.028,0.502 -0.07,0.738 0.384,1.19 0.539,2.501 0.539,3.59 0,2.332 -0.883,4.584 -3.171,4.584 -0.115,0 -0.238,-0.011 -0.364,-0.024 -0.076,1.778 -0.968,3.108 -1.879,3.647 -1.269,2.57 -3.103,4.406 -6.119,4.406 -1.678,0 -3.503,-0.412 -5.245,-0.412 -5.068,0 -1.855,2.67 -9.089,2.67 -14.172,0 -13.749,-11.535 -13.749,-4.997 0,1.369 -1.525,7.55 -6.901,7.55 -1.252,0 -2.722,-0.241 -3.781,-0.772 -0.966,2.896 -2.523,3.868 -4.332,3.868 -2.122,0 -4.59,-1.337 -6.855,-2.469 -0.942,2.826 -2.255,6.701 -5.307,6.701 -1.34,0 -2.782,-0.683 -4.481,-1.107 -0.783,3.914 -3.093,7.145 -6.205,8.755 -0.04,0.127 -0.095,0.252 -0.142,0.378 0.57,0.143 1.174,0.567 1.174,1.288 0,0.896 -0.655,1.449 -1.52,1.458 -0.041,2.038 -1.412,3.9 -3.515,3.9 -0.481,0 -0.798,-0.222 -0.994,-0.511 -0.063,0.616 -0.122,1.343 -1.444,1.343 -3.215,0 -4.917,-1.797 -4.917,-3.213 0,-1.456 0.247,-2.278 0.506,-2.717 -0.279,0.076 -0.673,0.131 -1.217,0.131 -0.734,0 -1.162,-0.471 -1.162,-0.848 0,-0.252 0.114,-0.573 0.114,-0.775 0,-0.142 -2.118,-0.532 -2.118,-1.879 0,-0.353 0.121,-0.71 0.305,-1.038 -0.757,0.111 -1.511,0.195 -2.257,0.246 0.375,0.922 0.571,1.862 0.571,2.69 0,2.412 -1.611,3.946 -3.274,3.946 -0.462,0 -0.935,-0.107 -1.403,-0.271 -0.08,0.241 -0.204,0.465 -0.366,0.666 0.173,0.437 0.257,0.903 0.257,1.377 0,1.422 -0.655,2.671 -1.899,2.671 -0.72,0 -1.411,-0.182 -2.026,-0.466 -3.497,3.589 -3.586,8.14 -9.027,8.14 -0.77,0 -1.758,-0.142 -1.845,-0.142 -0.304,0 -0.572,0.045 -0.814,0.125 -0.896,4.155 -1.8,7.807 -5.239,8.773 0.16,0.396 0.252,0.84 0.252,1.338 0,0.727 -0.446,1.322 -0.943,1.654 -1.753,0 0.238,-0.149 0.238,2.468 0,1.573 -0.88,3.186 -2.237,4.305 0.235,0.359 0.379,0.796 0.379,1.296 0,1.61 -1.64,3.364 -3.51,3.949 -0.124,0.303 -0.252,0.601 -0.381,0.898 0.059,0.289 0.093,0.6 0.093,0.942 0,2.495 -2.14,5.035 -4.351,6.778 -0.414,0.601 -0.838,1.173 -1.265,1.73 0.002,0.07 0.009,0.138 0.009,0.207 0,2.213 -1.473,4.904 -4.191,4.904 -0.172,0 -0.343,-0.015 -0.515,-0.037 -3.18,2.787 -6.32,4.324 -8.725,4.324 -6.722,0 -13.066,-6.817 -17.806,-15.691 V 48.565 c 6.798,-4.027 16.955,-3.054 27.089,-5.438 -1.154,-1.154 -4.733,-2.377 -4.733,-3.498 0,-1.13 25.262,-17.037 65.84,-17.037 1.653,0 3.303,0.033 4.952,0.08 0.219,-0.081 0.39,-0.154 0.498,-0.22 -7.185,-2.348 30.941,-14.354 33.943,-15.598 -7.684,-0.932 -25.981,-3.206 -25.981,-7.19 0,-0.473 1.656,-1.047 4.465,-1.669 23.465,-7.527 48.147,-9.424 72.786,-9.831 5.665,-0.251 11.293,-0.372 16.837,-0.372 3.019,0 6.013,0.035 8.976,0.103 C 10.168,-4.235 2.509,0 0,0"
             style="fill:#f3a878;fill-opacity:1;fill-rule:nonzero;stroke:none"
             id="path84"
             inkscape:connector-curvature="0" /></g></g></g><g
       id="g86"><g
         id="g94"
         transform="translate(212.7228,-8.029)"><g
           id="g96" /><g
           id="g108"><g
             style="opacity:0.19999701"
             id="g106"
             clip-path="url(#clipPath100)"><g
               id="g104"
               transform="translate(65.0459,457.9971)"><path
                 inkscape:connector-curvature="0"
                 id="path102"
                 style="fill:#f3a878;fill-opacity:1;fill-rule:nonzero;stroke:none"
                 d="M 0,0 C -0.692,1.842 0.125,3.475 1.35,5.108 2.167,5.517 3.392,4.292 4.208,4.7 c 1.226,0.817 1.634,2.042 1.23,3.606 0.026,1.248 0.33,3.404 1.695,3.404 1.06,0 1.801,-1.021 1.997,-1.579 0.022,-0.033 0.045,-0.063 0.067,-0.099 0.33,0.292 0.697,0.474 1.073,0.474 1.33,0 1.791,-1.61 1.863,-2.977 0.013,-0.25 0.016,-0.507 0.019,-0.762 0.619,0.043 0.731,1.455 0.906,3.318 0.351,3.726 0.958,9.257 6.386,9.257 1.141,0 2.03,-0.5 2.48,-1.232 1.325,1.677 3.49,2.802 5.504,2.802 0.237,0 0.476,-0.02 0.716,-0.05 0.197,0.132 0.402,0.254 0.602,0.383 0.765,1.253 1.931,2.441 3.496,2.441 -0.138,2.62 2.762,3.858 5.646,3.858 1.398,0 2.82,-0.29 4.154,-0.813 0.045,0.01 0.09,0.023 0.135,0.033 -0.145,0.235 -0.301,0.432 -0.309,0.576 -0.019,0.369 0.3,0.799 1.214,0.799 0.137,0 0.273,-0.006 0.405,-0.006 1.562,0 0.647,1.568 3.122,1.568 2.088,0 0.581,-0.691 3.734,-0.691 1.077,0 2.216,-0.395 3.199,-0.984 -0.195,0.393 -0.323,0.796 -0.345,1.204 -0.178,3.362 5.72,1.474 5.643,2.92 -0.05,0.957 -3.485,2.6 -3.559,3.995 -0.003,0.059 0.005,0.123 0.024,0.192 -0.378,0.438 -0.587,0.897 -0.609,1.309 -0.02,0.374 0.478,0.462 0.915,0.462 -0.31,0.465 -0.679,1.062 -0.708,1.598 -0.032,0.62 0.471,1.003 1.011,1.161 -0.056,0.144 -0.091,0.274 -0.096,0.375 -0.026,0.488 0.395,0.761 0.862,0.761 0.88,0 1.931,-0.969 2.442,-1.964 0.287,-0.031 0.638,-0.049 1.079,-0.049 0.561,0 1.127,-0.275 1.66,-0.633 4.29,-0.017 6.796,-2.777 6.83,-3.435 0.048,-0.895 -1.319,-1.413 -2.103,-1.413 -0.306,0 -0.616,0.069 -0.927,0.238 0.637,-0.29 1.263,-0.604 1.911,-0.868 0.769,-0.313 1.522,-0.64 2.257,-0.977 0.261,0.335 0.824,0.544 1.255,0.544 0.016,0 0.032,0 0.048,-10e-4 2.056,-0.076 3.63,-1.861 4.457,-3.597 4.204,-2.561 6.97,-5.088 7.032,-6.265 0.041,-0.768 -0.437,-1.128 -1.357,-1.271 1.128,-0.84 2.141,-1.895 2.2,-3.011 0.028,-0.537 -0.103,-0.569 -0.306,-0.569 -0.407,0 -6.01,3.028 -9.985,5.443 -1.499,0.588 -2.835,1.083 -3.728,1.083 -0.262,0 -0.72,-0.431 -0.674,-1.312 0.022,-0.418 0.127,-0.847 0.146,-1.207 0.011,-0.208 -0.001,-0.386 -0.084,-0.535 4.596,-3.374 7.319,-7.852 7.545,-12.112 0.28,-5.266 -2.233,-11.175 -9.161,-11.175 1.741,-1.905 2.52,-3.811 2.629,-5.847 0.49,-9.242 0.595,-1.97 6.456,-7.164 -0.489,0.975 -0.735,1.897 -0.781,2.761 -0.283,5.333 7.069,8.473 12.233,8.473 6.259,0 9.951,-5.685 10.118,-8.842 0.097,-1.827 -2.697,-3.114 -3.945,-4.995 3.778,0 5.388,-1.873 5.512,-4.216 0.114,-2.149 -0.561,-3.358 -1.023,-4.036 0.402,0.128 0.862,0.188 1.344,0.188 3.137,0 4.012,-2.24 4.304,-4.141 1.149,0.88 2.666,1.47 3.653,1.47 3.68,0 6.766,-4.808 6.766,-4.808 0,0 0.142,0.061 0.424,0.061 0.944,0 1.745,-0.493 2.679,-0.493 1.112,0 0.783,0.651 1.643,0.651 0.818,0 1.791,-0.727 1.824,-1.357 0.001,-0.009 -0.077,-0.6 -0.053,-1.059 0.063,-1.169 0.597,-2.113 1.376,-2.91 4.14,-2.678 6.504,-3.817 6.211,1.693 -0.298,5.629 4.703,15.698 15.868,15.698 0.103,0 0.194,-0.004 0.295,-0.004 -1.548,1.335 -2.703,2.634 -2.744,3.405 -0.039,0.75 0.349,1.722 1.206,2.505 0.857,0.784 2.183,1.381 4.017,1.381 5.117,0 10.554,-4.25 10.656,-6.189 0.034,-0.644 -0.327,-1.226 -1.927,-1.226 -1.294,0 -2.665,0.474 -3.782,0.474 -0.951,0 -1.471,-0.277 -1.426,-1.123 0.001,-0.029 0.009,-0.06 0.012,-0.09 4.764,-1.825 2.41,-6.029 4.643,-7.584 0.155,-0.108 0.313,-0.216 0.474,-0.323 5.17,-1.029 15.148,-2.183 15.332,-5.658 0.01,-0.188 -0.351,-0.531 -0.807,-0.531 -0.33,0 -0.653,0.148 -1.003,0.148 -0.45,0 0.498,-0.98 1.514,-2.091 6.641,-3.649 12.404,-7.825 12.711,-13.606 0.082,-1.541 -0.233,-3.2 -1.014,-4.99 0.693,0.219 1.282,0.335 1.536,0.335 0.739,0 1.488,-0.321 2.135,-0.785 0.163,1.8 1.618,3.731 3.55,3.731 0.586,0 1.733,-0.303 2.755,-0.993 1.021,-0.689 1.917,-1.762 1.999,-3.308 0.181,-3.574 -1.025,-3.349 -2.319,-2.836 -0.012,-0.149 -0.017,-0.299 -0.01,-0.445 0.047,-0.883 0.391,-1.741 0.925,-2.549 0.695,-0.878 1.502,-1.598 2.386,-2.194 0.886,-0.597 1.851,-1.07 2.863,-1.453 11.172,-0.804 23.014,-8.154 32.814,-2.846 2.858,1.225 -1.633,7.35 -2.858,11.433 -0.306,1.225 -0.331,2.399 -0.127,3.491 0.204,1.09 0.637,2.099 1.25,2.98 1.327,2.105 2.961,2.921 5.002,3.33 -2.859,0.817 -5.717,0.817 -8.654,2.073 -0.979,0.251 -1.945,0.507 -2.891,0.807 -1.894,0.602 -3.713,1.39 -5.421,2.503 -0.955,0.734 -1.682,1.566 -2.084,2.504 -0.402,0.937 -0.483,1.981 -0.142,3.138 0.306,0.918 1.044,1.325 2.053,1.392 4.889,-0.167 8.563,-2.617 13.019,-4.171 1.093,-0.397 2.173,-0.825 3.211,-1.359 1.037,-0.532 2.032,-1.171 2.951,-1.987 -0.817,-0.409 -1.225,-0.817 -2.042,-1.225 4.492,-0.409 6.534,2.858 11.025,1.225 1.226,-0.409 2.858,1.225 4.084,2.042 -0.409,0.408 -0.409,1.225 -0.817,1.225 -1.633,-0.409 -3.267,-0.409 -4.849,-0.102 -1.582,0.306 -3.113,0.918 -4.545,1.735 -0.814,0 -1.631,-0.409 -2.04,-0.409 -8.983,4.084 -17.559,8.575 -27.011,11.796 -0.942,0.395 -1.879,0.812 -2.798,1.272 0.409,0.408 0.817,0.816 1.224,0.815 -1.224,0.614 -1.53,1.43 -1.377,2.196 0.153,0.765 0.765,1.479 1.372,1.881 0.823,0.416 1.64,0.824 2.456,0.416 3.676,-3.267 11.842,-6.533 13.884,-0.817 0.408,2.042 -2.45,2.042 -4.083,2.859 0.408,-1.225 1.633,-2.042 2.45,-2.859 -2.042,-1.225 -4.084,-0.408 -5.717,0.409 -3.267,2.041 -6.125,3.674 -9.775,3.832 -1.258,0.239 -2.523,0.485 -3.763,0.747 -3.716,0.785 -7.195,1.703 -9.666,2.775 -0.595,-0.112 -1.045,-0.248 -1.038,-0.388 0.013,-0.237 1.316,-0.993 1.772,-1.676 -1.668,0.291 -8.649,1.523 -15.692,3.558 -2.596,0.605 -5.623,1.345 -8.88,2.193 -3.457,0.604 -6.819,1.259 -9.999,1.976 -1.589,0.358 -3.133,0.733 -4.622,1.127 -1.224,0.528 -2.525,1.055 -3.872,1.591 -1.347,0.541 -2.739,1.093 -4.141,1.748 -1.04,0.724 -2.058,1.466 -3.054,2.226 -0.996,0.765 -1.969,1.548 -2.92,2.354 -5.61,4.887 -10.51,11.012 -12.96,17.545 -0.409,1.225 2.859,1.225 4.084,2.451 -0.817,0 -2.042,0 -2.042,0.816 0,0.409 0.817,1.225 1.633,1.634 5.309,0.816 10.208,-2.042 15.517,-0.409 3.675,0.817 7.758,2.858 11.434,0.409 0,2.041 1.633,1.633 2.856,1.632 1.023,-0.101 2.018,-0.458 3.001,-0.898 2.947,-1.321 5.78,-3.389 8.843,-1.551 0.408,-1.633 1.633,-2.45 2.45,-4.084 0.408,-0.408 1.225,0 2.042,0 1.633,-0.612 2.858,-1.633 4.032,-2.755 1.174,-1.124 2.297,-2.349 3.726,-3.37 1.633,3.267 4.9,2.042 7.231,1.872 0.891,-0.278 1.75,-0.684 2.564,-1.191 3.257,-2.032 5.796,-5.703 6.827,-9.453 1.481,0.603 3.008,1.334 4.65,1.68 0.317,0.444 0.789,0.84 1.344,0.84 0.211,0 0.434,-0.023 0.645,-0.023 0.599,0 0.842,0.272 0.832,0.45 -0.009,0.17 -0.15,0.396 -0.161,0.604 -0.019,0.343 0.418,0.504 0.771,0.504 0.74,0 1.664,-0.931 2.604,-0.931 0.041,0 0.082,0.009 0.123,0.012 0.222,0.257 0.547,0.423 0.977,0.423 1.043,0 1.889,-1.115 2.877,-1.774 0.162,0.468 0.493,0.815 1.07,0.815 0.461,0 2.565,-1.156 3.364,-2.36 0.241,-0.116 0.382,-0.205 0.384,-0.253 0.018,-0.345 -0.059,-0.743 -0.038,-1.132 0.001,-0.017 0.009,-0.036 0.01,-0.053 1.092,-0.197 2.389,-0.317 2.444,-1.346 0.016,-0.303 -0.078,-0.624 -0.165,-0.907 0.847,-3.294 4.523,0.382 5.34,-2.069 0.408,-0.816 -2.451,-1.225 -1.634,-1.633 3.267,-1.633 6.942,0.408 10.209,0.408 1.634,0 3.266,0.409 4.782,-0.296 0.836,-0.021 1.68,-0.132 2.528,-0.316 4.241,-0.917 8.595,-3.635 12.755,-5.819 4.565,-1.699 8.477,-3.778 8.576,-5.651 0.028,-0.518 -1.267,-1.017 -2.649,-1.518 -2.274,-0.825 -2.652,-4.572 0.702,-3.73 0.13,0.033 0.264,0.069 0.396,0.103 -0.007,0.046 -0.017,0.091 -0.019,0.136 -0.1,1.889 2.222,1.998 4.181,1.998 0.29,0 0.615,-0.015 0.954,-0.041 0.169,0.119 0.337,0.239 0.493,0.37 1.32,1.111 2.317,2.402 3.134,3.85 -1.241,1.227 -3.336,1.301 -3.401,2.515 -0.077,1.46 5.037,1.586 6.183,1.586 0.06,0 0.118,-0.003 0.179,-0.004 1.016,0.716 2.328,1.073 4.28,1.073 1.606,0 3.208,-0.314 4.769,-0.705 1.561,-0.392 3.081,-0.861 4.519,-1.174 1.539,-0.135 3.988,-0.952 4.806,0.273 7.758,11.026 19.6,25.318 32.667,17.151 4.083,-2.451 0,-9.392 0.176,-14.715 0.091,-1.178 0.293,-2.286 0.645,-3.309 0.705,-2.048 2.013,-3.781 4.451,-4.883 1.027,-0.388 2.082,-0.638 3.16,-0.742 0.641,4.641 6.065,7.372 11.329,8.302 1.144,0.722 2.032,1.477 1.984,2.377 -0.043,0.819 -0.941,1.585 -0.988,2.475 -0.103,1.936 12.01,1.836 11.843,4.987 -0.07,1.321 -2.627,2.682 -2.64,2.933 -0.009,0.162 0.59,0.692 1.679,1.294 -0.235,0.326 -0.384,0.69 -0.406,1.097 -0.065,1.238 1.111,2.734 3.42,2.734 0.62,0 1.266,-0.093 1.895,-0.229 0.89,0.776 1.799,1.492 2.61,2.016 0.859,0.154 1.676,0.971 2.084,0.971 4.9,-0.817 8.575,-2.45 13.476,-2.45 -0.817,-0.816 -1.634,-0.816 -2.451,-1.225 2.042,0 4.901,-0.817 4.901,-1.225 -3.675,-8.575 -14.7,-10.209 -22.876,-12.232 -1.537,-0.236 -2.935,-0.504 -4.104,-0.833 -1.169,-0.329 -2.109,-0.72 -2.729,-1.204 1.728,-0.025 3.278,-0.482 3.425,-1.893 0.001,-0.009 0.002,-0.017 0.002,-0.026 0.016,-0.301 -0.218,-0.719 -0.373,-1.168 1.362,0.558 2.649,1.037 3.832,1.378 1.183,0.34 2.262,0.54 3.207,0.57 1.823,0.063 2.783,0.06 2.921,-2.694 0.067,-1.319 -0.391,-2.496 -1.14,-3.559 0.684,-0.313 1.133,-0.679 1.154,-1.074 0.018,-0.329 -0.507,-0.997 -1.521,-1.724 -1.015,-0.727 -2.52,-1.515 -4.463,-2.083 -1.678,-1.687 -3.022,-3.521 -2.898,-5.86 0.037,-0.695 0.061,-1.237 1.631,-1.237 0.672,0 1.46,0.09 2.165,0.09 1.034,0 1.891,-0.195 1.942,-1.163 0.594,-11.205 -10.649,-20.096 -20.301,-26.109 -4.136,-2.578 -12.283,-0.106 -13.783,-3.904 -1.591,-4.029 -3.76,-8.402 -8.61,-9.109 -1.39,-0.202 -2.794,-0.435 -4.207,-0.687 -8.407,-2.884 -18.898,-3.113 -18.67,-7.413 0.132,-2.495 -13.666,-2.477 -16.38,-2.477 -6.153,0 -11.417,0.638 -15.662,1.484 -3.572,0.096 -6.841,0.528 -9.841,1.196 0.017,-0.105 0.037,-0.21 0.042,-0.319 0.061,-1.138 -0.41,-1.854 -1.144,-2.357 -0.736,-0.504 -1.738,-0.796 -2.741,-1.088 -1.589,-0.665 -4.039,-1.074 -4.039,-3.523 0,-1.634 2.042,-2.45 2.66,-3.537 1.211,-1.073 2.416,-2.057 2.47,-3.081 0.058,-1.09 -2.525,-1.912 -6.383,-2.531 -1.285,-0.206 -2.713,-0.39 -4.232,-0.554 -3.907,-0.098 -8.399,-0.914 -12.533,-0.895 -1.608,0.194 -3.228,0.087 -4.857,-0.056 -1.629,-0.143 -3.265,-0.322 -4.905,-0.272 -1.362,-0.029 -2.547,-0.048 -3.491,-0.06 -0.944,-0.011 -1.645,-0.015 -2.04,-0.015 -24.717,0 -49.686,3.17 -73.93,9.521 -0.008,-0.057 -0.012,-0.117 -0.009,-0.182 0.201,-3.795 -22.438,1.038 -45.417,11.19 -5.176,1.501 -10.311,3.215 -15.308,5.225 -4.358,1.752 -10.201,3.37 -12.656,7.551 -0.198,0.337 -0.376,0.722 -0.279,1.083 0.248,0.926 2.047,0.119 1.078,1.618 -0.974,1.504 -4.032,2.278 -5.688,2.615 -4.659,0.95 -9.408,1.158 -14.067,2.226 -2.186,0.501 -4.352,1.118 -6.449,1.924 -1.36,0.525 -2.67,1.277 -3.967,1.932 -0.636,0.321 -1.349,0.832 -2.051,0.9 -1.163,0.112 -2.405,-0.547 -3.737,-0.342 -7.989,1.233 -17.481,6.702 -22.815,13.73 -0.764,1.004 -1.444,2.04 -2.053,3.106 -3.121,8.93 -9.655,15.055 -15.78,21.997 -1.225,1.225 -4.083,2.858 -2.45,4.9 1.634,1.225 3.675,1.633 5.773,1.809 C -1.35,-1 -0.531,-0.63 0,0" /></g></g></g></g><g
         id="g110"><g
           id="g112" /><g
           id="g124"><g
             style="opacity:0.5"
             id="g122"
             clip-path="url(#clipPath116)"><g
               id="g120"
               transform="translate(483.8037,225.5029)"><path
                 inkscape:connector-curvature="0"
                 id="path118"
                 style="fill:#f3a878;fill-opacity:1;fill-rule:nonzero;stroke:none"
                 d="M 0,0 C 29.242,3.526 59.098,10.338 88.237,12.786 V 28.548 C 44.82,18.732 0.533,12.593 -43.372,1.951 c 0,0 0.506,-1.535 1.758,-2.438 13.982,-10.083 96.81,-6.31 -135.391,-27.31 31.342,-0.453 63.933,1.327 95.975,2.926 70.693,3.527 107.716,8.866 107.716,10.286 C 26.686,-9.27 5.337,-2.664 0,0" /></g></g></g></g><g
         id="g126"
         transform="translate(92.0618,85.4247)"><g
           id="g128" /><g
           id="g140"><g
             style="opacity:0.5"
             id="g138"
             clip-path="url(#clipPath132)"><g
               id="g136"
               transform="translate(137.7896,212.4912)"><path
                 inkscape:connector-curvature="0"
                 id="path134"
                 style="fill:#f3a878;fill-opacity:1;fill-rule:nonzero;stroke:none"
                 d="M 0,0 C -0.692,0.02 -1.383,0.029 -2.074,0.037 -45.855,15.132 -95.584,15.858 -140.8,28.1 c 11.045,7.605 24.155,10.485 -89.052,23.53 V 26.251 c 128.509,-6.034 53.784,-0.27 53.784,-12.873 0,-2.061 85.359,-11.309 154.772,-16.807 C 7.293,-7.32 48.066,-11.7 88.952,-13.755 71.845,-8.534 17.951,-0.523 0,0" /></g></g></g></g><g
         transform="translate(330.76269,111.24074)"
         id="g142"><path
           inkscape:connector-curvature="0"
           id="path144"
           style="fill:#f3a878;fill-opacity:1;fill-rule:nonzero;stroke:none"
           d="m 0,0 c -129.73,7.551 -260.429,10.935 -390.828,10.935 -12.593,0 -21.728,0.011 -28.354,0.008 V -1.613 c 24.98,0.389 49.975,0.571 74.983,0.571 44.651,0 89.338,-0.538 134.035,-1.31 -69.762,-0.773 -139.474,-1.576 -209.018,-2.523 V -22.729 H 245.516 V 3.438 C 163.899,2.055 81.997,0.971 0,0" /></g><g
         transform="translate(572.041,152.8633)"
         id="g146"><path
           inkscape:connector-curvature="0"
           id="path148"
           style="fill:#f3a878;fill-opacity:1;fill-rule:nonzero;stroke:none"
           d="m 0,0 c -47.848,-0.606 -95.694,-0.782 -143.54,-0.782 -61.326,0 -122.651,0.28 -183.977,0.28 -368.49,0 11.696,-9.057 232.009,-9.057 31.858,0 63.697,0.353 95.508,1.172 z" /></g><g
         transform="translate(564.2187,167.9609)"
         id="g150"><path
           inkscape:connector-curvature="0"
           id="path152"
           style="fill:#f3a878;fill-opacity:1;fill-rule:nonzero;stroke:none"
           d="m 0,0 c 2.625,0.702 5.232,1.476 7.822,2.326 v 12.559 c -10.575,4.009 -23.129,7.7 -32.041,10.603 -2.228,0.726 -4.228,1.4 -5.923,2.004 -1.393,1.707 -6.152,0.518 -4.962,2.897 1.19,2.379 5.948,1.784 8.676,2.857 1.673,0.475 3.485,1.017 5.384,1.613 9.494,2.981 21.189,7.296 28.866,10.973 v 7.151 c -6.743,-0.157 -13.485,-0.779 -20.228,-0.982 -1.349,-0.04 -2.697,-0.063 -4.045,-0.063 -4.722,-0.004 -6.69,-0.14 -6.102,0.423 0.294,0.283 1.227,0.742 2.774,1.474 1.547,0.733 3.708,1.735 6.458,3.11 -1.394,-0.189 -2.765,-0.379 -4.115,-0.57 -5.51,-1.046 -10.961,-2.035 -16.401,-2.964 -1.812,-0.309 -3.624,-0.613 -5.436,-0.911 -16.054,-3.673 -33.302,-4.862 -48.472,-10.649 -2.611,-1.4 -3.65,-2.709 -3.428,-3.96 0.222,-1.251 1.704,-2.442 4.118,-3.557 17.453,-6.919 36.487,-8.704 54.688,-13.189 1.254,-0.286 2.488,-0.574 3.699,-0.864 27.849,-6.675 43.122,-14.726 -13.605,-27.79 -7.396,-1.368 -15.087,-2.956 -13.206,-2.956 0.008,0 0.018,10e-4 0.028,0.002 0.631,0.075 1.277,0.155 1.933,0.24 0.007,-0.003 0.015,-0.006 0.04,-0.006 0.9,0 1.815,0.293 2.686,0.361 l -0.318,-0.034 c 2.991,0.411 6.104,0.886 9.014,1.369 4.477,0.682 8.408,1.305 9.746,1.305 13.764,0 33.166,4.986 28.945,4.986 -0.361,0 -0.721,-0.023 -1.082,-0.023 -1.971,0 2.464,1.439 4.487,2.265" /></g><g
         transform="translate(398.0391,152.8633)"
         id="g154"><path
           inkscape:connector-curvature="0"
           id="path156"
           style="fill:#f3a878;fill-opacity:1;fill-rule:nonzero;stroke:none"
           d="m 0,0 c 0.599,0.112 391.789,29.92 -279.715,46.612 -20.943,2.571 -65.323,5.881 -137.971,9.223 4.475,-1.635 9.612,-2.23 13.756,-4.46 0.456,-0.246 0.962,-0.356 1.492,-0.356 0.432,0 0.878,0.073 1.325,0.207 4.585,-3.085 9.729,-4.122 15.082,-4.122 0.831,0 1.681,0.027 2.541,0.077 1.622,-1.521 4.071,-2.434 6.504,-2.434 1.693,0 4.932,0.559 4.932,2.505 0,0.528 -0.308,0.977 -0.787,1.347 4.42,0.82 8.032,1.673 9.338,1.673 4.918,0 20.319,-4.276 25.558,-4.403 4.314,-2.889 9.739,-4.423 15.153,-4.423 3.376,0 6.746,0.601 9.841,1.838 1.019,-0.126 2.041,-0.248 3.064,-0.363 3.976,-2.395 9.29,-4.198 14.352,-4.198 3.485,0 6.384,1.006 7.84,1.782 1.548,-0.547 3.272,-0.76 5.016,-0.76 0.733,0 2.399,0.069 3.946,0.294 1.525,-0.166 3.056,-0.321 4.598,-0.459 24.817,-2.206 50.127,-4.152 74.953,-5.917 4.038,-2.301 8.635,-3.029 13.338,-3.029 4.484,0 11.25,0.905 13.264,1.189 0.49,-0.033 0.98,-0.066 1.471,-0.098 0.933,-0.337 1.937,-1.019 2.785,-1.019 4.74,0 4.719,-2.321 14.249,-2.321 3.872,0 8.069,0.762 11.178,1.475 3.459,-0.225 6.891,-0.448 10.293,-0.668 4.901,-1.977 12.099,-4.806 19.497,-4.806 1.603,0 7.409,0.421 8.75,1.768 3.506,-1.276 7.265,-1.895 11.048,-1.895 3.299,0 7.493,0.696 10.913,1.66 8.626,-0.579 16.871,-1.149 24.662,-1.716 3.72,-2.286 8.456,-3.468 13.092,-3.468 4.315,0 7.779,0.775 9.312,1.734 71.458,-5.959 84.135,-12.206 -48.138,-25.567 70.53,0 172.533,-5.574 243.065,-5.574 4.408,0 8.816,0.025 13.224,0.077 C 132.675,-7.702 40.146,-2.677 0,0" /></g><g
         transform="translate(265.0059,172.3672)"
         id="g158"><path
           inkscape:connector-curvature="0"
           id="path160"
           style="fill:#f3a878;fill-opacity:1;fill-rule:nonzero;stroke:none"
           d="m 0,0 c 20.669,-0.67 40.842,-3.965 61.461,-4.361 -5.347,-3.168 -10.89,-4.157 -16.581,-4.157 -7.488,0 -16.422,1.856 -18.79,1.856 -1.875,0 -3.738,-0.448 -5.627,-0.448 0,0 -31.168,6.317 -31.169,6.317 1.673,0.93 3.327,1.188 4.988,1.188 C -3.834,0.395 -1.941,0.063 0,0" /></g><g
         transform="translate(191.6494,173.9531)"
         id="g162"><path
           inkscape:connector-curvature="0"
           id="path164"
           style="fill:#f3a878;fill-opacity:1;fill-rule:nonzero;stroke:none"
           d="m 0,0 c 2.879,-1.621 6.176,-2.64 9.409,-2.64 1.907,0 20.056,2.703 -12.581,4.623 C -2.776,0.396 -0.978,0.551 0,0" /></g><g
         transform="translate(107.189,182.3486)"
         id="g166"><path
           inkscape:connector-curvature="0"
           id="path168"
           style="fill:#f3a878;fill-opacity:1;fill-rule:nonzero;stroke:none"
           d="m 0,0 c -3.374,0.315 -6.751,0.611 -10.127,0.895 -14.777,1.24 -29.643,2.647 -44.502,3.145 -0.142,0.005 -0.284,0.01 -0.425,0.015 -3.341,0.107 -13.284,0.134 -13.295,-0.22 -0.058,-1.802 21.249,-3.734 37.272,-4.929 12.121,-1.685 22.844,-3.177 22.844,-3.177 2.178,-0.071 6.96,0.176 12.14,0.009 8.403,-0.27 16.854,-1.589 25.373,-1.864 1.162,-0.037 10.118,-0.754 10.766,0.23 0.522,0.793 -4.927,1.496 -5.692,1.623 C 23.037,-2.396 11.538,-1.08 0,0" /></g><g
         transform="translate(323.8926,198.1777)"
         id="g170"><path
           inkscape:connector-curvature="0"
           id="path172"
           style="fill:#f3a878;fill-opacity:1;fill-rule:nonzero;stroke:none"
           d="m 0,0 c 207.001,-8.171 139.212,-7.79 110.61,2.243 -3.725,1.308 -7.62,1.678 -11.398,1.57 0,0 -21.561,-2.054 -51.287,-2.897 C 31.979,0.464 16.024,0.306 0,0" /></g><g
         transform="translate(119.1445,188.1143)"
         id="g174"><path
           inkscape:connector-curvature="0"
           id="path176"
           style="fill:#f3a878;fill-opacity:1;fill-rule:nonzero;stroke:none"
           d="M 0,0 C 33.982,-1.263 67.07,-6.509 100.751,-9.118 -15.333,-3.058 -23.798,0.697 -8.964,0.312 -5.958,0.233 -2.935,0.109 0,0" /></g><g
         id="g178"><g
           id="g180" /><g
           id="g196"
           transform="translate(213.6338,-11.1412)"><g
             style="opacity:0.69999701"
             id="g194"
             clip-path="url(#clipPath184)"><g
               id="g188"
               transform="translate(226.4141,288.8003)"><path
                 inkscape:connector-curvature="0"
                 id="path186"
                 style="fill:#f3a878;fill-opacity:1;fill-rule:nonzero;stroke:none"
                 d="m 0,0 c -0.889,0.809 -3.023,1.724 -5.934,1.724 -1.743,0 -3.543,-0.242 -5.29,-0.368 -1.936,1.194 -4.878,2.538 -8.264,3.835 0.517,0.574 0.807,1.221 0.807,1.955 0,3.936 -26.369,13.889 -55.867,17.824 -0.898,0.715 -1.877,1.417 -2.912,2.107 -0.77,2.404 -3.155,4.876 -7.548,4.876 -0.11,0 -0.22,-0.01 -0.33,-0.013 -1.881,2.493 -5.159,6.227 -8.337,6.227 -0.687,0 -1.406,-0.208 -2.075,-0.544 -0.945,1.287 -2.207,2.333 -3.715,2.333 -0.934,0 -1.911,-0.253 -2.792,-0.648 -4.442,1.921 -8.271,3.621 -10.634,5.075 -6.688,4.116 -1.835,10.685 -5.827,15.817 -0.79,1.016 -17.916,3.842 -4.692,3.842 3.746,0 5.112,2.164 5.112,3.292 0,3.233 -9.924,8.128 -10.41,8.684 -11.477,13.116 -13.465,12.671 -13.465,12.671 0,0.676 2.961,2.211 2.961,4.422 0,1.162 -0.796,2.194 -1.983,2.886 -3.36,1.96 -6.257,3.653 -8.757,5.127 -0.791,4.273 -0.554,9.525 -7.041,9.525 -1.168,0 -2.361,-0.882 -2.361,-2.139 0,-0.142 0.662,-1.222 1.686,-2.746 -15.532,9.678 2.762,2.029 2.762,16.63 0,8.084 -6.421,10.278 -15.477,10.869 -0.755,1.235 -1.605,2.218 -2.033,2.218 -0.386,0 -0.791,-0.196 -0.956,-0.196 -0.002,0 -1.397,4.89 -3.957,4.89 -3.208,0 -4.974,-3.538 -6.65,-6.403 -0.182,0.176 -0.363,0.351 -0.548,0.525 -0.284,0.576 -0.549,1.115 -0.549,1.723 0,1.158 0.615,2.186 0.615,3.513 0,2.623 -2.734,5.379 -4.888,5.379 -0.809,0 -1.613,-0.205 -2.382,-0.205 -1.628,0 -1.769,1.752 -3.276,1.752 -1.289,0 -1.321,-1.065 -2.802,-1.409 -1.296,0.867 -2.611,1.687 -3.935,2.453 -2.094,3.049 -3.755,6.686 -8.748,6.686 -2.868,0 -5.535,5.465 -9.054,5.465 -1.099,0 -2.724,-0.622 -3.375,-2.239 -2.652,1.215 -5.498,2.009 -8.365,2.009 -4.906,0 -13.207,-3.651 -13.459,-8.144 -0.382,0.514 -0.883,0.879 -1.529,0.879 -0.788,0 0.399,-2.137 1.859,-2.976 0.308,-0.847 0.807,-1.633 1.438,-2.344 -2.528,-0.362 -4.039,-2.823 -4.237,-5.264 -3.453,-2.212 -5.765,-4.074 -5.765,-4.828 0,-1.841 2.563,-3.758 5.828,-5.656 -1.157,-0.258 -1.675,-0.968 -1.675,-1.75 0,-1.595 2.536,-2.445 2.536,-3.171 v -0.009 c -0.002,-0.055 -0.003,-0.108 -0.003,-0.161 0,-3.714 4.19,-3.341 6.524,-4.418 0.879,-0.406 1.606,-1.177 2.396,-1.754 -0.161,-0.67 -0.71,-1.354 -1.197,-1.354 -0.009,0 -0.017,0 -0.026,0 -0.407,0.021 -0.822,0.056 -1.237,0.092 -0.917,0.666 -2.118,1.141 -3.61,1.141 -0.613,0 -1.225,-0.091 -1.729,-0.352 -0.044,0.009 -0.088,0.016 -0.131,0.025 -1.363,1.303 -2.838,2.248 -4.047,2.248 -0.561,0 -0.989,-0.539 -1.484,-0.539 -0.817,0 -1.194,1.435 -2.712,1.435 -0.481,0 -0.972,-0.102 -1.361,-0.102 -1.66,0 -2.963,4.402 -5.708,4.402 -1.34,0 -2.244,-0.804 -2.722,-1.918 -2.036,1.907 -4.417,3.947 -7.147,3.947 -1.399,0 -1.739,-0.421 -2.474,-0.421 -1.284,0 -3.222,0.943 -4.635,0.943 -1.526,0 -1.87,-1.215 -1.935,-2.806 -4.251,-1.785 -5.687,-7.102 -5.687,-10.154 0,-15.29 28.168,-30.207 44.954,-37.9 -1.006,-2.013 -3.389,-1.224 -3.389,-3.161 0,-2.726 11.055,-5.304 4.919,-5.304 -2.361,0 -4.7,0.62 -6.927,0.62 -15.865,0 14.191,-13.413 32.869,-23.79 24.463,-13.59 54.112,-11.654 80.751,-14.984 -11.962,0 -23.789,-0.258 -35.589,-0.258 -32.288,0 -58.659,3.795 -58.659,3.795 -58.422,0 104.53,-34.423 104.53,-22.909 0,1.79 7.269,1.786 9.041,1.786 7.653,0 15.084,-1.539 22.572,-2.382 12.558,-8.456 27.741,-11.112 42.926,-11.112 2.658,0 7.479,-0.005 12.412,0.348 0.055,-0.024 0.113,-0.046 0.168,-0.07 2.134,-0.933 4.339,-1.659 6.579,-2.213 1.621,-0.914 3.753,-0.878 5.579,-1.069 7.378,-0.771 14.76,-3.177 22.203,-3.177 1.615,0 8.286,0.189 8.286,2.121 C 8.01,-0.767 2.559,-0.022 0,0" /></g><g
               id="g192"
               transform="translate(513.375,364.5952)"><path
                 inkscape:connector-curvature="0"
                 id="path190"
                 style="fill:#f3a878;fill-opacity:1;fill-rule:nonzero;stroke:none"
                 d="m 0,0 c 0.672,3.333 -3.755,5.837 -8.085,5.837 -8.603,0 -20.688,-6.975 -29.627,-12.938 -0.021,0.317 0.038,0.735 0.15,1.296 0.196,0.966 0.543,2.164 0.785,3.359 0.665,3.303 0.189,5.397 -3.193,5.397 -3.718,0 -7.662,-3.373 -11.222,-4.972 0.55,4.699 3.127,11.369 -2.511,11.369 -3.114,0 -6.696,-2.111 -9.529,-4.886 -1.219,0.761 -2.589,1.247 -3.872,1.453 -0.365,14.983 -7.79,27.272 -21.918,27.272 -20.653,0 -38.849,-22.477 -41.462,-35.455 -0.681,-3.379 -0.504,-6.753 1.008,-9.948 -14.479,-1.277 -21.723,-8.596 -23.055,-15.206 -0.318,-1.578 -0.094,-3.257 -0.357,-4.564 -0.503,-2.495 -5.18,-3.504 -6.685,-10.976 -0.609,-3.023 -0.503,-6.069 -1.127,-9.163 -1.174,-5.831 -2.555,-5.75 -5.113,-5.75 -4.292,0 -6.961,8.249 -13.513,8.249 -5.488,0 -14.201,-5.935 -15.796,-13.85 -1.331,-6.61 3.399,-7.227 2.596,-11.218 -0.763,-3.787 -7.73,-7.175 -9.754,-9.772 -2.502,-1.571 -4.622,-3.777 -5.768,-6.224 -3.877,2.471 -11.414,6.571 -19.458,6.571 -11.906,0 -23.556,-7.999 -23.556,-7.999 -1.136,0 -3.249,0.735 -5.483,0.735 -2.283,0 -19.906,-5.583 -26.345,-12.93 3.708,1.242 7.356,1.664 10.994,1.664 5.996,0 11.966,-1.147 18.143,-1.664 7.073,-0.593 14.235,-0.891 21.459,-0.891 40.956,0 75.728,10.226 90.947,15.599 34.129,0.284 85.44,38.846 86.916,46.173 0.62,3.079 0.088,9.467 -4.908,9.467 -1.007,0 -3.868,-0.342 -7.866,-1.064 0.011,0.016 0.021,0.031 0.032,0.047 11.347,3.519 24.317,8.601 35.278,13.349 6.201,1.75 12.173,4.753 17.247,8.014 4.476,2.282 7.237,3.955 7.353,4.536 0.042,0.205 0.044,0.496 -0.001,0.831 C -3.038,-4.708 -0.306,-1.516 0,0" /></g></g></g></g><g
         transform="matrix(1.7815582,0,0,1.7815582,-0.4189,140.27651)"
         id="g198"><path
           inkscape:connector-curvature="0"
           id="path200"
           style="fill:#814f46;fill-opacity:1;fill-rule:nonzero;stroke:none"
           d="m 0,0 c 0,0 64.188,15.346 84.255,47.217 l 21.248,-4.722 17.116,25.379 7.082,-10.033 58.431,50.758 c 0,0 38.363,-47.217 40.134,-45.447 1.771,1.771 19.477,23.609 19.477,23.609 l 40.134,-38.364 33.052,21.248 7.082,18.296 15.345,-13.575 16.526,17.116 59.021,-56.069 33.052,30.101 L 469.07,17.706 500.506,7.083 V -80.268 H 0 Z" /></g><g
         transform="translate(187.7129,188.5312)"
         id="g202"><path
           inkscape:connector-curvature="0"
           id="path204"
           style="fill:#72433d;fill-opacity:1;fill-rule:nonzero;stroke:none"
           d="m 0,0 -31.163,-58.171 17.946,12.787 -40.261,-49.05 H -22.5 l -54.658,-24.409 c 0,0 25.679,-14.168 20.682,-14.168 -4.996,0 -44.028,-6.244 -44.028,-6.244 l 25.042,-11.743 -53.208,-8.862 36.096,-13.932 28.239,-15.074 47.831,23.878 51.827,53.419 c 0,0 10.045,21.602 5.553,32.427 -4.491,10.826 -0.742,33.696 -0.742,33.696 z" /></g><g
         transform="matrix(1.7815582,0,0,1.7815582,640.73148,303.25773)"
         id="g206"><path
           inkscape:connector-curvature="0"
           id="path208"
           style="fill:#72433d;fill-opacity:1;fill-rule:nonzero;stroke:none"
           d="m 0,0 -31.489,-32.73 2.122,-18.315 -21.03,-16.65 11.846,-16.151 -12.269,-14.815 12.368,-13.681 -29.554,-12.214 32.977,-3.331 c 0,0 -39.406,-22.317 -37.852,-21.65 1.555,0.666 32.966,-13.88 32.966,-13.88 0,0 -29.97,-11.103 -27.783,-11.103 2.186,0 36.209,-7.55 36.209,-7.55 l 19.718,14.434 c 0,0 11.606,-15.545 12.938,-14.434 1.332,1.11 6.781,32.533 6.781,32.533 l 23.352,22.983 27.721,70.485 z" /></g><g
         transform="translate(455.5557,80.3516)"
         id="g210"><path
           inkscape:connector-curvature="0"
           id="path212"
           style="fill:#72433d;fill-opacity:1;fill-rule:nonzero;stroke:none"
           d="m 0,0 -5.859,-4.395 -4.396,-9.156 -9.155,-10.255 1.831,-23.073 -9.523,6.593 v -20.876 l 22.341,17.213 -1.098,15.016 10.987,8.423 z" /></g><g
         transform="translate(326.0847,322.0272)"
         id="g214"><path
           inkscape:connector-curvature="0"
           id="path216"
           style="fill:#000000;fill-opacity:1;fill-rule:nonzero;stroke:none"
           d="m 0,0 c 0,0 1.38,3.89 5.395,3.765 0,0 -9.849,7.339 -5.834,19.948 0,0 0.69,0.501 0.815,-0.251 0,0 0.322,-0.44 0.557,0.055 0.235,0.494 1.022,0.376 1.064,-0.565 0.042,-0.941 8.542,-14.922 11.49,-16.114 0,0 14.742,4.642 21.014,9.535 0,0 1.13,0.189 0.502,-1.003 -0.627,-1.192 -7.402,-8.093 -9.848,-8.155 0,0 -1.318,-4.203 -2.447,-4.956 0,0 8.783,-4.015 21.204,-4.392 0,0 -12.17,-0.376 -16.247,1.13 0,0 -16.185,-5.96 -25.156,0.502 z" /></g><g
         transform="translate(383.6438,321.4628)"
         id="g218"><path
           inkscape:connector-curvature="0"
           id="path220"
           style="fill:#000000;fill-opacity:1;fill-rule:nonzero;stroke:none"
           d="m 0,0 c 0,0 0.789,2.224 3.085,2.151 0,0 -5.631,4.197 -3.336,11.405 0,0 0.395,0.287 0.467,-0.143 0,0 0.183,-0.251 0.318,0.031 0.134,0.282 0.584,0.215 0.608,-0.323 0.024,-0.538 4.883,-8.531 6.569,-9.212 0,0 8.428,2.653 12.014,5.451 0,0 0.645,0.108 0.287,-0.574 C 19.653,8.104 15.78,4.16 14.381,4.124 c 0,0 -0.753,-2.402 -1.399,-2.833 0,0 5.022,-2.295 12.122,-2.511 0,0 -6.958,-0.215 -9.289,0.646 0,0 -9.252,-3.407 -14.38,0.287 z" /></g><g
         transform="translate(397.3177,295.1474)"
         id="g222"><path
           inkscape:connector-curvature="0"
           id="path224"
           style="fill:#000000;fill-opacity:1;fill-rule:nonzero;stroke:none"
           d="m 0,0 c 0,0 0.572,1.614 2.239,1.562 0,0 -4.088,3.046 -2.422,8.28 0,0 0.287,0.208 0.339,-0.105 0,0 0.133,-0.182 0.231,0.023 0.097,0.205 0.425,0.156 0.441,-0.235 0.018,-0.389 3.546,-6.193 4.77,-6.687 0,0 6.119,1.927 8.722,3.957 0,0 0.469,0.078 0.208,-0.416 -0.26,-0.495 -3.072,-3.359 -4.088,-3.385 0,0 -0.546,-1.745 -1.015,-2.057 0,0 3.645,-1.666 8.801,-1.823 0,0 -5.051,-0.156 -6.745,0.469 0,0 -6.716,-2.474 -10.44,0.208 z" /></g><g
         transform="translate(416.8919,315.3183)"
         id="g226"><path
           inkscape:connector-curvature="0"
           id="path228"
           style="fill:#000000;fill-opacity:1;fill-rule:nonzero;stroke:none"
           d="m 0,0 c 0,0 0.977,2.751 3.817,2.663 0,0 -6.968,5.192 -4.128,14.113 0,0 0.489,0.356 0.578,-0.176 0,0 0.227,-0.312 0.393,0.038 0.167,0.349 0.724,0.266 0.753,-0.4 0.029,-0.666 6.044,-10.557 8.13,-11.4 0,0 10.43,3.284 14.868,6.746 0,0 0.799,0.133 0.356,-0.71 -0.445,-0.844 -5.238,-5.726 -6.969,-5.77 0,0 -0.932,-2.974 -1.731,-3.506 0,0 6.214,-2.841 15.001,-3.108 0,0 -8.61,-0.265 -11.495,0.799 0,0 -11.451,-4.216 -17.798,0.356 z" /></g><g
         transform="translate(351.2083,294.9061)"
         id="g230"><path
           inkscape:connector-curvature="0"
           id="path232"
           style="fill:#000000;fill-opacity:1;fill-rule:nonzero;stroke:none"
           d="m 0,0 c 0,0 0.569,1.604 2.225,1.553 0,0 -4.062,3.026 -2.407,8.227 0,0 0.286,0.207 0.337,-0.103 0,0 0.133,-0.182 0.23,0.022 C 0.481,9.902 0.806,9.854 0.823,9.466 0.841,9.078 4.347,3.312 5.562,2.82 c 0,0 6.081,1.914 8.667,3.933 0,0 0.466,0.077 0.208,-0.414 -0.259,-0.492 -3.053,-3.338 -4.062,-3.363 0,0 -0.544,-1.734 -1.01,-2.044 0,0 3.623,-1.657 8.745,-1.812 0,0 -5.018,-0.155 -6.7,0.466 0,0 -6.676,-2.458 -10.375,0.207 z" /></g></g><g
       id="g242"><g
         id="g244"
         clip-path="url(#clipPath248)"><g
           id="g250"
           transform="translate(247.3237,166.6934)"><path
             d="m 0,0 40.134,-38.363 -0.605,-34.233 -4.523,13.092 c 0,0 -13.386,-10.975 -13.139,-8.646 0.248,2.328 6.907,19.62 6.907,19.62 l -22.315,-3.991 10.965,18.955 c 0,0 -17.923,-4.798 -17.424,-2.732 0.5,2.067 6.976,17.689 6.976,17.689 l -11.29,-2.544 z"
             style="fill:#72433d;fill-opacity:1;fill-rule:nonzero;stroke:none"
             id="path252"
             inkscape:connector-curvature="0" /></g></g></g></g></svg>