<?xml version="1.0" encoding="iso-8859-1"?>
<!-- Generator: Adobe Illustrator 19.0.0, SVG Export Plug-In . SVG Version: 6.00 Build 0)  -->
<svg version="1.1" id="Capa_1" xmlns="http://www.w3.org/2000/svg" xmlns:xlink="http://www.w3.org/1999/xlink" x="0px" y="0px"
	 viewBox="0 0 512 512" style="enable-background:new 0 0 512 512;" xml:space="preserve">
<circle style="fill:#9B27AF;" cx="256" cy="256" r="256"/>
<path style="fill:#7B1FA1;" d="M512,256c0-4.944-0.155-9.851-0.431-14.726L362.25,91.955L259.095,130.87l-13.22-13.278L162.5,98.167
	l-17.469,108.051l-61.864,20.521L77,289.568l78.731,78.309l-3.817,54.221l89.478,89.478C246.228,511.848,251.096,512,256,512
	C397.385,512,512,397.385,512,256z"/>
<path style="fill:#FFFFFF;" d="M390.518,198.719c-7.284-2.565-15.05-4.893-23.21-6.982c2.271-8.112,4.137-16.001,5.558-23.592
	c10.009-53.471-4.571-74.326-18.565-82.406c-13.993-8.079-39.345-10.279-80.647,25.125c-5.863,5.026-11.762,10.587-17.652,16.61
	c-5.89-6.023-11.789-11.584-17.652-16.61c-41.305-35.403-66.659-33.204-80.65-25.125c-13.994,8.08-28.574,28.935-18.565,82.406
	c1.421,7.591,3.287,15.48,5.558,23.592c-8.161,2.089-15.926,4.417-23.21,6.982C70.171,216.787,59.4,239.841,59.4,256
	s10.771,39.213,62.082,57.281c7.284,2.565,15.05,4.893,23.21,6.982c-2.271,8.112-4.137,16.001-5.558,23.592
	c-10.009,53.471,4.571,74.326,18.565,82.406c4.93,2.846,11.268,4.963,19.218,4.963c14.616,0,34.678-7.156,61.43-30.088
	c5.863-5.026,11.762-10.587,17.652-16.61c5.89,6.023,11.789,11.584,17.652,16.61c26.754,22.933,46.813,30.088,61.43,30.088
	c7.948,0,14.289-2.117,19.218-4.963c13.994-8.08,28.574-28.935,18.565-82.406c-1.421-7.591-3.287-15.48-5.558-23.592
	c8.161-2.089,15.926-4.417,23.21-6.982C441.829,295.213,452.6,272.159,452.6,256S441.829,216.787,390.518,198.719z M289.271,129.086
	c18.221-15.619,34.823-24.28,45.798-24.28c2.797,0,5.231,0.563,7.23,1.718c9.844,5.683,12.517,27.603,6.976,57.205
	c-1.373,7.332-3.201,14.981-5.444,22.868c-14.048-2.596-28.941-4.554-44.395-5.831c-8.833-12.745-17.975-24.664-27.247-35.531
	C277.898,139.349,283.608,133.941,289.271,129.086z M328.888,283.453c2.7,6.389,5.19,12.711,7.457,18.934
	c-6.523,1.148-13.242,2.153-20.126,3.009c2.185-3.589,4.343-7.219,6.466-10.896C324.807,290.823,326.872,287.139,328.888,283.453z
	 M301.899,282.5c-5.098,8.83-10.384,17.391-15.805,25.626C276.253,308.703,266.196,309,256,309s-20.253-0.297-30.094-0.874
	c-5.421-8.235-10.707-16.795-15.805-25.626s-9.869-17.688-14.29-26.5c4.421-8.812,9.192-17.67,14.29-26.5
	s10.384-17.391,15.805-25.626C235.747,203.297,245.804,203,256,203c10.196,0,20.253,0.297,30.094,0.874
	c5.421,8.235,10.707,16.795,15.805,25.626s9.869,17.688,14.29,26.5C311.769,264.812,306.998,273.67,301.899,282.5z M268.668,332.849
	c-4.183,5.533-8.413,10.85-12.668,15.925c-4.256-5.074-8.485-10.392-12.668-15.925c4.2,0.098,8.423,0.151,12.668,0.151
	S264.469,332.946,268.668,332.849z M189.315,294.5c2.123,3.677,4.281,7.307,6.466,10.896c-6.884-0.856-13.603-1.861-20.126-3.009
	c2.267-6.223,4.757-12.544,7.457-18.934C185.128,287.139,187.193,290.823,189.315,294.5z M183.112,228.547
	c-2.7-6.389-5.19-12.711-7.457-18.934c6.523-1.148,13.242-2.153,20.126-3.009c-2.185,3.589-4.343,7.219-6.466,10.896
	C187.193,221.177,185.128,224.861,183.112,228.547z M243.332,179.151c4.183-5.533,8.413-10.85,12.668-15.925
	c4.256,5.075,8.485,10.392,12.668,15.925c-4.2-0.098-8.423-0.151-12.668-0.151S247.531,179.054,243.332,179.151z M322.685,217.5
	c-2.123-3.677-4.281-7.307-6.466-10.896c6.884,0.856,13.603,1.861,20.126,3.009c-2.267,6.223-4.757,12.544-7.457,18.934
	C326.872,224.861,324.807,221.177,322.685,217.5z M162.725,163.729c-5.541-29.602-2.868-51.522,6.976-57.205
	c9.846-5.684,30.164,2.963,53.028,22.562c5.664,4.855,11.374,10.263,17.082,16.149c-9.272,10.868-18.414,22.787-27.247,35.531
	c-15.454,1.277-30.347,3.235-44.395,5.831C165.925,178.71,164.097,171.062,162.725,163.729z M129.454,290.643
	C101.047,280.641,83.4,267.366,83.4,256s17.646-24.641,46.054-34.643c7.036-2.477,14.574-4.719,22.526-6.719
	c4.775,13.464,10.527,27.341,17.148,41.362c-6.621,14.022-12.372,27.899-17.148,41.362
	C144.028,295.362,136.49,293.121,129.454,290.643z M222.729,382.914c-22.864,19.599-43.181,28.246-53.028,22.562
	c-9.844-5.683-12.517-27.603-6.976-57.205c1.373-7.332,3.201-14.981,5.444-22.868c14.048,2.596,28.941,4.554,44.395,5.831
	c8.833,12.745,17.975,24.664,27.247,35.531C234.102,372.651,228.392,378.059,222.729,382.914z M349.275,348.271
	c5.541,29.602,2.868,51.522-6.976,57.205c-9.847,5.684-30.164-2.963-53.028-22.562c-5.664-4.855-11.374-10.263-17.082-16.149
	c9.272-10.868,18.414-22.787,27.247-35.531c15.454-1.277,30.347-3.235,44.395-5.831C346.075,333.29,347.903,340.938,349.275,348.271
	z M382.546,290.643c-7.036,2.477-14.574,4.719-22.526,6.719c-4.775-13.464-10.527-27.341-17.148-41.362
	c6.621-14.022,12.372-27.899,17.148-41.362c7.952,2.001,15.49,4.242,22.526,6.719C410.953,231.359,428.6,244.634,428.6,256
	S410.953,280.641,382.546,290.643z"/>
<path style="fill:#E0E0E0;" d="M256,384.526c5.89,6.023,11.789,11.584,17.652,16.61c26.754,22.933,46.813,30.088,61.43,30.088
	c7.948,0,14.289-2.117,19.218-4.963c13.994-8.08,28.574-28.935,18.565-82.406c-1.421-7.591-3.287-15.48-5.558-23.592
	c8.161-2.089,15.926-4.417,23.21-6.982C441.829,295.213,452.6,272.159,452.6,256s-10.771-39.213-62.082-57.281
	c-7.284-2.565-15.05-4.893-23.21-6.982c2.271-8.112,4.137-16.001,5.558-23.592c10.009-53.471-4.571-74.326-18.565-82.406
	c-13.993-8.079-39.345-10.279-80.647,25.125c-5.863,5.026-11.762,10.587-17.652,16.61v35.752
	c4.256,5.075,8.485,10.392,12.668,15.925c-4.2-0.098-8.423-0.151-12.668-0.151c-0.016,0-0.032,0-0.048,0v24c0.016,0,0.032,0,0.048,0
	c10.196,0,20.253,0.297,30.094,0.874c5.421,8.235,10.707,16.795,15.805,25.626s9.869,17.688,14.29,26.5
	c-4.421,8.812-9.192,17.67-14.29,26.5s-10.384,17.391-15.805,25.626C276.253,308.703,266.196,309,256,309c-0.016,0-0.032,0-0.048,0
	v24c0.016,0,0.032,0,0.048,0c4.245,0,8.469-0.054,12.668-0.151c-4.183,5.533-8.413,10.85-12.668,15.925V384.526z M299.436,180.767
	c-8.833-12.745-17.975-24.664-27.247-35.531c5.709-5.887,11.419-11.294,17.082-16.149c18.221-15.619,34.823-24.28,45.798-24.28
	c2.797,0,5.231,0.563,7.23,1.718c9.844,5.683,12.517,27.603,6.976,57.205c-1.373,7.332-3.201,14.981-5.444,22.868
	C329.783,184.001,314.89,182.044,299.436,180.767z M328.888,228.547c-2.015-3.686-4.081-7.37-6.203-11.047
	c-2.123-3.677-4.281-7.307-6.466-10.896c6.884,0.856,13.603,1.861,20.126,3.009C334.078,215.836,331.588,222.157,328.888,228.547z
	 M336.345,302.387c-6.523,1.148-13.242,2.153-20.126,3.009c2.185-3.589,4.343-7.219,6.466-10.896
	c2.123-3.677,4.188-7.361,6.203-11.047C331.588,289.843,334.078,296.164,336.345,302.387z M342.3,405.476
	c-9.847,5.684-30.164-2.963-53.028-22.562c-5.664-4.855-11.374-10.263-17.082-16.149c9.272-10.868,18.414-22.787,27.247-35.531
	c15.454-1.277,30.347-3.235,44.395-5.831c2.243,7.887,4.072,15.536,5.444,22.868C354.816,377.873,352.144,399.793,342.3,405.476z
	 M382.546,290.643c-7.036,2.477-14.574,4.719-22.526,6.719c-4.775-13.464-10.527-27.341-17.148-41.362
	c6.621-14.022,12.372-27.899,17.148-41.362c7.952,2.001,15.49,4.242,22.526,6.719C410.953,231.359,428.6,244.634,428.6,256
	S410.953,280.641,382.546,290.643z"/>
<circle style="fill:#FED500;" cx="256" cy="256" r="25"/>
<path style="fill:#FABF2D;" d="M256,231c-0.016,0-0.032,0.001-0.048,0.001v49.998c0.016,0,0.031,0.001,0.048,0.001
	c13.807,0,25-11.193,25-25S269.807,231,256,231z"/>
<circle style="fill:#00E4FE;" cx="363.5" cy="146" r="25"/>
<g>
	<circle style="fill:#18FEFE;" cx="107.5" cy="218" r="25"/>
	<circle style="fill:#18FEFE;" cx="217" cy="401" r="25"/>
</g>
<g>
</g>
<g>
</g>
<g>
</g>
<g>
</g>
<g>
</g>
<g>
</g>
<g>
</g>
<g>
</g>
<g>
</g>
<g>
</g>
<g>
</g>
<g>
</g>
<g>
</g>
<g>
</g>
<g>
</g>
</svg>
