<?xml version="1.0" encoding="iso-8859-1"?>
<!-- Generator: Adobe Illustrator 19.0.0, SVG Export Plug-In . SVG Version: 6.00 Build 0)  -->
<svg version="1.1" id="Capa_1" xmlns="http://www.w3.org/2000/svg" xmlns:xlink="http://www.w3.org/1999/xlink" x="0px" y="0px"
	 viewBox="0 0 512 512" style="enable-background:new 0 0 512 512;" xml:space="preserve">
<circle style="fill:#004EB1;" cx="256" cy="256" r="256"/>
<path style="fill:#002D6B;" d="M512,256c0-7.644-0.355-15.204-1.011-22.678L369.333,91.667l-226.667,64l109.312,109.312L156,425.667
	l85.944,85.944C246.598,511.863,251.283,512,256,512C397.385,512,512,397.385,512,256z"/>
<rect x="156" y="132.33" style="fill:#FFFFFF;" width="200" height="293.33"/>
<rect x="255.95" y="132.33" style="fill:#E0E0E0;" width="100.05" height="293.33"/>
<rect x="156" y="220.33" style="fill:#FEDB41;" width="200" height="117.33"/>
<rect x="255.95" y="220.33" style="fill:#FCBF29;" width="100.05" height="117.33"/>
<rect x="142.67" y="91.67" style="fill:#F40057;" width="226.67" height="64"/>
<rect x="255.95" y="91.67" style="fill:#CE0054;" width="113.38" height="64"/>
<rect x="176" y="243.5" style="fill:#607D8A;" width="129" height="12"/>
<rect x="255.95" y="243.5" style="fill:#465F68;" width="49.05" height="12"/>
<g>
	<rect x="176" y="302.5" style="fill:#607D8A;" width="148" height="12"/>
</g>
<rect x="255.95" y="302.5" style="fill:#465F68;" width="68.05" height="12"/>
<rect x="176" y="273" style="fill:#607D8A;" width="84.5" height="12"/>
<rect x="255.95" y="273" style="fill:#465F68;" width="4.548" height="12"/>
<g>
</g>
<g>
</g>
<g>
</g>
<g>
</g>
<g>
</g>
<g>
</g>
<g>
</g>
<g>
</g>
<g>
</g>
<g>
</g>
<g>
</g>
<g>
</g>
<g>
</g>
<g>
</g>
<g>
</g>
</svg>
