<?xml version="1.0" encoding="iso-8859-1"?>
<!-- Generator: Adobe Illustrator 19.0.0, SVG Export Plug-In . SVG Version: 6.00 Build 0)  -->
<svg version="1.1" id="Capa_1" xmlns="http://www.w3.org/2000/svg" xmlns:xlink="http://www.w3.org/1999/xlink" x="0px" y="0px"
	 viewBox="0 0 512 512" style="enable-background:new 0 0 512 512;" xml:space="preserve">
<circle style="fill:#004EB1;" cx="256" cy="256" r="256"/>
<path style="fill:#002D6B;" d="M512,256c0-9.158-0.491-18.2-1.429-27.11L395.438,113.757L116.4,392.458l118.687,118.687
	C241.986,511.703,248.958,512,256,512C397.385,512,512,397.385,512,256z"/>
<path style="fill:#CAE8F9;" d="M131.793,396.511l-7.986-0.569c-5.653-0.403-10.15-4.9-10.553-10.553l-0.569-7.986
	c-1.404-19.694,5.81-39.028,19.771-52.989l154.795-154.795l52.326,52.326L184.782,376.74
	C170.821,390.701,151.487,397.915,131.793,396.511z"/>
<path style="fill:#B7E0F6;" d="M116.126,392.159c1.916,2.145,4.626,3.565,7.68,3.783l7.986,0.569
	c19.694,1.404,39.028-5.81,52.989-19.771l154.795-154.796l-26.618-26.618L116.126,392.159z"/>
<path style="fill:#F40057;" d="M320.662,248.284l-59.751-59.751l74.777-74.777c16.5-16.5,43.251-16.5,59.75,0l0,0
	c16.5,16.5,16.5,43.251,0,59.75L320.662,248.284z"/>
<g>
	<path style="fill:#CE0054;" d="M395.438,113.757L395.438,113.757c-0.153-0.153-0.312-0.294-0.467-0.444l-104.64,104.64l30.33,30.33
		l74.777-74.777C411.938,157.008,411.938,130.257,395.438,113.757z"/>
	
		<rect x="228.718" y="196.225" transform="matrix(-0.7071 -0.7071 0.7071 -0.7071 349.6459 575.2787)" style="fill:#CE0054;" width="130.499" height="38"/>
</g>
<rect x="283.868" y="219.077" transform="matrix(0.7071 0.7071 -0.7071 0.7071 261.1385 -154.2911)" style="fill:#A8004C;" width="65.893" height="38"/>
<g>
</g>
<g>
</g>
<g>
</g>
<g>
</g>
<g>
</g>
<g>
</g>
<g>
</g>
<g>
</g>
<g>
</g>
<g>
</g>
<g>
</g>
<g>
</g>
<g>
</g>
<g>
</g>
<g>
</g>
</svg>
