<?xml version="1.0" encoding="iso-8859-1"?>
<!-- Generator: Adobe Illustrator 19.0.0, SVG Export Plug-In . SVG Version: 6.00 Build 0)  -->
<svg version="1.1" id="Capa_1" xmlns="http://www.w3.org/2000/svg" xmlns:xlink="http://www.w3.org/1999/xlink" x="0px" y="0px"
	 viewBox="0 0 512 512" style="enable-background:new 0 0 512 512;" xml:space="preserve">
<circle style="fill:#004EB1;" cx="256" cy="256" r="256"/>
<path style="fill:#002D6B;" d="M509.928,288.713L291.065,69.85l-70.131,21.579l53.002,53.002L217.857,250l-92.19,48.501
	l54.969,54.969l-68.969,38.698l118.545,118.545C238.693,511.561,247.295,512,256,512C386.302,512,493.865,414.649,509.928,288.713z"
	/>
<polygon style="fill:#CED7DB;" points="400.333,392.167 111.667,392.167 138.397,293.501 373.603,293.501 "/>
<polygon style="fill:#C0C0C0;" points="373.603,293.501 255.952,293.501 255.952,392.167 400.333,392.167 "/>
<rect x="246" y="324.83" style="fill:#32D736;" width="114.5" height="49.33"/>
<rect x="302.38" y="324.83" style="fill:#10BB67;" width="58.12" height="49.33"/>
<g>
	<circle style="fill:#546E7A;" cx="198" cy="334.5" r="9"/>
	<circle style="fill:#546E7A;" cx="160.33" cy="334.5" r="9"/>
	<circle style="fill:#546E7A;" cx="198" cy="363.5" r="9"/>
	<circle style="fill:#546E7A;" cx="160.33" cy="363.5" r="9"/>
</g>
<path style="fill:#83FEFE;" d="M354.211,253.149l-72.482-98.528V79.395h-51.457v75.226l-72.482,98.528
	c-6.682,9.083-0.196,21.906,11.08,21.906h174.261C354.407,275.055,360.893,262.233,354.211,253.149z"/>
<path style="fill:#18FEFE;" d="M354.211,253.149l-72.482-98.528V79.395h-25.776v195.661h87.178
	C354.407,275.055,360.893,262.232,354.211,253.149z"/>
<path style="fill:#FEDB41;" d="M312.781,196.832H199.219l-41.429,56.317c-6.682,9.083-0.196,21.906,11.08,21.906h174.261
	c11.276,0,17.762-12.823,11.08-21.906L312.781,196.832z"/>
<path style="fill:#FCBF29;" d="M354.211,253.149l-41.429-56.317h-56.829v78.223h87.178
	C354.407,275.055,360.893,262.232,354.211,253.149z"/>
<rect x="220.94" y="69.85" style="fill:#18FEFE;" width="70.13" height="21.579"/>
<rect x="255.95" y="69.85" style="fill:#00E4FE;" width="35.11" height="21.579"/>
<rect x="125.67" y="273.83" style="fill:#FFFFFF;" width="260.67" height="24.667"/>
<rect x="255.95" y="273.83" style="fill:#E0E0E0;" width="130.38" height="24.667"/>
<g>
</g>
<g>
</g>
<g>
</g>
<g>
</g>
<g>
</g>
<g>
</g>
<g>
</g>
<g>
</g>
<g>
</g>
<g>
</g>
<g>
</g>
<g>
</g>
<g>
</g>
<g>
</g>
<g>
</g>
</svg>
