<?xml version="1.0" encoding="iso-8859-1"?>
<!-- Generator: Adobe Illustrator 19.0.0, SVG Export Plug-In . SVG Version: 6.00 Build 0)  -->
<svg version="1.1" id="Capa_1" xmlns="http://www.w3.org/2000/svg" xmlns:xlink="http://www.w3.org/1999/xlink" x="0px" y="0px"
	 viewBox="0 0 512 512" style="enable-background:new 0 0 512 512;" xml:space="preserve">
<circle style="fill:#FEDB41;" cx="256" cy="256" r="256"/>
<path style="fill:#FCBF29;" d="M505.445,313.813L256,64.368l-40.442,139.058l80.258,80.258l-68.101,43.698l-74.049-74.049
	l-30.667,68l44.614,44.614L120,396.5l114.603,114.603C241.659,511.687,248.792,512,256,512
	C377.503,512,479.236,427.353,505.445,313.813z"/>
<rect x="138.33" y="271" style="fill:#546E7A;" width="71" height="32.667"/>
<rect x="123" y="253.33" style="fill:#455A64;" width="30.667" height="68"/>
<path style="fill:#F40057;" d="M198.693,162.826c0-31.65,57.307-98.458,57.307-98.458s57.307,66.808,57.307,98.458
	S287.65,220.132,256,220.132S198.693,194.475,198.693,162.826z"/>
<path style="fill:#CE0054;" d="M255.952,220.131c0.016,0,0.031,0.001,0.048,0.001c31.649,0,57.307-25.657,57.307-57.307
	S256,64.368,256,64.368L255.952,220.131z"/>
<path style="fill:#FE9A35;" d="M218.789,176.61c0-20.551,37.211-63.932,37.211-63.932s37.211,43.381,37.211,63.932
	s-16.66,37.211-37.211,37.211S218.789,197.161,218.789,176.61z"/>
<path style="fill:#FF7C11;" d="M255.952,213.82c0.016,0,0.031,0.001,0.048,0.001c20.551,0,37.211-16.66,37.211-37.211
	S256,112.678,256,112.678L255.952,213.82z"/>
<rect x="193.5" y="221" style="fill:#607D8A;" width="125" height="146"/>
<rect x="255.95" y="221" style="fill:#475F68;" width="62.55" height="146"/>
<rect x="120" y="327.5" style="fill:#455A64;" width="272" height="69"/>
<rect x="255.95" y="327.5" style="fill:#2B393F;" width="136.05" height="69"/>
<g>
</g>
<g>
</g>
<g>
</g>
<g>
</g>
<g>
</g>
<g>
</g>
<g>
</g>
<g>
</g>
<g>
</g>
<g>
</g>
<g>
</g>
<g>
</g>
<g>
</g>
<g>
</g>
<g>
</g>
</svg>
