<?xml version="1.0" encoding="iso-8859-1"?>
<!-- Generator: Adobe Illustrator 19.0.0, SVG Export Plug-In . SVG Version: 6.00 Build 0)  -->
<svg version="1.1" id="Capa_1" xmlns="http://www.w3.org/2000/svg" xmlns:xlink="http://www.w3.org/1999/xlink" x="0px" y="0px"
	 viewBox="0 0 512 512" style="enable-background:new 0 0 512 512;" xml:space="preserve">
<circle style="fill:#004EB1;" cx="256" cy="256" r="256"/>
<path style="fill:#002D6B;" d="M509.717,290.225L373.413,153.921L84.12,366.146l144.381,144.38C237.536,511.492,246.708,512,256,512
	C385.778,512,492.987,415.425,509.717,290.225z"/>
<path style="fill:#FFFFFF;" d="M362.547,172.332l-84.613-84.613L81.273,284.381c-21.793,21.793-20.518,58.401,2.847,81.766l0,0
	c23.365,23.365,59.973,24.64,81.766,2.847L362.547,172.332z"/>
<path style="fill:#E0E0E0;" d="M319.489,129.273L83.385,365.376c0.247,0.255,0.482,0.518,0.735,0.77l0,0
	c23.365,23.365,59.973,24.64,81.766,2.847l196.661-196.661L319.489,129.273z"/>
<path style="fill:#32D736;" d="M92.654,273l-11.38,11.38c-21.793,21.793-20.518,58.401,2.847,81.766l0,0
	c23.365,23.365,59.973,24.64,81.766,2.847L261.88,273H92.654z"/>
<path style="fill:#10BB67;" d="M83.386,365.376c0.247,0.256,0.482,0.518,0.735,0.771l0,0c23.365,23.365,59.973,24.64,81.766,2.847
	L261.879,273h-86.118L83.386,365.376z"/>
<rect x="236.791" y="108.532" transform="matrix(-0.7071 -0.7071 0.7071 -0.7071 450.1415 450.3223)" style="fill:#CED7DB;" width="163.088" height="46.804"/>
<rect x="305.474" y="136.983" transform="matrix(-0.7071 -0.7071 0.7071 -0.7071 478.5787 519.0035)" style="fill:#A7B3B7;" width="82.609" height="46.804"/>
<path style="fill:#32D736;" d="M420.635,339.676c0,22.804-18.486,41.29-41.29,41.29c-22.804,0-41.29-18.486-41.29-41.29
	c0-22.804,41.29-86.119,41.29-86.119S420.635,316.872,420.635,339.676z"/>
<path style="fill:#10BB67;" d="M379.346,253.557c0,0-0.009,0.014-0.012,0.019v127.389c0.004,0,0.008,0,0.012,0
	c22.804,0,41.29-18.486,41.29-41.29S379.346,253.557,379.346,253.557z"/>
<g>
</g>
<g>
</g>
<g>
</g>
<g>
</g>
<g>
</g>
<g>
</g>
<g>
</g>
<g>
</g>
<g>
</g>
<g>
</g>
<g>
</g>
<g>
</g>
<g>
</g>
<g>
</g>
<g>
</g>
</svg>
