<?xml version="1.0" encoding="iso-8859-1"?>
<!-- Generator: Adobe Illustrator 19.0.0, SVG Export Plug-In . SVG Version: 6.00 Build 0)  -->
<svg version="1.1" id="Capa_1" xmlns="http://www.w3.org/2000/svg" xmlns:xlink="http://www.w3.org/1999/xlink" x="0px" y="0px"
	 viewBox="0 0 512 512" style="enable-background:new 0 0 512 512;" xml:space="preserve">
<circle style="fill:#F40057;" cx="256" cy="256" r="256"/>
<path style="fill:#CE0054;" d="M259.807,511.952C399.435,509.914,512,396.112,512,256c0-10.209-0.616-20.273-1.778-30.17
	L391.465,107.073l-28.69,31.433l-53.352-53.352L86.568,338.713L259.807,511.952z"/>
<path style="fill:#CED7DB;" d="M331.813,195.739v-5.581h56.216v-44.591H280.274l25.345-20.707
	c12.088-9.875,13.797-27.715,3.804-39.706l-0.179-0.215c-9.952-11.943-27.666-13.64-39.705-3.804l-43.796,35.782
	c-23.07,18.848-51.944,29.143-81.734,29.143h-57.44v192.653h301.46v-44.591h-56.216v-5.189h56.216v-44.591h-56.216v-4.013h56.216
	v-44.591L331.813,195.739z"/>
<polygon style="fill:#C0C0C0;" points="388.029,288.933 388.029,255.31 86.568,255.31 86.568,338.713 388.029,338.712 
	388.029,294.122 331.813,294.122 331.813,288.933 "/>
<path style="fill:#FFFFFF;" d="M354.182,426.009H199.207c-20.591,0-37.283-16.692-37.283-37.283V176.829l-39.173-69.756h268.715
	v281.653C391.465,409.317,374.773,426.009,354.182,426.009z"/>
<path style="fill:#E0E0E0;" d="M275,107.073v318.936h79.182c20.591,0,37.283-16.692,37.283-37.283V107.073H275z"/>
<path style="fill:#FEDB41;" d="M161.924,229.747v158.979c0,20.591,16.692,37.283,37.283,37.283h154.975
	c20.591,0,37.283-16.692,37.283-37.283V229.747H161.924z"/>
<path style="fill:#FCBF29;" d="M275,229.747v196.262h79.182c20.591,0,37.283-16.692,37.283-37.284V229.747H275z"/>
<path style="fill:#37474F;" d="M274.638,307.668c-9.328,0-16.916,7.589-16.916,16.916c0,9.328,7.589,16.916,16.916,16.916
	c9.328,0,16.916-7.589,16.916-16.916C291.555,315.256,283.966,307.668,274.638,307.668z"/>
<path style="fill:#25343A;" d="M291.555,324.584c0-9.206-7.395-16.703-16.555-16.898v33.795
	C284.16,341.287,291.555,333.789,291.555,324.584z"/>
<path style="fill:#37474F;" d="M274.638,299.92c4.488,0,8.697,1.211,12.326,3.315l25.579-44.304
	c-11.151-6.452-24.096-10.146-37.905-10.146s-26.755,3.695-37.905,10.146l25.579,44.304
	C265.942,301.131,270.15,299.92,274.638,299.92z"/>
<g>
	<path style="fill:#25343A;" d="M312.544,258.93c-11.053-6.396-23.871-10.076-37.544-10.141v51.143
		c4.352,0.063,8.433,1.255,11.964,3.302L312.544,258.93z"/>
	<path style="fill:#25343A;" d="M299.303,324.584c0,9.112-4.97,17.079-12.338,21.349l25.579,44.304
		c22.653-13.107,37.895-37.6,37.895-65.654h-51.136V324.584z"/>
</g>
<path style="fill:#37474F;" d="M249.974,324.584h-51.136c0,28.054,15.242,52.547,37.895,65.654l25.579-44.304
	C254.945,341.663,249.974,333.695,249.974,324.584z"/>
<path style="fill:#C0C0C0;" d="M378.686,338.713c-12.314,0-22.296-9.982-22.296-22.296l0,0c0-12.313,9.982-22.295,22.295-22.295
	h16.946c0.029,0,0.053,0.024,0.053,0.053v44.485c0,0.029-0.024,0.053-0.053,0.053L378.686,338.713L378.686,338.713z"/>
<path style="fill:#CED7DB;" d="M355.903,288.933c-12.567,0-22.705-10.397-22.282-23.059c0.404-12.111,10.749-21.532,22.866-21.532
	h39.144c0.029,0,0.053,0.024,0.053,0.053v44.485c0,0.029-0.024,0.053-0.053,0.053H355.903z"/>
<path style="fill:#C0C0C0;" d="M336.791,255.31c-1.893,3.101-3.041,6.694-3.17,10.564c-0.423,12.662,9.716,23.059,22.282,23.059
	h39.728c0.029,0,0.053-0.024,0.053-0.053v-33.57L336.791,255.31L336.791,255.31z"/>
<g>
	<path style="fill:#CED7DB;" d="M340.225,195.738h55.407c0.029,0,0.053,0.024,0.053,0.053v44.485c0,0.029-0.024,0.053-0.053,0.053
		h-55.407c-12.314,0-22.296-9.982-22.296-22.296l0,0C317.929,205.72,327.911,195.738,340.225,195.738z"/>
	<path style="fill:#CED7DB;" d="M355.903,190.158c-12.567,0-22.706-10.398-22.283-23.059c0.405-12.11,10.75-21.531,22.867-21.531
		h39.144c0.029,0,0.053,0.024,0.053,0.053v44.485c0,0.029-0.024,0.053-0.053,0.053L355.903,190.158L355.903,190.158z"/>
</g>
<g>
</g>
<g>
</g>
<g>
</g>
<g>
</g>
<g>
</g>
<g>
</g>
<g>
</g>
<g>
</g>
<g>
</g>
<g>
</g>
<g>
</g>
<g>
</g>
<g>
</g>
<g>
</g>
<g>
</g>
</svg>
