<?xml version="1.0" encoding="iso-8859-1"?>
<!-- Generator: Adobe Illustrator 19.0.0, SVG Export Plug-In . SVG Version: 6.00 Build 0)  -->
<svg version="1.1" id="Capa_1" xmlns="http://www.w3.org/2000/svg" xmlns:xlink="http://www.w3.org/1999/xlink" x="0px" y="0px"
	 viewBox="0 0 512 512" style="enable-background:new 0 0 512 512;" xml:space="preserve">
<circle style="fill:#004EB1;" cx="256" cy="256" r="256"/>
<path style="fill:#002D6B;" d="M512,256c0-12.45-0.907-24.686-2.624-36.661L385.703,95.667l-0.385,1.235l-25.235-25.235
	l-3.274,35.426l-35.426-35.426l-3.821,34.879l-34.879-34.879l-6.973,31.727l-31.727-31.727l-5.419,33.281l-33.281-33.281
	l-6.893,31.807l-31.807-31.807l-36.286,346l92.143,92.143c10.984,1.438,22.184,2.19,33.56,2.19C397.385,512,512,397.385,512,256z"/>
<rect x="130.3" y="95.67" style="fill:#FFFFFF;" width="255.41" height="322"/>
<g>
	<rect x="255.95" y="95.67" style="fill:#E0E0E0;" width="129.75" height="322"/>
	<path style="fill:#E0E0E0;" d="M307.623,304.546h-35.498l-0.271,0.47l-17.245-29.87h-35.498l-17.521,30.347l-0.547-0.947h-35.498
		l-17.748,30.741l17.748,30.741h35.498l17.521-30.347l0.547,0.947h35.498l0.271-0.47l17.245,29.87h35.498l17.748-30.741
		L307.623,304.546z M191.229,349.029h-15.867l-7.934-13.741l7.934-13.741h15.867l7.934,13.741L191.229,349.029z M244.794,319.629
		h-15.867l-7.934-13.742l7.934-13.741h15.867l7.934,13.741L244.794,319.629z M297.808,349.029h-15.867l-7.934-13.741l7.934-13.741
		h15.867l7.934,13.741L297.808,349.029z"/>
</g>
<path style="fill:#C0C0C0;" d="M307.623,304.546h-35.498l-0.271,0.47l-15.902-27.544v60.543l16.173,28.013h35.498l17.748-30.741
	L307.623,304.546z M297.808,349.029h-15.867l-7.934-13.741l7.934-13.741h15.867l7.934,13.741L297.808,349.029z"/>
<g>
	
		<rect x="304.727" y="286.079" transform="matrix(-0.7071 -0.7071 0.7071 -0.7071 321.4 736.4656)" style="fill:#E0E0E0;" width="17" height="31.18"/>
	
		<rect x="297.635" y="359.491" transform="matrix(-0.7071 -0.7071 0.7071 -0.7071 274.4999 849.6829)" style="fill:#E0E0E0;" width="31.18" height="17"/>
</g>
<rect x="154.67" y="145" style="fill:#CED7DB;" width="202.67" height="12.667"/>
<rect x="255.95" y="145" style="fill:#B0BBBF;" width="101.38" height="12.667"/>
<rect x="154.67" y="178.33" style="fill:#CED7DB;" width="202.67" height="12.667"/>
<rect x="255.95" y="178.33" style="fill:#B0BBBF;" width="101.38" height="12.667"/>
<rect x="154.67" y="211.67" style="fill:#CED7DB;" width="202.67" height="12.667"/>
<rect x="255.95" y="211.67" style="fill:#B0BBBF;" width="101.38" height="12.667"/>
<rect x="154.67" y="245" style="fill:#CED7DB;" width="202.67" height="12.667"/>
<rect x="255.95" y="245" style="fill:#B0BBBF;" width="101.38" height="12.667"/>
<g>
	<rect x="151.92" y="71.67" style="fill:#FEDB41;" width="14.667" height="43.33"/>
	<rect x="190.62" y="71.67" style="fill:#FEDB41;" width="14.667" height="43.33"/>
	<rect x="229.32" y="71.67" style="fill:#FEDB41;" width="14.667" height="43.33"/>
</g>
<g>
	<rect x="268.02" y="71.67" style="fill:#FCBF29;" width="14.667" height="43.33"/>
	<rect x="306.72" y="71.67" style="fill:#FCBF29;" width="14.667" height="43.33"/>
	<rect x="345.42" y="71.67" style="fill:#FCBF29;" width="14.667" height="43.33"/>
</g>
<path style="fill:#7FD7FE;" d="M390.878,255.517v-77.261h-54.49v77.261c-36.372,11.544-62.73,45.577-62.73,85.771
	c0,49.692,40.283,89.975,89.975,89.975s89.975-40.283,89.975-89.975C453.607,301.094,427.25,267.06,390.878,255.517z"/>
<path style="fill:#40C3FE;" d="M453.607,341.288c0-40.194-26.358-74.228-62.73-85.771v-77.26h-26.592v252.999
	C413.676,430.903,453.607,390.761,453.607,341.288z"/>
<path style="fill:#FEDB41;" d="M285.446,334.122c-0.384,3.152-0.583,6.362-0.583,9.618c0,43.503,35.266,78.769,78.769,78.769
	s78.769-35.266,78.769-78.77c0-3.256-0.199-6.465-0.583-9.618L285.446,334.122z"/>
<path style="fill:#FCBF29;" d="M442.402,343.74c0-3.256-0.199-6.465-0.583-9.618h-77.534v88.371
	C407.486,422.14,442.402,387.024,442.402,343.74z"/>
<rect x="326.5" y="176.5" style="fill:#42A4F4;" width="74.27" height="22.851"/>
<rect x="364.29" y="176.5" style="fill:#2195F2;" width="36.479" height="22.851"/>
<g>
</g>
<g>
</g>
<g>
</g>
<g>
</g>
<g>
</g>
<g>
</g>
<g>
</g>
<g>
</g>
<g>
</g>
<g>
</g>
<g>
</g>
<g>
</g>
<g>
</g>
<g>
</g>
<g>
</g>
</svg>
