<?xml version="1.0" encoding="iso-8859-1"?>
<!-- Generator: Adobe Illustrator 19.0.0, SVG Export Plug-In . SVG Version: 6.00 Build 0)  -->
<svg version="1.1" id="Capa_1" xmlns="http://www.w3.org/2000/svg" xmlns:xlink="http://www.w3.org/1999/xlink" x="0px" y="0px"
	 viewBox="0 0 512 512" style="enable-background:new 0 0 512 512;" xml:space="preserve">
<circle style="fill:#004EB1;" cx="256" cy="256" r="256"/>
<path style="fill:#002D6B;" d="M512,256c0-12.522-0.917-24.829-2.654-36.871l-61.255-61.254l-16.649,18.478l-93.9-93.9
	l-163.086,46.804l108.999,108.999l-13.527,38.966L143.707,151l-54.421,12.048l-15.211,33.928l10.485,56.47l28.336,28.336H87.5
	L66.071,329.43l14.482,51.223l126.689,126.689C223.029,510.387,239.325,512,256,512C397.385,512,512,397.385,512,256z"/>
<g>
	<path style="fill:#FEDB41;" d="M143.707,253.446H84.56l-29.573-51.223L84.56,151h59.147l29.573,51.223L143.707,253.446z
		 M96.106,233.446h36.054l18.026-31.223L132.16,171H96.106L78.08,202.223L96.106,233.446z"/>
	<path style="fill:#FEDB41;" d="M238.374,319.446h-59.147l-29.573-51.223L179.227,217h59.147l29.573,51.223L238.374,319.446z
		 M190.773,299.446h36.054l18.026-31.223L226.827,237h-36.054l-18.026,31.223L190.773,299.446z"/>
	<path style="fill:#FEDB41;" d="M169.274,329.431L139.7,278.208H80.554L50.98,329.431l29.573,51.223h36.819l-12.084,21.436
		l17.422,9.821L169.274,329.431z M74.074,329.431L92.1,298.208h36.053l18.027,31.223l-18.027,31.223H92.101L74.074,329.431z"/>
</g>
<g>
	<path style="fill:#FCBF29;" d="M420.174,388.346h-59.147l-29.573-51.223l29.573-51.223h59.147l29.573,51.223L420.174,388.346z
		 M372.573,368.346h36.054l18.026-31.223L408.627,305.9h-36.054l-18.026,31.223L372.573,368.346z"/>
	<path style="fill:#FCBF29;" d="M428.23,185.231l19.861-27.356l-16.184-11.75l-18.261,25.152h-52.621l-82.089,138.058l17.125,10.331
		l46.749-77.493l18.215,31.55h59.147l29.573-51.223L428.23,185.231z M408.627,253.723h-36.054L354.547,222.5l18.026-31.223h36.054
		l18.026,31.223L408.627,253.723z"/>
</g>
<path style="fill:#FFFFFF;" d="M315.83,103.155H196.17v278.121c0,30.82,26.787,55.804,59.83,55.804l0,0
	c33.043,0,59.83-24.984,59.83-55.804L315.83,103.155L315.83,103.155z"/>
<path style="fill:#E0E0E0;" d="M255.952,103.155v333.924c0.016,0,0.031,0.001,0.048,0.001l0,0c33.043,0,59.83-24.984,59.83-55.804
	V103.155H255.952z"/>
<path style="fill:#FE9A35;" d="M196.17,231.208v150.068c0,30.82,26.787,55.804,59.83,55.804l0,0c33.043,0,59.83-24.984,59.83-55.804
	V231.208H196.17z"/>
<path style="fill:#FF7C11;" d="M255.952,231.208v205.871c0.016,0,0.031,0.001,0.048,0.001l0,0c33.043,0,59.83-24.984,59.83-55.804
	V231.208H255.952z"/>
<rect x="174.46" y="82.45" style="fill:#CED7DB;" width="163.09" height="46.804"/>
<rect x="255.95" y="82.45" style="fill:#9BACB2;" width="81.59" height="46.804"/>
<g>
</g>
<g>
</g>
<g>
</g>
<g>
</g>
<g>
</g>
<g>
</g>
<g>
</g>
<g>
</g>
<g>
</g>
<g>
</g>
<g>
</g>
<g>
</g>
<g>
</g>
<g>
</g>
<g>
</g>
</svg>
