<?xml version="1.0" encoding="iso-8859-1"?>
<!-- Generator: Adobe Illustrator 19.0.0, SVG Export Plug-In . SVG Version: 6.00 Build 0)  -->
<svg version="1.1" id="Capa_1" xmlns="http://www.w3.org/2000/svg" xmlns:xlink="http://www.w3.org/1999/xlink" x="0px" y="0px"
	 viewBox="0 0 512 512" style="enable-background:new 0 0 512 512;" xml:space="preserve">
<circle style="fill:#8D24A9;" cx="256" cy="256" r="256"/>
<path style="fill:#7B1FA1;" d="M511.532,271.302L356.724,116.494l-83.45,9.649l-6.982,9.899l-37.204-37.205h-87.421l-5.451,73.329
	l-49.71,26.615l51.351,51.35l-27.777,137.91L233,510.96c7.579,0.675,15.246,1.04,23.001,1.04
	C392.246,512,503.615,405.561,511.532,271.302z"/>
<path style="fill:#FFFFFF;" d="M379.288,234.342v-77.261h-54.49v77.261c-36.372,11.544-62.73,45.577-62.73,85.771
	c0,49.692,40.283,89.975,89.975,89.975s89.975-40.283,89.975-89.975C442.018,279.919,415.66,245.885,379.288,234.342z"/>
<path style="fill:#E0E0E0;" d="M379.288,234.342v-77.261H351.19v252.996c0.284,0.002,0.567,0.011,0.852,0.011
	c49.692,0,89.975-40.283,89.975-89.975C442.018,279.919,415.66,245.885,379.288,234.342z"/>
<path style="fill:#18FEFE;" d="M273.856,312.947c-0.384,3.152-0.583,6.362-0.583,9.618c0,43.503,35.266,78.769,78.769,78.769
	s78.769-35.266,78.769-78.77c0-3.256-0.199-6.465-0.583-9.618L273.856,312.947z"/>
<path style="fill:#00E4FE;" d="M430.229,312.947H351.19v88.365c0.285,0.003,0.566,0.021,0.852,0.021
	c43.503,0,78.769-35.266,78.769-78.77C430.812,319.309,430.613,316.099,430.229,312.947z"/>
<path style="fill:#FFFFFF;" d="M179.389,181.632h-78.618V364.36c0,20.249,17.599,36.664,39.309,36.664l0,0
	c21.71,0,39.309-16.415,39.309-36.664V181.632z"/>
<path style="fill:#E0E0E0;" d="M139.881,181.632V401.02c0.067,0,0.132,0.005,0.199,0.005l0,0c21.71,0,39.309-16.415,39.309-36.664
	V181.632H139.881z"/>
<path style="fill:#004EB1;" d="M110.08,287.114v75.247c0,15.454,13.431,27.981,30,27.981l0,0c16.569,0,30-12.528,30-27.981v-75.247
	H110.08z"/>
<path style="fill:#002D6B;" d="M139.881,287.113v103.224c0.067,0,0.132,0.005,0.199,0.005l0,0c16.569,0,30-12.528,30-27.981v-75.247
	h-30.199V287.113z"/>
<path style="fill:#7FD7FE;" d="M150.346,330.261h-24V122.895c0-19.557,15.91-35.467,35.466-35.467h41.245
	c19.557,0,35.467,15.91,35.467,35.467v107.733c0,6.323,5.144,11.467,11.466,11.467c6.322,0,11.467-5.144,11.467-11.467v-93.067
	c0-19.556,15.91-35.466,35.467-35.466h31.289c19.557,0,35.467,15.91,35.467,35.466v66.534h-24v-66.534
	c0-6.323-5.144-11.466-11.467-11.466h-31.289c-6.323,0-11.467,5.144-11.467,11.466v93.067c0,19.557-15.91,35.467-35.467,35.467
	c-19.556,0-35.466-15.91-35.466-35.467V122.895c0-6.323-5.144-11.467-11.467-11.467h-41.245c-6.323,0-11.466,5.144-11.466,11.467
	L150.346,330.261L150.346,330.261z"/>
<path style="fill:#40C3FE;" d="M328.213,102.095h-31.289c-19.557,0-35.467,15.91-35.467,35.466v93.067
	c0,4.138-2.21,7.759-5.505,9.776v25.179c16.726-2.845,29.505-17.431,29.505-34.956V137.56c0-6.323,5.144-11.466,11.467-11.466
	h31.289c6.323,0,11.467,5.144,11.467,11.466v66.534h24V137.56C363.68,118.005,347.77,102.095,328.213,102.095z"/>
<rect x="314.91" y="155.32" style="fill:#CED7DB;" width="74.27" height="22.851"/>
<rect x="351.19" y="155.32" style="fill:#A0B3BA;" width="37.985" height="22.851"/>
<rect x="86.5" y="168.03" style="fill:#CED7DB;" width="107.15" height="30.75"/>
<rect x="139.88" y="168.03" style="fill:#909A9E;" width="53.773" height="30.75"/>
<path style="fill:#004EB1;" d="M368.69,275.083c0,9.665-7.835,17.5-17.5,17.5s-17.5-7.835-17.5-17.5s17.5-36.5,17.5-36.5
	S368.69,265.419,368.69,275.083z"/>
<path style="fill:#002D6B;" d="M351.19,238.583c0,0-0.22,0.339-0.595,0.926v53.044c0.199,0.006,0.394,0.03,0.595,0.03
	c9.665,0,17.5-7.835,17.5-17.5S351.19,238.583,351.19,238.583z"/>
<g>
</g>
<g>
</g>
<g>
</g>
<g>
</g>
<g>
</g>
<g>
</g>
<g>
</g>
<g>
</g>
<g>
</g>
<g>
</g>
<g>
</g>
<g>
</g>
<g>
</g>
<g>
</g>
<g>
</g>
</svg>
