<?xml version="1.0" encoding="iso-8859-1"?>
<!-- Generator: Adobe Illustrator 19.0.0, SVG Export Plug-In . SVG Version: 6.00 Build 0)  -->
<svg version="1.1" id="Capa_1" xmlns="http://www.w3.org/2000/svg" xmlns:xlink="http://www.w3.org/1999/xlink" x="0px" y="0px"
	 viewBox="0 0 512 512" style="enable-background:new 0 0 512 512;" xml:space="preserve">
<circle style="fill:#FEDB41;" cx="256" cy="256" r="256"/>
<path style="fill:#FCBF29;" d="M512,256c0-5.802-0.212-11.553-0.592-17.259L341,68.333L171,443.667l67.741,67.742
	C244.447,511.788,250.198,512,256,512C397.385,512,512,397.385,512,256z"/>
<rect x="171" y="68.33" style="fill:#AF622E;" width="170" height="375.33"/>
<rect x="255.95" y="68.33" style="fill:#8E4A1C;" width="85.05" height="375.33"/>
<path style="fill:#FFFFFF;" d="M290,301.418V128.333c0-18.778-15.222-34-34-34l0,0c-18.778,0-34,15.222-34,34v173.085
	c-16.091,10.909-26.667,29.343-26.667,50.248c0,33.505,27.161,60.667,60.667,60.667s60.667-27.162,60.667-60.667
	C316.667,330.761,306.091,312.328,290,301.418z"/>
<path style="fill:#E0E0E0;" d="M290,301.418V128.333c0-18.778-15.222-34-34-34l0,0c-0.016,0-0.032,0.001-0.048,0.001v317.997
	c0.016,0,0.032,0.001,0.048,0.001c33.505,0,60.667-27.162,60.667-60.667C316.667,330.761,306.091,312.328,290,301.418z"/>
<path style="fill:#91CCFE;" d="M276.333,315.877V190.401c0-11.23-9.104-20.333-20.333-20.333l0,0
	c-11.23,0-20.333,9.104-20.333,20.333v125.476c-12.439,7.083-20.833,20.451-20.833,35.789c0,22.736,18.431,41.167,41.167,41.167
	s41.167-18.431,41.167-41.167C297.167,336.329,288.772,322.96,276.333,315.877z"/>
<path style="fill:#228CE4;" d="M276.333,315.877V190.401c0-11.23-9.104-20.333-20.333-20.333l0,0c-0.016,0-0.031,0.002-0.048,0.002
	v222.762c0.016,0,0.032,0.001,0.048,0.001c22.736,0,41.167-18.431,41.167-41.167C297.167,336.329,288.772,322.96,276.333,315.877z"
	/>
<g>
</g>
<g>
</g>
<g>
</g>
<g>
</g>
<g>
</g>
<g>
</g>
<g>
</g>
<g>
</g>
<g>
</g>
<g>
</g>
<g>
</g>
<g>
</g>
<g>
</g>
<g>
</g>
<g>
</g>
</svg>
