<?xml version="1.0" encoding="iso-8859-1"?>
<!-- Generator: Adobe Illustrator 19.0.0, SVG Export Plug-In . SVG Version: 6.00 Build 0)  -->
<svg version="1.1" id="Capa_1" xmlns="http://www.w3.org/2000/svg" xmlns:xlink="http://www.w3.org/1999/xlink" x="0px" y="0px"
	 viewBox="0 0 512 512" style="enable-background:new 0 0 512 512;" xml:space="preserve">
<circle style="fill:#004EB1;" cx="256" cy="256" r="256"/>
<path style="fill:#002D6B;" d="M512,256c0-13.24-1.006-26.245-2.944-38.944l-77.39-77.39L80.333,372.333l136.723,136.723
	C229.755,510.994,242.76,512,256,512C397.385,512,512,397.385,512,256z"/>
<rect x="80.33" y="139.67" style="fill:#FEC007;" width="351.33" height="232.67"/>
<rect x="255.95" y="139.67" style="fill:#FE9700;" width="175.71" height="232.67"/>
<rect x="105.67" y="166.33" style="fill:#FFFFFF;" width="300.67" height="179.33"/>
<g>
	<rect x="255.95" y="166.33" style="fill:#E0E0E0;" width="150.38" height="179.33"/>
	<path style="fill:#E0E0E0;" d="M283.445,204.992h-35.497l-0.272,0.471l-17.245-29.871h-35.498l-17.521,30.348l-0.547-0.948h-35.496
		l-17.749,30.741l17.749,30.741h35.496l17.521-30.347l0.547,0.947h35.498l0.271-0.47l17.246,29.87h35.497l17.748-30.741
		L283.445,204.992z M167.051,249.475h-15.867l-7.934-13.741l7.934-13.741h15.867l7.934,13.741L167.051,249.475z M220.615,220.075
		h-15.867l-7.934-13.741l7.934-13.741h15.867l7.934,13.741L220.615,220.075z M273.629,249.475h-15.867l-7.934-13.741l7.934-13.741
		h15.867l7.934,13.741L273.629,249.475z"/>
</g>
<polygon style="fill:#C0C0C0;" points="301.193,235.733 288.843,214.342 306.079,197.106 294.059,185.085 274.152,204.992 
	255.952,204.992 255.952,225.127 257.762,221.992 273.629,221.992 281.563,235.733 273.629,249.475 257.762,249.475 255.952,246.34 
	255.952,266.475 275.048,266.475 294.059,285.485 306.079,273.465 289.171,256.556 "/>
<g>
	<rect x="132.33" y="300.5" style="fill:#607D8A;" width="90.67" height="17"/>
	<rect x="239" y="300.5" style="fill:#607D8A;" width="50.667" height="17"/>
</g>
<rect x="255.95" y="300.5" style="fill:#425E68;" width="33.714" height="17"/>
<polygon style="fill:#91CCFE;" points="378.604,429.667 350.605,408.283 325.271,429.667 325.271,351 378.604,351 "/>
<polygon style="fill:#228CE4;" points="378.604,351 350.605,351 350.605,408.283 378.604,429.667 "/>
<circle style="fill:#F40057;" cx="351" cy="319.67" r="52.667"/>
<path style="fill:#CE0054;" d="M351,267c-0.136,0-0.269,0.009-0.405,0.01v105.313c0.135,0.001,0.269,0.01,0.405,0.01
	c29.087,0,52.667-23.58,52.667-52.667C403.667,290.58,380.087,267,351,267z"/>
<circle style="fill:#FEDB41;" cx="351" cy="319.67" r="33"/>
<path style="fill:#FCBF29;" d="M351,286.667c-0.136,0-0.269,0.009-0.405,0.01v65.979c0.135,0.002,0.269,0.01,0.405,0.01
	c18.225,0,33-14.774,33-33C384,301.441,369.225,286.667,351,286.667z"/>
<g>
</g>
<g>
</g>
<g>
</g>
<g>
</g>
<g>
</g>
<g>
</g>
<g>
</g>
<g>
</g>
<g>
</g>
<g>
</g>
<g>
</g>
<g>
</g>
<g>
</g>
<g>
</g>
<g>
</g>
</svg>
