<?xml version="1.0" encoding="iso-8859-1"?>
<!-- Generator: Adobe Illustrator 19.0.0, SVG Export Plug-In . SVG Version: 6.00 Build 0)  -->
<svg version="1.1" id="Capa_1" xmlns="http://www.w3.org/2000/svg" xmlns:xlink="http://www.w3.org/1999/xlink" x="0px" y="0px"
	 viewBox="0 0 512 512" style="enable-background:new 0 0 512 512;" xml:space="preserve">
<circle style="fill:#9B27AF;" cx="256" cy="256" r="256"/>
<path style="fill:#7B1FA1;" d="M124.421,314.208l190.875,190.875c102.34-24.273,180.901-109.968,194.581-216.007L329.126,108.325
	L124.421,314.208z"/>
<rect x="299.262" y="317.749" transform="matrix(-0.7071 -0.7071 0.7071 -0.7071 373.5159 852.212)" style="fill:#FE9A35;" width="127.989" height="61.998"/>
<rect x="336.982" y="296.202" transform="matrix(-0.7071 0.7071 -0.7071 -0.7071 855.2427 366.1399)" style="fill:#FF7C11;" width="29.619" height="127.989"/>
<circle style="fill:#FFFFFF;" cx="225.75" cy="210.25" r="126.25"/>
<path style="fill:#E0E0E0;" d="M135.019,122.472C113.034,145.191,99.5,176.138,99.5,210.25c0,69.726,56.524,126.25,126.25,126.25
	c34.112,0,65.059-13.534,87.778-35.519L135.019,122.472z"/>
<path style="fill:#FEEA3B;" d="M225.75,355.5c-80.091,0-145.25-65.159-145.25-145.25S145.659,65,225.75,65S371,130.159,371,210.25
	S305.841,355.5,225.75,355.5z M225.75,103c-59.138,0-107.25,48.112-107.25,107.25S166.612,317.5,225.75,317.5
	S333,269.388,333,210.25S284.888,103,225.75,103z"/>
<path style="fill:#FEC007;" d="M300.058,287.51c-19.29,18.56-45.488,29.99-74.308,29.99c-59.138,0-107.25-48.112-107.25-107.25
	c0-28.82,11.43-55.018,29.99-74.308l-26.857-26.857C96.193,135.259,80.5,170.954,80.5,210.25c0,80.091,65.159,145.25,145.25,145.25
	c39.296,0,74.991-15.693,101.165-41.132L300.058,287.51z"/>
<path style="fill:#00E4FE;" d="M168.443,230.826c0-31.65,57.307-98.458,57.307-98.458s57.307,66.808,57.307,98.458
	s-25.657,57.307-57.307,57.307S168.443,262.475,168.443,230.826z"/>
<path style="fill:#00BBD3;" d="M225.595,288.128c0.052,0,0.103,0.004,0.155,0.004c31.649,0,57.307-25.657,57.307-57.307
	s-57.307-98.458-57.307-98.458L225.595,288.128z"/>
<g>
</g>
<g>
</g>
<g>
</g>
<g>
</g>
<g>
</g>
<g>
</g>
<g>
</g>
<g>
</g>
<g>
</g>
<g>
</g>
<g>
</g>
<g>
</g>
<g>
</g>
<g>
</g>
<g>
</g>
</svg>
