<?xml version="1.0" encoding="iso-8859-1"?>
<!-- Generator: Adobe Illustrator 19.0.0, SVG Export Plug-In . SVG Version: 6.00 Build 0)  -->
<svg version="1.1" id="Capa_1" xmlns="http://www.w3.org/2000/svg" xmlns:xlink="http://www.w3.org/1999/xlink" x="0px" y="0px"
	 viewBox="0 0 512 512" style="enable-background:new 0 0 512 512;" xml:space="preserve">
<circle style="fill:#004EB1;" cx="256" cy="256" r="256"/>
<path style="fill:#002D6B;" d="M512,256c0-5.051-0.163-10.063-0.452-15.042L383.661,113.07l-64.445,67.571l-98.153-98.153
	L109,136.64l216.514,216.514l-16.583,86.129l50.809,50.809C449.434,450.283,512,360.454,512,256z"/>
<rect x="115.77" y="82.49" style="fill:#80D3F9;" width="105.29" height="42.12"/>
<rect x="109" y="120.84" style="fill:#FFFFFF;" width="265.49" height="15.794"/>
<path style="fill:#EBEEF0;" d="M348.088,420.768l-10.568,15.989c-7.25,10.969-23.348,10.969-30.598,0l-10.568-15.989
	c-23.203-35.106-35.573-76.259-35.573-118.34V113.07h122.88v189.358C383.661,344.509,371.291,385.662,348.088,420.768z"/>
<path style="fill:#E0E0E0;" d="M321.429,113.07v331.891c6.096,0.26,12.302-2.471,16.091-8.204l10.568-15.989
	c23.203-35.106,35.573-76.259,35.573-118.34V113.07H321.429z"/>
<path style="fill:#FEDB41;" d="M272.862,253.215v55.141c0,33.807,9.939,66.869,28.579,95.072l8.49,12.845
	c5.824,8.812,18.757,8.812,24.581,0l8.49-12.845c18.64-28.204,28.579-61.265,28.579-95.072v-55.14L272.862,253.215L272.862,253.215z
	"/>
<path style="fill:#FCBF29;" d="M321.429,253.215v169.621c4.948,0.263,10.007-1.908,13.083-6.563l8.49-12.845
	c18.64-28.204,28.579-61.265,28.579-95.073v-55.14L321.429,253.215L321.429,253.215z"/>
<g>
</g>
<g>
</g>
<g>
</g>
<g>
</g>
<g>
</g>
<g>
</g>
<g>
</g>
<g>
</g>
<g>
</g>
<g>
</g>
<g>
</g>
<g>
</g>
<g>
</g>
<g>
</g>
<g>
</g>
</svg>
