<?xml version="1.0" encoding="iso-8859-1"?>
<!-- Generator: Adobe Illustrator 19.0.0, SVG Export Plug-In . SVG Version: 6.00 Build 0)  -->
<svg version="1.1" id="Capa_1" xmlns="http://www.w3.org/2000/svg" xmlns:xlink="http://www.w3.org/1999/xlink" x="0px" y="0px"
	 viewBox="0 0 512 512" style="enable-background:new 0 0 512 512;" xml:space="preserve">
<circle style="fill:#F40057;" cx="256" cy="256" r="256"/>
<path style="fill:#CE0054;" d="M262.53,511.917c137.712-3.448,248.4-115.65,249.445-253.946L314.132,60.128L200.506,95.09
	l63.129,63.129l-108.294,246.51L262.53,511.917z"/>
<path style="fill:#FFFFFF;" d="M418.646,187.912l-40.99-36.364l-42.105,47.461c-11.112-7.69-23.394-13.807-36.548-17.982V62.817
	h-83.37v118.209c-55.649,17.661-95.976,69.733-95.977,131.23c0,76.029,61.633,137.661,137.662,137.661
	c76.028,0,137.662-61.633,137.662-137.662c0-27.081-7.827-52.33-21.333-73.621L418.646,187.912z"/>
<path style="fill:#E0E0E0;" d="M418.646,187.912l-40.99-36.364l-42.105,47.461c-11.112-7.69-23.394-13.808-36.548-17.982V62.817
	h-43.052V449.9c0.456,0.004,0.91,0.017,1.367,0.017c76.028,0,137.661-61.633,137.661-137.662c0-27.082-7.827-52.33-21.333-73.622
	L418.646,187.912z"/>
<path style="fill:#FEDB41;" d="M137.693,301.293c-0.587,4.823-0.891,9.733-0.891,14.715c0,66.56,53.957,120.517,120.517,120.517
	s120.517-53.957,120.517-120.517c0-4.982-0.304-9.892-0.891-14.715H137.693z"/>
<path style="fill:#FCBF29;" d="M376.945,301.292H255.953v135.215c0.456,0.005,0.91,0.017,1.366,0.017
	c66.56,0,120.517-53.958,120.517-120.517C377.836,311.026,377.532,306.115,376.945,301.292z"/>
<rect x="200.51" y="60.13" style="fill:#CED7DB;" width="113.62" height="34.962"/>
<g>
	<rect x="255.95" y="60.13" style="fill:#C0C0C0;" width="58.18" height="34.961"/>
	
		<rect x="354.384" y="165.506" transform="matrix(-0.7481 -0.6636 0.6636 -0.7481 567.3167 569.35)" style="fill:#C0C0C0;" width="74.681" height="22.979"/>
</g>
<g>
</g>
<g>
</g>
<g>
</g>
<g>
</g>
<g>
</g>
<g>
</g>
<g>
</g>
<g>
</g>
<g>
</g>
<g>
</g>
<g>
</g>
<g>
</g>
<g>
</g>
<g>
</g>
<g>
</g>
</svg>
