<?xml version="1.0" encoding="iso-8859-1"?>
<!-- Generator: Adobe Illustrator 19.0.0, SVG Export Plug-In . SVG Version: 6.00 Build 0)  -->
<svg version="1.1" id="Capa_1" xmlns="http://www.w3.org/2000/svg" xmlns:xlink="http://www.w3.org/1999/xlink" x="0px" y="0px"
	 viewBox="0 0 512.001 512.001" style="enable-background:new 0 0 512.001 512.001;" xml:space="preserve">
<circle style="fill:#004EB1;" cx="256" cy="256" r="256"/>
<path style="fill:#002D6B;" d="M511.148,276.882L381.766,147.499l-26.744,28.368l-61.225-61.226l-89.07,27.406l58.314,58.314
	l-9.147,25.494l-49.585-49.584L97.16,207.021l28.049,28.049l-4.109,161.603L235.62,511.194c6.725,0.53,13.52,0.807,20.381,0.807
	C390.353,512,500.521,408.498,511.148,276.882z"/>
<path style="fill:#83FEFE;" d="M373.994,347.441l-92.057-125.137v-95.542h-65.353v95.542L124.527,347.44
	c-8.487,11.536-0.249,27.822,14.072,27.822h221.322C374.244,375.263,382.481,358.977,373.994,347.441z"/>
<path style="fill:#18FEFE;" d="M373.994,347.441l-92.057-125.137v-95.542h-33.723v248.5h111.708
	C374.244,375.263,382.481,358.978,373.994,347.441z"/>
<path style="fill:#FEDF81;" d="M321.376,275.916H177.145l-52.618,71.525c-8.487,11.536-0.249,27.822,14.072,27.822h221.322
	c14.322,0,22.559-16.286,14.072-27.822L321.376,275.916z"/>
<path style="fill:#FEC928;" d="M373.994,347.441l-52.618-71.526h-73.162v99.347h111.708
	C374.244,375.263,382.481,358.978,373.994,347.441z"/>
<rect x="204.73" y="114.64" style="fill:#18FEFE;" width="89.07" height="27.406"/>
<rect x="248.21" y="114.64" style="fill:#00E4FE;" width="45.582" height="27.406"/>
<path style="fill:#FFFFFF;" d="M371.878,226.517v-77.261h-54.49v77.261c-36.372,11.544-62.73,45.577-62.73,85.771
	c0,49.692,40.283,89.975,89.975,89.975s89.975-40.283,89.975-89.975C434.607,272.094,408.25,238.06,371.878,226.517z"/>
<path style="fill:#E0E0E0;" d="M371.878,226.517v-77.26h-27.83v253c0.195,0.001,0.389,0.007,0.585,0.007
	c49.692,0,89.975-40.284,89.975-89.975C434.607,272.094,408.25,238.061,371.878,226.517z"/>
<path style="fill:#FEDB41;" d="M266.447,305.122c-0.384,3.152-0.583,6.362-0.583,9.618c0,43.503,35.266,78.769,78.769,78.769
	s78.769-35.266,78.769-78.77c0-3.256-0.199-6.465-0.583-9.618L266.447,305.122z"/>
<path style="fill:#FCBF29;" d="M422.819,305.122h-78.772v88.373c0.196,0.001,0.389,0.015,0.585,0.015
	c43.503,0,78.769-35.266,78.769-78.77C423.402,311.484,423.203,308.274,422.819,305.122z"/>
<rect x="307.5" y="147.5" style="fill:#CED7DB;" width="74.27" height="22.851"/>
<rect x="344.05" y="147.5" style="fill:#C0C0C0;" width="37.717" height="22.851"/>
<path style="fill:#FFFFFF;" d="M190.043,189.871h-78.618v182.728c0,20.249,17.599,36.664,39.309,36.664l0,0
	c21.71,0,39.309-16.415,39.309-36.664V189.871z"/>
<path style="fill:#E0E0E0;" d="M150.595,189.871V409.26c0.046,0,0.092,0.003,0.138,0.003l0,0c21.71,0,39.309-16.415,39.309-36.664
	V189.871H150.595z"/>
<path style="fill:#FE9A35;" d="M111.425,274.003v98.596c0,20.249,17.599,36.664,39.309,36.664l0,0
	c21.71,0,39.309-16.415,39.309-36.664v-98.596H111.425z"/>
<path style="fill:#FF7C11;" d="M150.595,274.003V409.26c0.046,0,0.092,0.003,0.138,0.003l0,0c21.71,0,39.309-16.415,39.309-36.664
	v-98.596H150.595z"/>
<rect x="97.16" y="176.27" style="fill:#CED7DB;" width="107.15" height="30.75"/>
<rect x="150.59" y="176.27" style="fill:#C0C0C0;" width="53.713" height="30.75"/>
<g>
</g>
<g>
</g>
<g>
</g>
<g>
</g>
<g>
</g>
<g>
</g>
<g>
</g>
<g>
</g>
<g>
</g>
<g>
</g>
<g>
</g>
<g>
</g>
<g>
</g>
<g>
</g>
<g>
</g>
</svg>
