<?xml version="1.0" encoding="iso-8859-1"?>
<!-- Generator: Adobe Illustrator 19.0.0, SVG Export Plug-In . SVG Version: 6.00 Build 0)  -->
<svg version="1.1" id="Capa_1" xmlns="http://www.w3.org/2000/svg" xmlns:xlink="http://www.w3.org/1999/xlink" x="0px" y="0px"
	 viewBox="0 0 512 512" style="enable-background:new 0 0 512 512;" xml:space="preserve">
<circle style="fill:#FEDB41;" cx="256" cy="256" r="256"/>
<path style="fill:#FCBF29;" d="M106.573,303.527l202.869,202.869c106.847-22.694,189.045-112.031,201.034-222.454L321.949,95.416
	l-19.278,17.036H181.852l-22.761-22.761l-52.519,52.959l32.841,32.841v102.124L106.573,303.527z"/>
<path style="fill:#607D8A;" d="M388.53,371.863H207.653V190.986H388.53V371.863z M227.653,351.863H368.53V210.986H227.653V351.863z"
	/>
<polygon style="fill:#52717C;" points="388.53,190.986 296.429,190.986 296.429,210.986 368.53,210.986 368.53,351.863 
	296.429,351.863 296.429,371.863 388.53,371.863 "/>
<circle style="fill:#32D736;" cx="217.65" cy="200.99" r="37.32"/>
<path style="fill:#10BB67;" d="M217.653,163.667c-0.131,0-0.26,0.009-0.391,0.01v74.619c0.131,0.001,0.26,0.01,0.391,0.01
	c20.611,0,37.32-16.708,37.32-37.319C254.972,180.375,238.264,163.667,217.653,163.667z"/>
<g>
	<circle style="fill:#32D736;" cx="375.5" cy="200.99" r="37.32"/>
	<circle style="fill:#32D736;" cx="217.65" cy="361.86" r="37.32"/>
</g>
<path style="fill:#10BB67;" d="M217.653,324.544c-0.131,0-0.26,0.008-0.391,0.01v74.619c0.131,0.001,0.26,0.01,0.391,0.01
	c20.611,0,37.32-16.708,37.32-37.319S238.264,324.544,217.653,324.544z"/>
<circle style="fill:#32D736;" cx="375.5" cy="361.86" r="37.32"/>
<g>
	<path style="fill:#10BB67;" d="M375.504,163.667c-0.369,0-0.733,0.017-1.099,0.028v74.583c0.366,0.011,0.731,0.028,1.099,0.028
		c20.611,0,37.319-16.708,37.319-37.319C412.824,180.375,396.115,163.667,375.504,163.667z"/>
	<path style="fill:#10BB67;" d="M375.504,324.544c-0.369,0-0.733,0.017-1.099,0.028v74.583c0.366,0.011,0.731,0.028,1.099,0.028
		c20.611,0,37.319-16.708,37.319-37.319S396.115,324.544,375.504,324.544z"/>
</g>
<path style="fill:#455A64;" d="M304.53,287.863H123.653V106.986H304.53V287.863z M143.653,267.863H284.53V126.986H143.653V267.863z"
	/>
<polygon style="fill:#2F464F;" points="304.53,106.986 211.905,106.986 211.905,126.986 284.53,126.986 284.53,267.863 
	211.905,267.863 211.905,287.863 304.53,287.863 "/>
<circle style="fill:#10BB67;" cx="133.65" cy="116.99" r="37.32"/>
<path style="fill:#0AA051;" d="M133.653,79.667c-0.307,0-0.61,0.016-0.915,0.023v74.592c0.305,0.008,0.608,0.023,0.915,0.023
	c20.611,0,37.32-16.708,37.32-37.319C170.972,96.375,154.264,79.667,133.653,79.667z"/>
<circle style="fill:#10BB67;" cx="291.5" cy="116.99" r="37.32"/>
<path style="fill:#0AA051;" d="M291.504,79.667c-0.145,0-0.288,0.009-0.433,0.011v74.617c0.145,0.001,0.288,0.011,0.433,0.011
	c20.611,0,37.319-16.708,37.319-37.319C328.824,96.375,312.115,79.667,291.504,79.667z"/>
<circle style="fill:#10BB67;" cx="133.65" cy="277.86" r="37.32"/>
<path style="fill:#0AA051;" d="M133.653,240.544c-0.307,0-0.61,0.016-0.915,0.023v74.593c0.305,0.007,0.608,0.023,0.915,0.023
	c20.611,0,37.32-16.708,37.32-37.319S154.264,240.544,133.653,240.544z"/>
<circle style="fill:#10BB67;" cx="291.5" cy="277.86" r="37.32"/>
<path style="fill:#0AA051;" d="M291.504,240.544c-0.145,0-0.288,0.009-0.433,0.011v74.617c0.145,0.001,0.288,0.011,0.433,0.011
	c20.611,0,37.319-16.708,37.319-37.319S312.115,240.544,291.504,240.544z"/>
<g>
</g>
<g>
</g>
<g>
</g>
<g>
</g>
<g>
</g>
<g>
</g>
<g>
</g>
<g>
</g>
<g>
</g>
<g>
</g>
<g>
</g>
<g>
</g>
<g>
</g>
<g>
</g>
<g>
</g>
</svg>
