<?xml version="1.0" encoding="iso-8859-1"?>
<!-- Generator: Adobe Illustrator 19.0.0, SVG Export Plug-In . SVG Version: 6.00 Build 0)  -->
<svg version="1.1" id="Capa_1" xmlns="http://www.w3.org/2000/svg" xmlns:xlink="http://www.w3.org/1999/xlink" x="0px" y="0px"
	 viewBox="0 0 512 512" style="enable-background:new 0 0 512 512;" xml:space="preserve">
<circle style="fill:#8D24A9;" cx="256" cy="256" r="256"/>
<path style="fill:#7B1FA1;" d="M504.151,319.114L266.174,81.137l-113.06,339.18l91.414,91.414C248.333,511.899,252.154,512,256,512
	C375.603,512,476.041,429.976,504.151,319.114z"/>
<polygon style="fill:#FFFFFF;" points="378.683,307.257 378.683,194.198 266.174,194.198 266.174,81.138 153.114,81.138 
	153.114,194.198 153.114,307.257 153.114,420.318 265.623,420.318 266.174,420.318 378.683,420.318 "/>
<polygon style="fill:#E0E0E0;" points="153.114,420.318 265.623,420.318 266.174,420.318 378.683,420.318 378.683,307.257 
	378.683,194.198 "/>
<rect x="153.11" y="307.26" style="fill:#C0C0C0;" width="113.06" height="113.06"/>
<polygon style="fill:#758F9B;" points="266.174,307.258 266.174,420.318 153.114,420.318 "/>
<rect x="153.11" y="194.2" style="fill:#E0E0E0;" width="113.06" height="113.06"/>
<rect x="265.62" y="307.26" style="fill:#C0C0C0;" width="113.06" height="113.06"/>
<g>
	<path style="fill:#455A64;" d="M230.37,112.874v53.259h-10.276v-22.729H195.94v22.729h-10.352v-53.259h10.352v21.529h24.154
		v-21.529L230.37,112.874L230.37,112.874z"/>
	<path style="fill:#455A64;" d="M182.229,283.129V229.87h10.352v44.182h27.154v9.077H182.229z"/>
	<path style="fill:#455A64;" d="M225.36,238.347v-9.977h10.052v9.977H225.36z M225.36,283.129v-39.307h10.052v39.307H225.36z"/>
	<path style="fill:#455A64;" d="M178.996,357.827v32.201h-9.767V339.78h7.572l26.186,32.979V339.85h9.767v50.177h-7.927
		L178.996,357.827z"/>
	<path style="fill:#455A64;" d="M232.427,390.735c-1.794,0-3.468-0.295-5.025-0.884c-1.557-0.589-2.901-1.416-4.033-2.477
		c-1.133-1.062-2.018-2.3-2.654-3.716c-0.637-1.415-0.955-2.972-0.955-4.671c0-1.745,0.389-3.361,1.167-4.848
		c0.779-1.486,1.863-2.748,3.256-3.786c1.392-1.037,3.055-1.851,4.989-2.442c1.935-0.589,4.058-0.884,6.369-0.884
		c1.651,0,3.267,0.142,4.849,0.424c1.58,0.283,2.983,0.685,4.211,1.203v-2.123c0-2.453-0.697-4.34-2.088-5.662
		c-1.393-1.32-3.457-1.981-6.192-1.981c-1.981,0-3.917,0.354-5.804,1.062c-1.888,0.708-3.821,1.746-5.803,3.114l-2.902-6.016
		c4.766-3.16,9.908-4.742,15.429-4.742c5.331,0,9.471,1.31,12.42,3.928c2.948,2.619,4.424,6.405,4.424,11.359v11.536
		c0,0.991,0.188,1.699,0.565,2.124c0.377,0.424,1.037,0.661,1.981,0.708v8.068c-0.896,0.188-1.733,0.318-2.512,0.389
		s-1.451,0.106-2.018,0.106c-1.793-0.048-3.161-0.46-4.104-1.239c-0.944-0.778-1.533-1.828-1.77-3.149l-0.212-2.052
		c-1.652,2.171-3.657,3.822-6.016,4.954C237.64,390.169,235.116,390.735,232.427,390.735z M235.116,383.8
		c1.604,0,3.125-0.283,4.564-0.849c1.438-0.566,2.559-1.32,3.361-2.265c1.037-0.802,1.558-1.699,1.558-2.689v-4.246
		c-1.133-0.425-2.36-0.766-3.681-1.026c-1.321-0.259-2.595-0.389-3.821-0.389c-2.454,0-4.459,0.555-6.016,1.663
		c-1.557,1.109-2.336,2.513-2.336,4.211c0,1.604,0.613,2.937,1.841,3.999C231.813,383.269,233.322,383.8,235.116,383.8z"/>
</g>
<g>
	<path style="fill:#202F35;" d="M317.343,388.585v-33.151l-12.907,24.687h-5.29l-12.908-24.687v33.151h-9.733v-50.079h10.438
		l14.813,28.496l14.953-28.496h10.368v50.079H317.343z"/>
	<path style="fill:#202F35;" d="M350.986,388.797c-2.445,0-4.69-0.494-6.736-1.481c-2.045-0.988-3.798-2.339-5.254-4.056
		c-1.459-1.716-2.587-3.703-3.386-5.96c-0.801-2.257-1.199-4.655-1.199-7.194c0-2.68,0.423-5.172,1.27-7.477
		c0.847-2.303,2.021-4.326,3.526-6.066c1.505-1.739,3.303-3.104,5.396-4.091c2.092-0.987,4.408-1.481,6.947-1.481
		c2.915,0,5.454,0.647,7.617,1.94c2.163,1.294,3.926,3.022,5.29,5.184v-6.489h8.253v35.196c0,2.727-0.506,5.172-1.517,7.335
		c-1.012,2.162-2.434,3.996-4.268,5.501c-1.834,1.504-3.997,2.656-6.489,3.456c-2.492,0.799-5.219,1.199-8.182,1.199
		c-4.091,0-7.512-0.67-10.263-2.01s-5.113-3.233-7.089-5.678l5.149-5.008c1.41,1.739,3.185,3.104,5.325,4.091
		s4.432,1.481,6.877,1.481c1.457,0,2.856-0.2,4.197-0.6c1.34-0.4,2.515-1.022,3.526-1.869c1.011-0.846,1.81-1.928,2.398-3.244
		c0.587-1.317,0.881-2.869,0.881-4.655v-4.655c-1.223,2.116-2.938,3.75-5.148,4.902
		C355.899,388.222,353.525,388.797,350.986,388.797z M354.23,381.25c1.034,0,2.021-0.164,2.963-0.494
		c0.94-0.329,1.799-0.776,2.574-1.34c0.776-0.564,1.47-1.222,2.081-1.975c0.61-0.751,1.081-1.552,1.41-2.398v-8.817
		c-0.846-2.162-2.163-3.902-3.949-5.219c-1.788-1.316-3.668-1.975-5.643-1.975c-1.458,0-2.786,0.317-3.985,0.952
		s-2.222,1.481-3.068,2.54c-0.847,1.058-1.493,2.269-1.939,3.632c-0.447,1.364-0.67,2.775-0.67,4.232
		c0,1.505,0.258,2.916,0.775,4.232c0.517,1.317,1.234,2.469,2.151,3.456c0.917,0.988,1.998,1.764,3.244,2.328
		C351.421,380.968,352.772,381.25,354.23,381.25z"/>
	<path style="fill:#202F35;" d="M321.421,269.402c0,2.25-0.45,4.226-1.351,5.926c-0.899,1.701-2.138,3.126-3.713,4.276
		c-1.575,1.151-3.401,2.025-5.476,2.625c-2.076,0.6-4.289,0.9-6.639,0.9h-25.729V229.87h28.505c1.85,0,3.525,0.401,5.025,1.2
		c1.501,0.801,2.775,1.838,3.826,3.113c1.05,1.275,1.862,2.726,2.438,4.351c0.574,1.625,0.863,3.263,0.863,4.913
		c0,2.601-0.651,5.039-1.951,7.314c-1.301,2.276-3.2,3.964-5.7,5.063c3.05,0.9,5.463,2.513,7.238,4.838
		C320.532,262.989,321.421,265.902,321.421,269.402z M288.865,238.722v13.427h13.803c1.75,0,3.237-0.6,4.463-1.8
		c1.225-1.2,1.838-2.851,1.838-4.951c0-2.05-0.563-3.676-1.688-4.876s-2.513-1.8-4.163-1.8L288.865,238.722L288.865,238.722z
		 M310.994,267.452c0-0.949-0.163-1.862-0.487-2.738c-0.326-0.875-0.764-1.637-1.313-2.288c-0.551-0.649-1.2-1.163-1.95-1.538
		s-1.575-0.563-2.475-0.563h-15.903v14.027h15.378c0.949,0,1.838-0.175,2.663-0.525c0.825-0.349,1.537-0.836,2.138-1.462
		c0.6-0.625,1.074-1.362,1.425-2.213C310.818,269.303,310.994,268.402,310.994,267.452z"/>
	<path style="fill:#202F35;" d="M346.774,283.879c-3.15,0-6.001-0.538-8.552-1.613c-2.55-1.075-4.726-2.538-6.525-4.388
		c-1.801-1.85-3.188-4-4.163-6.451c-0.976-2.449-1.463-5.025-1.463-7.726c0-2.8,0.475-5.438,1.425-7.914
		c0.949-2.476,2.325-4.651,4.126-6.526c1.8-1.875,3.987-3.362,6.563-4.463c2.575-1.1,5.463-1.65,8.664-1.65
		c3.199,0,6.063,0.551,8.589,1.65c2.524,1.101,4.675,2.576,6.451,4.425c1.774,1.851,3.124,4.001,4.051,6.451
		c0.925,2.451,1.388,5.001,1.388,7.651c0,0.65-0.014,1.275-0.038,1.875c-0.025,0.6-0.088,1.101-0.188,1.5h-30.38
		c0.15,1.551,0.525,2.925,1.125,4.125c0.601,1.2,1.375,2.226,2.326,3.076c0.949,0.851,2.024,1.5,3.225,1.95
		c1.2,0.45,2.45,0.675,3.751,0.675c2,0,3.888-0.488,5.663-1.463s2.988-2.262,3.639-3.863l8.626,2.4
		c-1.451,3-3.764,5.464-6.938,7.389C354.963,282.917,351.175,283.879,346.774,283.879z M356.977,260.176
		c-0.251-2.95-1.339-5.313-3.264-7.089c-1.926-1.774-4.264-2.663-7.014-2.663c-1.35,0-2.613,0.238-3.788,0.713
		c-1.176,0.476-2.213,1.138-3.113,1.988c-0.899,0.851-1.638,1.875-2.213,3.076s-0.912,2.525-1.012,3.976h20.404V260.176z"/>
</g>
<g>
</g>
<g>
</g>
<g>
</g>
<g>
</g>
<g>
</g>
<g>
</g>
<g>
</g>
<g>
</g>
<g>
</g>
<g>
</g>
<g>
</g>
<g>
</g>
<g>
</g>
<g>
</g>
<g>
</g>
</svg>
