<?xml version="1.0" encoding="iso-8859-1"?>
<!-- Generator: Adobe Illustrator 19.0.0, SVG Export Plug-In . SVG Version: 6.00 Build 0)  -->
<svg version="1.1" id="Capa_1" xmlns="http://www.w3.org/2000/svg" xmlns:xlink="http://www.w3.org/1999/xlink" x="0px" y="0px"
	 viewBox="0 0 512 512" style="enable-background:new 0 0 512 512;" xml:space="preserve">
<circle style="fill:#004EB1;" cx="256" cy="256" r="256"/>
<path style="fill:#002D6B;" d="M298.187,508.52c112.23-18.611,199.79-110.211,212.269-224.397L266,45l-45.101,47.81l-3.428,52.832
	l46.044,44.919l-42.64,36.613l-3.904,57.353l44.453,42.828l-42.828,55.337l-1.277,39.391l36.484,36.546L246,461.667L298.187,508.52z
	"/>
<rect x="216.75" y="87.67" style="fill:#FFFFFF;" width="78.5" height="20"/>
<rect x="255.95" y="87.67" style="fill:#E0E0E0;" width="39.3" height="20"/>
<rect x="216.75" y="119.17" style="fill:#FFFFFF;" width="78.5" height="20"/>
<rect x="255.95" y="119.17" style="fill:#E0E0E0;" width="39.3" height="20"/>
<rect x="216.75" y="227.17" style="fill:#FFFFFF;" width="78.5" height="20"/>
<rect x="255.95" y="227.17" style="fill:#E0E0E0;" width="39.3" height="20"/>
<rect x="216.75" y="258.67" style="fill:#FFFFFF;" width="78.5" height="20"/>
<rect x="255.95" y="258.67" style="fill:#E0E0E0;" width="39.3" height="20"/>
<rect x="216.75" y="366" style="fill:#FFFFFF;" width="78.5" height="20"/>
<rect x="255.95" y="366" style="fill:#E0E0E0;" width="39.3" height="20"/>
<rect x="216.75" y="397.5" style="fill:#FFFFFF;" width="78.5" height="20"/>
<rect x="255.95" y="397.5" style="fill:#E0E0E0;" width="39.3" height="20"/>
<path style="fill:#FE9A35;" d="M285.024,296.029C297.043,286.958,312,275.667,312,253.325s-14.957-33.632-26.976-42.703
	C273.229,201.719,266,195.664,266,183.882c0-11.781,7.229-17.836,19.024-26.739c12.019-9.071,26.976-20.36,26.976-42.701
	s-14.957-33.631-26.976-42.703C273.229,62.836,266,56.782,266,45h-20c0,11.782-7.229,17.836-19.024,26.74
	C214.957,80.811,200,92.101,200,114.442s14.957,33.63,26.976,42.701C238.771,166.046,246,172.101,246,183.882
	c0,11.782-7.229,17.836-19.024,26.74C214.957,219.693,200,230.983,200,253.325s14.957,33.632,26.976,42.704
	C238.771,304.933,246,310.988,246,322.77c0,11.783-7.229,17.839-19.024,26.743C214.957,358.585,200,369.875,200,392.218
	s14.957,33.633,26.976,42.706C238.771,443.828,246,449.883,246,461.667h20c0-11.783,7.229-17.839,19.024-26.743
	C297.043,425.852,312,414.561,312,392.218s-14.957-33.633-26.976-42.706C273.229,340.609,266,334.553,266,322.77
	C266,310.988,273.229,304.933,285.024,296.029z M239.024,141.181C227.229,132.278,220,126.223,220,114.442
	c0-11.782,7.229-17.836,19.024-26.74c5.627-4.247,11.897-8.98,16.976-15.106c5.079,6.126,11.349,10.859,16.976,15.106
	C284.771,96.606,292,102.661,292,114.442s-7.229,17.835-19.024,26.738c-5.627,4.247-11.897,8.98-16.976,15.105
	C250.921,150.161,244.651,145.427,239.024,141.181z M272.976,365.476C284.771,374.379,292,380.435,292,392.218
	s-7.229,17.839-19.024,26.743c-5.627,4.247-11.897,8.981-16.976,15.107c-5.079-6.126-11.349-10.86-16.976-15.107
	C227.229,410.057,220,404.001,220,392.218s7.229-17.839,19.024-26.743c5.627-4.247,11.897-8.981,16.976-15.107
	C261.079,356.494,267.349,361.229,272.976,365.476z M256,295.173c-5.079-6.125-11.349-10.859-16.976-15.106
	C227.229,271.163,220,265.108,220,253.325c0-11.782,7.229-17.837,19.024-26.74c5.627-4.247,11.897-8.98,16.976-15.106
	c5.079,6.126,11.349,10.859,16.976,15.106c11.795,8.903,19.024,14.958,19.024,26.74c0,11.783-7.229,17.838-19.024,26.741
	C267.349,284.313,261.079,289.047,256,295.173z"/>
<path style="fill:#FF7C11;" d="M255.952,461.667H266c0-11.783,7.229-17.839,19.024-26.743C297.043,425.852,312,414.561,312,392.218
	s-14.957-33.633-26.976-42.706C273.229,340.609,266,334.553,266,322.77c0-11.782,7.229-17.837,19.024-26.741
	C297.043,286.958,312,275.667,312,253.325s-14.957-33.632-26.976-42.703C273.229,201.719,266,195.664,266,183.882
	c0-11.781,7.229-17.836,19.024-26.739c12.019-9.071,26.976-20.36,26.976-42.701s-14.957-33.631-26.976-42.703
	C273.229,62.836,266,56.782,266,45h-10.048L256,72.596c5.079,6.126,11.349,10.859,16.976,15.106
	C284.771,96.606,292,102.661,292,114.442s-7.229,17.835-19.024,26.738c-5.627,4.247-11.897,8.98-16.976,15.105v55.193
	c5.079,6.126,11.349,10.859,16.976,15.106c11.795,8.903,19.024,14.958,19.024,26.74c0,11.783-7.229,17.838-19.024,26.741
	c-5.627,4.247-11.897,8.981-16.976,15.106v55.195c5.079,6.126,11.349,10.86,16.976,15.107C284.771,374.379,292,380.435,292,392.218
	s-7.229,17.839-19.024,26.743c-5.627,4.247-11.897,8.981-16.976,15.107L255.952,461.667z"/>
<g>
</g>
<g>
</g>
<g>
</g>
<g>
</g>
<g>
</g>
<g>
</g>
<g>
</g>
<g>
</g>
<g>
</g>
<g>
</g>
<g>
</g>
<g>
</g>
<g>
</g>
<g>
</g>
<g>
</g>
</svg>
