<?xml version="1.0" encoding="iso-8859-1"?>
<!-- Generator: Adobe Illustrator 19.0.0, SVG Export Plug-In . SVG Version: 6.00 Build 0)  -->
<svg version="1.1" id="Capa_1" xmlns="http://www.w3.org/2000/svg" xmlns:xlink="http://www.w3.org/1999/xlink" x="0px" y="0px"
	 viewBox="0 0 512 512" style="enable-background:new 0 0 512 512;" xml:space="preserve">
<circle style="fill:#F40057;" cx="256" cy="256" r="256"/>
<path style="fill:#CE0054;" d="M291.746,509.504c100.228-14.006,181.851-86.034,209.839-181.057L256,82.862L131.157,98.357
	l113.102,113.102l-48.36,202.197L291.746,509.504z"/>
<path style="fill:#FFFFFF;" d="M230.032,97.162l-98.876,1.195l92.813-23.681c10.296-2.626,23.594,1.753,32.031,8.185
	c8.719,6.648,11,14.989,11,25.954V128h-23v-17.038C244,103.275,237.719,97.069,230.032,97.162z"/>
<path style="fill:#E0E0E0;" d="M267,108.815c0-10.964-2.281-19.306-11-25.954c-0.207-0.158-0.43-0.308-0.643-0.464V128H267V108.815z
	"/>
<rect x="226.25" y="122" style="fill:#CED7DB;" width="59.5" height="26"/>
<rect x="255.36" y="122" style="fill:#A5B1B5;" width="30.393" height="26"/>
<path style="fill:#FFFFFF;" d="M268.75,430h-25.5c-42.388,0-76.75-34.362-76.75-76.75v-132.5c0-42.388,34.362-76.75,76.75-76.75
	h25.5c42.388,0,76.75,34.362,76.75,76.75v132.5C345.5,395.638,311.138,430,268.75,430z"/>
<path style="fill:#E0E0E0;" d="M268.75,144h-13.393v286h13.393c42.388,0,76.75-34.362,76.75-76.75v-132.5
	C345.5,178.362,311.138,144,268.75,144z"/>
<rect x="185" y="242" style="fill:#CED7DB;" width="142" height="102"/>
<rect x="255.36" y="242" style="fill:#9DA5A8;" width="71.64" height="102"/>
<rect x="210.5" y="261.5" style="fill:#546E7A;" width="82" height="8.5"/>
<rect x="255.36" y="261.5" style="fill:#3D565E;" width="37.14" height="8.5"/>
<rect x="210.5" y="281.5" style="fill:#546E7A;" width="60" height="8.5"/>
<rect x="255.36" y="281.5" style="fill:#3D565E;" width="15.14" height="8.5"/>
<g>
</g>
<g>
</g>
<g>
</g>
<g>
</g>
<g>
</g>
<g>
</g>
<g>
</g>
<g>
</g>
<g>
</g>
<g>
</g>
<g>
</g>
<g>
</g>
<g>
</g>
<g>
</g>
<g>
</g>
</svg>
