<?xml version="1.0" encoding="iso-8859-1"?>
<!-- Generator: Adobe Illustrator 19.0.0, SVG Export Plug-In . SVG Version: 6.00 Build 0)  -->
<svg version="1.1" id="Capa_1" xmlns="http://www.w3.org/2000/svg" xmlns:xlink="http://www.w3.org/1999/xlink" x="0px" y="0px"
	 viewBox="0 0 512 512" style="enable-background:new 0 0 512 512;" xml:space="preserve">
<circle style="fill:#004EB1;" cx="256" cy="256" r="256"/>
<path style="fill:#002D6B;" d="M512,256c0-4.596-0.127-9.163-0.366-13.7l-101.52-101.519l-147.13,109.523L157.875,145.196
	l42.093,150.471h-61.873L119.71,406.738l103.127,103.127C233.693,511.27,244.761,512,256,512C397.385,512,512,397.385,512,256z"/>
<path style="fill:#FFFFFF;" d="M410.114,140.781l-36.203-36.203c-44.216,4.727-120.912,15.088-185.313,78.697l-30.724-38.08
	l-39.442,33.117l23.104,28.637c7.376,9.142,9.516,21.417,5.749,32.543c-2.569,7.589-3.954,15.379-3.954,23.341
	c0,59.371,48.129,107.5,107.5,107.5s113.107-48.395,107.5-107.5C351.548,191.305,388.724,159.831,410.114,140.781z"/>
<path style="fill:#E0E0E0;" d="M410.114,140.781l-36.203-36.203c-29.365,3.139-73.058,8.771-117.959,30.828v234.802
	c57.3-2.68,107.826-49.974,102.381-107.375C351.548,191.305,388.724,159.831,410.114,140.781z"/>
<path style="fill:#83FEFE;" d="M357.532,244.333H145.831c-1.624,6.051-2.498,12.221-2.498,18.5c0,59.371,48.129,107.5,107.5,107.5
	s113.107-48.395,107.5-107.5C357.718,256.342,357.468,250.185,357.532,244.333z"/>
<path style="fill:#18FEFE;" d="M358.333,262.833c-0.616-6.491-0.865-12.648-0.801-18.5h-101.58v125.876
	C313.252,367.529,363.779,320.234,358.333,262.833z"/>
<circle style="fill:#0FF2EB;" cx="190.33" cy="289" r="15.333"/>
<g>
	<circle style="fill:#00DDD2;" cx="299" cy="214.33" r="10.667"/>
	<circle style="fill:#00DDD2;" cx="282.5" cy="289.83" r="21.833"/>
</g>
<circle style="fill:#0FF2EB;" cx="221.5" cy="211.83" r="21.17"/>
<polygon style="fill:#CED7DB;" points="358.376,408.595 348.53,303 149.47,303 139.624,408.595 119.71,406.738 131.248,283 
	366.752,283 378.29,406.738 "/>
<polygon style="fill:#9DA5A8;" points="366.752,283 255.952,283 255.952,303 348.53,303 358.376,408.595 378.29,406.738 "/>
<g>
</g>
<g>
</g>
<g>
</g>
<g>
</g>
<g>
</g>
<g>
</g>
<g>
</g>
<g>
</g>
<g>
</g>
<g>
</g>
<g>
</g>
<g>
</g>
<g>
</g>
<g>
</g>
<g>
</g>
</svg>
