<?xml version="1.0" encoding="iso-8859-1"?>
<!-- Generator: Adobe Illustrator 19.0.0, SVG Export Plug-In . SVG Version: 6.00 Build 0)  -->
<svg version="1.1" id="Capa_1" xmlns="http://www.w3.org/2000/svg" xmlns:xlink="http://www.w3.org/1999/xlink" x="0px" y="0px"
	 viewBox="0 0 512 512" style="enable-background:new 0 0 512 512;" xml:space="preserve">
<circle style="fill:#FEDB41;" cx="256" cy="256" r="256"/>
<path style="fill:#FCBF29;" d="M511.727,244.404l-157.88-157.88L224.339,199.426l32.634,32.844l-44.359,44.009L192.333,256
	l-72.275,140.706l113.629,114.316C241.043,511.656,248.481,512,256,512c141.385,0,256-114.615,256-256
	C512,252.113,511.898,248.25,511.727,244.404z"/>
<path style="fill:#37474F;" d="M353.847,86.524C325.063,69.87,291.646,60.333,256,60.333s-69.063,9.537-97.847,26.191L256,256
	L353.847,86.524z"/>
<path style="fill:#1F2D33;" d="M353.847,86.524C325.063,69.87,291.646,60.333,256,60.333c-0.016,0-0.032,0.001-0.048,0.001v195.583
	L256,256L353.847,86.524z"/>
<path style="fill:#37474F;" d="M60.333,256c0,72.417,39.344,135.642,97.82,169.476L256,256H60.333z"/>
<path style="fill:#1F2D33;" d="M353.847,425.476c58.476-33.834,97.82-97.058,97.82-169.476H256L353.847,425.476z"/>
<circle style="fill:#37474F;" cx="256" cy="256" r="53.667"/>
<path style="fill:#1F2D33;" d="M256,202.333c-0.016,0-0.032,0.001-0.048,0.001v107.331c0.016,0,0.032,0.001,0.048,0.001
	c29.639,0,53.667-24.027,53.667-53.667S285.639,202.333,256,202.333z"/>
<path style="fill:#FEEA3B;" d="M256,319.667c-35.106,0-63.667-28.561-63.667-63.667s28.561-63.667,63.667-63.667
	s63.667,28.561,63.667,63.667S291.106,319.667,256,319.667z M256,212.333c-24.078,0-43.667,19.589-43.667,43.667
	s19.589,43.667,43.667,43.667s43.667-19.589,43.667-43.667S280.078,212.333,256,212.333z"/>
<path style="fill:#FEC007;" d="M256,192.333c-0.016,0-0.032,0.001-0.048,0.001v20c0.016,0,0.032-0.001,0.048-0.001
	c24.078,0,43.667,19.589,43.667,43.667S280.078,299.667,256,299.667c-0.016,0-0.032-0.001-0.048-0.001v20
	c0.016,0,0.032,0.001,0.048,0.001c35.106,0,63.667-28.561,63.667-63.667S291.106,192.333,256,192.333z"/>
<g>
</g>
<g>
</g>
<g>
</g>
<g>
</g>
<g>
</g>
<g>
</g>
<g>
</g>
<g>
</g>
<g>
</g>
<g>
</g>
<g>
</g>
<g>
</g>
<g>
</g>
<g>
</g>
<g>
</g>
</svg>
