<?xml version="1.0" encoding="iso-8859-1"?>
<!-- Generator: Adobe Illustrator 19.0.0, SVG Export Plug-In . SVG Version: 6.00 Build 0)  -->
<svg version="1.1" id="Capa_1" xmlns="http://www.w3.org/2000/svg" xmlns:xlink="http://www.w3.org/1999/xlink" x="0px" y="0px"
	 viewBox="0 0 512 512" style="enable-background:new 0 0 512 512;" xml:space="preserve">
<circle style="fill:#FEDB41;" cx="256" cy="256" r="256"/>
<path style="fill:#FCBF29;" d="M512,256c0-1.292-0.03-2.577-0.049-3.864L338.32,78.504l-164.639,34.64l58.966,58.966
	l-76.348,254.894l84.537,84.537C245.854,511.834,250.907,512,256,512C397.385,512,512,397.385,512,256z"/>
<polygon style="fill:#37474F;" points="338.319,78.504 173.681,78.504 173.681,113.144 215.655,113.144 215.655,176.31 
	296.345,176.31 296.345,113.144 338.319,113.144 "/>
<polygon style="fill:#202F35;" points="255.952,78.504 255.952,176.31 296.345,176.31 296.345,113.144 338.319,113.144 
	338.32,78.504 "/>
<path style="fill:#455A64;" d="M308.265,183.313v-54.404H203.736v54.404h-27.947c-15.118,0-27.374,12.256-27.374,27.374v197.101
	c0,15.118,12.256,27.374,27.374,27.374h160.424c15.118,0,27.374-12.256,27.374-27.374V210.687c0-15.118-12.256-27.374-27.374-27.374
	L308.265,183.313z"/>
<path style="fill:#32474F;" d="M336.212,183.313h-27.948v-54.404h-52.313v306.253h80.26c15.118,0,27.374-12.256,27.374-27.374
	V210.687C363.586,195.568,351.33,183.313,336.212,183.313z"/>
<path style="fill:#AFBDC4;" d="M215.414,295.997c0.274-0.274,0.538-0.553,0.795-0.836l52.864,52.864
	c-0.284,0.257-0.563,0.522-0.836,0.795c-8.898,8.898-8.898,23.326,0,32.224s23.326,8.898,32.224,0
	c6.123-6.123,8.032-14.864,5.729-22.62c7.756,2.304,16.497,0.395,22.62-5.729c8.898-8.898,8.898-23.326,0-32.224
	s-23.326-8.898-32.224,0c-0.274,0.274-0.538,0.553-0.795,0.836l-52.864-52.864c0.284-0.257,0.563-0.522,0.836-0.795
	c8.898-8.898,8.898-23.326,0-32.224s-23.326-8.898-32.224,0c-6.123,6.123-8.032,14.864-5.729,22.62
	c-7.756-2.304-16.497-0.395-22.62,5.729c-8.898,8.898-8.898,23.326,0,32.224C192.089,304.895,206.516,304.895,215.414,295.997z"/>
<path style="fill:#99A5AA;" d="M328.81,320.47c-8.898-8.898-23.325-8.898-32.224,0c-0.274,0.274-0.539,0.553-0.795,0.836
	l-39.838-39.838v53.435l13.121,13.121c-0.284,0.257-0.563,0.522-0.836,0.795c-8.898,8.898-8.898,23.326,0,32.224
	s23.326,8.898,32.224,0c6.123-6.123,8.032-14.864,5.729-22.62c7.756,2.304,16.497,0.395,22.62-5.729
	C337.708,343.796,337.708,329.369,328.81,320.47z"/>
<path style="fill:#8FA3AD;" d="M243.763,348.819c-0.274-0.274-0.553-0.538-0.836-0.795l52.864-52.864
	c0.257,0.284,0.522,0.563,0.795,0.836c8.898,8.898,23.326,8.898,32.224,0s8.898-23.326,0-32.224
	c-6.123-6.123-14.864-8.032-22.62-5.728c2.304-7.756,0.395-16.497-5.729-22.62c-8.898-8.898-23.326-8.898-32.224,0
	s-8.898,23.326,0,32.224c0.274,0.274,0.553,0.538,0.836,0.795l-52.864,52.864c-0.257-0.284-0.522-0.563-0.795-0.836
	c-8.898-8.898-23.326-8.898-32.224,0s-8.898,23.326,0,32.224c6.123,6.123,14.864,8.032,22.62,5.729
	c-2.304,7.756-0.395,16.497,5.729,22.62c8.898,8.898,23.326,8.898,32.224,0S252.661,357.718,243.763,348.819z"/>
<path style="fill:#7D959E;" d="M328.81,263.773c-6.123-6.123-14.864-8.032-22.62-5.729c2.304-7.756,0.395-16.497-5.729-22.62
	c-8.898-8.898-23.326-8.898-32.224,0s-8.898,23.325,0,32.224c0.274,0.274,0.553,0.538,0.836,0.795l-13.121,13.121v53.435
	l39.838-39.838c0.257,0.284,0.522,0.563,0.795,0.836c8.898,8.898,23.325,8.898,32.224,0
	C337.708,287.098,337.708,272.671,328.81,263.773z"/>
<g>
</g>
<g>
</g>
<g>
</g>
<g>
</g>
<g>
</g>
<g>
</g>
<g>
</g>
<g>
</g>
<g>
</g>
<g>
</g>
<g>
</g>
<g>
</g>
<g>
</g>
<g>
</g>
<g>
</g>
</svg>
