<?xml version="1.0" encoding="iso-8859-1"?>
<!-- Generator: Adobe Illustrator 19.0.0, SVG Export Plug-In . SVG Version: 6.00 Build 0)  -->
<svg version="1.1" id="Capa_1" xmlns="http://www.w3.org/2000/svg" xmlns:xlink="http://www.w3.org/1999/xlink" x="0px" y="0px"
	 viewBox="0 0 512 512" style="enable-background:new 0 0 512 512;" xml:space="preserve">
<circle style="fill:#FEDB41;" cx="256" cy="256" r="256"/>
<path style="fill:#FCBF29;" d="M298.441,508.478C419.625,488.255,512,382.924,512,256c0-4.409-0.112-8.792-0.332-13.146
	l-110.3-110.3L285.694,239.077L168.118,121.5l-49.09,36.204l105.634,105.634L113,324.516L298.441,508.478z"/>
<rect x="251.173" y="273.996" transform="matrix(-0.9422 -0.335 0.335 -0.9422 555.0193 663.7253)" style="fill:#425860;" width="167.157" height="20"/>
<polygon style="fill:#546E7A;" points="133.112,314.325 125.888,295.675 238.346,252.114 136.307,146.447 150.693,132.553 
	273.654,259.886 "/>
<polygon style="fill:#425860;" points="294.453,412.976 244.452,252.554 365.645,152.78 378.355,168.22 267.549,259.445 
	313.547,407.024 "/>
<circle style="fill:#F40057;" cx="256" cy="256" r="59.75"/>
<path style="fill:#CE0054;" d="M256,196.25c-0.016,0-0.032,0.001-0.048,0.001v119.498c0.016,0,0.032,0.001,0.048,0.001
	c32.999,0,59.75-26.751,59.75-59.75S288.999,196.25,256,196.25z"/>
<circle style="fill:#004EB1;" cx="143.5" cy="139.5" r="30.5"/>
<g>
	<circle style="fill:#002D6B;" cx="413.5" cy="314" r="30.5"/>
	<circle style="fill:#002D6B;" cx="304.5" cy="413" r="30.5"/>
</g>
<circle style="fill:#004EB1;" cx="133" cy="301.5" r="30.5"/>
<circle style="fill:#002D6B;" cx="373.62" cy="161.87" r="40.37"/>
<g>
</g>
<g>
</g>
<g>
</g>
<g>
</g>
<g>
</g>
<g>
</g>
<g>
</g>
<g>
</g>
<g>
</g>
<g>
</g>
<g>
</g>
<g>
</g>
<g>
</g>
<g>
</g>
<g>
</g>
</svg>
