<?xml version="1.0" encoding="iso-8859-1"?>
<!-- Generator: Adobe Illustrator 19.0.0, SVG Export Plug-In . SVG Version: 6.00 Build 0)  -->
<svg version="1.1" id="Capa_1" xmlns="http://www.w3.org/2000/svg" xmlns:xlink="http://www.w3.org/1999/xlink" x="0px" y="0px"
	 viewBox="0 0 512 512" style="enable-background:new 0 0 512 512;" xml:space="preserve">
<circle style="fill:#004EB1;" cx="256" cy="256" r="256"/>
<path style="fill:#002D6B;" d="M287.51,510.068c125.835-15.447,223.414-122.196,224.463-251.959L369.36,115.496l-6.329,5.115
	l-66.329-66.329l-30.227,99.133l-131.177,40.28L265.454,323.85l-38.093,126.069L287.51,510.068z"/>
<path style="fill:#83FEFE;" d="M353.923,151.676c0-14.222,5.928-27.051,15.437-36.179c-7.571,4.586-16.451,7.226-25.949,7.226
	c-27.703,0-50.16-22.458-50.16-50.16c0-6.453,1.232-12.614,3.451-18.28c-9.109,12.632-23.94,20.862-40.703,20.862
	s-31.594-8.23-40.703-20.862c2.219,5.666,3.451,11.828,3.451,18.28c0,27.703-22.457,50.16-50.16,50.16
	c-9.497,0-18.378-2.641-25.949-7.226c9.509,9.128,15.437,21.957,15.437,36.179c0,17.596-9.068,33.066-22.779,42.019
	c4.259-1.176,8.74-1.817,13.374-1.817c26.961,0,48.945,21.273,50.104,47.948c9.866-21.768,31.769-36.919,57.224-36.919
	s47.358,15.151,57.224,36.919c1.159-26.675,23.144-47.948,50.104-47.948c4.633,0,9.114,0.641,13.374,1.817
	C362.991,184.742,353.923,169.272,353.923,151.676z"/>
<path style="fill:#18FEFE;" d="M353.923,151.676c0-14.222,5.928-27.051,15.437-36.179c-7.571,4.586-16.451,7.226-25.949,7.226
	c-27.703,0-50.16-22.458-50.16-50.16c0-6.453,1.232-12.614,3.451-18.28c-9.108,12.632-23.94,20.862-40.703,20.862
	c-0.016,0-0.032-0.001-0.048-0.001v127.764c0.016,0,0.032-0.001,0.048-0.001c25.455,0,47.358,15.151,57.224,36.919
	c1.159-26.675,23.144-47.948,50.104-47.948c4.633,0,9.115,0.641,13.374,1.817C362.991,184.742,353.923,169.272,353.923,151.676z"/>
<path style="fill:#FFFFFF;" d="M301.01,190.871h-90.02v224.323c0,24.858,20.152,45.01,45.01,45.01l0,0
	c24.858,0,45.01-20.152,45.01-45.01L301.01,190.871L301.01,190.871z"/>
<path style="fill:#E0E0E0;" d="M255.952,190.871v269.332c0.016,0,0.032,0.001,0.048,0.001l0,0c24.858,0,45.01-20.152,45.01-45.01
	V190.871H255.952z"/>
<path style="fill:#FEDB41;" d="M210.99,288.877v126.318c0,24.858,20.152,45.01,45.01,45.01l0,0c24.858,0,45.01-20.152,45.01-45.01
	V288.877H210.99z"/>
<path style="fill:#FCBF29;" d="M255.952,288.877v171.326c0.016,0,0.032,0.001,0.048,0.001l0,0c24.858,0,45.01-20.152,45.01-45.01
	V288.877H255.952z"/>
<rect x="194.66" y="174.17" style="fill:#FEDB41;" width="122.69" height="37.75"/>
<rect x="255.95" y="174.17" style="fill:#FCBF29;" width="61.39" height="37.75"/>
<g>
</g>
<g>
</g>
<g>
</g>
<g>
</g>
<g>
</g>
<g>
</g>
<g>
</g>
<g>
</g>
<g>
</g>
<g>
</g>
<g>
</g>
<g>
</g>
<g>
</g>
<g>
</g>
<g>
</g>
</svg>
