<?xml version="1.0" encoding="iso-8859-1"?>
<!-- Generator: Adobe Illustrator 19.0.0, SVG Export Plug-In . SVG Version: 6.00 Build 0)  -->
<svg version="1.1" id="Capa_1" xmlns="http://www.w3.org/2000/svg" xmlns:xlink="http://www.w3.org/1999/xlink" x="0px" y="0px"
	 viewBox="0 0 512 512" style="enable-background:new 0 0 512 512;" xml:space="preserve">
<circle style="fill:#FEDB41;" cx="256" cy="256" r="256"/>
<path style="fill:#FCBF29;" d="M511.056,277.924L363.688,130.557L101.746,361.289l150.666,150.666
	C253.607,511.971,254.8,512,256,512C389.998,512,499.932,409.044,511.056,277.924z"/>
<circle style="fill:#324B54;" cx="352.49" cy="302.32" r="82.56"/>
<circle style="fill:#546E7A;" cx="159.51" cy="302.32" r="82.56"/>
<circle style="fill:#F40057;" cx="256" cy="217.24" r="138.24"/>
<path style="fill:#CE0054;" d="M256,79c-0.016,0-0.032,0-0.048,0v276.484c0.016,0,0.032,0.001,0.048,0.001
	c76.349,0,138.243-61.893,138.243-138.243C394.243,140.893,332.349,79,256,79z"/>
<g>
</g>
<g>
</g>
<g>
</g>
<g>
</g>
<g>
</g>
<g>
</g>
<g>
</g>
<g>
</g>
<g>
</g>
<g>
</g>
<g>
</g>
<g>
</g>
<g>
</g>
<g>
</g>
<g>
</g>
</svg>
