<?xml version="1.0" encoding="iso-8859-1"?>
<!-- Generator: Adobe Illustrator 19.0.0, SVG Export Plug-In . SVG Version: 6.00 Build 0)  -->
<svg version="1.1" id="Capa_1" xmlns="http://www.w3.org/2000/svg" xmlns:xlink="http://www.w3.org/1999/xlink" x="0px" y="0px"
	 viewBox="0 0 512 512" style="enable-background:new 0 0 512 512;" xml:space="preserve">
<circle style="fill:#FEDB41;" cx="256" cy="256" r="256"/>
<path style="fill:#FCBF29;" d="M512,256c0-1.292-0.03-2.577-0.049-3.864L338.32,78.504l-164.639,34.64L276.95,216.413
	L156.298,427.004l84.537,84.537C245.854,511.834,250.907,512,256,512C397.385,512,512,397.385,512,256z"/>
<polygon style="fill:#5D4037;" points="338.319,78.504 173.681,78.504 173.681,113.144 215.655,113.144 215.655,176.31 
	296.345,176.31 296.345,113.144 338.319,113.144 "/>
<polygon style="fill:#47302A;" points="255.952,78.504 255.952,176.31 296.345,176.31 296.345,113.144 338.319,113.144 
	338.32,78.504 "/>
<path style="fill:#6D4C41;" d="M308.265,183.313v-54.404H203.736v54.404h-27.947c-15.118,0-27.374,12.256-27.374,27.374v197.101
	c0,15.118,12.256,27.374,27.374,27.374h160.424c15.118,0,27.374-12.256,27.374-27.374V210.687c0-15.118-12.256-27.374-27.374-27.374
	L308.265,183.313z"/>
<path style="fill:#593C35;" d="M336.212,183.313h-27.947v-54.404h-52.312v306.253h80.26c15.118,0,27.374-12.256,27.374-27.374
	V210.687C363.586,195.568,351.33,183.313,336.212,183.313z"/>
<rect x="166.34" y="251.37" style="fill:#FFFFFF;" width="179.31" height="103.1"/>
<rect x="255.95" y="251.37" style="fill:#E0E0E0;" width="89.7" height="103.1"/>
<rect x="196.33" y="275" style="fill:#C0C0C0;" width="119.33" height="19.333"/>
<rect x="255.95" y="275" style="fill:#758F9B;" width="59.714" height="19.333"/>
<rect x="196.33" y="311" style="fill:#C0C0C0;" width="119.33" height="19.333"/>
<rect x="255.95" y="311" style="fill:#758F9B;" width="59.714" height="19.333"/>
<g>
</g>
<g>
</g>
<g>
</g>
<g>
</g>
<g>
</g>
<g>
</g>
<g>
</g>
<g>
</g>
<g>
</g>
<g>
</g>
<g>
</g>
<g>
</g>
<g>
</g>
<g>
</g>
<g>
</g>
</svg>
