<?xml version="1.0" encoding="iso-8859-1"?>
<!-- Generator: Adobe Illustrator 19.0.0, SVG Export Plug-In . SVG Version: 6.00 Build 0)  -->
<svg version="1.1" id="Capa_1" xmlns="http://www.w3.org/2000/svg" xmlns:xlink="http://www.w3.org/1999/xlink" x="0px" y="0px"
	 viewBox="0 0 512 512" style="enable-background:new 0 0 512 512;" xml:space="preserve">
<circle style="fill:#FEDB41;" cx="256" cy="256" r="256"/>
<path style="fill:#FCBF29;" d="M512,256c0-12.378-0.897-24.546-2.595-36.455l-68.126-68.126l-52.997,32.491l-61.933-61.933
	L256,157.69l26.319,46.578l-37.527-37.527l-10.71,15.673L160,108.332c0,0-71.407,261.937-69.606,263.738l138.502,138.502
	C237.804,511.51,246.844,512,256,512C397.385,512,512,397.385,512,256z"/>
<g>
	<path style="fill:#455A64;" d="M244.792,256.47h-51.805l-25.901-44.864l25.901-44.864h51.805l25.903,44.864L244.792,256.47z
		 M205.688,234.47h26.402l13.2-22.864l-13.2-22.864h-26.402l-13.2,22.864L205.688,234.47z"/>
	<path style="fill:#455A64;" d="M326.349,211.706h-51.804l-25.903-44.864l25.903-44.864h51.804l25.903,44.864L326.349,211.706z
		 M287.246,189.706h26.401l13.2-22.864l-13.2-22.864h-26.401l-13.2,22.864L287.246,189.706z"/>
</g>
<g>
	<polygon style="fill:#324147;" points="352.252,166.841 326.349,121.977 299.405,121.977 299.405,143.977 313.647,143.977 
		326.848,166.841 313.647,189.706 299.405,189.706 299.405,211.706 326.349,211.706 	"/>
	<path style="fill:#324147;" d="M410.928,249.781l22.042-38.176l-18.989-32.889l27.298-27.298l-15.557-15.557l-30.878,30.879
		h-39.581l-25.903,44.864l25.903,44.864h33.666l0.002,34.197h-30.948l-25.901,44.864l25.901,44.864h51.805l25.901-44.864
		l-24.758-42.884L410.928,249.781z M354.764,211.605l13.2-22.864h26.401l13.2,22.864l-13.2,22.864h-26.401L354.764,211.605z
		 M397.086,358.395h-26.402l-13.2-22.864l13.2-22.864h26.402l13.2,22.864L397.086,358.395z"/>
</g>
<path style="fill:#32D736;" d="M256.667,304.999c0,53.388-43.279,96.667-96.667,96.667s-96.667-43.279-96.667-96.667
	S160,108.332,160,108.332S256.667,251.611,256.667,304.999z"/>
<path style="fill:#10BB67;" d="M159.524,401.659c0.159,0.001,0.317,0.006,0.476,0.006c53.387,0,96.667-43.279,96.667-96.667
	S160,108.331,160,108.331L159.524,401.659z"/>
<polygon style="fill:#2E7D32;" points="208.738,333.403 194.596,319.261 170,343.856 170,270.141 201.071,239.07 186.929,224.927 
	170,241.856 170,150.501 150,150.501 150,294.523 128.405,272.928 114.263,287.069 150,322.807 150,421.834 170,421.834 
	170,372.141 "/>
<polygon style="fill:#1B5E20;" points="194.596,319.261 170,343.856 170,270.141 201.071,239.07 186.929,224.927 170,241.856 
	170,150.501 159.953,150.501 159.524,421.834 170,421.834 170,372.141 208.738,333.403 "/>
<g>
</g>
<g>
</g>
<g>
</g>
<g>
</g>
<g>
</g>
<g>
</g>
<g>
</g>
<g>
</g>
<g>
</g>
<g>
</g>
<g>
</g>
<g>
</g>
<g>
</g>
<g>
</g>
<g>
</g>
</svg>
