<?xml version="1.0" encoding="iso-8859-1"?>
<!-- Generator: Adobe Illustrator 19.0.0, SVG Export Plug-In . SVG Version: 6.00 Build 0)  -->
<svg version="1.1" id="Capa_1" xmlns="http://www.w3.org/2000/svg" xmlns:xlink="http://www.w3.org/1999/xlink" x="0px" y="0px"
	 viewBox="0 0 512 512" style="enable-background:new 0 0 512 512;" xml:space="preserve">
<circle style="fill:#004EB1;" cx="256" cy="256" r="256"/>
<path style="fill:#002D6B;" d="M509.329,292.997l-68.48-68.48l-55.624,78.973L199.853,118.118l-94.344,263.205l129.845,129.845
	C242.166,511.713,249.049,512,256,512C384.819,512,491.398,416.848,509.329,292.997z"/>
<path style="fill:#FFFFFF;" d="M152.657,401.061L152.657,401.061c-36.559,0-66.196-29.637-66.196-66.196V164.528
	c0-36.559,29.637-66.196,66.196-66.196l0,0c36.559,0,66.196,29.637,66.196,66.196v170.338
	C218.853,371.424,189.216,401.061,152.657,401.061z"/>
<path style="fill:#E0E0E0;" d="M152.657,98.332L152.657,98.332c-0.093,0-0.184,0.007-0.276,0.007v302.715
	c0.092,0,0.183,0.007,0.276,0.007l0,0c36.559,0,66.196-29.637,66.196-66.195V164.528C218.853,127.969,189.216,98.332,152.657,98.332
	z"/>
<path style="fill:#FEC007;" d="M218.853,164.528c0-36.559-29.637-66.196-66.196-66.196l0,0c-36.559,0-66.196,29.637-66.196,66.196
	v84.747h132.391L218.853,164.528L218.853,164.528z"/>
<path style="fill:#FE9700;" d="M218.853,164.528c0-36.559-29.637-66.196-66.196-66.196c-0.093,0-0.184,0.007-0.276,0.007v150.936
	h66.472V164.528z"/>
<path style="fill:#FEEAED;" d="M446.177,233.499L446.177,233.499c16.132,32.807,2.615,72.48-30.192,88.613l-152.857,75.165
	c-32.807,16.132-72.48,2.615-88.613-30.192l0,0c-16.132-32.807-2.615-72.48,30.192-88.613l152.857-75.165
	C390.371,187.174,430.044,200.692,446.177,233.499z"/>
<path style="fill:#FECCD1;" d="M446.177,233.499c-0.029-0.059-0.061-0.114-0.09-0.172l-272.01,132.805
	c0.15,0.317,0.284,0.637,0.439,0.953l0,0c16.132,32.807,55.806,46.324,88.612,30.192l152.857-75.165
	C448.792,305.979,462.309,266.306,446.177,233.499L446.177,233.499z"/>
<path style="fill:#FF4681;" d="M204.707,278.472c-32.807,16.132-46.325,55.806-30.192,88.613l0,0
	c16.132,32.807,55.806,46.324,88.613,30.192l76.05-37.397l-58.421-118.805L204.707,278.472z"/>
<path style="fill:#C32363;" d="M174.076,366.132c0.15,0.317,0.284,0.637,0.439,0.953c16.132,32.807,55.806,46.324,88.613,30.192
	l76.05-37.396l-29.485-59.961L174.076,366.132z"/>
<g>
</g>
<g>
</g>
<g>
</g>
<g>
</g>
<g>
</g>
<g>
</g>
<g>
</g>
<g>
</g>
<g>
</g>
<g>
</g>
<g>
</g>
<g>
</g>
<g>
</g>
<g>
</g>
<g>
</g>
</svg>
