<?xml version="1.0" encoding="iso-8859-1"?>
<!-- Generator: Adobe Illustrator 19.0.0, SVG Export Plug-In . SVG Version: 6.00 Build 0)  -->
<svg version="1.1" id="Capa_1" xmlns="http://www.w3.org/2000/svg" xmlns:xlink="http://www.w3.org/1999/xlink" x="0px" y="0px"
	 viewBox="0 0 512 512" style="enable-background:new 0 0 512 512;" xml:space="preserve">
<circle style="fill:#8D24A9;" cx="256" cy="256" r="256"/>
<path style="fill:#6A1B99;" d="M512,256c0-9.519-0.537-18.912-1.549-28.161L406.213,123.601L115.831,398.983l111.398,111.398
	C236.676,511.438,246.272,512,256,512C397.385,512,512,397.385,512,256z"/>
<circle style="fill:#18FEFE;" cx="256" cy="256" r="181.33"/>
<path style="fill:#00E4FE;" d="M256,74.667c-0.016,0-0.032,0.001-0.048,0.001v362.666c0.016,0,0.032,0,0.048,0
	c100.148,0,181.333-81.186,181.333-181.333S356.148,74.667,256,74.667z"/>
<path style="fill:#283592;" d="M256,456.333c-110.464,0-200.333-89.869-200.333-200.333S145.536,55.667,256,55.667
	S456.333,145.536,456.333,256S366.464,456.333,256,456.333z M256,93.667c-89.511,0-162.333,72.822-162.333,162.333
	S166.489,418.333,256,418.333S418.333,345.511,418.333,256S345.511,93.667,256,93.667z"/>
<path style="fill:#002D6B;" d="M256,55.667c-0.016,0-0.032,0-0.048,0v38c0.016,0,0.032,0,0.048,0
	c89.511,0,162.333,72.822,162.333,162.333S345.511,418.333,256,418.333c-0.016,0-0.032,0-0.048,0v38c0.016,0,0.032,0,0.048,0
	c110.464,0,200.333-89.869,200.333-200.333S366.464,55.667,256,55.667z"/>
<path style="fill:#F40057;" d="M221,217.503c-5.131,0-9.94-3.183-11.769-8.29l-19.333-54c-2.327-6.5,1.056-13.655,7.555-15.982
	c6.498-2.328,13.655,1.056,15.982,7.555l19.333,54c2.327,6.5-1.056,13.655-7.555,15.982
	C223.821,217.267,222.399,217.503,221,217.503z"/>
<path style="fill:#E0E0E0;" d="M334.347,286.167c-0.334,0-0.671-0.013-1.01-0.041c-6.881-0.55-12.014-6.575-11.463-13.457
	c1.713-21.428,22.276-36.051,41.11-37.993c1.375-2.659,2.724-9.055,2.854-14.006c0.182-6.901,5.896-12.333,12.825-12.167
	c6.901,0.182,12.348,5.923,12.167,12.825c-0.021,0.794-0.261,7.981-2.23,15.563c-4.896,18.851-16.035,22.244-22.239,22.588
	c-6.433,0.357-18.823,5.886-19.566,15.182C346.271,281.205,340.798,286.167,334.347,286.167z"/>
<path style="fill:#F40057;" d="M232.339,383.503c-4.874,0-9.506-2.869-11.521-7.641c-2.685-6.36,0.293-13.693,6.653-16.378
	l30-12.667c6.36-2.686,13.692,0.293,16.378,6.653c2.685,6.36-0.293,13.693-6.653,16.378l-30,12.667
	C235.608,383.186,233.96,383.503,232.339,383.503z"/>
<path style="fill:#CE0054;" d="M273.849,353.471c-2.686-6.36-10.018-9.339-16.378-6.653l-1.519,0.641v27.137l11.243-4.747
	C273.556,367.164,276.534,359.832,273.849,353.471z"/>
<path style="fill:#FFFFFF;" d="M192.989,318.836c-5.641,0-10.753-3.844-12.137-9.557c-0.687-2.728-7.27-26.062-31.366-23.833
	c-6.876,0.636-12.963-4.42-13.599-11.294c-0.637-6.874,4.42-12.962,11.294-13.599c37.026-3.43,54.122,26.565,57.984,42.905
	c1.588,6.719-2.571,13.452-9.29,15.041C194.909,318.727,193.941,318.836,192.989,318.836z"/>
<path style="fill:#47626B;" d="M297.656,180.836c-1.916,0-3.86-0.441-5.683-1.375c-6.146-3.144-8.579-10.676-5.435-16.821
	l14.667-28.667c3.144-6.146,10.674-8.581,16.821-5.435c6.146,3.144,8.579,10.676,5.435,16.821l-14.667,28.667
	C306.583,178.35,302.2,180.836,297.656,180.836z"/>
<path style="fill:#37474F;" d="M264.328,295.5c-6.783,0-12.35-5.426-12.492-12.24c-0.144-6.902,5.334-12.614,12.237-12.757l32-0.667
	c6.903-0.152,12.614,5.335,12.757,12.237c0.144,6.902-5.334,12.614-12.237,12.757l-32,0.667
	C264.505,295.499,264.417,295.5,264.328,295.5z"/>
<path style="fill:#2C3C42;" d="M296.073,269.836l-32,0.667c-3.134,0.065-5.967,1.287-8.121,3.238v18.515
	c2.221,2.012,5.157,3.244,8.376,3.244c0.088,0,0.177-0.001,0.266-0.003l32-0.667c6.902-0.144,12.381-5.855,12.237-12.757
	C308.688,275.171,302.977,269.684,296.073,269.836z"/>
<path style="fill:#CE0054;" d="M338.345,363.502c-4.384,0-8.638-2.31-10.926-6.41c-3.364-6.028-1.205-13.643,4.823-17.007l28.667-16
	c6.029-3.365,13.643-1.205,17.007,4.823c3.364,6.028,1.205,13.643-4.823,17.007l-28.667,16
	C342.498,362.991,340.406,363.502,338.345,363.502z"/>
<path style="fill:#F40057;" d="M128.323,222.169c-1.995,0-4.019-0.479-5.899-1.488c-6.083-3.264-8.369-10.842-5.104-16.925
	l14.667-27.333c3.265-6.083,10.843-8.368,16.925-5.104c6.083,3.264,8.369,10.842,5.104,16.925l-14.667,27.333
	C137.093,219.779,132.78,222.169,128.323,222.169z"/>
<g>
</g>
<g>
</g>
<g>
</g>
<g>
</g>
<g>
</g>
<g>
</g>
<g>
</g>
<g>
</g>
<g>
</g>
<g>
</g>
<g>
</g>
<g>
</g>
<g>
</g>
<g>
</g>
<g>
</g>
</svg>
