<?xml version="1.0" encoding="iso-8859-1"?>
<!-- Generator: Adobe Illustrator 19.0.0, SVG Export Plug-In . SVG Version: 6.00 Build 0)  -->
<svg version="1.1" id="Capa_1" xmlns="http://www.w3.org/2000/svg" xmlns:xlink="http://www.w3.org/1999/xlink" x="0px" y="0px"
	 viewBox="0 0 512 512" style="enable-background:new 0 0 512 512;" xml:space="preserve">
<circle style="fill:#004EB1;" cx="256" cy="256" r="256"/>
<path style="fill:#002D6B;" d="M267.205,511.742c104.377-4.497,192.542-71.485,228.037-164.5L257,109l4.616,88.643l-107.31-107.31
	l-39.774,139.709L249.22,364.73l-78.953,50.073L267.205,511.742z"/>
<path style="fill:#83FEFE;" d="M131.667,324.333C131.667,255.114,257,109,257,109s125.333,146.114,125.333,215.333
	S326.22,449.667,257,449.667S131.667,393.553,131.667,324.333z"/>
<path style="fill:#18FEFE;" d="M257,449.667c69.22,0,125.333-56.114,125.333-125.333S257,109,257,109V449.667z"/>
<path style="fill:#00E4FE;" d="M97,188.791c0-31.65,57.307-98.458,57.307-98.458s57.307,66.808,57.307,98.458
	s-25.657,57.307-57.307,57.307S97,220.44,97,188.791z"/>
<g>
	<path style="fill:#00BBD3;" d="M154.307,246.097c31.65,0,57.307-25.657,57.307-57.307s-57.307-98.458-57.307-98.458V246.097z"/>
	<path style="fill:#00BBD3;" d="M233.729,322.612v72.496H219.74V364.17h-32.878v30.938h-14.091v-72.496h14.091v29.305h32.878
		v-29.305H233.729z"/>
	<path style="fill:#00BBD3;" d="M243.826,395.108c0-1.86,0.145-3.544,0.434-5.053c0.289-1.508,0.806-2.903,1.55-4.185
		c0.744-1.281,1.736-2.48,2.976-3.596s2.831-2.211,4.774-3.286c1.653-0.909,3.131-1.705,4.433-2.387s2.396-1.312,3.286-1.891
		c0.888-0.578,1.56-1.167,2.015-1.767c0.455-0.599,0.682-1.291,0.682-2.077c0-1.24-0.496-2.304-1.488-3.193
		c-0.992-0.888-2.418-1.333-4.278-1.333c-0.992,0-1.901,0.135-2.728,0.403c-0.828,0.269-1.603,0.631-2.325,1.085
		c-0.724,0.455-1.385,0.961-1.984,1.519c-0.6,0.558-1.147,1.147-1.643,1.767l-5.332-6.138c0.537-0.578,1.302-1.209,2.294-1.891
		c0.992-0.682,2.159-1.323,3.503-1.922c1.343-0.599,2.831-1.095,4.464-1.488c1.632-0.392,3.379-0.589,5.239-0.589
		c2.108,0,3.988,0.259,5.642,0.775c1.652,0.517,3.047,1.24,4.185,2.17c1.136,0.93,2.004,2.046,2.604,3.348
		c0.599,1.302,0.899,2.718,0.899,4.247c0,1.447-0.27,2.728-0.806,3.844c-0.538,1.116-1.22,2.108-2.046,2.976
		c-0.828,0.868-1.727,1.623-2.697,2.263c-0.972,0.641-1.912,1.209-2.821,1.705c-0.744,0.414-1.541,0.868-2.387,1.364
		c-0.848,0.496-1.685,1.044-2.511,1.643c-0.827,0.6-1.581,1.251-2.263,1.953c-0.682,0.703-1.209,1.447-1.581,2.232h17.794v7.502
		L243.826,395.108L243.826,395.108z"/>
</g>
<g>
	<path style="fill:#04AAB7;" d="M269.525,362.031c-1.138-0.93-2.533-1.653-4.185-2.17c-1.654-0.516-3.534-0.775-5.642-0.775
		c-0.931,0-1.825,0.065-2.698,0.165v7.181c0.39-0.053,0.787-0.093,1.209-0.093c1.86,0,3.286,0.445,4.278,1.333
		c0.992,0.889,1.488,1.953,1.488,3.193c0,0.786-0.228,1.478-0.682,2.077c-0.455,0.6-1.126,1.189-2.015,1.767
		c-0.89,0.579-1.984,1.209-3.286,1.891c-0.314,0.165-0.656,0.347-0.993,0.526v8.802c0.155-0.188,0.32-0.373,0.497-0.555
		c0.682-0.702,1.436-1.354,2.263-1.953c0.826-0.599,1.663-1.147,2.511-1.643c0.847-0.496,1.643-0.95,2.387-1.364
		c0.909-0.496,1.849-1.063,2.821-1.705c0.971-0.64,1.87-1.395,2.697-2.263c0.826-0.868,1.508-1.86,2.046-2.976
		c0.537-1.116,0.806-2.397,0.806-3.844c0-1.529-0.3-2.945-0.899-4.247C271.529,364.077,270.661,362.961,269.525,362.031z"/>
	<rect x="257" y="387.61" style="fill:#04AAB7;" width="16.709" height="7.502"/>
	<path style="fill:#04AAB7;" d="M314.239,395.619c-5.105,0-9.769-1.037-13.989-3.114c-4.222-2.076-7.846-4.833-10.875-8.271
		c-3.03-3.437-5.361-7.368-6.994-11.793c-1.634-4.424-2.451-8.95-2.451-13.58c0-4.833,0.868-9.461,2.604-13.887
		c1.736-4.424,4.151-8.338,7.25-11.742c3.097-3.403,6.755-6.109,10.977-8.118c4.22-2.007,8.815-3.012,13.785-3.012
		c5.105,0,9.767,1.072,13.989,3.216c4.22,2.144,7.827,4.952,10.823,8.424c2.995,3.472,5.31,7.42,6.943,11.844
		c1.634,4.426,2.451,8.918,2.451,13.478c0,4.834-0.868,9.445-2.604,13.836s-4.135,8.271-7.198,11.64
		c-3.063,3.37-6.706,6.059-10.926,8.066C323.802,394.615,319.207,395.619,314.239,395.619z M294.124,358.86
		c0,3.132,0.459,6.162,1.378,9.087c0.919,2.928,2.247,5.514,3.982,7.76c1.736,2.246,3.863,4.051,6.382,5.412
		c2.518,1.363,5.376,2.042,8.577,2.042c3.268,0,6.143-0.697,8.628-2.093c2.484-1.394,4.577-3.25,6.28-5.565
		c1.701-2.313,2.995-4.917,3.88-7.811c0.884-2.893,1.328-5.836,1.328-8.832c0-3.13-0.477-6.16-1.43-9.088
		c-0.954-2.926-2.297-5.514-4.033-7.76s-3.847-4.033-6.331-5.361c-2.486-1.327-5.293-1.991-8.424-1.991
		c-3.268,0-6.144,0.699-8.628,2.093c-2.486,1.396-4.595,3.234-6.331,5.514c-1.736,2.281-3.047,4.868-3.931,7.76
		C294.565,352.922,294.124,355.865,294.124,358.86z"/>
</g>
<g>
</g>
<g>
</g>
<g>
</g>
<g>
</g>
<g>
</g>
<g>
</g>
<g>
</g>
<g>
</g>
<g>
</g>
<g>
</g>
<g>
</g>
<g>
</g>
<g>
</g>
<g>
</g>
<g>
</g>
</svg>
