<?xml version="1.0" encoding="iso-8859-1"?>
<!-- Generator: Adobe Illustrator 19.0.0, SVG Export Plug-In . SVG Version: 6.00 Build 0)  -->
<svg version="1.1" id="Capa_1" xmlns="http://www.w3.org/2000/svg" xmlns:xlink="http://www.w3.org/1999/xlink" x="0px" y="0px"
	 viewBox="0 0 512 512" style="enable-background:new 0 0 512 512;" xml:space="preserve">
<circle style="fill:#F40057;" cx="256" cy="256" r="256"/>
<path style="fill:#CE0054;" d="M512,256c0-12.03-0.849-23.86-2.455-35.449L400.797,111.802l-178.177,49.46L76.568,355.307
	l155.577,155.577C240.001,511.61,247.955,512,256,512C397.385,512,512,397.385,512,256z"/>
<path style="fill:#FFFFFF;" d="M383.217,129.772h-96.881v241.421c0,26.753,21.688,48.44,48.44,48.44l0,0
	c26.753,0,48.44-21.688,48.44-48.44V129.772H383.217z"/>
<path style="fill:#E0E0E0;" d="M333.929,129.772v289.84c0.283,0.005,0.564,0.021,0.848,0.021l0,0c26.753,0,48.44-21.688,48.44-48.44
	V129.772H333.929z"/>
<path style="fill:#039AE4;" d="M286.336,235.247v135.946c0,26.753,21.688,48.44,48.44,48.44l0,0c26.753,0,48.44-21.687,48.44-48.44
	V235.247H286.336z"/>
<path style="fill:#0287D0;" d="M333.929,235.248v184.365c0.283,0.005,0.564,0.021,0.848,0.021l0,0
	c26.753,0,48.44-21.688,48.44-48.44V235.248H333.929z"/>
<path style="fill:#FEEAED;" d="M385.49,355.307c11.945,0,21.628-9.683,21.628-21.628l0,0c0-11.945-9.683-21.628-21.628-21.628
	h-71.022v-5.033h93.122c11.945,0,21.628-9.683,21.628-21.628l0,0c0-11.945-9.683-21.628-21.628-21.628h-93.122v-3.892h108.331
	c11.945,0,21.628-9.683,21.628-21.628l0,0c0-11.945-9.683-21.628-21.628-21.628H314.468v-5.413h93.122
	c11.945,0,21.628-9.683,21.628-21.628l0,0c0-11.945-9.683-21.628-21.628-21.628H264.473l24.585-20.086
	c11.726-9.58,13.384-26.885,3.69-38.517l-0.174-0.209c-9.654-11.585-26.838-13.231-38.516-3.69l-42.485,34.71
	c-22.379,18.283-50.389,28.271-79.287,28.271h-55.72v186.883L385.49,355.307z"/>
<path style="fill:#FECCD1;" d="M76.568,238v117.307h308.921c11.945,0,21.628-9.683,21.628-21.628l0,0
	c0-11.945-9.683-21.627-21.627-21.627h-71.022v-5.033h93.122c11.945,0,21.627-9.683,21.627-21.628
	c0-11.945-9.683-21.628-21.627-21.628h-93.122v-3.892h108.331c11.945,0,21.628-9.683,21.628-21.628l0,0
	c0-0.082-0.011-0.161-0.012-0.242H76.568V238z"/>
<rect x="268.76" y="111.8" style="fill:#039AE4;" width="132.04" height="40.628"/>
<rect x="333.93" y="111.8" style="fill:#0287D0;" width="66.868" height="40.628"/>
<g>
</g>
<g>
</g>
<g>
</g>
<g>
</g>
<g>
</g>
<g>
</g>
<g>
</g>
<g>
</g>
<g>
</g>
<g>
</g>
<g>
</g>
<g>
</g>
<g>
</g>
<g>
</g>
<g>
</g>
</svg>
