<?xml version="1.0" encoding="iso-8859-1"?>
<!-- Generator: Adobe Illustrator 19.0.0, SVG Export Plug-In . SVG Version: 6.00 Build 0)  -->
<svg version="1.1" id="Capa_1" xmlns="http://www.w3.org/2000/svg" xmlns:xlink="http://www.w3.org/1999/xlink" x="0px" y="0px"
	 viewBox="0 0 512 512" style="enable-background:new 0 0 512 512;" xml:space="preserve">
<circle style="fill:#F40057;" cx="256" cy="256" r="256"/>
<path style="fill:#CE0054;" d="M512,256c0-10.319-0.628-20.491-1.815-30.491L389.636,104.96l-96.779,137.85L89.6,278.406
	l83.539,83.539l-27.296,15.446l42.553,42.553l-19.776,14.382l77.464,77.464c3.292,0.125,6.594,0.209,9.916,0.209
	C397.385,512,512,397.385,512,256z"/>
<path style="fill:#FFFFFF;" d="M344.493,107.323L177.395,323.427c-10.072,13.026-7.678,31.752,5.349,41.824l0,0
	c13.026,10.072,31.752,7.678,41.824-5.349l167.097-216.104c10.072-13.026,7.678-31.752-5.349-41.824l0,0
	C373.29,91.901,354.565,94.296,344.493,107.323z"/>
<path style="fill:#E0E0E0;" d="M386.464,102.094L182.92,365.38c13.019,9.917,31.62,7.49,41.648-5.478l167.097-216.104
	C401.699,130.822,399.358,112.194,386.464,102.094z"/>
<path style="fill:#546E7A;" d="M108.703,256.438v23.183c0,81.35,65.947,147.297,147.297,147.297l0,0
	c81.35,0,147.297-65.947,147.297-147.297v-23.183H108.703z"/>
<path style="fill:#465E66;" d="M255.357,256.438v170.471c0.215,0.001,0.428,0.008,0.643,0.008l0,0
	c81.35,0,147.297-65.947,147.297-147.297v-23.183h-147.94V256.438z"/>
<rect x="89.6" y="218.78" style="fill:#455A64;" width="332.8" height="59.63"/>
<rect x="255.36" y="218.78" style="fill:#34454C;" width="167.04" height="59.63"/>
<rect x="168.62" y="402.39" style="fill:#455A64;" width="174.76" height="31.939"/>
<rect x="255.36" y="402.39" style="fill:#34454C;" width="88.02" height="31.939"/>
<g>
</g>
<g>
</g>
<g>
</g>
<g>
</g>
<g>
</g>
<g>
</g>
<g>
</g>
<g>
</g>
<g>
</g>
<g>
</g>
<g>
</g>
<g>
</g>
<g>
</g>
<g>
</g>
<g>
</g>
</svg>
