<?xml version="1.0" encoding="iso-8859-1"?>
<!-- Generator: Adobe Illustrator 19.0.0, SVG Export Plug-In . SVG Version: 6.00 Build 0)  -->
<svg version="1.1" id="Capa_1" xmlns="http://www.w3.org/2000/svg" xmlns:xlink="http://www.w3.org/1999/xlink" x="0px" y="0px"
	 viewBox="0 0 512 512" style="enable-background:new 0 0 512 512;" xml:space="preserve">
<circle style="fill:#FEDB41;" cx="256" cy="256" r="256"/>
<path style="fill:#FCBF29;" d="M512,256c0-10.445-0.641-20.739-1.857-30.857L361,76L151,436l74.143,74.143
	C235.261,511.359,245.555,512,256,512C397.385,512,512,397.385,512,256z"/>
<rect x="151" y="76" style="fill:#263238;" width="210" height="360"/>
<rect x="255.95" y="76" style="fill:#192226;" width="105.05" height="360"/>
<rect x="173.67" y="97" style="fill:#00E4FE;" width="164.67" height="300"/>
<rect x="255.95" y="97" style="fill:#00BBD3;" width="82.38" height="300"/>
<rect x="245.8" y="204.686" transform="matrix(-0.9422 -0.335 0.335 -0.9422 480.7914 501.3521)" style="fill:#3B535B;" width="75.669" height="9.05"/>
<g>
	<polygon style="fill:#546E7A;" points="192.357,222.942 189.087,214.5 239.992,194.782 193.803,146.95 200.315,140.662 
		255.974,198.299 	"/>
	<polygon style="fill:#546E7A;" points="265.389,267.597 242.755,194.981 297.614,149.817 303.368,156.806 253.21,198.1 
		274.032,264.903 	"/>
</g>
<g>
	<polygon style="fill:#3B535B;" points="303.368,156.806 297.614,149.817 255.952,184.116 255.952,195.843 	"/>
	<polygon style="fill:#3B535B;" points="255.952,237.321 265.389,267.597 274.032,264.903 255.952,206.898 	"/>
</g>
<circle style="fill:#8D24A9;" cx="247.98" cy="196.54" r="27.05"/>
<path style="fill:#7B1FA1;" d="M275.029,196.541c0-12.163-8.03-22.449-19.077-25.851v51.702
	C266.999,218.99,275.029,208.704,275.029,196.541z"/>
<circle style="fill:#004EB1;" cx="197.06" cy="143.81" r="13.806"/>
<g>
	<circle style="fill:#283592;" cx="319.28" cy="222.79" r="13.806"/>
	<circle style="fill:#283592;" cx="269.94" cy="267.61" r="13.806"/>
</g>
<circle style="fill:#004EB1;" cx="192.31" cy="217.14" r="13.806"/>
<circle style="fill:#283592;" cx="301.23" cy="153.93" r="18.276"/>
<g>
</g>
<g>
</g>
<g>
</g>
<g>
</g>
<g>
</g>
<g>
</g>
<g>
</g>
<g>
</g>
<g>
</g>
<g>
</g>
<g>
</g>
<g>
</g>
<g>
</g>
<g>
</g>
<g>
</g>
</svg>
