<?xml version="1.0" encoding="iso-8859-1"?>
<!-- Generator: Adobe Illustrator 19.0.0, SVG Export Plug-In . SVG Version: 6.00 Build 0)  -->
<svg version="1.1" id="Capa_1" xmlns="http://www.w3.org/2000/svg" xmlns:xlink="http://www.w3.org/1999/xlink" x="0px" y="0px"
	 viewBox="0 0 512 512" style="enable-background:new 0 0 512 512;" xml:space="preserve">
<circle style="fill:#004EB1;" cx="256" cy="256" r="256"/>
<path style="fill:#002D6B;" d="M512,256c0-12.972-0.974-25.715-2.835-38.169L383,91.667L139.889,413.632l97.703,97.703
	C243.673,511.767,249.809,512,256,512C397.385,512,512,397.385,512,256z"/>
<path style="fill:#FEDB41;" d="M383,373.667l-254,17V145c0-29.455,23.878-53.333,53.333-53.333H383V373.667z"/>
<polygon style="fill:#FCBF29;" points="383,91.667 255.952,91.667 255.952,382.17 383,373.667 "/>
<path style="fill:#FFFFFF;" d="M383,420.333H158.667c-16.384,0-29.667-13.282-29.667-29.667l0,0
	C129,374.282,142.282,361,158.667,361H383V420.333z"/>
<rect x="255.95" y="361" style="fill:#E0E0E0;" width="127.05" height="59.33"/>
<rect x="164.14" y="135.49" style="fill:#FE9A35;" width="183.72" height="114.53"/>
<rect x="255.95" y="135.49" style="fill:#FF7C11;" width="91.91" height="114.53"/>
<path style="fill:#FFFFFF;" d="M335.476,198.312l-10.733-18.59l14.551-14.551l-12.021-12.021l-17.154,17.154h-22.423l-14.888-25.786
	h-32.34l-14.888,25.786h-32.093l-16.17,28.008l16.17,28.007h32.34l14.888-25.786h31.363l14.888,25.786h23.939l16.368,16.368
	l12.021-12.021l-14.263-14.263L335.476,198.312z M216.012,209.32h-12.711l-6.355-11.007l6.355-11.008h12.71l6.355,11.008
	L216.012,209.32z M262.992,183.533h-12.71l-6.355-11.008l6.355-11.007h12.711l6.355,11.007L262.992,183.533z M290.425,198.312
	l6.355-11.008h12.71l6.355,11.008l-6.355,11.007h-12.71L290.425,198.312z"/>
<path style="fill:#E0E0E0;" d="M335.476,198.312l-10.733-18.59l14.551-14.551l-12.021-12.021l-17.154,17.154h-22.423l-14.888-25.786
	h-16.855v17h7.04l6.355,11.007l-6.355,11.008h-7.04v17h16.125l14.888,25.786h23.939l16.368,16.368l12.021-12.021l-14.263-14.263
	L335.476,198.312z M309.491,209.32H296.78l-6.355-11.007l6.355-11.008h12.71l6.355,11.008L309.491,209.32z"/>
<g>
</g>
<g>
</g>
<g>
</g>
<g>
</g>
<g>
</g>
<g>
</g>
<g>
</g>
<g>
</g>
<g>
</g>
<g>
</g>
<g>
</g>
<g>
</g>
<g>
</g>
<g>
</g>
<g>
</g>
</svg>
