<?xml version="1.0" encoding="iso-8859-1"?>
<!-- Generator: Adobe Illustrator 19.0.0, SVG Export Plug-In . SVG Version: 6.00 Build 0)  -->
<svg version="1.1" id="Capa_1" xmlns="http://www.w3.org/2000/svg" xmlns:xlink="http://www.w3.org/1999/xlink" x="0px" y="0px"
	 viewBox="0 0 512 512" style="enable-background:new 0 0 512 512;" xml:space="preserve">
<circle style="fill:#004EB1;" cx="256" cy="256" r="256"/>
<path style="fill:#002D6B;" d="M511.987,257.039L349.445,94.498L129.266,304.499l81.281,81.281l-47.992,38.087l88.065,88.065
	c1.79,0.037,3.582,0.068,5.38,0.068C397.037,512,511.425,397.945,511.987,257.039z"/>
<polygon style="fill:#EBEEF0;" points="282.869,64.538 229.131,64.538 229.131,423.867 283.344,423.867 "/>
<polygon style="fill:#E0E0E0;" points="282.869,64.538 255.952,64.538 256,423.867 283.344,423.867 "/>
<polygon style="fill:#CED7DB;" points="162.555,94.498 129.266,304.499 170.045,304.499 "/>
<polygon style="fill:#FFFFFF;" points="229.131,64.538 162.555,94.498 162.555,423.867 256,423.867 256,205.5 "/>
<polygon style="fill:#CED7DB;" points="229.131,64.538 204.292,97.47 220.342,105.317 205.362,119.226 256,205.5 "/>
<polygon style="fill:#75909B;" points="349.445,94.498 382.734,304.499 341.955,304.499 "/>
<polygon style="fill:#CED7DB;" points="282.869,64.538 349.445,94.498 349.445,423.867 256,423.867 256,205.5 "/>
<polygon style="fill:#758F9B;" points="282.869,64.538 307.708,97.47 291.658,105.317 306.638,119.226 256,205.5 "/>
<g>
</g>
<g>
</g>
<g>
</g>
<g>
</g>
<g>
</g>
<g>
</g>
<g>
</g>
<g>
</g>
<g>
</g>
<g>
</g>
<g>
</g>
<g>
</g>
<g>
</g>
<g>
</g>
<g>
</g>
</svg>
