<?xml version="1.0" encoding="iso-8859-1"?>
<!-- Generator: Adobe Illustrator 19.0.0, SVG Export Plug-In . SVG Version: 6.00 Build 0)  -->
<svg version="1.1" id="Capa_1" xmlns="http://www.w3.org/2000/svg" xmlns:xlink="http://www.w3.org/1999/xlink" x="0px" y="0px"
	 viewBox="0 0 512 512" style="enable-background:new 0 0 512 512;" xml:space="preserve">
<circle style="fill:#9B27AF;" cx="256" cy="256" r="256"/>
<path style="fill:#7B1FA1;" d="M170.574,411.092l100.457,100.457C405.417,503.766,512,392.338,512,256
	c0-4.958-0.156-9.879-0.434-14.767L382.333,112L170.574,411.092z"/>
<path style="fill:#FFFFFF;" d="M346.167,421.384H195.833c-19.974,0-36.167-16.192-36.167-36.167v-205.55l-38-67.667h260.667v273.217
	C382.333,405.192,366.141,421.384,346.167,421.384z"/>
<path style="fill:#E0E0E0;" d="M255.952,112v309.384h90.214c19.974,0,36.167-16.192,36.167-36.167V112H255.952z"/>
<path style="fill:#32D736;" d="M159.667,231v154.217c0,19.974,16.192,36.167,36.167,36.167h150.333
	c19.974,0,36.167-16.192,36.167-36.167V231H159.667z"/>
<path style="fill:#10BB67;" d="M255.952,231v190.384h90.214c19.974,0,36.167-16.192,36.167-36.167V231H255.952z"/>
<g>
	<rect x="347" y="371.72" style="fill:#607D8A;" width="35.33" height="15.667"/>
	<rect x="322" y="335.27" style="fill:#607D8A;" width="60.33" height="15.667"/>
	<rect x="347" y="298.83" style="fill:#607D8A;" width="35.33" height="15.667"/>
	<rect x="322" y="262.38" style="fill:#607D8A;" width="60.33" height="15.667"/>
	<rect x="347" y="225.94" style="fill:#607D8A;" width="35.33" height="15.667"/>
	<rect x="347" y="153.05" style="fill:#607D8A;" width="35.33" height="15.667"/>
	<rect x="322" y="189.5" style="fill:#607D8A;" width="60.33" height="15.667"/>
</g>
<g>
</g>
<g>
</g>
<g>
</g>
<g>
</g>
<g>
</g>
<g>
</g>
<g>
</g>
<g>
</g>
<g>
</g>
<g>
</g>
<g>
</g>
<g>
</g>
<g>
</g>
<g>
</g>
<g>
</g>
</svg>
