<?xml version="1.0" encoding="iso-8859-1"?>
<!-- Generator: Adobe Illustrator 19.0.0, SVG Export Plug-In . SVG Version: 6.00 Build 0)  -->
<svg version="1.1" id="Capa_1" xmlns="http://www.w3.org/2000/svg" xmlns:xlink="http://www.w3.org/1999/xlink" x="0px" y="0px"
	 viewBox="0 0 512 512" style="enable-background:new 0 0 512 512;" xml:space="preserve">
<circle style="fill:#FEDB41;" cx="256" cy="256" r="256"/>
<path style="fill:#FCBF29;" d="M512,256c0-13.872-1.119-27.482-3.243-40.756l-77.742-77.742L80.985,374.499l134.259,134.259
	C228.518,510.881,242.127,512,256,512C397.385,512,512,397.385,512,256z"/>
<rect x="90.98" y="147.5" style="fill:#32D736;" width="330.03" height="217"/>
<rect x="255.95" y="147.5" style="fill:#10BB67;" width="165.06" height="217"/>
<path style="fill:#D66D1C;" d="M431.015,374.499H80.985V137.501h350.029v236.998H431.015z M100.985,354.499h310.029V157.501H100.985
	V354.499z"/>
<polygon style="fill:#C75E0B;" points="431.015,137.501 255.952,137.501 255.952,157.501 411.015,157.501 411.015,354.499 
	255.952,354.499 255.952,374.499 431.015,374.499 "/>
<g>
	<path style="fill:#FFFFFF;" d="M183.153,298.825h-45.629l-22.814-39.517l22.814-39.517h45.629l22.816,39.517L183.153,298.825z
		 M147.339,281.825h26l13-22.517l-13-22.517h-26l-13,22.517L147.339,281.825z"/>
	<path style="fill:#FFFFFF;" d="M257.853,257.825h-45.629l-22.814-39.517l22.814-39.517h45.629l22.816,39.517L257.853,257.825z
		 M222.038,240.825h26l13-22.517l-13-22.517h-26l-13,22.517L222.038,240.825z"/>
</g>
<g>
	<polygon style="fill:#E0E0E0;" points="280.669,218.308 257.853,178.791 255.952,178.791 255.952,209.499 261.038,218.308 
		255.952,227.117 255.952,257.825 257.853,257.825 	"/>
	<path style="fill:#E0E0E0;" d="M354.6,259.308l-17.542-30.382l25.857-25.857l-12.021-12.021l-28.744,28.744h-35.996l-22.814,39.517
		l22.814,39.517H323.4l27.494,27.494l12.021-12.021l-25.4-25.4L354.6,259.308z M282.969,259.308l13-22.517h26l13,22.517l-13,22.517
		h-26L282.969,259.308z"/>
</g>
<g>
</g>
<g>
</g>
<g>
</g>
<g>
</g>
<g>
</g>
<g>
</g>
<g>
</g>
<g>
</g>
<g>
</g>
<g>
</g>
<g>
</g>
<g>
</g>
<g>
</g>
<g>
</g>
<g>
</g>
</svg>
