<?xml version="1.0" encoding="iso-8859-1"?>
<!-- Generator: Adobe Illustrator 19.0.0, SVG Export Plug-In . SVG Version: 6.00 Build 0)  -->
<svg version="1.1" id="Capa_1" xmlns="http://www.w3.org/2000/svg" xmlns:xlink="http://www.w3.org/1999/xlink" x="0px" y="0px"
	 viewBox="0 0 512 512" style="enable-background:new 0 0 512 512;" xml:space="preserve">
<circle style="fill:#004EB1;" cx="256" cy="256" r="256"/>
<path style="fill:#002D6B;" d="M265.418,511.81c135.274-4.895,243.773-114.73,246.515-250.543l-199.6-199.6L199.667,96.333
	l77.912,77.912l-119.91,232.086L265.418,511.81z"/>
<path style="fill:#CAE8F9;" d="M297.333,181.544V64.333h-82.667v117.211c-55.18,17.513-95.167,69.145-95.167,130.122
	c0,75.387,61.113,136.5,136.5,136.5s136.5-61.113,136.5-136.5C392.5,250.689,352.513,199.057,297.333,181.544z"/>
<path style="fill:#B7E0F6;" d="M297.333,181.544V64.333h-41.667v383.829c0.111,0,0.222,0.004,0.333,0.004
	c75.387,0,136.5-61.113,136.5-136.5C392.5,250.689,352.513,199.057,297.333,181.544z"/>
<path style="fill:#32D736;" d="M137.384,300.796c-0.582,4.782-0.884,9.651-0.884,14.591c0,65.998,53.502,119.5,119.5,119.5
	s119.5-53.502,119.5-119.5c0-4.94-0.301-9.809-0.884-14.591H137.384z"/>
<path style="fill:#10BB67;" d="M374.616,300.796h-118.95v134.087c0.111,0,0.222,0.004,0.333,0.004
	c65.998,0,119.5-53.502,119.5-119.5C375.5,310.447,375.199,305.578,374.616,300.796z"/>
<rect x="199.67" y="61.67" style="fill:#B7E0F6;" width="112.67" height="34.667"/>
<rect x="255.67" y="61.67" style="fill:#99D6F2;" width="56.667" height="34.667"/>
<g>
</g>
<g>
</g>
<g>
</g>
<g>
</g>
<g>
</g>
<g>
</g>
<g>
</g>
<g>
</g>
<g>
</g>
<g>
</g>
<g>
</g>
<g>
</g>
<g>
</g>
<g>
</g>
<g>
</g>
</svg>
