<?xml version="1.0" encoding="iso-8859-1"?>
<!-- Generator: Adobe Illustrator 19.0.0, SVG Export Plug-In . SVG Version: 6.00 Build 0)  -->
<svg xmlns="http://www.w3.org/2000/svg" xmlns:xlink="http://www.w3.org/1999/xlink" version="1.1" id="Layer_1" x="0px" y="0px" viewBox="0 0 512 512" style="enable-background:new 0 0 512 512;" xml:space="preserve">
<circle style="fill:#FFECB3;" cx="256" cy="256" r="256"/>
<path style="fill:#FFD863;" d="M512,256c0-38.309-8.43-74.645-23.511-107.275l-34.948-34.948l-198.837,9.146l-196.167,9.234  l189.391,189.391l-114.33,118.336l65.83,65.83C217.628,509.821,236.559,512,256,512C397.385,512,512,397.385,512,256z"/>
<path style="fill:#005C83;" d="M148.457,441.935l-14.859-2.05c6.04-43.785,50.957-63.095,52.866-63.896l5.814,13.827  C191.889,389.981,153.314,406.718,148.457,441.935z"/>
<path style="fill:#00263F;" d="M363.543,441.935c-4.884-35.404-43.419-51.95-43.808-52.113l5.801-13.833  c1.909,0.801,46.827,20.111,52.866,63.896L363.543,441.935z"/>
<g>
	<rect x="248.5" y="121.89" style="fill:#005C83;" width="15" height="58"/>
	<polyline style="fill:#005C83;" points="248.5,179.891 256.333,179.891 256.333,121.887 248.5,121.887  "/>
</g>
<rect x="256.33" y="121.89" style="fill:#00263F;" width="7.167" height="58"/>
<path style="fill:#2B9153;" d="M143.574,316.142c0-62.091,50.335-156.019,112.426-156.019s112.426,93.928,112.426,156.019  S318.091,428.568,256,428.568S143.574,378.233,143.574,316.142z"/>
<path style="fill:#005D5E;" d="M368.426,316.143c0-61.979-50.155-155.676-112.093-156.012v268.433  C318.271,428.384,368.426,378.122,368.426,316.143z"/>
<path style="fill:#35CCFF;" d="M256,174.395c-47.048,0-86.538,60.345-97.465,112.528h194.929  C342.538,234.74,303.048,174.395,256,174.395z"/>
<path style="fill:#00BAFF;" d="M256.333,174.401v112.521h97.131C342.564,234.863,303.235,174.687,256.333,174.401z"/>
<path style="fill:#2B9153;" d="M55,122.923c0-7.639,6.193-13.832,13.832-13.832s188.465,6.193,188.465,13.832  S76.472,136.755,68.832,136.755S55,130.562,55,122.923z"/>
<path style="fill:#005D5E;" d="M457,122.923c0-7.639-6.193-13.832-13.832-13.832s-188.465,6.193-188.465,13.832  s180.825,13.832,188.465,13.832S457,130.562,457,122.923z"/>
<g>
</g>
<g>
</g>
<g>
</g>
<g>
</g>
<g>
</g>
<g>
</g>
<g>
</g>
<g>
</g>
<g>
</g>
<g>
</g>
<g>
</g>
<g>
</g>
<g>
</g>
<g>
</g>
<g>
</g>
</svg>
