<?xml version="1.0" encoding="iso-8859-1"?>
<!-- Generator: Adobe Illustrator 19.0.0, SVG Export Plug-In . SVG Version: 6.00 Build 0)  -->
<svg xmlns="http://www.w3.org/2000/svg" xmlns:xlink="http://www.w3.org/1999/xlink" version="1.1" id="Layer_1" x="0px" y="0px" viewBox="0 0 512 512" style="enable-background:new 0 0 512 512;" xml:space="preserve">
<circle style="fill:#005C83;" cx="256" cy="256" r="256"/>
<path style="fill:#00263F;" d="M512,256c0-5.17-0.172-10.299-0.474-15.393L404.089,133.169l-28.722,55.518L226.011,39.332  l-68.245,392.41l79.577,79.577C243.505,511.763,249.725,512,256,512C397.385,512,512,397.385,512,256z"/>
<polygon style="fill:#FFFFFF;" points="394.492,431.742 459.538,267.527 392.359,276.058 404.089,133.169 311.318,189.685   226.011,39.332 159.899,211.012 49,196.083 157.766,431.742 "/>
<polygon style="fill:#E0E0E0;" points="459.538,267.527 392.359,276.058 404.089,133.169 311.318,189.685 256.333,92.774   256.333,431.742 394.492,431.742 "/>
<polygon style="fill:#FFD863;" points="367.623,431.742 420.205,298.994 365.899,305.89 375.381,190.381 300.386,236.067   231.426,114.525 177.982,253.307 88.333,241.239 176.258,431.742 "/>
<polygon style="fill:#FFCF35;" points="420.205,298.994 365.899,305.89 375.381,190.381 300.386,236.067 256.333,158.424   256.333,431.742 367.623,431.742 "/>
<polygon style="fill:#FFB344;" points="323.63,431.742 355.805,350.513 322.575,354.733 328.377,284.053 282.488,312.009   240.291,237.637 207.589,322.558 152.733,315.173 206.534,431.742 "/>
<polygon style="fill:#FF9451;" points="355.805,350.513 322.575,354.733 328.377,284.053 282.488,312.009 256.333,265.911   256.333,431.742 323.63,431.742 "/>
<g>
</g>
<g>
</g>
<g>
</g>
<g>
</g>
<g>
</g>
<g>
</g>
<g>
</g>
<g>
</g>
<g>
</g>
<g>
</g>
<g>
</g>
<g>
</g>
<g>
</g>
<g>
</g>
<g>
</g>
</svg>
