<?xml version="1.0" encoding="iso-8859-1"?>
<!-- Generator: Adobe Illustrator 19.0.0, SVG Export Plug-In . SVG Version: 6.00 Build 0)  -->
<svg xmlns="http://www.w3.org/2000/svg" xmlns:xlink="http://www.w3.org/1999/xlink" version="1.1" id="Layer_1" x="0px" y="0px" viewBox="0 0 512 512" style="enable-background:new 0 0 512 512;" xml:space="preserve">
<circle style="fill:#A5E1EB;" cx="256" cy="256" r="256"/>
<path style="fill:#78BED2;" d="M396.809,469.809C466.202,424.015,512,345.362,512,256c0-16.632-1.605-32.886-4.634-48.634L489,189  l-4.594,4.032l-39.493-39.493l-85.73,47.922L216,58.279l-80.306,40.695l33.861,33.861L104.667,124l33.989,33.989l-45.322,8.345  L396.809,469.809z"/>
<path style="fill:#FFD863;" d="M207,103.5h-61c-7.732,0-14-6.268-14-14V69c0-7.732,6.268-14,14-14h61c7.732,0,14,6.268,14,14v20.5  C221,97.232,214.732,103.5,207,103.5z"/>
<rect x="173.5" y="53" style="fill:#F7931E;" width="6" height="65"/>
<polygon style="fill:#1A1A1A;" points="381.141,197.856 372.15,184.936 435.922,140.619 444.913,153.539 "/>
<path style="fill:#F1333F;" d="M400,225h-82.333v-43.333c0-7.732,6.268-14,14-14H400c7.732,0,14,6.268,14,14V211  C414,218.732,407.732,225,400,225z"/>
<rect x="97.67" y="159.67" style="fill:#666666;" width="129.67" height="84.67"/>
<rect x="161.5" y="159.67" style="fill:#4D4D4D;" width="65.833" height="84.67"/>
<rect x="109" y="117.67" style="fill:#666666;" width="107" height="41.33"/>
<rect x="161.5" y="117.67" style="fill:#4D4D4D;" width="54.5" height="41.33"/>
<polygon style="fill:#333333;" points="489,189 444.859,316 29.932,316 20,228 "/>
<polygon style="fill:#1A1A1A;" points="24.097,264.297 29.932,316 444.859,316 472.27,237.135 "/>
<path style="fill:#00BAFF;" d="M2.905,294.668C21.547,417.705,127.76,512,256,512s234.453-94.295,253.095-217.332H2.905z"/>
<g>
	<rect x="93.33" y="152.33" style="fill:#333333;" width="138.67" height="14"/>
	<rect x="104.67" y="110" style="fill:#333333;" width="116" height="14"/>
</g>
<g>
	<rect x="161.5" y="152.33" style="fill:#1A1A1A;" width="70.5" height="14"/>
	<rect x="161.5" y="110" style="fill:#1A1A1A;" width="59.17" height="14"/>
</g>
<g>
</g>
<g>
</g>
<g>
</g>
<g>
</g>
<g>
</g>
<g>
</g>
<g>
</g>
<g>
</g>
<g>
</g>
<g>
</g>
<g>
</g>
<g>
</g>
<g>
</g>
<g>
</g>
<g>
</g>
</svg>
