<?xml version="1.0" encoding="iso-8859-1"?>
<!-- Generator: Adobe Illustrator 19.0.0, SVG Export Plug-In . SVG Version: 6.00 Build 0)  -->
<svg xmlns="http://www.w3.org/2000/svg" xmlns:xlink="http://www.w3.org/1999/xlink" version="1.1" id="Layer_1" x="0px" y="0px" viewBox="0 0 512 512" style="enable-background:new 0 0 512 512;" xml:space="preserve">
<circle style="fill:#B9EAFF;" cx="256" cy="256" r="256"/>
<g>
	<path style="fill:#35CCFF;" d="M335.625,499.355L47.38,214.172l-0.028,57.847l238.266,238.266   C302.868,508.297,319.594,504.597,335.625,499.355z"/>
	<path style="fill:#35CCFF;" d="M509.425,292.313L479.112,262l-30.758,14.739l-77.583-77.583l-33.811,43.138l139.976,143.071   C493.394,357.318,504.659,325.864,509.425,292.313z"/>
</g>
<polygon style="fill:#F1333F;" points="370.771,258.685 273.164,258.685 294.252,199.156 370.771,199.156 "/>
<path style="fill:#333333;" d="M441.917,242.264H137.218c-16.056,0-30.26,7.926-38.914,20.078  c-6.13,8.607-16.225,13.505-26.791,13.505l0,0L47.38,214.172H27v99.216h51.007v16.421h364.774c23.89,0,43.31-19.138,43.765-42.919  C487.016,262.351,466.462,242.264,441.917,242.264z"/>
<path style="fill:#1A1A1A;" d="M441.917,242.264H256.333v87.545h186.448c23.89,0,43.31-19.138,43.765-42.919  C487.016,262.351,466.462,242.264,441.917,242.264z"/>
<path style="fill:#00BAFF;" d="M2.905,294.668C21.547,417.705,127.76,512,256,512s234.453-94.295,253.095-217.332H2.905z"/>
<g>
</g>
<g>
</g>
<g>
</g>
<g>
</g>
<g>
</g>
<g>
</g>
<g>
</g>
<g>
</g>
<g>
</g>
<g>
</g>
<g>
</g>
<g>
</g>
<g>
</g>
<g>
</g>
<g>
</g>
</svg>
