<?xml version="1.0" encoding="iso-8859-1"?>
<!-- Generator: Adobe Illustrator 19.0.0, SVG Export Plug-In . SVG Version: 6.00 Build 0)  -->
<svg xmlns="http://www.w3.org/2000/svg" xmlns:xlink="http://www.w3.org/1999/xlink" version="1.1" id="Layer_1" x="0px" y="0px" viewBox="0 0 512 512" style="enable-background:new 0 0 512 512;" xml:space="preserve">
<circle style="fill:#005C83;" cx="256" cy="256" r="256"/>
<path style="fill:#00263F;" d="M512,256c0-4.604-0.128-9.178-0.368-13.723L390.338,120.983L108.677,376.722l134.976,134.976  C247.745,511.893,251.86,512,256,512C397.385,512,512,397.385,512,256z"/>
<circle style="fill:#6EBA3B;" cx="256" cy="256" r="190.47"/>
<path style="fill:#488057;" d="M256,65.534c-0.111,0-0.222,0.004-0.333,0.004v380.925c0.111,0,0.222,0.004,0.333,0.004  c105.192,0,190.466-85.274,190.466-190.466S361.192,65.534,256,65.534z"/>
<circle style="fill:#E6E18A;" cx="256" cy="256" r="151"/>
<path style="fill:#97CC52;" d="M256,105c-0.111,0-0.222,0.004-0.333,0.004v301.992c0.111,0,0.222,0.004,0.333,0.004  c83.395,0,151-67.605,151-151S339.395,105,256,105z"/>
<polygon style="fill:#175D76;" points="297,256 256,396.25 215,256 "/>
<polygon style="fill:#00263F;" points="297,256 255.667,256 255.667,395.11 256,396.25 "/>
<polygon style="fill:#F1333F;" points="215,256 256,115.75 297,256 "/>
<polygon style="fill:#AE283F;" points="256,115.75 255.667,116.89 255.667,256 297,256 "/>
<g>
</g>
<g>
</g>
<g>
</g>
<g>
</g>
<g>
</g>
<g>
</g>
<g>
</g>
<g>
</g>
<g>
</g>
<g>
</g>
<g>
</g>
<g>
</g>
<g>
</g>
<g>
</g>
<g>
</g>
</svg>
