<?xml version="1.0" encoding="iso-8859-1"?>
<!-- Generator: Adobe Illustrator 19.0.0, SVG Export Plug-In . SVG Version: 6.00 Build 0)  -->
<svg xmlns="http://www.w3.org/2000/svg" xmlns:xlink="http://www.w3.org/1999/xlink" version="1.1" id="Layer_1" x="0px" y="0px" viewBox="0 0 512 512" style="enable-background:new 0 0 512 512;" xml:space="preserve">
<circle style="fill:#005C83;" cx="256" cy="256" r="256"/>
<path style="fill:#00263F;" d="M512,256c0-15.786-1.438-31.234-4.174-46.23L329.57,31.513L182.431,159.986l96.385,96.385  l-12.892,57.116L117.001,380.52l131.357,131.357c2.539,0.075,5.085,0.123,7.642,0.123C397.385,512,512,397.385,512,256z"/>
<rect x="219.76" y="161.71" style="fill:#FFB344;" width="72.47" height="72.47"/>
<rect x="256" y="161.71" style="fill:#FF9451;" width="36.23" height="72.47"/>
<polygon style="fill:#983262;" points="329.57,159.986 256,184.485 182.431,159.986 182.431,31.513 329.57,31.513 "/>
<polygon style="fill:#662E57;" points="255.667,31.513 255.667,184.374 256,184.485 329.57,159.986 329.57,31.513 "/>
<polygon style="fill:#FF3F84;" points="217.177,171.557 256,184.485 294.823,171.557 294.823,31.512 217.177,31.512 "/>
<polygon style="fill:#983262;" points="256,184.485 294.823,171.557 294.823,31.512 256,31.512 "/>
<polygon style="fill:#FFDC00;" points="368.763,321.488 395,262.455 275.555,301.932 315.032,182.487 256,208.724 196.967,182.487   236.444,301.932 117,262.454 143.237,321.487 117.001,380.52 236.444,341.043 196.967,460.488 256,434.25 315.033,460.487   275.555,341.043 395,380.521 "/>
<polygon style="fill:#FFC000;" points="256,434.25 315.033,460.487 275.555,341.043 395,380.521 368.763,321.488 395,262.455   275.555,301.932 315.032,182.487 256,208.724 "/>
<g>
</g>
<g>
</g>
<g>
</g>
<g>
</g>
<g>
</g>
<g>
</g>
<g>
</g>
<g>
</g>
<g>
</g>
<g>
</g>
<g>
</g>
<g>
</g>
<g>
</g>
<g>
</g>
<g>
</g>
</svg>
