<?xml version="1.0" encoding="iso-8859-1"?>
<!-- Generator: Adobe Illustrator 19.0.0, SVG Export Plug-In . SVG Version: 6.00 Build 0)  -->
<svg xmlns="http://www.w3.org/2000/svg" xmlns:xlink="http://www.w3.org/1999/xlink" version="1.1" id="Layer_1" x="0px" y="0px" viewBox="0 0 512 512" style="enable-background:new 0 0 512 512;" xml:space="preserve">
<circle style="fill:#005C83;" cx="256" cy="256" r="256"/>
<path style="fill:#00263F;" d="M512,256c0-38.173-8.368-74.387-23.349-106.928L399.25,59.671l-63.042,146.738L189.47,59.671  L58.962,399.067l89.123,89.123C180.881,503.458,217.44,512,256,512C397.385,512,512,397.385,512,256z"/>
<path style="fill:#FF9451;" d="M98,403.5H69.5c-8.146,0-14.75-6.604-14.75-14.75v-101c0-8.146,6.604-14.75,14.75-14.75H98  c8.146,0,14.75,6.604,14.75,14.75v101C112.75,396.896,106.146,403.5,98,403.5z"/>
<path style="fill:#F7674F;" d="M442.5,403.5H414c-8.146,0-14.75-6.604-14.75-14.75v-101c0-8.146,6.604-14.75,14.75-14.75h28.5  c8.146,0,14.75,6.604,14.75,14.75v101C457.25,396.896,450.646,403.5,442.5,403.5z"/>
<path style="fill:#FFB344;" d="M386.573,372.364h-43.61c-9.022,0-16.337-7.314-16.337-16.337V69.973  c0-9.022,7.314-16.337,16.337-16.337h43.61c9.022,0,16.337,7.314,16.337,16.337v286.055  C402.91,365.05,395.595,372.364,386.573,372.364z"/>
<g>
	<path style="fill:#FFCF35;" d="M176.793,372.364h-43.61c-9.022,0-16.337-7.314-16.337-16.337V69.973   c0-9.022,7.314-16.337,16.337-16.337h43.61c9.022,0,16.337,7.314,16.337,16.337v286.055   C193.13,365.05,185.815,372.364,176.793,372.364z"/>
	<path style="fill:#FFCF35;" d="M392.277,423.599H119.722c-14.482,0-26.222-11.74-26.222-26.223V175.677   c0-14.482,11.74-26.223,26.222-26.223h272.555c14.482,0,26.223,11.74,26.223,26.223v221.699   C418.5,411.859,406.76,423.599,392.277,423.599z"/>
</g>
<g>
	<path style="fill:#FFB344;" d="M392.278,149.455H256.333v274.144h135.944c14.482,0,26.222-11.74,26.222-26.222v-221.7   C418.5,161.195,406.76,149.455,392.278,149.455z"/>
	<path style="fill:#FFB344;" d="M353.861,254.039H158.139c-35.699,0-64.639-28.94-64.639-64.639v-55.838   c0-14.482,11.74-26.222,26.222-26.222h272.555c14.482,0,26.223,11.74,26.223,26.222V189.4   C418.5,225.099,389.56,254.039,353.861,254.039z"/>
</g>
<path style="fill:#FF9451;" d="M392.278,107.34H256.333v146.699h97.527c35.699,0,64.639-28.94,64.639-64.639v-55.838  C418.5,119.08,406.76,107.34,392.278,107.34z"/>
<circle style="fill:#FFFFFF;" cx="256" cy="181.84" r="56.02"/>
<path style="fill:#E0E0E0;" d="M312.021,181.835c0-30.828-24.902-55.832-55.688-56.012v112.025  C287.119,237.667,312.021,212.663,312.021,181.835z"/>
<polygon style="fill:#F1333F;" points="295.276,165.953 271.882,165.953 271.882,142.559 240.118,142.559 240.118,165.953   216.724,165.953 216.724,197.718 240.118,197.718 240.118,221.112 271.882,221.112 271.882,197.718 295.276,197.718 "/>
<polygon style="fill:#AE283F;" points="271.882,165.953 271.882,142.559 256.333,142.559 256.333,221.112 271.882,221.112   271.882,197.718 295.276,197.718 295.276,165.953 "/>
<rect x="146.64" y="107.34" style="fill:#F1333F;" width="19.07" height="316.26"/>
<rect x="346.29" y="107.34" style="fill:#AE283F;" width="19.07" height="316.26"/>
<g>
</g>
<g>
</g>
<g>
</g>
<g>
</g>
<g>
</g>
<g>
</g>
<g>
</g>
<g>
</g>
<g>
</g>
<g>
</g>
<g>
</g>
<g>
</g>
<g>
</g>
<g>
</g>
<g>
</g>
</svg>
