<?xml version="1.0" encoding="iso-8859-1"?>
<!-- Generator: Adobe Illustrator 19.0.0, SVG Export Plug-In . SVG Version: 6.00 Build 0)  -->
<svg xmlns="http://www.w3.org/2000/svg" xmlns:xlink="http://www.w3.org/1999/xlink" version="1.1" id="Layer_1" x="0px" y="0px" viewBox="0 0 512 512" style="enable-background:new 0 0 512 512;" xml:space="preserve">
<circle style="fill:#A5E1EB;" cx="256" cy="256" r="256"/>
<path style="fill:#78BED2;" d="M247.45,379.45l111.143,111.143C448.899,451.043,512,360.898,512,256  c0-0.161-0.006-0.321-0.006-0.482l-158.55-158.55L247.45,379.45z"/>
<path style="fill:#97CC52;" d="M256,358.495c-76.591,0-147.158,19.655-203.588,52.701C99.186,472.46,172.97,512,256,512  s156.814-39.54,203.588-100.804C403.158,378.15,332.591,358.495,256,358.495z"/>
<path style="fill:#60C344;" d="M256,358.495c-0.111,0-0.222,0.002-0.333,0.002v153.5c0.111,0,0.222,0.002,0.333,0.002  c83.03,0,156.814-39.54,203.588-100.804C403.158,378.15,332.591,358.495,256,358.495z"/>
<path style="fill:#F1333F;" d="M124.164,185.766c0-72.811,59.025-131.836,131.836-131.836s131.836,59.025,131.836,131.836  c0,118.939-132.128,239.192-132.128,239.192S124.164,309.004,124.164,185.766z"/>
<path style="fill:#AE283F;" d="M256,53.93c-0.111,0-0.222,0.004-0.333,0.004l0.042,370.864c0.212,0.189,0,0.16,0,0.16  s132.128-120.253,132.128-239.192C387.836,112.955,328.811,53.93,256,53.93z"/>
<circle style="fill:#FFFFFF;" cx="256" cy="192.93" r="98.88"/>
<path style="fill:#E0E0E0;" d="M354.877,192.931c0-54.24-43.677-98.272-97.777-98.863v197.726  C311.201,291.204,354.877,247.172,354.877,192.931z"/>
<circle style="fill:#F1333F;" cx="256" cy="192.93" r="58.753"/>
<path style="fill:#AE283F;" d="M314.753,192.931c0-32.08-25.714-58.136-57.653-58.725v117.45  C289.039,251.067,314.753,225.011,314.753,192.931z"/>
<circle style="fill:#FFFFFF;" cx="256" cy="192.93" r="23.645"/>
<path style="fill:#E0E0E0;" d="M279.645,192.931c0-12.69-9.997-23.042-22.545-23.617v47.234  C269.647,215.973,279.645,205.621,279.645,192.931z"/>
<g>
</g>
<g>
</g>
<g>
</g>
<g>
</g>
<g>
</g>
<g>
</g>
<g>
</g>
<g>
</g>
<g>
</g>
<g>
</g>
<g>
</g>
<g>
</g>
<g>
</g>
<g>
</g>
<g>
</g>
</svg>
