<?xml version="1.0" encoding="iso-8859-1"?>
<!-- Generator: Adobe Illustrator 19.0.0, SVG Export Plug-In . SVG Version: 6.00 Build 0)  -->
<svg xmlns="http://www.w3.org/2000/svg" xmlns:xlink="http://www.w3.org/1999/xlink" version="1.1" id="Layer_1" x="0px" y="0px" viewBox="0 0 512 512" style="enable-background:new 0 0 512 512;" xml:space="preserve">
<circle style="fill:#FFDC00;" cx="256" cy="256" r="256"/>
<path style="fill:#FFC000;" d="M139.917,484.223C174.761,501.981,214.209,512,256,512c134.078,0,244.064-103.079,255.076-234.31  l-15.782-15.782l-320.986-28.884L75.254,133.97l42.594,130.095l-104.041,0.594l80.031,80.031l-62.317,31.137L139.917,484.223z"/>
<path style="fill:#005C83;" d="M495.294,261.908l-70.357-48.867c-25.547-17.744-55.909-27.254-87.014-27.254l-219.87,14.062  l-42.799-65.88H44.072v84.375l-30.265,22.469v23.845h140.778l0.58-2.751h340.129V261.908z"/>
<path style="fill:#00263F;" d="M424.938,213.041c-25.547-17.744-55.909-27.254-87.014-27.254l-81.59,5.219v70.903h238.961  L424.938,213.041z"/>
<path style="fill:#008CC3;" d="M355.434,230.267h94.306l-24.802-17.226c-25.547-17.744-55.909-27.254-87.014-27.254l-20.091,1.421  v5.457C317.832,213.432,334.667,230.267,355.434,230.267z"/>
<path style="fill:#00263F;" d="M323.963,236.032L72.124,375.828H31.522l91.998-139.796  C123.52,236.032,323.192,236.803,323.963,236.032z"/>
<path style="fill:#021723;" d="M256.333,236.368v37.205l67.63-37.541C323.663,236.331,293.321,236.398,256.333,236.368z"/>
<g>
</g>
<g>
</g>
<g>
</g>
<g>
</g>
<g>
</g>
<g>
</g>
<g>
</g>
<g>
</g>
<g>
</g>
<g>
</g>
<g>
</g>
<g>
</g>
<g>
</g>
<g>
</g>
<g>
</g>
</svg>
