<?xml version="1.0" encoding="iso-8859-1"?>
<!-- Generator: Adobe Illustrator 19.0.0, SVG Export Plug-In . SVG Version: 6.00 Build 0)  -->
<svg xmlns="http://www.w3.org/2000/svg" xmlns:xlink="http://www.w3.org/1999/xlink" version="1.1" id="Layer_1" x="0px" y="0px" viewBox="0 0 512 512" style="enable-background:new 0 0 512 512;" xml:space="preserve">
<circle style="fill:#FFECB3;" cx="256" cy="256" r="256"/>
<path style="fill:#FFD863;" d="M512,256c0-28.103-4.543-55.142-12.909-80.439l-56.722-56.722L251.788,229.661l-135.03-135.03  v119.702l3.445,258.7h0.001C159.567,497.715,206.112,512,256,512C397.385,512,512,397.385,512,256z"/>
<path style="fill:#FF6838;" d="M442.369,319.615c-103.751-63.579-234.399-63.579-338.15,0c0-66.926,0-133.851,0-200.776  c103.751-63.579,234.399-63.579,338.15,0C442.369,185.764,442.369,252.69,442.369,319.615z"/>
<path style="fill:#AE4E32;" d="M256.333,71.603v200.776c64.187-3.364,129.154,12.379,186.036,47.236c0-66.925,0-133.851,0-200.776  C385.487,83.981,320.52,68.239,256.333,71.603z"/>
<path style="fill:#005C83;" d="M106.731,90.154c-7.441,0-13.472,6.032-13.472,13.473v349.995  c8.533,7.035,17.538,13.514,26.945,19.412V103.627C120.204,96.186,114.172,90.154,106.731,90.154z"/>
<g>
</g>
<g>
</g>
<g>
</g>
<g>
</g>
<g>
</g>
<g>
</g>
<g>
</g>
<g>
</g>
<g>
</g>
<g>
</g>
<g>
</g>
<g>
</g>
<g>
</g>
<g>
</g>
<g>
</g>
</svg>
