<?xml version="1.0" encoding="iso-8859-1"?>
<!-- Generator: Adobe Illustrator 19.0.0, SVG Export Plug-In . SVG Version: 6.00 Build 0)  -->
<svg xmlns="http://www.w3.org/2000/svg" xmlns:xlink="http://www.w3.org/1999/xlink" version="1.1" id="Layer_1" x="0px" y="0px" viewBox="0 0 512 512" style="enable-background:new 0 0 512 512;" xml:space="preserve">
<g>
	<circle style="fill:#005C83;" cx="256" cy="256" r="256"/>
	<circle style="fill:#005C83;" cx="256" cy="256" r="256"/>
</g>
<path style="fill:#00263F;" d="M512,256c0-29.737-5.088-58.282-14.411-84.833L387.422,61l-51.745,91.81L243.868,61l-119.29,38.006  L278.98,253.408L85,421l70.516,70.516C186.368,504.696,220.33,512,256,512C397.385,512,512,397.385,512,256z"/>
<rect x="134.05" y="84.23" style="fill:#FFCF35;" width="100.34" height="165.75"/>
<g>
	<polygon style="fill:#97CC52;" points="239.966,380.883 101.723,380.883 117.22,206.356 239.966,206.356  "/>
	<rect x="124.58" y="61" style="fill:#97CC52;" width="119.29" height="38.01"/>
</g>
<rect x="85" y="362.94" style="fill:#E6E18A;" width="165" height="58.06"/>
<rect x="277.61" y="84.23" style="fill:#FFB344;" width="100.34" height="165.75"/>
<g>
	<polygon style="fill:#60C344;" points="272.034,380.883 410.277,380.883 394.78,206.356 272.034,206.356  "/>
	<rect x="268.13" y="61" style="fill:#60C344;" width="119.29" height="38.01"/>
</g>
<rect x="262" y="362.94" style="fill:#97CC52;" width="165" height="58.06"/>
<path style="fill:#47AB4B;" d="M284,288h-56c-3.866,0-7-3.134-7-7V149c0-3.866,3.134-7,7-7h56c3.866,0,7,3.134,7,7v132  C291,284.866,287.866,288,284,288z"/>
<path style="fill:#2B9153;" d="M284,142h-28.333v146H284c3.866,0,7-3.134,7-7V149C291,145.134,287.866,142,284,142z"/>
<g>
</g>
<g>
</g>
<g>
</g>
<g>
</g>
<g>
</g>
<g>
</g>
<g>
</g>
<g>
</g>
<g>
</g>
<g>
</g>
<g>
</g>
<g>
</g>
<g>
</g>
<g>
</g>
<g>
</g>
</svg>
