<?xml version="1.0" encoding="iso-8859-1"?>
<!-- Generator: Adobe Illustrator 19.0.0, SVG Export Plug-In . SVG Version: 6.00 Build 0)  -->
<svg xmlns="http://www.w3.org/2000/svg" xmlns:xlink="http://www.w3.org/1999/xlink" version="1.1" id="Layer_1" x="0px" y="0px" viewBox="0 0 512 512" style="enable-background:new 0 0 512 512;" xml:space="preserve">
<circle style="fill:#FFCF35;" cx="256" cy="256" r="256"/>
<path style="fill:#FFB344;" d="M512,256c0-24.115-3.34-47.448-9.573-69.569L372.34,56.343L139.66,414.669l96.579,96.579  C242.761,511.746,249.351,512,256,512C397.385,512,512,397.385,512,256z"/>
<polygon style="fill:#005C83;" points="372.34,414.669 256,483 139.66,414.669 139.66,56.343 372.34,56.343 "/>
<polygon style="fill:#00263F;" points="256,483 372.34,414.669 372.34,56.343 256,56.343 "/>
<polygon style="fill:#00BAFF;" points="161.5,349.75 161.5,392.746 256,448.25 350.5,392.746 350.5,349.75 256,405.254 "/>
<polygon style="fill:#008CC3;" points="256,448.25 350.5,392.746 350.5,349.75 256,405.254 "/>
<polygon style="fill:#00BAFF;" points="161.5,280.75 161.5,323.746 256,379.25 350.5,323.746 350.5,280.75 256,336.254 "/>
<polygon style="fill:#008CC3;" points="256,379.25 350.5,323.746 350.5,280.75 256,336.254 "/>
<polygon style="fill:#FFDC00;" points="256,87.486 276.302,149.968 342,149.968 288.849,188.585 309.151,251.067 256,212.451   202.849,251.067 223.151,188.585 170,149.968 235.698,149.968 "/>
<polygon style="fill:#FFC000;" points="256,212.451 309.151,251.067 288.849,188.585 342,149.968 276.302,149.968 256,87.486 "/>
<g>
</g>
<g>
</g>
<g>
</g>
<g>
</g>
<g>
</g>
<g>
</g>
<g>
</g>
<g>
</g>
<g>
</g>
<g>
</g>
<g>
</g>
<g>
</g>
<g>
</g>
<g>
</g>
<g>
</g>
</svg>
