<?xml version="1.0" encoding="iso-8859-1"?>
<!-- Generator: Adobe Illustrator 19.0.0, SVG Export Plug-In . SVG Version: 6.00 Build 0)  -->
<svg xmlns="http://www.w3.org/2000/svg" xmlns:xlink="http://www.w3.org/1999/xlink" version="1.1" id="Layer_1" x="0px" y="0px" viewBox="0 0 512 512" style="enable-background:new 0 0 512 512;" xml:space="preserve">
<circle style="fill:#005C83;" cx="256" cy="256" r="256"/>
<path style="fill:#00263F;" d="M512,256c0-26.71-4.097-52.462-11.686-76.67l-71.073-71.073L82.759,403.743l96.572,96.572  C203.538,507.903,229.29,512,256,512C397.385,512,512,397.385,512,256z"/>
<polygon style="fill:#FFECB3;" points="429.241,403.743 256,425.127 82.759,403.743 93.451,256 82.759,108.257 256,118.95   429.241,108.257 439.934,256 "/>
<polygon style="fill:#FFD863;" points="429.241,108.257 256,118.95 255.667,118.929 255.667,425.086 256,425.127 429.241,403.743   439.934,256 "/>
<g>
	
		<rect x="166.003" y="173.799" transform="matrix(-0.1582 -0.9874 0.9874 -0.1582 18.2047 375.1178)" style="fill:#FF6838;" width="6" height="12"/>
	<path style="fill:#FF6838;" d="M185.341,319.533l-1.815-11.319l11.848-1.9l1.815,11.319L185.341,319.533z M181.71,296.896   l-1.815-11.319l11.848-1.9l1.815,11.319L181.71,296.896z M178.079,274.259l-1.815-11.319l11.848-1.9l1.815,11.319L178.079,274.259z    M174.448,251.621l-1.815-11.319l11.848-1.9l1.815,11.319L174.448,251.621z M170.818,228.984l-1.815-11.319l11.848-1.9   l1.815,11.319L170.818,228.984z M167.188,206.346l-1.815-11.319l11.848-1.9l1.815,11.319L167.188,206.346z"/>
	<polygon style="fill:#FF6838;" points="198.812,342.836 188.772,340.939 187.155,330.853 199.003,328.952 199.286,330.713    201.04,331.045  "/>
	<path style="fill:#FF6838;" d="M316.641,365.102l-11.783-2.227l2.229-11.792l11.783,2.227L316.641,365.102z M293.075,360.649   l-11.783-2.227l2.229-11.792l11.783,2.227L293.075,360.649z M269.509,356.196l-11.783-2.227l2.229-11.792l11.783,2.227   L269.509,356.196z M245.942,351.742l-11.782-2.227l2.229-11.792l11.782,2.227L245.942,351.742z M222.377,347.289l-11.783-2.227   l2.229-11.792l11.783,2.227L222.377,347.289z"/>
	
		<rect x="211.614" y="334.283" transform="matrix(0.9826 0.1857 -0.1857 0.9826 66.9761 -34.4917)" style="fill:#FF6838;" width="11.992" height="12"/>
</g>
<rect x="258.739" y="343.185" transform="matrix(0.9826 0.1857 -0.1857 0.9826 69.4487 -43.088)" style="fill:#AE4E32;" width="11.992" height="12"/>
<rect x="235.172" y="338.734" transform="matrix(0.9826 0.1857 -0.1857 0.9826 68.2123 -38.7888)" style="fill:#FF6838;" width="11.991" height="12"/>
<g>
	<polyline style="fill:#AE4E32;" points="340.207,367.991 342.436,356.2 330.652,353.973 328.424,365.764  "/>
	
		<rect x="305.872" y="352.087" transform="matrix(0.9826 0.1857 -0.1857 0.9826 71.9218 -51.6857)" style="fill:#AE4E32;" width="11.992" height="12"/>
	
		<rect x="282.315" y="347.637" transform="matrix(0.9826 0.1857 -0.1857 0.9826 70.6856 -47.3887)" style="fill:#AE4E32;" width="11.992" height="12"/>
	<polygon style="fill:#AE4E32;" points="364.663,372.612 351.99,370.218 353.026,364.733 353.294,359.156 354.073,359.193    354.219,358.426 359.704,359.463 365.28,359.73  "/>
	<path style="fill:#AE4E32;" d="M365.814,350.126l-11.986-0.573l0.534-11.168l11.986,0.573L365.814,350.126z M366.883,327.791   l-11.986-0.574l0.535-11.168l11.986,0.574L366.883,327.791z M367.952,305.455l-11.986-0.573l0.534-11.168l11.986,0.573   L367.952,305.455z M369.021,283.12l-11.986-0.574l0.535-11.168l11.986,0.574L369.021,283.12z M370.09,260.784l-11.986-0.573   l0.534-11.168l11.986,0.573L370.09,260.784z M371.158,238.448l-11.986-0.573l0.534-11.168l11.986,0.573L371.158,238.448z"/>
</g>
<rect x="360.386" y="209.857" transform="matrix(-0.9989 -0.0479 0.0479 -0.9989 722.1569 443.0197)" style="fill:#FF6838;" width="12.001" height="6"/>
<polygon style="fill:#440229;" points="392.864,187.864 380.136,175.136 364.5,190.772 348.864,175.136 336.136,187.864   351.772,203.5 336.136,219.136 348.864,231.864 364.5,216.228 380.136,231.864 392.864,219.136 377.228,203.5 "/>
<circle style="fill:#590F38;" cx="168.53" cy="176.83" r="18.5"/>
<g>
</g>
<g>
</g>
<g>
</g>
<g>
</g>
<g>
</g>
<g>
</g>
<g>
</g>
<g>
</g>
<g>
</g>
<g>
</g>
<g>
</g>
<g>
</g>
<g>
</g>
<g>
</g>
<g>
</g>
</svg>
