<?xml version="1.0" encoding="iso-8859-1"?>
<!-- Generator: Adobe Illustrator 19.0.0, SVG Export Plug-In . SVG Version: 6.00 Build 0)  -->
<svg xmlns="http://www.w3.org/2000/svg" xmlns:xlink="http://www.w3.org/1999/xlink" version="1.1" id="Layer_1" x="0px" y="0px" viewBox="0 0 512 512" style="enable-background:new 0 0 512 512;" xml:space="preserve">
<circle style="fill:#E6E18A;" cx="256" cy="256" r="256"/>
<path style="fill:#97CC52;" d="M507.513,303.316l-15.111-15.111l-63.374-47.32l-305.279-35.742l-100.847,85.82l-3.5,40  l173.076,173.076c20.283,5.17,41.532,7.924,63.424,7.924C381.106,511.963,485.3,422.075,507.513,303.316z"/>
<path style="fill:#FF6838;" d="M51.902,330.963c0,0,14-29,27-97l177-178l177,178c13,68,27,97,27,97H51.902z"/>
<path style="fill:#AE4E32;" d="M432.902,233.963l-177-178l-0.333,0.335v274.665h204.333  C459.902,330.963,445.902,301.963,432.902,233.963z"/>
<polygon style="fill:#913B27;" points="374.902,330.963 255.902,55.963 255.902,330.963 "/>
<polygon style="fill:#FF6838;" points="27.402,330.963 19.402,330.963 19.402,288.205 81.788,231.06 87.107,236.909 27.402,291.72   "/>
<polygon style="fill:#AE4E32;" points="492.402,330.963 484.402,330.963 484.402,291.72 424.697,236.909 430.042,231.087   492.402,288.205 "/>
<g>
</g>
<g>
</g>
<g>
</g>
<g>
</g>
<g>
</g>
<g>
</g>
<g>
</g>
<g>
</g>
<g>
</g>
<g>
</g>
<g>
</g>
<g>
</g>
<g>
</g>
<g>
</g>
<g>
</g>
</svg>
