<?xml version="1.0" encoding="iso-8859-1"?>
<!-- Generator: Adobe Illustrator 19.0.0, SVG Export Plug-In . SVG Version: 6.00 Build 0)  -->
<svg xmlns="http://www.w3.org/2000/svg" xmlns:xlink="http://www.w3.org/1999/xlink" version="1.1" id="Layer_1" x="0px" y="0px" viewBox="0 0 512 512" style="enable-background:new 0 0 512 512;" xml:space="preserve">
<circle style="fill:#008CC3;" cx="256" cy="256" r="256"/>
<path style="fill:#0074A3;" d="M259.948,511.95C399.51,509.837,512,396.065,512,256c0-70.068-28.16-133.55-73.767-179.776  l-2.457-2.457L397.75,137.75l-101.812,70.751l-11.605-25.422h-72.93L89.704,61.38l-0.662,23.828l28.188,64.521l176.05,176.157  L172,424.002L259.948,511.95z"/>
<path style="fill:#FFCF35;" d="M267.736,211.619c1.427-2.194,2.264-4.807,2.264-7.619c0-3.146-1.051-6.04-2.803-8.378  C263.494,195.864,259.763,196,256,196s-7.494-0.136-11.197-0.378c-18.935-1.237-37.032-5.585-53.787-12.542  c-51.028-21.189-89.588-66.54-101.312-121.699c-4.64,3.969-9.136,8.101-13.481,12.387c14.029,52.752,50.714,96.368,98.96,119.739  c21.122,10.232,44.461,16.572,69.081,18.113c3.883,0.242,7.793,0.38,11.736,0.38S263.853,211.862,267.736,211.619z"/>
<g>
	<path style="fill:#FFB344;" d="M267.197,195.622C263.494,195.864,259.763,196,256,196c-0.112,0-0.222-0.006-0.333-0.006v16   c0.112,0,0.222,0.006,0.333,0.006c3.943,0,7.853-0.138,11.736-0.381c1.427-2.194,2.264-4.807,2.264-7.619   C270,200.854,268.949,197.96,267.197,195.622z"/>
	<path style="fill:#FFB344;" d="M422.296,61.38c-11.724,55.159-50.284,100.51-101.312,121.699   c5.514,3.104,10.801,6.592,15.832,10.427c48.246-23.372,84.931-66.987,98.96-119.739C431.432,69.481,426.936,65.349,422.296,61.38z   "/>
</g>
<path style="fill:#FFFFFF;" d="M336.817,193.506c-5.031-3.835-10.318-7.323-15.832-10.427C301.633,172.187,279.508,166,256,166  s-45.633,6.187-64.984,17.08c16.755,6.957,34.852,11.305,53.787,12.542C247.356,192.215,251.414,190,256,190  s8.644,2.215,11.197,5.622C268.949,197.96,270,200.854,270,204c0,2.812-0.837,5.425-2.264,7.619C265.239,215.457,260.92,218,256,218  s-9.239-2.543-11.736-6.381c-24.62-1.541-47.959-7.881-69.081-18.113c-1.072,0.817-2.136,1.644-3.183,2.492v228.004  C195.233,442.805,224.366,454,256,454s60.767-11.195,84-29.998V195.998C338.952,195.15,337.888,194.323,336.817,193.506z"/>
<g>
	<path style="fill:#E0E0E0;" d="M336.817,193.506c-5.031-3.835-10.318-7.323-15.832-10.427C301.633,172.187,279.508,166,256,166   c-0.112,0-0.222,0.005-0.333,0.005v24.015c0.112-0.003,0.22-0.02,0.333-0.02c4.586,0,8.644,2.215,11.197,5.622   C268.949,197.96,270,200.854,270,204c0,2.812-0.837,5.425-2.264,7.619C265.239,215.457,260.92,218,256,218   c-0.112,0-0.222-0.008-0.333-0.011v236.007c0.111,0,0.222,0.004,0.333,0.004c31.634,0,60.767-11.195,84-29.998V195.998   C338.952,195.15,337.888,194.323,336.817,193.506z"/>
	<rect x="216" y="249" style="fill:#E0E0E0;" width="19" height="169"/>
</g>
<g>
</g>
<g>
</g>
<g>
</g>
<g>
</g>
<g>
</g>
<g>
</g>
<g>
</g>
<g>
</g>
<g>
</g>
<g>
</g>
<g>
</g>
<g>
</g>
<g>
</g>
<g>
</g>
<g>
</g>
</svg>
