<?xml version="1.0" encoding="UTF-8" standalone="no"?>
<!-- Created with Inkscape (http://www.inkscape.org/) -->

<svg
   xmlns:dc="http://purl.org/dc/elements/1.1/"
   xmlns:cc="http://creativecommons.org/ns#"
   xmlns:rdf="http://www.w3.org/1999/02/22-rdf-syntax-ns#"
   xmlns:svg="http://www.w3.org/2000/svg"
   xmlns="http://www.w3.org/2000/svg"
   xmlns:sodipodi="http://sodipodi.sourceforge.net/DTD/sodipodi-0.dtd"
   xmlns:inkscape="http://www.inkscape.org/namespaces/inkscape"
   version="1.1"
   id="svg2"
   xml:space="preserve"
   width="1185"
   height="666.66669"
   viewBox="0 0 1185 666.66669"
   sodipodi:docname="desert2.svg"
   inkscape:version="0.92.3 (unknown)"><metadata
     id="metadata8"><rdf:RDF><cc:Work
         rdf:about=""><dc:format>image/svg+xml</dc:format><dc:type
           rdf:resource="http://purl.org/dc/dcmitype/StillImage" /><dc:title></dc:title></cc:Work></rdf:RDF></metadata><defs
     id="defs6"><radialGradient
       fx="0.28444687"
       fy="0.01558613"
       cx="0.28444687"
       cy="0.01558613"
       r="1"
       gradientUnits="userSpaceOnUse"
       gradientTransform="matrix(686.28575,0,0,-384.472,232.99715,352.895)"
       spreadMethod="pad"
       id="radialGradient20"><stop
         style="stop-opacity:1;stop-color:#d66528"
         offset="0"
         id="stop16" /><stop
         style="stop-opacity:1;stop-color:#b04020"
         offset="1"
         id="stop18" /></radialGradient><clipPath
       clipPathUnits="userSpaceOnUse"
       id="clipPath30"><path
         d="M 3486.52,3141.42 4917.31,1385.21 H 2055.74 Z"
         id="path28"
         inkscape:connector-curvature="0" /></clipPath><linearGradient
       x1="0"
       y1="0"
       x2="1"
       y2="0"
       gradientUnits="userSpaceOnUse"
       gradientTransform="matrix(472.778,-1409.24,-1409.24,-472.778,3054.26,2673.67)"
       spreadMethod="pad"
       id="linearGradient38"><stop
         style="stop-opacity:1;stop-color:#f6b83e"
         offset="0"
         id="stop32" /><stop
         style="stop-opacity:1;stop-color:#d6762d"
         offset="0.552415"
         id="stop34" /><stop
         style="stop-opacity:1;stop-color:#c55624"
         offset="1"
         id="stop36" /></linearGradient><clipPath
       clipPathUnits="userSpaceOnUse"
       id="clipPath48"><path
         d="M 3486.52,3141.42 4917.31,1385.21 h -561.24 z"
         id="path46"
         inkscape:connector-curvature="0" /></clipPath><linearGradient
       x1="0"
       y1="0"
       x2="1"
       y2="0"
       gradientUnits="userSpaceOnUse"
       gradientTransform="matrix(846.667,-160.001,-160.001,-846.667,3235.84,2392.85)"
       spreadMethod="pad"
       id="linearGradient56"><stop
         style="stop-opacity:1;stop-color:#f6b83e"
         offset="0"
         id="stop50" /><stop
         style="stop-opacity:1;stop-color:#d6762d"
         offset="0.552415"
         id="stop52" /><stop
         style="stop-opacity:1;stop-color:#c55624"
         offset="1"
         id="stop54" /></linearGradient><clipPath
       clipPathUnits="userSpaceOnUse"
       id="clipPath66"><path
         d="m 2330.69,2582.2 996.9,-1223.64 H 1333.8 Z"
         id="path64"
         inkscape:connector-curvature="0" /></clipPath><linearGradient
       x1="0"
       y1="0"
       x2="1"
       y2="0"
       gradientUnits="userSpaceOnUse"
       gradientTransform="matrix(746.666,-1113.33,-1113.33,-746.666,1854.93,2067.96)"
       spreadMethod="pad"
       id="linearGradient74"><stop
         style="stop-opacity:1;stop-color:#f6b83e"
         offset="0"
         id="stop68" /><stop
         style="stop-opacity:1;stop-color:#d6762d"
         offset="0.552415"
         id="stop70" /><stop
         style="stop-opacity:1;stop-color:#c55624"
         offset="1"
         id="stop72" /></linearGradient><clipPath
       clipPathUnits="userSpaceOnUse"
       id="clipPath84"><path
         d="m 2330.69,2582.2 996.9,-1223.64 h -391.05 z"
         id="path82"
         inkscape:connector-curvature="0" /></clipPath><linearGradient
       x1="0"
       y1="0"
       x2="1"
       y2="0"
       gradientUnits="userSpaceOnUse"
       gradientTransform="matrix(926.667,-840,-840,-926.667,2076.75,2475.17)"
       spreadMethod="pad"
       id="linearGradient92"><stop
         style="stop-opacity:1;stop-color:#f6b83e"
         offset="0"
         id="stop86" /><stop
         style="stop-opacity:1;stop-color:#d6762d"
         offset="0.552415"
         id="stop88" /><stop
         style="stop-opacity:1;stop-color:#c55624"
         offset="1"
         id="stop90" /></linearGradient><clipPath
       clipPathUnits="userSpaceOnUse"
       id="clipPath102"><path
         d="m 0,1548.34 c 155.832,7.78 311.918,17.21 465.984,4.71 120.825,-9.81 238.532,-33.01 360.442,-35.58 153.672,-3.24 306.924,43.41 459.564,32.53 144.33,-10.29 275.14,-75.77 418.64,-89.44 228.34,-21.76 456.14,39.65 687.5,41.37 155.87,1.15 316,-24.6 465.01,2.19 75.41,13.55 142.54,39.84 217.48,54.24 322.53,61.97 656.51,-108.86 993.14,-83.2 76.45,5.83 150.27,21.78 227.22,24.51 182.92,6.5 354.88,-61.93 537.95,-57.06 56.84,1.52 111.91,10.07 167.07,18.69 V 1198.42 H 0 Z"
         id="path100"
         inkscape:connector-curvature="0" /></clipPath><linearGradient
       x1="0"
       y1="0"
       x2="1"
       y2="0"
       gradientUnits="userSpaceOnUse"
       gradientTransform="matrix(0,-373.571,-373.571,0,2500,1538.66)"
       spreadMethod="pad"
       id="linearGradient110"><stop
         style="stop-opacity:1;stop-color:#f9a83a"
         offset="0"
         id="stop104" /><stop
         style="stop-opacity:1;stop-color:#d66528"
         offset="0.552415"
         id="stop106" /><stop
         style="stop-opacity:1;stop-color:#c34720"
         offset="1"
         id="stop108" /></linearGradient><clipPath
       clipPathUnits="userSpaceOnUse"
       id="clipPath120"><path
         d="m 545.398,1390.48 c 86.528,-10.32 172.457,-22.41 262.282,-26.79 66.511,-3.25 134.246,-2.21 200,-7.33 73.74,-5.73 142.15,-18.98 215.23,-25.88 217.99,-20.57 451.71,17.11 667.57,-6.54 117.27,-12.85 223.6,-43.33 345.21,-43.5 73.62,-0.11 143.4,11.14 216.64,13.36 76.4,2.31 154.64,-5.26 229.87,-0.16 66.04,4.47 124.04,18.34 188.18,25.49 223.94,24.96 459.11,-35.03 694.29,-33.28 95.63,0.71 188.66,11.71 284.35,11.61 165.94,-0.17 323.62,-33.5 489.58,-33.94 108.66,-0.29 213.95,13.6 322.6,13.63 66.09,0.01 131.62,-5.11 196.56,-10.2 47.42,-3.72 94.83,-7.45 142.24,-11.17 V 531.762 H 0 v 900.268 c 184.746,-6.51 368.023,-20.4 545.398,-41.55 z"
         id="path118"
         inkscape:connector-curvature="0" /></clipPath><linearGradient
       x1="0"
       y1="0"
       x2="1"
       y2="0"
       gradientUnits="userSpaceOnUse"
       gradientTransform="matrix(0,-900.278,-900.278,0,2500,1432.03)"
       spreadMethod="pad"
       id="linearGradient128"><stop
         style="stop-opacity:1;stop-color:#f9a83a"
         offset="0"
         id="stop122" /><stop
         style="stop-opacity:1;stop-color:#d66528"
         offset="0.552415"
         id="stop124" /><stop
         style="stop-opacity:1;stop-color:#c34720"
         offset="1"
         id="stop126" /></linearGradient><clipPath
       clipPathUnits="userSpaceOnUse"
       id="clipPath138"><path
         d="m 545.398,1477.14 c 86.528,-10.32 172.457,-22.4 262.282,-26.79 66.511,-3.24 134.246,-2.21 200,-7.32 73.74,-5.74 142.15,-18.99 215.23,-25.88 217.99,-20.58 451.71,17.1 667.57,-6.54 117.27,-12.85 223.6,-43.34 345.21,-43.51 73.62,-0.1 143.4,11.15 216.64,13.36 76.4,2.32 154.64,-5.25 229.87,-0.16 66.04,4.48 124.04,18.34 188.18,25.49 223.94,24.96 459.11,-35.03 694.29,-33.28 95.63,0.72 188.66,11.71 284.35,11.62 165.94,-0.17 323.62,-33.51 489.58,-33.95 108.66,-0.29 213.95,13.61 322.6,13.63 66.09,0.02 131.62,-5.1 196.56,-10.2 47.42,-3.72 94.83,-7.44 142.24,-11.16 v -277.36 c 0,0 -765,29.91 -1020,29.91 -334.65,0 -894.42,-70.51 -1490.02,-75 -428.25,-3.23 -875.04,66.63 -1269.98,55 C 531.137,1054.72 0,950 0,950 v 568.7 c 184.746,-6.52 368.023,-20.41 545.398,-41.56 z"
         id="path136"
         inkscape:connector-curvature="0" /></clipPath><linearGradient
       x1="0"
       y1="0"
       x2="1"
       y2="0"
       gradientUnits="userSpaceOnUse"
       gradientTransform="matrix(0,-568.701,-568.701,0,2500,1772.03)"
       spreadMethod="pad"
       id="linearGradient146"><stop
         style="stop-opacity:1;stop-color:#f9a83a"
         offset="0"
         id="stop140" /><stop
         style="stop-opacity:1;stop-color:#d66528"
         offset="0.552415"
         id="stop142" /><stop
         style="stop-opacity:1;stop-color:#c34720"
         offset="1"
         id="stop144" /></linearGradient></defs><sodipodi:namedview
     pagecolor="#ffffff"
     bordercolor="#666666"
     borderopacity="1"
     objecttolerance="10"
     gridtolerance="10"
     guidetolerance="10"
     inkscape:pageopacity="0"
     inkscape:pageshadow="2"
     inkscape:window-width="1920"
     inkscape:window-height="1044"
     id="namedview4"
     showgrid="false"
     inkscape:zoom="0.70799998"
     inkscape:cx="481.47637"
     inkscape:cy="238.38848"
     inkscape:window-x="0"
     inkscape:window-y="0"
     inkscape:window-maximized="1"
     inkscape:current-layer="g10" /><g
     id="g10"
     inkscape:groupmode="layer"
     inkscape:label="ink_ext_XXXXXX"
     transform="matrix(1.3333333,0,0,-1.3333333,0,666.66667)"><path
       inkscape:connector-curvature="0"
       id="path22"
       style="fill:url(#radialGradient20);fill-opacity:1;fill-rule:nonzero;stroke:none;stroke-width:0.13360421"
       d="M 892.50421,0 H 0 V 500 H 892.50421 V 0" /><g
       id="g24"
       transform="matrix(0.14522836,0,0,0.14522836,146.24222,-63.564085)"><g
         clip-path="url(#clipPath30)"
         id="g26"><path
           inkscape:connector-curvature="0"
           id="path40"
           style="fill:url(#linearGradient38);fill-opacity:1;fill-rule:nonzero;stroke:none"
           d="M 3486.52,3141.42 4917.31,1385.21 H 2055.74 Z" /></g></g><g
       id="g42"
       transform="matrix(0.14522836,0,0,0.14522836,146.24222,-63.564085)"><g
         clip-path="url(#clipPath48)"
         id="g44"><path
           inkscape:connector-curvature="0"
           id="path58"
           style="fill:url(#linearGradient56);fill-opacity:1;fill-rule:nonzero;stroke:none"
           d="M 3486.52,3141.42 4917.31,1385.21 h -561.24 z" /></g></g><g
       id="g60"
       transform="matrix(0.14522836,0,0,0.14522836,146.24222,-63.564085)"><g
         clip-path="url(#clipPath66)"
         id="g62"><path
           inkscape:connector-curvature="0"
           id="path76"
           style="fill:url(#linearGradient74);fill-opacity:1;fill-rule:nonzero;stroke:none"
           d="m 2330.69,2582.2 996.9,-1223.64 H 1333.8 Z" /></g></g><g
       id="g78"
       transform="matrix(0.14522836,0,0,0.14522836,146.24222,-63.564085)"><g
         clip-path="url(#clipPath84)"
         id="g80"><path
           inkscape:connector-curvature="0"
           id="path94"
           style="fill:url(#linearGradient92);fill-opacity:1;fill-rule:nonzero;stroke:none"
           d="m 2330.69,2582.2 996.9,-1223.64 h -391.05 z" /></g></g><g
       id="g96"
       transform="scale(0.17910008,0.1)"><g
         clip-path="url(#clipPath102)"
         id="g98"><path
           inkscape:connector-curvature="0"
           id="path112"
           style="fill:url(#linearGradient110);fill-opacity:1;fill-rule:nonzero;stroke:none"
           d="m 0,1548.34 c 155.832,7.78 311.918,17.21 465.984,4.71 120.825,-9.81 238.532,-33.01 360.442,-35.58 153.672,-3.24 306.924,43.41 459.564,32.53 144.33,-10.29 275.14,-75.77 418.64,-89.44 228.34,-21.76 456.14,39.65 687.5,41.37 155.87,1.15 316,-24.6 465.01,2.19 75.41,13.55 142.54,39.84 217.48,54.24 322.53,61.97 656.51,-108.86 993.14,-83.2 76.45,5.83 150.27,21.78 227.22,24.51 182.92,6.5 354.88,-61.93 537.95,-57.06 56.84,1.52 111.91,10.07 167.07,18.69 V 1198.42 H 0 v 349.92" /></g></g><g
       id="g114"
       transform="scale(0.17820122,0.1)"><g
         clip-path="url(#clipPath120)"
         id="g116"><path
           inkscape:connector-curvature="0"
           id="path130"
           style="fill:url(#linearGradient128);fill-opacity:1;fill-rule:nonzero;stroke:none"
           d="m 545.398,1390.48 c 86.528,-10.32 172.457,-22.41 262.282,-26.79 66.511,-3.25 134.246,-2.21 200,-7.33 73.74,-5.73 142.15,-18.98 215.23,-25.88 217.99,-20.57 451.71,17.11 667.57,-6.54 117.27,-12.85 223.6,-43.33 345.21,-43.5 73.62,-0.11 143.4,11.14 216.64,13.36 76.4,2.31 154.64,-5.26 229.87,-0.16 66.04,4.47 124.04,18.34 188.18,25.49 223.94,24.96 459.11,-35.03 694.29,-33.28 95.63,0.71 188.66,11.71 284.35,11.61 165.94,-0.17 323.62,-33.5 489.58,-33.94 108.66,-0.29 213.95,13.6 322.6,13.63 66.09,0.01 131.62,-5.11 196.56,-10.2 47.42,-3.72 94.83,-7.45 142.24,-11.17 V 531.762 H 0 v 900.268 c 184.746,-6.51 368.023,-20.4 545.398,-41.55" /></g></g><g
       id="g132"
       transform="scale(0.17880046,0.1)"><g
         clip-path="url(#clipPath138)"
         id="g134"><path
           inkscape:connector-curvature="0"
           id="path148"
           style="fill:url(#linearGradient146);fill-opacity:1;fill-rule:nonzero;stroke:none"
           d="m 545.398,1477.14 c 86.528,-10.32 172.457,-22.4 262.282,-26.79 66.511,-3.24 134.246,-2.21 200,-7.32 73.74,-5.74 142.15,-18.99 215.23,-25.88 217.99,-20.58 451.71,17.1 667.57,-6.54 117.27,-12.85 223.6,-43.34 345.21,-43.51 73.62,-0.1 143.4,11.15 216.64,13.36 76.4,2.32 154.64,-5.25 229.87,-0.16 66.04,4.48 124.04,18.34 188.18,25.49 223.94,24.96 459.11,-35.03 694.29,-33.28 95.63,0.72 188.66,11.71 284.35,11.62 165.94,-0.17 323.62,-33.51 489.58,-33.95 108.66,-0.29 213.95,13.61 322.6,13.63 66.09,0.02 131.62,-5.1 196.56,-10.2 47.42,-3.72 94.83,-7.44 142.24,-11.16 v -277.36 c 0,0 -765,29.91 -1020,29.91 -334.65,0 -894.42,-70.51 -1490.02,-75 -428.25,-3.23 -875.04,66.63 -1269.98,55 C 531.137,1054.72 0,950 0,950 v 568.7 c 184.746,-6.52 368.023,-20.41 545.398,-41.56" /></g></g><path
       inkscape:connector-curvature="0"
       id="path150"
       style="fill:#231311;fill-opacity:1;fill-rule:nonzero;stroke:none;stroke-width:0.13360421"
       d="m 892.50421,56.5 c 0,0 -226.26767,8 -303.17119,8 C 517.4436,64.5 373.79326,58.6121 246.31867,58 114.51115,57.3672 0,68.5 0,68.5 V 0 h 892.50421 v 56.5" /><path
       inkscape:connector-curvature="0"
       id="path152"
       style="fill:#231311;fill-opacity:1;fill-rule:nonzero;stroke:none;stroke-width:0.1"
       d="m 70.4801,130.851 c -0.1192,0.021 -0.2613,0.053 -0.4231,0.09 -0.1547,0.036 -0.3261,0.075 -0.5097,0.112 l -0.3914,0.5 0.7289,0.37 1.6547,-1.301 z m -0.8332,-9.296 c 0.0035,0.09 0.0129,0.194 0.0219,0.311 0.0054,0.064 0.0113,0.131 0.0164,0.199 0.0339,-0.167 0.0714,-0.328 0.1074,-0.483 0.0094,-0.041 0.0183,-0.081 0.0277,-0.12 z m -0.0067,-1.877 -0.0074,1.482 c 0,0.007 0,0.055 0.0039,0.149 l 0.2164,0.006 c 0.0129,-0.059 0.0258,-0.118 0.0371,-0.175 0.0422,-0.209 0.0922,-0.4 0.1489,-0.552 0.0445,-0.134 0.082,-0.251 0.1156,-0.376 0.0586,-0.178 0.0855,-0.282 0.0879,-0.292 l 0.2793,-1.12 z m -0.3332,-1.127 c -0.0359,0.023 -0.075,0.062 -0.1211,0.104 l -0.1648,0.146 c -0.0645,0.048 -0.1281,0.112 -0.1957,0.178 -0.0578,0.057 -0.1176,0.115 -0.1695,0.162 0.0261,-0.009 0.0546,-0.02 0.0859,-0.033 0.1035,-0.034 0.1641,-0.057 0.1707,-0.06 l 0.375,-0.148 0.1297,-0.431 z m -1.0144,2.433 c -0.0613,0.05 -0.1246,0.1 -0.1903,0.149 l -0.0039,0.132 c 0.0692,-0.001 0.1067,0 0.1079,-0.001 l 0.3566,0.01 c 0.0598,-0.158 0.0879,-0.252 0.091,-0.259 l 0.1484,-0.495 c -0.0265,0.025 -0.0535,0.051 -0.0804,0.078 -0.1328,0.13 -0.2781,0.27 -0.4293,0.386 z m -0.2285,1.574 0.039,-0.104 c 0.009,-0.025 0.0184,-0.051 0.0274,-0.075 -0.02,0.013 -0.0407,0.027 -0.0625,0.042 z m -0.4063,8.819 c -0.2226,0.029 -0.4512,0.054 -0.6816,0.075 0.2449,0.068 0.4773,0.124 0.6886,0.157 0.1582,0.028 0.3512,0.059 0.5399,0.077 l 0.7269,-0.515 c -0.391,0.074 -0.8211,0.148 -1.2738,0.206 z m -1.039,-8.021 0.0046,0.393 0.0168,-0.053 c 0.0473,-0.16 0.1032,-0.305 0.1594,-0.43 -0.057,0.029 -0.1172,0.059 -0.1808,0.09 z m 1.2433,10.111 c 0.1207,-0.099 0.2359,-0.192 0.3426,-0.284 0.159,-0.137 0.3133,-0.255 0.4496,-0.34 -0.1582,0.042 -0.3629,0.087 -0.6039,0.12 l -0.0602,0.076 c -0.0058,0.008 -0.0714,0.092 -0.1937,0.272 -0.0625,0.08 -0.1317,0.187 -0.2121,0.31 -0.0348,0.053 -0.0707,0.108 -0.1082,0.165 0.1312,-0.112 0.2609,-0.218 0.3859,-0.319 z m -1.8305,-0.452 -0.1355,0.164 0.0656,-0.04 c 0.066,-0.041 0.1301,-0.081 0.1914,-0.119 -0.0398,-0.001 -0.0804,-0.003 -0.1215,-0.005 z m -0.3746,-4.838 c -0.0441,0.126 -0.0945,0.246 -0.1465,0.364 0.0516,-0.018 0.1028,-0.034 0.1536,-0.052 l 0.0078,-0.096 c 0.0074,-0.077 0.0168,-0.156 0.0277,-0.214 0.0055,-0.053 0.0117,-0.106 0.0215,-0.161 -0.0215,0.055 -0.0426,0.108 -0.0641,0.159 z m -1.3386,4.673 -0.0465,0.061 c 0.0523,0.029 0.1004,0.055 0.1422,0.077 0.0308,-0.016 0.0605,-0.033 0.0898,-0.048 l 0.1055,-0.054 c -0.0973,-0.012 -0.1938,-0.024 -0.291,-0.036 z m -0.943,-3.916 c -0.0387,0.07 -0.0789,0.138 -0.1199,0.205 0.0492,-0.01 0.0992,-0.02 0.1484,-0.03 -0.0117,-0.057 -0.0215,-0.117 -0.0285,-0.175 z m -2.8328,7.207 c -0.1133,0.071 -0.2281,0.136 -0.3375,0.196 0.0508,0.017 0.1019,0.035 0.1527,0.053 l 0.0664,-0.073 c 0.0531,-0.055 0.1094,-0.113 0.15,-0.148 0.0371,-0.038 0.075,-0.077 0.1176,-0.115 -0.0512,0.03 -0.1012,0.059 -0.1492,0.087 z M 58.15,135.47 c 0.0141,0.008 0.0285,0.014 0.0434,0.021 0.0074,-0.013 0.0144,-0.028 0.0222,-0.043 z m -7.5355,0.809 c -0.3528,-0.47 -0.6864,-0.991 -0.9997,-1.561 l -0.0218,0.23 c 0.0105,0.071 0.0226,0.139 0.0371,0.207 0.0679,0.358 0.1394,0.727 0.2347,0.911 0.0321,0.071 0.0563,0.098 0.0821,0.114 l 1.3453,0.952 c -0.2238,-0.263 -0.4555,-0.548 -0.6777,-0.853 z m -8.2782,-14.343 c -0.0082,-0.217 -0.0172,-0.442 -0.0582,-0.613 -0.0062,-0.049 -0.0191,-0.086 -0.0558,-0.198 l -0.6395,-2.013 0.25,1.789 c 0.0063,0.08 0.0242,0.176 0.0477,0.313 l 0.0812,0.472 c 0.018,0.129 0.0488,0.267 0.102,0.507 l 0.0379,0.191 c 0.0269,0.134 0.0547,0.271 0.0761,0.398 l 0.0649,0.332 c 0.0195,0.099 0.0387,0.2 0.0586,0.3 0.0039,-0.096 0.0086,-0.19 0.0129,-0.283 l 0.0144,-0.359 c 0.0117,-0.256 0.0238,-0.496 0.0129,-0.713 z m -1.816,15.666 -0.4707,0.088 c -0.0324,0.006 -0.0629,0.011 -0.091,0.016 l -0.2184,0.324 c 0.127,-0.058 0.2563,-0.117 0.3875,-0.173 0.1688,-0.074 0.3414,-0.147 0.5145,-0.219 0.0836,-0.035 0.1668,-0.071 0.2508,-0.106 -0.1317,0.028 -0.2567,0.049 -0.3727,0.07 z m -0.7371,-1.672 c -0.1402,0.154 -0.2887,0.299 -0.4219,0.419 -0.0617,0.061 -0.1293,0.118 -0.1968,0.172 l -0.1332,0.108 c -0.07,0.057 -0.1395,0.11 -0.2032,0.147 l -0.1683,0.111 c -0.0961,0.062 -0.1875,0.123 -0.2657,0.169 l -0.5171,0.28 c -0.0809,0.04 -0.1536,0.075 -0.2278,0.107 l -0.8863,0.405 -0.2734,0.229 c -0.1387,0.12 -0.2743,0.22 -0.3883,0.294 l -0.2688,0.188 3.5129,-1.73 c 0.0106,-0.005 0.1274,-0.063 0.3356,-0.19 0.0339,-0.02 0.0703,-0.04 0.1078,-0.064 l 0.1289,-0.745 z m -0.6234,-11.553 v 0 l 0.08,-10e-4 0.009,-0.02 z m -5.8164,-1.18 c -0.0032,0.022 -0.0059,0.043 -0.0094,0.065 0.0074,0.004 0.0144,0.008 0.0215,0.011 -0.0039,-0.025 -0.0082,-0.05 -0.0121,-0.076 z m -0.1036,7.479 v 0 h 4e-4 z m -2.8992,-9.406 c -0.0375,-0.236 -0.0773,-0.487 -0.0961,-0.728 -0.0039,-0.031 -0.0078,-0.063 -0.0109,-0.095 -0.0063,0.066 -0.0117,0.129 -0.0184,0.193 l -0.0234,0.252 c -0.0082,0.114 -0.0234,0.223 -0.043,0.326 0.0696,0.054 0.1395,0.107 0.209,0.161 -0.0055,-0.036 -0.0109,-0.073 -0.0172,-0.109 z m -1.5828,5.636 h -0.0035 c 0.0055,0.003 0.0102,0.006 0.0156,0.01 0.0133,-0.004 0.0266,-0.007 0.0403,-0.011 -0.0172,0.001 -0.0348,0.001 -0.0524,0.001 z m -1.2984,-1.398 c -0.5164,0.002 -1.0219,-0.038 -1.527,-0.119 -0.3937,-0.054 -0.7172,-0.159 -0.9527,-0.235 l -0.1211,-0.039 c -0.0969,-0.028 -0.1785,-0.06 -0.3027,-0.109 l -0.9629,-0.373 0.4324,0.421 0.9008,0.39 1.482,0.423 c 0.0652,-0.032 0.1469,-0.069 0.25,-0.113 0.1809,-0.064 0.5266,-0.172 0.9789,-0.246 z m 43.684,14.949 h 4e-4 z m 10.6144,-27.506 c -0.0551,0.084 -0.109,0.205 -0.1726,0.343 l -0.1067,0.226 c -0.0371,0.07 -0.0609,0.156 -0.089,0.244 l -0.5211,1.886 c -0.0895,0.282 -0.1813,0.573 -0.3196,0.811 -0.1187,0.257 -0.275,0.472 -0.4133,0.662 -0.0117,0.016 -0.0238,0.032 -0.0355,0.049 0.0977,-0.062 0.1953,-0.119 0.2926,-0.174 0.1664,-0.096 0.3332,-0.183 0.4922,-0.269 0.1777,-0.093 0.3457,-0.182 0.5078,-0.281 l 0.4097,-0.214 c 0.1079,-0.06 0.2012,-0.114 0.2946,-0.173 l 2.7523,-1.621 -2.0648,2.47 c -0.0602,0.066 -0.1301,0.15 -0.2102,0.245 l -0.0777,0.102 c -0.0695,0.095 -0.1457,0.195 -0.2289,0.281 -0.0953,0.104 -0.1934,0.22 -0.2969,0.343 -0.1437,0.169 -0.2965,0.349 -0.4605,0.523 -0.0473,0.052 -0.0965,0.103 -0.1465,0.153 0.0867,-0.043 0.1676,-0.086 0.2457,-0.137 0.0832,-0.046 0.1461,-0.088 0.1992,-0.123 l 0.0844,-0.056 0.6226,0.777 c -0.0062,0.005 -0.0933,0.091 -0.2554,0.27 -0.0598,0.059 -0.125,0.133 -0.1993,0.218 -0.1363,0.154 -0.2968,0.336 -0.5418,0.563 -0.2921,0.267 -0.6558,0.599 -1.0636,0.903 -0.2387,0.182 -0.4922,0.358 -0.7508,0.529 0.2387,-0.101 0.4555,-0.198 0.6152,-0.298 0.0606,-0.029 0.1086,-0.06 0.2176,-0.128 l 2.5031,-1.516 -1.7523,2.193 c 0,0 -0.0981,0.122 -0.2965,0.352 l -0.0934,0.099 c -0.18,0.194 -0.4273,0.457 -0.7554,0.725 -0.1836,0.149 -0.3848,0.31 -0.6114,0.484 -0.2289,0.167 -0.4765,0.331 -0.7363,0.484 -0.043,0.025 -0.0867,0.05 -0.1312,0.077 l -0.409,0.838 c -0.0301,0.08 -0.0856,0.178 -0.2,0.364 l -0.2906,0.336 c -0.0493,0.05 -0.102,0.104 -0.1516,0.146 -0.1563,0.142 -0.3695,0.321 -0.6266,0.455 -0.5254,0.292 -1.0277,0.535 -1.4836,0.721 l -0.2035,0.087 2.8746,-1.104 -3.0679,2.291 c -0.0598,0.047 -0.1329,0.103 -0.2411,0.173 -0.246,0.159 -0.6183,0.397 -1.1074,0.614 -0.3918,0.165 -0.9902,0.404 -1.6582,0.58 -0.4137,0.113 -0.8496,0.206 -1.275,0.288 l 3.5266,0.255 -2.784,0.599 -1.6055,2.485 c -0.005,0.007 -0.0633,0.099 -0.1754,0.299 -0.0441,0.067 -0.0863,0.155 -0.1355,0.254 -0.0801,0.161 -0.1719,0.343 -0.2906,0.528 -0.0653,0.102 -0.1297,0.214 -0.1965,0.332 0.1336,-0.113 0.2664,-0.221 0.398,-0.321 0.195,-0.154 0.3942,-0.293 0.5825,-0.422 0.1304,-0.091 0.2554,-0.177 0.3679,-0.263 0.1836,-0.141 0.3653,-0.25 0.5199,-0.344 0.0747,-0.045 0.1418,-0.084 0.25,-0.154 0.0497,-0.027 0.086,-0.053 0.1153,-0.073 l 0.1304,0.193 0.084,0.05 -0.1203,-0.307 1.8278,-1.23 -1.1696,1.997 c -0.0183,0.031 -0.0422,0.071 -0.0941,0.176 -0.0336,0.056 -0.0684,0.124 -0.1078,0.201 -0.0133,0.025 -0.0262,0.05 -0.0403,0.077 0.261,-0.27 0.5223,-0.523 0.7489,-0.733 0.1785,-0.171 0.3523,-0.309 0.4961,-0.422 l 2.6843,-1.813 -1.6082,2.267 c -0.023,0.032 -0.0523,0.073 -0.1121,0.166 -0.0883,0.117 -0.175,0.303 -0.2808,0.52 l -0.0039,0.008 c 0.3312,-0.362 0.6648,-0.725 1.0007,-1.039 0.2496,-0.239 0.5043,-0.452 0.7368,-0.647 l 0.2531,-0.211 c 0.1551,-0.135 0.3094,-0.248 0.4457,-0.343 l 2.6207,-1.726 -1.5094,2.307 c -0.057,0.075 -0.1184,0.175 -0.1934,0.296 -0.0738,0.117 -0.1558,0.247 -0.2523,0.391 0.1078,-0.089 0.2156,-0.173 0.3246,-0.252 0.3344,-0.25 0.6746,-0.444 0.9402,-0.594 0.1579,-0.094 0.3118,-0.165 0.4465,-0.219 l 0.3403,-0.139 c 0.1386,-0.045 0.2164,-0.076 0.2265,-0.081 l 2.3285,-0.975 -1.7804,1.79 c -0.0078,0.007 -0.0668,0.068 -0.1906,0.212 -0.0493,0.049 -0.102,0.118 -0.1727,0.208 l -0.2656,0.329 c -0.0067,0.006 -0.0121,0.014 -0.0188,0.021 0.0274,-0.013 0.0543,-0.024 0.0817,-0.037 l 0.1546,-0.067 c 0.3723,-0.127 0.7938,-0.271 1.1856,-0.335 0.1621,-0.04 0.3297,-0.058 0.4883,-0.075 l 0.1441,-0.015 c 0.1742,-0.012 0.3344,-0.023 0.4785,-0.036 0.3145,-0.031 0.586,0.003 0.7657,0.025 l 0.1257,0.019 c 0.1532,0.035 0.2375,0.05 0.2438,0.051 l 2.0523,0.37 -1.9976,0.602 c -0.0102,0.003 -0.0871,0.027 -0.2348,0.086 -0.0953,0.032 -0.2113,0.095 -0.3461,0.164 l -0.2222,0.112 c -0.0704,0.032 -0.1395,0.083 -0.2125,0.134 l -1.3622,1.027 -0.2121,0.145 c -0.2433,0.168 -0.4961,0.342 -0.7523,0.446 -0.2516,0.13 -0.5067,0.203 -0.732,0.269 -0.02,0.005 -0.0395,0.011 -0.059,0.016 0.114,0.012 0.2269,0.026 0.3363,0.043 0.193,0.027 0.3809,0.06 0.5602,0.091 0.1957,0.034 0.3808,0.068 0.5503,0.086 l 0.4766,0.085 c 0.1192,0.02 0.2234,0.034 0.3367,0.044 l 3.1555,0.419 -3.1332,0.673 c -0.0898,0.015 -0.1984,0.039 -0.3199,0.065 l -0.127,0.034 c -0.1121,0.031 -0.232,0.063 -0.3488,0.08 -0.1375,0.024 -0.2856,0.055 -0.4414,0.087 -0.2184,0.046 -0.4516,0.095 -0.6891,0.132 -0.0691,0.012 -0.139,0.022 -0.2094,0.031 0.0946,0.019 0.1852,0.035 0.2786,0.043 0.0886,0.014 0.1605,0.019 0.2347,0.025 l 0.0996,0.008 0.0141,0.995 c -0.0086,0.001 -0.1297,0.015 -0.3664,0.057 -0.0832,0.008 -0.1805,0.028 -0.2902,0.048 -0.2032,0.039 -0.4418,0.083 -0.734,0.11 -0.4047,0.033 -0.9063,0.071 -1.4344,0.062 -0.3008,-0.002 -0.6105,-0.018 -0.9203,-0.043 0.2508,0.068 0.4828,0.123 0.6703,0.143 0.0648,0.013 0.1215,0.018 0.2508,0.032 l 3.0051,0.313 -2.8274,0.682 c 0,0 -0.1523,0.036 -0.4508,0.097 l -0.1257,0.02 c -0.2622,0.042 -0.6215,0.1 -1.109,0.111 -0.2192,0.004 -0.4567,0.007 -0.7215,0.006 -0.2828,-0.01 -0.5797,-0.032 -0.8766,-0.072 -0.0472,-0.006 -0.0945,-0.012 -0.1429,-0.018 l -0.8446,0.409 c -0.0754,0.047 -0.1867,0.093 -0.3367,0.147 l -0.1102,0.037 c -0.0753,0.018 -0.1617,0.038 -0.2566,0.053 l -0.1199,0.016 c -0.0692,0.01 -0.1422,0.019 -0.2043,0.022 -0.2094,0.016 -0.4887,0.027 -0.7754,-0.025 -0.6125,-0.097 -1.143,-0.21 -1.6102,-0.342 l -0.4023,-0.104 2.927,0.952 -3.6161,-0.086 c -0.0765,0 -0.1726,0.001 -0.2929,-0.011 -0.293,-0.026 -0.7364,-0.065 -1.2598,-0.196 -0.6477,-0.173 -1.1785,-0.352 -1.666,-0.561 -0.3953,-0.163 -0.791,-0.354 -1.1848,-0.555 l 2.6379,2.362 -3.5777,-1.713 c -0.1071,-0.057 -0.2383,-0.117 -0.3879,-0.188 -0.1988,-0.092 -0.4266,-0.199 -0.6656,-0.323 -0.4442,-0.225 -0.9641,-0.49 -1.4965,-0.805 -0.1942,-0.115 -0.3899,-0.235 -0.5852,-0.36 0.1528,0.204 0.302,0.392 0.4488,0.549 0.2067,0.227 0.5047,0.543 0.754,0.691 0.0851,0.064 0.1433,0.076 0.1683,0.08 l 0.2633,0.052 0.4949,1.007 -1.0469,-0.08 c -0.0875,-0.014 -0.2101,-0.033 -0.3925,-0.086 -0.2735,-0.098 -0.6977,-0.283 -1.1746,-0.622 -0.3918,-0.281 -0.8786,-0.632 -1.3438,-1.046 -0.4203,-0.365 -0.8355,-0.78 -1.2469,-1.192 l -0.0383,-0.038 c 0.0274,0.056 0.0532,0.112 0.0782,0.165 0.1058,0.243 0.1718,0.38 0.1742,0.384 l 1.8824,3.877 -2.7203,-3.342 c -0.0035,-0.004 -0.1,-0.123 -0.2922,-0.343 -0.0805,-0.102 -0.1875,-0.22 -0.314,-0.36 l -0.4426,-0.501 c -0.1653,-0.197 -0.3578,-0.404 -0.5625,-0.623 -0.1707,-0.183 -0.3492,-0.375 -0.5219,-0.57 -0.2059,-0.225 -0.4125,-0.461 -0.6191,-0.702 l -0.1754,-0.201 c 0.0578,0.108 0.1168,0.216 0.1804,0.325 l 0.1149,0.221 c 0.0828,0.16 0.1594,0.309 0.2398,0.45 0.0977,0.177 0.1821,0.332 0.2895,0.475 l 2.6777,4.067 -3.5437,-3.366 c -0.1121,-0.114 -0.2481,-0.25 -0.4098,-0.401 -0.1738,-0.158 -0.3637,-0.342 -0.5969,-0.584 l -2.4043,-0.759 -0.1109,-0.034 -0.0547,0.54 -0.1977,-0.683 c -0.0687,-0.052 -0.141,-0.114 -0.2175,-0.191 -0.0063,-0.007 -0.0133,-0.014 -0.02,-0.022 -0.0089,0.053 -0.0179,0.106 -0.0273,0.159 -0.0859,0.338 -0.1832,0.606 -0.2691,0.821 -0.084,0.177 -0.1332,0.272 -0.1332,0.272 l -1.0403,1.873 0.0375,-0.824 c -0.0492,0.169 -0.1066,0.316 -0.1566,0.442 l -1.0117,2.322 -0.0918,-1.535 c -0.0578,0.122 -0.1203,0.236 -0.1801,0.345 l -0.0973,0.181 c -0.1051,0.205 -0.2308,0.361 -0.323,0.475 l -1.3477,1.865 0.1688,-1.421 c -0.0754,0.131 -0.1594,0.252 -0.2383,0.365 -0.0422,0.06 -0.0828,0.118 -0.1203,0.178 -0.0903,0.14 -0.191,0.255 -0.275,0.351 l -0.1008,0.116 c -0.0563,0.059 -0.0871,0.096 -0.0922,0.103 l -0.4008,0.52 c -0.1519,0.299 -0.284,0.528 -0.4207,0.729 -0.0961,0.14 -0.2023,0.268 -0.3031,0.389 -0.0734,0.089 -0.1445,0.172 -0.2098,0.269 l -0.1289,0.174 c -0.0687,0.092 -0.1308,0.169 -0.1953,0.284 l -1.0973,1.862 0.068,-1.978 c 0,0 0.0027,-0.09 0.0246,-0.298 -0.0988,0.129 -0.1984,0.251 -0.298,0.361 -0.1328,0.158 -0.2781,0.295 -0.4133,0.421 -0.0609,0.057 -0.1195,0.112 -0.1746,0.167 -0.1039,0.106 -0.2067,0.194 -0.2945,0.269 -0.0477,0.041 -0.0903,0.077 -0.1536,0.137 l -1.9046,1.742 0.9667,-2.189 0.0868,-0.212 c 0.0062,-0.012 0.0125,-0.027 0.0187,-0.042 -0.0543,0.054 -0.1097,0.106 -0.164,0.157 -0.0707,0.066 -0.1387,0.126 -0.2118,0.214 l -0.1343,0.138 c -0.0434,0.043 -0.084,0.079 -0.1465,0.162 l -1.0457,1.356 0.0633,-1.576 0.0269,-0.406 c 0.0024,-0.041 0.0055,-0.084 0.0098,-0.128 -0.0207,0.017 -0.041,0.031 -0.0621,0.047 -0.1332,0.104 -0.2778,0.202 -0.445,0.3 -0.1101,0.059 -0.2246,0.114 -0.339,0.169 l -0.1367,0.063 c -0.3039,0.118 -0.6047,0.232 -0.8778,0.313 -0.1293,0.045 -0.2617,0.077 -0.4515,0.123 -0.1168,0.029 -0.2254,0.058 -0.3313,0.094 l -0.3308,0.111 c -0.059,0.021 -0.1118,0.038 -0.1934,0.071 l -2.3305,0.772 1.6254,-1.542 0.3184,-0.288 c 0.0793,-0.068 0.1715,-0.147 0.2836,-0.248 0.082,-0.07 0.1675,-0.151 0.2629,-0.243 0.107,-0.105 0.2195,-0.214 0.3296,-0.301 0.1102,-0.095 0.2262,-0.189 0.345,-0.282 -0.2067,-0.056 -0.4047,-0.113 -0.5871,-0.172 l -0.3188,-0.101 c -0.1527,-0.05 -0.2957,-0.098 -0.4683,-0.135 -0.1594,-0.033 -0.3391,-0.07 -0.4446,-0.07 H 33.009 c -0.0879,-0.008 -0.1445,0 -0.1543,0 l -2.3547,0.208 2.1516,-1.19 c 0.041,-0.022 0.0925,-0.05 0.155,-0.078 l 0.0977,-0.038 c 0.1562,-0.06 0.3652,-0.138 0.6176,-0.183 0.0988,-0.017 0.2004,-0.034 0.3039,-0.049 l 0.7445,-0.459 c 0.0891,-0.048 0.1992,-0.102 0.3285,-0.161 0.0664,-0.031 0.1383,-0.064 0.2379,-0.103 0.0766,-0.026 0.1582,-0.053 0.334,-0.101 0.1848,-0.052 0.3988,-0.111 0.6266,-0.161 l -0.8977,-0.097 -0.5023,0.237 0.305,-0.258 -0.0515,-0.006 -0.275,0.071 0.1285,-0.086 -0.7633,-0.083 1.3508,-0.313 0.5043,-0.339 1.818,-1.539 c 0.0527,-0.045 0.1195,-0.104 0.2035,-0.166 0.1012,-0.074 0.2262,-0.16 0.3844,-0.267 l 0.1039,-0.07 c 0.13,-0.086 0.2738,-0.181 0.4281,-0.255 l 0.1508,-0.076 c 0.0789,-0.04 0.1597,-0.081 0.2433,-0.122 l 0.1512,-0.434 -4.1238,1.082 -1.7164,1.098 0.6714,-0.999 -0.1187,0.055 0.1902,-0.162 0.291,-0.433 c -0.0664,0.05 -0.132,0.097 -0.1968,0.143 -0.177,0.13 -0.3543,0.245 -0.5383,0.361 l -0.2117,0.128 c -0.0852,0.052 -0.1672,0.103 -0.2321,0.139 -0.2082,0.128 -0.4078,0.219 -0.5722,0.292 l -2.0344,0.878 c -0.1,0.054 -0.1914,0.101 -0.2711,0.142 l -0.0918,0.046 c -0.0851,0.036 -0.1496,0.066 -0.2644,0.121 l -3.5543,1.72 0.3121,-0.264 -0.1762,0.125 c -0.2109,0.195 -0.4066,0.339 -0.5453,0.442 l -3.2801,1.883 2.377,-2.503 0.0714,-0.076 0.2305,0.223 -0.1656,-0.306 c 0.1078,-0.126 0.25,-0.393 0.3668,-0.621 0.1012,-0.188 0.1855,-0.412 0.2777,-0.652 l 0.1524,-0.387 c 0.0082,-0.021 0.0168,-0.042 0.025,-0.063 -0.1586,0.184 -0.3286,0.36 -0.495,0.533 l -0.3582,0.352 c -0.2621,0.246 -0.523,0.489 -0.7828,0.688 -0.1777,0.145 -0.3543,0.279 -0.5215,0.405 -0.1269,0.097 -0.2472,0.189 -0.3738,0.289 l -0.4308,0.332 c -0.0598,0.047 -0.1141,0.088 -0.1762,0.141 l -2.8258,2.364 1.8672,-2.844 c 0.0031,-0.004 0.0578,-0.088 0.1582,-0.253 l 0.0703,-0.115 c -0.0758,0.063 -0.1512,0.124 -0.2262,0.181 -0.1875,0.15 -0.3793,0.285 -0.555,0.397 -0.0809,0.056 -0.1668,0.103 -0.3036,0.177 l -0.2461,0.132 c -0.2851,0.163 -0.5996,0.29 -1.0195,0.394 l -2.8492,0.174 2.3445,-1.126 0.1942,-0.111 0.0586,0.085 0.082,-0.007 -0.0531,-0.125 c -0.1434,0.058 -0.284,0.113 -0.4219,0.164 -0.207,0.082 -0.4113,0.159 -0.6063,0.231 -0.2355,0.088 -0.4586,0.171 -0.6711,0.26 l -0.1828,0.07 c -0.2816,0.108 -0.5207,0.199 -0.7093,0.286 -0.2032,0.084 -0.3192,0.137 -0.3235,0.139 l -3.2168,1.464 2.684,-2.299 c 0.0031,-0.003 0.1004,-0.086 0.2902,-0.257 0.0864,-0.069 0.1879,-0.158 0.3157,-0.271 l 0.13,-0.111 c 0.0946,-0.08 0.1954,-0.166 0.3102,-0.258 l 0.2379,-0.184 c 0.2687,-0.211 0.5668,-0.445 0.8883,-0.663 0.4492,-0.317 0.948,-0.61 1.3957,-0.869 0.2054,-0.11 0.4004,-0.21 0.5844,-0.302 -0.1848,-0.044 -0.3618,-0.098 -0.5278,-0.15 -0.1195,-0.036 -0.2324,-0.071 -0.3445,-0.099 -0.1617,-0.042 -0.3082,-0.096 -0.4359,-0.143 -0.075,-0.028 -0.1399,-0.054 -0.2512,-0.084 -0.1297,-0.047 -0.2086,-0.07 -0.2156,-0.073 l -1.9149,-0.565 1.9547,-0.405 c 0.0074,-10e-4 0.0875,-0.017 0.2641,-0.063 l -2.7746,-1.182 3.4839,0.386 c 0.0317,0.003 0.0719,0.009 0.1871,0.01 0.1457,0.011 0.4329,-0.017 0.6946,-0.044 0.1437,-0.013 0.2992,-0.043 0.4554,-0.076 0.1915,-0.042 0.393,-0.085 0.5915,-0.119 0.414,-0.082 0.8609,-0.156 1.3453,-0.214 l 0.1699,-0.01 c -0.0535,-0.032 -0.1047,-0.062 -0.1535,-0.091 -0.0864,-0.056 -0.1528,-0.107 -0.2016,-0.147 l -1.9699,-1.598 2.4176,0.684 c 0.0332,0.01 0.08,0.024 0.1898,0.042 0.118,0.031 0.2813,0.037 0.4715,0.05 l 0.2062,0.015 c 0.1985,0.017 0.4204,0.012 0.6598,0.007 l 0.959,-0.012 c -0.1703,-0.039 -0.3336,-0.074 -0.4941,-0.104 l -0.5063,-0.103 c -0.1355,-0.029 -0.2539,-0.055 -0.3723,-0.072 l -4.5172,-0.856 4.2461,-0.198 0.7551,-0.023 c 0.1653,-0.003 0.3516,-0.003 0.5473,0.009 l 0.598,0.027 c 0.2219,0.005 0.4547,0.016 0.693,0.031 0.1559,0.009 0.3145,0.019 0.4754,0.031 -0.1277,-0.046 -0.2024,-0.069 -0.2094,-0.071 l -4.0629,-1.242 4.3371,0.27 0.6957,-0.338 -1.0082,-0.359 -0.4859,-0.043 c -0.3328,0.036 -0.6098,0.044 -0.8563,0.045 -0.1714,-0.005 -0.3378,-0.026 -0.4953,-0.044 -0.1136,-0.015 -0.2211,-0.028 -0.3336,-0.031 l -0.2285,-0.014 c -0.1105,-0.008 -0.2047,-0.017 -0.334,-0.01 l -2.1507,0.093 1.6882,-1.02 c 0,0 0.0778,-0.046 0.2649,-0.141 h 4e-4 c -0.1614,-0.014 -0.3184,-0.031 -0.4653,-0.055 -0.2046,-0.026 -0.4,-0.074 -0.5796,-0.119 -0.0805,-0.02 -0.1571,-0.039 -0.2332,-0.055 -0.1469,-0.031 -0.2786,-0.07 -0.3915,-0.103 -0.0589,-0.018 -0.1105,-0.033 -0.1925,-0.054 l -2.5387,-0.652 2.4062,-0.378 0.2223,-0.041 c 0.0149,-0.002 0.0313,-0.005 0.0484,-0.008 -0.0761,-0.016 -0.1503,-0.035 -0.2234,-0.053 -0.0933,-0.023 -0.1808,-0.048 -0.2918,-0.061 l -0.1926,-0.039 c -0.0586,-0.012 -0.1097,-0.026 -0.2125,-0.034 l -1.6867,-0.17 1.3418,-0.778 0.3512,-0.194 c 0.0355,-0.021 0.0734,-0.042 0.1121,-0.062 -0.0242,-0.008 -0.0492,-0.017 -0.0738,-0.027 -0.159,-0.056 -0.3203,-0.124 -0.4903,-0.21 -0.1199,-0.065 -0.2379,-0.138 -0.3554,-0.211 l -0.0981,-0.062 c -0.264,-0.193 -0.5238,-0.383 -0.7414,-0.569 -0.1094,-0.087 -0.2098,-0.181 -0.3476,-0.312 -0.0872,-0.082 -0.1711,-0.158 -0.3004,-0.263 l -0.2043,-0.161 c -0.0618,-0.048 -0.1145,-0.09 -0.1918,-0.146 l -1.9352,-1.548 2.2008,0.54 0.7738,0.214 c 0.1039,0.031 0.2203,0.058 0.3531,0.089 0.1454,0.033 0.2973,0.069 0.4274,0.114 0.1398,0.04 0.2816,0.087 0.4242,0.136 -0.0648,-0.204 -0.1242,-0.401 -0.1738,-0.587 l -0.0875,-0.32 c -0.041,-0.155 -0.0785,-0.302 -0.132,-0.443 -0.0625,-0.162 -0.1329,-0.347 -0.1946,-0.442 -0.0429,-0.073 -0.0758,-0.118 -0.0812,-0.125 l -1.4836,-1.881 2.1945,1.175 c 0.0414,0.023 0.0938,0.051 0.2297,0.145 0.1355,0.098 0.3172,0.232 0.4965,0.425 0.0613,0.066 0.1304,0.141 0.2031,0.224 l 0.7945,0.381 c 0.0887,0.049 0.1922,0.112 0.3407,0.207 0.0543,0.034 0.1121,0.071 0.1816,0.122 0.0664,0.051 0.1344,0.107 0.2672,0.225 0.1457,0.13 0.3144,0.28 0.4824,0.447 l -0.3918,-0.782 -0.341,-0.21 0.2758,0.078 -0.0817,-0.162 -0.1605,-0.151 0.109,0.047 -0.1395,-0.278 -2.3742,-0.923 3.9977,0.451 c 0.0418,0.005 0.0933,0.013 0.2039,0.017 0.0449,0.006 0.0957,0.005 0.1304,0.006 l 0.3953,-0.027 c -0.0484,-0.009 -0.0964,-0.017 -0.1441,-0.026 -0.4488,-0.075 -0.8703,-0.176 -1.2504,-0.267 l -0.3246,-0.076 c -0.3191,-0.074 -0.598,-0.163 -0.8285,-0.236 l -4.8793,-1.591 4.3949,0.39 c 0.0059,0.001 0.1504,0.013 0.4203,0.026 0.1469,0.013 0.3317,0.02 0.545,0.028 l 0.371,0.016 c -0.0972,-0.013 -0.1929,-0.022 -0.2871,-0.033 l -0.3144,-0.035 c -0.2133,-0.024 -0.4164,-0.045 -0.6067,-0.063 -0.2339,-0.022 -0.4476,-0.047 -0.6332,-0.067 l -0.7867,-0.087 0.0172,-0.996 0.6445,-0.038 c 0.2266,-0.01 0.5082,-0.022 0.82,-0.021 l 0.9839,0.011 c 0.1469,0.003 0.2997,0.007 0.4598,0.002 0.0742,-0.001 0.1484,-0.003 0.2238,-0.004 l -0.0468,-0.011 c -0.4465,-0.106 -0.8895,-0.212 -1.2981,-0.336 -0.3012,-0.087 -0.5875,-0.185 -0.8527,-0.277 -0.159,-0.055 -0.3098,-0.106 -0.4559,-0.152 -0.2582,-0.084 -0.4844,-0.174 -0.6742,-0.249 l -0.2766,-0.109 c -0.1968,-0.086 -0.3132,-0.131 -0.3187,-0.132 l -3.4699,-1.343 3.7015,0.379 c 0.0059,0 0.1293,0.012 0.3692,0.027 0.0902,0.01 0.1972,0.018 0.3176,0.025 0.1882,0.014 0.4058,0.03 0.648,0.058 0.0617,0.008 0.1246,0.015 0.1895,0.021 -0.1395,-0.061 -0.2813,-0.127 -0.4247,-0.197 -0.1992,-0.094 -0.3875,-0.193 -0.5652,-0.287 -0.1762,-0.093 -0.3418,-0.18 -0.5141,-0.258 l -0.2226,-0.111 c -0.1918,-0.097 -0.3551,-0.182 -0.5215,-0.24 -0.0746,-0.033 -0.1344,-0.055 -0.2406,-0.089 l -3.0102,-0.863 3.2352,-0.121 c 0.0605,0 0.1418,-0.003 0.2695,-0.003 l 0.1535,0.008 c 0.1055,0.005 0.2246,0.011 0.3563,0.023 -0.2,-0.166 -0.3864,-0.331 -0.5602,-0.486 -0.1258,-0.112 -0.2449,-0.218 -0.3609,-0.316 -0.175,-0.148 -0.325,-0.294 -0.4524,-0.418 -0.0722,-0.069 -0.1355,-0.132 -0.2132,-0.201 l -2.5297,-2.436 3.1781,1.547 c 0.0766,0.041 0.1707,0.084 0.2781,0.134 0.1485,0.068 0.3196,0.148 0.5039,0.244 0.1063,0.056 0.2207,0.112 0.3414,0.169 -0.2722,-0.211 -0.5582,-0.443 -0.8164,-0.692 -0.307,-0.297 -0.598,-0.635 -0.8648,-1.006 -0.0606,-0.081 -0.1176,-0.16 -0.1766,-0.256 l -1.5195,-3.489 1.9187,2.055 0.8153,0.75 c 0.1687,0.153 0.3867,0.29 0.616,0.439 l 0.0391,0.025 c -0.0633,-0.071 -0.1266,-0.144 -0.1891,-0.22 -0.0805,-0.101 -0.1586,-0.207 -0.2309,-0.308 l -0.2043,-0.296 c -0.139,-0.202 -0.2625,-0.411 -0.3718,-0.61 -0.1579,-0.276 -0.2911,-0.551 -0.4129,-0.804 l -0.1418,-0.29 c -0.0899,-0.176 -0.1582,-0.347 -0.2332,-0.553 l -1.3836,-3.689 2.0758,2.686 c 0.0293,0.038 0.0734,0.093 0.1519,0.186 0.0527,0.068 0.1242,0.148 0.2078,0.238 l 0.3313,0.365 c -0.0836,-0.44 -0.1481,-0.83 -0.1891,-1.206 -0.0336,-0.239 -0.0434,-0.476 -0.0519,-0.704 l -0.0227,-0.793 c -0.0016,-0.293 0.0105,-0.553 0.0211,-0.767 l 0.0344,-0.644 0.9961,-0.04 c 0.0015,0.014 0.0168,0.129 0.0656,0.35 0.0336,0.204 0.1191,0.482 0.2176,0.812 l 0.0297,0.1 c 0.0503,0.186 0.1148,0.387 0.189,0.602 l 0.077,0.221 c 0.0574,0.161 0.116,0.327 0.1605,0.484 0.0055,0.017 0.0106,0.034 0.0164,0.051 0.009,-0.031 0.0176,-0.061 0.0262,-0.091 l 0.0363,-0.129 c 0.0871,-0.306 0.2082,-0.549 0.2965,-0.726 l 0.0551,-0.112 c 0.0367,-0.071 0.0715,-0.129 0.0996,-0.175 l 0.2723,0.101 -0.2086,-0.211 1.3851,-2.294 -0.4804,2.747 c -0.0055,0.031 -0.0133,0.069 -0.0223,0.182 -0.0172,0.096 -0.0102,0.223 -0.0067,0.368 l 0.0036,0.322 c -0.002,0.171 0.0171,0.362 0.0355,0.563 0.0149,0.155 0.0293,0.317 0.0375,0.472 l 0.0895,1.249 c 0.014,0.334 0.0211,0.675 0.014,0.992 0.041,-0.299 0.0832,-0.592 0.1297,-0.871 0.0352,-0.226 0.0758,-0.443 0.1141,-0.652 0.0441,-0.239 0.0859,-0.463 0.1136,-0.677 0.029,-0.199 0.0614,-0.382 0.0903,-0.545 0.0265,-0.151 0.0508,-0.283 0.0672,-0.42 l 0.441,-3.858 0.6172,3.59 0.0843,0.546 c 0.0297,0.208 0.0657,0.458 0.0836,0.741 l 0.0297,0.401 c 0.0239,0.307 0.0496,0.639 0.0571,0.982 0.0035,0.106 0.0054,0.213 0.0058,0.323 l 0.2086,0.026 -0.1918,-0.175 1.2707,-2.681 -0.3324,3.052 c -0.0031,0.032 -0.0086,0.075 -0.0094,0.172 -0.0101,0.145 -8e-4,0.342 0.0086,0.572 l 0.0059,0.157 c 0.0043,0.214 0.0371,0.454 0.0707,0.71 l 0.0394,0.313 c 0.0215,0.151 0.0403,0.306 0.0578,0.465 0.0653,-0.154 0.1325,-0.289 0.1895,-0.403 l 1.6094,-2.807 -0.486,2.853 -0.0218,0.161 c -0.0219,0.122 -0.0235,0.292 -0.0289,0.491 l -4e-4,0.019 1.7605,-1.966 -0.9988,2.628 -0.0293,0.11 c -0.0289,0.098 -0.0184,0.388 -0.0121,0.532 0.0051,0.193 0.0578,0.444 0.1133,0.709 l 0.0195,0.094 0.0027,-0.012 c 0.0231,-0.093 0.0449,-0.181 0.0801,-0.295 l 0.0641,-0.194 c 0.0457,-0.139 0.0886,-0.258 0.1293,-0.367 l 1.2832,-3.223 -0.227,3.492 c -0.0101,0.082 -0.0125,0.184 -0.0172,0.39 l -0.009,0.386 c -0.0117,0.216 0,0.46 0.0118,0.717 l 0.0285,0.635 c 0.014,0.273 0.0285,0.555 0.0472,0.848 0.0149,-0.176 0.0332,-0.353 0.059,-0.526 0.0656,-0.495 0.1844,-0.958 0.2602,-1.252 0.0691,-0.303 0.1761,-0.553 0.2539,-0.735 l 0.075,-0.18 c 0.0816,-0.175 0.1246,-0.277 0.1265,-0.282 l 1.4579,-3.441 -0.502,3.704 c -8e-4,0.005 -0.0156,0.115 -0.0402,0.351 -0.0102,0.049 -0.0086,0.169 -0.009,0.342 l -4e-4,0.026 1.375,-4.088 -0.466,4.483 c -4e-4,0.009 -0.0113,0.113 -0.0192,0.315 l -0.007,0.112 0.0234,0.485 c 0.0086,0.062 0.0168,0.124 0.0204,0.197 0.0058,0.218 0.0578,0.488 0.1125,0.774 l 0.1492,0.82 c 0.0465,0.264 0.0941,0.535 0.1515,0.819 0.009,0.051 0.0176,0.103 0.0254,0.155 l 0.0164,-0.565 c 0.0039,-0.165 0.0075,-0.324 0.0075,-0.447 -0.0141,-0.316 -0.011,-0.619 -8e-4,-0.801 0.0031,-0.124 0.0164,-0.219 0.0469,-0.378 l 0.8281,-3.842 0.1597,4.001 c 0.0016,0.031 0.0039,0.078 0.0461,0.231 l 0.0379,0.093 c 0.0473,0.099 0.0946,0.21 0.1496,0.373 0.0102,-0.015 0.0203,-0.029 0.0317,-0.046 l 2.2082,-3.174 -1.318,3.597 0.0059,0.113 c 0.0031,0.073 0.0582,0.254 0.1074,0.413 l 0.0453,0.149 c 0.016,0.057 0.0371,0.117 0.066,0.2 l 0.0293,0.086 0.0785,-0.29 c 0.0235,-0.077 0.0489,-0.145 0.0653,-0.173 l 0.3074,0.047 -0.2676,-0.155 1.2348,-3.425 -0.2699,3.699 c -0.002,0.028 -0.0047,0.069 0.0019,0.16 l 0.1035,0.614 c 0.0086,0.047 0.0199,0.094 0.0321,0.143 -0.0106,-0.287 0.0109,-0.541 0.032,-0.779 l 0.4418,-2.866 0.6078,2.623 c 0.009,0.037 0.0195,0.085 0.0523,0.189 0.0258,0.113 0.0774,0.255 0.1352,0.42 l 0.1016,0.294 c 0.0621,0.193 0.1515,0.401 0.2461,0.624 l 0.1542,0.368 c 0.1469,0.35 0.293,0.725 0.4415,1.105 l 0.0074,0.02 c -0.0078,-0.079 -0.0149,-0.156 -0.0211,-0.232 -0.0184,-0.182 -0.0309,-0.361 -0.0422,-0.532 -0.0141,-0.198 -0.0262,-0.385 -0.05,-0.559 -0.0203,-0.166 -0.032,-0.322 -0.0418,-0.46 -0.009,-0.119 -0.0152,-0.223 -0.0344,-0.34 -0.0172,-0.172 -0.032,-0.272 -0.0332,-0.278 l -0.4004,-2.667 1.5008,2.637 c 0.0262,0.054 0.0609,0.113 0.0992,0.181 0.0891,0.156 0.1942,0.342 0.286,0.563 l 0.1132,0.268 c 0,0 0,0 0,0.001 0.0161,-0.097 0.0336,-0.187 0.0516,-0.268 l 0.7465,-3.322 0.1363,0.97 1.593,1.874 c 0.048,0.057 0.1148,0.138 0.1801,0.25 0.1679,0.291 0.2918,0.592 0.3683,0.895 0.0934,0.37 0.1891,0.768 0.2395,1.194 0.0012,0.007 0.0015,0.012 0.0023,0.018 0.0176,-0.022 0.0364,-0.045 0.0547,-0.066 l 0.4527,-0.414 c 0.377,-0.267 0.8,-0.426 1.2422,-0.473 0.3121,-0.043 0.6188,-0.021 0.8657,0.053 0.0257,-0.799 0.0402,-1.598 0.0543,-2.397 l 0.0211,-1.107 c 0.0476,-2.337 0.2343,-4.7 0.4148,-6.985 0.0758,-0.963 0.1519,-1.925 0.218,-2.888 0.2406,-3.495 0.4519,-6.651 0.607,-9.8302 -0.0406,-0.15 -0.0332,-0.3078 0.0215,-0.4519 0.1551,-3.3109 0.2246,-6.2301 0.2121,-8.9231 l -0.0301,-5.2019 c -0.0547,-8.9977 -0.1558,-25.693 -0.118,-28.5738 -0.0195,-0.1082 -0.0171,-0.2192 0.0051,-0.3262 l 0.0039,-0.2957 c 0.0297,-1.302 1.1492,-2.007 2.2395,-2.0301 0.0183,-0.0012 0.0363,-0.0012 0.0551,-0.0012 1.0199,0 2.1336,0.5922 2.2195,1.9121 0.1125,1.7211 0.1707,15.9821 0.2051,24.502 0.0117,2.9402 0.0211,5.1629 0.0285,5.891 l 0.0465,0.1211 -0.0438,0.109 0.0289,2.9961 c 0.0199,2.2398 -0.0398,4.625 -0.189,7.4976 0.0164,0.0512 0.025,0.1051 0.0265,0.1602 l -0.0344,0.348 -0.0199,0.0141 c -0.0301,0.5617 -0.0625,1.1238 -0.0972,1.6848 -0.2215,3.6141 -0.695,7.1731 -1.0821,9.8721 -0.1129,0.784 -0.2211,1.57 -0.3289,2.357 -0.2238,1.623 -0.4472,3.248 -0.709,4.865 0.0164,0.08 0.0184,0.164 0.0039,0.245 -0.0136,0.078 -0.041,0.151 -0.0804,0.217 -0.1164,0.697 -0.2391,1.393 -0.3735,2.084 -0.1328,0.683 -0.2531,1.364 -0.3679,2.047 0.009,0.108 -0.0098,0.219 -0.0543,0.318 -0.1266,0.765 -0.2461,1.531 -0.3625,2.3 0.2668,-0.025 0.5179,0.005 0.7101,0.076 0.2207,0.034 0.4289,0.104 0.6141,0.202 0.1902,-0.259 0.3715,-0.523 0.5496,-0.782 l 0.1801,-0.261 c 0.1234,-0.194 0.2554,-0.381 0.3828,-0.563 0.1875,-0.266 0.3644,-0.518 0.4918,-0.768 l 0.5566,-1.015 c 0.1137,-0.212 0.1696,-0.342 0.1742,-0.355 l 1.6653,-4.017 -0.7098,4.291 c -0.0015,0.012 -0.0238,0.152 -0.0418,0.413 -0.0152,0.146 -0.0371,0.324 -0.0668,0.555 -0.0254,0.208 -0.0554,0.442 -0.1113,0.684 -0.0262,0.116 -0.0504,0.237 -0.0773,0.381 l -0.0903,0.405 c -0.0328,0.153 -0.0676,0.31 -0.1097,0.451 -0.0157,0.061 -0.0329,0.122 -0.052,0.183 0.0215,-0.022 0.043,-0.044 0.0645,-0.066 l 0.1214,-0.125 c 0.3356,-0.365 0.6559,-0.717 0.8903,-1.046 0.2156,-0.295 0.4383,-0.599 0.5578,-0.824 0.0476,-0.078 0.0824,-0.143 0.125,-0.222 l 1.8187,-3.424 -0.989,4.341 c -0.05,0.221 -0.1106,0.49 -0.2043,0.792 -0.0782,0.241 -0.1664,0.516 -0.277,0.808 0.1586,-0.178 0.3156,-0.351 0.466,-0.514 0.134,-0.152 0.268,-0.296 0.3973,-0.437 l 0.1645,-0.179 c 0.1421,-0.153 0.271,-0.304 0.3933,-0.448 l 0.236,-0.282 c 0.2101,-0.253 0.3917,-0.47 0.5101,-0.645 0.0645,-0.094 0.1078,-0.173 0.1391,-0.23 l 1.85,-3.321 -0.9969,4.081 c -0.0676,0.278 -0.1606,0.659 -0.3359,1.099 -0.0411,0.1 -0.086,0.208 -0.1348,0.324 l 0.4539,-0.578 c 0.1687,-0.217 0.3352,-0.428 0.4875,-0.618 l 0.1129,-0.147 c 0.1043,-0.136 0.2051,-0.266 0.307,-0.422 l 0.2305,-0.308 c 0.157,-0.208 0.293,-0.385 0.3937,-0.549 0.1239,-0.183 0.1868,-0.295 0.1926,-0.307 l 0.9164,0.389 c -0.0039,0.011 -0.041,0.135 -0.089,0.367 l -0.1082,0.452 c -0.0254,0.115 -0.0532,0.238 -0.0872,0.371 0.0387,-0.081 0.0774,-0.162 0.1161,-0.244 0.0808,-0.171 0.1621,-0.342 0.2414,-0.498 0.1906,-0.401 0.4011,-0.777 0.5879,-1.11 l 0.0871,-0.155 c 0.0867,-0.163 0.1898,-0.304 0.2851,-0.433 l 0.0754,-0.102 c 0.1063,-0.143 0.1977,-0.265 0.2774,-0.363 0.0605,-0.075 0.1175,-0.135 0.2015,-0.224 l 1.4656,-1.528 0.4657,-0.615 0.3789,-1.375 0.0551,0.799 0.0453,-0.059 -0.0399,0.134 0.0114,0.162 0.2585,-0.27 -0.246,0.455 0.0582,0.838 c 0.0636,-0.243 0.141,-0.48 0.2207,-0.723 0.0277,-0.086 0.0586,-0.168 0.0976,-0.265 0.0313,-0.07 0.0653,-0.137 0.1035,-0.21 0.0649,-0.126 0.1227,-0.232 0.191,-0.347 l 0.0766,-0.112 0.2094,0.143 0.0879,0.003 -0.2215,-0.26 0.3191,-0.442 c 0.0219,-0.117 0.0457,-0.229 0.0696,-0.335 0.0554,-0.248 0.1429,-0.452 0.2097,-0.605 l 0.043,-0.098 c 0.0309,-0.061 0.0613,-0.112 0.1195,-0.211 l 1.309,-2.47 -0.3715,2.774 c -0.0019,0.014 -0.0078,0.069 -0.0086,0.187 -0.005,0.081 0.027,0.276 0.0571,0.462 0.023,0.133 0.064,0.277 0.1062,0.431 l 0.0844,0.313 c 0.0519,0.191 0.1004,0.391 0.1488,0.607 0.0961,-0.113 0.1918,-0.222 0.2836,-0.318 0.0985,-0.113 0.2055,-0.214 0.334,-0.335 0.0914,-0.086 0.1758,-0.167 0.2602,-0.257 0.0968,-0.098 0.18,-0.188 0.2515,-0.264 l 1.918,-1.878 -1.0891,2.837 c -0.0375,0.097 -0.0711,0.204 -0.1281,0.398 -0.0352,0.121 -0.073,0.248 -0.1141,0.347 -0.1,0.289 -0.2285,0.585 -0.3761,0.918 l -0.052,0.098 c -0.0594,0.112 -0.1195,0.226 -0.1933,0.346 -0.0954,0.147 -0.1997,0.287 -0.2989,0.403 -0.0199,0.025 -0.0402,0.05 -0.0609,0.073 0.0476,-0.003 0.098,-0.004 0.1527,-0.005 l 0.2164,-0.009 1.727,0.002 -1.0957,0.78 -0.002,0.456 0.984,-0.388 0.3383,-1.356 0.1027,1.183 0.0938,-0.037 -0.0891,0.089 0.1516,1.747 c 8e-4,0.01 0.0109,0.117 0.0465,0.345 0.0054,0.079 0.0265,0.174 0.048,0.282 0.0352,0.176 0.0746,0.377 0.0949,0.596 0.0114,0.12 0.0282,0.248 0.0477,0.382 0.0367,-0.17 0.0754,-0.336 0.1183,-0.497 0.0579,-0.241 0.1309,-0.472 0.1993,-0.689 0.0476,-0.152 0.0937,-0.298 0.1296,-0.437 0.0586,-0.22 0.134,-0.416 0.1985,-0.583 0.0316,-0.083 0.0609,-0.157 0.1027,-0.281 0.0238,-0.051 0.0379,-0.096 0.0485,-0.13 l 0.7421,-2.065 0.2821,2.158 c 0.0047,0.035 0.0101,0.081 0.0344,0.199 0.0078,0.067 0.0226,0.144 0.0386,0.23 0.0043,0.025 0.0094,0.052 0.0141,0.079 0.041,-0.373 0.0926,-0.733 0.1422,-1.036 0.0355,-0.244 0.0875,-0.459 0.1308,-0.637 l 0.0532,-0.23 c 0.0214,-0.085 0.0425,-0.155 0.0589,-0.208 l 0.1395,0.043 0.1535,-0.005 -0.2586,-0.154 0.8606,-2.713 0.1214,2.946 c 0.002,0.043 0.004,0.098 0.0145,0.217 0.002,0.145 0.048,0.345 0.0973,0.582 l 0.0019,0.009 c 0.0395,-0.489 0.0805,-0.98 0.1528,-1.434 0.05,-0.347 0.1214,-0.675 0.1871,-0.973 l 0.0668,-0.31 c 0.0394,-0.203 0.0921,-0.388 0.1414,-0.545 l 1.0101,-2.964 0.2239,2.74 c 0.0011,0.093 0.0144,0.207 0.0328,0.389 0.0129,0.128 0.0265,0.267 0.0379,0.425 0.0304,-0.135 0.0636,-0.268 0.1007,-0.397 0.1078,-0.392 0.2551,-0.75 0.3789,-1.052 0.0676,-0.168 0.1454,-0.318 0.2497,-0.499 l 0.1507,-0.26 c 0.0832,-0.124 0.1254,-0.197 0.1305,-0.206 l 1.2516,-2.2 -0.3203,2.512 c -0.0016,0.012 -0.011,0.094 -0.0192,0.282 -0.0094,0.07 -0.009,0.157 -0.0098,0.256 l -0.0082,0.435 c -3e-4,0.009 -0.0011,0.02 -0.0015,0.031 0.0133,-0.027 0.0269,-0.051 0.0398,-0.076 l 0.0832,-0.153 c 0.2278,-0.346 0.4629,-0.704 0.7317,-0.995 0.1043,-0.129 0.2246,-0.247 0.3386,-0.357 l 0.1036,-0.1 c 0.1296,-0.115 0.2492,-0.221 0.357,-0.323 0.2301,-0.217 0.4648,-0.356 0.6199,-0.449 l 0.1106,-0.063 c 0.1414,-0.066 0.2171,-0.105 0.2234,-0.108 l 1.8226,-0.954 -1.1812,1.684 c -0.0063,0.008 -0.0527,0.077 -0.134,0.214" /><path
       inkscape:connector-curvature="0"
       id="path154"
       style="fill:#231311;fill-opacity:1;fill-rule:nonzero;stroke:none;stroke-width:0.1"
       d="m 131.569,179.902 -0.122,-0.043 c 0.084,0.077 0.167,0.155 0.251,0.238 -0.035,-0.057 -0.073,-0.115 -0.129,-0.195 z m -5.8,-14.942 c 0.038,-0.077 0.074,-0.153 0.108,-0.229 -0.004,0.002 -0.008,0.004 -0.012,0.006 -0.124,0.064 -0.254,0.122 -0.389,0.175 -0.004,0.022 -0.008,0.043 -0.012,0.067 z m 1.911,0.141 c 0.121,-0.24 0.254,-0.464 0.38,-0.676 0.089,-0.15 0.174,-0.292 0.247,-0.431 0.116,-0.217 0.243,-0.404 0.352,-0.562 0.055,-0.081 0.105,-0.153 0.177,-0.269 0.038,-0.05 0.064,-0.093 0.085,-0.127 l 0.176,0.108 0.111,0.011 -0.223,-0.224 0.156,-0.258 c -0.051,0.034 -0.103,0.069 -0.157,0.102 -0.264,0.162 -0.564,0.317 -0.977,0.5 l -0.477,0.345 -0.029,0.195 c -0.002,0.011 -0.018,0.128 -0.037,0.375 -0.014,0.088 -0.016,0.197 -0.02,0.319 -0.007,0.192 -0.015,0.412 -0.048,0.644 -0.024,0.175 -0.04,0.366 -0.057,0.567 -0.003,0.03 -0.006,0.06 -0.008,0.091 0.113,-0.247 0.228,-0.487 0.349,-0.71 z m 1.444,7.21 c 0.081,0 0.148,-0.01 0.295,-0.029 l 0.693,-0.078 0.519,-0.189 c -0.096,0.017 -0.19,0.033 -0.283,0.046 l -0.868,0.167 c -0.148,0.031 -0.297,0.06 -0.483,0.093 0.044,-0.002 0.086,-0.006 0.127,-0.01 z m 1.643,-10.297 c 0.042,-0.081 0.08,-0.148 0.11,-0.199 l 0.271,0.09 -0.205,-0.205 0.16,-0.268 -0.532,0.275 c -0.034,0.018 -0.082,0.045 -0.191,0.109 -0.089,0.042 -0.196,0.119 -0.323,0.206 l -0.017,0.011 -0.138,1.328 c -0.004,0.04 -0.009,0.091 -0.012,0.218 -0.009,0.071 -0.013,0.157 -0.017,0.252 -0.006,0.122 -0.013,0.257 -0.027,0.401 l 0.054,-0.152 c 0.15,-0.433 0.314,-0.854 0.458,-1.201 0.098,-0.246 0.205,-0.458 0.294,-0.634 0.04,-0.078 0.075,-0.147 0.115,-0.231 z m -6.95,8.579 c 0.03,-0.009 0.058,-0.018 0.087,-0.027 0.008,-0.062 0.017,-0.126 0.029,-0.191 -0.038,0.074 -0.076,0.147 -0.116,0.218 z m -3.912,-0.015 0.014,0.004 c 0.005,-0.017 0.011,-0.034 0.016,-0.052 -0.01,0.016 -0.02,0.031 -0.03,0.048 z m -0.267,0.403 0.119,-0.012 c 0.018,-0.043 0.038,-0.087 0.061,-0.132 0.035,-0.066 0.064,-0.142 0.09,-0.222 l -0.028,0.002 c -0.083,0.129 -0.164,0.252 -0.242,0.364 z m -2.604,0.249 c 0.016,-10e-4 0.031,-0.002 0.047,-0.004 0.003,-0.015 0.005,-0.03 0.008,-0.044 0.002,-0.007 0.003,-0.014 0.004,-0.021 -0.02,0.024 -0.039,0.047 -0.059,0.069 z m -6.231,5.004 c -0.026,-0.052 -0.051,-0.105 -0.074,-0.158 -0.074,-0.035 -0.148,-0.072 -0.224,-0.109 0.036,0.085 0.071,0.169 0.104,0.252 l 0.205,0.041 c -0.004,-0.009 -0.007,-0.017 -0.011,-0.026 z m -1.026,10.067 -0.256,0.066 c 0.003,0.028 0.005,0.056 0.007,0.083 l 0.277,-0.14 z m -1.38,-7.34 -0.004,0.007 0.008,-0.007 z m -4.531,-17.532 -0.487,-0.039 0.483,0.14 c -10e-4,0.041 -0.004,0.095 0,0.206 -0.004,0.114 0.006,0.256 0.017,0.421 l 0.035,-1.319 z m -2.415,9.865 -0.013,0.044 c 0.003,-0.002 0.006,-0.003 0.009,-0.005 l 0.005,-0.039 z m -3.5561,-7.565 c 0.0348,0.032 0.0699,0.065 0.1047,0.097 0.0164,-0.184 0.0399,-0.378 0.0766,-0.57 -0.0528,0.173 -0.1176,0.331 -0.1813,0.473 z m -2.0402,13.977 c -0.0172,-0.003 -0.0348,-0.007 -0.052,-0.01 0.0047,0.004 0.0098,0.009 0.0149,0.014 0.0949,0.081 0.1762,0.172 0.2719,0.29 0.0027,0.004 0.0058,0.008 0.0089,0.012 0.0981,-0.071 0.195,-0.142 0.2918,-0.214 -0.1777,-0.022 -0.3574,-0.05 -0.5355,-0.092 z m -0.4602,-17.636 -0.0953,0.253 c -0.0437,0.125 -0.0949,0.241 -0.1476,0.348 0.0828,0.111 0.1668,0.222 0.2523,0.332 0.0086,-0.073 0.0164,-0.149 0.0246,-0.225 0.0281,-0.256 0.0582,-0.527 0.1074,-0.786 0.0371,-0.25 0.0903,-0.505 0.1493,-0.759 -0.0868,0.3 -0.1926,0.579 -0.2907,0.837 z m -1.732,19.053 c -0.2477,-0.073 -0.5027,-0.164 -0.7656,-0.26 0.1191,0.082 0.232,0.162 0.3554,0.217 0.0895,0.041 0.175,0.095 0.2243,0.129 0.0797,0.042 0.1562,0.09 0.2285,0.139 l 0.1449,0.087 c 0.0992,-0.055 0.1973,-0.11 0.2945,-0.165 -0.164,-0.046 -0.3324,-0.094 -0.482,-0.147 z m -0.1309,-22.592 -0.0019,0.003 0.0148,0.003 z m -3.6796,5.814 c -0.1165,-0.053 -0.2305,-0.106 -0.3422,-0.159 -0.2067,-0.095 -0.4051,-0.195 -0.5957,-0.294 0.0879,0.106 0.1773,0.22 0.2539,0.344 l 0.0023,0.004 c 0.011,0.003 0.0211,0.006 0.0305,0.009 0.0703,0.018 0.1476,0.032 0.2262,0.047 l 0.1632,0.031 c 0.0875,0.017 0.1789,0.034 0.2746,0.051 z m -1.2797,-2.305 c -0.1676,-0.08 -0.3356,-0.145 -0.4981,-0.209 l -0.2426,-0.097 c -0.2414,-0.096 -0.4703,-0.187 -0.6836,-0.267 -0.2414,-0.091 -0.4589,-0.179 -0.6484,-0.255 l -0.384,-0.151 0.2422,0.289 0.6067,0.223 c 0.0046,0.001 0.1543,0.056 0.4347,0.148 0.152,0.056 0.3449,0.118 0.568,0.188 l 0.5582,0.18 c 0.1594,0.055 0.3297,0.106 0.5078,0.159 z m -1.8285,17.03 -0.4036,0.037 c 0.1153,0.038 0.2344,0.078 0.3578,0.12 l 0.2645,0.088 c 0.0664,0.023 0.1344,0.045 0.202,0.069 z m 2.139,-0.197 0.2988,0.119 0.034,-0.034 -0.323,-0.263 c -0.0938,0.03 -0.184,0.056 -0.2711,0.08 0.0851,0.029 0.1719,0.061 0.2613,0.098 z m 0.6461,4.443 0.1316,-0.044 c -0.1156,-0.049 -0.2296,-0.102 -0.3386,-0.16 -0.0071,-0.004 -0.0145,-0.007 -0.0211,-0.009 0.0801,0.067 0.1543,0.137 0.2281,0.213 z M 85.457,159.772 c 0.0164,0.053 0.0328,0.107 0.0481,0.162 l 4e-4,-0.13 z m 0.6821,16.847 c -0.0164,0.006 -0.0328,0.011 -0.0485,0.016 l -0.2679,0.083 c -0.1379,0.044 -0.2707,0.079 -0.3954,0.108 0.059,0.021 0.1254,0.042 0.1981,0.065 l 0.5168,-0.269 z m -1.3817,1.128 c -0.1539,-0.141 -0.248,-0.217 -0.2554,-0.223 l -0.5368,-0.429 -1.0382,0.173 c 0.0585,0.024 0.1449,0.059 0.2605,0.103 0.1039,0.048 0.2348,0.099 0.3727,0.151 0.1898,0.063 0.3914,0.154 0.6046,0.265 0.1422,0.074 0.2977,0.149 0.4606,0.228 0.2672,0.129 0.5527,0.267 0.8273,0.422 0.0496,0.027 0.0996,0.054 0.1496,0.083 -0.0375,-0.033 -0.073,-0.065 -0.1074,-0.096 -0.148,-0.131 -0.2808,-0.257 -0.4004,-0.37 -0.1187,-0.114 -0.2215,-0.213 -0.3371,-0.307 z m -1.6121,-1.307 c -0.0305,0.001 -0.0601,0.004 -0.0906,0.007 l -0.2688,0.028 c -0.1211,0.013 -0.2367,0.018 -0.3457,0.018 -0.1238,0 -0.2386,-0.007 -0.3394,-0.013 l -0.2453,-0.017 c -0.043,-0.011 -0.0742,-0.011 -0.1621,-0.009 l -0.4981,0.017 1.3981,0.645 0.7714,-0.502 z m -1.4914,-0.86 c -0.0402,0.009 -0.0797,0.017 -0.1187,0.024 l 0.1347,0.208 z m 62.1261,8.202 c -0.004,-0.001 -0.138,-0.038 -0.374,-0.095 l -0.018,-0.004 c -0.195,-0.056 -0.464,-0.114 -0.783,-0.183 l -0.227,-0.05 c -0.231,-0.056 -0.485,-0.108 -0.755,-0.164 -0.22,-0.045 -0.449,-0.092 -0.675,-0.142 -0.225,-0.047 -0.454,-0.1 -0.687,-0.155 0.027,0.019 0.053,0.037 0.08,0.056 0.034,0.024 0.069,0.042 0.116,0.067 l 0.253,0.112 -0.031,0.177 0.014,0.161 0.14,-0.304 2.797,0.743 -2.969,0.247 -0.12,0.012 c -0.041,0.002 -0.085,0.001 -0.232,-0.002 -0.367,-0.035 -0.722,-0.118 -1.045,-0.241 l -0.347,-0.123 c -0.1,-0.036 -0.203,-0.073 -0.286,-0.113 -0.222,-0.098 -0.449,-0.211 -0.666,-0.336 -0.167,-0.091 -0.334,-0.19 -0.5,-0.293 l 0.275,0.326 c 0.123,0.145 0.196,0.227 0.199,0.231 l 2.295,2.557 -2.928,-1.797 c -0.005,-0.002 -0.099,-0.06 -0.284,-0.165 -0.05,-0.032 -0.109,-0.064 -0.174,-0.1 l -0.555,-0.305 c -0.134,-0.077 -0.282,-0.157 -0.437,-0.24 -0.197,-0.106 -0.406,-0.219 -0.606,-0.336 -0.325,-0.178 -0.645,-0.396 -0.967,-0.616 l -0.445,-0.32 c -0.278,-0.211 -0.565,-0.428 -0.82,-0.669 0.063,0.101 0.123,0.202 0.18,0.3 0.082,0.134 0.159,0.268 0.234,0.398 0.139,0.242 0.268,0.469 0.413,0.662 0.158,0.218 0.358,0.483 0.525,0.628 l 3.168,2.381 -3.561,-1.389 -0.284,-0.127 c -0.178,-0.092 -0.438,-0.227 -0.72,-0.425 l -1.359,-0.67 1.196,0.749 -3.792,-1.187 c -0.05,-0.016 -0.124,-0.037 -0.221,-0.06 l -0.102,-0.034 c -0.069,-0.022 -0.145,-0.047 -0.228,-0.077 l -2.225,-0.578 c -0.056,-0.018 -0.121,-0.036 -0.195,-0.057 -0.187,-0.05 -0.412,-0.113 -0.634,-0.208 -0.095,-0.035 -0.192,-0.076 -0.294,-0.118 l -0.262,-0.107 c -0.197,-0.086 -0.407,-0.18 -0.611,-0.285 -0.154,-0.078 -0.312,-0.16 -0.466,-0.249 l 1.409,1.516 -2.208,-0.966 -0.618,-0.286 c -0.148,-0.067 -0.309,-0.151 -0.47,-0.252 l -0.308,-0.186 -1.063,-0.31 c -0.079,-0.019 -0.167,-0.047 -0.267,-0.079 l -0.573,-0.204 c -0.102,-0.041 -0.207,-0.088 -0.316,-0.138 l -0.199,-0.089 c -0.086,-0.036 -0.164,-0.08 -0.244,-0.125 l 0.252,-0.433 -0.402,0.346 c -0.084,-0.049 -0.171,-0.1 -0.231,-0.144 -0.193,-0.128 -0.39,-0.268 -0.561,-0.409 -0.094,-0.071 -0.184,-0.148 -0.278,-0.234 l 0.4,1.194 1.308,2.466 -2.473,-2.733 -2.248,-0.571 c -0.055,-0.015 -0.126,-0.033 -0.205,-0.06 -0.083,-0.026 -0.178,-0.063 -0.287,-0.106 l -0.325,-0.14 c -0.084,-0.042 -0.167,-0.091 -0.267,-0.152 l -0.108,-0.071 c -0.265,-0.172 -0.594,-0.386 -0.893,-0.65 -0.299,-0.253 -0.584,-0.55 -0.862,-0.842 l -0.353,-0.403 c -0.086,-0.105 -0.163,-0.219 -0.235,-0.329 -0.068,-0.104 -0.131,-0.209 -0.188,-0.314 l -0.207,0.042 c 0.049,0.127 0.097,0.249 0.148,0.366 0.076,0.179 0.139,0.346 0.195,0.495 0.048,0.125 0.089,0.234 0.138,0.347 l 1.049,2.751 -1.019,-1.108 c 0.106,0.267 0.191,0.535 0.272,0.81 0.078,0.369 0.112,0.675 0.131,0.919 0.003,0.21 10e-4,0.325 10e-4,0.325 l -0.095,2.182 -0.452,-1.041 c 0.001,0.001 0.001,0.003 0.001,0.004 l 0.047,0.229 c 0.051,0.238 0.071,0.458 0.086,0.637 l 0.118,2.565 -0.82,-1.44 c 0.013,0.207 0.004,0.409 -0.004,0.594 l -0.008,0.219 c -0.003,0.245 -0.05,0.455 -0.085,0.609 l -0.355,2.37 -0.569,-1.595 c -0.001,0.044 -0.003,0.087 -0.006,0.128 -0.006,0.198 -0.034,0.388 -0.06,0.563 -0.013,0.081 -0.025,0.158 -0.033,0.237 -0.021,0.178 -0.063,0.338 -0.099,0.469 l -0.04,0.155 c -0.029,0.091 -0.042,0.147 -0.044,0.155 l -0.139,0.661 c -0.003,0.37 -0.022,0.673 -0.058,0.946 -0.027,0.183 -0.069,0.358 -0.109,0.524 -0.029,0.122 -0.058,0.238 -0.075,0.362 l -0.043,0.232 c -0.023,0.124 -0.046,0.23 -0.053,0.369 l -0.195,2.094 -0.782,-1.723 c 0,0 -0.04,-0.089 -0.116,-0.294 -0.013,-0.046 -0.031,-0.098 -0.052,-0.158 -0.043,0.228 -0.09,0.449 -0.148,0.651 -0.052,0.216 -0.128,0.418 -0.198,0.603 -0.032,0.086 -0.063,0.167 -0.09,0.25 -0.051,0.15 -0.108,0.284 -0.157,0.399 -0.027,0.063 -0.051,0.119 -0.083,0.206 l -0.943,2.412 -0.103,-2.382 -0.017,-0.247 c -0.001,-0.061 -0.009,-0.139 -0.019,-0.228 0,-0.007 -10e-4,-0.015 -0.002,-0.022 -0.015,0.046 -0.03,0.091 -0.045,0.132 -0.032,0.1 -0.069,0.197 -0.104,0.291 -0.038,0.099 -0.075,0.191 -0.103,0.306 l -0.064,0.199 c -0.022,0.065 -0.045,0.123 -0.065,0.231 l -0.345,1.686 -0.637,-1.436 -0.17,-0.412 c -0.03,-0.07 -0.06,-0.146 -0.083,-0.222 -0.025,0.057 -0.052,0.115 -0.082,0.171 -0.079,0.165 -0.173,0.329 -0.285,0.498 -0.08,0.115 -0.168,0.225 -0.256,0.336 l -0.093,0.116 c -0.238,0.258 -0.476,0.513 -0.702,0.723 -0.102,0.104 -0.214,0.198 -0.379,0.336 -0.1,0.084 -0.193,0.165 -0.281,0.254 l -0.245,0.242 c -0.057,0.059 -0.108,0.11 -0.176,0.185 l -1.7705,1.756 0.7855,-2.123 0.171,-0.432 c 0.044,-0.104 0.096,-0.225 0.156,-0.376 0.046,-0.107 0.092,-0.228 0.144,-0.374 0.052,-0.15 0.108,-0.307 0.172,-0.44 0.072,-0.17 0.153,-0.342 0.237,-0.514 -0.258,0.051 -0.506,0.096 -0.737,0.13 l -0.352,0.054 c -0.175,0.025 -0.339,0.047 -0.513,0.091 -0.1893,0.048 -0.385,0.099 -0.4932,0.153 -0.091,0.041 -0.1461,0.072 -0.1551,0.077 l -1.9902,1.205 1.3785,-2 c 0.0285,-0.042 0.064,-0.093 0.1101,-0.149 l 0.0832,-0.089 c 0.1207,-0.131 0.2828,-0.303 0.5,-0.463 0.093,-0.068 0.1883,-0.136 0.2875,-0.204 l 0.4982,-0.804 c 0.064,-0.09 0.146,-0.193 0.267,-0.342 0.043,-0.054 0.089,-0.111 0.153,-0.18 0.062,-0.063 0.13,-0.129 0.267,-0.25 0.214,-0.192 0.474,-0.424 0.766,-0.634 l -1.15,0.418 -0.221,0.281 0.102,-0.238 -0.904,0.329 0.988,-0.8 0.448,-0.771 0.941,-2.194 c 0.028,-0.068 0.064,-0.154 0.113,-0.25 0.063,-0.121 0.144,-0.265 0.245,-0.442 l 0.069,-0.119 c 0.084,-0.147 0.177,-0.305 0.289,-0.449 l 0.114,-0.15 c 0.251,-0.333 0.536,-0.71 0.848,-1.071 0.128,-0.154 0.26,-0.306 0.393,-0.459 0.17,-0.197 0.341,-0.392 0.507,-0.6 l -0.133,0.118 c -0.198,0.172 -0.392,0.316 -0.565,0.441 l -0.416,0.314 c -0.199,0.142 -0.306,0.233 -0.316,0.241 l -0.723,-0.683 c 0.008,-0.011 0.094,-0.123 0.235,-0.347 0.107,-0.152 0.225,-0.366 0.365,-0.616 l 0.22,-0.388 c 0.093,-0.14 0.179,-0.298 0.27,-0.463 l 0.09,-0.162 c 0.129,-0.247 0.266,-0.505 0.406,-0.761 l 0.433,-0.811 c 0.037,-0.066 0.073,-0.132 0.108,-0.197 -0.177,0.196 -0.346,0.373 -0.496,0.527 -0.359,0.365 -0.698,0.624 -1.005,0.857 l -3.3925,2.652 2.3935,-3.16 c 0.041,-0.055 0.102,-0.135 0.171,-0.245 0.121,-0.191 0.256,-0.463 0.416,-0.783 l 0.186,-0.374 c 0.088,-0.18 0.181,-0.372 0.271,-0.578 l 0.075,-0.169 c -0.119,0.156 -0.22,0.299 -0.311,0.429 l -2.9136,3.848 1.7816,-4.057 -1.33,0.983 -0.13,0.209 c -0.111,0.173 -0.2075,0.324 -0.2911,0.475 -0.1563,0.252 -0.2403,0.4 -0.2434,0.405 l -2.0551,3.649 0.9731,-3.446 -0.0563,0.042 0.2219,-0.626 c 0.0016,-0.006 0.0469,-0.167 0.1187,-0.467 0.0415,-0.153 0.0926,-0.339 0.1555,-0.547 0.0027,-0.008 0.0051,-0.016 0.007,-0.024 -0.057,0.089 -0.1164,0.181 -0.1804,0.276 l -0.1418,0.199 c -0.3645,0.512 -0.7403,1.04 -1.1313,1.513 -0.4468,0.555 -0.9234,1.037 -1.3086,1.425 -0.4832,0.481 -0.9429,0.774 -1.1988,0.918 -0.1539,0.077 -0.2836,0.124 -0.4469,0.181 l -0.948,0.247 0.2047,-0.818 0.0824,-0.26 0.2406,-0.094 c 0.0305,-0.012 0.1106,-0.043 0.2485,-0.183 0.2117,-0.176 0.4863,-0.585 0.6785,-0.884 0.1765,-0.267 0.3472,-0.596 0.5246,-0.95 -0.284,0.263 -0.5723,0.522 -0.8578,0.762 -0.5379,0.458 -1.0707,0.857 -1.5215,1.192 -0.2473,0.188 -0.4805,0.351 -0.684,0.494 -0.159,0.11 -0.298,0.207 -0.4258,0.305 l -3.3543,2.394 2.5395,-3.168 c -0.5223,0.396 -1.0586,0.797 -1.5969,1.138 -0.5102,0.333 -1.0719,0.64 -1.7738,0.973 -0.5524,0.251 -1.0438,0.393 -1.3793,0.49 -0.118,0.034 -0.2223,0.054 -0.3082,0.071 l -0.0094,-0.046 -3.8523,0.868 3.2925,-1.705 0.2028,-0.105 c 0.0547,-0.029 0.1222,-0.063 0.2394,-0.138 0.0375,-0.021 0.0778,-0.044 0.1199,-0.071 l -0.0746,0.037 c -0.164,0.076 -0.3293,0.149 -0.5359,0.239 l -0.8098,0.364 c -0.5097,0.25 -1.1015,0.495 -1.7484,0.725 -0.3168,0.121 -0.6274,0.172 -0.8496,0.2 -0.0871,0.014 -0.1731,0.02 -0.2539,0.025 l -0.1246,0.01 c -0.0825,0.003 -0.1625,0.003 -0.2907,0.002 l -0.1488,-0.016 c -0.1621,-0.022 -0.2855,-0.043 -0.3363,-0.062 l -1.0953,-0.276 c -0.0746,0.025 -0.1481,0.049 -0.2207,0.073 -0.3321,0.11 -0.6614,0.199 -0.9887,0.275 -0.3098,0.065 -0.6031,0.118 -0.8734,0.167 -0.4774,0.085 -0.8922,0.106 -1.1954,0.12 l -0.1804,0.009 c -0.3231,0.005 -0.5016,-0.001 -0.5016,-0.001 l -3.1316,-0.071 2.9992,-0.907 0.2098,-0.065 c 0.057,-0.016 0.1269,-0.037 0.25,-0.084 0.2351,-0.069 0.5847,-0.238 1.0711,-0.473 0.0242,-0.011 0.048,-0.023 0.0722,-0.035 -0.5047,0.149 -1.0297,0.292 -1.5359,0.398 -0.5785,0.127 -1.1188,0.194 -1.6699,0.264 -0.3028,0.034 -0.5786,0.04 -0.8133,0.045 -0.1352,0.002 -0.2547,0.004 -0.3852,0.016 -0.25,0.008 -0.3937,0.021 -0.4019,0.022 l -0.1825,-0.98 0.1317,-0.036 c 0.0609,-0.017 0.1453,-0.039 0.2848,-0.088 0.1457,-0.041 0.3218,-0.117 0.5269,-0.204 -0.173,0.02 -0.3457,0.034 -0.5156,0.041 -0.4875,0.025 -0.9656,0.011 -1.3289,0.024 -0.1449,0.01 -0.2844,0.002 -0.4141,-0.005 l -0.1535,-0.007 c -0.1488,0 -0.2781,0 -0.4051,0.005 h -3.4254 l 3.2676,-1.093 c 0.1,-0.03 0.2211,-0.069 0.3418,-0.112 l 0.532,-0.202 c 0.1899,-0.058 0.3938,-0.135 0.6094,-0.216 0.1981,-0.076 0.4055,-0.154 0.6129,-0.223 0.1926,-0.07 0.3918,-0.13 0.5949,-0.188 -0.0926,-0.009 -0.1898,-0.015 -0.2918,-0.022 -0.2652,-0.018 -0.5664,-0.037 -0.8332,-0.107 -0.3488,-0.061 -0.6668,-0.185 -0.9742,-0.305 l -1.4332,-0.621 -0.6094,-0.264 c -0.1035,-0.041 -0.2035,-0.083 -0.3187,-0.107 l -0.2383,-0.06 c -0.182,-0.047 -0.3398,-0.09 -0.4879,-0.107 -0.1582,-0.026 -0.2566,-0.035 -0.2664,-0.035 l -2.2434,-0.179 2.1071,-0.788 c 0.0074,-0.003 0.1008,-0.038 0.2672,-0.111 l 0.1285,-0.044 c 0.1953,-0.062 0.4894,-0.158 0.8422,-0.196 0.1707,-0.018 0.3562,-0.044 0.5824,-0.074 l 0.1347,-0.013 c 0.1813,-0.018 0.3688,-0.03 0.5297,-0.032 0.4903,-0.02 0.9766,0.034 1.4911,0.095 l 0.1382,0.028 c 0.1211,0.024 0.243,0.049 0.3641,0.075 -0.0664,-0.053 -0.1324,-0.103 -0.1992,-0.15 l -0.3766,-0.29 c -0.0879,-0.071 -0.1656,-0.134 -0.2777,-0.204 -0.127,-0.096 -0.2082,-0.147 -0.2184,-0.154 l -2.2515,-1.378 2.5992,0.459 c 0.0105,0.002 0.1094,0.019 0.3109,0.039 l 0.3801,0.065 c 0.1648,0.027 0.3484,0.066 0.5402,0.126 0.3434,0.102 0.7707,0.23 1.1922,0.415 0.2797,0.117 0.5547,0.255 0.8488,0.412 -0.0836,-0.083 -0.1671,-0.162 -0.2523,-0.237 -0.1414,-0.13 -0.2688,-0.255 -0.4203,-0.403 -0.1055,-0.106 -0.1985,-0.199 -0.3051,-0.289 l -2.0113,-1.93 2.2519,0.835 0.8004,0.309 c 0.1766,0.071 0.3742,0.154 0.5739,0.259 l 0.3156,0.159 c 0.3121,0.154 0.6558,0.326 0.9926,0.526 0.4703,0.268 0.9425,0.586 1.4328,0.92 l 0.373,0.281 c -0.0742,-0.098 -0.1461,-0.191 -0.2144,-0.276 l -0.0829,-0.1 c -0.1718,-0.211 -0.3339,-0.409 -0.4796,-0.533 -0.0508,-0.05 -0.0957,-0.089 -0.1301,-0.12 l -2.259,-1.976 2.7852,1.095 c 0.0605,0.023 0.1425,0.056 0.2593,0.111 l 0.2129,0.102 c 0.1875,0.088 0.4149,0.196 0.6488,0.332 0.3481,0.198 0.7508,0.437 1.1426,0.692 l 0.3188,0.2 c -0.1414,-0.142 -0.2617,-0.28 -0.3656,-0.402 -0.0629,-0.074 -0.1188,-0.139 -0.2114,-0.24 -0.0379,-0.049 -0.0738,-0.085 -0.1285,-0.144 l -1.4434,-1.623 2.0426,0.789 c 0.041,0.016 0.0938,0.036 0.2207,0.074 0.0723,0.029 0.1602,0.057 0.259,0.089 0.1926,0.063 0.4188,0.137 0.6555,0.241 0.1461,0.067 0.3082,0.13 0.4781,0.197 0.2406,0.094 0.4965,0.196 0.7399,0.311 0.2917,0.129 0.5851,0.277 0.88,0.433 -0.0375,-0.041 -0.0742,-0.08 -0.1105,-0.12 -0.1403,-0.153 -0.2731,-0.297 -0.4035,-0.423 -0.1739,-0.169 -0.3172,-0.34 -0.4422,-0.49 -0.0797,-0.097 -0.1488,-0.183 -0.2473,-0.278 -0.1387,-0.154 -0.2262,-0.239 -0.2336,-0.246 l -1.6137,-1.552 -1.4609,0.05 1.0246,-0.47 -0.0941,-0.09 0.1453,0.067 0.8066,-0.37 c -0.0562,0.007 -0.1101,0.011 -0.1632,0.014 -0.2258,0.024 -0.4368,0.024 -0.6485,0.025 -0.1,0 -0.1902,0.001 -0.2816,0.004 -0.1981,0.007 -0.3817,-0.012 -0.5321,-0.028 l -0.1824,-0.015 c -0.1195,-0.017 -0.1902,-0.021 -0.2004,-0.022 l -0.7941,-0.04 c -0.4457,0.055 -0.793,0.081 -1.1133,0.085 -0.2133,-0.006 -0.4199,-0.013 -0.6141,-0.028 -0.1503,-0.011 -0.3,-0.018 -0.4347,-0.021 l -0.2836,-0.006 c -0.1539,-0.006 -0.286,-0.012 -0.4332,0.002 l -2.4199,0.09 1.8996,-1.02 c 0,0 0.0976,-0.053 0.3129,-0.152 0.05,-0.019 0.1062,-0.043 0.1699,-0.072 -0.2586,-0.008 -0.511,-0.021 -0.7442,-0.048 -0.2503,-0.019 -0.4882,-0.062 -0.7074,-0.103 -0.1054,-0.02 -0.2062,-0.038 -0.3062,-0.053 -0.177,-0.027 -0.336,-0.063 -0.4723,-0.094 -0.0805,-0.018 -0.1512,-0.035 -0.2488,-0.051 -0.1426,-0.035 -0.2266,-0.051 -0.2328,-0.052 l -2.7821,-0.53 2.795,-0.455 c 0.0058,-0.001 0.0937,-0.015 0.2769,-0.052 0.0762,-0.011 0.1695,-0.032 0.2766,-0.056 0.0203,-0.004 0.041,-0.009 0.0625,-0.013 -0.0446,-0.006 -0.0875,-0.014 -0.1289,-0.021 -0.1172,-0.016 -0.2332,-0.037 -0.3446,-0.059 -0.1238,-0.023 -0.2422,-0.047 -0.3789,-0.056 l -0.2277,-0.034 c -0.0934,-0.014 -0.1746,-0.03 -0.2887,-0.031 l -2.0301,-0.11 1.636,-0.848 0.4554,-0.226 c 0.0754,-0.039 0.1579,-0.079 0.2411,-0.111 -0.0547,-0.013 -0.109,-0.028 -0.1637,-0.045 -0.1953,-0.052 -0.3918,-0.12 -0.5953,-0.204 -0.141,-0.062 -0.2774,-0.132 -0.4141,-0.202 l -0.1418,-0.073 c -0.3265,-0.199 -0.6476,-0.397 -0.9152,-0.59 -0.1328,-0.088 -0.2543,-0.185 -0.4274,-0.325 -0.1093,-0.088 -0.2136,-0.169 -0.3222,-0.241 L 68.907,169.59 c -0.0691,-0.045 -0.13,-0.086 -0.2172,-0.137 l -2.1378,-1.47 2.2996,0.422 0.5172,0.105 c 0.1257,0.028 0.273,0.062 0.4515,0.098 0.1344,0.031 0.2832,0.057 0.4356,0.084 0.1836,0.03 0.3757,0.062 0.5488,0.107 0.2668,0.059 0.5375,0.135 0.809,0.21 -0.0942,-0.272 -0.1789,-0.534 -0.2465,-0.778 -0.0367,-0.118 -0.0688,-0.234 -0.0996,-0.347 -0.0457,-0.167 -0.0879,-0.324 -0.1492,-0.475 -0.0723,-0.174 -0.1543,-0.371 -0.2274,-0.469 -0.0551,-0.083 -0.0972,-0.132 -0.1039,-0.14 l -1.8961,-2.11 2.566,1.363 c 0.0508,0.021 0.1157,0.05 0.1871,0.089 l 0.1059,0.064 c 0.1488,0.091 0.3734,0.228 0.5934,0.43 0.0722,0.067 0.1453,0.136 0.2179,0.208 l 1.0492,0.428 c 0.1086,0.049 0.2364,0.114 0.4211,0.211 0.0653,0.035 0.1332,0.071 0.2227,0.124 0.0797,0.053 0.1613,0.109 0.2422,0.171 l 0.0805,0.06 c 0.2761,0.209 0.6203,0.468 0.9214,0.769 0.1145,0.111 0.225,0.226 0.3332,0.343 l -0.8398,-1.54 -0.2789,-0.142 0.2305,0.054 -0.3043,-0.558 0.6968,0.589 0.595,0.204 2.9855,0.709 c 0.0813,0.017 0.182,0.039 0.2938,0.073 0.1461,0.044 0.3211,0.102 0.5355,0.175 l 0.1481,0.051 c 0.1753,0.06 0.3675,0.127 0.5437,0.217 l 0.1633,0.079 c 0.4183,0.201 0.8953,0.432 1.3578,0.694 0.1902,0.102 0.3812,0.211 0.5727,0.32 0.3343,0.19 0.6695,0.381 1.0351,0.556 0.0824,0.046 0.166,0.089 0.2512,0.13 -0.0371,-0.029 -0.0742,-0.056 -0.1106,-0.084 l -0.3746,-0.282 c -0.2191,-0.172 -0.4066,-0.342 -0.5703,-0.496 -0.1023,-0.096 -0.1976,-0.18 -0.2824,-0.256 l -0.1246,-0.111 c -0.1875,-0.178 -0.3063,-0.271 -0.316,-0.279 l 0.5316,-0.842 c 0.0113,0.006 0.1539,0.076 0.4313,0.184 0.1898,0.084 0.4543,0.17 0.7621,0.272 l 0.4714,0.16 c 0.1754,0.072 0.3731,0.136 0.5786,0.202 l 0.1976,0.065 c 0.3004,0.091 0.6133,0.187 0.9313,0.289 l 0.9574,0.299 -1.941,-1.017 h 0.8199 c -0.0645,-0.057 -0.127,-0.112 -0.1887,-0.167 l -0.089,-0.077 c -0.0844,-0.072 -0.1532,-0.131 -0.1864,-0.163 l -1.0535,-0.93 c -0.2015,-0.083 -0.3769,-0.164 -0.5367,-0.249 -0.1629,-0.087 -0.3141,-0.186 -0.4559,-0.28 -0.105,-0.07 -0.2031,-0.136 -0.3136,-0.195 l -0.2075,-0.121 c -0.1078,-0.064 -0.1992,-0.122 -0.3222,-0.173 l -1.8012,-0.899 1.7809,-0.146 c 0,0 0.0984,-0.009 0.3218,-0.009 0.0461,0.004 0.1008,0.005 0.1622,0.005 -0.1985,-0.118 -0.3907,-0.239 -0.5614,-0.361 -0.1836,-0.123 -0.3476,-0.262 -0.4984,-0.392 -0.0695,-0.06 -0.1356,-0.117 -0.2043,-0.171 -0.1234,-0.099 -0.2301,-0.198 -0.3211,-0.283 -0.0504,-0.048 -0.0949,-0.09 -0.1652,-0.149 l -1.9512,-1.721 2.2812,0.727 0.2356,0.068 c 0.0582,0.021 0.1328,0.04 0.2183,0.061 0.0086,0.002 0.0168,0.004 0.0258,0.007 -0.0386,-0.031 -0.0754,-0.061 -0.109,-0.089 -0.0824,-0.063 -0.1617,-0.131 -0.2375,-0.196 -0.0796,-0.07 -0.1546,-0.136 -0.2531,-0.201 l -0.1672,-0.13 c -0.0535,-0.044 -0.0992,-0.084 -0.191,-0.138 l -1.4633,-0.918 1.5664,-0.093 0.4313,-0.017 c 0.0769,-0.005 0.1637,-0.007 0.2473,-0.002 -0.0465,-0.044 -0.0918,-0.089 -0.1356,-0.137 -0.1258,-0.131 -0.2476,-0.273 -0.3676,-0.436 -0.0808,-0.115 -0.155,-0.236 -0.2297,-0.356 l -0.0753,-0.126 c -0.1633,-0.313 -0.3219,-0.624 -0.4418,-0.909 -0.0633,-0.134 -0.1141,-0.273 -0.1852,-0.469 -0.0449,-0.123 -0.0895,-0.238 -0.1434,-0.353 l -0.1586,-0.342 c -0.0296,-0.063 -0.0566,-0.119 -0.098,-0.198 l -1.059,-2.265 1.7375,1.463 0.3524,0.311 c 0.0812,0.076 0.1765,0.166 0.2972,0.274 0.0856,0.081 0.184,0.164 0.3032,0.262 0.1226,0.101 0.2503,0.207 0.3542,0.312 0.1352,0.126 0.2688,0.261 0.4016,0.398 0.0402,-0.259 0.0824,-0.508 0.1301,-0.737 l 0.0703,-0.352 c 0.0359,-0.172 0.0707,-0.334 0.0883,-0.505 0.0195,-0.198 0.039,-0.401 0.025,-0.522 -0.0067,-0.098 -0.0176,-0.161 -0.0195,-0.171 l -0.4622,-2.311 1.42,2.009 c 0.0289,0.041 0.0656,0.093 0.1019,0.157 l 0.0516,0.098 c 0.082,0.16 0.1902,0.371 0.2676,0.635 0.0293,0.101 0.0593,0.208 0.0882,0.319 l 0.5911,0.765 c 0.0613,0.089 0.1312,0.2 0.2199,0.349 0.0383,0.063 0.0781,0.132 0.125,0.221 0.0312,0.065 0.0625,0.133 0.1105,0.251 l 0.377,0.139 8e-4,-0.318 -0.2403,-0.385 0.2414,0.228 0.0043,-0.925 0.3032,0.885 0.1714,-0.579 0.6817,0.145 c 0.239,0.054 0.5328,0.12 0.8594,0.213 l 0.8835,0.251 -0.0496,-0.131 0.0911,0.144 0.1019,0.029 c 0.1535,0.047 0.3113,0.095 0.4832,0.135 0.1941,0.049 0.3918,0.101 0.5918,0.155 l -0.3766,-0.2 c -0.4343,-0.239 -0.8656,-0.476 -1.2543,-0.721 -0.2953,-0.181 -0.5707,-0.369 -0.8265,-0.543 -0.1453,-0.1 -0.2848,-0.195 -0.4192,-0.282 -0.2472,-0.163 -0.4593,-0.323 -0.6367,-0.456 l -0.25,-0.186 c -0.1859,-0.149 -0.2957,-0.231 -0.3,-0.234 l -2.916,-2.168 3.3934,1.3 c 0.0054,0.002 0.1324,0.05 0.3828,0.135 0.0937,0.038 0.2078,0.077 0.3359,0.122 0.1895,0.068 0.4082,0.145 0.6481,0.242 0.1394,0.057 0.2902,0.115 0.4476,0.173 -0.1976,-0.153 -0.3972,-0.318 -0.6,-0.496 -0.1836,-0.158 -0.3539,-0.317 -0.5152,-0.467 -0.1559,-0.147 -0.3024,-0.284 -0.4567,-0.413 l -0.2101,-0.188 c -0.1711,-0.154 -0.3156,-0.288 -0.4668,-0.393 -0.0734,-0.057 -0.1324,-0.1 -0.2262,-0.162 l -2.8633,-1.681 3.3676,0.796 c 0.061,0.014 0.1387,0.033 0.2535,0.067 l 0.1621,0.055 c 0.1414,0.045 0.3071,0.099 0.4914,0.171 -0.0214,-0.03 -0.0425,-0.059 -0.0636,-0.089 -0.1684,-0.239 -0.3211,-0.473 -0.4633,-0.692 -0.0996,-0.153 -0.1941,-0.299 -0.2871,-0.434 -0.1383,-0.204 -0.252,-0.395 -0.3488,-0.559 -0.0567,-0.096 -0.1071,-0.182 -0.1696,-0.278 l -1.8039,-3.059 2.3906,2.125 c 0.0028,0.003 0.0961,0.086 0.284,0.244 0.0715,0.068 0.1617,0.144 0.2649,0.231 0.1324,0.112 0.2828,0.24 0.4422,0.387 0.1773,0.166 0.3839,0.34 0.6046,0.522 -0.2906,-0.375 -0.6187,-0.811 -0.8851,-1.258 -0.2332,-0.392 -0.4387,-0.827 -0.616,-1.301 C 86.109,149.095 86.073,149 86.0398,148.887 l -0.5636,-3.872 1.3152,2.518 c 0.002,0.004 0.0586,0.113 0.1703,0.311 l 0.2571,0.41 -0.2442,0.238 0.0133,0.058 0.3324,-0.15 0.109,0.155 c 0.1242,0.192 0.3145,0.406 0.516,0.631 l 0.2578,0.293 c -0.0972,-0.187 -0.1914,-0.379 -0.282,-0.578 -0.0543,-0.129 -0.1059,-0.258 -0.1512,-0.385 -0.0398,-0.108 -0.073,-0.206 -0.1277,-0.367 -0.0875,-0.25 -0.1567,-0.502 -0.2125,-0.741 -0.0875,-0.336 -0.1481,-0.664 -0.2035,-0.965 l -0.0637,-0.338 c -0.0426,-0.208 -0.0648,-0.402 -0.0828,-0.623 -0.0117,-0.127 -0.0215,-0.238 -0.0363,-0.356 l -0.3231,-3.63 1.2891,3.139 c 0.0199,0.049 0.0496,0.12 0.1054,0.237 0.0356,0.09 0.0887,0.194 0.1485,0.31 l 0.2457,0.486 c 0.0203,0.045 0.0422,0.091 0.0652,0.137 0.0418,-0.55 0.0895,-1.025 0.1606,-1.473 0.0343,-0.263 0.0929,-0.515 0.1496,-0.756 l 0.2011,-0.826 c 0.0825,-0.307 0.17,-0.575 0.2426,-0.797 l 0.2192,-0.66 0.9718,0.224 c -0.0019,0.012 -0.0195,0.14 -0.032,0.385 -0.023,0.223 -0.0141,0.539 -0.0058,0.913 l 0.0027,0.117 c -4e-4,0.212 0.0086,0.441 0.0242,0.687 l 0.0176,0.25 c 0.0137,0.186 0.0277,0.376 0.0293,0.555 0.0031,0.066 0.0054,0.133 0.0078,0.2 0.0445,-0.075 0.0879,-0.145 0.1289,-0.213 l 0.0734,-0.121 c 0.1762,-0.291 0.3703,-0.509 0.5125,-0.667 l 0.0907,-0.101 c 0.0535,-0.059 0.1035,-0.107 0.1804,-0.18 l 1.9946,-1.887 -1.1766,2.503 c -0.0145,0.031 -0.034,0.07 -0.0746,0.184 -0.0465,0.096 -0.0766,0.234 -0.116,0.391 -0.0262,0.106 -0.0547,0.218 -0.0879,0.334 -0.0516,0.182 -0.0867,0.387 -0.1254,0.604 -0.0289,0.166 -0.0598,0.338 -0.0957,0.505 l -0.2649,1.332 c -0.1062,0.462 -0.2293,0.932 -0.3628,1.339 -0.0676,0.226 -0.1457,0.441 -0.2196,0.644 -0.0496,0.137 -0.0976,0.267 -0.1383,0.394 0.05,-0.131 0.1008,-0.262 0.1516,-0.394 l 0.2148,-0.528 c 0.184,-0.435 0.3657,-0.865 0.5504,-1.262 0.1,-0.223 0.2036,-0.437 0.3028,-0.642 0.116,-0.241 0.2258,-0.467 0.3172,-0.683 0.0871,-0.2 0.1738,-0.384 0.2511,-0.546 0.0711,-0.151 0.1336,-0.281 0.1782,-0.392 l 0.1628,-0.353 0.952,0.331 -0.0684,0.589 c -0.0285,0.225 -0.0628,0.498 -0.1246,0.799 l -0.084,0.425 c -0.0625,0.327 -0.1308,0.684 -0.2214,1.045 -0.0325,0.135 -0.0676,0.271 -0.1051,0.407 l 0.0465,-0.054 0.0199,0.017 0.0023,-0.005 0.2051,0.08 -0.1316,-0.208 2.034,-2.513 -1.2207,3.116 c -0.0133,0.035 -0.0317,0.08 -0.0602,0.182 -0.0516,0.144 -0.098,0.349 -0.1535,0.589 l -0.0422,0.179 c -0.0574,0.23 -0.093,0.494 -0.1316,0.777 l -0.0469,0.331 c -0.0281,0.217 -0.0625,0.44 -0.102,0.67 0.1512,-0.206 0.3,-0.372 0.4207,-0.506 l 2.3172,-2.312 -1.2289,2.64 c -0.0156,0.032 -0.0348,0.073 -0.0699,0.161 -0.0578,0.123 -0.1094,0.302 -0.1723,0.509 l -0.0422,0.138 2.3629,-1.593 -1.7109,2.373 -0.0672,0.112 c -0.0609,0.099 -0.1324,0.401 -0.1715,0.566 -0.0504,0.206 -0.0676,0.484 -0.0847,0.778 l -0.0122,0.182 c -0.0015,0.037 -0.0031,0.073 -0.005,0.11 0.0328,-0.059 0.0644,-0.116 0.0957,-0.172 0.0504,-0.091 0.098,-0.176 0.1554,-0.267 l 0.134,-0.201 c 0.0875,-0.132 0.1664,-0.243 0.2395,-0.345 l 2.1078,-2.8 -1.1524,3.342 c -0.0355,0.084 -0.0675,0.193 -0.105,0.322 l -0.1469,0.485 c -0.0738,0.223 -0.1317,0.48 -0.1934,0.753 l -0.1613,0.712 c -0.075,0.343 -0.1531,0.697 -0.2273,1.071 l -0.0793,0.347 c -0.0204,0.093 -0.0414,0.185 -0.0625,0.277 0.1277,-0.422 0.2828,-0.895 0.4761,-1.335 0.1977,-0.469 0.4321,-0.888 0.6289,-1.231 0.159,-0.296 0.3422,-0.527 0.4766,-0.694 l 0.1262,-0.162 c 0.1355,-0.161 0.2093,-0.255 0.2121,-0.258 l 2.3007,-2.928 -1.446,3.431 c -0.002,0.004 -0.0492,0.117 -0.1434,0.356 -0.0258,0.052 -0.0562,0.169 -0.091,0.301 l -0.1031,0.347 c 0.0215,-0.03 0.0332,-0.047 0.0351,-0.05 l 2.5254,-3.743 -1.6449,4.204 c -0.0035,0.009 -0.0449,0.117 -0.1109,0.326 l -0.1563,0.637 c -0.0082,0.066 -0.0176,0.132 -0.0344,0.205 -0.0574,0.236 -0.0808,0.537 -0.1062,0.854 l -0.0797,0.909 c -0.027,0.287 -0.0539,0.58 -0.0758,0.888 -0.0168,0.186 -0.0437,0.371 -0.0711,0.556 l -0.0222,0.158 c 0.0515,-0.177 0.1027,-0.349 0.1535,-0.512 L 98.9465,160 c 0.0539,-0.18 0.1055,-0.352 0.1426,-0.487 0.0754,-0.333 0.166,-0.648 0.2285,-0.835 0.0379,-0.126 0.0777,-0.219 0.1512,-0.37 l 1.8572,-3.677 -0.945,4.092 c -0.008,0.035 -0.019,0.088 -0.025,0.154 l 0.008,0.096 -0.002,0.015 0.012,0.113 c 0.027,0.148 0.049,0.317 0.056,0.51 0.01,-0.008 0.019,-0.017 0.028,-0.025 l 3.033,-2.466 -2.207,3.051 -0.029,0.128 c -0.02,0.082 -0.013,0.29 -0.007,0.473 l 0.004,0.168 c 0.001,0.067 0.006,0.136 0.012,0.229 l 0.015,0.237 -0.499,0.034 0.449,0.068 c 0.031,-0.061 0.062,-0.118 0.093,-0.172 l 0.192,-0.327 c 0.043,-0.069 0.086,-0.129 0.129,-0.176 l 0.2,0.103 -0.14,-0.191 2.045,-2.899 -1.188,3.423 c -0.01,0.03 -0.026,0.075 -0.047,0.178 l -0.068,0.674 c -0.014,0.167 -0.009,0.351 0.001,0.547 0.003,-0.017 0.006,-0.034 0.01,-0.051 l 0.032,-0.167 c 0.073,-0.374 0.186,-0.681 0.288,-0.956 l 1.173,-2.697 0.056,-5.511 -0.004,-5.707 c 0.003,-1.324 -0.01,-2.686 -0.023,-4.08 l -0.038,-4.266 c -0.018,-1.859 -0.046,-3.758 -0.076,-5.686 l -0.22,-12.111 -0.465,-18.512 -0.872,-27.042 c -0.101,-2.7019 -0.908,-21.7429 -0.908,-21.7429 l -0.022,-0.5071 5.956,-0.1738 0.02,0.4938 c 0.008,0.191 0.778,19.0871 0.826,21.7742 l 0.167,11.2269 0.279,34.0699 -0.018,12.477 c -0.008,1.941 -0.017,3.855 -0.035,5.73 l -0.046,4.279 c -0.014,1.4 -0.028,2.77 -0.058,4.104 l -0.073,3.882 -0.374,11.589 c 0.314,-0.41 0.606,-0.836 0.891,-1.251 l 0.222,-0.321 c 0.153,-0.24 0.315,-0.471 0.472,-0.695 0.239,-0.338 0.464,-0.659 0.625,-0.975 l 0.698,-1.273 c 0.148,-0.275 0.218,-0.444 0.224,-0.457 l 1.675,-4.051 -0.72,4.325 c -0.002,0.012 -0.03,0.192 -0.054,0.527 -0.018,0.182 -0.045,0.402 -0.085,0.711 -0.031,0.251 -0.067,0.532 -0.136,0.825 -0.032,0.145 -0.063,0.299 -0.096,0.475 l -0.113,0.507 c -0.04,0.188 -0.083,0.383 -0.136,0.561 -0.052,0.2 -0.118,0.4 -0.191,0.601 -0.018,0.047 -0.035,0.093 -0.053,0.14 0.169,-0.164 0.331,-0.332 0.491,-0.497 l 0.136,-0.14 c 0.403,-0.436 0.822,-0.897 1.122,-1.318 0.285,-0.391 0.555,-0.761 0.703,-1.04 0.06,-0.095 0.104,-0.177 0.162,-0.285 l 1.872,-3.651 -0.991,4.382 c -0.025,0.096 -0.051,0.21 -0.079,0.337 -0.062,0.274 -0.137,0.604 -0.251,0.972 -0.145,0.451 -0.338,1.054 -0.619,1.668 l 0.102,-0.108 c 0.073,-0.077 0.147,-0.156 0.228,-0.25 0.252,-0.283 0.501,-0.561 0.739,-0.819 0.16,-0.18 0.32,-0.353 0.476,-0.522 l 0.226,-0.246 c 0.179,-0.194 0.342,-0.385 0.496,-0.566 l 0.293,-0.349 c 0.268,-0.323 0.498,-0.599 0.647,-0.82 0.084,-0.123 0.141,-0.226 0.181,-0.297 l 1.874,-3.366 -1.038,4.224 c -0.084,0.345 -0.199,0.817 -0.415,1.358 -0.167,0.409 -0.364,0.872 -0.608,1.356 l 0.144,-0.179 c 0.145,-0.179 0.29,-0.358 0.435,-0.552 l 0.644,-0.817 c 0.211,-0.273 0.418,-0.537 0.61,-0.774 l 0.142,-0.186 c 0.133,-0.174 0.261,-0.339 0.385,-0.528 l 0.287,-0.384 c 0.2,-0.264 0.372,-0.49 0.497,-0.693 0.161,-0.237 0.242,-0.383 0.248,-0.395 l 0.916,0.389 c -0.004,0.011 -0.052,0.172 -0.114,0.467 l -0.035,0.141 c -0.03,0.126 -0.066,0.27 -0.101,0.429 -0.052,0.238 -0.114,0.508 -0.206,0.808 l -0.15,0.459 c -0.053,0.164 -0.108,0.336 -0.168,0.512 0.092,-0.15 0.178,-0.306 0.258,-0.471 0.194,-0.339 0.368,-0.71 0.543,-1.077 0.1,-0.211 0.199,-0.421 0.297,-0.616 0.238,-0.501 0.501,-0.969 0.733,-1.383 l 0.11,-0.195 c 0.103,-0.193 0.227,-0.362 0.341,-0.517 l 0.101,-0.137 c 0.132,-0.177 0.246,-0.329 0.342,-0.448 0.078,-0.096 0.151,-0.173 0.259,-0.287 l 1.974,-2.139 0.469,-0.638 0.264,-0.969 0.053,0.754 0.015,-0.015 -0.014,0.026 0.144,2.022 c 0.022,-0.15 0.047,-0.298 0.077,-0.442 0.088,-0.474 0.233,-0.916 0.38,-1.364 0.034,-0.107 0.07,-0.205 0.117,-0.32 0.036,-0.08 0.075,-0.156 0.126,-0.256 0.081,-0.156 0.152,-0.289 0.232,-0.42 l 0.616,-0.923 c 0.026,-0.131 0.053,-0.257 0.079,-0.375 0.07,-0.312 0.182,-0.567 0.255,-0.736 l 0.051,-0.115 c 0.038,-0.076 0.076,-0.138 0.151,-0.266 l 1.291,-2.374 -0.356,2.68 c -0.002,0.015 -0.01,0.092 -0.012,0.244 -0.006,0.115 0.032,0.351 0.074,0.609 0.029,0.171 0.082,0.356 0.136,0.553 0.036,0.13 0.073,0.264 0.104,0.39 0.085,0.31 0.162,0.641 0.24,1.001 0.174,-0.208 0.348,-0.412 0.517,-0.59 0.127,-0.146 0.267,-0.278 0.411,-0.411 0.116,-0.11 0.225,-0.216 0.327,-0.323 0.119,-0.121 0.223,-0.233 0.311,-0.327 l 2.004,-1.962 -0.922,2.405 c -0.03,0.063 -0.06,0.14 -0.105,0.253 l -0.142,0.368 c -0.048,0.121 -0.091,0.259 -0.161,0.497 -0.043,0.15 -0.09,0.307 -0.143,0.438 -0.124,0.357 -0.283,0.723 -0.463,1.129 l -0.061,0.115 c -0.075,0.141 -0.15,0.283 -0.24,0.432 -0.117,0.18 -0.245,0.351 -0.368,0.495 -0.102,0.128 -0.212,0.241 -0.321,0.343 l 0.139,-0.021 c 0.125,-0.026 0.25,-0.03 0.394,-0.031 l 0.271,-0.013 1.777,0.002 -1.284,0.907 c -0.005,0.005 -0.058,0.042 -0.195,0.147 -0.049,0.03 -0.102,0.084 -0.166,0.142 l -0.2,0.176 c -0.085,0.063 -0.169,0.148 -0.258,0.235 -0.082,0.08 -0.167,0.163 -0.242,0.229 -0.106,0.1 -0.216,0.197 -0.347,0.306 l -0.116,0.088 c 0.018,-0.006 0.036,-0.013 0.053,-0.02 0.136,-0.051 0.264,-0.093 0.379,-0.13 0.1,-0.032 0.188,-0.06 0.293,-0.103 0.14,-0.046 0.22,-0.078 0.226,-0.081 l 2.238,-0.875 -1.703,1.696 c -0.004,0.004 -0.065,0.065 -0.194,0.204 -0.044,0.041 -0.093,0.093 -0.149,0.152 -0.098,0.105 -0.212,0.226 -0.349,0.351 -0.069,0.061 -0.14,0.131 -0.214,0.204 -0.164,0.16 -0.343,0.334 -0.531,0.477 -0.259,0.214 -0.549,0.413 -0.874,0.629 0.086,-0.008 0.167,-0.013 0.243,-0.019 0.094,-0.007 0.176,-0.012 0.292,-0.027 0.195,-0.009 0.304,-0.007 0.307,-0.008 l 1.091,0.033 0.909,-1.532 -0.298,1.55 0.237,0.008 -0.265,0.137 -0.239,1.243 c -0.009,0.044 -0.02,0.103 -0.037,0.222 -0.03,0.133 -0.037,0.381 -0.043,0.643 l -0.004,0.136 c -0.002,0.068 -0.003,0.14 -0.002,0.213 l 0.078,-0.291 c 0.167,-0.516 0.335,-1.033 0.528,-1.503 0.139,-0.355 0.297,-0.684 0.441,-0.983 l 0.146,-0.307 c 0.091,-0.202 0.192,-0.382 0.283,-0.537 l 1.69,-2.709 -0.409,2.749 c -0.023,0.101 -0.038,0.228 -0.062,0.419 -0.022,0.157 -0.045,0.332 -0.079,0.527 -0.014,0.075 -0.026,0.153 -0.038,0.234 0.104,-0.228 0.214,-0.453 0.334,-0.665 0.21,-0.386 0.453,-0.724 0.659,-1.01 0.111,-0.16 0.23,-0.298 0.397,-0.476 l 0.21,-0.223 c 0.119,-0.109 0.183,-0.176 0.19,-0.184 l 1.721,-1.862 -0.885,2.376 c -0.004,0.01 -0.035,0.097 -0.091,0.293 -0.027,0.073 -0.049,0.167 -0.075,0.273 l -0.117,0.457 c -0.02,0.066 -0.038,0.136 -0.056,0.209 0.062,-0.072 0.123,-0.143 0.184,-0.212 l 0.12,-0.134 c 0.307,-0.291 0.656,-0.621 1.016,-0.864 0.14,-0.109 0.293,-0.202 0.44,-0.289 l 0.137,-0.081 c 0.166,-0.09 0.319,-0.172 0.456,-0.251 0.296,-0.172 0.578,-0.26 0.764,-0.319 l 0.123,-0.037 c 0.165,-0.033 0.254,-0.056 0.262,-0.058 l 2.023,-0.532 -1.564,1.389 c -0.007,0.007 -0.075,0.069 -0.196,0.196 -0.081,0.076 -0.17,0.193 -0.274,0.326 l -0.166,0.209 c -0.057,0.064 -0.103,0.148 -0.153,0.232 l -1.025,1.868 c -0.163,0.273 -0.332,0.555 -0.536,0.773 -0.187,0.238 -0.403,0.424 -0.594,0.588 -0.075,0.064 -0.146,0.126 -0.211,0.187 0.186,-0.067 0.37,-0.129 0.55,-0.18 0.202,-0.06 0.401,-0.113 0.592,-0.162 0.21,-0.054 0.408,-0.106 0.585,-0.165 l 0.504,-0.13 c 0.13,-0.036 0.242,-0.07 0.353,-0.108 l 3.069,-0.934 -2.588,1.924 c -0.082,0.057 -0.18,0.129 -0.286,0.208 l -0.107,0.088 c -0.097,0.083 -0.202,0.17 -0.311,0.24 -0.125,0.085 -0.258,0.183 -0.397,0.287 -0.194,0.143 -0.401,0.295 -0.619,0.439 -0.133,0.091 -0.273,0.176 -0.414,0.257 0.004,-0.001 0.009,-0.001 0.013,-0.002 0.199,-0.044 0.372,-0.079 0.537,-0.138 0.098,-0.027 0.174,-0.055 0.242,-0.08 l 0.101,-0.038 0.433,0.897 c -0.007,0.004 -0.122,0.074 -0.337,0.222 -0.078,0.047 -0.166,0.111 -0.266,0.181 -0.182,0.129 -0.397,0.281 -0.717,0.464 -0.392,0.217 -0.836,0.464 -1.338,0.681 -0.437,0.196 -0.901,0.368 -1.363,0.529 0.051,-0.008 0.104,-0.016 0.158,-0.026 0.413,-0.066 0.769,-0.124 1.028,-0.211 0.073,-0.017 0.133,-0.039 0.274,-0.086 l 2.962,-1.045 -2.383,1.875 c 0,0 -0.133,0.104 -0.399,0.298 l -0.124,0.082 c -0.237,0.159 -0.562,0.374 -0.973,0.573 -0.23,0.111 -0.481,0.232 -0.764,0.359 -0.282,0.117 -0.583,0.229 -0.892,0.323 -0.059,0.019 -0.12,0.038 -0.182,0.057 l -0.64,0.794 c -0.052,0.076 -0.138,0.169 -0.299,0.329 l -0.084,0.069 c -0.057,0.044 -0.121,0.092 -0.192,0.141 l -0.102,0.063 c -0.065,0.042 -0.134,0.085 -0.197,0.118 -0.196,0.107 -0.462,0.242 -0.766,0.32 -0.415,0.117 -0.812,0.215 -1.184,0.29 l -0.305,0.188 2.251,-0.249 -3.245,1.409 c -0.076,0.034 -0.169,0.077 -0.288,0.119 -0.3,0.106 -0.753,0.266 -1.326,0.374 -0.032,0.005 -0.065,0.011 -0.099,0.016 l -1.08,0.664 c -0.066,0.04 -0.167,0.095 -0.314,0.17 -0.24,0.113 -0.613,0.279 -1.075,0.419 -0.004,0.001 -0.008,0.002 -0.011,0.003 0.067,-0.013 0.135,-0.025 0.201,-0.038 l 0.216,-0.042 c 0.19,-0.038 0.377,-0.072 0.557,-0.105 0.256,-0.047 0.498,-0.091 0.718,-0.144 0.2,-0.046 0.385,-0.082 0.549,-0.114 0.138,-0.027 0.259,-0.05 0.376,-0.078 l 3.689,-0.74 -3.042,1.619 c 0.443,-0.07 0.799,-0.14 1.083,-0.212 0.222,-0.059 0.429,-0.1 0.611,-0.135 0.133,-0.025 0.25,-0.048 0.372,-0.081 l 4.531,-1.003 -3.842,1.861 c -0.008,0.004 -0.118,0.058 -0.328,0.175 -0.048,0.023 -0.101,0.053 -0.157,0.087 0.272,-0.065 0.541,-0.128 0.801,-0.183 0.255,-0.055 0.503,-0.106 0.729,-0.147 l 0.642,-0.13 c 0.212,-0.045 0.41,-0.075 0.588,-0.1 l 5.118,-0.6 -4.46,1.599 c -0.103,0.031 -0.227,0.078 -0.376,0.135 l -0.526,0.195 c -0.184,0.063 -0.381,0.14 -0.586,0.223 l -0.227,0.096 1.366,-0.195 c 0.255,-0.035 0.496,-0.066 0.71,-0.119 l 0.217,-0.049 c 0.202,-0.046 0.377,-0.081 0.551,-0.152 0.061,-0.018 0.107,-0.041 0.226,-0.094 l 2.228,-1.011 -1.711,1.871 c -0.046,0.05 -0.111,0.12 -0.251,0.241 -0.058,0.049 -0.128,0.106 -0.209,0.169 l 0.033,-0.003 c 0.098,-0.011 0.197,-0.02 0.307,-0.027 0.511,-0.018 1.001,-0.013 1.444,0.005 0.232,0.003 0.455,0.017 0.657,0.031 0.184,0.009 0.357,0.015 0.523,0.004 0.294,-0.015 0.597,-0.03 0.818,-0.083 0.057,-0.007 0.101,-0.021 0.134,-0.03 l 0.121,0.245 -0.015,-0.275 3.59,-1.068 -2.951,1.828 0.176,0.01 c 0.155,0.016 0.245,0.021 0.253,0.022 l 1.998,0.102 -1.811,0.85 c -0.008,0.004 -0.088,0.042 -0.273,0.14 -0.059,0.024 -0.126,0.064 -0.203,0.106 -0.128,0.073 -0.274,0.154 -0.446,0.229 -0.11,0.045 -0.225,0.101 -0.347,0.16 -0.186,0.091 -0.386,0.188 -0.585,0.265 -0.022,0.009 -0.043,0.017 -0.065,0.026 0.25,0.079 0.517,0.168 0.806,0.269 0.534,0.208 1.099,0.433 1.613,0.687 0.392,0.187 0.755,0.39 1.081,0.573 l 0.277,0.154 c 0.138,0.078 0.265,0.157 0.383,0.229 l 0.212,0.132 c 0.119,0.075 0.223,0.142 0.344,0.211 0.2,0.133 0.317,0.204 0.322,0.207 l 3.084,1.874 -3.478,-0.965" /><path
       inkscape:connector-curvature="0"
       id="path156"
       style="fill:#231311;fill-opacity:1;fill-rule:nonzero;stroke:none;stroke-width:0.1"
       d="m 335.157,98.491 c -1.377,0.0449 -6.973,0.1781 -7.418,0.4 -0.444,0.2219 -1.732,0.8 -2.043,0.711 -0.311,-0.0891 0.133,-0.8 0,-1.1989 -0.133,-0.4 0.577,-1.2441 -0.977,-3.4211 -1.555,-2.1761 -3.909,-6.307 -4.531,-6.5738 -0.622,-0.266 -4.486,-0.5773 -5.108,0 -0.622,0.5777 -5.286,4.702 -6.041,5.4379 -0.755,0.7359 -0.356,3.4461 -1.111,4.0238 -0.755,0.577 -3.775,1.9102 -4.353,2.8871 -0.577,0.977 -3.775,5.552 -3.82,6.218 -0.044,0.667 -0.533,0.711 0,1.289 0.533,0.577 1.377,0.488 1.599,1.288 0.222,0.799 0.889,2.576 0.178,3.109 -0.711,0.533 -3.909,1.555 -4.22,0.667 -0.311,-0.889 1.244,-3.51 0.622,-3.998 -0.622,-0.489 -1.244,-2.665 -1.066,-3.954 0.178,-1.288 0.912,-2.842 0.256,-2.976 -0.656,-0.133 -2.122,1.821 -2.077,2.577 0.044,0.755 1.51,4.441 1.199,5.108 -0.311,0.666 -2.088,1.11 -2.443,1.777 -0.355,0.666 -1.955,2.665 -2.976,1.554 -1.022,-1.11 -2.354,-0.977 -1.999,-1.91 0.355,-0.932 2.132,-2.088 1.332,-2.754 -0.799,-0.666 -0.828,-3.775 -1.391,-4.486 -0.563,-0.711 -2.118,-0.711 -1.851,-2.754 0.266,-2.0429 1.954,-4.664 1.332,-5.6858 -0.621,-1.0211 -3.464,-4.7532 -4.397,-5.8192 -0.933,-1.066 -2.443,-3.598 -2.177,-5.5519 0.094,-0.6832 0.2,-1.7153 0.271,-2.8469 -0.265,-0.9281 1.381,-3.6441 1.159,-4.5043 -1.052,-4.0648 -3.855,-7.2891 -3.925,-7.9187 -0.07,-0.6313 0.21,-9.0403 0,-10.4422 -0.21,-1.402 1.261,-0.911 1.892,-0.841 0.631,0.0699 -0.56,1.9621 -0.42,3.2941 0.14,1.3309 0.21,6.5871 1.121,7.6379 0.911,1.0519 5.396,6.448 5.817,8.6199 0,0 3.083,-3.6437 3.083,-7.8488 0,-4.2039 1.892,-5.1153 3.784,-7.568 1.892,-2.4531 1.472,-4.0641 3.084,-4.275 1.612,-0.2101 2.733,0.0699 2.453,0.9809 -0.281,0.9109 -0.982,0.2101 -3.224,3.0129 -2.243,2.8043 -4.065,7.2191 -3.644,8.83 0.42,1.6121 1.752,4.836 1.542,6.2371 0,0 5.886,-2.1718 10.511,-1.0511 0,0 0.771,-7.9188 0.491,-10.7918 -0.28,-2.8731 0.631,-4.8352 0.491,-5.6762 -0.141,-0.841 2.172,-1.332 2.733,-0.841 0.56,0.4902 -1.542,1.8223 -1.542,2.6633 0,0.841 0.14,5.3258 0.14,7.5679 0,2.243 1.332,6.527 1.332,6.527 0,0 6.377,-4.0039 7.007,-5.4762 0.631,-1.4711 -3.153,-7.0777 -4.485,-7.7078 -1.331,-0.6312 0.841,-2.1031 1.192,-2.1031 0.35,0 0,0.7012 0.63,1.9629 0.631,1.2613 4.906,5.8863 5.256,6.9371 0.351,1.0519 -1.611,4.0648 -4.134,5.7469 -2.523,1.682 -1.682,2.7332 -1.122,3.2941 0.561,0.5602 1.823,1.3309 2.243,1.3309 0.317,0 3.13,1.5621 5.55,2.4023 0.24,0.118 0.464,0.2477 0.647,0.4039 2.088,1.777 5.286,8.0399 6.086,8.7949 0.799,0.7551 2.043,2.5321 2.487,2.6649 0.445,0.1332 1.333,0.3551 1.955,0.4 0.832,0.059 1.466,1.2441 2.398,1.066 0.933,-0.1777 2.133,0.7992 2.088,1.466 -0.044,0.666 -0.089,2.043 -1.466,2.0871" /><path
       inkscape:connector-curvature="0"
       id="path158"
       style="fill:#231311;fill-opacity:1;fill-rule:nonzero;stroke:none;stroke-width:0.1"
       d="m 397.719,97.393 c -0.157,0.3121 -0.157,1.1718 -0.86,0.9379 -0.704,-0.2348 -2.423,-0.8598 -3.361,-0.8598 -0.938,0 -2.969,0.5469 -3.204,0.0781 -0.234,-0.4691 -0.156,-4.5332 -1.563,-6.4082 -1.407,-1.8758 -3.204,-3.5172 -4.767,-3.2051 -1.563,0.3129 -4.846,1.6422 -6.487,3.8301 -1.641,2.1879 -6.643,6.6449 -7.19,6.6051 -0.547,-0.0402 2.11,1.2098 1.641,1.8349 -0.469,0.626 -3.986,0.782 -4.22,2.267 -0.234,1.485 -1.094,3.985 -0.469,5.001 0.625,1.016 1.563,1.251 1.251,2.111 -0.313,0.859 -3.361,3.126 -4.377,1.797 -1.016,-1.329 0.625,-2.501 0,-3.204 -0.625,-0.704 -1.251,-4.611 -1.563,-4.611 -0.313,0 -0.469,5.08 -0.782,5.627 0,0 1.798,2.735 1.564,3.517 -0.235,0.781 -0.47,3.673 -1.564,3.36 -1.094,-0.312 -3.438,-1.563 -3.438,-2.423 0,-0.859 0.781,-1.562 0.469,-2.422 -0.313,-0.86 -4.611,-6.331 -3.439,-10.316 0,0 -2.97,-7.0338 -5.627,-9.0659 -2.095,-1.6019 -3.557,-5.6332 -4.657,-9.4882 -0.04,-0.1868 0,-5.384 -1.667,-10.1957 -0.878,-2.5364 -1.967,-2.9071 -1.967,-4.1903 0,-0.7617 0.603,-3.391 1.092,-5.6519 0.336,-1.55 0.619,-2.927 0.619,-3.4141 0,-1.1969 1.282,-1.0258 1.881,-0.9398 0.599,0.0851 -1.967,7.782 -1.454,9.0648 0.513,1.2832 3.25,6.7563 4.961,6.8422 1.71,0.0848 2.736,-0.5129 2.736,-0.5129 0,0 -2.394,-4.448 -1.454,-5.3031 0.941,-0.8551 6.928,-7.184 7.27,-7.868 0.342,-0.684 -0.428,-1.5391 0.256,-1.7101 0.685,-0.1711 2.737,-0.684 2.737,0.171 0,0.8551 -0.941,3.4211 -3.25,5.0461 -2.309,1.625 -4.19,5.3868 -3.421,7.0118 0.77,1.625 2.481,4.875 2.481,4.875 0,0 6.157,-1.2829 11.032,0.3421 0,0 -0.803,-7.0371 -0.348,-9.2218 0.455,-2.184 0,-7.009 0.364,-8.0102 0.364,-1.0012 2.567,-1.2121 3.286,-0.7879 0.719,0.4239 -1.465,2.6989 -1.465,4.1559 0,1.4562 0.928,11.6512 1.465,12.0152 0.537,0.3649 2.267,1.093 2.631,1.4567 0,0 6.099,-3.8227 6.099,-5.3707 0,-1.5473 -2.549,-8.0102 -3.095,-8.7383 -0.546,-0.7289 1.638,-1.9117 2.366,-2.0938 0.729,-0.182 -0.182,2.6399 0.911,4.9149 1.092,2.2761 3.277,5.7351 2.73,7.2832 -0.546,1.5468 -7.24,6.7707 -6.694,7.864 0,0 6.006,-0.5222 11.31,2.9657 0.886,0.307 1.724,0.7421 2.399,1.3601 2.736,2.5012 4.611,6.8781 5.237,7.8149 0.625,0.9382 1.743,1.8871 2.735,1.9543 1.328,0.0898 4.298,0.2347 4.142,1.3289 -0.156,1.0937 -3.126,2.266 -3.282,2.5789" /><path
       inkscape:connector-curvature="0"
       id="path160"
       style="fill:#231311;fill-opacity:1;fill-rule:nonzero;stroke:none;stroke-width:0.1"
       d="m 265.973,94.577 c -1.109,0.6468 -6.101,1.4789 -6.748,2.1261 -0.647,0.6469 -1.849,-0.1851 -2.034,-0.4621 -0.185,-0.2769 -2.845,-2.5879 -2.993,-3.5129 -0.149,-0.9242 -2.008,-7.7601 -8.478,-6.4652 0,0 -8.135,8.2262 -9.429,8.5961 -1.294,0.3699 -2.496,1.6832 -2.68,2.0898 -0.185,0.4063 0.739,1.4231 0.647,2.2551 -0.093,0.8311 -4.53,0.8311 -4.53,2.1261 0,1.294 -0.647,4.067 -1.294,4.806 -0.647,0.74 -1.849,1.11 -1.849,1.387 0,0.277 0.832,0.555 1.017,1.756 0.185,1.202 0.462,2.681 -0.185,3.051 -0.647,0.369 -3.327,0.739 -3.789,0 -0.463,-0.74 0.184,-3.143 0,-4.252 -0.185,-1.11 -1.11,-3.328 -1.11,-3.328 0,0 -0.092,1.109 0,1.756 0.093,0.647 1.952,6.03 -0.041,6.251 -1.992,0.22 -3.564,-1.259 -3.564,-2.461 0,-1.202 0.462,-2.496 0.462,-2.496 0,0 -3.605,-2.958 -4.437,-3.79 -0.831,-0.832 -2.126,-1.848 -1.479,-3.42 0.648,-1.5709 1.849,-2.588 1.664,-3.79 -0.185,-1.2012 -0.185,-6.0078 -0.739,-6.3781 -0.519,-0.3457 -5.321,-5.3797 -5.941,-8.2989 0.131,-2.091 0.139,-4.5332 -0.299,-5.7648 -0.674,-1.8941 -2.656,-4.932 -2.568,-5.9453 0.089,-1.0129 0.661,-4.4481 1.278,-5.8129 0.616,-1.366 1.409,-5.5488 1.409,-6.298 0,-0.7489 1.673,-0.661 2.598,-0.4848 0.925,0.1758 -0.396,1.234 -0.748,1.982 -0.353,0.7488 -1.762,5.2848 -1.806,6.65 -0.044,1.3656 -0.749,2.5988 -0.088,3.6988 0.66,1.102 2.862,5.6379 3.171,5.5059 0.308,-0.1328 -1.586,-5.0207 -1.586,-5.55 0,-0.5277 4.889,-9.3359 4.757,-10.4367 -0.133,-1.1012 1.189,-1.277 2.466,-1.1891 1.277,0.0879 -0.044,1.1891 -0.529,2.1578 -0.484,0.9692 -4.272,7.927 -3.963,9.0282 0.308,1.1011 4.198,7.9761 4.844,7.6191 2.06,-1.1371 9.776,-1.773 12.507,-0.3961 0.819,0.4121 1.145,-7.7949 0.441,-9.3371 -0.705,-1.541 -1.321,-2.818 -2.951,-3.523 -1.629,-0.7051 -2.598,-1.3649 -2.95,-1.3649 -0.353,0 -1.366,0.616 -2.026,0.132 -0.661,-0.4851 -1.982,-1.7179 -1.718,-2.0261 0.264,-0.3078 3.964,-0.22 5.417,0.4402 1.453,0.6609 5.241,3.127 6.166,3.5238 0.924,0.3961 1.233,9.3801 1.541,10.2172 0,0 2.278,-6.2371 2.719,-8.1301 0.44,-1.8941 1.365,-4.889 1.233,-5.505 -0.132,-0.6172 -0.396,-1.5422 0.132,-1.586 0.529,-0.0441 2.334,-0.616 2.334,0.2199 0,0.8372 -1.673,4.4918 -1.894,5.8141 -0.22,1.3211 -0.294,10.368 0.279,11.293 0.572,0.925 2.155,0.9121 2.964,1.2758 0.374,0.1679 8.435,1.4722 12.625,3.7921 2.112,1.3891 3.299,3.3559 4.842,6.168 0,0 1.387,3.3281 2.403,3.236 1.017,-0.093 5.177,-1.0129 5.362,0.0019 0.185,1.0152 0.277,2.4012 -0.832,3.0481" /><path
       inkscape:connector-curvature="0"
       id="path162"
       style="fill:#231311;fill-opacity:1;fill-rule:nonzero;stroke:none;stroke-width:0.1"
       d="m 414.267,57.7719 c -0.397,-0.377 -4.102,0.7351 -4.53,1.2863 -0.429,0.5508 0.061,0.9789 0.734,1.959 0.674,0.9789 2.633,5.4488 2.939,6.1219 0.306,0.673 0.551,3.9179 0.551,4.8371 0,0.9179 0.918,6.1828 1.408,7.3457 0.49,1.164 0.551,4.1633 1.225,5.2043 0.673,1.041 1.224,2.3269 1.224,2.6328 0,0.3058 1.041,1.5301 1.286,1.959 0.297,0.5199 0.339,1.2129 0.58,1.7672 0.167,0.3847 0.383,0.7617 0.69,1.0546 0.178,0.1704 0.331,0.2102 0.553,0.3032 0.249,0.1039 0.473,0.2652 0.739,0.325 0.397,0.0879 0.744,0.1031 1.136,-0.0098 0.51,-0.1473 1.259,-0.4113 1.531,-0.9113 0.088,-0.161 0.087,-0.211 0.219,-0.3028 0.145,-0.1011 0.208,-0.0613 0.22,-0.2609 0.008,-0.1352 -0.067,-0.2781 -0.038,-0.432 0.022,-0.1192 0.151,-0.2641 0.163,-0.3692 0.023,-0.2 -0.111,-0.189 -0.23,-0.298 -0.122,-0.111 -0.135,-0.2371 -0.163,-0.3879 -0.006,-0.0281 -0.083,-0.327 -0.082,-0.3289 0.008,-0.0141 0.301,-0.5543 -0.001,-0.7953 -0.306,-0.2449 -0.592,-1.3199 -1.265,-1.3199 0,0 0.485,-1.3868 0.763,-1.8028 0.277,-0.416 0.485,-0.6422 0.537,-0.6242 0.052,0.0172 0.954,0.1211 0.971,-0.1219 0.017,-0.2422 -0.087,-0.4332 0.191,-0.5722 0.277,-0.1379 0.728,-0.9879 0.416,-1.1789 -0.312,-0.1911 -0.919,-0.9711 -0.902,-1.1622 0.018,-0.1898 0.104,-1.2648 -0.381,-1.2648 -0.486,0 -1.092,0.1379 -1.11,-0.0348 -0.017,-0.173 -0.832,-3.0523 -1.3,-4.0754 -0.469,-1.0226 -0.937,-1.3867 -0.729,-1.8546 0.208,-0.468 1.856,-1.5262 2.151,-3.468 0.294,-1.9422 -0.538,-4.8383 -0.729,-5.809 -0.19,-0.9711 -0.468,-2.8953 -0.346,-3.1211 0.121,-0.225 0.242,-0.5199 0.52,-0.5199 0.277,0 1.595,-0.0172 1.682,-0.3641 0.086,-0.3472 -0.867,-1.4742 -2.965,-1.5429 -2.098,-0.0704 -2.48,-0.243 -2.896,-0.0704 -0.416,0.1743 -0.902,-0.1039 -1.613,0.0184 -0.711,0.1207 -2.202,0.9707 -2.809,1.109 -0.607,0.1387 -1.924,0.4508 -2.011,0.4168 -0.087,-0.0348 -0.208,-0.8848 -0.104,-1.1449 0.104,-0.2602 2.371,-1.627 1.775,-2.1922" /><path
       inkscape:connector-curvature="0"
       id="path164"
       style="fill:#231311;fill-opacity:1;fill-rule:nonzero;stroke:none;stroke-width:0.1"
       d="m 415.565,81.2602 c -6.529,0 -15.91,2.3109 -23.201,13.4539 l 0.418,0.273 C 404.961,76.375 423.027,82.8219 423.208,82.8902 l 0.174,-0.4691 c -0.076,-0.0281 -3.247,-1.1609 -7.817,-1.1609" /><path
       inkscape:connector-curvature="0"
       id="path166"
       style="fill:#231311;fill-opacity:1;fill-rule:nonzero;stroke:none;stroke-width:0.1"
       d="m 346.242,84.7738 c -3.899,0 -11.616,1.4321 -17.207,11.5981 l 0.438,0.2402 c 3.956,-7.191 8.953,-9.8332 12.448,-10.7832 3.778,-1.025 6.644,-0.3547 6.673,-0.3488 l 0.117,-0.486 c -0.033,-0.0082 -0.969,-0.2203 -2.469,-0.2203" /><path
       inkscape:connector-curvature="0"
       id="path168"
       style="fill:#231311;fill-opacity:1;fill-rule:nonzero;stroke:none;stroke-width:0.1"
       d="m 277.811,82.3398 c -5.544,0 -13.582,2.1082 -19.829,12.3813 l 0.428,0.259 c 2.977,-4.8949 8.302,-10.9531 16.767,-12.0153 5.077,-0.6367 8.922,0.8461 8.959,0.8614 l 0.183,-0.4653 c -0.064,-0.025 -2.697,-1.0211 -6.508,-1.0211" /></g></svg>