<?xml version="1.0" encoding="iso-8859-1"?>
<!-- Generator: Adobe Illustrator 19.0.0, SVG Export Plug-In . SVG Version: 6.00 Build 0)  -->
<svg version="1.1" id="Layer_1" xmlns="http://www.w3.org/2000/svg" xmlns:xlink="http://www.w3.org/1999/xlink" x="0px" y="0px"
	 viewBox="0 0 512 512" style="enable-background:new 0 0 512 512;" xml:space="preserve">
<path style="fill:#6A563D;" d="M495.304,478.609h-16.696v-66.783v-33.391V278.261V244.87V144.696v-33.391V33.391h16.696
	c9.217,0,16.696-7.473,16.696-16.696S504.521,0,495.304,0h-33.391H50.087H16.696C7.479,0,0,7.473,0,16.696
	s7.479,16.696,16.696,16.696h16.696v77.913v33.391V244.87v33.391v100.174v33.391v66.783H16.696C7.479,478.609,0,486.082,0,495.304
	S7.479,512,16.696,512h33.391h411.826h33.391c9.217,0,16.696-7.473,16.696-16.696S504.521,478.609,495.304,478.609z M66.783,33.391
	h378.435v11.13v66.783H66.783V33.391z M66.783,144.696h378.435V244.87H66.783V144.696z M66.783,278.261h378.435v100.174H66.783
	V278.261z M445.217,434.087v44.522H66.783v-66.783h378.435V434.087z"/>
<path style="fill:#554431;" d="M478.609,378.435V278.261V244.87V144.696v-33.391V33.391h16.696c9.217,0,16.696-7.473,16.696-16.696
	S504.521,0,495.304,0h-33.391H256v33.391h189.217v11.13v66.783H256v33.391h189.217V244.87H256v33.391h189.217v100.174H256v33.391
	h189.217v22.261v44.522H256V512h205.913h33.391c9.217,0,16.696-7.473,16.696-16.696s-7.479-16.696-16.696-16.696h-16.696v-66.783
	V378.435z"/>
<g>
	<path style="fill:#AA6100;" d="M150.261,178.087c-27.619,0-50.087-22.468-50.087-50.087s22.468-50.087,50.087-50.087
		s50.087,22.468,50.087,50.087S177.88,178.087,150.261,178.087z"/>
	<path style="fill:#AA6100;" d="M283.826,178.087c-27.619,0-50.087-22.468-50.087-50.087s22.468-50.087,50.087-50.087
		s50.087,22.468,50.087,50.087S311.445,178.087,283.826,178.087z"/>
	<path style="fill:#AA6100;" d="M150.261,311.652c-27.619,0-50.087-22.468-50.087-50.087s22.468-50.087,50.087-50.087
		s50.087,22.468,50.087,50.087S177.88,311.652,150.261,311.652z"/>
	<path style="fill:#AA6100;" d="M283.826,311.652c-27.619,0-50.087-22.468-50.087-50.087s22.468-50.087,50.087-50.087
		s50.087,22.468,50.087,50.087S311.445,311.652,283.826,311.652z"/>
	<path style="fill:#AA6100;" d="M150.261,445.217c-27.619,0-50.087-22.468-50.087-50.087c0-27.619,22.468-50.087,50.087-50.087
		s50.087,22.468,50.087,50.087C200.348,422.749,177.88,445.217,150.261,445.217z"/>
</g>
<g>
	<path style="fill:#884E00;" d="M200.348,395.13c0-27.619-22.468-50.087-50.087-50.087v100.174
		C177.88,445.217,200.348,422.749,200.348,395.13z"/>
	<path style="fill:#884E00;" d="M200.348,261.565c0-27.619-22.468-50.087-50.087-50.087v100.174
		C177.88,311.652,200.348,289.184,200.348,261.565z"/>
	<path style="fill:#884E00;" d="M200.348,128c0-27.619-22.468-50.087-50.087-50.087v100.174
		C177.88,178.087,200.348,155.619,200.348,128z"/>
	<path style="fill:#884E00;" d="M333.913,261.565c0-27.619-22.468-50.087-50.087-50.087v100.174
		C311.445,311.652,333.913,289.184,333.913,261.565z"/>
	<path style="fill:#884E00;" d="M333.913,128c0-27.619-22.468-50.087-50.087-50.087v100.174
		C311.445,178.087,333.913,155.619,333.913,128z"/>
</g>
<g>
</g>
<g>
</g>
<g>
</g>
<g>
</g>
<g>
</g>
<g>
</g>
<g>
</g>
<g>
</g>
<g>
</g>
<g>
</g>
<g>
</g>
<g>
</g>
<g>
</g>
<g>
</g>
<g>
</g>
</svg>
