<?xml version="1.0" encoding="iso-8859-1"?>
<!-- Generator: Adobe Illustrator 19.0.0, SVG Export Plug-In . SVG Version: 6.00 Build 0)  -->
<svg version="1.1" id="Layer_1" xmlns="http://www.w3.org/2000/svg" xmlns:xlink="http://www.w3.org/1999/xlink" x="0px" y="0px"
	 viewBox="0 0 511.999 511.999" style="enable-background:new 0 0 511.999 511.999;" xml:space="preserve">
<g>
	<path style="fill:#AA6100;" d="M495.304,459.13H16.695c-6.749,0-12.837-4.065-15.423-10.305s-1.152-13.424,3.62-18.196
		l372.87-372.87c6.521-6.521,17.087-6.521,23.609,0c6.521,6.516,6.521,17.092,0,23.609L57,425.739h438.304
		c9.217,0,16.696,7.473,16.696,16.696C511.999,451.657,504.521,459.13,495.304,459.13z"/>
	<path style="fill:#AA6100;" d="M239.304,459.13H16.695c-6.749,0-12.837-4.065-15.423-10.305s-1.152-13.424,3.62-18.196
		l157.336-157.332c6.521-6.521,17.087-6.521,23.609,0c45.25,45.245,70.163,105.311,70.163,169.137
		C255.999,451.657,248.521,459.13,239.304,459.13z M57,425.739h164.945c-3.456-43.114-20.24-83.571-48.381-116.56L57,425.739z"/>
</g>
<g>
	<path style="fill:#884E00;" d="M495.304,425.739H57l344.37-344.37c6.521-6.516,6.521-17.092,0-23.609l0,0L16.695,442.435h495.304
		C511.999,433.212,504.521,425.739,495.304,425.739z"/>
	<path style="fill:#884E00;" d="M16.695,442.435h222.609c0-61.372-24.964-117.025-65.274-157.334L16.695,442.435z M57,425.739
		l116.566-116.56c28.141,32.99,44.924,73.445,48.381,116.56H57z"/>
</g>
<g>
</g>
<g>
</g>
<g>
</g>
<g>
</g>
<g>
</g>
<g>
</g>
<g>
</g>
<g>
</g>
<g>
</g>
<g>
</g>
<g>
</g>
<g>
</g>
<g>
</g>
<g>
</g>
<g>
</g>
</svg>
