<?xml version="1.0" encoding="iso-8859-1"?>
<!-- Generator: Adobe Illustrator 19.0.0, SVG Export Plug-In . SVG Version: 6.00 Build 0)  -->
<svg version="1.1" id="Layer_1" xmlns="http://www.w3.org/2000/svg" xmlns:xlink="http://www.w3.org/1999/xlink" x="0px" y="0px"
	 viewBox="0 0 512 512" style="enable-background:new 0 0 512 512;" xml:space="preserve">
<path style="fill:#6DC82A;" d="M495.304,512H16.696C7.479,512,0,504.521,0,495.304V16.696C0,7.479,7.479,0,16.696,0h478.609
	C504.521,0,512,7.479,512,16.696v478.609C512,504.521,504.521,512,495.304,512z"/>
<path style="fill:#61B325;" d="M495.304,0H256v512h239.304c9.217,0,16.696-7.479,16.696-16.696V16.696
	C512,7.479,504.521,0,495.304,0z"/>
<path style="fill:#FFFFFF;" d="M183.652,445.217H139.13c-21.478,0-38.957-17.478-38.957-38.957V296.304l-28.499-28.499
	c-6.521-6.521-6.521-17.087,0-23.609l28.499-28.501V105.739c0-21.478,17.478-38.957,38.957-38.957h44.522
	c9.217,0,16.696,7.479,16.696,16.696s-7.479,16.696-16.696,16.696H139.13c-3.065,0-5.565,2.5-5.565,5.565v116.87
	c0,4.424-1.761,8.674-4.892,11.804L107.087,256l21.587,21.587c3.13,3.13,4.891,7.379,4.891,11.804v116.87
	c0,3.065,2.5,5.565,5.565,5.565h44.522c9.217,0,16.696,7.479,16.696,16.696C200.348,437.739,192.869,445.217,183.652,445.217z"/>
<path style="fill:#FFE6B3;" d="M372.87,445.217h-44.522c-9.217,0-16.696-7.479-16.696-16.696c0-9.217,7.479-16.696,16.696-16.696
	h44.522c3.065,0,5.565-2.5,5.565-5.565v-116.87c0-4.424,1.761-8.674,4.892-11.804L404.913,256l-21.587-21.587
	c-3.13-3.13-4.891-7.379-4.891-11.804v-116.87c0-3.065-2.5-5.565-5.565-5.565h-44.522c-9.217,0-16.696-7.479-16.696-16.696
	s7.479-16.696,16.696-16.696h44.522c21.478,0,38.957,17.478,38.957,38.957v109.956l28.499,28.499c6.521,6.521,6.521,17.087,0,23.609
	l-28.499,28.501v109.956C411.826,427.739,394.348,445.217,372.87,445.217z"/>
<g>
</g>
<g>
</g>
<g>
</g>
<g>
</g>
<g>
</g>
<g>
</g>
<g>
</g>
<g>
</g>
<g>
</g>
<g>
</g>
<g>
</g>
<g>
</g>
<g>
</g>
<g>
</g>
<g>
</g>
</svg>
