<?xml version="1.0" encoding="iso-8859-1"?>
<!-- Generator: Adobe Illustrator 19.0.0, SVG Export Plug-In . SVG Version: 6.00 Build 0)  -->
<svg version="1.1" id="Layer_1" xmlns="http://www.w3.org/2000/svg" xmlns:xlink="http://www.w3.org/1999/xlink" x="0px" y="0px"
	 viewBox="0 0 512 512" style="enable-background:new 0 0 512 512;" xml:space="preserve">
<path style="fill:#6A563D;" d="M489.739,512H22.261c-9.217,0-16.696-7.473-16.696-16.696V16.696C5.565,7.473,13.044,0,22.261,0
	h467.478c9.217,0,16.696,7.473,16.696,16.696v478.609C506.435,504.527,498.956,512,489.739,512z"/>
<path style="fill:#554431;" d="M489.739,0H256v512h233.739c9.217,0,16.696-7.473,16.696-16.696V16.696
	C506.435,7.473,498.956,0,489.739,0z"/>
<path style="fill:#00D7DF;" d="M422.957,155.826H89.043c-9.217,0-16.696-7.473-16.696-16.696V83.478
	c0-9.223,7.479-16.696,16.696-16.696h333.913c9.217,0,16.696,7.473,16.696,16.696v55.652
	C439.652,148.353,432.174,155.826,422.957,155.826z"/>
<path style="fill:#00B6BD;" d="M422.957,66.783H256v89.043h166.957c9.217,0,16.696-7.473,16.696-16.696V83.478
	C439.652,74.256,432.174,66.783,422.957,66.783z"/>
<g>
	<path style="fill:#FFFFFF;" d="M77.913,300.522c-3.065,0-5.565-2.494-5.565-5.565v-66.783c0-3.071,2.5-5.565,5.565-5.565h66.783
		c3.065,0,5.565,2.494,5.565,5.565v66.783c0,3.071-2.5,5.565-5.565,5.565H77.913z"/>
	<path style="fill:#FFFFFF;" d="M77.913,445.217c-3.065,0-5.565-2.494-5.565-5.565V372.87c0-3.071,2.5-5.565,5.565-5.565h66.783
		c3.065,0,5.565,2.494,5.565,5.565v66.783c0,3.071-2.5,5.565-5.565,5.565H77.913z"/>
	<path style="fill:#FFFFFF;" d="M222.609,445.217c-3.065,0-5.565-2.494-5.565-5.565V372.87c0-3.071,2.5-5.565,5.565-5.565h66.783
		c3.065,0,5.565,2.494,5.565,5.565v66.783c0,3.071-2.5,5.565-5.565,5.565H222.609z"/>
</g>
<path style="fill:#FFE6B3;" d="M289.391,367.304H256v77.913h33.391c3.065,0,5.565-2.494,5.565-5.565V372.87
	C294.957,369.799,292.457,367.304,289.391,367.304z"/>
<path style="fill:#FFFFFF;" d="M222.609,300.522c-3.065,0-5.565-2.494-5.565-5.565v-66.783c0-3.071,2.5-5.565,5.565-5.565h66.783
	c3.065,0,5.565,2.494,5.565,5.565v66.783c0,3.071-2.5,5.565-5.565,5.565H222.609z"/>
<path style="fill:#FFE6B3;" d="M289.391,222.609H256v77.913h33.391c3.065,0,5.565-2.494,5.565-5.565v-66.783
	C294.957,225.103,292.457,222.609,289.391,222.609z"/>
<path style="fill:#6DC82A;" d="M367.304,445.217c-3.065,0-5.565-2.494-5.565-5.565V228.174c0-3.071,2.5-5.565,5.565-5.565h66.783
	c3.065,0,5.565,2.494,5.565,5.565v211.478c0,3.071-2.5,5.565-5.565,5.565H367.304z"/>
<g>
</g>
<g>
</g>
<g>
</g>
<g>
</g>
<g>
</g>
<g>
</g>
<g>
</g>
<g>
</g>
<g>
</g>
<g>
</g>
<g>
</g>
<g>
</g>
<g>
</g>
<g>
</g>
<g>
</g>
</svg>
