<?xml version="1.0" encoding="iso-8859-1"?>
<!-- Generator: Adobe Illustrator 19.0.0, SVG Export Plug-In . SVG Version: 6.00 Build 0)  -->
<svg version="1.1" id="Layer_1" xmlns="http://www.w3.org/2000/svg" xmlns:xlink="http://www.w3.org/1999/xlink" x="0px" y="0px"
	 viewBox="0 0 512 512" style="enable-background:new 0 0 512 512;" xml:space="preserve">
<path style="fill:#554431;" d="M389.524,512c-7.337,0-14.075-4.881-16.098-12.31l-16.26-59.614
	c-2.424-8.891,2.815-18.07,11.717-20.5c8.859-2.419,18.076,2.815,20.5,11.717l16.26,59.614c2.424,8.891-2.815,18.07-11.717,20.5
	C392.458,511.81,390.98,512,389.524,512z"/>
<path style="fill:#C2DFF6;" d="M122.418,512c-1.457,0-2.935-0.19-4.402-0.592c-8.902-2.43-14.141-11.609-11.717-20.5l16.26-59.614
	c2.424-8.902,11.652-14.141,20.5-11.717c8.902,2.43,14.141,11.609,11.717,20.5l-16.26,59.614
	C136.494,507.119,129.755,512,122.418,512z"/>
<path style="fill:#E6F4FF;" d="M255.971,194.78c-36.824,0-66.782-29.958-66.782-66.782c0-2.374,0.129-4.718,0.372-7.029
	l-16.198-2.863L99.124,390.289c-3.522,12.908-1.804,26.412,4.837,38.038c6.641,11.609,17.413,19.946,30.337,23.473
	c4.326,1.18,8.761,1.777,13.185,1.777c22.511,0,42.369-15.185,48.293-36.924l60.514-221.881
	C256.183,194.773,256.077,194.78,255.971,194.78z"/>
<path style="fill:#C2DFF6;" d="M215.238,180.866l-80.94,270.933c4.326,1.18,8.761,1.777,13.185,1.777
	c22.511,0,42.369-15.185,48.293-36.924l60.514-221.881c-0.107,0-0.211,0.008-0.318,0.008
	C240.646,194.78,226.521,189.579,215.238,180.866z"/>
<path style="fill:#E6F4FF;" d="M256.03,194.78c36.824,0,66.782-29.958,66.782-66.782c0-2.374-0.129-4.718-0.372-7.029l16.198-2.863
	l74.238,272.182c3.522,12.908,1.804,26.412-4.837,38.038c-6.641,11.609-17.413,19.946-30.337,23.473
	c-4.326,1.18-8.761,1.777-13.185,1.777c-22.511,0-42.369-15.185-48.293-36.924l-60.514-221.881
	C255.817,194.773,255.922,194.78,256.03,194.78z"/>
<path style="fill:#C2DFF6;" d="M296.761,180.866l80.94,270.933c-4.326,1.18-8.761,1.777-13.185,1.777
	c-22.511,0-42.369-15.185-48.293-36.924l-60.514-221.881c0.107,0,0.211,0.008,0.318,0.008
	C271.354,194.78,285.479,189.579,296.761,180.866z"/>
<path style="fill:#554431;" d="M255.971,77.912c-9.217,0-16.695-7.473-16.695-16.695V16.695C239.275,7.473,246.753,0,255.971,0
	c9.217,0,16.695,7.473,16.695,16.695v44.521C272.666,70.439,265.189,77.912,255.971,77.912z"/>
<path style="fill:#00D7DF;" d="M255.971,44.521c-46.032,0-83.477,37.446-83.477,83.477s37.446,83.477,83.477,83.477
	s83.477-37.446,83.477-83.477S302.003,44.521,255.971,44.521z M255.971,178.085c-27.618,0-50.086-22.469-50.086-50.086
	s22.469-50.086,50.086-50.086s50.086,22.469,50.086,50.086S283.589,178.085,255.971,178.085z"/>
<path style="fill:#00B6BD;" d="M306.057,127.999c0,27.618-22.469,50.086-50.086,50.086v33.391c46.032,0,83.477-37.446,83.477-83.477
	s-37.446-83.477-83.477-83.477v33.391C283.589,77.912,306.057,100.381,306.057,127.999z"/>
<g>
</g>
<g>
</g>
<g>
</g>
<g>
</g>
<g>
</g>
<g>
</g>
<g>
</g>
<g>
</g>
<g>
</g>
<g>
</g>
<g>
</g>
<g>
</g>
<g>
</g>
<g>
</g>
<g>
</g>
</svg>
