<?xml version="1.0" encoding="iso-8859-1"?>
<!-- Generator: Adobe Illustrator 19.0.0, SVG Export Plug-In . SVG Version: 6.00 Build 0)  -->
<svg version="1.1" id="Layer_1" xmlns="http://www.w3.org/2000/svg" xmlns:xlink="http://www.w3.org/1999/xlink" x="0px" y="0px"
	 viewBox="0 0 512 512" style="enable-background:new 0 0 512 512;" xml:space="preserve">
<path style="fill:#00D7DF;" d="M434.502,387.453L271.324,10.066C268.737,4.082,262.718,0,256.003,0c-0.003,0-0.008,0-0.011,0
	c-6.567,0-12.689,3.989-15.318,10.066L77.486,387.479c-0.15,0.345-0.387,0.913-0.532,1.262c-3.058,7.51-4.608,15.277-4.608,23.085
	C72.346,483.666,184.02,512,255.999,512c71.984,0,183.653-28.339,183.653-100.175C439.653,403.33,437.801,395.049,434.502,387.453z"
	/>
<path style="fill:#00B6BD;" d="M255.992,512c0.002,0,0.004,0,0.007,0c71.984,0,183.653-28.339,183.653-100.175
	c0-8.496-1.852-16.776-5.151-24.372L271.324,10.066C268.737,4.082,262.718,0,256.003,0c-0.003,0-0.008,0-0.011,0v100.171V512z"/>
<path style="fill:#00D7DF;" d="M256,512c-47.138,0-91.715-9.31-125.523-26.213c-37.485-18.743-58.13-45.01-58.13-73.961
	c0-7.809,1.55-15.575,4.608-23.085c0.194-0.469,0.352-0.846,0.514-1.223c9.834-22.744,32.894-42.041,66.702-55.845
	c32.085-13.098,70.754-20.022,111.83-20.022s79.746,6.924,111.83,20.022c33.809,13.803,56.869,33.101,66.686,55.811
	c0.174,0.403,0.345,0.808,0.511,1.213c3.075,7.549,4.626,15.318,4.626,23.129c0,28.953-20.645,55.218-58.13,73.961
	C347.715,502.69,303.137,512,256,512z"/>
<path style="fill:#00F6FF;" d="M144.17,331.672c-33.808,13.803-56.868,33.101-66.702,55.845c-0.163,0.377-0.321,0.755-0.514,1.223
	c-3.058,7.51-4.608,15.277-4.608,23.085c0,28.953,20.645,55.218,58.13,73.961C164.283,502.69,208.862,512,255.999,512V311.651
	C214.924,311.651,176.254,318.575,144.17,331.672z"/>
<g>
</g>
<g>
</g>
<g>
</g>
<g>
</g>
<g>
</g>
<g>
</g>
<g>
</g>
<g>
</g>
<g>
</g>
<g>
</g>
<g>
</g>
<g>
</g>
<g>
</g>
<g>
</g>
<g>
</g>
</svg>
