<?xml version="1.0" encoding="iso-8859-1"?>
<!-- Generator: Adobe Illustrator 19.0.0, SVG Export Plug-In . SVG Version: 6.00 Build 0)  -->
<svg version="1.1" id="Layer_1" xmlns="http://www.w3.org/2000/svg" xmlns:xlink="http://www.w3.org/1999/xlink" x="0px" y="0px"
	 viewBox="0 0 512.001 512.001" style="enable-background:new 0 0 512.001 512.001;" xml:space="preserve">
<path style="fill:#00F6FF;" d="M506.814,5.009L323.896,188.104H0.001c0-0.623,0.033-1.247,0.089-1.859
	c0.033-0.301,0.067-0.601,0.111-0.902c0.122-0.89,0.312-1.77,0.579-2.616c0.089-0.278,0.178-0.557,0.267-0.824
	c0.1-0.278,0.2-0.545,0.312-0.813c0.111-0.267,0.223-0.523,0.345-0.779c0,0,0-0.011,0.011-0.033
	c0.111-0.245,0.234-0.479,0.367-0.723c0.223-0.434,0.467-0.857,0.735-1.258c0.623-0.957,1.347-1.848,2.182-2.671l170.63-170.63
	c1.38-1.369,2.972-2.493,4.686-3.306C182.618,0.579,185.155,0,187.693,0H494.86C501.983,0,506.625,4.797,506.814,5.009z"/>
<path style="fill:#00B6BD;" d="M512.001,17.028v307.168c0,4.484-1.86,8.857-5.05,12.069l-170.657,170.63
	c-3.174,3.179-7.751,5.106-12.397,5.106V188.104L506.809,5.005C507.853,5.927,512.001,10.017,512.001,17.028z"/>
<path style="fill:#00D7DF;" d="M323.896,188.104V512H17.064c-9.121,0-17.063-7.489-17.063-17.174V188.104H323.896z"/>
<path style="fill:#00F6FF;" d="M336.265,506.894l170.63-170.63c0.607-0.611,1.148-1.277,1.654-1.968
	c-0.551-4.592-3.495-7.235-4.258-7.235c-1.08-0.719-2.383-1.371-3.277-1.706c-0.014,0-0.01-0.012-0.022,0
	c-1.459-0.575-4.045-1.188-4.664-1.242c-0.363-0.038-1.107-0.218-1.467-0.218H187.693c-4.421,0-8.812,1.91-12.069,5.145
	C-5.345,510.089,4.151,500.167,2.308,503.339c3.33,5.789,9.183,8.661,14.756,8.661h307.133
	C328.622,512,333.268,509.895,336.265,506.894z"/>
<g>
	<path style="fill:#00D7DF;" d="M508.549,334.298c-0.551-4.591-3.495-7.235-4.259-7.235c-1.08-0.719-2.383-1.371-3.277-1.706
		c-0.014,0-0.01-0.012-0.022,0c-1.459-0.575-4.045-1.188-4.664-1.242c-0.363-0.038-1.107-0.218-1.467-0.218H323.896v188.104
		c4.517,0,9.064-1.795,12.369-5.106l170.63-170.63c0.318-0.321,0.613-0.661,0.905-1.005
		C507.909,335.128,508.473,334.422,508.549,334.298z"/>
	<path style="fill:#00D7DF;" d="M180.314,1.692v186.413H0.001c0-0.623,0.033-1.247,0.089-1.859c0.033-0.301,0.067-0.601,0.111-0.902
		c0.134-0.902,0.323-1.77,0.579-2.616c0.089-0.278,0.178-0.557,0.267-0.824c0.1-0.278,0.2-0.545,0.312-0.813
		c0.111-0.267,0.223-0.523,0.345-0.779c0,0,0-0.011,0.011-0.033c0.111-0.245,0.234-0.479,0.367-0.723
		c0.223-0.434,0.467-0.857,0.735-1.258c0.623-0.957,1.347-1.848,2.182-2.671l170.63-170.63C177.008,3.629,178.6,2.504,180.314,1.692
		z"/>
</g>
<path style="fill:#00B6BD;" d="M2.308,503.339c1.843-3.172-7.653,6.749,173.316-174.299c1.385-1.375,2.981-2.492,4.689-3.344
	V188.104H0.001v306.721c0,4.21,1.503,8.003,3.948,10.948l0.031-0.026C3.374,505.009,2.81,504.211,2.308,503.339z"/>
<g>
</g>
<g>
</g>
<g>
</g>
<g>
</g>
<g>
</g>
<g>
</g>
<g>
</g>
<g>
</g>
<g>
</g>
<g>
</g>
<g>
</g>
<g>
</g>
<g>
</g>
<g>
</g>
<g>
</g>
</svg>
