<?xml version="1.0" encoding="iso-8859-1"?>
<!-- Generator: Adobe Illustrator 19.0.0, SVG Export Plug-In . SVG Version: 6.00 Build 0)  -->
<svg version="1.1" id="Layer_1" xmlns="http://www.w3.org/2000/svg" xmlns:xlink="http://www.w3.org/1999/xlink" x="0px" y="0px"
	 viewBox="0 0 512 512" style="enable-background:new 0 0 512 512;" xml:space="preserve">
<path style="fill:#00D7DF;" d="M439.652,100.124c0-8.008-1.66-15.844-4.636-23.098c-2.608-6.37-6.2-12.309-10.531-17.801
	c-7.594-9.612-17.414-17.906-28.876-25.119C356.314,9.451,302.392,0.004,256,0c-46.681,0.003-100.993,9.541-140.309,34.549
	c-12.551,8.001-23.117,17.312-30.856,28.269c-7.785,11.048-12.487,23.696-12.487,37.32c0,0.012,0,0.023,0,0.036v311.652
	c0,0.017,0,0.033,0,0.05c0,8.008,1.66,15.844,4.636,23.098c2.608,6.37,6.2,12.309,10.531,17.801
	c7.594,9.612,17.414,17.906,28.876,25.119c39.295,24.654,93.216,34.1,139.61,34.106c46.681-0.003,100.994-9.541,140.309-34.549
	c12.551-8.001,23.117-17.312,30.856-28.268c7.785-11.049,12.487-23.697,12.487-37.323c0-0.011,0-0.022,0-0.033V100.174
	C439.652,100.157,439.652,100.141,439.652,100.124z"/>
<path style="fill:#00B6BD;" d="M396.309,477.45c12.551-8.001,23.117-17.312,30.856-28.268c7.785-11.049,12.487-23.697,12.487-37.321
	c0-0.011,0-0.022,0-0.034V100.174c0-0.017,0-0.033,0-0.05c0-8.008-1.66-15.844-4.636-23.098c-2.608-6.37-6.2-12.309-10.531-17.801
	c-7.594-9.612-17.414-17.906-28.876-25.119C356.314,9.451,302.392,0.004,256,0v512C302.681,511.997,356.994,502.458,396.309,477.45z
	"/>
<path style="fill:#00D7DF;" d="M256,512c-47.137,0-91.715-9.31-125.522-26.213c-37.485-18.743-58.13-45.008-58.13-73.961
	c0-7.809,1.55-15.575,4.608-23.085c0.194-0.469,0.352-0.846,0.514-1.223c9.834-22.744,32.894-42.041,66.701-55.845
	c32.085-13.097,70.754-20.021,111.829-20.021s79.744,6.924,111.83,20.021c33.809,13.803,56.869,33.101,66.686,55.81
	c0.174,0.403,0.345,0.808,0.511,1.213c3.074,7.549,4.626,15.317,4.626,23.129c0,28.952-20.645,55.218-58.13,73.961
	C347.715,502.69,303.137,512,256,512z"/>
<path style="fill:#00F6FF;" d="M144.17,331.674c-33.808,13.803-56.868,33.101-66.701,55.845c-0.163,0.377-0.321,0.755-0.514,1.223
	c-3.056,7.51-4.607,15.275-4.607,23.085c0,28.952,20.645,55.218,58.13,73.961C164.285,502.69,208.863,512,256,512V311.652
	C214.925,311.652,176.256,318.576,144.17,331.674z"/>
<path style="fill:#00D7DF;" d="M256,200.348c-47.137,0-91.715-9.309-125.522-26.213c-37.485-18.743-58.13-45.008-58.13-73.961
	c0-7.809,1.55-15.575,4.608-23.085c0.194-0.469,0.352-0.846,0.514-1.223c9.834-22.744,32.894-42.041,66.701-55.845
	C176.256,6.924,214.925,0,256,0s79.744,6.924,111.83,20.021c33.809,13.803,56.869,33.101,66.686,55.81
	c0.174,0.403,0.345,0.808,0.511,1.213c3.074,7.549,4.626,15.317,4.626,23.129c0,28.952-20.645,55.218-58.13,73.961
	C347.715,191.038,303.137,200.348,256,200.348z"/>
<path style="fill:#00F6FF;" d="M144.17,20.021c-33.808,13.804-56.867,33.102-66.7,55.845c-0.163,0.377-0.321,0.755-0.514,1.223
	c-3.058,7.51-4.608,15.275-4.608,23.085c0,28.952,20.645,55.218,58.13,73.961c33.808,16.904,78.385,26.213,125.522,26.213V0
	C214.925,0,176.256,6.924,144.17,20.021z"/>
<g>
</g>
<g>
</g>
<g>
</g>
<g>
</g>
<g>
</g>
<g>
</g>
<g>
</g>
<g>
</g>
<g>
</g>
<g>
</g>
<g>
</g>
<g>
</g>
<g>
</g>
<g>
</g>
<g>
</g>
</svg>
