<?xml version="1.0" encoding="iso-8859-1"?>
<!-- Generator: Adobe Illustrator 19.0.0, SVG Export Plug-In . SVG Version: 6.00 Build 0)  -->
<svg version="1.1" id="Layer_1" xmlns="http://www.w3.org/2000/svg" xmlns:xlink="http://www.w3.org/1999/xlink" x="0px" y="0px"
	 viewBox="0 0 512 512" style="enable-background:new 0 0 512 512;" xml:space="preserve">
<path style="fill:#00D7DF;" d="M489.739,512H22.261c-9.217,0-16.696-7.473-16.696-16.696V16.696C5.565,7.473,13.044,0,22.261,0
	h467.478c9.217,0,16.696,7.473,16.696,16.696v478.609C506.435,504.527,498.956,512,489.739,512z"/>
<path style="fill:#00B6BD;" d="M489.739,0H256v512h233.739c9.217,0,16.696-7.473,16.696-16.696V16.696
	C506.435,7.473,498.956,0,489.739,0z"/>
<g>
	<path style="fill:#FFFFFF;" d="M436.815,385.642l-164.119-94.756V83.478c0-9.223-7.479-16.696-16.696-16.696
		s-16.696,7.473-16.696,16.696v207.407L75.13,385.668c-7.989,4.609-10.717,14.82-6.108,22.804c3.086,5.358,8.706,8.353,14.467,8.353
		c2.837-0.006,5.707-0.722,8.337-2.245L256,319.799l164.119,94.756c7.978,4.609,18.196,1.891,22.804-6.108
		C447.533,400.462,444.804,390.25,436.815,385.642z"/>
	<path style="fill:#FFFFFF;" d="M89.043,256h15.348l-27.153,27.153c-4.772,4.772-6.206,11.956-3.62,18.196
		s8.675,10.303,15.425,10.303h55.652c9.217,0,16.696-7.473,16.696-16.696s-7.479-16.696-16.696-16.696h-15.348l27.153-27.153
		c4.772-4.772,6.206-11.956,3.62-18.196c-2.587-6.24-8.675-10.303-15.425-10.303H89.043c-9.217,0-16.696,7.473-16.696,16.696
		S79.826,256,89.043,256z"/>
</g>
<g>
	<path style="fill:#FFE6B3;" d="M420.119,414.554c7.978,4.609,18.196,1.891,22.804-6.108c4.609-7.984,1.88-18.196-6.108-22.804
		l-164.119-94.756V83.478c0-9.223-7.479-16.696-16.696-16.696v253.016L420.119,414.554z"/>
	<path style="fill:#FFE6B3;" d="M429.87,278.261l10.457-10.457c6.521-6.516,6.521-17.092,0-23.609
		c-6.521-6.521-17.087-6.521-23.609,0l-10.457,10.457l-10.457-10.457c-6.521-6.521-17.087-6.521-23.609,0
		c-6.521,6.516-6.521,17.092,0,23.609l10.457,10.457l-10.457,10.457c-6.521,6.516-6.521,17.092,0,23.609
		c3.261,3.261,7.533,4.892,11.804,4.892s8.544-1.631,11.804-4.892l10.457-10.457l10.457,10.457
		c3.261,3.261,7.533,4.892,11.804,4.892s8.544-1.631,11.804-4.892c6.521-6.516,6.521-17.092,0-23.609L429.87,278.261z"/>
	<path style="fill:#FFE6B3;" d="M317.217,107.087v21.571c0,9.223,7.479,16.696,16.696,16.696c9.217,0,16.696-7.473,16.696-16.696
		v-21.571l17.369-17.369c6.521-6.516,6.521-17.092,0-23.609c-6.521-6.521-17.087-6.521-23.609,0l-10.456,10.456l-10.457-10.457
		c-6.521-6.521-17.087-6.521-23.609,0c-6.521,6.516-6.521,17.092,0,23.609L317.217,107.087z"/>
</g>
<g>
</g>
<g>
</g>
<g>
</g>
<g>
</g>
<g>
</g>
<g>
</g>
<g>
</g>
<g>
</g>
<g>
</g>
<g>
</g>
<g>
</g>
<g>
</g>
<g>
</g>
<g>
</g>
<g>
</g>
</svg>
