<?xml version="1.0" encoding="iso-8859-1"?>
<!-- Generator: Adobe Illustrator 19.0.0, SVG Export Plug-In . SVG Version: 6.00 Build 0)  -->
<svg version="1.1" id="Layer_1" xmlns="http://www.w3.org/2000/svg" xmlns:xlink="http://www.w3.org/1999/xlink" x="0px" y="0px"
	 viewBox="0 0 512 512" style="enable-background:new 0 0 512 512;" xml:space="preserve">
<path style="fill:#FF5023;" d="M256,512C114.839,512,0,397.161,0,256S114.839,0,256,0s256,114.839,256,256S397.161,512,256,512z"/>
<path style="fill:#CD2A00;" d="M512,256C512,114.839,397.161,0,256,0v512C397.161,512,512,397.161,512,256z"/>
<g>
	<path style="fill:#FFFFFF;" d="M294.948,309.343c-3.169,0-6.377-0.897-9.214-2.783l-139.161-92.308
		c-4.664-3.093-7.469-8.317-7.469-13.916c0-5.599,2.805-10.823,7.469-13.916l139.161-92.308c7.686-5.078,18.053-3.006,23.146,4.686
		c5.099,7.686,3,18.047-4.686,23.146l-118.183,78.392l118.183,78.392c7.686,5.099,9.785,15.46,4.686,23.146
		C305.668,306.724,300.358,309.343,294.948,309.343z"/>
	<path style="fill:#FFFFFF;" d="M356.196,372.895H155.804c-9.225,0-16.699-7.475-16.699-16.699c0-9.225,7.475-16.699,16.699-16.699
		h200.391c9.225,0,16.699,7.475,16.699,16.699C372.895,365.42,365.42,372.895,356.196,372.895z"/>
</g>
<g>
	<path style="fill:#FFE6B3;" d="M356.196,339.496H256v33.399h100.196c9.225,0,16.699-7.475,16.699-16.699
		C372.895,346.971,365.42,339.496,356.196,339.496z"/>
	<path style="fill:#FFE6B3;" d="M285.735,94.112L256,113.836v40.077l48.195-31.969c7.686-5.099,9.785-15.46,4.686-23.146
		C303.788,91.106,293.421,89.034,285.735,94.112z"/>
	<path style="fill:#FFE6B3;" d="M294.948,309.343c5.408,0,10.72-2.621,13.933-7.469c5.099-7.686,3-18.047-4.686-23.146L256,246.759
		v40.077l29.735,19.724C288.573,308.446,291.78,309.343,294.948,309.343z"/>
</g>
<g>
</g>
<g>
</g>
<g>
</g>
<g>
</g>
<g>
</g>
<g>
</g>
<g>
</g>
<g>
</g>
<g>
</g>
<g>
</g>
<g>
</g>
<g>
</g>
<g>
</g>
<g>
</g>
<g>
</g>
</svg>
