<?xml version="1.0" encoding="iso-8859-1"?>
<!-- Generator: Adobe Illustrator 19.0.0, SVG Export Plug-In . SVG Version: 6.00 Build 0)  -->
<svg version="1.1" id="Layer_1" xmlns="http://www.w3.org/2000/svg" xmlns:xlink="http://www.w3.org/1999/xlink" x="0px" y="0px"
	 viewBox="0 0 512 512" style="enable-background:new 0 0 512 512;" xml:space="preserve">
<path style="fill:#00D7DF;" d="M256,512C114.839,512,0,397.161,0,256S114.839,0,256,0s256,114.839,256,256S397.161,512,256,512z"/>
<path style="fill:#00B6BD;" d="M512,256C512,114.839,397.161,0,256,0v512C397.161,512,512,397.161,512,256z"/>
<path style="fill:#FFFFFF;" d="M389.594,283.832H259.43l29.688-66.797h100.475c9.225,0,16.699-7.475,16.699-16.699
	c0-9.225-7.475-16.699-16.699-16.699H303.96l34.094-76.712c3.745-8.431-0.049-18.298-8.474-22.043
	c-8.425-3.734-18.292,0.06-22.043,8.474l-40.125,90.281H122.406c-9.225,0-16.699,7.475-16.699,16.699
	c0,9.225,7.475,16.699,16.699,16.699H252.57l-29.688,66.797H122.406c-9.225,0-16.699,7.475-16.699,16.699
	c0,9.225,7.475,16.699,16.699,16.699h85.633l-34.094,76.712c-3.745,8.431,0.049,18.298,8.474,22.043
	c2.207,0.979,4.507,1.446,6.773,1.446c6.398,0,12.502-3.702,15.27-9.921l40.125-90.281h145.008c9.225,0,16.699-7.475,16.699-16.699
	C406.294,291.307,398.819,283.832,389.594,283.832z"/>
<path style="fill:#FFE6B3;" d="M389.594,217.035c9.225,0,16.699-7.475,16.699-16.699c0-9.225-7.475-16.699-16.699-16.699h-85.633
	l34.094-76.712c3.745-8.431-0.049-18.298-8.474-22.043c-8.425-3.734-18.292,0.06-22.043,8.474l-40.125,90.281H256v133.594h133.594
	c9.225,0,16.699-7.475,16.699-16.699c0-9.225-7.475-16.699-16.699-16.699H259.43l29.688-66.797L389.594,217.035L389.594,217.035z"/>
<g>
</g>
<g>
</g>
<g>
</g>
<g>
</g>
<g>
</g>
<g>
</g>
<g>
</g>
<g>
</g>
<g>
</g>
<g>
</g>
<g>
</g>
<g>
</g>
<g>
</g>
<g>
</g>
<g>
</g>
</svg>
