<?xml version="1.0" encoding="iso-8859-1"?>
<!-- Generator: Adobe Illustrator 19.0.0, SVG Export Plug-In . SVG Version: 6.00 Build 0)  -->
<svg version="1.1" id="Layer_1" xmlns="http://www.w3.org/2000/svg" xmlns:xlink="http://www.w3.org/1999/xlink" x="0px" y="0px"
	 viewBox="0 0 512 512" style="enable-background:new 0 0 512 512;" xml:space="preserve">
<path style="fill:#FFCD00;" d="M256,512C114.839,512,0,397.156,0,256S114.839,0,256,0s256,114.844,256,256S397.161,512,256,512z"/>
<path style="fill:#FFA733;" d="M512,256C512,114.844,397.161,0,256,0v512C397.161,512,512,397.156,512,256z"/>
<path style="fill:#FFFFFF;" d="M356.196,272.699c9.225,0,16.699-7.48,16.699-16.699s-7.475-16.699-16.699-16.699h-83.159
	l29.688-66.797h53.471c9.225,0,16.699-7.48,16.699-16.699c0-9.219-7.475-16.699-16.699-16.699h-38.628l9.355-21.048
	c3.745-8.425-0.049-18.298-8.474-22.049c-8.425-3.74-18.292,0.066-22.043,8.48l-15.386,34.617h-58.419
	c-64.455,0-116.895,52.436-116.895,116.895c0,49.655,31.172,92.061,74.927,108.975l-17.824,40.102
	c-3.745,8.425,0.049,18.298,8.474,22.049c2.207,0.979,4.507,1.435,6.773,1.435c6.398,0,12.502-3.696,15.27-9.915l20.529-46.192
	c2.898,0.215,5.792,0.443,8.744,0.443h133.594c9.225,0,16.699-7.48,16.699-16.699s-7.475-16.699-16.699-16.699H228.505
	l29.688-66.797h98.003V272.699z M222.601,172.504h43.575l-29.687,66.797h-95.701C148.545,201.233,182.277,172.504,222.601,172.504z
	 M194.213,334.422c-26.997-9.807-47.586-33.075-53.424-61.723h80.857L194.213,334.422z"/>
<g>
	<path style="fill:#FFE6B3;" d="M356.196,172.504c9.225,0,16.699-7.48,16.699-16.699c0-9.219-7.475-16.699-16.699-16.699h-38.628
		l9.355-21.048c3.745-8.425-0.049-18.298-8.474-22.049c-8.425-3.74-18.292,0.066-22.043,8.48l-15.386,34.617H256v33.399h10.177
		L256,195.399v82.235l2.193-4.936h98.003c9.225,0,16.699-7.48,16.699-16.699S365.42,239.3,356.196,239.3h-83.159l29.688-66.797
		h53.471V172.504z"/>
	<path style="fill:#FFE6B3;" d="M372.895,356.196c0-9.219-7.475-16.699-16.699-16.699H256v33.399h100.196
		C365.42,372.895,372.895,365.415,372.895,356.196z"/>
</g>
<g>
</g>
<g>
</g>
<g>
</g>
<g>
</g>
<g>
</g>
<g>
</g>
<g>
</g>
<g>
</g>
<g>
</g>
<g>
</g>
<g>
</g>
<g>
</g>
<g>
</g>
<g>
</g>
<g>
</g>
</svg>
