<?xml version="1.0" encoding="iso-8859-1"?>
<!-- Generator: Adobe Illustrator 19.0.0, SVG Export Plug-In . SVG Version: 6.00 Build 0)  -->
<svg version="1.1" id="Layer_1" xmlns="http://www.w3.org/2000/svg" xmlns:xlink="http://www.w3.org/1999/xlink" x="0px" y="0px"
	 viewBox="0 0 512 512" style="enable-background:new 0 0 512 512;" xml:space="preserve">
<path style="fill:#5D5E5E;" d="M367.304,512H144.696c-9.217,0-16.696-7.479-16.696-16.696c0-9.217,7.479-16.696,16.696-16.696
	h222.609c9.217,0,16.696,7.479,16.696,16.696C384,504.521,376.521,512,367.304,512z"/>
<path style="fill:#3E3D42;" d="M367.304,478.609H256V512h111.304c9.217,0,16.696-7.479,16.696-16.696
	C384,486.087,376.521,478.609,367.304,478.609z"/>
<path style="fill:#5D5E5E;" d="M289.391,512h-66.783c-9.217,0-16.696-7.479-16.696-16.696V395.13
	c0-9.217,7.479-16.696,16.696-16.696h66.783c9.217,0,16.696,7.479,16.696,16.696v100.174C306.087,504.521,298.608,512,289.391,512z"
	/>
<path style="fill:#3E3D42;" d="M306.087,395.13c0-9.217-7.479-16.696-16.696-16.696H256V512h33.391
	c9.217,0,16.696-7.479,16.696-16.696"/>
<path style="fill:#E6F4FF;" d="M489.739,367.304H22.261c-9.217,0-16.696-7.479-16.696-16.696V16.696C5.565,7.479,13.044,0,22.261,0
	h467.478c9.217,0,16.696,7.479,16.696,16.696v333.913C506.435,359.826,498.956,367.304,489.739,367.304z"/>
<path style="fill:#C2DFF6;" d="M489.739,0H256v367.304h233.739c9.217,0,16.696-7.479,16.696-16.696V16.696
	C506.435,7.479,498.956,0,489.739,0z"/>
<path style="fill:#FFCD00;" d="M278.261,278.261h-44.522c-9.217,0-16.696-7.479-16.696-16.696V116.87
	c0-9.217,7.479-16.696,16.696-16.696h44.522c9.217,0,16.696,7.479,16.696,16.696v144.696
	C294.957,270.782,287.478,278.261,278.261,278.261z"/>
<path style="fill:#FFA733;" d="M278.261,100.174H256v178.087h22.261c9.217,0,16.696-7.479,16.696-16.696V116.87
	C294.957,107.652,287.478,100.174,278.261,100.174z"/>
<path style="fill:#CD2A00;" d="M411.826,278.261h-44.522c-9.217,0-16.696-7.479-16.696-16.696v-77.913
	c0-9.217,7.479-16.696,16.696-16.696h44.522c9.217,0,16.696,7.479,16.696,16.696v77.913
	C428.522,270.782,421.043,278.261,411.826,278.261z"/>
<path style="fill:#6DC82A;" d="M144.696,278.261h-44.522c-9.217,0-16.696-7.479-16.696-16.696V83.478
	c0-9.217,7.479-16.696,16.696-16.696h44.522c9.217,0,16.696,7.479,16.696,16.696v178.087
	C161.391,270.782,153.913,278.261,144.696,278.261z"/>
<path style="fill:#5D5E5E;" d="M22.261,411.826h467.478c9.22,0,16.696-7.475,16.696-16.696v-83.478H5.565v83.478
	C5.565,404.351,13.04,411.826,22.261,411.826z"/>
<path style="fill:#3E3D42;" d="M256,411.826h233.739c9.22,0,16.696-7.475,16.696-16.696v-83.478H256V411.826z"/>
<g>
</g>
<g>
</g>
<g>
</g>
<g>
</g>
<g>
</g>
<g>
</g>
<g>
</g>
<g>
</g>
<g>
</g>
<g>
</g>
<g>
</g>
<g>
</g>
<g>
</g>
<g>
</g>
<g>
</g>
</svg>
