<?xml version="1.0" encoding="iso-8859-1"?>
<!-- Generator: Adobe Illustrator 19.0.0, SVG Export Plug-In . SVG Version: 6.00 Build 0)  -->
<svg version="1.1" id="Layer_1" xmlns="http://www.w3.org/2000/svg" xmlns:xlink="http://www.w3.org/1999/xlink" x="0px" y="0px"
	 viewBox="0 0 512 512" style="enable-background:new 0 0 512 512;" xml:space="preserve">
<path style="fill:#AA6100;" d="M456.348,512H55.652c-9.223,0-16.696-7.473-16.696-16.696V16.696C38.957,7.473,46.429,0,55.652,0
	h400.696c9.223,0,16.696,7.473,16.696,16.696v478.609C473.043,504.527,465.57,512,456.348,512z"/>
<path style="fill:#884E00;" d="M456.348,512c4.611,0,8.785-1.868,11.807-4.888c3.021-3.022,4.888-7.196,4.888-11.807V256V16.696
	c0-4.611-1.868-8.785-4.888-11.807C465.133,1.868,460.959,0,456.348,0H256v512H456.348z"/>
<path style="fill:#FF5023;" d="M389.571,200.348c-4.864,0-9.598-2.125-12.831-6.006l-42.827-51.39l-42.827,51.391
	c-4.506,5.392-11.918,7.386-18.511,5.011c-6.608-2.397-11.01-8.675-11.01-15.702V0h144.696v183.652
	c0,7.027-4.402,13.304-11.011,15.701C393.392,200.022,391.467,200.348,389.571,200.348z"/>
<path style="fill:#CD2A00;" d="M333.913,142.952l42.827,51.391c3.233,3.88,7.967,6.006,12.831,6.006c1.897,0,3.821-0.326,5.68-0.995
	c6.608-2.397,11.01-8.675,11.01-15.702V0h-72.348V142.952z"/>
<g>
	<path style="fill:#FFCD00;" d="M356.174,345.043H222.609c-9.223,0-16.696-7.473-16.696-16.696s7.473-16.696,16.696-16.696h133.565
		c9.223,0,16.696,7.473,16.696,16.696S365.397,345.043,356.174,345.043z"/>
	<path style="fill:#FFCD00;" d="M389.565,411.826H189.217c-9.223,0-16.696-7.473-16.696-16.696c0-9.223,7.473-16.696,16.696-16.696
		h200.348c9.223,0,16.696,7.473,16.696,16.696C406.261,404.353,398.788,411.826,389.565,411.826z"/>
</g>
<g>
	<path style="fill:#FFA733;" d="M389.565,378.435H256v33.391h133.565c9.223,0,16.696-7.473,16.696-16.696
		C406.261,385.908,398.788,378.435,389.565,378.435z"/>
	<path style="fill:#FFA733;" d="M356.174,311.652H256v33.391h100.174c9.223,0,16.696-7.473,16.696-16.696
		S365.397,311.652,356.174,311.652z"/>
</g>
<rect x="105.739" style="fill:#FFE6B3;" width="33.391" height="512"/>
<g>
</g>
<g>
</g>
<g>
</g>
<g>
</g>
<g>
</g>
<g>
</g>
<g>
</g>
<g>
</g>
<g>
</g>
<g>
</g>
<g>
</g>
<g>
</g>
<g>
</g>
<g>
</g>
<g>
</g>
</svg>
