<?xml version="1.0" encoding="iso-8859-1"?>
<!-- Generator: Adobe Illustrator 19.0.0, SVG Export Plug-In . SVG Version: 6.00 Build 0)  -->
<svg version="1.1" id="Layer_1" xmlns="http://www.w3.org/2000/svg" xmlns:xlink="http://www.w3.org/1999/xlink" x="0px" y="0px"
	 viewBox="0 0 512 512" style="enable-background:new 0 0 512 512;" xml:space="preserve">
<path style="fill:#AA6100;" d="M456.348,512H55.652c-9.223,0-16.696-7.479-16.696-16.696V50.087c0-9.217,7.473-16.696,16.696-16.696
	h400.696c9.223,0,16.696,7.479,16.696,16.696v445.217C473.043,504.521,465.57,512,456.348,512z"/>
<path style="fill:#884E00;" d="M456.348,33.391H256V512h200.348c9.223,0,16.696-7.479,16.696-16.696V50.087
	C473.043,40.87,465.57,33.391,456.348,33.391z"/>
<g>
	<path style="fill:#FFF5CC;" d="M179.435,205.913l21.587-21.587c6.521-6.521,6.521-17.087,0-23.609
		c-6.521-6.521-17.087-6.521-23.609,0l-21.587,21.587l-21.587-21.587c-6.521-6.521-17.087-6.521-23.609,0
		c-6.521,6.521-6.521,17.087,0,23.609l21.587,21.587l-21.587,21.587c-6.521,6.521-6.521,17.087,0,23.609
		c3.261,3.261,7.533,4.892,11.804,4.892s8.544-1.631,11.804-4.892l21.589-21.587l21.587,21.587
		c3.261,3.261,7.533,4.892,11.804,4.892s8.544-1.631,11.804-4.892c6.521-6.521,6.521-17.087,0-23.609L179.435,205.913z"/>
	<path style="fill:#FFF5CC;" d="M155.826,422.957c-27.619,0-50.087-22.468-50.087-50.087c0-27.619,22.468-50.087,50.087-50.087
		s50.087,22.468,50.087,50.087C205.913,400.489,183.445,422.957,155.826,422.957z M155.826,356.174
		c-9.206,0-16.696,7.49-16.696,16.696c0,9.206,7.49,16.696,16.696,16.696s16.696-7.49,16.696-16.696
		C172.522,363.664,165.032,356.174,155.826,356.174z"/>
</g>
<g>
	<path style="fill:#FFFFFF;" d="M179.435,205.913l21.587-21.587c6.521-6.521,6.521-17.087,0-23.609
		c-6.521-6.521-17.087-6.521-23.609,0l-21.587,21.587l-21.587-21.587c-6.521-6.521-17.087-6.521-23.609,0
		c-6.521,6.521-6.521,17.087,0,23.609l21.587,21.587l-21.587,21.587c-6.521,6.521-6.521,17.087,0,23.609
		c3.261,3.261,7.533,4.892,11.804,4.892s8.544-1.631,11.804-4.892l21.589-21.587l21.587,21.587
		c3.261,3.261,7.533,4.892,11.804,4.892s8.544-1.631,11.804-4.892c6.521-6.521,6.521-17.087,0-23.609L179.435,205.913z"/>
	<path style="fill:#FFFFFF;" d="M155.826,422.957c-27.619,0-50.087-22.468-50.087-50.087c0-27.619,22.468-50.087,50.087-50.087
		s50.087,22.468,50.087,50.087C205.913,400.489,183.445,422.957,155.826,422.957z M155.826,356.174
		c-9.206,0-16.696,7.49-16.696,16.696c0,9.206,7.49,16.696,16.696,16.696s16.696-7.49,16.696-16.696
		C172.522,363.664,165.032,356.174,155.826,356.174z"/>
	<path style="fill:#FFFFFF;" d="M322.783,66.783H189.217c-9.223,0-16.696-7.479-16.696-16.696V16.696
		C172.522,7.479,179.995,0,189.217,0h133.565c9.223,0,16.696,7.479,16.696,16.696v33.391
		C339.478,59.304,332.005,66.783,322.783,66.783z"/>
</g>
<path style="fill:#FFE6B3;" d="M322.783,0H256v66.783h66.783c9.223,0,16.696-7.479,16.696-16.696V16.696
	C339.478,7.479,332.005,0,322.783,0z"/>
<path style="fill:#FFFFFF;" d="M389.565,222.609H256c-9.223,0-16.696-7.479-16.696-16.696c0-9.217,7.473-16.696,16.696-16.696
	h133.565c9.223,0,16.696,7.479,16.696,16.696C406.261,215.13,398.788,222.609,389.565,222.609z"/>
<path style="fill:#FFE6B3;" d="M389.565,222.609c9.223,0,16.696-7.479,16.696-16.696c0-9.217-7.473-16.696-16.696-16.696H256v33.391
	H389.565z"/>
<path style="fill:#FFFFFF;" d="M389.565,389.565H256c-9.223,0-16.696-7.479-16.696-16.696c0-9.217,7.473-16.696,16.696-16.696
	h133.565c9.223,0,16.696,7.479,16.696,16.696C406.261,382.087,398.788,389.565,389.565,389.565z"/>
<path style="fill:#FFE6B3;" d="M389.565,389.565c9.223,0,16.696-7.479,16.696-16.696c0-9.217-7.473-16.696-16.696-16.696H256v33.391
	H389.565z"/>
<g>
</g>
<g>
</g>
<g>
</g>
<g>
</g>
<g>
</g>
<g>
</g>
<g>
</g>
<g>
</g>
<g>
</g>
<g>
</g>
<g>
</g>
<g>
</g>
<g>
</g>
<g>
</g>
<g>
</g>
</svg>
