<?xml version="1.0" encoding="iso-8859-1"?>
<!-- Generator: Adobe Illustrator 19.0.0, SVG Export Plug-In . SVG Version: 6.00 Build 0)  -->
<svg version="1.1" id="Layer_1" xmlns="http://www.w3.org/2000/svg" xmlns:xlink="http://www.w3.org/1999/xlink" x="0px" y="0px"
	 viewBox="0 0 512 512" style="enable-background:new 0 0 512 512;" xml:space="preserve">
<path style="fill:#E6F4FF;" d="M456.343,333.904H55.657c-9.222,0-16.695-7.478-16.695-16.695V50.086
	c0-9.217,7.473-16.695,16.695-16.695h400.685c9.222,0,16.695,7.478,16.695,16.695v267.123
	C473.038,326.426,465.565,333.904,456.343,333.904z"/>
<path style="fill:#C2DFF6;" d="M456.343,33.39H256v300.514h200.343c9.222,0,16.695-7.478,16.695-16.695V50.086
	C473.038,40.869,465.565,33.39,456.343,33.39z"/>
<path style="fill:#6A563D;" d="M412.555,479.835l-139.86-56.98V350.6c0-9.217-7.473-16.695-16.695-16.695
	s-16.695,7.478-16.695,16.695v72.256l-139.86,56.98c-8.538,3.478-12.641,13.217-9.162,21.761
	c3.484,8.532,13.244,12.663,21.761,9.152l143.958-58.64l143.958,58.64c2.065,0.848,4.196,1.239,6.293,1.239
	c6.587,0,12.825-3.923,15.466-10.391C425.197,493.052,421.093,483.313,412.555,479.835z"/>
<path style="fill:#554431;" d="M399.958,510.748c2.065,0.848,4.196,1.239,6.293,1.239c6.587,0,12.825-3.923,15.466-10.391
	c3.478-8.543-0.626-18.282-9.162-21.761l-139.86-56.98V350.6c0-9.217-7.473-16.695-16.695-16.695v118.203L399.958,510.748z"/>
<path style="fill:#6A563D;" d="M489.733,66.781H22.267c-9.222,0-16.695-7.478-16.695-16.695v-33.39C5.572,7.478,13.044,0,22.267,0
	h467.466c9.222,0,16.695,7.478,16.695,16.695v33.39C506.428,59.303,498.955,66.781,489.733,66.781z"/>
<path style="fill:#554431;" d="M489.733,0H256v66.781h233.733c9.222,0,16.695-7.478,16.695-16.695v-33.39
	C506.428,7.478,498.955,0,489.733,0z"/>
<path style="fill:#6A563D;" d="M489.733,367.295H22.267c-9.222,0-16.695-7.478-16.695-16.695v-33.39
	c0-9.217,7.473-16.695,16.695-16.695h467.466c9.222,0,16.695,7.478,16.695,16.695v33.39
	C506.428,359.816,498.955,367.295,489.733,367.295z"/>
<path style="fill:#554431;" d="M489.733,300.514H256v66.781h233.733c9.222,0,16.695-7.478,16.695-16.695v-33.39
	C506.428,307.992,498.955,300.514,489.733,300.514z"/>
<g>
</g>
<g>
</g>
<g>
</g>
<g>
</g>
<g>
</g>
<g>
</g>
<g>
</g>
<g>
</g>
<g>
</g>
<g>
</g>
<g>
</g>
<g>
</g>
<g>
</g>
<g>
</g>
<g>
</g>
</svg>
