<?xml version="1.0" encoding="iso-8859-1"?>
<!-- Generator: Adobe Illustrator 19.0.0, SVG Export Plug-In . SVG Version: 6.00 Build 0)  -->
<svg version="1.1" id="Layer_1" xmlns="http://www.w3.org/2000/svg" xmlns:xlink="http://www.w3.org/1999/xlink" x="0px" y="0px"
	 viewBox="0 0 512 512" style="enable-background:new 0 0 512 512;" xml:space="preserve">
<path style="fill:#FFCD00;" d="M256,68.267c-141.161,0-256,114.839-256,256v102.4c0,9.428,7.639,17.067,17.067,17.067h477.867
	c9.428,0,17.067-7.639,17.067-17.067v-102.4C512,183.106,397.161,68.267,256,68.267z M392.533,341.333H119.467
	c-9.428,0-17.067-7.639-17.067-17.067c0-84.694,68.906-153.6,153.6-153.6s153.6,68.906,153.6,153.6
	C409.6,333.694,401.961,341.333,392.533,341.333z"/>
<path style="fill:#FFA733;" d="M409.6,324.267c0,9.428-7.639,17.067-17.067,17.067H256v102.4h238.933
	c9.428,0,17.067-7.639,17.067-17.067v-102.4c0-141.161-114.839-256-256-256v102.4C340.694,170.667,409.6,239.573,409.6,324.267z"/>
<g>
	<path style="fill:#FF9811;" d="M238.933,68.9v27.811c0,9.428,7.639,17.067,17.067,17.067c9.428,0,17.067-7.639,17.067-17.067V68.9
		c-5.647-0.375-11.327-0.634-17.067-0.634S244.58,68.525,238.933,68.9z"/>
	<path style="fill:#FF9811;" d="M87.739,180.139c3.334,3.334,7.7,5.001,12.066,5.001c4.366,0,8.734-1.667,12.066-5.001
		c6.666-6.661,6.666-17.472,0-24.133l-24.292-24.292c-8.57,7.504-16.629,15.564-24.133,24.133L87.739,180.139z"/>
	<path style="fill:#FF9811;" d="M28.444,341.333c9.428,0,17.067-7.639,17.067-17.067c0-9.428-7.639-17.067-17.067-17.067H0.634
		C0.258,312.847,0,318.527,0,324.267v17.067H28.444z"/>
</g>
<g>
	<path style="fill:#EE8700;" d="M273.067,96.711V68.9c-5.647-0.375-11.327-0.634-17.067-0.634v45.511
		C265.428,113.778,273.067,106.139,273.067,96.711z"/>
	<path style="fill:#EE8700;" d="M466.489,324.267c0,9.428,7.639,17.067,17.067,17.067H512v-17.067c0-5.74-0.258-11.42-0.634-17.067
		h-27.811C474.128,307.2,466.489,314.839,466.489,324.267z"/>
	<path style="fill:#EE8700;" d="M424.42,131.714l-24.292,24.292c-6.666,6.661-6.666,17.472,0,24.133
		c3.334,3.334,7.701,5.001,12.066,5.001s8.734-1.667,12.066-5.001l24.292-24.292C441.048,147.277,432.989,139.218,424.42,131.714z"
		/>
</g>
<g>
</g>
<g>
</g>
<g>
</g>
<g>
</g>
<g>
</g>
<g>
</g>
<g>
</g>
<g>
</g>
<g>
</g>
<g>
</g>
<g>
</g>
<g>
</g>
<g>
</g>
<g>
</g>
<g>
</g>
</svg>
