<?xml version="1.0" encoding="iso-8859-1"?>
<!-- Generator: Adobe Illustrator 19.0.0, SVG Export Plug-In . SVG Version: 6.00 Build 0)  -->
<svg version="1.1" id="Layer_1" xmlns="http://www.w3.org/2000/svg" xmlns:xlink="http://www.w3.org/1999/xlink" x="0px" y="0px"
	 viewBox="0 0 512 512" style="enable-background:new 0 0 512 512;" xml:space="preserve">
<path style="fill:#6A563D;" d="M411.826,512H100.174c-9.217,0-16.696-7.479-16.696-16.696V395.13
	c0-9.217,7.479-16.696,16.696-16.696h311.652c9.217,0,16.696,7.479,16.696,16.696v100.174C428.522,504.521,421.043,512,411.826,512z
	"/>
<path style="fill:#554431;" d="M411.826,378.435H256V512h155.826c9.217,0,16.696-7.479,16.696-16.696V395.13
	C428.522,385.913,421.043,378.435,411.826,378.435z"/>
<path style="fill:#6A563D;" d="M428.522,100.174H83.478V16.696C83.478,7.475,90.953,0,100.174,0h311.652
	c9.22,0,16.696,7.475,16.696,16.696V100.174z"/>
<path style="fill:#554431;" d="M411.826,0H256v100.174h172.522V16.696C428.522,7.475,421.047,0,411.826,0z"/>
<path style="fill:#E6F4FF;" d="M428.522,411.826H83.478V66.783h345.043V411.826z"/>
<rect x="256" y="66.783" style="fill:#C2DFF6;" width="172.522" height="345.043"/>
<path style="fill:#00D7DF;" d="M289.391,166.957h-16.696v-16.696c0-9.217-7.479-16.696-16.696-16.696s-16.696,7.479-16.696,16.696
	v16.696h-16.696c-9.217,0-16.696,7.479-16.696,16.696s7.479,16.696,16.696,16.696h16.696v16.696c0,9.217,7.479,16.696,16.696,16.696
	s16.696-7.479,16.696-16.696v-16.696h16.696c9.217,0,16.696-7.479,16.696-16.696S298.608,166.957,289.391,166.957z"/>
<path style="fill:#00B6BD;" d="M272.696,217.043v-16.696h16.696c9.217,0,16.696-7.479,16.696-16.696s-7.479-16.696-16.696-16.696
	h-16.696v-16.696c0-9.217-7.479-16.696-16.696-16.696v100.174C265.217,233.739,272.696,226.261,272.696,217.043z"/>
<path style="fill:#00D7DF;" d="M289.391,333.913h-66.783c-9.217,0-16.696-7.479-16.696-16.696s7.479-16.696,16.696-16.696h66.783
	c9.217,0,16.696,7.479,16.696,16.696S298.608,333.913,289.391,333.913z"/>
<path style="fill:#00B6BD;" d="M289.391,300.522H256v33.391h33.391c9.217,0,16.696-7.479,16.696-16.696
	S298.608,300.522,289.391,300.522z"/>
<circle style="fill:#E6F4FF;" cx="256" cy="461.913" r="16.696"/>
<path style="fill:#C2DFF6;" d="M272.696,461.913c0-9.22-7.475-16.696-16.696-16.696v33.391
	C265.22,478.609,272.696,471.133,272.696,461.913z"/>
<g>
</g>
<g>
</g>
<g>
</g>
<g>
</g>
<g>
</g>
<g>
</g>
<g>
</g>
<g>
</g>
<g>
</g>
<g>
</g>
<g>
</g>
<g>
</g>
<g>
</g>
<g>
</g>
<g>
</g>
</svg>
