<svg id="Layer_1" enable-background="new 0 0 512 512" height="512" viewBox="0 0 512 512" width="512" xmlns="http://www.w3.org/2000/svg"><path d="m97.756 309.256c-46.592 77.289-117.024 103.19-79.763-18.59 6.362-20.448 5.907-27.062 5.907-27.062s.454-6.614-5.907-27.062c-37.261-121.779 33.171-95.878 79.763-18.59z" fill="#00e6e6"/><path d="m8.869 329.228c-11.084 76.021 48.054 47.763 88.887-19.973v-30c-33.902 56.239-80.414 85.248-88.887 49.973z" fill="#00bdb9"/><path d="m267.923 119.891s-35.451-59.319-113.538-37.071c-7.157 2.039-10.715 10.152-7.29 16.758 5.659 10.912 11.992 29.666 9.901 56.939z" fill="#00e6e6"/><path d="m173.733 380.807c.8 15.913-4.448 32.866-8.299 42.948-1.81 4.738 1.524 9.853 6.586 10.173 52.772 3.336 77.311-28.678 77.311-28.678z" fill="#00e6e6"/><path d="m156.996 156.518 110.927-36.626s-8.893-14.877-27.578-26.937c-31.265 5.037-59.761 14.873-85.298 29.446 1.964 9.37 2.977 20.708 1.949 34.117z" fill="#00bdb9"/><path d="m357.725 400.62c-19.54 4.807-41.489 7.596-66.11 7.596-144.768 0-196.535-96.405-210.654-131.79-3.286-8.239-3.286-17.405 0-25.644 14.119-35.385 65.885-131.79 210.654-131.79 24.62 0 46.569 2.789 66.11 7.596z" fill="#ffaa78"/><path d="m255.91 255.835c-9.493-18.728-33.407-32.017-61.41-32.017s-51.916 13.29-61.409 32.017c-2.472 4.876-2.472 10.661 0 15.536 9.493 18.728 33.407 32.017 61.409 32.017s51.916-13.29 61.41-32.017c2.471-4.875 2.471-10.66 0-15.536z" fill="#00e6e6"/><path d="m291.615 378.216c-141.906 0-194.446-92.622-209.766-129.612-.001.003-.003.007-.004.01-.575 1.388-.925 2.271-.884 2.168-3.369 8.452-3.175 17.684 0 25.645 7.501 18.798 25.626 54.818 62.677 84.456 42.078 33.664 93.654 47.334 147.977 47.334 18.465 0 35.428-1.568 50.999-4.381 5.19-.938 10.226-2.013 15.111-3.215v-30c-19.54 4.806-41.489 7.595-66.11 7.595z" fill="#ff8c46"/><path d="m496.758 290.112-2.098-7.695 8.125-6.55c2.841-10.015 2.148-20.757-2.105-30.41-14.061-31.904-52.966-96.756-142.955-118.871-34.82 35.19-56.32 83.603-56.32 137.017s21.5 101.826 56.32 137.017c82.701-20.323 122.254-76.739 139.033-110.508z" fill="#00e6e6"/><ellipse cx="430.203" cy="273.019" fill="#ffa1ac" rx="28.623" ry="22.794"/><path d="m481.213 286.441c-21.833 31.599-59.908 68.555-123.488 84.18-6.839 1.683-13.981 3.111-21.422 4.266 6.403 9.186 13.57 17.799 21.422 25.734 82.701-20.324 122.254-76.739 139.033-110.508-4.568-.507-9.981-1.574-15.545-3.672z" fill="#00bdb9"/><path d="m454.394 251.062v-11.701c0-4.142-3.358-7.5-7.5-7.5s-7.5 3.358-7.5 7.5v11.701c0 4.142 3.358 7.5 7.5 7.5s7.5-3.358 7.5-7.5z"/><path d="m194.501 216.302c-30.245 0-56.976 14.181-68.101 36.128-3.542 6.988-3.542 15.331 0 22.319 11.125 21.947 37.856 36.127 68.101 36.127s56.976-14.181 68.102-36.128c3.542-6.988 3.542-15.331 0-22.319-11.125-21.946-37.857-36.127-68.102-36.127zm54.722 51.665c-8.462 16.693-30.453 27.909-54.721 27.909s-46.259-11.216-54.721-27.909c-1.39-2.741-1.39-6.014 0-8.755 8.462-16.693 30.453-27.909 54.721-27.909s46.259 11.216 54.721 27.909c1.39 2.741 1.39 6.014 0 8.755z"/><path d="m.068 349.52c.81 19.91 8.944 27.643 15.625 30.624 3.074 1.372 6.354 2.018 9.793 2.018 22.161-.002 50.837-26.841 72.424-59.177 4.675 6.622 9.998 13.41 16.101 20.188 2.772 3.078 7.514 3.327 10.592.555s3.327-7.514.555-10.592c-15.761-17.504-28.898-38.631-37.232-59.502-2.583-6.477-2.583-13.611 0-20.087 14.255-35.674 40.197-68.606 73.27-90.827 38.831-26.12 84.371-36.247 130.424-36.247 18.037 0 35.363 1.557 51.677 4.637-32.031 36.785-49.387 83.703-49.387 132.48 0 48.911 17.387 95.67 49.387 132.479-65.821 12.426-143.058 2.144-197.795-43.361-3.185-2.648-7.913-2.212-10.562.973-2.648 3.185-2.212 7.914.973 10.562 9.521 7.915 19.658 14.913 30.376 21.013-.256 13.776-4.913 28.095-7.861 35.813-3.65 9.556 3.115 19.702 13.12 20.335 34.633 2.194 63.315-10.007 80.723-28.17 12.637 1.646 25.758 2.472 39.349 2.472 64.976 0 125.498-19.218 171.396-65.586 23.44-23.68 37.158-48.613 44.538-65.361 5.928-13.455 5.928-28.887 0-42.342-9.887-22.435-33.569-64.591-81.082-94.852-3.494-2.225-8.13-1.197-10.355 2.297s-1.197 8.13 2.297 10.355c44.177 28.136 66.212 67.368 75.414 88.248 3.663 8.315 4.151 17.686 1.476 26.285-5.395-.92-11.714-2.863-17.353-6.857-3.38-2.394-8.062-1.595-10.456 1.785s-1.595 8.061 1.785 10.455c6.483 4.592 13.461 7.195 19.751 8.649-25.345 49.626-69.428 87.676-128.932 103.48-69.412-73.268-67.151-186.86 0-257.349 11.444 3.042 22.487 6.939 32.884 11.607 3.779 1.696 8.218.008 9.914-3.771 1.697-3.779.009-8.218-3.77-9.914-12.473-5.6-25.796-10.159-39.601-13.551s0 0-.001 0c0 0 0 0-.001 0-28.399-6.986-58.866-8.997-87.827-7.19-4.121-5.62-13.048-16.256-27.18-25.4-18.296-11.837-49.14-23.372-92.184-11.108-5.607 1.597-10.149 5.589-12.463 10.95-2.301 5.333-2.093 11.337.57 16.475 4.975 9.594 10.472 25.817 9.291 49.373-19.507 13.669-36.987 30.784-51.811 51.818-11.886-17.86-25.284-33.157-38.426-43.736-17.242-13.88-32.388-18.525-43.799-13.433-6.681 2.981-14.815 10.714-15.625 30.624-.617 15.188 2.999 35.733 10.76 61.096 5.204 16.726 5.552 23.479 5.574 24.417-.06.467-.06.369 0 .836-.022.938-.372 7.693-5.585 24.45-7.752 25.332-11.369 45.876-10.751 61.064zm172.373 76.902c3.376-8.836 7.138-20.961 8.42-33.6 16.267 7.663 33.753 13.411 52.402 17.229-10.91 8.127-30.819 18.273-60.822 16.371zm-18.688-330.315c-.797-1.537-.414-2.931-.114-3.625.307-.711 1.079-1.977 2.801-2.468 11.098-3.162 21.746-4.74 31.914-4.74 17.281 0 33.167 4.563 47.465 13.666 7.654 4.873 13.573 10.307 17.789 14.843-32.962 4.127-62.628 13.797-88.744 28.935-.522-21.424-6.058-36.867-11.111-46.611zm-128.603 196.773c5.878-18.893 6.292-26.988 6.249-29.291.042-2.302-.37-10.394-6.238-29.258-7.254-23.708-10.654-42.571-10.105-56.064.225-5.524 1.4-15.148 6.749-17.535 10.237-4.569 39.641 13.296 67.149 57.207-5.349 8.934-15.258 27.549-17.218 37.754-1.504 7.827-.755 15.942 2.257 23.498 3.673 9.202 8.755 19.706 14.957 30.054-27.506 43.907-56.907 61.769-67.145 57.201-5.349-2.387-6.525-12.011-6.749-17.535-.549-13.494 2.851-32.357 10.094-56.031z"/></svg>