<svg height="512pt" viewBox="0 0 512 512" width="512pt" xmlns="http://www.w3.org/2000/svg"><path d="m512 256c0 141.386719-114.613281 256-256 256s-256-114.613281-256-256 114.613281-256 256-256 256 114.613281 256 256zm0 0" fill="#bfb053"/><path d="m503.53125 190.507812-91.027344-91.027343-314.464844 314.46875 88.507813 88.511719c22.085937 6.210937 45.382813 9.539062 69.453125 9.539062 141.386719 0 256-114.613281 256-256 0-22.640625-2.953125-44.585938-8.46875-65.492188zm0 0" fill="#a59d4d"/><path d="m367.429688 130.480469 14.085937 14.089843-276.425781 276.425782-14.085938-14.089844zm0 0" fill="#480306"/><path d="m138.046875 373.953125c-9.015625-9.015625-14.601563-21.46875-14.601563-35.199219l-.007812-88.414062c0-31.628906 23.40625-57.898438 53.800781-62.402344 1.957031-13.328125 8.109375-25.632812 17.804688-35.328125 9.699219-9.703125 22.003906-15.851563 35.328125-17.804687l120.371094 120.367187zm0 0" fill="#f9963b"/><path d="m358.515625 209.832031-128.152344 71.804688.007813-146.832031c4.511718-30.402344 30.773437-53.800782 62.40625-53.804688 13.714844.003906 26.761718 4.351562 37.566406 12.398438 10.804688-8.046876 23.847656-12.394532 37.558594-12.394532 16.859375 0 32.695312 6.5625 44.613281 18.476563zm0 0" fill="#fcba66"/><path d="m324.058594 334.753906c-4.496094 30.398438-30.769532 53.808594-62.398438 53.808594l-88.414062-.003906c-13.730469 0-26.183594-5.589844-35.199219-14.605469l112.605469-112.605469zm0 0" fill="#c7461f"/><path d="m377.1875 281.636719c-4.058594 27.367187-25.757812 49.066406-53.128906 53.117187h-146.8125l126.527344-126.53125zm0 0" fill="#d95d27"/><path d="m412.515625 263.832031c-9.699219 9.699219-22.003906 15.851563-35.328125 17.804688h-146.824219l144.109375-144.109375 44.128906 44.128906c8.042969 10.804688 12.390626 23.851562 12.386719 37.566406.003907 16.851563-6.554687 32.691406-18.472656 44.609375zm0 0" fill="#eb7330"/><path d="m418.601562 181.65625h-88.257812l82.171875-82.171875c11.917969 11.917969 18.476563 27.753906 18.484375 44.609375-.007812 13.714844-4.355469 26.757812-12.398438 37.5625zm0 0" fill="#f9963b"/></svg>