<?xml version="1.0" encoding="iso-8859-1"?>
<!-- Generator: Adobe Illustrator 19.0.0, SVG Export Plug-In . SVG Version: 6.00 Build 0)  -->
<svg version="1.1" id="Capa_1" xmlns="http://www.w3.org/2000/svg" xmlns:xlink="http://www.w3.org/1999/xlink" x="0px" y="0px"
	 viewBox="0 0 512 512" style="enable-background:new 0 0 512 512;" xml:space="preserve">
<circle style="fill:#FE9A35;" cx="256" cy="256" r="256"/>
<path style="fill:#FF7C11;" d="M274.438,511.333c131.448-9.357,235.441-117.948,237.511-251.285L316.384,64.483L262,92.81
	l-11.911,144.546l-135.12-4.193L217.9,336.094l-60.511,58.19L274.438,511.333z"/>
<path style="fill:#854830;" d="M266.059,185.184h-20v-66.419c0-29.931,24.351-54.282,54.282-54.282h16.043v20h-16.043
	c-18.903,0-34.282,15.379-34.282,34.282V185.184z"/>
<path style="fill:#703928;" d="M300.341,64.483c-18.33,0-34.555,9.142-44.388,23.095v97.605h10.106v-66.419
	c0-18.903,15.379-34.282,34.282-34.282h16.043v-20L300.341,64.483L300.341,64.483z"/>
<path style="fill:#854830;" d="M327.143,419.232l-71.482,48.526l-71.068-48.501c-35.262-24.065-56.356-63.999-56.356-106.69V180.172
	h255.524v132.191C383.762,355.167,362.558,395.191,327.143,419.232z"/>
<path style="fill:#6D3321;" d="M255.952,180.172l-0.291,287.586l71.482-48.526c35.414-24.041,56.619-64.065,56.619-106.869V180.172
	H255.952z"/>
<path style="fill:#7A3817;" d="M357.12,250.461H154.88c-30.212,0-54.704-24.492-54.704-54.704l0,0
	c0-30.212,24.492-54.704,54.704-54.704h202.24c30.212,0,54.704,24.492,54.704,54.704l0,0
	C411.824,225.969,387.332,250.461,357.12,250.461z"/>
<path style="fill:#54230E;" d="M357.12,141.052H255.952v109.409H357.12c30.212,0,54.704-24.492,54.704-54.704l0,0
	C411.824,165.544,387.333,141.052,357.12,141.052z"/>
<g>
</g>
<g>
</g>
<g>
</g>
<g>
</g>
<g>
</g>
<g>
</g>
<g>
</g>
<g>
</g>
<g>
</g>
<g>
</g>
<g>
</g>
<g>
</g>
<g>
</g>
<g>
</g>
<g>
</g>
</svg>
