<?xml version="1.0" encoding="iso-8859-1"?>
<!-- Generator: Adobe Illustrator 19.0.0, SVG Export Plug-In . SVG Version: 6.00 Build 0)  -->
<svg version="1.1" id="Capa_1" xmlns="http://www.w3.org/2000/svg" xmlns:xlink="http://www.w3.org/1999/xlink" x="0px" y="0px"
	 viewBox="0 0 512 512" style="enable-background:new 0 0 512 512;" xml:space="preserve">
<circle style="fill:#7AE5FE;" cx="256" cy="256" r="256"/>
<path style="fill:#00BED2;" d="M506.267,310.037l-103.59-103.59l-17.752,43.041l-98.784-98.784L67.054,323.435l72.311,72.311
	l-14.784,12.474l102.1,102.1c9.622,1.096,19.402,1.68,29.319,1.68C378.844,512,481.461,425.468,506.267,310.037z"/>
<path style="fill:#2EA840;" d="M394.371,381.055c38.129,0,69.039-30.91,69.039-69.039c0-32.93-23.057-60.472-53.906-67.371
	c-7.996-34.975-39.299-61.069-76.697-61.069c-39.035,0-71.424,28.429-77.607,65.711c-3.361-0.525-6.805-0.803-10.314-0.803
	c-36.608,0-66.285,29.677-66.285,66.285s29.677,66.285,66.285,66.285h149.485V381.055z"/>
<path style="fill:#4ACE5A;" d="M293.899,349.729c43.285,0,78.375-35.09,78.375-78.375c0-37.383-26.175-68.649-61.196-76.482
	c-9.078-39.704-44.613-69.327-87.069-69.327c-44.314,0-81.083,32.274-88.102,74.598c-3.816-0.596-7.725-0.912-11.709-0.912
	c-41.559,0-75.249,33.69-75.249,75.249s33.69,75.249,75.249,75.249H293.899z"/>
<path style="fill:#2EA840;" d="M311.078,194.872c-6.67-29.175-27.635-52.889-55.126-63.424v218.281h37.947
	c43.285,0,78.375-35.09,78.375-78.375C372.274,233.97,346.1,202.704,311.078,194.872z"/>
<polygon style="fill:#7A3817;" points="124.58,206.448 124.58,248.389 86.039,216.272 57.323,254.057 124.58,357.044 
	124.58,408.219 402.677,408.219 402.677,206.448 "/>
<rect x="255.95" y="206.45" style="fill:#4C200D;" width="146.72" height="201.77"/>
<g>
</g>
<g>
</g>
<g>
</g>
<g>
</g>
<g>
</g>
<g>
</g>
<g>
</g>
<g>
</g>
<g>
</g>
<g>
</g>
<g>
</g>
<g>
</g>
<g>
</g>
<g>
</g>
<g>
</g>
</svg>
