<svg id="Layer_1" enable-background="new 0 0 512 512" height="512" viewBox="0 0 512 512" width="512" xmlns="http://www.w3.org/2000/svg"><path d="m14.105 294.079c-8.807 1.711-8.807 14.313 0 16.024l107.41 20.867v-57.757z" fill="#4f4b5e"/><path d="m278.574 121.456c-14.402 22.156-58.572 50.801-80.728 36.399s-13.907-66.398.495-88.553 44.038-28.442 66.194-14.04 28.441 44.039 14.039 66.194z" fill="#00e6e6"/><path d="m236.488 109.892c-5.466-19.663-15.961-39.271-27.731-52.024-3.967 3.141-7.506 6.958-10.417 11.435-14.402 22.156-22.651 74.151-.495 88.553 10.421 6.774 25.712 4.023 40.485-3.095 3.402-12.77 2.84-28.026-1.842-44.869z" fill="#00bdb9"/><path d="m188.958 73.326c18.686 18.686 37.543 67.838 18.857 86.524s-67.838-.172-86.524-18.857-18.686-48.981 0-67.666 48.982-18.687 67.667-.001z" fill="#00e6e6"/><path d="m50.089 302.091c0 5.072.203 10.113.589 15.117l70.837 13.762v-57.757l-70.834 13.761c-.389 4.989-.592 10.03-.592 15.117z" fill="#423c4d"/><path d="m290.276 464.474h-47.804c-44.843 0-85.438-18.174-114.818-47.564-29.39-29.38-47.564-69.976-47.564-114.818 0-89.675 72.697-162.373 162.383-162.373h47.804v324.755z" fill="#ffd072"/><path d="m456.946 187.273c-29.39-29.38-69.986-47.555-114.828-47.555l-38.352 1.503-13.489-1.503-58.73 19.261-64.953 73.749-12.179 69.368 16.915 68.658 45.332 57.51 73.615 36.21h51.841c89.685 0 162.383-72.697 162.383-162.383-.001-44.833-18.175-85.428-47.555-114.818z" fill="#ffd072"/><path d="m342.117 464.474h-51.841c-44.843 0-85.428-18.174-114.819-47.564-29.38-29.38-47.554-69.976-47.554-114.818 0-89.675 72.697-162.373 162.373-162.373h51.841c-44.843 0-85.428 18.174-114.819 47.554-29.38 29.39-47.554 69.986-47.554 114.818 0 89.686 72.698 162.383 162.373 162.383z" fill="#4f4b5e"/><ellipse cx="280.253" cy="306.521" fill="#ffa1ac" rx="24.676" ry="30.987" transform="matrix(.002 -1 1 .002 -26.881 586.101)"/><ellipse cx="448.211" cy="306.888" fill="#ffa1ac" rx="24.676" ry="30.987" transform="matrix(.002 -1 1 .002 140.343 754.427)"/><circle cx="394.671" cy="69.634" fill="#ffd072" r="21.555"/><path d="m404.671 81.189c-11.904 0-21.555-9.65-21.555-21.555 0-3.368.795-6.543 2.172-9.382-7.197 3.491-12.172 10.846-12.172 19.382 0 11.904 9.65 21.555 21.555 21.555 8.536 0 15.891-4.975 19.383-12.172-2.84 1.378-6.015 2.172-9.383 2.172z" fill="#ffa841"/><circle cx="478.203" cy="69.634" fill="#ffd072" r="21.555"/><path d="m488.203 81.189c-11.904 0-21.555-9.65-21.555-21.555 0-3.368.795-6.543 2.172-9.382-7.197 3.491-12.172 10.846-12.172 19.382 0 11.904 9.65 21.555 21.555 21.555 8.536 0 15.891-4.975 19.383-12.172-2.84 1.378-6.015 2.172-9.383 2.172z" fill="#ffa841"/><path d="m298.609 295.644c4.142 0 7.5-3.358 7.5-7.5v-12.593c0-4.142-3.358-7.5-7.5-7.5s-7.5 3.358-7.5 7.5v12.593c0 4.142 3.358 7.5 7.5 7.5z"/><path d="m429.673 295.644c4.142 0 7.5-3.358 7.5-7.5v-12.593c0-4.142-3.358-7.5-7.5-7.5s-7.5 3.358-7.5 7.5v12.593c0 4.142 3.358 7.5 7.5 7.5z"/><path d="m364.333 312.482c14.444 13.033 37.838 2.871 37.838-16.829 0-4.143-3.358-7.5-7.5-7.5s-7.5 3.357-7.5 7.5c0 4.229-3.44 7.669-7.669 7.669s-7.669-3.44-7.669-7.669c0-4.143-3.358-7.5-7.5-7.5s-7.5 3.357-7.5 7.5c0 4.229-3.44 7.669-7.669 7.669s-7.669-3.44-7.669-7.669c0-4.143-3.358-7.5-7.5-7.5s-7.5 3.357-7.5 7.5c-.001 19.686 23.385 29.868 37.838 16.829z"/><path d="m12.675 317.469 62.118 12.068c12.834 79.487 81.891 142.441 167.679 142.441h99.645c93.674 0 169.883-76.209 169.883-169.883 0-63.057-34.335-118.582-86.417-148.043 1.685-15.899 8.066-45.007 31.743-64.237 18.101 18.723 49.93 5.861 49.93-20.177 0-16.021-13.034-29.055-29.055-29.055-18.828 0-32.679 17.693-28.222 35.946-26.82 20.478-35.697 50.939-38.593 70.361-20.243-9.042-42.236-14.055-64.979-14.615 4.255-14.015 12.277-30.204 27.385-42.461 18.092 18.715 49.932 5.883 49.932-20.176 0-16.021-13.034-29.055-29.055-29.055-18.734 0-32.687 17.595-28.228 35.921-20.96 15.981-30.904 37.932-35.613 55.717-6.363 0-44.607 0-50.965 0 23.808-28.379 15.122-66.106-11.243-83.244-25.638-16.666-60.171-9.491-76.861 16.712-21.711-19.203-55.005-18.431-75.773 2.336-21.58 21.58-21.58 56.693 0 78.273 6.505 6.505 16.236 12.926 27.016 18.022-8.579 6.234-16.657 13.318-24.122 21.231-2.842 3.013-2.704 7.76.309 10.603 3.012 2.842 7.759 2.704 10.602-.309 23.604-25.021 53.833-40.674 85.713-46.267-127.588 62.8-125.691 243.274-.25 305.029-31.017-5.467-59.572-20.265-82.3-43-52.622-52.605-59.49-133.632-20.493-193.71 2.255-3.475 1.267-8.119-2.208-10.375-3.473-2.254-8.119-1.268-10.375 2.208-12.835 19.773-21.293 41.842-25.05 64.913l-62.153 12.077c-7.463 1.45-12.675 7.772-12.675 15.375 0 7.602 5.212 13.924 12.675 15.374zm465.528-261.886c7.75 0 14.055 6.305 14.055 14.055s-6.305 14.055-14.055 14.055-14.054-6.305-14.054-14.055c-.001-7.75 6.304-14.055 14.054-14.055zm-83.532 0c7.75 0 14.055 6.305 14.055 14.055s-6.305 14.055-14.055 14.055-14.055-6.305-14.055-14.055 6.305-14.055 14.055-14.055zm-134.224 5.971c18.653 12.125 23.964 37.166 11.839 55.818-3.031 4.662-7.768 9.872-13.481 14.85-12.583.151-21.671-.5-35.924 1.114-1.1-19.055-10.019-40.791-20.673-55.761 12.208-23.447 39.37-28.286 58.239-16.021zm-133.852 74.139c-15.731-15.731-15.731-41.329 0-57.06 16.029-16.029 44.076-16.896 61.009 4.484 8.468 10.644 15.64 26.389 18.596 39.498 1.598 6.949 1.629 10.982 1.782 13.067-17.572 3.586-34.323 9.928-49.784 18.798-12.667-4.706-24.561-11.745-31.603-18.787zm142.331 13.007c-94.3 45.088-125.597 163.455-67.224 249.022 1.021 1.497 2.489 2.508 4.103 2.976 6.747 1.955 12.23-5.652 8.289-11.429-40.592-59.5-35.747-142.415 18.507-196.689 29.26-29.25 68.154-45.358 109.516-45.358 85.435 0 154.883 69.109 154.883 154.873 0 85.403-69.48 154.883-154.883 154.883-41.972 0-81.269-16.525-110.651-46.531-2.899-2.96-7.647-3.009-10.606-.112-2.959 2.898-3.009 7.646-.111 10.606 13.595 13.885 29.68 25.663 48.194 34.577-32.741-4.475-63.676-19.403-88.181-43.908-90.271-90.271-38.345-245.382 88.164-262.91zm-253.39 152.745 57.462-11.163c-.564 8.161-.504 16.349 0 23.625l-57.462-11.163c-.346-.067-.536-.104-.536-.649 0-.546.19-.583.536-.65z"/></svg>