<svg height="512pt" viewBox="0 0 512 512" width="512pt" xmlns="http://www.w3.org/2000/svg"><path d="m512 256c0 141.386719-114.613281 256-256 256s-256-114.613281-256-256 114.613281-256 256-256 256 114.613281 256 256zm0 0" fill="#fedd90"/><path d="m512 256c0-17.65625-1.789062-34.898438-5.191406-51.550781l-99.320313-99.316407-296.792969 296.796876 107.25 107.25c12.417969 1.851562 25.121094 2.820312 38.054688 2.820312 141.386719 0 256-114.613281 256-256zm0 0" fill="#fcba66"/><path d="m400.816406 98.4375 13.367188 13.367188-56.085938 56.082031-13.363281-13.367188zm0 0" fill="#480306"/><path d="m351.808594 321.207031-62.902344 62.902344c-18.148438 18.148437-42.167969 29.703125-67.636719 32.519531-24.160156 2.675782-48.78125-2.535156-69.648437-14.699218h-40.929688l116.367188-205.46875zm0 0" fill="#a59d4d"/><path d="m271.613281 241.011719-160.917969 160.917969v-40.925782c-12.164062-20.871094-17.378906-45.492187-14.699218-69.652344 2.820312-25.460937 14.367187-49.484374 32.519531-67.636718l62.902344-62.902344zm0 0" fill="#bfb053"/><path d="m398.589844 154.132812c16.273437 16.273438 18.175781 41.566407 5.695312 59.945313l-121.730468-28.5625 95.984374-51.433594zm0 0" fill="#593927"/><path d="m378.539062 134.082031-73.707031 73.707031-6.285156-99.453124c18.375-12.480469 43.667969-10.578126 59.945313 5.695312zm0 0" fill="#6c533a"/><path d="m398.589844 301.15625-46.78125 46.78125-93.5625-93.558594 24.308594-68.863281 68.859374-24.308594 52.875 52.871094c19.925782 25.925781 18.035157 63.347656-5.699218 87.078125zm0 0" fill="#480306"/><path d="m351.414062 161.207031-93.167968 93.171875-93.5625-93.5625 46.78125-46.78125c23.734375-23.734375 61.152344-25.628906 87.082031-5.699218zm0 0" fill="#593927"/><path d="m231.515625 147.445312 13.363281 13.367188-13.363281 13.363281-13.367187-13.363281zm0 0" fill="#6c533a"/><path d="m351.808594 321.210938-13.367188-13.367188 13.367188-13.363281 13.367187 13.363281zm0 0" fill="#593927"/><path d="m325.074219 294.480469-13.363281-13.367188 13.363281-13.367187 13.367187 13.367187zm0 0" fill="#593927"/><path d="m284.976562 147.445312 13.367188 13.367188-13.367188 13.363281-13.363281-13.363281zm0 0" fill="#6c533a"/></svg>