<svg id="Layer_1" enable-background="new 0 0 511.992 511.992" height="512" viewBox="0 0 511.992 511.992" width="512" xmlns="http://www.w3.org/2000/svg"><path d="m458.252 299.434-8.642-9.586 6.501-10.685c15.272-25.103 8.989-57.984-14.404-75.386l-9.917-7.377 3.677-10.552c9.887-28.375-3.792-59.676-31.079-71.117l-10.024-4.203.435-7.572c1.811-31.486-22.007-58.375-52.872-59.691l-7.071-.301-.331-.818c-12.732-31.467-49.786-44.158-78.528-26.896-28.937-17.042-65.953-4.185-78.706 27.338l-.152.374-7.072.301c-30.865 1.315-54.683 28.204-52.873 59.689l.435 7.576-10.025 4.204c-27.287 11.441-40.965 42.743-31.078 71.117l3.677 10.552-9.917 7.377c-23.394 17.402-29.676 50.283-14.404 75.386l6.5 10.685-8.642 9.586c-19.472 21.6-19.472 54.834 0 76.434l.048.053c5.477 6.076 13.196 9.534 21.284 9.535l361.797.048c8.133.001 15.897-3.499 21.38-9.633.002-.002.003-.003.003-.003 19.472-21.6 19.472-54.835 0-76.435z" fill="#2ddfb6"/><ellipse cx="156.048" cy="171.299" fill="#ffa1ac" rx="36.879" ry="29.369"/><ellipse cx="355.944" cy="171.299" fill="#ffa1ac" rx="36.879" ry="29.369"/><path d="m178.442 309.834c-7.992-7.992-20.949-7.992-28.941 0l-.001.001c-7.992 7.992-7.991 20.949 0 28.941l92.025 92.025 28.942-28.942z" fill="#e7896e"/><path d="m362.492 238.209c-7.992-7.992-20.949-7.992-28.941 0l-92.025 92.024 28.941 28.942 92.026-92.025c7.99-7.992 7.99-20.949-.001-28.941z" fill="#e7896e"/><path d="m306.461 265.298-64.936 64.935 28.941 28.941 35.995-35.994z" fill="#dd6642"/><path d="m205.532 394.807 35.993 35.993 28.942-28.942-64.935-64.935z" fill="#dd6642"/><path d="m255.996 225.433c-11.303 0-20.465 9.162-20.465 20.464v258.598h40.929v-258.597c.001-11.302-9.162-20.465-20.464-20.465z" fill="#e7896e"/><path d="m172.51 43.159-2.443.104c-30.865 1.315-54.683 28.204-52.873 59.689l.435 7.576-10.025 4.204c-27.287 11.441-40.965 42.743-31.078 71.118l3.677 10.552-9.917 7.376c-23.394 17.402-29.676 50.283-14.404 75.386l6.5 10.685-8.642 9.586c-19.472 21.6-19.472 54.834 0 76.434l.048.053c5.477 6.076 13.196 9.534 21.284 9.535l22.61.003c-26.559-153.444 32.616-277.108 74.828-342.301z" fill="#00c070"/><path d="m177.541 120.448c-4.142 0-7.5 3.358-7.5 7.5v15.076c0 4.142 3.358 7.5 7.5 7.5s7.5-3.358 7.5-7.5v-15.076c0-4.142-3.358-7.5-7.5-7.5z"/><path d="m334.452 150.524c4.142 0 7.5-3.358 7.5-7.5v-15.076c0-4.142-3.358-7.5-7.5-7.5s-7.5 3.358-7.5 7.5v15.076c0 4.142 3.358 7.5 7.5 7.5z"/><path d="m255.997 159.498c10.095 0 19.695-4.372 26.338-11.996 2.721-3.123 2.396-7.86-.727-10.582-3.122-2.721-7.86-2.396-10.582.727-3.794 4.354-9.272 6.851-15.03 6.851s-11.236-2.497-15.03-6.851c-2.721-3.123-7.46-3.448-10.582-.727-3.123 2.721-3.448 7.459-.727 10.582 6.644 7.624 16.244 11.996 26.34 11.996z"/><path d="m48.218 380.94c6.881 7.633 16.669 12.012 26.854 12.013l118.019.015 34.941 34.941v76.583c0 4.142 3.358 7.5 7.5 7.5h40.929c4.142 0 7.5-3.358 7.5-7.5v-46.561c0-4.142-3.358-7.5-7.5-7.5s-7.5 3.358-7.5 7.5v39.061h-25.929v-187.262c0-7.816-10.429-10.322-14.095-3.575-.593 1.092-.905 2.312-.905 3.575v39.083l-44.286-44.286c-10.928-10.928-28.619-10.93-39.548.001-10.903 10.903-10.903 28.644 0 39.547l33.891 33.891-103.015-.013c-5.945 0-11.672-2.573-15.763-7.11-16.781-18.614-16.78-47.776 0-66.391l8.642-9.585c2.22-2.462 2.56-6.088.837-8.92l-6.5-10.684c-13.197-21.692-7.718-50.451 12.473-65.471l9.917-7.377c2.629-1.956 3.684-5.392 2.606-8.485l-3.677-10.552c-8.602-24.687 3.212-51.803 26.896-61.733l10.025-4.204c2.932-1.229 4.77-4.173 4.587-7.347.342-3.521-4.889-24.806 12.217-43.713 16.502-18.239 36.884-15.272 40.125-15.93 5.25-.223 6.703-4.95 6.785-5.055 11.035-27.277 42.984-38.392 67.948-23.689 2.369 1.395 5.312 1.382 7.667-.033 24.758-14.869 56.705-3.931 67.714 23.278.121.162 1.438 5.263 6.964 5.499 3.293.669 23.569-2.369 40.125 15.932 17.068 18.866 11.879 40.243 12.215 43.71-.183 3.174 1.656 6.118 4.588 7.347l10.024 4.203c23.685 9.931 35.499 37.047 26.896 61.733l-3.676 10.552c-1.078 3.094-.023 6.53 2.606 8.485l9.917 7.377c20.191 15.02 25.67 43.778 12.473 65.47l-6.5 10.686c-1.722 2.832-1.382 6.458.837 8.92l8.642 9.586c16.611 18.426 16.962 47.508-.024 66.417-6.898 7.717-15.669 7.105-15.787 7.131l-152.91-.02v-21.698l83.834-83.833c10.917-10.919 10.89-28.658 0-39.547-8.902-8.903-19.874-8.211-19.774-8.191-7.469 0-14.492 2.909-19.773 8.19l-44.287 44.286v-31.293c0-15.359-12.48-27.964-27.965-27.964-15.394 0-27.964 12.525-27.964 27.964.416 34.394-.802 34.398.905 37.542 3.683 6.776 14.095 4.206 14.095-3.575v-33.966c0-9.232 9.467-15.563 18.006-11.944 4.636 1.964 7.923 6.567 7.923 11.944v182.161c0 4.142 3.358 7.5 7.5 7.5s7.5-3.358 7.5-7.5v-35.076c2.331 0 153.931.02 152.914.02 10.212 0 20.013-4.396 26.902-12.063.015-.017.031-.033.046-.05 10.662-11.827 16.533-27.183 16.533-43.239 0-30.112-19.63-45.93-21.436-48.677 1.199-2.896 17.531-22.092 11.854-51.801-5.673-29.69-27.918-41.286-30.091-43.506l1.865-5.353c11.204-32.153-4.285-67.514-35.262-80.501l-5.131-2.152.131-2.276c2.06-35.846-25.107-66.126-60.04-67.615l-2.385-.102c-15.187-31.711-52.899-44.73-83.901-28.968-30.927-15.404-68.408-2.563-83.792 28.965-1.161.272-26.093-1.303-45.958 20.654-20.332 22.474-16.223 48.184-16.373 49.342l-5.133 2.153c-30.978 12.989-46.466 48.349-35.263 80.502l1.865 5.353c-2.44 2.492-24.368 13.556-30.091 43.506-5.673 29.693 10.669 48.937 11.854 51.799l-4.901 5.437c-21.953 24.353-22.156 61.902.048 86.532zm120.719-68.623c4.209 1.743.354-.546 59.096 57.708v36.67c-10.786-10.785-62.464-62.463-73.228-73.227-2.449-2.449-3.797-5.704-3.797-9.167-.001-9.198 9.382-15.525 17.929-11.984zm192.043-59.641c0 3.328-1.268 6.644-3.791 9.167l-73.228 73.227v-36.67l54.894-54.892c8.17-8.163 22.125-2.321 22.125 9.168z"/></svg>