<svg height="512pt" viewBox="0 0 512 512" width="512pt" xmlns="http://www.w3.org/2000/svg"><path d="m512 256c0 141.386719-114.613281 256-256 256s-256-114.613281-256-256 114.613281-256 256-256 256 114.613281 256 256zm0 0" fill="#d95d27"/><path d="m494.949219 163.992188-61.992188-61.992188-18.292969 18.292969 13.523438 13.519531-8.832031 16.832031-48.648438-48.644531-18.292969 18.292969 7.988282 23.191406 1.671875 13.445313-54.929688-54.929688-18.289062 18.292969 9.320312 9.320312v4.199219l-31.8125-31.8125-18.289062 18.292969 7.925781 12.207031-1.011719 21.011719-51.539062-51.542969-18.292969 18.292969 5.792969 5.789062 1.296875 6.203125-30.257813-30.253906-18.289062 18.292969 10.003906 10.003906-2.105469 23.601563-51.898437-51.898438-18.292969 18.292969 10.09375 23.191406 6.5 10.015625 13.5 13-16.34375 4.144531 197.148438 197.148438-15.25 15.25-115.105469-115.105469-18.292969 18.292969 10.34375 20.726562 1.523438 27.773438 84.921874 84.917969-36.296874 36.296874 56 56c139.46875-2.214843 251.851562-115.945312 251.851562-255.945312 0-32.433594-6.046875-63.453125-17.050781-92.007812zm0 0" fill="#c7461f"/><path d="m350.03125 299.050781c0 17.15625-13.957031 31.113281-31.113281 31.113281h-20.742188v20.742188h20.742188c28.59375 0 51.855469-23.261719 51.855469-51.855469v-31.113281h-20.742188zm0 0" fill="#480306"/><path d="m298.175781 371.648438h31.113281v20.742187h-31.113281zm0 0" fill="#593927"/><path d="m161.96875 299.050781v-31.113281h-20.742188v31.113281c0 28.59375 23.261719 51.855469 51.855469 51.855469h20.742188v-20.742188h-20.742188c-17.15625 0-31.113281-13.957031-31.113281-31.113281zm0 0" fill="#593927"/><path d="m130.855469 164.226562c-17.15625 0-31.113281-13.957031-31.113281-31.113281v-31.113281h-20.742188v31.113281c0 28.589844 23.265625 51.855469 51.855469 51.855469h20.742187v-20.742188zm0 0" fill="#907154"/><path d="m360.402344 164.226562v20.742188h-22.125c-28.597656 0-51.855469-23.265625-51.855469-51.855469v-31.113281h20.742187v31.113281c0 17.152344 13.960938 31.113281 31.113282 31.113281zm0 0" fill="#6c533a"/><path d="m412.257812 102v31.113281c0 17.152344-13.957031 31.113281-31.113281 31.113281h-10.371093v-62.226562h-20.742188v93.339844c0 17.152344-13.957031 31.113281-31.113281 31.113281h-62.917969l-27.65625 114.773437 27.65625 114.773438h51.855469v-208.804688h11.0625c28.597656 0 51.855469-23.265624 51.855469-51.855468v-10.371094h10.371093c28.597657 0 51.855469-23.265625 51.855469-51.855469v-31.113281zm0 0" fill="#593927"/><path d="m214.515625 184.96875c28.589844 0 51.855469-23.265625 51.855469-51.855469v-31.113281h-20.742188v31.113281c0 17.152344-13.957031 31.113281-31.113281 31.113281h-11.0625v-62.226562h-20.742187v93.339844c0 11.664062 3.871093 22.441406 10.398437 31.113281-17.179687 0-31.140625-13.960937-31.140625-31.113281v-93.339844h-20.742188v93.339844c0 28.589844 23.265626 51.855468 51.855469 51.855468h11.0625v208.804688h51.855469v-229.546875h-21.433594c-17.15625 0-31.113281-13.960937-31.113281-31.113281v-10.371094zm0 0" fill="#6c533a"/></svg>