<svg id="Layer_1" enable-background="new 0 0 512 512" height="512" viewBox="0 0 512 512" width="512" xmlns="http://www.w3.org/2000/svg"><path d="m43.958 305.2s-.815 27.187-23.359 71.832c-7.357 14.568-4.774 32.183 6.588 43.899 10.837 11.175 27.363 14.625 41.785 8.767 29.299-11.9 77.245-37.66 104.151-85.839z" fill="#2ddfb6"/><path d="m43.958 305.2s-.815 27.187-23.359 71.832c-7.357 14.568-4.774 32.183 6.588 43.899 8.301 8.56 19.938 12.567 31.413 11.351-.476-.443-.956-.88-1.413-1.351-11.362-11.716-13.944-29.331-6.588-43.899 22.544-44.645 23.359-71.832 23.359-71.832z" fill="#00c070"/><path d="m468.042 305.2s.815 27.187 23.359 71.832c7.357 14.568 4.774 32.183-6.588 43.899-10.837 11.175-27.363 14.625-41.785 8.767-29.299-11.9-77.245-37.66-104.151-85.839z" fill="#2ddfb6"/><path d="m33.881 250.721s24.557-100.565 116.247-123.506v132.931l-36.798 30.25h-38.14z" fill="#e7896e"/><path d="m63.881 250.721s19.06-78 86.247-112.279v-11.227c-91.691 22.941-116.247 123.506-116.247 123.506z" fill="#dd6642"/><path d="m478.119 250.721s-24.557-100.565-116.247-123.506v132.931l36.798 30.25h38.14z" fill="#e7896e"/><path d="m48.335 241.136c-10.955-5.48-24.274-1.688-30.708 8.736l-6.596 10.687c-7.283 11.799-2.902 27.288 9.472 33.546 35.067 17.736 107.589 48.79 194.722 54.539l3.934-59.629c-75.728-4.997-140.224-32.572-170.824-47.879z" fill="#dcdcdc"/><path d="m35.694 273.24 6.806-11.878c4.514-7.878 12.606-12.524 21.136-12.939-5.753-2.612-10.89-5.079-15.301-7.286-10.955-5.48-24.274-1.688-30.708 8.735l-6.596 10.687c-7.283 11.8-2.902 27.288 9.472 33.546 5.155 2.607 11.14 5.507 17.842 8.567-6.73-8.003-8.223-19.706-2.651-29.432z" fill="#bab8bf"/><path d="m463.665 241.136c10.955-5.48 24.274-1.688 30.708 8.736l6.596 10.687c7.283 11.799 2.902 27.288-9.472 33.546-35.067 17.736-107.589 48.79-194.722 54.539l-3.934-59.629c75.728-4.997 140.224-32.572 170.824-47.879z" fill="#dcdcdc"/><path d="m256 79.486c-84.278 0-152.599 78.739-152.599 163.017s68.321 119.232 152.599 119.232 152.599-34.955 152.599-119.233-68.321-163.016-152.599-163.016z" fill="#2ddfb6"/><path d="m133.401 242.503c0-79.216 60.362-153.531 137.599-162.173-4.935-.552-9.938-.844-15-.844-84.278 0-152.599 78.739-152.599 163.017s68.321 119.232 152.599 119.232c5.062 0 10.065-.129 15-.385-77.237-3.995-137.599-39.631-137.599-118.847z" fill="#00c070"/><ellipse cx="173.123" cy="284.498" fill="#ffa1ac" rx="30.58" ry="24.352"/><ellipse cx="338.877" cy="284.498" fill="#ffa1ac" rx="30.58" ry="24.352"/><path d="m168.887 257.984c0 4.142 3.358 7.5 7.5 7.5s7.5-3.358 7.5-7.5c0-3.891 3.165-7.056 7.055-7.056 3.891 0 7.056 3.165 7.056 7.056 0 4.142 3.358 7.5 7.5 7.5s7.5-3.358 7.5-7.5c0-12.162-9.894-22.056-22.056-22.056-12.161 0-22.055 9.895-22.055 22.056z"/><path d="m314 257.984c0-3.891 3.165-7.056 7.056-7.056 3.89 0 7.055 3.165 7.055 7.056 0 4.142 3.358 7.5 7.5 7.5s7.5-3.358 7.5-7.5c0-12.162-9.894-22.056-22.056-22.056s-22.056 9.894-22.056 22.056c0 4.142 3.358 7.5 7.5 7.5s7.501-3.357 7.501-7.5z"/><path d="m277.094 279.924c2.721-3.123 2.396-7.861-.727-10.582-3.122-2.721-7.861-2.396-10.582.727-5.175 5.938-14.382 5.954-19.572 0-2.722-3.123-7.46-3.447-10.582-.726-3.123 2.722-3.448 7.459-.726 10.582 11.161 12.807 31.036 12.798 42.189-.001z"/><path d="m17.112 300.785c5.193 2.626 11.52 5.693 18.824 9.007-1.333 9.423-5.999 32.086-22.038 63.848-15.423 30.542 6.784 66.394 40.594 66.394 5.802 0 11.671-1.111 17.298-3.397 26.261-10.666 73.609-35.097 102.824-80.753 23.115 8.78 50.658 13.341 81.385 13.341 30.728 0 58.272-4.561 81.386-13.341 12.469 19.509 29.341 36.977 50.26 51.982 3.366 2.415 8.052 1.643 10.466-1.723 2.415-3.366 1.643-8.051-1.723-10.466-18.631-13.364-33.758-28.758-45.066-45.849.555-.275 1.104-.553 1.649-.834 37.514-7.052 74.889-18.694 108.875-32.967 2.148 12.266 7.837 34.615 22.865 64.374 5.93 11.743 3.809 25.928-5.277 35.297-8.739 9.012-21.92 11.776-33.58 7.04-8.445-3.43-16.801-7.37-24.832-11.709-3.646-1.969-8.195-.61-10.164 3.034-1.969 3.645-.61 8.195 3.034 10.164 8.512 4.598 17.366 8.773 26.318 12.409 17.267 7.013 36.911 2.995 49.993-10.495 13.535-13.956 16.709-35.055 7.899-52.502-16.043-31.77-20.707-54.421-22.04-63.847 7.305-3.315 13.633-6.382 18.826-9.009 16.271-8.23 22.053-28.649 12.469-44.179l-6.596-10.687c-4.864-7.882-12.608-12.871-21.057-14.364-11.702-30.469-43.596-92.414-113.879-111.074-45.853-47.33-108.723-60.174-163.931-37.898-3.841 1.55-5.698 5.921-4.149 9.761 1.55 3.841 5.92 5.699 9.762 4.149 108.227-43.669 216.529 71.523 190.078 176.177-15.311 61.118-78.516 81.553-141.586 81.553-124.396 0-173.236-77.788-132.134-173.605 12.062-28.083 32.06-53.008 57.387-70.118 3.433-2.319 4.336-6.981 2.017-10.414-2.319-3.432-6.982-4.335-10.413-2.016-9.573 6.467-18.505 14.001-26.665 22.407-70.296 18.657-102.193 80.609-113.895 111.08-8.449 1.493-16.193 6.483-21.057 14.364l-6.596 10.687c-9.575 15.513-3.819 35.941 12.469 44.179zm470.884-46.988 6.596 10.687c4.979 8.068 1.998 18.631-6.474 22.915-25.047 12.668-54.08 24.384-83.445 33.379-6.728 2.058-13.819 4.072-20.743 5.882 14.796-14.918 25.029-33.981 29.483-56.007 44.272-15.788 52.06-24.34 61.108-24.543 5.34.077 10.468 2.815 13.475 7.687zm-23.921-20.966c-5.952 2.08-17.022 9.202-48.385 20.999 2.76-37.392-8.163-77.371-31.264-110.707 45.772 21.445 69.283 64.378 79.649 89.708zm-397.93 189.908c-11.66 4.736-24.841 1.972-33.58-7.04-9.087-9.37-11.207-23.555-5.277-35.297 14.972-29.649 20.678-52.087 22.845-64.383 34.403 14.451 71.781 25.999 108.895 32.975.544.28 1.094.558 1.648.833-27.086 40.883-70.347 63.089-94.531 72.912zm61.429-279.616c-23.656 34.147-33.948 74.308-31.265 110.707-30.678-11.591-43.194-19.187-48.385-20.999 10.366-25.33 33.877-68.263 79.65-89.708zm-110.166 121.361 6.596-10.686c2.902-4.701 7.962-7.676 13.7-7.676 4.381-.016 6.804 1.493 10.448 3.278 16.296 7.972 34.699 15.658 50.436 21.253 4.516 22.326 14.887 41.289 29.483 56.007-36.858-9.636-73.254-23.616-104.187-39.261-4.094-2.071-7.033-5.64-8.277-10.051-1.242-4.402-.603-8.971 1.801-12.864z"/></svg>