<?xml version="1.0" encoding="iso-8859-1"?>
<!-- Generator: Adobe Illustrator 19.0.0, SVG Export Plug-In . SVG Version: 6.00 Build 0)  -->
<svg version="1.1" id="Capa_1" xmlns="http://www.w3.org/2000/svg" xmlns:xlink="http://www.w3.org/1999/xlink" x="0px" y="0px"
	 viewBox="0 0 512 512" style="enable-background:new 0 0 512 512;" xml:space="preserve">
<circle style="fill:#2864F0;" cx="256" cy="256" r="256"/>
<path style="fill:#0053BF;" d="M512,256c0-7.198-0.313-14.322-0.895-21.37L371.038,94.563l-65.192,182.054L185.873,156.644
	l-47.974,29.618l1.757,17.412l137.199,137.199l-41.389,44.991l-51.22-51.22l-40.894,39.819l53.44,53.44l-16.213,17.624
	l66.294,66.294c3.031,0.106,6.07,0.179,9.127,0.179C397.385,512,512,397.385,512,256z"/>
<path style="fill:#E0E0E0;" d="M374.197,100.219H183.858c0,0,7.281,66.122,23.733,101.815
	c26.97,58.511,32.488,143.676-15.163,208.589c-4.971,6.771-9.712,13.709-14.192,20.815l0,0c-5.886,9.336,4.426,20.39,14.166,15.201
	c59.828-31.876,152.205-102.356,168.978-186.222C381.476,159.942,374.197,100.219,374.197,100.219z"/>
<path style="fill:#C0C0C0;" d="M374.197,100.219H255.952v305.044c47.435-36.741,93.996-87.682,105.429-144.846
	C381.476,159.941,374.197,100.219,374.197,100.219z"/>
<path style="fill:#FFFFFF;" d="M206.775,200.219c0.27,0.613,0.542,1.219,0.816,1.815c18.221,39.53,26.644,91.224,15.502,140.621
	c17.005,3.684,39.83,5.94,64.934,5.94c9.914,0,19.469-0.354,28.455-1.006c21.771-26.305,38.625-55.802,44.899-87.172
	c4.421-22.107,7.517-42.239,9.656-60.198H206.775z"/>
<path style="fill:#E0E0E0;" d="M255.952,200.219v147.086c10.022,0.833,20.816,1.29,32.075,1.29c9.914,0,19.469-0.354,28.455-1.006
	c21.771-26.305,38.625-55.802,44.899-87.172c4.421-22.107,7.517-42.239,9.656-60.198H255.952z"/>
<path id="SVGCleanerId_0" style="fill:#C0C0C0;" d="M183.858,100.219c0,0,7.281,66.122,23.733,101.815
	c5.64,12.236,10.337,25.642,13.811,39.78c17.317,4.179,41.66,6.781,68.625,6.781c30.554,0,57.742-3.34,75.155-8.531
	c15.312-88.131,9.014-139.845,9.014-139.845S183.858,100.219,183.858,100.219z"/>
<g>
	<path id="SVGCleanerId_0_1_" style="fill:#C0C0C0;" d="M183.858,100.219c0,0,7.281,66.122,23.733,101.815
		c5.64,12.236,10.337,25.642,13.811,39.78c17.317,4.179,41.66,6.781,68.625,6.781c30.554,0,57.742-3.34,75.155-8.531
		c15.312-88.131,9.014-139.845,9.014-139.845S183.858,100.219,183.858,100.219z"/>
</g>
<path style="fill:#758F9B;" d="M374.197,100.219H255.952v146.916c10.581,0.941,22.065,1.46,34.075,1.46
	c30.554,0,57.742-3.34,75.155-8.531C380.495,151.933,374.197,100.219,374.197,100.219z"/>
<ellipse style="fill:#FFFFFF;" cx="279.03" cy="100.22" rx="95.17" ry="22.07"/>
<path style="fill:#E0E0E0;" d="M279.028,78.147c-7.958,0-15.687,0.228-23.075,0.654v42.834c7.389,0.427,15.117,0.655,23.075,0.655
	c52.561,0,95.169-9.882,95.169-22.072C374.197,88.029,331.588,78.147,279.028,78.147z"/>
<path style="fill:#FFFFFF;" d="M268.667,227.144c-34.941,0-67.889-3.168-92.772-8.92c-29.985-6.932-44.562-16.662-44.562-29.747
	c0-14.491,17.84-24.903,54.54-31.833l3.34,17.688c-27.396,5.173-37.34,11.421-39.561,14.103c1.603,1.805,8.649,7.769,34.76,13.233
	c23.037,4.821,52.96,7.476,84.255,7.476s61.217-2.655,84.254-7.476c25.936-5.428,33.063-11.349,34.728-13.196
	c-0.947-1.061-3.681-3.444-10.825-6.337l6.758-16.684C398.457,171.476,406,179.223,406,188.477
	c0,13.084-14.576,22.815-44.561,29.747C336.555,223.976,303.608,227.144,268.667,227.144z"/>
<path style="fill:#E0E0E0;" d="M383.581,165.451l-6.758,16.684c7.145,2.894,9.878,5.277,10.825,6.337
	c-1.665,1.847-8.792,7.768-34.728,13.196c-23.037,4.821-52.959,7.476-84.254,7.476c-4.27,0-8.51-0.054-12.715-0.151v18.009
	c4.201,0.094,8.442,0.143,12.715,0.143c34.941,0,67.888-3.168,92.772-8.92C391.424,211.292,406,201.561,406,188.477
	C406,179.223,398.457,171.476,383.581,165.451z"/>
<path style="fill:#FFFFFF;" d="M252.962,396.006c-28.992,0-56.347-2.632-77.024-7.413c-25.596-5.917-38.038-14.457-38.038-26.106
	c0-12.848,15.16-21.955,46.347-27.843l3.34,17.688c-18.957,3.579-27.61,7.815-30.689,10.153c2.925,2.215,10.911,6.184,28.124,9.658
	c18.736,3.781,42.864,5.864,67.941,5.864s49.205-2.083,67.941-5.864c17.161-3.463,25.151-7.419,28.098-9.638
	c-1.185-0.901-3.364-2.242-7.238-3.811l6.757-16.684c12.942,5.242,19.505,12.131,19.505,20.478
	c0,11.649-12.442,20.189-38.038,26.106C309.309,393.374,281.954,396.006,252.962,396.006z"/>
<path style="fill:#E0E0E0;" d="M348.52,342.01l-6.757,16.684c3.874,1.569,6.054,2.91,7.238,3.811
	c-2.946,2.219-10.937,6.174-28.098,9.638c-17.99,3.63-40.953,5.689-64.951,5.848v17.999c27.877-0.175,54.07-2.78,74.034-7.396
	c25.596-5.917,38.038-14.457,38.038-26.106C368.024,354.141,361.462,347.251,348.52,342.01z"/>
<g>
</g>
<g>
</g>
<g>
</g>
<g>
</g>
<g>
</g>
<g>
</g>
<g>
</g>
<g>
</g>
<g>
</g>
<g>
</g>
<g>
</g>
<g>
</g>
<g>
</g>
<g>
</g>
<g>
</g>
</svg>
