<svg id="Layer_1" enable-background="new 0 0 512 512" height="512" viewBox="0 0 512 512" width="512" xmlns="http://www.w3.org/2000/svg"><circle cx="287.724" cy="86.715" fill="#00c070" r="79.211"/><circle cx="425.289" cy="224.28" fill="#00c070" r="79.211"/><path d="m476.37 152.331c-32.225 32.225-122.817 70.57-155.042 38.345s6.12-122.817 38.345-155.042 84.472-32.225 116.697 0 32.225 84.472 0 116.697z" fill="#2ddfb6"/><path d="m353.73 160.208c-58.926-59.991-156.099-58.705-215.153 1.16-109.04 110.536-128.305 246.837-131.045 309.113-.841 19.125 14.944 34.827 34.069 33.982 62.715-2.771 200.303-22.299 311.164-133.16 58.238-58.237 58.559-152.46.965-211.095z" fill="#ffaa78"/><path d="m353.73 160.208c-3.667-3.733-7.483-7.229-11.428-10.488 48.82 58.911 45.647 146.399-9.537 201.584-110.861 110.86-248.449 130.389-311.164 133.159-4.316.191-8.458-.468-12.281-1.812 4.605 13.149 17.434 22.468 32.281 21.812 62.715-2.771 200.303-22.299 311.164-133.16 58.238-58.238 58.559-152.46.965-211.095z" fill="#ff8c46"/><path d="m149.677 244.286-9.753 9.753c-2.929 2.929-2.929 7.678 0 10.607 2.928 2.928 7.678 2.929 10.606 0l9.753-9.753c2.929-2.929 2.929-7.678 0-10.607-2.928-2.929-7.677-2.929-10.606 0z"/><path d="m185.057 291.057c-4.123-.284-7.712 2.836-7.996 6.968-1.402 20.429 15.512 37.516 36.107 36.107 4.133-.284 7.252-3.864 6.969-7.996-.284-4.133-3.871-7.252-7.997-6.969-11.417.784-20.901-8.665-20.115-20.115.284-4.131-2.836-7.711-6.968-7.995z"/><path d="m265.309 386.379c1.919 0 3.839-.732 5.303-2.197 9.156-9.156 9.156-24.055 0-33.21-7.472-7.473-16.706-6.898-16.605-6.878-6.272 0-12.17 2.443-16.605 6.878-2.929 2.929-2.929 7.678 0 10.606s7.678 2.929 10.606 0c3.316-3.315 8.681-3.316 11.998 0 3.308 3.308 3.308 8.69 0 11.998-4.738 4.737-1.319 12.805 5.303 12.803z"/><path d="m41.932 511.935c26.044-1.151 66.908-5.277 113.682-18.401 3.988-1.119 6.314-5.259 5.195-9.247s-5.259-6.315-9.247-5.195c-45.399 12.738-85.036 16.742-110.292 17.858-14.717.652-26.895-11.387-26.245-26.16 4.819-109.536 47.152-221.315 128.891-304.175 45.41-46.033 112.375-54.472 164.712-29.547.001 0 .001.001.002.001 87.758 41.799 108.356 159.385 38.831 228.911-46.801 46.8-103.316 81.91-167.977 104.355-3.913 1.358-5.984 5.632-4.626 9.545s5.632 5.984 9.545 4.626c66.819-23.193 125.248-59.503 173.665-107.92 19.667-19.667 33.489-43.648 40.597-69.806 56.058 18.11 113.335-23.833 113.335-82.521 0-26.152-11.482-49.939-30.766-66.22 35.639-35.216 35.584-92.584.439-127.729-12.347-12.346-27.889-20.779-44.946-24.388-4.056-.858-8.032 1.733-8.89 5.785s1.733 8.033 5.785 8.89c14.208 3.006 27.157 10.032 37.444 20.319 31.028 31.028 29.407 82.5-6.362 111.863-19.748 16.468-51.399 31.91-78.805 38.682-6.049-11.375-13.466-21.865-21.734-31.103l65.706-65.705c2.929-2.929 2.929-7.678 0-10.606-2.929-2.929-7.678-2.929-10.606 0l-65.617 65.616c-9.87-9.133-21.047-17.092-33.155-23.464 8.594-34.888 28.603-69.402 44.483-85.282 11.296-11.296 25.598-18.572 41.36-21.043 4.092-.642 6.89-4.479 6.248-8.571s-4.482-6.889-8.571-6.248c-18.841 2.954-36.24 11.676-50.069 25.695-32.808-38.865-91.819-41.083-127.533-5.369-23.162 23.162-31.093 57.739-21.018 88.463-27.094 7.302-51.882 21.685-72.155 42.237-84.146 85.3-128.202 200.46-133.198 314.05-1.04 23.626 18.494 42.834 41.892 41.804zm434.064-338.383c13.545 13.545 21.004 31.552 21.004 50.707 0 48.743-48.088 84.105-95.085 67.798 2.037-11.932 2.752-24.252 1.939-37.026.647.008 1.315.032 1.953.032 40.79 0 60.56-15.707 61.447-16.431 3.21-2.617 3.712-7.359 1.095-10.57-2.617-3.21-7.32-3.708-10.53-1.09-.049.039-5 3.901-15.004 7.386-8.384 2.921-21.987 6.096-40.64 5.646-1.919-11.971-5.199-23.603-9.768-34.706 27.327-7.195 56.768-21.488 77.327-37.311 2.202 1.741 4.298 3.601 6.262 5.565zm-238.979-137.565c30.185-30.186 80.323-27.499 106.978 6.262-15.865 20.609-30.181 50.128-37.36 77.514-11.068-4.486-22.675-7.698-34.645-9.553-.503-18.796 2.671-32.498 5.601-40.943 3.455-9.958 7.295-14.942 7.417-15.098 2.581-3.209 2.091-7.905-1.105-10.512-3.21-2.618-7.935-2.138-10.552 1.073-.74.907-17.053 21.444-16.411 63.879-12.4-.733-24.665-.066-36.818 2.001-9.075-25.768-2.627-55.101 16.895-74.623z"/></svg>