<svg height="512pt" viewBox="0 0 512 512" width="512pt" xmlns="http://www.w3.org/2000/svg"><path d="m512 256c0 141.386719-114.613281 256-256 256s-256-114.613281-256-256 114.613281-256 256-256 256 114.613281 256 256zm0 0" fill="#fedd90"/><path d="m392.097656 111.84375-24.851562-24.855469-12.300782 12.296875-35.296874-35.296875-20.9375 20.9375-30.917969-30.917969-21.476563 21.476563 30.859375 30.859375-6.757812 6.757812-55.28125-55.28125-15.910157 15.910157 55.285157 55.28125-17.722657 17.722656-71.585937-71.589844-15.910156 15.910157 71.589843 71.585937-58.304687 58.304687-71.523437-71.527343-15.910157 15.910156 71.527344 71.523437-17.691406 17.6875-55.253907-55.253906-15.90625 15.910156 55.253907 55.253907-12.335938 12.332031-30.832031-30.828125-15.90625 15.90625 30.832031 30.832031-20.90625 20.902344 35.34375 35.34375-12.28125 12.28125 28.183594 28.183594-2.746094 2.746094 111.902344 111.902343c10.378906 1.28125 20.945313 1.949219 31.671875 1.949219 141.386719 0 256-114.613281 256-256 0-10.675781-.664062-21.191406-1.933594-31.523438l-115.300781-115.300781zm0 0" fill="#fcba66"/><g fill="#a59d4d"><path d="m244.164062 54h23.671876v35.507812h-23.671876zm0 0"/><path d="m215.148438 57.8125 9.1875 34.296875-22.863282 6.128906-9.1875-34.296875zm0 0"/><path d="m165.253906 75.140625 17.753906 30.75-20.5 11.835937-17.753906-30.75zm0 0"/><path d="m121.535156 104.792969 25.105469 25.109375-16.738281 16.738281-25.105469-25.109375zm0 0"/><path d="m86.976562 144.746094 30.75 17.753906-11.835937 20.5-30.75-17.753906zm0 0"/><path d="m63.949219 192.28125 34.296875 9.1875-6.125 22.867188-34.296875-9.191407zm0 0"/><path d="m54 244.164062h35.507812v23.671876h-35.507812zm0 0"/><path d="m92.121094 287.652344 6.128906 22.863281-34.296875 9.1875-6.128906-22.863281zm0 0"/><path d="m105.902344 328.992188 11.835937 20.5-30.75 17.753906-11.835937-20.5zm0 0"/><path d="m129.90625 365.355469 16.738281 16.738281-25.109375 25.109375-16.738281-16.738281zm0 0"/><path d="m162.5 394.257812 20.5 11.835938-17.753906 30.75-20.5-11.835938zm0 0"/><path d="m201.480469 413.742188 22.867187 6.125-9.191406 34.296874-22.863281-6.125zm0 0"/><path d="m244.164062 422.492188h23.671876v35.507812h-23.671876zm0 0"/><path d="m310.527344 413.738281 9.191406 34.296875-22.867188 6.128906-9.1875-34.296874zm0 0"/><path d="m349.507812 394.261719 17.753907 30.75-20.5 11.835937-17.753907-30.75zm0 0"/><path d="m382.097656 365.355469 25.105469 25.105469-16.738281 16.738281-25.105469-25.105469zm0 0"/><path d="m406.09375 328.988281 30.75 17.753907-11.835938 20.5-30.75-17.753907zm0 0"/><path d="m419.878906 287.640625 34.296875 9.191406-6.125 22.863281-34.296875-9.1875zm0 0"/><path d="m422.492188 244.164062h35.507812v23.671876h-35.507812zm0 0"/><path d="m448.046875 192.269531 6.128906 22.867188-34.296875 9.1875-6.128906-22.863281zm0 0"/><path d="m425.019531 144.738281 11.835938 20.5-30.75 17.753907-11.835938-20.5zm0 0"/><path d="m390.464844 104.792969 16.738281 16.738281-25.109375 25.105469-16.738281-16.738281zm0 0"/><path d="m346.742188 75.140625 20.5 11.835937-17.753907 30.75-20.5-11.835937zm0 0"/><path d="m296.84375 57.8125 22.863281 6.125-9.1875 34.296875-22.867187-6.125zm0 0"/></g><path d="m256 77.671875c98.492188 0 178.328125 79.835937 178.328125 178.328125s-79.835937 178.328125-178.328125 178.328125l-130.984375-178.328125zm0 0" fill="#707741"/><path d="m256 77.671875v356.65625c-98.492188 0-178.328125-79.835937-178.328125-178.328125s79.835937-178.328125 178.328125-178.328125zm0 0" fill="#8a8a47"/><path d="m256 101.34375c85.417969 0 154.65625 69.238281 154.65625 154.65625s-69.238281 154.65625-154.65625 154.65625l-113.597656-154.65625zm0 0" fill="#a59d4d"/><path d="m256 101.34375v309.3125c-85.417969 0-154.65625-69.238281-154.65625-154.65625 0-85.414062 69.238281-154.65625 154.65625-154.65625zm0 0" fill="#bfb053"/><path d="m353.449219 175.679688-147.554688 47.335937 50.105469 164.132813 26.898438-26.898438c53.671874-12.378906 92.25-60.621094 92.25-116.085938 0-25.472656-8.03125-49.09375-21.699219-68.484374zm0 0" fill="#480306"/><path d="m256 125.015625c40.226562 0 75.867188 20.042969 97.449219 50.667969-.007813 26.039062-21.304688 47.335937-47.34375 47.335937h-50.105469l-47.34375-49.003906zm0 0" fill="#fedd90"/><path d="m158.550781 175.679688c-13.667969 19.386718-21.699219 43.011718-21.699219 68.484374 0 55.464844 38.578126 103.707032 92.25 116.085938l26.898438 26.898438v-164.132813zm0 0" fill="#8b2613"/><path d="m256 125.015625v98.003906h-50.105469c-26.039062 0-47.335937-21.296875-47.34375-47.335937 21.582031-30.625 57.222657-50.667969 97.449219-50.667969zm0 0" fill="#fff2a3"/></svg>