<svg height="512pt" viewBox="0 0 512 512" width="512pt" xmlns="http://www.w3.org/2000/svg"><path d="m512 256c0 141.386719-114.613281 256-256 256s-256-114.613281-256-256 114.613281-256 256-256 256 114.613281 256 256zm0 0" fill="#bfb053"/><path d="m512 256c0-27.167969-4.246094-53.34375-12.089844-77.914062l-82.949218-82.949219-303 29.878906 1.707031 187.984375-11.804688 114.28125 71.863281 71.863281c25.25 8.332031 52.230469 12.855469 80.273438 12.855469 141.386719 0 256-114.613281 256-256zm0 0" fill="#a59d4d"/><path d="m235.804688 203.839844h111.746093v60.585937h-111.746093zm0 0" fill="#7a6c64"/><path d="m164.449219 203.839844h91.550781v60.585937h-91.550781zm0 0" fill="#9b918b"/><path d="m398.039062 250.960938v105.6875h-142.039062l-20.195312-105.6875zm0 0" fill="#d95d27"/><path d="m113.960938 250.960938h142.039062v105.6875h-142.039062zm0 0" fill="#eb7330"/><path d="m256 193.742188-13.464844 10.097656 13.464844 10.097656h111.746094v-20.195312zm0 0" fill="#9b918b"/><path d="m144.253906 193.742188h111.746094v20.195312h-111.746094zm0 0" fill="#bdb5b2"/><path d="m387.941406 153.351562h20.195313v273.980469h-20.195313zm0 0" fill="#e3c281"/><path d="m103.863281 153.351562h20.195313v273.980469h-20.195313zm0 0" fill="#fedd90"/><path d="m256 285.964844c39.039062 0 70.683594 31.644531 70.683594 70.683594 0 39.039062-31.644532 70.683593-70.683594 70.683593l-51.917969-70.683593zm0 0" fill="#480306"/><path d="m256 285.964844v141.367187c-39.039062 0-70.683594-31.644531-70.683594-70.683593 0-39.039063 31.644532-70.683594 70.683594-70.683594zm0 0" fill="#593927"/><path d="m256 306.160156c27.886719 0 50.488281 22.605469 50.488281 50.488282 0 27.886718-22.605469 50.488281-50.488281 50.488281l-37.085938-50.488281zm0 0" fill="#bdb5b2"/><path d="m256 306.160156v100.976563c-27.886719 0-50.488281-22.601563-50.488281-50.488281 0-27.882813 22.601562-50.488282 50.488281-50.488282zm0 0" fill="#fff"/><path d="m256 336.453125c11.152344 0 20.195312 9.042969 20.195312 20.195313 0 11.15625-9.042968 20.195312-20.195312 20.195312l-14.835938-20.195312zm0 0" fill="#593927"/><path d="m256 336.453125v40.390625c-11.152344 0-20.195312-9.039062-20.195312-20.195312 0-11.152344 9.042968-20.195313 20.195312-20.195313zm0 0" fill="#7a6c64"/><path d="m428.332031 123.058594v40.390625h-172.332031l-33.660156-40.390625 33.660156-40.390625h131.941406c22.269532 0 40.390625 18.121093 40.390625 40.390625zm0 0" fill="#c7461f"/><path d="m256 82.667969v80.78125h-172.332031v-40.390625c0-22.269532 18.121093-40.394532 40.390625-40.394532h131.941406zm0 0" fill="#d95d27"/><path d="m256 240.863281-13.464844 10.097657 13.464844 10.097656h172.332031v-20.195313zm0 0" fill="#8b2613"/><path d="m83.667969 240.863281h172.332031v20.195313h-172.332031zm0 0" fill="#c7461f"/></svg>