<svg id="Layer_1" enable-background="new 0 0 511.997 511.997" height="512" viewBox="0 0 511.997 511.997" width="512" xmlns="http://www.w3.org/2000/svg"><path d="m356.033 31.458c-1.398-5.937-6.033-10.573-11.971-11.971-24.887-5.859-52.143.914-71.55 20.321-21.83 21.83-27.674 53.588-17.538 80.737 4.874 1.82 9.896 3.124 14.982 3.913v5.69h9.786v-4.822c20.195.522 40.556-6.906 55.969-22.319 19.408-19.406 26.18-46.661 20.322-71.549z" fill="#2ddfb6"/><path d="m219.624 10.677c-6.064-5.162-15.28-3.881-19.739 2.717l-6.224 9.208c-3.805 5.629-2.733 13.156 2.371 17.641 44.141 38.785 41.142 108.933 41.104 109.684l18.856 1.005 18.864 1.05c.218-3.889 4.287-90.635-55.232-141.305z" fill="#e7896e"/><path d="m255.993 150.932 18.864 1.05c.114-2.041 1.284-26.913-6.232-57.409-12.865 2.263-26.174 1.051-38.559-3.654-.727-.276-1.458-.537-2.187-.804 10.501 30.731 9.281 59.334 9.257 59.812z" fill="#dd6642"/><path d="m265.492 132.535c-5.797 3.659-13.19 3.659-18.987 0-102.389-64.625-232.277 13.572-232.277 174.866 0 90.438 84.683 197.098 174.408 197.098 35.285 0 39.961-15.182 67.363-15.182s32.078 15.182 67.363 15.182c89.724 0 174.408-106.66 174.408-197.098-.001-161.294-129.889-239.491-232.278-174.866z" fill="#ff5f7f"/><path d="m54.228 307.401c0-112.729 63.45-184.851 136.612-196.009-88.359-13.419-176.612 63.056-176.612 196.009 0 90.438 84.683 197.098 174.408 197.098 7.715 0 13.966-.726 19.312-1.86-81.627-14.543-153.72-111.794-153.72-195.238z" fill="#f6375d"/><ellipse cx="149.122" cy="321.202" fill="#ffa1ac" rx="39.435" ry="31.404"/><ellipse cx="362.875" cy="321.202" fill="#ffa1ac" rx="39.435" ry="31.404"/><path d="m160.834 287.027c0-6.214 5.056-11.271 11.271-11.271s11.271 5.056 11.271 11.271c0 4.142 3.358 7.5 7.5 7.5s7.5-3.358 7.5-7.5c0-14.486-11.785-26.271-26.271-26.271s-26.271 11.785-26.271 26.271c0 4.142 3.358 7.5 7.5 7.5s7.5-3.358 7.5-7.5z"/><path d="m328.622 287.027c0-6.214 5.056-11.271 11.27-11.271s11.271 5.056 11.271 11.271c0 4.142 3.358 7.5 7.5 7.5s7.5-3.358 7.5-7.5c0-14.486-11.785-26.271-26.271-26.271-14.485 0-26.27 11.785-26.27 26.271 0 4.142 3.358 7.5 7.5 7.5s7.5-3.358 7.5-7.5z"/><path d="m281.563 313.893c2.721-3.123 2.396-7.86-.727-10.582-3.123-2.721-7.861-2.396-10.582.727-7.537 8.648-20.955 8.672-28.513 0-2.722-3.123-7.459-3.448-10.582-.727s-3.448 7.459-.727 10.582c13.531 15.525 37.615 15.508 51.131 0z"/><path d="m74.204 149.541c-2.981-2.876-7.729-2.792-10.604.189-36.675 38.008-56.872 94.003-56.872 157.669 0 94.227 87.66 204.598 181.908 204.598 36.533 0 42.654-15.182 67.363-15.182 24.866 0 30.677 15.182 67.362 15.182 46.647 0 94.798-26.981 132.107-74.026 2.574-3.246 2.029-7.963-1.216-10.537s-7.963-2.029-10.537 1.216c-29.511 37.213-73.24 68.347-120.354 68.347-33.43 0-37.839-15.182-67.362-15.182-29.307 0-34.1 15.182-67.363 15.182-85.136 0-166.908-102.865-166.908-189.598 0-59.76 18.704-112.056 52.666-147.253 2.876-2.981 2.791-7.729-.19-10.605z"/><path d="m346.344 102.461c16.747-20.171 23.091-46.801 16.989-72.722-2.063-8.764-8.789-15.49-17.552-17.553-34.586-8.142-68.872 6.102-88.1 33.696-8.127-14.578-18.893-28.743-33.195-40.918-9.47-8.061-23.862-6.06-30.815 4.229l-6.223 9.208c-5.87 8.686-4.308 20.497 3.634 27.475 12.667 11.129 28.374 31.672 35.313 67.803-47.721-19.808-98.213-12.946-138.86 15.522-3.393 2.376-4.217 7.053-1.84 10.445 2.376 3.394 7.053 4.217 10.446 1.841 43.041-30.146 95.871-32.454 142.641-4.872 4.234 2.505 4.643 2.986 7.244 4.099 7.82 3.34 16.61 2.49 23.47-1.837 96.512-60.878 220.773 11.999 220.773 168.523 0 30.882-10.549 65.328-29.705 96.993-3.04 5.025.634 11.383 6.41 11.383 2.539 0 5.015-1.289 6.424-3.619 20.552-33.973 31.871-71.177 31.871-104.757 0-128.506-78.553-201.9-158.925-204.939zm-4-75.674c3.19.75 5.638 3.198 6.389 6.388 6.343 26.947-3.81 53.928-24.815 70.252-14.925 1.825-29.499 6.003-43.587 12.507-.334-2.4-.886-5.934-1.389-8.751l47.164-47.164c2.929-2.929 2.929-7.678 0-10.606-2.929-2.929-7.678-2.929-10.606 0l-40.376 40.376c-2.351-8.977-5.454-18.485-9.57-28.042 14.323-27.254 45.407-42.348 76.79-34.96zm-99.441 94.893c-6.373-47.012-26.191-73.253-41.92-87.073-2.283-2.006-2.759-5.362-1.107-7.807l6.223-9.208c1.979-2.928 6.031-3.449 8.664-1.206 31.209 26.568 46.843 66.926 51.384 106.971-.108.063-2.978 1.774-4.658 2.834-3.335 2.105-7.646 2.105-10.981 0-2.628-1.659-6.401-3.84-7.605-4.511z"/></svg>