<svg id="Layer_1" enable-background="new 0 0 512 512" height="512" viewBox="0 0 512 512" width="512" xmlns="http://www.w3.org/2000/svg"><path d="m442.13 44.318c-16.223-19.374-44.935-21.697-64.451-5.646-19.899 16.366-56.27 33.215-121.679 33.215s-101.78-16.849-121.679-33.215c-19.517-16.051-48.228-13.728-64.451 5.646-28.94 34.561-62.37 97.677-62.37 204.839 0 129.676 111.257 234.8 248.5 234.8s248.5-105.124 248.5-234.8c0-107.162-33.43-170.278-62.37-204.839z" fill="#e7896e"/><path d="m37.5 249.157c0-107.162 33.43-170.277 62.37-204.838 5.494-6.562 12.423-11.16 19.94-13.759-17.438-5.985-37.411-1.203-49.94 13.759-28.94 34.56-62.37 97.676-62.37 204.838 0 129.677 111.257 234.8 248.5 234.8 5.038 0 10.036-.159 15-.438-130.256-7.33-233.5-109.446-233.5-234.362z" fill="#dd6642"/><path d="m268.643 159.541c-7.635 5.244-17.651 5.244-25.286 0-68.215-46.856-175.115-16.103-175.115 89.616 0 95.976 84.228 174.059 187.758 174.059s187.758-78.083 187.758-174.059c0-105.719-106.9-136.472-175.115-89.616z" fill="#f8cfc5"/><ellipse cx="144.279" cy="262.594" fill="#ffa2ae" rx="41.223" ry="32.828"/><ellipse cx="367.721" cy="262.594" fill="#ffa2ae" rx="41.223" ry="32.828"/><path d="m291.13 262.747c-.36 19.104-15.945 34.48-35.13 34.48s-34.77-15.376-35.13-34.48z" fill="#ff9000"/><path d="m291.142 262.073c0 .221 0 .453-.012.673-9.581 2.207-21.81 3.542-35.13 3.542s-25.549-1.336-35.13-3.542c-.012-.221-.012-.453-.012-.673 0-19.406 15.736-35.142 35.142-35.142s35.142 15.736 35.142 35.142z" fill="#ffa841"/><path d="m75.133 420.594c48.333 45.669 112.566 70.82 180.867 70.82s132.533-25.151 180.867-70.82c48.45-45.779 75.133-106.679 75.133-171.48 0-41.841-5.084-80.435-15.11-114.708-1.164-3.976-5.328-6.255-9.304-5.092s-6.255 5.329-5.092 9.304c9.625 32.904 14.506 70.081 14.506 110.496 0 60.633-25.014 117.661-70.435 160.578-45.537 43.026-106.112 66.722-170.565 66.722s-125.028-23.696-170.565-66.723c-45.421-42.916-70.435-99.944-70.435-160.577 0-105.486 32.965-166.997 60.62-200.024 13.407-16.009 37.603-18.104 53.938-4.669 19.37 15.932 57.031 34.923 126.442 34.923s107.072-18.991 126.443-34.922c16.335-13.435 40.531-11.341 53.937 4.669 14.762 17.629 27.105 38.589 36.685 62.295 1.552 3.84 5.924 5.695 9.764 4.144 3.84-1.552 5.695-5.923 4.144-9.764-10.168-25.163-23.321-47.472-39.091-66.305-18.669-22.295-52.299-25.267-74.966-6.624-17.478 14.373-51.949 31.507-116.916 31.507-64.968 0-99.438-17.134-116.915-31.507-22.668-18.643-56.296-15.671-74.966 6.624-52.995 63.289-64.119 148.943-64.119 209.653 0 64.801 26.683 125.701 75.133 171.48z"/><path d="m133.303 380.944c-2.458 3.334-1.748 8.03 1.586 10.487 34.823 25.672 76.703 39.241 121.111 39.241 107.666 0 195.258-81.447 195.258-181.559 0-24.724-5.53-46.651-16.438-65.175-9.935-16.872-24.434-30.657-41.932-39.866-39.566-20.823-90.002-17.195-128.492 9.243-5.101 3.503-11.693 3.503-16.793 0-38.49-26.438-88.926-30.066-128.493-9.243-17.497 9.209-31.997 22.995-41.932 39.866-10.907 18.523-16.438 40.451-16.438 65.175 0 45.181 18.03 88.509 50.768 122.001 2.895 2.962 7.644 3.017 10.606.121s3.016-7.644.121-10.605c-29.982-30.674-46.494-70.278-46.494-111.517 0-42.086 17.883-74.676 50.355-91.767 34.698-18.261 79.058-14.99 113.014 8.333 10.258 7.046 23.517 7.047 33.778 0 33.956-23.323 78.317-26.594 113.014-8.333 32.472 17.09 50.355 49.68 50.355 91.767 0 91.841-80.864 166.559-180.258 166.559-41.182 0-79.984-12.558-112.21-36.314-3.332-2.458-8.028-1.748-10.486 1.586z"/><path d="m175.803 230.949v-16.852c0-4.142-3.358-7.5-7.5-7.5s-7.5 3.358-7.5 7.5v16.852c0 4.142 3.358 7.5 7.5 7.5s7.5-3.358 7.5-7.5z"/><path d="m351.196 230.949v-16.852c0-4.142-3.358-7.5-7.5-7.5s-7.5 3.358-7.5 7.5v16.852c0 4.142 3.358 7.5 7.5 7.5s7.5-3.358 7.5-7.5z"/><path d="m256 219.388c-23.513 0-42.642 19.129-42.642 42.642 0 23.374 19.246 42.653 42.642 42.653 23.376 0 42.642-19.26 42.642-42.653 0-23.513-19.129-42.642-42.642-42.642zm0 15c13.399 0 24.601 9.581 27.114 22.252-16.563 2.773-37.266 2.833-54.228 0 2.513-12.671 13.715-22.252 27.114-22.252zm0 55.295c-11.623 0-21.7-7.349-25.745-17.645 15.759 2.222 34.995 2.317 51.489 0-4.044 10.296-14.121 17.645-25.744 17.645z"/></svg>