<svg height="512pt" viewBox="0 0 512 512" width="512pt" xmlns="http://www.w3.org/2000/svg"><path d="m512 256c0 141.386719-114.613281 256-256 256s-256-114.613281-256-256 114.613281-256 256-256 256 114.613281 256 256zm0 0" fill="#bfb053"/><path d="m383.503906 131.769531-52.960937-52.960937-45.34375 45.34375-45.441407-45.445313-21.171874 21.171875-21.191407-21.1875-17.941406 17.945313 21.1875 21.1875-9.441406 9.4375 68.898437 68.898437-184.777344 184.777344 124.964844 124.964844c17.9375 3.980468 36.578125 6.097656 55.714844 6.097656 141.386719 0 256-114.613281 256-256 0-2.261719-.03125-4.519531-.089844-6.769531l-122.933594-122.929688zm0 0" fill="#a59d4d"/><path d="m176.203125 78.695312h21.183594v31.777344h-21.183594zm0 0" fill="#fedd90"/><path d="m218.574219 78.695312h21.183593v31.777344h-21.183593zm0 0" fill="#fcba66"/><path d="m309.316406 78.695312h21.183594v31.777344h-21.183594zm0 0" fill="#fcba66"/><path d="m325.203125 99.878906h-130.746094v180.78125h130.746094c49.84375 0 90.390625-40.550781 90.390625-90.390625 0-49.839843-40.546875-90.390625-90.390625-90.390625zm0 0" fill="#f9963b"/><path d="m277.183594 190.269531c0 49.921875-40.46875 90.390625-90.386719 90.390625-49.921875 0-90.390625-40.46875-90.390625-90.390625s40.46875-90.390625 90.390625-90.390625c49.917969 0 90.386719 40.46875 90.386719 90.390625zm0 0" fill="#fcba66"/><path d="m186.796875 259.472656c-38.160156 0-69.207031-31.042968-69.207031-69.203125 0-38.160156 31.046875-69.207031 69.207031-69.207031 38.15625 0 69.203125 31.046875 69.203125 69.207031 0 38.160157-31.046875 69.203125-69.203125 69.203125zm0 0" fill="#fedd90"/><path d="m186.796875 238.289062c-26.480469 0-48.023437-21.542968-48.023437-48.019531 0-26.480469 21.542968-48.019531 48.023437-48.019531 26.476563 0 48.019531 21.539062 48.019531 48.019531 0 26.476563-21.542968 48.019531-48.019531 48.019531zm0 0" fill="#fcba66"/><path d="m341.445312 243.230469h84.742188v56.496093h-84.742188zm0 0" fill="#f9963b"/><path d="m341.445312 200.863281h84.742188v42.367188h-84.742188zm0 0" fill="#eb7330"/><path d="m341.445312 243.230469v56.496093h-99.566406l14.121094-56.496093zm0 0" fill="#f9963b"/><path d="m341.445312 200.863281v42.367188h-99.566406l14.121094-42.367188zm0 0" fill="#eb7330"/><path d="m170.554688 243.230469h85.445312v56.496093h-85.445312zm0 0" fill="#fcba66"/><path d="m170.554688 200.863281h85.445312v42.367188h-85.445312zm0 0" fill="#f9963b"/><path d="m85.8125 243.230469h84.742188v56.496093h-84.742188zm0 0" fill="#fcba66"/><path d="m85.8125 200.863281h84.742188v42.367188h-84.742188zm0 0" fill="#f9963b"/><path d="m436.78125 190.269531h-180.78125l-14.121094 10.59375 14.121094 10.589844h74.855469v21.1875h-74.855469l-14.121094 10.589844 14.121094 10.59375h74.855469v21.1875h-74.855469l-21.183594 42.367187 201.964844-21.183594zm-84.742188 21.183594h63.554688v21.1875h-63.554688zm0 63.558594v-21.1875h63.554688v21.1875zm0 0" fill="#480306"/><path d="m256 211.453125v-21.183594h-180.78125v105.925781l180.78125 21.183594v-42.367187h-74.855469v-21.1875h74.855469v-21.183594h-74.855469v-21.1875zm-159.59375 0h63.554688v21.1875h-63.554688zm0 63.558594v-21.1875h63.554688v21.1875zm0 0" fill="#593927"/><path d="m256 296.195312-21.183594 42.371094 21.183594 42.371094h180.78125v-84.742188zm0 0" fill="#c7461f"/><path d="m75.21875 296.195312h180.78125v84.742188h-180.78125zm0 0" fill="#d95d27"/><path d="m170.554688 423.304688c-29.207032 0-52.964844-23.757813-52.964844-52.960938s23.757812-52.964844 52.964844-52.964844c29.203124 0 52.960937 23.761719 52.960937 52.964844s-23.757813 52.960938-52.960937 52.960938zm0 0" fill="#593927"/><path d="m170.554688 402.121094c-17.523438 0-31.78125-14.253906-31.78125-31.777344s14.257812-31.777344 31.78125-31.777344c17.519531 0 31.777343 14.253906 31.777343 31.777344 0 17.519531-14.257812 31.777344-31.777343 31.777344zm0 0" fill="#fedd90"/><path d="m341.445312 423.304688c-29.203124 0-52.960937-23.757813-52.960937-52.960938s23.757813-52.964844 52.960937-52.964844c29.207032 0 52.964844 23.761719 52.964844 52.964844s-23.757812 52.960938-52.964844 52.960938zm0 0" fill="#480306"/><path d="m341.445312 402.121094c-17.519531 0-31.777343-14.253906-31.777343-31.777344s14.257812-31.777344 31.777343-31.777344c17.523438 0 31.78125 14.253906 31.78125 31.777344-.003906 17.519531-14.257812 31.777344-31.78125 31.777344zm0 0" fill="#fcba66"/></svg>