<svg id="Layer_1" enable-background="new 0 0 512 512" height="512" viewBox="0 0 512 512" width="512" xmlns="http://www.w3.org/2000/svg"><g fill="#ffa841"><path d="m358.995 32.892c-3.895-5.885-11.027-8.841-17.943-7.438-26.785 5.436-51.253 24.987-63.244 53.914-13.632 32.887-7.293 68.619 13.393 91.711 30.956-1.686 60.716-22.454 74.348-55.341 11.991-28.926 8.53-60.054-6.554-82.846z"/><path d="m486.589 171.067c1.407-6.915-1.546-14.049-7.428-17.947-22.784-15.096-53.91-18.573-82.843-6.597-32.894 13.615-53.677 43.364-55.379 74.32 23.081 20.698 58.81 27.056 91.704 13.44 28.933-11.975 48.496-36.434 53.946-63.216z"/><path d="m479.108 358.995c5.885-3.895 8.841-11.027 7.438-17.943-5.436-26.785-24.987-51.253-53.914-63.244-32.887-13.632-68.619-7.293-91.711 13.393 1.686 30.956 22.454 60.716 55.341 74.348 28.926 11.991 60.054 8.53 82.846-6.554z"/><path d="m340.933 486.589c6.915 1.407 14.049-1.546 17.947-7.428 15.096-22.784 18.573-53.91 6.597-82.843-13.615-32.894-43.364-53.677-74.32-55.379-20.698 23.081-27.056 58.81-13.44 91.704 11.975 28.933 36.434 48.496 63.216 53.946z"/><path d="m153.005 479.108c3.895 5.885 11.027 8.841 17.943 7.438 26.785-5.436 51.253-24.987 63.244-53.914 13.632-32.887 7.292-68.619-13.393-91.711-30.956 1.686-60.716 22.454-74.348 55.341-11.991 28.926-8.53 60.054 6.554 82.846z"/><path d="m25.411 340.933c-1.407 6.915 1.546 14.049 7.429 17.947 22.784 15.096 53.91 18.573 82.843 6.597 32.894-13.615 53.677-43.364 55.379-74.32-23.081-20.698-58.81-27.056-91.704-13.44-28.934 11.975-48.497 36.434-53.947 63.216z"/><path d="m32.892 153.005c-5.885 3.895-8.841 11.027-7.438 17.943 5.436 26.785 24.987 51.253 53.914 63.244 32.887 13.632 68.619 7.292 91.711-13.393-1.686-30.956-22.454-60.716-55.341-74.348-28.926-11.991-60.054-8.53-82.846 6.554z"/><path d="m171.067 25.411c-6.915-1.407-14.049 1.546-17.947 7.429-15.096 22.784-18.573 53.91-6.597 82.843 13.615 32.894 43.364 53.677 74.32 55.379 20.698-23.081 27.056-58.81 13.44-91.704-11.975-28.934-36.434-48.497-63.216-53.947z"/></g><path d="m265.712 10.459c-5.851-3.945-13.572-3.945-19.424 0-22.662 15.278-37.779 42.708-37.779 74.022 0 35.601 19.539 66.181 47.49 79.592 27.952-13.411 47.49-43.992 47.49-79.592.001-31.314-15.115-58.744-37.777-74.022z" fill="#ffd072"/><path d="m436.491 89.243c-1.348-6.927-6.807-12.387-13.735-13.735-26.828-5.221-56.913 3.486-79.055 25.628-25.173 25.173-32.981 60.613-22.699 89.861 29.248 10.282 64.688 2.474 89.861-22.699 22.142-22.142 30.849-52.227 25.628-79.055z" fill="#ffd072"/><path d="m501.541 265.712c3.945-5.851 3.945-13.572 0-19.424-15.278-22.662-42.708-37.779-74.022-37.779-35.601 0-66.181 19.539-79.592 47.49 13.411 27.952 43.992 47.49 79.592 47.49 31.314.001 58.744-15.115 74.022-37.777z" fill="#ffd072"/><path d="m422.757 436.491c6.927-1.348 12.387-6.807 13.735-13.735 5.221-26.828-3.486-56.913-25.628-79.055-25.173-25.173-60.613-32.981-89.861-22.699-10.282 29.248-2.474 64.688 22.699 89.861 22.142 22.142 52.227 30.849 79.055 25.628z" fill="#ffd072"/><path d="m246.288 501.541c5.851 3.945 13.572 3.945 19.424 0 22.662-15.278 37.779-42.708 37.779-74.022 0-35.601-19.539-66.181-47.49-79.592-27.952 13.411-47.49 43.992-47.49 79.592-.001 31.314 15.115 58.744 37.777 74.022z" fill="#ffd072"/><path d="m75.509 422.757c1.348 6.927 6.807 12.387 13.735 13.735 26.828 5.221 56.913-3.486 79.055-25.628 25.173-25.173 32.981-60.613 22.699-89.861-29.248-10.282-64.688-2.474-89.861 22.699-22.142 22.142-30.849 52.227-25.628 79.055z" fill="#ffd072"/><path d="m10.459 246.288c-3.945 5.851-3.945 13.572 0 19.424 15.278 22.662 42.708 37.779 74.022 37.779 35.601 0 66.181-19.539 79.592-47.49-13.411-27.952-43.992-47.49-79.592-47.49-31.314-.001-58.744 15.115-74.022 37.777z" fill="#ffd072"/><path d="m89.243 75.509c-6.927 1.348-12.387 6.807-13.735 13.735-5.221 26.828 3.486 56.913 25.628 79.055 25.173 25.173 60.613 32.981 89.861 22.699 10.282-29.248 2.474-64.688-22.699-89.861-22.142-22.142-52.227-30.849-79.055-25.628z" fill="#ffd072"/><circle cx="256" cy="256" fill="#dd6642" r="154.491"/><path d="m141.509 256c0-78.545 58.617-143.396 134.491-153.205-6.547-.846-13.222-1.287-20-1.287-85.323 0-154.491 69.168-154.491 154.491s69.168 154.491 154.491 154.491c6.778 0 13.453-.44 20-1.287-75.874-9.807-134.491-74.658-134.491-153.203z" fill="#cb5935"/><ellipse cx="175.27" cy="261.645" fill="#ffa2ae" rx="29.788" ry="23.722"/><ellipse cx="336.73" cy="261.645" fill="#ffa2ae" rx="29.788" ry="23.722"/><path d="m192.638 219.138c-4.142 0-7.499 3.357-7.499 7.499v12.175c0 4.142 3.357 7.499 7.499 7.499s7.499-3.357 7.499-7.499v-12.175c0-4.142-3.358-7.499-7.499-7.499z"/><path d="m319.362 246.311c4.142 0 7.499-3.357 7.499-7.499v-12.175c0-4.142-3.357-7.499-7.499-7.499s-7.499 3.357-7.499 7.499v12.175c0 4.142 3.357 7.499 7.499 7.499z"/><path d="m233.641 243.376c5.639 6.471 13.788 10.183 22.359 10.183 8.569 0 16.719-3.711 22.358-10.182 2.721-3.122 2.396-7.859-.726-10.58-3.123-2.721-7.86-2.397-10.58.726-2.791 3.202-6.819 5.038-11.052 5.038s-8.261-1.836-11.051-5.038c-2.721-3.123-7.458-3.448-10.58-.727-3.124 2.721-3.449 7.458-.728 10.58z"/><path d="m18.09 339.427c-2.031 9.982 2.143 20.066 10.634 25.692 12.412 8.224 26.762 13.181 41.994 14.599-4.45 14.398-5.436 29.615-2.549 44.451 1.946 9.998 9.663 17.716 19.662 19.661 14.045 2.734 29.215 2.148 44.353-2.512 1.423 15.197 6.382 29.514 14.58 41.901 5.581 8.435 15.634 12.689 25.686 10.648 14.591-2.961 28.25-9.593 40.023-19.36 7.034 13.323 17.095 24.776 29.624 33.223 8.445 5.694 19.358 5.694 27.805 0 12.504-8.43 22.549-19.855 29.582-33.143 16.343 13.547 36.138 19.83 44.96 19.83 8.226 0 15.994-4.076 20.675-11.141 8.222-12.409 13.191-26.754 14.611-41.983 14.621 4.517 29.82 5.383 44.44 2.537 9.998-1.946 17.715-9.663 19.661-19.661 2.881-14.806 1.905-29.992-2.522-44.365 15.199-1.423 29.523-6.369 41.912-14.569 8.494-5.622 12.673-15.705 10.647-25.686-2.961-14.591-9.593-28.249-19.36-40.023 13.323-7.034 24.776-17.095 33.223-29.624 5.694-8.445 5.694-19.36 0-27.805-8.43-12.504-19.855-22.549-33.143-29.581 9.742-11.753 16.361-25.385 19.324-39.943 2.031-9.981-2.143-20.065-10.634-25.692-12.413-8.225-26.751-13.194-41.99-14.612 4.446-14.394 5.431-29.606 2.545-44.438-1.946-9.998-9.663-17.716-19.661-19.662-14.802-2.881-29.984-1.906-44.353 2.519-1.422-15.199-6.381-29.519-14.581-41.908-5.622-8.493-15.706-12.673-25.686-10.647-14.591 2.962-28.25 9.593-40.023 19.36-7.034-13.323-17.095-24.776-29.623-33.223-8.446-5.695-19.361-5.694-27.805 0-12.504 8.43-22.549 19.855-29.581 33.143-11.753-9.741-25.384-16.36-39.943-19.323-9.979-2.031-20.066 2.143-25.691 10.634-8.224 12.411-13.193 26.759-14.611 41.99-14.394-4.447-29.607-5.431-44.439-2.545-9.998 1.946-17.716 9.663-19.662 19.662-2.881 14.802-1.905 29.984 2.519 44.353-15.196 1.422-29.52 6.382-41.908 14.58-8.494 5.622-12.673 15.705-10.647 25.686 2.961 14.591 9.593 28.25 19.36 40.023-13.323 7.034-24.776 17.095-33.223 29.623-5.694 8.445-5.694 19.36 0 27.805 8.43 12.504 19.855 22.549 33.143 29.581-9.746 11.755-16.365 25.387-19.328 39.945zm18.919 13.189c-3.319-2.199-5.015-6.298-4.221-10.199 2.75-13.518 9.325-26.123 19.106-36.713 16.278 5.477 34.231 6.699 51.127 3.605 2.04 5.854 4.419 11.596 7.116 17.172-13.984 9.634-25.875 23.162-33.565 38.61-14.44-.564-28.034-4.836-39.563-12.475zm360.714-135.567c21.28 77.349-23.697 157.766-100.855 180.137-94.502 27.295-187.841-44.063-187.841-141.186 0-67.314 45.64-124.617 108.072-141.738 78.228-21.473 159.263 24.831 180.624 102.787zm-307.027 212.059c-3.908-.761-7.044-3.897-7.805-7.804-5.982-30.738 8.133-62.559 34.451-81.547 5.499 9.098 11.853 17.571 18.943 25.352l-26.475 26.476c-2.929 2.928-2.929 7.676 0 10.605s7.677 2.928 10.605 0l26.476-26.476c7.781 7.09 16.255 13.445 25.352 18.944-9.171 12.727-21.521 22.873-35.954 29.115-15.392 6.681-30.983 8.178-45.593 5.335zm78.771 50.06c-3.901.792-7.999-.907-10.196-4.227-7.615-11.506-11.88-25.07-12.451-39.476 15.724-7.808 29.118-19.713 38.699-33.601 5.576 2.696 11.318 5.076 17.172 7.116-3.178 17.378-1.719 35.254 3.572 51.035-10.609 9.812-23.242 16.402-36.796 19.153zm92.052 16.126c-3.301 2.225-7.736 2.225-11.037 0-26.335-17.754-38.406-50.5-33.307-82.019 10.186 2.508 20.911 4.044 31.326 4.517v37.453c0 4.142 3.357 7.499 7.499 7.499s7.499-3.358 7.499-7.499v-37.453c10.83-.491 21.553-2.11 31.327-4.516 2.583 16.437.717 31.975-4.841 46.007-6.254 15.754-16.178 27.726-28.466 36.011zm91.097-20.303c-2.199 3.318-6.298 5.015-10.198 4.221-13.52-2.751-26.125-9.326-36.714-19.106 5.465-16.245 6.707-34.163 3.605-51.127 5.854-2.04 11.595-4.419 17.172-7.116 9.727 14.09 23.153 25.863 38.611 33.558-.562 14.444-4.836 28.039-12.476 39.57zm76.492-53.687c-.761 3.907-3.897 7.044-7.804 7.804-31.367 6.103-63.141-8.795-81.547-34.451 9.098-5.499 17.571-11.853 25.352-18.943l26.476 26.475c1.464 1.464 3.383 2.197 5.303 2.197 6.621 0 10.04-8.064 5.303-12.802l-26.475-26.475c7.09-7.781 13.444-16.254 18.943-25.352 3.868 2.765 7.723 6.075 10.884 9.237 19.168 19.169 28.665 46.104 23.565 72.31zm50.06-78.772c.792 3.901-.907 7.999-4.226 10.196-11.506 7.615-25.066 11.879-39.471 12.451-7.715-15.536-19.609-29.043-33.607-38.698 2.697-5.577 5.076-11.318 7.116-17.172 16.979 3.112 34.901 1.838 51.034-3.572 9.813 10.609 16.403 23.241 19.154 36.795zm16.125-92.051c2.225 3.301 2.225 7.737 0 11.038-15.973 23.692-46.058 38.444-82.018 33.307 2.51-10.219 4.033-20.809 4.516-31.327h37.453c4.142 0 7.499-3.357 7.499-7.499s-3.358-7.499-7.499-7.499h-37.453c-.465-10.131-1.876-20.597-4.516-31.326 34.918-5.372 65.773 9.21 82.018 33.306zm-20.302-91.097c3.319 2.199 5.015 6.298 4.222 10.198-2.751 13.519-9.326 26.125-19.107 36.714-16.642-5.597-34.595-6.632-51.127-3.605-2.04-5.854-4.419-11.595-7.116-17.172 13.931-9.601 25.842-23.097 33.565-38.61 14.44.564 28.035 4.837 39.563 12.475zm-53.687-76.492c3.907.761 7.044 3.897 7.804 7.805 6.07 31.19-8.585 62.923-34.451 81.547-5.499-9.098-11.853-17.571-18.943-25.352l26.475-26.475c2.929-2.929 2.929-7.677 0-10.606-2.928-2.928-7.676-2.928-10.605 0l-26.476 26.475c-7.781-7.09-16.255-13.444-25.352-18.943 18.37-25.621 50.165-40.557 81.548-34.451zm-78.772-50.06c3.901-.791 7.999.907 10.197 4.227 7.614 11.504 11.879 25.066 12.451 39.47-15.735 7.814-29.142 19.764-38.699 33.607-5.576-2.696-11.318-5.076-17.172-7.116 3.112-16.993 1.834-34.908-3.572-51.035 10.608-9.811 23.242-16.402 36.795-19.153zm-92.05-16.126c3.3-2.225 7.735-2.225 11.037 0 26.704 18.003 38.412 51.389 33.307 82.018-10.418-2.562-21.191-4.054-31.327-4.516v-37.452c0-4.142-3.358-7.499-7.499-7.499-4.142 0-7.499 3.357-7.499 7.499v37.453c-10.52.48-21.167 2.012-31.326 4.516-4.081-24.487 3.562-41.547 5.054-46.685 5.818-14.407 15.52-26.749 28.253-35.334zm-91.097 20.302c2.198-3.318 6.299-5.015 10.197-4.221 13.52 2.751 26.125 9.326 36.714 19.106-5.703 16.952-6.567 34.93-3.605 51.127-5.854 2.04-11.596 4.419-17.172 7.116-9.77-14.163-23.308-25.948-38.61-33.565.563-14.44 4.836-28.033 12.476-39.563zm-76.494 53.688c.761-3.908 3.897-7.044 7.805-7.805 31.156-6.064 62.948 8.574 81.547 34.451-9.098 5.499-17.571 11.853-25.352 18.943l-26.476-26.476c-2.928-2.928-7.676-2.928-10.605 0-2.929 2.929-2.929 7.677 0 10.606l26.476 26.475c-7.09 7.781-13.444 16.254-18.943 25.352-25.983-18.696-40.498-50.476-34.452-81.546zm-50.059 78.771c-.792-3.901.907-7.999 4.226-10.196 11.504-7.614 25.067-11.878 39.471-12.451 7.921 15.952 19.959 29.286 33.607 38.699-2.697 5.577-5.076 11.317-7.116 17.172-16.394-3.014-34.389-2.009-51.034 3.572-9.813-10.608-16.403-23.241-19.154-36.796zm-16.125 92.052c-2.225-3.301-2.225-7.737 0-11.038 13.784-20.445 36.791-32.072 59.69-34.096 8.576-.787 15.023-.254 22.328.79-2.461 9.99-4.027 20.705-4.517 31.326h-37.453c-4.142 0-7.499 3.357-7.499 7.499s3.358 7.499 7.499 7.499h37.453c.485 10.516 2.009 21.131 4.516 31.327-4.629.652-8.225 1.16-14.223 1.16-27.111 0-52.871-12.332-67.794-34.467z"/></svg>