<svg height="512pt" viewBox="0 0 512 512" width="512pt" xmlns="http://www.w3.org/2000/svg"><path d="m512 256c0 141.386719-114.613281 256-256 256s-256-114.613281-256-256 114.613281-256 256-256 256 114.613281 256 256zm0 0" fill="#fcba66"/><path d="m329.8125 162.851562 8.519531 32.148438-2.101562 30.089844-80.003907-80.003906-12.765624 12.765624-74.847657-74.847656-38.140625 38.136719 25.191406 84.527344 36.507813 3.472656 42.945313 42.945313-35.898438 35.898437-76.566406-76.5625-38.136719 38.136719 76.5625 76.566406-66.316406 66.320312 115.472656 115.46875c14.851563 2.679688 30.144531 4.085938 45.765625 4.085938 124.695312 0 228.546875-89.15625 251.335938-207.199219l-159.738282-159.734375zm0 0" fill="#f9963b"/><path d="m124.792969 216.992188v-133.992188h43.824219v133.992188zm0 0" fill="#707741"/><path d="m325.660156 145.085938h21.914063v65.738281h-21.914063zm0 0" fill="#480306"/><path d="m212.445312 156.042969h21.910157v54.78125h-21.910157zm0 0" fill="#480306"/><path d="m190.53125 145.085938h65.738281v21.914062h-65.738281zm0 0" fill="#8b2613"/><path d="m422.078125 301.296875h-264.417969v-101.425781h220.59375c24.164063 0 43.824219 19.660156 43.824219 43.824218zm0 0" fill="#bfb053"/><path d="m269.933594 276.566406h102.839844v51.128906h-102.839844zm0 0" fill="#707741"/><path d="m277.679688 320.390625c-5.554688-61.339844-57.253907-109.566406-120.019532-109.566406-11.390625 0-22.417968 1.589843-32.871094 4.558593v126.921876h152.890626zm0 0" fill="#fff2a3"/><path d="m288.6875 320.390625c-5.585938-67.386719-62.21875-120.519531-131.027344-120.519531-33.644531 0-64.371094 12.707031-87.652344 33.570312l14.609376 16.316406c19.398437-17.386718 45.007812-27.976562 73.042968-27.976562 60.414063 0 109.566406 49.152344 109.566406 109.566406v10.957032h60.804688v-21.914063zm0 0" fill="#a59d4d"/><path d="m157.660156 419c-48.328125 0-87.648437-39.320312-87.648437-87.652344 0-48.332031 39.320312-87.652344 87.648437-87.652344 48.332032 0 87.652344 39.320313 87.652344 87.652344 0 48.332032-39.320312 87.652344-87.652344 87.652344zm0 0" fill="#8b2613"/><path d="m157.660156 397.085938c-36.246094 0-65.738281-29.488282-65.738281-65.738282 0-36.246094 29.492187-65.738281 65.738281-65.738281 36.25 0 65.742188 29.492187 65.742188 65.738281 0 36.25-29.492188 65.738282-65.742188 65.738282zm0 0" fill="#c7461f"/><path d="m157.660156 364.21875c-18.125 0-32.867187-14.746094-32.867187-32.871094s14.742187-32.871094 32.867187-32.871094 32.871094 14.746094 32.871094 32.871094-14.746094 32.871094-32.871094 32.871094zm0 0" fill="#fff2a3"/><path d="m372.773438 419c-39.265626 0-71.214844-31.949219-71.214844-71.21875 0-39.265625 31.949218-71.214844 71.214844-71.214844 39.269531 0 71.21875 31.949219 71.21875 71.214844 0 39.269531-31.949219 71.21875-71.21875 71.21875zm0 0" fill="#480306"/><path d="m372.773438 397.085938c-27.183594 0-49.300782-22.117188-49.300782-49.304688 0-27.183594 22.117188-49.300781 49.300782-49.300781 27.1875 0 49.304687 22.117187 49.304687 49.300781 0 27.1875-22.117187 49.304688-49.304687 49.304688zm0 0" fill="#dfd17b"/></svg>