<?xml version="1.0" encoding="iso-8859-1"?>
<!-- Generator: Adobe Illustrator 19.0.0, SVG Export Plug-In . SVG Version: 6.00 Build 0)  -->
<svg version="1.1" id="Capa_1" xmlns="http://www.w3.org/2000/svg" xmlns:xlink="http://www.w3.org/1999/xlink" x="0px" y="0px"
	 viewBox="0 0 512 512" style="enable-background:new 0 0 512 512;" xml:space="preserve">
<circle style="fill:#7AE5FE;" cx="256" cy="256" r="256"/>
<path style="fill:#00BED2;" d="M512,256c0-20.711-2.477-40.84-7.119-60.126L381.17,72.164L250,136l-63.287-50.739L131.518,77
	l119.22,119.22L111.31,227l-17.467,30.039l41.525,41.525l-49.076,41.441l52.381,52.381l-14.066,19.625l97.792,97.792
	C233.396,511.246,244.61,512,256,512C397.385,512,512,397.385,512,256z"/>
<path style="fill:#5D2307;" d="M232.338,136c-2.037,0-4.056-0.884-5.439-2.588l0,0c-0.327-0.401-33.356-40.298-90.735-52.909
	c-3.776-0.83-6.164-4.563-5.334-8.339c0.831-3.776,4.567-6.162,8.339-5.334c62.346,13.703,97.154,55.973,98.605,57.766
	c2.432,3.005,1.968,7.413-1.037,9.845C235.442,135.49,233.885,136,232.338,136z"/>
<path style="fill:#471400;" d="M279.663,135.995c-1.55,0-3.109-0.512-4.406-1.564c-2.998-2.435-3.461-6.833-1.032-9.835
	c1.452-1.793,36.26-44.063,98.605-57.766c3.773-0.829,7.51,1.558,8.339,5.334c0.83,3.776-1.559,7.509-5.334,8.339
	c-57.379,12.611-90.408,52.507-90.735,52.909C283.717,135.112,281.698,135.995,279.663,135.995z"/>
<circle style="fill:#854830;" cx="256" cy="168" r="59"/>
<path style="fill:#683525;" d="M256,109c-0.016,0-0.032,0.001-0.048,0.001v117.998c0.016,0,0.032,0.001,0.048,0.001
	c32.585,0,59-26.415,59-59S288.585,109,256,109z"/>
<g>
	<path style="fill:#854830;" d="M93.842,257.039l-15.994-15.105l16.571-17.546c10.72-11.351,25.823-17.861,41.437-17.861h51.787v22
		h-51.787c-9.587,0-18.86,3.997-25.442,10.966L93.842,257.039z"/>
	<path style="fill:#854830;" d="M107.03,347.349l-20.738-7.344l8.056-22.75c5.212-14.717,16.39-26.781,30.668-33.098l47.359-20.951
		l8.9,20.119l-47.359,20.951c-8.767,3.878-15.631,11.286-18.831,20.322L107.03,347.349z"/>
	<path style="fill:#854830;" d="M145.345,419.355l-20.738-7.344l7.133-20.145c4.73-13.357,14.876-24.307,27.835-30.04l41.937-18.552
		l8.9,20.119l-41.937,18.552c-7.448,3.295-13.279,9.587-15.997,17.264L145.345,419.355z"/>
</g>
<g>
	<path style="fill:#663121;" d="M418.158,257.039l-16.571-17.546c-6.582-6.969-15.855-10.966-25.442-10.966h-51.787v-22h51.787
		c15.613,0,30.717,6.51,41.437,17.861l16.571,17.546L418.158,257.039z"/>
	<path style="fill:#663121;" d="M404.97,347.349l-8.056-22.75c-3.2-9.037-10.063-16.444-18.831-20.322l-47.359-20.951l8.9-20.119
		l47.359,20.951c14.279,6.316,25.457,18.38,30.668,33.098l8.056,22.75L404.97,347.349z"/>
	<path style="fill:#663121;" d="M366.655,419.355l-7.133-20.145c-2.718-7.677-8.549-13.969-15.997-17.264l-41.937-18.552l8.9-20.119
		l41.937,18.552c12.959,5.733,23.104,16.682,27.835,30.04l7.133,20.145L366.655,419.355z"/>
</g>
<path style="fill:#AB6A50;" d="M256,447.366L256,447.366c-52.203,0-94.522-42.319-94.522-94.522v-184.21h189.044v184.211
	C350.522,405.048,308.203,447.366,256,447.366z"/>
<path style="fill:#894E3A;" d="M255.952,168.634v278.732c0.016,0,0.032,0,0.047,0l0,0c52.203,0,94.522-42.318,94.522-94.521V168.634
	H255.952z"/>
<g>
</g>
<g>
</g>
<g>
</g>
<g>
</g>
<g>
</g>
<g>
</g>
<g>
</g>
<g>
</g>
<g>
</g>
<g>
</g>
<g>
</g>
<g>
</g>
<g>
</g>
<g>
</g>
<g>
</g>
</svg>
