<svg height="512pt" viewBox="0 0 512 512.001" width="512pt" xmlns="http://www.w3.org/2000/svg"><path d="m512 256c0 141.386719-114.613281 256-256 256-141.382812 0-256-114.613281-256-256s114.617188-256 256-256c141.386719 0 256 114.613281 256 256zm0 0" fill="#6c533a"/><path d="m501.710938 328.027344-82.996094-82.992188-73.089844 73.09375 67.945312 67.945313-20.496093 20.5-103.523438-103.523438-52.824219 52.824219-87.136718-87.136719-73.09375 73.09375 169.972656 169.972657c3.167969.117187 6.339844.195312 9.53125.195312 116.375 0 214.59375-77.65625 245.710938-183.972656zm0 0" fill="#593927"/><g fill="#c7461f"><path d="m175.300781 60.007812 224.953125 224.953126-14.632812 14.632812-224.953125-224.953125zm0 0"/><path d="m182.609375 155.113281 45.8125 16.550781-53.128906-53.132812-14.632813 14.632812zm0 0"/><path d="m255.773438 81.949219 16.546874 45.816406-53.128906-53.132813 14.632813-14.632812zm0 0"/></g><path d="m255.773438 155.113281 45.996093 75.261719 127.816407 98.554688v-73.164063l-57.9375-57.941406-25.777344-11.550781-32.160156-46.386719-57.9375-57.9375zm0 0" fill="#f9963b"/><path d="m313.710938 213.050781 57.9375 57.9375v-73.164062l-57.9375-57.9375zm0 0" fill="#fcba66"/><path d="m255.773438 155.113281 57.9375 57.9375 9.195312 25.453125 41.84375 25.589844 64.835938 64.835938h-73.164063l-57.9375-57.941407-11.554687-25.773437-46.382813-32.164063-57.9375-57.9375zm0 0" fill="#eb7330"/><path d="m313.710938 213.050781 57.9375 57.9375h-73.164063l-57.9375-57.9375zm0 0" fill="#f9963b"/><path d="m407.519531 363.863281h-110.707031l-77.085938-95.90625-101.925781-37.234375h-41.386719v111.074219h41.386719l134.507813 66.203125h155.210937c12.1875 0 22.066407-9.878906 22.066407-22.066406 0-12.191406-9.878907-22.070313-22.066407-22.070313zm0 0" fill="#fcba66"/><path d="m312.785156 326.191406-82.570312-82.570312c-7.988282-7.984375-19.046875-12.898438-31.234375-12.898438h-81.179688c0 30.351563 22.855469 55.183594 50.785157 55.183594h41.496093l71.496094 71.496094c8.617187 8.617187 22.589844 8.617187 31.207031 0 8.617188-8.621094 8.617188-22.589844 0-31.210938zm0 0" fill="#fedd90"/></svg>