<svg height="512pt" viewBox="0 0 512 512" width="512pt" xmlns="http://www.w3.org/2000/svg"><path d="m512 256c0 141.386719-114.613281 256-256 256s-256-114.613281-256-256 114.613281-256 256-256 256 114.613281 256 256zm0 0" fill="#6c533a"/><path d="m359.496094 126.960938-53.214844-53.214844-38.890625 38.890625 53.214844 53.214843-53.46875 53.472657-106.121094-106.121094-23.570313 23.574219 106.117188 106.121094-78.785156 78.785156 40.332031 40.332031-42.332031 42.332031 50.167968 50.167969-4.5 4.5 52.914063 52.914063c138.910156-2.851563 250.640625-116.335938 250.640625-255.929688 0-2.382812-.039062-4.757812-.101562-7.125l-137.15625-137.15625zm0 0" fill="#593927"/><path d="m250.449219 378.117188h30.132812v65.023437h-30.132812zm0 0" fill="#f9963b"/><path d="m225.867188 378.117188h30.132812v65.023437h-30.132812zm0 0" fill="#fcba66"/><path d="m327.222656 119.941406 3.386719 55.152344-46.855469 222.070312c-8.898437 3.148438-18.238281 4.742188-27.753906 4.742188l-39.648438-174.453125 39.648438-174.453125c37.632812 0 68.917969 29.402344 71.222656 66.941406zm0 0" fill="#fcba66"/><path d="m256 53v348.90625c-9.515625 0-18.855469-1.59375-27.761719-4.742188l-46.847656-222.070312 3.386719-55.152344c2.304687-37.539062 33.589844-66.941406 71.222656-66.941406zm0 0" fill="#fedd90"/><path d="m216.351562 100.578125h23.789063v23.789063h-23.789063zm0 0" fill="#fcba66"/><path d="m271.859375 100.578125h23.789063v23.789063h-23.789063zm0 0" fill="#f9963b"/><path d="m279.789062 435.210938v-195.863282c0-45.910156 37.351563-83.261718 83.261719-83.261718h2.875l6.640625 192.296874-68.988281 86.828126v23.789062h-47.578125l-7.929688-11.894531 7.929688-11.894531zm0 0" fill="#8a8a47"/><path d="m232.210938 435.210938v-195.863282c0-45.910156-37.351563-83.261718-83.261719-83.261718h-2.875l-6.640625 192.296874 68.988281 86.828126v23.789062h47.578125v-23.789062zm0 0" fill="#a59d4d"/><path d="m208.421875 409.210938c-35.621094-17.761719-59.472656-54.644532-59.472656-95.875 0-2.160157.070312-4.386719.203125-6.613282l11.875-193.546875-23.742188-1.457031-11.875 193.550781c-.167968 2.707031-.25 5.421875-.25 8.066407 0 54.367187 33.9375 102.554687 83.261719 121.875zm0 0" fill="#8a8a47"/><path d="m386.589844 305.269531-11.875-193.550781-23.746094 1.457031 11.875 193.550781c.136719 2.222657.207031 4.449219.207031 6.613282 0 41.230468-23.855469 78.109375-59.472656 95.875v26c49.324219-19.324219 83.261719-67.507813 83.261719-121.875 0-2.648438-.082032-5.363282-.25-8.070313zm0 0" fill="#707741"/></svg>