<?xml version="1.0" encoding="iso-8859-1"?>
<!-- Generator: Adobe Illustrator 19.0.0, SVG Export Plug-In . SVG Version: 6.00 Build 0)  -->
<svg version="1.1" id="Capa_1" xmlns="http://www.w3.org/2000/svg" xmlns:xlink="http://www.w3.org/1999/xlink" x="0px" y="0px"
	 viewBox="0 0 512 512" style="enable-background:new 0 0 512 512;" xml:space="preserve">
<circle style="fill:#7AE5FE;" cx="256" cy="256" r="256"/>
<path style="fill:#00BED2;" d="M277.735,511.073C408.945,500.039,512,390.063,512,256c0-14.271-1.187-28.264-3.432-41.899
	L396.595,102.128l-117.664,73.829l-38.48-38.48l-66.047-35.144l-77.988,24.628L196.89,227.435l-81.414,14.78l-7.006,43.964
	L256.212,433.92l-32.181,23.448L277.735,511.073z"/>
<path style="fill:#45BF55;" d="M192.028,179.887l-57.851,23.298c-28.099,11.316-41.704,43.27-30.388,71.371l4.68,11.622
	l16.308-6.568l-0.32-28.265l19.357,20.598l19.709-7.938l-0.198-17.508l11.99,12.759l54.317-21.875l-0.32-28.265l19.357,20.598
	l19.407-7.816l-4.681-11.622C252.08,182.177,220.128,168.57,192.028,179.887z"/>
<path style="fill:#02942A;" d="M319.972,179.887l57.851,23.298c28.099,11.316,41.704,43.27,30.388,71.371l-4.68,11.622
	l-16.308-6.568l0.32-28.265l-19.357,20.598l-19.709-7.938l0.198-17.508l-11.99,12.759l-54.317-21.875l0.32-28.265l-19.357,20.598
	l-19.407-7.816l4.68-11.622C259.92,182.177,291.872,168.57,319.972,179.887z"/>
<path style="fill:#854830;" d="M287.969,457.369h-63.938l13.762-273.44c0.488-9.7,8.495-17.314,18.207-17.314l0,0
	c9.712,0,17.719,7.614,18.207,17.314L287.969,457.369z"/>
<path style="fill:#662E1D;" d="M274.207,183.929c-0.488-9.7-8.495-17.314-18.207-17.314c-0.016,0-0.031,0.002-0.048,0.002v290.751
	h32.016L274.207,183.929z"/>
<path style="fill:#74D770;" d="M415.583,126.961l-6.543-10.685c-15.82-25.833-49.587-33.951-75.42-18.131l-53.186,32.57
	c-12.616,7.726-20.993,19.736-24.434,33.009c-3.441-13.272-11.818-25.283-24.434-33.009l-53.186-32.57
	c-25.833-15.82-59.6-7.702-75.42,18.131l-6.543,10.685l14.993,9.181l22.505-17.101l-5.003,27.819l18.12,11.097l13.94-10.593
	l-3.099,17.232l49.937,30.581l22.505-17.102l-5.003,27.819l17.842,10.926l6.543-10.685c2.89-4.72,4.973-9.706,6.303-14.797
	c1.33,5.091,3.413,10.077,6.303,14.797l6.543,10.685l17.842-10.926l-5.003-27.819l22.505,17.102l49.937-30.581l-3.099-17.232
	l13.94,10.593l18.12-11.097l-5.003-27.819l22.505,17.101L415.583,126.961z"/>
<path style="fill:#2EA840;" d="M415.583,126.961l-6.543-10.685c-15.82-25.833-49.587-33.951-75.42-18.131l-53.186,32.57
	c-12.616,7.726-20.993,19.736-24.434,33.009c-0.015-0.056-0.033-0.111-0.048-0.167v27.952c0.015-0.057,0.033-0.113,0.048-0.17
	c1.33,5.091,3.413,10.077,6.303,14.797l6.543,10.685l17.842-10.926l-5.003-27.819l22.505,17.102l49.937-30.581l-3.099-17.232
	l13.94,10.593l18.12-11.097l-5.003-27.819l22.505,17.101L415.583,126.961z"/>
<g>
</g>
<g>
</g>
<g>
</g>
<g>
</g>
<g>
</g>
<g>
</g>
<g>
</g>
<g>
</g>
<g>
</g>
<g>
</g>
<g>
</g>
<g>
</g>
<g>
</g>
<g>
</g>
<g>
</g>
</svg>
