<svg id="Layer_1" enable-background="new 0 0 512 512" height="512" viewBox="0 0 512 512" width="512" xmlns="http://www.w3.org/2000/svg"><path d="m207.68 363.569c-31.927-22.505-70.942-25.517-99.877-10.716-6.189 3.166-10.45 9.21-11.351 16.103-4.213 32.226 11.738 67.959 43.664 90.463 35.458 24.993 79.659 25.944 109.084 5.154 9.691-34.701-6.062-76.01-41.52-101.004z" fill="#00c070"/><path d="m304.32 363.569c31.927-22.505 70.942-25.517 99.877-10.716 6.189 3.166 10.45 9.21 11.351 16.103 4.213 32.226-11.738 67.959-43.664 90.463-35.458 24.993-79.659 25.944-109.084 5.154-9.691-34.701 6.062-76.01 41.52-101.004z" fill="#00c070"/><path d="m236.428 277.665h39.144v226.835h-39.144z" fill="#2ddfb6"/><path d="m191.859 32.553c-1.196-13.743-14.037-25.053-28.002-25.053-38.4 0-99.823 96.702-99.823 192.479s83.731 115.52 126.378 115.52c9.732 0 21.078-1.034 32.794-3.759z" fill="#a29cde"/><path d="m320.141 32.553c1.196-13.743 14.037-25.053 28.002-25.053 38.4 0 99.823 96.702 99.823 192.479s-83.731 115.52-126.378 115.52c-9.732 0-21.078-1.034-32.794-3.759z" fill="#a29cde"/><path d="m339.559 8.931c-10.277 3.453-18.474 12.777-19.417 23.623l-31.348 279.186c11.716 2.725 23.063 3.759 32.794 3.759 9.727 0 21.593-1.033 34.114-3.755 22.859-19.3 46.585-53.387 46.585-111.765 0-48.698-12.211-101.661-33.503-145.309-8.969-18.387-18.807-33.712-29.225-45.739z" fill="#736acc"/><path d="m223.206 311.74-31.347-279.187c-.943-10.845-9.14-20.17-19.417-23.622-10.418 12.028-20.256 27.352-29.225 45.739-21.292 43.647-33.503 96.61-33.503 145.309 0 58.378 23.725 92.465 46.585 111.765 12.52 2.722 24.387 3.755 34.114 3.755 9.73 0 21.077-1.034 32.793-3.759z" fill="#736acc"/><path d="m236.428 344.392c7.555.843 14.236 1.107 19.572 1.107s12.016-.264 19.572-1.107v-66.727h-39.144z" fill="#00c070"/><path d="m256 315.499c42.647 0 116.287-19.743 116.287-115.52s-51.332-192.479-89.733-192.479c-14.665 0-26.554 11.889-26.554 26.554 0-14.665-11.889-26.554-26.554-26.554-38.4 0-89.733 96.702-89.733 192.479s73.64 115.52 116.287 115.52z" fill="#a29cde"/><path d="m181.764 211.219c4.142 0 7.5-3.358 7.5-7.5v-14.265c0-4.142-3.358-7.5-7.5-7.5s-7.5 3.358-7.5 7.5v14.265c0 4.141 3.358 7.5 7.5 7.5z"/><path d="m330.235 211.219c4.142 0 7.5-3.358 7.5-7.5v-14.265c0-4.142-3.358-7.5-7.5-7.5s-7.5 3.358-7.5 7.5v14.265c0 4.141 3.358 7.5 7.5 7.5z"/><path d="m256 219.71c9.668 0 18.863-4.188 25.226-11.488 2.721-3.123 2.396-7.86-.727-10.582-3.123-2.721-7.861-2.396-10.582.727-3.513 4.032-8.586 6.344-13.917 6.344s-10.404-2.312-13.917-6.344c-2.722-3.123-7.459-3.447-10.582-.727-3.123 2.722-3.448 7.459-.727 10.582 6.363 7.3 15.557 11.488 25.226 11.488z"/><path d="m432.538 261.881c3.694 1.875 8.208.401 10.083-3.292 8.523-16.788 12.845-36.507 12.845-58.61 0-44.752-13.29-94.252-36.461-135.808-22.405-40.182-48.895-64.171-70.862-64.171-12.864 0-24.647 7.289-30.901 17.853-11.563-11.619-23.405-17.853-34.688-17.853-10.725 0-20.307 4.983-26.554 12.756-6.247-7.773-15.829-12.756-26.554-12.756-11.074 0-22.961 6.181-34.643 17.926-6.243-10.604-18.052-17.926-30.946-17.926-21.967 0-48.457 23.989-70.862 64.17-23.171 41.556-36.461 91.056-36.461 135.808 0 44.083 17.51 78.656 50.637 99.983 29.707 19.125 74.135 28.629 115.918 19.478 1.981.435 3.93.822 5.84 1.162v51.291c-33.641-34.733-85.633-45.618-124.54-25.717-8.402 4.297-14.149 12.45-15.373 21.808-4.697 35.927 13.666 74.224 46.78 97.566 27.047 19.065 61.7 26.696 93.132 17.082v21.869c0 4.142 3.358 7.5 7.5 7.5h39.144c4.142 0 7.5-3.358 7.5-7.5v-21.868c31.519 9.641 66.163 1.927 93.132-17.083 33.115-23.342 51.478-61.639 46.78-97.566-1.224-9.357-6.97-17.51-15.372-21.808-39.023-19.961-91-8.914-124.54 25.717v-51.291c1.91-.34 3.859-.727 5.84-1.162 46.208 10.12 102.556-1.882 135.196-35.097 2.903-2.955 2.862-7.703-.092-10.606-2.955-2.904-7.703-2.862-10.606.092-23.391 23.802-60.053 34.328-92.416 34.169 7.843-4.069 14.94-8.867 21.397-14.44 35.41-30.617 35.949-74.374 36.636-76.846 5.174-55.376-14.628-138.242-50.934-186.256 2.211-8.5 10.924-15.456 20.05-15.456 13.076 0 36.008 17.463 57.761 56.476 21.965 39.392 34.562 86.229 34.562 128.503 0 19.721-3.775 37.156-11.22 51.819-1.875 3.694-.402 8.209 3.292 10.084zm-317.248 25.468c-29.035-18.691-43.756-48.087-43.756-87.37 0-42.274 12.597-89.111 34.562-128.503 21.753-39.013 44.685-56.476 57.761-56.476 9.155 0 17.899 6.999 20.075 15.537-10.441 13.784-19.319 30.44-26.128 46.34-1.994 4.658 1.116 9.898 6.126 10.415 3.18.331 6.343-1.415 7.668-4.51 5.772-13.479 12.295-25.707 19.157-35.967 7.677-11.942 24.285-31.815 38.691-31.815 10.507 0 19.055 8.548 19.055 19.054 0 4.142 3.358 7.5 7.5 7.5s7.5-3.358 7.5-7.5c-.001-10.506 8.547-19.054 19.053-19.054 38.487 0 90.554 119.118 81.257 202.954-3.474 30.702-16.221 54.063-38.026 69.592-21.589 15.375-47.051 19.324-62.095 20.216-26.472 1.495-55.841-4.809-77.475-20.216-26.596-18.941-37.523-47.925-38.858-80.549-1.095-26.961 3.242-62.459 14.258-97.244 1.255-3.963-.949-8.169-4.893-9.419-3.948-1.251-8.164.937-9.414 4.886-13.092 41.34-16.956 83.435-14.334 111.492.74 2.237 1.303 61.849 58.033 91.286-24.731.121-53.858-6.577-75.717-20.649zm29.148 165.94c-28.616-20.17-44.532-52.892-40.549-83.36.583-4.462 3.324-8.35 7.331-10.398 38.39-19.638 91.08-3.117 117.709 36.021v45.557l-74.809-52.731c-3.384-2.386-8.064-1.577-10.451 1.809-2.386 3.386-1.576 8.065 1.81 10.451l83.451 58.823v7.349c-26.441 9.898-58.363 4.897-84.492-13.521zm256.343-93.759c4.006 2.049 6.746 5.937 7.33 10.398 3.983 30.469-11.933 63.19-40.549 83.361-26.129 18.418-58.051 23.419-84.49 13.519v-7.349l83.45-58.822c3.386-2.387 4.196-7.065 1.81-10.451-2.387-3.385-7.065-4.195-10.451-1.809l-74.809 52.731v-45.558c26.674-39.199 79.379-55.626 117.709-36.02zm-132.709 137.47h-24.144c0-2.928 0-156.659 0-174.484 8.173.642 15.97.642 24.144 0z"/></svg>