<svg height="512pt" viewBox="0 0 512 512" width="512pt" xmlns="http://www.w3.org/2000/svg"><path d="m512 256c0 141.386719-114.613281 256-256 256s-256-114.613281-256-256 114.613281-256 256-256 256 114.613281 256 256zm0 0" fill="#d95d27"/><path d="m397.558594 129.867188-48.867188-48.867188-18.617187 18.617188 48.867187 48.863281-55.789062 55.789062-83.050782-83.050781-8.589843 8.589844-48.808594-48.808594-18.617187 18.617188 48.808593 48.808593-62.75 62.75 70.832031 70.832031-130.957031 130.957032 86.402344 86.40625c25.050781 8.183594 51.792969 12.628906 79.578125 12.628906 141.386719 0 256-114.613281 256-256 0-10.390625-.636719-20.628906-1.839844-30.695312l-104.019531-104.023438zm0 0" fill="#c7461f"/><path d="m163.273438 81h19.453124v64.84375h-19.453124zm0 0" fill="#6c533a"/><path d="m329.273438 81h19.453124v64.84375h-19.453124zm0 0" fill="#593927"/><path d="m204.269531 106.753906c-11.753906 0-22.582031 3.925782-31.269531 10.527344l-32.421875 120.539062h94.4375l18.90625-64.824218c1.34375-4.605469 2.078125-9.472656 2.078125-14.511719 0-28.570313-23.160156-51.730469-51.730469-51.730469zm0 0" fill="#bfb053"/><path d="m141.730469 106.753906c-28.570313 0-51.730469 23.160156-51.730469 51.730469 0 5.039063.734375 9.90625 2.078125 14.511719l18.90625 64.824218h20.265625l41.75-96.105468v-24.433594c-8.6875-6.601562-19.515625-10.527344-31.269531-10.527344zm0 0" fill="#dfd17b"/><path d="m161.230469 132.769531c-5.648438-4.292969-12.390625-6.5625-19.5-6.5625-17.796875 0-32.277344 14.480469-32.277344 32.277344 0 3.058594.4375 6.109375 1.300781 9.066406l20.492188 70.269531h41.753906v-96.105468zm0 0" fill="#fff2a3"/><path d="m370.269531 106.753906c-11.753906 0-22.582031 3.925782-31.269531 10.527344l-32.421875 120.539062h94.4375l18.90625-64.824218c1.34375-4.605469 2.078125-9.472656 2.078125-14.511719 0-28.570313-23.160156-51.730469-51.730469-51.730469zm0 0" fill="#a59d4d"/><path d="m307.730469 106.753906c-28.570313 0-51.730469 23.160156-51.730469 51.730469 0 5.039063.734375 9.90625 2.078125 14.511719l18.90625 64.824218h20.265625l41.75-96.105468v-24.433594c-8.6875-6.601562-19.515625-10.527344-31.269531-10.527344zm0 0" fill="#bfb053"/><path d="m327.230469 132.769531c-5.648438-4.292969-12.390625-6.5625-19.5-6.5625-17.796875 0-32.277344 14.480469-32.277344 32.277344 0 3.058594.4375 6.109375 1.300781 9.066406l20.492188 70.269531h41.753906v-96.105468zm0 0" fill="#dfd17b"/><path d="m422 230.140625v19.453125l-185.453125 38.90625 19.453125-58.359375zm0 0" fill="#593927"/><path d="m256 230.140625v58.359375l-166-38.90625v-19.453125zm0 0" fill="#6c533a"/><path d="m422 249.59375h-166l-38.90625 81.703125 38.90625 81.703125h166v-54.46875l-83-27.234375 83-27.234375zm0 0" fill="#e3c281"/><path d="m90 249.59375v54.46875l83 27.234375-83 27.234375v54.46875h166v-163.40625zm0 0" fill="#fedd90"/><path d="m422 304.0625v54.46875h-166l-38.90625-27.234375 38.90625-27.234375zm0 0" fill="#c7a772"/><path d="m90 304.0625h166v54.46875h-166zm0 0" fill="#e3c281"/></svg>