<?xml version="1.0" encoding="iso-8859-1"?>
<!-- Generator: Adobe Illustrator 19.0.0, SVG Export Plug-In . SVG Version: 6.00 Build 0)  -->
<svg version="1.1" id="Capa_1" xmlns="http://www.w3.org/2000/svg" xmlns:xlink="http://www.w3.org/1999/xlink" x="0px" y="0px"
	 viewBox="0 0 512 512" style="enable-background:new 0 0 512 512;" xml:space="preserve">
<circle style="fill:#FFEA3A;" cx="256" cy="256" r="256"/>
<path style="fill:#FFC30B;" d="M507.968,301.491l-36.939-36.939l-87.46-7.646l-32.44-32.44L46.178,318.603L239,511.424
	c5.621,0.369,11.286,0.576,17,0.576C381.859,512,486.503,421.174,507.968,301.491z"/>
<path style="fill:#74D770;" d="M440.569,327.895h-58.772c-37.34,0-71.962-20.186-90.356-52.681
	c-6.17-10.9-16.517-12.752-20.678-13.043c-4.159-0.292-14.665,0.105-22.289,10.042l-11.556,15.06
	c-19.516,25.436-50.31,40.622-82.373,40.622H71.431c-21.539,0-39-17.461-39-39s17.461-39,39-39h83.114
	c7.976,0,15.635-3.777,20.49-10.104l11.556-15.061c21.263-27.711,54.75-42.798,89.604-40.37
	c34.844,2.433,65.918,22.032,83.124,52.43c4.576,8.083,13.188,13.105,22.478,13.105h58.772c21.539,0,39,17.461,39,39
	S462.108,327.895,440.569,327.895z"/>
<path style="fill:#2EA840;" d="M440.569,249.895h-58.772c-9.289,0-17.901-5.021-22.478-13.105
	c-17.206-30.397-48.28-49.997-83.124-52.43c-6.828-0.476-13.602-0.27-20.243,0.563v80.643c5.937-3.457,11.913-3.598,14.81-3.395
	c4.161,0.291,14.508,2.143,20.678,13.043c18.395,32.495,53.017,52.681,90.356,52.681h58.772c21.539,0,39-17.461,39-39
	S462.108,249.895,440.569,249.895z"/>
<path style="fill:#45BF55;" d="M185.913,225.614l-10.878,14.176c-4.854,6.327-12.514,10.104-20.49,10.104H117v78h37.545
	c32.063,0,62.857-15.187,82.373-40.622l8.169-10.646L185.913,225.614z"/>
<path style="fill:#02942A;" d="M381.797,249.895c-9.289,0-17.901-5.021-22.478-13.105c-2.455-4.336-5.2-8.445-8.19-12.323
	l-54.086,59.573c19.321,27.284,50.922,43.855,84.753,43.855H391v-78L381.797,249.895L381.797,249.895z"/>
<circle style="fill:#4D4D4D;" cx="438.5" cy="282.5" r="8.5"/>
<g>
</g>
<g>
</g>
<g>
</g>
<g>
</g>
<g>
</g>
<g>
</g>
<g>
</g>
<g>
</g>
<g>
</g>
<g>
</g>
<g>
</g>
<g>
</g>
<g>
</g>
<g>
</g>
<g>
</g>
</svg>
