<svg id="Layer_1" enable-background="new 0 0 512 512" height="512" viewBox="0 0 512 512" width="512" xmlns="http://www.w3.org/2000/svg"><path d="m334.529 366.322h-48.477l48.918-126.489-124.393 37.038-43.84 113.358c-2.445 6.323 2.221 13.131 9 13.131h58.387l-32.616 96.618c-1.139 3.375 3.007 6.018 5.585 3.56l131.997-125.821c4.318-4.116 1.405-11.395-4.561-11.395z" fill="#ffd072"/><path d="m210.579 276.872-43.84 113.358c-2.445 6.323 2.221 13.131 9 13.131h30c-6.78 0-11.446-6.808-9-13.131l43.84-113.358z" fill="#ffa841"/><path d="m412.759 296.225c42.209 0 76.427-34.218 76.427-76.427 0-35.645-24.402-65.588-57.412-74.041.119-1.57.2-3.15.2-4.751 0-34.145-27.68-61.825-61.825-61.825-4.479 0-8.843.488-13.052 1.393-22.115-43.37-67.197-73.074-119.22-73.074-65.498 0-119.992 47.086-131.497 109.254-46.69 3.225-83.566 42.116-83.566 89.625 0 49.621 40.226 89.847 89.847 89.847h300.098z" fill="#968fa4"/><path d="m118.405 183.096c0-70.396 34.165-132.806 86.809-171.578-50.313 12.629-89.309 53.763-98.835 105.236-46.69 3.225-83.566 42.116-83.566 89.625 0 49.621 40.226 89.847 89.847 89.847h38.261c-20.593-32.78-32.516-71.56-32.516-113.13z" fill="#7a738d"/><ellipse cx="168.727" cy="210.93" fill="#ffa1ac" rx="32.202" ry="25.644"/><ellipse cx="343.273" cy="210.93" fill="#ffa1ac" rx="32.202" ry="25.644"/><ellipse cx="256" cy="191.227" fill="#5d576f" rx="17.094" ry="19.128"/><g fill="#00e6e6"><path d="m423.299 378.986c2.624-7.434 6.009-21.013 4.223-38.457-.402-3.932-4.194-6.584-8.026-5.614-16.998 4.304-28.594 12.14-34.678 17.154-9.227 7.604-12.178 20.731-6.328 31.157 3.67 6.54 10.311 11.184 17.709 12.388 11.802 1.921 23.122-5.353 27.1-16.628z"/><path d="m369.092 470.589c2.624-7.434 6.009-21.013 4.223-38.457-.402-3.932-4.194-6.584-8.026-5.614-16.998 4.304-28.594 12.14-34.678 17.154-9.227 7.604-12.178 20.731-6.328 31.157 3.67 6.54 10.311 11.184 17.709 12.388 11.802 1.92 23.122-5.354 27.1-16.628z"/><path d="m124.846 378.986c2.624-7.434 6.009-21.013 4.223-38.457-.402-3.932-4.194-6.584-8.026-5.614-16.998 4.304-28.594 12.14-34.678 17.154-9.227 7.604-12.179 20.731-6.328 31.157 3.67 6.54 10.311 11.184 17.709 12.388 11.802 1.921 23.121-5.353 27.1-16.628z"/><path d="m140.62 470.589c2.624-7.434 6.009-21.013 4.223-38.457-.402-3.932-4.194-6.584-8.026-5.614-16.998 4.304-28.594 12.14-34.678 17.154-9.227 7.604-12.179 20.731-6.328 31.157 3.67 6.54 10.311 11.184 17.709 12.388 11.802 1.92 23.121-5.354 27.1-16.628z"/></g><path d="m181.609 179.99v-12.491c0-4.142-3.358-7.5-7.5-7.5s-7.5 3.358-7.5 7.5v12.491c0 4.142 3.358 7.5 7.5 7.5s7.5-3.358 7.5-7.5z"/><path d="m280.594 191.232c0-14.683-11.033-26.629-24.594-26.629s-24.594 11.946-24.594 26.629 11.033 26.629 24.594 26.629 24.594-11.946 24.594-26.629zm-34.188 0c0-6.412 4.304-11.628 9.594-11.628s9.594 5.216 9.594 11.628-4.304 11.628-9.594 11.628-9.594-5.217-9.594-11.628z"/><path d="m345.391 179.99v-12.491c0-4.142-3.358-7.5-7.5-7.5s-7.5 3.358-7.5 7.5v12.491c0 4.142 3.358 7.5 7.5 7.5s7.5-3.358 7.5-7.5z"/><path d="m400.014 403.434c13.372 0 25.667-8.637 30.362-21.941 3.141-8.9 6.49-23.363 4.611-41.717-.868-8.488-9.068-14.212-17.328-12.122-17.887 4.529-30.324 12.635-37.607 18.637-12.239 10.086-15.645 27.168-8.099 40.617 5.597 9.97 16.432 16.526 28.061 16.526zm-10.422-45.568c4.871-4.014 15.235-11.258 30.588-15.369 1.402 15.831-1.848 28.051-3.949 34.003-5.167 14.636-23.996 15.894-31.196 3.066-3.989-7.11-2.073-16.236 4.557-21.7z"/><path d="m363.451 419.258c-17.887 4.529-30.324 12.635-37.607 18.637-12.239 10.086-15.645 27.168-8.099 40.617 5.607 9.992 16.453 16.527 28.061 16.527 13.372 0 25.667-8.637 30.362-21.941 3.141-8.901 6.49-23.363 4.611-41.717-.414-4.045-2.56-7.699-5.889-10.028s-7.498-3.093-11.439-2.095zm-1.428 48.847c-2.86 8.102-10.778 13.031-18.822 11.721-14.489-2.358-19.82-20.464-7.818-30.355 4.871-4.015 15.235-11.258 30.588-15.369 1.403 15.831-1.848 28.05-3.948 34.003z"/><path d="m119.198 327.653c-17.889 4.529-30.325 12.635-37.607 18.636-12.24 10.086-15.646 27.168-8.099 40.617 5.584 9.952 16.408 16.527 28.061 16.527 13.372 0 25.667-8.637 30.362-21.941 3.141-8.9 6.49-23.362 4.611-41.717-.868-8.487-9.068-14.214-17.328-12.122zm-1.428 48.847c-5.177 14.667-24.012 15.868-31.196 3.065-3.99-7.11-2.073-16.236 4.557-21.699 4.87-4.014 15.233-11.257 30.587-15.369 1.403 15.832-1.848 28.051-3.948 34.003z"/><path d="m89.266 478.511c5.595 9.972 16.431 16.528 28.061 16.528 13.372 0 25.667-8.637 30.362-21.941 3.141-8.901 6.49-23.363 4.611-41.718-.87-8.485-9.068-14.213-17.328-12.121-17.887 4.529-30.324 12.635-37.607 18.637-12.239 10.085-15.646 27.167-8.099 40.615zm17.638-29.04c4.871-4.015 15.235-11.258 30.588-15.369 1.402 15.831-1.848 28.051-3.949 34.003-5.177 14.665-24.011 15.868-31.196 3.065-3.989-7.109-2.073-16.235 4.557-21.699z"/><path d="m112.657 303.734h79.493l-32.409 83.801c-4.344 11.231 3.959 23.337 15.996 23.337h47.94l-29.275 86.722c-2.433 7.207 3.027 14.407 10.341 14.407 2.728 0 5.435-1.026 7.526-3.019l69.557-66.304c2.998-2.858 3.112-7.606.254-10.604-2.858-2.999-7.606-3.112-10.604-.254l-57.561 54.868 27.316-80.918c1.64-4.856-1.978-9.899-7.106-9.899h-58.388c-1.513 0-2.552-1.511-2.005-2.925l34.501-89.212h93.988l-23.163 59.893c-1.894 4.898 1.717 10.205 6.995 10.205h46.255l-39.297 37.459c-2.998 2.858-3.112 7.606-.254 10.604 2.858 2.999 7.606 3.112 10.604.254l40.906-38.993c9.206-8.775 2.983-24.324-9.736-24.324h-37.536l21.308-55.098h94.459c46.279 0 83.929-37.65 83.929-83.929 0-36.323-23.24-68.226-57.218-79.589-.429-37.861-31.362-68.532-69.323-68.532-2.995 0-6.001.197-8.989.587-25.012-44.719-71.752-72.271-123.285-72.271-34.208 0-67.214 12.39-92.937 34.888-3.118 2.727-3.435 7.466-.708 10.583 2.728 3.118 7.466 3.435 10.583.708 22.989-20.106 52.488-31.179 83.062-31.179 47.722 0 90.845 26.433 112.541 68.984 1.545 3.029 4.933 4.641 8.258 3.926 3.783-.813 7.644-1.226 11.476-1.226 29.956 0 54.327 24.371 54.327 54.326 0 1.254-.057 2.583-.179 4.181-.276 3.629 2.092 6.933 5.618 7.836 30.484 7.805 51.774 35.265 51.774 66.777 0 38.007-30.921 68.929-68.929 68.929-5.459 0-272.209 0-300.106 0-45.407 0-82.349-36.942-82.349-82.349 0-43.096 33.64-79.178 76.585-82.145 3.414-.235 6.236-2.752 6.859-6.117 3.428-18.525 10.808-35.683 21.934-50.996 2.435-3.351 1.692-8.042-1.659-10.476-3.352-2.436-8.042-1.692-10.476 1.659-11.333 15.598-19.193 32.909-23.408 51.532-48.014 6.183-84.835 47.526-84.835 96.545.001 53.677 43.671 97.348 97.35 97.348z"/></svg>