<svg height="512pt" viewBox="0 0 512 512" width="512pt" xmlns="http://www.w3.org/2000/svg"><path d="m512 256c0 141.386719-114.613281 256-256 256s-256-114.613281-256-256 114.613281-256 256-256 256 114.613281 256 256zm0 0" fill="#bfb053"/><path d="m512 256c0-1.769531-.03125-3.53125-.066406-5.292969l-142.140625-142.140625-60.644531 60.648438-102.703126-102.703125-41.582031 41.582031 105.007813 105.007812-183.925782 183.921876 107.1875 107.1875c20.117188 5.078124 41.175782 7.789062 62.867188 7.789062 141.386719 0 256-114.613281 256-256zm0 0" fill="#a59d4d"/><path d="m206.445312 119.085938-63.105468-10.519532v-42.070312h63.105468zm0 0" fill="#fcba66"/><path d="m417.503906 185.3125v240.191406h-137.082031l-42.070313-282.261718zm0 0" fill="#fcba66"/><path d="m379.988281 294.382812v131.121094h-49.78125l-21.035156-65.5625 21.035156-65.558594zm0 0" fill="#480306"/><path d="m330.207031 294.382812v131.121094h-49.785156l-21.035156-131.121094zm0 0" fill="#8b2613"/><path d="m258.332031 206.347656h121.65625v67h-121.65625zm0 0" fill="#fff"/><path d="m280.421875 143.242188v282.261718h-137.082031v-240.191406zm0 0" fill="#fedd90"/><path d="m417.503906 164.277344v21.035156h-137.082031l-21.035156-42.070312zm0 0" fill="#f9963b"/><path d="m280.421875 143.242188v42.070312h-137.082031v-21.035156zm0 0" fill="#fcba66"/><path d="m369.753906 108.566406 47.75 55.710938h-274.164062v-55.710938zm0 0" fill="#c7461f"/><path d="m153.859375 245.300781c-46.785156 0-84.84375 38.058594-84.84375 84.839844 0 46.785156 38.058594 84.84375 84.84375 84.84375 46.78125 0 84.839844-38.058594 84.839844-84.84375 0-46.78125-38.058594-84.839844-84.839844-84.839844zm0 0" fill="#c7461f"/><path d="m153.859375 234.78125c-52.582031 0-95.363281 42.777344-95.363281 95.359375s42.78125 95.363281 95.363281 95.363281 95.359375-42.78125 95.359375-95.363281-42.777344-95.359375-95.359375-95.359375zm45.878906 153.796875-20.996093-36.367187-18.214844 10.515624 21.007812 36.390626c-8.558594 3.449218-17.898437 5.351562-27.675781 5.351562-9.78125 0-19.121094-1.902344-27.679687-5.351562l21.011718-36.390626-18.21875-10.515624-20.996094 36.367187c-14.699218-11.566406-24.941406-28.554687-27.695312-47.917969h42.023438v-21.035156h-42.023438c2.753906-19.363281 12.996094-36.351562 27.695312-47.917969l20.996094 36.367188 18.21875-10.515625-21.011718-36.394532c8.558593-3.445312 17.898437-5.347656 27.679687-5.347656 9.777344 0 19.117187 1.902344 27.675781 5.347656l-21.007812 36.394532 18.214844 10.515625 20.996093-36.367188c14.703125 11.566407 24.941407 28.554688 27.699219 47.917969h-42.027344v21.035156h42.027344c-2.757812 19.363282-12.996094 36.351563-27.699219 47.917969zm0 0" fill="#8b2613"/><path d="m153.859375 372.214844c-23.199219 0-42.074219-18.875-42.074219-42.074219 0-23.195313 18.875-42.070313 42.074219-42.070313 23.195313 0 42.070313 18.875 42.070313 42.070313 0 23.199219-18.875 42.074219-42.070313 42.074219zm0 0" fill="#480306"/><path d="m153.859375 351.179688c-11.601563 0-21.039063-9.4375-21.039063-21.039063 0-11.597656 9.4375-21.035156 21.039063-21.035156 11.597656 0 21.035156 9.4375 21.035156 21.035156 0 11.601563-9.4375 21.039063-21.035156 21.039063zm0 0" fill="#fcba66"/></svg>