<svg height="512pt" viewBox="0 0 512 512" width="512pt" xmlns="http://www.w3.org/2000/svg"><path d="m512 256c0 141.386719-114.613281 256-256 256s-256-114.613281-256-256 114.613281-256 256-256 256 114.613281 256 256zm0 0" fill="#6c533a"/><path d="m512 256c0-11.820312-.820312-23.445312-2.367188-34.839844l-148.195312-148.191406-168.132812 168.132812 33.753906 33.753907-127.507813 127.507812 104.320313 104.320313c16.832031 3.480468 34.265625 5.316406 52.128906 5.316406 141.386719 0 256-114.613281 256-256zm0 0" fill="#593927"/><path d="m361.339844 154.078125v-81.109375h-81.109375l-40.554688 173.03125 40.554688 173.03125h81.109375c27.945312 0 50.691406-22.746094 50.691406-50.691406v-163.570313c0-27.949219-22.746094-50.691406-50.691406-50.691406zm0 0" fill="#f9963b"/><path d="m198.109375 72.96875v81.109375c-27.949219 0-50.695313 22.742187-50.695313 50.691406v52.695313l30.675782 161.566406h102.140625v-346.0625zm0 0" fill="#fcba66"/><path d="m391.753906 204.769531v163.570313c0 16.769531-13.644531 30.414062-30.414062 30.414062h-81.109375l-40.554688-112.199218 40.554688-112.199219h81.109375c16.769531 0 30.414062 13.644531 30.414062 30.414062zm0 0" fill="#fedd90"/><path d="m280.230469 174.355469v224.398437h-112.539063v-193.984375c0-16.769531 13.648438-30.414062 30.417969-30.414062zm0 0" fill="#fff2a3"/><path d="m371.476562 214.90625v163.570312h-91.246093l-40.554688-81.78125 40.554688-81.78125c12.164062.117188 18.871093 3.433594 24.273437 6.117188 4.703125 2.332031 8.09375 4.015625 15.941406 4.015625 7.851563 0 11.242188-1.683594 15.945313-4.015625 5.503906-2.730469 12.351563-6.125 24.949219-6.125zm0 0" fill="#eb7330"/><path d="m280.230469 214.914062v163.5625h-92.597657v-163.570312h10.136719c12.597657 0 19.445313 3.394531 24.949219 6.125 4.703125 2.332031 8.097656 4.015625 15.945312 4.015625 7.847657 0 11.238282-1.683594 15.945313-4.015625 5.5-2.730469 12.347656-6.125 24.945313-6.125.230468 0 .453124 0 .675781.007812zm0 0" fill="#f9963b"/><path d="m188.238281 246.449219c-11.535156 0-22.160156 3.851562-30.683593 10.332031-8.523438-6.480469-19.152344-10.332031-30.683594-10.332031-28.035156 0-50.761719 22.730469-50.761719 50.765625 0 4.945312.71875 9.71875 2.039063 14.238281l19.894531 68.21875c4.925781 16.882813 20.507812 29.21875 38.980469 29.21875 7.492187 0 14.503906-2.035156 20.53125-5.574219 6.023437 3.539063 13.039062 5.574219 20.53125 5.574219 18.472656 0 34.050781-12.335937 38.976562-29.21875l19.898438-68.21875c1.320312-4.519531 2.039062-9.292969 2.039062-14.238281 0-28.035156-22.726562-50.765625-50.761719-50.765625zm0 0" fill="#fff"/><path d="m178.085938 419.03125c-7.089844 0-14.089844-1.488281-20.53125-4.339844-6.441407 2.851563-13.441407 4.339844-20.53125 4.339844-22.40625 0-42.4375-15.015625-48.710938-36.519531l-19.898438-68.21875c-1.625-5.5625-2.445312-11.308594-2.445312-17.078125 0-33.582032 27.320312-60.902344 60.902344-60.902344 10.929687 0 21.40625 2.84375 30.683594 8.285156 9.273437-5.441406 19.75-8.285156 30.679687-8.285156 33.582031 0 60.902344 27.320312 60.902344 60.902344 0 5.769531-.820313 11.515625-2.445313 17.078125l-19.894531 68.21875c-6.273437 21.503906-26.304687 36.519531-48.710937 36.519531zm-20.53125-27.472656 5.132812 3.015625c4.65625 2.734375 9.980469 4.179687 15.398438 4.179687 13.453124 0 25.480468-9.015625 29.246093-21.921875l19.894531-68.21875c1.085938-3.714843 1.632813-7.550781 1.632813-11.398437 0-22.402344-18.222656-40.625-40.621094-40.625-8.949219 0-17.4375 2.855468-24.550781 8.261718l-6.132812 4.664063-6.136719-4.664063c-7.113281-5.40625-15.601563-8.261718-24.550781-8.261718-22.398438 0-40.621094 18.222656-40.621094 40.625 0 3.847656.546875 7.683594 1.632812 11.398437l19.898438 68.222657c3.765625 12.902343 15.789062 21.917968 29.246094 21.917968 5.414062 0 10.738281-1.445312 15.394531-4.179687zm0 0" fill="#c7461f"/><path d="m127.136719 319.910156h20.277343v20.277344h-20.277343zm0 0" fill="#480306"/><path d="m167.691406 319.910156h20.277344v20.277344h-20.277344zm0 0" fill="#480306"/><path d="m341.0625 93.246094v20.277344h-60.832031l-13.519531-10.140626 13.519531-10.136718zm0 0" fill="#fedd90"/><path d="m218.386719 93.246094h61.84375v20.277344h-61.84375zm0 0" fill="#fff2a3"/><path d="m341.0625 133.800781v20.277344h-60.832031l-13.519531-10.140625 13.519531-10.136719zm0 0" fill="#fedd90"/><path d="m218.386719 133.800781h61.84375v20.277344h-61.84375zm0 0" fill="#fff2a3"/></svg>