<svg id="Layer_1" enable-background="new 0 0 512 512" height="512" viewBox="0 0 512 512" width="512" xmlns="http://www.w3.org/2000/svg"><path d="m66.852 94.839c-37.013 43.394-59.347 99.669-59.347 161.161 0 137.244 111.256 248.5 248.5 248.5 4.527 0 9.032-.119 13.506-.367l55.263-55.264v-114.272l-93.434-41.677v-165.99z" fill="#76e5e6"/><path d="m479.887 363.937c15.769-32.637 24.607-69.263 24.607-107.937 0-60.845-21.881-116.592-58.194-159.792l-214.96 30.722v165.99l93.434 41.677z" fill="#76e5e6"/><path d="m47.505 256c0-58.365 20.13-112.022 53.826-154.435l-34.477-6.726h-.003c-37.012 43.394-59.346 99.669-59.346 161.161 0 137.244 111.256 248.5 248.5 248.5 3.018 0 6.022-.074 9.017-.183 1.498-.054 2.997-.102 4.488-.184l.946-.946c-125.238-12.791-222.951-118.571-222.951-247.187z" fill="#00bcb9"/><path d="m479.887 363.937c-38.318 79.363-117.594 135.228-210.376 140.197 0 0-6.456-15.672-6.456-15.672-4.088-9.922-.693-21.649 8.029-27.873 12.178-8.69 13.607-32.081 3.493-42.867 0 0-12.148-12.954-12.169-12.977-9.89-10.547-6.194-23.305 1.013-33.866 8.741-12.826 2.749-30.449-11.986-35.289l-35.332-11.598c-3.244-1.067-5.971-3.277-7.685-6.23l-24.23-41.681c-5.271-9.086-18.334-9.259-23.853-.313 0 0-5.792 9.388-5.799 9.399-8.167 13.237-29.181 4.13-25.297-10.811l12.546-48.029c.992-3.826 3.578-7.049 7.092-8.86l25.567-13.161c4.71-2.414 7.545-7.243 7.545-12.363 0-11.77-11.102-21.883-22.085-23.724-10.804-1.847-22.302-2.68-31.872-8.493l-37.1-22.516c-9.173-5.573-15.931-14.379-18.927-24.683 0 0-5.152-17.688-5.152-17.698 45.582-53.441 113.401-87.329 189.152-87.329 76.388 0 144.724 34.47 190.296 88.708 0 0-10.095 17.949-10.099 17.957-8.634 15.352-30.428 9.713-38.62 24.985-7.273 13.555-13.689 31.3-32.346 29.954-16.201-1.169-31.262 1.438-42.769 14.001-5.4 5.896-9.129 13.118-10.811 20.933-2.56 11.923-3.716 25.768-11.856 35.536 0 0-21.083 28.132-21.083 28.132-4.904 6.553-3.503 15.855 3.126 20.663l18.27 13.247c3.546 2.565 8.052 3.417 12.298 2.317 10.339-2.689 21.913-7.556 32.681-7.556 7.502 0 14.799 2.975 20.199 8.461 9.504 9.655 22.208 8.461 34.611 8.461 10.757 0 23.484 7.188 31.861 13.624-.002 0 48.124 37.014 48.124 37.014z" fill="#00c071"/><path d="m269.059 503.037c.282.684.452 1.096.452 1.097 2.162-.116 4.313-.269 6.46-.439-2.314-.185-4.616-.411-6.912-.658z" fill="#00a45b"/><path d="m66.852 94.828s.002.006.002.007c.001.002.001.003.001.004.07.251 5.149 17.687 5.149 17.687 1.896 6.519 5.301 12.435 9.866 17.315 7.321-12.398 15.688-24.107 24.981-35.003h.003c0-.002-.003-.011-.003-.011 41.529-48.685 101.515-81.13 169.139-86.52-.136-.011-.273-.018-.409-.029-31.664-2.472-61.795 1.072-89.772 9.294-46.902 13.786-88.046 41.017-118.957 77.256z" fill="#00a45b"/><path d="m181.255 100.84v-15.8c0-4.141-3.358-7.499-7.499-7.499-4.142 0-7.499 3.358-7.499 7.499v15.8c0 4.142 3.358 7.499 7.499 7.499 4.142 0 7.499-3.357 7.499-7.499z"/><path d="m338.196 108.339c4.142 0 7.499-3.358 7.499-7.499v-15.8c0-4.141-3.358-7.499-7.499-7.499s-7.499 3.358-7.499 7.499v15.8c0 4.142 3.357 7.499 7.499 7.499z"/><path d="m255.976 117.744c10.475 0 20.437-4.537 27.331-12.447 2.721-3.122 2.396-7.86-.727-10.581s-7.86-2.396-10.581.727c-8.47 9.719-23.553 9.745-32.046 0-2.721-3.123-7.458-3.448-10.581-.727-3.122 2.721-3.447 7.458-.727 10.581 6.895 7.91 16.856 12.447 27.331 12.447z"/><path d="m452.005 91.386c-79.688-94.843-212.077-116.606-315.672-61.731-3.66 1.939-5.055 6.478-3.116 10.137 1.939 3.66 6.478 5.055 10.137 3.116 96.573-51.155 218.789-31.322 293.799 54.202-4.523 8.043-4.637 8.244-7.525 13.379-6.422 11.419-28.899 6.863-38.689 25.114-5.377 10.022-11.18 27.029-25.196 26.017-12.191-.88-24.099.093-35.049 5.775-12.913 6.696-23.064 19.558-26.399 35.061-1.728 8.049-2.784 16.666-5.558 23.904-1.838 4.799-3.46 6.696-4.966 8.706l-21.085 28.135c-7.417 9.911-5.3 23.953 4.728 31.226 18.517 13.308 18.526 13.717 21.434 15.161 4.666 2.317 10.112 2.964 15.422 1.589 17.59-4.575 33.693-13.234 45.643-1.092 11.272 11.453 24.92 10.699 39.953 10.699 8.537 0 19.695 6.235 27.292 12.073 31.573 24.283 42.794 32.912 43.221 33.241-15.14 29.389-36.581 55.846-62.292 76.797-3.211 2.617-3.693 7.34-1.076 10.551 2.623 3.22 7.35 3.685 10.551 1.076 110.676-90.186 126.563-253.541 34.443-363.136zm-45.093 215.114c-11.364-2.214-26.947 2.572-36.31-6.936-4.601-4.674-10.439-7.978-16.739-9.587-14.887-3.8-30.25 3.272-43.361 6.683-2.075.54-4.275.13-6.016-1.128l-18.267-13.245c-3.232-2.344-3.928-6.885-1.528-10.093l20.971-27.982c7.776-9.433 10.021-21.421 12.003-32.005 1.521-8.117 2.721-15.762 10.302-24.04 9.63-10.514 22.404-12.618 36.697-11.586 28.069 2.022 35.212-29.708 41.158-36.255 7.447-8.201 27.41-5.646 36.879-22.483l-.001-.001c.349-.617 3.16-5.614 4.661-8.283 53.066 69.327 64.582 162.664 29.604 242.684-42.182-32.442-39.796-30.626-40.69-31.257l.018-.023c-8.237-6.331-19.054-12.45-29.381-14.463z"/><path d="m384.144 460.098c-33.002 20.768-70.849 33.226-109.772 36.178l-4.407-10.697c-2.753-6.684-.515-14.652 5.451-18.91 15.967-11.394 17.767-40.07 4.608-54.098l-12.169-12.977c-2.145-2.288-8.675-9.251 1.74-24.51 11.529-16.917 3.694-40.218-15.844-46.635l-35.325-11.595c-1.496-.492-2.754-1.512-3.545-2.875l-24.224-41.672c-8.079-13.927-28.175-14.335-36.721-.488-5.947 9.639-5.823 9.438-5.798 9.398-3.596 5.828-13.367 1.601-11.657-4.977l12.549-48.04c.342-1.319 1.112-2.532 2.279-3.437.948-.734-.192.02 26.539-13.79 13.948-7.15 15.953-26.214 2.555-39.872-12.248-12.488-24.087-9.755-39.018-13.87-9.708-2.674-10.245-5.005-46.569-26.433-13.405-8.144-15.311-19.303-19.63-34.141 12.627-14.312 26.958-27.124 42.653-38.125 3.391-2.378 4.214-7.054 1.836-10.446-2.377-3.392-7.054-4.214-10.446-1.837-68.751 48.194-109.229 126.424-109.229 209.742 0 68.375 26.626 132.658 74.975 181.006 86.823 86.823 219.023 97.551 317.157 35.795 3.506-2.206 4.559-6.836 2.353-10.342-2.206-3.504-6.835-4.559-10.341-2.352zm-298.563-33.706c-45.516-45.516-70.582-106.032-70.582-170.401 0-52.525 17.194-103.565 48.67-145.227.347 1.192.718 2.467 1.123 3.858 3.528 12.131 11.424 22.43 22.236 28.998l37.094 22.513c10.972 6.667 23.122 7.529 34.524 9.48 12.579 2.108 20.903 17.635 12.346 22.019-24.2 12.797-26.891 12.994-30.998 17.154-2.621 2.654-4.531 5.971-5.482 9.638l-12.548 48.035c-6.051 23.276 26.272 37.161 38.939 16.63l5.796-9.395c2.556-4.143 8.561-4.03 10.985.145l24.225 41.673c2.559 4.41 6.694 7.9 11.832 9.591 3.627 1.191 31.642 10.386 35.328 11.596 10 3.284 14.063 15.23 8.131 23.934-9.848 14.428-12.341 30.382-.293 43.216 13.142 14.038 13.38 13.799 14.884 17.234 3.864 8.829 1.929 22.367-5.09 27.377-11.485 8.195-16.033 23.655-10.607 36.832l2.336 5.669c-65.146.663-126.695-24.416-172.849-70.569z"/></svg>