<?xml version="1.0" encoding="iso-8859-1"?>
<!-- Generator: Adobe Illustrator 19.0.0, SVG Export Plug-In . SVG Version: 6.00 Build 0)  -->
<svg version="1.1" id="Capa_1" xmlns="http://www.w3.org/2000/svg" xmlns:xlink="http://www.w3.org/1999/xlink" x="0px" y="0px"
	 viewBox="0 0 512 512" style="enable-background:new 0 0 512 512;" xml:space="preserve">
<circle style="fill:#7AE5FE;" cx="256" cy="256" r="256"/>
<path style="fill:#00BED2;" d="M512,256c0-9.521-0.537-18.914-1.549-28.165l-109.599-109.6l-41.417,70.269l-61.789-61.789
	l-23.471,133.666L169.076,155.282l-44.882,178.661l146.54,146.54l5.389,30.732C408.101,500.953,512,390.612,512,256z"/>
<path style="fill:#DE1F4B;" d="M111.149,118.236l29.089,15.558c30.94,16.548,53.174,45.711,60.937,79.929l38.028,167.62
	c8,35.26-14.1-32.419-49.36-24.419l0,0c-35.26,8-70.329-14.099-78.328-49.359L111.149,118.236z"/>
<path style="fill:#B30034;" d="M400.851,118.236l-29.089,15.558c-30.94,16.548-53.174,45.711-60.937,79.929l-38.028,167.62
	c-8,35.26,14.1-32.419,49.36-24.419l0,0c35.26,8,70.329-14.099,78.328-49.359L400.851,118.236z"/>
<path style="fill:#74D770;" d="M235.877,511.216c6.64,0.516,13.35,0.784,20.123,0.784c6.773,0,13.483-0.268,20.123-0.784v-156.53
	h-40.246L235.877,511.216L235.877,511.216z"/>
<path style="fill:#2EA840;" d="M255.952,354.686V512c0.016,0,0.032,0,0.048,0c6.773,0,13.483-0.268,20.123-0.784v-156.53H255.952z"
	/>
<path style="fill:#FE4A6F;" d="M256,374.942L256,374.942c-40.301,0-72.971-32.67-72.971-72.971v-90.313
	c0-38.253,16.243-74.706,44.685-100.285L254.66,87.14l27.783,24.086c29.551,25.618,46.527,62.802,46.527,101.911v88.835
	C328.971,342.272,296.301,374.942,256,374.942z"/>
<path style="fill:#DE1F4B;" d="M254.661,87.141l27.783,24.086c29.551,25.618,46.527,62.802,46.527,101.911v88.835
	c0,40.301-32.67,72.971-72.971,72.971l0,0L254.661,87.141z"/>
<g>
</g>
<g>
</g>
<g>
</g>
<g>
</g>
<g>
</g>
<g>
</g>
<g>
</g>
<g>
</g>
<g>
</g>
<g>
</g>
<g>
</g>
<g>
</g>
<g>
</g>
<g>
</g>
<g>
</g>
</svg>
