<svg id="Layer_1" enable-background="new 0 0 512 512" height="512" viewBox="0 0 512 512" width="512" xmlns="http://www.w3.org/2000/svg"><path d="m427.463 377.659c-.172-.909-.355-1.819-.549-2.728l-13.239-62.086-157.675-25.37-157.674 25.37-13.239 62.086c-.194.909-.377 1.818-.549 2.728-12.51 66.002 39.103 126.841 106.28 126.841h130.364c67.177 0 118.79-60.839 106.281-126.841z" fill="#dcdcdc"/><path d="m256 287.475-157.674 25.37-11.066 51.897c2.75.328 5.528.512 8.326.512 17.269 0 33.868-6.341 46.738-17.855 2.376-2.126 4.973-2.572 6.733-2.572s4.356.446 6.733 2.572c12.871 11.514 29.469 17.855 46.738 17.855s33.868-6.341 46.738-17.855c2.376-2.126 4.973-2.572 6.733-2.572s4.356.446 6.733 2.572c12.871 11.514 29.469 17.855 46.738 17.855s33.867-6.341 46.738-17.855c2.376-2.126 4.973-2.572 6.733-2.572s4.357.446 6.733 2.572c12.871 11.514 29.469 17.855 46.738 17.855 2.798 0 5.576-.184 8.326-.512l-11.066-51.897z" fill="#bab8bf"/><path d="m447.468 273.116-3.739-4.671-187.729-28.749-187.729 28.749-3.739 4.671c-12.575 15.709-10.679 38.508 4.318 51.924 15.222 13.618 38.249 13.618 53.471 0 15.222-13.618 38.249-13.618 53.471 0 15.222 13.618 38.249 13.618 53.471 0 15.222-13.618 38.249-13.618 53.471 0 15.222 13.618 38.249 13.618 53.471 0 15.222-13.618 38.249-13.618 53.471 0 15.223 13.618 38.249 13.618 53.471 0 15-13.416 16.896-36.214 4.321-51.924z" fill="#dcdcdc"/><path d="m475.05 130.109c13.538 20.881 23.225 43.3 27.81 66.287 7.446 37.279-21.108 72.049-59.131 72.049h-375.458c-38.023 0-66.576-34.77-59.131-72.049 4.585-22.987 14.272-45.406 27.81-66.287l81.705-79.774c41.42-26.508 89.853-42.835 137.345-42.835s95.925 16.327 137.345 42.835z" fill="#ff5f7f"/><circle cx="256" cy="158.627" fill="#dcdcdc" r="58.685"/><path d="m98.269 268.445c-38.022-.001-66.574-34.771-59.128-72.049 4.585-22.987 14.271-45.407 27.81-66.287 20.085-30.99 48.659-58.625 81.705-79.774 37.065-23.722 79.746-39.279 122.344-42.29-1.261-.089-2.716-.179-4.11-.25-51.801-2.725-104.366 14.464-148.235 42.54l-81.705 79.774c-6.094 9.401-11.229 18.832-15.453 28.208-5.894 13.084-13.156 34.007-13.524 48.471-.842 33.101 25.839 61.657 60.297 61.657z" fill="#f6375d"/><path d="m145.979 99.945c0 32.405-26.271 58.687-58.687 58.687-21.376 0-40.088-11.442-50.343-28.522 20.085-30.99 48.659-58.625 81.705-79.774 16.42 10.398 27.325 28.728 27.325 49.609z" fill="#dcdcdc"/><path d="m36.95 130.109c4.689 7.81 11.149 14.435 18.82 19.332 3.354-6.566 7.087-13.021 11.18-19.332 16.614-25.634 39.046-48.959 65.002-68.23-3.822-4.479-8.303-8.38-13.298-11.544-6.196 3.965-12.235 8.159-18.09 12.56-25.371 19.07-47.294 42.034-63.614 67.214z" fill="#bab8bf"/><path d="m475.05 130.109c-10.254 17.08-28.966 28.522-50.343 28.522-32.415 0-58.687-26.281-58.687-58.687 0-20.881 10.905-39.21 27.324-49.609 33.046 21.149 61.62 48.783 81.706 79.774z" fill="#dcdcdc"/><ellipse cx="156.36" cy="422.43" fill="#ffa1ac" rx="36.765" ry="29.278"/><ellipse cx="355.64" cy="422.43" fill="#ffa1ac" rx="36.765" ry="29.278"/><path d="m256 92.442c-36.494 0-66.185 29.69-66.185 66.185s29.69 66.185 66.185 66.185 66.185-29.69 66.185-66.185c-.001-36.495-29.691-66.185-66.185-66.185zm0 117.369c-28.223 0-51.185-22.961-51.185-51.185s22.961-51.185 51.185-51.185 51.185 22.961 51.185 51.185-22.962 51.185-51.185 51.185z"/><path d="m185.286 394.246v-15.029c0-4.142-3.358-7.5-7.5-7.5s-7.5 3.358-7.5 7.5v15.029c0 4.142 3.358 7.5 7.5 7.5s7.5-3.358 7.5-7.5z"/><path d="m341.713 394.246v-15.029c0-4.142-3.358-7.5-7.5-7.5s-7.5 3.358-7.5 7.5v15.029c0 4.142 3.358 7.5 7.5 7.5s7.5-3.358 7.5-7.5z"/><path d="m282.275 398.727c2.721-3.123 2.396-7.86-.727-10.582-3.122-2.721-7.86-2.396-10.582.727-7.911 9.078-21.998 9.104-29.933 0-2.722-3.123-7.459-3.448-10.582-.727-3.123 2.722-3.448 7.459-.726 10.582 13.907 15.955 38.659 15.938 52.55 0z"/><path d="m256 0c-112.911 0-233.322 90.175-254.214 194.927-3.988 19.967 1.133 40.454 14.051 56.206 9.977 12.167 23.64 20.308 38.726 23.402-14.884 26.393-.186 59.75 29.991 66.932-7.142 33.543-6.91 32.284-7.385 34.795-6.086 32.114 2.063 65.38 22.358 91.269 2.556 3.26 7.27 3.831 10.529 1.275 3.26-2.556 3.831-7.27 1.275-10.529-17.672-22.543-25.229-52.091-18.91-81.782l7.229-33.903c10.347-.888 20.021-5.123 27.671-11.962 12.338-11.038 31.026-11.134 43.47 0 18.167 16.252 45.448 16.122 63.473 0 12.392-11.086 31.079-11.085 43.47 0 18.093 16.187 45.38 16.187 63.473 0 12.391-11.085 31.079-11.085 43.47 0 8.042 7.191 17.839 11.122 27.671 11.962l7.229 33.904c6.536 30.678-1.658 61.022-20.614 83.908-19.262 23.257-47.613 36.596-77.781 36.596h-130.364c-21.731 0-42.426-6.792-59.845-19.642-3.333-2.459-8.028-1.75-10.488 1.583-2.459 3.333-1.75 8.029 1.583 10.487 20.017 14.767 43.79 22.571 68.75 22.571h130.364c34.651 0 67.212-15.318 89.334-42.027 21.761-26.272 30.623-60.429 24.315-93.71-.471-2.492-.189-.998-7.385-34.796 30.079-7.161 44.917-40.465 29.992-66.932 15.086-3.094 28.749-11.235 38.726-23.402 12.917-15.753 18.039-36.239 14.051-56.204-20.811-104.34-140.793-194.928-254.215-194.928zm210.042 130.1c-5.04 6.93-11.535 12.485-19.753 16.296-35.112 16.252-75.015-10.914-72.668-49.609.872-14.527 7.929-28.207 19.884-37.393 29.323 19.491 54.25 43.79 72.537 70.706zm-347.546-70.707c11.409 8.762 18.023 21.286 19.599 34.297 5.127 42.155-40.145 71.506-76.353 50.66-6.384-3.678-11.584-8.481-15.784-14.251 18.286-26.915 43.213-51.214 72.538-70.706zm366.069 182.228c-10.071 12.281-24.955 19.324-40.836 19.324h-54.632c-4.142 0-7.5 3.358-7.5 7.5s3.358 7.5 7.5 7.5h51.03l1.487 1.857c15.757 19.685 2.125 48.471-23.366 49.904-8.84.21-16.661-2.078-23.568-8.257-18.093-16.186-45.38-16.187-63.472 0-12.392 11.086-31.079 11.086-43.471 0-18.093-16.186-45.379-16.187-63.472 0-12.391 11.085-31.079 11.086-43.47 0-18.093-16.186-45.38-16.186-63.473 0-12.297 11.002-31.017 11.141-43.47 0-12.025-10.758-13.546-29.052-3.463-41.647l1.487-1.857h287.26c4.142 0 7.5-3.358 7.5-7.5s-3.358-7.5-7.5-7.5h-290.865c-15.881 0-30.765-7.043-40.835-19.324-10.058-12.264-14.045-28.213-10.94-43.759 3.646-18.278 10.702-36.51 21.017-54.33 3.749 4.262 8.24 8.219 13.339 11.593 44.397 29.276 102.629-3.053 102.629-55.181 0-19.192-8.191-36.797-21.595-48.93 39.611-23.284 83.304-36.014 124.114-36.014s84.503 12.73 124.115 36.015c-6.53 5.929-11.975 13.261-15.785 21.731-20.993 46.714 16.999 98.798 67.848 92.946 16.309-1.889 31.345-9.759 42.31-22.16 10.314 17.82 17.371 36.052 21.017 54.332 3.104 15.544-.883 31.493-10.94 43.757z"/></svg>