<?xml version="1.0" encoding="iso-8859-1"?>
<!-- Generator: Adobe Illustrator 19.0.0, SVG Export Plug-In . SVG Version: 6.00 Build 0)  -->
<svg version="1.1" id="Capa_1" xmlns="http://www.w3.org/2000/svg" xmlns:xlink="http://www.w3.org/1999/xlink" x="0px" y="0px"
	 viewBox="0 0 512 512" style="enable-background:new 0 0 512 512;" xml:space="preserve">
<circle style="fill:#2864F0;" cx="256" cy="256" r="256"/>
<path style="fill:#0053BF;" d="M512,256c0-0.903-0.025-1.8-0.034-2.701L394.86,136.193l-64.792,55.422L256,117.547l-7.496,113.24
	l-47.312-47.312l-18.385,18.385l52.977,53.531l-53.731,53.73l-21.271-21.271l-73.896,61.964L248.972,511.9
	c2.335,0.063,4.676,0.1,7.026,0.1C397.385,512,512,397.385,512,256z"/>
<polygon style="fill:#FFEA3A;" points="256,117.547 300.986,208.699 401.579,223.316 328.789,294.268 345.973,394.454 256,347.152 
	166.028,394.454 183.211,294.268 110.422,223.316 211.014,208.699 "/>
<polygon style="fill:#FFC30B;" points="401.579,223.316 300.986,208.699 256,117.547 255.953,117.643 255.953,347.178 256,347.153 
	345.973,394.454 328.789,294.268 "/>
<g>
	
		<rect x="112.735" y="146.827" transform="matrix(-0.7071 -0.7071 0.7071 -0.7071 158.7048 385.3924)" style="fill:#F29F42;" width="92.869" height="26"/>
	
		<rect x="110.832" y="272.4" transform="matrix(-0.4122 -0.9111 0.9111 -0.4122 -115.6136 563.0812)" style="fill:#F29F42;" width="26" height="92.871"/>
</g>
<g>
	
		<rect x="341.744" y="305.809" transform="matrix(-0.9111 -0.4121 0.4121 -0.9111 610.4724 769.2592)" style="fill:#C1762B;" width="92.867" height="25.999"/>
	
		<rect x="339.827" y="113.391" transform="matrix(-0.7071 -0.7071 0.7071 -0.7071 489.2993 522.3252)" style="fill:#C1762B;" width="26" height="92.869"/>
</g>
<rect x="243" y="377" style="fill:#F29F42;" width="26" height="70"/>
<rect x="255.95" y="377" style="fill:#C1762B;" width="13.05" height="70"/>
<g>
</g>
<g>
</g>
<g>
</g>
<g>
</g>
<g>
</g>
<g>
</g>
<g>
</g>
<g>
</g>
<g>
</g>
<g>
</g>
<g>
</g>
<g>
</g>
<g>
</g>
<g>
</g>
<g>
</g>
</svg>
