<svg height="512pt" viewBox="0 0 512 512" width="512pt" xmlns="http://www.w3.org/2000/svg"><path d="m512 256c0 141.386719-114.613281 256-256 256s-256-114.613281-256-256 114.613281-256 256-256 256 114.613281 256 256zm0 0" fill="#fcba66"/><path d="m512 256c0-12.21875-.875-24.234375-2.53125-35.996094l-138.007812-138.007812-43.269532 43.269531-42.28125-42.285156-43.375 43.375-43.292968-43.292969-38.890626 38.894531 85.574219 85.574219-66.523437 66.523438 56.550781 56.550781-101.695313 101.699219 75.519532 75.523437c14.992187 2.734375 30.441406 4.171875 46.222656 4.171875 141.386719 0 256-114.613281 256-256zm0 0" fill="#f9963b"/><path d="m321.039062 114.359375 21.679688 322.765625c4.25 2.457031 9.183594 3.875 14.453125 3.875 15.964844 0 28.90625-12.945312 28.90625-28.90625v-98.28125l-21.679687-21.679688 21.679687-21.679687v-156.09375zm0 0" fill="#8b2613"/><path d="m277.679688 114.359375 21.679687 297.734375c0 15.964844 12.945313 28.90625 28.90625 28.90625 5.269531 0 10.203125-1.417969 14.453125-3.875v-322.765625zm0 0" fill="#c7461f"/><path d="m386.078125 114.359375c0 15.960937-12.941406 28.90625-28.90625 28.90625-5.269531 0-10.203125-1.417969-14.453125-3.875l-14.453125-25.03125 14.453125-43.359375c23.949219 0 43.359375 19.410156 43.359375 43.359375zm0 0" fill="#480306"/><path d="m342.71875 71v68.390625c-4.25 2.457031-9.183594 3.875-14.453125 3.875-15.960937 0-28.90625-12.945313-28.90625-28.90625 0-23.949219 19.410156-43.359375 43.359375-43.359375zm0 0" fill="#8b2613"/><path d="m147.601562 114.359375 21.679688 322.765625c4.25 2.457031 9.1875 3.875 14.453125 3.875 15.964844 0 28.90625-12.945312 28.90625-28.90625l21.679687-297.734375zm0 0" fill="#8b2613"/><path d="m125.921875 114.359375v156.09375l21.679687 21.679687-21.679687 21.679688v98.28125c0 15.964844 12.941406 28.90625 28.90625 28.90625 5.269531 0 10.203125-1.414062 14.453125-3.871094v-322.769531zm0 0" fill="#c7461f"/><path d="m212.640625 114.359375c0 15.960937-12.941406 28.90625-28.90625 28.90625-5.265625 0-10.203125-1.417969-14.453125-3.875l-14.453125-25.03125 14.453125-43.359375c23.949219 0 43.359375 19.410156 43.359375 43.359375zm0 0" fill="#480306"/><path d="m169.28125 71v68.390625c-4.25 2.457031-9.183594 3.875-14.453125 3.875-15.964844 0-28.90625-12.945313-28.90625-28.90625 0-23.949219 19.410156-43.359375 43.359375-43.359375zm0 0" fill="#8b2613"/><path d="m234.320312 114.359375 21.679688 322.769531c4.25 2.457032 9.183594 3.871094 14.453125 3.871094 15.964844 0 28.90625-12.941406 28.90625-28.90625v-297.734375zm0 0" fill="#8b2613"/><path d="m212.640625 114.359375v297.734375c0 15.964844 12.945313 28.90625 28.90625 28.90625 5.269531 0 10.203125-1.417969 14.453125-3.875v-322.765625zm0 0" fill="#c7461f"/><path d="m299.359375 114.359375c0 15.960937-12.945313 28.90625-28.90625 28.90625-5.269531 0-10.203125-1.417969-14.453125-3.875l-14.453125-25.03125 14.453125-43.359375c23.949219 0 43.359375 19.410156 43.359375 43.359375zm0 0" fill="#480306"/><path d="m256 71v68.390625c-4.25 2.457031-9.183594 3.875-14.453125 3.875-15.960937 0-28.90625-12.945313-28.90625-28.90625 0-23.949219 19.410156-43.359375 43.359375-43.359375zm0 0" fill="#8b2613"/><path d="m386.078125 292.132812v21.679688h-129.003906l-21.679688-32.519531zm0 0" fill="#fcba66"/><path d="m257.074219 277.679688v36.132812h-131.152344v-21.679688zm0 0" fill="#fedd90"/><path d="m386.078125 270.453125v21.679687h-129.003906l-28.667969-10.839843 28.667969-10.839844zm0 0" fill="#fedd90"/><path d="m125.921875 270.453125h131.152344v21.679687h-131.152344zm0 0" fill="#fff2a3"/></svg>