<svg id="Layer_1" enable-background="new 0 0 512 512" height="512" viewBox="0 0 512 512" width="512" xmlns="http://www.w3.org/2000/svg"><path d="m436.695 280.357-41.392-67.855-69.212-47.499-70.091-10.856-52.048 8.821-83.461 44.784-46.141 73.962 12.233 54.049 8.14 31.676 40.026-25.144 33.24-22.583 30.535-52.248 57.476-14.658 50.049 15.337 39.072 37.32 32.129 36.832 40.027 25.144 8.14-31.676z" fill="#00e6e6"/><path d="m459.765 144.199-88.211-63.335-115.554-21.714-139.58 33.928-86.176 71.247-22.744 88.481v81.161l11.262 22.753 19.335-23.549 36.253-51.457 46.141-73.962 83.461-44.784 52.048-8.821 70.091 10.856 69.212 47.499 41.392 67.855 37.208 52.814 19.335 23.549 11.262-22.753v-81.161z" fill="#ffaa78"/><path d="m504.5 156.542v96.265c-13.26-33.47-33.344-64.193-59.572-90.421-50.457-50.458-117.562-78.259-188.928-78.259s-138.471 27.801-188.928 78.258c-26.228 26.229-46.312 56.952-59.572 90.421v-96.265c57.796-73.637 147.625-120.949 248.5-120.949s190.704 47.312 248.5 120.95z" fill="#ff5f7f"/><path d="m425.417 335.763 6.246-30.684c-22.498 1.801-48.752 5.124-77.286 10.995l22.874 26.221 40.026 25.143z" fill="#00bdb9"/><path d="m341.975 265.348c-22.967-22.967-53.495-35.615-85.975-35.615s-63.008 12.648-85.975 35.615c-20.822 20.822-33.159 47.866-35.275 76.948l18.226 32.599 29.998-21.999c-.01-.524-.019-1.048-.019-1.573 0-19.511 7.591-37.857 21.394-51.651 13.794-13.803 32.14-21.404 51.651-21.404s37.857 7.601 51.651 21.404c13.803 13.793 21.394 32.14 21.394 51.651 0 .524-.01 1.048-.019 1.573l29.998 21.999 18.226-32.599c-2.116-29.083-14.453-56.127-35.275-76.948z" fill="#a29cde"/><path d="m410.614 196.71c-41.304-41.304-96.207-64.047-154.614-64.047s-113.31 22.743-154.614 64.047c-36.984 36.983-59.087 84.897-63.29 136.461l17.481 23.549 31.005-20.958c3.563-39.566 20.686-76.297 49.127-104.729 32.13-32.14 74.851-49.835 120.289-49.835 45.439 0 88.159 17.696 120.29 49.826 28.442 28.441 45.565 65.173 49.127 104.739l31.005 20.958 17.481-23.549c-4.201-51.565-26.304-99.469-63.287-136.462z" fill="#ffd072"/><path d="m493.238 356.72 11.262-22.753v-30.087c-4.164-.279-12.999-.742-25.724-.742-7.417 0-16.023.162-25.614.594l20.741 29.439z" fill="#ff8c46"/><path d="m425.417 335.763 31.005 20.958 17.481-23.549c-.827-10.144-2.357-20.143-4.546-29.948-13.693.237-30.37 1.029-49.285 2.894 2.638 9.636 4.436 19.548 5.345 29.645z" fill="#ffa841"/><path d="m359.024 374.895 18.226-32.599c-.737-10.134-2.719-20.019-5.866-29.48-15.259 2.704-31.313 6.135-47.899 10.451 3.647 8.774 5.56 18.269 5.56 28.057 0 .524-.01 1.048-.019 1.573z" fill="#736acc"/><path d="m86.583 335.763-6.246-30.684c22.498 1.801 48.752 5.124 77.286 10.995l-22.874 26.221-40.026 25.143z" fill="#00bdb9"/><path d="m18.762 356.72-11.262-22.753v-30.087c4.164-.279 12.999-.742 25.724-.742 7.417 0 16.023.162 25.614.594l-20.741 29.439z" fill="#ff8c46"/><path d="m86.583 335.763-31.005 20.957-17.481-23.549c.827-10.144 2.357-20.143 4.546-29.948 13.693.237 30.37 1.029 49.285 2.894-2.638 9.637-4.436 19.549-5.345 29.646z" fill="#ffa841"/><path d="m152.976 374.895-18.226-32.599c.737-10.134 2.719-20.019 5.866-29.48 15.259 2.704 31.313 6.135 47.899 10.451-3.647 8.774-5.56 18.269-5.56 28.057 0 .524.01 1.048.019 1.573z" fill="#736acc"/><path d="m256 377.75c-128.394-54.328-248.5-43.788-248.5-43.788v142.446h100.099z" fill="#00c070"/><path d="m504.5 333.962s-233.032-20.455-396.901 142.446h396.901z" fill="#2ddfb6"/><path d="m287.804 405.46c-4.142 0-7.5 3.358-7.5 7.5v14.957c0 4.143 3.358 7.5 7.5 7.5s7.5-3.357 7.5-7.5v-14.957c0-4.141-3.358-7.5-7.5-7.5z"/><path d="m443.48 405.46c-4.142 0-7.5 3.358-7.5 7.5v14.957c0 4.143 3.358 7.5 7.5 7.5s7.5-3.357 7.5-7.5v-14.957c0-4.141-3.358-7.5-7.5-7.5z"/><path d="m391.091 421.819c-3.123-2.722-7.861-2.396-10.582.727-7.875 9.036-21.869 9.025-29.734 0-2.721-3.123-7.458-3.448-10.582-.727-3.123 2.721-3.448 7.458-.727 10.581 6.603 7.576 16.143 11.922 26.176 11.922s19.573-4.346 26.176-11.922c2.721-3.123 2.396-7.861-.727-10.581z"/><path d="m256 28.092c-50.492 0-98.854 11.32-143.745 33.646-42.794 21.283-81.058 52.464-110.655 90.173-1.037 1.321-1.6 2.951-1.6 4.63v319.866c0 4.142 3.358 7.5 7.5 7.5h497c4.142 0 7.5-3.357 7.5-7.5 0-17.617 0-313.164 0-319.866 0-1.679-.563-3.31-1.6-4.63-29.596-37.709-67.86-68.891-110.655-90.174-44.891-22.325-93.253-33.645-143.745-33.645zm-56.569 119.692c126.486-34.945 251.125 52.007 266.178 177.987-9.729.244-21.004.791-33.555 1.838-4.493-34.492-19.183-66.153-40.909-91.552-1.628-1.903-4.003-2.783-6.322-2.591-6.017.49-9.081 7.66-5.077 12.342 19.743 23.076 33.099 51.668 37.359 83.234-10.425 1.129-21.545 2.603-33.237 4.515-8.911-63.368-62.807-111.324-127.868-111.324-63.737 0-118.697 46.47-127.87 111.332-9.601-1.563-22.217-3.308-33.247-4.497 17.019-126.099 166.921-184.037 264.561-103.239 1.396 1.156 3.087 1.72 4.768 1.722 7.019.008 10.19-8.815 4.795-13.279-106.443-88.082-269.968-25.629-289.061 113.366-12.564-1.043-23.836-1.591-33.558-1.838 10.106-84.031 70.512-155.212 153.043-178.016zm136.725 195.543c-1.81-18.503-9.889-35.655-23.2-48.957-15.209-15.22-35.437-23.603-56.956-23.603-41.82 0-76.173 31.844-80.156 72.559-10.815-2.677-21.835-5.076-32.921-7.165 6.688-49.792 44.989-88.878 93.397-97.249 63.887-11.046 124.072 32.91 132.758 97.249-10.63 2.002-22.874 4.677-32.922 7.166zm-80.153 26.303c-22.341-9.292-44.388-16.629-65.409-22.407 2.1-34.266 30.501-61.456 65.405-61.456 34.789 0 63.28 27.065 65.403 61.422-22.573 6.217-44.423 13.716-65.399 22.441zm-241.003-28.594c25.671-1.119 119.853-1.99 221.758 37.046-48.255 22.583-92.648 52.006-132.238 90.826h-89.52zm111.382 127.871c38.305-34.948 82.407-62.918 131.687-83.878 77.366-32.898 167.346-47.258 238.931-44v127.878zm370.618-309.756v60.1c-68.205-124.283-218.391-174.663-345.987-121.92-3.828 1.583-5.648 5.968-4.066 9.796s5.968 5.648 9.796 4.066c88.461-36.566 196.05-22.684 273.499 47.559 32.777 29.728 50.999 58.74 66.758 95.539v71.703c-4.063-.183-9.554-.352-16.298-.383-12.678-112.163-107.778-200.449-224.702-200.449-115.44 0-211.792 86.544-224.704 200.468-6.759.026-12.237.192-16.296.371v-71.715c21.622-53.751 62.156-100.983 115.774-130.586 3.626-2.002 4.943-6.564 2.941-10.191-2.002-3.626-6.564-4.943-10.191-2.941-47.033 25.967-84.525 64.921-108.524 108.684v-60.101c28.002-35.06 63.89-64.067 103.935-83.983 42.796-21.284 88.912-32.076 137.065-32.076s94.269 10.792 137.065 32.076c40.045 19.916 75.933 48.923 103.935 83.983z"/></svg>