<svg id="Layer_1" enable-background="new 0 0 512 512" height="512" viewBox="0 0 512 512" width="512" xmlns="http://www.w3.org/2000/svg"><path d="m501.813 248.77-.061-.071c-14.708-17.058-18.462-40.985-9.684-61.727l.024-.057c2.145-5.068.242-10.941-4.467-13.789l-.124-.075c-19.235-11.631-30.223-33.152-28.364-55.553l.013-.161c.454-5.475-3.175-10.456-8.527-11.7h-.001c-21.984-5.11-39.149-22.275-44.258-44.259v-.001c-1.244-5.352-6.224-8.981-11.7-8.527l-.162.013c-22.401 1.859-43.922-9.129-55.552-28.364l-.075-.124c-2.847-4.709-8.721-6.612-13.789-4.467l-.058.024c-20.742 8.778-44.669 5.024-61.727-9.684l-.072-.062c-4.154-3.582-10.305-3.582-14.46 0l-.071.061c-17.058 14.708-40.985 18.462-61.727 9.684l-.057-.024c-5.068-2.145-10.941-.242-13.789 4.467l-.075.124c-11.631 19.235-33.152 30.223-55.553 28.364l-.162-.013c-5.475-.454-10.456 3.175-11.7 8.527-5.11 21.984-22.275 39.149-44.259 44.259-5.352 1.244-8.981 6.224-8.527 11.7l.013.162c1.859 22.401-9.129 43.922-28.364 55.552l-.124.075c-4.709 2.847-6.612 8.721-4.467 13.789l.024.058c8.778 20.743 5.024 44.669-9.684 61.727l-.062.072c-3.582 4.154-3.582 10.305 0 14.46l.062.072c14.708 17.058 18.462 40.984 9.684 61.727l-.024.058c-2.145 5.068-.242 10.941 4.467 13.789l.124.075c19.235 11.631 30.223 33.152 28.364 55.552l-.013.162c-.454 5.475 3.175 10.456 8.527 11.7h.001c21.984 5.11 39.149 22.275 44.258 44.259 1.244 5.352 6.224 8.981 11.7 8.527l.161-.013c22.401-1.859 43.922 9.129 55.553 28.364l.075.124c2.847 4.709 8.721 6.612 13.789 4.467l.057-.024c20.743-8.778 44.669-5.024 61.727 9.684l.072.062c4.154 3.582 10.305 3.582 14.46 0l.071-.062c17.058-14.708 40.985-18.462 61.727-9.684l.058.024c5.068 2.145 10.941.242 13.789-4.467l.075-.124c11.631-19.235 33.152-30.223 55.553-28.364l.162.013c5.475.454 10.456-3.175 11.7-8.527v-.001c5.11-21.983 22.275-39.149 44.258-44.258h.001c5.352-1.244 8.981-6.224 8.527-11.7l-.013-.161c-1.859-22.401 9.129-43.922 28.364-55.553l.124-.075c4.709-2.847 6.612-8.721 4.467-13.789l-.024-.058c-8.778-20.743-5.024-44.669 9.684-61.727l.062-.072c3.582-4.155 3.582-10.306-.001-14.46z" fill="#ff5f7f"/><circle cx="256" cy="256" fill="#ffd072" r="190.164"/><path d="m97.835 256c0-99.635 76.629-181.361 174.164-189.488-5.276-.44-10.61-.676-16-.676-105.025 0-190.164 85.14-190.164 190.165 0 105.024 85.139 190.164 190.164 190.164 5.39 0 10.724-.236 16-.676-97.535-8.128-174.164-89.854-174.164-189.489z" fill="#ffa841"/><path d="m187.729 256.652c-.055 17.558-17.973 31.735-40.02 31.666-22.048-.069-39.876-14.358-39.821-31.916s17.973-31.735 40.021-31.666c22.046.069 39.875 14.358 39.82 31.916z" fill="#ffa2ae"/><path d="m324.271 257.08c-.055 17.558 17.774 31.847 39.821 31.916 22.048.069 39.965-14.108 40.02-31.666s-17.774-31.847-39.821-31.916-39.965 14.108-40.02 31.666z" fill="#ffa2ae"/><path d="m288.263 232.54c.062-19.891-14.342-21.805-32.118-21.861s-32.192 1.768-32.254 21.66c-.062 19.891 14.298 36.061 32.073 36.117 17.776.055 32.236-16.024 32.299-35.916z" fill="#5d576f"/><path d="m507.527 243.866s-.062-.071-.062-.071c-12.94-15.007-16.181-35.666-8.434-53.972 3.573-8.444.351-18.389-7.506-23.14l-.113-.068c-16.916-10.229-26.409-28.821-24.775-48.51l.015-.174c.756-9.118-5.394-17.556-14.306-19.627-19.347-4.497-34.16-19.31-38.657-38.658-2.071-8.912-10.507-15.064-19.615-14.307l-.174.015c-19.709 1.633-38.293-7.858-48.526-24.782l-.07-.116c-4.744-7.847-14.691-11.069-23.191-7.471-18.248 7.722-38.907 4.482-53.986-8.519-6.914-5.963-17.344-5.964-24.33.061-15.007 12.939-35.665 16.181-53.972 8.434-8.446-3.573-18.389-.35-23.128 7.487l-.08.132c-10.229 16.916-28.826 26.409-48.508 24.775l-.176-.015c-9.111-.755-17.556 5.393-19.628 14.306-4.497 19.348-19.31 34.16-38.657 38.658-8.912 2.071-15.062 10.509-14.305 19.64l.013.149c1.635 19.701-7.859 38.293-24.763 48.516l-.135.081c-7.846 4.745-11.068 14.69-7.47 23.191 7.722 18.248 4.481 38.907-8.437 53.89-.007.008-.077.088-.084.097-5.962 6.915-5.962 17.343.062 24.329 12.94 15.008 16.181 35.666 8.434 53.972-3.573 8.444-.351 18.388 7.498 23.135l.121.073c16.916 10.229 26.409 28.821 24.773 48.534l-.012.149c-.757 9.119 5.393 17.557 14.306 19.629 19.348 4.497 34.16 19.309 38.657 38.657 2.072 8.911 10.505 15.065 19.643 14.304l.147-.012c19.709-1.633 38.293 7.858 48.522 24.774l.074.124c4.745 7.845 14.69 11.067 23.19 7.47 18.25-7.722 38.908-4.481 53.986 8.52 3.46 2.984 7.798 4.474 12.135 4.474 4.331 0 8.66-1.488 12.107-4.46.006-.005.083-.071.088-.076 15.008-12.939 35.666-16.18 53.972-8.434 8.445 3.575 18.388.351 23.135-7.498l.073-.121c10.229-16.916 28.816-26.407 48.532-24.773l.151.013c9.118.755 17.557-5.393 19.628-14.307 4.497-19.348 19.31-34.16 38.658-38.657 8.912-2.072 15.062-10.51 14.306-19.618l-.014-.172c-1.635-19.701 7.858-38.293 24.782-48.527l.116-.07c7.846-4.744 11.068-14.689 7.47-23.191-7.722-18.249-4.481-38.907 8.454-53.908.001-.002.065-.076.067-.077 5.961-6.914 5.961-17.343-.001-24.258zm-11.357 14.457c-.001.001-.065.075-.067.077-16.694 19.361-20.876 46.014-10.888 69.615.688 1.624.068 3.536-1.448 4.453l-.117.07c-21.825 13.197-34.072 37.184-31.963 62.589l.014.173c.146 1.753-1.038 3.376-2.752 3.774-24.961 5.801-44.072 24.912-49.873 49.874-.398 1.714-2.024 2.893-3.785 2.75l-.151-.012c-25.424-2.11-49.404 10.137-62.603 31.965l-.073.121c-.912 1.508-2.824 2.129-4.506 1.417-23.544-9.963-50.196-5.782-69.541 10.898-.006.005-.083.071-.088.076-1.33 1.148-3.335 1.147-4.737-.061-12.391-10.685-27.768-16.244-43.421-16.244-8.805 0-17.698 1.759-26.194 5.354-1.624.688-3.537.067-4.449-1.442l-.075-.123c-13.196-21.824-37.172-34.071-62.614-31.961l-.147.012c-1.761.145-3.377-1.037-3.776-2.751-5.801-24.962-24.912-44.072-49.874-49.873-1.714-.398-2.897-2.021-2.75-3.787l.012-.149c2.11-25.416-10.137-49.403-31.965-62.602l-.121-.073c-1.509-.912-2.129-2.825-1.417-4.507 9.963-23.543 5.782-50.196-10.974-69.63-1.147-1.329-1.147-3.335-.021-4.64.007-.008.076-.088.084-.096 16.694-19.362 20.876-46.015 10.888-69.616-.688-1.624-.068-3.537 1.43-4.442l.135-.082c21.825-13.197 34.071-37.184 31.961-62.612l-.013-.149c-.145-1.753 1.038-3.376 2.751-3.774 24.962-5.802 44.072-24.912 49.874-49.874.398-1.714 2.026-2.898 3.761-2.753l.175.015c25.413 2.109 49.403-10.138 62.595-31.954l.08-.132c.913-1.509 2.823-2.129 4.506-1.417 23.544 9.962 50.196 5.782 69.63-10.975 1.33-1.146 3.335-1.146 4.737.062 19.361 16.694 46.014 20.876 69.616 10.888 1.624-.688 3.537-.067 4.453 1.449l.071.117c13.197 21.825 37.191 34.071 62.587 31.963l.175-.014c1.75-.146 3.375 1.038 3.774 2.751 5.801 24.962 24.912 44.072 49.873 49.874 1.714.398 2.897 2.021 2.753 3.763l-.015.174c-2.109 25.416 10.138 49.403 31.973 62.607l.113.067c1.509.913 2.129 2.826 1.417 4.507-9.963 23.544-5.782 50.197 10.932 69.58l.045.052c1.145 1.33 1.144 3.334.003 4.658z"/><path d="m255.996 58.302c-37.541 0-74.077 10.577-105.661 30.587-3.499 2.217-4.539 6.852-2.322 10.351 2.216 3.499 6.85 4.54 10.351 2.322 29.178-18.486 62.939-28.258 97.632-28.258 100.736 0 182.691 81.955 182.691 182.691 0 34.344-9.593 67.819-27.742 96.804-2.198 3.511-1.134 8.14 2.377 10.338 1.237.775 2.614 1.144 3.973 1.144 2.498 0 4.942-1.248 6.365-3.522 19.645-31.375 30.028-67.602 30.028-104.766.002-109.006-88.683-197.691-197.692-197.691z"/><path d="m404.156 375.481c-3.119-2.727-7.858-2.409-10.585.709-34.729 39.717-84.874 62.497-137.576 62.497-100.737 0-182.692-81.955-182.692-182.692 0-52.336 22.519-102.25 61.785-136.944 3.104-2.743 3.397-7.484.654-10.588-2.742-3.104-7.483-3.398-10.588-.654-42.486 37.54-66.853 91.552-66.853 148.186 0 109.009 88.685 197.694 197.694 197.694 57.03 0 111.291-24.648 148.869-67.624 2.728-3.118 2.411-7.857-.708-10.584z"/><path d="m256.054 275.954c10.718 0 20.757-4.601 28.279-12.964 7.336-8.157 11.396-18.966 11.432-30.434.038-12.056-4.49-20.491-13.459-25.075-6.916-3.534-15.452-4.281-26.142-4.314-13.871-.043-39.691-.124-39.784 29.14-.075 23.999 17.67 43.578 39.556 43.647zm-24.671-43.6c.033-10.604 3.548-14.186 24.162-14.186.189 0 .38 0 .572.001 7.387.023 14.845.362 19.361 2.671 2.627 1.342 5.308 3.778 5.283 11.669-.024 7.775-2.718 15.037-7.585 20.449-4.637 5.157-10.717 7.994-17.126 7.994-.023 0-.045 0-.068 0-13.613-.043-24.648-12.872-24.599-28.598z"/><path d="m152.161 229.437c4.131 0 7.487-3.342 7.501-7.477.02-6.331 5.177-11.468 11.503-11.468h.037c6.343.02 11.487 5.197 11.467 11.539-.013 4.143 3.335 7.512 7.478 7.525h.024c4.131 0 7.488-3.343 7.501-7.478.045-14.615-11.807-26.543-26.422-26.588-.029 0-.056 0-.084 0-14.575 0-26.458 11.836-26.504 26.422-.013 4.143 3.334 7.512 7.477 7.525z"/><path d="m322.04 229.97c4.131 0 7.488-3.343 7.501-7.478.01-3.073 1.215-5.957 3.395-8.123s5.105-3.355 8.145-3.344c6.343.02 11.487 5.197 11.467 11.539-.013 4.142 3.335 7.511 7.478 7.525h.024c4.131 0 7.488-3.343 7.501-7.478.045-14.615-11.807-26.543-26.422-26.588-.029 0-.057 0-.085 0-7.047 0-13.68 2.734-18.681 7.705-5.022 4.99-7.8 11.637-7.822 18.718-.013 4.143 3.335 7.512 7.478 7.525.005-.001.013-.001.021-.001z"/></svg>