<svg height="512pt" viewBox="0 0 512 512" width="512pt" xmlns="http://www.w3.org/2000/svg"><path d="m512 256c0 141.386719-114.613281 256-256 256s-256-114.613281-256-256 114.613281-256 256-256 256 114.613281 256 256zm0 0" fill="#6c533a"/><path d="m511.5625 270.839844-199.835938-199.835938-127.640624 127.636719 64.402343 64.40625-33.71875 33.722656-101.160156-101.160156-27.941406 27.9375 101.160156 101.160156-78.589844 78.589844 105.152344 105.152344c13.859375 2.324219 28.089844 3.550781 42.609375 3.550781 136.402344 0 247.875-106.683594 255.5625-241.160156zm0 0" fill="#593927"/><path d="m100.09375 187.015625c-11.648438 0-21.09375 9.445313-21.09375 21.09375 0 11.652344 9.445312 21.09375 21.09375 21.09375h158.90625v-42.1875zm0 0" fill="#9b918b"/><path d="m417.90625 187.015625c11.648438 0 21.09375 9.445313 21.09375 21.09375 0 11.652344-9.445312 21.09375-21.09375 21.09375h-158.90625v-42.1875zm0 0" fill="#7a6c64"/><path d="m311.734375 144.476562h-73.828125l21.09375-73.476562h52.734375zm0 0" fill="#7a6c64"/><path d="m206.265625 71h52.734375v73.476562h-52.734375zm0 0" fill="#9b918b"/><path d="m330.015625 113.1875h-71.015625l-21.09375 74.179688 144.84375-21.445313c0-29.074219-23.652344-52.734375-52.734375-52.734375zm0 0" fill="#bdb5b2"/><path d="m187.984375 113.1875c-29.082031 0-52.734375 23.660156-52.734375 52.734375l123.75 21.445313v-74.179688zm0 0" fill="#d6d0cd"/><path d="m382.75 187.015625-144.84375 21.09375 21.09375-42.1875h123.75zm0 0" fill="#d6d0cd"/><path d="m259 208.109375-123.75-21.09375v-21.09375h123.75zm0 0" fill="#fff"/><path d="m382.75 187.015625v191.25c0 29.082031-23.652344 52.734375-52.734375 52.734375h-71.015625l-70.3125-123.75 70.3125-120.234375zm0 0" fill="#9b918b"/><path d="m259 187.015625v243.984375h-31.554688l-92.195312-122.738281v-121.246094zm0 0" fill="#bdb5b2"/><path d="m216.8125 229.554688h21.09375v84.726562h-21.09375zm0 0" fill="#fff"/><path d="m298.375 307.25v21.09375l-109.6875 42.1875-109.6875-42.1875v-21.09375zm0 0" fill="#fff2a3"/><path d="m79 328.34375h219.375c0 22.375-6.695312 43.890625-19.355469 62.242188-12.371093 17.90625-29.546875 31.625-49.691406 39.660156l-1.882813.753906h-77.515624l-1.882813-.753906c-20.144531-8.035156-37.320313-21.753906-49.691406-39.660156-12.660157-18.351563-19.355469-39.867188-19.355469-62.242188zm0 0" fill="#fedd90"/></svg>