<?xml version="1.0" encoding="iso-8859-1"?>
<!-- Generator: Adobe Illustrator 19.0.0, SVG Export Plug-In . SVG Version: 6.00 Build 0)  -->
<svg version="1.1" id="Capa_1" xmlns="http://www.w3.org/2000/svg" xmlns:xlink="http://www.w3.org/1999/xlink" x="0px" y="0px"
	 viewBox="0 0 512 512" style="enable-background:new 0 0 512 512;" xml:space="preserve">
<circle style="fill:#2864F0;" cx="256" cy="256" r="256"/>
<path style="fill:#0053BF;" d="M512,256c0-56.074-18.043-107.927-48.62-150.1L406.1,48.62L189.667,197.667l48.943,48.943
	L156.333,343l71.988,71.988L180.667,460l50.826,50.826C239.56,511.593,247.732,512,256,512C397.385,512,512,397.385,512,256z"/>
<path style="fill:#7AE5FE;" d="M331.982,11.466l-142.315,186.2L239,220.333L156.333,343L299,199.667l-30.667-20L406.1,48.62
	C383.825,32.469,358.856,19.808,331.982,11.466z"/>
<path style="fill:#00BED2;" d="M268.333,179.667L406.1,48.62c-22.275-16.151-47.244-28.813-74.119-37.154l-76.029,99.474v131.975
	L299,199.667L268.333,179.667z"/>
<polygon style="fill:#FFFFFF;" points="397.355,162.683 237.046,322.127 272.214,337.378 180.667,460 343.603,330.659 
	306.674,306.195 "/>
<polygon style="fill:#E0E0E0;" points="306.674,306.195 397.355,162.683 255.952,303.323 255.952,330.326 272.214,337.377 
	255.952,359.159 255.952,400.237 343.603,330.659 "/>
<g>
</g>
<g>
</g>
<g>
</g>
<g>
</g>
<g>
</g>
<g>
</g>
<g>
</g>
<g>
</g>
<g>
</g>
<g>
</g>
<g>
</g>
<g>
</g>
<g>
</g>
<g>
</g>
<g>
</g>
</svg>
