<svg height="512pt" viewBox="0 0 512 512" width="512pt" xmlns="http://www.w3.org/2000/svg"><path d="m512 256c0 141.386719-114.613281 256-256 256s-256-114.613281-256-256 114.613281-256 256-256 256 114.613281 256 256zm0 0" fill="#fcba66"/><path d="m502.316406 186.023438-100.523437-100.523438-116.523438 116.523438-116.546875-116.546876-40.988281 40.992188 116.542969 116.546875-17.8125 17.808594-91.429688-91.429688-40.988281 40.992188 23.15625 23.160156-20.65625 20.65625 25.59375 25.597656-26.011719 26.011719 26.394532 26.394531-26.019532 26.023438 26.230469 26.230469-26 26 92.808594 92.808593c21.195312 5.683594 43.46875 8.730469 66.457031 8.730469 141.386719 0 256-114.613281 256-256 0-24.261719-3.375-47.734375-9.683594-69.976562zm0 0" fill="#f9963b"/><path d="m168.761719 85.5v59.75l-58.535157-20.726562v-39.023438zm0 0" fill="#c7a772"/><path d="m401.773438 85.5v39.023438l-58.535157 20.726562v-59.75zm0 0" fill="#ac8c63"/><path d="m236.488281 190.863281v91.054688l160.105469-19.511719v-52.03125zm0 0" fill="#c7461f"/><path d="m115.40625 210.375v52.03125l140.59375 19.511719v-91.054688zm0 0" fill="#d95d27"/><path d="m308.164062 262.40625-52.164062 71.542969 140.59375-19.511719v-52.03125zm0 0" fill="#8b2613"/><path d="m115.40625 262.40625v52.03125l140.59375 19.511719-51.898438-71.542969zm0 0" fill="#c7461f"/><path d="m256 314.4375v71.542969l140.59375-19.511719v-52.03125zm0 0" fill="#480306"/><path d="m115.40625 314.4375v52.03125l140.59375 19.511719v-71.542969zm0 0" fill="#8b2613"/><path d="m255.890625 366.46875 52.273437 52.03125h88.320313v-52.03125zm0 0" fill="#8b2613"/><path d="m115.300781 366.46875v52.03125h88.800781l51.789063-52.03125zm0 0" fill="#c7461f"/><path d="m422.5 392.484375c0 14.367187-11.648438 26.015625-26.015625 26.015625s-26.015625-11.648438-26.015625-26.015625 11.648438-26.015625 26.015625-26.015625 26.015625 11.648438 26.015625 26.015625zm0 0" fill="#e3c281"/><path d="m422.5 288.421875c0 14.367187-11.648438 26.015625-26.015625 26.015625s-26.015625-11.648438-26.015625-26.015625 11.648438-26.015625 26.015625-26.015625 26.015625 11.648438 26.015625 26.015625zm0 0" fill="#e3c281"/><g fill="#fedd90"><path d="m422.5 340.453125c0 14.367187-11.648438 26.015625-26.015625 26.015625s-26.015625-11.648438-26.015625-26.015625 11.648438-26.015625 26.015625-26.015625 26.015625 11.648438 26.015625 26.015625zm0 0"/><path d="m422.035156 231.492188c.304688 1.589843.464844 3.226562.464844 4.898437 0 14.367187-11.648438 26.015625-26.015625 26.015625s-26.015625-11.648438-26.015625-26.015625 11.648438-26.015625 26.015625-26.015625c12.515625 0 22.960937 8.839844 25.453125 20.609375zm0 0"/><path d="m141.53125 392.484375c0 14.367187-11.648438 26.015625-26.015625 26.015625s-26.015625-11.648438-26.015625-26.015625 11.648438-26.015625 26.015625-26.015625 26.015625 11.648438 26.015625 26.015625zm0 0"/><path d="m141.53125 288.421875c0 14.367187-11.648438 26.015625-26.015625 26.015625s-26.015625-11.648438-26.015625-26.015625 11.648438-26.015625 26.015625-26.015625 26.015625 11.648438 26.015625 26.015625zm0 0"/></g><path d="m141.53125 340.453125c0 14.367187-11.648438 26.015625-26.015625 26.015625s-26.015625-11.648438-26.015625-26.015625 11.648438-26.015625 26.015625-26.015625 26.015625 11.648438 26.015625 26.015625zm0 0" fill="#fff2a3"/><path d="m115.515625 210.375c14.367187 0 26.015625 11.648438 26.015625 26.015625s-11.648438 26.015625-26.015625 26.015625-26.015625-11.648438-26.015625-26.015625c0-1.671875.160156-3.308594.464844-4.898437l.097656-.503907c2.488281-11.773437 12.9375-20.613281 25.453125-20.613281zm0 0" fill="#fff2a3"/><path d="m401.773438 124.523438h-145.773438l-39.023438 42.925781 39.023438 42.925781h161.988281zm0 0" fill="#480306"/><path d="m110.226562 124.523438-16.214843 85.851562h161.988281v-85.851562zm0 0" fill="#8b2613"/><path d="m308.164062 418.5h-52.03125l-19.511718-39.023438 71.542968 19.511719zm0 0" fill="#e3c281"/><path d="m256.132812 418.5h-52.03125v-19.511719l52.03125-19.511719zm0 0" fill="#fedd90"/><path d="m256.132812 262.40625-19.511718 68.289062 19.511718 68.292969h52.03125v-136.582031zm0 0" fill="#ac8c63"/><path d="m204.101562 262.40625h52.03125v136.582031h-52.03125zm0 0" fill="#c7a772"/></svg>