<?xml version="1.0" encoding="iso-8859-1"?>
<!-- Generator: Adobe Illustrator 19.0.0, SVG Export Plug-In . SVG Version: 6.00 Build 0)  -->
<svg version="1.1" id="Capa_1" xmlns="http://www.w3.org/2000/svg" xmlns:xlink="http://www.w3.org/1999/xlink" x="0px" y="0px"
	 viewBox="0 0 512 512" style="enable-background:new 0 0 512 512;" xml:space="preserve">
<circle style="fill:#2864F0;" cx="256" cy="256" r="256"/>
<path style="fill:#1149AA;" d="M256,512c137.627,0,249.872-108.608,255.741-244.79L426.531,182l-10.856,19.175L334.5,120
	l-71.235,45.111l-21.678-21.678l-76.106,83.602l-33.729-33.729L99.219,231.11l39.561,39.561l-39.874,21.841l51.093,51.093
	l-52.992,8.431l42.278,42.278L99.22,416.297l57.316,57.316l-11.787,13.011C178.391,502.883,216.13,512,256,512z"/>
<path style="fill:#FE9A35;" d="M155.402,223.089h-5.47c-4.744-23.441-25.46-41.089-50.3-41.089H85.469v14.163
	c0,28.344,22.978,51.323,51.323,51.323h7.957v23.082c-8.695-15.987-25.638-26.839-45.117-26.839H85.469v14.164
	c0,28.345,22.978,51.323,51.323,51.323h7.957v23.082c-8.695-15.988-25.638-26.839-45.117-26.839H85.469v14.164
	c0,28.344,22.978,51.323,51.323,51.323h7.957v23.082c-8.695-15.987-25.638-26.838-45.117-26.838H85.469v14.163
	c0,28.345,22.978,51.323,51.323,51.323h7.957v53.951c5.182,2.504,10.467,4.829,15.836,6.987v-60.938h7.957
	c28.345,0,51.323-22.978,51.323-51.323V367.19h-14.163c-19.479,0-36.422,10.851-45.116,26.838v-23.082h7.957
	c28.345,0,51.323-22.979,51.323-51.323v-14.164h-14.163c-19.479,0-36.422,10.852-45.116,26.839v-23.082h7.957
	c28.345,0,51.323-22.978,51.323-51.323v-14.164h-14.163c-19.479,0-36.422,10.852-45.116,26.839v-23.082h7.957
	c28.345,0,51.323-22.979,51.323-51.323V182h-14.163C180.861,182,160.146,199.648,155.402,223.089z"/>
<path style="fill:#FF7C11;" d="M362.069,223.089h-5.47C351.855,199.648,331.14,182,306.299,182h-14.163v14.163
	c0,28.344,22.978,51.323,51.323,51.323h7.957v23.082c-8.694-15.987-25.638-26.839-45.116-26.839h-14.163v14.164
	c0,28.345,22.978,51.323,51.323,51.323h7.957v23.082c-8.694-15.988-25.638-26.839-45.116-26.839h-14.163v14.164
	c0,28.344,22.978,51.323,51.323,51.323h7.957v23.082c-8.694-15.987-25.638-26.838-45.116-26.838h-14.163v14.163
	c0,28.345,22.978,51.323,51.323,51.323h7.957v60.938c5.37-2.158,10.654-4.483,15.836-6.987v-53.951h7.957
	c28.345,0,51.323-22.978,51.323-51.323V367.19h-14.163c-19.479,0-36.422,10.851-45.117,26.838v-23.082h7.957
	c28.345,0,51.323-22.979,51.323-51.323v-14.164h-14.163c-19.479,0-36.422,10.852-45.117,26.839v-23.082h7.957
	c28.345,0,51.323-22.978,51.323-51.323v-14.164h-14.163c-19.479,0-36.422,10.852-45.117,26.839v-23.082h7.957
	c28.345,0,51.323-22.979,51.323-51.323V182h-14.163C387.528,182,366.812,199.648,362.069,223.089z"/>
<path style="fill:#FFEA3A;" d="M274.545,196.5c33.112,0,59.955-26.843,59.955-59.955V120h-16.545c-29.018,0-53.218,20.616-58.759,48
	h-6.391c-5.541-27.384-29.741-48-58.759-48H177.5v16.545c0,33.112,26.843,59.955,59.955,59.955h9.295v26.964
	c-10.157-18.676-29.95-31.353-52.705-31.353H177.5v16.545c0,33.112,26.843,59.955,59.955,59.955h9.295v26.964
	c-10.157-18.676-29.95-31.353-52.705-31.353H177.5v16.545c0,33.112,26.843,59.955,59.955,59.955h9.295v26.964
	c-10.157-18.676-29.95-31.353-52.705-31.353H177.5v16.545c0,33.112,26.843,59.955,59.955,59.955h9.295v98.982
	c3.072,0.109,6.152,0.184,9.25,0.184c3.098,0,6.178-0.075,9.25-0.184v-98.982h9.295c33.112,0,59.955-26.843,59.955-59.955v-16.545
	h-16.545c-22.755,0-42.548,12.676-52.705,31.353v-26.964h9.295c33.112,0,59.955-26.843,59.955-59.955v-16.545h-16.545
	c-22.755,0-42.548,12.677-52.705,31.353v-26.964h9.295c33.112,0,59.955-26.843,59.955-59.955v-16.545h-16.545
	c-22.755,0-42.548,12.677-52.705,31.353V196.5H274.545z"/>
<path style="fill:#F9C41E;" d="M274.545,196.5c33.112,0,59.955-26.843,59.955-59.955V120h-16.545c-29.018,0-53.218,20.616-58.759,48
	h-3.243v344c0.016,0,0.032,0,0.048,0c3.098,0,6.178-0.075,9.25-0.184v-98.982h9.295c33.112,0,59.955-26.843,59.955-59.955v-16.545
	h-16.545c-22.755,0-42.548,12.676-52.705,31.353v-26.964h9.295c33.112,0,59.955-26.843,59.955-59.955v-16.545h-16.545
	c-22.755,0-42.548,12.677-52.705,31.353v-26.964h9.295c33.112,0,59.955-26.843,59.955-59.955v-16.545h-16.545
	c-22.755,0-42.548,12.677-52.705,31.353V196.5H274.545z"/>
<g>
</g>
<g>
</g>
<g>
</g>
<g>
</g>
<g>
</g>
<g>
</g>
<g>
</g>
<g>
</g>
<g>
</g>
<g>
</g>
<g>
</g>
<g>
</g>
<g>
</g>
<g>
</g>
<g>
</g>
</svg>
