<svg id="Layer_1" enable-background="new 0 0 512 512" height="512" viewBox="0 0 512 512" width="512" xmlns="http://www.w3.org/2000/svg"><circle cx="436.417" cy="204.093" fill="#e7896e" r="68.083"/><circle cx="75.583" cy="204.093" fill="#e7896e" r="68.083"/><path d="m368.335 204.093c0 37.601 30.482 68.083 68.083 68.083 9.49 0 18.524-1.946 26.731-5.454-1.958-4.326-2.929-8.951-2.791-13.432.704-23.281-.846-71.184-20.681-117.197-1.08-.051-2.166-.082-3.259-.082-37.602 0-68.083 30.481-68.083 68.082z" fill="#dd6642"/><path d="m75.583 136.011c-1.093 0-2.178.031-3.259.082-19.836 46.014-21.385 93.92-20.681 117.209.138 4.475-.837 9.106-2.791 13.419 8.207 3.508 17.241 5.454 26.73 5.454 37.601 0 68.083-30.481 68.083-68.083s-30.481-68.081-68.082-68.081z" fill="#dd6642"/><circle cx="75.583" cy="204.093" fill="#f8cfc5" r="32.32"/><circle cx="436.417" cy="204.093" fill="#f8cfc5" r="32.32"/><path d="m459.939 226.247c-.858-14.522-2.888-31.789-7.166-50.027-4.799-2.822-10.386-4.447-16.355-4.447-17.85 0-32.32 14.47-32.32 32.32s14.47 32.32 32.32 32.32c9.272.001 17.627-3.91 23.521-10.166z" fill="#f2ad9a"/><path d="m107.903 204.093c0-17.85-14.47-32.32-32.32-32.32-5.969 0-11.556 1.625-16.354 4.446-4.278 18.238-6.308 35.505-7.166 50.029 5.894 6.255 14.248 10.166 23.521 10.166 17.849 0 32.319-14.471 32.319-32.321z" fill="#f2ad9a"/><path d="m188.662 455.585c-126.716-25.271-143.504-122.886-117.468-177.594 3.774-7.95 5.708-16.657 5.437-25.457-1.457-48.196 7.334-202.238 179.369-202.238s180.826 154.042 179.368 202.238c-.271 8.8 1.663 17.507 5.437 25.457 26.036 54.707 9.249 152.323-117.468 177.593h-134.675z" fill="#e7896e"/><path d="m323.338 455.585c-19.703 3.933-42.068 6.119-67.338 6.119s-47.635-2.186-67.338-6.119c-97.859-57.65-115.169-151.174-47.103-214.644 3.877-3.625 4.97-9.342 2.821-14.191-22.954-51.914 27.541-95.719 95.103-63.676 5.157 2.438 10.809 3.653 16.517 3.653s11.36-1.214 16.517-3.653c67.562-32.043 118.056 11.762 95.103 63.676-2.149 4.849-1.056 10.566 2.821 14.191 68.066 63.47 50.755 156.994-47.103 214.644z" fill="#f8cfc5"/><path d="m167.707 250.95v15.507c0 4.143 3.358 7.5 7.5 7.5s7.5-3.357 7.5-7.5v-15.507c0-4.142-3.358-7.5-7.5-7.5s-7.5 3.358-7.5 7.5z"/><path d="m329.105 250.95v15.507c0 4.143 3.358 7.5 7.5 7.5s7.5-3.357 7.5-7.5v-15.507c0-4.142-3.358-7.5-7.5-7.5s-7.5 3.358-7.5 7.5z"/><path d="m286.002 275.703c0 6.165-5.016 11.181-11.18 11.181s-11.18-5.016-11.18-11.181c0-4.142-3.358-7.5-7.5-7.5s-7.5 3.358-7.5 7.5c0 6.165-5.016 11.181-11.18 11.181s-11.18-5.016-11.18-11.181c0-4.142-3.358-7.5-7.5-7.5s-7.5 3.358-7.5 7.5c0 23.373 28.499 35.001 44.86 18.318 16.353 16.675 44.86 5.071 44.86-18.318 0-4.142-3.358-7.5-7.5-7.5s-7.5 3.358-7.5 7.5z"/><path d="m62.718 278.56c-13.778 32.079-12.425 71.442 3.796 103.785 14.371 28.653 46.973 65.895 120.679 80.595h.001c20.823 4.157 43.972 6.264 68.806 6.264 75.066 0 155.854-19.8 189.487-86.859 16.222-32.345 17.574-71.711 3.797-103.785 15.649-2.675 30.035-10.197 41.299-21.765 13.811-14.183 21.417-32.9 21.417-52.701 0-41.677-33.906-75.583-75.583-75.583-6.287 0-12.506.781-18.565 2.319-7.049-13.577-16.012-26.664-27.405-38.406-31.949-32.931-77.184-49.628-134.447-49.628-34.329 0-64.626 6.074-90.051 18.052-3.747 1.766-5.354 6.234-3.588 9.981s6.233 5.354 9.981 3.588c23.41-11.029 51.556-16.622 83.657-16.622 53.052 0 94.664 15.165 123.682 45.072 36.971 38.106 49.773 97.231 48.19 149.43-.305 10.061 1.98 20.108 6.162 28.916 10.685 22.45 15.782 59.04-1.955 94.405-9.795 19.531-29.256 43.557-67.865 59.882 21.927-19.209 39.755-42.874 48.741-70.475 1.282-3.938-.872-8.171-4.811-9.453-3.938-1.283-8.171.871-9.453 4.811-12.448 38.223-43.688 67.619-78.088 88.095-19.531 3.799-41.258 5.725-64.603 5.725-23.342 0-45.066-1.926-64.597-5.724-97.011-57.729-105.732-145.171-44.721-202.059 6.206-5.803 8.001-14.936 4.559-22.703-20.006-45.247 23.528-83.034 85.037-53.862 6.049 2.86 12.869 4.373 19.723 4.373 6.853 0 13.673-1.512 19.731-4.376 61.724-29.274 104.908 8.906 85.032 53.861-3.457 7.802-1.626 16.927 4.563 22.714 45.187 42.123 37.634 84.515 38.723 88.728.713 2.764 3.048 5.068 6.133 5.537 4.484.668 8.408-2.68 8.621-7.049 1.884-38.57-15.224-72.066-43.24-98.179-1.522-1.424-1.959-3.705-1.084-5.68 11.135-25.184 7.352-50.376-10.121-67.391-17.085-16.638-51.028-26.977-95.047-6.099-4.058 1.919-8.661 2.933-13.311 2.933s-9.253-1.014-13.303-2.929c-75.16-35.648-130.494 16.223-105.173 73.49.873 1.97.436 4.25-1.08 5.667-60.734 56.633-58.369 139.037 11.331 200.042-38.597-16.326-58.06-40.35-67.853-59.877-17.737-35.366-12.64-71.956-1.952-94.413 3.529-7.436 5.631-15.601 6.084-23.63.389-6.808-3.924-62.849 20.725-114.54.052-.108.091-.221.137-.331 9.435-19.652 22.979-38.331 42.353-53.11 3.293-2.512 3.926-7.219 1.414-10.512-2.513-3.293-7.219-3.926-10.512-1.414-19.695 15.024-33.879 33.574-44.065 53.148-47.832-12.104-94.106 24.279-94.106 73.276 0 19.802 7.606 38.518 21.417 52.701 11.265 11.568 25.651 19.09 41.301 21.765zm373.699-135.05c33.405 0 60.583 27.178 60.583 60.583 0 30.948-23.172 56.402-53.042 60.097-1.657-7.431-.936-10.379-.967-20.829 18.839-3.144 33.247-19.551 33.247-39.268 0-23.844-20.92-42.412-44.633-39.527-2.036-6.605-4.415-13.253-7.198-19.855 3.943-.798 7.96-1.201 12.01-1.201zm6.136 84.637c-.952-17.577-3.408-34.055-6.938-48.86 13.966-.459 25.623 10.787 25.623 24.807 0 11.569-7.957 21.314-18.685 24.053zm-373.106-.001c-10.728-2.738-18.685-12.484-18.685-24.053 0-13.859 11.472-25.248 25.622-24.808-3.743 15.706-6.039 32.252-6.937 48.861zm18.142-83.436c-2.701 6.41-5.151 13.206-7.198 19.855-23.763-2.887-44.628 15.736-44.628 39.528 0 19.717 14.408 36.124 33.247 39.268-.028 11.237.664 13.491-.966 20.829-29.857-3.693-53.044-29.131-53.044-60.096 0-38.256 35.158-66.956 72.589-59.384z"/></svg>