<svg height="512pt" viewBox="0 0 512 512" width="512pt" xmlns="http://www.w3.org/2000/svg"><path d="m512 256c0 141.386719-114.613281 256-256 256s-256-114.613281-256-256 114.613281-256 256-256 256 114.613281 256 256zm0 0" fill="#6c533a"/><path d="m510.726562 281.632812-233.300781-233.296874-39.710937 39.710937 31.285156 94.953125-23.644531 81-114.355469 59.480469-34.667969 87.941406 91.34375 91.34375c21.75 6.007813 44.660157 9.234375 68.324219 9.234375 132.734375 0 241.867188-101.019531 254.726562-230.367188zm0 0" fill="#593927"/><path d="m96.332031 323.480469 150.53125-75.265625 9.519531 19.042968-138.761718 69.378907zm0 0" fill="#d6d0cd"/><path d="m415.667969 323.480469-150.53125-75.265625-9.519531 19.042968 138.761718 69.378907zm0 0" fill="#bdb5b2"/><path d="m277.289062 48.335938v175.277343l-30.75 53.222657 9.460938-228.5zm0 0" fill="#fedd90"/><path d="m256 48.335938v228.5l-21.289062-53.222657v-175.277343zm0 0" fill="#fff2a3"/><path d="m277.289062 223.613281v106.445313h-35.480468l14.191406-106.445313zm0 0" fill="#a59d4d"/><path d="m234.710938 223.613281h21.289062v106.445313h-21.289062zm0 0" fill="#bfb053"/><path d="m117.621094 411.664062h-21.289063v-28.382812l21.289063-10.644531zm0 0" fill="#bdb5b2"/><path d="m415.667969 411.664062h-21.289063v-39.027343l21.289063 10.644531zm0 0" fill="#9b918b"/><g fill="#bdb5b2"><path d="m181.488281 372.636719h21.289063v39.027343h-21.289063zm0 0"/><path d="m138.910156 372.636719h21.289063v39.027343h-21.289063zm0 0"/><path d="m224.066406 372.636719h21.289063v39.027343h-21.289063zm0 0"/></g><path d="m266.644531 372.636719h21.289063v39.027343h-21.289063zm0 0" fill="#9b918b"/><path d="m309.222656 372.636719h21.289063v39.027343h-21.289063zm0 0" fill="#9b918b"/><path d="m351.800781 372.636719h21.289063v39.027343h-21.289063zm0 0" fill="#9b918b"/><path d="m415.667969 361.992188v21.289062h-159.667969l-21.289062-42.578125zm0 0" fill="#bdb5b2"/><path d="m256 340.703125v42.578125h-159.667969v-21.289062zm0 0" fill="#d6d0cd"/><path d="m415.667969 323.480469v38.511719h-159.667969l-21.289062-19.257813 21.289062-19.253906zm0 0" fill="#707741"/><path d="m96.332031 323.480469h159.667969v38.511719h-159.667969zm0 0" fill="#8a8a47"/></svg>