<?xml version="1.0" encoding="iso-8859-1"?>
<!-- Generator: Adobe Illustrator 19.0.0, SVG Export Plug-In . SVG Version: 6.00 Build 0)  -->
<svg version="1.1" id="Capa_1" xmlns="http://www.w3.org/2000/svg" xmlns:xlink="http://www.w3.org/1999/xlink" x="0px" y="0px"
	 viewBox="0 0 512 512" style="enable-background:new 0 0 512 512;" xml:space="preserve">
<circle style="fill:#7AE5FE;" cx="256" cy="256" r="256"/>
<path style="fill:#74D770;" d="M7.179,195.629C2.498,214.989,0,235.201,0,256c0,141.385,114.615,256,256,256s256-114.615,256-256
	c0-20.798-2.498-41.011-7.179-60.371H7.179z"/>
<path style="fill:#2EA840;" d="M504.821,195.629H255.952V512c0.016,0,0.032,0,0.048,0c141.385,0,256-114.615,256-256
	C512,235.201,509.502,214.989,504.821,195.629z"/>
<path style="fill:#2864F0;" d="M244.043,195.629c-21.824,22.107-41.937,48.171-34.043,57.5c27.877,32.945,40,30.5-7,97.5
	c-15.222,21.699-67.908,66.364-107.15,105.08C139.702,490.919,195.385,512,256,512c30.06,0,58.902-5.198,85.697-14.715
	c14.379-53.266,32.413-121.724,39.654-153.455c18.207-79.791-2.918-73.332-50.739-87.302c-16.816-4.913-7.584-34.776,4.963-60.899
	L244.043,195.629L244.043,195.629z"/>
<path style="fill:#0053BF;" d="M330.612,256.528c-16.816-4.913-7.584-34.776,4.963-60.899h-79.623V512c0.016,0,0.032,0,0.048,0
	c30.06,0,58.902-5.198,85.697-14.715c14.379-53.266,32.413-121.724,39.654-153.455C399.559,264.039,378.433,270.498,330.612,256.528
	z"/>
<circle style="fill:#FFEA3A;" cx="256" cy="97.63" r="49"/>
<path style="fill:#FFC30B;" d="M256,48.629c27.062,0,49,21.938,49,49s-21.938,49-49,49"/>
<g>
</g>
<g>
</g>
<g>
</g>
<g>
</g>
<g>
</g>
<g>
</g>
<g>
</g>
<g>
</g>
<g>
</g>
<g>
</g>
<g>
</g>
<g>
</g>
<g>
</g>
<g>
</g>
<g>
</g>
</svg>
