<svg id="Layer_1" enable-background="new 0 0 512 512" height="512" viewBox="0 0 512 512" width="512" xmlns="http://www.w3.org/2000/svg"><path d="m7.5 134.337 42.044-57.934c19.344-26.655 50.286-42.431 83.22-42.431 32.934 0 63.876 15.776 83.22 42.431l111.016 152.972v38.676l-236.177 87-83.323-30.402z" fill="#e7896e"/><path d="m79.544 76.402c16.373-22.561 41.055-37.324 68.22-41.329-4.93-.727-9.941-1.102-15-1.102-32.934 0-63.876 15.776-83.22 42.431l-42.044 57.935v42.202z" fill="#dd6642"/><path d="m504.5 221.337-42.044-57.934c-19.344-26.655-50.286-42.431-83.22-42.431-32.934 0-63.876 15.776-83.22 42.431l-111.016 152.972v38.676h236.177l83.323-30.402z" fill="#e7896e"/><path d="m326.016 163.402c16.373-22.561 41.055-37.324 68.22-41.329-4.93-.727-9.941-1.102-15-1.102-32.934 0-63.876 15.776-83.22 42.431l-111.016 152.973v38.676h30v-38.676z" fill="#dd6642"/><path d="m504.5 324.649c-22.381-11.032-48.619-11.032-71 0-22.381 11.032-48.619 11.032-71 0-22.381-11.032-48.619-11.032-71 0-22.381 11.032-48.619 11.032-71 0-22.381-11.032-48.619-11.032-71 0-22.381 11.032-48.619 11.032-71 0-22.381-11.032-48.619-11.032-71 0v76.69l81.639 41.789h363.494l51.866-41.789v-76.69" fill="#00e6e6"/><path d="m504.5 401.339c-22.381-11.032-48.619-11.032-71 0-22.381 11.032-48.619 11.032-71 0-22.381-11.032-48.619-11.032-71 0-22.381 11.032-48.619 11.032-71 0-22.381-11.032-48.619-11.032-71 0-22.381 11.032-48.619 11.032-71 0-22.381-11.032-48.619-11.032-71 0v76.69h497z" fill="#00bdb9"/><path d="m55.149 145.638v13.474c0 4.142 3.358 7.5 7.5 7.5s7.5-3.358 7.5-7.5v-13.474c0-4.142-3.358-7.5-7.5-7.5s-7.5 3.358-7.5 7.5z"/><path d="m210.379 159.112v-13.474c0-4.142-3.358-7.5-7.5-7.5s-7.5 3.358-7.5 7.5v13.474c0 4.142 3.358 7.5 7.5 7.5s7.5-3.359 7.5-7.5z"/><path d="m132.764 174.632c9.252 0 18.05-4.007 24.14-10.994 2.722-3.123 2.396-7.86-.726-10.582s-7.86-2.397-10.582.726c-3.24 3.717-7.917 5.849-12.832 5.849s-9.592-2.132-12.831-5.849c-2.722-3.123-7.459-3.447-10.582-.727-3.123 2.722-3.448 7.459-.727 10.582 6.089 6.987 14.888 10.995 24.14 10.995z"/><path d="m316.621 239.99v-13.473c0-4.143-3.358-7.5-7.5-7.5s-7.5 3.357-7.5 7.5v13.473c0 4.143 3.358 7.5 7.5 7.5s7.5-3.357 7.5-7.5z"/><path d="m456.851 239.99v-13.473c0-4.143-3.358-7.5-7.5-7.5s-7.5 3.357-7.5 7.5v13.473c0 4.143 3.358 7.5 7.5 7.5s7.5-3.357 7.5-7.5z"/><path d="m403.375 244.517c2.721-3.123 2.396-7.86-.727-10.581-3.122-2.722-7.86-2.396-10.582.727-6.796 7.798-18.873 7.79-25.662 0-2.722-3.123-7.459-3.448-10.582-.727s-3.448 7.458-.727 10.581c12.751 14.631 35.494 14.673 48.28 0z"/><path d="m504.5 485.529c4.142 0 7.5-3.358 7.5-7.5 0-9.162 0-244.612 0-256.692 0-1.583-.5-3.125-1.43-4.405l-42.044-57.935c-20.688-28.507-54.067-45.526-89.29-45.526s-68.602 17.019-89.29 45.526l-2.376 3.275-65.515-90.275c-20.688-28.507-54.067-45.526-89.29-45.526-12.51 0-24.851 2.116-36.681 6.288-3.906 1.377-5.956 5.661-4.579 9.567 1.378 3.906 5.662 5.956 9.567 4.578 10.224-3.605 20.886-5.433 31.692-5.433 30.434 0 59.275 14.705 77.15 39.336l68.387 94.233-44.701 61.595c-4.577 6.307 2.374 14.562 9.368 11.139 2.416-1.176-2.273 4.625 59.116-79.967 17.875-24.631 46.717-39.336 77.15-39.336s59.275 14.705 77.15 39.336l40.616 55.964v89.703c-21.347-7.153-45.716-5.952-66.815 4.447-13.873 6.837-30.314 9.283-46.61 6.024-15.214-3.041-18.01-7.662-32.953-11.799-20.618-5.71-43.03-3.792-62.437 5.775-20.152 9.933-44.215 9.934-64.368 0-7.907-3.895-16.609-6.591-24.917-7.929l29.001-39.962c2.433-3.352 1.688-8.042-1.665-10.475-3.354-2.434-8.043-1.688-10.475 1.665l-34.647 47.741c-12.124.546-24.178 3.664-34.928 8.959-20.152 9.933-44.215 9.934-64.368 0-20.299-10.002-44.455-11.88-66.818-4.446v-176.703l40.614-55.963c5.577-7.684 12.253-14.476 19.843-20.185 3.311-2.49 3.975-7.192 1.485-10.502s-7.191-3.975-10.502-1.485c-8.785 6.608-16.512 14.468-22.966 23.362l-42.044 57.933c-.93 1.281-1.43 2.823-1.43 4.406v343.692c0 4.142 3.358 7.5 7.5 7.5zm-489.5-15v-64.355c20.035-8.303 42.186-6.981 60.184 1.893 24.245 11.95 53.264 12.012 77.632 0 20.059-9.887 44.136-9.978 64.368 0 24.305 11.98 53.326 11.981 77.632 0 19.512-9.62 43.622-10.226 64.368 0 41.132 20.275 77.747-.029 77.647-.007 18.26-8.996 40.353-10.081 60.169-1.886v64.355zm279.816-139.153c20.1-9.912 44.169-9.956 64.368 0 22.992 11.334 50.032 11.854 73.186 2.034 3.17-1.345 5.389-2.56 8.094-3.703 17.381-7.388 37.964-7.924 56.536-.223v60.681c-20.882-7.068-45.429-6.091-66.816 4.447-20.152 9.933-44.215 9.934-64.368 0-24.086-11.874-53.139-12.071-77.632 0-20.152 9.933-44.215 9.934-64.368 0-23.891-11.78-52.977-12.157-77.632 0-18.2 8.973-40.149 10.028-59.629 2.117-3.939-1.598-4.376-2.046-8.305-3.764-20.632-9.025-43.646-9.433-63.25-2.8v-60.681c19.54-8.053 41.597-7.268 60.184 1.892 24.093 11.876 53.163 12.062 77.632 0 19.863-9.8 43.934-10.067 64.368 0 24.306 11.981 53.327 11.981 77.632 0z"/></svg>