<svg height="512pt" viewBox="0 0 512 512" width="512pt" xmlns="http://www.w3.org/2000/svg"><path d="m512 256c0 141.386719-114.613281 256-256 256s-256-114.613281-256-256 114.613281-256 256-256 256 114.613281 256 256zm0 0" fill="#fcba66"/><path d="m504.734375 316.734375-3.804687-3.804687 5.996093-6c1.980469-9.8125 3.394531-19.828126 4.21875-30.011719l-232.414062-232.417969-34.984375 34.980469 15.753906 131.519531-152.140625 220.476562 67.332031 67.332032c25.546875 8.550781 52.882813 13.191406 81.308594 13.191406 120.457031 0 221.464844-83.203125 248.734375-195.265625zm0 0" fill="#f9963b"/><path d="m367.195312 213.230469 29.914063 218.269531h-73.082031l-68.027344-154.949219v-71.808593zm0 0" fill="#9b918b"/><path d="m256 242.535156-37.792969 94.484375 37.792969 94.480469h68.027344v-188.964844zm0 0" fill="#bdb5b2"/><path d="m346.703125 197.183594c18.121094 0 34.433594 14.660156 36.363281 32.675781l21.605469 201.640625h-22.804687l-21.347657-199.222656c-.707031-6.617188-7.164062-12.417969-13.816406-12.417969h-90.703125v-22.675781zm0 0" fill="#7a6c64"/><path d="m144.804688 213.230469-29.914063 218.269531h73.082031l68.027344-154.949219v-71.808593zm0 0" fill="#bdb5b2"/><path d="m187.972656 242.535156h68.027344v188.964844h-68.027344zm0 0" fill="#d6d0cd"/><path d="m278.675781 44.5v118.671875l-32.753906 56.6875 10.078125-175.359375zm0 0" fill="#fedd90"/><path d="m256 44.5v175.359375l-22.675781-56.6875v-118.671875zm0 0" fill="#fff2a3"/><path d="m165.296875 197.183594c-18.121094 0-34.433594 14.660156-36.363281 32.675781l-21.605469 201.640625h22.804687l21.34375-199.222656c.710938-6.617188 7.167969-12.417969 13.820313-12.417969h90.703125v-22.675781zm0 0" fill="#9b918b"/><path d="m278.675781 163.171875v113.378906h-22.675781l-11.339844-56.691406 11.339844-56.6875zm0 0" fill="#7a6c64"/><path d="m233.324219 163.171875h22.675781v113.378906h-22.675781zm0 0" fill="#9b918b"/></svg>