<?xml version="1.0" encoding="iso-8859-1"?>
<!-- Generator: Adobe Illustrator 19.0.0, SVG Export Plug-In . SVG Version: 6.00 Build 0)  -->
<svg version="1.1" id="Capa_1" xmlns="http://www.w3.org/2000/svg" xmlns:xlink="http://www.w3.org/1999/xlink" x="0px" y="0px"
	 viewBox="0 0 512 512" style="enable-background:new 0 0 512 512;" xml:space="preserve">
<circle style="fill:#2864F0;" cx="256" cy="256" r="256"/>
<path style="fill:#0053BF;" d="M259.386,511.957c128.091-1.663,233.48-97.385,250.265-221.268L349.485,130.523L336.19,146.26
	L256,66.07l5.654,185.928L49.846,273.385l81.96,81.96l-17.508,11.524L259.386,511.957z"/>
<polygon style="fill:#FE9A35;" points="384.347,309.386 462.154,273.385 384.347,237.386 397.703,179.902 297.665,231.329 
	349.485,130.523 292,143.878 256,66.07 220,143.878 162.515,130.523 214.335,231.329 114.297,179.902 127.653,237.386 
	49.846,273.385 127.653,309.386 114.298,366.869 242.5,343.112 242.5,441.168 269.5,441.168 269.5,343.112 397.702,366.869 "/>
<polygon style="fill:#FF7C11;" points="462.154,273.385 384.347,237.386 397.703,179.902 297.665,231.329 349.485,130.523 
	292,143.878 256,66.07 256,66.07 255.952,441.168 269.5,441.168 269.5,343.112 397.702,366.869 384.347,309.386 "/>
<g>
</g>
<g>
</g>
<g>
</g>
<g>
</g>
<g>
</g>
<g>
</g>
<g>
</g>
<g>
</g>
<g>
</g>
<g>
</g>
<g>
</g>
<g>
</g>
<g>
</g>
<g>
</g>
<g>
</g>
</svg>
