<svg height="512pt" viewBox="0 0 512 512" width="512pt" xmlns="http://www.w3.org/2000/svg"><path d="m512 256c0 141.386719-114.613281 256-256 256s-256-114.613281-256-256 114.613281-256 256-256 256 114.613281 256 256zm0 0" fill="#d95d27"/><path d="m511.953125 252.234375-141.441406-141.441406-63.574219 63.574219-67-67-46.703125 46.703124 108.292969 108.292969-16.4375 16.4375-153.804688-153.800781-14.355468 14.355469-24.707032-24.710938-17.890625 17.890625 64.648438 64.648438-1.480469 229.207031 83.171875 83.171875c11.550781 1.59375 23.339844 2.4375 35.328125 2.4375 141.386719 0 256-114.613281 256-256 0-1.257812-.03125-2.511719-.046875-3.765625zm0 0" fill="#c7461f"/><path d="m163.925781 437.667969-7.097656-10.644531 7.097656-10.644532c6.023438 0 11.476563-3.636718 13.894531-9.257812l45.355469-104.640625 19.53125 8.46875-45.339843 104.609375c-5.765626 13.417968-18.898438 22.109375-33.441407 22.109375zm0 0" fill="#7a6c64"/><path d="m420.46875 231.53125-12.007812 27.703125h-274.492188v-27.703125zm0 0" fill="#a59d4d"/><path d="m408.460938 259.234375-21.574219 49.773437-82.046875 45.582032-170.871094-74.066406v-21.289063zm0 0" fill="#bfb053"/><path d="m363.15625 437.667969c-41.085938 0-74.511719-33.425781-74.511719-74.511719s33.425781-74.511719 74.511719-74.511719 74.511719 33.425781 74.511719 74.511719-33.425781 74.511719-74.511719 74.511719zm0 0" fill="#593927"/><path d="m363.15625 395.089844c-17.609375 0-31.933594-14.328125-31.933594-31.9375 0-17.605469 14.324219-31.933594 31.933594-31.933594s31.933594 14.328125 31.933594 31.933594c0 17.609375-14.324219 31.9375-31.933594 31.9375zm0 0" fill="#f9963b"/><path d="m138.199219 216.652344h299.46875v21.289062h-299.46875zm0 0" fill="#707741"/><path d="m163.925781 437.667969c-20.054687 0-36.371093-16.316407-36.371093-36.371094v-236.84375c0-17.605469-14.324219-31.933594-31.933594-31.933594h-21.289063v-21.289062h21.289063c29.347656 0 53.222656 23.875 53.222656 53.222656v236.84375c0 8.316406 6.765625 15.082031 15.078125 15.082031v21.289063zm0 0" fill="#9b918b"/><path d="m325.15625 113.359375v74.074219c-51.203125 19.230468-108.378906 1.636718-148.636719-52.785156zm0 0" fill="#eb7330"/><path d="m176.519531 134.648438c40.257813-54.421876 97.433594-72.015626 148.636719-52.78125l-66.769531 52.78125zm0 0" fill="#f9963b"/><path d="m258.382812 134.648438 66.769532-21.289063 66.792968 21.289063c-19.230468 25.996093-42.324218 43.59375-66.785156 52.785156-24.46875-9.191406-47.542968-26.789063-66.777344-52.785156zm0 0" fill="#d95d27"/><path d="m391.945312 134.648438h-133.5625c19.230469-26 42.316407-43.59375 66.769532-52.78125 24.46875 9.1875 47.5625 26.789062 66.792968 52.78125zm0 0" fill="#eb7330"/></svg>