<svg id="Layer_1" enable-background="new 0 0 512 512" height="512" viewBox="0 0 512 512" width="512" xmlns="http://www.w3.org/2000/svg"><path d="m58.867 504.5h-42.822c-.773-9.903-1.18-19.944-1.18-30.105 0-167.276 107.959-302.871 241.135-302.871s241.135 135.595 241.135 302.871c0 10.16-.406 20.202-1.18 30.105h-42.823l-197.132-64.279z" fill="#a29cde"/><path d="m271 172.125c-4.963-.382-9.961-.6-15-.6-133.176 0-241.135 135.595-241.135 302.871 0 10.161.406 20.202 1.18 30.105h30c-.773-9.903-1.18-19.944-1.18-30.105 0-160.947 99.948-292.541 226.135-302.271z" fill="#736acc"/><path d="m453.133 504.5h-394.266c33.376-75.713 109.079-128.557 197.133-128.557s163.757 52.844 197.133 128.557z" fill="#dcdcdc"/><path d="m234.123 79.03 7.98-59.377c.931-6.959 6.869-12.153 13.897-12.153s12.966 5.194 13.898 12.153l4.847 36.102-15.602 32.387z" fill="#ffa841"/><path d="m216.736 213.752c-.129-2.439-.04-4.927.297-7.444l7.99-59.466 29.411-43.043 28.142 10.242 7.752 57.692v.01l-29.412 49.925z" fill="#ffa841"/><path d="m282.576 114.041c-13.858 11.657-33.624 25.138-57.553 32.801l9.1-67.812c15.85-6.275 29.589-14.889 40.622-23.275z" fill="#ffd072"/><path d="m256.644 250.736h-1.289c-20.975-.178-37.509-16.852-38.62-36.984 32.741-8.227 58.604-28.063 73.591-42.01l4.639 34.565c3.134 23.306-14.808 44.221-38.321 44.429z" fill="#ffd072"/><ellipse cx="149.067" cy="329.549" fill="#ffa1ac" rx="31.421" ry="39.456" transform="matrix(.002 -1 1 .002 -180.808 477.894)"/><ellipse cx="362.933" cy="330.017" fill="#ffa1ac" rx="31.421" ry="39.456" transform="matrix(.002 -1 1 .002 32.122 692.227)"/><path d="m179.941 306.146v-16.034c0-4.142-3.358-7.5-7.5-7.5s-7.5 3.358-7.5 7.5v16.034c0 4.143 3.358 7.5 7.5 7.5s7.5-3.358 7.5-7.5z"/><path d="m346.828 306.146v-16.034c0-4.142-3.358-7.5-7.5-7.5s-7.5 3.358-7.5 7.5v16.034c0 4.143 3.358 7.5 7.5 7.5s7.5-3.358 7.5-7.5z"/><path d="m256.128 334.278c16.655 17.316 46.131 5.557 46.131-18.572 0-4.142-3.358-7.5-7.5-7.5s-7.5 3.358-7.5 7.5c0 6.515-5.3 11.815-11.815 11.815s-11.815-5.3-11.815-11.815c0-4.142-3.358-7.5-7.5-7.5s-7.5 3.358-7.5 7.5c0 6.515-5.3 11.815-11.815 11.815s-11.815-5.3-11.815-11.815c0-4.142-3.358-7.5-7.5-7.5s-7.5 3.358-7.5 7.5c-.002 24.119 29.469 35.893 46.129 18.572z"/><path d="m86.578 258.748c-3.291-2.516-7.998-1.887-10.513 1.404-44.302 57.963-68.7 134.049-68.7 214.244 0 10.148.404 20.473 1.202 30.688.305 3.904 3.562 6.916 7.478 6.916h479.91c3.916 0 7.173-3.013 7.477-6.916.798-10.222 1.202-20.547 1.202-30.688 0-74.792-21.585-147.026-60.779-203.394-37.906-54.515-89.727-90.797-146.418-102.667-36.387-270.825 4.073 30.315-20.107-149.68-1.425-10.634-10.595-18.655-21.33-18.655-10.737 0-19.907 8.021-21.331 18.654-9.562 71.128-10.546 78.496-20.102 149.687-43.584 9.121-84.431 32.647-118.434 68.3-2.859 2.998-2.747 7.745.251 10.604 2.997 2.859 7.744 2.747 10.604-.251 30.527-32.007 66.796-53.575 105.451-62.814-2.426 19.574-3.574 22.746-3.193 29.969v.003.014c1.346 24.392 21.474 43.862 46.108 44.071h1.289c27.609 0 49.526-24.899 45.755-52.926l-2.836-21.13c50.898 12.176 97.448 45.725 131.977 95.384 37.463 53.879 58.094 123.071 58.094 194.831 0 7.471-.229 15.048-.68 22.604h-30.99c-9.128-19.604-21.544-38.493-36.728-55.236-1.682-1.854-10.665-11.555-12.909-12.733-3.032-1.578-6.621-.93-8.901 1.453-2.864 2.993-2.759 7.74.234 10.604 16.903 16.175 30.933 34.943 41.604 55.913h-370.537c44.274-86.916 143.158-131.368 237.57-106.948 44.021 11.388 67.207 32.271 71.187 33.603 4.513 1.514 9.228-1.52 9.822-6.153.338-2.638-.739-5.37-3.051-7.042-113.074-81.595-273.143-39.854-332.218 86.539h-30.991c-.452-7.554-.68-15.129-.68-22.604 0-76.921 23.303-149.772 65.617-205.135 2.515-3.291 1.887-7.998-1.404-10.513zm150.605-21.57c-5.853-4.279-10.223-10.545-12.077-17.963 21.841-6.584 42.159-18.446 59.64-32.673l2.787 20.765c3.758 27.949-28.027 46.206-50.35 29.871zm3.798-152.865c15.395-6.566 27.186-14.771 27.985-15.243l5.619 41.826c-12.409 9.997-25.909 18.402-40.468 24.562zm35.911 43.745 5.481 40.791c-16.659 14.959-36.44 27.551-57.394 34.649 1.374-10.224 5.492-40.876 6.858-51.046 16.056-5.738 31.854-14.611 45.055-24.394zm-20.892-113.058c3.254 0 6.032 2.428 6.464 5.648v.003l4.256 31.698c-7.484 5.42-14.791 9.978-23.365 14.292l6.181-45.993c.431-3.22 3.21-5.648 6.464-5.648z"/></svg>