<svg height="512pt" viewBox="0 0 512 512" width="512pt" xmlns="http://www.w3.org/2000/svg"><path d="m512 256c0 141.386719-114.613281 256-256 256s-256-114.613281-256-256 114.613281-256 256-256 256 114.613281 256 256zm0 0" fill="#6c533a"/><path d="m512 256c0-19.007812-2.089844-37.527344-6.019531-55.355469l-85.976563-85.976562-13.335937 13.332031-40.707031-40.707031-44.550782 44.546875 24.40625 24.40625-52.175781 52.175781-120.734375-120.734375-44.546875 44.546875 120.734375 120.734375-157.09375 157.09375 91.511719 91.511719c22.984375 6.773437 47.308593 10.425781 72.488281 10.425781 141.386719 0 256-114.613281 256-256zm0 0" fill="#593927"/><path d="m420 390.78125v19.21875h-164l-19.21875-57.65625zm0 0" fill="#c7a772"/><path d="m256 352.34375v57.65625h-164v-19.21875zm0 0" fill="#e3c281"/><path d="m420 371.5625v19.21875h-164l-19.21875-57.65625zm0 0" fill="#e3c281"/><path d="m256 333.125v57.65625h-164v-19.21875zm0 0" fill="#fedd90"/><path d="m420 205v166.5625h-164l-19.21875-205zm0 0" fill="#fedd90"/><path d="m256 166.5625v205h-164v-166.5625zm0 0" fill="#fff2a3"/><path d="m420 185.78125v19.21875h-164l-19.21875-57.65625zm0 0" fill="#e3c281"/><path d="m256 147.34375v57.65625h-164v-19.21875zm0 0" fill="#fedd90"/><path d="m420 114.671875v71.109375h-164l-21.867188-35.554688 21.867188-35.554687zm0 0" fill="#707741"/><path d="m92 114.671875h164v71.109375h-164zm0 0" fill="#8a8a47"/><path d="m159.265625 82c-10.613281 0-19.21875 8.605469-19.21875 19.21875v49.007812h38.4375v-49.007812c0-10.613281-8.605469-19.21875-19.21875-19.21875zm0 0" fill="#d6d0cd"/><path d="m352.734375 82c-10.613281 0-19.21875 8.605469-19.21875 19.21875v49.007812h38.4375v-49.007812c0-10.613281-8.605469-19.21875-19.21875-19.21875zm0 0" fill="#bdb5b2"/><path d="m292.941406 269.0625v66.867188c-46.21875 17.363281-97.835937 1.480468-134.179687-47.648438zm0 0" fill="#eb7330"/><path d="m158.761719 288.28125c36.34375-49.128906 87.960937-65.011719 134.179687-47.648438l-60.277344 47.648438zm0 0" fill="#f9963b"/><path d="m232.664062 288.28125 60.277344-19.21875 60.296875 19.21875c-17.363281 23.464844-38.207031 39.355469-60.289062 47.648438-22.089844-8.292969-42.921875-24.183594-60.285157-47.648438zm0 0" fill="#d95d27"/><path d="m353.238281 288.28125h-120.574219c17.363282-23.472656 38.199219-39.355469 60.277344-47.648438 22.089844 8.296876 42.933594 24.183594 60.296875 47.648438zm0 0" fill="#eb7330"/></svg>