<?xml version="1.0" encoding="iso-8859-1"?>
<!-- Generator: Adobe Illustrator 19.0.0, SVG Export Plug-In . SVG Version: 6.00 Build 0)  -->
<svg version="1.1" id="Capa_1" xmlns="http://www.w3.org/2000/svg" xmlns:xlink="http://www.w3.org/1999/xlink" x="0px" y="0px"
	 viewBox="0 0 512 512" style="enable-background:new 0 0 512 512;" xml:space="preserve">
<circle style="fill:#2864F0;" cx="256" cy="256" r="256"/>
<path style="fill:#0053BF;" d="M512,256c0-25.392-3.715-49.913-10.6-73.07l-59.916-59.916l-48.368,63.772L339.45,133.12
	l-18.422,106.991L212.431,131.514l37.083,162.399L87.115,131.514L68.417,350.996l-2.901,0.704l158.29,158.29
	c10.546,1.323,21.29,2.01,32.194,2.01C397.385,512,512,397.385,512,256z"/>
<path style="fill:#7AE5FE;" d="M441.484,351.7c-31.334,0-31.334,38.619-62.667,38.619S347.483,351.7,316.15,351.7
	c-31.329,0-31.329,38.619-62.659,38.619S222.161,351.7,190.83,351.7c-31.329,0-31.329,38.619-62.658,38.619
	c-31.328,0-31.328-38.619-62.657-38.619V123.014c31.328,0,31.328,38.619,62.657,38.619s31.329-38.619,62.658-38.619
	c31.33,0,31.33,38.619,62.661,38.619c31.329,0,31.329-38.619,62.659-38.619c31.334,0,31.334,38.619,62.667,38.619
	s31.334-38.619,62.667-38.619L441.484,351.7L441.484,351.7z"/>
<g>
	<path style="fill:#00BED2;" d="M378.817,161.633c-31.334,0-31.334-38.619-62.667-38.619c-30.483,0-31.317,36.548-60.197,38.523
		v228.686c28.881-1.975,29.714-38.523,60.197-38.523c31.333,0,31.333,38.619,62.667,38.619c31.333,0,31.333-38.619,62.667-38.619
		V123.014C410.15,123.014,410.15,161.633,378.817,161.633z"/>
	<path style="fill:#00BED2;" d="M378.817,272.3c-31.334,0-31.334-38.619-62.667-38.619c-31.329,0-31.329,38.619-62.659,38.619
		s-31.33-38.619-62.661-38.619c-31.329,0-31.329,38.619-62.658,38.619c-31.328,0-31.328-38.619-62.657-38.619V351.7
		c31.328,0,31.328,38.619,62.657,38.619S159.501,351.7,190.83,351.7c31.33,0,31.33,38.619,62.661,38.619
		c31.329,0,31.329-38.619,62.659-38.619c31.333,0,31.333,38.619,62.667,38.619c31.333,0,31.333-38.619,62.667-38.619V233.681
		C410.15,233.681,410.15,272.3,378.817,272.3z"/>
</g>
<path style="fill:#0098A0;" d="M378.817,272.3c-31.334,0-31.334-38.619-62.667-38.619c-30.483,0-31.317,36.548-60.197,38.523
	v118.019c28.881-1.975,29.714-38.523,60.197-38.523c31.333,0,31.333,38.619,62.667,38.619c31.333,0,31.333-38.619,62.667-38.619
	V233.681C410.15,233.681,410.15,272.3,378.817,272.3z"/>
<g>
</g>
<g>
</g>
<g>
</g>
<g>
</g>
<g>
</g>
<g>
</g>
<g>
</g>
<g>
</g>
<g>
</g>
<g>
</g>
<g>
</g>
<g>
</g>
<g>
</g>
<g>
</g>
<g>
</g>
</svg>
