<svg id="Layer_1" enable-background="new 0 0 512 512" height="512" viewBox="0 0 512 512" width="512" xmlns="http://www.w3.org/2000/svg"><path d="m411.438 135.908c-3.858-4.024-10.641-2.112-11.838 3.332-.74 3.368-1.757 7.153-3.147 11.015-4.091 11.363-20.364 10.82-23.721-.781-11.169-38.607-41.935-110.96-120.066-141.485-4.612-1.802-9.582 1.597-9.547 6.548.157 22.311-4.758 76.234-52.249 109.014-6.782 4.681-16.171 1.614-18.877-6.17-2.681-7.713-4.78-18.571-3.212-32.154.664-5.749-5.595-9.73-10.547-6.735-32.555 19.692-113.592 82.032-113.592 214.65 0 116.73 94.628 211.358 211.358 211.358s211.358-94.628 211.358-211.358c0-88.112-37.522-138.046-55.92-157.234z" fill="#ffd072"/><path d="m74.642 303.142c0-110.625 56.383-172.34 93.981-201.201-.506-4.99-.552-10.571.158-16.715.664-5.75-5.595-9.73-10.547-6.735-32.555 19.693-113.592 82.033-113.592 214.651 0 98.884 67.911 181.898 159.635 204.972-76.149-31.956-129.635-107.216-129.635-194.972z" fill="#ffa841"/><path d="m264.375 172.864c-4.669-4.528-12.081-4.528-16.75 0-180.551 175.103-132.234 331.636 8.375 331.636s188.926-156.533 8.375-331.636z" fill="#ff5f7f"/><path d="m271 179.392c-2.176-2.173-4.378-4.349-6.625-6.528-4.669-4.528-12.081-4.528-16.75 0-180.551 175.103-132.234 331.636 8.375 331.636 5.126 0 10.126-.214 15-.624-127.16-10.681-166.324-158.404 0-324.484z" fill="#f6375d"/><path d="m88.556 144.225c-3.473-2.257-8.119-1.271-10.376 2.202-27.232 41.907-41.04 91.268-41.04 146.713 0 58.46 22.765 113.42 64.103 154.758s96.298 64.102 154.757 64.102c1.471 0 2.932-.021 4.386-.053 56.818-1.11 110.07-23.748 150.371-64.049 41.338-41.338 64.103-96.298 64.103-154.758 0-39.404-7.309-75.588-21.724-107.547-11.993-26.59-26.35-44.52-36.283-54.879-3.704-3.863-9.205-5.363-14.357-3.915-5.154 1.449-9.07 5.598-10.22 10.829-.78 3.553-1.749 6.945-2.878 10.083-1.099 3.052-3.734 3.307-4.825 3.266-1.091-.035-3.728-.455-4.635-3.59-11.905-41.151-43.917-114.889-124.544-146.389-4.492-1.754-9.541-1.171-13.508 1.558-3.958 2.724-6.301 7.221-6.268 12.03.145 20.634-4.34 71.957-49.01 102.789-1.765 1.219-3.5.919-4.377.633-.876-.287-2.451-1.069-3.154-3.093-3.075-8.847-4.033-18.548-2.845-28.831.637-5.514-1.872-10.804-6.546-13.806-4.69-3.013-10.566-3.092-15.334-.207-14.59 8.825-36.403 24.539-57.466 49.282-2.685 3.154-2.305 7.888.849 10.573 3.154 2.684 7.888 2.305 10.573-.849 19.327-22.703 39.275-37.272 52.903-45.621-1.256 12.145-.013 23.708 3.698 34.385 2.065 5.94 6.68 10.469 12.661 12.425 5.982 1.956 12.383 1.028 17.561-2.545 50.021-34.526 55.536-90.981 55.493-114.48 74.128 29.308 103.804 97.938 114.907 136.316 2.452 8.474 9.739 14.131 18.565 14.414 8.834.282 16.434-4.891 19.418-13.177 1.244-3.455 2.318-7.144 3.198-10.978 16.538 17.516 53.151 65.971 53.151 151.326 0 72.991-38.567 137.133-96.385 173.151 16.82-21.032 25.622-47.94 25.568-78.574-.007-4.138-3.363-7.487-7.5-7.487-.004 0-.009 0-.014 0-4.142.007-7.494 3.371-7.487 7.513.054 31.135-10.057 57.75-29.242 76.968-20.293 20.328-49.498 31.429-84.651 32.236-1.383.026-2.765.051-4.152.051-53.259 0-93.289-23.403-109.826-64.207-12.442-30.702-10.789-68.852 4.782-110.326 17.538-46.713 52.771-96.584 101.891-144.222 1.767-1.714 4.539-1.715 6.307 0 79.665 77.26 104.995 141.086 112.215 181.024.737 4.076 4.639 6.783 8.715 6.046s6.783-4.639 6.046-8.714c-7.611-42.103-34.008-109.09-116.533-189.125-7.624-7.394-19.569-7.393-27.193 0-51.425 49.873-86.917 100.246-105.491 149.718-16.917 45.06-18.522 86.981-4.64 121.232 4.124 10.177 9.633 19.54 16.35 27.925-57.873-36.006-96.483-100.179-96.483-173.211 0-52.495 12.993-99.106 38.618-138.54 2.257-3.473 1.272-8.118-2.202-10.375z"/><path d="m179.412 348.155v13.276c0 4.143 3.358 7.5 7.5 7.5s7.5-3.357 7.5-7.5v-13.276c0-4.142-3.358-7.5-7.5-7.5s-7.5 3.358-7.5 7.5z"/><path d="m317.588 348.155v13.276c0 4.143 3.358 7.5 7.5 7.5s7.5-3.357 7.5-7.5v-13.276c0-4.142-3.358-7.5-7.5-7.5s-7.5 3.358-7.5 7.5z"/><path d="m268.56 356.108c-3.171 3.639-7.749 5.726-12.56 5.726s-9.389-2.087-12.56-5.726c-2.721-3.123-7.459-3.448-10.582-.727s-3.448 7.459-.727 10.582c6.021 6.909 14.72 10.871 23.869 10.871s17.848-3.962 23.869-10.871c2.721-3.123 2.396-7.86-.727-10.582-3.123-2.721-7.861-2.396-10.582.727z"/></svg>