<svg height="512pt" viewBox="0 0 512 512" width="512pt" xmlns="http://www.w3.org/2000/svg"><path d="m512 256c0 141.386719-114.613281 256-256 256s-256-114.613281-256-256 114.613281-256 256-256 256 114.613281 256 256zm0 0" fill="#d95d27"/><path d="m511.757812 266.796875-81.261718-81.257813-3.84375 3.84375-78.113282-78.117187-52.328124 52.328125 33.414062 33.414062-214.175781 214.175782 97.136719 97.132812c14.113281 2.410156 28.613281 3.683594 43.414062 3.683594 137.765625 0 250.097656-108.828125 255.757812-245.203125zm0 0" fill="#c7461f"/><path d="m403.9375 175.324219h-42.910156v39.609375h42.910156v83.507812h-42.910156v39.609375h42.910156c21.785156 0 39.609375-17.824219 39.609375-39.609375v-83.507812c.003906-21.785156-17.820313-39.609375-39.609375-39.609375zm0 0" fill="#fcba66"/><path d="m370.933594 175.324219v235.675781h-127.742188l-39.609375-255.480469zm0 0" fill="#f9963b"/><path d="m243.191406 155.519531v255.480469h-127.742187v-235.675781zm0 0" fill="#fcba66"/><path d="m351.128906 155.519531v235.675781h-107.9375l-39.609375-235.675781zm0 0" fill="#fcba66"/><path d="m135.257812 155.519531h107.933594v235.675781h-107.933594zm0 0" fill="#fedd90"/><path d="m331.320312 155.519531v215.871094h-88.128906l-19.804687-215.871094zm0 0" fill="#eb7330"/><path d="m155.0625 155.519531h88.128906v215.871094h-88.128906zm0 0" fill="#f9963b"/><path d="m277.023438 317.589844h20.464843v20.464844h-20.464843zm0 0" fill="#fedd90"/><path d="m277.023438 277.980469h20.464843v20.464843h-20.464843zm0 0" fill="#fedd90"/><path d="m179.320312 168.722656v66.015625c0 10.9375 8.867188 19.804688 19.804688 19.804688s19.804688-8.867188 19.804688-19.804688v-66.015625zm0 0" fill="#fff2a3"/><path d="m370.933594 162.121094v13.203125h-127.742188l-19.804687-51.164063 19.804687-51.160156c18.5625 0 36.164063 7.382812 49.132813 20.425781 3.078125-.410156 6.1875-.621093 9.289062-.621093 38.226563 0 69.320313 31.09375 69.320313 69.316406zm0 0" fill="#fedd90"/><path d="m243.191406 73v102.324219h-127.742187v-13.203125c0-38.222656 31.09375-69.316406 69.316406-69.316406 3.105469 0 6.214844.210937 9.289063.621093 12.972656-13.042969 30.574218-20.425781 49.136718-20.425781zm0 0" fill="#fff2a3"/></svg>