<svg height="512pt" viewBox="0 0 512 512" width="512pt" xmlns="http://www.w3.org/2000/svg"><path d="m512 256c0 141.386719-114.613281 256-256 256s-256-114.613281-256-256 114.613281-256 256-256 256 114.613281 256 256zm0 0" fill="#d95d27"/><path d="m510.839844 280.34375-213.882813-213.882812-73.289062 4.539062-27 75.503906-44.667969 50.496094-35.753906 19.5-43.226563 199.460938 69.613281 69.609374c34.175782 16.910157 72.65625 26.429688 113.367188 26.429688 133.171875 0 242.578125-101.691406 254.839844-231.65625zm0 0" fill="#c7461f"/><path d="m288.167969 416h-32.167969l-21.445312-96.503906h75.058593zm0 0" fill="#593927"/><path d="m223.832031 416h32.167969v-96.503906h-53.613281zm0 0" fill="#6c533a"/><path d="m256 135.78125-28.59375 102.578125 28.59375 102.582031h107.585938v-205.160156zm0 0" fill="#6c533a"/><path d="m148.414062 135.78125h107.585938v205.160156h-107.585938zm0 0" fill="#707741"/><path d="m315.332031 135.78125-10.722656 7.148438-10.722656-7.148438v-26.449219c0-20.890625-16.996094-37.886719-37.886719-37.886719l-14.296875-10.722656 14.296875-10.722656c32.714844 0 59.332031 26.617188 59.332031 59.332031zm0 0" fill="#bfb053"/><path d="m223.832031 250.15625v112.230469l-75.417969 21.445312-75.414062-21.445312v-112.230469zm0 0" fill="#bfb053"/><path d="m73 362.386719h150.832031v53.613281h-150.832031zm0 0" fill="#dfd17b"/><path d="m191.308594 228.710938v21.445312l-10.722656 7.148438-10.726563-7.148438v-21.445312c0-11.824219-9.621094-21.445313-21.445313-21.445313-11.820312 0-21.441406 9.621094-21.441406 21.445313v21.445312l-10.726562 7.148438-10.722656-7.148438v-21.445312c0-23.648438 19.246093-42.890626 42.890624-42.890626 23.648438 0 42.894532 19.242188 42.894532 42.890626zm0 0" fill="#fff2a3"/><path d="m105.523438 250.15625h21.445312v21.445312h-21.445312zm0 0" fill="#dfd17b"/><path d="m169.859375 250.15625h21.445313v21.445312h-21.445313zm0 0" fill="#dfd17b"/><path d="m439 250.15625v112.230469l-75.414062 21.445312-75.417969-21.445312v-112.230469zm0 0" fill="#a59d4d"/><path d="m288.167969 362.386719h150.832031v53.613281h-150.832031zm0 0" fill="#bfb053"/><path d="m406.476562 228.710938v21.445312l-10.722656 7.148438-10.726562-7.148438v-21.445312c0-11.824219-9.621094-21.445313-21.441406-21.445313-11.824219 0-21.445313 9.621094-21.445313 21.445313v21.445312l-10.726563 7.148438-10.722656-7.148438v-21.445312c0-23.648438 19.246094-42.890626 42.894532-42.890626 23.644531 0 42.890624 19.242188 42.890624 42.890626zm0 0" fill="#dfd17b"/><path d="m320.691406 250.15625h21.445313v21.445312h-21.445313zm0 0" fill="#bfb053"/><path d="m385.027344 250.15625h21.445312v21.445312h-21.445312zm0 0" fill="#bfb053"/><path d="m256 50v21.445312c-20.886719 0-37.886719 17-37.886719 37.886719v26.449219l-10.722656 7.148438-10.722656-7.148438v-26.449219c0-32.71875 26.613281-59.332031 59.332031-59.332031zm0 0" fill="#dfd17b"/><path d="m196.667969 135.78125h21.445312v21.445312h-21.445312zm0 0" fill="#bfb053"/><path d="m293.886719 135.78125h21.445312v21.445312h-21.445312zm0 0" fill="#8a8a47"/></svg>