<?xml version="1.0" encoding="iso-8859-1"?>
<!-- Generator: Adobe Illustrator 19.0.0, SVG Export Plug-In . SVG Version: 6.00 Build 0)  -->
<svg version="1.1" id="Capa_1" xmlns="http://www.w3.org/2000/svg" xmlns:xlink="http://www.w3.org/1999/xlink" x="0px" y="0px"
	 viewBox="0 0 512 512" style="enable-background:new 0 0 512 512;" xml:space="preserve">
<circle style="fill:#7AE5FE;" cx="256" cy="256" r="256"/>
<path style="fill:#00BED2;" d="M59.013,304l207.758,207.758c127.966-5.299,231.673-104.518,243.993-230.55L396.902,167.346
	L59.013,304z"/>
<path style="fill:#FE4A6F;" d="M256,108c-108.466,0-196.448,87.661-196.987,196h393.975C452.448,195.661,364.466,108,256,108z"/>
<path style="fill:#DE1F4B;" d="M256,108c-0.016,0-0.032,0-0.048,0v196h197.035C452.448,195.661,364.466,108,256,108z"/>
<path style="fill:#FFEA3A;" d="M256,148c-86.374,0-156.448,69.752-156.987,156h313.975C412.448,217.752,342.374,148,256,148z"/>
<path style="fill:#FFC855;" d="M256,148c-0.016,0-0.032,0-0.048,0v156h157.035C412.448,217.752,342.374,148,256,148z"/>
<path style="fill:#74D770;" d="M256,192c-62.074,0-112.449,50.053-112.987,112h225.975C368.449,242.053,318.074,192,256,192z"/>
<path style="fill:#2EA840;" d="M256,192c-0.016,0-0.032,0-0.048,0v112h113.035C368.449,242.053,318.074,192,256,192z"/>
<path style="fill:#2864F0;" d="M256,231.5c-40.258,0-72.937,32.37-73.475,72.5h146.949C328.937,263.87,296.258,231.5,256,231.5z"/>
<path style="fill:#1E2D63;" d="M256,231.5c-0.016,0-0.032,0.001-0.048,0.001V304h73.522C328.937,263.87,296.258,231.5,256,231.5z"/>
<path style="fill:#7AE5FE;" d="M256,265c-21.756,0-39.442,17.372-39.975,39h79.949C295.442,282.372,277.756,265,256,265z"/>
<path style="fill:#00BED2;" d="M256,265c-0.016,0-0.032,0.001-0.048,0.001V304h40.022C295.442,282.372,277.756,265,256,265z"/>
<g>
</g>
<g>
</g>
<g>
</g>
<g>
</g>
<g>
</g>
<g>
</g>
<g>
</g>
<g>
</g>
<g>
</g>
<g>
</g>
<g>
</g>
<g>
</g>
<g>
</g>
<g>
</g>
<g>
</g>
</svg>
