<svg height="512pt" viewBox="0 0 512 512" width="512pt" xmlns="http://www.w3.org/2000/svg"><path d="m512 256c0 141.386719-114.613281 256-256 256s-256-114.613281-256-256 114.613281-256 256-256 256 114.613281 256 256zm0 0" fill="#fedd90"/><path d="m442.332031 245.113281-5.640625 5.640625-138.566406-138.570312-45.257812 45.253906 47.734374 47.734375-179.367187 179.367187 52.945313 52.945313-5.390626 5.386719 68.4375 68.441406c6.203126.449219 12.460938.6875 18.773438.6875 123.132812 0 225.945312-86.9375 250.441406-202.773438zm0 0" fill="#fcba66"/><path d="m343.621094 442.332031h-87.621094l-36.394531-43.671875h124.015625zm0 0" fill="#6c533a"/><path d="m256 442.332031h-87.621094v-43.671875h87.621094zm0 0" fill="#707741"/><path d="m234.164062 299.671875 196.253907 21.835937c-15.359375 40.871094-44.878907 75.792969-84.328125 97.621094l-2.46875 1.367188h-87.621094zm0 0" fill="#707741"/><path d="m256 299.671875v120.824219h-87.621094l-2.464844-1.367188c-39.449218-21.828125-68.972656-56.75-84.332031-97.621094zm0 0" fill="#8a8a47"/><path d="m442.332031 245.082031v10.917969c0 14.898438-1.78125 29.542969-5.195312 43.671875h-181.136719v-54.589844zm0 0" fill="#dfd17b"/><path d="m256 299.671875h181.136719c-1.792969 7.429687-4.039063 14.726563-6.71875 21.835937h-163.5zm0 0" fill="#bfb053"/><path d="m256 245.082031v54.589844h-181.136719c-3.414062-14.128906-5.195312-28.773437-5.195312-43.671875v-10.917969zm0 0" fill="#fff2a3"/><path d="m256 299.671875-10.917969 21.835937h-163.5c-2.679687-7.109374-4.929687-14.402343-6.71875-21.835937zm0 0" fill="#dfd17b"/><path d="m313.8125 127.488281c15.425781 15.414063 23.917969 35.957031 23.917969 57.8125 0 21.867188-8.492188 42.398438-23.917969 57.824219-15.445312 15.445312-35.976562 23.945312-57.8125 23.945312l-34.710938-81.765624 34.710938-115.636719zm0 0" fill="#eb7330"/><path d="m198.179688 127.488281c-31.882813 31.878907-31.882813 83.753907 0 115.636719 15.441406 15.445312 35.976562 23.945312 57.820312 23.945312v-21.835937l-34.710938-59.929687 34.710938-84.757813v-30.878906zm0 0" fill="#f9963b"/><path d="m213.617188 142.929688c-11.292969 11.292968-17.511719 26.34375-17.511719 42.378906 0 16.03125 6.21875 31.082031 17.511719 42.375 11.320312 11.320312 26.371093 17.550781 42.382812 17.550781v-144.6875zm0 0" fill="#fcba66"/><path d="m245.082031 244.234375.003907 77.273437h21.835937l-.003906-77.273437-10.917969-6.277344zm0 0" fill="#480306"/><path d="m245.082031 214.226562v30.007813c3.566407.652344 7.214844 1 10.917969 1s7.351562-.347656 10.917969-1v-30.011719zm0 0" fill="#6c533a"/><path d="m282.945312 212.242188c-7.300781 7.296874-16.617187 11.15625-26.9375 11.15625-.007812 0-20.160156-38.09375-20.160156-38.09375l20.152344-53.871094c.007812-.007813 26.945312 26.929687 26.945312 26.929687 7.175782 7.175781 11.128907 16.742188 11.128907 26.9375 0 10.199219-3.953125 19.769531-11.128907 26.941407zm0 0" fill="#fff2a3"/><path d="m256 131.433594v91.964844c-10.320312 0-19.632812-3.859376-26.929688-11.15625-14.855468-14.847657-14.855468-39.023438 0-53.878907zm0 0" fill="#fff"/></svg>