<svg id="Layer_1" enable-background="new 0 0 512 512" height="512" viewBox="0 0 512 512" width="512" xmlns="http://www.w3.org/2000/svg"><ellipse cx="256" cy="420.496" fill="#2ddfb6" rx="192.738" ry="49.573"/><path d="m256 370.922c-106.446 0-192.738 22.195-192.738 49.574 0 5.678 3.722 11.132 10.555 16.212 7.522-25.609 90.69-45.786 192.182-45.786z" fill="#00c070"/><path d="m489.408 178.678c-55.465 4.924-111.903 30.295-156.985 75.309-49.404 49.329-75.238 112.329-76.423 172.78 60.453-1.093 123.492-26.832 172.895-76.161 45.083-45.015 70.539-101.413 75.547-156.871.779-8.626-6.407-15.823-15.034-15.057z" fill="#ff758f"/><path d="m22.592 178.678c55.465 4.924 111.903 30.295 156.985 75.309 49.404 49.329 75.238 112.329 76.423 172.78-60.453-1.093-123.492-26.832-172.895-76.161-45.083-45.015-70.539-101.414-75.547-156.871-.779-8.626 6.407-15.823 15.034-15.057z" fill="#ff758f"/><path d="m332.423 253.987c-49.404 49.329-75.238 112.329-76.423 172.78 26.656-.482 53.814-5.763 80.086-15.739 6.005-5.226 11.84-10.732 17.476-16.544 25.743-26.547 46.161-57.771 60.688-92.804 15.069-36.341 22.712-74.569 22.828-112.279-37.572 12.143-73.777 33.755-104.655 64.586z" fill="#ff5f7f"/><path d="m396.236 116.345c-2.584-8.266-11.979-12.162-19.655-8.15-49.349 25.794-91.764 70.847-116.167 129.697-26.741 64.49-26.474 132.58-4.414 188.875 55.424-24.165 103.796-72.087 130.537-136.577 24.402-58.85 26.314-120.698 9.699-173.845z" fill="#ffa1ac"/><path d="m179.577 253.987c-30.878-30.831-67.083-52.442-104.654-64.586.116 37.71 7.758 75.938 22.827 112.279 14.526 35.033 34.944 66.257 60.688 92.804 5.636 5.812 11.471 11.318 17.476 16.544 26.271 9.976 53.429 15.257 80.086 15.739-1.185-60.451-27.019-123.451-76.423-172.78z" fill="#ff5f7f"/><path d="m115.764 116.345c2.584-8.266 11.979-12.162 19.655-8.15 49.349 25.794 91.764 70.847 116.167 129.697 26.741 64.49 26.474 132.58 4.414 188.875-55.424-24.165-103.796-72.087-130.537-136.577-24.402-58.85-26.314-120.698-9.699-173.845z" fill="#ffa1ac"/><path d="m267.276 47.763c-5.505-7.776-17.046-7.776-22.551 0-35.329 49.906-56.992 117.246-56.992 191.343 0 72.635 20.817 138.777 54.917 188.369 6.446 9.374 20.256 9.374 26.701 0 34.101-49.592 54.917-115.733 54.917-188.369 0-74.098-21.663-141.437-56.992-191.343z" fill="#ffc9d4"/><path d="m157.768 297.28c4.142 0 7.5-3.358 7.5-7.5v-18.876c0-4.142-3.358-7.5-7.5-7.5s-7.5 3.358-7.5 7.5v18.876c0 4.142 3.358 7.5 7.5 7.5z"/><path d="m354.231 297.28c4.142 0 7.5-3.358 7.5-7.5v-18.876c0-4.142-3.358-7.5-7.5-7.5s-7.5 3.358-7.5 7.5v18.876c0 4.142 3.358 7.5 7.5 7.5z"/><path d="m224.447 294.146c7.959 9.133 19.46 14.371 31.553 14.371s23.593-5.238 31.553-14.371c2.721-3.123 2.396-7.86-.727-10.582s-7.86-2.396-10.582.727c-5.11 5.863-12.488 9.226-20.244 9.226s-15.134-3.363-20.244-9.226c-2.722-3.123-7.459-3.448-10.582-.727s-3.448 7.459-.727 10.582z"/><path d="m403.393 114.102c-3.983-12.737-18.48-18.73-30.287-12.558-19.626 10.258-37.912 23.306-54.52 38.859-9.876-35.669-25.13-68.642-45.19-96.978-8.482-11.983-26.31-11.985-34.794 0-20.06 28.336-35.314 61.309-45.19 96.978-16.608-15.553-34.893-28.6-54.519-38.858-11.806-6.172-26.304-.181-30.288 12.558-7.603 24.319-11.306 49.833-11.186 75.632-24.032-10.061-48.926-16.291-74.164-18.532-13.269-1.176-24.367 9.907-23.167 23.203 4.531 50.168 24.588 98.456 58.003 139.643 2.609 3.217 7.332 3.708 10.549 1.099 3.217-2.61 3.709-7.333 1.099-10.549-31.531-38.866-50.45-84.352-54.712-131.543-.357-3.956 2.914-7.266 6.901-6.912 25.937 2.303 51.516 9.096 76.096 20.204 5.632 82.708 50.114 163.21 121.089 209.083-46.989-8.8-92.647-32.445-129.942-69.386-2.943-2.916-7.691-2.893-10.607.05-2.915 2.943-2.892 7.691.051 10.606 8.967 8.883 18.441 17.065 28.323 24.533-25.997 7.893-51.177 20.403-51.177 39.257 0 37.469 100.732 57.074 200.237 57.074 52.094 0 101.158-5.241 138.154-14.756 41.196-10.596 62.083-24.833 62.083-42.317 0-18.852-25.173-31.36-51.165-39.253 10.175-7.69 19.917-16.138 29.122-25.329 23.342-23.308 42.007-49.958 55.474-79.211 1.732-3.762.086-8.217-3.676-9.949-3.763-1.731-8.217-.085-9.949 3.677-33.275 72.273-102.109 129.827-183.159 145.005 70.657-45.598 115.449-126.182 121.09-209.083 24.58-11.107 50.159-17.901 76.096-20.204 3.962-.351 7.261 2.93 6.901 6.912-1.522 16.86-5.007 33.8-10.357 50.348-1.274 3.941.888 8.169 4.829 9.443 3.939 1.274 8.169-.888 9.443-4.829 5.692-17.607 9.401-35.645 11.024-53.613 1.197-13.266-9.868-24.383-23.167-23.203-25.239 2.241-50.132 8.47-74.164 18.532.122-25.8-3.581-51.315-11.184-75.633zm-80.608 43.1c17.191-17.236 36.44-31.478 57.27-42.365 3.531-1.847 7.831-.067 9.022 3.741 30.843 98.653-8.157 213.171-91.666 275.454 23.189-47.649 34.357-101.733 34.357-154.932-.077-1.31.725-39.83-8.983-81.898zm-71.939-105.11c2.517-3.558 7.79-3.558 10.308 0 71.383 100.835 73.708 255.991 8.909 360.55v.001c-2.296 3.705-5.054 7.904-6.892 10.577-2.728 3.968-7.852 4.802-11.613 2.555-2.3-1.374-2.602-2.268-9.662-13.202-64.479-104.113-62.648-259.344 8.95-360.481zm-127.923 66.487c1.182-3.778 5.457-5.603 9.022-3.741 20.83 10.888 40.079 25.129 57.269 42.365-6.283 27.959-8.834 53.665-8.983 81.899 0 54.364 11.63 108.229 34.354 154.925-83.613-62.331-122.473-176.895-91.662-275.448zm318.314 301.911c0 1.507-1.426 15.086-50.82 27.79-35.81 9.211-83.548 14.284-134.418 14.284s-98.607-5.073-134.417-14.284c-49.393-12.704-50.82-26.283-50.82-27.79 0-7.531 16.127-19.017 52.055-28.1 34.458 22.391 73.849 36.837 114.749 40.8 9.501 11.765 27.43 11.692 36.865 0 38.169-3.676 77.952-16.866 114.757-40.798 35.924 9.083 52.049 20.568 52.049 28.098z"/></svg>