<svg height="512pt" viewBox="0 0 512 512" width="512pt" xmlns="http://www.w3.org/2000/svg"><path d="m512 256c0 141.386719-114.613281 256-256 256s-256-114.613281-256-256 114.613281-256 256-256 256 114.613281 256 256zm0 0" fill="#bfb053"/><path d="m319.476562 504.0625c72.414063-18.472656 132.472657-67.824219 165.351563-133.199219l-263.492187-263.492187-21.699219 21.699218-42.644531-42.640624-59.054688 59.054687 196.917969 196.917969-68.519531 68.519531zm0 0" fill="#a59d4d"/><path d="m251.652344 222.347656c0 18.160156 14.78125 32.941406 32.941406 32.941406h43.921875v199.109376c-37.984375 0-73.789063-14.890626-100.820313-41.925782-27.035156-27.03125-41.921874-62.835937-41.921874-100.820312v-89.304688l32.941406-21.960937zm0 0" fill="#907154"/><path d="m251.652344 200.386719v21.960937h-65.878906v-21.960937l32.941406-21.960938zm0 0" fill="#ac8c63"/><path d="m251.652344 178.425781v21.960938h-65.878906v-21.960938l32.941406-21.960937zm0 0" fill="#c7a772"/><path d="m130.871094 79.601562 21.960937 32.941407-21.960937 32.941406h-32.941406v-65.882813zm0 0" fill="#ac8c63"/><path d="m152.832031 79.601562 21.960938 32.941407-21.960938 32.941406h-21.960937v-65.882813zm0 0" fill="#fedd90"/><path d="m251.652344 178.425781h-65.878906c0-18.160156-14.78125-32.941406-32.941407-32.941406v-65.882813c54.492188 0 98.820313 44.332032 98.820313 98.824219zm0 0" fill="#e3c281"/><path d="m328.515625 454.398438c-54.894531 0-99.554687-44.660157-99.554687-99.554688 0-54.898438 44.660156-99.558594 99.554687-99.558594s99.554687 44.660156 99.554687 99.558594c0 54.894531-44.660156 99.554688-99.554687 99.554688zm0 0" fill="#6c533a"/><path d="m406.109375 354.84375c0 42.785156-34.808594 77.59375-77.59375 77.59375v-.164062l-48.3125-77.429688 48.3125-77.597656c42.785156 0 77.59375 34.808594 77.59375 77.597656zm0 0" fill="#480306"/><path d="m328.515625 432.273438v.164062c-42.785156 0-77.59375-34.808594-77.59375-77.59375 0-42.789062 34.808594-77.597656 77.59375-77.597656zm0 0" fill="#593927"/></svg>