<?xml version="1.0" encoding="iso-8859-1"?>
<!-- Generator: Adobe Illustrator 19.0.0, SVG Export Plug-In . SVG Version: 6.00 Build 0)  -->
<svg version="1.1" id="Capa_1" xmlns="http://www.w3.org/2000/svg" xmlns:xlink="http://www.w3.org/1999/xlink" x="0px" y="0px"
	 viewBox="0 0 512 512" style="enable-background:new 0 0 512 512;" xml:space="preserve">
<circle style="fill:#2864F0;" cx="256" cy="256" r="256"/>
<path style="fill:#0053BF;" d="M236.333,83.667l50.083,243.56l129.04,129.041c36.437-29.051,64.777-67.826,81.067-112.409
	L236.333,83.667z"/>
<path style="fill:#7AE5FE;" d="M2.532,292C20.034,416.336,126.836,512,256,512s235.966-95.664,253.468-220H2.532z"/>
<path style="fill:#00BED2;" d="M255.952,292v220c0.016,0,0.032,0,0.048,0c129.164,0,235.966-95.664,253.468-220H255.952z"/>
<polygon style="fill:#FFFFFF;" points="236.333,83.667 319,175 323.667,216.333 413,292.333 368.333,381 257.667,466.333 
	130.333,359.667 131.063,292 105.667,218.333 177,186.333 181,94.333 "/>
<polygon style="fill:#E0E0E0;" points="323.667,216.333 319,175 255.952,105.343 255.952,464.897 257.667,466.333 368.333,381 
	413,292.333 "/>
<polygon style="fill:#CFFFFF;" points="413,292.333 131.063,292 130.333,359.667 257.667,466.333 368.333,381 "/>
<polygon style="fill:#7AE5FE;" points="255.952,292 255.952,464.897 257.667,466.333 368.333,381 413,292.333 "/>
<polygon style="fill:#CFFFFF;" points="236.333,83.667 235.667,173.667 323.667,216.333 319,175 "/>
<polygon style="fill:#9DEDEB;" points="319,175 255.952,105.343 255.952,183.502 323.667,216.333 "/>
<polygon style="fill:#CFFFFF;" points="177,186.333 156.333,245 105.667,218.333 "/>
<g>
</g>
<g>
</g>
<g>
</g>
<g>
</g>
<g>
</g>
<g>
</g>
<g>
</g>
<g>
</g>
<g>
</g>
<g>
</g>
<g>
</g>
<g>
</g>
<g>
</g>
<g>
</g>
<g>
</g>
</svg>
