<svg height="512pt" viewBox="0 0 512 512" width="512pt" xmlns="http://www.w3.org/2000/svg"><path d="m512 256c0 141.386719-114.613281 256-256 256s-256-114.613281-256-256 114.613281-256 256-256 256 114.613281 256 256zm0 0" fill="#6c533a"/><path d="m511.933594 261.21875-184.484375-184.484375-43.828125 43.824219-60.0625-60.0625-53.664063 53.664062 60.0625 60.0625-72.910156 72.910156 57.644531 57.644532-83.652344 83.65625 123.546876 123.546875c.472656.003906.941406.019531 1.414062.019531 139.640625 0 253.152344-111.808594 255.933594-250.78125zm0 0" fill="#593927"/><path d="m223.570312 186.507812-57.273437-68.730468c0-31.582032 25.695313-57.277344 57.273437-57.277344zm0 0" fill="#fcba66"/><path d="m287.71875 186.507812 57.273438-68.730468c0-31.582032-25.691407-57.277344-57.273438-57.277344zm0 0" fill="#f9963b"/><path d="m438.925781 230.105469v11.453125c0 50.875-17.480469 97.933594-50.5625 136.070312-30.796875 35.511719-74 60.796875-121.644531 71.207032l-12.21875 2.664062-45.820312-221.394531zm0 0" fill="#c7461f"/><path d="m255.644531 230.105469-1.144531 221.394531-12.21875-2.664062c-47.644531-10.410157-90.847656-35.695313-121.644531-71.207032-33.074219-38.136718-50.5625-85.1875-50.5625-136.070312v-11.453125zm0 0" fill="#d95d27"/><path d="m234.035156 265.546875 159.070313 22.910156c0 39.695313-13.609375 76.367188-39.359375 106.058594-24.359375 28.09375-58.742188 48.140625-96.800782 56.449219zm0 0" fill="#eb7330"/><path d="m255.644531 265.546875 1.300781 185.417969-2.445312.535156-2.445312-.535156c-38.449219-8.394532-71.5625-27.957032-95.753907-56.566406-24.9375-29.492188-38.117187-66.125-38.117187-105.941407zm0 0" fill="#f9963b"/><path d="m393.105469 186.507812v101.949219h-137.460938l-36.882812-91.070312 68.957031-91.066407h25.203125c44.214844 0 80.183594 35.96875 80.183594 80.1875zm0 0" fill="#f9963b"/><path d="m223.570312 106.320312 32.074219 113.40625v68.726563h-137.460937v-101.949219c0-44.214844 35.96875-80.183594 80.1875-80.183594zm0 0" fill="#fcba66"/><path d="m348.8125 186.507812c0 16.867188-13.675781 30.546876-30.546875 30.546876s-30.546875-13.679688-30.546875-30.546876c0-16.871093 13.675781-30.546874 30.546875-30.546874s30.546875 13.675781 30.546875 30.546874zm0 0" fill="#c7461f"/><path d="m329.722656 186.507812c0 6.324219-5.128906 11.453126-11.457031 11.453126-6.324219 0-11.453125-5.128907-11.453125-11.453126 0-6.328124 5.128906-11.457031 11.453125-11.457031 6.328125 0 11.457031 5.128907 11.457031 11.457031zm0 0" fill="#480306"/><path d="m223.570312 186.507812c0 16.867188-13.675781 30.546876-30.546874 30.546876-16.867188 0-30.546876-13.679688-30.546876-30.546876 0-16.871093 13.679688-30.546874 30.546876-30.546874 16.871093 0 30.546874 13.675781 30.546874 30.546874zm0 0" fill="#d95d27"/><path d="m204.480469 186.507812c0 6.324219-5.128907 11.453126-11.457031 11.453126-6.324219 0-11.453126-5.128907-11.453126-11.453126 0-6.328124 5.128907-11.457031 11.453126-11.457031 6.328124 0 11.457031 5.128907 11.457031 11.457031zm0 0" fill="#593927"/><path d="m244.191406 196.816406h22.910156v57.273438h-22.910156zm0 0" fill="#480306"/><path d="m209.824219 357.1875h22.910156v22.910156h-22.910156zm0 0" fill="#fff2a3"/><path d="m164.003906 311.367188h22.910156v22.910156h-22.910156zm0 0" fill="#fff2a3"/><path d="m278.554688 357.1875h22.910156v22.910156h-22.910156zm0 0" fill="#fcba66"/><path d="m324.375 311.367188h22.910156v22.910156h-22.910156zm0 0" fill="#fcba66"/><path d="m255.644531 219.726562v-113.40625h-32.074219v80.1875c0 18.34375 13.730469 33.21875 32.074219 33.21875zm0 0" fill="#f9963b"/><path d="m255.644531 219.726562v-113.40625h32.074219v80.1875c0 18.34375-13.726562 33.21875-32.074219 33.21875-18.34375 0 0 0 0 0zm0 0" fill="#eb7330"/></svg>