<?xml version="1.0" encoding="iso-8859-1"?>
<!-- Generator: Adobe Illustrator 19.0.0, SVG Export Plug-In . SVG Version: 6.00 Build 0)  -->
<svg version="1.1" id="Capa_1" xmlns="http://www.w3.org/2000/svg" xmlns:xlink="http://www.w3.org/1999/xlink" x="0px" y="0px"
	 viewBox="0 0 512 512" style="enable-background:new 0 0 512 512;" xml:space="preserve">
<circle style="fill:#7AE5FE;" cx="256" cy="256" r="256"/>
<path style="fill:#00BED2;" d="M512,256c0-4.726-0.138-9.419-0.391-14.081l-82.518-82.518L390.9,259.741L277.553,146.394
	L129.051,400.845l110.622,110.622c5.4,0.34,10.841,0.533,16.327,0.533C397.385,512,512,397.385,512,256z"/>
<path style="fill:#DE1F4B;" d="M234.447,373.29l-34.145,28.553c-32.611,27.269-82.5,8.432-88.949-33.586L100.755,299.2
	c-6.264-40.817,33.641-73.337,72.354-58.963l61.338,22.775V373.29z"/>
<path style="fill:#FE4A6F;" d="M234.447,294.156l-41.177,34.432c-39.326,32.885-99.489,10.168-107.265-40.502l-12.781-83.277
	c-7.554-49.222,40.569-88.439,87.253-71.105l73.969,27.465L234.447,294.156L234.447,294.156z"/>
<path style="fill:#B30034;" d="M277.553,373.29l34.145,28.553c32.611,27.269,82.5,8.432,88.949-33.586l10.598-69.057
	c6.264-40.817-33.641-73.337-72.354-58.963l-61.338,22.775L277.553,373.29L277.553,373.29z"/>
<path style="fill:#DE1F4B;" d="M277.553,294.156l41.177,34.432c39.326,32.885,99.489,10.168,107.265-40.502l12.781-83.277
	c7.554-49.222-40.569-88.439-87.253-71.105l-73.969,27.465v132.987H277.553z"/>
<path style="fill:#FFEA3A;" d="M256,400.845L256,400.845c-17.428,0-31.556-14.128-31.556-31.556V169.433
	c0-17.428,14.128-31.556,31.556-31.556l0,0c17.428,0,31.556,14.128,31.556,31.556v199.856
	C287.556,386.717,273.428,400.845,256,400.845z"/>
<path style="fill:#FFC30B;" d="M256,137.877L256,137.877c-0.016,0-0.032,0.001-0.048,0.001v262.966c0.016,0,0.032,0.001,0.048,0.001
	l0,0c17.428,0,31.556-14.128,31.556-31.556V169.434C287.556,152.005,273.428,137.877,256,137.877z"/>
<circle style="fill:#FC6D8F;" cx="145.18" cy="211.51" r="41.32"/>
<circle style="fill:#FE4A6F;" cx="366.82" cy="211.51" r="41.32"/>
<g>
</g>
<g>
</g>
<g>
</g>
<g>
</g>
<g>
</g>
<g>
</g>
<g>
</g>
<g>
</g>
<g>
</g>
<g>
</g>
<g>
</g>
<g>
</g>
<g>
</g>
<g>
</g>
<g>
</g>
</svg>
