<svg id="Layer_1" enable-background="new 0 0 512 512" height="512" viewBox="0 0 512 512" width="512" xmlns="http://www.w3.org/2000/svg"><path d="m154.682 67.872c-51.95 0-94.064 42.114-94.064 94.064s42.114 94.064 94.064 94.064l84.16 40.518 101.379-40.518v-188.128z" fill="#e7896e"/><circle cx="340.221" cy="161.936" fill="#f8cfc5" r="94.064"/><circle cx="340.221" cy="161.936" fill="#e7896e" r="48.374"/><path d="m190.468 256h219.968v188.128h-219.968z" fill="#cb5935"/><path d="m101.564 444.128c-51.95 0-94.064-42.114-94.064-94.064s42.114-94.064 94.064-94.064h88.904v188.128z" fill="#dd6642"/><circle cx="190.468" cy="350.064" fill="#f8cfc5" r="94.064"/><circle cx="190.468" cy="350.064" fill="#dd6642" r="48.374"/><circle cx="410.436" cy="350.064" fill="#f8cfc5" r="94.064"/><circle cx="410.436" cy="350.064" fill="#cb5935" r="48.374"/><path d="m134.595 350.064c0 30.809 25.064 55.874 55.873 55.874s55.874-25.065 55.874-55.874-25.065-55.874-55.874-55.874c-30.809.001-55.873 25.065-55.873 55.874zm96.747 0c0 22.538-18.336 40.874-40.874 40.874s-40.873-18.336-40.873-40.874 18.335-40.874 40.873-40.874c22.538.001 40.874 18.336 40.874 40.874z"/><path d="m340.221 217.81c30.809 0 55.874-25.064 55.874-55.873s-25.065-55.874-55.874-55.874-55.874 25.065-55.874 55.874c0 30.808 25.065 55.873 55.874 55.873zm0-96.747c22.538 0 40.874 18.336 40.874 40.874s-18.336 40.873-40.874 40.873-40.874-18.335-40.874-40.873 18.336-40.874 40.874-40.874z"/><path d="m354.563 350.064c0 30.809 25.065 55.874 55.874 55.874s55.874-25.065 55.874-55.874-25.065-55.874-55.874-55.874-55.874 25.065-55.874 55.874zm96.747 0c0 22.538-18.336 40.874-40.874 40.874s-40.874-18.336-40.874-40.874 18.336-40.874 40.874-40.874 40.874 18.336 40.874 40.874z"/><path d="m102.898 147.125c-4.142 0-7.5 3.358-7.5 7.5v10.325c0 4.143 3.358 7.5 7.5 7.5s7.5-3.357 7.5-7.5v-10.325c0-4.142-3.357-7.5-7.5-7.5z"/><path d="m210.367 172.45c4.142 0 7.5-3.357 7.5-7.5v-10.325c0-4.142-3.358-7.5-7.5-7.5s-7.5 3.358-7.5 7.5v10.325c0 4.143 3.358 7.5 7.5 7.5z"/><path d="m175.727 158.989c-3.123-2.721-7.86-2.396-10.582.727-2.15 2.467-5.253 3.881-8.513 3.881s-6.363-1.415-8.513-3.881c-2.721-3.123-7.459-3.448-10.582-.727s-3.448 7.459-.727 10.582c5 5.737 12.224 9.027 19.821 9.027s14.822-3.29 19.821-9.027c2.723-3.123 2.398-7.861-.725-10.582z"/><path d="m410.436 248.5h-17.15c29.072-17.887 48.499-49.998 48.499-86.564 0-56.002-45.562-101.564-101.564-101.564h-185.538c-56.003 0-101.564 45.562-101.564 101.564 0 36.566 19.427 68.677 48.499 86.564h-.053c-56.003 0-101.565 45.562-101.565 101.564s45.562 101.564 101.564 101.564h308.872c21.337 0 41.76-6.547 59.06-18.932 3.368-2.411 4.144-7.096 1.732-10.464-2.411-3.368-7.096-4.144-10.464-1.732-14.738 10.552-32.141 16.129-50.328 16.129-47.731 0-86.564-38.833-86.564-86.564s38.833-86.564 86.564-86.564 86.564 38.832 86.564 86.563c0 19.544-6.355 37.987-18.379 53.334-2.554 3.261-1.982 7.975 1.279 10.529 3.26 2.554 7.975 1.982 10.529-1.279 14.112-18.012 21.571-39.654 21.571-62.584 0-56.002-45.561-101.564-101.564-101.564zm-342.318-86.564c0-47.731 38.833-86.564 86.564-86.564h132.304c-7.721 4.815-14.435 10.353-20.29 16.497-2.858 2.998-2.744 7.746.254 10.604s7.746 2.744 10.604-.254c16.503-17.312 38.758-26.846 62.667-26.846 47.731 0 86.564 38.833 86.564 86.564 0 47.732-38.833 86.564-86.564 86.564-64.602 0-106.221-68.458-77.273-125.615.585-1.155.843-2.389.808-3.598-.224-7.796-10.721-10.026-14.189-3.179-23.989 47.365-7.096 104.906 37.579 132.393h-132.463c-47.732-.002-86.565-38.834-86.565-86.566zm138.124 103.009c40.914 7.566 70.79 43.451 70.79 85.119 0 42.438-30.702 77.843-71.06 85.171-53.404 9.637-102.067-31.499-102.067-85.171-.001-53.865 48.903-94.94 102.337-85.119zm-68.849 171.683h-35.829c-47.731 0-86.564-38.832-86.564-86.564s38.833-86.564 86.564-86.564h35.829c-29.255 17.986-48.489 50.272-48.489 86.563v.001c0 36.057 18.99 68.387 48.489 86.564zm219.968 0h-113.82c29.894-18.401 48.49-50.947 48.49-86.564-.434-5.655.2-21.434-8.961-41.701-8.335-18.444-22.196-34.2-39.529-44.862h113.819c-64.541 39.71-64.536 133.419.001 173.127z"/></svg>