<svg height="512pt" viewBox="0 0 512 512" width="512pt" xmlns="http://www.w3.org/2000/svg"><path d="m512 256c0 141.386719-114.613281 256-256 256s-256-114.613281-256-256 114.613281-256 256-256 256 114.613281 256 256zm0 0" fill="#d95d27"/><path d="m507.109375 206.019531-108.851563-108.847656-46.101562 46.097656-12.058594-12.058593-247.457031 247.460937 49.476563 49.480469-1.351563 1.351562 80.078125 80.082032c11.496094 1.578124 23.226562 2.414062 35.15625 2.414062 141.386719 0 256-114.613281 256-256 0-17.105469-1.691406-33.816406-4.890625-49.980469zm0 0" fill="#c7461f"/><path d="m161.117188 378.671875h-68.453126v-20.332031l68.453126-20.332032zm0 0" fill="#fff2a3"/><path d="m350.882812 338.007812v40.664063h68.453126v-20.332031zm0 0" fill="#dfd17b"/><path d="m140.785156 83.882812 40.664063 274.457032h-88.785157v-214.84375c0-29.136719 20.699219-53.671875 48.121094-59.613282zm0 0" fill="#dfd17b"/><path d="m419.335938 143.496094v214.84375h-88.785157l40.664063-274.457032c27.421875 5.941407 48.121094 30.476563 48.121094 59.613282zm0 0" fill="#bfb053"/><path d="m316.996094 82.5 20.332031 42.792969-60.996094 304.207031h-20.332031l-47.441406-173.5 47.441406-173.5zm0 0" fill="#707741"/><path d="m256 82.5v347h-20.332031l-60.996094-304.207031 20.332031-42.792969zm0 0" fill="#8a8a47"/><path d="m235.667969 409.167969v20.332031h-94.882813v-20.332031l47.441406-40.664063zm0 0" fill="#fff2a3"/><path d="m371.214844 409.167969v20.332031h-94.882813v-20.332031l47.441407-40.664063zm0 0" fill="#dfd17b"/><path d="m235.667969 378.671875v30.496094h-94.882813v-30.496094l47.441406-40.664063zm0 0" fill="#dfd17b"/><path d="m371.214844 378.671875v30.496094h-94.882813v-30.496094l47.441407-40.664063zm0 0" fill="#bfb053"/><path d="m371.214844 83.882812v294.789063h-94.882813v-233.046875c22.460938 0 40.664063-18.210938 40.664063-40.664062v-22.460938h41.34375c4.410156 0 8.71875.472656 12.875 1.382812zm0 0" fill="#a59d4d"/><path d="m235.667969 145.625v233.046875h-94.882813v-294.789063c4.15625-.90625 8.464844-1.382812 12.875-1.382812h41.34375v22.460938c0 22.453124 18.203125 40.664062 40.664063 40.664062zm0 0" fill="#bfb053"/><g fill="#707741"><path d="m296.664062 188.636719h20.332032v20.332031h-20.332032zm0 0"/><path d="m296.664062 251.980469h20.332032v20.332031h-20.332032zm0 0"/><path d="m296.664062 315.324219h20.332032v20.332031h-20.332032zm0 0"/></g></svg>