<?xml version="1.0" encoding="iso-8859-1"?>
<!-- Generator: Adobe Illustrator 19.0.0, SVG Export Plug-In . SVG Version: 6.00 Build 0)  -->
<svg version="1.1" id="Capa_1" xmlns="http://www.w3.org/2000/svg" xmlns:xlink="http://www.w3.org/1999/xlink" x="0px" y="0px"
	 viewBox="0 0 512 512" style="enable-background:new 0 0 512 512;" xml:space="preserve">
<circle style="fill:#7AE5FE;" cx="256" cy="256" r="256"/>
<path style="fill:#00BED2;" d="M512,256c0-1.293-0.03-2.58-0.049-3.869L395.364,135.544l-20.409,48.27l-76.106-76.106
	L157.536,436.167l74.728,74.728C240.082,511.614,247.995,512,256,512C397.385,512,512,397.385,512,256z"/>
<path style="fill:#DE1F4B;" d="M459.609,281.444c23.226-24.663,20.678-63.844-5.548-85.29l0,0
	c-26.225-21.446-65.134-16.166-84.696,11.493L238.274,393h116.275L459.609,281.444z"/>
<path style="fill:#B30034;" d="M408.052,198.611c12.697-31.408-3.893-66.997-36.112-77.468l0,0
	c-32.219-10.471-66.562,8.564-74.757,41.436L239.74,393h89.732L408.052,198.611z"/>
<path style="fill:#FF6D94;" d="M142.72,207.646c-19.562-27.659-58.47-32.939-84.696-11.493l0,0
	c-26.225,21.446-28.774,60.628-5.548,85.29L157.536,393h116.275L142.72,207.646z"/>
<path style="fill:#FE4A6F;" d="M214.902,162.578c-8.195-32.872-42.538-51.907-74.757-41.436l0,0
	c-32.219,10.471-48.809,46.06-36.112,77.468L182.614,393h89.732L214.902,162.578z"/>
<path style="fill:#FF6D94;" d="M314.289,151.513C316.655,117.718,289.878,89,256,89l0,0c-33.878,0-60.655,28.718-58.288,62.513
	L214.624,393h82.752L314.289,151.513z"/>
<path style="fill:#DE1F4B;" d="M256,89L256,89c-0.016,0-0.032,0.001-0.048,0.001V393h41.424l16.912-241.487
	C316.655,117.718,289.878,89,256,89z"/>
<rect x="157.54" y="393" style="fill:#FE4A6F;" width="197.02" height="43.17"/>
<rect x="255.95" y="393" style="fill:#B30034;" width="98.6" height="43.17"/>
<g>
</g>
<g>
</g>
<g>
</g>
<g>
</g>
<g>
</g>
<g>
</g>
<g>
</g>
<g>
</g>
<g>
</g>
<g>
</g>
<g>
</g>
<g>
</g>
<g>
</g>
<g>
</g>
<g>
</g>
</svg>
