<svg id="Layer_1" enable-background="new 0 0 512 512" height="512" viewBox="0 0 512 512" width="512" xmlns="http://www.w3.org/2000/svg"><path d="m7.5 169.447v-90.69c22.381-11.032 48.619-11.032 71 0 22.381 11.032 48.619 11.032 71 0 22.381-11.032 48.619-11.032 71 0 22.381 11.032 48.619 11.032 71 0 22.381-11.032 48.619-11.032 71 0 22.381 11.032 48.619 11.032 71 0 22.381-11.032 48.619-11.032 71 0v90.69l-54.663 47.401h-359.999z" fill="#91efee"/><path d="m7.5 260.137v-90.69c22.381-11.032 48.619-11.032 71 0 22.381 11.032 48.619 11.032 71 0 22.381-11.032 48.619-11.032 71 0 22.381 11.032 48.619 11.032 71 0 22.381-11.032 48.619-11.032 71 0 22.381 11.032 48.619 11.032 71 0 22.381-11.032 48.619-11.032 71 0v90.69l-54.663 47.401h-359.999z" fill="#00e6e6"/><path d="m7.5 350.827v-90.69c22.381-11.032 48.619-11.032 71 0 22.381 11.032 48.619 11.032 71 0 22.381-11.032 48.619-11.032 71 0 22.381 11.032 48.619 11.032 71 0 22.381-11.032 48.619-11.032 71 0 22.381 11.032 48.619 11.032 71 0 22.381-11.032 48.619-11.032 71 0v90.69l-54.663 47.401h-359.999z" fill="#00bdb9"/><path d="m504.5 350.827c-22.381-11.032-48.619-11.032-71 0-22.381 11.032-48.619 11.032-71 0-22.381-11.032-48.619-11.032-71 0-22.381 11.032-48.619 11.032-71 0-22.381-11.032-48.619-11.032-71 0-22.381 11.032-48.619 11.032-71 0-22.381-11.032-48.619-11.032-71 0v90.69h497z" fill="#00aca7"/><path d="m171.924 129.975v-17.597c0-4.142-3.358-7.5-7.5-7.5s-7.5 3.358-7.5 7.5v17.597c0 4.142 3.358 7.5 7.5 7.5s7.5-3.358 7.5-7.5z"/><path d="m355.076 129.975v-17.597c0-4.142-3.358-7.5-7.5-7.5s-7.5 3.358-7.5 7.5v17.597c0 4.142 3.358 7.5 7.5 7.5s7.5-3.358 7.5-7.5z"/><path d="m256 147.95c11.42 0 22.281-4.946 29.798-13.571 2.721-3.123 2.396-7.86-.727-10.582s-7.861-2.396-10.582.727c-4.667 5.355-11.406 8.427-18.489 8.427s-13.822-3.071-18.489-8.426c-2.721-3.124-7.459-3.449-10.582-.727-3.123 2.721-3.448 7.459-.727 10.582 7.517 8.624 18.377 13.57 29.798 13.57z"/><path d="m507.816 71.999c-24.306-11.979-53.327-11.98-77.632 0-20.154 9.934-44.216 9.934-64.368 0-24.306-11.979-53.327-11.98-77.632 0-20.154 9.934-44.216 9.934-64.368 0-24.306-11.979-53.327-11.98-77.632 0-20.154 9.934-44.216 9.934-64.368 0-24.306-11.98-53.328-11.979-77.632 0-2.561 1.263-4.184 3.871-4.184 6.728v27.439c0 4.142 3.358 7.5 7.5 7.5s7.5-3.358 7.5-7.5v-22.609c19.239-7.99 41.409-7.357 60.184 1.897 24.305 11.981 53.326 11.981 77.632 0 20.152-9.934 44.215-9.934 64.368 0 24.305 11.981 53.326 11.981 77.632 0 20.152-9.934 44.215-9.934 64.368 0 24.305 11.981 53.326 11.981 77.632 0 18.774-9.254 40.945-9.887 60.184-1.897v74.686c-21.819-7.311-46.166-5.737-66.816 4.447-20.154 9.934-44.216 9.934-64.368 0-24.306-11.98-53.327-11.98-77.632 0-20.154 9.934-44.216 9.934-64.368 0-24.306-11.98-53.327-11.98-77.632 0-20.154 9.934-44.216 9.934-64.368 0-16.379-8.074-35.486-10.922-54.131-7.651-4.207.738-8.361 1.781-12.404 3.118-.094.031-.188.055-.282.086v-22.076c0-4.142-3.358-7.5-7.5-7.5s-7.5 3.358-7.5 7.5v305.32c0 4.142 3.358 7.5 7.5 7.5h497c4.142 0 7.5-3.358 7.5-7.5 0-11.236 0-110.638 0-123.573 0-4.142-3.358-7.5-7.5-7.5s-7.5 3.358-7.5 7.5v21.708c-21.887-7.314-46.188-5.722-66.816 4.447-20.503 10.105-44.6 9.744-64.368 0-24.871-12.259-53.931-11.683-77.632 0-20.656 10.181-44.76 9.664-64.368 0-24.871-12.259-53.931-11.683-77.632 0-14.135 6.967-30.192 9.04-45.476 6.234-11.14-2.046-19.068-6.32-18.91-6.242-20.325-10.013-44.518-11.865-66.797-4.439v-74.681c20.114-8.308 42.196-6.975 60.184 1.893 24.197 11.928 53.219 12.034 77.632 0 20.152-9.934 44.214-9.934 64.368 0 24.197 11.928 53.219 12.034 77.632 0 20.152-9.934 44.214-9.934 64.368 0 24.282 11.969 53.304 11.992 77.632 0 18.678-9.208 40.949-9.912 60.184-1.892v22.972c0 4.142 3.358 7.5 7.5 7.5s7.5-3.358 7.5-7.5c0-10.467 0-198.692 0-209.187 0-2.857-1.622-5.465-4.184-6.728zm-355 104.145c20.235-9.97 44.29-9.897 64.368 0 24.305 11.981 53.326 11.981 77.632 0 20.235-9.97 44.29-9.897 64.368 0 23.528 11.598 51.308 11.911 74.936 1.266 10.085-4.543 17.613-8.186 32.479-8.673 10.827-.337 21.261 1.693 30.401 5.515v74.68c-21.053-7.054-45.458-6.079-66.816 4.447-18.169 8.955-39.901 9.981-59.226 2.28-5.857-2.335-6.474-3.307-13.85-5.985-22.387-8.129-47.537-6.838-68.924 3.705-20.098 9.906-44.174 9.954-64.368 0-24.092-11.876-53.159-12.063-77.632 0-20.098 9.906-44.174 9.954-64.368 0-20.37-10.039-44.68-11.864-66.816-4.447v-74.68c18.581-7.77 40.93-7.595 60.184 1.892 24.305 11.981 53.327 11.981 77.632 0zm-137.816 257.842v-78.355c20.171-8.347 42.282-6.932 60.184 1.893 24.243 11.949 53.266 12.01 77.632 0 20.153-9.934 44.216-9.933 64.368 0 24.243 11.949 53.266 12.01 77.632 0 20.153-9.934 44.216-9.933 64.368 0 19.603 9.662 42.959 11.82 64.867 5.064 15.376-4.744 26.865-15.493 54.514-11.885 6.197.811 12.354 2.411 18.435 4.928v78.355z"/></svg>