<?xml version="1.0" encoding="iso-8859-1"?>
<!-- Generator: Adobe Illustrator 19.0.0, SVG Export Plug-In . SVG Version: 6.00 Build 0)  -->
<svg version="1.1" id="Capa_1" xmlns="http://www.w3.org/2000/svg" xmlns:xlink="http://www.w3.org/1999/xlink" x="0px" y="0px"
	 viewBox="0 0 512 512" style="enable-background:new 0 0 512 512;" xml:space="preserve">
<circle style="fill:#2864F0;" cx="256" cy="256" r="256"/>
<path style="fill:#0053BF;" d="M512,256c0-6.013-0.224-11.972-0.631-17.881L373.458,100.208l-8.486,37.358l-34.442-34.441
	l-6.991,6.991l-50.04-50.04l-6.392,133.7l-93.567-93.567l-25.922,50.339l-47.411,22.994l75.596,75.596L60.075,273.5l49.534,49.534
	l-6.484,7.499l25.09,25.09l-28.006,17.837L234.38,511.083C241.51,511.679,248.717,512,256,512C397.385,512,512,397.385,512,256z"/>
<path style="fill:#FFFFFF;" d="M451.925,238.5h-50.584l32.283-32.283l-24.748-24.749L351.843,238.5h-27.544
	c-1.678-6.547-4.285-12.722-7.655-18.395l46.563-46.564h48.584v-35h-38.333v-38.333h-35v48.585l-46.562,46.563
	c-5.672-3.37-11.849-5.977-18.396-7.656v-27.545l57.03-57.031l-24.748-24.749L273.5,110.657V60.076h-35v50.583l-32.283-32.283
	l-24.748,24.749l57.031,57.032v27.544c-6.547,1.678-12.724,4.285-18.396,7.656l-46.563-46.562V100.21h-35v38.333h-38.333v35h48.584
	l46.564,46.563c-3.37,5.672-5.977,11.848-7.655,18.395h-27.545l-57.031-57.031l-24.748,24.749l32.281,32.282H60.075v35h50.584
	l-32.283,32.283l24.748,24.749l57.032-57.032h27.543c1.678,6.548,4.286,12.724,7.656,18.397l-46.561,46.562h-48.587v35h38.333
	v38.333h35v-48.581l46.565-46.566c5.672,3.37,11.847,5.976,18.393,7.654v27.546l-57.03,57.03l24.748,24.749l32.282-32.282v50.582h35
	v-50.583l32.283,32.283l24.748-24.749L273.5,351.844V324.3c6.547-1.678,12.724-4.285,18.396-7.656l46.563,46.562v48.586h35v-38.333
	h38.333v-35h-48.584l-46.564-46.563c3.37-5.672,5.977-11.848,7.655-18.395h27.545l57.031,57.031l24.748-24.749L401.342,273.5h50.583
	L451.925,238.5L451.925,238.5z M256,291.5c-19.575,0-35.5-15.925-35.5-35.5s15.925-35.5,35.5-35.5s35.5,15.925,35.5,35.5
	S275.575,291.5,256,291.5z"/>
<path style="fill:#E0E0E0;" d="M451.925,238.5h-50.584l32.283-32.283l-24.748-24.749L351.843,238.5h-27.544
	c-1.678-6.547-4.285-12.722-7.655-18.395l46.563-46.564h48.584v-35h-38.333v-38.333h-35v48.585l-46.562,46.563
	c-5.672-3.37-11.849-5.977-18.396-7.656v-27.545l57.03-57.031l-24.748-24.749L273.5,110.657V60.076h-17.548v160.426
	c0.016,0,0.031-0.001,0.048-0.001c19.575,0,35.5,15.925,35.5,35.5s-15.925,35.5-35.5,35.5c-0.016,0-0.032-0.001-0.048-0.001v160.426
	H273.5v-50.583l32.283,32.283l24.748-24.749L273.5,351.844V324.3c6.547-1.678,12.724-4.285,18.396-7.656l46.563,46.562v48.586h35
	v-38.333h38.333v-35h-48.584l-46.564-46.563c3.37-5.672,5.977-11.848,7.655-18.395h27.545l57.031,57.031l24.748-24.749
	L401.342,273.5h50.583L451.925,238.5L451.925,238.5z"/>
<g>
</g>
<g>
</g>
<g>
</g>
<g>
</g>
<g>
</g>
<g>
</g>
<g>
</g>
<g>
</g>
<g>
</g>
<g>
</g>
<g>
</g>
<g>
</g>
<g>
</g>
<g>
</g>
<g>
</g>
</svg>
