<svg height="512pt" viewBox="0 0 512 512" width="512pt" xmlns="http://www.w3.org/2000/svg"><path d="m512 256c0 141.386719-114.613281 256-256 256s-256-114.613281-256-256 114.613281-256 256-256 256 114.613281 256 256zm0 0" fill="#bfb053"/><path d="m512 256c0-2.289062-.03125-4.570312-.09375-6.84375l-184.109375-184.113281-79.335937 79.339843 51.550781 51.554688-218.96875 218.964844 78.132812 78.132812c29.871094 12.214844 62.558594 18.964844 96.824219 18.964844 141.386719 0 256-114.613281 256-256zm0 0" fill="#a59d4d"/><path d="m327.757812 126.550781h-75.175781l13.667969-61.507812h61.507812zm0 0" fill="#707741"/><path d="m245.75 65.042969h20.503906v112.765625h-20.503906zm0 0" fill="#bdb5b2"/><path d="m173.304688 239.316406 20.503906 61.507813-112.765625-20.503907v-41.003906zm0 0" fill="#d95d27"/><path d="m430.957031 239.316406v41.003906l-112.765625 20.503907 20.503906-61.507813zm0 0" fill="#c7461f"/><path d="m193.808594 280.320312-20.503906 134.636719h-92.261719v-134.636719zm0 0" fill="#fcba66"/><path d="m430.957031 280.320312v134.636719h-92.261719l-20.503906-134.636719zm0 0" fill="#f9963b"/><path d="m256 157.304688-41.003906 143.519531 82.691406 114.132812h41.007812v-257.652343zm0 0" fill="#fedd90"/><path d="m173.304688 157.304688v257.652343h41.007812l41.6875-114.132812v-143.519531zm0 0" fill="#fff2a3"/><path d="m297.6875 394.453125v20.503906h-41.6875l-20.503906-41.007812zm0 0" fill="#eb7330"/><path d="m116.925781 311.074219h20.5v42.375h-20.5zm0 0" fill="#fff"/><path d="m374.574219 311.074219h20.5v42.375h-20.5zm0 0" fill="#fedd90"/><path d="m256 188.058594c16.984375 0 30.753906 13.769531 30.753906 30.753906 0 16.988281-13.769531 30.753906-30.753906 30.753906l-22.589844-30.753906zm0 0" fill="#6c533a"/><path d="m256 188.058594v61.507812c-16.984375 0-30.753906-13.765625-30.753906-30.753906 0-16.984375 13.769531-30.753906 30.753906-30.753906zm0 0" fill="#707741"/><path d="m256 373.949219v41.007812h-41.6875v-20.503906zm0 0" fill="#f9963b"/><path d="m297.6875 373.949219v20.503906h-41.6875l-20.503906-41.003906zm0 0" fill="#f9963b"/><path d="m256 353.449219v41.003906h-41.6875v-20.503906zm0 0" fill="#fcba66"/><path d="m297.6875 280.320312v93.628907h-41.6875l-20.503906-46.8125 20.503906-46.816407zm0 0" fill="#593927"/><path d="m214.3125 280.320312h41.6875v93.628907h-41.6875zm0 0" fill="#6c533a"/></svg>