<?xml version="1.0" encoding="iso-8859-1"?>
<!-- Generator: Adobe Illustrator 19.0.0, SVG Export Plug-In . SVG Version: 6.00 Build 0)  -->
<svg version="1.1" id="Capa_1" xmlns="http://www.w3.org/2000/svg" xmlns:xlink="http://www.w3.org/1999/xlink" x="0px" y="0px"
	 viewBox="0 0 512 512" style="enable-background:new 0 0 512 512;" xml:space="preserve">
<circle style="fill:#2864F0;" cx="256" cy="256" r="256"/>
<path style="fill:#0053BF;" d="M145.354,397.924l114.033,114.033c123.302-1.601,225.567-90.36,248.012-207.498L458,255.059
	L145.354,397.924z"/>
<polygon style="fill:#DCE6D3;" points="275.796,111.159 138.107,171.204 62.534,281.976 145.354,397.924 372.074,397.924 
	458,255.059 "/>
<g>
	<polygon style="fill:#98B4B6;" points="458,255.059 275.796,111.159 275.667,111.215 275.667,397.924 372.074,397.924 	"/>
	<polygon style="fill:#98B4B6;" points="275.796,111.159 157.777,261.271 257.161,365.831 372.074,397.924 458,255.059 	"/>
</g>
<polygon style="fill:#7D9FA0;" points="458,255.059 275.796,111.159 275.667,111.323 275.667,371 372.074,397.924 "/>
<g>
</g>
<g>
</g>
<g>
</g>
<g>
</g>
<g>
</g>
<g>
</g>
<g>
</g>
<g>
</g>
<g>
</g>
<g>
</g>
<g>
</g>
<g>
</g>
<g>
</g>
<g>
</g>
<g>
</g>
</svg>
