<svg id="Layer_1" enable-background="new 0 0 512 512" height="512" viewBox="0 0 512 512" width="512" xmlns="http://www.w3.org/2000/svg"><path d="m270.475 7.5h-28.951c-9.979 0-17.924 7.388-17.417 16.204.764 13.261 4.944 54.202 20.341 73.575h23.102c15.397-19.373 19.578-60.314 20.341-73.575.509-8.816-7.436-16.204-17.416-16.204z" fill="#cb5935"/><path d="m64.751 229.082c0 169.772 66.113 275.418 191.249 275.418s191.249-105.646 191.249-275.418l-37.52-37.52h-295.279z" fill="#e7896e"/><path d="m94.751 229.083 49.699-37.521h-30l-49.699 37.521c0 169.771 66.113 275.417 191.249 275.417 5.102 0 10.095-.194 15-.542-115.407-8.197-176.249-112.025-176.249-274.875z" fill="#dd6642"/><path d="m450.667 192.286c-18.408-45.609-68.24-116.442-194.667-116.442s-176.259 70.833-194.667 116.442c-7.253 17.972-.71 38.555 15.624 48.987 15.57 9.944 35.496 9.944 51.066 0 15.57-9.944 35.496-9.944 51.066 0 15.57 9.944 35.496 9.944 51.066 0 7.876-5.03 16.867-7.516 25.845-7.457 8.978-.059 17.969 2.427 25.845 7.457 15.57 9.944 35.496 9.944 51.066 0 15.57-9.944 35.496-9.944 51.066 0 15.57 9.944 35.496 9.944 51.066 0 16.333-10.433 22.877-31.015 15.624-48.987z" fill="#dd6642"/><path d="m91.333 207.94c14.981-44.117 50.783-108.089 131.75-130.374-102.39 11.078-145.033 73.299-161.75 114.72-7.253 17.972-.71 38.555 15.624 48.987 4.949 3.161 10.34 5.313 15.89 6.465-5.196-12.036-6.024-26.516-1.514-39.798z" fill="#cb5935"/><ellipse cx="158.798" cy="366.705" fill="#ffa2ae" rx="35.866" ry="28.562"/><ellipse cx="353.202" cy="366.705" fill="#ffa2ae" rx="35.866" ry="28.562"/><path d="m155.129 335.625c0 4.142 3.358 7.5 7.5 7.5s7.5-3.358 7.5-7.5c0-5.278 4.293-9.571 9.571-9.571s9.571 4.294 9.571 9.571c0 4.142 3.358 7.5 7.5 7.5s7.5-3.358 7.5-7.5c0-13.549-11.022-24.571-24.571-24.571s-24.571 11.022-24.571 24.571z"/><path d="m307.728 335.625c0 4.142 3.358 7.5 7.5 7.5s7.5-3.358 7.5-7.5c0-5.278 4.293-9.571 9.571-9.571s9.571 4.294 9.571 9.571c0 4.142 3.358 7.5 7.5 7.5s7.5-3.358 7.5-7.5c0-13.549-11.022-24.571-24.571-24.571s-24.571 11.022-24.571 24.571z"/><path d="m268.454 350.65c-6.586 7.556-18.305 7.577-24.909 0-2.722-3.123-7.459-3.448-10.582-.726s-3.448 7.459-.726 10.582c12.577 14.43 34.962 14.414 47.524 0 2.722-3.123 2.396-7.86-.726-10.582s-7.859-2.397-10.581.726z"/><path d="m397.473 432.277c3.493 2.226 8.129 1.199 10.356-2.294 30.873-48.439 46.646-115.32 46.907-198.793 7.113-12.383 8.532-27.72 2.885-41.712-26.289-65.137-83.863-110.785-169.557-119.544 5.595-20.385 7.057-41.309 7.316-45.8.769-13.374-10.86-24.134-24.905-24.134h-28.951c-14.118 0-25.671 10.823-24.904 24.135.259 4.492 1.721 25.427 7.321 45.82-29.16 2.997-55.532 10.189-78.681 21.517-3.72 1.821-5.26 6.313-3.44 10.033 1.82 3.721 6.313 5.26 10.034 3.44 27.918-13.663 65.128-22.775 112.92-21.467 54.385 1.631 141.767 19.514 178.938 111.614 5.68 14.075.94 30.21-11.359 38.947-12.752 9.043-30.536 9.728-44.339.912-17.712-11.313-40.952-11.617-59.14 0-13.058 8.34-29.933 8.34-42.992 0-17.857-11.405-41.408-11.724-59.764 0-13.058 8.34-29.933 8.34-42.992 0-17.963-11.473-41.178-11.473-59.14 0-13.308 8.499-30.256 8.134-42.992 0-.005-.003-.009-.006-.014-.009-13.161-8.408-18.624-25.151-12.692-39.849 8.547-21.18 25.57-51.37 58.127-74.917 3.356-2.428 4.109-7.116 1.682-10.473-2.428-3.356-7.116-4.11-10.473-1.681-35.451 25.641-53.961 58.449-63.246 81.457-5.647 13.992-4.228 29.33 2.885 41.712.136 42.072 4.328 80.525 12.482 114.308 8.387 34.744 21 64.74 37.489 89.155 34.346 50.854 85.157 77.346 148.766 77.346 54.527 0 99.229-19.133 132.866-56.868 2.756-3.092 2.484-7.833-.608-10.589-3.093-2.757-7.833-2.484-10.589.608-30.668 34.404-71.603 51.849-121.669 51.849-58.763 0-104.632-23.801-136.335-70.742-28.716-42.519-44.899-104.105-47.144-178.923 17.921 11.705 41.404 11.841 59.539.258 13-8.303 29.876-8.376 42.992 0 17.913 11.436 41.146 11.49 59.14 0 12.71-8.118 30.071-8.652 43.616 0 18.046 11.523 41.283 11.402 59.14 0 13.127-8.384 30-8.298 42.992 0 17.904 11.436 41.348 11.591 59.539-.257-2.173 72.263-17.376 132.345-44.298 174.585-2.227 3.493-1.2 8.13 2.292 10.356zm-158.276-363.506c-5.855-19.665-7.347-41.085-7.601-45.499-.235-4.072 3.855-8.272 9.929-8.272h28.951c6.118 0 10.163 4.201 9.929 8.272-.254 4.413-1.747 25.835-7.601 45.499-10.3-.532-22.501-.584-33.607 0z"/></svg>