<svg height="512pt" viewBox="0 0 512 512" width="512pt" xmlns="http://www.w3.org/2000/svg"><path d="m512 256c0 141.386719-114.613281 256-256 256s-256-114.613281-256-256 114.613281-256 256-256 256 114.613281 256 256zm0 0" fill="#fedd90"/><path d="m512 256c0-7.050781-.296875-14.03125-.855469-20.9375l-152.902343-152.902344-214.8125 214.8125 10.765624 10.769532-77.851562 77.851562 119.210938 119.207031c19.382812 4.695313 39.621093 7.199219 60.445312 7.199219 141.386719 0 256-114.613281 256-256zm0 0" fill="#fcba66"/><path d="m387.871094 300.933594 7.753906 57.167968h-139.625v-57.167968zm0 0" fill="#907154"/><path d="m358.222656 82.160156 29.648438 218.773438h-177.605469l45.734375-218.773438zm0 0" fill="#480306"/><path d="m256 300.933594v57.167968h-139.625l7.753906-57.167968zm0 0" fill="#ac8c63"/><path d="m256 82.160156v218.773438h-131.871094l29.648438-218.773438zm0 0" fill="#593927"/><path d="m313.171875 358.101562h-80.039063l22.867188-114.339843h57.171875zm0 0" fill="#fcba66"/><path d="m256 358.101562h-57.171875v-114.339843h57.171875zm0 0" fill="#fff2a3"/><path d="m290.300781 312.367188h-34.300781l-15.246094-22.867188 15.246094-22.871094h34.300781zm0 0" fill="#eb7330"/><path d="m256 312.367188h-34.300781v-45.738282h34.300781zm0 0" fill="#f9963b"/><path d="m451.140625 335.234375v11.433594c0 31.527343-25.648437 57.171875-57.167969 57.171875h-137.972656l-45.734375-41.164063 45.734375-27.441406zm0 0" fill="#480306"/><path d="m256 335.234375v68.605469h-137.972656c-31.519532 0-57.167969-25.644532-57.167969-57.167969v-11.4375zm0 0" fill="#593927"/></svg>