<svg height="512pt" viewBox="0 0 512 512" width="512pt" xmlns="http://www.w3.org/2000/svg"><path d="m512 256c0 141.386719-114.613281 256-256 256s-256-114.613281-256-256 114.613281-256 256-256 256 114.613281 256 256zm0 0" fill="#fcba66"/><path d="m512 256c0-25.214844-3.660156-49.566406-10.453125-72.578125l-86.484375-86.484375-318.121094 318.121094 86.488282 86.488281c23.007812 6.792969 47.359374 10.453125 72.570312 10.453125 141.386719 0 256-114.613281 256-256zm0 0" fill="#f9963b"/><path d="m421.707031 239.609375-81.863281-96.261719-196.496094 196.496094 96.261719 81.863281c41.660156-11.402343 80.90625-34.734375 114.132813-67.964843 33.230468-33.230469 56.5625-72.476563 67.964843-114.132813zm0 0" fill="#8b2613"/><path d="m416.679688 101.601562-1.621094-4.660156-60.8125 60.8125 72.605468 58.195313c6.175782-37.980469 2.714844-77.257813-10.171874-114.347657zm0 0" fill="#c7461f"/><path d="m157.753906 354.246094-60.8125 60.8125 4.660156 1.621094c25.136719 8.730468 51.179688 13.160156 77.398438 13.160156 12.375 0 24.753906-1.003906 36.949219-2.988282zm0 0" fill="#c7461f"/><path d="m85.148438 296.046875c-6.175782 37.980469-2.714844 77.261719 10.171874 114.351563l1.621094 4.664062 60.8125-60.816406zm0 0" fill="#d95d27"/><path d="m272.390625 90.292969c-41.660156 11.402343-80.902344 34.734375-114.132813 67.964843-33.230468 33.230469-56.5625 72.476563-67.964843 114.132813l67.460937 81.855469 196.492188-196.492188zm0 0" fill="#c7461f"/><path d="m296.046875 85.148438c12.195313-1.984376 24.578125-2.988282 36.953125-2.988282 26.21875 0 52.257812 4.433594 77.398438 13.160156l4.660156 1.621094-60.8125 60.8125s-62.257813-71.945312-58.199219-72.605468zm0 0" fill="#d95d27"/><path d="m299.214844 198.378906 14.40625 14.402344-100.835938 100.835938-14.40625-14.40625zm0 0" fill="#d95d27"/><path d="m421.695312 239.605469-74.652343-74.652344-2.398438-16.804687 16.804688 2.402343 65.398437 65.398438c-.652344 4.054687-1.421875 8.085937-2.300781 12.105469-.84375 3.871093-1.792969 7.71875-2.851563 11.550781zm0 0" fill="#fedd90"/><path d="m361.449219 150.550781-14.40625 14.40625-74.652344-74.652343c3.832031-1.058594 7.683594-2.007813 11.554687-2.851563 4.019532-.878906 8.050782-1.648437 12.101563-2.304687zm0 0" fill="#fff2a3"/><path d="m239.605469 421.695312-74.652344-74.652343-16.804687-2.398438 2.402343 16.804688 65.398438 65.398437c4.054687-.652344 8.085937-1.421875 12.105469-2.300781 3.871093-.84375 7.71875-1.792969 11.550781-2.851563zm0 0" fill="#fedd90"/><path d="m150.550781 361.449219 14.40625-14.40625-74.652343-74.652344c-1.058594 3.832031-2.007813 7.683594-2.851563 11.554687-.878906 4.019532-1.648437 8.050782-2.304687 12.101563zm0 0" fill="#fff2a3"/><path d="m313.621094 241.59375-14.40625 14.40625-21.605469-21.605469-2.402344-16.808593 16.804688 2.402343zm0 0" fill="#fff2a3"/><path d="m255.996094 212.785156 14.40625-14.40625 21.605468 21.609375-14.402343 14.40625zm0 0" fill="#fff"/><path d="m284.808594 270.40625-14.402344 14.402344-21.609375-21.605469-2.398437-16.804687 16.804687 2.398437zm0 0" fill="#fff2a3"/><path d="m227.1875 241.59375 14.402344-14.402344 21.609375 21.605469-14.40625 14.40625zm0 0" fill="#fff"/><path d="m256 299.214844-14.40625 14.40625-21.605469-21.609375-2.402343-16.804688 16.808593 2.402344zm0 0" fill="#fff2a3"/><path d="m198.375 270.40625 14.40625-14.40625 21.609375 21.605469-14.40625 14.40625zm0 0" fill="#fff"/></svg>