<?xml version="1.0" encoding="iso-8859-1"?>
<!-- Generator: Adobe Illustrator 19.0.0, SVG Export Plug-In . SVG Version: 6.00 Build 0)  -->
<svg version="1.1" id="Capa_1" xmlns="http://www.w3.org/2000/svg" xmlns:xlink="http://www.w3.org/1999/xlink" x="0px" y="0px"
	 viewBox="0 0 512 512" style="enable-background:new 0 0 512 512;" xml:space="preserve">
<circle style="fill:#7AE5FE;" cx="256" cy="256" r="256"/>
<path style="fill:#00BED2;" d="M512,256c0-6.571-0.25-13.083-0.736-19.529L397.209,122.416l-16.939,37.239l-80.108-80.107
	L85.538,305.528l68.648,68.648l-38.427,16.528l120.55,120.55C242.808,511.748,249.375,512,256,512C397.385,512,512,397.385,512,256z
	"/>
<path style="fill:#FE4A6F;" d="M193.03,124.429c0-34.777,28.193-62.97,62.97-62.97s62.97,28.193,62.97,62.97
	S290.777,235.874,256,235.874S193.03,159.207,193.03,124.429z"/>
<path style="fill:#DE1F4B;" d="M256,61.459c-0.016,0-0.032,0.001-0.048,0.001v174.411c0.016,0,0.032,0.002,0.048,0.002
	c34.777,0,62.97-76.667,62.97-111.445C318.97,89.652,290.777,61.459,256,61.459z"/>
<path style="fill:#FE4A6F;" d="M318.97,387.571c0,34.777-28.193,62.97-62.97,62.969c-34.777,0-62.97-28.193-62.97-62.97
	S221.223,276.126,256,276.126S318.97,352.794,318.97,387.571z"/>
<g>
	<path style="fill:#DE1F4B;" d="M256,276.126c-0.016,0-0.032,0.002-0.048,0.002v174.411c0.016,0,0.032,0.001,0.048,0.001
		c34.777,0,62.97-28.192,62.97-62.969S290.777,276.126,256,276.126z"/>
	<path style="fill:#DE1F4B;" d="M387.571,193.03c34.777,0,62.97,28.193,62.97,62.97s-28.193,62.97-62.97,62.97
		S276.126,290.777,276.126,256S352.793,193.03,387.571,193.03z"/>
</g>
<path style="fill:#FE4A6F;" d="M124.429,318.97c-34.777,0-62.97-28.193-62.969-62.97s28.193-62.97,62.97-62.97
	S235.874,221.223,235.874,256S159.206,318.97,124.429,318.97z"/>
<path style="fill:#B30034;" d="M304.508,118.439c24.591-24.591,64.461-24.591,89.053,0s24.591,64.461,0,89.053
	c-24.591,24.591-98.738,58.868-123.329,34.277S279.917,143.03,304.508,118.439z"/>
<g>
	<path style="fill:#DE1F4B;" d="M207.492,393.561c-24.591,24.591-64.461,24.591-89.052,0s-24.591-64.462,0-89.053
		s98.738-58.868,123.329-34.277S232.083,368.97,207.492,393.561z"/>
	<path style="fill:#DE1F4B;" d="M118.439,207.492c-24.591-24.591-24.591-64.461,0-89.053s64.461-24.591,89.053,0
		s58.868,98.738,34.277,123.329S143.03,232.083,118.439,207.492z"/>
</g>
<path style="fill:#B30034;" d="M393.561,304.508c24.591,24.591,24.591,64.461,0,89.052s-64.462,24.591-89.053,0
	s-58.868-98.738-34.277-123.329S368.97,279.917,393.561,304.508z"/>
<circle style="fill:#FFEA3A;" cx="256" cy="256" r="59.33"/>
<path style="fill:#FFC30B;" d="M256,196.667c-0.016,0-0.032,0.001-0.048,0.001v118.664c0.016,0,0.032,0.001,0.048,0.001
	c32.769,0,59.333-26.564,59.333-59.333S288.769,196.667,256,196.667z"/>
<g>
</g>
<g>
</g>
<g>
</g>
<g>
</g>
<g>
</g>
<g>
</g>
<g>
</g>
<g>
</g>
<g>
</g>
<g>
</g>
<g>
</g>
<g>
</g>
<g>
</g>
<g>
</g>
<g>
</g>
</svg>
