<svg id="Layer_1" enable-background="new 0 0 512 512" height="512" viewBox="0 0 512 512" width="512" xmlns="http://www.w3.org/2000/svg"><path d="m473.56 249.125c86.55 69.773-24.517 183.816-136.023 205.953v-58.564z" fill="#ffaa78"/><path d="m38.44 249.125c-86.55 69.773 24.517 183.816 136.023 205.953v-58.564z" fill="#ffaa78"/><g fill="#ff8c46"><path d="m401.517 126.801c192.546-4.011 23.221 234.432-80.688 308.994l-81.747 3.202z"/><path d="m147.617 378.414c-10.406 13.755-16.892 29.069-18.755 44.288-.757 6.187-.582 12.407.422 18.498 14.717 6.109 29.943 10.853 45.179 13.878v-58.564l-22.103-23.951c-1.643 1.896-3.226 3.845-4.743 5.851z"/><path d="m110.483 126.801c-192.545-4.011-23.221 234.432 80.688 308.994l81.747 3.202z"/></g><path d="m310.784 68.803c181.286-65.001 96.528 214.895 21.706 318.617l-76.49 29.018z" fill="#ffaa78"/><path d="m272.919 438.997-54.899-105.515c-28.927 7.197-53.59 22.71-70.402 44.932-3.008 3.976-5.677 8.085-8.013 12.281 17.7 17.973 35.423 33.515 51.568 45.1z" fill="#ff7013"/><path d="m201.216 68.803c-181.286-65.001-96.528 214.895-21.706 318.617l76.49 29.018z" fill="#ffaa78"/><path d="m179.51 387.42 76.49 29.018-13.7-86.933c-30.94 2.581-58.579 13.905-79.358 32.359 5.504 9.332 11.062 17.924 16.568 25.556z" fill="#ff8c46"/><path d="m325.646 111.811c0 38.464-31.181 304.627-69.646 304.627s-69.646-266.163-69.646-304.627 31.182-69.646 69.646-69.646 69.646 31.181 69.646 69.646z" fill="#ff8c46"/><path d="m337.537 455.078c15.236-3.025 30.463-7.769 45.179-13.878 1.004-6.091 1.18-12.312.422-18.499-1.863-15.218-8.349-30.532-18.755-44.287-1.517-2.005-3.1-3.955-4.743-5.85l-22.103 23.951z" fill="#ff8c46"/><path d="m293.981 333.482-54.899 105.515 81.747-3.202c16.144-11.584 33.868-27.127 51.568-45.1-2.336-4.196-5.005-8.305-8.013-12.281-16.813-22.222-41.476-37.735-70.403-44.932z" fill="#ff7013"/><path d="m256 416.438 76.49-29.018c5.505-7.632 11.064-16.224 16.567-25.556-20.778-18.454-48.418-29.778-79.358-32.359z" fill="#ff8c46"/><path d="m294.172 333.53c-12.067-3.02-24.873-4.601-38.172-4.601-13.298 0-26.105 1.581-38.172 4.601 10.963 47.173 24.078 82.908 38.172 82.908s27.209-35.735 38.172-82.908z" fill="#ff7013"/><path d="m256 451.242c-27.378 0-39.696 8.213-46.851 13.141-8.987 6.19-19.253 7.463-28.872 1.98-13.238-7.546-23.709-23.104-21.638-40.017 1.356-11.079 6.478-21.342 12.902-29.833 20.364-26.915 53.661-37.585 84.459-37.585s64.095 10.67 84.459 37.585c6.424 8.491 11.545 18.754 12.902 29.833 2.071 16.912-8.4 32.47-21.638 40.017-9.619 5.483-19.884 4.21-28.872-1.98-7.155-4.928-19.473-13.141-46.851-13.141z" fill="#ffaa78"/><path d="m155.943 240.019c4.142 0 7.5-3.358 7.5-7.5v-19.227c0-4.142-3.358-7.5-7.5-7.5s-7.5 3.358-7.5 7.5v19.227c0 4.143 3.358 7.5 7.5 7.5z"/><path d="m356.057 240.019c4.142 0 7.5-3.358 7.5-7.5v-19.227c0-4.142-3.358-7.5-7.5-7.5s-7.5 3.358-7.5 7.5v19.227c.001 4.143 3.358 7.5 7.5 7.5z"/><path d="m282.543 238.125c2.721-3.123 2.396-7.86-.727-10.581s-7.86-2.396-10.581.727c-8.054 9.242-22.395 9.268-30.471 0-2.721-3.122-7.458-3.447-10.581-.727-3.122 2.721-3.448 7.458-.727 10.581 14.047 16.118 39.055 16.102 53.087 0z"/><path d="m2.125 326.145c6.308 28.049 26.912 57.404 58.017 82.658 29.377 23.851 65.249 41.878 101.294 50.992 13.589 17.138 33.398 23.56 51.97 10.768 6.417-4.42 17.157-11.817 42.594-11.817 25.438 0 36.177 7.397 42.594 11.817 18.498 12.74 38.311 6.457 51.97-10.768 36.046-9.114 71.918-27.141 101.294-50.992 31.104-25.254 51.709-54.609 58.017-82.658 6.755-30.035-2.668-57.281-27.248-79.128 15.318-36.494 18.218-66.085 8.601-87.977-9.82-22.354-31.919-35.399-65.724-38.837-2.117-18.711-7.428-33.834-15.899-45.091-9.503-12.629-22.769-20.246-39.429-22.64-15.879-2.28-35.046.283-57.026 7.609-14.124-15.582-34.513-25.385-57.15-25.385-22.638 0-43.028 9.804-57.153 25.387-38.285-12.767-67.619-10.995-87.228 5.306-13.849 11.513-22.255 30.079-25.081 54.813-36.122 3.657-58.829 18.206-67.52 43.314-7.947 22.959-2.711 52.293 10.378 83.48-24.597 21.849-34.028 49.104-27.271 79.149zm67.47 71.013c-28.5-23.14-47.265-49.529-52.837-74.305-5.232-23.261 1.205-43.887 19.135-61.435 26.072 53.677 72.445 111.727 117.695 153.194-2.89 9.097-3.676 17.865-1.32 27.017-29.568-9.322-58.451-24.805-82.673-44.471zm258.408 62.693c-8.373 4.774-15.988 1.743-20.901-1.642-7.338-5.054-20.998-14.463-51.102-14.463-30.103 0-43.763 9.409-51.102 14.463-4.913 3.384-12.526 6.416-20.901 1.642-10.437-5.949-18.654-17.994-18.077-30.456.208-4.568 1.676-10.841 4.798-17.296 12.483-25.807 44.704-47.037 89.472-45.585 54.81 1.829 86.646 38.864 85.908 65.004-.397 12.568-9.223 23.276-18.095 28.333zm98.5-324.451c26.597 3.189 43.735 13.151 50.993 29.672 7.995 18.199 4.613 45.411-9.782 78.693-14.791 34.205-38.561 69.229-62.093 98.367-2.115 2.619-2.179 6.228-.399 8.885 2.796 4.18 8.88 4.491 12.07.541 27.336-33.859 46.737-65.181 58.816-90.137 62.068 60.749-25.414 151.523-116.379 180.209 2.323-9.025 1.579-17.907-1.321-27.024 13.824-12.656 27.356-26.56 39.67-40.391 3.162-3.552 2.26-9.104-1.851-11.483-3.017-1.753-6.951-1.206-9.362 1.502-11.581 13.006-23.307 25.047-34.958 35.936-2.815-4.798-6.19-9.372-9.768-13.43 42.68-62.072 85.677-173.906 84.364-251.34zm-103.955-62.589c35.882-11.023 61.115-7.23 75.072 11.319 40.699 54.087-14.563 215.465-66.436 292.056-9.647-7.882-21.629-14.457-35.267-18.784 20.27-74.788 38.728-220.233 37.098-249.853-.669-12.372-4.228-24.171-10.467-34.738zm-66.548-23.116c20.25 0 38.264 9.74 49.616 24.777.094.125.188.249.281.373.542.729 1.07 1.468 1.58 2.221.017.024.034.049.051.073 5.269 7.801 8.6 16.559 9.912 25.372 4.226 27.953-17.106 181.526-36.077 251.25-17.097-3.213-34.909-2.972-50.726 0-5.775-21.245-10.674-44.81-14.66-66.394-5.191-28.121-25.539-157.353-21.389-185.049 1.424-9.22 4.933-17.926 9.936-25.254 11.27-16.623 30.23-27.369 51.476-27.369zm-222.808 118.727c6.416-18.536 23.993-29.624 52.301-33.021-.343 15.674 1.239 32.395 3.797 48.188.707 4.365 5.03 7.201 9.354 6.043 3.674-.982 6.08-4.608 5.459-8.442-5.266-32.499-8.219-83.213 17.105-104.266 14.636-12.167 37.565-13.54 68.245-4.112-6.24 10.567-9.798 22.367-10.468 34.738-1.547 28.139 15.788 169.94 37.098 249.854-12.558 3.984-24.723 10.18-35.261 18.78-30.599-45.245-57.843-111.626-70.906-166.236-.784-3.274-3.604-5.527-6.796-5.739-5.015-.339-8.98 4.293-7.798 9.23 13.553 56.644 42.367 126.575 74.539 173.305-3.514 3.978-6.922 8.575-9.772 13.436-42.689-39.833-89.908-99.027-114.033-152.441-14.847-32.887-19.427-60.356-12.864-79.317z"/></svg>