<svg id="Layer_1" enable-background="new 0 0 512 512" height="512" viewBox="0 0 512 512" width="512" xmlns="http://www.w3.org/2000/svg"><path d="m235.724 176.88-.034-.05c-4.882-7.126-5.598-16.313-1.878-24.109l.011-.022c5.757-12.068.642-26.518-11.425-32.277-7.812-3.728-13.04-11.344-13.711-19.974-1.037-13.33-12.683-23.297-26.013-22.263l-.025.002c-8.612.668-16.928-3.302-21.823-10.419l-.035-.05c-7.568-11.003-22.616-13.801-33.634-6.253l-.05.034c-7.126 4.882-16.313 5.598-24.109 1.879l-.022-.011c-12.068-5.757-26.518-.642-32.277 11.425-3.729 7.812-11.344 13.04-19.974 13.711-13.33 1.037-23.297 12.683-22.263 26.013l.002.026c.668 8.612-3.302 16.927-10.419 21.823l-.05.035c-11.003 7.568-13.801 22.616-6.253 33.634l.035.05c4.882 7.126 5.598 16.313 1.879 24.109l-.011.022c-5.76 12.067-.645 26.517 11.422 32.276 7.812 3.729 13.04 11.344 13.711 19.974 1.037 13.33 12.683 23.297 26.013 22.263l.026-.002c8.612-.668 16.928 3.302 21.823 10.419l.035.05c7.568 11.003 22.616 13.801 33.634 6.253l.05-.034c7.126-4.882 16.313-5.598 24.109-1.879l.022.011c12.068 5.757 26.518.642 32.277-11.425 3.728-7.812 11.344-13.04 19.974-13.711 13.33-1.037 23.297-12.683 22.263-26.013l-.002-.026c-.668-8.612 3.302-16.928 10.419-21.823l.05-.035c11.003-7.568 13.801-22.616 6.253-33.633z" fill="#968fa4"/><path d="m95.459 160.155c-24.13 28.442-41.867 62.693-51.862 99.019 4.811 6.36 12.654 10.217 21.195 9.554l.026-.002c8.612-.668 16.927 3.302 21.823 10.419l.035.05c7.568 11.003 22.616 13.801 33.634 6.253l.05-.034c7.126-4.882 16.313-5.598 24.109-1.878l.022.01c12.068 5.757 26.518.642 32.277-11.425 3.728-7.812 11.344-13.04 19.974-13.711 13.33-1.037 23.297-12.683 22.263-26.013l-.002-.026c-.668-8.612 3.302-16.927 10.419-21.823l.05-.035c11.003-7.568 13.801-22.616 6.253-33.634l-.034-.05c-4.882-7.126-5.598-16.313-1.879-24.109l.011-.022c5.757-12.068.642-26.518-11.425-32.277-7.812-3.729-13.04-11.344-13.711-19.974-.315-4.046-1.612-7.779-3.632-10.992-41.529 10.864-79.346 35.045-109.596 70.7z" fill="#7a738d"/><circle cx="123.732" cy="173.456" fill="#dcdcdc" r="55.312"/><path d="m276.276 176.88.034-.05c4.882-7.126 5.598-16.313 1.879-24.109l-.011-.022c-5.757-12.068-.642-26.518 11.425-32.277 7.812-3.728 13.04-11.344 13.711-19.974 1.037-13.33 12.683-23.297 26.013-22.263l.025.002c8.612.668 16.928-3.302 21.823-10.419l.035-.05c7.568-11.003 22.616-13.801 33.634-6.253l.05.034c7.126 4.882 16.313 5.598 24.109 1.879l.022-.011c12.068-5.757 26.518-.642 32.277 11.425 3.729 7.812 11.344 13.04 19.974 13.711 13.33 1.037 23.297 12.683 22.263 26.013l-.002.026c-.668 8.612 3.302 16.927 10.419 21.823l.05.035c11.003 7.568 13.801 22.616 6.253 33.634l-.035.05c-4.882 7.126-5.598 16.313-1.879 24.109l.011.022c5.757 12.068.642 26.518-11.425 32.277-7.812 3.729-13.04 11.344-13.711 19.974-1.037 13.33-12.683 23.297-26.013 22.263l-.026-.002c-8.612-.668-16.927 3.302-21.823 10.419l-.035.05c-7.568 11.003-22.616 13.801-33.634 6.253l-.05-.034c-7.126-4.882-16.313-5.598-24.109-1.879l-.022.011c-12.068 5.757-26.518.642-32.277-11.425-3.728-7.812-11.344-13.04-19.974-13.711-13.33-1.037-23.297-12.683-22.263-26.013l.002-.026c.668-8.612-3.302-16.928-10.419-21.823l-.05-.035c-11.001-7.569-13.799-22.617-6.251-33.634z" fill="#968fa4"/><path d="m416.541 160.155c-30.25-35.655-68.067-59.836-109.595-70.7-2.02 3.213-3.317 6.946-3.632 10.992-.671 8.63-5.899 16.245-13.711 19.974-12.067 5.759-17.182 20.209-11.425 32.277l.011.022c3.719 7.796 3.003 16.983-1.878 24.109l-.034.05c-7.547 11.017-4.75 26.065 6.253 33.634l.05.035c7.117 4.895 11.087 13.211 10.419 21.823l-.002.026c-1.034 13.331 8.932 24.976 22.263 26.013 8.63.672 16.245 5.899 19.974 13.711 5.759 12.067 20.209 17.182 32.277 11.425l.022-.01c7.796-3.719 16.983-3.003 24.109 1.878l.05.034c11.017 7.547 26.065 4.75 33.634-6.253l.035-.05c4.895-7.117 13.211-11.087 21.823-10.419l.026.002c8.54.663 16.384-3.194 21.194-9.554-9.996-36.326-27.733-70.577-51.863-99.019z" fill="#7a738d"/><circle cx="388.268" cy="173.456" fill="#dcdcdc" r="55.312"/><path d="m440.038 192.943c-6.966-11.564-14.815-22.554-23.497-32.788-13.164-15.516-27.762-28.858-43.473-39.878-23.153 6.606-40.111 27.906-40.111 53.179 0 30.548 24.764 55.312 55.312 55.312 23.686 0 43.886-14.895 51.769-35.825z" fill="#bab8bf"/><path d="m95.459 160.155c-8.682 10.234-16.532 21.224-23.497 32.788 7.883 20.93 28.083 35.825 51.77 35.825 30.548 0 55.312-24.764 55.312-55.312 0-25.274-16.958-46.573-40.111-53.179-15.712 11.019-30.31 24.362-43.474 39.878z" fill="#bab8bf"/><path d="m447.739 327.32c0 108.157-80.285 127.457-191.739 127.457s-191.739-19.3-191.739-127.457 80.285-214.396 191.739-214.396 191.739 106.239 191.739 214.396z" fill="#a49eaf"/><ellipse cx="145.12" cy="305.881" fill="#ffa1ac" rx="32.581" ry="40.913" transform="matrix(.002 -1 1 .002 -161.078 450.33)"/><ellipse cx="366.88" cy="306.366" fill="#ffa1ac" rx="32.581" ry="40.913" transform="matrix(.002 -1 1 .002 59.712 672.575)"/><path d="m256 329.814c-32.574 0-45.952-13.183-45.952-28.817 0-52.508 13.998-71.769 45.952-71.769s45.952 19.261 45.952 71.769c0 15.634-13.378 28.817-45.952 28.817z" fill="#5d576f"/><path d="m161.846 264.978v16.628c0 4.142 3.358 7.501 7.501 7.501s7.501-3.358 7.501-7.501v-16.628c0-4.142-3.358-7.501-7.501-7.501s-7.501 3.359-7.501 7.501z"/><path d="m334.908 264.978v16.628c0 4.142 3.358 7.501 7.501 7.501s7.501-3.358 7.501-7.501v-16.628c0-4.142-3.358-7.501-7.501-7.501s-7.501 3.359-7.501 7.501z"/><path d="m288.689 352.089c0 6.909-5.621 12.53-12.529 12.53s-12.53-5.621-12.53-12.53c0-4.142-3.358-7.501-7.501-7.501-4.142 0-7.501 3.358-7.501 7.501 0 6.909-5.621 12.53-12.529 12.53s-12.529-5.621-12.529-12.53c0-4.142-3.358-7.501-7.501-7.501-4.142 0-7.501 3.358-7.501 7.501 0 15.181 12.35 27.531 27.531 27.531 7.888 0 15.006-3.34 20.03-8.673 5.024 5.333 12.143 8.673 20.031 8.673 15.181 0 27.531-12.351 27.531-27.531 0-4.142-3.358-7.501-7.501-7.501s-7.501 3.359-7.501 7.501z"/><path d="m297.223 241.286c-8.673-13.169-22.158-19.571-41.226-19.571s-32.554 6.401-41.226 19.571c-8.344 12.671-12.231 31.642-12.231 59.705 0 8.52 3.855 36.32 53.457 36.32s53.457-27.8 53.457-36.32c0-28.064-3.887-47.035-12.231-59.705zm-41.226 81.024c-24.439 0-38.456-7.77-38.456-21.319 0-53.522 14.715-64.275 38.456-64.275s38.456 10.752 38.456 64.275c0 13.549-14.017 21.319-38.456 21.319z"/><path d="m491.035 115.073c1.352-17.432-11.73-32.718-29.162-34.074-5.939-.462-11.223-4.089-13.788-9.465-7.531-15.78-26.496-22.492-42.301-14.954-5.363 2.56-11.741 2.062-16.693-1.331-14.4-9.865-34.163-6.19-44.09 8.241-3.367 4.896-9.139 7.655-15.089 7.191-17.438-1.35-32.719 11.729-34.075 29.161-.264 3.391-1.582 6.627-3.713 9.248-23.026-4.756-47.661-5.079-72.253 0-3.568-4.388-3.644-8.958-3.713-9.248-1.356-17.433-16.646-30.508-34.099-29.159-5.926.461-11.697-2.297-15.099-7.243-9.892-14.381-29.656-18.056-44.105-8.156-4.903 3.358-11.28 3.854-16.666 1.286-15.78-7.529-34.748-.815-42.279 14.965-2.566 5.376-7.849 9.003-13.788 9.465-17.432 1.357-30.513 16.642-29.159 34.1.46 5.925-2.296 11.697-7.242 15.099-14.381 9.891-18.056 29.655-8.157 44.105 3.359 4.902 3.855 11.28 1.297 16.643-.009.019-.021.043-.032.067-7.495 15.773-.779 34.71 14.986 42.234 5.376 2.566 9.003 7.849 9.465 13.788 1.28 16.455 14.974 29.028 31.188 29.246-3.762 16.774-5.725 33.926-5.725 51.034 0 53.56 18.978 89.836 58.018 110.897 30.857 16.647 74.416 24.071 141.238 24.071 57.476 0 121.48-4.392 160.398-36.972 3.176-2.659 3.596-7.39.937-10.566s-7.389-3.595-10.566-.937c-35.235 29.497-95.987 33.474-150.769 33.474-64.202 0-105.564-6.869-134.115-22.272-34.208-18.455-50.14-49.498-50.14-97.695 0-134.694 122.24-245.159 245.894-194.825 74.185 30.276 122.616 112.44 122.616 194.825 0 27.007-5.056 48.45-15.456 65.554-2.153 3.54-1.028 8.154 2.511 10.306 3.54 2.153 8.154 1.027 10.306-2.511 11.87-19.52 17.64-43.513 17.64-73.348 0-17.107-1.963-34.26-5.725-51.033 16.196-.215 29.908-12.784 31.188-29.247.462-5.939 4.089-11.222 9.465-13.788 15.78-7.531 22.493-26.497 14.962-42.285-.02-.112-4.357-8.704 1.324-16.708 9.865-14.4 6.19-34.164-8.241-44.09-4.899-3.37-7.655-9.142-7.193-15.093zm-424.671 146.075c-.724.006-1.449.037-2.172.093-9.183.721-17.242-6.182-17.957-15.369-.877-11.27-7.759-21.294-17.96-26.163-8.316-3.969-11.854-13.965-7.886-22.282.009-.018.02-.041.03-.063 4.833-10.168 3.884-22.249-2.514-31.589-5.199-7.589-3.262-18.005 4.367-23.253 9.289-6.389 14.519-17.342 13.645-28.61-.713-9.187 6.181-17.243 15.368-17.958 11.27-.877 21.295-7.758 26.163-17.96 3.969-8.316 13.965-11.854 22.304-7.876 10.177 4.853 22.277 3.911 31.63-2.495 7.588-5.199 18.004-3.263 23.253 4.367 6.39 9.29 17.34 14.521 28.61 13.645 9.189-.716 17.243 6.182 17.957 15.368.326 4.192 1.498 8.258 3.391 11.957-12.554 3.766-25.007 9.069-36.817 15.717-14.25-14.045-34.156-20.379-53.856-17.291-4.093.642-6.89 4.48-6.248 8.573.642 4.092 4.481 6.888 8.572 6.248 13.353-2.096 27.374 1.451 38.286 10.662-26.588 17.974-48.582 42.477-64.812 70.163-8.763-8.881-13.815-20.942-13.815-33.594 0-14.192 6.255-27.564 17.161-36.687 3.177-2.658 3.598-7.388.94-10.566s-7.389-3.598-10.566-.94c-14.324 11.982-22.538 29.548-22.538 48.194 0 18.141 7.905 35.346 21.415 47.211-6.506 12.96-11.964 26.888-15.951 40.498zm291.101-124.278c8.558-7.223 19.41-11.247 30.812-11.247 26.366 0 47.816 21.45 47.816 47.816 0 12.652-5.052 24.712-13.815 33.594-16.477-28.116-38.595-52.441-64.813-70.163zm136.591 28.955c-10.838 15.821-2.467 31.502-2.449 31.602 3.967 8.317.429 18.313-7.887 22.282-10.201 4.869-17.083 14.894-17.96 26.163-.714 9.187-8.771 16.079-17.983 15.366-.714-.056-1.43-.086-2.147-.092-3.976-13.577-9.415-27.478-15.951-40.497 13.51-11.865 21.414-29.071 21.414-47.211 0-34.637-28.18-62.817-62.817-62.817-16.624 0-32.349 6.518-44.057 18.057-11.792-6.637-24.243-11.944-36.818-15.717 1.893-3.699 3.065-7.765 3.391-11.957.715-9.187 8.784-16.078 17.983-15.366 11.247.871 22.195-4.358 28.619-13.697 5.213-7.579 15.629-9.515 23.269-4.282 9.301 6.372 21.402 7.315 31.602 2.449 8.318-3.966 18.312-.429 22.281 7.887 4.869 10.201 14.894 17.083 26.164 17.96 9.187.714 16.081 8.77 15.366 17.983-.873 11.242 4.356 22.195 13.697 28.62 7.79 5.357 9.427 16.019 4.283 23.267z"/></svg>