<?xml version="1.0" encoding="iso-8859-1"?>
<!-- Generator: Adobe Illustrator 19.0.0, SVG Export Plug-In . SVG Version: 6.00 Build 0)  -->
<svg version="1.1" id="Capa_1" xmlns="http://www.w3.org/2000/svg" xmlns:xlink="http://www.w3.org/1999/xlink" x="0px" y="0px"
	 viewBox="0 0 512 512" style="enable-background:new 0 0 512 512;" xml:space="preserve">
<circle style="fill:#7AE5FE;" cx="256" cy="256" r="256"/>
<path style="fill:#00BED2;" d="M375,133.667l-57.675,75.454l-80.201-80.201l-76.675,67.75l257.55,257.55
	c53.938-44.134,89.528-109.843,93.599-183.955L375,133.667z"/>
<path style="fill:#AB6A50;" d="M2.392,291C19.46,415.823,126.49,512,256,512s236.54-96.177,253.608-221H2.392z"/>
<path style="fill:#7C3F29;" d="M255.952,291v221c0.016,0,0.032,0,0.048,0c129.51,0,236.54-96.177,253.608-221H255.952z"/>
<polygon style="fill:#7A3817;" points="318.658,372.414 270.572,324.328 270.572,291.333 241.572,291.333 241.572,340.327 
	200.485,381.414 220.991,401.919 264.072,358.84 298.152,392.919 "/>
<path id="SVGCleanerId_0" style="fill:#45BF55;" d="M333.667,133.667c-39.669,0-72.398,29.621-77.333,67.948v-19.948
	c0-43.078-34.922-78-78-78h-40v40c0,43.078,34.922,78,78,78h25.5V291h29v-39.333h24.833c43.078,0,78-34.922,78-78v-40
	L333.667,133.667L333.667,133.667z"/>
<polygon style="fill:#7A3817;" points="318.658,372.414 270.572,324.328 270.572,291.333 241.572,291.333 241.572,340.327 
	200.485,381.414 220.991,401.919 264.072,358.84 298.152,392.919 "/>
<g>
	<path id="SVGCleanerId_0_1_" style="fill:#45BF55;" d="M333.667,133.667c-39.669,0-72.398,29.621-77.333,67.948v-19.948
		c0-43.078-34.922-78-78-78h-40v40c0,43.078,34.922,78,78,78h25.5V291h29v-39.333h24.833c43.078,0,78-34.922,78-78v-40
		L333.667,133.667L333.667,133.667z"/>
</g>
<polygon style="fill:#56210A;" points="270.572,324.328 270.572,291.333 255.952,291.333 255.952,366.959 264.072,358.84 
	298.152,392.919 318.658,372.414 "/>
<path style="fill:#209A33;" d="M255.952,291h14.881v-39.333h24.833c43.078,0,78-34.922,78-78v-40h-40
	c-39.669,0-72.398,29.621-77.333,67.948L255.952,291z"/>
<g>
</g>
<g>
</g>
<g>
</g>
<g>
</g>
<g>
</g>
<g>
</g>
<g>
</g>
<g>
</g>
<g>
</g>
<g>
</g>
<g>
</g>
<g>
</g>
<g>
</g>
<g>
</g>
<g>
</g>
</svg>
