<svg height="512pt" viewBox="0 0 512 512" width="512pt" xmlns="http://www.w3.org/2000/svg"><path d="m512 256c0 141.386719-114.613281 256-256 256s-256-114.613281-256-256 114.613281-256 256-256 256 114.613281 256 256zm0 0" fill="#fedd90"/><path d="m512 256c0-12.816406-.953125-25.40625-2.773438-37.714844l-108.390624-108.394531-71.980469 71.976563-193.828125 45.324218-37.277344 168.828125 111.753906 111.757813c15.078125 2.765625 30.617188 4.222656 46.496094 4.222656 141.386719 0 256-114.613281 256-256zm0 0" fill="#fcba66"/><g fill="#480306"><path d="m415.253906 415.0625h-18.640625v-46.601562l18.640625 9.320312zm0 0"/><path d="m358.710938 368.460938h18.640624v46.601562h-18.640624zm0 0"/><path d="m321.429688 368.460938h18.640624v46.601562h-18.640624zm0 0"/></g><path d="m284.148438 368.460938h18.640624v46.601562h-18.640624zm0 0" fill="#6c533a"/><path d="m246.867188 368.460938h18.640624v46.601562h-18.640624zm0 0" fill="#6c533a"/><path d="m209.589844 368.460938h18.640625v46.601562h-18.640625zm0 0" fill="#6c533a"/><path d="m415.253906 359.140625v18.640625h-112.464844l-18.640624-37.277344zm0 0" fill="#480306"/><path d="m415.253906 331.183594v27.957031h-112.464844l-18.640624-46.597656zm0 0" fill="#fcba66"/><path d="m368.652344 96.9375h-112.464844l46.601562 209.390625 112.460938-12.425781v-150.363282c.003906-25.699218-20.898438-46.601562-46.597656-46.601562zm0 0" fill="#707741"/><path d="m302.789062 340.503906v37.277344h-121.160156v-18.640625zm0 0" fill="#6c533a"/><path d="m302.789062 312.542969v46.597656h-121.160156v-27.957031zm0 0" fill="#fff2a3"/><path d="m302.789062 143.539062v162.789063h-157.820312v-209.390625h111.21875c25.699219 0 46.601562 20.902344 46.601562 46.601562zm0 0" fill="#8a8a47"/><path d="m377.972656 275.261719-37.28125 18.640625-37.28125-18.640625-.621094.308593-18.640624 30.757813 18.640624 24.855469h112.464844v-37.28125zm0 0" fill="#f9963b"/><path d="m266.132812 293.902344-37.28125-18.640625-37.28125 18.640625h-9.941406v37.28125h121.160156v-55.613282zm0 0" fill="#fcba66"/><path d="m135.027344 349.820312h18.640625v46.601563h-18.640625zm0 0" fill="#6c533a"/><path d="m181.628906 143.539062v131.722657h-74.558594c0-55.597657 0-120.332031 0-131.722657 0-20.59375 16.6875-37.28125 37.277344-37.28125 20.59375 0 37.28125 16.6875 37.28125 37.28125zm0 0" fill="#907154"/><path d="m107.066406 331.183594h74.5625v27.957031h-74.5625zm0 0" fill="#6c533a"/><path d="m107.066406 300.113281h74.5625v40.390625h-74.5625zm0 0" fill="#e3c281"/><path d="m144.347656 256.621094-37.28125 18.640625v37.28125h74.5625v-37.28125zm0 0" fill="#c7a772"/><path d="m190.949219 415.0625h-18.640625v-271.523438c0-15.417968-12.542969-27.960937-27.960938-27.960937-15.414062 0-27.957031 12.542969-27.957031 27.960937v252.882813h-18.640625v-252.882813c0-25.695312 20.902344-46.601562 46.597656-46.601562 25.695313 0 46.601563 20.90625 46.601563 46.601562zm0 0" fill="#6c533a"/></svg>