<?xml version="1.0" encoding="iso-8859-1"?>
<!-- Generator: Adobe Illustrator 19.0.0, SVG Export Plug-In . SVG Version: 6.00 Build 0)  -->
<svg version="1.1" id="Capa_1" xmlns="http://www.w3.org/2000/svg" xmlns:xlink="http://www.w3.org/1999/xlink" x="0px" y="0px"
	 viewBox="0 0 512 512" style="enable-background:new 0 0 512 512;" xml:space="preserve">
<circle style="fill:#FFEA3A;" cx="256" cy="256" r="256"/>
<path style="fill:#F9C41E;" d="M511.937,261.002L334.667,83.733l1.504,49.313L256,52.874l80.357,189.883L177.333,83.733
	l-70.788,286.941l141.18,141.18C250.474,511.94,253.23,512,256,512C395.713,512,509.27,400.077,511.937,261.002z"/>
<path style="fill:#FE9A35;" d="M63.163,281.095c0-63.054,114.169-197.363,114.169-197.363s114.169,134.309,114.169,197.363
	s-51.115,114.169-114.169,114.169S63.163,344.149,63.163,281.095z"/>
<path style="fill:#FF7C11;" d="M220.498,281.095c0-63.054,114.169-197.363,114.169-197.363s114.169,134.309,114.169,197.363
	s-51.115,114.169-114.169,114.169S220.498,344.149,220.498,281.095z"/>
<path style="fill:#DE1F4B;" d="M111.027,303.486C111.027,223.42,256,52.874,256,52.874S400.973,223.42,400.973,303.486
	S336.066,448.459,256,448.459S111.027,383.552,111.027,303.486z"/>
<path style="fill:#B30034;" d="M256,52.874c0,0-0.019,0.023-0.048,0.056v395.528c0.016,0,0.032,0.001,0.048,0.001
	c80.066,0,144.973-64.906,144.973-144.973S256,52.874,256,52.874z"/>
<path style="fill:#FE9A35;" d="M175.386,366.572c0-44.522,80.614-139.356,80.614-139.356s80.614,94.834,80.614,139.356
	S300.522,447.186,256,447.186S175.386,411.093,175.386,366.572z"/>
<path style="fill:#FF7C11;" d="M256,227.216c0,0-0.23,0.271-0.643,0.763v219.19c0.215,0.002,0.427,0.016,0.643,0.016
	c44.522,0,80.614-36.092,80.614-80.614C336.614,322.05,256,227.216,256,227.216z"/>
<g>
</g>
<g>
</g>
<g>
</g>
<g>
</g>
<g>
</g>
<g>
</g>
<g>
</g>
<g>
</g>
<g>
</g>
<g>
</g>
<g>
</g>
<g>
</g>
<g>
</g>
<g>
</g>
<g>
</g>
</svg>
