<svg height="512pt" viewBox="0 0 512 512" width="512pt" xmlns="http://www.w3.org/2000/svg"><path d="m512 256c0 141.386719-114.613281 256-256 256s-256-114.613281-256-256 114.613281-256 256-256 256 114.613281 256 256zm0 0" fill="#6c533a"/><path d="m417.902344 183.457031-81.917969-81.917969-34.886719 34.890626-26.949218-26.949219-171.039063 171.039062 46.21875 46.222657-41.429687 41.429687 56.839843 56.839844-7.496093 7.496093 78.71875 78.714844c6.613281.511719 13.292968.777344 20.039062.777344 137.140625 0 249.089844-107.839844 255.6875-243.34375l-89.492188-89.492188zm0 0" fill="#593927"/><path d="m179.160156 346.941406v39.675782c-27.421875 10.304687-58.046875.878906-79.609375-28.269532zm0 0" fill="#eb7330"/><path d="m99.550781 358.34375c21.5625-29.148438 52.1875-38.574219 79.609375-28.273438l-35.761718 28.273438zm0 0" fill="#f9963b"/><path d="m143.398438 358.34375 35.761718-11.402344 35.773438 11.402344c-10.300782 13.925781-22.667969 23.351562-35.769532 28.273438-13.105468-4.921876-25.464843-14.347657-35.765624-28.273438zm0 0" fill="#d95d27"/><path d="m214.9375 358.34375h-71.539062c10.300781-13.925781 22.664062-23.351562 35.761718-28.273438 13.105469 4.921876 25.476563 14.351563 35.777344 28.273438zm0 0" fill="#eb7330"/><g fill="#d6d0cd"><path d="m326.539062 432.808594-16.785156-12.730469c25.203125-33.242187 38.527344-73.046875 38.527344-115.113281l10.535156-7.023438 10.535156 7.023438c0 46.699218-14.800781 90.90625-42.8125 127.84375zm0 0"/><path d="m269.289062 432.78125-13.910156-15.824219c2.4375-2.140625 4.84375-4.398437 7.148438-6.703125 28.125-28.125 43.613281-65.515625 43.613281-105.289062l10.535156-7.023438 10.535157 7.023438c0 45.402344-17.679688 88.085937-49.785157 120.1875-2.621093 2.625-5.359375 5.191406-8.136719 7.628906zm0 0"/><path d="m157.242188 432.792969v-21.070313c58.867187 0 106.757812-47.890625 106.757812-106.757812l10.535156-7.023438 10.535156 7.023438c0 70.484375-57.34375 127.828125-127.828124 127.828125zm0 0"/></g><path d="m370.054688 168.007812c34.914062 0 63.210937 28.296876 63.210937 63.210938s-28.296875 63.210938-63.210937 63.210938h-120.101563v-210.703126c49.179687 0 103.652344 37.433594 108.394531 85.371094 3.796875-.71875 7.703125-1.089844 11.707032-1.089844zm0 0" fill="#9b918b"/><path d="m126.339844 168.007812c0-23.277343 18.863281-42.140624 42.140625-42.140624 5.253906 0 10.28125.96875 14.917969 2.726562 16.722656-26.929688 46.566406-44.867188 80.601562-44.867188v210.703126h-106.054688c-34.914062 0-63.210937-28.296876-63.210937-63.210938 0-23.710938 13.066406-44.375 32.378906-55.191406-.5-2.597656-.773437-5.273438-.773437-8.019532zm0 0" fill="#bdb5b2"/><path d="m370.054688 157.472656c40.664062 0 73.746093 33.082032 73.746093 73.746094s-33.082031 73.746094-73.746093 73.746094h-106.054688l-14.046875-10.535156 14.046875-10.535157h106.054688c29.046874 0 52.675781-23.625 52.675781-52.675781 0-29.046875-23.628907-52.675781-52.675781-52.675781-3.265626 0-6.554688.300781-9.765626.90625l-11.292968 2.113281-1.128906-11.433594c-4.285157-43.25-40.335938-75.867187-83.867188-75.867187l-14.046875-10.535157 14.046875-10.535156c26.308594 0 51.503906 9.75 70.929688 27.453125 16.652343 15.179688 27.90625 35.082031 32.324218 56.882813.933594-.035156 1.867188-.054688 2.800782-.054688zm0 0" fill="#bdb5b2"/><path d="m264 283.894531v21.070313h-106.054688c-40.664062 0-73.746093-33.082032-73.746093-73.746094 0-24.257812 11.976562-46.867188 31.675781-60.570312-.046875-.878907-.070312-1.761719-.070312-2.640626 0-29.046874 23.628906-52.675781 52.675781-52.675781 3.542969 0 7.039062.351563 10.464843 1.046875 8.800782-12.011718 20.101563-22.109375 33.054688-29.480468 15.773438-8.96875 33.753906-13.707032 52-13.707032v21.070313c-29.351562 0-56.136719 14.910156-71.644531 39.882812l-4.578125 7.371094-8.105469-3.070313c-3.582031-1.355468-7.347656-2.042968-11.1875-2.042968-17.425781 0-31.605469 14.179687-31.605469 31.605468 0 2 .195313 4.023438.582032 6.023438l1.4375 7.476562-6.636719 3.714844c-16.652344 9.316406-26.988281 26.949219-26.988281 45.996094 0 29.046875 23.625 52.675781 52.675781 52.675781zm0 0" fill="#d6d0cd"/></svg>