<svg height="512pt" viewBox="0 0 512 512.001" width="512pt" xmlns="http://www.w3.org/2000/svg"><path d="m512 256c0 141.386719-114.613281 256-256 256-141.382812 0-256-114.613281-256-256s114.617188-256 256-256c141.386719 0 256 114.613281 256 256zm0 0" fill="#d95d27"/><path d="m415.394531 179.550781-4.417969 4.417969-80.085937-80.082031-79.5 79.503906-27.648437-27.648437-129.515626 129.515624 82.332032 82.335938-10.019532 10.023438 29.539063 29.542968-25.289063 25.289063 79.476563 79.480469c1.90625.039062 3.816406.070312 5.734375.070312 134.847656 0 245.34375-104.261719 255.273438-236.570312zm0 0" fill="#c7461f"/><path d="m255.515625 438.808594-20.453125-6.371094 17.09375-54.882812h-21.410156l25.726562-82.601563 20.453125 6.371094-17.070312 54.804687h21.410156zm0 0" fill="#fedd90"/><path d="m191.246094 438.808594-20.453125-6.371094 17.09375-54.882812h-21.414063l25.730469-82.601563 20.453125 6.371094-17.070312 54.804687h21.410156zm0 0" fill="#fff2a3"/><path d="m319.785156 438.808594-20.453125-6.371094 17.09375-54.882812h-21.410156l25.726563-82.601563 20.457031 6.371094-17.074219 54.804687h21.414062zm0 0" fill="#fedd90"/><path d="m363.832031 169.597656c35.5 0 64.269531 28.769532 64.269531 64.269532 0 35.496093-28.773437 64.269531-64.269531 64.269531h-122.113281v-214.234375c50 0 105.390625 38.0625 110.210938 86.800781 3.863281-.726563 7.832031-1.105469 11.902343-1.105469zm0 0" fill="#7a6c64"/><path d="m116.035156 169.597656c0-23.667968 19.179688-42.847656 42.84375-42.847656 5.34375 0 10.457032.984375 15.167969 2.769531 17.003906-27.378906 47.347656-45.617187 81.953125-45.617187v214.234375h-107.832031c-35.496094 0-64.269531-28.769531-64.269531-64.269531 0-24.109376 13.285156-45.117188 32.921874-56.113282-.507812-2.644531-.785156-5.363281-.785156-8.15625zm0 0" fill="#9b918b"/><path d="m363.832031 158.886719c41.347657 0 74.980469 33.632812 74.980469 74.980469 0 41.347656-33.632812 74.980468-74.980469 74.980468h-107.832031l-14.28125-10.710937 14.28125-10.710938h107.832031c29.535157 0 53.558594-24.023437 53.558594-53.558593 0-29.535157-24.023437-53.558594-53.558594-53.558594-3.320312 0-6.664062.304687-9.925781.921875l-11.484375 2.148437-1.148437-11.625c-4.355469-43.976562-41.011719-77.140625-85.273438-77.140625l-14.28125-10.710937 14.28125-10.710938c26.75 0 52.367188 9.910156 72.121094 27.914063 16.929687 15.433593 28.371094 35.671875 32.863281 57.835937.949219-.035156 1.898437-.054687 2.847656-.054687zm0 0" fill="#9b918b"/><path d="m256 287.425781v21.421875h-107.832031c-41.34375 0-74.980469-33.632812-74.980469-74.980468 0-24.667969 12.175781-47.652344 32.207031-61.585938-.050781-.890625-.070312-1.792969-.070312-2.683594 0-29.535156 24.023437-53.558594 53.558593-53.558594 3.597657 0 7.15625.355469 10.640626 1.0625 8.945312-12.210937 20.4375-22.480468 33.605468-29.96875 16.039063-9.121093 34.320313-13.941406 52.871094-13.941406v21.421875c-29.839844 0-57.078125 15.160157-72.84375 40.554688l-4.65625 7.492187-8.242188-3.121094c-3.640624-1.378906-7.46875-2.078124-11.375-2.078124-17.71875 0-32.136718 14.417968-32.136718 32.136718 0 2.035156.199218 4.089844.59375 6.125l1.464844 7.597656-6.75 3.777344c-16.929688 9.476563-27.441407 27.402344-27.441407 46.769532 0 29.535156 24.023438 53.558593 53.558594 53.558593zm0 0" fill="#bdb5b2"/></svg>