<svg height="512pt" viewBox="0 0 512 512" width="512pt" xmlns="http://www.w3.org/2000/svg"><path d="m512 256c0 141.386719-114.613281 256-256 256s-256-114.613281-256-256 114.613281-256 256-256 256 114.613281 256 256zm0 0" fill="#bfb053"/><path d="m410.488281 181.78125-80.976562-80.976562-43.898438 43.894531-26.1875-26.1875-164.1875 164.1875 57.65625 57.65625-14.65625 94.34375 73.476563 73.472656c14.386718 2.507813 29.179687 3.828125 44.285156 3.828125 135.375 0 246.191406-105.082031 255.367188-238.128906l-96.484376-96.484375zm0 0" fill="#a59d4d"/><g fill="#d6d0cd"><path d="m138.183594 326.8125h21.292968v107.878906h-21.292968zm0 0"/><path d="m191.769531 369.394531h21.292969v65.296875h-21.292969zm0 0"/><path d="m191.769531 326.8125h21.292969v21.292969h-21.292969zm0 0"/></g><path d="m245.355469 326.8125h21.289062v107.878906h-21.289062zm0 0" fill="#bdb5b2"/><path d="m298.9375 326.8125h21.292969v107.878906h-21.292969zm0 0" fill="#bdb5b2"/><path d="m352.523438 326.8125h21.292968v107.878906h-21.292968zm0 0" fill="#bdb5b2"/><path d="m363.171875 167.121094c35.277344 0 63.875 28.597656 63.875 63.875 0 35.28125-28.597656 63.878906-63.875 63.878906h-121.367187v-212.921875c49.695312 0 104.742187 37.832031 109.535156 86.269531 3.839844-.722656 7.785156-1.101562 11.832031-1.101562zm0 0" fill="#593927"/><path d="m116.894531 167.121094c0-23.519532 19.0625-42.582032 42.582031-42.582032 5.308594 0 10.390626.976563 15.074219 2.753907 16.898438-27.210938 47.054688-45.339844 81.449219-45.339844v212.921875h-107.171875c-35.277344 0-63.875-28.59375-63.875-63.875 0-23.960938 13.203125-44.84375 32.71875-55.773438-.503906-2.625-.777344-5.328124-.777344-8.105468zm0 0" fill="#7a6c64"/><path d="m363.171875 156.476562c41.089844 0 74.519531 33.425782 74.519531 74.519532 0 41.097656-33.425781 74.523437-74.519531 74.523437h-107.171875l-14.195312-10.644531 14.195312-10.648438h107.171875c29.351563 0 53.226563-23.875 53.226563-53.230468 0-29.351563-23.875-53.226563-53.226563-53.226563-3.300781 0-6.625.304688-9.867187.914063l-11.410157 2.136718-1.144531-11.554687c-4.328125-43.703125-40.761719-76.664063-84.75-76.664063l-14.195312-10.648437 14.195312-10.644531c26.585938 0 52.046875 9.851562 71.675781 27.742187 16.828125 15.339844 28.199219 35.453125 32.664063 57.480469.941406-.035156 1.886718-.054688 2.832031-.054688zm0 0" fill="#7a6c64"/><path d="m256 284.226562v21.292969h-107.171875c-41.089844 0-74.519531-33.425781-74.519531-74.523437 0-24.511719 12.101562-47.359375 32.007812-61.207032-.050781-.886718-.070312-1.777343-.070312-2.667968 0-29.355469 23.875-53.230469 53.230468-53.230469 3.578126 0 7.113282.355469 10.574219 1.058594 8.894531-12.136719 20.3125-22.339844 33.398438-29.785157 15.941406-9.0625 34.113281-13.855468 52.550781-13.855468v21.292968c-29.660156 0-56.730469 15.066407-72.398438 40.304688l-4.628906 7.445312-8.191406-3.101562c-3.617188-1.371094-7.421875-2.066406-11.304688-2.066406-17.609374 0-31.9375 14.332031-31.9375 31.9375 0 2.023437.199219 4.070312.589844 6.09375l1.453125 7.550781-6.707031 3.753906c-16.828125 9.417969-27.273438 27.230469-27.273438 46.480469 0 29.355469 23.875 53.230469 53.230469 53.230469h107.167969zm0 0" fill="#9b918b"/></svg>