<?xml version="1.0" encoding="iso-8859-1"?>
<!-- Generator: Adobe Illustrator 19.0.0, SVG Export Plug-In . SVG Version: 6.00 Build 0)  -->
<svg version="1.1" id="Capa_1" xmlns="http://www.w3.org/2000/svg" xmlns:xlink="http://www.w3.org/1999/xlink" x="0px" y="0px"
	 viewBox="0 0 512 512" style="enable-background:new 0 0 512 512;" xml:space="preserve">
<circle style="fill:#FFEA3A;" cx="256" cy="256" r="256"/>
<path style="fill:#FFB80E;" d="M512,256c0-5.074-0.165-10.109-0.456-15.11L371.365,100.71l-6.483,67.172L256,59L116.241,391.093
	L236.408,511.26c6.467,0.489,13,0.74,19.592,0.74C397.385,512,512,397.385,512,256z"/>
<path style="fill:#45BF55;" d="M395.759,391.093c26.172-36.28,49.561-207.156,49.561-207.156s-30.388,14.943-66.507,34.739
	c-1.4-57.713-7.448-117.965-7.448-117.965s-31.942,26.53-66.484,58.442C282.264,108.375,256,59,256,59
	s-26.264,49.375-48.881,100.152c-34.541-31.912-66.484-58.442-66.484-58.442s-6.048,60.252-7.448,117.965
	C97.068,198.88,66.68,183.937,66.68,183.937s23.389,170.876,49.561,207.156L395.759,391.093L395.759,391.093z"/>
<path style="fill:#209A33;" d="M255.952,391.093h139.807c26.172-36.28,49.561-207.156,49.561-207.156s-30.388,14.943-66.507,34.739
	c-1.4-57.713-7.448-117.965-7.448-117.965s-31.942,26.53-66.484,58.442C282.264,108.375,256,59,256,59L255.952,391.093z"/>
<g>
</g>
<g>
</g>
<g>
</g>
<g>
</g>
<g>
</g>
<g>
</g>
<g>
</g>
<g>
</g>
<g>
</g>
<g>
</g>
<g>
</g>
<g>
</g>
<g>
</g>
<g>
</g>
<g>
</g>
</svg>
