<?xml version="1.0" encoding="iso-8859-1"?>
<!-- Generator: Adobe Illustrator 19.0.0, SVG Export Plug-In . SVG Version: 6.00 Build 0)  -->
<svg version="1.1" id="Capa_1" xmlns="http://www.w3.org/2000/svg" xmlns:xlink="http://www.w3.org/1999/xlink" x="0px" y="0px"
	 viewBox="0 0 512 512" style="enable-background:new 0 0 512 512;" xml:space="preserve">
<circle style="fill:#2864F0;" cx="256" cy="256" r="256"/>
<path style="fill:#0053BF;" d="M260.089,511.948C399.586,509.761,512,396.018,512,256c0-1.729-0.031-3.45-0.065-5.17
	L390.013,128.909l5.175,129.612l-46.43-46.43l-27.876,18.791L220.091,130.091l-45,45l192.637,192.636l-97.428,7.905L121.425,226.758
	l-45,45l110.629,110.628l-52.284,4.242L260.089,511.948z"/>
<path style="fill:#DCE6D3;" d="M341.829,97.19c25.572,29.776,41.03,68.49,41.03,110.818c0,93.99-76.194,170.185-170.185,170.185
	c-42.328,0-81.042-15.458-110.818-41.03c28.399,63.177,91.877,107.171,165.633,107.171c100.245,0,181.51-81.265,181.51-181.51
	C449,189.067,405.006,125.589,341.829,97.19z"/>
<path style="fill:#98B4B6;" d="M331.279,330.04c-30.651,29.796-72.481,48.152-118.604,48.152
	c-42.328,0-81.042-15.458-110.818-41.031c28.399,63.177,91.877,107.171,165.633,107.171c49.251,0,93.911-19.625,126.612-51.469
	L331.279,330.04z"/>
<g>
	<polygon style="fill:#FFEA3A;" points="220.091,130.091 205.242,115.242 190.167,130.317 175.091,115.242 160.242,130.091 
		175.317,145.167 160.242,160.242 175.091,175.091 190.167,160.016 205.242,175.091 220.091,160.242 205.016,145.167 	"/>
	<polygon style="fill:#FFEA3A;" points="121.425,226.758 106.575,211.909 91.5,226.984 76.425,211.909 61.575,226.758 
		76.651,241.833 61.575,256.909 76.425,271.758 91.5,256.683 106.575,271.758 121.425,256.909 106.349,241.833 	"/>
	<polygon style="fill:#FFEA3A;" points="348.758,212.091 333.909,197.242 318.834,212.317 303.758,197.242 288.909,212.091 
		303.984,227.167 288.909,242.242 303.758,257.091 318.834,242.016 333.909,257.091 348.758,242.242 333.683,227.167 	"/>
</g>
<g>
</g>
<g>
</g>
<g>
</g>
<g>
</g>
<g>
</g>
<g>
</g>
<g>
</g>
<g>
</g>
<g>
</g>
<g>
</g>
<g>
</g>
<g>
</g>
<g>
</g>
<g>
</g>
<g>
</g>
</svg>
