<svg height="512pt" viewBox="0 0 512 512" width="512pt" xmlns="http://www.w3.org/2000/svg"><path d="m512 256c0 141.386719-114.613281 256-256 256s-256-114.613281-256-256 114.613281-256 256-256 256 114.613281 256 256zm0 0" fill="#fedd90"/><path d="m377.015625 145.679688-107.113281-107.109376-54.824219 54.824219 5.9375 5.9375-166.515625 166.515625 160.730469 160.730469-7.355469 7.359375 76.492188 76.492188c128.03125-14.117188 227.632812-122.632813 227.632812-254.429688 0-8.429688-.417969-16.761719-1.214844-24.980469l-109.554687-109.554687zm0 0" fill="#fcba66"/><path d="m246.074219 409.730469c0 6.574219-5.347657 11.921875-11.921875 11.921875-6.574219 0-11.925782-5.347656-11.925782-11.921875h-23.847656c0 19.722656 16.046875 35.769531 35.773438 35.769531 19.722656 0 35.769531-16.046875 35.769531-35.769531v-120.035157l-11.921875-23.847656-11.925781 23.847656zm0 0" fill="#d95d27"/><path d="m246.074219 242h23.851562v47.695312h-23.851562zm0 0" fill="#c7461f"/><path d="m246.074219 38.5h23.851562v203.5h-23.851562zm0 0" fill="#d95d27"/><path d="m401.894531 121.949219c-38.433593-38.433594-89.539062-59.601563-143.894531-59.601563l95.789062 203.5h11.921876c0-19.832031 16.136718-35.96875 35.972656-35.96875 19.832031 0 35.96875 16.136719 35.96875 35.96875h23.847656c0-54.355468-21.167969-105.460937-59.605469-143.898437zm0 0" fill="#480306"/><path d="m258 62.347656-23.847656 101.75 23.847656 101.75h11.925781c0-19.832031 16.132813-35.96875 35.96875-35.96875 19.832031 0 35.96875 16.136719 35.96875 35.96875h11.925781c0-112.390625-42.886718-203.5-95.789062-203.5zm0 0" fill="#593927"/><path d="m114.105469 121.949219c-38.4375 38.4375-59.605469 89.542969-59.605469 143.898437h23.847656c0-19.832031 16.136719-35.96875 35.96875-35.96875 19.835938 0 35.972656 16.136719 35.972656 35.96875h11.921876l95.789062-203.5c-54.355469 0-105.460938 21.167969-143.894531 59.601563zm0 0" fill="#907154"/><path d="m162.210938 265.847656h11.925781c0-19.832031 16.136719-35.96875 35.96875-35.96875 19.835937 0 35.96875 16.136719 35.96875 35.96875h11.925781v-203.5c-52.902344 0-95.789062 91.109375-95.789062 203.5zm0 0" fill="#6c533a"/></svg>