<svg id="Layer_1" enable-background="new 0 0 512 512" height="512" viewBox="0 0 512 512" width="512" xmlns="http://www.w3.org/2000/svg"><circle cx="420.037" cy="120.515" fill="#e7896e" r="84.463"/><path d="m420.037 161.62c-22.666 0-41.106-18.439-41.106-41.105 0-22.665 18.439-41.105 41.106-41.105 22.665 0 41.105 18.439 41.105 41.105s-18.439 41.105-41.105 41.105z" fill="#f8cfc5"/><circle cx="91.963" cy="120.515" fill="#e7896e" r="84.463"/><path d="m27.48 175.042c15.493 18.304 38.624 29.936 64.482 29.936 46.648 0 84.463-37.815 84.463-84.463 0-26.916-12.606-50.873-32.218-66.34-22.915 11.198-44.109 25.915-62.839 43.877-23.378 22.421-41.531 48.538-53.888 76.99z" fill="#dd6642"/><path d="m91.963 161.62c22.666 0 41.106-18.439 41.106-41.105 0-22.665-18.439-41.105-41.106-41.105-22.665 0-41.105 18.439-41.105 41.105s18.439 41.105 41.105 41.105z" fill="#f8cfc5"/><path d="m484.52 175.042c-12.356-28.452-30.51-54.569-53.888-76.989-18.73-17.962-39.924-32.679-62.839-43.877-19.613 15.467-32.218 39.424-32.218 66.34 0 46.648 37.815 84.463 84.463 84.463 25.858-.001 48.988-11.633 64.482-29.937z" fill="#dd6642"/><path d="m459.661 131.424c-8.525-11.823-18.211-22.997-29.03-33.372-6.486-6.22-13.277-12.037-20.322-17.469-17.985 4.382-31.378 20.618-31.378 39.932 0 22.666 18.439 41.105 41.106 41.105 18.888 0 34.831-12.81 39.624-30.196z" fill="#f2ad9a"/><path d="m52.339 131.424c4.793 17.386 20.736 30.196 39.624 30.196 22.666 0 41.106-18.439 41.106-41.105 0-19.314-13.393-35.55-31.377-39.932-7.045 5.432-13.836 11.249-20.322 17.469-10.82 10.375-20.506 21.55-29.031 33.372z" fill="#f2ad9a"/><ellipse cx="256" cy="267.265" fill="#e7896e" rx="217.6" ry="208.682"/><path d="m234.042 246.165c-38.839 0-70.337 31.488-70.337 70.337 0 19.424 7.872 37.009 20.6 49.737s30.322 20.6 49.737 20.6h43.917c38.839 0 70.337-31.488 70.337-70.337 0-19.424-7.872-37.009-20.6-49.737s-30.322-20.6-49.737-20.6l-21.959 14.463z" fill="#f8cfc5"/><path d="m277.958 246.165v6.976c0 12.121-9.837 21.949-21.958 21.949s-21.958-9.828-21.958-21.949v-6.976z" fill="#423c4d"/><ellipse cx="136.176" cy="271.546" fill="#ffa2ae" rx="44.213" ry="35.209"/><ellipse cx="375.824" cy="271.546" fill="#ffa2ae" rx="44.213" ry="35.209"/><path d="m239.904 321.116c6.217 0 11.877-2.421 16.096-6.365 15.02 14.039 39.692 3.329 39.692-17.231 0-4.142-3.358-7.5-7.5-7.5s-7.5 3.358-7.5 7.5c0 4.74-3.856 8.596-8.596 8.596s-8.596-3.856-8.596-8.596c0-4.142-3.358-7.5-7.5-7.5s-7.5 3.358-7.5 7.5c0 4.74-3.856 8.596-8.596 8.596s-8.596-3.856-8.596-8.596c0-4.142-3.358-7.5-7.5-7.5s-7.5 3.358-7.5 7.5c0 13.011 10.585 23.596 23.596 23.596z"/><path d="m175.487 233.232c0 4.142 3.358 7.5 7.5 7.5s7.5-3.358 7.5-7.5c0-15.739-12.805-28.544-28.544-28.544s-28.544 12.805-28.544 28.544c0 4.142 3.358 7.5 7.5 7.5s7.5-3.358 7.5-7.5c0-7.468 6.076-13.544 13.544-13.544s13.544 6.076 13.544 13.544z"/><path d="m363.601 233.232c0 4.142 3.358 7.5 7.5 7.5s7.5-3.358 7.5-7.5c0-15.739-12.805-28.544-28.544-28.544s-28.544 12.805-28.544 28.544c0 4.142 3.358 7.5 7.5 7.5s7.5-3.358 7.5-7.5c0-7.468 6.076-13.544 13.544-13.544s13.544 6.076 13.544 13.544z"/><path d="m420.037 28.552c-30.199 0-58.614 15.086-75.688 39.769-27.565-11.295-57.481-17.238-88.349-17.238-30.866 0-60.78 5.942-88.344 17.235-13.901-20.154-35.21-33.985-59.402-38.316-4.079-.728-7.975 1.984-8.705 6.061s1.984 7.975 6.061 8.705c19.323 3.459 36.457 14.17 48.095 29.82-8.586 4.215-16.902 8.978-24.904 14.264-9.164-10.715-22.442-16.941-36.839-16.941-26.801 0-48.604 21.804-48.604 48.604 0 14.772 6.803 28.64 18.129 37.793-5.021 8.235-9.459 16.758-13.278 25.531-20.671-14.287-33.209-37.854-33.209-63.323 0-37.458 26.746-69.328 63.595-75.781 4.08-.714 6.808-4.602 6.094-8.682-.715-4.079-4.597-6.81-8.682-6.094-44.041 7.713-76.007 45.797-76.007 90.557 0 31.622 16.172 60.783 42.613 77.605-7.7 21.986-11.713 45.267-11.713 69.145 0 57.804 23.454 112.131 66.042 152.974 42.503 40.76 98.991 63.208 159.058 63.208 60.908 0 117.96-23.002 160.647-64.768 2.961-2.897 3.013-7.646.116-10.606-2.896-2.961-7.646-3.013-10.606-.116-39.867 39.007-93.194 60.49-150.157 60.49-115.85 0-210.1-90.25-210.1-201.182 0-112.544 96.134-201.182 210.1-201.182 112.537 0 210.1 87.417 210.1 201.182 0 43.162-14.074 84.312-40.699 119.003-2.522 3.286-1.903 7.994 1.383 10.516 3.286 2.521 7.994 1.903 10.516-1.383 28.654-37.334 43.8-81.643 43.8-128.136 0-23.878-4.013-47.159-11.713-69.145 26.441-16.822 42.613-45.984 42.613-77.605 0-50.709-41.254-91.964-91.963-91.964zm-361.679 91.963c0-18.53 15.075-33.604 33.604-33.604 9.471 0 18.256 3.892 24.548 10.662-18.129 13.8-33.889 30.09-46.726 48.149-7.171-6.324-11.426-15.489-11.426-25.207zm383.858 25.206c-12.739-17.92-28.447-34.235-46.726-48.149 6.292-6.769 15.076-10.662 24.548-10.662 18.53 0 33.604 15.075 33.604 33.604 0 9.719-4.255 18.884-11.426 25.207zm21.575 38.118c-3.819-8.773-8.258-17.296-13.278-25.531 11.326-9.154 18.129-23.021 18.129-37.793 0-26.801-21.804-48.604-48.604-48.604-14.397 0-27.675 6.227-36.839 16.941-8-5.284-16.313-10.045-24.897-14.26 14.429-19.327 37.393-31.04 61.736-31.04 42.438 0 76.963 34.525 76.963 76.963-.001 25.47-12.539 49.037-33.21 63.324z"/><path d="m234.042 394.338h43.917c42.919 0 77.836-34.917 77.836-77.836 0-20.792-8.096-40.339-22.797-55.04-14.7-14.701-34.247-22.796-55.04-22.796.374 0-21.742 0-43.917 0-42.919 0-77.836 34.917-77.836 77.836 0 20.793 8.096 40.34 22.796 55.04 14.701 14.701 34.248 22.796 55.041 22.796zm20.497-126.822c-6.997-.705-12.711-6.496-12.971-13.851h28.864c-.306 8.43-7.725 14.673-15.893 13.851zm-27.982-13.407c.467 14.893 12.433 28.255 29.442 28.481 15.883 0 28.931-12.688 29.443-28.487 13.953 1.645 26.863 7.879 36.949 17.965 11.868 11.868 18.403 27.648 18.403 44.434 0 34.648-28.188 62.836-62.836 62.836h-43.917c-16.786 0-32.566-6.536-44.434-18.403s-18.403-27.647-18.403-44.434c.001-32.116 24.219-58.682 55.353-62.392z"/></svg>