<svg height="512pt" viewBox="0 0 512 512" width="512pt" xmlns="http://www.w3.org/2000/svg"><path d="m512 256c0 141.386719-114.613281 256-256 256s-256-114.613281-256-256 114.613281-256 256-256 256 114.613281 256 256zm0 0" fill="#fedd90"/><path d="m512 256c0-33.132812-6.296875-64.796875-17.753906-93.859375l-72.140625-72.140625-305.773438 70.332031 6.089844 138.464844 20.386719 89.886719-38.929688-38.929688-13.875 13.878906 38.925782 38.925782-19.445313 19.449218 81.710937 81.707032c20.699219 5.402344 42.414063 8.285156 64.804688 8.285156 141.386719 0 256-114.613281 256-256zm0 0" fill="#fcba66"/><path d="m217.09375 315.007812 38.90625 106.992188h146.546875v-68.085938zm0 0" fill="#eb7330"/><path d="m389.578125 298.796875h-133.578125l-38.90625 55.117187h172.484375zm0 0" fill="#480306"/><path d="m122.421875 298.796875h133.578125v55.117187h-133.578125zm0 0" fill="#8b2613"/><path d="m109.453125 353.914062h146.546875v68.085938h-146.546875zm0 0" fill="#f9963b"/><path d="m256 285.828125-19.453125 9.726563 19.453125 9.726562h146.546875v-19.453125zm0 0" fill="#c7461f"/><path d="m109.453125 285.828125h146.546875v19.453125h-146.546875zm0 0" fill="#eb7330"/><path d="m383.09375 191.707031h19.453125v162.207031h-19.453125zm0 0" fill="#c7461f"/><path d="m109.453125 191.707031h19.453125v162.207031h-19.453125zm0 0" fill="#eb7330"/><path d="m246.273438 285.828125h19.453124v68.085937h-19.453124zm0 0" fill="#eb7330"/><path d="m337.488281 324.734375h19.453125v29.179687h-19.453125zm0 0" fill="#707741"/><path d="m291.878906 324.734375h19.453125v29.179687h-19.453125zm0 0" fill="#707741"/><path d="m200.667969 324.734375h19.453125v29.179687h-19.453125zm0 0" fill="#a59d4d"/><path d="m155.058594 324.734375h19.453125v29.179687h-19.453125zm0 0" fill="#a59d4d"/><path d="m90 167.8125v7.132812c0 22.921876 18.578125 41.5 41.5 41.5s41.5-18.578124 41.5-41.5v-7.132812l-41.5-19.453125zm0 0" fill="#dfd17b"/><path d="m173 90h-83v77.8125h83l38.90625-37.675781zm0 0" fill="#fff2a3"/><path d="m173 167.8125v7.132812c0 22.921876 18.578125 41.5 41.5 41.5s41.5-18.578124 41.5-41.5v-7.132812l-41.5-19.453125zm0 0" fill="#a59d4d"/><path d="m256 90h-83v77.8125h83l38.90625-37.675781zm0 0" fill="#bfb053"/><path d="m256 167.8125v7.132812c0 22.921876 18.578125 41.5 41.5 41.5s41.5-18.578124 41.5-41.5v-7.132812l-41.5-19.453125zm0 0" fill="#bfb053"/><path d="m339 90h-83v77.8125h83l38.90625-37.675781zm0 0" fill="#fedd90"/><path d="m339 167.8125v7.132812c0 22.921876 18.578125 41.5 41.5 41.5s41.5-18.578124 41.5-41.5v-7.132812l-41.5-19.453125zm0 0" fill="#8a8a47"/><path d="m339 90h83v77.8125h-83zm0 0" fill="#a59d4d"/><path d="m422 363.640625h-166l-19.453125-9.726563 19.453125-9.726562h166zm0 0" fill="#c7461f"/><path d="m90 344.1875h166v19.453125h-166zm0 0" fill="#eb7330"/></svg>