<?xml version="1.0" encoding="iso-8859-1"?>
<!-- Generator: Adobe Illustrator 19.0.0, SVG Export Plug-In . SVG Version: 6.00 Build 0)  -->
<svg version="1.1" id="Capa_1" xmlns="http://www.w3.org/2000/svg" xmlns:xlink="http://www.w3.org/1999/xlink" x="0px" y="0px"
	 viewBox="0 0 512 512" style="enable-background:new 0 0 512 512;" xml:space="preserve">
<circle style="fill:#7AE5FE;" cx="256" cy="256" r="256"/>
<path style="fill:#00BED2;" d="M511.806,265.51L388.931,142.635l-55.244,107.702L229.161,145.81L79.109,370.969l138.11,138.11
	C229.866,511.001,242.816,512,256,512C394.199,512,506.801,402.487,511.806,265.51z"/>
<path style="fill:#DCE6D3;" d="M411.197,304.703c-16.22,46.4-66.984,70.865-113.384,54.645s-70.866-66.984-54.645-113.384
	s86.619-127.032,133.019-110.812S427.417,258.303,411.197,304.703z"/>
<path style="fill:#C7D3BA;" d="M376.186,135.152c-0.27-0.094-0.544-0.169-0.816-0.257l-77.364,224.517
	c46.348,16.085,96.993-8.375,113.19-54.71C427.417,258.303,422.586,151.373,376.186,135.152z"/>
<path style="fill:#FFFFFF;" d="M280,274.5c0,49.153-39.847,89-89,89s-89-39.847-89-89S141.847,126,191,126S280,225.347,280,274.5z"
	/>
<path style="fill:#E0E0E0;" d="M280,274.5c0-49.13-39.808-148.401-88.929-148.498v237.497C240.192,363.46,280,323.629,280,274.5z"/>
<path style="fill:#AB6A50;" d="M391.284,391.429H120.716c-29.015,0-52.536-23.521-52.536-52.536v-16.786
	c0-29.015,23.521-52.536,52.536-52.536h270.569c29.015,0,52.536,23.521,52.536,52.536v16.786
	C443.821,367.908,420.299,391.429,391.284,391.429z"/>
<path style="fill:#854830;" d="M391.284,269.571H255.952v121.858h135.332c29.015,0,52.536-23.521,52.536-52.536v-16.786
	C443.821,293.092,420.299,269.571,391.284,269.571z"/>
<rect x="396.372" y="256.793" transform="matrix(-0.7071 -0.7071 0.7071 -0.7071 496.0506 788.7063)" style="fill:#AB6A50;" width="30" height="69.649"/>
<g>
	
		<rect x="105.077" y="341.746" transform="matrix(-0.6139 -0.7894 0.7894 -0.6139 -70.6233 678.9476)" style="fill:#D59134;" width="51.311" height="29.999"/>
	
		<rect x="149.807" y="270.009" transform="matrix(-0.5863 -0.8101 0.8101 -0.5863 43.958 592.4664)" style="fill:#D59134;" width="46.907" height="29.999"/>
</g>
<rect x="250.825" y="259.684" transform="matrix(-0.3625 -0.932 0.932 -0.3625 129.605 638.0214)" style="fill:#AB6A50;" width="64.381" height="30"/>
<rect x="237.252" y="339.059" transform="matrix(-0.5567 -0.8307 0.8307 -0.5567 86.775 782.8036)" style="fill:#D59134;" width="30" height="58.379"/>
<g>
	<polygon style="fill:#AB6A50;" points="268.149,339.539 255.952,347.712 255.952,383.826 284.851,364.461 	"/>
	
		<rect x="361.343" y="365.252" transform="matrix(-0.848 -0.53 0.53 -0.848 522.8887 910.4664)" style="fill:#AB6A50;" width="61.32" height="30"/>
</g>
<rect x="69.634" y="261.996" transform="matrix(-0.695 -0.719 0.719 -0.695 -45.7702 534.5773)" style="fill:#D59134;" width="41.725" height="30"/>
<g>
</g>
<g>
</g>
<g>
</g>
<g>
</g>
<g>
</g>
<g>
</g>
<g>
</g>
<g>
</g>
<g>
</g>
<g>
</g>
<g>
</g>
<g>
</g>
<g>
</g>
<g>
</g>
<g>
</g>
</svg>
