<svg id="Layer_1" enable-background="new 0 0 512 512" height="512" viewBox="0 0 512 512" width="512" xmlns="http://www.w3.org/2000/svg"><g fill="#423c4d"><path d="m156.004 438.993-62.691 40.232c-11.256 7.223-26.235 3.954-33.459-7.301-7.223-11.256-3.954-26.236 7.301-33.459l62.691-40.232c5.628-3.611 12.187-4.6 18.241-3.279 6.055 1.321 11.605 4.952 15.217 10.58 7.225 11.256 3.956 26.236-7.3 33.459z"/><path d="m106.205 288.515h-74.49c-13.373.001-24.214 10.842-24.215 24.216 0 13.374 10.842 24.216 24.216 24.216h74.49c6.687 0 12.741-2.711 17.123-7.093s7.092-10.436 7.093-17.123c-.001-13.374-10.843-24.216-24.217-24.216z"/><path d="m365.682 176.783 62.691-40.232c11.256-7.223 26.235-3.954 33.459 7.301 7.223 11.256 3.954 26.236-7.301 33.459l-62.691 40.232c-5.628 3.611-12.187 4.6-18.241 3.279s-11.605-4.952-15.217-10.58c-7.224-11.256-3.955-26.236 7.3-33.459z"/><path d="m355.996 438.993 62.691 40.232c11.256 7.223 26.235 3.954 33.459-7.301 7.223-11.256 3.954-26.236-7.301-33.459l-62.691-40.232c-5.628-3.611-12.187-4.6-18.241-3.279-6.055 1.321-11.605 4.952-15.217 10.58-7.225 11.256-3.956 26.236 7.3 33.459z"/><path d="m405.795 288.515h74.49c13.374.001 24.215 10.842 24.216 24.216 0 13.374-10.842 24.216-24.216 24.216h-74.49c-6.687 0-12.741-2.711-17.123-7.093s-7.092-10.436-7.093-17.123c0-13.374 10.842-24.216 24.216-24.216z"/><path d="m311.999 113.17c-.777 0-1.567-.122-2.346-.378-3.93-1.295-6.07-5.522-4.781-9.454.6-1.829 15.107-44.935 51.983-58.21 3.893-1.403 8.194.619 9.597 4.516s-.619 8.194-4.517 9.597c-15.388 5.54-26.123 18.282-32.42 27.997-7.092 10.942-10.361 20.688-10.394 20.785-1.043 3.149-3.975 5.147-7.122 5.147z"/></g><circle cx="359.395" cy="52.184" fill="#ff5f7f" r="23.247"/><path d="m369.395 65.431c-12.839 0-23.247-10.408-23.247-23.247 0-3.843.938-7.464 2.589-10.658-7.476 3.865-12.589 11.662-12.589 20.658 0 12.839 10.408 23.247 23.247 23.247 8.996 0 16.793-5.113 20.658-12.589-3.194 1.651-6.815 2.589-10.658 2.589z" fill="#f6375d"/><circle cx="256" cy="293.358" fill="#423c4d" r="171.085"/><path d="m56.212 260.629c15.643-96.233 99.129-169.693 199.788-169.693s184.145 73.46 199.788 169.693z" fill="#5d576f"/><path d="m256.064 90.936c-.021 0-.043 0-.064 0-17.667 0-34.801 2.272-51.135 6.525-5.353-12.619-20.525-41.823-49.719-52.333-3.895-1.403-8.193.619-9.597 4.516s.619 8.194 4.517 9.597c15.388 5.54 26.123 18.282 32.42 27.997 3.587 5.533 6.192 10.755 7.899 14.584-30.912 10.59-58.451 28.443-80.571 51.535l-26.186-16.805c-11.256-7.223-26.235-3.954-33.459 7.301-7.223 11.256-3.954 26.236 7.301 33.459l23.185 14.879c-3.199 5.532-6.154 11.213-8.822 17.044-7.369 16.108-12.688 33.351-15.621 51.395h30c14.859-91.41 90.931-162.263 184.788-169.138-4.557-.334-10.005-.554-14.936-.556z" fill="#423c4d"/><path d="m56.212 260.629c-1.734 10.655-2.635 21.591-2.635 32.73 0 83.229 50.223 154.722 122.021 185.829 8.979 3.89 19.432 1.846 26.352-5.074l54.05-54.05 31.129-100.941-31.129-88.812c-79.311 0-150.592 11.701-199.788 30.318z" fill="#ff5f7f"/><path d="m199.358 476.352c-68.45-32.466-115.78-102.198-115.78-182.993 0-11.139.901-22.075 2.635-32.73.561-3.453 1.221-6.873 1.954-10.265-11.45 3.124-22.148 6.554-31.954 10.265-15.003 92.194 34.583 181.815 119.386 218.558 7.936 3.436 17.052 2.183 23.759-2.835z" fill="#f6375d"/><circle cx="148.71" cy="366.52" fill="#dcdcdc" r="37.851"/><path d="m455.788 260.629c-49.196-18.617-120.477-30.318-199.788-30.318v189.753l54.049 54.049c6.92 6.92 17.373 8.964 26.352 5.074 71.798-31.107 122.021-102.599 122.021-185.829.001-11.139-.9-22.074-2.634-32.729z" fill="#f6375d"/><circle cx="363.29" cy="366.52" fill="#dcdcdc" r="37.851"/><circle cx="256" cy="306.028" fill="#dcdcdc" r="37.854"/><circle cx="152.605" cy="52.184" fill="#ff5f7f" r="23.247"/><path d="m162.605 65.431c-12.839 0-23.247-10.408-23.247-23.247 0-3.843.938-7.464 2.589-10.658-7.476 3.865-12.589 11.662-12.589 20.658 0 12.839 10.408 23.247 23.247 23.247 8.996 0 16.793-5.113 20.658-12.589-3.194 1.651-6.815 2.589-10.658 2.589z" fill="#f6375d"/><path d="m103.358 366.526c0 25.007 20.345 45.352 45.352 45.352s45.352-20.345 45.352-45.352-20.345-45.351-45.352-45.351-45.352 20.344-45.352 45.351zm45.352-30.351c16.736 0 30.352 13.615 30.352 30.351s-13.616 30.352-30.352 30.352-30.352-13.616-30.352-30.352 13.616-30.351 30.352-30.351z"/><path d="m317.938 366.526c0 25.007 20.344 45.352 45.351 45.352s45.352-20.345 45.352-45.352-20.345-45.351-45.352-45.351-45.351 20.344-45.351 45.351zm75.703 0c0 16.736-13.616 30.352-30.352 30.352s-30.351-13.616-30.351-30.352 13.615-30.351 30.351-30.351 30.352 13.615 30.352 30.351z"/><path d="m175.852 180.016c4.142 0 7.5-3.358 7.5-7.5v-15.401c0-4.142-3.358-7.5-7.5-7.5s-7.5 3.358-7.5 7.5v15.401c0 4.142 3.357 7.5 7.5 7.5z"/><path d="m336.148 180.016c4.142 0 7.5-3.358 7.5-7.5v-15.401c0-4.142-3.358-7.5-7.5-7.5s-7.5 3.358-7.5 7.5v15.401c0 4.142 3.358 7.5 7.5 7.5z"/><path d="m256 189.184c10.266 0 20.028-4.446 26.785-12.199 2.722-3.123 2.396-7.86-.726-10.582-3.123-2.722-7.861-2.396-10.582.726-3.907 4.483-9.548 7.054-15.477 7.054s-11.569-2.571-15.476-7.054c-2.721-3.124-7.459-3.448-10.582-.727s-3.448 7.459-.727 10.582c6.756 7.753 16.519 12.2 26.785 12.2z"/><path d="m52.375 344.453c6.608 26.376 18.242 51.045 34.068 72.729l-23.338 14.977c-14.718 9.445-19.007 29.104-9.563 43.822 6.051 9.428 16.293 14.576 26.743 14.576 5.862 0 11.79-1.62 17.079-5.014l35.002-22.462c12.36 9.005 25.827 16.745 40.251 22.995 11.786 5.107 25.4 2.585 34.637-6.653l11.407-11.407c24.401 5.192 49.791 5.296 74.678 0l11.406 11.406c9.06 9.06 22.625 11.858 34.637 6.653 14.208-6.156 27.687-13.919 40.172-23.046l35.082 22.514c5.289 3.394 11.216 5.014 17.078 5.014 10.449 0 20.692-5.149 26.744-14.577 9.445-14.718 5.155-34.376-9.563-43.822l-23.379-15.003c4.41-6.014 8.51-12.261 12.254-18.726 2.076-3.584.854-8.173-2.731-10.249-3.582-2.076-8.172-.853-10.249 2.731-20.849 35.996-53.299 64.904-91.372 81.399-6.176 2.677-13.268 1.304-18.067-3.496l-51.851-51.851v-66.196c24.95-4.158 41.938-28.275 37.003-53.456-3.608-18.451-18.444-32.918-37.003-36.011v-23.445c59.143.57 130.19 8.29 185.535 28.284 4.64 33.225.745 67.38-11.694 98.849-1.523 3.852.365 8.209 4.218 9.732 3.85 1.521 8.209-.366 9.732-4.218 3.37-8.524 6.149-17.219 8.359-26.049h20.634c17.488 0 31.716-14.228 31.716-31.716-.001-17.487-14.229-31.714-31.715-31.715-9.117 0-5.61 0-14.726 0-1.825-31.365-10.461-60.46-24.246-86.31l17.269-11.082c14.751-9.466 19.031-29.067 9.563-43.821-9.445-14.717-29.104-19.007-43.821-9.562l-21.064 13.518c-22.89-22.544-49.811-38.774-78.343-48.685 3.205-6.022 7.826-13.327 14.001-19.979 19.593 17.533 51.226 3.808 51.226-22.909 0-16.954-13.793-30.747-30.747-30.747-21.085 0-36.039 20.911-29.012 40.911-9.438 9.409-15.993 20.21-20.041 28.251-35.624-9.544-73.013-9.557-108.682 0-4.048-8.041-10.602-18.842-20.041-28.251 7.016-19.967-7.899-40.911-29.013-40.911-16.954 0-30.747 13.793-30.747 30.747 0 26.427 31.484 40.576 51.226 22.909 6.176 6.651 10.797 13.956 14.001 19.979-28.533 9.912-55.451 26.14-78.343 48.685l-21.065-13.518c-14.716-9.444-34.375-5.155-43.821 9.563-9.467 14.753-5.192 34.353 9.563 43.821l17.269 11.082c-13.757 25.797-22.417 54.886-24.246 86.31h-14.73c-17.487-.001-31.715 14.227-31.715 31.714 0 17.488 14.228 31.716 31.715 31.716zm393.459 123.425c-4.979 7.757-15.339 10.019-23.097 5.041l-30.683-19.691c8.689-7.402 16.774-15.508 24.157-24.22l24.582 15.775c7.757 4.978 10.019 15.339 5.041 23.095zm-86.439-431.435c8.683 0 15.747 7.064 15.747 15.747s-7.064 15.747-15.747 15.747-15.747-7.064-15.747-15.747 7.064-15.747 15.747-15.747zm-206.791 31.494c-8.683 0-15.747-7.064-15.747-15.747s7.064-15.747 15.747-15.747 15.747 7.064 15.747 15.747c.001 8.683-7.063 15.747-15.747 15.747zm-63.341 404.981c-7.756 4.977-18.118 2.717-23.096-5.04s-2.717-18.118 5.04-23.096l24.551-15.755c7.349 8.686 15.418 16.793 24.148 24.226zm166.737-197.238c16.737 0 30.354 13.617 30.354 30.354s-13.617 30.354-30.354 30.354-30.354-13.617-30.354-30.354 13.617-30.354 30.354-30.354zm24.449 179.446c-16.15 2.422-32.745 2.423-48.898 0l24.449-24.45zm216.551-142.389c0 9.217-7.499 16.716-16.716 16.716h-17.46c1.952-11.266 2.948-22.726 3.081-33.432h14.378c9.217 0 16.717 7.5 16.717 16.716zm-83.263-157.876 18.686-11.992c7.757-4.978 18.119-2.716 23.096 5.041 4.989 7.775 2.736 18.105-5.041 23.095l-16.691 10.711c-5.175-8.223-11.061-16.297-17.653-24.07-.582-.688-2.308-2.684-2.397-2.785zm-335.526 26.855-16.691-10.711c-7.757-4.978-10.018-15.339-5.04-23.095 4.972-7.748 15.332-10.023 23.096-5.041l18.687 11.992c-7.371 8.391-14.121 17.431-20.052 26.855zm177.789-83.274c91.623 0 169.65 63.598 189.888 150.732-86.025-28.503-205.965-32.27-297.451-18.806-4.098.603-6.931 4.414-6.328 8.512.606 4.118 4.437 6.934 8.512 6.328 32.078-4.721 65.842-7.079 97.879-7.354v23.446c-24.903 4.16-41.94 28.207-37.004 53.455 3.664 18.73 18.713 32.957 37.004 36.012v66.196l-51.853 51.852c-4.799 4.8-11.89 6.171-18.067 3.496-80.075-34.693-127.826-118.733-115.615-206.174 9.547-3.449 19.182-6.395 28.75-8.965 29.32-7.874 31.209-5.946 34.324-9.19 5.106-5.264.35-14.011-6.841-12.58-17.549 3.491-35.422 7.948-52.414 13.551-.221.073-.451.143-.672.216 20.21-86.99 98.088-150.727 189.888-150.727zm-241 214.295c0-9.217 7.499-16.716 16.715-16.716h14.378c.133 10.977 1.2 22.558 3.083 33.432h-17.461c-9.216 0-16.715-7.499-16.715-16.716z"/></svg>