<svg height="512pt" viewBox="0 0 512 512" width="512pt" xmlns="http://www.w3.org/2000/svg"><path d="m512 256c0 141.386719-114.613281 256-256 256s-256-114.613281-256-256 114.613281-256 256-256 256 114.613281 256 256zm0 0" fill="#6c533a"/><path d="m267.308594 50-14.308594 14.308594 42.894531 42.894531-83.347656 83.34375 82.648437 82.648437-138.699218 138.699219 100.09375 100.097657c128.847656-.292969 235.320312-95.777344 252.855468-219.855469zm0 0" fill="#593927"/><path d="m244.75 50h22.5v33.75h-22.5zm0 0" fill="#707741"/><path d="m321.625 194v-44.625c0-36.242188-26.085938-65.625-65.625-65.625l-37.5 158.25 37.5 180.75c8.621094 0 16.601562-1.675781 23.8125-4.75 7.210938 3.074219 15.191406 4.75 23.8125 4.75 39.539062 0 65.625-35.257812 65.625-78.75 0-75-47.625-75-47.625-150zm0 0" fill="#eb7330"/><path d="m190.375 149.375v44.625c0 75-47.625 75-47.625 150 0 43.492188 26.085938 78.75 65.625 78.75 8.621094 0 16.601562-1.675781 23.8125-4.75 7.210938 3.074219 15.191406 4.75 23.8125 4.75v-339c-39.539062 0-65.625 29.382812-65.625 65.625zm0 0" fill="#f9963b"/><path d="m303.625 434c-8.289062 0-16.277344-1.324219-23.8125-3.945312-7.535156 2.621093-15.523438 3.945312-23.8125 3.945312-6.214844 0-11.25-5.035156-11.25-11.25s5.035156-11.25 11.25-11.25c6.878906 0 13.40625-1.296875 19.402344-3.847656l4.410156-1.878906 4.410156 1.878906c5.992188 2.550781 12.523438 3.847656 19.402344 3.847656 31.507812 0 54.375-28.386719 54.375-67.5 0-34.230469-10.714844-51.105469-22.058594-68.96875-11.984375-18.871094-25.566406-40.261719-25.566406-81.03125v-44.625c0-31.507812-22.867188-54.375-54.375-54.375-6.214844 0-11.25-5.035156-11.25-11.25s5.035156-11.25 11.25-11.25c21.835938 0 41.628906 8.046875 55.734375 22.65625 13.632813 14.125 21.140625 33.378906 21.140625 54.21875v44.625c0 34.230469 10.714844 51.105469 22.058594 68.96875 11.984375 18.871094 25.566406 40.261719 25.566406 81.03125 0 24.046875-7.269531 46.328125-20.46875 62.734375-14.144531 17.582031-34.175781 27.265625-56.40625 27.265625zm0 0" fill="#fcba66"/><path d="m256 434c-8.289062 0-16.277344-1.324219-23.8125-3.945312-7.535156 2.621093-15.523438 3.945312-23.8125 3.945312-22.230469 0-42.261719-9.683594-56.40625-27.265625-13.199219-16.40625-20.46875-38.6875-20.46875-62.734375 0-40.769531 13.582031-62.160156 25.566406-81.03125 11.34375-17.863281 22.058594-34.738281 22.058594-68.96875v-44.625c0-20.839844 7.507812-40.09375 21.140625-54.21875 14.105469-14.609375 33.898437-22.65625 55.734375-22.65625v22.5c-31.507812 0-54.375 22.867188-54.375 54.375v44.625c0 40.769531-13.582031 62.160156-25.566406 81.03125-11.34375 17.863281-22.058594 34.738281-22.058594 68.96875 0 39.113281 22.867188 67.5 54.375 67.5 6.878906 0 13.40625-1.296875 19.402344-3.847656l4.410156-1.878906 4.410156 1.878906c5.992188 2.550781 12.523438 3.847656 19.402344 3.847656zm0 0" fill="#fedd90"/><path d="m255.625 265.25-22.5 56.25 22.5 56.25c31.015625 0 56.25-25.234375 56.25-56.25s-25.234375-56.25-56.25-56.25zm0 0" fill="#d95d27"/><path d="m199.375 321.5c0 31.015625 25.234375 56.25 56.25 56.25v-112.5c-31.015625 0-56.25 25.234375-56.25 56.25zm0 0" fill="#eb7330"/></svg>