<svg height="512pt" viewBox="0 0 512 512" width="512pt" xmlns="http://www.w3.org/2000/svg"><path d="m512 256c0 141.386719-114.613281 256-256 256s-256-114.613281-256-256 114.613281-256 256-256 256 114.613281 256 256zm0 0" fill="#bfb053"/><path d="m511 256c0-14.023438-1.144531-27.773438-3.3125-41.183594l-110.277344-110.277344-122.683594 122.6875 30.105469 30.105469-21.5625 21.5625 30.25 30.25-2.039062 2.035157-112.125-112.128907-57.984375 57.984375 61 61-88.667969 88.667969 101.960937 101.957031c13.457032 2.1875 27.261719 3.339844 41.335938 3.339844 70.515625 0 134.367188-28.515625 180.667969-74.636719l-1.003907-1.003906c45.941407-46.273437 74.335938-110 74.335938-180.359375zm0 0" fill="#a59d4d"/><path d="m210.707031 218.847656c-4.410156-18.136718-20.648437-31.207031-39.839843-31.207031-19.191407 0-35.429688 13.070313-39.839844 31.207031-30.375 17.792969-49.027344 55.8125-49.027344 100.726563 0 29.8125 8.378906 57.40625 23.597656 77.691406 16.316406 21.753906 39.496094 33.734375 65.269532 33.734375 25.773437 0 48.953124-11.980469 65.269531-33.734375 15.21875-20.285156 23.597656-47.878906 23.597656-77.691406 0-44.914063-18.652344-82.933594-49.027344-100.726563zm0 0" fill="#fedd90"/><path d="m170.867188 249.164062c-27.726563 0-47.851563 29.609376-47.851563 70.410157 0 40.796875 20.125 70.410156 47.851563 70.410156 27.726562 0 47.851562-29.613281 47.851562-70.410156 0-40.800781-20.125-70.410157-47.851562-70.410157zm0 0" fill="#fff2a3"/><path d="m406.402344 114.734375c-16.316406-21.753906-39.496094-33.734375-65.269532-33.734375-25.773437 0-48.953124 11.980469-65.269531 33.734375-15.21875 20.285156-23.597656 47.878906-23.597656 77.691406 0 44.914063 18.652344 82.933594 49.027344 100.726563 4.410156 18.136718 20.648437 31.207031 39.839843 31.207031 19.191407 0 35.429688-13.070313 39.839844-31.207031 30.375-17.792969 49.027344-55.8125 49.027344-100.726563 0-29.816406-8.378906-57.40625-23.597656-77.691406zm0 0" fill="#e3c281"/><path d="m341.132812 122.015625c-27.726562 0-47.851562 29.613281-47.851562 70.410156 0 40.800781 20.125 70.410157 47.851562 70.410157 27.726563 0 47.851563-29.609376 47.851563-70.410157 0-40.796875-20.125-70.410156-47.851563-70.410156zm0 0" fill="#fedd90"/></svg>