<?xml version="1.0" encoding="iso-8859-1"?>
<!-- Generator: Adobe Illustrator 19.0.0, SVG Export Plug-In . SVG Version: 6.00 Build 0)  -->
<svg version="1.1" id="Capa_1" xmlns="http://www.w3.org/2000/svg" xmlns:xlink="http://www.w3.org/1999/xlink" x="0px" y="0px"
	 viewBox="0 0 512 512" style="enable-background:new 0 0 512 512;" xml:space="preserve">
<circle style="fill:#FFEA3A;" cx="256" cy="256" r="256"/>
<path style="fill:#FFB80E;" d="M511.972,258.2l-88.534-88.534l-11.025,16.865L307.859,81.977l-3.212,124.42L99.487,182.69
	l-41.92,29.778l64.799,64.799L77,303.453L59.118,341.19l81.638,81.638l-14.736,23.739l53.954,53.954
	C203.993,507.98,229.527,512,256,512C396.649,512,510.788,398.57,511.972,258.2z"/>
<circle style="fill:#333333;" cx="256" cy="131.92" r="72"/>
<path style="fill:#1A1A1A;" d="M256,59.919c-0.016,0-0.032,0.001-0.048,0.001v143.998c0.016,0,0.032,0.001,0.048,0.001
	c39.765,0,72-32.235,72-72S295.765,59.919,256,59.919z"/>
<g>
	<polygon style="fill:#333333;" points="73.766,224.198 57.567,212.468 88.562,169.667 156.333,169.667 156.333,189.667 
		98.771,189.667 	"/>
	<polygon style="fill:#333333;" points="145.868,449.031 126.02,446.567 132.53,394.124 191.9,361.441 201.546,378.961 
		151.12,406.721 	"/>
	<polygon style="fill:#333333;" points="78.702,345.248 59.118,341.19 69.842,289.443 131.657,261.659 139.856,279.901 
		87.354,303.499 	"/>
</g>
<g>
	<polygon style="fill:#1A1A1A;" points="438.234,224.198 413.229,189.667 355.667,189.667 355.667,169.667 423.438,169.667 
		454.433,212.468 	"/>
	<polygon style="fill:#1A1A1A;" points="366.132,449.031 360.88,406.721 310.454,378.961 320.1,361.441 379.47,394.124 
		385.98,446.567 	"/>
	<polygon style="fill:#1A1A1A;" points="433.298,345.248 424.646,303.499 372.144,279.901 380.343,261.659 442.158,289.443 
		452.882,341.19 	"/>
</g>
<circle style="fill:#DE1F4B;" cx="256" cy="277.92" r="155.33"/>
<path style="fill:#B30034;" d="M256,122.585c85.788,0,155.333,69.545,155.333,155.333S341.788,433.252,256,433.252V122.585z"/>
<circle style="fill:#333333;" cx="149.67" cy="271.92" r="20"/>
<g>
	<circle style="fill:#1A1A1A;" cx="362.33" cy="275.92" r="20"/>
	<circle style="fill:#1A1A1A;" cx="303.8" cy="370.58" r="20"/>
	<circle style="fill:#1A1A1A;" cx="300.47" cy="185.25" r="20"/>
</g>
<g>
	<circle style="fill:#333333;" cx="211.53" cy="370.58" r="20"/>
	<circle style="fill:#333333;" cx="208.2" cy="185.25" r="20"/>
</g>
<g>
</g>
<g>
</g>
<g>
</g>
<g>
</g>
<g>
</g>
<g>
</g>
<g>
</g>
<g>
</g>
<g>
</g>
<g>
</g>
<g>
</g>
<g>
</g>
<g>
</g>
<g>
</g>
<g>
</g>
</svg>
