<svg id="Layer_1" enable-background="new 0 0 512 512" height="512" viewBox="0 0 512 512" width="512" xmlns="http://www.w3.org/2000/svg"><path d="m498.006 220.343c12.716-12.396 5.699-33.992-11.874-36.546l-134.594-19.558c-6.979-1.014-13.011-5.397-16.132-11.721l-60.193-121.962c-7.859-15.925-30.567-15.925-38.426 0l-60.192 121.963c-3.121 6.324-9.154 10.707-16.132 11.721l-134.595 19.557c-17.574 2.554-24.591 24.15-11.874 36.546l97.393 94.935c5.05 4.922 7.354 12.014 6.162 18.965l-22.991 134.05c-3.002 17.503 15.369 30.85 31.088 22.586l120.385-63.29c6.242-3.282 13.699-3.282 19.941 0l120.385 63.29c15.718 8.264 34.09-5.084 31.088-22.586l-22.991-134.05c-1.192-6.95 1.112-14.042 6.162-18.965z" fill="#ffa1ac"/><path d="m121.642 463.331 24.403-142.283c1.265-7.377-1.181-14.905-6.54-20.129l-103.374-100.766c-4.926-4.802-7.051-10.903-6.871-16.849l-3.392.493c-17.574 2.554-24.591 24.15-11.874 36.546l97.393 94.935c5.05 4.922 7.354 12.014 6.162 18.965l-22.991 134.05c-3.002 17.503 15.369 30.85 31.088 22.586l7.327-3.852c-7.864-4.421-13.101-13.374-11.331-23.696z" fill="#ff5f7f"/><circle cx="256" cy="172.199" fill="#ffc9d4" r="21.225"/><circle cx="256" cy="93.66" fill="#ff5f7f" r="16.485"/><circle cx="154.483" cy="246.332" fill="#ff5f7f" r="21.225"/><circle cx="79.672" cy="222.424" fill="#ffc9d4" r="16.485"/><circle cx="357.517" cy="246.332" fill="#ff5f7f" r="21.225"/><circle cx="432.328" cy="222.424" fill="#ffc9d4" r="16.485"/><circle cx="318.234" cy="364.483" fill="#ffc9d4" r="21.225"/><circle cx="364.252" cy="428.127" fill="#ff5f7f" r="16.485"/><circle cx="193.766" cy="364.483" fill="#ffc9d4" r="21.225"/><circle cx="147.748" cy="428.127" fill="#ff5f7f" r="16.485"/><path d="m487.212 176.383-134.595-19.558c-4.537-.66-8.457-3.508-10.486-7.619l-60.192-121.963c-4.908-9.945-14.847-16.124-25.938-16.124-.001 0 0 0 0 0-11.09 0-21.03 6.179-25.939 16.124l-16.607 33.647c-1.833 3.714-.308 8.212 3.406 10.045 3.714 1.834 8.211.308 10.045-3.406l16.606-33.647c2.399-4.861 7.067-7.763 12.488-7.763 5.42 0 10.088 2.902 12.487 7.763l60.193 121.964c4.214 8.538 12.356 14.454 21.779 15.824l134.595 19.558c5.364.78 9.567 4.323 11.242 9.478s.358 10.491-3.523 14.275l-97.394 94.935c-6.819 6.647-9.929 16.218-8.319 25.604l6.773 39.486c.626 3.653 3.797 6.233 7.383 6.233 4.671 0 8.184-4.201 7.401-8.769l-6.772-39.486c-.775-4.518.722-9.126 4.005-12.326l97.394-94.936c7.942-7.742 10.747-19.104 7.319-29.652-3.428-10.549-12.375-18.092-23.351-19.687z"/><path d="m413.629 401.692c-.7-4.082-4.575-6.829-8.66-6.124-4.083.7-6.824 4.578-6.124 8.66l11.207 65.341c.917 5.343-1.155 10.435-5.54 13.621-4.386 3.186-9.868 3.582-14.665 1.06l-120.386-63.289c-8.429-4.432-18.492-4.432-26.921 0l-120.386 63.29c-4.797 2.522-10.28 2.127-14.665-1.06-4.385-3.186-6.457-8.278-5.54-13.621l22.991-134.051c1.61-9.385-1.5-18.957-8.319-25.603l-97.394-94.936c-3.882-3.784-5.199-9.12-3.524-14.275s5.877-8.698 11.242-9.478l134.596-19.558c9.423-1.37 17.565-7.285 21.779-15.824l30.429-61.656c1.833-3.714.308-8.212-3.406-10.045-3.716-1.834-8.212-.308-10.045 3.406l-30.429 61.656c-2.029 4.111-5.949 6.959-10.485 7.619l-134.596 19.558c-10.976 1.595-19.923 9.138-23.351 19.687-3.427 10.548-.623 21.91 7.32 29.652l97.394 94.936c3.283 3.2 4.78 7.807 4.005 12.326l-22.992 134.05c-1.875 10.932 2.535 21.773 11.507 28.292 8.973 6.519 20.645 7.363 30.463 2.202l120.386-63.29c4.058-2.133 8.902-2.133 12.96 0l120.386 63.29c4.271 2.245 8.89 3.354 13.488 3.354 5.972 0 11.905-1.872 16.975-5.555 8.973-6.519 13.382-17.36 11.507-28.292z"/><path d="m256 200.932c15.839 0 28.725-12.886 28.725-28.725s-12.886-28.726-28.725-28.726-28.725 12.886-28.725 28.725 12.886 28.726 28.725 28.726zm0-42.451c7.568 0 13.725 6.157 13.725 13.725s-6.157 13.725-13.725 13.725-13.725-6.157-13.725-13.725c0-7.567 6.157-13.725 13.725-13.725z"/><path d="m256 117.652c13.225 0 23.985-10.76 23.985-23.985s-10.76-23.984-23.985-23.984-23.985 10.759-23.985 23.985 10.76 23.984 23.985 23.984zm0-32.969c4.954 0 8.984 4.03 8.984 8.984s-4.03 8.985-8.984 8.985-8.985-4.031-8.985-8.985 4.031-8.984 8.985-8.984z"/><path d="m163.226 218.978c-15.088-4.821-31.285 3.531-36.106 18.618-5.903 18.473 7.923 37.472 27.343 37.472 12.163 0 23.486-7.793 27.381-19.984 4.822-15.088-3.53-31.285-18.618-36.106zm4.33 31.54c-2.304 7.209-10.044 11.199-17.252 8.896-7.209-2.304-11.2-10.043-8.896-17.252 1.862-5.825 7.271-9.549 13.083-9.549 9.265 0 15.89 9.065 13.065 17.905z"/><path d="m68.678 201.114c-11.782 6.075-16.401 20.527-10.325 32.31 9.777 18.96 37.699 16.543 44.164-3.691 6.54-20.465-15.048-38.306-33.839-28.619zm15.11 29.303c-4.411 2.275-9.827.548-12.104-3.868-3.687-7.149 3.177-15.088 10.72-12.676 7.577 2.422 8.48 12.886 1.384 16.544z"/><path d="m348.773 218.978c-15.087 4.821-23.439 21.019-18.618 36.106 4.823 15.092 21.025 23.439 36.106 18.618 15.087-4.821 23.439-21.019 18.618-36.106s-21.019-23.441-36.106-18.618zm12.922 40.436c-7.206 2.303-14.948-1.687-17.252-8.896-2.82-8.825 3.785-17.904 13.065-17.904 5.811 0 11.221 3.724 13.083 9.549 2.304 7.208-1.687 14.947-8.896 17.251z"/><path d="m453.647 233.424c9.75-18.908-8.343-40.321-28.619-33.839-12.597 4.026-19.571 17.55-15.546 30.148 6.496 20.327 34.431 22.567 44.165 3.691zm-21.308-19.981c3.738 0 7.311 2.382 8.548 6.254 1.511 4.73-1.092 9.781-5.824 11.293-4.74 1.514-9.784-1.102-11.293-5.823-1.507-4.719 2.47-11.724 8.569-11.724z"/><path d="m301.403 341.214c-20.61 14.901-12.924 47.59 12.273 51.639 25.393 4.082 42.675-24.671 27.836-45.192-9.302-12.864-27.242-15.751-40.109-6.447zm24.873 34.4c-6.147 4.444-14.719 3.067-19.164-3.08-6.56-9.073-.008-21.762 11.104-21.762 13.291 0 18.83 17.056 8.06 24.842z"/><path d="m350.199 408.701c-10.717 7.75-13.132 22.773-5.383 33.489 4.684 6.479 12.025 9.923 19.468 9.923 19.416 0 30.873-22.169 19.404-38.03-7.749-10.717-22.771-13.132-33.489-5.382zm19.318 26.717c-4.014 2.902-9.643 1.998-12.546-2.017-4.295-5.94-.005-14.246 7.269-14.246 2.788 0 5.538 1.291 7.293 3.717 2.903 4.015 1.999 9.643-2.016 12.546z"/><path d="m217.043 381.323c14.894-20.599-2.639-49.249-27.836-45.192-15.674 2.519-26.323 17.243-23.803 32.92 4.066 25.29 36.758 32.851 51.639 12.272zm-15.236-27.953c6.133 4.434 7.515 13.031 3.081 19.164-7.098 9.816-22.727 6.251-24.674-5.864-1.923-11.961 11.652-20.489 21.593-13.3z"/><path d="m147.715 452.113c7.441 0 14.784-3.445 19.468-9.923 7.749-10.717 5.335-25.74-5.383-33.489-10.718-7.75-25.74-5.335-33.49 5.382-11.465 15.858-.014 38.03 19.405 38.03zm-7.249-29.241c2.903-4.015 8.53-4.918 12.545-2.016 4.015 2.903 4.919 8.53 2.017 12.545-2.903 4.015-8.531 4.919-12.545 2.017-4.015-2.903-4.92-8.531-2.017-12.546z"/><path d="m175.386 284.081c-4.142 0-7.5 3.358-7.5 7.5v15.491c0 4.142 3.358 7.5 7.5 7.5s7.5-3.358 7.5-7.5v-15.491c0-4.142-3.358-7.5-7.5-7.5z"/><path d="m329.113 291.581v15.491c0 4.142 3.358 7.5 7.5 7.5s7.5-3.358 7.5-7.5v-15.491c0-4.142-3.358-7.5-7.5-7.5s-7.5 3.358-7.5 7.5z"/><path d="m229.092 311.538c6.787 7.789 16.595 12.255 26.908 12.255s20.12-4.467 26.907-12.255c2.721-3.123 2.396-7.86-.727-10.582-3.123-2.721-7.86-2.396-10.582.727-3.938 4.519-9.623 7.11-15.599 7.11s-11.662-2.591-15.599-7.11c-2.721-3.124-7.459-3.448-10.582-.727-3.122 2.721-3.447 7.459-.726 10.582z"/></svg>