<?xml version="1.0" encoding="iso-8859-1"?>
<!-- Generator: Adobe Illustrator 19.0.0, SVG Export Plug-In . SVG Version: 6.00 Build 0)  -->
<svg version="1.1" id="Capa_1" xmlns="http://www.w3.org/2000/svg" xmlns:xlink="http://www.w3.org/1999/xlink" x="0px" y="0px"
	 viewBox="0 0 512 512" style="enable-background:new 0 0 512 512;" xml:space="preserve">
<circle style="fill:#FE9A35;" cx="256" cy="256" r="256"/>
<path style="fill:#FF7C11;" d="M512,256c0-9.311-0.51-18.501-1.479-27.554L396.537,114.462L125.008,405.083l105.671,105.671
	C239.009,511.572,247.454,512,256,512C397.385,512,512,397.385,512,256z"/>
<path style="fill:#70D975;" d="M317.355,381.028c-65.22,65.22-105.254,21.36-156.999-30.384s-95.604-91.779-30.384-156.999
	s266.565-79.182,266.565-79.182S382.575,315.808,317.355,381.028z"/>
<path style="fill:#45BF55;" d="M159.594,349.882c0.254,0.254,0.508,0.507,0.762,0.762c51.745,51.744,91.779,95.604,156.999,30.384
	s79.182-266.565,79.182-266.565L159.594,349.882z"/>
<polygon style="fill:#0A8F2C;" points="362.623,222.874 362.623,195.874 334.218,195.874 355.333,174.758 336.242,155.666 
	284.81,207.098 284.81,176.253 257.81,176.253 257.81,233.834 258.074,233.834 226.619,265.289 226.619,234.444 199.619,234.444 
	199.619,292.025 199.883,292.025 105.917,385.992 125.008,405.083 190.835,339.257 246.24,339.257 246.24,312.257 217.835,312.257 
	249.026,281.065 304.432,281.065 304.432,254.065 276.026,254.065 307.218,222.874 "/>
<polygon style="fill:#017F2B;" points="355.333,174.758 345.026,164.45 114.701,394.776 125.008,405.083 190.835,339.257 
	246.24,339.257 246.24,312.257 217.835,312.257 249.026,281.065 304.432,281.065 304.432,254.065 276.026,254.065 307.218,222.874 
	362.623,222.874 362.623,195.874 334.218,195.874 "/>
<g>
</g>
<g>
</g>
<g>
</g>
<g>
</g>
<g>
</g>
<g>
</g>
<g>
</g>
<g>
</g>
<g>
</g>
<g>
</g>
<g>
</g>
<g>
</g>
<g>
</g>
<g>
</g>
<g>
</g>
</svg>
