<svg id="Layer_1" enable-background="new 0 0 512 512" height="512" viewBox="0 0 512 512" width="512" xmlns="http://www.w3.org/2000/svg"><path d="m167.188 35.237c-27.454 0-51.242 15.629-62.999 38.464-2.26-.335-4.57-.513-6.923-.513-23.498 0-42.951 17.306-46.316 39.867-22.057.676-39.732 18.757-39.732 40.977 0 .105 0 .209.001.314.112 14.982 12.549 26.958 27.532 26.958h128.66c39.121 0 70.612-36.112 70.612-75.233s-31.714-70.834-70.835-70.834z" fill="#dcdcdc"/><path d="m124.04 257.323-116.54 219.44h497l-116.54-219.44-55.21-30.09h-153.786z" fill="#e7896e"/><path d="m166.349 234.145-42.309 23.178-116.54 219.44h30l116.54-219.44z" fill="#dd6642"/><path d="m387.96 257.323c-1.15.65-2.28 1.37-3.38 2.15-7.71 5.44-16.72 8.16-25.72 8.16s-18-2.72-25.71-8.16-16.71-8.16-25.72-8.16c-9 0-18.01 2.72-25.71 8.16-7.71 5.44-16.72 8.16-25.72 8.16s-18.01-2.72-25.72-8.16c-7.7-5.44-16.71-8.16-25.71-8.16-9.01 0-18.01 2.72-25.72 8.16s-16.71 8.16-25.71 8.16-18.01-2.72-25.72-8.16c-1.1-.78-2.23-1.5-3.38-2.15l101.16-190.49c6.05-11.4 17.9-18.52 30.8-18.52s24.75 7.12 30.8 18.52z" fill="#dcdcdc"/><path d="m255.2 66.833c3.57-6.727 9.167-11.946 15.8-15.109-4.813-2.295-10.057-3.409-14.989-3.411-.004 0-.007 0-.011 0-12.9 0-24.75 7.12-30.8 18.52l-101.16 190.49c1.15.65 2.28 1.37 3.38 2.15 6.437 4.542 13.78 7.18 21.267 7.93l5.353-10.08z" fill="#bab8bf"/><path d="m456.226 434.488c24.451 0 44.272-19.821 44.272-44.272 0-21.985-16.029-40.218-37.036-43.673-6.413-23.258-27.706-40.346-53.003-40.346-25.57 0-47.061 17.454-53.216 41.097-3.479-.878-7.12-1.349-10.871-1.349-16.064 0-30.128 8.556-37.887 21.359-5.806-3.861-12.772-6.116-20.268-6.116-20.241 0-36.65 16.409-36.65 36.65s16.409 36.65 36.65 36.65z" fill="#dcdcdc"/><path d="m187.478 199.809v11.726c0 4.142 3.358 7.5 7.5 7.5s7.5-3.358 7.5-7.5v-11.726c0-4.142-3.358-7.5-7.5-7.5s-7.5 3.358-7.5 7.5z"/><path d="m309.522 199.809v11.726c0 4.142 3.358 7.5 7.5 7.5s7.5-3.358 7.5-7.5v-11.726c0-4.142-3.358-7.5-7.5-7.5s-7.5 3.358-7.5 7.5z"/><path d="m266.434 206.258c-5.516 6.33-15.334 6.349-20.868 0-2.722-3.123-7.459-3.448-10.582-.726-3.123 2.721-3.448 7.459-.726 10.582 11.504 13.2 31.989 13.191 43.484 0 2.721-3.123 2.396-7.86-.727-10.582-3.122-2.722-7.86-2.397-10.581.726z"/><path d="m511.124 473.246-22.621-42.595c33.419-26.731 21.831-79.955-19.214-90.538-7.881-22.007-27.564-37.77-50.565-40.854-8.144-15.336-77.911-146.709-85.675-161.328-1.943-3.659-6.484-5.048-10.142-3.106-3.658 1.943-5.049 6.483-3.106 10.142l58.299 109.78c-12.466 7.568-28.403 7.222-40.626-1.402-18.012-12.709-42.066-12.726-60.078 0-12.836 9.056-29.954 9.058-42.789.002-18.012-12.724-42.061-12.718-60.082-.002-12.7 8.96-28.793 8.627-40.626 1.402 8.516-16.035 92.958-175.044 97.918-184.384l.099-.17c.086-.146.172-.291.255-.438.009-.015.014-.032.022-.047 4.855-8.583 13.9-13.894 23.806-13.894 10.153 0 19.417 5.57 24.176 14.537l24.909 46.905c1.943 3.659 6.484 5.049 10.142 3.106s5.049-6.483 3.106-10.142l-24.908-46.904c-7.367-13.88-21.708-22.503-37.425-22.503-11.706 0-22.643 4.788-30.509 12.963-14.767-16.457-35.904-26.04-58.304-26.04-27.738 0-53.021 14.442-67.158 38.022-.923-.047-1.846-.071-2.764-.071-24.687 0-46.297 17.004-52.525 40.415-23.435 3.572-41.023 23.586-41.023 47.93l.001.371c.143 18.969 15.858 34.401 35.032 34.401h113.185c-5.076 9.558-78.927 148.619-83.987 158.148-1.943 3.658-.552 8.199 3.106 10.142 3.658 1.942 8.199.552 10.142-3.106l45.655-85.967c17.13 10.031 39.184 9.674 56.323-2.418 12.825-9.049 29.952-9.065 42.783 0 18.027 12.72 42.062 12.718 60.091-.003 12.816-9.055 29.945-9.053 42.779.003 16.807 11.858 38.849 12.65 56.322 2.418l16.613 31.282c-22.418 3.139-41.539 18.291-49.647 39.461-17.42-1.934-34.668 4.893-45.898 18.754-29.058-13.001-62.15 8.357-62.15 40.321 0 24.345 19.806 44.15 44.15 44.15 174.912-.127 174.379 1.472 187.336-3.742l16.472 31.017h-472.049l46.504-87.565c1.942-3.659.552-8.199-3.106-10.142-3.657-1.942-8.198-.552-10.142 3.106l-52.355 98.583c-1.234 2.324-1.16 5.126.196 7.382s3.795 3.636 6.428 3.636h497c2.632 0 5.072-1.38 6.428-3.636s1.43-5.057.196-7.382zm-351.223-299.441h-121.151c-10.965 0-19.951-8.754-20.032-19.493l-.001-.279c0-18.216 14.259-32.922 32.462-33.48 3.626-.111 6.653-2.802 7.188-6.39 2.847-19.083 19.569-33.474 38.898-33.474 1.93 0 3.889.146 5.823.432 3.18.471 6.298-1.132 7.768-3.986 10.925-21.217 32.509-34.398 56.331-34.398 19.387 0 37.611 8.878 49.596 23.956-4.973 9.364-50.187 94.505-56.882 107.112zm128.316 253.184c-16.074 0-29.15-13.077-29.15-29.15 0-23.335 26.103-37.035 45.265-24.29 3.566 2.373 8.368 1.271 10.567-2.358 8.55-14.106 24.953-20.554 40.509-16.625 3.947.996 8.048-1.364 9.094-5.382 5.619-21.583 25.824-36.826 48.96-35.381 20.041 1.274 37.382 15.191 42.77 34.734.778 2.821 3.125 4.932 6.013 5.407 17.819 2.931 30.753 18.186 30.753 36.273 0 18.741-14.427 36.234-36.772 36.772z"/></svg>