<?xml version="1.0" encoding="UTF-8" standalone="no"?>
<!-- Created with Inkscape (http://www.inkscape.org/) -->

<svg
   xmlns:dc="http://purl.org/dc/elements/1.1/"
   xmlns:cc="http://creativecommons.org/ns#"
   xmlns:rdf="http://www.w3.org/1999/02/22-rdf-syntax-ns#"
   xmlns:svg="http://www.w3.org/2000/svg"
   xmlns="http://www.w3.org/2000/svg"
   xmlns:sodipodi="http://sodipodi.sourceforge.net/DTD/sodipodi-0.dtd"
   xmlns:inkscape="http://www.inkscape.org/namespaces/inkscape"
   version="1.1"
   id="svg939"
   width="1500"
   height="1500"
   viewBox="0 0 1500 1500"
   sodipodi:docname="monochrome.svg"
   inkscape:version="0.92.5 (2060ec1f9f, 2020-04-08)">
  <metadata
     id="metadata945">
    <rdf:RDF>
      <cc:Work
         rdf:about="">
        <dc:format>image/svg+xml</dc:format>
        <dc:type
           rdf:resource="http://purl.org/dc/dcmitype/StillImage" />
        <dc:title />
      </cc:Work>
    </rdf:RDF>
  </metadata>
  <defs
     id="defs943" />
  <sodipodi:namedview
     pagecolor="#ffffff"
     bordercolor="#666666"
     borderopacity="1"
     objecttolerance="10"
     gridtolerance="10"
     guidetolerance="10"
     inkscape:pageopacity="0"
     inkscape:pageshadow="2"
     inkscape:window-width="1920"
     inkscape:window-height="1043"
     id="namedview941"
     showgrid="false"
     inkscape:zoom="0.13966667"
     inkscape:cx="-1860.7483"
     inkscape:cy="884.0705"
     inkscape:window-x="0"
     inkscape:window-y="0"
     inkscape:window-maximized="1"
     inkscape:current-layer="svg939" />
  <path
     style="fill:#000000;stroke-width:23.9;opacity:0.99;stroke-miterlimit:4;stroke-dasharray:none;stroke:#000000;stroke-opacity:1"
     d="m 714.87669,1488.0728 c -111.27034,-6.6157 -207.60594,-31.8686 -302.16734,-79.2089 -210.3484,-105.3066 -357.721004,-302.87 -397.776204,-533.24731 -3.3683,-19.3727 -7.7029003,-53.0202 -10.0482003,-78 -2.6053,-27.7494 -1.0969,-83.2717 3.3868,-124.6667 C 25.413546,514.69143 94.297946,365.13087 203.00605,250.14636 311.41095,135.48267 450.17505,59.161667 604.87665,29.115457 c 52.85918,-10.26632 82.96624,-12.86057 147.33337,-12.69534 49.81992,0.12788 55.09004,0.37161 80,3.69975 33.82677,4.51948 53.99436,7.92343 76.66667,12.94005 241.92831,53.53058 441.24141,221.952333 531.74851,449.333373 36.8521,92.58366 53.8685,186.0402 51.8114,284.5566 -0.8201,39.2812 -2.8669,63.8326 -8.1721,98.0256 -34.0995,219.77741 -167.0399,412.96181 -360.5869,523.99231 -100.4971,57.6513 -213.21982,91.2482 -330.80091,98.595 -19.93651,1.2458 -61.09947,1.515 -78,0.51 z m 64,-27.1005 c 62.77244,-2.5496 117.66841,-11.4975 175.85398,-28.6636 85.15093,-25.1217 168.43513,-67.8871 238.57453,-122.5051 36.3907,-28.3377 81.5447,-72.2028 78.3219,-76.0862 -1.3635,-1.6428 -9.9116,-6.7432 -32.2461,-19.2401 -4.1226,-2.3067 -8.4838,-4.1941 -9.6917,-4.1941 -3.7182,0 -20.6412,-6.363 -24.8012,-9.3252 -2.1646,-1.5413 -8.1872,-3.6889 -13.3834,-4.7723 -5.1962,-1.0835 -12.5632,-3.4804 -16.3712,-5.3265 -3.8079,-1.8462 -12.0235,-4.505 -18.2568,-5.9085 -6.2334,-1.4035 -16.2236,-4.6779 -22.2006,-7.2763 -5.977,-2.5985 -12.0898,-4.7245 -13.584,-4.7245 -1.4941,0 -6.5039,-0.8505 -11.1327,-1.8899 -4.6288,-1.0395 -12.3161,-2.2688 -17.0827,-2.7318 -4.7667,-0.4631 -19.1667,-2.2892 -32,-4.0581 -12.8334,-1.7689 -31.1334,-4.1532 -40.6667,-5.2984 -19.3757,-2.3274 -42.92757,-5.3536 -57.99998,-7.4524 -5.5,-0.7659 -20.2,-1.9566 -32.66667,-2.646 -12.46666,-0.6894 -28.36666,-1.8187 -35.33333,-2.5096 -33.54327,-3.3266 -42.86053,-4.0391 -52.05773,-3.9809 -5.46826,0.035 -18.04227,-0.5291 -27.94227,-1.2527 -9.9,-0.7237 -35.4,-1.3558 -56.66667,-1.4048 -40.61465,-0.094 -65.76173,-1.1162 -68,-2.7651 -3.04856,-2.2459 -39.3332,-4.1913 -73.6667,-3.9496 -11.4646,0.081 -17.9825,0.01 -21.3333,-0.2408 -2.0167,-0.1493 -12.6667,0.4129 -23.6667,1.2492 -11,0.8362 -29,1.7858 -40,2.1102 -11,0.3244 -23,1.234 -26.6666,2.0213 -3.6667,0.7873 -15.0667,2.0124 -25.3334,2.7224 -10.2666,0.71 -26.1553,2.2272 -35.3081,3.3715 -9.1528,1.1442 -19.3528,1.9562 -22.6667,1.8044 -5.4679,-0.2506 -16.8857,1.1182 -18.7046,2.2423 -0.4047,0.2501 -7.9173,1.1206 -16.6948,1.9344 -8.7775,0.8137 -18.1256,2.0603 -20.7735,2.7701 -2.6478,0.7097 -8.5034,1.5773 -13.0123,1.9279 -4.509,0.3506 -9.8647,1.4993 -11.9017,2.5526 -3.8505,1.9912 -18.4709,5.2457 -30.6604,6.8251 -4.2929,0.5562 -8.4694,2.0898 -10.6666,3.9167 -5.1208,4.2576 -7.7847,5.4458 -17.7249,7.9063 -6.7879,1.6801 -10.3252,1.8804 -15.5881,0.8823 -10.9079,-2.0687 -26.9827,0.3283 -35.7178,5.326 -3.9859,2.2806 -7.2471,4.6644 -7.2471,5.2974 0,0.6331 1.95,1.3433 4.3333,1.5782 4.0341,0.3977 3.5508,0.8031 -7,5.8719 -6.2333,2.9946 -13.2833,6.2132 -15.6667,7.1524 -2.3833,0.9392 -4.3333,2.4778 -4.3333,3.419 0,4.724 49.7759,56.0367 77.4452,79.8363 30.9576,26.6279 82.8842,63.4297 117.8457,83.5201 21.6469,12.4393 62.3741,31.8721 87.3758,41.691 84.4463,33.1644 165.1038,49.176 258.66664,51.3487 4.03333,0.093 21.13333,-0.3901 38,-1.0752 z m 528.76551,-265.7719 c 35.8679,-44.3979 68.4846,-96.7253 91.9914,-147.5838 34.015,-73.59381 53.4272,-144.41881 62.8566,-229.33341 2.3146,-20.8417 2.3082,-112.3305 -0.013,-134.6666 -4.1748,-40.23787 -13.0152,-87.46644 -22.8715,-122.18779 C 1406.2614,443.95224 1344.8812,339.53089 1258.2551,252.90479 1202.2866,196.93631 1142.9555,154.22353 1071.5433,118.48993 984.3547,74.862027 898.84503,51.464187 797.49019,43.501317 767.55479,41.149457 695.97951,42.597767 666.22349,46.157467 533.62935,62.019627 416.58445,108.56526 312.21005,186.93911 158.25275,302.54433 56.718846,479.07883 34.981346,668.94989 c -7.977,69.676 -5.1193,145.3859 8.0773,214 11.6835,60.747 31.1902,118.15191 59.806504,176.00001 19.4576,39.3337 38.8491,71.7114 61.2891,102.3333 6.8013,9.2813 8.0215,10.3334 11.9841,10.3334 2.4791,0 5.2135,-0.9667 6.2418,-2.2066 1.0064,-1.2136 3.6701,-2.9757 5.9192,-3.9159 2.2491,-0.9402 7.3354,-3.8472 11.3029,-6.4601 3.9675,-2.6129 7.7801,-4.7508 8.4724,-4.7508 0.6923,0 2.2342,-0.8827 3.4263,-1.9616 1.202,-1.0878 6.8915,-2.4983 12.7717,-3.1662 5.8322,-0.6625 14.4442,-2.7744 19.1378,-4.6931 10.2665,-4.1968 17.6373,-5.9711 48.1329,-11.5864 12.8333,-2.3631 23.7689,-4.6788 24.3013,-5.1459 0.5323,-0.4671 2.5201,-13.1337 4.4172,-28.148 1.8971,-15.0143 4.961,-33.8988 6.8086,-41.9654 1.8476,-8.0667 4.5153,-24.2667 5.9282,-36 6.5164,-54.11651 23.7397,-164.76281 33.8302,-217.33341 2.5715,-13.3973 2.6398,-12.6666 -1.1834,-12.6666 -1.7771,0 -6.1271,-2.1941 -9.6666,-4.8757 -11.183,-8.4725 -39.6841,-34.6395 -47.8079,-43.8925 l -7.8122,-8.8982 -1.5959,-14.8335 c -3.2619,-30.3185 -4.9264,-80.3173 -3.3569,-100.83348 1.7456,-22.81614 4.8394,-38.63946 8.6938,-44.46437 3.4865,-5.26881 12.2051,-9.66073 24.1803,-12.18061 7.771,-1.63523 15.1703,-1.73654 45.93,-0.62888 77.6408,2.79585 95.3199,4.43486 104.6138,9.69865 9.2941,5.26384 10.2709,7.74663 8.4885,21.57521 -0.8507,6.6 -1.5968,14.4 -1.6579,17.33334 -0.1292,6.20041 -1.8348,5.96049 20.5556,2.8914 8.4333,-1.15598 26.338,-2.52294 39.7882,-3.0377 15.774,-0.60368 24.6148,-1.45378 24.9054,-2.3948 0.2478,-0.8024 0.8465,-5.56238 1.3306,-10.57776 0.636,-6.58917 1.6379,-9.87658 3.6116,-11.85026 2.644,-2.64408 2.7362,-4.23986 2.8811,-49.90627 l 0.1497,-47.17484 -12.419,-12.30823 c -27.5507,-27.30482 -29.4012,-33.80942 -25.5025,-89.64154 1.7429,-24.95967 3.8572,-31.68278 10.8665,-34.55491 7.1183,-2.9168 51.3996,-8.77843 66.316,-8.77843 15.5616,0 19.7318,1.39364 27.9052,9.32568 6.3211,6.13438 9.92982,15.99608 10.24898,28.00766 l 0.2303,8.66666 5.17728,0.93503 c 10.14988,1.83311 44.06305,2.86784 44.98714,1.37261 0.48423,-0.7835 -0.32308,-7.62325 -1.79402,-15.19942 -2.8695,-14.77952 -3.47814,-29.13023 -1.40014,-33.013 0.70531,-1.31788 2.95531,-3.07334 5,-3.901 2.98608,-1.20874 49.7459,-8.19422 54.85092,-8.19422 4.90948,0 7.28603,-10.69454 3.98602,-17.93726 -1.2934,-2.83871 -2.44824,-3.39607 -7.03666,-3.39607 -7.26248,0 -10.70481,-2.64849 -13.2852,-10.22152 -3.18813,-9.35667 -2.66117,-13.48943 3.28884,-25.79329 8.75722,-18.10882 12.25008,-31.82811 11.54392,-45.34224 -0.42122,-8.06115 -1.42104,-12.97927 -3.44516,-16.94688 -6.24373,-12.23874 -1.77052,-20.51648 12.09283,-22.37792 7.90036,-1.06079 15.72212,-3.89896 15.72212,-5.70487 0,-0.65421 -0.89351,-4.13483 -1.98557,-7.73471 -2.72502,-8.98278 -2.45378,-15.82925 1.80629,-45.59212 2.98517,-20.85597 4.1878,-26.2209 6.36607,-28.39916 2.01654,-2.01654 7.38754,-3.49525 21.55884,-5.93542 20.69541,-3.563583 23.98802,-3.190003 26.8284,3.04394 1.7742,3.89394 1.43964,7.00991 -4.14948,38.64683 -2.23247,12.63677 -3.70187,24.39903 -3.26534,26.13833 0.76715,3.05651 1.34123,3.18839 17.15059,3.94002 21.66109,1.02984 44.51449,7.88044 82.35687,24.68752 21.50566,9.55138 28.28332,10.88498 55.33333,10.8876 31.79618,0.003 40.94038,-2.05058 65.99998,-14.82267 36.7673,-18.73911 47.9469,-21.71177 56.0407,-14.90127 4.0164,3.37956 4.2135,3.97264 3.6555,11 -0.4956,6.24158 -2.0622,9.92459 -9.8097,23.06156 -12.4584,21.12523 -19.1506,30.05408 -32.6627,43.57911 -19.5793,19.59809 -33.1658,28.31091 -54.5571,34.98684 -9.1172,2.84536 -12.413,3.12096 -37.33335,3.12197 -15.03333,6.2e-4 -53.13333,-0.5416 -84.66666,-1.20492 -31.53334,-0.66332 -59.51603,-0.79638 -62.18376,-0.29569 l -4.85044,0.91035 0.6564,10.96764 c 0.47333,7.90877 0.0799,12.61605 -1.41092,16.87808 -1.13704,3.25073 -1.79424,6.35232 -1.46046,6.89241 0.3338,0.54008 6.20587,0.64793 13.04904,0.23965 16.18,-0.9653 23.81448,0.24419 28.9807,4.59127 3.62242,3.04807 4.02674,4.05627 3.30958,8.25259 -1.27592,7.46565 -6.19128,46.88992 -6.58057,52.7803 -0.15452,2.33803 1.01228,2.81236 9.46765,3.84883 13.24887,1.62405 13.57831,1.24965 13.13654,-14.92904 -0.38872,-14.23565 1.01693,-19.22428 9.55704,-33.91805 6.59538,-11.34775 8.86317,-12.1738 33.66253,-12.26176 49.40541,-0.17524 88.63598,1.04346 91.64948,2.84709 7.4181,4.43979 9.5096,14.07476 13.1143,60.41293 2.1397,27.50512 1.8928,38.30359 -1.0219,44.70076 -2.3303,5.11438 -37.69164,36.13979 -54.85764,48.13108 -8.18633,5.71856 -20.36812,14.45128 -27.07064,19.40606 l -12.1864,9.00866 -0.88267,13.71006 c -1.38685,21.5413 -3.49033,40.03322 -4.8409,42.5568 -0.68034,1.2712 -1.23696,2.89202 -1.23696,3.60182 0,1.83752 7.31248,4.14823 10.4943,3.31616 3.10798,-0.81274 15.85423,3.05542 18.95919,5.75363 1.76891,1.5372 2.16355,5.75799 2.38211,25.47748 0.15272,13.77996 0.82408,24.19847 1.61006,24.98627 1.87739,1.8817 28.32142,2.59316 31.57927,0.84961 1.4423,-0.77188 9.90168,-1.81481 18.79868,-2.31763 l 16.1764,-0.9142 v -16.18409 c 0,-14.13189 0.3804,-16.93847 3,-22.13328 2.227,-4.41644 3.6634,-5.83395 5.575,-5.50191 1.5064,0.26167 3.5299,-0.81873 4.8763,-2.6037 2.1322,-2.82678 2.5799,-2.91318 6.0917,-1.17587 2.7619,1.36633 10.8449,1.98873 29.7903,2.29387 14.3,0.23032 29.9,0.67713 34.6667,0.99294 8.6252,0.57144 16.4393,0.71046 25.3333,0.45068 5.0038,-0.14616 31.869,4.49291 40.6667,7.0223 8.5328,2.45325 12.1021,4.78528 16.5211,10.79417 3.5879,4.87872 4.1455,6.7504 4.1455,13.91383 0,8.01604 -2.0388,28.83565 -5.9276,60.53118 -1.0347,8.4333 -2.2578,19.5333 -2.718,24.6667 -1.1179,12.4701 -3.8551,21.7365 -10.0751,34.1075 -6.4787,12.8855 -17.8441,26.3416 -41.2303,48.8145 -19.6656,18.8978 -23.1294,23.9421 -31.869,46.4113 -7.2731,18.699 -8.2199,25.1893 -9.5823,65.6868 -0.6974,20.7277 -2.47,49.2277 -3.9393,63.3333 -3.8459,36.92301 -4.8936,50.21681 -7.4633,94.70481 -2.1951,38.0011 -2.1911,40.2865 0.091,52.6667 3.9807,21.5904 2.1874,19.4805 19.3802,22.8024 3.3,0.6376 9.6,2.0516 14,3.1422 4.4,1.0907 11.9,2.7152 16.6667,3.6102 10.9236,2.0509 28.1615,8.7555 48.4842,18.8576 8.943,4.4455 17.5941,7.8627 19.9053,7.8627 10.6488,0 23.7176,6.6304 30.7063,15.5787 3.7048,4.7435 6.5078,7.0879 8.4746,7.0879 4.9943,0 5.1234,-2.8357 0.3081,-6.7658 -4.9064,-4.0044 -4.3526,-7.0745 0.6973,-3.8653 13.1269,8.3419 25.1017,16.4332 33.8252,22.8554 5.6461,4.1567 10.855,7.4103 11.5753,7.2301 0.7203,-0.1801 6.4755,-6.7218 12.7893,-14.5372 z m -1104.18445,2.4702 c 5.987,-3.7794 7.3727,-5.5132 5.3872,-6.7403 -0.7748,-0.4789 -2.5751,0.6123 -4.0007,2.4247 -1.4256,1.8124 -4.1015,3.6741 -5.9465,4.1371 -1.8449,0.4631 -3.3544,1.4305 -3.3544,2.1499 0,2.1162 2.3772,1.5241 7.9144,-1.9714 z m 834.35155,-88.8281 c 3.2973,-27.9852 5.734,-57.1826 5.734,-68.706 0,-14.7423 3.3128,-51.42881 6.7894,-75.18661 1.4487,-9.9 3.8387,-27 5.3111,-38 4.7829,-35.7323 17.3716,-104.1257 21.8185,-118.5388 1.6784,-5.4399 2.6773,-10.4965 2.2197,-11.2369 -0.4576,-0.7404 -2.5804,-1.785 -4.7172,-2.3213 l -3.8852,-0.9751 3.6396,-3.1306 c 2.0017,-1.7219 5.1119,-3.1306 6.9115,-3.1306 1.7996,0 4.3162,-1.3011 5.5924,-2.8912 9.1239,-11.3688 13.4217,-14.8678 25.5347,-20.7887 7.032,-3.4373 17.208,-9.2655 22.6132,-12.9515 5.4052,-3.6861 11.3181,-7.5149 13.1397,-8.5084 1.8216,-0.9935 4.3742,-2.8685 5.6724,-4.1666 1.2981,-1.2982 3.1048,-2.6085 4.0148,-2.9118 1.8011,-0.6004 3.1163,-7.2381 5.9008,-29.7818 2.2159,-17.9405 2.1754,-17.3256 2.0919,-31.7568 -0.038,-6.4662 0.8062,-15.1662 1.8747,-19.33335 1.5574,-6.07393 6.1446,-31.19703 6.1447,-33.65328 0,-0.32447 -10.95,-0.58995 -24.3333,-0.58995 -13.3834,0 -37.3834,-0.46814 -53.3334,-1.04033 l -29,-1.04032 v 9.44989 c 0,14.3419 -2.0848,20.88476 -7.8509,24.63862 -2.6486,1.72437 -8.1157,4.06232 -12.1491,5.19552 -13.2522,3.7233 -91.13127,5.4492 -97.28468,2.156 -3.29172,-1.7617 -6.71052,-9.4797 -6.72813,-15.18887 -0.007,-2.29379 0.69025,-9.87051 1.54962,-16.83717 1.62776,-13.19595 1.02382,-20.47864 -2.0465,-24.67755 -1.72771,-2.36279 -2.31222,-2.38033 -12.98304,-0.38968 -9.07318,1.69261 -18.98516,1.98465 -52.7229,1.55345 -35.08382,-0.44841 -41.85085,-0.22922 -43.48874,1.40867 -1.6974,1.69741 -1.68219,3.24092 0.12173,12.35575 1.1338,5.72881 1.98845,13.37977 1.89923,17.00213 -0.14076,5.71471 -0.76572,7.12599 -4.72352,10.66667 -5.54007,4.95617 -7.38759,6.1673 -17.49187,11.4667 l -7.89885,4.1426 -24.98998,-0.1365 c -17.04138,-0.093 -27.03978,-0.7285 -31.43448,-1.9974 -3.54449,-1.0234 -12.44452,-2.2525 -19.77785,-2.7313 -7.33333,-0.4788 -14.38733,-1.16572 -15.67556,-1.52641 -4.40105,-1.23227 -7.40828,-10.86165 -8.06951,-25.83923 -0.54798,-12.41282 -2.52554,-21.20362 -4.80229,-21.34761 -0.43228,-0.0273 -23.43597,-0.35105 -51.11933,-0.71939 l -50.3333,-0.66966 v 17.15362 c 0,16.26676 -0.1615,17.30538 -3.124,20.0885 l -3.124,2.93485 -48.5427,-0.74565 c -26.6984,-0.41012 -51.7599,-1.38271 -55.6921,-2.16132 -4.1475,-0.82126 -11.5118,-1.02951 -17.5391,-0.49596 -9.5105,0.84186 -10.6313,0.67814 -13.2441,-1.93464 -2.6083,-2.60831 -2.8267,-4.08468 -2.5334,-17.1275 0.5557,-24.71 -2.9199,-27.4857 -36.2006,-28.9108 -47.5688,-2.03693 -63.9356,5.86342 -73.9501,35.69591 -5.0502,15.04447 -6.93,34.96539 -6.0651,64.27509 0.696,23.5868 0.9846,25.8436 4.1864,32.7352 3.5018,7.5375 13.5968,19.1399 36.7439,42.2306 13.7173,13.6839 17.746,20.1812 17.7632,28.6477 0.02,9.6616 -3.9532,39.8312 -10.7611,81.7198 -3.5755,22 -7.7632,49.6 -9.306,61.3334 -3.0145,22.9258 -4.7802,32.2912 -9.888,52.44711 -3.1844,12.5661 -10.6234,48.2189 -12.0084,57.5529 -0.3808,2.5666 -1.6146,10.6666 -2.7418,18 -1.1271,7.3333 -2.41,18.494 -2.8509,24.8014 -1.3163,18.8302 3.7409,29.3001 12.5243,25.9296 2.4046,-0.9227 24.8732,-3.3932 37.6869,-4.1437 4.0334,-0.2362 12.1334,-1.0764 18,-1.8671 16.3704,-2.2063 45.3263,-4.1756 58.6667,-3.99 6.6,0.092 19.2,-0.1997 28,-0.6478 8.8,-0.4482 27.9639,-0.95 42.5865,-1.1153 l 26.5865,-0.3005 1.7619,-9.3333 c 1.2436,-6.5879 1.4074,-11.6866 0.5568,-17.3333 -1.7642,-11.7123 0.3321,-23.0145 5.612,-30.2562 2.3605,-3.2377 2.4377,-4.0219 0.7878,-8 -1.204,-2.9028 -1.7471,-8.9683 -1.5887,-17.7438 0.1324,-7.3334 0.2575,-20.5334 0.2781,-29.3334 0.033,-14.10801 0.4611,-17.10361 3.6213,-25.33331 2.63,-6.849 3.6659,-12.1811 3.8917,-20.0321 0.4315,-14.9993 2.4189,-21.2945 8.5566,-27.1023 3.2954,-3.1182 6.6453,-8.457 9.3276,-14.8656 4.9739,-11.8838 8.126,-15.5662 14.8816,-17.3853 4.3384,-1.1682 5.1562,-2.0103 5.9232,-6.0987 0.6872,-3.663 2.5595,-6.0538 8.2196,-10.4963 4.0313,-3.164 9.055,-6.0979 11.1636,-6.5196 2.1086,-0.4217 3.8339,-1.6284 3.8339,-2.6816 0,-2.985 7.22283,-8.3361 15.36254,-11.3816 8.8512,-3.3117 11.50317,-3.5071 10.45296,-0.7702 -0.42212,1.1 -0.11,2 0.69357,2 1.52201,0 1.6432,-1.117 1.46461,-13.4983 -0.12773,-8.8584 -0.77576,-8.4445 17.5244,-11.1932 16.62194,-2.4965 33.84594,-2.4859 45.83524,0.028 10.19154,2.1373 13.98566,5.1531 14.02042,11.1442 0.0107,1.9354 0.46122,4.1796 1,4.987 1.12705,1.689 21.68405,8.7309 27.44641,9.4018 4.54023,0.5286 10.97739,4.2807 15.37499,8.9617 8.168,8.6945 22.82485,33.5128 22.82485,38.6492 0,2.6219 1.33367,4.3277 5.38165,6.8831 7.39504,4.6682 9.75444,9.1492 13.90923,26.4162 1.97012,8.1876 5.08305,17.9896 6.91764,21.7822 3.05685,6.3194 3.31683,8.2694 3.11065,23.3334 -0.19937,14.56801 0.14908,17.42341 3.06346,25.10431 4.06176,10.7048 5.6259,29.6832 3.67392,44.5771 -1.01051,7.7103 -0.9733,11.719 0.1373,14.7903 1.20902,3.3435 1.07102,6.2171 -0.66849,13.9198 -2.45025,10.85 -2.86456,24.7703 -0.89169,29.9594 1.12789,2.9666 2.08992,3.4201 7.25464,3.4201 3.27488,0 6.32513,0.6 6.77836,1.3333 1.01082,1.6356 9.97936,1.7279 12.50416,0.1287 2.24733,-1.4234 0.83557,-4.0864 -2.24952,-4.2433 -1.24006,-0.063 -0.45464,-0.6605 1.74536,-1.3278 5.12352,-1.554 26.38278,0.5634 32.76006,3.2628 5.08008,2.1504 12.88008,2.5072 14.03284,0.6421 0.38379,-0.621 1.5978,-1.1291 2.6978,-1.1291 1.1,0 1.62919,0.6 1.17596,1.3333 -1.24473,2.014 2.36223,1.5979 5.55916,-0.6413 2.99043,-2.0946 14.56062,-2.0279 17.9517,0.1035 1.00236,0.63 9.92248,1.1587 19.82248,1.175 16.08144,0.026 18.59833,0.3493 23.61349,3.0295 3.0875,1.65 7.1021,3 8.9213,3 1.8193,0 3.6078,0.4854 3.9745,1.0787 0.3667,0.5933 5.3436,0.995 11.0599,0.8927 l 10.3933,-0.1861 1.6368,-13.8927 z m 19.734,-317.22591 c -0.4532,-0.7334 -2.1686,-1.3334 -3.812,-1.3334 -1.6434,0 -3.708,-0.72 -4.588,-1.6 -1.2444,-1.2444 -1.6,-1.2444 -1.6,0 0,2.6855 -4.2027,1.7793 -4.947,-1.0666 -0.8,-3.0595 -1.8525,-3.3338 -4.1139,-1.0724 -1.2369,1.2368 -3.8353,1.2177 -11.5895,-0.085 -5.4974,-0.9237 -10.5021,-1.3662 -11.1217,-0.9833 -2.0585,1.2722 -27.5021,-1.9302 -31.10754,-3.9152 -1.95051,-1.0739 -4.43504,-1.6116 -5.5212,-1.1948 -1.08616,0.4168 -5.19031,0.09 -9.12031,-0.7266 -3.93001,-0.8164 -10.2876,-1.6755 -14.12797,-1.909 -3.84039,-0.2336 -7.7748,-1.0822 -8.74316,-1.8859 -1.78309,-1.4798 -26.26107,-1.2173 -28.72928,0.3082 -0.6774,0.4186 -2.7428,-0.4275 -4.5898,-1.8804 -2.44749,-1.9252 -4.47776,-2.4176 -7.48673,-1.8158 -2.27072,0.4541 -4.88006,0.2339 -5.79855,-0.4893 -0.91848,-0.7233 -7.55709,-1.1655 -14.75245,-0.9828 -11.58843,0.2942 -13.26195,0.045 -14.65406,-2.1844 -1.91284,-3.0629 -3.5968,-3.259 -3.5968,-0.4187 0,3.2628 -4.60282,1.6558 -5.09273,-1.7781 -0.48939,-3.4302 -2.79201,-3.7252 -11.65477,-1.4936 -3.95302,0.9954 -6.48216,1.0508 -7.59043,0.1664 -1.06087,-0.8466 -5.02031,-0.9106 -10.94615,-0.1769 -9.7136,1.2028 -10.8194,0.8723 -11.60181,-3.4669 -0.26293,-1.4583 -1.60697,-2.8688 -2.98676,-3.1345 -1.99597,-0.3844 -2.35463,0.106 -1.75485,2.3996 1.01125,3.867 -2.151,4.9415 -6.38279,2.1687 -3.63299,-2.3804 -3.89357,-3.1493 -2.05323,-6.0587 2.77815,-4.3919 28.06352,-3.5946 28.06352,0.885 0,2.3597 1.97346,2.1664 4.10507,-0.4021 1.45152,-1.7489 3.31539,-1.9546 10.49659,-1.1583 13.52022,1.4993 17.82614,1.7584 41.07133,2.471 11.92013,0.3654 22.17691,0.9758 22.79283,1.3565 0.6159,0.3806 6.76306,1.0043 13.66034,1.386 6.89728,0.3816 17.04051,1.287 22.54051,2.012 9.77887,1.2889 44.05385,6.2423 50.66668,7.3223 1.8333,0.2994 6.6333,0.9103 10.6666,1.3576 12.2159,1.3547 29.7804,4.9565 33.6005,6.8903 1.9802,1.0024 5.9568,1.8226 8.8367,1.8226 3.0279,0 5.9364,0.8435 6.8962,2 0.9129,1.1 3.5864,2 5.941,2 5.4534,0 6.0941,0.7141 4.2358,4.722 -1.2484,2.6926 -2.4788,3.259 -7.0981,3.2676 -3.0734,0.01 -5.9588,-0.5896 -6.4121,-1.323 z m -223.33328,-30 c 0,-1.1005 -1.18053,-2 -2.62483,-2 -1.78537,0 -2.37937,0.6396 -1.85734,2 0.42212,1.1 1.60328,2 2.62482,2 1.02154,0 1.85735,-0.9 1.85735,-2 z m -431.49337,26.7305 c -0.9429,-2.4573 0.4309,-4.7305 2.8588,-4.7305 1.0311,0 4.7457,-0.9779 8.2546,-2.173 8.5544,-2.9136 27.946,-3.6155 31.481,-1.1396 2.591,1.8149 2.5803,1.8756 -0.5632,3.1929 -4.2588,1.7848 -20.7225,4.1197 -29.0479,4.1197 -3.6662,0 -7.0367,0.6 -7.4899,1.3333 -1.2275,1.986 -4.6438,1.6111 -5.4934,-0.6028 z m 98.351,-11.2132 c -1.3911,-0.9105 -1.4339,-1.4158 -0.1855,-2.1874 2.504,-1.5475 18.6612,-2.0778 18.6612,-0.6124 0,0.7053 -0.45,1.3259 -1,1.3789 -0.55,0.053 -3.1,0.273 -5.6667,0.4888 -2.5666,0.2158 -5.8666,0.7802 -7.3333,1.2543 -1.4667,0.474 -3.4807,0.329 -4.4757,-0.3222 z m -10.134,-1.4252 c -1.3623,-2.2042 1.4736,-2.7314 4.0799,-0.7585 2.4466,1.8519 2.4338,1.9163 -0.3915,1.9573 -1.6067,0.023 -3.2665,-0.5162 -3.6884,-1.1988 z m 40.2764,-0.1943 c -6.0122,-3.5138 0.6033,-5.6386 13,-4.1754 9.737,1.1493 9.943,3.5793 0.313,3.694 -3.8388,0.046 -7.8797,0.4795 -8.9797,0.9641 -1.1,0.4846 -3.05,0.2674 -4.3333,-0.4827 z m 26.3789,-2.4907 c -1.287,-2.0824 0.4064,-4.0738 3.4642,-4.0738 1.8334,0 2.5441,0.7356 2.2393,2.318 -0.5116,2.6567 -4.4058,3.8555 -5.7035,1.7558 z m 25.9609,-0.7326 c -2.2838,-2.7518 -0.1199,-5.0615 4.1731,-4.4541 2.1161,0.2994 3.1537,1.3236 3.1537,3.1129 0,3.3766 -4.894,4.2725 -7.3268,1.3412 z m 27.2525,0.1236 c -1.4672,-1.0277 -4.1037,-2.0777 -5.8589,-2.3334 -4.1967,-0.6112 -5.2645,-3.7981 -1.2725,-3.7981 1.659,0 5.1069,0.75 7.662,1.6667 3.7164,1.3333 4.7575,1.3333 5.2057,0 0.3082,-0.9167 1.7314,-1.6667 3.1627,-1.6667 2.2781,0 2.4056,0.374 1.0226,3 -2.7857,5.2899 -5.5806,6.1721 -9.9216,3.1315 z m 21.6415,0.9912 c -0.4826,-0.4826 -0.2673,-1.6125 0.4784,-2.511 0.9571,-1.1532 0.7577,-1.8632 -0.6782,-2.4142 -3.0362,-1.1651 -2.4551,-4.7701 0.9795,-6.0759 2.345,-0.8916 34.0447,-3.3116 44.9682,-3.4329 1.08996,-0.012 2.20099,1.1164 2.46895,2.5078 0.4214,2.1881 -0.12093,2.4311 -4.01581,1.799 -2.81728,-0.4572 -5.46235,-0.029 -7.06566,1.1431 -1.40946,1.0307 -3.59313,1.5468 -4.8526,1.1471 -1.40794,-0.4469 -3.04026,0.3444 -4.23805,2.0545 -1.79516,2.563 -2.43183,2.6596 -8.10793,1.2303 -5.2217,-1.3148 -6.6621,-1.2219 -9.4584,0.6103 -2.8067,1.8391 -3.1839,1.8625 -2.5294,0.1569 0.423,-1.1024 0.09,-2.0044 -0.7398,-2.0044 -0.83,0 -2.0793,1.5 -2.7764,3.3334 -1.2587,3.3106 -2.7512,4.1376 -4.4328,2.456 z m 65.37086,-6.3526 c -1.31741,-1.0017 -3.50606,-1.5309 -4.86368,-1.1759 -3.13229,0.8192 -8.07434,-1.7693 -8.07434,-4.2291 0,-2.5729 2.44149,-3.8648 4.39173,-2.3239 2.42719,1.9177 15.60827,3.3292 15.60827,1.6714 0,-0.7586 0.72,-1.3792 1.6,-1.3792 1.23421,0 1.23837,0.3616 0.0181,1.5818 -1.22016,1.2201 -1.08148,2.1346 0.60665,4 2.04663,2.2615 2.00932,2.4182 -0.57581,2.4182 -1.52036,0 -3.56335,0.2831 -4.53999,0.6291 -0.97665,0.346 -2.8536,-0.1905 -4.17102,-1.1923 z m 27.25927,-3.4551 c -2.32027,-3.1383 -3.47768,-3.7471 -5.28517,-2.7797 -3.3438,1.7895 -7.6125,-0.7515 -5.51272,-3.2816 1.17284,-1.4132 2.19337,-1.5186 4.21708,-0.4355 1.90852,1.0214 3.08524,1.0134 4.12666,-0.028 2.2169,-2.2169 4.91838,-1.7401 4.96592,0.8765 0.0233,1.2833 0.90411,3.4717 1.9573,4.8631 1.84254,2.4342 1.59872,4.8035 -0.49431,4.8035 -0.55215,0 -2.34079,-1.8082 -3.97476,-4.0183 z m 32.40271,1.4646 c -0.69667,-0.6713 -2.71236,-1.4213 -4.47931,-1.6667 -1.76696,-0.2454 -3.35388,-1.3462 -3.52649,-2.4462 -0.17262,-1.1 -0.52692,-2.9 -0.78736,-4 -0.72727,-3.0719 7.78246,-3.4517 11.05144,-0.4933 2.45616,2.2228 2.85849,2.2304 6.87528,0.1304 3.05081,-1.595 7.60602,-2.2281 15.98732,-2.222 6.44648,0.01 12.2976,-0.3479 13.00249,-0.7836 0.70489,-0.4356 1.86564,0.7441 2.57945,2.6215 0.71382,1.8775 1.9481,3.4136 2.74287,3.4136 0.79476,0 1.04892,0.6409 0.5648,1.4242 -0.48413,0.7833 -1.79577,1.0729 -2.91477,0.6435 -1.11899,-0.4294 -2.73183,0.1729 -3.58407,1.3384 -2.11908,2.898 -8.00977,1.2988 -10.77801,-2.9261 l -2.14006,-3.2661 -4.03242,3.393 c -4.47942,3.7692 -5.34503,4.0092 -7.3236,2.0306 -0.92768,-0.9276 -2.35426,-0.5022 -4.47068,1.3334 -3.32548,2.8842 -6.713,3.4542 -8.76688,1.4753 z m -22.58111,-1.4769 c 0.49996,-0.8089 -0.10853,-2.5951 -1.35223,-3.9694 -4.53978,-5.0164 2.36758,-7.2802 10.06622,-3.2991 4.80866,2.4867 5.09826,5.6732 0.60045,6.6071 -1.83333,0.3806 -4.8836,1.0161 -6.77839,1.4121 -2.31234,0.4834 -3.14617,0.2366 -2.53605,-0.7507 z m -370.87003,-28.636 c -1.1795,-3.0736 0.5751,-6.2479 3.1804,-5.7538 1.4115,0.2677 2.5045,1.8912 2.7593,4.0985 0.3413,2.9573 -0.1123,3.6553 -2.3752,3.6553 -1.5384,0 -3.1424,-0.9 -3.5645,-2 z m 9.2463,0.2273 c -1.4096,-2.2807 7.2699,-8.894 11.6728,-8.894 4.5821,0 10.5987,3.4421 10.5987,6.0635 0,3.0313 -5.5752,3.8998 -7.5651,1.1784 -1.6009,-2.1894 -1.9259,-2.2183 -3.4349,-0.3046 -1.9526,2.4762 -10.0786,3.8869 -11.2715,1.9567 z m 63.0685,-7.2081 c -1.605,-1.605 -0.7292,-3.0192 1.8697,-3.0192 1.4666,0 2.6666,0.5358 2.6666,1.1907 0,1.4987 -3.4681,2.8967 -4.5363,1.8285 z m 20.0919,-3.9081 c -1.5657,-1.5657 -0.9501,-5.7778 0.8444,-5.7778 2.2298,0 4.9334,2.7036 4.9334,4.9334 0,1.7945 -4.2121,2.4101 -5.7778,0.8444 z m -14.2222,-3.1111 c 0,-1.4667 0.8646,-2.6667 1.9213,-2.6667 2.7836,0 4.0674,2.7661 1.9162,4.1287 -2.8538,1.8075 -3.8375,1.4328 -3.8375,-1.462 z m 34.2222,0.4444 c -0.4889,-0.4888 -0.8889,-1.9888 -0.8889,-3.3333 0,-1.7675 1.0154,-2.4562 3.6667,-2.4868 2.0166,-0.023 4.8137,-0.9105 6.2156,-1.9713 1.4019,-1.0609 3.8253,-1.6086 5.3853,-1.217 1.5601,0.3915 4.3446,0.1385 6.188,-0.5623 1.9092,-0.7259 4.23,-0.7826 5.3931,-0.1316 1.3142,0.7354 3.902,0.2323 7.2631,-1.4123 3.9083,-1.9123 8.4073,-2.603 17.8882,-2.7463 6.9667,-0.1053 13.8667,-0.078 15.3333,0.06 1.4667,0.1381 5.3667,-0.4435 8.6667,-1.2924 6.3315,-1.6287 26.0606,-2.8329 28.8536,-1.7612 0.9046,0.3471 1.3046,1.5173 0.889,2.6003 -0.484,1.2614 0.2652,2.2362 2.0842,2.7119 4.3157,1.1286 3.4026,2.8719 -2.039,3.8927 -3.047,0.5716 -5.8484,0.3098 -7.4611,-0.6973 -2.0919,-1.3064 -3.0208,-1.2156 -4.8927,0.4785 -2.5845,2.3388 -8.8337,2.8076 -10.1007,0.7577 -0.9335,-1.5106 -6.4156,-1.8066 -7.8009,-0.4212 -0.8726,0.8725 -10.9682,2.0036 -15.8657,1.7776 -10.0408,-0.4635 -35.3527,0.9588 -37.1818,2.0893 -0.7375,0.4558 -3.8911,0.4463 -7.008,-0.021 -4.5346,-0.68 -6.3562,-0.3078 -9.1156,1.8628 -3.8018,2.9905 -4.1797,3.1164 -5.4724,1.8237 z m -13.6006,-4.5172 c -1.1305,-1.8293 1.8334,-4.0775 4.7117,-3.5739 1.1,0.1924 2,1.2417 2,2.3316 0,2.4173 -5.3711,3.4114 -6.7117,1.2423 z m 442.29117,-1.3619 c -1.32823,-2.1268 -2.14511,-2.4224 -3.52652,-1.2759 -2.2704,1.8842 -8.80735,0.4457 -11.12996,-2.4493 -1.60471,-2.0002 -1.84908,-1.9875 -3.06625,0.1599 -1.94043,3.4234 -7.70998,2.8811 -11.37051,-1.0687 -5.96573,-6.4371 -3.60491,-7.5596 13.51377,-6.425 6.6,0.4375 14.4,0.8949 17.33334,1.0166 5.71609,0.237 8.66666,1.48 8.66666,3.651 0,0.7425 0.87451,2.2244 1.94335,3.2933 3.2732,3.2732 1.01951,5.8661 -5.0986,5.8661 -4.16019,0 -5.96637,-0.6881 -7.26528,-2.768 z m -312.63637,-3.2068 c -1.4657,-0.7472 -3.1653,-2.728 -3.777,-4.4018 -0.9363,-2.562 -0.5427,-3.2597 2.4895,-4.4126 1.9809,-0.7531 7.8188,-1.2787 12.973,-1.168 5.1543,0.1106 13.8714,-0.3063 19.3714,-0.9266 13.8743,-1.5647 35.9872,-1.4313 35.97528,0.2172 -0.005,0.7333 -1.13304,1.3527 -2.50609,1.3763 -1.37304,0.024 -3.31529,0.692 -4.31619,1.485 -1.0008,0.793 -4.5222,1.4236 -7.8254,1.4014 -3.3032,-0.022 -7.5032,0.766 -9.3334,1.7518 -1.8301,0.9858 -6.0275,1.9842 -9.3275,2.2187 -8.3811,0.5956 -13.6602,1.3197 -16,2.1947 -3.8561,1.442 -15.0849,1.6092 -17.7236,0.2639 z m 270.12316,-2.4972 c -2.59319,-4.3907 -13.0351,-6.7783 -15.10622,-3.4541 -1.27873,2.0524 -11.15885,2.7548 -13.40892,0.9533 -5.93266,-4.75 -5.60561,-11.3178 0.35568,-7.1424 2.11514,1.4815 3.38299,1.648 4.6354,0.6085 2.30602,-1.9138 11.14728,-2.369 14.40183,-0.7414 2.74831,1.3743 5.27881,1.7987 12.38931,2.078 4.76128,0.1869 5.70493,2.9182 2.47726,7.1701 -2.12064,2.7936 -4.28857,2.9929 -5.74434,0.528 z m -177.28915,-4.2947 c -1.38859,-3.6186 2.15755,-7.0601 8.20999,-7.9677 6.78794,-1.0179 9.71212,-0.2675 10.88685,2.7938 1.24721,3.2502 -0.88408,4.4635 -10.04012,5.7157 -6.41781,0.8777 -8.56123,0.7494 -9.05672,-0.5418 z m 135.69632,0.563 c -1.75628,-0.6526 -4.25579,-0.8494 -5.55445,-0.4372 -1.29868,0.4122 -2.74712,0.125 -3.21879,-0.6382 -0.77323,-1.2511 0.95491,-1.9763 3.66087,-1.5362 0.56525,0.092 0.6502,-1.337 0.18878,-3.1754 -0.62197,-2.4782 -0.31078,-3.3426 1.20332,-3.3426 2.22671,0 10.24684,6.2427 10.24684,7.9759 0,1.8314 -3.18682,2.3948 -6.52657,1.1537 z m -107.49528,-1.165 c -0.46524,-0.7528 -1.55065,-1.2817 -2.41203,-1.1753 -3.62937,0.448 -4.89945,-0.275 -4.89945,-2.7893 0,-1.4667 0.45,-2.7011 1,-2.7432 0.55,-0.042 3.51713,-0.338 6.59361,-0.6576 6.58236,-0.6836 8.11754,0.9415 5.15724,5.4594 -2.29093,3.4964 -4.07096,4.1202 -5.43937,1.906 z m 87.35519,-0.6313 c 0,-2.3126 -4.11966,-2.6803 -6.2428,-0.5572 -0.98975,0.9898 -2.22487,1.0203 -3.93334,0.097 -1.3698,-0.74 -3.69053,-1.7639 -5.1572,-2.2754 -4.15444,-1.4488 -22.49357,-1.7796 -24.15642,-0.4358 -0.94236,0.7616 -2.14867,0.41 -3.283,-0.9568 -1.53167,-1.8455 -1.4116,-2.4407 0.82309,-4.0802 1.46319,-1.0736 3.79165,-1.5506 5.283,-1.0824 2.45919,0.7722 18.27991,1.165 32.66667,0.8111 10.05669,-0.2474 13.57665,2.3754 10.61497,7.9093 -1.62177,3.0303 -6.61497,3.4606 -6.61497,0.5701 z m -51.28984,-1.9296 c -1.17232,-1.8968 0.32265,-4.0704 2.79962,-4.0704 1.1682,0 1.8374,0.9368 1.58798,2.2229 -0.51936,2.6779 -3.18155,3.7989 -4.3876,1.8475 z m -24.02255,-2.7031 c -1.177,-1.9045 2.04117,-3.1622 8.99004,-3.5136 4.49496,-0.2273 6.32029,0.1534 5.95787,1.2426 -0.28739,0.8637 -2.66195,1.6328 -5.27682,1.7091 -2.61486,0.076 -5.69608,0.5 -6.84713,0.9417 -1.15107,0.4417 -2.42184,0.2708 -2.82396,-0.3798 z m 120.14088,407.29941 c 1.07561,-1.4667 1.77921,-4.4667 1.56357,-6.6667 -0.35734,-3.6458 -0.86428,-4.0298 -5.7254,-4.3369 -2.93333,-0.1853 -7.49673,-1.0027 -10.14089,-1.8165 -3.47949,-1.071 -5.55801,-1.0781 -7.52417,-0.026 -2.1674,1.16 -3.39443,0.9207 -6.06942,-1.1834 -1.84404,-1.4506 -3.65126,-2.6374 -4.01605,-2.6374 -0.64275,0 0.23125,15.3109 1.02752,18 0.23131,0.7813 6.30261,1.3334 14.66199,1.3334 12.72644,0 14.4784,-0.288 16.22285,-2.6667 z m -236.46523,-7.1736 c 0.3656,-4.1212 0.2045,-7.9919 -0.3579,-8.6017 -0.5624,-0.6097 -5.1437,0.2209 -10.1806,1.8457 -5.037,1.6248 -9.9081,3.1549 -10.8248,3.4001 -0.9779,0.2616 -1.6666,2.6293 -1.6666,5.73 v 5.2842 l 11.1826,-0.083 11.1826,-0.082 0.6647,-7.4931 z m 219.7943,-16.8727 c 6.14668,0.3832 12.27472,0.8504 13.61788,1.0382 1.878,0.2626 3.16998,-1.5758 5.59314,-7.9586 1.73307,-4.5651 2.7006,-8.5785 2.15007,-8.9188 -0.55053,-0.3402 -7.97596,-1.5333 -16.50095,-2.6513 -8.52498,-1.1181 -16.89146,-2.3816 -18.59217,-2.8079 -3.06979,-0.7695 -3.0922,-0.6843 -3.0922,11.7639 0,12.4658 0.0165,12.5282 2.82423,10.6884 2.08602,-1.3669 5.74534,-1.6685 14,-1.1539 z m -240.9226,-1.7945 c 1.3392,-2.1669 7.8633,-2.5632 14.3777,-0.8734 3.5529,0.9217 6.6816,1.3094 6.9527,0.8616 0.5628,-0.9293 1.1812,-13.6381 0.9334,-19.1804 -0.1179,-2.6363 -1.1235,-4.0639 -3.4988,-4.967 -1.8333,-0.697 -3.3333,-1.8822 -3.3333,-2.6337 0,-2.4894 -5.6823,-1.4166 -10.0198,1.8918 -5.22,3.9815 -8.0768,9.8399 -9.3019,19.0752 -0.7703,5.8073 -0.5798,7 1.1179,7 1.1255,0 2.373,-0.5283 2.7721,-1.1741 z m 264.0445,-34.1081 c 0.44192,-5.0879 1.15184,-10.6386 1.57758,-12.3349 0.42574,-1.6963 0.11253,-3.8813 -0.696,-4.8555 -1.61019,-1.9402 -13.34376,-2.6193 -15.49438,-0.8968 -0.73333,0.5874 -3.86984,1.4862 -6.97002,1.9975 -4.55395,0.751 -6.38404,0.3974 -9.52727,-1.8408 -4.91688,-3.5011 -5.50271,-2.3144 -5.50271,11.1473 v 9.7165 l 5,0.8265 c 2.75,0.4545 7.7,0.8593 11,0.8994 3.3,0.04 9,1.1203 12.66667,2.4001 3.66667,1.2799 6.77376,2.2966 6.90464,2.2593 0.13093,-0.037 0.59956,-4.2307 1.04149,-9.3186 z m -239.8001,-13.9161 c 0.5403,-4.8409 1.0285,-11.5017 1.0849,-14.8017 0.115,-6.7382 0.6012,-6.5647 -12.5317,-4.4703 -9.5031,1.5156 -11.1314,4.2581 -10.0767,16.9713 0.4183,5.0421 0.9985,9.5421 1.2893,10 0.2908,0.4578 4.7414,0.8931 9.8903,0.9674 l 9.3614,0.135 z m 233.82825,-18.4683 c -0.0141,-1.2834 -0.81604,-5.3334 -1.78197,-9 -1.61606,-6.1345 -2.0489,-6.6346 -5.42194,-6.265 -2.01612,0.221 -4.42802,-0.231 -5.3598,-1.0043 -0.93177,-0.7733 -5.6791,-1.254 -10.54965,-1.0684 l -8.85552,0.3377 0.0155,6 c 0.008,3.3 0.39718,7.426 0.86369,9.169 0.79703,2.978 1.29848,3.125 8.31512,2.4385 4.10683,-0.4019 9.86695,-0.2469 12.80028,0.3443 8.52111,1.7173 10.00215,1.576 9.97428,-0.9518 z M 615.82975,988.93429 c 0.5242,-6.9581 1.2123,-13.679 1.5291,-14.9354 0.9109,-3.6129 -2.3552,-5.213 -10.0376,-4.9174 -10.6984,0.4115 -13.8557,2.5226 -15.782,10.5522 -0.9872,4.1151 -1.2616,9.6502 -0.7008,14.13831 l 0.9215,7.3757 4.8917,-0.7464 c 2.6904,-0.4105 6.9917,-0.21 9.5584,0.4456 8.4139,2.1491 8.5755,1.9491 9.6197,-11.91261 z m 226.3001,-12.9525 c 0.431,-5.7009 1.23514,-11.0738 1.78698,-11.9398 0.55184,-0.866 0.31344,-2.0009 -0.52978,-2.522 -2.8243,-1.7456 -11.14702,-1.6511 -14.01848,0.159 -3.27224,2.0628 -14.33079,2.8386 -19.00678,1.3334 -2.97353,-0.9572 -3.11765,-0.7747 -2.2042,2.79 0.53755,2.0978 1.48264,7.3275 2.1002,11.6217 0.61756,4.2941 1.50314,8.1878 1.96794,8.6526 0.4648,0.4648 4.55141,0.6996 9.08136,0.5218 4.52994,-0.1778 10.33626,0.1858 12.90293,0.808 2.56667,0.6222 5.22231,0.6384 5.90143,0.036 0.67913,-0.6024 1.5874,-5.7597 2.0184,-11.4606 z m -218.0149,-26.6153 4.8678,-10.25 -3.2118,-3.2118 c -2.2775,-2.2774 -4.9111,-3.2931 -9.053,-3.4915 -3.2127,-0.1538 -6.6553,-0.546 -7.6502,-0.8715 -2.7261,-0.8919 -7.2535,8.7866 -7.9308,16.9546 l -0.5905,7.1203 5.1651,0.06 c 4.0202,0.047 9.6284,1.6563 13.3504,3.8315 0.1019,0.06 2.3758,-4.5042 5.053,-10.1417 z m 203.4284,-2.606 c 10.45798,-2.005 9.74104,-1.282 8.80199,-8.8769 -1.65971,-13.4235 -3.76675,-19.6244 -6.93876,-20.4205 -4.07844,-1.0236 -15.14035,5.0964 -25.14009,13.9087 l -5.01775,4.422 2.09191,5.578 c 1.15054,3.068 2.70048,7.2241 3.44428,9.2359 l 1.35238,3.6579 9.03635,-3.433 c 4.97,-1.8882 10.53636,-3.7206 12.36969,-4.0721 z m -186.5984,-24.5561 6.9989,-8.0789 -5.8112,-5.9211 c -3.1961,-3.2567 -6.7716,-5.9212 -7.9454,-5.9212 -1.1738,0 -3.2989,-0.8809 -4.7224,-1.9576 -4.3974,-3.326 -5.8686,-2.3427 -10.0672,6.7285 -4.3679,9.4367 -4.2889,11.8981 0.4449,13.8601 1.6688,0.6916 5.1341,3.0665 7.7008,5.2774 2.5667,2.2109 5.0573,4.036 5.5348,4.0558 0.4774,0.02 4.0175,-3.5997 7.8668,-8.043 z m 158.5984,-7.2545 c 3.23871,-3.3 6.58272,-6 7.43114,-6 2.88396,0 8.56886,-5.5154 8.56886,-8.3134 0,-1.5326 -1.87157,-5.7031 -4.15905,-9.2678 -3.33093,-5.1908 -4.52561,-6.1771 -6,-4.9535 -1.01252,0.8403 -1.84095,2.1547 -1.84095,2.9208 0,0.7661 -4.29993,5.3652 -9.5554,10.2203 l -9.5554,8.8276 3.6821,6.283 c 2.02516,3.4556 4.10016,6.283 4.61112,6.283 0.51097,0 3.57888,-2.7 6.81758,-6 z m -141.31836,-12.3333 c 5.92296,-5.573 6.2716,-7.2304 3.15803,-15.012 -4.10077,-10.2488 -11.65387,-10.7275 -22.17297,-1.4053 -4.6957,4.1614 -4.6397,6.9342 0.198,9.7919 2.1256,1.2556 5.5756,4.3417 7.6667,6.8579 2.0911,2.5162 4.2597,4.6182 4.8191,4.6712 0.5595,0.053 3.40846,-2.1537 6.33114,-4.9037 z m 121.44271,-9.3422 c 1.90172,-1.2785 7.00172,-5.5339 11.33333,-9.4564 7.29556,-6.6066 7.68556,-7.245 5.29492,-8.6667 -1.41941,-0.8441 -3.9534,-2.9551 -5.63109,-4.691 -3.09361,-3.2011 -7.12151,-3.1281 -7.12151,0.1292 0,0.9477 -2.35561,6.4957 -5.2347,12.3287 -6.2969,12.7575 -5.96579,15.2807 1.35905,10.3563 z m -98.79101,-4.782 c 6.56556,-3.2463 6.36574,-2.4563 4.36057,-17.2414 -1.35475,-9.9892 -3.10725,-13.0011 -6.11319,-10.5064 -1.06158,0.881 -3.59221,1.203 -5.87184,0.7471 -4.68937,-0.9379 -11.58469,2.1558 -13.72706,6.1588 -1.20051,2.2432 -0.29819,4.3852 5.611,13.3196 3.87285,5.8555 7.64881,10.611 8.39104,10.5678 0.74221,-0.043 4.04948,-1.4138 7.34948,-3.0455 z m 84.05778,-7.8758 c 5.15267,-5.5541 9.66771,-14.0549 8.74378,-16.4626 -0.39483,-1.0289 -2.2665,-1.8708 -4.15927,-1.8708 -1.89276,0 -5.28053,-0.951 -7.52837,-2.1134 -5.07615,-2.625 -6.18998,-1.5784 -7.27303,6.834 -0.46824,3.637 -2.00704,8.537 -3.41955,10.8889 l -2.5682,4.2762 4.40676,1.2703 c 6.82232,1.9665 7.50676,1.8027 11.79788,-2.8226 z m -52.751,-2.4971 c 5.88127,-0.7398 13.99322,-0.9804 18.02655,-0.5346 l 7.33333,0.8106 3.0834,-7.7228 c 1.69588,-4.2476 4.19688,-9.8565 5.55779,-12.4644 1.36091,-2.6079 2.86923,-6.8464 3.35183,-9.4189 1.18958,-6.341 -1.18427,-8.0354 -12.74234,-9.0948 -10.152,-0.9305 -15.47861,0.4664 -7.49176,1.9647 3.98691,0.748 4.90775,1.5035 4.90775,4.027 0,1.7084 -0.6,3.477 -1.33333,3.9303 -0.73334,0.4532 -1.33334,2.3074 -1.33334,4.1205 0,1.8131 -0.82924,3.6147 -1.84274,4.0036 -1.01352,0.3889 -2.21186,3.0154 -2.66298,5.8365 -0.87826,5.4924 -6.6059,11.5523 -11.93037,12.6225 -10.67876,2.1463 -14.14241,2.0729 -15.42663,-0.3266 -2.12285,-3.9666 1.1297,-8.8461 6.22646,-9.341 3.55676,-0.3454 4.30293,-0.9812 4.30293,-3.6667 0,-2.327 -0.73431,-3.2488 -2.58797,-3.2488 -6.01515,0 -5.00139,-7.3675 1.5507,-11.2697 2.40383,-1.4316 6.12547,-3.3968 8.27031,-4.367 4.89191,-2.2127 3.25444,-4.1345 -3.91043,-4.5893 -5.31576,-0.3375 -24.33458,3.6711 -26.43034,5.5707 -0.60926,0.5522 0.71868,6.6256 2.95094,13.4963 2.23227,6.8708 4.4637,14.2923 4.95874,16.4923 1.25741,5.588 1.82966,6.2988 4.30637,5.3484 1.19456,-0.4584 6.98387,-1.4389 12.86513,-2.1788 z m 63.35988,-249.80068 19.33334,-0.21076 0.40581,-4.08496 c 0.2232,-2.24672 -0.73137,-8.52409 -2.12129,-13.9497 -1.49634,-5.84107 -2.10798,-10.93723 -1.49954,-12.49412 0.56518,-1.44616 1.06976,-4.44703 1.1213,-6.66859 0.0705,-3.0372 1.94113,-5.93135 7.54088,-11.66667 7.81726,-8.00654 8.86385,-8.45708 14.58908,-6.28036 2.87668,1.09372 56.332,2.04752 66.63042,1.1889 1.46667,-0.12227 8.96667,0.18996 16.66667,0.69389 l 14,0.91623 -0.47087,-12.99892 c -0.51305,-14.16324 1.72347,-47.68999 3.91798,-58.73286 1.8299,-9.2082 5.38941,-13.53012 12.01604,-14.58976 3.31797,-0.53056 8.35329,-3.17674 13.59362,-7.14377 4.57792,-3.46559 12.51294,-9.0112 17.63336,-12.3236 5.12043,-3.3124 14.52671,-9.84785 20.90286,-14.52321 6.37614,-4.67538 16.19428,-11.43347 21.81809,-15.018 l 10.225,-6.51734 -0.8203,-7.48266 c -0.4512,-4.11547 -1.7318,-20.60999 -2.8456,-36.6545 -1.1139,-16.04449 -2.3482,-29.69449 -2.7431,-30.33333 -0.3948,-0.63883 -8.03239,-1.1838 -16.97244,-1.21104 -17.28837,-0.0527 -45.86131,-1.78389 -55.25464,-3.34783 l -5.66667,-0.94346 -0.0973,21.17041 c -0.12133,26.39772 -1.10645,33.61148 -5.30507,38.84943 -2.9473,3.67688 -4.00154,4.07394 -10.8573,4.08918 -4.17618,0.009 -8.48148,0.51524 -9.56734,1.12435 -1.08586,0.60909 -14.76898,0.61319 -30.40696,0.009 -26.21266,-1.0126 -28.6669,-1.31704 -31.43266,-3.89908 -2.36582,-2.20866 -2.99016,-4.23137 -2.95348,-9.5683 0.0665,-9.67324 3.09972,-25.43072 8.01477,-41.63634 2.38581,-7.86636 3.74413,-14.51202 3.09519,-15.14333 -1.30134,-1.26593 -42.66662,1.59333 -67.46331,4.66321 -8.95412,1.10855 -24.39813,2.02472 -34.32003,2.03595 -9.92189,0.0107 -18.69926,0.46123 -19.50528,1 -0.92282,0.61687 -1.79394,10.28237 -2.35257,26.10321 -0.48792,13.81799 -1.49625,26.26178 -2.24073,27.65286 -2.95688,5.52498 -8.65655,6.91893 -25.17659,6.15737 -24.17672,-1.11452 -41.50908,-3.44632 -47.69474,-6.41657 -4.6214,-2.21914 -6.5744,-4.47338 -11.2073,-12.93571 -4.5517,-8.314 -5.7602,-12.0098 -6.4033,-19.58157 l -0.7926,-9.33334 -15.3334,0.1108 c -14.1665,0.10227 -37.4046,3.89168 -44,7.17491 -1.579,0.78609 -2.1733,5.06347 -2.8234,20.32359 -0.4529,10.63037 -1.2432,23.24752 -1.7563,28.0381 -0.9259,8.64671 -0.9026,8.73162 3.2038,11.65566 3.2677,2.32678 4.5355,2.61442 6.0357,1.3694 3.234,-2.68403 30.7674,-2.02194 33.6498,0.80916 0.9035,0.88752 2.4035,1.89224 3.3333,2.2327 3.5213,1.28951 -1.1498,3.30263 -9.2553,3.9888 -6.106,0.51691 -8.6808,0.21683 -9.8096,-1.14326 -1.2992,-1.56552 -1.9566,-1.54567 -4.3509,0.13133 -1.5512,1.08652 -3.8869,1.97549 -5.1904,1.97549 -1.3035,0 -2.3659,0.45 -2.3608,1 0,0.55 4.8401,6.30316 10.7445,12.7848 5.9045,6.48164 11.2998,13.26906 11.9895,15.08315 0.6897,1.81409 1.6432,8.36093 2.1188,14.54853 0.8624,11.2201 0.8747,11.25019 4.5894,11.25019 2.0485,0 4.1116,0.62628 4.5847,1.39173 1.2952,2.09575 -1.9577,5.27494 -5.3974,5.27494 -2.7968,0 -3.1042,0.7577 -3.9211,9.66666 -1.621,17.67688 -4.753,41.54263 -6.769,51.57875 -1.0951,5.45164 -1.5315,10.35309 -0.9698,10.89211 2.3679,2.27242 16.1242,3.63102 25.0826,2.47724 5.0996,-0.6568 26.6633,-1.21382 47.91947,-1.2378 l 38.64752,-0.0439 6.89782,3.48997 c 5.61406,2.84047 7.29262,4.52375 9.01914,9.04457 1.16672,3.05504 2.11974,7.33455 2.11784,9.51003 -0.004,4.37657 3.50244,20.82507 5.5,25.8012 1.24557,3.10283 1.52284,3.15377 11.5565,2.12317 5.65416,-0.58074 18.98031,-1.15076 29.61364,-1.26668 z M 657.59761,506.371 c -0.42338,-0.68504 -2.71576,-0.92975 -5.09416,-0.54379 -3.243,0.52627 -4.9317,0.0308 -6.7529,-1.98168 -2.3494,-2.59609 -2.3489,-2.7243 0.015,-3.9396 4.0442,-2.07865 21.57604,-3.13486 65.77731,-3.96276 63.681,-1.19274 105.8108,-0.50366 109.5243,1.7914 1.76223,1.08912 1.3555,4.14504 -0.84453,6.34506 -1.57189,1.57189 -4.42643,1.84542 -13.66667,1.30958 -34.18538,-1.98238 -91.59425,-2.09345 -97.9708,-0.18953 -3.30581,0.98707 -5.5271,1.03884 -6.66666,0.15543 -0.97998,-0.75972 -7.11223,-1.09016 -14.37564,-0.77467 -6.96667,0.30261 -15.4645,0.48243 -18.88407,0.39957 -3.41957,-0.0828 -6.60499,0.47648 -7.07869,1.24295 -1.06866,1.72912 -2.96232,1.79951 -3.98299,0.14804 z m -36.00866,-2.68063 c -1.287,-2.08242 0.4064,-4.07382 3.4642,-4.07382 1.8334,0 2.5441,0.73565 2.2393,2.31802 -0.5116,2.65672 -4.4058,3.85552 -5.7035,1.7558 z m 10.2211,-1.67382 c -2.5995,-2.59944 -1.8349,-5.06667 1.5701,-5.06667 4.1066,0 6.7056,2.92423 4.5315,5.09839 -2.0032,2.00316 -4.0775,1.99237 -6.1016,-0.0317 z m 198.39997,-3.81203 c 0,-0.77661 0.6,-1.0412 1.33333,-0.58797 0.73334,0.45322 1.33334,1.08864 1.33334,1.41202 0,0.32339 -0.6,0.58798 -1.33334,0.58798 -0.73333,0 -1.33333,-0.63542 -1.33333,-1.41203 z m 63.29019,-54.65779 c -0.62188,-1.00621 -2.8248,-1.25234 -6.27334,-0.7009 -3.15185,0.50401 -6.02706,0.25884 -7.0648,-0.6024 -1.09928,-0.91232 -3.64653,-1.07455 -6.85098,-0.4363 -2.80559,0.5588 -5.70107,0.78847 -6.4344,0.51038 -0.73334,-0.27811 -8.53334,-0.65528 -17.33334,-0.83818 -8.8,-0.18289 -16.94945,-0.70245 -18.1099,-1.15457 -1.16046,-0.45212 -4.72816,-0.23377 -7.92823,0.48524 -3.20008,0.71901 -6.3156,0.99995 -6.92339,0.62432 -1.39948,-0.86492 -15.13549,-2.26272 -20.2024,-2.05581 -2.10681,0.086 -4.97362,-0.45532 -6.37068,-1.203 -4.68076,-2.50507 -1.10986,-4.0268 7.98375,-3.40227 4.88631,0.33559 24.66751,0.83112 43.95823,1.10117 26.30146,0.36822 35.3333,0.91052 36.11062,2.16826 0.72299,1.16981 2.01156,1.31764 4.2593,0.48866 8.09765,-2.98646 18.38209,-0.39681 16.83841,4.23998 -0.70549,2.11909 -4.50652,2.63994 -5.65885,0.77542 z m -143.95686,-5.26352 c -0.45322,-0.73333 -2.32404,-1.33333 -4.15737,-1.33333 -1.88271,0 -2.97472,-0.58025 -2.50929,-1.33333 0.91058,-1.47335 8.5626,-1.80123 11.92498,-0.51096 1.65875,0.63653 1.79716,1.23918 0.61246,2.66666 -1.79155,2.15868 -4.69619,2.41148 -5.87078,0.51096 z m -44.09402,-1.20513 c -1.84612,-1.84613 0.22254,-2.79487 6.09402,-2.79487 3.66667,0 6.66667,0.53959 6.66667,1.19908 0,1.20503 -11.68961,2.66687 -12.76069,1.59579 z m 23.71825,-0.3342 c 0.69204,-2.07613 3.675,-2.43972 3.77953,-0.46067 0.0387,0.73334 -0.93036,1.54064 -2.15356,1.794 -1.39028,0.28799 -1.99981,-0.21184 -1.62597,-1.33333 z m 32.04156,-0.12467 c 0.59296,-1.77888 13.51867,-2.94045 17.00088,-1.52777 3.28103,1.33105 -2.31492,2.99095 -10.44444,3.09808 -5.12119,0.0675 -6.95589,-0.37193 -6.55644,-1.57031 z m -71.44356,-0.5582 c -1.48909,-1.4891 -0.99492,-3.11113 0.94785,-3.11113 1.0102,0 2.58367,0.9 3.49659,2 1.3792,1.66183 1.21893,2 -0.94785,2 -1.43424,0 -3.00771,-0.4 -3.49659,-0.88889 z"
     id="path949"
     inkscape:connector-curvature="0"
     inkscape:export-xdpi="96"
     inkscape:export-ydpi="96" />
</svg>
