<?xml version="1.0" standalone="no"?>
<!DOCTYPE svg PUBLIC "-//W3C//DTD SVG 20010904//EN"
 "http://www.w3.org/TR/2001/REC-SVG-20010904/DTD/svg10.dtd">
<svg version="1.0" xmlns="http://www.w3.org/2000/svg"
 width="1122.000000pt" height="1122.000000pt" viewBox="0 0 1122.000000 1122.000000"
 preserveAspectRatio="xMidYMid meet">
<metadata>
Created by potrace 1.14, written by Peter Selinger 2001-2017
</metadata>
<g transform="translate(0.000000,1122.000000) scale(0.100000,-0.100000)"
fill="#000000" stroke="none">
<path d="M5285 11120 c-4 -6 -21 -10 -38 -10 -61 1 -168 -8 -174 -14 -3 -3
-13 0 -21 7 -13 9 -14 9 -8 0 5 -9 -2 -13 -26 -14 -64 -2 -98 -6 -104 -12 -4
-4 -14 -1 -22 6 -13 10 -14 9 -8 -2 7 -10 3 -12 -13 -6 -14 4 -21 2 -21 -7 0
-10 -3 -9 -10 2 -5 8 -10 10 -10 3 0 -6 -9 -9 -20 -6 -11 3 -27 0 -35 -7 -12
-10 -15 -10 -15 1 0 9 -3 10 -8 3 -8 -12 -14 -13 -84 -17 -25 -1 -44 -6 -41
-11 3 -5 -6 -7 -21 -4 -14 3 -26 2 -26 -3 0 -4 -9 -6 -20 -4 -11 2 -20 0 -20
-4 0 -12 -34 -9 -42 3 -5 7 -8 3 -8 -9 0 -17 -2 -17 -10 -5 -7 12 -10 12 -10
1 0 -7 -6 -11 -15 -8 -8 4 -17 2 -21 -4 -3 -6 -12 -8 -20 -5 -8 3 -14 0 -14
-7 0 -8 -4 -6 -10 3 -8 12 -10 12 -10 1 0 -8 -3 -11 -7 -8 -3 4 -13 1 -21 -6
-13 -10 -14 -9 -7 3 8 13 7 13 -8 1 -9 -7 -26 -11 -37 -8 -13 3 -18 1 -13 -6
4 -6 0 -8 -10 -4 -9 3 -18 -1 -21 -10 -5 -12 -9 -13 -20 -4 -10 9 -16 9 -21 1
-4 -6 -13 -9 -21 -6 -8 3 -14 1 -14 -5 0 -6 -7 -9 -15 -5 -8 3 -15 1 -15 -5 0
-6 -4 -8 -9 -4 -5 3 -13 0 -17 -6 -4 -8 -9 -7 -15 2 -5 8 -9 9 -9 4 0 -6 -12
-12 -27 -13 -15 -1 -29 -5 -32 -10 -3 -4 -13 -9 -21 -10 -8 -2 -24 -6 -35 -9
-11 -3 -30 -6 -42 -7 -11 0 -19 -4 -17 -7 2 -4 -3 -9 -10 -12 -8 -3 -17 -1
-20 6 -3 9 -5 9 -5 0 -1 -7 -10 -13 -21 -13 -11 0 -20 -5 -20 -11 0 -6 -6 -9
-14 -6 -7 3 -24 -2 -37 -10 -17 -13 -20 -13 -14 -2 5 9 1 7 -11 -3 -16 -14
-23 -15 -34 -5 -9 8 -11 8 -6 0 4 -7 -8 -16 -31 -23 -21 -7 -49 -19 -62 -27
-13 -8 -20 -10 -17 -4 5 7 1 9 -8 5 -9 -3 -16 -10 -16 -15 0 -4 -6 -6 -14 -3
-7 3 -20 -2 -29 -10 -12 -12 -17 -13 -20 -3 -4 9 -6 9 -6 0 -1 -7 -8 -13 -16
-13 -8 0 -15 -6 -15 -12 0 -9 -4 -8 -10 2 -6 10 -10 11 -10 3 0 -7 -7 -13 -15
-13 -8 0 -15 -4 -15 -10 0 -5 -5 -10 -11 -10 -5 0 -7 6 -4 13 4 6 0 4 -9 -7
-8 -10 -19 -15 -24 -12 -6 3 -12 1 -14 -4 -2 -6 -13 -12 -25 -13 -13 0 -25 -7
-28 -15 -3 -8 -12 -11 -20 -8 -8 3 -15 1 -15 -4 0 -6 -3 -9 -7 -8 -11 2 -67
-25 -75 -37 -4 -5 -8 -6 -8 -1 0 5 -9 1 -20 -9 -10 -9 -26 -15 -35 -11 -9 3
-13 2 -10 -4 3 -6 -3 -10 -14 -10 -12 0 -21 -4 -21 -10 0 -5 -9 -10 -20 -10
-11 0 -23 -7 -26 -15 -4 -8 -10 -13 -14 -10 -5 3 -15 -1 -23 -9 -11 -11 -17
-12 -26 -3 -9 9 -11 8 -6 -5 5 -13 2 -16 -14 -13 -14 2 -18 -1 -15 -10 4 -10
0 -13 -15 -10 -12 2 -19 0 -16 -6 4 -5 -1 -9 -10 -9 -9 0 -28 -9 -42 -20 -14
-11 -29 -17 -34 -14 -5 3 -9 -2 -9 -10 0 -9 -6 -13 -14 -10 -8 3 -17 0 -21 -5
-3 -6 -11 -8 -17 -5 -7 4 -8 2 -4 -4 3 -6 -3 -16 -15 -22 -17 -10 -20 -9 -14
2 3 7 -2 3 -13 -9 -11 -13 -27 -23 -36 -23 -9 0 -16 -4 -16 -9 0 -5 -13 -14
-30 -20 -16 -5 -30 -15 -30 -21 0 -6 -5 -8 -10 -5 -6 3 -13 -1 -16 -9 -3 -9
-10 -13 -15 -10 -5 3 -12 -2 -15 -10 -3 -9 -10 -13 -15 -10 -5 3 -12 -2 -15
-10 -3 -9 -10 -13 -15 -10 -5 3 -12 -2 -15 -10 -3 -9 -10 -13 -15 -11 -4 3
-14 -3 -21 -14 -9 -15 -15 -17 -25 -9 -11 8 -12 7 -7 -7 5 -13 4 -16 -4 -11
-7 4 -12 2 -12 -3 0 -6 -7 -11 -15 -11 -8 0 -15 -4 -15 -10 0 -5 -5 -10 -11
-10 -7 0 -20 -9 -30 -21 -10 -11 -23 -18 -28 -14 -6 3 -11 -1 -11 -10 0 -9 -4
-13 -10 -10 -5 3 -10 1 -10 -4 0 -6 -7 -11 -15 -11 -8 0 -15 -7 -15 -16 0 -9
-5 -14 -12 -12 -7 3 -22 -6 -35 -20 -12 -13 -27 -21 -33 -17 -6 3 -9 3 -8 -2
4 -10 -38 -53 -52 -53 -5 0 -10 -4 -10 -10 0 -5 -7 -10 -16 -10 -8 0 -12 -4
-9 -10 3 -5 -1 -10 -9 -10 -9 0 -16 -4 -16 -10 0 -5 -7 -10 -16 -10 -8 0 -13
-4 -10 -9 8 -12 -23 -23 -37 -14 -7 4 -6 -1 2 -11 8 -9 10 -16 5 -15 -20 3
-35 -2 -29 -10 3 -5 -3 -12 -14 -16 -11 -3 -22 -13 -25 -21 -3 -9 -11 -12 -18
-8 -8 5 -9 2 -5 -10 5 -13 3 -17 -7 -13 -8 3 -17 -1 -20 -9 -3 -9 -10 -12 -16
-9 -6 4 -7 -1 -3 -11 4 -12 3 -15 -5 -10 -7 4 -15 1 -18 -8 -3 -9 -9 -14 -14
-11 -4 2 -13 -7 -20 -20 -7 -13 -17 -22 -21 -20 -4 3 -10 -4 -14 -15 -4 -11
-11 -18 -16 -15 -5 4 -12 -1 -15 -9 -3 -9 -12 -16 -20 -16 -8 0 -11 -6 -7 -17
4 -11 3 -14 -5 -9 -7 4 -12 2 -12 -4 0 -6 -4 -9 -9 -6 -5 3 -12 -5 -15 -19 -4
-14 -12 -24 -19 -22 -6 1 -11 -3 -10 -10 2 -7 -4 -10 -12 -7 -9 4 -15 0 -15
-10 0 -9 -7 -16 -16 -16 -8 0 -12 -4 -9 -10 3 -5 -1 -10 -10 -10 -9 0 -14 -4
-10 -9 7 -12 -29 -33 -41 -23 -5 4 -2 -1 5 -10 12 -15 11 -18 -3 -18 -9 0 -16
-6 -16 -14 0 -8 -16 -24 -35 -36 -19 -12 -35 -26 -35 -31 0 -12 -41 -54 -61
-62 -8 -3 -9 -6 -2 -6 7 -1 0 -13 -15 -28 -15 -15 -30 -27 -34 -25 -5 1 -8 -5
-8 -15 0 -9 -14 -29 -32 -45 -17 -15 -28 -28 -23 -28 4 0 -2 -8 -13 -19 -12
-10 -22 -22 -22 -26 0 -4 -11 -18 -25 -31 -14 -13 -25 -27 -25 -32 0 -6 -7
-12 -15 -16 -8 -3 -15 -13 -15 -21 0 -9 -5 -13 -10 -10 -6 3 -10 -1 -10 -10 0
-8 -7 -18 -15 -21 -8 -4 -12 -10 -9 -15 3 -5 -2 -12 -10 -15 -9 -3 -14 -10
-11 -14 3 -4 -2 -11 -10 -14 -9 -3 -20 -17 -25 -31 -6 -15 -14 -23 -20 -20 -5
3 -7 0 -4 -8 3 -8 -2 -17 -10 -20 -9 -4 -16 -12 -16 -18 0 -7 -8 -18 -17 -26
-12 -10 -13 -12 -3 -8 8 4 4 -3 -9 -14 -13 -12 -20 -21 -16 -21 5 0 -1 -8 -12
-17 -11 -10 -19 -26 -17 -35 1 -11 -3 -15 -14 -11 -10 4 -13 2 -8 -5 3 -6 2
-13 -4 -17 -6 -4 -8 -10 -5 -15 3 -4 -1 -10 -8 -13 -8 -3 -22 -21 -31 -41 -9
-20 -21 -34 -26 -31 -6 3 -7 0 -4 -8 3 -8 0 -18 -5 -22 -6 -3 -9 -11 -6 -16 4
-5 -1 -9 -9 -9 -9 0 -16 -7 -16 -15 0 -8 -5 -15 -11 -15 -5 0 -8 -4 -4 -9 3
-5 -1 -16 -9 -24 -8 -8 -12 -17 -9 -21 4 -3 1 -6 -5 -6 -7 0 -11 -4 -9 -9 1
-5 -7 -17 -18 -26 -11 -9 -13 -13 -6 -9 9 5 6 -5 -7 -23 -12 -17 -22 -36 -22
-42 0 -5 -10 -20 -22 -32 -13 -12 -18 -19 -11 -15 6 3 0 -15 -15 -41 -14 -27
-29 -49 -33 -51 -5 -2 -5 -10 -2 -18 3 -8 1 -14 -5 -14 -9 0 -25 -37 -23 -52
1 -5 -4 -8 -10 -8 -5 0 -7 -4 -4 -10 3 -5 1 -10 -5 -10 -6 0 -8 -4 -5 -10 3
-5 1 -10 -5 -10 -7 0 -9 -7 -6 -16 3 -8 2 -13 -2 -10 -5 3 -14 -12 -21 -32 -8
-20 -21 -46 -30 -56 -11 -14 -12 -17 -2 -11 11 6 10 2 -2 -16 -9 -13 -17 -31
-17 -41 0 -10 -3 -18 -7 -18 -5 0 -13 -11 -20 -25 -6 -14 -7 -23 -3 -20 4 3 3
-6 -3 -20 -7 -14 -15 -25 -19 -25 -5 0 -8 -8 -8 -18 0 -10 -6 -24 -12 -31 -11
-11 -10 -12 2 -6 9 5 7 -1 -5 -14 -11 -13 -19 -25 -18 -27 5 -8 -10 -64 -17
-64 -4 0 -11 -16 -14 -35 -4 -20 -11 -33 -16 -30 -6 3 -7 -1 -4 -9 3 -8 -1
-28 -10 -44 -8 -16 -12 -32 -9 -36 4 -3 1 -6 -4 -6 -6 0 -10 -11 -9 -25 2 -15
-1 -22 -7 -18 -6 4 -8 0 -5 -8 3 -8 0 -23 -8 -33 -7 -11 -11 -23 -8 -28 3 -5
-2 -19 -13 -30 -10 -12 -12 -18 -5 -14 6 4 12 3 12 -3 0 -5 -5 -11 -11 -13 -6
-2 -11 -16 -11 -31 0 -15 -5 -27 -10 -27 -5 0 -7 -4 -3 -9 3 -5 0 -13 -6 -17
-8 -4 -7 -9 2 -15 10 -6 11 -9 2 -9 -7 0 -13 -12 -13 -26 0 -16 -4 -23 -12
-18 -7 4 -8 3 -4 -5 4 -6 2 -19 -6 -28 -9 -12 -9 -15 0 -9 6 4 12 2 12 -3 0
-6 -5 -11 -12 -11 -6 0 -8 -3 -5 -7 4 -3 1 -13 -6 -21 -8 -11 -8 -14 0 -9 8 5
9 0 0 -23 -7 -20 -14 -25 -19 -17 -6 9 -8 9 -8 0 0 -6 5 -15 10 -18 7 -4 7
-11 2 -18 -5 -7 -8 -20 -7 -29 2 -10 -1 -18 -6 -18 -4 0 -6 -7 -3 -15 4 -9 0
-15 -7 -15 -11 0 -11 -3 1 -10 10 -7 11 -10 2 -10 -8 0 -11 -9 -8 -25 3 -14 0
-25 -6 -25 -5 0 -8 -6 -5 -14 3 -8 3 -17 -1 -20 -3 -4 -7 -21 -8 -38 -2 -17
-9 -35 -16 -39 -8 -6 -9 -9 -1 -9 9 0 11 -19 3 -40 -1 -3 -2 -8 -1 -12 0 -5
-5 -8 -11 -8 -9 0 -8 -4 2 -10 8 -5 10 -10 4 -10 -6 0 -10 -10 -10 -22 1 -13
0 -27 -3 -33 -3 -5 -7 -27 -8 -48 -5 -55 -8 -70 -16 -84 -5 -8 -3 -13 5 -13 8
0 9 -3 3 -8 -6 -4 -11 -27 -13 -52 -3 -59 -6 -72 -15 -87 -5 -8 -3 -13 3 -13
7 0 8 -5 3 -12 -8 -13 -10 -28 -12 -101 -1 -22 -5 -36 -11 -32 -6 3 -7 -1 -4
-9 3 -9 11 -13 18 -10 6 3 2 -2 -8 -10 -11 -9 -15 -16 -8 -16 14 0 12 -42 -3
-52 -6 -5 -5 -8 3 -8 8 0 10 -5 5 -12 -13 -21 -13 -42 0 -50 8 -5 8 -8 1 -8
-7 0 -10 -26 -10 -70 1 -39 -3 -70 -7 -70 -4 0 -3 -9 3 -20 8 -15 8 -20 -2
-20 -9 0 -9 -3 2 -10 12 -8 12 -10 1 -10 -10 0 -11 -3 -2 -13 6 -8 8 -17 4
-20 -5 -6 -5 -41 0 -169 2 -28 -2 -48 -8 -48 -5 0 -3 -5 5 -10 12 -8 12 -10 1
-10 -9 0 -10 -4 -4 -12 5 -7 8 -34 8 -60 -1 -27 2 -48 5 -48 8 0 4 -49 -4 -57
-3 -4 -1 -12 5 -19 6 -7 12 -34 12 -59 1 -25 7 -45 12 -45 6 0 3 -5 -5 -10 -8
-5 -10 -10 -4 -10 6 0 10 -18 10 -41 -1 -23 4 -48 11 -55 10 -10 10 -13 0 -17
-9 -3 -9 -7 0 -19 10 -11 10 -17 1 -26 -9 -9 -9 -12 1 -12 11 0 11 -3 0 -17
-12 -14 -12 -16 0 -8 11 6 13 2 9 -19 -3 -14 -2 -26 2 -26 4 0 6 -14 5 -30 -1
-17 0 -30 4 -30 4 0 7 -17 6 -37 0 -21 4 -44 9 -50 4 -7 5 -13 1 -13 -4 0 -2
-7 5 -15 7 -8 10 -22 6 -30 -3 -8 0 -15 7 -15 8 0 6 -4 -3 -10 -8 -5 -10 -10
-3 -10 6 0 9 -9 6 -20 -3 -11 -1 -20 5 -20 6 0 9 -9 7 -20 -2 -11 2 -20 8 -20
7 0 6 -4 -3 -10 -9 -6 -10 -10 -3 -10 6 0 10 -9 8 -20 -2 -11 0 -20 5 -20 5 0
7 -9 5 -20 -2 -11 -1 -20 3 -20 4 0 8 -10 9 -23 4 -35 9 -56 15 -63 4 -3 4
-12 1 -20 -3 -8 0 -14 6 -14 6 0 11 -5 11 -11 0 -5 -6 -7 -13 -3 -8 5 -7 2 2
-9 8 -10 11 -20 8 -24 -4 -3 -1 -15 5 -27 7 -11 14 -32 16 -46 2 -13 6 -27 10
-30 9 -6 14 -27 15 -62 1 -14 5 -24 9 -22 5 3 8 -6 8 -20 0 -14 6 -26 13 -26
8 0 7 -4 -3 -10 -12 -7 -12 -10 -1 -10 7 0 11 -6 7 -15 -3 -8 -1 -15 5 -15 6
0 9 -7 5 -15 -3 -8 0 -15 6 -15 6 0 8 -3 5 -6 -3 -4 -1 -16 5 -28 7 -11 13
-30 15 -40 2 -11 8 -26 15 -33 6 -7 8 -16 5 -20 -4 -3 -2 -12 4 -20 6 -7 8
-13 3 -13 -5 0 -2 -5 6 -10 10 -6 11 -10 2 -10 -7 0 -4 -8 9 -21 16 -16 18
-23 8 -35 -10 -12 -10 -15 2 -12 8 2 13 -3 11 -10 -1 -7 4 -20 12 -27 8 -8 13
-23 12 -32 -2 -10 3 -24 11 -31 7 -8 11 -18 8 -23 -4 -5 -1 -9 4 -9 6 0 11 -9
11 -20 0 -11 5 -20 12 -20 6 0 8 -3 5 -7 -4 -3 -1 -13 6 -21 10 -13 9 -14 -3
-7 -8 4 -5 -2 8 -14 23 -22 30 -37 12 -26 -6 3 -7 -1 -4 -9 3 -9 10 -16 16
-16 5 0 6 -5 3 -10 -3 -5 -1 -10 5 -10 6 0 9 -4 6 -9 -3 -4 1 -16 8 -27 8 -10
11 -25 8 -33 -3 -9 -1 -12 6 -7 8 5 12 0 12 -13 0 -12 5 -21 10 -21 6 0 10 -9
10 -19 0 -11 5 -23 10 -26 6 -4 8 -10 5 -15 -3 -4 3 -11 12 -14 15 -6 15 -8 3
-16 -13 -8 -12 -10 2 -10 9 0 20 -5 24 -12 4 -7 3 -8 -4 -4 -17 10 -15 -3 3
-21 8 -8 13 -19 10 -24 -4 -5 -2 -9 4 -9 5 0 15 -16 21 -36 7 -19 18 -38 26
-41 8 -3 12 -9 9 -13 -3 -4 5 -20 17 -36 13 -15 17 -24 10 -20 -11 7 -11 4 0
-13 7 -12 16 -21 21 -21 4 0 6 -4 2 -9 -3 -6 0 -13 7 -18 17 -11 47 -49 31
-39 -7 4 -13 3 -13 -3 0 -5 10 -13 21 -16 17 -6 19 -9 8 -16 -8 -5 -9 -9 -4
-9 6 0 19 -12 29 -27 12 -16 14 -23 5 -18 -8 5 -7 1 4 -12 9 -11 14 -23 10
-28 -5 -4 -2 -5 5 -1 7 4 15 0 19 -11 4 -10 9 -20 12 -23 4 -3 12 -18 19 -33
7 -15 17 -25 22 -22 6 4 10 3 9 -2 -4 -18 24 -73 36 -73 8 0 12 -8 10 -20 -2
-11 1 -23 7 -26 7 -5 8 -2 3 6 -6 9 -4 11 4 6 7 -5 10 -14 7 -22 -3 -8 0 -11
9 -8 10 4 13 0 10 -16 -2 -13 -2 -20 2 -17 8 9 33 -19 33 -38 0 -9 4 -13 10
-10 9 6 14 -8 11 -28 0 -4 5 -6 11 -5 7 2 12 -3 10 -9 -1 -7 2 -13 8 -13 5 0
10 -7 10 -16 0 -8 4 -13 8 -10 5 3 15 -7 23 -22 8 -14 21 -34 29 -43 32 -37
40 -49 40 -59 0 -6 4 -9 8 -6 4 2 14 -4 21 -16 9 -15 10 -18 0 -13 -8 5 -10 4
-5 -3 4 -7 14 -12 22 -12 8 0 14 -5 14 -11 0 -7 9 -20 21 -30 11 -9 20 -20 20
-23 -1 -3 2 -6 7 -7 4 0 13 -11 20 -25 7 -13 17 -24 22 -24 6 0 10 -6 10 -13
0 -7 9 -19 20 -27 11 -8 20 -20 20 -27 0 -6 9 -14 19 -18 14 -4 18 -12 14 -23
-3 -9 -3 -14 2 -10 11 11 36 -12 28 -25 -3 -5 -2 -8 3 -5 11 7 35 -17 27 -26
-4 -3 1 -6 9 -6 9 0 19 -11 22 -25 4 -17 11 -22 22 -18 9 3 14 0 12 -8 -2 -8
4 -13 12 -11 12 3 13 1 2 -9 -6 -7 -12 -18 -12 -23 0 -6 4 -5 9 2 11 18 76
-42 65 -61 -5 -7 0 -6 12 3 10 8 16 11 12 6 -8 -10 15 -36 31 -36 6 0 11 -6
11 -14 0 -7 12 -22 27 -32 38 -24 53 -40 46 -48 -4 -3 -1 -6 6 -6 16 0 61 -46
53 -54 -3 -4 1 -4 11 0 12 4 17 1 17 -10 0 -9 3 -15 7 -14 5 2 9 -1 11 -7 2
-5 14 -16 28 -23 13 -7 24 -17 24 -22 0 -6 6 -10 13 -10 7 0 19 -9 27 -20 8
-11 20 -20 28 -20 7 0 10 -5 7 -10 -3 -6 0 -10 7 -10 7 0 24 -13 38 -30 14
-16 30 -30 37 -30 7 0 13 -5 13 -11 0 -5 5 -7 10 -4 6 3 10 -1 10 -9 0 -8 9
-18 20 -21 11 -3 20 -11 20 -17 0 -5 8 -7 17 -4 10 4 14 4 10 0 -7 -7 30 -44
45 -44 4 0 8 -7 8 -15 0 -8 5 -15 11 -15 5 0 7 5 3 12 -4 7 -3 8 5 4 9 -6 9
-11 0 -22 -9 -12 -9 -13 3 -9 17 7 84 -37 80 -53 -1 -7 2 -12 8 -12 5 0 10 6
10 13 1 6 7 1 15 -13 8 -14 14 -21 15 -16 0 5 8 2 18 -7 10 -10 23 -14 27 -10
5 5 3 -1 -5 -11 -14 -18 -14 -19 9 -7 13 7 21 8 17 2 -8 -12 28 -33 39 -23 5
4 5 2 2 -4 -4 -7 5 -20 21 -29 l27 -18 -20 24 c-15 18 -12 17 16 -6 50 -42 79
-60 90 -57 5 1 9 -2 9 -8 0 -5 7 -10 15 -10 8 0 15 -4 15 -10 0 -5 5 -10 11
-10 7 0 20 -10 30 -22 13 -14 19 -16 19 -7 0 9 3 10 8 3 8 -12 43 -28 55 -26
4 1 6 -4 5 -10 -2 -7 7 -14 20 -16 12 -2 22 -7 22 -12 0 -5 10 -10 23 -12 12
-2 21 -9 19 -16 -1 -8 2 -11 7 -8 5 4 12 2 16 -4 3 -5 15 -10 26 -10 10 0 19
-4 19 -10 0 -5 7 -10 15 -10 8 0 15 -5 15 -11 0 -5 4 -8 9 -4 5 3 17 -3 27
-12 10 -10 20 -17 23 -16 10 4 61 -21 61 -30 0 -5 5 -5 10 -2 6 3 13 0 16 -8
3 -8 15 -14 27 -13 12 1 30 -8 40 -19 10 -11 16 -13 12 -5 -4 10 -2 9 8 -2 16
-21 31 -24 22 -6 -4 7 -1 6 7 -2 7 -8 22 -22 32 -30 18 -13 19 -13 11 0 -8 13
-7 13 8 1 9 -7 17 -10 17 -7 0 4 7 0 16 -9 9 -9 21 -14 28 -12 6 2 17 -3 24
-12 11 -13 12 -13 6 -1 -6 11 -2 10 13 -2 11 -10 25 -18 33 -18 7 0 19 -8 27
-17 8 -10 12 -12 8 -6 -8 17 5 16 29 -2 11 -8 30 -15 42 -15 12 0 27 -7 34
-15 7 -9 15 -13 18 -10 3 2 21 -5 40 -17 20 -12 33 -17 29 -12 -3 6 0 11 8 11
8 0 12 -4 9 -9 -3 -4 4 -8 15 -8 11 0 23 -5 26 -10 4 -6 11 -8 16 -5 5 4 9 1
9 -5 0 -7 7 -9 17 -6 9 4 19 2 23 -4 6 -10 38 -20 68 -22 6 -1 12 -5 12 -9 0
-4 8 -6 18 -5 9 2 20 -1 23 -5 3 -5 17 -10 32 -11 15 -1 27 -6 27 -11 0 -5 9
-7 20 -4 11 3 20 1 20 -5 0 -6 7 -7 16 -4 10 4 13 2 8 -6 -5 -7 0 -9 14 -6 12
3 22 2 24 -3 3 -9 46 -19 91 -22 9 -1 17 -4 17 -7 0 -6 17 -10 53 -11 9 0 17
-4 17 -9 0 -5 9 -7 19 -5 11 2 22 -3 25 -11 4 -11 10 -12 23 -5 12 7 21 5 31
-7 7 -10 11 -11 7 -4 -8 16 -2 15 41 -3 24 -10 32 -11 27 -2 -4 7 5 4 19 -5
17 -12 28 -14 30 -6 3 7 10 4 21 -6 10 -11 17 -13 17 -5 0 9 3 9 15 -1 8 -6
19 -9 24 -6 5 4 12 2 16 -3 3 -6 12 -8 20 -5 8 3 20 2 26 -2 12 -7 51 -13 107
-17 12 0 22 -5 22 -11 0 -5 3 -6 7 -3 3 4 13 1 21 -6 11 -8 14 -9 9 0 -5 8 0
11 13 10 11 -1 20 -5 20 -10 0 -5 8 -3 17 4 14 12 16 12 8 0 -6 -11 -3 -13 13
-9 13 4 22 1 22 -5 0 -7 5 -5 10 3 5 8 10 11 10 5 0 -9 47 -16 118 -18 12 -1
22 -6 22 -12 0 -5 5 -3 10 5 5 8 10 10 10 4 0 -14 30 -14 30 0 0 6 4 4 10 -4
5 -8 12 -11 16 -7 4 4 13 2 21 -4 10 -9 13 -8 13 2 0 11 2 11 10 -1 8 -12 11
-13 19 -1 5 8 11 9 15 3 3 -6 16 -8 28 -4 16 4 19 2 13 -8 -6 -10 -4 -11 6 -4
21 13 39 14 39 1 0 -7 5 -5 10 3 5 8 10 10 10 4 0 -14 30 -14 30 0 0 7 3 7 8
1 10 -14 45 -16 54 -2 6 9 8 9 8 0 0 -6 13 -10 30 -9 17 1 30 -2 30 -8 0 -6 4
-6 11 1 6 6 25 7 50 3 26 -5 39 -4 39 4 0 7 3 7 8 1 9 -12 62 -14 62 -2 0 4 5
5 12 1 17 -10 68 -11 68 0 0 5 7 3 15 -4 8 -7 15 -9 15 -4 0 10 130 10 154 1
11 -4 13 -1 9 10 -4 11 -3 14 6 9 19 -12 61 -14 67 -4 3 5 12 4 20 -3 11 -9
14 -9 14 1 0 10 3 10 14 1 10 -9 16 -9 21 -1 4 6 20 9 36 6 18 -3 29 0 29 7 0
8 3 8 8 2 10 -15 35 -18 26 -4 -5 8 -2 10 8 6 9 -3 21 0 28 6 10 9 11 9 6 0
-7 -12 30 -13 50 -1 5 4 22 5 37 4 15 -2 27 1 27 7 0 5 7 4 15 -3 8 -7 15 -8
15 -3 0 5 18 9 39 9 22 -1 37 3 34 8 -3 4 4 5 16 1 12 -4 21 -2 21 4 0 6 6 8
14 5 8 -3 24 0 36 6 15 8 20 8 16 1 -5 -8 0 -8 17 -2 17 7 29 6 37 -2 9 -8 11
-8 7 -1 -9 15 31 26 40 12 4 -7 10 -6 17 3 15 19 51 25 40 7 -5 -8 0 -7 12 3
10 8 31 15 47 14 15 0 27 3 27 7 0 4 7 5 15 2 9 -4 15 0 15 7 0 9 3 10 8 4 8
-12 44 -16 37 -5 -3 4 2 10 10 14 8 3 15 0 15 -7 0 -8 2 -9 8 -1 11 17 52 28
52 14 0 -7 7 -4 16 5 9 9 23 14 30 11 8 -3 14 -1 14 5 0 6 4 8 9 4 5 -3 12 -1
16 4 3 6 12 8 20 4 9 -3 15 1 15 8 0 11 3 11 10 -1 6 -9 10 -11 10 -3 0 7 7
10 15 7 8 -4 15 -1 15 4 0 6 9 9 20 7 11 -2 20 0 20 5 0 5 9 7 20 5 11 -2 20
1 20 7 0 5 7 8 15 4 8 -3 15 0 15 7 0 8 4 6 10 -3 5 -8 10 -10 10 -4 0 7 9 14
20 17 11 3 20 0 20 -6 0 -6 7 -1 16 11 11 17 19 20 28 13 9 -7 16 -7 24 1 7 7
17 13 24 14 29 5 43 9 49 16 3 5 17 9 32 10 15 1 27 6 27 10 0 4 7 5 15 2 8
-4 15 -1 15 6 0 6 4 9 9 5 5 -3 12 -1 16 5 4 6 10 8 15 5 5 -3 25 4 45 15 21
12 34 15 30 8 -4 -7 0 -5 8 5 16 20 32 23 21 5 -4 -7 2 -5 14 6 12 10 28 16
37 12 11 -4 14 -2 9 6 -5 8 -2 9 10 5 10 -4 15 -3 11 3 -5 9 15 15 38 11 4 -1
10 5 13 13 3 9 12 12 21 9 12 -5 14 -3 8 7 -5 9 -4 11 3 6 6 -4 24 0 40 8 16
8 32 12 36 9 3 -4 6 -1 6 6 0 7 5 9 10 6 6 -3 10 0 10 7 0 9 3 9 10 -2 8 -13
10 -12 10 3 0 10 5 15 10 12 6 -3 10 -2 10 2 0 5 10 9 22 10 11 1 24 6 27 11
8 12 52 27 69 23 7 -1 11 4 10 11 -2 6 2 12 7 13 6 0 16 4 22 8 7 5 17 6 22 3
5 -3 12 1 15 10 4 9 9 14 13 10 3 -3 15 1 25 11 10 9 18 13 18 9 0 -4 7 0 16
8 8 9 20 14 25 10 5 -3 12 1 15 10 3 8 14 13 25 11 11 -2 17 0 14 6 -6 8 16
14 38 10 5 -1 6 3 3 8 -7 11 22 23 36 14 6 -3 9 -2 6 3 -3 5 0 14 7 21 11 10
15 10 18 0 3 -7 6 -4 6 6 1 10 6 15 12 12 6 -4 20 1 32 12 12 10 31 25 41 33
18 13 19 13 12 0 -4 -8 -1 -7 8 4 9 11 20 15 28 10 7 -4 10 -4 6 1 -10 10 19
38 32 30 6 -3 13 1 16 9 3 9 12 16 20 16 7 0 18 8 23 17 6 10 11 12 11 6 0 -9
6 -7 18 5 11 9 17 21 14 26 -3 5 0 6 7 2 7 -5 19 0 27 10 9 11 13 13 9 7 -4
-9 -1 -11 9 -7 9 3 13 10 11 15 -3 5 6 11 20 15 14 3 25 11 25 16 0 6 7 8 14
5 10 -4 13 -1 10 7 -3 8 0 17 7 22 8 5 10 3 4 -6 -5 -8 7 -2 27 13 19 15 38
27 43 27 4 0 18 11 31 26 13 14 24 22 24 19 0 -6 17 7 55 43 13 12 29 22 35
22 5 0 10 5 10 11 0 5 5 7 10 4 6 -3 13 1 16 9 3 8 14 18 25 21 11 4 17 11 14
16 -4 5 0 9 8 9 8 0 22 9 32 20 10 11 22 17 26 14 5 -3 9 2 9 10 0 9 7 16 16
16 9 0 12 5 8 12 -5 8 -2 9 10 5 10 -4 15 -3 11 3 -3 6 2 13 12 17 10 4 31 18
46 32 16 15 39 36 52 47 13 12 27 19 31 15 4 -3 4 -1 1 6 -4 6 7 20 27 32 19
12 37 28 40 36 3 8 13 15 21 15 9 0 13 5 10 10 -3 6 -1 10 5 10 6 0 8 5 4 12
-4 7 -3 8 5 4 6 -4 14 0 17 8 3 9 10 13 15 10 5 -3 9 -1 9 5 0 17 51 62 62 55
7 -4 8 -2 4 4 -4 7 -2 12 4 12 6 0 8 5 5 10 -3 6 1 10 10 10 9 0 14 4 10 9 -3
5 4 12 15 16 11 3 20 14 20 22 0 9 3 14 6 11 3 -3 16 5 30 19 13 13 29 21 34
18 6 -3 10 -1 10 4 0 6 -5 11 -11 11 -5 0 -8 4 -4 10 3 5 12 7 21 3 8 -3 14
-2 13 3 -4 21 2 34 15 34 8 0 18 5 22 12 4 7 3 8 -4 4 -17 -10 -15 3 3 20 8 9
15 12 15 7 0 -4 8 4 17 17 9 14 23 29 30 33 7 5 11 12 8 18 -6 8 8 13 28 10 4
0 6 2 6 6 -3 20 2 34 11 28 6 -3 10 0 10 8 0 8 10 22 23 31 12 9 15 14 7 10
-8 -4 -4 4 10 18 40 41 70 79 70 89 0 6 5 7 10 4 9 -6 14 8 11 28 0 4 6 7 16
7 9 0 14 3 11 6 -6 6 1 16 48 68 13 14 20 26 16 26 -4 0 2 7 12 15 11 8 16 15
12 15 -5 0 2 9 15 21 13 11 17 18 9 14 -8 -4 -6 1 5 10 11 9 20 20 20 25 0 4
10 20 22 34 13 14 20 26 17 26 -3 0 7 11 22 25 15 14 24 28 21 31 -7 7 12 28
33 37 12 4 12 6 1 6 -10 1 -7 7 8 20 12 11 22 22 22 25 -3 20 0 26 9 21 6 -3
10 1 10 10 0 9 13 36 30 59 16 24 26 46 23 50 -4 3 1 6 10 6 10 0 16 3 16 8
-3 19 2 33 10 27 6 -3 8 4 6 15 -2 11 0 18 5 15 5 -3 12 6 16 20 3 14 9 25 13
25 4 0 13 16 21 35 8 19 17 35 22 35 4 0 7 3 6 8 -3 14 14 42 23 36 5 -3 6 1
3 9 -3 8 1 21 8 28 8 8 20 29 27 47 7 17 17 32 22 32 5 0 6 7 3 15 -4 8 1 17
10 21 9 3 14 10 11 15 -6 9 14 49 29 60 5 4 5 12 2 18 -4 6 -3 11 2 11 13 0
33 56 24 66 -4 4 -2 4 4 1 10 -6 17 7 24 41 0 4 8 17 16 30 8 12 12 27 9 31
-3 5 0 11 5 13 6 2 13 12 14 23 2 11 8 19 13 18 6 -1 9 9 7 22 -1 14 2 25 6
25 5 0 12 16 16 35 3 19 10 35 16 35 5 0 6 5 3 10 -3 5 -1 10 5 10 6 0 9 4 6
9 -8 12 19 62 29 53 4 -4 2 4 -5 17 -8 15 -8 21 -1 17 6 -4 11 0 11 8 0 9 6
16 13 16 9 0 8 3 -2 9 -9 6 -10 11 -2 15 6 4 9 11 6 16 -3 4 3 11 12 14 15 6
15 8 3 16 -12 8 -12 10 -1 10 7 0 11 6 7 15 -3 8 -1 15 5 15 6 0 8 4 4 9 -3 5
-1 12 5 16 6 4 8 11 5 16 -4 5 -2 9 4 9 5 0 8 9 6 20 -2 11 3 24 13 30 14 8
14 10 2 10 -13 1 -13 2 1 10 10 6 15 21 14 40 -1 16 1 30 4 30 4 0 8 10 8 22
1 13 7 24 12 26 5 2 7 10 4 18 -3 8 1 14 8 14 11 0 11 3 -1 10 -11 7 -11 10
-2 10 7 0 11 4 8 9 -3 4 1 17 9 27 8 10 14 24 15 29 0 6 -5 3 -10 -5 -5 -8
-10 -10 -10 -4 0 6 3 14 8 18 4 4 7 13 7 19 1 7 7 11 15 9 11 -3 11 0 0 12 -9
11 -9 20 -2 28 11 14 12 17 12 54 0 14 4 23 10 19 6 -3 10 -1 10 4 0 6 -6 11
-12 11 -8 0 -9 3 -3 8 11 8 12 13 19 64 2 18 8 42 12 52 4 10 8 31 9 45 1 15
7 25 14 23 8 -1 10 2 5 10 -14 22 -11 48 5 48 10 0 12 3 5 8 -6 4 -9 16 -7 27
3 11 5 35 6 52 1 22 7 33 17 33 9 0 11 3 5 8 -9 6 -12 26 -5 35 3 4 9 49 13
92 1 22 6 45 10 52 4 6 3 15 -3 18 -8 5 -8 11 0 20 6 7 8 20 4 29 -4 10 -1 16
7 16 11 0 11 3 -1 10 -11 7 -11 10 -2 10 7 0 10 5 7 10 -3 6 0 10 7 10 10 0
10 2 -1 9 -10 7 -11 13 -2 30 8 14 8 21 1 21 -7 0 -8 6 -2 17 5 10 7 24 4 32
-3 9 0 11 8 6 9 -6 11 -4 5 4 -9 15 -13 81 -4 81 3 0 4 16 3 35 -2 26 0 34 9
28 7 -4 6 0 -2 11 -10 12 -11 20 -3 28 8 8 8 17 1 30 -7 13 -6 18 2 18 8 0 8
4 -1 15 -10 12 -10 15 0 15 10 0 10 3 0 15 -7 8 -8 15 -3 15 5 0 9 11 9 25 0
14 -4 25 -9 25 -5 0 -4 7 3 15 10 12 10 19 2 27 -8 8 -8 17 -1 30 7 13 7 23
-1 33 -7 8 -7 15 -1 19 13 8 10 46 -4 46 -7 0 -7 3 0 8 6 4 11 16 11 27 0 11
-5 23 -11 27 -7 5 -6 8 1 8 6 0 11 7 11 15 0 8 -4 15 -8 15 -9 0 -6 20 4 38 5
7 4 12 -2 12 -13 0 -10 22 4 32 7 5 6 8 -1 8 -5 0 -11 26 -12 58 -1 31 -3 81
-5 110 -1 28 -6 52 -12 52 -5 0 -3 5 5 10 12 8 12 10 1 10 -11 0 -11 3 0 17
10 11 10 14 2 9 -9 -5 -13 0 -13 14 0 14 4 19 13 14 6 -4 3 2 -7 14 -13 15
-15 22 -6 22 9 0 9 4 2 13 -5 6 -8 22 -6 35 2 12 -1 22 -7 22 -8 0 -8 5 1 15
9 11 9 15 1 15 -7 0 -10 4 -6 9 3 5 2 12 -3 15 -5 3 -7 18 -4 34 2 17 -1 39
-7 50 -8 15 -8 23 0 28 8 4 8 9 1 13 -6 4 -12 26 -13 49 -2 23 -8 42 -13 42
-6 0 -4 5 4 10 8 5 10 10 5 10 -10 0 -16 28 -18 83 -1 9 -4 17 -7 17 -3 0 -6
8 -7 18 -3 49 -8 72 -18 72 -5 0 -3 5 5 10 13 8 12 10 -3 10 -15 0 -16 3 -7
20 8 15 8 20 -1 20 -7 0 -9 3 -6 7 4 3 1 13 -6 21 -10 13 -9 14 1 8 10 -6 9 0
-2 23 -9 17 -14 31 -11 31 3 0 1 9 -5 19 -7 14 -6 21 3 24 9 4 9 6 0 6 -7 1
-13 10 -13 21 0 11 -5 20 -11 20 -8 0 -8 5 1 15 9 10 9 15 1 15 -6 0 -11 11
-11 25 0 14 -5 25 -11 25 -5 0 -7 5 -4 10 4 6 1 18 -7 27 -11 14 -11 16 1 9 8
-6 7 0 -4 18 -14 20 -14 26 -4 26 10 1 9 4 -3 11 -11 6 -15 16 -11 26 5 12 3
14 -8 8 -12 -7 -12 -6 -1 7 11 14 10 18 -5 27 -14 8 -15 11 -3 11 10 1 9 4 -5
10 -11 5 -15 9 -8 9 9 1 8 8 -2 27 -7 15 -12 35 -10 45 2 11 0 17 -6 14 -5 -4
-9 -3 -10 2 -2 24 -9 45 -22 73 -9 17 -11 27 -5 24 5 -4 3 5 -6 18 -9 14 -13
28 -9 31 3 4 2 7 -4 7 -5 0 -10 6 -10 13 -1 24 -8 42 -23 54 -13 11 -13 12 0
13 13 1 13 2 -1 13 -17 13 -19 17 -19 48 0 13 -4 18 -12 13 -8 -5 -9 -2 -5 9
4 10 2 17 -4 17 -6 0 -9 6 -6 14 3 8 2 16 -3 18 -4 2 -10 12 -12 23 -1 11 -7
23 -11 26 -7 5 -14 26 -16 52 -1 5 -6 5 -13 1 -6 -4 -8 -3 -4 4 3 6 2 13 -4
17 -5 3 -10 17 -10 31 0 13 -4 24 -10 24 -5 0 -10 8 -10 18 0 9 -7 26 -15 36
-8 10 -12 22 -10 26 3 5 -3 11 -12 14 -15 6 -15 8 -3 16 13 8 12 10 -2 10 -10
0 -17 3 -17 8 4 22 -2 42 -11 37 -5 -3 -10 1 -10 9 0 8 -9 31 -21 50 -12 20
-18 36 -15 36 3 0 -3 9 -15 21 -11 11 -18 27 -15 35 3 8 -1 14 -9 14 -8 0 -15
3 -14 8 2 15 -14 52 -23 52 -5 0 -6 5 -3 10 3 6 1 10 -5 10 -6 0 -9 4 -6 9 4
5 2 11 -3 13 -5 1 -11 10 -13 18 -2 8 -11 21 -21 30 -9 8 -19 26 -22 39 -2 13
-13 32 -24 43 -13 11 -18 25 -14 35 4 11 2 14 -5 9 -13 -8 -45 47 -34 59 4 5
1 5 -5 1 -8 -4 -13 -2 -13 5 0 6 -10 20 -22 30 -12 11 -16 19 -8 19 8 0 6 6
-6 18 -24 21 -59 74 -56 85 1 4 -5 7 -13 7 -13 0 -20 14 -12 23 2 3 -21 32
-45 55 -10 9 -18 21 -18 27 0 6 -9 17 -20 25 -14 10 -17 17 -8 27 9 11 7 12
-8 7 -10 -4 -16 -3 -12 1 5 5 -1 14 -12 22 -11 8 -20 21 -20 29 0 8 -4 14 -10
14 -5 0 -10 8 -10 18 0 14 -2 15 -10 2 -8 -12 -10 -11 -10 5 0 11 -9 27 -20
35 -11 8 -20 20 -20 27 0 7 -9 17 -20 23 -11 6 -20 17 -20 25 0 8 -4 15 -10
15 -5 0 -10 5 -10 10 0 6 -18 28 -40 49 -22 21 -40 43 -40 50 0 7 -4 9 -10 6
-5 -3 -10 -1 -10 6 0 6 -12 22 -27 35 -16 13 -25 24 -21 24 5 0 -15 22 -42 48
-28 27 -50 54 -50 60 0 7 -4 12 -10 12 -13 0 -98 88 -92 95 3 3 -2 5 -10 5 -9
0 -18 7 -22 15 -3 8 -20 24 -38 35 -18 11 -27 20 -20 20 10 0 10 3 0 14 -7 8
-15 12 -17 11 -2 -2 -19 12 -39 31 -19 19 -39 34 -44 34 -5 0 -6 5 -3 10 3 6
-1 10 -9 10 -9 0 -16 7 -16 16 0 8 -4 13 -8 10 -5 -3 -14 4 -22 14 -8 10 -17
17 -22 14 -4 -3 -8 2 -8 10 0 9 -7 16 -16 16 -8 0 -12 5 -9 10 3 6 -1 10 -10
10 -8 0 -18 7 -21 15 -4 8 -10 12 -15 9 -5 -3 -9 2 -9 11 0 9 -4 14 -9 11 -5
-3 -12 1 -15 10 -4 9 -9 14 -12 11 -7 -7 -50 35 -46 46 1 5 -2 6 -8 2 -5 -3
-10 -1 -10 5 0 6 -4 9 -8 6 -5 -3 -15 4 -22 15 -8 10 -19 19 -24 19 -5 0 -22
13 -37 30 -16 16 -29 27 -29 24 0 -4 -6 -1 -13 5 -8 6 -17 7 -21 3 -4 -4 -6 0
-4 8 2 8 -2 14 -9 13 -6 -2 -15 6 -18 17 -4 11 -10 18 -14 15 -5 -2 -21 6 -37
20 -15 13 -32 22 -36 19 -5 -3 -7 0 -6 8 2 7 -3 12 -9 11 -7 -2 -13 1 -13 6 0
5 -9 13 -20 16 -11 4 -18 11 -14 16 3 5 2 9 -3 8 -13 -4 -63 23 -63 33 0 5 -4
7 -9 4 -5 -3 -11 1 -15 9 -3 8 -12 15 -21 15 -8 0 -15 5 -15 10 0 6 -7 10 -16
10 -8 0 -13 4 -9 9 3 6 -4 8 -15 6 -13 -2 -20 1 -20 11 0 8 -6 13 -12 11 -7
-1 -12 3 -11 10 2 7 -6 10 -17 8 -13 -2 -20 2 -20 11 0 12 -19 19 -36 12 -3
-2 -10 5 -15 15 -6 9 -14 15 -20 12 -5 -4 -9 -1 -9 4 0 6 -7 11 -16 11 -8 0
-13 4 -9 9 3 6 -3 8 -15 6 -11 -2 -19 1 -17 8 1 7 -4 11 -11 9 -7 -1 -15 4
-18 12 -3 8 -12 12 -20 9 -8 -3 -14 0 -14 7 0 6 -4 8 -10 5 -5 -3 -10 -1 -10
4 0 6 -7 11 -15 11 -8 0 -15 4 -15 10 0 5 -6 7 -14 4 -7 -3 -16 2 -20 11 -3
10 -12 15 -20 12 -8 -3 -24 6 -37 19 -14 15 -31 23 -41 21 -10 -3 -16 -2 -13
3 6 10 -24 22 -36 14 -5 -3 -9 2 -9 11 0 9 -4 13 -10 10 -5 -3 -10 -1 -10 4 0
6 -9 11 -21 11 -11 0 -18 4 -15 9 4 5 -3 7 -14 4 -12 -3 -22 1 -26 11 -3 9
-10 13 -15 10 -5 -3 -9 0 -9 6 0 6 -5 8 -11 5 -5 -4 -19 1 -29 10 -10 9 -24
14 -29 10 -6 -3 -11 -1 -11 5 0 6 -4 8 -10 5 -5 -3 -10 -1 -10 5 0 6 -4 9 -9
5 -5 -3 -12 3 -14 12 -4 16 -5 16 -6 -1 -1 -16 -3 -16 -22 5 -11 13 -17 18
-14 10 6 -9 1 -9 -17 3 -14 9 -28 13 -31 9 -4 -3 -7 -1 -7 6 0 7 -4 9 -10 6
-5 -3 -10 -1 -10 4 0 6 -9 11 -20 11 -11 0 -20 4 -20 8 0 4 -12 9 -27 10 -14
1 -34 9 -43 17 -20 18 -34 20 -24 3 4 -7 -2 -5 -13 5 -11 9 -23 14 -26 10 -4
-3 -7 -1 -7 6 0 7 -4 9 -10 6 -5 -3 -20 1 -33 10 -13 8 -27 12 -30 8 -4 -3 -7
-2 -7 4 0 5 -6 10 -12 11 -25 2 -48 8 -54 15 -4 4 -16 7 -26 7 -10 0 -18 4
-18 8 0 4 -9 9 -20 10 -44 4 -50 6 -50 15 0 6 -3 8 -6 4 -4 -3 -22 0 -42 9
-19 8 -37 12 -40 9 -3 -3 -16 2 -29 10 -13 9 -28 13 -33 10 -5 -3 -11 -1 -15
5 -4 6 -11 8 -16 5 -5 -4 -9 -3 -9 2 0 4 -12 9 -27 10 -44 3 -68 7 -73 15 -3
4 -17 9 -30 11 -14 3 -34 9 -44 13 -15 6 -18 4 -12 -7 4 -8 0 -5 -8 5 -10 13
-16 15 -16 7 0 -11 -3 -11 -15 -1 -8 6 -19 9 -25 5 -5 -3 -10 -1 -10 5 0 7 -7
10 -15 6 -8 -3 -15 -1 -15 4 0 6 -5 10 -11 10 -5 0 -7 -5 -3 -11 3 -6 -6 -3
-22 7 -17 12 -25 14 -20 6 7 -12 4 -12 -14 -2 -12 6 -28 9 -36 6 -10 -4 -12
-2 -8 6 5 7 2 9 -8 5 -9 -3 -21 0 -28 6 -10 9 -11 9 -6 0 5 -9 2 -11 -8 -7 -9
3 -14 9 -11 13 2 4 -2 8 -10 8 -8 0 -15 -5 -15 -10 0 -5 -6 -4 -14 2 -7 6 -21
9 -30 5 -9 -3 -16 -2 -16 3 0 8 -20 11 -102 15 -16 1 -28 4 -28 8 0 6 -48 12
-112 14 -21 0 -38 4 -38 7 0 4 -15 7 -32 7 -66 2 -117 8 -124 15 -12 12 -26 8
-18 -5 5 -9 2 -8 -9 1 -10 8 -20 11 -24 8 -3 -4 -12 -2 -20 4 -8 7 -13 8 -13
1 0 -5 -8 -8 -17 -6 -10 2 -38 6 -63 7 -25 1 -51 6 -59 11 -9 6 -12 5 -8 -1 3
-5 -12 -9 -39 -9 -24 1 -44 5 -44 10 0 5 -7 3 -15 -4 -10 -9 -15 -9 -15 -1 0
13 -22 10 -32 -4 -5 -7 -8 -7 -8 0 0 12 -119 14 -137 2 -6 -4 -14 -4 -17 1 -6
10 -117 9 -133 -1 -7 -5 -13 -4 -13 1 0 6 -11 9 -25 8 -14 0 -25 -3 -25 -6 0
-3 -25 -6 -55 -6 -30 -1 -52 3 -49 7 3 5 3 9 0 9 -3 0 -8 -5 -11 -10z"/>
<path d="M1590 1740 c0 -5 5 -10 10 -10 6 0 10 5 10 10 0 6 -4 10 -10 10 -5 0
-10 -4 -10 -10z"/>
</g>
</svg>
