<?xml version="1.0" encoding="iso-8859-1"?>
<!-- Generator: Adobe Illustrator 19.0.0, SVG Export Plug-In . SVG Version: 6.00 Build 0)  -->
<svg xmlns="http://www.w3.org/2000/svg" xmlns:xlink="http://www.w3.org/1999/xlink" version="1.1" id="Layer_1" x="0px" y="0px" viewBox="0 0 512 512" style="enable-background:new 0 0 512 512;" xml:space="preserve">
<circle style="fill:#005C83;" cx="256" cy="256" r="256"/>
<path style="fill:#00263F;" d="M512,256c0-34.713-6.923-67.804-19.44-97.989l-73.928-73.928l-60.963,103.053L228.917,58.385L105,435  l60.538,60.538C193.667,506.167,224.15,512,256,512C397.385,512,512,397.385,512,256z"/>
<rect x="202.6" y="115.89" style="fill:#FF9451;" width="176.56" height="319.12"/>
<rect x="288.41" y="115.89" style="fill:#F7674F;" width="90.74" height="319.12"/>
<rect x="105" y="58.38" style="fill:#FFCF35;" width="123.92" height="376.62"/>
<rect x="352.83" y="84.08" style="fill:#FFC000;" width="65.797" height="350.92"/>
<rect x="120.9" y="115.89" style="fill:#FF9451;" width="92.12" height="33.995"/>
<rect x="155.99" y="171.81" style="fill:#FFECB3;" width="21.932" height="214.94"/>
<rect x="250.3" y="149.88" style="fill:#FFD863;" width="81.15" height="244.54"/>
<rect x="288.41" y="149.88" style="fill:#FFCF35;" width="43.04" height="244.54"/>
<rect x="378.61" y="160.85" style="fill:#FFD863;" width="14.256" height="206.16"/>
<g>
</g>
<g>
</g>
<g>
</g>
<g>
</g>
<g>
</g>
<g>
</g>
<g>
</g>
<g>
</g>
<g>
</g>
<g>
</g>
<g>
</g>
<g>
</g>
<g>
</g>
<g>
</g>
<g>
</g>
</svg>
