<?xml version="1.0" encoding="iso-8859-1"?>
<!-- Generator: Adobe Illustrator 19.0.0, SVG Export Plug-In . SVG Version: 6.00 Build 0)  -->
<svg xmlns="http://www.w3.org/2000/svg" xmlns:xlink="http://www.w3.org/1999/xlink" version="1.1" id="Layer_1" x="0px" y="0px" viewBox="0 0 512 512" style="enable-background:new 0 0 512 512;" xml:space="preserve">
<circle style="fill:#F1333F;" cx="256" cy="256" r="256"/>
<path style="fill:#AE283F;" d="M512,256c0-22.647-2.955-44.601-8.475-65.514L384.286,71.248l-220.593,311.9l-92.445,1.139  l119.238,119.238C211.399,509.045,233.353,512,256,512C397.385,512,512,397.385,512,256z"/>
<path style="fill:#FFECB3;" d="M195.076,373.389c-1.229-1.229-2.519-2.356-3.842-3.423  c55.082-64.075,114.647-123.667,178.698-178.774c1.076,1.338,2.215,2.641,3.457,3.883c18.602,18.602,48.761,18.602,67.363,0  s18.602-48.761,0-67.363c-11.828-11.828-28.326-16.122-43.556-12.909c3.213-15.231-1.082-31.729-12.909-43.557  c-18.602-18.602-48.761-18.602-67.363,0s-18.602,48.761,0,67.363c1.242,1.242,2.545,2.381,3.883,3.457  c-55.107,64.05-114.698,123.616-178.773,178.698c-1.066-1.323-2.194-2.613-3.423-3.842c-18.602-18.602-48.761-18.602-67.363,0  s-18.602,48.761,0,67.363c11.828,11.828,28.326,16.123,43.557,12.909c-3.213,15.231,1.082,31.729,12.909,43.556  c18.602,18.602,48.761,18.602,67.363,0S213.678,391.991,195.076,373.389z"/>
<path style="fill:#FFD863;" d="M114.805,397.196c-3.213,15.231,1.082,31.729,12.909,43.556c18.602,18.602,48.761,18.602,67.363,0  s18.602-48.761,0-67.363c-1.229-1.229-2.519-2.356-3.842-3.423c55.082-64.075,114.648-123.667,178.698-178.774  c1.076,1.338,2.215,2.641,3.457,3.883c18.602,18.602,48.761,18.602,67.363,0s18.602-48.761,0-67.363  c-11.828-11.828-28.326-16.122-43.557-12.909L114.805,397.196z"/>
<g>
</g>
<g>
</g>
<g>
</g>
<g>
</g>
<g>
</g>
<g>
</g>
<g>
</g>
<g>
</g>
<g>
</g>
<g>
</g>
<g>
</g>
<g>
</g>
<g>
</g>
<g>
</g>
<g>
</g>
</svg>
