<?xml version="1.0" encoding="iso-8859-1"?>
<!-- Generator: Adobe Illustrator 19.0.0, SVG Export Plug-In . SVG Version: 6.00 Build 0)  -->
<svg xmlns="http://www.w3.org/2000/svg" xmlns:xlink="http://www.w3.org/1999/xlink" version="1.1" id="Layer_1" x="0px" y="0px" viewBox="0 0 512 512" style="enable-background:new 0 0 512 512;" xml:space="preserve">
<circle style="fill:#590F38;" cx="256" cy="256" r="256"/>
<path style="fill:#3A0123;" d="M511.68,268.837L317.463,74.621L25.514,348.712L176.051,499.25C201.208,507.514,228.078,512,256,512  C393.08,512,504.991,404.258,511.68,268.837z"/>
<g>
	<polygon style="fill:#FFECB3;" points="466.504,287.026 446.522,287.026 426.541,225.339 403.229,225.339 383.247,163.653    363.265,163.653 343.283,101.966 317.463,101.966 317.463,74.621 194.537,74.621 194.537,101.966 168.717,101.966 148.735,163.653    128.753,163.653 108.771,225.339 85.459,225.339 65.478,287.026 45.496,287.026 25.514,348.712 486.486,348.712  "/>
	<polygon style="fill:#FFECB3;" points="486.486,348.713 25.514,348.713 45.496,287.026 466.504,287.026  "/>
</g>
<g>
	<polygon style="fill:#FFD863;" points="466.504,287.026 255.667,287.026 255.667,348.712 486.486,348.712  "/>
	<polygon style="fill:#FFD863;" points="446.523,287.026 65.477,287.026 85.459,225.339 426.541,225.339  "/>
</g>
<polygon style="fill:#FFCF35;" points="426.541,225.339 255.667,225.339 255.667,287.026 446.522,287.026 "/>
<polygon style="fill:#FFECB3;" points="403.229,225.339 108.771,225.339 128.753,163.653 383.247,163.653 "/>
<g>
	<polygon style="fill:#FFD863;" points="383.247,163.653 255.667,163.653 255.667,225.339 403.229,225.339  "/>
	<polygon style="fill:#FFD863;" points="363.265,163.653 148.735,163.653 168.717,101.966 343.283,101.966  "/>
</g>
<polygon style="fill:#FFCF35;" points="343.283,101.966 255.667,101.966 255.667,163.653 363.265,163.653 "/>
<rect x="194.54" y="74.62" style="fill:#FFECB3;" width="122.93" height="27.346"/>
<rect x="255.67" y="74.62" style="fill:#FFD863;" width="61.796" height="27.346"/>
<polygon style="fill:#FFB344;" points="334.49,348.713 177.51,348.713 221.616,101.966 283.033,101.966 "/>
<polygon style="fill:#FF9451;" points="283.033,101.966 255.667,101.966 255.667,348.712 334.49,348.712 "/>
<polygon style="fill:#FFCF35;" points="315.179,348.713 196.821,348.713 230.076,101.966 276.382,101.966 "/>
<polygon style="fill:#FFB344;" points="276.382,101.966 255.667,101.966 255.667,348.712 315.179,348.712 "/>
<g>
</g>
<g>
</g>
<g>
</g>
<g>
</g>
<g>
</g>
<g>
</g>
<g>
</g>
<g>
</g>
<g>
</g>
<g>
</g>
<g>
</g>
<g>
</g>
<g>
</g>
<g>
</g>
<g>
</g>
</svg>
