<?xml version="1.0" encoding="iso-8859-1"?>
<!-- Generator: Adobe Illustrator 19.0.0, SVG Export Plug-In . SVG Version: 6.00 Build 0)  -->
<svg xmlns="http://www.w3.org/2000/svg" xmlns:xlink="http://www.w3.org/1999/xlink" version="1.1" id="Layer_1" x="0px" y="0px" viewBox="0 0 512 512" style="enable-background:new 0 0 512 512;" xml:space="preserve">
<circle style="fill:#2B9153;" cx="256" cy="256" r="256"/>
<path style="fill:#005D5E;" d="M261.353,511.932C400.265,509.081,512,395.595,512,256c0-30.927-5.484-60.573-15.533-88.019  l-34.125-34.125l-116.058,9.047l-74.097-73.909L181,100.503L41.317,200.376l222.355,222.355l-23.859,67.662L261.353,511.932z"/>
<path style="fill:#FFDC00;" d="M256,497.751L256,497.751c-11.874,0-21.5-9.626-21.5-21.5V83.136c0-11.874,9.626-21.5,21.5-21.5l0,0  c11.874,0,21.5,9.626,21.5,21.5v393.115C277.5,488.125,267.874,497.751,256,497.751z"/>
<path style="fill:#FFC000;" d="M256.333,61.653v436.081c11.719-0.18,21.167-9.721,21.167-21.483V83.136  C277.5,71.374,268.052,61.833,256.333,61.653z"/>
<path style="fill:#FFFFFF;" d="M461.294,149.553l-26.039,28.511c-4.22,4.62-11.183,5.457-16.368,1.954  c-18.057-12.201-63.787-37.648-133.249-39.501c0,0-29.639,31.762-61.08,1.222c0,0-65.967-10.994-183.241,58.637  c0,0,28.422-109.393,217.737-120.477c103.983-6.088,173.76,32.798,200.005,50.701C465.414,134.935,466.482,143.874,461.294,149.553z  "/>
<path style="fill:#E0E0E0;" d="M459.059,130.6c-26.245-17.903-96.022-56.79-200.005-50.701c-0.913,0.053-1.815,0.113-2.721,0.171  v74.83c17.078-1.282,29.306-14.383,29.306-14.383c69.462,1.852,115.192,27.3,133.249,39.501c5.184,3.503,12.148,2.666,16.367-1.954  l26.039-28.511C466.481,143.874,465.414,134.935,459.059,130.6z"/>
<circle style="fill:#FFCF35;" cx="256" cy="115.39" r="16.186"/>
<path style="fill:#FFB344;" d="M272.186,115.387c0-8.827-7.069-15.99-15.853-16.169v32.339  C265.117,131.377,272.186,124.214,272.186,115.387z"/>
<g>
</g>
<g>
</g>
<g>
</g>
<g>
</g>
<g>
</g>
<g>
</g>
<g>
</g>
<g>
</g>
<g>
</g>
<g>
</g>
<g>
</g>
<g>
</g>
<g>
</g>
<g>
</g>
<g>
</g>
</svg>
