<?xml version="1.0" encoding="iso-8859-1"?>
<!-- Generator: Adobe Illustrator 19.0.0, SVG Export Plug-In . SVG Version: 6.00 Build 0)  -->
<svg xmlns="http://www.w3.org/2000/svg" xmlns:xlink="http://www.w3.org/1999/xlink" version="1.1" id="Layer_1" x="0px" y="0px" viewBox="0 0 512 512" style="enable-background:new 0 0 512 512;" xml:space="preserve">
<circle style="fill:#F1333F;" cx="256" cy="256" r="256"/>
<path style="fill:#AE283F;" d="M512,256c0-2.335-0.036-4.662-0.098-6.982L305.667,42.783l-116.617,438.2l28.084,28.084  C229.808,510.998,242.787,512,256,512C397.385,512,512,397.385,512,256z"/>
<path style="fill:#FFECB3;" d="M256,405.427c0,39.391,12.474,81.177,55.012,81.177c25.467,0,42.803-74.195,45.643-117.111  c22.683-20.004,36.556-46.775,36.556-76.199c0-30.16-14.573-57.536-38.273-77.691c-5.652-24.659-18.735-46.068-36.479-61.189  c10.747-13.575,17.181-30.721,17.181-49.38c0-43.984-35.656-79.64-79.64-79.64s-79.64,35.656-79.64,79.64  c0,18.659,6.434,35.805,17.181,49.38c-17.744,15.121-30.826,36.53-36.479,61.189c-23.7,20.154-38.273,47.53-38.273,77.691  c0,29.424,13.873,56.195,36.556,76.199c2.84,42.915,20.175,117.111,45.643,117.111C243.526,486.604,256,444.819,256,405.427z"/>
<path style="fill:#F4DA9A;" d="M354.938,215.604c-5.652-24.659-18.734-46.068-36.479-61.189  c10.747-13.575,17.181-30.721,17.181-49.38c0-43.984-35.656-79.64-79.64-79.64v380.032c0,39.391,12.474,81.177,55.012,81.177  c25.467,0,42.803-74.195,45.642-117.111c22.684-20.003,36.557-46.775,36.557-76.199  C393.211,263.135,378.638,235.759,354.938,215.604z"/>
<path style="fill:#FFB344;" d="M270.9,223.667c-6.992,11.908-11.233,27.43-11.233,44.423c0,37.492,20.595,67.884,46,67.884  s46-30.393,46-67.884c0-16.993-4.241-32.515-11.233-44.423L270.9,223.667L270.9,223.667z"/>
<path style="fill:#FFD863;" d="M172.233,223.667C165.241,235.574,161,251.096,161,268.089c0,37.492,20.595,67.884,46,67.884  s46-30.393,46-67.884c0-16.993-4.241-32.515-11.233-44.423h-69.534V223.667z"/>
<path style="fill:#F2DAA0;" d="M258.082,361.786c-1.082-0.071-2.113-0.067-2.983,0.009c-1.548,0.136-3.058-0.505-4.004-1.739l0,0  c-2.15-2.807-0.365-6.863,3.152-7.215c1.489-0.149,2.969-0.139,4.313-0.053c2.782,0.178,4.755,2.778,4.132,5.495l-0.004,0.019  C262.203,360.427,260.258,361.928,258.082,361.786z"/>
<path style="fill:#D3BA84;" d="M258.562,352.788c-0.717-0.046-1.474-0.067-2.249-0.057v9.009c0.562-0.007,1.155,0.006,1.77,0.046  c2.176,0.142,4.12-1.359,4.607-3.484l0.004-0.019C263.316,355.566,261.343,352.967,258.562,352.788z"/>
<g>
	<path style="fill:#FFB344;" d="M155.107,369.279c0.08,0.071,0.437,3.016,0.559,4.461C213.14,387.968,256,405.427,256,405.427"/>
	<path style="fill:#FFB344;" d="M333.131,85.125c-29.085,7.588-88.97,18.396-154.778,2.236c-1.006,4.436-1.661,9.004-1.892,13.687   c27.48,8.051,88.596,20.135,158.851-3.065C334.926,93.586,334.202,89.287,333.131,85.125z"/>
</g>
<path style="fill:#FF9451;" d="M333.131,85.125c-16.861,4.398-44.083,9.869-76.798,10.551v15.735  c23.766-0.454,50.626-4.065,78.979-13.428C334.926,93.586,334.202,89.287,333.131,85.125z"/>
<path style="fill:#FFB344;" d="M155.187,369.35c0,0,92.313,18.003,201.468,0.144l0.238-0.215c-0.08,0.071-0.158,0.144-0.238,0.215  c-0.092,1.384-0.199,2.801-0.32,4.247C298.86,387.968,256,405.427,256,405.427"/>
<path style="fill:#FF9451;" d="M256,377.391v28.036c0,0,42.86-17.459,100.334-31.687c0.122-1.445,0.229-2.863,0.32-4.247  C320.304,375.441,285.828,377.409,256,377.391z"/>
<g>
</g>
<g>
</g>
<g>
</g>
<g>
</g>
<g>
</g>
<g>
</g>
<g>
</g>
<g>
</g>
<g>
</g>
<g>
</g>
<g>
</g>
<g>
</g>
<g>
</g>
<g>
</g>
<g>
</g>
</svg>
