<?xml version="1.0" encoding="iso-8859-1"?>
<!-- Generator: Adobe Illustrator 19.0.0, SVG Export Plug-In . SVG Version: 6.00 Build 0)  -->
<svg xmlns="http://www.w3.org/2000/svg" xmlns:xlink="http://www.w3.org/1999/xlink" version="1.1" id="Layer_1" x="0px" y="0px" viewBox="0 0 512 512" style="enable-background:new 0 0 512 512;" xml:space="preserve">
<circle style="fill:#662E57;" cx="256" cy="256" r="256"/>
<path style="fill:#590F38;" d="M512,256c0-21.015-2.551-41.431-7.327-60.975L382.566,72.917l21.768,92.749l-25.133,117.626  L160.997,65.089l-61.33,86.578L113,241l-64.037,80.686l189.718,189.718C244.407,511.787,250.178,512,256,512  C397.385,512,512,397.385,512,256z"/>
<path style="fill:#FFD863;" d="M256.001,341.4c-43.825,0.001-85.027-17.064-116.017-48.053c-63.971-63.97-63.972-168.06,0-232.034  c5.076-5.076,13.308-5.077,18.385,0s5.077,13.308,0,18.385c-53.834,53.836-53.834,141.431,0,195.264  C184.447,301.04,219.12,315.401,256,315.4c36.881-0.001,71.554-14.364,97.632-40.444c53.834-53.836,53.834-141.431,0-195.264  c-5.077-5.077-5.077-13.308,0-18.385c5.076-5.077,13.309-5.077,18.385,0c63.972,63.97,63.972,168.06,0,232.034  C341.028,324.332,299.826,341.399,256.001,341.4z"/>
<path style="fill:#FFCF35;" d="M372.017,61.308c-5.076-5.077-13.309-5.077-18.385,0c-5.077,5.077-5.077,13.308,0,18.385  c53.834,53.833,53.834,141.428,0,195.264c-26.078,26.08-60.751,40.443-97.632,40.444c-0.111,0-0.222-0.004-0.333-0.004v26  c0.112,0,0.223,0.004,0.334,0.004c43.825-0.001,85.027-17.069,116.016-48.059C435.988,229.368,435.988,125.278,372.017,61.308z"/>
<ellipse style="fill:#FFFFFF;" cx="256" cy="405.74" rx="49.618" ry="69.763"/>
<path style="fill:#E0E0E0;" d="M256,335.974c-0.112,0-0.222,0.011-0.333,0.012v139.503c0.112,0.001,0.221,0.012,0.333,0.012  c27.403,0,49.618-31.234,49.618-69.763C305.618,367.208,283.403,335.974,256,335.974z"/>
<g>
	
		<ellipse transform="matrix(0.4411 -0.8974 0.8974 0.4411 -231.0564 345.653)" style="fill:#FFFFFF;" cx="161.997" cy="358.342" rx="51.922" ry="36.929"/>
	
		<ellipse transform="matrix(0.7099 -0.7043 0.7043 0.7099 -178.8858 148.1066)" style="fill:#FFFFFF;" cx="90.344" cy="291.203" rx="51.925" ry="36.931"/>
</g>
<g>
	
		<ellipse transform="matrix(0.4411 0.8974 -0.8974 0.4411 517.2405 -113.8722)" style="fill:#E0E0E0;" cx="350.048" cy="358.357" rx="51.922" ry="36.929"/>
	
		<ellipse transform="matrix(0.7099 0.7043 -0.7043 0.7099 327.4274 -212.4874)" style="fill:#E0E0E0;" cx="421.652" cy="291.22" rx="51.925" ry="36.931"/>
</g>
<g>
</g>
<g>
</g>
<g>
</g>
<g>
</g>
<g>
</g>
<g>
</g>
<g>
</g>
<g>
</g>
<g>
</g>
<g>
</g>
<g>
</g>
<g>
</g>
<g>
</g>
<g>
</g>
<g>
</g>
</svg>
