<?xml version="1.0" encoding="iso-8859-1"?>
<!-- Generator: Adobe Illustrator 19.0.0, SVG Export Plug-In . SVG Version: 6.00 Build 0)  -->
<svg xmlns="http://www.w3.org/2000/svg" xmlns:xlink="http://www.w3.org/1999/xlink" version="1.1" id="Layer_1" x="0px" y="0px" viewBox="0 0 512 512" style="enable-background:new 0 0 512 512;" xml:space="preserve">
<circle style="fill:#A5E1EB;" cx="256" cy="256" r="256"/>
<path style="fill:#78BED2;" d="M512,256c0-15.438-1.367-30.556-3.986-45.241L338.302,41.048L145.24,473.5l23.09,23.09  C195.678,506.558,225.203,512,256,512C397.385,512,512,397.385,512,256z"/>
<path style="fill:#666666;" d="M343.599,484.802H168.401c-16.238,0-29.401-13.163-29.401-29.401V124.198  c0-64.617,52.383-117,117-117l0,0c64.617,0,117,52.383,117,117v331.203C373,471.639,359.837,484.802,343.599,484.802z"/>
<path style="fill:#4D4D4D;" d="M256,7.198L256,7.198c-0.112,0-0.222,0.004-0.333,0.004v477.6h87.932  c16.238,0,29.401-13.163,29.401-29.401V124.198C373,59.581,320.617,7.198,256,7.198z"/>
<path style="fill:#333333;" d="M277.076,471.19h-42.151c-43.777,0-79.266-35.489-79.266-79.266V121.151  C155.658,65.734,200.583,20.81,256,20.81l0,0c55.417,0,100.342,44.924,100.342,100.342v270.773  C356.342,435.702,320.853,471.19,277.076,471.19z"/>
<path style="fill:#1A1A1A;" d="M256,20.81L256,20.81c-0.112,0-0.222,0.004-0.333,0.004V471.19h21.409  c43.777,0,79.266-35.489,79.266-79.266V121.151C356.342,65.734,311.417,20.81,256,20.81z"/>
<g>
	<path style="fill:#FFFFFF;" d="M289.896,74.962c0,23.188-15.176,48.163-33.897,48.163s-33.897-24.975-33.897-48.163   S237.279,39.154,256,39.154S289.896,51.774,289.896,74.962z"/>
	<path style="fill:#FFFFFF;" d="M222.103,74.962c0,23.049,14.997,47.854,33.563,48.149v-83.95   C237.1,39.311,222.103,51.913,222.103,74.962z"/>
	<path style="fill:#FFFFFF;" d="M256,39.154c-0.112,0-0.222,0.006-0.333,0.007v83.95c0.112,0.002,0.221,0.014,0.333,0.014   c18.721,0,33.896-24.975,33.896-48.163S274.721,39.154,256,39.154z"/>
	<path style="fill:#FFFFFF;" d="M294.037,123.125h-76.075c-13.562,0-24.556,10.994-24.556,24.556v96.624   c0,6.92,4.594,13,11.251,14.889l0,0c6.302,1.789,10.795,7.351,11.219,13.889l10.548,162.769   c0.619,9.558,8.553,16.994,18.131,16.994h22.889c9.578,0,17.511-7.436,18.131-16.994l10.548-162.769   c0.424-6.537,4.917-12.1,11.219-13.889l0,0c6.657-1.89,11.251-7.969,11.251-14.889v-96.624   C318.593,134.119,307.599,123.125,294.037,123.125z"/>
</g>
<g>
	<path style="fill:#E0E0E0;" d="M294.037,123.125h-38.371v329.721h11.778c9.578,0,17.511-7.436,18.131-16.994l10.548-162.77   c0.424-6.537,4.917-12.1,11.219-13.888c6.657-1.89,11.251-7.969,11.251-14.89V147.68   C318.593,134.119,307.599,123.125,294.037,123.125z"/>
	<path style="fill:#E0E0E0;" d="M193.407,181.417l124.576-39.164c-1.178-5.218-4.015-9.803-7.93-13.177l-116.646,36.671   L193.407,181.417L193.407,181.417z"/>
	<polygon style="fill:#E0E0E0;" points="193.407,212.196 318.593,172.84 318.593,157.17 193.407,196.525  "/>
	<polygon style="fill:#E0E0E0;" points="193.407,236.007 318.593,196.651 318.593,180.981 193.407,220.337  "/>
	<path style="fill:#E0E0E0;" d="M317.666,249.557l-101.251,31.831l0.995,15.357l78.83-24.782   c0.834-6.046,5.163-11.084,11.102-12.769C312.237,257.805,316.008,254.146,317.666,249.557z"/>
	<polygon style="fill:#E0E0E0;" points="220.077,337.893 293.418,314.836 294.454,298.84 219.081,322.536  "/>
	<polygon style="fill:#E0E0E0;" points="223.986,398.222 289.346,377.674 290.382,361.678 222.991,382.865  "/>
	<path style="fill:#E0E0E0;" d="M229.234,103.049l59.881-18.826c0.507-3.077,0.782-6.184,0.782-9.261   c0-2.276-0.151-4.447-0.433-6.518L223.887,89.06C225.112,93.983,226.932,98.733,229.234,103.049z"/>
	<path style="fill:#E0E0E0;" d="M279.311,47.747l-56.252,17.684c-0.619,2.946-0.956,6.121-0.956,9.53c0,2.1,0.128,4.215,0.369,6.324   l65.192-20.495C285.836,55.5,282.958,51.137,279.311,47.747z"/>
</g>
<g>
	<path style="fill:#C0C0C0;" d="M310.053,129.076l-54.387,17.098v15.67l62.317-19.591   C316.805,137.035,313.969,132.449,310.053,129.076z"/>
	<polygon style="fill:#C0C0C0;" points="318.593,157.17 255.667,176.952 255.667,192.623 318.593,172.84  "/>
	<polygon style="fill:#C0C0C0;" points="318.593,180.981 255.667,200.764 255.667,216.434 318.593,196.651  "/>
	<path style="fill:#C0C0C0;" d="M255.667,269.049v15.67l40.573-12.755c0.834-6.046,5.163-11.083,11.102-12.769   c4.895-1.39,8.666-5.049,10.324-9.637L255.667,269.049z"/>
	<polygon style="fill:#C0C0C0;" points="294.454,298.84 255.667,311.034 255.667,326.704 293.418,314.836  "/>
	<polygon style="fill:#C0C0C0;" points="290.382,361.678 255.667,372.592 255.667,388.262 289.346,377.674  "/>
	<path style="fill:#C0C0C0;" d="M289.896,74.961c0-2.276-0.151-4.447-0.433-6.518l-33.797,10.625v15.67l33.448-10.515   C289.622,81.146,289.896,78.039,289.896,74.961z"/>
	<path style="fill:#C0C0C0;" d="M279.311,47.747l-23.644,7.434v15.67l31.997-10.059C285.836,55.5,282.958,51.137,279.311,47.747z"/>
</g>
<g>
</g>
<g>
</g>
<g>
</g>
<g>
</g>
<g>
</g>
<g>
</g>
<g>
</g>
<g>
</g>
<g>
</g>
<g>
</g>
<g>
</g>
<g>
</g>
<g>
</g>
<g>
</g>
<g>
</g>
</svg>
