<?xml version="1.0" encoding="iso-8859-1"?>
<!-- Generator: Adobe Illustrator 19.0.0, SVG Export Plug-In . SVG Version: 6.00 Build 0)  -->
<svg xmlns="http://www.w3.org/2000/svg" xmlns:xlink="http://www.w3.org/1999/xlink" version="1.1" id="Layer_1" x="0px" y="0px" viewBox="0 0 512 512" style="enable-background:new 0 0 512 512;" xml:space="preserve">
<circle style="fill:#0074A3;" cx="256" cy="256" r="256"/>
<path style="fill:#005C83;" d="M512,256c0-50.916-14.867-98.358-40.493-138.228l-46.225-46.225L128.667,385.333l-7.578,62.491  l49.594,49.594C197.371,506.851,226.082,512,256,512C397.385,512,512,397.385,512,256z"/>
<polygon style="fill:#FFFFFF;" points="425.282,71.547 319.319,129.935 154.968,328.886 191.01,364.928 271.744,326.003   338.782,258.965 "/>
<polygon style="fill:#E0E0E0;" points="173.967,347.885 191.01,364.928 271.744,326.002 338.782,258.965 425.282,71.547 "/>
<rect x="115.636" y="309.308" transform="matrix(-0.7071 -0.7071 0.7071 -0.7071 -15.8521 748.2982)" style="fill:#FF6838;" width="62.83" height="136.249"/>
<polygon style="fill:#AE4E32;" points="101.244,427.979 121.089,447.824 217.432,351.481 192.939,326.989 "/>
<g>
	<path style="fill:#FFB344;" d="M223.903,346.261l-34.945-11.648l-16.474-32.947c-1.48-2.963-5.083-4.166-8.05-2.684   c-2.964,1.482-4.165,5.086-2.683,8.05l11.107,22.215l-23.563-7.854c-3.146-1.049-6.543,0.651-7.59,3.794   c-1.048,3.144,0.651,6.542,3.795,7.589l34.947,11.649l16.473,32.946c1.051,2.103,3.17,3.318,5.371,3.318   c0.901,0,1.817-0.204,2.679-0.635c2.964-1.482,4.165-5.086,2.683-8.05l-11.107-22.214l23.561,7.854c0.63,0.21,1.27,0.31,1.898,0.31   c2.512,0,4.854-1.59,5.691-4.104C228.746,350.707,227.047,347.309,223.903,346.261z"/>
	<path style="fill:#FFB344;" d="M100.58,373.569c-1.48-2.963-5.084-4.165-8.05-2.684c-2.964,1.482-4.165,5.086-2.683,8.05   l35.17,70.34c1.051,2.103,3.17,3.318,5.371,3.318c0.901,0,1.817-0.204,2.679-0.635c2.964-1.482,4.165-5.086,2.683-8.05   L100.58,373.569z"/>
	<path style="fill:#FFB344;" d="M186.115,384.049l-41.502-13.834l-13.56-27.12c-1.481-2.963-5.085-4.166-8.05-2.684   c-2.964,1.482-4.165,5.086-2.683,8.05l8.193,16.387l-17.006-5.669c-3.146-1.05-6.542,0.65-7.59,3.794s0.651,6.542,3.795,7.589   l28.39,9.463l19.387,38.774c1.051,2.103,3.17,3.318,5.371,3.318c0.901,0,1.817-0.204,2.679-0.635   c2.964-1.482,4.165-5.086,2.683-8.05l-14.021-28.042l30.118,10.04c0.63,0.21,1.27,0.31,1.898,0.31c2.512,0,4.854-1.59,5.691-4.104   C190.958,388.495,189.259,385.097,186.115,384.049z"/>
</g>
<g>
	<path style="fill:#FF9451;" d="M223.903,346.261l-34.945-11.648l-1.044-2.088l-10.03,11.046l2.564,0.855l16.473,32.946   c1.051,2.103,3.17,3.318,5.371,3.318c0.901,0,1.817-0.204,2.679-0.635c2.964-1.482,4.165-5.086,2.683-8.05l-11.107-22.214   l23.561,7.854c0.63,0.21,1.27,0.31,1.898,0.31c2.512,0,4.854-1.59,5.691-4.104C228.746,350.707,227.047,347.309,223.903,346.261z"/>
	<path style="fill:#FF9451;" d="M118.36,409.128l-8.651,9.528l15.309,30.619c1.051,2.103,3.17,3.318,5.371,3.318   c0.901,0,1.817-0.204,2.679-0.635c2.964-1.482,4.165-5.086,2.683-8.05L118.36,409.128z"/>
	<path style="fill:#FF9451;" d="M186.115,384.049l-34.533-11.511l-12.396,13.653l16.305,32.611c1.051,2.103,3.17,3.318,5.371,3.318   c0.901,0,1.817-0.204,2.679-0.635c2.964-1.482,4.165-5.086,2.683-8.05l-14.021-28.042l30.118,10.04c0.63,0.21,1.27,0.31,1.898,0.31   c2.512,0,4.854-1.59,5.691-4.104C190.958,388.495,189.259,385.097,186.115,384.049z"/>
</g>
<g>
</g>
<g>
</g>
<g>
</g>
<g>
</g>
<g>
</g>
<g>
</g>
<g>
</g>
<g>
</g>
<g>
</g>
<g>
</g>
<g>
</g>
<g>
</g>
<g>
</g>
<g>
</g>
<g>
</g>
</svg>
