<?xml version="1.0" encoding="iso-8859-1"?>
<!-- Generator: Adobe Illustrator 19.0.0, SVG Export Plug-In . SVG Version: 6.00 Build 0)  -->
<svg xmlns="http://www.w3.org/2000/svg" xmlns:xlink="http://www.w3.org/1999/xlink" version="1.1" id="Layer_1" x="0px" y="0px" viewBox="0 0 512 512" style="enable-background:new 0 0 512 512;" xml:space="preserve">
<circle style="fill:#FFCF35;" cx="256" cy="256" r="256"/>
<path style="fill:#FFB344;" d="M512,256c0-11.652-0.794-23.117-2.302-34.356L359.368,71.313L177.654,204.987l16.255,52.038  l154.308,154.308l-7.992,1.557L193.479,266.144L68.966,276.608l94.61,94.61l-12.525,7.734l59.24,59.24L117,456.359l32.484,32.484  C181.918,503.705,217.989,512,256,512C397.385,512,512,397.385,512,256z"/>
<path style="fill:#005C83;" d="M270.149,431.663c-88.853,0-161.139-72.287-161.139-161.139h48  c0,62.385,50.754,113.139,113.139,113.139c62.386,0,113.14-50.754,113.14-113.139s-50.754-113.139-113.14-113.139v-48  c88.853,0,161.14,72.287,161.14,161.139S359.002,431.663,270.149,431.663z"/>
<path style="fill:#00263F;" d="M270.149,109.384v48c62.386,0,113.14,50.754,113.14,113.139s-50.754,113.139-113.14,113.139  c-4.906,0-9.74-0.315-14.483-0.924v48.266c4.772,0.427,9.601,0.658,14.483,0.658c88.853,0,161.14-72.287,161.14-161.139  S359.002,109.384,270.149,109.384z"/>
<path style="fill:#008CC3;" d="M182.308,282.523h-103c-6.627,0-12-5.373-12-12s5.373-12,12-12h103c6.627,0,12,5.373,12,12  S188.935,282.523,182.308,282.523z"/>
<polygon style="fill:#005C83;" points="359.368,71.313 319.24,111.426 276.893,69.074 317.02,28.961 "/>
<polygon style="fill:#008CC3;" points="352.435,98.552 193.909,257.026 131.248,194.378 289.774,35.905 "/>
<polygon style="fill:#0074A3;" points="289.774,35.905 255.667,70.001 255.667,195.289 352.435,98.552 "/>
<rect x="117" y="407.48" style="fill:#FFFFFF;" width="278" height="48.884"/>
<g>
	<rect x="255.67" y="407.48" style="fill:#E0E0E0;" width="139.33" height="48.884"/>
	<circle style="fill:#E0E0E0;" cx="328.2" cy="165.91" r="44.667"/>
</g>
<circle style="fill:#C0C0C0;" cx="328.2" cy="165.91" r="27"/>
<g>
</g>
<g>
</g>
<g>
</g>
<g>
</g>
<g>
</g>
<g>
</g>
<g>
</g>
<g>
</g>
<g>
</g>
<g>
</g>
<g>
</g>
<g>
</g>
<g>
</g>
<g>
</g>
<g>
</g>
</svg>
