<?xml version="1.0" encoding="iso-8859-1"?>
<!-- Generator: Adobe Illustrator 19.0.0, SVG Export Plug-In . SVG Version: 6.00 Build 0)  -->
<svg xmlns="http://www.w3.org/2000/svg" xmlns:xlink="http://www.w3.org/1999/xlink" version="1.1" id="Layer_1" x="0px" y="0px" viewBox="0 0 512 512" style="enable-background:new 0 0 512 512;" xml:space="preserve">
<circle style="fill:#00BAFF;" cx="256" cy="256" r="256"/>
<path style="fill:#008CC3;" d="M512,256c0-16.849-1.646-33.312-4.752-49.252l-93.525-93.525l-46.541,134.405L221.655,102.102  l-121.271,23.779l11.789,11.789l-1.238,0.992l59.593,59.593l-22.379,42.086H51.542l-8.125,123.326l136.98,136.98  C204.293,508.023,229.682,512,256,512C397.385,512,512,397.385,512,256z"/>
<path style="fill:#005C83;" d="M15.767,344.634C51.826,442.334,145.775,512,256,512s204.174-69.666,240.233-167.366H15.767z"/>
<path style="fill:#00263F;" d="M255.667,344.634v167.363c0.111,0,0.222,0.003,0.333,0.003c110.225,0,204.174-69.666,240.233-167.366  H255.667z"/>
<rect x="114.95" y="132.72" style="fill:#FFFFFF;" width="92.14" height="202.71"/>
<g>
	<path style="fill:#E0E0E0;" d="M193.269,320.568L193.269,320.568c-3.037,0-5.499-2.462-5.499-5.499V149.808   c0-3.037,2.462-5.499,5.499-5.499l0,0c3.037,0,5.499,2.462,5.499,5.499v165.261C198.768,318.106,196.306,320.568,193.269,320.568z"/>
	<path style="fill:#E0E0E0;" d="M171.77,320.568L171.77,320.568c-3.037,0-5.499-2.462-5.499-5.499V149.808   c0-3.037,2.462-5.499,5.499-5.499l0,0c3.037,0,5.499,2.462,5.499,5.499v165.261C177.268,318.106,174.807,320.568,171.77,320.568z"/>
	<path style="fill:#E0E0E0;" d="M150.27,320.568L150.27,320.568c-3.037,0-5.499-2.462-5.499-5.499V149.808   c0-3.037,2.462-5.499,5.499-5.499l0,0c3.037,0,5.499,2.462,5.499,5.499v165.261C155.769,318.106,153.307,320.568,150.27,320.568z"/>
	<path style="fill:#E0E0E0;" d="M128.77,320.568L128.77,320.568c-3.037,0-5.499-2.462-5.499-5.499V149.808   c0-3.037,2.462-5.499,5.499-5.499l0,0c3.037,0,5.499,2.462,5.499,5.499v165.261C134.269,318.106,131.807,320.568,128.77,320.568z"/>
	<rect x="110.94" y="124.39" style="fill:#E0E0E0;" width="100.17" height="14.267"/>
</g>
<g>
	<rect x="100.38" y="102.1" style="fill:#C0C0C0;" width="121.27" height="23.779"/>
	<rect x="100.38" y="339.89" style="fill:#C0C0C0;" width="121.27" height="23.779"/>
</g>
<g>
	<rect x="110.94" y="328.3" style="fill:#E0E0E0;" width="100.17" height="14.267"/>
	<path style="fill:#E0E0E0;" d="M357.121,142.999c-13.821-23.495-42.844-24.877-63.575-16.585c-2.389,0.754-4.779,1.532-7.169,2.316   v195.912h127.345V113.223C396.15,125.414,376.64,134.215,357.121,142.999z"/>
</g>
<g>
	<path style="fill:#C0C0C0;" d="M387.021,128.95v167.553c0,4.197,3.402,7.599,7.6,7.599s7.6-3.402,7.6-7.599v-175.89   C397.254,123.566,392.175,126.323,387.021,128.95z"/>
	<path style="fill:#C0C0C0;" d="M357.307,142.914v153.588c0,4.197,3.402,7.599,7.6,7.599c4.197,0,7.6-3.402,7.6-7.599V135.996   C367.463,138.343,362.386,140.629,357.307,142.914z"/>
	<path style="fill:#C0C0C0;" d="M327.593,296.503c0,4.197,3.402,7.599,7.6,7.599c4.197,0,7.6-3.402,7.6-7.599V128.406   c-4.699-2.833-9.859-4.677-15.199-5.677v173.774H327.593z"/>
	<path style="fill:#C0C0C0;" d="M297.879,296.503c0,4.197,3.403,7.599,7.6,7.599s7.6-3.402,7.6-7.599v-174.55   c-5.226,0.364-10.376,1.379-15.199,2.913v171.637H297.879z"/>
</g>
<rect x="266.25" y="330.8" style="fill:#758F9B;" width="167.6" height="32.863"/>
<rect x="280.83" y="314.78" style="fill:#C0C0C0;" width="138.44" height="19.718"/>
<rect x="43.42" y="226.33" style="fill:#FFDC00;" width="425.17" height="40"/>
<rect x="255.67" y="226.33" style="fill:#FFC000;" width="212.92" height="40"/>
<rect x="43.42" y="226.33" style="fill:#FF6838;" width="16.25" height="137.33"/>
<rect x="452.33" y="226.33" style="fill:#AE4E32;" width="16.25" height="137.33"/>
<g>
</g>
<g>
</g>
<g>
</g>
<g>
</g>
<g>
</g>
<g>
</g>
<g>
</g>
<g>
</g>
<g>
</g>
<g>
</g>
<g>
</g>
<g>
</g>
<g>
</g>
<g>
</g>
<g>
</g>
</svg>
