<?xml version="1.0" encoding="iso-8859-1"?>
<!-- Generator: Adobe Illustrator 19.0.0, SVG Export Plug-In . SVG Version: 6.00 Build 0)  -->
<svg xmlns="http://www.w3.org/2000/svg" xmlns:xlink="http://www.w3.org/1999/xlink" version="1.1" id="Layer_1" x="0px" y="0px" viewBox="0 0 512 512" style="enable-background:new 0 0 512 512;" xml:space="preserve">
<circle style="fill:#005C83;" cx="256" cy="256" r="256"/>
<path style="fill:#00263F;" d="M512,256c0-19.232-2.136-37.964-6.157-55.984l-98.55-98.55l-6.784,7.102l-64.635-64.635  L68.508,222.77l97.446,97.446l-59.688,66.198L230.6,510.747C238.956,511.57,247.428,512,256,512C397.385,512,512,397.385,512,256z"/>
<path style="fill:#FFCF35;" d="M199.667,113c0,0-109.333,96-139.333,99.333c0,0,35.793,54.95,89.333,43.667  c55.361-11.667,97.858,2,63.858,38c-25.171,26.651,7.23,103.908,3.845,146.833c-0.95,12.052,10.467,21.271,21.979,17.579  c6.512-2.089,14.013-4.559,22.651-7.479C378.771,411.469,366.333,307,366.333,307L363,137.667L250,92.333L199.667,113z"/>
<path style="fill:#FFB344;" d="M366.333,307L363,137.667L256.333,94.874v357.964c1.835-0.614,3.718-1.246,5.667-1.905  C378.771,411.469,366.333,307,366.333,307z"/>
<circle style="fill:#FF9451;" cx="205.03" cy="275.67" r="31.34"/>
<g>
	<circle style="fill:#F7674F;" cx="205.03" cy="275.67" r="12.656"/>
	<path style="fill:#F7674F;" d="M199.667,279H73c0,0,0,85,41,114C152.494,420.227,199.667,320.333,199.667,279z"/>
</g>
<path style="fill:#FFECB3;" d="M425,137c-14.914-42.222-42.802-68.951-74.005-85.766l-32.64,41.1l17.52-48.401  C271.38,16.14,199.667,25,199.667,25v88C394.333,113,345,255.667,337,313s44,144,44,144C363.667,370.333,472.333,271,425,137z"/>
<path style="fill:#FFD863;" d="M425,137c-14.914-42.222-42.802-68.951-74.005-85.766l-32.64,41.1l17.52-48.401  c-27.204-11.723-55.692-16.925-79.541-19.021v93.152C383.782,143.922,344.103,262.094,337,313c-8,57.333,44,144,44,144  C363.667,370.333,472.333,271,425,137z"/>
<g>
</g>
<g>
</g>
<g>
</g>
<g>
</g>
<g>
</g>
<g>
</g>
<g>
</g>
<g>
</g>
<g>
</g>
<g>
</g>
<g>
</g>
<g>
</g>
<g>
</g>
<g>
</g>
<g>
</g>
</svg>
