<?xml version="1.0" encoding="iso-8859-1"?>
<!-- Generator: Adobe Illustrator 19.0.0, SVG Export Plug-In . SVG Version: 6.00 Build 0)  -->
<svg xmlns="http://www.w3.org/2000/svg" xmlns:xlink="http://www.w3.org/1999/xlink" version="1.1" id="Layer_1" x="0px" y="0px" viewBox="0 0 512 512" style="enable-background:new 0 0 512 512;" xml:space="preserve">
<circle style="fill:#FFDC00;" cx="256" cy="256" r="256"/>
<path style="fill:#FFC000;" d="M512,256c0-19.364-2.163-38.22-6.237-56.354L355.358,49.242L345.29,71.319l-42.975-42.975  l-0.808,53.23l-53.23-53.23l-0.84,83.427L196.356,60.69l-22.822,349.244l-29.39,58.708l29.983,29.983  C199.835,507.297,227.368,512,256,512C397.385,512,512,397.385,512,256z"/>
<path style="fill:#FF6838;" d="M410.217,160.85c-1.963-0.541-3.94-0.799-5.884-0.799c-9.72,0-18.658,6.453-21.365,16.267  l-23.133,83.879V62.579c0-12.217-9.939-22.156-22.156-22.156s-22.156,9.939-22.156,22.156V191.55h-9.727V40.243  c0-12.217-9.939-22.156-22.156-22.156s-22.156,9.939-22.156,22.156V191.55h-9.727V40.243c0-12.217-9.939-22.156-22.156-22.156  c-12.217,0-22.156,9.939-22.156,22.156V191.55h-9.727V68.343c0-12.217-9.939-22.156-22.156-22.156  c-12.217,0-22.156,9.939-22.156,22.156V461.02h206.426v-81.977c8.176-1.432,15.227-7.393,17.577-15.911l48.273-175.034  C428.933,176.322,421.994,164.098,410.217,160.85z"/>
<path style="fill:#AE4E32;" d="M410.217,160.85c-1.963-0.542-3.94-0.799-5.884-0.799c-9.719,0-18.658,6.454-21.365,16.267  l-23.133,83.878V62.579c0-12.216-9.939-22.156-22.156-22.156s-22.156,9.939-22.156,22.156V191.55h-9.727V40.243  c0-12.217-9.939-22.156-22.156-22.156s-22.156,9.939-22.156,22.156V191.55h-5.153v269.47h103.502v-81.977  c8.176-1.433,15.227-7.394,17.577-15.911l48.273-175.034C428.933,176.322,421.994,164.098,410.217,160.85z"/>
<path style="fill:#FF9451;" d="M365.127,469.667H147.533c-3.382,0-6.124-2.742-6.124-6.124v-25.218c0-3.382,2.742-6.124,6.124-6.124  h217.594c3.382,0,6.124,2.742,6.124,6.124v25.218C371.252,466.925,368.51,469.667,365.127,469.667z"/>
<path style="fill:#F7674F;" d="M365.127,432.2H256.333v37.466h108.794c3.382,0,6.124-2.742,6.124-6.124v-25.218  C371.252,434.942,368.51,432.2,365.127,432.2z"/>
<g>
</g>
<g>
</g>
<g>
</g>
<g>
</g>
<g>
</g>
<g>
</g>
<g>
</g>
<g>
</g>
<g>
</g>
<g>
</g>
<g>
</g>
<g>
</g>
<g>
</g>
<g>
</g>
<g>
</g>
</svg>
