<?xml version="1.0" encoding="iso-8859-1"?>
<!-- Generator: Adobe Illustrator 19.0.0, SVG Export Plug-In . SVG Version: 6.00 Build 0)  -->
<svg xmlns="http://www.w3.org/2000/svg" xmlns:xlink="http://www.w3.org/1999/xlink" version="1.1" id="Layer_1" x="0px" y="0px" viewBox="0 0 512 512" style="enable-background:new 0 0 512 512;" xml:space="preserve">
<circle style="fill:#590F38;" cx="256" cy="256" r="256"/>
<path style="fill:#440029;" d="M512,256c0-7.467-0.339-14.853-0.965-22.157L322.192,45L160.704,85.287L147,115l29.995,336.593  l59.684,59.684C243.057,511.753,249.5,512,256,512C397.385,512,512,397.385,512,256z"/>
<path style="fill:#FFB344;" d="M360.908,180.942c8.446-11.967,13.429-26.545,13.429-42.273c0-34.195-23.472-63.01-55.15-71.181  L322.192,45H189.808l3.006,22.487c-31.678,8.171-55.15,36.987-55.15,71.181c0,15.729,4.982,30.307,13.429,42.273  C135.934,202.087,127,227.997,127,256c0,36.491,15.153,113.516,39.509,179.98c5.733,15.643,20.651,26.02,37.312,26.02H308.18  c16.66,0,31.579-10.376,37.312-26.02C369.847,369.516,385,292.491,385,256C385,227.997,376.066,202.087,360.908,180.942z   M360.337,138.669c0,11.289-3.161,21.854-8.644,30.857c-11.698-12.935-25.967-23.501-42.02-30.857l7.64-57.161  C342.129,88.672,360.337,111.576,360.337,138.669z M151.663,138.669c0-27.092,18.208-49.997,43.024-57.161l7.64,57.161  c-16.053,7.356-30.323,17.922-42.02,30.857C154.824,160.523,151.663,149.958,151.663,138.669z"/>
<path style="fill:#FF9451;" d="M360.908,180.942c8.446-11.967,13.429-26.545,13.429-42.273c0-34.195-23.472-63.01-55.15-71.181  L322.192,45h-65.859v417h51.846c16.66,0,31.579-10.376,37.312-26.02C369.847,369.516,385,292.491,385,256  C385,227.997,376.066,202.087,360.908,180.942z M351.693,169.525c-11.698-12.935-25.967-23.501-42.02-30.857l7.64-57.161  c24.816,7.165,43.024,30.069,43.024,57.161C360.337,149.958,357.176,160.523,351.693,169.525z"/>
<polygon style="fill:#FF6838;" points="214.781,45 202.327,107 227,150 218,256 250,149 227,107 247.899,45 "/>
<g>
</g>
<g>
</g>
<g>
</g>
<g>
</g>
<g>
</g>
<g>
</g>
<g>
</g>
<g>
</g>
<g>
</g>
<g>
</g>
<g>
</g>
<g>
</g>
<g>
</g>
<g>
</g>
<g>
</g>
</svg>
