<?xml version="1.0" encoding="iso-8859-1"?>
<!-- Generator: Adobe Illustrator 19.0.0, SVG Export Plug-In . SVG Version: 6.00 Build 0)  -->
<svg xmlns="http://www.w3.org/2000/svg" xmlns:xlink="http://www.w3.org/1999/xlink" version="1.1" id="Layer_1" x="0px" y="0px" viewBox="0 0 512 512" style="enable-background:new 0 0 512 512;" xml:space="preserve">
<circle style="fill:#F1333F;" cx="256" cy="256" r="256"/>
<path style="fill:#AE283F;" d="M133.543,480.861C169.919,500.713,211.641,512,256,512c141.385,0,256-114.615,256-256  c0-18.066-1.882-35.69-5.442-52.699L473.5,170.243l-435,40.091l-9.935,15.885l46.609,46.609l-0.091,68.209l42.807,42.807  l-46.685,34.678L133.543,480.861z"/>
<path style="fill:#FFFFFF;" d="M470.749,167.097c-39.999-44.093-169.401-17.241-201.017-39.593  c-21.925-15.5-75.266-42.863-120.905-32.901c-65.38,14.272-124.45,69.652-120.262,131.615l22.524-10.907  c0,0-5.794,23.214,1.555,64.346s22.438,61.379,22.438,61.379s19.716-39.467,48.275-42.275c28.56-2.809,27.37,11.934,74.112-13.242  c11.439-6.161,34.194-12.008,62.037-17.324l24.812,25.357l6.013-30.735c1.658-0.267,3.324-0.531,4.998-0.794l27.844,26.809  l13.621-32.454l20.934,28.035l15.198-32.935c0.606-0.072,1.212-0.145,1.816-0.216l20.458,26.483l16.131-30.62  c1.947-0.21,3.867-0.415,5.761-0.615l3.623,57.997l24.595-60.878c0.257-0.025,0.516-0.051,0.771-0.076l16.784,19.377l16.97-22.509  C479.835,240.421,510.748,211.191,470.749,167.097z"/>
<path style="fill:#E0E0E0;" d="M470.749,167.097c-39.999-44.093-169.401-17.241-201.017-39.592  c-3.65-2.581-8.187-5.492-13.398-8.503v149.807c1.051-0.205,2.106-0.41,3.172-0.613l24.812,25.357l6.013-30.734  c1.658-0.267,3.324-0.531,4.998-0.794l27.844,26.809l13.621-32.454l20.935,28.035l15.198-32.935  c0.606-0.072,1.212-0.145,1.816-0.216l20.458,26.483l16.131-30.62c1.948-0.209,3.867-0.415,5.761-0.615l3.623,57.997l24.595-60.878  c0.257-0.025,0.516-0.051,0.771-0.076l16.785,19.377l16.97-22.509C479.835,240.421,510.748,211.19,470.749,167.097z"/>
<path style="fill:#758F9B;" d="M456.405,189.544c6.087-7.601-13.528-24.35-33.406-20.034  C403.122,173.827,450.318,197.145,456.405,189.544z"/>
<path style="fill:#C0C0C0;" d="M269.665,171.669c-2.478-25.144-48.365-60.953-95.927-31.806s21.116,73.899,46.292,62.853  C245.207,191.67,271.222,187.466,269.665,171.669z"/>
<path style="fill:#758F9B;" d="M269.665,171.669c-0.76-7.711-5.609-16.425-13.332-23.961v40.564  C264.949,184.032,270.402,179.151,269.665,171.669z"/>
<path style="fill:#E0E0E0;" d="M444.879,326.852l-2.414-34.344l-25.666,34.464l-8.273,0.035L390.6,288.001l-20.458,39.17  l-6.307,0.027l-14.491-24.455l-14.695,24.58l-9.763,0.041l-13.51-21.974l-14.837,22.095l-13.916,0.06l-5.657-18.996l-14.117,19.08  l-10.083,0.043l-10.245-14.741l-11.519,14.834l-54.833,0.233c0,0-29.95-24.769-66.48-12.474  C73.16,327.818,71.202,418.521,71.202,418.521s249.402,0.214,323.238-3.257C468.278,411.794,444.879,326.852,444.879,326.852z"/>
<path style="fill:#C0C0C0;" d="M444.879,326.852l-2.414-34.344l-25.667,34.464l-8.273,0.035L390.6,288.001l-20.458,39.17  l-6.307,0.027l-14.491-24.456l-14.695,24.58l-9.763,0.042l-13.51-21.974l-14.837,22.095l-13.916,0.06l-5.657-18.997l-14.117,19.081  l-6.516,0.028v90.193c55.87-0.467,109.849-1.256,138.109-2.584C468.278,411.794,444.879,326.852,444.879,326.852z"/>
<g>
</g>
<g>
</g>
<g>
</g>
<g>
</g>
<g>
</g>
<g>
</g>
<g>
</g>
<g>
</g>
<g>
</g>
<g>
</g>
<g>
</g>
<g>
</g>
<g>
</g>
<g>
</g>
<g>
</g>
</svg>
