<?xml version="1.0" encoding="iso-8859-1"?>
<!-- Generator: Adobe Illustrator 19.0.0, SVG Export Plug-In . SVG Version: 6.00 Build 0)  -->
<svg xmlns="http://www.w3.org/2000/svg" xmlns:xlink="http://www.w3.org/1999/xlink" version="1.1" id="Layer_1" x="0px" y="0px" viewBox="0 0 512 512" style="enable-background:new 0 0 512 512;" xml:space="preserve">
<circle style="fill:#00BAFF;" cx="256" cy="256" r="256"/>
<path style="fill:#008CC3;" d="M438.627,435.373C484.001,389.181,512,325.865,512,256c0-27.565-4.375-54.104-12.437-78.983  l-8.229-7.394l-61.176,16.887l-14.51-14.511L51.015,387.655l103.363,103.362C185.532,504.508,219.889,512,256,512  c69.865,0,133.181-27.999,179.373-73.373L438.627,435.373z"/>
<polygon style="fill:#FFDC00;" points="415.647,171.999 39.214,171.999 43.436,284.813 96.774,352.739 338.902,296.434 "/>
<polygon style="fill:#FFC000;" points="415.647,171.999 255.667,171.999 255.667,315.79 338.902,296.434 "/>
<circle style="fill:#1A1A1A;" cx="96.77" cy="352.74" r="57.56"/>
<circle style="fill:#C0C0C0;" cx="96.77" cy="352.74" r="32.3"/>
<rect x="283.07" y="308.87" style="fill:#4D4D4D;" width="24.884" height="81.86"/>
<path style="fill:#333333;" d="M96.764,363.742c-5.024,0-9.56-3.464-10.718-8.57c-1.344-5.924,2.371-11.816,8.295-13.16  l271.178-61.485l65.233-114.137h52.792c6.075,0,11,4.925,11,11s-4.925,11-11,11h-40.026L379.82,299.843L99.206,363.467  C98.388,363.652,97.569,363.742,96.764,363.742z"/>
<path style="fill:#1A1A1A;" d="M483.545,166.39h-52.792L365.52,280.527l-109.853,24.907v22.559l124.154-28.149l63.698-111.453  h40.026c6.075,0,11-4.925,11-11S489.62,166.39,483.545,166.39z"/>
<g>
</g>
<g>
</g>
<g>
</g>
<g>
</g>
<g>
</g>
<g>
</g>
<g>
</g>
<g>
</g>
<g>
</g>
<g>
</g>
<g>
</g>
<g>
</g>
<g>
</g>
<g>
</g>
<g>
</g>
</svg>
