<?xml version="1.0" encoding="iso-8859-1"?>
<!-- Generator: Adobe Illustrator 19.0.0, SVG Export Plug-In . SVG Version: 6.00 Build 0)  -->
<svg xmlns="http://www.w3.org/2000/svg" xmlns:xlink="http://www.w3.org/1999/xlink" version="1.1" id="Layer_1" x="0px" y="0px" viewBox="0 0 512 512" style="enable-background:new 0 0 512 512;" xml:space="preserve">
<circle style="fill:#590F38;" cx="256" cy="256" r="256"/>
<path style="fill:#440129;" d="M506.436,202.741L400.601,96.906l-298.135,12.177l46.187,49.046l-50.646,245.29l102.539,102.539  C218.404,509.903,236.956,512,256,512c141.385,0,256-114.615,256-256C512,237.735,510.073,219.922,506.436,202.741z"/>
<g>
	<path style="fill:#FFB344;" d="M105.854,372.01l-22.44-9.467l0.585-24.347l-19.505-14.584l6.433-23.491l-15.438-18.835   l11.828-21.289l-10.523-21.965l16.588-17.833l-4.922-23.852l20.39-13.321l0.855-22.347l-19.529,0.845   c-22.03,34.81-33.209,76.872-29.231,121.072c4.434,49.274,26.926,92.574,60.347,123.985l10.03-10.757l-0.206-0.033L105.854,372.01z   "/>
	<path style="fill:#FFB344;" d="M122.246,108.017l23.609-5.982l8.77-22.721l24.353-0.18l13.955-19.961l23.683,5.681l18.351-16.011   L256.6,60.039l21.633-11.196l18.352,16.011l23.683-5.681l13.955,19.961l24.354,0.181l8.77,22.721l21.458,5.438l-9.119,8.171l0,0   l-14.342,12.85l-14.733,13.2l-16.653,14.921l-24.719,22.148l91.362-81.859C365.083,57.63,313.725,32.948,256.6,32.948   c-62.82,0-118.659,29.852-154.135,76.135l19.526,0.909L122.246,108.017z"/>
</g>
<g>
	<path style="fill:#FF9451;" d="M365.345,128.495l-14.733,13.2l-16.653,14.921l-24.719,22.148l91.362-81.859   C365.083,57.63,313.725,32.948,256.6,32.948c-0.089,0-0.178,0.004-0.267,0.004V59.9l0.267,0.138l21.633-11.195l18.352,16.011   l23.683-5.681l13.955,19.961l24.354,0.181l8.77,22.722l21.458,5.438l-9.119,8.171L365.345,128.495z"/>
	<path style="fill:#FF9451;" d="M420.052,116.356l-11.795,10.568l2.151,0.545l3.108,24.155l21.501,11.44l-2.765,24.196   l18.119,16.274l-8.512,22.82l13.688,20.143l-13.688,20.143l8.512,22.82l-18.119,16.274l2.764,24.198l-15.981,8.503l12.545,24.208   c24.225-32.386,38.571-72.591,38.571-116.146C470.15,196.425,451.185,150.784,420.052,116.356z"/>
</g>
<path style="fill:#FFB344;" d="M412.448,380.925l-3.109,24.155l-23.609,5.982l-8.77,22.721l-24.353,0.18l-13.955,19.96  l-23.683-5.681l-18.351,16.011l-21.633-11.196l-21.633,11.196L235,448.244l-23.683,5.681l-13.955-19.961l-24.354-0.181l-8.77-22.721  l-23.406-5.931l9.12-8.171l0,0l-20.074,17.986c35.554,39.997,87.383,65.205,145.108,65.205c63.643,0,120.131-30.63,155.529-77.953  l-12.545-24.209L412.448,380.925z"/>
<path style="fill:#FF9451;" d="M417.969,377.988l-5.521,2.938l-3.109,24.155l-23.609,5.982l-8.77,22.721l-24.353,0.181  l-13.955,19.96l-23.683-5.681l-18.351,16.011l-21.633-11.195l-18.652,9.652v16.535c6.14,0.586,12.358,0.903,18.652,0.903  c63.643,0,120.131-30.63,155.529-77.954L417.969,377.988z"/>
<polygon style="fill:#97CC52;" points="161.608,89.43 184.294,89.262 197.293,70.668 219.354,75.96 236.449,61.046 256.6,71.475   276.752,61.046 293.847,75.96 315.909,70.668 328.908,89.263 351.595,89.431 359.764,110.597 379.687,115.645 388.806,107.474   367.348,102.037 358.577,79.315 334.224,79.134 320.268,59.173 296.585,64.854 278.233,48.843 256.6,60.039 234.968,48.843   216.616,64.854 192.934,59.173 178.979,79.133 154.625,79.314 145.855,102.035 122.246,108.017 121.992,109.992 150.567,111.323   153.438,110.595 "/>
<polygon style="fill:#60C344;" points="367.348,102.037 358.577,79.315 334.224,79.134 320.268,59.173 296.585,64.854   278.233,48.843 256.6,60.039 256.333,59.9 256.333,71.336 256.6,71.475 276.752,61.046 293.847,75.96 315.909,70.668   328.908,89.263 351.595,89.431 359.764,110.597 379.687,115.645 388.806,107.474 "/>
<polygon style="fill:#97CC52;" points="119.547,386.848 114.647,364.697 93.743,355.878 94.288,333.198 76.119,319.612   82.111,297.73 67.73,280.185 78.748,260.354 68.945,239.892 84.397,223.28 79.812,201.062 98.806,188.653 99.673,165.982   118.283,159.443 89.703,160.679 88.848,183.026 68.458,196.347 73.38,220.199 56.793,238.032 67.316,259.997 55.488,281.286   70.927,300.121 64.494,323.612 83.999,338.197 83.414,362.544 105.854,372.01 111.115,395.79 111.321,395.823 132.807,372.779   119.671,386.867 "/>
<polygon style="fill:#60C344;" points="404.102,158.121 424.132,168.778 421.556,191.317 438.434,206.477 430.505,227.734   443.256,246.498 430.505,265.262 438.434,286.52 421.556,301.68 424.131,324.22 414.361,329.418 419.034,338.436 435.016,329.933   432.251,305.736 450.37,289.461 441.858,266.641 455.547,246.498 441.858,226.355 450.371,203.535 432.252,187.261 435.017,163.065   413.515,151.625 410.407,127.469 408.256,126.924 399.137,135.095 401.207,135.62 "/>
<polygon style="fill:#97CC52;" points="403.036,374.428 400.14,396.93 378.147,402.503 369.978,423.668 347.292,423.836   334.292,442.43 312.231,437.138 295.137,452.052 274.985,441.623 254.833,452.052 237.738,437.138 215.677,442.43 202.677,423.835   179.991,423.667 171.821,402.501 149.951,396.959 140.831,405.13 164.238,411.062 173.008,433.783 197.362,433.964 211.317,453.925   235,448.244 253.352,464.255 274.985,453.059 296.618,464.255 314.969,448.244 338.652,453.925 352.607,433.965 376.96,433.784   385.731,411.063 409.34,405.081 412.448,380.925 417.969,377.988 413.296,368.969 "/>
<polygon style="fill:#60C344;" points="413.296,368.97 403.036,374.428 400.14,396.93 378.147,402.502 369.978,423.668   347.292,423.836 334.292,442.43 312.231,437.138 295.137,452.052 274.985,441.624 256.333,451.276 256.333,462.712 274.985,453.06   296.618,464.255 314.969,448.244 338.652,453.925 352.607,433.965 376.96,433.784 385.73,411.063 409.34,405.081 412.448,380.925   417.969,377.988 "/>
<g>
	<polygon style="fill:#FFECB3;" points="399.137,135.095 399.137,135.095 368.895,162.191 370.062,161.146  "/>
	<polygon style="fill:#FFECB3;" points="311.857,213.296 291.222,231.786 291.222,231.786  "/>
	<polygon style="fill:#FFECB3;" points="384.795,147.945 399.137,135.095 370.062,161.146  "/>
</g>
<polygon style="fill:#FFD863;" points="386.738,148.438 389.299,168.338 407.013,177.762 404.735,197.696 419.662,211.104   412.649,229.903 423.926,246.498 412.649,263.093 419.662,281.893 404.735,295.3 407.012,315.235 414.361,329.418 424.131,324.22   421.556,301.68 438.434,286.52 430.505,265.262 443.256,246.498 430.505,227.734 438.434,206.477 421.556,191.317 424.132,168.778   404.102,158.121 401.207,135.62 399.137,135.095 384.795,147.945 "/>
<polygon style="fill:#FFECB3;" points="179.991,423.667 202.677,423.835 215.677,442.43 237.738,437.138 254.833,452.052   274.985,441.623 295.137,452.052 312.231,437.138 334.292,442.43 347.292,423.836 369.978,423.668 378.147,402.503 400.14,396.93   403.036,374.428 413.296,368.969 405.947,354.787 388.232,364.212 385.671,384.112 366.221,389.041 358.996,407.759   338.933,407.908 327.436,424.352 307.925,419.672 292.807,432.862 274.985,423.639 257.163,432.862 242.044,419.672   222.533,424.352 211.036,407.907 190.973,407.758 183.747,389.039 164.297,384.11 164.297,384.106 149.951,396.959 171.821,402.501   "/>
<polygon style="fill:#FFD863;" points="405.947,354.787 388.232,364.211 385.672,384.112 366.221,389.041 358.996,407.759   338.933,407.908 327.436,424.352 307.925,419.671 292.807,432.862 274.985,423.639 257.163,432.862 256.333,432.138   256.333,451.276 274.985,441.624 295.137,452.052 312.231,437.138 334.292,442.43 347.292,423.836 369.978,423.668 378.147,402.502   400.14,396.93 403.036,374.428 413.296,368.97 "/>
<polygon style="fill:#FFECB3;" points="192.653,105.19 204.149,88.746 223.66,93.427 238.779,80.236 256.6,89.459 274.423,80.236   289.541,93.427 309.052,88.746 320.549,105.191 340.613,105.34 347.838,124.059 365.345,128.495 379.687,115.645 359.764,110.597   351.595,89.431 328.908,89.263 315.909,70.668 293.847,75.96 276.752,61.046 256.6,71.475 236.449,61.046 219.354,75.96   197.293,70.668 184.294,89.262 161.608,89.43 153.438,110.595 150.567,111.323 169.932,112.224 172.589,105.339 "/>
<polygon style="fill:#FFD863;" points="359.764,110.597 351.595,89.431 328.908,89.263 315.909,70.668 293.847,75.96   276.752,61.046 256.6,71.475 256.333,71.336 256.333,89.321 256.6,89.459 274.422,80.236 289.541,93.427 309.052,88.746   320.549,105.191 340.613,105.34 347.838,124.059 365.345,128.495 379.687,115.645 "/>
<polygon style="fill:#FFECB3;" points="109.987,345.395 110.469,325.337 94.401,313.322 99.7,293.969 86.981,278.452   96.726,260.914 88.056,242.818 101.722,228.126 97.667,208.476 114.465,197.502 115.232,177.452 134.162,170.8 137.65,158.605   118.283,159.443 99.673,165.982 98.806,188.653 79.812,201.062 84.397,223.28 68.945,239.892 78.748,260.354 67.73,280.185   82.111,297.73 76.119,319.612 94.288,333.198 93.743,355.878 114.647,364.697 119.547,386.848 119.671,386.867 132.807,372.779   128.474,353.194 "/>
<g>
	<polygon style="fill:#97CC52;" points="281.651,203.484 281.651,203.484 308.812,179.147  "/>
	<path style="fill:#97CC52;" d="M107.796,276.579c-3.848-42.76,13.975-82.469,44.401-108.281l-3.544-10.169l-11.003,0.476   l-3.488,12.195l-18.93,6.652l-0.767,20.05l-16.798,10.974l4.055,19.65l-13.666,14.691l8.67,18.096l-9.744,17.539L99.7,293.969   l-5.3,19.353l16.069,12.016l-0.482,20.058l18.487,7.799l4.333,19.585l14.257-15.29C125.316,336.957,110.688,308.71,107.796,276.579   z"/>
	<path style="fill:#97CC52;" d="M350.612,141.695l14.733-13.2l-17.507-4.436l-7.225-18.719l-20.064-0.149l-11.497-16.445   l-19.511,4.68l-15.119-13.19L256.6,89.459l-17.822-9.223l-15.118,13.19l-19.511-4.68l-11.497,16.444l-20.063,0.148l-2.658,6.886   l11.001,0.512l2.619,10.445c20.66-14.557,45.855-23.11,73.05-23.11C293.867,100.071,327.383,116.126,350.612,141.695z"/>
</g>
<g>
	<path style="fill:#60C344;" d="M347.838,124.059l-7.225-18.719l-20.064-0.149l-11.497-16.445l-19.511,4.681l-15.119-13.19   L256.6,89.459l-0.267-0.138v10.755c0.089,0,0.178-0.005,0.267-0.005c37.266,0,70.783,16.055,94.011,41.624l14.733-13.2   L347.838,124.059z"/>
	<path style="fill:#60C344;" d="M383.497,314.179l23.515,1.056l-2.277-19.935l14.927-13.407l-7.013-18.8l11.277-16.595   l-11.277-16.595l7.013-18.8l-14.927-13.407l2.278-19.934l-17.714-9.424l-2.561-19.9l-1.943-0.493l-14.733,13.2   c20.482,22.547,32.965,52.492,32.965,85.353C403.027,271.38,395.864,294.586,383.497,314.179z"/>
</g>
<path style="fill:#97CC52;" d="M183.747,389.039l7.225,18.719l20.064,0.149l11.497,16.445l19.511-4.68l15.119,13.19l17.822-9.223  l17.822,9.223l15.118-13.19l19.511,4.68l11.497-16.444l20.063-0.148l7.225-18.719l19.45-4.929l2.561-19.9l17.714-9.424  l-23.515-1.056c-22.489,35.627-62.201,59.296-107.446,59.296c-37.866,0-71.854-16.581-95.118-42.872l-15.57,13.951l0.001,0.005  L183.747,389.039z"/>
<path style="fill:#60C344;" d="M382.431,353.73c-22.489,35.627-62.201,59.296-107.446,59.296c-6.338,0-12.563-0.475-18.652-1.371  v20.483l0.83,0.724l17.822-9.223l17.822,9.223l15.118-13.19l19.511,4.68l11.497-16.444l20.063-0.148l7.225-18.719l19.45-4.929  l2.561-19.9l17.714-9.424L382.431,353.73z"/>
<path style="fill:#FFCF35;" d="M343.208,148.329l7.404-6.634c-23.228-25.569-56.745-41.624-94.011-41.624  c-27.195,0-52.389,8.553-73.05,23.11l17.865,71.263l80.235,9.038l45.58-40.839L343.208,148.329z"/>
<path style="fill:#FFB344;" d="M256.601,100.071c-0.09,0-0.178,0.005-0.267,0.005v100.555l25.317,2.852l45.58-40.838l15.977-14.315  l7.404-6.634C327.383,116.126,293.867,100.071,256.601,100.071z"/>
<g>
	<path style="fill:#FFCF35;" d="M107.796,276.579c2.891,32.131,17.52,60.378,39.268,80.91l110.035-118.006l-80.722-1.811   l-24.18-69.375C121.771,194.111,103.948,233.819,107.796,276.579z"/>
	<polygon style="fill:#FFCF35;" points="256.333,239.467 256.333,240.305 257.099,239.484  "/>
	<polygon style="fill:#FFCF35;" points="256.303,226.195 256.047,226.424 255.889,226.566  "/>
	<polygon style="fill:#FFCF35;" points="291.222,231.786 328.69,198.215 293.919,229.369  "/>
	<polygon style="fill:#FFCF35;" points="293.919,229.369 291.222,231.786 291.222,231.786  "/>
	<polygon style="fill:#FFCF35;" points="368.895,162.191 362.658,167.78 352.115,177.225  "/>
	<polygon style="fill:#FFCF35;" points="346.783,182.003 370.062,161.146 368.895,162.191 352.115,177.225  "/>
	<path style="fill:#FFCF35;" d="M290.156,271.337l-110.289,98.818c23.264,26.29,57.252,42.872,95.118,42.872   c45.245,0,84.957-23.669,107.446-59.296l-67.366-3.026L290.156,271.337z"/>
</g>
<g>
	<path style="fill:#FFB344;" d="M315.066,350.705l-24.91-79.368l-33.823,30.305v110.013c6.088,0.896,12.314,1.371,18.652,1.371   c45.245,0,84.957-23.669,107.446-59.296L315.066,350.705z"/>
	<path style="fill:#FFB344;" d="M291.222,231.786l24.91,79.367l67.366,3.026c12.367-19.593,19.531-42.799,19.531-67.681   c0-32.861-12.483-62.806-32.965-85.353l-41.372,37.069L291.222,231.786z"/>
</g>
<g>
</g>
<g>
</g>
<g>
</g>
<g>
</g>
<g>
</g>
<g>
</g>
<g>
</g>
<g>
</g>
<g>
</g>
<g>
</g>
<g>
</g>
<g>
</g>
<g>
</g>
<g>
</g>
<g>
</g>
</svg>
