<?xml version="1.0" encoding="iso-8859-1"?>
<!-- Generator: Adobe Illustrator 19.0.0, SVG Export Plug-In . SVG Version: 6.00 Build 0)  -->
<svg xmlns="http://www.w3.org/2000/svg" xmlns:xlink="http://www.w3.org/1999/xlink" version="1.1" id="Layer_1" x="0px" y="0px" viewBox="0 0 512 512" style="enable-background:new 0 0 512 512;" xml:space="preserve">
<circle style="fill:#F1333F;" cx="256" cy="256" r="256"/>
<path style="fill:#AE283F;" d="M512,256c0-27.043-4.206-53.101-11.978-77.57L358,36.408l-204,40l20.109,20.109l-2.359,1.391  l130.801,130.801L154,476.408l23.222,23.222C202.042,507.65,228.511,512,256,512C397.385,512,512,397.385,512,256z"/>
<rect x="178.5" y="87.91" style="fill:#FFFFFF;" width="155" height="341"/>
<rect x="256.33" y="87.91" style="fill:#E0E0E0;" width="77.17" height="341"/>
<g>
	<path style="fill:#C0C0C0;" d="M310.25,403.908L310.25,403.908c-5.109,0-9.25-4.141-9.25-9.25v-278c0-5.109,4.141-9.25,9.25-9.25   l0,0c5.109,0,9.25,4.141,9.25,9.25v278C319.5,399.766,315.359,403.908,310.25,403.908z"/>
	<path style="fill:#C0C0C0;" d="M274.083,403.908L274.083,403.908c-5.109,0-9.25-4.141-9.25-9.25v-278c0-5.109,4.141-9.25,9.25-9.25   l0,0c5.109,0,9.25,4.141,9.25,9.25v278C283.333,399.766,279.192,403.908,274.083,403.908z"/>
</g>
<g>
	<path style="fill:#E0E0E0;" d="M237.917,403.908L237.917,403.908c-5.109,0-9.25-4.141-9.25-9.25v-278c0-5.109,4.141-9.25,9.25-9.25   l0,0c5.109,0,9.25,4.141,9.25,9.25v278C247.167,399.766,243.025,403.908,237.917,403.908z"/>
	<path style="fill:#E0E0E0;" d="M201.75,403.908L201.75,403.908c-5.109,0-9.25-4.141-9.25-9.25v-278c0-5.109,4.141-9.25,9.25-9.25   l0,0c5.109,0,9.25,4.141,9.25,9.25v278C211,399.766,206.859,403.908,201.75,403.908z"/>
	<rect x="171.75" y="73.908" style="fill:#E0E0E0;" width="168.5" height="24"/>
</g>
<g>
	<rect x="256.33" y="73.908" style="fill:#C0C0C0;" width="83.917" height="24"/>
	<rect x="154" y="36.408" style="fill:#C0C0C0;" width="204" height="40"/>
</g>
<rect x="256.33" y="36.408" style="fill:#758F9B;" width="101.67" height="40"/>
<rect x="154" y="436.41" style="fill:#C0C0C0;" width="204" height="40"/>
<rect x="256.33" y="436.41" style="fill:#758F9B;" width="101.67" height="40"/>
<rect x="171.75" y="416.91" style="fill:#E0E0E0;" width="168.5" height="24"/>
<rect x="256.33" y="416.91" style="fill:#C0C0C0;" width="83.917" height="24"/>
<g>
</g>
<g>
</g>
<g>
</g>
<g>
</g>
<g>
</g>
<g>
</g>
<g>
</g>
<g>
</g>
<g>
</g>
<g>
</g>
<g>
</g>
<g>
</g>
<g>
</g>
<g>
</g>
<g>
</g>
</svg>
