<?xml version="1.0" encoding="iso-8859-1"?>
<!-- Generator: Adobe Illustrator 19.0.0, SVG Export Plug-In . SVG Version: 6.00 Build 0)  -->
<svg xmlns="http://www.w3.org/2000/svg" xmlns:xlink="http://www.w3.org/1999/xlink" version="1.1" id="Layer_1" x="0px" y="0px" viewBox="0 0 512 512" style="enable-background:new 0 0 512 512;" xml:space="preserve">
<circle style="fill:#005C83;" cx="256" cy="256" r="256"/>
<path style="fill:#00263F;" d="M512,256c0-24.627-3.487-48.439-9.978-70.978L428,111L108.242,406.304l101.521,101.521  C224.762,510.561,240.212,512,256,512C397.385,512,512,397.385,512,256z"/>
<polygon style="fill:#758F9B;" points="269.228,31.025 428,111 473.5,256 459,349.799 366,349.799 256,173 "/>
<polygon style="fill:#E0E0E0;" points="269.228,86.464 404.627,178.151 393.966,299.691 459,349.799 399.297,447.883   108.242,406.304 34.679,232.524 134.896,76.869 269.228,31.025 "/>
<polygon style="fill:#C0C0C0;" points="459,349.799 393.966,299.69 404.627,178.151 269.228,86.464 269.228,31.025 255.667,35.653   255.667,427.364 399.297,447.883 "/>
<path style="fill:#758F9B;" d="M253.087,210.132c-42.46-24.42-121.116,3.868-143.478,35.69  c-23.018,32.755,21.555,135.009,68.638,135.362c32,0.24,19.667-23.184,84-13.184C309.202,375.299,317.421,247.132,253.087,210.132z"/>
<path style="fill:#4D646D;" d="M255.667,211.699V367.06c2.104,0.274,4.288,0.583,6.581,0.94  C308.564,375.199,317.184,250.601,255.667,211.699z"/>
<g>
	
		<ellipse transform="matrix(-0.3706 -0.9288 0.9288 -0.3706 68.2305 377.8381)" style="fill:#758F9B;" cx="162.137" cy="165.801" rx="30.655" ry="24.833"/>
	
		<ellipse transform="matrix(-0.3706 -0.9288 0.9288 -0.3706 -42.1277 367.2047)" style="fill:#758F9B;" cx="103.355" cy="197.876" rx="26.655" ry="21.594"/>
	
		<ellipse transform="matrix(-0.1927 -0.9813 0.9813 -0.1927 116.6203 427.5692)" style="fill:#758F9B;" cx="234.196" cy="165.811" rx="26.655" ry="21.595"/>
	<path style="fill:#758F9B;" d="M255.667,163.343v9.099C256.095,169.542,256.113,166.474,255.667,163.343z"/>
</g>
<g>
</g>
<g>
</g>
<g>
</g>
<g>
</g>
<g>
</g>
<g>
</g>
<g>
</g>
<g>
</g>
<g>
</g>
<g>
</g>
<g>
</g>
<g>
</g>
<g>
</g>
<g>
</g>
<g>
</g>
</svg>
