<?xml version="1.0" encoding="iso-8859-1"?>
<!-- Generator: Adobe Illustrator 19.0.0, SVG Export Plug-In . SVG Version: 6.00 Build 0)  -->
<svg xmlns="http://www.w3.org/2000/svg" xmlns:xlink="http://www.w3.org/1999/xlink" version="1.1" id="Layer_1" x="0px" y="0px" viewBox="0 0 512 512" style="enable-background:new 0 0 512 512;" xml:space="preserve">
<circle style="fill:#B9EAFF;" cx="256" cy="256" r="256"/>
<path style="fill:#35CCFF;" d="M512,256c0-35.192-7.106-68.724-19.953-99.245l-40.153-40.153L44.26,381.184l109.614,109.614  C185.162,504.426,219.694,512,256,512C397.385,512,512,397.385,512,256z"/>
<path style="fill:#FF6838;" d="M467.739,381.184H44.26V159.511c0-36.467,29.562-66.029,66.029-66.029h291.422  c36.467,0,66.029,29.562,66.029,66.029L467.739,381.184L467.739,381.184z"/>
<g>
	<path style="fill:#AE4E32;" d="M467.74,159.511c0-36.467-29.562-66.029-66.029-66.029H255.667v287.702H467.74V159.511z"/>
	<path style="fill:#AE4E32;" d="M467.739,189.796H44.26v-30.285c0-36.467,29.562-66.029,66.029-66.029h291.422   c36.467,0,66.029,29.562,66.029,66.029L467.739,189.796L467.739,189.796z"/>
</g>
<path style="fill:#7F301D;" d="M467.74,159.511c0-36.467-29.562-66.029-66.029-66.029H255.667v96.314H467.74V159.511z"/>
<rect x="44.26" y="305.19" style="fill:#FF9451;" width="423.48" height="44.997"/>
<rect x="255.67" y="305.19" style="fill:#F7674F;" width="212.07" height="44.997"/>
<rect x="44.26" y="221.37" style="fill:#FF9451;" width="423.48" height="44.997"/>
<rect x="255.67" y="221.37" style="fill:#F7674F;" width="212.07" height="44.997"/>
<path style="fill:#FFB344;" d="M270.817,208.998h-29.634c-4.042,0-7.319-3.277-7.319-7.319v-39.432c0-4.042,3.277-7.319,7.319-7.319  h29.634c4.042,0,7.319,3.277,7.319,7.319v39.432C278.136,205.721,274.859,208.998,270.817,208.998z"/>
<path style="fill:#FF9451;" d="M270.817,154.929h-15.15v54.069h15.15c4.042,0,7.319-3.277,7.319-7.319v-39.432  C278.136,158.206,274.859,154.929,270.817,154.929z"/>
<path style="fill:#FFB344;" d="M44.26,323v58.184h58.184C102.445,349.05,76.395,323,44.26,323z"/>
<path style="fill:#FF9451;" d="M467.74,323c-32.134,0-58.184,26.05-58.184,58.184h58.184V323z"/>
<g>
</g>
<g>
</g>
<g>
</g>
<g>
</g>
<g>
</g>
<g>
</g>
<g>
</g>
<g>
</g>
<g>
</g>
<g>
</g>
<g>
</g>
<g>
</g>
<g>
</g>
<g>
</g>
<g>
</g>
</svg>
