<?xml version="1.0" encoding="iso-8859-1"?>
<!-- Generator: Adobe Illustrator 19.0.0, SVG Export Plug-In . SVG Version: 6.00 Build 0)  -->
<svg xmlns="http://www.w3.org/2000/svg" xmlns:xlink="http://www.w3.org/1999/xlink" version="1.1" id="Layer_1" x="0px" y="0px" viewBox="0 0 512 512" style="enable-background:new 0 0 512 512;" xml:space="preserve">
<circle style="fill:#005C83;" cx="256" cy="256" r="256"/>
<path style="fill:#00263F;" d="M512,256c0-28.921-4.802-56.719-13.641-82.647L377.143,52.137l-2.891,5.725L345.24,28.85  l-0.81,33.596l-31.553-31.553l-5.264,29.112L278.5,30.892l-3.016,31.457l-31.457-31.457L241.88,63.12l-32.228-32.228l-5.264,29.209  l-29.209-29.209l-5.264,31.441l47.518,306.098L57,376.5l124.464,124.464C205.05,508.131,230.072,512,256,512  C397.385,512,512,397.385,512,256z"/>
<rect x="134.86" y="52.14" style="fill:#FFD863;" width="242.29" height="398.88"/>
<rect x="255.67" y="52.14" style="fill:#FFCF35;" width="121.48" height="398.88"/>
<g>
	<rect x="163.68" y="117.75" style="fill:#FFB344;" width="184.64" height="9"/>
	<rect x="163.68" y="158.37" style="fill:#FFB344;" width="184.64" height="9"/>
	<rect x="163.68" y="199" style="fill:#FFB344;" width="184.64" height="9"/>
	<rect x="163.68" y="239.62" style="fill:#FFB344;" width="184.64" height="9"/>
	<rect x="163.68" y="280.24" style="fill:#FFB344;" width="184.64" height="9"/>
	<rect x="163.68" y="320.86" style="fill:#FFB344;" width="184.64" height="9"/>
	<rect x="163.68" y="361.49" style="fill:#FFB344;" width="184.64" height="9"/>
	<rect x="163.68" y="402.11" style="fill:#FFB344;" width="184.64" height="9"/>
</g>
<g>
	<rect x="255.67" y="117.75" style="fill:#FF9451;" width="92.65" height="9"/>
	<rect x="255.67" y="158.37" style="fill:#FF9451;" width="92.65" height="9"/>
	<rect x="255.67" y="199" style="fill:#FF9451;" width="92.65" height="9"/>
	<rect x="255.67" y="239.62" style="fill:#FF9451;" width="92.65" height="9"/>
	<rect x="255.67" y="280.24" style="fill:#FF9451;" width="92.65" height="9"/>
	<rect x="255.67" y="320.86" style="fill:#FF9451;" width="92.65" height="9"/>
	<rect x="255.67" y="402.11" style="fill:#FF9451;" width="92.65" height="9"/>
</g>
<g>
	<path style="fill:#FFFFFF;" d="M169.914,70.055L169.914,70.055c-3.442,0-6.232-2.79-6.232-6.232V34.219   c0-3.442,2.79-6.232,6.232-6.232l0,0c3.442,0,6.232,2.79,6.232,6.232v29.604C176.147,67.265,173.356,70.055,169.914,70.055z"/>
	<path style="fill:#FFFFFF;" d="M204.388,70.055L204.388,70.055c-3.442,0-6.232-2.79-6.232-6.232V34.219   c0-3.442,2.79-6.232,6.232-6.232l0,0c3.442,0,6.232,2.79,6.232,6.232v29.604C210.62,67.265,207.83,70.055,204.388,70.055z"/>
	<path style="fill:#FFFFFF;" d="M238.763,70.055L238.763,70.055c-3.442,0-6.232-2.79-6.232-6.232V34.219   c0-3.442,2.79-6.232,6.232-6.232l0,0c3.442,0,6.232,2.79,6.232,6.232v29.604C244.996,67.265,242.205,70.055,238.763,70.055z"/>
</g>
<g>
	<path style="fill:#E0E0E0;" d="M273.237,70.055L273.237,70.055c-3.442,0-6.232-2.79-6.232-6.232V34.219   c0-3.442,2.79-6.232,6.232-6.232l0,0c3.442,0,6.232,2.79,6.232,6.232v29.604C279.469,67.265,276.679,70.055,273.237,70.055z"/>
	<path style="fill:#E0E0E0;" d="M307.612,70.055L307.612,70.055c-3.442,0-6.232-2.79-6.232-6.232V34.219   c0-3.442,2.79-6.232,6.232-6.232l0,0c3.442,0,6.232,2.79,6.232,6.232v29.604C313.845,67.265,311.055,70.055,307.612,70.055z"/>
	<path style="fill:#E0E0E0;" d="M342.086,70.055L342.086,70.055c-3.442,0-6.232-2.79-6.232-6.232V34.219   c0-3.442,2.79-6.232,6.232-6.232l0,0c3.442,0,6.232,2.79,6.232,6.232v29.604C348.318,67.265,345.528,70.055,342.086,70.055z"/>
</g>
<polygon style="fill:#FF6838;" points="57,376.5 431.5,376.5 474.269,360 431.5,343.5 57,343.5 "/>
<polygon style="fill:#AE4E32;" points="474.269,360 431.5,343.5 255.667,343.5 255.667,376.5 431.5,376.5 "/>
<polygon style="fill:#FF9451;" points="431.5,376.5 474.269,360 431.5,343.5 "/>
<g>
</g>
<g>
</g>
<g>
</g>
<g>
</g>
<g>
</g>
<g>
</g>
<g>
</g>
<g>
</g>
<g>
</g>
<g>
</g>
<g>
</g>
<g>
</g>
<g>
</g>
<g>
</g>
<g>
</g>
</svg>
