<?xml version="1.0" encoding="iso-8859-1"?>
<!-- Generator: Adobe Illustrator 19.0.0, SVG Export Plug-In . SVG Version: 6.00 Build 0)  -->
<svg xmlns="http://www.w3.org/2000/svg" xmlns:xlink="http://www.w3.org/1999/xlink" version="1.1" id="Layer_1" x="0px" y="0px" viewBox="0 0 512 512" style="enable-background:new 0 0 512 512;" xml:space="preserve">
<circle style="fill:#590F38;" cx="256" cy="256" r="256"/>
<path style="fill:#47062D;" d="M512,256c0-22.044-2.788-43.437-8.027-63.846l-51.113-51.113l-2.015,2.17l-62.096-62.096  l-17.492,28.033l-28.033-28.033l-1.051,29.214l-29.214-29.214l-1.363,26.29l-26.29-26.29L269.98,157.52l-76.406-76.406  l20.459,93.354l-39.354-39.354l-7.134,84.599l-84.599-84.599L72.173,412.311l53.733,55.683l22.117,20.167  C180.835,503.448,217.416,512,256,512C397.385,512,512,397.385,512,256z"/>
<polygon style="fill:#FFFFFF;" points="249.319,135.114 239.376,173.079 232.596,135.114 207.598,135.114 205.571,154.876   202.331,135.114 184.368,135.114 179.828,157.997 174.679,135.114 99.92,135.114 91.156,157.477 82.947,135.114 72.173,135.114   72.173,412.311 196.669,412.311 201.411,396.189 205.441,412.311 212.606,412.311 223.254,376.946 230.557,412.311 234.899,412.311   239.896,376.946 246.969,412.311 278.121,412.311 278.121,135.114 "/>
<polygon style="fill:#E0E0E0;" points="249.319,135.114 239.376,173.079 232.596,135.114 207.598,135.114 205.571,154.876   202.332,135.114 184.368,135.114 179.828,157.997 179.5,156.54 179.5,412.311 196.669,412.311 201.411,396.189 205.441,412.311   212.606,412.311 223.254,376.946 230.557,412.311 234.899,412.311 239.896,376.946 246.969,412.311 278.121,412.311   278.121,135.114 "/>
<polygon style="fill:#FFD863;" points="359.946,81.114 350.003,119.079 343.223,81.114 318.225,81.114 316.198,100.876   312.958,81.114 294.995,81.114 290.455,103.997 285.306,81.114 210.547,81.114 201.783,103.477 193.574,81.114 182.8,81.114   182.8,358.311 307.296,358.311 312.038,342.189 316.068,358.311 323.233,358.311 333.881,322.946 341.184,358.311 345.526,358.311   350.523,322.946 357.596,358.311 388.748,358.311 388.748,81.114 "/>
<polygon style="fill:#FFCF35;" points="359.946,81.114 350.003,119.079 343.223,81.114 318.225,81.114 316.198,100.876   312.958,81.114 294.995,81.114 290.5,103.769 290.5,358.311 307.296,358.311 312.038,342.189 316.068,358.311 323.233,358.311   333.881,322.946 341.184,358.311 345.526,358.311 350.523,322.946 357.596,358.311 388.748,358.311 388.748,81.114 "/>
<rect x="245.079" y="298.098" transform="matrix(-0.7071 -0.7071 0.7071 -0.7071 211.5556 752.2755)" style="fill:#FF9451;" width="33" height="68.449"/>
<rect x="259.202" y="303.961" transform="matrix(0.7071 0.7071 -0.7071 0.7071 317.4584 -90.0402)" style="fill:#F7674F;" width="16.43" height="68.449"/>
<path style="fill:#0074A3;" d="M263.437,330.463c-11.52-11.521-30.199-11.521-41.719,0l-95.812,95.812  c-11.521,11.521-11.521,30.199,0,41.72c5.76,5.76,13.31,8.64,20.859,8.64s15.1-2.88,20.859-8.64l95.812-95.812  C274.957,360.662,274.957,341.983,263.437,330.463z"/>
<path style="fill:#005C83;" d="M125.957,468.043c5.753,5.727,13.281,8.592,20.808,8.592c7.55,0,15.1-2.88,20.859-8.64l95.812-95.812  c11.504-11.504,11.519-30.144,0.049-41.668L125.957,468.043z"/>
<path style="fill:#0074A3;" d="M221.718,330.463c11.52-11.521,30.199-11.521,41.719,0"/>
<circle style="fill:#B9EAFF;" cx="364.47" cy="229.43" r="108.5"/>
<path style="fill:#35CCFF;" d="M287.801,306.199c42.376,42.322,111.036,42.306,153.392-0.049  c42.355-42.355,42.371-111.016,0.049-153.392L287.801,306.199z"/>
<path style="fill:#FF6838;" d="M364.472,354.37c-32.015,0.003-64.018-12.181-88.389-36.553c-23.609-23.609-36.612-55-36.612-88.389  s13.003-64.779,36.612-88.388l0,0c48.737-48.738,128.041-48.737,176.776,0c23.609,23.609,36.612,55,36.612,88.388  c0,33.389-13.003,64.779-36.612,88.389C428.494,342.183,396.478,354.367,364.472,354.37z M364.471,137.472  c-23.559,0-47.118,8.968-65.054,26.903l0,0c-17.376,17.376-26.946,40.479-26.946,65.053s9.57,47.678,26.946,65.054  c35.87,35.87,94.236,35.872,130.108,0c17.376-17.376,26.946-40.479,26.946-65.054c0-24.574-9.57-47.677-26.946-65.053  C411.59,146.44,388.03,137.472,364.471,137.472z"/>
<path style="fill:#AE4E32;" d="M452.909,141.091l-23.335,23.335c17.344,17.371,26.898,40.452,26.898,65.002  c0,24.574-9.57,47.678-26.946,65.054c-35.855,35.855-94.182,35.869-130.057,0.049l-23.335,23.335  c24.365,24.338,56.346,36.507,88.338,36.503c32.006-0.003,64.022-12.187,88.388-36.553c23.609-23.609,36.612-55,36.612-88.389  C489.472,196.064,476.486,164.695,452.909,141.091z"/>
<g>
</g>
<g>
</g>
<g>
</g>
<g>
</g>
<g>
</g>
<g>
</g>
<g>
</g>
<g>
</g>
<g>
</g>
<g>
</g>
<g>
</g>
<g>
</g>
<g>
</g>
<g>
</g>
<g>
</g>
</svg>
