<?xml version="1.0" encoding="iso-8859-1"?>
<!-- Generator: Adobe Illustrator 19.0.0, SVG Export Plug-In . SVG Version: 6.00 Build 0)  -->
<svg xmlns="http://www.w3.org/2000/svg" xmlns:xlink="http://www.w3.org/1999/xlink" version="1.1" id="Layer_1" x="0px" y="0px" viewBox="0 0 512 512" style="enable-background:new 0 0 512 512;" xml:space="preserve">
<circle style="fill:#6EBA3B;" cx="256" cy="256" r="256"/>
<path style="fill:#488057;" d="M512,256c0-33.071-6.273-64.676-17.69-93.693l-48.643-48.643L45,385l103.281,103.281  C181.027,503.493,217.517,512,256,512C397.385,512,512,397.385,512,256z"/>
<rect x="45" y="317.17" style="fill:#FFECB3;" width="103.42" height="67.834"/>
<rect x="145.37" y="317.17" style="fill:#FFD863;" width="153.2" height="67.834"/>
<rect x="255.67" y="317.17" style="fill:#FFCF35;" width="42.35" height="67.834"/>
<rect x="292.47" y="317.17" style="fill:#FFB344;" width="153.2" height="67.834"/>
<rect x="145.37" y="181.5" style="fill:#FFD863;" width="153.2" height="67.834"/>
<rect x="255.67" y="181.5" style="fill:#FFCF35;" width="42.899" height="67.834"/>
<rect x="292.47" y="181.5" style="fill:#FFB344;" width="153.2" height="67.834"/>
<rect x="68.769" y="249.33" style="fill:#FFCF35;" width="153.2" height="67.834"/>
<rect x="215.87" y="249.33" style="fill:#FFB344;" width="153.2" height="67.834"/>
<rect x="255.67" y="249.33" style="fill:#FF9451;" width="112.85" height="67.834"/>
<rect x="364.11" y="249.33" style="fill:#F7674F;" width="81.55" height="67.834"/>
<rect x="215.87" y="113.66" style="fill:#FFB344;" width="153.2" height="67.834"/>
<rect x="255.67" y="113.66" style="fill:#FF9451;" width="113.4" height="67.834"/>
<rect x="364.11" y="113.66" style="fill:#F7674F;" width="81.55" height="67.834"/>
<g>
</g>
<g>
</g>
<g>
</g>
<g>
</g>
<g>
</g>
<g>
</g>
<g>
</g>
<g>
</g>
<g>
</g>
<g>
</g>
<g>
</g>
<g>
</g>
<g>
</g>
<g>
</g>
<g>
</g>
</svg>
