<?xml version="1.0" encoding="iso-8859-1"?>
<!-- Generator: Adobe Illustrator 19.0.0, SVG Export Plug-In . SVG Version: 6.00 Build 0)  -->
<svg xmlns="http://www.w3.org/2000/svg" xmlns:xlink="http://www.w3.org/1999/xlink" version="1.1" id="Layer_1" x="0px" y="0px" viewBox="0 0 512 512" style="enable-background:new 0 0 512 512;" xml:space="preserve">
<circle style="fill:#FFCF35;" cx="256" cy="256" r="256"/>
<path style="fill:#FFB344;" d="M512,256c0-42.902-10.569-83.33-29.222-118.848L428.146,82.52L82.384,419.991l70.275,70.275  C184.267,504.23,219.224,512,256,512C397.385,512,512,397.385,512,256z"/>
<rect x="188.36" y="247.209" transform="matrix(0.7071 0.7071 -0.7071 0.7071 267.7299 -75.4988)" style="fill:#FFFFFF;" width="73.279" height="76.439"/>
<rect x="219.788" y="260.216" transform="matrix(0.7071 0.7071 -0.7071 0.7071 280.7397 -80.8952)" style="fill:#E0E0E0;" width="36.463" height="76.439"/>
<path style="fill:#333333;" d="M277.93,284.303l-51.818-51.818L389.787,81.613c10.891-10.039,27.763-9.696,38.236,0.778l0,0  c10.473,10.473,10.817,27.345,0.778,38.236L277.93,284.303z"/>
<path style="fill:#1A1A1A;" d="M428.146,82.52l-176,176l25.783,25.783l150.872-163.676C438.8,109.78,438.496,93.002,428.146,82.52z"/>
<path style="fill:#FF6838;" d="M82.384,419.991c0,0,43.219-47.239,62.651-46.569c-3.383,4.145-24.994,14.539-37.523,37.523  c0,0,93.053-11.149,112.484-46.662c0.006-0.012,0.011-0.022,0.017-0.034c15.507-20.666,8.482-44.73-10.317-63.529  c-20.604-20.604-55.612-22.371-77.392-3.015C74.215,349.327,82.384,419.991,82.384,419.991z"/>
<path style="fill:#AE4E32;" d="M134.389,376.278c3.961-1.886,7.597-2.962,10.646-2.857c-3.383,4.145-24.994,14.539-37.523,37.523  c0,0,93.053-11.149,112.484-46.662c0.006-0.012,0.011-0.022,0.017-0.034c15.472-20.62,8.511-44.62-10.193-63.401L134.389,376.278z"/>
<g>
</g>
<g>
</g>
<g>
</g>
<g>
</g>
<g>
</g>
<g>
</g>
<g>
</g>
<g>
</g>
<g>
</g>
<g>
</g>
<g>
</g>
<g>
</g>
<g>
</g>
<g>
</g>
<g>
</g>
</svg>
