<?xml version="1.0" encoding="iso-8859-1"?>
<!-- Generator: Adobe Illustrator 19.0.0, SVG Export Plug-In . SVG Version: 6.00 Build 0)  -->
<svg xmlns="http://www.w3.org/2000/svg" xmlns:xlink="http://www.w3.org/1999/xlink" version="1.1" id="Layer_1" x="0px" y="0px" viewBox="0 0 512 512" style="enable-background:new 0 0 512 512;" xml:space="preserve">
<circle style="fill:#B9EAFF;" cx="256" cy="256" r="256"/>
<path style="fill:#35CCFF;" d="M512,256c0-11.925-0.834-23.653-2.412-35.145L400.692,111.959L386.91,133.91L274.333,21.333l-38,5.88  v46.453L134.739,420.263l89.812,89.812C234.858,511.338,245.351,512,256,512C397.385,512,512,397.385,512,256z"/>
<g>
	<path style="fill:#333333;" d="M256,70.167c-15.531,0-28.167-12.635-28.167-28.167S240.469,13.833,256,13.833   S284.167,26.469,284.167,42S271.531,70.167,256,70.167z M256,28.833c-7.26,0-13.167,5.906-13.167,13.167S248.74,55.167,256,55.167   c7.26,0,13.167-5.907,13.167-13.167S263.26,28.833,256,28.833z"/>
	<path style="fill:#333333;" d="M256,13.833c-15.531,0-28.167,12.635-28.167,28.167S240.469,70.167,256,70.167   S284.167,57.531,284.167,42S271.531,13.833,256,13.833z M256,55.167c-7.26,0-13.167-5.906-13.167-13.167S248.74,28.833,256,28.833   c7.26,0,13.167,5.907,13.167,13.167S263.26,55.167,256,55.167z"/>
</g>
<g>
	<path style="fill:#1A1A1A;" d="M256,13.833L256,13.833v15l0,0c7.26,0,13.167,5.906,13.167,13.167S263.26,55.167,256,55.167l0,0v15   l0,0c15.531,0,28.167-12.635,28.167-28.167S271.531,13.833,256,13.833z"/>
	<circle style="fill:#1A1A1A;" cx="256" cy="256" r="204.17"/>
	<circle style="fill:#1A1A1A;" cx="256" cy="256" r="204.17"/>
</g>
<path d="M256,51.833v408.333c112.758,0,204.167-91.408,204.167-204.167C460.167,143.242,368.758,51.833,256,51.833z"/>
<circle style="fill:#FFFFFF;" cx="256" cy="256" r="177"/>
<path style="fill:#E0E0E0;" d="M256,79v354c97.754,0,177-79.246,177-177S353.754,79,256,79z"/>
<polygon style="fill:#F1333F;" points="216,262.834 256,112.833 296,262.833 "/>
<polygon style="fill:#AE283F;" points="256.004,112.848 256.004,262.833 296,262.833 "/>
<polygon style="fill:#35CCFF;" points="296,262.833 256,412.833 216,262.834 "/>
<polygon style="fill:#00BAFF;" points="256.004,262.833 256.004,412.819 296,262.833 "/>
<g>
</g>
<g>
</g>
<g>
</g>
<g>
</g>
<g>
</g>
<g>
</g>
<g>
</g>
<g>
</g>
<g>
</g>
<g>
</g>
<g>
</g>
<g>
</g>
<g>
</g>
<g>
</g>
<g>
</g>
</svg>
