<?xml version="1.0" encoding="iso-8859-1"?>
<!-- Generator: Adobe Illustrator 19.0.0, SVG Export Plug-In . SVG Version: 6.00 Build 0)  -->
<svg xmlns="http://www.w3.org/2000/svg" xmlns:xlink="http://www.w3.org/1999/xlink" version="1.1" id="Layer_1" x="0px" y="0px" viewBox="0 0 512 512" style="enable-background:new 0 0 512 512;" xml:space="preserve">
<circle style="fill:#005C83;" cx="256" cy="256" r="256"/>
<path style="fill:#00263F;" d="M512,256c0-28.271-4.594-55.465-13.057-80.893l-37.927-37.926l-7.392,14.097l-44.499-44.499  l-68.779,153.904L186.444,106.779l-8.707,30.151l-30.151-30.151L54.872,381.736l115.613,115.613  C197.229,506.825,226.008,512,256,512C397.385,512,512,397.385,512,256z"/>
<g>
	<rect x="101.73" y="106.78" style="fill:#C0C0C0;" width="45.853" height="33.418"/>
	<rect x="156.13" y="106.78" style="fill:#C0C0C0;" width="30.31" height="33.418"/>
</g>
<rect x="375.68" y="106.78" style="fill:#758F9B;" width="33.443" height="33.418"/>
<path style="fill:#FFFFFF;" d="M433.971,391.221H78.029C59.788,391.221,45,376.433,45,358.192V156.129  c0-18.242,14.788-33.029,33.029-33.029H433.97c18.242,0,33.029,14.788,33.029,33.029v202.063  C467,376.433,452.212,391.221,433.971,391.221z"/>
<path style="fill:#E0E0E0;" d="M433.97,123.099H255.667v268.122H433.97c18.242,0,33.03-14.788,33.03-33.03V156.129  C467,137.887,452.212,123.099,433.97,123.099z"/>
<rect x="45" y="176.34" style="fill:#FF6838;" width="422" height="161.65"/>
<rect x="255.67" y="176.34" style="fill:#AE4E32;" width="211.33" height="161.65"/>
<circle style="fill:#E0E0E0;" cx="306.9" cy="260.66" r="92.48"/>
<path style="fill:#C0C0C0;" d="M306.904,168.175c-18.952,0-36.57,5.705-51.238,15.485v153.995  c14.668,9.78,32.285,15.485,51.238,15.485c51.077,0,92.482-41.406,92.482-92.482S357.981,168.175,306.904,168.175z"/>
<circle style="fill:#4D4D4D;" cx="306.9" cy="260.66" r="78.11"/>
<path style="fill:#333333;" d="M306.904,182.552c-19.612,0-37.521,7.245-51.238,19.183V319.58  c13.717,11.938,31.625,19.183,51.238,19.183c43.136,0,78.105-34.969,78.105-78.105S350.041,182.552,306.904,182.552z"/>
<circle style="fill:#758F9B;" cx="351.98" cy="243.56" r="20.983"/>
<circle style="fill:#F1333F;" cx="103.68" cy="176.34" r="20.983"/>
<circle style="fill:#758F9B;" cx="320.89" cy="220.25" r="8.549"/>
<g>
</g>
<g>
</g>
<g>
</g>
<g>
</g>
<g>
</g>
<g>
</g>
<g>
</g>
<g>
</g>
<g>
</g>
<g>
</g>
<g>
</g>
<g>
</g>
<g>
</g>
<g>
</g>
<g>
</g>
</svg>
