<?xml version="1.0" encoding="iso-8859-1"?>
<!-- Generator: Adobe Illustrator 19.0.0, SVG Export Plug-In . SVG Version: 6.00 Build 0)  -->
<svg xmlns="http://www.w3.org/2000/svg" xmlns:xlink="http://www.w3.org/1999/xlink" version="1.1" id="Layer_1" x="0px" y="0px" viewBox="0 0 512 512" style="enable-background:new 0 0 512 512;" xml:space="preserve">
<circle style="fill:#00BAFF;" cx="256" cy="256" r="256"/>
<path style="fill:#008CC3;" d="M512,256c0-41.285-9.787-80.279-27.145-114.812L449,106.056L63,399.944l90.738,90.794  C185.062,504.404,219.641,512,256,512C397.385,512,512,397.385,512,256z"/>
<rect x="74" y="117.06" style="fill:#FFFFFF;" width="364" height="271.89"/>
<rect x="255.67" y="117.06" style="fill:#E0E0E0;" width="182.33" height="271.89"/>
<path style="fill:#FFB344;" d="M449,399.944H63V106.056h386V399.944z M85,377.944h342V128.056H85V377.944z"/>
<polygon style="fill:#FF9451;" points="449,106.056 255.667,106.056 255.667,128.056 427,128.056 427,377.944 255.667,377.944   255.667,399.944 449,399.944 "/>
<g>
	<rect x="141.26" y="177.07" style="fill:#FFCF35;" width="16" height="20"/>
	<path style="fill:#FFCF35;" d="M339.381,334.927H307.76v-20h31.621V334.927z M286.021,334.927H254.4v-20h31.621V334.927z    M232.661,334.927h-8.422c-9.808,0-19.292-2.865-27.427-8.283l11.088-16.645c4.84,3.224,10.49,4.928,16.339,4.928h8.422V334.927z    M179.305,306.246c-3.044-6.556-4.588-13.567-4.588-20.84c0-6.097,1.098-12.056,3.264-17.711l18.677,7.154   c-1.288,3.362-1.941,6.914-1.94,10.556c0,4.343,0.917,8.52,2.728,12.417L179.305,306.246z M206.252,261.995l-12.199-15.848   c8.72-6.713,19.158-10.261,30.186-10.261h5.711v20h-5.711C217.664,255.886,211.444,257.998,206.252,261.995z M283.31,255.886   h-31.621v-20h31.621V255.886z M308.989,251.881l-8.8-17.96c6.417-3.144,10.581-9.52,10.868-16.639l19.983,0.806   C330.458,232.554,322.007,245.503,308.989,251.881z M306.54,204.012c-3.703-4.41-9.124-6.939-14.873-6.939h-5.943v-20h5.943   c11.673,0,22.677,5.131,30.189,14.078L306.54,204.012z M263.984,197.073h-31.621v-20h31.621V197.073z M210.624,197.073h-31.621v-20   h31.621V197.073z"/>
	<polyline style="fill:#FFCF35;" points="251.688,255.886 255.667,255.886 255.667,235.886 251.688,235.886  "/>
</g>
<rect x="255.67" y="314.93" style="fill:#FFB344;" width="30.354" height="20"/>
<polyline style="fill:#FFCF35;" points="254.4,334.927 255.667,334.927 255.667,314.927 254.4,314.927 "/>
<g>
	<path style="fill:#FFB344;" d="M331.041,218.088l-19.983-0.806c-0.287,7.119-4.452,13.495-10.868,16.639l8.8,17.96   C322.007,245.503,330.458,232.554,331.041,218.088z"/>
	<rect x="307.76" y="314.93" style="fill:#FFB344;" width="31.621" height="20"/>
	<path style="fill:#FFB344;" d="M306.54,204.012l15.316-12.861c-7.513-8.947-18.516-14.078-30.189-14.078h-5.943v20h5.943   C297.416,197.073,302.836,199.602,306.54,204.012z"/>
	<rect x="255.67" y="177.07" style="fill:#FFB344;" width="8.317" height="20"/>
	<rect x="255.67" y="235.89" style="fill:#FFB344;" width="27.643" height="20"/>
	<rect x="361.26" y="314.93" style="fill:#FFB344;" width="16" height="20"/>
</g>
<circle style="fill:#F1333F;" cx="391.67" cy="324.93" r="16.5"/>
<g>
	
		<rect x="142.5" y="160.337" transform="matrix(-0.7071 -0.7071 0.7071 -0.7071 122.4828 423.7372)" style="fill:#FF3F84;" width="13" height="52.329"/>
	
		<rect x="122.843" y="180.002" transform="matrix(-0.7071 -0.7071 0.7071 -0.7071 122.4948 423.7422)" style="fill:#FF3F84;" width="52.329" height="13"/>
</g>
<g>
</g>
<g>
</g>
<g>
</g>
<g>
</g>
<g>
</g>
<g>
</g>
<g>
</g>
<g>
</g>
<g>
</g>
<g>
</g>
<g>
</g>
<g>
</g>
<g>
</g>
<g>
</g>
<g>
</g>
</svg>
