<?xml version="1.0" encoding="iso-8859-1"?>
<!-- Generator: Adobe Illustrator 19.0.0, SVG Export Plug-In . SVG Version: 6.00 Build 0)  -->
<svg xmlns="http://www.w3.org/2000/svg" xmlns:xlink="http://www.w3.org/1999/xlink" version="1.1" id="Layer_1" x="0px" y="0px" viewBox="0 0 512 512" style="enable-background:new 0 0 512 512;" xml:space="preserve">
<circle style="fill:#005C83;" cx="256" cy="256" r="256"/>
<path style="fill:#00263F;" d="M512,256c0-34.496-6.839-67.389-19.209-97.422l-76.444-76.444L96.227,440l44.75,44.75  C175.562,502.175,214.631,512,256,512C397.385,512,512,397.385,512,256z"/>
<g>
	<path style="fill:#FFDC00;" d="M402.723,440H119.25V77.386h283.472c12.119,0,21.944,9.825,21.944,21.944v318.726   C424.667,430.175,414.842,440,402.723,440z"/>
	<rect x="119.25" y="77.39" style="fill:#FFDC00;" width="137.08" height="362.61"/>
</g>
<path style="fill:#FFC000;" d="M402.723,77.386h-146.39V440h146.389c12.119,0,21.944-9.825,21.944-21.944V99.33  C424.667,87.21,414.842,77.386,402.723,77.386z"/>
<g>
	<rect x="96.23" y="77.39" style="fill:#FF6838;" width="61.875" height="362.61"/>
	<rect x="198.39" y="179.19" style="fill:#FF6838;" width="184.19" height="79.5"/>
</g>
<rect x="256.33" y="179.19" style="fill:#AE4E32;" width="126.24" height="79.5"/>
<polygon style="fill:#F7674F;" points="265.851,77.386 275.635,91.333 289.751,77.386 "/>
<polygon style="fill:#FF9451;" points="218.968,125.667 253.901,77.386 201.363,77.386 "/>
<g>
	<polygon style="fill:#F7674F;" points="308.27,77.386 319.07,144.304 329.87,77.386  "/>
	<polygon style="fill:#F7674F;" points="336.947,77.386 358.302,119 358.302,77.386  "/>
</g>
<g>
</g>
<g>
</g>
<g>
</g>
<g>
</g>
<g>
</g>
<g>
</g>
<g>
</g>
<g>
</g>
<g>
</g>
<g>
</g>
<g>
</g>
<g>
</g>
<g>
</g>
<g>
</g>
<g>
</g>
</svg>
