<?xml version="1.0" encoding="iso-8859-1"?>
<!-- Generator: Adobe Illustrator 19.0.0, SVG Export Plug-In . SVG Version: 6.00 Build 0)  -->
<svg xmlns="http://www.w3.org/2000/svg" xmlns:xlink="http://www.w3.org/1999/xlink" version="1.1" id="Layer_1" x="0px" y="0px" viewBox="0 0 512 512" style="enable-background:new 0 0 512 512;" xml:space="preserve">
<circle style="fill:#2B9153;" cx="256" cy="256" r="256"/>
<path style="fill:#005D5E;" d="M512,256c0-4.66-0.132-9.288-0.378-13.887L376.756,107.248L50,205.5l-7.667,96.167l21.965,94.653  l97.979,97.979C191.303,505.723,222.918,512,256,512C397.385,512,512,397.385,512,256z"/>
<path style="fill:#E0E0E0;" d="M371.428,429.266H140.572c-57.861,0-104.934-47.073-104.934-104.934v-89.078  c0-28.03,22.804-50.835,50.834-50.835h21.686c4.249,0,7.695,3.445,7.695,7.695s-3.446,7.695-7.695,7.695H86.472  c-19.544,0-35.444,15.9-35.444,35.444v89.078c0,49.375,40.169,89.544,89.544,89.544h230.855c49.375,0,89.544-40.169,89.544-89.544  v-89.078c0-19.544-15.9-35.444-35.444-35.444h-22.154c-4.249,0-7.695-3.445-7.695-7.695s3.446-7.695,7.695-7.695h22.154  c28.03,0,50.834,22.804,50.834,50.835v89.078C476.362,382.193,429.289,429.266,371.428,429.266z"/>
<path style="fill:#C0C0C0;" d="M425.528,184.419h-22.154c-4.25,0-7.695,3.445-7.695,7.695s3.446,7.695,7.695,7.695h22.154  c19.544,0,35.444,15.9,35.444,35.444v89.078c0,49.375-40.169,89.544-89.544,89.544H256.333v15.39h115.094  c57.861,0,104.934-47.073,104.934-104.934v-89.078C476.362,207.223,453.558,184.419,425.528,184.419z"/>
<path style="fill:#FFFFFF;" d="M287.48,360.251h-62.96c-72.249,0-130.818-58.569-130.818-130.818v-22.807  c0-49.03,25.714-94.467,67.746-119.711l47.62-28.599c28.884-17.347,64.982-17.347,93.866,0l47.62,28.599  c42.032,25.243,67.746,70.681,67.746,119.711v22.807C418.298,301.681,359.729,360.251,287.48,360.251z"/>
<path style="fill:#E0E0E0;" d="M350.553,86.915l-47.62-28.599c-14.343-8.614-30.465-12.946-46.6-13.005v314.94h31.147  c72.249,0,130.818-58.569,130.818-130.818v-22.807C418.298,157.596,392.585,112.158,350.553,86.915z"/>
<path style="fill:#FFCF35;" d="M304.964,104.877c-1.211,0-2.435-0.348-3.514-1.076c-41.005-27.642-53.716-27.668-90.66-0.17  c-2.79,2.077-6.735,1.497-8.809-1.292c-2.077-2.789-1.499-6.734,1.291-8.81c41.222-30.683,59.905-30.713,105.217-0.17  c2.883,1.944,3.644,5.857,1.701,8.74C308.974,103.904,306.987,104.877,304.964,104.877z"/>
<path style="fill:#FFB344;" d="M308.489,93.36c-21.69-14.62-37.276-22.216-52.156-22.817V83.1c12.4,0.612,25.53,7.498,45.116,20.701  c1.079,0.728,2.304,1.076,3.514,1.076c2.023,0,4.01-0.973,5.226-2.777C312.133,99.217,311.372,95.303,308.489,93.36z"/>
<path style="fill:#E0E0E0;" d="M256,190.633c-27,0-54-3.59-80.25-10.771c-5.963-1.631-9.473-7.787-7.843-13.75  c1.631-5.963,7.788-9.475,13.751-7.843c48.633,13.305,100.051,13.305,148.684,0c5.963-1.63,12.119,1.879,13.751,7.843  c1.63,5.962-1.88,12.118-7.843,13.75C310,187.043,283,190.633,256,190.633z"/>
<path style="fill:#C0C0C0;" d="M344.093,166.112c-1.631-5.964-7.788-9.473-13.751-7.843c-24.208,6.623-49.107,9.947-74.009,9.976  v22.385c26.889-0.029,53.775-3.617,79.917-10.769C342.213,178.23,345.723,172.074,344.093,166.112z"/>
<path style="fill:#E0E0E0;" d="M256,247.437c-40.299,0-80.596-5.359-119.775-16.077c-5.963-1.631-9.473-7.787-7.843-13.75  c1.631-5.964,7.788-9.475,13.751-7.843c74.492,20.379,153.242,20.379,227.735,0c5.963-1.629,12.119,1.879,13.751,7.843  c1.63,5.962-1.88,12.118-7.843,13.75C336.596,242.078,296.299,247.437,256,247.437z"/>
<path style="fill:#C0C0C0;" d="M383.618,217.61c-1.631-5.964-7.788-9.472-13.751-7.843c-37.138,10.16-75.335,15.252-113.534,15.281  v22.386c40.188-0.03,80.371-5.386,119.442-16.074C381.738,229.729,385.248,223.573,383.618,217.61z"/>
<path style="fill:#E0E0E0;" d="M256,304.801c-40.299,0-80.596-5.359-119.775-16.077c-5.963-1.631-9.473-7.787-7.843-13.75  c1.631-5.963,7.788-9.474,13.751-7.843c74.492,20.379,153.242,20.379,227.735,0c5.963-1.629,12.119,1.879,13.751,7.843  c1.63,5.962-1.88,12.118-7.843,13.75C336.596,299.442,296.299,304.801,256,304.801z"/>
<path style="fill:#C0C0C0;" d="M383.618,274.974c-1.631-5.964-7.788-9.472-13.751-7.843c-37.138,10.16-75.335,15.252-113.534,15.281  v22.386c40.188-0.03,80.371-5.386,119.442-16.074C381.738,287.093,385.248,280.937,383.618,274.974z"/>
<g>
</g>
<g>
</g>
<g>
</g>
<g>
</g>
<g>
</g>
<g>
</g>
<g>
</g>
<g>
</g>
<g>
</g>
<g>
</g>
<g>
</g>
<g>
</g>
<g>
</g>
<g>
</g>
<g>
</g>
</svg>
