<?xml version="1.0" encoding="iso-8859-1"?>
<!-- Generator: Adobe Illustrator 19.0.0, SVG Export Plug-In . SVG Version: 6.00 Build 0)  -->
<svg xmlns="http://www.w3.org/2000/svg" xmlns:xlink="http://www.w3.org/1999/xlink" version="1.1" id="Layer_1" x="0px" y="0px" viewBox="0 0 512 512" style="enable-background:new 0 0 512 512;" xml:space="preserve">
<circle style="fill:#005C83;" cx="256" cy="256" r="256"/>
<path style="fill:#00263F;" d="M511.657,269.324l-12.991-12.991l-421.004,3.132l-73.38-18.637l26.168,26.168L4.282,271.17  l240.573,240.573C248.552,511.902,252.264,512,256,512C392.916,512,504.725,404.516,511.657,269.324z"/>
<path style="fill:#FFCF35;" d="M389,266.5H63.667c-5.799,0-10.5-4.701-10.5-10.5s4.701-10.5,10.5-10.5H389  c5.799,0,10.5,4.701,10.5,10.5C399.5,261.799,394.799,266.5,389,266.5z"/>
<path style="fill:#FFB344;" d="M52.945,256.016c0.368,5.917,5.007,10.484,10.722,10.484H389c5.714,0,10.353-4.568,10.253-10.484  H52.945z"/>
<polygon style="fill:#FFFFFF;" points="359,256 407.667,232 498.667,256.333 436.333,279.333 397,275.333 "/>
<polygon style="fill:#E0E0E0;" points="359,256 397,275.333 436.333,279.333 498.667,256.333 "/>
<polygon style="fill:#F1333F;" points="108.333,256 25.667,256 4.282,240.829 86.949,240.829 "/>
<polygon style="fill:#AE283F;" points="86.949,271.171 4.282,271.171 25.667,256 108.333,256 "/>
<g>
</g>
<g>
</g>
<g>
</g>
<g>
</g>
<g>
</g>
<g>
</g>
<g>
</g>
<g>
</g>
<g>
</g>
<g>
</g>
<g>
</g>
<g>
</g>
<g>
</g>
<g>
</g>
<g>
</g>
</svg>
