<?xml version="1.0" encoding="iso-8859-1"?>
<!-- Generator: Adobe Illustrator 19.0.0, SVG Export Plug-In . SVG Version: 6.00 Build 0)  -->
<svg xmlns="http://www.w3.org/2000/svg" xmlns:xlink="http://www.w3.org/1999/xlink" version="1.1" id="Layer_1" x="0px" y="0px" viewBox="0 0 512 512" style="enable-background:new 0 0 512 512;" xml:space="preserve">
<circle style="fill:#FF6838;" cx="256" cy="256" r="256"/>
<path style="fill:#AE4E32;" d="M512,256c0-36.863-7.806-71.899-21.832-103.566L399.964,62.23l-24.185,39.461L336.317,62.23  l-4.434,37.878L294.005,62.23L284.1,90.985L255.345,62.23l34.693,162.941L127.098,62.23l-15.062,387.54l40.398,40.398  C184.101,504.194,219.137,512,256,512C397.385,512,512,397.385,512,256z"/>
<polygon style="fill:#FFECB3;" points="359.697,62.23 345.796,115.308 336.318,62.23 301.368,62.23 298.535,89.86 294.005,62.23   268.891,62.23 262.544,94.222 255.346,62.23 150.827,62.23 138.575,93.495 127.098,62.23 112.036,62.23 112.036,449.77   286.089,449.77 292.718,427.23 298.353,449.77 308.37,449.77 323.256,400.327 333.467,449.77 339.536,449.77 346.523,400.327   356.411,449.77 399.964,449.77 399.964,62.23 "/>
<g>
	<polygon style="fill:#FFD863;" points="359.697,62.23 345.796,115.308 336.317,62.23 301.368,62.23 298.535,89.86 294.005,62.23    268.891,62.23 262.544,94.222 255.667,63.658 255.667,449.77 286.089,449.77 292.718,427.23 298.353,449.77 308.37,449.77    323.256,400.327 333.467,449.77 339.536,449.77 346.523,400.327 356.411,449.77 399.964,449.77 399.964,62.23  "/>
	<rect x="132" y="142" style="fill:#FFD863;" width="248" height="7.88"/>
	<rect x="132" y="170" style="fill:#FFD863;" width="248" height="7.88"/>
	<rect x="132" y="198" style="fill:#FFD863;" width="248" height="7.88"/>
	<rect x="132" y="226" style="fill:#FFD863;" width="248" height="7.88"/>
	<rect x="132" y="254" style="fill:#FFD863;" width="248" height="7.88"/>
	<rect x="132" y="281.99" style="fill:#FFD863;" width="248" height="7.88"/>
	<rect x="132" y="309.99" style="fill:#FFD863;" width="248" height="7.88"/>
	<rect x="132" y="337.99" style="fill:#FFD863;" width="248" height="7.88"/>
</g>
<g>
	<rect x="255.67" y="142" style="fill:#FFCF35;" width="124.33" height="7.88"/>
	<rect x="255.67" y="170" style="fill:#FFCF35;" width="124.33" height="7.88"/>
	<rect x="255.67" y="198" style="fill:#FFCF35;" width="124.33" height="7.88"/>
	<rect x="255.67" y="226" style="fill:#FFCF35;" width="124.33" height="7.88"/>
	<rect x="255.67" y="254" style="fill:#FFCF35;" width="124.33" height="7.88"/>
	<rect x="255.67" y="281.99" style="fill:#FFCF35;" width="124.33" height="7.88"/>
	<rect x="255.67" y="309.99" style="fill:#FFCF35;" width="124.33" height="7.88"/>
	<rect x="255.67" y="337.99" style="fill:#FFCF35;" width="124.33" height="7.88"/>
</g>
<g>
</g>
<g>
</g>
<g>
</g>
<g>
</g>
<g>
</g>
<g>
</g>
<g>
</g>
<g>
</g>
<g>
</g>
<g>
</g>
<g>
</g>
<g>
</g>
<g>
</g>
<g>
</g>
<g>
</g>
</svg>
