<?xml version="1.0" encoding="iso-8859-1"?>
<!-- Generator: Adobe Illustrator 19.0.0, SVG Export Plug-In . SVG Version: 6.00 Build 0)  -->
<svg xmlns="http://www.w3.org/2000/svg" xmlns:xlink="http://www.w3.org/1999/xlink" version="1.1" id="Layer_1" x="0px" y="0px" viewBox="0 0 512 512" style="enable-background:new 0 0 512 512;" xml:space="preserve">
<circle style="fill:#005C83;" cx="256" cy="256" r="256"/>
<path style="fill:#00263F;" d="M512,256c0-33.851-6.585-66.16-18.52-95.737l-77.076-77.076l-70.842,24.441l5.272,37.776L180.333,225  L41.134,338.199l169.852,169.852C225.601,510.644,240.642,512,256,512C397.385,512,512,397.385,512,256z"/>
<path style="fill:#FF9451;" d="M416.404,83.187L416.404,83.187c-14.601-14.601-38.273-14.601-52.873,0l-99.761,99.761l52.873,52.873  l99.761-99.761C431.004,121.46,431.004,97.788,416.404,83.187z M381.986,117.605c-5.51-5.51-5.51-14.443,0-19.952  c5.51-5.51,14.443-5.51,19.952,0c5.51,5.51,5.51,14.443,0,19.952C396.429,123.114,387.496,123.114,381.986,117.605z"/>
<path style="fill:#F7674F;" d="M416.404,83.187L416.404,83.187c-0.155-0.155-0.317-0.299-0.474-0.451l-14.477,14.477  c0.161,0.147,0.33,0.283,0.486,0.439c5.51,5.51,5.51,14.443,0,19.952s-14.443,5.51-19.952,0c-0.156-0.156-0.292-0.324-0.439-0.486  l-91.803,91.803l26.899,26.899l99.761-99.761C431.004,121.46,431.004,97.788,416.404,83.187z"/>
<path style="fill:#FF6838;" d="M324.499,329.971L169.62,175.092l39.967-39.967c10.572-10.572,27.712-10.572,38.283,0L364.465,251.72  c10.572,10.572,10.572,27.712,0,38.283L324.499,329.971z"/>
<path style="fill:#AE4E32;" d="M305.706,192.961l-59.108,59.108l77.902,77.902l39.967-39.967c10.572-10.572,10.572-27.712,0-38.283  L305.706,192.961z"/>
<path style="fill:#FFCF35;" d="M197.433,471.805L326.099,328.37L171.22,173.492L27.786,302.158  c-6.499,5.83-6.773,15.92-0.599,22.094l21.735,21.735l88.9-66.52L64.925,361.99l42.43,42.43l66.879-53.624l-55.833,64.67  l2.474,2.474l77.551-63.902l-63.124,78.329l18.866,18.866l99.874-95.45L166.555,463.62l8.783,8.783  C181.513,478.578,191.603,478.304,197.433,471.805z"/>
<path style="fill:#FFB344;" d="M100.801,397.866l6.554,6.554l66.879-53.624l-55.833,64.67l2.474,2.474l77.551-63.902l-63.124,78.329  l18.866,18.866l99.874-95.45L166.555,463.62l8.783,8.783c6.173,6.173,16.264,5.9,22.094-0.599l128.666-143.435l-77.902-77.902  L100.801,397.866z"/>
<g>
</g>
<g>
</g>
<g>
</g>
<g>
</g>
<g>
</g>
<g>
</g>
<g>
</g>
<g>
</g>
<g>
</g>
<g>
</g>
<g>
</g>
<g>
</g>
<g>
</g>
<g>
</g>
<g>
</g>
</svg>
