<?xml version="1.0" encoding="iso-8859-1"?>
<!-- Generator: Adobe Illustrator 19.0.0, SVG Export Plug-In . SVG Version: 6.00 Build 0)  -->
<svg version="1.1" id="Layer_1" xmlns="http://www.w3.org/2000/svg" xmlns:xlink="http://www.w3.org/1999/xlink" x="0px" y="0px"
	 viewBox="0 0 512 512" style="enable-background:new 0 0 512 512;" xml:space="preserve">
<circle style="fill:#273B7A;" cx="256" cy="256" r="256"/>
<path style="fill:#121149;" d="M267.669,511.724c117.382-5.268,214.175-89.578,238.445-200.987L288.882,94.118l-37.766-9.647
	l-32.754,26.721v62.635l86.273,86.273l-38.141,1.221l-7.333-7.344l-178.11,6.272l115.936,113.438l-34.001,33.354L267.669,511.724z"
	/>
<path style="fill:#FF6262;" d="M170.667,262.034H85.333c-3.332,0-6.034-2.701-6.034-6.034s2.701-6.034,6.034-6.034h85.333
	c3.332,0,6.034,2.701,6.034,6.034S173.999,262.034,170.667,262.034z"/>
<path style="fill:#FF314F;" d="M426.667,262.034h-85.333c-3.332,0-6.034-2.701-6.034-6.034s2.701-6.034,6.034-6.034h85.333
	c3.332,0,6.034,2.701,6.034,6.034S429.999,262.034,426.667,262.034z"/>
<path style="fill:#FF6262;" d="M299.96,199.111h-12.067v-75.852c0-17.586-14.307-31.892-31.892-31.892s-31.892,14.307-31.892,31.892
	v75.852H212.04v-75.852c0-24.24,19.72-43.96,43.96-43.96s43.96,19.72,43.96,43.96V199.111z"/>
<path style="fill:#FF314F;" d="M256,79.3v12.067c17.586,0,31.892,14.307,31.892,31.892v75.852h12.067v-75.852
	C299.96,99.021,280.24,79.3,256,79.3z"/>
<path style="fill:#FFAD9E;" d="M306.424,186.29v-50.424H205.576v50.424c0,27.848-22.576,50.424-50.424,50.424l0,0v152.673
	c0,13.152,10.661,23.812,23.812,23.812h154.074c13.152,0,23.812-10.661,23.812-23.812V236.715l0,0
	C329,236.715,306.424,214.138,306.424,186.29z"/>
<g>
	<path style="fill:#FF6262;" d="M306.424,186.29v-50.424H256V413.2h77.036c13.15,0,23.812-10.661,23.812-23.812V236.715
		C329,236.715,306.424,214.138,306.424,186.29z"/>
	<path style="fill:#FF6262;" d="M242.424,357.279h27.152c16.067,0,29.091-13.024,29.091-29.091v-56.242h-85.333v56.242
		C213.333,344.255,226.357,357.279,242.424,357.279z"/>
</g>
<path style="fill:#EA264B;" d="M256,271.946v85.333h13.576c16.067,0,29.091-13.024,29.091-29.091v-56.242H256z"/>
<g>
</g>
<g>
</g>
<g>
</g>
<g>
</g>
<g>
</g>
<g>
</g>
<g>
</g>
<g>
</g>
<g>
</g>
<g>
</g>
<g>
</g>
<g>
</g>
<g>
</g>
<g>
</g>
<g>
</g>
</svg>
