<?xml version="1.0" encoding="iso-8859-1"?>
<!-- Generator: Adobe Illustrator 19.0.0, SVG Export Plug-In . SVG Version: 6.00 Build 0)  -->
<svg version="1.1" id="Layer_1" xmlns="http://www.w3.org/2000/svg" xmlns:xlink="http://www.w3.org/1999/xlink" x="0px" y="0px"
	 viewBox="0 0 512 512" style="enable-background:new 0 0 512 512;" xml:space="preserve">
<circle style="fill:#273B7A;" cx="256" cy="256" r="256"/>
<path style="fill:#121149;" d="M509.099,290.532l-72.951-72.951l-184.918,4.917l-14.115-14.115l-99.542,135.163l164.25,164.25
	C409.931,488.002,494.296,400.303,509.099,290.532z"/>
<g>
	<rect x="233.779" y="211.713" style="fill:#FFFFFF;" width="170.736" height="16.575"/>
	<path style="fill:#FFFFFF;" d="M249.809,231.11v-23.759l4.32-23.759H131.017l23.759,23.759v23.759l-23.759,95.034
		c0,14.579,11.819,26.398,26.398,26.398h89.753c14.579,0,26.398-11.819,26.398-26.398L249.809,231.11z"/>
</g>
<path style="fill:#D0D1D3;" d="M247.17,352.542h-89.755c-14.579,0-26.398-11.819-26.398-26.398l23.759-95.034h95.034l23.759,95.034
	C273.568,340.723,261.749,352.542,247.17,352.542z"/>
<path style="fill:#A6A8AA;" d="M249.809,231.11h-46.963v121.434h44.323c14.579,0,26.398-11.819,26.398-26.398L249.809,231.11z"/>
<rect x="154.772" y="207.351" style="fill:#D35933;" width="95.039" height="23.759"/>
<rect x="202.852" y="207.351" style="fill:#B54324;" width="46.959" height="23.759"/>
<path style="fill:#D35933;" d="M425.305,206.738h-60.363c-5.989,0-10.843,4.855-10.843,10.843v5.663
	c0,5.989,4.854,10.843,10.843,10.843h60.363c5.989,0,10.843-4.855,10.843-10.843v-5.663
	C436.148,211.592,431.294,206.738,425.305,206.738z"/>
<polygon style="fill:#FFFFFF;" points="131.017,183.593 254.13,183.593 249.809,207.351 154.776,207.351 "/>
<polygon style="fill:#D0D1D3;" points="254.13,183.593 202.847,183.593 202.847,207.351 249.809,207.351 "/>
<g>
</g>
<g>
</g>
<g>
</g>
<g>
</g>
<g>
</g>
<g>
</g>
<g>
</g>
<g>
</g>
<g>
</g>
<g>
</g>
<g>
</g>
<g>
</g>
<g>
</g>
<g>
</g>
<g>
</g>
</svg>
