<?xml version="1.0" encoding="iso-8859-1"?>
<!-- Generator: Adobe Illustrator 19.0.0, SVG Export Plug-In . SVG Version: 6.00 Build 0)  -->
<svg version="1.1" id="Layer_1" xmlns="http://www.w3.org/2000/svg" xmlns:xlink="http://www.w3.org/1999/xlink" x="0px" y="0px"
	 viewBox="0 0 512 512" style="enable-background:new 0 0 512 512;" xml:space="preserve">
<circle style="fill:#273B7A;" cx="256" cy="256" r="256"/>
<path style="fill:#121149;" d="M295.614,508.947c111.757-17.361,199.597-107.006,214.231-219.641L389.691,169.151l-19.668,23.716
	l-74.231-74.231l-98.502,111.981l-13.621-13.621L129.47,238.32l114.341,114.342l-58.923,45.561L295.614,508.947z"/>
<path style="fill:#FFFFFF;" d="M341.333,142.222c-8.592,0-16.732,1.915-24.035,5.325c-9.347-24.767-33.259-42.389-61.299-42.389
	c-28.039,0-51.952,17.622-61.299,42.389c-7.302-3.41-15.443-5.325-24.035-5.325c-31.418,0-56.889,25.471-56.889,56.889
	S139.248,256,170.667,256c4.915,0,9.673-0.653,14.222-1.826v144.048h142.222V254.174c4.549,1.172,9.307,1.826,14.222,1.826
	c31.418,0,56.889-25.471,56.889-56.889S372.752,142.222,341.333,142.222z"/>
<g>
	<path style="fill:#D0D1D3;" d="M341.333,142.222c-8.592,0-16.732,1.915-24.035,5.325c-9.347-24.767-33.259-42.389-61.299-42.389
		c-0.193,0-0.383,0.01-0.574,0.012v293.052h71.685V254.174c4.549,1.172,9.307,1.826,14.222,1.826
		c31.418,0,56.889-25.471,56.889-56.889S372.752,142.222,341.333,142.222z"/>
	<rect x="184.889" y="369.778" style="fill:#D0D1D3;" width="142.222" height="28.444"/>
</g>
<rect x="255.431" y="369.778" style="fill:#A6A8AA;" width="71.685" height="28.444"/>
<g>
</g>
<g>
</g>
<g>
</g>
<g>
</g>
<g>
</g>
<g>
</g>
<g>
</g>
<g>
</g>
<g>
</g>
<g>
</g>
<g>
</g>
<g>
</g>
<g>
</g>
<g>
</g>
<g>
</g>
</svg>
