<?xml version="1.0" encoding="iso-8859-1"?>
<!-- Generator: Adobe Illustrator 19.0.0, SVG Export Plug-In . SVG Version: 6.00 Build 0)  -->
<svg version="1.1" id="Layer_1" xmlns="http://www.w3.org/2000/svg" xmlns:xlink="http://www.w3.org/1999/xlink" x="0px" y="0px"
	 viewBox="0 0 512 512" style="enable-background:new 0 0 512 512;" xml:space="preserve">
<circle style="fill:#273B7A;" cx="256" cy="256" r="256"/>
<path style="fill:#121149;" d="M509.268,293.428L390.64,174.801l-15.045,17.201l-60.697-58.239L158.313,263.47l95.327,95.327
	l-107.606,44.568l108.618,108.618c0.45,0.002,0.898,0.017,1.348,0.017C384.669,512,491.153,417.068,509.268,293.428z"/>
<path style="fill:#D35933;" d="M309.644,165.716v21.182h55.137c6.239,0,11.295,4.837,11.295,10.805v95.716
	c0,6.115,4.958,11.073,11.073,11.073l0,0c6.115,0,11.073-4.958,11.073-11.073v-99.888c0-15.362-13.019-27.813-29.079-27.813h-59.499
	V165.716z"/>
<path style="fill:#FFFFFF;" d="M358.436,306.336c0-43.015-21.161-81.084-53.638-104.376H155.348
	c-32.477,23.292-53.638,61.361-53.638,104.376c0,38.752,17.172,73.494,44.322,97.028h168.083
	C341.264,379.828,358.436,345.088,358.436,306.336z"/>
<path style="fill:#D0D1D3;" d="M304.799,201.959h-76.381v201.406h85.697c27.15-23.536,44.322-58.277,44.322-97.028
	C358.436,263.321,337.275,225.252,304.799,201.959z"/>
<path style="fill:#D35933;" d="M315.649,334.189c-36.031-7.506-66.058,6.006-100.588,13.512
	c-30.027,6.006-57.051-10.509-87.076-15.014c-8.14-1.627-16.275-2.796-23.936-1.867c5.554,28.756,20.702,54.093,41.986,72.542
	h168.083c17.244-14.948,30.453-34.421,37.804-56.567C340.256,341.432,328.358,336.73,315.649,334.189z"/>
<path style="fill:#B54324;" d="M315.649,334.189c-31.313-6.523-58.092,2.826-87.231,10.312v58.861h85.697
	c17.244-14.95,30.453-34.421,37.804-56.567C340.256,341.432,328.358,336.73,315.649,334.189z"/>
<polygon style="fill:#FFFFFF;" points="314.899,208.079 145.249,208.079 145.249,181.555 126.733,133.763 314.899,133.763 "/>
<rect x="228.417" y="133.758" style="fill:#D0D1D3;" width="86.488" height="74.318"/>
<rect x="145.256" y="181.562" style="fill:#EAA22F;" width="169.65" height="28.276"/>
<rect x="228.417" y="181.562" style="fill:#E09112;" width="86.488" height="28.276"/>
<g>
</g>
<g>
</g>
<g>
</g>
<g>
</g>
<g>
</g>
<g>
</g>
<g>
</g>
<g>
</g>
<g>
</g>
<g>
</g>
<g>
</g>
<g>
</g>
<g>
</g>
<g>
</g>
<g>
</g>
</svg>
