<?xml version="1.0" encoding="iso-8859-1"?>
<!-- Generator: Adobe Illustrator 19.0.0, SVG Export Plug-In . SVG Version: 6.00 Build 0)  -->
<svg version="1.1" id="Layer_1" xmlns="http://www.w3.org/2000/svg" xmlns:xlink="http://www.w3.org/1999/xlink" x="0px" y="0px"
	 viewBox="0 0 512 512" style="enable-background:new 0 0 512 512;" xml:space="preserve">
<circle style="fill:#273B7A;" cx="256" cy="256" r="256"/>
<path style="fill:#121149;" d="M338.194,498.519c88.297-29.917,154.953-106.703,170.393-200.735L342.33,130.522l-77.472,6.768
	l-6.561-6.561l-0.055,6.918l-35.364,1.908l-14.572-14.572L169.02,150.14l88.411,88.411L256,416.323L338.194,498.519z"/>
<path style="fill:#FFFFFF;" d="M256,416.323c-3.808,0-6.896-3.087-6.896-6.896v-45.253c0-2.515,1.369-4.83,3.572-6.042l5.237-2.881
	l-22.026-10.1c-2.451-1.122-4.022-3.572-4.022-6.268c0-2.696,1.57-5.144,4.022-6.268l20.802-9.54l-20.801-9.53
	c-2.451-1.122-4.024-3.572-4.024-6.27c0-2.694,1.57-5.144,4.022-6.268l20.801-9.535l-20.799-9.53
	c-2.451-1.124-4.024-3.572-4.024-6.27c0-2.698,1.572-5.146,4.024-6.27l22.019-10.088l-5.232-2.877
	c-2.203-1.212-3.572-3.527-3.572-6.042v-28.444c0-3.808,3.088-6.896,6.896-6.896s6.896,3.088,6.896,6.896v24.367l13.667,7.516
	c2.282,1.257,3.663,3.691,3.567,6.294c-0.095,2.605-1.65,4.93-4.018,6.016l-20.795,9.525l20.795,9.528
	c2.451,1.122,4.024,3.572,4.024,6.27c0,2.694-1.57,5.144-4.022,6.268l-20.801,9.535l20.799,9.53
	c2.451,1.122,4.024,3.572,4.024,6.268c0,2.696-1.57,5.146-4.022,6.27l-20.808,9.542l20.808,9.542
	c2.369,1.086,3.922,3.412,4.017,6.016c0.097,2.603-1.284,5.037-3.567,6.292l-13.667,7.516v41.181
	C262.896,413.236,259.808,416.323,256,416.323z"/>
<path style="fill:#FFC61B;" d="M254.579,228.993c-9.519,0-17.239-7.72-17.239-17.239v-73.556c0-9.519,7.72-17.239,17.239-17.239
	c9.519,0,17.239,7.72,17.239,17.239v73.556C271.819,221.274,264.101,228.993,254.579,228.993z"/>
<path style="fill:#EAA22F;" d="M254.85,120.973V228.98c9.394-0.147,16.968-7.797,16.968-17.225v-73.556
	C271.819,128.771,264.245,121.12,254.85,120.973z"/>
<path style="fill:#FF7F4F;" d="M343.831,138.305L343.831,138.305c0-11.523-9.342-20.864-20.864-20.864H186.194
	c-11.523,0-20.864,9.342-20.864,20.864l0,0c0,11.523,9.34,20.864,20.864,20.864h136.773
	C334.489,159.168,343.831,149.828,343.831,138.305z"/>
<path style="fill:#D35933;" d="M322.967,117.441H254.85v41.727h68.117c11.523,0,20.864-9.342,20.864-20.864
	S334.489,117.441,322.967,117.441z"/>
<g>
</g>
<g>
</g>
<g>
</g>
<g>
</g>
<g>
</g>
<g>
</g>
<g>
</g>
<g>
</g>
<g>
</g>
<g>
</g>
<g>
</g>
<g>
</g>
<g>
</g>
<g>
</g>
<g>
</g>
</svg>
