<?xml version="1.0" encoding="iso-8859-1"?>
<!-- Generator: Adobe Illustrator 19.0.0, SVG Export Plug-In . SVG Version: 6.00 Build 0)  -->
<svg version="1.1" id="Layer_1" xmlns="http://www.w3.org/2000/svg" xmlns:xlink="http://www.w3.org/1999/xlink" x="0px" y="0px"
	 viewBox="0 0 512 512" style="enable-background:new 0 0 512 512;" xml:space="preserve">
<circle style="fill:#273B7A;" cx="256" cy="256" r="256"/>
<path style="fill:#121149;" d="M270.258,511.598c129.758-7.125,233.76-110.878,241.288-240.528L365.98,125.504l-40.019,120.727
	l-3.017,4.884L134.472,375.811L270.258,511.598z"/>
<circle style="fill:#38C6D9;" cx="256" cy="256" r="170.667"/>
<path style="fill:#02B2B2;" d="M256,85.333c-0.191,0-0.383,0.007-0.574,0.007v341.32c0.191,0,0.383,0.007,0.574,0.007
	c94.256,0,170.667-76.41,170.667-170.667S350.256,85.333,256,85.333z"/>
<circle style="fill:#FFFFFF;" cx="256" cy="256" r="113.778"/>
<path style="fill:#D0D1D3;" d="M256,142.222c-0.193,0-0.381,0.014-0.574,0.014v227.526c0.193,0.002,0.381,0.014,0.574,0.014
	c62.838,0,113.778-50.94,113.778-113.778S318.838,142.222,256,142.222z"/>
<g>
</g>
<g>
</g>
<g>
</g>
<g>
</g>
<g>
</g>
<g>
</g>
<g>
</g>
<g>
</g>
<g>
</g>
<g>
</g>
<g>
</g>
<g>
</g>
<g>
</g>
<g>
</g>
<g>
</g>
</svg>
