<?xml version="1.0" encoding="iso-8859-1"?>
<!-- Generator: Adobe Illustrator 19.0.0, SVG Export Plug-In . SVG Version: 6.00 Build 0)  -->
<svg version="1.1" id="Layer_1" xmlns="http://www.w3.org/2000/svg" xmlns:xlink="http://www.w3.org/1999/xlink" x="0px" y="0px"
	 viewBox="0 0 512 512" style="enable-background:new 0 0 512 512;" xml:space="preserve">
<circle style="fill:#273B7A;" cx="256" cy="256" r="256"/>
<path style="fill:#121149;" d="M289.139,510.433c95.341-10.004,175.082-72.339,210.011-157.758L362.474,215.847l-11.226,15.215
	l-79.955-79.131l-9.752,21.578l-0.862,112.509l30.813,30.813l-200.044-4.093L289.139,510.433z"/>
<path style="fill:#D0D1D3;" d="M119.891,316.619c0-78.546,63.676-142.222,142.222-142.222s142.222,63.676,142.222,142.222H119.891z"
	/>
<path style="fill:#A6A8AA;" d="M262.113,174.397c-0.193,0-0.381,0.014-0.574,0.014v142.208h142.796
	C404.335,238.073,340.661,174.397,262.113,174.397z"/>
<polygon style="fill:#71E2EF;" points="375.891,341.185 148.335,341.185 91.446,312.741 432.78,312.741 "/>
<polygon style="fill:#38C6D9;" points="432.78,312.741 261.539,312.741 261.539,341.185 375.891,341.185 "/>
<circle style="fill:#FFFFFF;" cx="262.12" cy="161.03" r="12.929"/>
<path style="fill:#D0D1D3;" d="M262.113,148.108c-0.193,0-0.383,0.021-0.574,0.029v25.8c0.191,0.009,0.381,0.029,0.574,0.029
	c7.14,0,12.929-5.789,12.929-12.929S269.253,148.108,262.113,148.108z"/>
<g>
</g>
<g>
</g>
<g>
</g>
<g>
</g>
<g>
</g>
<g>
</g>
<g>
</g>
<g>
</g>
<g>
</g>
<g>
</g>
<g>
</g>
<g>
</g>
<g>
</g>
<g>
</g>
<g>
</g>
</svg>
