<?xml version="1.0" encoding="iso-8859-1"?>
<!-- Generator: Adobe Illustrator 19.0.0, SVG Export Plug-In . SVG Version: 6.00 Build 0)  -->
<svg version="1.1" id="Layer_1" xmlns="http://www.w3.org/2000/svg" xmlns:xlink="http://www.w3.org/1999/xlink" x="0px" y="0px"
	 viewBox="0 0 512 512" style="enable-background:new 0 0 512 512;" xml:space="preserve">
<circle style="fill:#273B7A;" cx="256" cy="256" r="256"/>
<path style="fill:#121149;" d="M510.581,283.026L312.889,85.333l-68.98,160.873l-10.893-10.893l-133.46,106.02l170.291,170.291
	C395.783,504.911,497.552,407.185,510.581,283.026z"/>
<g>
	<polygon style="fill:#71E2EF;" points="312.889,199.111 312.889,85.333 199.111,85.333 199.111,199.111 99.556,284.444 
		99.556,341.333 412.444,341.333 412.444,284.444 	"/>
	<rect x="99.556" y="284.444" style="fill:#71E2EF;" width="312.889" height="56.889"/>
</g>
<g>
	<rect x="255.431" y="284.444" style="fill:#38C6D9;" width="157.013" height="56.889"/>
	<polygon style="fill:#38C6D9;" points="99.556,284.444 412.444,284.444 312.889,199.111 199.111,199.111 	"/>
</g>
<polygon style="fill:#02B2B2;" points="312.889,199.111 255.426,199.111 255.426,284.444 412.444,284.444 "/>
<rect x="199.111" y="85.333" style="fill:#71E2EF;" width="113.778" height="113.778"/>
<rect x="255.431" y="85.333" style="fill:#38C6D9;" width="57.458" height="113.778"/>
<g>
	<circle style="fill:#FFFFFF;" cx="128" cy="312.889" r="5.172"/>
	<circle style="fill:#FFFFFF;" cx="147.394" cy="312.889" r="5.172"/>
</g>
<g>
</g>
<g>
</g>
<g>
</g>
<g>
</g>
<g>
</g>
<g>
</g>
<g>
</g>
<g>
</g>
<g>
</g>
<g>
</g>
<g>
</g>
<g>
</g>
<g>
</g>
<g>
</g>
<g>
</g>
</svg>
