<?xml version="1.0" encoding="iso-8859-1"?>
<!-- Generator: Adobe Illustrator 19.0.0, SVG Export Plug-In . SVG Version: 6.00 Build 0)  -->
<svg version="1.1" id="Layer_1" xmlns="http://www.w3.org/2000/svg" xmlns:xlink="http://www.w3.org/1999/xlink" x="0px" y="0px"
	 viewBox="0 0 512 512" style="enable-background:new 0 0 512 512;" xml:space="preserve">
<circle style="fill:#273B7A;" cx="256" cy="256" r="256"/>
<path style="fill:#121149;" d="M512,256c0-3.644-0.095-7.266-0.247-10.873L389.601,122.975l-183.88,183.88l-5.17,5.17
	l-15.517,15.517l-47.469,47.469l136.354,136.354C406.94,502.167,512,391.359,512,256z"/>
<rect x="237.954" y="215.664" transform="matrix(-0.7071 -0.7071 0.7071 -0.7071 229.4217 628.3605)" style="fill:#FFC61B;" width="13.789" height="102.003"/>
<rect x="244.467" y="218.365" transform="matrix(0.7071 0.7071 -0.7071 0.7071 262.9714 -96.1375)" style="fill:#EAA22F;" width="6.134" height="102.003"/>
<path style="fill:#FF7F4F;" d="M389.089,122.408L389.089,122.408c-8.147-8.147-21.357-8.147-29.506,0l-96.713,96.715
	c-8.147,8.147-8.147,21.357,0,29.506l0,0c8.147,8.147,21.357,8.147,29.506,0l96.713-96.715
	C397.238,143.767,397.238,130.557,389.089,122.408z"/>
<path style="fill:#D35933;" d="M263.437,249.141c8.182,7.611,20.975,7.454,28.941-0.512l96.713-96.715
	c7.966-7.966,8.121-20.758,0.512-28.939L263.437,249.141z"/>
<path style="fill:#FFFFFF;" d="M184.049,317.485l-46.525,46.525c-3.031,3.029-3.031,7.94,0,10.969
	c1.514,1.515,3.5,2.272,5.485,2.272c1.986,0,3.972-0.757,5.485-2.272l46.525-46.525l15.269,15.207l-46.554,46.556
	c-3.031,3.029-3.031,7.94,0,10.969c1.514,1.515,3.5,2.272,5.485,2.272c1.986,0,3.972-0.757,5.485-2.272l69.887-69.889
	c3.031-3.029,3.031-7.94,0-10.969l-52.415-52.415c-3.027-3.031-7.942-3.031-10.969,0l-69.889,69.889
	c-3.031,3.029-3.031,7.94,0,10.969c3.027,3.031,7.942,3.031,10.969,0l46.556-46.554L184.049,317.485z"/>
<path style="fill:#D0D1D3;" d="M218.419,294.157l-80.855,80.855c1.508,1.491,3.477,2.241,5.446,2.241
	c1.984,0,3.972-0.757,5.485-2.272l46.525-46.525l15.269,15.207l-46.554,46.556c-3.031,3.029-3.031,7.94,0,10.969
	c1.514,1.515,3.5,2.272,5.485,2.272c1.986,0,3.972-0.757,5.485-2.272l69.887-69.889c3.031-3.029,3.031-7.94,0-10.969
	L218.419,294.157z"/>
<g>
</g>
<g>
</g>
<g>
</g>
<g>
</g>
<g>
</g>
<g>
</g>
<g>
</g>
<g>
</g>
<g>
</g>
<g>
</g>
<g>
</g>
<g>
</g>
<g>
</g>
<g>
</g>
<g>
</g>
</svg>
