<?xml version="1.0" encoding="iso-8859-1"?>
<!-- Generator: Adobe Illustrator 19.0.0, SVG Export Plug-In . SVG Version: 6.00 Build 0)  -->
<svg version="1.1" id="Layer_1" xmlns="http://www.w3.org/2000/svg" xmlns:xlink="http://www.w3.org/1999/xlink" x="0px" y="0px"
	 viewBox="0 0 512 512" style="enable-background:new 0 0 512 512;" xml:space="preserve">
<circle style="fill:#273B7A;" cx="256" cy="256" r="256"/>
<path style="fill:#121149;" d="M510.602,282.846L314.62,86.862l-118.248,8.239V276.82l51.062,51.062l-94.16,86.011
	c0,0,46.904,52.7,90.09,97.795c4.187,0.203,8.399,0.312,12.638,0.312C388.318,512,497.181,411.612,510.602,282.846z"/>
<path style="fill:#D0D1D3;" d="M310.244,182.393H201.756c-4.284,0-7.758-3.474-7.758-7.758V93.268c0-4.284,3.474-7.758,7.758-7.758
	h108.489c4.284,0,7.758,3.474,7.758,7.758v81.367C318.002,178.919,314.528,182.393,310.244,182.393z M209.513,166.878h92.974
	v-65.851h-92.974V166.878L209.513,166.878z"/>
<path style="fill:#A6A8AA;" d="M310.244,85.511h-55.68v15.515h47.923v65.851h-47.923v15.515h55.68c4.284,0,7.758-3.474,7.758-7.758
	V93.268C318.002,88.983,314.528,85.511,310.244,85.511z"/>
<path style="fill:#FFFFFF;" d="M164.426,418.732h183.148c9.056,0,16.132-7.82,15.231-16.831l-24.061-240.606
	c-0.783-7.825-7.366-13.784-15.231-13.784H188.487c-7.864,0-14.448,5.96-15.231,13.784l-24.061,240.606
	C148.294,410.912,155.37,418.732,164.426,418.732z"/>
<path style="fill:#D0D1D3;" d="M362.805,401.903l-24.061-240.606c-0.783-7.825-7.366-13.784-15.231-13.784h-68.949v271.219h93.01
	C356.63,418.732,363.706,410.912,362.805,401.903z"/>
<g>
	<path style="fill:#A6A8AA;" d="M310.244,192.074c-1.545,0-3.088-0.59-4.267-1.767c-2.357-2.355-2.357-6.177,0-8.532l8.751-8.751
		c2.357-2.357,6.175-2.357,8.532,0c2.357,2.355,2.357,6.177,0,8.532l-8.751,8.751C313.332,191.485,311.787,192.074,310.244,192.074z
		"/>
	<path style="fill:#A6A8AA;" d="M310.244,220.827c-1.545,0-3.088-0.59-4.267-1.767c-2.357-2.355-2.357-6.177,0-8.532l8.751-8.751
		c2.357-2.357,6.175-2.357,8.532,0c2.357,2.355,2.357,6.177,0,8.532l-8.751,8.751C313.332,220.238,311.787,220.827,310.244,220.827z
		"/>
	<path style="fill:#A6A8AA;" d="M310.244,249.578c-1.545,0-3.088-0.59-4.267-1.767c-2.357-2.355-2.357-6.177,0-8.532l8.751-8.751
		c2.357-2.357,6.175-2.357,8.532,0c2.357,2.355,2.357,6.177,0,8.532l-8.751,8.751C313.332,248.991,311.787,249.578,310.244,249.578z
		"/>
	<path style="fill:#A6A8AA;" d="M310.244,278.333c-1.545,0-3.088-0.59-4.267-1.767c-2.357-2.355-2.357-6.177,0-8.532l8.751-8.751
		c2.357-2.357,6.175-2.357,8.532,0c2.357,2.355,2.357,6.177,0,8.532l-8.751,8.751C313.332,277.744,311.787,278.333,310.244,278.333z
		"/>
	<path style="fill:#A6A8AA;" d="M310.244,307.086c-1.545,0-3.088-0.59-4.267-1.767c-2.357-2.355-2.357-6.177,0-8.532l8.751-8.751
		c2.357-2.357,6.175-2.357,8.532,0c2.357,2.355,2.357,6.177,0,8.532l-8.751,8.751C313.332,306.497,311.787,307.086,310.244,307.086z
		"/>
	<path style="fill:#A6A8AA;" d="M310.244,335.839c-1.545,0-3.088-0.59-4.267-1.767c-2.357-2.355-2.357-6.177,0-8.532l8.751-8.751
		c2.357-2.357,6.175-2.357,8.532,0c2.357,2.355,2.357,6.177,0,8.532l-8.751,8.751C313.332,335.25,311.787,335.839,310.244,335.839z"
		/>
	<path style="fill:#A6A8AA;" d="M310.244,364.591c-1.545,0-3.088-0.59-4.267-1.767c-2.357-2.355-2.357-6.177,0-8.532l8.751-8.751
		c2.357-2.357,6.175-2.357,8.532,0c2.357,2.355,2.357,6.177,0,8.532l-8.751,8.751C313.332,364.001,311.787,364.591,310.244,364.591z
		"/>
	<path style="fill:#A6A8AA;" d="M310.244,393.345c-1.545,0-3.088-0.59-4.267-1.767c-2.357-2.355-2.357-6.177,0-8.532l8.751-8.751
		c2.357-2.357,6.175-2.357,8.532,0c2.357,2.355,2.357,6.177,0,8.532l-8.751,8.751C313.332,392.756,311.787,393.345,310.244,393.345z
		"/>
	<path style="fill:#A6A8AA;" d="M192.45,192.074c-1.545,0-3.088-0.59-4.267-1.767c-2.357-2.355-2.357-6.177,0-8.532l8.751-8.751
		c2.357-2.357,6.175-2.357,8.532,0c2.357,2.355,2.357,6.177,0,8.532l-8.751,8.751C195.537,191.485,193.993,192.074,192.45,192.074z"
		/>
	<path style="fill:#A6A8AA;" d="M192.45,220.827c-1.545,0-3.088-0.59-4.267-1.767c-2.357-2.355-2.357-6.177,0-8.532l8.751-8.751
		c2.357-2.357,6.175-2.357,8.532,0c2.357,2.355,2.357,6.177,0,8.532l-8.751,8.751C195.537,220.238,193.993,220.827,192.45,220.827z"
		/>
	<path style="fill:#A6A8AA;" d="M192.45,249.578c-1.545,0-3.088-0.59-4.267-1.767c-2.357-2.355-2.357-6.177,0-8.532l8.751-8.751
		c2.357-2.357,6.175-2.357,8.532,0c2.357,2.355,2.357,6.177,0,8.532l-8.751,8.751C195.537,248.991,193.993,249.578,192.45,249.578z"
		/>
	<path style="fill:#A6A8AA;" d="M192.45,278.333c-1.545,0-3.088-0.59-4.267-1.767c-2.357-2.355-2.357-6.177,0-8.532l8.751-8.751
		c2.357-2.357,6.175-2.357,8.532,0c2.357,2.355,2.357,6.177,0,8.532l-8.751,8.751C195.537,277.744,193.993,278.333,192.45,278.333z"
		/>
	<path style="fill:#A6A8AA;" d="M192.45,307.086c-1.545,0-3.088-0.59-4.267-1.767c-2.357-2.355-2.357-6.177,0-8.532l8.751-8.751
		c2.357-2.357,6.175-2.357,8.532,0c2.357,2.355,2.357,6.177,0,8.532l-8.751,8.751C195.537,306.497,193.993,307.086,192.45,307.086z"
		/>
	<path style="fill:#A6A8AA;" d="M192.45,335.839c-1.545,0-3.088-0.59-4.267-1.767c-2.357-2.355-2.357-6.177,0-8.532l8.751-8.751
		c2.357-2.357,6.175-2.357,8.532,0c2.357,2.355,2.357,6.177,0,8.532l-8.751,8.751C195.537,335.25,193.993,335.839,192.45,335.839z"
		/>
	<path style="fill:#A6A8AA;" d="M192.45,364.591c-1.545,0-3.088-0.59-4.267-1.767c-2.357-2.355-2.357-6.177,0-8.532l8.751-8.751
		c2.357-2.357,6.175-2.357,8.532,0c2.357,2.355,2.357,6.177,0,8.532l-8.751,8.751C195.537,364.001,193.993,364.591,192.45,364.591z"
		/>
	<path style="fill:#A6A8AA;" d="M192.45,393.345c-1.545,0-3.088-0.59-4.267-1.767c-2.357-2.355-2.357-6.177,0-8.532l8.751-8.751
		c2.357-2.357,6.175-2.357,8.532,0c2.357,2.355,2.357,6.177,0,8.532l-8.751,8.751C195.537,392.756,193.993,393.345,192.45,393.345z"
		/>
	<path style="fill:#A6A8AA;" d="M231.714,192.074c-1.545,0-3.088-0.59-4.267-1.767c-2.357-2.355-2.357-6.177,0-8.532l8.751-8.751
		c2.357-2.357,6.175-2.357,8.532,0c2.357,2.355,2.357,6.177,0,8.532l-8.751,8.751C234.801,191.485,233.258,192.074,231.714,192.074z
		"/>
	<path style="fill:#A6A8AA;" d="M231.714,220.827c-1.545,0-3.088-0.59-4.267-1.767c-2.357-2.355-2.357-6.177,0-8.532l8.751-8.751
		c2.357-2.357,6.175-2.357,8.532,0c2.357,2.355,2.357,6.177,0,8.532l-8.751,8.751C234.801,220.238,233.258,220.827,231.714,220.827z
		"/>
	<path style="fill:#A6A8AA;" d="M231.714,249.578c-1.545,0-3.088-0.59-4.267-1.767c-2.357-2.355-2.357-6.177,0-8.532l8.751-8.751
		c2.357-2.357,6.175-2.357,8.532,0c2.357,2.355,2.357,6.177,0,8.532l-8.751,8.751C234.801,248.991,233.258,249.578,231.714,249.578z
		"/>
	<path style="fill:#A6A8AA;" d="M231.714,278.333c-1.545,0-3.088-0.59-4.267-1.767c-2.357-2.355-2.357-6.177,0-8.532l8.751-8.751
		c2.357-2.357,6.175-2.357,8.532,0c2.357,2.355,2.357,6.177,0,8.532l-8.751,8.751C234.801,277.744,233.258,278.333,231.714,278.333z
		"/>
	<path style="fill:#A6A8AA;" d="M231.714,307.086c-1.545,0-3.088-0.59-4.267-1.767c-2.357-2.355-2.357-6.177,0-8.532l8.751-8.751
		c2.357-2.357,6.175-2.357,8.532,0c2.357,2.355,2.357,6.177,0,8.532l-8.751,8.751C234.801,306.497,233.258,307.086,231.714,307.086z
		"/>
	<path style="fill:#A6A8AA;" d="M231.714,335.839c-1.545,0-3.088-0.59-4.267-1.767c-2.357-2.355-2.357-6.177,0-8.532l8.751-8.751
		c2.357-2.357,6.175-2.357,8.532,0c2.357,2.355,2.357,6.177,0,8.532l-8.751,8.751C234.801,335.25,233.258,335.839,231.714,335.839z"
		/>
	<path style="fill:#A6A8AA;" d="M231.714,364.591c-1.545,0-3.088-0.59-4.267-1.767c-2.357-2.355-2.357-6.177,0-8.532l8.751-8.751
		c2.357-2.357,6.175-2.357,8.532,0c2.357,2.355,2.357,6.177,0,8.532l-8.751,8.751C234.801,364.001,233.258,364.591,231.714,364.591z
		"/>
	<path style="fill:#A6A8AA;" d="M231.714,393.345c-1.545,0-3.088-0.59-4.267-1.767c-2.357-2.355-2.357-6.177,0-8.532l8.751-8.751
		c2.357-2.357,6.175-2.357,8.532,0c2.357,2.355,2.357,6.177,0,8.532l-8.751,8.751C234.801,392.756,233.258,393.345,231.714,393.345z
		"/>
	<path style="fill:#A6A8AA;" d="M270.979,192.074c-1.545,0-3.088-0.59-4.267-1.767c-2.357-2.355-2.357-6.177,0-8.532l8.751-8.751
		c2.357-2.357,6.175-2.357,8.532,0c2.357,2.355,2.357,6.177,0,8.532l-8.751,8.751C274.067,191.485,272.524,192.074,270.979,192.074z
		"/>
	<path style="fill:#A6A8AA;" d="M270.979,220.827c-1.545,0-3.088-0.59-4.267-1.767c-2.357-2.355-2.357-6.177,0-8.532l8.751-8.751
		c2.357-2.357,6.175-2.357,8.532,0c2.357,2.355,2.357,6.177,0,8.532l-8.751,8.751C274.067,220.238,272.524,220.827,270.979,220.827z
		"/>
	<path style="fill:#A6A8AA;" d="M270.979,249.578c-1.545,0-3.088-0.59-4.267-1.767c-2.357-2.355-2.357-6.177,0-8.532l8.751-8.751
		c2.357-2.357,6.175-2.357,8.532,0c2.357,2.355,2.357,6.177,0,8.532l-8.751,8.751C274.067,248.991,272.524,249.578,270.979,249.578z
		"/>
	<path style="fill:#A6A8AA;" d="M270.979,278.333c-1.545,0-3.088-0.59-4.267-1.767c-2.357-2.355-2.357-6.177,0-8.532l8.751-8.751
		c2.357-2.357,6.175-2.357,8.532,0c2.357,2.355,2.357,6.177,0,8.532l-8.751,8.751C274.067,277.744,272.524,278.333,270.979,278.333z
		"/>
	<path style="fill:#A6A8AA;" d="M270.979,307.086c-1.545,0-3.088-0.59-4.267-1.767c-2.357-2.355-2.357-6.177,0-8.532l8.751-8.751
		c2.357-2.357,6.175-2.357,8.532,0c2.357,2.355,2.357,6.177,0,8.532l-8.751,8.751C274.067,306.497,272.524,307.086,270.979,307.086z
		"/>
	<path style="fill:#A6A8AA;" d="M270.979,335.839c-1.545,0-3.088-0.59-4.267-1.767c-2.357-2.355-2.357-6.177,0-8.532l8.751-8.751
		c2.357-2.357,6.175-2.357,8.532,0c2.357,2.355,2.357,6.177,0,8.532l-8.751,8.751C274.067,335.25,272.524,335.839,270.979,335.839z"
		/>
	<path style="fill:#A6A8AA;" d="M270.979,364.591c-1.545,0-3.088-0.59-4.267-1.767c-2.357-2.355-2.357-6.177,0-8.532l8.751-8.751
		c2.357-2.357,6.175-2.357,8.532,0c2.357,2.355,2.357,6.177,0,8.532l-8.751,8.751C274.067,364.001,272.524,364.591,270.979,364.591z
		"/>
	<path style="fill:#A6A8AA;" d="M270.979,393.345c-1.545,0-3.088-0.59-4.267-1.767c-2.357-2.355-2.357-6.177,0-8.532l8.751-8.751
		c2.357-2.357,6.175-2.357,8.532,0c2.357,2.355,2.357,6.177,0,8.532l-8.751,8.751C274.067,392.756,272.524,393.345,270.979,393.345z
		"/>
</g>
<g>
</g>
<g>
</g>
<g>
</g>
<g>
</g>
<g>
</g>
<g>
</g>
<g>
</g>
<g>
</g>
<g>
</g>
<g>
</g>
<g>
</g>
<g>
</g>
<g>
</g>
<g>
</g>
<g>
</g>
</svg>
