<?xml version="1.0" encoding="iso-8859-1"?>
<!-- Generator: Adobe Illustrator 19.0.0, SVG Export Plug-In . SVG Version: 6.00 Build 0)  -->
<svg version="1.1" id="Layer_1" xmlns="http://www.w3.org/2000/svg" xmlns:xlink="http://www.w3.org/1999/xlink" x="0px" y="0px"
	 viewBox="0 0 512 512" style="enable-background:new 0 0 512 512;" xml:space="preserve">
<circle style="fill:#273B7A;" cx="256" cy="256" r="256"/>
<path style="fill:#121149;" d="M298.546,508.461C419.678,488.195,512,382.888,512,256c0-2.251-0.031-4.496-0.088-6.734
	l-104.15-104.15l-216.983,35.032v108.894l54.877,54.877l-72.792,38.86L298.546,508.461z"/>
<path style="fill:#A2F2F2;" d="M127.195,138.537c0,0,0.372,48.175,29.25,64.262V347.41c0,25.588,20.742,46.33,46.33,46.33h106.451
	c25.588,0,46.33-20.742,46.33-46.33V163.819h19.251c8.013,0,14.508,6.496,14.508,14.508v82.029c0,7.775,6.303,14.079,14.079,14.079
	l0,0c7.775,0,14.079-6.303,14.079-14.079v-94.239c0-15.232-12.348-27.582-27.582-27.582H127.195V138.537z"/>
<path style="fill:#71E2EF;" d="M389.891,138.537H249.104V393.74h60.121c25.588,0,46.33-20.742,46.33-46.33V163.819h19.251
	c8.013,0,14.51,6.496,14.51,14.51v82.029c0,7.775,6.303,14.079,14.079,14.079c7.777,0,14.079-6.303,14.079-14.079v-94.241
	C417.473,150.885,405.123,138.537,389.891,138.537z"/>
<polygon style="fill:#02B2B2;" points="312.889,170.667 312.889,183.739 282.29,183.739 282.29,191.06 312.889,191.06 
	312.889,204.445 267.205,204.445 267.205,211.766 312.889,211.766 312.889,225.151 282.29,225.151 282.29,232.472 312.889,232.472 
	312.889,245.857 267.205,245.857 267.205,253.178 312.889,253.178 312.889,266.562 282.29,266.562 282.29,273.882 312.889,273.882 
	312.889,287.266 267.205,287.266 267.205,294.588 312.889,294.588 312.889,307.972 282.29,307.972 282.29,315.294 312.889,315.294 
	312.889,328.678 267.205,328.678 267.205,336 312.889,336 312.889,349.384 282.29,349.384 282.29,356.705 312.889,356.705 
	312.889,369.778 326.68,369.778 326.68,170.667 "/>
<g>
</g>
<g>
</g>
<g>
</g>
<g>
</g>
<g>
</g>
<g>
</g>
<g>
</g>
<g>
</g>
<g>
</g>
<g>
</g>
<g>
</g>
<g>
</g>
<g>
</g>
<g>
</g>
<g>
</g>
</svg>
