<?xml version="1.0" encoding="iso-8859-1"?>
<!-- Generator: Adobe Illustrator 19.0.0, SVG Export Plug-In . SVG Version: 6.00 Build 0)  -->
<svg version="1.1" id="Layer_1" xmlns="http://www.w3.org/2000/svg" xmlns:xlink="http://www.w3.org/1999/xlink" x="0px" y="0px"
	 viewBox="0 0 512 512" style="enable-background:new 0 0 512 512;" xml:space="preserve">
<circle style="fill:#D35933;" cx="256" cy="256" r="256"/>
<path style="fill:#B54324;" d="M269.719,511.633c129.09-6.818,232.81-109.265,241.652-237.808l-99.804-99.804l-23.207,2.06
	l-41.331-41.331L244.507,319.21l26.465,26.467l-110.014,57.197L269.719,511.633z"/>
<path style="fill:#FFC61B;" d="M382.995,320.646h-58.47V162.909h58.47c23.368,0,42.379,19.011,42.379,42.379v72.98
	C425.374,301.635,406.362,320.646,382.995,320.646z M340.04,305.131h42.955c14.814,0,26.864-12.05,26.864-26.864v-72.98
	c0-14.814-12.05-26.864-26.864-26.864H340.04V305.131z"/>
<path style="fill:#FFEDB5;" d="M198.332,422.51h114.276c25.878,0,46.52-21.602,45.346-47.454l-10.923-240.307l-206.243-24.573
	l20.585,80.356l-8.387,184.525C151.811,400.91,172.453,422.51,198.332,422.51z"/>
<path style="fill:#FEE187;" d="M357.954,375.058l-10.923-240.307l-93.327-11.121v298.882h58.906
	C338.485,422.51,359.128,400.91,357.954,375.058z"/>
<g>
</g>
<g>
</g>
<g>
</g>
<g>
</g>
<g>
</g>
<g>
</g>
<g>
</g>
<g>
</g>
<g>
</g>
<g>
</g>
<g>
</g>
<g>
</g>
<g>
</g>
<g>
</g>
<g>
</g>
</svg>
