<?xml version="1.0" encoding="iso-8859-1"?>
<!-- Generator: Adobe Illustrator 19.0.0, SVG Export Plug-In . SVG Version: 6.00 Build 0)  -->
<svg version="1.1" id="Layer_1" xmlns="http://www.w3.org/2000/svg" xmlns:xlink="http://www.w3.org/1999/xlink" x="0px" y="0px"
	 viewBox="0 0 512 512" style="enable-background:new 0 0 512 512;" xml:space="preserve">
<circle style="fill:#273B7A;" cx="256" cy="256" r="256"/>
<path style="fill:#121149;" d="M284.284,510.436c116.972-12.859,210.218-104.508,225.506-220.734L334.726,114.64L222.96,297.662
	l46.07,46.07l-103.977,47.473L284.284,510.436z"/>
<path style="fill:#71E2EF;" d="M321.569,142.222H190.43c-11.735,0-22.083,7.687-25.474,18.92l-0.11,0.364
	c-5.572,18.458-8.402,37.633-8.402,56.913v153.193c0,14.696,11.914,26.61,26.61,26.61h145.892c14.696,0,26.61-11.914,26.61-26.61
	V218.419c0-19.28-2.831-38.455-8.402-56.913l-0.11-0.364C343.654,149.909,333.303,142.222,321.569,142.222z"/>
<path style="fill:#38C6D9;" d="M347.153,161.506l-0.11-0.364c-3.391-11.235-13.74-18.92-25.474-18.92h-66.145v256h73.519
	c14.696,0,26.61-11.914,26.61-26.61V218.419C355.556,199.139,352.725,179.964,347.153,161.506z"/>
<path style="fill:#FFEDB5;" d="M187.976,146.101h136.045c8.132,0,14.726-6.592,14.726-14.724v-6.753
	c0-8.132-6.592-14.724-14.726-14.724H187.976c-8.132,0-14.726,6.592-14.726,14.724v6.753
	C173.253,139.509,179.845,146.101,187.976,146.101z"/>
<path style="fill:#FEE187;" d="M324.022,109.899h-68.598v36.202h68.598c8.132,0,14.726-6.592,14.726-14.726v-6.753
	C338.747,116.491,332.155,109.899,324.022,109.899z"/>
<g>
</g>
<g>
</g>
<g>
</g>
<g>
</g>
<g>
</g>
<g>
</g>
<g>
</g>
<g>
</g>
<g>
</g>
<g>
</g>
<g>
</g>
<g>
</g>
<g>
</g>
<g>
</g>
<g>
</g>
</svg>
