<?xml version="1.0" encoding="iso-8859-1"?>
<!-- Generator: Adobe Illustrator 19.0.0, SVG Export Plug-In . SVG Version: 6.00 Build 0)  -->
<svg version="1.1" id="Layer_1" xmlns="http://www.w3.org/2000/svg" xmlns:xlink="http://www.w3.org/1999/xlink" x="0px" y="0px"
	 viewBox="0 0 512 512" style="enable-background:new 0 0 512 512;" xml:space="preserve">
<circle style="fill:#386895;" cx="256" cy="256" r="256"/>
<path style="fill:#273B7A;" d="M491.742,355.966L279.331,143.555l-50.669,147.742l-8.721-8.721l-94.16,71.473l156.605,156.605
	C376.837,500.983,456.078,439.963,491.742,355.966z"/>
<path style="fill:#FFC61B;" d="M341.307,315.566c1.1-95.204-33.883-145.722-59.383-169.832c-13.191-12.472-38.659-12.472-51.85,0
	c-25.5,24.112-60.483,74.63-59.383,169.832"/>
<path style="fill:#EAA22F;" d="M281.924,145.734c-6.53-6.175-16.069-9.282-25.636-9.344v179.176h85.02
	C342.407,220.362,307.424,169.844,281.924,145.734z"/>
<path style="fill:#FFEDB5;" d="M312.872,315.566c0.733-95.204-22.588-145.722-39.589-169.832c-8.794-12.472-25.772-12.472-34.566,0
	c-16.999,24.112-40.322,74.63-39.589,169.832"/>
<path style="fill:#FEE187;" d="M273.284,145.734c-4.332-6.144-10.649-9.245-16.996-9.337v179.169h56.584
	C313.604,220.362,290.283,169.844,273.284,145.734z"/>
<path style="fill:#E09112;" d="M163.547,369.778h184.906c29.391,0,53.217-23.826,53.217-53.217v-32.044
	c0-6.546-5.306-11.854-11.854-11.854H122.184c-6.546,0-11.854,5.306-11.854,11.854v32.044
	C110.33,345.952,134.156,369.778,163.547,369.778z"/>
<path style="fill:#FF5419;" d="M389.818,272.665h-133.53v97.113h92.165c29.391,0,53.217-23.826,53.217-53.217v-32.044
	C401.67,277.971,396.364,272.665,389.818,272.665z"/>
<g>
</g>
<g>
</g>
<g>
</g>
<g>
</g>
<g>
</g>
<g>
</g>
<g>
</g>
<g>
</g>
<g>
</g>
<g>
</g>
<g>
</g>
<g>
</g>
<g>
</g>
<g>
</g>
<g>
</g>
</svg>
