<?xml version="1.0" encoding="iso-8859-1"?>
<!-- Generator: Adobe Illustrator 19.0.0, SVG Export Plug-In . SVG Version: 6.00 Build 0)  -->
<svg version="1.1" id="Layer_1" xmlns="http://www.w3.org/2000/svg" xmlns:xlink="http://www.w3.org/1999/xlink" x="0px" y="0px"
	 viewBox="0 0 512 512" style="enable-background:new 0 0 512 512;" xml:space="preserve">
<circle style="fill:#386895;" cx="256" cy="256" r="256"/>
<path style="fill:#273B7A;" d="M509.98,288.28L345.174,123.475l-6.353,8.282l-6.97-10.797H175.55l-18.903,23.245v99.154l97.452-1.15
	l-27.326,35.624L88.333,366.957L231.56,510.831c8.045,0.762,16.194,1.167,24.44,1.167C386.451,512,494.109,414.425,509.98,288.28z"
	/>
<path style="fill:#D0D1D3;" d="M363.744,274.747H148.256V164.585c0-30.274,24.628-54.901,54.901-54.901h105.687
	c30.274,0,54.901,24.628,54.901,54.901v110.163H363.744z M162.047,260.956h187.906v-96.372c0-22.668-18.441-41.11-41.11-41.11
	H203.155c-22.668,0-41.108,18.441-41.108,41.11V260.956z"/>
<path style="fill:#A6A8AA;" d="M363.744,164.585c0-30.274-24.628-54.901-54.901-54.901H256v13.791h52.843
	c22.668,0,41.11,18.441,41.11,41.11v96.372H256v13.791h107.744V164.585z"/>
<path style="fill:#FFFFFF;" d="M416.961,369.778c5.439,0,9.73-4.592,9.416-10.023C421.188,270.164,346.891,199.111,256,199.111
	c-43.694,0-83.544,16.427-113.735,43.432l-26.807-29.851c-3.477-3.872-9.435-4.193-13.309-0.715l-28.305,25.417
	c-3.872,3.477-4.193,9.435-0.715,13.309l33.213,36.986c-11.874,21.601-19.213,46.047-20.721,72.059
	c-0.315,5.432,3.974,10.03,9.416,10.03H416.961z"/>
<path style="fill:#D0D1D3;" d="M426.377,359.755C421.188,270.164,346.893,199.111,256,199.111v170.667h160.961
	C422.4,369.778,426.691,365.185,426.377,359.755z"/>
<rect x="252.552" y="170.667" style="fill:#A6A8AA;" width="6.896" height="56.889"/>
<path style="fill:#D3E9EA;" d="M256,199.111c-37.066,0-71.368,11.821-99.352,31.892h198.704
	C327.368,210.932,293.066,199.111,256,199.111z"/>
<path style="fill:#71E2EF;" d="M256,199.111v31.892h99.352C327.368,210.932,293.066,199.111,256,199.111z"/>
<circle style="fill:#D0D1D3;" cx="256" cy="170.667" r="18.101"/>
<path style="fill:#A6A8AA;" d="M274.101,170.667c0-9.997-8.104-18.101-18.101-18.101v36.202
	C265.997,188.768,274.101,180.664,274.101,170.667z"/>
<g>
</g>
<g>
</g>
<g>
</g>
<g>
</g>
<g>
</g>
<g>
</g>
<g>
</g>
<g>
</g>
<g>
</g>
<g>
</g>
<g>
</g>
<g>
</g>
<g>
</g>
<g>
</g>
<g>
</g>
</svg>
