<?xml version="1.0" encoding="iso-8859-1"?>
<!-- Generator: Adobe Illustrator 19.0.0, SVG Export Plug-In . SVG Version: 6.00 Build 0)  -->
<svg version="1.1" id="Layer_1" xmlns="http://www.w3.org/2000/svg" xmlns:xlink="http://www.w3.org/1999/xlink" x="0px" y="0px"
	 viewBox="0 0 512 512" style="enable-background:new 0 0 512 512;" xml:space="preserve">
<circle style="fill:#386895;" cx="256" cy="256" r="256"/>
<path style="fill:#273B7A;" d="M288.809,509.914c115.198-14.738,206.455-106.037,221.125-221.256L393.452,172.175l-24.305,6.615
	l-49.802-49.802L186.882,255.014L295.177,363.31l-127.829,25.145L288.809,509.914z"/>
<path style="fill:#71E2EF;" d="M334.436,321.293c-0.991,0-1.989-0.214-2.922-0.652c-2.424-1.134-3.972-3.568-3.972-6.244V172.175
	c0-3.808,3.088-6.896,6.896-6.896h42.667c11.645,0,21.118,8.411,21.118,18.747v78.053c0,5.173-2.422,10.159-6.646,13.679
	l-52.724,43.935C337.589,320.748,336.02,321.293,334.436,321.293z M341.333,179.071v120.604l41.413-34.513
	c1.086-0.903,1.684-2,1.684-3.082v-78.053c0-2.343-3.008-4.956-7.327-4.956H341.333z"/>
<polygon style="fill:#D0D1D3;" points="199.111,158.815 142.222,158.815 170.667,244.148 "/>
<path style="fill:#71E2EF;" d="M313.032,161.832H198.968c-4.205,0-7.614-3.408-7.614-7.615v-20.973c0-4.205,3.408-7.614,7.614-7.614
	h114.064c4.205,0,7.615,3.408,7.615,7.614v20.973C320.646,158.423,317.238,161.832,313.032,161.832z"/>
<path style="fill:#38C6D9;" d="M313.032,125.63h-56.744v36.202h56.744c4.205,0,7.615-3.41,7.615-7.615v-20.973
	C320.646,129.04,317.238,125.63,313.032,125.63z"/>
<path style="fill:#FFFFFF;" d="M337.934,357.685c20.361-80.122,6.403-166.305-0.54-199.652c-1.736-8.34-9.099-14.302-17.617-14.302
	H192.224c-8.52,0-15.881,5.961-17.617,14.302c-6.942,33.349-20.901,119.532-0.54,199.652c2.031,7.994,9.221,13.602,17.47,13.602
	h128.927C328.713,371.286,335.901,365.678,337.934,357.685z"/>
<path style="fill:#D0D1D3;" d="M337.394,158.032c-1.736-8.34-9.099-14.302-17.617-14.302H256.29v227.556h64.176
	c8.247,0,15.438-5.608,17.47-13.602C358.295,277.563,344.336,191.381,337.394,158.032z"/>
<path style="fill:#71E2EF;" d="M298.667,342.842L298.667,342.842c-7.854,0-14.222-6.368-14.222-14.222V186.397
	c0-7.854,6.368-14.222,14.222-14.222l0,0c7.854,0,14.222,6.368,14.222,14.222V328.62
	C312.889,336.474,306.521,342.842,298.667,342.842z"/>
<path style="fill:#38C6D9;" d="M177.993,393.266h156.013c7.854,0,14.222-6.368,14.222-14.222l0,0
	c0-7.854-6.368-14.222-14.222-14.222H177.993c-7.854,0-14.222,6.368-14.222,14.222l0,0
	C163.771,386.898,170.139,393.266,177.993,393.266z"/>
<path style="fill:#02B2B2;" d="M334.007,364.822h-77.719v28.444h77.719c7.854,0,14.222-6.368,14.222-14.222
	S341.861,364.822,334.007,364.822z"/>
<g>
</g>
<g>
</g>
<g>
</g>
<g>
</g>
<g>
</g>
<g>
</g>
<g>
</g>
<g>
</g>
<g>
</g>
<g>
</g>
<g>
</g>
<g>
</g>
<g>
</g>
<g>
</g>
<g>
</g>
</svg>
