<?xml version="1.0" encoding="iso-8859-1"?>
<!-- Generator: Adobe Illustrator 19.0.0, SVG Export Plug-In . SVG Version: 6.00 Build 0)  -->
<svg version="1.1" id="Layer_1" xmlns="http://www.w3.org/2000/svg" xmlns:xlink="http://www.w3.org/1999/xlink" x="0px" y="0px"
	 viewBox="0 0 512.002 512.002" style="enable-background:new 0 0 512.002 512.002;" xml:space="preserve">
<circle style="fill:#FEE187;" cx="256.001" cy="256" r="256"/>
<path style="fill:#FFC61B;" d="M364.278,151.676l-8.976,12.548l-74.462-74.462l-50.984,180.317l50.067,50.067l-130.3,99.194
	l91.882,92.244c4.799,0.267,9.63,0.417,14.495,0.417c127.691,0,233.536-93.494,252.842-215.759L364.278,151.676z"/>
<path style="fill:#D35933;" d="M344.639,142.222h-60.194V98.981c0-7.537-6.11-13.648-13.648-13.648h-29.594
	c-7.537,0-13.648,6.11-13.648,13.648v43.241h-60.192c-13.884,0-25.14,11.255-25.14,25.14v234.163c0,13.884,11.255,25.14,25.14,25.14
	h177.274c13.884,0,25.14-11.255,25.14-25.14V167.362C369.779,153.478,358.523,142.222,344.639,142.222z M256.001,117.226
	c-4.76,0-8.62-3.86-8.62-8.62s3.86-8.62,8.62-8.62s8.62,3.86,8.62,8.62S260.761,117.226,256.001,117.226z"/>
<path style="fill:#B54324;" d="M344.639,142.222h-60.194V98.981c0-7.537-6.11-13.648-13.648-13.648h-15.372v14.712
	c0.195-0.014,0.379-0.059,0.576-0.059c4.76,0,8.62,3.86,8.62,8.62s-3.86,8.62-8.62,8.62c-0.197,0-0.381-0.045-0.574-0.059v309.5
	h89.212c13.884,0,25.14-11.255,25.14-25.14V167.362C369.779,153.478,358.523,142.222,344.639,142.222z"/>
<g>
</g>
<g>
</g>
<g>
</g>
<g>
</g>
<g>
</g>
<g>
</g>
<g>
</g>
<g>
</g>
<g>
</g>
<g>
</g>
<g>
</g>
<g>
</g>
<g>
</g>
<g>
</g>
<g>
</g>
</svg>
