<?xml version="1.0" encoding="iso-8859-1"?>
<!-- Generator: Adobe Illustrator 19.0.0, SVG Export Plug-In . SVG Version: 6.00 Build 0)  -->
<svg version="1.1" id="Layer_1" xmlns="http://www.w3.org/2000/svg" xmlns:xlink="http://www.w3.org/1999/xlink" x="0px" y="0px"
	 viewBox="0 0 512.002 512.002" style="enable-background:new 0 0 512.002 512.002;" xml:space="preserve">
<circle style="fill:#FEE187;" cx="256.001" cy="256" r="256"/>
<path style="fill:#FFC61B;" d="M498.791,337.365l-72.123-72.125l-4.503,2.746L304.456,150.278l-29.044,3.003l0,0l-1.436,0.148
	l-1.598,3.158l-2.515,0.338l-17.939,15.265l107.087,107.087l-33.889-19.137l-3.879,3.879l-64.672-64.672l-12.71,7.159l-2.513-2.512
	l-109.139,12.728l74.704,74.704l-64.453,37.788l12.152,12.152l-71.642,23.992l145.124,145.124c9.168,0.995,18.477,1.52,27.908,1.52
	C368.941,512,464.792,438.86,498.791,337.365z"/>
<path style="fill:#FF314F;" d="M390.466,248.427c-6.153,0-12.026,1.186-17.422,3.319l-74.402-97.009l5.813-4.458L252.52,82.563
	l-26.217,20.108c-10.452,8.016-12.426,22.985-4.41,33.437l22.909,29.87c8.016,10.45,22.985,12.426,33.435,4.41l9.461-7.256
	l73.306,95.578c-3.4,2.701-6.418,5.856-8.964,9.378l-102.479-55.87l7.015-12.866l-103.741-56.56l-21.899,40.169
	c-8.73,16.012-2.825,36.068,13.186,44.797l45.756,24.945c16.012,8.728,36.068,2.826,44.797-13.186l8.283-15.194l102.712,55.998
	c-1.138,3.287-1.929,6.735-2.32,10.307H222.074v-8.089H74.129v57.284c0,22.835,18.511,41.346,41.346,41.346h65.253
	c22.835,0,41.346-18.511,41.346-41.346v-35.404h121.775c4.041,22.082,23.368,38.824,46.618,38.824
	c26.183,0,47.407-21.225,47.407-47.407C437.873,269.652,416.648,248.427,390.466,248.427z M390.466,324.279
	c-15.71,0-28.444-12.734-28.444-28.444c0-15.71,12.734-28.444,28.444-28.444s28.444,12.734,28.444,28.444
	C418.91,311.544,406.175,324.279,390.466,324.279z"/>
<path style="fill:#A30F44;" d="M390.466,248.427c-6.153,0-12.026,1.186-17.422,3.319l-74.402-97.009l5.813-4.458l-23.037-30.037
	l-46.266,33.152l9.65,12.583c8.016,10.45,22.985,12.426,33.435,4.41l9.461-7.256l73.306,95.579c-3.4,2.701-6.418,5.856-8.964,9.378
	l-102.479-55.87l7.015-12.866l-51.248-27.941l-38.6,68.672l23.154,12.622c16.012,8.728,36.068,2.826,44.797-13.186l8.283-15.193
	l102.712,55.996c-1.138,3.287-1.929,6.735-2.32,10.307H222.078v-8.089h-74.683v98.63h33.333c22.835,0,41.346-18.511,41.346-41.344
	v-35.404h121.775c4.041,22.082,23.368,38.824,46.618,38.824c26.183,0,47.407-21.225,47.407-47.407S416.648,248.427,390.466,248.427z
	 M390.466,324.279c-15.71,0-28.444-12.734-28.444-28.444c0-15.71,12.734-28.444,28.444-28.444s28.444,12.734,28.444,28.444
	C418.91,311.544,406.175,324.279,390.466,324.279z"/>
<g>
</g>
<g>
</g>
<g>
</g>
<g>
</g>
<g>
</g>
<g>
</g>
<g>
</g>
<g>
</g>
<g>
</g>
<g>
</g>
<g>
</g>
<g>
</g>
<g>
</g>
<g>
</g>
<g>
</g>
</svg>
