<?xml version="1.0" encoding="iso-8859-1"?>
<!-- Generator: Adobe Illustrator 19.0.0, SVG Export Plug-In . SVG Version: 6.00 Build 0)  -->
<svg version="1.1" id="Layer_1" xmlns="http://www.w3.org/2000/svg" xmlns:xlink="http://www.w3.org/1999/xlink" x="0px" y="0px"
	 viewBox="0 0 512 512" style="enable-background:new 0 0 512 512;" xml:space="preserve">
<circle style="fill:#C92F00;" cx="256" cy="256" r="256"/>
<path style="fill:#930000;" d="M511.917,262.565L409.121,159.768L258.41,310.125l-44.07-44.07l-111.445,86.187l159.673,159.673
	C398.734,508.488,508.49,398.734,511.917,262.565z"/>
<path style="fill:#FFFFFF;" d="M110.906,355.556h290.19c6.268,0,11.348-5.082,11.348-11.348V167.795
	c0-6.268-5.082-11.35-11.348-11.35h-290.19c-6.268,0-11.35,5.082-11.35,11.35v176.412
	C99.556,350.473,104.638,355.556,110.906,355.556z"/>
<path style="fill:#D0D1D3;" d="M401.096,156.444H226.12v199.111h174.976c6.268,0,11.348-5.082,11.348-11.348V167.793
	C412.444,161.527,407.362,156.444,401.096,156.444z"/>
<path style="fill:#59595B;" d="M334.15,341.333H120.96c-3.967,0-7.182-3.215-7.182-7.184V177.848c0-3.967,3.215-7.182,7.182-7.182
	h213.19c3.967,0,7.184,3.215,7.184,7.182V334.15C341.333,338.118,338.118,341.333,334.15,341.333z"/>
<path style="fill:#272525;" d="M334.15,170.667H226.118v170.667H334.15c3.967,0,7.184-3.215,7.184-7.184V177.848
	C341.333,173.882,338.118,170.667,334.15,170.667z"/>
<g>
	<circle style="fill:#E09112;" cx="378.397" cy="185.441" r="14.776"/>
	<circle style="fill:#E09112;" cx="378.397" cy="241.226" r="14.776"/>
</g>
<g>
	<rect x="353.401" y="294.357" style="fill:#FFC61B;" width="49.993" height="8.62"/>
	<rect x="353.401" y="315.475" style="fill:#FFC61B;" width="49.993" height="8.62"/>
</g>
<g>
</g>
<g>
</g>
<g>
</g>
<g>
</g>
<g>
</g>
<g>
</g>
<g>
</g>
<g>
</g>
<g>
</g>
<g>
</g>
<g>
</g>
<g>
</g>
<g>
</g>
<g>
</g>
<g>
</g>
</svg>
