<?xml version="1.0" encoding="iso-8859-1"?>
<!-- Generator: Adobe Illustrator 19.0.0, SVG Export Plug-In . SVG Version: 6.00 Build 0)  -->
<svg version="1.1" id="Layer_1" xmlns="http://www.w3.org/2000/svg" xmlns:xlink="http://www.w3.org/1999/xlink" x="0px" y="0px"
	 viewBox="0 0 512 512" style="enable-background:new 0 0 512 512;" xml:space="preserve">
<circle style="fill:#FFC91B;" cx="256" cy="256" r="256"/>
<path style="fill:#EAA22F;" d="M271.107,511.545c118.312-6.887,215.04-94.11,236.454-207.927L316.456,112.512l-42.593,211.344
	l-4.646-4.646l-94.694,95.751L271.107,511.545z"/>
<path style="fill:#386895;" d="M253.764,87.99c-51.057,0-92.448,41.391-92.448,92.448l2.779,43.611l-27.495-13.748
	c-8.901-4.449-19.649-2.707-26.686,4.33l0,0c-8.33,8.33-9.064,21.59-1.705,30.789l62.202,77.752l4.113,91.788h171.689V180.438
	C346.212,129.379,304.821,87.99,253.764,87.99z"/>
<path style="fill:#273B7A;" d="M346.212,180.438c0-50.693-40.807-91.836-91.36-92.42v326.944h91.36V180.438z"/>
<g>
</g>
<g>
</g>
<g>
</g>
<g>
</g>
<g>
</g>
<g>
</g>
<g>
</g>
<g>
</g>
<g>
</g>
<g>
</g>
<g>
</g>
<g>
</g>
<g>
</g>
<g>
</g>
<g>
</g>
</svg>
