<?xml version="1.0" encoding="iso-8859-1"?>
<!-- Generator: Adobe Illustrator 19.0.0, SVG Export Plug-In . SVG Version: 6.00 Build 0)  -->
<svg version="1.1" id="Layer_1" xmlns="http://www.w3.org/2000/svg" xmlns:xlink="http://www.w3.org/1999/xlink" x="0px" y="0px"
	 viewBox="0 0 512 512" style="enable-background:new 0 0 512 512;" xml:space="preserve">
<circle style="fill:#D35933;" cx="256" cy="256" r="256"/>
<path style="fill:#B54324;" d="M509.981,223.723L399.417,113.159L259.448,253.126l-16.599,16.599l-6.385,6.385l-118.21,118.21
	l116.822,116.822c6.903,0.559,13.879,0.855,20.925,0.855c141.384,0,256-114.616,256-256C512,245.067,511.31,234.294,509.981,223.723
	z"/>
<path style="fill:#FFFFFF;" d="M307.51,213.021l-8.532-8.532l-59.145,59.145c-16,3.944-101.288,25.709-121.875,46.297
	c-23.19,23.188-23.19,60.921,0,84.109c11.595,11.595,26.826,17.393,42.056,17.393c15.229,0,30.46-5.798,42.055-17.393
	c20.589-20.587,42.351-105.875,46.297-121.875L307.51,213.021z M144.165,336.139c11.13-11.128,41.139-28.887,65.66-42.496
	l-86.185,86.185C121.547,369.762,128.133,352.173,144.165,336.139z M132.172,388.36l86.188-86.188
	c-13.61,24.519-31.37,54.532-42.501,65.664C159.827,383.869,142.239,390.453,132.172,388.36z M126.49,318.464
	c9.338-9.338,38.198-20.216,66.146-29.013c-22.5,12.85-46.658,27.81-57.003,38.155c-10.471,10.469-18.241,22.533-21.997,34.089
	C110.492,346.565,114.771,330.185,126.49,318.464z M193.536,385.51c-11.721,11.721-28.101,16-43.234,12.855
	c11.557-3.756,23.621-11.528,34.09-21.999c10.347-10.345,25.307-34.504,38.155-57.003
	C213.752,347.314,202.873,376.172,193.536,385.51z"/>
<path style="fill:#D0D1D3;" d="M118.253,394.323c11.557,11.402,26.657,17.111,41.76,17.111c15.229,0,30.46-5.798,42.055-17.392
	c20.589-20.587,42.351-105.875,46.297-121.875l59.146-59.145l-3.979-3.979L118.253,394.323z M132.172,388.36l86.188-86.188
	c-13.61,24.519-31.37,54.532-42.501,65.664C159.827,383.869,142.239,390.453,132.172,388.36z M193.536,385.51
	c-11.721,11.721-28.101,16-43.234,12.855c11.557-3.756,23.621-11.528,34.09-21.999c10.347-10.345,25.307-34.504,38.155-57.003
	C213.752,347.314,202.873,376.172,193.536,385.51z"/>
<path style="fill:#273B7A;" d="M399.143,112.857L399.143,112.857c-8.38-8.38-21.966-8.38-30.346,0l-99.469,99.469
	c-8.38,8.38-8.38,21.966,0,30.346l0,0c8.38,8.38,21.966,8.38,30.346,0l99.469-99.469
	C407.523,134.823,407.523,121.237,399.143,112.857z"/>
<path style="fill:#121149;" d="M399.417,113.159L269.631,242.945c8.401,8.09,21.761,8.009,30.044-0.274l99.469-99.469
	C407.426,134.92,407.507,121.559,399.417,113.159z"/>
<g>
</g>
<g>
</g>
<g>
</g>
<g>
</g>
<g>
</g>
<g>
</g>
<g>
</g>
<g>
</g>
<g>
</g>
<g>
</g>
<g>
</g>
<g>
</g>
<g>
</g>
<g>
</g>
<g>
</g>
</svg>
