<?xml version="1.0" encoding="iso-8859-1"?>
<!-- Generator: Adobe Illustrator 19.0.0, SVG Export Plug-In . SVG Version: 6.00 Build 0)  -->
<svg version="1.1" id="Layer_1" xmlns="http://www.w3.org/2000/svg" xmlns:xlink="http://www.w3.org/1999/xlink" x="0px" y="0px"
	 viewBox="0 0 512 512" style="enable-background:new 0 0 512 512;" xml:space="preserve">
<circle style="fill:#273B7A;" cx="256" cy="256" r="256"/>
<path style="fill:#121149;" d="M282.086,510.686C399.108,498.843,492.83,408.18,509.381,292.612L324.42,107.651l-92.267,243.452
	l22.073,22.073l-59.356,50.295L282.086,510.686z"/>
<path style="fill:#FFFFFF;" d="M323.387,303.897h-39.426c-2.065,0-4.024-0.926-5.334-2.524c-1.31-1.598-1.833-3.699-1.427-5.723
	l27.938-139.686c0.643-3.224,3.475-5.544,6.761-5.544h31.399c8.109,0,15.708,3.596,20.851,9.869
	c5.139,6.272,7.177,14.427,5.585,22.378l-19.911,99.557C347.314,294.783,336.194,303.897,323.387,303.897z M292.373,290.106h31.015
	c6.256,0,11.686-4.453,12.914-10.587l19.911-99.557c0.776-3.884-0.219-7.868-2.731-10.933c-2.51-3.062-6.222-4.82-10.183-4.82
	h-25.747L292.373,290.106z"/>
<path style="fill:#71E2EF;" d="M232.422,352.877h47.202c18.373,0,33.809-13.815,35.838-32.077l20.645-185.809
	c1.989-17.899-12.023-33.552-30.03-33.552H205.971c-18.008,0-32.02,15.653-30.03,33.552l1.158,10.428l-25.769,0.041l36.402,95.665
	l8.852,79.674C198.615,339.061,214.049,352.877,232.422,352.877z"/>
<g>
	<path style="fill:#38C6D9;" d="M306.078,101.44H256v251.437h23.624c18.373,0,33.809-13.815,35.838-32.077l20.645-185.809
		C338.098,117.093,324.086,101.44,306.078,101.44z"/>
	<path style="fill:#38C6D9;" d="M336.108,134.992c1.989-17.898-12.023-33.552-30.03-33.552H205.971
		c-18.008,0-32.02,15.653-30.03,33.552l0.693,6.237h158.782L336.108,134.992z"/>
</g>
<path style="fill:#02B2B2;" d="M306.078,101.44H256v39.789h79.415l0.693-6.237C338.098,117.093,324.086,101.44,306.078,101.44z"/>
<path style="fill:#E09112;" d="M204.422,427.799h103.202c7.035,0,12.74-5.704,12.74-12.74v-56.641c0-7.035-5.704-12.74-12.74-12.74
	H204.422c-7.035,0-12.74,5.704-12.74,12.74v56.641C191.683,422.097,197.387,427.799,204.422,427.799z"/>
<path style="fill:#FF5419;" d="M307.626,345.681H256v82.12h51.626c7.035,0,12.74-5.704,12.74-12.74v-56.641
	C320.365,351.384,314.661,345.681,307.626,345.681z"/>
<circle style="fill:#C92F00;" cx="256.017" cy="386.741" r="15.515"/>
<path style="fill:#930000;" d="M256.024,371.224c-0.009,0-0.016,0.002-0.024,0.002v31.029c0.009,0,0.016,0.002,0.024,0.002
	c8.57,0,15.515-6.946,15.515-15.515C271.539,378.171,264.594,371.224,256.024,371.224z"/>
<g>
</g>
<g>
</g>
<g>
</g>
<g>
</g>
<g>
</g>
<g>
</g>
<g>
</g>
<g>
</g>
<g>
</g>
<g>
</g>
<g>
</g>
<g>
</g>
<g>
</g>
<g>
</g>
<g>
</g>
</svg>
