<?xml version="1.0" encoding="iso-8859-1"?>
<!-- Generator: Adobe Illustrator 19.0.0, SVG Export Plug-In . SVG Version: 6.00 Build 0)  -->
<svg version="1.1" id="Layer_1" xmlns="http://www.w3.org/2000/svg" xmlns:xlink="http://www.w3.org/1999/xlink" x="0px" y="0px"
	 viewBox="0 0 512 512" style="enable-background:new 0 0 512 512;" xml:space="preserve">
<circle style="fill:#FF314F;" cx="256" cy="256" r="256"/>
<path style="fill:#A30F44;" d="M260.33,511.945c126.352-2.098,230.429-95.72,248.789-217.452l-196.23-196.23l-89.571,230.788
	l7.987,7.987l-85.451,60.43L260.33,511.945z"/>
<path style="fill:#FFFFFF;" d="M330.988,295.65c-0.953,0-1.912-0.197-2.815-0.602c-2.481-1.112-4.079-3.575-4.079-6.294V173.253
	c0-3.808,3.088-6.896,6.896-6.896h32.323c9.743,0,17.67,7.411,17.67,16.52v63.39c0,4.494-1.988,8.851-5.456,11.948l-39.943,35.681
	C334.295,295.048,332.652,295.65,330.988,295.65z M337.886,180.148v93.2l28.453-25.419c0.55-0.491,0.853-1.081,0.853-1.662v-63.39
	c0-1.291-1.593-2.729-3.879-2.729L337.886,180.148L337.886,180.148z"/>
<rect x="256" y="98.263" style="fill:#A9D3D3;" width="56.889" height="85.333"/>
<path style="fill:#C5E8EA;" d="M188.623,325.818h134.753c9.918,0,17.958-8.04,17.958-17.958V173.108
	c0-9.916-8.04-17.956-17.958-17.956H188.623c-9.916,0-17.956,8.04-17.956,17.956V307.86
	C170.667,317.778,178.707,325.818,188.623,325.818z"/>
<path style="fill:#71E2EF;" d="M323.375,155.152h-67.951v170.667h67.951c9.918,0,17.958-8.04,17.958-17.958V173.108
	C341.333,163.192,333.293,155.152,323.375,155.152z"/>
<polygon style="fill:#38C6D9;" points="213.333,297.374 298.667,297.374 270.222,212.04 241.778,212.04 "/>
<polygon style="fill:#02B2B2;" points="270.222,212.04 255.426,212.04 255.426,297.374 298.667,297.374 "/>
<path style="fill:#FFEDB5;" d="M163.485,406.842h185.032c11.743,0,21.261-9.519,21.261-21.261v-71.254
	c0-11.743-9.519-21.261-21.261-21.261H163.485c-11.743,0-21.263,9.519-21.263,21.261v71.254
	C142.222,397.322,151.742,406.842,163.485,406.842z"/>
<path style="fill:#FEE187;" d="M348.517,293.064h-93.091v113.778h93.091c11.743,0,21.261-9.519,21.261-21.261v-71.254
	C369.778,302.583,360.258,293.064,348.517,293.064z"/>
<circle style="fill:#E09112;" cx="256" cy="349.953" r="28.444"/>
<path style="fill:#FF5419;" d="M256,321.508c-0.193,0-0.381,0.026-0.574,0.029v56.83c0.193,0.003,0.381,0.029,0.574,0.029
	c15.71,0,28.444-12.734,28.444-28.444S271.71,321.508,256,321.508z"/>
<g>
	<rect x="170.667" y="185.32" style="fill:#38C6D9;" width="43.098" height="8.62"/>
	<rect x="170.667" y="210.316" style="fill:#38C6D9;" width="43.098" height="8.62"/>
	<rect x="170.667" y="260.31" style="fill:#38C6D9;" width="43.098" height="8.62"/>
	<rect x="170.667" y="235.313" style="fill:#38C6D9;" width="43.098" height="8.62"/>
</g>
<g>
</g>
<g>
</g>
<g>
</g>
<g>
</g>
<g>
</g>
<g>
</g>
<g>
</g>
<g>
</g>
<g>
</g>
<g>
</g>
<g>
</g>
<g>
</g>
<g>
</g>
<g>
</g>
<g>
</g>
</svg>
