<?xml version="1.0" encoding="iso-8859-1"?>
<!-- Generator: Adobe Illustrator 19.0.0, SVG Export Plug-In . SVG Version: 6.00 Build 0)  -->
<svg version="1.1" id="Layer_1" xmlns="http://www.w3.org/2000/svg" xmlns:xlink="http://www.w3.org/1999/xlink" x="0px" y="0px"
	 viewBox="0 0 512 512" style="enable-background:new 0 0 512 512;" xml:space="preserve">
<circle style="fill:#273B7A;" cx="256" cy="256" r="256"/>
<path style="fill:#121149;" d="M299.537,508.297c94.298-16.158,170.97-83.885,199.966-173.125L396.579,232.248l-170.46,97.88
	l17.453,17.453l-59.633,45.118L299.537,508.297z"/>
<path style="fill:#71E2EF;" d="M281.371,262.92l-22.552,22.487c-10.857,10.826-28.75,9.664-38.117-2.474l-76.943-99.716
	c-7.827-10.142-6.892-24.521,2.179-33.566l0,0c9.071-9.045,23.454-9.938,33.573-2.082l99.497,77.229
	C291.118,234.198,292.228,252.095,281.371,262.92z"/>
<path style="fill:#FFFFFF;" d="M326.11,398.222H200.811c-10.499,0-19.725-5.384-22.609-13.193l-50.874-137.735
	c-4.293-11.619,6.987-23.187,22.609-23.187H376.98c15.622,0,26.902,11.567,22.609,23.187l-50.872,137.735
	C345.834,392.838,336.608,398.222,326.11,398.222z"/>
<path style="fill:#D0D1D3;" d="M376.982,224.108H265.769v174.114h60.34c10.499,0,19.725-5.384,22.609-13.193l50.872-137.735
	C403.882,235.675,392.604,224.108,376.982,224.108z"/>
<g>
</g>
<g>
</g>
<g>
</g>
<g>
</g>
<g>
</g>
<g>
</g>
<g>
</g>
<g>
</g>
<g>
</g>
<g>
</g>
<g>
</g>
<g>
</g>
<g>
</g>
<g>
</g>
<g>
</g>
</svg>
