<?xml version="1.0" encoding="iso-8859-1"?>
<!-- Generator: Adobe Illustrator 19.0.0, SVG Export Plug-In . SVG Version: 6.00 Build 0)  -->
<svg version="1.1" id="Layer_1" xmlns="http://www.w3.org/2000/svg" xmlns:xlink="http://www.w3.org/1999/xlink" x="0px" y="0px"
	 viewBox="0 0 512 512" style="enable-background:new 0 0 512 512;" xml:space="preserve">
<circle style="fill:#FFC61B;" cx="256" cy="256" r="256"/>
<path style="fill:#EAA22F;" d="M290.149,509.728c116.264-15.5,207.844-109.022,220.374-226.199L398.489,171.494l-16.613,11.271
	l-40.543-40.543l-76.283,122.828l34.39,34.39l-134.844,84.735L290.149,509.728z"/>
<path style="fill:#D35933;" d="M366.79,299.098h-65.969v-141.36h65.969c23.986,0,43.499,19.513,43.499,43.499v54.36
	C410.29,279.585,390.777,299.098,366.79,299.098z M324.956,274.963h41.834c10.678,0,19.365-8.687,19.365-19.365v-54.36
	c0-10.678-8.687-19.365-19.365-19.365h-41.834V274.963z"/>
<path style="fill:#C92F00;" d="M194.913,398.222H301.57c21.961,0,39.764-17.803,39.764-39.762V142.222H155.152V358.46
	C155.152,380.419,172.954,398.222,194.913,398.222z"/>
<path style="fill:#930000;" d="M247.668,142.222v256h53.903c21.959,0,39.762-17.803,39.762-39.762V142.222H247.668z"/>
<circle style="fill:#E09112;" cx="248.242" cy="256" r="56.889"/>
<path style="fill:#FF5419;" d="M248.242,199.111c-0.193,0-0.383,0.012-0.574,0.014v113.748c0.191,0.002,0.381,0.014,0.574,0.014
	c31.418,0,56.889-25.471,56.889-56.889S279.661,199.111,248.242,199.111z"/>
<g>
</g>
<g>
</g>
<g>
</g>
<g>
</g>
<g>
</g>
<g>
</g>
<g>
</g>
<g>
</g>
<g>
</g>
<g>
</g>
<g>
</g>
<g>
</g>
<g>
</g>
<g>
</g>
<g>
</g>
</svg>
