<?xml version="1.0" encoding="iso-8859-1"?>
<!-- Generator: Adobe Illustrator 19.0.0, SVG Export Plug-In . SVG Version: 6.00 Build 0)  -->
<svg version="1.1" id="Layer_1" xmlns="http://www.w3.org/2000/svg" xmlns:xlink="http://www.w3.org/1999/xlink" x="0px" y="0px"
	 viewBox="0 0 512 512" style="enable-background:new 0 0 512 512;" xml:space="preserve">
<circle style="fill:#273B7A;" cx="256" cy="256" r="256"/>
<path style="fill:#121149;" d="M288.478,509.957C403.272,495.423,494.345,404.87,509.7,290.335l-58.039-58.039L176.7,288.18
	l4.26,4.262l-102.929,7.071L288.478,509.957z"/>
<path style="fill:#38C6D9;" d="M244.791,296.944c-3.248,0-6.275-2.055-7.359-5.306c-1.353-4.063,0.841-8.457,4.908-9.812
	l170.667-56.889c0.791-0.262,1.619-0.396,2.453-0.396h28.444c4.284,0,7.758,3.474,7.758,7.758c0,4.284-3.474,7.758-7.758,7.758
	h-27.186l-169.474,56.492C246.434,296.817,245.605,296.944,244.791,296.944z"/>
<path style="fill:#FFFFFF;" d="M119.524,317.63h136.763c31.261,0,56.603-25.341,56.603-56.603v-7.182H62.921v7.182
	C62.921,292.288,88.264,317.63,119.524,317.63z"/>
<path style="fill:#D0D1D3;" d="M185.322,253.845v63.785h70.966c31.261,0,56.603-25.341,56.603-56.603v-7.182H185.322z"/>
<g>
</g>
<g>
</g>
<g>
</g>
<g>
</g>
<g>
</g>
<g>
</g>
<g>
</g>
<g>
</g>
<g>
</g>
<g>
</g>
<g>
</g>
<g>
</g>
<g>
</g>
<g>
</g>
<g>
</g>
</svg>
