<?xml version="1.0" encoding="iso-8859-1"?>
<!-- Generator: Adobe Illustrator 19.0.0, SVG Export Plug-In . SVG Version: 6.00 Build 0)  -->
<svg version="1.1" id="Layer_1" xmlns="http://www.w3.org/2000/svg" xmlns:xlink="http://www.w3.org/1999/xlink" x="0px" y="0px"
	 viewBox="0 0 512 512" style="enable-background:new 0 0 512 512;" xml:space="preserve">
<circle style="fill:#273B7A;" cx="256" cy="256" r="256"/>
<path style="fill:#121149;" d="M510.29,226.466L394.802,110.978L247.201,262.282l-34.325,28.229l-21.554-17.013l-39.61-1.472
	l37.745,37.745l-75.173,61.823l140.393,140.393c65.955,0.338,132.017-24.642,182.339-74.964
	C494.532,379.507,518.947,301.44,510.29,226.466z"/>
<path style="fill:#FFFFFF;" d="M215.69,366.894c2.741-5.375,14.286-7.942,15.207-13.779c0.929-5.894-9.288-11.907-10.218-17.801
	c-0.919-5.837,6.966-14.71,4.227-20.087c-2.644-5.187-14.4-4.048-18.741-8.387c-4.339-4.339-3.2-16.096-8.387-18.741
	c-5.375-2.741-14.25,5.146-20.085,4.227c-5.894-0.929-11.907-11.147-17.801-10.218c-5.837,0.919-8.404,12.466-13.779,15.207
	c-5.187,2.644-16.06-2.129-20.399,2.212c-4.339,4.339,0.433,15.212-2.212,20.399c-2.741,5.375-14.286,7.942-15.207,13.779
	c-0.929,5.894,9.288,11.907,10.218,17.801c0.919,5.837-6.966,14.71-4.227,20.087c2.644,5.187,14.4,4.048,18.741,8.387
	c4.339,4.339,3.2,16.096,8.387,18.741c5.375,2.741,14.25-5.146,20.085-4.227c5.894,0.929,11.907,11.147,17.801,10.218
	c5.837-0.919,8.404-12.466,13.779-15.207c5.187-2.644,16.058,2.129,20.399-2.212C217.819,382.952,213.045,372.081,215.69,366.894z
	 M161.063,351.941c-4.713-4.713-4.713-12.354,0-17.065c4.713-4.711,12.354-4.713,17.065,0c4.713,4.713,4.713,12.353,0,17.067
	C173.416,356.654,165.776,356.654,161.063,351.941z"/>
<path style="fill:#D0D1D3;" d="M224.906,315.227c-2.644-5.187-14.402-4.048-18.741-8.387c-0.329-0.329-0.617-0.712-0.89-1.121
	l-27.801,28.567c0.221,0.191,0.443,0.381,0.653,0.591c4.713,4.713,4.713,12.353,0,17.065c-4.713,4.713-12.354,4.713-17.067,0
	c-0.133-0.131-0.247-0.274-0.371-0.41l-27.677,28.438c0.003,0.003,0.009,0.005,0.01,0.009c4.339,4.339,3.2,16.096,8.387,18.741
	c5.375,2.741,14.25-5.146,20.085-4.227c5.894,0.929,11.907,11.147,17.801,10.218c5.837-0.921,8.404-12.466,13.779-15.207
	c5.187-2.644,16.058,2.129,20.399-2.21c4.339-4.341-0.433-15.212,2.212-20.399c2.741-5.375,14.286-7.942,15.207-13.779
	c0.929-5.894-9.288-11.907-10.218-17.801C219.76,329.476,227.645,320.602,224.906,315.227z"/>
<path style="fill:#FFC61B;" d="M294.341,226.406l-9.75-9.75l-64.519,64.519c-17.398-14.074-40.207-20.394-62.574-17.005
	c-3.767,0.572-6.354,4.089-5.782,7.854c0.572,3.765,4.084,6.334,7.854,5.782c20.813-3.155,42.108,3.82,56.96,18.67
	c14.853,14.855,21.833,36.149,18.672,56.96c-0.572,3.765,2.015,7.282,5.782,7.854c0.35,0.052,0.698,0.079,1.043,0.079
	c3.35,0,6.289-2.448,6.809-5.861c3.543-23.311-3.474-47.116-18.83-64.762L294.341,226.406z"/>
<path style="fill:#EAA22F;" d="M288.323,220.386l-72.973,74.981c0.391,0.372,0.795,0.726,1.177,1.108
	c14.853,14.855,21.833,36.149,18.672,56.96c-0.572,3.765,2.015,7.282,5.782,7.854c0.35,0.052,0.698,0.079,1.043,0.079
	c3.35,0,6.289-2.448,6.809-5.861c3.543-23.311-3.474-47.116-18.83-64.762l64.34-64.34L288.323,220.386z"/>
<path style="fill:#FF7F4F;" d="M397.653,113.342L397.653,113.342c-8.147-8.147-21.357-8.147-29.506,0l-96.713,96.713
	c-8.147,8.147-8.147,21.357,0,29.506l0,0c8.147,8.147,21.357,8.147,29.506,0l96.713-96.713
	C405.802,134.699,405.802,121.489,397.653,113.342z"/>
<path style="fill:#D35933;" d="M394.802,110.976l-124.219,127.64c0.281,0.317,0.55,0.641,0.853,0.945l0,0
	c8.147,8.147,21.357,8.147,29.506,0l96.713-96.713c8.147-8.149,8.147-21.357,0-29.506C396.762,112.45,395.8,111.673,394.802,110.976
	z"/>
<g>
</g>
<g>
</g>
<g>
</g>
<g>
</g>
<g>
</g>
<g>
</g>
<g>
</g>
<g>
</g>
<g>
</g>
<g>
</g>
<g>
</g>
<g>
</g>
<g>
</g>
<g>
</g>
<g>
</g>
</svg>
