<?xml version="1.0" encoding="iso-8859-1"?>
<!-- Generator: Adobe Illustrator 19.0.0, SVG Export Plug-In . SVG Version: 6.00 Build 0)  -->
<svg version="1.1" id="Layer_1" xmlns="http://www.w3.org/2000/svg" xmlns:xlink="http://www.w3.org/1999/xlink" x="0px" y="0px"
	 viewBox="0 0 512 512" style="enable-background:new 0 0 512 512;" xml:space="preserve">
<circle style="fill:#273B7A;" cx="256" cy="256" r="256"/>
<path style="fill:#121149;" d="M512,256c0-16.337-1.548-32.311-4.474-47.799L405.663,106.337l-103.901,85.094l20.073,20.073
	L106.337,405.663l101.864,101.864C223.689,510.452,239.663,512,256,512c107.586,0,199.658-66.374,237.535-160.399l-0.498-0.498
	l1.186-1.186C505.697,320.838,512,289.156,512,256z"/>
<path style="fill:#FFC61B;" d="M176.768,361.912l-43.751,43.751c-7.366,7.366-19.311,7.366-26.677,0l0,0
	c-7.366-7.366-7.366-19.311,0-26.677l43.751-43.751c7.366-7.366,19.311-7.366,26.677,0l0,0
	C184.134,342.6,184.134,354.544,176.768,361.912z"/>
<path style="fill:#EAA22F;" d="M106.337,405.663c7.366,7.366,19.311,7.366,26.677,0l43.751-43.751
	c7.366-7.366,7.366-19.311,0-26.677L106.337,405.663z"/>
<path style="fill:#FFC61B;" d="M405.663,133.015l-43.751,43.751c-7.366,7.366-19.311,7.366-26.677,0l0,0
	c-7.366-7.366-7.366-19.311,0-26.677l43.751-43.751c7.366-7.366,19.311-7.366,26.677,0l0,0
	C413.029,113.705,413.029,125.649,405.663,133.015z"/>
<path style="fill:#EAA22F;" d="M405.663,106.337l-70.428,70.428c7.366,7.366,19.311,7.366,26.677,0l43.751-43.751
	C413.029,125.649,413.029,113.705,405.663,106.337z"/>
<path style="fill:#FFEDB5;" d="M387.612,194.819L194.819,387.61c-9.969,9.969-26.134,9.969-36.104,0l-34.326-34.326
	c-9.969-9.969-9.969-26.134,0-36.104l192.793-192.79c9.969-9.969,26.134-9.969,36.104,0l34.326,34.326
	C397.581,168.684,397.581,184.849,387.612,194.819z"/>
<path style="fill:#FEE187;" d="M370.448,141.552L141.553,370.448l17.163,17.163c9.969,9.969,26.134,9.969,36.104,0l192.791-192.793
	c9.969-9.969,9.969-26.134,0-36.104L370.448,141.552z"/>
<g>
</g>
<g>
</g>
<g>
</g>
<g>
</g>
<g>
</g>
<g>
</g>
<g>
</g>
<g>
</g>
<g>
</g>
<g>
</g>
<g>
</g>
<g>
</g>
<g>
</g>
<g>
</g>
<g>
</g>
</svg>
