<?xml version="1.0" encoding="iso-8859-1"?>
<!-- Generator: Adobe Illustrator 19.0.0, SVG Export Plug-In . SVG Version: 6.00 Build 0)  -->
<svg version="1.1" id="Layer_1" xmlns="http://www.w3.org/2000/svg" xmlns:xlink="http://www.w3.org/1999/xlink" x="0px" y="0px"
	 viewBox="0 0 512 512" style="enable-background:new 0 0 512 512;" xml:space="preserve">
<circle style="fill:#FFEDB5;" cx="256" cy="256" r="256"/>
<path style="fill:#FEE187;" d="M510.633,282.571L367.192,139.13l-25.55,19.204l-30.763-30.765H168.081v161.216l-25.571,19.22
	l-2.155,17.813L102.7,364.511c0,0,76.157,84.854,136.995,146.956c5.394,0.34,10.826,0.531,16.305,0.531
	C388.413,512,497.34,411.469,510.633,282.571z"/>
<g>
	<path style="fill:#59595B;" d="M183.956,384.862h-31.751c-4.086,0-7.397-3.312-7.397-7.399v-8.476c0-4.086,3.312-7.399,7.397-7.399
		h31.749c4.086,0,7.397,3.312,7.397,7.399v8.476C191.354,381.55,188.042,384.862,183.956,384.862z"/>
	<path style="fill:#59595B;" d="M359.793,384.862h-31.749c-4.086,0-7.399-3.312-7.399-7.399v-8.476c0-4.086,3.312-7.399,7.399-7.399
		h31.749c4.086,0,7.399,3.312,7.399,7.399v8.476C367.192,381.55,363.88,384.862,359.793,384.862z"/>
</g>
<path style="fill:#808183;" d="M312.673,113.778H199.327c-39.393,0-71.327,31.934-71.327,71.327v156.229h256V185.104
	C384,145.711,352.066,113.778,312.673,113.778z M298.667,170.667h-85.333c-7.854,0-14.222-6.368-14.222-14.222
	s6.368-14.222,14.222-14.222h85.333c7.854,0,14.222,6.368,14.222,14.222S306.521,170.667,298.667,170.667z"/>
<path style="fill:#59595B;" d="M384,185.104c0-39.393-31.934-71.327-71.327-71.327H254.85v28.444h43.815
	c7.854,0,14.222,6.368,14.222,14.222s-6.366,14.222-14.221,14.222h-43.815v170.667H384V185.104z"/>
<path style="fill:#FF5419;" d="M113.705,369.778h284.589c7.814,0,14.15-6.335,14.15-14.15v-28.589c0-7.814-6.335-14.15-14.15-14.15
	H113.705c-7.814,0-14.15,6.335-14.15,14.15v28.589C99.556,363.442,105.891,369.778,113.705,369.778z"/>
<path style="fill:#C92F00;" d="M398.295,312.889H254.852v56.889h143.443c7.814,0,14.15-6.335,14.15-14.15v-28.589
	C412.444,319.224,406.109,312.889,398.295,312.889z"/>
<g>
	<path style="fill:#272525;" d="M232.246,288.351c-1.081,0-2.164-0.403-3-1.215c-1.708-1.657-1.751-4.386-0.095-6.094l84.471-87.111
		c1.658-1.708,4.387-1.75,6.094-0.095c1.708,1.657,1.752,4.386,0.095,6.094l-84.471,87.111
		C234.494,287.913,233.37,288.351,232.246,288.351z"/>
	<path style="fill:#272525;" d="M189.149,288.351c-1.081,0-2.163-0.403-3-1.215c-1.708-1.657-1.751-4.386-0.095-6.094l84.471-87.111
		c1.658-1.708,4.387-1.75,6.094-0.095c1.708,1.657,1.751,4.386,0.095,6.094l-84.471,87.111
		C191.397,287.913,190.273,288.351,189.149,288.351z"/>
	<path style="fill:#272525;" d="M150.361,288.351c-1.081,0-2.163-0.403-3-1.215c-1.708-1.657-1.751-4.386-0.095-6.094l84.471-87.111
		c1.658-1.708,4.389-1.75,6.094-0.095c1.708,1.657,1.751,4.386,0.095,6.094l-84.471,87.111
		C152.609,287.913,151.485,288.351,150.361,288.351z"/>
	<path style="fill:#272525;" d="M150.361,255.798c-1.067,0-2.136-0.395-2.972-1.188c-1.724-1.639-1.791-4.368-0.152-6.092
		l51.921-54.558c1.639-1.727,4.367-1.793,6.092-0.15c1.724,1.639,1.791,4.368,0.152,6.092l-51.921,54.558
		C152.635,255.35,151.499,255.798,150.361,255.798z"/>
	<path style="fill:#272525;" d="M309.72,288.351c-1.067,0-2.136-0.395-2.972-1.188c-1.724-1.639-1.791-4.368-0.152-6.092
		l51.921-54.558c1.641-1.727,4.367-1.793,6.092-0.15c1.724,1.639,1.791,4.368,0.152,6.092l-51.921,54.558
		C311.994,287.903,310.858,288.351,309.72,288.351z"/>
	<path style="fill:#272525;" d="M150.359,221.37c-1.002,0-2.008-0.347-2.825-1.057c-1.796-1.56-1.988-4.282-0.426-6.078
		l17.491-20.132c1.56-1.798,4.28-1.989,6.078-0.426c1.796,1.56,1.988,4.282,0.426,6.078l-17.491,20.132
		C152.76,220.869,151.562,221.37,150.359,221.37z"/>
	<path style="fill:#272525;" d="M342.321,288.351c-1.002,0-2.008-0.347-2.825-1.057c-1.796-1.56-1.988-4.282-0.426-6.079
		l17.491-20.132c1.56-1.798,4.28-1.989,6.078-0.426c1.796,1.56,1.988,4.282,0.426,6.078l-17.491,20.132
		C344.724,287.849,343.524,288.351,342.321,288.351z"/>
	<path style="fill:#272525;" d="M275.344,288.351c-1.081,0-2.164-0.403-3-1.215c-1.708-1.657-1.751-4.386-0.095-6.094l84.471-87.111
		c1.658-1.708,4.387-1.75,6.094-0.095c1.708,1.657,1.751,4.386,0.095,6.094l-84.471,87.111
		C277.592,287.913,276.468,288.351,275.344,288.351z"/>
</g>
<g>
</g>
<g>
</g>
<g>
</g>
<g>
</g>
<g>
</g>
<g>
</g>
<g>
</g>
<g>
</g>
<g>
</g>
<g>
</g>
<g>
</g>
<g>
</g>
<g>
</g>
<g>
</g>
<g>
</g>
</svg>
