<?xml version="1.0" encoding="iso-8859-1"?>
<!-- Generator: Adobe Illustrator 19.0.0, SVG Export Plug-In . SVG Version: 6.00 Build 0)  -->
<svg version="1.1" id="Layer_1" xmlns="http://www.w3.org/2000/svg" xmlns:xlink="http://www.w3.org/1999/xlink" x="0px" y="0px"
	 viewBox="0 0 512 512" style="enable-background:new 0 0 512 512;" xml:space="preserve">
<circle style="fill:#273B7A;" cx="256" cy="256" r="256"/>
<path style="fill:#121149;" d="M512,256c0-1.896-0.031-3.787-0.072-5.673l-38.071-38.071l-64.615-64.8l-307.9,15.884
	l155.682,155.682l-139.516,74.319l117.826,117.825C242.152,511.712,249.042,512,256,512C397.384,512,512,397.384,512,256z"/>
<rect x="241.778" y="163.34" style="fill:#E09112;" width="28.444" height="85.333"/>
<rect x="255.431" y="163.34" style="fill:#FF5419;" width="14.796" height="85.333"/>
<path style="fill:#D35933;" d="M140.272,403.394h231.453c17.013,0,30.806-13.791,30.806-30.806V249.742
	c0-17.013-13.791-30.806-30.806-30.806H140.272c-17.013,0-30.806,13.791-30.806,30.806v122.847
	C109.468,389.603,123.259,403.394,140.272,403.394z"/>
<path style="fill:#B54324;" d="M371.726,218.936h-116.3v184.458h116.3c17.013,0,30.806-13.791,30.806-30.806V249.742
	C402.532,232.727,388.739,218.936,371.726,218.936z"/>
<path style="fill:#FFC61B;" d="M113.778,170.667h284.444c7.854,0,14.222-6.368,14.222-14.222l0,0
	c0-7.854-6.368-14.222-14.222-14.222H113.778c-7.854,0-14.222,6.368-14.222,14.222l0,0
	C99.556,164.299,105.922,170.667,113.778,170.667z"/>
<path style="fill:#EAA22F;" d="M398.222,142.222H255.426v28.444h142.796c7.854,0,14.222-6.368,14.222-14.222
	S406.076,142.222,398.222,142.222z"/>
<path style="fill:#9AF0F4;" d="M184.098,353.832h143.803c7.418,0,13.433-6.013,13.433-13.433v-58.47
	c0-7.418-6.013-13.433-13.433-13.433H184.098c-7.418,0-13.431,6.013-13.431,13.433v58.47
	C170.667,347.819,176.68,353.832,184.098,353.832z"/>
<path style="fill:#71E2EF;" d="M327.901,268.498h-72.476v85.333h72.476c7.418,0,13.433-6.013,13.433-13.433v-58.47
	C341.333,274.511,335.319,268.498,327.901,268.498z"/>
<g>
	<path style="fill:#FFFFFF;" d="M227.556,339.609h-28.444c-2.381,0-4.31-1.929-4.31-4.31V287.03c0-2.381,1.929-4.31,4.31-4.31
		h28.444c2.381,0,4.31,1.929,4.31,4.31V335.3C231.865,337.68,229.935,339.609,227.556,339.609z M203.421,330.99h19.825v-39.65
		h-19.825V330.99z"/>
	<path style="fill:#FFFFFF;" d="M284.444,339.609H256c-2.381,0-4.31-1.929-4.31-4.31V287.03c0-2.381,1.929-4.31,4.31-4.31h28.444
		c2.381,0,4.31,1.929,4.31,4.31V335.3C288.754,337.68,286.823,339.609,284.444,339.609z M260.31,330.99h19.825v-39.65H260.31V330.99
		z"/>
	<path style="fill:#FFFFFF;" d="M312.889,339.609c-2.381,0-4.31-1.929-4.31-4.31V287.03c0-2.381,1.929-4.31,4.31-4.31
		s4.31,1.929,4.31,4.31V335.3C317.199,337.68,315.268,339.609,312.889,339.609z"/>
</g>
<g>
</g>
<g>
</g>
<g>
</g>
<g>
</g>
<g>
</g>
<g>
</g>
<g>
</g>
<g>
</g>
<g>
</g>
<g>
</g>
<g>
</g>
<g>
</g>
<g>
</g>
<g>
</g>
<g>
</g>
</svg>
