<?xml version="1.0" encoding="iso-8859-1"?>
<!-- Generator: Adobe Illustrator 19.0.0, SVG Export Plug-In . SVG Version: 6.00 Build 0)  -->
<svg version="1.1" id="Layer_1" xmlns="http://www.w3.org/2000/svg" xmlns:xlink="http://www.w3.org/1999/xlink" x="0px" y="0px"
	 viewBox="0 0 512 512" style="enable-background:new 0 0 512 512;" xml:space="preserve">
<circle style="fill:#273B7A;" cx="256" cy="256" r="256"/>
<path style="fill:#121149;" d="M264.025,511.862C401.694,507.621,512,394.699,512,256c0-0.322-0.01-0.64-0.012-0.962L383.9,126.95
	l-207.2,207.2l1.729,1.729l-46.923,43.465L264.025,511.862z"/>
<rect x="232.344" y="219.746" transform="matrix(-0.7071 -0.7071 0.7071 -0.7071 216.9595 631.3621)" style="fill:#FFC61B;" width="13.789" height="102.003"/>
<rect x="238.748" y="222.413" transform="matrix(0.7071 0.7071 -0.7071 0.7071 264.1815 -90.9627)" style="fill:#EAA22F;" width="6.289" height="102.003"/>
<path style="fill:#FFFFFF;" d="M221.212,360.907c-19.916,19.916-70.239,37.948-90.157,18.032
	c-19.916-19.916-1.886-70.239,18.032-90.157s52.208-19.916,72.125,0C241.128,308.698,241.128,340.99,221.212,360.907z"/>
<path style="fill:#D0D1D3;" d="M131.506,379.344c20.206,19.23,69.932,1.334,89.703-18.439c19.773-19.773,19.906-51.734,0.419-71.685
	L131.506,379.344z"/>
<path style="fill:#FF7F4F;" d="M383.491,126.5L383.491,126.5c-8.147-8.147-21.357-8.147-29.506,0l-96.713,96.713
	c-8.147,8.147-8.147,21.357,0,29.506l0,0c8.147,8.147,21.357,8.147,29.506,0l96.713-96.713
	C391.64,147.858,391.64,134.647,383.491,126.5z"/>
<path style="fill:#D35933;" d="M257.724,253.126c8.176,7.718,21.052,7.596,29.055-0.409l96.713-96.713
	c8.002-8.002,8.126-20.878,0.409-29.055L257.724,253.126z"/>
<g>
</g>
<g>
</g>
<g>
</g>
<g>
</g>
<g>
</g>
<g>
</g>
<g>
</g>
<g>
</g>
<g>
</g>
<g>
</g>
<g>
</g>
<g>
</g>
<g>
</g>
<g>
</g>
<g>
</g>
</svg>
