<?xml version="1.0" encoding="iso-8859-1"?>
<!-- Generator: Adobe Illustrator 19.0.0, SVG Export Plug-In . SVG Version: 6.00 Build 0)  -->
<svg version="1.1" id="Layer_1" xmlns="http://www.w3.org/2000/svg" xmlns:xlink="http://www.w3.org/1999/xlink" x="0px" y="0px"
	 viewBox="0 0 512 512" style="enable-background:new 0 0 512 512;" xml:space="preserve">
<circle style="fill:#FFC61B;" cx="256" cy="256" r="256"/>
<path style="fill:#EAA22F;" d="M512,256c0-6.74-0.264-13.417-0.776-20.027l-119.61-119.61L260.88,306.85l6.06,6.06l-146.485,83.228
	l115.045,115.043c6.765,0.536,13.6,0.819,20.502,0.819C397.384,512,512,397.384,512,256z"/>
<path style="fill:#386895;" d="M136.066,402.532h239.869c12.309,0,22.288-9.978,22.288-22.288V131.756
	c0-12.309-9.978-22.288-22.288-22.288H136.066c-12.31,0-22.288,9.978-22.288,22.288v248.489
	C113.778,392.554,123.756,402.532,136.066,402.532z"/>
<path style="fill:#273B7A;" d="M375.934,109.468h-121.37v293.064h121.37c12.309,0,22.288-9.978,22.288-22.288V131.756
	C398.222,119.446,388.244,109.468,375.934,109.468z"/>
<circle style="fill:#D0D1D3;" cx="184.889" cy="187.044" r="42.667"/>
<circle style="fill:#A6A8AA;" cx="327.111" cy="187.044" r="42.667"/>
<circle style="fill:#D0D1D3;" cx="184.889" cy="298.667" r="42.667"/>
<g>
	<circle style="fill:#FF7F4F;" cx="154.721" cy="376.88" r="7.111"/>
	<circle style="fill:#FF7F4F;" cx="197.387" cy="376.88" r="7.111"/>
	<circle style="fill:#FF7F4F;" cx="240.054" cy="376.88" r="7.111"/>
	<circle style="fill:#FF7F4F;" cx="282.721" cy="376.88" r="7.111"/>
	<circle style="fill:#FF7F4F;" cx="353.832" cy="376.88" r="9.481"/>
</g>
<circle style="fill:#A6A8AA;" cx="327.111" cy="298.667" r="42.667"/>
<g>
</g>
<g>
</g>
<g>
</g>
<g>
</g>
<g>
</g>
<g>
</g>
<g>
</g>
<g>
</g>
<g>
</g>
<g>
</g>
<g>
</g>
<g>
</g>
<g>
</g>
<g>
</g>
<g>
</g>
</svg>
