<?xml version="1.0" encoding="iso-8859-1"?>
<!-- Generator: Adobe Illustrator 19.0.0, SVG Export Plug-In . SVG Version: 6.00 Build 0)  -->
<svg version="1.1" id="Layer_1" xmlns="http://www.w3.org/2000/svg" xmlns:xlink="http://www.w3.org/1999/xlink" x="0px" y="0px"
	 viewBox="0 0 512 512" style="enable-background:new 0 0 512 512;" xml:space="preserve">
<circle style="fill:#386895;" cx="256" cy="256" r="256"/>
<path style="fill:#273B7A;" d="M306.245,507.058c103.498-20.599,184.494-103.59,202.15-208.117l-75.545-76.057l-4.475,6.382
	l-30.153-30.155L258.519,343.852L138.631,223.965l-58.861,8.994l106.636,106.875l-36.43,10.955L306.245,507.058z"/>
<path style="fill:#FFFFFF;" d="M398.222,256c0,78.546-63.676,142.222-142.222,142.222S113.778,334.546,113.778,256v-56.889h284.444
	V256z"/>
<path style="fill:#D0D1D3;" d="M256,199.111v199.111c78.546,0,142.222-63.676,142.222-142.222v-56.889H256z"/>
<path style="fill:#A6A8AA;" d="M142.222,235.313H85.333c-4.284,0-7.758-3.474-7.758-7.758c0-4.284,3.474-7.758,7.758-7.758h56.889
	c4.284,0,7.758,3.474,7.758,7.758C149.98,231.839,146.506,235.313,142.222,235.313z"/>
<g>
	<path style="fill:#808183;" d="M426.667,235.313h-56.889c-4.284,0-7.758-3.474-7.758-7.758c0-4.284,3.474-7.758,7.758-7.758h56.889
		c4.284,0,7.758,3.474,7.758,7.758C434.424,231.839,430.951,235.313,426.667,235.313z"/>
	<path style="fill:#808183;" d="M170.661,290.478c-1.586,0-3.138-0.638-4.26-1.776c-1.119-1.121-1.774-2.672-1.774-4.258
		c0-1.586,0.655-3.138,1.774-4.275c2.243-2.241,6.277-2.241,8.533,0c1.121,1.138,1.76,2.691,1.76,4.275s-0.638,3.136-1.76,4.258
		C173.816,289.84,172.247,290.478,170.661,290.478z"/>
	<path style="fill:#808183;" d="M227.55,290.478c-1.586,0-3.138-0.638-4.26-1.776c-1.119-1.121-1.774-2.672-1.774-4.258
		c0-1.586,0.655-3.138,1.774-4.275c2.243-2.241,6.277-2.241,8.533,0c1.121,1.138,1.76,2.691,1.76,4.275s-0.638,3.136-1.76,4.258
		C230.686,289.84,229.136,290.478,227.55,290.478z"/>
	<path style="fill:#808183;" d="M284.439,290.478c-1.586,0-3.138-0.638-4.26-1.776c-1.119-1.121-1.774-2.672-1.774-4.258
		c0-1.586,0.655-3.138,1.774-4.275c2.243-2.241,6.277-2.241,8.533,0c1.121,1.138,1.76,2.691,1.76,4.275s-0.638,3.136-1.76,4.258
		C287.575,289.84,286.025,290.478,284.439,290.478z"/>
	<path style="fill:#808183;" d="M312.884,290.478c-1.586,0-3.138-0.638-4.26-1.776c-1.119-1.121-1.774-2.672-1.774-4.258
		c0-1.586,0.655-3.138,1.774-4.275c2.26-2.241,6.277-2.241,8.533,0c1.121,1.138,1.76,2.691,1.76,4.275s-0.638,3.136-1.76,4.258
		C316.038,289.84,314.47,290.478,312.884,290.478z"/>
	<path style="fill:#808183;" d="M341.328,290.478c-1.586,0-3.138-0.638-4.26-1.776c-1.119-1.121-1.774-2.672-1.774-4.258
		c0-1.586,0.655-3.138,1.774-4.275c2.26-2.241,6.277-2.241,8.533,0c1.121,1.138,1.76,2.691,1.76,4.275s-0.638,3.136-1.76,4.258
		C344.464,289.84,342.914,290.478,341.328,290.478z"/>
	<path style="fill:#808183;" d="M369.773,290.478c-1.586,0-3.138-0.638-4.26-1.776c-1.119-1.121-1.774-2.672-1.774-4.258
		c0-1.586,0.655-3.138,1.774-4.275c2.26-2.241,6.292-2.241,8.533,0c1.121,1.138,1.76,2.691,1.76,4.275s-0.638,3.136-1.76,4.258
		C372.927,289.84,371.376,290.478,369.773,290.478z"/>
	<path style="fill:#808183;" d="M255.995,290.478c-1.586,0-3.138-0.638-4.26-1.776c-1.119-1.121-1.774-2.672-1.774-4.258
		c0-1.586,0.655-3.138,1.774-4.275c2.243-2.241,6.277-2.241,8.533,0c1.121,1.138,1.76,2.691,1.76,4.275s-0.638,3.136-1.76,4.258
		C259.131,289.84,257.581,290.478,255.995,290.478z"/>
	<path style="fill:#808183;" d="M199.106,290.478c-1.586,0-3.138-0.638-4.26-1.776c-1.119-1.121-1.774-2.672-1.774-4.258
		c0-1.586,0.655-3.138,1.774-4.275c2.26-2.241,6.277-2.241,8.533,0c1.121,1.138,1.76,2.691,1.76,4.275s-0.638,3.136-1.76,4.258
		C202.242,289.84,200.692,290.478,199.106,290.478z"/>
	<path style="fill:#808183;" d="M142.217,290.478c-1.586,0-3.138-0.638-4.26-1.776c-1.119-1.121-1.774-2.672-1.774-4.258
		c0-1.586,0.655-3.138,1.774-4.275c2.243-2.241,6.277-2.241,8.533,0c1.121,1.138,1.76,2.691,1.76,4.275s-0.638,3.136-1.76,4.258
		C145.372,289.84,143.803,290.478,142.217,290.478z"/>
	<path style="fill:#808183;" d="M184.453,318.923c-1.586,0-3.138-0.638-4.26-1.76c-1.136-1.138-1.774-2.689-1.774-4.274
		s0.638-3.138,1.774-4.275c2.243-2.241,6.277-2.241,8.533,0c1.121,1.138,1.76,2.691,1.76,4.275s-0.638,3.136-1.76,4.274
		C187.589,318.285,186.039,318.923,184.453,318.923z"/>
	<path style="fill:#808183;" d="M241.342,318.923c-1.586,0-3.138-0.638-4.26-1.76c-1.119-1.138-1.774-2.689-1.774-4.274
		s0.655-3.138,1.774-4.275c2.243-2.241,6.277-2.241,8.533,0c1.121,1.121,1.76,2.691,1.76,4.275s-0.638,3.155-1.76,4.274
		C244.477,318.285,242.928,318.923,241.342,318.923z"/>
	<path style="fill:#808183;" d="M298.23,318.923c-1.586,0-3.138-0.638-4.26-1.76c-1.119-1.138-1.774-2.689-1.774-4.274
		s0.655-3.138,1.774-4.275c2.243-2.241,6.277-2.241,8.533,0c1.121,1.138,1.76,2.691,1.76,4.275s-0.638,3.136-1.76,4.274
		C301.385,318.285,299.834,318.923,298.23,318.923z"/>
	<path style="fill:#808183;" d="M326.675,318.923c-1.586,0-3.138-0.638-4.26-1.76c-1.119-1.119-1.774-2.689-1.774-4.274
		s0.655-3.155,1.774-4.275c2.243-2.241,6.277-2.241,8.533,0c1.121,1.138,1.76,2.691,1.76,4.275s-0.638,3.136-1.76,4.274
		C329.811,318.285,328.261,318.923,326.675,318.923z"/>
	<path style="fill:#808183;" d="M355.119,318.923c-1.586,0-3.138-0.638-4.26-1.76c-1.119-1.119-1.774-2.689-1.774-4.274
		s0.655-3.155,1.774-4.275c2.243-2.241,6.277-2.241,8.533,0c1.121,1.138,1.76,2.691,1.76,4.275s-0.638,3.136-1.76,4.274
		C358.274,318.285,356.705,318.923,355.119,318.923z"/>
	<path style="fill:#808183;" d="M269.786,318.923c-1.586,0-3.138-0.638-4.26-1.76c-1.119-1.138-1.774-2.689-1.774-4.274
		s0.655-3.138,1.774-4.275c2.243-2.241,6.277-2.241,8.533,0c1.121,1.138,1.76,2.691,1.76,4.275s-0.638,3.136-1.76,4.274
		C272.941,318.285,271.372,318.923,269.786,318.923z"/>
	<path style="fill:#808183;" d="M212.897,318.923c-1.586,0-3.138-0.638-4.26-1.76c-1.119-1.138-1.774-2.689-1.774-4.274
		s0.655-3.138,1.774-4.275c2.243-2.241,6.277-2.241,8.533,0c1.121,1.138,1.76,2.691,1.76,4.275s-0.638,3.136-1.76,4.274
		C216.052,318.285,214.483,318.923,212.897,318.923z"/>
	<path style="fill:#808183;" d="M156.008,318.923c-1.586,0-3.138-0.638-4.26-1.76c-1.119-1.119-1.774-2.689-1.774-4.274
		s0.655-3.155,1.774-4.275c2.243-2.241,6.277-2.241,8.533,0c1.121,1.138,1.76,2.691,1.76,4.275s-0.638,3.136-1.76,4.274
		C159.163,318.285,157.594,318.923,156.008,318.923z"/>
	<path style="fill:#808183;" d="M170.661,347.367c-1.586,0-3.138-0.638-4.26-1.76c-1.119-1.119-1.774-2.689-1.774-4.274
		c0-1.584,0.655-3.155,1.774-4.275c2.243-2.241,6.292-2.241,8.533,0c1.121,1.138,1.76,2.691,1.76,4.275
		c0,1.584-0.638,3.136-1.76,4.274C173.816,346.729,172.247,347.367,170.661,347.367z"/>
	<path style="fill:#808183;" d="M227.55,347.367c-1.586,0-3.138-0.638-4.26-1.76c-1.119-1.138-1.774-2.689-1.774-4.274
		c0-1.584,0.655-3.138,1.774-4.275c2.243-2.241,6.277-2.241,8.533,0c1.121,1.138,1.76,2.691,1.76,4.275
		c0,1.584-0.638,3.136-1.76,4.274C230.686,346.729,229.136,347.367,227.55,347.367z"/>
	<path style="fill:#808183;" d="M284.439,347.367c-1.586,0-3.138-0.638-4.26-1.76c-1.119-1.138-1.774-2.689-1.774-4.274
		c0-1.584,0.655-3.138,1.774-4.275c2.243-2.241,6.292-2.241,8.533,0c1.121,1.138,1.76,2.691,1.76,4.275
		c0,1.584-0.638,3.136-1.76,4.274C287.575,346.729,286.025,347.367,284.439,347.367z"/>
	<path style="fill:#808183;" d="M312.884,347.367c-1.586,0-3.138-0.638-4.26-1.76c-1.119-1.138-1.774-2.689-1.774-4.274
		c0-1.584,0.655-3.138,1.774-4.275c2.243-2.224,6.277-2.241,8.533,0c1.121,1.138,1.76,2.691,1.76,4.275
		c0,1.584-0.638,3.136-1.76,4.274C316.019,346.729,314.47,347.367,312.884,347.367z"/>
	<path style="fill:#808183;" d="M341.328,347.367c-1.586,0-3.138-0.638-4.26-1.76c-1.119-1.138-1.774-2.689-1.774-4.274
		c0-1.584,0.655-3.138,1.774-4.275c2.224-2.241,6.292-2.241,8.533,0c1.121,1.138,1.76,2.691,1.76,4.275
		c0,1.584-0.638,3.136-1.76,4.274C344.483,346.729,342.931,347.367,341.328,347.367z"/>
	<path style="fill:#808183;" d="M255.995,347.367c-1.586,0-3.138-0.638-4.26-1.76c-1.119-1.138-1.774-2.689-1.774-4.274
		c0-1.584,0.655-3.138,1.774-4.275c2.243-2.241,6.277-2.241,8.533,0c1.121,1.138,1.76,2.691,1.76,4.275
		c0,1.584-0.638,3.136-1.76,4.274C259.131,346.729,257.581,347.367,255.995,347.367z"/>
	<path style="fill:#808183;" d="M199.106,347.367c-1.586,0-3.138-0.638-4.26-1.76c-1.119-1.138-1.774-2.689-1.774-4.274
		c0-1.584,0.655-3.138,1.774-4.275c2.243-2.241,6.277-2.241,8.533,0c1.121,1.138,1.76,2.691,1.76,4.275
		c0,1.584-0.638,3.136-1.76,4.274C202.242,346.729,200.692,347.367,199.106,347.367z"/>
	<path style="fill:#808183;" d="M241.342,375.811c-1.586,0-3.138-0.638-4.26-1.776c-1.119-1.121-1.774-2.672-1.774-4.258
		s0.655-3.138,1.774-4.275c2.243-2.224,6.277-2.241,8.533,0c1.121,1.138,1.76,2.691,1.76,4.275s-0.638,3.136-1.76,4.258
		C244.477,375.174,242.928,375.811,241.342,375.811z"/>
	<path style="fill:#808183;" d="M298.23,375.811c-1.586,0-3.138-0.638-4.26-1.776c-1.119-1.121-1.774-2.672-1.774-4.258
		s0.655-3.138,1.774-4.275c2.243-2.241,6.292-2.241,8.533,0c1.121,1.138,1.76,2.691,1.76,4.275s-0.638,3.136-1.76,4.258
		C301.385,375.174,299.817,375.811,298.23,375.811z"/>
	<path style="fill:#808183;" d="M269.786,375.811c-1.586,0-3.138-0.638-4.26-1.776c-1.119-1.121-1.774-2.672-1.774-4.258
		s0.655-3.138,1.774-4.275c2.243-2.241,6.277-2.241,8.533,0c1.121,1.138,1.76,2.691,1.76,4.275s-0.638,3.136-1.76,4.258
		C272.922,375.174,271.372,375.811,269.786,375.811z"/>
	<path style="fill:#808183;" d="M212.897,375.811c-1.586,0-3.138-0.638-4.26-1.776c-1.119-1.121-1.774-2.672-1.774-4.258
		s0.655-3.138,1.774-4.275c2.243-2.241,6.292-2.241,8.533,0c1.121,1.138,1.76,2.691,1.76,4.275s-0.638,3.136-1.76,4.258
		C216.052,375.174,214.483,375.811,212.897,375.811z"/>
</g>
<g>
</g>
<g>
</g>
<g>
</g>
<g>
</g>
<g>
</g>
<g>
</g>
<g>
</g>
<g>
</g>
<g>
</g>
<g>
</g>
<g>
</g>
<g>
</g>
<g>
</g>
<g>
</g>
<g>
</g>
</svg>
