<?xml version="1.0" encoding="iso-8859-1"?>
<!-- Generator: Adobe Illustrator 19.0.0, SVG Export Plug-In . SVG Version: 6.00 Build 0)  -->
<svg version="1.1" id="Layer_1" xmlns="http://www.w3.org/2000/svg" xmlns:xlink="http://www.w3.org/1999/xlink" x="0px" y="0px"
	 viewBox="0 0 512 512" style="enable-background:new 0 0 512 512;" xml:space="preserve">
<circle style="fill:#366695;" cx="256" cy="256" r="256"/>
<path style="fill:#273B7A;" d="M285.789,510.266c107.749-12.49,195.098-91.867,219.434-195.541l-110.64-111.368l-29.941,3.041
	l-12.019-12.019l-126.224,130.05l-3.25,0.152l-43.436-43.436l-34.156,0.802l44.185,44.185l-84.182,3.91L285.789,510.266z"/>
<path style="fill:#FFAD9E;" d="M372.967,194.379c-7.97,0-15.203,3.081-20.639,8.085c0.176-2.675,0.297-5.365,0.297-8.085H108.52
	c0,67.408,54.644,122.053,122.053,122.053c52.414,0,97.099-33.046,114.39-79.434c4.687,10.828,15.457,18.408,28.005,18.408
	c16.851,0,30.513-13.66,30.513-30.513S389.818,194.379,372.967,194.379z M372.967,241.535c-9.192,0-16.644-7.452-16.644-16.644
	s7.451-16.644,16.644-16.644s16.644,7.451,16.644,16.644C389.611,234.082,382.159,241.535,372.967,241.535z"/>
<g>
	<path style="fill:#FF6262;" d="M372.967,194.377c-7.97,0-15.203,3.081-20.639,8.085c0.176-2.675,0.297-5.365,0.297-8.085H230.429
		v122.049c0.048,0,0.095,0.003,0.143,0.003c52.414,0,97.099-33.046,114.39-79.434c4.687,10.828,15.457,18.408,28.005,18.408
		c16.851,0,30.513-13.662,30.513-30.513C403.48,208.039,389.818,194.377,372.967,194.377z M372.967,241.535
		c-9.192,0-16.644-7.452-16.644-16.644s7.452-16.644,16.644-16.644s16.644,7.451,16.644,16.644
		C389.611,234.084,382.159,241.535,372.967,241.535z"/>
	<path style="fill:#FF6262;" d="M113.605,333.998h284.789c5.616,0,10.171-4.555,10.171-10.171l0,0
		c0-5.616-4.555-10.171-10.171-10.171H113.605c-5.616,0-10.171,4.555-10.171,10.171l0,0
		C103.434,329.445,107.989,333.998,113.605,333.998z"/>
</g>
<path style="fill:#FF314F;" d="M398.395,313.656H230.429v20.342h167.965c5.616,0,10.171-4.553,10.171-10.171
	S404.011,313.656,398.395,313.656z"/>
<g>
</g>
<g>
</g>
<g>
</g>
<g>
</g>
<g>
</g>
<g>
</g>
<g>
</g>
<g>
</g>
<g>
</g>
<g>
</g>
<g>
</g>
<g>
</g>
<g>
</g>
<g>
</g>
<g>
</g>
</svg>
