<?xml version="1.0" encoding="iso-8859-1"?>
<!-- Generator: Adobe Illustrator 19.0.0, SVG Export Plug-In . SVG Version: 6.00 Build 0)  -->
<svg version="1.1" id="Layer_1" xmlns="http://www.w3.org/2000/svg" xmlns:xlink="http://www.w3.org/1999/xlink" x="0px" y="0px"
	 viewBox="0 0 512 512" style="enable-background:new 0 0 512 512;" xml:space="preserve">
<circle style="fill:#273B7A;" cx="256" cy="256" r="256"/>
<path style="fill:#121149;" d="M289.539,509.812c104.662-13.696,189.428-90.608,214.725-191.157L316.704,131.584l-44.787,56.436
	c-21.904-21.906-48.097-48.097-48.097-48.097l-27.615,24.112l53.12,53.12l-14.3,18.444l23.805,23.805l-143.16,76.541
	L289.539,509.812z"/>
<path style="fill:#EAA22F;" d="M300.822,124.983h-89.643c-12.378,0-22.411,10.033-22.411,22.411l0,0
	c0,12.378,10.033,22.411,22.411,22.411v44.822h89.643v-44.822c12.378,0,22.411-10.033,22.411-22.411l0,0
	C323.232,135.016,313.199,124.983,300.822,124.983z"/>
<path style="fill:#E09112;" d="M300.822,124.983h-45.396v89.643h45.396v-44.822c12.378,0,22.411-10.033,22.411-22.411
	S313.199,124.983,300.822,124.983z"/>
<g>
	<rect x="142.222" y="333.145" style="fill:#71E2EF;" width="28.444" height="28.444"/>
	<rect x="341.333" y="333.145" style="fill:#71E2EF;" width="28.444" height="28.444"/>
</g>
<path style="fill:#FFFFFF;" d="M125.557,341.333h260.886c6.506,0,11.779-5.273,11.779-11.779v-80.88
	c0-27.372-22.19-49.562-49.562-49.562H163.34c-27.372,0-49.562,22.19-49.562,49.562v80.88
	C113.778,336.06,119.051,341.333,125.557,341.333z"/>
<g>
	<path style="fill:#D0D1D3;" d="M348.66,199.111h-93.234v142.222h131.017c6.506,0,11.779-5.273,11.779-11.779v-80.88
		C398.222,221.301,376.032,199.111,348.66,199.111z"/>
	<rect x="151.273" y="227.556" style="fill:#D0D1D3;" width="10.343" height="85.333"/>
</g>
<rect x="142.222" y="294.357" style="fill:#A6A8AA;" width="28.444" height="8.62"/>
<g>
</g>
<g>
</g>
<g>
</g>
<g>
</g>
<g>
</g>
<g>
</g>
<g>
</g>
<g>
</g>
<g>
</g>
<g>
</g>
<g>
</g>
<g>
</g>
<g>
</g>
<g>
</g>
<g>
</g>
</svg>
