<?xml version="1.0" encoding="iso-8859-1"?>
<!-- Generator: Adobe Illustrator 19.0.0, SVG Export Plug-In . SVG Version: 6.00 Build 0)  -->
<svg xmlns="http://www.w3.org/2000/svg" xmlns:xlink="http://www.w3.org/1999/xlink" version="1.1" id="Layer_1" x="0px" y="0px" viewBox="0 0 512 512" style="enable-background:new 0 0 512 512;" xml:space="preserve">
<circle style="fill:#3A4DE3;" cx="256" cy="256" r="256"/>
<path style="fill:#1C2EDE;" d="M512,256c0-35.081-7.064-68.511-19.835-98.954l-90.678-90.678h-0.001v-0.001L306.99,66l-0.094,24.015  l25.362,24.477l-43.385,43.049c-13.303-6.944-28.428-10.874-44.473-10.874c-53.161,0-96.256,43.095-96.256,96.256  c0,28.216,12.151,53.584,31.493,71.189l49.632,49.704v16.505h-43.387v30.261l43.387,38.038v35.813l27.557,27.557  C397.831,511.542,512,397.108,512,256z"/>
<path style="fill:#FFFFFF;" d="M401.488,66.368L401.488,66.368L401.488,66.368L306.99,66l-0.094,24.015l49.835,0.194l-67.858,67.332  c-13.303-6.944-28.428-10.874-44.473-10.874c-53.161,0-96.256,43.095-96.256,96.256c0,48.013,35.154,87.81,81.126,95.069v42.329  h-43.387v30.261h43.387v73.851h30.261v-73.851h43.387V380.32h-43.387v-42.329c45.972-7.259,81.126-47.057,81.126-95.069  c0-26.094-10.388-49.759-27.249-67.096l64.242-63.744l0.19,48.877l24.015-0.093L401.488,66.368z M244.401,307.904  c-35.888,0-64.982-29.093-64.982-64.982c0-35.888,29.093-64.982,64.982-64.982s64.982,29.093,64.982,64.982  C309.382,278.811,280.289,307.904,244.401,307.904z"/>
<path style="fill:#00D9E0;" d="M401.487,66.369l-94.497-0.368l-0.092,24.011l49.832,0.194l-67.858,67.336  c-13.299-6.946-28.43-10.875-44.471-10.875v31.274c35.888,0,64.983,29.095,64.983,64.983s-29.095,64.983-64.983,64.983V484.43  h15.131v-73.852h43.387v-30.261h-43.387v-42.323c45.975-7.264,81.126-47.059,81.126-95.07c0-26.097-10.394-49.76-27.253-67.1  l64.246-63.745l0.194,48.88l24.01-0.092L401.487,66.369z"/>
<g>
</g>
<g>
</g>
<g>
</g>
<g>
</g>
<g>
</g>
<g>
</g>
<g>
</g>
<g>
</g>
<g>
</g>
<g>
</g>
<g>
</g>
<g>
</g>
<g>
</g>
<g>
</g>
<g>
</g>
</svg>
