<?xml version="1.0" encoding="iso-8859-1"?>
<!-- Generator: Adobe Illustrator 19.0.0, SVG Export Plug-In . SVG Version: 6.00 Build 0)  -->
<svg xmlns="http://www.w3.org/2000/svg" xmlns:xlink="http://www.w3.org/1999/xlink" version="1.1" id="Layer_1" x="0px" y="0px" viewBox="0 0 512 512" style="enable-background:new 0 0 512 512;" xml:space="preserve">
<circle style="fill:#3A4DE3;" cx="256" cy="256" r="256"/>
<path style="fill:#1C2EDE;" d="M508.552,297.996L256,45.617c0,0-119.042,111.353-152.72,219.736  c-14.163,45.58,7.262,116.261,54.298,160.529l85.806,85.806c4.18,0.203,8.385,0.312,12.616,0.312  C383.08,512,488.513,419.398,508.552,297.996z"/>
<path style="fill:#00D9E0;" d="M408.72,265.354C375.042,156.971,256,45.617,256,45.617S136.958,156.971,103.28,265.354  C81.377,335.84,144.559,466.383,256,466.383S430.623,335.84,408.72,265.354z"/>
<path style="fill:#00B7BE;" d="M256,466.38V45.62c0,0,119.04,111.35,152.72,219.73C430.62,335.84,367.44,466.38,256,466.38z"/>
<g>
</g>
<g>
</g>
<g>
</g>
<g>
</g>
<g>
</g>
<g>
</g>
<g>
</g>
<g>
</g>
<g>
</g>
<g>
</g>
<g>
</g>
<g>
</g>
<g>
</g>
<g>
</g>
<g>
</g>
</svg>
