<?xml version="1.0" encoding="iso-8859-1"?>
<!-- Generator: Adobe Illustrator 19.0.0, SVG Export Plug-In . SVG Version: 6.00 Build 0)  -->
<svg xmlns="http://www.w3.org/2000/svg" xmlns:xlink="http://www.w3.org/1999/xlink" version="1.1" id="Layer_1" x="0px" y="0px" viewBox="0 0 512 512" style="enable-background:new 0 0 512 512;" xml:space="preserve">
<circle style="fill:#3A4DE3;" cx="256" cy="256" r="256"/>
<path style="fill:#1C2EDE;" d="M512,256c0-36.001-7.446-70.26-20.858-101.34l-66.901-66.901  c-3.814,0.244-125.476,26.535-208.034,109.093c-61.363,61.363-70.734,125.387-71.502,154.22l-59.614,59.614l87.353,87.353  C198.632,507.078,226.74,512,256,512C397.385,512,512,397.385,512,256z"/>
<rect x="115.053" y="338.345" transform="matrix(-0.7071 -0.7071 0.7071 -0.7071 -56.5783 747.504)" style="fill:#DFCDBD;" width="22.943" height="94.249"/>
<rect x="83.455" y="383.792" transform="matrix(-0.7071 0.7071 -0.7071 -0.7071 498.3504 572.6295)" style="fill:#C8AD92;" width="94.249" height="11.47"/>
<path style="fill:#FFFFFF;" d="M424.241,87.759c-3.814,0.244-125.476,26.535-208.034,109.092s-71.009,169.95-71.009,169.95  c3.814-0.244,87.393,11.549,169.95-71.009S424.241,87.759,424.241,87.759z"/>
<path style="fill:#D9D9DB;" d="M315.143,295.795c-82.555,82.555-166.135,70.76-169.946,71.008L424.243,87.757  C424.243,87.757,397.705,213.234,315.143,295.795z"/>
<path style="fill:#FFE047;" d="M364.987,147.013l-14.001,14.001v-50.063c4.815-1.973,9.497-3.797,14.001-5.487V147.013z"/>
<g>
	<path style="fill:#00D9E0;" d="M339.065,172.935l-33.63,33.63l-0.007-74.324l0.007-0.007c11.519-6.145,22.839-11.54,33.637-16.256   L339.065,172.935z"/>
	<path style="fill:#00D9E0;" d="M248.533,263.466l-14.001,14.001v-97.538c4.603-3.924,9.27-7.7,14.001-11.328V263.466z"/>
</g>
<path style="fill:#ECB300;" d="M364.989,147.014l-14.001,14.001h50.063c1.973-4.815,3.797-9.497,5.487-14.001H364.989z"/>
<g>
	<path style="fill:#00B7BE;" d="M339.066,172.937l-33.63,33.63l74.324,0.007l0.007-0.007c6.145-11.519,11.54-22.839,16.256-33.637   L339.066,172.937z"/>
	<path style="fill:#00B7BE;" d="M248.535,263.468l-14.001,14.001h97.538c3.924-4.603,7.7-9.27,11.328-14.001H248.535z"/>
</g>
<path style="fill:#FFE047;" d="M222.604,289.396l-33.63,33.63v-94.512c7.686-10.501,16.695-21.121,27.231-31.657  c2.107-2.107,4.236-4.179,6.399-6.215V289.396z"/>
<path style="fill:#ECB300;" d="M222.605,289.398l-33.63,33.63h94.512c10.501-7.686,21.121-16.695,31.657-27.231  c2.107-2.107,4.179-4.236,6.215-6.399L222.605,289.398z"/>
<g>
</g>
<g>
</g>
<g>
</g>
<g>
</g>
<g>
</g>
<g>
</g>
<g>
</g>
<g>
</g>
<g>
</g>
<g>
</g>
<g>
</g>
<g>
</g>
<g>
</g>
<g>
</g>
<g>
</g>
</svg>
