<?xml version="1.0" encoding="iso-8859-1"?>
<!-- Generator: Adobe Illustrator 19.0.0, SVG Export Plug-In . SVG Version: 6.00 Build 0)  -->
<svg xmlns="http://www.w3.org/2000/svg" xmlns:xlink="http://www.w3.org/1999/xlink" version="1.1" id="Layer_1" x="0px" y="0px" viewBox="0 0 512 512" style="enable-background:new 0 0 512 512;" xml:space="preserve">
<circle style="fill:#3A4DE3;" cx="256" cy="256" r="256"/>
<path style="fill:#1C2EDE;" d="M512,256c0-34.776-6.947-67.925-19.508-98.154L432.745,98.1h-28.039l-27.588-33.433h-32.792V98.1  H195.262l-27.588-33.433h-32.792V98.1H79.254v71.221l11.642,6.897V432l55.315,55.315C179.485,503.136,216.705,512,256,512  C397.385,512,512,397.385,512,256z"/>
<polygon style="fill:#AEADB3;" points="90.896,432 421.103,432 421.103,432 421.103,163.684 90.896,163.684 "/>
<rect x="256" y="163.68" style="fill:#8B8992;" width="165.1" height="268.32"/>
<polygon style="fill:#FFFFFF;" points="421.099,163.684 421.099,325.914 337.089,402.965 90.901,402.965 90.901,163.684 "/>
<polygon style="fill:#E1E1E3;" points="421.1,163.68 421.1,325.91 337.09,402.97 256,402.97 256,163.68 "/>
<rect x="79.25" y="98.1" style="fill:#FFE047;" width="353.49" height="71.22"/>
<rect x="256" y="98.1" style="fill:#FFCF00;" width="176.75" height="71.22"/>
<g>
	<rect x="127.58" y="193.66" style="fill:#00D9E0;" width="47.4" height="47.4"/>
	<rect x="197.4" y="193.66" style="fill:#00D9E0;" width="47.4" height="47.4"/>
</g>
<g>
	<rect x="267.21" y="193.66" style="fill:#00B7BE;" width="47.4" height="47.4"/>
	<rect x="337.02" y="193.66" style="fill:#00B7BE;" width="47.4" height="47.4"/>
</g>
<g>
	<rect x="127.58" y="259.75" style="fill:#00D9E0;" width="47.4" height="47.4"/>
	<rect x="197.4" y="259.75" style="fill:#00D9E0;" width="47.4" height="47.4"/>
</g>
<g>
	<rect x="267.21" y="259.75" style="fill:#00B7BE;" width="47.4" height="47.4"/>
	<rect x="337.02" y="259.75" style="fill:#00B7BE;" width="47.4" height="47.4"/>
</g>
<g>
	<rect x="127.58" y="325.85" style="fill:#00D9E0;" width="47.4" height="47.4"/>
	<rect x="197.4" y="325.85" style="fill:#00D9E0;" width="47.4" height="47.4"/>
</g>
<rect x="267.21" y="325.85" style="fill:#00B7BE;" width="47.4" height="47.4"/>
<polygon style="fill:#AEADB3;" points="337.025,402.965 337.025,325.852 421.103,325.852 "/>
<rect x="134.88" y="64.67" style="fill:#FFFFFF;" width="32.792" height="66.866"/>
<rect x="344.33" y="64.67" style="fill:#E1E1E3;" width="32.792" height="66.866"/>
<g>
</g>
<g>
</g>
<g>
</g>
<g>
</g>
<g>
</g>
<g>
</g>
<g>
</g>
<g>
</g>
<g>
</g>
<g>
</g>
<g>
</g>
<g>
</g>
<g>
</g>
<g>
</g>
<g>
</g>
</svg>
