<?xml version="1.0" encoding="iso-8859-1"?>
<!-- Generator: Adobe Illustrator 19.0.0, SVG Export Plug-In . SVG Version: 6.00 Build 0)  -->
<svg xmlns="http://www.w3.org/2000/svg" xmlns:xlink="http://www.w3.org/1999/xlink" version="1.1" id="Layer_1" x="0px" y="0px" viewBox="0 0 512 512" style="enable-background:new 0 0 512 512;" xml:space="preserve">
<circle style="fill:#DFCDBD;" cx="256" cy="256" r="256"/>
<path style="fill:#C8AD92;" d="M512,256c0-33.079-6.276-64.692-17.699-93.715l-53.588-53.588l-13.197,6.497L358.508,43.14  l-35.476,45.289L256,19.743l-16.532,75.45c-9.819,0.997-19.375,2.882-28.595,5.557l-57.381-57.61l17.842,75.149  c-11.227,6.918-21.542,15.17-30.728,24.535l-69.318-34.128l48.679,59.963c-7.061,10.976-12.832,22.859-17.095,35.44l-77.204-0.672  l69.198,65.412c0.18,2.289,0.412,4.563,0.686,6.823L25.668,308.57l66.967,68.436l-21.347,26.296l90.997,90.998  C191.308,505.724,222.921,512,256,512C397.385,512,512,397.385,512,256z"/>
<polygon style="fill:#3A4DE3;" points="256,19.743 282.411,140.284 358.508,43.14 330.003,163.203 440.713,108.696 362.938,204.502   486.333,203.428 374.692,256 486.333,308.572 362.938,307.498 440.713,403.304 330.003,348.797 358.508,468.86 282.411,371.716   256,492.257 229.589,371.716 153.492,468.86 181.997,348.797 71.287,403.304 149.063,307.498 25.667,308.572 137.308,256   25.667,203.428 149.063,204.502 71.287,108.696 181.997,163.203 153.492,43.14 229.589,140.284 "/>
<polygon style="fill:#1C2EDE;" points="486.33,308.57 362.94,307.5 440.71,403.3 330,348.8 358.51,468.86 282.41,371.72 256,492.26   256,19.74 282.41,140.28 358.51,43.14 330,163.2 440.71,108.7 362.94,204.5 486.33,203.43 374.69,256 "/>
<circle style="fill:#FF4F19;" cx="256" cy="256" r="161.64"/>
<path style="fill:#FF3200;" d="M417.64,256c0,89.27-72.37,161.64-161.64,161.64V94.36C345.27,94.36,417.64,166.73,417.64,256z"/>
<path style="fill:#FFE047;" d="M218.04,256c0-55.44,44.943-100.384,100.384-100.384c13.689,0,26.736,2.744,38.626,7.706  c-24.422-25.546-58.837-41.459-96.969-41.459c-74.082,0-134.137,60.055-134.137,134.137s60.055,134.137,134.137,134.137  c38.132,0,72.547-15.913,96.969-41.459c-11.89,4.961-24.937,7.706-38.626,7.706C262.983,356.384,218.04,311.44,218.04,256z"/>
<g>
	<path style="fill:#FFCF00;" d="M318.42,356.38c13.69,0,26.74-2.74,38.63-7.7c-24.42,25.54-58.84,41.46-96.97,41.46   c-1.36,0-2.73-0.02-4.08-0.06v-55.47C273.13,348.24,294.83,356.38,318.42,356.38z"/>
	<path style="fill:#FFCF00;" d="M318.42,155.62c-23.59,0-45.29,8.14-62.42,21.77v-55.47c1.35-0.04,2.72-0.06,4.08-0.06   c38.13,0,72.55,15.92,96.97,41.46C345.16,158.36,332.11,155.62,318.42,155.62z"/>
</g>
<g>
</g>
<g>
</g>
<g>
</g>
<g>
</g>
<g>
</g>
<g>
</g>
<g>
</g>
<g>
</g>
<g>
</g>
<g>
</g>
<g>
</g>
<g>
</g>
<g>
</g>
<g>
</g>
<g>
</g>
</svg>
