<?xml version="1.0" encoding="iso-8859-1"?>
<!-- Generator: Adobe Illustrator 19.0.0, SVG Export Plug-In . SVG Version: 6.00 Build 0)  -->
<svg xmlns="http://www.w3.org/2000/svg" xmlns:xlink="http://www.w3.org/1999/xlink" version="1.1" id="Layer_1" x="0px" y="0px" viewBox="0 0 512 512" style="enable-background:new 0 0 512 512;" xml:space="preserve">
<circle style="fill:#FFB84D;" cx="256" cy="256" r="256"/>
<path style="fill:#FF9A00;" d="M512,256c0-29.457-4.991-57.744-14.147-84.082l-78.788-78.984c-18.942-18.943-49.654-18.943-68.597,0  c-11.837,11.837-16.277,28.27-13.32,43.555l-37.617,37.617l-41.466-41.466l-35.562,35.562l25.15,25.15L97.49,343.514l-8.264,79.259  l70.478,70.478C189.432,505.33,221.935,512,256,512C397.385,512,512,397.385,512,256z"/>
<path style="fill:#4A5BE5;" d="M419.066,161.531c18.943-18.942,18.942-49.654,0-68.597s-49.654-18.943-68.597,0  c-11.837,11.837-16.277,28.27-13.32,43.555l-41.418,41.418l38.363,38.363l41.418-41.418  C390.796,177.808,407.229,173.368,419.066,161.531z"/>
<path style="fill:#283EE1;" d="M419.07,161.533c-11.837,11.837-28.27,16.278-43.558,13.322l-41.415,41.415l-19.184-19.184  l104.15-104.15C438.006,111.88,438.013,142.589,419.07,161.533z"/>
<polygon style="fill:#FFFFFF;" points="168.485,414.509 89.226,422.773 97.49,343.514 250.942,190.063 321.937,261.057 "/>
<polygon style="fill:#D9D9DB;" points="321.935,261.058 168.486,414.507 89.226,422.773 286.438,225.561 "/>
<rect x="215.164" y="185.917" transform="matrix(-0.7071 -0.7071 0.7071 -0.7071 364.4826 573.0969)" style="fill:#283EE1;" width="171.538" height="50.29"/>
<rect x="306.106" y="198.505" transform="matrix(-0.7071 0.7071 -0.7071 -0.7071 736.1689 177.8488)" style="fill:#1C2EDE;" width="50.29" height="85.769"/>
<g>
</g>
<g>
</g>
<g>
</g>
<g>
</g>
<g>
</g>
<g>
</g>
<g>
</g>
<g>
</g>
<g>
</g>
<g>
</g>
<g>
</g>
<g>
</g>
<g>
</g>
<g>
</g>
<g>
</g>
</svg>
