<?xml version="1.0" encoding="iso-8859-1"?>
<!-- Generator: Adobe Illustrator 19.0.0, SVG Export Plug-In . SVG Version: 6.00 Build 0)  -->
<svg xmlns="http://www.w3.org/2000/svg" xmlns:xlink="http://www.w3.org/1999/xlink" version="1.1" id="Layer_1" x="0px" y="0px" viewBox="0 0 512 512" style="enable-background:new 0 0 512 512;" xml:space="preserve">
<circle style="fill:#00D9E0;" cx="256" cy="256" r="256"/>
<path style="fill:#00B7BE;" d="M512,256c0-12.719-0.942-25.217-2.733-37.439l-48.169-48.168  c-12.049-13.954-29.848-22.813-49.688-22.813v31l34.656,34.656c0,4.434-0.846,8.672-2.371,12.574l-98.358-98.402  c-9.243-8.753-21.714-14.13-35.419-14.13v31l20.554,20.554c0,11.333-9.221,20.554-20.554,20.554H50.434v31l34.222,31.507H50.434v31  l34.222,33.703H50.434v31l165.231,165.231C228.805,510.907,242.274,512,256,512C397.385,512,512,397.385,512,256z"/>
<path style="fill:#FFFFFF;" d="M411.41,278.893H50.434v-31H411.41c19.109,0,34.656-15.547,34.656-34.656  s-15.547-34.656-34.656-34.656v-31c36.203,0,65.656,29.453,65.656,65.656C477.066,249.439,447.613,278.893,411.41,278.893z"/>
<path style="fill:#4A5BE5;" d="M477.07,213.24c0,36.2-29.46,65.65-65.66,65.65H256v-31h155.41c19.11,0,34.66-15.54,34.66-34.65  s-15.55-34.66-34.66-34.66v-31C447.61,147.58,477.07,177.03,477.07,213.24z"/>
<g>
	<path style="fill:#FFFFFF;" d="M309.918,216.386H50.434v-31h259.484c11.333,0,20.554-9.221,20.554-20.554   s-9.221-20.554-20.554-20.554v-31c28.427,0,51.554,23.127,51.554,51.554S338.345,216.386,309.918,216.386z"/>
	<path style="fill:#FFFFFF;" d="M311.308,428.386v-31c14.83,0,26.896-12.064,26.896-26.895c0-14.83-12.065-26.896-26.896-26.896   H50.434v-31h260.874c31.924,0,57.896,25.972,57.896,57.896C369.203,402.414,343.231,428.386,311.308,428.386z"/>
</g>
<g>
	<path style="fill:#4A5BE5;" d="M361.47,164.83c0,28.43-23.13,51.56-51.55,51.56H256v-31h53.92c11.33,0,20.55-9.22,20.55-20.56   c0-11.33-9.22-20.55-20.55-20.55v-31C338.34,113.28,361.47,136.41,361.47,164.83z"/>
	<path style="fill:#4A5BE5;" d="M369.2,370.49c0,31.92-25.97,57.9-57.89,57.9v-31c14.83,0,26.89-12.07,26.89-26.9   s-12.06-26.89-26.89-26.89H256v-31h55.31C343.23,312.6,369.2,338.57,369.2,370.49z"/>
</g>
<g>
</g>
<g>
</g>
<g>
</g>
<g>
</g>
<g>
</g>
<g>
</g>
<g>
</g>
<g>
</g>
<g>
</g>
<g>
</g>
<g>
</g>
<g>
</g>
<g>
</g>
<g>
</g>
<g>
</g>
</svg>
