<?xml version="1.0" encoding="iso-8859-1"?>
<!-- Generator: Adobe Illustrator 19.0.0, SVG Export Plug-In . SVG Version: 6.00 Build 0)  -->
<svg xmlns="http://www.w3.org/2000/svg" xmlns:xlink="http://www.w3.org/1999/xlink" version="1.1" id="Layer_1" x="0px" y="0px" viewBox="0 0 512 512" style="enable-background:new 0 0 512 512;" xml:space="preserve">
<circle style="fill:#3A4DE3;" cx="256" cy="256" r="256"/>
<path style="fill:#1C2EDE;" d="M512,256c0-35.702-7.318-69.693-20.52-100.567l-67.298-68.868c-2.229-3.385-6.059-5.62-10.415-5.62  h-18.641l-4.274-3.049c-3.455-6.468-10.264-10.903-18.073-10.903H139.222c-8.985,0-16.652,5.867-19.402,13.952H98.234  c-6.89,0-12.476,5.585-12.476,12.476v8.156c0,4.118,1.997,7.765,5.075,10.035l51.916,51.611v220.772h-3.527  c-8.985,0-16.652,5.866-19.402,13.952H98.234c-6.89,0-12.476,5.586-12.476,12.476v8.156c0,3.552,1.486,6.754,3.869,9.023  l65.488,63.739C186.074,504.629,220.174,512,256,512C397.385,512,512,397.385,512,256z"/>
<rect x="142.75" y="118.93" style="fill:#FFFFFF;" width="226.5" height="274.13"/>
<rect x="256" y="118.93" style="fill:#E1E1E3;" width="113.25" height="274.14"/>
<rect x="176.96" y="164.12" style="fill:#FF9A00;" width="158.07" height="21.75"/>
<rect x="256" y="164.12" style="fill:#FF4F19;" width="79.04" height="21.75"/>
<g>
	<rect x="176.96" y="218.12" style="fill:#FF9A00;" width="158.07" height="21.75"/>
	<rect x="176.96" y="272.12" style="fill:#FF9A00;" width="158.07" height="21.75"/>
</g>
<rect x="256" y="272.12" style="fill:#FF4F19;" width="79.04" height="21.75"/>
<rect x="176.96" y="326.12" style="fill:#FF9A00;" width="158.07" height="21.75"/>
<rect x="256" y="326.12" style="fill:#FF4F19;" width="79.04" height="21.75"/>
<path style="fill:#00D9E0;" d="M129.272,114.052H98.234c-6.89,0-12.476-5.586-12.476-12.476V93.42  c0-6.89,5.586-12.476,12.476-12.476h31.039c6.89,0,12.476,5.586,12.476,12.476v8.156  C141.748,108.467,136.163,114.052,129.272,114.052z"/>
<path style="fill:#00B7BE;" d="M413.766,114.052h-31.039c-6.89,0-12.476-5.586-12.476-12.476V93.42  c0-6.89,5.586-12.476,12.476-12.476h31.039c6.89,0,12.476,5.586,12.476,12.476v8.156  C426.242,108.467,420.656,114.052,413.766,114.052z"/>
<path style="fill:#DFCDBD;" d="M372.778,128.005H139.222c-11.275,0-20.5-9.225-20.5-20.5V87.492c0-11.275,9.225-20.5,20.5-20.5  h233.556c11.275,0,20.5,9.225,20.5,20.5v20.012C393.278,118.78,384.053,128.005,372.778,128.005z"/>
<path style="fill:#C8AD92;" d="M393.28,87.49v20.01c0,11.28-9.23,20.5-20.5,20.5H256V66.99h116.78  C384.05,66.99,393.28,76.22,393.28,87.49z"/>
<path style="fill:#00D9E0;" d="M129.272,431.054H98.234c-6.89,0-12.476-5.586-12.476-12.476v-8.156  c0-6.89,5.586-12.476,12.476-12.476h31.039c6.89,0,12.476,5.586,12.476,12.476v8.156  C141.748,425.468,136.163,431.054,129.272,431.054z"/>
<path style="fill:#00B7BE;" d="M413.766,431.054h-31.039c-6.89,0-12.476-5.586-12.476-12.476v-8.156  c0-6.89,5.586-12.476,12.476-12.476h31.039c6.89,0,12.476,5.586,12.476,12.476v8.156  C426.242,425.468,420.656,431.054,413.766,431.054z"/>
<path style="fill:#DFCDBD;" d="M372.778,445.007H139.222c-11.275,0-20.5-9.225-20.5-20.5v-20.012c0-11.275,9.225-20.5,20.5-20.5  h233.556c11.275,0,20.5,9.225,20.5,20.5v20.012C393.278,435.781,384.053,445.007,372.778,445.007z"/>
<path style="fill:#C8AD92;" d="M393.28,404.49v20.02c0,11.27-9.23,20.5-20.5,20.5H256v-61.02h116.78  C384.05,383.99,393.28,393.22,393.28,404.49z"/>
<rect x="256" y="218.12" style="fill:#FF4F19;" width="79.04" height="21.75"/>
<g>
</g>
<g>
</g>
<g>
</g>
<g>
</g>
<g>
</g>
<g>
</g>
<g>
</g>
<g>
</g>
<g>
</g>
<g>
</g>
<g>
</g>
<g>
</g>
<g>
</g>
<g>
</g>
<g>
</g>
</svg>
