<?xml version="1.0" encoding="iso-8859-1"?>
<!-- Generator: Adobe Illustrator 19.0.0, SVG Export Plug-In . SVG Version: 6.00 Build 0)  -->
<svg xmlns="http://www.w3.org/2000/svg" xmlns:xlink="http://www.w3.org/1999/xlink" version="1.1" id="Layer_1" x="0px" y="0px" viewBox="0 0 512 512" style="enable-background:new 0 0 512 512;" xml:space="preserve">
<circle style="fill:#8A6746;" cx="256" cy="256" r="256"/>
<path style="fill:#644B32;" d="M512,256c0-15.915-1.465-31.485-4.244-46.596L392.618,94.266C358.633,57.615,307.323,44,256,44  c-55.347,0-110.695,15.814-144.298,59.301C79.144,145.434,59.576,207.977,97.04,279.246c-12.417,9.579-20.424,24.596-20.424,41.491  c0,16.268,7.416,30.803,19.051,40.411l67.821,68.125c2.861,11.22,8.113,22.45,17.695,29.906l51.778,51.778  C240.553,511.634,248.233,512,256,512C397.385,512,512,397.385,512,256z"/>
<path style="fill:#FFFFFF;" d="M414.96,279.246c37.464-71.269,17.895-133.812-14.662-175.945C366.695,59.814,311.347,44,256,44  s-110.695,15.814-144.298,59.301C79.144,145.434,59.576,207.977,97.04,279.246c-12.417,9.579-20.424,24.596-20.424,41.491  c0,28.93,23.452,52.382,52.382,52.382c11.661,0,22.428-3.814,31.132-10.258c0,8.588,0,23.104,0,35.955  c0,19.767,2.965,69.184,49.417,69.184s46.452,0,92.905,0c46.452,0,49.417-49.417,49.417-69.184c0-12.851,0-27.366,0-35.955  c8.704,6.443,19.471,10.258,31.132,10.258c28.93,0,52.382-23.452,52.382-52.382C435.384,303.842,427.377,288.825,414.96,279.246z"/>
<path style="fill:#E1E1E3;" d="M435.38,320.74c0,28.93-23.45,52.38-52.38,52.38c-11.66,0-22.43-3.82-31.13-10.26v35.96  c0,19.76-2.97,69.18-49.42,69.18H256V44c55.35,0,110.69,15.81,144.3,59.3c32.56,42.13,52.12,104.68,14.66,175.95  C427.38,288.82,435.38,303.84,435.38,320.74z"/>
<path style="fill:#57555C;" d="M228.715,211v17.237c0,20.9-17.1,38-38,38h-17.764c-20.9,0-38-17.1-38-38V211c0-20.9,17.1-38,38-38  h17.764C211.615,173,228.715,190.1,228.715,211z"/>
<path style="fill:#2A2A2C;" d="M377.049,211v17.237c0,20.9-17.1,38-38,38h-17.764c-20.9,0-38-17.1-38-38V211c0-20.9,17.1-38,38-38  h17.764C359.949,173,377.049,190.1,377.049,211z"/>
<path style="fill:#57555C;" d="M269.263,283.283c-6.147-10.972-20.381-10.971-26.528,0.001l-19.995,35.69  c-6.275,10.445,0.386,24.526,11.601,24.526h43.318c11.216,0,17.876-14.081,11.601-24.526L269.263,283.283z"/>
<path style="fill:#2A2A2C;" d="M277.66,343.5H256v-68.45c5.1,0,10.19,2.75,13.26,8.23l20,35.69  C295.54,329.42,288.87,343.5,277.66,343.5z"/>
<g>
	<rect x="206.33" y="407.33" style="fill:#57555C;" width="20" height="60.667"/>
	<rect x="246" y="407.33" style="fill:#57555C;" width="20" height="60.667"/>
</g>
<g>
	<rect x="256" y="407.33" style="fill:#2A2A2C;" width="10" height="60.667"/>
	<rect x="285.67" y="407.33" style="fill:#2A2A2C;" width="20" height="60.667"/>
</g>
<g>
</g>
<g>
</g>
<g>
</g>
<g>
</g>
<g>
</g>
<g>
</g>
<g>
</g>
<g>
</g>
<g>
</g>
<g>
</g>
<g>
</g>
<g>
</g>
<g>
</g>
<g>
</g>
<g>
</g>
</svg>
