<?xml version="1.0" encoding="iso-8859-1"?>
<!-- Generator: Adobe Illustrator 19.0.0, SVG Export Plug-In . SVG Version: 6.00 Build 0)  -->
<svg xmlns="http://www.w3.org/2000/svg" xmlns:xlink="http://www.w3.org/1999/xlink" version="1.1" id="Layer_1" x="0px" y="0px" viewBox="0 0 512 512" style="enable-background:new 0 0 512 512;" xml:space="preserve">
<circle style="fill:#FFE047;" cx="256" cy="256" r="256"/>
<path style="fill:#FFCF00;" d="M512,256c0-12.938-0.969-25.649-2.822-38.071l-104.25-104.25C367.422,74.442,314.566,50,256,50  C142.229,50,50,142.229,50,256c0,58.566,24.442,111.422,63.679,148.928l99.116,99.116c1.665,1.742,3.37,3.445,5.094,5.128  C230.325,511.029,243.048,512,256,512C397.385,512,512,397.385,512,256z"/>
<circle style="fill:#3A4DE3;" cx="256" cy="256" r="206"/>
<path style="fill:#1C2EDE;" d="M462,256c0,113.77-92.23,206-206,206V50C369.77,50,462,142.23,462,256z"/>
<path style="fill:#FFB84D;" d="M301.954,231.193c-7.251,0-14.564,0-21.163,0c16.418-8.866,29.397-20.201,38.69-33.878  c10.673-15.708,16.314-34.57,16.314-54.546c0-19.487-7.581-36.955-21.348-49.185c-14.226-12.639-34.438-19.319-58.452-19.319  s-44.226,6.68-58.452,19.319c-13.766,12.23-21.348,29.698-21.348,49.185c0,19.975,5.641,38.837,16.315,54.546  c9.293,13.678,22.272,25.012,38.69,33.878c-6.597,0-13.908,0-21.157,0c-17.233,0-57.281-5.967-72.815-10.642v31.807v31.807  c15.534-4.674,55.582-10.642,72.815-10.642c8.609,0,17.308,0,24.79,0c0,26.485,0,70.238,0,85.626  c0,17.233-5.967,57.281-10.642,72.815H256h31.807c-4.674-15.534-10.642-55.582-10.642-72.815c0-15.388,0-59.141,0-85.626  c7.482,0,16.181,0,24.79,0c17.233,0,57.281,5.967,72.815,10.642v-31.807v-31.807C359.236,225.226,319.187,231.193,301.954,231.193z   M203.204,142.769c0-25.985,19.736-41.498,52.793-41.498s52.793,15.513,52.793,41.498c0,22.515-9.305,52.615-52.793,70.298  C212.509,195.385,203.204,165.284,203.204,142.769z"/>
<path style="fill:#FF9A00;" d="M301.95,231.19h-21.16c16.42-8.86,29.4-20.2,38.69-33.87c10.68-15.71,16.32-34.58,16.32-54.55  c0-19.49-7.58-36.96-21.35-49.19C300.22,80.95,280.01,74.26,256,74.26v27.01c33.05,0,52.79,15.51,52.79,41.5  c0,22.51-9.3,52.61-52.79,70.3v218.89h31.81c-4.68-15.53-10.65-55.58-10.65-72.81v-85.63h24.79c17.24,0,57.29,5.97,72.82,10.64  v-63.61C359.24,225.23,319.19,231.19,301.95,231.19z"/>
<circle style="fill:#FF4F19;" cx="256" cy="253.12" r="19.365"/>
<path style="fill:#FF3200;" d="M275.36,253.11c0,10.7-8.67,19.37-19.36,19.37v-38.73C266.69,233.75,275.36,242.42,275.36,253.11z"/>
<g>
</g>
<g>
</g>
<g>
</g>
<g>
</g>
<g>
</g>
<g>
</g>
<g>
</g>
<g>
</g>
<g>
</g>
<g>
</g>
<g>
</g>
<g>
</g>
<g>
</g>
<g>
</g>
<g>
</g>
</svg>
