<?xml version="1.0" encoding="iso-8859-1"?>
<!-- Generator: Adobe Illustrator 19.0.0, SVG Export Plug-In . SVG Version: 6.00 Build 0)  -->
<svg xmlns="http://www.w3.org/2000/svg" xmlns:xlink="http://www.w3.org/1999/xlink" version="1.1" id="Layer_1" x="0px" y="0px" viewBox="0 0 512 512" style="enable-background:new 0 0 512 512;" xml:space="preserve">
<circle style="fill:#DFCDBD;" cx="256" cy="256" r="256"/>
<path style="fill:#C8AD92;" d="M508.98,295.407L256.624,43L97.51,358.808h-5.196c-14.759,0-26.834,12.075-26.834,26.834  c0,7.628,3.228,14.535,8.384,19.432l90.378,89.972C192.73,505.987,223.661,512,256,512C383.983,512,490.026,418.082,508.98,295.407z  "/>
<polygon style="fill:#1C2EDE;" points="256.624,43 390.169,177.481 256.624,177.481 "/>
<polygon style="fill:#4B5BE5;" points="256.624,43 96.869,360.081 416.379,360.081 "/>
<g>
	<polygon style="fill:#3A4DE3;" points="416.38,360.08 256,360.08 256,44.23 256.62,43  "/>
	<path style="fill:#3A4DE3;" d="M420.934,412.476H92.314c-14.759,0-26.834-12.075-26.834-26.834l0,0   c0-14.759,12.075-26.834,26.834-26.834h328.619c14.759,0,26.834,12.075,26.834,26.834l0,0   C447.767,400.4,435.692,412.476,420.934,412.476z"/>
</g>
<path style="fill:#1C2EDE;" d="M447.77,385.64c0,7.38-3.02,14.09-7.89,18.96c-4.86,4.86-11.57,7.88-18.95,7.88H256v-53.67h164.93  C435.69,358.81,447.77,370.88,447.77,385.64z"/>
<polygon style="fill:#FFCF00;" points="256.624,157.518 271.704,195.75 312.726,198.278 281.025,224.435 291.297,264.23   256.624,242.163 221.951,264.23 232.223,224.435 200.522,198.278 241.544,195.75 "/>
<polygon style="fill:#ECB300;" points="281.02,224.44 291.3,264.23 256.62,242.16 256,242.55 256,159.09 256.62,157.52   271.7,195.75 312.73,198.28 "/>
<polygon style="fill:#2A2A2C;" points="380.23,288.333 133.018,288.333 113.368,327.333 399.88,327.333 "/>
<polygon style="fill:#171719;" points="399.88,327.33 256,327.33 256,288.33 380.23,288.33 "/>
<g>
</g>
<g>
</g>
<g>
</g>
<g>
</g>
<g>
</g>
<g>
</g>
<g>
</g>
<g>
</g>
<g>
</g>
<g>
</g>
<g>
</g>
<g>
</g>
<g>
</g>
<g>
</g>
<g>
</g>
</svg>
