<?xml version="1.0" encoding="iso-8859-1"?>
<!-- Generator: Adobe Illustrator 19.0.0, SVG Export Plug-In . SVG Version: 6.00 Build 0)  -->
<svg xmlns="http://www.w3.org/2000/svg" xmlns:xlink="http://www.w3.org/1999/xlink" version="1.1" id="Layer_1" x="0px" y="0px" viewBox="0 0 512 512" style="enable-background:new 0 0 512 512;" xml:space="preserve">
<circle style="fill:#FFB84D;" cx="256" cy="256" r="256"/>
<path style="fill:#FF9A00;" d="M512,256c0-2.953-0.068-5.89-0.168-8.82L340.659,76.007C319.695,53.062,289.53,38.667,256,38.667  c-63.318,0-114.648,51.33-114.648,114.648v25.817h0.231c-0.051,0.362-0.113,0.721-0.145,1.089c-0.029,0-0.058-0.002-0.087-0.002  c-15.496,0-28.057,12.562-28.057,28.057c0,5.771,1.744,11.133,4.731,15.593c-15.101,6.076-25.767,20.852-25.767,38.127  c0,13.231,6.266,24.983,15.979,32.497l6.185,6.406c-0.711,3.549-1.11,7.21-1.11,10.968c0,17.296,7.868,32.741,20.212,42.985  l16.016,16.228c-0.975,3.77-1.5,7.72-1.5,11.795c0,5.034,0.798,9.881,2.26,14.429c-11.947,7.097-23.117,17.352-30.59,32.117  c-5.299,10.478-10.688,21.685-15.767,32.533c0.651,0.482,1.308,0.956,1.963,1.432c1.292,0.937,2.594,1.862,3.904,2.775  C151.261,495.047,201.647,512,256,512C397.385,512,512,397.385,512,256z"/>
<path style="fill:#FF4F19;" d="M225.053,311.867c0-30.856-25.014-55.87-55.87-55.87s-55.87,25.014-55.87,55.87  c0,24.711,16.049,45.66,38.287,53.031c-2.289,5.54-3.56,11.609-3.56,17.977c0,26.022,21.095,47.117,47.117,47.117  c10.056,0,19.368-3.16,27.02-8.528c8.551,8.721,20.459,14.137,33.638,14.137c13.257,0,25.226-5.483,33.788-14.295  c7.693,5.463,17.088,8.685,27.241,8.685c26.022,0,47.117-21.095,47.117-47.117c0-6.367-1.27-12.436-3.56-17.977  c22.238-7.371,38.287-28.32,38.287-53.031c0-30.856-25.014-55.87-55.87-55.87s-55.87,25.014-55.87,55.87h-61.895V311.867z"/>
<path style="fill:#FF3200;" d="M398.688,311.867c0-30.856-25.014-55.87-55.87-55.87s-55.87,25.014-55.87,55.87h-30.952v123.729  c13.184-0.05,25.084-5.518,33.607-14.29c7.693,5.463,17.088,8.685,27.241,8.685c26.022,0,47.117-21.095,47.117-47.117  c0-6.367-1.27-12.436-3.56-17.977C382.639,357.527,398.688,336.578,398.688,311.867z"/>
<rect x="211.47" y="328.46" style="fill:#FFC473;" width="89.07" height="112.37"/>
<rect id="SVGCleanerId_0" x="256" y="328.46" style="fill:#FFAA20;" width="44.538" height="112.37"/>
<g>
	<rect id="SVGCleanerId_0_1_" x="256" y="328.46" style="fill:#FFAA20;" width="44.538" height="112.37"/>
</g>
<path style="fill:#FFDBA9;" d="M370.651,180.229C365.864,109.762,305.768,69.768,256,69.768s-109.864,39.994-114.651,110.461  c-12.878,2.412-22.017,14.448-20.584,27.681l2.218,20.476c1.505,13.891,14.101,24.026,27.992,22.521l2.392-0.259  c28.436,74.02,74.325,93.077,102.634,97.406c28.309-4.329,74.198-23.386,102.634-97.406l2.392,0.259  c13.891,1.505,26.487-8.63,27.992-22.521l2.218-20.476C392.668,194.676,383.529,182.641,370.651,180.229z"/>
<path style="fill:#FF4F19;" d="M181.721,181.939c0-11.148-9.037-20.184-20.184-20.184c-10.568,0-19.224,8.125-20.098,18.466  c-0.029,0-0.058-0.002-0.087-0.002c-15.496,0-28.057,12.562-28.057,28.057c0,5.771,1.744,11.133,4.731,15.593  c-15.101,6.076-25.767,20.852-25.767,38.127c0,22.695,18.398,41.093,41.093,41.093s41.093-18.398,41.093-41.093  c0-12.937-5.984-24.472-15.329-32.004c6.283-5.146,10.294-12.962,10.294-21.716c0-2.556-0.348-5.03-0.989-7.383  C176.173,198.075,181.721,190.665,181.721,181.939z"/>
<path id="SVGCleanerId_1" style="fill:#FFC473;" d="M256,348.054c28.309-4.329,74.198-23.387,102.634-97.406l2.392,0.259  c13.891,1.505,26.487-8.63,27.992-22.521l2.218-20.476c1.433-13.234-7.706-25.269-20.584-27.681  C365.864,109.762,305.768,69.768,256,69.768c-0.001,0-0.003,0-0.004,0v278.286C255.997,348.053,255.999,348.054,256,348.054z"/>
<g>
	<path id="SVGCleanerId_1_1_" style="fill:#FFC473;" d="M256,348.054c28.309-4.329,74.198-23.387,102.634-97.406l2.392,0.259   c13.891,1.505,26.487-8.63,27.992-22.521l2.218-20.476c1.433-13.234-7.706-25.269-20.584-27.681   C365.864,109.762,305.768,69.768,256,69.768c-0.001,0-0.003,0-0.004,0v278.286C255.997,348.053,255.999,348.054,256,348.054z"/>
</g>
<path style="fill:#FF3200;" d="M330.36,181.939c0-11.148,9.037-20.184,20.184-20.184c10.568,0,19.224,8.125,20.098,18.466  c0.029,0,0.058-0.002,0.087-0.002c15.496,0,28.057,12.562,28.057,28.057c0,5.771-1.744,11.133-4.731,15.593  c15.101,6.076,25.767,20.852,25.767,38.127c0,22.695-18.398,41.093-41.093,41.093c-22.695,0-41.093-18.398-41.093-41.093  c0-12.937,5.984-24.472,15.329-32.004c-6.283-5.146-10.294-12.962-10.294-21.716c0-2.556,0.348-5.03,0.989-7.383  C335.908,198.075,330.36,190.665,330.36,181.939z"/>
<rect x="179.48" y="202.12" style="fill:#FFC473;" width="59.12" height="25.615"/>
<polygon style="fill:#FFA91F;" points="255.996,202.123 255.996,283.539 281.611,283.539 281.611,227.738 337.412,227.738   337.412,202.123 "/>
<path style="fill:#3A4DE3;" d="M370.648,153.315c0-63.318-51.33-114.648-114.648-114.648s-114.648,51.33-114.648,114.648v25.817  h229.296V153.315z"/>
<path style="fill:#1C2EDE;" d="M370.65,153.31v25.82H256V38.67C319.32,38.67,370.65,90,370.65,153.31z"/>
<g>
	<rect x="141.35" y="156.28" style="fill:#FFE047;" width="229.3" height="23.941"/>
	<rect x="256" y="156.28" style="fill:#FFE047;" width="114.65" height="23.94"/>
</g>
<rect x="229.92" y="298.44" style="fill:#FF4F19;" width="52.16" height="15.217"/>
<rect x="256" y="298.44" style="fill:#FF3200;" width="26.08" height="15.22"/>
<path style="fill:#3A4DE3;" d="M408.06,461.96C365.54,493.4,312.94,512,256,512s-109.54-18.6-152.06-50.04  c5.08-10.85,10.47-22.06,15.77-32.54c20.63-40.76,69.4-47.28,85.06-47.28h6.67c0,24.61,19.95,44.56,44.56,44.56  s44.56-19.95,44.56-44.56h6.67c15.66,0,64.43,6.52,85.06,47.28C397.59,439.9,402.98,451.11,408.06,461.96z"/>
<path style="fill:#1C2EDE;" d="M408.06,461.96C365.54,493.4,312.94,512,256,512v-85.3c24.61,0,44.56-19.95,44.56-44.56h6.67  c15.66,0,64.43,6.52,85.06,47.28C397.59,439.9,402.98,451.11,408.06,461.96z"/>
<g>
</g>
<g>
</g>
<g>
</g>
<g>
</g>
<g>
</g>
<g>
</g>
<g>
</g>
<g>
</g>
<g>
</g>
<g>
</g>
<g>
</g>
<g>
</g>
<g>
</g>
<g>
</g>
<g>
</g>
</svg>
