<?xml version="1.0" encoding="iso-8859-1"?>
<!-- Generator: Adobe Illustrator 19.0.0, SVG Export Plug-In . SVG Version: 6.00 Build 0)  -->
<svg xmlns="http://www.w3.org/2000/svg" xmlns:xlink="http://www.w3.org/1999/xlink" version="1.1" id="Layer_1" x="0px" y="0px" viewBox="0 0 512 512" style="enable-background:new 0 0 512 512;" xml:space="preserve">
<circle style="fill:#FFE047;" cx="256" cy="256" r="256"/>
<path style="fill:#FFCF00;" d="M512,256c0-14.026-1.146-27.782-3.316-41.196L362.729,68.849C336.068,40.332,298.119,22.5,256,22.5  c-80.682,0-146.088,65.406-146.088,146.088c0,42.112,17.826,80.055,46.335,106.716v83.878c0,0-41.323,26.149,6.696,70.567  l81.998,81.998C248.61,511.903,252.293,512,256,512C397.385,512,512,397.385,512,256z"/>
<g>
	<rect x="156.25" y="264.01" style="fill:#FFFFFF;" width="16.11" height="97.78"/>
	<rect x="247.94" y="307.55" style="fill:#FFFFFF;" width="16.11" height="114.83"/>
</g>
<g>
	<rect x="256" y="307.55" style="fill:#E1E1E3;" width="8.05" height="114.83"/>
	<rect x="339.64" y="264.01" style="fill:#E1E1E3;" width="16.11" height="97.78"/>
</g>
<path style="fill:#FF4F19;" d="M376.558,165.191c0-14.77-16.395-25.877-40.552-33.14c11.946-22.217,15.685-41.664,5.242-52.109  c-10.445-10.442-29.891-6.702-52.108,5.244c-7.263-24.157-18.37-40.553-33.14-40.553c-14.77,0-25.877,16.395-33.14,40.551  c-22.217-11.946-41.663-15.685-52.108-5.241c-10.444,10.444-6.705,29.891,5.241,52.108c-24.157,7.263-40.552,18.37-40.552,33.14  c0,14.793,16.447,25.911,40.666,33.173c-0.435,0.813-0.879,1.629-1.292,2.434c-11.917,23.217-13.322,40.382-4.063,49.64  c4.203,4.203,9.86,6.109,16.573,6.109c9.967,0,22.257-4.219,35.533-11.357c7.263,24.161,18.37,40.559,33.142,40.559  c14.771,0,25.879-16.398,33.141-40.559c13.276,7.138,25.566,11.357,35.533,11.357c6.711,0,12.371-1.907,16.573-6.109  c10.444-10.444,6.705-29.891-5.241-52.108C360.163,191.067,376.558,179.96,376.558,165.191z M324.879,87.167  c3.164,0,5.535,0.729,6.975,2.169c4.713,4.713,1.791,19.376-9.32,39.228c-8.051-1.783-16.672-3.212-25.627-4.281  c-1.069-8.955-2.498-17.578-4.281-25.63C306.41,90.938,317.695,87.167,324.879,87.167z M285.991,165.191  c0,4.213-0.076,8.323-0.217,12.335c-2.736,2.936-5.588,5.895-8.566,8.873s-5.938,5.83-8.873,8.566  c-4.012,0.141-8.122,0.217-12.335,0.217c-4.212,0-8.323-0.076-12.334-0.217c-2.935-2.736-5.895-5.588-8.873-8.566  c-2.979-2.979-5.831-5.939-8.568-8.875c-0.141-4.011-0.217-8.121-0.217-12.333c0-4.209,0.076-8.317,0.217-12.326  c2.777-2.978,5.629-5.944,8.568-8.882c2.982-2.982,5.943-5.827,8.882-8.567c4.008-0.141,8.116-0.217,12.325-0.217  s8.317,0.076,12.326,0.217c2.939,2.74,5.9,5.585,8.882,8.567c2.978,2.978,5.83,5.938,8.566,8.873  C285.915,156.867,285.991,160.978,285.991,165.191z M273.745,122.352c-2.382-2.158-4.783-4.275-7.196-6.344  c4.803-3.673,9.46-6.977,13.939-9.935c1.074,5.254,2.022,10.895,2.82,16.881C280.143,122.71,276.952,122.51,273.745,122.352z   M238.256,122.352c-3.207,0.158-6.398,0.358-9.565,0.602c0.798-5.987,1.746-11.627,2.821-16.882c4.48,2.958,9.137,6.262,13.94,9.936  C243.038,118.077,240.638,120.194,238.256,122.352z M213.162,147.443c-2.168,2.392-4.278,4.792-6.335,7.195  c-3.67-4.799-6.989-9.459-9.945-13.935c5.254-1.075,10.895-2.023,16.882-2.821C213.52,141.047,213.319,144.237,213.162,147.443z   M213.161,182.934c0.158,3.207,0.358,6.398,0.602,9.564c-6.011-0.801-11.673-1.754-16.945-2.834  c3.041-4.585,6.37-9.246,9.981-13.948C208.873,178.138,210.997,180.546,213.161,182.934z M238.251,208.029  c2.381,2.158,4.783,4.269,7.195,6.337c-4.799,3.67-9.459,6.989-13.934,9.945c-1.075-5.255-2.023-10.896-2.821-16.884  C231.856,207.67,235.046,207.871,238.251,208.029z M273.749,208.029c3.205-0.158,6.395-0.358,9.56-0.602  c-0.798,5.987-1.746,11.628-2.821,16.882c-4.476-2.956-9.136-6.274-13.934-9.944C268.967,212.297,271.368,210.186,273.749,208.029z   M298.839,182.935c2.156-2.38,4.271-4.778,6.338-7.189c3.669,4.798,6.988,9.457,9.943,13.932  c-5.254,1.075-10.896,2.023-16.883,2.821C298.48,189.333,298.681,186.142,298.839,182.935z M298.839,147.446  c-0.158-3.207-0.358-6.398-0.602-9.564c5.987,0.798,11.628,1.746,16.882,2.821c-2.955,4.475-6.274,9.134-9.943,13.932  C303.11,152.224,300.995,149.825,298.839,147.446z M256,57.917c6.664,0,14.967,12.434,21.148,34.328  c-6.954,4.432-14.06,9.518-21.147,15.093c-7.088-5.576-14.194-10.662-21.148-15.094C241.033,70.351,249.336,57.917,256,57.917z   M180.147,89.336c1.441-1.441,3.81-2.169,6.975-2.169c7.184,0,18.47,3.772,32.253,11.486c-1.784,8.052-3.212,16.675-4.282,25.63  c-8.954,1.069-17.575,2.497-25.626,4.281C178.356,108.712,175.434,94.048,180.147,89.336z M148.727,165.191  c0-6.664,12.434-14.967,34.328-21.148c4.435,6.959,9.525,14.07,15.105,21.162c-5.604,7.145-10.645,14.241-15.024,21.156  C161.191,180.177,148.727,171.863,148.727,165.191z M180.147,241.044c-3.371-3.37-3.694-14.344,6.488-34.179  c0.856-1.667,1.782-3.362,2.74-5.068c8.077,1.793,16.73,3.228,25.718,4.301c1.069,8.955,2.498,17.576,4.281,25.628  C199.522,242.837,184.859,245.758,180.147,241.044z M256,272.465c-6.665,0-14.968-12.436-21.149-34.333  c6.955-4.433,14.061-9.518,21.149-15.094c7.089,5.576,14.194,10.662,21.149,15.094C270.968,260.028,262.665,272.465,256,272.465z   M331.855,241.044c-4.711,4.712-19.375,1.791-39.228-9.32c1.783-8.051,3.212-16.672,4.281-25.626  c8.954-1.069,17.576-2.497,25.627-4.281C333.645,221.669,336.567,236.332,331.855,241.044z M328.946,186.338  c-4.432-6.954-9.518-14.06-15.094-21.147c5.575-7.087,10.661-14.193,15.093-21.147c21.894,6.181,34.328,14.483,34.328,21.148  C363.273,171.854,350.839,180.157,328.946,186.338z"/>
<path style="fill:#FF3200;" d="M376.56,165.19c0-14.77-16.4-25.88-40.55-33.14c11.94-22.22,15.68-41.66,5.24-52.11  c-10.45-10.44-29.89-6.7-52.11,5.25c-7.26-24.16-18.37-40.56-33.14-40.56v13.29c6.66,0,14.97,12.43,21.15,34.33  c-6.96,4.43-14.06,9.51-21.15,15.09v27.86c4.21,0,8.32,0.08,12.33,0.22c2.94,2.74,5.9,5.58,8.88,8.56s5.83,5.94,8.56,8.88  c0.15,4.01,0.22,8.12,0.22,12.33s-0.07,8.32-0.22,12.34c-2.73,2.93-5.58,5.89-8.56,8.87s-5.94,5.83-8.87,8.56  c-4.02,0.15-8.13,0.22-12.34,0.22v27.86c7.09,5.57,14.19,10.66,21.15,15.09c-6.18,21.9-14.49,34.33-21.15,34.33v13.29  c14.77,0,25.88-16.4,33.14-40.56c13.28,7.14,25.57,11.36,35.53,11.36c6.72,0,12.38-1.91,16.58-6.11  c10.44-10.45,6.7-29.89-5.24-52.11C360.16,191.07,376.56,179.96,376.56,165.19z M273.75,122.35c-2.39-2.16-4.79-4.27-7.2-6.34  c4.8-3.68,9.46-6.98,13.94-9.94c1.07,5.26,2.02,10.9,2.82,16.88C280.14,122.71,276.95,122.51,273.75,122.35z M280.49,224.31  c-4.48-2.96-9.14-6.28-13.94-9.94c2.42-2.07,4.82-4.18,7.2-6.34c3.2-0.16,6.39-0.36,9.56-0.6  C282.51,213.41,281.56,219.06,280.49,224.31z M324.88,87.17c3.16,0,5.53,0.73,6.97,2.17c4.72,4.71,1.79,19.37-9.32,39.22  c-8.05-1.78-16.67-3.21-25.62-4.28c-1.07-8.95-2.5-17.57-4.28-25.63C306.41,90.94,317.7,87.17,324.88,87.17z M298.84,147.45  c-0.16-3.21-0.36-6.4-0.6-9.57c5.98,0.8,11.63,1.75,16.88,2.82c-2.96,4.48-6.27,9.14-9.94,13.94  C303.11,152.22,300.99,149.83,298.84,147.45z M315.12,189.68c-5.25,1.07-10.9,2.02-16.88,2.82c0.24-3.17,0.44-6.36,0.6-9.56  c2.15-2.38,4.27-4.78,6.34-7.19C308.85,180.54,312.16,185.2,315.12,189.68z M331.86,241.04c-4.72,4.72-19.38,1.79-39.23-9.32  c1.78-8.05,3.21-16.67,4.28-25.62c8.95-1.07,17.57-2.5,25.62-4.28C333.65,221.67,336.57,236.33,331.86,241.04z M328.95,186.34  c-4.44-6.96-9.52-14.06-15.1-21.15c5.58-7.09,10.66-14.19,15.1-21.15c21.89,6.18,34.32,14.49,34.32,21.15  S350.84,180.16,328.95,186.34z"/>
<path style="fill:#3A4DE3;" d="M256,22.5c-80.682,0-146.088,65.406-146.088,146.088S175.318,314.676,256,314.676  s146.088-65.406,146.088-146.088S336.682,22.5,256,22.5z M256,285.536c-64.589,0-116.948-52.36-116.948-116.948  S191.411,51.64,256,51.64S372.948,104,372.948,168.588S320.589,285.536,256,285.536z"/>
<path style="fill:#1C2EDE;" d="M256,22.5v29.14c64.59,0,116.95,52.36,116.95,116.95S320.59,285.54,256,285.54v29.14  c80.68,0,146.09-65.41,146.09-146.09S336.68,22.5,256,22.5z"/>
<path style="fill:#3A4DE3;" d="M172.357,359.182h-16.11c0,0-42.118,26.638,8.055,71.818  C214.476,385.82,172.357,359.182,172.357,359.182z"/>
<path style="fill:#1C2EDE;" d="M355.752,359.182h-16.11c0,0-42.118,26.638,8.055,71.818  C397.871,385.82,355.752,359.182,355.752,359.182z"/>
<path style="fill:#FF4F19;" d="M264.052,417.681h-16.11c0,0-42.118,26.638,8.055,71.819  C306.17,444.32,264.052,417.681,264.052,417.681z"/>
<path style="fill:#FF3200;" d="M256,489.5v-71.82h8.05C264.05,417.68,306.17,444.32,256,489.5z"/>
<g>
</g>
<g>
</g>
<g>
</g>
<g>
</g>
<g>
</g>
<g>
</g>
<g>
</g>
<g>
</g>
<g>
</g>
<g>
</g>
<g>
</g>
<g>
</g>
<g>
</g>
<g>
</g>
<g>
</g>
</svg>
