<?xml version="1.0" encoding="iso-8859-1"?>
<!-- Generator: Adobe Illustrator 19.0.0, SVG Export Plug-In . SVG Version: 6.00 Build 0)  -->
<svg xmlns="http://www.w3.org/2000/svg" xmlns:xlink="http://www.w3.org/1999/xlink" version="1.1" id="Layer_1" x="0px" y="0px" viewBox="0 0 512 512" style="enable-background:new 0 0 512 512;" xml:space="preserve">
<circle style="fill:#8A6746;" cx="256" cy="256" r="256"/>
<path style="fill:#644B32;" d="M512,256c0-22.677-2.963-44.659-8.497-65.596l-132.901-132.9l-60.119,24.707L256,26.796  l-45.587,59.071l-69.015-28.363l-9.944,73.95l-73.95,9.944l28.363,69.015L26.796,256l55.415,54.483l-24.707,60.119l132.901,132.901  C211.341,509.037,233.323,512,256,512C397.385,512,512,397.385,512,256z"/>
<polygon style="fill:#FFE047;" points="256,26.796 301.587,85.867 370.602,57.504 380.546,131.454 454.496,141.398 426.134,210.413   485.204,256 426.134,301.587 454.496,370.602 380.546,380.546 370.602,454.496 301.587,426.134 256,485.204 210.413,426.134   141.398,454.496 131.454,380.546 57.504,370.602 85.867,301.587 26.796,256 85.867,210.413 57.504,141.398 131.454,131.454   141.398,57.504 210.413,85.867 "/>
<polygon style="fill:#FFCF00;" points="426.13,301.59 454.5,370.6 380.55,380.55 370.6,454.5 301.59,426.13 256,485.2 256,26.8   301.59,85.87 370.6,57.5 380.55,131.45 454.5,141.4 426.13,210.41 485.2,256 "/>
<circle style="fill:#FFAA20;" cx="256" cy="256" r="160.33"/>
<path style="fill:#FF9A00;" d="M416.33,256c0,88.55-71.78,160.33-160.33,160.33V95.67C344.55,95.67,416.33,167.45,416.33,256z"/>
<path style="fill:#FFFFFF;" d="M212.492,256c0-57.375,46.512-103.886,103.886-103.886c14.167,0,27.669,2.84,39.974,7.975  c-25.274-26.437-60.89-42.905-100.353-42.905c-76.667,0-138.817,62.151-138.817,138.817S179.333,394.817,256,394.817  c39.463,0,75.078-16.468,100.352-42.906c-12.305,5.135-25.807,7.975-39.974,7.975C259.004,359.886,212.492,313.375,212.492,256z"/>
<g>
	<path style="fill:#E1E1E3;" d="M316.38,359.89c14.17,0,27.67-2.84,39.97-7.98c-25.27,26.44-60.89,42.91-100.35,42.91v-54.27   C273.01,352.72,293.86,359.89,316.38,359.89z"/>
	<path style="fill:#E1E1E3;" d="M316.38,152.11c-22.52,0-43.37,7.17-60.38,19.34v-54.27c39.46,0,75.08,16.47,100.35,42.91   C344.05,154.95,330.55,152.11,316.38,152.11z"/>
</g>
<g>
</g>
<g>
</g>
<g>
</g>
<g>
</g>
<g>
</g>
<g>
</g>
<g>
</g>
<g>
</g>
<g>
</g>
<g>
</g>
<g>
</g>
<g>
</g>
<g>
</g>
<g>
</g>
<g>
</g>
</svg>
