<?xml version="1.0" encoding="iso-8859-1"?>
<!-- Generator: Adobe Illustrator 19.0.0, SVG Export Plug-In . SVG Version: 6.00 Build 0)  -->
<svg xmlns="http://www.w3.org/2000/svg" xmlns:xlink="http://www.w3.org/1999/xlink" version="1.1" id="Layer_1" x="0px" y="0px" viewBox="0 0 512 512" style="enable-background:new 0 0 512 512;" xml:space="preserve">
<circle style="fill:#3A4DE3;" cx="256" cy="256" r="256"/>
<path style="fill:#1C2EDE;" d="M512,256c0-25.571-3.767-50.259-10.745-73.559L383.238,64.425L156.925,290.738  c-20.924-16.157-51.175-14.662-70.353,4.516l-13.513,13.513c-20.819,20.818-20.818,54.693,0,75.511l119.888,119.888  C213.118,509.276,234.24,512,256,512C397.385,512,512,397.385,512,256z"/>
<g>
	
		<rect x="315.06" y="179.479" transform="matrix(-0.7071 -0.7071 0.7071 -0.7071 478.0212 589.8607)" style="fill:#FFE047;" width="92.229" height="32.9"/>
	
		<rect x="362.166" y="132.386" transform="matrix(-0.7071 -0.7071 0.7071 -0.7071 591.7357 542.777)" style="fill:#FFE047;" width="92.229" height="32.9"/>
</g>
<path style="fill:#FFCF00;" d="M214.595,347.767l-28.371-28.371L412.217,93.404l-28.979-28.979L156.925,290.738  c-20.924-16.157-51.175-14.662-70.353,4.517l-13.513,13.513c-20.818,20.818-20.818,54.693,0,75.511l52.513,52.512  c20.818,20.818,54.692,20.819,75.511,0l13.513-13.513C235.414,402.46,235.413,368.586,214.595,347.767z M173.691,409.4  c-5.715,5.715-15.014,5.715-20.728,0l-52.513-52.513c-5.715-5.715-5.715-15.014,0-20.728l13.513-13.513  c5.715-5.715,15.014-5.715,20.729,0l52.512,52.513c5.715,5.715,5.715,15.013,0,20.728L173.691,409.4z"/>
<path style="fill:#ECB300;" d="M214.595,347.767l-28.371-28.371L412.217,93.404l-14.489-14.489L144.344,332.298l42.86,42.86  c5.715,5.715,5.715,15.013,0,20.728L173.691,409.4c-5.715,5.715-15.014,5.715-20.728,0l-42.86-42.86l-27.391,27.391l42.86,42.86  c20.818,20.818,54.692,20.819,75.511,0l13.513-13.513C235.414,402.46,235.413,368.586,214.595,347.767z"/>
<g>
</g>
<g>
</g>
<g>
</g>
<g>
</g>
<g>
</g>
<g>
</g>
<g>
</g>
<g>
</g>
<g>
</g>
<g>
</g>
<g>
</g>
<g>
</g>
<g>
</g>
<g>
</g>
<g>
</g>
</svg>
