<?xml version="1.0" encoding="iso-8859-1"?>
<!-- Generator: Adobe Illustrator 19.0.0, SVG Export Plug-In . SVG Version: 6.00 Build 0)  -->
<svg xmlns="http://www.w3.org/2000/svg" xmlns:xlink="http://www.w3.org/1999/xlink" version="1.1" id="Layer_1" x="0px" y="0px" viewBox="0 0 512 512" style="enable-background:new 0 0 512 512;" xml:space="preserve">
<circle style="fill:#00D9E0;" cx="256" cy="256" r="256"/>
<path style="fill:#00B7BE;" d="M512,256c0-9.068-0.479-18.023-1.399-26.848L346.728,65.279  C322.616,39.517,290.836,23.854,256,23.854c-75.353,0-136.439,73.246-136.439,163.599c0,52.44,20.583,99.106,52.584,129.042  l48.371,48.404v13.876l14.475,13.956v94.456l24.765,24.765C399.408,509.941,512,396.129,512,256z"/>
<rect x="234.99" y="344.61" style="fill:#3A4DE3;" width="42.02" height="142.57"/>
<rect x="256" y="344.61" style="fill:#1C2EDE;" width="21.01" height="142.58"/>
<rect x="220.52" y="344.61" style="fill:#FFFFFF;" width="70.967" height="34.16"/>
<rect x="256" y="344.61" style="fill:#E1E1E3;" width="35.48" height="34.17"/>
<ellipse style="fill:#3A4DE3;" cx="256" cy="187.45" rx="136.44" ry="163.6"/>
<path style="fill:#1C2EDE;" d="M392.44,187.45c0,90.36-61.09,163.6-136.44,163.6V23.85C331.35,23.85,392.44,97.1,392.44,187.45z"/>
<ellipse style="fill:#FFFFFF;" cx="256" cy="187.45" rx="111.73" ry="133.97"/>
<g>
	<path style="fill:#E1E1E3;" d="M367.73,187.45c0,73.99-50.02,133.97-111.73,133.97V53.48C317.71,53.48,367.73,113.46,367.73,187.45   z"/>
	<path style="fill:#E1E1E3;" d="M311.479,71.146L180.569,286.28c-13.609-14.943-24.137-33.889-30.262-55.273L258.305,53.522   C277.638,53.983,295.759,60.339,311.479,71.146z"/>
</g>
<path style="fill:#C8C6CC;" d="M311.48,71.15L256,162.32V57.3l2.3-3.78C277.64,53.98,295.76,60.34,311.48,71.15z"/>
<path style="fill:#E1E1E3;" d="M344.458,105.617L217.975,313.462c-7.023-3.044-13.706-6.901-19.977-11.498l131.238-215.68  C334.839,92.105,339.934,98.582,344.458,105.617z"/>
<path style="fill:#C8C6CC;" d="M344.46,105.62L256,250.98v-44.34l73.24-120.36C334.84,92.1,339.93,98.58,344.46,105.62z"/>
<g>
</g>
<g>
</g>
<g>
</g>
<g>
</g>
<g>
</g>
<g>
</g>
<g>
</g>
<g>
</g>
<g>
</g>
<g>
</g>
<g>
</g>
<g>
</g>
<g>
</g>
<g>
</g>
<g>
</g>
</svg>
