<?xml version="1.0" encoding="iso-8859-1"?>
<!-- Generator: Adobe Illustrator 19.0.0, SVG Export Plug-In . SVG Version: 6.00 Build 0)  -->
<svg xmlns="http://www.w3.org/2000/svg" xmlns:xlink="http://www.w3.org/1999/xlink" version="1.1" id="Layer_1" x="0px" y="0px" viewBox="0 0 512 512" style="enable-background:new 0 0 512 512;" xml:space="preserve">
<circle style="fill:#DFCDBD;" cx="256" cy="256" r="256"/>
<path style="fill:#C8AD92;" d="M512,256c0-8.386-0.416-16.674-1.204-24.854L389.258,110.427c0,0-26.926,7.922-59.566,24.926  L256,62.28c0,0-36.023,31.258-65.431,77.506c-36.233-20.071-67.827-29.359-67.827-29.359s-20.725,40.025-30.591,90.564  c-34.06-3.348-60.013-0.849-60.013-0.849s-10.123,105.013,37.61,169.817c5.464,7.418,11.559,14.225,18.159,20.412l116.408,116.408  C221.009,510.202,238.294,512,256,512C397.385,512,512,397.385,512,256z"/>
<path style="fill:#FF3200;" d="M276.772,215.759c-45.435-73.429-154.03-105.333-154.03-105.333S70.683,210.928,92.299,294.528  c19.3,74.643,91.326,127.811,163.855,128.342C305.93,370.116,317.339,281.321,276.772,215.759z"/>
<path style="fill:#EE2600;" d="M235.228,215.759c45.435-73.429,154.03-105.333,154.03-105.333s52.059,100.502,30.443,184.102  c-19.3,74.643-91.326,127.811-163.855,128.342C206.07,370.116,194.661,281.321,235.228,215.759z"/>
<path style="fill:#FF4F19;" d="M201.954,237.753c-64.804-47.734-169.817-37.611-169.817-37.611S22.015,305.155,69.748,369.959  c42.62,57.861,123.387,78.834,186.307,54.101C280.788,361.14,259.815,280.373,201.954,237.753z"/>
<path style="fill:#FF3200;" d="M310.046,237.753c64.804-47.734,169.817-37.611,169.817-37.611s10.123,105.013-37.611,169.817  c-42.62,57.861-123.387,78.834-186.307,54.101C231.212,361.14,252.185,280.373,310.046,237.753z"/>
<path style="fill:#FF633E;" d="M357.242,229.506C344.169,138.779,256,62.28,256,62.28s-88.169,76.5-101.242,167.226  C143.087,310.512,188.877,392.534,256,423.32C323.123,392.534,368.913,310.512,357.242,229.506z"/>
<path style="fill:#FF4F19;" d="M357.242,229.506C344.17,138.781,256.003,62.282,256,62.28v361.04  C323.123,392.534,368.913,310.512,357.242,229.506z"/>
<g>
</g>
<g>
</g>
<g>
</g>
<g>
</g>
<g>
</g>
<g>
</g>
<g>
</g>
<g>
</g>
<g>
</g>
<g>
</g>
<g>
</g>
<g>
</g>
<g>
</g>
<g>
</g>
<g>
</g>
</svg>
