<?xml version="1.0" encoding="iso-8859-1"?>
<!-- Generator: Adobe Illustrator 19.0.0, SVG Export Plug-In . SVG Version: 6.00 Build 0)  -->
<svg xmlns="http://www.w3.org/2000/svg" xmlns:xlink="http://www.w3.org/1999/xlink" version="1.1" id="Layer_1" x="0px" y="0px" viewBox="0 0 512 512" style="enable-background:new 0 0 512 512;" xml:space="preserve">
<circle style="fill:#8A6746;" cx="256" cy="256" r="256"/>
<path style="fill:#644B32;" d="M512,256c0-22.677-2.963-44.659-8.497-65.596l-132.901-132.9l-60.119,24.707L256,26.796  l-45.587,59.071l-69.015-28.363l-9.944,73.95l-73.95,9.944l28.363,69.015L26.796,256l55.414,54.483l-24.707,60.119l132.901,132.901  C211.341,509.037,233.323,512,256,512C397.385,512,512,397.385,512,256z"/>
<polygon style="fill:#FFAA20;" points="256,26.796 301.587,85.867 370.602,57.504 380.546,131.454 454.496,141.398 426.133,210.413   485.204,256 426.133,301.587 454.496,370.602 380.546,380.546 370.602,454.496 301.587,426.134 256,485.204 210.413,426.134   141.398,454.496 131.454,380.546 57.503,370.602 85.866,301.587 26.796,256 85.866,210.413 57.503,141.398 131.454,131.454   141.398,57.504 210.413,85.867 "/>
<polygon style="fill:#FF9A00;" points="426.13,301.59 454.5,370.6 380.55,380.55 370.6,454.5 301.59,426.13 256,485.2 256,26.8   301.59,85.87 370.6,57.5 380.55,131.45 454.5,141.4 426.13,210.41 485.2,256 "/>
<circle style="fill:#FFE047;" cx="256" cy="256" r="160.03"/>
<g>
	<path style="fill:#FFCF00;" d="M416.03,256c0,88.38-71.65,160.03-160.03,160.03V95.97C344.38,95.97,416.03,167.62,416.03,256z"/>
	<rect x="154.46" y="200.06" style="fill:#FFCF00;" width="78.56" height="32.23"/>
	<rect x="212.96" y="330.43" style="fill:#FFCF00;" width="86.07" height="25.631"/>
</g>
<g>
	<rect x="256" y="330.43" style="fill:#ECB300;" width="43.04" height="25.63"/>
	<polygon style="fill:#ECB300;" points="256,200.058 256,302.501 288.23,302.501 288.23,232.288 358.443,232.288 358.443,200.058     "/>
</g>
<g>
</g>
<g>
</g>
<g>
</g>
<g>
</g>
<g>
</g>
<g>
</g>
<g>
</g>
<g>
</g>
<g>
</g>
<g>
</g>
<g>
</g>
<g>
</g>
<g>
</g>
<g>
</g>
<g>
</g>
</svg>
