<?xml version="1.0" encoding="iso-8859-1"?>
<!-- Generator: Adobe Illustrator 19.0.0, SVG Export Plug-In . SVG Version: 6.00 Build 0)  -->
<svg xmlns="http://www.w3.org/2000/svg" xmlns:xlink="http://www.w3.org/1999/xlink" version="1.1" id="Layer_1" x="0px" y="0px" viewBox="0 0 512 512" style="enable-background:new 0 0 512 512;" xml:space="preserve">
<circle style="fill:#FFB84D;" cx="256" cy="256" r="256"/>
<path style="fill:#FF9A00;" d="M509.84,289.34L256,35.5L51.318,384.43L160.44,493.552C189.968,505.442,222.216,512,256,512  C386.085,512,493.5,414.971,509.84,289.34z"/>
<polygon style="fill:#00D9E0;" points="256,35.5 51.318,384.43 460.682,384.43 "/>
<polygon style="fill:#00B7BE;" points="460.68,384.43 256,384.43 256,35.5 "/>
<polygon style="fill:#3A4DE3;" points="256,81.696 90.846,359.885 421.154,359.885 "/>
<polygon style="fill:#1C2EDE;" points="421.15,359.89 256,359.89 256,81.7 "/>
<path style="fill:#FFFFFF;" d="M256,209.965c-66.857,0-99.828,56.783-99.828,56.783s32.971,56.783,99.828,56.783  s99.828-56.783,99.828-56.783S322.857,209.965,256,209.965z"/>
<path style="fill:#D9D9DB;" d="M355.83,266.75c0,0-32.97,56.78-99.83,56.78V209.97C322.86,209.97,355.83,266.75,355.83,266.75z"/>
<circle style="fill:#8A6746;" cx="256" cy="266.75" r="42.4"/>
<path style="fill:#715538;" d="M298.4,266.75c0,23.42-18.98,42.4-42.4,42.4v-84.8C279.42,224.35,298.4,243.33,298.4,266.75z"/>
<circle style="fill:#644B32;" cx="256" cy="266.75" r="28.46"/>
<path style="fill:#5A422D;" d="M284.46,266.75c0,15.72-12.74,28.46-28.46,28.46v-56.92C271.72,238.29,284.46,251.03,284.46,266.75z"/>
<g>
</g>
<g>
</g>
<g>
</g>
<g>
</g>
<g>
</g>
<g>
</g>
<g>
</g>
<g>
</g>
<g>
</g>
<g>
</g>
<g>
</g>
<g>
</g>
<g>
</g>
<g>
</g>
<g>
</g>
</svg>
