<?xml version="1.0" encoding="iso-8859-1"?>
<!-- Generator: Adobe Illustrator 19.0.0, SVG Export Plug-In . SVG Version: 6.00 Build 0)  -->
<svg xmlns="http://www.w3.org/2000/svg" xmlns:xlink="http://www.w3.org/1999/xlink" version="1.1" id="Layer_1" x="0px" y="0px" viewBox="0 0 512 512" style="enable-background:new 0 0 512 512;" xml:space="preserve">
<circle style="fill:#3A4DE3;" cx="256" cy="256" r="256"/>
<path style="fill:#1C2EDE;" d="M512,256c0-3.458-0.089-6.895-0.225-10.319L367.278,101.183C339.361,71.668,299.833,53.25,256,53.25  c-84.583,0-153.151,68.568-153.151,153.151c0,40.915,16.046,78.082,42.187,105.554h-0.002v45.068h-9.695  c-13.181,0-23.866,10.685-23.866,23.866v42.457l80.608,80.608C212.512,509.206,233.93,512,256,512C397.385,512,512,397.385,512,256z  "/>
<circle style="fill:#00D9E0;" cx="256" cy="206.4" r="153.15"/>
<path style="fill:#00B7BE;" d="M409.15,206.403c0,84.58-68.57,153.15-153.15,153.15v-306.3  C340.58,53.253,409.15,121.813,409.15,206.403z"/>
<rect x="145.03" y="311.95" style="fill:#FF4F19;" width="221.93" height="49.759"/>
<rect x="256" y="311.95" style="fill:#FF3200;" width="110.97" height="49.76"/>
<path style="fill:#FFB84D;" d="M400.528,423.347H111.472V380.89c0-13.181,10.685-23.866,23.866-23.866h241.323  c13.181,0,23.866,10.685,23.866,23.866v42.457H400.528z"/>
<path style="fill:#FF9A00;" d="M400.53,380.893v42.45H256v-66.32h120.66C389.84,357.023,400.53,367.713,400.53,380.893z"/>
<g>
</g>
<g>
</g>
<g>
</g>
<g>
</g>
<g>
</g>
<g>
</g>
<g>
</g>
<g>
</g>
<g>
</g>
<g>
</g>
<g>
</g>
<g>
</g>
<g>
</g>
<g>
</g>
<g>
</g>
</svg>
