<?xml version="1.0" encoding="iso-8859-1"?>
<!-- Generator: Adobe Illustrator 19.0.0, SVG Export Plug-In . SVG Version: 6.00 Build 0)  -->
<svg xmlns="http://www.w3.org/2000/svg" xmlns:xlink="http://www.w3.org/1999/xlink" version="1.1" id="Layer_1" x="0px" y="0px" viewBox="0 0 512 512" style="enable-background:new 0 0 512 512;" xml:space="preserve">
<circle style="fill:#FFB84D;" cx="256" cy="256" r="256"/>
<path style="fill:#FF9A00;" d="M512,256c0-31.561-5.726-61.781-16.171-89.698l-56.002-56.657c-3.341-3.787-7.829-6.62-13.086-7.877  l-27.416-6.555l-18.159-18.257c-4.575-4.426-10.794-7.161-17.624-7.161h-70.533L201.973,48.03  c-13.591-3.249-27.369,5.212-30.619,18.803l-0.708,2.962h-38.207c-13.974,0-25.407,11.433-25.407,25.407v240.67l-10.458,43.741  c-2.515,10.521,1.99,21.15,10.458,26.925v10.26c0,6.832,2.734,13.055,7.161,17.632l66.974,66.444  C204.838,508.101,229.962,512,256,512C397.385,512,512,397.385,512,256z"/>
<path style="fill:#1C2EDE;" d="M341.513,464.299l-227.507-54.393c-12.838-3.069-20.831-16.085-17.761-28.923L171.68,65.465  c3.069-12.838,16.085-20.831,28.923-17.761l227.507,54.393c12.838,3.069,20.831,16.085,17.761,28.923l-75.435,315.519  C367.366,459.376,354.351,467.368,341.513,464.299z"/>
<path style="fill:#4B5BE5;" d="M364.948,442.207H131.03c-13.2,0-24-10.8-24-24V93.796c0-13.2,10.8-24,24-24h233.919  c13.2,0,24,10.8,24,24v324.411C388.948,431.407,378.148,442.207,364.948,442.207z"/>
<path style="fill:#3A4DE3;" d="M388.947,95.201v321.603c0,13.974-11.433,25.407-25.407,25.407H247.99V69.793h115.55  C377.513,69.793,388.947,81.227,388.947,95.201z"/>
<rect x="133.13" y="99.38" style="fill:#FFE047;" width="229.71" height="313.24"/>
<rect x="247.99" y="99.38" style="fill:#FFCF00;" width="114.85" height="313.24"/>
<circle style="fill:#00D9E0;" cx="247.99" cy="256" r="91.46"/>
<path style="fill:#00B7BE;" d="M339.445,255.997c0,50.518-40.948,91.466-91.456,91.466V164.541  C298.497,164.541,339.445,205.489,339.445,255.997z"/>
<path style="fill:#4B5BE5;" d="M301.707,256.002l26.859-46.52h-53.717l-26.859-46.521l-26.859,46.521h-53.717l26.859,46.52  l-26.859,46.52h53.717l26.859,46.521l26.859-46.521h53.717L301.707,256.002z M310.742,219.772l-14.976,25.94l-14.976-25.94H310.742z   M289.824,256.002l-20.917,36.23h-41.835l-20.917-36.23l20.917-36.23h41.835L289.824,256.002z M247.989,183.541l14.977,25.94  h-29.953L247.989,183.541z M185.236,219.772h29.952l-14.976,25.94L185.236,219.772z M185.236,292.232l14.976-25.94l14.976,25.94  H185.236z M247.989,328.462l-14.977-25.94h29.953L247.989,328.462z M295.766,266.292l14.976,25.94h-29.953L295.766,266.292z"/>
<path style="fill:#1C2EDE;" d="M328.566,209.481h-53.717L247.99,162.96v20.581l14.977,25.94H247.99v10.29h20.918l20.917,36.23  l-20.917,36.23H247.99v10.29h14.977l-14.977,25.94v20.581l26.859-46.521h53.717l-26.859-46.52L328.566,209.481z M280.789,219.772  h29.953l-14.976,25.94L280.789,219.772z M310.742,292.232h-29.953l14.976-25.94L310.742,292.232z"/>
<path style="fill:#8A6746;" d="M247.989,351.187c-52.486,0-95.186-42.7-95.186-95.185s42.7-95.185,95.186-95.185  s95.185,42.7,95.185,95.185S300.475,351.187,247.989,351.187z M247.989,171.106c-46.811,0-84.895,38.084-84.895,84.895  s38.084,84.895,84.895,84.895s84.895-38.084,84.895-84.895S294.8,171.106,247.989,171.106z"/>
<path style="fill:#644B32;" d="M247.989,160.815v10.29c46.813,0,84.892,38.09,84.892,84.892c0,46.813-38.079,84.902-84.892,84.902  v10.29c52.487,0,95.182-42.705,95.182-95.192C343.171,203.52,300.476,160.815,247.989,160.815z"/>
<g>
</g>
<g>
</g>
<g>
</g>
<g>
</g>
<g>
</g>
<g>
</g>
<g>
</g>
<g>
</g>
<g>
</g>
<g>
</g>
<g>
</g>
<g>
</g>
<g>
</g>
<g>
</g>
<g>
</g>
</svg>
