<?xml version="1.0" encoding="iso-8859-1"?>
<!-- Generator: Adobe Illustrator 19.0.0, SVG Export Plug-In . SVG Version: 6.00 Build 0)  -->
<svg xmlns="http://www.w3.org/2000/svg" xmlns:xlink="http://www.w3.org/1999/xlink" version="1.1" id="Layer_1" x="0px" y="0px" viewBox="0 0 512 512" style="enable-background:new 0 0 512 512;" xml:space="preserve">
<circle style="fill:#8A6746;" cx="256" cy="256" r="256"/>
<path style="fill:#644B32;" d="M512,256c0-36.16-7.513-70.561-21.038-101.749l-60.085-61.173C427.879,89.377,423.305,87,418.199,87  H93.801c-8.983,0-16.333,7.35-16.333,16.333v8.687c0,4.834,2.13,9.19,5.496,12.185L98.5,139.474v244.172h-4.699  c-8.983,0-16.333,7.35-16.333,16.333v8.687c0,4.627,1.952,8.818,5.072,11.795l71.297,70.32C185.135,504.42,219.68,512,256,512  C397.385,512,512,397.385,512,256z"/>
<rect x="98.5" y="118.13" style="fill:#FF9A00;" width="30" height="275.74"/>
<rect x="383.5" y="118.13" style="fill:#E67500;" width="30" height="275.74"/>
<path style="fill:#FFFFFF;" d="M314.723,279.478c-14.391-9.861-17.652-15.732-17.902-23.478c0.25-7.746,3.511-13.617,17.902-23.478  c27.595-18.908,27.018-40.627,27.018-63.891s0-48.079,0-48.079H170.259c0,0,0,24.815,0,48.079s-0.577,44.983,27.018,63.891  c14.391,9.861,17.652,15.732,17.902,23.478c-0.25,7.746-3.511,13.617-17.902,23.478c-27.595,18.908-27.018,40.627-27.018,63.891  s0,48.079,0,48.079H341.74c0,0,0-24.815,0-48.079C341.741,320.105,342.318,298.386,314.723,279.478z"/>
<path style="fill:#F0E7DF;" d="M341.742,343.371c0,23.263,0,48.079,0,48.079H256v-270.9h85.742c0,0,0,24.815,0,48.079  c0,23.263,0.578,44.983-27.023,63.892c-14.391,9.864-17.65,15.736-17.9,23.479c0.25,7.743,3.509,13.615,17.9,23.479  C342.319,298.388,341.742,320.108,341.742,343.371z"/>
<path style="fill:#FF4F19;" d="M304.431,291.786c-10.4-6.628-17.028-14.581-17.028-14.581h-62.808c0,0-6.628,7.953-17.028,14.581  s-20.359,14.513-20.359,42.247s0,50.367,0,50.367H324.79c0,0,0-22.633,0-50.367C324.79,306.299,314.831,298.414,304.431,291.786z"/>
<path style="fill:#FF3200;" d="M324.79,334.033c0,27.738,0,50.364,0,50.364H256V277.203h31.403c0,0,6.631,7.959,17.029,14.581  C314.831,298.414,324.79,306.295,324.79,334.033z"/>
<path style="fill:#FFE047;" d="M418.199,128.354H93.801c-8.983,0-16.333-7.35-16.333-16.333v-8.687  C77.468,94.35,84.818,87,93.801,87h324.398c8.983,0,16.333,7.35,16.333,16.333v8.687  C434.532,121.004,427.182,128.354,418.199,128.354z"/>
<path style="fill:#FFCF00;" d="M418.199,128.354c8.983,0,16.333-7.35,16.333-16.333v-8.687c0-8.983-7.35-16.333-16.333-16.333H256  v41.354L418.199,128.354L418.199,128.354z"/>
<path style="fill:#FFE047;" d="M418.199,425H93.801c-8.983,0-16.333-7.35-16.333-16.333v-8.687c0-8.983,7.35-16.333,16.333-16.333  h324.398c8.983,0,16.333,7.35,16.333,16.333v8.687C434.532,417.65,427.182,425,418.199,425z"/>
<path style="fill:#FFCF00;" d="M418.199,425c8.983,0,16.333-7.35,16.333-16.333v-8.687c0-8.983-7.35-16.333-16.333-16.333H256V425  H418.199z"/>
<g>
</g>
<g>
</g>
<g>
</g>
<g>
</g>
<g>
</g>
<g>
</g>
<g>
</g>
<g>
</g>
<g>
</g>
<g>
</g>
<g>
</g>
<g>
</g>
<g>
</g>
<g>
</g>
<g>
</g>
</svg>
