<?xml version="1.0" encoding="iso-8859-1"?>
<!-- Generator: Adobe Illustrator 19.0.0, SVG Export Plug-In . SVG Version: 6.00 Build 0)  -->
<svg xmlns="http://www.w3.org/2000/svg" xmlns:xlink="http://www.w3.org/1999/xlink" version="1.1" id="Layer_1" x="0px" y="0px" viewBox="0 0 512 512" style="enable-background:new 0 0 512 512;" xml:space="preserve">
<circle style="fill:#3A4DE3;" cx="256" cy="256" r="256"/>
<path style="fill:#1C2EDE;" d="M511.027,278.244L256,22.781c0,0-31.026,33.956-38.288,61.992  c-4.607,17.788,0.536,33.271,14.697,44.638l22.273,22.479H216.86c-17.98,0-32.68,14.7-32.68,32.68v215.325h-72.526v50.636  l38.733,38.733C182.586,503.866,218.343,512,256,512C389.889,512,499.752,409.211,511.027,278.244z"/>
<path style="fill:#FFFFFF;" d="M327.82,184.57V415.5H184.18V184.57c0-17.98,14.7-32.68,32.68-32.68h78.28  C313.12,151.89,327.82,166.59,327.82,184.57z"/>
<path style="fill:#F0E7DF;" d="M327.826,185.63c0-18.559-15.185-33.744-33.744-33.744H256v263.619h71.826V185.63z"/>
<path style="fill:#F0E7DE;" d="M327.822,184.569v83.077c-1.25-1.821-2.915-3.332-4.862-4.388s-4.175-1.656-6.538-1.656  c-7.536,0-13.706,6.112-13.822,13.618v57.573c0,3.991-1.637,7.633-4.272,10.257c-2.634,2.635-6.257,4.272-10.257,4.272  c-7.991,0-14.529-6.538-14.529-14.529v-20.728c-2.664,1.869-5.889,2.974-9.366,2.974c-9.018,0-16.389-7.381-16.389-16.389v-17.735  c-0.087-4.688-2.053-8.93-5.172-12.001s-7.4-4.969-12.098-4.969c-9.502,0-17.28,7.768-17.28,17.28v51.568  c0,3.991-1.637,7.633-4.271,10.257c-2.635,2.635-6.257,4.272-10.257,4.272c-7.991,0-14.529-6.538-14.529-14.529V184.569  c0-17.977,14.703-32.68,32.681-32.68h78.282C313.118,151.889,327.822,166.592,327.822,184.569z"/>
<path style="fill:#DFCDBD;" d="M264.175,315.039c3.477,0,6.703-1.104,9.366-2.974v20.728c0,7.991,6.538,14.529,14.529,14.529  c4,0,7.623-1.637,10.257-4.272c2.634-2.625,4.271-6.267,4.271-10.257V275.22c0.116-7.507,6.286-13.618,13.822-13.618  c2.363,0,4.591,0.6,6.538,1.656s3.613,2.567,4.862,4.388v-83.077c0-17.977-14.703-32.68-32.681-32.68H256v160.933  C258.411,314.223,261.199,315.039,264.175,315.039z"/>
<rect x="111.65" y="399.89" style="fill:#BD9B7B;" width="288.69" height="50.636"/>
<rect x="256" y="399.89" style="fill:#8A6746;" width="144.35" height="50.636"/>
<path style="fill:#FFCF00;" d="M294.288,84.773C287.026,56.737,256,22.781,256,22.781s-31.026,33.956-38.288,61.992  c-6.616,25.541,6.85,46.338,38.288,57.008C287.439,131.112,300.904,110.315,294.288,84.773z"/>
<path style="fill:#ECB300;" d="M256,141.781c31.439-10.669,44.904-31.466,38.288-57.008C287.026,56.737,256,22.781,256,22.781l0,0  V141.781L256,141.781z"/>
<g>
</g>
<g>
</g>
<g>
</g>
<g>
</g>
<g>
</g>
<g>
</g>
<g>
</g>
<g>
</g>
<g>
</g>
<g>
</g>
<g>
</g>
<g>
</g>
<g>
</g>
<g>
</g>
<g>
</g>
</svg>
