<?xml version="1.0" encoding="iso-8859-1"?>
<!-- Generator: Adobe Illustrator 19.0.0, SVG Export Plug-In . SVG Version: 6.00 Build 0)  -->
<svg xmlns="http://www.w3.org/2000/svg" xmlns:xlink="http://www.w3.org/1999/xlink" version="1.1" id="Layer_1" x="0px" y="0px" viewBox="0 0 512 512" style="enable-background:new 0 0 512 512;" xml:space="preserve">
<circle style="fill:#00D9E0;" cx="256" cy="256" r="256"/>
<path style="fill:#00B7BE;" d="M512,256c0-40.475-9.408-78.748-26.133-112.774l-50.081-50.081H306.351  c-23.02,0-42.547-1.169-48.487,17.775l-6.107-5.454c-7.81-13.253-25.57-12.321-46.11-12.321H76.214v32.624H57.955v272.666  l89.428,89.428C180.358,503.336,217.165,512,256,512C397.385,512,512,397.385,512,256z"/>
<rect x="57.955" y="125.77" style="fill:#8A6746;" width="396.09" height="272.67"/>
<rect x="256" y="125.77" style="fill:#644B32;" width="198.04" height="272.67"/>
<polygon style="fill:#FF4F19;" points="213.102,443.913 234.551,423.454 256,443.913 256,374.818 213.102,374.818 "/>
<rect x="76.21" y="323.83" style="fill:#FFE047;" width="359.57" height="53.15"/>
<rect x="256" y="323.83" style="fill:#FFCF00;" width="179.79" height="53.15"/>
<path style="fill:#FFFFFF;" d="M306.352,93.145c-27.693,0-50.352-1.721-50.352,31.96c0-33.681-22.658-31.96-50.352-31.96H76.214  v249.184h142.681c36.318,0,37.105,29.623,37.105,29.623s0.029-29.623,37.105-29.623h142.681V93.145H306.352z"/>
<path style="fill:#E1E1E3;" d="M306.352,93.145c-27.693,0-50.352-1.721-50.352,31.96v246.848c0,0,0.029-29.623,37.105-29.623  h142.681V93.145H306.352z"/>
<rect x="96.39" y="120.1" style="fill:#4A5BE5;" width="138.69" height="188.12"/>
<g>
	<path style="fill:#00D9E0;" d="M213.377,224.357h-95.291l47.646-82.524L213.377,224.357z M128.625,218.272h74.213l-37.106-64.27   L128.625,218.272z"/>
	<path style="fill:#00D9E0;" d="M165.731,251.865l-47.646-82.524h95.291L165.731,251.865z M128.625,175.425l37.106,64.27   l37.106-64.27L128.625,175.425L128.625,175.425z"/>
</g>
<path style="fill:#FFE047;" d="M165.731,253.133c-31.035,0-56.284-25.249-56.284-56.284s25.249-56.284,56.284-56.284  s56.284,25.249,56.284,56.284S196.766,253.133,165.731,253.133z M165.731,146.649c-27.68,0-50.199,22.519-50.199,50.199  s22.519,50.199,50.199,50.199s50.199-22.519,50.199-50.199C215.93,169.168,193.411,146.649,165.731,146.649z"/>
<rect x="124.58" y="269.26" style="fill:#00D9E0;" width="82.29" height="16.563"/>
<g>
	<rect x="291.45" y="138.76" style="fill:#283EE1;" width="110.73" height="15.864"/>
	<rect x="291.45" y="183.74" style="fill:#283EE1;" width="110.73" height="15.864"/>
	<rect x="291.45" y="228.72" style="fill:#283EE1;" width="110.73" height="15.864"/>
	<rect x="291.45" y="273.71" style="fill:#283EE1;" width="110.73" height="15.864"/>
</g>
<g>
</g>
<g>
</g>
<g>
</g>
<g>
</g>
<g>
</g>
<g>
</g>
<g>
</g>
<g>
</g>
<g>
</g>
<g>
</g>
<g>
</g>
<g>
</g>
<g>
</g>
<g>
</g>
<g>
</g>
</svg>
