<?xml version="1.0" encoding="iso-8859-1"?>
<!-- Generator: Adobe Illustrator 19.0.0, SVG Export Plug-In . SVG Version: 6.00 Build 0)  -->
<svg xmlns="http://www.w3.org/2000/svg" xmlns:xlink="http://www.w3.org/1999/xlink" version="1.1" id="Layer_1" x="0px" y="0px" viewBox="0 0 512 512" style="enable-background:new 0 0 512 512;" xml:space="preserve">
<circle style="fill:#DFCDBD;" cx="256" cy="256" r="256"/>
<path style="fill:#C8AD92;" d="M512,256c0-7.378-0.33-14.678-0.942-21.898L390.914,113.959c-30.498,0.466-60.99,16.44-79.88,28.612  l-75.148-83.688c-47.661,7.478-76.76,33.509-88.216,45.894C102.429,114.59,67.543,141.31,49,158.423l21.197,20.863L49,188.743  L151.967,291.71c0.085,0.079-20.339-4.853-30.881-5.014c0,0,12.502,12.424,23.397,29.812c10.896,17.389,13.963,29.812,13.963,29.812  s-3.067,12.424-13.963,29.812c-10.895,17.389-23.397,29.812-23.397,29.812l104.215,104.215C235.368,511.364,245.609,512,256,512  C397.385,512,512,397.385,512,256z"/>
<path style="fill:#1C2EDE;" d="M159.585,236.604c-0.377,1.132-2.799,26.416,32.941,43.775c0,0-3.129-32.454,8.57-40.756  L159.585,236.604z"/>
<path style="fill:#3A4DE3;" d="M367.517,203.396c-10.895-17.389-13.963-29.812-13.963-29.812s3.067-12.424,13.963-29.812  c10.896-17.389,23.397-29.812,23.397-29.812c-49.436,0.755-98.871,42.266-98.871,42.266v34.718c0,0,49.436,41.511,98.871,42.266  C390.914,233.208,378.413,220.784,367.517,203.396z"/>
<path style="fill:#1C2EDE;" d="M390.914,233.208c0,0-12.502-12.424-23.397-29.812c-10.895-17.389-13.963-29.812-13.963-29.812  h-61.512v17.359C292.043,190.942,341.478,232.453,390.914,233.208z"/>
<path style="fill:#3A4DE3;" d="M142.058,111.425c0,0,30.568-42.617,93.828-52.542c0,0-6.983,49.358,2.577,61.301L142.058,111.425z"/>
<path style="fill:#6D76E7;" d="M326.242,173.581h-0.003c-0.132-0.172-55.796-72.595-143.775-72.595  c-62.093,0-110.405,36.157-133.464,57.437l33.979,15.16L49,188.743c23.058,21.279,71.371,57.437,133.464,57.437  c87.98,0,143.643-72.422,143.775-72.595h0.003l-0.002-0.002L326.242,173.581z"/>
<path style="fill:#4A5BE5;" d="M182.464,246.18c87.98,0,143.643-72.422,143.775-72.595h0.003l-0.002-0.002H82.979L49,188.743  C72.058,210.023,120.371,246.18,182.464,246.18z"/>
<circle style="fill:#3A4DE3;" cx="118.83" cy="145.56" r="14.576"/>
<g>
	<path style="fill:#1C2EDE;" d="M194.072,173.583h-24.14l-13.439,34.985c0,0,11.428,6.526,25.509,6.526   c14.082,0,25.509-6.526,25.509-6.526L194.072,173.583z"/>
	<path style="fill:#1C2EDE;" d="M352.414,409.342c0.377,1.132,2.799,26.416-32.941,43.775c0,0,3.129-32.454-8.569-40.756   L352.414,409.342z"/>
</g>
<path style="fill:#3A4DE3;" d="M144.483,376.134c10.895-17.389,13.963-29.812,13.963-29.812s-3.067-12.424-13.963-29.812  c-10.896-17.389-23.397-29.812-23.397-29.812c49.436,0.755,98.871,42.266,98.871,42.266v34.718c0,0-49.436,41.511-98.871,42.266  C121.086,405.946,133.587,393.522,144.483,376.134z"/>
<path style="fill:#1C2EDE;" d="M121.086,405.946c0,0,12.502-12.424,23.397-29.812c10.895-17.389,13.963-29.812,13.963-29.812h61.512  v17.359C219.957,363.68,170.521,405.191,121.086,405.946z"/>
<path style="fill:#3A4DE3;" d="M369.942,284.163c0,0-30.568-42.617-93.828-52.542c0,0,6.983,49.358-2.577,61.301L369.942,284.163z"/>
<path style="fill:#6D76E7;" d="M185.758,346.319h0.003c0.132-0.172,55.796-72.595,143.775-72.595  c62.093,0,110.405,36.157,133.464,57.437l-33.979,15.16L463,361.481c-23.058,21.279-71.371,57.437-133.464,57.437  c-87.98,0-143.643-72.423-143.775-72.595h-0.003l0.002-0.002L185.758,346.319z"/>
<path style="fill:#4A5BE5;" d="M329.536,418.918c-87.98,0-143.643-72.423-143.775-72.595h-0.003l0.002-0.002h243.261L463,361.481  C439.942,382.761,391.629,418.918,329.536,418.918z"/>
<circle style="fill:#3A4DE3;" cx="393.17" cy="318.3" r="14.576"/>
<path style="fill:#1C2EDE;" d="M317.928,346.321h24.14l13.439,34.985c0,0-11.428,6.526-25.509,6.526  c-14.082,0-25.509-6.526-25.509-6.526L317.928,346.321z"/>
<g>
</g>
<g>
</g>
<g>
</g>
<g>
</g>
<g>
</g>
<g>
</g>
<g>
</g>
<g>
</g>
<g>
</g>
<g>
</g>
<g>
</g>
<g>
</g>
<g>
</g>
<g>
</g>
<g>
</g>
</svg>
