<?xml version="1.0" encoding="iso-8859-1"?>
<!-- Generator: Adobe Illustrator 19.0.0, SVG Export Plug-In . SVG Version: 6.00 Build 0)  -->
<svg xmlns="http://www.w3.org/2000/svg" xmlns:xlink="http://www.w3.org/1999/xlink" version="1.1" id="Layer_1" x="0px" y="0px" viewBox="0 0 512 512" style="enable-background:new 0 0 512 512;" xml:space="preserve">
<circle style="fill:#FFE047;" cx="256" cy="256" r="256"/>
<path style="fill:#FFCF00;" d="M510.99,278.667L398.707,166.385c-38.23-41.627-86.944-34.638-104.572-30.297L230.157,72.11  c-6.611-6.611-17.43-6.611-24.042,0l-1.466,1.466c-6.612,6.611-6.612,17.43,0,24.042l0.878,0.878  c-5.815,0.717-12.855,1.845-20.637,3.606L159.443,77.04c-5.726-7.236-13.792-12.866-24.979-14.94  c-15.124-2.804-32.214,5.247-45.718,21.538c-17.582,21.212-30.353,58.82-18.689,104.865  c-17.084,29.563-24.183,61.538-31.602,107.535L254.398,511.98c0.535,0.003,1.066,0.02,1.602,0.02  C389.744,512,499.514,409.432,510.99,278.667z"/>
<path style="fill:#00D9E0;" d="M287.386,138.046c0,0,137.72-50.623,159.294,161.24c19.689,193.351-106.997,163.841-87.501,33.693  c16.21-108.213,16.723-159.981-35.72-159.981L287.386,138.046z"/>
<path style="fill:#00B7BE;" d="M364.999,165.662c-23.203-15.619-46.872-14.117-63.208-13.659l21.669,20.996  c52.443,0,51.93,51.768,35.72,159.981c-8.587,57.32,11.183,95.113,34.314,102.949C430.369,274.976,401.639,190.326,364.999,165.662z  "/>
<path style="fill:#7985EC;" d="M76.222,207.764c-21.234-54.761-7.453-100.025,12.525-124.126  c13.504-16.291,30.595-24.343,45.718-21.538c32.605,6.046,38.763,42.273,37.465,60.583l-19.269-1.341  c0.006-0.098,0.613-9.973-2.306-20.09c-3.397-11.775-9.747-18.368-19.412-20.161c-7.897-1.464-18.623,4.374-27.325,14.874  C87.14,115.843,76.02,153.818,94.23,200.782L76.222,207.764z"/>
<path style="fill:#4B5BE5;" d="M197.251,328.793c54.761,21.234,100.025,7.453,124.126-12.525  c16.291-13.504,24.343-30.595,21.539-45.718c-6.046-32.605-42.273-38.764-60.583-37.465l1.341,19.269  c0.098-0.006,9.973-0.613,20.09,2.306c11.774,3.397,18.368,9.747,20.161,19.412c1.464,7.897-4.374,18.623-14.874,27.326  c-19.879,16.478-57.854,27.597-104.817,9.387L197.251,328.793z"/>
<path style="fill:#3A4DE3;" d="M307.789,182.752l-85.527-85.527c0,0-70.522,0-116.286,45.764s-56.267,83.276-67.521,153.047  l70.522,70.522c69.772-11.254,107.283-21.757,153.048-67.521C307.789,253.274,307.789,182.752,307.789,182.752z"/>
<path style="fill:#1C2EDE;" d="M262.026,299.044c-45.76,45.76-83.276,56.259-153.044,67.514L73.72,331.296l191.308-191.308  l42.765,42.765C307.793,182.753,307.793,253.277,262.026,299.044z"/>
<path style="fill:#7985EC;" d="M307.397,200.366L204.65,97.618c-6.612-6.612-6.612-17.43,0-24.042l1.466-1.466  c6.611-6.611,17.43-6.611,24.042,0l102.748,102.748c6.612,6.611,6.612,17.43,0,24.042l-1.466,1.466  C324.827,206.977,314.009,206.977,307.397,200.366z"/>
<path style="fill:#4B5BE5;" d="M332.685,174.637l-51.154-51.153l-25.508,25.508l51.154,51.154c6.733,6.733,17.75,6.733,24.482,0  l1.025-1.026C339.418,192.387,339.417,181.37,332.685,174.637z"/>
<g>
	<path style="fill:#FFFFFF;" d="M220.546,248.151c-5.47-5.47-5.638-11.155-5.762-15.306c-0.104-3.509-0.167-5.627-2.659-8.119   c-2.491-2.491-4.609-2.554-8.118-2.658c-4.151-0.123-9.837-0.292-15.306-5.761s-5.638-11.155-5.761-15.305   c-0.104-3.509-0.167-5.626-2.658-8.117s-4.609-2.554-8.117-2.658c-4.151-0.123-9.836-0.291-15.305-5.76s-5.638-11.155-5.76-15.305   c-0.104-3.509-0.167-5.626-2.658-8.117l7.502-7.502c5.469,5.469,5.638,11.155,5.76,15.305c0.104,3.509,0.167,5.626,2.658,8.117   s4.609,2.554,8.117,2.658c4.151,0.123,9.836,0.291,15.305,5.761c5.469,5.469,5.638,11.155,5.76,15.305   c0.104,3.509,0.167,5.626,2.658,8.117s4.609,2.554,8.118,2.658c4.151,0.123,9.837,0.292,15.306,5.761   c5.47,5.47,5.639,11.155,5.762,15.307c0.104,3.509,0.167,5.627,2.659,8.119c2.492,2.492,4.61,2.555,8.119,2.659   c4.151,0.124,9.837,0.293,15.307,5.762l-7.502,7.502c-2.492-2.492-4.61-2.555-8.119-2.659   C231.702,253.79,226.016,253.621,220.546,248.151z"/>
	<path style="fill:#FFFFFF;" d="M196.587,272.111c-5.47-5.47-5.639-11.155-5.762-15.307c-0.104-3.509-0.167-5.627-2.659-8.119   c-2.491-2.491-4.609-2.554-8.118-2.658c-4.151-0.123-9.837-0.292-15.306-5.761s-5.638-11.155-5.76-15.305   c-0.104-3.509-0.167-5.626-2.658-8.117s-4.609-2.554-8.117-2.658c-4.151-0.123-9.836-0.291-15.305-5.76   c-5.469-5.469-5.638-11.155-5.76-15.305c-0.104-3.509-0.167-5.626-2.658-8.117l7.502-7.502c5.469,5.469,5.638,11.155,5.76,15.305   c0.104,3.509,0.167,5.626,2.658,8.117s4.609,2.554,8.117,2.658c4.151,0.123,9.836,0.291,15.305,5.76   c5.469,5.469,5.638,11.155,5.76,15.305c0.104,3.509,0.167,5.626,2.658,8.117s4.609,2.554,8.118,2.658   c4.151,0.123,9.837,0.292,15.306,5.761c5.47,5.47,5.639,11.155,5.762,15.306c0.104,3.509,0.167,5.627,2.659,8.119   c2.492,2.492,4.61,2.555,8.119,2.659c4.151,0.124,9.837,0.293,15.307,5.762l-7.502,7.502c-2.492-2.492-4.61-2.555-8.119-2.659   C207.742,277.75,202.056,277.581,196.587,272.111z"/>
	<path style="fill:#FFFFFF;" d="M172.626,296.072c-5.47-5.47-5.639-11.155-5.762-15.307c-0.104-3.509-0.167-5.627-2.659-8.119   c-2.491-2.491-4.609-2.554-8.118-2.658c-4.151-0.123-9.837-0.292-15.306-5.761s-5.638-11.155-5.76-15.306   c-0.104-3.509-0.167-5.626-2.658-8.117s-4.609-2.554-8.117-2.658c-4.151-0.123-9.836-0.291-15.305-5.76s-5.638-11.155-5.76-15.305   c-0.104-3.509-0.167-5.626-2.658-8.117l7.502-7.502c5.469,5.469,5.638,11.155,5.76,15.305c0.104,3.509,0.167,5.626,2.658,8.117   s4.609,2.554,8.117,2.658c4.151,0.123,9.836,0.291,15.305,5.76s5.638,11.155,5.76,15.305c0.104,3.509,0.167,5.626,2.658,8.117   s4.609,2.554,8.118,2.658c4.151,0.123,9.837,0.292,15.306,5.761c5.47,5.47,5.638,11.155,5.762,15.306   c0.104,3.509,0.167,5.627,2.659,8.119c2.492,2.492,4.61,2.555,8.119,2.659c4.151,0.124,9.837,0.293,15.307,5.762l-7.502,7.502   c-2.492-2.492-4.61-2.555-8.119-2.659C183.782,301.71,178.096,301.541,172.626,296.072z"/>
</g>
<g>
	<path style="fill:#D9D9DB;" d="M251.469,249.072l-7.496,7.496c-2.492-2.492-4.609-2.549-8.122-2.65   c-4.148-0.13-9.829-0.295-15.301-5.768c-5.473-5.473-5.638-11.154-5.768-15.301c-0.101-3.514-0.158-5.631-2.65-8.122   c-2.491-2.491-4.616-2.556-8.13-2.657c-4.148-0.13-9.829-0.295-15.294-5.76l7.503-7.503c2.484,2.484,4.601,2.556,8.115,2.657   c4.14,0.122,9.829,0.295,15.301,5.768c5.465,5.465,5.638,11.154,5.76,15.294c0.101,3.514,0.173,5.631,2.664,8.122   s4.601,2.556,8.115,2.657C240.316,243.433,246.004,243.606,251.469,249.072z"/>
	<path style="fill:#D9D9DB;" d="M227.513,273.028l-7.503,7.503c-2.491-2.491-4.608-2.549-8.115-2.657   c-4.155-0.122-9.836-0.288-15.309-5.76c-5.473-5.473-5.638-11.154-5.761-15.309c-0.108-3.507-0.166-5.624-2.657-8.115   c-2.491-2.491-4.616-2.556-8.122-2.664c-4.155-0.122-9.836-0.288-15.302-5.753l7.503-7.503c2.484,2.484,4.608,2.549,8.115,2.657   c4.148,0.115,9.836,0.288,15.309,5.761c5.465,5.465,5.638,11.154,5.753,15.301c0.108,3.507,0.173,5.631,2.664,8.122   s4.608,2.549,8.115,2.657C216.359,267.39,222.048,267.563,227.513,273.028z"/>
	<path style="fill:#D9D9DB;" d="M203.556,296.985l-7.503,7.503c-2.491-2.491-4.608-2.549-8.122-2.65   c-4.148-0.13-9.829-0.295-15.301-5.768c-5.473-5.473-5.638-11.154-5.768-15.301c-0.101-3.514-0.158-5.631-2.65-8.123   c-2.491-2.491-4.616-2.556-8.122-2.664c-4.155-0.122-9.836-0.288-15.301-5.753l7.503-7.503c2.484,2.484,4.601,2.556,8.115,2.657   c4.14,0.122,9.836,0.288,15.309,5.761c5.465,5.465,5.631,11.161,5.753,15.301c0.101,3.514,0.173,5.631,2.664,8.122   s4.601,2.556,8.115,2.657C192.395,291.354,198.091,291.52,203.556,296.985z"/>
</g>
<g>
</g>
<g>
</g>
<g>
</g>
<g>
</g>
<g>
</g>
<g>
</g>
<g>
</g>
<g>
</g>
<g>
</g>
<g>
</g>
<g>
</g>
<g>
</g>
<g>
</g>
<g>
</g>
<g>
</g>
</svg>
