<?xml version="1.0" encoding="iso-8859-1"?>
<!-- Generator: Adobe Illustrator 19.0.0, SVG Export Plug-In . SVG Version: 6.00 Build 0)  -->
<svg xmlns="http://www.w3.org/2000/svg" xmlns:xlink="http://www.w3.org/1999/xlink" version="1.1" id="Layer_1" x="0px" y="0px" viewBox="0 0 512 512" style="enable-background:new 0 0 512 512;" xml:space="preserve">
<circle style="fill:#3A4DE3;" cx="256" cy="256" r="256"/>
<path style="fill:#1C2EDE;" d="M512,256c0-39.538-8.969-76.979-24.974-110.408l-81.311-81.587c-0.245-0.391-0.634-0.713-1.182-0.891  c-16.485-5.337-42.226-8.015-69.053,11.15c-29.427,21.022-41.676,57.497-46.641,80.378c-0.772-0.15-1.544-0.3-2.323-0.438  c-0.033-0.006-0.067-0.011-0.101-0.017c-0.961-0.17-1.926-0.329-2.895-0.482c-0.249-0.039-0.498-0.077-0.748-0.115  c-0.809-0.123-1.62-0.241-2.434-0.352c-0.229-0.032-0.458-0.064-0.687-0.095c-1.028-0.136-2.059-0.265-3.094-0.383  c-0.06-0.007-0.12-0.013-0.18-0.019c-0.957-0.108-1.917-0.206-2.879-0.298c-0.285-0.027-0.571-0.053-0.857-0.079  c-0.782-0.071-1.565-0.136-2.35-0.196c-0.276-0.021-0.551-0.044-0.827-0.064c-1.033-0.075-2.068-0.143-3.106-0.2  c-0.048-0.003-0.097-0.004-0.145-0.007c-0.982-0.053-1.967-0.097-2.952-0.134c-0.309-0.012-0.619-0.021-0.928-0.032  c-0.763-0.025-1.528-0.046-2.293-0.062c-0.308-0.007-0.616-0.014-0.924-0.019c-1.038-0.017-2.077-0.028-3.118-0.028  c-0.158,0-0.315,0.005-0.473,0.005L190.8,86.965c-4.244-4.621-8.98-8.915-14.282-12.702c-26.827-19.165-52.568-16.487-69.053-11.15  c-1.855,0.601-1.894,2.87-0.653,3.824l69.221,69.225c4.262,12.799,6.3,24.223,7.148,33.628  c-7.392,4.695-13.917,10.356-19.276,17.076c-16.192,10.532-61.4,38.84-85.988,43.209c-13.283,2.36-14.357,8.879-7.618,15.027  L192.756,367.47c3.011,7.777,5.464,15.358,7,22.724c0.543,2.603,1.16,5.056,1.842,7.371c-3.795,35.891,14.058,61.096,30.316,76.242  l37.822,37.822C404.734,504.492,512,392.776,512,256z"/>
<path style="fill:#FFFFFF;" d="M186.168,195.376c-1.556,0.779-3.352-0.481-3.139-2.208c1.416-11.524,2.928-46.096-20.979-88.2  c-18.234-32.114-38.925-38.226-53.82-37.606c-2.523,0.105-3.165-3.469-0.763-4.247c16.485-5.337,42.226-8.015,69.053,11.15  c41.245,29.465,48.748,89.295,49.741,99.488c0.087,0.896-0.389,1.752-1.195,2.156L186.168,195.376z"/>
<path style="fill:#D9D9DB;" d="M325.832,195.376c1.556,0.779,3.352-0.481,3.139-2.208c-1.416-11.524-2.928-46.096,20.979-88.2  c18.234-32.114,38.925-38.226,53.82-37.606c2.523,0.105,3.165-3.469,0.763-4.247c-16.485-5.337-42.226-8.015-69.053,11.15  c-41.246,29.465-48.748,89.295-49.741,99.488c-0.087,0.896,0.389,1.752,1.195,2.156L325.832,195.376z"/>
<path style="fill:#B38A65;" d="M309.816,392.98H256h-53.816c-10.151,65.978,52.475,97.52,53.816,98.187  C257.34,490.5,319.967,458.958,309.816,392.98z"/>
<path style="fill:#8A6746;" d="M309.816,392.98H256v98.186C257.341,490.5,319.967,458.958,309.816,392.98z"/>
<path style="fill:#DFCDBD;" d="M434.081,230.077c-24.588-4.369-69.796-32.677-85.988-43.209l-0.001-0.001  c-1.848-2.318-3.834-4.511-5.947-6.582c-0.001-0.001-0.002-0.002-0.003-0.003c-2.108-2.066-4.342-4.012-6.69-5.839  c-0.009-0.007-0.019-0.015-0.029-0.022c-2.336-1.816-4.785-3.515-7.335-5.099c-0.03-0.019-0.059-0.037-0.089-0.056  c-2.53-1.568-5.16-3.025-7.878-4.372c-0.061-0.03-0.121-0.06-0.182-0.09c-2.692-1.327-5.47-2.548-8.323-3.665  c-0.101-0.04-0.202-0.079-0.303-0.118c-0.921-0.358-1.849-0.706-2.786-1.043c-0.009-0.003-0.018-0.007-0.027-0.01  c-1.923-0.69-3.878-1.333-5.86-1.933c-0.149-0.045-0.299-0.09-0.448-0.135c-0.888-0.265-1.781-0.523-2.68-0.771  c-0.087-0.024-0.174-0.049-0.261-0.073c-1.018-0.278-2.041-0.547-3.072-0.803c-0.002-0.001-0.005-0.001-0.007-0.002  c-0.966-0.24-1.938-0.468-2.915-0.689c-0.203-0.046-0.406-0.091-0.61-0.136c-0.847-0.187-1.698-0.368-2.552-0.541  c-0.162-0.033-0.323-0.067-0.486-0.1c-1.026-0.204-2.056-0.4-3.092-0.584c-0.033-0.006-0.067-0.011-0.101-0.017  c-0.961-0.17-1.926-0.329-2.895-0.482c-0.249-0.039-0.498-0.077-0.748-0.115c-0.809-0.123-1.62-0.241-2.434-0.352  c-0.229-0.032-0.458-0.064-0.687-0.095c-1.028-0.136-2.059-0.265-3.094-0.383c-0.06-0.007-0.12-0.013-0.18-0.019  c-0.957-0.108-1.917-0.206-2.879-0.298c-0.285-0.027-0.571-0.053-0.857-0.079c-0.782-0.071-1.565-0.136-2.35-0.196  c-0.276-0.021-0.551-0.044-0.827-0.064c-1.033-0.075-2.068-0.143-3.106-0.2c-0.048-0.003-0.097-0.004-0.145-0.007  c-0.982-0.053-1.967-0.097-2.952-0.134c-0.309-0.012-0.619-0.021-0.928-0.032c-0.763-0.025-1.528-0.046-2.293-0.062  c-0.308-0.007-0.616-0.014-0.924-0.019c-1.038-0.017-2.077-0.028-3.118-0.028c-36.95,0-72.369,10.512-92.093,35.244  c-16.192,10.532-61.4,38.84-85.988,43.209c-35.433,6.296,15.992,42.189,70.941,21.679c6.474,50.922,42.443,97.902,50.897,138.44  c8.869,42.524,37.25,45.498,56.243,45.498s47.374-2.974,56.243-45.498c0.247-1.182,0.521-2.37,0.813-3.562  c0.031-0.129,0.061-0.258,0.093-0.388c0.281-1.133,0.586-2.272,0.905-3.415c0.052-0.185,0.103-0.37,0.155-0.555  c0.318-1.12,0.655-2.245,1.007-3.374c0.063-0.201,0.126-0.401,0.19-0.602c0.359-1.133,0.732-2.27,1.122-3.412  c0.061-0.178,0.124-0.357,0.185-0.535c0.406-1.177,0.825-2.357,1.262-3.544c0.037-0.101,0.076-0.203,0.114-0.304  c0.436-1.179,0.886-2.362,1.35-3.55c0.042-0.107,0.081-0.212,0.123-0.319c0.465-1.186,0.945-2.378,1.434-3.573  c0.084-0.205,0.167-0.41,0.251-0.616c0.472-1.145,0.955-2.294,1.446-3.447c0.108-0.254,0.217-0.509,0.326-0.763  c0.483-1.125,0.974-2.253,1.473-3.386c0.126-0.285,0.252-0.57,0.378-0.855c0.496-1.118,0.997-2.24,1.507-3.365  c0.133-0.294,0.268-0.589,0.402-0.883c0.453-0.996,0.909-1.993,1.371-2.995c0.207-0.45,0.416-0.901,0.625-1.352  c0.389-0.84,0.781-1.683,1.176-2.527c0.417-0.892,0.836-1.787,1.258-2.684c0.184-0.392,0.368-0.784,0.553-1.176  c7.522-15.97,15.648-32.619,21.88-49.836c0.003-0.006,0.005-0.012,0.007-0.018c0.545-1.507,1.076-3.018,1.59-4.534  c0.01-0.031,0.021-0.063,0.032-0.094c2.069-6.103,3.874-12.274,5.306-18.511c0.006-0.026,0.013-0.053,0.019-0.079  c0.347-1.514,0.67-3.032,0.972-4.553c0.016-0.083,0.033-0.165,0.049-0.248c0.295-1.505,0.568-3.014,0.816-4.526  c0.012-0.075,0.024-0.149,0.036-0.224c0.25-1.54,0.476-3.084,0.673-4.632c0-0.001,0-0.002,0-0.003  C418.089,272.266,469.514,236.373,434.081,230.077z"/>
<path style="fill:#C8AD91;" d="M434.081,230.077c-24.588-4.369-69.796-32.677-85.988-43.209  c-19.724-24.733-55.142-35.244-92.093-35.244v284.071c18.993,0,47.374-2.974,56.243-45.498  c8.455-40.538,44.423-87.518,50.897-138.44C418.089,272.266,469.514,236.373,434.081,230.077z"/>
<path style="fill:#8A6746;" d="M287.263,380.721c-1.51-4.119-7.606-9.482-31.262-9.482s-29.754,5.363-31.264,9.482  c12.656,0.289,22.833,10.618,22.833,23.344c0,0.617-0.045,1.223-0.092,1.828c2.778,1.076,5.65,1.724,8.522,1.724  c2.873,0,5.744-0.647,8.522-1.724c-0.047-0.605-0.092-1.211-0.092-1.828C264.43,391.34,274.607,381.01,287.263,380.721z"/>
<path style="fill:#644B32;" d="M287.263,380.721c-1.51-4.119-7.606-9.482-31.262-9.482l0,0v36.378c2.873,0,5.744-0.647,8.522-1.724  c-0.047-0.605-0.092-1.211-0.092-1.828C264.43,391.34,274.607,381.01,287.263,380.721z"/>
<circle style="fill:#57555C;" cx="205.22" cy="270.33" r="17.09"/>
<circle style="fill:#3C3B41;" cx="306.77" cy="270.33" r="17.09"/>
<g>
</g>
<g>
</g>
<g>
</g>
<g>
</g>
<g>
</g>
<g>
</g>
<g>
</g>
<g>
</g>
<g>
</g>
<g>
</g>
<g>
</g>
<g>
</g>
<g>
</g>
<g>
</g>
<g>
</g>
</svg>
