<?xml version="1.0" encoding="iso-8859-1"?>
<!-- Generator: Adobe Illustrator 19.0.0, SVG Export Plug-In . SVG Version: 6.00 Build 0)  -->
<svg xmlns="http://www.w3.org/2000/svg" xmlns:xlink="http://www.w3.org/1999/xlink" version="1.1" id="Layer_1" x="0px" y="0px" viewBox="0 0 512 512" style="enable-background:new 0 0 512 512;" xml:space="preserve">
<circle style="fill:#DFCDBD;" cx="256" cy="256" r="256"/>
<path style="fill:#C8AD92;" d="M76.307,396.87l35.979-35.979l24.548,1.023l23.083-23.083L185.37,87.342l-9.792-8.88l-18.237-23.881  l4.874-3.736c1.07-0.82,10.86-8.099,25.035-11.148c13.95-3,34.642-2.515,53.994,16.837l100.461,100.508l23.679-23.678  l-20.506-20.506l75.914-21.651l74.998,74.998C506.26,194.148,512,224.402,512,256c0,141.385-114.615,256-256,256  c-26.481,0-52.023-4.022-76.048-11.486l-64.822-64.822l-0.076-1.814L76.307,396.87z"/>
<rect x="337.662" y="121.803" transform="matrix(-0.7071 -0.7071 0.7071 -0.7071 475.7675 527.0146)" style="fill:#4B5BE5;" width="18.741" height="86.339"/>
<rect x="307.176" y="163.589" transform="matrix(-0.7071 0.7071 -0.7071 -0.7071 717.0667 39.5343)" style="fill:#1C2EDE;" width="86.339" height="9.375"/>
<path style="fill:#FFFFFF;" d="M158.425,353.575l29.837-294.809l3.393-2.31c11.382-7.752,22.369-10.125,32.662-7.049  c21.78,6.508,33.459,34.743,44.754,62.048c5.527,13.36,10.747,25.979,16.126,32.927c19.089,24.651,43.76,32.483,44.007,32.559  l4.482,1.384l1.373,4.472c0.076,0.247,7.907,24.918,32.559,44.006c6.948,5.38,19.567,10.6,32.927,16.126  c27.305,11.295,55.539,22.975,62.047,44.754c3.075,10.289,0.703,21.278-7.049,32.662l-2.31,3.392L158.425,353.575z M204.939,68.923  l-26.816,264.954l264.953-26.816c3.028-5.432,3.89-10.147,2.639-14.334c-4.108-13.749-30.609-24.711-51.902-33.52  c-14.483-5.991-28.163-11.65-36.979-18.476c-22.963-17.781-33.439-39.395-37.071-48.495c-9.1-3.632-30.714-14.108-48.495-37.07  c-6.825-8.816-12.485-22.495-18.475-36.978c-8.808-21.294-19.771-47.796-33.52-51.904C215.085,65.032,210.371,65.896,204.939,68.923  z"/>
<path style="fill:#D9D9DB;" d="M455.544,320.346c7.752-11.38,10.12-22.371,7.047-32.657c-6.507-21.781-34.745-33.463-62.046-44.757  c-13.359-5.528-25.977-10.747-32.931-16.131c-24.646-19.089-32.484-43.756-32.556-44.001l-1.368-4.477h-0.014l-13.913,13.913  c3.628,9.098,14.115,30.714,37.077,48.493c8.81,6.824,22.494,12.488,36.976,18.477c21.292,8.81,47.787,19.773,51.904,33.521  c1.245,4.182,0.381,8.904-2.642,14.331l-264.956,26.82l-19.694,19.694l294.806-29.836L455.544,320.346z"/>
<path style="fill:#8A6746;" d="M370.982,219.161c-17.259-17.26-21.401-37.24-21.432-37.395l-0.347-1.881l-15.753-15.753  l-1.338-1.321l-1.83-0.352c-0.2-0.039-20.178-4.176-37.443-21.441c-9.855-9.855-15.097-21.955-20.647-34.764  c-6.726-15.526-14.35-33.123-30.947-49.719c-19.352-19.352-40.044-19.837-53.994-16.837c-14.176,3.049-23.966,10.329-25.035,11.149  l-4.874,3.736l18.237,23.881l4.851-3.603c0.059-0.042,5.887-4.249,13.632-5.793c9.588-1.913,18.05,0.959,25.872,8.78  c12.538,12.538,18.399,26.066,24.609,40.401c6.426,14.833,13.07,30.17,26.984,44.083c19.216,19.216,40.304,26.478,49.296,28.848  c2.37,8.992,9.632,30.08,28.848,49.296c13.912,13.912,29.248,20.557,44.092,26.988c14.324,6.205,27.854,12.065,40.392,24.604  c7.822,7.822,10.694,16.284,8.781,25.872c-1.544,7.741-5.748,13.569-5.762,13.589l-3.669,4.884l23.915,18.246l3.736-4.874  c0.82-1.07,8.099-10.86,11.149-25.035c3-13.95,2.515-34.642-16.837-53.994c-16.595-16.595-34.194-24.22-49.726-30.951  C392.935,234.258,380.839,229.018,370.982,219.161z"/>
<path style="fill:#644B32;" d="M457.423,354.659l-23.919-18.247l3.671-4.88c0.007-0.022,4.211-5.852,5.758-13.59  c1.915-9.588-0.965-18.052-8.782-25.869c-12.539-12.539-26.064-18.405-40.388-24.61c-14.849-6.428-30.181-13.079-44.094-26.992  c-19.211-19.211-26.481-40.301-28.849-49.292l19.838-19.837l8.544,8.544l0.353,1.879c0.029,0.158,4.168,20.133,21.428,37.393  c9.861,9.861,21.954,15.101,34.759,20.651c15.533,6.723,33.125,14.353,49.723,30.951c19.348,19.348,19.837,40.035,16.836,53.992  c-3.045,14.173-10.329,23.962-11.142,25.034L457.423,354.659z"/>
<rect x="219.739" y="159.285" transform="matrix(-0.7071 -0.7071 0.7071 -0.7071 191.0807 644.9264)" style="fill:#4B5BE5;" width="18.741" height="247.208"/>
<rect x="108.821" y="281.522" transform="matrix(-0.7071 0.7071 -0.7071 -0.7071 599.1551 324.241)" style="fill:#1C2EDE;" width="247.208" height="9.375"/>
<polygon style="fill:#FFAA20;" points="149.556,362.444 112.286,360.891 76.307,396.87 114.742,397.258 113.577,398.422   115.13,435.692 149.944,400.878 "/>
<polygon style="fill:#FF8900;" points="149.949,400.877 115.132,435.693 113.577,398.422 149.553,362.447 "/>
<circle style="fill:#FFFFFF;" cx="327.84" cy="184.16" r="29.796"/>
<path style="fill:#D9D9DB;" d="M348.907,205.229c-11.639,11.639-30.498,11.639-42.137,0l42.137-42.137  C360.546,174.732,360.546,193.59,348.907,205.229z"/>
<polygon style="fill:#FFAA20;" points="420.793,91.206 344.879,112.857 399.142,167.12 "/>
<polygon style="fill:#FF8900;" points="399.141,167.116 372.012,139.987 420.793,91.207 "/>
<g>
</g>
<g>
</g>
<g>
</g>
<g>
</g>
<g>
</g>
<g>
</g>
<g>
</g>
<g>
</g>
<g>
</g>
<g>
</g>
<g>
</g>
<g>
</g>
<g>
</g>
<g>
</g>
<g>
</g>
</svg>
