<?xml version="1.0" encoding="iso-8859-1"?>
<!-- Generator: Adobe Illustrator 19.0.0, SVG Export Plug-In . SVG Version: 6.00 Build 0)  -->
<svg xmlns="http://www.w3.org/2000/svg" xmlns:xlink="http://www.w3.org/1999/xlink" version="1.1" id="Layer_1" x="0px" y="0px" viewBox="0 0 512 512" style="enable-background:new 0 0 512 512;" xml:space="preserve">
<circle style="fill:#FFB84D;" cx="256" cy="256" r="256"/>
<path style="fill:#FF9A00;" d="M512,256c0-29.383-4.965-57.602-14.077-83.884L377.138,51.331  c-7.399-8.065-16.402-15.561-27.236-22.088c-1.823-1.098-3.868,1.108-2.673,2.869c4.898,7.215,11.646,18.925,13.143,30.473  c2.41,18.592,2.727,38.063-3.534,47.51c-0.691,1.043-1.427,1.826-2.189,2.404l-14.525-17.668  c-2.46-3.319-12.572,16.994-8.713,39.959c3.543,21.083,12.123,31.95,19.281,37.498l11.84,12.184  c0.936,13.078-0.44,24.129-3.335,33.452L171.003,29.703c-0.579-0.702-1.597-1.036-2.553-0.46  c-45.742,27.557-59.22,72.249-54.327,105.17l-0.002-0.003c0,0,10.645,80.508,56.384,122.422l36.002,36.084  c-0.008,0.631-0.029,1.245-0.03,1.888c-6.911,1.029-13.155,0.93-18.731-0.252l-28.522-30.4l-10.734,1.746  c0.126,0.78,3.141,18.511,17.813,30.32l28.302,28.374c-8.219,1.044-15.774-0.496-22.593-4.623l-15.07-15.858l-9.741,4.836  c0.249,0.504,4.428,8.776,13.12,16.012l30.959,31.268c-6.523,1.208-12.945,0.543-19.222-2.016  c-10.135-4.13-16.294-11.818-16.355-11.894l-8.564,6.702c0.222,0.284,2.668,3.37,7.023,6.954l28.061,28.171  c-4.573-2.239-7.398-4.78-7.439-4.818l-7.378,7.99l75.568,74.136c-2.491,0.946-5.327,1.498-8.4,1.619l-70.083-70.039  c-6.178-7.307-13.501-12.611-21.912-15.853c-11.554-4.453-22.845-3.983-31.191-2.435l-0.001-0.002  c-40.208-11.351-47.483,34.516-47.483,34.516l73.826,73.826C173.108,501.547,213.331,512,256,512C397.385,512,512,397.385,512,256z"/>
<path style="fill:#4B5BE5;" d="M197.252,306.415c-11.205,0-20.922-2.91-28.998-8.703c-16.368-11.741-19.634-31.001-19.765-31.815  l10.734-1.746c0.016,0.097,1.709,9.8,8.6,18.304c8.936,11.027,22.407,15.114,40.04,12.147l1.805,10.724  C205.349,306.052,201.207,306.415,197.252,306.415z"/>
<path style="fill:#3A4DE3;" d="M321.099,306.415c-3.955,0-8.096-0.363-12.416-1.089l1.805-10.724  c17.626,2.967,31.103-1.12,40.039-12.147c6.891-8.503,8.584-18.206,8.6-18.304l10.733,1.746c-0.13,0.814-3.396,20.073-19.764,31.815  C342.022,303.504,332.304,306.415,321.099,306.415z"/>
<path style="fill:#4B5BE5;" d="M189.746,335.814c-4.916,0-9.679-0.767-14.272-2.303c-19.104-6.388-27.908-23.826-28.273-24.565  l9.749-4.82l-4.874,2.41l4.866-2.426c0.044,0.088,4.525,8.86,13.618,14.951c11.793,7.9,25.87,7.829,41.841-0.21l4.889,9.714  C207.696,333.393,198.48,335.814,189.746,335.814z"/>
<path style="fill:#3A4DE3;" d="M328.605,335.814c-8.734,0-17.949-2.42-27.544-7.249l4.889-9.714  c15.971,8.039,30.05,8.109,41.842,0.21c9.094-6.09,13.574-14.862,13.619-14.951l9.741,4.836c-0.366,0.739-9.17,18.177-28.273,24.565  C338.285,335.047,333.522,335.814,328.605,335.814z"/>
<path style="fill:#4B5BE5;" d="M185.084,367.69c-1.767,0-3.533-0.106-5.298-0.318c-20-2.402-32.141-17.704-32.648-18.354  l8.564-6.702c0.061,0.077,6.22,7.764,16.355,11.894c13.144,5.359,26.917,2.447,40.938-8.65l6.749,8.528  C208.32,363.129,196.685,367.69,185.084,367.69z"/>
<path style="fill:#3A4DE3;" d="M333.268,367.69c-11.602,0-23.236-4.56-34.66-13.601l6.749-8.528  c14.021,11.096,27.795,14.006,40.938,8.65c10.135-4.13,16.294-11.818,16.355-11.894l8.564,6.702  c-0.507,0.65-12.648,15.953-32.648,18.354C336.802,367.585,335.034,367.69,333.268,367.69z"/>
<path style="fill:#4B5BE5;" d="M195.935,398.38c-16.402,0-28.028-10.599-28.53-11.065l7.393-7.975l-3.697,3.987l3.681-4.002  c0.06,0.055,6.064,5.461,14.788,7.448c11.231,2.56,21.926-1.612,31.783-12.397l8.028,7.337  c-9.653,10.562-20.377,16.158-31.877,16.634C196.977,398.369,196.454,398.38,195.935,398.38z"/>
<path style="fill:#3A4DE3;" d="M322.416,398.38c-0.519,0-1.041-0.011-1.569-0.032c-11.5-0.476-22.225-6.072-31.877-16.634  l8.027-7.337c9.857,10.785,20.55,14.957,31.784,12.397c8.725-1.987,14.729-7.394,14.788-7.448l7.378,7.99  C350.445,387.78,338.816,398.38,322.416,398.38z"/>
<path style="fill:#4B5BE5;" d="M271.825,460.268c-4.72,9.591-12.721,16.321-21.798,19.766  c-27.989,10.623-69.584-6.313-91.539-58.624c-5.549-13.221-13.249-21.841-22.887-25.618c-14.357-5.628-29.155,0.951-29.303,1.018  l-8.375-18.025c0.9-0.421,22.303-10.219,44.656-1.605c14.961,5.766,26.48,18.059,34.236,36.538  c18.19,43.34,49.638,54.004,66.159,47.734c12.8-4.857,16.788-18.494,10.666-36.478l18.816-6.405  C278.245,435.574,277.04,449.669,271.825,460.268z"/>
<path style="fill:#3A4DE3;" d="M271.825,460.268c5.216-10.599,6.421-24.694,0.632-41.7l-13.28,4.521v52.051  C264.362,471.447,268.779,466.457,271.825,460.268z"/>
<path style="fill:#283EE1;" d="M63.904,409.257c0,0,7.275-45.867,47.483-34.516l5.387,19.239c0,0-6.338,22.611-29.828,11.056  C70.517,396.956,63.904,409.257,63.904,409.257z"/>
<path style="fill:#4B5BE5;" d="M156.463,177.888c0,0,23.907-3.998,30.477-43.098c4.375-26.034-9.206-48.661-9.238-37.31  c-0.032,11.351-9.929,22.063-16.189,12.615s-5.943-28.919-3.534-47.51c1.497-11.548,8.245-23.258,13.143-30.473  c1.195-1.76-0.851-3.967-2.673-2.869c-45.742,27.557-59.22,72.249-54.327,105.17l-0.002-0.003c0,0,17.316,131.135,102.8,145.828  v-13.134C216.92,267.104,146.645,256.513,156.463,177.888z"/>
<path style="fill:#3A4DE3;" d="M361.888,177.888c0,0-23.907-3.998-30.477-43.098c-4.374-26.034,9.206-48.661,9.238-37.31  s9.929,22.063,16.189,12.615s5.943-28.919,3.533-47.51c-1.497-11.548-8.245-23.258-13.143-30.473  c-1.195-1.76,0.851-3.967,2.673-2.869c45.742,27.557,59.22,72.249,54.327,105.17l0.002-0.003c0,0-17.316,131.135-102.8,145.828  v-13.134C301.431,267.104,371.707,256.513,361.888,177.888z"/>
<path style="fill:#283EE1;" d="M242.056,154.594c0,0-16.122,0-25.306,12.551c-9.19,12.56-10.596,33.061,1.327,45l23.98-12.245  C242.056,199.9,223.382,186.124,242.056,154.594z"/>
<path style="fill:#1C2EDE;" d="M276.296,154.594c0,0,16.122,0,25.306,12.551c9.19,12.56,10.596,33.061-1.327,45l-23.98-12.245  C276.296,199.9,294.969,186.124,276.296,154.594z"/>
<path style="fill:#283EE1;" d="M259.177,236.336c-42.32,0-55.474,21.844-52.239,72.42c3.967,62.025,17.338,123.85,52.239,123.85  s48.269-61.826,52.236-123.85C314.648,258.18,301.497,236.336,259.177,236.336z"/>
<path style="fill:#1C2EDE;" d="M259.177,236.336C259.176,236.336,259.176,236.336,259.177,236.336l-0.001,196.271h0.001  c34.901,0,48.269-61.826,52.236-123.85C314.648,258.18,301.497,236.336,259.177,236.336z"/>
<path style="fill:#4B5BE5;" d="M259.176,271.116c24.017,0,51.651-9.344,51.651-31.684c0-17.946-15.502-51.487-51.651-51.487  s-51.652,33.541-51.652,51.487C207.524,261.772,235.159,271.116,259.176,271.116z"/>
<path style="fill:#3A4DE3;" d="M310.827,239.432c0-17.946-15.502-51.487-51.651-51.487v83.171  C283.193,271.116,310.827,261.772,310.827,239.432z"/>
<g>
</g>
<g>
</g>
<g>
</g>
<g>
</g>
<g>
</g>
<g>
</g>
<g>
</g>
<g>
</g>
<g>
</g>
<g>
</g>
<g>
</g>
<g>
</g>
<g>
</g>
<g>
</g>
<g>
</g>
</svg>
