<?xml version="1.0" encoding="iso-8859-1"?>
<!-- Generator: Adobe Illustrator 19.0.0, SVG Export Plug-In . SVG Version: 6.00 Build 0)  -->
<svg xmlns="http://www.w3.org/2000/svg" xmlns:xlink="http://www.w3.org/1999/xlink" version="1.1" id="Layer_1" x="0px" y="0px" viewBox="0 0 512 512" style="enable-background:new 0 0 512 512;" xml:space="preserve">
<circle style="fill:#FFE047;" cx="256" cy="256" r="256"/>
<path style="fill:#FFCF00;" d="M511.939,260.814L401.794,150.669h-7.262L286.623,39.606c-7.238-8.887-18.266-14.564-30.623-14.564  c-21.812,0-39.494,17.682-39.494,39.494c0,15.28,8.683,28.523,21.378,35.091v51.043H110.206L48.865,295.8H33.427v17.228h5.243  c-0.092,1.435-0.16,2.876-0.16,4.334c0,21.482,9.451,40.752,24.419,53.889L197.24,505.213C216.11,509.646,235.779,512,256,512  C395.775,512,509.371,399.976,511.939,260.814z"/>
<path style="fill:#FF633E;" d="M330.098,317.362c0,39.597,32.099,71.696,71.696,71.696c39.596,0,71.696-32.099,71.696-71.696  c0-1.838-0.092-3.654-0.228-5.458H330.326C330.19,313.708,330.098,315.524,330.098,317.362z"/>
<path style="fill:#FF3200;" d="M473.489,317.362c0-1.838-0.092-3.654-0.228-5.458h-71.468v77.154  C441.39,389.058,473.489,356.959,473.489,317.362z"/>
<path style="fill:#3A4DE3;" d="M470.348,312.863l-68.554-162.194H110.206L41.653,312.863H178.76l-61.43-145.341h277.34  l-61.43,145.341H470.348z M356.417,297.413l45.377-110.287l45.377,110.287H356.417z M64.829,297.413l45.377-110.287l45.377,110.287  H64.829z"/>
<path style="fill:#283EE1;stroke:#BD9B7B;stroke-miterlimit:10;" d="M470.348,312.863l-68.554-162.194H256v16.854h138.67  l-61.43,145.341h137.108V312.863z M401.794,187.126l45.377,110.287h-90.754L401.794,187.126z"/>
<rect x="325.01" y="295.8" style="fill:#FFFFFF;" width="153.56" height="17.229"/>
<rect x="401.79" y="295.8" style="fill:#D9D9DB;" width="76.78" height="17.228"/>
<rect x="237.88" y="97.51" style="fill:#283EE1;" width="36.23" height="329.37"/>
<rect x="256" y="97.51" style="fill:#1C2EDE;" width="18.11" height="329.37"/>
<circle style="fill:#FFFFFF;" cx="256" cy="64.53" r="39.494"/>
<rect x="162.43" y="426.14" style="fill:#FF633E;" width="187.14" height="41.488"/>
<rect x="256" y="426.14" style="fill:#FF3200;" width="93.57" height="41.488"/>
<path style="fill:#D9D9DB;" d="M295.494,64.536c0-21.812-17.682-39.494-39.494-39.494v78.988  C277.812,104.029,295.494,86.347,295.494,64.536z"/>
<path style="fill:#FF633E;" d="M38.51,317.362c0,39.597,32.099,71.696,71.696,71.696c39.596,0,71.696-32.099,71.696-71.696  c0-1.838-0.092-3.654-0.228-5.458H38.738C38.602,313.708,38.51,315.524,38.51,317.362z"/>
<path style="fill:#FF3200;" d="M181.902,317.362c0-1.838-0.092-3.654-0.228-5.458h-71.468v77.154  C149.803,389.058,181.902,356.959,181.902,317.362z"/>
<rect x="33.427" y="295.8" style="fill:#FFFFFF;" width="153.56" height="17.229"/>
<rect x="110.21" y="295.8" style="fill:#D9D9DB;" width="76.78" height="17.228"/>
<g>
</g>
<g>
</g>
<g>
</g>
<g>
</g>
<g>
</g>
<g>
</g>
<g>
</g>
<g>
</g>
<g>
</g>
<g>
</g>
<g>
</g>
<g>
</g>
<g>
</g>
<g>
</g>
<g>
</g>
</svg>
