<?xml version="1.0" encoding="iso-8859-1"?>
<!-- Generator: Adobe Illustrator 19.0.0, SVG Export Plug-In . SVG Version: 6.00 Build 0)  -->
<svg xmlns="http://www.w3.org/2000/svg" xmlns:xlink="http://www.w3.org/1999/xlink" version="1.1" id="Layer_1" x="0px" y="0px" viewBox="0 0 512 512" style="enable-background:new 0 0 512 512;" xml:space="preserve">
<circle style="fill:#00D9E0;" cx="256" cy="256" r="256"/>
<path style="fill:#00B7BE;" d="M512,256c0-4.969-0.157-9.9-0.436-14.798L356.587,83.996C324.72,44.994,275.365,40,255.998,40  c-29.627,0-129.451,11.658-129.451,138.926c0,7.095,0.067,13.842,0.185,20.296c-8.215,5.272-13.247,14.892-12.13,25.211  l2.319,21.409c0.112,1.038,0.291,2.053,0.518,3.048c-13.503,6.815-22.768,20.795-22.768,36.954c0,9.608,3.282,18.443,8.774,25.468  c-18.464,6.714-31.652,24.417-31.652,45.202c0,15.792,7.615,29.8,19.373,38.562l18.596,14.338  c1.415,11.399,7.783,21.258,16.884,27.357l76.72,69.801C220.354,510.123,237.957,512,256,512C397.385,512,512,397.385,512,256z"/>
<path style="fill:#FF4F19;" d="M440.207,356.514c0-20.785-13.188-38.487-31.652-45.202c5.492-7.025,8.775-15.86,8.775-25.468  c0-20.295-14.609-37.166-33.881-40.701c1.12-18.592,2.005-40.127,2.005-66.217C385.453,51.658,285.625,40,255.998,40  S126.547,51.658,126.547,178.926c0,26.09,0.884,47.625,2.005,66.217c-19.273,3.536-33.881,20.407-33.881,40.701  c0,9.608,3.282,18.443,8.774,25.468c-18.464,6.714-31.652,24.417-31.652,45.202c0,22.986,16.132,42.192,37.689,46.946  c-0.011,0.38-0.029,0.758-0.029,1.14c0,21.378,17.33,38.708,38.708,38.708c7.213,0,13.961-1.979,19.742-5.414  c4.102,22.036,23.417,38.723,46.641,38.723c17.825,0,33.346-9.832,41.458-24.364c8.112,14.532,23.633,24.364,41.458,24.364  c23.224,0,42.538-16.686,46.641-38.721c5.78,3.434,12.527,5.412,19.739,5.412c21.378,0,38.708-17.33,38.708-38.708  c0-0.382-0.018-0.76-0.029-1.14C424.075,398.706,440.207,379.5,440.207,356.514z"/>
<path style="fill:#FF3200;" d="M440.207,356.514c0-20.785-13.188-38.487-31.652-45.202c5.492-7.025,8.774-15.86,8.774-25.468  c0-20.295-14.609-37.166-33.881-40.701c1.12-18.592,2.005-40.127,2.005-66.217C385.453,51.66,285.629,40,256,40v412.256  c0.001-0.001,0.001-0.002,0.002-0.003c8.112,14.532,23.633,24.364,41.458,24.364c23.224,0,42.538-16.686,46.641-38.721  c5.78,3.434,12.527,5.412,19.739,5.412c21.378,0,38.708-17.33,38.708-38.708c0-0.382-0.018-0.76-0.029-1.14  C424.075,398.706,440.207,379.5,440.207,356.514z"/>
<path style="fill:#FFDBA9;" d="M375.879,195.49c-5.005-73.679-67.84-115.496-119.877-115.496  c-52.036,0-114.871,41.817-119.876,115.496c-13.465,2.522-23.021,15.106-21.523,28.943l2.319,21.409  c1.573,14.524,14.743,25.121,29.268,23.548l2.501-0.271c29.732,77.393,77.713,97.319,107.312,101.846  c29.599-4.527,77.58-24.452,107.312-101.846l2.501,0.271c14.524,1.573,27.695-9.023,29.268-23.548l2.319-21.409  C398.9,210.596,389.344,198.012,375.879,195.49z"/>
<path style="fill:#FFC473;" d="M375.879,195.49c-5.005-73.679-67.84-115.496-119.877-115.496c-0.001,0-0.001,0-0.002,0v290.971  c0.001,0,0.001,0,0.002,0c29.599-4.527,77.58-24.452,107.312-101.846l2.501,0.271c14.524,1.573,27.695-9.023,29.268-23.548  l2.319-21.409C398.9,210.596,389.344,198.012,375.879,195.49z"/>
<path style="fill:#FF4F19;" d="M375.879,157.877c0-19.997-41.429-86.27-97.775-88.934c-21.055-0.995-38.035,1.306-51.424,4.923  c-22.189-3.665-67.243,21.867-77.68,46.824c-16.138,38.591-12.875,74.8-12.875,74.8s46.667-11.189,79.91-55.476  c27.061,26.653,75.753,55.476,159.843,55.476C375.879,195.49,375.879,177.874,375.879,157.877z"/>
<rect x="175.99" y="207.55" style="fill:#FFC473;" width="61.81" height="26.782"/>
<polygon style="fill:#FFA91F;" points="255.998,207.548 255.998,292.675 282.78,292.675 282.78,234.33 341.125,234.33   341.125,207.548 "/>
<path style="fill:#FF3200;" d="M375.879,157.877c0-19.997-41.429-86.27-97.775-88.934c-7.941-0.375-15.296-0.278-22.104,0.178  v99.972c28.296,15.041,67.112,26.396,119.879,26.396C375.879,195.49,375.879,177.874,375.879,157.877z"/>
<path style="fill:#FFFFFF;" d="M256.002,59.339c-8.305,0-107.844-5.447-112,125.831c-0.026,0.832,1.176,0.995,1.356,0.182  c5.654-25.488,29.82-106.016,110.644-106.016l0,0c80.824,0,104.99,80.528,110.644,106.016c0.18,0.813,1.383,0.65,1.356-0.182  C363.846,53.893,264.307,59.339,256.002,59.339z"/>
<path style="fill:#D9D9DB;" d="M256.002,59.339c0,0-0.001,0-0.002,0v19.997c0.001,0,0.001,0,0.002,0l0,0  c80.824,0,104.99,80.528,110.644,106.016c0.18,0.813,1.383,0.65,1.356-0.182C363.846,53.893,264.307,59.339,256.002,59.339z"/>
<g>
</g>
<g>
</g>
<g>
</g>
<g>
</g>
<g>
</g>
<g>
</g>
<g>
</g>
<g>
</g>
<g>
</g>
<g>
</g>
<g>
</g>
<g>
</g>
<g>
</g>
<g>
</g>
<g>
</g>
</svg>
