<?xml version="1.0" encoding="iso-8859-1"?>
<!-- Generator: Adobe Illustrator 19.0.0, SVG Export Plug-In . SVG Version: 6.00 Build 0)  -->
<svg xmlns="http://www.w3.org/2000/svg" xmlns:xlink="http://www.w3.org/1999/xlink" version="1.1" id="Layer_1" x="0px" y="0px" viewBox="0 0 512 512" style="enable-background:new 0 0 512 512;" xml:space="preserve">
<circle style="fill:#DFCDBD;" cx="256" cy="256" r="256"/>
<path style="fill:#C8AD92;" d="M512,256c0-14.16-1.168-28.045-3.379-41.579L386.364,90.353  c-13.781-18.149-35.577-29.873-60.125-29.873c-3.048,0-6.054,0.184-9.008,0.535C302.744,45.548,280.699,35.667,256,35.667  s-46.744,9.881-61.232,25.349c-2.954-0.351-5.959-0.535-9.008-0.535c-37.553,0-68.689,27.423-74.507,63.333  c-9.754,9.004-15.869,21.892-15.869,36.21c0,6.741,1.356,13.163,3.807,19.013c-25.673,10-43.873,34.943-43.873,64.153  c0,24.788,13.106,46.509,32.762,58.631c-6.192,9.845-9.786,21.487-9.786,33.976c0,19.095,8.377,36.222,21.655,47.927l37.829,37.511  c4.88,13.37,13.566,24.904,24.752,33.285l57.447,54.945C231.748,511.123,243.771,512,256,512C397.385,512,512,397.385,512,256z"/>
<path style="fill:#FF4F19;" d="M456.682,243.19c0-36.892-29.02-67.003-65.477-68.76c6.682-11.264,10.531-24.407,10.531-38.453  c0-41.695-33.801-75.496-75.496-75.496c-31.924,0-59.199,19.825-70.24,47.826c-11.04-28.001-38.316-47.826-70.24-47.826  c-41.695,0-75.496,33.801-75.496,75.496c0,14.047,3.849,27.189,10.531,38.453c-36.457,1.757-65.477,31.867-65.477,68.76  c0,24.788,13.106,46.509,32.762,58.631c-6.192,9.845-9.786,21.487-9.786,33.976c0,32.319,23.991,59.02,55.132,63.306  c1.467,38.847,33.404,69.894,72.61,69.894c19.36,0,36.938-7.584,49.964-19.925c13.026,12.341,30.604,19.925,49.964,19.925  c39.206,0,71.143-31.047,72.61-69.894c31.141-4.285,55.132-30.986,55.132-63.306c0-12.489-3.595-24.131-9.786-33.976  C443.575,289.699,456.682,267.978,456.682,243.19z"/>
<path style="fill:#FFB74F;" d="M416.616,160.024c0-27.211-22.054-49.277-49.277-49.277c-21.199,0-39.26,13.395-46.204,32.175  c-22.391-12.979-46.141-20.35-64.772-20.35c-0.119,0-0.241,0.004-0.36,0.004c-0.12,0-0.241-0.004-0.36-0.004  c-18.629,0-42.375,7.37-64.764,20.346c-6.952-18.783-25.016-32.17-46.217-32.17c-27.211,0-49.277,22.066-49.277,49.277  c0,21.776,14.128,40.241,33.717,46.749c-5.613,12.182-8.882,25.326-8.882,39.196c0,48.05,24.603,75.607,62.932,105.788v9.191  c0,41.982,31.49,76.33,69.977,76.33h2.874h2.874c38.487,0,69.977-34.349,69.977-76.33v-9.191  c38.329-30.18,62.932-57.737,62.932-105.788c0-13.87-3.269-27.015-8.882-39.198C402.49,200.262,416.616,181.798,416.616,160.024z"/>
<path style="fill:#FF9A00;" d="M416.616,160.024c0-27.211-22.054-49.277-49.277-49.277c-21.199,0-39.26,13.395-46.204,32.175  c-22.391-12.979-46.141-20.35-64.772-20.35c-0.119,0-0.241,0.004-0.36,0.004c0,0-0.002,0-0.003,0v314.702h0.003h2.874  c38.487,0,69.977-34.349,69.977-76.33v-9.191c38.329-30.18,62.932-57.737,62.932-105.788c0-13.87-3.269-27.015-8.882-39.198  C402.49,200.262,416.616,181.798,416.616,160.024z"/>
<circle style="fill:#3C3B41;" cx="191.42" cy="254.34" r="20.871"/>
<circle style="fill:#2A2A2C;" cx="320.58" cy="254.34" r="20.871"/>
<path style="fill:#994B00;" d="M171.922,155.56c-2.121-13.142-13.514-23.179-27.261-23.179c-15.266,0-27.643,12.376-27.643,27.643  c0,13.857,10.209,25.323,23.509,27.314C149.19,175.335,160.037,164.633,171.922,155.56z"/>
<path style="fill:#703700;" d="M371.477,187.338c13.298-1.994,23.504-13.459,23.504-27.314c0-15.266-12.376-27.643-27.643-27.643  c-13.735,0-25.137,10.034-27.26,23.175C351.965,164.63,362.814,175.333,371.477,187.338z"/>
<path style="fill:#3C3B41;" d="M261.573,348.909l-5.916,1.299l-5.974-1.299c-0.236,1.057-6.102,25.892-32.245,25.892v12.173  c19.502,0,31.583-10.588,38.19-21.242c6.608,10.654,18.689,21.242,38.19,21.242v-12.173  C267.675,374.801,261.81,349.966,261.573,348.909z"/>
<path style="fill:#29292B;" d="M261.573,348.909L256,350.133V366.3c6.682,10.458,18.664,20.673,37.818,20.673V374.8  C267.675,374.801,261.81,349.966,261.573,348.909z"/>
<path style="fill:#E67500;" d="M285.253,326.139c0-4.368-1.823-14.108-29.624-14.108s-29.626,9.74-29.626,14.108  c0,5.152,14.812,27.548,29.625,27.548C270.441,353.687,285.253,331.291,285.253,326.139z"/>
<path style="fill:#C06100;" d="M285.253,326.139c0-4.348-1.816-14.016-29.253-14.104v41.635  C270.687,353.301,285.253,331.248,285.253,326.139z"/>
<ellipse style="fill:#FF4F19;" cx="256" cy="104.51" rx="79.01" ry="68.845"/>
<g>
</g>
<g>
</g>
<g>
</g>
<g>
</g>
<g>
</g>
<g>
</g>
<g>
</g>
<g>
</g>
<g>
</g>
<g>
</g>
<g>
</g>
<g>
</g>
<g>
</g>
<g>
</g>
<g>
</g>
</svg>
