<?xml version="1.0" encoding="iso-8859-1"?>
<!-- Generator: Adobe Illustrator 19.0.0, SVG Export Plug-In . SVG Version: 6.00 Build 0)  -->
<svg xmlns="http://www.w3.org/2000/svg" xmlns:xlink="http://www.w3.org/1999/xlink" version="1.1" id="Layer_1" x="0px" y="0px" viewBox="0 0 512 512" style="enable-background:new 0 0 512 512;" xml:space="preserve">
<circle style="fill:#FFE047;" cx="256" cy="256" r="256"/>
<path style="fill:#FFCF00;" d="M512,256c0-33.013-6.252-64.564-17.632-93.54L445.2,109.805c-7.635-8.983-16.6-15.511-25.823-18.805  l3.23,66.258l-46.627-51.006c-9.651,15.676-11.452,39.692-3.06,63.573c0.844,2.401,1.775,4.734,2.774,7.003  c-0.735-0.051-1.475-0.086-2.223-0.086c-1.22,0-2.422,0.076-3.606,0.21l-39.889-55.816c-5.641-8.766-15.485-14.573-26.684-14.573  c-17.512,0-31.709,14.196-31.709,31.708c0,13.638,8.611,25.262,20.691,29.739v11.698c-4.069-1.899-8.605-2.966-13.392-2.966  l-44.647-57.277c-5.774-7.825-15.06-12.901-25.531-12.901c-17.512,0-31.708,14.196-31.708,31.708c0,4.576,0.97,8.926,2.715,12.855  l-43.692-44.875l-13.465,18.575L92.622,91c-17.336,6.191-33.767,23.8-42.16,47.68c-11.547,32.856-3.797,65.965,17.149,77.257  c-2.707,35.428,4.8,61.707,22.348,78.144c6.147,5.758,12.888,9.663,19.522,12.306c3.358,8.026,7.872,14.956,13.529,20.771  c-13.976,3.002-31.043,6.826-35.704,8.553c-11.031,4.086-26.222,25.718-33.743,39.26l91.362,111.74  C178.523,502.917,216.2,512,256,512C397.385,512,512,397.385,512,256z"/>
<path style="fill:#FF4F19;" d="M424.694,335.712c-5.751-2.131-30.386-7.454-44.8-10.487c2.174-4.651,4.087-9.453,5.693-14.404  c11.117-1.553,24.847-5.868,36.454-16.74c17.548-16.437,25.055-42.716,22.348-78.144c20.945-11.291,28.696-44.4,17.149-77.257  c-8.393-23.881-24.824-41.489-42.16-47.68l3.926,80.536l-47.323-65.284c-9.651,15.676-11.452,39.692-3.06,63.573  c9.863,28.063,30.824,47.45,51.312,49.839c1.794,27.819-3.617,47.838-16.118,59.548c-5.396,5.055-11.654,8.027-17.601,9.754  c0.689-5.25,1.061-10.62,1.061-16.106c0-50.548-31.541-73.315-77.263-82.078v-22.771c12.08-4.477,20.691-16.101,20.691-29.739  c0-17.512-14.197-31.708-31.708-31.708c-17.512,0-31.708,14.196-31.708,31.708c0,13.638,8.611,25.262,20.691,29.739v19.672  c-11.542-1.111-23.702-1.584-36.27-1.584c-0.002,0-0.004,0-0.007,0c-0.002,0-0.004,0-0.007,0c-12.568,0-24.728,0.473-36.27,1.584  v-19.672c12.08-4.477,20.691-16.101,20.691-29.739c0-17.512-14.196-31.708-31.709-31.708c-17.512,0-31.708,14.196-31.708,31.708  c0,13.638,8.611,25.262,20.691,29.739v22.771c-45.723,8.764-77.263,31.53-77.263,82.078c0,5.486,0.371,10.855,1.06,16.106  c-5.947-1.726-12.205-4.699-17.601-9.754c-12.501-11.71-17.912-31.729-16.118-59.548c20.489-2.389,41.45-21.777,51.312-49.839  c8.393-23.881,6.591-47.897-3.059-63.573l-47.323,65.284L92.622,91c-17.337,6.191-33.767,23.8-42.16,47.68  c-11.548,32.856-3.797,65.965,17.149,77.257c-2.707,35.428,4.8,61.707,22.348,78.144c11.606,10.872,25.336,15.187,36.454,16.74  c1.606,4.951,3.519,9.753,5.692,14.404c-14.414,3.033-39.048,8.356-44.799,10.486c-11.031,4.086-26.222,25.718-33.743,39.26  l14.382,7.986c9.375-16.883,21.304-30.334,25.076-31.821c4.452-1.649,29.802-7.177,47.385-10.842  c3.248,5.079,6.821,9.923,10.68,14.505c-13.323,5.32-32.163,12.971-36.841,15.532c-10.41,5.701-21.877,30.201-27.045,45.279  l15.562,5.334c6.364-18.566,15.892-34.08,19.384-36.184c3.963-2.17,25.046-10.727,41.186-17.129c4.481,4.159,9.2,8.03,14.114,11.581  c-8.316,5.35-16.515,10.774-19.381,13.148c-9.058,7.503-16.244,32.941-18.863,48.209l16.214,2.782  c3.266-19.034,10.077-35.672,13.144-38.322c2.694-2.232,13.509-9.279,24.222-16.092c20.105,11.117,42.193,17.29,63.216,17.29  c21.024,0,43.114-6.174,63.22-17.292c10.713,6.813,21.528,13.86,24.22,16.09c3.071,2.653,9.882,19.292,13.148,38.326l16.214-2.782  c-2.62-15.267-9.806-40.705-18.863-48.208c-2.867-2.375-11.067-7.799-19.383-13.15c4.913-3.551,9.633-7.422,14.114-11.581  c16.14,6.401,37.221,14.958,41.169,17.119c3.51,2.114,13.039,17.628,19.403,36.194l15.562-5.334  c-5.168-15.078-16.634-39.578-27.046-45.279c-4.678-2.561-23.519-10.212-36.842-15.532c3.859-4.582,7.433-9.426,10.681-14.505  c17.583,3.664,42.934,9.193,47.381,10.841c3.776,1.488,15.706,14.939,25.081,31.822l14.382-7.986  C450.916,361.429,435.725,339.798,424.694,335.712z"/>
<path style="fill:#FF3200;" d="M424.694,335.712c-5.751-2.131-30.386-7.454-44.8-10.487c2.174-4.651,4.087-9.453,5.693-14.404  c11.117-1.553,24.847-5.868,36.454-16.74c17.548-16.437,25.055-42.716,22.348-78.144c20.945-11.291,28.696-44.4,17.149-77.257  c-8.393-23.881-24.824-41.489-42.16-47.68l3.926,80.536l-47.323-65.284c-9.651,15.676-11.452,39.692-3.06,63.573  c9.863,28.063,30.824,47.45,51.312,49.839c1.794,27.819-3.617,47.838-16.118,59.548c-5.396,5.055-11.654,8.027-17.601,9.754  c0.689-5.25,1.061-10.62,1.061-16.106c0-50.548-31.541-73.315-77.263-82.078v-22.771c12.08-4.477,20.691-16.101,20.691-29.739  c0-17.512-14.197-31.708-31.708-31.708c-17.512,0-31.709,14.196-31.709,31.708c0,13.638,8.611,25.262,20.691,29.739v19.672  c-11.542-1.111-23.702-1.584-36.27-1.584c-0.002,0-0.004,0-0.007,0v220.13c21.023-0.001,43.112-6.175,63.217-17.292  c10.713,6.814,21.528,13.86,24.22,16.09c3.072,2.653,9.882,19.292,13.148,38.326l16.214-2.782  c-2.62-15.267-9.806-40.705-18.864-48.208c-2.866-2.375-11.066-7.799-19.383-13.15c4.914-3.551,9.633-7.422,14.114-11.581  c16.14,6.401,37.221,14.958,41.169,17.119c3.51,2.114,13.039,17.629,19.402,36.194l15.562-5.334  c-5.168-15.078-16.634-39.578-27.046-45.279c-4.678-2.561-23.519-10.212-36.842-15.532c3.859-4.582,7.433-9.426,10.68-14.505  c17.583,3.664,42.934,9.193,47.381,10.841c3.776,1.488,15.706,14.939,25.081,31.822l14.382-7.986  C450.916,361.429,435.725,339.798,424.694,335.712z"/>
<circle style="fill:#FFFFFF;" cx="208.71" cy="138.27" r="20.563"/>
<circle style="fill:#3C3B41;" cx="208.71" cy="138.27" r="11.02"/>
<circle style="fill:#FFFFFF;" cx="303.29" cy="138.27" r="20.563"/>
<circle style="fill:#3C3B41;" cx="303.29" cy="138.27" r="11.02"/>
<g>
</g>
<g>
</g>
<g>
</g>
<g>
</g>
<g>
</g>
<g>
</g>
<g>
</g>
<g>
</g>
<g>
</g>
<g>
</g>
<g>
</g>
<g>
</g>
<g>
</g>
<g>
</g>
<g>
</g>
</svg>
