<?xml version="1.0" encoding="iso-8859-1"?>
<!-- Generator: Adobe Illustrator 19.0.0, SVG Export Plug-In . SVG Version: 6.00 Build 0)  -->
<svg xmlns="http://www.w3.org/2000/svg" xmlns:xlink="http://www.w3.org/1999/xlink" version="1.1" id="Layer_1" x="0px" y="0px" viewBox="0 0 512 512" style="enable-background:new 0 0 512 512;" xml:space="preserve">
<circle style="fill:#3A4DE3;" cx="256" cy="256" r="256"/>
<path style="fill:#1C2EDE;" d="M512,256c0-30.102-5.212-58.983-14.755-85.811l-34.988-34.988  c-16.608-23.545-39.607-40.216-63.563-44.92c-93.14-18.287-126.424,45.514-129.914,52.849c-0.205,0.433-0.335,0.883-0.429,1.339  c-4.088-0.248-8.21-0.374-12.35-0.374c-1.796,0-3.586,0.035-5.373,0.082l-11.94-9.036c-12.046-18.715-48.118-60.029-125.38-44.859  c-32.848,6.45-63.913,35.385-79.141,73.715c-16.212,40.808-11.085,84.395,14.068,119.583c2.787,3.904,5.954,7.194,9.964,10.351  c0,0,163.446,162.386,218.02,217.278C408.151,500.899,512,390.58,512,256z"/>
<path style="fill:#F0E7DF;" d="M349.352,191.358c0,0,66.818,45.268,99.671,51.106c40.489,7.194-23.656,50.055-86.603,19.337  L349.352,191.358z"/>
<path style="fill:#FFFFFF;" d="M162.648,191.358c0,0-66.818,45.268-99.671,51.106c-40.489,7.194,23.657,50.055,86.603,19.337  L162.648,191.358z"/>
<path style="fill:#F0E7DF;" d="M256,144.094c-60.495,0-117.218,25.981-117.218,91.839c0,61.629,46.175,118.414,56.256,166.751  C204.652,448.777,235.413,452,256,452s51.349-3.223,60.962-49.315c10.081-48.337,56.256-105.122,56.256-166.751  C373.218,170.075,316.496,144.094,256,144.094z"/>
<path style="fill:#DFCDBD;" d="M256,144.094V452c20.587,0,51.349-3.223,60.962-49.315c10.081-48.337,56.256-105.122,56.256-166.751  C373.218,170.075,316.496,144.094,256,144.094z"/>
<path style="fill:#BD9B7B;" d="M289.886,392.414c-1.636-4.465-8.244-10.278-33.885-10.278s-32.25,5.813-33.887,10.278  c13.718,0.313,24.749,11.509,24.749,25.303c0,0.669-0.049,1.326-0.1,1.982c3.012,1.166,6.124,1.868,9.237,1.868  c3.114,0,6.226-0.702,9.237-1.868c-0.051-0.656-0.1-1.313-0.1-1.982C265.137,403.924,276.168,392.728,289.886,392.414z"/>
<path style="fill:#8A6746;" d="M289.886,392.414c-1.636-4.465-8.244-10.278-33.885-10.278l0,0v39.431  c3.114,0,6.226-0.702,9.237-1.868c-0.051-0.656-0.1-1.313-0.1-1.982C265.137,403.924,276.168,392.728,289.886,392.414z"/>
<circle style="fill:#57555C;" cx="197.68" cy="272.76" r="17.859"/>
<circle style="fill:#3C3B41;" cx="314.32" cy="272.76" r="17.859"/>
<path style="fill:#BD9B7B;" d="M243.777,145.251L243.777,145.251c-0.048-0.731-0.236-1.444-0.557-2.122  c-3.489-7.335-36.773-71.136-129.913-52.849c-32.848,6.45-63.913,35.385-79.141,73.715c-16.212,40.808-11.085,84.395,14.068,119.583  c2.787,3.904,5.954,7.194,9.964,10.351c6.34,5.478,12.658,8.259,18.543,10.449c5.831,2.169,12.948,3.119,20.017,3.119  c10.228,0,20.353-1.987,26.331-5.141c20.732-10.934,32.622-29.212,32.622-50.148c0-21.352-11.833-40.636-30.88-50.325  c-2.308-1.174-4.982-0.76-6.812,1.054c-1.811,1.795-2.244,4.435-1.104,6.727c2.472,4.969,5.386,12.757,5.224,21.638  c-0.146,8.245-5.631,16.769-13.649,21.213c-7.661,4.244-16.325,4.112-23.756-0.352c-0.068-0.044-7.014-5.163-9.184-12.932  c-7.768-27.825,3.408-49.037,31.47-59.729c8.332-3.175,27.562-0.111,36.392,21.556c0.55,1.351,1.565,2.444,2.86,3.079  c5.095,2.498,24.464,8.933,59.791-13.147C242.357,168.316,244.106,150.249,243.777,145.251z"/>
<path style="fill:#8A6746;" d="M268.223,145.251L268.223,145.251c0.048-0.731,0.236-1.444,0.557-2.122  c3.489-7.335,36.773-71.136,129.914-52.849c32.848,6.45,63.913,35.385,79.141,73.715c16.212,40.808,11.085,84.395-14.068,119.583  c-2.787,3.904-5.954,7.194-9.964,10.351c-6.34,5.478-12.658,8.259-18.543,10.449c-5.831,2.169-12.948,3.119-20.017,3.119  c-10.227,0-20.353-1.987-26.331-5.141c-20.732-10.934-32.622-29.212-32.622-50.148c0-21.352,11.832-40.636,30.88-50.325  c2.308-1.174,4.982-0.76,6.812,1.054c1.811,1.795,2.244,4.435,1.104,6.727c-2.472,4.969-5.386,12.757-5.224,21.638  c0.146,8.245,5.631,16.769,13.649,21.213c7.661,4.244,16.325,4.112,23.756-0.352c0.068-0.044,7.014-5.163,9.184-12.932  c7.768-27.825-3.408-49.037-31.47-59.729c-8.332-3.175-27.562-0.111-36.392,21.556c-0.55,1.351-1.565,2.444-2.86,3.079  c-5.095,2.498-24.464,8.933-59.791-13.147C269.643,168.316,267.894,150.249,268.223,145.251z"/>
<g>
</g>
<g>
</g>
<g>
</g>
<g>
</g>
<g>
</g>
<g>
</g>
<g>
</g>
<g>
</g>
<g>
</g>
<g>
</g>
<g>
</g>
<g>
</g>
<g>
</g>
<g>
</g>
<g>
</g>
</svg>
