<?xml version="1.0" encoding="iso-8859-1"?>
<!-- Generator: Adobe Illustrator 19.0.0, SVG Export Plug-In . SVG Version: 6.00 Build 0)  -->
<svg version="1.1" id="Capa_1" xmlns="http://www.w3.org/2000/svg" xmlns:xlink="http://www.w3.org/1999/xlink" x="0px" y="0px"
	 viewBox="0 0 512 512" style="enable-background:new 0 0 512 512;" xml:space="preserve">
<circle style="fill:#662E57;" cx="256" cy="256" r="256"/>
<path style="fill:#590F38;" d="M512,256c0-6.815-0.272-13.567-0.795-20.248l-51.041-51.041L64.667,348.087l53.196,54.321
	l109.064,107.939C236.471,511.426,246.168,512,256,512C397.385,512,512,397.385,512,256z"/>
<rect x="64.67" y="188.17" style="fill:#FFFFFF;" width="321.29" height="159.91"/>
<polygon style="fill:#E0E0E0;" points="385.96,188.173 225.313,273.162 64.667,188.173 225.313,97.592 "/>
<polygon style="fill:#C0C0C0;" points="64.667,188.173 225.313,97.592 385.96,188.173 "/>
<polygon style="fill:#758F9B;" points="225.313,97.592 225.313,97.592 225,188.173 385.96,188.173 "/>
<rect x="178.39" y="184.71" style="fill:#8CC63F;" width="281.77" height="147.93"/>
<rect x="319.05" y="184.71" style="fill:#39B54A;" width="141.12" height="147.93"/>
<path style="fill:#47AB4B;" d="M444.51,291.55v-65.747c-14.265,0-25.829-11.564-25.829-25.829H219.873
	c0,14.265-11.564,25.829-25.829,25.829v65.747c14.265,0,25.829,11.564,25.829,25.829H418.68
	C418.68,303.114,430.244,291.55,444.51,291.55z"/>
<path style="fill:#2B9153;" d="M418.68,199.974h-99.633V317.38h99.633c0-14.265,11.564-25.829,25.829-25.829v-65.747
	C430.244,225.803,418.68,214.239,418.68,199.974z"/>
<ellipse style="fill:#8CC63F;" cx="319.28" cy="258.68" rx="26.22" ry="44.81"/>
<path style="fill:#39B54A;" d="M319.277,213.867c-0.077,0-0.153,0.009-0.229,0.01v89.6c0.077,0.001,0.152,0.01,0.229,0.01
	c14.481,0,26.221-20.062,26.221-44.81C345.498,233.929,333.758,213.867,319.277,213.867z"/>
<rect x="117.86" y="254.48" style="fill:#D9E021;" width="281.77" height="147.93"/>
<rect x="258.33" y="254.48" style="fill:#8CC63F;" width="141.3" height="147.93"/>
<path style="fill:#60C344;" d="M383.983,361.316v-65.747c-14.265,0-25.829-11.564-25.829-25.829H159.347
	c0,14.265-11.564,25.829-25.829,25.829v65.747c14.265,0,25.829,11.564,25.829,25.829h198.807
	C358.154,372.88,369.718,361.316,383.983,361.316z"/>
<path style="fill:#47AB4B;" d="M358.154,269.739h-99.82v117.406h99.82c0-14.265,11.564-25.829,25.829-25.829v-65.747
	C369.718,295.568,358.154,284.004,358.154,269.739z"/>
<ellipse style="fill:#D9E021;" cx="258.75" cy="328.44" rx="26.22" ry="44.81"/>
<path style="fill:#8CC63F;" d="M258.75,283.632c-0.14,0-0.277,0.014-0.417,0.018v89.584c0.139,0.004,0.277,0.018,0.417,0.018
	c14.481,0,26.221-20.062,26.221-44.81C284.971,303.694,273.231,283.632,258.75,283.632z"/>
<g>
</g>
<g>
</g>
<g>
</g>
<g>
</g>
<g>
</g>
<g>
</g>
<g>
</g>
<g>
</g>
<g>
</g>
<g>
</g>
<g>
</g>
<g>
</g>
<g>
</g>
<g>
</g>
<g>
</g>
</svg>
