<?xml version="1.0" encoding="iso-8859-1"?>
<!-- Generator: Adobe Illustrator 19.0.0, SVG Export Plug-In . SVG Version: 6.00 Build 0)  -->
<svg version="1.1" id="Capa_1" xmlns="http://www.w3.org/2000/svg" xmlns:xlink="http://www.w3.org/1999/xlink" x="0px" y="0px"
	 viewBox="0 0 512 512" style="enable-background:new 0 0 512 512;" xml:space="preserve">
<circle style="fill:#662E57;" cx="256" cy="255.955" r="255.955"/>
<path style="fill:#590F38;" d="M511.951,256.046c0-9.573-0.543-19.02-1.568-28.32l-69.754-69.754L71.362,353.937l156.519,156.519
	c9.234,1.009,18.612,1.544,28.115,1.544C397.355,512,511.951,397.405,511.951,256.046z"/>
<rect x="71.363" y="157.972" style="fill:#FFFFFF;" width="369.264" height="195.965"/>
<g>
	<rect x="71.363" y="255.865" style="fill:#E0E0E0;" width="369.264" height="98.073"/>
	<rect x="94.529" y="181.968" style="fill:#E0E0E0;" width="322.943" height="147.974"/>
</g>
<g>
	<rect x="94.529" y="255.865" style="fill:#C0C0C0;" width="322.943" height="74.077"/>
	<rect x="85.36" y="215.792" style="fill:#C0C0C0;" width="20.663" height="25.662"/>
</g>
<rect x="85.36" y="270.452" style="fill:#758F9B;" width="20.663" height="25.662"/>
<rect x="311.99" y="216.711" style="fill:#C0C0C0;" width="87.314" height="78.486"/>
<rect x="311.99" y="255.865" style="fill:#758F9B;" width="87.314" height="39.333"/>
<g>
	<rect x="323.898" y="226.38" style="fill:#666666;" width="12.498" height="12.998"/>
	<rect x="349.233" y="226.38" style="fill:#666666;" width="12.831" height="12.998"/>
	<rect x="374.889" y="226.38" style="fill:#666666;" width="12.498" height="12.998"/>
	<rect x="323.898" y="249.546" style="fill:#666666;" width="12.498" height="12.998"/>
</g>
<rect x="323.898" y="255.865" style="fill:#4D4D4D;" width="12.498" height="6.685"/>
<rect x="349.233" y="249.546" style="fill:#666666;" width="12.831" height="12.998"/>
<rect x="349.233" y="255.865" style="fill:#4D4D4D;" width="12.831" height="6.685"/>
<rect x="374.889" y="249.546" style="fill:#666666;" width="12.498" height="12.998"/>
<g>
	<rect x="374.889" y="255.865" style="fill:#4D4D4D;" width="12.498" height="6.685"/>
	<rect x="323.898" y="272.712" style="fill:#4D4D4D;" width="12.498" height="12.998"/>
	<rect x="349.233" y="272.712" style="fill:#4D4D4D;" width="12.831" height="12.998"/>
	<rect x="374.889" y="272.712" style="fill:#4D4D4D;" width="12.498" height="12.998"/>
</g>
<g>
</g>
<g>
</g>
<g>
</g>
<g>
</g>
<g>
</g>
<g>
</g>
<g>
</g>
<g>
</g>
<g>
</g>
<g>
</g>
<g>
</g>
<g>
</g>
<g>
</g>
<g>
</g>
<g>
</g>
</svg>
