<?xml version="1.0" encoding="iso-8859-1"?>
<!-- Generator: Adobe Illustrator 19.0.0, SVG Export Plug-In . SVG Version: 6.00 Build 0)  -->
<svg version="1.1" id="Capa_1" xmlns="http://www.w3.org/2000/svg" xmlns:xlink="http://www.w3.org/1999/xlink" x="0px" y="0px"
	 viewBox="0 0 512 512" style="enable-background:new 0 0 512 512;" xml:space="preserve">
<circle style="fill:#FFDC00;" cx="256" cy="256" r="256"/>
<path style="fill:#FFC000;" d="M511.738,267.304L319.05,74.616l-97.026-10.974L209.213,90.88l105.659,105.659l-142.64,236.866
	l78.529,78.529c1.743,0.035,3.488,0.066,5.24,0.066C393.596,512,505.82,403.442,511.738,267.304z"/>
<rect x="172.23" y="132.98" style="fill:#333333;" width="167.54" height="300.43"/>
<rect x="255.95" y="132.98" style="fill:#1A1A1A;" width="83.82" height="300.43"/>
<rect x="186.27" y="147.67" style="fill:#B9EAFF;" width="139.47" height="254.37"/>
<rect x="255.95" y="147.67" style="fill:#35CCFF;" width="69.781" height="254.37"/>
<path style="fill:#0074A3;" d="M300.479,292.228c0-18.345-14.727-33.305-32.979-33.703v-21.462h21.479v-23H267.5V196.96h-23v17.121
	c-18.251,0.398-32.979,15.358-32.979,33.703s14.727,33.305,32.979,33.703v21.462h-21.479v23H244.5v17.103h23V325.93
	C285.751,325.532,300.479,310.573,300.479,292.228z M234.521,247.785c0-5.661,4.413-10.299,9.979-10.684v21.368
	C238.935,258.084,234.521,253.446,234.521,247.785z M267.5,302.912v-21.368c5.565,0.384,9.979,5.023,9.979,10.684
	S273.065,302.527,267.5,302.912z"/>
<path style="fill:#005C83;" d="M267.5,258.525v-21.462h21.479v-23H267.5V196.96h-11.548v146.091H267.5V325.93
	c18.251-0.398,32.979-15.358,32.979-33.703S285.751,258.923,267.5,258.525z M267.5,302.912v-21.368
	c5.565,0.384,9.979,5.023,9.979,10.684S273.065,302.527,267.5,302.912z"/>
<path style="fill:#008CC3;" d="M209.213,90.88l-16.264-16.264C209.791,57.775,232.183,48.5,256,48.5s46.209,9.275,63.05,26.116
	L302.787,90.88C290.29,78.383,273.674,71.5,256,71.5S221.71,78.383,209.213,90.88z"/>
<path style="fill:#0074A3;" d="M256,48.5c-0.016,0-0.032,0.001-0.048,0.001v23c0.016,0,0.032-0.001,0.048-0.001
	c17.674,0,34.29,6.883,46.787,19.38l16.264-16.263C302.209,57.775,279.817,48.5,256,48.5z"/>
<path style="fill:#008CC3;" d="M240.548,122.215l-16.264-16.264C232.756,97.48,244.02,92.815,256,92.815
	c11.98,0,23.244,4.666,31.715,13.137l-16.264,16.263c-4.127-4.127-9.614-6.4-15.451-6.4S244.675,118.088,240.548,122.215z"/>
<path style="fill:#0074A3;" d="M256,92.815c-0.016,0-0.032,0.001-0.048,0.001v23.001c0.016,0,0.032-0.002,0.048-0.002
	c5.837,0,11.324,2.273,15.451,6.4l16.264-16.263C279.244,97.48,267.98,92.815,256,92.815z"/>
<g>
</g>
<g>
</g>
<g>
</g>
<g>
</g>
<g>
</g>
<g>
</g>
<g>
</g>
<g>
</g>
<g>
</g>
<g>
</g>
<g>
</g>
<g>
</g>
<g>
</g>
<g>
</g>
<g>
</g>
</svg>
