<?xml version="1.0" encoding="iso-8859-1"?>
<!-- Generator: Adobe Illustrator 19.0.0, SVG Export Plug-In . SVG Version: 6.00 Build 0)  -->
<svg version="1.1" id="Capa_1" xmlns="http://www.w3.org/2000/svg" xmlns:xlink="http://www.w3.org/1999/xlink" x="0px" y="0px"
	 viewBox="0 0 512 512" style="enable-background:new 0 0 512 512;" xml:space="preserve">
<circle style="fill:#FFDC00;" cx="256" cy="256" r="256"/>
<path style="fill:#FFC000;" d="M511.955,259.534L349.868,97.447l-169.511-8.209l-45.833,130.357l92.884,205.346l81.559,81.559
	C423.822,482.334,510.307,381.185,511.955,259.534z"/>
<path style="fill:#005C83;" d="M256,60.829c-76.564,0-138.632,62.068-138.632,138.632c0,146.052,138.632,250.71,138.632,250.71
	s138.632-110.125,138.632-250.709C394.632,122.897,332.564,60.829,256,60.829z M256,303.008c-56.764,0-102.78-46.016-102.78-102.78
	S199.236,97.447,256,97.447s102.78,46.016,102.78,102.78S312.764,303.008,256,303.008z"/>
<path style="fill:#00263F;" d="M256,60.829c-0.016,0-0.032,0.001-0.048,0.001v36.618c0.016,0,0.032-0.001,0.048-0.001
	c56.764,0,102.781,46.016,102.781,102.78S312.764,303.008,256,303.008c-0.016,0-0.032-0.001-0.048-0.001v147.127
	c0.015,0.011,0.048,0.036,0.048,0.036s138.632-110.125,138.632-250.709C394.632,122.897,332.564,60.829,256,60.829z"/>
<g>
	<path style="fill:#2B9153;" d="M268.264,191.026H267.5v-27.667h26.097v-23H267.5v-21.108h-23v21.108h-0.764
		c-20.31,0-36.833,16.523-36.833,36.834c0,20.31,16.523,36.833,36.833,36.833h0.764v27.667h-26.097v23H244.5v21.108h23v-21.108
		h0.764c20.31,0,36.833-16.523,36.833-36.833C305.097,207.55,288.573,191.026,268.264,191.026z M243.736,191.026
		c-7.628,0-13.833-6.206-13.833-13.833c0-7.628,6.205-13.834,13.833-13.834h0.764v27.667H243.736z M268.264,241.693H267.5v-27.667
		h0.764c7.628,0,13.833,6.206,13.833,13.834C282.097,235.488,275.892,241.693,268.264,241.693z"/>
	<path style="fill:#2B9153;" d="M268.264,191.026H267.5v-27.667h26.097v-23H267.5v-21.108h-11.548v166.551H267.5v-21.108h0.764
		c20.31,0,36.833-16.523,36.833-36.833C305.097,207.55,288.573,191.026,268.264,191.026z M268.264,241.693H267.5v-27.667h0.764
		c7.628,0,13.833,6.206,13.833,13.834C282.097,235.488,275.892,241.693,268.264,241.693z"/>
</g>
<g>
</g>
<g>
</g>
<g>
</g>
<g>
</g>
<g>
</g>
<g>
</g>
<g>
</g>
<g>
</g>
<g>
</g>
<g>
</g>
<g>
</g>
<g>
</g>
<g>
</g>
<g>
</g>
<g>
</g>
</svg>
