<?xml version="1.0" encoding="iso-8859-1"?>
<!-- Generator: Adobe Illustrator 19.0.0, SVG Export Plug-In . SVG Version: 6.00 Build 0)  -->
<svg version="1.1" id="Capa_1" xmlns="http://www.w3.org/2000/svg" xmlns:xlink="http://www.w3.org/1999/xlink" x="0px" y="0px"
	 viewBox="0 0 512 512" style="enable-background:new 0 0 512 512;" xml:space="preserve">
<circle style="fill:#662E57;" cx="256" cy="256" r="256"/>
<g>
	<path style="fill:#590F38;" d="M482.27,375.813L222.911,116.454L117.954,224.429l257.847,257.847
		C421.062,458.262,458.254,421.073,482.27,375.813z"/>
	<path style="fill:#590F38;" d="M374.358,147.694l-0.78,2.159l-39.456-39.456l-39.668,32.694l25.526,51.833l168.458,168.458
		c11.407-24.65,19.009-51.418,22.051-79.557L374.358,147.694z"/>
	<path style="fill:#590F38;" d="M143.444,295.066l-5.803,69.24L283.825,510.49c28.139-3.042,54.906-10.644,79.557-22.051
		L241.355,366.412l-20.616,5.949L143.444,295.066z"/>
</g>
<path style="fill:#E0E0E0;" d="M343.79,135.588h-34.859l25.192-25.192L319.98,96.254l-49.335,49.334l49.335,49.335l14.143-14.142
	l-25.193-25.193h34.86c13.656,0,24.766,11.11,24.766,24.766v36.58h20v-36.58C388.556,155.67,368.474,135.588,343.79,135.588z"/>
<path style="fill:#FFFFFF;" d="M192.02,317.076l-14.143,14.143l25.193,25.193h-34.86c-13.656,0-24.766-11.11-24.766-24.766v-36.58
	h-20v36.58c0,24.684,20.082,44.766,44.766,44.766h34.86l-25.193,25.192l14.143,14.143l49.336-49.334L192.02,317.076z"/>
<circle style="fill:#FFDC00;" cx="170.81" cy="170.81" r="75.3"/>
<path style="fill:#FFC000;" d="M246.101,170.805c0-41.58-33.704-75.288-75.283-75.295V246.1
	C212.397,246.093,246.101,212.386,246.101,170.805z"/>
<path style="fill:#FF6838;" d="M178.042,164.019h-0.451v-16.326h15.399v-13.572h-15.399v-12.456H164.02v12.456h-0.451
	c-11.984,0-21.734,9.75-21.734,21.735s9.75,21.735,21.734,21.735h0.451v16.326h-15.399v13.572h15.399v12.456h13.572v-12.456h0.451
	c11.984,0,21.734-9.75,21.734-21.735C199.776,173.77,190.026,164.019,178.042,164.019z M163.569,164.019
	c-4.501,0-8.162-3.662-8.162-8.163c0-4.501,3.661-8.163,8.162-8.163h0.451v16.326L163.569,164.019L163.569,164.019z
	 M178.042,193.917h-0.451v-16.326h0.451c4.501,0,8.162,3.662,8.162,8.163C186.204,190.255,182.543,193.917,178.042,193.917z"/>
<path style="fill:#AE4E32;" d="M178.042,164.02h-0.451v-16.326h15.399v-13.572h-15.399v-12.456h-6.773v98.278h6.773v-12.456h0.451
	c11.984,0,21.734-9.75,21.734-21.735S190.026,164.02,178.042,164.02z M178.042,193.917h-0.451v-16.326h0.451
	c4.501,0,8.162,3.662,8.162,8.163S182.543,193.917,178.042,193.917z"/>
<circle style="fill:#FFDC00;" cx="341.19" cy="341.19" r="75.3"/>
<path style="fill:#FFC000;" d="M341.195,265.899c-0.228,0-0.452,0.015-0.68,0.017v150.556c0.228,0.002,0.452,0.018,0.68,0.018
	c41.584,0,75.295-33.711,75.295-75.295S382.779,265.899,341.195,265.899z"/>
<path style="fill:#FF6838;" d="M348.431,334.409h-0.451v-16.326h15.399v-13.572H347.98v-12.456h-13.572v12.456h-0.451
	c-11.984,0-21.734,9.75-21.734,21.734c0,11.985,9.75,21.735,21.734,21.735h0.451v16.326H319.01v13.572h15.399v12.456h13.572v-12.456
	h0.451c11.984,0,21.734-9.75,21.734-21.735C370.165,344.159,360.415,334.409,348.431,334.409z M333.958,334.409
	c-4.501,0-8.162-3.662-8.162-8.163s3.661-8.163,8.162-8.163h0.451v16.326H333.958z M348.431,364.306h-0.451V347.98h0.451
	c4.501,0,8.162,3.662,8.162,8.163S352.932,364.306,348.431,364.306z"/>
<path style="fill:#AE4E32;" d="M348.431,334.409h-0.451v-16.326h15.399v-13.572H347.98v-12.456h-7.465v98.278h7.465v-12.456h0.451
	c11.984,0,21.734-9.75,21.734-21.734S360.415,334.409,348.431,334.409z M348.431,364.306h-0.451V347.98h0.451
	c4.501,0,8.163,3.662,8.163,8.163C356.594,360.645,352.932,364.306,348.431,364.306z"/>
<g>
</g>
<g>
</g>
<g>
</g>
<g>
</g>
<g>
</g>
<g>
</g>
<g>
</g>
<g>
</g>
<g>
</g>
<g>
</g>
<g>
</g>
<g>
</g>
<g>
</g>
<g>
</g>
<g>
</g>
</svg>
