<?xml version="1.0" encoding="iso-8859-1"?>
<!-- Generator: Adobe Illustrator 19.0.0, SVG Export Plug-In . SVG Version: 6.00 Build 0)  -->
<svg version="1.1" id="Capa_1" xmlns="http://www.w3.org/2000/svg" xmlns:xlink="http://www.w3.org/1999/xlink" x="0px" y="0px"
	 viewBox="0 0 512 512" style="enable-background:new 0 0 512 512;" xml:space="preserve">
<circle style="fill:#00BAFF;" cx="256" cy="256" r="256"/>
<path style="fill:#008CC3;" d="M512,256c0-24.454-3.433-48.105-9.836-70.503l-59.83-59.83L87.667,391.333l115.111,115.111
	C219.948,510.075,237.748,512,256,512C397.385,512,512,397.385,512,256z"/>
<rect x="87.67" y="125.67" style="fill:#FFFFFF;" width="354.67" height="265.67"/>
<g>
	<rect x="255.67" y="125.67" style="fill:#E0E0E0;" width="186.67" height="265.67"/>
	<rect x="87.67" y="125.67" style="fill:#E0E0E0;" width="354.67" height="34"/>
</g>
<rect x="255.67" y="125.67" style="fill:#C0C0C0;" width="186.67" height="34"/>
<circle style="fill:#FF6838;" cx="108.21" cy="142.12" r="9.88"/>
<circle style="fill:#FFB344;" cx="136.21" cy="142.12" r="9.88"/>
<circle style="fill:#60C344;" cx="163.88" cy="142.12" r="9.88"/>
<path style="fill:#FF6838;" d="M426.548,223.103l0.001,112.194c0,7.342-5.952,13.294-13.294,13.294l-183.845,0.001
	c-7.342,0-13.293-5.952-13.294-13.293l-0.001-112.194c0-7.342,5.952-13.294,13.294-13.294l183.845-0.001
	C420.597,209.81,426.548,215.761,426.548,223.103z"/>
<path style="fill:#AE4E32;" d="M426.548,223.103c0-7.341-5.952-13.293-13.294-13.293h-92.74v138.781h92.741
	c7.342,0,13.294-5.952,13.293-13.294V223.103z"/>
<rect x="216.12" y="238.47" style="fill:#333333;" width="210.43" height="33.941"/>
<rect x="320.51" y="238.47" style="fill:#1A1A1A;" width="106.03" height="33.941"/>
<path style="fill:#FFB344;" d="M359.314,279.357H199.656v-7.163c0-24.301-19.771-44.072-44.072-44.072s-44.072,19.771-44.072,44.072
	v35.326c0,24.302,19.771,44.072,44.072,44.072s44.072-19.771,44.072-44.072v-7.163h92.511v40.735h21v-40.735h14.667v40.735h21
	v-40.735h10.481L359.314,279.357L359.314,279.357z M178.656,307.52c0,12.722-10.35,23.072-23.072,23.072
	s-23.072-10.35-23.072-23.072v-35.326c0-12.722,10.35-23.072,23.072-23.072s23.072,10.35,23.072,23.072V307.52z"/>
<polygon style="fill:#FF9451;" points="229,279.357 229,300.357 292.167,300.357 292.167,341.092 313.167,341.092 313.167,300.357 
	327.833,300.357 327.833,341.092 348.833,341.092 348.833,300.357 359.314,300.357 359.314,279.357 "/>
<g>
</g>
<g>
</g>
<g>
</g>
<g>
</g>
<g>
</g>
<g>
</g>
<g>
</g>
<g>
</g>
<g>
</g>
<g>
</g>
<g>
</g>
<g>
</g>
<g>
</g>
<g>
</g>
<g>
</g>
</svg>
