<?xml version="1.0" encoding="iso-8859-1"?>
<!-- Generator: Adobe Illustrator 19.0.0, SVG Export Plug-In . SVG Version: 6.00 Build 0)  -->
<svg version="1.1" id="Capa_1" xmlns="http://www.w3.org/2000/svg" xmlns:xlink="http://www.w3.org/1999/xlink" x="0px" y="0px"
	 viewBox="0 0 512 512" style="enable-background:new 0 0 512 512;" xml:space="preserve">
<circle style="fill:#662E57;" cx="256" cy="256" r="256"/>
<path style="fill:#590F38;" d="M510.531,283.461L304.07,77l-97.177,85.768l54.089,54.089L94.918,362.611l36.386,36.386l-8.717,8.937
	l102.165,102.165C234.995,511.345,245.421,512,256,512C388.106,512,496.829,411.931,510.531,283.461z"/>
<polygon style="fill:#B9EAFF;" points="385,278.5 127,278.5 169.768,192 342.232,192 "/>
<polygon style="fill:#35CCFF;" points="342.232,192 255.667,192 255.667,278.5 385,278.5 "/>
<path style="fill:#FF6838;" d="M403.515,290h-295.03l54.14-109.5h186.75L403.515,290z M145.515,267h220.971l-31.396-63.5H176.911
	L145.515,267z"/>
<circle style="fill:#FFDC00;" cx="256" cy="120.47" r="64.812"/>
<path style="fill:#FFC000;" d="M256,55.659c-0.112,0-0.222,0.008-0.333,0.008v129.607c0.112,0,0.221,0.008,0.333,0.008
	c35.795,0,64.812-29.017,64.812-64.812C320.812,84.676,291.795,55.659,256,55.659z"/>
<path style="fill:#FF6838;" d="M262.229,114.63h-0.388v-14.053h13.255V88.895h-13.255V78.174h-11.682v10.721h-0.388
	c-10.316,0-18.708,8.393-18.708,18.708c0,10.316,8.392,18.708,18.708,18.708h0.388v14.053h-13.255v11.682h13.255v10.721h11.682
	v-10.721h0.388c10.316,0,18.708-8.393,18.708-18.708C280.937,123.023,272.545,114.63,262.229,114.63z M249.771,114.63
	c-3.874,0-7.026-3.152-7.026-7.026s3.152-7.026,7.026-7.026h0.388v14.053L249.771,114.63L249.771,114.63z M262.229,140.365h-0.388
	v-14.053h0.388c3.874,0,7.026,3.152,7.026,7.026C269.255,137.213,266.103,140.365,262.229,140.365z"/>
<path style="fill:#AE4E32;" d="M262.229,114.63h-0.388v-14.053h13.255V88.896h-13.255V78.174h-6.174v84.594h6.174v-10.721h0.388
	c10.315,0,18.708-8.393,18.708-18.708S272.544,114.63,262.229,114.63z M262.229,140.365h-0.388v-14.053h0.388
	c3.874,0,7.026,3.152,7.026,7.026S266.103,140.365,262.229,140.365z"/>
<path style="fill:#808080;" d="M154.75,414h-20.5c-7.87,0-14.25-6.38-14.25-14.25v-52c0-7.87,6.38-14.25,14.25-14.25h20.5
	c7.87,0,14.25,6.38,14.25,14.25v52C169,407.62,162.62,414,154.75,414z"/>
<path style="fill:#666666;" d="M377.75,414h-20.5c-7.87,0-14.25-6.38-14.25-14.25v-52c0-7.87,6.38-14.25,14.25-14.25h20.5
	c7.87,0,14.25,6.38,14.25,14.25v52C392,407.62,385.62,414,377.75,414z"/>
<path style="fill:#FF6838;" d="M388.042,258.705L349.375,180.5h-186.75l-38.667,78.205c-26.296,7.903-45.458,32.289-45.458,61.16
	l0,0c0,35.271,28.593,63.865,63.865,63.865h227.271c35.271,0,63.865-28.593,63.865-63.865l0,0
	C433.5,290.994,414.338,266.608,388.042,258.705z M176.911,203.5H335.09l25.957,52.5H150.953L176.911,203.5z"/>
<path style="fill:#AE4E32;" d="M388.042,258.705L349.375,180.5h-93.708v23h79.423l25.957,52.5h-105.38v11v23v93.729h113.969
	c35.271,0,63.865-28.593,63.865-63.865C433.5,290.994,414.338,266.609,388.042,258.705z"/>
<path style="fill:#FFDC00;" d="M167.5,328.5h-46c-10.217,0-18.5-8.283-18.5-18.5l0,0c0-10.217,8.283-18.5,18.5-18.5h46
	c10.217,0,18.5,8.283,18.5,18.5l0,0C186,320.217,177.717,328.5,167.5,328.5z"/>
<path style="fill:#FFC000;" d="M390.5,328.5h-46c-10.217,0-18.5-8.283-18.5-18.5l0,0c0-10.217,8.283-18.5,18.5-18.5h46
	c10.217,0,18.5,8.283,18.5,18.5l0,0C409,320.217,400.717,328.5,390.5,328.5z"/>
<g>
</g>
<g>
</g>
<g>
</g>
<g>
</g>
<g>
</g>
<g>
</g>
<g>
</g>
<g>
</g>
<g>
</g>
<g>
</g>
<g>
</g>
<g>
</g>
<g>
</g>
<g>
</g>
<g>
</g>
</svg>
