<?xml version="1.0" encoding="iso-8859-1"?>
<!-- Generator: Adobe Illustrator 19.0.0, SVG Export Plug-In . SVG Version: 6.00 Build 0)  -->
<svg version="1.1" id="Capa_1" xmlns="http://www.w3.org/2000/svg" xmlns:xlink="http://www.w3.org/1999/xlink" x="0px" y="0px"
	 viewBox="0 0 512 512" style="enable-background:new 0 0 512 512;" xml:space="preserve">
<circle style="fill:#00BAFF;" cx="256" cy="256" r="256"/>
<path style="fill:#008CC3;" d="M417.895,188.704l-1.32,1.779L315.202,89.11l-45.562,39.953l110.507,110.508l-6.996,9.427
	l-65.207-65.207l-16.855,24.907l-66.555-66.555L89.177,361.012l150.452,150.452C245.044,511.806,250.499,512,256,512
	c132.763,0,241.915-101.065,254.734-230.456L417.895,188.704z"/>
<path style="fill:#FFFFFF;" d="M348.334,388.5c47.659,0,86.295-38.636,86.295-86.295s-38.636-86.295-86.295-86.295
	c-6.97,0-13.738,0.848-20.229,2.408c-10.728-35.453-43.641-61.27-82.596-61.27c-47.322,0-85.728,38.095-86.27,85.289
	c-4.123-0.716-8.356-1.111-12.683-1.111c-40.669,0-73.637,32.969-73.637,73.637s32.969,73.637,73.637,73.637L348.334,388.5
	L348.334,388.5z"/>
<path style="fill:#E0E0E0;" d="M348.334,215.91c-6.97,0-13.738,0.848-20.229,2.408c-9.781-32.324-38.008-56.627-72.438-60.667V388.5
	h92.667c47.659,0,86.295-38.636,86.295-86.295C434.629,254.545,395.993,215.91,348.334,215.91z"/>
<circle style="fill:#FFDC00;" cx="176.24" cy="198.53" r="74.24"/>
<path style="fill:#FF6838;" d="M183.378,191.84h-0.444v-16.097h15.184V162.36h-15.184v-12.281h-13.382v12.281h-0.444
	c-11.817,0-21.43,9.614-21.43,21.431s9.614,21.431,21.43,21.431h0.444v16.098h-15.184v13.382h15.184v12.281h13.382v-12.281h0.444
	c11.817,0,21.43-9.614,21.43-21.431C204.809,201.454,195.195,191.84,183.378,191.84z M169.108,191.84
	c-4.438,0-8.048-3.611-8.048-8.049s3.61-8.049,8.048-8.049h0.444v16.097L169.108,191.84L169.108,191.84z M183.378,221.319h-0.444
	v-16.098h0.444c4.438,0,8.048,3.611,8.048,8.049C191.427,217.709,187.816,221.319,183.378,221.319z"/>
<g>
	<circle style="fill:#FFC000;" cx="379.72" cy="225.49" r="53.03"/>
	<circle style="fill:#FFC000;" cx="291.9" cy="108.49" r="30.31"/>
</g>
<path style="fill:#AE4E32;" d="M384.815,220.712h-0.317v-11.498h10.845v-9.559h-10.845v-8.772h-9.558v8.772h-0.317
	c-8.44,0-15.307,6.867-15.307,15.308s6.867,15.308,15.307,15.308h0.317v11.498h-10.845v9.558h10.845v8.772h9.558v-8.772h0.317
	c8.44,0,15.307-6.867,15.307-15.308C400.122,227.579,393.255,220.712,384.815,220.712z M374.622,220.712
	c-3.17,0-5.749-2.579-5.749-5.749s2.579-5.749,5.749-5.749h0.317v11.498L374.622,220.712L374.622,220.712z M384.815,241.769h-0.317
	V230.27h0.317c3.17,0,5.749,2.579,5.749,5.749S387.985,241.769,384.815,241.769z"/>
<g>
</g>
<g>
</g>
<g>
</g>
<g>
</g>
<g>
</g>
<g>
</g>
<g>
</g>
<g>
</g>
<g>
</g>
<g>
</g>
<g>
</g>
<g>
</g>
<g>
</g>
<g>
</g>
<g>
</g>
</svg>
