<?xml version="1.0" encoding="iso-8859-1"?>
<!-- Generator: Adobe Illustrator 19.0.0, SVG Export Plug-In . SVG Version: 6.00 Build 0)  -->
<svg version="1.1" id="Capa_1" xmlns="http://www.w3.org/2000/svg" xmlns:xlink="http://www.w3.org/1999/xlink" x="0px" y="0px"
	 viewBox="0 0 512 512" style="enable-background:new 0 0 512 512;" xml:space="preserve">
<circle style="fill:#FF6838;" cx="256" cy="256" r="256"/>
<path style="fill:#AE4E32;" d="M512,256c0-3.687-0.096-7.352-0.25-11l-74-74l-0.757,0.733l-62.326-62.326L74.25,331.5l77.385,77.385
	l-14.302,9.458l92.315,92.315C238.312,511.544,247.103,512,256,512C397.385,512,512,397.385,512,256z"/>
<polygon style="fill:#FFFFFF;" points="329.333,64.074 137.333,64.074 137.333,207.667 374.667,207.667 374.667,109.407 "/>
<polygon style="fill:#E0E0E0;" points="374.667,109.407 329.333,64.074 255.667,64.074 255.667,207.667 374.667,207.667 "/>
<polygon style="fill:#C0C0C0;" points="329.333,109.407 374.667,109.407 329.333,64.074 "/>
<rect x="74.25" y="171" style="fill:#333333;" width="363.5" height="160.5"/>
<rect x="255.67" y="171" style="fill:#1A1A1A;" width="182.08" height="160.5"/>
<rect x="126" y="250" style="fill:#808080;" width="260" height="81.5"/>
<rect x="255.67" y="250" style="fill:#666666;" width="130.33" height="81.5"/>
<g>
	<circle style="fill:#35CCFF;" cx="103.25" cy="202.25" r="11.25"/>
	<circle style="fill:#35CCFF;" cx="141.25" cy="202.25" r="11.25"/>
</g>
<rect x="137.33" y="274.75" style="fill:#FFFFFF;" width="237.33" height="143.59"/>
<rect x="255.67" y="274.75" style="fill:#E0E0E0;" width="119" height="143.59"/>
<path style="fill:#35CCFF;" d="M264.192,339.359h-0.51v-18.481h17.432v-15.363h-17.432v-14.1h-15.363v14.1h-0.51
	c-13.566,0-24.603,11.037-24.603,24.604c0,13.567,11.037,24.604,24.603,24.604h0.51v18.481h-17.432v15.363h17.432v14.1h15.363v-14.1
	h0.51c13.566,0,24.603-11.037,24.603-24.604C288.795,350.396,277.758,339.359,264.192,339.359z M247.808,339.359
	c-5.095,0-9.24-4.145-9.24-9.24s4.145-9.24,9.24-9.24h0.51v18.481h-0.51V339.359z M264.192,373.203h-0.51v-18.481h0.51
	c5.095,0,9.24,4.145,9.24,9.24C273.432,369.058,269.287,373.203,264.192,373.203z"/>
<path style="fill:#00BAFF;" d="M264.192,339.359h-0.51v-18.48h17.432v-15.363h-17.432v-14.1h-8.015v111.251h8.015v-14.1h0.51
	c13.566,0,24.603-11.037,24.603-24.604S277.758,339.359,264.192,339.359z M264.192,373.203h-0.51v-18.48h0.51
	c5.095,0,9.24,4.145,9.24,9.24S269.287,373.203,264.192,373.203z"/>
<g>
</g>
<g>
</g>
<g>
</g>
<g>
</g>
<g>
</g>
<g>
</g>
<g>
</g>
<g>
</g>
<g>
</g>
<g>
</g>
<g>
</g>
<g>
</g>
<g>
</g>
<g>
</g>
<g>
</g>
</svg>
