<?xml version="1.0" encoding="iso-8859-1"?>
<!-- Generator: Adobe Illustrator 19.0.0, SVG Export Plug-In . SVG Version: 6.00 Build 0)  -->
<svg version="1.1" id="Capa_1" xmlns="http://www.w3.org/2000/svg" xmlns:xlink="http://www.w3.org/1999/xlink" x="0px" y="0px"
	 viewBox="0 0 512 512" style="enable-background:new 0 0 512 512;" xml:space="preserve">
<circle style="fill:#FFDC00;" cx="256" cy="256" r="256"/>
<path style="fill:#FFC000;" d="M512,256c0-14.14-1.165-28.006-3.37-41.522L369,74.848L143,437.152l71.478,71.478
	C227.994,510.835,241.86,512,256,512C397.385,512,512,397.385,512,256z"/>
<rect x="143" y="74.848" style="fill:#333333;" width="226" height="362.31"/>
<rect x="255.95" y="74.848" style="fill:#1A1A1A;" width="113.05" height="362.31"/>
<rect x="162.99" y="99.67" style="fill:#35CCFF;" width="137.33" height="138.67"/>
<rect x="255.95" y="99.67" style="fill:#00BAFF;" width="44.37" height="138.67"/>
<rect x="171" y="256" style="fill:#4D4D4D;" width="114" height="27"/>
<g>
	<rect x="255.95" y="256" style="fill:#333333;" width="29.05" height="27"/>
	<rect x="314.15" y="99.67" style="fill:#333333;" width="34.5" height="138.67"/>
</g>
<g>
	<circle style="fill:#008CC3;" cx="182.83" cy="136.17" r="11.833"/>
	<circle style="fill:#008CC3;" cx="182.83" cy="171.83" r="11.833"/>
	<circle style="fill:#008CC3;" cx="182.83" cy="207.5" r="11.833"/>
</g>
<g>
	<circle style="fill:#0074A3;" cx="277.17" cy="136.17" r="11.833"/>
	<circle style="fill:#0074A3;" cx="277.17" cy="171.83" r="11.833"/>
	<circle style="fill:#0074A3;" cx="277.17" cy="207.5" r="11.833"/>
</g>
<g>
</g>
<g>
</g>
<g>
</g>
<g>
</g>
<g>
</g>
<g>
</g>
<g>
</g>
<g>
</g>
<g>
</g>
<g>
</g>
<g>
</g>
<g>
</g>
<g>
</g>
<g>
</g>
<g>
</g>
</svg>
