<?xml version="1.0" encoding="iso-8859-1"?>
<!-- Generator: Adobe Illustrator 19.0.0, SVG Export Plug-In . SVG Version: 6.00 Build 0)  -->
<svg version="1.1" id="Capa_1" xmlns="http://www.w3.org/2000/svg" xmlns:xlink="http://www.w3.org/1999/xlink" x="0px" y="0px"
	 viewBox="0 0 512 512" style="enable-background:new 0 0 512 512;" xml:space="preserve">
<circle style="fill:#FFDC00;" cx="256" cy="256" r="256"/>
<path style="fill:#FFC000;" d="M511.932,261.391L435,184.459l-3.748,5.792L330,89L128,442l61.168,61.168
	C210.476,508.916,232.876,512,256,512C395.582,512,509.061,400.286,511.932,261.391z"/>
<path style="fill:#FF6838;" d="M437.866,192.994l0.001,119.39c0,7.813-6.334,14.146-14.146,14.146l-195.64,0.001
	c-7.813,0-14.146-6.333-14.146-14.146l-0.001-119.39c0-7.813,6.334-14.146,14.146-14.146l195.64-0.001
	C431.532,178.848,437.866,185.181,437.866,192.994z"/>
<rect x="213.93" y="209.35" style="fill:#333333;" width="223.93" height="36.12"/>
<rect x="128" y="89" style="fill:#4D4D4D;" width="202" height="353"/>
<rect x="229" y="89" style="fill:#333333;" width="101" height="353"/>
<g>
	<circle style="fill:#808080;" cx="168.75" cy="260.74" r="20.631"/>
	<circle style="fill:#808080;" cx="229" cy="260.74" r="20.631"/>
</g>
<g>
	<path style="fill:#666666;" d="M229,240.103v41.263l0,0c11.394,0,20.631-9.237,20.631-20.631
		C249.631,249.34,240.394,240.103,229,240.103z"/>
	<circle style="fill:#666666;" cx="289.25" cy="260.73" r="20.631"/>
</g>
<g>
	<circle style="fill:#808080;" cx="168.75" cy="328.97" r="20.631"/>
	<circle style="fill:#808080;" cx="229" cy="328.97" r="20.631"/>
</g>
<g>
	<path style="fill:#666666;" d="M229,308.334v41.263l0,0c11.394,0,20.631-9.237,20.631-20.631
		C249.631,317.571,240.394,308.334,229,308.334z"/>
	<circle style="fill:#666666;" cx="289.25" cy="328.97" r="20.631"/>
</g>
<g>
	<circle style="fill:#808080;" cx="168.75" cy="397.2" r="20.631"/>
	<circle style="fill:#808080;" cx="229" cy="397.2" r="20.631"/>
</g>
<path style="fill:#666666;" d="M229,376.566v41.263l0,0c11.394,0,20.631-9.237,20.631-20.632
	C249.631,385.803,240.394,376.566,229,376.566z"/>
<circle style="fill:#60C344;" cx="289.25" cy="397.2" r="20.631"/>
<rect x="147.33" y="143.18" style="fill:#B9EAFF;" width="163.33" height="71.33"/>
<rect x="229" y="143.18" style="fill:#35CCFF;" width="81.67" height="71.33"/>
<g>
</g>
<g>
</g>
<g>
</g>
<g>
</g>
<g>
</g>
<g>
</g>
<g>
</g>
<g>
</g>
<g>
</g>
<g>
</g>
<g>
</g>
<g>
</g>
<g>
</g>
<g>
</g>
<g>
</g>
</svg>
