<?xml version="1.0" encoding="iso-8859-1"?>
<!-- Generator: Adobe Illustrator 19.0.0, SVG Export Plug-In . SVG Version: 6.00 Build 0)  -->
<svg version="1.1" id="Capa_1" xmlns="http://www.w3.org/2000/svg" xmlns:xlink="http://www.w3.org/1999/xlink" x="0px" y="0px"
	 viewBox="0 0 512.001 512.001" style="enable-background:new 0 0 512.001 512.001;" xml:space="preserve">
<circle style="fill:#662E57;" cx="256.001" cy="256" r="256"/>
<path style="fill:#590F38;" d="M512,256c0-7.492-0.341-14.903-0.972-22.232L410.001,132.74l-308,135.659l119.665,119.666
	l-57.069,36.704l87.178,87.178c1.407,0.023,2.813,0.054,4.226,0.054C397.386,512,512,397.385,512,256z"/>
<rect x="102.001" y="132.74" style="fill:#E0E0E0;" width="308" height="135.66"/>
<rect x="255.671" y="132.74" style="fill:#C0C0C0;" width="154.33" height="135.66"/>
<path style="fill:#FF6838;" d="M179.297,144.527l153.407-0.001c10.039,0,18.177,8.138,18.177,18.177l0.001,251.38
	c0,10.039-8.138,18.177-18.176,18.177l-153.407,0.001c-10.039,0-18.177-8.138-18.177-18.177l-0.001-251.38
	C161.121,152.665,169.258,144.527,179.297,144.527z"/>
<path style="fill:#AE4E32;" d="M350.88,162.703c0-10.039-8.138-18.177-18.177-18.177h-77.036V432.26h77.037
	c10.039,0,18.176-8.138,18.176-18.177V162.703z"/>
<rect x="200.311" y="144.53" style="fill:#333333;" width="46.41" height="287.73"/>
<rect x="102.001" y="132.74" style="fill:#C0C0C0;" width="308" height="53.888"/>
<rect x="255.671" y="132.74" style="fill:#758F9B;" width="154.33" height="53.888"/>
<g>
</g>
<g>
</g>
<g>
</g>
<g>
</g>
<g>
</g>
<g>
</g>
<g>
</g>
<g>
</g>
<g>
</g>
<g>
</g>
<g>
</g>
<g>
</g>
<g>
</g>
<g>
</g>
<g>
</g>
</svg>
