<?xml version="1.0" encoding="iso-8859-1"?>
<!-- Generator: Adobe Illustrator 19.0.0, SVG Export Plug-In . SVG Version: 6.00 Build 0)  -->
<svg version="1.1" id="Capa_1" xmlns="http://www.w3.org/2000/svg" xmlns:xlink="http://www.w3.org/1999/xlink" x="0px" y="0px"
	 viewBox="0 0 512 512" style="enable-background:new 0 0 512 512;" xml:space="preserve">
<circle style="fill:#00BAFF;" cx="256" cy="256" r="256"/>
<path style="fill:#008CC3;" d="M511.975,257.986l-95.909-95.91l-6.802,4.52L374.667,132L95.935,382.642L223.21,509.917
	C233.947,511.29,244.89,512,256,512C396.721,512,510.905,398.455,511.975,257.986z"/>
<polygon style="fill:#FFFFFF;" points="329.333,86.667 137.333,86.667 137.333,314.901 374.667,314.901 374.667,132 "/>
<polygon style="fill:#E0E0E0;" points="374.667,132 329.333,86.667 255.667,86.667 255.667,314.901 374.667,314.901 "/>
<polygon style="fill:#C0C0C0;" points="329.333,132 374.667,132 329.333,86.667 "/>
<polygon style="fill:#FFDC00;" points="416.065,382.642 95.935,382.642 95.935,129.358 172.653,129.358 198.602,162.076 
	416.065,162.076 "/>
<rect x="255.67" y="162.08" style="fill:#FFC000;" width="160.4" height="220.57"/>
<path style="fill:#FF6838;" d="M269.216,260.299h-0.823v-29.816h28.123v-24.786h-28.123v-22.748h-24.786v22.748h-0.823
	c-21.887,0-39.693,17.807-39.693,39.694c0,21.888,17.806,39.694,39.693,39.694h0.823v29.816h-28.123v24.786h28.123v22.748h24.786
	v-22.748h0.823c21.887,0,39.693-17.807,39.693-39.694C308.909,278.106,291.103,260.299,269.216,260.299z M242.784,260.299
	c-8.22,0-14.907-6.688-14.907-14.908s6.687-14.908,14.907-14.908h0.823v29.816H242.784z M269.216,314.901h-0.823v-29.816h0.823
	c8.22,0,14.907,6.687,14.907,14.908S277.437,314.901,269.216,314.901z"/>
<path style="fill:#AE4E32;" d="M269.216,260.299h-0.823v-29.816h28.123v-24.786h-28.123v-22.748h-12.726v179.485h12.726v-22.748
	h0.823c21.887,0,39.693-17.807,39.693-39.694C308.909,278.105,291.103,260.299,269.216,260.299z M269.216,314.901h-0.823v-29.816
	h0.823c8.22,0,14.907,6.688,14.907,14.908S277.437,314.901,269.216,314.901z"/>
<g>
</g>
<g>
</g>
<g>
</g>
<g>
</g>
<g>
</g>
<g>
</g>
<g>
</g>
<g>
</g>
<g>
</g>
<g>
</g>
<g>
</g>
<g>
</g>
<g>
</g>
<g>
</g>
<g>
</g>
</svg>
