<?xml version="1.0" encoding="iso-8859-1"?>
<!-- Generator: Adobe Illustrator 19.0.0, SVG Export Plug-In . SVG Version: 6.00 Build 0)  -->
<svg version="1.1" id="Capa_1" xmlns="http://www.w3.org/2000/svg" xmlns:xlink="http://www.w3.org/1999/xlink" x="0px" y="0px"
	 viewBox="0 0 512 512" style="enable-background:new 0 0 512 512;" xml:space="preserve">
<circle style="fill:#005C83;" cx="256" cy="256" r="256"/>
<path style="fill:#00263F;" d="M512,256c0-7.83-0.372-15.572-1.06-23.223l-72.538-72.538L73.598,351.761L232.777,510.94
	C240.428,511.628,248.17,512,256,512C397.385,512,512,397.385,512,256z"/>
<rect x="73.6" y="160.24" style="fill:#D9E021;" width="364.81" height="191.52"/>
<rect x="255.67" y="160.24" style="fill:#8CC63F;" width="182.74" height="191.52"/>
<path style="fill:#60C344;" d="M418.135,298.561V213.44c-18.469,0-33.44-14.972-33.44-33.44h-257.39
	c0,18.469-14.972,33.44-33.44,33.44v85.121c18.469,0,33.44,14.972,33.44,33.44h257.39
	C384.695,313.532,399.667,298.561,418.135,298.561z"/>
<path style="fill:#47AB4B;" d="M384.695,179.999H255.667v152.002h129.028c0-18.469,14.972-33.44,33.44-33.44V213.44
	C399.667,213.439,384.695,198.468,384.695,179.999z"/>
<ellipse style="fill:#D9E021;" cx="256" cy="256" rx="33.947" ry="58.01"/>
<path style="fill:#8CC63F;" d="M256,197.986c-0.112,0-0.222,0.013-0.333,0.014v116c0.112,0.002,0.221,0.015,0.333,0.015
	c18.748,0,33.947-25.974,33.947-58.014S274.748,197.986,256,197.986z"/>
<path style="fill:#FFFFFF;" d="M402.081,300.53h-20v-45.488c0-17.768-14.455-32.222-32.222-32.222s-32.222,14.455-32.222,32.222
	v45.488h-20v-45.488c0-28.795,23.427-52.222,52.222-52.222s52.222,23.427,52.222,52.222V300.53z"/>
<path style="fill:#E0E0E0;" d="M349.859,202.82c-0.288,0-0.572,0.017-0.859,0.022v20c0.286-0.008,0.571-0.022,0.859-0.022
	c17.768,0,32.222,14.455,32.222,32.222v45.488h20v-45.488C402.081,226.247,378.654,202.82,349.859,202.82z"/>
<rect x="287.81" y="283.74" style="fill:#FF6838;" width="124.1" height="99.37"/>
<rect x="349" y="283.73" style="fill:#AE4E32;" width="62.909" height="99.37"/>
<g>
</g>
<g>
</g>
<g>
</g>
<g>
</g>
<g>
</g>
<g>
</g>
<g>
</g>
<g>
</g>
<g>
</g>
<g>
</g>
<g>
</g>
<g>
</g>
<g>
</g>
<g>
</g>
<g>
</g>
</svg>
