<?xml version="1.0" encoding="iso-8859-1"?>
<!-- Generator: Adobe Illustrator 19.0.0, SVG Export Plug-In . SVG Version: 6.00 Build 0)  -->
<svg version="1.1" id="Capa_1" xmlns="http://www.w3.org/2000/svg" xmlns:xlink="http://www.w3.org/1999/xlink" x="0px" y="0px"
	 viewBox="0 0 512 512" style="enable-background:new 0 0 512 512;" xml:space="preserve">
<circle style="fill:#662E57;" cx="256" cy="256" r="256"/>
<path style="fill:#590F38;" d="M511.32,274.653L374.667,138L77,356.096l48.9,48.9l-39.57,14.337l74.294,74.294
	C190.102,505.47,222.287,512,256,512C391.111,512,501.764,407.328,511.32,274.653z"/>
<polygon style="fill:#FFFFFF;" points="329.333,92.667 137.333,92.667 137.333,419.333 374.667,419.333 374.667,138 "/>
<polygon style="fill:#E0E0E0;" points="374.667,138 329.333,92.667 256.273,92.667 256.273,419.333 374.667,419.333 "/>
<polygon style="fill:#C0C0C0;" points="329.333,138 374.667,138 329.333,92.667 "/>
<rect x="242.05" y="201.2" style="fill:#333333;" width="185.76" height="225.63"/>
<rect x="332.32" y="201.2" style="fill:#1A1A1A;" width="95.5" height="225.63"/>
<rect x="254.9" y="214.45" style="fill:#B9EAFF;" width="160.08" height="48.551"/>
<rect x="332.32" y="214.45" style="fill:#35CCFF;" width="82.66" height="48.551"/>
<g>
	<circle style="fill:#808080;" cx="270.93" cy="297.85" r="14.1"/>
	<circle style="fill:#808080;" cx="312.09" cy="297.85" r="14.1"/>
</g>
<circle style="fill:#666666;" cx="353.25" cy="297.85" r="14.1"/>
<g>
	<circle style="fill:#808080;" cx="270.93" cy="344.47" r="14.1"/>
	<circle style="fill:#808080;" cx="312.09" cy="344.47" r="14.1"/>
</g>
<circle style="fill:#666666;" cx="353.25" cy="344.47" r="14.1"/>
<g>
	<circle style="fill:#808080;" cx="270.93" cy="391.08" r="14.1"/>
	<circle style="fill:#808080;" cx="312.09" cy="391.08" r="14.1"/>
</g>
<circle style="fill:#666666;" cx="353.25" cy="391.08" r="14.1"/>
<g>
	<circle style="fill:#FF6838;" cx="397.21" cy="297.85" r="14.1"/>
	<circle style="fill:#FF6838;" cx="397.21" cy="344.47" r="14.1"/>
	<circle style="fill:#FF6838;" cx="397.21" cy="391.08" r="14.1"/>
</g>
<rect x="86.33" y="387.71" style="fill:#FFDC00;" width="120" height="31.619"/>
<rect x="144.15" y="387.71" style="fill:#FFC000;" width="62.17" height="31.619"/>
<rect x="77" y="324.48" style="fill:#FFDC00;" width="120" height="31.619"/>
<rect x="144.15" y="324.48" style="fill:#FFC000;" width="52.844" height="31.619"/>
<rect x="98.25" y="356.1" style="fill:#FFB344;" width="120" height="31.619"/>
<rect x="144.15" y="356.1" style="fill:#FF9451;" width="74.1" height="31.619"/>
<rect x="86.33" y="292.86" style="fill:#FFB344;" width="120" height="31.619"/>
<rect x="144.15" y="292.86" style="fill:#FF9451;" width="62.17" height="31.619"/>
<g>
</g>
<g>
</g>
<g>
</g>
<g>
</g>
<g>
</g>
<g>
</g>
<g>
</g>
<g>
</g>
<g>
</g>
<g>
</g>
<g>
</g>
<g>
</g>
<g>
</g>
<g>
</g>
<g>
</g>
</svg>
