<?xml version="1.0" encoding="iso-8859-1"?>
<!-- Generator: Adobe Illustrator 19.0.0, SVG Export Plug-In . SVG Version: 6.00 Build 0)  -->
<svg version="1.1" id="Capa_1" xmlns="http://www.w3.org/2000/svg" xmlns:xlink="http://www.w3.org/1999/xlink" x="0px" y="0px"
	 viewBox="0 0 512 512" style="enable-background:new 0 0 512 512;" xml:space="preserve">
<circle style="fill:#662E57;" cx="256" cy="256" r="256"/>
<path style="fill:#590F38;" d="M512,256c0-7.492-0.341-14.903-0.972-22.232L410,132.74L102,268.399l121.804,121.804l-68.924,35.174
	l86.178,86.178C246.004,511.84,250.983,512,256,512C397.385,512,512,397.385,512,256z"/>
<rect x="102" y="132.74" style="fill:#E0E0E0;" width="308" height="135.66"/>
<rect x="255.67" y="132.74" style="fill:#C0C0C0;" width="154.33" height="135.66"/>
<rect x="154.88" y="182.3" style="fill:#D9E021;" width="202.24" height="243.08"/>
<rect x="255.67" y="182.3" style="fill:#8CC63F;" width="101.45" height="243.08"/>
<path style="fill:#60C344;" d="M175.746,182.296v186.368c19.502,0,35.312,15.81,35.312,35.312h89.885
	c0-19.502,15.809-35.312,35.312-35.312V182.296H175.746z"/>
<path style="fill:#47AB4B;" d="M255.667,182.296v221.68h45.276c0-19.502,15.809-35.312,35.312-35.312V182.296H255.667z"/>
<ellipse style="fill:#D9E021;" cx="256" cy="232.77" rx="61.26" ry="35.847"/>
<path style="fill:#8CC63F;" d="M256,196.922c-0.112,0-0.222,0.004-0.333,0.005v71.683c0.112,0,0.221,0.005,0.333,0.005
	c33.833,0,61.26-16.049,61.26-35.846S289.833,196.922,256,196.922z"/>
<rect x="102" y="132.74" style="fill:#C0C0C0;" width="308" height="53.888"/>
<rect x="255.67" y="132.74" style="fill:#758F9B;" width="154.33" height="53.888"/>
<g>
</g>
<g>
</g>
<g>
</g>
<g>
</g>
<g>
</g>
<g>
</g>
<g>
</g>
<g>
</g>
<g>
</g>
<g>
</g>
<g>
</g>
<g>
</g>
<g>
</g>
<g>
</g>
<g>
</g>
</svg>
