<?xml version="1.0" encoding="iso-8859-1"?>
<!-- Generator: Adobe Illustrator 19.0.0, SVG Export Plug-In . SVG Version: 6.00 Build 0)  -->
<svg version="1.1" id="Capa_1" xmlns="http://www.w3.org/2000/svg" xmlns:xlink="http://www.w3.org/1999/xlink" x="0px" y="0px"
	 viewBox="0 0 512 512" style="enable-background:new 0 0 512 512;" xml:space="preserve">
<circle style="fill:#FF6838;" cx="256" cy="256" r="256"/>
<path style="fill:#AE4E32;" d="M82,307.393L284.967,510.36C412.711,495.97,512,387.589,512,256c0-16.654-1.609-32.93-4.646-48.697
	l-80.801-80.801L82,307.393z"/>
<rect x="82" y="126.5" style="fill:#D9E021;" width="344.55" height="180.89"/>
<rect x="256.55" y="126.5" style="fill:#8CC63F;" width="170" height="180.89"/>
<path style="fill:#60C344;" d="M407.411,257.145V176.75c-17.443,0-31.584-14.141-31.584-31.584H132.726
	c0,17.443-14.141,31.584-31.584,31.584v80.396c17.443,0,31.584,14.141,31.584,31.584h243.101
	C375.827,271.286,389.968,257.145,407.411,257.145z"/>
<path style="fill:#47AB4B;" d="M375.827,145.166h-119.28V288.73h119.28c0-17.443,14.141-31.584,31.584-31.584V176.75
	C389.968,176.75,375.827,162.609,375.827,145.166z"/>
<ellipse style="fill:#D9E021;" cx="254.28" cy="216.95" rx="32.06" ry="54.793"/>
<path style="fill:#8CC63F;" d="M286.339,216.947c0-28.955-13.145-52.648-29.792-54.641v109.283
	C273.194,269.596,286.339,245.903,286.339,216.947z"/>
<rect x="299" y="332.91" style="fill:#4D4D4D;" width="56" height="100.39"/>
<rect x="326.19" y="332.91" style="fill:#333333;" width="28.81" height="100.39"/>
<circle style="fill:#B9EAFF;" cx="327" cy="243.31" r="89.61"/>
<path style="fill:#35CCFF;" d="M327,153.695c-0.271,0-0.539,0.008-0.81,0.01v179.198c0.27,0.002,0.539,0.01,0.81,0.01
	c49.49,0,89.609-40.119,89.609-89.609S376.49,153.695,327,153.695z"/>
<path style="fill:#333333;" d="M327,345.914c-56.579,0-102.609-46.03-102.609-102.609S270.421,140.696,327,140.696
	s102.609,46.03,102.609,102.609C429.609,299.883,383.579,345.914,327,345.914z M327,166.695c-42.242,0-76.609,34.367-76.609,76.609
	s34.367,76.609,76.609,76.609s76.609-34.367,76.609-76.609S369.242,166.695,327,166.695z"/>
<path style="fill:#1A1A1A;" d="M327,140.695c-0.271,0-0.539,0.008-0.81,0.01v26.01c0.271-0.003,0.538-0.021,0.81-0.021
	c42.242,0,76.609,34.367,76.609,76.609S369.242,319.914,327,319.914c-0.271,0-0.539-0.018-0.81-0.021v26.01
	c0.27,0.002,0.539,0.01,0.81,0.01c56.579,0,102.609-46.03,102.609-102.609C429.609,186.726,383.579,140.695,327,140.695z"/>
<g>
</g>
<g>
</g>
<g>
</g>
<g>
</g>
<g>
</g>
<g>
</g>
<g>
</g>
<g>
</g>
<g>
</g>
<g>
</g>
<g>
</g>
<g>
</g>
<g>
</g>
<g>
</g>
<g>
</g>
</svg>
