<?xml version="1.0" encoding="iso-8859-1"?>
<!-- Generator: Adobe Illustrator 19.0.0, SVG Export Plug-In . SVG Version: 6.00 Build 0)  -->
<svg version="1.1" id="Capa_1" xmlns="http://www.w3.org/2000/svg" xmlns:xlink="http://www.w3.org/1999/xlink" x="0px" y="0px"
	 viewBox="0 0 512 512" style="enable-background:new 0 0 512 512;" xml:space="preserve">
<circle style="fill:#005C83;" cx="256" cy="256" r="256"/>
<path style="fill:#00263F;" d="M261.674,511.928C400.437,508.91,512,395.488,512,256c0-0.438-0.014-0.872-0.017-1.309
	L354.848,97.555l-2.538,21.548l-54.448-54.448L115.29,170.063l151.36,153.485l-108.747,84.609L261.674,511.928z"/>
<path style="fill:#FF6838;" d="M396.71,235.864l-26.631-15.375c0.874-5.73,1.468-11.552,1.468-17.525
	c0-5.974-0.594-11.797-1.468-17.526l26.631-15.375l-41.862-72.508l-26.564,15.336c-9.107-7.317-19.356-13.228-30.422-17.536v-30.7
	h-83.724v30.7c-11.066,4.309-21.315,10.219-30.422,17.536l-26.564-15.336l-41.862,72.508l26.631,15.375
	c-0.874,5.729-1.468,11.552-1.468,17.526c0,5.973,0.594,11.795,1.468,17.525l-26.631,15.375l18.612,32.236h244.197L396.71,235.864z
	 M255.999,253.387c-27.847,0-50.423-22.575-50.423-50.422c0-27.848,22.575-50.423,50.423-50.423s50.423,22.575,50.423,50.423
	S283.847,253.389,255.999,253.387z"/>
<path style="fill:#AE4E32;" d="M371.548,202.964c0-5.974-0.594-11.796-1.469-17.526l26.631-15.375l-41.862-72.508l-26.564,15.336
	c-9.107-7.317-19.356-13.228-30.422-17.536v-30.7h-42.196v87.896c0.111-0.001,0.221-0.008,0.332-0.008
	c27.848,0,50.423,22.575,50.423,50.423s-22.575,50.423-50.423,50.422c-0.111,0-0.221-0.008-0.332-0.009v14.722h122.432
	l18.612-32.236l-26.631-15.375C370.954,214.759,371.548,208.937,371.548,202.964z"/>
<circle style="fill:#FFDC00;" cx="256" cy="311.8" r="137.51"/>
<path style="fill:#FFC000;" d="M256,174.283c-0.111,0-0.222,0.004-0.333,0.004v275.017c0.111,0,0.222,0.004,0.333,0.004
	c75.946,0,137.513-61.567,137.513-137.513S331.946,174.283,256,174.283z"/>
<path style="fill:#FF6838;" d="M269.216,299.403h-0.823v-29.816h28.123v-24.786h-28.123v-22.748h-24.786v22.748h-0.823
	c-21.887,0-39.693,17.807-39.693,39.694c0,21.888,17.806,39.694,39.693,39.694h0.823v29.816h-28.123v24.786h28.123v22.748h24.786
	v-22.748h0.823c21.887,0,39.693-17.807,39.693-39.694C308.909,317.21,291.103,299.403,269.216,299.403z M242.784,299.403
	c-8.22,0-14.907-6.688-14.907-14.908s6.687-14.908,14.907-14.908h0.823v29.816L242.784,299.403L242.784,299.403z M269.216,354.005
	h-0.823v-29.816h0.823c8.22,0,14.907,6.687,14.907,14.908C284.123,347.317,277.437,354.005,269.216,354.005z"/>
<path style="fill:#AE4E32;" d="M269.216,299.403h-0.823v-29.816h28.123v-24.786h-28.123v-22.748h-12.726v179.486h12.726v-22.748
	h0.823c21.887,0,39.693-17.806,39.693-39.694C308.909,317.21,291.103,299.403,269.216,299.403z M269.216,354.005h-0.823v-29.816
	h0.823c8.22,0,14.907,6.687,14.907,14.908S277.437,354.005,269.216,354.005z"/>
<g>
</g>
<g>
</g>
<g>
</g>
<g>
</g>
<g>
</g>
<g>
</g>
<g>
</g>
<g>
</g>
<g>
</g>
<g>
</g>
<g>
</g>
<g>
</g>
<g>
</g>
<g>
</g>
<g>
</g>
</svg>
