<?xml version="1.0" encoding="iso-8859-1"?>
<!-- Generator: Adobe Illustrator 19.0.0, SVG Export Plug-In . SVG Version: 6.00 Build 0)  -->
<svg version="1.1" id="Capa_1" xmlns="http://www.w3.org/2000/svg" xmlns:xlink="http://www.w3.org/1999/xlink" x="0px" y="0px"
	 viewBox="0 0 512 512" style="enable-background:new 0 0 512 512;" xml:space="preserve">
<circle style="fill:#662E57;" cx="256" cy="256" r="256"/>
<path style="fill:#590F38;" d="M510.142,286.864L319.298,96.021L197.575,210.242l63.434,63.434l-108.842,58.952l80.959,80.959
	l-66.419,17.589l80.662,80.662C250.236,511.935,253.11,512,256,512C386.937,512,494.899,413.693,510.142,286.864z"/>
<g>
	<polygon style="fill:#FFDC00;" points="339.167,332.628 339.167,283.354 353.707,283.354 353.707,234.08 256,234.08 
		166.707,234.08 166.707,283.354 152.167,283.354 152.167,332.628 185.285,332.628 185.285,381.903 166.707,381.903 
		166.707,431.177 353.707,431.177 353.707,381.903 372.285,381.903 372.285,332.628 	"/>
	<rect x="166.71" y="381.9" style="fill:#FFDC00;" width="187" height="49.27"/>
</g>
<rect x="255.67" y="381.9" style="fill:#FFC000;" width="98.04" height="49.27"/>
<rect x="152.17" y="283.35" style="fill:#FFDC00;" width="187" height="49.27"/>
<rect x="255.67" y="283.35" style="fill:#FFC000;" width="83.5" height="49.27"/>
<rect x="185.28" y="332.63" style="fill:#FFB344;" width="187" height="49.27"/>
<rect x="255.67" y="332.63" style="fill:#FF9451;" width="116.62" height="49.27"/>
<rect x="166.71" y="234.08" style="fill:#FFB344;" width="187" height="49.27"/>
<rect x="255.67" y="234.08" style="fill:#FF9451;" width="98.04" height="49.27"/>
<circle style="fill:#FFDC00;" cx="256" cy="150.54" r="83.54"/>
<path style="fill:#FFC000;" d="M256,67c-0.112,0-0.222,0.008-0.333,0.008v167.063c0.112,0,0.221,0.009,0.333,0.009
	c46.138,0,83.54-37.402,83.54-83.54S302.138,67,256,67z"/>
<path style="fill:#FF6838;" d="M264.029,143.011h-0.5v-18.113h17.085V109.84h-17.085V96.021h-15.058v13.819h-0.5
	c-13.296,0-24.114,10.818-24.114,24.114c0,13.297,10.817,24.114,24.114,24.114h0.5v18.113h-17.085v15.058h17.085v13.819h15.058
	V191.24h0.5c13.296,0,24.114-10.818,24.114-24.114C288.143,153.829,277.325,143.011,264.029,143.011z M247.971,143.011
	c-4.994,0-9.056-4.063-9.056-9.057s4.062-9.057,9.056-9.057h0.5v18.113h-0.5V143.011z M264.029,176.182h-0.5v-18.113h0.5
	c4.994,0,9.056,4.063,9.056,9.057S269.023,176.182,264.029,176.182z"/>
<path style="fill:#AE4E32;" d="M264.029,143.011h-0.5v-18.113h17.085V109.84h-17.085V96.021h-7.862V205.06h7.862v-13.82h0.5
	c13.296,0,24.114-10.818,24.114-24.115C288.143,153.829,277.325,143.011,264.029,143.011z M264.029,176.182h-0.5v-18.113h0.5
	c4.994,0,9.056,4.063,9.056,9.056S269.023,176.182,264.029,176.182z"/>
<g>
</g>
<g>
</g>
<g>
</g>
<g>
</g>
<g>
</g>
<g>
</g>
<g>
</g>
<g>
</g>
<g>
</g>
<g>
</g>
<g>
</g>
<g>
</g>
<g>
</g>
<g>
</g>
<g>
</g>
</svg>
