<?xml version="1.0" encoding="iso-8859-1"?>
<!-- Generator: Adobe Illustrator 19.0.0, SVG Export Plug-In . SVG Version: 6.00 Build 0)  -->
<svg version="1.1" id="Capa_1" xmlns="http://www.w3.org/2000/svg" xmlns:xlink="http://www.w3.org/1999/xlink" x="0px" y="0px"
	 viewBox="0 0 512 512" style="enable-background:new 0 0 512 512;" xml:space="preserve">
<circle style="fill:#662E57;" cx="256" cy="256" r="256"/>
<path style="fill:#590F38;" d="M502.336,325.905l-63.446-63.446l-3.175,3.655l-65.613-65.613l-2.283,4.547l-66.505-66.505
	L49.636,324.417l186.848,186.847C242.926,511.75,249.434,512,256,512C373.149,512,471.917,433.311,502.336,325.905z"/>
<path style="fill:#FFCF35;" d="M438.891,262.46h-45.315l-23.473-61.958h-45.315l-23.473-61.958h-90.63l-23.473,61.958h-45.315
	l-23.473,61.958H73.109l-23.473,61.958h137.576l-23.473-61.958h46.946l-23.473,61.958h137.576l-23.473-61.958h46.946l-23.473,61.958
	h137.576L438.891,262.46z M232.527,200.502h46.945L256,262.46L232.527,200.502z"/>
<g>
	<polygon style="fill:#FFDC00;" points="187.212,324.418 49.636,324.418 73.109,262.46 163.739,262.46 	"/>
	<polygon style="fill:#FFDC00;" points="324.788,324.418 187.212,324.418 210.685,262.46 301.315,262.46 	"/>
</g>
<polygon style="fill:#FFC000;" points="301.315,262.46 255.667,262.46 255.667,324.417 324.788,324.417 "/>
<polygon style="fill:#FFDC00;" points="324.788,200.502 187.212,200.502 210.685,138.544 301.315,138.544 "/>
<g>
	<polygon style="fill:#FFC000;" points="301.315,138.544 255.667,138.544 255.667,200.502 324.788,200.502 	"/>
	<polygon style="fill:#FFC000;" points="462.364,324.418 324.788,324.418 348.261,262.46 438.891,262.46 	"/>
</g>
<polygon style="fill:#FFECB3;" points="256,262.46 118.424,262.46 141.897,200.502 232.527,200.502 "/>
<polygon style="fill:#FFD863;" points="393.576,262.46 256,262.46 279.473,200.502 370.103,200.502 "/>
<g>
</g>
<g>
</g>
<g>
</g>
<g>
</g>
<g>
</g>
<g>
</g>
<g>
</g>
<g>
</g>
<g>
</g>
<g>
</g>
<g>
</g>
<g>
</g>
<g>
</g>
<g>
</g>
<g>
</g>
</svg>
