<?xml version="1.0" encoding="iso-8859-1"?>
<!-- Generator: Adobe Illustrator 19.0.0, SVG Export Plug-In . SVG Version: 6.00 Build 0)  -->
<svg version="1.1" id="Capa_1" xmlns="http://www.w3.org/2000/svg" xmlns:xlink="http://www.w3.org/1999/xlink" x="0px" y="0px"
	 viewBox="0 0 512 512" style="enable-background:new 0 0 512 512;" xml:space="preserve">
<circle style="fill:#FFDC00;" cx="256" cy="256" r="256"/>
<path style="fill:#FFC000;" d="M509.157,294.222l-67.499-67.499l-3.212,4.934l-98.678-98.678l-10.722,16.679L272.579,93.19
	L97.667,215.652L231.09,349.075l-58.858,84.33l78.529,78.529c1.743,0.035,3.488,0.066,5.24,0.066
	C384.395,512,490.705,417.476,509.157,294.222z"/>
<rect x="172.23" y="132.98" style="fill:#333333;" width="167.54" height="300.43"/>
<rect x="255.67" y="132.98" style="fill:#1A1A1A;" width="84.1" height="300.43"/>
<rect x="186.27" y="147.67" style="fill:#B9EAFF;" width="139.47" height="254.37"/>
<rect x="255.67" y="147.67" style="fill:#35CCFF;" width="70.07" height="254.37"/>
<polygon style="fill:#00BAFF;" points="272.579,93.19 97.667,93.19 97.667,215.652 196.583,215.652 240.009,259.078 
	240.009,215.652 272.579,215.652 "/>
<polygon style="fill:#008CC3;" points="181.727,93.19 181.727,215.652 196.583,215.652 240.009,259.078 240.009,215.652 
	272.579,215.652 272.579,93.19 "/>
<polygon style="fill:#47AB4B;" points="266.746,226.723 441.658,226.723 441.658,349.184 342.742,349.184 299.316,392.611 
	299.316,349.184 266.746,349.184 "/>
<rect x="353.85" y="226.72" style="fill:#2B9153;" width="87.81" height="122.46"/>
<path style="fill:#FFFFFF;" d="M360.975,279.394h-0.422v-15.28h14.413v-12.703h-14.413v-11.658h-12.702v11.658h-0.422
	c-11.217,0-20.342,9.126-20.342,20.343c0,11.217,9.126,20.343,20.342,20.343h0.422v15.28h-14.413v12.703h14.413v11.658h12.702
	V320.08h0.422c11.217,0,20.342-9.126,20.342-20.343C381.317,288.52,372.192,279.394,360.975,279.394z M347.429,279.394
	c-4.213,0-7.64-3.427-7.64-7.64s3.427-7.64,7.64-7.64h0.422v15.28L347.429,279.394L347.429,279.394z M360.975,307.377h-0.422v-15.28
	h0.422c4.213,0,7.64,3.427,7.64,7.64C368.615,303.95,365.188,307.377,360.975,307.377z"/>
<path style="fill:#E0E0E0;" d="M360.975,279.394h-0.422v-15.28h14.413v-12.703h-14.413v-11.658h-6.705v91.984h6.705V320.08h0.422
	c11.217,0,20.342-9.125,20.342-20.343C381.318,288.52,372.192,279.394,360.975,279.394z M360.975,307.377h-0.422v-15.28h0.422
	c4.213,0,7.64,3.427,7.64,7.64S365.188,307.377,360.975,307.377z"/>
<g>
</g>
<g>
</g>
<g>
</g>
<g>
</g>
<g>
</g>
<g>
</g>
<g>
</g>
<g>
</g>
<g>
</g>
<g>
</g>
<g>
</g>
<g>
</g>
<g>
</g>
<g>
</g>
<g>
</g>
</svg>
