<?xml version="1.0" encoding="iso-8859-1"?>
<!-- Generator: Adobe Illustrator 19.0.0, SVG Export Plug-In . SVG Version: 6.00 Build 0)  -->
<svg version="1.1" id="Capa_1" xmlns="http://www.w3.org/2000/svg" xmlns:xlink="http://www.w3.org/1999/xlink" x="0px" y="0px"
	 viewBox="0 0 512 512" style="enable-background:new 0 0 512 512;" xml:space="preserve">
<circle style="fill:#662E57;" cx="256" cy="256" r="256"/>
<path style="fill:#590F38;" d="M104.305,275.805l-12.311,47.572L279.53,510.913c129.142-11.771,230.55-119.439,232.424-251.204
	l-89.593-89.593l-2.751,3.496l-26.308-26.308l-13.028,11.323l-44.216-44.216L84.236,246.617l74.049,74.05l-8.761,0.358
	L104.305,275.805z"/>
<rect x="84.24" y="114.41" style="fill:#D9E021;" width="251.82" height="132.21"/>
<rect x="209.52" y="114.41" style="fill:#8CC63F;" width="126.53" height="132.21"/>
<path style="fill:#60C344;" d="M322.068,209.894v-58.758c-12.749,0-23.084-10.335-23.084-23.084H121.31
	c0,12.749-10.335,23.084-23.084,23.084v58.758c12.749,0,23.084,10.335,23.084,23.084h177.674
	C298.984,220.228,309.319,209.894,322.068,209.894z"/>
<path style="fill:#47AB4B;" d="M298.984,128.052h-89.46v104.926h89.46c0-12.749,10.335-23.083,23.084-23.083v-58.758
	C309.319,151.135,298.984,140.8,298.984,128.052z"/>
<ellipse style="fill:#D9E021;" cx="210.15" cy="180.51" rx="23.433" ry="40.05"/>
<path style="fill:#8CC63F;" d="M210.147,140.468c-0.209,0-0.416,0.018-0.623,0.027v80.04c0.208,0.009,0.414,0.027,0.623,0.027
	c12.942,0,23.433-17.93,23.433-40.047C233.581,158.397,223.089,140.468,210.147,140.468z"/>
<rect x="177.41" y="260.38" style="fill:#B9EAFF;" width="251.82" height="132.21"/>
<rect x="303.57" y="260.38" style="fill:#35CCFF;" width="125.67" height="132.21"/>
<rect x="189.08" y="272.17" style="fill:#FFFFFF;" width="63.45" height="106.95"/>
<rect x="203.63" y="280.66" style="fill:#0074A3;" width="48.856" height="22.05"/>
<rect x="321.05" y="272.17" style="fill:#008CC3;" width="94.14" height="106.95"/>
<rect x="252.49" y="272.17" style="fill:#55D6F9;" width="94.14" height="106.95"/>
<rect x="303.57" y="272.17" style="fill:#00BAFF;" width="43.05" height="106.95"/>
<path style="fill:#E0E0E0;" d="M398.065,160.116H380.49l12.812-12.812l-14.142-14.143l-36.955,36.954l36.955,36.955l14.142-14.143
	l-12.812-12.812h17.576c8.041,0,14.582,6.541,14.582,14.582v25.864h20v-25.864C432.647,175.629,417.134,160.116,398.065,160.116z"/>
<path style="fill:#FFFFFF;" d="M137.792,289.296l-14.143,14.143l12.812,12.812h-17.576c-8.041,0-14.582-6.541-14.582-14.582v-25.864
	h-20v25.864c0,19.068,15.513,34.582,34.582,34.582h17.576l-12.812,12.812l14.142,14.143l36.955-36.954L137.792,289.296z"/>
<g>
</g>
<g>
</g>
<g>
</g>
<g>
</g>
<g>
</g>
<g>
</g>
<g>
</g>
<g>
</g>
<g>
</g>
<g>
</g>
<g>
</g>
<g>
</g>
<g>
</g>
<g>
</g>
<g>
</g>
</svg>
