<?xml version="1.0" encoding="iso-8859-1"?>
<!-- Generator: Adobe Illustrator 19.0.0, SVG Export Plug-In . SVG Version: 6.00 Build 0)  -->
<svg version="1.1" id="Capa_1" xmlns="http://www.w3.org/2000/svg" xmlns:xlink="http://www.w3.org/1999/xlink" x="0px" y="0px"
	 viewBox="0 0 512 512" style="enable-background:new 0 0 512 512;" xml:space="preserve">
<circle style="fill:#005C83;" cx="256" cy="256" r="256"/>
<path style="fill:#00263F;" d="M511.32,274.653L374.667,138L83.563,368.286l29.544,29.544l-10.324,4.572l105.054,105.054
	C223.438,510.427,239.534,512,256,512C391.111,512,501.764,407.328,511.32,274.653z"/>
<polygon style="fill:#FFFFFF;" points="329.333,92.667 137.333,92.667 137.333,419.333 374.667,419.333 374.667,138 "/>
<polygon style="fill:#E0E0E0;" points="374.667,138 329.333,92.667 255.952,92.667 255.952,419.333 374.667,419.333 "/>
<polygon style="fill:#C0C0C0;" points="329.333,138 374.667,138 329.333,92.667 "/>
<rect x="102.78" y="359.3" style="fill:#333333;" width="211.42" height="43.1"/>
<rect x="201.79" y="359.3" style="fill:#1A1A1A;" width="112.42" height="43.1"/>
<path style="fill:#FFDC00;" d="M249.939,169.022c0-26.005-21.976-46.877-48.37-45.057c-22.514,1.552-40.651,19.965-41.895,42.498
	c-0.47,8.513,1.421,16.545,5.077,23.507c8.504,16.196,12.391,34.421,12.391,52.715v83.464h55.259v-85.6
	c0-17.891,4.744-35.324,12.769-51.314C248.221,183.154,249.939,176.289,249.939,169.022z"/>
<path style="fill:#FFC000;" d="M201.786,123.955v202.193h30.615v-85.6c0-17.891,4.744-35.323,12.769-51.314
	c3.052-6.08,4.77-12.945,4.77-20.212C249.939,143.089,228.083,122.265,201.786,123.955z"/>
<rect x="83.56" y="287" style="fill:#FFB344;" width="249.87" height="81.29"/>
<rect x="201.79" y="287" style="fill:#FF9451;" width="131.64" height="81.29"/>
<g>
</g>
<g>
</g>
<g>
</g>
<g>
</g>
<g>
</g>
<g>
</g>
<g>
</g>
<g>
</g>
<g>
</g>
<g>
</g>
<g>
</g>
<g>
</g>
<g>
</g>
<g>
</g>
<g>
</g>
</svg>
