<?xml version="1.0" encoding="iso-8859-1"?>
<!-- Generator: Adobe Illustrator 19.0.0, SVG Export Plug-In . SVG Version: 6.00 Build 0)  -->
<svg version="1.1" id="Capa_1" xmlns="http://www.w3.org/2000/svg" xmlns:xlink="http://www.w3.org/1999/xlink" x="0px" y="0px"
	 viewBox="0 0 512 512" style="enable-background:new 0 0 512 512;" xml:space="preserve">
<circle style="fill:#00BAFF;" cx="256" cy="256" r="256"/>
<path style="fill:#008CC3;" d="M512,256c0-3.687-0.096-7.351-0.25-11.001L351.5,84.75L70,356.5l153.449,153.449
	C234.109,511.302,244.973,512,256,512C397.385,512,512,397.385,512,256z"/>
<rect x="70" y="167.5" style="fill:#D9E021;" width="360" height="189"/>
<rect x="255.95" y="167.5" style="fill:#8CC63F;" width="174.05" height="189"/>
<path style="fill:#60C344;" d="M410,304v-84c-18.225,0-33-14.775-33-33H123c0,18.225-14.775,33-33,33v84c18.225,0,33,14.775,33,33
	h254C377,318.775,391.775,304,410,304z"/>
<path style="fill:#47AB4B;" d="M377,187H255.952v150H377c0-18.225,14.775-33,33-33v-84C391.775,220,377,205.225,377,187z"/>
<ellipse style="fill:#D9E021;" cx="250" cy="262" rx="33.5" ry="57.25"/>
<rect x="160.5" y="84.75" style="fill:#333333;" width="191" height="342.5"/>
<rect x="255.95" y="84.75" style="fill:#1A1A1A;" width="95.55" height="342.5"/>
<rect x="176.5" y="101.5" style="fill:#B9EAFF;" width="159" height="290"/>
<rect x="255.95" y="101.5" style="fill:#35CCFF;" width="79.55" height="290"/>
<path style="fill:#FF6838;" d="M305.583,326.333h-99.167c-6.489,0-11.75-5.261-11.75-11.75v-162.5c0-6.489,5.261-11.75,11.75-11.75
	h99.167c6.489,0,11.75,5.261,11.75,11.75v162.5C317.333,321.073,312.073,326.333,305.583,326.333z"/>
<path style="fill:#AE4E32;" d="M305.583,140.333h-49.631v186h49.631c6.489,0,11.75-5.261,11.75-11.75v-162.5
	C317.333,145.594,312.073,140.333,305.583,140.333z"/>
<rect x="262" y="140.33" style="fill:#333333;" width="30" height="186"/>
<g>
</g>
<g>
</g>
<g>
</g>
<g>
</g>
<g>
</g>
<g>
</g>
<g>
</g>
<g>
</g>
<g>
</g>
<g>
</g>
<g>
</g>
<g>
</g>
<g>
</g>
<g>
</g>
<g>
</g>
</svg>
