<?xml version="1.0" encoding="iso-8859-1"?>
<!-- Generator: Adobe Illustrator 19.0.0, SVG Export Plug-In . SVG Version: 6.00 Build 0)  -->
<svg version="1.1" id="Capa_1" xmlns="http://www.w3.org/2000/svg" xmlns:xlink="http://www.w3.org/1999/xlink" x="0px" y="0px"
	 viewBox="0 0 512 512" style="enable-background:new 0 0 512 512;" xml:space="preserve">
<circle style="fill:#FFDC00;" cx="256" cy="256" r="256"/>
<path style="fill:#FFC000;" d="M512,256c0-13.379-1.031-26.517-3.009-39.342L388,95.667L124,416.333l92.658,92.658
	C229.483,510.97,242.621,512,256,512C397.385,512,512,397.385,512,256z"/>
<rect x="124" y="95.67" style="fill:#333333;" width="264" height="320.67"/>
<rect x="252.75" y="95.67" style="fill:#1A1A1A;" width="135.25" height="320.67"/>
<g>
	<rect x="142.25" y="114.5" style="fill:#B9EAFF;" width="227.5" height="69"/>
	<rect x="142.25" y="114.5" style="fill:#B9EAFF;" width="113.7" height="69"/>
</g>
<rect x="252.75" y="114.5" style="fill:#35CCFF;" width="117" height="69"/>
<g>
	<circle style="fill:#808080;" cx="165.03" cy="233.03" r="20.03"/>
	<circle style="fill:#808080;" cx="223.53" cy="233.03" r="20.03"/>
</g>
<circle style="fill:#666666;" cx="282.03" cy="233.03" r="20.03"/>
<g>
	<circle style="fill:#808080;" cx="165.03" cy="299.28" r="20.03"/>
	<circle style="fill:#808080;" cx="223.53" cy="299.28" r="20.03"/>
</g>
<circle style="fill:#666666;" cx="282.03" cy="299.28" r="20.03"/>
<g>
	<circle style="fill:#808080;" cx="165.03" cy="365.53" r="20.03"/>
	<circle style="fill:#808080;" cx="223.53" cy="365.53" r="20.03"/>
</g>
<circle style="fill:#666666;" cx="282.03" cy="365.53" r="20.03"/>
<g>
	<circle style="fill:#FF6838;" cx="344.5" cy="233.03" r="20.03"/>
	<circle style="fill:#FF6838;" cx="344.5" cy="299.28" r="20.03"/>
	<circle style="fill:#FF6838;" cx="344.5" cy="365.53" r="20.03"/>
</g>
<g>
</g>
<g>
</g>
<g>
</g>
<g>
</g>
<g>
</g>
<g>
</g>
<g>
</g>
<g>
</g>
<g>
</g>
<g>
</g>
<g>
</g>
<g>
</g>
<g>
</g>
<g>
</g>
<g>
</g>
</svg>
