<?xml version="1.0" encoding="iso-8859-1"?>
<!-- Generator: Adobe Illustrator 19.0.0, SVG Export Plug-In . SVG Version: 6.00 Build 0)  -->
<svg version="1.1" id="Capa_1" xmlns="http://www.w3.org/2000/svg" xmlns:xlink="http://www.w3.org/1999/xlink" x="0px" y="0px"
	 viewBox="0 0 512 512" style="enable-background:new 0 0 512 512;" xml:space="preserve">
<circle style="fill:#005C83;" cx="256" cy="256" r="256"/>
<path style="fill:#00263F;" d="M512,256c0-15.054-1.311-29.801-3.804-44.142L395.292,98.954l-24.733,92.814l-92.814-92.814
	l3.011,127.461L153.295,98.954l-8.805,282.121l130.24,130.24C407.369,501.722,512,391.085,512,256z"/>
<path style="fill:#60C344;" d="M365.014,108.954c-8.33,17.467-26.148,29.539-46.789,29.539s-38.459-12.072-46.789-29.539h-30.871
	c-8.33,17.467-26.148,29.539-46.789,29.539s-38.459-12.072-46.789-29.539h-20.278v202.519c0,31.013,15.794,59.89,41.906,76.621
	L256,444.082l87.386-55.99c26.112-16.731,41.906-45.608,41.906-76.621V108.954H365.014z"/>
<path style="fill:#47AB4B;" d="M365.014,108.954c-8.33,17.467-26.148,29.539-46.789,29.539s-38.459-12.072-46.79-29.539h-15.483
	v335.098l0.048,0.031l87.386-55.99c26.112-16.731,41.906-45.608,41.906-76.621V108.954H365.014z"/>
<path style="fill:#D9E021;" d="M256,455.959l-92.781-59.446c-29.124-18.661-46.511-50.452-46.511-85.041V98.954h36.587l2.716,5.695
	c6.908,14.484,21.731,23.844,37.764,23.844s30.855-9.359,37.763-23.843l2.716-5.695h43.491l2.717,5.695
	c6.907,14.484,21.73,23.843,37.763,23.843s30.855-9.359,37.764-23.844l2.717-5.695h36.587v212.519
	c0,34.589-17.388,66.38-46.512,85.041L256,455.959z M136.708,118.954v192.519c0,27.74,13.944,53.235,37.301,68.201L256,432.206
	l81.991-52.533c23.356-14.965,37.301-40.461,37.301-68.201V118.954h-4.349c-11.146,18.13-31.194,29.539-52.719,29.539
	s-41.572-11.408-52.718-29.539h-19.014c-11.146,18.13-31.193,29.539-52.718,29.539c-21.524,0-41.572-11.408-52.718-29.539
	C141.056,118.954,136.708,118.954,136.708,118.954z"/>
<path style="fill:#8CC63F;" d="M358.705,98.954l-2.717,5.695c-6.908,14.484-21.731,23.844-37.764,23.844
	s-30.855-9.359-37.763-23.843l-2.717-5.695h-21.793v20h9.554c11.146,18.13,31.193,29.539,52.718,29.539s41.572-11.408,52.719-29.539
	h4.349v192.519c0,27.74-13.944,53.235-37.301,68.201L256,432.206l-0.048-0.031v23.753l0.048,0.031l92.78-59.446
	c29.124-18.661,46.512-50.452,46.512-85.041V98.954H358.705z"/>
<path style="fill:#D9E021;" d="M268.554,250.228h-0.782v-28.322h26.715v-23.545h-26.715v-21.608h-23.544v21.608h-0.782
	c-20.79,0-37.705,16.915-37.705,37.706s16.915,37.706,37.705,37.706h0.782v28.322h-26.715v23.545h26.715v21.608h23.544V325.64h0.782
	c20.79,0,37.705-16.915,37.705-37.706C306.259,267.142,289.345,250.228,268.554,250.228z M243.446,250.228
	c-7.809,0-14.161-6.353-14.161-14.161s6.352-14.161,14.161-14.161h0.782v28.322L243.446,250.228L243.446,250.228z M268.554,302.095
	h-0.782v-28.322h0.782c7.809,0,14.161,6.352,14.161,14.161C282.715,295.742,276.363,302.095,268.554,302.095z"/>
<path style="fill:#8CC63F;" d="M268.554,250.228h-0.782v-28.322h26.715V198.36h-26.715v-21.608h-11.82v170.496h11.82V325.64h0.782
	c20.791,0,37.705-16.915,37.705-37.706C306.259,267.142,289.345,250.228,268.554,250.228z M268.554,302.095h-0.782v-28.322h0.782
	c7.809,0,14.161,6.352,14.161,14.161S276.363,302.095,268.554,302.095z"/>
<g>
</g>
<g>
</g>
<g>
</g>
<g>
</g>
<g>
</g>
<g>
</g>
<g>
</g>
<g>
</g>
<g>
</g>
<g>
</g>
<g>
</g>
<g>
</g>
<g>
</g>
<g>
</g>
<g>
</g>
</svg>
