<?xml version="1.0" encoding="iso-8859-1"?>
<!-- Generator: Adobe Illustrator 19.0.0, SVG Export Plug-In . SVG Version: 6.00 Build 0)  -->
<svg version="1.1" id="Capa_1" xmlns="http://www.w3.org/2000/svg" xmlns:xlink="http://www.w3.org/1999/xlink" x="0px" y="0px"
	 viewBox="0 0 512 512" style="enable-background:new 0 0 512 512;" xml:space="preserve">
<circle style="fill:#FFDC00;" cx="256" cy="256" r="256"/>
<path style="fill:#FFC000;" d="M512,256c0-11.63-0.791-23.074-2.293-34.293L413,125L77,339.025l172.897,172.897
	C251.926,511.97,253.96,512,256,512C397.385,512,512,397.385,512,256z"/>
<rect x="99" y="125" style="fill:#333333;" width="314" height="184.67"/>
<rect x="255.95" y="125" style="fill:#1A1A1A;" width="157.05" height="184.67"/>
<rect x="115.67" y="137.67" style="fill:#B9EAFF;" width="280.67" height="172"/>
<rect x="255.95" y="137.67" style="fill:#35CCFF;" width="140.38" height="172"/>
<rect x="77" y="291.02" style="fill:#1A1A1A;" width="358" height="48"/>
<rect x="255.95" y="291.02" width="179.05" height="48"/>
<polygon style="fill:#983262;" points="140.378,257.496 127.622,247.837 172.731,188.262 213.285,229.793 255.039,156.058 
	268.961,163.942 216.715,256.207 174.269,212.738 "/>
<path style="fill:#0074A3;" d="M345.108,203.817h-0.509v-18.436h17.389v-15.326h-17.389V155.99h-15.326v14.065h-0.509
	c-13.533,0-24.543,11.01-24.543,24.544c0,13.534,11.01,24.544,24.543,24.544h0.509v18.436h-17.389v15.326h17.389v14.066h15.326
	v-14.066h0.509c13.533,0,24.543-11.01,24.543-24.544S358.641,203.817,345.108,203.817z M328.764,203.817
	c-5.083,0-9.218-4.135-9.218-9.218s4.135-9.218,9.218-9.218h0.509v18.436H328.764z M345.108,237.579h-0.509v-18.436h0.509
	c5.083,0,9.218,4.135,9.218,9.218C354.326,233.443,350.191,237.579,345.108,237.579z"/>
<path style="fill:#005C83;" d="M345.108,203.817h-0.509v-18.436h17.39v-15.326h-17.39V155.99h-8.289v110.98h8.289v-14.066h0.509
	c13.533,0,24.543-11.01,24.543-24.544S358.641,203.817,345.108,203.817z M345.108,237.579h-0.509v-18.436h0.509
	c5.083,0,9.218,4.135,9.218,9.218C354.326,233.443,350.191,237.579,345.108,237.579z"/>
<polygon style="fill:#662E57;" points="280.583,192.481 270.312,149.314 227.138,159.593 230.843,175.158 246.308,171.476 
	213.285,229.793 202.381,218.626 202.381,241.528 216.715,256.207 260.783,178.385 265.018,196.185 "/>
<g>
</g>
<g>
</g>
<g>
</g>
<g>
</g>
<g>
</g>
<g>
</g>
<g>
</g>
<g>
</g>
<g>
</g>
<g>
</g>
<g>
</g>
<g>
</g>
<g>
</g>
<g>
</g>
<g>
</g>
</svg>
