<?xml version="1.0" encoding="iso-8859-1"?>
<!-- Generator: Adobe Illustrator 19.0.0, SVG Export Plug-In . SVG Version: 6.00 Build 0)  -->
<svg version="1.1" id="Capa_1" xmlns="http://www.w3.org/2000/svg" xmlns:xlink="http://www.w3.org/1999/xlink" x="0px" y="0px"
	 viewBox="0 0 512 512" style="enable-background:new 0 0 512 512;" xml:space="preserve">
<circle style="fill:#662E57;" cx="256" cy="256" r="256"/>
<path style="fill:#590F38;" d="M260.462,511.944C399.786,509.56,512,395.893,512,256c0-27.537-4.365-54.05-12.412-78.906
	l-77.666-77.666L393.3,144.916l-59.59-59.59L79.577,331.058L260.462,511.944z"/>
<rect x="243" y="312.46" style="fill:#C0C0C0;" width="26" height="126"/>
<rect x="255.95" y="312.46" style="fill:#758F9B;" width="13.05" height="126"/>
<rect x="90.08" y="99.43" style="fill:#FFFFFF;" width="331.84" height="216.03"/>
<g>
	<rect x="255.95" y="99.43" style="fill:#E0E0E0;" width="165.97" height="216.03"/>
	<rect x="178.29" y="85.33" style="fill:#E0E0E0;" width="155.42" height="31.2"/>
</g>
<rect x="255.95" y="85.33" style="fill:#C0C0C0;" width="77.76" height="31.2"/>
<rect x="79.58" y="299.85" style="fill:#E0E0E0;" width="352.85" height="31.2"/>
<rect x="255.95" y="299.85" style="fill:#C0C0C0;" width="176.47" height="31.2"/>
<rect x="116.48" y="145.93" style="fill:#FF6838;" width="67.809" height="139.82"/>
<rect x="325.31" y="178.34" style="fill:#35CCFF;" width="67.809" height="107.41"/>
<rect x="222.09" y="225.74" style="fill:#FFDC00;" width="67.809" height="60.01"/>
<rect x="255.95" y="225.74" style="fill:#FFC000;" width="33.952" height="60.01"/>
<rect x="197.67" y="419.36" style="fill:#C0C0C0;" width="116.67" height="21.667"/>
<rect x="255.95" y="419.36" style="fill:#758F9B;" width="58.38" height="21.667"/>
<g>
</g>
<g>
</g>
<g>
</g>
<g>
</g>
<g>
</g>
<g>
</g>
<g>
</g>
<g>
</g>
<g>
</g>
<g>
</g>
<g>
</g>
<g>
</g>
<g>
</g>
<g>
</g>
<g>
</g>
</svg>
