<?xml version="1.0" encoding="iso-8859-1"?>
<!-- Generator: Adobe Illustrator 19.0.0, SVG Export Plug-In . SVG Version: 6.00 Build 0)  -->
<svg version="1.1" id="Capa_1" xmlns="http://www.w3.org/2000/svg" xmlns:xlink="http://www.w3.org/1999/xlink" x="0px" y="0px"
	 viewBox="0 0 512.001 512.001" style="enable-background:new 0 0 512.001 512.001;" xml:space="preserve">
<circle style="fill:#005C83;" cx="256.001" cy="255.388" r="255.388"/>
<path style="fill:#00263F;" d="M510.785,274.07L374.387,137.67L118.512,288.026l99.59,99.59l-80.48,30.716l92.358,92.358
	c8.558,0.866,17.24,1.311,26.026,1.311C391.181,512,501.811,406.971,510.785,274.07z"/>
<polygon style="fill:#FFFFFF;" points="329.161,92.446 137.62,92.446 137.62,418.331 374.387,418.331 374.387,137.67 "/>
<polygon style="fill:#E0E0E0;" points="374.387,137.67 329.161,92.446 255.956,92.446 255.956,418.331 374.387,418.331 "/>
<polygon style="fill:#C0C0C0;" points="329.161,137.67 374.387,137.67 329.161,92.446 "/>
<rect x="178.416" y="242.449" style="fill:#D9E021;" width="261.484" height="137.281"/>
<rect x="308.804" y="242.449" style="fill:#8CC63F;" width="131.096" height="137.281"/>
<path style="fill:#60C344;" d="M425.373,341.594v-61.013c-13.238,0-23.97-10.731-23.97-23.97H216.912
	c0,13.238-10.731,23.97-23.97,23.97v61.013c13.238,0,23.97,10.731,23.97,23.97h184.492
	C401.403,352.325,412.135,341.594,425.373,341.594z"/>
<path style="fill:#47AB4B;" d="M401.403,256.612h-92.598v108.952h92.598c0-13.238,10.731-23.97,23.97-23.97v-61.013
	C412.135,280.581,401.403,269.849,401.403,256.612z"/>
<ellipse style="fill:#D9E021;" cx="309.153" cy="311.085" rx="24.333" ry="41.583"/>
<path style="fill:#8CC63F;" d="M309.157,269.504c-0.118,0-0.234,0.012-0.352,0.015v83.137c0.118,0.003,0.233,0.015,0.352,0.015
	c13.439,0,24.333-18.617,24.333-41.583C333.49,288.121,322.596,269.504,309.157,269.504z"/>
<circle style="fill:#FF6838;" cx="168.291" cy="236.823" r="71.409"/>
<path style="fill:#AE4E32;" d="M168.287,165.413c-0.471,0-0.935,0.026-1.403,0.035v142.754c0.468,0.009,0.932,0.036,1.403,0.036
	c39.44,0,71.412-31.972,71.412-71.412S207.726,165.413,168.287,165.413z"/>
<polygon style="fill:#FFFFFF;" points="153.026,282.576 118.512,248.06 136.147,230.425 153.024,247.304 200.425,199.894 
	218.062,217.528 "/>
<polygon style="fill:#E0E0E0;" points="200.425,199.894 166.884,233.442 166.884,268.717 218.062,217.528 "/>
<g>
</g>
<g>
</g>
<g>
</g>
<g>
</g>
<g>
</g>
<g>
</g>
<g>
</g>
<g>
</g>
<g>
</g>
<g>
</g>
<g>
</g>
<g>
</g>
<g>
</g>
<g>
</g>
<g>
</g>
</svg>
