<?xml version="1.0" encoding="iso-8859-1"?>
<!-- Generator: Adobe Illustrator 19.0.0, SVG Export Plug-In . SVG Version: 6.00 Build 0)  -->
<svg version="1.1" id="Capa_1" xmlns="http://www.w3.org/2000/svg" xmlns:xlink="http://www.w3.org/1999/xlink" x="0px" y="0px"
	 viewBox="0 0 512 512" style="enable-background:new 0 0 512 512;" xml:space="preserve">
<circle style="fill:#662E57;" cx="256" cy="256" r="256"/>
<path style="fill:#590F38;" d="M262.788,511.91C401.035,508.311,512,395.115,512,256c0-33.927-6.615-66.304-18.601-95.934
	L425,91.667l-18.932,41.619L77,304.408l66.692,66.206l-14.351,8.044L262.788,511.91z"/>
<rect x="77" y="156.48" style="fill:#D9E021;" width="281.77" height="147.93"/>
<rect x="217.86" y="156.48" style="fill:#8CC63F;" width="140.92" height="147.93"/>
<path style="fill:#60C344;" d="M343.12,263.316v-65.747c-14.265,0-25.829-11.564-25.829-25.829H118.483
	c0,14.265-11.564,25.829-25.829,25.829v65.747c14.265,0,25.829,11.564,25.829,25.829H317.29
	C317.29,274.88,328.854,263.316,343.12,263.316z"/>
<path style="fill:#47AB4B;" d="M317.29,171.74h-99.433v117.406h99.433c0-14.265,11.564-25.829,25.829-25.829V197.57
	C328.854,197.569,317.29,186.005,317.29,171.74z"/>
<ellipse style="fill:#D9E021;" cx="217.89" cy="230.44" rx="26.22" ry="44.81"/>
<path style="fill:#8CC63F;" d="M217.887,185.633c-0.01,0-0.02,0.001-0.03,0.001v89.617c0.01,0,0.02,0.001,0.03,0.001
	c14.481,0,26.221-20.062,26.221-44.81S232.368,185.633,217.887,185.633z"/>
<polygon style="fill:#FFFFFF;" points="425,91.667 425,387.667 403.872,407.667 382.743,387.667 361.617,407.667 340.493,387.667 
	319.368,407.667 298.243,387.667 277.122,407.667 256,387.667 256,91.667 277.121,111.667 298.243,91.667 319.368,111.667 
	340.493,91.667 361.617,111.667 382.743,91.667 403.871,111.667 "/>
<polygon style="fill:#E0E0E0;" points="403.872,111.667 382.743,91.667 361.617,111.667 340.493,91.667 340.476,91.682 
	340.476,387.682 340.493,387.667 361.617,407.667 382.743,387.667 403.872,407.667 425,387.667 425,91.667 "/>
<rect x="274.93" y="164.88" style="fill:#C0C0C0;" width="48.6" height="19.624"/>
<rect x="357.47" y="302.7" style="fill:#758F9B;" width="48.6" height="19.624"/>
<rect x="274.93" y="210.82" style="fill:#C0C0C0;" width="131.14" height="19.624"/>
<rect x="340.48" y="210.82" style="fill:#758F9B;" width="65.59" height="19.624"/>
<rect x="274.93" y="256.76" style="fill:#C0C0C0;" width="131.14" height="19.624"/>
<rect x="340.48" y="256.76" style="fill:#758F9B;" width="65.59" height="19.625"/>
<path style="fill:#FF6838;" d="M332.244,259.229v110.21c0,7.212-5.847,13.058-13.059,13.058H138.589
	c-7.212,0-13.058-5.847-13.058-13.059v-110.21c0-7.212,5.847-13.059,13.059-13.058h180.596
	C326.398,246.171,332.244,252.017,332.244,259.229z"/>
<path style="fill:#AE4E32;" d="M319.186,246.171h-90.615v136.327h90.615c7.212,0,13.058-5.846,13.058-13.058V259.23
	C332.244,252.017,326.398,246.171,319.186,246.171z"/>
<rect x="125.53" y="274.32" style="fill:#333333;" width="206.71" height="33.34"/>
<rect x="228.57" y="274.32" style="fill:#1A1A1A;" width="103.67" height="33.34"/>
<g>
</g>
<g>
</g>
<g>
</g>
<g>
</g>
<g>
</g>
<g>
</g>
<g>
</g>
<g>
</g>
<g>
</g>
<g>
</g>
<g>
</g>
<g>
</g>
<g>
</g>
<g>
</g>
<g>
</g>
</svg>
