<?xml version="1.0" encoding="iso-8859-1"?>
<!-- Generator: Adobe Illustrator 19.0.0, SVG Export Plug-In . SVG Version: 6.00 Build 0)  -->
<svg version="1.1" id="Capa_1" xmlns="http://www.w3.org/2000/svg" xmlns:xlink="http://www.w3.org/1999/xlink" x="0px" y="0px"
	 viewBox="0 0 512 512" style="enable-background:new 0 0 512 512;" xml:space="preserve">
<circle style="fill:#005C83;" cx="256" cy="256" r="256"/>
<path style="fill:#00263F;" d="M511.589,270.41L309.569,68.391L265.5,125L136.062,408.464l102.961,102.961
	C244.636,511.793,250.294,512,256,512C392.548,512,504.114,405.09,511.589,270.41z"/>
<path style="fill:#FFECB3;" d="M309.569,68.391H202.431c13.928,45.465,32.795,73.385,53.569,73.385S295.642,113.856,309.569,68.391z
	"/>
<path style="fill:#FFD863;" d="M255.952,68.391v73.383c0.016,0,0.032,0.002,0.048,0.002c20.774,0,39.642-27.92,53.569-73.385
	H255.952z"/>
<path style="fill:#FFDC00;" d="M414.5,317c0-87.537-70.963-184.859-158.5-184.859S97.5,229.463,97.5,317
	c0,12.625,1.476,24.905,4.265,36.677c10.861,45.844,52.156,77.99,99.268,77.99h109.933c47.113,0,88.407-32.146,99.268-77.99
	C413.024,341.905,414.5,329.625,414.5,317z"/>
<path style="fill:#FFC000;" d="M256,132.141c-0.016,0-0.032,0.001-0.048,0.001v299.525h55.014c47.113,0,88.407-32.146,99.268-77.99
	c2.789-11.772,4.265-24.052,4.265-36.677C414.5,229.463,343.537,132.141,256,132.141z"/>
<circle style="fill:#FF6838;" cx="256" cy="281.9" r="71.841"/>
<path style="fill:#AE4E32;" d="M256,210.063c-0.016,0-0.032,0.001-0.048,0.001v143.679c0.016,0,0.032,0.001,0.048,0.001
	c39.677,0,71.841-32.164,71.841-71.841S295.677,210.063,256,210.063z"/>
<path style="fill:#FFECB3;" d="M264.767,273.683h-0.546v-19.777h18.655v-16.441h-18.655v-15.089H247.78v15.089h-0.546
	c-14.518,0-26.329,11.812-26.329,26.33s11.811,26.33,26.329,26.33h0.546v19.777h-18.655v16.441h18.655v15.089h16.441v-15.089h0.546
	c14.518,0,26.329-11.811,26.329-26.33C291.096,285.495,279.284,273.683,264.767,273.683z M247.233,273.683
	c-5.453,0-9.888-4.436-9.888-9.889s4.436-9.889,9.888-9.889h0.546v19.777h-0.546V273.683z M264.767,309.902h-0.546v-19.777h0.546
	c5.453,0,9.888,4.436,9.888,9.889S270.219,309.902,264.767,309.902z"/>
<path style="fill:#FFD863;" d="M264.767,273.683h-0.546v-19.777h18.655v-16.441H264.22v-15.089h-8.268v119.056h8.268v-15.089h0.546
	c14.518,0,26.329-11.811,26.329-26.33C291.096,285.495,279.284,273.683,264.767,273.683z M264.767,309.902h-0.546v-19.778h0.546
	c5.453,0,9.888,4.436,9.888,9.889C274.655,305.466,270.219,309.902,264.767,309.902z"/>
<g>
</g>
<g>
</g>
<g>
</g>
<g>
</g>
<g>
</g>
<g>
</g>
<g>
</g>
<g>
</g>
<g>
</g>
<g>
</g>
<g>
</g>
<g>
</g>
<g>
</g>
<g>
</g>
<g>
</g>
</svg>
