<?xml version="1.0" encoding="iso-8859-1"?>
<!-- Generator: Adobe Illustrator 19.0.0, SVG Export Plug-In . SVG Version: 6.00 Build 0)  -->
<svg version="1.1" id="Capa_1" xmlns="http://www.w3.org/2000/svg" xmlns:xlink="http://www.w3.org/1999/xlink" x="0px" y="0px"
	 viewBox="0 0 512 512" style="enable-background:new 0 0 512 512;" xml:space="preserve">
<circle style="fill:#005C83;" cx="256" cy="256" r="256"/>
<path style="fill:#00263F;" d="M512,256c0-14.634-1.246-28.975-3.604-42.938l-66.229-66.229l-372.333,50l17.361,17.361l-1.861,0.305
	l51.902,51.902L69.833,384L188.94,503.106C210.315,508.894,232.793,512,256,512C397.385,512,512,397.385,512,256z"/>
<g>
	<rect x="92.17" y="171.83" style="fill:#FFFFFF;" width="51.33" height="196.33"/>
	<rect x="184.28" y="171.83" style="fill:#FFFFFF;" width="51.33" height="196.33"/>
</g>
<g>
	<rect x="276.39" y="171.83" style="fill:#E0E0E0;" width="51.33" height="196.33"/>
	<rect x="368.5" y="171.83" style="fill:#E0E0E0;" width="51.33" height="196.33"/>
</g>
<g>
	<rect x="85.33" y="171.83" style="fill:#C0C0C0;" width="65" height="42.667"/>
	<rect x="177.44" y="171.83" style="fill:#C0C0C0;" width="65" height="42.667"/>
</g>
<g>
	<rect x="269.56" y="171.83" style="fill:#758F9B;" width="65" height="42.667"/>
	<rect x="361.67" y="171.83" style="fill:#758F9B;" width="65" height="42.667"/>
</g>
<g>
	<rect x="85.33" y="332.83" style="fill:#C0C0C0;" width="65" height="42.667"/>
	<rect x="177.44" y="332.83" style="fill:#C0C0C0;" width="65" height="42.667"/>
</g>
<g>
	<rect x="269.56" y="332.83" style="fill:#758F9B;" width="65" height="42.667"/>
	<rect x="361.67" y="332.83" style="fill:#758F9B;" width="65" height="42.667"/>
</g>
<polygon style="fill:#FFFFFF;" points="80.166,151.666 256,60 431.834,151.667 "/>
<g>
	<polygon style="fill:#E0E0E0;" points="256,60 256,60 255.952,151.667 431.834,151.667 	"/>
	<rect x="69.833" y="146.83" style="fill:#E0E0E0;" width="372.33" height="50"/>
</g>
<rect x="255.95" y="146.83" style="fill:#C0C0C0;" width="186.21" height="50"/>
<rect x="69.833" y="347.33" style="fill:#E0E0E0;" width="372.33" height="36.667"/>
<rect x="255.95" y="347.33" style="fill:#C0C0C0;" width="186.21" height="36.667"/>
<g>
</g>
<g>
</g>
<g>
</g>
<g>
</g>
<g>
</g>
<g>
</g>
<g>
</g>
<g>
</g>
<g>
</g>
<g>
</g>
<g>
</g>
<g>
</g>
<g>
</g>
<g>
</g>
<g>
</g>
</svg>
