<?xml version="1.0" encoding="iso-8859-1"?>
<!-- Generator: Adobe Illustrator 19.0.0, SVG Export Plug-In . SVG Version: 6.00 Build 0)  -->
<svg version="1.1" id="Capa_1" xmlns="http://www.w3.org/2000/svg" xmlns:xlink="http://www.w3.org/1999/xlink" x="0px" y="0px"
	 viewBox="0 0 512 512" style="enable-background:new 0 0 512 512;" xml:space="preserve">
<circle style="fill:#662E57;" cx="256" cy="256" r="256"/>
<path style="fill:#590F38;" d="M512,256c0-13.039-0.982-25.848-2.862-38.362l-87.324-88.029l-334.692,9.309l66.231,66.231
	L73.75,330.5l56.726,56.726l-15.363,17.239l105.021,105.021C231.856,511.131,243.826,512,256,512C397.385,512,512,397.385,512,256z"
	/>
<rect x="115.11" y="256.53" style="fill:#D9E021;" width="281.77" height="147.93"/>
<rect x="255.95" y="256.53" style="fill:#8CC63F;" width="140.93" height="147.93"/>
<path style="fill:#60C344;" d="M381.233,363.374v-65.747c-14.265,0-25.829-11.564-25.829-25.829H156.597
	c0,14.265-11.564,25.829-25.829,25.829v65.747c14.265,0,25.829,11.564,25.829,25.829h198.807
	C355.404,374.938,366.968,363.374,381.233,363.374z"/>
<path style="fill:#47AB4B;" d="M355.404,271.797h-99.451v117.406h99.451c0-14.265,11.564-25.829,25.829-25.829v-65.747
	C366.968,297.626,355.404,286.062,355.404,271.797z"/>
<ellipse style="fill:#D9E021;" cx="256" cy="330.5" rx="26.22" ry="44.81"/>
<path style="fill:#8CC63F;" d="M256,285.69c-0.016,0-0.032,0.002-0.048,0.002v89.616c0.016,0,0.032,0.002,0.048,0.002
	c14.481,0,26.221-20.062,26.221-44.81S270.481,285.69,256,285.69z"/>
<rect x="73.75" y="164.5" style="fill:#FFFFFF;" width="364.5" height="166"/>
<rect x="255.95" y="164.5" style="fill:#E0E0E0;" width="182.3" height="166"/>
<path style="fill:#FF6838;" d="M414.628,151.167H124.544l-37.422-12.25l37.422-12.25h290.083c5.661,0,10.25,4.589,10.25,10.25v4
	C424.878,146.578,420.289,151.167,414.628,151.167z"/>
<path style="fill:#AE4E32;" d="M414.628,126.667H255.952v24.5h158.675c5.661,0,10.25-4.589,10.25-10.25v-4
	C424.878,131.256,420.289,126.667,414.628,126.667z"/>
<rect x="99.5" y="190" style="fill:#C0C0C0;" width="116" height="14.333"/>
<rect x="296.5" y="290.67" style="fill:#758F9B;" width="116" height="14.333"/>
<rect x="99.5" y="223.56" style="fill:#C0C0C0;" width="313" height="14.333"/>
<rect x="255.95" y="223.56" style="fill:#758F9B;" width="156.55" height="14.333"/>
<rect x="99.5" y="257.11" style="fill:#C0C0C0;" width="313" height="14.333"/>
<rect x="255.95" y="257.11" style="fill:#758F9B;" width="156.55" height="14.333"/>
<g>
</g>
<g>
</g>
<g>
</g>
<g>
</g>
<g>
</g>
<g>
</g>
<g>
</g>
<g>
</g>
<g>
</g>
<g>
</g>
<g>
</g>
<g>
</g>
<g>
</g>
<g>
</g>
<g>
</g>
</svg>
