<?xml version="1.0" encoding="iso-8859-1"?>
<!-- Generator: Adobe Illustrator 19.0.0, SVG Export Plug-In . SVG Version: 6.00 Build 0)  -->
<svg version="1.1" id="Capa_1" xmlns="http://www.w3.org/2000/svg" xmlns:xlink="http://www.w3.org/1999/xlink" x="0px" y="0px"
	 viewBox="0 0 512 512" style="enable-background:new 0 0 512 512;" xml:space="preserve">
<circle style="fill:#005C83;" cx="256" cy="256" r="256"/>
<path style="fill:#00263F;" d="M512,256c0-6.465-0.245-12.872-0.716-19.216L436,161.5l-360,189l160.784,160.784
	C243.128,511.755,249.535,512,256,512C397.385,512,512,397.385,512,256z"/>
<rect x="76" y="161.5" style="fill:#D9E021;" width="360" height="189"/>
<rect x="255.67" y="161.5" style="fill:#8CC63F;" width="180.33" height="189"/>
<path style="fill:#60C344;" d="M416,298v-84c-18.225,0-33-14.775-33-33H129c0,18.225-14.775,33-33,33v84c18.225,0,33,14.775,33,33
	h254C383,312.775,397.775,298,416,298z"/>
<path style="fill:#47AB4B;" d="M383,181H255.667v150H383c0-18.225,14.775-33,33-33v-84C397.775,214,383,199.225,383,181z"/>
<ellipse style="fill:#D9E021;" cx="256" cy="256" rx="33.5" ry="57.25"/>
<path style="fill:#8CC63F;" d="M256,198.75c-0.112,0-0.222,0.013-0.333,0.014v114.471c0.112,0.002,0.221,0.014,0.333,0.014
	c18.502,0,33.5-25.632,33.5-57.25C289.5,224.382,274.502,198.75,256,198.75z"/>
<g>
</g>
<g>
</g>
<g>
</g>
<g>
</g>
<g>
</g>
<g>
</g>
<g>
</g>
<g>
</g>
<g>
</g>
<g>
</g>
<g>
</g>
<g>
</g>
<g>
</g>
<g>
</g>
<g>
</g>
</svg>
