<svg id="Capa_1" enable-background="new 0 0 512 512" height="512" viewBox="0 0 512 512" width="512" xmlns="http://www.w3.org/2000/svg"><path d="m400 76h-288c-44.183 0-80 35.817-80 80v88h448v-88c0-44.183-35.817-80-80-80z" fill="#fffabe"/><g fill="#fceb9b"><path d="m352 148h-32c-8.837 0-16-7.163-16-16 0-8.837 7.163-16 16-16h32c8.837 0 16 7.163 16 16 0 8.837-7.164 16-16 16z"/><path d="m224 148h-16c-8.837 0-16-7.163-16-16 0-8.837 7.163-16 16-16h16c8.837 0 16 7.163 16 16 0 8.837-7.164 16-16 16z"/><path d="m152 148h-56c-8.837 0-16-7.163-16-16 0-8.837 7.163-16 16-16h56c8.837 0 16 7.163 16 16 0 8.837-7.164 16-16 16z"/></g><path d="m488 180h-408c-44.183 0-80 35.817-80 80v42l37.333 46h444.667l30-140.396v-3.604c0-13.255-10.745-24-24-24z" fill="#e6ff82"/><path d="m360 276-213.158-14.211c-17.644-1.176-35.316 1.842-51.569 8.808l-95.273 67.084v50.319l368 8z" fill="#d2e673"/><path d="m360 276-213.158-14.21c-17.644-1.176-35.316 1.842-51.569 8.808l-95.273 48.648v18.435l104.727-45.025c12.715-5.445 26.742-7.824 40.52-6.922l213.156 14.211c1.087.081 2.133-.024 3.188-.086z" fill="#e6ff82"/><path d="m360.531 268.019-213.156-14.211c-18.828-1.27-37.926 2.012-55.195 9.41l-92.18 38.681v17.348l98.426-41.297c15.023-6.438 31.609-9.254 47.887-8.18l213.156 14.211c4.344.379 8.219-3.039 8.512-7.449.296-4.407-3.04-8.22-7.45-8.513z" fill="#d2be55"/><path d="m24 396 40.016-51.45c10.248-13.176 25.238-21.827 41.774-24.108l170.043-23.454c24.037-3.315 47.632-9.288 70.351-17.808l165.816-35.18v152z" fill="#d2be55"/><path d="m512 224.719-165.815 54.462c-22.72 8.52-46.314 14.492-70.352 17.808l-170.043 23.453c-16.536 2.281-31.525 10.932-41.773 24.108l-40.017 51.45h30.405l28.552-36.711c6.445-8.285 15.719-13.641 26.109-15.074l170.047-23.453c25.754-3.551 51.156-9.98 75.496-19.109l157.391-57.653z" fill="#d2e673"/><path d="m398.44 317.261c-9.571 4.466-19.766 7.449-30.235 8.845l-210.467 28.062c-8.975 1.197-17.429 4.908-24.385 10.705l-17.327 14.439c-12.94 10.783-29.25 16.688-46.093 16.688l442.067-8v-96z" fill="#9b784b"/><path d="m368.205 326.106-210.467 28.062c-8.975 1.197-17.429 4.908-24.385 10.705l-17.327 14.439c-12.94 10.783-29.25 16.688-46.093 16.688h63.557l15.226-12.691c3.484-2.902 7.699-4.754 12.195-5.352l210.461-28.063c12.895-1.715 25.418-5.379 37.219-10.883l103.409-47.011v-32l-113.56 57.261c-9.571 4.466-19.766 7.449-30.235 8.845z" fill="#d2be55"/><path d="m432 436h-352c-13.255 0-24-10.745-24-24h400c0 13.255-10.745 24-24 24z" fill="#d2e673"/><path d="m496 420h-480c-8.837 0-16-7.163-16-16l8-8h497.5l6.5 8c0 8.836-7.164 16-16 16z" fill="#d2be55"/><path d="m432 238.007v-18.007h8c13.234 0 24-10.766 24-24v-24c0-4.418-3.582-8-8-8s-8 3.582-8 8v24c0 4.412-3.59 8-8 8h-8v-16c0-4.418-3.582-8-8-8s-8 3.582-8 8v56c0 .029.004.057.004.086l-72.629 27.602c-22.129 8.301-45.223 14.145-68.637 17.375l-2.738.377v-53.44h8c13.234 0 24-10.766 24-24v-24c0-4.418-3.582-8-8-8s-8 3.582-8 8v24c0 4.412-3.59 8-8 8h-8v-48c0-4.418-3.582-8-8-8s-8 3.582-8 8v72h-8c-4.41 0-8-3.588-8-8v-24c0-4.418-3.582-8-8-8s-8 3.582-8 8v24c0 13.234 10.766 24 24 24h8v31.647l-72 9.931v-97.578c0-4.418-3.582-8-8-8s-8 3.582-8 8v56h-8c-4.41 0-8-3.588-8-8v-24c0-4.418-3.582-8-8-8s-8 3.582-8 8v24c0 13.234 10.766 24 24 24h8v27.784l-48 6.621v-18.405c0-4.418-3.582-8-8-8s-8 3.582-8 8v20.629c-18.423 2.723-34.844 12.288-46.301 27.012l-40.015 51.449c-2.711 3.484-2.082 8.512 1.406 11.227 1.457 1.133 3.188 1.684 4.906 1.684 2.383 0 4.742-1.063 6.32-3.09l40.012-51.445c9.023-11.598 22.004-19.09 36.555-21.098l170.043-23.453c24.586-3.391 48.832-9.531 72.102-18.258l162.972-61.938v-17.115z" fill="#9b784b"/><circle cx="464" cy="340" fill="#d2be55" r="8"/><circle cx="96" cy="356" fill="#9b784b" r="8"/><circle cx="424" cy="364" fill="#d2be55" r="8"/><path d="m138.473 371.016c5.805-4.836 12.832-7.922 20.324-8.918l210.461-28.063c11.285-1.504 22.242-4.707 32.566-9.523l110.176-51.292v-17.65l-116.941 54.441c-8.59 4.007-17.689 6.699-27.059 8.033v-34.044h8c13.234 0 24-10.766 24-24v-8c0-4.418-3.582-8-8-8s-8 3.582-8 8v8c0 4.412-3.59 8-8 8h-8v-32h8c13.234 0 24-10.766 24-24v-56c0-4.418-3.582-8-8-8s-8 3.582-8 8v56c0 4.412-3.59 8-8 8h-8v-80c0-4.418-3.582-8-8-8s-8 3.582-8 8v96h-8c-4.41 0-8-3.588-8-8v-24c0-4.418-3.582-8-8-8s-8 3.582-8 8v24c0 13.234 10.766 24 24 24h8v68.195l-195.316 26.043c-10.484 1.395-20.324 5.715-28.453 12.488l-17.324 14.438c-11.481 9.566-26.036 14.836-40.973 14.836h-69.934v16h512v-16h-394.191c1.121-.837 2.261-1.645 3.34-2.543z" fill="#2d2d4b"/></svg>