<svg id="Capa_1" enable-background="new 0 0 512 512" height="512" viewBox="0 0 512 512" width="512" xmlns="http://www.w3.org/2000/svg"><path d="m488 220h-464v-48c0-53.019 42.981-96 96-96h304c35.346 0 64 28.654 64 64z" fill="#c8f5f0"/><path d="m152 164h-24c-8.837 0-16-7.163-16-16 0-8.837 7.163-16 16-16h24c8.837 0 16 7.163 16 16 0 8.837-7.164 16-16 16z" fill="#fff"/><path d="m264 164h-56c-8.837 0-16-7.163-16-16 0-8.837 7.163-16 16-16h56c8.837 0 16 7.163 16 16 0 8.837-7.164 16-16 16z" fill="#fff"/><path d="m480 180h-448c-17.673 0-32 14.327-32 32v98.813l22.667 53.187h435.333l54-149.402v-2.598c0-17.673-14.327-32-32-32z" fill="#9be7ee"/><path d="m120 260h-56c-8.837 0-16-7.163-16-16 0-8.837 7.163-16 16-16h56c8.837 0 16 7.163 16 16 0 8.836-7.163 16-16 16z" fill="#c8f5f0"/><path d="m32 308 54.694-49.224c15.821-14.239 37.686-19.681 58.336-14.518l30.97 7.742 35.272-29.393c8.15-6.792 18.664-10.067 29.229-9.107l139.467 12.679c13.185 1.199 26.47-.593 38.866-5.242l11.448-4.293c19.167-7.188 40.667 1.255 49.822 19.565l7.896 15.791v72h-456z" fill="#d1c3aa"/><circle cx="416" cy="156" fill="#aad264" r="48"/><path d="m472 156c0-30.879-25.121-56-56-56s-56 25.121-56 56c0 28.162 20.898 51.525 48 55.419v48.581c0 4.418 3.582 8 8 8s8-3.582 8-8v-48.581c27.101-3.894 48-27.257 48-55.419zm-48 39.195v-7.195c0-4.418-3.582-8-8-8s-8 3.582-8 8v7.195c-18.235-3.717-32-19.878-32-39.195 0-22.057 17.945-40 40-40s40 17.943 40 40c0 19.317-13.765 35.478-32 39.195z" fill="#69b47d"/><path d="m152 284-44.848 25.627c-6.967 3.981-15.463 4.217-22.64.628l-12.162-6.081c-5.371-2.685-11.553-3.26-17.326-1.61l-55.024 41.218v28.218c0 8.837 7.163 16 16 16h92.687l44.802-24.028z" fill="#e6d7b9"/><path d="m61.621 325.644 12.152 6.074c14.387 7.199 31.316 6.734 45.285-1.254l32.942-18.824v-27.64l-44.848 25.627c-6.967 3.981-15.463 4.217-22.64.628l-12.162-6.081c-5.371-2.685-11.553-3.26-17.327-1.61l-55.023 24.965v16.253z" fill="#ffebc3"/><path d="m148.031 277.055-44.848 25.629c-4.648 2.656-10.297 2.816-15.094.414l-12.16-6.078c-7.176-3.59-15.391-4.348-23.219-2.113l-52.71 15.906v16.716l57.227-17.271c3.848-1.102 7.961-.727 11.547 1.074l12.16 6.078c9.59 4.789 20.879 4.492 30.187-.836l44.848-25.629c3.836-2.191 5.168-7.078 2.977-10.914-2.192-3.84-7.075-5.168-10.915-2.976z" fill="#d1c3aa"/><path d="m392 188h-160l24-64h120z" fill="#917d6e"/><path d="m248 188h128v72h-128z" fill="#beaa96"/><path d="m216 260-32-24-32 24v96h320v-96z" fill="#beaa96"/><path d="m216 260h232v24h-232z" fill="#d1c3aa"/><path d="m280 308h-56v-48l-16 4v44h-48v-44l-16-4v96h144v-40c0-4.418-3.582-8-8-8z" fill="#917d6e"/><circle cx="248" cy="340" fill="#69b47d" r="24"/><circle cx="216" cy="348" fill="#69b47d" r="16"/><path d="m512 372v-120l-94.466 37.761c-16.107 11.505-36.631 14.91-55.59 9.222l-25.504-7.651c-14.906-4.472-31.052.107-41.391 11.738l-27.956 31.45c-12.145 13.663-29.553 21.48-47.833 21.48h-50.691c-10.609 0-20.783 4.214-28.284 11.716l13.652 20.284h342.063c8.836 0 16-7.164 16-16z" fill="#917d6e"/><g fill="#fff"><path d="m184 292c-4.418 0-8-3.582-8-8v-8c0-4.418 3.582-8 8-8 4.418 0 8 3.582 8 8v8c0 4.418-3.582 8-8 8z"/><path d="m280 236c-4.418 0-8-3.582-8-8v-8c0-4.418 3.582-8 8-8 4.418 0 8 3.582 8 8v8c0 4.418-3.582 8-8 8z"/><path d="m280 168c-4.418 0-8-3.582-8-8v-8c0-4.418 3.582-8 8-8 4.418 0 8 3.582 8 8v8c0 4.418-3.582 8-8 8z"/><path d="m344 168c-4.418 0-8-3.582-8-8v-8c0-4.418 3.582-8 8-8 4.418 0 8 3.582 8 8v8c0 4.418-3.582 8-8 8z"/><path d="m312 168c-4.418 0-8-3.582-8-8v-8c0-4.418 3.582-8 8-8 4.418 0 8 3.582 8 8v8c0 4.418-3.582 8-8 8z"/><path d="m344 236c-4.418 0-8-3.582-8-8v-8c0-4.418 3.582-8 8-8 4.418 0 8 3.582 8 8v8c0 4.418-3.582 8-8 8z"/><path d="m312 236c-4.418 0-8-3.582-8-8v-8c0-4.418 3.582-8 8-8 4.418 0 8 3.582 8 8v8c0 4.418-3.582 8-8 8z"/></g><path d="m456 252h-72v-64c0-4.418-3.582-8-8-8s-8 3.582-8 8v64h-112v-64c0-4.418-3.582-8-8-8s-8 3.582-8 8v64h-24c-4.418 0-8 3.582-8 8s3.582 8 8 8h240c4.418 0 8-3.582 8-8s-3.582-8-8-8z" fill="#917d6e"/><path d="m392 196h-160c-2.625 0-5.082-1.287-6.574-3.443-1.496-2.156-1.836-4.908-.918-7.365l24-64c1.172-3.124 4.156-5.192 7.492-5.192h120c3.672 0 6.871 2.498 7.762 6.061l16 64c.598 2.389.059 4.922-1.457 6.863s-3.84 3.076-6.305 3.076zm-148.457-16h138.211l-12-48h-108.211z" fill="#2d2d4b"/><path d="m215.992 268c-1.668 0-3.352-.521-4.793-1.6l-27.199-20.4-27.199 20.4c-3.543 2.652-8.551 1.934-11.199-1.6-2.652-3.535-1.938-8.551 1.598-11.201l32-24c2.844-2.133 6.758-2.133 9.602 0l32 24c3.535 2.65 4.25 7.666 1.598 11.201-1.572 2.094-3.974 3.2-6.408 3.2z" fill="#2d2d4b"/><circle cx="432" cy="156" fill="#69b47d" r="8"/><path d="m56 412c0 13.255 10.745 24 24 24h352c13.255 0 24-10.745 24-24z" fill="#a7d9ff"/><path d="m496 420h-480c-4.418 0-8-3.582-8-8 0-4.418 3.582-8 8-8h480c4.418 0 8 3.582 8 8 0 4.418-3.582 8-8 8z" fill="#6bb2ff"/><path d="m448 236c-13.255 0-24 10.745-24 24 0 .135.008.269.01.403-1.296-.264-2.637-.403-4.01-.403-11.046 0-20 8.954-20 20s8.954 20 20 20c10.174 0 18.554-7.603 19.817-17.433 2.554.926 5.309 1.433 8.183 1.433 13.255 0 24-10.745 24-24s-10.745-24-24-24z" fill="#69b47d"/><path d="m153.937 388 3.316-3.316c2.98-2.977 7.102-4.684 11.316-4.684h50.691c25.113 0 49.086-10.766 65.77-29.535l27.953-31.449c4.121-4.641 10.609-6.488 16.559-4.695l25.504 7.652c25.891 7.754 54.453 3.02 76.437-12.68l80.517-57.293v-24l-94.466 61.761c-16.107 11.505-36.631 14.91-55.59 9.222l-25.505-7.652c-14.905-4.472-31.052.107-41.39 11.739l-27.955 31.449c-12.145 13.663-29.554 21.481-47.834 21.481h-50.691c-10.608 0-20.783 4.214-28.284 11.716l-8.973 20.284z" fill="#beaa96"/><circle cx="344" cy="340" fill="#beaa96" r="8"/><circle cx="464" cy="308" fill="#beaa96" r="8"/><circle cx="312" cy="364" fill="#beaa96" r="8"/><circle cx="472" cy="372" fill="#2d2d4b" r="8"/><path d="m512 322.888-100.25 22.19c-10.484 2.422-19.961 8.383-26.684 16.785l-20.909 26.137h20.486l12.915-16.145c4.48-5.602 10.801-9.574 17.723-11.172l96.719-21.405z" fill="#2d2d4b"/><path d="m512 214.598-99.113 68.652c-13.996 9.992-32.168 13.027-48.645 8.07l-25.504-7.652c-17.824-5.336-37.312.18-49.672 14.086l-27.953 31.449c-10.617 11.945-25.871 18.797-41.851 18.797h-50.692c-12.824 0-24.875 4.992-33.941 14.059l-25.942 25.941h22.625l14.629-14.629c6.043-6.043 14.082-9.371 22.629-9.371h50.691c20.547 0 40.16-8.809 53.812-24.164l27.953-31.449c8.242-9.277 21.242-12.945 33.113-9.391l25.504 7.652c21.172 6.359 44.551 2.473 62.445-10.309l89.912-62.276z" fill="#2d2d4b"/></svg>