<?xml version="1.0" encoding="iso-8859-1"?>
<!-- Generator: Adobe Illustrator 19.0.0, SVG Export Plug-In . SVG Version: 6.00 Build 0)  -->
<svg xmlns="http://www.w3.org/2000/svg" xmlns:xlink="http://www.w3.org/1999/xlink" version="1.1" id="Layer_1" x="0px" y="0px" viewBox="0 0 512.001 512.001" style="enable-background:new 0 0 512.001 512.001;" xml:space="preserve">
<circle style="fill:#FFDB47;" cx="255.997" cy="255.996" r="255.996"/>
<path style="fill:#FFCB00;" d="M512,256.001c0-21.292-2.616-41.97-7.515-61.746L349.244,39.013l-1.609,34.739  c-1.494,0.629-2.544,2.106-2.544,3.829c0,1.583,0.895,2.942,2.197,3.642l-0.256,5.521h-5.626v17.141h-4.997v14.109h-4.244v20.174  h-4.757v34.018h-6.247v23.206L162.757,39.013l-1.609,34.739c-1.494,0.629-2.544,2.106-2.544,3.829c0,1.583,0.895,2.942,2.198,3.642  l-0.256,5.521h-5.626v17.141h-4.997v14.109h-4.244v20.174h-4.757v34.018h-6.247v45.094h-9.761v199.365l92.454,92.454  c12.6,1.907,25.5,2.901,38.632,2.901C397.385,512,512,397.385,512,256.001z"/>
<g>
	<polygon style="fill:#57555C;" points="197.199,342.843 194.909,340.703 252.271,279.334 256.566,279.334  "/>
	<polygon style="fill:#57555C;" points="315.365,342.843 317.654,340.703 260.293,279.334 255.997,279.334  "/>
	<rect x="196.794" y="259.215" style="fill:#57555C;" width="118.417" height="20.819"/>
</g>
<rect x="255.997" y="259.215" style="fill:#3C3B41;" width="59.214" height="20.819"/>
<polygon style="fill:#78777F;" points="315.21,267.223 260.354,267.223 260.354,259.214 251.647,259.214 251.647,267.223   196.791,267.223 196.791,272.024 251.647,272.024 251.647,280.033 260.354,280.033 260.354,272.024 315.21,272.024 "/>
<polygon style="fill:#57555C;" points="260.354,267.223 260.354,259.214 255.997,259.214 255.997,280.033 260.354,280.033   260.354,272.024 315.21,272.024 315.21,267.223 "/>
<path style="fill:#3C3B41;" d="M166.91,77.58c0-1.723-1.05-3.2-2.544-3.829l-1.609-34.739l-1.609,34.739  c-1.494,0.629-2.544,2.106-2.544,3.829c0,1.583,0.895,2.942,2.198,3.644l-0.286,6.179h4.484l-0.286-6.179  C166.014,80.523,166.91,79.163,166.91,77.58z"/>
<polygon style="fill:#78777F;" points="190.838,217.281 190.838,172.186 184.591,172.186 184.591,138.168 179.833,138.168   179.833,117.994 175.589,117.994 175.589,103.886 170.592,103.886 170.592,86.745 154.92,86.745 154.92,103.886 149.923,103.886   149.923,117.994 145.679,117.994 145.679,138.168 140.922,138.168 140.922,172.186 134.674,172.186 134.674,217.281   124.914,217.281 124.914,416.646 200.598,416.646 200.598,217.281 "/>
<g>
	<rect x="132.554" y="232.842" style="fill:#3C3B41;" width="9.488" height="17.408"/>
	<rect x="149.523" y="232.842" style="fill:#3C3B41;" width="9.488" height="17.408"/>
	<rect x="166.503" y="232.842" style="fill:#3C3B41;" width="9.488" height="17.408"/>
	<rect x="183.472" y="232.842" style="fill:#3C3B41;" width="9.488" height="17.408"/>
	<rect x="141.039" y="181.642" style="fill:#3C3B41;" width="9.488" height="17.408"/>
	<rect x="158.008" y="181.642" style="fill:#3C3B41;" width="9.488" height="17.408"/>
	<rect x="174.987" y="181.642" style="fill:#3C3B41;" width="9.488" height="17.408"/>
	<rect x="146.681" y="143.076" style="fill:#3C3B41;" width="7.023" height="12.885"/>
	<rect x="159.241" y="143.076" style="fill:#3C3B41;" width="7.023" height="12.885"/>
	<rect x="171.811" y="143.076" style="fill:#3C3B41;" width="7.023" height="12.885"/>
	<rect x="150.046" y="121.029" style="fill:#3C3B41;" width="5.553" height="10.188"/>
	<rect x="159.983" y="121.029" style="fill:#3C3B41;" width="5.553" height="10.188"/>
	<rect x="169.909" y="121.029" style="fill:#3C3B41;" width="5.553" height="10.188"/>
	<rect x="132.554" y="259.215" style="fill:#3C3B41;" width="9.488" height="17.408"/>
	<rect x="149.523" y="259.215" style="fill:#3C3B41;" width="9.488" height="17.408"/>
	<rect x="166.503" y="259.215" style="fill:#3C3B41;" width="9.488" height="17.408"/>
	<rect x="183.472" y="259.215" style="fill:#3C3B41;" width="9.488" height="17.408"/>
	<rect x="132.554" y="285.577" style="fill:#3C3B41;" width="9.488" height="17.408"/>
	<rect x="149.523" y="285.577" style="fill:#3C3B41;" width="9.488" height="17.408"/>
	<rect x="166.503" y="285.577" style="fill:#3C3B41;" width="9.488" height="17.408"/>
	<rect x="183.472" y="285.577" style="fill:#3C3B41;" width="9.488" height="17.408"/>
	<rect x="132.554" y="311.95" style="fill:#3C3B41;" width="9.488" height="17.408"/>
	<rect x="149.523" y="311.95" style="fill:#3C3B41;" width="9.488" height="17.408"/>
	<rect x="166.503" y="311.95" style="fill:#3C3B41;" width="9.488" height="17.408"/>
	<rect x="183.472" y="311.95" style="fill:#3C3B41;" width="9.488" height="17.408"/>
	<rect x="132.554" y="338.312" style="fill:#3C3B41;" width="9.488" height="17.408"/>
	<rect x="149.523" y="338.312" style="fill:#3C3B41;" width="9.488" height="17.408"/>
	<rect x="166.503" y="338.312" style="fill:#3C3B41;" width="9.488" height="17.408"/>
	<rect x="183.472" y="338.312" style="fill:#3C3B41;" width="9.488" height="17.408"/>
	<rect x="132.554" y="364.685" style="fill:#3C3B41;" width="9.488" height="17.408"/>
	<rect x="149.523" y="364.685" style="fill:#3C3B41;" width="9.488" height="17.408"/>
	<rect x="166.503" y="364.685" style="fill:#3C3B41;" width="9.488" height="17.408"/>
	<rect x="183.472" y="364.685" style="fill:#3C3B41;" width="9.488" height="17.408"/>
</g>
<path style="fill:#29292B;" d="M353.398,77.58c0-1.723-1.05-3.2-2.544-3.829l-1.609-34.739l-1.609,34.739  c-1.494,0.629-2.544,2.106-2.544,3.829c0,1.583,0.895,2.942,2.198,3.644l-0.286,6.179h4.483l-0.286-6.179  C352.502,80.523,353.398,79.163,353.398,77.58z"/>
<polygon style="fill:#57555C;" points="377.327,217.281 377.327,172.186 371.079,172.186 371.079,138.168 366.322,138.168   366.322,117.994 362.078,117.994 362.078,103.886 357.081,103.886 357.081,86.745 341.409,86.745 341.409,103.886 336.412,103.886   336.412,117.994 332.168,117.994 332.168,138.168 327.41,138.168 327.41,172.186 321.163,172.186 321.163,217.281 311.403,217.281   311.403,416.646 387.087,416.646 387.087,217.281 "/>
<g>
	<rect x="319.045" y="232.842" style="fill:#29292B;" width="9.488" height="17.408"/>
	<rect x="336.014" y="232.842" style="fill:#29292B;" width="9.488" height="17.408"/>
	<rect x="352.983" y="232.842" style="fill:#29292B;" width="9.488" height="17.408"/>
	<rect x="369.962" y="232.842" style="fill:#29292B;" width="9.488" height="17.408"/>
	<rect x="327.53" y="181.642" style="fill:#29292B;" width="9.488" height="17.408"/>
	<rect x="344.498" y="181.642" style="fill:#29292B;" width="9.488" height="17.408"/>
	<rect x="361.478" y="181.642" style="fill:#29292B;" width="9.488" height="17.408"/>
	<rect x="333.172" y="143.076" style="fill:#29292B;" width="7.023" height="12.885"/>
	<rect x="345.731" y="143.076" style="fill:#29292B;" width="7.023" height="12.885"/>
	<rect x="358.291" y="143.076" style="fill:#29292B;" width="7.023" height="12.885"/>
	<rect x="336.536" y="121.029" style="fill:#29292B;" width="5.553" height="10.188"/>
	<rect x="346.463" y="121.029" style="fill:#29292B;" width="5.553" height="10.188"/>
	<rect x="356.4" y="121.029" style="fill:#29292B;" width="5.553" height="10.188"/>
	<rect x="319.045" y="259.215" style="fill:#29292B;" width="9.488" height="17.408"/>
	<rect x="336.014" y="259.215" style="fill:#29292B;" width="9.488" height="17.408"/>
	<rect x="352.983" y="259.215" style="fill:#29292B;" width="9.488" height="17.408"/>
	<rect x="369.962" y="259.215" style="fill:#29292B;" width="9.488" height="17.408"/>
	<rect x="319.045" y="285.577" style="fill:#29292B;" width="9.488" height="17.408"/>
	<rect x="336.014" y="285.577" style="fill:#29292B;" width="9.488" height="17.408"/>
	<rect x="352.983" y="285.577" style="fill:#29292B;" width="9.488" height="17.408"/>
	<rect x="369.962" y="285.577" style="fill:#29292B;" width="9.488" height="17.408"/>
	<rect x="319.045" y="311.95" style="fill:#29292B;" width="9.488" height="17.408"/>
	<rect x="336.014" y="311.95" style="fill:#29292B;" width="9.488" height="17.408"/>
	<rect x="352.983" y="311.95" style="fill:#29292B;" width="9.488" height="17.408"/>
	<rect x="369.962" y="311.95" style="fill:#29292B;" width="9.488" height="17.408"/>
	<rect x="319.045" y="338.312" style="fill:#29292B;" width="9.488" height="17.408"/>
	<rect x="336.014" y="338.312" style="fill:#29292B;" width="9.488" height="17.408"/>
	<rect x="352.983" y="338.312" style="fill:#29292B;" width="9.488" height="17.408"/>
	<rect x="369.962" y="338.312" style="fill:#29292B;" width="9.488" height="17.408"/>
	<rect x="319.045" y="364.685" style="fill:#29292B;" width="9.488" height="17.408"/>
	<rect x="336.014" y="364.685" style="fill:#29292B;" width="9.488" height="17.408"/>
	<rect x="352.983" y="364.685" style="fill:#29292B;" width="9.488" height="17.408"/>
	<rect x="369.962" y="364.685" style="fill:#29292B;" width="9.488" height="17.408"/>
</g>
<path style="fill:#C5AA8F;" d="M460.034,410.633C413.286,472.229,339.288,511.997,256,511.997S98.714,472.229,51.966,410.633  H460.034z"/>
<g>
	<path style="fill:#A7805B;" d="M460.034,410.633C413.286,472.229,339.288,511.997,256,511.997V410.633H460.034z"/>
	<rect x="96.903" y="426.25" style="fill:#A7805B;" width="68.262" height="12.809"/>
	<rect x="188.612" y="439.06" style="fill:#A7805B;" width="49.611" height="12.808"/>
	<rect x="159.544" y="467.178" style="fill:#A7805B;" width="49.611" height="12.808"/>
</g>
<g>
	<rect x="349.357" y="424.881" style="fill:#866746;" width="68.262" height="12.809"/>
	<rect x="305.482" y="465.809" style="fill:#866746;" width="49.611" height="12.808"/>
	<rect x="273.509" y="437.691" style="fill:#866746;" width="49.611" height="12.808"/>
</g>
<g>
</g>
<g>
</g>
<g>
</g>
<g>
</g>
<g>
</g>
<g>
</g>
<g>
</g>
<g>
</g>
<g>
</g>
<g>
</g>
<g>
</g>
<g>
</g>
<g>
</g>
<g>
</g>
<g>
</g>
</svg>
