<svg id="Capa_1" enable-background="new 0 0 512 512" height="512" viewBox="0 0 512 512" width="512" xmlns="http://www.w3.org/2000/svg"><path d="m288 135.382-61.041-45.781c-22.023-16.517-50.506-21.777-76.975-14.214l-43.641 12.469c-15.593 4.454-26.343 18.706-26.343 34.922v.04c0 12.758-6.694 24.58-17.634 31.144l-4.733 2.84c-10.939 6.564-17.633 18.386-17.633 31.144v9.98c0 11.033-5.015 21.469-13.631 28.361l-12.738 10.19c-8.616 6.892-13.631 17.328-13.631 28.361v71.162l38.156 37.262 473.844-149.262v-28.322c0-15.892-11.663-29.376-27.389-31.666z" fill="#e6aa55"/><path d="m384 192h50.593c13.374 0 25.863 6.684 33.282 17.812l20.125 30.188h-104z" fill="#ff6e64"/><path d="m32 352v-18.61c0-13.109 7.407-25.093 19.132-30.956l9.736-4.868c11.725-5.863 19.132-17.847 19.132-30.956 0-19.115 15.495-34.61 34.61-34.61h23.054c9.179 0 17.982-3.646 24.473-10.137l21.863-21.863 56-24v200h-200z" fill="#ff6e64"/><circle cx="184" cy="152" fill="#e6c35a" r="56"/><circle cx="184" cy="152" fill="#e6aa55" r="32"/><path d="m248 152c0-35.289-28.711-64-64-64s-64 28.711-64 64c0 32.578 24.476 59.531 56 63.482v72.518c0 4.418 3.582 8 8 8s8-3.582 8-8v-72.518c31.525-3.952 56-30.904 56-63.482zm-56 47.321v-31.321c0-4.418-3.582-8-8-8s-8 3.582-8 8v31.321c-22.672-3.821-40-23.58-40-47.321 0-26.467 21.531-48 48-48s48 21.533 48 48c0 23.741-17.328 43.499-40 47.321z" fill="#a0555a"/><circle cx="432" cy="96" fill="#e6c35a" r="72"/><path d="m480 96c0-28.422-24.702-51.074-53.808-47.658-20.965 2.46-38.348 19.107-41.592 39.965-2.52 16.202 3.087 31.154 13.355 41.476 6.208 6.241 10.046 14.439 10.046 23.242v10.79c7.517 2.661 15.571 4.185 24 4.185s16.483-1.523 24-4.185v-10.824c0-8.538 3.407-16.727 9.52-22.688 8.927-8.705 14.479-20.846 14.479-34.303z" fill="#e6aa55"/><path d="m512 96c0-44.111-35.887-80-80-80s-80 35.889-80 80c0 41.412 31.629 75.572 72 79.599v80.401c0 4.418 3.582 8 8 8s8-3.582 8-8v-80.401c40.37-4.027 72-38.187 72-79.599zm-72 63.482v-20.17l21.656-21.656c3.125-3.123 3.125-8.189 0-11.313-3.125-3.125-8.188-3.125-11.313 0l-10.343 10.344v-20.687c0-4.418-3.582-8-8-8s-8 3.582-8 8v63.482c-31.525-3.952-56-30.904-56-63.482 0-35.289 28.711-64 64-64s64 28.711 64 64c0 32.578-24.476 59.53-56 63.482z" fill="#a0555a"/><path d="m384 112-72-56-72 56v128h144z" fill="#ff6e64"/><path d="m312 56-80 56v120c0 4.418 3.582 8 8 8h144c4.418 0 8-3.582 8-8v-120zm64 168h-128v-91.777l64-46.547 64 46.547z" fill="#a0555a"/><path d="m512 349.753-280 88.247v-174l280 8z" fill="#917d6e"/><path d="m96.837 376c-10.899 0-21.474-3.709-29.985-10.518l-13.705-10.964c-8.51-6.809-19.084-10.518-29.984-10.518l-23.163 24v64c0 8.837 7.163 16 16 16h140.254l21.746-14 22-58z" fill="#beaa96"/><path d="m66.852 365.481-13.704-10.963c-8.511-6.809-19.086-10.518-29.985-10.518l-23.163 8v16h23.164c5.426 0 10.75 1.867 14.992 5.262l13.703 10.961c12.719 10.175 28.692 15.777 44.977 15.777h55.164c13.254 0 24-10.746 24-24h-79.163c-10.899 0-21.474-3.71-29.985-10.519z" fill="#d1c3aa"/><path d="m120 384h-23.164c-12.668 0-25.09-4.357-34.98-12.27l-13.707-10.967c-7.063-5.65-15.938-8.763-24.985-8.763h-23.164v-16h23.164c12.668 0 25.09 4.357 34.98 12.27l13.707 10.967c7.062 5.65 15.937 8.764 24.984 8.764h23.165z" fill="#917d6e"/><path d="m104 360h16v88h-16z" fill="#a7d9ff"/><circle cx="200" cy="352" fill="#beaa96" r="88"/><path d="m472 384c-4.418 0-8-3.582-8-8v-112c0-4.418 3.582-8 8-8s8 3.582 8 8v112c0 4.418-3.582 8-8 8z" fill="#2d2d4b"/><path d="m424 384c-4.418 0-8-3.582-8-8v-112c0-4.418 3.582-8 8-8s8 3.582 8 8v112c0 4.418-3.582 8-8 8z" fill="#2d2d4b"/><path d="m376 384c-4.418 0-8-3.582-8-8v-112c0-4.418 3.582-8 8-8s8 3.582 8 8v112c0 4.418-3.582 8-8 8z" fill="#2d2d4b"/><path d="m328 384c-4.418 0-8-3.582-8-8v-112c0-4.418 3.582-8 8-8s8 3.582 8 8v112c0 4.418-3.582 8-8 8z" fill="#2d2d4b"/><path d="m280 320c-4.418 0-8-3.582-8-8v-48c0-4.418 3.582-8 8-8s8 3.582 8 8v48c0 4.418-3.582 8-8 8z" fill="#2d2d4b"/><path d="m512 240-288-8-24 32 312-8z" fill="#beaa96"/><g fill="#917d6e"><path d="m200 344c-4.418 0-8-3.582-8-8v-72c0-4.418 3.582-8 8-8s8 3.582 8 8v72c0 4.418-3.582 8-8 8z"/><path d="m200 360c-4.418 0-8 3.582-8 8v72h16v-72c0-4.418-3.582-8-8-8z"/><path d="m288 360h-72c-4.418 0-8-3.582-8-8s3.582-8 8-8h72c4.418 0 8 3.582 8 8s-3.582 8-8 8z"/><path d="m184 360h-72c-4.418 0-8-3.582-8-8s3.582-8 8-8h72c4.418 0 8 3.582 8 8s-3.582 8-8 8z"/><path d="m211.312 348.685c-2.047 0-4.094-.781-5.656-2.344-3.125-3.123-3.125-8.189 0-11.313l50.914-50.91c3.125-3.125 8.188-3.125 11.313 0 3.125 3.123 3.125 8.189 0 11.312l-50.914 50.91c-1.563 1.564-3.61 2.345-5.657 2.345z"/><path d="m137.773 422.224c-2.047 0-4.094-.781-5.656-2.344-3.125-3.123-3.125-8.189 0-11.313l50.914-50.91c3.125-3.125 8.188-3.125 11.312 0 3.125 3.123 3.125 8.189 0 11.312l-50.914 50.91c-1.562 1.564-3.609 2.345-5.656 2.345z"/><path d="m262.226 422.224c-2.047 0-4.094-.781-5.656-2.344l-50.914-50.91c-3.125-3.123-3.125-8.189 0-11.312 3.125-3.125 8.188-3.125 11.313 0l50.914 50.91c3.125 3.123 3.125 8.189 0 11.313-1.563 1.562-3.61 2.343-5.657 2.343z"/><path d="m188.687 348.685c-2.047 0-4.094-.781-5.656-2.344l-50.914-50.91c-3.125-3.123-3.125-8.189 0-11.312 3.125-3.125 8.188-3.125 11.313 0l50.914 50.91c3.125 3.123 3.125 8.189 0 11.313-1.563 1.562-3.61 2.343-5.657 2.343z"/><path d="m206.398 268.801-12.797-9.602 19.199-25.6c4.508-6.012 11.688-9.6 19.199-9.6h280v16h-279.999c-2.504 0-4.898 1.197-6.402 3.201z"/></g><path d="m200 376c-13.234 0-24-10.766-24-24s10.766-24 24-24 24 10.766 24 24-10.766 24-24 24zm0-32c-4.41 0-8 3.588-8 8s3.59 8 8 8 8-3.588 8-8-3.59-8-8-8z" fill="#2d2d4b"/><path d="m120 352c0-44.111 35.887-80 80-80s80 35.889 80 80c0 20.253-7.58 38.76-20.033 52.869 5.835 1.703 11.801 2.678 17.827 3.312 11.446-15.806 18.206-35.218 18.206-56.181 0-52.934-43.066-96-96-96s-96 43.066-96 96c0 42.682 28.004 78.942 66.6 91.389 2.606-4.873 5.347-9.665 8.564-14.158-34.039-9.194-59.164-40.327-59.164-77.231z" fill="#2d2d4b"/><path d="m419.641 381.089c-7.644 1.911-15.64 1.911-23.283 0l-28.712-7.178c-14.862-3.715-30.604-.114-42.372 9.693l-15.923 13.27c-8.626 7.189-19.5 11.126-30.729 11.126h-56.14c-14.245 0-27.755 6.327-36.875 17.271l12.297 22.729h298.096c8.837 0 16-7.163 16-16v-48z" fill="#917d6e"/><path d="m419.641 381.089c-7.644 1.911-15.64 1.911-23.283 0l-28.712-7.178c-14.861-3.715-30.603-.115-42.371 9.692l-15.925 13.271c-8.626 7.188-19.5 11.125-30.729 11.125h-56.14c-14.246 0-27.755 6.327-36.874 17.271l-8.53 22.73h20.827l6.135-7.363c4.578-5.488 11.297-8.637 18.441-8.637h56.141c16.805 0 33.176-5.926 46.094-16.688l15.93-13.273c5.859-4.887 13.77-6.707 21.18-4.844l28.715 7.18c11.422 2.852 23.5 2.852 34.922 0l86.538-20.375v-17.753z" fill="#beaa96"/><path d="m280 152c-4.418 0-8-3.582-8-8v-8c0-4.418 3.582-8 8-8 4.418 0 8 3.582 8 8v8c0 4.418-3.582 8-8 8z" fill="#fff"/><path d="m344 152c-4.418 0-8-3.582-8-8v-8c0-4.418 3.582-8 8-8 4.418 0 8 3.582 8 8v8c0 4.418-3.582 8-8 8z" fill="#fff"/><path d="m280 200c-4.418 0-8-3.582-8-8v-8c0-4.418 3.582-8 8-8 4.418 0 8 3.582 8 8v8c0 4.418-3.582 8-8 8z" fill="#fff"/><path d="m344 200c-4.418 0-8-3.582-8-8v-8c0-4.418 3.582-8 8-8 4.418 0 8 3.582 8 8v8c0 4.418-3.582 8-8 8z" fill="#fff"/><path d="m399.992 128c-1.629 0-3.277-.496-4.699-1.529l-83.293-60.578-83.293 60.578c-3.586 2.6-8.582 1.803-11.176-1.766-2.602-3.572-1.809-8.576 1.762-11.176l88-64c2.805-2.039 6.609-2.039 9.414 0l88 64c3.57 2.6 4.363 7.604 1.762 11.176-1.563 2.152-4.004 3.295-6.477 3.295z" fill="#2d2d4b"/><path d="m200 256h312v16h-312z" fill="#2d2d4b"/><circle cx="360" cy="424" fill="#beaa96" r="8"/><circle cx="464" cy="416" fill="#2d2d4b" r="8"/><path d="m48 472c0 13.255 10.745 24 24 24h352c13.255 0 24-10.745 24-24z" fill="#a7d9ff"/><path d="m488 480h-480c-4.418 0-8-3.582-8-8 0-4.418 3.582-8 8-8h480c4.418 0 8 3.582 8 8 0 4.418-3.582 8-8 8z" fill="#6bb2ff"/><path d="m512 349.753-94.301 23.575c-6.34 1.586-13.051 1.586-19.398 0l-28.715-7.18c-17.297-4.324-35.758-.09-49.43 11.313l-15.926 13.266c-7.176 5.98-16.273 9.273-25.609 9.273h-56.141c-16.668 0-32.348 7.344-43.02 20.148l-23.206 27.852h20.823l14.673-17.609c7.625-9.145 18.824-14.391 30.73-14.391h56.141c13.07 0 25.805-4.609 35.852-12.98l15.926-13.27c9.77-8.145 22.973-11.16 35.305-8.078l28.715 7.18c8.891 2.219 18.273 2.219 27.164 0l90.417-22.605z" fill="#2d2d4b"/></svg>