<?xml version="1.0" encoding="iso-8859-1"?>
<!-- Generator: Adobe Illustrator 19.0.0, SVG Export Plug-In . SVG Version: 6.00 Build 0)  -->
<svg xmlns="http://www.w3.org/2000/svg" xmlns:xlink="http://www.w3.org/1999/xlink" version="1.1" id="Layer_1" x="0px" y="0px" viewBox="0 0 512 512" style="enable-background:new 0 0 512 512;" xml:space="preserve">
<circle style="fill:#005ECE;" cx="255.996" cy="255.997" r="255.996"/>
<path style="fill:#004DAD;" d="M512,256c0-22.194-2.827-43.728-8.136-64.263l-67.867-67.867c-3.104,0-17.933,0-17.933,0  s5.863-0.432,7.07-0.862c1.207-0.432,6.495-3.367,1.896-3.367c-4.599,0-5.978,0-13.796,0c-5.867,0-14.065,3.151-17.79,4.724  l0.078-0.194h-44.289L280.12,53.418c-8.446-11.506-24.072-11.106-24.123-11.105c-0.07-0.002-29.402-0.781-29.402,29.402  c0,19.936,0,37.403,0,46.985l-48.639,6.263h-61.478l0.034,0.083c-2.158-0.971-12.395-5.406-19.358-5.406c-7.817,0-9.197,0-13.796,0  c-4.599,0,0.69,2.935,1.896,3.367c1.207,0.432,7.07,0.862,7.07,0.862s-14.83,0-17.933,0c-2.362,0,0.079,5.738,5.635,9.547  L211.902,265.78v118.093h-35.23v0.005h-2.848l-14.03,13.612v12.945l16.879,15.555v73.462c24.978,8.133,51.635,12.548,79.327,12.548  C397.385,512,512,397.385,512,256z"/>
<path style="fill:#AEADB3;" d="M393.46,125.236c0,0,11.956-5.595,19.773-5.595s9.197,0,13.796,0c4.599,0-0.69,2.935-1.896,3.367  c-1.207,0.432-7.07,0.862-7.07,0.862s14.83,0,17.933,0c3.104,0-2.069,9.915-11.726,12.33c-9.657,2.415-35.178,0-35.178,0  L393.46,125.236z"/>
<path style="fill:#E1E1E3;" d="M313.118,124.17l-43.932-7.141h-29.617l-61.613,7.934h-61.478l21.078,50.004h42.156l29.681,12.694  v72.178c0,0,0.83,0.842,2.51,2.167v127.579h94.188v-90.275c2.9,3.982,4.07,6.941,4.07,6.941V187.661l23.242-10.314h40.611  l21.508-53.177H313.118z"/>
<path style="fill:#D8D8DA;" d="M313.118,124.17l-43.932-7.141h-13.19v272.557h50.094v-90.275c2.9,3.982,4.07,6.941,4.07,6.941  V187.661l23.242-10.314h40.611l21.508-53.177H313.118z"/>
<path style="fill:#C8C6CC;" d="M116.929,125.236c0,0-11.956-5.595-19.773-5.595c-7.817,0-9.197,0-13.796,0  c-4.599,0,0.69,2.935,1.896,3.367c1.207,0.432,7.07,0.862,7.07,0.862s-14.83,0-17.933,0c-3.104,0,2.069,9.915,11.726,12.33  c9.657,2.415,35.777-0.033,35.777-0.033L116.929,125.236z"/>
<g>
	<rect x="222.362" y="257.627" style="fill:#AAA9AF;" width="6.599" height="131.958"/>
	<rect x="244.586" y="257.627" style="fill:#AAA9AF;" width="6.599" height="131.958"/>
</g>
<g>
	<rect x="266.811" y="257.627" style="fill:#78777F;" width="6.599" height="131.958"/>
	<rect x="289.025" y="257.627" style="fill:#78777F;" width="6.599" height="131.958"/>
</g>
<path style="fill:#AAA9AF;" d="M255.996,42.313c-0.07-0.002-29.402-0.781-29.402,29.401c0,30.218,0,54.776,0,54.776h58.804  c0,0,0-24.558,0-54.776C285.398,41.533,256.066,42.311,255.996,42.313z"/>
<path style="fill:#78777F;" d="M285.398,71.715c0-30.182-29.332-29.403-29.402-29.402l0,0v84.177h29.402  C285.398,126.491,285.398,101.933,285.398,71.715z"/>
<polygon style="fill:#D8D8DA;" points="265.151,103.157 246.841,103.157 243.583,122.253 268.41,122.253 "/>
<polygon style="fill:#C8C6CC;" points="268.41,122.253 265.151,103.157 255.996,103.157 255.996,122.253 "/>
<path style="fill:#E1E1E3;" d="M335.327,383.873v115.595c-24.973,8.129-51.638,12.528-79.328,12.528s-54.355-4.399-79.328-12.528  V383.873H335.327z"/>
<path style="fill:#C8C6CC;" d="M335.327,383.873v115.595c-24.973,8.129-51.638,12.528-79.328,12.528V383.873H335.327z"/>
<polygon style="fill:#78777F;" points="338.176,383.878 173.824,383.878 159.794,397.49 159.794,410.435 352.206,410.435   352.206,397.49 "/>
<polygon style="fill:#57555C;" points="352.206,397.49 338.176,383.878 255.996,383.878 255.996,410.435 352.206,410.435 "/>
<path style="fill:#E1E1E3;" d="M258.36,107.241h-4.719c-10.915,0-19.845-8.931-19.845-19.845V68.811  c0-10.915,8.931-19.845,19.845-19.845h4.719c10.915,0,19.845,8.931,19.845,19.845v18.584  C278.204,98.311,269.275,107.241,258.36,107.241z"/>
<path style="fill:#D8D8DA;" d="M258.36,48.966h-2.364v58.275h2.362c10.915,0,19.845-8.931,19.845-19.845V68.811  C278.204,57.896,269.275,48.966,258.36,48.966z"/>
<g>
	<rect x="240.908" y="64.01" style="fill:#AAA9AF;" width="10.951" height="4.745"/>
	<rect x="249.497" y="88.095" style="fill:#AAA9AF;" width="12.995" height="4.745"/>
</g>
<g>
	<rect x="255.996" y="88.095" style="fill:#78777F;" width="6.498" height="4.745"/>
	<polygon style="fill:#78777F;" points="255.999,64.007 255.999,83.217 260.744,83.217 260.744,68.752 271.082,68.752    271.082,64.007  "/>
</g>
<g>
	<polygon style="fill:#C8C6CC;" points="205.359,143.443 205.359,235.421 215.502,231.516 232.17,240.479 232.17,143.443  "/>
	<path style="fill:#C8C6CC;" d="M284.553,119.527L284.553,119.527l-15.367-2.497h-29.471l-61.759,7.934   c0,0,18.107,33.288,64.832,33.288c16.993,0,30.912-4.514,41.766-10.25V318.81l18.185,21.823l10.38-3.897V124.17L284.553,119.527z"/>
</g>
<path style="fill:#AAA9AF;" d="M284.553,119.527l-15.367-2.497h-13.19v40.272c11.139-1.612,20.663-5.128,28.557-9.301V318.81  l18.185,21.823l10.38-3.897V124.17L284.553,119.527z"/>
<g>
</g>
<g>
</g>
<g>
</g>
<g>
</g>
<g>
</g>
<g>
</g>
<g>
</g>
<g>
</g>
<g>
</g>
<g>
</g>
<g>
</g>
<g>
</g>
<g>
</g>
<g>
</g>
<g>
</g>
</svg>
