<svg id="Capa_1" enable-background="new 0 0 512 512" height="512" viewBox="0 0 512 512" width="512" xmlns="http://www.w3.org/2000/svg"><path d="m488 204h-464v-80c0-35.346 28.654-64 64-64h336c35.346 0 64 28.654 64 64z" fill="#c8f5f0"/><path d="m240 108h48c8.837 0 16 7.163 16 16 0 8.837-7.163 16-16 16h-48c-8.837 0-16-7.163-16-16 0-8.837 7.163-16 16-16z" fill="#9be7ee"/><path d="m344 108h16c8.837 0 16 7.163 16 16 0 8.837-7.163 16-16 16h-16c-8.837 0-16-7.163-16-16 0-8.837 7.163-16 16-16z" fill="#9be7ee"/><path d="m464 164h-432c-17.673 0-32 14.327-32 32v208h512v-192c0-26.51-21.491-48-48-48z" fill="#9be7ee"/><path d="m24 252 32.448-77.874c4.945-11.867 12.977-22.194 23.262-29.908l55.97-41.978c13.629-10.222 32.877-7.973 43.783 5.114l10.943 13.131c6.08 7.296 15.086 11.514 24.583 11.514h33.804c9.797 0 19.253 3.595 26.575 10.104l60.632 53.897v120h-296z" fill="#c8c8aa"/><path d="m248.792 132h-33.804c-9.497 0-18.503-4.218-24.583-11.514l-10.942-13.131c-10.906-13.087-30.154-15.336-43.783-5.114l-55.97 41.978c-10.285 7.713-18.317 18.041-23.261 29.908l-32.449 77.873 5.808 23.232c7.101-1.783 13.313-6.724 16.344-14.001l32.453-77.879c3.289-7.898 8.648-14.789 15.504-19.934l55.973-41.977c3.402-2.566 8.203-1.996 10.945 1.281l10.938 13.121c10.672 12.809 26.351 20.157 43.023 20.157h33.805c3.922 0 7.695 1.434 10.629 4.043l60.633 53.895c4.577 4.064 10.272 5.968 15.945 5.966v-23.904l-60.633-53.896c-7.323-6.509-16.779-10.104-26.575-10.104z" fill="#ead1aa"/><path d="m394.93 209.861c-6.454-12.907-20.747-19.897-34.897-17.067l-38.978 7.795c-11.108 2.222-22.629 1.022-33.042-3.44l-12.28-5.263c-15.573-6.674-33.65-.053-41.227 15.102l-34.506 69.012 56 88h216z" fill="#c8c8aa"/><path d="m394.93 209.861c-6.454-12.907-20.747-19.897-34.897-17.067l-38.978 7.795c-11.108 2.222-22.629 1.022-33.042-3.44l-12.28-5.263c-15.573-6.674-33.65-.053-41.227 15.102l-34.506 69.012 12.838 20.174c3.555-2.256 6.607-5.4 8.626-9.44l34.512-69.016c1.883-3.789 6.406-5.449 10.305-3.773l12.281 5.266c14.949 6.402 31.277 8.098 47.199 4.914l38.973-7.797c3.566-.715 7.121 1.055 8.73 4.266l71.704 143.406h26.832z" fill="#ead1aa"/><path d="m23.996 260.002c-1.023 0-2.066-.197-3.074-.617-4.078-1.699-6.008-6.383-4.305-10.461l32.449-77.875c5.484-13.172 14.422-24.664 25.844-33.23l55.969-41.978c17.051-12.787 41.086-9.977 54.727 6.395l10.945 13.129c4.574 5.49 11.293 8.637 18.438 8.637h33.805c11.766 0 23.09 4.305 31.887 12.123l60.637 53.898c3.301 2.936 3.598 7.992.664 11.293-2.938 3.305-7.984 3.602-11.297.664l-60.633-53.896c-5.863-5.211-13.414-8.082-21.258-8.082h-33.805c-11.906 0-23.105-5.246-30.727-14.393l-10.945-13.129c-8.184-9.824-22.613-11.508-32.836-3.838l-55.969 41.979c-9.141 6.854-16.289 16.045-20.676 26.58l-32.453 77.877c-1.278 3.072-4.254 4.924-7.387 4.924z" fill="#a0af82"/><path d="m472.008 372.002c-2.938 0-5.762-1.621-7.164-4.424l-77.07-154.139c-4.824-9.652-15.609-14.926-26.172-12.803l-38.977 7.797c-12.75 2.557-25.816 1.191-37.766-3.932l-12.277-5.264c-11.648-4.992-25.242-.027-30.918 11.326l-34.508 69.014c-1.977 3.945-6.77 5.561-10.734 3.578-3.953-1.977-5.555-6.783-3.578-10.734l34.508-69.012c9.461-18.918 32.086-27.205 51.535-18.879l12.277 5.264c8.965 3.842 18.758 4.863 28.324 2.949l38.973-7.795c17.664-3.531 35.578 5.248 43.625 21.334l77.07 154.139c1.977 3.953.375 8.758-3.578 10.734-1.149.575-2.371.847-3.57.847z" fill="#a0af82"/><path d="m231.891 306.685-16-96c-.641-3.857-3.981-6.685-7.891-6.685s-7.25 2.828-7.891 6.686l-16 96c-.387 2.318.266 4.691 1.785 6.486 1.52 1.793 3.754 2.828 6.105 2.828h32c2.352 0 4.586-1.035 6.105-2.828 1.521-1.795 2.173-4.168 1.787-6.487z" fill="#3c8c82"/><path d="m271.891 330.685-16-96c-.641-3.857-3.981-6.685-7.891-6.685s-7.25 2.828-7.891 6.686l-16 96c-.387 2.318.266 4.691 1.785 6.486 1.52 1.793 3.754 2.828 6.105 2.828h32c2.352 0 4.586-1.035 6.105-2.828 1.521-1.795 2.173-4.168 1.787-6.487z" fill="#3c8c82"/><path d="m335.891 338.685-16-96c-.641-3.857-3.981-6.685-7.891-6.685s-7.25 2.828-7.891 6.686l-16 96c-.387 2.318.266 4.691 1.785 6.486 1.52 1.793 3.754 2.828 6.105 2.828h32c2.352 0 4.586-1.035 6.105-2.828 1.521-1.795 2.173-4.168 1.787-6.487z" fill="#3c8c82"/><path d="m391.89 362.685-16-96c-.64-3.857-3.98-6.685-7.89-6.685s-7.25 2.828-7.891 6.686l-16 96c-.387 2.318.266 4.691 1.785 6.486 1.52 1.793 3.754 2.828 6.105 2.828h32c2.352 0 4.586-1.035 6.105-2.828 1.521-1.795 2.173-4.168 1.786-6.487z" fill="#3c8c82"/><path d="m512 388-60.877-29.875c-12.473-1.386-24.263-6.408-33.904-14.442l-19.978-16.648c-8.673-7.227-19.103-12.032-30.233-13.926l-367.008-37.109v128l7 8h484.5l20.5-8z" fill="#3c8c82"/><path d="m417.219 343.682-19.978-16.648c-8.673-7.228-19.103-12.032-30.233-13.926l-367.008-54.082v16.974l362.98 60.77c6.945 1.184 13.484 4.191 18.898 8.703l19.977 16.652c13.301 11.074 29.418 17.941 46.617 19.852 0 0 62.651 6.022 63.527 6.023v-24l-60.877-5.875c-12.472-1.386-24.262-6.409-33.903-14.443z" fill="#69b47d"/><path d="m512 356.439-59.992-6.263c-10.945-1.219-21.207-5.59-29.668-12.637l-19.977-16.652c-9.75-8.117-21.512-13.535-34.02-15.664l-368.343-62.423v16.226l365.664 61.97c9.727 1.656 18.875 5.871 26.457 12.184l19.977 16.652c10.883 9.063 24.07 14.68 38.195 16.25l61.707 6.443z" fill="#3c576c"/><path d="m128 212h-48l-16 32h80z" fill="#5f5f6e"/><path d="m72 244h64v64h-64z" fill="#ff6e64"/><path d="m40 308h64v104h-64z" fill="#beaa96"/><path d="m344 292h-80v48h96z" fill="#5f5f6e"/><path d="m264 340h96v72h-96z" fill="#ff6e64"/><path d="m168 276h96v136h-96z" fill="#beaa96"/><path d="m168 276h96v32h-96z" fill="#5f5f6e"/><path d="m112 308-16 32h112l-16-32z" fill="#5f5f6e"/><path d="m104 340h96v72h-96z" fill="#ff6e64"/><path d="m432 452h-352c-13.255 0-24-10.745-24-24h400c0 13.255-10.745 24-24 24z" fill="#aad264"/><path d="m496 436h-480c-8.837 0-16-7.163-16-16l8.5-8h494.5l9 8c0 8.836-7.164 16-16 16z" fill="#69b47d"/><g fill="#fff"><path d="m136 388c-4.418 0-8-3.582-8-8v-8c0-4.418 3.582-8 8-8 4.418 0 8 3.582 8 8v8c0 4.418-3.582 8-8 8z"/><path d="m168 388c-4.418 0-8-3.582-8-8v-8c0-4.418 3.582-8 8-8 4.418 0 8 3.582 8 8v8c0 4.418-3.582 8-8 8z"/><path d="m328 388c-4.418 0-8-3.582-8-8v-8c0-4.418 3.582-8 8-8 4.418 0 8 3.582 8 8v8c0 4.418-3.582 8-8 8z"/><path d="m296 388c-4.418 0-8-3.582-8-8v-8c0-4.418 3.582-8 8-8 4.418 0 8 3.582 8 8v8c0 4.418-3.582 8-8 8z"/><path d="m232 388c-4.418 0-8-3.582-8-8v-8c0-4.418 3.582-8 8-8 4.418 0 8 3.582 8 8v8c0 4.418-3.582 8-8 8z"/><path d="m232 348c-4.418 0-8-3.582-8-8 0-4.418 3.582-8 8-8 4.418 0 8 3.582 8 8 0 4.418-3.582 8-8 8z"/></g><path d="m392 388c-4.418 0-8-3.582-8-8 0-4.418 3.582-8 8-8 4.418 0 8 3.582 8 8 0 4.418-3.582 8-8 8z" fill="#69b47d"/><path d="m72 388c-4.418 0-8-3.582-8-8v-8c0-4.418 3.582-8 8-8 4.418 0 8 3.582 8 8v8c0 4.418-3.582 8-8 8z" fill="#fff"/><path d="m72 348c-4.418 0-8-3.582-8-8 0-4.418 3.582-8 8-8 4.418 0 8 3.582 8 8 0 4.418-3.582 8-8 8z" fill="#fff"/><path d="m104 284c-4.418 0-8-3.582-8-8 0-4.418 3.582-8 8-8 4.418 0 8 3.582 8 8 0 4.418-3.582 8-8 8z" fill="#fff"/><path d="m368 404v-64c0-.013-.002-.026-.002-.04-.001-.199-.014-.398-.03-.598-.006-.074-.008-.15-.016-.224-.016-.151-.044-.301-.069-.452-.02-.123-.038-.247-.063-.369-.021-.098-.05-.195-.075-.293-.043-.169-.086-.337-.14-.502-.006-.017-.009-.035-.015-.052l-16-48c-1.09-3.267-4.145-5.47-7.59-5.47h-72v-8-16c0-4.418-3.582-8-8-8s-8 3.582-8 8v8h-80v-8c0-4.418-3.582-8-8-8s-8 3.582-8 8v16 24h-16v-48c2.773 0 5.348-1.436 6.805-3.795 1.457-2.357 1.59-5.303.352-7.783l-16-32c-1.356-2.709-4.126-4.422-7.157-4.422h-48c-3.031 0-5.801 1.713-7.156 4.422l-16 32c-1.238 2.48-1.105 5.426.352 7.783 1.456 2.359 4.031 3.795 6.804 3.795v48h-24c-4.418 0-8 3.582-8 8v96h-32v16h512v-16zm-180.945-88 8 16h-19.055v-16zm4.945 32v56h-80v-56zm16 0c2.773 0 5.348-1.436 6.805-3.795 1.457-2.357 1.59-5.303.352-7.783l-10.212-20.422h51.055v88h-48zm64 0h80v56h-80zm66.234-48 10.666 32h-76.9v-32zm-162.234-16h80v16h-80zm-16 48h-51.055l8-16h43.055zm-75.055-112h38.109l8 16h-54.109zm-4.945 32h48v48h-48zm-32 64h51.055l-10.211 20.422c-1.238 2.48-1.105 5.426.352 7.783 1.456 2.359 4.03 3.795 6.804 3.795v56h-48z" fill="#2d2d4b"/></svg>