<svg id="Capa_1" enable-background="new 0 0 512.003 512.003" height="512" viewBox="0 0 512.003 512.003" width="512" xmlns="http://www.w3.org/2000/svg"><g fill="#5f5f6e"><path d="m271.998 102.331c-3.293 0-6.375-2.047-7.539-5.326-1.477-4.164.699-8.738 4.863-10.215l232.004-82.324c4.184-1.488 8.734.699 10.215 4.863 1.477 4.164-.699 8.738-4.863 10.215l-232.004 82.324c-.887.314-1.79.463-2.676.463z"/><path d="m8.002 196.007c-3.293 0-6.375-2.047-7.539-5.326-1.477-4.164.699-8.738 4.863-10.215l232.004-82.325c4.176-1.488 8.734.699 10.215 4.863 1.477 4.164-.699 8.738-4.863 10.215l-232.005 82.325c-.886.314-1.789.463-2.675.463z"/><path d="m256.001 164.005c-4.418 0-8-3.582-8-8v-40c0-4.418 3.582-8 8-8s8 3.582 8 8v40c0 4.418-3.582 8-8 8z"/></g><path d="m400.92 167.429-45.538-19.936c-22.353-9.786-47.949-8.835-69.514 2.582l-81.57 43.184c-13.005 6.885-28.198 8.375-42.293 4.146l-27.526-8.258c-18.899-5.67-39.387-.975-53.932 12.358l-62.57 57.874c-11.46 10.599-17.975 25.501-17.975 41.11v39.515l432-8z" fill="#7fd2cd"/><path d="m512.001 175.106-40.676-21.993c-24.343-8.114-51.165-2.66-70.405 14.317l-72.704 64.151c-19.844 17.51-47.695 22.721-72.528 13.572l-69.888-25.749c-25.613-9.436-54.36-3.577-74.237 15.13l-111.561 105.471v58.632l487-2.632z" fill="#69b4a0"/><path d="m183.892 354.69-16-96c-.641-3.857-3.98-6.686-7.891-6.686s-7.25 2.828-7.891 6.686l-16 96c-.387 2.318.266 4.691 1.785 6.486 1.52 1.793 3.754 2.828 6.105 2.828h32c2.352 0 4.586-1.035 6.105-2.828 1.522-1.795 2.174-4.168 1.787-6.486z" fill="#3c8c82"/><path d="m143.892 386.69-16-96c-.641-3.857-3.98-6.686-7.891-6.686s-7.25 2.828-7.891 6.686l-16 96c-.387 2.318.266 4.691 1.785 6.486 1.52 1.793 3.754 2.828 6.105 2.828h32c2.352 0 4.586-1.035 6.105-2.828 1.522-1.795 2.174-4.168 1.787-6.486z" fill="#3c8c82"/><path d="m128.013 252.012c13.344-12.559 32.301-16.414 49.492-10.09l69.887 25.75c33.152 12.215 70.211 5.277 96.703-18.098l72.703-64.148c12.777-11.285 30.762-14.953 46.938-9.543l48.266 16.15v-16.928l-40.676-21.993c-24.343-8.114-51.165-2.66-70.405 14.317l-72.704 64.15c-19.844 17.51-47.694 22.722-72.527 13.572l-69.89-25.747c-25.613-9.437-54.36-3.578-74.237 15.13l-111.561 114.606v24.469z" fill="#7fd2cd"/><path d="m391.892 322.69-16-96c-.641-3.857-3.98-6.686-7.891-6.686s-7.25 2.828-7.891 6.686l-16 96c-.387 2.318.266 4.691 1.785 6.486 1.52 1.793 3.754 2.828 6.105 2.828h32c2.352 0 4.586-1.035 6.105-2.828 1.521-1.795 2.174-4.168 1.787-6.486z" fill="#3c8c82"/><path d="m319.892 346.69-16-96c-.641-3.857-3.98-6.686-7.891-6.686s-7.25 2.828-7.891 6.686l-16 96c-.387 2.318.266 4.691 1.785 6.486 1.52 1.793 3.754 2.828 6.105 2.828h32c2.352 0 4.586-1.035 6.105-2.828 1.521-1.795 2.174-4.168 1.787-6.486z" fill="#3c8c82"/><path d="m447.892 298.69-16-96c-.641-3.857-3.98-6.686-7.891-6.686s-7.25 2.828-7.891 6.686l-16 96c-.387 2.318.266 4.691 1.785 6.486 1.52 1.793 3.754 2.828 6.105 2.828h32c2.352 0 4.586-1.035 6.105-2.828 1.521-1.795 2.174-4.168 1.787-6.486z" fill="#3c8c82"/><path d="m496 152.905-22.146-7.382c-27.047-9.015-56.849-2.955-78.227 15.907l-72.708 64.153c-17.638 15.563-42.392 20.194-64.464 12.062l-69.887-25.75c-28.66-10.555-60.258-4.109-82.449 16.781l-106.117 98.623v21.84l117.047-108.78c17.781-16.742 43.043-21.898 65.988-13.449l69.887 25.75c27.59 10.166 58.533 4.376 80.581-15.078l72.708-64.153c17.103-15.091 40.945-19.939 62.583-12.726l43.206 14.402c-.001-10.072-6.446-19.015-16.002-22.2z" fill="#69b4a0"/><circle cx="256.001" cy="100.005" fill="#5f5f6e" r="16"/><path d="m184.001 220.005 9.367 18.733c4.065 8.131 12.375 13.267 21.466 13.267h82.334c9.091 0 17.401-5.136 21.466-13.267l9.367-18.733z" fill="#ff6e64"/><path d="m353.357 278.174c-16.694 9.106-35.207 14.378-54.193 15.433l-76.22 4.234c-25.587 1.421-50.459 8.968-72.521 22.005l-150.421 117.895v22.264l9.667 14.997 439.333-14.667 63-240.328z" fill="#cdf0ff"/><path d="m353.357 278.174c-16.694 9.106-35.207 14.378-54.193 15.433l-76.22 4.234c-25.587 1.421-50.459 8.968-72.521 22.005l-142.421 84.158-8 13.17v20.566l162.633-97.232c18.672-11.031 39.984-17.5 61.641-18.703l76.223-4.234c22.406-1.246 44.66-7.586 64.352-18.328l147.152-79.236v-32.002z" fill="#fff"/><path d="m441.407 327.464c-21.306 28.408-53.456 46.688-88.764 50.472l-142.355 15.252c-17.316 1.855-34.021 7.458-48.956 16.418l-63.034 37.82c-22.442 13.465-48.125 36.908-74.297 36.908l488-8.33v-200z" fill="#a7d9ff"/><path d="m212.845 417.051 142.352-15.254c41.773-4.473 80.195-26.316 105.41-59.934l51.395-65.859v-29.333l-70.595 80.793c-21.306 28.408-53.456 46.688-88.764 50.472l-142.355 15.252c-17.316 1.855-34.021 7.458-48.956 16.418l-63.034 37.82c-22.442 13.465-48.125 28.578-74.297 28.578h72.76l76.919-45.82c11.864-7.117 25.407-11.66 39.165-13.133z" fill="#cdf0ff"/><path d="m56.002 484.004c0 13.255 10.745 24 24 24h352c13.255 0 24-10.745 24-24z" fill="#a7d9ff"/><path d="m336.001 186.116-10.211-20.422c-5.457-10.912-16.426-17.689-28.621-17.689h-82.336c-12.195 0-23.164 6.777-28.621 17.689l-10.211 20.422c-5.602 11.201-5.602 24.576 0 35.777l10.211 20.422c5.457 10.912 16.426 17.689 28.621 17.689h82.336c12.195 0 23.164-6.777 28.621-17.689l10.211-20.422c5.602-11.201 5.602-24.576 0-35.777zm-145.687 7.156 10.211-20.422c2.727-5.457 8.211-8.846 14.309-8.846h82.336c6.098 0 11.582 3.389 14.309 8.846l10.211 20.422c2.915 5.831 3.296 12.642 1.153 18.732h-34.841v-16c0-8.822-7.176-16-16-16h-32c-8.824 0-16 7.178-16 16v16h-34.841c-2.143-6.09-1.762-12.901 1.153-18.732zm49.687 18.733v-16h32v16zm32 16v16h-32v-16zm-71.476 7.154-3.577-7.154h27.054v16h-9.168c-6.098 0-11.582-3.389-14.309-8.846zm96.644 8.846h-9.168v-16h27.054l-3.577 7.154c-2.727 5.457-8.211 8.846-14.309 8.846z" fill="#2d2d4b"/><path d="m256.001 124.005c-13.234 0-24-10.766-24-24s10.766-24 24-24 24 10.766 24 24-10.765 24-24 24zm0-32c-4.41 0-8 3.588-8 8s3.59 8 8 8 8-3.588 8-8-3.589-8-8-8z" fill="#2d2d4b"/><circle cx="232.001" cy="356.005" fill="#fff" r="8"/><circle cx="296.001" cy="436.004" fill="#6bb2ff" r="8"/><circle cx="464.001" cy="388.004" fill="#6bb2ff" r="8"/><circle cx="424.001" cy="420.004" fill="#cdf0ff" r="8"/><circle cx="344.001" cy="332.005" fill="#a7d9ff" r="8"/><circle cx="136.001" cy="388.004" fill="#a7d9ff" r="8"/><path d="m102.416 454.286 63.043-37.825c13.934-8.36 29.522-13.588 45.679-15.319l142.355-15.254c37.379-4 71.754-23.547 94.312-53.621l64.195-85.595v-26.665l-76.992 102.658c-19.973 26.631-50.112 43.769-83.211 47.316l-142.363 15.255c-18.472 1.979-36.291 7.955-52.221 17.513l-63.03 37.817c-21.2 12.72-45.459 19.439-70.182 19.439h-24v16c0 8.837 7.163 16 16 16h480c8.836 0 16-7.164 16-16h-415.239c-4.838 0-8.76-3.922-8.76-8.76 0-3.362 1.951-6.368 4.968-7.852 3.206-1.578 6.365-3.259 9.446-5.107z" fill="#6bb2ff"/><path d="m512.001 183.82-162.477 87.329c-15.547 8.484-33.113 13.488-50.805 14.469l-76.223 4.234c-26.75 1.488-53.082 9.477-76.117 23.094l-146.377 85.69v18.538l154.492-90.439c20.867-12.332 44.691-19.563 68.895-20.906l76.223-4.234c20.047-1.113 39.957-6.785 57.535-16.375l154.855-83.232v-18.168z" fill="#a7d9ff"/></svg>