<?xml version="1.0" encoding="iso-8859-1"?>
<!-- Generator: Adobe Illustrator 19.0.0, SVG Export Plug-In . SVG Version: 6.00 Build 0)  -->
<svg xmlns="http://www.w3.org/2000/svg" xmlns:xlink="http://www.w3.org/1999/xlink" version="1.1" id="Layer_1" x="0px" y="0px" viewBox="0 0 512.001 512.001" style="enable-background:new 0 0 512.001 512.001;" xml:space="preserve">
<circle style="fill:#00A2FF;" cx="256.001" cy="255.996" r="255.996"/>
<path style="fill:#0084FF;" d="M509.157,294.254L351.125,136.221c-31.384-32.643-65.048-46.874-95.12-46.874  c-72.254,0-165.257,82.055-197.492,304.626c0,0,59.793,58.748,99.728,98.679c30.125,12.459,63.138,19.349,97.764,19.349  C384.387,512,490.691,417.492,509.157,294.254z"/>
<path style="fill:#EBE2D9;" d="M256.004,89.347c-72.254,0-165.257,82.055-197.492,304.626h48.91c0,0,3.829-72.705,27.42-144.503  c23.662-72.019,67.168-143.129,121.163-143.129s97.501,71.111,121.164,143.129c23.59,71.797,27.419,144.503,27.419,144.503h48.91  C421.26,171.402,328.257,89.347,256.004,89.347z"/>
<path style="fill:#C4A98E;" d="M256.004,89.347v16.994c53.994,0,97.501,71.111,121.164,143.129  c23.59,71.797,27.419,144.503,27.419,144.503h48.91C421.26,171.402,328.257,89.347,256.004,89.347z"/>
<path style="fill:#00B764;" d="M256.004,512c92.101,0,172.83-48.647,217.928-121.637H38.076C83.174,463.353,163.902,512,256.004,512  z"/>
<g>
	<rect x="98.944" y="422.216" style="fill:#008849;" width="68.262" height="12.809"/>
	<rect x="194.624" y="444.775" style="fill:#008849;" width="49.611" height="12.808"/>
	<rect x="186.349" y="406.125" style="fill:#008849;" width="49.611" height="12.808"/>
	<rect x="167.217" y="472.475" style="fill:#008849;" width="49.611" height="12.808"/>
</g>
<path style="fill:#00884A;" d="M473.935,390.362c-0.888,1.431-1.776,2.842-2.696,4.253c-0.408,0.658-0.836,1.306-1.275,1.954  c-0.439,0.679-0.888,1.348-1.337,2.017c-0.543,0.805-1.087,1.609-1.64,2.414c-0.637,0.919-1.275,1.839-1.923,2.758  c-1.139,1.588-2.288,3.176-3.448,4.744c-0.136,0.188-0.282,0.376-0.418,0.564c-0.554,0.731-1.108,1.463-1.661,2.194  c-46.759,61.23-120.527,100.737-203.533,100.737V390.362L473.935,390.362L473.935,390.362z"/>
<g>
	<rect x="347.626" y="422.216" style="fill:#007539;" width="68.262" height="12.809"/>
	<rect x="294.254" y="464.2" style="fill:#007539;" width="49.611" height="12.808"/>
	<rect x="271.998" y="436.991" style="fill:#007539;" width="49.611" height="12.808"/>
	<rect x="302.999" y="399.72" style="fill:#007539;" width="49.611" height="12.808"/>
</g>
<g>
</g>
<g>
</g>
<g>
</g>
<g>
</g>
<g>
</g>
<g>
</g>
<g>
</g>
<g>
</g>
<g>
</g>
<g>
</g>
<g>
</g>
<g>
</g>
<g>
</g>
<g>
</g>
<g>
</g>
</svg>
