<svg id="Capa_1" enable-background="new 0 0 512 512" height="512" viewBox="0 0 512 512" width="512" xmlns="http://www.w3.org/2000/svg"><path d="m496 280h-480v-144c0-35.346 28.654-64 64-64h352c35.346 0 64 28.654 64 64z" fill="#c8f5f0"/><path d="m376 152h-64c-8.837 0-16-7.163-16-16 0-8.837 7.163-16 16-16h64c8.837 0 16 7.163 16 16 0 8.837-7.164 16-16 16z" fill="#9be7ee"/><path d="m256 152h-16c-8.837 0-16-7.163-16-16 0-8.837 7.163-16 16-16h16c8.837 0 16 7.163 16 16 0 8.837-7.164 16-16 16z" fill="#9be7ee"/><path d="m269.392 240.806-89.477-61.945c-7.574-5.243-17.039-6.969-25.976-4.734l-7.64 1.91c-6.56 1.64-13.507.437-19.134-3.314l-25.038-16.692c-8.467-5.644-19.572-5.336-27.713.769l-18.414 13.812v125.388h216z" fill="#ffebc3"/><path d="m269.383 248.805c-1.57 0-3.156-.461-4.547-1.422l-89.477-61.945c-5.672-3.93-12.777-5.223-19.48-3.551l-7.637 1.91c-8.742 2.176-18.027.57-25.512-4.418l-25.039-16.691c-5.633-3.758-13.062-3.551-18.477.512l-18.414 13.813c-3.543 2.664-8.551 1.938-11.199-1.598-2.652-3.535-1.937-8.551 1.598-11.199l18.414-13.812c10.832-8.125 25.684-8.535 36.953-1.027l25.039 16.691c3.75 2.5 8.402 3.301 12.754 2.207l7.641-1.91c11.172-2.785 23.008-.629 32.469 5.918l89.477 61.945c3.633 2.516 4.539 7.5 2.023 11.133-1.555 2.24-4.047 3.444-6.586 3.444z" fill="#e6d7b9"/><path d="m449.122 109.683c-5.498-8.247-15.5-12.266-25.175-10.116l-41.502 9.223c-9.321 2.071-17.594 7.409-23.323 15.047l-111.122 148.163v48l235 8.333 29-84.87v-25.041z" fill="#e6d7b9"/><path d="m512 218.423-62.878-108.74c-5.498-8.247-15.5-12.266-25.175-10.116l-41.502 9.223c-9.321 2.071-17.594 7.409-23.323 15.047l-111.122 148.163v23.998c7.291-.006 14.489-3.316 19.199-9.599l111.117-148.156c2.293-3.055 5.609-5.195 9.336-6.023l41.5-9.223 82.848 124.269z" fill="#ffebc3"/><path d="m0 168 95.588 36.638c10.804 7.48 19.796 17.284 26.315 28.693l22.097 38.669v32l-96.628-5.368-47.372-69.793z" fill="#e6d7b9"/><path d="m95.588 204.638-95.588-55.621v18.983l81.926 56.367c7.809 5.406 14.426 12.625 19.141 20.871l22.098 38.668c4.425 7.747 12.512 12.087 20.836 12.095v-24.001l-22.097-38.669c-6.52-11.409-15.512-21.213-26.316-28.693z" fill="#ffebc3"/><g fill="#d1c3aa"><path d="m499.907 171.44-44.131-66.196c-7.33-10.995-20.665-16.353-33.565-13.487l-41.505 9.223c-11.184 2.485-21.11 8.889-27.984 18.054l-111.121 148.165c-2.652 3.535-1.938 8.551 1.598 11.199 3.547 2.664 8.555 1.938 11.199-1.598l111.121-148.164c4.583-6.111 11.202-10.382 18.659-12.039l41.498-9.222c6.452-1.434 13.122 1.246 16.788 6.745l69.536 104.303v-7.044c0-14.215-4.208-28.111-12.093-39.939z"/><path d="m128.848 229.363c-7.066-12.367-16.992-23.191-28.746-31.332l-84.103-57.46c-6.789-4.638-15.999.224-15.999 8.446l91.035 62.198c9.762 6.758 18.031 15.781 23.922 26.086l22.098 38.668c1.477 2.586 4.176 4.031 6.953 4.031 1.344 0 2.711-.34 3.961-1.055 3.836-2.191 5.168-7.078 2.977-10.914z"/><path d="m440 320 17.199-34.398c4.381-8.762 11.826-15.612 20.921-19.251l33.88 13.649v96c0 8.837-7.163 16-16 16h-12.688l-43.312-25.333z"/></g><path d="m512 260.815-33.88 5.537c-9.096 3.639-16.54 10.488-20.921 19.251l-17.199 34.397v24.002c8.798-.007 17.265-4.864 21.465-13.268l17.203-34.402c1.75-3.504 4.723-6.238 8.367-7.695l24.965-8.637z" fill="#e6d7b9"/><path d="m72 304-17.199-34.398c-4.381-8.762-11.826-15.612-20.921-19.251l-33.88 13.649v112c0 8.837 7.163 16 16 16h3.055l52.945-16z" fill="#d1c3aa"/><path d="m33.88 250.351-33.88-4.385v18.034l24.961 8.633c3.648 1.461 6.621 4.195 8.375 7.703l17.199 34.398c4.2 8.404 12.667 13.261 21.465 13.268v-24.002l-17.199-34.397c-4.381-8.763-11.825-15.613-20.921-19.252z" fill="#e6d7b9"/><path d="m61.957 266.023c-5.258-10.52-14.176-18.727-25.223-23.145l-36.734-14.039v17.127l30.906 11.812c7.289 2.918 13.234 8.387 16.738 15.402l17.199 34.398c1.402 2.805 4.227 4.422 7.164 4.422 1.199 0 2.422-.27 3.57-.844 3.953-1.977 5.555-6.781 3.578-10.734z" fill="#beaa96"/><path d="m512 243.463-36.852 15.462c-10.93 4.371-19.848 12.578-25.105 23.098l-17.199 34.398c-1.977 3.953-.375 8.758 3.578 10.734 1.148.574 2.371.844 3.57.844 2.938 0 5.762-1.617 7.164-4.422l17.199-34.398c3.504-7.016 9.449-12.484 16.859-15.449l30.786-12.915z" fill="#beaa96"/><path d="m440 386v-66c0-8.837-7.164-16-16-16h-79.434c-10.608 0-20.782-4.214-28.284-11.715l-8.57-8.57c-7.502-7.501-17.676-11.715-28.284-11.715h-114.207c-8.693 0-17.267 2.023-25.042 5.911l-8.357 4.178c-7.775 3.887-16.349 5.911-25.042 5.911h-18.78c-8.836 0-16 7.163-16 16v82z" fill="#a0e6e1"/><path d="m424 304h-79.434c-10.608 0-20.782-4.214-28.283-11.715l-8.568-8.568c-7.503-7.503-17.678-11.717-28.287-11.717h-114.21c-8.692 0-17.265 2.024-25.039 5.911l-8.357 4.178c-7.775 3.887-16.349 5.911-25.041 5.911h-18.781c-8.837 0-16 7.163-16 16v88c13.254 0 24-10.746 24-24v-48c0-4.418 3.582-8 8-8h26.183c2.736 0 5.459 1.298 6.733 3.72 1.339 2.545 4.009 4.28 7.084 4.28 4.418 0 8-3.582 8-8v-2.75c0-7.318 5.932-13.25 13.25-13.25h26.75c4.418 0 8 3.582 8 8v16c0 4.418 3.582 8 8 8s8-3.582 8-8v-16c0-4.418 3.582-8 8-8s8 3.582 8 8 3.582 8 8 8c4.451 0 8.053-3.635 7.999-8.098-.053-4.383 3.611-7.902 7.994-7.902h20.923c6.763 0 10.828 1.685 13.826 4.684l2.916 2.917c1.5 1.5 2.342 3.535 2.342 5.656v22.381c0 4.418 3.582 8 8 8s8-3.582 8-8c0-5.438 5.377-9.485 10.476-7.594 6.979 2.588 14.424 3.957 22.09 3.957h55.434c8.837 0 16 7.163 16 16v24c0 13.254 10.746 24 24 24v-72c0-8.838-7.164-16.001-16-16.001z" fill="#fff"/><path d="m395.055 392 44.945-16h-48c-4.418 0-8-3.582-8-8s-3.582-8-8-8-8 3.582-8 8-3.582 8-8 8-8-3.582-8-8v-16c0-4.418-3.582-8-8-8s-8 3.582-8 8v16c0 4.418-3.582 8-8 8h-40c-4.418 0-8-3.582-8-8v-16c0-4.418-3.582-8-8-8s-8 3.582-8 8v16c0 4.418-3.582 8-8 8s-8-3.582-8-8v-32c0-4.418-3.582-8-8-8s-8 3.582-8 8v32c0 4.418-3.582 8-8 8s-8-3.582-8-8v-16c0-4.418-3.582-8-8-8s-8 3.582-8 8v16c0 4.418-3.582 8-8 8s-8-3.582-8-8v-48c0-4.418-3.582-8-8-8s-8 3.582-8 8v48c0 4.418-3.582 8-8 8s-8-3.582-8-8v-24c0-4.418-3.582-8-8-8s-8 3.582-8 8v24c0 4.418-3.582 8-8 8h-22l25.313 16h113.375l75.312-9.333 32 9.333z" fill="#69c3be"/><path d="m460.687 392-5.658-16.971c-4.501-4.501-10.605-7.029-16.97-7.029h-12.17c-6.061 0-11.601 3.424-14.311 8.844l1.367 15.156z" fill="#beaa96"/><path d="m320 392 24-16c0-8.837-7.164-16-16-16h-26.745c-8.487 0-16.626 3.371-22.627 9.373l-11.316 22.627z" fill="#917d6e"/><path d="m344 392v-16c0-8.837-7.164-16-16-16h-8v32z" fill="#beaa96"/><path d="m88 392 15.029-16.971c-4.501-4.501-10.605-7.029-16.97-7.029h-36.17c-6.061 0-11.601 3.424-14.311 8.844l1.367 15.156z" fill="#917d6e"/><path d="m88 392h20.687l-5.658-16.971c-4.501-4.501-10.605-7.029-16.97-7.029h-32c6.365 0 12.469 2.528 16.97 7.029z" fill="#beaa96"/><path d="m440 376c-4.418 0-8-3.582-8-8v-48c0-4.41-3.59-8-8-8h-79.434c-12.816 0-24.871-4.992-33.941-14.055l-8.57-8.574c-5.957-5.957-14.203-9.371-22.625-9.371h-114.211c-7.414 0-14.832 1.75-21.461 5.066l-8.359 4.18c-8.84 4.418-18.734 6.754-28.617 6.754h-18.782c-4.41 0-8 3.59-8 8v64c0 4.418-3.582 8-8 8s-8-3.582-8-8v-64c0-13.234 10.766-24 24-24h18.781c7.414 0 14.832-1.75 21.461-5.066l8.359-4.18c8.84-4.418 18.734-6.754 28.617-6.754h114.212c12.82 0 24.871 4.992 33.938 14.059l8.57 8.57c6.047 6.043 14.082 9.371 22.629 9.371h79.433c13.234 0 24 10.766 24 24v48c0 4.418-3.582 8-8 8z" fill="#3c576c"/><path d="m36.945 392 5.789-11.578c1.363-2.727 4.105-4.422 7.152-4.422h36.172c4.273 0 8.293 1.664 11.316 4.688l11.313 11.312h22.625l-22.625-22.625c-6.043-6.047-14.082-9.375-22.628-9.375h-36.172c-9.145 0-17.371 5.082-21.465 13.266l-9.367 18.734z" fill="#2d2d4b"/><path d="m412.945 392 5.789-11.578c1.363-2.727 4.105-4.422 7.152-4.422h12.172c4.273 0 8.293 1.664 11.316 4.688l11.313 11.312h22.625l-22.625-22.625c-6.043-6.047-14.082-9.375-22.629-9.375h-12.172c-9.145 0-17.371 5.082-21.465 13.266l-9.366 18.734z" fill="#2d2d4b"/><path d="m267.312 392 16.973-16.973c4.469-4.465 10.652-7.027 16.969-7.027h26.746c4.41 0 8 3.59 8 8v16h16v-16c0-13.234-10.766-24-24-24h-26.746c-10.684 0-20.727 4.16-28.281 11.715l-28.286 28.285z" fill="#2d2d4b"/><circle cx="480" cy="360" fill="#beaa96" r="8"/><circle cx="32" cy="336" fill="#beaa96" r="8"/><circle cx="80" cy="256" fill="#ffebc3" r="8"/><circle cx="336" cy="256" fill="#ffebc3" r="8"/><circle cx="376" cy="272" fill="#d1c3aa" r="8"/><circle cx="432" cy="240" fill="#d1c3aa" r="8"/><path d="m56 416c0 13.255 10.745 24 24 24h352c13.255 0 24-10.745 24-24z" fill="#a0e6e1"/><path d="m504 424h-496c-4.418 0-8-3.582-8-8 0-4.418 3.582-8 8-8h496c4.418 0 8 3.582 8 8 0 4.418-3.582 8-8 8z" fill="#69c3be"/></svg>