<svg id="Capa_1" enable-background="new 0 0 512 512" height="512" viewBox="0 0 512 512" width="512" xmlns="http://www.w3.org/2000/svg"><path d="m488 228h-464v-80c0-35.346 28.654-64 64-64h336c35.346 0 64 28.654 64 64z" fill="#bef0ff"/><path d="m208 172h-32c-8.837 0-16-7.163-16-16 0-8.837 7.163-16 16-16h32c8.837 0 16 7.163 16 16 0 8.837-7.163 16-16 16z" fill="#fff"/><path d="m120 172h-16c-8.837 0-16-7.163-16-16 0-8.837 7.163-16 16-16h16c8.837 0 16 7.163 16 16 0 8.837-7.163 16-16 16z" fill="#fff"/><path d="m480 188h-448c-17.673 0-32 14.327-32 32v136h512v-136c0-17.673-14.327-32-32-32z" fill="#a7d9ff"/><path d="m496 362.848-63.647-76.376c-9.972-11.967-25.984-17.056-41.035-13.042l-77.448 20.653c-11.336 3.023-23.428.917-33.075-5.762l-65.301-45.209c-14.053-9.729-32.736-9.454-46.496.685l-128.998 95.051v40h456z" fill="#7fc2f2"/><path d="m512 381.865-184.381-59.785c-20.756-3.992-42.177-2.781-62.352 3.523l-66.053 20.642c-20.481 6.4-42.241 7.549-63.282 3.341l-135.932-1.586v48l20.333 7.667h474.667l17-7.667z" fill="#ffcd6e"/><path d="m512 365.951-184.381-43.871c-20.756-3.992-42.178-2.781-62.352 3.523l-66.053 20.642c-20.48 6.4-42.242 7.549-63.282 3.341l-135.932-19.028v17.442l131.227 25.121c24.895 4.969 50.887 3.613 75.148-3.969l66.051-20.641c16.332-5.105 33.844-6.094 50.66-2.863l188.914 36.217z" fill="#ffeb96"/><path d="m512 349.651-182.871-35.424c-21.973-4.223-44.887-2.934-66.25 3.742l-66.051 20.641c-19.145 5.977-39.664 7.051-59.324 3.133l-137.504-27.501v16.315l134.363 26.872c22.289 4.453 45.527 3.23 67.238-3.547l66.051-20.641c18.844-5.891 39.062-7.035 58.445-3.305l185.903 36.015z" fill="#ffaf5a"/><path d="m183.144 268h-7.144v-8c0-13.255-10.745-24-24-24h-40c-8.836 0-16 7.163-16 16h-14.642c-12.996 0-24.644 9.731-25.324 22.709-.725 13.841 10.283 25.291 23.966 25.291h104c9.717 0 17.412-8.663 15.781-18.687-1.28-7.867-8.667-13.313-16.637-13.313z" fill="#aad264"/><path d="m426.415 172h-.011c-6.281 0-11.346-5.382-10.648-11.625.401-3.586.318-7.32-.333-11.149-3.323-19.537-21.286-33.226-41.103-33.226h-70.32c-11.595 0-21.948 5.008-29.234 12.907-1.918 2.079-4.733 3.093-7.562 3.093h-25.485c-20.891 0-39.548 15.274-41.531 36.071-2.275 23.857 16.424 43.929 39.812 43.929h67.091c4.522 0 8.554 2.333 11.429 5.824 5.111 6.204 12.808 10.176 21.48 10.176h88c17.106 0 30.629-15.34 27.564-33.014-2.369-13.659-15.286-22.986-29.149-22.986z" fill="#6ea573"/><path d="m455.707 195.906c-1.936-14.158-15.12-23.906-29.292-23.906h-.011c-6.282 0-11.346-5.382-10.648-11.625.468-4.186.277-8.571-.708-13.077-4.077-18.654-21.633-31.298-40.728-31.298h-70.32c-11.595 0-21.949 5.008-29.234 12.907-1.918 2.079-4.733 3.093-7.562 3.093h-25.485c-20.892 0-39.548 15.273-41.531 36.07l5.134.49c8.985.858 17.494-2.656 24.495-8.353 3.194-2.599 7.415-4.208 11.901-4.208h25.484c9.672 0 18.855-3.941 25.203-10.82 1.785-1.934 5.664-5.18 11.594-5.18h70.32c8.66 0 16.156 5.695 17.441 13.258.258 1.504.305 3.008.145 4.445-1.082 9.676 2.031 19.406 8.551 26.691 6.595 7.377 16.056 11.607 25.958 11.607h29.212c.034-.039.047-.055.081-.094z" fill="#8cbe69"/><path d="m56 404c0 13.255 10.745 24 24 24h352c13.255 0 24-10.745 24-24z" fill="#ffaf5a"/><path d="m136 396v-40h8c13.234 0 24-10.766 24-24v-32c0-4.418-3.582-8-8-8s-8 3.582-8 8v32c0 4.412-3.59 8-8 8h-8v-32c0-4.418-3.582-8-8-8s-8 3.582-8 8v16h-8c-4.41 0-8-3.588-8-8v-32c0-4.418-3.582-8-8-8s-8 3.582-8 8v32c0 13.234 10.766 24 24 24h8v56h-120c0 8.836 7.164 16 16 16h111.999.001.001 367.999c8.836 0 16-7.164 16-16z" fill="#d28755"/><path d="m392 220c-4.418 0-8 3.582-8 8v16c0 4.412-3.59 8-8 8h-8v-24c0-4.418-3.582-8-8-8s-8 3.582-8 8v40c0 8.822-7.176 16-16 16v-56h-16v40h-8c-13.234 0-24-10.766-24-24v-32c0-4.418-3.582-8-8-8s-8 3.582-8 8v32c0 22.057 17.945 40 40 40h8v112h16v-96c17.645 0 32-14.355 32-32h8c13.234 0 24-10.766 24-24v-16c0-4.418-3.582-8-8-8z" fill="#2d2d4b"/><path d="m428 236h-88c-10.723 0-20.805-4.771-27.656-13.09-.895-1.086-2.77-2.91-5.254-2.91h-67.09c-13.492 0-26.441-5.729-35.523-15.717-9.074-9.982-13.539-23.457-12.254-36.973 2.316-24.287 24.058-43.31 49.496-43.31h25.484c.828 0 1.453-.268 1.68-.518 9.211-9.984 21.683-15.482 35.117-15.482h70.32c24.063 0 45.125 17.146 48.988 39.887.758 4.443.891 8.943.398 13.371-.09.836.277 1.443.602 1.809.531.594 1.297.934 2.098.934h.008c18.184 0 34.105 12.734 37.031 29.621 1.844 10.625-1.031 21.396-7.891 29.547-6.863 8.153-16.906 12.831-27.554 12.831zm-186.281-96c-17.281 0-32.023 12.664-33.566 28.83-.875 9.168 2.023 17.937 8.164 24.689 6.054 6.661 14.687 10.481 23.683 10.481h67.09c6.613 0 13.031 3.186 17.605 8.738 3.801 4.615 9.379 7.262 15.305 7.262h88c5.918 0 11.496-2.6 15.312-7.133 3.867-4.596 5.418-10.461 4.367-16.514-1.617-9.324-10.757-16.353-21.265-16.353-5.355 0-10.469-2.285-14.031-6.27-3.484-3.898-5.152-9.09-4.574-14.246.324-2.938.234-5.938-.273-8.914-2.575-15.148-16.852-26.57-33.216-26.57h-70.32c-8.914 0-17.211 3.668-23.355 10.33-3.32 3.604-8.219 5.67-13.441 5.67z" fill="#3c7864"/><circle cx="328" cy="164" fill="#8cbe69" r="8"/><circle cx="264" cy="180" fill="#3c7864" r="8"/><circle cx="352" cy="188" fill="#3c7864" r="8"/><path d="m64 292h88c0-8.837-7.163-16-16-16h-72z" fill="#8cbe69"/><path d="m184 308h-104c-8.738 0-17.199-3.637-23.215-9.977-6.102-6.43-9.203-14.857-8.738-23.734.891-16.984 15.523-30.289 33.312-30.289h8.012c3.301-9.313 12.199-16 22.629-16h40c17.645 0 32 14.355 32 32v.014c11.762.395 21.863 8.865 23.676 20.014 1.145 7.033-.82 14.146-5.391 19.518-4.57 5.372-11.234 8.454-18.285 8.454zm-102.641-48c-9.121 0-16.898 6.785-17.336 15.127-.234 4.451 1.316 8.67 4.367 11.885 3.055 3.216 7.176 4.988 11.61 4.988h104c2.352 0 4.574-1.029 6.098-2.822 1.547-1.816 2.18-4.154 1.789-6.582-.605-3.697-4.445-6.596-8.742-6.596h-7.145c-4.418 0-8-3.582-8-8v-8c0-8.822-7.176-16-16-16h-40c-4.41 0-8 3.588-8 8 0 4.418-3.582 8-8 8z" fill="#6ea573"/><circle cx="296" cy="364" fill="#ffaf5a" r="8"/><circle cx="360" cy="372" fill="#d28755" r="8"/><circle cx="48" cy="356" fill="#ffaf5a" r="8"/></svg>