<?xml version="1.0" encoding="iso-8859-1"?>
<!-- Generator: Adobe Illustrator 19.0.0, SVG Export Plug-In . SVG Version: 6.00 Build 0)  -->
<svg xmlns="http://www.w3.org/2000/svg" xmlns:xlink="http://www.w3.org/1999/xlink" version="1.1" id="Layer_1" x="0px" y="0px" viewBox="0 0 512 512" style="enable-background:new 0 0 512 512;" xml:space="preserve">
<circle style="fill:#005ECE;" cx="255.996" cy="255.996" r="255.996"/>
<path style="fill:#004DAD;" d="M512,256.001c0-1.635-0.031-3.263-0.062-4.891l-57.889-57.889c-1.541-4.09-5.49-7.025-10.101-7.025  H432.32l-11.869-11.005c-1.54-4.091-5.49-7.025-10.102-7.025h-58.889c-5.94,0-10.8,4.86-10.8,10.799  c0,2.284,0.723,4.404,1.946,6.153l-28.279-28.091c-14.168-15.906-34.864-25.947-57.937-25.947c-4.878,0-9.648,0.448-14.275,1.305  l-37.06-36.192c-1.674-4.172-5.759-7.143-10.513-7.143h-61.769c-6.231,0-11.328,5.098-11.328,11.328c0,2.914,1.124,5.571,2.95,7.584  H97.534c-6.231,0-11.328,5.098-11.328,11.328c0,4.752,2.97,8.838,7.143,10.513l97.704,101.487l-16.65,12.358v14.507h-17.414  l-18.981-20.509H113.58v20.509h-8.391l-18.981-20.509H61.779l0.744,26.144h-0.027v15.141h-12.29l12.289,14.24v124.052l52.365,52.365  c40.464,26.793,88.975,42.409,141.14,42.409C397.385,512,512,397.385,512,256.001z"/>
<g>
	<path style="fill:#FFFFFF;" d="M97.534,107.965h26.863c-1.824-2.012-2.95-4.67-2.95-7.584c0-6.231,5.098-11.328,11.328-11.328   h61.769c6.231,0,11.328,5.097,11.328,11.328s-5.097,11.328-11.328,11.328h-26.863c1.824,2.012,2.949,4.67,2.949,7.584l0,0   c0,6.231-5.097,11.328-11.328,11.328H97.534c-6.231,0-11.328-5.097-11.328-11.328l0,0   C86.206,113.062,91.304,107.965,97.534,107.965z"/>
	<path style="fill:#FFFFFF;" d="M443.948,186.195h-25.61c1.74-1.918,2.812-4.452,2.812-7.231c0-5.94-4.86-10.799-10.8-10.799   h-58.889c-5.94,0-10.8,4.86-10.8,10.799c0,5.939,4.86,10.8,10.8,10.8h25.61c-1.74,1.918-2.812,4.452-2.812,7.231l0,0   c0,5.94,4.86,10.8,10.8,10.8h58.889c5.939,0,10.8-4.86,10.8-10.8l0,0C454.748,191.055,449.888,186.195,443.948,186.195z"/>
</g>
<path style="fill:#AAA9AF;" d="M326.696,175.842c-12.231-26.413-39.102-44.761-70.305-44.761s-58.072,18.349-70.305,44.761h4.965  v56.418H321.73v-56.418H326.696z"/>
<path style="fill:#8B8992;" d="M321.731,232.261v-56.418h4.965c-12.231-26.413-39.102-44.761-70.305-44.761  c-0.133,0-0.263,0.006-0.395,0.007v101.172H321.731z"/>
<polygon style="fill:#C8C6CC;" points="218.236,186.473 218.236,177.962 215.826,177.962 207.241,177.962 204.831,177.962   204.831,186.473 207.241,186.473 207.241,216.304 204.831,216.304 204.831,231.651 207.241,231.651 215.826,231.651   218.236,231.651 218.236,216.304 215.826,216.304 215.826,186.473 "/>
<polygon style="fill:#AEADB3;" points="307.953,186.473 307.953,177.962 305.543,177.962 296.958,177.962 294.547,177.962   294.547,186.473 296.958,186.473 296.958,216.304 294.547,216.304 294.547,231.651 296.958,231.651 305.543,231.651   307.953,231.651 307.953,216.304 305.543,216.304 305.543,186.473 "/>
<polygon style="fill:#C8C6CC;" points="320.947,231.292 191.053,231.292 174.402,243.65 174.402,260.845 337.598,260.845   337.598,243.65 "/>
<polygon style="fill:#AEADB3;" points="337.598,260.845 337.598,243.65 320.947,231.292 255.996,231.292 255.996,260.845 "/>
<g>
	<rect x="62.519" y="237.648" style="fill:#C8C6CC;" width="24.427" height="26.143"/>
	<rect x="113.579" y="237.648" style="fill:#C8C6CC;" width="24.427" height="26.143"/>
</g>
<g>
	<rect x="373.274" y="237.648" style="fill:#AEADB3;" width="24.427" height="26.143"/>
	<rect x="425.079" y="237.648" style="fill:#AEADB3;" width="24.427" height="26.143"/>
</g>
<path style="fill:#AAA9AF;" d="M449.501,258.163v159.063h-22.089v-46.769H401.97v46.769h-29.445v-64.804  c0-10.031-8.202-18.223-18.223-18.223c-10.031,0-18.233,8.192-18.233,18.223v64.804h-61.847v-64.804  c0-10.031-8.202-18.223-18.223-18.223c-10.02,0-18.223,8.192-18.223,18.223v64.804H175.93v-64.804  c0-10.031-8.202-18.223-18.233-18.223c-10.02,0-18.223,8.192-18.223,18.223v64.804h-29.445v-46.769H84.586v46.769H62.498V258.163  L449.501,258.163L449.501,258.163z"/>
<path style="fill:#8B8992;" d="M449.501,258.163v159.063h-22.089v-46.769H401.97v46.769h-29.445v-64.804  c0-10.031-8.202-18.223-18.223-18.223c-10.031,0-18.233,8.192-18.233,18.223v64.804h-61.847v-64.804  c0-10.031-8.202-18.223-18.223-18.223v-76.036L449.501,258.163L449.501,258.163z"/>
<g>
	<polygon style="fill:#C8C6CC;" points="75.185,325.056 75.185,315.472 72.773,315.472 64.189,315.472 61.779,315.472    61.779,325.056 64.189,325.056 64.189,399.945 61.779,399.945 61.779,417.225 64.189,417.225 72.773,417.225 75.185,417.225    75.185,399.945 72.773,399.945 72.773,325.056  "/>
	<polygon style="fill:#C8C6CC;" points="132.495,325.056 132.495,315.472 130.085,315.472 121.501,315.472 119.091,315.472    119.091,325.056 121.501,325.056 121.501,399.945 119.091,399.945 119.091,417.225 121.501,417.225 130.085,417.225    132.495,417.225 132.495,399.945 130.085,399.945 130.085,325.056  "/>
	<path style="fill:#C8C6CC;" d="M220.972,325.056v-9.584h-2.411h-8.584h-1.364h-1.047h-1.364h-8.584h-1.364h-1.047h-1.364h-8.584   h-2.411v9.584h2.411v74.888h-2.411v17.281h2.411h8.584h1.364h1.047h1.364h8.584h1.364h1.047h1.364h8.584h2.411v-17.281h-2.411   v-74.888H220.972z M196.255,399.945h-1.047h-1.364v-74.888h1.364h1.047h1.364v74.888H196.255z M209.978,399.945h-1.364h-1.047   h-1.364v-74.888h1.364h1.047h1.364V399.945z"/>
</g>
<g>
	<path style="fill:#AEADB3;" d="M328.434,325.056v-9.584h-2.411h-8.584h-1.364h-1.047h-1.364h-8.584h-1.364h-1.047h-1.364h-8.584   h-2.411v9.584h2.411v74.888h-2.411v17.281h2.411h8.584h1.364h1.047h1.364h8.584h1.364h1.047h1.364h8.584h2.411v-17.281h-2.411   v-74.888H328.434z M303.717,399.945h-1.047h-1.364v-74.888h1.364h1.047h1.364v74.888H303.717z M317.439,399.945h-1.364h-1.047   h-1.364v-74.888h1.364h1.047h1.364V399.945z"/>
	<polygon style="fill:#AEADB3;" points="392.194,325.056 392.194,315.472 389.782,315.472 381.198,315.472 378.788,315.472    378.788,325.056 381.198,325.056 381.198,399.945 378.788,399.945 378.788,417.225 381.198,417.225 389.782,417.225    392.194,417.225 392.194,399.945 389.782,399.945 389.782,325.056  "/>
	<polygon style="fill:#AEADB3;" points="449.506,325.056 449.506,315.472 447.094,315.472 438.51,315.472 436.1,315.472    436.1,325.056 438.51,325.056 438.51,399.945 436.1,399.945 436.1,417.225 438.51,417.225 447.094,417.225 449.506,417.225    449.506,399.945 447.094,399.945 447.094,325.056  "/>
</g>
<rect x="62.496" y="289.673" style="fill:#C8C6CC;" width="387.014" height="25.795"/>
<rect x="255.996" y="289.673" style="fill:#AEADB3;" width="193.512" height="25.795"/>
<polygon style="fill:#78777F;" points="50.206,278.935 62.496,293.173 449.501,293.173 461.791,278.935 "/>
<polygon style="fill:#57555C;" points="461.791,278.935 255.996,278.935 255.996,293.173 449.501,293.173 "/>
<rect x="84.59" y="340.193" style="fill:#C8C6CC;" width="25.436" height="17.909"/>
<rect x="401.977" y="340.193" style="fill:#AEADB3;" width="25.436" height="17.909"/>
<polygon style="fill:#78777F;" points="313.667,175.842 256.391,137.261 199.117,175.842 191.053,175.842 191.053,180.135   321.731,180.135 321.731,175.842 "/>
<polygon style="fill:#57555C;" points="321.731,175.842 313.667,175.842 256.391,137.261 255.996,137.527 255.996,180.135   321.731,180.135 "/>
<polygon style="fill:#C8C6CC;" points="256.391,143.469 213.96,172.053 298.824,172.053 "/>
<polygon style="fill:#AEADB3;" points="298.824,172.053 256.391,143.469 255.996,143.735 255.996,172.053 "/>
<polygon style="fill:#AAA9AF;" points="256.391,147.634 225.501,168.694 287.282,168.694 "/>
<polygon style="fill:#8B8992;" points="287.282,168.694 256.391,147.634 255.996,147.903 255.996,168.694 "/>
<rect x="227.053" y="192.07" style="fill:#C8C6CC;" width="58.681" height="30.091"/>
<rect x="255.996" y="192.07" style="fill:#AEADB3;" width="29.738" height="30.091"/>
<path style="fill:#00B764;" d="M255.999,512c80.503,0,152.313-37.17,199.241-95.27H56.758C103.688,474.83,175.498,512,255.999,512z"/>
<g>
	<path style="fill:#008849;" d="M255.996,416.73V512c0.001,0,0.002,0,0.003,0c80.503,0,152.313-37.17,199.241-95.27H255.996z"/>
	<rect x="106.996" y="433.668" style="fill:#008849;" width="68.262" height="12.809"/>
	<rect x="195.916" y="445.298" style="fill:#008849;" width="49.611" height="12.808"/>
	<rect x="179.918" y="475.652" style="fill:#008849;" width="49.611" height="12.808"/>
</g>
<g>
	<rect x="347.695" y="427.263" style="fill:#007539;" width="68.262" height="12.809"/>
	<rect x="296.402" y="469.247" style="fill:#007539;" width="49.611" height="12.808"/>
	<rect x="271.586" y="442.038" style="fill:#007539;" width="49.611" height="12.808"/>
</g>
<g>
</g>
<g>
</g>
<g>
</g>
<g>
</g>
<g>
</g>
<g>
</g>
<g>
</g>
<g>
</g>
<g>
</g>
<g>
</g>
<g>
</g>
<g>
</g>
<g>
</g>
<g>
</g>
<g>
</g>
</svg>
