<?xml version="1.0" encoding="iso-8859-1"?>
<!-- Generator: Adobe Illustrator 19.0.0, SVG Export Plug-In . SVG Version: 6.00 Build 0)  -->
<svg xmlns="http://www.w3.org/2000/svg" xmlns:xlink="http://www.w3.org/1999/xlink" version="1.1" id="Layer_1" x="0px" y="0px" viewBox="0 0 512 512" style="enable-background:new 0 0 512 512;" xml:space="preserve">
<circle style="fill:#00A2FF;" cx="256" cy="255.996" r="255.996"/>
<path style="fill:#0084FF;" d="M511.283,275.295L259.609,23.623h-7.211V88.07h-8.491v36.428h-15.115v18.633h-18.349v13.845h-16.106  v11.406l-21.262-20.178c-1.689-4.143-5.76-7.085-10.491-7.085h-61.77c-6.231,0-11.328,5.097-11.328,11.328  c0,2.913,1.124,5.571,2.95,7.584H65.572c-6.231,0-11.328,5.098-11.328,11.328c0,4.731,2.942,8.803,7.085,10.491l173.859,174.457  l-7.815,154.093c9.401,1.046,18.949,1.602,28.63,1.602C390.898,512,501.418,407.667,511.283,275.295z"/>
<g>
	<path style="fill:#FFFFFF;" d="M65.572,160.029h26.863c-1.824-2.012-2.95-4.67-2.95-7.584c0-6.231,5.098-11.328,11.328-11.328   h61.769c6.231,0,11.328,5.098,11.328,11.328c0,6.231-5.097,11.328-11.328,11.328h-26.863c1.824,2.012,2.949,4.67,2.949,7.584l0,0   c0,6.23-5.097,11.328-11.328,11.328H65.572c-6.231,0-11.328-5.098-11.328-11.328l0,0C54.245,165.126,59.342,160.029,65.572,160.029   z"/>
	<path style="fill:#FFFFFF;" d="M451.761,242.997h-25.61c1.74-1.919,2.812-4.452,2.812-7.231c0-5.94-4.86-10.799-10.8-10.799   h-58.889c-5.94,0-10.799,4.86-10.799,10.799c0,5.939,4.86,10.8,10.799,10.8h25.61c-1.74,1.918-2.812,4.452-2.812,7.231l0,0   c0,5.94,4.86,10.8,10.8,10.8h58.889c5.939,0,10.799-4.86,10.799-10.8l0,0C462.561,247.857,457.7,242.997,451.761,242.997z"/>
</g>
<path style="fill:#006EF5;" d="M256.003,512c116.507,0,214.822-77.834,245.818-184.337H10.185  C41.181,434.166,139.497,512,256.003,512z"/>
<path style="fill:#004DB0;" d="M256.003,327.663V512l0,0c116.507,0,214.822-77.834,245.818-184.337H256.003z"/>
<rect x="252.395" y="23.623" style="fill:#EBE2D9;" width="7.211" height="65.002"/>
<rect x="256" y="23.623" style="fill:#DBC9B9;" width="3.609" height="65.002"/>
<g>
	<rect x="252.395" y="32.129" style="fill:#FF3200;" width="7.211" height="9.317"/>
	<rect x="252.395" y="51.46" style="fill:#FF3200;" width="7.211" height="9.317"/>
	<rect x="252.395" y="70.797" style="fill:#FF3200;" width="7.211" height="9.317"/>
</g>
<g>
	<rect x="256" y="32.129" style="fill:#ED2400;" width="3.609" height="9.317"/>
	<rect x="256" y="51.46" style="fill:#ED2400;" width="3.609" height="9.317"/>
	<rect x="256" y="70.797" style="fill:#ED2400;" width="3.609" height="9.317"/>
</g>
<rect x="243.911" y="88.073" style="fill:#715539;" width="24.199" height="38.807"/>
<rect x="256" y="88.073" style="fill:#59412C;" width="12.101" height="38.807"/>
<polygon style="fill:#DBC9B9;" points="283.216,143.13 283.216,124.497 228.791,124.497 228.791,143.13 210.443,143.13   210.443,157.45 301.564,157.45 301.564,143.13 "/>
<polygon style="fill:#BD9B7B;" points="301.564,143.13 283.216,143.13 283.216,124.497 256,124.497 256,157.45 301.564,157.45 "/>
<rect x="194.341" y="156.973" style="fill:#EBE2D9;" width="123.338" height="11.011"/>
<rect x="256" y="156.973" style="fill:#DBC9B9;" width="61.669" height="11.011"/>
<path style="fill:#EBE2D9;" d="M284.633,510.408c-4.869,0.543-9.78,0.951-14.722,1.212c-4.608,0.251-9.237,0.376-13.907,0.376  c-4.671,0-9.299-0.125-13.907-0.376c-4.942-0.261-9.853-0.669-14.722-1.212l14.137-278.754h28.985L284.633,510.408z"/>
<g>
	<path style="fill:#DBC9B9;" d="M270.496,231.655H256v280.342c0.001,0,0.002,0,0.003,0c4.671,0,9.299-0.125,13.907-0.376   c4.942-0.261,9.853-0.669,14.722-1.212L270.496,231.655z"/>
	<path style="fill:#DBC9B9;" d="M269.911,511.621c-4.608,0.251-9.237,0.376-13.907,0.376c-4.671,0-9.299-0.125-13.907-0.376   l6.886-279.966h14.043L269.911,511.621z"/>
</g>
<path style="fill:#BD9B7B;" d="M269.911,511.621l-6.886-279.966H256v280.342c0.001,0,0.002,0,0.003,0  C260.674,511.997,265.303,511.87,269.911,511.621z"/>
<path style="fill:#FF3200;" d="M221.253,208.333c15.854,10.569,20.01,28.185,20.01,28.185h29.481c0,0,4.155-17.616,20.009-28.185  H221.253z"/>
<path style="fill:#ED2400;" d="M256,208.333v28.185h14.744c0,0,4.155-17.616,20.009-28.185H256z"/>
<rect x="217.339" y="199.123" style="fill:#EBE2D9;" width="77.321" height="10.805"/>
<rect x="256" y="199.123" style="fill:#DBC9B9;" width="38.671" height="10.805"/>
<rect x="217.339" y="199.123" style="fill:#715539;" width="77.321" height="4.118"/>
<rect x="256" y="199.123" style="fill:#59412C;" width="38.671" height="4.118"/>
<rect x="209.764" y="188.372" style="fill:#EBE2D9;" width="92.483" height="10.805"/>
<rect x="256" y="188.372" style="fill:#DBC9B9;" width="46.247" height="10.805"/>
<rect x="209.764" y="188.372" style="fill:#715539;" width="92.483" height="4.118"/>
<rect x="256" y="188.372" style="fill:#59412C;" width="46.247" height="4.118"/>
<rect x="201.969" y="177.62" style="fill:#EBE2D9;" width="108.062" height="10.805"/>
<rect x="256" y="177.62" style="fill:#DBC9B9;" width="54.035" height="10.805"/>
<rect x="201.969" y="177.62" style="fill:#715539;" width="108.062" height="4.118"/>
<rect x="256" y="177.62" style="fill:#59412C;" width="54.035" height="4.118"/>
<rect x="194.341" y="166.868" style="fill:#EBE2D9;" width="123.338" height="10.805"/>
<rect x="256" y="166.868" style="fill:#DBC9B9;" width="61.669" height="10.805"/>
<rect x="194.341" y="166.868" style="fill:#715539;" width="123.338" height="4.118"/>
<rect x="256" y="166.868" style="fill:#59412C;" width="61.669" height="4.118"/>
<g>
</g>
<g>
</g>
<g>
</g>
<g>
</g>
<g>
</g>
<g>
</g>
<g>
</g>
<g>
</g>
<g>
</g>
<g>
</g>
<g>
</g>
<g>
</g>
<g>
</g>
<g>
</g>
<g>
</g>
</svg>
