<?xml version="1.0" encoding="iso-8859-1"?>
<!-- Generator: Adobe Illustrator 19.0.0, SVG Export Plug-In . SVG Version: 6.00 Build 0)  -->
<svg xmlns="http://www.w3.org/2000/svg" xmlns:xlink="http://www.w3.org/1999/xlink" version="1.1" id="Layer_1" x="0px" y="0px" viewBox="0 0 511.997 511.997" style="enable-background:new 0 0 511.997 511.997;" xml:space="preserve">
<circle style="fill:#FFDB47;" cx="255.998" cy="255.996" r="255.996"/>
<path style="fill:#FFCB00;" d="M269.357,34.435l-6.027-1.045l-7.328-8.659l-4.293,8.132l-9.061,1.57l6.408,6.596l-1.306,9.103  l6.983-3.431l0.163,0.167l-0.398,2.772l-27.481,70.07l-25.354-25.354c-2.046-2.981-5.475-4.949-9.343-4.949H130.55  c-6.231,0-11.328,5.098-11.328,11.328c0,2.914,1.124,5.571,2.95,7.584H95.306c-6.231,0-11.328,5.098-11.328,11.328  c0,3.868,1.968,7.297,4.949,9.343l100.626,100.626h-1.017V245.4l11.306,5.84v87.293l-15.44-12.844h-16.5v12.844l-15.44-12.844h-16.5  v12.844l-15.44-12.844h-16.499v99.841l74.528,74.528c24.435,7.747,50.451,11.939,77.45,11.939  c134.558,0,244.862-103.815,255.201-235.717L269.357,34.435z"/>
<g>
	<path style="fill:#FFFFFF;" d="M95.306,108.323h26.863c-1.824-2.012-2.95-4.67-2.95-7.584c0-6.231,5.098-11.328,11.328-11.328   h61.769c6.231,0,11.328,5.097,11.328,11.328s-5.097,11.328-11.328,11.328h-26.863c1.824,2.012,2.949,4.67,2.949,7.584l0,0   c0,6.23-5.097,11.328-11.328,11.328H95.306c-6.231,0-11.328-5.098-11.328-11.328l0,0C83.978,113.42,89.075,108.323,95.306,108.323z   "/>
	<path style="fill:#FFFFFF;" d="M427.407,204.192h-25.61c1.74-1.918,2.812-4.452,2.812-7.231c0-5.94-4.86-10.799-10.8-10.799   h-58.889c-5.94,0-10.799,4.86-10.799,10.799s4.86,10.8,10.799,10.8h25.61c-1.74,1.918-2.812,4.452-2.812,7.231l0,0   c0,5.94,4.86,10.8,10.799,10.8h58.889c5.939,0,10.799-4.86,10.799-10.8l0,0C438.206,209.052,433.346,204.192,427.407,204.192z"/>
</g>
<rect x="218.236" y="142.104" style="fill:#E7001F;" width="75.545" height="91.49"/>
<g>
	<rect x="255.998" y="142.104" style="fill:#C2001B;" width="37.773" height="91.49"/>
	<polygon style="fill:#C2001B;" points="407.981,325.691 391.481,325.691 391.481,338.535 376.041,338.535 376.041,325.691    359.541,325.691 359.541,338.535 344.101,338.535 344.101,325.691 327.601,325.691 327.601,338.535 312.162,338.535    312.162,325.691 295.662,325.691 295.662,338.535 280.222,338.535 280.222,325.691 280.222,325.691 263.722,325.691    263.722,338.535 248.282,338.535 248.282,325.691 231.782,325.691 231.782,338.535 216.342,338.535 216.342,325.691    199.842,325.691 199.842,338.535 184.403,338.535 184.403,325.691 167.903,325.691 167.903,338.535 152.463,338.535    152.463,325.691 135.963,325.691 135.963,338.535 120.523,338.535 120.523,325.691 104.023,325.691 104.023,425.533    407.981,425.533 407.981,338.535  "/>
</g>
<polygon style="fill:#990011;" points="391.481,325.692 391.481,338.535 376.041,338.535 376.041,325.692 359.541,325.692   359.541,338.535 344.101,338.535 344.101,325.692 327.601,325.692 327.601,338.535 312.162,338.535 312.162,325.692   295.662,325.692 295.662,338.535 280.222,338.535 280.222,325.692 280.222,325.692 263.722,325.692 263.722,338.535   256.003,338.535 256.003,425.533 407.981,425.533 407.981,338.535 407.981,325.692 "/>
<rect x="199.846" y="243.729" style="fill:#E7001F;" width="112.314" height="181.81"/>
<rect x="255.998" y="243.729" style="fill:#C2001B;" width="56.159" height="181.81"/>
<polygon style="fill:#FF3C62;" points="312.162,325.691 295.662,325.691 295.662,338.535 280.222,338.535 280.222,325.691   280.222,325.691 263.722,325.691 263.722,338.535 248.282,338.535 248.282,325.691 231.782,325.691 231.782,338.535   216.342,338.535 216.342,325.691 199.842,325.691 199.842,338.535 199.842,425.533 312.162,425.533 312.162,338.535 "/>
<polygon style="fill:#FF0335;" points="295.662,325.692 295.662,338.535 280.222,338.535 280.222,325.692 280.222,325.692   263.722,325.692 263.722,338.535 256.003,338.535 256.003,425.533 312.162,425.533 312.162,338.535 312.162,325.692 "/>
<rect x="188.541" y="229.623" style="fill:#FFFFFF;" width="134.926" height="15.788"/>
<rect x="255.998" y="229.623" style="fill:#D4D4D6;" width="67.468" height="15.788"/>
<path style="fill:#990011;" d="M269.482,277.344v-2.401c0-6.648-2.216-10.895-7.017-12.742c-4.765-1.833-6.464-7.133-6.464-7.133  c-0.025,0.08-1.697,5.301-6.462,7.133c-4.801,1.846-7.017,6.094-7.017,12.742v2.401h-13.941v34.348h54.843v-34.348L269.482,277.344  L269.482,277.344z"/>
<path style="fill:#70000A;" d="M283.423,277.344h-13.942v-2.401c0-6.649-2.216-10.895-7.017-12.742  c-4.746-1.825-6.449-7.087-6.463-7.129v56.62h27.421v-34.347H283.423z"/>
<g>
	<rect x="120.477" y="355.793" style="fill:#860010;" width="15.503" height="19.82"/>
	<rect x="152.451" y="355.793" style="fill:#860010;" width="15.503" height="19.82"/>
</g>
<g>
	<rect x="343.978" y="355.793" style="fill:#5C0007;" width="15.503" height="19.82"/>
	<rect x="375.961" y="355.793" style="fill:#5C0007;" width="15.503" height="19.82"/>
</g>
<rect x="199.846" y="347.11" style="fill:#E7001F;" width="112.314" height="7.366"/>
<rect x="255.998" y="347.11" style="fill:#C2001B;" width="56.159" height="7.366"/>
<path style="fill:#860010;" d="M256.002,388.449c-7.355,0-13.372,6.017-13.372,13.372v23.712h26.744v-23.712  C269.374,394.466,263.357,388.449,256.002,388.449z"/>
<path style="fill:#70000A;" d="M269.374,401.821c0-7.355-6.017-13.372-13.371-13.372v37.084h13.371V401.821z"/>
<rect x="216.314" y="363.463" style="fill:#C2001B;" width="15.503" height="13.337"/>
<rect x="280.187" y="363.463" style="fill:#860010;" width="15.503" height="13.337"/>
<rect x="248.256" y="363.463" style="fill:#C2001B;" width="15.503" height="13.337"/>
<rect x="255.998" y="363.463" style="fill:#860010;" width="7.751" height="13.337"/>
<polygon style="fill:#00B764;" points="293.772,142.107 256.002,45.805 218.232,142.107 218.232,151.25 293.772,151.25 "/>
<polygon style="fill:#008C4A;" points="293.772,142.107 293.772,142.107 256.003,45.806 256.003,151.25 293.772,151.25 "/>
<polygon style="fill:#E7001F;" points="256.002,24.732 260.296,32.865 269.357,34.435 262.949,41.033 264.256,50.136   256.002,46.079 247.748,50.136 249.054,41.033 242.647,34.435 251.708,32.865 "/>
<polygon style="fill:#C2001B;" points="262.949,41.033 269.357,34.435 260.296,32.865 256.003,24.733 256.003,46.079   264.256,50.136 "/>
<circle style="fill:#FFFFFF;" cx="255.998" cy="190.817" r="27.46"/>
<path style="fill:#D4D4D6;" d="M283.462,190.813c0-15.165-12.294-27.46-27.46-27.46v54.919  C271.168,218.273,283.462,205.979,283.462,190.813z"/>
<polygon style="fill:#990011;" points="263.839,200.613 253.912,191.749 253.912,171.713 258.091,171.713 258.091,189.877   266.623,197.494 "/>
<polygon style="fill:#5C0007;" points="266.623,197.494 258.091,189.877 258.091,171.713 256.003,171.713 256.003,193.615   263.839,200.613 "/>
<path style="fill:#AAA9AF;" d="M452.69,419.849c-46.947,56.319-117.633,92.148-196.689,92.148s-149.742-35.829-196.689-92.148  H452.69z"/>
<g>
	<rect x="97.678" y="432.498" style="fill:#87858E;" width="68.262" height="12.809"/>
	<rect x="189.387" y="445.298" style="fill:#87858E;" width="49.611" height="12.808"/>
	<rect x="160.329" y="473.426" style="fill:#87858E;" width="49.611" height="12.808"/>
	<path style="fill:#87858E;" d="M452.69,419.849c-46.947,56.319-117.633,92.148-196.689,92.148v-92.148H452.69z"/>
</g>
<g>
	<rect x="350.393" y="429.165" style="fill:#57555C;" width="68.262" height="12.809"/>
	<rect x="299.089" y="471.148" style="fill:#57555C;" width="49.611" height="12.808"/>
	<rect x="274.284" y="443.939" style="fill:#57555C;" width="49.611" height="12.808"/>
</g>
<g>
</g>
<g>
</g>
<g>
</g>
<g>
</g>
<g>
</g>
<g>
</g>
<g>
</g>
<g>
</g>
<g>
</g>
<g>
</g>
<g>
</g>
<g>
</g>
<g>
</g>
<g>
</g>
<g>
</g>
</svg>
