<svg id="Capa_1" enable-background="new 0 0 512 512" height="512" viewBox="0 0 512 512" width="512" xmlns="http://www.w3.org/2000/svg"><path d="m240 97.361h32v247.885h-32z" fill="#a0e6e1"/><path d="m256 177.477c-4.418 0-8-3.582-8-8v-64.115h16v64.115c0 4.418-3.582 8-8 8z" fill="#d2f5f6"/><path d="m461.821 147.548c-3.758-6.577-9.728-11.608-16.848-14.197l-64.99-23.633c-7.695-2.798-14.024-8.439-17.686-15.763l-9.917-19.834c-4.925-9.85-15.922-15.084-26.673-12.695l-34.914 7.759c-10.98 2.44-18.793 12.18-18.793 23.428v252.633h152l64-151.885z" fill="#c8c8aa"/><path d="m461.821 147.548c-3.758-6.577-9.728-11.608-16.847-14.196l-64.991-23.633c-7.695-2.798-14.024-8.439-17.686-15.763l-9.917-19.834c-4.925-9.85-15.922-15.084-26.672-12.695l-34.914 7.759c-10.981 2.439-18.794 12.179-18.794 23.427v164.863c13.255 0 24-10.745 24-24v-140.863l34.914-7.758 9.918 19.84c6.404 12.81 17.475 22.678 30.934 27.573l65.013 23.642c1.777.646 3.267 1.902 4.205 3.543l26.18 45.812 20.835-11.906z" fill="#ead1aa"/><path d="m225.454 67.128-24.334-10.429c-10.074-4.318-21.794-1.261-28.477 7.426l-59.545 77.409c-5.571 7.242-14.77 10.692-23.729 8.901l-9.102-1.82c-9.789-1.958-19.768 2.348-25.059 10.814l-31.208 49.932 64 135.885h152v-256.059c0-9.601-5.722-18.278-14.546-22.059z" fill="#c8c8aa"/><path d="m240 89.187c0-9.601-5.722-18.277-14.546-22.059l-24.334-10.429c-10.075-4.318-21.794-1.261-28.477 7.427l-59.545 77.409c-5.571 7.242-14.77 10.693-23.73 8.901l-9.101-1.82c-9.789-1.958-19.768 2.348-25.059 10.814l-31.208 49.931 8.511 22.341c4.728-1.795 8.957-5.007 11.841-9.624l31.207-49.93 9.105 1.821c17.918 3.584 36.316-3.318 47.457-17.802l59.543-77.41 24.336 10.431v120.29c0 8.836 7.171 15.999 16.008 16l7.992.001z" fill="#ead1aa"/><path d="m240 353.246c-4.418 0-8-3.582-8-8v-256.058c0-6.408-3.809-12.182-9.699-14.707l-24.332-10.428c-6.711-2.881-14.523-.844-18.984 4.951l-59.547 77.406c-7.48 9.73-19.629 14.271-31.637 11.871l-9.105-1.822c-6.496-1.297-13.199 1.6-16.707 7.211l-31.203 49.932c-2.344 3.746-7.285 4.883-11.023 2.543-3.75-2.34-4.887-7.275-2.547-11.023l31.207-49.934c7.012-11.219 20.422-17.014 33.414-14.416l9.102 1.82c6.008 1.195 12.078-1.072 15.82-5.936l59.547-77.408c8.918-11.59 24.535-15.662 37.969-9.902l24.332 10.428c11.78 5.052 19.393 16.597 19.393 29.414v256.058c0 4.418-3.582 8-8 8z" fill="#a0af82"/><path d="m272 353.246c-4.418 0-8-3.582-8-8v-252.633c0-15.115 10.305-27.959 25.059-31.236l34.914-7.76c14.363-3.197 28.992 3.77 35.563 16.928l9.918 19.834c2.758 5.516 7.469 9.715 13.266 11.822l64.988 23.633c8.891 3.232 16.367 9.535 21.059 17.746l26.18 45.812c2.191 3.836.859 8.723-2.977 10.914-3.832 2.201-8.723.859-10.914-2.977l-26.18-45.812c-2.816-4.926-7.301-8.707-12.637-10.648l-64.988-23.633c-9.656-3.512-17.508-10.508-22.105-19.699l-9.922-19.838c-3.289-6.58-10.594-10.053-17.781-8.465l-34.914 7.76c-7.377 1.641-12.529 8.063-12.529 15.619v252.633c0 4.418-3.582 8-8 8z" fill="#a0af82"/><path d="m270 105.361h-28c-4.418 0-8-3.582-8-8s3.582-8 8-8h28c4.418 0 8 3.582 8 8s-3.582 8-8 8z" fill="#a0af82"/><g fill="#3c8c82"><path d="m112 153.361-16 96h32z"/><path d="m128 257.361h-32c-2.352 0-4.586-1.035-6.105-2.828-1.52-1.795-2.172-4.168-1.785-6.486l16-96c.641-3.857 3.98-6.686 7.891-6.686 3.91 0 7.25 2.828 7.891 6.686l16 96c.387 2.318-.266 4.691-1.785 6.486-1.521 1.793-3.755 2.828-6.107 2.828zm-22.555-16h13.109l-6.554-39.338z"/><path d="m432 161.361-16 80h32z"/><path d="m448 249.361h-32c-2.398 0-4.668-1.074-6.188-2.928s-2.129-4.291-1.656-6.641l16-80c.746-3.74 4.031-6.432 7.844-6.432s7.098 2.691 7.844 6.432l16 80c.473 2.35-.137 4.787-1.656 6.641-1.52 1.854-3.79 2.928-6.188 2.928zm-22.242-16h12.484l-6.242-31.207z"/><path d="m336 217.361-16 80h32z"/><path d="m352 305.361h-32c-2.398 0-4.668-1.074-6.187-2.928s-2.129-4.291-1.656-6.641l16-80c.746-3.74 4.031-6.432 7.844-6.432s7.098 2.691 7.844 6.432l16 80c.473 2.35-.137 4.787-1.656 6.641s-3.791 2.928-6.189 2.928zm-22.242-16h12.484l-6.242-31.207z"/><path d="m72 177.361-16 80h32z"/><path d="m88 265.361h-32c-2.398 0-4.668-1.074-6.188-2.928s-2.129-4.291-1.656-6.641l16-80c.746-3.74 4.031-6.432 7.844-6.432s7.098 2.691 7.844 6.432l16 80c.473 2.35-.137 4.787-1.656 6.641s-3.79 2.928-6.188 2.928zm-22.242-16h12.484l-6.242-31.207z"/></g><path d="m288 417.246h-64l-8-104.115h80z" fill="#69c3be"/><path d="m216 321.246v24h16c4.418 0 8 3.582 8 8v32c0 4.418 3.582 8 8 8s8-3.582 8-8v-32c0-4.418 3.582-8 8-8 4.418 0 8 3.582 8 8v48c0 4.418 3.582 8 8 8s8-3.582 8-8l8-56v-24z" fill="#a0e6e1"/><path d="m320 417.246-24-99.793c0-21.431 14.207-40.266 34.813-46.153l49.447-14.128c18.094-5.17 34.269-15.543 46.515-29.83l85.225-62.277v131.535c0 59.066-133.934 120.645-142.771 120.645h-49.229z" fill="#3c8c82"/><path d="m512 137.169-7.862.196-77.362 89.976c-12.247 14.288-28.422 24.661-46.516 29.831l-49.446 14.127c-20.607 5.888-34.814 24.722-34.814 46.154l8 99.793h16c.002-.118 0-99.793 0-99.793 0-10.66 7.156-20.148 17.406-23.074l49.445-14.129c22.684-6.48 42.789-19.375 58.145-37.289l67.004-77.896z" fill="#69b47d"/><path d="m192 417.246 24-99.793c0-21.431-14.207-40.266-34.813-46.153l-57.684-16.481c-12.86-3.674-24.81-9.995-35.084-18.557l-88.419-42.901v92.774l180.814 131.217z" fill="#3c8c82"/><path d="m216 317.453c0-21.431-14.207-40.266-34.813-46.153l-57.684-16.481c-12.86-3.674-24.81-9.995-35.084-18.557l-88.419-63.196v20.295l73.051 61.338c12.926 10.77 27.684 18.574 43.859 23.195l57.684 16.484c10.25 2.926 17.406 12.414 17.406 23.074v99.793c0 .04 16 0 16 0z" fill="#69b47d"/><path d="m400 257.246h-288c-4.418 0-8-3.582-8-8s3.582-8 8-8h288c4.418 0 8 3.582 8 8s-3.582 8-8 8z" fill="#2d2d4b"/><path d="m296 321.246c-4.418 0-8-3.582-8-8 0-13.234-14.355-24-32-24s-32 10.766-32 24c0 4.418-3.582 8-8 8s-8-3.582-8-8c0-22.057 21.531-40 48-40s48 17.943 48 40c0 4.418-3.582 8-8 8z" fill="#2d2d4b"/><path d="m240 289.246c-4.418 0-8-3.582-8-8v-32c0-4.418 3.582-8 8-8s8 3.582 8 8v32c0 4.418-3.582 8-8 8z" fill="#2d2d4b"/><path d="m272 289.246c-4.418 0-8-3.582-8-8v-32c0-4.418 3.582-8 8-8s8 3.582 8 8v32c0 4.418-3.582 8-8 8z" fill="#2d2d4b"/><path d="m304 297.246c-4.418 0-8-3.582-8-8v-40c0-4.418 3.582-8 8-8s8 3.582 8 8v40c0 4.418-3.582 8-8 8z" fill="#2d2d4b"/><path d="m208 297.246c-4.418 0-8-3.582-8-8v-40c0-4.418 3.582-8 8-8s8 3.582 8 8v40c0 4.418-3.582 8-8 8z" fill="#2d2d4b"/><path d="m333.012 278.99 49.445-14.129c19.66-5.613 37.086-16.789 50.473-32.41l79.07-95.282c0-8.466-10.594-12.289-16-5.774l-75.3 90.74c-11.258 13.137-26 22.594-42.637 27.344l-49.448 14.129c-24.041 6.868-40.615 28.841-40.615 53.843v99.795h16v-99.793c0-17.86 11.839-33.556 29.012-38.463z" fill="#3c576c"/><path d="m296 329.246h-80c-4.418 0-8-3.582-8-8s3.582-8 8-8h80c4.418 0 8 3.582 8 8s-3.582 8-8 8z" fill="#3c576c"/><path d="m176 105.361-24 112h48z" fill="#3c8c82"/><path d="m200 225.361h-48c-2.414 0-4.703-1.092-6.223-2.971-1.516-1.879-2.105-4.344-1.602-6.705l24-112c.793-3.689 4.051-6.324 7.824-6.324s7.031 2.635 7.824 6.324l24 112c.504 2.361-.086 4.826-1.602 6.705-1.518 1.88-3.807 2.971-6.221 2.971zm-38.106-16h28.211l-14.105-65.818z" fill="#3c576c"/><path d="m176 273.361c-4.418 0-8-3.582-8-8v-48c0-4.418 3.582-8 8-8s8 3.582 8 8v48c0 4.418-3.582 8-8 8z" fill="#3c576c"/><path d="m384 121.361-24 96h48z" fill="#3c8c82"/><path d="m408 225.361h-48c-2.465 0-4.789-1.135-6.305-3.076s-2.055-4.475-1.457-6.863l24-96c.891-3.563 4.09-6.061 7.762-6.061s6.871 2.498 7.762 6.061l24 96c.598 2.389.059 4.922-1.457 6.863s-3.84 3.076-6.305 3.076zm-37.754-16h27.508l-13.754-55.015z" fill="#3c576c"/><path d="m384 257.361c-4.418 0-8-3.582-8-8v-32c0-4.418 3.582-8 8-8s8 3.582 8 8v32c0 4.418-3.582 8-8 8z" fill="#3c576c"/><circle cx="360" cy="317.246" fill="#69b47d" r="8"/><circle cx="168" cy="321.361" fill="#69b47d" r="8"/><circle cx="416" cy="297.246" fill="#3c576c" r="8"/><circle cx="144" cy="353.246" fill="#3c576c" r="8"/><path d="m183.385 263.607-57.682-16.48c-11.774-3.364-22.716-9.148-32.127-16.982l-77.578-64.577c-6.355-5.291-15.998-.771-15.998 7.498l83.297 69.338c11.195 9.332 23.984 16.098 38.008 20.105l57.684 16.481c17.172 4.906 29.011 20.602 29.011 38.461v99.795h16v-99.795c0-25.002-16.575-46.976-40.615-53.844z" fill="#3c576c"/><circle cx="72" cy="317.131" fill="#2d2d4b" r="24"/><circle cx="48" cy="301.246" fill="#2d2d4b" r="24"/><path d="m144.36 417.246-2.795-55.246c-8.718-15.983-23.168-28.07-40.44-33.828l-101.125-6.926v80c0 8.837 7.163 16 16 16z" fill="#3c576c"/><path d="m93.535 350.943c11.555 3.852 21.129 11.859 26.961 22.551l23.864 43.752h27.339l-30.134-55.246c-8.718-15.983-23.168-28.071-40.44-33.828l-101.125-30.926v24z" fill="#3c8c82"/><circle cx="64" cy="369.246" fill="#3c8c82" r="8"/><path d="m148.59 358.168c-9.719-17.816-25.68-31.168-44.941-37.586l-103.649-34.447v16.857l98.594 32.769c15.406 5.137 28.176 15.813 35.949 30.07l28.044 51.414h18.227z" fill="#2d2d4b"/><path d="m477.972 274.922c-12.746 5.102-23.148 14.672-29.289 26.953l-9.196 18.389c-3.405-1.898-7.3-3.018-11.487-3.018-11.896 0-21.701 8.676-23.6 20.034-.136-.002-.264-.034-.4-.034-11.051 0-20.261 7.511-23.05 17.676-9.584 4.528-17.806 11.684-23.563 20.895l-25.894 41.43h18.868l20.596-32.953c6.262-10.02 16.566-16.727 28.266-18.398l9.008-1.289c18.191-2.594 33.953-13.957 42.172-30.391l12.594-25.184c4.387-8.773 11.816-15.609 20.684-19.16l28.319-10.296v-17.026z" fill="#2d2d4b"/><path d="m56 441.246c0 13.255 10.745 24 24 24h352c13.255 0 24-10.745 24-24z" fill="#a0e6e1"/><path d="m496 449.246h-480c-4.418 0-8-3.582-8-8 0-4.418 3.582-8 8-8h480c4.418 0 8 3.582 8 8 0 4.418-3.582 8-8 8z" fill="#69c3be"/><path d="m489.42 304.809c-5.219 2.15-9.516 6.183-12.113 11.379l-12.594 25.184c-10.564 21.124-30.816 35.723-54.196 39.069l-9.039 1.294c-7.001 1.002-13.204 5.041-16.952 11.038l-15.296 24.473h126.77c8.837 0 16-7.163 16-16v-104.645z" fill="#3c576c"/></svg>