<svg id="Capa_1" enable-background="new 0 0 512 512" height="512" viewBox="0 0 512 512" width="512" xmlns="http://www.w3.org/2000/svg"><path d="m472 216h-432v-80c0-35.346 28.654-64 64-64h304c35.346 0 64 28.654 64 64z" fill="#ffd282"/><path d="m448 152h-400c-17.673 0-32 14.327-32 32v208h480v-192c0-26.51-21.491-48-48-48z" fill="#ffe9aa"/><path d="m512 318.349-69.02-93.268c-11.866-10.679-28.265-14.761-43.752-10.889l-14.872 3.718c-15.257 3.814-31.415-.087-43.25-10.443l-83.607-73.156c-15.287-13.376-37.338-15.681-55.061-5.757l-170.438 95.446v96l480 11.882z" fill="#ffd282"/><path d="m512 298.363-69.02-73.281c-11.866-10.679-28.265-14.76-43.752-10.889l-14.872 3.718c-15.257 3.814-31.415-.087-43.25-10.443l-83.607-73.156c-15.287-13.376-37.338-15.682-55.061-5.757l-170.438 95.445v23.894c3.978.004 8.007-.872 11.727-2.953l170.437-95.445c8.832-4.957 19.902-3.801 27.531 2.879l83.605 73.156c17.75 15.523 42.004 21.379 64.875 15.66l14.871-3.715c7.738-1.941 15.934.098 21.879 5.445l85.075 75.428z" fill="#ffe9aa"/><path d="m512 298.363c0-13.744-5.812-26.846-16.001-36.07l-47.667-43.156c-13.863-12.477-32.938-17.223-51.047-12.707l-14.875 3.72c-12.712 3.179-26.174-.072-36.035-8.7l-83.605-73.156c-17.797-15.574-43.617-18.277-64.242-6.719l-170.438 95.444c-3.855 2.16-5.23 7.035-3.07 10.891 2.168 3.855 7.039 5.234 10.891 3.07l170.437-95.445c14.727-8.254 33.172-6.332 45.883 4.797l83.605 73.156c13.809 12.083 32.661 16.635 50.462 12.183l14.87-3.718c12.91-3.246 26.559.156 36.441 9.059z" fill="#ffa573"/><path d="m512 371.201-43.248-60.378c-12.931-9.237-29.676-11.254-44.431-5.352l-.027.011c-10.504 4.201-22.176 4.442-32.844.677l-103.118-36.395c-10.64-3.755-22.165-4.209-33.067-1.302l-103.265 27.538v104l360-8z" fill="#ffa573"/><path d="m512 351.546-43.248-40.724c-12.931-9.236-29.676-11.253-44.43-5.352l-.027.011c-10.504 4.202-22.177 4.442-32.844.677l-103.119-36.395c-10.639-3.755-22.165-4.209-33.067-1.302l-103.265 27.539v23.902c2.046.001 4.112-.163 6.184-.71l103.266-27.539c6.254-1.676 12.797-1.414 18.895.746l103.117 36.395c16.039 5.66 33.555 5.348 49.363-.879.137-.051.273-.102.41-.156 7.199-2.871 15.262-1.914 21.57 2.598l57.195 40.844z" fill="#ffd282"/><path d="m512 331.882-38.598-27.57c-15.223-10.879-34.68-13.215-51.309-6.523-.262.074-.52.164-.773.266-8.699 3.477-18.371 3.68-27.207.563l-103.117-36.395c-12.207-4.305-25.273-4.82-37.793-1.492l-103.266 27.539c-4.27 1.141-6.805 5.523-5.668 9.793s5.492 6.801 9.793 5.668l103.266-27.539c9.375-2.5 19.184-2.121 28.34 1.117l103.117 36.395c12.516 4.426 26.176 4.137 37.734-.539.262-.074.52-.164.773-.262 12.281-4.906 26.043-3.258 36.812 4.434l47.896 34.209z" fill="#ff6e64"/><path d="m418.611 379.916c-11.798-17.697-30.817-29.272-51.957-31.621l-152.437-16.938c-19.319-2.146-36.949-12.013-48.882-27.356l-25.357-32.601c-7.844-10.085-18.23-17.901-30.093-22.646l-109.885-17.075v118.81l71 49.511h361z" fill="#ff6e64"/><path d="m132.379 366.855c-8.02-9.625-19.036-16.282-31.287-18.907l-101.092 2.541v41.511l160 8z" fill="#a0555a"/><path d="m132.379 366.855c-8.02-9.625-19.036-16.282-31.287-18.907l-101.092-22.013v24.553l96.066 20.929c6.965 1.492 13.312 5.328 17.875 10.801l14.818 17.782h31.241z" fill="#ff6e64"/><path d="m418.611 379.916c-11.798-17.697-30.817-29.272-51.957-31.621l-152.437-16.938c-19.319-2.146-36.949-12.013-48.882-27.356l-25.357-32.601c-7.844-10.085-18.23-17.901-30.093-22.646l-109.885-35.337v18.261l100.969 39.356c7.902 3.164 14.84 8.383 20.066 15.105l25.355 32.594c15.816 20.336 39.57 33.629 65.18 36.477l152.43 16.934c14.129 1.574 26.758 9.258 34.641 21.09l4.511 6.766h28.848z" fill="#ffa573"/><path d="m432 440h-352c-13.255 0-24-10.745-24-24h400c0 13.255-10.745 24-24 24z" fill="#ffa573"/><path d="m496 424h-480c-8.837 0-16-7.163-16-16l9-8h492l11 8c0 8.836-7.164 16-16 16z" fill="#ff6e64"/><circle cx="384" cy="152" fill="#fff" r="24"/><path d="m438.656 395.562-13.397-20.092c-13.022-19.53-33.961-32.342-57.259-35.069v-20.401h8c13.234 0 24-10.766 24-24v-16c0-4.418-3.582-8-8-8s-8 3.582-8 8v16c0 4.412-3.59 8-8 8h-8v-40c0-4.418-3.582-8-8-8s-8 3.582-8 8v74.618l-136.876-15.205c-17.181-1.909-32.861-10.682-43.475-24.327l-3.648-4.69v-78.396c0-4.418-3.582-8-8-8s-8 3.582-8 8v57.828l-5.707-7.336c-3.089-3.971-6.542-7.621-10.293-10.923v-23.569c0-4.418-3.582-8-8-8s-8 3.582-8 8v12.602c-2.32-1.206-4.702-2.301-7.141-3.277l-96.856-38.742c-7.666-3.067-16.004 2.579-16.004 10.834l106.89 42.752c10.554 4.221 19.795 11.175 26.774 20.146l25.355 32.594c13.264 17.051 32.858 28.015 54.329 30.4l152.421 16.932c18.84 2.098 35.672 12.344 46.184 28.113l13.391 20.082c1.543 2.313 4.078 3.563 6.664 3.563 1.523 0 3.066-.434 4.43-1.344 3.675-2.452 4.667-7.417 2.218-11.093z" fill="#a0555a"/><circle cx="80" cy="288" fill="#ffa573" r="8"/><circle cx="192" cy="376" fill="#ffa573" r="8"/><circle cx="440" cy="352" fill="#ffd282" r="8"/><circle cx="112" cy="320" fill="#a0555a" r="8"/><path d="m264 392v-48h8c13.255 0 24-10.745 24-24v-24c0-4.418-3.582-8-8-8s-8 3.582-8 8v24c0 4.418-3.582 8-8 8h-8v-48c0-4.418-3.582-8-8-8s-8 3.582-8 8v72h-8c-4.418 0-8-3.582-8-8v-24c0-4.418-3.582-8-8-8s-8 3.582-8 8v24c0 13.255 10.745 24 24 24h8v24h-65.52c-11.871 0-23.129-5.273-30.728-14.392l-13.228-15.873c-9.121-10.949-21.816-18.621-35.727-21.602l-102.797-22.385v16.375l99.418 21.649c10.449 2.238 19.973 7.992 26.816 16.203l16.687 20.025h-142.921v16h512v-16z" fill="#2d2d4b"/></svg>