<svg id="Capa_1" enable-background="new 0 0 512 512" height="512" viewBox="0 0 512 512" width="512" xmlns="http://www.w3.org/2000/svg"><path d="m320 116h-48c-8.837 0-16-7.163-16-16 0-8.837 7.163-16 16-16h48c8.837 0 16 7.163 16 16 0 8.837-7.163 16-16 16z" fill="#ffe9aa"/><path d="m400 116h-16c-8.837 0-16-7.163-16-16 0-8.837 7.163-16 16-16h16c8.837 0 16 7.163 16 16 0 8.837-7.164 16-16 16z" fill="#ffe9aa"/><path d="m216 116h-16c-8.837 0-16-7.163-16-16 0-8.837 7.163-16 16-16h16c8.837 0 16 7.163 16 16 0 8.837-7.163 16-16 16z" fill="#ffe9aa"/><path d="m112 148h288c48.601 0 88 39.399 88 88v176h-464v-176c0-48.601 39.399-88 88-88z" fill="#ffe9aa"/><path d="m56 428c0 13.255 10.745 24 24 24h352c13.255 0 24-10.745 24-24z" fill="#ff6e64"/><path d="m40 356h432c22.091 0 40 17.909 40 40v24c0 8.837-7.163 16-16 16h-480c-8.837 0-16-7.163-16-16v-24c0-22.091 17.909-40 40-40z" fill="#a0555a"/><path d="m96 188h160v96h-160z" fill="#ff6e64"/><path d="m96 188v24h128c4.418 0 8 3.582 8 8v64h24v-96z" fill="#ffa573"/><path d="m256 276c-4.418 0-8-3.582-8-8v-72h-144v72c0 4.418-3.582 8-8 8s-8-3.582-8-8v-80c0-4.418 3.582-8 8-8h160c4.418 0 8 3.582 8 8v80c0 4.418-3.582 8-8 8z" fill="#a0555a"/><path d="m425.2 132-14.867-6.833-19.533 6.833-6.8 136h48z" fill="#ff6e64"/><path d="m344.923 84-18.423-9.167-15.423 9.167-7.077 184h48z" fill="#ff6e64"/><path d="m344.923 84-.627-16.307c-.165-4.296-3.696-7.693-7.994-7.693h-16.603c-4.299 0-7.829 3.397-7.994 7.693l-.628 16.307z" fill="#ffa573"/><path d="m425.2 132-.82-16.4c-.213-4.258-3.727-7.6-7.99-7.6h-16.78c-4.263 0-7.777 3.343-7.99 7.6l-.82 16.4z" fill="#ffa573"/><path d="m280 268h184v144h-184z" fill="#ff6e64"/><path d="m464 412v-144h-184v24h152c4.418 0 8 3.582 8 8v112z" fill="#ffa573"/><path d="m464 420c-4.418 0-8-3.582-8-8v-136h-176c-4.418 0-8-3.582-8-8s3.582-8 8-8h184c4.418 0 8 3.582 8 8v144c0 4.418-3.582 8-8 8z" fill="#a0555a"/><path d="m48 412v-128l144-40 144 40v128" fill="#ff6e64"/><path d="m72 277.333-24 6.667v128h288v-24h-256c-4.418 0-8-3.582-8-8z" fill="#a0555a"/><g fill="#2d2d4b"><path d="m344 404v-120c0-3.594-2.395-6.746-5.859-7.709l-144-40c-1.398-.387-2.883-.387-4.281 0l-144 40c-3.465.963-5.86 4.115-5.86 7.709v120h-40v16h512v-16zm-288-113.92 136-37.777 136 37.777v113.92h-272z"/><path d="m80 340c-4.418 0-8-3.582-8-8v-16c0-4.418 3.582-8 8-8s8 3.582 8 8v16c0 4.418-3.582 8-8 8z"/><path d="m144 340c-4.418 0-8-3.582-8-8v-16c0-4.418 3.582-8 8-8s8 3.582 8 8v16c0 4.418-3.582 8-8 8z"/><path d="m112 340c-4.418 0-8-3.582-8-8v-16c0-4.418 3.582-8 8-8s8 3.582 8 8v16c0 4.418-3.582 8-8 8z"/><path d="m176 340c-4.418 0-8-3.582-8-8v-16c0-4.418 3.582-8 8-8s8 3.582 8 8v16c0 4.418-3.582 8-8 8z"/><path d="m240 340c-4.418 0-8-3.582-8-8v-16c0-4.418 3.582-8 8-8s8 3.582 8 8v16c0 4.418-3.582 8-8 8z"/><path d="m208 340c-4.418 0-8-3.582-8-8v-16c0-4.418 3.582-8 8-8s8 3.582 8 8v16c0 4.418-3.582 8-8 8z"/><path d="m272 340c-4.418 0-8-3.582-8-8v-16c0-4.418 3.582-8 8-8s8 3.582 8 8v16c0 4.418-3.582 8-8 8z"/><path d="m304 340c-4.418 0-8-3.582-8-8v-16c0-4.418 3.582-8 8-8s8 3.582 8 8v16c0 4.418-3.582 8-8 8z"/><path d="m80 388c-4.418 0-8-3.582-8-8v-16c0-4.418 3.582-8 8-8s8 3.582 8 8v16c0 4.418-3.582 8-8 8z"/><path d="m144 388c-4.418 0-8-3.582-8-8v-16c0-4.418 3.582-8 8-8s8 3.582 8 8v16c0 4.418-3.582 8-8 8z"/><path d="m112 388c-4.418 0-8-3.582-8-8v-16c0-4.418 3.582-8 8-8s8 3.582 8 8v16c0 4.418-3.582 8-8 8z"/><path d="m176 388c-4.418 0-8-3.582-8-8v-16c0-4.418 3.582-8 8-8s8 3.582 8 8v16c0 4.418-3.582 8-8 8z"/><path d="m240 388c-4.418 0-8-3.582-8-8v-16c0-4.418 3.582-8 8-8s8 3.582 8 8v16c0 4.418-3.582 8-8 8z"/><path d="m208 388c-4.418 0-8-3.582-8-8v-16c0-4.418 3.582-8 8-8s8 3.582 8 8v16c0 4.418-3.582 8-8 8z"/><path d="m272 388c-4.418 0-8-3.582-8-8v-16c0-4.418 3.582-8 8-8s8 3.582 8 8v16c0 4.418-3.582 8-8 8z"/><path d="m304 388c-4.418 0-8-3.582-8-8v-16c0-4.418 3.582-8 8-8s8 3.582 8 8v16c0 4.418-3.582 8-8 8z"/></g><path d="m432 316c4.418 0 8-3.582 8-8v-8c0-4.418-3.582-8-8-8-4.418 0-8 3.582-8 8v8c0 4.418 3.582 8 8 8z" fill="#a0555a"/><path d="m368 316c4.418 0 8-3.582 8-8v-8c0-4.418-3.582-8-8-8-4.418 0-8 3.582-8 8v8c0 4.418 3.582 8 8 8z" fill="#a0555a"/><path d="m128 236c4.418 0 8-3.582 8-8v-8c0-4.418-3.582-8-8-8-4.418 0-8 3.582-8 8v8c0 4.418 3.582 8 8 8z" fill="#a0555a"/><path d="m192 236c4.418 0 8-3.582 8-8v-8c0-4.418-3.582-8-8-8-4.418 0-8 3.582-8 8v8c0 4.418 3.582 8 8 8z" fill="#a0555a"/><path d="m160 236c4.418 0 8-3.582 8-8v-8c0-4.418-3.582-8-8-8-4.418 0-8 3.582-8 8v8c0 4.418 3.582 8 8 8z" fill="#a0555a"/><path d="m224 236c4.418 0 8-3.582 8-8v-8c0-4.418-3.582-8-8-8-4.418 0-8 3.582-8 8v8c0 4.418 3.582 8 8 8z" fill="#a0555a"/><path d="m400 316c4.418 0 8-3.582 8-8v-8c0-4.418-3.582-8-8-8-4.418 0-8 3.582-8 8v8c0 4.418 3.582 8 8 8z" fill="#a0555a"/><path d="m432 356c4.418 0 8-3.582 8-8v-8c0-4.418-3.582-8-8-8-4.418 0-8 3.582-8 8v8c0 4.418 3.582 8 8 8z" fill="#a0555a"/><path d="m368 356c4.418 0 8-3.582 8-8v-8c0-4.418-3.582-8-8-8-4.418 0-8 3.582-8 8v8c0 4.418 3.582 8 8 8z" fill="#a0555a"/><path d="m400 356c4.418 0 8-3.582 8-8v-8c0-4.418-3.582-8-8-8-4.418 0-8 3.582-8 8v8c0 4.418 3.582 8 8 8z" fill="#a0555a"/><path d="m432 388c4.418 0 8-3.582 8-8 0-4.418-3.582-8-8-8-4.418 0-8 3.582-8 8 0 4.418 3.582 8 8 8z" fill="#a0555a"/><path d="m368 388c4.418 0 8-3.582 8-8 0-4.418-3.582-8-8-8-4.418 0-8 3.582-8 8 0 4.418 3.582 8 8 8z" fill="#a0555a"/><path d="m400 388c4.418 0 8-3.582 8-8 0-4.418-3.582-8-8-8-4.418 0-8 3.582-8 8 0 4.418 3.582 8 8 8z" fill="#a0555a"/></svg>