<?xml version="1.0" encoding="iso-8859-1"?>
<!-- Generator: Adobe Illustrator 19.0.0, SVG Export Plug-In . SVG Version: 6.00 Build 0)  -->
<svg xmlns="http://www.w3.org/2000/svg" xmlns:xlink="http://www.w3.org/1999/xlink" version="1.1" id="Layer_1" x="0px" y="0px" viewBox="0 0 512 512" style="enable-background:new 0 0 512 512;" xml:space="preserve">
<circle style="fill:#00A2FF;" cx="255.996" cy="255.996" r="255.996"/>
<path style="fill:#0084FF;" d="M512,255.999c0-12.147-0.865-24.09-2.503-35.786L372.829,83.545l-94.075,94.075L161.922,60.787  l-30.936,30.937l100.421,100.421l5.521,5.521c-2.628,1.789-5.502,3.465-8.582,4.925l-55.466-54.821  c-1.79-3.912-5.736-6.652-10.299-6.652H100.81c-6.231,0-11.328,5.098-11.328,11.328c0,2.913,1.124,5.571,2.949,7.584H65.569  c-6.231,0-11.328,5.098-11.328,11.328c0,4.564,2.741,8.51,6.653,10.299l84.082,84.228l-36.746,36.746l80.798,80.798l-1.623,11.782  l7.299,5.625v17.174l92.136,92.136C413.68,494.913,512,386.946,512,255.999z"/>
<g>
	<path style="fill:#FFFFFF;" d="M65.569,160.029h26.863c-1.824-2.012-2.95-4.67-2.95-7.584c0-6.231,5.098-11.328,11.328-11.328   h61.769c6.231,0,11.328,5.098,11.328,11.328c0,6.231-5.097,11.328-11.328,11.328h-26.863c1.824,2.012,2.949,4.67,2.949,7.584l0,0   c0,6.23-5.097,11.328-11.328,11.328H65.569c-6.231,0-11.328-5.098-11.328-11.328l0,0C54.241,165.126,59.338,160.029,65.569,160.029   z"/>
	<path style="fill:#FFFFFF;" d="M451.757,242.997h-25.61c1.74-1.919,2.812-4.452,2.812-7.231c0-5.94-4.86-10.799-10.8-10.799H359.27   c-5.94,0-10.799,4.86-10.799,10.799c0,5.939,4.86,10.8,10.799,10.8h25.61c-1.74,1.918-2.812,4.452-2.812,7.231l0,0   c0,5.94,4.86,10.8,10.8,10.8h58.889c5.939,0,10.8-4.86,10.8-10.8l0,0C462.557,247.857,457.696,242.997,451.757,242.997z"/>
</g>
<rect x="194.704" y="392.876" style="fill:#FF3C62;" width="122.596" height="25.129"/>
<rect x="255.996" y="392.876" style="fill:#E7001F;" width="61.297" height="25.129"/>
<polygon style="fill:#EBE2D9;" points="303.063,238.893 208.937,238.893 187.404,395.211 324.596,395.211 "/>
<polygon style="fill:#DBC9B9;" points="324.596,395.211 303.063,238.893 255.996,238.893 255.996,395.211 "/>
<path style="fill:#00B764;" d="M255.999,512c80.503,0,152.313-37.17,199.241-95.27H56.759C103.688,474.83,175.498,512,255.999,512z"/>
<g>
	<path style="fill:#008849;" d="M255.996,416.73V512c0.001,0,0.002,0,0.003,0c80.503,0,152.313-37.17,199.241-95.27H255.996z"/>
	<rect x="106.996" y="433.668" style="fill:#008849;" width="68.262" height="12.809"/>
	<rect x="195.916" y="445.298" style="fill:#008849;" width="49.611" height="12.808"/>
	<rect x="179.918" y="475.652" style="fill:#008849;" width="49.611" height="12.808"/>
</g>
<g>
	<rect x="347.695" y="427.263" style="fill:#007539;" width="68.262" height="12.809"/>
	<rect x="296.402" y="469.247" style="fill:#007539;" width="49.611" height="12.808"/>
	<rect x="271.586" y="442.038" style="fill:#007539;" width="49.611" height="12.808"/>
</g>
<rect x="230.585" y="282.651" style="fill:#FF3C62;" width="50.834" height="52.088"/>
<rect x="255.996" y="282.651" style="fill:#E7001F;" width="25.42" height="52.088"/>
<rect x="234.482" y="310.654" style="fill:#3C3B41;" width="19.159" height="20.083"/>
<rect x="258.358" y="286.653" style="fill:#29292B;" width="19.159" height="19.298"/>
<rect x="234.482" y="286.653" style="fill:#3C3B41;" width="19.159" height="19.298"/>
<rect x="258.358" y="310.654" style="fill:#29292B;" width="19.159" height="20.083"/>
<path style="fill:#FF3C62;" d="M285.382,203.393c-18.202-7.883-29.382-24.192-29.382-24.192s-11.18,16.31-29.382,24.192  c-14.988,6.491-26.789,19.471-26.789,48.266h112.341C312.17,222.865,300.369,209.884,285.382,203.393z"/>
<path style="fill:#E7001F;" d="M312.17,251.66c0-28.795-11.801-41.777-26.789-48.266c-18.202-7.883-29.382-24.192-29.382-24.192  s-0.003,0.004-0.003,0.005v72.453L312.17,251.66L312.17,251.66z"/>
<rect x="316.206" y="78.208" transform="matrix(-0.7071 -0.7071 0.7071 -0.7071 471.6278 493.7892)" style="fill:#866746;" width="43.75" height="142.019"/>
<rect x="152.035" y="196.885" transform="matrix(0.7071 0.7071 -0.7071 0.7071 240.3672 -44.5085)" style="fill:#B38A65;" width="43.75" height="142.019"/>
<rect x="293.461" y="219.641" transform="matrix(0.7071 -0.7071 0.7071 0.7071 -113.1612 308.1057)" style="fill:#866746;" width="43.75" height="142.019"/>
<rect x="174.791" y="55.463" transform="matrix(-0.7071 0.7071 -0.7071 -0.7071 425.1603 76.8385)" style="fill:#B38A65;" width="43.75" height="142.019"/>
<polygon style="fill:#EBE2D9;" points="264.177,208.556 264.522,208.211 264.522,208.211 381.008,91.724 372.829,83.545   256.342,200.031 255.997,200.376 255.652,200.031 139.166,83.545 130.987,91.724 247.472,208.211 247.472,208.211 247.818,208.556   247.472,208.901 130.987,325.387 139.166,333.566 255.997,216.735 372.829,333.566 381.008,325.387 264.522,208.901 "/>
<polygon style="fill:#DBC9B9;" points="264.177,208.556 264.522,208.211 381.008,91.724 372.829,83.545 256.342,200.031   255.997,200.376 255.996,200.375 255.996,216.736 255.997,216.735 372.829,333.566 381.008,325.387 264.522,208.901 "/>
<g>
</g>
<g>
</g>
<g>
</g>
<g>
</g>
<g>
</g>
<g>
</g>
<g>
</g>
<g>
</g>
<g>
</g>
<g>
</g>
<g>
</g>
<g>
</g>
<g>
</g>
<g>
</g>
<g>
</g>
</svg>
