<?xml version="1.0" encoding="iso-8859-1"?>
<!-- Generator: Adobe Illustrator 19.0.0, SVG Export Plug-In . SVG Version: 6.00 Build 0)  -->
<svg xmlns="http://www.w3.org/2000/svg" xmlns:xlink="http://www.w3.org/1999/xlink" version="1.1" id="Layer_1" x="0px" y="0px" viewBox="0 0 512.001 512.001" style="enable-background:new 0 0 512.001 512.001;" xml:space="preserve">
<circle style="fill:#FFDB47;" cx="256.001" cy="255.996" r="255.996"/>
<path style="fill:#FFCB00;" d="M510.559,283.25L266.883,39.573c-2.006-3.825-6.01-6.438-10.629-6.438  c-6.629,0-12.002,5.374-12.002,12.002c0,4.615,2.614,8.608,6.435,10.615c0.176,0.334,0.36,0.662,0.566,0.977v13.453H231.12v18.963  l7.177,8.686c-6.431,14.691-22.848,44.152-58.562,68.858l24.786,23.745v5.382l-47.21,21.296l29.424,30.363l-50.718,22.878  l44.255,44.683v35.462v2.515v10.916h-18.517v13.431h-18.331v13.431h-17.982v13.975l106.062,106.062  c8.065,0.766,16.235,1.173,24.503,1.173C388.183,512,496.954,411.821,510.559,283.25z"/>
<polygon style="fill:#70000A;" points="192.506,166.41 204.52,177.261 204.52,180.697 307.488,180.697 307.488,177.261   319.502,166.41 "/>
<polygon style="fill:#5C0007;" points="307.488,180.697 307.488,177.261 319.502,166.41 256.004,166.41 256.004,180.697 "/>
<rect x="204.519" y="177.264" style="fill:#EBE2D9;" width="102.963" height="18.692"/>
<rect x="256.001" y="177.264" style="fill:#DBC9B9;" width="51.481" height="18.692"/>
<polygon style="fill:#70000A;" points="174.893,215.031 193.413,225.882 193.413,229.318 318.595,229.318 318.595,225.882   337.116,215.031 "/>
<polygon style="fill:#5C0007;" points="318.595,229.318 318.595,225.882 337.116,215.031 256.004,215.031 256.004,229.318 "/>
<polygon style="fill:#644B32;" points="307.488,195.815 204.52,195.815 157.311,217.111 354.697,217.111 "/>
<polygon style="fill:#59412C;" points="354.697,217.111 307.488,195.815 256.004,195.815 256.004,217.111 "/>
<polygon style="fill:#70000A;" points="157.393,267.823 180.274,281.015 180.274,285.194 331.735,285.194 331.735,281.015   354.616,267.823 "/>
<polygon style="fill:#5C0007;" points="256.004,267.823 256.004,285.194 331.735,285.194 331.735,281.015 354.616,267.823 "/>
<rect x="180.278" y="281.011" style="fill:#E7001F;" width="151.466" height="71.998"/>
<rect x="256.001" y="281.011" style="fill:#C2001B;" width="75.733" height="71.998"/>
<rect x="237.381" y="311.354" style="fill:#70000A;" width="37.242" height="41.655"/>
<rect x="256.001" y="311.354" style="fill:#5C0007;" width="18.621" height="41.655"/>
<rect x="180.278" y="281.011" style="fill:#EBE2D9;" width="151.466" height="16.163"/>
<rect x="256.001" y="281.011" style="fill:#DBC9B9;" width="75.733" height="16.163"/>
<rect x="193.412" y="225.883" style="fill:#EBE2D9;" width="125.187" height="18.692"/>
<rect x="256.001" y="225.883" style="fill:#DBC9B9;" width="62.592" height="18.692"/>
<rect x="180.278" y="350.496" style="fill:#87858E;" width="151.466" height="13.975"/>
<rect x="256.001" y="350.496" style="fill:#78777F;" width="75.733" height="13.975"/>
<rect x="180.278" y="350.496" style="fill:#C4C2C8;" width="151.466" height="5.03"/>
<rect x="256.001" y="350.496" style="fill:#AAA9AF;" width="75.733" height="5.03"/>
<rect x="161.752" y="363.933" style="fill:#87858E;" width="188.497" height="13.975"/>
<rect x="256.001" y="363.933" style="fill:#78777F;" width="94.248" height="13.975"/>
<rect x="161.752" y="363.933" style="fill:#C4C2C8;" width="188.497" height="5.03"/>
<rect x="256.001" y="363.933" style="fill:#AAA9AF;" width="94.248" height="5.03"/>
<rect x="143.425" y="377.359" style="fill:#87858E;" width="225.162" height="13.975"/>
<rect x="256.001" y="377.359" style="fill:#78777F;" width="112.586" height="13.975"/>
<rect x="143.425" y="377.359" style="fill:#C4C2C8;" width="225.162" height="5.03"/>
<rect x="256.001" y="377.359" style="fill:#AAA9AF;" width="112.586" height="5.03"/>
<rect x="125.442" y="390.786" style="fill:#87858E;" width="261.127" height="13.975"/>
<rect x="256.001" y="390.786" style="fill:#78777F;" width="130.558" height="13.975"/>
<rect x="125.442" y="390.786" style="fill:#C4C2C8;" width="261.127" height="5.03"/>
<rect x="256.001" y="390.786" style="fill:#AAA9AF;" width="130.558" height="5.03"/>
<polygon style="fill:#644B32;" points="318.595,244.462 193.413,244.462 136.018,270.352 375.991,270.352 "/>
<polygon style="fill:#59412C;" points="375.991,270.352 318.595,244.462 256.004,244.462 256.004,270.352 "/>
<path style="fill:#644B32;" d="M270.184,88.527h-28.362c0,0-12.291,43.713-62.087,78.161h152.536  C282.475,132.239,270.184,88.527,270.184,88.527z"/>
<path style="fill:#59412C;" d="M332.271,166.688c-49.796-34.449-62.088-78.161-62.088-78.161h-14.18v78.161H332.271z"/>
<path style="fill:#E7AF00;" d="M268.256,45.137c0-6.629-5.374-12.002-12.002-12.002c-6.629,0-12.002,5.374-12.002,12.002  c0,4.841,2.872,9.003,7.001,10.9v15.77h10.002v-15.77C265.384,54.14,268.256,49.979,268.256,45.137z"/>
<path style="fill:#D9A600;" d="M261.255,71.807v-15.77c4.128-1.898,7.001-6.059,7.001-10.9c0-6.629-5.374-12.002-12.002-12.002  c-0.085,0-0.166,0.01-0.25,0.013v38.66H261.255z"/>
<rect x="231.122" y="70.185" style="fill:#644B32;" width="49.768" height="18.965"/>
<rect x="256.001" y="70.185" style="fill:#59412C;" width="24.883" height="18.965"/>
<rect x="240.818" y="160.191" style="fill:#E7AF00;" width="30.375" height="40.641"/>
<rect x="256.001" y="160.191" style="fill:#D9A600;" width="15.185" height="40.641"/>
<path style="fill:#C5AA8F;" d="M464.75,404.227c-46.403,65.222-122.607,107.769-208.747,107.769S93.66,469.448,47.257,404.227  L464.75,404.227L464.75,404.227z"/>
<g>
	<rect x="99.258" y="423.178" style="fill:#A7805B;" width="68.262" height="12.809"/>
	<rect x="190.967" y="435.977" style="fill:#A7805B;" width="49.611" height="12.808"/>
	<rect x="161.898" y="464.106" style="fill:#A7805B;" width="49.611" height="12.808"/>
	<path style="fill:#A7805B;" d="M464.75,404.227c-46.403,65.222-122.607,107.769-208.747,107.769V404.227L464.75,404.227   L464.75,404.227z"/>
</g>
<g>
	<rect x="351.973" y="419.844" style="fill:#866746;" width="68.262" height="12.809"/>
	<rect x="298.297" y="469.142" style="fill:#866746;" width="49.611" height="12.808"/>
	<rect x="275.864" y="434.619" style="fill:#866746;" width="49.611" height="12.808"/>
</g>
<g>
</g>
<g>
</g>
<g>
</g>
<g>
</g>
<g>
</g>
<g>
</g>
<g>
</g>
<g>
</g>
<g>
</g>
<g>
</g>
<g>
</g>
<g>
</g>
<g>
</g>
<g>
</g>
<g>
</g>
</svg>
