<svg id="Capa_1" enable-background="new 0 0 512 512" height="512" viewBox="0 0 512 512" width="512" xmlns="http://www.w3.org/2000/svg"><path d="m264 304h-184v-104c0-4.418 3.582-8 8-8h176z" fill="#e6d7b9"/><path d="m272 80v-72c0-4.418-3.582-8-8-8s-8 3.582-8 8v72c0 4.418 3.582 8 8 8s8-3.582 8-8z" fill="#afc4c8"/><path d="m264 88h-40v8c0 8.837 7.163 16 16 16h8v200h32v-200h8c8.837 0 16-7.163 16-16v-8z" fill="#afc4c8"/><path d="m288 272h168v-104c0-4.418-3.582-8-8-8h-160z" fill="#e6d7b9"/><path d="m288 88h-48v-8c0-8.837 7.163-16 16-16h16c8.837 0 16 7.163 16 16z" fill="#698296"/><path d="m272 136h128v184h-128z" fill="#afc4c8"/><path d="m400 328c-4.418 0-8-3.582-8-8v-176h-112v176c0 4.418-3.582 8-8 8s-8-3.582-8-8v-184c0-4.418 3.582-8 8-8h128c4.418 0 8 3.582 8 8v184c0 4.418-3.582 8-8 8z" fill="#698296"/><path d="m304 184c-4.418 0-8-3.582-8-8v-8c0-4.418 3.582-8 8-8 4.418 0 8 3.582 8 8v8c0 4.418-3.582 8-8 8z" fill="#fff"/><path d="m336 184c-4.418 0-8-3.582-8-8v-8c0-4.418 3.582-8 8-8 4.418 0 8 3.582 8 8v8c0 4.418-3.582 8-8 8z" fill="#fff"/><path d="m368 184c-4.418 0-8-3.582-8-8v-8c0-4.418 3.582-8 8-8 4.418 0 8 3.582 8 8v8c0 4.418-3.582 8-8 8z" fill="#fff"/><path d="m304 224c-4.418 0-8-3.582-8-8v-8c0-4.418 3.582-8 8-8 4.418 0 8 3.582 8 8v8c0 4.418-3.582 8-8 8z" fill="#fff"/><path d="m336 224c-4.418 0-8-3.582-8-8v-8c0-4.418 3.582-8 8-8 4.418 0 8 3.582 8 8v8c0 4.418-3.582 8-8 8z" fill="#fff"/><path d="m368 224c-4.418 0-8-3.582-8-8v-8c0-4.418 3.582-8 8-8 4.418 0 8 3.582 8 8v8c0 4.418-3.582 8-8 8z" fill="#fff"/><path d="m304 264c-4.418 0-8-3.582-8-8v-8c0-4.418 3.582-8 8-8 4.418 0 8 3.582 8 8v8c0 4.418-3.582 8-8 8z" fill="#fff"/><path d="m336 264c-4.418 0-8-3.582-8-8v-8c0-4.418 3.582-8 8-8 4.418 0 8 3.582 8 8v8c0 4.418-3.582 8-8 8z" fill="#fff"/><path d="m304 304c-4.418 0-8-3.582-8-8v-8c0-4.418 3.582-8 8-8 4.418 0 8 3.582 8 8v8c0 4.418-3.582 8-8 8z" fill="#fff"/><path d="m336 304c-4.418 0-8-3.582-8-8v-8c0-4.418 3.582-8 8-8 4.418 0 8 3.582 8 8v8c0 4.418-3.582 8-8 8z" fill="#fff"/><path d="m112 168h96v184h-96z" fill="#afc4c8"/><path d="m208 360c-4.418 0-8-3.582-8-8v-176h-80v176c0 4.418-3.582 8-8 8s-8-3.582-8-8v-184c0-4.418 3.582-8 8-8h96c4.418 0 8 3.582 8 8v184c0 4.418-3.582 8-8 8z" fill="#698296"/><path d="m144 216c-4.418 0-8-3.582-8-8v-8c0-4.418 3.582-8 8-8 4.418 0 8 3.582 8 8v8c0 4.418-3.582 8-8 8z" fill="#fff"/><path d="m176 216c-4.418 0-8-3.582-8-8v-8c0-4.418 3.582-8 8-8 4.418 0 8 3.582 8 8v8c0 4.418-3.582 8-8 8z" fill="#fff"/><path d="m144 256c-4.418 0-8-3.582-8-8v-8c0-4.418 3.582-8 8-8 4.418 0 8 3.582 8 8v8c0 4.418-3.582 8-8 8z" fill="#fff"/><path d="m176 256c-4.418 0-8-3.582-8-8v-8c0-4.418 3.582-8 8-8 4.418 0 8 3.582 8 8v8c0 4.418-3.582 8-8 8z" fill="#fff"/><path d="m176 296c-4.418 0-8-3.582-8-8v-8c0-4.418 3.582-8 8-8 4.418 0 8 3.582 8 8v8c0 4.418-3.582 8-8 8z" fill="#fff"/><path d="m176 336c-4.418 0-8-3.582-8-8v-8c0-4.418 3.582-8 8-8 4.418 0 8 3.582 8 8v8c0 4.418-3.582 8-8 8z" fill="#fff"/><path d="m400 208v40h-32v176h127.999v-216z" fill="#d2e1e1"/><path d="m496 424c-4.418 0-8-3.582-8-8v-200h-80v32c0 4.418-3.582 8-8 8h-24v64c0 4.418-3.582 8-8 8s-8-3.582-8-8v-72c0-4.418 3.582-8 8-8h24v-32c0-4.418 3.582-8 8-8h96c4.418 0 8 3.582 8 8v208c0 4.418-3.582 8-8 8z" fill="#afc4c8"/><path d="m16 272h128v152h-128z" fill="#e6d7b9"/><path d="m48 360c-4.418 0-8-3.582-8-8v-8c0-4.418 3.582-8 8-8 4.418 0 8 3.582 8 8v8c0 4.418-3.582 8-8 8z" fill="#fff"/><path d="m48 400c-4.418 0-8-3.582-8-8v-8c0-4.418 3.582-8 8-8 4.418 0 8 3.582 8 8v8c0 4.418-3.582 8-8 8z" fill="#fff"/><path d="m88 392c-4.418 0-8-3.582-8-8v-8c0-4.418 3.582-8 8-8 4.418 0 8 3.582 8 8v8c0 4.418-3.582 8-8 8z" fill="#fff"/><path d="m16 424c-4.418 0-8-3.582-8-8v-144c0-4.418 3.582-8 8-8h128c4.418 0 8 3.582 8 8v72c0 4.418-3.582 8-8 8s-8-3.582-8-8v-64h-112v136c0 4.418-3.582 8-8 8z" fill="#beaa96"/><path d="m336 320h128v104h-128z" fill="#afc4c8"/><path d="m464 432c-4.418 0-8-3.582-8-8v-96h-120c-4.418 0-8-3.582-8-8s3.582-8 8-8h128c4.418 0 8 3.582 8 8v104c0 4.418-3.582 8-8 8z" fill="#698296"/><path d="m80 344h128v80h-128z" fill="#d2e1e1"/><path d="m80 432c-4.418 0-8-3.582-8-8v-80c0-4.418 3.582-8 8-8h128c4.418 0 8 3.582 8 8s-3.582 8-8 8h-120v72c0 4.418-3.582 8-8 8z" fill="#afc4c8"/><path d="m208 304h128v120h-128z" fill="#e6d7b9"/><path d="m336 432c-4.418 0-8-3.582-8-8v-112h-112v112c0 4.418-3.582 8-8 8s-8-3.582-8-8v-120c0-4.418 3.582-8 8-8h128c4.418 0 8 3.582 8 8v120c0 4.418-3.582 8-8 8z" fill="#beaa96"/><path d="m488 424h-461l-19 24c0 8.837 7.163 16 16 16h464c8.837 0 16-7.163 16-16z" fill="#6ea573"/><path d="m504 432-8.001-8h-479.999l-8 8v16h496z" fill="#8cbe69"/><path d="m56 488c0 13.255 10.745 24 24 24h352c13.255 0 24-10.745 24-24z" fill="#a7d9ff"/><path d="m496 496h-480c-4.418 0-8-3.582-8-8 0-4.418 3.582-8 8-8h480c4.418 0 8 3.582 8 8 0 4.418-3.582 8-8 8z" fill="#6bb2ff"/><g fill="#fff"><path d="m240 400c-4.418 0-8-3.582-8-8v-8c0-4.418 3.582-8 8-8 4.418 0 8 3.582 8 8v8c0 4.418-3.582 8-8 8z"/><path d="m272 400c-4.418 0-8-3.582-8-8v-8c0-4.418 3.582-8 8-8 4.418 0 8 3.582 8 8v8c0 4.418-3.582 8-8 8z"/><path d="m304 400c-4.418 0-8-3.582-8-8v-8c0-4.418 3.582-8 8-8 4.418 0 8 3.582 8 8v8c0 4.418-3.582 8-8 8z"/><path d="m240 360c-4.418 0-8-3.582-8-8v-16c0-4.418 3.582-8 8-8 4.418 0 8 3.582 8 8v16c0 4.418-3.582 8-8 8z"/><path d="m272 360c-4.418 0-8-3.582-8-8v-16c0-4.418 3.582-8 8-8 4.418 0 8 3.582 8 8v16c0 4.418-3.582 8-8 8z"/><path d="m304 360c-4.418 0-8-3.582-8-8v-16c0-4.418 3.582-8 8-8 4.418 0 8 3.582 8 8v16c0 4.418-3.582 8-8 8z"/><path d="m368 400c-4.418 0-8-3.582-8-8v-8c0-4.418 3.582-8 8-8 4.418 0 8 3.582 8 8v8c0 4.418-3.582 8-8 8z"/><path d="m112 400c-4.418 0-8-3.582-8-8v-16c0-4.418 3.582-8 8-8 4.418 0 8 3.582 8 8v16c0 4.418-3.582 8-8 8z"/><path d="m48 320c-4.418 0-8-3.582-8-8v-8c0-4.418 3.582-8 8-8 4.418 0 8 3.582 8 8v8c0 4.418-3.582 8-8 8z"/><path d="m112 320c-4.418 0-8-3.582-8-8v-8c0-4.418 3.582-8 8-8 4.418 0 8 3.582 8 8v8c0 4.418-3.582 8-8 8z"/><path d="m80 320c-4.418 0-8-3.582-8-8v-8c0-4.418 3.582-8 8-8 4.418 0 8 3.582 8 8v8c0 4.418-3.582 8-8 8z"/><path d="m144 400c-4.418 0-8-3.582-8-8v-16c0-4.418 3.582-8 8-8 4.418 0 8 3.582 8 8v16c0 4.418-3.582 8-8 8z"/><path d="m176 400c-4.418 0-8-3.582-8-8v-16c0-4.418 3.582-8 8-8 4.418 0 8 3.582 8 8v16c0 4.418-3.582 8-8 8z"/><path d="m432 400c-4.418 0-8-3.582-8-8v-8c0-4.418 3.582-8 8-8 4.418 0 8 3.582 8 8v8c0 4.418-3.582 8-8 8z"/><path d="m464 296c-4.418 0-8-3.582-8-8v-8c0-4.418 3.582-8 8-8 4.418 0 8 3.582 8 8v8c0 4.418-3.582 8-8 8z"/><path d="m432 296c-4.418 0-8-3.582-8-8v-8c0-4.418 3.582-8 8-8 4.418 0 8 3.582 8 8v8c0 4.418-3.582 8-8 8z"/><path d="m464 256c-4.418 0-8-3.582-8-8v-8c0-4.418 3.582-8 8-8 4.418 0 8 3.582 8 8v8c0 4.418-3.582 8-8 8z"/><path d="m432 256c-4.418 0-8-3.582-8-8v-8c0-4.418 3.582-8 8-8 4.418 0 8 3.582 8 8v8c0 4.418-3.582 8-8 8z"/><path d="m400 296c-4.418 0-8-3.582-8-8v-8c0-4.418 3.582-8 8-8 4.418 0 8 3.582 8 8v8c0 4.418-3.582 8-8 8z"/><path d="m400 400c-4.418 0-8-3.582-8-8v-8c0-4.418 3.582-8 8-8 4.418 0 8 3.582 8 8v8c0 4.418-3.582 8-8 8z"/><path d="m368 360c-4.418 0-8-3.582-8-8 0-4.418 3.582-8 8-8 4.418 0 8 3.582 8 8 0 4.418-3.582 8-8 8z"/><path d="m432 360c-4.418 0-8-3.582-8-8 0-4.418 3.582-8 8-8 4.418 0 8 3.582 8 8 0 4.418-3.582 8-8 8z"/><path d="m400 360c-4.418 0-8-3.582-8-8 0-4.418 3.582-8 8-8 4.418 0 8 3.582 8 8 0 4.418-3.582 8-8 8z"/></g><path d="m304 96h-80c-4.418 0-8-3.582-8-8 0-4.418 3.582-8 8-8h80c4.418 0 8 3.582 8 8 0 4.418-3.582 8-8 8z" fill="#698296"/><circle cx="208" cy="360" fill="#6ea573" r="32"/><circle cx="368" cy="360" fill="#6ea573" r="32"/><path d="m376 416v-16.805c18.235-3.716 32-19.877 32-39.195 0-22.057-17.945-40-40-40s-40 17.943-40 40c0 19.317 13.765 35.479 32 39.195v16.805h-25.371c-3.295-9.321-12.18-16-22.629-16-5.403 0-10.389 1.786-14.4 4.799-5.838-7.771-15.131-12.799-25.6-12.799-14.911 0-27.44 10.198-30.992 24h-25.008v-16.805c18.235-3.716 32-19.877 32-39.195 0-22.057-17.945-40-40-40s-40 17.943-40 40c0 19.317 13.765 35.479 32 39.195v16.805h-41.371c-3.295-9.321-12.18-16-22.629-16-6.72 0-12.791 2.765-17.148 7.215-3.127-2.026-6.848-3.215-10.852-3.215-8.199 0-15.237 4.939-18.325 12h-81.675v16h496v-16zm-32-56c0-13.234 10.766-24 24-24s24 10.766 24 24c0 10.43-6.688 19.322-16 22.624v-6.624c0-4.418-3.582-8-8-8s-8 3.582-8 8v6.624c-9.312-3.302-16-12.194-16-22.624zm-160 0c0-13.234 10.766-24 24-24s24 10.766 24 24c0 10.43-6.688 19.322-16 22.624v-6.624c0-4.418-3.582-8-8-8s-8 3.582-8 8v6.624c-9.312-3.302-16-12.194-16-22.624z" fill="#3c7864"/></svg>