<svg id="Capa_1" enable-background="new 0 0 512 512" height="512" viewBox="0 0 512 512" width="512" xmlns="http://www.w3.org/2000/svg"><path d="m496 228h-480v-80c0-35.346 28.654-64 64-64h352c35.346 0 64 28.654 64 64z" fill="#fffabe"/><path d="m20.764 198.176 79.301-29.738c17.462-6.548 37.037-3.974 52.212 6.865l8.518 6.084c14.579 10.414 33.261 13.223 50.258 7.557l187.66-62.553c15.998-5.333 33.547-3.172 47.774 5.881l50.693 32.259c9.23 5.874 14.82 16.056 14.82 26.997v44.472l-48.5 41.962h-442l-21.5-41.962v-7.862c0-13.339 8.274-25.279 20.764-29.962z" fill="#fce69b"/><path d="m296 244h96v-76l-8-20-40-16-40 16-8 20z" fill="#beaa96"/><g fill="#917d6e"><path d="m407.43 185.031-16-40c-.816-2.039-2.426-3.648-4.457-4.461l-40-16c-1.914-.766-4.031-.766-5.945 0l-40 16c-2.031.813-3.641 2.422-4.457 4.461l-16 40c-1.641 4.102.355 8.758 4.457 10.398.977.388 1.983.565 2.973.564v48.007c0 4.418 3.582 8 8 8s8-3.582 8-8v-74.455l6.156-15.389 33.843-13.539 33.844 13.539 6.156 15.39v74.454c0 4.418 3.582 8 8 8s8-3.582 8-8v-48h.004c.988 0 1.992-.18 2.969-.57 4.101-1.641 6.097-6.297 4.457-10.399z"/><path d="m360 244h-32v-32c0-4.418 3.582-8 8-8h16c4.418 0 8 3.582 8 8z"/><path d="m344 188c-4.418 0-8-3.582-8-8 0-4.418 3.582-8 8-8 4.418 0 8 3.582 8 8 0 4.418-3.582 8-8 8z"/></g><path d="m133 340 379-8v-64l-379-24z" fill="#d2e673"/><path d="m0 252 13.667-8h490.666l7.667 8v16h-512z" fill="#e6ff82"/><circle cx="424" cy="316" fill="#fce69b" r="40"/><circle cx="424" cy="316" fill="#d2be55" r="16"/><circle cx="112" cy="244" fill="#fce69b" r="40"/><circle cx="112" cy="244" fill="#d2be55" r="16"/><circle cx="224" cy="228" fill="#fceb9b" r="8"/><path d="m512 236h-33.371c.885-2.503 1.371-5.194 1.371-8 0-13.255-10.745-24-24-24s-24 10.745-24 24c0 2.806.486 5.497 1.371 8h-186.742c.885-2.503 1.371-5.194 1.371-8 0-13.255-10.745-24-24-24s-24 10.745-24 24c0 2.806.486 5.497 1.371 8h-42.05c-3.821-22.671-23.579-40-47.321-40s-43.5 17.329-47.321 40h-64.679v16h64.679c3.821 22.671 23.579 40 47.321 40s43.5-17.329 47.321-40h352.679zm-400 40c-17.645 0-32-14.355-32-32s14.355-32 32-32 32 14.355 32 32-14.355 32-32 32z" fill="#d2be55"/><circle cx="456" cy="228" fill="#fceb9b" r="8"/><circle cx="352" cy="308" fill="#d2be55" r="8"/><circle cx="296" cy="292" fill="#e6ff82" r="8"/><path d="m424 364c-26.469 0-48-21.533-48-48s21.531-48 48-48 48 21.533 48 48-21.531 48-48 48zm0-80c-17.645 0-32 14.355-32 32s14.355 32 32 32 32-14.355 32-32-14.356-32-32-32z" fill="#d2be55"/><path d="m512 348-127.127-8c-27.04 0-53.872-4.727-79.284-13.968l-99.176-36.064c-25.413-9.241-52.245-13.968-79.286-13.968l-127.127 24v56l37 32 475-8z" fill="#d2be55"/><path d="m384.872 340c-27.04 0-53.872-4.727-79.284-13.968l-99.177-36.064c-25.411-9.241-52.243-13.968-79.284-13.968l-127.127 8v16h127.129c24.316 0 48.23 4.211 71.078 12.523l99.18 36.063c28.121 10.226 57.554 15.414 87.484 15.414h127.129v-16z" fill="#d2e673"/><path d="m432 428h-352c-13.255 0-24-10.745-24-24h400c0 13.255-10.745 24-24 24z" fill="#d2e673"/><path d="m496 412h-480c-8.837 0-16-7.163-16-16l15-8h490.5l6.5 8c0 8.836-7.164 16-16 16z" fill="#d2be55"/><path d="m512 348h-127.129c-28.059 0-55.652-4.861-82.016-14.451l-99.18-36.063c-24.605-8.949-50.359-13.486-76.546-13.486h-127.129v-16h127.129c28.059 0 55.652 4.861 82.016 14.451l99.18 36.062c24.605 8.95 50.359 13.487 76.546 13.487h127.129z" fill="#9b784b"/><circle cx="92" cy="328" fill="#9b784b" r="12"/><circle cx="152" cy="324" fill="#d2e673" r="8"/><circle cx="240" cy="356" fill="#d2e673" r="8"/><path d="m140.379 371.591-16.758-7.182c-12.946-5.548-26.883-8.409-40.968-8.409h-82.653v24 8 8h512v-16h-330.653c-14.085 0-28.022-2.861-40.968-8.409z" fill="#9b784b"/></svg>