<?xml version="1.0" encoding="iso-8859-1"?>
<!-- Generator: Adobe Illustrator 19.0.0, SVG Export Plug-In . SVG Version: 6.00 Build 0)  -->
<svg xmlns="http://www.w3.org/2000/svg" xmlns:xlink="http://www.w3.org/1999/xlink" version="1.1" id="Layer_1" x="0px" y="0px" viewBox="0 0 512 512" style="enable-background:new 0 0 512 512;" xml:space="preserve">
<circle style="fill:#00A2FF;" cx="256" cy="255.996" r="255.996"/>
<path style="fill:#0084FF;" d="M511.04,278.138L260.112,27.21h-8.223v41.85l-27.082,63.992h-13.473v9.555l-19.209-18.819  c-1.643-4.238-5.758-7.268-10.559-7.268h-61.769c-6.231,0-11.328,5.098-11.328,11.328c0,2.914,1.124,5.571,2.949,7.584H84.556  c-6.231,0-11.328,5.097-11.328,11.328c0,4.799,3.03,8.916,7.268,10.559l111.353,112.247h-18.934l-13.286,0.003v19.092l13.286,12.998  v57.861h-13.286v19.092l13.286,12.998v106.595C198.97,507.14,226.919,512,256.004,512C389.929,512,499.815,409.155,511.04,278.138z"/>
<g>
	<path style="fill:#FFFFFF;" d="M84.556,135.43h26.863c-1.824-2.012-2.949-4.67-2.949-7.584c0-6.231,5.098-11.328,11.328-11.328   h61.769c6.231,0,11.328,5.098,11.328,11.328c0,6.231-5.097,11.328-11.328,11.328h-26.863c1.824,2.012,2.949,4.67,2.949,7.584l0,0   c0,6.231-5.097,11.328-11.328,11.328H84.556c-6.231,0-11.328-5.097-11.328-11.328l0,0C73.228,140.528,78.325,135.43,84.556,135.43z   "/>
	<path style="fill:#FFFFFF;" d="M459.423,239.523h-25.61c1.74-1.919,2.812-4.452,2.812-7.231c0-5.94-4.86-10.799-10.8-10.799   h-58.889c-5.94,0-10.799,4.86-10.799,10.799c0,5.94,4.86,10.8,10.799,10.8h25.61c-1.74,1.918-2.812,4.452-2.812,7.231l0,0   c0,5.94,4.86,10.8,10.799,10.8h58.889c5.939,0,10.799-4.86,10.799-10.8l0,0C470.223,244.382,465.363,239.523,459.423,239.523z"/>
</g>
<g>
	<polygon style="fill:#DBC9B9;" points="325.183,222.8 300.673,164.891 300.673,133.052 287.197,133.052 260.112,69.058    260.112,27.21 256,27.21 256,222.8  "/>
	<path style="fill:#DBC9B9;" d="M339.092,269.563v228.652c-26.049,8.934-54,13.782-83.089,13.782s-57.04-4.848-83.089-13.782   V269.563H339.092z"/>
</g>
<path style="fill:#C5AA8F;" d="M339.092,269.563v228.652c-26.049,8.934-54,13.782-83.089,13.782V269.563H339.092z"/>
<rect x="186.829" y="222.8" style="fill:#DBC9B9;" width="138.363" height="47.556"/>
<rect x="256" y="222.8" style="fill:#C5AA8F;" width="69.182" height="47.556"/>
<g>
	<path style="fill:#715539;" d="M217.688,243.084c0-4.139-3.588-7.525-7.975-7.525l0,0c-4.386,0-7.975,3.386-7.975,7.525v18.038   h15.949L217.688,243.084L217.688,243.084z"/>
	<path style="fill:#715539;" d="M248.548,243.084c0-4.139-3.588-7.525-7.975-7.525l0,0c-4.386,0-7.975,3.386-7.975,7.525v18.038   h15.949L248.548,243.084L248.548,243.084z"/>
</g>
<g>
	<path style="fill:#59412C;" d="M279.407,243.084c0-4.139-3.588-7.525-7.975-7.525l0,0c-4.386,0-7.975,3.386-7.975,7.525v18.038   h15.949V243.084z"/>
	<path style="fill:#59412C;" d="M310.268,243.084c0-4.139-3.588-7.525-7.975-7.525l0,0c-4.386,0-7.975,3.386-7.975,7.525v18.038   h15.949L310.268,243.084L310.268,243.084z"/>
</g>
<polygon style="fill:#EFE6DE;" points="320.183,210.986 300.673,164.891 300.673,133.052 287.197,133.052 260.112,69.058   260.112,27.21 251.888,27.21 251.888,69.061 224.807,133.052 211.334,133.052 211.334,164.886 191.824,210.986 177.546,210.986   177.546,225.28 334.461,225.28 334.461,210.986 "/>
<g>
	<path style="fill:#715539;" d="M209.714,404.986c0-4.139-3.588-7.525-7.975-7.525l0,0c-4.386,0-7.975,3.386-7.975,7.525v18.038   h15.949V404.986z"/>
	<path style="fill:#715539;" d="M245.89,404.986c0-4.139-3.588-7.525-7.975-7.525l0,0c-4.386,0-7.975,3.386-7.975,7.525v18.038   h15.949V404.986z"/>
</g>
<g>
	<path style="fill:#59412C;" d="M282.066,404.986c0-4.139-3.588-7.525-7.975-7.525l0,0c-4.386,0-7.975,3.386-7.975,7.525v18.038   h15.949V404.986z"/>
	<path style="fill:#59412C;" d="M318.242,404.986c0-4.139-3.588-7.525-7.975-7.525l0,0c-4.386,0-7.975,3.386-7.975,7.525v18.038   h15.949L318.242,404.986L318.242,404.986z"/>
</g>
<path style="fill:#BD9B7B;" d="M211.334,321.341c0-6.965-6.038-12.664-13.419-12.664l0,0c-7.381,0-13.419,5.699-13.419,12.664  v25.726h26.839V321.341z"/>
<path style="fill:#715539;" d="M207.922,322.338c0-5.194-4.503-9.444-10.007-9.444l0,0c-5.504,0-10.007,4.25-10.007,9.444v22.635  h20.015v-22.635H207.922z"/>
<path style="fill:#BD9B7B;" d="M250.06,321.341c0-6.965-6.038-12.664-13.419-12.664l0,0c-7.381,0-13.419,5.699-13.419,12.664v25.726  h26.839V321.341z"/>
<path style="fill:#715539;" d="M246.648,322.338c0-5.194-4.503-9.444-10.007-9.444l0,0c-5.504,0-10.007,4.25-10.007,9.444v22.635  h20.015v-22.635H246.648z"/>
<path style="fill:#866746;" d="M288.786,321.341c0-6.965-6.038-12.664-13.419-12.664l0,0c-7.381,0-13.419,5.699-13.419,12.664  v25.726h26.839V321.341z"/>
<path style="fill:#59412C;" d="M285.374,322.338c0-5.194-4.503-9.444-10.007-9.444l0,0c-5.504,0-10.007,4.25-10.007,9.444v22.635  h20.015v-22.635H285.374z"/>
<path style="fill:#866746;" d="M327.512,321.341c0-6.965-6.038-12.664-13.419-12.664l0,0c-7.381,0-13.419,5.699-13.419,12.664  v25.726h26.839L327.512,321.341L327.512,321.341z"/>
<path style="fill:#59412C;" d="M324.1,322.338c0-5.194-4.503-9.444-10.007-9.444l0,0c-5.504,0-10.008,4.25-10.008,9.444v22.635  H324.1V322.338z"/>
<rect x="159.63" y="269.569" style="fill:#EFE6DE;" width="192.75" height="19.092"/>
<rect x="256" y="269.569" style="fill:#DBC9B9;" width="96.38" height="19.092"/>
<rect x="159.63" y="359.513" style="fill:#EFE6DE;" width="192.75" height="19.092"/>
<g>
	<rect x="256" y="359.513" style="fill:#DBC9B9;" width="96.38" height="19.092"/>
	<rect x="256" y="210.983" style="fill:#DBC9B9;" width="78.46" height="14.294"/>
</g>
<g>
</g>
<g>
</g>
<g>
</g>
<g>
</g>
<g>
</g>
<g>
</g>
<g>
</g>
<g>
</g>
<g>
</g>
<g>
</g>
<g>
</g>
<g>
</g>
<g>
</g>
<g>
</g>
<g>
</g>
</svg>
