<svg id="Capa_1" enable-background="new 0 0 512 512" height="512" viewBox="0 0 512 512" width="512" xmlns="http://www.w3.org/2000/svg"><path d="m312 175.929h-80c-8.837 0-16-7.163-16-16 0-8.837 7.163-16 16-16h80c8.837 0 16 7.163 16 16 0 8.836-7.164 16-16 16z" fill="#ffe9aa"/><path d="m224 119.929h-32c-8.837 0-16-7.163-16-16 0-8.837 7.163-16 16-16h32c8.837 0 16 7.163 16 16 0 8.836-7.164 16-16 16z" fill="#ffe9aa"/><path d="m360 119.929h-32c-8.837 0-16-7.163-16-16 0-8.837 7.163-16 16-16h32c8.837 0 16 7.163 16 16 0 8.836-7.164 16-16 16z" fill="#ffe9aa"/><path d="m336 247.929v-128h-64v128h-104c-4.418 0-8 3.582-8 8v32h216v-40z" fill="#ffcd6e"/><path d="m136 279.929h240v40h-240z" fill="#ffaf5a"/><path d="m40 207.929h96v152h-96z" fill="#ffcd6e"/><path d="m376 207.929h96v152h-96z" fill="#ffcd6e"/><path d="m40 319.929h432v80h-432z" fill="#ffe9aa"/><g fill="#d28755"><path d="m72 259.929c-4.418 0-8-3.582-8-8v-8c0-4.418 3.582-8 8-8 4.418 0 8 3.582 8 8v8c0 4.418-3.582 8-8 8z"/><path d="m104 259.929c-4.418 0-8-3.582-8-8v-8c0-4.418 3.582-8 8-8 4.418 0 8 3.582 8 8v8c0 4.418-3.582 8-8 8z"/><path d="m72 299.929c-4.418 0-8-3.582-8-8v-8c0-4.418 3.582-8 8-8 4.418 0 8 3.582 8 8v8c0 4.418-3.582 8-8 8z"/><path d="m104 299.929c-4.418 0-8-3.582-8-8v-8c0-4.418 3.582-8 8-8 4.418 0 8 3.582 8 8v8c0 4.418-3.582 8-8 8z"/><path d="m408 259.929c-4.418 0-8-3.582-8-8v-8c0-4.418 3.582-8 8-8 4.418 0 8 3.582 8 8v8c0 4.418-3.582 8-8 8z"/></g><path d="m304 159.929c-4.418 0-8-3.582-8-8v-8c0-4.418 3.582-8 8-8 4.418 0 8 3.582 8 8v8c0 4.418-3.582 8-8 8z" fill="#ffaf5a"/><path d="m304 199.929c-4.418 0-8-3.582-8-8v-8c0-4.418 3.582-8 8-8 4.418 0 8 3.582 8 8v8c0 4.418-3.582 8-8 8z" fill="#ffaf5a"/><path d="m440 259.929c-4.418 0-8-3.582-8-8v-8c0-4.418 3.582-8 8-8 4.418 0 8 3.582 8 8v8c0 4.418-3.582 8-8 8z" fill="#d28755"/><path d="m408 299.929c-4.418 0-8-3.582-8-8v-8c0-4.418 3.582-8 8-8 4.418 0 8 3.582 8 8v8c0 4.418-3.582 8-8 8z" fill="#d28755"/><path d="m440 299.929c-4.418 0-8-3.582-8-8v-8c0-4.418 3.582-8 8-8 4.418 0 8 3.582 8 8v8c0 4.418-3.582 8-8 8z" fill="#d28755"/><path d="m224 263.929h64v120h-64z" fill="#ffcd6e"/><path d="m256 383.929c-4.418 0-8-3.582-8-8v-32c0-4.418 3.582-8 8-8 4.418 0 8 3.582 8 8v32c0 4.418-3.582 8-8 8z" fill="#d28755"/><path d="m256 311.929c-4.418 0-8-3.582-8-8v-8c0-4.418 3.582-8 8-8 4.418 0 8 3.582 8 8v8c0 4.418-3.582 8-8 8z" fill="#d28755"/><path d="m472 199.929c-4.418 0-8 3.582-8 8v104h-80v-104c0-4.418-3.582-8-8-8s-8 3.582-8 8v104h-72v-56c0-4.418-3.582-8-8-8h-64c-4.418 0-8 3.582-8 8v56h-72v-104c0-4.418-3.582-8-8-8s-8 3.582-8 8v104h-80v-104c0-4.418-3.582-8-8-8s-8 3.582-8 8v112c0 4.418 3.582 8 8 8h176v56c0 4.418 3.582 8 8 8h64c4.418 0 8-3.582 8-8v-56h176c4.418 0 8-3.582 8-8v-112c0-4.418-3.582-8-8-8zm-192 176h-48v-112h48z" fill="#d28755"/><path d="m423.073 326.672c-9.872.823-19.349 4.249-27.463 9.93l-53.148 37.204c-9.413 6.589-20.624 10.123-32.114 10.123h-114.073c-13.101 0-25.787-4.593-35.851-12.98l-21.5-17.917c-7.169-5.974-15.717-10.062-24.868-11.892l-114.056 1.663v49.125c0 8.837 7.163 16 16 16h480c8.837 0 16-7.163 16-16v-48.588z" fill="#6ea573"/><path d="m409.374 356.264c4.629-3.243 10.058-5.206 15.705-5.68l86.921-7.243v-16.056l-88.927-.613c-9.872.823-19.349 4.249-27.463 9.93l-53.148 37.204c-9.413 6.589-20.624 10.123-32.114 10.123h-114.073c-13.101 0-25.787-4.593-35.851-12.979l-21.5-17.917c-7.169-5.974-15.717-10.062-24.868-11.892l-114.056-14.655v16.317l109.351 21.87c5.207 1.042 10.124 3.394 14.217 6.802l21.493 17.916c14.354 11.956 32.54 18.538 51.213 18.538h114.074c16.508 0 32.373-5.002 45.88-14.467z" fill="#8cbe69"/><path d="m56 431.929c0 13.255 10.745 24 24 24h352c13.255 0 24-10.745 24-24z" fill="#a7d9ff"/><circle cx="192" cy="351.929" fill="#ffcd6e" r="8"/><circle cx="320" cy="351.929" fill="#ffcd6e" r="8"/><circle cx="432" cy="375.929" fill="#8cbe69" r="8"/><circle cx="40" cy="375.929" fill="#8cbe69" r="8"/><circle cx="472" cy="383.929" fill="#3c7864" r="8"/><circle cx="88" cy="383.929" fill="#3c7864" r="8"/><path d="m497.514 312.444-75.108 6.258c-11.282.94-22.113 4.856-31.389 11.348l-53.158 37.207c-8.064 5.644-17.669 8.672-27.512 8.672h-114.074c-11.229 0-22.102-3.937-30.728-11.126l-21.503-17.921c-8.187-6.823-17.95-11.492-28.401-13.582l-99.644-19.929c-8.275-1.656-15.997 4.675-15.997 13.115l112.489 22.497c7.844 1.569 15.171 5.073 21.315 10.195l21.5 17.922c11.494 9.581 25.983 14.828 40.947 14.828h114.096c13.127 0 25.937-4.038 36.692-11.565l53.176-37.22c6.951-4.865 15.068-7.8 23.523-8.504l88.262-7.354v-1.512c0-7.825-6.688-13.979-14.486-13.329z" fill="#3c7864"/><path d="m504 439.929h-496c-4.418 0-8-3.582-8-8 0-4.418 3.582-8 8-8h496c4.418 0 8 3.582 8 8 0 4.418-3.582 8-8 8z" fill="#6bb2ff"/><path d="m157.269 201.907-64-56c-3.016-2.637-7.523-2.637-10.539 0l-64 56c-2.508 2.195-3.391 5.715-2.219 8.836 1.172 3.119 4.156 5.186 7.488 5.186h128c3.332 0 6.316-2.066 7.488-5.186 1.173-3.121.29-6.641-2.218-8.836z" fill="#ffaf5a"/><path d="m493.269 201.907-64-56c-3.016-2.637-7.523-2.637-10.539 0l-64 56c-2.508 2.195-3.391 5.715-2.219 8.836 1.172 3.119 4.156 5.186 7.488 5.186h128c3.332 0 6.316-2.066 7.488-5.186 1.173-3.121.29-6.641-2.218-8.836z" fill="#ffaf5a"/><path d="m310.074 250.722-48-56c-3.039-3.547-9.109-3.547-12.148 0l-48 56c-2.031 2.373-2.5 5.711-1.195 8.551 1.309 2.838 4.145 4.656 7.27 4.656h96c3.125 0 5.961-1.818 7.27-4.656 1.303-2.84.834-6.178-1.197-8.551z" fill="#ffaf5a"/><path d="m350.144 106.808-40-48c-3.039-3.648-9.25-3.648-12.289 0l-40 48c-1.988 2.385-2.418 5.703-1.102 8.514 1.316 2.813 4.141 4.607 7.246 4.607h80c3.105 0 5.93-1.795 7.246-4.607 1.317-2.811.888-6.13-1.101-8.514z" fill="#ffaf5a"/></svg>