<?xml version="1.0" encoding="iso-8859-1"?>
<!-- Generator: Adobe Illustrator 19.0.0, SVG Export Plug-In . SVG Version: 6.00 Build 0)  -->
<svg xmlns="http://www.w3.org/2000/svg" xmlns:xlink="http://www.w3.org/1999/xlink" version="1.1" id="Layer_1" x="0px" y="0px" viewBox="0 0 512.001 512.001" style="enable-background:new 0 0 512.001 512.001;" xml:space="preserve">
<circle style="fill:#FFDB47;" cx="255.997" cy="255.996" r="255.996"/>
<path style="fill:#FFCB00;" d="M512,256.001c0-8.452-0.421-16.806-1.221-25.048l-93.703-93.703c-1.234-4.258-5.17-7.397-9.811-7.397  H396.74l-11.457-9.663c-1.233-4.258-5.17-7.397-9.811-7.397h-55.723c-5.62,0-10.219,4.599-10.219,10.219  c0,4.641,3.139,8.578,7.397,9.811l38.41,40.11h-23.098l-97.191-96.291c-1.449-4.371-5.577-7.548-10.416-7.548h-59.849  c-6.036,0-10.975,4.939-10.975,10.975c0,2.823,1.09,5.398,2.858,7.349h-26.028c-6.036,0-10.975,4.939-10.975,10.975  c0,4.84,3.179,8.967,7.548,10.416l64.516,65.99c-1.891,1.358-3.285,3.359-3.863,5.68c-0.216-0.075-0.435-0.142-0.657-0.203  c-1.145-4.216-5.006-7.344-9.571-7.344H70.534c-5.46,0-9.926,4.467-9.926,9.926v12.016c0,4.565,3.128,8.426,7.344,9.571  c0.884,3.255,3.384,5.862,6.584,6.88c-4.795,4.665-6.912,12.038-8.004,22.784c-2.158,21.223-15.28,155.636-15.28,155.636  l99.831,99.832c32.018,14.404,67.531,22.423,104.917,22.423C397.385,512,512,397.385,512,256.001z"/>
<g>
	<path style="fill:#FFFFFF;" d="M130.637,87.417h26.028c-1.768-1.95-2.858-4.525-2.858-7.349c0-6.036,4.939-10.975,10.975-10.975   h59.849c6.036,0,10.975,4.939,10.975,10.975c0,6.036-4.939,10.975-10.975,10.975h-26.028c1.768,1.95,2.857,4.524,2.857,7.349l0,0   c0,6.036-4.939,10.975-10.975,10.975h-59.849c-6.036,0-10.975-4.939-10.975-10.975l0,0   C119.662,92.356,124.601,87.417,130.637,87.417z"/>
	<path style="fill:#FFFFFF;" d="M407.265,129.853h-24.234c1.646-1.816,2.66-4.213,2.66-6.842c0-5.62-4.599-10.219-10.219-10.219   h-55.724c-5.62,0-10.219,4.599-10.219,10.219c0,5.62,4.599,10.219,10.219,10.219h24.233c-1.646,1.816-2.66,4.213-2.66,6.842l0,0   c0,5.62,4.599,10.219,10.219,10.219h55.724c5.62,0,10.219-4.599,10.219-10.219l0,0   C417.484,134.451,412.885,129.853,407.265,129.853z"/>
</g>
<path style="fill:#AEADB3;" d="M97.75,204.801c-22.926,0-29.061,8.085-31.219,29.308c-2.157,21.223-15.279,155.636-15.279,155.636  h77.983c0,0-2.097-118.496-2.102-136.435C127.119,208.842,116.226,204.801,97.75,204.801z"/>
<g>
	<path style="fill:#8B8992;" d="M127.132,253.311c-0.011-38.993-8.39-46.901-22.909-48.257l-13.981,50.942l13.963,31.699   L86.535,389.746h42.699C129.235,389.746,127.138,271.25,127.132,253.311z"/>
	<path style="fill:#8B8992;" d="M429.265,204.801c-22.926,0-29.061,8.085-31.219,29.308   c-2.158,21.223-15.279,155.636-15.279,155.636h77.983c0,0-2.097-118.496-2.102-136.435   C458.634,208.842,447.74,204.801,429.265,204.801z"/>
</g>
<path style="fill:#78777F;" d="M459.18,295.71c-0.044-2.828-0.086-5.594-0.125-8.274c-0.16-10.721-0.287-20.071-0.354-26.609  c-0.011-1.09-0.021-2.101-0.028-3.028c-0.016-1.854-0.024-3.368-0.024-4.489c-0.007-26.005-3.742-38.173-10.531-43.804  l-21.799,58.335l19.156,44.582l-19.156,77.321h34.433c0,0-0.778-44.002-1.389-82.438C459.299,303.365,459.237,299.481,459.18,295.71  z"/>
<path style="fill:#AEADB3;" d="M189.186,204.801c22.926,0,29.061,8.085,31.219,29.308c2.158,21.223,15.279,155.636,15.279,155.636  h-77.983c0,0,2.097-118.496,2.102-136.435C159.817,208.842,170.71,204.801,189.186,204.801z"/>
<g>
	<path style="fill:#8B8992;" d="M220.405,234.109c-1.98-19.484-7.325-27.889-25.925-29.137l-16.847,51.028l29.257,67.22   l-20.612,66.525h49.406C235.684,389.746,222.562,255.332,220.405,234.109z"/>
	<path style="fill:#8B8992;" d="M315.039,204.801c22.926,0,37.186,6.943,39.344,28.166c2.158,21.223,14.434,156.778,14.434,156.778   h-85.262c0,0,2.097-118.496,2.102-136.435C285.67,208.842,296.563,204.801,315.039,204.801z"/>
</g>
<path style="fill:#78777F;" d="M354.383,232.966c-2.158-21.223-16.418-28.166-39.344-28.166c-3.319,0-6.388,0.136-9.198,0.608  l6.932,58.602l34.927,49.457l-8.491,76.276h29.608C368.817,389.746,356.541,254.19,354.383,232.966z"/>
<path style="fill:#00B764;" d="M477.84,383.832c-44.23,76.611-127.016,128.165-221.839,128.165S78.392,460.442,34.162,383.832  H477.84z"/>
<g>
	<path style="fill:#008849;" d="M477.84,383.832c-44.23,76.611-127.016,128.165-221.839,128.165V383.832H477.84z"/>
	<rect x="104.207" y="427.263" style="fill:#008849;" width="68.262" height="12.809"/>
	<rect x="195.916" y="440.073" style="fill:#008849;" width="49.611" height="12.808"/>
	<rect x="166.858" y="395.843" style="fill:#008849;" width="49.611" height="12.808"/>
	<rect x="166.858" y="468.191" style="fill:#008849;" width="49.611" height="12.808"/>
	<rect x="83.267" y="395.843" style="fill:#008849;" width="49.611" height="12.808"/>
</g>
<g>
	<rect x="347.696" y="427.263" style="fill:#007539;" width="68.262" height="12.809"/>
	<rect x="296.402" y="469.247" style="fill:#007539;" width="49.611" height="12.808"/>
	<rect x="385.907" y="398.497" style="fill:#007539;" width="49.611" height="12.808"/>
	<rect x="271.587" y="442.038" style="fill:#007539;" width="49.611" height="12.808"/>
	<rect x="276.121" y="398.497" style="fill:#007539;" width="49.611" height="12.808"/>
</g>
<path style="fill:#8B8992;" d="M187.56,204.801H70.533c-5.46,0-9.926-4.467-9.926-9.926v-12.016c0-5.46,4.467-9.926,9.926-9.926  h107.101c5.46,0,9.926,4.467,9.926,9.926V204.801z"/>
<path style="fill:#AEADB3;" d="M157.702,179.027l29.859,17.338v-13.506c0-5.46-4.467-9.926-9.926-9.926H70.533  c-5.041,0-9.226,3.81-9.841,8.69l58.431,9.414L157.702,179.027z"/>
<path style="fill:#8B8992;" d="M447.736,204.801H187.56v-21.943c0-5.46,4.467-9.926,9.926-9.926h250.249  c5.46,0,9.926,4.467,9.926,9.926v12.016C457.662,200.334,453.196,204.801,447.736,204.801z"/>
<path style="fill:#78777F;" d="M447.736,172.932H255.997v31.869h191.739c5.46,0,9.926-4.467,9.926-9.926v-12.016  C457.662,177.399,453.196,172.932,447.736,172.932z"/>
<path style="fill:#AEADB3;" d="M447.736,172.932H197.487c-4.373,0-8.102,2.868-9.416,6.815l28.398,9.12l15.5-8.098l120.162,10.268  l105.533-5.611v-2.567C457.662,177.399,453.196,172.932,447.736,172.932z"/>
<path style="fill:#8B8992;" d="M447.736,172.932H255.997v9.89l96.132,8.215l105.533-5.611v-2.567  C457.662,177.399,453.196,172.932,447.736,172.932z"/>
<g>
</g>
<g>
</g>
<g>
</g>
<g>
</g>
<g>
</g>
<g>
</g>
<g>
</g>
<g>
</g>
<g>
</g>
<g>
</g>
<g>
</g>
<g>
</g>
<g>
</g>
<g>
</g>
<g>
</g>
</svg>
