<svg id="Capa_1" enable-background="new 0 0 512 512" height="512" viewBox="0 0 512 512" width="512" xmlns="http://www.w3.org/2000/svg"><g fill="#ffe9aa"><path d="m440 164h-80c-8.837 0-16-7.163-16-16 0-8.837 7.163-16 16-16h80c8.837 0 16 7.163 16 16 0 8.837-7.164 16-16 16z"/><path d="m456 116h-16c-8.837 0-16-7.163-16-16 0-8.837 7.163-16 16-16h16c8.837 0 16 7.163 16 16 0 8.837-7.164 16-16 16z"/><path d="m96 196h-32c-8.837 0-16-7.163-16-16 0-8.837 7.163-16 16-16h32c8.837 0 16 7.163 16 16 0 8.836-7.163 16-16 16z"/></g><path d="m512 332v-18.57c0-12.967-7.826-24.652-19.816-29.59l-94.272-38.818c-14.301-5.889-30.002-7.506-45.203-4.656l-86.371 16.195c-12.026 2.255-24.429 1.408-36.037-2.462l-75.431-25.144c-17.384-5.795-36.23-5.446-53.388.988l-80.717 30.269c-12.491 4.685-20.765 16.625-20.765 29.964v9.824l271.667 50.333z" fill="#ffcd6e"/><path d="m512 348-168.843-8c-20.637 0-41.138-3.327-60.716-9.853l-36.883-12.294c-19.578-6.526-40.079-9.853-60.716-9.853l-184.842 8v64l9 8h496.667l6.333-8z" fill="#8cbe69"/><path d="m512 348h-168.844c-21.539 0-42.816-3.453-63.246-10.264l-36.883-12.293c-18.793-6.265-38.367-9.443-58.183-9.443h-184.844v-16h184.844c21.539 0 42.816 3.453 63.246 10.264l36.883 12.293c18.793 6.266 38.367 9.443 58.184 9.443h168.843z" fill="#aad264"/><path d="m512 396-6.333-8h-496.667l-9 8v32l12.333 4.333h491.334l8.333-4.333z" fill="#ffcd6e"/><path d="m0 380h512v16h-512z" fill="#ffaf5a"/><path d="m408 332c-4.418 0-8 3.582-8 8v22.098c0 4.258-1.66 8.26-4.684 11.271l-11.316 11.293v-36.662c0-4.418-3.582-8-8-8s-8 3.582-8 8v55.931.021 32.048c0 4.418 3.582 8 8 8s8-3.582 8-8v-28.732l22.617-22.571c6.051-6.033 9.383-14.059 9.383-22.6v-22.097c0-4.418-3.582-8-8-8z" fill="#d28755"/><path d="m424 292h-10.798c-4.504-9.434-14.052-16-25.202-16h-16c-15.464 0-28 12.536-28 28 0 1.37.213 2.683.403 4h-.403c-13.255 0-24 10.745-24 24s10.745 24 24 24h40c10.435 0 19.224-6.7 22.53-16h17.47c13.255 0 24-10.745 24-24s-10.745-24-24-24z" fill="#8cbe69"/><path d="m362.512 323.484c4.559-5.266 6.574-12.469 5.578-19.367l-.09-.117c0-2.203 1.793-4 4-4h16c1.789 0 3.004 1.211 3.543 2.336 3.984 8.352 12.41 13.664 21.66 13.664h34.797c0-13.255-10.745-24-24-24h-10.798c-4.504-9.434-14.052-16-25.202-16h-16c-15.464 0-28 12.536-28 28 0 1.37.213 2.683.403 4h-.403c-13.255 0-24 10.745-24 24h24.402c6.965 0 13.551-3.25 18.11-8.516z" fill="#aad264"/><path d="m384 364h-40c-17.645 0-32-14.355-32-32 0-14.93 10.277-27.502 24.125-31.02 1.539-18.443 17.043-32.98 35.875-32.98h16c11.984 0 23.199 6.141 29.824 16h6.176c17.645 0 32 14.355 32 32s-14.355 32-32 32h-12.391c-5.644 9.758-16.129 16-27.609 16zm-12-80c-11.027 0-20 8.973-20 20 0 .828.141 1.621.258 2.414.332 2.299-.32 4.848-1.84 6.602-1.52 1.756-3.695 2.984-6.016 2.984-9.227 0-16.402 7.178-16.402 16s7.176 16 16 16h40c6.695 0 12.723-4.293 14.992-10.682 1.137-3.188 4.156-5.318 7.539-5.318h17.469c8.824 0 16-7.178 16-16s-7.176-16-16-16h-10.797c-3.082 0-5.891-1.771-7.219-4.553-3.371-7.06-10.262-11.447-17.984-11.447z" fill="#6ea573"/><path d="m120.035 396c-2.047 0-4.094-.781-5.656-2.344l-24.973-24.971c-6.043-6.043-9.371-14.078-9.371-22.627v-6.058c0-4.418 3.582-8 8-8s8 3.582 8 8v6.059c0 4.275 1.664 8.293 4.684 11.314l24.973 24.971c3.125 3.123 3.125 8.189 0 11.312-1.563 1.563-3.61 2.344-5.657 2.344z" fill="#d28755"/><path d="m166.624 276h-.094c-3.306-9.3-12.096-16-22.53-16h-45.602c-10.026 0-19.637 5.31-24.052 14.312-1.849 3.771-2.477 7.318-2.324 10.646.176 3.839-2.819 7.042-6.662 7.042h-.002c-12.996 0-24.644 9.731-25.324 22.709-.725 13.841 10.283 25.291 23.966 25.291h104c19.783 0 35.373-17.952 31.369-38.453-2.968-15.195-17.263-25.547-32.745-25.547z" fill="#8cbe69"/><path d="m65.358 316c8.336 0 16.414-3.453 22.164-9.477 5.566-5.828 8.641-13.719 8.504-21.781.336-.297 1.203-.742 2.371-.742l45.52.039c3.402 9.57 12.457 15.961 22.613 15.961h.094 32.285c-3.625-14.318-17.352-24-32.284-24h-.094c-3.306-9.3-12.096-16-22.53-16h-45.603c-10.026 0-19.637 5.31-24.052 14.312-1.849 3.771-2.477 7.318-2.324 10.646.176 3.839-2.819 7.042-6.662 7.042h-.002c-12.996 0-24.644 9.731-25.324 22.709-.023.441.066.854.066 1.29h25.258z" fill="#aad264"/><path d="m168 348h-104c-8.738 0-17.199-3.637-23.215-9.977-6.102-6.43-9.203-14.857-8.738-23.734.867-16.549 14.781-29.606 31.953-30.264 0-4.506 1.062-8.953 3.168-13.24 5.594-11.41 17.855-18.785 31.23-18.785h45.602c11.598 0 22.18 6.371 27.785 16.305 17.633 2.094 32.133 14.785 35.434 31.711 2.336 11.961-.699 24.135-8.332 33.4-7.633 9.267-18.891 14.584-30.887 14.584zm-69.602-80c-7.316 0-13.937 3.859-16.867 9.834-1.125 2.289-1.621 4.498-1.516 6.758.184 4.021-1.297 7.99-4.062 10.885-2.785 2.915-6.551 4.523-10.594 4.523-9.121 0-16.898 6.785-17.336 15.127-.234 4.451 1.316 8.67 4.367 11.885 3.055 3.216 7.176 4.988 11.61 4.988h104c7.199 0 13.953-3.191 18.535-8.756 4.648-5.643 6.418-12.805 4.98-20.164-2.121-10.877-12.824-19.08-24.891-19.08h-.094c-3.383 0-6.402-2.131-7.539-5.318-2.268-6.389-8.296-10.682-14.991-10.682z" fill="#6ea573"/><path d="m120.035 444c-4.418 0-8-3.582-8-8v-104c0-4.418 3.582-8 8-8s8 3.582 8 8v104c0 4.418-3.582 8-8 8z" fill="#d28755"/><path d="m56 436c0 13.255 10.745 24 24 24h352c13.255 0 24-10.745 24-24z" fill="#ffaf5a"/><path d="m496 444h-480c-8.837 0-16-7.163-16-16h512c0 8.836-7.164 16-16 16z" fill="#d28755"/><path d="m269.656 302.344-44.285-44.285c-6.043-6.045-9.371-14.08-9.371-22.627v-31.432c0-4.418-3.582-8-8-8s-8 3.582-8 8v23.432c-8.824 0-16-7.178-16-16v-15.432c0-4.418-3.582-8-8-8s-8 3.582-8 8v15.432c0 17.645 14.355 32 32 32h.673c1.632 9.778 6.235 18.79 13.385 25.939l44.285 44.285c1.563 1.563 3.609 2.344 5.656 2.344s4.094-.781 5.656-2.344c3.126-3.123 3.126-8.189.001-11.312z" fill="#2d2d4b"/><path d="m344 204c-4.418 0-8 3.582-8 8v15.432c0 8.822-7.176 16-16 16v-15.432c0-4.418-3.582-8-8-8s-8 3.582-8 8v18.746c0 6.41-2.496 12.437-7.027 16.971l-30.629 30.627c-3.125 3.123-3.125 8.189 0 11.313 1.563 1.563 3.609 2.344 5.656 2.344s4.094-.781 5.656-2.344l30.629-30.627c4.458-4.459 7.722-9.787 9.659-15.598h2.056c17.645 0 32-14.355 32-32v-15.432c0-4.418-3.582-8-8-8z" fill="#2d2d4b"/><path d="m406.624 156c-4.444 0-7.99-3.929-7.261-8.313.416-2.501.637-5.067.637-7.687 0-24.458-18.293-44.644-41.943-47.622-3.409-.429-5.988-3.132-6.642-6.505-2.859-14.742-15.837-25.873-31.415-25.873h-104c-15.399 0-28.257 10.876-31.311 25.365-.802 3.804-3.962 6.635-7.849 6.635h-16.84c-15.609 0-28.608 11.176-31.431 25.963-.64 3.351-3.207 5.977-6.581 6.486-20.483 3.088-35.876 21.708-33.8 43.481 1.983 20.796 20.64 36.07 41.531 36.07h126.208c2.522 0 5.024 1.033 6.528 3.057 5.814 7.826 15.043 12.943 25.545 12.943h120c19.783 0 35.373-17.952 31.369-38.453-2.968-15.195-17.263-25.547-32.745-25.547z" fill="#6ea573"/><path d="m90.752 164c10.033 0 19.058-4.76 26.36-11.64 2.387-2.248 5.384-3.717 8.446-4.181 13.348-2.008 24.027-12.344 26.586-25.719.614-3.21 3.508-6.46 7.856-6.46h16.84c15.262 0 28.145-10.562 31.332-25.684.66-3.136 3.562-6.316 7.828-6.316h104c4.336 0 7.23 3.242 7.852 6.434 2.588 13.378 16.148 25.566 32.148 25.566h33.476c-7.344-12.664-20.237-21.708-35.411-23.62-3.384-.427-5.992-3.035-6.628-6.387-2.811-14.802-15.817-25.993-31.437-25.993h-104c-15.399 0-28.256 10.876-31.311 25.366-.802 3.803-3.962 6.634-7.849 6.634h-16.84c-15.607 0-28.604 11.172-31.43 25.955-.645 3.377-3.249 5.985-6.648 6.503-19.192 2.925-33.705 19.537-33.727 39.541h2.557z" fill="#8cbe69"/><path d="m408 228h-136c-4.418 0-8-3.582-8-8s3.582-8 8-8h136c7.199 0 13.953-3.191 18.535-8.756 4.648-5.643 6.418-12.805 4.98-20.164-2.121-10.877-12.824-19.08-24.891-19.08-4.543 0-8.832-1.986-11.77-5.449-2.871-3.389-4.105-7.824-3.383-12.172.349-2.119.529-4.268.529-6.379 0-20.113-15.02-37.174-34.937-39.684-6.738-.85-12.164-6.043-13.5-12.924-2.184-11.236-12.094-19.392-23.563-19.392h-104c-11.285 0-21.16 7.998-23.484 19.016-1.61 7.644-8.055 12.984-15.676 12.984h-16.84c-11.504 0-21.418 8.182-23.57 19.457-1.285 6.715-6.609 11.9-13.254 12.902-16.773 2.531-28.645 17.822-27.023 34.811 1.543 16.166 16.273 28.83 33.535 28.83h134.312c4.418 0 8 3.582 8 8s-3.582 8-8 8h-134.313c-25.418 0-47.148-19.023-49.465-43.311-2.422-25.443 15.395-48.352 40.562-52.15 3.521-18.891 20.044-32.539 39.216-32.539h16.84c3.895-18.662 20.355-32 39.16-32h104c19.113 0 35.629 13.602 39.266 32.342 27.695 3.615 48.734 27.5 48.734 55.658 0 2.721-.207 5.475-.617 8.201h.113c19.285 0 36.129 13.4 39.723 31.814 2.336 11.961-.699 24.135-8.332 33.4-7.633 9.269-18.891 14.585-30.887 14.585z" fill="#3c7864"/><path d="m268 172c-6.627 0-12 5.373-12 12v244h24v-244c0-6.628-5.373-12-12-12z" fill="#2d2d4b"/><circle cx="324" cy="168" fill="#3c7864" r="12"/><circle cx="232" cy="116" fill="#8cbe69" r="8"/><circle cx="168" cy="164" fill="#3c7864" r="8"/><circle cx="368" cy="180" fill="#8cbe69" r="8"/><circle cx="296" cy="132" fill="#3c7864" r="8"/></svg>