<?xml version="1.0" encoding="iso-8859-1"?>
<!-- Generator: Adobe Illustrator 19.0.0, SVG Export Plug-In . SVG Version: 6.00 Build 0)  -->
<svg xmlns="http://www.w3.org/2000/svg" xmlns:xlink="http://www.w3.org/1999/xlink" version="1.1" id="Layer_1" x="0px" y="0px" viewBox="0 0 512 512" style="enable-background:new 0 0 512 512;" xml:space="preserve">
<circle style="fill:#00A2FF;" cx="256" cy="255.996" r="255.996"/>
<path style="fill:#0084FF;" d="M510.188,286.5L256.003,32.315l-8.096,68.267h-13.056v12.61h-13.923l17.509,16.336  c-7.155,3.556-15.683,7.823-23.97,11.982l-20.895-20.895c-1.994-3.266-5.581-5.467-9.667-5.467h-61.769  c-6.231,0-11.328,5.098-11.328,11.328c0,2.914,1.124,5.571,2.949,7.584H86.896c-6.231,0-11.328,5.098-11.328,11.328  c0,4.085,2.199,7.674,5.467,9.666l147.972,147.972l8.084,33.742l-28.618,170.808c0.305,0.057,0.609,0.119,0.915,0.176  c0.742,0.137,1.484,0.274,2.228,0.402c14.418,2.52,29.247,3.844,44.388,3.844C387.066,512,495.108,413.504,510.188,286.5z"/>
<g>
	<path style="fill:#FFFFFF;" d="M86.896,134.061h26.863c-1.824-2.012-2.949-4.67-2.949-7.584c0-6.231,5.098-11.328,11.328-11.328   h61.769c6.231,0,11.328,5.098,11.328,11.328c0,6.231-5.097,11.328-11.328,11.328h-26.863c1.824,2.012,2.949,4.67,2.949,7.584l0,0   c0,6.23-5.097,11.328-11.328,11.328H86.896c-6.231,0-11.328-5.098-11.328-11.328l0,0C75.569,139.159,80.665,134.061,86.896,134.061   z"/>
	<path style="fill:#FFFFFF;" d="M440.312,247.281h-25.61c1.74-1.918,2.812-4.452,2.812-7.231c0-5.94-4.86-10.799-10.8-10.799   h-58.889c-5.94,0-10.8,4.86-10.8,10.799c0,5.94,4.86,10.799,10.8,10.799h25.61c-1.74,1.918-2.812,4.452-2.812,7.231l0,0   c0,5.94,4.86,10.8,10.799,10.8h58.889c5.939,0,10.8-4.86,10.8-10.8l0,0C451.112,252.141,446.252,247.281,440.312,247.281z"/>
</g>
<path style="fill:#006EF5;" d="M256.003,512c116.507,0,214.822-77.834,245.818-184.337H10.185  C41.181,434.166,139.497,512,256.003,512z"/>
<path style="fill:#004DB0;" d="M256.003,327.663V512l0,0c116.507,0,214.822-77.834,245.818-184.337H256.003z"/>
<path style="fill:#EBE2D9;" d="M331.627,158.673c0,0-37.581-18.984-59.758-29.988l19.209-15.491h-70.149l19.209,15.491  c-22.177,11.004-59.758,29.988-59.758,29.988H331.627z"/>
<path style="fill:#DBC9B9;" d="M331.627,158.673c0,0-37.581-18.984-59.758-29.988l19.209-15.491H256v45.48H331.627z"/>
<polygon style="fill:#78777F;" points="256.003,32.315 247.706,102.291 264.302,102.291 "/>
<g>
	<polygon style="fill:#57555C;" points="264.302,102.291 256.003,32.315 256,32.342 256,102.291  "/>
	<rect x="234.852" y="100.58" style="fill:#57555C;" width="42.303" height="13.016"/>
</g>
<rect x="256" y="100.58" style="fill:#3C3B41;" width="21.152" height="13.016"/>
<rect x="195.23" y="157.506" style="fill:#866746;" width="121.541" height="44.282"/>
<rect x="256" y="157.506" style="fill:#644B32;" width="60.77" height="44.282"/>
<path style="fill:#57555C;" d="M265.773,209.514v302.295c-3.239,0.125-6.499,0.188-9.77,0.188c-3.271,0-6.531-0.063-9.77-0.188  V209.514H265.773z"/>
<path style="fill:#3C3B41;" d="M265.773,209.514v302.295c-3.239,0.125-6.499,0.188-9.77,0.188V209.514H265.773z"/>
<path style="fill:#EBE2D9;" d="M274.916,336.769l28.619,170.817c-3.354,0.637-6.729,1.202-10.135,1.693l-27.627-167.568  l-0.815-4.942h-2.654l-0.209,0.293l3.678,24.586l22.193,148.363c-2.163,0.282-4.336,0.522-6.51,0.731L265.773,402.2l-9.456-65.431  h-0.627l-9.456,65.431L230.55,510.742c-2.173-0.209-4.347-0.449-6.51-0.731l22.193-148.363l3.678-24.586l-0.209-0.293h-2.654  l-0.815,4.942l-27.627,167.568c-3.406-0.491-6.781-1.055-10.135-1.693l28.619-170.817l-30.49-127.256h9.634l23.802,88.596  l2.497-17.22c0,0-13.469-45.672-13.469-71.376h6.698c0,0,3.688,34.889,10.47,55.065c2.758,8.202,6.029,13.97,9.77,13.97  c3.741,0,7.011-5.768,9.77-13.97c6.781-20.177,10.47-55.065,10.47-55.065h6.698c0,25.704-13.469,71.376-13.469,71.376l2.497,17.22  l23.802-88.596h9.634L274.916,336.769z"/>
<path style="fill:#DBC9B9;" d="M274.916,336.769l28.619,170.817c-3.354,0.637-6.729,1.202-10.135,1.693l-27.627-167.568  l-0.815-4.942h-2.654l-0.209,0.293l3.678,24.586l22.193,148.363c-2.163,0.282-4.336,0.522-6.51,0.731L265.773,402.2l-9.456-65.431  h-0.313v-58.221c3.741,0,7.011-5.768,9.77-13.97c6.781-20.177,10.47-55.065,10.47-55.065h6.698  c0,25.704-13.469,71.376-13.469,71.376l2.497,17.22l23.802-88.596h9.634L274.916,336.769z"/>
<g>
	<rect x="245.593" y="379.543" style="fill:#EBE2D9;" width="20.815" height="6.862"/>
	<rect x="240.118" y="409.834" style="fill:#EBE2D9;" width="31.779" height="6.862"/>
	<rect x="239.251" y="440.126" style="fill:#EBE2D9;" width="33.499" height="6.862"/>
	<rect x="234.486" y="470.417" style="fill:#EBE2D9;" width="43.049" height="6.862"/>
	<rect x="188.26" y="201.286" style="fill:#EBE2D9;" width="135.48" height="9.079"/>
</g>
<rect x="256" y="201.286" style="fill:#DBC9B9;" width="67.741" height="9.079"/>
<path style="fill:#EBE2D9;" d="M335.638,170.567H176.369c-4.16,0-7.562,3.403-7.562,7.562l0,0c0,4.16,3.403,7.562,7.562,7.562  h159.268c4.16,0,7.562-3.403,7.562-7.562l0,0C343.201,173.969,339.798,170.567,335.638,170.567z"/>
<path style="fill:#DBC9B9;" d="M335.638,170.567H256v15.125h79.638c4.159,0,7.562-3.403,7.562-7.562l0,0  C343.201,173.969,339.798,170.567,335.638,170.567z"/>
<g>
</g>
<g>
</g>
<g>
</g>
<g>
</g>
<g>
</g>
<g>
</g>
<g>
</g>
<g>
</g>
<g>
</g>
<g>
</g>
<g>
</g>
<g>
</g>
<g>
</g>
<g>
</g>
<g>
</g>
</svg>
