<svg id="Capa_1" enable-background="new 0 0 512 512" height="512" viewBox="0 0 512 512" width="512" xmlns="http://www.w3.org/2000/svg"><path d="m448 128h-384c-17.673 0-32 14.327-32 32v72h448v-72c0-17.673-14.327-32-32-32z" fill="#fff1be"/><path d="m256 112h-48c-8.837 0-16-7.163-16-16 0-8.837 7.163-16 16-16h48c8.837 0 16 7.163 16 16 0 8.837-7.163 16-16 16z" fill="#fff1be"/><path d="m392 192h-48c-8.837 0-16-7.163-16-16 0-8.837 7.163-16 16-16h48c8.837 0 16 7.163 16 16 0 8.837-7.164 16-16 16z" fill="#fff"/><path d="m336 112h-16c-8.837 0-16-7.163-16-16 0-8.837 7.163-16 16-16h16c8.837 0 16 7.163 16 16 0 8.837-7.163 16-16 16z" fill="#fff1be"/><path d="m480 224h-448c-17.673 0-32 14.327-32 32v32l36.514 38.288 475.486-22.288v-48c0-17.673-14.327-32-32-32z" fill="#fce69b"/><path d="m432 448h-352c-13.255 0-24-10.745-24-24h400c0 13.255-10.745 24-24 24z" fill="#ffa573"/><path d="m472 296v-128c0-8.837-7.163-16-16-16h-48c-8.837 0-16 7.163-16 16v48c0 8.837-7.163 16-16 16h-16v40c0 13.255-10.745 24-24 24h-324.667l-11.333 24v64l9.332 24h502.668v-88l-24-8c-8.837 0-16-7.163-16-16z" fill="#ff6e64"/><path d="m495 408h-485.667l-9.333-8v-16h512v16z" fill="#a0555a"/><path d="m496 432h-480c-8.837 0-16-7.163-16-16l5.75-8h501l5.25 8c0 8.836-7.164 16-16 16z" fill="#ff6e64"/><path d="m360 232v40c0 13.255-10.745 24-24 24h-324.667l-11.333 8v16h336c26.51 0 48-21.49 48-48v-40z" fill="#ffa573"/><path d="m488 304c-4.41 0-8-3.588-8-8v-128c0-13.234-10.766-24-24-24h-48c-13.234 0-24 10.766-24 24v48c0 4.412-3.59 8-8 8s-8-3.588-8-8v-48c0-4.418-3.582-8-8-8s-8 3.582-8 8v104c0 8.822-7.176 16-16 16h-40c-4.418 0-8 3.582-8 8s3.582 8 8 8h40c17.645 0 32-14.355 32-32v-33.376c2.504.888 5.195 1.376 8 1.376 13.234 0 24-10.766 24-24v-48c0-4.412 3.59-8 8-8h48c4.41 0 8 3.588 8 8v128c0 13.234 10.766 24 24 24h24v-16z" fill="#a0555a"/><path d="m0 288h72v16h-72z" fill="#a0555a"/><path d="m314.551 342.666h-18.551v-173.81c0-7.97-5.446-15.357-13.313-16.637-10.024-1.631-18.687 6.063-18.687 15.781v79.144c0 7.97-5.446 15.358-13.313 16.637-10.024 1.631-18.687-6.064-18.687-15.781v-128c0-8.837-7.163-16-16-16h-48v-16c0-8.837-7.163-16-16-16h-64c-8.837 0-16 7.163-16 16v288h-9.373c-4.244 0-8.314 1.686-11.315 4.687l-27.312 27.313h368l-54.589-55.726c-6.019-6.145-14.258-9.608-22.86-9.608z" fill="#ff6e64"/><g fill="#a0555a"><path d="m72 376h-9.373c-4.244 0-8.313 1.686-11.314 4.687l-27.313 27.313h328l-21.936-22.393c-6.019-6.144-14.258-9.607-22.86-9.607z"/><path d="m208 248v-104c0-8.837-7.163-16-16-16h-24v184c0 13.255 10.745 24 24 24h80v-24c0-13.255-10.745-24-24-24-22.091 0-40-17.909-40-40z"/><path d="m72 96h32c13.255 0 24 10.745 24 24v256h-56z"/><circle cx="152" cy="344" r="8"/><circle cx="400" cy="360" r="8"/></g><circle cx="440" cy="336" fill="#ffa573" r="8"/><path d="m405.253 400c-6.365 0-12.469-2.528-16.97-7.029l-45.256-45.254c-7.55-7.555-17.597-11.717-28.281-11.717h-10.746v-168c0-13.234-10.766-24-24-24s-24 10.766-24 24v80c0 4.412-3.59 8-8 8s-8-3.588-8-8v-128c0-13.234-10.766-24-24-24h-40v-8c0-13.234-10.766-24-24-24h-64c-13.234 0-24 10.766-24 24v280.351c-8.692 1.134-16.729 5.064-23.027 11.366l-13.256 13.254c-4.501 4.5-10.605 7.029-16.97 7.029h-10.747v16h512v-16zm-361.939 0 8.971-8.971c4.531-4.533 10.559-7.029 16.969-7.029h194.472c4.261 0 7.981-3.215 8.257-7.467.302-4.659-3.388-8.533-7.983-8.533h-152v-248c0-4.418-3.582-8-8-8s-8 3.582-8 8v248h-16v-280c0-4.412 3.59-8 8-8h64c4.41 0 8 3.588 8 8v192c0 4.418 3.582 8 8 8s8-3.582 8-8v-168h40c4.41 0 8 3.588 8 8v128c0 13.234 10.766 24 24 24s24-10.766 24-24v-80c0-4.412 3.59-8 8-8s8 3.588 8 8v168h-80v-120c0-4.418-3.582-8-8-8s-8 3.582-8 8v120h-7.726c-4.261 0-7.981 3.215-8.257 7.467-.302 4.659 3.389 8.533 7.983 8.533h130.746c6.41 0 12.438 2.496 16.969 7.029l40.972 40.971z" fill="#2d2d4b"/></svg>