<?xml version="1.0" encoding="iso-8859-1"?>
<!-- Generator: Adobe Illustrator 19.0.0, SVG Export Plug-In . SVG Version: 6.00 Build 0)  -->
<svg xmlns="http://www.w3.org/2000/svg" xmlns:xlink="http://www.w3.org/1999/xlink" version="1.1" id="Layer_1" x="0px" y="0px" viewBox="0 0 512.001 512.001" style="enable-background:new 0 0 512.001 512.001;" xml:space="preserve">
<circle style="fill:#005ECE;" cx="255.997" cy="255.996" r="255.996"/>
<path style="fill:#004DAD;" d="M512,256.001c0-5.718-0.207-11.385-0.577-17.01l-75.34-75.34L256,50.161v-0.002l-0.002,0.001  l-0.001-0.001v0.002L75.913,163.65l12.262,9.042v16.756H75.913v15.361l12.262,9.042v8.903h2.931V355.71H75.913v14.886H65.658v24.939  l100.078,100.078C193.81,506.195,224.225,512,256.001,512C397.385,512,512,397.385,512,256.001z"/>
<rect x="88.178" y="162.563" style="fill:#C5AA8F;" width="335.648" height="27.65"/>
<rect x="255.997" y="162.563" style="fill:#B08765;" width="167.829" height="27.65"/>
<rect x="91.104" y="219.969" style="fill:#EBE2D9;" width="22.84" height="138.635"/>
<rect x="88.178" y="203.909" style="fill:#C4A98E;" width="28.702" height="18.85"/>
<rect x="152.491" y="219.969" style="fill:#EBE2D9;" width="22.84" height="138.635"/>
<rect x="149.565" y="203.909" style="fill:#C4A98E;" width="28.702" height="18.85"/>
<rect x="213.888" y="219.969" style="fill:#EBE2D9;" width="22.84" height="138.635"/>
<rect x="210.952" y="203.909" style="fill:#C4A98E;" width="28.702" height="18.85"/>
<rect x="275.275" y="219.969" style="fill:#DBC9B9;" width="22.84" height="138.635"/>
<rect x="272.339" y="203.909" style="fill:#B08765;" width="28.702" height="18.85"/>
<rect x="336.662" y="219.969" style="fill:#DBC9B9;" width="22.84" height="138.635"/>
<rect x="333.736" y="203.909" style="fill:#B08765;" width="28.702" height="18.85"/>
<rect x="398.059" y="219.969" style="fill:#DBC9B9;" width="22.84" height="138.635"/>
<rect x="395.123" y="203.909" style="fill:#B08765;" width="28.702" height="18.85"/>
<rect x="75.911" y="189.448" style="fill:#EBE2D9;" width="360.171" height="15.361"/>
<rect x="255.997" y="189.448" style="fill:#DBC9B9;" width="180.086" height="15.361"/>
<polygon style="fill:#EBE2D9;" points="256,50.161 256,50.159 255.999,50.16 255.997,50.159 255.997,50.161 75.913,163.65   436.083,163.65 "/>
<polygon style="fill:#DBC9B9;" points="436.083,163.65 256,50.161 256,163.65 "/>
<polygon style="fill:#C5AA8F;" points="255.997,72.705 138.87,145.713 373.127,145.713 "/>
<polygon style="fill:#B08765;" points="373.127,145.713 256,72.707 256,145.713 "/>
<rect x="75.911" y="355.71" style="fill:#C5AA8F;" width="360.171" height="15.18"/>
<rect x="255.997" y="355.71" style="fill:#B08765;" width="180.086" height="15.18"/>
<rect x="65.658" y="370.599" style="fill:#EBE2D9;" width="380.682" height="24.939"/>
<rect x="255.997" y="370.599" style="fill:#DBC9B9;" width="190.346" height="24.939"/>
<path style="fill:#AAA9AF;" d="M256,512c90.148,0,169.405-46.604,215.016-117.026H40.985C86.596,465.397,165.852,512,256,512z"/>
<g>
	<rect x="99.254" y="416.772" style="fill:#87858E;" width="68.262" height="12.809"/>
	<rect x="190.963" y="429.572" style="fill:#87858E;" width="49.611" height="12.808"/>
	<rect x="161.895" y="457.701" style="fill:#87858E;" width="49.611" height="12.808"/>
	<path style="fill:#87858E;" d="M255.997,394.975v117.026c0.001,0,0.002,0,0.003,0c90.148,0,169.405-46.604,215.016-117.026H255.997   z"/>
</g>
<g>
	<rect x="351.969" y="413.439" style="fill:#57555C;" width="68.262" height="12.809"/>
	<rect x="300.666" y="455.423" style="fill:#57555C;" width="49.611" height="12.808"/>
	<rect x="275.86" y="428.214" style="fill:#57555C;" width="49.611" height="12.808"/>
</g>
<g>
</g>
<g>
</g>
<g>
</g>
<g>
</g>
<g>
</g>
<g>
</g>
<g>
</g>
<g>
</g>
<g>
</g>
<g>
</g>
<g>
</g>
<g>
</g>
<g>
</g>
<g>
</g>
<g>
</g>
</svg>
