<svg id="Capa_1" enable-background="new 0 0 496 496" height="512" viewBox="0 0 496 496" width="512" xmlns="http://www.w3.org/2000/svg"><path d="m456 204h-416v-72c0-39.764 32.235-72 72-72h272c39.764 0 72 32.235 72 72z" fill="#c8f5f0"/><g fill="#9be7ee"><path d="m304 140h-64c-8.837 0-16-7.163-16-16 0-8.837 7.163-16 16-16h64c8.837 0 16 7.163 16 16 0 8.837-7.164 16-16 16z"/><path d="m384 140h-16c-8.837 0-16-7.163-16-16 0-8.837 7.163-16 16-16h16c8.837 0 16 7.163 16 16 0 8.836-7.164 16-16 16z"/><path d="m440 172h-408c-8.837 0-16 7.163-16 16v160h464v-136c0-22.091-17.909-40-40-40z"/></g><path d="m200 260h-64c-8.837 0-16-7.163-16-16 0-8.837 7.163-16 16-16h64c8.837 0 16 7.163 16 16 0 8.836-7.164 16-16 16z" fill="#c8f5f0"/><path d="m288 260h-24c-8.837 0-16-7.163-16-16 0-8.837 7.163-16 16-16h24c8.837 0 16 7.163 16 16 0 8.836-7.164 16-16 16z" fill="#c8f5f0"/><path d="m496 308-27-7.667h-442l-27 7.667v64l11.667 6h470.666l13.667-6z" fill="#6bb2ff"/><path d="m48 412c0 13.255 10.745 24 24 24h352c13.255 0 24-10.745 24-24z" fill="#ffe9aa"/><path d="m0 372h496c0 8.837-7.163 16-16 16h-464c-8.837 0-16-7.164-16-16z" fill="#a7d9ff"/><path d="m0 308h496c0-8.837-7.163-16-16-16h-464c-8.837 0-16 7.163-16 16z" fill="#508ce6"/><path d="m168 404h-16v-192l8-8 8 8z" fill="#afc4c8"/><path d="m269.578 196c6.344 0 16.585-7.09 13.088-12.383-29.783-45.08-56.931-75.617-122.666-75.617s-93.319 30.537-123.102 75.617c-3.497 5.293 7.18 12.383 13.524 12.383h72.078l37.667-9.333 35.5 9.333z" fill="#fff"/><path d="m198.497 196c5.045 0 8.79-4.621 7.857-9.58-8.772-46.613-26.227-78.42-46.354-78.42s-37.582 31.807-46.353 78.42c-.933 4.958 2.811 9.58 7.857 9.58z" fill="#ff6e64"/><path d="m7.294 183.617c-3.497 5.293.425 12.383 6.768 12.383h36.359c3.352 0 6.28-2.132 7.459-5.27 18.388-48.951 57.181-82.73 102.12-82.73-65.735 0-122.923 30.537-152.706 75.617z" fill="#a0555a"/><path d="m312.706 183.617c-29.784-45.08-86.971-75.617-152.706-75.617 44.939 0 83.732 33.779 102.12 82.73 1.179 3.138 4.107 5.27 7.459 5.27h36.359c6.343 0 10.265-7.09 6.768-12.383z" fill="#ff6e64"/><path d="m152 196h16v16h-16z" fill="#698296"/><circle cx="128" cy="348" fill="#a7d9ff" r="8"/><circle cx="280" cy="332" fill="#508ce6" r="8"/><circle cx="408" cy="332" fill="#a7d9ff" r="8"/><circle cx="352" cy="348" fill="#a7d9ff" r="8"/><path d="m239.992 420.002c-1.199 0-2.422-.271-3.57-.846-3.953-1.977-5.555-6.781-3.578-10.734l16-32c1.973-3.947 6.773-5.559 10.734-3.578 3.953 1.977 5.555 6.781 3.578 10.734l-16 32c-1.402 2.803-4.226 4.424-7.164 4.424z" fill="#d28755"/><path d="m392.008 420.002c-2.938 0-5.762-1.621-7.164-4.424l-16-32c-1.977-3.953-.375-8.758 3.578-10.734 3.969-1.98 8.762-.369 10.734 3.578l16 32c1.977 3.953.375 8.758-3.578 10.734-1.148.574-2.371.846-3.57.846z" fill="#d28755"/><path d="m400 388h-132.414c-9.336 0-18.43-3.293-25.605-9.27l-39.102-32.584c-3.395-2.83-3.852-7.873-1.023-11.268 2.828-3.393 7.867-3.854 11.266-1.025l39.102 32.584c4.305 3.588 9.762 5.563 15.363 5.563h132.413c4.418 0 8 3.582 8 8s-3.582 8-8 8z" fill="#ffaf5a"/><path d="m488 420h-480c-4.418 0-8-3.582-8-8 0-4.418 3.582-8 8-8h480c4.418 0 8 3.582 8 8 0 4.418-3.582 8-8 8z" fill="#ffcd6e"/></svg>