<?xml version="1.0" encoding="iso-8859-1"?>
<!-- Generator: Adobe Illustrator 19.0.0, SVG Export Plug-In . SVG Version: 6.00 Build 0)  -->
<svg xmlns="http://www.w3.org/2000/svg" xmlns:xlink="http://www.w3.org/1999/xlink" version="1.1" id="Layer_1" x="0px" y="0px" viewBox="0 0 512 512" style="enable-background:new 0 0 512 512;" xml:space="preserve">
<circle style="fill:#00EBCD;" cx="255.996" cy="255.996" r="255.996"/>
<path style="fill:#00C9AF;" d="M512,255.999c0-17.122-1.695-33.847-4.902-50.028L399.154,98.028  c-8.618-10.031-21.387-16.392-35.648-16.392c-12.275,0-23.45,4.708-31.821,12.416l-75.685-74.456l-5.154,65.044h-3.322v26.745  h-11.28v9.529c-7.539,0.992-13.413,7.471-13.413,15.269v6.775c0,5.521,2.952,10.369,7.348,13.088l4.298,4.552v4.278h4.04  l2.494,5.048l-1.14,12.354l-48.195-47.385c-1.868-3.703-5.701-6.264-10.111-6.264h-61.769c-6.231,0-11.328,5.098-11.328,11.328  c0,2.914,1.124,5.571,2.949,7.584H84.552c-6.231,0-11.328,5.098-11.328,11.328c0,4.41,2.561,8.243,6.263,10.111l147.885,148.649  l-7.398,80.128l104.868,104.868C432.79,472.555,512,373.533,512,255.999z"/>
<circle style="fill:#FFD000;" cx="363.504" cy="128.625" r="46.993"/>
<path style="fill:#E7AF00;" d="M363.506,81.636v93.985c25.954,0,46.993-21.04,46.993-46.993  C410.499,102.674,389.459,81.636,363.506,81.636z"/>
<g>
	<path style="fill:#FFFFFF;" d="M84.552,147.54h26.863c-1.824-2.012-2.949-4.67-2.949-7.584c0-6.231,5.098-11.328,11.328-11.328   h61.769c6.231,0,11.328,5.098,11.328,11.328c0,6.231-5.097,11.328-11.328,11.328H154.7c1.824,2.012,2.949,4.67,2.949,7.584l0,0   c0,6.231-5.097,11.328-11.328,11.328H84.552c-6.231,0-11.328-5.097-11.328-11.328l0,0C73.224,152.638,78.321,147.54,84.552,147.54z   "/>
	<path style="fill:#FFFFFF;" d="M451.757,276.544h-25.61c1.74-1.919,2.812-4.452,2.812-7.231c0-5.94-4.86-10.799-10.8-10.799H359.27   c-5.94,0-10.799,4.86-10.799,10.799c0,5.939,4.86,10.8,10.799,10.8h25.61c-1.74,1.918-2.812,4.452-2.812,7.231l0,0   c0,5.94,4.86,10.8,10.8,10.8h58.889c5.939,0,10.8-4.86,10.8-10.8l0,0C462.557,281.404,457.696,276.544,451.757,276.544z"/>
</g>
<polygon style="fill:#C5AA8F;" points="255.999,19.595 250.644,87.164 261.355,87.164 "/>
<polygon style="fill:#AF8665;" points="261.355,87.164 255.999,19.595 255.841,21.608 255.841,87.164 "/>
<rect x="247.522" y="84.636" style="fill:#EBE2D9;" width="16.635" height="28.815"/>
<rect x="255.84" y="84.636" style="fill:#DBC9B9;" width="8.317" height="28.815"/>
<polygon style="fill:#EBE2D9;" points="269.972,158.901 242.028,158.901 219.975,397.757 292.025,397.757 "/>
<polygon style="fill:#DBC9B9;" points="292.025,397.757 269.972,158.901 255.841,158.901 255.841,397.757 "/>
<polygon style="fill:#C5AA8F;" points="261.44,158.901 250.56,158.901 241.974,397.757 270.026,397.757 "/>
<polygon style="fill:#AF8665;" points="270.026,397.757 261.44,158.901 255.841,158.901 255.841,397.757 "/>
<rect x="234.482" y="156.45" style="fill:#C5AA8F;" width="42.727" height="8.422"/>
<rect x="255.84" y="156.45" style="fill:#AF8665;" width="21.364" height="8.422"/>
<rect x="236.248" y="111.385" style="fill:#C5AA8F;" width="39.193" height="11.598"/>
<rect x="255.84" y="111.385" style="fill:#AF8665;" width="19.597" height="11.598"/>
<path style="fill:#EBE2D9;" d="M273.433,158.375h-35.186c-8.478,0-15.415-6.937-15.415-15.416v-6.775  c0-8.478,6.937-15.416,15.415-15.416h35.186c8.478,0,15.415,6.937,15.415,15.416v6.775  C288.85,151.437,281.913,158.375,273.433,158.375z"/>
<path style="fill:#DBC9B9;" d="M273.433,120.768H255.84v37.606h17.594c8.478,0,15.415-6.937,15.415-15.415v-6.775  C288.85,127.705,281.913,120.768,273.433,120.768z"/>
<rect x="222.832" y="134.142" style="fill:#C5AA8F;" width="66.016" height="10.861"/>
<rect x="255.84" y="134.142" style="fill:#AF8665;" width="33.009" height="10.861"/>
<path style="fill:#00A2FF;" d="M255.999,512c90.148,0,169.405-46.604,215.016-117.025H40.985  C86.596,465.396,165.851,512,255.999,512z"/>
<g>
	<rect x="90.132" y="410.179" style="fill:#FFFFFF;" width="68.262" height="14.015"/>
	<rect x="197.671" y="426.302" style="fill:#FFFFFF;" width="49.611" height="14.015"/>
	<rect x="147.872" y="459.78" style="fill:#FFFFFF;" width="49.611" height="14.015"/>
</g>
<path style="fill:#0084FF;" d="M255.996,394.975V512c0.001,0,0.002,0,0.003,0c90.148,0,169.405-46.604,215.016-117.025  L255.996,394.975L255.996,394.975z"/>
<g>
	<rect x="358.75" y="408.507" style="fill:#FFFFFF;" width="68.262" height="14.015"/>
	<rect x="269.852" y="424.62" style="fill:#FFFFFF;" width="49.611" height="14.015"/>
	<rect x="319.661" y="458.108" style="fill:#FFFFFF;" width="49.611" height="14.015"/>
</g>
<g>
</g>
<g>
</g>
<g>
</g>
<g>
</g>
<g>
</g>
<g>
</g>
<g>
</g>
<g>
</g>
<g>
</g>
<g>
</g>
<g>
</g>
<g>
</g>
<g>
</g>
<g>
</g>
<g>
</g>
</svg>
