<svg id="Capa_1" enable-background="new 0 0 512 512" height="512" viewBox="0 0 512 512" width="512" xmlns="http://www.w3.org/2000/svg"><path d="m496 252h-480v-88c0-35.346 28.654-64 64-64h352c35.346 0 64 28.654 64 64z" fill="#fffabe"/><path d="m16 252h480v112h-480z" fill="#c8f5f0"/><path d="m505.703 223.831-54.352-38.046c-11.504-8.052-26.913-7.665-37.997.956l-53.354 41.498-69.059-37.669c-11.822-6.448-26.095-6.516-37.978-.178l-100.963 53.847 8.91 16h311.642c11.011-12.16 22.817-23.688 33.151-36.408z" fill="#fce69b"/><path d="m443.166 276h-352.833l-90.333 88v16l13 5h487.333l11.667-5v-16z" fill="#a7d9ff"/><path d="m303.804 302.406c-5.072-6.763-12.156-11.745-20.236-14.231l-72.323-22.253c-12.667-3.897-24.289-10.605-34-19.623l-76.323-70.871c-11.92-11.069-30.249-11.434-42.6-.847l-34.322 29.419 104 120h192z" fill="#d2e673"/><path d="m303.804 302.406c-5.072-6.763-12.156-11.745-20.236-14.231l-72.323-22.253c-12.667-3.897-24.289-10.605-34-19.623l-76.323-70.871c-11.92-11.069-30.249-11.434-42.6-.847l-34.322 29.419 15.718 18.136 34.228-29.339c3.094-2.633 7.676-2.531 10.645.219l76.32 70.859c12.277 11.414 27.242 20.055 43.277 24.984l72.309 22.25c3.262 1 6.066 2.977 8.109 5.695l5.396 7.195h29.998z" fill="#e6ff82"/><path d="m320 332h-112c-4.418 0-8-3.582-8-8s3.582-8 8-8h96l-6.594-8.793c-4.09-5.447-9.688-9.385-16.191-11.387l-72.32-22.252c-13.738-4.227-26.562-11.629-37.094-21.408l-76.324-70.869c-8.941-8.303-22.676-8.582-31.945-.637l-34.324 29.42c-3.355 2.871-8.406 2.488-11.281-.867s-2.488-8.406.867-11.281l34.324-29.42c15.445-13.242 38.332-12.787 53.246 1.059l76.328 70.871c8.773 8.148 19.461 14.318 30.906 17.84l72.32 22.252c9.758 3.002 18.156 8.908 24.285 17.078l16.195 21.594c1.82 2.426 2.113 5.668.758 8.379-1.355 2.708-4.125 4.421-7.156 4.421z" fill="#d2be55"/><g fill="#9b784b"><path d="m160 212h16v80h-16z"/><path d="m112 212h16v80h-16z"/><path d="m456 212h16v80h-16z"/><path d="m408 212h16v80h-16z"/><path d="m416 356h-16c0-74.99-46.652-136-104-136s-104 61.01-104 136h-16c0-83.812 53.832-152 120-152s120 68.187 120 152z"/><path d="m512 220h-488v-16h480c4.418 0 8 3.582 8 8z"/></g><path d="m512 241.278-36.057 9.661c-7.485 10.692-19.717 17.061-32.769 17.061h-8.219c-11.997 0-23.361 5.385-30.958 14.67l-59.997 73.33 168-8z" fill="#d2be55"/><path d="m502.25 215-26.307 35.938c-7.485 10.693-19.717 17.062-32.769 17.062h-8.219c-11.997 0-23.361 5.385-30.958 14.67l-59.997 73.33h31.008l47.566-58.133c3.047-3.727 7.563-5.867 12.383-5.867h8.215c20.867 0 40.469-10.203 52.43-27.297l16.398-23.425v-27.9z" fill="#d2e673"/><path d="m186.582 302.645-59.454-14.863c-9.94-2.485-19.139-7.321-26.821-14.1l-100.307-56.498v130.816l232 8-14.127-28.254c-6.267-12.533-17.697-21.702-31.291-25.101z" fill="#d2be55"/><path d="m217.873 327.746c-6.267-12.533-17.697-21.702-31.291-25.101l-59.454-14.863c-9.94-2.485-19.139-7.321-26.821-14.1l-100.307-77.835v21.338l84.426 74.493c10.514 9.277 23.262 15.978 36.864 19.379l59.469 14.872c6.807 1.702 12.51 6.277 15.648 12.553l8.336 16.674.422.845h26.835z" fill="#d2e673"/><path d="m48 388c0 13.255 10.745 24 24 24h368c13.255 0 24-10.745 24-24z" fill="#a7d9ff"/><path d="m496 396h-480c-8.837 0-16-7.163-16-16h512c0 8.836-7.164 16-16 16z" fill="#6bb2ff"/><path d="m248 348c-6.775 0-12.969-3.828-15.998-9.888l-6.97-13.941c-7.309-14.618-20.641-25.313-36.497-29.278l-59.442-14.864c-8.706-2.177-16.762-6.412-23.491-12.349l-89.599-79.055c-6.219-5.487-16.003-1.072-16.003 7.222l95.012 83.833c8.639 7.623 18.982 13.06 30.159 15.855l59.469 14.871c11.329 2.833 20.854 10.475 26.077 20.919l8.338 16.675h-219.055v16h248c4.418 0 8-3.578 8-8s-3.582-8-8-8z" fill="#9b784b"/><path d="m512 348h-151.121l49.304-60.26c6.08-7.43 15.173-11.74 24.774-11.74h8.209c15.666 0 30.346-7.643 39.33-20.477l29.504-42.146c0-8.599-11.068-12.088-16-5.044l-26.614 38.018c-5.988 8.554-15.773 13.649-26.214 13.649h-8.215c-14.396 0-28.032 6.462-37.148 17.604l-52.796 64.528c-3.039 3.714-7.584 5.868-12.383 5.868h-4.63c-4.418 0-8 3.578-8 8s3.582 8 8 8h184z" fill="#9b784b"/><circle cx="80" cy="324" fill="#9b784b" r="8"/><circle cx="32" cy="292" fill="#d2e673" r="8"/><circle cx="448" cy="316" fill="#d2e673" r="8"/></svg>