<svg id="Capa_1" enable-background="new 0 0 512 512" height="512" viewBox="0 0 512 512" width="512" xmlns="http://www.w3.org/2000/svg"><path d="m264 90.529c-97.202 0-176 78.798-176 176h352c0-97.202-78.798-176-176-176z" fill="#c8f5f0"/><path d="m409.883 238.115-76.513 22.211c-13.288 3.857-27.625.574-37.91-8.682l-45.478-40.93c-11.056-9.95-26.72-12.944-40.666-7.773l-60.242 22.339v105.25l266.926 24 16-104z" fill="#e6d7b9"/><path d="m409.883 238.115-76.513 22.21c-13.288 3.857-27.625.574-37.91-8.682l-45.478-40.93c-11.056-9.95-26.72-12.944-40.666-7.773l-60.242 22.339v23.929c2.775 0 5.59-.404 8.344-1.429l60.242-22.336c5.605-2.055 11.832-.883 16.266 3.109l45.488 40.937c11.965 10.766 27.105 16.461 42.652 16.461 5.988 0 12.043-.852 17.996-2.578l76.512-22.211c6.293-1.827 11.249-6.014 14.221-11.309z" fill="#ffebc3"/><path d="m322.101 269.939c-11.664 0-23.02-4.275-31.992-12.352l-45.48-40.928c-8.871-7.986-21.332-10.369-32.531-6.219l-60.242 22.338c-4.141 1.541-8.742-.574-10.281-4.719-1.535-4.143.574-8.746 4.719-10.281l60.242-22.338c16.789-6.225 35.488-2.652 48.797 9.324l45.48 40.93c8.289 7.459 19.633 10.057 30.328 6.947l76.512-22.211c4.242-1.229 8.68 1.209 9.914 5.453 1.23 4.244-1.211 8.682-5.453 9.914l-76.512 22.211c-4.465 1.296-9.004 1.931-13.501 1.931z" fill="#d1c3aa"/><path d="m48 418.529c0 13.255 10.745 24 24 24h368c13.255 0 24-10.745 24-24z" fill="#a0e6e1"/><path d="m384 370.529h-208l-176 40c0 8.836 7.164 16 16 16h480c8.836 0 16-7.164 16-16z" fill="#69c3be"/><path d="m176 370.529h208v24h-208z" fill="#a0e6e1"/><path d="m144 258.529 70.085 10.343c16.206 2.392 29.688 13.697 34.869 29.238l.013.039c4.697 14.09 16.266 24.804 30.675 28.406l104.866 26.216 16 16h-245.672" fill="#d1c3aa"/><path d="m384.508 352.771-104.866-26.217c-14.409-3.602-25.979-14.316-30.675-28.406l-.013-.039c-5.181-15.541-18.663-26.846-34.869-29.238l-70.085-10.342 2.419 24.616 64.163 9.47c7.293 1.078 13.273 6.086 15.602 13.078.039.117.078.234.121.359 7.395 21.828 25.133 38.188 47.516 43.781l75.744 18.937h50.943z" fill="#e6d7b9"/><path d="m400.508 376.771h-245.672c-4.418 0-8-3.582-8-8s3.582-8 8-8h226.359l-.777-.775-102.719-25.68c-17.152-4.289-30.73-16.863-36.32-33.639-4.266-12.789-15.164-21.93-28.461-23.891l-70.086-10.344c-4.371-.645-7.391-4.711-6.746-9.082.648-4.373 4.75-7.387 9.082-6.746l70.086 10.344c19.301 2.846 35.121 16.113 41.289 34.621 3.867 11.596 13.223 20.26 25.039 23.213l104.867 26.217c1.406.352 2.691 1.08 3.715 2.105l16 16c2.289 2.287 2.973 5.729 1.734 8.717-1.238 2.991-4.156 4.94-7.39 4.94z" fill="#beaa96"/><path d="m0 139.825 10.695 66.383 138.379 19.071-10.096-60.81c-1.843-11.101-9.47-20.375-20.006-24.325l-30.585-11.47c-10.19-3.821-17.685-12.635-19.819-23.307-2.714-13.571-13.972-23.778-27.743-25.155l-40.825 20.038z" fill="#d1c3aa"/><path d="m138.978 164.469c-1.843-11.101-9.47-20.375-20.006-24.325l-30.585-11.47c-10.19-3.821-17.685-12.635-19.819-23.307-2.714-13.571-13.972-23.778-27.743-25.155l-40.825 3.957v16.081l38.426 3.841c3.301.328 5.957 2.734 6.609 5.984 3.789 18.93 16.84 34.281 34.926 41.07l30.594 11.477c2.492.93 4.309 3.141 4.746 5.773l8.875 53.452 24.898 3.431z" fill="#e6d7b9"/><path d="m146.867 163.162c-2.312-13.923-11.879-25.555-25.094-30.511l-31.199-11.7c-7.542-2.828-12.586-9.568-14.225-17.454-3.527-16.975-17.446-29.517-34.728-31.25l-27.108-2.71c-7.771-.776-14.513 5.326-14.513 13.135v1.496l40.719 4.07c10.233 1.023 17.971 8.924 20.064 18.993 2.772 13.333 12.022 24.137 24.795 28.938l30.59 11.469c7.856 2.945 13.543 9.859 14.917 18.136l10.098 60.817c.648 3.914 4.039 6.688 7.883 6.688.434 0 .875-.031 1.316-.109 4.359-.719 7.309-4.844 6.582-9.203z" fill="#beaa96"/><path d="m512 105.932-61.811-11.301c-11.702 2.508-22.045 9.296-29.002 19.035l-16.878 23.63c-7.841 10.978-10.701 24.749-7.878 37.941l13.452 62.877 102.117-83.277z" fill="#d1c3aa"/><path d="m512 89.565-61.811 5.066c-11.702 2.508-22.045 9.296-29.002 19.035l-16.878 23.63c-7.841 10.978-10.701 24.749-7.878 37.941l13.452 62.877 22.712-8.559-12.697-59.332c-1.406-6.586.027-13.508 3.938-18.977l16.883-23.633c3.484-4.883 8.637-8.258 14.496-9.516l56.785-12.165z" fill="#e6d7b9"/><path d="m496.034 76.627-47.497 10.178c-13.66 2.927-25.735 10.85-33.857 22.216l-16.876 23.615c-9.154 12.809-12.492 28.88-9.198 44.275l13.453 62.875c.805 3.758 4.125 6.328 7.816 6.328.555 0 1.117-.055 1.684-.18 4.32-.922 7.07-5.172 6.148-9.492l-13.453-62.875c-2.354-11.002.032-22.486 6.573-31.64l16.872-23.61c5.803-8.121 14.43-13.781 24.19-15.873l60.111-12.879v-.031c0-8.404-7.749-14.668-15.966-12.907z" fill="#beaa96"/><path d="m155.057 219.967-34.146-38.415c-9.174-10.321-25.144-10.79-34.908-1.026l-6.644 6.644c-8.718 8.719-22.625 9.413-32.168 1.604l-47.191-7.595v54.402l30 61.419 122 25.529 12.515-68.832c2.2-12.099-1.289-24.538-9.458-33.73z" fill="#6ea573"/><path d="m155.057 219.967-34.146-38.415c-9.174-10.321-25.144-10.79-34.908-1.026l-6.644 6.644c-8.718 8.719-22.625 9.413-32.168 1.604l-47.191-38.609v31.014l31.996 26.178c19.172 15.68 46.824 14.297 64.332-3.219l6.645-6.641 34.141 38.414c3.293 3.703 4.676 8.625 3.789 13.492l-12.516 68.828c-.196 1.081-.207 2.145-.255 3.212l23.868 1.086 12.515-68.832c2.2-12.099-1.289-24.538-9.458-33.73z" fill="#8cbe69"/><path d="m161.035 214.654-34.145-38.414c-5.832-6.562-14.207-10.469-22.98-10.727-8.734-.219-17.355 3.156-23.566 9.359l-6.641 6.641c-5.84 5.828-15.059 6.305-21.445 1.07l-52.258-42.758v20.682l42.125 34.467c12.785 10.445 31.23 9.531 42.891-2.148l6.641-6.641c3.152-3.141 7.305-4.898 11.785-4.68 4.449.133 8.531 2.031 11.488 5.359l34.145 38.414c6.582 7.406 9.34 17.242 7.57 26.992l-12.516 68.828c-.789 4.344 2.094 8.508 6.441 9.297.48.094.965.133 1.438.133 3.793 0 7.16-2.703 7.863-6.57l12.516-68.828c2.656-14.617-1.481-29.375-11.352-40.476z" fill="#3c7864"/><path d="m512 187.197-38.767-30.083c-10.277-1.542-20.379 3.706-25.026 13.001l-8.344 16.687c-5.077 10.154-13.589 18.181-24.024 22.653l-15.401 6.6c-13.073 5.603-18.433 21.282-11.525 33.715l27.087 48.759 47.002 14.462 48.998-121.124z" fill="#6ea573"/><path d="m512 171.021-38.767-13.908c-10.277-1.542-20.379 3.706-25.026 13.001l-8.344 16.687c-5.077 10.154-13.589 18.181-24.024 22.653l-15.401 6.6c-13.073 5.603-18.433 21.282-11.525 33.715l27.087 48.76 22.898 7.046c1.855-6.026 1.386-12.755-1.918-18.702l-27.098-48.758 15.422-6.602c15.629-6.703 28.422-18.773 36.023-33.977l8.348-16.688 42.325 6.349z" fill="#8cbe69"/><path d="m512 154.837-37.582-5.637c-13.762-2.016-27.156 4.906-33.367 17.336l-8.344 16.687c-4.223 8.453-11.336 15.156-20.016 18.883l-15.41 6.594c-8.309 3.563-14.75 10.516-17.672 19.063-2.922 8.555-2.082 17.992 2.309 25.891l27.09 48.758c1.461 2.633 4.188 4.117 7 4.117 1.313 0 2.648-.32 3.879-1.008 3.859-2.148 5.254-7.016 3.105-10.875l-27.09-48.758c-2.227-4.008-2.633-8.609-1.152-12.945 1.484-4.344 4.625-7.727 8.836-9.539l15.41-6.594c12.156-5.219 22.109-14.602 28.023-26.43l8.344-16.688c3.102-6.211 9.809-9.758 16.684-8.664l39.953 5.993z" fill="#3c7864"/><path d="m512 245.193-55.246 33.664c-5.378 7.171-14.304 10.747-23.145 9.273l-10.687-1.781c-12.777-2.13-24.939 6.265-27.479 18.967l-19.443 97.213 136-94.038z" fill="#beaa96"/><path d="m512 218.523-55.246 60.333c-5.378 7.171-14.304 10.747-23.145 9.273l-10.687-1.781c-12.777-2.13-24.939 6.265-27.479 18.967l-19.443 97.214h24.476l18.501-92.508 10.68 1.781c17.738 2.953 35.492-4.141 46.297-18.547l36.046-48.062z" fill="#d1c3aa"/><path d="m114.769 264.898-40.745 12.224c-11.416 3.425-23.765 1.58-33.682-5.031l-40.342 1.948v50.07l192 78.42-47.966-123.342c-4.537-11.665-17.276-17.886-29.265-14.289z" fill="#beaa96"/><path d="m144.034 279.187c-4.537-11.665-17.276-17.886-29.264-14.289l-40.745 12.224c-11.416 3.425-23.765 1.58-33.682-5.031l-40.343-26.896v28.844l27.031 18.021c15.922 10.609 35.559 13.547 53.891 8.047l40.746-12.227 44.583 114.648h25.749z" fill="#d1c3aa"/><g fill="#917d6e"><path d="m199.457 399.63-47.965-123.344c-6.012-15.445-23.168-23.797-39.023-19.055l-40.742 12.227c-9.156 2.766-18.98 1.281-26.945-4.023l-44.782-29.854v19.229l35.906 23.938c11.934 7.961 26.652 10.148 40.418 6.039l40.742-12.227c7.926-2.391 16.512 1.805 19.512 9.523l47.965 123.344c1.23 3.164 4.254 5.102 7.457 5.102.965 0 1.945-.172 2.898-.547 4.118-1.602 6.161-6.235 4.559-10.352z"/><path d="m512 191.867-61.645 82.193c-3.609 4.797-9.535 7.172-15.43 6.18l-10.688-1.781c-17.121-2.898-33.23 8.25-36.641 25.289l-19.441 97.211c-.867 4.336 1.941 8.547 6.273 9.414.531.109 1.059.156 1.578.156 3.734 0 7.078-2.625 7.836-6.43l19.441-97.211c1.707-8.523 9.785-14.063 18.32-12.648l10.688 1.781c11.805 1.977 23.66-2.758 30.859-12.367l48.85-65.131z"/><path d="m512 341.777-78.943-2.408c-16.064 4.59-29.697 15.279-37.985 29.785l-19.072 33.375 136-8z"/></g><path d="m512 325.138-78.943 14.231c-16.064 4.59-29.697 15.279-37.985 29.785l-19.072 33.375h27.643l12.267-21.469c5.207-9.117 13.637-15.727 23.738-18.609l72.352-20.674z" fill="#beaa96"/><path d="m0 394.529 176 8-26.822-26.822c-8.607-8.607-19.489-14.581-31.371-17.221l-117.807-1.593z" fill="#917d6e"/><path d="m149.178 375.707c-8.607-8.607-19.489-14.581-31.371-17.221l-117.807-17.981v16.389l112.617 25.026c7.426 1.648 14.199 5.367 19.594 10.758l9.852 9.852h33.937z" fill="#beaa96"/><path d="m200 394.529h-12.581c-5.191 0-10.169-2.062-13.839-5.732l-18.744-18.744c-9.707-9.711-21.91-16.406-35.293-19.375l-119.543-26.569v16.396l116.078 25.797c10.406 2.305 19.895 7.516 27.445 15.063l13.164 13.164h-156.687v16h200c4.418 0 8-3.578 8-8s-3.582-8-8-8z" fill="#2d2d4b"/><path d="m512 394.529h-122.216l12.231-21.406c7.297-12.766 19.098-22.023 33.238-26.055l76.747-21.93v-16.647l-81.145 23.187c-18.07 5.164-33.406 17.189-42.73 33.506l-11.132 19.482c-3.484 6.098-9.969 9.862-16.993 9.862-4.418 0-8 3.578-8 8s3.582 8 8 8h152z" fill="#2d2d4b"/><circle cx="104" cy="322.529" fill="#d1c3aa" r="8"/><circle cx="24" cy="314.529" fill="#917d6e" r="8"/><circle cx="88" cy="242.529" fill="#8cbe69" r="8"/><circle cx="448" cy="242.529" fill="#3c7864" r="8"/><circle cx="496" cy="290.529" fill="#d1c3aa" r="8"/><circle cx="480" cy="378.529" fill="#beaa96" r="8"/></svg>