<svg id="Capa_1" enable-background="new 0 0 512 512" height="512" viewBox="0 0 512 512" width="512" xmlns="http://www.w3.org/2000/svg"><path d="m184 312.333-184-8.735v-32c0-8.837 7.163-16 16-16h168z" fill="#a7d9ff"/><path d="m0 303.598h184v88h-184z" fill="#6bb2ff"/><path d="m375.29 76.302c-13.508-7.368-30.347-4.079-40.09 7.829l-55.2 67.467 136 16 24-56z" fill="#ffebc3"/><path d="m279.996 159.598c-1.781 0-3.574-.594-5.063-1.805-3.418-2.805-3.922-7.844-1.125-11.258l55.199-67.469c12.168-14.875 33.23-18.984 50.113-9.789l64.711 35.297c3.879 2.117 5.309 6.977 3.191 10.852-2.109 3.883-6.961 5.32-10.855 3.195l-64.711-35.297c-10.117-5.531-22.762-3.047-30.066 5.875l-55.199 67.461c-1.582 1.938-3.879 2.938-6.195 2.938z" fill="#e6d7b9"/><path d="m488 215.598h-64c-4.418 0-8-3.582-8-8v-88c0-4.418 3.582-8 8-8h64c4.418 0 8 3.582 8 8v88c0 4.419-3.582 8-8 8z" fill="#ff6e64"/><path d="m188.679 152.215c-11.644-4.852-25.056.138-30.697 11.42l-32.242 64.483c-3.354 6.708-10.916 10.186-18.191 8.367l-4.934-1.234c-8.936-2.234-18.361.843-24.258 7.919l-30.357 36.428h184l32-96z" fill="#ffebc3"/><path d="m267.078 176.216-75.32-31.383c-15.477-6.453-33.441.25-40.934 15.227l-32.242 64.484c-1.691 3.375-5.426 5.086-9.094 4.188l-4.934-1.234c-11.82-2.984-24.523 1.18-32.344 10.547l-30.355 36.43c-1.988 2.391-2.418 5.711-1.102 8.516 1.316 2.813 4.141 4.609 7.246 4.609h183.728c4.264 0 7.984-3.221 8.255-7.476.296-4.66-3.392-8.524-7.983-8.524h8v-16h-67.889c-7.897 0-15.617 2.338-22.188 6.718l-8.885 5.923c-3.285 2.19-7.145 3.359-11.094 3.359h-64.865l19.422-23.306c3.91-4.688 10.242-6.758 16.172-5.281l4.941 1.242c10.98 2.727 22.211-2.422 27.281-12.555l32.242-64.484c3.742-7.492 12.75-10.828 20.465-7.617l75.32 31.383c4.094 1.711 8.77-.234 10.461-4.305 1.7-4.078-.226-8.766-4.304-10.461z" fill="#e6d7b9"/><path d="m304 231.598h-64c-4.418 0-8-3.582-8-8v-88c0-4.418 3.582-8 8-8h64c4.418 0 8 3.582 8 8v88c0 4.419-3.582 8-8 8z" fill="#ffcd6e"/><path d="m456 199.598h-64c-4.418 0-8-3.582-8-8v-88c0-4.418 3.582-8 8-8h64c4.418 0 8 3.582 8 8v88c0 4.419-3.582 8-8 8z" fill="#ffcd6e"/><path d="m392 255.598h-64c-4.418 0-8-3.582-8-8v-88c0-4.418 3.582-8 8-8h64c4.418 0 8 3.582 8 8v88c0 4.419-3.582 8-8 8z" fill="#ff6e64"/><path d="m336 223.598h-32c-4.418 0-8-3.582-8-8v-88c0-4.418 3.582-8 8-8h32c4.418 0 8 3.582 8 8v88c0 4.419-3.582 8-8 8z" fill="#e6d7b9"/><g fill="#917d6e"><path d="m320 151.598c-4.418 0-8-3.582-8-8 0-4.418 3.582-8 8-8 4.418 0 8 3.582 8 8 0 4.419-3.582 8-8 8z"/><path d="m256 159.598c-4.418 0-8-3.582-8-8 0-4.418 3.582-8 8-8 4.418 0 8 3.582 8 8 0 4.419-3.582 8-8 8z"/><path d="m288 159.598c-4.418 0-8-3.582-8-8 0-4.418 3.582-8 8-8 4.418 0 8 3.582 8 8 0 4.419-3.582 8-8 8z"/><path d="m408 127.598c-4.418 0-8-3.582-8-8 0-4.418 3.582-8 8-8 4.418 0 8 3.582 8 8 0 4.419-3.582 8-8 8z"/><path d="m440 127.598c-4.418 0-8-3.582-8-8 0-4.418 3.582-8 8-8 4.418 0 8 3.582 8 8 0 4.419-3.582 8-8 8z"/></g><path d="m472 143.598c-4.418 0-8-3.582-8-8 0-4.418 3.582-8 8-8 4.418 0 8 3.582 8 8 0 4.419-3.582 8-8 8z" fill="#5f5f6e"/><path d="m320 183.598c-4.418 0-8-3.582-8-8 0-4.418 3.582-8 8-8 4.418 0 8 3.582 8 8 0 4.419-3.582 8-8 8z" fill="#917d6e"/><path d="m432 239.598h-64c-4.418 0-8-3.582-8-8v-88c0-4.418 3.582-8 8-8h64c4.418 0 8 3.582 8 8v88c0 4.419-3.582 8-8 8z" fill="#e6d7b9"/><path d="m384 167.598c-4.418 0-8-3.582-8-8 0-4.418 3.582-8 8-8 4.418 0 8 3.582 8 8 0 4.419-3.582 8-8 8z" fill="#917d6e"/><path d="m416 167.598c-4.418 0-8-3.582-8-8 0-4.418 3.582-8 8-8 4.418 0 8 3.582 8 8 0 4.419-3.582 8-8 8z" fill="#917d6e"/><path d="m384 199.598c-4.418 0-8-3.582-8-8 0-4.418 3.582-8 8-8 4.418 0 8 3.582 8 8 0 4.419-3.582 8-8 8z" fill="#917d6e"/><path d="m368 271.598h-64c-4.418 0-8-3.582-8-8v-80h72c4.418 0 8 3.582 8 8v72c0 4.419-3.582 8-8 8z" fill="#ffaf5a"/><path d="m320 215.598c-4.418 0-8-3.582-8-8 0-4.418 3.582-8 8-8 4.418 0 8 3.582 8 8 0 4.419-3.582 8-8 8z" fill="#917d6e"/><path d="m352 215.598c-4.418 0-8-3.582-8-8 0-4.418 3.582-8 8-8 4.418 0 8 3.582 8 8 0 4.419-3.582 8-8 8z" fill="#917d6e"/><path d="m320 247.598c-4.418 0-8-3.582-8-8 0-4.418 3.582-8 8-8 4.418 0 8 3.582 8 8 0 4.419-3.582 8-8 8z" fill="#917d6e"/><path d="m288 271.598h-32c-4.418 0-8-3.582-8-8v-88c0-4.418 3.582-8 8-8h32c4.418 0 8 3.582 8 8v88c0 4.419-3.582 8-8 8z" fill="#ff6e64"/><path d="m256 271.598h-32c-4.418 0-8-3.582-8-8v-72c0-4.418 3.582-8 8-8h32c4.418 0 8 3.582 8 8v72c0 4.419-3.582 8-8 8z" fill="#ffaf5a"/><path d="m240 215.598c-4.418 0-8-3.582-8-8 0-4.418 3.582-8 8-8 4.418 0 8 3.582 8 8 0 4.419-3.582 8-8 8z" fill="#917d6e"/><path d="m272 199.598c-4.418 0-8-3.582-8-8 0-4.418 3.582-8 8-8 4.418 0 8 3.582 8 8 0 4.419-3.582 8-8 8z" fill="#5f5f6e"/><path d="m272 231.598c-4.418 0-8-3.582-8-8 0-4.418 3.582-8 8-8 4.418 0 8 3.582 8 8 0 4.419-3.582 8-8 8z" fill="#5f5f6e"/><path d="m240 247.598c-4.418 0-8-3.582-8-8 0-4.418 3.582-8 8-8 4.418 0 8 3.582 8 8 0 4.419-3.582 8-8 8z" fill="#917d6e"/><path d="m512 187.57-63.052-14.579c-11.143 1.714-21.727 6.021-30.901 12.574l-76.05 54.322c-14.385 10.275-31.327 16.378-48.959 17.638l-61.512 4.394c-15.044 1.075-29.018 8.172-38.76 19.685l-72.766 85.994h392z" fill="#d1c3aa"/><path d="m512 171.384-63.052 1.607c-11.143 1.714-21.727 6.021-30.901 12.574l-76.05 54.322c-14.385 10.275-31.327 16.378-48.959 17.638l-61.512 4.394c-15.044 1.075-29.018 8.172-38.76 19.685l-72.766 85.994h31.437l59.653-70.492c5.531-6.539 13.602-10.641 22.141-11.25l61.527-4.391c22.051-1.586 43.211-9.203 61.187-22.047l76.055-54.327c6.078-4.344 13.203-7.242 20.598-8.383l59.402-9.138z" fill="#e6d7b9"/><path d="m496.001 157.658-48.242 7.42c-12.39 1.906-24.16 6.695-34.361 13.981l-76.051 54.32c-13.192 9.422-28.729 15.019-44.899 16.173l-61.492 4.389c-17.19 1.227-33.158 9.336-44.29 22.491l-72.773 86.001c-2.855 3.367-2.434 8.414.938 11.273 1.504 1.266 3.34 1.891 5.164 1.891 2.27 0 4.527-.961 6.109-2.836l72.779-86.003c8.347-9.864 20.32-15.944 33.209-16.864l61.493-4.389c19.108-1.364 37.469-7.977 53.058-19.111l76.055-54.32c8.16-5.828 17.574-9.658 27.484-11.183l61.818-9.507c0-8.511-7.586-15.02-15.999-13.726z" fill="#beaa96"/><path d="m0 415.598 22.999 6.068h478l11-6.068v-116.438l-37.092-51.003c-15.775-9.708-36.151-7.315-49.249 5.782l-62.233 62.234c-11.704 11.703-29.406 14.99-44.53 8.268l-31.755-14.113c-9.694-4.309-20.703-4.59-30.605-.781l-168.94 64.977c-15.356 5.906-32.16 6.934-48.122 2.944l-39.473 15.532z" fill="#8cbe69"/><path d="m512 280.373-37.092-32.216c-15.775-9.708-36.151-7.315-49.249 5.782l-62.233 62.234c-11.704 11.703-29.406 14.99-44.53 8.268l-31.755-14.113c-9.694-4.309-20.703-4.59-30.605-.781l-168.94 64.977c-15.356 5.906-32.16 6.934-48.122 2.944l-39.474-1.627v16.493l33.652 8.413c8.352 2.094 16.828 3.133 25.281 3.133 12.652 0 25.246-2.328 37.277-6.961l168.934-64.969c3.992-1.539 8.352-1.422 12.246.305l31.762 14.117c24.016 10.672 52.66 5.359 71.242-13.227l62.238-62.234c5.262-5.266 13.359-6.219 19.695-2.32l49.673 30.569z" fill="#aad264"/><path d="m48 423.598c0 13.255 10.745 24 24 24h368c13.255 0 24-10.745 24-24z" fill="#6ea573"/><path d="m512 261.59-32.902-20.249c-19.012-11.695-43.312-8.852-59.094 6.945l-62.234 62.234c-9.293 9.289-23.617 11.953-35.625 6.609l-31.758-14.117c-11.707-5.188-24.75-5.531-36.723-.938l-168.941 64.977c-13.898 5.344-28.871 6.258-43.309 2.656l-41.414-10.352v16.486l37.531 9.382c7.07 1.773 14.242 2.648 21.395 2.648 10.703 0 21.359-1.969 31.539-5.883l168.941-64.977c7.969-3.078 16.676-2.852 24.484.625l31.758 14.117c18.023 8 39.496 4.016 53.434-9.922l62.234-62.234c10.52-10.531 26.719-12.414 39.398-4.633l41.286 25.409z" fill="#6ea573"/><circle cx="336" cy="319.598" fill="#6ea573" r="32"/><path d="m376 319.598c0-22.057-17.945-40-40-40s-40 17.943-40 40c0 19.317 13.765 35.478 32 39.195v24.805c0 4.418 3.582 8 8 8s8-3.582 8-8v-24.805c18.235-3.716 32-19.877 32-39.195zm-32 22.624v-6.624c0-4.418-3.582-8-8-8s-8 3.582-8 8v6.624c-9.312-3.302-16-12.194-16-22.624 0-13.234 10.766-24 24-24s24 10.766 24 24c0 10.43-6.689 19.322-16 22.624z" fill="#3c7864"/><circle cx="440" cy="247.598" fill="#8cbe69" r="40"/><circle cx="440" cy="247.598" fill="#6ea573" r="16"/><path d="m488 247.598c0-26.467-21.531-48-48-48s-48 21.533-48 48c0 23.741 17.328 43.499 40 47.321v32.679c0 4.418 3.582 8 8 8s8-3.582 8-8v-32.679c22.672-3.821 40-23.58 40-47.321zm-40 30.988v-14.987c0-4.418-3.582-8-8-8s-8 3.582-8 8v14.987c-13.786-3.561-24-16.104-24-30.987 0-17.645 14.355-32 32-32s32 14.355 32 32c0 14.883-10.214 27.425-24 30.987z" fill="#3c7864"/><path d="m463.598 415.598c-1.853-9.129-9.923-16-19.598-16-3.646 0-7.053.991-9.996 2.695-5.127-6.51-13.074-10.695-22.004-10.695-14.106 0-25.769 10.432-27.711 24h-88.489c-2.007-20.213-19.059-36-39.8-36-12.659 0-23.937 5.887-31.266 15.066-3.821-1.955-8.146-3.066-12.734-3.066-14.106 0-25.769 10.432-27.711 24h-184.289c0 8.837 7.163 16 16 16h480c8.837 0 16-7.163 16-16z" fill="#3c7864"/><circle cx="384" cy="367.598" fill="#6ea573" r="8"/><circle cx="480" cy="327.598" fill="#aad264" r="8"/><circle cx="456" cy="367.598" fill="#3c7864" r="8"/><circle cx="168" cy="391.598" fill="#aad264" r="8"/></svg>