<?xml version="1.0" encoding="iso-8859-1"?>
<!-- Generator: Adobe Illustrator 19.0.0, SVG Export Plug-In . SVG Version: 6.00 Build 0)  -->
<svg xmlns="http://www.w3.org/2000/svg" xmlns:xlink="http://www.w3.org/1999/xlink" version="1.1" id="Layer_1" x="0px" y="0px" viewBox="0 0 512 512" style="enable-background:new 0 0 512 512;" xml:space="preserve">
<circle style="fill:#FFDB47;" cx="256" cy="255.996" r="255.996"/>
<path style="fill:#FFCB00;" d="M511.063,277.886L259.12,25.943h-6.233v58.158h-7.944v33.562c0,14.101-0.639,28.108-1.778,41.919  l-41.722-41.269c-1.864-3.717-5.703-6.288-10.124-6.288h-61.769c-6.23,0-11.328,5.097-11.328,11.328  c0,2.914,1.124,5.571,2.949,7.584H94.307c-6.231,0-11.328,5.097-11.328,11.328c0,4.42,2.573,8.26,6.288,10.124l130.857,131.415  c-18.067,64.466-39.907,110.449-43.086,116.991h-7.518v17.163l93.928,93.928C394.066,508.153,500.163,406.586,511.063,277.886z"/>
<g>
	<path style="fill:#FFFFFF;" d="M94.307,130.935h26.863c-1.824-2.012-2.95-4.67-2.95-7.584c0-6.231,5.098-11.328,11.328-11.328   h61.769c6.231,0,11.328,5.097,11.328,11.328c0,6.231-5.097,11.328-11.328,11.328h-26.863c1.824,2.012,2.949,4.67,2.949,7.584l0,0   c0,6.231-5.097,11.328-11.328,11.328H94.307c-6.231,0-11.328-5.097-11.328-11.328l0,0C82.98,136.033,88.078,130.935,94.307,130.935   z"/>
	<path style="fill:#FFFFFF;" d="M438.654,234.402h-25.61c1.74-1.918,2.812-4.452,2.812-7.231c0-5.94-4.86-10.799-10.8-10.799   h-58.889c-5.94,0-10.799,4.86-10.799,10.799s4.86,10.799,10.799,10.799h25.61c-1.74,1.918-2.812,4.452-2.812,7.231l0,0   c0,5.94,4.86,10.8,10.8,10.8h58.889c5.939,0,10.799-4.86,10.799-10.8l0,0C449.454,239.261,444.594,234.402,438.654,234.402z"/>
</g>
<rect x="252.886" y="25.943" style="fill:#C71C00;" width="6.233" height="59.997"/>
<rect x="256" y="25.943" style="fill:#9C1700;" width="3.116" height="59.997"/>
<rect x="244.945" y="84.103" style="fill:#C71C00;" width="22.12" height="23.294"/>
<rect x="256" y="84.103" style="fill:#9C1700;" width="11.06" height="23.294"/>
<path style="fill:#C71C00;" d="M267.064,117.663h-22.12c0,146.794-68.304,283.946-68.304,283.946h41.243  c1.11-20.343,17.75-36.493,38.122-36.495c20.371,0.001,37.012,16.152,38.122,36.495h41.243  C335.368,401.609,267.064,264.457,267.064,117.663z"/>
<path style="fill:#9C1700;" d="M267.064,117.663H256v247.451c0.001,0,0.002,0,0.003,0c20.371,0.001,37.012,16.152,38.122,36.495  h41.243C335.368,401.609,267.064,264.457,267.064,117.663z"/>
<path style="fill:#EBE2D9;" d="M293.538,289.627h-75.071c-1.887,6.538-3.805,12.869-5.734,18.975h86.538  C297.345,302.496,295.426,296.165,293.538,289.627z"/>
<path style="fill:#C4C2C8;" d="M299.273,308.602c-1.928-6.106-3.847-12.438-5.733-18.975H256v18.975H299.273z"/>
<path style="fill:#EBE2D9;" d="M271.409,184.164h-30.81c-1.853,14.691-4.222,29.059-6.95,42.969h44.71  C275.631,213.223,273.261,198.855,271.409,184.164z"/>
<path style="fill:#C4C2C8;" d="M278.358,227.132c-2.728-13.911-5.097-28.279-6.95-42.97H256v42.97H278.358z"/>
<rect x="244.945" y="105.941" style="fill:#EBE2D9;" width="22.12" height="16.627"/>
<rect x="256" y="105.941" style="fill:#C4C2C8;" width="11.063" height="16.627"/>
<rect x="169.525" y="400.796" style="fill:#EBE2D9;" width="55.828" height="17.163"/>
<rect x="286.657" y="400.796" style="fill:#C4C2C8;" width="55.828" height="17.163"/>
<path style="fill:#00B764;" d="M256.004,512c80.503,0,152.313-37.17,199.241-95.27H56.763C103.692,474.83,175.501,512,256.004,512z"/>
<g>
	<path style="fill:#008849;" d="M256,416.73V512c0.001,0,0.002,0,0.003,0c80.503,0,152.313-37.17,199.241-95.27H256z"/>
	<rect x="104.21" y="427.263" style="fill:#008849;" width="68.262" height="12.809"/>
	<rect x="195.919" y="440.073" style="fill:#008849;" width="49.611" height="12.808"/>
	<rect x="166.861" y="468.191" style="fill:#008849;" width="49.611" height="12.808"/>
</g>
<g>
	<rect x="347.699" y="427.263" style="fill:#007539;" width="68.262" height="12.809"/>
	<rect x="296.406" y="469.247" style="fill:#007539;" width="49.611" height="12.808"/>
	<rect x="271.59" y="442.038" style="fill:#007539;" width="49.611" height="12.808"/>
</g>
<g>
</g>
<g>
</g>
<g>
</g>
<g>
</g>
<g>
</g>
<g>
</g>
<g>
</g>
<g>
</g>
<g>
</g>
<g>
</g>
<g>
</g>
<g>
</g>
<g>
</g>
<g>
</g>
<g>
</g>
</svg>
