<svg id="Capa_1" enable-background="new 0 0 512 512" height="512" viewBox="0 0 512 512" width="512" xmlns="http://www.w3.org/2000/svg"><path d="m496 228h-480v-72c0-39.764 32.235-72 72-72h336c39.764 0 72 32.235 72 72z" fill="#c8f5f0"/><path d="m432.851 197.267-23.54-10.462c-21.648-9.622-45.79-12.131-68.954-7.167l-35.734 7.657c-26.21 5.616-53.565 1.646-77.097-11.19l-6.544-3.57c-28.563-15.581-62.491-17.969-92.955-6.545l-56.468 21.176c-15.511 5.817-32.12 8.12-48.628 6.745-12.345-1.029-22.931 8.712-22.931 21.098v11.071l512 21.398v-16.789c0-10.677-7.95-19.683-18.545-21.008l-29.007-3.626c-10.907-1.363-21.553-4.324-31.597-8.788z" fill="#9ce9df"/><path d="m0 276 35 8.333 477-5.629v-31.226l-119.577-46.791c-20.83-8.151-43.981-8.063-64.749.244l-19.387 7.755c-18.324 7.33-38.58 8.287-57.513 2.718l-80.853-23.781c-16.891-4.968-34.883-4.755-51.651.611l-118.27 37.846z" fill="#7fd2cd"/><path d="m0 316 19 7.667h478l15-7.667v-20.552l-60.033-26.843c-18.375-5.654-37.841-6.81-56.756-3.371l-28.963 5.266c-19.845 3.608-40.278 2.156-59.414-4.223l-14.951-4.983c-18.318-6.106-37.839-7.702-56.906-4.651l-157.162 25.146c-9.195 1.472-18.493 2.211-27.806 2.211l-50.009 8z" fill="#aad264"/><path d="m512 278.704-57.68-17.751c-19.527-6-40.457-7.258-60.539-3.586l-28.965 5.266c-18.48 3.336-37.645 1.984-55.449-3.938l-14.953-4.984c-19.449-6.492-40.434-8.195-60.703-4.969l-157.156 25.149c-8.77 1.398-17.7 2.109-26.547 2.109h-50.008v16h50.008c9.687 0 19.469-.781 29.074-2.313l157.156-25.148c17.727-2.828 36.098-1.32 53.113 4.344l14.957 4.984c20.352 6.789 42.277 8.344 63.367 4.5l28.965-5.266c17.57-3.188 35.898-2.102 52.977 3.148l62.383 19.199z" fill="#8cbe69"/><path d="m0 332 451.341-14.105 60.659 14.105v31.187l-503.333 16.813-8.667-36.895z" fill="#ffa573"/><path d="m0 316h512v16h-512z" fill="#ff6e64"/><path d="m0 404 16.333 8.333h486.667l9-8.333v-8.771l-128.61-30.46c-9.906-.496-19.274-4.653-26.287-11.666l-50.615-50.615c-6.428-6.428-15.936-8.672-24.56-5.798l-12.46 4.153c-12.055 4.019-25.153-2.057-29.873-13.855l-16.953-42.381c-3.941-9.854-13.887-15.949-24.457-14.988l-55.012 5.001c-9.262.842-17.204 6.959-20.382 15.7l-19.817 54.497c-4.381 12.05-14.274 21.269-26.603 24.791l-76.371 46.783z" fill="#d1c3aa"/><path d="m512 379.212-128.61-14.443c-9.906-.496-19.274-4.653-26.287-11.666l-50.615-50.615c-6.428-6.428-15.936-8.672-24.56-5.798l-12.46 4.153c-12.055 4.019-25.153-2.057-29.873-13.855l-16.953-42.381c-3.941-9.854-13.887-15.949-24.457-14.988l-55.012 5.001c-9.262.842-17.204 6.959-20.382 15.7l-19.817 54.497c-4.381 12.05-14.274 21.269-26.603 24.791l-76.371 30.144v16.638l82.965-23.703c19.66-5.617 35.574-20.445 42.566-39.664l19.816-54.508 55.012-4.992 16.953 42.391c9.434 23.547 35.645 35.734 59.75 27.695l12.457-4.148 50.609 50.609c11.246 11.25 26.184 17.875 42.063 18.664l129.809 6.494z" fill="#e6d7b9"/><path d="m313.244 404c-6.107 0-12.157-1.166-17.827-3.433l-15.682-6.273c-10.395-4.158-21.487-6.294-32.682-6.294h-6.215c-10.899 0-21.474-3.709-29.985-10.519l-20.278-16.223c-4.255-3.404-9.543-5.259-14.993-5.259h-11.582c-7.554 0-14.667 3.557-19.2 9.6l-4.8 6.401c-7.554 10.072-19.41 16-32 16h-7.314c-8.123 0-15.913 3.227-21.657 8.97-4.501 4.501-10.605 7.03-16.97 7.03h-22.059-40v16l16 7h479.667l16.333-7v-16z" fill="#917d6e"/><path d="m248 116c0-30.928-25.072-56-56-56s-56 25.072-56 56c0 3.011.245 5.964.702 8.846-14.155 3.304-24.702 15.993-24.702 31.154 0 14.929 10.223 27.469 24.05 31.004-.02.331-.05.66-.05.996 0 8.837 7.163 16 16 16v32h24v-41.371c2.503.885 5.194 1.371 8 1.371 13.255 0 24-10.745 24-24 0-.776-.04-1.543-.112-2.3 23.186-6.851 40.112-28.293 40.112-53.7z" fill="#fff"/><circle cx="232" cy="188" fill="#fff" r="8"/><circle cx="272" cy="356" fill="#e6d7b9" r="8"/><circle cx="176" cy="292" fill="#e6d7b9" r="8"/><circle cx="208" cy="332" fill="#beaa96" r="8"/><circle cx="112" cy="364" fill="#beaa96" r="8"/><circle cx="276" cy="112" fill="#fff" r="12"/><circle cx="108" cy="112" fill="#fff" r="12"/><path d="m512 363.187-128.211-6.414c-7.941-.391-15.406-3.703-21.027-9.328l-50.617-50.609c-8.637-8.641-21.191-11.625-32.746-7.734l-12.457 4.148c-8.047 2.703-16.777-1.383-19.918-9.227l-16.949-42.383c-5.215-13.047-18.652-21.242-32.609-19.992l-55.016 5c-12.289 1.125-22.957 9.336-27.176 20.938l-19.816 54.5c-3.496 9.609-11.453 17.023-21.285 19.828l-74.173 21.191v16.647l78.57-22.448c14.746-4.219 26.68-15.336 31.926-29.75l19.816-54.5c2.109-5.797 7.441-9.914 13.586-10.469l55.012-5c6.98-.703 13.699 3.469 16.305 9.992l16.953 42.391c6.285 15.695 23.785 23.836 39.832 18.461l12.461-4.156c5.793-1.922 12.055-.438 16.371 3.875l50.613 50.609c8.434 8.438 19.637 13.406 31.547 14l129.008 6.455z" fill="#beaa96"/><path d="m48 428c0 13.255 10.745 24 24 24h368c13.255 0 24-10.745 24-24z" fill="#ffa573"/><path d="m496 436h-480c-8.837 0-16-7.163-16-16h512c0 8.836-7.164 16-16 16z" fill="#ff6e64"/></svg>