<svg id="Capa_1" enable-background="new 0 0 512 512" height="512" viewBox="0 0 512 512" width="512" xmlns="http://www.w3.org/2000/svg"><g fill="#a7d9ff"><path d="m47.691 141.805c-.98-3.438-4.121-5.805-7.691-5.805s-6.711 2.367-7.691 5.805l-16 56c-.691 2.414-.207 5.008 1.305 7.016 1.512 2 3.875 3.18 6.387 3.18h32c2.512 0 4.875-1.18 6.387-3.18 1.512-2.008 1.996-4.602 1.305-7.016z"/><path d="m143.691 133.805c-.98-3.438-4.121-5.805-7.691-5.805s-6.711 2.367-7.691 5.805l-11.166 39.08-13.452-47.08c-.98-3.438-4.121-5.805-7.691-5.805s-6.711 2.367-7.691 5.805l-16 56c-.691 2.414-.207 5.008 1.305 7.016 1.512 2 3.875 3.18 6.387 3.18h32c.073 0 .134-.047.207-.049-.01 1.734.338 3.45 1.407 4.869 1.512 2 3.875 3.18 6.387 3.18h32c2.512 0 4.875-1.18 6.387-3.18 1.512-2.008 1.996-4.602 1.305-7.016z"/><path d="m343.691 149.805c-.98-3.438-4.121-5.805-7.691-5.805s-6.711 2.367-7.691 5.805l-16 56c-.691 2.414-.207 5.008 1.305 7.016 1.512 2 3.875 3.18 6.387 3.18h32c2.512 0 4.875-1.18 6.387-3.18 1.512-2.008 1.996-4.602 1.305-7.016z"/><path d="m391.691 141.805c-.98-3.438-4.121-5.805-7.691-5.805s-6.711 2.367-7.691 5.805l-16 56c-.691 2.414-.207 5.008 1.305 7.016 1.512 2 3.875 3.18 6.387 3.18h32c2.512 0 4.875-1.18 6.387-3.18 1.512-2.008 1.996-4.602 1.305-7.016z"/><path d="m479.691 205.805-16-56c-.98-3.438-4.121-5.805-7.691-5.805s-6.711 2.367-7.691 5.805l-2.023 7.08-6.594-23.08c-.981-3.438-4.122-5.805-7.692-5.805s-6.711 2.367-7.691 5.805l-16 56c-.691 2.414-.207 5.008 1.305 7.016 1.512 2 3.875 3.18 6.387 3.18h17.967l-1.659 5.805c-.691 2.414-.207 5.008 1.305 7.016 1.512 2 3.875 3.18 6.387 3.18h32c2.512 0 4.875-1.18 6.387-3.18 1.51-2.01 1.995-4.603 1.303-7.017z"/></g><path d="m427.799 175.413c-18.134-4.836-37.289-4.25-55.094 1.685l-14.348 4.782c-19.706 6.569-41.01 6.569-60.716 0l-66.151-22.05c-15.408-5.136-31.868-6.279-47.838-3.321l-170.107 31.501-13.545 26.92v58.742l12.333 62.328h475.334l24.333-23.4v-106.457z" fill="#cdf0ff"/><path d="m512 206.143-24.162-14.72-60.039-16.01c-18.134-4.836-37.289-4.25-55.094 1.685l-14.348 4.782c-19.706 6.569-41.01 6.569-60.716 0l-66.151-22.05c-15.408-5.136-31.868-6.279-47.838-3.321l-175.645 32.527-8.007 9.619v16.274l188.016-34.82c11.945-2.227 24.359-1.352 35.887 2.484l66.148 22.055c24.477 8.172 51.434 8.156 75.895 0l14.355-4.781c13.391-4.461 27.672-4.891 41.316-1.266l90.383 24.102z" fill="#fff"/><path d="m497.476 185.717-67.588-18.023c-19.653-5.241-40.412-4.608-59.709 1.821l-14.352 4.781c-17.945 5.969-37.711 5.969-55.656 0l-66.152-22.062c-16.648-5.531-34.574-6.797-51.824-3.594l-166.193 30.778c-9.274 1.717-16.002 9.806-16.002 19.237l185.134-34.286c14.631-2.71 29.711-1.662 43.827 3.044l66.125 22.047c21.355 7.12 44.444 7.123 65.8.008l14.352-4.781c16.367-5.453 33.828-5.977 50.5-1.547l86.262 23.003v-1.522c0-8.863-5.959-16.62-14.524-18.904z" fill="#a7d9ff"/><path d="m280 224-16-8v-32c0-4.418 3.582-8 8-8 4.418 0 8 3.582 8 8z" fill="#917d6e"/><path d="m360 240-48 32v64h96v-64z" fill="#beaa96"/><path d="m136 248 88-64 88 64v104h-176z" fill="#beaa96"/><path d="m136 360c-4.418 0-8-3.578-8-8v-104c0-4.422 3.582-8 8-8s8 3.578 8 8v104c0 4.422-3.582 8-8 8z" fill="#917d6e"/><path d="m312 360c-4.418 0-8-3.578-8-8v-104c0-4.422 3.582-8 8-8s8 3.578 8 8v104c0 4.422-3.582 8-8 8z" fill="#917d6e"/><path d="m407.992 280c-1.523 0-3.066-.438-4.43-1.344l-43.562-29.039-43.563 29.039c-3.687 2.445-8.645 1.461-11.094-2.219s-1.457-8.641 2.219-11.094l48-32c2.688-1.797 6.188-1.797 8.875 0l48 32c3.676 2.453 4.668 7.414 2.219 11.094-1.543 2.313-4.078 3.563-6.664 3.563z" fill="#fff"/><path d="m136 336h328v72h-328z" fill="#cdf0ff"/><path d="m144 328h368v16h-368z" fill="#a7d9ff"/><path d="m48 456c0 13.255 10.745 24 24 24h368c13.255 0 24-10.745 24-24z" fill="#6bb2ff"/><path d="m0 432h512v16h-512z" fill="#2d2d4b"/><path d="m200 312h-24c-4.418 0-8-3.582-8-8v-8c0-4.418 3.582-8 8-8h24c4.418 0 8 3.582 8 8v8c0 4.418-3.582 8-8 8z" fill="#cdf0ff"/><path d="m272 312h-24c-4.418 0-8-3.582-8-8v-8c0-4.418 3.582-8 8-8h24c4.418 0 8 3.582 8 8v8c0 4.418-3.582 8-8 8z" fill="#cdf0ff"/><path d="m372 312h-24c-4.418 0-8-3.582-8-8v-8c0-4.418 3.582-8 8-8h24c4.418 0 8 3.582 8 8v8c0 4.418-3.582 8-8 8z" fill="#cdf0ff"/><path d="m200 272h-24c-4.418 0-8-3.582-8-8v-8c0-4.418 3.582-8 8-8h24c4.418 0 8 3.582 8 8v8c0 4.418-3.582 8-8 8z" fill="#fff"/><path d="m272 272h-24c-4.418 0-8-3.582-8-8v-8c0-4.418 3.582-8 8-8h24c4.418 0 8 3.582 8 8v8c0 4.418-3.582 8-8 8z" fill="#fff"/><path d="m416 232-32 152h64z" fill="#a7d9ff"/><path d="m416 232-12 57 20 95h24z" fill="#fff"/><path d="m448 392h-64c-2.41 0-4.691-1.086-6.211-2.961-1.52-1.867-2.113-4.328-1.617-6.687l32-152c.777-3.703 4.047-6.352 7.828-6.352s7.051 2.648 7.828 6.352l32 152c.496 2.359-.098 4.82-1.617 6.687-1.52 1.875-3.801 2.961-6.211 2.961zm-54.141-16h44.281l-22.14-105.164z" fill="#6bb2ff"/><path d="m472 216-24 128h48z" fill="#a7d9ff"/><path d="m496 352h-48c-2.379 0-4.637-1.063-6.156-2.891s-2.145-4.242-1.707-6.586l24-128c.711-3.781 4.012-6.523 7.863-6.523s7.152 2.742 7.863 6.523l24 128c.438 2.344-.188 4.758-1.707 6.586s-3.777 2.891-6.156 2.891zm-38.36-16h28.719l-14.359-76.594z" fill="#6bb2ff"/><path d="m48 184-24 128h48z" fill="#a7d9ff"/><path d="m72 320h-48c-2.379 0-4.637-1.063-6.156-2.891-1.52-1.828-2.145-4.242-1.707-6.586l24-128c.711-3.781 4.011-6.523 7.863-6.523s7.152 2.742 7.863 6.523l24 128c.438 2.344-.188 4.758-1.707 6.586s-3.777 2.891-6.156 2.891zm-38.359-16h28.719l-14.36-76.594z" fill="#6bb2ff"/><path d="m327.992 264c-1.57 0-3.156-.461-4.547-1.422l-99.445-68.852-99.445 68.852c-3.641 2.508-8.621 1.602-11.133-2.023-2.516-3.633-1.609-8.617 2.023-11.133l104-72c2.742-1.891 6.367-1.891 9.109 0l104 72c3.633 2.516 4.539 7.5 2.023 11.133-1.554 2.242-4.046 3.445-6.585 3.445z" fill="#fff"/><path d="m88 160-32 152h64z" fill="#a7d9ff"/><path d="m88 160-12 57 20 95h24z" fill="#fff"/><path d="m120 320h-64c-2.41 0-4.691-1.086-6.211-2.961-1.52-1.867-2.113-4.328-1.617-6.687l32-152c.777-3.704 4.047-6.352 7.828-6.352s7.051 2.648 7.828 6.352l32 152c.496 2.359-.098 4.82-1.617 6.687-1.52 1.875-3.801 2.961-6.211 2.961zm-54.141-16h44.281l-22.14-105.164z" fill="#6bb2ff"/><path d="m168 248-24 128h48z" fill="#a7d9ff"/><path d="m192 384h-48c-2.379 0-4.637-1.063-6.156-2.891s-2.145-4.242-1.707-6.586l24-128c.711-3.781 4.012-6.523 7.863-6.523s7.152 2.742 7.863 6.523l24 128c.438 2.344-.188 4.758-1.707 6.586s-3.777 2.891-6.156 2.891zm-38.359-16h28.719l-14.36-76.594z" fill="#6bb2ff"/><path d="m0 395.636 110.333 46.697h344.667l57-42.333v-54.882l-27.036-29.306c-13.348-2.427-27.1.908-37.853 9.18l-65.295 50.227c-13.927 10.713-31.647 15.229-49.003 12.489l-92.498-14.605c-21.158-3.34-41.035-12.283-57.569-25.9l-89.588-73.778c-13.112-10.798-30.954-13.862-46.917-8.058l-46.241 42.353z" fill="#a7d9ff"/><path d="m512 328-27.036-12.188c-13.348-2.427-27.1.908-37.853 9.18l-65.295 50.227c-13.927 10.713-31.647 15.229-49.003 12.489l-92.498-14.605c-21.158-3.34-41.035-12.283-57.569-25.9l-89.588-73.778c-13.112-10.798-30.954-13.862-46.917-8.058l-46.241 25.325v17.028l54.445-19.798c7.941-2.891 16.934-1.352 23.457 4.023l89.586 73.781c19.836 16.336 43.727 27.086 69.082 31.078l92.508 14.617c4.512.711 9.055 1.055 13.582 1.055 19.305 0 38.352-6.359 53.789-18.234l65.293-50.227c5.371-4.133 12.277-5.813 18.93-4.594l31.328 5.697z" fill="#cdf0ff"/><path d="m449.865 412.648-15.419 8.811c-12.088 6.908-25.769 10.541-39.691 10.541h-145.737c-21.822 0-43.453-4.058-63.791-11.967l-88.637-34.47c-15.97-6.211-33.513-7.129-50.045-2.621l-46.545 12.694v52.364c0 8.837 7.163 16 16 16h480c8.837 0 16-7.163 16-16v-48h-14.506c-16.707 0-33.124 4.36-47.629 12.648z" fill="#508ce6"/><path d="m512 312.6-25.602-4.655c-15.551-2.844-31.641 1.07-44.168 10.703l-65.293 50.227c-12.129 9.336-27.762 13.281-42.875 10.938l-92.5-14.617c-19.727-3.109-38.305-11.461-53.73-24.164l-89.586-73.789c-15.234-12.539-36.215-16.141-54.738-9.391l-43.508 15.82v17.02l48.977-17.809c13.234-4.797 28.223-2.242 39.098 6.711l89.586 73.781c17.629 14.523 38.863 24.078 61.406 27.625l92.5 14.617c3.695.578 7.41.867 11.117.867 15.797 0 31.379-5.211 44.012-14.922l65.293-50.227c8.945-6.883 20.434-9.672 31.547-7.656l28.464 5.176z" fill="#6bb2ff"/><circle cx="304" cy="40" fill="#cdf0ff" r="8"/><path d="m288 64c-.268 0-.532.014-.798.02-3.699-18.267-19.844-32.02-39.202-32.02-22.091 0-40 17.909-40 40s17.909 40 40 40c3.961 0 7.783-.584 11.396-1.657 1.996 3.973 4.79 7.476 8.18 10.29-6.682 1.921-11.576 8.067-11.576 15.367 0 8.837 7.164 16 16 16s16-7.163 16-16c0-2.953-.814-5.71-2.209-8.084.731.05 1.466.084 2.209.084 17.673 0 32-14.327 32-32s-14.327-32-32-32z" fill="#cdf0ff"/><circle cx="112" cy="424" fill="#6bb2ff" r="8"/><circle cx="32" cy="344" fill="#6bb2ff" r="8"/><circle cx="160" cy="384" fill="#cdf0ff" r="8"/><circle cx="72" cy="408" fill="#a7d9ff" r="8"/><circle cx="472" cy="432" fill="#a7d9ff" r="8"/><circle cx="455.828" cy="382.351" fill="#cdf0ff" r="8"/></svg>