<?xml version="1.0" encoding="iso-8859-1"?>
<!-- Generator: Adobe Illustrator 19.0.0, SVG Export Plug-In . SVG Version: 6.00 Build 0)  -->
<svg xmlns="http://www.w3.org/2000/svg" xmlns:xlink="http://www.w3.org/1999/xlink" version="1.1" id="Layer_1" x="0px" y="0px" viewBox="0 0 512 512" style="enable-background:new 0 0 512 512;" xml:space="preserve">
<circle style="fill:#B4DCF4;" cx="255.996" cy="255.996" r="255.996"/>
<path style="fill:#80C6FF;" d="M512,255.999c0-5.663-0.204-11.277-0.566-16.849l-53.028-53.029c-1.76-3.591-5.446-6.086-9.695-6.086  h-11.123l-12.78-11.943c-1.76-3.591-5.446-6.086-9.695-6.086h-23.754L283.966,54.852c-6.639-8.069-16.701-13.216-27.966-13.216  c-19.992,0-36.198,16.206-36.198,36.199c0,11.265,5.146,21.327,13.215,27.965l8.021,8.233h-3.939v11.155h-8.913v10.365  l-32.058-31.272c-1.736-3.574-5.395-6.059-9.616-6.059h-58.306c-5.881,0-10.692,4.812-10.692,10.692c0,2.75,1.062,5.259,2.784,7.158  H94.941c-5.881,0-10.692,4.812-10.692,10.692c0,4.221,2.485,7.881,6.059,9.616L191.52,238.397l-9.552,73.175l-45.25-49.825h-25.861  v10.343h-4.928l-7.649,61.749h-7.795v16.938H80.129v46.629l104.496,104.496c22.657,6.565,46.604,10.097,71.377,10.097  C397.385,512,512,397.385,512,255.999z"/>
<g>
	<path style="fill:#FFFFFF;" d="M94.941,116.074h25.356c-1.722-1.9-2.784-4.408-2.784-7.158c0-5.881,4.812-10.692,10.692-10.692   h58.306c5.881,0,10.692,4.812,10.692,10.692c0,5.881-4.812,10.692-10.692,10.692h-25.356c1.722,1.9,2.784,4.408,2.784,7.158l0,0   c0,5.881-4.812,10.692-10.692,10.692H94.942c-5.881,0-10.692-4.812-10.692-10.692l0,0   C84.249,120.885,89.061,116.074,94.941,116.074z"/>
	<path style="fill:#FFFFFF;" d="M448.71,180.038H423.1c1.74-1.918,2.812-4.452,2.812-7.231c0-5.94-4.86-10.799-10.8-10.799h-58.889   c-5.94,0-10.799,4.86-10.799,10.799c0,5.939,4.86,10.8,10.799,10.8h25.61c-1.74,1.918-2.812,4.452-2.812,7.231l0,0   c0,5.94,4.86,10.8,10.8,10.8h58.889c5.939,0,10.799-4.86,10.799-10.8l0,0C459.509,184.897,454.65,180.038,448.71,180.038z"/>
</g>
<rect x="110.852" y="261.743" style="fill:#AF8665;" width="25.861" height="11.755"/>
<polygon style="fill:#C4A98E;" points="141.645,272.091 105.928,272.091 98.171,334.712 149.402,334.712 "/>
<rect x="90.487" y="333.84" style="fill:#866746;" width="66.604" height="19.17"/>
<rect x="80.132" y="350.778" style="fill:#AF8665;" width="87.321" height="46.629"/>
<rect x="375.28" y="261.743" style="fill:#9D7852;" width="25.861" height="11.755"/>
<polygon style="fill:#B9977B;" points="406.072,272.091 370.355,272.091 362.597,334.712 413.829,334.712 "/>
<rect x="354.915" y="333.84" style="fill:#715538;" width="66.604" height="19.17"/>
<rect x="344.55" y="350.778" style="fill:#9D7852;" width="87.321" height="46.629"/>
<polygon style="fill:#AF8665;" points="274.902,125.19 274.902,114.034 237.098,114.034 237.098,125.19 228.185,125.19   228.185,138.741 283.815,138.741 283.815,125.19 "/>
<polygon style="fill:#9D7852;" points="283.815,125.19 274.902,125.19 274.902,114.034 255.999,114.034 255.999,138.741   283.815,138.741 "/>
<rect x="216.312" y="137.987" style="fill:#866746;" width="79.379" height="11.68"/>
<rect x="255.996" y="137.987" style="fill:#715538;" width="39.689" height="11.68"/>
<polygon style="fill:#C4A98E;" points="308.633,147.649 203.367,147.649 179.06,333.84 332.94,333.84 "/>
<polygon style="fill:#B9977B;" points="332.94,333.84 308.633,147.649 255.999,147.649 255.999,333.84 "/>
<polygon style="fill:#AF8665;" points="213.519,184.106 213.519,194.829 197.203,194.829 198.601,184.106 "/>
<g>
	<polygon style="fill:#866746;" points="312.132,174.456 294.599,174.456 294.599,163.733 310.734,163.733  "/>
	<rect x="294.594" y="283.393" style="fill:#866746;" width="23.165" height="10.723"/>
</g>
<g>
	<rect x="207.085" y="173.388" style="fill:#AF8665;" width="23.165" height="10.723"/>
	<rect x="198.904" y="315.283" style="fill:#AF8665;" width="19.436" height="8.999"/>
	<rect x="211.86" y="306.287" style="fill:#AF8665;" width="19.436" height="8.999"/>
	<polygon style="fill:#AF8665;" points="201.938,294.12 201.938,304.843 182.843,304.843 184.241,294.12  "/>
</g>
<polygon style="fill:#866746;" points="331.578,323.423 312.879,323.423 312.879,312.7 330.18,312.7 "/>
<rect x="232.915" y="193.512" style="fill:#AF8665;" width="46.184" height="77.698"/>
<rect x="255.996" y="193.512" style="fill:#866746;" width="23.092" height="77.698"/>
<rect x="248.87" y="165.875" style="fill:#AF8665;" width="14.262" height="17.161"/>
<rect x="255.996" y="165.875" style="fill:#866746;" width="7.131" height="17.161"/>
<circle style="fill:#AF8665;" cx="255.996" cy="298.993" r="15.6"/>
<g>
	<path style="fill:#866746;" d="M255.999,283.397L255.999,283.397v31.201l0,0c8.616,0,15.6-6.984,15.6-15.6   C271.601,290.382,264.616,283.397,255.999,283.397z"/>
	<polygon style="fill:#866746;" points="332.94,331.29 179.06,331.29 165.827,350.779 165.827,397.408 346.173,397.408    346.173,350.779  "/>
</g>
<polygon style="fill:#715538;" points="346.173,350.779 332.94,331.29 255.996,331.29 255.996,397.408 346.173,397.408 "/>
<polygon style="fill:#AF8665;" points="332.94,331.29 179.06,331.29 165.827,350.779 346.173,350.779 "/>
<polygon style="fill:#9D7852;" points="346.173,350.779 332.94,331.29 255.996,331.29 255.996,350.779 "/>
<circle style="fill:#715538;" cx="255.996" cy="77.833" r="36.199"/>
<path style="fill:#59412C;" d="M292.198,77.835c0-19.992-16.206-36.198-36.199-36.199v72.397  C275.992,114.034,292.198,97.827,292.198,77.835z"/>
<path style="fill:#AAA9AF;" d="M255.999,512c90.148,0,169.405-46.604,215.016-117.025H40.985  C86.596,465.396,165.851,512,255.999,512z"/>
<g>
	<rect x="99.253" y="416.772" style="fill:#87858E;" width="68.262" height="12.809"/>
	<rect x="190.963" y="429.572" style="fill:#87858E;" width="49.611" height="12.808"/>
	<rect x="161.894" y="457.701" style="fill:#87858E;" width="49.611" height="12.808"/>
	<path style="fill:#87858E;" d="M255.996,394.975V512c0.001,0,0.002,0,0.003,0c90.148,0,169.405-46.604,215.016-117.025   L255.996,394.975L255.996,394.975z"/>
</g>
<g>
	<rect x="351.969" y="413.439" style="fill:#57555C;" width="68.262" height="12.809"/>
	<rect x="300.665" y="455.423" style="fill:#57555C;" width="49.611" height="12.808"/>
	<rect x="275.86" y="428.214" style="fill:#57555C;" width="49.611" height="12.808"/>
</g>
<g>
</g>
<g>
</g>
<g>
</g>
<g>
</g>
<g>
</g>
<g>
</g>
<g>
</g>
<g>
</g>
<g>
</g>
<g>
</g>
<g>
</g>
<g>
</g>
<g>
</g>
<g>
</g>
<g>
</g>
</svg>
