<svg id="Capa_1" enable-background="new 0 0 512 512" height="512" viewBox="0 0 512 512" width="512" xmlns="http://www.w3.org/2000/svg"><path d="m0 308.433 25.667 31.567h458l28.333-35.314v-78.185l-90.693-73.814c-17.863-12.609-41.43-13.668-60.353-2.713l-97.082 56.205c-15.051 8.714-33.297 9.94-49.38 3.318l-83.373-34.33c-16.986-6.994-36.322-5.213-51.744 4.766l-79.375 60.891z" fill="#bef0ff"/><path d="m512 206.91-86.078-60.762c-20.348-14.359-47.426-15.586-68.977-3.094l-97.082 56.203c-12.809 7.406-28.637 8.477-42.324 2.844l-83.375-34.336c-19.406-7.992-41.516-5.969-59.137 5.445l-75.027 48.551v19.063l83.719-54.176c13.223-8.555 29.793-10.086 44.355-4.086l83.375 34.336c18.25 7.516 39.352 6.094 56.43-3.797l97.086-56.203c16.152-9.359 36.469-8.445 51.73 2.328l95.305 67.275z" fill="#a7d9ff"/><path d="m248 92c-2.047 0-4.094-.781-5.656-2.344l-16-16c-3.125-3.123-3.125-8.189 0-11.312 3.125-3.125 8.187-3.125 11.312 0l16 16c3.125 3.123 3.125 8.189 0 11.312-1.562 1.563-3.609 2.344-5.656 2.344z" fill="#afc4c8"/><path d="m328 188h-96v-72c0-26.51 21.49-48 48-48 26.51 0 48 21.49 48 48z" fill="#afc4c8"/><path d="m288 164h-16c-4.418 0-8-3.582-8-8s3.582-8 8-8h16c4.418 0 8 3.582 8 8s-3.582 8-8 8z" fill="#fff"/><path d="m280 60c-30.879 0-56 25.121-56 56v72c0 4.418 3.582 8 8 8h96c4.418 0 8-3.582 8-8v-72c0-30.879-25.121-56-56-56zm0 16c22.055 0 40 17.943 40 40h-80c0-22.057 17.945-40 40-40zm40 104h-80v-48h80z" fill="#698296"/><g fill="#3c8c82"><path d="m487.844 290.432-16-80c-.746-3.74-4.031-6.432-7.844-6.432s-7.098 2.691-7.844 6.432l-16 80c-.473 2.35.137 4.787 1.656 6.641s3.789 2.927 6.188 2.927h32c2.398 0 4.668-1.074 6.188-2.928s2.128-4.291 1.656-6.64z"/><path d="m175.824 322.324-24-112c-.793-3.689-4.051-6.324-7.824-6.324s-7.031 2.635-7.824 6.324l-24 112c-.504 2.361.086 4.826 1.602 6.705 1.52 1.879 3.809 2.971 6.223 2.971h48c2.414 0 4.703-1.092 6.223-2.971 1.514-1.879 2.104-4.344 1.6-6.705z"/><path d="m231.844 282.432-24-120c-.746-3.74-4.031-6.432-7.844-6.432s-7.098 2.691-7.844 6.432l-24 120c-.473 2.35.137 4.787 1.656 6.641s3.789 2.927 6.188 2.927h48c2.398 0 4.668-1.074 6.188-2.928s2.128-4.291 1.656-6.64z"/><path d="m439.808 218.264-16-72c-.812-3.66-4.058-6.264-7.808-6.264s-6.996 2.604-7.809 6.264l-16 72c-.527 2.369.051 4.85 1.566 6.742 1.52 1.893 3.816 2.994 6.242 2.994h8v40c0 4.418 3.582 8 8 8s8-3.582 8-8v-40h8c2.426 0 4.723-1.102 6.242-2.994 1.517-1.893 2.095-4.373 1.567-6.742z"/></g><path d="m0 404 20.758 8h476.242l15-8v-57.452l-48.063-78.611c-5.138-5.138-11.872-8.375-19.094-9.177l-48.414-5.379c-7.79-.865-14.666-5.48-18.419-12.361l-33.836-62.033c-4.895-8.972-14.934-13.861-25.015-12.181l-63.565 10.594c-10.02 1.67-19.028 7.089-25.198 15.158l-84.373 110.334c-5.997 7.842-16.311 11.011-25.677 7.89l-.007-.002c-5.372-1.791-11.214-1.548-16.419.683l-40.509 17.361c-4.799 2.057-10.153 2.428-15.191 1.055l-48.22 11.722z" fill="#d1c3aa"/><path d="m288 228-24 88h48z" fill="#3c8c82"/><path d="m319.719 313.894-24-88c-.949-3.48-4.109-5.895-7.719-5.895s-6.77 2.414-7.719 5.895l-24 88c-.656 2.406-.152 4.98 1.359 6.961 1.516 1.982 3.867 3.145 6.359 3.145h16v40c0 4.418 3.582 8 8 8s8-3.582 8-8v-40h16c2.492 0 4.844-1.162 6.359-3.145 1.513-1.98 2.017-4.554 1.361-6.961zm-45.246-5.894 13.527-49.596 13.527 49.596z" fill="#3c576c"/><path d="m95.691 289.803-16-56c-.98-3.436-4.121-5.803-7.691-5.803s-6.711 2.367-7.691 5.803l-16 56c-.691 2.414-.207 5.01 1.305 7.016 1.511 2.003 3.874 3.181 6.386 3.181h8v40c0 4.418 3.582 8 8 8s8-3.582 8-8v-40h8c2.512 0 4.875-1.178 6.387-3.182 1.511-2.006 1.996-4.601 1.304-7.015z" fill="#3c8c82"/><path d="m512 327.312-48.063-59.375c-5.138-5.138-11.872-8.375-19.094-9.177l-48.414-5.379c-7.79-.865-14.666-5.48-18.419-12.361l-33.836-62.033c-4.895-8.972-14.934-13.861-25.015-12.181l-63.565 10.594c-10.02 1.67-19.028 7.089-25.198 15.158l-84.373 110.334c-5.997 7.842-16.311 11.011-25.677 7.89l-.007-.002c-5.372-1.791-11.214-1.548-16.419.683l-40.509 17.361c-4.799 2.057-10.153 2.428-15.191 1.055l-48.22-4.86v16.582l41.898 11.422c4.055 1.109 8.23 1.656 12.395 1.656 6.359 0 12.699-1.273 18.57-3.797l39.887-17.336c19.086 6.352 40.113-.102 52.336-16.078l84.371-110.328c2.48-3.242 6.063-5.398 10.082-6.07l63.566-10.594 33.84 62.047c7.504 13.742 21.273 22.977 36.836 24.711l48.406 5.375c1.801.203 3.496 1.016 4.781 2.297l56.062 56.063c2.613 2.616 5.701 4.423 8.969 5.579v-19.236z" fill="#e6d7b9"/><path d="m512 304.686-42.402-42.405c-6.395-6.398-14.871-10.469-23.871-11.477l-48.41-5.375c-5.188-.578-9.781-3.656-12.281-8.234l-33.836-62.047c-6.52-11.945-19.945-18.492-33.355-16.234l-63.566 10.594c-12.066 2.016-22.805 8.477-30.238 18.195l-84.371 110.328c-3.922 5.125-10.676 7.227-16.801 5.156-7.23-2.406-15.078-2.078-22.098.922l-40.52 17.359c-3.117 1.336-6.648 1.594-9.922.688l-50.329-13.723v16.586l46.113 12.575c2.68.727 5.434 1.094 8.184 1.094 4.199 0 8.387-.844 12.266-2.516l40.508-17.359c3.398-1.461 7.223-1.617 10.746-.445 12.613 4.242 26.496-.063 34.562-10.617l84.371-110.328c4.957-6.484 12.117-10.789 20.16-12.133l63.566-10.594c6.723-1.125 13.414 2.148 16.676 8.117l33.836 62.047c5.004 9.156 14.184 15.32 24.559 16.477l48.41 5.375c5.402.602 10.488 3.047 14.324 6.883l53.719 53.717z" fill="#beaa96"/><path d="m216 236-32 128h64z" fill="#3c8c82"/><path d="m216 236-12 48 20 80h24z" fill="#69b47d"/><path d="m255.762 362.06-32-128c-.891-3.563-4.09-6.061-7.762-6.061s-6.871 2.498-7.762 6.061l-32 128c-.598 2.389-.059 4.922 1.457 6.863s3.84 3.077 6.305 3.077h24v40c0 4.418 3.582 8 8 8s8-3.582 8-8v-40h24c2.465 0 4.789-1.135 6.305-3.076s2.054-4.475 1.457-6.864zm-61.516-6.06 21.754-87.016 21.754 87.016z" fill="#3c576c"/><path d="m404.269 356.923c-8.035-5.844-17.479-9.444-27.365-10.433l-49.815-4.981c-9.55-.955-19.025 2.427-25.811 9.214l-40.189 40.189c-13.504 13.502-31.817 21.088-50.912 21.088h293.236c-15.216 0-30.042-4.821-42.348-13.771z" fill="#6ea573"/><path d="m461.065 398.229-56.795-41.306c-8.035-5.844-17.479-9.444-27.365-10.433l-49.815-4.981c-9.55-.955-19.025 2.427-25.811 9.214l-40.189 40.189c-13.505 13.502-31.818 21.088-50.913 21.088h63.343c1.53-1.349 3.084-2.662 4.539-4.117l40.195-40.188c1.703-1.711 4.055-2.578 6.445-2.305l49.824 4.984c5.637.563 11.043 2.617 15.629 5.953l49.048 35.673h64.213c-15.216 0-30.042-4.821-42.348-13.771z" fill="#8cbe69"/><path d="m145.372 389.372c-6.001-6.001-14.141-9.373-22.627-9.373h-19.479c-4.738 0-9.371-1.403-13.313-4.031l-5.991-3.994c-6.803-4.536-15.932-3.212-21.166 3.07l-23.6 28.319c-4.56 5.473-11.314 8.637-18.437 8.637h160.496c-8.487 0-16.626-3.372-22.627-9.373z" fill="#6ea573"/><path d="m432 452h-352c-13.255 0-24-10.745-24-24h400c0 13.255-10.745 24-24 24z" fill="#aad264"/><path d="m496 436h-480c-8.837 0-16-7.163-16-16l4.667-8h492.333l15 8c0 8.836-7.164 16-16 16z" fill="#6ea573"/><path d="m512 404h-8.586c-13.617 0-26.633-4.234-37.641-12.242l-56.797-41.305c-9.18-6.68-19.996-10.797-31.277-11.922l-49.816-4.984c-11.945-1.164-23.746 3.008-32.262 11.523l-40.187 40.188c-12.09 12.086-28.165 18.742-45.258 18.742h-28.922c-6.316 0-12.5-2.563-16.969-7.031l-13.258-13.25c-7.554-7.555-17.601-11.719-28.281-11.719h-19.48c-3.164 0-6.234-.93-8.875-2.688l-5.988-3.992c-10.234-6.828-23.879-4.844-31.75 4.602l-23.602 28.32c-3.051 3.664-7.531 5.758-12.293 5.758h-20.758v16h512zm-462.917 0 19.858-23.828c2.633-3.148 7.184-3.797 10.582-1.539l5.996 3.992c5.277 3.516 11.414 5.375 17.746 5.375h19.48c6.316 0 12.5 2.563 16.969 7.031l8.974 8.969h-20.688zm217.663-7.43 40.191-40.188c5.105-5.117 12.156-7.633 19.355-6.914l49.816 4.984c8.461.844 16.574 3.93 23.453 8.938l55.842 40.61h-197.359c3.032-2.276 5.973-4.702 8.702-7.43z" fill="#3c7864"/><circle cx="336" cy="388" fill="#8cbe69" r="8"/><circle cx="424" cy="308" fill="#e6d7b9" r="8"/><circle cx="152" cy="356" fill="#e6d7b9" r="8"/><circle cx="360" cy="316" fill="#beaa96" r="8"/></svg>