<?xml version="1.0" encoding="iso-8859-1"?>
<!-- Generator: Adobe Illustrator 19.0.0, SVG Export Plug-In . SVG Version: 6.00 Build 0)  -->
<svg xmlns="http://www.w3.org/2000/svg" xmlns:xlink="http://www.w3.org/1999/xlink" version="1.1" id="Layer_1" x="0px" y="0px" viewBox="0 0 512.002 512.002" style="enable-background:new 0 0 512.002 512.002;" xml:space="preserve">
<circle style="fill:#00EBCD;" cx="255.996" cy="255.997" r="255.996"/>
<path style="fill:#00C9AF;" d="M509.351,219.164L385.085,94.897c-8.112-8.969-19.606-14.832-32.387-15.48  c-27.884-1.413-50.789,21.492-49.376,49.376c0.219,4.323,1.048,8.493,2.378,12.439L195.121,30.654v112.327l-18.043-18.043  c-1.994-3.212-5.544-5.37-9.583-5.37h-61.517c-6.205,0-11.282,5.076-11.282,11.282c0,2.902,1.12,5.548,2.937,7.553H70.881  c-6.205,0-11.282,5.077-11.282,11.282c0,4.038,2.158,7.588,5.37,9.583L195.121,289.42v106.21L306.5,507.009c0,0,0,0,0.001,0  c1.073-0.214,2.141-0.442,3.209-0.67c0.654-0.139,1.306-0.282,1.958-0.426c3.507-0.777,6.986-1.627,10.437-2.546  c0.624-0.166,1.248-0.335,1.869-0.506c3.463-0.951,6.895-1.974,10.297-3.065c0.586-0.188,1.17-0.377,1.754-0.569  c3.421-1.125,6.811-2.32,10.166-3.584c0.54-0.204,1.08-0.409,1.62-0.615c3.379-1.299,6.724-2.668,10.033-4.104  c0.493-0.214,0.985-0.428,1.476-0.646c3.342-1.475,6.645-3.022,9.91-4.634c0.432-0.213,0.862-0.426,1.293-0.643  c3.305-1.656,6.568-3.382,9.789-5.175c0.369-0.206,0.739-0.412,1.107-0.619c3.267-1.84,6.491-3.75,9.667-5.728  c0.301-0.187,0.602-0.375,0.903-0.563c3.234-2.032,6.42-4.135,9.554-6.306c0.222-0.154,0.444-0.306,0.665-0.461  c3.197-2.23,6.342-4.53,9.431-6.899c0.147-0.113,0.296-0.226,0.443-0.34c3.16-2.435,6.261-4.94,9.301-7.516  c0.065-0.055,0.131-0.11,0.195-0.165c34.451-29.253,61.059-67.464,76.228-111.034c0.002,0.002,0.004,0.004,0.007,0.006  c9.182-26.372,14.188-54.7,14.188-84.2C512,243.49,511.085,231.195,509.351,219.164z"/>
<path style="fill:#FFFFFF;" d="M467.775,212.276h-28.883c1.962-2.164,3.171-5.022,3.171-8.154c0-6.699-5.48-12.179-12.18-12.179  h-66.416c-6.699,0-12.179,5.48-12.179,12.179s5.48,12.179,12.179,12.179h28.884c-1.961,2.164-3.171,5.022-3.171,8.154l0,0  c0,6.699,5.48,12.179,12.179,12.179h66.416c6.699,0,12.179-5.48,12.179-12.179l0,0C479.956,217.757,474.475,212.276,467.775,212.276  z"/>
<path style="fill:#005ECE;" d="M303.368,382.558h-93.804V188.453h93.804c0,0,17.415,39.146,17.415,97.077  S303.368,382.558,303.368,382.558z"/>
<path style="fill:#004DAD;" d="M320.782,285.529c0-57.931-17.415-97.077-17.415-97.077h-47.371v194.105h47.372  C303.368,382.558,320.782,343.461,320.782,285.529z"/>
<path style="fill:#00449A;" d="M308.191,201.719h-98.626v-13.27h93.799C303.364,188.449,305.454,193.151,308.191,201.719z"/>
<path style="fill:#002C6A;" d="M308.191,201.719c-2.738-8.568-4.827-13.27-4.827-13.27h-47.368v13.27H308.191z"/>
<path style="fill:#00449A;" d="M314.9,227.549H209.565v-13.26h102.252C312.862,218.291,313.907,222.732,314.9,227.549z"/>
<path style="fill:#002C6A;" d="M314.9,227.549c-0.993-4.817-2.038-9.258-3.082-13.26h-55.821v13.26H314.9z"/>
<path style="fill:#FFFFFF;" d="M318.985,253.389h-109.42v-13.27h107.623C317.867,244.33,318.473,248.76,318.985,253.389z"/>
<path style="fill:#00449A;" d="M320.709,279.218H209.565v-13.26h110.549C320.406,270.243,320.616,274.663,320.709,279.218z"/>
<path style="fill:#002C6A;" d="M320.709,279.218c-0.094-4.556-0.303-8.976-0.596-13.26h-64.117v13.26H320.709z"/>
<path style="fill:#00449A;" d="M320.709,291.788c-0.094,4.556-0.293,8.986-0.585,13.27H209.565v-13.27H320.709z"/>
<path style="fill:#002C6A;" d="M255.996,305.058h64.128c0.293-4.284,0.491-8.714,0.585-13.27h-64.713V305.058z"/>
<path style="fill:#FFFFFF;" d="M318.995,317.628c-0.512,4.629-1.118,9.049-1.797,13.26H209.565v-13.26H318.995z"/>
<path style="fill:#00449A;" d="M308.191,369.298c-2.738,8.558-4.827,13.26-4.827,13.26h-93.799v-13.26H308.191z"/>
<path style="fill:#002C6A;" d="M303.364,382.557c0,0,2.09-4.702,4.827-13.26h-52.195v13.26H303.364z"/>
<path style="fill:#00449A;" d="M314.91,343.458c-0.993,4.817-2.038,9.258-3.093,13.27H209.565v-13.27H314.91z"/>
<path style="fill:#002C6A;" d="M311.817,356.728c1.055-4.012,2.1-8.453,3.093-13.27h-58.914v13.27H311.817z"/>
<path style="fill:#FFFFFF;" d="M304.689,172.519c-30.216-50.383-78.399-70.277-94.327-75.693l-15.24-66.172v61.878v76.57h-38.152  v19.611h38.152v206.916h106.984l1.751-4.563C338.003,302.066,338.283,228.536,304.689,172.519z M210.583,111.432  c16.485,6.612,49.871,23.388,74.145,57.67h-74.145L210.583,111.432L210.583,111.432z M290.896,382.345h-80.314V188.714h85.922  C321.872,239.195,319.999,304.245,290.896,382.345z"/>
<path style="fill:#D4D4D6;" d="M304.689,172.519c-14.032-23.398-31.937-40.211-48.688-52.062v17.944  c9.947,8.173,19.935,18.283,28.727,30.702h-28.727v19.611h40.505c7.907,15.735,13.164,32.886,15.78,51.404h-56.284v13.27h57.671  c1.429,19.956-0.012,41.387-4.323,64.239h-53.349v13.26h50.562c-3.807,16.462-9.016,33.615-15.665,51.457h-34.897v13.286h46.104  l1.751-4.563C338.003,302.066,338.283,228.536,304.689,172.519z"/>
<path style="fill:#00A2FF;" d="M255.999,512.001c90.148,0,169.405-46.604,215.016-117.026H40.984  C86.596,465.398,165.851,512.001,255.999,512.001z"/>
<g>
	<rect x="90.132" y="410.18" style="fill:#FFFFFF;" width="68.262" height="14.015"/>
	<rect x="197.671" y="426.302" style="fill:#FFFFFF;" width="49.611" height="14.015"/>
	<rect x="147.872" y="459.78" style="fill:#FFFFFF;" width="49.611" height="14.015"/>
</g>
<path style="fill:#0084FF;" d="M255.996,394.976v117.026c0.001,0,0.002,0,0.003,0c90.148,0,169.405-46.604,215.016-117.026H255.996z  "/>
<g>
	<rect x="358.75" y="408.508" style="fill:#FFFFFF;" width="68.262" height="14.015"/>
	<rect x="269.852" y="424.62" style="fill:#FFFFFF;" width="49.611" height="14.015"/>
	<rect x="319.661" y="458.109" style="fill:#FFFFFF;" width="49.611" height="14.015"/>
</g>
<circle style="fill:#FFD000;" cx="350.255" cy="126.348" r="46.993"/>
<path style="fill:#E7AF00;" d="M350.252,79.355v93.985c25.954,0,46.993-21.04,46.993-46.993  C397.246,100.395,376.206,79.355,350.252,79.355z"/>
<path style="fill:#FFFFFF;" d="M70.772,138.402h26.863c-1.824-2.012-2.95-4.67-2.95-7.584c0-6.231,5.098-11.328,11.328-11.328  h61.769c6.231,0,11.328,5.098,11.328,11.328c0,6.231-5.097,11.328-11.328,11.328h-26.863c1.824,2.012,2.949,4.67,2.949,7.584l0,0  c0,6.23-5.097,11.328-11.328,11.328H70.772c-6.231,0-11.328-5.097-11.328-11.328l0,0C59.444,143.499,64.542,138.402,70.772,138.402z  "/>
<g>
</g>
<g>
</g>
<g>
</g>
<g>
</g>
<g>
</g>
<g>
</g>
<g>
</g>
<g>
</g>
<g>
</g>
<g>
</g>
<g>
</g>
<g>
</g>
<g>
</g>
<g>
</g>
<g>
</g>
</svg>
