<?xml version="1.0" encoding="iso-8859-1"?>
<!-- Generator: Adobe Illustrator 19.0.0, SVG Export Plug-In . SVG Version: 6.00 Build 0)  -->
<svg xmlns="http://www.w3.org/2000/svg" xmlns:xlink="http://www.w3.org/1999/xlink" version="1.1" id="Layer_1" x="0px" y="0px" viewBox="0 0 512 512" style="enable-background:new 0 0 512 512;" xml:space="preserve">
<g>
	<circle style="fill:#005ECE;" cx="255.998" cy="255.996" r="255.996"/>
	<path style="fill:#005ECE;" d="M511.998,256.001c0,119.597-82.013,220.042-192.865,248.149c-20.187,5.13-41.346,7.847-63.132,7.847   s-42.945-2.717-63.132-7.847C82.018,476.042,0.005,375.598,0.005,256.001c0-141.383,114.613-255.996,255.996-255.996   S511.998,114.617,511.998,256.001z"/>
</g>
<path style="fill:#004DAD;" d="M256.002,511.997c21.786,0,42.945-2.717,63.132-7.847C420.88,478.352,498.319,391.608,510.356,285.05  L258.572,33.266h-5.141v23.042l-26.497,83.135h-0.002v41.647l-3.307,4.378l-46.703-46.658c-1.914-3.564-5.678-6.003-9.986-6.003  h-61.769c-6.231,0-11.328,5.098-11.328,11.328c0,2.914,1.124,5.571,2.949,7.584H69.926c-6.231,0-11.328,5.098-11.328,11.328  c0,4.308,2.439,8.072,6.003,9.986l122.594,123.227v67.811h3.216v139.428c0.82,0.216,1.636,0.443,2.46,0.651  C213.057,509.28,234.216,511.997,256.002,511.997z"/>
<path style="fill:#00449A;" d="M256.002,512c116.507,0,214.822-77.834,245.818-184.337H10.183  C41.18,434.166,139.495,512,256.002,512z"/>
<path style="fill:#002C6A;" d="M256.002,327.663V512l0,0c116.507,0,214.822-77.834,245.818-184.337H256.002z"/>
<g>
	<path style="fill:#FFFFFF;" d="M69.926,151.719h26.863c-1.824-2.012-2.949-4.671-2.949-7.584c0-6.231,5.098-11.328,11.328-11.328   h61.769c6.231,0,11.328,5.098,11.328,11.328c0,6.231-5.097,11.328-11.328,11.328h-26.863c1.824,2.012,2.949,4.67,2.949,7.584l0,0   c0,6.23-5.097,11.328-11.328,11.328H69.926c-6.231,0-11.328-5.098-11.328-11.328l0,0C58.598,156.817,63.695,151.719,69.926,151.719   z"/>
	<path style="fill:#FFFFFF;" d="M456.461,258.3h-25.61c1.74-1.918,2.812-4.452,2.812-7.231c0-5.94-4.86-10.799-10.8-10.799h-58.889   c-5.94,0-10.8,4.86-10.8,10.799c0,5.939,4.86,10.799,10.8,10.799h25.61c-1.74,1.918-2.812,4.452-2.812,7.231l0,0   c0,5.94,4.86,10.8,10.8,10.8h58.889c5.939,0,10.8-4.86,10.8-10.8l0,0C467.261,263.16,462.401,258.3,456.461,258.3z"/>
</g>
<path style="fill:#DAC8B8;" d="M324.809,263.885h-8.576v-41.545L285.07,181.09h-58.137l-31.163,41.251v41.545h-8.576v100.185h8.576  v140.793c19.31,4.665,39.486,7.133,60.231,7.133s40.92-2.469,60.231-7.133V364.071h8.576V263.885z"/>
<path style="fill:#B9977B;" d="M316.233,263.885v-41.545L285.07,181.09h-29.069v330.907c20.745,0,40.92-2.469,60.231-7.133V364.071  h8.576V263.885H316.233z"/>
<rect x="190.411" y="364.069" style="fill:#9D7852;" width="131.185" height="23.531"/>
<rect x="255.998" y="364.069" style="fill:#866746;" width="65.591" height="23.531"/>
<rect x="226.93" y="139.44" style="fill:#DAC8B8;" width="58.138" height="43.101"/>
<rect x="255.998" y="139.44" style="fill:#B9977B;" width="29.069" height="43.101"/>
<rect x="202.762" y="394.914" style="fill:#9D7852;" width="5.572" height="106.338"/>
<rect x="303.666" y="394.914" style="fill:#866746;" width="5.572" height="106.338"/>
<polygon style="fill:#9D7852;" points="285.071,181.087 226.933,181.087 195.768,222.341 316.236,222.341 "/>
<polygon style="fill:#866746;" points="316.236,222.341 285.071,181.087 256.002,181.087 256.002,222.341 "/>
<rect x="254.379" y="289.579" style="fill:#715538;" width="3.24" height="24.402"/>
<g>
	<rect x="255.998" y="289.579" style="fill:#59412C;" width="1.62" height="24.402"/>
	<rect x="254.379" y="312.357" style="fill:#59412C;" width="20.404" height="3.24"/>
</g>
<path style="fill:#9D7852;" d="M212.408,271.78v84.394h87.188V271.78L212.408,271.78L212.408,271.78z M256.002,348.534  c-19.085,0-34.556-15.472-34.556-34.556s15.472-34.556,34.556-34.556c19.085,0,34.556,15.472,34.556,34.556  C290.558,333.063,275.086,348.534,256.002,348.534z"/>
<path style="fill:#866746;" d="M299.596,271.78h-43.594v7.641c19.085,0,34.556,15.472,34.556,34.556  c0,19.085-15.472,34.556-34.556,34.556v7.641h43.594V271.78z"/>
<g>
	<rect x="207.265" y="240.062" style="fill:#9D7852;" width="10.811" height="23.82"/>
	<rect x="228.926" y="240.062" style="fill:#9D7852;" width="10.811" height="23.82"/>
	<rect x="250.596" y="240.062" style="fill:#9D7852;" width="10.811" height="23.82"/>
</g>
<g>
	<rect x="255.998" y="240.062" style="fill:#866746;" width="5.406" height="23.82"/>
	<rect x="272.267" y="240.062" style="fill:#866746;" width="10.811" height="23.82"/>
	<rect x="293.928" y="240.062" style="fill:#866746;" width="10.811" height="23.82"/>
</g>
<g>
	<rect x="234.61" y="149.69" style="fill:#9D7852;" width="9.733" height="21.445"/>
	<rect x="251.14" y="149.69" style="fill:#9D7852;" width="9.733" height="21.445"/>
</g>
<g>
	<rect x="255.998" y="149.69" style="fill:#866746;" width="4.867" height="21.445"/>
	<rect x="267.67" y="149.69" style="fill:#866746;" width="9.733" height="21.445"/>
</g>
<rect x="254.379" y="277.594" style="fill:#9D7852;" width="3.24" height="8.1"/>
<rect x="255.998" y="277.594" style="fill:#866746;" width="1.62" height="8.1"/>
<rect x="254.379" y="342.262" style="fill:#9D7852;" width="3.24" height="8.1"/>
<g>
	<rect x="255.998" y="342.262" style="fill:#866746;" width="1.62" height="8.1"/>
	<rect x="284.294" y="312.357" style="fill:#866746;" width="8.1" height="3.24"/>
</g>
<g>
	<rect x="219.616" y="312.357" style="fill:#9D7852;" width="8.1" height="3.24"/>
	
		<rect x="237.903" y="282.072" transform="matrix(0.8605 -0.5095 0.5095 0.8605 -112.3566 161.9542)" style="fill:#9D7852;" width="3.24" height="8.1"/>
</g>
<rect x="270.852" y="337.721" transform="matrix(0.8605 -0.5095 0.5095 0.8605 -136.1124 186.5057)" style="fill:#866746;" width="3.24" height="8.1"/>
<rect x="226.534" y="326.402" transform="matrix(-0.5095 -0.8605 0.8605 -0.5095 60.0487 695.1343)" style="fill:#9D7852;" width="3.24" height="8.1"/>
<g>
	
		<rect x="282.201" y="293.427" transform="matrix(-0.5095 -0.8605 0.8605 -0.5095 172.4719 693.2651)" style="fill:#866746;" width="3.24" height="8.099"/>
	
		<rect x="270.859" y="282.078" transform="matrix(-0.8605 -0.5095 0.5095 -0.8605 361.1425 671.1628)" style="fill:#866746;" width="3.24" height="8.099"/>
</g>
<rect x="237.924" y="337.768" transform="matrix(-0.8605 -0.5095 0.5095 -0.8605 271.5142 757.9888)" style="fill:#9D7852;" width="3.24" height="8.1"/>
<rect x="282.199" y="326.421" transform="matrix(0.5095 -0.8605 0.8605 0.5095 -145.146 406.3207)" style="fill:#866746;" width="3.24" height="8.1"/>
<rect x="226.546" y="293.459" transform="matrix(0.5095 -0.8605 0.8605 0.5095 -144.0818 342.2644)" style="fill:#9D7852;" width="3.24" height="8.1"/>
<circle style="fill:#715538;" cx="255.998" cy="313.977" r="4.465"/>
<path style="fill:#59412C;" d="M260.466,313.978c0-2.466-1.999-4.465-4.465-4.465v8.93  C258.467,318.442,260.466,316.443,260.466,313.978z"/>
<rect x="195.437" y="271.785" style="fill:#9D7852;" width="8.141" height="84.395"/>
<rect x="308.431" y="271.785" style="fill:#866746;" width="8.141" height="84.395"/>
<g>
	<polygon style="fill:#9D7852;" points="228.229,402.347 224.285,411.691 224.285,445.461 228.229,445.461 232.172,445.461    232.172,411.691  "/>
	<polygon style="fill:#9D7852;" points="246.744,402.347 242.802,411.691 242.802,445.461 246.744,445.461 250.687,445.461    250.687,411.691  "/>
</g>
<g>
	<polygon style="fill:#866746;" points="265.26,402.347 261.317,411.691 261.317,445.461 265.26,445.461 269.203,445.461    269.203,411.691  "/>
	<polygon style="fill:#866746;" points="283.776,402.347 279.832,411.691 279.832,445.461 283.776,445.461 287.718,445.461    287.718,411.691  "/>
</g>
<g>
	<rect x="224.286" y="455.924" style="fill:#9D7852;" width="7.886" height="37.877"/>
	<rect x="242.802" y="455.924" style="fill:#9D7852;" width="7.886" height="37.877"/>
</g>
<g>
	<rect x="261.317" y="455.924" style="fill:#866746;" width="7.886" height="37.877"/>
	<rect x="279.832" y="455.924" style="fill:#866746;" width="7.886" height="37.877"/>
</g>
<polygon style="fill:#9D7852;" points="258.572,56.308 258.572,33.266 253.432,33.266 253.432,56.308 226.935,139.443   226.935,145.029 285.069,145.029 285.069,139.443 "/>
<polygon style="fill:#866746;" points="285.069,145.029 285.069,139.443 258.572,56.308 258.572,33.266 256.002,33.266   256.002,145.029 "/>
<g>
</g>
<g>
</g>
<g>
</g>
<g>
</g>
<g>
</g>
<g>
</g>
<g>
</g>
<g>
</g>
<g>
</g>
<g>
</g>
<g>
</g>
<g>
</g>
<g>
</g>
<g>
</g>
<g>
</g>
</svg>
