<svg id="Capa_1" enable-background="new 0 0 512 512" height="512" viewBox="0 0 512 512" width="512" xmlns="http://www.w3.org/2000/svg"><path d="m168 176.254 78.188-36.087c16.223-7.487 35.044-6.784 50.663 1.893l47.149 26.194 27.801-9.267c13.011-4.337 27.162-3.749 39.768 1.654l36.431 15.613v24l-280 8z" fill="#ead1aa"/><path d="m172.195 200.184 89.106-34.03c12.091-4.618 25.409-4.905 37.688-.812l57.119 19.04c12.827 4.276 26.767 3.766 39.247-1.434l41.23-17.179c21.345-8.894 45.962-3.753 61.964 12.94l13.451 14.031-33.667 54.273-255.743 19.313z" fill="#c8c8aa"/><path d="m328 375.013-328-8v-56l328-48z" fill="#69c3be"/><path d="m0 263.013h304v48h-304z" fill="#a0e6e1"/><path d="m196.231 234.252c-12.784-7.102-21.632-19.644-24.036-34.068l-14.624-87.747c-3.215-19.288-19.902-33.424-39.456-33.424h-94.115l32 184h192z" fill="#d1c3aa"/><path d="m196.231 234.252c-12.784-7.102-21.632-19.644-24.036-34.068l-14.624-87.747c-3.215-19.288-19.902-33.424-39.456-33.424h-94.115l4.174 24h89.939c7.855 0 14.492 5.625 15.785 13.367l14.625 87.75c3.625 21.758 16.766 40.391 36.051 51.102l14.008 7.781h49.418z" fill="#e6d7b9"/><path d="m251.887 256.021-51.77-28.758c-10.715-5.953-18.016-16.305-20.031-28.391l-14.625-87.75c-3.871-23.242-23.785-40.109-47.348-40.109h-103.113l9 16h94.113c15.707 0 28.984 11.242 31.566 26.734l14.625 87.75c2.82 16.93 13.039 31.414 28.039 39.75l24.781 13.766h-145.124c-4.418 0-8 3.578-8 8s3.582 8 8 8h176c3.645 0 6.828-2.461 7.746-5.992.914-3.531-.676-7.235-3.859-9z" fill="#beaa96"/><path d="m92.973 128.42c-2.943-10.303-12.361-17.407-23.076-17.407h-29.897v168h96z" fill="#a0e6e1"/><path d="m135.996 287.013c-3.48 0-6.684-2.289-7.687-5.805l-43.028-150.593c-1.953-6.828-8.277-11.602-15.383-11.602h-29.898c-4.418 0-8-3.578-8-8s3.582-8 8-8h29.898c14.215 0 26.867 9.547 30.766 23.211l43.027 150.594c1.215 4.242-1.246 8.672-5.492 9.891-.734.202-1.476.304-2.203.304z" fill="#69c3be"/><g fill="#3c7864"><path d="m416 119.013-16 96h32z"/><path d="m432 223.013h-32c-2.352 0-4.586-1.031-6.105-2.828s-2.172-4.164-1.785-6.484l16-96c.641-3.859 3.98-6.688 7.891-6.688s7.25 2.828 7.891 6.688l16 96c.387 2.32-.266 4.688-1.785 6.484s-3.756 2.828-6.107 2.828zm-22.555-16h13.109l-6.554-39.336z"/><path d="m439.891 213.701-16-96c-.641-3.859-3.98-6.688-7.891-6.688s-7.25 2.828-7.891 6.688l-16 96c-.387 2.32.266 4.688 1.785 6.484s3.754 2.828 6.105 2.828h32c2.352 0 4.586-1.031 6.105-2.828s2.173-4.164 1.787-6.484z"/><path d="m352 143.013-16 96h32z"/><path d="m368 247.013h-32c-2.352 0-4.586-1.031-6.105-2.828s-2.172-4.164-1.785-6.484l16-96c.641-3.859 3.98-6.688 7.891-6.688s7.25 2.828 7.891 6.688l16 96c.387 2.32-.266 4.688-1.785 6.484s-3.755 2.828-6.107 2.828zm-22.555-16h13.109l-6.554-39.336z"/><path d="m375.891 237.701-16-96c-.641-3.859-3.98-6.688-7.891-6.688s-7.25 2.828-7.891 6.688l-16 96c-.387 2.32.266 4.688 1.785 6.484s3.754 2.828 6.105 2.828h32c2.352 0 4.586-1.031 6.105-2.828s2.173-4.164 1.787-6.484z"/></g><path d="m296 183.013-16 96h32z" fill="#6ea573"/><path d="m312 287.013h-32c-2.352 0-4.586-1.031-6.105-2.828-1.52-1.797-2.172-4.164-1.785-6.484l16-96c.641-3.859 3.98-6.688 7.891-6.688s7.25 2.828 7.891 6.688l16 96c.387 2.32-.266 4.688-1.785 6.484-1.521 1.797-3.755 2.828-6.107 2.828zm-22.555-16h13.109l-6.554-39.336z" fill="#6ea573"/><path d="m319.891 277.701-16-96c-.641-3.859-3.98-6.688-7.891-6.688s-7.25 2.828-7.891 6.688l-16 96c-.387 2.32.266 4.688 1.785 6.484s3.754 2.828 6.105 2.828h32c2.352 0 4.586-1.031 6.105-2.828s2.173-4.164 1.787-6.484z" fill="#6ea573"/><path d="m297.871 341.75c-16.324 20.988-41.422 33.263-68.011 33.263h-32.194l34.667 31.32 279.667-7.32v-190.171l-179.61 11.905c-13.441 1.494-26.416 5.81-38.072 12.667l-67.673 39.808c-14.05 8.265-8.188 29.791 8.112 29.791h44.172c19.972 0 31.206 22.97 18.944 38.734z" fill="#8cbe69"/><path d="m335.039 244.599 176.961-19.662v-16.095l-179.61 11.905c-13.441 1.494-26.416 5.81-38.072 12.667l-67.673 39.808c-14.05 8.265-8.188 29.791 8.112 29.791h44.172c19.972 0 31.206 22.97 18.944 38.734l-.002.002c-16.324 20.988-41.422 33.263-68.011 33.263l-229.86 8v16h229.859c34.242 0 65.937-15.5 86.961-42.531 11.344-14.594 13.344-33.961 5.227-50.562-8.121-16.594-24.641-26.906-43.117-26.906h-14.793l42.34-24.914c8.812-5.172 18.421-8.375 28.562-9.5z" fill="#aad264"/><path d="m48 423.013c0 13.255 10.745 24 24 24h368c13.255 0 24-10.745 24-24z" fill="#6ea573"/><path d="m496 431.013h-480c-8.837 0-16-7.163-16-16l45.667-8.013h420l46.333 8.013c0 8.837-7.164 16-16 16z" fill="#3c7864"/><path d="m230.699 280.122 67.672-39.813c10.766-6.328 22.508-10.234 34.902-11.609l178.727-19.858v-16.102l-180.492 20.055c-14.648 1.625-28.527 6.242-41.246 13.719l-67.672 39.812c-9.457 5.563-13.871 16.414-10.988 26.992 2.879 10.586 12.188 17.695 23.156 17.695h44.172c6.25 0 11.625 3.352 14.371 8.969s2.094 11.922-1.746 16.852c-14.91 19.18-37.398 30.18-61.695 30.18h-229.86v16h229.859c29.27 0 56.359-13.25 74.332-36.352 7.559-9.727 8.895-22.641 3.48-33.711-5.41-11.063-16.426-17.938-28.742-17.938h-44.172c-5.672 0-7.344-4.516-7.719-5.898-.378-1.383-1.225-6.118 3.661-8.993z" fill="#6ea573"/><path d="m456 183.013-32 176h64z" fill="#3c8c82"/><path d="m456 183.013-12 66 20 110h24z" fill="#69b47d"/><path d="m360 247.013-32 128h64z" fill="#3c8c82"/><path d="m360 247.013-12 48 20 80h24z" fill="#69b47d"/><path d="m464 399.013v-32h24c2.371 0 4.621-1.055 6.141-2.875s2.156-4.219 1.73-6.555l-32-176c-.691-3.805-4.004-6.57-7.871-6.57s-7.18 2.766-7.871 6.57l-32 176c-.426 2.336.211 4.734 1.73 6.555s3.77 2.875 6.141 2.875h24v32h-80v-16h24c2.465 0 4.789-1.133 6.305-3.078 1.516-1.938 2.055-4.469 1.457-6.859l-32-128c-.891-3.563-4.09-6.063-7.762-6.063s-6.871 2.5-7.762 6.063l-32 128c-.598 2.391-.059 4.922 1.457 6.859 1.516 1.945 3.84 3.078 6.305 3.078h24v16h-352v16h512v-16zm-8-171.281 22.414 123.281h-44.828zm-96 52.265 21.754 87.016h-43.508z" fill="#3c576c"/><path d="m152 271.013h-23.85c-10.716 0-20.133-7.104-23.077-17.408l-9.38-32.835c-1.211-4.25-5.645-6.688-9.891-5.5-4.246 1.219-6.707 5.641-5.492 9.891l9.428 33.003c1.84 6.439-2.995 12.849-9.692 12.849h-.046v16h72c4.418 0 8-3.582 8-8s-3.581-8-8-8z" fill="#fff"/><path d="m0 223.013 58.745 26.745-24.49-149.023c-1.438-8.753-6.445-16.516-13.826-21.436l-20.429 15.229z" fill="#beaa96"/><path d="m34.255 100.735c-1.438-8.753-6.445-16.516-13.826-21.436l-20.429-4.005v19.233l7.125 4.751c1.832 1.219 3.09 3.164 3.445 5.344l24.131 146.826 24.044-1.69z" fill="#d1c3aa"/><path d="m0 279.013 96 8-37.255-37.255c-12.002-12.002-28.281-18.745-45.255-18.745l-13.49 24v24z" fill="#beaa96"/><path d="m58.745 249.758c-12.002-12.002-28.281-18.745-45.255-18.745h-13.49v24h13.492c10.684 0 20.73 4.164 28.281 11.711l20.287 20.289h33.94z" fill="#d1c3aa"/><circle cx="80" cy="191.013" fill="#fff" r="8"/><path d="m101.656 281.357-35.432-35.437-24.074-146.477c-1.798-10.941-8.057-20.646-17.282-26.797l-8.869-5.913c-6.839-4.56-15.999.342-15.999 8.561l15.996 10.664c5.532 3.688 9.284 9.506 10.363 16.066l21.298 129.587c-10.376-5.609-22.038-8.599-34.165-8.599h-13.492v16h13.505c14.848 0 29.087 5.899 39.585 16.398l23.598 23.602h-76.688v16h96c3.234 0 6.152-1.945 7.391-4.938s.554-6.428-1.735-8.717z" fill="#917d6e"/><path d="m152 343.013h80c4.418 0 8-3.582 8-8 0-4.418-3.582-8-8-8h-80c-4.418 0-8 3.582-8 8 0 4.418 3.582 8 8 8z" fill="#a0e6e1"/><path d="m96 343.013h16c4.418 0 8-3.582 8-8 0-4.418-3.582-8-8-8h-16c-4.418 0-8 3.582-8 8 0 4.418 3.582 8 8 8z" fill="#a0e6e1"/><circle cx="408" cy="271.013" fill="#aad264" r="8"/><circle cx="296" cy="383.013" fill="#6ea573" r="8"/></svg>