<?xml version="1.0" encoding="iso-8859-1"?>
<!-- Generator: Adobe Illustrator 19.0.0, SVG Export Plug-In . SVG Version: 6.00 Build 0)  -->
<svg xmlns="http://www.w3.org/2000/svg" xmlns:xlink="http://www.w3.org/1999/xlink" version="1.1" id="Layer_1" x="0px" y="0px" viewBox="0 0 512 512" style="enable-background:new 0 0 512 512;" xml:space="preserve">
<circle style="fill:#00EBCD;" cx="255.996" cy="255.996" r="255.996"/>
<path style="fill:#00C9AF;" d="M255.999,512C397.385,512,512,397.385,512,255.999c0-17.687-1.794-34.956-5.21-51.633l-52.56-52.56  c-1.525-4.104-5.476-7.055-10.094-7.055h-11.549l-11.873-10.931c-1.525-4.104-5.476-7.055-10.094-7.055h-58.746  c-1.976,0-3.829,0.541-5.424,1.482L259.432,42.02h-6.871v43.065c-4.493,5.293-13.573,14.338-28.173,22.007l-18.655-18.158  c-1.909-4.351-6.259-7.411-11.294-7.411h-67.236c-6.781,0-12.33,5.548-12.33,12.33c0,3.171,1.225,6.064,3.21,8.255h-29.24  c-6.781,0-12.33,5.548-12.33,12.33c0,5.034,3.062,9.384,7.411,11.294l60.041,61.239v4.678c-2.344,2.377-6.253,5.591-12.034,8.08  c-3.998,1.721-6.806,4.142-8.75,7.201l-47.89-46.091h-3.318v20.391c-1.405,1.425-3.75,3.353-7.217,4.845  c-6.263,2.696-7.666,8.246-7.666,16.016v17.611h-2.068v6.878h2.068v42.011h-2.068v6.877h2.068v42.011h-2.068v6.877h2.068v50.499  H29.225C72.044,456.384,157.52,512,255.999,512z"/>
<g>
	<path style="fill:#FFFFFF;" d="M88.842,102.107h29.24c-1.986-2.191-3.21-5.083-3.21-8.255c0-6.781,5.548-12.33,12.33-12.33h67.236   c6.781,0,12.33,5.548,12.33,12.33c0,6.781-5.548,12.33-12.33,12.33h-29.24c1.986,2.191,3.21,5.083,3.21,8.255l0,0   c0,6.781-5.548,12.33-12.33,12.33H88.842c-6.781,0-12.33-5.548-12.33-12.33l0,0C76.513,107.655,82.061,102.107,88.842,102.107z"/>
	<path style="fill:#FFFFFF;" d="M444.137,144.753H418.59c1.736-1.914,2.804-4.442,2.804-7.213c0-5.926-4.848-10.773-10.773-10.773   h-58.746c-5.926,0-10.773,4.847-10.773,10.773c0,5.926,4.848,10.773,10.773,10.773h25.547c-1.736,1.914-2.804,4.442-2.804,7.213   l0,0c0,5.926,4.848,10.773,10.773,10.773h58.745c5.926,0,10.773-4.848,10.773-10.773l0,0   C454.91,149.601,450.061,144.753,444.137,144.753z"/>
</g>
<rect x="421.83" y="202.091" style="fill:#C4A98E;" width="33.085" height="174.328"/>
<path style="fill:#715538;" d="M447.242,186.074c-3.467-1.492-5.811-3.42-7.217-4.845v-20.391h-3.317v20.391  c-1.405,1.425-3.75,3.353-7.217,4.845c-6.263,2.696-7.666,8.246-7.666,16.016v2.418h33.085v-2.418  C454.91,194.32,453.505,188.77,447.242,186.074z"/>
<g>
	<rect x="435.319" y="210.084" style="fill:#866746;" width="6.105" height="9.87"/>
	<rect x="426.009" y="210.084" style="fill:#866746;" width="6.105" height="9.87"/>
	<rect x="444.629" y="210.084" style="fill:#866746;" width="6.105" height="9.87"/>
</g>
<rect x="421.83" y="202.091" style="fill:#9D7852;" width="33.085" height="4.837"/>
<g>
	<rect x="419.761" y="268.587" style="fill:#715538;" width="37.221" height="6.877"/>
	<rect x="419.761" y="219.697" style="fill:#715538;" width="37.221" height="6.877"/>
	<rect x="419.761" y="317.477" style="fill:#715538;" width="37.221" height="6.877"/>
</g>
<rect x="57.09" y="202.091" style="fill:#DAC8B8;" width="33.085" height="174.328"/>
<path style="fill:#866746;" d="M82.508,186.074c-3.467-1.492-5.812-3.42-7.217-4.845v-20.391h-3.318v20.391  c-1.405,1.425-3.75,3.353-7.217,4.845c-6.263,2.696-7.666,8.246-7.666,16.016v2.418h33.085v-2.418  C90.174,194.32,88.771,188.77,82.508,186.074z"/>
<g>
	<rect x="70.582" y="210.084" style="fill:#9D7852;" width="6.105" height="9.87"/>
	<rect x="61.272" y="210.084" style="fill:#9D7852;" width="6.105" height="9.87"/>
	<rect x="79.892" y="210.084" style="fill:#9D7852;" width="6.105" height="9.87"/>
</g>
<rect x="57.09" y="202.091" style="fill:#AF8665;" width="33.085" height="4.837"/>
<g>
	<rect x="55.022" y="268.587" style="fill:#866746;" width="37.221" height="6.877"/>
	<rect x="55.022" y="219.697" style="fill:#866746;" width="37.221" height="6.877"/>
	<rect x="55.022" y="317.477" style="fill:#866746;" width="37.221" height="6.877"/>
</g>
<path style="fill:#AF8665;" d="M295.234,110.737c-19.149-8.242-30.574-19.5-35.802-25.66V42.021h-6.871v43.064  c-5.231,6.162-16.654,17.413-35.795,25.652c-27.684,11.917-33.892,36.451-33.892,70.798v10.69h146.25v-10.69  C329.125,147.187,322.918,122.654,295.234,110.737z"/>
<path style="fill:#9D7852;" d="M329.125,181.535c0-34.347-6.207-58.882-33.891-70.798c-19.149-8.242-30.574-19.5-35.802-25.66  V42.021h-3.432v150.205h73.125V181.535z"/>
<path style="fill:#866746;" d="M161.531,199.727c-5.781-2.489-9.69-5.703-12.034-8.08v-33.999h-5.531v33.999  c-2.344,2.377-6.253,5.591-12.034,8.08c-10.443,4.495-12.784,13.75-12.784,26.706v4.032h55.167v-4.032  C174.314,213.477,171.973,204.222,161.531,199.727z"/>
<rect x="119.148" y="226.437" style="fill:#DAC8B8;" width="55.167" height="29.791"/>
<g>
	<rect x="141.644" y="239.769" style="fill:#9D7852;" width="10.18" height="16.458"/>
	<rect x="126.117" y="239.769" style="fill:#9D7852;" width="10.18" height="16.458"/>
	<rect x="157.161" y="239.769" style="fill:#9D7852;" width="10.18" height="16.458"/>
</g>
<rect x="119.148" y="226.437" style="fill:#AF8665;" width="55.167" height="8.064"/>
<path style="fill:#715538;" d="M380.069,199.727c-5.781-2.489-9.69-5.703-12.034-8.08v-33.999h-5.532v33.999  c-2.344,2.377-6.253,5.591-12.034,8.08c-10.443,4.495-12.784,13.75-12.784,26.706v4.032h55.167v-4.032  C392.853,213.477,390.511,204.222,380.069,199.727z"/>
<rect x="337.685" y="226.437" style="fill:#C4A98E;" width="55.167" height="29.791"/>
<g>
	<rect x="360.182" y="239.769" style="fill:#866746;" width="10.18" height="16.458"/>
	<rect x="344.655" y="239.769" style="fill:#866746;" width="10.18" height="16.458"/>
	<rect x="375.698" y="239.769" style="fill:#866746;" width="10.18" height="16.458"/>
</g>
<rect x="109.337" y="254.68" style="fill:#C4A98E;" width="293.32" height="121.75"/>
<rect x="255.996" y="254.68" style="fill:#AF8665;" width="146.66" height="121.75"/>
<rect x="109.337" y="254.68" style="fill:#866746;" width="293.32" height="4.938"/>
<rect x="255.996" y="254.68" style="fill:#715538;" width="146.66" height="4.938"/>
<rect x="190.169" y="191.924" style="fill:#DAC8B8;" width="131.655" height="184.505"/>
<g>
	<rect x="255.996" y="191.924" style="fill:#C4A98E;" width="65.828" height="184.505"/>
	<path style="fill:#C4A98E;" d="M279.471,273.929c-15.886-7.424-23.47-22.273-23.47-22.273s-7.584,14.849-23.47,22.273   c-15.234,7.12-13.891,22.632-13.891,38.918s0,63.577,0,63.577h74.722c0,0,0-47.291,0-63.577   C293.361,296.561,294.705,281.047,279.471,273.929z"/>
</g>
<g>
	<path style="fill:#9D7852;" d="M279.471,273.929c-15.886-7.424-23.47-22.273-23.47-22.273v124.767h37.361c0,0,0-47.291,0-63.577   S294.705,281.047,279.471,273.929z"/>
	<path style="fill:#9D7852;" d="M154.443,278.61c-5.22-2.44-7.713-7.319-7.713-7.319s-2.492,4.88-7.713,7.319   c-5.006,2.34-4.565,7.438-4.565,12.789c0,5.352,0,16.527,0,16.527h24.556c0,0,0-11.175,0-16.527   C159.008,286.047,159.45,280.949,154.443,278.61z"/>
	<path style="fill:#9D7852;" d="M154.443,329.508c-5.22-2.44-7.713-7.319-7.713-7.319s-2.492,4.88-7.713,7.319   c-5.006,2.34-4.565,7.438-4.565,12.789s0,16.527,0,16.527h24.556c0,0,0-11.175,0-16.527S159.45,331.848,154.443,329.508z"/>
</g>
<g>
	<path style="fill:#866746;" d="M372.982,278.61c-5.22-2.44-7.713-7.319-7.713-7.319s-2.492,4.88-7.713,7.319   c-5.006,2.34-4.565,7.438-4.565,12.789c0,5.352,0,16.527,0,16.527h24.556c0,0,0-11.175,0-16.527   C377.548,286.047,377.989,280.949,372.982,278.61z"/>
	<path style="fill:#866746;" d="M372.982,329.508c-5.22-2.44-7.713-7.319-7.713-7.319s-2.492,4.88-7.713,7.319   c-5.006,2.34-4.565,7.438-4.565,12.789s0,16.527,0,16.527h24.556c0,0,0-11.175,0-16.527S377.989,331.848,372.982,329.508z"/>
	<rect x="182.875" y="215.256" style="fill:#866746;" width="146.252" height="7.553"/>
</g>
<rect x="255.996" y="215.256" style="fill:#715538;" width="73.125" height="7.553"/>
<rect x="182.875" y="188.528" style="fill:#866746;" width="146.252" height="12.134"/>
<rect x="255.996" y="188.528" style="fill:#715538;" width="73.125" height="12.134"/>
<rect x="337.685" y="226.437" style="fill:#9D7852;" width="55.167" height="8.064"/>
<path style="fill:#00B764;" d="M255.999,512c92.101,0,172.83-48.647,217.928-121.637H38.071C83.17,463.353,163.898,512,255.999,512z  "/>
<g>
	<rect x="92.242" y="408.11" style="fill:#008849;" width="68.262" height="12.809"/>
	<rect x="183.952" y="420.921" style="fill:#008849;" width="49.611" height="12.808"/>
	<rect x="154.893" y="449.038" style="fill:#008849;" width="49.611" height="12.808"/>
	<path style="fill:#008849;" d="M473.931,390.362c-0.251,0.408-0.502,0.815-0.763,1.212   c-45.233,72.327-125.574,120.423-217.168,120.423V390.362H473.931z"/>
</g>
<g>
	<rect x="351.749" y="408.11" style="fill:#007539;" width="68.262" height="12.809"/>
	<rect x="305.221" y="456.499" style="fill:#007539;" width="49.611" height="12.808"/>
	<rect x="284.438" y="422.885" style="fill:#007539;" width="49.611" height="12.808"/>
</g>
<path style="fill:#AF8665;" d="M29.208,374.856h453.584c-2.999,5.705-6.196,11.274-9.602,16.718H38.81L29.208,374.856z"/>
<path style="fill:#9D7852;" d="M482.791,374.856c-2.779,5.287-5.726,10.449-8.861,15.506c-0.24,0.408-0.491,0.815-0.742,1.212  H255.999v-16.718H482.791z"/>
<g>
</g>
<g>
</g>
<g>
</g>
<g>
</g>
<g>
</g>
<g>
</g>
<g>
</g>
<g>
</g>
<g>
</g>
<g>
</g>
<g>
</g>
<g>
</g>
<g>
</g>
<g>
</g>
<g>
</g>
</svg>
