<svg id="Capa_1" enable-background="new 0 0 512 512" height="512" viewBox="0 0 512 512" width="512" xmlns="http://www.w3.org/2000/svg"><path d="m408 220h96v208h-96z" fill="#e6d7b9"/><path d="m464 220h16v208h-16z" fill="#fff"/><path d="m432 220h16v208h-16z" fill="#fff"/><path d="m504 436h-96c-4.418 0-8-3.582-8-8v-208c0-4.418 3.582-8 8-8h96c4.418 0 8 3.582 8 8v208c0 4.418-3.582 8-8 8zm-88-16h80v-192h-80z" fill="#beaa96"/><path d="m376 276h80v152h-80z" fill="#afc4c8"/><path d="m376 300h80v16h-80z" fill="#e6d7b9"/><path d="m376 364h80v16h-80z" fill="#e6d7b9"/><path d="m376 332h80v16h-80z" fill="#e6d7b9"/><path d="m376 396h80v16h-80z" fill="#e6d7b9"/><path d="m456 436h-80c-4.418 0-8-3.582-8-8v-152c0-4.418 3.582-8 8-8h80c4.418 0 8 3.582 8 8v152c0 4.418-3.582 8-8 8zm-72-16h64v-136h-64z" fill="#698296"/><path d="m8 196h96v232h-96z" fill="#e6d7b9"/><path d="m32 196h16v232h-16z" fill="#afc4c8"/><path d="m64 196h16v232h-16z" fill="#afc4c8"/><path d="m104 436h-96c-4.418 0-8-3.582-8-8v-232c0-4.418 3.582-8 8-8h96c4.418 0 8 3.582 8 8v232c0 4.418-3.582 8-8 8zm-88-16h80v-216h-80z" fill="#beaa96"/><path d="m288 164h88v264h-88z" fill="#e6d7b9"/><path d="m288 188h88v16h-88z" fill="#afc4c8"/><path d="m288 220h88v16h-88z" fill="#afc4c8"/><path d="m288 252h88v16h-88z" fill="#afc4c8"/><path d="m288 284h88v16h-88z" fill="#afc4c8"/><path d="m288 316h88v16h-88z" fill="#afc4c8"/><path d="m288 380h88v16h-88z" fill="#afc4c8"/><path d="m288 348h88v16h-88z" fill="#afc4c8"/><path d="m376 436h-88c-4.418 0-8-3.582-8-8v-264c0-4.418 3.582-8 8-8h88c4.418 0 8 3.582 8 8v264c0 4.418-3.582 8-8 8zm-80-16h72v-248h-72z" fill="#beaa96"/><path d="m72 228h64v200h-64z" fill="#d2e1e1"/><path d="m72 436c-4.418 0-8-3.582-8-8v-200c0-4.418 3.582-8 8-8h64c4.418 0 8 3.582 8 8s-3.582 8-8 8h-56v192c0 4.418-3.582 8-8 8z" fill="#afc4c8"/><path d="m208 44c-4.418 0-8 3.582-8 8v64h16v-64c0-4.418-3.582-8-8-8z" fill="#d2e1e1"/><path d="m240 68c-4.418 0-8 3.582-8 8v40h16v-40c0-4.418-3.582-8-8-8z" fill="#d2e1e1"/><path d="m256 196h64v232h-64z" fill="#d2e1e1"/><path d="m136 164h56v272h-56z" fill="#e6d7b9"/><path d="m136 188h56v16h-56z" fill="#fff"/><path d="m136 220h56v16h-56z" fill="#fff"/><path d="m136 252h56v16h-56z" fill="#fff"/><path d="m136 284h56v16h-56z" fill="#fff"/><path d="m136 316h56v16h-56z" fill="#fff"/><path d="m136 380h56v16h-56z" fill="#fff"/><path d="m136 348h56v16h-56z" fill="#fff"/><path d="m192 156h-56c-4.418 0-8 3.582-8 8v88h-24c-4.418 0-8 3.582-8 8s3.582 8 8 8h24v16h-24c-4.418 0-8 3.582-8 8s3.582 8 8 8h24v16h-24c-4.418 0-8 3.582-8 8 0 4.418 3.582 8 8 8h24v16h-24c-4.418 0-8 3.582-8 8s3.582 8 8 8h24v16h-24c-4.418 0-8 3.582-8 8s3.582 8 8 8h24v32c0 4.418 3.582 8 8 8s8-3.582 8-8v-256h48c4.418 0 8-3.582 8-8s-3.582-8-8-8z" fill="#beaa96"/><path d="m320 188h-64c-4.418 0-8 3.582-8 8s3.582 8 8 8h24v224h16v-224h16v224c0 4.418 3.582 8 8 8s8-3.582 8-8v-232c0-4.418-3.582-8-8-8z" fill="#afc4c8"/><path d="m192 116h64v312h-64z" fill="#afc4c8"/><g fill="#fff"><path d="m192 140h64v16h-64z"/><path d="m192 172h64v16h-64z"/><path d="m192 204h64v16h-64z"/><path d="m192 236h64v16h-64z"/><path d="m192 268h64v16h-64z"/><path d="m192 300h64v16h-64z"/><path d="m192 332h64v16h-64z"/><path d="m192 396h64v32h-64z"/><path d="m192 364h64v16h-64z"/></g><path d="m56 444c0 13.255 10.745 24 24 24h352c13.255 0 24-10.745 24-24z" fill="#d2e1e1"/><path d="m496 452h-480c-8.837 0-16-7.163-16-16l8-8h487.667l16.333 8c0 8.836-7.164 16-16 16z" fill="#a7c5c9"/><path d="m512 364v-16h-248v-232c0-4.418-3.582-8-8-8h-64c-4.418 0-8 3.582-8 8v312c0 4.418 3.582 8 8 8h64c4.418 0 8-3.582 8-8v-64h28.688l19.312 19.312v44.688c0 4.418 3.582 8 8 8s8-3.582 8-8v-44.688l19.312-19.312h49.375l19.313 19.312v44.688c0 4.418 3.582 8 8 8s8-3.582 8-8v-44.688l19.312-19.312zm-264 56h-48v-296h48z" fill="#698296"/><path d="m0 420h512v16h-512z" fill="#29294b"/></svg>