<svg id="Capa_1" enable-background="new 0 0 512 512" height="512" viewBox="0 0 512 512" width="512" xmlns="http://www.w3.org/2000/svg"><path d="m464 188v-56c0-4.418-3.582-8-8-8h-32c-4.418 0-8 3.582-8 8v16c0 4.418-3.582 8-8 8-4.418 0-8-3.582-8-8v-32c0-4.418-3.582-8-8-8h-48c-4.418 0-8 3.582-8 8v32c0 4.418-3.582 8-8 8h-32c-4.418 0-8-3.582-8-8v-24c0-4.418-3.582-8-8-8h-16c-4.418 0-8-3.582-8-8v-32c0-4.418-3.582-8-8-8h-64c-4.418 0-8 3.582-8 8v104c0 4.418-3.582 8-8 8h-16c-4.418 0-8-3.582-8-8v-16c0-4.418-3.582-8-8-8-4.418 0-8-3.582-8-8v-20.456c0-5.586-5.579-9.452-10.809-7.491l-48 18c-3.122 1.171-5.191 4.156-5.191 7.491v50.456c0 4.418-3.582 8-8 8h-40c-8.837 0-16 7.163-16 16v128l32.333 16h466.667l13-16v-144c0-8.837-7.163-16-16-16z" fill="#cdf0ff"/><path d="m488 236h-128c-4.418 0-8 3.582-8 8v112c0 4.418 3.582 8 8 8h128c4.418 0 8-3.582 8-8v-112c0-4.418-3.582-8-8-8zm-88 64h-32v-16h32zm0-48v16h-32v-16zm-32 96v-32h32v32zm112 0h-64v-96h64z" fill="#a7c5c9"/><path d="m112 292h40v16h-40z" fill="#a7c5c9"/><path d="m15.996 364c-1.918 0-3.844-.688-5.379-2.08-3.27-2.973-3.508-8.031-.535-11.301l75.238-82.764c4.539-4.992 11.012-7.855 17.758-7.855h48.922c4.418 0 8 3.582 8 8s-3.582 8-8 8h-48.922c-2.25 0-4.406.955-5.922 2.617l-75.238 82.764c-1.578 1.736-3.746 2.619-5.922 2.619z" fill="#afc4c8"/><path d="m104 252v80h16v-80c0-4.418 3.582-8 8-8h8c4.418 0 8 3.582 8 8v80h16v-80c0-13.255-10.745-24-24-24h-8c-13.255 0-24 10.745-24 24z" fill="#5d8398"/><path d="m232 196h16v112h-16z" fill="#afc4c8"/><path d="m264 196h16v112h-16z" fill="#afc4c8"/><path d="m336 380h-160c-2.309 0-4.508-.998-6.027-2.738-1.52-1.742-2.211-4.053-1.898-6.342l22.113-162.162c1.613-11.834 11.835-20.758 23.777-20.758h84.07c11.941 0 22.164 8.924 23.777 20.756l22.113 162.164c.313 2.289-.379 4.6-1.898 6.342-1.519 1.74-3.719 2.738-6.027 2.738zm-150.836-16h141.672l-20.875-153.082c-.539-3.943-3.945-6.918-7.926-6.918h-84.07c-3.98 0-7.387 2.975-7.926 6.92z" fill="#698296"/><path d="m0 364v-16h40.489c10.15 0 20.108-2.758 28.812-7.98l13.399-8.039c8.703-5.222 18.662-7.98 28.812-7.98h77.188c7.235 0 14.174 2.874 19.29 7.99l.02.02c5.116 5.116 12.055 7.99 19.29 7.99h33.227c12.898 0 25.711-2.079 37.947-6.158l11.052-3.684c12.236-4.079 25.049-6.158 37.947-6.158h31.753c13.662 0 27.135 3.181 39.355 9.29l10.838 5.419c12.219 6.11 25.693 9.29 39.355 9.29h43.226v16l-15 7h-486.383z" fill="#8cbe69"/><path d="m56 420c0 13.255 10.745 24 24 24h352c13.255 0 24-10.745 24-24z" fill="#6ea573"/><path d="m496 428h-480c-8.837 0-16-7.163-16-16l9.5-7.667h490.833l11.667 7.667c0 8.836-7.164 16-16 16z" fill="#3c7864"/><path d="m0 396 14-6h482.333l15.667 6v16h-512z" fill="#ffa573"/><path d="m0 380 12.333-5.667h488.667l11 5.667v16h-512z" fill="#ff6e64"/><path d="m411.562 364c-5.543-9.525-15.748-16-27.562-16-2.472 0-4.852.341-7.163.871-6.841-5.467-15.399-8.871-24.837-8.871-10.5 0-19.977 4.132-27.113 10.749-3.949-1.743-8.293-2.749-12.887-2.749-11.814 0-22.019 6.475-27.562 16h-103.815c-6.177-14.115-20.229-24-36.623-24-10.5 0-19.977 4.132-27.113 10.749-3.949-1.743-8.293-2.749-12.887-2.749-11.814 0-22.019 6.475-27.562 16h-76.438v16h512v-16z" fill="#6ea573"/><path d="m280 316h-48c-4.418 0-8-3.582-8-8s3.582-8 8-8h48c4.418 0 8 3.582 8 8s-3.582 8-8 8z" fill="#698296"/><circle cx="152" cy="364" fill="#8cbe69" r="8"/><circle cx="360" cy="356" fill="#8cbe69" r="8"/><circle cx="312" cy="364" fill="#3c7864" r="8"/></svg>