<?xml version="1.0" encoding="iso-8859-1"?>
<!-- Generator: Adobe Illustrator 19.0.0, SVG Export Plug-In . SVG Version: 6.00 Build 0)  -->
<svg xmlns="http://www.w3.org/2000/svg" xmlns:xlink="http://www.w3.org/1999/xlink" version="1.1" id="Layer_1" x="0px" y="0px" viewBox="0 0 512 512" style="enable-background:new 0 0 512 512;" xml:space="preserve">
<circle style="fill:#A3D9F6;" cx="256" cy="255.996" r="255.996"/>
<path style="fill:#7FC8F1;" d="M511.832,264.928L331.276,84.372h-21.607c-1.378-1.887-2.962-3.431-4.795-4.695  c-7.49-10.631-21.087-10.712-48.868-10.712c-0.001,0-0.002,0-0.003,0c-0.001,0-0.002,0-0.002,0  c-31.392,0-44.681,0.092-51.502,15.407H180.34v32.761l14.267,10.034c-1.587,8.215-3.299,17.258-5.048,26.63l-20.489-20.286  c-1.872-3.692-5.699-6.242-10.102-6.242H97.199c-6.231,0-11.328,5.097-11.328,11.328c0,2.914,1.124,5.571,2.949,7.584H61.957  c-6.231,0-11.328,5.097-11.328,11.328c0,4.402,2.552,8.229,6.243,10.102l121.267,121.839  c-10.482,13.686-16.734,30.761-16.734,49.231v53.126l119.029,119.028C407.44,498.806,507.406,394.002,511.832,264.928z"/>
<g>
	<path style="fill:#FFFFFF;" d="M61.957,146.18H88.82c-1.824-2.012-2.949-4.67-2.949-7.584c0-6.231,5.098-11.328,11.328-11.328   h61.769c6.231,0,11.328,5.097,11.328,11.328s-5.097,11.328-11.328,11.328h-26.863c1.824,2.012,2.949,4.67,2.949,7.584l0,0   c0,6.231-5.097,11.328-11.328,11.328H61.957c-6.231,0-11.328-5.097-11.328-11.328l0,0C50.629,151.278,55.727,146.18,61.957,146.18z   "/>
	<path style="fill:#FFFFFF;" d="M462.133,252.167h-25.61c1.74-1.919,2.812-4.452,2.812-7.231c0-5.94-4.86-10.799-10.8-10.799   h-58.889c-5.94,0-10.8,4.86-10.8,10.799s4.86,10.799,10.8,10.799h25.61c-1.74,1.918-2.812,4.452-2.812,7.231l0,0   c0,5.94,4.86,10.8,10.8,10.8h58.889c5.939,0,10.8-4.86,10.8-10.8l0,0C472.932,257.027,468.073,252.167,462.133,252.167z"/>
</g>
<path style="fill:#57555C;" d="M350.602,338.678c0-44.69-36.565-81.254-81.254-81.254H242.66c-44.69,0-81.254,36.565-81.254,81.254  v53.126h189.196V338.678z"/>
<path style="fill:#3C3B41;" d="M350.602,338.678c0-44.69-36.565-81.254-81.254-81.254h-13.343v134.38h94.597L350.602,338.678  L350.602,338.678z"/>
<path style="fill:#87858E;" d="M340.247,253.787c-1.677-12.212-24.078-137.29-29.948-161.004  c-5.87-23.713-17.958-23.818-54.292-23.818l0,0c-0.001,0-0.002,0-0.003,0c-0.001,0-0.002,0-0.002,0H256  c-36.334,0-48.423,0.106-54.293,23.818c-5.87,23.714-28.271,148.792-29.948,161.004c-1.677,12.21-14.706,49.091,84.242,49.092l0,0  c0.001,0,0.002,0,0.002,0c0.001,0,0.002,0,0.002,0l0,0C354.954,302.878,341.924,265.998,340.247,253.787z"/>
<path style="fill:#78777F;" d="M340.247,253.787c-1.677-12.212-24.078-137.29-29.948-161.004  c-5.87-23.713-17.958-23.818-54.292-23.818c-0.001,0-0.002,0-0.003,0l0,0v233.914c0.001,0,0.002,0,0.002,0  C354.954,302.878,341.924,265.998,340.247,253.787z"/>
<g>
	<rect x="207.611" y="140.61" style="fill:#57555C;" width="35.122" height="15.218"/>
	<polygon style="fill:#57555C;" points="304.375,140.607 256.004,140.607 263.608,208.787 233.182,208.787 233.182,226.338    278.825,226.338 278.825,208.787 271.222,155.826 304.375,155.826  "/>
	<path style="fill:#57555C;" d="M256.004,247.009c-14.124,0-27.296,2.977-37.088,8.383l4.523,8.195   c8.309-4.586,20.179-7.217,32.565-7.217c12.386,0,24.256,2.631,32.565,7.217l4.523-8.195   C283.3,249.986,270.128,247.009,256.004,247.009z"/>
</g>
<path style="fill:#3C3B41;" d="M293.092,255.392c-9.793-5.406-22.964-8.383-37.088-8.383v9.36c12.386,0,24.256,2.631,32.565,7.217  L293.092,255.392z"/>
<rect x="180.34" y="84.374" style="fill:#57555C;" width="150.933" height="32.761"/>
<g>
	<rect x="256" y="84.374" style="fill:#3C3B41;" width="75.273" height="32.761"/>
	<polygon style="fill:#3C3B41;" points="304.375,140.607 256.004,140.607 263.608,208.787 256.004,208.787 256.004,226.338    278.825,226.338 278.825,208.787 271.222,155.826 304.375,155.826  "/>
</g>
<path style="fill:#00B764;" d="M256.004,512c92.101,0,172.83-48.647,217.928-121.637H38.075C83.173,463.353,163.902,512,256.004,512  z"/>
<g>
	<rect x="98.944" y="422.216" style="fill:#008849;" width="68.262" height="12.809"/>
	<rect x="194.624" y="439.77" style="fill:#008849;" width="49.611" height="12.808"/>
	<rect x="177.205" y="401.465" style="fill:#008849;" width="49.611" height="12.808"/>
	<rect x="169.818" y="467.512" style="fill:#008849;" width="49.611" height="12.808"/>
</g>
<path style="fill:#00884A;" d="M473.935,390.362c-0.888,1.431-1.776,2.842-2.696,4.253c-0.408,0.658-0.836,1.306-1.275,1.954  c-0.439,0.679-0.888,1.348-1.337,2.017c-0.543,0.805-1.087,1.609-1.64,2.414c-0.637,0.919-1.275,1.839-1.923,2.758  c-1.139,1.588-2.288,3.176-3.448,4.744c-0.136,0.188-0.282,0.376-0.418,0.564c-0.554,0.731-1.108,1.463-1.661,2.194  c-46.759,61.23-120.527,100.737-203.533,100.737V390.362L473.935,390.362L473.935,390.362z"/>
<g>
	<rect x="347.626" y="422.216" style="fill:#007539;" width="68.262" height="12.809"/>
	<rect x="294.253" y="464.2" style="fill:#007539;" width="49.611" height="12.808"/>
	<rect x="271.997" y="436.991" style="fill:#007539;" width="49.611" height="12.808"/>
	<rect x="302.999" y="399.72" style="fill:#007539;" width="49.611" height="12.808"/>
</g>
<g>
</g>
<g>
</g>
<g>
</g>
<g>
</g>
<g>
</g>
<g>
</g>
<g>
</g>
<g>
</g>
<g>
</g>
<g>
</g>
<g>
</g>
<g>
</g>
<g>
</g>
<g>
</g>
<g>
</g>
</svg>
