<svg id="Capa_1" enable-background="new 0 0 512 512" height="512" viewBox="0 0 512 512" width="512" xmlns="http://www.w3.org/2000/svg"><g fill="#fceb9b"><path d="m224 132h-16c-8.837 0-16-7.163-16-16 0-8.837 7.163-16 16-16h16c8.837 0 16 7.163 16 16 0 8.837-7.164 16-16 16z"/><path d="m328 132h-56c-8.837 0-16-7.163-16-16 0-8.837 7.163-16 16-16h56c8.837 0 16 7.163 16 16 0 8.837-7.164 16-16 16z"/><path d="m440 132h-24c-8.837 0-16-7.163-16-16 0-8.837 7.163-16 16-16h24c8.837 0 16 7.163 16 16 0 8.837-7.164 16-16 16z"/><path d="m8 220h8c4.418 0 8-3.582 8-8v-32c0-4.418 3.582-8 8-8h16c4.418 0 8 3.582 8 8v16h16v-48c0-4.418 3.582-8 8-8h32c4.418 0 8 3.582 8 8v40h104c4.418 0 8-3.582 8-8v-16c0-4.418 3.582-8 8-8h8c4.418 0 8 3.582 8 8 0 4.418 3.582 8 8 8h80v-32h32c4.418 0 8 3.582 8 8 0 4.418 3.582 8 8 8h16c4.418 0 8 3.582 8 8v32h40c4.418 0 8-3.582 8-8v-16c0-4.418 3.582-8 8-8h16c4.418 0 8 3.582 8 8v40c0 4.418 3.582 8 8 8 4.418 0 8 3.582 8 8v73.327l-27 46.673h-424l-61-92.009v-27.991c0-4.418 3.582-8 8-8z"/></g><path d="m448 248v-24c0-6.627-5.373-12-12-12h-20v112h56v-52c0-6.627-5.373-12-12-12-6.628 0-12-5.373-12-12z" fill="#d2be55"/><path d="m216 208v-24c0-6.627-5.373-12-12-12h-20v112h56v-52c0-6.627-5.373-12-12-12-6.628 0-12-5.373-12-12z" fill="#d2be55"/><path d="m416 180h-32c-4.418 0-8 3.582-8 8v24c0 8.836-7.164 16-16 16s-16-7.164-16-16v-96c0-4.418-3.582-8-8-8h-32c-4.418 0-8 3.582-8 8v24c0 4.418-3.582 8-8 8s-8 3.582-8 8v144h144v-112c0-4.419-3.582-8-8-8z" fill="#fad487"/><path d="m200 196h-16c-4.418 0-8-3.582-8-8v-48c0-4.418-3.582-8-8-8h-16c-4.418 0-8 3.582-8 8v16c0 4.418-3.582 8-8 8h-16c-4.418 0-8 3.582-8 8v48c0 4.418-3.582 8-8 8h-16c-4.418 0-8-3.582-8-8v-16c0-4.418-3.582-8-8-8h-16c-4.418 0-8 3.582-8 8v72h160v-72c0-4.419-3.582-8-8-8z" fill="#fad487"/><path d="m208 276c-4.418 0-8-3.578-8-8v-56c0-4.414-3.59-8-8-8h-8c-8.824 0-16-7.18-16-16v-48h-16v16c0 8.82-7.176 16-16 16h-16v48c0 8.82-7.176 16-16 16h-16c-8.824 0-16-7.18-16-16v-16h-16v64c0 4.422-3.582 8-8 8s-8-3.578-8-8v-64c0-8.82 7.176-16 16-16h16c8.824 0 16 7.18 16 16v16h16v-48c0-8.82 7.176-16 16-16h16v-16c0-8.82 7.176-16 16-16h16c8.824 0 16 7.18 16 16v48h8c13.234 0 24 10.766 24 24v56c0 4.422-3.582 8-8 8z" fill="#d2be55"/><path d="m424 297.156c-4.418 0-8-3.578-8-8v-101.156h-32v24c0 13.234-10.766 24-24 24s-24-10.766-24-24v-96h-32v24c0 8.82-7.176 16-16 16v104.984c0 4.422-3.582 8-8 8s-8-3.578-8-8v-104.984c0-8.82 7.176-16 16-16v-24c0-8.82 7.176-16 16-16h32c8.824 0 16 7.18 16 16v96c0 4.414 3.59 8 8 8s8-3.586 8-8v-24c0-8.82 7.176-16 16-16h32c8.824 0 16 7.18 16 16v101.156c0 4.422-3.582 8-8 8z" fill="#d2be55"/><path d="m92.662 257.669-36.662 18.331 32 16 104-16 16-8-58.512-15.958c-18.99-5.179-39.221-3.175-56.826 5.627z" fill="#d2e673"/><path d="m469.868 290.934c-18.943-9.472-41.095-10.123-60.561-1.78l-25.307 10.846 40 16h40l40-8z" fill="#d2e673"/><path d="m0 364 10.333 5.667h480l21.667-5.667v-30.156l-40.645-17c-25.546 4.645-51.909.878-75.132-10.733l-70.395-35.197c-24.481-12.241-52.411-15.745-79.157-9.93l-114.308 24.85c-18.641 4.052-37.979 3.602-56.411-1.313l-75.952 4.582z" fill="#d2be55"/><path d="m512 317.581-40.645-.737c-25.546 4.645-51.909.878-75.132-10.733l-70.395-35.197c-24.481-12.241-52.411-15.745-79.157-9.93l-114.308 24.85c-18.641 4.052-37.979 3.602-56.411-1.313l-75.952-11.977v16.56l69.77 18.607c22.008 5.867 45.414 6.406 67.691 1.578l114.309-24.852c21.316-4.648 43.812-1.82 63.324 7.945l70.391 35.187c20.016 10.016 42.293 15.18 64.613 15.18 8.551 0 17.113-.758 25.551-2.297l36.351-6.608z" fill="#d2e673"/><path d="m213.658 325.326c-13.647-10.918-31.609-14.838-48.565-10.6l-90.071 22.518c-7.13 1.783-13.429 5.965-17.839 11.845l-7.583 10.111c-6.043 8.058-15.528 12.8-25.6 12.8h267.643c-12.716 0-25.053-4.328-34.983-12.271z" fill="#9b784b"/><path d="m256.661 359.728-43.003-34.402c-13.647-10.918-31.609-14.838-48.565-10.6l-90.071 22.518c-7.13 1.783-13.429 5.965-17.839 11.845l-7.583 10.111c-6.043 8.058-15.528 12.8-25.6 12.8h46.003l6.376-8.508c1.102-1.469 2.687-2.523 4.465-2.969l90.074-22.516c9.617-2.406 19.988-.141 27.746 6.063l34.914 27.93h58.066c-12.716 0-25.054-4.328-34.983-12.272z" fill="#d2be55"/><path d="m339.57 332.387c-12.606-5.402-26.757-5.991-39.769-1.654l-51.801 17.267v24h198.778c-9.75 0-19.399-1.98-28.362-5.822z" fill="#9b784b"/><path d="m418.416 366.178-78.847-33.792c-12.606-5.402-26.757-5.991-39.769-1.654l-51.8 17.268v23.899c2.518-.001 5.068-.29 7.59-1.134l51.797-17.266c7.453-2.469 15.527-2.141 22.73.953l40.95 17.548h75.711c-9.75 0-19.399-1.981-28.362-5.822z" fill="#d2be55"/><path d="m48 388c0 13.255 10.745 24 24 24h368c13.255 0 24-10.745 24-24z" fill="#d2be55"/><path d="m496 396h-480c-8.837 0-16-7.163-16-16l13-6.333h488.667l10.333 6.333c0 8.836-7.164 16-16 16z" fill="#9b784b"/><path d="m446.777 364c-8.707 0-17.191-1.742-25.207-5.172l-78.848-33.789c-14.418-6.172-30.551-6.875-45.453-1.891l-51.801 17.266c-.034.011-.064.026-.098.038l-26.715-21.366c-15.504-12.422-36.25-16.953-55.504-12.117l-90.066 22.516c-8.879 2.211-16.801 7.469-22.305 14.805l-7.578 10.109c-4.507 6.015-11.686 9.601-19.202 9.601h-24v16h512v-16zm-383.195-10.11c3.301-4.398 8.055-7.555 13.383-8.891l90.07-22.516c14.43-3.602 30-.219 41.625 9.094l40.529 32.423h-193.185zm228.062 10.11c-10.859 0-21.508-3.734-29.988-10.523l-1.411-1.129 42.083-14.028c11.172-3.703 23.281-3.211 34.09 1.422l56.609 24.258h-81.027z" fill="#2d2d4b"/><circle cx="32" cy="324" fill="#d2e673" r="8"/><circle cx="248" cy="316" fill="#9b784b" r="8"/><circle cx="288" cy="300" fill="#d2e673" r="8"/><path d="m208 236h-16c-13.234 0-24-10.766-24-24v-16c0-4.418 3.582-8 8-8s8 3.582 8 8v16c0 4.412 3.59 8 8 8h16c4.418 0 8 3.582 8 8s-3.582 8-8 8z" fill="#9b784b"/><path d="m507.578 300.844-34.133-17.063c-21.09-10.547-45.613-11.266-67.293-1.977l-6.152 2.637v-32.441c0-4.418-3.582-8-8-8s-8 3.582-8 8v39.053l-32-15.999v-39.054h8c13.234 0 24-10.766 24-24v-24c0-4.418-3.582-8-8-8s-8 3.582-8 8v24c0 4.412-3.59 8-8 8h-8v-48c0-4.418-3.582-8-8-8s-8 3.582-8 8v56h-8c-4.41 0-8-3.588-8-8v-24c0-4.418-3.582-8-8-8s-8 3.582-8 8v24c0 13.234 10.766 24 24 24h8v23.054l-6.594-3.297c-26.012-13.008-55.996-16.75-84.434-10.594l-28.972 6.3v-95.463c0-4.418-3.582-8-8-8s-8 3.582-8 8v93.525l-48.41-13.205c-10.381-2.834-21.077-3.712-31.59-2.698v-21.622c0-4.418-3.582-8-8-8s-8 3.582-8 8v24.682c-5.104 1.478-10.098 3.424-14.918 5.834l-38.267 19.027-50.815-13.552v16.553l73.891 19.706c19.555 5.219 40.367 5.703 60.172 1.406l114.309-24.852c24.879-5.43 51.113-2.117 73.879 9.266l70.394 35.195c17.789 8.898 37.59 13.492 57.43 13.492 7.602 0 15.211-.68 22.711-2.047l39.214-7.129v-16.254s-3.895-.219-4.422-.483zm-376.91-22.828c-17.328 3.758-35.539 3.328-52.652-1.219l-3.729-.994 21.951-10.975c15.859-7.938 34.023-9.727 51.145-5.07l29.833 8.138zm339.254 30.96c-22.467 4.053-45.994 1.01-66.73-8.498l9.266-3.971c17.344-7.43 36.961-6.859 53.832 1.586l16.934 8.465z" fill="#9b784b"/></svg>