<svg id="Capa_1" enable-background="new 0 0 512 512" height="512" viewBox="0 0 512 512" width="512" xmlns="http://www.w3.org/2000/svg"><path d="m144 231h304v41h-304z" fill="#a7d9ff"/><path d="m496 224h-480v-72c0-39.764 32.235-72 72-72h336c39.764 0 72 32.235 72 72z" fill="#c8f5f0"/><g fill="#6ea573"><circle cx="208" cy="144" r="24"/><circle cx="472" cy="176" r="24"/><circle cx="56" cy="200" r="24"/><circle cx="240" cy="152" r="16"/></g><path d="m392 184h-99.889c-7.897 0-15.617-2.338-22.188-6.718l-23.815-15.877c-9.199-6.133-20.008-9.405-31.064-9.405h-74.003c-13.564 0-26.668 4.923-36.876 13.856l-36.854 32.247c-7.292 6.38-16.651 9.897-26.34 9.897l-40.971 8v24l24 8 109.667-17.667 106.333 9.667h160z" fill="#8cbe69"/><path d="m392 184h-99.889c-7.897 0-15.617-2.337-22.188-6.718l-23.815-15.876c-9.199-6.134-20.008-9.406-31.064-9.406h-74.003c-13.564 0-26.668 4.923-36.876 13.855l-36.854 32.248c-7.292 6.38-16.651 9.897-26.34 9.897l-.002 24c15.512 0 30.48-5.625 42.148-15.836l36.855-32.242c5.832-5.109 13.316-7.922 21.07-7.922h74c6.34 0 12.48 1.859 17.754 5.375l23.809 15.875c10.543 7.031 22.82 10.75 35.504 10.75h99.891c1.158 0 2.266-.182 3.38-.34z" fill="#aad264"/><path d="m40.969 216h-40.969c0-8.837 7.163-16 16-16h24.969c7.749 0 15.234-2.812 21.066-7.915l36.86-32.25c11.668-10.208 26.645-15.835 42.148-15.835h74c12.636 0 24.989 3.74 35.503 10.749l23.813 15.876c5.257 3.505 11.434 5.375 17.752 5.375h99.889v16h-99.887c-9.477 0-18.743-2.805-26.629-8.063l-23.812-15.875c-7.886-5.257-17.151-8.063-26.629-8.063h-73.982c-11.634 0-22.872 4.222-31.628 11.883l-36.847 32.238c-8.752 7.659-19.987 11.88-31.617 11.88z" fill="#6ea573"/><path d="m224 224h-88v16h104c0-8.837-7.164-16-16-16z" fill="#6ea573"/><circle cx="176" cy="168" fill="#e6c35a" r="32"/><path d="m176 208c-22.055 0-40-17.945-40-40s17.945-40 40-40 40 17.945 40 40-17.945 40-40 40zm0-64c-13.234 0-24 10.766-24 24s10.766 24 24 24 24-10.766 24-24-10.766-24-24-24z" fill="#a0555a"/><path d="m184 248h-16v-64c0-4.418 3.582-8 8-8 4.418 0 8 3.582 8 8z" fill="#a0555a"/><path d="m432 400-432-16v-16l69-104h363z" fill="#6bb2ff"/><path d="m376 344c26.51 0 48-21.49 48-48 0-26.51-21.49-48-48-48h-104l33.892-22.595c9.199-6.133 20.007-9.405 31.063-9.405h48.173c9.745 0 19.322-2.543 27.784-7.378l30.176-17.243c8.461-4.835 18.038-7.378 27.784-7.378l41.128 23.999v128z" fill="#6ea573"/><path d="m470.871 184c-9.746 0-19.322 2.543-27.784 7.378l-30.176 17.243c-8.461 4.835-18.038 7.378-27.784 7.378h-48.173c-11.056 0-21.864 3.272-31.063 9.405l-33.891 22.596h43.266l3.937-2.625c5.273-3.516 11.414-5.375 17.754-5.375h48.172c13.883 0 27.602-3.641 39.695-10.539l30.152-17.242c4.844-2.758 10.34-4.219 15.895-4.219h41.129v-16z" fill="#8cbe69"/><path d="m285.594 344c-19.097 0-37.563 6.831-52.063 19.259l-11.062 9.481c-14.5 12.428-32.966 19.26-52.063 19.26l-10.406 18 352-10v-32z" fill="#6ea573"/><path d="m233.531 363.259-11.062 9.481c-14.5 12.428-32.966 19.26-52.063 19.26l-10.406 8h65.659c4.327-2.716 8.514-5.681 12.431-9.039l11.063-9.484c10.14-8.688 23.081-13.477 36.441-13.477h226.406v-16l-226.406-8c-19.097 0-37.564 6.831-52.063 19.259z" fill="#8cbe69"/><path d="m360 280h-264c-8.836 0-16-7.164-16-16 0-8.837 7.164-16 16-16l-96 24v88h154.666c19.041 0 37.568-6.176 52.8-17.6l17.066-12.8c15.232-11.425 33.76-17.6 52.8-17.6h82.668c8.836 0 16-7.164 16-16 0-8.837-7.164-16-16-16z" fill="#6ea573"/><path d="m104 288c-13.255 0-24-10.745-24-24v-8h-80v16h45.451c6.153 0 11.75 3.537 14.383 9.098 6.41 13.538 20.192 22.902 36.166 22.902h280v-16z" fill="#8cbe69"/><path d="m360 272h-264c-4.41 0-8-3.586-8-8s3.59-8 8-8h96c4.418 0 8-3.578 8-8s-3.582-8-8-8h-192v16h73.371c-.887 2.5-1.371 5.195-1.371 8 0 13.234 10.766 24 24 24h264c4.41 0 8 3.586 8 8s-3.59 8-8 8h-82.668c-20.641 0-41.098 6.82-57.594 19.203l-17.074 12.797c-13.75 10.32-30.797 16-47.996 16h-154.668v16h154.668c20.641 0 41.098-6.82 57.594-19.203l17.074-12.797c13.75-10.32 30.797-16 47.996-16h82.668c13.234 0 24-10.766 24-24s-10.766-24-24-24z" fill="#3c7864"/><path d="m56 408c0 13.255 10.745 24 24 24h352c13.255 0 24-10.745 24-24z" fill="#6ea573"/><path d="m496 416h-480c-8.837 0-16-7.163-16-16l65-6 105.406 6h341.594c0 8.836-7.164 16-16 16z" fill="#3c7864"/><path d="m376 352v-16c23.374 0 42.132-20.156 39.804-43.999-2.029-20.78-20.71-36.001-41.588-36.001h-102.216c-3.523 0-6.637-2.305-7.656-5.68-1.023-3.375.285-7.023 3.219-8.977l33.891-22.594c10.514-7.009 22.867-10.749 35.503-10.749h48.172c8.366 0 16.587-2.184 23.85-6.337l30.113-17.219c9.677-5.533 20.632-8.444 31.779-8.444h25.129c8.837 0 16 7.163 16 16h-41.163c-8.344 0-16.543 2.179-23.786 6.32l-30.168 17.25c-9.661 5.524-20.596 8.43-31.725 8.43h-48.201c-9.478 0-18.743 2.805-26.629 8.063l-11.906 7.937h75.623c28.456 0 53.851 20.397 57.479 48.621 4.39 34.148-22.218 63.379-55.524 63.379z" fill="#3c7864"/><circle cx="424" cy="208" fill="#e6c35a" r="56"/><circle cx="424" cy="208" fill="#e6aa55" r="32"/><path d="m424 272c-35.289 0-64-28.711-64-64s28.711-64 64-64 64 28.711 64 64-28.711 64-64 64zm0-112c-26.469 0-48 21.531-48 48s21.531 48 48 48 48-21.531 48-48-21.531-48-48-48z" fill="#a0555a"/><circle cx="88" cy="248" fill="#8cbe69" r="56"/><circle cx="88" cy="248" fill="#6ea573" r="32"/><path d="m88 312c-35.289 0-64-28.711-64-64s28.711-64 64-64 64 28.711 64 64-28.711 64-64 64zm0-112c-26.469 0-48 21.531-48 48s21.531 48 48 48 48-21.531 48-48-21.531-48-48-48z" fill="#3c7864"/><path d="m88 368c-4.418 0-8-3.578-8-8v-96c0-4.422 3.582-8 8-8s8 3.578 8 8v96c0 4.422-3.582 8-8 8z" fill="#3c7864"/><circle cx="320" cy="144" fill="#8cbe69" r="32"/><path d="m320 184c-22.055 0-40-17.945-40-40s17.945-40 40-40 40 17.945 40 40-17.945 40-40 40zm0-64c-13.234 0-24 10.766-24 24s10.766 24 24 24 24-10.766 24-24-10.766-24-24-24z" fill="#3c7864"/><path d="m328 216h-16v-56c0-4.418 3.582-8 8-8 4.418 0 8 3.582 8 8z" fill="#3c7864"/><circle cx="56" cy="248" fill="#aad264" r="8"/><circle cx="104" cy="224" fill="#e6c35a" r="8"/><circle cx="400" cy="216" fill="#a0555a" r="8"/><circle cx="440" cy="184" fill="#6ea573" r="8"/><circle cx="304" cy="384" fill="#8cbe69" r="8"/><circle cx="392" cy="384" fill="#3c7864" r="8"/><circle cx="136" cy="328" fill="#8cbe69" r="8"/><circle cx="464" cy="288" fill="#8cbe69" r="8"/><circle cx="40" cy="320" fill="#3c7864" r="8"/><path d="m216 264c-8.836 0-16 7.163-16 16h32c0-8.837-7.164-16-16-16z" fill="#3c7864"/><path d="m244 260c-11.046 0-20 8.954-20 20h40c0-11.046-8.955-20-20-20z" fill="#3c7864"/><path d="m503.598 336c-1.853-9.129-9.923-16-19.598-16-3.646 0-7.053.991-9.996 2.695-5.127-6.51-13.075-10.695-22.004-10.695-7.837 0-14.918 3.223-20 8.412v-96.412c0-4.422-3.582-8-8-8s-8 3.578-8 8v112h-130.406c-20.996 0-41.332 7.523-57.27 21.188l-11.062 9.484c-13.039 11.172-29.68 17.328-46.856 17.328h-170.406v16h170.406c20.996 0 41.332-7.523 57.269-21.188l11.063-9.484c13.039-11.172 29.68-17.328 46.856-17.328h226.406v-16z" fill="#2d2d4b"/></svg>