<svg id="Capa_1" enable-background="new 0 0 512 512" height="512" viewBox="0 0 512 512" width="512" xmlns="http://www.w3.org/2000/svg"><path d="m512 160.502c0-8.837-7.163-16-16-16h-57.45c-14.919 0-29.723-2.608-43.743-7.706l-51.09-18.578c-10.178-3.701-21.308-3.851-31.583-.427l-15.193 5.064c-10.929 3.643-22.803 3.234-33.455-1.152l-90.79-37.384c-18.122-7.462-38.664-6.21-55.745 3.399l-100.951 56.784 28.333 23.831z" fill="#ffeb96"/><path d="m200 185 312 7.502v60.571l-196 27.429h-116z" fill="#a0e6e1"/><path d="m200 176.502h312v16h-312z" fill="#c8f5f0"/><path d="m40 160.502h472v16h-472z" fill="#d2e673"/><path d="m0 175.169 27.667 145.333h449.833l34.5-58.286v-9.143l-200.287-17.167c-25.93-2.223-50.677-11.838-71.305-27.706l-42.79-32.915c-19.386-14.912-42.434-24.32-66.717-27.234l-112.995-13.56c-9.524-1.143-17.906 6.293-17.906 15.886z" fill="#d2e673"/><path d="m111 393.183 401-26.371v-21.665l-134.575-30.932c-22.045-1.13-43.617-6.81-63.36-16.682l-40.773-20.386c-16.731-8.366-34.801-13.733-53.387-15.857l-219.905-.975v16.84z" fill="#aad264"/><path d="m512 321.117-134.575-6.901c-22.045-1.13-43.617-6.81-63.36-16.682l-40.773-20.386c-16.731-8.366-34.801-13.733-53.387-15.857l-219.905-25.132v24.155l217.18 24.82c15.844 1.813 31.113 6.352 45.383 13.484l40.766 20.375c22.848 11.43 47.367 17.883 72.867 19.187l135.804 6.968z" fill="#d2e673"/><path d="m0 400.502 24 8.498h466l22-8.498v-1.676l-215.634-29.683c-15.944-.419-31.474-5.165-44.93-13.728l-51.625-32.853c-10.423-6.633-22.127-10.997-34.349-12.808l-165.462-.248z" fill="#ffcd6e"/><path d="m512 374.818-215.634-5.675c-15.944-.419-31.474-5.165-44.93-13.728l-51.625-32.853c-10.423-6.633-22.127-10.997-34.349-12.808l-165.462-24.511v24.263l161.941 23.989c8.941 1.328 17.352 4.461 24.984 9.32l51.625 32.852c17.113 10.891 36.887 16.93 57.184 17.469l216.266 5.69z" fill="#ffeb96"/><path d="m56 408.502c0 13.255 10.745 24 24 24h352c13.255 0 24-10.745 24-24z" fill="#ffaf5a"/><path d="m496 416.502h-480c-8.837 0-16-7.163-16-16h512c0 8.837-7.164 16-16 16z" fill="#d28755"/><path d="m469.833 281.519-59.579 5.958c-6.779.678-13.378 2.587-19.472 5.634l-14.707 7.354c-6.437 3.219-13.773 4.173-20.831 2.763-12.995-2.596-25.588-6.843-37.6-12.851l-40.772-20.382c-16.037-7.495-32.205-11.875-43.411-14.288-10.433-2.247-20.098-7.179-28.201-14.124l-17.128-14.681c-7.888-6.761-17.706-10.864-28.059-11.727l-62.034-5.17c-11.378-.948-22.341-5.535-30.284-13.737-7.36-7.6-16.958-12.633-27.38-14.37l-40.375-6.729v70l31.016 2.584 187.98 21.483c17.711 2.031 34.773 7.094 50.719 15.07l40.773 20.383c20.859 10.43 43.242 16.328 66.527 17.516l134.985 6.924v-66.913l-23.129 13.216c-5.849 3.343-12.335 5.417-19.038 6.087z" fill="#6ea573"/><path d="m512 366.812-215.422-5.669c-14.496-.383-28.621-4.695-40.844-12.477l-51.629-32.852c-11.449-7.281-24.059-11.984-37.473-13.977l-166.632-24.683v16.175l164.289 24.336c11.176 1.656 21.684 5.578 31.227 11.648l51.625 32.852c14.672 9.336 31.617 14.516 49.016 14.977l215.843 5.681z" fill="#d28755"/><circle cx="152" cy="352.502" fill="#ffeb96" r="8"/><circle cx="248" cy="312.502" fill="#d2e673" r="8"/><circle cx="296" cy="336.502" fill="#6ea573" r="8"/><circle cx="104" cy="368.502" fill="#ffaf5a" r="8"/><circle cx="40" cy="352.502" fill="#d28755" r="8"/></svg>