<svg id="Capa_1" enable-background="new 0 0 512 512" height="512" viewBox="0 0 512 512" width="512" xmlns="http://www.w3.org/2000/svg"><g fill="#cdf0ff"><path d="m280 132h-16c-8.837 0-16-7.163-16-16 0-8.837 7.163-16 16-16h16c8.837 0 16 7.163 16 16 0 8.837-7.163 16-16 16z"/><path d="m368 132h-40c-8.837 0-16-7.163-16-16 0-8.837 7.163-16 16-16h40c8.837 0 16 7.163 16 16 0 8.837-7.163 16-16 16z"/><path d="m96 132h-16c-8.837 0-16-7.163-16-16 0-8.837 7.163-16 16-16h16c8.837 0 16 7.163 16 16 0 8.837-7.163 16-16 16z"/><path d="m376.011 164-62.642 16-103.263-51.145c-25.994-12.875-56.922-10.669-80.826 5.764l-89.291 61.381 24.011 32h328z"/></g><path d="m111.989 196 71.068-21.865c20.762-6.388 43.315-2.727 60.991 9.898l.012.009c17.616 12.583 40.079 16.263 60.789 9.96l118.303-36.005c20.71-6.303 43.173-2.623 60.789 9.96l14.659 10.471c8.409 6.007 13.4 15.705 13.4 26.039v41.77l-41.667 85.763h-374.333z" fill="#a0e6cd"/><path d="m456 196c0-8.837-7.164-16-16-16h-24c-8.836 0-16 7.163-16 16h-8c-4.418 0-8 3.582-8 8s3.582 8 8 8c0 8.836 7.164 16 16 16h24c8.836 0 16-7.164 16-16 0-.721-.12-1.409-.212-2.104 4.877-2.741 8.212-7.903 8.212-13.896z" fill="#8cbe69"/><path d="m432 252h-16v-32c0-4.418 3.582-8 8-8 4.418 0 8 3.582 8 8z" fill="#6ea573"/><path d="m400 268-39.489-13.163c-20.569-6.856-43.132-4.079-61.423 7.562l-59.088 37.601v32h120z" fill="#ffc878"/><path d="m400 268-39.489-13.163c-20.569-6.856-43.132-4.079-61.423 7.562l-59.088 37.601v23.997c.008 0 .016.003.023.003 4.406 0 8.867-1.211 12.863-3.75l59.082-37.602c12.246-7.805 27.172-9.625 40.953-5.047l33.994 11.333z" fill="#ffe68c"/><path d="m224.961 295.265-34.812-31.331c-14.365-12.929-32.586-20.769-51.851-22.31l-138.298 13.011v110.645l168 6.72h200l24-48-113.052-6.281c-20.029-1.113-39.077-9.035-53.987-22.454z" fill="#ffc878"/><path d="m224.961 295.265-34.812-31.331c-14.365-12.929-32.586-20.769-51.851-22.31l-138.298-3.036v16.047l136.387 10.912c13.926 1.117 27.316 6.875 37.707 16.234l34.809 31.32c18.91 17.023 43.316 27.172 68.715 28.578l102.69 5.706 11.692-23.385-113.052-6.281c-20.029-1.113-39.077-9.035-53.987-22.454z" fill="#ffe68c"/><path d="m402.531 260.414-39.492-13.172c-22.953-7.641-47.828-4.586-68.25 8.406l-59.086 37.602c-.12.076-.229.163-.344.244-1.732-1.319-3.418-2.708-5.047-4.174l-34.826-31.341c-15.668-14.1-35.542-22.65-56.552-24.331l-122.929-9.835c-8.625-.69-16.005 6.123-16.005 14.775l137.657 11.013c17.514 1.401 34.08 8.529 47.14 20.281l34.813 31.328c16.207 14.594 37.125 23.289 58.895 24.492l113.051 6.281c.152.008.301.016.453.016 4.215 0 7.742-3.297 7.98-7.555.246-4.414-3.133-8.188-7.543-8.43l-113.047-6.281c-9.989-.555-19.706-2.984-28.685-7.068l52.669-33.518c16.332-10.398 36.25-12.828 54.598-6.727l39.488 13.164c4.207 1.422 8.727-.867 10.121-5.055 1.398-4.193-.867-8.724-5.059-10.115z" fill="#ffaf69"/><path d="m168 268h16v96h-16z" fill="#d28755"/><path d="m224 228h-10.798c-4.504-9.434-14.052-16-25.202-16h-16c-15.464 0-28 12.536-28 28 0 1.37.213 2.683.403 4h-.403c-13.255 0-24 10.745-24 24s10.745 24 24 24h40c10.435 0 19.224-6.7 22.53-16h17.47c13.255 0 24-10.745 24-24s-10.745-24-24-24z" fill="#ffc878"/><path d="m162.512 259.484c4.559-5.266 6.574-12.469 5.578-19.367l-.09-.117c0-2.203 1.793-4 4-4h16c1.789 0 3.004 1.211 3.543 2.336 3.984 8.352 12.41 13.664 21.66 13.664h34.797c0-13.255-10.745-24-24-24h-10.798c-4.504-9.434-14.052-16-25.202-16h-16c-15.464 0-28 12.536-28 28 0 1.37.213 2.683.403 4h-.403c-13.255 0-24 10.745-24 24h24.402c6.965 0 13.551-3.25 18.11-8.516z" fill="#ffe68c"/><path d="m184 300h-40c-17.645 0-32-14.352-32-32 0-14.93 10.277-27.5 24.125-31.023 1.539-18.438 17.043-32.977 35.875-32.977h16c11.984 0 23.203 6.141 29.824 16h6.176c17.645 0 32 14.352 32 32s-14.355 32-32 32h-12.391c-5.648 9.758-16.132 16-27.609 16zm-12-80c-11.027 0-20 8.969-20 20 0 .82.141 1.617.254 2.406.332 2.297-.316 4.852-1.836 6.609-1.52 1.75-3.695 2.984-6.016 2.984-9.227 0-16.402 7.18-16.402 16s7.176 16 16 16h40c6.695 0 12.719-4.289 14.996-10.68 1.133-3.188 4.152-5.32 7.535-5.32h17.469c8.824 0 16-7.18 16-16s-7.176-16-16-16h-10.797c-3.082 0-5.891-1.773-7.219-4.555-3.371-7.061-10.261-11.444-17.984-11.444z" fill="#ffaf69"/><path d="m368.046 260c-2.047 0-4.094-.781-5.656-2.344l-24.973-24.969c-5.957-5.953-9.371-14.203-9.371-22.625v-6.062c0-4.422 3.582-8 8-8s8 3.578 8 8v6.062c0 4.211 1.707 8.336 4.684 11.313l24.973 24.969c3.125 3.125 3.125 8.188 0 11.313-1.563 1.562-3.61 2.343-5.657 2.343z" fill="#2d2d4b"/><path d="m414.636 140h-.094c-3.306-9.3-12.096-16-22.53-16h-45.602c-10.026 0-19.637 5.31-24.052 14.312-1.849 3.771-2.477 7.318-2.324 10.646.176 3.839-2.819 7.042-6.662 7.042h-.002c-12.996 0-24.644 9.731-25.324 22.709-.726 13.841 10.283 25.291 23.965 25.291h104c19.783 0 35.373-17.952 31.369-38.453-2.968-15.195-17.263-25.547-32.744-25.547z" fill="#ffc878"/><path d="m313.369 180c8.336 0 16.414-3.453 22.164-9.477 5.566-5.828 8.641-13.719 8.504-21.781.336-.297 1.203-.742 2.371-.742l45.52.039c3.402 9.57 12.457 15.961 22.613 15.961h.094 32.285c-3.625-14.318-17.352-24-32.284-24h-.094c-3.306-9.3-12.096-16-22.53-16h-45.602c-10.026 0-19.637 5.31-24.052 14.312-1.849 3.771-2.477 7.318-2.324 10.646.176 3.839-2.819 7.042-6.662 7.042h-.002c-12.996 0-24.644 9.731-25.324 22.709-.023.441.066.854.066 1.291z" fill="#ffe68c"/><path d="m416.011 212h-104c-8.738 0-17.199-3.633-23.215-9.977-6.102-6.43-9.203-14.859-8.738-23.734.867-16.547 14.785-29.609 31.953-30.266 0-4.5 1.063-8.945 3.164-13.234 5.598-11.414 17.86-18.789 31.235-18.789h45.602c11.598 0 22.18 6.375 27.781 16.305 17.633 2.094 32.137 14.781 35.438 31.711 2.336 11.961-.699 24.133-8.332 33.398-7.634 9.274-18.892 14.586-30.888 14.586zm-69.601-80c-7.316 0-13.938 3.859-16.867 9.836-1.125 2.289-1.621 4.5-1.516 6.758.184 4.023-1.297 7.984-4.063 10.883-2.785 2.914-6.547 4.523-10.594 4.523-9.121 0-16.898 6.789-17.336 15.133-.234 4.445 1.316 8.664 4.367 11.875 3.055 3.219 7.176 4.992 11.609 4.992h104c7.195 0 13.953-3.188 18.535-8.758 4.648-5.641 6.418-12.805 4.98-20.164-2.119-10.875-12.823-19.078-24.889-19.078h-.094c-3.383 0-6.402-2.133-7.535-5.32-2.277-6.391-8.301-10.68-14.996-10.68z" fill="#ffaf69"/><path d="m368.046 308c-4.418 0-8-3.578-8-8v-104c0-4.422 3.582-8 8-8s8 3.578 8 8v104c0 4.422-3.582 8-8 8z" fill="#2d2d4b"/><circle cx="408.011" cy="164" fill="#aad264" r="8"/><circle cx="376.011" cy="156" fill="#ffaf69" r="8"/><circle cx="344.011" cy="172" fill="#aad264" r="8"/><path d="m41.364 172h.094c3.306-9.3 12.096-16 22.53-16h45.602c10.026 0 19.637 5.31 24.052 14.312 1.849 3.771 2.477 7.318 2.324 10.646-.176 3.839 2.819 7.042 6.662 7.042h.002c12.996 0 24.644 9.731 25.324 22.709.726 13.841-10.282 25.291-23.965 25.291h-104c-19.783 0-35.373-17.952-31.369-38.453 2.968-15.195 17.263-25.547 32.744-25.547z" fill="#8cbe69"/><path d="m142.631 212c-8.336 0-16.414-3.453-22.164-9.477-5.566-5.828-8.641-13.719-8.504-21.781-.336-.297-1.203-.742-2.371-.742l-45.52.039c-3.402 9.57-12.457 15.961-22.613 15.961h-.094-32.285c3.625-14.318 17.352-24 32.284-24h.094c3.306-9.3 12.096-16 22.53-16h45.602c10.026 0 19.637 5.31 24.052 14.312 1.849 3.77 2.477 7.318 2.324 10.646-.176 3.839 2.819 7.042 6.662 7.042h.002c12.996 0 24.644 9.731 25.324 22.709.023.441-.066.854-.066 1.291z" fill="#aad264"/><path d="m9.102 229.414c-7.633-9.266-10.668-21.438-8.332-33.398 3.301-16.93 17.805-29.617 35.437-31.711 5.602-9.93 16.184-16.305 27.782-16.305h45.602c13.375 0 25.637 7.375 31.234 18.789 2.102 4.289 3.164 8.734 3.164 13.234 17.168.656 31.086 13.719 31.953 30.266.465 8.875-2.637 17.305-8.738 23.734-6.016 6.344-14.477 9.977-23.215 9.977h-104c-11.996 0-23.254-5.312-30.887-14.586zm54.887-65.414c-6.695 0-12.719 4.289-14.996 10.68-1.133 3.188-4.152 5.32-7.535 5.32h-.094c-12.066 0-22.77 8.203-24.891 19.078-1.438 7.359.332 14.523 4.98 20.164 4.582 5.57 11.34 8.758 18.535 8.758h104c4.434 0 8.555-1.773 11.609-4.992 3.051-3.211 4.602-7.43 4.367-11.875-.436-8.344-8.213-15.133-17.334-15.133-4.047 0-7.809-1.609-10.594-4.523-2.766-2.898-4.246-6.859-4.063-10.883.105-2.258-.391-4.469-1.516-6.758-2.93-5.977-9.551-9.836-16.867-9.836z" fill="#6ea573"/><path d="m87.954 340c4.418 0 8-3.578 8-8v-104c0-4.422-3.582-8-8-8s-8 3.578-8 8v104c0 4.422 3.582 8 8 8z" fill="#2d2d4b"/><circle cx="47.989" cy="196" fill="#6ea573" r="8"/><circle cx="79.989" cy="188" fill="#ffc878" r="8"/><circle cx="111.989" cy="204" fill="#6ea573" r="8"/><path d="m512 279.963-34.96-36.95c-13.516-4.505-28.24-3.69-41.176 2.28l-68.151 31.455c-10.026 4.627-17.693 13.193-21.185 23.669l-4.053 12.16c-4.065 12.196-13.746 21.695-26.017 25.53l-108.458 33.893-8 8h312z" fill="#8cbe69"/><path d="m512 263.097-34.96-20.084c-13.516-4.505-28.24-3.69-41.176 2.28l-68.151 31.455c-10.026 4.627-17.693 13.193-21.185 23.669l-4.053 12.16c-4.065 12.196-13.746 21.695-26.017 25.53l-108.458 33.893-8 8h62.861l60.756-18.984c19.582-6.117 35.141-21.391 41.625-40.852l4.051-12.156c1.395-4.172 4.48-7.625 8.477-9.469l68.16-31.453c7.414-3.422 15.77-3.891 23.52-1.305l42.55 14.182z" fill="#aad264"/><path d="m137.394 330.882-29.97-33.299c-12.462-13.847-29.806-22.324-48.387-23.651l-59.037 3.799v102.269l276.771 8c-13.758 0-27.425-2.218-40.477-6.569l-44.236-14.745c-21.012-7.004-39.847-19.341-54.664-35.804z" fill="#6ea573"/><path d="m192.059 366.686c-21.013-7.004-39.848-19.341-54.665-35.804l-29.97-33.299c-12.462-13.847-29.806-22.324-48.387-23.651l-59.037 3.799v16.042l57.328 4.094c12.449.891 23.906 6.492 32.258 15.773l29.969 33.297c16.624 18.469 37.657 32.56 60.986 41.063h96.231c-13.758 0-27.425-2.218-40.477-6.569z" fill="#8cbe69"/><path d="m512 246.238-32.43-10.808c-15.516-5.18-32.227-4.258-47.059 2.602l-68.152 31.453c-11.98 5.531-21.246 15.883-25.422 28.398l-4.055 12.164c-3.242 9.734-11.02 17.367-20.813 20.43l-108.457 33.891c-4.215 1.313-6.566 5.805-5.25 10.016 1.07 3.43 4.227 5.617 7.633 5.617.793 0 1.598-.117 2.391-.367l108.457-33.891c14.688-4.586 26.355-16.039 31.219-30.633l4.055-12.164c2.785-8.344 8.961-15.25 16.945-18.93l68.156-31.453c11.125-5.148 23.66-5.82 35.289-1.961l37.493 12.495z" fill="#6ea573"/><path d="m56 388c0 13.255 10.745 24 24 24h352c13.255 0 24-10.745 24-24z" fill="#6ea573"/><path d="m336 260c0-8.837-7.164-16-16-16h-24c-8.836 0-16 7.163-16 16h-8c-4.418 0-8 3.582-8 8s3.582 8 8 8c0 8.836 7.164 16 16 16h24c8.836 0 16-7.164 16-16 0-.721-.12-1.409-.212-2.104 4.877-2.741 8.212-7.903 8.212-13.896z" fill="#8cbe69"/><path d="m312 340h-16v-56c0-4.418 3.582-8 8-8 4.418 0 8 3.582 8 8z" fill="#6ea573"/><circle cx="72" cy="324" fill="#ffaf69" r="8"/><circle cx="464" cy="300" fill="#ffc878" r="8"/><circle cx="392" cy="332" fill="#ffaf69" r="8"/><circle cx="32" cy="348" fill="#3c7864" r="8"/><circle cx="440" cy="348" fill="#6ea573" r="8"/><path d="m276.773 380c-12.922 0-25.688-2.07-37.949-6.156l-44.234-14.742c-19.664-6.563-37.387-18.172-51.25-33.57l-29.969-33.297c-13.918-15.469-33.012-24.805-53.762-26.281l-59.609-4.258v16.035l58.469 4.175c16.602 1.188 31.875 8.656 43.012 21.031l29.969 33.297c15.711 17.453 35.793 30.609 58.078 38.039l17.182 5.727h-206.71c0 8.836 7.164 16 16 16h480c8.836 0 16-7.164 16-16z" fill="#3c7864"/></svg>