<?xml version="1.0" encoding="iso-8859-1"?>
<!-- Generator: Adobe Illustrator 19.0.0, SVG Export Plug-In . SVG Version: 6.00 Build 0)  -->
<svg xmlns="http://www.w3.org/2000/svg" xmlns:xlink="http://www.w3.org/1999/xlink" version="1.1" id="Layer_1" x="0px" y="0px" viewBox="0 0 512 512" style="enable-background:new 0 0 512 512;" xml:space="preserve">
<circle style="fill:#FFDB47;" cx="255.996" cy="255.996" r="255.996"/>
<path style="fill:#FFCB00;" d="M512,256.001c0-8.778-0.444-17.452-1.306-26.002c-0.762-0.544-1.568-1-2.415-1.342L375.878,94.937  c-4.602-4.602-12.13-4.602-16.732,0l-0.659,0.659c0,0-31.853-31.218-31.866-31.223c-1.162-2.839-3.408-5.233-6.454-6.478  c-6.023-2.463-12.966,0.45-15.429,6.473l-5.918,14.474c-0.501,1.226-0.772,2.488-0.846,3.744l-31.026-29.929  c-1.77-4.313-6.016-7.374-10.947-7.374c-6.508,0-11.831,5.324-11.831,11.831v15.638c0,4.932,3.063,9.175,7.378,10.943  c0.458,1.114,1.075,2.145,1.833,3.06v0.086c-7.62,0.153-15.076,0.976-22.313,2.404l-25.111-24.297l-0.055-0.131  c-2.517-6.001-9.486-8.85-15.486-6.333c-6.001,2.517-8.85,9.486-6.333,15.486l6.05,14.42c1.257,2.996,3.627,5.196,6.428,6.342  l3.67,4.863c-9.351,4.535-18.061,10.172-25.972,16.745l-21.403-21.403c-4.602-4.602-12.13-4.602-16.732,0  c-4.602,4.601-4.602,12.13,0,16.732l21.327,21.327h-56.305c-6.784,0-12.335,5.55-12.335,12.335c0,3.173,1.225,6.067,3.211,8.258  H62.769c-6.784,0-12.335,5.55-12.335,12.335c0,5.067,3.097,9.443,7.491,11.335l30.36,31.298c-1.144,1.819-1.817,3.961-1.817,6.258  c0,4.932,3.06,9.178,7.374,10.948l31.953,32.227c-1.784-0.127-3.618,0.139-5.373,0.875l-14.42,6.05  c-6.001,2.517-8.85,9.486-6.333,15.486c1.26,3.003,3.634,5.216,6.445,6.363l30.073,31.134l-0.063,0.063  c-4.602,4.602-4.602,12.13,0,16.732l70.885,70.829l-2.84,11.738l91.652,91.652C418.292,489.784,512,383.84,512,256.001z"/>
<g>
	<path style="fill:#FFFFFF;" d="M62.769,153.588h29.251c-1.987-2.191-3.211-5.085-3.211-8.258c0-6.784,5.55-12.335,12.335-12.335   h67.262c6.784,0,12.335,5.55,12.335,12.335s-5.55,12.335-12.335,12.335h-29.251c1.986,2.192,3.211,5.085,3.211,8.259l0,0   c0,6.784-5.55,12.335-12.335,12.335H62.769c-6.784,0-12.335-5.55-12.335-12.335l0,0C50.434,159.139,55.985,153.588,62.769,153.588z   "/>
	<path style="fill:#FFFFFF;" d="M450.394,235.408h-29.251c1.987-2.191,3.211-5.085,3.211-8.259c0-6.784-5.55-12.335-12.335-12.335   h-67.262c-6.784,0-12.335,5.55-12.335,12.335c0,6.784,5.55,12.335,12.335,12.335h29.251c-1.986,2.191-3.211,5.085-3.211,8.259l0,0   c0,6.784,5.55,12.335,12.335,12.335h67.262c6.784,0,12.335-5.55,12.335-12.335l0,0   C462.729,240.958,457.178,235.408,450.394,235.408z"/>
</g>
<path style="fill:#005ECE;" d="M255.999,512c80.338,0,152.02-37.017,198.954-94.914H57.045C103.981,474.983,175.662,512,255.999,512  z"/>
<g>
	<rect x="107.341" y="433.752" style="fill:#FFFFFF;" width="68.262" height="10.914"/>
	<rect x="199.27" y="442.497" style="fill:#FFFFFF;" width="49.611" height="10.914"/>
	<rect x="166.857" y="468.578" style="fill:#FFFFFF;" width="49.611" height="10.914"/>
</g>
<path style="fill:#004DAD;" d="M454.955,417.086H255.999V512C336.338,512,408.02,474.983,454.955,417.086z"/>
<g>
	<rect x="343.035" y="430.492" style="fill:#FFFFFF;" width="68.262" height="10.914"/>
	<rect x="293.414" y="471.138" style="fill:#FFFFFF;" width="49.611" height="10.914"/>
	<rect x="269.068" y="442.497" style="fill:#FFFFFF;" width="49.611" height="10.914"/>
</g>
<path style="fill:#3C3B41;" d="M307.833,417.26H204.167l51.834-214.276L307.833,417.26z M218.12,406.082h75.759l-37.879-151.881  L218.12,406.082z"/>
<polygon style="fill:#29292B;" points="256.002,254.201 293.88,406.082 255.999,406.082 255.999,417.26 307.833,417.26   256.002,202.984 255.999,202.988 255.999,254.206 "/>
<path style="fill:#FF3200;" d="M130.296,212.195h-4.834c-1.202-5.256-5.92-9.211-11.526-9.211H98.298  c-6.508,0-11.831,5.324-11.831,11.831l0,0c0,6.507,5.324,11.831,11.831,11.831h15.638c5.606,0,10.324-3.955,11.526-9.211h4.834  C130.296,217.436,130.296,212.195,130.296,212.195z"/>
<path style="fill:#C61C00;" d="M381.704,212.195h4.834c1.202-5.256,5.92-9.211,11.526-9.211h15.638  c6.508,0,11.831,5.324,11.831,11.831l0,0c0,6.507-5.324,11.831-11.831,11.831h-15.638c-5.606,0-10.324-3.955-11.526-9.211h-4.834  V212.195z"/>
<path style="fill:#FF3200;" d="M258.62,89.111v-4.834c5.256-1.202,9.211-5.92,9.211-11.526V57.113  c0-6.508-5.324-11.831-11.831-11.831l0,0c-6.508,0-11.831,5.324-11.831,11.831v15.638c0,5.606,3.956,10.324,9.211,11.526v4.834  C253.379,89.111,258.62,89.111,258.62,89.111z"/>
<path style="fill:#C61C00;" d="M258.62,89.111v-4.834c5.256-1.202,9.211-5.92,9.211-11.527V57.113  c0-6.508-5.324-11.831-11.831-11.831v43.829H258.62z"/>
<path style="fill:#FF3200;" d="M258.62,340.519v4.834c5.256,1.202,9.211,5.92,9.211,11.526v15.638  c0,6.508-5.324,11.831-11.831,11.831l0,0c-6.508,0-11.831-5.324-11.831-11.831v-15.638c0-5.606,3.956-10.324,9.211-11.526v-4.834  H258.62z"/>
<path style="fill:#C61C00;" d="M267.831,372.516v-15.638c0-5.606-3.955-10.324-9.211-11.526v-4.834h-2.621v43.829  C262.507,384.348,267.831,379.024,267.831,372.516z"/>
<path style="fill:#FF3200;" d="M168.967,124.076l-3.418-3.418c2.866-4.566,2.327-10.7-1.637-14.664l-11.058-11.057  c-4.602-4.602-12.13-4.602-16.732,0l0,0c-4.602,4.602-4.602,12.13,0,16.732l11.057,11.057c3.964,3.964,10.098,4.503,14.664,1.637  l3.418,3.418L168.967,124.076z"/>
<g>
	<path style="fill:#C61C00;" d="M346.738,301.848l3.418,3.418c4.566-2.866,10.7-2.327,14.664,1.637l11.057,11.057   c4.602,4.602,4.602,12.13,0,16.732l0,0c-4.602,4.602-12.13,4.602-16.732,0l-11.057-11.057c-3.964-3.964-4.503-10.098-1.637-14.664   l-3.418-3.418L346.738,301.848z"/>
	<path style="fill:#C61C00;" d="M346.738,127.781l3.418-3.418c4.566,2.866,10.7,2.327,14.664-1.637l11.057-11.057   c4.602-4.602,4.602-12.13,0-16.732l0,0c-4.602-4.602-12.13-4.602-16.732,0l-11.057,11.057c-3.964,3.964-4.503,10.098-1.637,14.664   l-3.418,3.418L346.738,127.781z"/>
</g>
<g>
	<path style="fill:#FF3200;" d="M168.967,305.553l-3.418,3.418c2.866,4.566,2.327,10.7-1.637,14.664l-11.058,11.057   c-4.602,4.602-12.13,4.602-16.732,0l0,0c-4.602-4.602-4.602-12.13,0-16.732l11.057-11.057c3.964-3.964,10.098-4.503,14.664-1.637   l3.418-3.418L168.967,305.553z"/>
	<path style="fill:#FF3200;" d="M140.639,164.811l-4.474-1.83c0.877-5.32-1.994-10.766-7.183-12.889l-14.474-5.919   c-6.023-2.463-12.966,0.45-15.429,6.473l0,0c-2.463,6.023,0.45,12.966,6.473,15.429l14.474,5.919   c5.189,2.122,11.054,0.247,14.155-4.163l4.474,1.83L140.639,164.811z"/>
</g>
<g>
	<path style="fill:#C61C00;" d="M373.344,259.968l4.474,1.83c3.101-4.409,8.966-6.285,14.155-4.163l14.475,5.918   c6.023,2.463,8.936,9.406,6.473,15.429l0,0c-2.463,6.023-9.406,8.936-15.429,6.473l-14.474-5.918   c-5.189-2.122-8.059-7.569-7.183-12.889l-4.474-1.83L373.344,259.968z"/>
	<path style="fill:#C61C00;" d="M306.003,99.454l1.83-4.474c5.32,0.877,10.766-1.994,12.889-7.183l5.919-14.474   c2.463-6.023-0.45-12.966-6.473-15.429l0,0c-6.023-2.463-12.966,0.45-15.429,6.473l-5.918,14.474   c-2.122,5.189-0.247,11.054,4.163,14.155l-1.83,4.474L306.003,99.454z"/>
</g>
<g>
	<path style="fill:#FF3200;" d="M210.847,332.158l-1.83,4.474c4.409,3.101,6.285,8.966,4.163,14.155l-5.918,14.474   c-2.463,6.023-9.406,8.936-15.429,6.473l0,0c-6.023-2.463-8.936-9.406-6.473-15.429l5.918-14.474   c2.122-5.189,7.569-8.059,12.889-7.182l1.83-4.474L210.847,332.158z"/>
	<path style="fill:#FF3200;" d="M209.785,97.885l-1.87-4.457c4.381-3.141,6.203-9.023,4.034-14.193l-6.05-14.419   c-2.517-6.001-9.486-8.85-15.486-6.333l0,0c-6.001,2.517-8.85,9.486-6.333,15.486l6.05,14.419c2.169,5.17,7.642,7.991,12.953,7.065   l1.87,4.457L209.785,97.885z"/>
</g>
<g>
	<path style="fill:#C61C00;" d="M307.046,329.717l1.87,4.457c5.311-0.925,10.784,1.896,12.952,7.065l6.05,14.42   c2.517,6.001-0.332,12.969-6.333,15.487l0,0c-6.001,2.517-12.969-0.332-15.487-6.333l-6.05-14.42   c-2.169-5.17-0.347-11.052,4.034-14.193l-1.87-4.457L307.046,329.717z"/>
	<path style="fill:#C61C00;" d="M372.929,168.6l4.457-1.87c3.141,4.381,9.023,6.203,14.193,4.034l14.42-6.05   c6.001-2.517,8.85-9.486,6.333-15.487l0,0c-2.517-6.001-9.487-8.85-15.487-6.333l-14.419,6.05   c-5.17,2.169-7.991,7.641-7.065,12.953l-4.457,1.87L372.929,168.6z"/>
</g>
<g>
	<path style="fill:#FF3200;" d="M141.098,265.861l-4.457,1.87c0.925,5.311-1.896,10.784-7.066,12.953l-14.42,6.05   c-6.001,2.517-12.969-0.332-15.487-6.333l0,0c-2.517-6.001,0.332-12.969,6.333-15.486l14.42-6.05   c5.169-2.169,11.051-0.347,14.193,4.034l4.457-1.87L141.098,265.861z"/>
	<polygon style="fill:#FF3200;" points="355.292,212.029 270.271,212.029 348.222,180.385 349.049,180.049 346.953,174.886    267.694,207.06 328.18,146.574 324.24,142.634 264.121,202.753 296.866,125.258 297.213,124.437 292.079,122.267 258.786,201.063    258.786,115.522 253.214,115.522 253.214,200.542 221.235,121.765 216.071,123.861 248.245,203.12 187.759,142.634    183.819,146.574 243.938,206.694 165.621,173.602 163.452,178.735 242.248,212.029 156.707,212.029 156.707,217.601    241.73,217.601 163.777,249.244 162.951,249.58 165.047,254.744 244.305,222.568 183.819,283.055 187.759,286.995 247.879,226.875    215.134,304.371 214.787,305.193 219.92,307.362 253.214,228.567 253.214,314.107 258.786,314.107 258.786,229.086    290.765,307.863 295.929,305.767 263.755,226.51 324.24,286.995 328.18,283.055 268.062,222.936 346.379,256.028 348.547,250.894    269.752,217.601 355.292,217.601  "/>
</g>
<polygon style="fill:#C61C00;" points="355.292,212.029 270.271,212.029 348.223,180.384 349.049,180.049 346.953,174.886   267.694,207.06 328.18,146.574 324.241,142.634 264.121,202.753 296.865,125.258 297.213,124.437 292.079,122.267 258.786,201.062   258.786,115.522 255.999,115.522 255.999,314.107 258.786,314.107 258.786,229.086 290.765,307.864 295.929,305.767 263.755,226.51   324.241,286.995 328.18,283.055 268.062,222.936 346.379,256.028 348.547,250.894 269.752,217.601 355.292,217.601 "/>
<path style="fill:#005ECE;" d="M255.999,86.806c-70.698,0-128.01,57.312-128.01,128.01s57.312,128.01,128.01,128.01  s128.01-57.312,128.01-128.01S326.697,86.806,255.999,86.806z M255.999,332.267c-64.867,0-117.452-52.585-117.452-117.452  S191.132,97.362,255.999,97.362c64.866,0,117.452,52.585,117.452,117.452S320.867,332.267,255.999,332.267z"/>
<path style="fill:#004DAD;" d="M255.999,86.806v10.557c64.867,0,117.452,52.585,117.452,117.452s-52.585,117.452-117.452,117.452  v10.557c70.698,0,128.01-57.312,128.01-128.01S326.697,86.806,255.999,86.806z"/>
<path style="fill:#005ECE;" d="M255.999,108.873c-58.51,0-105.943,47.432-105.943,105.943s47.432,105.943,105.943,105.943  s105.943-47.432,105.943-105.943C361.942,156.304,314.51,108.873,255.999,108.873z M255.999,312.02  c-53.685,0-97.205-43.52-97.205-97.204s43.52-97.205,97.205-97.205s97.204,43.52,97.204,97.205S309.685,312.02,255.999,312.02z"/>
<path style="fill:#004DAD;" d="M361.942,214.814c0-58.51-47.432-105.943-105.943-105.943v8.737c53.685,0,97.204,43.52,97.204,97.205  s-43.52,97.205-97.204,97.205v8.737C314.51,320.757,361.942,273.325,361.942,214.814z"/>
<g>
</g>
<g>
</g>
<g>
</g>
<g>
</g>
<g>
</g>
<g>
</g>
<g>
</g>
<g>
</g>
<g>
</g>
<g>
</g>
<g>
</g>
<g>
</g>
<g>
</g>
<g>
</g>
<g>
</g>
</svg>
