<svg id="Capa_1" enable-background="new 0 0 512 512" height="512" viewBox="0 0 512 512" width="512" xmlns="http://www.w3.org/2000/svg"><path d="m496 197.469-173.429-86.714c-11.643-5.822-25.391-5.613-36.853.558l-69.718 37.54c-10.14 5.46-22.179 6.144-32.873 1.866l-.016-.006c-14.15-5.66-30.286-2.788-41.614 7.407l-130.904 117.815c-6.743 6.068-10.593 14.714-10.593 23.785v22.081l399.667 12.532z" fill="#ffe68c"/><path d="m392 189.469-36.534-9.133c-17.493-4.373-36.02-1.164-51.023 8.838l-72.443 48.295h-75.497c-18.143 0-35.434 7.701-47.571 21.186l-52.932 58.814h312z" fill="#d2e673"/><path d="m224.534 223.214-41.692 34.112c-9.725 7.957-21.362 13.23-33.756 15.295l-51.387 8.564c-16.958 2.827-33.173 9.04-47.677 18.27l-50.022 42.014v16l352 8-8-152-48-8.727c-25.378-4.615-51.503 2.138-71.466 18.472z" fill="#d2e673"/><path d="m512 219.837-91.772-34.343c-23.196-2.578-46.467 4.166-64.691 18.745l-47.389 37.911 203.852 25.33z" fill="#8cbe69"/><path d="m512 203.742-91.772-18.248c-23.196-2.578-46.467 4.166-64.691 18.745l-47.389 37.911 33.256 4.132 29.128-23.298c13.348-10.687 30.09-15.5 47.043-13.641l94.425 10.494z" fill="#d2e673"/><path d="m226.364 265.764c-22.085-2.761-44.395 2.95-62.438 15.98l-94.955 68.578c-13.633 9.846-30.022 15.146-46.839 15.146h233.868v-96z" fill="#8cbe69"/><path d="m163.925 281.744-94.955 68.578c-13.633 9.846-30.022 15.146-46.839 15.146h66.852l88.993-64.273c13.176-9.508 29.324-13.625 45.41-11.617l29.637 3.703c1.007.125 1.987.068 2.977.068v-23.88l-29.636-3.705c-22.085-2.761-44.396 2.95-62.439 15.98z" fill="#d2e673"/><path d="m354.053 247.138-22.755-4.396c-17.412-3.364-35.44.648-49.782 11.079l-121.957 88.696c-20.51 14.917-45.219 22.952-70.581 22.952h-32.978 296z" fill="#6ea573"/><path d="m281.516 253.821-121.957 88.696c-20.51 14.917-45.22 22.952-70.581 22.952h79.402c1.77-1.174 3.569-2.29 5.296-3.547l121.953-88.687c8.934-6.5 20.262-9.039 31.113-6.93l22.754 4.398c1.392.268 2.771.348 4.142.372l.415-23.937-22.755-4.396c-17.413-3.364-35.44.648-49.782 11.079z" fill="#8cbe69"/><path d="m512 272.941-89.403-43.347c-24.333-5.123-49.664 1.361-68.544 17.543l-111.089 95.22c-17.399 14.914-39.56 23.111-62.476 23.111l331.513-8v-84.527z" fill="#6ea573"/><path d="m512 248.416-89.403-18.822c-24.333-5.123-49.664 1.361-68.544 17.543l-111.089 95.22c-17.399 14.914-39.56 23.111-62.476 23.111h71.849c2.115-1.583 4.234-3.162 6.25-4.891l111.086-95.219c13.121-11.25 31.047-15.859 47.98-12.281l94.347 19.864z" fill="#8cbe69"/><path d="m345.43 205.601-47.996-8.727c-27.738-5.063-56.148 2.297-77.965 20.141l-41.695 34.117c-8.629 7.063-19.004 11.766-30.004 13.602l-51.387 8.562c-18.121 3.023-35.164 9.547-50.66 19.406l-45.723 29.1v18.969l54.312-34.567c13.672-8.695 28.711-14.461 44.703-17.125l51.387-8.563c13.75-2.297 26.719-8.172 37.504-16.992l41.695-34.117c18.18-14.867 41.848-20.992 64.969-16.797l48 8.727c4.383.852 8.512-2.086 9.301-6.437.789-4.345-2.094-8.51-6.441-9.299z" fill="#aad264"/><path d="m512 203.742c0-9.167-6.893-16.869-16.004-17.881l-74.887-8.322c-25.465-2.813-50.547 4.438-70.57 20.453l-47.387 37.906c-3.453 2.766-4.012 7.797-1.25 11.25 1.578 1.969 3.902 3 6.25 3 1.754 0 3.52-.57 4.992-1.75l47.391-37.906c16.684-13.367 37.574-19.422 58.809-17.047z" fill="#6ea573"/><path d="m22.133 373.469h-6.133c-4.418 0-8-3.578-8-8s3.582-8 8-8h6.133c15.23 0 29.809-4.711 42.156-13.633l94.953-68.578c19.75-14.266 43.969-20.445 68.113-17.43l29.637 3.703c4.383.547 7.492 4.547 6.945 8.93s-4.617 7.414-8.93 6.945l-29.637-3.703c-20.113-2.484-40.297 2.641-56.762 14.523l-94.953 68.578c-15.089 10.899-32.905 16.665-51.522 16.665z" fill="#6ea573"/><path d="m56 381.469c0 13.255 10.745 24 24 24h352c13.255 0 24-10.745 24-24z" fill="#a7d9ff"/><path d="m496 389.469h-480c-8.837 0-16-7.163-16-16l12.333-5.802h480.667l19 5.802c0 8.836-7.164 16-16 16z" fill="#6bb2ff"/><path d="m359.047 253.392c.093-.075.183-.153.273-.232 16.873-14.431 39.906-20.326 61.63-15.738l91.05 19.169v-16.351l-87.754-18.475c-25.301-5.33-52.04.955-72.345 16.814l-19.085-3.689c-19.516-3.781-39.926.766-56.008 12.461l-121.957 88.695c-19.266 14.016-42.043 21.422-65.875 21.422h-88.976v16h512v-16h-276.13c4.293-2.701 8.413-5.706 12.302-9.039zm-178.559 104.077h-29.532c4.573-2.54 9.02-5.364 13.309-8.484l121.953-88.695c12.508-9.102 28.395-12.617 43.559-9.695l6.491 1.255-98.511 84.433c-15.937 13.662-36.277 21.186-57.269 21.186z" fill="#3c7864"/><g fill="#ffc878"><path d="m112 205.469h-16c-8.837 0-16-7.163-16-16 0-8.837 7.163-16 16-16h16c8.837 0 16 7.163 16 16 0 8.836-7.163 16-16 16z"/><path d="m392 157.469h-16c-8.837 0-16-7.163-16-16 0-8.837 7.163-16 16-16h16c8.837 0 16 7.163 16 16 0 8.836-7.164 16-16 16z"/><path d="m216 205.469h-48c-8.837 0-16-7.163-16-16 0-8.837 7.163-16 16-16h48c8.837 0 16 7.163 16 16 0 8.836-7.164 16-16 16z"/></g><circle cx="408" cy="277.469" fill="#8cbe69" r="8"/><circle cx="456" cy="309.469" fill="#3c7864" r="8"/><circle cx="368" cy="301.469" fill="#d2e673" r="8"/><circle cx="216" cy="333.469" fill="#d2e673" r="8"/></svg>