<?xml version="1.0" encoding="iso-8859-1"?>
<!-- Generator: Adobe Illustrator 19.0.0, SVG Export Plug-In . SVG Version: 6.00 Build 0)  -->
<svg xmlns="http://www.w3.org/2000/svg" xmlns:xlink="http://www.w3.org/1999/xlink" version="1.1" id="Layer_1" x="0px" y="0px" viewBox="0 0 512 512" style="enable-background:new 0 0 512 512;" xml:space="preserve">
<circle style="fill:#00A2FF;" cx="255.996" cy="255.996" r="255.996"/>
<path style="fill:#0084FF;" d="M512,256.001c0-16.759-1.629-33.135-4.703-48.996L387.306,87.014  c-8.6-11.016-21.995-18.108-37.054-18.108c-13.894,0-26.374,6.033-34.977,15.618L255.999,25.08l-26.146,28.239l-8.181,107.204  l-24.239-23.832c-2.006-5.29-7.121-9.084-13.092-9.084h-76.388c-7.705,0-14.009,6.304-14.009,14.009c0,3.604,1.391,6.89,3.647,9.379  H64.371c-7.705,0-14.009,6.304-14.009,14.009c0,5.972,3.794,11.086,9.084,13.092l149.36,151.042l-7.496,98.223l83.066,83.066  C412.405,496.306,512,387.792,512,256.001z"/>
<g>
	<path style="fill:#FFFFFF;" d="M64.371,150.995h33.221c-2.257-2.489-3.647-5.775-3.647-9.379c0-7.705,6.304-14.009,14.009-14.009   h76.388c7.705,0,14.009,6.304,14.009,14.009s-6.304,14.009-14.009,14.009h-33.221c2.256,2.489,3.647,5.775,3.647,9.379l0,0   c0,7.705-6.304,14.009-14.009,14.009H64.371c-7.705,0-14.009-6.304-14.009-14.009l0,0   C50.363,157.299,56.667,150.995,64.371,150.995z"/>
	<path style="fill:#FFFFFF;" d="M429.528,210.436h-28.884c1.962-2.164,3.171-5.022,3.171-8.154c0-6.699-5.48-12.179-12.179-12.179   h-66.416c-6.699,0-12.18,5.48-12.18,12.179c0,6.699,5.48,12.18,12.18,12.18h28.884c-1.961,2.164-3.171,5.022-3.171,8.154l0,0   c0,6.699,5.48,12.179,12.179,12.179h66.416c6.699,0,12.179-5.48,12.179-12.179l0,0   C441.708,215.917,436.227,210.436,429.528,210.436z"/>
</g>
<polygon style="fill:#DAC8B8;" points="282.146,53.319 255.999,25.081 229.854,53.319 201.31,427.361 310.69,427.361 "/>
<polygon style="fill:#C4A98E;" points="310.69,427.361 282.146,53.319 255.999,25.081 255.996,25.085 255.996,427.361 "/>
<polygon style="fill:#EBE2DA;" points="255.999,25.081 229.854,53.319 282.146,53.319 "/>
<polygon style="fill:#DAC8B8;" points="282.146,53.319 255.999,25.081 255.996,25.085 255.996,53.319 "/>
<path style="fill:#00B764;" d="M255.999,512c80.338,0,152.02-37.017,198.954-94.914H57.045C103.981,474.983,175.662,512,255.999,512  z"/>
<g>
	<rect x="104.206" y="427.263" style="fill:#008849;" width="68.262" height="12.809"/>
	<rect x="195.916" y="440.073" style="fill:#008849;" width="49.611" height="12.808"/>
	<rect x="166.857" y="468.191" style="fill:#008849;" width="49.611" height="12.808"/>
	<path style="fill:#008849;" d="M255.999,417.086V512c80.338,0,152.02-37.017,198.954-94.914H255.999z"/>
</g>
<g>
	<rect x="347.695" y="427.263" style="fill:#007539;" width="68.262" height="12.809"/>
	<rect x="296.402" y="469.247" style="fill:#007539;" width="49.611" height="12.808"/>
	<rect x="271.586" y="442.038" style="fill:#007539;" width="49.611" height="12.808"/>
</g>
<circle style="fill:#FFD000;" cx="350.255" cy="115.898" r="46.993"/>
<path style="fill:#E7AF00;" d="M350.253,68.906v93.985c25.954,0,46.993-21.04,46.993-46.993S376.206,68.906,350.253,68.906z"/>
<g>
</g>
<g>
</g>
<g>
</g>
<g>
</g>
<g>
</g>
<g>
</g>
<g>
</g>
<g>
</g>
<g>
</g>
<g>
</g>
<g>
</g>
<g>
</g>
<g>
</g>
<g>
</g>
<g>
</g>
</svg>
