<?xml version="1.0" encoding="iso-8859-1"?>
<!-- Generator: Adobe Illustrator 19.0.0, SVG Export Plug-In . SVG Version: 6.00 Build 0)  -->
<svg xmlns="http://www.w3.org/2000/svg" xmlns:xlink="http://www.w3.org/1999/xlink" version="1.1" id="Layer_1" x="0px" y="0px" viewBox="0 0 512 512" style="enable-background:new 0 0 512 512;" xml:space="preserve">
<circle style="fill:#005ECE;" cx="255.996" cy="255.996" r="255.996"/>
<path style="fill:#004DAD;" d="M512,256.001c0-22.87-3.016-45.032-8.642-66.131L393.129,79.641  c-7.453-9.236-18.858-15.148-31.651-15.148c-19.632,0-36.014,13.917-39.822,32.423l-62.501-67.542h-6.298v35.858h-3.511  l-7.618,39.919h-16.303v28.642h-17.62v19.245h-9.815v57.058h-3.024v148.368h-10.395v61.496l91.28,91.28  C407.961,501.106,512,390.704,512,256.001z"/>
<path style="fill:#00B764;" d="M256.001,512c80.502,0,152.313-37.17,199.241-95.27H56.759C103.688,474.83,175.498,512,256.001,512z"/>
<g>
	<path style="fill:#008849;" d="M255.996,416.73V512c0.001,0,0.002,0,0.003,0c80.503,0,152.313-37.17,199.241-95.27H255.996z"/>
	<rect x="104.206" y="427.263" style="fill:#008849;" width="68.262" height="12.809"/>
	<rect x="195.916" y="440.073" style="fill:#008849;" width="49.611" height="12.808"/>
	<rect x="166.857" y="468.191" style="fill:#008849;" width="49.611" height="12.808"/>
</g>
<g>
	<rect x="347.695" y="427.263" style="fill:#007539;" width="68.262" height="12.809"/>
	<rect x="296.402" y="469.247" style="fill:#007539;" width="49.611" height="12.808"/>
	<rect x="271.586" y="442.038" style="fill:#007539;" width="49.611" height="12.808"/>
</g>
<rect x="252.862" y="29.372" style="fill:#D4D4D6;" width="6.301" height="45.327"/>
<rect x="256.007" y="29.372" style="fill:#C4C2C8;" width="3.145" height="45.327"/>
<polygon style="fill:#AAA9AF;" points="262.667,65.232 249.348,65.232 241.342,107.18 270.673,107.18 "/>
<polygon style="fill:#87858E;" points="270.673,107.18 262.667,65.232 256.007,65.232 256.007,107.18 "/>
<rect x="225.423" y="105.147" style="fill:#D4D4D6;" width="61.167" height="30.448"/>
<rect x="256.007" y="105.147" style="fill:#C4C2C8;" width="30.584" height="30.448"/>
<rect x="207.806" y="133.787" style="fill:#AAA9AF;" width="91.946" height="286.162"/>
<rect x="256.007" y="133.787" style="fill:#87858E;" width="43.745" height="286.162"/>
<rect x="197.995" y="153.034" style="fill:#D4D4D6;" width="29.811" height="57.813"/>
<rect x="194.965" y="210.095" style="fill:#FFFFFF;" width="35.86" height="209.865"/>
<g>
	<rect x="204.045" y="160.985" style="fill:#AAA9AF;" width="6.301" height="17.784"/>
	<rect x="215.455" y="160.985" style="fill:#AAA9AF;" width="6.301" height="17.784"/>
	<rect x="204.045" y="184.14" style="fill:#AAA9AF;" width="6.301" height="17.784"/>
	<rect x="215.455" y="184.14" style="fill:#AAA9AF;" width="6.301" height="17.784"/>
	<rect x="204.045" y="218.046" style="fill:#AAA9AF;" width="6.301" height="17.784"/>
	<rect x="215.455" y="218.046" style="fill:#AAA9AF;" width="6.301" height="17.784"/>
	<rect x="204.045" y="241.556" style="fill:#AAA9AF;" width="6.301" height="17.784"/>
	<rect x="215.455" y="241.556" style="fill:#AAA9AF;" width="6.301" height="17.784"/>
	<rect x="204.045" y="265.076" style="fill:#AAA9AF;" width="6.301" height="17.784"/>
	<rect x="215.455" y="265.076" style="fill:#AAA9AF;" width="6.301" height="17.784"/>
	<rect x="204.045" y="288.586" style="fill:#AAA9AF;" width="6.301" height="17.784"/>
	<rect x="215.455" y="288.586" style="fill:#AAA9AF;" width="6.301" height="17.784"/>
	<rect x="204.045" y="312.107" style="fill:#AAA9AF;" width="6.301" height="17.784"/>
	<rect x="215.455" y="312.107" style="fill:#AAA9AF;" width="6.301" height="17.784"/>
	<rect x="204.045" y="335.616" style="fill:#AAA9AF;" width="6.301" height="17.784"/>
	<rect x="215.455" y="335.616" style="fill:#AAA9AF;" width="6.301" height="17.784"/>
	<rect x="279.757" y="153.034" style="fill:#AAA9AF;" width="29.811" height="57.813"/>
</g>
<rect x="276.737" y="210.095" style="fill:#D4D4D6;" width="35.86" height="209.865"/>
<g>
	<rect x="285.807" y="160.985" style="fill:#78777F;" width="6.301" height="17.784"/>
	<rect x="297.217" y="160.985" style="fill:#78777F;" width="6.301" height="17.784"/>
	<rect x="285.807" y="184.14" style="fill:#78777F;" width="6.301" height="17.784"/>
	<rect x="297.217" y="184.14" style="fill:#78777F;" width="6.301" height="17.784"/>
</g>
<g>
	<rect x="285.807" y="218.046" style="fill:#87858E;" width="6.301" height="17.784"/>
	<rect x="297.217" y="218.046" style="fill:#87858E;" width="6.301" height="17.784"/>
	<rect x="285.807" y="241.556" style="fill:#87858E;" width="6.301" height="17.784"/>
	<rect x="297.217" y="241.556" style="fill:#87858E;" width="6.301" height="17.784"/>
	<rect x="285.807" y="265.076" style="fill:#87858E;" width="6.301" height="17.784"/>
	<rect x="297.217" y="265.076" style="fill:#87858E;" width="6.301" height="17.784"/>
	<rect x="285.807" y="288.586" style="fill:#87858E;" width="6.301" height="17.784"/>
	<rect x="297.217" y="288.586" style="fill:#87858E;" width="6.301" height="17.784"/>
	<rect x="285.807" y="312.107" style="fill:#87858E;" width="6.301" height="17.784"/>
	<rect x="297.217" y="312.107" style="fill:#87858E;" width="6.301" height="17.784"/>
	<rect x="285.807" y="335.616" style="fill:#87858E;" width="6.301" height="17.784"/>
	<rect x="297.217" y="335.616" style="fill:#87858E;" width="6.301" height="17.784"/>
</g>
<g>
	<rect x="265.954" y="144.904" style="fill:#57555C;" width="6.29" height="17.784"/>
	<rect x="265.954" y="168.749" style="fill:#57555C;" width="6.29" height="17.784"/>
	<rect x="265.954" y="192.582" style="fill:#57555C;" width="6.29" height="17.784"/>
	<rect x="265.954" y="216.427" style="fill:#57555C;" width="6.29" height="17.784"/>
	<rect x="265.954" y="240.26" style="fill:#57555C;" width="6.29" height="17.784"/>
	<rect x="265.954" y="264.105" style="fill:#57555C;" width="6.29" height="17.784"/>
	<rect x="265.954" y="287.938" style="fill:#57555C;" width="6.29" height="17.784"/>
	<rect x="265.954" y="311.783" style="fill:#57555C;" width="6.29" height="17.784"/>
	<rect x="265.954" y="335.616" style="fill:#57555C;" width="6.29" height="17.784"/>
</g>
<rect x="252.862" y="144.904" style="fill:#78777F;" width="6.301" height="17.784"/>
<rect x="256.007" y="144.904" style="fill:#57555C;" width="3.145" height="17.784"/>
<rect x="252.862" y="168.749" style="fill:#78777F;" width="6.301" height="17.784"/>
<rect x="256.007" y="168.749" style="fill:#57555C;" width="3.145" height="17.784"/>
<rect x="252.862" y="192.582" style="fill:#78777F;" width="6.301" height="17.784"/>
<rect x="256.007" y="192.582" style="fill:#57555C;" width="3.145" height="17.784"/>
<rect x="252.862" y="216.427" style="fill:#78777F;" width="6.301" height="17.784"/>
<rect x="256.007" y="216.427" style="fill:#57555C;" width="3.145" height="17.784"/>
<rect x="252.862" y="240.26" style="fill:#78777F;" width="6.301" height="17.784"/>
<rect x="256.007" y="240.26" style="fill:#57555C;" width="3.145" height="17.784"/>
<rect x="252.862" y="264.105" style="fill:#78777F;" width="6.301" height="17.784"/>
<rect x="256.007" y="264.105" style="fill:#57555C;" width="3.145" height="17.784"/>
<rect x="252.862" y="287.938" style="fill:#78777F;" width="6.301" height="17.784"/>
<rect x="256.007" y="287.938" style="fill:#57555C;" width="3.145" height="17.784"/>
<rect x="252.862" y="311.783" style="fill:#78777F;" width="6.301" height="17.784"/>
<rect x="256.007" y="311.783" style="fill:#57555C;" width="3.145" height="17.784"/>
<rect x="252.862" y="335.616" style="fill:#78777F;" width="6.301" height="17.784"/>
<rect x="256.007" y="335.616" style="fill:#57555C;" width="3.145" height="17.784"/>
<g>
	<rect x="239.769" y="144.904" style="fill:#78777F;" width="6.301" height="17.784"/>
	<rect x="239.769" y="168.749" style="fill:#78777F;" width="6.301" height="17.784"/>
	<rect x="239.769" y="192.582" style="fill:#78777F;" width="6.301" height="17.784"/>
	<rect x="239.769" y="216.427" style="fill:#78777F;" width="6.301" height="17.784"/>
	<rect x="239.769" y="240.26" style="fill:#78777F;" width="6.301" height="17.784"/>
	<rect x="239.769" y="264.105" style="fill:#78777F;" width="6.301" height="17.784"/>
	<rect x="239.769" y="287.938" style="fill:#78777F;" width="6.301" height="17.784"/>
	<rect x="239.769" y="311.783" style="fill:#78777F;" width="6.301" height="17.784"/>
	<rect x="239.769" y="335.616" style="fill:#78777F;" width="6.301" height="17.784"/>
</g>
<g>
	<rect x="265.954" y="359.461" style="fill:#57555C;" width="6.29" height="17.784"/>
	<rect x="265.954" y="383.294" style="fill:#57555C;" width="6.29" height="17.784"/>
</g>
<rect x="252.862" y="359.461" style="fill:#78777F;" width="6.301" height="17.784"/>
<rect x="256.007" y="359.461" style="fill:#57555C;" width="3.145" height="17.784"/>
<rect x="252.862" y="383.294" style="fill:#78777F;" width="6.301" height="17.784"/>
<rect x="256.007" y="383.294" style="fill:#57555C;" width="3.145" height="17.784"/>
<g>
	<rect x="239.769" y="359.461" style="fill:#78777F;" width="6.301" height="17.784"/>
	<rect x="239.769" y="383.294" style="fill:#78777F;" width="6.301" height="17.784"/>
</g>
<rect x="184.579" y="358.468" style="fill:#D4D4D6;" width="46.257" height="61.496"/>
<g>
	<rect x="204.045" y="367.026" style="fill:#AAA9AF;" width="6.301" height="17.784"/>
	<rect x="215.455" y="367.026" style="fill:#AAA9AF;" width="6.301" height="17.784"/>
	<rect x="204.045" y="390.546" style="fill:#AAA9AF;" width="6.301" height="17.784"/>
	<rect x="215.455" y="390.546" style="fill:#AAA9AF;" width="6.301" height="17.784"/>
	<rect x="192.635" y="367.026" style="fill:#AAA9AF;" width="6.301" height="17.784"/>
	<rect x="192.635" y="390.546" style="fill:#AAA9AF;" width="6.301" height="17.784"/>
	<rect x="276.737" y="358.468" style="fill:#AAA9AF;" width="46.257" height="61.496"/>
</g>
<g>
	<rect x="297.217" y="367.026" style="fill:#78777F;" width="6.301" height="17.784"/>
	<rect x="285.807" y="367.026" style="fill:#78777F;" width="6.301" height="17.784"/>
	<rect x="297.217" y="390.546" style="fill:#78777F;" width="6.301" height="17.784"/>
	<rect x="285.807" y="390.546" style="fill:#78777F;" width="6.301" height="17.784"/>
	<rect x="308.627" y="367.026" style="fill:#78777F;" width="6.301" height="17.784"/>
	<rect x="308.627" y="390.546" style="fill:#78777F;" width="6.301" height="17.784"/>
</g>
<circle style="fill:#FFFFFF;" cx="361.488" cy="105.147" r="40.657"/>
<path style="fill:#FFE893;" d="M361.485,64.493v81.315c22.455,0,40.657-18.203,40.657-40.657S383.939,64.493,361.485,64.493z"/>
<g>
</g>
<g>
</g>
<g>
</g>
<g>
</g>
<g>
</g>
<g>
</g>
<g>
</g>
<g>
</g>
<g>
</g>
<g>
</g>
<g>
</g>
<g>
</g>
<g>
</g>
<g>
</g>
<g>
</g>
</svg>
