<?xml version="1.0" encoding="iso-8859-1"?>
<!-- Generator: Adobe Illustrator 19.0.0, SVG Export Plug-In . SVG Version: 6.00 Build 0)  -->
<svg xmlns="http://www.w3.org/2000/svg" xmlns:xlink="http://www.w3.org/1999/xlink" version="1.1" id="Layer_1" x="0px" y="0px" viewBox="0 0 512 512" style="enable-background:new 0 0 512 512;" xml:space="preserve">
<circle style="fill:#FFDB47;" cx="255.996" cy="255.996" r="255.996"/>
<path style="fill:#FFCB00;" d="M512,255.999c0-15.16-1.327-30.009-3.855-44.445l-123.68-123.68  c-9.56-11.985-24.277-19.673-40.798-19.673c-28.814,0-52.172,23.358-52.172,52.172c0,16.522,7.688,31.239,19.673,40.799  l78.78,79.256l-25.49,30.129l-117.316-117.52l-76.473,90.391l-33.733-33.83L30.07,335.912l169.925,169.926  c18.027,4.024,36.765,6.162,56.005,6.162C397.385,512,512,397.385,512,255.999z"/>
<polygon style="fill:#BC6100;" points="395.549,233.81 309.167,335.912 481.93,335.912 "/>
<polygon style="fill:#954B00;" points="357.938,335.912 395.549,233.81 309.167,335.912 "/>
<polygon style="fill:#E27500;" points="247.142,153.038 92.423,335.912 401.86,335.912 "/>
<polygon style="fill:#954B00;" points="179.938,335.912 247.142,153.038 92.423,335.912 "/>
<polygon style="fill:#BC6100;" points="136.936,209.597 30.07,335.912 243.803,335.912 "/>
<polygon style="fill:#954B00;" points="90.516,335.912 136.936,209.597 30.07,335.912 "/>
<path style="fill:#FFA51F;" d="M499.5,335.234c-33.363,102.597-129.764,176.763-243.5,176.763s-210.136-74.166-243.5-176.763  L499.5,335.234L499.5,335.234z"/>
<g>
	<path style="fill:#BC6100;" d="M131.939,395.615c0-13.447-11.002-24.448-24.448-24.448h-6.315   c-13.447,0-24.449,11.002-24.449,24.448v1.62h55.212v-1.62H131.939z"/>
	<rect x="147.329" y="351.645" style="fill:#BC6100;" width="88.94" height="14.628"/>
	<rect x="135.333" y="440.251" style="fill:#BC6100;" width="88.94" height="14.628"/>
	<rect x="210.021" y="405.707" style="fill:#BC6100;" width="45.975" height="14.628"/>
</g>
<path style="fill:#FF8400;" d="M499.5,335.234c-33.363,102.597-129.764,176.763-243.5,176.763V335.234L499.5,335.234L499.5,335.234z  "/>
<g>
	<rect x="299.192" y="384.872" style="fill:#BC6100;" width="88.94" height="14.628"/>
	<rect x="413.429" y="353.4" style="fill:#BC6100;" width="45.975" height="14.628"/>
</g>
<circle style="fill:#FF8400;" cx="343.662" cy="120.371" r="52.172"/>
<path style="fill:#E27500;" d="M343.668,68.202v104.343c28.814,0,52.171-23.358,52.171-52.171  C395.839,91.56,372.481,68.202,343.668,68.202z"/>
<path style="fill:#BC6100;" d="M354.025,455.407c0-13.447-11.002-24.448-24.448-24.448h-6.314  c-13.447,0-24.448,11.002-24.448,24.448v1.62h55.212v-1.62H354.025z"/>
<g>
</g>
<g>
</g>
<g>
</g>
<g>
</g>
<g>
</g>
<g>
</g>
<g>
</g>
<g>
</g>
<g>
</g>
<g>
</g>
<g>
</g>
<g>
</g>
<g>
</g>
<g>
</g>
<g>
</g>
</svg>
