<svg id="Capa_1" enable-background="new 0 0 512 512" height="512" viewBox="0 0 512 512" width="512" xmlns="http://www.w3.org/2000/svg"><path d="m407.046 177.388c-4.615-8.768-11.474-16.155-19.875-21.406l-37.81-23.631c-8.738-5.461-15.8-13.228-20.408-22.444l-26.32-52.64c-4.065-8.131-12.375-13.267-21.466-13.267h-11.865c-8.275 0-15.966 4.263-20.352 11.28l-61.542 98.468c-7.343 11.749-18.781 20.359-32.104 24.166l-16.323 4.664c-12.284 3.51-22.999 11.114-30.366 21.551l-84.615 119.871 456-8z" fill="#bef0ff"/><path d="m407.046 177.387c-4.615-8.768-11.473-16.155-19.876-21.406l-37.809-23.63c-8.737-5.461-15.799-13.226-20.407-22.442l-26.321-52.642c-4.065-8.131-12.376-13.267-21.466-13.267h-11.865c-8.275 0-15.966 4.263-20.352 11.28l-61.542 98.468c-6.043 9.668-14.944 17.034-25.3 21.523 1.438 13.208 16.877 19.794 27.328 11.59 7.177-5.634 13.39-12.505 18.323-20.396l58.569-93.707c1.85-2.96 5.094-4.758 8.584-4.758 3.834 0 7.34 2.166 9.055 5.596l23.522 47.044c6.583 13.166 16.672 24.261 29.155 32.062l37.807 23.626c4.8 2.999 8.717 7.219 11.353 12.227l6.539 12.423c6.234 11.844 20.742 16.602 32.779 10.75z" fill="#fff"/><path d="m414.125 173.66c-5.273-10.012-13.125-18.469-22.715-24.465l-37.809-23.629c-7.492-4.684-13.543-11.336-17.492-19.238l-26.32-52.641c-5.457-10.91-16.426-17.687-28.621-17.687h-11.867c-11.105 0-21.25 5.621-27.137 15.043l-61.543 98.465c-6.305 10.086-16.078 17.445-27.516 20.715l-16.32 4.664c-13.988 3.992-26.313 12.742-34.703 24.629l-84.617 119.871 326.535 28.613 143.078-35.727zm-117.789 75.862-12.084 6.905c-13.081 7.475-28.379 10.095-43.202 7.4l-133.705-24.31c-5.752-1.046-8.476-7.708-5.105-12.484l12.911-18.291c6.293-8.914 15.535-15.477 26.027-18.473l16.324-4.664c15.25-4.359 28.281-14.168 36.688-27.621l61.543-98.465c2.941-4.707 8.016-7.52 13.566-7.52h11.867c6.059 0 11.598 3.423 14.308 8.843l26.321 52.641c5.27 10.539 13.336 19.406 23.328 25.652l37.805 23.625c7.191 4.5 13.082 10.844 17.039 18.352l40.015 76.029c3.293 6.256-2.554 13.396-9.337 11.401l-84.498-24.852c-16.704-4.913-34.692-2.807-49.811 5.832z" fill="#a7d9ff"/><path d="m512 327.323-103.412-41.139c-21.079-6.587-43.784-5.705-64.288 2.496l-22.652 9.061c-16.759 6.703-35.068 8.547-52.826 5.318l-120.392-21.89c-18.542-3.371-37.667-1.21-54.989 6.214l-93.441 47.87v28.747l31.004 16 443.99 7.385 37.006-39.385z" fill="#4be1c8"/><path d="m512 327.323c0-9.99-6.472-18.83-15.997-21.846l-85.031-26.93c-22.773-7.109-47.504-6.148-69.645 2.707l-22.661 9.062c-15.36 6.142-32.141 7.831-48.417 4.871l-120.391-21.891c-20.137-3.672-40.746-1.336-59.512 6.707l-76.296 32.003c-8.511 3.571-14.05 11.901-14.05 21.132v2.115l96.594-40.519c15.926-6.828 33.359-8.785 50.406-5.695l120.391 21.891c19.258 3.508 39.051 1.52 57.23-5.762l22.652-9.063c18.727-7.488 39.656-8.305 58.898-2.297z" fill="#4bbeaf"/><path d="m512 380-43.889-24c-7.897 0-15.617 2.338-22.188 6.718l-3.846 2.564c-6.571 4.38-14.291 6.718-22.188 6.718h-98.934c-11.056 0-21.864-3.273-31.063-9.405l-19.784-13.19c-9.199-6.133-20.008-9.405-31.064-9.405h-118.048c-11.138 0-22.083 2.907-31.753 8.432l-26.486 15.135c-9.671 5.526-20.615 8.433-31.753 8.433l-31.004 24v16c0 8.837 7.163 16 16 16h83.055l86.195-12.5 67.695 12.5h78.11l55.195-9.25 50.695 9.25h59.055c8.837 0 16-7.163 16-16z" fill="#4bbeaf"/><path d="m468.111 356c-7.897 0-15.617 2.337-22.188 6.718l-3.846 2.564c-6.571 4.381-14.291 6.718-22.188 6.718h-98.934c-11.056 0-21.864-3.272-31.063-9.405l-19.784-13.189c-9.199-6.134-20.008-9.406-31.064-9.406h-118.048c-11.138 0-22.083 2.906-31.753 8.432l-26.486 15.135c-9.671 5.526-20.615 8.433-31.753 8.433l-31.004 8v16h31.004c15.289 0 30.387-4.012 43.66-11.594l26.488-15.137c6.031-3.445 12.895-5.27 19.844-5.27h118.047c6.34 0 12.48 1.859 17.754 5.375l19.781 13.188c13.188 8.793 28.531 13.438 44.379 13.438h98.934c12.684 0 24.961-3.719 35.5-10.75l3.848-2.566c2.633-1.754 5.703-2.684 8.871-2.684h43.89v-16z" fill="#4be1c8"/><path d="m428 428 12-24h-112l12 24z" fill="#6bb2ff"/><path d="m419.89 380h-98.934c-12.68 0-24.953-3.719-35.504-10.75l-19.781-13.188c-7.91-5.273-17.121-8.062-26.629-8.062h-118.046c-9.73 0-19.336 2.551-27.785 7.379l-26.484 15.133c-10.86 6.207-23.215 9.488-35.723 9.488h-31.004v-16h31.004c9.73 0 19.336-2.551 27.785-7.379l26.484-15.133c10.859-6.207 23.215-9.488 35.723-9.488h118.047c12.68 0 24.953 3.719 35.504 10.75l19.781 13.187c7.91 5.273 17.121 8.063 26.629 8.063h98.934c6.34 0 12.477-1.859 17.746-5.375l3.848-2.563c7.906-5.273 17.113-8.062 26.625-8.062h43.89v16h-43.891c-6.34 0-12.477 1.859-17.746 5.375l-3.848 2.563c-7.906 5.273-17.113 8.062-26.625 8.062z" fill="#4c6fa5"/><path d="m384 324-40 80h80z" fill="#fff"/><path d="m184 372v-120l-72 120z" fill="#fff"/><path d="m184 372v-88l56 88z" fill="#bef0ff"/><path d="m244 428 12-24h-160l12 24z" fill="#4c6fa5"/><circle cx="480" cy="404" fill="#4be1c8" r="8"/><circle cx="328" cy="340" fill="#4bbeaf" r="8"/><circle cx="64" cy="412" fill="#4be1c8" r="8"/><path d="m56 452c0 13.255 10.745 24 24 24h352c13.255 0 24-10.745 24-24z" fill="#a7d9ff"/><path d="m496 460h-480c-4.418 0-8-3.582-8-8 0-4.418 3.582-8 8-8h480c4.418 0 8 3.582 8 8 0 4.418-3.582 8-8 8z" fill="#6bb2ff"/><path d="m262.805 399.793c-1.457-2.356-4.032-3.793-6.805-3.793h-64v-16h48c2.918 0 5.609-1.59 7.012-4.148 1.406-2.563 1.305-5.684-.262-8.148l-54.75-86.032v-29.672c0-3.598-2.398-6.75-5.863-7.711-3.473-.953-7.145.508-8.996 3.594l-72 120c-1.484 2.473-1.523 5.551-.102 8.059 1.418 2.508 4.078 4.059 6.961 4.059h64v16h-80c-2.773 0-5.348 1.438-6.805 3.793-1.457 2.359-1.59 5.305-.352 7.785l10.212 20.421h17.891l-8-16h134.109l-8 16h17.891l10.211-20.422c1.237-2.48 1.105-5.426-.352-7.785zm-70.805-88.32 33.426 52.527h-33.426zm-65.871 52.527 49.871-83.117v3.25 79.867z" fill="#2d2d4b"/><path d="m446.805 399.793c-1.458-2.356-4.032-3.793-6.805-3.793h-11.055l-37.789-75.578c-2.711-5.422-11.602-5.422-14.313 0l-37.788 75.578h-11.055c-2.773 0-5.348 1.438-6.805 3.793-1.457 2.359-1.59 5.305-.352 7.785l10.212 20.422h17.891l-8-16h3.247c.029-.001 82.862 0 82.862 0l-8 16h17.891l10.211-20.422c1.237-2.48 1.105-5.426-.352-7.785zm-62.805-57.906 27.055 54.113h-54.11z" fill="#4c6fa5"/></svg>