<svg id="Capa_1" enable-background="new 0 0 512 512" height="512" viewBox="0 0 512 512" width="512" xmlns="http://www.w3.org/2000/svg"><path d="m392 204h-272c-35.346 0-64 28.654-64 64v128h400v-128c0-35.346-28.654-64-64-64z" fill="#bef0ff"/><path d="m448 252h-384c-35.346 0-64 28.654-64 64v120l15 8h483.333l13.667-8v-120c0-35.346-28.654-64-64-64z" fill="#a7d9ff"/><path d="m159.144 308h-7.144v-8c0-13.255-10.745-24-24-24h-32c-8.836 0-16 7.163-16 16h-6.642c-12.996 0-24.644 9.731-25.324 22.709-.725 13.841 10.283 25.291 23.966 25.291h88c9.717 0 17.412-8.663 15.781-18.687-1.28-7.867-8.667-13.313-16.637-13.313z" fill="#aad264"/><path d="m56 332h72c0-8.837-7.163-16-16-16h-56z" fill="#8cbe69"/><path d="m160 348h-88c-8.738 0-17.199-3.637-23.215-9.977-6.102-6.43-9.203-14.857-8.738-23.734.89-16.985 15.523-30.289 33.312-30.289h.012c3.301-9.313 12.199-16 22.629-16h32c17.645 0 32 14.355 32 32v.014c11.762.395 21.863 8.865 23.676 20.014 1.145 7.033-.82 14.146-5.391 19.518-4.57 5.372-11.234 8.454-18.285 8.454zm-86.641-48c-9.121 0-16.898 6.785-17.336 15.127-.234 4.451 1.316 8.67 4.367 11.885 3.055 3.216 7.176 4.988 11.61 4.988h88c2.352 0 4.574-1.029 6.098-2.822 1.547-1.816 2.18-4.154 1.789-6.582-.605-3.697-4.445-6.596-8.742-6.596h-7.145c-4.418 0-8-3.582-8-8v-8c0-8.822-7.176-16-16-16h-32c-4.41 0-8 3.588-8 8 0 4.418-3.582 8-8 8z" fill="#6ea573"/><path d="m408 340h-16c-4.418 0-8-3.578-8-8s3.582-8 8-8h16c4.41 0 8-3.586 8-8v-32c0-4.422 3.582-8 8-8s8 3.578 8 8v32c0 13.234-10.766 24-24 24z" fill="#3c7864"/><path d="m392 396c-4.418 0-8-3.578-8-8v-80c0-4.422 3.582-8 8-8s8 3.578 8 8v80c0 4.422-3.582 8-8 8z" fill="#3c7864"/><path d="m439.143 268h-7.143v-8c0-13.255-10.745-24-24-24h-32c-8.836 0-16 7.163-16 16h-6.642c-12.996 0-24.644 9.731-25.324 22.709-.725 13.841 10.283 25.291 23.966 25.291h88c9.717 0 17.412-8.663 15.781-18.687-1.28-7.867-8.667-13.313-16.638-13.313z" fill="#aad264"/><path d="m336 292h72c0-8.837-7.163-16-16-16h-56z" fill="#8cbe69"/><path d="m440 308h-88c-8.738 0-17.199-3.637-23.215-9.977-6.102-6.43-9.203-14.857-8.738-23.734.89-16.984 15.523-30.289 33.312-30.289h.012c3.301-9.312 12.199-16 22.629-16h32c17.645 0 32 14.355 32 32v.014c11.762.395 21.863 8.865 23.676 20.014 1.145 7.033-.82 14.146-5.391 19.518-4.57 5.372-11.234 8.454-18.285 8.454zm-86.641-48c-9.121 0-16.898 6.785-17.336 15.127-.234 4.451 1.316 8.67 4.367 11.885 3.055 3.216 7.176 4.988 11.61 4.988h88c2.352 0 4.574-1.029 6.098-2.822 1.547-1.816 2.18-4.154 1.789-6.582-.605-3.697-4.445-6.596-8.742-6.596h-7.145c-4.418 0-8-3.582-8-8v-8c0-8.822-7.176-16-16-16h-32c-4.41 0-8 3.588-8 8 0 4.418-3.582 8-8 8z" fill="#6ea573"/><path d="m104 420c-4.418 0-8-3.578-8-8v-80c0-4.422 3.582-8 8-8s8 3.578 8 8v80c0 4.422-3.582 8-8 8z" fill="#3c7864"/><circle cx="320" cy="364" fill="#6ea573" r="40"/><path d="m224 284c-17.131 0-31.632 10.822-37.332 25.96-3.352-1.192-6.908-1.96-10.668-1.96-17.673 0-32 14.327-32 32s14.327 32 32 32c11.12 0 20.899-5.682 26.634-14.29 6.192 3.933 13.487 6.29 21.366 6.29 22.091 0 40-17.909 40-40s-17.909-40-40-40z" fill="#6ea573"/><path d="m224 284c-17.131 0-31.632 10.822-37.332 25.96-3.352-1.192-6.908-1.96-10.668-1.96-17.673 0-32 14.327-32 32 0 15.637 11.23 28.609 26.057 31.401-.126-8.249 1.952-16.515 6.207-23.443-.097.003-.165.042-.264.042-4.41 0-8-3.586-8-8s3.59-8 8-8c.676 0 1.551.188 2.605.563 12.336 4.422 25.914-1.883 30.523-14.148 2.384-6.329 8.22-10.415 14.872-10.415 8.824 0 16 7.18 16 16 0 5.936-3.288 11.068-8.102 13.83 6.692 4.948 11.178 12.031 13.506 19.86 11.15-7.099 18.596-19.493 18.596-33.69 0-22.092-17.909-40-40-40z" fill="#8cbe69"/><path d="m320 412c-26.469 0-48-21.533-48-48s21.531-48 48-48 48 21.533 48 48-21.531 48-48 48zm0-80c-17.645 0-32 14.355-32 32s14.355 32 32 32 32-14.355 32-32-14.356-32-32-32z" fill="#3c7864"/><path d="m176 380c-22.055 0-40-17.943-40-40s17.945-40 40-40c2.086 0 4.164.178 6.262.539 8.402-14.922 24.386-24.539 41.738-24.539 26.469 0 48 21.533 48 48s-21.531 48-48 48c-6.648 0-13.219-1.416-19.32-4.135-7.465 7.697-17.758 12.135-28.68 12.135zm0-64c-13.234 0-24 10.766-24 24s10.766 24 24 24c8.035 0 15.5-4.01 19.977-10.725 2.41-3.623 7.273-4.65 10.945-2.318 5.195 3.299 11.101 5.043 17.078 5.043 17.645 0 32-14.355 32-32s-14.355-32-32-32c-13.172 0-25.164 8.352-29.844 20.779-1.539 4.08-6.074 6.168-10.172 4.719-2.828-1.008-5.441-1.498-7.984-1.498z" fill="#3c7864"/><path d="m257.168 228h-9.168c-4.418 0-8-3.582-8-8s3.582-8 8-8h9.168c6.098 0 11.582-3.389 14.309-8.846l9.367-18.732c1.977-3.947 6.77-5.559 10.734-3.578 3.953 1.977 5.555 6.783 3.578 10.734l-9.367 18.732c-5.457 10.912-16.426 17.69-28.621 17.69z" fill="#2d2d4b"/><path d="m247.992 252.002c-1.199 0-2.422-.271-3.57-.846l-20.074-10.037c-9.23-4.617-16.855-12.24-21.465-21.469l-18.039-36.072c-1.977-3.951-.375-8.758 3.578-10.734 3.961-1.984 8.762-.371 10.734 3.578l18.039 36.074c3.074 6.152 8.156 11.234 14.309 14.311l20.074 10.037c3.953 1.977 5.555 6.781 3.578 10.734-1.402 2.803-4.226 4.424-7.164 4.424z" fill="#2d2d4b"/><path d="m345.111 127.221c-6.036-2.307-11.916-3.272-17.546-3.219-4.667.044-8.46-4.068-7.96-8.708 1.277-11.857-.394-24.591-7.104-38.041-11.356-22.764-33.572-39.133-58.94-41.043-26.102-1.965-49.467 10.037-63.572 29.267-1.818 2.479-4.794 3.831-7.8 3.19-1.998-.426-4.062-.667-6.189-.667-17.673 0-32 14.327-32 32 0 .922.195 1.789.271 2.69-21.635 7.512-36.264 30.006-31.301 55.105 3.641 18.412 18.451 33.369 36.834 37.154 21.41 4.407 40.977-5.46 51.044-21.814 2.348-3.815 7.12-5.211 10.986-2.948 10.626 6.217 22.964 9.813 36.166 9.813 7.797 0 15.286-1.271 22.306-3.583 4.593-1.513 9.757.87 10.76 5.6 4.606 21.7 23.861 37.983 46.934 37.983 29.01 0 52.009-25.735 47.413-55.621-2.578-16.761-14.463-31.103-30.302-37.158z" fill="#6ea573"/><path d="m375.412 164.378c-2.577-16.755-14.455-31.094-30.288-37.152-6.04-2.311-11.925-3.277-17.56-3.224-4.667.044-8.46-4.068-7.96-8.708 1.277-11.858-.394-24.593-7.106-38.044-11.357-22.762-33.572-39.13-58.938-41.04-26.102-1.965-49.467 10.037-63.572 29.267-1.818 2.479-4.793 3.831-7.8 3.19-1.997-.426-4.061-.667-6.188-.667-17.673 0-32 14.327-32 32 0 .922.195 1.789.271 2.69-21.651 7.518-36.286 30.04-31.289 55.162 3.658 18.393 18.456 33.316 36.824 37.096 21.446 4.414 41.043-5.495 51.095-21.899 2.359-3.85 7.15-5.065 11.053-2.794 3.791 2.206 7.861 3.945 12.047 5.443 0 0 .003-8.206.004-15.685.001-8.93-7.315-16.418-16.237-16.036-10.759.46-21.216 6.608-27.361 16.578-4.042 6.58-13.113 13.368-25.47 10.942-9.169-1.8-16.619-9.198-18.426-18.366-2.662-13.503 5.547-24.018 15.165-27.603 9.652-3.598 16.665-12.095 16.61-22.395-.009-1.581-.092-2.583-.249-3.883.377-4.063 3.807-7.25 7.963-7.25.359 0 .762.047 1.188.141 12.098 2.578 24.715-2.32 32.152-12.469 9.895-13.484 25.734-20.766 42.426-19.531 16.262 1.227 31.305 11.883 39.258 27.82 4.09 8.195 5.633 16.297 4.719 24.766-.969 9 1.984 18.031 8.098 24.773 6.141 6.766 14.961 10.539 23.926 10.5 2.957-.141 5.82.516 8.777 1.641 7.953 3.039 13.898 10.258 15.148 18.383 1.113 7.227-.828 14.187-5.465 19.594-7.127 8.308-19.296 11.089-30.037 5.379-6.291-3.344-10.162-9.746-11.807-16.679-1.995-8.409-7.415-15.675-14.964-20.021-.053-.031-.106-.061-.16-.091-9.235-5.243-17.259.034-17.259 10.653v9.348c4.094-.516 8.185 1.655 9.066 5.81 4.606 21.7 23.861 37.983 46.934 37.983 29.01 0 52.009-25.735 47.412-55.622z" fill="#8cbe69"/><path d="m328 228c-26.277 0-49.309-18.641-54.758-44.322-22.605 7.965-45.957 4.816-65.445-6.586-12.652 20.564-36.004 30.535-59.605 25.693-21.5-4.428-38.809-21.883-43.07-43.437-5.125-25.937 7.742-51.07 30.961-61.953 1.347-20.848 18.737-37.395 39.917-37.395 2.594 0 5.238.283 7.855.842 16.152-22.547 42.52-34.703 70.309-32.609 27.445 2.066 52.543 19.48 65.496 45.449 6.809 13.646 9.465 27.936 7.898 42.471 6.852-.213 13.738 1.045 20.406 3.596 18.793 7.184 32.344 23.818 35.355 43.414 2.516 16.365-2.152 32.871-12.805 45.289-10.659 12.423-26.155 19.548-42.514 19.548zm-54.867-60.039c2.898 0 5.766.744 8.301 2.201 3.891 2.238 6.539 5.857 7.457 10.195 3.894 18.334 20.339 31.643 39.109 31.643 11.684 0 22.754-5.092 30.371-13.969 7.723-9 10.969-20.52 9.137-32.437-2.109-13.713-12.023-25.842-25.254-30.9-4.793-1.83-9.555-2.793-14.613-2.691-4.41-.045-8.887-1.877-11.953-5.26-3.047-3.361-4.516-7.846-4.035-12.305 1.25-11.604-.816-22.598-6.313-33.613-10.449-20.953-30.52-34.992-52.379-36.639-22.188-1.652-43.34 8.055-56.523 26.023-3.723 5.082-9.984 7.551-15.918 6.281-15.196-3.242-28.516 8.805-28.52 23.51l.242 2.035c.301 3.639-1.902 7.016-5.348 8.213-19.07 6.623-30.035 25.965-26.078 45.996 3.031 15.318 15.328 27.725 30.602 30.869 16.957 3.486 33.672-3.648 42.617-18.172 4.684-7.604 14.281-10.084 21.844-5.658 15.559 9.107 34.777 11.178 51.922 5.535 1.742-.574 3.543-.857 5.332-.857z" fill="#3c7864"/><path d="m256 242.035v-86.035c0-4.418-3.582-8-8-8-4.418 0-8 3.582-8 8v224h32v-64c0-8.599-1.386-17.141-4.105-25.298l-7.789-23.368c-2.72-8.158-4.106-16.7-4.106-25.299z" fill="#2d2d4b"/><path d="m24 444 37.632-37.632c6.855-6.855 14.899-12.407 23.739-16.385l133.431-60.044c8.39-3.775 17.998-3.757 26.373.05l62.385 28.357c7.946 3.612 17.022 3.821 25.126.58l4.82-1.928c13.827-5.531 29.581-2.923 40.887 6.769l93.607 80.233" fill="#6ea573"/><path d="m378.394 363.766c-11.307-9.691-27.061-12.299-40.888-6.769l-4.819 1.928c-8.104 3.241-17.181 3.032-25.126-.58l-62.385-28.357c-8.375-3.807-17.984-3.825-26.373-.05l-133.432 60.045c-8.84 3.978-16.884 9.53-23.739 16.385l-37.632 37.632h33.939l20.658-20.656c4.824-4.82 10.414-8.68 16.621-11.477l133.426-60.039c2.102-.945 4.508-.945 6.602.016l62.371 28.344c13.82 6.297 29.863 6.648 43.957 1.031l4.848-1.938c5.543-2.219 11.813-1.18 16.355 2.703l72.351 62.016h36.872z" fill="#8cbe69"/><path d="m471.996 452c-1.844 0-3.695-.633-5.203-1.926l-93.605-80.234c-9.078-7.781-21.617-9.859-32.707-5.414l-4.824 1.928c-10.082 4.029-21.523 3.764-31.402-.725l-62.387-28.357c-6.281-2.854-13.488-2.865-19.785-.037l-133.43 60.043c-7.98 3.594-15.168 8.555-21.363 14.748l-37.633 37.631c-3.125 3.125-8.187 3.125-11.312 0-3.125-3.123-3.125-8.189 0-11.313l37.633-37.633c7.57-7.568 16.355-13.633 26.109-18.023l133.434-60.043c10.48-4.723 22.5-4.697 32.965.061l62.387 28.357c5.934 2.697 12.801 2.855 18.848.436l4.82-1.928c16.641-6.66 35.445-3.549 49.063 8.121l93.605 80.234c3.355 2.875 3.742 7.926.867 11.281-1.584 1.845-3.826 2.793-6.08 2.793z" fill="#3c7864"/><path d="m56 460c0 13.255 10.745 24 24 24h352c13.255 0 24-10.745 24-24z" fill="#6ea573"/><path d="m16 468h480c8.836 0 16-7.164 16-16l-17.667-8h-480.666l-13.667 8c0 8.836 7.164 16 16 16z" fill="#3c7864"/><path d="m401.861 423.907-21.249-14.166c-13.128-8.752-29.339-11.56-44.645-7.733l-19.87 4.967c-12.969 3.242-26.669 1.738-38.626-4.24l-27.901-13.951c-11.374-5.687-24.344-7.333-36.778-4.669l-79.866 17.114c-8.501 1.822-16.461 5.597-23.249 11.028l-16.529 13.223c-8.511 6.81-19.086 10.52-29.986 10.52h-63.162v16h512v-16h-70.2c-14.215 0-28.111-4.208-39.939-12.093z" fill="#2d2d4b"/><circle cx="200" cy="116" fill="#3c7864" r="8"/><circle cx="264" cy="84" fill="#8cbe69" r="8"/><circle cx="336" cy="164" fill="#ffc878" r="8"/><circle cx="228" cy="416" fill="#3c7864" r="12"/><circle cx="160" cy="420" fill="#6ea573" r="8"/><g fill="#3c7864"><circle cx="352" cy="428" r="8"/><circle cx="264" cy="372" r="8"/></g></svg>