<svg id="Capa_1" enable-background="new 0 0 512 512" height="512" viewBox="0 0 512 512" width="512" xmlns="http://www.w3.org/2000/svg"><path d="m480 256h-448v-80c0-35.346 28.654-64 64-64h320c35.346 0 64 28.654 64 64z" fill="#c8f5f0"/><g fill="#9be7ee"><path d="m368 200h-64c-8.837 0-16-7.163-16-16 0-8.837 7.163-16 16-16h64c8.837 0 16 7.163 16 16 0 8.837-7.164 16-16 16z"/><path d="m248 200h-16c-8.837 0-16-7.163-16-16 0-8.837 7.163-16 16-16h16c8.837 0 16 7.163 16 16 0 8.837-7.164 16-16 16z"/><path d="m480 216h-448c-17.673 0-32 14.327-32 32v64l500.107 79.468c6.846-1.813 11.893-8.051 11.893-15.468v-128c0-17.673-14.327-32-32-32z"/></g><path d="m440 280h-48c-8.837 0-16-7.163-16-16 0-8.837 7.163-16 16-16h48c8.837 0 16 7.163 16 16 0 8.836-7.164 16-16 16z" fill="#c8f5f0"/><path d="m112 280h-64c-8.837 0-16-7.163-16-16 0-8.837 7.163-16 16-16h64c8.837 0 16 7.163 16 16 0 8.836-7.163 16-16 16z" fill="#c8f5f0"/><path d="m87.844 318.432-16-80c-.746-3.741-4.031-6.432-7.844-6.432-3.812 0-7.098 2.691-7.844 6.432l-16 80c-.473 2.35.137 4.787 1.656 6.641s3.79 2.927 6.188 2.927h32c2.398 0 4.668-1.074 6.187-2.928s2.129-4.291 1.657-6.64z" fill="#3c8c82"/><path d="m199.844 318.432-16-80c-.746-3.74-4.031-6.432-7.844-6.432s-7.098 2.691-7.844 6.432l-16 80c-.473 2.35.137 4.787 1.656 6.641s3.79 2.927 6.188 2.927h32c2.398 0 4.668-1.074 6.188-2.928s2.128-4.291 1.656-6.64z" fill="#3c8c82"/><path d="m143.844 286.432-16-80c-.746-3.74-4.031-6.432-7.844-6.432s-7.098 2.691-7.844 6.432l-16 80c-.473 2.35.137 4.787 1.656 6.641s3.79 2.927 6.188 2.927h8v24c0 4.418 3.582 8 8 8s8-3.582 8-8v-24h8c2.398 0 4.668-1.074 6.188-2.928s2.128-4.291 1.656-6.64z" fill="#3c8c82"/><path d="m16 384-16-8v-48l248-8-16 64z" fill="#ffa578"/><path d="m0 376c0 8.836 7.164 16 16 16h152v-16z" fill="#d26e55"/><path d="m0 312h267.5v16h-267.5z" fill="#fccd9b"/><path d="m248 192-24 96h48z" fill="#3c8c82"/><path d="m272 296h-48c-2.465 0-4.789-1.135-6.305-3.076s-2.055-4.475-1.457-6.863l24-96c.891-3.563 4.09-6.061 7.762-6.061s6.871 2.498 7.762 6.061l24 96c.598 2.389.059 4.922-1.457 6.863s-3.84 3.076-6.305 3.076zm-37.754-16h27.508l-13.754-55.016z" fill="#3c576c"/><path d="m248 344c-4.418 0-8-3.582-8-8v-48c0-4.418 3.582-8 8-8s8 3.582 8 8v48c0 4.418-3.582 8-8 8z" fill="#3c576c"/><path d="m384 128-32 112h64z" fill="#69b47d"/><path d="m423.691 237.803-32-112c-.98-3.436-4.121-5.803-7.691-5.803s-6.711 2.367-7.691 5.803l-32 112c-.691 2.414-.207 5.01 1.305 7.016 1.512 2.004 3.875 3.182 6.387 3.182h24v24c0 4.418 3.582 8 8 8s8-3.582 8-8v-24h24c2.512 0 4.875-1.178 6.387-3.182 1.51-2.007 1.995-4.602 1.303-7.016zm-61.086-5.803 21.395-74.879 21.394 74.879z" fill="#3c576c"/><path d="m352 80-32 160h64z" fill="#3c8c82"/><path d="m352 80-12 60 20 100h24z" fill="#69b47d"/><path d="m391.844 238.432-32-160c-.746-3.741-4.032-6.432-7.844-6.432s-7.098 2.691-7.844 6.432l-32 160c-.473 2.35.137 4.787 1.656 6.641s3.789 2.927 6.188 2.927h24v24c0 4.418 3.582 8 8 8s8-3.582 8-8v-24h24c2.398 0 4.668-1.074 6.188-2.928s2.128-4.291 1.656-6.64zm-62.086-6.432 22.242-111.207 22.242 111.207z" fill="#3c576c"/><path d="m481.566 392-16.166-40.96c-5.848-9.356-16.103-15.04-27.136-15.04h1.736l-9.367-18.733c-4.065-8.131-12.375-13.267-21.466-13.267h-1.167v-16c0-8.837-7.164-16-16-16h-56c-10.072 0-19.557 4.742-25.6 12.8l-14.4 19.2c-10.072 0-19.557 4.742-25.6 12.8l-14.4 19.2h-8c-10.072 0-19.557 4.742-25.601 12.8l-14.399 19.2 251.2 24z" fill="#ffa578"/><path d="m384 336v-8c0-13.255-10.745-24-24-24h-68c-7.554 0-14.667 3.557-19.2 9.6l-16.8 22.4z" fill="#d26e55"/><path d="m459.2 392-12.209-20.348c-4.337-7.229-12.149-11.652-20.58-11.652h-212.411l-6 8h-60c-7.554 0-14.667 3.557-19.2 9.6l-10.8 14.4z" fill="#d26e55"/><path d="m472.183 346.797c-6.101-9.757-15.863-16.24-26.928-18.177l-7.466-14.931c-4.414-8.824-12.434-14.945-21.789-16.965v-8.724c0-13.234-10.766-24-24-24h-56c-12.523 0-24.488 5.982-32 16l-12.173 16.233c-10.969 1.167-21.156 6.87-27.827 15.767l-11.998 16h-4.002c-12.523 0-24.488 5.98-32 16l-14.398 19.199c-2.652 3.535-1.938 8.551 1.598 11.199 3.555 2.672 8.555 1.938 11.199-1.598l14.398-19.199c4.508-6.011 11.687-9.601 19.203-9.601h190.266c8.328 0 15.934 4.215 20.348 11.277l22.952 36.723h14.434c1.415 0 2.8-.191 4.106-.535zm-195.386-25.197c4.508-6.01 11.688-9.6 19.203-9.6h48c4.418 0 8-3.582 8-8s-3.582-8-8-8h-32.003l4.8-6.4c4.508-6.01 11.688-9.6 19.203-9.6h56c4.41 0 8 3.588 8 8v16c0 4.418 3.582 8 8 8h1.168c6.098 0 11.582 3.389 14.309 8.846l3.578 7.154h-155.058z" fill="#73374b"/><path d="m56 416c0 13.255 10.745 24 24 24h352c13.255 0 24-10.745 24-24z" fill="#a7d9ff"/><path d="m496 424h-480c-4.418 0-8-3.582-8-8 0-4.418 3.582-8 8-8h480c4.418 0 8 3.582 8 8 0 4.418-3.582 8-8 8z" fill="#6bb2ff"/><path d="m320 360h-168c-12.523 0-24.488 5.98-32 16l-11.999 16h19.998l4.798-6.398c4.508-6.012 11.687-9.602 19.203-9.602h168c4.418 0 8-3.582 8-8s-3.582-8-8-8z" fill="#2d2d4b"/><circle cx="352" cy="368" fill="#73374b" r="8"/></svg>