<?xml version="1.0" encoding="iso-8859-1"?>
<!-- Generator: Adobe Illustrator 19.0.0, SVG Export Plug-In . SVG Version: 6.00 Build 0)  -->
<svg xmlns="http://www.w3.org/2000/svg" xmlns:xlink="http://www.w3.org/1999/xlink" version="1.1" id="Layer_1" x="0px" y="0px" viewBox="0 0 512 512" style="enable-background:new 0 0 512 512;" xml:space="preserve">
<circle style="fill:#00A2FF;" cx="256" cy="255.996" r="255.996"/>
<path style="fill:#0084FF;" d="M511.121,277.23L258.972,25.08h-5.932v25.048h-3.896l-6.862,7.849v5.967h-2.729v9.264h-2.819v15.767  l4.084,7.686v3.794c0,20.212-2.063,43.7-4.885,66.387l-23.446-22.371c-2.221-4.817-7.091-8.189-12.719-8.189h-76.388  c-7.705,0-14.009,6.304-14.009,14.009c0,3.604,1.391,6.89,3.647,9.379H79.798c-7.705,0-14.009,6.304-14.009,14.009  c0,5.629,3.371,10.497,8.189,12.719l129.126,129.995c-3.697,9.082-7.771,18.44-11.991,27.003h-14.089v16.245h6.899v4.765  l-36.569,79.897l63.771,63.771c14.572,2.577,29.567,3.926,44.879,3.926C390.238,512,500.327,408.681,511.121,277.23z"/>
<path style="fill:#00B764;" d="M256.003,512c97.774,0,182.734-54.821,225.851-135.395H30.153C73.27,457.179,158.229,512,256.003,512  z"/>
<path style="fill:#008849;" d="M256,376.605V512c0.001,0,0.002,0,0.003,0c97.774,0,182.734-54.821,225.851-135.395L256,376.605  L256,376.605z"/>
<g>
	<rect x="307.189" y="389.219" style="fill:#007539;" width="68.262" height="14.628"/>
	<rect x="274.432" y="457.189" style="fill:#007539;" width="68.262" height="14.628"/>
</g>
<rect x="253.043" y="25.077" style="fill:#BB957D;" width="5.932" height="25.85"/>
<rect x="256" y="25.077" style="fill:#9D7852;" width="2.966" height="25.85"/>
<polygon style="fill:#DAC8B8;" points="242.282,64.391 242.282,57.978 249.143,50.129 262.867,50.129 269.729,57.978   269.729,64.391 "/>
<polygon style="fill:#C4A98D;" points="269.729,64.391 269.729,57.977 262.867,50.129 256.005,50.129 256.005,64.391 "/>
<path style="fill:#DAC8B8;" d="M256.005,381.192c35.406,0,64.109,26.979,64.109,60.258c0,0.957-0.03,1.907-0.076,2.853h44.617  l-39.575-86.465H186.928l-39.575,86.465h44.62c-0.047-0.946-0.076-1.895-0.076-2.853  C191.896,408.171,220.599,381.192,256.005,381.192z"/>
<path style="fill:#C4A98D;" d="M364.654,444.303l-39.575-86.465h-69.073v23.354c35.406,0,64.109,26.979,64.109,60.258  c0,0.957-0.03,1.907-0.076,2.853H364.654z"/>
<path style="fill:#DAC8B8;" d="M267.576,261.499h24.327c0,0-20.71-96.986-20.71-161.042v-5.322h-30.375v5.322  c0,64.056-20.71,161.042-20.71,161.042h24.319l11.575-61.794L267.576,261.499z"/>
<path style="fill:#C4A98D;" d="M267.576,261.499h24.327c0,0-20.71-96.986-20.71-161.042v-5.322h-15.187v104.592L267.576,261.499z"/>
<path style="fill:#DAC8B8;" d="M291.903,269.96h-71.795c0,0-16.062,49.924-33.179,81.559h138.154  C307.965,319.885,291.903,269.96,291.903,269.96z M230.397,323.608l11.379-47.957h28.451l11.379,47.957H230.397z"/>
<path style="fill:#C4A98D;" d="M270.227,275.651l11.379,47.957h-25.601v27.911h69.077c-17.117-31.635-33.179-81.559-33.179-81.559  h-35.897v5.691H270.227z"/>
<rect x="239.554" y="63.947" style="fill:#BB957D;" width="32.906" height="9.477"/>
<rect x="256" y="63.947" style="fill:#9D7852;" width="16.453" height="9.477"/>
<polygon style="fill:#BB957D;" points="236.733,73.209 236.733,88.977 240.818,96.663 271.193,96.663 275.278,88.977   275.278,73.209 "/>
<polygon style="fill:#9D7852;" points="256.005,73.209 256.005,96.663 271.193,96.663 275.278,88.976 275.278,73.209 "/>
<rect x="236.732" y="73.204" style="fill:#DAC8B8;" width="38.545" height="15.767"/>
<rect x="256" y="73.204" style="fill:#C4A98D;" width="19.272" height="15.767"/>
<rect x="204.529" y="260.657" style="fill:#BB957D;" width="102.952" height="16.244"/>
<rect x="256" y="260.657" style="fill:#9D7852;" width="51.481" height="16.244"/>
<rect x="177.028" y="343.401" style="fill:#BB957D;" width="157.965" height="16.245"/>
<rect x="256" y="343.401" style="fill:#9D7852;" width="78.983" height="16.245"/>
<g>
	<path style="fill:#FFFFFF;" d="M79.798,159.672h33.22c-2.257-2.489-3.647-5.775-3.647-9.379c0-7.705,6.304-14.009,14.009-14.009   h76.388c7.705,0,14.009,6.304,14.009,14.009s-6.304,14.009-14.009,14.009h-33.221c2.256,2.489,3.647,5.775,3.647,9.379l0,0   c0,7.705-6.304,14.009-14.009,14.009H79.798c-7.705,0-14.009-6.304-14.009-14.009l0,0   C65.789,165.975,72.093,159.672,79.798,159.672z"/>
	<path style="fill:#FFFFFF;" d="M448.506,230.335h-28.884c1.962-2.164,3.171-5.022,3.171-8.154c0-6.699-5.48-12.179-12.18-12.179   h-66.415c-6.699,0-12.179,5.48-12.179,12.179c0,6.699,5.48,12.179,12.179,12.179h28.884c-1.961,2.164-3.171,5.022-3.171,8.154l0,0   c0,6.699,5.48,12.179,12.179,12.179h66.416c6.699,0,12.18-5.48,12.18-12.179l0,0C460.686,235.815,455.205,230.335,448.506,230.335z   "/>
</g>
<g>
	<rect x="94.043" y="396.366" style="fill:#008849;" width="68.262" height="14.628"/>
	<rect x="140.321" y="444.305" style="fill:#008849;" width="68.262" height="14.628"/>
</g>
<rect x="372.16" y="414.004" style="fill:#007539;" width="50.982" height="14.628"/>
<g>
</g>
<g>
</g>
<g>
</g>
<g>
</g>
<g>
</g>
<g>
</g>
<g>
</g>
<g>
</g>
<g>
</g>
<g>
</g>
<g>
</g>
<g>
</g>
<g>
</g>
<g>
</g>
<g>
</g>
</svg>
