<svg id="Capa_1" enable-background="new 0 0 512 512" height="512" viewBox="0 0 512 512" width="512" xmlns="http://www.w3.org/2000/svg"><path d="m480 208h-448v-80c0-35.346 28.654-64 64-64h320c35.346 0 64 28.654 64 64z" fill="#c8f5f0"/><path d="m480 168h-448c-17.673 0-32 14.327-32 32v152h512v-152c0-17.673-14.327-32-32-32z" fill="#9be7ee"/><path d="m488 336h-464v-104c0-13.255 10.745-24 24-24h344c53.019 0 96 42.981 96 96z" fill="#3c7864"/><path d="m56 128h288v144h-288z" fill="#ff6e64"/><path d="m360 120h-148.688l-5.656-5.656c-3.125-3.125-8.188-3.125-11.313 0l-5.656 5.656h-148.687c-4.418 0-8 3.582-8 8v40c0 4.418 3.582 8 8 8h8v104c0 4.418 3.582 8 8 8h96 96 96c4.418 0 8-3.582 8-8v-104h8c4.418 0 8-3.582 8-8v-40c0-4.418-3.582-8-8-8zm-296 56h80v96h-80zm96 96v-100.686l40-40 40 40v100.686zm176 0h-80v-96h80z" fill="#a0555a"/><g fill="#fff"><path d="m184 208c-4.418 0-8-3.582-8-8v-8c0-4.418 3.582-8 8-8 4.418 0 8 3.582 8 8v8c0 4.418-3.582 8-8 8z"/><path d="m280 216c-4.418 0-8-3.582-8-8v-8c0-4.418 3.582-8 8-8 4.418 0 8 3.582 8 8v8c0 4.418-3.582 8-8 8z"/><path d="m312 216c-4.418 0-8-3.582-8-8v-8c0-4.418 3.582-8 8-8 4.418 0 8 3.582 8 8v8c0 4.418-3.582 8-8 8z"/><path d="m120 216c-4.418 0-8-3.582-8-8v-8c0-4.418 3.582-8 8-8 4.418 0 8 3.582 8 8v8c0 4.418-3.582 8-8 8z"/><path d="m88 216c-4.418 0-8-3.582-8-8v-8c0-4.418 3.582-8 8-8 4.418 0 8 3.582 8 8v8c0 4.418-3.582 8-8 8z"/><path d="m216 208c-4.418 0-8-3.582-8-8v-8c0-4.418 3.582-8 8-8 4.418 0 8 3.582 8 8v8c0 4.418-3.582 8-8 8z"/></g><path d="m474.611 312c-33.321 0-66.222-7.434-96.305-21.759l-76.611-36.481c-30.084-14.327-62.985-21.76-96.306-21.76l-205.389 24v48l4.501 104h504l3.499-56v-16z" fill="#8cbe69"/><path d="m512 365.069-16 9.601-24.448-14.67h-31.101l-24.451 14.67-24.451-14.67h-31.099l-24.45 14.67-24.451-14.67h-31.099l-24.45 14.67-24.451-14.67h-31.099l-24.45 14.67-24.451-14.67h-31.099l-24.45 14.67-24.451-14.67h-31.097l-24.449 14.67-16.003-9.602v37.863l16.002-9.602 24.449 14.671h31.099l24.45-14.671 24.45 14.671h31.099l24.45-14.67 24.451 14.67h31.099l24.45-14.67 24.451 14.67h31.099l24.45-14.67 24.451 14.67h31.099l24.45-14.67 24.451 14.67h31.1l24.45-14.671 16 9.601zm-456 33.601-24.449-14.67 24.449-14.671 24.451 14.671zm80 0-24.451-14.67 24.45-14.67 24.451 14.67zm80 0-24.451-14.67 24.45-14.67 24.451 14.67zm80 0-24.451-14.67 24.45-14.67 24.451 14.67zm80 0-24.451-14.67 24.45-14.67 24.451 14.67zm80.001.001-24.452-14.671 24.452-14.671 24.45 14.671z" fill="#3c7864"/><path d="m0 304h77.377c6.961 0 13.802 1.817 19.846 5.27l32.02 18.297c9.67 5.526 20.615 8.432 31.753 8.432h30.435c10.609 0 20.783 4.214 28.284 11.716l12.285 12.285h-232z" fill="#6ea573"/><path d="m474.611 312c-33.321 0-66.222-7.434-96.305-21.759l-76.611-36.481c-30.084-14.327-62.985-21.76-96.306-21.76l-205.389 8v16h205.391c29.559 0 59.293 6.719 85.984 19.426l76.613 36.484c33.098 15.762 69.969 24.09 106.621 24.09h37.391v-16z" fill="#aad264"/><path d="m432 448h-352c-13.255 0-24-10.745-24-24h400c0 13.255-10.745 24-24 24z" fill="#aad264"/><path d="m496 432h-480c-8.837 0-16-7.163-16-16l4.501-8h497.833l9.665 8c.001 8.836-7.163 16-15.999 16z" fill="#6ea573"/><circle cx="408" cy="192" fill="#8cbe69" r="72"/><path d="m456 192c0-28.422-24.702-51.074-53.808-47.658-20.965 2.46-38.348 19.107-41.592 39.965-2.52 16.202 3.087 31.154 13.355 41.476 6.208 6.241 10.046 14.439 10.046 23.242v10.79c7.517 2.661 15.571 4.185 24 4.185s16.483-1.523 24-4.185v-10.824c0-8.538 3.407-16.727 9.52-22.688 8.927-8.705 14.479-20.846 14.479-34.303z" fill="#6ea573"/><path d="m512 320h-37.391c-34.289 0-68.781-7.793-99.742-22.537l-76.613-36.48c-28.824-13.727-60.938-20.983-92.863-20.983h-205.391v-16h205.391c34.289 0 68.781 7.793 99.742 22.537l76.613 36.48c28.824 13.727 60.937 20.983 92.863 20.983h37.391z" fill="#6ea573"/><circle cx="248" cy="272" fill="#8cbe69" r="56"/><circle cx="248" cy="272" fill="#6ea573" r="32"/><path d="m312 272c0-35.289-28.711-64-64-64s-64 28.711-64 64c0 32.578 24.475 59.53 56 63.482v24.518c0 4.418 3.582 8 8 8s8-3.582 8-8v-24.518c31.525-3.952 56-30.904 56-63.482zm-56 47.321v-31.321c0-4.418-3.582-8-8-8s-8 3.582-8 8v31.321c-22.672-3.821-40-23.58-40-47.321 0-26.467 21.531-48 48-48s48 21.533 48 48c0 23.741-17.328 43.499-40 47.321z" fill="#3c7864"/><path d="m488 192c0-44.111-35.887-80-80-80s-80 35.889-80 80c0 41.412 31.629 75.572 72 79.599v88.401c0 4.418 3.582 8 8 8s8-3.582 8-8v-88.401c40.37-4.027 72-38.187 72-79.599zm-72 63.482v-55.482c0-4.418-3.582-8-8-8s-8 3.582-8 8v20.688l-10.344-10.344c-3.125-3.125-8.188-3.125-11.313 0-3.125 3.123-3.125 8.189 0 11.313l21.657 21.655v12.169c-31.525-3.952-56-30.904-56-63.482 0-35.289 28.711-64 64-64s64 28.711 64 64c0 32.579-24.475 59.531-56 63.483z" fill="#3c7864"/><path d="m512 368v-16h-512v16h48v31.885h-48v16h512v-16h-48v-31.885zm-288 0h64v31.885h-64zm-16 31.885h-64v-31.885h64zm96-31.885h64v31.885h-64zm-240 0h64v31.885h-64zm384 31.885h-64v-31.885h64z" fill="#2d2d4b"/><circle cx="168" cy="312" fill="#6ea573" r="8"/><circle cx="48" cy="328" fill="#3c7864" r="8"/><circle cx="128" cy="280" fill="#aad264" r="8"/><circle cx="336" cy="328" fill="#aad264" r="8"/></svg>