<svg id="Capa_1" enable-background="new 0 0 512 512" height="512" viewBox="0 0 512 512" width="512" xmlns="http://www.w3.org/2000/svg"><path d="m488 300h-456v-88c0-79.529 64.471-144 144-144h280c17.673 0 32 14.327 32 32z" fill="#c8f5f0"/><path d="m200 140h-39.431c-10.609 0-20.783 4.214-28.284 11.716l-8.569 8.569c-7.502 7.501-11.716 17.675-11.716 28.283v15.432h88z" fill="#4be1c8"/><path d="m488 100h-206.059c-6.365 0-12.47 2.529-16.971 7.029l-9.941 9.941c-4.501 4.501-10.605 7.029-16.971 7.029h-22.058c-13.255 0-24 10.745-24 24v72h248v-24l72-72c0-13.254-10.745-23.999-24-23.999z" fill="#4bbeaf"/><path d="m0 380v-14.311c0-6.318 1.87-12.494 5.374-17.75l5.251-7.877c3.505-5.257 5.375-11.433 5.375-17.751v-30.311c0-8.837 7.163-16 16-16h24l-8 120h-32c-8.837 0-16-7.164-16-16z" fill="#ffd7a0"/><path d="m48 260v136h32l24-160h-32c-13.255 0-24 10.745-24 24z" fill="#ffa578"/><path d="m112 196c-8.836 0-16 7.163-16 16v102.059c0 6.365-2.528 12.47-7.029 16.971l-9.941 9.941c-4.502 4.5-7.03 10.605-7.03 16.97l8 38.059h72v-200z" fill="#ffd7a0"/><path d="m80 396h-16v-38.059c0-8.551 3.332-16.588 9.375-22.631l9.937-9.938c3.023-3.021 4.688-7.039 4.688-11.314v-102.058c0-13.234 10.766-24 24-24h40v16h-40c-4.41 0-8 3.588-8 8v102.059c0 8.551-3.332 16.588-9.375 22.631l-9.938 9.938c-3.023 3.02-4.687 7.038-4.687 11.313z" fill="#ffa578"/><path d="m168 164c-8.836 0-16 7.163-16 16v137.491c0 9.517-2.425 18.877-7.047 27.197l-.953 51.312h72v-232z" fill="#ffa578"/><path d="m168 164c-8.836 0-16 7.163-16 16v137.491c0 9.517-2.425 18.877-7.047 27.197l-28.409 51.312h27.456l21.934-39.66c6.585-11.856 10.066-25.289 10.066-38.848v-129.492h40v-24z" fill="#ffd7a0"/><path d="m216 156h-48c-13.234 0-24 10.766-24 24v137.492c0 8.137-2.09 16.195-6.039 23.309l-30.668 55.199h18.303l26.35-47.43c5.27-9.484 8.055-20.23 8.055-31.078v-137.492c0-4.41 3.59-8 8-8h48c4.418 0 8-3.582 8-8s-3.583-8-8.001-8z" fill="#d26e55"/><path d="m232 148c-8.836 0-16 7.163-16 16v102.059c0 6.365-2.528 12.47-7.029 16.971l-9.941 9.941c-4.501 4.501-7.029 10.605-7.029 16.971l23.999 86.058h64v-248z" fill="#d26e55"/><path d="m232 148c-8.836 0-16 7.163-16 16v102.059c0 6.365-2.528 12.47-7.029 16.971l-9.941 9.941c-4.501 4.501-7.029 10.605-7.029 16.971l7.999 86.058h16v-86.062l9.938-9.938c9.07-9.066 14.062-21.121 14.062-33.941v-94.059h40v-24z" fill="#ffa578"/><path d="m200 396h-16v-86.059c0-8.551 3.332-16.588 9.375-22.631l9.938-9.938c3.023-3.021 4.688-7.039 4.688-11.314v-102.058c0-13.234 10.766-24 24-24h48v16h-48c-4.41 0-8 3.588-8 8v102.059c0 8.551-3.332 16.588-9.375 22.631l-9.938 9.938c-3.023 3.021-4.688 7.039-4.688 11.314z" fill="#a35350"/><path d="m296 132c-8.836 0-16 7.163-16 16v94.059c0 6.365-2.528 12.47-7.029 16.971l-9.941 9.941c-4.501 4.501-7.029 10.605-7.029 16.971v70.058h179.999l76-76v-140z" fill="#d26e55"/><path d="m376 316 21.941-21.941c9.002-9.002 21.211-14.059 33.941-14.059h80.118v28l-136 24z" fill="#a35350"/><path d="m296 132c-8.837 0-16 7.163-16 16v94.059c0 6.366-2.529 12.47-7.03 16.971l-9.941 9.94c-4.501 4.501-7.029 10.605-7.029 16.97v70.06h24v-70.062l9.938-9.938c9.004-9.004 14.063-21.216 14.063-33.95v-70.05c0-8.837 7.163-16 16-16h128c8.837 0 16-7.163 16-16v-8z" fill="#ffa578"/><path d="m264 396-24-24c0-8.837 7.163-16 16-16h40.618c10.004 0 19.759-3.126 27.899-8.941l30.966-22.118c8.141-5.815 17.895-8.941 27.899-8.941l128.618 24v40c0 8.837-7.163 16-16 16z" fill="#73374b"/><path d="m383.382 316c-10.005 0-19.759 3.126-27.901 8.941l-30.965 22.118c-8.141 5.815-17.895 8.941-27.899 8.941h-40.617c-8.837 0-16 7.163-16 16l8 24h16v-8c0-4.418 3.582-8 8-8h24.617c15.005 0 29.636-4.688 41.846-13.409l30.974-22.122c4.069-2.906 8.945-4.469 13.946-4.469h128.617v-24z" fill="#a35350"/><path d="m264 356h-16v-70.059c0-8.551 3.332-16.588 9.375-22.631l9.938-9.937c3.023-3.021 4.688-7.039 4.688-11.314v-94.059c0-13.234 10.766-24 24-24h216v16h-216.001c-4.41 0-8 3.588-8 8v94.059c0 8.551-3.332 16.588-9.375 22.631l-9.938 9.938c-3.023 3.021-4.688 7.039-4.688 11.314v70.058z" fill="#73374b"/><path d="m248 396h-16v-24c0-13.234 10.766-24 24-24h40.617c8.387 0 16.426-2.576 23.246-7.451l30.973-22.117c9.551-6.825 20.804-10.432 32.547-10.432h128.617v16h-128.617c-8.387 0-16.426 2.576-23.246 7.451l-30.973 22.117c-9.551 6.824-20.805 10.432-32.547 10.432h-40.617c-4.41 0-8 3.588-8 8z" fill="#2d2d4b"/><circle cx="336" cy="284" fill="#a35350" r="8"/><circle cx="384" cy="260" fill="#a35350" r="8"/><circle cx="352" cy="220" fill="#ffa578" r="8"/><path d="m56 420c0 13.255 10.745 24 24 24h352c13.255 0 24-10.745 24-24z" fill="#a7d9ff"/><path d="m496 428h-480c-4.418 0-8-3.582-8-8 0-4.418 3.582-8 8-8h480c4.418 0 8 3.582 8 8 0 4.418-3.582 8-8 8z" fill="#6bb2ff"/></svg>