<svg id="Capa_1" enable-background="new 0 0 512 512" height="512" viewBox="0 0 512 512" width="512" xmlns="http://www.w3.org/2000/svg"><path d="m432 174.861-69.153-96.814c-6.246-8.745-17.927-11.646-27.539-6.84l-.056.028c-8.964 4.482-19.827 2.288-26.349-5.321l-21.554-25.146c-8.279-9.659-23.03-10.226-32.025-1.23l-87.324 87.323v96l208 56 80-80z" fill="#a7d9ff"/><path d="m432.019 198.861c4.906 0 9.859-1.496 14.132-4.615.195-1.935.283-2.82.478-4.755l-14.629-14.63-69.197-96.876c-6.238-8.733-17.913-11.611-27.495-6.778l-.056.028c-8.933 4.505-19.788 2.333-26.299-5.263l-21.604-25.204c-8.279-9.659-23.029-10.225-32.025-1.23l-87.324 87.323v24c6.143 0 12.285-2.344 16.969-7.031l67.348-67.345c9.886-9.886 26.096-9.262 35.194 1.353l3.173 3.703c10.166 11.855 25.287 17.44 40.135 15.692 9-1.06 17.925 2.359 23.192 9.733l58.458 81.844c4.687 6.559 12.062 10.055 19.55 10.051z" fill="#cdf0ff"/><path d="m368 238.861 65.676-59.109c8.367-7.531 20.845-8.234 30.005-1.691l48.319 63.65v37.15l-144 16z" fill="#a7d9ff"/><path d="m512 221.469-48.319-43.407c-9.16-6.543-21.638-5.84-30.005 1.69l-65.676 59.109v23.999c.002 0 .005.001.008.001 5.719 0 11.461-2.035 16.047-6.16l65.676-59.109 62.269 44.119z" fill="#cdf0ff"/><path d="m392 302.861-92.991-107.297c-6.893-7.953-17.256-12.009-27.716-10.846l-32.905 3.656c-13.899 1.544-27.596-4.282-36.122-15.367l-49.6-64.48c-8.833-11.483-25.749-12.582-35.994-2.338l-116.672 151.36v23.137z" fill="#a7d9ff"/><path d="m299.009 195.564c-6.893-7.953-17.255-12.009-27.715-10.846l-32.906 3.656c-13.899 1.544-27.596-4.282-36.122-15.367l-49.6-64.48c-8.833-11.483-25.749-12.582-35.993-2.337l-116.673 127.984v23.375l114.313-115.063c10.244-10.244 27.16-9.146 35.993 2.337l32.936 42.815c13.555 17.621 35.695 27.066 57.797 24.586l32.898-3.652c2.621-.32 5.215.723 6.934 2.711l79.369 91.578h31.76z" fill="#cdf0ff"/><path d="m495.995 190.818-27.667-19.27c-9.396-6.715-21.207-7.76-31.271-3.375l-67.698-94.778c-8.586-12.021-24.41-15.949-37.688-9.316-5.688 2.844-12.551 1.459-16.695-3.373l-21.555-25.145c-5.391-6.291-13.23-10.08-21.508-10.398-8.246-.348-16.391 2.857-22.246 8.719l-81.578 81.576-9.087-11.813c-5.613-7.297-14.102-11.824-23.289-12.418-9.125-.637-18.188 2.793-24.699 9.305l-101.641 101.644c-6.002 6.002-9.373 14.141-9.373 22.628v9.37l122.328-122.328c3.258-3.254 7.789-4.973 12.352-4.652 4.594.297 8.836 2.563 11.645 6.211l49.597 64.474c10.233 13.302 26.669 20.295 43.349 18.444l32.906-3.652c7.855-.926 15.621 2.172 20.785 8.133l92.991 107.296c1.582 1.828 3.809 2.762 6.051 2.762 1.855 0 3.723-.645 5.234-1.953 3.34-2.895 3.699-7.949.809-11.285l-92.993-107.297c-8.616-9.941-21.569-15.011-34.644-13.558l-32.91 3.656c-11.116 1.235-22.07-3.425-28.889-12.29l-30.683-39.888 83.053-83.051c2.758-2.758 6.352-4.201 10.32-4.043 3.895.15 7.438 1.861 9.973 4.822l21.555 25.146c8.93 10.416 23.742 13.406 36.059 7.242 6.125-3.066 13.465-1.244 17.449 4.334l67.781 94.896-61.469 55.323c-3.285 2.953-3.551 8.012-.594 11.297 1.578 1.754 3.758 2.648 5.949 2.648 1.906 0 3.82-.68 5.348-2.055l65.676-59.109c5.621-5.066 13.848-5.531 20.078-1.07l52.894 36.842c0-12.219-5.977-23.666-16.005-30.651z" fill="#6bb2ff"/><g fill="#3c8c82"><path d="m383.891 293.547-16-96c-.641-3.857-3.98-6.686-7.891-6.686s-7.25 2.828-7.891 6.686l-16 96c-.387 2.318.266 4.691 1.785 6.486 1.52 1.793 3.754 2.828 6.105 2.828h32c2.352 0 4.586-1.035 6.105-2.828 1.521-1.795 2.173-4.168 1.787-6.486z"/><path d="m335.891 317.547-16-96c-.641-3.857-3.98-6.686-7.891-6.686s-7.25 2.828-7.891 6.686l-16 96c-.387 2.318.266 4.691 1.785 6.486 1.52 1.793 3.754 2.828 6.105 2.828h32c2.352 0 4.586-1.035 6.105-2.828 1.521-1.795 2.173-4.168 1.787-6.486z"/><path d="m191.891 277.547-16-96c-.641-3.857-3.98-6.686-7.891-6.686s-7.25 2.828-7.891 6.686l-16 96c-.387 2.318.266 4.691 1.785 6.486 1.52 1.793 3.754 2.828 6.105 2.828h32c2.352 0 4.586-1.035 6.105-2.828 1.521-1.795 2.173-4.168 1.787-6.486z"/><path d="m135.891 293.547-16-96c-.641-3.857-3.98-6.686-7.891-6.686s-7.25 2.828-7.891 6.686l-16 96c-.387 2.318.266 4.691 1.785 6.486 1.52 1.793 3.754 2.828 6.105 2.828h32c2.352 0 4.586-1.035 6.105-2.828 1.521-1.795 2.173-4.168 1.787-6.486z"/></g><path d="m512 294.861-80.789-5.803c-35.893 8.973-73.7 6.407-108.051-7.333l-62.536-25.014c-29.215-11.686-61.028-15.326-92.127-10.542l-160.497 24.692v176l504 8z" fill="#cdf0ff"/><path d="m323.16 281.725-62.536-25.014c-29.214-11.686-61.028-15.326-92.127-10.542l-168.497 34.517v13.814l4.5 1.25 167.645-25.857c26.844-4.141 54.348-.98 79.566 9.105l62.535 25.008c23.879 9.555 48.926 14.363 74.113 14.363 16.258 0 32.574-2.004 48.672-6.027l74.969-17.481v-24l-80.789 18.197c-35.893 8.974-73.7 6.408-108.051-7.333z" fill="#fff"/><path d="m56 462.861c0 13.255 10.745 24 24 24h352c13.255 0 24-10.745 24-24z" fill="#a7d9ff"/><path d="m512 262.861-82.73 18.434c-34.488 8.613-70.145 6.199-103.137-7l-62.535-25.008c-30.516-12.207-63.828-16.02-96.34-11.02l-167.258 26.226v16.193l169.711-26.61c29.672-4.578 60.078-1.082 87.941 10.066l62.535 25.008c21.969 8.789 45.012 13.215 68.187 13.215 14.953 0 29.969-1.844 44.777-5.547l78.849-17.957z" fill="#a7d9ff"/><path d="m400 206.861-32 152h64z" fill="#3c8c82"/><path d="m439.828 357.213-32-152c-.777-3.701-4.047-6.352-7.828-6.352s-7.051 2.65-7.828 6.352l-32 152c-.496 2.359.098 4.816 1.617 6.689 1.52 1.871 3.801 2.959 6.211 2.959h24v40c0 4.418 3.582 8 8 8s8-3.582 8-8v-40h24c2.41 0 4.691-1.088 6.211-2.959 1.519-1.873 2.113-4.33 1.617-6.689zm-61.969-6.352 22.141-105.168 22.141 105.168z" fill="#3c576c"/><path d="m448 254.861-24 128h48z" fill="#3c8c82"/><path d="m479.863 381.387-24-128c-.711-3.783-4.012-6.525-7.863-6.525s-7.152 2.742-7.863 6.525l-24 128c-.438 2.34.188 4.752 1.707 6.584 1.52 1.83 3.777 2.891 6.156 2.891h16v40c0 4.418 3.582 8 8 8s8-3.582 8-8v-40h16c2.379 0 4.637-1.061 6.156-2.891 1.52-1.832 2.145-4.244 1.707-6.584zm-46.222-6.526 14.359-76.59 14.359 76.59z" fill="#3c576c"/><path d="m64 142.861-24 128h48z" fill="#3c8c82"/><path d="m95.863 269.387-24-128c-.711-3.783-4.012-6.525-7.863-6.525s-7.152 2.742-7.863 6.525l-24 128c-.438 2.34.188 4.752 1.707 6.584 1.52 1.83 3.777 2.891 6.156 2.891h16v40c0 4.418 3.582 8 8 8s8-3.582 8-8v-40h16c2.379 0 4.637-1.061 6.156-2.891 1.52-1.832 2.145-4.244 1.707-6.584zm-46.222-6.526 14.359-76.59 14.359 76.59z" fill="#3c576c"/><path d="m159.879 349.471-24-136c-.676-3.822-3.996-6.609-7.879-6.609s-7.203 2.787-7.879 6.609l-24 136c-.41 2.33.23 4.721 1.75 6.533 1.52 1.811 3.766 2.857 6.129 2.857h48c2.363 0 4.609-1.047 6.129-2.857 1.519-1.813 2.16-4.203 1.75-6.533z" fill="#3c576c"/><path d="m359.832 421.23-20-96c-.773-3.711-4.043-6.369-7.832-6.369s-7.059 2.658-7.832 6.369l-20 96c-.492 2.357.105 4.811 1.625 6.678 1.52 1.869 3.801 2.953 6.207 2.953h40c2.406 0 4.688-1.084 6.207-2.953 1.519-1.867 2.117-4.32 1.625-6.678z" fill="#3c576c"/><path d="m503.667 460.333-41.186-33.887c-9.46-7.568-20.873-12.295-32.913-13.633l-100.004-11.112c-16.624-1.847-32.25-8.858-44.683-20.047l-41.763-37.587c-12.432-11.189-28.059-18.2-44.683-20.047l-198.435 2.841v128z" fill="#a7d9ff"/><path d="m462.481 426.446c-9.46-7.568-20.873-12.295-32.913-13.633l-100.004-11.112c-16.624-1.847-32.25-8.858-44.683-20.047l-41.763-37.586c-12.433-11.189-28.059-18.2-44.683-20.047l-198.435-14.001v16.841l195.785 21.012c11.707 1.305 22.523 6.156 31.277 14.035l41.766 37.586c16.258 14.633 36.34 23.645 58.082 26.059l100.012 11.117c7.535.836 14.645 3.777 20.566 8.52l16.512 17.671 32-16z" fill="#cdf0ff"/><circle cx="56" cy="406.861" fill="#6bb2ff" r="8"/><circle cx="280" cy="326.861" fill="#a7d9ff" r="8"/><circle cx="200" cy="286.861" fill="#fff" r="8"/><circle cx="104" cy="366.861" fill="#cdf0ff" r="8"/><circle cx="160" cy="398.861" fill="#cdf0ff" r="8"/><path d="m501.036 435.954-41.871-23.926c-5.694-3.254-11.995-5.306-18.514-6.031l-110.197-12.245c-14.963-1.663-29.029-7.973-40.22-18.044l-41.766-37.586c-13.676-12.308-30.866-20.019-49.152-22.051l-199.316-22.146v16.095l197.555 21.951c15.051 1.676 28.957 7.914 40.211 18.043l41.766 37.586c13.675 12.307 30.864 20.019 49.149 22.051l111.848 12.431c3.259.362 6.409 1.388 9.256 3.015l26.23 14.989c2.464 1.408 3.985 4.029 3.985 6.867 0 4.368-3.541 7.909-7.909 7.909h-472.091c0 8.836 7.164 16 16 16h480c8.837 0 16-7.163 16-16v-.014c0-7.809-4.184-15.019-10.964-18.894z" fill="#6bb2ff"/></svg>