<?xml version="1.0" encoding="iso-8859-1"?>
<!-- Generator: Adobe Illustrator 19.0.0, SVG Export Plug-In . SVG Version: 6.00 Build 0)  -->
<svg xmlns="http://www.w3.org/2000/svg" xmlns:xlink="http://www.w3.org/1999/xlink" version="1.1" id="Layer_1" x="0px" y="0px" viewBox="0 0 512 512" style="enable-background:new 0 0 512 512;" xml:space="preserve">
<circle style="fill:#00A2FF;" cx="255.996" cy="255.996" r="255.996"/>
<path style="fill:#0084FF;" d="M512,255.999c0-6.683-0.258-13.306-0.761-19.86L311.379,37.271h-60.085v72.898l-113.217,52.837  h-15.824v16.718l18.808,19.505H37.62v159.009l142.252,142.252C203.921,507.971,229.49,512,256.001,512  C397.385,512,512,397.385,512,255.999z"/>
<rect x="251.294" y="37.271" style="fill:#FF3C62;" width="60.081" height="39.706"/>
<rect x="251.294" y="37.271" style="fill:#C4C2C8;" width="9.404" height="75.232"/>
<rect x="255.996" y="37.271" style="fill:#AAA9AF;" width="4.699" height="75.232"/>
<rect x="356.859" y="199.228" style="fill:#DDDDDF;" width="117.518" height="159.01"/>
<g>
	<rect x="386.607" y="218.684" style="fill:#AAA9AF;" width="27.167" height="44.23"/>
	<rect x="432.32" y="218.684" style="fill:#AAA9AF;" width="27.167" height="44.23"/>
	<rect x="386.607" y="289.391" style="fill:#AAA9AF;" width="27.167" height="44.23"/>
	<rect x="432.32" y="289.391" style="fill:#AAA9AF;" width="27.167" height="44.23"/>
</g>
<rect x="37.616" y="199.228" style="fill:#FFFFFF;" width="117.518" height="159.01"/>
<g>
	<rect x="98.219" y="218.684" style="fill:#C4C2C8;" width="27.167" height="44.23"/>
	<rect x="52.505" y="218.684" style="fill:#C4C2C8;" width="27.167" height="44.23"/>
	<rect x="98.219" y="289.391" style="fill:#C4C2C8;" width="27.167" height="44.23"/>
	<rect x="52.505" y="289.391" style="fill:#C4C2C8;" width="27.167" height="44.23"/>
</g>
<rect x="153.107" y="173.451" style="fill:#FFFFFF;" width="205.779" height="184.788"/>
<rect x="255.996" y="173.451" style="fill:#DDDDDF;" width="102.89" height="184.788"/>
<path style="fill:#C4C2C8;" d="M280.147,303.716c0-12.643-10.344-22.987-22.987-22.987h-2.32c-12.643,0-22.987,10.344-22.987,22.987  c0,0,0.118,53.267,0.331,54.521h47.631C280.03,356.984,280.147,303.716,280.147,303.716z"/>
<g>
	<path style="fill:#AAA9AF;" d="M257.159,280.729h-1.163v77.508h23.819c0.214-1.254,0.331-54.521,0.331-54.521   C280.147,291.073,269.802,280.729,257.159,280.729z"/>
	<rect x="141.059" y="195.748" style="fill:#AAA9AF;" width="14.08" height="162.49"/>
	<rect x="205.957" y="195.748" style="fill:#AAA9AF;" width="14.08" height="162.49"/>
</g>
<g>
	<rect x="291.961" y="195.748" style="fill:#78777F;" width="14.08" height="162.49"/>
	<rect x="356.859" y="195.748" style="fill:#78777F;" width="14.08" height="162.49"/>
</g>
<rect x="141.059" y="172.406" style="fill:#C4C2C8;" width="229.874" height="26.819"/>
<rect x="255.996" y="172.406" style="fill:#AAA9AF;" width="114.937" height="26.819"/>
<polygon style="fill:#FFFFFF;" points="255.996,107.975 125.39,168.926 386.607,168.926 "/>
<polygon style="fill:#C4C2C8;" points="386.607,168.926 255.996,107.975 255.996,168.926 "/>
<rect x="122.251" y="163.002" style="fill:#AAA9AF;" width="267.49" height="16.718"/>
<rect x="255.996" y="163.002" style="fill:#78777F;" width="133.745" height="16.718"/>
<g>
	<rect x="166.878" y="218.684" style="fill:#C4C2C8;" width="27.167" height="44.23"/>
	<rect x="242.413" y="218.684" style="fill:#C4C2C8;" width="27.167" height="44.23"/>
</g>
<g>
	<rect x="255.996" y="218.684" style="fill:#AAA9AF;" width="13.583" height="44.23"/>
	<rect x="317.958" y="218.684" style="fill:#AAA9AF;" width="27.167" height="44.23"/>
</g>
<rect x="166.878" y="289.391" style="fill:#C4C2C8;" width="27.167" height="44.23"/>
<rect x="317.958" y="289.391" style="fill:#AAA9AF;" width="27.167" height="44.23"/>
<path style="fill:#36C98C;" d="M255.999,512c97.774,0,182.734-54.821,225.851-135.395H30.149  C73.266,457.179,158.226,512,255.999,512z"/>
<path style="fill:#00B764;" d="M255.996,376.605V512c0.001,0,0.002,0,0.003,0c97.774,0,182.734-54.821,225.851-135.395  L255.996,376.605L255.996,376.605z"/>
<g>
	<rect x="283.884" y="393.409" style="fill:#008849;" width="68.262" height="12.808"/>
	<rect x="278.44" y="454.357" style="fill:#008849;" width="66.675" height="12.808"/>
	<rect x="87.018" y="393.921" style="fill:#008849;" width="68.262" height="12.808"/>
	<rect x="182.238" y="420.827" style="fill:#008849;" width="49.611" height="12.808"/>
	<rect x="148.102" y="454.357" style="fill:#008849;" width="49.611" height="12.808"/>
	<rect x="378.394" y="417.295" style="fill:#008849;" width="43.588" height="12.808"/>
	<path style="fill:#008849;" d="M18.755,352.311c3.493,8.595,7.429,16.963,11.8,25.064h450.891   c4.371-8.101,8.307-16.468,11.8-25.064H18.755z"/>
</g>
<path style="fill:#007539;" d="M493.245,352.311H255.996v25.064h225.449C485.816,369.273,489.752,360.906,493.245,352.311z"/>
<g>
</g>
<g>
</g>
<g>
</g>
<g>
</g>
<g>
</g>
<g>
</g>
<g>
</g>
<g>
</g>
<g>
</g>
<g>
</g>
<g>
</g>
<g>
</g>
<g>
</g>
<g>
</g>
<g>
</g>
</svg>
