<svg id="Capa_1" enable-background="new 0 0 512 512" height="512" viewBox="0 0 512 512" width="512" xmlns="http://www.w3.org/2000/svg"><g><circle cx="256" cy="284.47" r="43.502"/><path d="m405.352 284.47c0-82.353-66.999-149.351-149.352-149.351s-149.352 66.998-149.352 149.351 66.999 149.351 149.352 149.351 149.352-66.999 149.352-149.351zm-149.352 73.502c-40.529 0-73.502-32.973-73.502-73.502s32.973-73.502 73.502-73.502 73.502 32.973 73.502 73.502-32.973 73.502-73.502 73.502z"/><path d="m401.244 389.559c-11.488 15.833-25.489 29.73-41.426 41.083l46.307 46.307 45.912 4.658-4.658-45.912z"/><path d="m109.489 181.136c11.301-15.976 25.15-30.024 40.945-41.563l-22.752-22.752 28.26-28.26-21.213-21.213-28.26 28.26-56.671-56.671c-11.392-11.392-29.862-11.392-41.254 0-11.392 11.392-11.392 29.862 0 41.254l56.672 56.672-28.26 28.26 21.213 21.213 28.26-28.26z"/><path d="m110.756 389.559-46.136 46.136-4.658 45.912 45.912-4.658 46.307-46.307c-15.937-11.353-29.938-25.25-41.425-41.083z"/><path d="m503.456 38.937c-11.392-11.392-29.862-11.392-41.254 0l-56.672 56.672-28.26-28.26-21.213 21.213 28.26 28.26-22.752 22.752c15.795 11.539 29.644 25.587 40.945 41.563l23.061-23.061 28.26 28.26 21.213-21.213-28.26-28.26 56.672-56.672c11.392-11.392 11.392-29.862 0-41.254z"/></g></svg>