<?xml version="1.0" encoding="iso-8859-1"?>
<!-- Generator: Adobe Illustrator 19.0.0, SVG Export Plug-In . SVG Version: 6.00 Build 0)  -->
<svg version="1.1" id="Capa_1" xmlns="http://www.w3.org/2000/svg" xmlns:xlink="http://www.w3.org/1999/xlink" x="0px" y="0px"
	 viewBox="0 0 512 512" style="enable-background:new 0 0 512 512;" xml:space="preserve">
<circle style="fill:#FBD747;" cx="256" cy="256" r="256"/>
<path style="fill:#E9BA13;" d="M510.469,284.004l-70.227-70.227l-15.391,0.574L275,64.5v27.09l-25-2.09l126.649,126.649
	l-88.106,3.286L175,105.892v25h-25l90.34,90.34l-170.406,6.355l153.752,153.752L140,404.111l107.743,107.743
	c2.743,0.087,5.493,0.146,8.257,0.146C387.92,512,496.518,412.212,510.469,284.004z"/>
<path style="fill:#455A64;" d="M372,209c-38.667,65.037-38.667,130.074,0,195.111c-77.333,32.519-154.667,32.519-232,0
	c38.667-65.037,38.667-130.074,0-195.111H372z"/>
<g>
	<path style="fill:#37474F;" d="M372,209H255.506v219.494c38.831,0.07,77.663-8.054,116.494-24.382
		C333.333,339.074,333.333,274.037,372,209z"/>
	<ellipse style="fill:#37474F;" cx="256" cy="221.5" rx="189" ry="34.5"/>
</g>
<g>
	<path style="fill:#263238;" d="M256,187c-0.165,0-0.329,0.001-0.494,0.001v68.998c0.165,0,0.329,0.001,0.494,0.001
		c104.382,0,189-15.446,189-34.5S360.382,187,256,187z"/>
	<ellipse style="fill:#263238;" cx="256" cy="221.5" rx="98" ry="10"/>
</g>
<path style="fill:#171F23;" d="M256,211.5c-0.165,0-0.329,0.001-0.494,0.001V231.5c0.165,0,0.329,0.001,0.494,0.001
	c54.124,0,98-4.477,98-10C354,215.977,310.124,211.5,256,211.5z"/>
<path style="fill:#FFFFFF;" d="M175,105.892l3.651,10.693c1.711,5.01,5.646,8.945,10.656,10.656L200,130.892l-10.693,3.651
	c-5.01,1.711-8.945,5.646-10.656,10.656L175,155.892l-3.651-10.693c-1.711-5.01-5.646-8.945-10.656-10.656L150,130.892l10.693-3.651
	c5.01-1.711,8.945-5.646,10.656-10.656L175,105.892z"/>
<path style="fill:#E6E6E6;" d="M189.307,127.24c-5.01-1.711-8.945-5.646-10.656-10.656L175,105.892v50l3.651-10.693
	c1.711-5.01,5.646-8.945,10.656-10.656L200,130.892L189.307,127.24z"/>
<path style="fill:#FFFFFF;" d="M225,171.5l3.651,10.693c1.711,5.01,5.646,8.945,10.656,10.656L250,196.5l-10.693,3.651
	c-5.01,1.711-8.945,5.646-10.656,10.656L225,221.5l-3.651-10.693c-1.711-5.01-5.646-8.945-10.656-10.656L200,196.5l10.693-3.651
	c5.01-1.711,8.945-5.646,10.656-10.656L225,171.5z"/>
<path style="fill:#E6E6E6;" d="M239.307,192.849c-5.01-1.711-8.945-5.646-10.656-10.656L225,171.5v50l3.651-10.693
	c1.711-5.01,5.646-8.945,10.656-10.656L250,196.5L239.307,192.849z"/>
<path style="fill:#FFFFFF;" d="M275,64.5l3.651,10.693c1.711,5.01,5.646,8.945,10.656,10.656L300,89.5l-10.693,3.651
	c-5.01,1.711-8.945,5.646-10.656,10.656L275,114.5l-3.651-10.693c-1.711-5.01-5.646-8.945-10.656-10.656L250,89.5l10.693-3.651
	c5.01-1.711,8.945-5.646,10.656-10.656L275,64.5z"/>
<path style="fill:#E6E6E6;" d="M289.307,85.849c-5.01-1.711-8.945-5.646-10.656-10.656L275,64.5v50l3.651-10.693
	c1.711-5.01,5.646-8.945,10.656-10.656L300,89.5L289.307,85.849z"/>
<g>
</g>
<g>
</g>
<g>
</g>
<g>
</g>
<g>
</g>
<g>
</g>
<g>
</g>
<g>
</g>
<g>
</g>
<g>
</g>
<g>
</g>
<g>
</g>
<g>
</g>
<g>
</g>
<g>
</g>
</svg>
