<?xml version="1.0" encoding="iso-8859-1"?>
<!-- Generator: Adobe Illustrator 19.0.0, SVG Export Plug-In . SVG Version: 6.00 Build 0)  -->
<svg version="1.1" id="Capa_1" xmlns="http://www.w3.org/2000/svg" xmlns:xlink="http://www.w3.org/1999/xlink" x="0px" y="0px"
	 viewBox="0 0 512 512" style="enable-background:new 0 0 512 512;" xml:space="preserve">
<circle style="fill:#7AE5FE;" cx="256" cy="256" r="256"/>
<path style="fill:#00BED2;" d="M512,256c0-14.284-1.189-28.288-3.438-41.935L421,126.503l-9.237,7.926l-76.848-76.848l0.68,16.788
	L315.497,77l75.366,75.366l-88.613,76.041L147.667,73.824l6.581,26.552l-39.927,6.794l71.14,71.14L91,196.437l114.766,114.766
	l-100.56,86.294L216.708,509c12.809,1.973,25.93,3,39.292,3C397.385,512,512,397.385,512,256z"/>
<rect x="105.2" y="164.75" style="fill:#8D24A9;" width="301.59" height="232.75"/>
<g>
	<rect x="255.58" y="164.75" style="fill:#7B1FA1;" width="151.22" height="232.75"/>
	<rect x="91" y="126.5" style="fill:#7B1FA1;" width="330" height="69.934"/>
</g>
<rect x="255.58" y="126.5" style="fill:#6A1B99;" width="165.42" height="69.934"/>
<circle style="fill:#AA47BB;" cx="137" cy="225" r="16"/>
<circle style="fill:#9B27AF;" cx="325" cy="232" r="16"/>
<circle style="fill:#AA47BB;" cx="164.82" cy="345.84" r="11.824"/>
<g>
	<circle style="fill:#9B27AF;" cx="376" cy="273.82" r="11.824"/>
	<circle style="fill:#9B27AF;" cx="350.5" cy="345.5" r="25.5"/>
</g>
<polygon style="fill:#F8A725;" points="256,220.622 275.658,260.453 319.614,266.84 287.807,297.845 295.316,341.623 256,320.954 
	216.684,341.623 224.193,297.845 192.386,266.84 236.342,260.453 "/>
<polygon style="fill:#F47F17;" points="319.614,266.84 275.658,260.453 256,220.622 255.576,221.481 255.576,321.177 256,320.954 
	295.316,341.623 287.807,297.844 "/>
<path style="fill:#FFFFFF;" d="M147.667,73.824l4.87,14.262c2.282,6.683,7.531,11.931,14.213,14.213l14.262,4.87l-14.262,4.87
	c-6.683,2.282-11.931,7.531-14.213,14.213l-4.87,14.262l-4.87-14.262c-2.282-6.683-7.531-11.931-14.213-14.213l-14.262-4.87
	l14.262-4.87c6.683-2.282,11.931-7.531,14.213-14.213L147.667,73.824z"/>
<path style="fill:#E6E6E6;" d="M334.915,57.582l2.836,8.305c1.329,3.892,4.385,6.948,8.277,8.277L354.333,77l-8.305,2.836
	c-3.892,1.329-6.948,4.385-8.277,8.277l-2.836,8.305l-2.836-8.305c-1.329-3.892-4.385-6.948-8.277-8.277L315.497,77l8.305-2.836
	c3.892-1.329,6.948-4.385,8.277-8.277L334.915,57.582z"/>
<g>
</g>
<g>
</g>
<g>
</g>
<g>
</g>
<g>
</g>
<g>
</g>
<g>
</g>
<g>
</g>
<g>
</g>
<g>
</g>
<g>
</g>
<g>
</g>
<g>
</g>
<g>
</g>
<g>
</g>
</svg>
