<?xml version="1.0" encoding="iso-8859-1"?>
<!-- Generator: Adobe Illustrator 19.0.0, SVG Export Plug-In . SVG Version: 6.00 Build 0)  -->
<svg version="1.1" id="Capa_1" xmlns="http://www.w3.org/2000/svg" xmlns:xlink="http://www.w3.org/1999/xlink" x="0px" y="0px"
	 viewBox="0 0 512 512" style="enable-background:new 0 0 512 512;" xml:space="preserve">
<circle style="fill:#FE7043;" cx="256" cy="256" r="256"/>
<path style="fill:#FE5722;" d="M510.472,283.983L305.716,79.228l-80.933,124.411l-110.161,40.975l47.268,47.268l-22.209,6.476
	l60.129,60.129l-27.602,98.796l52.851,52.851C235.203,511.356,245.526,512,256,512C387.927,512,496.53,412.201,510.472,283.983z"/>
<path style="fill:#FFFFFF;" d="M372.833,191.667h-69.758c17.119-14.052,27.845-35.606,27.142-59.641
	c-1.146-39.213-33.188-71.071-72.407-72.005c-41.835-0.996-76.061,32.619-76.061,74.228c0,23.137,10.586,43.799,27.175,57.417
	h-69.758c-17.765,0-32.167,14.402-32.167,32.167l0,0C107,241.598,121.402,256,139.167,256h24.06c16.174,0,28.457,14.556,25.737,30.5
	l-24.392,142.95c-3.17,18.578,9.321,36.209,27.899,39.379l0,0c18.578,3.17,36.209-9.321,39.379-27.899l9.183-53.818
	c2.873-16.84,27.062-16.84,29.935,0l9.183,53.818c3.17,18.578,20.8,31.069,39.379,27.899l0,0c18.578-3.17,31.069-20.8,27.899-39.379
	L323.036,286.5c-2.721-15.944,9.562-30.5,25.737-30.5h24.06C390.599,256,405,241.598,405,223.833l0,0
	C405,206.068,390.599,191.667,372.833,191.667z"/>
<path style="fill:#E6E6E6;" d="M372.833,191.667h-69.758c17.119-14.052,27.845-35.606,27.142-59.641
	c-1.146-39.213-33.188-71.071-72.407-72.005c-0.749-0.018-1.49,0-2.235,0.004v314.474c6.905-0.18,13.925,4.017,15.392,12.614
	l9.183,53.818c3.17,18.578,20.8,31.069,39.379,27.899l0,0c18.578-3.17,31.069-20.8,27.899-39.379L323.036,286.5
	c-2.721-15.944,9.562-30.5,25.737-30.5h24.06C390.599,256,405,241.599,405,223.833l0,0C405,206.068,390.599,191.667,372.833,191.667
	z"/>
<circle style="fill:#607D8A;" cx="219.5" cy="128.33" r="19.333"/>
<circle style="fill:#455A64;" cx="219.5" cy="128.33" r="9.08"/>
<circle style="fill:#546E7A;" cx="292.5" cy="128.33" r="19.333"/>
<circle style="fill:#37474F;" cx="292.5" cy="128.33" r="9.08"/>
<g>
	<path style="fill:#455A64;" d="M242.594,238.904l-7.521-11.808l-79.608,50.714c-1.732-0.831-3.665-1.31-5.715-1.31
		c-7.318,0-13.25,5.932-13.25,13.25S142.432,303,149.75,303S163,297.068,163,289.75c0-0.046-0.006-0.091-0.007-0.137
		L242.594,238.904z"/>
	<path style="fill:#455A64;" d="M245.911,300.683l-11.383-8.15l-54.947,76.747c-1.917-0.125-3.889,0.152-5.791,0.916
		c-6.79,2.729-10.081,10.446-7.352,17.236c2.729,6.79,10.446,10.081,17.236,7.352s10.081-10.446,7.352-17.236
		c-0.017-0.043-0.04-0.082-0.057-0.124L245.911,300.683z"/>
</g>
<g>
	<path style="fill:#37474F;" d="M291.594,287.536l-8.172,11.367l76.643,55.092c-0.128,1.917,0.144,3.89,0.905,5.793
		c2.717,6.795,10.427,10.101,17.222,7.384s10.101-10.427,7.384-17.222s-10.427-10.101-17.222-7.384
		c-0.043,0.017-0.082,0.04-0.124,0.057L291.594,287.536z"/>
	<path style="fill:#37474F;" d="M275.623,252.92l-2.457,13.783l92.925,16.561c0.713,1.784,1.811,3.445,3.32,4.833
		c5.386,4.954,13.768,4.603,18.722-0.783c4.954-5.386,4.603-13.768-0.783-18.722s-13.768-4.603-18.722,0.783
		c-0.031,0.034-0.057,0.071-0.087,0.105L275.623,252.92z"/>
</g>
<g>
</g>
<g>
</g>
<g>
</g>
<g>
</g>
<g>
</g>
<g>
</g>
<g>
</g>
<g>
</g>
<g>
</g>
<g>
</g>
<g>
</g>
<g>
</g>
<g>
</g>
<g>
</g>
<g>
</g>
</svg>
