<?xml version="1.0" encoding="iso-8859-1"?>
<!-- Generator: Adobe Illustrator 19.0.0, SVG Export Plug-In . SVG Version: 6.00 Build 0)  -->
<svg version="1.1" id="Capa_1" xmlns="http://www.w3.org/2000/svg" xmlns:xlink="http://www.w3.org/1999/xlink" x="0px" y="0px"
	 viewBox="0 0 512 512" style="enable-background:new 0 0 512 512;" xml:space="preserve">
<circle style="fill:#7E57C1;" cx="256" cy="256" r="256"/>
<path style="fill:#673AB6;" d="M512,256c0-29.206-4.903-57.264-13.91-83.41l-77.761-77.761L199.11,180.202l-54.333-54.333
	l5.128,25.438l-38.474,7.908l87.679,87.679v48.442L96.454,192.679l5.769,21.126L77,212.133l122.11,122.11v61.126L93.348,435
	l51.834,51.834C178.715,502.962,216.302,512,256,512C397.385,512,512,397.385,512,256z"/>
<path style="fill:#AFBDC4;" d="M185.498,84.167c19.146,0,34.667,15.521,34.667,34.667h209.833c0-19.146-15.521-34.667-34.667-34.667
	H185.498z"/>
<path style="fill:#FFFFFF;" d="M394.999,84.167H186.333c-19.146,0-34.667,15.521-34.667,34.667V409.5h0.002v0.167
	c0,19.146-15.521,34.667-34.667,34.667h208.667c19.146,0,34.667-15.521,34.667-34.667V119h-0.001v-0.167
	C360.333,99.688,375.853,84.167,394.999,84.167z"/>
<path style="fill:#E6E6E6;" d="M394.999,84.167H255.576v360.167h70.092c19.146,0,34.667-15.521,34.667-34.667V119h-0.001v-0.167
	C360.333,99.688,375.853,84.167,394.999,84.167z"/>
<path style="fill:#CED7DB;" d="M326.834,444.333c-19.146,0-34.667-15.521-34.667-34.667H82.334
	c0,19.146,15.521,34.667,34.667,34.667H326.834z"/>
<path style="fill:#AFBDC4;" d="M292.167,409.667h-36.591v34.667h71.258C307.688,444.333,292.167,428.813,292.167,409.667z"/>
<path style="fill:#FBD747;" d="M144.777,125.869l4.87,14.262c2.282,6.683,7.531,11.931,14.213,14.213l14.262,4.87l-14.262,4.87
	c-6.683,2.282-11.931,7.531-14.213,14.213l-4.87,14.262l-4.87-14.262c-2.282-6.683-7.531-11.931-14.213-14.213l-14.262-4.87
	l14.262-4.87c6.683-2.282,11.931-7.531,14.213-14.213L144.777,125.869z"/>
<path style="fill:#E9BA13;" d="M367.545,260.082l4.01,11.742c1.879,5.502,6.2,9.823,11.702,11.702l11.742,4.01l-11.742,4.01
	c-5.502,1.879-9.823,6.2-11.702,11.702l-4.01,11.742l-4.01-11.742c-1.879-5.502-6.2-9.823-11.702-11.702l-11.742-4.01l11.742-4.01
	c5.502-1.879,9.823-6.2,11.702-11.702L367.545,260.082z"/>
<path style="fill:#FBD747;" d="M96.454,192.679l2.841,8.32c1.331,3.899,4.393,6.961,8.292,8.292l8.32,2.841l-8.32,2.841
	c-3.899,1.331-6.961,4.393-8.292,8.292l-2.841,8.32l-2.841-8.32c-1.331-3.899-4.393-6.961-8.292-8.292L77,212.133l8.32-2.841
	c3.899-1.331,6.961-4.393,8.292-8.292L96.454,192.679z"/>
<path style="fill:#E9BA13;" d="M417.959,153.772l2.329,6.821c1.091,3.196,3.602,5.706,6.797,6.797l6.821,2.329l-6.821,2.329
	c-3.196,1.091-5.706,3.602-6.797,6.797l-2.329,6.821l-2.329-6.821c-1.091-3.196-3.602-5.706-6.797-6.797l-6.821-2.329l6.821-2.329
	c3.196-1.091,5.706-3.602,6.797-6.797L417.959,153.772z"/>
<rect x="169" y="137" style="fill:#8FA3AD;" width="171.09" height="11.333"/>
<rect x="255.58" y="137" style="fill:#788F9B;" width="84.52" height="11.333"/>
<rect x="169" y="166.21" style="fill:#8FA3AD;" width="171.09" height="11.333"/>
<rect x="255.58" y="166.21" style="fill:#788F9B;" width="84.52" height="11.333"/>
<rect x="169" y="195.42" style="fill:#8FA3AD;" width="171.09" height="11.333"/>
<rect x="255.58" y="195.42" style="fill:#788F9B;" width="84.52" height="11.333"/>
<rect x="169" y="224.63" style="fill:#8FA3AD;" width="171.09" height="11.333"/>
<rect x="255.58" y="224.63" style="fill:#788F9B;" width="84.52" height="11.333"/>
<rect x="169" y="253.84" style="fill:#8FA3AD;" width="171.09" height="11.333"/>
<rect x="255.58" y="253.84" style="fill:#788F9B;" width="84.52" height="11.333"/>
<rect x="169" y="283.05" style="fill:#8FA3AD;" width="171.09" height="11.333"/>
<rect x="255.58" y="283.05" style="fill:#788F9B;" width="84.52" height="11.333"/>
<g>
</g>
<g>
</g>
<g>
</g>
<g>
</g>
<g>
</g>
<g>
</g>
<g>
</g>
<g>
</g>
<g>
</g>
<g>
</g>
<g>
</g>
<g>
</g>
<g>
</g>
<g>
</g>
<g>
</g>
</svg>
