<?xml version="1.0" encoding="iso-8859-1"?>
<!-- Generator: Adobe Illustrator 19.0.0, SVG Export Plug-In . SVG Version: 6.00 Build 0)  -->
<svg version="1.1" id="Capa_1" xmlns="http://www.w3.org/2000/svg" xmlns:xlink="http://www.w3.org/1999/xlink" x="0px" y="0px"
	 viewBox="0 0 512 512" style="enable-background:new 0 0 512 512;" xml:space="preserve">
<circle style="fill:#FBD747;" cx="256" cy="256" r="256"/>
<path style="fill:#E9BA13;" d="M512,256c0-15.553-1.39-30.782-4.047-45.57L364.176,66.653l-1.266,42.172l-58.7-58.7l1.721,87.721
	L218.21,50.125l3.971,162.214l-74.514-74.515l-2.74,16.49l-13.208-0.542l79.332,79.332L70.007,227.66l158.582,158.582L140,404.111
	l107.742,107.743c2.743,0.087,5.493,0.146,8.258,0.146C397.385,512,512,397.385,512,256z"/>
<path style="fill:#455A64;" d="M372,209c-38.667,65.037-38.667,130.074,0,195.111c-77.333,32.519-154.667,32.519-232,0
	c38.667-65.037,38.667-130.074,0-195.111H372z"/>
<g>
	<path style="fill:#37474F;" d="M372,209H255.576v219.494c38.808,0.06,77.616-8.065,116.424-24.383
		C333.333,339.074,333.333,274.037,372,209z"/>
	<ellipse style="fill:#37474F;" cx="256" cy="221.5" rx="189" ry="34.5"/>
</g>
<g>
	<path style="fill:#263238;" d="M256,187c-0.142,0-0.282,0.001-0.424,0.001v68.998c0.142,0,0.282,0.001,0.424,0.001
		c104.382,0,189-15.446,189-34.5S360.382,187,256,187z"/>
	<ellipse style="fill:#263238;" cx="256" cy="221.5" rx="98" ry="10"/>
</g>
<path style="fill:#141B1E;" d="M256,211.5c-0.142,0-0.282,0-0.424,0v20c0.142,0,0.282,0,0.424,0c54.124,0,98-4.477,98-10
	S310.124,211.5,256,211.5z"/>
<path style="fill:#FE5722;" d="M364.176,66.653l4.01,11.742c1.879,5.502,6.2,9.823,11.702,11.702l11.742,4.01l-11.742,4.01
	c-5.502,1.879-9.823,6.2-11.702,11.702l-4.01,11.742l-4.01-11.742c-1.879-5.502-6.2-9.823-11.702-11.702l-11.742-4.01l11.742-4.01
	c5.502-1.879,9.823-6.2,11.702-11.702L364.176,66.653z"/>
<path style="fill:#FE7043;" d="M147.667,137.824l2.329,6.821c1.091,3.196,3.602,5.706,6.797,6.797l6.821,2.329l-6.821,2.329
	c-3.196,1.091-5.706,3.602-6.797,6.797l-2.329,6.821l-2.329-6.821c-1.091-3.196-3.602-5.706-6.797-6.797l-6.821-2.329l6.821-2.329
	c3.196-1.091,5.706-3.602,6.797-6.797L147.667,137.824z"/>
<path style="fill:#FE5722;" d="M399.866,143.267l2.329,6.821c1.091,3.196,3.602,5.706,6.797,6.797l6.821,2.329l-6.821,2.329
	c-3.196,1.091-5.706,3.602-6.797,6.797l-2.329,6.821l-2.329-6.821c-1.091-3.196-3.602-5.706-6.797-6.797l-6.821-2.329l6.821-2.329
	c3.196-1.091,5.706-3.602,6.797-6.797L399.866,143.267z"/>
<path style="fill:#FFFFFF;" d="M213,47.667c-14.359,0-26,54.771-26,122.333c0,21.359,1.165,41.436,3.209,58.911
	c12.564,1.162,28.096,1.995,45.297,2.369C237.728,213.26,239,192.33,239,170C239,102.437,227.359,47.667,213,47.667z"/>
<path style="fill:#AFBDC4;" d="M229.13,170c0-41.915-7.222-75.893-16.13-75.893S196.87,128.085,196.87,170
	c0,24.366,2.443,46.034,6.237,59.92c6.079,0.398,12.618,0.73,19.517,0.985C226.572,217.071,229.13,194.942,229.13,170z"/>
<path style="fill:#E6E6E6;" d="M299,47.667c-14.359,0-26,54.771-26,122.333c0,22.33,1.272,43.26,3.493,61.28
	c17.201-0.373,32.733-1.207,45.297-2.369C323.835,211.436,325,191.359,325,170C325,102.437,313.359,47.667,299,47.667z"/>
<path style="fill:#8FA3AD;" d="M299,94.107c-8.908,0-16.13,33.979-16.13,75.893c0,24.942,2.558,47.071,6.506,60.905
	c6.899-0.255,13.439-0.587,19.517-0.985c3.794-13.886,6.237-35.554,6.237-59.92C315.13,128.085,307.908,94.107,299,94.107z"/>
<g>
</g>
<g>
</g>
<g>
</g>
<g>
</g>
<g>
</g>
<g>
</g>
<g>
</g>
<g>
</g>
<g>
</g>
<g>
</g>
<g>
</g>
<g>
</g>
<g>
</g>
<g>
</g>
<g>
</g>
</svg>
