<?xml version="1.0" encoding="iso-8859-1"?>
<!-- Generator: Adobe Illustrator 19.0.0, SVG Export Plug-In . SVG Version: 6.00 Build 0)  -->
<svg version="1.1" id="Capa_1" xmlns="http://www.w3.org/2000/svg" xmlns:xlink="http://www.w3.org/1999/xlink" x="0px" y="0px"
	 viewBox="0 0 512 512" style="enable-background:new 0 0 512 512;" xml:space="preserve">
<circle style="fill:#8D24A9;" cx="256" cy="256" r="256"/>
<path style="fill:#7B1FA1;" d="M447.667,194.333l-48.797,79.442L245.691,120.597l-58.336,58.336l24.727,24.727L64.333,297
	l62.274,62.274l-15.11,57.66l89.018,89.018C218.383,509.9,236.945,512,256,512c140.504,0,254.552-113.197,255.967-253.367
	L447.667,194.333z"/>
<rect x="117.67" y="265" style="fill:#EBEEF0;" width="17.333" height="130"/>
<circle style="fill:#37474F;" cx="125.83" cy="399.17" r="22.833"/>
<rect x="377" y="265" style="fill:#CED7DB;" width="17.333" height="130"/>
<circle style="fill:#263238;" cx="386.17" cy="399.17" r="22.833"/>
<rect x="272.33" y="194.33" style="fill:#FEC007;" width="175.33" height="102.67"/>
<g>
	<polygon style="fill:#FFFFFF;" points="190.968,169.49 240.038,120.42 349.216,229.598 315.54,263.274 315.766,263.5 
		313.732,256.232 306.185,256.287 304.152,249.019 296.604,249.074 294.57,241.805 287.023,241.861 284.991,234.594 277.445,234.65 
		275.412,227.382 267.865,227.437 265.832,220.17 258.284,220.225 256.25,212.956 248.702,213.011 246.668,205.742 239.12,205.797 
		237.084,198.527 229.536,198.582 227.501,191.312 219.953,191.368 217.919,184.099 210.371,184.153 208.334,176.883 
		200.785,176.937 198.746,169.665 191.194,169.716 	"/>
	<polygon style="fill:#FFFFFF;" points="315.766,263.5 315.667,263.146 315.54,263.274 	"/>
</g>
<polygon style="fill:#E6E6E6;" points="216.295,144.163 190.968,169.49 191.194,169.716 198.746,169.665 200.785,176.937 
	208.334,176.883 210.371,184.153 217.919,184.099 219.953,191.367 227.501,191.313 229.536,198.582 237.084,198.527 239.12,205.797 
	246.668,205.742 248.702,213.011 256.25,212.956 258.284,220.225 265.832,220.17 267.865,227.438 275.412,227.382 277.445,234.65 
	284.991,234.594 287.023,241.861 294.57,241.805 296.604,249.074 304.152,249.019 306.185,256.287 313.732,256.232 315.667,263.146 
	330.691,248.123 "/>
<rect x="169.819" y="89.177" transform="matrix(0.7071 0.7071 -0.7071 0.7071 149.9768 -101.2236)" style="fill:#F47C00;" width="54.713" height="82.499"/>
<polygon style="fill:#EE6C00;" points="178.812,110.1 148.667,140.245 187.355,178.933 219.349,146.939 "/>
<rect x="64.33" y="194.33" style="fill:#FEC928;" width="175.33" height="102.67"/>
<g>
</g>
<g>
</g>
<g>
</g>
<g>
</g>
<g>
</g>
<g>
</g>
<g>
</g>
<g>
</g>
<g>
</g>
<g>
</g>
<g>
</g>
<g>
</g>
<g>
</g>
<g>
</g>
<g>
</g>
</svg>
