<?xml version="1.0" encoding="iso-8859-1"?>
<!-- Generator: Adobe Illustrator 19.0.0, SVG Export Plug-In . SVG Version: 6.00 Build 0)  -->
<svg version="1.1" id="Capa_1" xmlns="http://www.w3.org/2000/svg" xmlns:xlink="http://www.w3.org/1999/xlink" x="0px" y="0px"
	 viewBox="0 0 512 512" style="enable-background:new 0 0 512 512;" xml:space="preserve">
<circle style="fill:#7E57C1;" cx="256" cy="256" r="256"/>
<path style="fill:#673AB6;" d="M340.849,497.583c73.77-25.909,132.087-84.637,157.419-158.677l-69.487-69.487l-67.332,9.789
	l-19.69-19.69l-6.297,16.745l-32.949-32.949l-6.313,13.402L95.809,56.324l13.621,74.809l-88.438,23.22l0,0l189.64,189.64
	l-11.309,12.065L340.849,497.583z"/>
<circle style="fill:#F8A725;" cx="295" cy="251.04" r="10.783"/>
<path style="fill:#F47F17;" d="M295,240.257c-0.421,0-0.834,0.03-1.242,0.077v21.413c0.408,0.047,0.822,0.077,1.242,0.077
	c5.956,0,10.783-4.828,10.783-10.783S300.956,240.257,295,240.257z"/>
<path style="fill:#FABF2D;" d="M345.375,281.957h-100.75V268.02c0-6.524,5.289-11.813,11.813-11.813h77.125
	c6.524,0,11.813,5.289,11.813,11.813L345.375,281.957L345.375,281.957z"/>
<path style="fill:#F8A725;" d="M345.375,268.02c0-6.524-5.289-11.813-11.813-11.813h-39.805v25.75h51.617L345.375,268.02
	L345.375,268.02z"/>
<path style="fill:#FBD747;" d="M402.947,260.248h-19.845c-11.756,0-22.366,4.973-29.86,12.917
	c-3.569-0.782-7.272-1.207-11.076-1.207h-103c-13.803,0-26.327,5.441-35.574,14.281c-8.011-1.5-15.469-5.323-21.392-11.084
	l-36.867-35.864h-26l56.107,78.765c3.8,5.335,8.181,10.196,13.045,14.503c4.3,24.099,25.347,42.399,50.682,42.399h103
	c21.758,0,40.351-13.5,47.895-32.575h12.885c22.645,0,41.067-18.423,41.067-41.067S425.592,260.248,402.947,260.248z
	 M402.947,322.383h-9.307c-0.333-16.214-8.151-30.582-20.148-39.792c2.885-1.487,6.147-2.343,9.611-2.343h19.845
	c11.616,0,21.067,9.451,21.067,21.067S414.563,322.383,402.947,322.383z"/>
<path style="fill:#E9BA13;" d="M402.947,260.248h-19.845c-11.756,0-22.366,4.973-29.86,12.917
	c-3.569-0.782-7.272-1.207-11.076-1.207h-48.409v103h48.409c21.758,0,40.351-13.5,47.895-32.575h12.885
	c22.645,0,41.067-18.423,41.067-41.067S425.592,260.248,402.947,260.248z M402.947,322.383h-9.307
	c-0.333-16.214-8.151-30.582-20.148-39.792c2.885-1.487,6.147-2.343,9.611-2.343h19.845c11.616,0,21.067,9.451,21.067,21.067
	S414.563,322.383,402.947,322.383z"/>
<path style="fill:#CED7DB;" d="M20.992,154.354l40.258,18.864c22.454,10.521,40.511,28.578,51.033,51.031l7.049,15.042h26V151.67
	c0-26.483-9.909-52.009-27.778-71.556l-21.745-23.79C63.527,82.257,37.669,115.851,20.992,154.354z"/>
<path style="fill:#AFBDC4;" d="M145.333,151.669c0-26.483-9.909-52.009-27.778-71.556L95.809,56.324
	c-12.763,10.253-24.502,21.72-35.086,34.197l74.65,148.769h9.961v-87.621H145.333z"/>
<g>
</g>
<g>
</g>
<g>
</g>
<g>
</g>
<g>
</g>
<g>
</g>
<g>
</g>
<g>
</g>
<g>
</g>
<g>
</g>
<g>
</g>
<g>
</g>
<g>
</g>
<g>
</g>
<g>
</g>
</svg>
