<?xml version="1.0" encoding="iso-8859-1"?>
<!-- Generator: Adobe Illustrator 19.0.0, SVG Export Plug-In . SVG Version: 6.00 Build 0)  -->
<svg version="1.1" id="Capa_1" xmlns="http://www.w3.org/2000/svg" xmlns:xlink="http://www.w3.org/1999/xlink" x="0px" y="0px"
	 viewBox="0 0 512 512" style="enable-background:new 0 0 512 512;" xml:space="preserve">
<circle style="fill:#303F9E;" cx="256" cy="256" r="256"/>
<g>
	<path style="fill:#283592;" d="M498.453,338.381L368.788,208.717l3.627,34.365L206.333,77l-4.109,111.961l-106.557-1.295
		l289.429,289.429C437.804,446.253,478.502,397.114,498.453,338.381z"/>
	<path style="fill:#283592;" d="M312.917,505.64c24.785-5.627,48.203-14.85,69.678-27.093L232.048,328l9.477,40.966l-57.863,7.42
		L312.917,505.64z"/>
</g>
<path style="fill:#FEED58;" d="M368.788,208.717l11.288,33.054c5.289,15.488,17.453,27.652,32.941,32.941L446.071,286
	l-33.054,11.288c-15.488,5.289-27.652,17.453-32.941,32.941l-11.288,33.054L357.5,330.229
	c-5.289-15.488-17.453-27.652-32.941-32.941L291.505,286l33.054-11.288c15.488-5.289,27.652-17.453,32.941-32.941L368.788,208.717z"
	/>
<path style="fill:#FEEA3B;" d="M368.788,363.283l11.288-33.054c5.289-15.488,17.453-27.652,32.941-32.941L446.071,286
	l-33.054-11.288c-15.488-5.289-27.652-17.453-32.941-32.941l-11.288-33.054L368.788,363.283L368.788,363.283z"/>
<path style="fill:#FEED58;" d="M232.048,328l7.067,20.695c3.311,9.697,10.927,17.313,20.624,20.624l20.695,7.067l-20.695,7.067
	c-9.697,3.311-17.313,10.927-20.624,20.624l-7.067,20.695l-7.067-20.695c-3.311-9.697-10.927-17.313-20.624-20.624l-20.695-7.067
	l20.695-7.067c9.697-3.311,17.313-10.927,20.624-20.624L232.048,328z"/>
<path style="fill:#FEEA3B;" d="M232.048,424.771l7.067-20.695c3.311-9.697,10.927-17.313,20.624-20.624l20.695-7.067l-20.695-7.067
	c-9.697-3.311-17.313-10.927-20.624-20.624L232.048,328V424.771z"/>
<path style="fill:#FEED58;" d="M206.333,77l16.163,47.333c7.574,22.178,24.993,39.597,47.171,47.171L317,187.667l-47.333,16.163
	c-22.178,7.573-39.597,24.993-47.171,47.171l-16.163,47.333l-16.163-47.333c-7.573-22.178-24.993-39.597-47.171-47.171
	l-47.333-16.163l47.333-16.163c22.178-7.574,39.597-24.993,47.171-47.171L206.333,77z"/>
<path style="fill:#FEEA3B;" d="M269.667,171.503c-22.178-7.573-39.597-24.993-47.171-47.171l-16.012-46.889V297.89l16.012-46.889
	c7.573-22.178,24.993-39.597,47.171-47.171L317,187.667L269.667,171.503z"/>
<g>
</g>
<g>
</g>
<g>
</g>
<g>
</g>
<g>
</g>
<g>
</g>
<g>
</g>
<g>
</g>
<g>
</g>
<g>
</g>
<g>
</g>
<g>
</g>
<g>
</g>
<g>
</g>
<g>
</g>
</svg>
