<?xml version="1.0" encoding="iso-8859-1"?>
<!-- Generator: Adobe Illustrator 19.0.0, SVG Export Plug-In . SVG Version: 6.00 Build 0)  -->
<svg version="1.1" id="Capa_1" xmlns="http://www.w3.org/2000/svg" xmlns:xlink="http://www.w3.org/1999/xlink" x="0px" y="0px"
	 viewBox="0 0 512 512" style="enable-background:new 0 0 512 512;" xml:space="preserve">
<circle style="fill:#7E57C1;" cx="256" cy="256" r="256"/>
<path style="fill:#673AB6;" d="M279.423,510.923c126.985-11.521,227.181-115.76,232.348-244.479l-65.893-65.893l-6.638,7.189
	L312.5,81l-45.751,185.077L136.596,135.924l-6.571,8.328h-40.38l21.104,21.104l-1.841,0.258l86.949,86.949l-68.971,6.135
	l-22.011-22.011l-9.239,24.791l-29.761,2.647l154.539,154.539L199.5,431L279.423,510.923z"/>
<rect x="96.5" y="248.75" style="fill:#FFFFFF;" width="122.5" height="14.5"/>
<rect x="65.875" y="247.87" style="fill:#00AFFE;" width="33.375" height="16.25"/>
<rect x="92.37" y="236.69" style="fill:#40C3FE;" width="12.5" height="38.625"/>
<rect x="271.365" y="317.996" transform="matrix(0.9538 0.3003 -0.3003 0.9538 113.0286 -84.8748)" style="fill:#E6E6E6;" width="122.495" height="14.499"/>
<rect x="387.651" y="339.702" transform="matrix(0.9538 0.3003 -0.3003 0.9538 123.1208 -105.3724)" style="fill:#039AE4;" width="33.374" height="16.249"/>
<rect x="382.76" y="323.695" transform="matrix(0.9538 0.3003 -0.3003 0.9538 120.9657 -100.9916)" style="fill:#00AFFE;" width="12.499" height="38.623"/>
<rect x="292.618" y="199.356" transform="matrix(0.9997 0.0226 -0.0226 0.9997 4.7599 -7.9449)" style="fill:#E6E6E6;" width="122.495" height="14.499"/>
<rect x="412.342" y="200.177" transform="matrix(0.9997 0.0226 -0.0226 0.9997 4.8174 -9.6433)" style="fill:#039AE4;" width="33.374" height="16.249"/>
<rect x="406.723" y="188.636" transform="matrix(0.9997 0.0226 -0.0226 0.9997 4.8053 -9.2805)" style="fill:#00AFFE;" width="12.499" height="38.623"/>
<rect x="115.067" y="168.57" transform="matrix(-0.9058 -0.4237 0.4237 -0.9058 261.5294 409.7843)" style="fill:#FFFFFF;" width="122.5" height="14.5"/>
<rect x="91.519" y="135.836" transform="matrix(-0.9058 -0.4237 0.4237 -0.9058 145.2235 320.2083)" style="fill:#00AFFE;" width="33.375" height="16.25"/>
<rect x="116.505" y="131.457" transform="matrix(-0.9058 -0.4237 0.4237 -0.9058 170.0647 339.3489)" style="fill:#40C3FE;" width="12.5" height="38.625"/>
<polygon style="fill:#FCD735;" points="312.5,81 199.5,81 169.5,187 199.5,431 312.5,431 342.5,187 "/>
<polygon style="fill:#FABF2D;" points="342.5,187 312.5,81 255.576,81 255.576,431 312.5,431 "/>
<polygon style="fill:#F8A725;" points="288.333,158.667 267.667,158.667 267.667,138.333 244.333,138.333 244.333,158.667 
	223.667,158.667 223.667,182 244.333,182 244.333,231.667 267.667,231.667 267.667,182 288.333,182 "/>
<polygon style="fill:#F47F17;" points="267.667,158.667 267.667,138.333 255.576,138.333 255.576,231.667 267.667,231.667 
	267.667,182 288.333,182 288.333,158.667 "/>
<g>
</g>
<g>
</g>
<g>
</g>
<g>
</g>
<g>
</g>
<g>
</g>
<g>
</g>
<g>
</g>
<g>
</g>
<g>
</g>
<g>
</g>
<g>
</g>
<g>
</g>
<g>
</g>
<g>
</g>
</svg>
