<?xml version="1.0" encoding="iso-8859-1"?>
<!-- Generator: Adobe Illustrator 19.0.0, SVG Export Plug-In . SVG Version: 6.00 Build 0)  -->
<svg version="1.1" id="Capa_1" xmlns="http://www.w3.org/2000/svg" xmlns:xlink="http://www.w3.org/1999/xlink" x="0px" y="0px"
	 viewBox="0 0 512 512" style="enable-background:new 0 0 512 512;" xml:space="preserve">
<circle style="fill:#7E57C1;" cx="256" cy="256" r="256"/>
<path style="fill:#673AB6;" d="M479.632,131.344l-42.918-42.918L363.4,234.937l-64.51-64.51l-21.346,116.478L161.066,170.426
	L54.5,323l188.68,188.68c4.247,0.209,8.521,0.32,12.82,0.32c141.385,0,256-114.615,256-256
	C512,210.741,500.24,168.235,479.632,131.344z"/>
<polygon style="fill:#FE7043;" points="179.566,317.5 61.167,317.5 79.667,170.426 161.066,170.426 "/>
<polygon style="fill:#FE5722;" points="161.066,170.426 117.394,170.426 117.394,317.5 179.566,317.5 "/>
<polygon style="fill:#FE7043;" points="317.389,317.5 198.99,317.5 217.49,170.426 298.89,170.426 "/>
<polygon style="fill:#FE5722;" points="298.89,170.426 255.576,170.426 255.576,317.5 317.389,317.5 "/>
<polygon style="fill:#FE6E40;" points="455.213,235.5 336.814,235.5 355.314,88.426 436.713,88.426 "/>
<polygon style="fill:#FE5722;" points="436.713,88.426 395.576,88.426 395.576,235.5 455.213,235.5 "/>
<circle style="fill:#FFFFFF;" cx="396.01" cy="287.83" r="29.667"/>
<path style="fill:#E6E6E6;" d="M396.014,258.167c-0.147,0-0.292,0.009-0.438,0.011v59.311c0.146,0.002,0.291,0.011,0.438,0.011
	c16.385,0,29.667-13.282,29.667-29.667S412.398,258.167,396.014,258.167z"/>
<rect x="54.5" y="303.5" style="fill:#FECBBB;" width="131" height="19.5"/>
<rect x="117.39" y="303.5" style="fill:#FEAA90;" width="68.11" height="19.5"/>
<rect x="190.5" y="303.5" style="fill:#FECBBB;" width="131" height="19.5"/>
<rect x="255.58" y="303.5" style="fill:#FEAA90;" width="65.924" height="19.5"/>
<rect x="330.51" y="228" style="fill:#FECBBB;" width="131" height="19.5"/>
<rect x="395.58" y="228" style="fill:#FEAA90;" width="65.938" height="19.5"/>
<g>
</g>
<g>
</g>
<g>
</g>
<g>
</g>
<g>
</g>
<g>
</g>
<g>
</g>
<g>
</g>
<g>
</g>
<g>
</g>
<g>
</g>
<g>
</g>
<g>
</g>
<g>
</g>
<g>
</g>
</svg>
