<?xml version="1.0" encoding="iso-8859-1"?>
<!-- Generator: Adobe Illustrator 19.0.0, SVG Export Plug-In . SVG Version: 6.00 Build 0)  -->
<svg version="1.1" id="Capa_1" xmlns="http://www.w3.org/2000/svg" xmlns:xlink="http://www.w3.org/1999/xlink" x="0px" y="0px"
	 viewBox="0 0 512 512" style="enable-background:new 0 0 512 512;" xml:space="preserve">
<circle style="fill:#FE7043;" cx="256" cy="256" r="256"/>
<path style="fill:#FE5722;" d="M511.003,278.518L311.448,78.963L98,378l45.434,45.434L135,431.238l76.978,76.978
	C226.281,510.695,240.988,512,256,512C389.795,512,499.598,409.354,511.003,278.518z"/>
<path style="fill:#EBEEF0;" d="M173.628,130.134L98,378c0,0,162,79,327-39l-86.628-208.866H173.628z"/>
<path style="fill:#CED7DB;" d="M338.372,130.134h-82.796v272.573C306.736,398.386,365.674,381.427,425,339L338.372,130.134z"/>
<path style="fill:#FFFFFF;" d="M135,431.238l38.628-301.104c5.36-41.405,40.622-72.396,82.372-72.396l0,0
	c41.75,0,77.012,30.991,82.372,72.396L369,382.5C369,382.5,296.333,453.905,135,431.238z"/>
<path style="fill:#E6E6E6;" d="M338.372,130.134C333.012,88.729,297.75,57.738,256,57.738l0,0c-0.142,0-0.282,0.009-0.424,0.01
	v373.148C333.047,417.827,369,382.5,369,382.5L338.372,130.134z"/>
<path style="fill:#AFBDC4;" d="M220.667,170.405L220.667,170.405c-7.548,0-13.667-6.119-13.667-13.667v-26.667
	c0-7.548,6.119-13.667,13.667-13.667l0,0c7.548,0,13.667,6.119,13.667,13.667v26.667
	C234.333,164.286,228.215,170.405,220.667,170.405z"/>
<path style="fill:#8FA3AD;" d="M291.333,170.405L291.333,170.405c-7.548,0-13.667-6.119-13.667-13.667v-26.667
	c0-7.548,6.119-13.667,13.667-13.667l0,0c7.548,0,13.667,6.119,13.667,13.667v26.667C305,164.286,298.881,170.405,291.333,170.405z"
	/>
<g>
</g>
<g>
</g>
<g>
</g>
<g>
</g>
<g>
</g>
<g>
</g>
<g>
</g>
<g>
</g>
<g>
</g>
<g>
</g>
<g>
</g>
<g>
</g>
<g>
</g>
<g>
</g>
<g>
</g>
</svg>
