<?xml version="1.0" encoding="iso-8859-1"?>
<!-- Generator: Adobe Illustrator 19.0.0, SVG Export Plug-In . SVG Version: 6.00 Build 0)  -->
<svg version="1.1" id="Capa_1" xmlns="http://www.w3.org/2000/svg" xmlns:xlink="http://www.w3.org/1999/xlink" x="0px" y="0px"
	 viewBox="0 0 512 512" style="enable-background:new 0 0 512 512;" xml:space="preserve">
<circle style="fill:#FBD747;" cx="256" cy="256" r="256"/>
<path style="fill:#E9BA13;" d="M257.833,511.977C398.372,510.989,512,396.772,512,256c0-6.174-0.232-12.294-0.662-18.358
	L441,167.303l-19.834,21.683L94.525,203.743l105.651,105.651l-75.135,69.792L257.833,511.977z"/>
<path style="fill:#455A64;" d="M320.325,149.133c-36.583-17.287-55.482-2.936-64.325,9.547
	c-8.842-12.484-27.742-26.834-64.325-9.547c-56.969,26.919-91.272,45.09-120.675,18.171c0,0,17.152,60.569,91.272,62.588
	c52.889,1.441,81.749-11.516,93.728-31.279c11.979,19.763,40.839,32.719,93.728,31.279c74.12-2.019,91.272-62.588,91.272-62.588
	C411.597,194.223,377.293,176.052,320.325,149.133z"/>
<path style="fill:#37474F;" d="M256,198.612c11.979,19.763,40.838,32.719,93.728,31.279c74.12-2.019,91.272-62.588,91.272-62.588
	c-29.403,26.919-63.707,8.749-120.676-18.17c-36.583-17.287-55.482-2.937-64.324,9.547V198.612z"/>
<path style="fill:#DC2C00;" d="M234.237,348.995l-76.924,38.223c-17.045,8.469-37.05-3.929-37.05-22.962v-87.864
	c0-19.033,20.006-31.431,37.05-22.962l76.924,38.223V348.995z"/>
<path style="fill:#BE360C;" d="M277.763,291.654l76.924-38.223c17.045-8.469,37.05,3.929,37.05,22.962v87.864
	c0,19.033-20.005,31.431-37.05,22.962l-76.924-38.223V291.654z"/>
<path style="fill:#FE5722;" d="M264.75,362h-17.5c-14.912,0-27-12.088-27-27v-31.5c0-14.912,12.088-27,27-27h17.5
	c14.912,0,27,12.088,27,27V335C291.75,349.912,279.662,362,264.75,362z"/>
<path style="fill:#F3511E;" d="M264.75,276.5h-9.174V362h9.174c14.912,0,27-12.088,27-27v-31.5
	C291.75,288.588,279.662,276.5,264.75,276.5z"/>
<g>
</g>
<g>
</g>
<g>
</g>
<g>
</g>
<g>
</g>
<g>
</g>
<g>
</g>
<g>
</g>
<g>
</g>
<g>
</g>
<g>
</g>
<g>
</g>
<g>
</g>
<g>
</g>
<g>
</g>
</svg>
