<?xml version="1.0" encoding="iso-8859-1"?>
<!-- Generator: Adobe Illustrator 19.0.0, SVG Export Plug-In . SVG Version: 6.00 Build 0)  -->
<svg version="1.1" id="Capa_1" xmlns="http://www.w3.org/2000/svg" xmlns:xlink="http://www.w3.org/1999/xlink" x="0px" y="0px"
	 viewBox="0 0 512 512" style="enable-background:new 0 0 512 512;" xml:space="preserve">
<circle style="fill:#8D24A9;" cx="256" cy="256" r="256"/>
<path style="fill:#7B1FA1;" d="M511.482,272.096L357.898,118.512l-42.188,52.7L210.786,66.288l-0.868,22.172l-21.219-0.084
	l107.371,107.37l-35.729,44.632L135.737,115.775l-6.475,30.194l-20.857-2.862l127.631,127.631L119.26,416.614l91.378,91.378
	C225.361,510.625,240.52,512,256,512C391.977,512,503.173,405.98,511.482,272.096z"/>
<polygon style="fill:#FEB200;" points="394.042,416.614 119.26,416.614 166.5,313.116 346.801,313.116 "/>
<polygon style="fill:#FE9F00;" points="346.801,313.116 256.704,313.116 256.704,416.614 394.042,416.614 "/>
<circle style="fill:#7AE5FE;" cx="256" cy="225.29" r="147.59"/>
<path style="fill:#00BED2;" d="M403.595,225.287c0-81.279-65.701-147.206-146.892-147.586v295.173
	C337.894,372.494,403.595,306.567,403.595,225.287z"/>
<path style="fill:#FFFFFF;" d="M135.737,115.775l3.992,11.69c1.87,5.478,6.173,9.78,11.65,11.65l11.69,3.992l-11.69,3.992
	c-5.478,1.87-9.78,6.173-11.65,11.65l-3.992,11.69l-3.992-11.69c-1.87-5.478-6.173-9.78-11.65-11.65l-11.69-3.992l11.69-3.992
	c5.478-1.87,9.78-6.173,11.65-11.65L135.737,115.775z"/>
<path style="fill:#E6E6E6;" d="M151.379,139.116c-5.478-1.87-9.78-6.173-11.65-11.65l-3.992-11.69l-0.118,0.345v53.975l0.118,0.345
	l3.992-11.69c1.87-5.477,6.173-9.78,11.65-11.65l11.69-3.992L151.379,139.116z"/>
<path style="fill:#FFFFFF;" d="M210.786,66.288l3.226,9.447c1.512,4.426,4.988,7.903,9.414,9.414l9.447,3.226l-9.447,3.226
	c-4.426,1.512-7.903,4.988-9.414,9.414l-3.226,9.447l-3.226-9.447c-1.512-4.426-4.988-7.903-9.414-9.414l-9.447-3.226l9.447-3.226
	c4.426-1.512,7.903-4.988,9.414-9.414L210.786,66.288z"/>
<path style="fill:#E6E6E6;" d="M223.427,85.149c-4.426-1.512-7.903-4.988-9.414-9.414l-3.092-9.053v43.388l3.092-9.053
	c1.511-4.426,4.988-7.903,9.414-9.414l9.447-3.226L223.427,85.149z"/>
<path style="fill:#FFFFFF;" d="M206.255,211.439l4.87,14.262c2.282,6.683,7.531,11.931,14.213,14.213l14.262,4.87l-14.262,4.87
	c-6.683,2.282-11.931,7.531-14.213,14.213l-4.87,14.262l-4.87-14.262c-2.282-6.683-7.531-11.931-14.213-14.213l-14.262-4.87
	l14.262-4.87c6.683-2.282,11.931-7.531,14.213-14.213L206.255,211.439z"/>
<path style="fill:#E6E6E6;" d="M225.339,239.914c-6.683-2.282-11.931-7.531-14.213-14.213l-4.87-14.262l-0.154,0.45v65.791
	l0.154,0.45l4.87-14.262c2.282-6.683,7.531-11.931,14.213-14.213l14.262-4.87L225.339,239.914z"/>
<g>
</g>
<g>
</g>
<g>
</g>
<g>
</g>
<g>
</g>
<g>
</g>
<g>
</g>
<g>
</g>
<g>
</g>
<g>
</g>
<g>
</g>
<g>
</g>
<g>
</g>
<g>
</g>
<g>
</g>
</svg>
