<?xml version="1.0" encoding="iso-8859-1"?>
<!-- Generator: Adobe Illustrator 19.0.0, SVG Export Plug-In . SVG Version: 6.00 Build 0)  -->
<svg version="1.1" id="Capa_1" xmlns="http://www.w3.org/2000/svg" xmlns:xlink="http://www.w3.org/1999/xlink" x="0px" y="0px"
	 viewBox="0 0 512 512" style="enable-background:new 0 0 512 512;" xml:space="preserve">
<circle style="fill:#7E57C1;" cx="256" cy="256" r="256"/>
<path style="fill:#673AB6;" d="M512,256c0-2.218-0.029-4.428-0.084-6.632L385.253,122.706l-10.695,32.459l-68.421-68.421
	L115.309,197.093l65.377,65.377l-5.338,7.477l-72.854-72.854l6.518,41.215l-43.851-3.882l119.47,119.47L148.667,352L304.13,507.463
	C422.503,484.941,512,380.931,512,256z"/>
<path style="fill:#FFFFFF;" d="M401.006,161.542c0-30.798-24.966-55.764-55.764-55.764c-8.612,0-16.767,1.955-24.048,5.441
	c-10.097-27.657-36.636-47.402-67.788-47.402c-31.692,0-58.591,20.445-68.28,48.857c-7.97-4.392-17.125-6.896-26.869-6.896
	c-30.798,0-55.764,24.966-55.764,55.764c0,21.655,12.352,40.412,30.386,49.65c-0.855,4.237-1.308,8.619-1.308,13.108
	c0,36.388,29.498,65.886,65.886,65.886c5.329,0,10.504-0.649,15.467-1.843c12.4,34.284,42.966,96.072,42.966,174.84l0,0
	c0-81.724,24.255-135.078,36.443-170.439c2.802,0.363,5.653,0.571,8.554,0.571c36.388,0,65.886-29.498,65.886-65.886
	c0-4.754-0.515-9.387-1.472-13.856C386.185,205.516,401.006,185.266,401.006,161.542z"/>
<path style="fill:#E6E6E6;" d="M401.006,161.542c0-30.798-24.966-55.764-55.764-55.764c-8.612,0-16.766,1.955-24.048,5.441
	c-9.862-27.012-35.41-46.466-65.618-47.359v385.628c0.201,4.507,0.315,9.068,0.315,13.694c0-81.725,24.255-135.078,36.443-170.439
	c2.802,0.363,5.653,0.571,8.554,0.571c36.388,0,65.886-29.498,65.886-65.886c0-4.754-0.515-9.387-1.472-13.855
	C386.185,205.516,401.006,185.266,401.006,161.542z"/>
<path style="fill:#FEEA3B;" d="M396.333,277l3.651,10.693c1.711,5.01,5.646,8.945,10.656,10.656L421.333,302l-10.693,3.651
	c-5.01,1.711-8.945,5.646-10.656,10.656L396.333,327l-3.651-10.693c-1.711-5.01-5.646-8.945-10.656-10.656L371.333,302l10.693-3.651
	c5.01-1.711,8.945-5.646,10.656-10.656L396.333,277z"/>
<g>
	<path style="fill:#FEED58;" d="M173.667,327l3.651,10.693c1.711,5.01,5.646,8.945,10.656,10.656L198.667,352l-10.693,3.651
		c-5.01,1.711-8.945,5.646-10.656,10.656L173.667,377l-3.651-10.693c-1.711-5.01-5.646-8.945-10.656-10.656L148.667,352
		l10.693-3.651c5.01-1.711,8.945-5.646,10.656-10.656L173.667,327z"/>
	<path style="fill:#FEED58;" d="M102.494,197.093l5.453,15.968c2.555,7.482,8.431,13.358,15.913,15.913l15.968,5.453l-15.968,5.453
		c-7.482,2.555-13.358,8.431-15.913,15.913l-5.453,15.968l-5.453-15.968c-2.555-7.482-8.431-13.358-15.913-15.913l-15.968-5.453
		l15.968-5.453c7.482-2.555,13.358-8.431,15.913-15.913L102.494,197.093z"/>
</g>
<g>
</g>
<g>
</g>
<g>
</g>
<g>
</g>
<g>
</g>
<g>
</g>
<g>
</g>
<g>
</g>
<g>
</g>
<g>
</g>
<g>
</g>
<g>
</g>
<g>
</g>
<g>
</g>
<g>
</g>
</svg>
