<?xml version="1.0" encoding="iso-8859-1"?>
<!-- Generator: Adobe Illustrator 19.0.0, SVG Export Plug-In . SVG Version: 6.00 Build 0)  -->
<svg version="1.1" id="Capa_1" xmlns="http://www.w3.org/2000/svg" xmlns:xlink="http://www.w3.org/1999/xlink" x="0px" y="0px"
	 viewBox="0 0 512 512" style="enable-background:new 0 0 512 512;" xml:space="preserve">
<circle style="fill:#FE7043;" cx="256" cy="256" r="256"/>
<path style="fill:#FE5722;" d="M512,256c0-17.945-1.855-35.456-5.368-52.359L389.88,89.299l-22.802,52.662L302.118,77
	L121.861,435.001l70.384,68.995C212.627,509.219,233.989,512,256,512C397.385,512,512,397.385,512,256z"/>
<rect x="100.755" y="89.301" transform="matrix(-0.9926 0.1217 -0.1217 -0.9926 453.5862 484.3109)" style="fill:#FEF49C;" width="222.497" height="333.411"/>
<polygon style="fill:#FEED58;" points="302.118,77 184.117,91.468 235.331,421.088 342.692,407.925 "/>
<rect x="167.4" y="89.3" style="fill:#FFFFFF;" width="222.49" height="333.4"/>
<rect x="278.61" y="89.3" style="fill:#E6E6E6;" width="111.27" height="333.4"/>
<path style="fill:#FED500;" d="M323.722,406.593h-90.167c-29.3,0-53.138-23.837-53.138-53.138V158.544
	c0-29.3,23.837-53.138,53.138-53.138h90.167c29.3,0,53.138,23.837,53.138,53.138v194.911
	C376.859,382.756,353.022,406.593,323.722,406.593z M233.554,125.407c-18.272,0-33.138,14.866-33.138,33.138v194.911
	c0,18.272,14.866,33.138,33.138,33.138h90.167c18.272,0,33.138-14.866,33.138-33.138V158.544c0-18.272-14.866-33.138-33.138-33.138
	L233.554,125.407L233.554,125.407z"/>
<g>
	<path style="fill:#FABF2D;" d="M323.722,105.407h-45.116v20h45.116c18.272,0,33.138,14.866,33.138,33.138v194.911
		c0,18.272-14.866,33.138-33.138,33.138h-45.116v20h45.116c29.3,0,53.138-23.837,53.138-53.138V158.544
		C376.859,129.244,353.022,105.407,323.722,105.407z"/>
	<path style="fill:#FABF2D;" d="M278.702,173.516l-0.064-0.13l-0.064,0.13c-42.234,0.035-76.584,34.404-76.584,76.646
		c0,42.264,34.384,76.648,76.648,76.648s76.648-34.384,76.648-76.648C355.286,207.92,320.936,173.551,278.702,173.516z
		 M328.141,222.666l-27.128-3.942l-11.96-24.233C305.86,197.628,320.075,208.202,328.141,222.666z M296.826,274.554l-18.188-9.562
		l-18.188,9.562l3.474-20.253l-14.714-14.343l20.334-2.955l9.094-18.427l9.094,18.427l20.334,2.955l-14.714,14.343L296.826,274.554z
		 M268.222,194.49l-11.96,24.233l-27.128,3.942C237.2,208.202,251.415,197.628,268.222,194.49z M221.99,250.162
		c0-2.792,0.211-5.534,0.603-8.218l19.841,19.34l-4.788,27.916C227.957,279.029,221.99,265.284,221.99,250.162z M253.4,300.856
		l25.238-13.269l25.238,13.269c-7.605,3.802-16.173,5.954-25.238,5.954S261.005,304.658,253.4,300.856z M319.629,289.199
		l-4.788-27.915l19.841-19.34c0.392,2.685,0.603,5.427,0.603,8.218C335.286,265.284,329.318,279.029,319.629,289.199z"/>
</g>
<path style="fill:#F8A725;" d="M278.702,173.516l-0.064-0.13l-0.032,0.064v45.191l0.032-0.064l9.094,18.427l20.334,2.955
	l-14.714,14.343l3.473,20.253l-18.188-9.562l-0.032,0.017v22.596l0.032-0.017l25.238,13.269c-7.605,3.802-16.173,5.954-25.238,5.954
	c-0.011,0-0.021-0.001-0.032-0.001v20c0.011,0,0.021,0.001,0.032,0.001c42.264,0,76.648-34.384,76.648-76.648
	C355.286,207.92,320.936,173.551,278.702,173.516z M301.013,218.724l-11.96-24.233c16.807,3.138,31.022,13.712,39.087,28.175
	L301.013,218.724z M319.629,289.199l-4.788-27.915l19.841-19.34c0.392,2.685,0.603,5.427,0.603,8.218
	C335.286,265.284,329.318,279.029,319.629,289.199z"/>
<g>
</g>
<g>
</g>
<g>
</g>
<g>
</g>
<g>
</g>
<g>
</g>
<g>
</g>
<g>
</g>
<g>
</g>
<g>
</g>
<g>
</g>
<g>
</g>
<g>
</g>
<g>
</g>
<g>
</g>
</svg>
