<?xml version="1.0" encoding="iso-8859-1"?>
<!-- Generator: Adobe Illustrator 19.0.0, SVG Export Plug-In . SVG Version: 6.00 Build 0)  -->
<svg version="1.1" id="Capa_1" xmlns="http://www.w3.org/2000/svg" xmlns:xlink="http://www.w3.org/1999/xlink" x="0px" y="0px"
	 viewBox="0 0 512 512" style="enable-background:new 0 0 512 512;" xml:space="preserve">
<circle style="fill:#FBD747;" cx="256" cy="256" r="256"/>
<path style="fill:#E9BA13;" d="M512,256c0-25.715-3.808-50.538-10.863-73.953l-62.47-62.47l-350,273.514L201.81,506.234
	C219.279,509.999,237.405,512,256,512C397.385,512,512,397.385,512,256z"/>
<rect x="88.67" y="167.09" style="fill:#546E7A;" width="334" height="190.49"/>
<rect x="88.67" y="255.76" style="fill:#455A64;" width="334" height="101.82"/>
<rect x="88.67" y="145.33" style="fill:#FFFFFF;" width="22.667" height="234.67"/>
<rect x="88.67" y="255.76" style="fill:#E6E6E6;" width="22.667" height="124.24"/>
<rect x="140.56" y="145.33" style="fill:#FFFFFF;" width="22.667" height="234.67"/>
<rect x="140.56" y="255.76" style="fill:#E6E6E6;" width="22.667" height="124.24"/>
<rect x="192.44" y="145.33" style="fill:#FFFFFF;" width="22.667" height="234.67"/>
<rect x="192.44" y="255.76" style="fill:#E6E6E6;" width="22.667" height="124.24"/>
<rect x="244.33" y="145.33" style="fill:#FFFFFF;" width="22.667" height="234.67"/>
<rect x="244.33" y="255.76" style="fill:#E6E6E6;" width="22.667" height="124.24"/>
<rect x="296.22" y="145.33" style="fill:#FFFFFF;" width="22.667" height="234.67"/>
<rect x="296.22" y="255.76" style="fill:#E6E6E6;" width="22.667" height="124.24"/>
<rect x="348.11" y="145.33" style="fill:#FFFFFF;" width="22.667" height="110.42"/>
<rect x="348.11" y="255.76" style="fill:#E6E6E6;" width="22.667" height="124.24"/>
<rect x="400" y="145.33" style="fill:#FFFFFF;" width="22.667" height="234.67"/>
<rect x="88.67" y="131.58" style="fill:#AB6A50;" width="334" height="35.514"/>
<rect x="88.67" y="357.58" style="fill:#854830;" width="334" height="35.514"/>
<path style="fill:#37474F;" d="M231.333,119.576v85.09c0,21.723,17.61,39.333,39.333,39.333l0,0C292.39,244,310,261.61,310,283.333
	v1.333C310,306.39,327.61,324,349.333,324H350c21.723,0,39.333,17.61,39.333,39.333l0,0c0,9.807,7.95,17.757,17.757,17.757h31.576
	V119.576H231.333z"/>
<path style="fill:#263238;" d="M298.706,255.758C305.688,262.856,310,272.59,310,283.333v1.333C310,306.39,327.61,324,349.333,324
	H350c21.723,0,39.333,17.61,39.333,39.333l0,0c0,9.807,7.95,17.757,17.757,17.757h31.576V255.758H298.706z"/>
<g>
</g>
<g>
</g>
<g>
</g>
<g>
</g>
<g>
</g>
<g>
</g>
<g>
</g>
<g>
</g>
<g>
</g>
<g>
</g>
<g>
</g>
<g>
</g>
<g>
</g>
<g>
</g>
<g>
</g>
</svg>
