<?xml version="1.0" encoding="iso-8859-1"?>
<!-- Generator: Adobe Illustrator 19.0.0, SVG Export Plug-In . SVG Version: 6.00 Build 0)  -->
<svg version="1.1" id="Capa_1" xmlns="http://www.w3.org/2000/svg" xmlns:xlink="http://www.w3.org/1999/xlink" x="0px" y="0px"
	 viewBox="0 0 512 512" style="enable-background:new 0 0 512 512;" xml:space="preserve">
<circle style="fill:#8D24A9;" cx="256" cy="256" r="256"/>
<path style="fill:#7B1FA1;" d="M181,421.667l89.892,89.892c128.372-7.365,231.392-109.307,240.448-237.218L306,69L181,421.667z"/>
<path style="fill:#FED080;" d="M331,421.667H181v-268.09c0-41.421,33.579-75,75-75l0,0c41.421,0,75,33.579,75,75V421.667z"/>
<path style="fill:#FECB80;" d="M331,153.576c0-41.421-33.579-75-75-75l0,0c-0.142,0-0.282,0.01-0.424,0.011v343.08H331V153.576z"/>
<path style="fill:#FEF5E0;" d="M256,227.333L256,227.333c-27.614,0-50-22.386-50-50V69h100v108.333
	C306,204.948,283.614,227.333,256,227.333z"/>
<path style="fill:#FEDFB1;" d="M255.576,69v158.323c0.142,0.001,0.282,0.011,0.424,0.011l0,0c27.614,0,50-22.386,50-50V69H255.576z"
	/>
<rect x="203.17" y="286.33" style="fill:#FEB64D;" width="105.67" height="20.667"/>
<rect x="255.58" y="286.33" style="fill:#FEAA40;" width="53.26" height="20.667"/>
<rect x="203.17" y="325.67" style="fill:#FEB64D;" width="105.67" height="20.667"/>
<rect x="255.58" y="325.67" style="fill:#FEAA40;" width="53.26" height="20.667"/>
<g>
</g>
<g>
</g>
<g>
</g>
<g>
</g>
<g>
</g>
<g>
</g>
<g>
</g>
<g>
</g>
<g>
</g>
<g>
</g>
<g>
</g>
<g>
</g>
<g>
</g>
<g>
</g>
<g>
</g>
</svg>
