<?xml version="1.0" encoding="iso-8859-1"?>
<!-- Generator: Adobe Illustrator 19.0.0, SVG Export Plug-In . SVG Version: 6.00 Build 0)  -->
<svg version="1.1" id="Capa_1" xmlns="http://www.w3.org/2000/svg" xmlns:xlink="http://www.w3.org/1999/xlink" x="0px" y="0px"
	 viewBox="0 0 512 512" style="enable-background:new 0 0 512 512;" xml:space="preserve">
<circle style="fill:#FE7043;" cx="256" cy="256" r="256"/>
<path style="fill:#FE5722;" d="M512,256c0-3.123-0.076-6.227-0.187-9.322L408.48,143.344L333.269,266.76l-88.359-88.359
	L73.438,349.875l161.234,161.234C241.706,511.689,248.816,512,256,512C397.385,512,512,397.385,512,256z"/>
<rect x="73.44" y="178.4" style="fill:#FFFFFF;" width="171.47" height="171.47"/>
<rect x="160.32" y="178.4" style="fill:#E6E6E6;" width="84.58" height="171.47"/>
<circle style="fill:#607D8A;" cx="159.17" cy="264.14" r="21.711"/>
<path style="fill:#546E7A;" d="M180.885,264.138c0-11.604-9.104-21.082-20.56-21.68v43.36
	C171.781,285.22,180.885,275.743,180.885,264.138z"/>
<g>
	<circle style="fill:#607D8A;" cx="106.67" cy="211.63" r="21.711"/>
	<circle style="fill:#607D8A;" cx="106.67" cy="312.66" r="21.711"/>
</g>
<g>
	<circle style="fill:#546E7A;" cx="212.56" cy="312.66" r="21.711"/>
	<circle style="fill:#546E7A;" cx="212.56" cy="211.63" r="21.711"/>
</g>
<rect x="260.657" y="161.761" transform="matrix(-0.9694 0.2454 -0.2454 -0.9694 742.9244 402.4135)" style="fill:#EBEEF0;" width="171.466" height="171.466"/>
<polygon style="fill:#CED7DB;" points="408.48,143.344 319.218,165.942 371.954,329.474 450.562,309.573 "/>
<g>
	<circle style="fill:#607D8A;" cx="282.62" cy="209.49" r="21.711"/>
	<circle style="fill:#607D8A;" cx="307.42" cy="307.42" r="21.711"/>
</g>
<g>
	<circle style="fill:#546E7A;" cx="410.07" cy="281.43" r="21.711"/>
	<circle style="fill:#546E7A;" cx="385.28" cy="183.5" r="21.711"/>
</g>
<g>
</g>
<g>
</g>
<g>
</g>
<g>
</g>
<g>
</g>
<g>
</g>
<g>
</g>
<g>
</g>
<g>
</g>
<g>
</g>
<g>
</g>
<g>
</g>
<g>
</g>
<g>
</g>
<g>
</g>
</svg>
