<?xml version="1.0" encoding="iso-8859-1"?>
<!-- Generator: Adobe Illustrator 19.0.0, SVG Export Plug-In . SVG Version: 6.00 Build 0)  -->
<svg version="1.1" id="Capa_1" xmlns="http://www.w3.org/2000/svg" xmlns:xlink="http://www.w3.org/1999/xlink" x="0px" y="0px"
	 viewBox="0 0 512 512" style="enable-background:new 0 0 512 512;" xml:space="preserve">
<circle style="fill:#303F9E;" cx="256" cy="256" r="256"/>
<path style="fill:#283592;" d="M349.852,494.249c80.482-31.729,141.001-103.067,157.586-189.99L452,248.821l-9.959,10.451
	l-133.95-133.95l-5.536-0.961l-24.553-24.553l-52.014,68.288l-103.013,13.132l44.696,44.559l-44.696,41.585L349.852,494.249z"/>
<polygon style="fill:#FEB200;" points="281.261,111.688 308.091,125.322 280.754,129.933 "/>
<path style="fill:#FFFFFF;" d="M227.277,133.244l-46.547-19.719l-95.411,4.426c0,0,19.388,83.213,87.551,79.71l-25.574,21.899
	l-43.967,14.338c0,0,2.691,43.891,56.664,43.078l12.197-37.944c37.282-4.303,57.582-8.118,81.689-30.554
	c22.787-21.206,18.867-39.65,8.698-62.535c1.663-0.212,3.33-0.576,4.982-1.115c14.514-4.733,22.289-20.591,16.96-35.048
	c-4.846-13.145-19.227-20.453-32.702-16.619c-14.82,4.218-23.046,19.847-18.312,34.361c0.01,0.032,0.021,0.063,0.031,0.095
	C234.735,131.371,230.904,134.78,227.277,133.244z"/>
<path style="fill:#E6E6E6;" d="M284.521,109.78c-4.397-11.928-16.647-19.049-28.945-17.4v114.467
	c20.875-20.526,16.91-38.609,7.003-60.904c1.663-0.212,3.33-0.576,4.982-1.115C282.075,140.095,289.85,124.237,284.521,109.78z"/>
<polygon style="fill:#FEC300;" points="256.059,242.557 229.228,256.192 256.566,260.802 "/>
<path style="fill:#FFFFFF;" d="M310.042,264.113l46.547-19.719L452,248.821c0,0-19.388,83.213-87.551,79.71l25.574,21.899
	l43.967,14.338c0,0-2.691,43.891-56.664,43.078l-12.197-37.944c-37.282-4.303-57.581-8.118-81.689-30.554
	c-22.787-21.206-18.867-39.65-8.698-62.535c-1.663-0.212-3.33-0.576-4.982-1.115c-14.514-4.733-22.289-20.591-16.96-35.048
	c4.846-13.145,19.227-20.453,32.702-16.619c14.82,4.218,23.046,19.847,18.312,34.361c-0.01,0.032-0.021,0.063-0.031,0.095
	C302.585,262.24,306.416,265.65,310.042,264.113z"/>
<path style="fill:#E6E6E6;" d="M364.449,328.531c68.162,3.503,87.551-79.71,87.551-79.71l-95.411-4.426l-46.547,19.719
	c-3.627,1.537-7.458-1.873-6.26-5.626c0.01-0.032,0.02-0.063,0.031-0.095c4.733-14.515-3.492-30.144-18.312-34.361
	c-11.463-3.263-23.578,1.543-29.925,11.143v29.689c3.247,4.941,8.125,8.858,14.183,10.834c1.652,0.539,3.319,0.903,4.982,1.115
	c-10.169,22.884-14.088,41.329,8.698,62.535c24.108,22.436,44.407,26.251,81.689,30.554l12.197,37.944
	c53.973,0.813,56.664-43.078,56.664-43.078l-43.966-14.338L364.449,328.531z"/>
<g>
</g>
<g>
</g>
<g>
</g>
<g>
</g>
<g>
</g>
<g>
</g>
<g>
</g>
<g>
</g>
<g>
</g>
<g>
</g>
<g>
</g>
<g>
</g>
<g>
</g>
<g>
</g>
<g>
</g>
</svg>
