<?xml version="1.0" encoding="iso-8859-1"?>
<!-- Generator: Adobe Illustrator 19.0.0, SVG Export Plug-In . SVG Version: 6.00 Build 0)  -->
<svg version="1.1" id="Capa_1" xmlns="http://www.w3.org/2000/svg" xmlns:xlink="http://www.w3.org/1999/xlink" x="0px" y="0px"
	 viewBox="0 0 512 512" style="enable-background:new 0 0 512 512;" xml:space="preserve">
<circle style="fill:#8D24A9;" cx="256" cy="256" r="256"/>
<path style="fill:#7B1FA1;" d="M511.116,277.25L313.399,79.533l-1.758,28.241l-24.334-2.148l59.613,59.613l-18.558,18.558
	L218.428,73.862l-1.959,43.883l-80.455,39.072l176.538,176.539l-46.306,8.545l-32.289-32.289l-14.04-3.903l-93.042-93.042
	l2.629,37.407L89.542,250l45.276,45.276L34.636,384.642l0,0l92.722,92.722C165.158,499.379,209.103,512,256,512
	C390.228,512,500.313,408.691,511.116,277.25z"/>
<path style="fill:#FED080;" d="M354.467,309.505c-0.088,0.015-0.175,0.028-0.263,0.04l-102.948,13.279
	c-0.131,0.781-0.3,1.56-0.504,2.337c-3.221,12.186-14.705,20.235-27.215,19.082l-59.434-5.341c-3.76-0.336-6.532-3.658-6.194-7.416
	c0.336-3.761,3.674-6.618,7.416-6.195l59.434,5.34c5.871,0.499,11.266-3.239,12.779-8.961c0.824-3.124,0.384-6.382-1.242-9.174
	c-1.626-2.794-4.242-4.786-7.365-5.611l-76.355-20.166c-8.576-2.263-17.574-2.032-26.022,0.676L7.783,318.847
	c5.901,23.378,15.018,45.474,26.853,65.795l25.656-17.258c12.739-7.364,27.952-8.637,41.74-3.48l82.86,30.982
	c15.286,5.155,31.785,4.317,46.468-2.356l132.312-57.509c6.103-3.538,8.57-11.244,5.613-17.681
	C366.692,311.691,360.596,308.477,354.467,309.505z"/>
<path style="fill:#EFB66A;" d="M369.286,317.34c-2.594-5.649-8.69-8.864-14.819-7.835c-0.088,0.015-0.175,0.028-0.263,0.04
	l-98.628,12.722v59.738l108.097-46.984C369.776,331.483,372.243,323.777,369.286,317.34z"/>
<path style="fill:#FEED58;" d="M126.875,212.667l5.453,15.968c2.555,7.482,8.431,13.358,15.913,15.913L164.208,250l-15.968,5.453
	c-7.482,2.555-13.358,8.431-15.913,15.913l-5.453,15.968l-5.453-15.968c-2.555-7.482-8.431-13.358-15.913-15.913L89.542,250
	l15.968-5.453c7.482-2.555,13.358-8.431,15.913-15.913L126.875,212.667z"/>
<g>
	<path style="fill:#FEEA3B;" d="M313.399,79.533l3.811,11.16c1.786,5.229,5.893,9.336,11.122,11.122l11.16,3.811l-11.16,3.811
		c-5.229,1.786-9.336,5.893-11.122,11.122l-3.811,11.16l-3.811-11.16c-1.786-5.229-5.893-9.336-11.122-11.122l-11.16-3.811
		l11.16-3.811c5.229-1.786,9.336-5.893,11.122-11.122L313.399,79.533z"/>
	<path style="fill:#FEEA3B;" d="M398.625,259.086l3.811,11.16c1.786,5.229,5.893,9.336,11.122,11.122l11.16,3.811l-11.16,3.811
		c-5.229,1.786-9.336,5.893-11.122,11.122l-3.811,11.16l-3.811-11.16c-1.786-5.229-5.893-9.336-11.122-11.122l-11.16-3.811
		l11.16-3.811c5.229-1.786,9.336-5.893,11.122-11.122L398.625,259.086z"/>
</g>
<path style="fill:#FED500;" d="M368.875,185.625c-5.411,0-10.48,1.452-14.851,3.976c2.525-4.372,3.976-9.44,3.976-14.851
	c0-16.431-13.32-29.75-29.75-29.75s-29.75,13.319-29.75,29.75c0,5.411,1.452,10.479,3.976,14.851
	c-4.372-2.524-9.44-3.976-14.851-3.976c-16.43,0-29.75,13.319-29.75,29.75s13.32,29.75,29.75,29.75
	c5.411,0,10.48-1.452,14.851-3.976c-2.525,4.372-3.976,9.44-3.976,14.851c0,16.431,13.32,29.75,29.75,29.75S358,272.431,358,256
	c0-5.411-1.452-10.479-3.976-14.851c4.372,2.524,9.44,3.976,14.851,3.976c16.43,0,29.75-13.319,29.75-29.75
	S385.305,185.625,368.875,185.625z M313.399,230.226c2.525-4.372,3.976-9.44,3.976-14.851s-1.452-10.479-3.976-14.851
	c4.372,2.524,9.44,3.976,14.851,3.976s10.48-1.452,14.851-3.976c-2.525,4.372-3.976,9.44-3.976,14.851s1.452,10.479,3.976,14.851
	c-4.372-2.524-9.44-3.976-14.851-3.976S317.77,227.702,313.399,230.226z"/>
<path style="fill:#FABF2D;" d="M368.875,185.625c-5.411,0-10.48,1.452-14.851,3.976c2.525-4.372,3.976-9.44,3.976-14.851
	c0-16.209-12.966-29.382-29.091-29.733v59.461c5.162-0.113,10-1.533,14.192-3.954c-2.525,4.372-3.976,9.44-3.976,14.851
	s1.452,10.479,3.976,14.851c-4.193-2.421-9.03-3.841-14.192-3.954v59.461C345.034,285.382,358,272.209,358,256
	c0-5.411-1.452-10.479-3.976-14.851c4.372,2.524,9.44,3.976,14.851,3.976c16.43,0,29.75-13.319,29.75-29.75
	S385.305,185.625,368.875,185.625z"/>
<circle style="fill:#FE5722;" cx="328.25" cy="215.37" r="29.75"/>
<path style="fill:#F3511E;" d="M358,215.375c0-16.209-12.966-29.382-29.091-29.733v59.467C345.034,244.757,358,231.584,358,215.375z
	"/>
<path style="fill:#00E4FE;" d="M237.875,105.625c-5.411,0-10.48,1.452-14.851,3.976c2.525-4.372,3.976-9.44,3.976-14.851
	C227,78.319,213.68,65,197.25,65S167.5,78.319,167.5,94.75c0,5.411,1.452,10.479,3.976,14.851c-4.372-2.524-9.44-3.976-14.851-3.976
	c-16.43,0-29.75,13.319-29.75,29.75s13.32,29.75,29.75,29.75c5.411,0,10.48-1.452,14.851-3.976
	c-2.525,4.372-3.976,9.44-3.976,14.851c0,16.431,13.32,29.75,29.75,29.75S227,192.431,227,176c0-5.411-1.452-10.479-3.976-14.851
	c4.372,2.524,9.44,3.976,14.851,3.976c16.43,0,29.75-13.319,29.75-29.75S254.305,105.625,237.875,105.625z M182.399,150.226
	c2.525-4.372,3.976-9.44,3.976-14.851s-1.452-10.479-3.976-14.851c4.372,2.524,9.44,3.976,14.851,3.976s10.48-1.452,14.851-3.976
	c-2.525,4.372-3.976,9.44-3.976,14.851s1.452,10.479,3.976,14.851c-4.372-2.524-9.44-3.976-14.851-3.976
	S186.77,147.702,182.399,150.226z"/>
<path style="fill:#00ABC0;" d="M237.875,105.625c-5.411,0-10.48,1.452-14.851,3.976c2.525-4.372,3.976-9.44,3.976-14.851
	c0-16.179-12.917-29.332-29-29.731v59.456c5.128-0.128,9.933-1.544,14.101-3.951c-2.525,4.372-3.976,9.44-3.976,14.851
	s1.452,10.479,3.976,14.851c-4.168-2.407-8.974-3.823-14.101-3.951v59.456c16.083-0.399,29-13.552,29-29.731
	c0-5.411-1.452-10.479-3.976-14.851c4.372,2.524,9.44,3.976,14.851,3.976c16.43,0,29.75-13.319,29.75-29.75
	S254.305,105.625,237.875,105.625z"/>
<circle style="fill:#673AB6;" cx="197.25" cy="135.37" r="29.75"/>
<path style="fill:#5E35B0;" d="M227,135.375c0-16.179-12.917-29.332-29-29.731v59.462C214.083,164.707,227,151.554,227,135.375z"/>
<g>
</g>
<g>
</g>
<g>
</g>
<g>
</g>
<g>
</g>
<g>
</g>
<g>
</g>
<g>
</g>
<g>
</g>
<g>
</g>
<g>
</g>
<g>
</g>
<g>
</g>
<g>
</g>
<g>
</g>
</svg>
