<?xml version="1.0" encoding="iso-8859-1"?>
<!-- Generator: Adobe Illustrator 19.0.0, SVG Export Plug-In . SVG Version: 6.00 Build 0)  -->
<svg version="1.1" id="Capa_1" xmlns="http://www.w3.org/2000/svg" xmlns:xlink="http://www.w3.org/1999/xlink" x="0px" y="0px"
	 viewBox="0 0 512 512" style="enable-background:new 0 0 512 512;" xml:space="preserve">
<circle style="fill:#FE7043;" cx="256" cy="256" r="256"/>
<path style="fill:#FE5722;" d="M276.943,511.143c125.607-10.172,225.579-111.007,234.408-236.989L347.66,110.463l2.193,19.861
	l-20.839-20.839l-0.381,0.674l-35.167-35.167l3.441,8.438l-26.209-26.237l36.129,198.057L115.66,306.784l136.06,136.06
	l-27.553,15.522L276.943,511.143z"/>
<g>
	<path style="fill:#303F9E;" d="M298.266,430.579c0,23.343-18.923,42.266-42.266,42.266s-42.266-18.923-42.266-42.266
		s18.923-177.09,42.266-177.09S298.266,407.236,298.266,430.579z"/>
	<path style="fill:#303F9E;" d="M213.734,430.579c0,23.201,18.696,42.027,41.842,42.256V253.532
		C232.428,255.378,213.734,407.378,213.734,430.579z"/>
	<path style="fill:#303F9E;" d="M256,253.488c-0.142,0-0.283,0.032-0.424,0.043v219.302c0.142,0.001,0.282,0.011,0.424,0.011
		c23.343,0,42.266-18.923,42.266-42.266S279.343,253.488,256,253.488z"/>
</g>
<ellipse style="fill:#4DCFE0;" cx="256" cy="223" rx="102.67" ry="131.33"/>
<path style="fill:#00B7D3;" d="M256,91.667c-0.142,0-0.282,0.006-0.424,0.007v262.653c0.142,0.001,0.282,0.007,0.424,0.007
	c56.701,0,102.667-58.8,102.667-131.333S312.701,91.667,256,91.667z"/>
<path style="fill:#7E57C1;" d="M339.626,121.511c-12.171-15.57-26.649-27.278-42.515-34.664c0.082-0.633,0.139-1.274,0.139-1.93
	c0-8.238-6.678-14.917-14.917-14.917c-2.499,0-4.85,0.622-6.919,1.709c0.049-0.564,0.086-1.132,0.086-1.709
	c0-10.77-8.73-19.5-19.5-19.5s-19.5,8.73-19.5,19.5c0,0.577,0.037,1.144,0.086,1.709c-2.069-1.086-4.42-1.709-6.919-1.709
	c-8.238,0-14.917,6.678-14.917,14.917c0,0.656,0.057,1.297,0.139,1.93c-15.865,7.387-30.344,19.094-42.515,34.664
	C151.067,148.767,139.333,184.81,139.333,223s11.734,74.233,33.041,101.489c22.102,28.273,51.801,43.844,83.626,43.844
	s61.524-15.571,83.626-43.844c21.307-27.256,33.041-63.299,33.041-101.489S360.933,148.767,339.626,121.511z M256,340.333
	c-48.892,0-88.667-52.635-88.667-117.333S207.108,105.667,256,105.667S344.667,158.302,344.667,223S304.892,340.333,256,340.333z"/>
<path style="fill:#673AB6;" d="M339.626,121.511c-12.171-15.57-26.649-27.278-42.515-34.664c0.082-0.633,0.139-1.274,0.139-1.93
	c0-8.238-6.678-14.917-14.917-14.917c-2.499,0-4.85,0.622-6.919,1.709c0.049-0.564,0.086-1.132,0.086-1.709
	c0-10.77-8.73-19.5-19.5-19.5c-0.143,0-0.282,0.018-0.424,0.021v55.152c0.142-0.001,0.282-0.007,0.424-0.007
	c48.892,0,88.667,52.635,88.667,117.333S304.892,340.332,256,340.332c-0.142,0-0.283-0.006-0.424-0.007v28.001
	c0.142,0.001,0.283,0.006,0.424,0.006c31.825,0,61.524-15.571,83.626-43.844c21.307-27.256,33.041-63.299,33.041-101.489
	S360.933,148.767,339.626,121.511z"/>
<g>
	
		<rect x="215.168" y="137.413" transform="matrix(-0.7071 -0.7071 0.7071 -0.7071 270.0132 430.5095)" style="fill:#FFFFFF;" width="18" height="43.841"/>
	
		<rect x="232.245" y="143.766" transform="matrix(-0.7071 -0.7071 0.7071 -0.7071 287.0893 471.7381)" style="fill:#FFFFFF;" width="18" height="65.289"/>
</g>
<g>
	<polygon style="fill:#E6E6E6;" points="257.969,146.969 255.576,149.362 255.576,174.819 270.697,159.697 	"/>
	<path style="fill:#E6E6E6;" d="M381.005,211.439l4.87,14.262c2.282,6.683,7.531,11.931,14.213,14.213l14.262,4.87l-14.262,4.87
		c-6.683,2.282-11.931,7.531-14.213,14.213l-4.87,14.262l-4.87-14.262c-2.282-6.683-7.531-11.931-14.213-14.213l-14.262-4.87
		l14.262-4.87c6.683-2.282,11.931-7.531,14.213-14.213L381.005,211.439z"/>
</g>
<path style="fill:#FFFFFF;" d="M149.005,273.439l4.87,14.262c2.282,6.683,7.531,11.931,14.213,14.213l14.262,4.87l-14.262,4.87
	c-6.683,2.282-11.931,7.531-14.213,14.213l-4.87,14.262l-4.87-14.262c-2.282-6.683-7.531-11.931-14.213-14.213l-14.262-4.87
	l14.262-4.87c6.683-2.282,11.931-7.531,14.213-14.213L149.005,273.439z"/>
<path style="fill:#E6E6E6;" d="M347.66,110.463l3.842,11.25c1.8,5.271,5.94,9.411,11.211,11.211l11.25,3.842l-11.25,3.842
	c-5.271,1.8-9.411,5.94-11.211,11.211l-3.842,11.25l-3.842-11.25c-1.8-5.271-5.94-9.411-11.211-11.211l-11.25-3.842l11.25-3.842
	c5.271-1.8,9.411-5.94,11.211-11.211L347.66,110.463z"/>
<g>
</g>
<g>
</g>
<g>
</g>
<g>
</g>
<g>
</g>
<g>
</g>
<g>
</g>
<g>
</g>
<g>
</g>
<g>
</g>
<g>
</g>
<g>
</g>
<g>
</g>
<g>
</g>
<g>
</g>
</svg>
