<?xml version="1.0" encoding="iso-8859-1"?>
<!-- Generator: Adobe Illustrator 19.0.0, SVG Export Plug-In . SVG Version: 6.00 Build 0)  -->
<svg version="1.1" id="Capa_1" xmlns="http://www.w3.org/2000/svg" xmlns:xlink="http://www.w3.org/1999/xlink" x="0px" y="0px"
	 viewBox="0 0 512 512" style="enable-background:new 0 0 512 512;" xml:space="preserve">
<circle style="fill:#303F9E;" cx="256" cy="256" r="256"/>
<path style="fill:#283592;" d="M512,256c0-3.647-0.095-7.272-0.246-10.882l-71.255-71.254l-10.413,20.47l-83.384-83.384
	l-49.63,161.364L232.647,314.6l-84.62-84.619L105.726,262l76.046,76.046l-99.106,45.673l123.397,123.397
	C222.216,510.311,238.91,512,256,512C397.385,512,512,397.385,512,256z"/>
<g>
	<path style="fill:#FEE900;" d="M171.833,353.042l-33.679,33.679c-14.58,14.58-38.218,14.58-52.797,0l0,0
		c-14.58-14.58-14.58-38.218,0-52.797l33.679-33.679c14.58-14.58,38.218-14.58,52.797,0l0,0
		C186.413,314.824,186.413,338.462,171.833,353.042z"/>
	<path style="fill:#FEE900;" d="M302.089,300.244l33.679,33.679c14.58,14.58,14.58,38.218,0,52.797l0,0
		c-14.58,14.58-38.218,14.58-52.797,0l-33.679-33.679c-14.58-14.58-14.58-38.218,0-52.797l0,0
		C263.871,285.665,287.509,285.665,302.089,300.244z"/>
</g>
<path style="fill:#FED500;" d="M335.768,333.923l-33.679-33.679c-12.633-12.633-32.064-14.311-46.513-5.051v64.132l27.395,27.395
	c14.58,14.58,38.218,14.58,52.797,0l0,0C350.347,372.141,350.347,348.503,335.768,333.923z"/>
<g>
	<path style="fill:#FEE900;" d="M110.867,267.141l-23.704-23.704c-10.262-10.262-10.262-26.899,0-37.161l0,0
		c10.262-10.262,26.899-10.262,37.161,0l23.704,23.704c10.262,10.262,10.262,26.899,0,37.161l0,0
		C137.766,277.402,121.129,277.402,110.867,267.141z"/>
	<path style="fill:#FEE900;" d="M375.382,216.338l-67.411,67.411c-14.58,14.58-38.218,14.58-52.797,0l0,0
		c-14.58-14.58-14.58-38.218,0-52.797l67.411-67.411c14.58-14.58,38.218-14.58,52.797,0l0,0
		C389.962,178.12,389.962,201.758,375.382,216.338z"/>
</g>
<path style="fill:#FED500;" d="M375.382,163.541L375.382,163.541c-14.58-14.58-38.218-14.58-52.797,0l-67.009,67.009v53.581
	c14.609,14.188,37.947,14.066,52.395-0.382l67.411-67.411C389.962,201.758,389.962,178.12,375.382,163.541z"/>
<g>
	<path style="fill:#F8A725;" d="M376.296,163.926h43.131c15.082,0,27.308,12.226,27.308,27.308v5.063
		c0,15.082-12.226,27.308-27.308,27.308h-43.131c-15.082,0-27.308-12.226-27.308-27.308v-5.063
		C348.989,176.152,361.215,163.926,376.296,163.926z"/>
	<path style="fill:#F8A725;" d="M327.908,92.154l29.23,29.23c12.654,12.654,12.654,33.169,0,45.823l0,0
		c-12.654,12.654-33.169,12.654-45.823,0l-29.23-29.23c-12.654-12.654-12.654-33.169,0-45.823l0,0
		C294.738,79.501,315.254,79.501,327.908,92.154z"/>
</g>
<path style="fill:#FABF2D;" d="M252.024,326.643H156.69c-20.619,0-37.333-16.715-37.333-37.333l0,0
	c0-20.619,16.715-37.333,37.333-37.333h95.333c20.619,0,37.333,16.715,37.333,37.333l0,0
	C289.357,309.928,272.642,326.643,252.024,326.643z"/>
<path style="fill:#F8A725;" d="M255.576,252.149v74.321c18.952-1.79,33.781-17.741,33.781-37.161l0,0
	C289.357,269.89,274.528,253.938,255.576,252.149z"/>
<g>
</g>
<g>
</g>
<g>
</g>
<g>
</g>
<g>
</g>
<g>
</g>
<g>
</g>
<g>
</g>
<g>
</g>
<g>
</g>
<g>
</g>
<g>
</g>
<g>
</g>
<g>
</g>
<g>
</g>
</svg>
