<?xml version="1.0" encoding="iso-8859-1"?>
<!-- Generator: Adobe Illustrator 19.0.0, SVG Export Plug-In . SVG Version: 6.00 Build 0)  -->
<svg version="1.1" id="Capa_1" xmlns="http://www.w3.org/2000/svg" xmlns:xlink="http://www.w3.org/1999/xlink" x="0px" y="0px"
	 viewBox="0 0 512 512" style="enable-background:new 0 0 512 512;" xml:space="preserve">
<circle style="fill:#8D24A9;" cx="256" cy="256" r="256"/>
<path style="fill:#7B1FA1;" d="M512,256c0-3.714-0.097-7.405-0.254-11.081L375.848,109.02l-259.48,207.332l77.619,77.619
	l-23.056,51.696l65.601,65.602C242.958,511.751,249.45,512,256,512C397.385,512,512,397.385,512,256z"/>
<g>
	<rect x="170.93" y="369.9" style="fill:#FFFFFF;" width="34.01" height="75.77"/>
	<rect x="216.29" y="369.9" style="fill:#FFFFFF;" width="34.01" height="75.77"/>
</g>
<g>
	<rect x="307" y="369.9" style="fill:#E6E6E6;" width="34.01" height="75.77"/>
	<rect x="261.64" y="369.9" style="fill:#E6E6E6;" width="34.01" height="75.77"/>
</g>
<path style="fill:#EBEEF0;" d="M418.995,248.079l-5.108-50.908C405.75,116.077,337.502,54.333,256,54.333l0,0
	c-81.502,0-149.75,61.743-157.887,142.838l-5.108,50.908c-4.839,48.231,30.706,90.417,77.925,94.884v50.682h170.14v-50.682
	C388.289,338.496,423.834,296.31,418.995,248.079z"/>
<path style="fill:#CED7DB;" d="M418.995,248.079l-5.108-50.908C405.75,116.077,337.502,54.333,256,54.333l0,0
	c-0.142,0-0.282,0.004-0.424,0.005v339.308h85.494v-50.683C388.289,338.496,423.834,296.311,418.995,248.079z"/>
<path style="fill:#607D8A;" d="M180.941,287.792h-2.823c-26.767,0-46.687-24.73-40.987-50.883l2.822-12.95
	c4.201-19.273,21.262-33.016,40.987-33.016l0,0c23.168,0,41.95,18.781,41.95,41.95v12.95
	C222.89,269.011,204.109,287.792,180.941,287.792z"/>
<path style="fill:#546E7A;" d="M331.059,287.792h2.823c26.767,0,46.687-24.73,40.987-50.883l-2.822-12.95
	c-4.201-19.273-21.262-33.016-40.987-33.016l0,0c-23.168,0-41.95,18.781-41.95,41.95v12.95
	C289.11,269.011,307.891,287.792,331.059,287.792z"/>
<path style="fill:#607D8A;" d="M240.33,372.439L240.33,372.439c5.817,0,10.533-4.716,10.533-10.533v-34.82
	c0-2.782-2.255-5.037-5.037-5.037l0,0c-2.184,0-4.119,1.408-4.792,3.485l-10.725,33.127
	C228.107,365.465,233.179,372.439,240.33,372.439z"/>
<path style="fill:#546E7A;" d="M271.67,372.439L271.67,372.439c-5.817,0-10.533-4.716-10.533-10.533v-34.82
	c0-2.782,2.255-5.037,5.037-5.037l0,0c2.184,0,4.119,1.408,4.792,3.485l10.725,33.127
	C283.893,365.465,278.821,372.439,271.67,372.439z"/>
<g>
</g>
<g>
</g>
<g>
</g>
<g>
</g>
<g>
</g>
<g>
</g>
<g>
</g>
<g>
</g>
<g>
</g>
<g>
</g>
<g>
</g>
<g>
</g>
<g>
</g>
<g>
</g>
<g>
</g>
</svg>
