<?xml version="1.0" encoding="iso-8859-1"?>
<!-- Generator: Adobe Illustrator 19.0.0, SVG Export Plug-In . SVG Version: 6.00 Build 0)  -->
<svg version="1.1" id="Capa_1" xmlns="http://www.w3.org/2000/svg" xmlns:xlink="http://www.w3.org/1999/xlink" x="0px" y="0px"
	 viewBox="0 0 512 512" style="enable-background:new 0 0 512 512;" xml:space="preserve">
<circle style="fill:#8D24A9;" cx="256" cy="256" r="256"/>
<path style="fill:#7B1FA1;" d="M511.823,265.066L353.558,106.801l-80.354,196.048H90.446l-55.81,81.793l92.722,92.722
	C165.159,499.379,209.103,512,256,512C394.349,512,507.045,402.25,511.823,265.066z"/>
<circle style="fill:#B1EAF1;" cx="256" cy="211" r="142.75"/>
<path style="fill:#7FDDE9;" d="M256,68.25c-0.142,0-0.282,0.005-0.424,0.005v285.489c0.142,0,0.282,0.005,0.424,0.005
	c78.839,0,142.75-63.911,142.75-142.75S334.839,68.25,256,68.25z"/>
<path style="fill:#FED080;" d="M354.467,309.505c-0.088,0.015-0.175,0.028-0.263,0.04l-102.948,13.279
	c-0.131,0.781-0.3,1.56-0.504,2.337c-3.221,12.186-14.705,20.235-27.215,19.082l-59.434-5.341c-3.76-0.336-6.532-3.658-6.194-7.416
	c0.336-3.761,3.674-6.618,7.416-6.195l59.434,5.34c5.871,0.499,11.266-3.239,12.779-8.961c0.824-3.124,0.384-6.382-1.242-9.174
	c-1.626-2.794-4.242-4.786-7.365-5.611l-76.355-20.166c-8.576-2.263-17.574-2.032-26.022,0.676L7.783,318.847
	c5.901,23.378,15.018,45.474,26.853,65.795l25.656-17.258c12.739-7.364,27.952-8.637,41.74-3.48l82.86,30.982
	c15.286,5.155,31.785,4.317,46.468-2.356l132.312-57.509c6.103-3.538,8.57-11.244,5.613-17.681
	C366.692,311.691,360.596,308.477,354.467,309.505z"/>
<path style="fill:#EFB66A;" d="M369.286,317.34c-2.594-5.649-8.689-8.864-14.819-7.835c-0.088,0.015-0.175,0.028-0.263,0.04
	l-98.628,12.722v59.738l108.097-46.984C369.776,331.483,372.243,323.777,369.286,317.34z"/>
<path style="fill:#00E4FE;" d="M296.47,202.57l81.646-39.019l-6.898-14.437l-80.992,38.706c-1.625-2.395-3.502-4.604-5.581-6.604
	l19.291-28.201l-13.205-9.033l-19.547,28.575c-2.302-0.91-4.701-1.624-7.184-2.111V94h-16v76.447
	c-4.081,0.801-7.947,2.199-11.501,4.105l-25.425-34.009l-12.814,9.58l25.85,34.58c-3.091,3.744-5.525,8.046-7.152,12.727
	l-44.61-9.584l-3.361,15.643l45.749,9.829c0.134,2.429,0.486,4.799,1.022,7.099l-74.57,24.312l4.959,15.212l76.266-24.864
	c2.109,2.937,4.585,5.591,7.375,7.881l-25.358,43.336l13.809,8.081l25.657-43.846c2.705,0.828,5.529,1.378,8.438,1.635v54.504h16
	v-56.206c4.028-1.258,7.787-3.122,11.181-5.474l59.244,51.39l10.484-12.087l-58.568-50.803c1.515-2.332,2.8-4.826,3.826-7.45
	l68.263,16.733l3.809-15.54l-69.257-16.977C297.268,207.625,296.986,205.056,296.47,202.57z"/>
<path style="fill:#26C5D9;" d="M296.47,202.57l81.646-39.019l-6.898-14.437l-80.992,38.706c-1.625-2.395-3.502-4.604-5.581-6.604
	l19.291-28.201l-13.205-9.033l-19.547,28.575c-2.302-0.91-4.701-1.624-7.184-2.111V94h-8.424v212.667h12.757v-56.206
	c4.028-1.258,7.787-3.122,11.181-5.474l59.244,51.39l10.484-12.087l-58.568-50.803c1.515-2.332,2.8-4.826,3.826-7.45l68.263,16.733
	l3.809-15.54l-69.257-16.977C297.268,207.625,296.986,205.056,296.47,202.57z"/>
<g>
</g>
<g>
</g>
<g>
</g>
<g>
</g>
<g>
</g>
<g>
</g>
<g>
</g>
<g>
</g>
<g>
</g>
<g>
</g>
<g>
</g>
<g>
</g>
<g>
</g>
<g>
</g>
<g>
</g>
</svg>
