<?xml version="1.0" encoding="iso-8859-1"?>
<!-- Generator: Adobe Illustrator 19.0.0, SVG Export Plug-In . SVG Version: 6.00 Build 0)  -->
<svg version="1.1" id="Capa_1" xmlns="http://www.w3.org/2000/svg" xmlns:xlink="http://www.w3.org/1999/xlink" x="0px" y="0px"
	 viewBox="0 0 512 512" style="enable-background:new 0 0 512 512;" xml:space="preserve">
<circle style="fill:#7E57C1;" cx="256" cy="256" r="256"/>
<path style="fill:#673AB6;" d="M512,256c0-42.513-10.375-82.598-28.712-117.882l0,0L60,369.667l135.001,135.001
	C214.552,509.447,234.976,512,256,512C397.385,512,512,397.385,512,256z"/>
<path style="fill:#B287FE;" d="M28.712,138.118l134.299,218.603h185.977l134.299-218.603C440.641,56.058,354.872,0,256,0
	S71.359,56.058,28.712,138.118z"/>
<path style="fill:#9475CC;" d="M483.288,138.118C440.641,56.058,354.872,0,256,0c-0.142,0-0.283,0.003-0.424,0.004v356.717h93.413
	L483.288,138.118z"/>
<path style="fill:#FED500;" d="M256,356.034c0-27.684,22.443-50.127,50.127-50.127h141.368v50.814L256,356.034z"/>
<path style="fill:#FEE900;" d="M256,356.034c0-27.684-22.443-50.127-50.127-50.127H64.505v50.814L256,356.034z"/>
<path style="fill:#FEEA3B;" d="M328.376,67.687l3.811,11.16c1.786,5.229,5.893,9.336,11.122,11.122l11.16,3.811l-11.16,3.811
	c-5.229,1.786-9.336,5.893-11.122,11.122l-3.811,11.16l-3.811-11.16c-1.786-5.229-5.893-9.336-11.122-11.122l-11.16-3.811
	l11.16-3.811c5.229-1.786,9.336-5.893,11.122-11.122L328.376,67.687z"/>
<g>
	<path style="fill:#FEED58;" d="M207.445,60.22l2.451,7.177c1.148,3.363,3.79,6.004,7.152,7.152L224.225,77l-7.177,2.451
		c-3.363,1.148-6.004,3.789-7.152,7.152l-2.451,7.177l-2.451-7.177c-1.148-3.363-3.789-6.004-7.152-7.152L190.666,77l7.177-2.451
		c3.363-1.148,6.004-3.789,7.152-7.152L207.445,60.22z"/>
	<path style="fill:#FEED58;" d="M256,254.974l2.451,7.177c1.148,3.363,3.789,6.004,7.152,7.152l7.177,2.451l-7.177,2.451
		c-3.363,1.148-6.004,3.79-7.152,7.152L256,288.533l-2.451-7.177c-1.148-3.363-3.789-6.004-7.152-7.152l-7.177-2.451l7.177-2.451
		c3.363-1.148,6.004-3.789,7.152-7.152L256,254.974z"/>
</g>
<g>
	<path style="fill:#FEEA3B;" d="M265.603,269.303c-3.363-1.148-6.004-3.79-7.152-7.152L256,254.974l-0.425,1.243v31.073l0.425,1.243
		l2.451-7.177c1.148-3.363,3.789-6.004,7.152-7.152l7.177-2.451L265.603,269.303z"/>
	<path style="fill:#FEEA3B;" d="M386.703,194.083l2.451,7.177c1.148,3.363,3.789,6.004,7.152,7.152l7.177,2.451l-7.177,2.451
		c-3.363,1.148-6.004,3.789-7.152,7.152l-2.451,7.177l-2.451-7.177c-1.148-3.363-3.789-6.004-7.152-7.152l-7.177-2.451l7.177-2.451
		c3.363-1.148,6.004-3.789,7.152-7.152L386.703,194.083z"/>
</g>
<path style="fill:#FEED58;" d="M142.731,109.758l3.539,10.365c1.658,4.857,5.473,8.671,10.329,10.329l10.365,3.539l-10.365,3.539
	c-4.857,1.658-8.671,5.473-10.329,10.329l-3.539,10.365l-3.539-10.365c-1.658-4.857-5.473-8.671-10.329-10.329l-10.365-3.539
	l10.365-3.539c4.857-1.658,8.671-5.473,10.329-10.329L142.731,109.758z"/>
<g>
	<circle style="fill:#F8A725;" cx="240.25" cy="119.87" r="9.753"/>
	<circle style="fill:#F8A725;" cx="180.91" cy="271.75" r="9.753"/>
</g>
<circle style="fill:#F47F17;" cx="302.28" cy="250" r="9.753"/>
<g>
	<circle style="fill:#F8A725;" cx="230.49" cy="199.84" r="9.753"/>
	<circle style="fill:#F8A725;" cx="180.91" cy="201.11" r="9.753"/>
</g>
<g>
	<circle style="fill:#F47F17;" cx="302.28" cy="168.61" r="9.753"/>
	<circle style="fill:#F47F17;" cx="403.48" cy="139.61" r="5.621"/>
</g>
<rect x="60" y="341.67" style="fill:#F8A725;" width="392" height="28"/>
<rect x="255.58" y="341.67" style="fill:#F47F17;" width="196.42" height="28"/>
<g>
</g>
<g>
</g>
<g>
</g>
<g>
</g>
<g>
</g>
<g>
</g>
<g>
</g>
<g>
</g>
<g>
</g>
<g>
</g>
<g>
</g>
<g>
</g>
<g>
</g>
<g>
</g>
<g>
</g>
</svg>
