<?xml version="1.0" encoding="iso-8859-1"?>
<!-- Generator: Adobe Illustrator 19.0.0, SVG Export Plug-In . SVG Version: 6.00 Build 0)  -->
<svg version="1.1" id="Capa_1" xmlns="http://www.w3.org/2000/svg" xmlns:xlink="http://www.w3.org/1999/xlink" x="0px" y="0px"
	 viewBox="0 0 512 512" style="enable-background:new 0 0 512 512;" xml:space="preserve">
<circle style="fill:#FE7043;" cx="256" cy="256" r="256"/>
<path style="fill:#FE5722;" d="M512,256c0-7.074-0.3-14.078-0.863-21.007L408.144,132L71.224,345.737L236.77,511.283
	C243.119,511.755,249.53,512,256,512C397.385,512,512,397.385,512,256z"/>
<path style="fill:#FFFFFF;" d="M442.408,345.737V166.263c-18.923,0-34.263-15.34-34.263-34.263H105.487
	c0,18.923-15.34,34.263-34.263,34.263c-0.547,0-1.091-0.016-1.631-0.041v179.556c0.541-0.026,1.084-0.041,1.631-0.041
	c18.923,0,34.263,15.34,34.263,34.263h302.657C408.144,361.077,423.485,345.737,442.408,345.737z"/>
<path style="fill:#E6E6E6;" d="M408.144,132H255.576v248h152.569c0-18.923,15.34-34.263,34.263-34.263V166.263
	C423.485,166.263,408.144,150.923,408.144,132z"/>
<rect x="69.59" y="193.59" style="fill:#FEEA3B;" width="372.81" height="124.82"/>
<rect x="255.58" y="193.59" style="fill:#FED500;" width="186.83" height="124.81"/>
<rect x="142.81" y="222.72" style="fill:#616161;" width="226.38" height="22.88"/>
<rect x="255.58" y="222.72" style="fill:#424242;" width="113.61" height="22.88"/>
<rect x="183.8" y="263.34" style="fill:#616161;" width="144.39" height="22.88"/>
<rect x="255.58" y="263.34" style="fill:#424242;" width="72.62" height="22.88"/>
<g>
</g>
<g>
</g>
<g>
</g>
<g>
</g>
<g>
</g>
<g>
</g>
<g>
</g>
<g>
</g>
<g>
</g>
<g>
</g>
<g>
</g>
<g>
</g>
<g>
</g>
<g>
</g>
<g>
</g>
</svg>
