<?xml version="1.0" encoding="iso-8859-1"?>
<!-- Generator: Adobe Illustrator 19.0.0, SVG Export Plug-In . SVG Version: 6.00 Build 0)  -->
<svg version="1.1" id="Capa_1" xmlns="http://www.w3.org/2000/svg" xmlns:xlink="http://www.w3.org/1999/xlink" x="0px" y="0px"
	 viewBox="0 0 512 512" style="enable-background:new 0 0 512 512;" xml:space="preserve">
<circle style="fill:#8D24A9;" cx="256" cy="256" r="256"/>
<path style="fill:#7B1FA1;" d="M511.868,263.868L290,42L190,174l72.504,72.504l-9.026,67.13L125.536,185.691l-2.797,23.488
	l-21.437,0.745l146.432,146.432l-0.113,0.842l26.441,26.442L256,478.732l31.354,31.354
	C411.397,494.937,508.027,391.073,511.868,263.868z"/>
<path style="fill:#FEE900;" d="M346.234,308.744l3.539,10.365c1.658,4.857,5.473,8.671,10.329,10.329l10.365,3.539l-10.365,3.539
	c-4.857,1.658-8.671,5.473-10.329,10.329l-3.539,10.365l-3.539-10.365c-1.658-4.857-5.473-8.671-10.329-10.329L322,332.977
	l10.365-3.539c4.857-1.658,8.671-5.473,10.329-10.329L346.234,308.744z"/>
<path style="fill:#FEED58;" d="M125.536,185.691l3.539,10.365c1.658,4.857,5.473,8.671,10.329,10.329l10.365,3.539l-10.365,3.539
	c-4.857,1.658-8.671,5.473-10.329,10.329l-3.539,10.365l-3.539-10.365c-1.658-4.857-5.473-8.671-10.329-10.329l-10.365-3.539
	l10.365-3.539c4.857-1.658,8.671-5.473,10.329-10.329L125.536,185.691z"/>
<path style="fill:#FEE900;" d="M366.117,136.113l2.612,7.648c1.224,3.584,4.039,6.399,7.622,7.622l7.648,2.612l-7.648,2.612
	c-3.584,1.224-6.399,4.039-7.622,7.622l-2.612,7.648l-2.612-7.648c-1.224-3.584-4.039-6.399-7.622-7.622l-7.648-2.612l7.648-2.612
	c3.584-1.224,6.399-4.039,7.622-7.622L366.117,136.113z"/>
<polygon style="fill:#FFFFFF;" points="295.331,432.911 256,478.733 216.669,432.911 228.125,57.934 283.875,57.934 "/>
<polygon style="fill:#E6E6E6;" points="256,478.732 295.331,432.911 283.875,57.934 255.576,57.934 "/>
<rect x="222" y="42" style="fill:#F8A725;" width="68" height="115.5"/>
<rect x="255.58" y="42" style="fill:#F47F17;" width="34.424" height="115.5"/>
<rect x="190" y="132.33" style="fill:#FCD735;" width="132" height="41.667"/>
<rect x="255.58" y="132.33" style="fill:#FABF2D;" width="66.42" height="41.667"/>
<g>
</g>
<g>
</g>
<g>
</g>
<g>
</g>
<g>
</g>
<g>
</g>
<g>
</g>
<g>
</g>
<g>
</g>
<g>
</g>
<g>
</g>
<g>
</g>
<g>
</g>
<g>
</g>
<g>
</g>
</svg>
