<?xml version="1.0" encoding="iso-8859-1"?>
<!-- Generator: Adobe Illustrator 19.0.0, SVG Export Plug-In . SVG Version: 6.00 Build 0)  -->
<svg version="1.1" id="Capa_1" xmlns="http://www.w3.org/2000/svg" xmlns:xlink="http://www.w3.org/1999/xlink" x="0px" y="0px"
	 viewBox="0 0 512 512" style="enable-background:new 0 0 512 512;" xml:space="preserve">
<circle style="fill:#39B54A;" cx="256" cy="256" r="256"/>
<g>
	<path style="fill:#009245;" d="M499.638,334.753C507.653,309.94,512,283.48,512,256c0-1.797-0.031-3.586-0.068-5.374L377.306,116
		l-0.511,47.442l-87.926-87.926l3.096,25.977l-27.329-1.743L499.638,334.753z"/>
	<path style="fill:#009245;" d="M259.289,511.958c105.01-1.324,194.78-65.859,233.004-157.319L286.331,148.677L271.809,248.82
		l-136.94-136.94l0.102,24.125l-24.335,0.108L260.621,286.1L91.169,343.838L259.289,511.958z"/>
</g>
<path style="fill:#FFFFFF;" d="M134.869,111.88l3.539,10.365c1.658,4.857,5.473,8.671,10.329,10.329l10.365,3.539l-10.365,3.539
	c-4.857,1.658-8.671,5.473-10.329,10.329l-3.539,10.365l-3.539-10.365c-1.658-4.857-5.473-8.671-10.329-10.329l-10.365-3.539
	L121,132.574c4.857-1.658,8.671-5.473,10.329-10.329L134.869,111.88z"/>
<g>
	<path style="fill:#E6E6E6;" d="M288.869,75.516l3.539,10.365c1.658,4.857,5.473,8.671,10.329,10.329l10.365,3.539l-10.365,3.539
		c-4.857,1.658-8.671,5.473-10.329,10.329l-3.539,10.365l-3.539-10.365c-1.658-4.857-5.473-8.671-10.329-10.329l-10.365-3.539
		L275,96.211c4.857-1.658,8.671-5.473,10.329-10.329L288.869,75.516z"/>
	<path style="fill:#E6E6E6;" d="M377.306,116l5.85,17.132c2.741,8.027,9.046,14.332,17.074,17.074l17.132,5.85l-17.132,5.85
		c-8.027,2.741-14.332,9.046-17.074,17.074l-5.85,17.132l-5.85-17.132c-2.741-8.027-9.046-14.332-17.074-17.074l-17.132-5.85
		l17.132-5.85c8.027-2.741,14.332-9.046,17.074-17.074L377.306,116z"/>
</g>
<path style="fill:#FEED58;" d="M115.669,368.338l-24.5-24.5c-16.751-16.751-16.751-43.91,0-60.661l134.5-134.5
	c16.751-16.751,43.91-16.751,60.661,0l134.5,134.5c16.751,16.751,16.751,43.91,0,60.661l-24.5,24.5
	C318.828,445.841,193.172,445.841,115.669,368.338z"/>
<path style="fill:#EDD62F;" d="M420.831,283.177l-134.5-134.5c-8.484-8.483-19.636-12.663-30.755-12.553V426.46
	c50.931,0.108,101.896-19.263,140.755-58.122l24.5-24.5C437.582,327.087,437.582,299.928,420.831,283.177z"/>
<g>
	<circle style="fill:#FEF8C3;" cx="356.25" cy="288.25" r="14.25"/>
	<circle style="fill:#FEF8C3;" cx="387.75" cy="325.75" r="14.25"/>
	<circle style="fill:#FEF8C3;" cx="337.25" cy="342.75" r="14.25"/>
</g>
<g>
</g>
<g>
</g>
<g>
</g>
<g>
</g>
<g>
</g>
<g>
</g>
<g>
</g>
<g>
</g>
<g>
</g>
<g>
</g>
<g>
</g>
<g>
</g>
<g>
</g>
<g>
</g>
<g>
</g>
</svg>
