<?xml version="1.0" encoding="iso-8859-1"?>
<!-- Generator: Adobe Illustrator 19.0.0, SVG Export Plug-In . SVG Version: 6.00 Build 0)  -->
<svg version="1.1" id="Capa_1" xmlns="http://www.w3.org/2000/svg" xmlns:xlink="http://www.w3.org/1999/xlink" x="0px" y="0px"
	 viewBox="0 0 512 512" style="enable-background:new 0 0 512 512;" xml:space="preserve">
<circle style="fill:#FE7043;" cx="256" cy="256" r="256"/>
<path style="fill:#FE5722;" d="M68.867,237.675l23.148,79.914l192.789,192.789C411.53,496.186,510.271,389.495,511.958,259.38
	l-49.049-49.049l-171.755,49.67L68.867,237.675z"/>
<path style="fill:#37474F;" d="M256,240.797L256,240.797c-5.67,0-11.332-0.432-16.936-1.293L49.092,210.331l16.709,62.746
	c11.216,42.116,49.351,71.425,92.935,71.425l0,0c32.614,0,62.971-15.81,81.711-42.013c3.594-5.025,9.374-8.028,15.552-8.028l0,0
	c6.178,0,11.958,3.002,15.552,8.028c18.74,26.202,49.097,42.013,81.711,42.013l0,0c43.584,0,81.72-29.309,92.935-71.425
	l16.71-62.746l-189.972,29.173C267.332,240.365,261.67,240.797,256,240.797z M210.728,283.48l-1.376,2.388
	c-9.039,15.688-25.767,25.356-43.873,25.356l0,0c-21.964,0-41.182-14.77-46.834-35.994l-8.421-31.62l76.35,11.725
	C200.469,257.468,210.728,269.422,210.728,283.48L210.728,283.48z M393.355,275.23c-5.652,21.224-24.87,35.994-46.834,35.994l0,0
	c-18.106,0-34.834-9.668-43.873-25.356l-1.376-2.388l0,0c0-14.058,10.259-26.012,24.154-28.146l76.35-11.725L393.355,275.23z"/>
<path style="fill:#263238;" d="M272.936,239.504c-5.604,0.861-11.266,1.293-16.936,1.293c-0.141,0-0.283-0.008-0.424-0.008v53.686
	c0.142-0.003,0.282-0.013,0.424-0.013c6.179,0,11.958,3.002,15.552,8.028c18.74,26.202,49.097,42.013,81.711,42.013l0,0
	c43.584,0,81.72-29.309,92.936-71.425l16.71-62.746L272.936,239.504z M393.355,275.23c-5.652,21.224-24.87,35.994-46.834,35.994l0,0
	c-18.106,0-34.834-9.668-43.873-25.356l-1.376-2.388c0-14.058,10.259-26.012,24.154-28.146l76.35-11.725L393.355,275.23z"/>
<g>
</g>
<g>
</g>
<g>
</g>
<g>
</g>
<g>
</g>
<g>
</g>
<g>
</g>
<g>
</g>
<g>
</g>
<g>
</g>
<g>
</g>
<g>
</g>
<g>
</g>
<g>
</g>
<g>
</g>
</svg>
