<?xml version="1.0" encoding="iso-8859-1"?>
<!-- Generator: Adobe Illustrator 19.0.0, SVG Export Plug-In . SVG Version: 6.00 Build 0)  -->
<svg version="1.1" id="Capa_1" xmlns="http://www.w3.org/2000/svg" xmlns:xlink="http://www.w3.org/1999/xlink" x="0px" y="0px"
	 viewBox="0 0 512 512" style="enable-background:new 0 0 512 512;" xml:space="preserve">
<circle style="fill:#FBD747;" cx="256" cy="256" r="256"/>
<path style="fill:#E9BA13;" d="M512,256c0-5.734-0.208-11.418-0.579-17.058L358.196,85.718l-43.468,35.55l83.119,83.118l-9.42,9.266
	l-51.73-51.73l-5.658,7.031l-53.942-53.942L93.658,203.82l119.263,119.264l-88.216,83.792l103.632,103.632
	C237.426,511.485,246.653,512,256,512C397.385,512,512,397.385,512,256z"/>
<path style="fill:#69AC05;" d="M294.781,142.954c-1.435,0-2.853,0.072-4.26,0.178C288.343,120.056,268.922,102,245.276,102
	c-23.924,0-43.517,18.488-45.306,41.954c-3.402-0.648-6.908-1-10.498-1c-30.82,0-55.805,24.985-55.805,55.805
	s24.985,55.805,55.805,55.805c24.337,0,45.024-15.585,52.655-37.315c7.631,21.73,28.317,37.315,52.655,37.315
	c30.82,0,55.805-24.985,55.805-55.805C350.586,167.938,325.601,142.954,294.781,142.954z"/>
<path style="fill:#047828;" d="M294.781,142.954c-1.435,0-2.853,0.072-4.26,0.178c-1.851-19.617-16.168-35.599-34.945-39.951
	v135.274c10.075,9.958,23.919,16.109,39.205,16.109c30.82,0,55.805-24.985,55.805-55.805
	C350.586,167.938,325.601,142.954,294.781,142.954z"/>
<rect x="348.993" y="353.002" transform="matrix(-0.9205 0.3907 -0.3907 -0.9205 846.4592 595.4703)" style="fill:#37474F;" width="27.333" height="61.669"/>
<rect x="135.654" y="353" transform="matrix(0.9205 0.3907 -0.3907 0.9205 161.8352 -27.8314)" style="fill:#455A64;" width="27.333" height="61.669"/>
<path style="fill:#37474F;" d="M110.344,193c-8.365,19.314-13.011,40.613-13.011,63c0,87.629,71.038,158.667,158.667,158.667
	S414.667,343.629,414.667,256c0-22.387-4.646-43.686-13.011-63H110.344z"/>
<path style="fill:#263238;" d="M401.656,193h-146.08v221.661c0.142,0,0.282,0.005,0.424,0.005
	c87.629,0,158.667-71.037,158.667-158.667C414.667,233.613,410.021,212.314,401.656,193z"/>
<path style="fill:#455A64;" d="M404.335,210.331h-296.67c-10.125,0-18.332-8.208-18.332-18.332l0,0
	c0-10.125,8.208-18.332,18.332-18.332h296.669c10.125,0,18.332,8.208,18.332,18.332l0,0
	C422.667,202.123,414.459,210.331,404.335,210.331z"/>
<path style="fill:#37474F;" d="M404.334,173.667H255.576v36.664h148.759c10.125,0,18.332-8.208,18.332-18.332l0,0
	C422.667,181.874,414.459,173.667,404.334,173.667z"/>
<circle style="fill:#047828;" cx="337.83" cy="105.17" r="28.17"/>
<g>
</g>
<g>
</g>
<g>
</g>
<g>
</g>
<g>
</g>
<g>
</g>
<g>
</g>
<g>
</g>
<g>
</g>
<g>
</g>
<g>
</g>
<g>
</g>
<g>
</g>
<g>
</g>
<g>
</g>
</svg>
