<?xml version="1.0" encoding="iso-8859-1"?>
<!-- Generator: Adobe Illustrator 19.0.0, SVG Export Plug-In . SVG Version: 6.00 Build 0)  -->
<svg version="1.1" id="Capa_1" xmlns="http://www.w3.org/2000/svg" xmlns:xlink="http://www.w3.org/1999/xlink" x="0px" y="0px"
	 viewBox="0 0 512 512" style="enable-background:new 0 0 512 512;" xml:space="preserve">
<circle style="fill:#005ED1;" cx="256" cy="256" r="256"/>
<path style="fill:#053D8A;" d="M512,256c0-1.459-0.031-2.91-0.055-4.363l-153.49-153.49C332.756,70.962,296.361,53.996,256,53.996
	c-77.855,0-140.97,63.114-140.97,140.969c0,29.174,8.863,56.277,24.041,78.766c-1.213,4.628-1.874,9.434-1.874,14.377
	c0,1.679,0.098,3.337,0.243,4.983l-8.169,1.589l2.206,11.334l17.384,16.813c1.92,2.613,4.051,5.098,6.372,7.441l20.624,20.526
	c0,8.749,0,18.676,0,28.543c0,22.052,3.509,49.466,18.437,64.03l68.745,68.533C401.168,508.171,512,395.031,512,256z"/>
<path style="fill:#FFFFFF;" d="M175.856,322.671c0,0,0,28.667,0,56.667s5.638,64.667,33.152,72.667V322.671H175.856z"/>
<path style="fill:#E0E0E2;" d="M336.144,322.671c0,0,0,28.667,0,56.667s-5.638,64.667-33.152,72.667V322.671H336.144z"/>
<circle style="fill:#AEADB3;" cx="256" cy="194.97" r="140.97"/>
<path style="fill:#8B8892;" d="M396.97,194.97c0,29.16-8.86,56.26-24.03,78.74c-25.32,37.54-68.24,62.23-116.94,62.23V54
	C333.86,54,396.97,117.11,396.97,194.97z"/>
<path style="fill:#D8D8DA;" d="M298.932,222.924c-15.937,0-30.723,4.225-42.932,11.438c-12.209-7.213-26.995-11.438-42.932-11.438
	c-41.902,0-75.87,29.184-75.87,65.184s33.969,65.184,75.87,65.184c15.937,0,30.723-4.225,42.932-11.438
	c12.209,7.213,26.995,11.438,42.932,11.438c41.902,0,75.87-29.184,75.87-65.184C374.803,252.108,340.834,222.924,298.932,222.924z"
	/>
<path style="fill:#AEADB3;" d="M374.8,288.11c0,36-33.97,65.18-75.87,65.18c-15.93,0-30.72-4.22-42.93-11.44V234.36
	c12.21-7.21,27-11.44,42.93-11.44c36.14,0,66.38,21.72,74.01,50.79C374.16,278.34,374.8,283.16,374.8,288.11z"/>
<g>
	
		<rect x="298.83" y="244.844" transform="matrix(0.9816 -0.191 0.191 0.9816 -41.597 69.6687)" style="fill:#39373E;" width="83.551" height="11.547"/>
	
		<rect x="298.839" y="286.614" transform="matrix(-0.9816 -0.191 0.191 -0.9816 619.1124 644.4484)" style="fill:#39373E;" width="83.551" height="11.547"/>
</g>
<g>
	
		<rect x="129.589" y="244.851" transform="matrix(-0.9816 -0.191 0.191 -0.9816 291.7054 529.3661)" style="fill:#56535B;" width="83.551" height="11.547"/>
	
		<rect x="129.59" y="286.595" transform="matrix(0.9816 -0.191 0.191 0.9816 -52.6871 38.1128)" style="fill:#56535B;" width="83.551" height="11.547"/>
</g>
<path style="fill:#39373E;" d="M275.355,220.924h-19.352h-0.006h-19.352c-9.296,0-14.854,10.439-9.57,18.087
	c7.437,10.765,17.98,22.344,28.923,22.348l0,0c0,0,0.002,0,0.003,0c0.001,0,0.002,0,0.002,0h0.001
	c10.943-0.004,21.486-11.583,28.923-22.348C290.21,231.363,284.651,220.924,275.355,220.924z"/>
<path style="fill:#0F0F11;" d="M284.921,239.009c-3.721,5.382-8.204,10.964-13.137,15.21c-4.933,4.246-10.315,7.143-15.784,7.143
	v-40.435h19.356c4.72,0,8.479,2.697,10.34,6.356C287.506,230.818,287.518,235.251,284.921,239.009z"/>
<circle style="fill:#56545B;" cx="204.34" cy="170.68" r="18.15"/>
<circle style="fill:#0F0F11;" cx="307.66" cy="170.68" r="18.15"/>
<g>
</g>
<g>
</g>
<g>
</g>
<g>
</g>
<g>
</g>
<g>
</g>
<g>
</g>
<g>
</g>
<g>
</g>
<g>
</g>
<g>
</g>
<g>
</g>
<g>
</g>
<g>
</g>
<g>
</g>
</svg>
