<?xml version="1.0" encoding="iso-8859-1"?>
<!-- Generator: Adobe Illustrator 19.0.0, SVG Export Plug-In . SVG Version: 6.00 Build 0)  -->
<svg version="1.1" id="Capa_1" xmlns="http://www.w3.org/2000/svg" xmlns:xlink="http://www.w3.org/1999/xlink" x="0px" y="0px"
	 viewBox="0 0 512 512" style="enable-background:new 0 0 512 512;" xml:space="preserve">
<circle style="fill:#6DE6FF;" cx="256" cy="256" r="256"/>
<path style="fill:#47BFFF;" d="M512,256c0-23.565-3.2-46.379-9.161-68.05L389.868,74.98h-20.12v39.884
	c0,5.332-3.158,10.154-8.047,12.285L328.88,94.842h-20.119v55.382l-19.168,8.355c-5.022,2.188-9.312,5.514-12.625,9.597
	l-73.73-73.334h-20.119v17.488l-40.867-37.35h-20.119v39.884c0,8.784,3.427,17.014,9.26,23.133c0,0,90.871,90.44,91.021,90.635v1.74
	h-0.002l-31.716-31.506c-16.091-18.21-45.609-34.866-99.317-39.82c0,0-10.407,51.439,22.256,85.564c0,0,46.74,46.39,47.758,47.575
	c-0.746,13.046,2.066,28.137,9.41,45.363c23.862,55.971,37.694,99.08,58.572,118.178l54.815,54.722
	C412.308,496.412,512,387.856,512,256z"/>
<path style="fill:#CE7937;" d="M222.406,158.578l-19.168-8.355V94.841h-20.12v46.613l-32.82-14.305
	c-4.889-2.131-8.047-6.953-8.047-12.285V74.98h-20.119v39.884c0,13.337,7.901,25.399,20.128,30.729l72.108,31.429
	c4.887,2.129,8.046,6.952,8.046,12.284v44.992h20.119v-44.992C242.533,175.967,234.632,163.906,222.406,158.578z"/>
<path style="fill:#AE4A04;" d="M289.594,158.578l19.168-8.355V94.841h20.12v46.613l32.82-14.305
	c4.889-2.131,8.047-6.953,8.047-12.285V74.98h20.119v39.884c0,13.337-7.901,25.399-20.128,30.729l-72.108,31.429
	c-4.887,2.129-8.046,6.952-8.046,12.284v44.992h-20.119v-44.992C269.467,175.967,277.368,163.906,289.594,158.578z"/>
<path style="fill:#FD880C;" d="M420.621,159.046c-89.855,8.289-112.015,49.328-116.837,75.609
	c-14.402-5.399-30.919-8.026-47.781-8.026l0,0h-0.002c-0.001,0-0.002,0-0.002,0h-0.001c-16.862,0.001-33.379,2.627-47.781,8.026
	c-4.822-26.281-26.982-67.32-116.837-75.609c0,0-19.019,93.893,74.864,112.128c-7.342,16.959-7.124,38.966,4.56,66.374
	c32.604,76.478,46.48,128.95,85.194,128.955l0,0H256c0.001,0,0.001,0,0.001,0h0.001c38.714-0.005,52.59-52.477,85.194-128.955
	c11.685-27.408,11.902-49.414,4.56-66.374C439.64,252.939,420.621,159.046,420.621,159.046z"/>
<path style="fill:#CE7937;" d="M345.754,271.178c7.347,16.96,7.132,38.959-4.553,66.374c-16.302,38.236-27.922,70.474-40.308,93.152
	c-12.386,22.679-25.538,35.798-44.893,35.798V226.63c16.863,0,33.381,2.622,47.785,8.027c4.823-26.282,26.983-67.324,116.835-75.61
	C420.619,159.048,439.64,252.934,345.754,271.178z"/>
<path style="fill:#FDC36F;" d="M256,378.862L256,378.862c-23.913,0-44.473,15.025-52.745,36.094
	c14.924,32.243,29.267,51.544,52.743,51.547H256c0.001,0,0.002,0,0.002,0c23.477-0.003,37.82-19.303,52.744-51.547
	C300.473,393.887,279.913,378.862,256,378.862z"/>
<path style="fill:#FD990E;" d="M308.748,414.953c-7.455,16.13-14.781,29.012-23.164,37.87c-8.394,8.858-17.845,13.681-29.583,13.681
	v-87.64C279.908,378.864,300.472,393.882,308.748,414.953z"/>
<circle style="fill:#56545B;" cx="211.69" cy="324.21" r="14.346"/>
<circle style="fill:#0F0F11;" cx="300.31" cy="324.21" r="14.346"/>
<path style="fill:#FDC36F;" d="M195.564,240.434c-9.762,5.376-18,12.363-23.944,21.032c-58.718-22.604-60.269-78.015-60.269-78.015
	C164.654,183.451,186.777,217.822,195.564,240.434z"/>
<path style="fill:#FD990E;" d="M400.65,183.451c0,0-1.551,55.411-60.269,78.015c-5.944-8.668-14.182-15.656-23.944-21.032
	C325.223,217.822,347.346,183.451,400.65,183.451z"/>
<path style="fill:#39373E;" d="M271.675,375.398h-15.673h-0.005h-15.673c-7.528,0-12.03,9.577-7.751,16.594
	c6.023,9.876,14.561,20.499,23.424,20.503l0,0c0,0,0.001,0,0.002,0c0.001,0,0.001,0,0.001,0h0.001
	c8.862-0.004,17.4-10.627,23.423-20.503C283.705,384.975,279.204,375.398,271.675,375.398z"/>
<path style="fill:#0F0F11;" d="M279.422,391.99c-3.014,4.938-6.644,10.059-10.639,13.954c-3.995,3.895-8.354,6.553-12.783,6.553
	v-37.096h15.675c3.823,0,6.867,2.475,8.374,5.831C281.516,384.474,281.526,388.541,279.422,391.99z"/>
<rect x="232.78" y="432.48" style="fill:#39373E;" width="46.43" height="12.611"/>
<rect x="256" y="432.48" style="fill:#0F0F11;" width="23.22" height="12.607"/>
<g>
</g>
<g>
</g>
<g>
</g>
<g>
</g>
<g>
</g>
<g>
</g>
<g>
</g>
<g>
</g>
<g>
</g>
<g>
</g>
<g>
</g>
<g>
</g>
<g>
</g>
<g>
</g>
<g>
</g>
</svg>
