<?xml version="1.0" encoding="iso-8859-1"?>
<!-- Generator: Adobe Illustrator 19.0.0, SVG Export Plug-In . SVG Version: 6.00 Build 0)  -->
<svg version="1.1" id="Capa_1" xmlns="http://www.w3.org/2000/svg" xmlns:xlink="http://www.w3.org/1999/xlink" x="0px" y="0px"
	 viewBox="0 0 512 512" style="enable-background:new 0 0 512 512;" xml:space="preserve">
<circle style="fill:#FFE570;" cx="256" cy="256" r="256"/>
<path style="fill:#FDB500;" d="M512,256c0-2.449-0.043-4.889-0.111-7.322L330.211,67L67,330.211l181.678,181.678
	C251.111,511.957,253.55,512,256,512C397.385,512,512,397.385,512,256z"/>
<polygon style="fill:#E6974A;" points="427.658,324.894 427.116,271.818 354.225,272.564 445,181.789 330.211,67 67,330.211 
	181.789,445 300.596,326.193 "/>
<g>
	<polygon style="fill:#CE7937;" points="427.658,324.894 427.116,271.818 354.225,272.564 445,181.789 387.605,124.395 
		124.395,387.605 181.789,445 300.596,326.193 	"/>
	
		<rect x="323.099" y="83.109" transform="matrix(-0.7071 -0.7071 0.7071 -0.7071 484.9221 434.2882)" style="fill:#CE7937;" width="18.612" height="67.209"/>
	
		<rect x="153.842" y="186.705" transform="matrix(-0.7071 -0.7071 0.7071 -0.7071 76.2995 603.5432)" style="fill:#CE7937;" width="18.612" height="198.528"/>
</g>
<g>
	
		<rect x="167.975" y="359.368" transform="matrix(0.7071 0.7071 -0.7071 0.7071 329.7979 -10.2574)" style="fill:#AE4A04;" width="18.612" height="67.209"/>
	
		<rect x="337.23" y="124.459" transform="matrix(0.7071 0.7071 -0.7071 0.7071 259.6939 -179.5113)" style="fill:#AE4A04;" width="18.612" height="198.528"/>
</g>
<g>
</g>
<g>
</g>
<g>
</g>
<g>
</g>
<g>
</g>
<g>
</g>
<g>
</g>
<g>
</g>
<g>
</g>
<g>
</g>
<g>
</g>
<g>
</g>
<g>
</g>
<g>
</g>
<g>
</g>
</svg>
