<?xml version="1.0" encoding="iso-8859-1"?>
<!-- Generator: Adobe Illustrator 19.0.0, SVG Export Plug-In . SVG Version: 6.00 Build 0)  -->
<svg version="1.1" id="Capa_1" xmlns="http://www.w3.org/2000/svg" xmlns:xlink="http://www.w3.org/1999/xlink" x="0px" y="0px"
	 viewBox="0 0 512 512" style="enable-background:new 0 0 512 512;" xml:space="preserve">
<circle style="fill:#91F3FF;" cx="256" cy="256" r="256"/>
<path style="fill:#00ECFF;" d="M512,256c0-4.835-0.147-9.635-0.411-14.404l-86.587-86.587L241.667,93.405l-139.665,88.732
	l138.614,138.614l-120.599,78.104l112.019,112.019C239.928,511.607,247.918,512,256,512C397.385,512,512,397.385,512,256z"/>
<polygon style="fill:#F9C41E;" points="391.983,398.855 120.017,398.855 120.017,161.517 256,86.314 391.983,161.517 "/>
<polygon style="fill:#FE9A35;" points="391.983,161.517 256,86.314 256.029,85.997 256.029,398.183 391.983,398.855 "/>
<polygon style="fill:#DE1F4B;" points="409.999,182.137 256,96.97 102.001,182.137 86.999,155.009 256,61.545 425.001,155.009 "/>
<polygon style="fill:#B70E38;" points="256,96.97 409.999,182.137 425.001,155.009 256,61.545 "/>
<path style="fill:#FE9A35;" d="M309.667,398.855H202.333v-123c0-29.639,24.027-53.667,53.667-53.667l0,0
	c29.639,0,53.667,24.027,53.667,53.667V398.855z"/>
<path style="fill:#FF7C11;" d="M256,398.855h53.667v-123c0-29.639-24.027-53.667-53.667-53.667l0,0V398.855z"/>
<path style="fill:#1F66CC;" d="M233.873,188.618c0-0.229-0.006-0.457-0.017-0.683h44.289c-0.011,0.226-0.017,0.454-0.017,0.683
	c0,7.455,6.044,13.498,13.499,13.499c7.455,0,13.498-6.043,13.498-13.498c0-5.13-2.862-9.591-7.076-11.875
	c4.214-2.284,7.076-6.745,7.076-11.875c0-7.455-6.043-13.499-13.499-13.499c-7.455,0-13.498,6.043-13.498,13.498
	c0,0.229,0.006,0.457,0.017,0.683h-44.289c0.011-0.226,0.017-0.454,0.017-0.683c0-7.455-6.044-13.498-13.499-13.499
	s-13.498,6.043-13.498,13.498c0,5.13,2.862,9.591,7.076,11.875c-4.214,2.284-7.076,6.745-7.076,11.875
	c0,7.455,6.044,13.499,13.498,13.499C227.83,202.116,233.873,196.073,233.873,188.618z"/>
<path style="fill:#154797;" d="M298.049,176.743c4.214-2.284,7.076-6.745,7.076-11.875c0-7.455-6.044-13.499-13.499-13.499
	s-13.498,6.043-13.498,13.498c0,0.229,0.006,0.457,0.017,0.683h-22.132v22.384h22.132c-0.011,0.226-0.017,0.454-0.017,0.683
	c0,7.455,6.044,13.498,13.499,13.499c7.455,0,13.498-6.043,13.498-13.498C305.125,183.488,302.263,179.027,298.049,176.743z"/>
<g>
</g>
<g>
</g>
<g>
</g>
<g>
</g>
<g>
</g>
<g>
</g>
<g>
</g>
<g>
</g>
<g>
</g>
<g>
</g>
<g>
</g>
<g>
</g>
<g>
</g>
<g>
</g>
<g>
</g>
</svg>
