<?xml version="1.0" encoding="iso-8859-1"?>
<!-- Generator: Adobe Illustrator 19.0.0, SVG Export Plug-In . SVG Version: 6.00 Build 0)  -->
<svg version="1.1" id="Capa_1" xmlns="http://www.w3.org/2000/svg" xmlns:xlink="http://www.w3.org/1999/xlink" x="0px" y="0px"
	 viewBox="0 0 512 512" style="enable-background:new 0 0 512 512;" xml:space="preserve">
<circle style="fill:#17ACE8;" cx="256" cy="256" r="256"/>
<path style="fill:#136EF1;" d="M512,256c0-8.894-0.456-17.681-1.341-26.341l-114.11-114.11L126.156,385.942l126.009,126.009
	C253.443,511.97,254.718,512,256,512C397.385,512,512,397.385,512,256z"/>
<path style="fill:#32D736;" d="M382.822,130.192l11.554-0.801c-1.945,11.555-13.109,58.183-26.836,100.739l-14.872,5.949
	l9.609,9.838c-5.834,15.901-12.24,31.231-19.905,43.929l-22.307,3.089l12.126,12.355c-1.945,2.402-3.775,4.461-5.721,6.406
	c-25.625,25.625-57.771,38.782-87.058,38.782c-18.761-0.001-36.15-5.263-49.992-16.131c-2.174-1.716-4.118-3.66-6.064-5.605
	c-1.945-1.945-3.775-4.004-5.376-6.064c-28.256-35.807-19.219-95.18,22.536-136.936c1.945-1.945,4.004-3.775,6.522-5.605
	c0,0,8.923,12.813,9.152,12.584c0.573-0.573,6.177-22.881,6.177-22.881c12.699-7.665,28.029-14.071,43.815-20.019l10.754,10.067
	l5.034-15.33c42.785-13.727,89.756-24.777,100.853-26.722v11.44L382.822,130.192z"/>
<g>
	<path style="fill:#10BB67;" d="M394.375,129.391c-1.945,11.555-13.109,58.183-26.836,100.739l-14.872,5.949l9.609,9.838
		c-5.834,15.901-12.24,31.231-19.905,43.929l-22.307,3.089l12.126,12.355c-1.945,2.402-3.775,4.461-5.721,6.406
		c-25.625,25.625-57.771,38.782-87.058,38.782c-18.761-0.001-36.15-5.263-49.992-16.131c-2.174-1.716-4.118-3.66-6.064-5.605
		l199.466-199.466l0.001,0.915L394.375,129.391z"/>
	<path style="fill:#10BB67;" d="M396.549,115.549l-1.716,11.097c0,0.229-0.115,1.258-0.458,2.745l-94.904,94.675l-0.686,0.686
		l68.755,5.377c-1.488,5.377-3.319,10.639-5.263,15.787l-78.592-5.834l-41.984,41.984l100.671,7.779l-10.181,15.444L226.6,297.166
		l-37.18,37.18l-0.115-0.115l-57.429,57.429l-11.44-11.44l94.609-94.609l-8.007-105.476c4.461-3.775,9.609-7.093,15.329-10.296
		l7.779,100.671l41.984-41.984l-5.948-78.706c5.148-1.717,10.525-3.433,15.787-5.263l5.376,68.754l0.686-0.686l0.115,0.115
		l94.675-94.904h0.229c1.259-0.343,2.288-0.457,2.517-0.457L396.549,115.549z"/>
</g>
<path style="fill:#0CA656;" d="M396.549,115.549l-1.716,11.097c0,0.229-0.115,1.258-0.458,2.745l-94.904,94.675l-0.686,0.686
	l68.755,5.377c-1.488,5.377-3.319,10.639-5.263,15.787l-78.592-5.834l-41.984,41.984l100.671,7.779l-10.181,15.444L226.6,297.166
	l-37.18,37.18l-0.115-0.115l-57.429,57.429l-5.72-5.72L396.549,115.549z"/>
<g>
</g>
<g>
</g>
<g>
</g>
<g>
</g>
<g>
</g>
<g>
</g>
<g>
</g>
<g>
</g>
<g>
</g>
<g>
</g>
<g>
</g>
<g>
</g>
<g>
</g>
<g>
</g>
<g>
</g>
</svg>
