<?xml version="1.0" encoding="iso-8859-1"?>
<!-- Generator: Adobe Illustrator 19.0.0, SVG Export Plug-In . SVG Version: 6.00 Build 0)  -->
<svg version="1.1" id="Capa_1" xmlns="http://www.w3.org/2000/svg" xmlns:xlink="http://www.w3.org/1999/xlink" x="0px" y="0px"
	 viewBox="0 0 512 512" style="enable-background:new 0 0 512 512;" xml:space="preserve">
<circle style="fill:#DE1F4B;" cx="256" cy="256" r="256"/>
<path style="fill:#B70E38;" d="M512,256c0-5.55-0.197-11.053-0.545-16.515L366.603,94.632l-74.341-3.013l-20.011,35.487
	l-32.474-32.474l-86.205,8.05l2.167,87.962l87.903,87.903L256,466.415l42.707,42.018C419.76,488.102,512,382.832,512,256z"/>
<path style="fill:#91F3FF;" d="M194.67,76.031c-35.346,0-64.102,28.756-64.102,64.102s28.756,64.102,64.102,64.102
	c13.973,0,26.906-4.508,37.45-12.126v98.055h26.652V140.133C258.773,104.787,230.016,76.031,194.67,76.031z M194.67,177.584
	c-20.65,0-37.45-16.8-37.45-37.45s16.8-37.45,37.45-37.45s37.45,16.8,37.45,37.45S215.321,177.584,194.67,177.584z"/>
<path style="fill:#FFFFFF;" d="M256,466.415L256,466.415c-38.535-27.38-56.579-73.381-51.712-120.402l9.082-97.588h45.403
	L256,466.415z"/>
<path style="fill:#00ECFF;" d="M257.394,140.133v150.031h26.652v-98.055c10.544,7.618,23.477,12.126,37.45,12.126
	c35.346,0,64.102-28.756,64.102-64.102s-28.756-64.102-64.102-64.102S257.394,104.787,257.394,140.133z M284.046,140.133
	c0-20.65,16.8-37.45,37.45-37.45c20.65,0,37.45,16.8,37.45,37.45s-16.8,37.45-37.45,37.45
	C300.846,177.584,284.046,160.783,284.046,140.133z"/>
<path style="fill:#E0E0E0;" d="M256,466.415L256,466.415c38.535-27.38,60.746-73.381,55.879-120.402l-9.082-97.588h-45.403
	L256,466.415z"/>
<circle style="fill:#1F66CC;" cx="257.39" cy="248.43" r="19.07"/>
<path style="fill:#154797;" d="M257.394,229.355c-0.085,0-0.167,0.012-0.251,0.013v38.114c0.085,0.001,0.167,0.013,0.251,0.013
	c10.532,0,19.07-8.538,19.07-19.07S267.926,229.355,257.394,229.355z"/>
<g>
</g>
<g>
</g>
<g>
</g>
<g>
</g>
<g>
</g>
<g>
</g>
<g>
</g>
<g>
</g>
<g>
</g>
<g>
</g>
<g>
</g>
<g>
</g>
<g>
</g>
<g>
</g>
<g>
</g>
</svg>
