<?xml version="1.0" encoding="iso-8859-1"?>
<!-- Generator: Adobe Illustrator 19.0.0, SVG Export Plug-In . SVG Version: 6.00 Build 0)  -->
<svg version="1.1" id="Capa_1" xmlns="http://www.w3.org/2000/svg" xmlns:xlink="http://www.w3.org/1999/xlink" x="0px" y="0px"
	 viewBox="0 0 512 512" style="enable-background:new 0 0 512 512;" xml:space="preserve">
<circle style="fill:#32D736;" cx="256" cy="256" r="256"/>
<path style="fill:#0CA656;" d="M508.572,297.873L361.817,151.119L199,145.333l-92,118.815l17.461,17V405L230.17,510.709
	C238.665,511.56,247.281,512,256,512C383.123,512,488.584,419.336,508.572,297.873z"/>
<path style="fill:#1DE8F1;" d="M351.511,316.531c-1.979-42.214-38.065-82.552-86.78-86.909v-17.857H247.27v17.86
	c-45.935,4.169-82.672,40.896-86.78,86.905c-0.35,2.793-0.524,5.761-0.524,8.73v8.73V405h87.305h17.461h87.305v-71.008v-8.73
	C352.035,322.293,351.86,319.325,351.511,316.531z M311.526,269.561c12.746,12.921,20.604,29.334,22.524,46.97h-69.32v-69.359
	C282.389,249.122,298.765,256.95,311.526,269.561z M247.27,316.531h-17.461v-65.349c5.562-1.973,11.408-3.336,17.461-4.008V316.531z
	 M212.348,259.971v56.56H177.95C180.569,292.965,193.619,272.544,212.348,259.971z"/>
<polygon style="fill:#1689FC;" points="124.461,246.688 124.461,405 159.965,405 159.965,264.148 145.414,246.688 "/>
<path style="fill:#136EF1;" d="M366.796,246.688c-7.145,8.571-14.76,17.461-14.76,17.461V405h35.504V246.688H366.796z"/>
<path style="fill:#1DE8F1;" d="M256,107c-81.892,0-149,66.526-149,148.418v8.73h70.426v-8.73c0-43.304,35.271-78.574,78.574-78.574
	s78.574,35.27,78.574,78.574v8.73H405v-8.73C405,173.526,337.892,107,256,107z"/>
<path style="fill:#15B7BE;" d="M405,255.418v8.73h-70.426v-8.73c0-43.304-35.271-78.574-78.574-78.574V107
	C337.892,107,405,173.526,405,255.418z"/>
<rect x="177.43" y="333.99" style="fill:#17ACE8;" width="157.15" height="53.55"/>
<path style="fill:#15B7BE;" d="M351.511,316.531c-1.979-42.214-38.065-82.552-86.78-86.909v-17.857H256v17.461v17.461v69.844v17.461
	V405h8.73h87.305v-71.008v-8.73C352.035,322.293,351.86,319.325,351.511,316.531z M334.05,316.531h-34.398v-56.652
	c4.22,2.814,8.197,6.049,11.873,9.682C324.272,282.482,332.129,298.896,334.05,316.531z M264.73,247.172
	c5.999,0.662,11.85,2.001,17.461,3.978v65.381H264.73V247.172z"/>
<rect x="256" y="333.99" style="fill:#1689FC;" width="78.57" height="53.55"/>
<g>
</g>
<g>
</g>
<g>
</g>
<g>
</g>
<g>
</g>
<g>
</g>
<g>
</g>
<g>
</g>
<g>
</g>
<g>
</g>
<g>
</g>
<g>
</g>
<g>
</g>
<g>
</g>
<g>
</g>
</svg>
