<?xml version="1.0" encoding="iso-8859-1"?>
<!-- Generator: Adobe Illustrator 19.0.0, SVG Export Plug-In . SVG Version: 6.00 Build 0)  -->
<svg version="1.1" id="Capa_1" xmlns="http://www.w3.org/2000/svg" xmlns:xlink="http://www.w3.org/1999/xlink" x="0px" y="0px"
	 viewBox="0 0 512 512" style="enable-background:new 0 0 512 512;" xml:space="preserve">
<circle style="fill:#FFE570;" cx="256" cy="256" r="256"/>
<path style="fill:#FDB500;" d="M512,256c0-10.735-0.67-21.312-1.953-31.7L389.262,103.515c-36.913-17.014-62.595-16.877-80.37-9.668
	l-38.397-36.34h-28.989v131.354c-28.442-11.276-61.413-46.047-109.437-2.1c-69.884,63.95,7.979,192.551,43.085,235.104l89.856,89.96
	C402.219,507.077,512,394.368,512,256z"/>
<rect x="241.5" y="57.51" style="fill:#984B04;" width="28.989" height="141.49"/>
<rect x="256" y="57.51" style="fill:#A94F1F;" width="14.491" height="141.49"/>
<path style="fill:#FB233B;" d="M379.932,186.761C323.55,135.166,287.915,192.08,256,192.08s-67.549-56.914-123.932-5.319
	c-69.884,63.95,7.979,192.551,43.085,235.104s80.847,0,80.847,0s45.741,42.553,80.847,0
	C371.953,379.313,449.815,250.712,379.932,186.761z"/>
<path style="fill:#C70C24;" d="M379.932,186.761C323.55,135.166,287.915,192.08,256,192.08v229.785c0,0,45.741,42.553,80.847,0
	C371.953,379.313,449.815,250.712,379.932,186.761z"/>
<path style="fill:#00BA5F;" d="M270.495,142.879c0,0,15.269-87.069,118.767-39.364C389.262,103.515,353.077,192.878,270.495,142.879
	z"/>
<path style="fill:#00693C;" d="M389.262,103.515l-118.767,39.364C353.077,192.878,389.262,103.515,389.262,103.515z"/>
<g>
</g>
<g>
</g>
<g>
</g>
<g>
</g>
<g>
</g>
<g>
</g>
<g>
</g>
<g>
</g>
<g>
</g>
<g>
</g>
<g>
</g>
<g>
</g>
<g>
</g>
<g>
</g>
<g>
</g>
</svg>
