<?xml version="1.0" encoding="iso-8859-1"?>
<!-- Generator: Adobe Illustrator 19.0.0, SVG Export Plug-In . SVG Version: 6.00 Build 0)  -->
<svg version="1.1" id="Capa_1" xmlns="http://www.w3.org/2000/svg" xmlns:xlink="http://www.w3.org/1999/xlink" x="0px" y="0px"
	 viewBox="0 0 512 512" style="enable-background:new 0 0 512 512;" xml:space="preserve">
<circle style="fill:#1F66CC;" cx="256" cy="256" r="256"/>
<path style="fill:#154797;" d="M512,256c0-4.774-0.142-9.514-0.4-14.223l-100.11-100.11L111.17,383.554l127.873,127.873
	C244.65,511.794,250.301,512,256,512C397.385,512,512,397.385,512,256z"/>
<path style="fill:#FFFFFF;" d="M449,256c0-42.796-13.938-82.331-37.51-114.333H100.51C76.938,173.669,63,213.204,63,256
	c0,76.919,45.001,143.321,110.109,174.333h165.782C403.999,399.321,449,332.919,449,256z"/>
<path style="fill:#E0E0E0;" d="M411.49,141.667H255.952v288.667h82.939C403.999,399.321,449,332.919,449,256
	C449,213.204,435.062,173.669,411.49,141.667z"/>
<path style="fill:#91F3FF;" d="M64.88,229c-1.236,8.823-1.88,17.836-1.88,27c0,76.919,45.001,143.321,110.109,174.333h165.782
	C403.999,399.321,449,332.919,449,256c0-9.164-0.644-18.177-1.88-27H64.88z"/>
<path style="fill:#00ECFF;" d="M447.12,229H255.952v201.333h82.939C403.999,399.321,449,332.919,449,256
	C449,246.836,448.356,237.823,447.12,229z"/>
<path style="fill:#E4AB47;" d="M338.891,430.333c14.665-6.985,28.305-15.771,40.646-26.063C351.95,372.619,306.9,352,256,352
	s-95.95,20.619-123.537,52.27c12.341,10.292,25.981,19.078,40.646,26.063L338.891,430.333L338.891,430.333z"/>
<path style="fill:#D59134;" d="M379.537,404.27C351.95,372.619,306.9,352,256,352c-0.016,0-0.032,0.001-0.048,0.001v78.333h82.939
	C353.556,423.348,367.196,414.562,379.537,404.27z"/>
<path style="fill:#00DE7E;" d="M187.07,410H165.5c0-10.065,2.823-15.729,4.883-19.864c1.634-3.277,2.619-5.254,2.619-10.242
	s-0.985-6.966-2.619-10.242c-2.061-4.135-4.883-9.799-4.883-19.864s2.823-15.728,4.884-19.863c1.633-3.276,2.618-5.253,2.618-10.24
	s-0.985-6.964-2.618-10.24c-2.062-4.135-4.884-9.798-4.884-19.863c0-10.064,2.823-15.728,4.884-19.862
	c1.633-3.276,2.618-5.253,2.618-10.24h21.57c0,10.064-2.823,15.728-4.884,19.862c-1.633,3.276-2.618,5.253-2.618,10.24
	s0.985,6.964,2.618,10.24c2.062,4.135,4.884,9.798,4.884,19.863s-2.823,15.728-4.884,19.863c-1.633,3.276-2.618,5.253-2.618,10.24
	c0,4.988,0.985,6.966,2.619,10.242c2.061,4.135,4.883,9.799,4.883,19.864s-2.823,15.729-4.883,19.864
	C188.055,403.034,187.07,405.012,187.07,410z"/>
<g>
	<path style="fill:#00B77C;" d="M299.044,400.712c-2.316-4.647-3.714-7.451-3.714-14.524c0-7.072,1.398-9.876,3.714-14.522
		c2.924-5.864,6.927-13.896,6.927-28.17H275.38c0,7.072-1.398,9.876-3.714,14.522c-2.924,5.864-6.927,13.896-6.927,28.17
		c0,9.755,1.87,16.592,3.987,21.816h33.626C301.265,405.178,300.087,402.803,299.044,400.712z"/>
	<path style="fill:#00B77C;" d="M362.5,281.909c0-9.185-1.659-15.777-3.62-20.878h-33.626c0.981,2.421,2.014,4.497,2.94,6.354
		c2.316,4.647,3.714,7.451,3.714,14.524c0,7.072-1.398,9.877-3.714,14.523c-2.924,5.865-6.927,13.896-6.927,28.17
		c0,14.275,4.003,22.308,6.926,28.173c2.317,4.647,3.715,7.452,3.715,14.526s-1.398,9.879-3.715,14.526
		c-2.923,5.865-6.926,13.897-6.926,28.173h30.592c0-7.074,1.398-9.879,3.715-14.526c2.923-5.865,6.926-13.897,6.926-28.173
		s-4.003-22.308-6.926-28.173c-2.317-4.647-3.715-7.452-3.715-14.526c0-7.072,1.398-9.877,3.714-14.523
		C358.497,304.215,362.5,296.183,362.5,281.909z"/>
</g>
<path style="fill:#DE1F4B;" d="M317,273.333c-18.084,0-34.062,11.234-43.745,19.953c-6.044-9.531-20.442-16.841-38.255-19.165
	v58.423c17.813-2.324,32.211-9.634,38.255-19.165c9.684,8.72,25.661,19.953,43.745,19.953c29.547,0,53.5-13.431,53.5-30
	S346.547,273.333,317,273.333z"/>
<path style="fill:#B70E38;" d="M235,302.333v30.211c17.813-2.324,32.211-9.634,38.255-19.165
	c9.684,8.72,25.661,19.953,43.745,19.953c29.547,0,53.5-13.431,53.5-30c0-0.335-0.026-0.667-0.045-1H235V302.333z"/>
<circle style="fill:#333333;" cx="350.08" cy="300.08" r="6.75"/>
<path style="fill:#1A1A1A;" d="M343.726,302.333c0.928,2.62,3.42,4.5,6.358,4.5s5.43-1.88,6.358-4.5H343.726z"/>
<g>
</g>
<g>
</g>
<g>
</g>
<g>
</g>
<g>
</g>
<g>
</g>
<g>
</g>
<g>
</g>
<g>
</g>
<g>
</g>
<g>
</g>
<g>
</g>
<g>
</g>
<g>
</g>
<g>
</g>
</svg>
