<?xml version="1.0" encoding="iso-8859-1"?>
<!-- Generator: Adobe Illustrator 19.0.0, SVG Export Plug-In . SVG Version: 6.00 Build 0)  -->
<svg version="1.1" id="Capa_1" xmlns="http://www.w3.org/2000/svg" xmlns:xlink="http://www.w3.org/1999/xlink" x="0px" y="0px"
	 viewBox="0 0 512 512" style="enable-background:new 0 0 512 512;" xml:space="preserve">
<circle style="fill:#91F3FF;" cx="256" cy="256" r="256"/>
<path style="fill:#00ECFF;" d="M512,256c0-4.3-0.11-8.574-0.32-12.821l-78.922-78.923l-8.651,18.176l-72.42-72.42l-34.489,191.573
	L444.65,429.037C486.467,383.471,512,322.721,512,256z"/>
<path style="fill:#AB6A50;" d="M256,512c114.967,0,212.23-75.786,244.565-180.123l-20.931-35.363l7.368-51.187l-41.42-30.971
	l-12.824-50.101l-50.101-12.824l-30.97-41.42l-51.188,7.367L256,91.04l-44.499,26.339l-51.187-7.368l-30.97,41.42l-50.101,12.823
	l-12.824,50.101l-41.42,30.97l7.367,51.188l-20.931,35.363C43.77,436.214,141.033,512,256,512z"/>
<path style="fill:#854830;" d="M479.634,296.514l7.368-51.187l-41.42-30.971l-12.824-50.101l-50.101-12.824l-30.97-41.42
	l-51.188,7.367L256,91.04l-0.048,0.028V512c0.016,0,0.032,0,0.048,0c114.967,0,212.23-75.786,244.565-180.123L479.634,296.514z"/>
<path style="fill:#E4AB47;" d="M256,401L115.522,251l0,0c77.584-77.584,203.372-77.584,280.956,0l0,0L256,401z"/>
<path style="fill:#D59134;" d="M396.479,251L396.479,251c-38.804-38.804-89.667-58.2-140.526-58.188v208.137L256,401L396.479,251z"
	/>
<circle style="fill:#333333;" cx="256" cy="398.67" r="21"/>
<path style="fill:#1A1A1A;" d="M256,377.667c-0.016,0-0.031,0.002-0.048,0.002v41.995c0.016,0,0.031,0.002,0.048,0.002
	c11.598,0,21-9.402,21-21C277,387.069,267.598,377.667,256,377.667z"/>
<circle style="fill:#4D4D4D;" cx="199.74" cy="281.67" r="12.18"/>
<circle style="fill:#333333;" cx="312.26" cy="281.67" r="12.18"/>
<g>
</g>
<g>
</g>
<g>
</g>
<g>
</g>
<g>
</g>
<g>
</g>
<g>
</g>
<g>
</g>
<g>
</g>
<g>
</g>
<g>
</g>
<g>
</g>
<g>
</g>
<g>
</g>
<g>
</g>
</svg>
