<?xml version="1.0" encoding="iso-8859-1"?>
<!-- Generator: Adobe Illustrator 19.0.0, SVG Export Plug-In . SVG Version: 6.00 Build 0)  -->
<svg version="1.1" id="Capa_1" xmlns="http://www.w3.org/2000/svg" xmlns:xlink="http://www.w3.org/1999/xlink" x="0px" y="0px"
	 viewBox="0 0 512 512" style="enable-background:new 0 0 512 512;" xml:space="preserve">
<circle style="fill:#17ACE8;" cx="256" cy="256" r="256"/>
<path style="fill:#136EF1;" d="M508.861,296.13L387.393,174.662l-33.266-7.607l-36.711-36.697L223.656,118l-40.43,49.055L118,394
	l117.151,117.151C242.029,511.706,248.98,512,256,512C383.731,512,489.601,418.45,508.861,296.13z"/>
<path style="fill:#57555C;" d="M288.344,118h-64.688c-22.317,0-40.43,18.112-40.43,40.43v24.797h145.547V158.43
	C328.773,136.112,310.661,118,288.344,118z M312.602,167.055H199.398v-8.625c0-13.423,10.835-24.258,24.258-24.258h64.688
	c13.423,0,24.258,10.835,24.258,24.258V167.055z"/>
<path style="fill:#3C3A41;" d="M328.773,158.43v24.797H256v-16.172h56.602v-8.625c0-13.423-10.835-24.258-24.258-24.258H256V118
	h32.344C310.661,118,328.773,136.112,328.773,158.43z"/>
<path style="fill:#E5E5E5;" d="M394,191.313v24.258l-20.861,16.172H132.231L118,215.57v-24.258
	c0-13.423,10.835-24.258,24.258-24.258h227.484C383.165,167.055,394,177.89,394,191.313z"/>
<path style="fill:#C8C6CD;" d="M394,191.313v24.258l-20.861,16.172H256v-64.688h113.742C383.165,167.055,394,177.89,394,191.313z"/>
<path style="fill:#FD3018;" d="M118,215.57V394h276V215.57H118z"/>
<rect x="256" y="215.57" style="fill:#E61E14;" width="138" height="178.43"/>
<path style="fill:#E5E5E5;" d="M280.258,280.258v-32.344h-48.516v32.344h-32.344v48.516h32.344v32.344h48.516v-32.344h32.344
	v-48.516H280.258z"/>
<polygon style="fill:#C8C6CD;" points="280.258,280.258 312.602,280.258 312.602,328.773 280.258,328.773 280.258,361.117 
	256,361.117 256,247.914 280.258,247.914 "/>
<g>
</g>
<g>
</g>
<g>
</g>
<g>
</g>
<g>
</g>
<g>
</g>
<g>
</g>
<g>
</g>
<g>
</g>
<g>
</g>
<g>
</g>
<g>
</g>
<g>
</g>
<g>
</g>
<g>
</g>
</svg>
