<?xml version="1.0" encoding="iso-8859-1"?>
<!-- Generator: Adobe Illustrator 19.0.0, SVG Export Plug-In . SVG Version: 6.00 Build 0)  -->
<svg version="1.1" id="Capa_1" xmlns="http://www.w3.org/2000/svg" xmlns:xlink="http://www.w3.org/1999/xlink" x="0px" y="0px"
	 viewBox="0 0 512 512" style="enable-background:new 0 0 512 512;" xml:space="preserve">
<circle style="fill:#DE1F4B;" cx="256" cy="256" r="256"/>
<path style="fill:#B70E38;" d="M512,256c0-7.069-0.299-14.067-0.861-20.992L435,158.87L166.694,426.348l85.605,85.605
	c1.233,0.018,2.463,0.047,3.7,0.047C397.385,512,512,397.385,512,256z"/>
<path style="fill:#E0E0E0;" d="M348.611,418.966c-3.677,18.706-41.464,34.519-92.611,34.519s-88.935-15.812-92.611-34.519
	c-12.061-61.364-92.516-226.179-92.516-226.179l370.129,0.231C441.002,193.019,360.672,357.602,348.611,418.966z"/>
<ellipse style="fill:#FFFFFF;" cx="256" cy="180.39" rx="188.05" ry="70.09"/>
<path style="fill:#E0E0E0;" d="M256,110.303c-0.016,0-0.032,0-0.048,0v140.18c0.016,0,0.032,0,0.048,0
	c103.856,0,188.047-31.38,188.047-70.09C444.047,141.684,359.856,110.303,256,110.303z"/>
<path style="fill:#BA7420;" d="M157.643,252.185L157.643,252.185c-16.774,0-30.372-13.598-30.372-30.372v-58.934
	c0-33.548,27.196-60.744,60.744-60.744l0,0v119.678C188.015,238.587,174.417,252.185,157.643,252.185z"/>
<path style="fill:#965B1B;" d="M354.357,252.185L354.357,252.185c16.774,0,30.372-13.598,30.372-30.372v-58.934
	c0-33.548-27.196-60.744-60.744-60.744l0,0v119.678C323.985,238.587,337.583,252.185,354.357,252.185z"/>
<path style="fill:#D59134;" d="M256,325.266L256,325.266c-49.322,0-89.306-39.984-89.306-89.306v-79.92
	c0-49.322,39.984-89.306,89.306-89.306l0,0c49.322,0,89.306,39.984,89.306,89.306v79.92
	C345.306,285.282,305.322,325.266,256,325.266z"/>
<path style="fill:#B77B34;" d="M256,66.734L256,66.734c-0.016,0-0.032,0.001-0.048,0.001v258.529c0.016,0,0.032,0.001,0.048,0.001
	l0,0c49.322,0,89.306-39.984,89.306-89.306v-79.92C345.306,106.718,305.322,66.734,256,66.734z"/>
<path style="fill:#4D4D4D;" d="M271.386,205.479h-30.771c-11.444,0-17.175,13.836-9.083,21.928l15.386,15.386
	c0.653,0.653,1.361,1.216,2.105,1.699v16.016h13.954v-16.016c0.745-0.483,1.452-1.046,2.105-1.7l15.386-15.385
	C288.56,219.315,282.83,205.479,271.386,205.479z"/>
<path style="fill:#333333;" d="M271.386,205.479h-15.433v28.594v12.479v13.956h7.025v-16.016c0.745-0.483,1.452-1.047,2.105-1.7
	l15.386-15.385C288.56,219.315,282.83,205.479,271.386,205.479z"/>
<g>
	<path style="fill:#4D4D4D;" d="M240.964,282.218c-12.138,0-22.013-9.875-22.013-22.014h13.954c0,4.444,3.615,8.059,8.059,8.059
		s8.059-3.615,8.059-8.059h13.954C262.977,272.343,253.102,282.218,240.964,282.218z"/>
	<path style="fill:#4D4D4D;" d="M271.036,282.218c-12.139,0-22.014-9.875-22.014-22.014h13.954c0,4.444,3.615,8.059,8.059,8.059
		c4.443,0,8.059-3.615,8.059-8.059h13.954C293.049,272.343,283.174,282.218,271.036,282.218z"/>
</g>
<path style="fill:#E4AB47;" d="M166.694,156.04v40.896c7.08,11.199,19.563,18.642,33.791,18.642c22.069,0,39.96-17.89,39.96-39.96
	c0-17.086-10.725-73.935-25.809-98.741C186.141,91.797,166.694,121.646,166.694,156.04z"/>
<path style="fill:#D59134;" d="M345.306,156.04v40.896c-7.08,11.199-19.563,18.642-33.791,18.642c-22.069,0-39.96-17.89-39.96-39.96
	c0-17.086,10.725-73.935,25.809-98.741C325.859,91.797,345.306,121.646,345.306,156.04z"/>
<circle style="fill:#4D4D4D;" cx="199.74" cy="175.21" r="12.18"/>
<circle style="fill:#333333;" cx="312.26" cy="175.21" r="12.18"/>
<path style="fill:#E0E0E0;" d="M256,250.484c-92.509,0-169.415-24.898-185.116-57.696h-0.011c0,0,80.455,164.815,92.516,226.179
	c3.677,18.706,41.463,34.519,92.611,34.519s88.935-15.813,92.611-34.519c12.061-61.365,92.391-225.948,92.391-225.948h-0.004
	C425.046,225.702,348.29,250.484,256,250.484z"/>
<path style="fill:#C0C0C0;" d="M440.998,193.019C425.046,225.702,348.29,250.483,256,250.483c-0.016,0-0.032,0-0.048,0v203.001
	c0.016,0,0.032,0,0.048,0c51.148,0,88.935-15.813,92.611-34.519c12.061-61.365,92.391-225.948,92.391-225.948h-0.004V193.019z"/>
<g>
</g>
<g>
</g>
<g>
</g>
<g>
</g>
<g>
</g>
<g>
</g>
<g>
</g>
<g>
</g>
<g>
</g>
<g>
</g>
<g>
</g>
<g>
</g>
<g>
</g>
<g>
</g>
<g>
</g>
</svg>
