<?xml version="1.0" encoding="iso-8859-1"?>
<!-- Generator: Adobe Illustrator 19.0.0, SVG Export Plug-In . SVG Version: 6.00 Build 0)  -->
<svg version="1.1" id="Capa_1" xmlns="http://www.w3.org/2000/svg" xmlns:xlink="http://www.w3.org/1999/xlink" x="0px" y="0px"
	 viewBox="0 0 512 512" style="enable-background:new 0 0 512 512;" xml:space="preserve">
<circle style="fill:#91F3FF;" cx="256" cy="256" r="256"/>
<path style="fill:#00ECFF;" d="M506.668,308.193L280.357,81.882l-39.8-4.132l4.91,51.694l-81.181,43.127l-22.838,211.253
	l-20.781,13.842l113.387,113.387C241.289,511.668,248.605,512,256,512C379.499,512,482.565,424.548,506.668,308.193z"/>
<path style="fill:#D59134;" d="M256,125.167c-15.715,0-28.5-12.785-28.5-28.5s12.785-28.5,28.5-28.5s28.5,12.785,28.5,28.5
	S271.715,125.167,256,125.167z M256,87.167c-5.238,0-9.5,4.262-9.5,9.5s4.262,9.5,9.5,9.5s9.5-4.262,9.5-9.5
	S261.238,87.167,256,87.167z"/>
<path style="fill:#AA712D;" d="M256,68.167c-0.016,0-0.032,0.001-0.048,0.001v19.001c0.016,0,0.032-0.002,0.048-0.002
	c5.238,0,9.5,4.262,9.5,9.5s-4.262,9.5-9.5,9.5c-0.016,0-0.032-0.002-0.048-0.002v19.001c0.016,0,0.032,0.001,0.048,0.001
	c15.715,0,28.5-12.785,28.5-28.5S271.715,68.167,256,68.167z"/>
<path style="fill:#854830;" d="M376.333,394H135.667V233c0-66.352,53.981-120.333,120.333-120.333S376.333,166.648,376.333,233V394z
	 M161.667,368h188.667V233c0-52.016-42.318-94.333-94.333-94.333S161.667,180.984,161.667,233V368z"/>
<path style="fill:#5D2307;" d="M376.333,233c0-66.352-53.981-120.333-120.333-120.333c-0.016,0-0.032,0-0.048,0v26
	c0.016,0,0.032,0,0.048,0c52.016,0,94.333,42.318,94.333,94.333v135h-94.381v26h120.381V233z"/>
<rect x="120.67" y="365" style="fill:#AB6A50;" width="270.67" height="32.667"/>
<rect x="255.95" y="365" style="fill:#854830;" width="135.38" height="32.667"/>
<rect x="245.83" y="111.67" style="fill:#D59134;" width="19" height="32"/>
<rect x="255.95" y="111.67" style="fill:#AA712D;" width="8.881" height="32"/>
<g>
</g>
<g>
</g>
<g>
</g>
<g>
</g>
<g>
</g>
<g>
</g>
<g>
</g>
<g>
</g>
<g>
</g>
<g>
</g>
<g>
</g>
<g>
</g>
<g>
</g>
<g>
</g>
<g>
</g>
</svg>
