<?xml version="1.0" encoding="iso-8859-1"?>
<!-- Generator: Adobe Illustrator 19.0.0, SVG Export Plug-In . SVG Version: 6.00 Build 0)  -->
<svg version="1.1" id="Capa_1" xmlns="http://www.w3.org/2000/svg" xmlns:xlink="http://www.w3.org/1999/xlink" x="0px" y="0px"
	 viewBox="0 0 512 512" style="enable-background:new 0 0 512 512;" xml:space="preserve">
<circle style="fill:#FEDB41;" cx="256" cy="256" r="256"/>
<path style="fill:#FEA832;" d="M499.981,333.696L286.68,120.395h-61.36l-0.056,61.301L164,229l-20.667,157.578L126,403.911
	l107.054,107.054C240.615,511.637,248.264,512,256,512C370.296,512,467.083,437.092,499.981,333.696z"/>
<g>
	<path style="fill:#57555C;" d="M299.333,151.075H282c0-6.934-2.773-13.521-7.627-18.373c-4.853-4.854-11.613-7.453-18.373-7.453
		s-13.521,2.599-18.373,7.453c-10.227,10.054-10.227,26.693,0,36.747c4.853,4.854,11.44,8.782,18.373,8.782v16.178
		c-11.613,0-22.533-4.507-30.68-12.653c-16.813-16.987-16.986-44.373,0-61.361c8.147-8.146,19.413-12.306,30.68-12.306
		s22.533,4.16,30.68,12.306C294.827,128.542,299.333,139.462,299.333,151.075z"/>
	<path style="fill:#57555C;" d="M256,177.422c-62.054,0-112.667,50.613-112.667,112.667v113.822h225.333V290.089
		C368.667,228.035,318.054,177.422,256,177.422z M212.667,386.578h-52V334h52V386.578z M212.667,316.667h-52v-26.578
		c0-9.014,1.387-17.68,3.64-26h48.36V316.667z M212.667,220.756v26H171.24c9.707-19.066,25.654-34.32,45.067-43.16
		C214.054,208.796,212.667,214.689,212.667,220.756z M282,386.578h-52V334h52V386.578z M282,316.667h-52v-52.578h52V316.667z
		 M282,246.756h-52v-26c0-14.387,11.613-26,26-26s26,11.613,26,26V246.756z M340.76,246.756h-41.427v-26
		c0-6.066-1.387-11.96-3.64-17.16C315.106,212.436,331.054,227.689,340.76,246.756z M351.333,386.578h-52V334h52V386.578z
		 M351.333,316.667h-52v-52.578h48.36c2.253,8.32,3.64,16.986,3.64,26V316.667z"/>
</g>
<g>
	<path style="fill:#3C3A41;" d="M274.373,132.702c-4.853-4.854-11.613-7.453-18.373-7.453v-17.16c11.267,0,22.533,4.16,30.68,12.306
		c8.146,8.147,12.653,19.067,12.653,30.68H282C282,144.141,279.227,137.555,274.373,132.702z"/>
	<path style="fill:#3C3A41;" d="M256,177.422v17.333c14.387,0,26,11.613,26,26v26h-26v17.333h26v52.578h-26V334h26v52.578h-26
		v17.333h112.667V290.089C368.667,228.035,318.054,177.422,256,177.422z M340.76,246.756h-41.427v-26
		c0-6.066-1.387-11.96-3.64-17.16C315.106,212.436,331.054,227.689,340.76,246.756z M351.333,386.578h-52V334h52V386.578z
		 M351.333,316.667h-52v-52.578h48.36c2.253,8.32,3.64,16.986,3.64,26V316.667z"/>
</g>
<rect x="126" y="386.58" style="fill:#896748;" width="260" height="17.333"/>
<rect x="256" y="386.58" style="fill:#73553A;" width="130" height="17.333"/>
<g>
</g>
<g>
</g>
<g>
</g>
<g>
</g>
<g>
</g>
<g>
</g>
<g>
</g>
<g>
</g>
<g>
</g>
<g>
</g>
<g>
</g>
<g>
</g>
<g>
</g>
<g>
</g>
<g>
</g>
</svg>
