<?xml version="1.0" encoding="iso-8859-1"?>
<!-- Generator: Adobe Illustrator 19.0.0, SVG Export Plug-In . SVG Version: 6.00 Build 0)  -->
<svg version="1.1" id="Capa_1" xmlns="http://www.w3.org/2000/svg" xmlns:xlink="http://www.w3.org/1999/xlink" x="0px" y="0px"
	 viewBox="0 0 512.001 512.001" style="enable-background:new 0 0 512.001 512.001;" xml:space="preserve">
<circle style="fill:#DE1F4B;" cx="256" cy="256" r="256"/>
<path style="fill:#B70E38;" d="M512,256c0-2.396-0.039-4.781-0.105-7.161L355.618,92.561L135,229.667l76.998,76.999L135,317.667
	l44.688,44.688l-61.77,22.847L244.446,511.73c3.832,0.17,7.681,0.271,11.555,0.271C397.385,512,512,397.385,512,256z"/>
<path style="fill:#AEF7FF;" d="M322.979,374.217H189.021c-25.342,0-45.886-20.544-45.886-45.886V124.805
	c0-25.342,20.544-45.886,45.886-45.886h133.957c25.342,0,45.886,20.544,45.886,45.886v203.526
	C368.865,353.673,348.322,374.217,322.979,374.217z"/>
<g>
	<path style="fill:#91F3FF;" d="M322.979,78.919h-67.026v295.297h67.026c25.342,0,45.886-20.543,45.886-45.886V124.805
		C368.865,99.463,348.322,78.919,322.979,78.919z"/>
	<path style="fill:#91F3FF;" d="M143.135,169.211v159.12c0,25.342,20.544,45.886,45.886,45.886h133.957
		c25.342,0,45.886-20.544,45.886-45.886v-159.12H143.135z"/>
</g>
<path style="fill:#00ECFF;" d="M255.952,169.211v205.006h67.026c25.342,0,45.886-20.543,45.886-45.886v-159.12H255.952z"/>
<path style="fill:#4B96EF;" d="M359.613,403.081H152.387c-23.298,0-42.185-18.887-42.185-42.185l0,0h291.597l0,0
	C401.799,384.194,382.912,403.081,359.613,403.081z"/>
<path style="fill:#347FEA;" d="M255.952,360.896v42.185h103.661c23.298,0,42.185-18.887,42.185-42.185l0,0H255.952z"/>
<rect x="135" y="209.67" style="fill:#AEF7FF;" width="240" height="20"/>
<rect x="255.95" y="209.67" style="fill:#91F3FF;" width="119.05" height="20"/>
<rect x="135" y="297.67" style="fill:#AEF7FF;" width="240" height="20"/>
<rect x="255.95" y="297.67" style="fill:#91F3FF;" width="119.05" height="20"/>
<g>
</g>
<g>
</g>
<g>
</g>
<g>
</g>
<g>
</g>
<g>
</g>
<g>
</g>
<g>
</g>
<g>
</g>
<g>
</g>
<g>
</g>
<g>
</g>
<g>
</g>
<g>
</g>
<g>
</g>
</svg>
