<?xml version="1.0" encoding="iso-8859-1"?>
<!-- Generator: Adobe Illustrator 19.0.0, SVG Export Plug-In . SVG Version: 6.00 Build 0)  -->
<svg version="1.1" id="Capa_1" xmlns="http://www.w3.org/2000/svg" xmlns:xlink="http://www.w3.org/1999/xlink" x="0px" y="0px"
	 viewBox="0 0 512 512" style="enable-background:new 0 0 512 512;" xml:space="preserve">
<circle style="fill:#005ED1;" cx="256" cy="256" r="256"/>
<path style="fill:#053D8A;" d="M512,256c0-23.007-3.053-45.298-8.744-66.508l-74.131-74.236C417.032,102.768,400.093,95,381.336,95
	c-31.707,0-58.215,22.188-64.891,51.879c-7.83-1.442-15.892-2.201-24.123-2.201h-72.644c-3.814,0-7.59,0.17-11.326,0.488
	l-29.57-29.554C166.672,102.916,149.597,95,130.664,95c-36.743,0-66.53,29.786-66.53,66.53c0,17.691,6.911,33.761,18.174,45.675
	l15.756,15.773c-7.767,16.91-12.112,35.683-12.112,55.425v14.818c0,38.064,16.121,72.544,41.869,96.957l121.74,121.74
	c2.14,0.053,4.286,0.082,6.439,0.082C397.385,512,512,397.385,512,256z"/>
<circle style="fill:#56545B;" cx="130.66" cy="161.53" r="66.53"/>
<circle style="fill:#0F0F11;" cx="381.34" cy="161.53" r="66.53"/>
<path style="fill:#FFFFFF;" d="M292.322,426.947h-72.644c-73.549,0-133.726-60.177-133.726-133.726v-14.818
	c0-73.549,60.177-133.726,133.726-133.726h72.644c73.549,0,133.726,60.177,133.726,133.726v14.818
	C426.047,366.77,365.871,426.947,292.322,426.947z"/>
<path style="fill:#FDF3CA;" d="M426.05,278.4v14.82c0,73.55-60.18,133.73-133.73,133.73H256V144.68h36.32
	C365.87,144.68,426.05,204.85,426.05,278.4z"/>
<path style="fill:#C8C5CB;" d="M269.459,405.992h-26.918c-29.596,0-53.811-24.215-53.811-53.811v-7.142
	c0-29.596,24.215-53.811,53.811-53.811h26.918c29.596,0,53.811,24.215,53.811,53.811v7.142
	C323.27,381.777,299.055,405.992,269.459,405.992z"/>
<path style="fill:#ACABB1;" d="M323.271,347.905v1.411c0,31.176-25.509,56.675-56.675,56.675H256V291.23h10.596
	C297.761,291.23,323.271,316.729,323.271,347.905z"/>
<rect x="216.01" y="356.15" style="fill:#56545B;" width="79.971" height="15.02"/>
<rect x="256" y="356.16" style="fill:#0F0F11;" width="39.987" height="15.02"/>
<path style="fill:#56545B;" d="M272.528,285.813h-16.526h-0.005h-16.526c-7.938,0-12.685,8.915-8.173,15.445
	c6.351,9.193,15.354,19.081,24.698,19.084l0,0c0,0,0.002,0,0.003,0c0.001,0,0.002,0,0.002,0h0.001
	c9.344-0.004,18.347-9.892,24.698-19.084C285.213,294.727,280.466,285.813,272.528,285.813z"/>
<path style="fill:#0F0F11;" d="M280.697,301.256c-3.178,4.596-7.006,9.363-11.218,12.988c-4.212,3.626-8.808,6.1-13.479,6.1v-34.529
	h16.529c4.031,0,7.241,2.303,8.829,5.428C282.904,294.261,282.915,298.047,280.697,301.256z"/>
<g>
	<path style="fill:#56545B;" d="M182.949,209.106c-21.277,0-38.526,17.249-38.526,38.526c0,21.278,17.249,38.526,38.526,38.526
		s38.526-17.249,38.526-38.526S204.227,209.106,182.949,209.106z M185.863,270.836c-11.205,0-20.289-9.084-20.289-20.289
		c0-11.205,9.084-20.289,20.289-20.289s20.289,9.084,20.289,20.289C206.152,261.752,197.069,270.836,185.863,270.836z"/>
	<circle style="fill:#56545B;" cx="187.59" cy="253.03" r="10.303"/>
</g>
<g>
	<path style="fill:#39373E;" d="M290.525,247.632c0,21.278,17.249,38.526,38.526,38.526s38.526-17.249,38.526-38.526
		s-17.249-38.526-38.526-38.526C307.773,209.106,290.525,226.355,290.525,247.632z M305.848,250.547
		c0-11.205,9.084-20.289,20.289-20.289s20.289,9.084,20.289,20.289c0,11.205-9.084,20.289-20.289,20.289
		C314.931,270.836,305.848,261.752,305.848,250.547z"/>
	<circle style="fill:#39373E;" cx="324.41" cy="253.03" r="10.303"/>
</g>
<g>
</g>
<g>
</g>
<g>
</g>
<g>
</g>
<g>
</g>
<g>
</g>
<g>
</g>
<g>
</g>
<g>
</g>
<g>
</g>
<g>
</g>
<g>
</g>
<g>
</g>
<g>
</g>
<g>
</g>
</svg>
