<?xml version="1.0" encoding="iso-8859-1"?>
<!-- Generator: Adobe Illustrator 19.0.0, SVG Export Plug-In . SVG Version: 6.00 Build 0)  -->
<svg version="1.1" id="Capa_1" xmlns="http://www.w3.org/2000/svg" xmlns:xlink="http://www.w3.org/1999/xlink" x="0px" y="0px"
	 viewBox="0 0 512.001 512.001" style="enable-background:new 0 0 512.001 512.001;" xml:space="preserve">
<circle style="fill:#FFE570;" cx="256.001" cy="256" r="256"/>
<path style="fill:#FDB500;" d="M512,256c0-15.688-1.418-31.043-4.12-45.952L358.913,61.084c-2.618-2.759-6.38-4.398-10.477-4.174
	c-7.42,0.406-13.106,6.749-12.7,14.169c0.182,3.338,1.57,6.319,3.716,8.554l17.809,17.588c0.29,2.181,0.393,4.48,0.215,6.875
	c-0.512,6.872-3.184,13.525-7.963,19.888c-27.051-14.099-61.199-9.797-83.913,12.916c-0.573,0.573-1.115,1.164-1.665,1.751
	c-42.551-22.764-95.737-22.881-139.733,4.323c-65.47,40.48-85.909,126.215-45.89,191.856c0,0,127,126.981,177.175,177.164
	c0.172,0,0.342,0.007,0.514,0.007C397.386,512,512,397.385,512,256z"/>
<path style="fill:#0F0F11;" d="M434.391,141.395c-3.785-0.207-7.284,1.177-9.864,3.562c-5.807-3.233-14.616-6.659-25.073-5.908
	c-13.02,0.935-25.134,8.049-36.008,21.14l5.761,4.783c9.495-11.432,19.822-17.639,30.698-18.449
	c8.511-0.633,15.854,2.199,20.739,4.873c-0.228,0.866-0.372,1.768-0.423,2.697c-0.405,7.42,5.281,13.764,12.7,14.169
	c7.42,0.406,13.763-5.28,14.169-12.7C447.497,148.145,441.811,141.801,434.391,141.395z"/>
<g>
	<path style="fill:#39373E;" d="M343.81,140.555c13.092-10.873,20.205-22.988,21.14-36.008
		c1.336-18.595-10.536-31.978-11.043-32.538l-5.565,5.01c0.104,0.115,10.277,11.697,9.132,27.077
		c-0.81,10.876-7.017,21.204-18.449,30.698L343.81,140.555z"/>
	<circle style="fill:#39373E;" cx="349.171" cy="70.34" r="13.455"/>
</g>
<circle style="fill:#56545B;" cx="316.351" cy="187.65" r="71.77"/>
<g>
	<path style="fill:#39373E;" d="M367.1,238.399c-6.611,6.611-14.192,11.66-22.281,15.153c-26.213,11.321-57.799,6.265-79.217-15.153
		L367.1,136.901C395.13,164.931,395.13,210.37,367.1,238.399z"/>
	
		<ellipse transform="matrix(-0.7071 0.7071 -0.7071 -0.7071 576.4302 329.1722)" style="fill:#39373E;" cx="220.041" cy="283.969" rx="136.189" ry="112.619"/>
</g>
<path style="fill:#0F0F11;" d="M299.677,363.593c-53.181,53.181-131.953,60.648-175.935,16.666L316.351,187.65
	c17.656,17.656,27.026,40.927,28.468,65.902C346.961,290.768,331.511,331.759,299.677,363.593z"/>
<path style="fill:#FB233B;" d="M124.202,142.974c-65.47,40.48-85.909,126.214-45.89,191.856l238.04-147.18
	C275.513,122.515,189.681,102.488,124.202,142.974z"/>
<g>
	<circle style="fill:#39373E;" cx="147.991" cy="181.44" r="19.09"/>
	<circle style="fill:#39373E;" cx="223.931" cy="194.54" r="19.09"/>
	<circle style="fill:#39373E;" cx="125.781" cy="255.23" r="19.09"/>
</g>
<path style="fill:#C70C24;" d="M361.027,379.799c-40.48,65.47-126.214,85.909-191.856,45.89l147.18-238.04
	C381.486,228.488,401.513,314.32,361.027,379.799z"/>
<g>
	<circle style="fill:#0F0F11;" cx="322.561" cy="356.01" r="19.09"/>
	<circle style="fill:#0F0F11;" cx="309.461" cy="280.07" r="19.09"/>
	<circle style="fill:#0F0F11;" cx="248.771" cy="378.22" r="19.09"/>
</g>
<g>
</g>
<g>
</g>
<g>
</g>
<g>
</g>
<g>
</g>
<g>
</g>
<g>
</g>
<g>
</g>
<g>
</g>
<g>
</g>
<g>
</g>
<g>
</g>
<g>
</g>
<g>
</g>
<g>
</g>
</svg>
