<?xml version="1.0" encoding="iso-8859-1"?>
<!-- Generator: Adobe Illustrator 19.0.0, SVG Export Plug-In . SVG Version: 6.00 Build 0)  -->
<svg version="1.1" id="Capa_1" xmlns="http://www.w3.org/2000/svg" xmlns:xlink="http://www.w3.org/1999/xlink" x="0px" y="0px"
	 viewBox="0 0 512 512" style="enable-background:new 0 0 512 512;" xml:space="preserve">
<circle style="fill:#91F3FF;" cx="256" cy="256" r="256"/>
<path style="fill:#00ECFF;" d="M511.789,265.962L348.782,102.955l-71.996,261.878L387.58,475.627
	C459.448,432.478,508.378,355.057,511.789,265.962z"/>
<path style="fill:#854830;" d="M256,270c-92.727,0-173.956,47.481-219.013,118.618C81.87,462.582,163.163,512,256,512
	s174.13-49.418,219.013-123.382C429.956,317.481,348.727,270,256,270z"/>
<path style="fill:#5D2307;" d="M256,270c-0.016,0-0.032,0-0.048,0v242c0.016,0,0.032,0,0.048,0
	c92.837,0,174.13-49.418,219.013-123.382C429.956,317.481,348.727,270,256,270z"/>
<path style="fill:#00DE7E;" d="M384.391,191.697c0-70.908-57.483-128.391-128.391-128.391s-128.391,57.483-128.391,128.391V419.67
	h256.782V191.697z"/>
<path style="fill:#00B77C;" d="M384.391,191.697c0-70.908-57.483-128.391-128.391-128.391c-0.016,0-0.032,0-0.048,0V419.67H384.39
	V191.697H384.391z"/>
<path style="fill:#4D4D4D;" d="M256,242c-17.397,0-31.55-14.153-31.55-31.55h20c0,6.369,5.182,11.55,11.55,11.55
	c6.369,0,11.551-5.182,11.551-11.55h20C287.551,227.847,273.397,242,256,242z"/>
<path style="fill:#333333;" d="M267.551,210.45c0,6.369-5.182,11.55-11.551,11.55c-0.016,0-0.031-0.002-0.048-0.002v20.001
	c0.016,0,0.032,0.001,0.048,0.001c17.397,0,31.551-14.153,31.551-31.55H267.551z"/>
<circle style="fill:#4D4D4D;" cx="197.04" cy="182.59" r="14.365"/>
<circle style="fill:#333333;" cx="314.96" cy="182.59" r="14.365"/>
<path style="fill:#AB6A50;" d="M256,512c67.986,0,129.779-26.505,175.618-69.742c-37.575-55.05-102.195-91.389-175.618-91.389
	s-138.043,36.339-175.618,91.389C126.221,485.495,188.014,512,256,512z"/>
<path style="fill:#854830;" d="M431.618,442.258c-37.575-55.05-102.195-91.389-175.618-91.389c-0.016,0-0.032,0-0.048,0V512
	c0.016,0,0.032,0,0.048,0C323.986,512,385.779,485.495,431.618,442.258z"/>
<g>
</g>
<g>
</g>
<g>
</g>
<g>
</g>
<g>
</g>
<g>
</g>
<g>
</g>
<g>
</g>
<g>
</g>
<g>
</g>
<g>
</g>
<g>
</g>
<g>
</g>
<g>
</g>
<g>
</g>
</svg>
