<?xml version="1.0" encoding="iso-8859-1"?>
<!-- Generator: Adobe Illustrator 19.0.0, SVG Export Plug-In . SVG Version: 6.00 Build 0)  -->
<svg version="1.1" id="Capa_1" xmlns="http://www.w3.org/2000/svg" xmlns:xlink="http://www.w3.org/1999/xlink" x="0px" y="0px"
	 viewBox="0 0 512 512" style="enable-background:new 0 0 512 512;" xml:space="preserve">
<circle style="fill:#FB233B;" cx="256" cy="256" r="256"/>
<path style="fill:#C70C24;" d="M512,256c0-5.434-0.19-10.823-0.523-16.173L272.173,0.523c-0.795-0.05-1.587-0.109-2.384-0.151
	c-0.322-0.017-0.644-0.036-0.967-0.052c-1.893-0.093-3.792-0.164-5.695-0.216c-0.41-0.011-0.82-0.019-1.23-0.029
	C259.936,0.03,257.972,0,256,0c-1.972,0-3.936,0.03-5.897,0.075c-0.41,0.009-0.821,0.018-1.23,0.029
	c-1.904,0.052-3.803,0.123-5.695,0.216c-0.323,0.016-0.644,0.035-0.967,0.052c-0.789,0.042-1.573,0.101-2.36,0.15V106.5h-3.427
	c0,0-75.423,16.186-75.423,146.601c0,90.021,20.886,137.644,46.541,160.793l94.054,94.054C421.226,486.441,512,381.823,512,256z"/>
<path style="fill:#FFFFFF;" d="M272.15,0.5V147h-32.3V0.5C245.19,0.17,250.58,0,256,0C261.42,0,266.81,0.17,272.15,0.5z"/>
<g>
	<path style="fill:#FDD9A8;" d="M272.15,0.5V147H256V0C261.42,0,266.81,0.17,272.15,0.5z"/>
	<path style="fill:#FDD9A8;" d="M275.577,106.5h-39.155c0,0-75.423,16.186-75.423,146.601C161,397.853,215,433,256,433
		s95-35.147,95-179.899C351,122.686,275.577,106.5,275.577,106.5z"/>
</g>
<path style="fill:#FDB551;" d="M256,106.5h19.577c0,0,75.423,16.186,75.423,146.601C351,397.853,297,433,256,433V106.5z"/>
<path style="fill:#FD990E;" d="M331.92,158.06l-166.99,47.25c1.7-9.57,3.91-18.24,6.47-26.07l147.52-41.75
	C323.45,143.25,327.87,150.05,331.92,158.06z"/>
<path style="fill:#CE7937;" d="M331.92,158.06L256,179.54V155.3l62.92-17.81C323.45,143.25,327.87,150.05,331.92,158.06z"/>
<path style="fill:#FD990E;" d="M349.35,221.35l-187.93,53.18c-0.28-6.86-0.42-14-0.42-21.43c0-0.9,0-1.8,0.01-2.7l184.65-52.26
	C347.2,205.31,348.46,213.03,349.35,221.35z"/>
<path style="fill:#CE7937;" d="M349.35,221.35L256,247.77v-24.25l89.66-25.38C347.2,205.31,348.46,213.03,349.35,221.35z"/>
<path style="fill:#FD990E;" d="M350.87,264.89c-0.18,8.6-0.56,16.78-1.13,24.57l-180.1,50.96c-1.67-7.15-3.13-14.81-4.34-23.02
	L350.87,264.89z"/>
<path style="fill:#CE7937;" d="M350.87,264.89c-0.18,8.6-0.56,16.78-1.13,24.57L256,315.98v-24.25L350.87,264.89z"/>
<path style="fill:#FD990E;" d="M343.52,335.19c-2.03,9.6-4.42,18.33-7.12,26.26L195.93,401.2c-4.47-5.88-8.7-12.74-12.56-20.69
	L343.52,335.19z"/>
<path style="fill:#CE7937;" d="M343.52,335.19c-2.03,9.6-4.42,18.33-7.12,26.26L256,384.2v-24.24L343.52,335.19z"/>
<g>
</g>
<g>
</g>
<g>
</g>
<g>
</g>
<g>
</g>
<g>
</g>
<g>
</g>
<g>
</g>
<g>
</g>
<g>
</g>
<g>
</g>
<g>
</g>
<g>
</g>
<g>
</g>
<g>
</g>
</svg>
