<?xml version="1.0" encoding="iso-8859-1"?>
<!-- Generator: Adobe Illustrator 19.0.0, SVG Export Plug-In . SVG Version: 6.00 Build 0)  -->
<svg version="1.1" id="Capa_1" xmlns="http://www.w3.org/2000/svg" xmlns:xlink="http://www.w3.org/1999/xlink" x="0px" y="0px"
	 viewBox="0 0 512 512" style="enable-background:new 0 0 512 512;" xml:space="preserve">
<circle style="fill:#FFE570;" cx="256" cy="256" r="256"/>
<path style="fill:#FDB500;" d="M512,256c0-3.49-0.09-6.959-0.228-10.415L356.241,90.054l-34.918,64.363L256,90.054l-35.181,64.847
	l-65.061-64.847L86.919,216.942l18.339,19.94l-42.734,78.77l64.365,64.723v2.962l128.658,128.657c0.152,0,0.302,0.006,0.454,0.006
	C397.385,512,512,397.385,512,256z"/>
<g>
	<rect x="126.89" y="302.17" style="fill:#CE7937;" width="57.739" height="81.16"/>
	<rect x="155.76" y="302.17" style="fill:#CE7937;" width="28.871" height="81.16"/>
</g>
<rect x="155.76" y="302.17" style="fill:#984B04;" width="28.871" height="81.16"/>
<polygon style="fill:#07A171;" points="155.758,143.797 62.523,315.652 155.758,315.652 248.992,315.652 "/>
<polygon style="fill:#00693C;" points="248.993,315.652 155.758,315.652 155.758,143.799 195.44,216.942 "/>
<polygon style="fill:#4BCE5C;" points="155.758,90.054 86.919,216.942 155.758,216.942 224.597,216.942 "/>
<polygon style="fill:#07A171;" points="224.596,216.942 155.758,216.942 155.758,90.051 "/>
<g>
	<rect x="327.37" y="302.17" style="fill:#CE7937;" width="57.739" height="81.16"/>
	<rect x="356.24" y="302.17" style="fill:#CE7937;" width="28.871" height="81.16"/>
</g>
<rect x="356.24" y="302.17" style="fill:#984B04;" width="28.871" height="81.16"/>
<polygon style="fill:#07A171;" points="356.241,143.797 263.007,315.652 356.241,315.652 449.476,315.652 "/>
<polygon style="fill:#00693C;" points="449.477,315.652 356.241,315.652 356.241,143.799 395.923,216.942 "/>
<polygon style="fill:#4BCE5C;" points="356.241,90.054 287.402,216.942 356.241,216.942 425.08,216.942 "/>
<polygon style="fill:#07A171;" points="425.08,216.942 356.241,216.942 356.241,90.051 "/>
<g>
	<rect x="227.13" y="302.17" style="fill:#CE7937;" width="57.739" height="81.16"/>
	<rect x="256" y="302.17" style="fill:#CE7937;" width="28.871" height="81.16"/>
</g>
<rect x="256" y="302.17" style="fill:#984B04;" width="28.871" height="81.16"/>
<polygon style="fill:#07A171;" points="255.999,143.797 162.765,315.652 255.999,315.652 349.234,315.652 "/>
<polygon style="fill:#00693C;" points="349.235,315.652 255.999,315.652 255.999,143.799 295.682,216.942 "/>
<polygon style="fill:#4BCE5C;" points="255.999,90.054 187.16,216.942 255.999,216.942 324.839,216.942 "/>
<polygon style="fill:#07A171;" points="324.838,216.942 255.999,216.942 255.999,90.051 "/>
<path style="fill:#4BCE5C;" d="M256,512c95.936,0,179.531-52.781,223.372-130.88H32.628C76.469,459.219,160.064,512,256,512z"/>
<g>
	<path style="fill:#07A171;" d="M479.37,381.12C435.53,459.22,351.94,512,256,512V381.12H479.37z"/>
	<rect x="106.68" y="403.86" style="fill:#07A171;" width="71.67" height="16.391"/>
	<rect x="160.33" y="447.06" style="fill:#07A171;" width="71.67" height="16.391"/>
</g>
<g>
	<rect x="273.57" y="447.06" style="fill:#4BCE5C;" width="57.44" height="16.391"/>
	<rect x="350.03" y="447.06" style="fill:#4BCE5C;" width="18.631" height="16.391"/>
	<rect x="337.65" y="403.86" style="fill:#4BCE5C;" width="71.67" height="16.391"/>
</g>
<g>
</g>
<g>
</g>
<g>
</g>
<g>
</g>
<g>
</g>
<g>
</g>
<g>
</g>
<g>
</g>
<g>
</g>
<g>
</g>
<g>
</g>
<g>
</g>
<g>
</g>
<g>
</g>
<g>
</g>
</svg>
