<?xml version="1.0" encoding="iso-8859-1"?>
<!-- Generator: Adobe Illustrator 19.0.0, SVG Export Plug-In . SVG Version: 6.00 Build 0)  -->
<svg version="1.1" id="Capa_1" xmlns="http://www.w3.org/2000/svg" xmlns:xlink="http://www.w3.org/1999/xlink" x="0px" y="0px"
	 viewBox="0 0 512 512" style="enable-background:new 0 0 512 512;" xml:space="preserve">
<circle style="fill:#91F3FF;" cx="256" cy="256" r="256"/>
<path style="fill:#00ECFF;" d="M512,256c0-34.143-6.701-66.715-18.831-96.498l-69.835-69.835l-36.83,3.836L378,85l-0.743,9.466
	l-211.131,21.993L134.667,85L32.934,130.333l0,0l177.404,177.403l-135.004,79.93l116.12,116.12C212.074,509.143,233.703,512,256,512
	C397.385,512,512,397.385,512,256z"/>
<rect x="75.33" y="148.33" style="fill:#AB6A50;" width="348" height="239.33"/>
<rect x="255.95" y="148.33" style="fill:#854830;" width="167.38" height="239.33"/>
<path style="fill:#E4AB47;" d="M329.301,321.691c0,40.483-32.818,11.414-73.301,11.414s-73.301,29.069-73.301-11.414
	S215.517,248.39,256,248.39S329.301,281.208,329.301,321.691z"/>
<path style="fill:#D59134;" d="M256,248.391c-0.016,0-0.032,0.001-0.048,0.001v84.714c0.016,0,0.032,0,0.048,0
	c40.483,0,73.301,29.069,73.301-11.414S296.483,248.391,256,248.391z"/>
<ellipse style="fill:#E4AB47;" cx="256" cy="209.33" rx="20.04" ry="25.871"/>
<path style="fill:#D59134;" d="M256,183.459c-0.016,0-0.032,0.001-0.048,0.001v51.74c0.016,0,0.031,0.001,0.048,0.001
	c11.066,0,20.037-11.583,20.037-25.871S267.066,183.459,256,183.459z"/>
<ellipse style="fill:#E4AB47;" cx="157.88" cy="281.87" rx="20.04" ry="25.871"/>
<g>
	<ellipse style="fill:#D59134;" cx="349.34" cy="280.86" rx="20.04" ry="25.871"/>
	<ellipse style="fill:#D59134;" cx="309.26" cy="230.13" rx="20.04" ry="25.871"/>
</g>
<ellipse style="fill:#E4AB47;" cx="200.34" cy="230.13" rx="20.04" ry="25.871"/>
<path style="fill:#854830;" d="M32.934,130.333h390.4V89.667H61.412C50.664,102.228,41.115,115.842,32.934,130.333z"/>
<g>
	<rect x="255.95" y="89.67" style="fill:#7A3817;" width="167.38" height="40.667"/>
	<rect x="120.67" y="85" style="fill:#7A3817;" width="14" height="80.67"/>
</g>
<rect x="364" y="85" style="fill:#5D2307;" width="14" height="80.67"/>
<g>
</g>
<g>
</g>
<g>
</g>
<g>
</g>
<g>
</g>
<g>
</g>
<g>
</g>
<g>
</g>
<g>
</g>
<g>
</g>
<g>
</g>
<g>
</g>
<g>
</g>
<g>
</g>
<g>
</g>
</svg>
