<?xml version="1.0" encoding="iso-8859-1"?>
<!-- Generator: Adobe Illustrator 19.0.0, SVG Export Plug-In . SVG Version: 6.00 Build 0)  -->
<svg version="1.1" id="Capa_1" xmlns="http://www.w3.org/2000/svg" xmlns:xlink="http://www.w3.org/1999/xlink" x="0px" y="0px"
	 viewBox="0 0 512 512" style="enable-background:new 0 0 512 512;" xml:space="preserve">
<circle style="fill:#DE1F4B;" cx="256" cy="256" r="256"/>
<path style="fill:#B70E38;" d="M511.969,258.486L340.955,87.473l-2.999,6.568l-22.824-22.825L133.216,253.13l74.729,74.729
	l-98.278,60.474l122.558,122.558C240.055,511.613,247.982,512,256,512C396.554,512,510.632,398.724,511.969,258.486z"/>
<polygon style="fill:#FFFFFF;" points="392.25,194 383.455,208.368 388.863,224.323 377.087,236.371 378.784,253.132 
	364.61,262.238 362.527,278.955 346.686,284.687 340.953,300.529 324.237,302.611 315.13,316.784 298.37,315.087 286.324,326.862 
	270.368,321.455 256,330.25 241.632,321.455 225.677,326.863 213.629,315.087 196.868,316.784 187.762,302.61 171.045,300.527 
	165.313,284.686 149.471,278.953 147.389,262.237 133.216,253.13 134.913,236.37 123.138,224.324 128.545,208.368 119.75,194 
	128.545,179.632 123.137,163.677 134.913,151.629 133.216,134.868 147.39,125.762 149.473,109.045 165.314,103.313 171.047,87.471 
	187.763,85.389 196.87,71.216 213.63,72.913 225.676,61.138 241.632,66.545 256,57.75 270.368,66.545 286.323,61.137 
	298.371,72.913 315.132,71.216 324.238,85.39 340.955,87.473 346.687,103.314 362.529,109.047 364.611,125.763 378.784,134.869 
	377.087,151.63 388.862,163.676 383.455,179.632 "/>
<polygon style="fill:#E0E0E0;" points="255.952,330.221 256,330.25 270.368,321.455 286.324,326.862 298.37,315.087 315.13,316.784 
	324.237,302.611 340.953,300.529 346.686,284.687 362.527,278.955 364.61,262.238 378.783,253.132 377.087,236.371 388.863,224.323 
	383.455,208.367 392.25,194 383.455,179.632 388.862,163.676 377.087,151.63 378.784,134.869 364.611,125.763 362.529,109.047 
	346.687,103.314 340.955,87.473 324.238,85.39 315.132,71.216 298.371,72.913 286.323,61.137 270.368,66.545 256,57.75 "/>
<circle style="fill:#C0C0C0;" cx="256" cy="194" r="109.5"/>
<g>
	<path style="fill:#758F9B;" d="M256,84.5c-0.016,0-0.032,0.001-0.048,0.001V303.5c0.016,0,0.032,0.001,0.048,0.001
		c60.475,0,109.5-49.025,109.5-109.5C365.5,133.525,316.475,84.5,256,84.5z"/>
	<circle style="fill:#758F9B;" cx="256" cy="194" r="81"/>
</g>
<path style="fill:#5F737A;" d="M256,113c-0.016,0-0.032,0.001-0.048,0.001v161.997c0.016,0,0.031,0.001,0.048,0.001
	c44.735,0,81-36.265,81-81S300.735,113,256,113z"/>
<rect x="109.67" y="256.33" style="fill:#E0E0E0;" width="292.67" height="132"/>
<rect x="255.95" y="256.33" style="fill:#C0C0C0;" width="146.38" height="132"/>
<rect x="109.67" y="275.5" style="fill:#FE9A35;" width="292.67" height="93.67"/>
<rect x="255.95" y="275.5" style="fill:#FF7C11;" width="146.38" height="93.67"/>
<path style="fill:#91F3FF;" d="M292.125,349.375c0,19.951-16.174,5.625-36.125,5.625s-36.125,14.326-36.125-5.625
	S236.049,313.25,256,313.25S292.125,329.424,292.125,349.375z"/>
<path style="fill:#00ECFF;" d="M256,313.25c-0.016,0-0.032,0.001-0.048,0.001v41.75c0.016,0,0.031-0.001,0.048-0.001
	c19.951,0,36.125,14.326,36.125-5.625S275.951,313.25,256,313.25z"/>
<ellipse style="fill:#91F3FF;" cx="256" cy="294" rx="9.875" ry="12.75"/>
<path style="fill:#00ECFF;" d="M256,281.25c-0.016,0-0.031,0.003-0.048,0.003v25.494c0.016,0,0.031,0.003,0.048,0.003
	c5.454,0,9.875-5.708,9.875-12.75S261.454,281.25,256,281.25z"/>
<ellipse style="fill:#91F3FF;" cx="209.75" cy="326.5" rx="9.875" ry="12.75"/>
<g>
	<ellipse style="fill:#00ECFF;" cx="302.25" cy="326.5" rx="9.875" ry="12.75"/>
	<ellipse style="fill:#00ECFF;" cx="283.37" cy="303.75" rx="9.875" ry="12.75"/>
</g>
<ellipse style="fill:#91F3FF;" cx="228.62" cy="303.75" rx="9.875" ry="12.75"/>
<g>
</g>
<g>
</g>
<g>
</g>
<g>
</g>
<g>
</g>
<g>
</g>
<g>
</g>
<g>
</g>
<g>
</g>
<g>
</g>
<g>
</g>
<g>
</g>
<g>
</g>
<g>
</g>
<g>
</g>
</svg>
