<?xml version="1.0" encoding="iso-8859-1"?>
<!-- Generator: Adobe Illustrator 19.0.0, SVG Export Plug-In . SVG Version: 6.00 Build 0)  -->
<svg version="1.1" id="Capa_1" xmlns="http://www.w3.org/2000/svg" xmlns:xlink="http://www.w3.org/1999/xlink" x="0px" y="0px"
	 viewBox="0 0 512 512" style="enable-background:new 0 0 512 512;" xml:space="preserve">
<circle style="fill:#CE7937;" cx="256" cy="256" r="256"/>
<path style="fill:#A94F1F;" d="M512,256c0-20.058-2.312-39.574-6.675-58.304L396.087,88.246
	c-12.067-11.607-28.455-18.751-46.521-18.751c-33.646,0-61.509,24.747-66.387,57.031c-8.794-2.039-17.952-3.012-27.178-3.012H256
	c0,0-0.001,0-0.002,0c-3.796,0-7.579,0.175-11.332,0.511l-33.65-33.709c-12.227-12.823-29.467-20.821-48.584-20.821
	c-37.084,0-67.147,30.063-67.147,67.147c0,18.27,7.298,34.83,19.138,46.931l44.686,44.671c0.447,12.61,2.328,26.495,5.902,41.757
	c12.941,55.253,29.916,96.613,47.779,122.521l-51.604-10.039l-2.146,11.025l26.194,28.921l-26.194,5.096l2.146,11.025l72.47,72.47
	C241.022,511.655,248.47,512,256,512C397.385,512,512,397.385,512,256z"/>
<path style="fill:#E0E0E2;" d="M416.714,136.642c0-37.084-30.063-67.147-67.147-67.147c-33.646,0-61.509,24.747-66.387,57.031
	c-8.794-2.039-17.952-3.012-27.178-3.012h-0.001c-0.001,0-0.001,0-0.002,0c-9.227,0-18.384,0.973-27.178,3.012
	c-4.879-32.284-32.742-57.031-66.387-57.031c-37.084,0-67.147,30.063-67.147,67.147c0,36.331,28.859,65.903,64.9,67.09
	c-2.461,18.421-1.238,40.379,4.826,66.269c23.355,99.715,59.846,154.21,90.986,154.214c0.001,0,0.001,0,0.001,0h0.002
	c31.14-0.004,67.631-54.499,90.986-154.214c6.064-25.89,7.287-47.848,4.826-66.269C387.855,202.544,416.714,172.972,416.714,136.642
	z"/>
<path style="fill:#C8C5CB;" d="M416.714,136.642c0-37.084-30.063-67.147-67.147-67.147c-33.646,0-61.509,24.747-66.387,57.031
	c-8.795-2.039-17.954-3.012-27.181-3.012v300.701c31.141,0,67.633-54.496,90.989-154.214c6.064-25.89,7.287-47.848,4.826-66.269
	C387.855,202.544,416.714,172.972,416.714,136.642z"/>
<g>
	
		<rect x="271.341" y="390.144" transform="matrix(0.9816 -0.191 0.191 0.9816 -69.8459 66.8727)" style="fill:#0F0F11;" width="81.271" height="11.231"/>
	
		<rect x="271.355" y="419.674" transform="matrix(-0.9816 -0.191 0.191 -0.9816 537.0076 902.3399)" style="fill:#0F0F11;" width="81.271" height="11.232"/>
</g>
<g>
	
		<rect x="159.36" y="390.149" transform="matrix(-0.9816 -0.191 0.191 -0.9816 320.7191 822.442)" style="fill:#56545B;" width="81.271" height="11.231"/>
	
		<rect x="159.342" y="419.664" transform="matrix(0.9816 -0.191 0.191 0.9816 -77.5462 46.0245)" style="fill:#56545B;" width="81.271" height="11.232"/>
</g>
<path style="fill:#FF8387;" d="M206.858,134.355c-18.314,9.167-33.311,24.475-41.388,47.11
	c-22.674-0.214-40.989-18.665-40.989-41.388c0-22.859,18.529-41.388,41.388-41.388C186.792,98.689,204.075,114.201,206.858,134.355z
	"/>
<path style="fill:#FF6239;" d="M387.522,140.077c0,22.723-18.315,41.174-40.989,41.388c-8.077-22.635-23.073-37.943-41.388-47.11
	c2.783-20.154,20.066-35.666,40.989-35.666C368.993,98.689,387.522,117.218,387.522,140.077z"/>
<circle style="fill:#FF8387;" cx="256" cy="410.51" r="32.82"/>
<path style="fill:#FF6239;" d="M288.818,410.51c0,18.131-14.696,32.827-32.816,32.827v-65.643
	C274.122,377.694,288.818,392.389,288.818,410.51z"/>
<circle style="fill:#56545B;" cx="205.97" cy="257.25" r="15.16"/>
<circle style="fill:#0F0F11;" cx="306.03" cy="257.25" r="15.16"/>
<g>
</g>
<g>
</g>
<g>
</g>
<g>
</g>
<g>
</g>
<g>
</g>
<g>
</g>
<g>
</g>
<g>
</g>
<g>
</g>
<g>
</g>
<g>
</g>
<g>
</g>
<g>
</g>
<g>
</g>
</svg>
