<?xml version="1.0" encoding="iso-8859-1"?>
<!-- Generator: Adobe Illustrator 19.0.0, SVG Export Plug-In . SVG Version: 6.00 Build 0)  -->
<svg version="1.1" id="Capa_1" xmlns="http://www.w3.org/2000/svg" xmlns:xlink="http://www.w3.org/1999/xlink" x="0px" y="0px"
	 viewBox="0 0 512.001 512.001" style="enable-background:new 0 0 512.001 512.001;" xml:space="preserve">
<circle style="fill:#1F66CC;" cx="256" cy="256" r="256"/>
<path style="fill:#154797;" d="M512,256c0-15.979-1.478-31.61-4.278-46.778L431.5,133L72.75,382.5l122.141,122.141
	c19.584,4.797,40.046,7.36,61.109,7.36C397.385,512,512,397.385,512,256z"/>
<rect x="80.5" y="133" style="fill:#FFFFFF;" width="351" height="209"/>
<rect x="255.95" y="133" style="fill:#E0E0E0;" width="175.55" height="209"/>
<rect x="80.5" y="164.33" style="fill:#91F3FF;" width="351" height="209"/>
<rect x="255.95" y="164.33" style="fill:#00ECFF;" width="175.55" height="209"/>
<polygon style="fill:#AB6A50;" points="388.835,209.333 388.835,223.667 373.167,223.667 373.167,209.333 356.167,209.333 
	356.167,223.667 340.5,223.667 340.5,209.333 330,209.333 330,329.333 399.335,329.333 399.335,209.333 "/>
<polygon style="fill:#854830;" points="399.335,209.333 388.835,209.333 388.835,223.667 373.167,223.667 373.167,209.333 
	364.286,209.333 364.286,329.333 399.335,329.333 "/>
<path style="fill:#00DE7E;" d="M301,294c-63.967,12.69-174.409,23.77-220.5,28.082v51.252h351v-44.193
	C402.699,309.199,353.477,283.59,301,294z"/>
<path style="fill:#00B77C;" d="M431.5,329.141C402.699,309.199,353.477,283.59,301,294c-13.331,2.645-28.683,5.219-45.048,7.677
	v71.657H431.5V329.141z"/>
<path style="fill:#FE9A35;" d="M173.771,200c-14.946,0-28.151,9.284-36.154,16.491c-4.995-7.877-16.894-13.918-31.616-15.839v48.285
	c14.722-1.921,26.621-7.962,31.616-15.839c8.003,7.207,21.208,16.491,36.154,16.491c24.42,0,44.216-11.101,44.216-24.794
	S198.191,200,173.771,200z"/>
<path style="fill:#FF7C11;" d="M106,224.357v24.58c14.722-1.921,26.621-7.962,31.616-15.839
	c8.003,7.207,21.208,16.491,36.154,16.491c24.42,0,44.216-11.101,44.216-24.794c0-0.146-0.015-0.291-0.02-0.437L106,224.357
	L106,224.357z"/>
<circle style="fill:#333333;" cx="201.11" cy="222.11" r="5.579"/>
<path style="fill:#1A1A1A;" d="M196.01,224.357c0.865,1.96,2.823,3.33,5.103,3.33s4.238-1.37,5.103-3.33H196.01z"/>
<path style="fill:#F9C41E;" d="M439.25,347.5H72.75v35h128v123.503c17.795,3.916,36.279,5.998,55.25,5.998s37.454-2.082,55.25-5.998
	V382.5h128V347.5z"/>
<path style="fill:#FE9A35;" d="M255.953,347.5V512c0.016,0,0.032,0,0.048,0c18.972,0,37.454-2.082,55.25-5.998V382.5h128v-35
	H255.953z"/>
<g>
</g>
<g>
</g>
<g>
</g>
<g>
</g>
<g>
</g>
<g>
</g>
<g>
</g>
<g>
</g>
<g>
</g>
<g>
</g>
<g>
</g>
<g>
</g>
<g>
</g>
<g>
</g>
<g>
</g>
</svg>
