<?xml version="1.0" encoding="iso-8859-1"?>
<!-- Generator: Adobe Illustrator 19.0.0, SVG Export Plug-In . SVG Version: 6.00 Build 0)  -->
<svg version="1.1" id="Capa_1" xmlns="http://www.w3.org/2000/svg" xmlns:xlink="http://www.w3.org/1999/xlink" x="0px" y="0px"
	 viewBox="0 0 512 512" style="enable-background:new 0 0 512 512;" xml:space="preserve">
<circle style="fill:#17ACE8;" cx="256" cy="256" r="256"/>
<path style="fill:#136EF1;" d="M512,256c0-8.26-0.407-16.424-1.172-24.484L420,140.688L92,177.972l31.817,31.711L92,236.781
	l30.172,30.172L92,294.438l30.406,30.406L92,371.313l139.516,139.516C239.576,511.593,247.74,512,256,512
	C397.385,512,512,397.385,512,256z"/>
<path style="fill:#FE9923;" d="M413.657,180.278l6.343-2.306v-37.284H92v37.284l6.343,2.306c7.687,2.691,12.876,9.993,12.876,18.066
	c0,10.57-8.649,19.219-19.219,19.219v19.219c10.57,0,19.219,8.649,19.219,19.219c0,10.57-8.649,19.219-19.219,19.219v19.219
	c10.57,0,19.219,8.649,19.219,19.219c0,8.072-5.189,15.375-12.876,18.066L92,334.028v37.284h328v-37.284l-6.343-2.306
	c-7.687-2.691-12.876-9.994-12.876-18.066c0-10.57,8.649-19.219,19.219-19.219v-19.219c-10.57,0-19.219-8.649-19.219-19.219
	S409.43,236.78,420,236.78v-19.219c-10.57,0-19.219-8.649-19.219-19.219C400.781,190.271,405.971,182.969,413.657,180.278z"/>
<path style="fill:#FE8821;" d="M400.781,198.344c0,10.57,8.649,19.219,19.219,19.219v19.219c-10.57,0-19.219,8.649-19.219,19.219
	c0,10.57,8.649,19.219,19.219,19.219v19.219c-10.57,0-19.219,8.649-19.219,19.219c0,8.072,5.189,15.375,12.876,18.066L420,334.03
	v37.284H256V140.688h164v37.284l-6.343,2.306C405.971,182.969,400.781,190.271,400.781,198.344z"/>
<path style="fill:#FEDB41;" d="M150.297,179.125v153.75h211.406v-153.75H150.297z"/>
<rect x="256" y="179.12" style="fill:#FCBF29;" width="105.7" height="153.75"/>
<path style="fill:#896748;" d="M320.959,257.921c1.538,4.42,2.306,9.225,2.306,14.029v60.924H188.734V271.95
	c0-4.805,0.768-9.609,2.306-14.029c-1.538-3.652-2.306-7.496-2.306-11.531c0-15.952,12.876-28.828,28.828-28.828
	c12.493,0,23.255,8.072,27.098,19.219h22.679c3.843-11.147,14.605-19.219,27.098-19.219c15.952,0,28.828,12.876,28.828,28.828
	C323.266,250.426,322.497,254.27,320.959,257.921z"/>
<path style="fill:#73553A;" d="M320.959,257.921c1.538,4.42,2.306,9.225,2.306,14.029v60.924H256V236.78h11.34
	c3.843-11.147,14.605-19.219,27.098-19.219c15.952,0,28.828,12.876,28.828,28.828C323.266,250.426,322.497,254.27,320.959,257.921z"
	/>
<rect x="227.17" y="274.84" style="fill:#3C3A41;" width="19.219" height="19.219"/>
<rect x="265.61" y="274.69" style="fill:#2B292C;" width="19.219" height="19.219"/>
<g>
</g>
<g>
</g>
<g>
</g>
<g>
</g>
<g>
</g>
<g>
</g>
<g>
</g>
<g>
</g>
<g>
</g>
<g>
</g>
<g>
</g>
<g>
</g>
<g>
</g>
<g>
</g>
<g>
</g>
</svg>
