<?xml version="1.0" encoding="iso-8859-1"?>
<!-- Generator: Adobe Illustrator 19.0.0, SVG Export Plug-In . SVG Version: 6.00 Build 0)  -->
<svg version="1.1" id="Capa_1" xmlns="http://www.w3.org/2000/svg" xmlns:xlink="http://www.w3.org/1999/xlink" x="0px" y="0px"
	 viewBox="0 0 512 512" style="enable-background:new 0 0 512 512;" xml:space="preserve">
<circle style="fill:#005ED1;" cx="256" cy="256" r="256"/>
<path style="fill:#053D8A;" d="M510.604,282.821l-55.971-56.195c-1.795-1.847-3.821-3.547-6.089-5.053
	c-2.643-1.756-5.383-3.547-8.203-5.359L352.85,128.54c-4.989-5.457-13.135-8.263-21.364-6.845
	c-26.576,4.581-77.512,15.004-127.898,34.368c-7.052,2.71-9.098,10.659-4.101,15.766l9.547,9.758
	c-13.969,8.393-27.757,19.385-40.965,33.424L67,135.012l41.665,117.259L67,369.529L204.232,506.76
	c6.321,1.298,12.726,2.365,19.208,3.188l0.649-0.513L223.887,510c10.52,1.317,21.236,2,32.113,2
	C388.326,512,497.196,411.599,510.604,282.821z"/>
<path style="fill:#FD880C;" d="M365.99,322.281c0,0-34.04,83.959-157.917,43.954c0,0,62.377-4.474,80.801-43.954H365.99z"/>
<polygon style="fill:#FDAA11;" points="67,135.012 108.665,252.271 67,369.529 175.436,283.698 175.436,252.271 175.436,220.844 "/>
<polygon style="fill:#FD880C;" points="175.436,283.698 67,369.529 108.665,252.271 175.436,252.271 "/>
<path style="fill:#FDAA11;" d="M377.878,187.91l-21.413-53.675c-3.612-9.055-14.234-14.392-24.979-12.54
	c-26.576,4.581-77.512,15.004-127.898,34.368c-7.052,2.71-9.098,10.659-4.101,15.766l11.246,11.495L377.878,187.91z"/>
<path style="fill:#FFE570;" d="M318.475,161.393c-50.646-9.738-117.639,4.734-170.474,78.044c-5.513,7.65-5.513,18.018,0,25.668
	c52.834,73.31,119.827,87.782,170.474,78.044c45.784-8.803,95.761-37.391,130.069-60.179c21.94-14.574,21.94-46.823,0-61.397
	C414.237,198.783,364.259,170.196,318.475,161.393z"/>
<circle style="fill:#56545B;" cx="387.31" cy="221.3" r="13.335"/>
<path style="fill:#FDB500;" d="M318.475,343.149c45.784-8.803,95.761-37.391,130.069-60.18c10.97-7.287,16.455-18.993,16.455-30.699
	H143.867c0,4.505,1.378,9.009,4.135,12.834C200.836,338.415,267.829,352.887,318.475,343.149z"/>
<path style="fill:#FD880C;" d="M316.276,252.271H274.28l-15.674,40.006c0,0,15.97,10.879,36.672,10.879s36.672-10.879,36.672-10.879
	L316.276,252.271z"/>
<g>
</g>
<g>
</g>
<g>
</g>
<g>
</g>
<g>
</g>
<g>
</g>
<g>
</g>
<g>
</g>
<g>
</g>
<g>
</g>
<g>
</g>
<g>
</g>
<g>
</g>
<g>
</g>
<g>
</g>
</svg>
