<?xml version="1.0" encoding="iso-8859-1"?>
<!-- Generator: Adobe Illustrator 19.0.0, SVG Export Plug-In . SVG Version: 6.00 Build 0)  -->
<svg version="1.1" id="Capa_1" xmlns="http://www.w3.org/2000/svg" xmlns:xlink="http://www.w3.org/1999/xlink" x="0px" y="0px"
	 viewBox="0 0 512 512" style="enable-background:new 0 0 512 512;" xml:space="preserve">
<circle style="fill:#CE7937;" cx="256" cy="256" r="256"/>
<path style="fill:#A94F1F;" d="M512,256c0-5.33-0.183-10.616-0.504-15.865L381.584,110.042C369.779,97.698,353.158,90,334.729,90
	c-35.816,0-64.851,29.035-64.851,64.851c0,0.106,0.008,0.21,0.008,0.316l-43.681-42.848C214.315,98.652,196.809,90,177.271,90
	c-35.816,0-64.851,29.035-64.851,64.851c0,12.278,3.414,23.758,9.341,33.545c-40.359,23.707-65.709,57.949-65.709,96.029
	c0,26.395,12.189,50.942,33.104,71.419c0,0,126.211,126.249,155.957,155.91C248.725,511.905,252.351,512,256,512
	C397.385,512,512,397.385,512,256z"/>
<ellipse style="fill:#4BCE5C;" cx="256" cy="284.43" rx="199.95" ry="129.57"/>
<path style="fill:#07A171;" d="M455.95,284.43C455.95,355.99,366.43,414,256,414V154.85C366.43,154.85,455.95,212.86,455.95,284.43z
	"/>
<circle style="fill:#00D6A5;" cx="334.73" cy="154.85" r="64.851"/>
<path style="fill:#64DFB9;" d="M256,414c109.014,0,197.642-56.538,199.894-126.833C395.027,278.528,327.331,273.71,256,273.71
	s-139.027,4.818-199.894,13.456C58.359,357.462,146.986,414,256,414z"/>
<path style="fill:#00D6A5;" d="M455.89,287.17C453.64,357.46,365.01,414,256,414V273.71C327.33,273.71,395.03,278.53,455.89,287.17z
	"/>
<circle style="fill:#64DFB9;" cx="177.27" cy="154.85" r="64.851"/>
<circle style="fill:#FFFFFF;" cx="177.27" cy="154.85" r="42.986"/>
<circle style="fill:#56545B;" cx="177.27" cy="154.85" r="22.16"/>
<circle style="fill:#FDF3C9;" cx="334.73" cy="154.85" r="42.986"/>
<circle style="fill:#0F0F11;" cx="334.73" cy="154.85" r="22.16"/>
<g>
	<ellipse style="fill:#00A74D;" cx="93.56" cy="259.14" rx="12.656" ry="6.52"/>
	<ellipse style="fill:#00A74D;" cx="132.3" cy="255.84" rx="8.934" ry="4.602"/>
	<ellipse style="fill:#00A74D;" cx="115.42" cy="236.19" rx="11.506" ry="5.927"/>
</g>
<g>
	<ellipse style="fill:#00693C;" cx="418.44" cy="259.14" rx="12.656" ry="6.52"/>
	<ellipse style="fill:#00693C;" cx="379.7" cy="255.84" rx="8.934" ry="4.602"/>
	<ellipse style="fill:#00693C;" cx="396.58" cy="236.19" rx="11.506" ry="5.927"/>
</g>
<g>
</g>
<g>
</g>
<g>
</g>
<g>
</g>
<g>
</g>
<g>
</g>
<g>
</g>
<g>
</g>
<g>
</g>
<g>
</g>
<g>
</g>
<g>
</g>
<g>
</g>
<g>
</g>
<g>
</g>
</svg>
