<?xml version="1.0" encoding="iso-8859-1"?>
<!-- Generator: Adobe Illustrator 19.0.0, SVG Export Plug-In . SVG Version: 6.00 Build 0)  -->
<svg version="1.1" id="Capa_1" xmlns="http://www.w3.org/2000/svg" xmlns:xlink="http://www.w3.org/1999/xlink" x="0px" y="0px"
	 viewBox="0 0 512 512" style="enable-background:new 0 0 512 512;" xml:space="preserve">
<circle style="fill:#1F66CC;" cx="256" cy="256" r="256"/>
<path style="fill:#154797;" d="M509.943,288.609L281.333,60l-41.107,0.251l-8.083,156.368l-123.75,194.227l95.936,95.936
	C221.018,510.203,238.299,512,256,512C386.338,512,493.925,414.596,509.943,288.609z"/>
<path style="fill:#FFA899;" d="M256,151c-10.907,0-19.714-9.862-26.924-30.151c-4.535-12.761-7.826-28.364-7.826-37.099
	C221.25,64.589,236.839,49,256,49s34.75,15.589,34.75,34.75c0,8.735-3.292,24.338-7.826,37.099C275.714,141.138,266.907,151,256,151
	z M256,69c-8.133,0-14.75,6.617-14.75,14.75c0,4.829,1.958,16.002,5.584,27.198c3.709,11.448,7.214,17.008,9.166,19.202
	c1.951-2.194,5.457-7.754,9.166-19.202c3.627-11.195,5.584-22.369,5.584-27.198C270.75,75.617,264.133,69,256,69z"/>
<path style="fill:#FF6472;" d="M256,49c-0.016,0-0.032,0.001-0.048,0.001v20.001c0.016,0,0.032-0.002,0.048-0.002
	c8.133,0,14.75,6.617,14.75,14.75c0,4.829-1.958,16.002-5.584,27.198c-3.709,11.448-7.214,17.008-9.166,19.202
	c-0.015-0.017-0.032-0.039-0.048-0.056v20.905c0.016,0,0.032,0.001,0.048,0.001c10.907,0,19.714-9.862,26.924-30.151
	c4.535-12.761,7.826-28.364,7.826-37.099C290.75,64.589,275.161,49,256,49z"/>
<path style="fill:#FFCABC;" d="M341.487,434.306H170.845c-39.734,0-75.257-24.765-89-62.046l-16.57-44.95
	c-14.336-38.888-1.764-82.58,31.047-107.902l101.748-78.526c34.248-26.432,82.042-26.342,116.191,0.219l101.702,79.104
	c32.545,25.314,45.011,68.753,30.841,107.472l-16.238,44.372C416.881,409.44,381.303,434.306,341.487,434.306z"/>
<path style="fill:#FFA899;" d="M415.962,220.206L314.26,141.102c-17.144-13.334-37.726-19.993-58.308-19.978v313.182h85.535
	c39.816,0,75.394-24.866,89.078-62.257l16.238-44.372C460.973,288.958,448.507,245.52,415.962,220.206z"/>
<circle style="fill:#854830;" cx="256" cy="340.83" r="75.22"/>
<path style="fill:#5D2307;" d="M256,265.613c-0.016,0-0.032,0.001-0.048,0.001v150.434c0.016,0,0.032,0.001,0.048,0.001
	c41.542,0,75.218-33.676,75.218-75.218S297.542,265.613,256,265.613z"/>
<path style="fill:#FF6472;" d="M292.593,236.232c0,20.21-16.383,5.698-36.593,5.698s-36.593,14.512-36.593-5.698
	S235.79,199.639,256,199.639S292.593,216.022,292.593,236.232z"/>
<path style="fill:#E15050;" d="M256,199.639c-0.016,0-0.032,0.001-0.048,0.001v42.291c0.016,0,0.032-0.001,0.048-0.001
	c20.21,0,36.593,14.512,36.593-5.698S276.21,199.639,256,199.639z"/>
<ellipse style="fill:#FF6472;" cx="256" cy="180.14" rx="10" ry="12.915"/>
<path style="fill:#E15050;" d="M256,167.225c-0.016,0-0.032,0.003-0.048,0.003v25.824c0.016,0,0.032,0.003,0.048,0.003
	c5.524,0,10.003-5.782,10.003-12.915S261.524,167.225,256,167.225z"/>
<ellipse style="fill:#FF6472;" cx="209.15" cy="213.06" rx="10" ry="12.915"/>
<g>
	<ellipse style="fill:#E15050;" cx="302.85" cy="213.06" rx="10" ry="12.915"/>
	<ellipse style="fill:#E15050;" cx="283.73" cy="190.02" rx="10" ry="12.915"/>
</g>
<ellipse style="fill:#FF6472;" cx="228.27" cy="190.02" rx="10" ry="12.915"/>
<g>
</g>
<g>
</g>
<g>
</g>
<g>
</g>
<g>
</g>
<g>
</g>
<g>
</g>
<g>
</g>
<g>
</g>
<g>
</g>
<g>
</g>
<g>
</g>
<g>
</g>
<g>
</g>
<g>
</g>
</svg>
