<?xml version="1.0" encoding="iso-8859-1"?>
<!-- Generator: Adobe Illustrator 19.0.0, SVG Export Plug-In . SVG Version: 6.00 Build 0)  -->
<svg version="1.1" id="Capa_1" xmlns="http://www.w3.org/2000/svg" xmlns:xlink="http://www.w3.org/1999/xlink" x="0px" y="0px"
	 viewBox="0 0 512 512" style="enable-background:new 0 0 512 512;" xml:space="preserve">
<circle style="fill:#91F3FF;" cx="256" cy="256" r="256"/>
<path style="fill:#00ECFF;" d="M511.747,267.057L356.536,111.845L127.609,419.67l89.375,89.375C229.705,510.991,242.735,512,256,512
	C393.679,512,505.955,403.31,511.747,267.057z"/>
<path style="fill:#00B77C;" d="M384.391,191.697c0-70.908-57.483-128.391-128.391-128.391s-128.391,57.483-128.391,128.391V419.67
	h256.782V191.697z"/>
<path style="fill:#008D70;" d="M384.391,191.697c0-70.908-57.483-128.391-128.391-128.391c-0.016,0-0.032,0.001-0.048,0.001V419.67
	H384.39V191.697H384.391z"/>
<path style="fill:#00DE7E;" d="M256,63.306c-70.908,0-128.391,57.483-128.391,128.391v111.762l59.633,59.633
	c37.974,37.974,99.542,37.974,137.517,0l59.633-59.632V191.697C384.391,120.789,326.908,63.306,256,63.306z"/>
<path style="fill:#00B77C;" d="M256,63.306c-0.016,0-0.032,0-0.048,0v328.265c24.902,0.012,49.807-9.48,68.806-28.479l59.633-59.632
	V191.697C384.391,120.789,326.908,63.306,256,63.306z"/>
<circle style="fill:#4D4D4D;" cx="197.04" cy="182.59" r="14.365"/>
<circle style="fill:#333333;" cx="314.96" cy="182.59" r="14.365"/>
<path style="fill:#F9C41E;" d="M303.687,221.788c0,26.337-47.735,77.674-47.735,77.674s-47.639-51.337-47.639-77.674
	s21.35-47.687,47.687-47.687S303.687,195.452,303.687,221.788z"/>
<path style="fill:#FE9A35;" d="M255.952,299.463c0,0,47.735-51.338,47.735-77.675c0-26.336-21.35-47.687-47.687-47.687
	c-0.016,0-0.032,0.001-0.048,0.001V299.463z"/>
<g>
</g>
<g>
</g>
<g>
</g>
<g>
</g>
<g>
</g>
<g>
</g>
<g>
</g>
<g>
</g>
<g>
</g>
<g>
</g>
<g>
</g>
<g>
</g>
<g>
</g>
<g>
</g>
<g>
</g>
</svg>
