<?xml version="1.0" encoding="iso-8859-1"?>
<!-- Generator: Adobe Illustrator 19.0.0, SVG Export Plug-In . SVG Version: 6.00 Build 0)  -->
<svg version="1.1" id="Capa_1" xmlns="http://www.w3.org/2000/svg" xmlns:xlink="http://www.w3.org/1999/xlink" x="0px" y="0px"
	 viewBox="0 0 512 512" style="enable-background:new 0 0 512 512;" xml:space="preserve">
<circle style="fill:#32D736;" cx="256" cy="256" r="256"/>
<path style="fill:#0CA656;" d="M511.479,272.145l-164.67-164.67L120.892,339.283l51.035,51.041l-40.945,14.202l106.823,106.823
	C243.815,511.771,249.881,512,256,512C391.961,512,503.146,406.005,511.479,272.145z"/>
<path style="fill:#FEDBAB;" d="M262.74,142.865h-66.947l-17.991,17.405v39.162l-64.458,47.865l15.2,43.165l-20.248,25.934
	c4.004,20.191,22.164,35.333,43.398,35.333h55.872l56.916-56.568l18.45-91.901L262.74,142.865z"/>
<polygon style="fill:#FE8821;" points="404.652,165.318 405,404.526 130.981,404.526 248.119,286.459 264.48,204.305 249.86,160.27 
	177.802,160.27 198.862,107.474 347.156,107.474 "/>
<polygon style="fill:#E5741A;" points="404.652,165.318 404.652,404.526 273.009,404.526 273.009,107.474 346.808,107.474 "/>
<path style="fill:#896748;" d="M113.344,247.297l-5.744,4.351v56.568c0,2.784,0.348,5.57,0.696,8.18
	c2.785,0.348,5.396,0.523,8.007,0.523c10.27,0,20.77-2.437,29.995-7.484c19.494-10.791,31.504-31.331,31.504-53.435v-8.703H113.344z
	"/>
<g>
	<rect x="195.21" y="264.7" style="fill:#8B8892;" width="17.405" height="17.405"/>
	<rect x="177.8" y="299.51" style="fill:#8B8892;" width="17.405" height="17.405"/>
</g>
<rect x="221.308" y="193.02" transform="matrix(-0.4472 -0.8944 0.8944 -0.4472 142.8275 513.2314)" style="fill:#3C3A41;" width="17.406" height="38.919"/>
<path style="fill:#FEA832;" d="M327.488,217.185l-0.696,6.788l-10.095,87.724l-43.687,55.001l-30.112,37.828H220.62l52.39-65.676
	l26.978-34.115l9.747-85.46l-26.108-71.711l8.18-2.959c2.785-1.044,5.57-1.74,8.528-2.089l6.093,16.884l16.883,46.298
	L327.488,217.185z"/>
<polygon style="fill:#FE9923;" points="368.681,229.892 368.565,311.523 331.666,404.526 312.868,404.526 351.856,306.475 
	351.856,229.892 "/>
<path style="fill:#FEB756;" d="M347.504,170.539c-4.003-10.791-11.836-19.668-22.453-24.541c-7.833-3.656-16.361-4.874-24.716-3.481
	l-3.415,21.833l23.765,62.382l0.886-0.321c1.914-0.696,3.654-1.393,5.221-2.437C345.764,214.227,354.988,191.251,347.504,170.539z"
	/>
<path style="fill:#FE9923;" d="M327.488,217.185l-0.696,6.788l-10.095,87.724l-43.687,55.001V338.85l26.978-34.115l9.747-85.46
	l-26.108-71.711l8.18-2.959c2.785-1.044,5.57-1.74,8.528-2.089l6.093,16.884l16.883,46.298L327.488,217.185z"/>
<g>
</g>
<g>
</g>
<g>
</g>
<g>
</g>
<g>
</g>
<g>
</g>
<g>
</g>
<g>
</g>
<g>
</g>
<g>
</g>
<g>
</g>
<g>
</g>
<g>
</g>
<g>
</g>
<g>
</g>
</svg>
