<?xml version="1.0" encoding="iso-8859-1"?>
<!-- Generator: Adobe Illustrator 19.0.0, SVG Export Plug-In . SVG Version: 6.00 Build 0)  -->
<svg version="1.1" id="Capa_1" xmlns="http://www.w3.org/2000/svg" xmlns:xlink="http://www.w3.org/1999/xlink" x="0px" y="0px"
	 viewBox="0 0 512 512" style="enable-background:new 0 0 512 512;" xml:space="preserve">
<circle style="fill:#1F66CC;" cx="256" cy="256" r="256"/>
<path style="fill:#154797;" d="M512,256c0-20.698-2.474-40.816-7.111-60.092L373.812,64.831l-35.823,131.812L210.771,69.425
	l-39.976,351.566l90.936,90.936C400.468,508.879,512,395.469,512,256z"/>
<path style="fill:#FFFFFF;" d="M229.497,146.881c0,70.827-25.518,160.32-56.997,160.32s-56.997-89.493-56.997-160.32
	s25.518-96.168,56.997-96.168S229.497,76.054,229.497,146.881z"/>
<path style="fill:#FFCABC;" d="M209.093,158.364c0,45.471-16.383,102.926-36.593,102.926s-36.593-57.455-36.593-102.926
	s16.383-61.74,36.593-61.74S209.093,112.892,209.093,158.364z"/>
<path style="fill:#E0E0E0;" d="M396.497,146.881c0,70.827-25.518,160.32-56.997,160.32s-56.997-89.493-56.997-160.32
	s25.518-96.168,56.997-96.168S396.497,76.054,396.497,146.881z"/>
<path style="fill:#FFA899;" d="M376.092,158.364c0,45.471-16.383,102.926-36.592,102.926s-36.592-57.455-36.592-102.926
	s16.383-61.74,36.592-61.74S376.092,112.892,376.092,158.364z"/>
<circle style="fill:#FFFFFF;" cx="256" cy="316.95" r="134.47"/>
<path style="fill:#E0E0E0;" d="M256,182.475c-0.016,0-0.032,0.001-0.048,0.001v268.949c0.016,0,0.032,0.001,0.048,0.001
	c74.269,0,134.475-60.207,134.475-134.476S330.269,182.475,256,182.475z"/>
<path style="fill:#808080;" d="M271.634,382.504c0,1.966-1.601,3.566-3.567,3.566s-3.566-1.6-3.566-3.566v-15.185l11.136-11.136
	c6.494-6.494,1.895-17.597-7.289-17.597h-24.695c-9.184,0-13.783,11.104-7.289,17.598L247.5,367.32v15.185
	c0,1.966-1.6,3.566-3.566,3.566s-3.567-1.6-3.567-3.566h-17c0,11.34,9.227,20.566,20.567,20.566c4.51,0,8.672-1.477,12.066-3.948
	c3.394,2.471,7.556,3.948,12.066,3.948c11.341,0,20.567-9.226,20.567-20.566L271.634,382.504L271.634,382.504z"/>
<path style="fill:#666666;" d="M271.634,382.504c0,1.966-1.601,3.566-3.567,3.566s-3.566-1.6-3.566-3.566v-15.185l11.136-11.136
	c6.494-6.494,1.895-17.597-7.289-17.597h-12.395v60.569c0.015-0.012,0.032-0.021,0.048-0.032c3.394,2.471,7.556,3.948,12.066,3.948
	c11.341,0,20.567-9.226,20.567-20.566L271.634,382.504L271.634,382.504z"/>
<circle style="fill:#808080;" cx="183.55" cy="323.2" r="12.752"/>
<circle style="fill:#666666;" cx="328.45" cy="323.2" r="12.752"/>
<g>
</g>
<g>
</g>
<g>
</g>
<g>
</g>
<g>
</g>
<g>
</g>
<g>
</g>
<g>
</g>
<g>
</g>
<g>
</g>
<g>
</g>
<g>
</g>
<g>
</g>
<g>
</g>
<g>
</g>
</svg>
