<?xml version="1.0" encoding="iso-8859-1"?>
<!-- Generator: Adobe Illustrator 19.0.0, SVG Export Plug-In . SVG Version: 6.00 Build 0)  -->
<svg version="1.1" id="Capa_1" xmlns="http://www.w3.org/2000/svg" xmlns:xlink="http://www.w3.org/1999/xlink" x="0px" y="0px"
	 viewBox="0 0 512 512" style="enable-background:new 0 0 512 512;" xml:space="preserve">
<circle style="fill:#005ED1;" cx="256" cy="256" r="256"/>
<path style="fill:#053D8A;" d="M511.947,260.178l-61.012-61.241c-7.015-7.064-19.467-11.876-37.604-11.549
	c-1.505,0.027-3.006,0.048-4.505,0.065L270.357,48.455C266.589,44.332,262.14,43.001,256,43
	c-22.174,0.003-22.298,17.309-47.916,120.99c-4.601,18.623-55.481,24.37-109.415,23.398c-42.917-0.773-54.023,27.215-36.496,45.763
	l91.482,91.501c-29.488,41.131-53.692,74.112-32.523,96.542c0,0,43.38,43.366,86.183,86.163C223.079,510.392,239.35,512,256,512
	C395.988,512,509.713,399.634,511.947,260.178z"/>
<path style="fill:#FF8387;" d="M413.331,187.388c-53.934,0.972-104.814-4.775-109.415-23.398C278.298,60.309,278.174,43.003,256,43
	c-22.174,0.003-22.298,17.309-47.916,120.99c-4.601,18.623-55.481,24.37-109.415,23.398s-57.64,43.484-17.398,57.537
	c33.872,11.828,70.655,14.498,79.93,19.893c14.042,8.169,23.144,16.735-1.793,51.786c-31.936,44.888-60.808,80.715-38.276,104.589
	c16.238,17.206,42.335,5.68,86.41-49.07c35.33-43.887,48.239-39.594,48.458-39.517c0.219-0.077,13.128-4.37,48.458,39.517
	c44.075,54.75,70.172,66.276,86.41,49.07c22.532-23.874-6.34-59.701-38.276-104.589c-24.937-35.051-15.835-43.617-1.793-51.786
	c9.275-5.395,46.058-8.065,79.93-19.893C470.971,230.872,467.265,186.416,413.331,187.388z"/>
<path style="fill:#FF5A60;" d="M430.73,244.93c-33.87,11.82-70.66,14.49-79.93,19.89c-14.04,8.17-23.14,16.73,1.79,51.78
	c31.94,44.89,60.81,80.72,38.28,104.59c-16.24,17.21-42.34,5.68-86.41-49.07c-35.33-43.88-48.24-39.59-48.46-39.51V43
	c22.17,0,22.3,17.31,47.92,120.99c4.6,18.62,55.48,24.37,109.41,23.4C467.27,186.42,470.97,230.87,430.73,244.93z"/>
<circle style="fill:#FB233B;" cx="256" cy="71.14" r="8.378"/>
<path style="fill:#C70C24;" d="M264.38,71.14c0,4.63-3.75,8.38-8.38,8.38V62.76C260.63,62.76,264.38,66.51,264.38,71.14z"/>
<circle style="fill:#FB233B;" cx="256" cy="112.56" r="12.03"/>
<path style="fill:#C70C24;" d="M268.03,112.56c0,6.64-5.39,12.03-12.03,12.03v-24.06C262.64,100.53,268.03,105.92,268.03,112.56z"/>
<circle style="fill:#FB233B;" cx="256" cy="161.14" r="18.319"/>
<path style="fill:#C70C24;" d="M274.32,161.14c0,10.12-8.2,18.32-18.32,18.32v-36.64C266.12,142.82,274.32,151.03,274.32,161.14z"/>
<g>
	<circle style="fill:#FB233B;" cx="148.44" cy="392.4" r="8.378"/>
	<circle style="fill:#FB233B;" cx="172.61" cy="358.76" r="12.03"/>
	<circle style="fill:#FB233B;" cx="200.95" cy="319.3" r="18.319"/>
</g>
<g>
	<circle style="fill:#C70C24;" cx="363.56" cy="392.4" r="8.378"/>
	<circle style="fill:#C70C24;" cx="339.39" cy="358.76" r="12.03"/>
	<circle style="fill:#C70C24;" cx="311.05" cy="319.3" r="18.319"/>
</g>
<g>
	<circle style="fill:#FB233B;" cx="89.02" cy="218.32" r="8.378"/>
	<circle style="fill:#FB233B;" cx="130.41" cy="219.87" r="12.03"/>
	<circle style="fill:#FB233B;" cx="178.96" cy="221.69" r="18.319"/>
</g>
<g>
	<circle style="fill:#C70C24;" cx="422.98" cy="218.32" r="8.378"/>
	<circle style="fill:#C70C24;" cx="381.59" cy="219.87" r="12.03"/>
	<circle style="fill:#C70C24;" cx="333.04" cy="221.69" r="18.319"/>
</g>
<g>
</g>
<g>
</g>
<g>
</g>
<g>
</g>
<g>
</g>
<g>
</g>
<g>
</g>
<g>
</g>
<g>
</g>
<g>
</g>
<g>
</g>
<g>
</g>
<g>
</g>
<g>
</g>
<g>
</g>
</svg>
