<?xml version="1.0" encoding="iso-8859-1"?>
<!-- Generator: Adobe Illustrator 19.0.0, SVG Export Plug-In . SVG Version: 6.00 Build 0)  -->
<svg version="1.1" id="Capa_1" xmlns="http://www.w3.org/2000/svg" xmlns:xlink="http://www.w3.org/1999/xlink" x="0px" y="0px"
	 viewBox="0 0 512 512" style="enable-background:new 0 0 512 512;" xml:space="preserve">
<circle style="fill:#6DE6FF;" cx="256" cy="256" r="256"/>
<path style="fill:#47BFFF;" d="M512,256c0-17.555-1.771-34.695-5.136-51.256l-84.589-84.691
	c-11.478-11.728-26.966-19.592-38.478-18.978c-22.342,1.193-34.922,30.388-40.979,50.597c-13.728-5.258-28.603-8.149-44.122-8.149
	h-85.391c-10.03,0-19.788,1.215-29.144,3.488l-35.462-35.464c-5.666-5.971-12.445-10.042-20.495-10.471
	c-27.067-1.445-76.125,43.963-43.312,76.302l23.771,23.56c0.011,0.012,0.022,0.025,0.033,0.037
	c-12.414,19.325-19.647,42.256-19.647,66.804v29.966c0,35.51,15.101,67.66,39.193,90.36L252.088,511.95
	c1.303,0.02,2.604,0.05,3.912,0.05C397.385,512,512,397.385,512,256z"/>
<path style="fill:#CE7937;" d="M383.797,101.076c-22.342,1.193-34.922,30.388-40.979,50.597
	c-13.728-5.258-28.603-8.149-44.122-8.149h-85.391c-15.519,0-30.394,2.892-44.122,8.149c-6.057-20.209-18.637-49.404-40.979-50.597
	c-32.245-1.721-95.705,63.051-14.77,93.007c-15.305,20.655-24.384,46.165-24.384,73.696v29.966
	C89.049,366.085,144.964,422,213.305,422h85.391c68.341,0,124.256-55.915,124.256-124.256v-29.966
	c0-27.531-9.079-53.041-24.384-73.696C479.502,164.126,416.041,99.354,383.797,101.076z"/>
<path style="fill:#984B04;" d="M398.57,194.08c15.3,20.66,24.38,46.17,24.38,73.7v29.96c0,68.34-55.91,124.26-124.25,124.26H256
	V143.52h42.7c15.51,0,30.39,2.89,44.12,8.15c6.05-20.21,18.63-49.4,40.98-50.59C416.04,99.35,479.5,164.13,398.57,194.08z"/>
<path style="fill:#FD990E;" d="M157.14,157.03c-12.88,6.57-24.48,15.34-34.3,25.79c-48.38-18.28-10.04-57.34,9.48-56.3
	C145.8,127.24,153.44,144.77,157.14,157.03z"/>
<path style="fill:#FF750A;" d="M389.16,182.82c-9.82-10.45-21.42-19.22-34.3-25.79c3.7-12.26,11.34-29.79,24.82-30.51
	C399.2,125.48,437.54,164.54,389.16,182.82z"/>
<circle style="fill:#39373E;" cx="187.89" cy="256.47" r="19.684"/>
<circle style="fill:#0F0F11;" cx="324.11" cy="256.47" r="19.684"/>
<path style="fill:#FD990E;" d="M279.222,400.159h-46.443c-21.924,0-39.862-17.938-39.862-39.862v-27.898
	c0-21.924,17.938-39.862,39.862-39.862h46.443c21.924,0,39.862,17.938,39.862,39.862v27.898
	C319.084,382.221,301.146,400.159,279.222,400.159z"/>
<path style="fill:#FF750A;" d="M319.08,332.4v27.9c0,21.92-17.93,39.86-39.86,39.86H256V292.54h23.22c0.19,0,0.38,0,0.56,0.01
	C301.46,292.85,319.08,310.66,319.08,332.4z"/>
<rect x="218.5" y="353.42" style="fill:#39373E;" width="74.995" height="14.09"/>
<rect x="256" y="353.43" style="fill:#0F0F11;" width="37.499" height="14.08"/>
<path style="fill:#39373E;" d="M271.5,287.457h-15.497h-0.005H240.5c-7.444,0-11.895,8.36-7.664,14.484
	c5.956,8.62,14.398,17.893,23.161,17.896l0,0h0.002H256h0.001c8.763-0.003,17.205-9.276,23.161-17.896
	C283.395,295.817,278.944,287.457,271.5,287.457z"/>
<path style="fill:#0F0F11;" d="M279.16,301.94c-2.98,4.31-6.57,8.78-10.52,12.18c-3.95,3.4-8.26,5.72-12.64,5.72v-32.38h15.5
	c3.78,0,6.79,2.16,8.28,5.09C281.23,295.38,281.24,298.93,279.16,301.94z"/>
<g>
</g>
<g>
</g>
<g>
</g>
<g>
</g>
<g>
</g>
<g>
</g>
<g>
</g>
<g>
</g>
<g>
</g>
<g>
</g>
<g>
</g>
<g>
</g>
<g>
</g>
<g>
</g>
<g>
</g>
</svg>
