<?xml version="1.0" encoding="iso-8859-1"?>
<!-- Generator: Adobe Illustrator 19.0.0, SVG Export Plug-In . SVG Version: 6.00 Build 0)  -->
<svg version="1.1" id="Capa_1" xmlns="http://www.w3.org/2000/svg" xmlns:xlink="http://www.w3.org/1999/xlink" x="0px" y="0px"
	 viewBox="0 0 512 512" style="enable-background:new 0 0 512 512;" xml:space="preserve">
<circle style="fill:#17ACE8;" cx="256" cy="256" r="256"/>
<path style="fill:#136EF1;" d="M503.502,321.6l-192.96-192.96L153.744,229.6l56.471,55.061L124,406.187l104.32,104.32
	C237.414,511.484,246.646,512,256,512C374.707,512,474.528,431.199,503.502,321.6z"/>
<path style="fill:#10BB67;" d="M334.671,182.607l-11.968,10.913H187.184l-9.856-10.913l4.575-18.89
	c8.449-34.144,38.896-57.904,74.096-57.904s65.648,23.76,74.096,57.904L334.671,182.607z"/>
<path style="fill:#0CA656;" d="M334.671,182.607l-11.968,10.913H256v-87.707c35.2,0,65.648,23.76,74.096,57.904L334.671,182.607z"/>
<path style="fill:#10BB67;" d="M361.071,361.071L335.2,406.187H176.8l-22-44.059l22-67.056c7.04-3.695,19.008-7.92,35.2-10.736
	L250.016,322l5.984-4.576l44-33.088c16.192,2.816,28.16,7.04,35.2,10.736L361.071,361.071z"/>
<path style="fill:#0CA656;" d="M361.071,361.071L335.2,406.187H256v-88.763l44-33.088c16.192,2.816,28.16,7.04,35.2,10.736
	L361.071,361.071z"/>
<path style="fill:#FEB756;" d="M388,379.2v26.987h-52.8V295.071C368.464,310.736,388,340.48,388,379.2z"/>
<g>
	<path style="fill:#FEC478;" d="M176.8,295.071v111.115H124V379.2C124,340.48,143.536,310.736,176.8,295.071z"/>
	<path style="fill:#FEC478;" d="M300,284.336V308.8c0,24.288-19.712,44-44,44s-44-19.712-44-44v-24.464
		c8.096-1.232,19.008-1.936,26.4-1.936h35.2C280.992,282.4,291.904,283.104,300,284.336z"/>
</g>
<path style="fill:#FEB756;" d="M273.6,282.4c7.392,0,18.304,0.704,26.4,1.936V308.8c0,24.288-19.712,44-44,44v-70.4H273.6z"/>
<path style="fill:#FEDBAB;" d="M194.4,212v26.4c0,33.968,27.632,61.6,61.6,61.6s61.6-27.632,61.6-61.6V212H194.4z"/>
<path style="fill:#FEC478;" d="M256,212h61.6v26.4c0,33.968-27.632,61.6-61.6,61.6V212z"/>
<polygon style="fill:#32D736;" points="358.256,229.6 153.744,229.6 177.329,182.607 334.671,182.607 "/>
<polygon style="fill:#10BB67;" points="358.256,229.6 256,229.6 256,182.607 334.671,182.607 "/>
<g>
</g>
<g>
</g>
<g>
</g>
<g>
</g>
<g>
</g>
<g>
</g>
<g>
</g>
<g>
</g>
<g>
</g>
<g>
</g>
<g>
</g>
<g>
</g>
<g>
</g>
<g>
</g>
<g>
</g>
</svg>
