<?xml version="1.0" encoding="iso-8859-1"?>
<!-- Generator: Adobe Illustrator 19.0.0, SVG Export Plug-In . SVG Version: 6.00 Build 0)  -->
<svg version="1.1" id="Capa_1" xmlns="http://www.w3.org/2000/svg" xmlns:xlink="http://www.w3.org/1999/xlink" x="0px" y="0px"
	 viewBox="0 0 512 512" style="enable-background:new 0 0 512 512;" xml:space="preserve">
<circle style="fill:#005ED1;" cx="256" cy="256" r="256"/>
<path style="fill:#053D8A;" d="M510.69,282.048L344.3,115.658c-32.351-32.791-67.952-62.888-88.302-62.888
	c-41.87,0-148.304,127.404-158.15,143.548c-3.392,5.561-0.335,14.198,8.702,23.515l111.982,111.995
	c-4.152,17.206-10.331,34.706-19.496,50.19c-13.125,22.176-11.552,47.692,5.253,64.299l65.516,65.308
	C396.091,504.915,498.094,406.686,510.69,282.048z"/>
<path style="fill:#FFFFFF;" d="M312.96,382.02c-33.039-55.824-27.342-137.852-27.342-137.852H256h-0.004h-29.617
	c0,0,5.696,82.027-27.342,137.852c-21.594,36.486-3.418,82.026,56.96,82.027l0,0c0,0,0.001,0,0.002,0H256l0,0
	C316.379,464.045,334.554,418.506,312.96,382.02z"/>
<path style="fill:#FDEA93;" d="M285.618,244.168c0,0-5.696,82.027,27.342,137.852c21.594,36.487,3.418,82.027-56.964,82.027V244.168
	H285.618z"/>
<path style="fill:#FB233B;" d="M414.149,196.319c-9.846-16.144-116.281-143.548-158.15-143.548S107.694,180.175,97.849,196.319
	c-11.117,18.228,46.979,69.495,158.15,69.495S425.266,214.547,414.149,196.319z"/>
<path style="fill:#C70C24;" d="M255.999,265.812V52.771c41.865,0,148.305,127.4,158.155,143.551
	C425.263,214.547,367.172,265.812,255.999,265.812z"/>
<path style="fill:#FFFFFF;" d="M205.812,96.922c0,11.996-9.721,21.728-21.718,21.728c-5.395,0-10.341-1.976-14.144-5.256
	c10.415-10.479,21.13-20.606,31.524-29.494C204.199,87.532,205.812,92.04,205.812,96.922z"/>
<path style="fill:#FDEA93;" d="M342.046,113.394c-3.803,3.28-8.738,5.256-14.154,5.256c-11.996,0-21.718-9.732-21.718-21.728
	c0-4.882,1.613-9.401,4.337-13.033C320.656,92.5,331.25,102.5,342.046,113.394z"/>
<circle style="fill:#FFFFFF;" cx="256" cy="170.28" r="21.721"/>
<path style="fill:#FDEA93;" d="M277.716,170.278c0,11.996-9.721,21.718-21.718,21.718v-43.435
	C267.995,148.561,277.716,158.282,277.716,170.278z"/>
<circle style="fill:#FFFFFF;" cx="162.38" cy="198.76" r="21.721"/>
<circle style="fill:#FDEA93;" cx="349.62" cy="198.76" r="21.721"/>
<g>
</g>
<g>
</g>
<g>
</g>
<g>
</g>
<g>
</g>
<g>
</g>
<g>
</g>
<g>
</g>
<g>
</g>
<g>
</g>
<g>
</g>
<g>
</g>
<g>
</g>
<g>
</g>
<g>
</g>
</svg>
