<?xml version="1.0" encoding="iso-8859-1"?>
<!-- Generator: Adobe Illustrator 19.0.0, SVG Export Plug-In . SVG Version: 6.00 Build 0)  -->
<svg version="1.1" id="Capa_1" xmlns="http://www.w3.org/2000/svg" xmlns:xlink="http://www.w3.org/1999/xlink" x="0px" y="0px"
	 viewBox="0 0 512 512" style="enable-background:new 0 0 512 512;" xml:space="preserve">
<circle style="fill:#C8EC4B;" cx="256" cy="256" r="256"/>
<path style="fill:#A8D32A;" d="M511.522,271.462L377.75,137.69L226.786,90.428L134.25,439l67.143,67.143
	C218.991,509.967,237.257,512,256,512C392.192,512,503.526,405.645,511.522,271.462z"/>
<path style="fill:#DE1F4B;" d="M256,57.5l-121.75,80.19V439h243.5V137.69L256,57.5z M256,159.5c-14.635,0-26.5-11.865-26.5-26.5
	s11.865-26.5,26.5-26.5c14.635,0,26.5,11.865,26.5,26.5S270.635,159.5,256,159.5z"/>
<path style="fill:#B70E38;" d="M255.952,106.501c0.016,0,0.031-0.001,0.048-0.001c14.635,0,26.5,11.865,26.5,26.5
	s-11.865,26.5-26.5,26.5c-0.016,0-0.032-0.001-0.048-0.001V439H377.75V137.69L256,57.5L255.952,106.501z"/>
<rect x="245.998" y="160.959" transform="matrix(-0.7071 -0.7071 0.7071 -0.7071 260.3247 607.5855)" style="fill:#FFFFFF;" width="20" height="177.838"/>
<polygon style="fill:#E0E0E0;" points="311.804,179.929 255.952,235.78 255.952,264.065 325.946,194.071 "/>
<path style="fill:#FFFFFF;" d="M216.875,244.5c-18.609,0-33.75-15.14-33.75-33.75S198.266,177,216.875,177s33.75,15.14,33.75,33.75
	S235.484,244.5,216.875,244.5z M216.875,197c-7.582,0-13.75,6.168-13.75,13.75s6.168,13.75,13.75,13.75s13.75-6.168,13.75-13.75
	S224.457,197,216.875,197z"/>
<path style="fill:#E0E0E0;" d="M295.125,322.75c-18.609,0-33.75-15.14-33.75-33.75s15.141-33.75,33.75-33.75
	s33.75,15.14,33.75,33.75S313.734,322.75,295.125,322.75z M295.125,275.25c-7.582,0-13.75,6.168-13.75,13.75
	s6.168,13.75,13.75,13.75s13.75-6.168,13.75-13.75S302.707,275.25,295.125,275.25z"/>
<path style="fill:#FFFFFF;" d="M289.405,405.345c0,18.449-14.956,5.202-33.405,5.202s-33.405,13.248-33.405-5.202
	S237.551,371.94,256,371.94S289.405,386.896,289.405,405.345z"/>
<path style="fill:#E0E0E0;" d="M256,371.939c-0.016,0-0.032,0.001-0.048,0.001v38.607c0.016,0,0.031-0.001,0.048-0.001
	c18.449,0,33.406,13.248,33.406-5.202C289.406,386.896,274.449,371.939,256,371.939z"/>
<ellipse style="fill:#FFFFFF;" cx="256" cy="354.14" rx="9.132" ry="11.79"/>
<path style="fill:#E0E0E0;" d="M256,342.348c-0.016,0-0.031,0.003-0.048,0.003v23.574c0.016,0,0.031,0.003,0.048,0.003
	c5.043,0,9.132-5.279,9.132-11.79C265.132,347.627,261.043,342.348,256,342.348z"/>
<ellipse style="fill:#FFFFFF;" cx="213.23" cy="384.19" rx="9.132" ry="11.79"/>
<g>
	<ellipse style="fill:#E0E0E0;" cx="298.77" cy="384.19" rx="9.132" ry="11.79"/>
	<ellipse style="fill:#E0E0E0;" cx="281.31" cy="363.15" rx="9.132" ry="11.79"/>
</g>
<ellipse style="fill:#FFFFFF;" cx="230.69" cy="363.15" rx="9.132" ry="11.79"/>
<g>
</g>
<g>
</g>
<g>
</g>
<g>
</g>
<g>
</g>
<g>
</g>
<g>
</g>
<g>
</g>
<g>
</g>
<g>
</g>
<g>
</g>
<g>
</g>
<g>
</g>
<g>
</g>
<g>
</g>
</svg>
