<?xml version="1.0" encoding="iso-8859-1"?>
<!-- Generator: Adobe Illustrator 19.0.0, SVG Export Plug-In . SVG Version: 6.00 Build 0)  -->
<svg version="1.1" id="Capa_1" xmlns="http://www.w3.org/2000/svg" xmlns:xlink="http://www.w3.org/1999/xlink" x="0px" y="0px"
	 viewBox="0 0 512 512" style="enable-background:new 0 0 512 512;" xml:space="preserve">
<circle style="fill:#FEDB41;" cx="256" cy="256" r="256"/>
<path style="fill:#FEA832;" d="M512,256c0-7.623-0.353-15.162-1.006-22.615L419,141.391l-253.333,13.943l-56.333,30.333L93,332.406
	l20,19.102L93,370.61l140.385,140.385C240.838,511.647,248.377,512,256,512C397.385,512,512,397.385,512,256z"/>
<path style="fill:#57555C;" d="M205.436,300.573h-72.06c-1.436,4.095-2.173,8.376-2.173,12.731c0,21.07,17.134,38.203,38.203,38.203
	s38.203-17.134,38.203-38.203C207.609,308.949,206.873,304.668,205.436,300.573z"/>
<path style="fill:#3C3A41;" d="M377.987,300.573h-72.06c-1.436,4.095-2.173,8.376-2.173,12.731c0,21.07,17.134,38.203,38.203,38.203
	s38.203-17.134,38.203-38.203C380.16,308.949,379.423,304.668,377.987,300.573z"/>
<g>
	<path style="fill:#664B34;" d="M256,236.898c-15.855,0-28.652,12.798-28.652,28.652v28.652h76.406v-57.305L256,236.898L256,236.898
		z"/>
	<path style="fill:#664B34;" d="M188.508,150.941v85.957h-28.652c-15.8,0-28.652,12.853-28.652,28.652v28.652h76.406v-47.754v-9.551
		V150.94L188.508,150.941L188.508,150.941z"/>
</g>
<path style="fill:#59422D;" d="M380.16,150.941v85.957h-28.652c-15.8,0-28.652,12.853-28.652,28.652v28.652h76.406v-47.754v-9.551
	V150.94L380.16,150.941L380.16,150.941z"/>
<path style="fill:#FD3018;" d="M419,141.391v19.102H178.957c-36.866,0-66.855,29.99-66.855,66.855v74.114L93,275.102v-47.754
	c0-47.373,38.586-85.957,85.957-85.957L419,141.391L419,141.391z"/>
<rect x="256" y="141.39" style="fill:#E61E14;" width="163" height="19.1"/>
<rect x="93" y="351.51" style="fill:#6ECD24;" width="326" height="19.1"/>
<polygon style="fill:#59422D;" points="284.652,217.797 284.652,236.898 256,236.898 256,294.203 303.754,294.203 303.754,265.551 
	303.754,236.898 303.754,217.797 "/>
<rect x="256" y="351.51" style="fill:#66BD21;" width="163" height="19.1"/>
<path style="fill:#FD3018;" d="M93,275.102v57.305h326v-57.305H93z"/>
<rect x="256" y="275.1" style="fill:#E61E14;" width="163" height="57.3"/>
<g>
</g>
<g>
</g>
<g>
</g>
<g>
</g>
<g>
</g>
<g>
</g>
<g>
</g>
<g>
</g>
<g>
</g>
<g>
</g>
<g>
</g>
<g>
</g>
<g>
</g>
<g>
</g>
<g>
</g>
</svg>
