<?xml version="1.0" encoding="iso-8859-1"?>
<!-- Generator: Adobe Illustrator 19.0.0, SVG Export Plug-In . SVG Version: 6.00 Build 0)  -->
<svg version="1.1" id="Capa_1" xmlns="http://www.w3.org/2000/svg" xmlns:xlink="http://www.w3.org/1999/xlink" x="0px" y="0px"
	 viewBox="0 0 512 512" style="enable-background:new 0 0 512 512;" xml:space="preserve">
<circle style="fill:#6DE6FF;" cx="256" cy="256" r="256"/>
<path style="fill:#47BFFF;" d="M511.71,268.051L353.064,109.405c-11.15-13.014-27.693-21.271-46.175-21.271
	c-33.577,0-60.796,27.219-60.796,60.796c0,3.853,0.362,7.621,1.049,11.274l-50.019-49.911L53.607,389l102.976,102.976
	C187.15,504.87,220.742,512,256,512C393.345,512,505.416,403.839,511.71,268.051z"/>
<circle style="fill:#FFE570;" cx="306.89" cy="148.93" r="60.796"/>
<path style="fill:#FDB500;" d="M367.68,148.93c0,33.58-27.21,60.8-60.79,60.8V88.13C340.47,88.13,367.68,115.35,367.68,148.93z"/>
<polygon style="fill:#C08963;" points="366.081,209.729 273.769,389 458.393,389 "/>
<polygon style="fill:#956642;" points="458.393,389 366.082,389 366.082,209.726 "/>
<polygon style="fill:#E4CCBC;" points="197.122,110.292 53.607,389 340.637,389 "/>
<polygon style="fill:#D1AD90;" points="340.632,389 197.125,389 197.125,110.293 "/>
<path style="fill:#4BCE5C;" d="M256,512c95.936,0,179.531-52.781,223.372-130.88H32.628C76.469,459.219,160.064,512,256,512z"/>
<g>
	<path style="fill:#07A171;" d="M479.37,381.12C435.53,459.22,351.94,512,256,512V381.12H479.37z"/>
	<rect x="106.68" y="403.86" style="fill:#07A171;" width="71.67" height="16.391"/>
	<rect x="160.33" y="447.06" style="fill:#07A171;" width="71.67" height="16.391"/>
</g>
<g>
	<rect x="273.57" y="447.06" style="fill:#4BCE5C;" width="57.44" height="16.391"/>
	<rect x="350.03" y="447.06" style="fill:#4BCE5C;" width="18.631" height="16.391"/>
	<rect x="337.65" y="403.86" style="fill:#4BCE5C;" width="71.67" height="16.391"/>
</g>
<g>
</g>
<g>
</g>
<g>
</g>
<g>
</g>
<g>
</g>
<g>
</g>
<g>
</g>
<g>
</g>
<g>
</g>
<g>
</g>
<g>
</g>
<g>
</g>
<g>
</g>
<g>
</g>
<g>
</g>
</svg>
