<?xml version="1.0" encoding="iso-8859-1"?>
<!-- Generator: Adobe Illustrator 19.0.0, SVG Export Plug-In . SVG Version: 6.00 Build 0)  -->
<svg version="1.1" id="Capa_1" xmlns="http://www.w3.org/2000/svg" xmlns:xlink="http://www.w3.org/1999/xlink" x="0px" y="0px"
	 viewBox="0 0 512 512" style="enable-background:new 0 0 512 512;" xml:space="preserve">
<circle style="fill:#1F66CC;" cx="256" cy="256" r="256"/>
<path style="fill:#154797;" d="M260.115,511.948c123.802-1.953,226.26-91.771,247.736-209.842l-97.517-97.517l-7.08,13.513
	l-26.883-26.883l-1.017,1.58l-36.804-36.804l-11.221,14.703l-38.543-38.543L73,324.833L260.115,511.948z"/>
<path style="fill:#D59134;" d="M382.63,220.26c-5.104-7.884-0.742-22.264-6.26-29.042c-5.936-7.291-20.874-5.798-27.215-11.808
	c-6.818-6.463-6.303-21.472-13.495-26.454c-7.694-5.329-21.47,0.585-29.477-3.049c-8.451-3.836-13.249-18.045-21.913-19.992
	c-8.935-2.008-19.261,8.842-28.272,8.842c-9.011,0-19.338-10.849-28.273-8.841c-8.664,1.948-13.461,16.157-21.912,19.993
	c-8.006,3.634-21.782-2.28-29.476,3.049c-7.191,4.981-6.676,19.99-13.493,26.453c-6.339,6.009-21.277,4.516-27.212,11.805
	c-5.519,6.778-1.157,21.159-6.263,29.045L382.63,220.26z"/>
<path style="fill:#AA6B21;" d="M376.37,191.218c-5.936-7.291-20.875-5.798-27.215-11.808c-6.818-6.463-6.303-21.472-13.495-26.454
	c-7.694-5.329-21.47,0.585-29.477-3.049c-8.451-3.836-13.249-18.045-21.913-19.992c-8.935-2.008-19.261,8.842-28.272,8.842
	c-0.015,0-0.03-0.002-0.045-0.002v81.505h126.678C377.526,212.376,381.888,197.996,376.37,191.218z"/>
<polygon style="fill:#F9C41E;" points="427.35,300.078 84.65,300.078 101.666,204.589 410.334,204.589 "/>
<g>
	<polygon style="fill:#FE9A35;" points="410.334,204.589 255.952,204.589 255.952,300.078 427.35,300.078 	"/>
	<rect x="73" y="281.33" style="fill:#FE9A35;" width="366" height="43.5"/>
</g>
<rect x="255.95" y="281.33" style="fill:#FF7C11;" width="183.05" height="43.5"/>
<g>
</g>
<g>
</g>
<g>
</g>
<g>
</g>
<g>
</g>
<g>
</g>
<g>
</g>
<g>
</g>
<g>
</g>
<g>
</g>
<g>
</g>
<g>
</g>
<g>
</g>
<g>
</g>
<g>
</g>
</svg>
