<?xml version="1.0" encoding="iso-8859-1"?>
<!-- Generator: Adobe Illustrator 19.0.0, SVG Export Plug-In . SVG Version: 6.00 Build 0)  -->
<svg version="1.1" id="Capa_1" xmlns="http://www.w3.org/2000/svg" xmlns:xlink="http://www.w3.org/1999/xlink" x="0px" y="0px"
	 viewBox="0 0 512 512" style="enable-background:new 0 0 512 512;" xml:space="preserve">
<circle style="fill:#FDE472;" cx="256" cy="256" r="256"/>
<path style="fill:#FDB500;" d="M511.778,266.256L300.074,54.341c-1.636-1.756-3.561-3.131-5.761-4.042
	c-12.084-5.003-28.164,5.753-37.145,24.29l-15.161-15.17c-8.421-8.635-18.469-12.504-26.674-9.104
	c-12.83,5.317-16.285,26.385-7.718,47.057c0.263,0.634,0.534,1.259,0.813,1.877c-0.618-0.278-1.244-0.55-1.878-0.812
	c-20.675-8.559-41.741-5.095-47.054,7.737c-3.235,7.815,0.124,17.301,7.914,25.458l16.368,16.371
	c-18.528,8.99-29.273,25.071-24.267,37.151c0.662,1.596,1.568,3.048,2.686,4.348l83.059,83.057v60.397h-34.162
	c-24.75,0-45,20.25-45,45v25l108.375,108.375C403.856,502.105,506.635,396.731,511.778,266.256z"/>
<path style="fill:#4BCE5C;" d="M337.736,267.843c0,0-32.856-11.153-56.445-0.141c-23.59,11.011-19.423,35.556-19.423,35.556
	s16.139,18.956,39.729,7.945C325.186,300.191,337.736,267.843,337.736,267.843z"/>
<path style="fill:#07A171;" d="M301.596,311.203c-23.588,11.011-39.727-7.946-39.727-7.946l75.867-35.414
	C337.735,267.844,325.186,300.192,301.596,311.203z"/>
<rect x="246.41" y="195.08" style="fill:#4BCE5C;" width="19.18" height="142.35"/>
<rect x="256" y="195.07" style="fill:#07A171;" width="9.588" height="142.36"/>
<path style="fill:#FB233B;" d="M323.526,148.308c-0.634-0.262-1.268-0.513-1.902-0.753c0.634-0.24,1.268-0.491,1.902-0.754
	c20.672-8.567,33.118-25.913,27.801-38.743c-5.317-12.83-26.385-16.285-47.057-7.718c-0.634,0.263-1.259,0.534-1.877,0.813
	c0.279-0.618,0.55-1.244,0.812-1.878c8.559-20.675,5.095-41.742-7.737-47.054s-30.173,7.142-38.732,27.817
	c-0.262,0.634-0.513,1.268-0.753,1.902c-0.24-0.634-0.491-1.268-0.753-1.902c-8.567-20.671-25.913-33.119-38.743-27.801
	s-16.285,26.385-7.718,47.057c0.263,0.634,0.534,1.259,0.813,1.877c-0.618-0.278-1.244-0.55-1.878-0.812
	c-20.675-8.559-41.742-5.095-47.054,7.737s7.142,30.173,27.817,38.732c0.634,0.262,1.268,0.513,1.902,0.753
	c-0.634,0.24-1.268,0.491-1.902,0.753c-20.671,8.567-33.118,25.913-27.801,38.743s26.385,16.285,47.057,7.718
	c0.634-0.263,1.259-0.534,1.877-0.813c-0.278,0.618-0.55,1.244-0.812,1.878c-8.559,20.675-5.095,41.742,7.737,47.054
	s30.173-7.142,38.732-27.817c0.262-0.634,0.513-1.268,0.753-1.902c0.24,0.634,0.491,1.268,0.754,1.902
	c8.567,20.672,25.913,33.118,38.743,27.801c12.83-5.317,16.285-26.385,7.718-47.057c-0.263-0.634-0.534-1.259-0.813-1.877
	c0.618,0.279,1.244,0.55,1.878,0.812c20.675,8.559,41.741,5.095,47.054-7.737C356.654,174.208,344.201,156.867,323.526,148.308z"/>
<path style="fill:#C70C24;" d="M323.532,148.308c-0.637-0.268-1.275-0.51-1.913-0.752c0.638-0.242,1.275-0.497,1.913-0.752
	c20.67-8.569,33.115-25.911,27.798-38.739c-5.317-12.84-26.383-16.296-47.065-7.727c-0.625,0.268-1.25,0.536-1.874,0.816
	c0.28-0.612,0.548-1.25,0.816-1.874c8.556-20.683,5.088-41.748-7.74-47.052c-12.828-5.317-30.17,7.141-38.726,27.811
	c-0.268,0.625-0.51,1.25-0.74,1.862V213.24c0-0.013,0.013-0.025,0.013-0.038c0.242,0.625,0.484,1.262,0.752,1.9
	c2.856,6.898,6.694,12.879,11.03,17.584c8.607,9.41,19.165,13.759,27.709,10.214c12.828-5.317,16.283-26.383,7.715-47.052
	c-0.255-0.638-0.523-1.262-0.803-1.874c0.612,0.268,1.237,0.548,1.874,0.803c20.67,8.556,41.735,5.101,47.052-7.74
	C356.66,174.206,344.202,156.865,323.532,148.308z"/>
<circle style="fill:#FDE472;" cx="256" cy="147.57" r="30.641"/>
<path style="fill:#FDB500;" d="M267.732,175.877c-3.838,1.594-7.817,2.346-11.731,2.346v-61.308
	c12.012,0,23.411,7.128,28.308,18.923C290.786,151.471,283.365,169.399,267.732,175.877z"/>
<path style="fill:#AE4A04;" d="M344.75,404.881h-177.5v-25c0-24.75,20.25-45,45-45h87.5c24.75,0,45,20.25,45,45V404.881z"/>
<path style="fill:#A94F1F;" d="M344.75,379.881v25H256v-70h43.75C324.5,334.881,344.75,355.131,344.75,379.881z"/>
<path style="fill:#CE7937;" d="M486.25,368C444.72,453.25,357.22,512,256,512S67.28,453.25,25.75,368H486.25z"/>
<g>
	<path style="fill:#AE4A04;" d="M486.25,368C444.72,453.25,357.22,512,256,512V368H486.25z"/>
	<rect x="93.81" y="399.5" style="fill:#AE4A04;" width="80.887" height="18.5"/>
	<rect x="154.36" y="440.56" style="fill:#AE4A04;" width="80.887" height="18.5"/>
</g>
<g>
	<rect x="282.17" y="428.06" style="fill:#CE7937;" width="64.831" height="18.5"/>
	<rect x="368.47" y="428.06" style="fill:#CE7937;" width="21.03" height="18.5"/>
	<rect x="354.5" y="387" style="fill:#CE7937;" width="80.887" height="18.5"/>
</g>
<g>
</g>
<g>
</g>
<g>
</g>
<g>
</g>
<g>
</g>
<g>
</g>
<g>
</g>
<g>
</g>
<g>
</g>
<g>
</g>
<g>
</g>
<g>
</g>
<g>
</g>
<g>
</g>
<g>
</g>
</svg>
