<?xml version="1.0" encoding="iso-8859-1"?>
<!-- Generator: Adobe Illustrator 19.0.0, SVG Export Plug-In . SVG Version: 6.00 Build 0)  -->
<svg version="1.1" id="Capa_1" xmlns="http://www.w3.org/2000/svg" xmlns:xlink="http://www.w3.org/1999/xlink" x="0px" y="0px"
	 viewBox="0 0 512 512" style="enable-background:new 0 0 512 512;" xml:space="preserve">
<circle style="fill:#FD3018;" cx="256" cy="256" r="256"/>
<path style="fill:#DA0100;" d="M307.676,506.781c109.426-22.43,193.382-114.684,203.318-228.164L409,176.623l-63.389-49.611
	l-40-40.35L107.168,226.234l33,32.287L152,344.689l74.234,74.234v6.416L307.676,506.781z"/>
<path style="fill:#896748;" d="M226.234,86.662v338.676h79.377V86.662H226.234z"/>
<rect x="265.92" y="86.66" style="fill:#664B34;" width="39.689" height="338.68"/>
<g>
	<path style="fill:#FCBF29;" d="M359.389,127.012H107.168v99.222H359.39L409,176.623L359.389,127.012z"/>
	<path style="fill:#FCBF29;" d="M152.611,246.078L103,295.689l49.611,49.611h252.222v-99.221L152.611,246.078L152.611,246.078z"/>
</g>
<g>
	<rect x="265.92" y="246.08" style="fill:#FEA832;" width="138.91" height="99.22"/>
	<polygon style="fill:#FEA832;" points="359.389,226.234 265.922,226.234 265.922,127.012 359.389,127.012 409,176.623 	"/>
</g>
<g>
	<rect x="166.7" y="166.7" style="fill:#FE8821;" width="158.75" height="19.844"/>
	<rect x="186.54" y="285.77" style="fill:#FE8821;" width="158.75" height="19.844"/>
</g>
<g>
	<rect x="265.92" y="166.7" style="fill:#E5741A;" width="59.53" height="19.844"/>
	<rect x="265.92" y="285.77" style="fill:#E5741A;" width="79.38" height="19.844"/>
</g>
<g>
</g>
<g>
</g>
<g>
</g>
<g>
</g>
<g>
</g>
<g>
</g>
<g>
</g>
<g>
</g>
<g>
</g>
<g>
</g>
<g>
</g>
<g>
</g>
<g>
</g>
<g>
</g>
<g>
</g>
</svg>
