<?xml version="1.0" encoding="iso-8859-1"?>
<!-- Generator: Adobe Illustrator 19.0.0, SVG Export Plug-In . SVG Version: 6.00 Build 0)  -->
<svg version="1.1" id="Capa_1" xmlns="http://www.w3.org/2000/svg" xmlns:xlink="http://www.w3.org/1999/xlink" x="0px" y="0px"
	 viewBox="0 0 512 512" style="enable-background:new 0 0 512 512;" xml:space="preserve">
<circle style="fill:#17ACE8;" cx="256" cy="256" r="256"/>
<path style="fill:#136EF1;" d="M512,256c0-6.284-0.237-12.512-0.682-18.682L379.887,105.887L117,395l115.956,115.956
	C240.549,511.634,248.231,512,256,512C397.385,512,512,397.385,512,256z"/>
<path style="fill:#FEDBAB;" d="M202.237,270.423L117,355.66c-10.884,10.884-10.884,28.456,0,39.34s28.456,10.884,39.34,0
	l85.237-85.237L202.237,270.423z"/>
<path style="fill:#FEC478;" d="M241.577,309.763L156.34,395c-10.884,10.884-28.456,10.884-39.34,0l104.907-104.907L241.577,309.763z
	"/>
<path style="fill:#FE73B1;" d="M409.916,219.842l9.311-11.147l-13.9-3.934c-4.589-1.18-8.917-3.671-12.327-7.081
	c-10.884-10.884-10.884-28.456,0-39.34c3.41-3.41,7.737-5.901,12.327-7.081l13.9-3.934l-9.311-11.147
	c-1.18-1.442-2.492-2.754-3.803-4.065l-26.227-26.227c-25.309-25.309-66.485-25.309-91.794,0l-138.308,138.31l118.021,118.021
	l138.309-138.309C407.424,222.596,408.736,221.285,409.916,219.842z"/>
<path style="fill:#FE52A2;" d="M406.113,223.907L267.804,362.216l-59.01-59.01L393,119l13.113,13.113
	c1.311,1.311,2.623,2.623,3.803,4.065l9.311,11.147l-13.9,3.934c-4.589,1.18-8.917,3.671-12.327,7.081
	c-10.884,10.884-10.884,28.456,0,39.34c3.41,3.41,7.737,5.901,12.327,7.081l13.9,3.934l-9.311,11.147
	C408.736,221.285,407.424,222.596,406.113,223.907z"/>
<rect x="297.954" y="210.192" transform="matrix(-0.7071 -0.7071 0.7071 -0.7071 343.1335 656.1143)" style="fill:#E82386;" width="18.998" height="93.599"/>
<g>
	
		<rect x="234.424" y="221.31" transform="matrix(-0.7071 0.7071 -0.7071 -0.7071 643.2568 195.091)" style="fill:#FE318F;" width="93.599" height="18.916"/>
	
		<rect x="245.494" y="157.748" transform="matrix(-0.7071 -0.7071 0.7071 -0.7071 290.6628 529.4906)" style="fill:#FE318F;" width="18.998" height="93.599"/>
</g>
<rect x="279.834" y="187.315" transform="matrix(-0.7071 -0.7071 0.7071 -0.7071 320.2343 600.8754)" style="fill:#E82386;" width="9.458" height="93.599"/>
<g>
</g>
<g>
</g>
<g>
</g>
<g>
</g>
<g>
</g>
<g>
</g>
<g>
</g>
<g>
</g>
<g>
</g>
<g>
</g>
<g>
</g>
<g>
</g>
<g>
</g>
<g>
</g>
<g>
</g>
</svg>
