<?xml version="1.0" encoding="iso-8859-1"?>
<!-- Generator: Adobe Illustrator 19.0.0, SVG Export Plug-In . SVG Version: 6.00 Build 0)  -->
<svg version="1.1" id="Capa_1" xmlns="http://www.w3.org/2000/svg" xmlns:xlink="http://www.w3.org/1999/xlink" x="0px" y="0px"
	 viewBox="0 0 512 512" style="enable-background:new 0 0 512 512;" xml:space="preserve">
<circle style="fill:#FFE570;" cx="256" cy="256" r="256"/>
<path style="fill:#FDB500;" d="M512,256c0-2.264-0.031-4.521-0.09-6.771c-0.591,0.001-1.194,0.009-1.819,0.028
	c0.587-0.37,1.182-0.722,1.78-1.067c-0.106-3.554-0.286-7.09-0.536-10.607L377.75,103.999c0,0-68.56-19.601-107.496,91.674
	l-65.92-65.887c-34.469-35.971-70.084-25.787-70.084-25.787l34.755,34.206c12.993,23.269,21.462,54.696,26.978,86.218l-33.21-33.163
	c-37.521-40.163-81.523-30.5-81.523-30.5l46.671,46.863c10.342,22.117,16.469,48.606,20.097,72.708
	c-0.036-0.033-0.073-0.065-0.109-0.098l-18.066-18.156c-29.939-31.631-69.518-24.871-69.518-24.871l43.14,43.131
	C116.133,312.392,115.451,350,115.451,350l161.171,161.171C408.362,500.669,512,390.442,512,256z"/>
<path style="fill:#07A171;" d="M115.451,350c0,0,1.825-99.678-55.126-112.794c0,0,91.989-15.758,101.575,112.794H115.451z"/>
<path style="fill:#00693C;" d="M396.549,350c0,0-1.825-99.678,55.126-112.794c0,0-91.989-15.758-101.575,112.794H396.549z"/>
<path style="fill:#4BCE5C;" d="M153.25,350c0,0,2.384-167.235-72-189.24c0,0,120.146-26.438,132.667,189.24H153.25z"/>
<path style="fill:#07A171;" d="M206.25,350c0,0,2.384-217.396-72-246.001c0,0,120.145-34.368,132.667,246.001H206.25z"/>
<path style="fill:#00BA5F;" d="M358.75,350c0,0-2.384-167.235,72-189.24c0,0-120.146-26.438-132.667,189.24H358.75z"/>
<path style="fill:#00693C;" d="M305.75,350c0,0-2.384-217.396,72-246.001c0,0-120.146-34.368-132.667,246.001H305.75z"/>
<path style="fill:#CE7937;" d="M256,512c108.387,0,201.038-67.36,238.383-162.5H17.617C54.962,444.64,147.613,512,256,512z"/>
<g>
	<path style="fill:#AE4A04;" d="M494.38,349.5C457.04,444.64,364.39,512,256,512V349.5H494.38z"/>
	<rect x="93.81" y="382" style="fill:#AE4A04;" width="80.887" height="18.5"/>
	<rect x="154.36" y="430.75" style="fill:#AE4A04;" width="80.887" height="18.5"/>
</g>
<g>
	<rect x="282.17" y="430.75" style="fill:#CE7937;" width="64.831" height="18.5"/>
	<rect x="368.47" y="430.75" style="fill:#CE7937;" width="21.03" height="18.5"/>
	<rect x="354.5" y="382" style="fill:#CE7937;" width="80.887" height="18.5"/>
</g>
<g>
</g>
<g>
</g>
<g>
</g>
<g>
</g>
<g>
</g>
<g>
</g>
<g>
</g>
<g>
</g>
<g>
</g>
<g>
</g>
<g>
</g>
<g>
</g>
<g>
</g>
<g>
</g>
<g>
</g>
</svg>
