<?xml version="1.0" encoding="iso-8859-1"?>
<!-- Generator: Adobe Illustrator 19.0.0, SVG Export Plug-In . SVG Version: 6.00 Build 0)  -->
<svg version="1.1" id="Capa_1" xmlns="http://www.w3.org/2000/svg" xmlns:xlink="http://www.w3.org/1999/xlink" x="0px" y="0px"
	 viewBox="0 0 512 512" style="enable-background:new 0 0 512 512;" xml:space="preserve">
<circle style="fill:#DE1F4B;" cx="256" cy="256" r="256"/>
<path style="fill:#B70E38;" d="M512,256c0-6.935-0.285-13.802-0.827-20.598L393.886,118.114l-18.534,52.84l-103.22-103.22
	L65.731,269.863l96.368,96.367l-43.984,27.656l117.288,117.288C242.198,511.715,249.065,512,256,512
	C397.385,512,512,397.385,512,256z"/>
<circle style="fill:#00ECFF;" cx="256" cy="83.7" r="22.698"/>
<path style="fill:#00A2AA;" d="M256,61c-0.016,0-0.032,0.001-0.048,0.001v45.394c0.016,0,0.032,0.001,0.048,0.001
	c12.536,0,22.698-10.162,22.698-22.698S268.536,61,256,61z"/>
<circle style="fill:#00ECFF;" cx="256" cy="428.3" r="22.698"/>
<g>
	<path style="fill:#00A2AA;" d="M256,405.603c-0.016,0-0.032,0.001-0.048,0.001v45.394c0.016,0,0.032,0.001,0.048,0.001
		c12.536,0,22.698-10.162,22.698-22.698C278.698,415.766,268.536,405.603,256,405.603z"/>
	<circle style="fill:#00A2AA;" cx="428.3" cy="256" r="22.698"/>
</g>
<circle style="fill:#00ECFF;" cx="83.7" cy="256" r="22.698"/>
<circle style="fill:#00A2AA;" cx="377.84" cy="134.16" r="22.698"/>
<g>
	<circle style="fill:#00ECFF;" cx="134.16" cy="377.84" r="22.698"/>
	<circle style="fill:#00ECFF;" cx="134.16" cy="134.16" r="22.698"/>
</g>
<circle style="fill:#00A2AA;" cx="377.84" cy="377.83" r="22.698"/>
<circle style="fill:#91F3FF;" cx="256" cy="256" r="171.96"/>
<g>
	<path style="fill:#00ECFF;" d="M256,84.042c-0.016,0-0.032,0.001-0.048,0.001v343.914c0.016,0,0.032,0,0.048,0
		c94.97,0,171.958-76.988,171.958-171.958S350.97,84.042,256,84.042z"/>
	<circle style="fill:#00ECFF;" cx="256" cy="146.29" r="22.698"/>
</g>
<path style="fill:#00A2AA;" d="M256,123.593c-0.016,0-0.032,0.001-0.048,0.001v45.395c0.016,0,0.032,0.001,0.048,0.001
	c12.536,0,22.698-10.162,22.698-22.698C278.698,133.755,268.536,123.593,256,123.593z"/>
<circle style="fill:#00ECFF;" cx="256" cy="256" r="22.698"/>
<path style="fill:#00A2AA;" d="M256,233.302c-0.016,0-0.032,0.001-0.048,0.001v45.395c0.016,0,0.032,0.001,0.048,0.001
	c12.536,0,22.698-10.163,22.698-22.698C278.698,243.464,268.536,233.302,256,233.302z"/>
<circle style="fill:#00ECFF;" cx="256" cy="365.71" r="22.698"/>
<g>
	<path style="fill:#00A2AA;" d="M256,343.01c-0.016,0-0.032,0.001-0.048,0.001v45.395c0.016,0,0.032,0.001,0.048,0.001
		c12.536,0,22.698-10.162,22.698-22.698S268.536,343.01,256,343.01z"/>
	<circle style="fill:#00A2AA;" cx="351.26" cy="173.87" r="22.698"/>
	<circle style="fill:#00A2AA;" cx="351.26" cy="256" r="22.698"/>
	<circle style="fill:#00A2AA;" cx="351.26" cy="338.13" r="22.698"/>
</g>
<g>
	<circle style="fill:#00ECFF;" cx="160.74" cy="173.87" r="22.698"/>
	<circle style="fill:#00ECFF;" cx="160.74" cy="256" r="22.698"/>
	<circle style="fill:#00ECFF;" cx="160.74" cy="338.13" r="22.698"/>
</g>
<g>
</g>
<g>
</g>
<g>
</g>
<g>
</g>
<g>
</g>
<g>
</g>
<g>
</g>
<g>
</g>
<g>
</g>
<g>
</g>
<g>
</g>
<g>
</g>
<g>
</g>
<g>
</g>
<g>
</g>
</svg>
