<?xml version="1.0" encoding="iso-8859-1"?>
<!-- Generator: Adobe Illustrator 19.0.0, SVG Export Plug-In . SVG Version: 6.00 Build 0)  -->
<svg version="1.1" id="Capa_1" xmlns="http://www.w3.org/2000/svg" xmlns:xlink="http://www.w3.org/1999/xlink" x="0px" y="0px"
	 viewBox="0 0 512 512" style="enable-background:new 0 0 512 512;" xml:space="preserve">
<circle style="fill:#005ED1;" cx="256" cy="256" r="256"/>
<path style="fill:#053D8A;" d="M511.959,259.227L334.478,81.746C318.33,64.107,295.147,53,269.495,53h-26.99
	c-48.486,0-88.156,39.67-88.156,88.156v43.352c-9.834,1.163-17.531,9.574-17.531,19.707v6.068c0,5.407,2.193,10.324,5.731,13.913
	l40.695,40.534v101.16c0,12.497-10.167,22.664-22.664,22.664l-22.665-22.664H119.12c0,12.103,5.213,23.011,13.512,30.597
	l115.574,115.384c2.589,0.077,5.186,0.129,7.794,0.129C396.306,512,510.228,399.123,511.959,259.227z"/>
<path style="fill:#FFB1B7;" d="M202.379,443.833v-18.795c12.497,0,22.664-10.167,22.664-22.664V209.818h18.795v192.556
	C243.839,425.235,225.24,443.833,202.379,443.833z"/>
<path style="fill:#FF8387;" d="M309.621,443.833c-22.861,0-41.46-18.598-41.46-41.459V209.818h18.795v192.556
	c0,12.497,10.167,22.664,22.665,22.664L309.621,443.833L309.621,443.833z"/>
<path style="fill:#FFB1B7;" d="M160.58,407.349c-22.861,0-41.46-18.598-41.46-41.459h18.795c0,12.497,10.167,22.664,22.665,22.664
	c12.497,0,22.664-10.167,22.664-22.664V209.818h18.795V365.89C202.039,388.751,183.441,407.349,160.58,407.349z"/>
<path style="fill:#FF8387;" d="M351.42,407.349c-22.861,0-41.459-18.598-41.459-41.459V209.818h18.795V365.89
	c0,12.497,10.167,22.664,22.665,22.664c12.497,0,22.664-10.167,22.664-22.664h18.795C392.88,388.751,374.281,407.349,351.42,407.349
	z"/>
<path style="fill:#FFB1B7;" d="M357.651,188.861H154.349v-47.705c0-48.486,39.67-88.156,88.156-88.156h26.99
	c48.486,0,88.156,39.67,88.156,88.156V188.861z"/>
<path style="fill:#FF8387;" d="M357.65,141.16v47.7H256V53h13.49C317.98,53,357.65,92.67,357.65,141.16z"/>
<path style="fill:#FB233B;" d="M355.325,230.14h-198.65c-10.921,0-19.857-8.936-19.857-19.857v-6.068
	c0-10.921,8.936-19.857,19.857-19.857h198.65c10.921,0,19.857,8.936,19.857,19.857v6.068
	C375.182,221.205,366.246,230.14,355.325,230.14z"/>
<path style="fill:#C70C24;" d="M375.18,204.22v6.06c0,10.92-8.93,19.86-19.85,19.86H256v-45.78h99.33c0.79,0,1.56,0.05,2.32,0.14
	C367.49,185.66,375.18,194.08,375.18,204.22z"/>
<g>
</g>
<g>
</g>
<g>
</g>
<g>
</g>
<g>
</g>
<g>
</g>
<g>
</g>
<g>
</g>
<g>
</g>
<g>
</g>
<g>
</g>
<g>
</g>
<g>
</g>
<g>
</g>
<g>
</g>
</svg>
