<?xml version="1.0" encoding="iso-8859-1"?>
<!-- Generator: Adobe Illustrator 19.0.0, SVG Export Plug-In . SVG Version: 6.00 Build 0)  -->
<svg version="1.1" id="Capa_1" xmlns="http://www.w3.org/2000/svg" xmlns:xlink="http://www.w3.org/1999/xlink" x="0px" y="0px"
	 viewBox="0 0 512 512" style="enable-background:new 0 0 512 512;" xml:space="preserve">
<circle style="fill:#FB233B;" cx="256" cy="256" r="256"/>
<path style="fill:#C70C24;" d="M512,256c0-19.683-2.228-38.846-6.434-57.255l-87.323-86.49c-3.762-3.898-8.525-7.491-14.615-10.751
	c-43.139-23.088-71.01,32.363-80.932,57.047c-17.197-9.793-39.724-14.896-66.697-14.896c-20.924,0-39.158,3.085-54.319,9.034
	l-40.22-40.396c-13.622-14.171-31.431-22.381-53.091-10.788c-40.782,21.827-22.19,58.581-40.538,102.147
	c-15.595,37.028-10.578,75.232,13.235,94.841l210.971,210.97C416.356,491.944,512,385.151,512,256z"/>
<path style="fill:#949498;" d="M193.364,169.673c0,0-30.173-97.508-84.994-68.168c-40.782,21.827-22.19,58.581-40.539,102.147
	c-23.059,54.751-1.068,112.086,60.148,108.049c79.118-5.217,75.007-43.332,75.007-43.332L193.364,169.673z"/>
<path style="fill:#898790;" d="M318.635,169.673c0,0,30.173-97.508,84.994-68.168c40.782,21.827,22.19,58.581,40.539,102.147
	c23.059,54.751,1.068,112.086-60.148,108.049c-79.118-5.217-75.007-43.332-75.007-43.332L318.635,169.673z"/>
<path style="fill:#C6C4CA;" d="M357.78,257.887c15.661-73.1-25.152-114.232-101.78-114.232s-117.44,41.131-101.78,114.232
	c11.05,51.581,54.267,62.588,81.379,64.837l45.76-0.496C308.502,319.034,347.382,306.424,357.78,257.887z"/>
<path style="fill:#ACABB1;" d="M357.78,257.89c-10.4,48.53-49.28,61.14-76.42,64.34L256,322.5V143.66
	C332.63,143.66,373.44,184.79,357.78,257.89z"/>
<circle style="fill:#56545B;" cx="214.67" cy="216.42" r="12.468"/>
<circle style="fill:#29292B;" cx="297.33" cy="216.42" r="12.468"/>
<path style="fill:#FFFFFF;" d="M198.909,373.213c-18.387-13.17-14.366-40.529-13.045-49.519l8.398-57.151
	c0,0,5.221-3.211,10.963,1.013c7.405,5.447,5.216,14.522,5.216,14.522l-6.506,44.271c-2.505,17.044-0.67,27.516,5.609,32.014
	L198.909,373.213z"/>
<path style="fill:#FDF3CA;" d="M313.091,373.213c18.387-13.17,14.366-40.529,13.045-49.519l-8.398-57.151
	c0,0-5.221-3.211-10.963,1.013c-7.405,5.447-5.216,14.522-5.216,14.522l6.506,44.271c2.505,17.044,0.67,27.516-5.609,32.014
	L313.091,373.213z"/>
<path style="fill:#ACABB1;" d="M347.105,410.545v29.205c-31.214,0-56.949-10.767-76.645-38.906
	c-11.639-16.611-19.534-46.385-24.892-78.228c-6.971-41.423-9.64-86.356-10.624-110.416c-0.457-11.274-5.733-21.797-14.491-28.911
	l-30.737-24.983c17.15-9.64,39.535-14.653,66.284-14.653c26.942,0,49.459,5.084,66.649,14.866l-30.95,25.146
	c-8.686,7.063-13.963,17.494-14.481,28.687c-1.664,36.4-1.025,76.503,4.09,109.878c3.359,21.909,8.646,40.925,16.47,54.087
	C308.128,393.72,328.901,410.545,347.105,410.545z"/>
<path style="fill:#898790;" d="M347.11,410.55v29.2c-31.22,0-56.95-10.77-76.65-38.91c-5.66-8.08-10.44-19.28-14.46-32.31V143.65
	c26.94,0,49.46,5.09,66.65,14.87l-30.95,25.15c-8.69,7.06-13.96,17.49-14.48,28.68c-1.67,36.4-1.03,76.51,4.09,109.88
	c3.36,21.91,8.64,40.93,16.47,54.09C308.13,393.72,328.9,410.55,347.11,410.55z"/>
<g>
</g>
<g>
</g>
<g>
</g>
<g>
</g>
<g>
</g>
<g>
</g>
<g>
</g>
<g>
</g>
<g>
</g>
<g>
</g>
<g>
</g>
<g>
</g>
<g>
</g>
<g>
</g>
<g>
</g>
</svg>
