<?xml version="1.0" encoding="iso-8859-1"?>
<!-- Generator: Adobe Illustrator 19.0.0, SVG Export Plug-In . SVG Version: 6.00 Build 0)  -->
<svg version="1.1" id="Capa_1" xmlns="http://www.w3.org/2000/svg" xmlns:xlink="http://www.w3.org/1999/xlink" x="0px" y="0px"
	 viewBox="0 0 512 512" style="enable-background:new 0 0 512 512;" xml:space="preserve">
<circle style="fill:#00DE7E;" cx="256" cy="256" r="256"/>
<path style="fill:#00B77C;" d="M512,256c0-12.374-0.897-24.536-2.594-36.441L395.491,105.644l-88.944,21.69l51.184,173.221
	L236.115,179.318l-71.83,0.397l-22.619,63.69l2.666,103.243l-27.074,57.305L223.226,509.92c10.731,1.371,21.67,2.08,32.774,2.08
	C397.385,512,512,397.385,512,256z"/>
<path style="fill:#154797;" d="M351,259.684l-12.462-15.475c-0.498-0.619-12.34-15.362-24.344-33.584
	c-23.38-35.489-26.084-51.568-26.084-60.576c0-34.677,28.212-62.889,62.89-62.889s62.89,28.212,62.89,62.889
	c0,9.007-2.704,25.086-26.084,60.576c-12.004,18.223-23.846,32.966-24.344,33.584L351,259.684z M351,119.16
	c-17.032,0-30.89,13.857-30.89,30.889c0,1.902,1.003,12.912,20.806,42.972c3.482,5.286,6.973,10.285,10.131,14.668
	c16.438-22.807,30.843-47.653,30.843-57.64C381.89,133.017,368.032,119.16,351,119.16z"/>
<path style="fill:#1F66CC;" d="M301,387.667h-6.667c-33.084,0-60-26.916-60-60V222.333c0-22.056-17.944-40-40-40s-40,17.944-40,40
	V361h-20V222.333c0-33.084,26.916-60,60-60s60,26.916,60,60v105.333c0,22.056,17.944,40,40,40H301c22.056,0,40-17.944,40-40v-93.493
	h20v93.493C361,360.75,334.084,387.667,301,387.667z"/>
<path style="fill:#154797;" d="M341,234.174v93.493c0,22.056-17.944,40-40,40h-6.667c-18.153,0-33.51-12.159-38.381-28.758v34.834
	c10.41,8.687,23.794,13.924,38.381,13.924H301c33.084,0,60-26.916,60-60v-93.493H341z"/>
<path style="fill:#1F66CC;" d="M144.333,418.5c-17.921,0-32.5-14.58-32.5-32.5s14.579-32.5,32.5-32.5s32.5,14.58,32.5,32.5
	S162.254,418.5,144.333,418.5z M144.333,373.5c-6.893,0-12.5,5.607-12.5,12.5s5.607,12.5,12.5,12.5s12.5-5.607,12.5-12.5
	S151.226,373.5,144.333,373.5z"/>
<g>
</g>
<g>
</g>
<g>
</g>
<g>
</g>
<g>
</g>
<g>
</g>
<g>
</g>
<g>
</g>
<g>
</g>
<g>
</g>
<g>
</g>
<g>
</g>
<g>
</g>
<g>
</g>
<g>
</g>
</svg>
