<?xml version="1.0" encoding="iso-8859-1"?>
<!-- Generator: Adobe Illustrator 19.0.0, SVG Export Plug-In . SVG Version: 6.00 Build 0)  -->
<svg version="1.1" id="Capa_1" xmlns="http://www.w3.org/2000/svg" xmlns:xlink="http://www.w3.org/1999/xlink" x="0px" y="0px"
	 viewBox="0 0 512 512" style="enable-background:new 0 0 512 512;" xml:space="preserve">
<circle style="fill:#6DE6FF;" cx="256" cy="256" r="256"/>
<path style="fill:#47BFFF;" d="M509.287,293.293L274.119,58.125h-36.238l7.803,77.01h-33.601c-44.697,0-81.268,36.571-81.268,81.268
	v23.093c0,0,12.185,10.38,12.703,10.497c0,17.437,0,42.299,0,67.488c0,30.697,0.95,54.999,13.991,67.888l125.477,125.217
	C399.358,498.392,492.509,408.239,509.287,293.293z"/>
<path style="fill:#FDAA11;" d="M256,225.988H143.518c0,0,0,45.208,0,91.492s2.153,78.038,44.67,78.038
	c37.404,0,23.411,54.357,67.812,54.357s30.408-54.357,67.812-54.357c42.517,0,44.67-31.753,44.67-78.038c0-46.284,0-91.492,0-91.492
	H256z"/>
<path style="fill:#FD880C;" d="M368.482,225.988c0,0,0,45.208,0,91.492s-2.153,78.038-44.67,78.038
	c-37.404,0-23.411,54.357-67.812,54.357V225.988H368.482z"/>
<path style="fill:#CE7937;" d="M299.917,135.135h-33.6l7.803-77.01h-36.238l7.803,77.01h-33.6
	c-44.697,0-81.268,36.571-81.268,81.268v23.093h250.37v-23.093C381.185,171.705,344.614,135.135,299.917,135.135z"/>
<path style="fill:#A94F1F;" d="M381.18,216.4v23.1H256V58.12h18.12l-7.8,77.01h33.6C344.61,135.13,381.18,171.71,381.18,216.4z"/>
<g>
</g>
<g>
</g>
<g>
</g>
<g>
</g>
<g>
</g>
<g>
</g>
<g>
</g>
<g>
</g>
<g>
</g>
<g>
</g>
<g>
</g>
<g>
</g>
<g>
</g>
<g>
</g>
<g>
</g>
</svg>
