<?xml version="1.0" encoding="iso-8859-1"?>
<!-- Generator: Adobe Illustrator 19.0.0, SVG Export Plug-In . SVG Version: 6.00 Build 0)  -->
<svg version="1.1" id="Capa_1" xmlns="http://www.w3.org/2000/svg" xmlns:xlink="http://www.w3.org/1999/xlink" x="0px" y="0px"
	 viewBox="0 0 512 512" style="enable-background:new 0 0 512 512;" xml:space="preserve">
<circle style="fill:#C8EC4B;" cx="256" cy="256" r="256"/>
<path style="fill:#A8D32A;" d="M512,256c0-15.192-1.332-30.071-3.869-44.536L371.667,75L81.25,234l119.264,119.264L98.5,397
	l110.721,110.721C224.389,510.522,240.021,512,256,512C397.385,512,512,397.385,512,256z"/>
<rect x="98.5" y="169.5" style="fill:#F9C41E;" width="315" height="227.5"/>
<rect x="255.95" y="169.5" style="fill:#FE9A35;" width="157.55" height="227.5"/>
<rect x="112.42" y="261.19" style="fill:#91F3FF;" width="186.5" height="97.14"/>
<g>
	<rect x="255.95" y="261.19" style="fill:#00ECFF;" width="42.965" height="97.14"/>
	<rect x="318.31" y="261.19" style="fill:#00ECFF;" width="77" height="135.81"/>
</g>
<polygon style="fill:#1F66CC;" points="430.75,234 81.25,234 102.634,138.5 409.366,138.5 "/>
<g>
	<polygon style="fill:#154797;" points="409.366,138.5 255.952,138.5 255.952,234 430.75,234 	"/>
	<polygon style="fill:#154797;" points="387.5,234 124.5,234 140.592,138.5 371.408,138.5 	"/>
</g>
<polygon style="fill:#153D77;" points="371.408,138.5 255.952,138.5 255.952,234 387.5,234 "/>
<polygon style="fill:#1F66CC;" points="335.5,234 176.5,234 186.228,138.5 325.772,138.5 "/>
<g>
	<polygon style="fill:#154797;" points="325.772,138.5 255.952,138.5 255.952,234 335.5,234 	"/>
	<polygon style="fill:#154797;" points="284.5,234 227.5,234 230.988,138.5 281.012,138.5 	"/>
</g>
<polygon style="fill:#153D77;" points="281.012,138.5 255.952,138.5 255.952,234 284.5,234 "/>
<rect x="140.33" y="75" style="fill:#DE1F4B;" width="231.33" height="74.67"/>
<rect x="255.95" y="75" style="fill:#B70E38;" width="115.71" height="74.67"/>
<path style="fill:#FFFFFF;" d="M283.106,135.338c0,14.97-12.136,4.221-27.106,4.221c-14.97,0-27.106,10.75-27.106-4.221
	S241.03,108.232,256,108.232S283.106,120.368,283.106,135.338z"/>
<path style="fill:#E0E0E0;" d="M256,108.232c-0.016,0-0.032,0.001-0.048,0.001v31.326c0.016,0,0.031-0.001,0.048-0.001
	c14.97,0,27.106,10.75,27.106-4.221C283.106,120.368,270.97,108.232,256,108.232z"/>
<ellipse style="fill:#FFFFFF;" cx="256" cy="93.79" rx="7.41" ry="9.567"/>
<path style="fill:#E0E0E0;" d="M256,84.222c-0.016,0-0.031,0.003-0.048,0.003v19.127c0.016,0,0.031,0.003,0.048,0.003
	c4.092,0,7.41-4.283,7.41-9.567C263.41,88.505,260.092,84.222,256,84.222z"/>
<ellipse style="fill:#FFFFFF;" cx="221.3" cy="118.17" rx="7.41" ry="9.567"/>
<g>
	<ellipse style="fill:#E0E0E0;" cx="290.7" cy="118.17" rx="7.41" ry="9.567"/>
	<ellipse style="fill:#E0E0E0;" cx="276.54" cy="101.1" rx="7.41" ry="9.567"/>
</g>
<ellipse style="fill:#FFFFFF;" cx="235.46" cy="101.1" rx="7.41" ry="9.567"/>
<g>
</g>
<g>
</g>
<g>
</g>
<g>
</g>
<g>
</g>
<g>
</g>
<g>
</g>
<g>
</g>
<g>
</g>
<g>
</g>
<g>
</g>
<g>
</g>
<g>
</g>
<g>
</g>
<g>
</g>
</svg>
