<?xml version="1.0" encoding="iso-8859-1"?>
<!-- Generator: Adobe Illustrator 19.0.0, SVG Export Plug-In . SVG Version: 6.00 Build 0)  -->
<svg version="1.1" id="Capa_1" xmlns="http://www.w3.org/2000/svg" xmlns:xlink="http://www.w3.org/1999/xlink" x="0px" y="0px"
	 viewBox="0 0 512 512" style="enable-background:new 0 0 512 512;" xml:space="preserve">
<circle style="fill:#1F66CC;" cx="256" cy="256" r="256"/>
<path style="fill:#154797;" d="M511.965,258.768L279.479,26.282l-40.788,2.837L230.626,77l-84.876,56.881L125.75,432l73.725,73.725
	C217.661,509.824,236.576,512,256,512C396.459,512,510.478,398.875,511.965,258.768z"/>
<path style="fill:#91F3FF;" d="M256,80c-17.645,0-32-14.355-32-32s14.355-32,32-32s32,14.355,32,32S273.645,80,256,80z M256,36
	c-6.617,0-12,5.383-12,12s5.383,12,12,12s12-5.383,12-12S262.617,36,256,36z"/>
<path style="fill:#00ECFF;" d="M256,16c-0.016,0-0.032,0.001-0.048,0.001v20.001c0.016,0,0.031-0.002,0.048-0.002
	c6.617,0,12,5.383,12,12s-5.383,12-12,12c-0.016,0-0.031-0.002-0.048-0.002v20.001c0.016,0,0.032,0.001,0.048,0.001
	c17.645,0,32-14.355,32-32S273.645,16,256,16z"/>
<path style="fill:#FFFFFF;" d="M256,64c-71.82,0-130.25,58.43-130.25,130.25V432H187h138h61.25V194.25
	C386.25,122.43,327.82,64,256,64z M366.25,194.25v3.062H325V133c0-10.616-2.415-20.677-6.716-29.67
	C347.229,123.22,366.25,156.553,366.25,194.25z M305,197.312h-39V85.029c22.239,4.63,39,24.379,39,47.971V197.312z M266,217.312h39
	v51.535h-39V217.312z M246,85.029v112.282h-39V133C207,109.408,223.761,89.659,246,85.029z M246,217.312v51.535h-39v-51.535
	L246,217.312L246,217.312z M187,268.846h-41.25v-51.535H187V268.846z M187,288.846v51.534h-41.25v-51.534H187z M207,288.846h39
	v51.534h-39V288.846z M266,288.846h39v51.534h-39V288.846z M325,288.846h41.25v51.534H325V288.846z M325,268.846v-51.535h41.25
	v51.535H325z M193.716,103.33C189.415,112.323,187,122.384,187,133v64.312h-41.25v-3.062
	C145.75,156.553,164.771,123.22,193.716,103.33z M145.75,412v-51.62H187V412H145.75z M207,360.38h39V412h-39V360.38z M266,412
	v-51.62h39V412H266z M325,412v-51.62h41.25V412H325z"/>
<path style="fill:#E0E0E0;" d="M256,64c-0.016,0-0.032,0-0.048,0v368H325h61.25V194.25C386.25,122.43,327.82,64,256,64z M305,412
	h-39v-51.62h39V412z M305,340.38h-39v-51.534h39V340.38z M305,268.846h-39v-51.535h39V268.846z M305,197.312h-39V85.029
	c22.239,4.63,39,24.379,39,47.971V197.312z M366.25,412H325v-51.62h41.25V412z M366.25,340.38H325v-51.534h41.25V340.38z
	 M366.25,268.846H325v-51.535h41.25V268.846z M366.25,197.312H325V133c0-10.616-2.415-20.677-6.716-29.67
	c28.944,19.89,47.966,53.223,47.966,90.92V197.312z"/>
<path style="fill:#1F66CC;" d="M308.671,422H203.329v-63.095c0-29.09,23.582-52.671,52.671-52.671l0,0
	c29.09,0,52.671,23.582,52.671,52.671V422z"/>
<path style="fill:#154797;" d="M308.671,358.905c0-29.09-23.582-52.671-52.671-52.671l0,0c-0.016,0-0.032,0.001-0.048,0.001V422
	h52.719V358.905z"/>
<path style="fill:#91F3FF;" d="M318.671,432H193.329v-73.095c0-34.557,28.114-62.671,62.671-62.671s62.671,28.114,62.671,62.671V432
	z M213.329,412h85.342v-53.095c0-23.529-19.143-42.671-42.671-42.671c-23.529,0-42.671,19.142-42.671,42.671L213.329,412
	L213.329,412z"/>
<path style="fill:#00ECFF;" d="M318.671,358.905c0-34.557-28.114-62.671-62.671-62.671c-0.016,0-0.032,0.001-0.048,0.001v20
	c0.016,0,0.032-0.001,0.048-0.001c23.528,0,42.671,19.142,42.671,42.671V412h-42.719v20h62.719V358.905z"/>
<g>
</g>
<g>
</g>
<g>
</g>
<g>
</g>
<g>
</g>
<g>
</g>
<g>
</g>
<g>
</g>
<g>
</g>
<g>
</g>
<g>
</g>
<g>
</g>
<g>
</g>
<g>
</g>
<g>
</g>
</svg>
