<?xml version="1.0" encoding="iso-8859-1"?>
<!-- Generator: Adobe Illustrator 19.0.0, SVG Export Plug-In . SVG Version: 6.00 Build 0)  -->
<svg version="1.1" id="Capa_1" xmlns="http://www.w3.org/2000/svg" xmlns:xlink="http://www.w3.org/1999/xlink" x="0px" y="0px"
	 viewBox="0 0 512 512" style="enable-background:new 0 0 512 512;" xml:space="preserve">
<circle style="fill:#FB233B;" cx="256" cy="256" r="256"/>
<path style="fill:#C70C24;" d="M512,256c0-14.17-1.17-28.064-3.384-41.607L358.739,64.567c-0.213-0.253-0.439-0.5-0.678-0.738
	c-4.716-4.717-12.363-4.716-17.08,0c-4.716,4.717-4.717,12.363,0,17.08l14.831,14.707c1.575,11.221-1.053,28.222-18.933,50.25
	c-15.438-11.141-37.264-9.782-51.135,4.089l0,0c-7.631,7.631-11.457,17.669-11.514,27.726l-23.483-23.426
	c-13.387-14.545-32.538-20.395-45.86-16.224c-17.406,5.45-34.057,30.863-29.887,58.96c-28.097-4.17-53.51,12.481-58.96,29.887
	c-3.81,12.169,0.728,29.21,12.626,42.274l17.341,17.415c-11.119,20.094-8.392,38.288-2.59,51.627L107.8,408.491l98.711,98.711
	C222.525,510.339,239.067,512,256,512C397.385,512,512,397.385,512,256z"/>
<path style="fill:#39373E;" d="M260.884,341.918c49.577-64.508,83.569-107.213,52.136-138.647
	c-31.433-31.433-74.139,2.559-138.647,52.136c-41.47,31.871-39.656,62.787-30.957,82.789L107.8,408.491l0,0l0,0l0,0l70.295-35.616
	C198.097,381.574,229.013,383.388,260.884,341.918z"/>
<path style="fill:#0F0F11;" d="M178.094,372.869l-70.293,35.621l205.22-205.22c31.43,31.43-2.563,74.137-52.139,138.646
	C229.008,383.39,198.097,381.568,178.094,372.869z"/>
<path style="fill:#FDD217;" d="M313.02,203.271c-21.255-21.255-47.667-12.59-82.487,10.576l71.911,71.911
	C325.61,250.939,334.275,224.526,313.02,203.271z"/>
<path style="fill:#FFAB1F;" d="M302.445,285.753L266.492,249.8l46.529-46.529C334.277,224.526,325.613,250.936,302.445,285.753z"/>
<path style="fill:#FDD217;" d="M260.884,341.918c4.509-5.866,8.887-11.55,13.1-17.064l-82.546-82.546
	c-5.514,4.214-11.198,8.591-17.065,13.1c-9.196,7.068-16.25,14.087-21.586,20.953l87.145,87.145
	C246.797,358.168,253.816,351.114,260.884,341.918z"/>
<path style="fill:#FFAB1F;" d="M239.93,363.505l-43.572-43.572l36.355-36.355l41.273,41.272c-4.218,5.52-8.595,11.199-13.104,17.066
	C253.817,351.114,246.794,358.165,239.93,363.505z"/>
<path style="fill:#39373E;" d="M452.463,158.23c-4.188-4.188-10.681-4.648-15.387-1.4c-4.223-2.375-10.905-5.093-19.815-5.502
	c-16.634-0.762-34.303,6.469-52.678,21.52l-21.14-21.14c15.052-18.375,22.282-36.044,21.52-52.678
	c-0.408-8.91-3.126-15.592-5.502-19.815c3.248-4.706,2.788-11.199-1.4-15.387c-4.717-4.717-12.363-4.716-17.08,0
	c-4.717,4.717-4.717,12.363,0,17.08c3.042,3.042,7.301,4.11,11.208,3.228c4.524,8.561,10.524,29.902-15.31,61.729
	c-15.437-11.141-37.264-9.782-51.135,4.089l0,0c-15.385,15.385-15.385,40.561,0,55.946l24.647,24.647
	c15.385,15.385,40.561,15.385,55.946,0l0,0c13.871-13.871,15.23-35.698,4.089-51.135c31.828-25.834,53.169-19.834,61.729-15.31
	c-0.882,3.908,0.186,8.166,3.228,11.208c4.716,4.717,12.363,4.716,17.08,0C457.179,170.594,457.179,162.947,452.463,158.23z"/>
<path style="fill:#0F0F11;" d="M452.464,175.31c-4.717,4.717-12.363,4.717-17.08,0c-3.04-3.04-4.114-7.3-3.227-11.206
	c-8.561-4.53-29.907-10.528-61.732,15.313c5.569,7.716,8.014,17.031,7.328,26.153c-0.679,9.115-4.481,18.042-11.414,24.975
	c-15.39,15.39-40.559,15.39-55.949,0l-12.322-12.322l55.942-55.942l10.569,10.569c18.382-15.057,36.05-22.281,52.68-21.526
	c8.914,0.409,15.598,3.131,19.816,5.506c4.703-3.248,11.199-2.791,15.39,1.399C457.18,162.947,457.18,170.593,452.464,175.31z"/>
<path style="fill:#47BFFF;" d="M116.039,226.879c-10.015,31.985,37.621,97.659,125.058,36.216
	C203.476,165.435,126.054,194.894,116.039,226.879z"/>
<path style="fill:#6DE6FF;" d="M204.887,138.032c31.985-10.015,97.659,37.621,36.215,125.058
	C143.443,225.469,172.902,148.046,204.887,138.032z"/>
<path style="fill:#47BFFF;" d="M289.412,400.252c-31.985,10.015-97.659-37.621-36.215-125.058
	C350.856,312.815,321.397,390.238,289.412,400.252z"/>
<path style="fill:#6DE6FF;" d="M378.26,311.405c10.015-31.985-37.621-97.659-125.058-36.216
	C290.823,372.849,368.245,343.39,378.26,311.405z"/>
<g>
</g>
<g>
</g>
<g>
</g>
<g>
</g>
<g>
</g>
<g>
</g>
<g>
</g>
<g>
</g>
<g>
</g>
<g>
</g>
<g>
</g>
<g>
</g>
<g>
</g>
<g>
</g>
<g>
</g>
</svg>
