<?xml version="1.0" encoding="iso-8859-1"?>
<!-- Generator: Adobe Illustrator 19.0.0, SVG Export Plug-In . SVG Version: 6.00 Build 0)  -->
<svg version="1.1" id="Capa_1" xmlns="http://www.w3.org/2000/svg" xmlns:xlink="http://www.w3.org/1999/xlink" x="0px" y="0px"
	 viewBox="0 0 512 512" style="enable-background:new 0 0 512 512;" xml:space="preserve">
<circle style="fill:#6DE6FF;" cx="256" cy="256" r="256"/>
<path style="fill:#47BFFF;" d="M510.901,279.664L314.846,83.609C302.203,69.66,283.46,60.25,256,60.25
	c-62.092,0-79.639,48.096-82.79,88.054c-1.608,20.399-6.708,35.776-12.845,50.425c-10.287,8.565-22.748,22.589-34.56,39.603
	c-22.213,31.996-33.715,62.448-25.692,68.019l36.621,36.53c6.024,18.984,16.575,34.904,29.962,47.52
	c1.566,1.661,3.177,3.273,4.833,4.833c0.643,0.682,1.296,1.352,1.955,2.017H161.77c-12.52,0-22.669,12.387-22.669,27.667l0,0
	c0,0,53.147,52.359,85.945,85.215C235.195,511.355,245.522,512,256,512C389.404,512,498.957,409.953,510.901,279.664z"/>
<path style="fill:#FDD217;" d="M161.77,397.25h56.474c6.26,0,11.334,6.193,11.334,13.833l0,0c0,7.64-5.075,13.833-11.334,13.833
	h-79.143l0,0C139.101,409.637,149.251,397.25,161.77,397.25z"/>
<path style="fill:#FFAB1F;" d="M350.23,397.25h-56.474c-6.26,0-11.335,6.193-11.335,13.833l0,0c0,7.64,5.075,13.833,11.335,13.833
	h79.143l0,0C372.899,409.637,362.75,397.25,350.23,397.25z"/>
<path style="fill:#56545B;" d="M386.194,238.331c-11.812-17.014-24.273-31.037-34.56-39.602
	c-6.136-14.648-11.237-30.026-12.845-50.425c-3.15-39.958-20.698-88.054-82.79-88.054s-79.639,48.096-82.79,88.054
	c-1.608,20.399-6.708,35.776-12.845,50.425c-10.287,8.565-22.748,22.589-34.56,39.603c-22.213,31.996-33.715,62.448-25.692,68.019
	c5.317,3.691,17.876-4.478,32.206-19.715c-0.263,2.367-0.499,4.788-0.701,7.282c-6.772,83.607,59.855,131,124.382,131
	s131.154-47.393,124.382-131c-0.202-2.494-0.439-4.915-0.702-7.282c14.331,15.237,26.889,23.406,32.206,19.715
	C419.91,300.78,408.407,270.327,386.194,238.331z"/>
<path style="fill:#29292B;" d="M411.89,306.35c-5.32,3.69-17.88-4.48-32.21-19.72c0.26,2.37,0.5,4.79,0.7,7.29
	c6.77,83.6-59.85,131-124.38,131V60.25c62.09,0,79.64,48.1,82.79,88.05c1.61,20.4,6.71,35.78,12.84,50.43
	c10.29,8.56,22.75,22.59,34.56,39.6C408.41,270.33,419.91,300.78,411.89,306.35z"/>
<path style="fill:#FFFFFF;" d="M340.885,235.288c-17.138-41.834-19.758-49.196-23.66-91.62c-3.903-42.424-24.88-53.601-42.198-49.44
	C258.321,98.241,256,115.031,256,115.031s-2.321-16.791-19.026-20.804c-17.318-4.161-38.296,7.016-42.199,49.44
	s-6.522,49.786-23.66,91.62C148.187,291.255,144.446,394.068,256,397.25C367.553,394.068,363.814,291.255,340.885,235.288z"/>
<path style="fill:#FDEA97;" d="M256,397.25V115.03c0,0,2.32-16.79,19.03-20.8c17.31-4.16,38.29,7.01,42.19,49.44
	c3.91,42.42,6.53,49.78,23.66,91.62C363.81,291.25,367.55,394.07,256,397.25z"/>
<polygon style="fill:#FDD217;" points="256,172 231.061,183.193 256,214.417 280.94,183.193 "/>
<polygon style="fill:#FFAB1F;" points="256,172 280.939,183.193 256,214.417 "/>
<circle style="fill:#56545B;" cx="229.4" cy="154.91" r="10.655"/>
<circle style="fill:#29292B;" cx="282.6" cy="154.91" r="10.655"/>
<g>
</g>
<g>
</g>
<g>
</g>
<g>
</g>
<g>
</g>
<g>
</g>
<g>
</g>
<g>
</g>
<g>
</g>
<g>
</g>
<g>
</g>
<g>
</g>
<g>
</g>
<g>
</g>
<g>
</g>
</svg>
