<?xml version="1.0" encoding="iso-8859-1"?>
<!-- Generator: Adobe Illustrator 19.0.0, SVG Export Plug-In . SVG Version: 6.00 Build 0)  -->
<svg version="1.1" id="Capa_1" xmlns="http://www.w3.org/2000/svg" xmlns:xlink="http://www.w3.org/1999/xlink" x="0px" y="0px"
	 viewBox="0 0 512 512" style="enable-background:new 0 0 512 512;" xml:space="preserve">
<circle style="fill:#C8EC4B;" cx="256" cy="256" r="256"/>
<path style="fill:#A8D32A;" d="M512,256c0-3.957-0.104-7.89-0.281-11.803l-166.27-166.27l-37.396,86.897h-27.028l18.896,18.896
	L182.107,298.308l-17.283-17.283l-3.471,26.674l-83.426,37.75l166.27,166.27C248.11,511.896,252.043,512,256,512
	C397.385,512,512,397.385,512,256z"/>
<rect x="80.332" y="215.672" transform="matrix(-0.7071 0.7071 -0.7071 -0.7071 618.0355 256.0155)" style="fill:#AB6A50;" width="351.327" height="80.669"/>
<polygon style="fill:#854830;" points="408.735,160.305 381.686,133.255 134.514,382.944 160.305,408.735 "/>
<polygon style="fill:#7A3817;" points="118.939,326.121 164.824,281.025 220.005,375.233 169.851,425.116 "/>
<polygon style="fill:#5D2307;" points="143.496,373.871 169.851,425.116 220.005,375.233 191.062,325.82 "/>
<polygon style="fill:#854830;" points="247.161,353.463 201.435,399.189 77.927,345.449 123.653,299.723 "/>
<g>
	<polygon style="fill:#7A3817;" points="143.421,373.946 201.435,399.189 247.161,353.463 188.825,328.08 	"/>
	<polygon style="fill:#7A3817;" points="326.121,118.939 281.025,164.824 375.233,220.005 425.116,169.851 	"/>
</g>
<polygon style="fill:#5D2307;" points="425.116,169.851 372.332,142.705 324.96,190.558 375.233,220.005 "/>
<polygon style="fill:#854830;" points="353.463,247.161 399.189,201.435 345.449,77.927 299.723,123.653 "/>
<polygon style="fill:#7A3817;" points="399.189,201.435 373.237,141.79 327.651,187.84 353.463,247.161 "/>
<g>
</g>
<g>
</g>
<g>
</g>
<g>
</g>
<g>
</g>
<g>
</g>
<g>
</g>
<g>
</g>
<g>
</g>
<g>
</g>
<g>
</g>
<g>
</g>
<g>
</g>
<g>
</g>
<g>
</g>
</svg>
