<?xml version="1.0" encoding="iso-8859-1"?>
<!-- Generator: Adobe Illustrator 19.0.0, SVG Export Plug-In . SVG Version: 6.00 Build 0)  -->
<svg version="1.1" id="Capa_1" xmlns="http://www.w3.org/2000/svg" xmlns:xlink="http://www.w3.org/1999/xlink" x="0px" y="0px"
	 viewBox="0 0 512 512" style="enable-background:new 0 0 512 512;" xml:space="preserve">
<circle style="fill:#FFE570;" cx="256" cy="256" r="256"/>
<path style="fill:#FDB500;" d="M512,256c0-16.818-1.64-33.251-4.736-49.164L406.341,105.659
	c-18.479-18.479-56.305-10.614-84.485,17.566c-0.835,0.835-1.643,1.681-2.441,2.532l-21.626-21.667
	c-9.739-9.958-21.219-15.059-32.506-13.106c-21.727,3.758-35.354,32.363-33.124,66.467c-8.157-6.081-17.124-8.9-25.975-7.369
	c-21.727,3.758-35.354,32.363-33.124,66.467c-8.157-6.081-17.124-8.9-25.975-7.369c-24.287,4.201-38.468,39.441-31.676,78.712
	c3.749,21.675,13.106,40.036,24.821,51.436l11.198,11.077c0.018,0.02,0.036,0.041,0.054,0.061l-50.849,50.849l105.889,105.889
	C222.532,510.34,239.071,512,256,512C397.385,512,512,397.385,512,256z"/>
<path style="fill:#07A171;" d="M361.918,305.816c1.531-8.85-1.288-17.818-7.369-25.975c34.104,2.23,62.709-11.396,66.467-33.124
	c3.301-19.082-13.547-38.719-39.963-49.556c2.635-2.179,5.218-4.514,7.722-7.018c28.181-28.181,36.046-66.006,17.566-84.485
	c-18.479-18.479-56.305-10.615-84.485,17.566c-2.504,2.504-4.839,5.086-7.018,7.722c-10.837-26.417-30.474-43.264-49.556-39.963
	c-21.727,3.758-35.354,32.363-33.124,66.467c-8.157-6.081-17.124-8.9-25.975-7.369c-21.727,3.758-35.354,32.363-33.124,66.467
	c-8.157-6.081-17.124-8.9-25.975-7.369c-24.287,4.201-38.468,39.441-31.676,78.712c5.782,33.426,24.897,58.982,45.435,63.263
	c4.28,20.538,29.837,39.654,63.263,45.435c39.27,6.793,74.511-7.389,78.712-31.676c1.531-8.85-1.288-17.818-7.369-25.975
	C329.555,341.17,358.16,327.544,361.918,305.816z"/>
<path style="fill:#00693C;" d="M361.918,305.816c1.534-8.846-1.287-17.819-7.368-25.979c34.104,2.242,62.713-11.391,66.468-33.121
	c3.295-19.078-13.548-38.721-39.966-49.554c2.637-2.185,5.218-4.511,7.722-7.014c28.185-28.185,36.041-66.008,17.565-84.485
	L160.845,351.155c0.53,2.538,1.379,5.056,2.538,7.516c8.167,17.543,31.424,32.852,60.726,37.915
	c39.266,6.795,74.508-7.389,78.708-31.671c1.534-8.846-1.287-17.819-7.368-25.979C329.56,341.171,358.163,327.545,361.918,305.816z"
	/>
<polygon style="fill:#4BCE5C;" points="309.419,300.819 312.566,286.958 249.427,272.625 293.787,228.264 365.659,244.58 
	368.806,230.718 305.666,216.385 374.658,147.393 364.607,137.342 295.615,206.334 281.282,143.194 267.42,146.341 283.736,218.213 
	239.375,262.573 225.042,199.434 211.181,202.581 227.496,274.453 183.136,318.813 168.803,255.674 154.941,258.821 
	171.256,330.693 100.633,401.316 110.684,411.367 181.307,340.744 253.179,357.059 256.326,343.197 193.187,328.864 
	237.547,284.504 "/>
<polygon style="fill:#07A171;" points="237.552,284.504 193.188,328.867 256.325,343.2 253.186,357.06 181.308,340.747 
	110.69,411.366 105.662,406.338 369.632,142.368 374.66,147.396 305.667,216.388 368.805,230.721 365.665,244.58 293.788,228.267 
	249.431,272.624 312.569,286.957 309.422,300.824 "/>
<g>
</g>
<g>
</g>
<g>
</g>
<g>
</g>
<g>
</g>
<g>
</g>
<g>
</g>
<g>
</g>
<g>
</g>
<g>
</g>
<g>
</g>
<g>
</g>
<g>
</g>
<g>
</g>
<g>
</g>
</svg>
