<?xml version="1.0" encoding="iso-8859-1"?>
<!-- Generator: Adobe Illustrator 19.0.0, SVG Export Plug-In . SVG Version: 6.00 Build 0)  -->
<svg version="1.1" id="Capa_1" xmlns="http://www.w3.org/2000/svg" xmlns:xlink="http://www.w3.org/1999/xlink" x="0px" y="0px"
	 viewBox="0 0 512 512" style="enable-background:new 0 0 512 512;" xml:space="preserve">
<circle style="fill:#FD3018;" cx="256" cy="256" r="256"/>
<path style="fill:#DA0100;" d="M511.847,264.44L412,164.594h-59.208l-36.281-36.563l-128.522,15l-14.255-15L100,383.969
	l126.307,126.307C236.051,511.402,245.955,512,256,512C394.559,512,507.391,401.917,511.847,264.44z"/>
<path style="fill:#57555C;" d="M173.734,182.875h-55.453v-54.844h55.453V182.875z"/>
<path style="fill:#FCBF29;" d="M334.792,164.594l-18.281-36.563H195.489l-18.281,36.563H100v219.375h312V164.594H334.792z"/>
<polygon style="fill:#FEA832;" points="412,164.594 412,383.969 256,383.969 256,128.031 316.511,128.031 334.792,164.594 "/>
<path style="fill:#57555C;" d="M100,219.438v91.406h312v-91.406L100,219.438L100,219.438z"/>
<path style="fill:#E5E5E5;" d="M256,182.875c-45.337,0-82.266,36.927-82.266,82.266c0,45.337,36.928,82.266,82.266,82.266
	s82.266-36.928,82.266-82.266C338.266,219.802,301.337,182.875,256,182.875z"/>
<rect x="256" y="219.44" style="fill:#3C3A41;" width="156" height="91.41"/>
<path style="fill:#C8C6CD;" d="M338.266,265.141c0,45.337-36.928,82.266-82.266,82.266V182.875
	C301.337,182.875,338.266,219.802,338.266,265.141z"/>
<path style="fill:#17ACE8;" d="M256,219.438c-25.228,0-45.703,20.475-45.703,45.703s20.475,45.703,45.703,45.703
	s45.703-20.475,45.703-45.703S281.228,219.438,256,219.438z"/>
<path style="fill:#1689FC;" d="M301.703,265.141c0,25.228-20.475,45.703-45.703,45.703v-91.406
	C281.228,219.438,301.703,239.912,301.703,265.141z"/>
<g>
</g>
<g>
</g>
<g>
</g>
<g>
</g>
<g>
</g>
<g>
</g>
<g>
</g>
<g>
</g>
<g>
</g>
<g>
</g>
<g>
</g>
<g>
</g>
<g>
</g>
<g>
</g>
<g>
</g>
</svg>
