<?xml version="1.0" encoding="iso-8859-1"?>
<!-- Generator: Adobe Illustrator 19.0.0, SVG Export Plug-In . SVG Version: 6.00 Build 0)  -->
<svg version="1.1" id="Capa_1" xmlns="http://www.w3.org/2000/svg" xmlns:xlink="http://www.w3.org/1999/xlink" x="0px" y="0px"
	 viewBox="0 0 512 512" style="enable-background:new 0 0 512 512;" xml:space="preserve">
<circle style="fill:#32D736;" cx="256" cy="256" r="256"/>
<path style="fill:#0CA656;" d="M512,256c0-6.784-0.269-13.505-0.787-20.156L394.184,118.816L256,61l-140.5,62.25L61,256
	l57.816,138.184l117.029,117.029C242.495,511.731,249.216,512,256,512C397.385,512,512,397.385,512,256z"/>
<path style="fill:#787780;" d="M335.98,164.594c0,18.967-15.31,34.277-34.277,34.277H153.168V176.02h148.535
	c6.399,0,11.426-5.027,11.426-11.426s-5.027-11.426-11.426-11.426h-68.555v-22.852h68.555
	C320.67,130.316,335.98,145.627,335.98,164.594z"/>
<polygon style="fill:#896748;" points="198.871,241.133 176.02,221.723 130.316,221.723 130.316,290.277 176.02,290.277 
	198.871,276.215 "/>
<polygon style="fill:#FEDBAB;" points="313.129,240.232 313.129,277.481 290.277,290.277 176.02,290.277 176.02,221.723 
	290.277,221.723 "/>
<path style="fill:#57555C;" d="M335.98,164.594c0,18.967-15.31,34.277-34.277,34.277H256V176.02h45.703
	c6.399,0,11.426-5.027,11.426-11.426s-5.027-11.426-11.426-11.426H256v-22.852h45.703C320.67,130.316,335.98,145.627,335.98,164.594
	z"/>
<polygon style="fill:#FEC478;" points="290.277,221.723 313.129,240.232 313.129,277.481 290.277,290.277 256,290.277 256,221.723 
	"/>
<path style="fill:#FE8821;" d="M381.684,290.277h-91.406v-68.555h91.406V290.277z"/>
<path style="fill:#FD3018;" d="M256,61C148.826,61,61,148.826,61,256s87.826,195,195,195s195-87.826,195-195S363.174,61,256,61z
	 M256,428.148c-94.606,0-172.148-77.543-172.148-172.148c0-43.19,16.987-82.494,43.265-112.658l241.541,241.541
	C338.494,411.162,299.19,428.148,256,428.148z M384.883,368.658L143.342,127.117C173.506,100.838,212.81,83.852,256,83.852
	c94.606,0,172.148,77.543,172.148,172.148C428.148,299.19,411.162,338.494,384.883,368.658z"/>
<path style="fill:#E61E14;" d="M451,256c0,107.174-87.826,195-195,195v-22.852c43.19,0,82.494-16.987,112.658-43.265L256,272.225
	v-32.45l128.883,128.883c26.278-30.164,43.265-69.468,43.265-112.658c0-94.606-77.543-172.148-172.148-172.148V61
	C363.174,61,451,148.826,451,256z"/>
<g>
</g>
<g>
</g>
<g>
</g>
<g>
</g>
<g>
</g>
<g>
</g>
<g>
</g>
<g>
</g>
<g>
</g>
<g>
</g>
<g>
</g>
<g>
</g>
<g>
</g>
<g>
</g>
<g>
</g>
</svg>
