<?xml version="1.0" encoding="iso-8859-1"?>
<!-- Generator: Adobe Illustrator 19.0.0, SVG Export Plug-In . SVG Version: 6.00 Build 0)  -->
<svg version="1.1" id="Capa_1" xmlns="http://www.w3.org/2000/svg" xmlns:xlink="http://www.w3.org/1999/xlink" x="0px" y="0px"
	 viewBox="0 0 512 512" style="enable-background:new 0 0 512 512;" xml:space="preserve">
<circle style="fill:#1F66CC;" cx="256" cy="256" r="256"/>
<path style="fill:#154797;" d="M512,256c0-5.22-0.175-10.398-0.483-15.541L358.766,87.708l-58.226,73.477l-68.213-68.213
	L87.708,227.716l66.809,66.809l-66.809,64.242l152.751,152.751C245.602,511.825,250.78,512,256,512C397.385,512,512,397.385,512,256
	z"/>
<path style="fill:#E0E0E0;" d="M162.19,227.716c0.632-0.632,1.244-1.277,1.838-1.933l122.189,122.189
	c-0.656,0.594-1.301,1.206-1.933,1.838c-20.568,20.568-20.568,53.914,0,74.482s53.914,20.568,74.482,0
	c14.153-14.153,18.566-34.357,13.241-52.284c17.927,5.325,38.131,0.912,52.284-13.241c20.568-20.568,20.568-53.914,0-74.482
	s-53.914-20.568-74.482,0c-0.632,0.632-1.244,1.277-1.838,1.933l-122.189-122.19c0.656-0.594,1.301-1.205,1.933-1.838
	c20.568-20.568,20.568-53.914,0-74.482s-53.914-20.568-74.482,0c-14.153,14.153-18.566,34.357-13.241,52.284
	c-17.927-5.325-38.131-0.912-52.284,13.241c-20.568,20.568-20.568,53.914,0,74.482S141.623,248.283,162.19,227.716z"/>
<path style="fill:#C0C0C0;" d="M139.993,139.993c-17.927-5.325-38.131-0.912-52.284,13.241c-20.568,20.568-20.568,53.914,0,74.482
	s53.914,20.568,74.482,0c0.632-0.632,1.244-1.277,1.838-1.933l122.189,122.189c-0.656,0.594-1.301,1.206-1.933,1.838
	c-20.568,20.568-20.568,53.914,0,74.482s53.914,20.568,74.482,0c14.153-14.153,18.566-34.357,13.241-52.284L139.993,139.993z"/>
<path style="fill:#FFFFFF;" d="M227.716,349.81c-0.632-0.632-1.277-1.244-1.933-1.838l122.189-122.189
	c0.594,0.656,1.206,1.301,1.838,1.933c20.568,20.568,53.914,20.568,74.482,0s20.568-53.914,0-74.482
	c-14.153-14.153-34.357-18.566-52.284-13.241c5.325-17.927,0.912-38.131-13.241-52.284c-20.568-20.568-53.914-20.568-74.482,0
	s-20.568,53.914,0,74.482c0.632,0.632,1.277,1.244,1.933,1.838l-122.19,122.189c-0.594-0.656-1.206-1.301-1.838-1.933
	c-20.568-20.568-53.914-20.568-74.482,0s-20.568,53.914,0,74.482c14.153,14.153,34.357,18.566,52.284,13.241
	c-5.325,17.927-0.912,38.131,13.241,52.284c20.568,20.568,53.914,20.568,74.482,0C248.283,403.724,248.283,370.377,227.716,349.81z"
	/>
<path style="fill:#E0E0E0;" d="M139.993,372.007c-5.325,17.927-0.912,38.131,13.241,52.284c20.568,20.568,53.914,20.568,74.482,0
	s20.568-53.914,0-74.482c-0.632-0.632-1.277-1.244-1.933-1.838l122.189-122.189c0.594,0.656,1.205,1.301,1.838,1.933
	c20.568,20.568,53.914,20.568,74.482,0s20.568-53.914,0-74.482c-14.153-14.153-34.357-18.566-52.284-13.241L139.993,372.007z"/>
<g>
</g>
<g>
</g>
<g>
</g>
<g>
</g>
<g>
</g>
<g>
</g>
<g>
</g>
<g>
</g>
<g>
</g>
<g>
</g>
<g>
</g>
<g>
</g>
<g>
</g>
<g>
</g>
<g>
</g>
</svg>
