<?xml version="1.0" encoding="iso-8859-1"?>
<!-- Generator: Adobe Illustrator 19.0.0, SVG Export Plug-In . SVG Version: 6.00 Build 0)  -->
<svg version="1.1" id="Capa_1" xmlns="http://www.w3.org/2000/svg" xmlns:xlink="http://www.w3.org/1999/xlink" x="0px" y="0px"
	 viewBox="0 0 512 512" style="enable-background:new 0 0 512 512;" xml:space="preserve">
<circle style="fill:#CE7937;" cx="256" cy="256" r="256"/>
<path style="fill:#A94F1F;" d="M512,256c0-10.983-0.694-21.804-2.036-32.423L340.343,53.886c-0.835-0.882-1.69-1.464-2.553-1.719
	l0.001-0.003c-0.005-0.001-0.011-0.001-0.016-0.003c-0.005-0.001-0.01-0.005-0.015-0.006l-0.001,0.003
	c-10.56-2.934-45.665,35.236-61.374,95.2l-84.631-84.733c-7.52-7.717-13.932-11.463-17.516-10.468l-0.001-0.003
	c-0.005,0.001-0.01,0.005-0.015,0.006s-0.011,0.002-0.016,0.003l0.001,0.003c-14.542,4.3-27.24,100.233,33.533,182.747
	c-23.807,25.263-39.78,68.073-43.592,113.492c-13.791,11.193-21.941,24.999-21.941,39.937c0,11.976,5.238,23.223,14.421,32.98
	l90.581,90.51c2.92,0.099,5.849,0.167,8.793,0.167C397.385,512,512,397.385,512,256z"/>
<path style="fill:#FFFFFF;" d="M347.849,348.406c-3.812-45.418-19.785-88.227-43.593-113.49
	c60.774-82.514,48.075-178.448,33.534-182.749l0.001-0.003c-0.005-0.001-0.011-0.002-0.016-0.003s-0.01-0.005-0.015-0.006
	l-0.001,0.003c-14.04-3.901-71.477,64.857-69.015,160.902c-4.14-0.967-8.391-1.481-12.747-1.481c-4.355,0-8.606,0.514-12.744,1.48
	c2.462-96.045-54.975-164.803-69.015-160.902l-0.001-0.003c-0.005,0.001-0.01,0.005-0.015,0.006s-0.011,0.002-0.016,0.003
	l0.001,0.003c-14.542,4.301-27.24,100.233,33.533,182.747c-23.807,25.263-39.78,68.073-43.592,113.492
	c-13.791,11.193-21.941,24.999-21.941,39.937c0,37.366,50.946,67.657,113.792,67.657s113.792-30.291,113.792-67.657
	C369.79,373.405,361.64,359.6,347.849,348.406z"/>
<path style="fill:#FDF3CA;" d="M369.794,388.345c0,37.365-50.951,67.655-113.797,67.655V211.58c4.358,0,8.603,0.513,12.745,1.477
	C266.344,119.614,320.648,52,336.531,52c0.441,0,0.851,0.051,1.23,0.154l0.01,0.01c0.01,0,0.01,0,0.021,0
	c14.54,4.307,27.234,100.241-33.54,182.754c23.809,25.265,39.785,68.065,43.599,113.489
	C361.643,359.604,369.794,373.406,369.794,388.345z"/>
<path style="fill:#FF6239;" d="M232.629,216.635c-6.368,2.84-12.407,6.798-18.077,11.71c-24.353-50.572-32.32-101.328-32.32-125.137
	c0-8.418,0.995-13.463,2.615-13.955h0.01c0,0,0-0.01,0.01,0C190.948,87.601,223.185,144.13,232.629,216.635z"/>
<path style="fill:#FF2102;" d="M329.764,103.208c0,23.809-7.967,74.566-32.32,125.137c-5.67-4.912-11.71-8.87-18.077-11.71
	c9.444-72.505,41.682-129.034,47.762-127.383c0.01-0.01,0.01,0,0.01,0h0.01C328.769,89.744,329.764,94.789,329.764,103.208z"/>
<g>
	
		<rect x="177.727" y="368.918" transform="matrix(-0.9816 -0.191 0.191 -0.9816 327.5627 775.8896)" style="fill:#56545B;" width="46.893" height="6.481"/>
	
		<rect x="177.729" y="392.11" transform="matrix(0.9816 -0.191 0.191 0.9816 -71.8076 45.7024)" style="fill:#56545B;" width="46.893" height="6.481"/>
</g>
<g>
	
		<rect x="287.345" y="368.921" transform="matrix(0.9816 -0.191 0.191 0.9816 -65.3605 66.212)" style="fill:#29292B;" width="46.893" height="6.481"/>
	
		<rect x="287.351" y="392.11" transform="matrix(-0.9816 -0.191 0.191 -0.9816 540.3624 842.7841)" style="fill:#29292B;" width="46.893" height="6.481"/>
</g>
<path style="fill:#FF6239;" d="M270.714,370.875H256h-0.005h-14.714c-7.068,0-11.294,7.937-7.276,13.752
	c5.655,8.185,13.67,16.988,21.99,16.991l0,0c0.001,0,0.001,0,0.002,0c0,0,0.001,0,0.002,0l0,0c8.32-0.003,16.336-8.807,21.99-16.991
	C282.008,378.812,277.781,370.875,270.714,370.875z"/>
<path style="fill:#FF2102;" d="M277.987,384.625c-2.829,4.092-6.238,8.336-9.988,11.564s-7.842,5.431-12.001,5.431v-30.743h14.716
	c3.589,0,6.447,2.051,7.861,4.833C279.952,378.397,279.961,381.767,277.987,384.625z"/>
<circle style="fill:#56545B;" cx="225.23" cy="321.46" r="13.29"/>
<circle style="fill:#29292B;" cx="290.96" cy="321.46" r="13.29"/>
<g>
</g>
<g>
</g>
<g>
</g>
<g>
</g>
<g>
</g>
<g>
</g>
<g>
</g>
<g>
</g>
<g>
</g>
<g>
</g>
<g>
</g>
<g>
</g>
<g>
</g>
<g>
</g>
<g>
</g>
</svg>
