<?xml version="1.0" encoding="iso-8859-1"?>
<!-- Generator: Adobe Illustrator 19.0.0, SVG Export Plug-In . SVG Version: 6.00 Build 0)  -->
<svg version="1.1" id="Capa_1" xmlns="http://www.w3.org/2000/svg" xmlns:xlink="http://www.w3.org/1999/xlink" x="0px" y="0px"
	 viewBox="0 0 512 512" style="enable-background:new 0 0 512 512;" xml:space="preserve">
<circle style="fill:#FFE570;" cx="256" cy="256" r="256"/>
<path style="fill:#FDB500;" d="M512,256c0-24.045-3.322-47.312-9.52-69.376l-72.078-71.916
	c-4.827-5.473-10.523-10.047-17.063-13.513c-26.817-14.213-61.078-6.243-89.996,17.418L294.48,89.086
	c-10.758,0.15-30.725,6.95-32.241,31.175l-19.853-19.717c-7.181-8.499-17.933-11.362-24.865-11.458l-0.127,8.12l24.348,26.027
	v47.514l-39.084-38.973c-31.249-33.538-72.695-47.169-103.997-30.579c-40.496,21.463-48.676,85.368-18.27,142.737
	c7.602,14.343,16.899,26.914,27.198,37.372l32.131,32.106c-18.619,29.964-22.885,61.751-10.928,78.753l-20.533,22.518l91.409,91.086
	C217.794,509.838,236.643,512,256,512C397.385,512,512,397.385,512,256z"/>
<path style="fill:#FB233B;" d="M227.039,166.208c-30.405-57.369-87.882-86.476-128.378-65.013s-48.676,85.368-18.27,142.737
	c15.828,29.864,38.992,52.063,63.278,63.463c-21.922,31.638-27.638,66.622-14.878,84.768l-20.533,22.518l11.402,10.397
	l21.177-23.224c21.756,9.06,56.31-8.322,80.88-41.967c23.37-32.002,20.112-47.783,20.112-87.05S246.787,203.468,227.039,166.208z"/>
<g>
	
		<ellipse transform="matrix(-0.4683 -0.8836 0.8836 -0.4683 44.5096 436.9302)" style="fill:#FDAA11;" cx="153.721" cy="205.073" rx="62.182" ry="43.896"/>
	
		<ellipse transform="matrix(-0.5898 0.8076 -0.8076 -0.5898 557.9974 391.2431)" style="fill:#FDAA11;" cx="179.628" cy="337.346" rx="36.624" ry="20.904"/>
</g>
<path style="fill:#C70C24;" d="M284.961,166.208c30.405-57.369,87.882-86.476,128.378-65.013s48.676,85.368,18.27,142.737
	c-15.828,29.864-38.992,52.063-63.278,63.463c21.922,31.638,27.638,66.622,14.878,84.768l20.533,22.518l-11.402,10.397
	l-21.177-23.224c-21.756,9.06-56.31-8.322-80.88-41.967c-23.37-32.002-20.112-47.783-20.112-87.05S265.213,203.468,284.961,166.208z
	"/>
<g>
	
		<ellipse transform="matrix(-0.4683 0.8836 -0.8836 -0.4683 707.231 -15.4669)" style="fill:#FD880C;" cx="358.269" cy="205.063" rx="62.182" ry="43.896"/>
	
		<ellipse transform="matrix(-0.5898 -0.8076 0.8076 -0.5898 256.0179 804.7636)" style="fill:#FD880C;" cx="332.409" cy="337.356" rx="36.624" ry="20.904"/>
</g>
<path style="fill:#0F6EF6;" d="M294.536,93.146l-0.056-4.06c-11.187,0.156-32.343,7.493-32.343,34.146v47.919
	c-0.759-0.107-1.528-0.181-2.316-0.181h-7.643c-0.787,0-1.557,0.074-2.316,0.181v-47.919c0-26.654-21.156-33.991-32.342-34.146
	l-0.127,8.12c0.064,0.001,6.421,0.172,12.555,3.555c7.826,4.317,11.794,11.877,11.794,22.472v51.425
	c-3.838,3.076-6.313,7.792-6.313,13.063v152.944c0,9.212,7.537,16.749,16.749,16.749h7.643c9.212,0,16.749-7.537,16.749-16.749
	V187.721c0-5.272-2.475-9.987-6.313-13.063v-51.425c0-10.595,3.968-18.155,11.794-22.472c6.134-3.383,12.492-3.554,12.555-3.555
	L294.536,93.146z"/>
<path style="fill:#084DB2;" d="M294.609,97.204c-0.064,0-6.419,0.171-12.56,3.561c-7.826,4.308-11.793,11.878-11.793,22.466v51.425
	c3.839,3.081,6.312,7.794,6.312,13.062v152.943c0,9.212-7.538,16.751-16.751,16.751H256V170.967h3.817
	c0.789,0,1.557,0.075,2.324,0.181v-47.917c0-26.656,21.154-33.992,32.339-34.141l0.053,4.052L294.609,97.204z"/>
<g>
	<rect x="235.43" y="218.34" style="fill:#55C9FD;" width="41.14" height="26.403"/>
	<rect x="235.43" y="283.64" style="fill:#55C9FD;" width="41.14" height="26.403"/>
</g>
<g>
	<rect x="256" y="218.34" style="fill:#0CA7FC;" width="20.568" height="26.411"/>
	<rect x="256" y="283.64" style="fill:#0CA7FC;" width="20.568" height="26.4"/>
</g>
<g>
</g>
<g>
</g>
<g>
</g>
<g>
</g>
<g>
</g>
<g>
</g>
<g>
</g>
<g>
</g>
<g>
</g>
<g>
</g>
<g>
</g>
<g>
</g>
<g>
</g>
<g>
</g>
<g>
</g>
</svg>
