<?xml version="1.0" encoding="iso-8859-1"?>
<!-- Generator: Adobe Illustrator 19.0.0, SVG Export Plug-In . SVG Version: 6.00 Build 0)  -->
<svg version="1.1" id="Capa_1" xmlns="http://www.w3.org/2000/svg" xmlns:xlink="http://www.w3.org/1999/xlink" x="0px" y="0px"
	 viewBox="0 0 512 512" style="enable-background:new 0 0 512 512;" xml:space="preserve">
<circle style="fill:#1F66CC;" cx="256" cy="256" r="256"/>
<path style="fill:#154797;" d="M512,256c0-19.917-2.276-39.303-6.579-57.913L395,87.667l-28.755,180.524L174.667,76.612L117,424.333
	l81.087,81.087c18.61,4.304,37.996,6.58,57.913,6.58C397.385,512,512,397.385,512,256z"/>
<path style="fill:#FFFFFF;" d="M395,87.667c-19.222-4.656-38.444-8.331-57.667-11.055v89.054H174.667V76.612
	c-19.222,2.724-38.445,6.399-57.667,11.055c-18.533,112.222-18.533,224.444,0,336.667c92.667,22.445,185.333,22.445,278,0
	C413.533,312.111,413.533,199.889,395,87.667z"/>
<path style="fill:#E0E0E0;" d="M395,87.667c-19.222-4.656-38.444-8.331-57.667-11.055v89.054h-81.381v275.5
	c46.349,0.004,92.698-5.607,139.048-16.833C413.533,312.111,413.533,199.889,395,87.667z"/>
<path style="fill:#854830;" d="M315.349,313.619c2.403-4.272,3.78-9.198,3.78-14.448c0-14.77-10.848-27.007-25.011-29.178
	c1.34-4.382,1.189-9.293-0.96-13.973l-18.256-39.754c0,13.334-10.81,24.144-24.144,24.144l0,0c-17.264,0-31.49,12.968-33.493,29.692
	c-13.859,2.428-24.394,14.514-24.394,29.068l0,0c0,5.25,1.377,10.176,3.78,14.448c-12.727,6.088-21.519,19.082-21.519,34.131l0,0
	c0,20.885,16.931,37.816,37.816,37.816h86.104c20.885,0,37.816-16.931,37.816-37.816l0,0
	C336.868,332.701,328.076,319.707,315.349,313.619z"/>
<path style="fill:#7A3817;" d="M315.349,313.619c2.403-4.272,3.78-9.198,3.78-14.448c0-14.77-10.848-27.007-25.011-29.178
	c1.34-4.383,1.189-9.293-0.96-13.973l-18.256-39.754c0,11.551-8.113,21.201-18.95,23.578v145.722h43.1
	c20.885,0,37.816-16.931,37.816-37.816C336.868,332.701,328.076,319.707,315.349,313.619z"/>
<g>
</g>
<g>
</g>
<g>
</g>
<g>
</g>
<g>
</g>
<g>
</g>
<g>
</g>
<g>
</g>
<g>
</g>
<g>
</g>
<g>
</g>
<g>
</g>
<g>
</g>
<g>
</g>
<g>
</g>
</svg>
