<?xml version="1.0" encoding="iso-8859-1"?>
<!-- Generator: Adobe Illustrator 19.0.0, SVG Export Plug-In . SVG Version: 6.00 Build 0)  -->
<svg version="1.1" id="Capa_1" xmlns="http://www.w3.org/2000/svg" xmlns:xlink="http://www.w3.org/1999/xlink" x="0px" y="0px"
	 viewBox="0 0 512 512" style="enable-background:new 0 0 512 512;" xml:space="preserve">
<circle style="fill:#CE7937;" cx="256" cy="256" r="256"/>
<path style="fill:#A94F1F;" d="M512,256c0-14.02-1.145-27.77-3.313-41.177L374.012,80.384
	c-7.925-10.109-22.512-15.941-32.054-13.722c-13.596,3.162-19.87,28.996-22.029,40.644c-16.751-11.932-37.727-18.921-63.926-18.922
	l0,0c-0.001,0-0.002,0-0.003,0s-0.002,0-0.003,0l0,0c-19.784,0.001-36.585,3.991-50.842,11.08L177.8,71.459
	c-2.271-2.398-4.845-4.119-7.758-4.797c-17.623-4.098-52.46,19.263-30.738,46.312c1.678,2.089,3.36,3.982,5.041,5.686l19.268,19.01
	c-23.107,35.654-31.723,85.837-33.834,134.035c-14.434,10.403-23.884,27.34-23.884,46.388v26.242
	c0,16.449,7.041,31.332,18.257,41.787l125.992,125.803C252.091,511.97,254.042,512,256,512C397.385,512,512,397.385,512,256z"/>
<path style="fill:#ACABB1;" d="M316.845,422.501h-121.69c-12.864,0-23.389-10.525-23.389-23.388v-18.608h168.468v18.608
	C340.234,411.977,329.709,422.501,316.845,422.501z"/>
<path style="fill:#949498;" d="M340.23,380.5v18.61c0,0.81-0.04,1.61-0.12,2.39c-1.21,11.76-11.21,21-23.26,21H256v-42H340.23z"/>
<path style="fill:#ACABB1;" d="M343.873,131.136c8.905-0.361,18.947-5.863,28.823-18.162c21.722-27.05-13.115-50.411-30.738-46.312
	c-13.596,3.162-19.87,28.996-22.029,40.644c-16.751-11.932-37.727-18.921-63.926-18.922l0,0c-0.001,0-0.002,0-0.003,0
	s-0.002,0-0.003,0l0,0c-26.199,0.001-47.175,6.99-63.926,18.922c-2.159-11.648-8.433-37.482-22.029-40.644
	c-17.623-4.098-52.46,19.263-30.738,46.312c9.876,12.299,19.918,17.801,28.823,18.162c-31.077,42.05-38.908,108.249-38.908,166.677
	h126.778h0.005H382.78C382.78,239.385,374.95,173.186,343.873,131.136z"/>
<path style="fill:#949498;" d="M382.78,297.81H256V88.38c26.2,0.01,47.18,6.99,63.93,18.93c2.16-11.65,8.43-37.49,22.03-40.65
	c17.62-4.1,52.46,19.26,30.74,46.31c-9.88,12.3-19.92,17.81-28.83,18.17c26.52,35.88,36.11,89.33,38.35,140.55
	C382.61,280.5,382.78,289.24,382.78,297.81z"/>
<path style="fill:#FFFFFF;" d="M221.66,435h-20.153c-6.6,0-12-5.4-12-12v-26.3c0-6.6,5.4-12,12-12h20.153c6.6,0,12,5.4,12,12V423
	C233.66,429.6,228.26,435,221.66,435z"/>
<path style="fill:#FDF3CA;" d="M310.493,435H290.34c-6.6,0-12-5.4-12-12v-26.3c0-6.6,5.4-12,12-12h20.153c6.6,0,12,5.4,12,12V423
	C322.493,429.6,317.093,435,310.493,435z"/>
<path style="fill:#D7D7D9;" d="M348.938,401.503H163.062c-31.442,0-57.167-25.725-57.167-57.167v-26.243
	c0-31.442,25.725-57.167,57.167-57.167h185.876c31.442,0,57.167,25.725,57.167,57.167v26.243
	C406.105,375.778,380.38,401.503,348.938,401.503z"/>
<path style="fill:#C6C4CA;" d="M406.1,318.09v26.25c0,31.44-25.72,57.16-57.16,57.16H256V260.93h92.94
	c12.39,0,23.89,3.99,33.28,10.76C396.66,282.09,406.1,299.04,406.1,318.09z"/>
<circle style="fill:#ACABB1;" cx="188.08" cy="312.46" r="23.668"/>
<circle style="fill:#949498;" cx="323.92" cy="312.46" r="23.668"/>
<path style="fill:#77767E;" d="M187.565,110.7c-5.619,4.5-10.722,9.603-15.357,15.197c-5.41-0.516-11.89-3.934-17.631-11.078
	c-13.303-16.562,6.615-30.025,17.41-27.517C180.064,89.183,185.794,103.433,187.565,110.7z"/>
<g>
	<path style="fill:#56545B;" d="M357.424,114.819c-5.742,7.144-12.222,10.562-17.632,11.078
		c-4.635-5.594-9.738-10.697-15.357-15.197c1.771-7.267,7.5-21.517,15.578-23.398C350.809,84.794,370.727,98.257,357.424,114.819z"
		/>
	<circle style="fill:#56545B;" cx="213.86" cy="196.47" r="14.462"/>
</g>
<circle style="fill:#29292B;" cx="298.14" cy="196.47" r="14.462"/>
<g>
</g>
<g>
</g>
<g>
</g>
<g>
</g>
<g>
</g>
<g>
</g>
<g>
</g>
<g>
</g>
<g>
</g>
<g>
</g>
<g>
</g>
<g>
</g>
<g>
</g>
<g>
</g>
<g>
</g>
</svg>
