<?xml version="1.0" encoding="iso-8859-1"?>
<!-- Generator: Adobe Illustrator 19.0.0, SVG Export Plug-In . SVG Version: 6.00 Build 0)  -->
<svg version="1.1" id="Capa_1" xmlns="http://www.w3.org/2000/svg" xmlns:xlink="http://www.w3.org/1999/xlink" x="0px" y="0px"
	 viewBox="0 0 512 512" style="enable-background:new 0 0 512 512;" xml:space="preserve">
<circle style="fill:#00DE7E;" cx="256" cy="256" r="256"/>
<path style="fill:#00B77C;" d="M276.313,511.199C407.405,500.907,510.726,391.871,511.97,258.43L335,81.461l-141.167,17.72
	l49.359,49.359l-41.856,9.337l85.1,85.1L178.533,413.419L276.313,511.199z"/>
<path style="fill:#1F66CC;" d="M201.336,157.876L201.336,157.876l57.04-57.04l18.62,18.62l-38.42,38.419
	C228.293,168.16,211.62,168.16,201.336,157.876z"/>
<polygon style="fill:#154797;" points="258.376,100.836 255.952,103.26 255.952,140.501 276.997,119.457 "/>
<path style="fill:#FFFFFF;" d="M277,134.833v68.635c0,16.004-10.081,30.272-25.165,35.618l-55.004,19.495
	c-15.084,5.346-25.165,19.614-25.165,35.618v97.512c0,20.87,16.919,37.789,37.789,37.789h87.755
	c20.87,0,37.789-16.919,37.789-37.789V134.833H277z"/>
<path style="fill:#E0E0E0;" d="M277,134.833v68.635c0,14.499-8.275,27.573-21.048,33.879V429.5h41.259
	c20.87,0,37.789-16.919,37.789-37.789V134.833H277z"/>
<rect x="193.83" y="75.56" style="fill:#1F66CC;" width="22.875" height="23.625"/>
<path style="fill:#FF8700;" d="M317.833,74.5H209.479v26.604l63.299,40.824H342.5V99.167C342.5,85.544,331.456,74.5,317.833,74.5z"
	/>
<path style="fill:#F56C04;" d="M317.833,74.5h-61.881v56.576l16.826,10.852H342.5V99.167C342.5,85.544,331.456,74.5,317.833,74.5z"
	/>
<rect x="198.33" y="280.33" style="fill:#F9C41E;" width="116" height="120.67"/>
<rect x="255.95" y="280.33" style="fill:#FE9A35;" width="58.38" height="120.67"/>
<path style="fill:#1F66CC;" d="M283.439,362.247c0,14.97-12.136,4.221-27.106,4.221s-27.106,10.75-27.106-4.221
	c0-14.97,12.136-27.106,27.106-27.106C271.303,335.141,283.439,347.277,283.439,362.247z"/>
<path style="fill:#154797;" d="M256.333,335.141c-0.128,0-0.254,0.008-0.381,0.01v31.325c0.127-0.001,0.253-0.008,0.381-0.008
	c14.97,0,27.106,10.75,27.106-4.22S271.304,335.141,256.333,335.141z"/>
<ellipse style="fill:#1F66CC;" cx="256.33" cy="320.7" rx="7.41" ry="9.567"/>
<path style="fill:#154797;" d="M256.333,311.13c-0.129,0-0.254,0.016-0.381,0.025v19.084c0.127,0.009,0.252,0.025,0.381,0.025
	c4.092,0,7.41-4.283,7.41-9.567C263.743,315.413,260.426,311.13,256.333,311.13z"/>
<ellipse style="fill:#1F66CC;" cx="221.63" cy="345.08" rx="7.41" ry="9.567"/>
<g>
	<ellipse style="fill:#154797;" cx="291.04" cy="345.08" rx="7.41" ry="9.567"/>
	<ellipse style="fill:#154797;" cx="276.87" cy="328.01" rx="7.41" ry="9.567"/>
</g>
<ellipse style="fill:#1F66CC;" cx="235.79" cy="328.01" rx="7.41" ry="9.567"/>
<g>
</g>
<g>
</g>
<g>
</g>
<g>
</g>
<g>
</g>
<g>
</g>
<g>
</g>
<g>
</g>
<g>
</g>
<g>
</g>
<g>
</g>
<g>
</g>
<g>
</g>
<g>
</g>
<g>
</g>
</svg>
