<?xml version="1.0" encoding="iso-8859-1"?>
<!-- Generator: Adobe Illustrator 19.0.0, SVG Export Plug-In . SVG Version: 6.00 Build 0)  -->
<svg version="1.1" id="Capa_1" xmlns="http://www.w3.org/2000/svg" xmlns:xlink="http://www.w3.org/1999/xlink" x="0px" y="0px"
	 viewBox="0 0 512 512" style="enable-background:new 0 0 512 512;" xml:space="preserve">
<circle style="fill:#C8EC4B;" cx="256" cy="256" r="256"/>
<path style="fill:#A8D32A;" d="M512,256c0-4.354-0.111-8.683-0.326-12.984L328.469,59.811l-4.011,108.511L215.947,59.811
	l-63.009,367.132l84.375,84.375C243.485,511.763,249.714,512,256,512C397.385,512,512,397.385,512,256z"/>
<polygon style="fill:#854830;" points="246.54,116.336 215.947,116.336 215.947,85.744 183.531,85.744 183.531,116.336 
	152.938,116.336 152.938,426.943 183.531,426.943 183.531,452.189 215.947,452.189 215.947,426.943 246.54,426.943 "/>
<polygon style="fill:#663425;" points="215.947,116.336 215.947,85.744 198.214,85.744 198.214,452.189 215.947,452.189 
	215.947,426.943 246.54,426.943 246.54,116.336 "/>
<rect x="183.53" y="103.4" style="fill:#753214;" width="32.416" height="348.79"/>
<rect x="198.21" y="103.4" style="fill:#5D2307;" width="17.733" height="348.79"/>
<polygon style="fill:#C4795F;" points="246.54,90.403 215.947,90.403 215.947,59.811 183.531,59.811 183.531,90.403 152.938,90.403 
	152.938,122.82 183.531,122.82 183.531,153.412 215.947,153.412 215.947,122.82 246.54,122.82 "/>
<polygon style="fill:#A05B48;" points="215.947,90.403 215.947,59.811 198.214,59.811 198.214,153.412 215.947,153.412 
	215.947,122.82 246.54,122.82 246.54,90.403 "/>
<polygon style="fill:#854830;" points="359.062,116.336 328.469,116.336 328.469,85.744 296.053,85.744 296.053,116.336 
	265.46,116.336 265.46,426.943 296.053,426.943 296.053,452.189 328.469,452.189 328.469,426.943 359.062,426.943 "/>
<polygon style="fill:#663425;" points="328.469,116.336 328.469,85.744 311.31,85.744 311.31,452.189 328.469,452.189 
	328.469,426.943 359.062,426.943 359.062,116.336 "/>
<rect x="296.05" y="103.4" style="fill:#753214;" width="32.416" height="348.79"/>
<rect x="311.31" y="103.4" style="fill:#5D2307;" width="17.16" height="348.79"/>
<polygon style="fill:#C4795F;" points="359.062,90.403 328.469,90.403 328.469,59.811 296.053,59.811 296.053,90.403 265.46,90.403 
	265.46,122.82 296.053,122.82 296.053,153.412 328.469,153.412 328.469,122.82 359.062,122.82 "/>
<polygon style="fill:#A05B48;" points="328.469,90.403 328.469,59.811 311.31,59.811 311.31,153.412 328.469,153.412 
	328.469,122.82 359.062,122.82 359.062,90.403 "/>
<g>
</g>
<g>
</g>
<g>
</g>
<g>
</g>
<g>
</g>
<g>
</g>
<g>
</g>
<g>
</g>
<g>
</g>
<g>
</g>
<g>
</g>
<g>
</g>
<g>
</g>
<g>
</g>
<g>
</g>
</svg>
