<?xml version="1.0" encoding="iso-8859-1"?>
<!-- Generator: Adobe Illustrator 19.0.0, SVG Export Plug-In . SVG Version: 6.00 Build 0)  -->
<svg version="1.1" id="Capa_1" xmlns="http://www.w3.org/2000/svg" xmlns:xlink="http://www.w3.org/1999/xlink" x="0px" y="0px"
	 viewBox="0 0 512 512" style="enable-background:new 0 0 512 512;" xml:space="preserve">
<circle style="fill:#C8EC4B;" cx="256" cy="256" r="256"/>
<path style="fill:#A8D32A;" d="M296.634,73.174L83.443,286.35l221.044,221.044c108.355-20.776,192.423-109.848,205.674-220.693
	L296.634,73.174z"/>
<path style="fill:#AB6A50;" d="M344.581,121.12c-9.075-9.074-21.147-14.082-33.591-14.356c-0.274-12.442-5.282-24.515-14.356-33.589
	c-19.121-19.119-50.23-19.12-69.35-0.001c-9.262,9.261-14.362,21.575-14.362,34.673c0,10.201,3.095,19.927,8.839,28.106
	l-75.539,75.534c-19.116-13.382-45.718-11.542-62.778,5.516c-9.262,9.261-14.362,21.575-14.362,34.674
	c0,13.098,5.101,25.412,14.362,34.674c9.075,9.074,21.147,14.082,33.591,14.356c0.274,12.442,5.282,24.515,14.356,33.589
	c9.562,9.561,22.117,14.34,34.676,14.34c12.556,0,25.115-4.78,34.674-14.338c9.262-9.261,14.362-21.575,14.362-34.674
	c0-10.202-3.094-19.928-8.839-28.107l75.539-75.533c19.118,13.382,45.719,11.541,62.778-5.516
	c9.262-9.261,14.362-21.575,14.362-34.673S353.843,130.382,344.581,121.12z"/>
<g>
	<path style="fill:#854830;" d="M344.581,121.12c-9.075-9.074-21.147-14.082-33.591-14.356l-12.092,12.092l0,0l-154.19,154.179
		v-0.001l-27.674,27.673c0.274,12.442,5.282,24.515,14.356,33.589c9.562,9.561,22.117,14.34,34.676,14.34
		c12.556,0,25.115-4.78,34.674-14.338c9.262-9.261,14.362-21.575,14.362-34.674c0-10.202-3.094-19.928-8.839-28.107l75.539-75.533
		c19.118,13.382,45.719,11.541,62.778-5.516c9.262-9.261,14.362-21.575,14.362-34.673S353.843,130.382,344.581,121.12z"/>
	<path style="fill:#854830;" d="M435.031,331.658L333.325,433.364c-13.31,13.31-34.891,13.31-48.201,0l-66.821-66.821
		c-13.31-13.31-13.31-34.891,0-48.201l101.706-101.706c13.31-13.31,34.891-13.31,48.201,0l66.821,66.821
		C448.341,296.768,448.341,318.348,435.031,331.658z"/>
</g>
<path style="fill:#7A3817;" d="M435.031,283.457l-34.494-34.494L250.63,398.87l34.494,34.494c13.31,13.31,34.891,13.31,48.201,0
	l101.706-101.706C448.341,318.348,448.341,296.768,435.031,283.457z"/>
<circle style="fill:#AB6A50;" cx="259.49" cy="340.2" r="17.5"/>
<circle style="fill:#854830;" cx="311.46" cy="392.18" r="17.5"/>
<circle style="fill:#AB6A50;" cx="300.68" cy="299.01" r="17.5"/>
<circle style="fill:#854830;" cx="352.65" cy="350.99" r="17.5"/>
<circle style="fill:#AB6A50;" cx="341.87" cy="257.82" r="17.5"/>
<circle style="fill:#854830;" cx="393.84" cy="309.8" r="17.5"/>
<g>
</g>
<g>
</g>
<g>
</g>
<g>
</g>
<g>
</g>
<g>
</g>
<g>
</g>
<g>
</g>
<g>
</g>
<g>
</g>
<g>
</g>
<g>
</g>
<g>
</g>
<g>
</g>
<g>
</g>
</svg>
