<?xml version="1.0" encoding="iso-8859-1"?>
<!-- Generator: Adobe Illustrator 19.0.0, SVG Export Plug-In . SVG Version: 6.00 Build 0)  -->
<svg version="1.1" id="Capa_1" xmlns="http://www.w3.org/2000/svg" xmlns:xlink="http://www.w3.org/1999/xlink" x="0px" y="0px"
	 viewBox="0 0 512 512" style="enable-background:new 0 0 512 512;" xml:space="preserve">
<circle style="fill:#6DE6FF;" cx="256" cy="256" r="256"/>
<path style="fill:#47BFFF;" d="M512,256c0-13.693-1.088-27.131-3.158-40.242L361.093,68.066c-0.218-0.258-0.449-0.508-0.692-0.752
	c-4.947-4.947-12.967-4.947-17.914,0s-4.947,12.967,0,17.913l11.959,12.432c-0.996,7.84-5.535,20.215-20.351,37.37
	c-19.14-15.737-47.695-14.677-65.561,3.188l-2.36,2.36c-10.929,10.929-15.559,25.857-13.911,40.184
	c-28.754-18.94-69.186-34.629-111.837-15.879c-46.552,20.465-51.875,69.51-29.399,100.461c-1.101,0.986-2.182,2.005-3.239,3.062
	c-33.268,33.268-31.179,89.296,4.667,125.143l117.099,117.099C238.249,511.54,247.071,512,256,512C397.385,512,512,397.385,512,256z
	"/>
<path style="fill:#56545B;" d="M370.975,171.909c26.827-23.169,41.974-21.211,46.347-19.863c-0.81,4.019,0.339,8.355,3.455,11.471
	c4.947,4.947,12.967,4.947,17.914,0s4.947-12.967,0-17.914c-4.764-4.764-12.371-4.926-17.346-0.513
	c-5.268-2.221-23.834-6.635-55.81,21.045L339.87,140.47c27.68-31.976,23.265-50.543,21.045-55.81
	c4.413-4.975,4.251-12.582-0.513-17.346c-4.947-4.947-12.967-4.947-17.914,0s-4.947,12.967,0,17.914
	c3.116,3.117,7.452,4.265,11.471,3.455c1.347,4.373,3.306,19.52-19.863,46.347c-19.14-15.737-47.695-14.677-65.56,3.188l-2.36,2.36
	c-13.75,13.75-17.54,33.83-11.387,51.078c-8.451,1.521-16.533,5.522-23.029,12.019l-42.719,42.719
	c-16.968,16.968-16.968,44.733,0,61.701l8.871,8.872c16.968,16.968,44.733,16.968,61.701,0l42.719-42.719
	c6.497-6.497,10.497-14.579,12.018-23.029c17.248,6.153,37.328,2.362,51.078-11.387l2.36-2.36
	C385.653,219.604,386.712,191.049,370.975,171.909z"/>
<path style="fill:#29292B;" d="M367.783,237.471l-2.355,2.355c-13.753,13.753-33.835,17.543-51.074,11.392
	c-1.52,8.45-5.53,16.532-12.028,23.031l-42.716,42.716c-0.354,0.353-0.714,0.7-1.082,1.039c-17.041,15.924-44.003,15.577-60.62-1.04
	l-4.433-4.433L352.7,153.305l12.834,12.834c31.982-27.683,50.544-23.264,55.812-21.051c4.978-4.412,12.579-4.25,17.345,0.516
	c4.943,4.943,4.95,12.968,0,17.918c-4.943,4.943-12.969,4.936-17.911-0.007c-3.118-3.118-4.271-7.453-3.465-11.469
	c-4.363-1.35-19.516-3.309-46.337,19.863C386.712,191.05,385.651,219.603,367.783,237.471z"/>
<ellipse transform="matrix(-0.7071 0.7071 -0.7071 -0.7071 530.4988 446.895)" style="fill:#FFE570;" cx="172.694" cy="333.317" rx="85.189" ry="91.789"/>
<path style="fill:#FDB500;" d="M237.597,398.218c-33.269,33.269-89.3,31.176-125.144-4.667L232.93,273.074
	c12.997,12.997,21.56,28.659,25.597,44.93C265.641,346.571,258.796,377.019,237.597,398.218z"/>
<path style="fill:#E6974A;" d="M287.241,209.48c-20.498-20.498-81.022-73.519-146.814-44.596
	c-67.386,29.624-48.396,119.146,16.277,126.959C212.045,298.528,287.241,209.48,287.241,209.48z"/>
<path style="fill:#CE7937;" d="M296.525,218.764c20.498,20.498,73.519,81.022,44.596,146.814
	c-29.624,67.386-119.146,48.396-126.959-16.277C207.477,293.96,296.525,218.764,296.525,218.764z"/>
<g>
</g>
<g>
</g>
<g>
</g>
<g>
</g>
<g>
</g>
<g>
</g>
<g>
</g>
<g>
</g>
<g>
</g>
<g>
</g>
<g>
</g>
<g>
</g>
<g>
</g>
<g>
</g>
<g>
</g>
</svg>
