<?xml version="1.0" encoding="iso-8859-1"?>
<!-- Generator: Adobe Illustrator 19.0.0, SVG Export Plug-In . SVG Version: 6.00 Build 0)  -->
<svg version="1.1" id="Capa_1" xmlns="http://www.w3.org/2000/svg" xmlns:xlink="http://www.w3.org/1999/xlink" x="0px" y="0px"
	 viewBox="0 0 512 512" style="enable-background:new 0 0 512 512;" xml:space="preserve">
<circle style="fill:#1F66CC;" cx="256" cy="256" r="256"/>
<g>
	<path style="fill:#154797;" d="M380.451,145.691l130.737,130.737C511.721,269.688,512,262.877,512,256
		c0-9.609-0.547-19.088-1.579-28.422L404.493,121.65L380.451,145.691z"/>
	<path style="fill:#154797;" d="M276.43,511.188L145.693,380.452l-24.042,24.042l105.928,105.928
		C236.913,511.453,246.392,512,256,512C262.877,512,269.689,511.721,276.43,511.188z"/>
	<path style="fill:#154797;" d="M509.986,288.231L366.544,144.789l-5.354,6.402L266,56l-20,34l29.541,29.541v102.922l-74.171-74.171
		l-4.418,34.518l-51.261-51.261l-14.143,14.142l62.194,62.194l-49.567-11.614l71.549,71.549l-93.154,10.751L90,246l-34,20
		l94.961,94.961l-5.506,4.917l143.953,143.953C404.464,494.834,495.512,403.449,509.986,288.231z"/>
</g>
<path style="fill:#FF6472;" d="M281.26,234.826h-50.521l-11.8-93.812C216.134,118.711,233.521,99,256,99l0,0
	c22.479,0,39.866,19.711,37.061,42.015L281.26,234.826z"/>
<path style="fill:#E15050;" d="M256,99L256,99c-0.016,0-0.032,0.001-0.048,0.001v135.825h25.308l11.8-93.812
	C295.866,118.711,278.479,99,256,99z"/>
<path style="fill:#FF6472;" d="M230.74,275.84h50.521l11.8,93.812c2.806,22.304-14.581,42.015-37.061,42.015l0,0
	c-22.479,0-39.866-19.711-37.061-42.015L230.74,275.84z"/>
<g>
	<path style="fill:#E15050;" d="M293.061,369.652l-11.8-93.812h-25.308v135.825c0.016,0,0.031,0.001,0.048,0.001l0,0
		C278.479,411.667,295.866,391.955,293.061,369.652z"/>
	<path style="fill:#E15050;" d="M276.507,280.594v-50.521l93.812-11.8c22.304-2.806,42.015,14.582,42.015,37.061l0,0
		c0,22.479-19.711,39.866-42.015,37.061L276.507,280.594z"/>
</g>
<g>
	<path style="fill:#FF6472;" d="M235.493,230.073v50.521l-93.812,11.8c-22.304,2.806-42.015-14.582-42.015-37.061l0,0
		c0-22.479,19.711-39.866,42.015-37.061L235.493,230.073z"/>
	<path style="fill:#FF6472;" d="M288.363,258.695l-35.724-35.724l57.991-74.679c13.787-17.755,40.02-19.398,55.915-3.503l0,0
		c15.895,15.895,14.252,42.128-3.503,55.915L288.363,258.695z"/>
</g>
<g>
	<path style="fill:#FFA899;" d="M223.638,251.972l35.724,35.724l-57.991,74.679c-13.787,17.755-40.02,19.398-55.915,3.503l0,0
		c-15.895-15.895-14.252-42.128,3.503-55.915L223.638,251.972z"/>
	<path style="fill:#FFA899;" d="M259.361,222.971l-35.724,35.724l-74.679-57.991c-17.755-13.787-19.398-40.02-3.503-55.915l0,0
		c15.895-15.895,42.128-14.252,55.915,3.503L259.361,222.971z"/>
</g>
<path style="fill:#FF6472;" d="M252.64,287.696l35.723-35.724l74.679,57.991c17.755,13.787,19.398,40.02,3.503,55.915l0,0
	c-15.895,15.895-42.128,14.252-55.915-3.503L252.64,287.696z"/>
<circle style="fill:#F9C41E;" cx="256" cy="255.87" r="83.36"/>
<path style="fill:#FE9A35;" d="M256,172.506c-0.016,0-0.032,0.001-0.048,0.001v166.718c0.016,0,0.031,0.001,0.048,0.001
	c46.039,0,83.36-37.322,83.36-83.36S302.039,172.506,256,172.506z"/>
<rect x="246" y="56" style="fill:#FFFFFF;" width="20" height="34"/>
<rect x="255.95" y="56" style="fill:#E0E0E0;" width="10.05" height="34"/>
<rect x="246" y="422" style="fill:#FFFFFF;" width="20" height="34"/>
<g>
	<rect x="255.95" y="422" style="fill:#E0E0E0;" width="10.05" height="34"/>
	<rect x="422" y="246" style="fill:#E0E0E0;" width="34" height="20"/>
</g>
<rect x="56" y="246" style="fill:#FFFFFF;" width="34" height="20"/>
<rect x="375.388" y="109.595" transform="matrix(-0.7071 -0.7071 0.7071 -0.7071 568.3812 488.6216)" style="fill:#E0E0E0;" width="20" height="34"/>
<g>
	
		<rect x="116.593" y="368.393" transform="matrix(-0.7071 -0.7071 0.7071 -0.7071 -56.4072 747.4218)" style="fill:#FFFFFF;" width="20" height="34"/>
	
		<rect x="109.6" y="116.598" transform="matrix(-0.7071 -0.7071 0.7071 -0.7071 126.6016 305.6355)" style="fill:#FFFFFF;" width="34" height="20"/>
</g>
<rect x="368.41" y="375.393" transform="matrix(-0.7071 -0.7071 0.7071 -0.7071 385.4223 930.4324)" style="fill:#E0E0E0;" width="34" height="20"/>
<g>
</g>
<g>
</g>
<g>
</g>
<g>
</g>
<g>
</g>
<g>
</g>
<g>
</g>
<g>
</g>
<g>
</g>
<g>
</g>
<g>
</g>
<g>
</g>
<g>
</g>
<g>
</g>
<g>
</g>
</svg>
