<?xml version="1.0" encoding="iso-8859-1"?>
<!-- Generator: Adobe Illustrator 19.0.0, SVG Export Plug-In . SVG Version: 6.00 Build 0)  -->
<svg version="1.1" id="Capa_1" xmlns="http://www.w3.org/2000/svg" xmlns:xlink="http://www.w3.org/1999/xlink" x="0px" y="0px"
	 viewBox="0 0 512 512" style="enable-background:new 0 0 512 512;" xml:space="preserve">
<circle style="fill:#005ED1;" cx="256" cy="256" r="256"/>
<path style="fill:#053D8A;" d="M509.21,293.845L358.737,143.016c-3.812-3.914-8.207-6.594-13.143-7.609c-0.001,0-0.001,0-0.002,0
	l0,0c-9.975-2.05-20.601,3.016-30.153,12.081c-1.112,1.055-2.207,2.17-3.287,3.329l-29.884-29.927
	c-7.854-8.019-16.788-12.892-26.267-12.892c-20.527,0-38.5,22.819-48.471,51.056l-9.237-9.347
	c-10.112-10.44-21.632-16.511-32.393-14.299c-24.291,4.992-35.51,50.271-28.428,84.73c0.398,1.936,0.852,3.785,1.346,5.572
	c-32.938,9.003-58.615,33.669-66.514,64.402c-12.044-1.195-21.158-0.511-21.158-0.511s-3.44,45.756,18.544,67.74L222.367,509.8
	c11.007,1.444,22.231,2.2,33.633,2.2C384.525,512,490.917,417.283,509.21,293.845z"/>
<path style="fill:#FDF3CA;" d="M225.438,202.061c7.081,34.46-9.602,53.144-33.894,58.136c-24.291,4.992-46.991-5.599-54.073-40.059
	s4.137-79.739,28.428-84.73S218.356,167.601,225.438,202.061z"/>
<path style="fill:#FDEA97;" d="M225.434,202.063c7.081,34.458-9.595,53.141-33.888,58.133l-25.645-124.789
	C190.195,130.415,218.353,167.605,225.434,202.063z"/>
<path style="fill:#FDE56A;" d="M286.056,202.061c-7.082,34.46,9.602,53.144,33.893,58.136c24.291,4.992,46.991-5.599,54.073-40.059
	c7.081-34.46-4.137-79.739-28.428-84.73S293.137,167.601,286.056,202.061z"/>
<path style="fill:#FDEA97;" d="M286.059,202.063c-7.081,34.458,9.595,53.141,33.888,58.133l25.645-124.789
	C321.298,130.415,293.141,167.605,286.059,202.063z"/>
<path style="fill:#FFFFFF;" d="M312.768,205.691c0,44.476-25.416,63.369-56.768,63.369s-56.768-18.893-56.768-63.369
	s25.416-97.693,56.768-97.693S312.768,161.215,312.768,205.691z"/>
<path style="fill:#FDF3CA;" d="M312.766,205.692c0,44.442-25.377,63.346-56.701,63.368V108
	C287.388,108.075,312.766,161.249,312.766,205.692z"/>
<path style="fill:#CE7937;" d="M372.931,225.637c-27.895,14.918-69.92,24.415-116.931,24.415s-89.036-9.497-116.931-24.415
	c-39.95,10.81-69.309,44.644-69.309,84.444v18.593h372.48v-18.593C442.24,270.28,412.881,236.447,372.931,225.637z"/>
<path style="fill:#A94F1F;" d="M442.237,310.083v18.595H256v-78.626c47.016,0,89.036-9.497,116.934-24.41
	C412.883,236.442,442.237,270.278,442.237,310.083z"/>
<path style="fill:#4BCE5C;" d="M192.439,289.6c0,0,3.44,45.756-18.544,67.74c-21.984,21.984-52.161,2.965-52.161,2.965
	s-19.019-30.177,2.965-52.161C146.684,286.16,192.439,289.6,192.439,289.6z"/>
<path style="fill:#07A171;" d="M124.698,308.145c-21.983,21.983-2.964,52.16-2.964,52.16l70.704-70.704
	C192.439,289.601,146.683,286.161,124.698,308.145z"/>
<path style="fill:#4BCE5C;" d="M51.145,289.6c0,0,45.756-3.44,67.74,18.544s2.965,52.161,2.965,52.161s-30.177,19.019-52.161-2.965
	C47.705,335.356,51.145,289.6,51.145,289.6z"/>
<path style="fill:#07A171;" d="M69.69,357.341c21.983,21.983,52.16,2.964,52.16,2.964l-70.704-70.704
	C51.146,289.601,47.705,335.357,69.69,357.341z"/>
<path style="fill:#4BCE5C;" d="M326.647,289.6c0,0,3.44,45.756-18.544,67.74c-21.984,21.984-52.161,2.965-52.161,2.965
	s-19.019-30.177,2.965-52.161S326.647,289.6,326.647,289.6z"/>
<path style="fill:#07A171;" d="M258.906,308.145c-21.983,21.983-2.963,52.16-2.963,52.16l70.704-70.704
	C326.646,289.601,280.891,286.161,258.906,308.145z"/>
<path style="fill:#4BCE5C;" d="M185.353,289.6c0,0,45.756-3.44,67.74,18.544s2.965,52.161,2.965,52.161s-30.177,19.019-52.161-2.965
	C181.913,335.356,185.353,289.6,185.353,289.6z"/>
<path style="fill:#07A171;" d="M203.898,357.341c21.983,21.983,52.159,2.964,52.159,2.964l-70.704-70.704
	C185.354,289.601,181.913,335.357,203.898,357.341z"/>
<path style="fill:#4BCE5C;" d="M460.855,289.6c0,0,3.44,45.756-18.544,67.74c-21.984,21.984-52.161,2.965-52.161,2.965
	s-19.019-30.177,2.965-52.161C415.099,286.16,460.855,289.6,460.855,289.6z"/>
<path style="fill:#07A171;" d="M393.114,308.145c-21.983,21.983-2.964,52.16-2.964,52.16l70.704-70.704
	C460.854,289.601,415.099,286.161,393.114,308.145z"/>
<path style="fill:#4BCE5C;" d="M319.561,289.6c0,0,45.756-3.44,67.74,18.544c21.984,21.984,2.965,52.161,2.965,52.161
	s-30.177,19.019-52.161-2.965C316.121,335.356,319.561,289.6,319.561,289.6z"/>
<path style="fill:#07A171;" d="M338.106,357.341c21.983,21.983,52.159,2.964,52.159,2.964l-70.704-70.704
	C319.561,289.601,316.121,335.357,338.106,357.341z"/>
<g>
</g>
<g>
</g>
<g>
</g>
<g>
</g>
<g>
</g>
<g>
</g>
<g>
</g>
<g>
</g>
<g>
</g>
<g>
</g>
<g>
</g>
<g>
</g>
<g>
</g>
<g>
</g>
<g>
</g>
</svg>
