<?xml version="1.0" encoding="iso-8859-1"?>
<!-- Generator: Adobe Illustrator 19.0.0, SVG Export Plug-In . SVG Version: 6.00 Build 0)  -->
<svg version="1.1" id="Capa_1" xmlns="http://www.w3.org/2000/svg" xmlns:xlink="http://www.w3.org/1999/xlink" x="0px" y="0px"
	 viewBox="0 0 512 512" style="enable-background:new 0 0 512 512;" xml:space="preserve">
<circle style="fill:#FB233B;" cx="256" cy="256" r="256"/>
<path style="fill:#C70C24;" d="M512,256c0-6.157-0.231-12.259-0.658-18.307l-64.146-63.641c-9.936-11.081-29.39-12.422-44.062-9.557
	l-82.373-82.517c-7.62-8.033-18.395-13.044-30.341-13.044c-14.036,0-26.439,6.929-34.023,17.539l-5.381-5.39
	c-7.554-7.504-17.946-12.15-29.435-12.15c-23.094,0-41.815,18.721-41.815,41.815c0,11.782,4.878,22.419,12.72,30.017l20.802,20.679
	v21.738c0,7.477,3.365,14.203,8.651,18.751c-0.424,0.365-0.838,0.742-1.236,1.134c-20.988-7.584-90.89-32.758-106.512-37.294
	c-18.438-5.354-49.724-3.915-55.048,19.347c-1.972,8.616,0.64,15.758,5.69,21.424l29.211,29.236
	c-12.613,5.525-23.146,15.538-19.613,29.857c1.085,4.397,3.181,7.919,5.97,10.692l229.908,229.877
	C425.603,481.299,512,378.748,512,256z"/>
<path style="fill:#4BCE5C;" d="M273.963,207.934h-35.926c-13.613,0-24.75-11.137-24.75-24.75v-29.977
	c0-13.613,11.137-24.75,24.75-24.75h35.926c13.612,0,24.75,11.137,24.75,24.75v29.977
	C298.713,196.797,287.575,207.934,273.963,207.934z"/>
<path style="fill:#07A171;" d="M298.71,153.21v29.97c0,13.62-11.13,24.75-24.75,24.75H256v-79.47h17.96
	C287.58,128.46,298.71,139.59,298.71,153.21z"/>
<path style="fill:#FFFFFF;" d="M222.45,223.741l4.236-18.506c0,0-94.059-34.105-112.497-39.46s-49.724-3.915-55.048,19.347
	s22.765,35.789,42.041,37.477c10.307,0.903,44.071,2.002,73.261,2.831c-25.487,2.195-53.44,4.636-62.301,5.536
	c-17.533,1.783-42.925,13.55-37.712,34.672s33.734,22.036,50.445,16.924c16.712-5.111,101.86-37.374,101.86-37.374L222.45,223.741z"
	/>
<path style="fill:#FDF3CA;" d="M452.859,185.122c-5.325-23.262-36.611-24.701-55.048-19.347
	c-18.438,5.354-112.497,39.46-112.497,39.46l4.236,18.506l-4.285,21.448c0,0,85.148,32.263,101.86,37.374
	c16.712,5.112,45.233,4.198,50.445-16.924c5.213-21.122-20.179-32.89-37.712-34.672c-8.86-0.901-36.813-3.342-62.301-5.536
	c29.19-0.828,62.953-1.928,73.261-2.831C430.094,220.911,458.184,208.384,452.859,185.122z"/>
<path style="fill:#B5F5A7;" d="M273.963,256.029h-35.926c-13.613,0-24.75-11.138-24.75-24.75v-10.592
	c0-13.612,11.137-24.75,24.75-24.75h35.926c13.612,0,24.75,11.138,24.75,24.75v10.592
	C298.713,244.891,287.575,256.029,273.963,256.029z"/>
<path style="fill:#6ADCA5;" d="M298.71,220.69v10.59c0,13.61-11.13,24.75-24.75,24.75H256v-60.09h17.96
	C287.58,195.94,298.71,207.07,298.71,220.69z"/>
<path style="fill:#B5F5A7;" d="M256.446,443.065h-0.892c-11.305,0-20.554-9.249-20.554-20.554V296.129h42v126.382
	C277,433.816,267.751,443.065,256.446,443.065z"/>
<path style="fill:#6ADCA5;" d="M277,296.13v126.38c0,11.31-9.25,20.55-20.55,20.55H256V296.13H277z"/>
<path style="fill:#4BCE5C;" d="M273.963,305.529h-35.926c-13.613,0-24.75-11.138-24.75-24.75v-10.592
	c0-13.613,11.137-24.75,24.75-24.75h35.926c13.612,0,24.75,11.137,24.75,24.75v10.592
	C298.713,294.391,287.575,305.529,273.963,305.529z"/>
<path style="fill:#07A171;" d="M298.71,270.19v10.59c0,13.61-11.13,24.75-24.75,24.75H256v-60.09h17.96
	C287.58,245.44,298.71,256.57,298.71,270.19z"/>
<path style="fill:#FDF3CA;" d="M290.42,68.935c-14.276,0-26.875,7.16-34.42,18.079c-7.544-10.919-20.143-18.079-34.42-18.079
	c-23.094,0-41.815,18.721-41.815,41.815s18.721,41.815,41.815,41.815c14.277,0,26.875-7.16,34.42-18.079
	c7.544,10.919,20.143,18.079,34.42,18.079c23.094,0,41.815-18.721,41.815-41.815S313.514,68.935,290.42,68.935z"/>
<path style="fill:#FDEA97;" d="M332.23,110.75c0,23.09-18.72,41.82-41.81,41.82c-14.28,0-26.88-7.16-34.42-18.08V87.01
	c7.54-10.92,20.14-18.07,34.42-18.07C313.51,68.94,332.23,87.66,332.23,110.75z"/>
<g>
</g>
<g>
</g>
<g>
</g>
<g>
</g>
<g>
</g>
<g>
</g>
<g>
</g>
<g>
</g>
<g>
</g>
<g>
</g>
<g>
</g>
<g>
</g>
<g>
</g>
<g>
</g>
<g>
</g>
</svg>
