<?xml version="1.0" encoding="iso-8859-1"?>
<!-- Generator: Adobe Illustrator 19.0.0, SVG Export Plug-In . SVG Version: 6.00 Build 0)  -->
<svg version="1.1" id="Capa_1" xmlns="http://www.w3.org/2000/svg" xmlns:xlink="http://www.w3.org/1999/xlink" x="0px" y="0px"
	 viewBox="0 0 512 512" style="enable-background:new 0 0 512 512;" xml:space="preserve">
<circle style="fill:#DE1F4B;" cx="256" cy="256" r="256"/>
<path style="fill:#B70E38;" d="M512,256c0-1.493-0.031-2.979-0.057-4.466L335.725,75.316l-159.451,56.472l87.846,87.846
	l-111.591,196.88l95.345,95.345c2.7,0.084,5.406,0.141,8.127,0.141C397.385,512,512,397.385,512,256z"/>
<path style="fill:#FFFFFF;" d="M326.498,141.583h-7.659v-22.146H193.161v22.146h-7.659c-22.627,0-40.97,18.343-40.97,40.97v209.648
	c0,22.627,18.343,40.97,40.97,40.97h140.996c22.627,0,40.97-18.343,40.97-40.97V182.553
	C367.468,159.926,349.125,141.583,326.498,141.583z"/>
<path style="fill:#E0E0E0;" d="M326.498,141.583h-7.659v-22.146h-62.887v313.734h70.546c22.627,0,40.97-18.343,40.97-40.97V182.553
	C367.468,159.926,349.125,141.583,326.498,141.583z"/>
<rect x="176.28" y="196.95" style="fill:#1F66CC;" width="159.45" height="200.79"/>
<rect x="255.95" y="196.95" style="fill:#154797;" width="79.77" height="200.79"/>
<polygon style="fill:#FFFFFF;" points="291.434,239.053 269.011,239.053 269.011,216.63 242.989,216.63 242.989,239.053 
	220.566,239.053 220.566,265.075 242.989,265.075 242.989,287.498 269.011,287.498 269.011,265.075 291.434,265.075 "/>
<polygon style="fill:#E0E0E0;" points="269.011,239.053 269.011,216.63 255.952,216.63 255.952,287.498 269.011,287.498 
	269.011,265.075 291.434,265.075 291.434,239.053 "/>
<path style="fill:#FFCABC;" d="M287.414,374.025c0,17.35-14.065,4.892-31.414,4.892s-31.414,12.458-31.414-4.892
	s14.065-31.414,31.414-31.414S287.414,356.676,287.414,374.025z"/>
<path style="fill:#FFA899;" d="M256,342.611c-0.016,0-0.032,0.001-0.048,0.001v36.306c0.016,0,0.032-0.001,0.048-0.001
	c17.35,0,31.414,12.458,31.414-4.891C287.414,356.676,273.35,342.611,256,342.611z"/>
<ellipse style="fill:#FFCABC;" cx="256" cy="325.87" rx="8.587" ry="11.09"/>
<path style="fill:#FFA899;" d="M256,314.784c-0.016,0-0.031,0.003-0.048,0.003v22.169c0.016,0,0.031,0.003,0.048,0.003
	c4.743,0,8.587-4.964,8.587-11.087S260.743,314.784,256,314.784z"/>
<ellipse style="fill:#FFCABC;" cx="215.78" cy="354.13" rx="8.587" ry="11.09"/>
<g>
	<ellipse style="fill:#FFA899;" cx="296.22" cy="354.13" rx="8.587" ry="11.09"/>
	<ellipse style="fill:#FFA899;" cx="279.81" cy="334.35" rx="8.587" ry="11.09"/>
</g>
<ellipse style="fill:#FFCABC;" cx="232.19" cy="334.35" rx="8.587" ry="11.09"/>
<rect x="176.28" y="75.32" style="fill:#00DE7E;" width="159.45" height="56.47"/>
<rect x="255.95" y="75.32" style="fill:#00B77C;" width="79.77" height="56.47"/>
<g>
</g>
<g>
</g>
<g>
</g>
<g>
</g>
<g>
</g>
<g>
</g>
<g>
</g>
<g>
</g>
<g>
</g>
<g>
</g>
<g>
</g>
<g>
</g>
<g>
</g>
<g>
</g>
<g>
</g>
</svg>
