<?xml version="1.0" encoding="iso-8859-1"?>
<!-- Generator: Adobe Illustrator 19.0.0, SVG Export Plug-In . SVG Version: 6.00 Build 0)  -->
<svg version="1.1" id="Capa_1" xmlns="http://www.w3.org/2000/svg" xmlns:xlink="http://www.w3.org/1999/xlink" x="0px" y="0px"
	 viewBox="0 0 512 512" style="enable-background:new 0 0 512 512;" xml:space="preserve">
<circle style="fill:#91F3FF;" cx="256" cy="256" r="256"/>
<path style="fill:#00ECFF;" d="M512,256c0-11.078-0.705-21.991-2.07-32.698L404.735,118.107L116.543,396.504l114.261,114.261
	c8.29,0.81,16.693,1.235,25.196,1.235C397.385,512,512,397.385,512,256z"/>
<rect x="339.86" y="90.716" transform="matrix(-0.7071 -0.7071 0.7071 -0.7071 478.2081 523.5108)" style="fill:#E0E0E0;" width="15.333" height="143.999"/>
<rect x="346.478" y="93.978" transform="matrix(-0.7071 -0.7071 0.7071 -0.7071 481.4594 531.3812)" style="fill:#C0C0C0;" width="8.609" height="143.999"/>
<rect x="139.837" y="285.232" transform="matrix(-0.7071 -0.7071 0.7071 -0.7071 34.1414 709.9337)" style="fill:#FFFFFF;" width="48.532" height="125.329"/>
<g>
	
		<rect x="159.75" y="293.48" transform="matrix(0.7071 0.7071 -0.7071 0.7071 302.314 -17.561)" style="fill:#E0E0E0;" width="25.21" height="125.329"/>
	
		<rect x="84.307" y="370.367" transform="matrix(-0.7071 -0.7071 0.7071 -0.7071 -56.322 747.404)" style="fill:#E0E0E0;" width="84.649" height="30"/>
</g>
<rect x="119.619" y="385.009" transform="matrix(0.7071 0.7071 -0.7071 0.7071 324.221 17.2784)" style="fill:#C0C0C0;" width="43.27" height="30"/>
<rect x="215.9" y="160.848" transform="matrix(-0.7071 -0.7071 0.7071 -0.7071 266.8201 613.5438)" style="fill:#FFFFFF;" width="89.159" height="181.328"/>
<g>
	
		<rect x="253.138" y="176.292" transform="matrix(0.7071 0.7071 -0.7071 0.7071 269.5753 -116.9008)" style="fill:#E0E0E0;" width="45.524" height="181.328"/>
	
		<rect x="133.682" y="300.31" transform="matrix(-0.7071 -0.7071 0.7071 -0.7071 116.0206 676.0098)" style="fill:#E0E0E0;" width="128.669" height="27.333"/>
</g>
<rect x="187.79" y="322.732" transform="matrix(0.7071 0.7071 -0.7071 0.7071 302.4317 -57.3388)" style="fill:#C0C0C0;" width="65.279" height="27.333"/>
<g>
</g>
<g>
</g>
<g>
</g>
<g>
</g>
<g>
</g>
<g>
</g>
<g>
</g>
<g>
</g>
<g>
</g>
<g>
</g>
<g>
</g>
<g>
</g>
<g>
</g>
<g>
</g>
<g>
</g>
</svg>
