<?xml version="1.0" encoding="iso-8859-1"?>
<!-- Generator: Adobe Illustrator 19.0.0, SVG Export Plug-In . SVG Version: 6.00 Build 0)  -->
<svg version="1.1" id="Capa_1" xmlns="http://www.w3.org/2000/svg" xmlns:xlink="http://www.w3.org/1999/xlink" x="0px" y="0px"
	 viewBox="0 0 512 512" style="enable-background:new 0 0 512 512;" xml:space="preserve">
<circle style="fill:#DE1F4B;" cx="256" cy="256" r="256"/>
<path style="fill:#B70E38;" d="M512,256c0-6.86-0.277-13.654-0.807-20.378L374.077,98.506l-31.907,27.795l83.32,83.32l-24.287,4.241
	l-82.261-82.261l-10.682,25.737l-88.385-88.385l-29.419,30.425L319.25,228.172l-23.924,4.177L262,199.023l-195.667,73.31
	l94.643,94.643l-44.555,29.973L230.183,510.71c8.491,0.85,17.103,1.29,25.817,1.29C397.385,512,512,397.385,512,256z"/>
<g>
	<ellipse style="fill:#FFFFFF;" cx="164" cy="227" rx="79.67" ry="58.667"/>
	<circle style="fill:#FFFFFF;" cx="237.33" cy="216.67" r="30.333"/>
</g>
<g>
	<path style="fill:#E0E0E0;" d="M267.667,216.667c0-9.732-4.589-18.387-11.714-23.938v47.875
		C263.078,235.054,267.667,226.399,267.667,216.667z"/>
	<circle style="fill:#E0E0E0;" cx="399.33" cy="218.67" r="30.333"/>
	<circle style="fill:#E0E0E0;" cx="358.5" cy="112.83" r="21.17"/>
</g>
<circle style="fill:#FFFFFF;" cx="205.17" cy="84.17" r="21.17"/>
<g>
	<circle style="fill:#E0E0E0;" cx="296.08" cy="152.42" r="30.917"/>
	<ellipse style="fill:#E0E0E0;" cx="344.33" cy="224.67" rx="48" ry="30.333"/>
</g>
<polygon style="fill:#00ECFF;" points="395.578,396.949 116.422,396.949 79,252.333 433,252.333 "/>
<polygon style="fill:#00A2AA;" points="433,252.333 255.952,252.333 255.952,396.949 395.578,396.949 "/>
<rect x="66.33" y="219" style="fill:#91F3FF;" width="379.33" height="53.33"/>
<rect x="255.95" y="219" style="fill:#00ECFF;" width="189.71" height="53.33"/>
<path style="fill:#1F66CC;" d="M292.125,353.845c0,19.951-16.174,5.625-36.125,5.625s-36.125,14.326-36.125-5.625
	S236.049,317.72,256,317.72S292.125,333.893,292.125,353.845z"/>
<path style="fill:#154797;" d="M256,317.72c-0.016,0-0.032,0.001-0.048,0.001v41.75c0.016,0,0.032-0.001,0.048-0.001
	c19.951,0,36.125,14.326,36.125-5.625S275.951,317.72,256,317.72z"/>
<ellipse style="fill:#1F66CC;" cx="256" cy="298.47" rx="9.875" ry="12.75"/>
<path style="fill:#154797;" d="M256,285.72c-0.016,0-0.032,0.003-0.048,0.003v25.494c0.016,0,0.032,0.003,0.048,0.003
	c5.454,0,9.875-5.708,9.875-12.75C265.875,291.428,261.454,285.72,256,285.72z"/>
<ellipse style="fill:#1F66CC;" cx="209.75" cy="330.97" rx="9.875" ry="12.75"/>
<g>
	<ellipse style="fill:#154797;" cx="302.25" cy="330.97" rx="9.875" ry="12.75"/>
	<ellipse style="fill:#154797;" cx="283.37" cy="308.22" rx="9.875" ry="12.75"/>
</g>
<ellipse style="fill:#1F66CC;" cx="228.62" cy="308.22" rx="9.875" ry="12.75"/>
<g>
</g>
<g>
</g>
<g>
</g>
<g>
</g>
<g>
</g>
<g>
</g>
<g>
</g>
<g>
</g>
<g>
</g>
<g>
</g>
<g>
</g>
<g>
</g>
<g>
</g>
<g>
</g>
<g>
</g>
</svg>
