<?xml version="1.0" encoding="iso-8859-1"?>
<!-- Generator: Adobe Illustrator 19.0.0, SVG Export Plug-In . SVG Version: 6.00 Build 0)  -->
<svg version="1.1" id="Capa_1" xmlns="http://www.w3.org/2000/svg" xmlns:xlink="http://www.w3.org/1999/xlink" x="0px" y="0px"
	 viewBox="0 0 512 512" style="enable-background:new 0 0 512 512;" xml:space="preserve">
<circle style="fill:#FFE570;" cx="256" cy="256" r="256"/>
<path style="fill:#FDB500;" d="M511.75,266.987L384.701,139.938c0,0-1.075,1.218-2.553,3.285l-81.315-82.557
	c0,0-17.892,20.213-12.238,38.683c-8.278,4.784-15.102,14.285-19.164,26.425l-60.516-61.168c0,0-17.892,20.213-12.238,38.683
	c-13.554,7.832-23.223,28.299-23.223,52.315c0,20.653,7.153,38.672,17.775,48.297l24.473,24.44c-1.082,0.408-2.162,0.833-3.241,1.27
	l-85.163-85.733c0,0-15.009,16.956-10.266,32.45c-11.37,6.571-19.481,23.739-19.481,43.885c0,16.175,5.231,30.421,13.177,38.812
	l29.105,29.118c-9.367,13.184-17.132,27.952-22.666,44.015c-10.473,30.398-2.745,53.955,13.45,68.253l111.19,111.19
	c4.7,0.258,9.43,0.399,14.193,0.399C393.702,512,505.993,403.273,511.75,266.987z"/>
<g>
	<path style="fill:#CE7937;" d="M399.725,332.159c-23.205-67.351-85.553-112.012-141.277-112.012s-118.076,44.66-141.281,112.012
		c-23.078,66.982,42.215,100.754,91.748,75.425c19.966-10.21,30.955-28.988,49.531-28.988s29.565,18.778,49.531,28.988
		C357.51,432.913,422.803,399.141,399.725,332.159z"/>
	<path style="fill:#CE7937;" d="M307.98,407.58c-19.97-10.21-30.96-28.98-49.53-28.98c-0.83,0-1.65,0.04-2.45,0.11V220.18
		c0.82-0.02,1.64-0.03,2.45-0.03c55.72,0,118.07,44.66,141.28,112.01C422.8,399.14,357.51,432.91,307.98,407.58z"/>
	<path style="fill:#CE7937;" d="M137.565,176.328c4.743-15.494-10.266-32.45-10.266-32.45s-15.009,16.956-10.266,32.45
		c-11.37,6.57-19.481,23.739-19.481,43.885c0,25.817,13.318,46.746,29.747,46.746s29.747-20.929,29.747-46.746
		C157.046,200.067,148.935,182.899,137.565,176.328z"/>
	<path style="fill:#CE7937;" d="M221.154,103.29c5.654-18.47-12.238-38.683-12.238-38.683s-17.892,20.213-12.238,38.683
		c-13.554,7.832-23.223,28.299-23.223,52.315c0,30.776,15.876,55.724,35.461,55.724s35.461-24.949,35.461-55.724
		C244.376,131.588,234.707,111.122,221.154,103.29z"/>
	<path style="fill:#CE7937;" d="M374.435,172.388c-4.743-15.494,10.266-32.45,10.266-32.45s15.009,16.956,10.266,32.45
		c11.37,6.57,19.481,23.739,19.481,43.885c0,25.817-13.318,46.746-29.747,46.746c-16.429,0-29.747-20.929-29.747-46.746
		C354.954,196.127,363.065,178.958,374.435,172.388z"/>
	<path style="fill:#CE7937;" d="M288.595,99.35c-5.654-18.47,12.238-38.683,12.238-38.683s17.892,20.213,12.238,38.683
		c13.554,7.832,23.223,28.299,23.223,52.315c0,30.776-15.876,55.724-35.461,55.724s-35.461-24.949-35.461-55.724
		C265.372,127.648,275.041,107.182,288.595,99.35z"/>
</g>
<g>
</g>
<g>
</g>
<g>
</g>
<g>
</g>
<g>
</g>
<g>
</g>
<g>
</g>
<g>
</g>
<g>
</g>
<g>
</g>
<g>
</g>
<g>
</g>
<g>
</g>
<g>
</g>
<g>
</g>
</svg>
