<?xml version="1.0" encoding="iso-8859-1"?>
<!-- Generator: Adobe Illustrator 19.0.0, SVG Export Plug-In . SVG Version: 6.00 Build 0)  -->
<svg version="1.1" id="Capa_1" xmlns="http://www.w3.org/2000/svg" xmlns:xlink="http://www.w3.org/1999/xlink" x="0px" y="0px"
	 viewBox="0 0 512 512" style="enable-background:new 0 0 512 512;" xml:space="preserve">
<circle style="fill:#1F66CC;" cx="256" cy="256" r="256"/>
<path style="fill:#154797;" d="M511.966,258.672L333.393,80.099L173.715,239.777l76.954,76.954l-116.206,99.674l94.134,94.134
	C237.602,511.496,246.741,512,256,512C396.492,512,510.531,398.824,511.966,258.672z"/>
<path style="fill:#E0E0E0;" d="M134.769,416.709l-0.306-0.306c-12.949-12.949-12.949-33.944,0-46.893l107.796-107.796
	c12.949-12.949,33.944-12.949,46.893,0l0.306,0.306c12.949,12.949,12.949,33.944,0,46.893L181.661,416.709
	C168.712,429.658,147.718,429.658,134.769,416.709z"/>
<path style="fill:#C0C0C0;" d="M289.152,261.715c-0.153-0.153-0.313-0.296-0.469-0.446L134.017,415.935
	c0.15,0.156,0.292,0.315,0.446,0.469l0.306,0.306c12.949,12.949,33.944,12.949,46.893,0l107.796-107.796
	c12.949-12.949,12.949-33.944,0-46.893L289.152,261.715z"/>
<polygon style="fill:#E5C16B;" points="248.973,291.832 173.715,239.777 333.393,80.099 385.448,155.356 "/>
<rect x="283.537" y="125.474" transform="matrix(-0.7071 -0.7071 0.7071 -0.7071 388.9461 619.3837)" style="fill:#FFFFFF;" width="78.429" height="207.328"/>
<rect x="315.837" y="138.863" transform="matrix(0.7071 0.7071 -0.7071 0.7071 269.9431 -166.6465)" style="fill:#E0E0E0;" width="40.589" height="207.328"/>
<g>
</g>
<g>
</g>
<g>
</g>
<g>
</g>
<g>
</g>
<g>
</g>
<g>
</g>
<g>
</g>
<g>
</g>
<g>
</g>
<g>
</g>
<g>
</g>
<g>
</g>
<g>
</g>
<g>
</g>
</svg>
