<?xml version="1.0" encoding="iso-8859-1"?>
<!-- Generator: Adobe Illustrator 19.0.0, SVG Export Plug-In . SVG Version: 6.00 Build 0)  -->
<svg version="1.1" id="Capa_1" xmlns="http://www.w3.org/2000/svg" xmlns:xlink="http://www.w3.org/1999/xlink" x="0px" y="0px"
	 viewBox="0 0 512 512" style="enable-background:new 0 0 512 512;" xml:space="preserve">
<circle style="fill:#00DE7E;" cx="256" cy="256" r="256"/>
<path style="fill:#00B77C;" d="M512,256c0-9.128-0.487-18.141-1.419-27.022L379.935,98.331L128.154,424.709l83.444,83.444
	C226.02,510.675,240.855,512,256,512C397.385,512,512,397.385,512,256z"/>
<polygon style="fill:#B57223;" points="394.256,424.709 177.713,424.709 163.392,122.441 379.935,122.441 "/>
<polygon style="fill:#E4AB47;" points="344.697,424.709 128.154,424.709 142.475,122.441 359.018,122.441 "/>
<polygon style="fill:#D59134;" points="359.018,122.441 255.952,122.441 255.952,424.709 344.697,424.709 "/>
<g>
	<polygon style="fill:#FFFFFF;" points="317.908,338.042 159.407,338.042 165.658,197.5 324.159,197.5 	"/>
	<polygon style="fill:#FFFFFF;" points="317.908,338.042 159.407,338.042 165.658,197.5 324.159,197.5 	"/>
</g>
<polygon style="fill:#E0E0E0;" points="324.159,197.5 255.952,197.5 255.952,338.042 317.908,338.042 "/>
<rect x="163.39" y="98.33" style="fill:#915514;" width="216.54" height="24.11"/>
<rect x="142.47" y="98.33" style="fill:#D59134;" width="216.54" height="24.11"/>
<rect x="255.95" y="98.33" style="fill:#B57223;" width="103.07" height="24.11"/>
<polygon style="fill:#915514;" points="394.256,424.709 369.253,360.862 344.697,424.709 "/>
<path style="fill:#AB6A50;" d="M232.643,298.087c-0.204-0.204-0.413-0.402-0.625-0.594l39.488-39.488
	c0.192,0.212,0.39,0.42,0.594,0.625c6.647,6.647,17.423,6.647,24.07,0s6.647-17.423,0-24.07c-4.574-4.574-11.103-6-16.897-4.279
	c1.721-5.794,0.295-12.323-4.279-16.897c-6.647-6.647-17.423-6.647-24.07,0s-6.647,17.423,0,24.07
	c0.204,0.204,0.413,0.402,0.625,0.594l-39.488,39.488c-0.192-0.212-0.39-0.42-0.594-0.625c-6.647-6.647-17.423-6.647-24.07,0
	s-6.647,17.423,0,24.07c4.574,4.574,11.103,6,16.897,4.279c-1.721,5.794-0.295,12.323,4.279,16.897
	c6.647,6.647,17.423,6.647,24.07,0C239.289,315.511,239.289,304.734,232.643,298.087z"/>
<path style="fill:#854830;" d="M204.293,305.261c-1.721,5.794-0.295,12.323,4.279,16.897c6.647,6.647,17.423,6.647,24.07,0
	c6.647-6.647,6.647-17.423,0-24.07c-0.204-0.204-0.413-0.402-0.625-0.594l39.488-39.488c0.192,0.212,0.39,0.42,0.594,0.625
	c6.647,6.647,17.423,6.647,24.07,0s6.647-17.423,0-24.07c-4.574-4.574-11.103-6-16.897-4.279L204.293,305.261z"/>
<g>
</g>
<g>
</g>
<g>
</g>
<g>
</g>
<g>
</g>
<g>
</g>
<g>
</g>
<g>
</g>
<g>
</g>
<g>
</g>
<g>
</g>
<g>
</g>
<g>
</g>
<g>
</g>
<g>
</g>
</svg>
