<?xml version="1.0" encoding="iso-8859-1"?>
<!-- Generator: Adobe Illustrator 19.0.0, SVG Export Plug-In . SVG Version: 6.00 Build 0)  -->
<svg version="1.1" id="Layer_1" xmlns="http://www.w3.org/2000/svg" xmlns:xlink="http://www.w3.org/1999/xlink" x="0px" y="0px"
	 viewBox="0 0 512.002 512.002" style="enable-background:new 0 0 512.002 512.002;" xml:space="preserve">
<circle style="fill:#FF7F4F;" cx="256" cy="256.001" r="256"/>
<path style="fill:#FF5419;" d="M509.957,223.524L366.759,80.094c-3.298,5.982-9.576,9.604-10.773,15.584
	c-12.067,36.202-22.411,72.404-44.822,105.158s-31.03,70.68-43.098,106.882c-15.515,48.269,1.724,106.882-36.202,146.532
	c-10.688,11.757-27.877,9.078-43.23,7.661l49.474,49.457c5.913,0.409,11.876,0.633,17.892,0.633c141.384,0,256-114.616,256-256
	C512,244.999,511.304,234.161,509.957,223.524z"/>
<path style="fill:#D48B07;" d="M318.117,155.008l5.313-27.093c1.424-4.272,3.824-8.154,7.008-11.338l31.241-31.242l4.474,40.267
	c0.972,8.757-2.088,17.484-8.32,23.716l-23.355,23.355"/>
<path style="fill:#FFEDB5;" d="M334.477,179.97c-1.869,0.002-3.737-0.712-5.161-2.138c-2.851-2.85-2.851-7.473,0-10.323
	l23.355-23.354c4.689-4.691,6.958-11.159,6.223-17.746l-2.796-25.172l-20.501,20.499c-2.269,2.269-4.027,5.054-5.101,8.075
	l-5.217,26.602c-0.774,3.958-4.629,6.549-8.568,5.76c-3.958-0.774-6.535-4.611-5.76-8.568l5.313-27.095
	c0.059-0.307,0.138-0.609,0.238-0.902c1.769-5.318,4.803-10.228,8.771-14.193l31.241-31.241c1.982-1.982,4.927-2.66,7.578-1.727
	c2.648,0.929,4.53,3.293,4.841,6.082l4.474,40.267c1.226,11.019-2.569,21.838-10.411,29.684l-23.357,23.354
	C338.215,179.258,336.346,179.97,334.477,179.97z"/>
<path style="fill:#D48B07;" d="M193.883,155.008l-5.313-27.093c-1.424-4.272-3.824-8.154-7.008-11.338l-31.241-31.242l-4.474,40.267
	c-0.972,8.757,2.088,17.484,8.32,23.716l23.355,23.355"/>
<path style="fill:#FFEDB5;" d="M177.523,179.97c-1.869,0-3.737-0.712-5.161-2.138l-23.355-23.355
	c-7.844-7.842-11.638-18.66-10.414-29.682l4.475-40.267c0.31-2.789,2.191-5.153,4.841-6.082c2.653-0.933,5.594-0.257,7.578,1.727
	l31.241,31.241c3.965,3.963,6.999,8.871,8.771,14.191c0.1,0.295,0.179,0.598,0.238,0.902l5.313,27.093
	c0.776,3.958-1.801,7.794-5.758,8.57c-3.949,0.793-7.794-1.801-8.57-5.758l-5.217-26.6c-1.076-3.024-2.834-5.808-5.101-8.076
	L155.9,101.237l-2.796,25.172c-0.733,6.587,1.538,13.055,6.225,17.746l23.355,23.355c2.851,2.85,2.851,7.473,0,10.323
	C181.26,179.258,179.391,179.97,177.523,179.97z"/>
<path style="fill:#FEE187;" d="M365.19,202.136c0-54.915-48.887-116.801-109.19-116.801s-109.19,61.886-109.19,116.801
	c0,37.35,29.106,44.394,56.068,66.079c15.806,12.714,30.084,61.031,32.734,119.777c0.491,10.911,9.468,19.515,20.39,19.515l0,0
	c10.923,0,19.897-8.604,20.39-19.515c2.65-58.747,16.927-107.063,32.734-119.777C336.084,246.53,365.19,239.486,365.19,202.136z"/>
<path style="fill:#FFC61B;" d="M256,85.334c-0.481,0-0.955,0.038-1.436,0.047v322.057c0.476,0.033,0.952,0.071,1.436,0.071
	c10.923,0,19.897-8.602,20.39-19.515c2.65-58.747,16.927-107.063,32.734-119.777c26.962-21.685,56.067-28.729,56.067-66.081
	C365.19,147.221,316.304,85.334,256,85.334z"/>
<g>
	<circle style="fill:#121149;" cx="188.957" cy="209.18" r="7.047"/>
	<circle style="fill:#121149;" cx="323.043" cy="209.18" r="7.047"/>
</g>
<path style="fill:#FFEDB5;" d="M212.958,466.455c-6.363,0-13.259-0.831-20.675-2.496c-3.934-0.884-6.408-4.787-5.523-8.723
	c0.886-3.934,4.787-6.409,8.723-5.523c18.723,4.206,32.718,2.2,41.594-5.966c15.765-14.505,12.024-45.078,11.981-45.384
	c-0.553-3.993,2.234-7.68,6.228-8.232c3.984-0.559,7.678,2.234,8.232,6.228c0.215,1.552,5.027,38.272-16.556,58.132
	C238.302,462.458,226.913,466.455,212.958,466.455z"/>
<path style="fill:#434849;" d="M276.792,380.653c-5.241-5.48-12.61-8.911-20.792-8.911c-8.182,0-15.551,3.431-20.792,8.911
	c0.152,2.429,0.291,4.872,0.402,7.339c0.493,10.911,9.468,19.515,20.39,19.515s19.897-8.604,20.39-19.515
	C276.501,385.525,276.64,383.082,276.792,380.653z"/>
<path style="fill:#3B3F3F;" d="M256,371.742c-0.484,0-0.957,0.052-1.436,0.074v35.619c0.476,0.033,0.952,0.071,1.436,0.071
	c10.923,0,19.897-8.602,20.39-19.515c0.112-2.469,0.25-4.91,0.402-7.339C271.551,375.173,264.182,371.742,256,371.742z"/>
<g>
</g>
<g>
</g>
<g>
</g>
<g>
</g>
<g>
</g>
<g>
</g>
<g>
</g>
<g>
</g>
<g>
</g>
<g>
</g>
<g>
</g>
<g>
</g>
<g>
</g>
<g>
</g>
<g>
</g>
</svg>
