<?xml version="1.0" encoding="iso-8859-1"?>
<!-- Generator: Adobe Illustrator 19.0.0, SVG Export Plug-In . SVG Version: 6.00 Build 0)  -->
<svg version="1.1" id="Layer_1" xmlns="http://www.w3.org/2000/svg" xmlns:xlink="http://www.w3.org/1999/xlink" x="0px" y="0px"
	 viewBox="0 0 512 512" style="enable-background:new 0 0 512 512;" xml:space="preserve">
<circle style="fill:#263A7A;" cx="256" cy="256" r="256"/>
<path style="fill:#121149;" d="M408.104,172.279L152.369,362.48l145.617,146.073c115.157-19.003,204.402-114.84,213.283-233.108
	L408.104,172.279z"/>
<circle style="fill:#A56704;" cx="140.705" cy="208.3" r="51.574"/>
<circle style="fill:#845004;" cx="371.278" cy="208.3" r="51.574"/>
<ellipse style="fill:#D48B07;" cx="256" cy="276.687" rx="144.808" ry="122.828"/>
<path style="fill:#B5740B;" d="M256,153.86c-0.193,0-0.381,0.012-0.574,0.012v245.632c0.191,0,0.381,0.012,0.574,0.012
	c79.975,0,144.808-54.993,144.808-122.828S335.974,153.86,256,153.86z"/>
<g>
	<circle style="fill:#1E262B;" cx="198.973" cy="293.495" r="8.189"/>
	<circle style="fill:#1E262B;" cx="313.027" cy="293.495" r="8.189"/>
</g>
<path style="fill:#7C4D03;" d="M246.269,347.965l-9.973-12.828c-4.93-6.344,0.593-14.674,9.73-14.674h19.944
	c9.137,0,14.662,8.33,9.73,14.674l-9.973,12.828C261.182,353.814,250.816,353.814,246.269,347.965z"/>
<path style="fill:#663C04;" d="M265.971,320.464h-10.545v31.861c3.915,0.159,7.913-1.284,10.304-4.36l9.973-12.828
	C280.633,328.794,275.109,320.464,265.971,320.464z"/>
<g>
</g>
<g>
</g>
<g>
</g>
<g>
</g>
<g>
</g>
<g>
</g>
<g>
</g>
<g>
</g>
<g>
</g>
<g>
</g>
<g>
</g>
<g>
</g>
<g>
</g>
<g>
</g>
<g>
</g>
</svg>
