<?xml version="1.0" encoding="iso-8859-1"?>
<!-- Generator: Adobe Illustrator 19.0.0, SVG Export Plug-In . SVG Version: 6.00 Build 0)  -->
<svg version="1.1" id="Layer_1" xmlns="http://www.w3.org/2000/svg" xmlns:xlink="http://www.w3.org/1999/xlink" x="0px" y="0px"
	 viewBox="0 0 512 512" style="enable-background:new 0 0 512 512;" xml:space="preserve">
<circle style="fill:#FFEDB5;" cx="256" cy="256" r="256"/>
<path style="fill:#FEE187;" d="M428.037,175.178l-282.3,181.077l152.29,152.29c120.325-19.877,212.33-123.644,213.932-249.222
	L428.037,175.178z"/>
<path style="fill:#AA4118;" d="M167.8,252.619c16.275-18.647,14.355-46.959-4.291-63.238
	c-13.305-11.614-52.383-15.444-73.683-16.684c-6.163-0.359-10.373,6.115-7.546,11.604c8.559,16.618,22.287,47.232,22.287,72.606
	C104.567,281.66,151.524,271.267,167.8,252.619z"/>
<path style="fill:#75210D;" d="M344.2,252.619c-16.275-18.647-14.355-46.959,4.291-63.238c13.228-11.547,51.931-15.4,73.311-16.663
	c6.23-0.369,10.419,6.242,7.478,11.747c-8.58,16.063-21.847,45.29-21.847,72.442C407.433,281.66,360.476,271.267,344.2,252.619z"/>
<ellipse style="fill:#D85830;" cx="256" cy="276.687" rx="144.808" ry="122.828"/>
<path style="fill:#CE4520;" d="M256,153.86c-1.06,0-2.105,0.048-3.16,0.067v245.52c1.055,0.019,2.1,0.067,3.16,0.067
	c79.975,0,144.808-54.993,144.808-122.828S335.975,153.86,256,153.86z"/>
<g>
	<circle style="fill:#1E262B;" cx="186.044" cy="279.704" r="8.189"/>
	<circle style="fill:#1E262B;" cx="325.956" cy="279.704" r="8.189"/>
</g>
<g>
	<path style="fill:#FFEDB5;" d="M202.412,297.808c0,0,6.611,22.407,24.424,29.734l-20.115,22.414
		C206.722,349.956,187.328,321.081,202.412,297.808z"/>
	<path style="fill:#FFEDB5;" d="M309.588,297.808c0,0-6.611,22.407-24.424,29.734l20.115,22.414
		C305.278,349.956,324.672,321.081,309.588,297.808z"/>
</g>
<ellipse style="fill:#FFC61B;" cx="256" cy="341.333" rx="57.458" ry="39.65"/>
<path style="fill:#DDA10B;" d="M256,301.687c-1.06,0-2.114,0.022-3.16,0.062v79.176c1.046,0.04,2.1,0.062,3.16,0.062
	c31.735,0,57.463-17.751,57.463-39.65C313.463,319.438,287.735,301.687,256,301.687z"/>
<g>
	<circle style="fill:#CC3636;" cx="229.279" cy="341.333" r="8.62"/>
	<circle style="fill:#CC3636;" cx="282.721" cy="341.333" r="8.62"/>
</g>
<g>
</g>
<g>
</g>
<g>
</g>
<g>
</g>
<g>
</g>
<g>
</g>
<g>
</g>
<g>
</g>
<g>
</g>
<g>
</g>
<g>
</g>
<g>
</g>
<g>
</g>
<g>
</g>
<g>
</g>
</svg>
