<?xml version="1.0" encoding="iso-8859-1"?>
<!-- Generator: Adobe Illustrator 19.0.0, SVG Export Plug-In . SVG Version: 6.00 Build 0)  -->
<svg version="1.1" id="Layer_1" xmlns="http://www.w3.org/2000/svg" xmlns:xlink="http://www.w3.org/1999/xlink" x="0px" y="0px"
	 viewBox="0 0 512 512" style="enable-background:new 0 0 512 512;" xml:space="preserve">
<circle style="fill:#273B7A;" cx="256" cy="256" r="256"/>
<path style="fill:#121149;" d="M311.851,131.241L173.377,363.758l141.441,141.441c91.529-21.521,164.102-92.162,188.407-182.584
	L311.851,131.241z"/>
<circle style="fill:#D48B07;" cx="256" cy="280.635" r="84.256"/>
<path style="fill:#B77100;" d="M340.256,280.631c0-46.437-37.567-84.092-83.968-84.249v168.496
	C302.689,364.723,340.256,327.068,340.256,280.631z"/>
<path style="fill:#FFC61B;" d="M183.649,172.709c0-39.958,32.392-62.014,72.351-62.014s72.351,22.057,72.351,62.014
	S295.958,245.06,256,245.06S183.649,212.668,183.649,172.709z"/>
<path style="fill:#EDAF14;" d="M328.351,172.709c0-39.862-32.237-61.904-72.063-62.009v134.353
	C296.112,244.896,328.351,212.571,328.351,172.709z"/>
<g>
	<circle style="fill:#121149;" cx="218.677" cy="185.199" r="6.647"/>
	<circle style="fill:#121149;" cx="293.323" cy="185.199" r="6.647"/>
</g>
<polygon style="fill:#D48B07;" points="256,194.881 268.822,202.121 256,231.819 243.179,202.121 "/>
<polygon style="fill:#B77100;" points="256.288,195.043 256.288,231.152 268.822,202.121 "/>
<path style="fill:#FFFFFF;" d="M373.226,267.809l-23.457,25.643l-23.457-25.643l-23.442,25.643l-23.449-25.643l-23.442,25.643
	l-23.435-25.643l-23.443,25.643l-23.442-25.643l-23.44,25.643l-23.445-25.643v12.822c0,64.741,52.484,117.226,117.226,117.226
	s117.226-52.484,117.226-117.226V267.809z"/>
<path style="fill:#D6D6D6;" d="M349.768,293.452l-23.457-25.643l-23.442,25.643l-23.449-25.643l-23.131,25.303v104.736
	c64.609-0.157,116.938-52.572,116.938-117.219v-12.822L349.768,293.452z"/>
<g>
</g>
<g>
</g>
<g>
</g>
<g>
</g>
<g>
</g>
<g>
</g>
<g>
</g>
<g>
</g>
<g>
</g>
<g>
</g>
<g>
</g>
<g>
</g>
<g>
</g>
<g>
</g>
<g>
</g>
</svg>
