<?xml version="1.0" encoding="iso-8859-1"?>
<!-- Generator: Adobe Illustrator 19.0.0, SVG Export Plug-In . SVG Version: 6.00 Build 0)  -->
<svg version="1.1" id="Layer_1" xmlns="http://www.w3.org/2000/svg" xmlns:xlink="http://www.w3.org/1999/xlink" x="0px" y="0px"
	 viewBox="0 0 512 512" style="enable-background:new 0 0 512 512;" xml:space="preserve">
<circle style="fill:#FFEDB5;" cx="256" cy="256" r="256"/>
<path style="fill:#FEE187;" d="M335.088,136.19L142.222,386.989L266.983,511.75c118.737-5.015,216.555-90.889,239.778-203.99
	L335.088,136.19z"/>
<g>
	<path style="fill:#434849;" d="M142.222,386.989V217.902c0-62.838,50.94-113.778,113.778-113.778s113.778,50.94,113.778,113.778
		v169.088C369.778,386.989,259.687,476.01,142.222,386.989z"/>
	<path style="fill:#434849;" d="M142.222,217.902v169.088c39.6,30.01,78.353,39.771,112.342,39.545V104.16
		C192.391,104.932,142.222,155.545,142.222,217.902z"/>
</g>
<path style="fill:#181919;" d="M369.778,217.902c0-62.838-50.94-113.778-113.778-113.778c-0.481,0-0.955,0.031-1.436,0.036v322.374
	c66.831-0.445,115.214-39.545,115.214-39.545V217.902z"/>
<circle style="fill:#434849;" cx="193.681" cy="200.835" r="15.262"/>
<path style="fill:#FFFFFF;" d="M193.686,221.268c-11.266,0-20.433-9.166-20.433-20.433s9.166-20.433,20.433-20.433
	s20.433,9.166,20.433,20.433S204.952,221.268,193.686,221.268z M193.686,190.745c-5.565,0-10.09,4.525-10.09,10.09
	c0,5.565,4.525,10.09,10.09,10.09c5.565,0,10.09-4.525,10.09-10.09C203.776,195.27,199.249,190.745,193.686,190.745z"/>
<circle style="fill:#434849;" cx="318.319" cy="200.835" r="15.262"/>
<path style="fill:#FFFFFF;" d="M318.316,221.268c-11.266,0-20.433-9.166-20.433-20.433s9.166-20.433,20.433-20.433
	c11.267,0,20.432,9.168,20.432,20.433S329.581,221.268,318.316,221.268z M318.316,190.745c-5.565,0-10.09,4.525-10.09,10.09
	c0,5.565,4.525,10.09,10.09,10.09s10.09-4.525,10.09-10.09C328.406,195.27,323.879,190.745,318.316,190.745z"/>
<path style="fill:#D48B07;" d="M199.111,214.904c0-24.433,25.471-36.911,56.889-36.911s56.889,12.476,56.889,36.911
	S287.418,307.717,256,307.717S199.111,239.337,199.111,214.904z"/>
<path style="fill:#AF7312;" d="M256,177.993c-0.481,0-0.957,0.012-1.436,0.017v129.657c0.478,0.033,0.955,0.048,1.436,0.048
	c31.418,0,56.889-68.38,56.889-92.813S287.418,177.993,256,177.993z"/>
<g>
</g>
<g>
</g>
<g>
</g>
<g>
</g>
<g>
</g>
<g>
</g>
<g>
</g>
<g>
</g>
<g>
</g>
<g>
</g>
<g>
</g>
<g>
</g>
<g>
</g>
<g>
</g>
<g>
</g>
</svg>
