<?xml version="1.0" encoding="iso-8859-1"?>
<!-- Generator: Adobe Illustrator 19.0.0, SVG Export Plug-In . SVG Version: 6.00 Build 0)  -->
<svg version="1.1" id="Layer_1" xmlns="http://www.w3.org/2000/svg" xmlns:xlink="http://www.w3.org/1999/xlink" x="0px" y="0px"
	 viewBox="0 0 512 512" style="enable-background:new 0 0 512 512;" xml:space="preserve">
<circle style="fill:#366695;" cx="256" cy="256" r="256"/>
<path style="fill:#263A7A;" d="M511.598,241.757L388.744,118.889L246.301,439.243l66.436,66.436
	C426.817,479.865,512,377.885,512,256C512,251.22,511.857,246.474,511.598,241.757z"/>
<path style="fill:#D48B07;" d="M349.387,228.554c-16.151-2.825-23.916-23.662-17.341-46.542
	c4.546-15.819,26.641-41.601,39.843-56.008c5.123-5.589,11.698-4.439,13.271,2.322c4.055,17.425,9.923,48.099,5.377,63.919
	C383.964,215.123,365.54,231.379,349.387,228.554z"/>
<path style="fill:#FFEDB5;" d="M353.113,236.689c-1.696,0-3.389-0.143-5.072-0.438l0,0c-8.082-1.414-15.096-6.292-19.753-13.738
	c-6.868-10.981-8.27-26.929-3.75-42.66c4.758-16.553,25.245-41.291,41.593-59.128c4.574-4.991,10.623-7.104,16.187-5.644
	c5.191,1.36,9.099,5.649,10.454,11.474c5.058,21.732,10.078,51.145,5.277,67.846C390.932,219.174,371.865,236.689,353.113,236.689z
	 M350.734,220.856c12.081,2.119,26.895-11.971,32.294-30.772c2.943-10.233,1.033-31.684-5.236-58.951
	c-0.045,0.047-0.093,0.097-0.138,0.148c-21.199,23.128-35.085,42.405-38.097,52.888c-3.317,11.536-2.577,22.775,1.977,30.058
	C343.878,217.967,346.972,220.198,350.734,220.856L350.734,220.856z"/>
<path style="fill:#D48B07;" d="M162.613,228.554c16.151-2.825,23.916-23.662,17.341-46.542
	c-4.546-15.819-26.641-41.601-39.843-56.008c-5.123-5.589-11.698-4.439-13.271,2.322c-4.055,17.425-9.923,48.099-5.377,63.919
	C128.036,215.123,146.46,231.379,162.613,228.554z"/>
<path style="fill:#FFEDB5;" d="M158.887,236.689c-18.754,0-37.819-17.513-44.935-42.286c-4.801-16.701,0.219-46.114,5.275-67.846
	c1.357-5.825,5.267-10.114,10.455-11.474c5.568-1.46,11.614,0.653,16.189,5.646c16.346,17.836,36.833,42.574,41.591,59.127
	c4.52,15.731,3.12,31.678-3.749,42.66c-4.656,7.444-11.673,12.322-19.753,13.738l0,0
	C162.276,236.546,160.584,236.689,158.887,236.689z M134.208,131.134c-6.268,27.267-8.178,48.719-5.236,58.951
	c5.401,18.796,20.187,32.894,32.294,30.772c3.763-0.659,6.858-2.889,9.197-6.63c4.556-7.283,5.294-18.52,1.977-30.058
	c-3.012-10.483-16.898-29.76-38.095-52.886C134.299,131.232,134.253,131.184,134.208,131.134z"/>
<path style="fill:#FEE187;" d="M392.476,248.177c0,69.965-103.722,176.766-136.476,176.766
	c-33.902,0-136.476-106.801-136.476-176.766S180.626,147.003,256,147.003S392.476,178.212,392.476,248.177z"/>
<path style="fill:#FFC61B;" d="M392.476,248.177c0-69.875-60.949-101.092-136.189-101.171v277.923
	C289.351,424.326,392.476,317.943,392.476,248.177z"/>
<g>
	<circle style="fill:#1E262B;" cx="197.749" cy="271.946" r="10.378"/>
	<circle style="fill:#1E262B;" cx="314.251" cy="271.946" r="10.378"/>
</g>
<path style="fill:#773426;" d="M245.031,437.972l-11.242-14.462c-5.56-7.151,0.669-16.543,10.969-16.543h22.485
	c10.3,0,16.529,9.392,10.969,16.543l-11.242,14.462C261.842,444.566,250.158,444.566,245.031,437.972z"/>
<path style="fill:#662A20;" d="M267.242,406.968h-10.954v35.937c4.106-0.074,8.176-1.71,10.681-4.932l11.242-14.462
	C283.77,416.359,277.544,406.968,267.242,406.968z"/>
<path style="fill:#B77204;" d="M217.145,150.069L256,389.754l38.855-239.687c-12.319-2.048-25.352-3.067-38.855-3.067
	C242.497,147.001,229.464,148.021,217.145,150.069z"/>
<path style="fill:#995B00;" d="M256.288,147.008v240.971l38.567-237.909C282.626,148.037,269.688,147.022,256.288,147.008z"/>
<g>
</g>
<g>
</g>
<g>
</g>
<g>
</g>
<g>
</g>
<g>
</g>
<g>
</g>
<g>
</g>
<g>
</g>
<g>
</g>
<g>
</g>
<g>
</g>
<g>
</g>
<g>
</g>
<g>
</g>
</svg>
