<?xml version="1.0" encoding="iso-8859-1"?>
<!-- Generator: Adobe Illustrator 19.0.0, SVG Export Plug-In . SVG Version: 6.00 Build 0)  -->
<svg version="1.1" id="Layer_1" xmlns="http://www.w3.org/2000/svg" xmlns:xlink="http://www.w3.org/1999/xlink" x="0px" y="0px"
	 viewBox="0 0 512 512" style="enable-background:new 0 0 512 512;" xml:space="preserve">
<circle style="fill:#71E2EF;" cx="256" cy="256" r="256"/>
<g>
	<polygon style="fill:#38C6D9;" points="211.784,116.343 303.347,207.906 217.567,199.111 196.817,129.555 	"/>
	<polygon style="fill:#38C6D9;" points="329.49,112.309 421.054,203.871 335.272,195.075 296.943,189.342 	"/>
	<path style="fill:#38C6D9;" d="M374.003,131.441L222.596,404.452l98.773,99.111c105.36-27.746,184.151-120.956,190.242-233.51
		L374.003,131.441z"/>
</g>
<path style="fill:#BC770A;" d="M322.486,211.428l5.685-28.998c1.524-4.572,4.093-8.728,7.501-12.136l33.437-33.437l4.789,43.098
	c1.041,9.375-2.234,18.713-8.904,25.383l-24.997,24.997"/>
<path style="fill:#FEE187;" d="M339.997,237.635c-1.869,0-3.737-0.712-5.161-2.138c-2.851-2.85-2.851-7.473,0-10.323l24.997-24.997
	c5.13-5.13,7.611-12.207,6.809-19.416l-3.112-28.001l-22.697,22.697c-2.489,2.491-4.418,5.551-5.594,8.869l-5.589,28.507
	c-0.774,3.958-4.627,6.553-8.568,5.76c-3.958-0.774-6.535-4.611-5.76-8.568l5.685-28.998c0.059-0.307,0.138-0.609,0.238-0.903
	c1.872-5.616,5.075-10.8,9.264-14.988l33.437-33.437c1.982-1.982,4.927-2.66,7.578-1.727c2.648,0.929,4.53,3.293,4.841,6.082
	l4.787,43.098c1.295,11.642-2.713,23.069-10.999,31.353l-24.997,24.997C343.735,236.923,341.866,237.635,339.997,237.635z"/>
<path style="fill:#D48B07;" d="M189.514,211.428l-5.685-28.998c-1.524-4.572-4.093-8.728-7.501-12.136l-33.437-33.437l-4.789,43.098
	c-1.041,9.375,2.234,18.713,8.904,25.383l24.997,24.997"/>
<path style="fill:#FFEDB5;" d="M172.003,237.635c-1.869,0-3.737-0.712-5.161-2.138l-24.997-24.997
	c-8.285-8.283-12.293-19.711-10.999-31.353l4.787-43.098c0.31-2.789,2.191-5.153,4.841-6.082c2.651-0.933,5.596-0.257,7.578,1.727
	l33.437,33.437c4.189,4.189,7.392,9.373,9.264,14.988c0.1,0.297,0.179,0.598,0.238,0.902l5.687,28.998
	c0.776,3.958-1.801,7.794-5.758,8.57c-3.953,0.795-7.794-1.801-8.57-5.758l-5.591-28.508c-1.176-3.319-3.105-6.377-5.594-8.869
	l-22.697-22.695l-3.112,28.001c-0.802,7.209,1.681,14.286,6.809,19.416l24.997,24.997c2.851,2.85,2.851,7.473,0,10.323
	C175.74,236.923,173.871,237.635,172.003,237.635z"/>
<path style="fill:#D48B07;" d="M153.84,237.434c0-41.088,27.584-69.822,102.16-69.822c75.94,0,102.16,28.734,102.16,69.822
	c0,62.883-43.701,181.476-102.16,181.476C201.704,418.909,153.84,300.316,153.84,237.434z"/>
<path style="fill:#BC770A;" d="M256,167.612c-0.195,0-0.379,0.007-0.574,0.007V418.89c0.191,0.002,0.383,0.019,0.574,0.019
	c58.459,0,102.16-118.593,102.16-181.476C358.16,196.346,331.94,167.612,256,167.612z"/>
<path style="fill:#B77204;" d="M264.27,301.754l24.08-132.053c-9.607-1.369-20.354-2.091-32.351-2.091
	c-11.967,0-22.711,0.748-32.337,2.162l24.067,131.982C249.408,310.953,262.592,310.953,264.27,301.754z"/>
<path style="fill:#995C05;" d="M256,167.612c-0.193,0-0.381,0.003-0.574,0.005V308.61c3.899,0.25,7.963-2.017,8.844-6.854
	l24.08-132.053C278.743,168.333,267.995,167.612,256,167.612z"/>
<path style="fill:#FFEDB5;" d="M256,418.909c16.344,0,31.534-9.275,44.937-24.004c-8.54-15.308-25.455-25.738-44.937-25.738
	c-18.951,0-35.468,9.873-44.216,24.502C225.339,409.109,240.402,418.909,256,418.909z"/>
<path style="fill:#FEE187;" d="M256,369.168c-0.193,0-0.381,0.017-0.574,0.019v49.702c0.191,0.003,0.383,0.022,0.574,0.022
	c16.344,0,31.534-9.275,44.937-24.004C292.397,379.597,275.482,369.168,256,369.168z"/>
<g>
	<circle style="fill:#1E262B;" cx="209.23" cy="283.962" r="8.328"/>
	<circle style="fill:#1E262B;" cx="302.752" cy="283.962" r="8.328"/>
	<circle style="fill:#1E262B;" cx="236.847" cy="394.033" r="3.41"/>
	<circle style="fill:#1E262B;" cx="275.153" cy="394.033" r="3.41"/>
</g>
<path style="fill:#FFEDB5;" d="M207.234,139.978c4.229-3.431,6.939-8.661,6.939-14.517c0-10.309-8.387-18.696-18.697-18.696
	s-18.696,8.385-18.696,18.696c0,9.538,7.182,17.415,16.418,18.542l10.657,37.014c0.921,3.198,3.841,5.282,7.011,5.282
	c0.669,0,1.348-0.093,2.024-0.288c3.874-1.114,6.111-5.16,4.994-9.035L207.234,139.978z"/>
<path style="fill:#FEE187;" d="M335.219,125.461c0-10.309-8.387-18.696-18.697-18.696c-10.311,0-18.696,8.385-18.696,18.696
	c0,5.856,2.71,11.086,6.939,14.517l-10.652,36.998c-1.115,3.875,1.121,7.921,4.994,9.035c0.676,0.195,1.355,0.288,2.024,0.288
	c3.172,0,6.091-2.084,7.011-5.282l10.657-37.016C328.037,142.874,335.219,134.999,335.219,125.461z"/>
<g>
</g>
<g>
</g>
<g>
</g>
<g>
</g>
<g>
</g>
<g>
</g>
<g>
</g>
<g>
</g>
<g>
</g>
<g>
</g>
<g>
</g>
<g>
</g>
<g>
</g>
<g>
</g>
<g>
</g>
</svg>
