<?xml version="1.0" encoding="iso-8859-1"?>
<!-- Generator: Adobe Illustrator 19.0.0, SVG Export Plug-In . SVG Version: 6.00 Build 0)  -->
<svg version="1.1" id="Layer_1" xmlns="http://www.w3.org/2000/svg" xmlns:xlink="http://www.w3.org/1999/xlink" x="0px" y="0px"
	 viewBox="0 0 512 512" style="enable-background:new 0 0 512 512;" xml:space="preserve">
<circle style="fill:#FF6161;" cx="256" cy="256" r="256"/>
<g>
	<path style="fill:#D33939;" d="M511.238,236.132L360.439,85.333c-49.974,8.059-63.257,60.933-76.857,103.434
		c-20.687,60.337-56.889,112.054-82.747,170.667c-5.716,13.34-16.184,25.619-28.47,36.562L286.548,510.18
		C413.529,495.076,512,387.046,512,256C512,249.315,511.741,242.688,511.238,236.132z"/>
	<polygon style="fill:#D33939;" points="98.406,276.975 144.234,322.801 144.234,261.172 	"/>
	<polygon style="fill:#D33939;" points="101.854,192.215 124.983,215.345 126.995,189.63 	"/>
	<polygon style="fill:#D33939;" points="122.54,127.857 142.941,148.256 149.837,125.414 	"/>
	<polygon style="fill:#D33939;" points="312.027,66.37 349.02,103.362 298.524,107.744 	"/>
</g>
<path style="fill:#434849;" d="M256,430.114c-117.8,0-141.791-153.14-141.791-153.14H98.406
	c-11.205-51.143,17.239-84.759,17.239-84.759h-13.791c7.184-46.545,34.766-62.348,34.766-62.348l-14.079-2.012
	c16.665-23.273,38.788-30.168,38.788-30.168l-9.768-12.354c27.87-9.769,54.877,1.436,54.877,1.436l-6.465-20.399
	C234.451,67.663,256,91.367,256,91.367s21.549-23.704,56.027-24.997l-6.465,20.399c0,0,27.008-11.205,54.877-1.436l-9.769,12.355
	c0,0,22.123,6.896,38.788,30.168l-14.079,2.012c0,0,27.582,15.803,34.766,62.348h-13.791c0,0,28.444,33.616,17.239,84.759H397.79
	C397.791,276.975,382.133,430.114,256,430.114z"/>
<path style="fill:#353838;" d="M396.355,192.215h13.791c-7.184-46.545-34.766-62.348-34.766-62.348l14.079-2.012
	c-16.665-23.273-38.788-30.168-38.788-30.168l9.769-12.355c-27.87-9.769-54.877,1.436-54.877,1.436l6.463-20.397
	C277.549,67.663,256,91.367,256,91.367s-0.195-0.214-0.574-0.6v339.335c0.193,0,0.381,0.012,0.574,0.012
	c126.133,0,141.791-153.14,141.791-153.14h15.803C424.8,225.832,396.355,192.215,396.355,192.215z"/>
<path style="fill:#EFEEED;" d="M327.161,146.315c-18.496,15.558-47.29,36.295-76.095,43.17l9.483-20.975
	c0,0-14.408,15.515-57.087,23.273v-16.377c0,0-19.161,14.438-47.268,21.164c-0.019,0.683-0.06,1.35-0.06,2.043
	c0,47.959,75.059,121.17,99.868,121.17c23.969,0,99.868-73.209,99.868-121.17C355.869,174.882,344.907,157.665,327.161,146.315z"/>
<g>
	<path style="fill:#E5E1DF;" d="M260.549,168.512c0,0-1.555,1.665-5.123,4.17v7.159L260.549,168.512z"/>
	<path style="fill:#E5E1DF;" d="M327.161,146.315c-17.563,14.774-44.41,34.192-71.735,42.001v131.443
		c0.191,0.009,0.39,0.026,0.574,0.026c23.969,0,99.868-73.209,99.868-121.17C355.869,174.882,344.907,157.665,327.161,146.315z"/>
</g>
<g>
	<circle style="fill:#1E262B;" cx="209.23" cy="225.728" r="8.328"/>
	<circle style="fill:#1E262B;" cx="302.77" cy="225.728" r="8.328"/>
</g>
<path style="fill:#FF6262;" d="M247.196,330.243l-9.025-11.609c-4.463-5.741,0.536-13.279,8.806-13.279h18.049
	c8.27,0,13.267,7.539,8.806,13.279l-9.025,11.609C260.691,335.538,251.311,335.538,247.196,330.243z"/>
<path style="fill:#D33939;" d="M265.025,305.355h-9.599v28.831c3.562,0.159,7.206-1.145,9.38-3.943l9.025-11.609
	C278.294,312.894,273.294,305.355,265.025,305.355z"/>
<g>
</g>
<g>
</g>
<g>
</g>
<g>
</g>
<g>
</g>
<g>
</g>
<g>
</g>
<g>
</g>
<g>
</g>
<g>
</g>
<g>
</g>
<g>
</g>
<g>
</g>
<g>
</g>
<g>
</g>
</svg>
