<?xml version="1.0" encoding="iso-8859-1"?>
<!-- Generator: Adobe Illustrator 19.0.0, SVG Export Plug-In . SVG Version: 6.00 Build 0)  -->
<svg version="1.1" id="Layer_1" xmlns="http://www.w3.org/2000/svg" xmlns:xlink="http://www.w3.org/1999/xlink" x="0px" y="0px"
	 viewBox="0 0 512 512" style="enable-background:new 0 0 512 512;" xml:space="preserve">
<circle style="fill:#273B7A;" cx="256" cy="256" r="256"/>
<path style="fill:#121149;" d="M511.485,272.05L264.108,68.563L120.946,405.876l89.497,102.079C225.227,510.611,240.45,512,256,512
	C391.992,512,503.198,405.956,511.485,272.05z"/>
<path style="fill:#FF6161;" d="M142.222,386.989V217.902c0-62.838,50.94-113.778,113.778-113.778s113.778,50.94,113.778,113.778
	v169.088C369.778,386.989,259.687,476.01,142.222,386.989z"/>
<path style="fill:#E02222;" d="M369.778,217.902c0-62.838-50.94-113.778-113.778-113.778c-0.193,0-0.381,0.014-0.574,0.014V426.53
	c66.386-0.772,114.352-39.541,114.352-39.541V217.902z"/>
<path style="fill:#FFAD9E;" d="M299.458,167.333c-18.899,0-35.287,10.709-43.456,26.383c-8.17-15.674-24.559-26.383-43.456-26.383
	c-27.055,0-48.988,21.933-48.988,48.988s21.933,48.988,48.988,48.988c18.899,0,35.287-10.709,43.456-26.383
	c8.17,15.674,24.559,26.383,43.456,26.383c27.055,0,48.988-21.933,48.988-48.988C348.444,189.266,326.513,167.333,299.458,167.333z"
	/>
<path style="fill:#FF6161;" d="M299.458,167.333c-18.899,0-35.287,10.709-43.456,26.383c-0.179-0.346-0.386-0.676-0.574-1.015
	v47.244c0.188-0.341,0.395-0.671,0.574-1.015c8.17,15.674,24.559,26.383,43.456,26.383c27.055,0,48.988-21.933,48.988-48.988
	C348.444,189.266,326.513,167.333,299.458,167.333z"/>
<g>
	<path style="fill:#FFEDB5;" d="M233.482,318.848c0-7.959,5.189-36.683,11.588-36.683c6.399,0,11.588,28.724,11.588,36.683
		c0,7.959-5.189,14.412-11.588,14.412C238.671,333.26,233.482,326.808,233.482,318.848z"/>
	<path style="fill:#FFEDB5;" d="M255.341,318.848c0-7.959,5.189-36.683,11.588-36.683c6.401,0,11.588,28.724,11.588,36.683
		c0,7.959-5.189,14.412-11.588,14.412C260.53,333.26,255.341,326.808,255.341,318.848z"/>
</g>
<polygon style="fill:#FFC91B;" points="256,264.518 272.789,273.999 256,322.988 239.211,273.999 "/>
<polygon style="fill:#DD9F05;" points="272.789,273.999 256,264.518 255.426,264.844 255.426,321.314 256,322.988 "/>
<g>
	<circle style="fill:#273B7A;" cx="211.747" cy="216.316" r="9.481"/>
	<circle style="fill:#273B7A;" cx="298.667" cy="216.316" r="9.481"/>
</g>
<path style="fill:#940030;" d="M240.854,75.843c0-7.052,5.716-12.769,12.769-12.769s12.769,5.716,12.769,12.769
	s-5.716,33.664-12.769,33.664S240.854,82.896,240.854,75.843z"/>
<path style="fill:#840030;" d="M229.274,88.119c-2.381-6.639,1.072-13.95,7.711-16.331c6.639-2.381,13.95,1.072,16.331,7.711
	c2.381,6.639,5.98,33.62-0.659,36C246.017,117.879,231.653,94.758,229.274,88.119z"/>
<path style="fill:#FFAD9E;" d="M369.778,356.418c-14.305,0-26.2,10.256-28.774,23.812c-2.882-0.948-5.953-1.477-9.152-1.477
	c-13.041,0-24.079,8.523-27.882,20.299c-3.138-1.146-6.509-1.803-10.043-1.803c-8.823,0-16.715,3.917-22.088,10.087
	c-4.57-2.944-9.997-4.672-15.838-4.672c-5.841,0-11.267,1.727-15.838,4.672c-5.372-6.168-13.265-10.087-22.088-10.087
	c-3.534,0-6.906,0.657-10.043,1.803c-3.801-11.776-14.841-20.299-27.882-20.299c-3.2,0-6.27,0.529-9.152,1.477
	c-2.574-13.557-14.469-23.812-28.774-23.812c-16.186,0-29.306,13.121-29.306,29.306s13.121,29.306,29.306,29.306
	c3.2,0,6.27-0.529,9.152-1.477c2.574,13.557,14.469,23.812,28.774,23.812c3.534,0,6.906-0.657,10.043-1.803
	c3.801,11.776,14.841,20.299,27.882,20.299c5.841,0,11.267-1.727,15.838-4.672c5.372,6.168,13.265,10.087,22.088,10.087
	c8.823,0,16.715-3.917,22.088-10.087c4.57,2.944,9.997,4.672,15.838,4.672c13.041,0,24.079-8.523,27.882-20.299
	c3.138,1.146,6.509,1.803,10.043,1.803c14.305,0,26.2-10.256,28.774-23.812c2.882,0.948,5.953,1.477,9.152,1.477
	c16.186,0,29.306-13.121,29.306-29.306S385.964,356.418,369.778,356.418z"/>
<path style="fill:#FF6161;" d="M369.778,356.418c-14.305,0-26.2,10.256-28.774,23.812c-2.882-0.948-5.953-1.477-9.152-1.477
	c-13.041,0-24.079,8.523-27.882,20.299c-3.138-1.146-6.509-1.803-10.043-1.803c-8.823,0-16.715,3.917-22.088,10.087
	c-4.57-2.944-9.997-4.672-15.838-4.672c-0.193,0-0.381,0.017-0.574,0.021v58.559c0.193,0.003,0.379,0.031,0.574,0.031
	c8.823,0,16.715-3.917,22.088-10.087c4.57,2.944,9.997,4.672,15.838,4.672c13.041,0,24.079-8.523,27.882-20.299
	c3.138,1.146,6.509,1.803,10.043,1.803c14.305,0,26.2-10.256,28.774-23.812c2.882,0.948,5.953,1.477,9.152,1.477
	c16.186,0,29.306-13.121,29.306-29.306S385.964,356.418,369.778,356.418z"/>
<g>
</g>
<g>
</g>
<g>
</g>
<g>
</g>
<g>
</g>
<g>
</g>
<g>
</g>
<g>
</g>
<g>
</g>
<g>
</g>
<g>
</g>
<g>
</g>
<g>
</g>
<g>
</g>
<g>
</g>
</svg>
