<?xml version="1.0" encoding="iso-8859-1"?>
<!-- Generator: Adobe Illustrator 19.0.0, SVG Export Plug-In . SVG Version: 6.00 Build 0)  -->
<svg version="1.1" id="Layer_1" xmlns="http://www.w3.org/2000/svg" xmlns:xlink="http://www.w3.org/1999/xlink" x="0px" y="0px"
	 viewBox="0 0 512 512" style="enable-background:new 0 0 512 512;" xml:space="preserve">
<circle style="fill:#FF0F27;" cx="256" cy="256" r="256"/>
<path style="fill:#940030;" d="M412.813,192.076L143.608,330.995l173.618,173.616c101.378-24.883,179.029-110.135,192.643-215.481
	L412.813,192.076z"/>
<circle style="fill:#D48B07;" cx="128.483" cy="220.953" r="41.408"/>
<circle style="fill:#B26F04;" cx="383.517" cy="220.953" r="41.408"/>
<path style="fill:#FFC61B;" d="M404.692,248.177c0,69.965-66.572,126.683-148.692,126.683s-148.692-56.718-148.692-126.683
	S173.88,147.003,256,147.003S404.692,178.212,404.692,248.177z"/>
<path style="fill:#EDB026;" d="M256,147.001c-0.193,0-0.381,0.007-0.574,0.007v227.838c0.193,0,0.381,0.012,0.574,0.012
	c82.12,0,148.692-56.718,148.692-126.683C404.692,178.21,338.12,147.001,256,147.001z"/>
<g>
	<circle style="fill:#121149;" cx="196.525" cy="266.119" r="9.513"/>
	<circle style="fill:#121149;" cx="315.475" cy="266.119" r="9.513"/>
</g>
<path style="fill:#FEE187;" d="M256,286.051c-36.2,0-65.548,25.524-65.548,57.01c0,7.265,1.579,14.203,4.427,20.594
	c18.649,7.177,39.327,11.205,61.121,11.205s42.472-4.029,61.121-11.205c2.848-6.389,4.427-13.329,4.427-20.592
	C321.548,311.575,292.2,286.051,256,286.051z"/>
<path style="fill:#FFC61B;" d="M256,286.051c-0.193,0-0.383,0.012-0.574,0.012v88.781c0.193,0,0.381,0.014,0.574,0.014
	c21.794,0,42.472-4.027,61.121-11.205c2.848-6.389,4.427-13.329,4.427-20.592C321.548,311.575,292.2,286.051,256,286.051z"/>
<path style="fill:#940030;" d="M267.242,282.369h-22.485c-10.3,0-16.529,9.392-10.969,16.543l11.242,14.462
	c1.352,1.738,3.163,3.005,5.186,3.825v37.838c0,3.194,2.591,5.784,5.784,5.784s5.784-2.591,5.784-5.784v-37.838
	c2.022-0.822,3.834-2.089,5.186-3.825l11.242-14.462C283.77,291.761,277.544,282.369,267.242,282.369z"/>
<path style="fill:#773426;" d="M267.242,282.369h-11.816v78.395c0.191,0.019,0.378,0.059,0.574,0.059
	c3.194,0,5.784-2.591,5.784-5.784v-37.84c2.022-0.822,3.834-2.089,5.186-3.825l11.242-14.462
	C283.77,291.761,277.544,282.369,267.242,282.369z"/>
<path style="fill:#D48B07;" d="M191.426,165.926c10.226,9.797,10.709,25.643,23.919,25.643s28.275-12.167,23.919-25.643
	c-2.401-7.428-4.917-13.503-8.257-17.887c-15.369,1.286-29.925,3.806-43.305,7.613C186.814,158.875,187.72,162.375,191.426,165.926z
	"/>
<path style="fill:#D6A11D;" d="M224.327,165.926c1.81,5.601-4.451,10.659-9.942,10.659c-5.491,0-5.692-6.587-9.942-10.659
	c-5.703-5.463,4.451-10.659,9.942-10.659C219.876,155.267,222.196,159.337,224.327,165.926z"/>
<path style="fill:#D48B07;" d="M298.472,154.976c-7.021,12.3-22.276,16.615-19.07,29.429c3.206,12.816,18.668,24.476,30.682,16.977
	c14.133-8.819,22.276-16.613,19.07-29.429c-1.448-5.785-5.925-13.162-11.266-18.006c-5.122-1.267-10.393-2.362-15.808-3.277
	C300.785,151.655,299.568,153.055,298.472,154.976z"/>
<path style="fill:#D6A11D;" d="M306.459,186.892c-4.994,3.117-11.421-1.731-12.753-7.058c-1.333-5.327,5.008-7.12,7.927-12.233
	c3.915-6.859,11.421,1.731,12.753,7.058S312.332,183.227,306.459,186.892z"/>
<path style="fill:#D48B07;" d="M122.537,272.253c-2.507,4.391-6.063,7.763-9.452,10.869c4.389,13.05,11.138,25.248,19.887,36.205
	c0.397-0.203,0.79-0.424,1.179-0.667c14.133-8.819,22.276-16.615,19.07-29.429C150.013,276.416,131.958,255.752,122.537,272.253z"/>
<path style="fill:#D6A11D;" d="M125.697,284.881c-2.431,4.258-7.22,6.22-7.989,9.833c1.36,2.932,2.813,5.827,4.418,8.647
	c2.519,1.829,5.67,2.512,8.397,0.81c5.875-3.665,9.259-6.906,7.927-12.233C137.118,286.611,129.614,278.021,125.697,284.881z"/>
<path style="fill:#D48B07;" d="M270.069,214.918c-2.127,9.185-14.895,10.974-22.437,6.451c-7.542-4.524-2.393-13.736-4.877-22.831
	c-3.332-12.204,14.895-10.974,22.437-6.451S272.57,204.112,270.069,214.918z"/>
<path style="fill:#D6A11D;" d="M261.539,209.803c-0.884,3.818-6.191,4.561-9.326,2.682c-3.136-1.881-0.995-5.71-2.027-9.49
	c-1.386-5.072,6.191-4.561,9.326-2.682C262.647,202.193,262.578,205.312,261.539,209.803z"/>
<path style="fill:#D48B07;" d="M162.125,326.551c-6.077-3.644-19.084-5.144-22.168,0.791c7.859,8.351,16.908,15.853,26.969,22.275
	c0.021-0.081,0.055-0.153,0.076-0.236C169.503,338.577,169.667,331.074,162.125,326.551z"/>
<path style="fill:#D6A11D;" d="M156.446,334.777c-2.389-1.433-7.346-2.062-8.963-0.04c3.506,3.189,7.208,6.22,11.083,9.087
	C159.503,339.578,159.473,336.594,156.446,334.777z"/>
<g>
	<path style="fill:#D48B07;" d="M392.618,279.431c-7.542-4.523-25.771-5.751-22.437,6.451c2.484,9.095-2.665,18.308,4.877,22.831
		c2.867,1.719,6.489,2.52,9.993,2.357c5.367-7.975,9.775-16.477,13.021-25.419C397.115,283.165,395.392,281.095,392.618,279.431z"/>
	<path style="fill:#D48B07;" d="M378.14,320.391c-3.753-7.951-8.607-12.588-17.068-12.588c-11.471,0-32.684,10.852-20.77,22.268
		c4.948,4.739,7.27,11.104,10.338,15.817C361.12,338.511,370.366,329.919,378.14,320.391z"/>
</g>
<g>
	<path style="fill:#D6A11D;" d="M388.967,297.148c-0.884,3.818-6.191,4.561-9.326,2.682c-3.136-1.879-0.995-5.71-2.027-9.49
		c-1.386-5.072,6.191-4.561,9.326-2.682C390.073,289.539,390.006,292.657,388.967,297.148z"/>
	<path style="fill:#D6A11D;" d="M368.871,330.069c-1.85-5.722-3.865-9.256-8.633-9.256s-13.584,4.511-8.633,9.256
		c3.434,3.291,3.829,8.464,7.708,9.169c3.379-2.784,6.601-5.701,9.659-8.745C368.938,330.352,368.918,330.212,368.871,330.069z"/>
</g>
<g>
</g>
<g>
</g>
<g>
</g>
<g>
</g>
<g>
</g>
<g>
</g>
<g>
</g>
<g>
</g>
<g>
</g>
<g>
</g>
<g>
</g>
<g>
</g>
<g>
</g>
<g>
</g>
<g>
</g>
</svg>
