<?xml version="1.0" encoding="iso-8859-1"?>
<!-- Generator: Adobe Illustrator 19.0.0, SVG Export Plug-In . SVG Version: 6.00 Build 0)  -->
<svg version="1.1" id="Layer_1" xmlns="http://www.w3.org/2000/svg" xmlns:xlink="http://www.w3.org/1999/xlink" x="0px" y="0px"
	 viewBox="0 0 512 512" style="enable-background:new 0 0 512 512;" xml:space="preserve">
<circle style="fill:#FFAD9E;" cx="256" cy="256" r="256"/>
<path style="fill:#FF6262;" d="M401.163,177.104L129.102,312.815l191.073,191.073c100.776-26.014,177.483-111.863,190.011-217.395
	L401.163,177.104z"/>
<circle style="fill:#633A2F;" cx="130.912" cy="197.111" r="28.339"/>
<circle style="fill:#47251F;" cx="381.087" cy="197.111" r="28.339"/>
<path style="fill:#915F4E;" d="M399.844,266.18c0,64.529-64.402,79.67-143.844,79.67s-143.844-15.141-143.844-79.67
	S176.557,127.281,256,127.281S399.844,201.65,399.844,266.18z"/>
<path style="fill:#5B382F;" d="M256,127.281c-0.191,0-0.383,0.007-0.574,0.009v218.557c0.193,0,0.381,0.003,0.574,0.003
	c79.443,0,143.844-15.141,143.844-79.67C399.844,201.65,335.443,127.281,256,127.281z"/>
<circle style="fill:#252828;" cx="201.111" cy="211.127" r="9.214"/>
<circle cx="310.889" cy="211.127" r="9.214"/>
<path style="fill:#FFEDB5;" d="M218.624,239.728c-21.637,0-39.176,15.827-39.176,35.35s17.539,35.35,39.176,35.35
	c17.537,0,32.38-10.399,37.376-24.736c4.996,14.336,19.839,24.736,37.376,24.736c21.637,0,39.176-15.827,39.176-35.35
	s-17.539-35.35-39.176-35.35H218.624z"/>
<path style="fill:#FEE187;" d="M293.376,239.728h-37.95v47.409c0.193-0.481,0.403-0.953,0.574-1.443
	c4.996,14.336,19.839,24.736,37.376,24.736c21.637,0,39.176-15.827,39.176-35.35C332.552,255.555,315.013,239.728,293.376,239.728z"
	/>
<ellipse style="fill:#252828;" cx="256" cy="237.847" rx="31.168" ry="17.491"/>
<path d="M256,220.35c-0.193,0-0.381,0.014-0.574,0.017v34.949c0.193,0.002,0.381,0.016,0.574,0.016
	c17.213,0,31.166-7.83,31.166-17.491C287.166,228.18,273.213,220.35,256,220.35z"/>
<g>
</g>
<g>
</g>
<g>
</g>
<g>
</g>
<g>
</g>
<g>
</g>
<g>
</g>
<g>
</g>
<g>
</g>
<g>
</g>
<g>
</g>
<g>
</g>
<g>
</g>
<g>
</g>
<g>
</g>
</svg>
