<?xml version="1.0" encoding="iso-8859-1"?>
<!-- Generator: Adobe Illustrator 19.0.0, SVG Export Plug-In . SVG Version: 6.00 Build 0)  -->
<svg version="1.1" id="Layer_1" xmlns="http://www.w3.org/2000/svg" xmlns:xlink="http://www.w3.org/1999/xlink" x="0px" y="0px"
	 viewBox="0 0 512 512" style="enable-background:new 0 0 512 512;" xml:space="preserve">
<circle style="fill:#FFC61B;" cx="256" cy="256" r="256"/>
<path style="fill:#D48B07;" d="M401.167,188.059L204.583,420.436l88.835,88.835c110.635-16.205,198.277-103.162,215.499-213.463
	L401.167,188.059z"/>
<circle style="fill:#C86031;" cx="145.067" cy="221.212" r="47.666"/>
<circle style="fill:#AF4217;" cx="366.933" cy="221.212" r="47.666"/>
<path style="fill:#774639;" d="M387.406,256c0,70.192-92.905,196.08-131.406,196.08c-46.545,0-131.406-125.888-131.406-196.08
	S183.425,85.333,256,85.333S387.406,185.808,387.406,256z"/>
<path style="fill:#603229;" d="M256,85.333c-0.479,0-0.957,0.022-1.436,0.031V452.02c0.481,0.026,0.964,0.06,1.436,0.06
	c38.502,0,131.406-125.888,131.406-196.08S328.573,85.333,256,85.333z"/>
<path style="fill:#FFC192;" d="M350.242,240.171c0-28.077-22.761-50.838-50.838-50.838c-18.377,0-34.475,9.754-43.406,24.364
	c-8.93-14.61-25.028-24.364-43.406-24.364c-28.077,0-50.838,22.761-50.838,50.838c0,25.552,18.853,46.694,43.406,50.292v34.278
	c0,28.077,22.761,50.838,50.838,50.838s50.838-22.761,50.838-50.838v-34.278C331.39,286.865,350.242,265.723,350.242,240.171z"/>
<path style="fill:#EFA573;" d="M299.406,189.333c-18.377,0-34.475,9.752-43.406,24.364c-0.457-0.746-0.943-1.47-1.436-2.191v164.037
	c0.478,0.014,0.955,0.036,1.436,0.036c28.077,0,50.838-22.761,50.838-50.838v-34.278c24.554-3.598,43.406-24.74,43.406-50.292
	C350.242,212.094,327.482,189.333,299.406,189.333z"/>
<g>
	<circle style="fill:#121149;" cx="213.195" cy="240.243" r="7.73"/>
	<circle style="fill:#121149;" cx="299.994" cy="240.243" r="7.73"/>
	<circle style="fill:#121149;" cx="264.568" cy="312.889" r="5.708"/>
	<circle style="fill:#121149;" cx="247.432" cy="312.889" r="5.708"/>
</g>
<g>
</g>
<g>
</g>
<g>
</g>
<g>
</g>
<g>
</g>
<g>
</g>
<g>
</g>
<g>
</g>
<g>
</g>
<g>
</g>
<g>
</g>
<g>
</g>
<g>
</g>
<g>
</g>
<g>
</g>
</svg>
