<?xml version="1.0" encoding="iso-8859-1"?>
<!-- Generator: Adobe Illustrator 19.0.0, SVG Export Plug-In . SVG Version: 6.00 Build 0)  -->
<svg version="1.1" id="Layer_1" xmlns="http://www.w3.org/2000/svg" xmlns:xlink="http://www.w3.org/1999/xlink" x="0px" y="0px"
	 viewBox="0 0 512 512" style="enable-background:new 0 0 512 512;" xml:space="preserve">
<circle style="fill:#FFC61B;" cx="256" cy="256" r="256"/>
<g>
	<polygon style="fill:#D48B07;" points="93.836,279.4 151.933,341.994 158.779,287.642 	"/>
	<path style="fill:#D48B07;" d="M416.384,202.692L165.092,368.461l138.907,139.028c105.772-20.066,188.511-105.188,204.998-212.182
		L416.384,202.692z"/>
</g>
<circle style="fill:#C86031;" cx="131.81" cy="241.898" r="53.365"/>
<circle style="fill:#AA431B;" cx="380.19" cy="241.898" r="53.365"/>
<ellipse style="fill:#915F4E;" cx="256" cy="276.687" rx="131.413" ry="127.086"/>
<path style="fill:#724438;" d="M256,149.594c-0.481,0-0.955,0.029-1.436,0.034v254.119c0.481,0.005,0.955,0.034,1.436,0.034
	c72.573,0,131.406-56.903,131.406-127.095S328.573,149.594,256,149.594z"/>
<path style="fill:#FFC192;" d="M350.244,260.86c0-28.077-22.761-50.838-50.838-50.838c-18.377,0-34.475,9.754-43.406,24.364
	c-8.93-14.61-25.028-24.364-43.406-24.364c-28.077,0-50.838,22.761-50.838,50.838c0,25.552,18.853,46.694,43.406,50.292v17.039
	c0,28.077,22.761,50.838,50.838,50.838s50.838-22.761,50.838-50.838v-17.039C331.392,307.553,350.244,286.411,350.244,260.86z"/>
<path style="fill:#E09563;" d="M299.406,210.022c-18.377,0-34.475,9.754-43.406,24.364c-0.457-0.746-0.943-1.47-1.436-2.191V378.99
	c0.479,0.014,0.955,0.036,1.436,0.036c28.077,0,50.838-22.761,50.838-50.838v-17.039c24.554-3.598,43.406-24.74,43.406-50.292
	C350.244,232.782,327.482,210.022,299.406,210.022z"/>
<g>
	<circle style="fill:#121149;" cx="213.195" cy="260.93" r="7.73"/>
	<circle style="fill:#121149;" cx="299.994" cy="260.93" r="7.73"/>
	<circle style="fill:#121149;" cx="264.568" cy="318.509" r="5.708"/>
	<circle style="fill:#121149;" cx="247.432" cy="318.509" r="5.708"/>
</g>
<g>
</g>
<g>
</g>
<g>
</g>
<g>
</g>
<g>
</g>
<g>
</g>
<g>
</g>
<g>
</g>
<g>
</g>
<g>
</g>
<g>
</g>
<g>
</g>
<g>
</g>
<g>
</g>
<g>
</g>
</svg>
