<?xml version="1.0" encoding="iso-8859-1"?>
<!-- Generator: Adobe Illustrator 19.0.0, SVG Export Plug-In . SVG Version: 6.00 Build 0)  -->
<svg version="1.1" id="Layer_1" xmlns="http://www.w3.org/2000/svg" xmlns:xlink="http://www.w3.org/1999/xlink" x="0px" y="0px"
	 viewBox="0 0 512 512" style="enable-background:new 0 0 512 512;" xml:space="preserve">
<circle style="fill:#FFEDB5;" cx="256" cy="256" r="256"/>
<path style="fill:#FEE187;" d="M510.547,228.683l-91.465-91.465l-221.632,247.37l119.975,119.975
	C429.14,477.048,512,376.208,512,256C512,246.77,511.5,237.659,510.547,228.683z"/>
<circle style="fill:#C86031;" cx="131.81" cy="173.787" r="53.365"/>
<path style="fill:#AF4E28;" d="M326.832,173.785c0-29.474,23.893-53.515,53.365-53.365c29.648,0.152,53.553,24.055,53.365,53.365
	c-0.19,29.472-23.893,53.365-53.365,53.365C350.725,227.15,326.832,203.257,326.832,173.785z"/>
<path style="fill:#D48B07;" d="M135.39,235.704c0-66.61,53.998-104.974,120.61-104.974s120.61,38.364,120.61,104.974
	s-54,177.797-120.61,177.797S135.39,302.314,135.39,235.704z"/>
<path style="fill:#AA6B07;" d="M256,130.729c-0.481,0-0.955,0.022-1.436,0.026v282.708c0.479,0.012,0.957,0.036,1.436,0.036
	c66.61,0,120.61-111.187,120.61-177.798S322.61,130.729,256,130.729z"/>
<g>
	<circle style="fill:#3A3A3A;" cx="210.851" cy="258.155" r="7.961"/>
	<circle style="fill:#3A3A3A;" cx="301.149" cy="258.155" r="7.961"/>
</g>
<path style="fill:#434849;" d="M276.113,405.488c0,15.708-9.647,28.441-21.549,28.441s-21.549-12.734-21.549-28.441
	s9.647-16.577,21.549-16.577C266.466,388.911,276.113,389.782,276.113,405.488z"/>
<path style="fill:#313738;" d="M254.564,388.911v45.018c11.902,0,21.549-12.733,21.549-28.441
	C276.113,389.782,266.466,388.911,254.564,388.911z"/>
<g>
</g>
<g>
</g>
<g>
</g>
<g>
</g>
<g>
</g>
<g>
</g>
<g>
</g>
<g>
</g>
<g>
</g>
<g>
</g>
<g>
</g>
<g>
</g>
<g>
</g>
<g>
</g>
<g>
</g>
</svg>
