<?xml version="1.0" encoding="iso-8859-1"?>
<!-- Generator: Adobe Illustrator 19.0.0, SVG Export Plug-In . SVG Version: 6.00 Build 0)  -->
<svg version="1.1" id="Layer_1" xmlns="http://www.w3.org/2000/svg" xmlns:xlink="http://www.w3.org/1999/xlink" x="0px" y="0px"
	 viewBox="0 0 512 512" style="enable-background:new 0 0 512 512;" xml:space="preserve">
<circle style="fill:#FFC61B;" cx="256" cy="256" r="256"/>
<path style="fill:#D48B07;" d="M288.77,102.89c-7.456,21.528-5.892,21.058-6.911,32.437c0,15.515-15.515,25.859-17.239,41.374
	c-12.067,49.993-24.135,93.091-55.165,136.189c-5.172,6.896-5.172,20.687-6.896,32.754c-3.448,10.343-1.724,22.411-6.896,31.03
	c-12.067,22.411-46.042,21.764-66.729,14.869c-12.745-4.779-27.1-1.864-38.883-1.493l117.36,117.326
	C223.146,510.398,239.385,512,256,512c119.846,0,220.443-82.36,248.317-193.564L288.77,102.89z"/>
<g>
	<path style="fill:#366695;" d="M199.111,309.665c0,0,17.527,66.146-27.295,59.251c-35.338-5.437-62.745-2.908-81.125,11.557
		c-4.984,3.922-1.857,11.99,4.468,11.514c17.205-1.295,41.041,2.91,67.62,17.441c37.052,20.256,107.732-18.963,90.062-97.832
		L199.111,309.665z"/>
	<path style="fill:#366695;" d="M172.244,268.417c0,0-8.12,54.629-41.355,40.269c-26.203-11.321-47.883-14.893-64.998-7.421
		c-4.641,2.026-3.851,8.888,1.131,9.795c13.552,2.467,31.118,10.519,48.721,27.1c24.54,23.114,98.897,15.253,101.142-49.233
		L172.244,268.417z"/>
</g>
<g>
	<path style="fill:#273B7A;" d="M312.517,309.665c0,0-17.527,66.146,27.295,59.251c35.338-5.437,62.745-2.908,81.125,11.557
		c4.984,3.922,1.857,11.99-4.468,11.514c-17.205-1.295-41.041,2.91-67.62,17.441c-37.052,20.256-107.732-18.963-90.062-97.832
		L312.517,309.665z"/>
	<path style="fill:#273B7A;" d="M339.384,268.417c0,0,8.12,54.629,41.355,40.269c26.203-11.321,47.883-14.893,64.998-7.421
		c4.641,2.026,3.851,8.888-1.131,9.795c-13.552,2.467-31.118,10.519-48.721,27.1c-24.54,23.114-98.897,15.253-101.142-49.233
		L339.384,268.417z"/>
	<path style="fill:#273B7A;" d="M349.222,268.945c0,66.108-41.737,57.772-93.222,57.772s-93.222,8.337-93.222-57.772
		S204.516,87.318,256,87.318S349.222,202.836,349.222,268.945z"/>
</g>
<path style="fill:#121149;" d="M256,87.318c-0.191,0-0.383,0.017-0.574,0.019v239.38c0.191,0,0.383-0.002,0.574-0.002
	c51.484,0,93.222,8.337,93.222-57.772S307.484,87.318,256,87.318z"/>
<g>
	<circle style="fill:#71E2EF;" cx="209.851" cy="274.997" r="6.58"/>
	<circle style="fill:#71E2EF;" cx="302.149" cy="274.997" r="6.58"/>
</g>
<g>
</g>
<g>
</g>
<g>
</g>
<g>
</g>
<g>
</g>
<g>
</g>
<g>
</g>
<g>
</g>
<g>
</g>
<g>
</g>
<g>
</g>
<g>
</g>
<g>
</g>
<g>
</g>
<g>
</g>
</svg>
