<?xml version="1.0" encoding="iso-8859-1"?>
<!-- Generator: Adobe Illustrator 19.0.0, SVG Export Plug-In . SVG Version: 6.00 Build 0)  -->
<svg version="1.1" id="Layer_1" xmlns="http://www.w3.org/2000/svg" xmlns:xlink="http://www.w3.org/1999/xlink" x="0px" y="0px"
	 viewBox="0 0 512 512" style="enable-background:new 0 0 512 512;" xml:space="preserve">
<circle style="fill:#FF7F4F;" cx="256" cy="256" r="256"/>
<path style="fill:#E03A00;" d="M269.729,46.583c-39.689,57.727-39.081,130.92-30.968,199.073
	c8.197,77.047,10.364,163.161-6.992,240.054L256,512c130.798,0,238.673-98.097,254.095-224.732L269.729,46.583z"/>
<path style="fill:#FFC61B;" d="M223.246,509.923C233.97,511.292,244.903,512,256,512c11.097,0,22.03-0.709,32.754-2.077V223.246
	h-65.508V509.923z"/>
<path style="fill:#E0A103;" d="M255.426,223.246v288.746c0.191,0,0.383,0.009,0.574,0.009c11.097,0,22.03-0.709,32.754-2.077
	V223.246H255.426z"/>
<ellipse style="fill:#FEE187;" cx="256" cy="178.855" rx="94.815" ry="77.145"/>
<path style="fill:#FFC61B;" d="M256,101.71c-0.193,0-0.381,0.01-0.574,0.012v154.265c0.193,0,0.381,0.012,0.574,0.012
	c52.365,0,94.815-34.538,94.815-77.145S308.365,101.71,256,101.71z"/>
<path style="fill:#FF5419;" d="M233.481,295.255c0-7.959,5.189-36.683,11.588-36.683c6.399,0,11.588,28.724,11.588,36.683
	s-5.189,14.412-11.588,14.412C238.67,309.667,233.481,303.214,233.481,295.255z"/>
<path style="fill:#E23F13;" d="M255.341,295.255c0-7.959,5.189-36.683,11.588-36.683c6.401,0,11.588,28.724,11.588,36.683
	s-5.189,14.412-11.588,14.412C260.53,309.665,255.341,303.214,255.341,295.255z"/>
<path style="fill:#FFFFFF;" d="M283.772,146.806c-12.364,0-23.085,7.006-28.431,17.26c-5.346-10.254-16.067-17.26-28.431-17.26
	c-17.699,0-32.049,14.348-32.049,32.049c0,17.699,14.348,32.049,32.049,32.049c12.364,0,23.085-7.006,28.431-17.26
	c5.346,10.254,16.067,17.26,28.431,17.26c17.699,0,32.049-14.348,32.049-32.049C315.82,161.156,301.471,146.806,283.772,146.806z"/>
<path style="fill:#DDDDDD;" d="M283.772,146.806c-12.302,0-22.974,6.939-28.346,17.11v29.877
	c5.372,10.171,16.043,17.11,28.346,17.11c17.699,0,32.049-14.348,32.049-32.049S301.471,146.806,283.772,146.806z"/>
<g>
	<circle style="fill:#273B7A;" cx="226.401" cy="178.855" r="6.203"/>
	<circle style="fill:#273B7A;" cx="283.255" cy="178.855" r="6.203"/>
</g>
<path style="fill:#FFC61B;" d="M240.035,58.854c0-9.6,7.782-17.382,17.382-17.382c9.6,0,17.382,7.782,17.382,17.382
	s-7.782,45.828-17.382,45.828C247.817,104.682,240.035,68.455,240.035,58.854z"/>
<path style="fill:#FFEDB5;" d="M224.27,75.564c-3.239-9.037,1.46-18.989,10.497-22.23c9.037-3.239,18.989,1.46,22.23,10.497
	c3.241,9.037,8.14,45.765-0.896,49.005C247.062,116.077,227.511,84.601,224.27,75.564z"/>
<path style="fill:#273B7A;" d="M231.769,214.321c0-10.124,10.554-15.294,23.573-15.294c13.019,0,23.573,5.17,23.573,15.294
	s-10.554,38.459-23.573,38.459C242.323,252.78,231.769,224.446,231.769,214.321z"/>
<path style="fill:#121149;" d="M278.914,214.321c0-10.102-10.509-15.269-23.488-15.293v53.746
	C268.405,252.65,278.914,224.423,278.914,214.321z"/>
<g>
</g>
<g>
</g>
<g>
</g>
<g>
</g>
<g>
</g>
<g>
</g>
<g>
</g>
<g>
</g>
<g>
</g>
<g>
</g>
<g>
</g>
<g>
</g>
<g>
</g>
<g>
</g>
<g>
</g>
</svg>
