<?xml version="1.0" encoding="iso-8859-1"?>
<!-- Generator: Adobe Illustrator 19.0.0, SVG Export Plug-In . SVG Version: 6.00 Build 0)  -->
<svg version="1.1" id="Layer_1" xmlns="http://www.w3.org/2000/svg" xmlns:xlink="http://www.w3.org/1999/xlink" x="0px" y="0px"
	 viewBox="0 0 512 512" style="enable-background:new 0 0 512 512;" xml:space="preserve">
<circle style="fill:#FF7F4F;" cx="256" cy="256" r="256"/>
<path style="fill:#FF5419;" d="M351.758,126.028L119.811,425.26l80.689,80.689C218.372,509.9,236.939,512,256,512
	c131.691,0,240.138-99.442,254.393-227.328L351.758,126.028z"/>
<path style="fill:#366695;" d="M119.811,425.26V222.867c0-75.214,60.975-136.189,136.189-136.189s136.189,60.975,136.189,136.189
	V425.26C392.189,425.26,260.415,531.815,119.811,425.26z"/>
<path style="fill:#273B7A;" d="M392.189,222.867c0-75.214-60.975-136.189-136.189-136.189c-0.193,0-0.381,0.014-0.574,0.014v385.896
	c79.403-0.965,136.763-47.33,136.763-47.33V222.867z"/>
<path style="fill:#FFFFFF;" d="M163.556,452.067c74.583,35.511,142.76,18.123,184.891-1.093c0-65.136,0-234.653,0-234.653H163.556
	V452.067z"/>
<path style="fill:#D8D8D8;" d="M348.444,216.321h-93.019v256.255c36.976-0.443,69.172-10.726,93.019-21.602
	C348.444,385.838,348.444,216.321,348.444,216.321z"/>
<path style="fill:#FEE187;" d="M299.458,167.333c-18.899,0-35.287,10.709-43.456,26.383c-8.17-15.674-24.559-26.383-43.456-26.383
	c-27.055,0-48.988,21.933-48.988,48.988s21.933,48.988,48.988,48.988c18.899,0,35.287-10.709,43.456-26.383
	c8.17,15.674,24.559,26.383,43.456,26.383c27.055,0,48.988-21.933,48.988-48.988C348.444,189.266,326.513,167.333,299.458,167.333z"
	/>
<path style="fill:#FFC91B;" d="M299.458,167.333c-18.899,0-35.287,10.709-43.456,26.383c-0.179-0.346-0.386-0.676-0.574-1.015
	v47.244c0.188-0.341,0.395-0.671,0.574-1.015c8.17,15.674,24.559,26.383,43.456,26.383c27.055,0,48.988-21.933,48.988-48.988
	C348.444,189.266,326.513,167.333,299.458,167.333z"/>
<polygon style="fill:#D48B07;" points="256,241.124 272.789,250.606 256,289.494 239.211,250.606 "/>
<polygon style="fill:#AF6E08;" points="272.789,250.606 256,241.124 255.426,241.449 255.426,288.165 256,289.494 "/>
<g>
	<circle style="fill:#273B7A;" cx="211.747" cy="216.316" r="9.481"/>
	<circle style="fill:#273B7A;" cx="298.667" cy="216.316" r="9.481"/>
</g>
<g>
</g>
<g>
</g>
<g>
</g>
<g>
</g>
<g>
</g>
<g>
</g>
<g>
</g>
<g>
</g>
<g>
</g>
<g>
</g>
<g>
</g>
<g>
</g>
<g>
</g>
<g>
</g>
<g>
</g>
</svg>
