<?xml version="1.0" encoding="iso-8859-1"?>
<!-- Generator: Adobe Illustrator 19.0.0, SVG Export Plug-In . SVG Version: 6.00 Build 0)  -->
<svg version="1.1" id="Layer_1" xmlns="http://www.w3.org/2000/svg" xmlns:xlink="http://www.w3.org/1999/xlink" x="0px" y="0px"
	 viewBox="0 0 512 512" style="enable-background:new 0 0 512 512;" xml:space="preserve">
<circle style="fill:#263A7A;" cx="256" cy="256" r="256"/>
<path style="fill:#121149;" d="M407.223,182.658L145.944,338.797L312.81,505.663c104.636-23.711,184.929-111.506,197.465-219.955
	L407.223,182.658z"/>
<circle style="fill:#AAF0F2;" cx="140.705" cy="219.539" r="51.574"/>
<circle style="fill:#38C6D9;" cx="371.278" cy="219.539" r="51.574"/>
<path style="fill:#FFFFFF;" d="M400.808,259.448c0,67.836-64.833,122.828-144.808,122.828s-144.808-54.993-144.808-122.828
	S176.025,155.15,256,155.15S400.808,191.612,400.808,259.448z"/>
<path style="fill:#EDECEB;" d="M256,155.15c-0.481,0-0.955,0.017-1.436,0.021v227.075c0.481,0.003,0.953,0.031,1.436,0.031
	c79.975,0,144.808-54.993,144.808-122.828S335.974,155.15,256,155.15z"/>
<g>
	<circle style="fill:#1E262B;" cx="198.973" cy="276.256" r="8.189"/>
	<circle style="fill:#1E262B;" cx="313.027" cy="276.256" r="8.189"/>
</g>
<path style="fill:#366695;" d="M246.269,330.724l-9.973-12.828c-4.93-6.344,0.593-14.674,9.73-14.674h19.944
	c9.137,0,14.662,8.33,9.73,14.674l-9.973,12.828C261.182,336.575,250.816,336.575,246.269,330.724z"/>
<path style="fill:#273B7A;" d="M265.971,303.223h-11.407v31.815c4.18,0.424,8.599-1.012,11.166-4.313l9.973-12.828
	C280.633,311.555,275.109,303.223,265.971,303.223z"/>
<g>
</g>
<g>
</g>
<g>
</g>
<g>
</g>
<g>
</g>
<g>
</g>
<g>
</g>
<g>
</g>
<g>
</g>
<g>
</g>
<g>
</g>
<g>
</g>
<g>
</g>
<g>
</g>
<g>
</g>
</svg>
