<?xml version="1.0" encoding="iso-8859-1"?>
<!-- Generator: Adobe Illustrator 19.0.0, SVG Export Plug-In . SVG Version: 6.00 Build 0)  -->
<svg version="1.1" id="Layer_1" xmlns="http://www.w3.org/2000/svg" xmlns:xlink="http://www.w3.org/1999/xlink" x="0px" y="0px"
	 viewBox="0 0 512 512" style="enable-background:new 0 0 512 512;" xml:space="preserve">
<circle style="fill:#FFC61B;" cx="256" cy="256" r="256"/>
<path style="fill:#D48B07;" d="M356.3,132.803c-0.367,23.686-13.745,44.218-26.172,62.86
	c-41.374,63.785-75.852,122.397-108.606,187.906c-6.525,10.44-21.944,16.927-38.024,22.456l104.041,104.041
	c116.445-14.307,208.686-106.798,222.622-223.356L356.3,132.803z"/>
<path style="fill:#666564;" d="M332.095,207.855c-11.619-2.032-17.203-17.022-12.472-33.478c3.27-11.38,19.163-29.925,28.66-40.288
	c3.686-4.02,8.414-3.193,9.547,1.67c2.917,12.535,7.137,34.599,3.867,45.978C356.966,198.192,343.714,209.887,332.095,207.855z"/>
<path style="fill:#898989;" d="M179.905,207.855c11.619-2.032,17.203-17.022,12.472-33.478c-3.27-11.38-19.163-29.925-28.66-40.288
	c-3.686-4.02-8.414-3.193-9.547,1.67c-2.917,12.535-7.137,34.599-3.867,45.978C155.034,198.192,168.288,209.887,179.905,207.855z"/>
<path style="fill:#C1C1C1;" d="M151.704,269.328c0,94.701,46.695,153.891,104.296,153.891s104.296-59.189,104.296-153.891
	S313.601,147.122,256,147.122S151.704,174.626,151.704,269.328z"/>
<path style="fill:#A3A3A3;" d="M256,147.123c-0.191,0-0.383,0.003-0.574,0.005v276.073c0.193,0.002,0.381,0.019,0.574,0.019
	c57.601,0,104.296-59.189,104.296-153.891S313.601,147.123,256,147.123z"/>
<g>
	<circle style="fill:#3A3A3A;" cx="194.543" cy="305.562" r="6.677"/>
	<circle style="fill:#3A3A3A;" cx="317.457" cy="305.562" r="6.677"/>
</g>
<path style="fill:#898989;" d="M336.874,380.183c0,29.482-37.047,46.483-82.747,46.483s-82.747-16.999-82.747-46.483
	s37.047-42.012,82.747-42.012S336.874,350.701,336.874,380.183z"/>
<path style="fill:#666564;" d="M336.874,380.183c0-29.201-36.35-41.763-81.448-42v88.467
	C300.525,426.33,336.874,409.386,336.874,380.183z"/>
<g>
	<path style="fill:#3A3A3A;" d="M224.699,389.379c0,5.815-4.715,10.53-10.53,10.53c-5.815,0-10.53-4.715-10.53-10.53
		s4.715-19.149,10.53-19.149C219.984,370.229,224.699,383.562,224.699,389.379z"/>
	<path style="fill:#3A3A3A;" d="M304.612,389.379c0,5.815-4.715,10.53-10.53,10.53s-10.53-4.715-10.53-10.53
		s4.715-19.149,10.53-19.149S304.612,383.562,304.612,389.379z"/>
</g>
<path style="fill:#FFFFFF;" d="M278.411,310.024c0,14.584-10.033,16.777-22.411,16.777c-12.378,0-22.411-2.193-22.411-16.777
	c0-14.584,10.033-101.143,22.411-101.143C268.378,208.88,278.411,295.44,278.411,310.024z"/>
<path style="fill:#E5E4E3;" d="M256,208.88c-0.191,0-0.383,0.021-0.574,0.062v117.851c0.193,0.002,0.381,0.007,0.574,0.007
	c12.378,0,22.411-2.193,22.411-16.777S268.378,208.88,256,208.88z"/>
<g>
</g>
<g>
</g>
<g>
</g>
<g>
</g>
<g>
</g>
<g>
</g>
<g>
</g>
<g>
</g>
<g>
</g>
<g>
</g>
<g>
</g>
<g>
</g>
<g>
</g>
<g>
</g>
<g>
</g>
</svg>
