<?xml version="1.0" encoding="iso-8859-1"?>
<!-- Generator: Adobe Illustrator 19.0.0, SVG Export Plug-In . SVG Version: 6.00 Build 0)  -->
<svg version="1.1" id="Layer_1" xmlns="http://www.w3.org/2000/svg" xmlns:xlink="http://www.w3.org/1999/xlink" x="0px" y="0px"
	 viewBox="0 0 512 512" style="enable-background:new 0 0 512 512;" xml:space="preserve">
<circle style="fill:#FF7F4F;" cx="256" cy="256" r="256"/>
<path style="fill:#FF5419;" d="M499.229,336.015c1.572-4.784,3.008-9.63,4.303-14.534c0.034-0.128,0.067-0.255,0.1-0.383
	c1.152-4.396,2.205-8.832,3.125-13.317l-0.029-0.029c1.184-5.772,2.196-11.607,2.986-17.513L266.93,47.456L256,104.124
	l59.852,62.111l-173.63,220.755L266.983,511.75c103.098-4.355,190.412-69.677,226.83-160.844l0.003,0.003
	c0.038-0.093,0.071-0.19,0.109-0.284c1.836-4.61,3.539-9.287,5.11-14.024C499.1,336.406,499.165,336.212,499.229,336.015z"/>
<path style="fill:#FFEDB5;" d="M142.222,386.989V217.902c0-62.838,50.94-113.778,113.778-113.778s113.778,50.94,113.778,113.778
	v169.088C369.778,386.989,259.687,476.01,142.222,386.989z"/>
<path style="fill:#FEE187;" d="M369.778,217.902c0-62.838-50.94-113.778-113.778-113.778c-0.193,0-0.381,0.014-0.574,0.014V426.53
	c66.386-0.772,114.352-39.541,114.352-39.541V217.902z"/>
<path style="fill:#FF5419;" d="M299.458,167.333c-18.899,0-35.287,10.709-43.456,26.383c-8.17-15.674-24.559-26.383-43.456-26.383
	c-27.055,0-48.988,21.933-48.988,48.988s21.933,48.988,48.988,48.988c18.899,0,35.287-10.709,43.456-26.383
	c8.17,15.674,24.559,26.383,43.456,26.383c27.055,0,48.988-21.933,48.988-48.988C348.444,189.266,326.513,167.333,299.458,167.333z"
	/>
<path style="fill:#E03A00;" d="M299.458,167.333c-18.899,0-35.287,10.709-43.456,26.383c-0.181-0.346-0.386-0.676-0.574-1.015
	v47.244c0.188-0.341,0.393-0.671,0.574-1.015c8.17,15.674,24.559,26.383,43.456,26.383c27.055,0,48.988-21.933,48.988-48.988
	C348.444,189.266,326.513,167.333,299.458,167.333z"/>
<path style="fill:#FF7F4F;" d="M233.482,318.848c0-7.959,5.189-36.683,11.588-36.683c6.399,0,11.588,28.724,11.588,36.683
	c0,7.959-5.189,14.412-11.588,14.412C238.671,333.26,233.482,326.808,233.482,318.848z"/>
<path style="fill:#D48B07;" d="M255.341,318.848c0-7.959,5.189-36.683,11.588-36.683c6.401,0,11.588,28.724,11.588,36.683
	c0,7.959-5.189,14.412-11.588,14.412C260.53,333.26,255.341,326.808,255.341,318.848z"/>
<polygon style="fill:#FFC61B;" points="256,264.518 272.789,273.999 256,322.988 239.211,273.999 "/>
<polygon style="fill:#DD9F05;" points="272.789,273.999 256,264.518 255.426,264.844 255.426,321.314 256,322.988 "/>
<g>
	<circle style="fill:#273B7A;" cx="211.747" cy="216.316" r="9.481"/>
	<circle style="fill:#273B7A;" cx="298.667" cy="216.316" r="9.481"/>
</g>
<path style="fill:#940030;" d="M239.276,61.456c0-9.6,7.782-17.382,17.382-17.382s17.382,7.782,17.382,17.382
	s-7.782,45.828-17.382,45.828C247.058,107.284,239.276,71.056,239.276,61.456z"/>
<path style="fill:#840030;" d="M223.511,78.165c-3.239-9.037,1.46-18.989,10.497-22.23c9.037-3.239,18.989,1.46,22.23,10.497
	c3.241,9.037,8.14,45.765-0.896,49.005C246.303,118.677,226.752,87.202,223.511,78.165z"/>
<g>
</g>
<g>
</g>
<g>
</g>
<g>
</g>
<g>
</g>
<g>
</g>
<g>
</g>
<g>
</g>
<g>
</g>
<g>
</g>
<g>
</g>
<g>
</g>
<g>
</g>
<g>
</g>
<g>
</g>
</svg>
