<?xml version="1.0" encoding="iso-8859-1"?>
<!-- Generator: Adobe Illustrator 19.0.0, SVG Export Plug-In . SVG Version: 6.00 Build 0)  -->
<svg version="1.1" id="Layer_1" xmlns="http://www.w3.org/2000/svg" xmlns:xlink="http://www.w3.org/1999/xlink" x="0px" y="0px"
	 viewBox="0 0 512 512" style="enable-background:new 0 0 512 512;" xml:space="preserve">
<circle style="fill:#C2001B;" cx="256" cy="256" r="256"/>
<path style="fill:#940030;" d="M510.073,224.534l-83.334-83.34l-232.37,301.856l68.844,68.844C401.261,508.075,512,394.973,512,256
	C512,245.346,511.338,234.846,510.073,224.534z"/>
<path style="fill:#E87E70;" d="M328.058,208.11c-13.212-20.849-7.021-48.461,13.827-61.673c14.415-9.135,51.576-7.389,73.137-5.442
	c8.366,0.755,13.745,9.244,10.855,17.13c-7.446,20.328-21.733,54.677-36.149,63.812C368.881,235.151,341.27,228.959,328.058,208.11z
	"/>
<path style="fill:#D8D8D8;" d="M365.906,234.068c-3.662,0-7.347-0.405-11.007-1.226c-12.997-2.913-24.081-10.716-31.21-21.966l0,0
	c-14.715-23.224-7.794-54.091,15.429-68.808c14.977-9.49,49.795-8.621,76.371-6.225c5.601,0.507,10.54,3.522,13.552,8.275
	c3.01,4.753,3.627,10.507,1.695,15.788c-9.175,25.05-23.255,56.906-38.238,66.401C384.415,231.427,375.246,234.068,365.906,234.068z
	 M332.426,205.341c5.649,8.916,14.434,15.1,24.736,17.41c10.299,2.31,20.883,0.469,29.801-5.182
	c9.633-6.104,22.047-28.419,34.059-61.221c0.821-2.239,0.559-4.679-0.719-6.694s-3.37-3.294-5.744-3.508
	c-34.795-3.144-60.275-1.443-69.906,4.66C326.247,162.469,320.762,186.935,332.426,205.341L332.426,205.341z"/>
<path style="fill:#FFAD9E;" d="M183.942,208.11c13.212-20.849,7.021-48.461-13.827-61.673c-14.415-9.135-51.576-7.389-73.137-5.441
	c-8.366,0.755-13.745,9.244-10.855,17.13c7.446,20.328,21.733,54.677,36.149,63.812C143.119,235.149,170.73,228.959,183.942,208.11z
	"/>
<g>
	<path style="fill:#FFFFFF;" d="M146.111,234.037c-9.125,0-18.349-2.496-26.61-7.73c-14.977-9.492-29.06-41.348-38.238-66.401
		c-1.932-5.28-1.315-11.035,1.695-15.788c3.012-4.753,7.951-7.768,13.552-8.275c26.572-2.401,61.39-3.267,76.371,6.223
		c23.224,14.717,30.144,45.585,15.429,68.81l0,0C178.828,225.84,162.638,234.037,146.111,234.037z M128.567,144.599
		c-9.209,0-19.659,0.51-31.127,1.546c-2.374,0.214-4.467,1.493-5.744,3.508c-1.277,2.015-1.539,4.455-0.719,6.692
		c12.016,32.804,24.429,55.12,34.059,61.223c18.408,11.662,42.872,6.178,54.537-12.228c11.664-18.408,6.178-42.874-12.228-54.537
		C160.887,146.711,147.303,144.599,128.567,144.599z"/>
	<path style="fill:#FFFFFF;" d="M417.089,251.151c0,16.886-19.654,33.225-25.054,52.215c-4.896,17.218,3.951,40.943-4.653,57.596
		c-8.561,16.57-32.906,22.95-44.454,36.805c-12.352,14.819-15.217,40.195-30.177,49.361c-16.313,9.995-38.379,0.055-56.753,0.055
		s-40.441,9.94-56.754-0.057c-14.958-9.166-17.822-34.54-30.174-49.357c-11.548-13.855-35.893-20.235-44.454-36.805
		c-8.604-16.653,0.241-40.379-4.653-57.597c-5.399-18.991-25.054-35.331-25.054-52.217c0-16.177,19.28-28.993,24.254-43.556
		c5.122-15.001-2.169-36.871,7.347-49.309c9.514-12.435,32.621-11.186,45.634-20.196c12.757-8.832,19.613-30.961,34.88-35.676
		c14.648-4.524,32.773,9.7,48.974,9.7c16.2,0,34.326-14.224,48.974-9.7c15.269,4.715,22.125,26.845,34.88,35.676
		c13.012,9.009,36.119,7.761,45.633,20.196c9.516,12.438,2.224,34.307,7.347,49.309
		C397.808,222.158,417.089,234.974,417.089,251.151z"/>
</g>
<path style="fill:#D8D8D8;" d="M417.089,251.151c0-16.177-19.28-28.991-24.254-43.556c-5.122-15.001,2.17-36.871-7.347-49.309
	c-9.514-12.435-32.621-11.186-45.634-20.196c-12.757-8.832-19.613-30.961-34.88-35.676c-14.648-4.525-32.775,9.7-48.974,9.7
	c-0.191,0-0.383-0.012-0.574-0.016v335.094c0.191-0.002,0.384-0.009,0.574-0.009c18.373,0,40.439,9.94,56.753-0.055
	c14.958-9.166,17.823-34.54,30.177-49.361c11.548-13.855,35.893-20.235,44.454-36.805c8.604-16.653-0.243-40.377,4.653-57.596
	C397.434,284.375,417.089,268.036,417.089,251.151z"/>
<path style="fill:#FFAD9E;" d="M355.987,232.948c0-29.787-24.148-53.936-53.936-53.936c-19.497,0-36.576,10.347-46.051,25.848
	c-9.475-15.501-26.553-25.848-46.051-25.848c-29.787,0-53.936,24.148-53.936,53.936c0,27.108,20.001,49.54,46.051,53.357v18.077
	c0,29.787,24.148,53.936,53.936,53.936s53.936-24.148,53.936-53.936v-18.077C335.986,282.486,355.987,260.056,355.987,232.948z"/>
<path style="fill:#E87E70;" d="M302.051,179.012c-19.497,0-36.576,10.347-46.051,25.848c-0.183-0.298-0.386-0.581-0.574-0.876
	v154.317c0.191,0.002,0.381,0.014,0.574,0.014c29.787,0,53.936-24.148,53.936-53.936v-18.077
	c26.048-3.817,46.051-26.248,46.051-53.357C355.987,203.161,331.838,179.012,302.051,179.012z"/>
<g>
	<circle style="fill:#121149;" cx="297.581" cy="235.072" r="7.73"/>
	<circle style="fill:#121149;" cx="214.402" cy="235.072" r="7.73"/>
</g>
<path style="fill:#773426;" d="M269.36,296.079H242.64c-2.381,0-4.31,1.929-4.31,4.31s1.929,4.31,4.31,4.31h9.051v32.323
	c0,2.381,1.929,4.31,4.31,4.31s4.31-1.929,4.31-4.31v-32.323h9.051c2.381,0,4.31-1.929,4.31-4.31S271.741,296.079,269.36,296.079z"
	/>
<path style="fill:#7C012E;" d="M269.36,296.079h-13.934v45.194c0.19,0.026,0.378,0.059,0.574,0.059c2.381,0,4.31-1.929,4.31-4.31
	v-32.323h9.051c2.381,0,4.31-1.929,4.31-4.31S271.741,296.079,269.36,296.079z"/>
<g>
</g>
<g>
</g>
<g>
</g>
<g>
</g>
<g>
</g>
<g>
</g>
<g>
</g>
<g>
</g>
<g>
</g>
<g>
</g>
<g>
</g>
<g>
</g>
<g>
</g>
<g>
</g>
<g>
</g>
</svg>
