<?xml version="1.0" encoding="iso-8859-1"?>
<!-- Generator: Adobe Illustrator 19.0.0, SVG Export Plug-In . SVG Version: 6.00 Build 0)  -->
<svg version="1.1" id="Layer_1" xmlns="http://www.w3.org/2000/svg" xmlns:xlink="http://www.w3.org/1999/xlink" x="0px" y="0px"
	 viewBox="0 0 512 512" style="enable-background:new 0 0 512 512;" xml:space="preserve">
<circle style="fill:#E59D29;" cx="256" cy="256" r="256"/>
<path style="fill:#D48B07;" d="M316.837,157.336l57.622,48.431L198.825,433.016l78.195,78.12l0,0
	C408.571,500.443,512,390.306,512,256c0-17.47-1.757-34.53-5.091-51.017L379.502,77.576l-30.213,26.267L316.837,157.336z"/>
<path style="fill:#FFEDB5;" d="M222.141,144.808c0,0-18.101-72.404-89.643-67.232c0,0,53.441,43.098,44.822,97.401L222.141,144.808z
	"/>
<path style="fill:#FEE187;" d="M289.859,144.808c0,0,18.101-72.404,89.643-67.232c0,0-53.441,43.098-44.822,97.401L289.859,144.808z
	"/>
<path style="fill:#FFFFFF;" d="M323.327,214.592c-12.345-19.48-6.559-45.278,12.921-57.623c13.469-8.535,48.19-6.904,68.336-5.086
	c7.816,0.705,12.841,8.637,10.143,16.006c-6.956,18.994-20.306,51.088-33.775,59.623
	C361.47,239.857,335.672,234.072,323.327,214.592z"/>
<path style="fill:#844E00;" d="M358.678,240.88c-16.127,0-31.922-7.995-41.175-22.595v-0.002
	c-14.358-22.661-7.604-52.779,15.053-67.139c14.488-9.18,47.506-8.399,72.647-6.127c5.877,0.531,11.059,3.694,14.219,8.678
	c3.16,4.987,3.81,11.024,1.779,16.565c-8.682,23.707-22.073,53.896-36.561,63.076C376.58,238.444,367.578,240.88,358.678,240.88z
	 M329.152,210.901c10.29,16.239,31.877,21.073,48.106,10.786c8.499-5.384,20.083-26.383,30.994-56.17
	c0.543-1.483,0.369-3.101-0.478-4.437c-0.846-1.336-2.236-2.186-3.81-2.329c-31.592-2.85-55.529-1.341-64.024,4.043
	C323.701,173.082,318.864,194.663,329.152,210.901L329.152,210.901z"/>
<path style="fill:#FFFFFF;" d="M188.673,214.59c12.345-19.48,6.559-45.278-12.921-57.623c-13.469-8.535-48.19-6.904-68.336-5.084
	c-7.816,0.707-12.841,8.637-10.143,16.006c6.956,18.994,20.306,51.088,33.775,59.623C150.53,239.856,176.33,234.07,188.673,214.59z"
	/>
<path style="fill:#A56602;" d="M153.307,240.909c-9.116,0-18.06-2.574-25.947-7.573c-14.488-9.18-27.879-39.369-36.561-63.076
	c-2.031-5.542-1.381-11.579,1.779-16.565s8.342-8.149,14.219-8.678c25.141-2.276,58.158-3.053,72.647,6.127
	c10.976,6.956,18.587,17.772,21.432,30.451c2.843,12.681,0.579,25.71-6.377,36.688v-0.002
	c-6.956,10.978-17.772,18.589-30.451,21.433C160.477,240.514,156.877,240.909,153.307,240.909z M136.778,157.336
	c-8.537,0-18.213,0.467-28.739,1.415c-1.576,0.143-2.965,0.991-3.812,2.329s-1.022,2.955-0.478,4.437
	c10.909,29.787,22.495,50.786,30.992,56.17c7.866,4.986,17.203,6.608,26.288,4.568c9.087-2.038,16.837-7.49,21.819-15.355v-0.002
	c4.986-7.866,6.608-17.201,4.57-26.286c-2.039-9.087-7.492-16.837-15.357-21.819C166.395,159.203,153.865,157.336,136.778,157.336z"
	/>
<path style="fill:#9B4308;" d="M416.73,253.497c0,15.96-19.056,31.182-24.769,49.147c-5.127,16.124,2.501,39.021-6.449,54.517
	c-8.806,15.243-32.311,20.002-44.111,32.601c-12.376,13.214-16.372,37.183-31.253,45.209c-15.741,8.49-36.535-1.927-54.148-1.927
	c-17.615,0-38.407,10.416-54.148,1.926c-14.881-8.025-18.875-31.996-31.251-45.208c-11.798-12.597-35.306-17.356-44.111-32.599
	c-8.951-15.494-1.324-38.393-6.451-54.517c-5.713-17.967-24.769-33.189-24.769-49.149c0-15.493,18.704-27.417,24.104-41.281
	c5.454-14.012-0.338-35.304,9.675-46.802c9.737-11.183,31.808-8.644,44.958-16.656c12.595-7.673,20.161-28.565,35.094-32.627
	c14.155-3.849,31.327,10.123,46.902,10.123c15.575,0,32.747-13.972,46.902-10.123c14.932,4.062,22.499,24.952,35.094,32.627
	c13.15,8.013,35.221,5.473,44.958,16.658c10.012,11.5,4.218,32.792,9.673,46.802C398.026,226.08,416.73,238.004,416.73,253.497z"/>
<path style="fill:#823B0B;" d="M416.73,253.497c0-15.493-18.704-27.417-24.102-41.281c-5.454-14.012,0.338-35.304-9.673-46.802
	c-9.737-11.185-31.808-8.645-44.958-16.658c-12.595-7.675-20.161-28.565-35.094-32.627c-14.155-3.849-31.327,10.123-46.902,10.123
	c-0.191,0-0.383-0.012-0.574-0.016v306.817c0.191-0.002,0.384-0.01,0.574-0.01c17.615,0,38.407,10.416,54.148,1.927
	c14.881-8.026,18.877-31.996,31.253-45.209c11.798-12.597,35.306-17.358,44.111-32.601c8.951-15.494,1.322-38.393,6.449-54.517
	C397.674,284.679,416.73,269.457,416.73,253.497z"/>
<path style="fill:#FFAD9E;" d="M355.987,232.948c0-29.787-24.148-53.936-53.936-53.936c-19.497,0-36.576,10.347-46.051,25.848
	c-9.475-15.501-26.553-25.848-46.051-25.848c-29.787,0-53.936,24.148-53.936,53.936c0,27.108,20.001,49.54,46.051,53.357v18.077
	c0,29.787,24.148,53.936,53.936,53.936s53.936-24.148,53.936-53.936v-18.077C335.986,282.486,355.987,260.056,355.987,232.948z"/>
<path style="fill:#E58477;" d="M302.051,179.012c-19.497,0-36.576,10.347-46.051,25.848c-0.183-0.298-0.386-0.581-0.574-0.876
	v154.317c0.191,0.002,0.381,0.014,0.574,0.014c29.787,0,53.936-24.148,53.936-53.936v-18.077
	c26.048-3.817,46.051-26.248,46.051-53.357C355.987,203.161,331.838,179.012,302.051,179.012z"/>
<g>
	<circle style="fill:#121149;" cx="297.581" cy="235.072" r="7.73"/>
	<circle style="fill:#121149;" cx="214.402" cy="235.072" r="7.73"/>
</g>
<path style="fill:#773426;" d="M269.36,296.079h-13.934H242.64c-2.381,0-4.31,1.929-4.31,4.31s1.929,4.31,4.31,4.31h9.051v32.323
	c0,2.184,1.629,3.968,3.736,4.251c0.19,0.026,0.378,0.059,0.574,0.059c2.381,0,4.31-1.929,4.31-4.31v-32.323h9.051
	c2.381,0,4.31-1.929,4.31-4.31S271.741,296.079,269.36,296.079z"/>
<path style="fill:#66271D;" d="M269.36,296.079h-13.934v45.194c0.19,0.026,0.378,0.059,0.574,0.059c2.381,0,4.31-1.929,4.31-4.31
	v-32.323h9.051c2.381,0,4.31-1.929,4.31-4.31S271.741,296.079,269.36,296.079z"/>
<g>
</g>
<g>
</g>
<g>
</g>
<g>
</g>
<g>
</g>
<g>
</g>
<g>
</g>
<g>
</g>
<g>
</g>
<g>
</g>
<g>
</g>
<g>
</g>
<g>
</g>
<g>
</g>
<g>
</g>
</svg>
