<?xml version="1.0" encoding="iso-8859-1"?>
<!-- Generator: Adobe Illustrator 19.0.0, SVG Export Plug-In . SVG Version: 6.00 Build 0)  -->
<svg version="1.1" id="Layer_1" xmlns="http://www.w3.org/2000/svg" xmlns:xlink="http://www.w3.org/1999/xlink" x="0px" y="0px"
	 viewBox="0 0 512 512" style="enable-background:new 0 0 512 512;" xml:space="preserve">
<circle style="fill:#FFEDB5;" cx="256" cy="256" r="256"/>
<path style="fill:#FEE187;" d="M386.531,159.732L164.435,379.988l129.245,129.245C408.2,492.339,498.023,399.617,510.502,283.715
	L386.531,159.732z"/>
<path style="fill:#774639;" d="M85.333,252.325c0-79.374,76.41-143.719,170.667-143.719s170.667,64.345,170.667,143.719
	S256,460.569,256,460.569S85.333,331.7,85.333,252.325z"/>
<path style="fill:#680000;" d="M256,108.606c-0.191,0-0.383,0.005-0.574,0.005v351.522c0.369,0.281,0.574,0.436,0.574,0.436
	s170.667-128.871,170.667-208.244S350.256,108.606,256,108.606z"/>
<path style="fill:#FFC192;" d="M116.246,276.908c0-46.818,37.733-93.743,139.754-93.743c103.884,0,139.754,46.925,139.754,93.743
	S325.465,342.84,256,342.84S116.246,323.727,116.246,276.908z"/>
<path style="fill:#EFA878;" d="M256,183.165c-0.195,0-0.379,0.009-0.574,0.009V342.84c0.191,0,0.383,0.002,0.574,0.002
	c69.466,0,139.754-19.115,139.754-65.934C395.754,230.09,359.884,183.165,256,183.165z"/>
<path style="fill:#FDE085;" d="M347.848,289.732c-25.483-12.193-62.916-35.575-53.876-52.421
	c9.042-16.846,61.135-20.777,86.618-8.583c25.483,12.193,38.81,35.733,29.77,52.579
	C401.318,298.153,373.331,301.925,347.848,289.732z"/>
<path style="fill:#FFEDB5;" d="M164.152,289.732c25.483-12.193,62.916-35.575,53.876-52.421
	c-9.042-16.846-61.135-20.777-86.618-8.583c-25.483,12.193-38.81,35.733-29.77,52.579
	C110.682,298.153,138.669,301.925,164.152,289.732z"/>
<g>
	<circle style="fill:#121149;" cx="182.458" cy="259.258" r="7.73"/>
	<circle style="fill:#121149;" cx="329.542" cy="259.258" r="7.73"/>
</g>
<path style="fill:#773426;" d="M276.687,289.921h-9.554l6.696-8.614c4.463-5.741-0.536-13.279-8.806-13.279h-18.049
	c-8.27,0-13.267,7.539-8.806,13.279l6.696,8.614h-9.55c-2.689,0-4.867,2.179-4.867,4.867s2.179,4.867,4.867,4.867h41.374
	c2.689,0,4.867-2.179,4.867-4.867S279.376,289.921,276.687,289.921z"/>
<path style="fill:#680000;" d="M276.687,289.921h-9.554l6.696-8.614c4.463-5.741-0.536-13.279-8.806-13.279h-9.599v31.627h21.263
	c2.689,0,4.867-2.179,4.867-4.867S279.376,289.921,276.687,289.921z"/>
<g>
</g>
<g>
</g>
<g>
</g>
<g>
</g>
<g>
</g>
<g>
</g>
<g>
</g>
<g>
</g>
<g>
</g>
<g>
</g>
<g>
</g>
<g>
</g>
<g>
</g>
<g>
</g>
<g>
</g>
</svg>
