<?xml version="1.0" encoding="iso-8859-1"?>
<!-- Generator: Adobe Illustrator 19.0.0, SVG Export Plug-In . SVG Version: 6.00 Build 0)  -->
<svg version="1.1" id="Layer_1" xmlns="http://www.w3.org/2000/svg" xmlns:xlink="http://www.w3.org/1999/xlink" x="0px" y="0px"
	 viewBox="0 0 512 512" style="enable-background:new 0 0 512 512;" xml:space="preserve">
<circle style="fill:#FFEDB5;" cx="256" cy="256" r="256"/>
<path style="fill:#FEE187;" d="M275.422,37.205c-7.89,9.518-16.365,20.385-19.422,32.613
	c-12.067,68.956,5.172,137.912-44.822,196.525c-13.791,13.791-15.515,32.754-18.963,51.717c-1.724,6.896-6.896,12.067-12.067,15.515
	c-24.135,15.515-43.098,31.03-62.061,51.717c-5.379,6.916,0.253,20.359,1.103,28.034l95.68,95.368
	C228.262,510.859,241.997,512,256,512c135.604,0,246.565-105.441,255.412-238.804L275.422,37.205z"/>
<g>
	<path style="fill:#273B7A;" d="M133.139,336.739c-9.745,10.628-27.936,36.693-15.756,73.742c1.507,4.584,7.171,6.192,10.811,3.024
		l40.815-35.526c2.757-2.4,3.088-6.565,0.741-9.369l-26.493-31.663C140.641,333.822,135.89,333.738,133.139,336.739z"/>
	<path style="fill:#273B7A;" d="M378.861,336.739c9.745,10.628,27.936,36.693,15.757,73.742c-1.507,4.584-7.171,6.192-10.811,3.024
		l-40.815-35.526c-2.757-2.4-3.088-6.565-0.741-9.369l26.493-31.663C371.359,333.822,376.11,333.738,378.861,336.739z"/>
</g>
<path style="fill:#366695;" d="M391.615,281.859c0,71.089-60.716,128.719-135.615,128.719s-135.615-57.63-135.615-128.719
	S181.101,126.133,256,126.133S391.615,210.77,391.615,281.859z"/>
<path style="fill:#273B7A;" d="M256,126.133c-0.481,0-0.957,0.019-1.436,0.026v284.384c0.481,0.005,0.955,0.034,1.436,0.034
	c74.897,0,135.614-57.628,135.614-128.719S330.897,126.133,256,126.133z"/>
<path style="fill:#38C6D9;" d="M256,357.71c-57.244,0-107.365-25.579-135.008-63.852c6.38,65.46,64.374,116.719,135.008,116.719
	s128.628-51.259,135.008-116.719C363.365,332.131,313.244,357.71,256,357.71z"/>
<path style="fill:#366695;" d="M256,357.71c-0.481,0-0.957-0.017-1.436-0.021v52.853c0.481,0.005,0.955,0.033,1.436,0.033
	c70.632,0,128.628-51.259,135.008-116.719C363.365,332.131,313.244,357.71,256,357.71z"/>
<g>
	<circle style="fill:#71E2EF;" cx="176.924" cy="295.598" r="6.58"/>
	<circle style="fill:#71E2EF;" cx="335.076" cy="295.598" r="6.58"/>
</g>
<ellipse style="fill:#121149;" cx="256" cy="160.323" rx="14.653" ry="6.034"/>
<path style="fill:#71E2EF;" d="M292.776,92.47c0-12.219-9.906-22.123-22.123-22.123c-1.131,0-2.232,0.109-3.317,0.272V58.739
	c6.632-0.338,11.91-5.806,11.91-12.522c0-6.934-5.622-12.555-12.557-12.555c-6.811,0-12.343,5.427-12.54,12.19h-0.019v2.612
	c-2.403-4.177-6.903-6.992-12.067-6.992c-7.696,0-13.934,6.239-13.934,13.934c0,7.454,5.856,13.522,13.217,13.898v2.37
	c-2.338-0.841-4.842-1.329-7.47-1.329c-12.219,0-22.123,9.906-22.123,22.123s9.906,22.123,22.123,22.123
	c4.155,0,8.028-1.167,11.348-3.158v52.967c2.677,1.198,6.508,1.955,10.774,1.955c4.267,0,8.095-0.755,10.774-1.955v-36.417
	c0.565,0.071,1.139,0.117,1.724,0.117c7.696,0,13.934-6.239,13.934-13.934c0-0.965-0.098-1.907-0.284-2.817
	C288.513,107.463,292.776,100.473,292.776,92.47z"/>
<path style="fill:#38C6D9;" d="M292.776,92.47c0-12.219-9.906-22.123-22.123-22.123c-1.131,0-2.232,0.109-3.317,0.272V58.739
	c6.632-0.338,11.91-5.806,11.91-12.522c0-6.934-5.622-12.555-12.557-12.555c-5.835,0-10.719,3.986-12.126,9.378v123.285
	c0.472,0.019,0.95,0.031,1.436,0.031c4.267,0,8.095-0.755,10.774-1.955v-36.419c0.565,0.071,1.139,0.117,1.724,0.117
	c7.696,0,13.934-6.239,13.934-13.934c0-0.965-0.098-1.907-0.284-2.817C288.513,107.463,292.776,100.473,292.776,92.47z"/>
<g>
</g>
<g>
</g>
<g>
</g>
<g>
</g>
<g>
</g>
<g>
</g>
<g>
</g>
<g>
</g>
<g>
</g>
<g>
</g>
<g>
</g>
<g>
</g>
<g>
</g>
<g>
</g>
<g>
</g>
</svg>
