<?xml version="1.0" encoding="UTF-8" standalone="no"?>
<!-- Created with Inkscape (http://www.inkscape.org/) -->

<svg
   xmlns:dc="http://purl.org/dc/elements/1.1/"
   xmlns:cc="http://creativecommons.org/ns#"
   xmlns:rdf="http://www.w3.org/1999/02/22-rdf-syntax-ns#"
   xmlns:svg="http://www.w3.org/2000/svg"
   xmlns="http://www.w3.org/2000/svg"
   xmlns:xlink="http://www.w3.org/1999/xlink"
   xmlns:sodipodi="http://sodipodi.sourceforge.net/DTD/sodipodi-0.dtd"
   xmlns:inkscape="http://www.inkscape.org/namespaces/inkscape"
   id="svg2"
   sodipodi:docname="1325335431.svg"
   viewBox="0 0 523.76 509.41"
   version="1.1"
   inkscape:version="0.92.3 (unknown)">
  <title
     id="title3525">castle</title>
  <defs
     id="defs4">
    <linearGradient
       id="linearGradient5070">
      <stop
         id="stop5072"
         style="stop-color:#e7e5e4"
         offset="0" />
      <stop
         id="stop5074"
         style="stop-color:#6e6666"
         offset="1" />
    </linearGradient>
    <linearGradient
       id="linearGradient5026"
       inkscape:collect="always">
      <stop
         id="stop5028"
         style="stop-color:#c83737"
         offset="0" />
      <stop
         id="stop5030"
         style="stop-color:#501616"
         offset="1" />
    </linearGradient>
    <linearGradient
       id="linearGradient4978"
       inkscape:collect="always">
      <stop
         id="stop4980"
         style="stop-color:#917c6f"
         offset="0" />
      <stop
         id="stop4982"
         style="stop-color:#483e37"
         offset="1" />
    </linearGradient>
    <linearGradient
       id="linearGradient4954"
       inkscape:collect="always">
      <stop
         id="stop4956"
         style="stop-color:#e3dedb"
         offset="0" />
      <stop
         id="stop4958"
         style="stop-color:#917c6f"
         offset="1" />
    </linearGradient>
    <linearGradient
       id="linearGradient4327"
       y2="658"
       xlink:href="#linearGradient5070"
       gradientUnits="userSpaceOnUse"
       x2="467.2"
       y1="635.48"
       x1="231.92"
       inkscape:collect="always" />
    <linearGradient
       id="linearGradient4331"
       y2="725.41"
       xlink:href="#linearGradient5070"
       gradientUnits="userSpaceOnUse"
       x2="376.16"
       y1="708.64"
       x1="312.43"
       inkscape:collect="always" />
    <linearGradient
       id="linearGradient4335"
       y2="707.59"
       xlink:href="#linearGradient5070"
       gradientUnits="userSpaceOnUse"
       x2="400.59"
       y1="678.84"
       x1="339.74"
       inkscape:collect="always" />
    <linearGradient
       id="linearGradient4341"
       y2="656.8"
       xlink:href="#linearGradient5070"
       gradientUnits="userSpaceOnUse"
       x2="439.41"
       y1="652.97"
       x1="376.64"
       inkscape:collect="always" />
    <linearGradient
       id="linearGradient4345"
       y2="667.13"
       xlink:href="#linearGradient5070"
       gradientUnits="userSpaceOnUse"
       x2="426.47"
       y1="673.84"
       x1="361.24"
       inkscape:collect="always" />
    <linearGradient
       id="linearGradient4713"
       y2="402.97"
       gradientUnits="userSpaceOnUse"
       x2="340.14"
       y1="599.18"
       x1="318.37"
       inkscape:collect="always">
      <stop
         id="stop4709"
         style="stop-color:#d3eff6"
         offset="0" />
      <stop
         id="stop4711"
         style="stop-color:#89b8c5"
         offset="1" />
    </linearGradient>
    <linearGradient
       id="linearGradient4960"
       y2="436.37"
       xlink:href="#linearGradient4954"
       gradientUnits="userSpaceOnUse"
       x2="362.61"
       y1="436.37"
       x1="350.35"
       inkscape:collect="always" />
    <linearGradient
       id="linearGradient4962"
       y2="424.98"
       xlink:href="#linearGradient4954"
       gradientUnits="userSpaceOnUse"
       x2="412.92"
       y1="424.98"
       x1="393.12"
       inkscape:collect="always" />
    <linearGradient
       id="linearGradient4964"
       y2="558.71"
       xlink:href="#linearGradient4954"
       gradientUnits="userSpaceOnUse"
       x2="301.4"
       y1="558.71"
       x1="271.82"
       inkscape:collect="always" />
    <linearGradient
       id="linearGradient4966"
       y2="558"
       xlink:href="#linearGradient4954"
       gradientUnits="userSpaceOnUse"
       x2="386.45"
       y1="557.66"
       x1="356.73"
       inkscape:collect="always" />
    <linearGradient
       id="linearGradient4974"
       y2="506.84"
       xlink:href="#linearGradient4954"
       gradientUnits="userSpaceOnUse"
       x2="304.61"
       y1="508.88"
       x1="278.18"
       inkscape:collect="always" />
    <linearGradient
       id="linearGradient4976"
       y2="510.67"
       xlink:href="#linearGradient4954"
       gradientUnits="userSpaceOnUse"
       x2="389.35"
       y1="511.01"
       x1="356.18"
       inkscape:collect="always" />
    <linearGradient
       id="linearGradient4984"
       y2="496.34"
       xlink:href="#linearGradient4978"
       gradientUnits="userSpaceOnUse"
       x2="295.46"
       y1="497.02"
       x1="269.37"
       inkscape:collect="always" />
    <linearGradient
       id="linearGradient4986"
       y2="375.38"
       xlink:href="#linearGradient4954"
       gradientUnits="userSpaceOnUse"
       x2="359.39"
       y1="375.38"
       x1="342.86"
       inkscape:collect="always" />
    <linearGradient
       id="linearGradient4988"
       y2="359.03"
       xlink:href="#linearGradient4954"
       gradientUnits="userSpaceOnUse"
       x2="412.7"
       y1="357.67"
       x1="386.27"
       inkscape:collect="always" />
    <linearGradient
       id="linearGradient4998"
       y2="368.43"
       xlink:href="#linearGradient4954"
       gradientUnits="userSpaceOnUse"
       x2="416.13"
       y1="368.43"
       x1="391.43"
       inkscape:collect="always" />
    <linearGradient
       id="linearGradient5000"
       y2="521.9"
       xlink:href="#linearGradient4978"
       gradientUnits="userSpaceOnUse"
       x2="305"
       y1="522.24"
       x1="271.28"
       inkscape:collect="always" />
    <linearGradient
       id="linearGradient5002"
       y2="374.02"
       xlink:href="#linearGradient4978"
       gradientUnits="userSpaceOnUse"
       x2="416.13"
       y1="374.36"
       x1="397.19"
       inkscape:collect="always" />
    <linearGradient
       id="linearGradient5004"
       y2="519.17"
       xlink:href="#linearGradient4978"
       gradientUnits="userSpaceOnUse"
       x2="389.35"
       y1="520.36"
       x1="356.82"
       inkscape:collect="always" />
    <linearGradient
       id="linearGradient5008"
       y2="479.36"
       xlink:href="#linearGradient4954"
       gradientUnits="userSpaceOnUse"
       x2="498.18"
       y1="478.6"
       x1="459.06"
       inkscape:collect="always" />
    <linearGradient
       id="linearGradient5010"
       y2="443.73"
       xlink:href="#linearGradient4954"
       gradientUnits="userSpaceOnUse"
       x2="461.1"
       y1="443.39"
       x1="448.87"
       inkscape:collect="always" />
    <linearGradient
       id="linearGradient5012"
       y2="418.44"
       xlink:href="#linearGradient4954"
       gradientUnits="userSpaceOnUse"
       x2="463.29"
       y1="418.1"
       x1="446.32"
       inkscape:collect="always" />
    <linearGradient
       id="linearGradient5014"
       y2="423.36"
       xlink:href="#linearGradient4978"
       gradientUnits="userSpaceOnUse"
       x2="463.29"
       y1="423.36"
       x1="451.06"
       inkscape:collect="always" />
    <linearGradient
       id="linearGradient5032"
       y2="483.46"
       xlink:href="#linearGradient5026"
       gradientUnits="userSpaceOnUse"
       x2="297.83"
       y1="483.13"
       x1="269.03"
       inkscape:collect="always" />
    <linearGradient
       id="linearGradient5034"
       y2="353.33"
       xlink:href="#linearGradient5026"
       gradientUnits="userSpaceOnUse"
       x2="361.41"
       y1="353.33"
       x1="343.15"
       inkscape:collect="always" />
    <linearGradient
       id="linearGradient5036"
       y2="386.1"
       xlink:href="#linearGradient5026"
       gradientUnits="userSpaceOnUse"
       x2="368.99"
       y1="386.1"
       x1="336.9"
       inkscape:collect="always" />
    <linearGradient
       id="linearGradient5038"
       y2="326.52"
       xlink:href="#linearGradient5026"
       gradientUnits="userSpaceOnUse"
       x2="420.02"
       y1="326.52"
       x1="383.19"
       inkscape:collect="always" />
    <linearGradient
       id="linearGradient5040"
       y2="397.04"
       xlink:href="#linearGradient5026"
       gradientUnits="userSpaceOnUse"
       x2="464.94"
       y1="397.04"
       x1="440.61"
       inkscape:collect="always" />
    <linearGradient
       id="linearGradient5062"
       y2="494.35"
       xlink:href="#linearGradient4978"
       gradientUnits="userSpaceOnUse"
       x2="508.25"
       y1="494.35"
       x1="481.22"
       inkscape:collect="always" />
    <linearGradient
       id="linearGradient5064"
       y2="522.6"
       xlink:href="#linearGradient4954"
       gradientUnits="userSpaceOnUse"
       x2="495.71"
       y1="521.24"
       x1="470.3"
       inkscape:collect="always" />
    <linearGradient
       id="linearGradient5066"
       y2="555.81"
       xlink:href="#linearGradient4954"
       gradientUnits="userSpaceOnUse"
       x2="374"
       y1="555.81"
       x1="332.37"
       inkscape:collect="always" />
    <linearGradient
       id="linearGradient5068"
       y2="630.83"
       xlink:href="#linearGradient5070"
       gradientUnits="userSpaceOnUse"
       x2="456.18"
       y1="638.49"
       x1="194.06"
       inkscape:collect="always" />
    <linearGradient
       id="linearGradient3230"
       y2="501.89"
       xlink:href="#linearGradient4954"
       gradientUnits="userSpaceOnUse"
       x2="343.59"
       y1="500.1"
       x1="383"
       inkscape:collect="always" />
    <linearGradient
       id="linearGradient3519"
       y2="593.87"
       xlink:href="#linearGradient5070"
       gradientUnits="userSpaceOnUse"
       x2="695.12"
       y1="343.81"
       x1="221.53"
       inkscape:collect="always" />
    <linearGradient
       id="linearGradient3521"
       y2="422.99"
       xlink:href="#linearGradient5070"
       gradientUnits="userSpaceOnUse"
       x2="331.78"
       y1="270.52"
       x1="322.66"
       inkscape:collect="always" />
  </defs>
  <sodipodi:namedview
     id="base"
     fit-margin-left="0"
     inkscape:zoom="0.52172463"
     borderopacity="1.0"
     inkscape:current-layer="layer2"
     inkscape:cx="-571.03626"
     inkscape:cy="300.40274"
     inkscape:object-paths="false"
     inkscape:window-maximized="1"
     inkscape:snap-bbox="false"
     showgrid="false"
     fit-margin-right="0"
     inkscape:snap-nodes="false"
     inkscape:snap-global="true"
     inkscape:document-units="px"
     bordercolor="#666666"
     inkscape:window-x="0"
     inkscape:window-y="0"
     inkscape:object-nodes="true"
     fit-margin-bottom="0"
     inkscape:window-width="1920"
     inkscape:pageopacity="0.0"
     inkscape:pageshadow="2"
     pagecolor="#ffffff"
     inkscape:window-height="1044"
     fit-margin-top="0" />
  <g
     id="layer3"
     inkscape:label="bg"
     transform="translate(-100.58 -275.2)"
     inkscape:groupmode="layer"
     sodipodi:insensitive="true">
    <path
       id="path3845"
       sodipodi:nodetypes="cssssssssssscc"
       style="color:#000000;fill:url(#linearGradient4713)"
       inkscape:connector-curvature="0"
       d="m202.98 346.4c-14.408 8.6212-29.539 3.0126-53.221 13.389-32.606 14.287-42.005 74.334-46.081 87.419-12.876 41.337 18.297 172.8 21.685 180.94 3.3883 8.132 12.198 24.396 16.942 34.561 4.7436 10.165 23.041 27.107 68.444 30.495 45.403 3.3883 283.94-14.909 294.78-8.132 10.843 6.7766 48.114 4.7436 57.601-2.033 9.4873-6.7766 29.164-43.827 31.85-51.502 4.7436-13.553 27.107-19.652 29.14-67.089 2.033-47.436-10.843-52.858-10.843-58.279 0-5.4213 6.7766-13.553 10.165-38.627 3.3883-25.074-31.85-67.766-38.627-80.642z" />
    <path
       id="path4715"
       sodipodi:nodetypes="cssccccccccccccccsccccc"
       style="color:#000000;fill:url(#linearGradient3521)"
       inkscape:connector-curvature="0"
       d="m196.46 350.84s-17.25 18.209-18.688 25.397c-1.4375 7.1877 8.6252 33.063 14.375 36.418 5.7502 3.3543 16.053 8.6252 23.959 4.7918-1.0941 1.2308 7.5324 12.72 14.375 9.5836 0.35079 7.6161 30.18 4.7926 34.98 4.3126 15.653 4.3126 9.4525 21.738 46.96 12.938 8.9655 0.23353 20.269-0.10108 28.751-10.542 0.31945 6.1495 22.264 12.12 31.147-0.95836-2.4196 6.6965 13.332 11.294 19.646 6.2293 6.5462 8.3866 35.208 12.553 68.523 12.938 12.219 6.3092 45.1 13.477 57.502-9.1044 4.7949 1.4366 21.02-2.7423 13.417-11.021 19.807 3.2123 12.064-5.2754 14.375-10.063-0.032 5.181 10.34 6.442 13.896 0.95836-1.1141 2.8558 5.7473 17.826 20.605 6.7085 19.03 9.3544 22.126 1.8378 20.605-5.271 0 0 12.09-3.6839 13.177-8.8648 3.7105-17.672-28.99-45.762-28.99-45.762l-55.106-26.834-67.085-2.3959-195.51 2.8751z" />
    <path
       id="path4717"
       sodipodi:nodetypes="sscscacasccccccscssscsccccsccsccscccsascsscscscscaczsssasss"
       style="color:#000000;fill:url(#linearGradient3519)"
       inkscape:connector-curvature="0"
       d="m183.05 348.21c-12.12 10.089-6.2293 35.699-5.7502 39.532 0.47918 3.8334 10.063 16.771 10.063 16.771s9.1044 6.2293 12.459 5.7502c3.3543-0.47918 9.1044-4.3126 9.1044-4.3126s-8.8711-7.9803-10.542-13.417c-2.0225-6.5812 1.4375-20.605 1.4375-20.605s-0.83547 12.461 1.9167 17.73c2.254 4.3152 5.3279 6.8799 11.021 9.5836 7.3404 3.486 11.055-4.1757 11.021-4.3126-5.6604-6.3737-4.1296-19.698 0.95836-22.042-0.0365-9.4571 7.3602-14.036 18.185-15.59-1.93 6.2767 0.29367 8.447 3.8575 9.8402-7.078 6.5823-4.4007 11.074-2.8751 15.813-7.3693 12.959 4.5888 27.675 12.27 24.438 4.5996 4.9061 18.23 2.7582 16.481-3.3543-1.2367-4.3199 1.7693-11.459 6.8007-13.616-1.385-1.6158 10.456-2.1106 16.2 0.19848 3.1438 1.2638 15.813-1.4375 18.209-4.3126 2.3959-2.8751-4.0838-5.6138-10.542-7.6669-5.5427-1.7621-8.5066-6.7718-5.063-10.525-4.876-4.0044-2.8296-9.1542-1.3308-10.898 3.5346-4.1131 13.666-2.961 13.581-2.5362 0 0 0.29067 3.1558 3.6449 6.51 6.2743 5.1317 9.574 0.20868 12.647-4.5933 9.55 2.3564 24.658-2.9833 26.834 9.5836-9.344 4.7918-0.95836 13.417 5.271 14.855 6.2293 1.4375 13.417-10.542 13.417-10.542l3.3543-7.1877s0.97761 4.7353 5.271 6.2293c5.5276 1.9235 15.36-5.9313 13.417-6.7085 6.0696-2.8235 12.139-4.3249 18.209-1.4375 0 0 3.3543 2.8751 5.271 3.3543 1.9167 0.47918 9.1044-7.6669 9.1044-7.6669l11.5 4.7918c14.909-8.2738 15.521-6.2224 19.646-6.7085 0 0 10.542 6.7085 15.813 2.8751s3.8264-7.5726 7.1055-10.029c3.4495-2.5837 9.806-8.8821 12.226-4.2063 1.7077 3.2993 3.6808 6.2004 8.94 4.1723 0 0 11.021-6.2293 15.334-4.7918 4.3126 1.4375 23.001 11.021 24.438 13.417 1.4375 2.3959 9.5836 12.938 9.5836 12.938s25.397 5.7502 29.23 7.6669c3.8334 1.9167 21.084 10.063 21.084 10.063s2.8751-17.73-6.2293-24.438c-9.1044-6.7085-43.605-12.938-43.605-12.938s-23.48-14.375-29.709-15.334c-6.2293-0.95836-13.896 0.47918-13.896 0.47918s-11.264-7.4393-17.73-8.1461c-12.021-1.314-35.459 7.6669-35.459 7.6669s-10.031-4.8819-16.771-5.271c-6.7406-0.38906-18.688 5.7502-22.521 4.3126-3.8334-1.4375-42.168-14.855-54.147-12.938-11.98 1.9167-51.751-14.855-57.022-14.855s-22.98 0.0284-34.261 1.9167c-13.016 2.1786-26.456 4.5613-38.095 10.782-8.1441 4.3524-16.771 15.573-21.084 17.969-4.3126 2.3959-15.162 0.82731-28.272 11.74z" />
  </g>
  <g
     id="layer2"
     inkscape:label="Réteg"
     inkscape:groupmode="layer"
     transform="translate(-100.58 -275.2)">
    <rect
       id="rect3855"
       style="color:#000000;fill:#784421"
       height="23.817"
       width="1.7523"
       y="420.34"
       x="282.39" />
    <path
       id="path3857"
       sodipodi:nodetypes="ccsscacscc"
       style="color:#000000;fill:#ffeeaa"
       inkscape:connector-curvature="0"
       d="m282.45 420.8-10.063-2.3959s0.82623-3.0314-0.83856-3.2345c-3.2653-0.3982-8.3563 1.6442-12.339 4.672-4.6757 3.5548-17.25 3.5938-17.25 3.5938s11.482 1.3058 17.25 1.4375c3.196 0.073 8.9846-2.7553 9.5836-0.35939 0 0-0.71877 1.0782-0.47918 2.0365 0.23959 0.95836 14.375 3.3543 14.375 3.3543z" />
    <path
       id="path3859"
       sodipodi:nodetypes="ccccccsc"
       style="color:#000000;fill:#3771c8"
       inkscape:connector-curvature="0"
       d="m256.36 423.15c8.979-4.4048 8.8096-6.7766 15.586-6.4378 1.3553 0 0.16942 3.0495 0.16942 3.0495l9.4873 2.3718 0.33884 6.2684c-4.2072-0.95183-8.9226-0.68725-13.13-3.6424 0 0 1.9483-2.4565-0.42354-2.4565s-6.4378 0.16941-12.029 0.84708z" />
    <use
       id="use4663"
       xlink:href="#rect3855"
       transform="translate(69.96 -104.94)"
       height="1052.3622"
       width="744.09448"
       y="0"
       x="0" />
    <use
       id="use4665"
       xlink:href="#path3857"
       transform="translate(69.96 -104.94)"
       height="1052.3622"
       width="744.09448"
       y="0"
       x="0" />
    <use
       id="use4667"
       xlink:href="#path3859"
       transform="translate(69.96 -104.94)"
       height="1052.3622"
       width="744.09448"
       y="0"
       x="0" />
    <use
       id="use4669"
       xlink:href="#use4665"
       height="1052.3622"
       width="744.09448"
       y="0"
       x="0" />
    <use
       id="use4671"
       xlink:href="#use4667"
       height="1052.3622"
       width="744.09448"
       y="0"
       x="0" />
    <use
       id="use4673"
       xlink:href="#use4663"
       transform="translate(48.637 -34.98)"
       height="1052.3622"
       width="744.09448"
       y="0"
       x="0" />
    <use
       id="use4675"
       xlink:href="#use4665"
       transform="translate(48.637 -34.98)"
       height="1052.3622"
       width="744.09448"
       y="0"
       x="0" />
    <use
       id="use4677"
       xlink:href="#use4667"
       transform="translate(48.637 -34.98)"
       height="1052.3622"
       width="744.09448"
       y="0"
       x="0" />
    <use
       id="use4679"
       xlink:href="#use4669"
       transform="translate(48.637 -34.98)"
       height="1052.3622"
       width="744.09448"
       y="0"
       x="0" />
    <use
       id="use4681"
       xlink:href="#use4671"
       transform="translate(48.637 -34.98)"
       height="1052.3622"
       width="744.09448"
       y="0"
       x="0" />
    <use
       id="use4683"
       xlink:href="#use4663"
       transform="translate(100.39 43.605)"
       height="1052.3622"
       width="744.09448"
       y="0"
       x="0" />
    <use
       id="use4685"
       xlink:href="#use4665"
       transform="translate(100.39 43.605)"
       height="1052.3622"
       width="744.09448"
       y="0"
       x="0" />
    <use
       id="use4687"
       xlink:href="#use4667"
       transform="translate(100.39 43.605)"
       height="1052.3622"
       width="744.09448"
       y="0"
       x="0" />
    <use
       id="use4689"
       xlink:href="#use4669"
       transform="translate(100.39 43.605)"
       height="1052.3622"
       width="744.09448"
       y="0"
       x="0" />
    <use
       id="use4691"
       xlink:href="#use4671"
       transform="translate(100.39 43.605)"
       height="1052.3622"
       width="744.09448"
       y="0"
       x="0" />
    <path
       id="path3517"
       style="color:#000000;fill:#000000"
       sodipodi:type="inkscape:offset"
       d="m400.03 298.19a2.5807 2.5807 0 0 0 -2.4062 1.9375l-9.0938 34.469-7.6875 16.188a2.5807 2.5807 0 0 0 3.0938 3.5625c-0.3724 0.11297 0.58718-0.0762 1.6562-0.15625 0.37759-0.0283 1.0056-0.0354 1.4688-0.0625v7.8438c-0.64432 0.0399-1.2772 0.07-1.9375 0.125a2.5807 2.5807 0 0 0 -2.375 2.5625v7.5312a2.5807 2.5807 0 0 0 1.25 2.2188l2.4688 2.625v19.781l-16.219-0.21875a2.5807 2.5807 0 0 0 1.0312 -3.4688l-9-16.938a2.5807 2.5807 0 0 0 -0.27 -0.41v-2.1875a2.5807 2.5807 0 0 0 1.9375 -3.0312l-7.44-35.53a2.5807 2.5807 0 0 0 -2.78 -2.03l-1.625 0.15625a2.5807 2.5807 0 0 0 -2.25 1.9062l-9.1875 35.375a2.5807 2.5807 0 0 0 2.3438 3.25v2.0938a2.5807 2.5807 0 0 0 -0.34375 0.53125l-8.0938 17.281a2.5807 2.5807 0 0 0 2.3125 3.6875c1.4945 0.0233 2.9382 0.0211 4.4062 0.0312v73.719l-8.0625 1.375a2.5807 2.5807 0 0 0 -2.0312 1.7812l-2.3125 7.5625-13.406 1.375a2.5807 2.5807 0 0 0 -2.1875 1.8125l-1.4062 4.5938-12.469-16.312-11.375-33.375a2.5807 2.5807 0 0 0 -2.3125 -1.7188l-4.7812-0.25a2.5807 2.5807 0 0 0 -2.5312 1.625l-13.5 34.375-14.062 17.625a2.5807 2.5807 0 0 0 0.4375 3.625c0.93685 0.73562 1.4598 0.73432 2.125 0.875 0.66519 0.14068 1.4071 0.22194 2.2812 0.3125 0.49135 0.0509 1.2782 0.0831 1.8438 0.125a2.5807 2.5807 0 0 0 -1.8438 2.5312l0.46875 18.219a2.5807 2.5807 0 0 0 0.46875 1.4062l6.6875 9.5625-1.75 55.906-22.312 18.031-9.1875 4.375-1.1875 0.0937a2.5807 2.5807 0 0 0 -2.0312 1.25l-4.34 7.19a2.5807 2.5807 0 0 0 0.28125 3l2.125 2.4375-3.375 5.5938a2.5807 2.5807 0 0 0 -0.1875 0.40625l-37.87 101.56a2.5807 2.5807 0 0 0 0.0625 1.9688l10.188 22.688c-0.24118 0.70595-0.61772 1.6208-0.96875 3.6875-0.46131 2.7159-0.75606 6.1766 0.96875 9.2812 0.509 0.91619 1.1662 1.3848 1.875 1.7812l0.375 0.875a2.5807 2.5807 0 0 0 4.1875 0.8125c5.538 1.4979 13.809 2.4904 22.375 3.25 9.7922 0.86829 19.478 1.3438 24.219 1.3438 5.7503 0 17.38-1.9251 28.25-3.875 9.8281-1.7629 17.291-3.2827 19.75-3.7812 0.50277 1.2971 0.94409 2.5 1.9688 4.5625 1.4866 2.9924 3.2675 6.2116 5.9375 8.2812 6.0043 4.6542 13.877 5.4978 20.656 5.7188 5.4792 0.17856 12.718-1.3674 18.781-2.875 5.7661-1.4337 9.9018-2.7341 10.344-2.875l29.938 2.9062 0.21875 0.0312v-0.0312c3.6079 0.59002 6.9526-0.88644 8.7812-3.5312 1.4501-2.0973 2.0953-4.7693 2.4688-7.6562 5.3797 0.23677 11.081 0.26202 15.5-0.8125 4.5166-1.0984 9.3279-4.4858 11.219-5.8125 2.3231 0.30171 4.4622 0.52903 6.5 0.71875a2.5807 2.5807 0 0 0 1.25 1.125s2.3878 1.003 5.1562 1.7812c1.3842 0.3891 2.8711 0.76145 4.3438 0.875 1.4726 0.11355 3.0741 0.14696 4.625-1.0938 1.7441-1.3952 1.7168-3.0592 1.7812-4.5625 0.0645-1.5033-0.0731-3.1025-0.1875-4.6562-0.11437-1.5538-0.19691-3.055-0.15625-4.1562 0.0329-0.89065 0.1377-1.0761 0.0625-1.0625 0.11369-0.0488 0.21256-0.0865 0.375-0.15625 3.5102-0.84973 13.64-2.73 18.688-3.6562 4.6986 2.4622 9.4175 4.701 13.656 6.1875 4.4921 1.5753 8.3843 2.5624 11.875 1.5 7.2252-2.199 12.672-8.1656 16.25-12.875 2.6624-0.33995 5.5708 0.24927 8.3438 1.0625 1.5029 0.44076 2.9421 0.90881 4.4062 1.1562 1.4642 0.24744 3.1651 0.36912 4.75-0.6875 1.5428-1.0285 2.3012-2.3647 3.3125-4s2.0185-3.5397 2.9375-5.375c1.83-3.67 3.31-7.06 3.31-7.06a2.5807 2.5807 0 0 0 0.0625 -1.8438l-24.781-74.812c0.0233-0.47187 0.46505-9.5776 0.9375-19.562 0.24227-5.1202 0.50561-10.341 0.6875-14.5s0.3125-7.1005 0.3125-8.1875c0-1.2808-0.32693-1.9644-0.71875-3.1875s-0.92291-2.7289-1.5625-4.4062c-1.2792-3.3546-2.9703-7.4369-4.6562-11.438-3.1635-7.5066-5.9652-13.773-6.3438-14.625l9.7812-30.281a2.5807 2.5807 0 0 0 0.0625 -1.3438s-0.86939-3.6215-2.5938-7.1875c-0.12404-2.0725-0.25-3.9375-0.25-3.9375a2.5807 2.5807 0 0 0 -2.8438 -2.375l1-27.5 9.1562-9.7812a2.5807 2.5807 0 0 0 0.71875 -1.75v-24.406a2.5807 2.5807 0 0 0 -2.3125 -2.5625c-1.4114-0.14846-2.7285-0.25628-4-0.375a2.5807 2.5807 0 0 0 -0.86 0.06l-2.69 0.62a2.5807 2.5807 0 0 0 -0.625 0.25 2.5807 2.5807 0 0 0 -2.1562 -1.4688c-3.8401-0.27294-7.2713-0.4654-10.375-0.53125a2.5807 2.5807 0 0 0 -1.4375 0.40625l-1.4 0.88a2.5807 2.5807 0 0 0 -1.1875 2.375l0.21875 2.9375h-0.875l-0.0625-4.0312a2.5807 2.5807 0 0 0 -2.6562 -2.5312c-2.1131 0.0549-3.9392 0.21859-5.7812 0.34375l-5.5-13.406a2.5807 2.5807 0 0 0 -1.5625 -1.4688l-3.25-1.0625a2.5807 2.5807 0 0 0 -0.65625 -0.15625v-22.594l1.0625-1.2188a2.5807 2.5807 0 0 0 1.125 -2.125v-5.0312a2.5807 2.5807 0 0 0 1.5625 -3.0625l-9.9062-35.531a2.5807 2.5807 0 0 0 -2.6875 -1.875l-2.1562 0.15625a2.5807 2.5807 0 0 0 -2.25 1.7188l-12.281 35.375a2.5807 2.5807 0 0 0 1.5 3.25v5a2.5807 2.5807 0 0 0 1.2812 2.2188l1.2812 1.25v1.875l-1.75-0.58a2.5807 2.5807 0 0 0 -1.3125 -0.0625l-2.7812 0.59375a2.5807 2.5807 0 0 0 -1.6875 1.2188l-19.16-6.69v-45.156l2.125-2.625a2.5807 2.5807 0 0 0 1.0938 -2.0938v-7.5312a2.5807 2.5807 0 0 0 -2.3438 -2.5625c-0.37829-0.0371-0.72551-0.0625-1.0938-0.0937v-7.75c1.5254 0.18007 3.6122 0.37399 3.875 0.46875a2.5807 2.5807 0 0 0 3.1562 -3.625l-8.8125-17.125-7.625-33.531a2.5807 2.5807 0 0 0 -2.3438 -2l-3.2188-0.21875a2.5807 2.5807 0 0 0 -0.28125 -0.0312zm-23.81 123.81c3.6454-0.0288 6.9502 1.3266 10.25 3.4375v21.219l-1.4688 4.25-4.75-0.8125-0.53125-1.2812a2.5807 2.5807 0 0 0 -1.5625 -1.4375l-3.25-1.0625a2.5807 2.5807 0 0 0 -1.3438 -0.0937l-2.7812 0.59375a2.5807 2.5807 0 0 0 -1.875 1.625l-4.0312 10.656v-33.25c4.3104-2.6998 8.0443-3.8177 11.344-3.8438zm-65.875 72.594-2.75 9v-5.875a2.5807 2.5807 0 0 0 -1.625 -2.4062c1.7454-0.19144 3.1936-0.43499 4.375-0.71875z"
       inkscape:original="M 400.125 300.78125 L 390.96875 335.5 L 383.1875 351.875 C 383.82323 351.68214 386.30216 351.5123 389.65625 351.375 L 389.65625 364.375 C 388.20249 364.4697 386.77301 364.5371 385.34375 364.65625 L 385.34375 372.1875 C 385.39475 372.1855 385.44885 372.1895 385.5 372.1875 L 389.0625 376.03125 L 389.0625 399.75 L 388.96875 399.4375 L 362.375 399.09375 L 362.28125 399.40625 L 362.28125 394.59375 C 364.54943 394.52985 366.80671 394.44505 369 394.34375 L 360 377.40625 L 359.40625 377.40625 L 359.40625 371 C 360.06138 371.0297 360.71497 371.05205 361.40625 371.09375 L 353.96875 335.5625 L 352.34375 335.71875 L 343.15625 371.09375 C 343.97793 371.07025 344.78036 371.05755 345.59375 371.03125 L 345.59375 377.40625 L 345 377.40625 L 336.90625 394.6875 C 339.25115 394.7241 341.57298 394.7348 343.875 394.75 L 343.875 473.1875 L 333.65625 474.9375 L 330.84375 484.125 L 315.75 485.6875 L 305.8125 518.28125 L 306.34375 518.25 L 303.9375 518.65625 L 305.25 516.625 C 305.1669 516.6367 305.08312 516.64465 305 516.65625 L 305 497.71875 C 303.72026 497.56459 302.4302 497.40338 301.15625 497.28125 L 301.15625 493.1875 C 305.53138 492.84349 308.94698 492.42961 310.5 491.96875 L 297.09375 474.46875 L 285.59375 440.6875 L 280.8125 440.4375 L 267.15625 475.1875 L 252.875 493.09375 C 253.56956 493.63912 257.21252 493.96626 262.34375 494.125 L 262.34375 498.3125 C 260.98944 498.5053 259.63263 498.68275 258.28125 498.90625 L 258.75 517.125 L 265.9375 527.40625 L 264.125 585.3125 L 240.5625 604.34375 L 230.8125 609 L 229.0625 609.125 L 224.75 616.3125 L 228.09375 620.15625 L 223.78125 627.34375 L 185.90625 728.90625 L 196.46875 752.40625 C 196.46875 752.40625 193.6041 760.06238 196 764.375 C 196.23526 764.79846 196.79665 765.2077 197.65625 765.59375 L 198.375 767.25 L 198.6875 766 C 207.96777 769.29204 237.6379 771.09375 246.78125 771.09375 C 257.01271 771.09375 294.128 763.54576 296.34375 763.09375 C 296.93291 764.73643 300.31367 773.76831 304.28125 776.84375 C 309.50814 780.89533 316.82771 781.78461 323.4375 782 C 333.21576 782.31865 352.21875 776.21875 352.21875 776.21875 L 382.875 779.21875 C 388.72278 780.31521 391.22316 775.27959 391.65625 767.9375 C 397.5797 768.27736 404.27945 768.33717 408.75 767.25 C 412.62121 766.30857 418.7053 762.15785 419.96875 761.28125 C 423.35334 761.72683 426.5621 762.12464 429.21875 762.3125 C 429.23575 762.48066 429.34375 763.40625 429.34375 763.40625 C 429.34375 763.40625 438.44785 767.26047 440.84375 765.34375 C 443.06009 763.57068 439.94903 753.18014 442.125 750.875 C 442.56758 750.68036 442.76618 750.5968 443.5 750.28125 C 447.33644 749.33629 458.61833 747.28492 463.40625 746.40625 C 473.22439 751.6146 483.12458 755.73926 487.8125 754.3125 C 494.513 752.27322 500.14065 745.99342 503.53125 741.375 C 503.56205 741.378 503.5943 741.372 503.625 741.375 C 510.8127 739.93746 517.99992 745.19797 520.875 743.28125 C 523.75008 741.36453 529.5 727.96875 529.5 727.96875 L 504.5625 652.71875 C 504.5625 652.71875 506.5 613.44801 506.5 610.09375 C 506.5 606.73949 493.0625 576.53125 493.0625 576.53125 L 503.125 545.375 C 503.125 545.375 502.27885 541.54984 500.53125 538.1875 C 500.39672 535.83898 500.25 533.875 500.25 533.875 L 498.03125 534.71875 C 497.79136 534.49183 497.53806 534.27411 497.28125 534.09375 L 498.40625 502.78125 L 508.25 492.28125 L 508.25 467.875 C 506.87211 467.73006 505.56837 467.62018 504.28125 467.5 L 501.59375 468.125 L 501.5 474.15625 L 497.90625 473.96875 L 498.03125 466.96875 C 494.22543 466.69825 490.83265 466.53349 487.78125 466.46875 L 486.375 467.34375 L 486.8125 473 L 480.625 473.125 L 480.5 466.5 C 477.76171 466.5711 475.3167 466.7298 472.96875 466.90625 L 466.78125 451.8125 L 463.53125 450.75 L 461.09375 451.28125 L 461.09375 424.625 L 463.1875 422.21875 L 463.28125 422.21875 L 463.28125 414.6875 C 463.83408 414.7209 464.39482 414.7714 464.9375 414.8125 L 455.03125 379.28125 L 452.875 379.4375 L 440.59375 414.8125 C 441.15202 414.787 441.6945 414.7735 442.25 414.75 L 442.25 422.21875 L 442.375 422.21875 L 444.8125 424.625 L 444.8125 435.125 L 442.9375 430.53125 L 439.65625 429.46875 L 436.875 430.0625 L 436.15625 432 L 412.90625 423.875 L 412.90625 376.03125 L 416 372.1875 C 416.04 372.1885 416.0851 372.1865 416.125 372.1875 L 416.125 364.65625 C 414.95724 364.54185 413.82599 364.46013 412.6875 364.375 L 412.6875 351.34375 C 416.10322 351.52581 418.8092 351.84051 420.03125 352.28125 L 411.03125 334.78125 L 403.34375 301 L 400.125 300.78125 z M 376.1875 419.40625 C 380.90033 419.36905 385.11352 421.14264 389.0625 423.90625 L 389.0625 447.03125 L 386.75 453.8125 L 378.40625 452.375 L 377.34375 449.8125 L 374.09375 448.75 L 371.3125 449.34375 L 366.125 463.0625 L 364.15625 463.0625 L 362.28125 466.78125 L 362.28125 424.40625 C 367.41376 420.92524 371.99534 419.43932 376.1875 419.40625 z "
       inkscape:radius="2.5804632" />
    <path
       id="path4693"
       d="m387.65 507.04 19.088-51.698 2.7837-0.59651 20.058 51.218-4.3503 0.67887-17.299-44.738-15.907 45.931z"
       sodipodi:nodetypes="cccccccc"
       style="color:#000000;fill:#e9c6af"
       inkscape:connector-curvature="0" />
    <path
       id="path4695"
       d="m409.52 454.75 3.2744 1.0663 20.668 50.475-3.884-0.32374z"
       sodipodi:nodetypes="ccccc"
       style="color:#000000;fill:#784421"
       inkscape:connector-curvature="0" />
    <path
       id="path4697"
       style="color:#000000;fill:#e3dedb"
       inkscape:connector-curvature="0"
       d="m354.86 501.28 17.716-47.523 21.371 45.273v26.995h-40.211z" />
    <path
       id="path3839"
       sodipodi:nodetypes="ccccc"
       style="color:#000000;fill:#c8beb7"
       inkscape:connector-curvature="0"
       d="m357.13 402.82h38.627l1.0165 27.784c-10.981-11.087-23.008-18.341-42.015 0z" />
    <rect
       id="rect3835"
       style="color:#000000;fill:url(#linearGradient4986)"
       height="17.619"
       width="13.793"
       y="366.57"
       x="345.6" />
    <rect
       id="rect3831"
       style="color:#000000;fill:url(#linearGradient4960)"
       height="98.601"
       width="18.408"
       y="391.8"
       x="343.88" />
    <rect
       id="rect3821"
       style="color:#000000;fill:url(#linearGradient4962)"
       ry="0"
       height="99.341"
       width="23.85"
       y="374.77"
       x="389.07" />
    <path
       id="path3825"
       sodipodi:nodetypes="ccccc"
       d="m385.33 372.03 3.7387 3.9873c8.196-0.56837 16.809-0.34842 23.85 0l3.2083-3.9873c-9.6795-2.0518-19.842-2.4143-30.797 0z"
       style="color:#000000;fill:url(#linearGradient5002)"
       inkscape:connector-curvature="0" />
    <path
       id="path4699"
       sodipodi:nodetypes="ccccc"
       style="color:#000000;fill:#501616"
       inkscape:connector-curvature="0"
       d="m376.52 452.07 32.197 5.4834 17.856 42.461-30.369-0.5624z" />
    <rect
       id="rect3827"
       style="color:#000000;fill:url(#linearGradient4988)"
       height="18.805"
       width="23.041"
       y="349.63"
       x="389.66" />
    <path
       id="path4701"
       sodipodi:nodetypes="ccccc"
       inkscape:connector-curvature="0"
       style="color:#000000;fill:#784421"
       d="m375.53 457.69-13.45 35.7-3.3377 0.42336 13.751-37.905z" />
    <rect
       id="rect3813"
       style="color:#000000;fill:url(#linearGradient5010)"
       height="42.18"
       width="16.292"
       y="422.64"
       x="444.81" />
    <path
       id="rect3815"
       style="color:#000000;fill:url(#linearGradient5012)"
       inkscape:connector-curvature="0"
       d="m442.25 413.69h21.038v8.5444h-21.038z" />
    <path
       id="path3817"
       sodipodi:nodetypes="ccccc"
       style="color:#000000;fill:url(#linearGradient5014)"
       inkscape:connector-curvature="0"
       d="m442.25 422.08 2.5539 2.5533c5.1419 0.2888 10.512 0.34891 16.292 0l2.1916-2.5533z" />
    <path
       id="path5060"
       style="color:#000000;fill:url(#linearGradient5062)"
       inkscape:connector-curvature="0"
       d="m481.22 502.87 0.94054-17.034 26.09 6.4378-9.8261 10.504" />
    <path
       id="path3042"
       style="color:#000000;fill:url(#linearGradient5064)"
       inkscape:connector-curvature="0"
       d="m498.42 502.78-1.3553 36.933-17.958 1.3553 2.1089-38.195" />
    <path
       id="path3288"
       style="color:#000000;fill:#c8beb7"
       inkscape:connector-curvature="0"
       d="m504.28 467.5-2.6996 0.62198-0.11979 8.0263 4.5522 0.35939z" />
    <path
       id="path3290"
       style="color:#000000;fill:#c8beb7"
       inkscape:connector-curvature="0"
       d="m487.78 466.47-1.4136 0.87456 0.53908 6.8283 2.9949 0.35938z" />
    <path
       id="rect3040"
       style="color:#000000;fill:url(#linearGradient5008)"
       inkscape:connector-curvature="0"
       d="m487.78 466.47 0.46875 6.5-7.625 0.15625-0.125-6.625c-7.1242 0.1851-12.503 0.83979-18.344 1.375v24.406c12.731-0.29977 6.5791-1.9854 46.094 0v-24.406c-1.3779-0.14494-2.6816-0.25482-3.9688-0.375l-0.28 6.81-6.0938-0.34375 0.125-7c-3.8058-0.2705-7.1986-0.43526-10.25-0.5z" />
    <rect
       id="rect3038"
       style="color:#000000;fill:#917c6f"
       height="7.0679"
       width="5.6304"
       y="458.06"
       x="417.61" />
    <path
       id="path4703"
       sodipodi:nodetypes="cccccccc"
       style="color:#000000;fill:#e9c6af"
       inkscape:connector-curvature="0"
       d="m356.53 488.35 14.776-39 2.7837-0.59651 20.058 51.218-4.3503 0.67887-17.299-44.738-13.751 37.905z" />
    <path
       id="path3976"
       sodipodi:nodetypes="ccccccssccccsccsccsccccc"
       style="color:#000000;fill:url(#linearGradient4327)"
       inkscape:connector-curvature="0"
       d="m229.05 609.12-4.3126 7.1877 3.3543 3.8334-4.3126 7.1877-37.855 101.59 10.542 23.48s-2.8751 7.6669-0.47918 11.98c2.3959 4.3126 40.251 6.7085 50.793 6.7085s50.314-8.1461 50.314-8.1461c55.97 12.665 121.88-9.5813 143.75-11.5 0 0 13.896-6.2293 18.209-6.7085 25.879 6.4024 34.996-4.3534 44.564-3.3543 7.1877-1.4375 14.375 3.8334 17.25 1.9167 2.8751-1.9167 8.6252-15.334 8.6252-15.334l-24.917-75.231s1.9167-39.293 1.9167-42.647c0-3.3543-13.417-33.543-13.417-33.543l10.063-31.147s-2.3959-10.542-7.1877-11.98c-4.7918-1.4375-14.855-4.3126-14.855-4.3126l-169.15 42.168-54.147 23.001-21.563 14.375z" />
    <path
       id="path3974"
       sodipodi:nodetypes="ccccsccccssscccc"
       style="color:#000000;fill:#f2f2f2"
       inkscape:connector-curvature="0"
       d="m267.86 582.29-27.313 22.042-11.98 5.7502 9.1044 0.47918s19.167-7.5647 24.438-5.648 19.646-3.9356 19.646-3.9356l-7.6669 13.896 6.7085 1.4375 13.136-12.308s8.4268 2.2456 16.573 0.80804c8.1461-1.4375 31.147-12.938 34.501-13.417 3.3543-0.47918 20.6 2.8277 24.917 2.3959 14.375-1.4375 17.25-9.1044 17.25-9.1044l-42.647-34.98-52.231 6.7085z" />
    <path
       id="path3968"
       style="color:#000000;fill:#6c5d53"
       inkscape:connector-curvature="0"
       d="m293.43 520.4 24.396-4.066-0.67767 24.057-26.768 2.7107z" />
    <path
       id="rect3963"
       sodipodi:nodetypes="ccccc"
       style="color:#000000;fill:#c8beb7"
       inkscape:connector-curvature="0"
       d="m310.37 515.99h26.768v45.742l-26.768 1.3553z" />
    <path
       id="path3966"
       style="color:#000000;fill:#6c5d53"
       inkscape:connector-curvature="0"
       d="m301.9 585.11 11.52-7.1155v-42.693l-15.247 3.3883z" />
    <path
       id="path3944"
       sodipodi:nodetypes="ccccc"
       style="color:#000000;fill:url(#linearGradient4964)"
       inkscape:connector-curvature="0"
       d="m265.94 527.42-1.9167 60.856c7.1864 3.2759 27.375 2.5634 37.376 0l-2.8751-61.335z" />
    <path
       id="path3911"
       sodipodi:nodetypes="cccc"
       style="color:#000000;fill:#e3dedb"
       inkscape:connector-curvature="0"
       d="m258.28 498.91c15.303-2.5309 30.781-3.118 46.72-1.198l-20.605 12.698z" />
    <path
       id="path3873"
       d="m417.78 481.77 19.088-51.698 2.7837-0.59651 20.058 51.218-4.3503 0.67887-17.299-44.738-15.907 45.931z"
       sodipodi:nodetypes="cccccccc"
       style="color:#000000;fill:#e9c6af"
       inkscape:connector-curvature="0" />
    <path
       id="path4705"
       sodipodi:nodetypes="ccccc"
       style="color:#000000;fill:#784421"
       inkscape:connector-curvature="0"
       d="m374.08 448.75 3.2744 1.0663 20.668 50.475-3.884-0.32374z" />
    <path
       id="path3875"
       d="m439.65 429.47 3.2744 1.0663 20.668 50.475-3.884-0.32374z"
       sodipodi:nodetypes="ccccc"
       style="color:#000000;fill:#784421"
       inkscape:connector-curvature="0" />
    <path
       id="path3871"
       sodipodi:nodetypes="cccccc"
       style="color:#000000;fill:#e3dedb"
       inkscape:connector-curvature="0"
       d="m390.27 459.41 9.8728-36.936 18.267 35.832 1.5466 36.556-29.827 1.3852z" />
    <path
       id="path3867"
       sodipodi:nodetypes="ccccc"
       style="color:#000000;fill:#784421"
       inkscape:connector-curvature="0"
       d="m400.06 424.62-13.198 37.932h3.3125l12.917-36.151z" />
    <path
       id="path3863"
       sodipodi:nodetypes="cccccccc"
       style="color:#000000;fill:#e9c6af"
       inkscape:connector-curvature="0"
       d="m401.66 417.47-2.7812 0.59375-14.528 42.912 2.5173 1.5824 13.537-37.932 13.625 35.25 4.0855-1.7483z" />
    <path
       id="path3869"
       sodipodi:nodetypes="ccccc"
       style="color:#000000;fill:#501616"
       inkscape:connector-curvature="0"
       d="m404.08 420.79 35.853 12.513 14.201 35.431-30.369-0.5624z" />
    <path
       id="path3865"
       sodipodi:nodetypes="ccccc"
       style="color:#000000;fill:#784421"
       inkscape:connector-curvature="0"
       d="m401.66 417.47 16.456 40.658 3.5625 0.5624-16.737-40.158z" />
    <path
       id="path3877"
       sodipodi:nodetypes="cccccccc"
       style="color:#000000;fill:#e9c6af"
       inkscape:connector-curvature="0"
       d="m441.65 503.04 19.088-51.698 2.7837-0.59651 20.058 51.218-4.3503 0.67887-17.299-44.738-15.907 45.931z" />
    <path
       id="path3879"
       sodipodi:nodetypes="ccccc"
       style="color:#000000;fill:#784421"
       inkscape:connector-curvature="0"
       d="m463.52 450.75 3.2744 1.0663 20.668 50.475-3.884-0.32374z" />
    <path
       id="path3881"
       d="m408.86 497.28 17.716-47.523 21.371 45.273v26.995h-40.211z"
       style="color:#000000;fill:#e3dedb"
       inkscape:connector-curvature="0" />
    <path
       id="path3842"
       sodipodi:nodetypes="ccccc"
       style="color:#000000;fill:#917c6f"
       inkscape:connector-curvature="0"
       d="m399.02 537.21 20.129-7.7866v-29.428l-21.09 0.3872z" />
    <path
       id="path3883"
       d="m430.52 448.07 32.197 5.4834 17.856 42.461-30.369-0.5624z"
       sodipodi:nodetypes="ccccc"
       style="color:#000000;fill:#501616"
       inkscape:connector-curvature="0" />
    <path
       id="path3830"
       sodipodi:nodetypes="ccccc"
       style="color:#000000;fill:#501616"
       inkscape:connector-curvature="0"
       d="m383.52 466.26 22.909 2.5128 15.068 32.459-21.045 2.9238z" />
    <path
       id="path3885"
       sodipodi:nodetypes="ccccc"
       d="m429.53 453.69-13.45 35.7-3.3377 0.42336 13.751-37.905z"
       style="color:#000000;fill:#784421"
       inkscape:connector-curvature="0" />
    <path
       id="path3903"
       sodipodi:nodetypes="ccccc"
       style="color:#000000;fill:#784421"
       inkscape:connector-curvature="0"
       d="m414.03 459.88 4.0855-1.7483 3.5625 0.5624-3.8952 1.6499z" />
    <path
       id="path3887"
       d="m410.53 484.35 14.776-39 2.7837-0.59651 20.058 51.218-4.3503 0.67887-17.299-44.738-13.751 37.905z"
       sodipodi:nodetypes="cccccccc"
       style="color:#000000;fill:#e9c6af"
       inkscape:connector-curvature="0" />
    <path
       id="path3889"
       d="m428.08 444.75 3.2744 1.0663 20.668 50.475-3.884-0.32374z"
       sodipodi:nodetypes="ccccc"
       style="color:#000000;fill:#784421"
       inkscape:connector-curvature="0" />
    <path
       id="path3051"
       sodipodi:nodetypes="ccccc"
       style="color:#000000;fill:#a02c2c"
       inkscape:connector-curvature="0"
       d="m315.75 485.68 23.065-2.386-10.737 34.2-22.27 0.79535z" />
    <rect
       id="rect3961"
       style="color:#000000;fill:#e3dedb"
       height="35.916"
       width="35.577"
       y="502.78"
       x="327.65" />
    <path
       id="path3821"
       d="m333.65 474.94 27.869-4.8057-10.737 34.2-26.676 1.6243z"
       sodipodi:nodetypes="ccccc"
       style="color:#000000;fill:#c83737"
       inkscape:connector-curvature="0" />
    <path
       id="path3832"
       style="color:#000000;fill:#784421"
       inkscape:connector-curvature="0"
       d="m367.25 463.06 2.1902 0.64107 1.5907 3.2808-2.5309-0.54689z" />
    <path
       id="path3840"
       style="color:#000000;fill:#e3dedb"
       inkscape:connector-curvature="0"
       d="m363.87 468.31 17.997-0.84359 17.153 38.805v30.932h-51.178v-33.744z" />
    <path
       id="path3836"
       sodipodi:nodetypes="ccccccc"
       style="color:#000000;fill:#784421"
       inkscape:connector-curvature="0"
       d="m380.77 470.56-14.217 1.2924-15.72 34.2-2.0873-0.0872 16.719-35.062 13.125-1.125z" />
    <path
       id="path3823"
       sodipodi:nodetypes="ccccccccccccc"
       style="color:#000000;fill:#e9c6af"
       inkscape:connector-curvature="0"
       d="m378.69 462.25-1.5938 3.3438-8.5938 0.84375-1.25-3.375h-3.0938l-21.75 43.281 6.3438-0.375 16.719-35.062 13.125-1.125 15.906 36.977 6.3438-0.41482-19.062-44.094z" />
    <path
       id="path3838"
       style="color:#000000;fill:#784421"
       inkscape:connector-curvature="0"
       d="m381.78 462.25 2.969 0.43834 18.981 43.094-2.8874 0.5617z" />
    <rect
       id="rect3907"
       style="color:#000000;fill:url(#linearGradient4984)"
       height="15.094"
       width="38.814"
       y="490.04"
       x="262.35" />
    <path
       id="path3905"
       sodipodi:nodetypes="ccccccc"
       style="color:#000000;fill:url(#linearGradient5032)"
       inkscape:connector-curvature="0"
       d="m280.8 440.45 4.7918 0.23959 11.5 33.782 13.417 17.49c-7.3078 2.1686-54.911 3.2751-57.63 1.1398l14.264-17.911z" />
    <path
       id="path3215"
       d="m274.48 494.01c-1.3197-0.001-2.1463 0.86158-2.1463 2.0559v7.0714h4.2699v-7.0714c0.10489-1.1193-0.75263-2.0547-2.1237-2.0559z"
       sodipodi:nodetypes="sccccs"
       style="color:#000000;fill:#000000"
       inkscape:connector-curvature="0" />
    <path
       id="path3909"
       sodipodi:nodetypes="ccccccc"
       style="color:#000000;fill:url(#linearGradient4974)"
       inkscape:connector-curvature="0"
       d="m258.28 498.91 0.47918 18.209 7.1877 10.302c8.2482 2.8992 24.101 1.5219 32.584-0.47918l6.4689-10.186v-19.044c-2.8616 1.919-43.881 3.1885-46.72 1.198z" />
    <path
       id="path3913"
       sodipodi:nodetypes="ccccc"
       style="color:#000000;fill:url(#linearGradient5000)"
       inkscape:connector-curvature="0"
       d="m305.24 516.64c-18.974 2.6797-37.147 2.362-46.49 0.48953l7.1875 10.281c8.2482 2.8992 24.11 1.5323 32.594-0.46875z" />
    <path
       id="path3280"
       style="color:#000000;fill:#917c6f"
       inkscape:connector-curvature="0"
       d="m337.16 526.94 3.8776 0.4054 0.67767 7.1155-4.2427-1.0209z" />
    <path
       id="path3959"
       style="color:#000000;fill:url(#linearGradient5066)"
       inkscape:connector-curvature="0"
       d="m354.34 526.22-9.9688 0.40625 0.71875 6.8125h-7.625l-0.3125-6.5-40.531 1.6875-0.25 15.812 33.062-1.6875 1.9062 42.656h22.281l0.71875-59.188z" />
    <use
       id="use5046"
       xlink:href="#path5044"
       transform="translate(4.6777 -.16942)"
       height="1052.3622"
       width="744.09448"
       y="0"
       x="0" />
    <use
       id="use5048"
       xlink:href="#use5046"
       transform="translate(4.6777 -.16942)"
       height="1052.3622"
       width="744.09448"
       y="0"
       x="0" />
    <path
       id="path5042"
       style="color:#000000;fill:#241f1c"
       inkscape:connector-curvature="0"
       d="m303.42 555.8 19.313 0.10312v2.2687l-19.652-0.10313z" />
    <path
       id="path5044"
       style="color:#000000;fill:#241f1c"
       inkscape:connector-curvature="0"
       d="m307.15 544.96v16.433l0.84708 2.7106 1.0165-2.5412v-17.28z" />
    <path
       id="path3953"
       sodipodi:nodetypes="ccsccc"
       style="color:#000000;fill:#917c6f"
       inkscape:connector-curvature="0"
       d="m300.71 589.8 4.4094-2.1472-0.16942-32.02c-0.0335-6.3244 4.066-9.4873 7.7931-9.6567 6.7766-1.0165-13.892-1.5248-13.892-1.5248z" />
    <path
       id="path3948"
       sodipodi:nodetypes="cccccscccc"
       style="color:#000000;fill:#e3dedb"
       inkscape:connector-curvature="0"
       d="m323.94 538.44-28.031 0.46875-0.97916 50.802 5.7812 0.0937 0.22916-31.708c0.0648-4.3716 1.4373-11.76 9.3438-12 7.9065-0.23959 10.031 7.9104 10.062 12.469l0.42709 31.583 4.125 0.0625z" />
    <path
       id="path3955"
       sodipodi:nodetypes="cccccc"
       style="color:#000000;fill:#917c6f"
       inkscape:connector-curvature="0"
       d="m334.43 585.11-2.033-63.7-3.2189-0.16941-5.2372 17.194 0.95834 51.771z" />
    <path
       id="path3957"
       sodipodi:nodetypes="ccccc"
       style="color:#000000;fill:#c83737"
       inkscape:connector-curvature="0"
       d="m295.91 538.91 28.031-0.46875 5.2372-17.194-25.243 1.5247z" />
    <path
       id="path3275"
       sodipodi:nodetypes="ccccc"
       style="color:#000000;fill:#e3dedb"
       inkscape:connector-curvature="0"
       d="m347.13 497.95c13.892-0.72002 31.808-0.84708 36.636-0.33883l-0.12706 2.0753-35.923-0.77953z" />
    <path
       id="path3942"
       sodipodi:nodetypes="ccccccccccccccccccccccccc"
       style="color:#000000;fill:url(#linearGradient3230)"
       inkscape:connector-curvature="0"
       d="m374.16 494.81-0.0312 3.5938c-1.4135-0.0467-2.8319-0.0727-4.25-0.0937l0.0312-3.5c-1.3769 0.008-2.6976 0.0116-4.0938 0.0312l-0.0312 3.4375c-1.1648 0.002-2.3324 0.0134-3.5 0.0312l0.0312-3.4375c-1.2695 0.0267-2.5866-0.005-3.8125 0.0312l0.0312 3.5c-1.2698 0.0369-2.5396 0.071-3.8125 0.125l0.0312-3.5938c-1.4127 0.0565-2.8199 0.0865-4.0625 0.15625l-0.08 3.66c-0.9701 0.0543-1.9345 0.093-2.9062 0.15625l0.0937-3.6562c-2.565 0.19332-4.4515 0.0791-5.1875 0.34375l1.9688 12.688 43.906 0.125 0.86-13.4c-0.1813-0.33239-2.9838-0.0756-7.125-0.20043v4.0442c-1.4573-0.10278-2.9122-0.2084-4.375-0.28125v-3.75c-1.2264-0.0161-2.3593 0.004-3.6875 0z" />
    <path
       id="path3175"
       sodipodi:nodetypes="ccccccccccccccccccccccccccccccccccccccccccccccc"
       style="color:#000000;fill:#e3dedb"
       inkscape:connector-curvature="0"
       d="m483.12 491.5-2.3232 0.2656-0.23307 4.2448-8.2377 0.75297-1.7372-5.4196-2.1593 0.25243 0.33883 4.7436-7.8778 0.59296-1.3329-5.7453-2.1401 0.15456v5.5907l-7.2232-1.4848-2.6055-4.448-2.3693 0.25735 0.1777 4.7964-6.4461 0.96371-2.5499-4.9237-3.4644 0.0954 0.50824 6.5225-3.3036 2.2871 1.0723-5.1238-4.3759-0.21284-5.3514 5.5705 0.69243 7.305-2.9648 2.3718 1.5308-4.7846-4.9191-0.72144-3.8966 3.8966 1.0165 7.3696-3.3036 2.7954 1.3216-3.3401-5.4722-1.1494-4.1507 2.7106 0.50824 6.4378-2.4565 1.1012 1.3525-2.6627-5.1643-1.4033-4.5742 1.7789 0.50825 6.3531-3.0495 1.5247 1.4048-4.2847-3.6072-1.306-5.9296 1.9483 0.93179 13.299 102.75-14.824 1.1012-32.02z" />
    <path
       id="path3240"
       sodipodi:nodetypes="ccccc"
       style="color:#000000;fill:#e3dedb"
       inkscape:connector-curvature="0"
       d="m346.99 499.99c11.81 2.5855 32.309 2.015 37.885 0.38936l1.4724 0.56072c-15.06 3.85-28.78 3.45-41.35-0.6z" />
    <path
       id="path3970"
       style="color:#000000;fill:#ac9d93"
       inkscape:connector-curvature="0"
       d="m440.16 490.91c-1.0936-0.015-2.3588 0.42507-3.75 1.1875l0.53125 6.9688-5.4375 3.375-0.28125-6.5625c-1.7357 1.4878-3.549 3.2069-5.4062 5.0625l0.4375 7.7812-5.25 3.5312-0.25-6.125c-1.6029 1.6821-3.2029 3.362-4.75 4.9688l0.25 6.5938-5.0625 3.2188-0.21875-4.7812c-1.8289 1.7295-3.53 3.2146-5 4.1875l0.28125 5.8438-5.25 2.2188-0.25-5.8125-5.6562 2.0625 0.3125 6.4375-5.25 2.2188-0.28125-6.75-11.062 4.0312 2.375 55.562s27.793-13.534 32.875-15.906c5.0825-2.3718 12.182-14.569 18.281-19.312 6.099-4.7436 20.344-6.4375 20.344-6.4375l34.906-9.8438 2.0312-43.031-6.5-0.0937 0.21875 3.5h-5.75l-0.0625-3.5625-6.9375-0.0937 0.21875 3.3125h-5.7812l-0.0625-3.4062-5.4062-0.0625 0.21875 3.4688h-5.75l-0.0625-3.5625-6.375-0.0937 0.1875 3.8125-5.5938 0.5-0.0937-4.375-1.9375-0.0312z" />
    <path
       id="path3946"
       sodipodi:nodetypes="ccscc"
       style="color:#000000;fill:url(#linearGradient4966)"
       inkscape:connector-curvature="0"
       d="m350.3 524.7-1.6935 62.862c-0.4323 6.3521 38.34 5.6783 37.838-2.851l-3.5605-60.49z" />
    <path
       id="path3273"
       style="color:#000000;fill:#c8beb7"
       inkscape:connector-curvature="0"
       d="m350.12 494.53-0.11214 3.291 0.61214 0.92779 0.0624-3.6564z" />
    <path
       id="path3932"
       sodipodi:nodetypes="ccccccccccccccccccccccccccc"
       style="color:#000000;fill:url(#linearGradient4976)"
       inkscape:connector-curvature="0"
       d="m389.34 495c-0.37859 0.25388-1.4624 0.48059-3 0.6875v5.25l-3.4688 0.71875v-5.625c-1.8049 0.15039-3.8666 0.26739-6.125 0.375l0.11979 5.8646-3.5885 0.22916v-5.9375c-2.2158 0.0783-4.5257 0.15097-6.8438 0.1875v5.5h-3.4688v-5.5c-2.3435 0.0143-4.6468 0.0343-6.8125 0l-0.11979 5.3802-3.724-0.34896 0.21875-5.125c-1.4246-0.0464-2.749-0.11308-3.9375-0.1875v4.7188l-3.5938-0.84375 0.0625-4.1562c-1.2208-0.1607-2.111-0.36477-2.4375-0.59375l0.46875 18.812 7.2188 10.281c8.2482 2.8992 24.079 1.5323 32.562-0.46875l6.25-11.031z" />
    <path
       id="path3938"
       d="m389.11 513.2c-15.038 5.3203-36.137 3.2354-46.01 1.2083l7.1875 10.281c8.2482 2.8992 24.11 1.5323 32.594-0.46875z"
       sodipodi:nodetypes="ccccc"
       style="color:#000000;fill:url(#linearGradient5004)"
       inkscape:connector-curvature="0" />
    <path
       id="path3199"
       d="m408.15 356.25c-1.1608-0.001-1.8878 0.86158-1.8878 2.0559v7.0714h3.7558v-7.0714c0.0923-1.1193-0.662-2.0547-1.8679-2.0559z"
       sodipodi:nodetypes="sccccs"
       style="color:#000000;fill:#000000"
       inkscape:connector-curvature="0" />
    <path
       id="rect3823"
       sodipodi:nodetypes="ccccc"
       style="color:#000000;fill:url(#linearGradient4998)"
       inkscape:connector-curvature="0"
       d="m385.33 364.67c9.4758-0.78993 19.417-1.1149 30.797 0v7.532c-9.5899-0.28358-21.233-0.46777-30.797 0z" />
    <path
       id="path3833"
       sodipodi:nodetypes="ccccc"
       style="color:#000000;fill:url(#linearGradient5036)"
       inkscape:connector-curvature="0"
       d="m345 377.41-8.096 17.28c11.273 0.17598 22.087 0.12292 32.084-0.33883l-8.99-16.94z" />
    <path
       id="rect3841"
       sodipodi:nodetypes="ccccc"
       style="color:#000000;fill:#782121"
       inkscape:connector-curvature="0"
       d="m362.38 399.1 26.598 0.33883 1.5247 5.0825h-29.817z" />
    <path
       id="path4337"
       style="color:#000000;fill:url(#linearGradient5068)"
       inkscape:connector-curvature="0"
       d="m500.26 533.89-15.334 5.7502s13.896 2.3959 13.896 4.7918-4.7918 4.7918-4.7918 4.7918-8.6252-4.7918-18.209-1.4375c-9.5836 3.3543-14.375 6.7085-14.375 6.7085s-1.4375-5.271-11.021-0.95836c-9.5836 4.3126-23.001 11.5-22.521 14.855 0.47918 3.3543 23.959 8.6252 23.959 8.6252l-14.855 153.34s39.772 27.313 50.793 23.959c11.021-3.3543 19.167-18.209 19.167-18.209s-6.7085-115.48-6.7085-119.8c0-4.3126-12.459-35.938-11.5-39.293 0.95836-3.3543 11.5-25.397 11.98-27.313 0.47918-1.9167-0.47918-15.813-0.47918-15.813z" />
    <path
       id="path4339"
       sodipodi:nodetypes="csscssscsscc"
       style="color:#000000;fill:url(#linearGradient4341)"
       inkscape:connector-curvature="0"
       d="m383.34 680.52s0-61.814 2.8751-65.168c2.8751-3.3543 8.8648-35.699 15.573-37.136 6.7085-1.4375 19.167-17.25 21.084-12.459 0 0 3.9488 14.384 9.1721 25.24 3.6654 7.618 9.5283 15.755 10.714 18.126 2.8751 5.7502 9.5836 73.315 11.5 81.94 1.9167 8.6252 9.5836 55.106 9.5836 55.106s-22.521 1.4375-24.438 3.8334c-1.9167 2.3959 3.3543 12.459-6.7085 12.459s-38.334-5.271-38.334-5.271z" />
    <path
       id="path4333"
       sodipodi:nodetypes="cccccscc"
       style="color:#000000;fill:url(#linearGradient4335)"
       inkscape:connector-curvature="0"
       d="m363.7 681.48 13.417-21.084 14.855 11.021 13.896 50.314 14.603 39.218s-7.4151 5.2555-11.728 6.3042c-9.6239 2.3404-29.709-0.47918-29.709-0.47918z" />
    <path
       id="path4329"
       sodipodi:nodetypes="cssscccccccssc"
       style="color:#000000;fill:url(#linearGradient4331)"
       inkscape:connector-curvature="0"
       d="m296.13 762.46s9.5836-30.188 13.417-36.418c3.8334-6.2293 13.896-34.022 15.334-40.73 1.4375-6.7085 8.1461-41.689 9.1044-44.085 0.95836-2.3959 13.896 1.4375 13.896 1.4375l12.459 9.1044 7.6669 26.834 14.375 31.626 9.1044 50.314c0.95836 11.021-0.95836 20.126-8.6252 18.688l-30.656-3.0123s-18.996 6.1035-28.775 5.7849c-6.6098-0.21539-13.928-1.1169-19.155-5.1684-4.353-3.3742-8.1461-14.375-8.1461-14.375z" />
    <path
       id="path4343"
       sodipodi:nodetypes="ssssscsscsssss"
       style="color:#000000;fill:url(#linearGradient4345)"
       inkscape:connector-curvature="0"
       d="m424.79 599.78c1.4521-2.995-5.0314-4.073-7.4273-2.6355s-5.7502 12.938-7.1877 15.334c-1.4375 2.3959-1.4375 40.251 0.47918 46.001 1.9167 5.7502 8.6252 60.377 11.98 65.648 3.3543 5.271 6.7085 39.293 6.7085 39.293s9.1044 3.8334 11.5 1.9167c2.3959-1.9167-1.4375-13.896 1.9167-14.855 3.3543-0.95836 24.438-4.7918 24.438-4.7918s-18.209-115-19.167-119.32c-0.95836-4.3126-8.6252-13.417-10.542-11.021-1.9167 2.3959-15.334 15.334-16.292 18.209-0.95836 2.8751-5.7502-2.8751-5.7502-5.7502s6.9558-23.106 9.344-28.032z" />
    <path
       id="path4347"
       sodipodi:nodetypes="csccccccscccc"
       style="color:#000000;fill:#f1f0ef"
       inkscape:connector-curvature="0"
       d="m241.99 630.68s-6.2293 18.688-8.1461 23.001c-1.9167 4.3126-13.417 11.98-13.417 11.98l-21.084 78.586-3.8334 16.292 2.8751 6.7085 24.438-99.19c12.739-3.3489 16.032 0.0487 20.126 2.8751 0 0 6.2293-3.8334 5.7502-6.7085-0.47918-2.8751-8.1461-5.7502-8.1461-5.7502l6.2293-27.313 9.5836-6.7085z" />
    <path
       id="path3837"
       d="m343.15 371.1 9.195-35.37 1.6174-0.16941 7.4458 35.54c-7.4311-0.44835-12.653-0.16035-18.258 0z"
       sodipodi:nodetypes="ccccc"
       style="color:#000000;fill:url(#linearGradient5034)"
       inkscape:connector-curvature="0" />
    <path
       id="path3829"
       d="m400.13 300.77 3.2089 0.23959 7.7013 33.782 8.9848 17.49c-4.9665-1.7912-34.371-1.1628-36.828-0.41751l7.7872-16.354z"
       sodipodi:nodetypes="ccccccc"
       style="color:#000000;fill:url(#linearGradient5038)"
       inkscape:connector-curvature="0" />
    <path
       id="path3819"
       sodipodi:nodetypes="ccccc"
       style="color:#000000;fill:url(#linearGradient5040)"
       inkscape:connector-curvature="0"
       d="m440.61 414.81 12.255-35.37 2.1555-0.16941 9.9234 35.54c-7.3679-0.55749-15.696-0.39492-24.334 0z" />
    <path
       id="path3177"
       style="color:#000000;fill:#c8beb7"
       inkscape:connector-curvature="0"
       d="m436.41 492.09-3.4688 0.0937 0.5 6.5312 3.5 0.34375-0.53125-6.9688zm-10.594 8.8438-4.3125 0.28125 0.6875 7.3125 4.0625 0.1875-0.4375-7.7812zm-13.875 8.375 1 7.3438 3.3125 1.0312-0.25-6.5938-4.0625-1.7812zm-10.594 8.375 0.5 6.4375 4.4062 2.0312-0.28125-5.8438-4.625-2.625zm-10.344 5.25 0.53125 6.3438 3.875 1.7812-0.3125-6.4375l-4.11-1.67z" />
    <path
       id="rect3188"
       sodipodi:nodetypes="sccccs"
       style="color:#000000;fill:#000000"
       inkscape:connector-curvature="0"
       d="m375.21 406.32c-0.93864-0.001-1.5265 0.6128-1.5265 1.4622v5.0295h3.037v-5.0295c0.0746-0.7961-0.53531-1.4614-1.5105-1.4622z" />
    <path
       id="path3193"
       d="m367.3 407.28c-0.93864-0.001-1.5265 0.6128-1.5265 1.4622v5.0295h3.037v-5.0295c0.0746-0.7961-0.53531-1.4614-1.5105-1.4622z"
       sodipodi:nodetypes="sccccs"
       style="color:#000000;fill:#000000"
       inkscape:connector-curvature="0" />
    <path
       id="path3195"
       d="m382.88 407.04c-0.93864-0.001-1.5265 0.6128-1.5265 1.4622v5.0295h3.037v-5.0295c0.0746-0.7961-0.53531-1.4614-1.5105-1.4622z"
       sodipodi:nodetypes="sccccs"
       style="color:#000000;fill:#000000"
       inkscape:connector-curvature="0" />
    <path
       id="path3197"
       sodipodi:nodetypes="sccccs"
       style="color:#000000;fill:#000000"
       inkscape:connector-curvature="0"
       d="m402.28 442.74c-0.93864 0.1468-1.5265 0.85317-1.5265 1.7026v5.0295l3.037-0.47821v-5.0295c0.0746-0.80785-0.53531-1.3771-1.5105-1.2244z" />
    <path
       id="path3201"
       d="m367.78 479.03c-0.93864 0.0729-1.5265 0.73298-1.5265 1.5824v5.0295l3.037-0.2391v-5.0295c0.0746-0.80197-0.53531-1.4193-1.5105-1.3433z"
       sodipodi:nodetypes="sccccs"
       style="color:#000000;fill:#000000"
       inkscape:connector-curvature="0" />
    <path
       id="path3205"
       sodipodi:nodetypes="sccccs"
       d="m375.33 478.32c-0.93864 0.0729-1.5265 0.73298-1.5265 1.5824v5.0295l3.037-0.2391v-5.0295c0.0746-0.80197-0.53531-1.4193-1.5105-1.3433z"
       inkscape:transform-center-x="9.8231898"
       inkscape:transform-center-y="0.83856498"
       inkscape:connector-curvature="0"
       style="color:#000000;fill:#000000" />
    <path
       id="path3209"
       style="color:#000000;fill:#000000"
       d="m429 471.61c-0.93864 0.0729-1.5265 0.73298-1.5265 1.5824v5.0295l3.037-0.2391v-5.0295c0.0746-0.80197-0.53531-1.4193-1.5105-1.3433z"
       sodipodi:nodetypes="sccccs"
       inkscape:transform-center-y="0.83856498"
       inkscape:connector-curvature="0"
       inkscape:transform-center-x="9.8231898" />
    <path
       id="path3211"
       sodipodi:nodetypes="sccccs"
       style="color:#000000;fill:#000000"
       inkscape:connector-curvature="0"
       d="m402.04 383.56c-0.93864-0.001-1.5265 0.6128-1.5265 1.4622v5.0295h3.037v-5.0295c0.0746-0.7961-0.53531-1.4614-1.5105-1.4622z" />
    <path
       id="path3213"
       d="m347.18 406.56c-0.93864 0.0729-1.5265 0.73299-1.5265 1.5824v5.0295l3.037-0.23911v-5.0295c0.0746-0.80198-0.53531-1.4192-1.5105-1.3433z"
       sodipodi:nodetypes="sccccs"
       style="color:#000000;fill:#000000"
       inkscape:connector-curvature="0" />
    <path
       id="path3232"
       style="color:#000000;fill:#917c6f"
       inkscape:connector-curvature="0"
       d="m345.06 496.19 1.9237-0.0934v3.8933l-1.9862 0.3563z" />
    <path
       id="path3234"
       sodipodi:nodetypes="ccccc"
       style="color:#000000;fill:#917c6f"
       inkscape:connector-curvature="0"
       d="m352.53 496.66 1.4688-0.625-0.21547 5.0044-1.4721 0.7456z" />
    <path
       id="path3236"
       style="color:#000000;fill:#c8beb7"
       inkscape:connector-curvature="0"
       d="m386.34 495.69-1.4424 0.0173-0.0299 4.672 1.4724 0.56072z" />
    <path
       id="path3238"
       style="color:#000000;fill:#c8beb7"
       inkscape:connector-curvature="0"
       d="m376.75 496.41-0.6536-0.13245 0.14974 5.271 0.62365 0.72606z" />
    <path
       id="path3242"
       style="color:#000000;fill:#e3dedb"
       inkscape:connector-curvature="0"
       d="m374.12 494.22 0.0312 0.59375c1.2294-0.004 2.4586-0.001 3.6875 0l-0.0625-0.59375c-0.87229-0.00098-1.6521-0.002-2.5938 0-0.32521 0.00058-0.72931-0.001-1.0625 0zm7.4688 0-0.0625 0.625c2.1589 0.0209 5.2203-0.0274 5.5 0.3125-0.90634 0.0966-1.2172 0.47986-2.125 0.5625l1.2812 0.15625c1.9437-0.25997 3.1562-0.55426 3.1562-0.875 0-0.52625-3.0256-0.72645-7.75-0.78125zm-15.812 0.0312 0.0312 0.59375c0.0924-0.00092 0.18901 0.001 0.28125 0 1.2718-0.003 2.5421-0.0245 3.8125-0.0312l0.0625-0.5625c-1.3109 0.006-2.5007 0-3.875 0-0.11045 0-0.2024-0.00005-0.3125 0zm-3.625 0.0312c-1.2323 0.008-2.4969 0.0151-3.6562 0.0312v0.59375c1.2793-0.009 2.5452-0.0268 3.8125-0.0312l-0.15625-0.59375zm-8.0938 0.0937c-1.4182 0.0379-2.7339 0.10074-3.9375 0.15625l0.5625 0.5625c1.3455-0.0676 2.6915-0.12673 4.0625-0.15625l-0.6875-0.5625zm-7.5312 0.375c-2.451 0.20621-3.9062 0.48183-3.9062 0.84375 0 0.28508 0.96768 0.48815 2.5312 0.65625l2.2812-0.5c-0.9563-0.0509-1.92-0.0993-2.875-0.15625 1.0594-0.13515 2.1484-0.25526 3.25-0.34375l-1.2812-0.5zm34.906 1c-0.9971 0.0744-3.4074 0.43897-5.3438 0.53125l0.59375 0.3125c2.3156-0.0917 4.407-0.41958 6.1875-0.5625l-1.45-0.27zm-31.45 0.14l-1.4062 0.59375v0.0312c1.184 0.0575 2.4804 0.11959 3.9375 0.15625 0.011 0.00028 0.0202-0.00028 0.0312 0l1.4375-0.625c-1.3334-0.0482-2.6683-0.0937-4-0.15625zm6.4375 0.25-0.28125 0.625c2.0784 0.0291 4.4575-0.007 6.8125 0l0.03-0.54c-2.1904-0.0149-4.3736-0.0306-6.5625-0.0937zm16.531 0c-2.1982 0.0744-4.3932 0.11179-6.5938 0.125l0.0625 0.5c2.3365 0.0493 4.7707-0.0121 6.8125-0.0625 0.0945-0.22049-0.1901-0.38019-0.28125-0.5625z" />
  </g>
  <metadata
     id="metadata431">
    <rdf:RDF>
      <cc:Work>
        <dc:format>image/svg+xml</dc:format>
        <dc:type
           rdf:resource="http://purl.org/dc/dcmitype/StillImage" />
        <cc:license
           rdf:resource="http://creativecommons.org/licenses/publicdomain/" />
        <dc:publisher>
          <cc:Agent
             rdf:about="http://openclipart.org/">
            <dc:title>Openclipart</dc:title>
          </cc:Agent>
        </dc:publisher>
        <dc:title>castle</dc:title>
        <dc:date>2011-12-31T07:43:51</dc:date>
        <dc:description />
        <dc:source>https://openclipart.org/detail/166730/castle-by-tzunghaor</dc:source>
        <dc:creator>
          <cc:Agent>
            <dc:title>tzunghaor</dc:title>
          </cc:Agent>
        </dc:creator>
        <dc:subject>
          <rdf:Bag>
            <rdf:li>architecture</rdf:li>
            <rdf:li>building</rdf:li>
            <rdf:li>castle</rdf:li>
            <rdf:li>fairy tale</rdf:li>
            <rdf:li>fortress</rdf:li>
            <rdf:li>hill</rdf:li>
            <rdf:li>mountain</rdf:li>
            <rdf:li>palace</rdf:li>
            <rdf:li>rpg</rdf:li>
            <rdf:li>tale</rdf:li>
            <rdf:li>tower</rdf:li>
          </rdf:Bag>
        </dc:subject>
      </cc:Work>
      <cc:License
         rdf:about="http://creativecommons.org/licenses/publicdomain/">
        <cc:permits
           rdf:resource="http://creativecommons.org/ns#Reproduction" />
        <cc:permits
           rdf:resource="http://creativecommons.org/ns#Distribution" />
        <cc:permits
           rdf:resource="http://creativecommons.org/ns#DerivativeWorks" />
      </cc:License>
    </rdf:RDF>
  </metadata>
</svg>
