<?xml version="1.0" encoding="UTF-8" standalone="no"?>
<svg
   xmlns:dc="http://purl.org/dc/elements/1.1/"
   xmlns:cc="http://creativecommons.org/ns#"
   xmlns:rdf="http://www.w3.org/1999/02/22-rdf-syntax-ns#"
   xmlns:svg="http://www.w3.org/2000/svg"
   xmlns="http://www.w3.org/2000/svg"
   xmlns:sodipodi="http://sodipodi.sourceforge.net/DTD/sodipodi-0.dtd"
   xmlns:inkscape="http://www.inkscape.org/namespaces/inkscape"
   inkscape:version="1.0 (4035a4fb49, 2020-05-01)"
   sodipodi:docname="new_std.svg"
   id="svg18"
   xml:space="preserve"
   enable-background="new 0 0 1000 1000"
   viewBox="0 0 1000 1000"
   y="0px"
   x="0px"
   version="1.1"><defs
   id="defs22" /><sodipodi:namedview
   inkscape:current-layer="svg18"
   inkscape:window-maximized="1"
   inkscape:window-y="-9"
   inkscape:window-x="-9"
   inkscape:cy="500"
   inkscape:cx="500"
   inkscape:zoom="0.83"
   showgrid="false"
   id="namedview20"
   inkscape:window-height="1001"
   inkscape:window-width="1920"
   inkscape:pageshadow="2"
   inkscape:pageopacity="0"
   guidetolerance="10"
   gridtolerance="10"
   objecttolerance="10"
   borderopacity="1"
   bordercolor="#666666"
   pagecolor="#ffffff" />
<metadata
   id="metadata2"> Svg Vector Icons : http://www.onlinewebfonts.com/icon <rdf:RDF><cc:Work
     rdf:about=""><dc:format>image/svg+xml</dc:format><dc:type
       rdf:resource="http://purl.org/dc/dcmitype/StillImage" /></cc:Work></rdf:RDF></metadata>
<g
   style="fill:#ffffff"
   id="g16"><path
     style="fill:#ffffff"
     id="path4"
     d="M619.5,586.4c-25.5-17.5-53-32.2-82.2-43.4c74.4-46.9,124.4-130.3,124.4-226.2c0-147.1-116.7-266.4-260.7-266.4S140.3,169.7,140.3,316.8c0,95.9,50,179.3,124.4,226.2C116.3,599.7,10,744.8,10,916.3c0,18.4,14.6,33.3,32.6,33.3c18,0,32.6-14.9,32.6-33.3c0-183.9,145.9-333.1,325.8-333.1c68.5,0,132,21.7,184.5,58.7C594.1,621.7,605.6,603.1,619.5,586.4z M205.5,316.8C205.5,206.4,293,117,401,117c108,0,195.5,89.5,195.5,199.8c0,110.4-87.5,199.8-195.5,199.8C293,516.7,205.5,427.2,205.5,316.8z" /><path
     style="fill:#ffffff"
     id="path6"
     d="M612.7,728c5.4,0,9.8,4.4,9.8,9.8s-4.4,9.8-9.8,9.8V728z" /><path
     style="fill:#ffffff"
     id="path8"
     d="M791.6,925.2c-109.4,0-198.4-88.4-198.4-197.1s89-197.1,198.4-197.1C901,530.9,990,619.3,990,728S901,925.2,791.6,925.2z M791.6,570c-87.9,0-159.3,70.9-159.3,158s71.5,158,159.3,158c87.9,0,159.3-70.9,159.3-158S879.4,570,791.6,570z" /><path
     style="fill:#ffffff"
     id="path10"
     d="M791.6,925.2c-109.4,0-198.4-88.4-198.4-197.1s89-197.1,198.4-197.1C901,530.9,990,619.3,990,728S901,925.2,791.6,925.2z M791.6,570c-87.9,0-159.3,70.9-159.3,158s71.5,158,159.3,158c87.9,0,159.3-70.9,159.3-158S879.4,570,791.6,570z" /><path
     style="fill:#ffffff"
     id="path12"
     d="M693.8,728c0-10.8,8.8-19.5,19.7-19.5h14.1c10.8,0,28.4,0,39.2,0h103.1c10.7,0,19.4,8.7,19.4,19.5l0,0c0,10.8-8.9,19.5-19.5,19.5H713.3C702.5,747.6,693.8,738.9,693.8,728L693.8,728z" /><path
     style="fill:#ffffff"
     id="path14"
     d="M791.6,825.8c10.8,0,19.5-8.8,19.5-19.7V792c0-10.8,0-28.4,0-39.2V649.7c0-10.7-8.7-19.4-19.5-19.4l0,0c-10.8,0-19.5,8.9-19.5,19.5v156.6C772,817.1,780.7,825.8,791.6,825.8L791.6,825.8z" /></g>
</svg>
