<?xml version="1.0" encoding="iso-8859-1"?>
<!-- Generator: Adobe Illustrator 19.0.0, SVG Export Plug-In . SVG Version: 6.00 Build 0)  -->
<svg version="1.1" id="Capa_1" xmlns="http://www.w3.org/2000/svg" xmlns:xlink="http://www.w3.org/1999/xlink" x="0px" y="0px"
	 viewBox="0 0 512 512" style="enable-background:new 0 0 512 512;" xml:space="preserve">
<circle style="fill:#64E1DC;" cx="256" cy="256" r="256"/>
<path style="fill:#00C8C8;" d="M503.097,323.097L315.5,135.5l-142.667,25.762L152.5,376.93l133.331,133.33
	C390.64,498.095,476.131,422.637,503.097,323.097z"/>
<path style="fill:#93D632;" d="M9.418,325C39.54,432.866,138.524,512,256,512s216.46-79.134,246.582-187H9.418z"/>
<path style="fill:#86C42B;" d="M255.571,325v186.995c0.143,0,0.285,0.005,0.429,0.005c117.476,0,216.46-79.134,246.582-187H255.571z
	"/>
<path style="fill:#78B22A;" d="M494.564,349H156.716l-84.837,84.836c9.286,9.613,19.316,18.499,30,26.568L173.284,389h301.472
	C482.466,376.345,489.113,362.973,494.564,349z"/>
<path style="fill:#679C20;" d="M494.564,349H255.571v40h219.185C482.466,376.345,489.113,362.973,494.564,349z"/>
<rect x="152.5" y="82.5" style="fill:#FFFFFF;" width="32" height="294.43"/>
<rect x="168.07" y="82.5" style="fill:#F0F0F0;" width="16.429" height="294.43"/>
<polygon style="fill:#DE4726;" points="315.5,135.5 184.5,188.5 184.5,82.5 "/>
<polygon style="fill:#D9351C;" points="184.5,135.5 184.5,188.5 315.5,135.5 "/>
<g>
</g>
<g>
</g>
<g>
</g>
<g>
</g>
<g>
</g>
<g>
</g>
<g>
</g>
<g>
</g>
<g>
</g>
<g>
</g>
<g>
</g>
<g>
</g>
<g>
</g>
<g>
</g>
<g>
</g>
</svg>
