<?xml version="1.0" encoding="iso-8859-1"?>
<!-- Generator: Adobe Illustrator 19.0.0, SVG Export Plug-In . SVG Version: 6.00 Build 0)  -->
<svg version="1.1" id="Capa_1" xmlns="http://www.w3.org/2000/svg" xmlns:xlink="http://www.w3.org/1999/xlink" x="0px" y="0px"
	 viewBox="0 0 512 512" style="enable-background:new 0 0 512 512;" xml:space="preserve">
<circle style="fill:#FFE733;" cx="256" cy="256" r="256"/>
<path style="fill:#F2D813;" d="M509.469,291.994L449,231.525l-4.318,4.487l-97.339-97.339l-11.092,26.055l-33.133-33.133
	l-11.096,32.645l-84.11-84.11l-74.912,34l44.869,44.869L133,172.672l54.073,54.073L133,236.25l68.871,68.871L133,312.417
	l55.994,55.994L133,373.477l51.668,51.668L133,434.537l72.465,72.465C221.803,510.273,238.699,512,256,512
	C385.166,512,491.97,416.333,509.469,291.994z"/>
<rect x="330.34" y="239.07" style="fill:#414952;" width="106.38" height="34"/>
<rect x="330.34" y="255.91" style="fill:#333940;" width="106.38" height="17.17"/>
<rect x="358.98" y="231.53" style="fill:#DE4726;" width="90.02" height="48.16"/>
<rect x="358.98" y="255.91" style="fill:#D9351C;" width="90.02" height="23.775"/>
<polygon style="fill:#414952;" points="347.343,373.477 133,373.477 133,339.477 313.343,339.477 313.343,172.672 133,172.672 
	133,138.672 347.343,138.672 "/>
<polygon style="fill:#333940;" points="313.343,255.905 313.343,339.477 133,339.477 133,373.477 347.343,373.477 347.343,255.905 
	"/>
<rect x="217.82" y="131.59" style="fill:#DE4726;" width="85.3" height="48.16"/>
<rect x="217.82" y="330.27" style="fill:#D9351C;" width="85.3" height="48.16"/>
<polygon style="fill:#414952;" points="207.912,236.25 133,236.25 133,202.25 173.912,202.25 173.912,114.13 133,114.13 133,80.13 
	207.912,80.13 "/>
<polygon style="fill:#333940;" points="207.912,434.537 133,434.537 133,400.537 173.912,400.537 173.912,312.417 133,312.417 
	133,278.417 207.912,278.417 "/>
<g>
</g>
<g>
</g>
<g>
</g>
<g>
</g>
<g>
</g>
<g>
</g>
<g>
</g>
<g>
</g>
<g>
</g>
<g>
</g>
<g>
</g>
<g>
</g>
<g>
</g>
<g>
</g>
<g>
</g>
</svg>
