<svg height="512pt" viewBox="-31 0 512 512" width="512pt" xmlns="http://www.w3.org/2000/svg"><path d="m317.101562 301.398438-30.300781 70.503906-61.800781 44.699218-17.699219 12.898438-69.300781-85.800781-2.097656-43.800781 28.496094-14.398438h121.203124zm0 0" fill="#ffbfab"/><path d="m317.101562 301.398438-30.300781 70.503906-61.800781 44.699218v-131.101562h60.601562zm0 0" fill="#ffa78f"/><path d="m408.546875 347-91.300781-45.65625-110.046875 122.453125 19.941406 58.734375 90.464844 29.46875h42.394531l15-30 15 30h45c8.289062 0 15-6.710938 15-15v-82.925781c0-28.578125-15.878906-54.269531-41.453125-67.074219zm0 0" fill="#d8d8fc"/><path d="m255 0h-60c-57.898438 0-105 47.101562-105 105 0 8.402344 6.597656 15 15 15h240c8.402344 0 15-6.597656 15-15 0-57.898438-47.101562-105-105-105zm0 0" fill="#e63950"/><path d="m360 105c0 8.402344-6.597656 15-15 15h-120v-120h30c57.898438 0 105 47.101562 105 105zm0 0" fill="#cc2e43"/><path d="m360 172.5-30 54.5c0 57.898438-47.101562 105-105 105s-105-47.101562-105-105l-30-53.597656 30-53.402344h210zm0 0" fill="#ffcebf"/><path d="m360 172.5-30 54.5c0 57.898438-47.101562 105-105 105v-212h105zm0 0" fill="#ffbfab"/><path d="m390 120v152c0 16.5-13.5 30-30 30h-30c-16.5 0-30-13.5-30-30 0-12.597656 8.101562-23.699219 20.097656-28.199219l9.902344-3.601562v-90.199219h-210v90.199219l9.902344 3.601562c11.996094 4.5 20.097656 15.601563 20.097656 28.199219 0 16.5-13.5 30-30 30h-30c-16.5 0-30-13.5-30-30v-152c0-16.5 13.5-30 30-30h270c16.5 0 30 13.5 30 30zm0 0" fill="#ff667c"/><path d="m390 120v152c0 16.5-13.5 30-30 30h-30c-16.5 0-30-13.5-30-30 0-12.597656 8.101562-23.699219 20.097656-28.199219l9.902344-3.601562v-90.199219h-105v-60h135c16.5 0 30 13.5 30 30zm0 0" fill="#e63950"/><path d="m375 422c-8.285156 0-15 6.714844-15 15v75h30v-75c0-8.285156-6.714844-15-15-15zm0 0" fill="#a3a3d1"/><path d="m225 404-89.097656-104.101562-94.503906 47.101562c-25.496094 12.898438-41.398438 38.402344-41.398438 67.199219v82.800781c0 8.402344 6.597656 15 15 15h45l15-30 15 30h227.699219zm0 0" fill="#f2f2fc"/><path d="m90 437c0-8.285156-6.714844-15-15-15s-15 6.714844-15 15v75h30zm0 0" fill="#d8d8fc"/></svg>