<?xml version="1.0" encoding="iso-8859-1"?>
<!-- Generator: Adobe Illustrator 19.0.0, SVG Export Plug-In . SVG Version: 6.00 Build 0)  -->
<svg version="1.1" id="Capa_1" xmlns="http://www.w3.org/2000/svg" xmlns:xlink="http://www.w3.org/1999/xlink" x="0px" y="0px"
	 viewBox="0 0 512 512" style="enable-background:new 0 0 512 512;" xml:space="preserve">
<circle style="fill:#3D7ED9;" cx="256" cy="256" r="256"/>
<g>
	<path style="fill:#466EB2;" d="M467.689,399.983L175.802,108.095l-35.161,85.309l33.011,76.699l208.623,208.623
		C416.415,459.329,445.658,432.312,467.689,399.983z"/>
	<path style="fill:#466EB2;" d="M211.814,333.064l-74.713,74.713l103.765,103.765C245.875,511.835,250.918,512,256,512
		c39.369,0,76.656-8.896,109.977-24.773L211.814,333.064z"/>
	<path style="fill:#466EB2;" d="M510.652,229.597l-97.685-97.685l-74.713,74.713L490.48,358.852
		C504.308,327.372,512,292.587,512,256C512,247.085,511.542,238.277,510.652,229.597z"/>
</g>
<polygon style="fill:#FFFFFF;" points="211.814,333.064 185.651,306.901 161.376,331.176 137.101,306.901 110.938,333.064 
	135.213,357.339 110.938,381.615 137.101,407.778 161.376,383.502 185.651,407.778 211.814,381.615 187.539,357.339 "/>
<polygon style="fill:#F0F0F0;" points="412.967,131.912 386.804,105.749 362.529,130.024 338.253,105.749 312.09,131.912 
	336.365,156.187 312.09,180.462 338.253,206.625 362.529,182.35 386.804,206.625 412.967,180.462 388.692,156.187 "/>
<path style="fill:#F7D139;" d="M348.745,408.645l-36.851-3.316l18.425,1.658l-18.428-1.627c0.078-0.903,7.211-90.961-44.937-149.309
	c-28.95-32.392-71.448-49.533-126.313-50.948l0.953-36.988c65.597,1.691,117.124,23.058,153.151,63.507
	C357.537,302.122,349.133,404.329,348.745,408.645z"/>
<path style="fill:#F2C230;" d="M294.745,231.623c-11.493-12.904-24.572-23.857-39.174-32.858v45.951
	c4,3.544,7.796,7.321,11.383,11.334c52.148,58.348,45.015,148.406,44.937,149.309l18.428,1.627l-18.425-1.658l18.425,1.658
	l18.425,1.658C349.133,404.329,357.537,302.122,294.745,231.623z"/>
<polygon style="fill:#F7D139;" points="173.652,270.104 93.722,190.175 175.802,108.095 201.965,134.259 146.048,190.175 
	199.815,243.941 "/>
<g>
</g>
<g>
</g>
<g>
</g>
<g>
</g>
<g>
</g>
<g>
</g>
<g>
</g>
<g>
</g>
<g>
</g>
<g>
</g>
<g>
</g>
<g>
</g>
<g>
</g>
<g>
</g>
<g>
</g>
</svg>
