<svg height="512pt" viewBox="-31 0 512 512" width="512pt" xmlns="http://www.w3.org/2000/svg"><path d="m41.398438 345c-25.496094 12.898438-41.398438 38.402344-41.398438 67.199219v84.800781c0 8.289062 6.710938 15 15 15h75l30-88.875-30-102.425781zm0 0" fill="#2ac1ff"/><path d="m408.601562 345-48.601562-24.300781-30 112.425781 30 78.875h75c8.289062 0 15-6.710938 15-15v-84.800781c0-28.796875-15.902344-54.300781-41.398438-67.199219zm0 0" fill="#008de4"/><path d="m360 320.699219v191.300781h-270v-191.300781l60-30h150zm0 0" fill="#53433f"/><path d="m360 320.699219v191.300781h-135v-221.300781h75zm0 0" fill="#3e322e"/><path d="m148.988281 274.539062c-30.175781 21.8125-63.808593 37.457032-99.945312 46.496094l-37.675781 9.417969c-5.246094 1.304687-9.375 5.332031-10.824219 10.546875-1.4375 5.199219.027343 10.78125 3.851562 14.605469l60 60c2.8125 2.8125 6.621094 4.394531 10.605469 4.394531 38.699219 0 75.601562-16.65625 101.25-45.6875zm0 0" fill="#68544f"/><path d="m449.457031 341c-1.449219-5.214844-5.578125-9.242188-10.824219-10.546875l-37.675781-9.417969c-36.136719-9.039062-69.769531-24.683594-99.945312-46.496094l-27.261719 99.773438c25.648438 29.03125 62.550781 45.6875 101.25 45.6875 3.984375 0 7.792969-1.582031 10.605469-4.394531l60-60c3.824219-3.824219 5.289062-9.40625 3.851562-14.605469zm0 0" fill="#53433f"/><path d="m300 292.800781v112.199219c0 8.398438-6.597656 15-15 15h-120c-8.402344 0-15-6.601562-15-15v-112.199219c0-8.101562 6.597656-15 15-15h120c8.402344 0 15 6.898438 15 15zm0 0" fill="#725d57"/><path d="m300 292.800781v112.199219c0 8.398438-6.597656 15-15 15h-60v-142.199219h60c8.402344 0 15 6.898438 15 15zm0 0" fill="#68544f"/><path d="m225 0c-81.898438 0-135 58.800781-135 150 0 99.300781 60.601562 180 135 180s135-80.699219 135-180c0-91.199219-53.101562-150-135-150zm0 0" fill="#725d57"/><path d="m360 150c0 99.300781-60.601562 180-135 180v-330c81.898438 0 135 58.800781 135 150zm0 0" fill="#53433f"/><path d="m225 30c-65.699219 0-105 45-105 120 0 82.800781 47.101562 150 105 150s105-67.199219 105-150c0-75-39.300781-120-105-120zm0 0" fill="#f2f2fc"/><path d="m330 150c0 82.800781-47.101562 150-105 150v-270c65.699219 0 105 45 105 120zm0 0" fill="#d8d8fc"/><path d="m240 15v300c0 8.398438-6.597656 15-15 15s-15-6.601562-15-15v-300c0-8.402344 6.597656-15 15-15s15 6.597656 15 15zm0 0" fill="#725d57"/><path d="m354.902344 105c0 8.402344-6.601563 15-15 15h-229.804688c-8.398437 0-15-6.597656-15-15s6.601563-15 15-15h229.800782c8.402343 0 15.003906 6.597656 15.003906 15zm0 0" fill="#725d57"/><path d="m359.398438 165c0 8.398438-6.597657 15-15 15h-238.796876c-8.402343 0-15-6.601562-15-15 0-8.402344 6.597657-15 15-15h238.796876c8.402343 0 15 6.597656 15 15zm0 0" fill="#725d57"/><path d="m346.800781 225c0 8.398438-6.601562 15-15 15h-213.601562c-8.398438 0-15-6.601562-15-15 0-8.402344 6.601562-15 15-15h213.601562c8.398438 0 15 6.597656 15 15zm0 0" fill="#725d57"/><g fill="#53433f"><path d="m240 15v300c0 8.398438-6.597656 15-15 15v-330c8.402344 0 15 6.597656 15 15zm0 0"/><path d="m346.800781 225c0 8.398438-6.601562 15-15 15h-106.800781v-30h106.800781c8.398438 0 15 6.597656 15 15zm0 0"/><path d="m339.902344 120h-114.902344v-30h114.902344c8.398437 0 15 6.597656 15 15s-6.601563 15-15 15zm0 0"/><path d="m359.398438 165c0 8.398438-6.597657 15-15 15h-119.398438v-30h119.398438c8.402343 0 15 6.597656 15 15zm0 0"/></g></svg>