<?xml version="1.0" encoding="iso-8859-1"?>
<!-- Generator: Adobe Illustrator 19.0.0, SVG Export Plug-In . SVG Version: 6.00 Build 0)  -->
<svg version="1.1" id="Capa_1" xmlns="http://www.w3.org/2000/svg" xmlns:xlink="http://www.w3.org/1999/xlink" x="0px" y="0px"
	 viewBox="0 0 512 512" style="enable-background:new 0 0 512 512;" xml:space="preserve">
<circle style="fill:#64E1DC;" cx="256" cy="256" r="256"/>
<path style="fill:#00C8C8;" d="M512,256c0-3.378-0.086-6.736-0.216-10.082L412.5,146.634l-286.095,22.962L99.5,364.366
	l147.458,147.458c3.003,0.104,6.014,0.176,9.042,0.176C397.385,512,512,397.385,512,256z"/>
<path style="fill:#788CAA;" d="M395.5,232.5v-34h-36v-34.866h-34V198.5h-23.667v-34.866h-34V198.5h-23.667v-34.866h-34V198.5H186.5
	v-34.866h-34V198.5h-36v34h36v23h-36v34h36v20h-36v34h36v34.866h34V343.5h23.667v34.866h34V343.5h23.667v34.866h34V343.5H325.5
	v34.866h34V343.5h36v-34h-36v-20h36v-34h-36v-23H395.5z M267.833,232.5v23h-23.667v-23H267.833z M186.5,232.5h23.667v23H186.5V232.5
	z M186.5,309.5v-20h23.667v20H186.5z M244.167,309.5v-20h23.667v20H244.167z M325.5,309.5h-23.667v-20H325.5V309.5z M325.5,255.5
	h-23.667v-23H325.5V255.5z"/>
<path style="fill:#6D7D99;" d="M395.5,232.5v-34h-36v-34.866h-34V198.5h-23.667v-34.866h-34V198.5h-12.262v34h12.262v23h-12.262v34
	h12.262v20h-12.262v34h12.262v34.866h34V343.5H325.5v34.866h34V343.5h36v-34h-36v-20h36v-34h-36v-23H395.5z M325.5,309.5h-23.667
	v-20H325.5V309.5z M325.5,255.5h-23.667v-23H325.5V255.5z"/>
<path style="fill:#93D632;" d="M9.418,325C39.54,432.866,138.524,512,256,512s216.46-79.134,246.582-187H9.418z"/>
<path style="fill:#86C42B;" d="M255.571,325v186.995c0.143,0,0.285,0.005,0.429,0.005c117.476,0,216.46-79.134,246.582-187H255.571z
	"/>
<polygon style="fill:#FFFFFF;" points="412.5,364.366 378.5,364.366 378.5,180.634 133.5,180.634 133.5,364.366 99.5,364.366 
	99.5,146.634 412.5,146.634 "/>
<polygon style="fill:#F0F0F0;" points="255.571,146.634 255.571,180.634 378.5,180.634 378.5,364.366 412.5,364.366 412.5,146.634 
	"/>
<g>
</g>
<g>
</g>
<g>
</g>
<g>
</g>
<g>
</g>
<g>
</g>
<g>
</g>
<g>
</g>
<g>
</g>
<g>
</g>
<g>
</g>
<g>
</g>
<g>
</g>
<g>
</g>
<g>
</g>
</svg>
