<svg height="512pt" viewBox="-31 0 512 512" width="512pt" xmlns="http://www.w3.org/2000/svg"><path d="m450 412.199219v84.800781c0 8.398438-6.597656 15-15 15h-45l-15-30-15 30h-270l-15-30-15 30h-45c-8.402344 0-15-6.601562-15-15v-84.800781c0-28.800781 15.902344-54.300781 41.398438-67.199219l68.101562-33.898438h231l68.101562 33.898438c25.496094 12.898438 41.398438 38.398438 41.398438 67.199219zm0 0" fill="#62de83"/><path d="m450 412.199219v84.800781c0 8.398438-6.597656 15-15 15h-45l-15-30-15 30h-135v-200.898438h115.5l68.101562 33.898438c25.496094 12.898438 41.398438 38.398438 41.398438 67.199219zm0 0" fill="#3bc480"/><path d="m340.5 311.101562-106.5 75.898438c-2.699219 2.097656-5.699219 3-9 3s-6.300781-.902344-9-3l-106.5-75.898438 54.898438-27.601562h121.203124zm0 0" fill="#f2f2fc"/><path d="m340.5 311.101562-106.5 75.898438c-2.699219 2.097656-5.699219 3-9 3v-106.5h60.601562zm0 0" fill="#d8d8fc"/><path d="m330 150v75c0 57.898438-47.101562 105-105 105s-105-47.101562-105-105v-75l38.699219-30h132.601562zm0 0" fill="#fed2a4"/><path d="m330 150v75c0 57.898438-47.101562 105-105 105v-210h66.300781zm0 0" fill="#ffbd86"/><path d="m75 420c-8.285156 0-15 6.714844-15 15v77h30v-77c0-8.285156-6.714844-15-15-15zm0 0" fill="#3bc480"/><path d="m375 420c-8.285156 0-15 6.714844-15 15v77h30v-77c0-8.285156-6.714844-15-15-15zm0 0" fill="#31a66e"/><path d="m255 420h-30v30h30c8.289062 0 15-6.710938 15-15s-6.710938-15-15-15zm0 0" fill="#53433f"/><path d="m330 135v15h-38.699219l-25.800781 25.5c-2.699219 3-6.601562 4.5-10.5 4.5h-60c-3.898438 0-7.800781-1.5-10.5-4.5l-25.800781-25.5h-38.699219v-15c0-5.101562.902344-10.199219 1.5-15 7.199219-50.699219 50.699219-90 103.5-90s96.300781 39.300781 103.5 90c.597656 4.800781 1.5 9.898438 1.5 15zm0 0" fill="#53433f"/><path d="m255 180h-30v-150c52.800781 0 96.300781 39.300781 103.5 90 .597656 4.800781 1.5 9.898438 1.5 15v15h-38.699219l-25.800781 25.5c-2.699219 3-6.601562 4.5-10.5 4.5zm0 0" fill="#3e322e"/><path d="m240 15v60c0 8.398438-6.597656 15-15 15s-15-6.601562-15-15v-60c0-8.402344 6.597656-15 15-15s15 6.597656 15 15zm0 0" fill="#53433f"/><path d="m240 15v60c0 8.398438-6.597656 15-15 15v-90c8.402344 0 15 6.597656 15 15zm0 0" fill="#3e322e"/></svg>