<?xml version="1.0" encoding="iso-8859-1"?>
<!-- Generator: Adobe Illustrator 19.0.0, SVG Export Plug-In . SVG Version: 6.00 Build 0)  -->
<svg version="1.1" id="Capa_1" xmlns="http://www.w3.org/2000/svg" xmlns:xlink="http://www.w3.org/1999/xlink" x="0px" y="0px"
	 viewBox="0 0 512 512" style="enable-background:new 0 0 512 512;" xml:space="preserve">
<circle style="fill:#FF9500;" cx="256" cy="256" r="256"/>
<path style="fill:#FE8205;" d="M511.925,261.963L347.062,97.1L118.071,235.667l-36.009,151.67l118.66,118.661
	C218.526,509.916,237.019,512,256,512C395.391,512,508.755,400.593,511.925,261.963z"/>
<circle style="fill:#FFFFFF;" cx="256" cy="197.45" r="135.51"/>
<path style="fill:#F0F0F0;" d="M256,61.943c-0.143,0-0.285,0.005-0.429,0.005v271.006c0.143,0,0.285,0.005,0.429,0.005
	c74.839,0,135.509-60.669,135.509-135.509S330.839,61.943,256,61.943z"/>
<polygon style="fill:#555A66;" points="256,141.629 203.674,179.646 223.661,241.159 288.339,241.159 308.326,179.646 "/>
<polygon style="fill:#414952;" points="308.326,179.646 256,141.629 255.571,141.94 255.571,241.159 288.339,241.159 "/>
<path style="fill:#555A66;" d="M206.801,71.156L256,106.901l49.199-35.745c-15.252-5.946-31.843-9.213-49.199-9.213
	S222.053,65.21,206.801,71.156z"/>
<g>
	<path style="fill:#414952;" d="M305.199,71.156c-15.252-5.946-31.843-9.213-49.199-9.213c-0.143,0-0.285,0.004-0.429,0.005v44.642
		l0.429,0.311L305.199,71.156z"/>
	<path style="fill:#414952;" d="M341.646,168.414l49.681,36.095c0.12-2.338,0.182-4.691,0.182-7.058
		c0-32.882-11.715-63.025-31.194-86.492L341.646,168.414z"/>
	<path style="fill:#414952;" d="M290.363,328.559c33.43-8.738,61.828-29.92,79.944-58.304h-60.999L290.363,328.559z"/>
</g>
<g>
	<path style="fill:#555A66;" d="M151.685,110.959c-19.479,23.467-31.194,53.611-31.194,86.492c0,2.368,0.062,4.721,0.182,7.058
		l49.681-36.095L151.685,110.959z"/>
	<path style="fill:#555A66;" d="M202.693,270.256h-60.999c18.116,28.384,46.513,49.566,79.944,58.304L202.693,270.256z"/>
</g>
<path style="fill:#4A98F7;" d="M297.086,300.732c-6.477-8.933-18.969-10.924-27.902-4.447l-30.714,22.269l17.419-109.279
	c1.127-7.071-3.709-13.741-10.78-14.869c-7.071-1.127-13.741,3.709-14.868,10.78l-12.437,78.024l-13.299-2.12l14.977-93.957
	c1.127-7.071-3.709-13.741-10.78-14.869s-13.741,3.709-14.869,10.78l-14.977,93.957l-13.299-2.12l12.437-78.024
	c1.127-7.071-3.709-13.741-10.78-14.869s-13.741,3.709-14.868,10.78l-12.437,78.024l-13.299-2.12l6.952-43.614
	c1.127-7.071-3.709-13.742-10.78-14.869s-13.742,3.709-14.869,10.78l-25.85,166.365l142.491,22.713l5.022-35.693l63.063-45.723
	C301.572,322.157,303.563,309.665,297.086,300.732z"/>
<path style="fill:#4A7AFF;" d="M297.086,300.732c-6.477-8.933-18.969-10.924-27.902-4.447l-30.714,22.269l17.419-109.279
	c1.127-7.071-3.709-13.741-10.78-14.868c-7.072-1.127-13.741,3.708-14.869,10.78l-12.437,78.024l-13.299-2.12l14.977-93.958
	c1.127-7.071-3.709-13.741-10.781-14.869c-0.48-0.076-0.958-0.12-1.433-0.143l-42.073,228.466l59.359,9.461l5.021-35.692
	l63.063-45.723C301.572,322.157,303.563,309.665,297.086,300.732z"/>
<path style="fill:#2864F0;" d="M214.32,300.732c6.477-8.933,18.969-10.924,27.902-4.447l30.714,22.269l-17.419-109.279
	c-1.127-7.071,3.709-13.741,10.78-14.869c7.071-1.127,13.741,3.709,14.869,10.78l12.437,78.024l13.299-2.12l-14.977-93.957
	c-1.127-7.071,3.709-13.741,10.781-14.869c7.071-1.127,13.741,3.709,14.868,10.78l14.977,93.957l13.299-2.12l-12.437-78.024
	c-1.127-7.071,3.709-13.741,10.78-14.869s13.741,3.709,14.868,10.78l12.437,78.024l13.299-2.12l-6.952-43.614
	c-1.127-7.071,3.709-13.742,10.78-14.869s13.742,3.709,14.869,10.78l26.444,166.226l-142.491,22.713l-5.615-35.554l-63.063-45.723
	C209.835,322.157,207.844,309.665,214.32,300.732z"/>
<path style="fill:#0053BF;" d="M403.494,220.972c-1.127-7.071-7.798-11.907-14.869-10.78c-7.071,1.127-11.907,7.797-10.78,14.869
	l6.952,43.614l-13.299,2.12l-12.437-78.024c-1.127-7.071-7.797-11.907-14.869-10.78c-7.071,1.127-11.907,7.797-10.78,14.869
	l12.437,78.024l-13.299,2.12l-14.977-93.958c-1.127-7.071-7.797-11.907-14.868-10.78c-0.3,0.048-0.589,0.12-0.881,0.187
	L341.66,401.27l88.278-14.071L403.494,220.972z"/>
<g>
</g>
<g>
</g>
<g>
</g>
<g>
</g>
<g>
</g>
<g>
</g>
<g>
</g>
<g>
</g>
<g>
</g>
<g>
</g>
<g>
</g>
<g>
</g>
<g>
</g>
<g>
</g>
<g>
</g>
</svg>
