<svg height="512pt" viewBox="0 0 512 512" width="512pt" xmlns="http://www.w3.org/2000/svg"><path d="m121 0c-33.089844 0-60 26.910156-60 60v62.578125c0 23.011719-9.332031 45.542969-25.605469 61.816406-4.292969 4.292969-5.582031 10.738281-3.25 16.347657 2.3125 5.609374 7.792969 9.257812 13.855469 9.257812h30c41.351562 0 75-33.648438 75-75l30-75c0-33.089844-26.910156-60-60-60zm0 0" fill="#fdbf00"/><path d="m416.605469 184.394531c-16.273438-16.273437-25.605469-38.804687-25.605469-61.816406v-62.578125c0-33.089844-26.910156-60-60-60s-60 26.910156-60 60l30 75c0 41.351562 33.648438 75 75 75h30c6.0625 0 11.542969-3.648438 13.855469-9.257812 2.332031-5.609376 1.042969-12.054688-3.25-16.347657zm0 0" fill="#ff9f00"/><path d="m409.550781 345.003906-48.550781-24.28125-30 102.089844 30 89.1875h45l45-45v-54.925781c0-28.402344-16.046875-54.367188-41.449219-67.070313zm0 0" fill="#ffa78f"/><path d="m42.453125 345c-25.574219 12.804688-42.453125 38.496094-42.453125 67.074219v84.925781c0 8.289062 6.710938 15 15 15h76l30-86.375-30-104.902344zm0 0" fill="#ffbfab"/><path d="m361 320.699219v191.300781h-270v-191.300781l74.398438-37.199219h121.203124zm0 0" fill="#ff7cb9"/><path d="m361 320.699219v191.300781h-135v-228.5h60.601562zm0 0" fill="#ff3997"/><path d="m301 300v45c0 41.398438-33.601562 75-75 75s-75-33.601562-75-75v-45c0-8.402344 6.597656-15 15-15h120c8.402344 0 15 6.597656 15 15zm0 0" fill="#f2f2fc"/><path d="m301 300v45c0 41.398438-33.601562 75-75 75v-135h60c8.402344 0 15 6.597656 15 15zm0 0" fill="#d8d8fc"/><path d="m271 240v105c0 24.898438-20.097656 45-45 45s-45-20.101562-45-45v-105zm0 0" fill="#ffbfab"/><path d="m271 240v105c0 24.898438-20.097656 45-45 45v-150zm0 0" fill="#ffa78f"/><path d="m331 135v15l-27.597656 30h-149.703125l-32.699219-30v-15c0-57.898438 47.101562-105 105-105 28.800781 0 55.199219 11.699219 74.097656 30.898438 19.203125 18.902343 30.902344 45.300781 30.902344 74.101562zm0 0" fill="#fdbf00"/><path d="m331 135v15l-27.597656 30h-77.402344v-150c28.800781 0 55.199219 11.699219 74.097656 30.898438 19.203125 18.902343 30.902344 45.300781 30.902344 74.101562zm0 0" fill="#ff9f00"/><path d="m331 150v75c0 57.898438-47.101562 105-105 105s-105-47.101562-105-105v-75h32.699219c26.101562 0 51.902343-9 72.300781-24.902344 20.398438 15.902344 46.199219 24.902344 72.300781 24.902344zm0 0" fill="#ffcebf"/><path d="m331 150v75c0 57.898438-47.101562 105-105 105v-204.902344c20.398438 15.902344 46.199219 24.902344 72.300781 24.902344zm0 0" fill="#ffbfab"/><path d="m512 405c0-14.402344-6.898438-27.601562-18.300781-36 2.101562-13.800781-2.097657-27.898438-12.300781-38.101562-10.5-10.5-25.597657-14.699219-39.398438-12.597657-8.402344-11.402343-21.601562-18.300781-36-18.300781s-27.597656 6.898438-36 18.300781c-13.5-2.101562-27.898438 2.097657-38.097656 12.296875-10.503906 10.503906-14.703125 24.601563-12.601563 38.402344-11.402343 8.398438-18.300781 21.597656-18.300781 36 0 14.398438 6.898438 27.597656 18.300781 36-2.101562 13.800781 2.097657 29.898438 12.300781 40.097656 10.5 10.503906 24.597657 14.703125 38.398438 12.601563 8.402344 11.398437 21.601562 18.300781 36 18.300781s27.597656-6.902344 36-18.300781c13.800781 2.097656 28.898438-2.097657 39.097656-12.300781 10.503906-10.5 14.703125-26.597657 12.601563-40.398438 11.402343-8.402344 18.300781-21.601562 18.300781-36zm0 0" fill="#ffd400"/><path d="m493.699219 441c2.101562 13.800781-2.097657 29.898438-12.601563 40.398438-10.199218 10.203124-25.296875 14.402343-39.097656 12.300781-8.402344 11.398437-21.601562 18.300781-36 18.300781v-212c14.398438 0 27.597656 6.898438 36 18.300781 13.800781-2.101562 28.898438 2.097657 39.398438 12.597657 10.203124 10.203124 14.402343 24.300781 12.300781 38.101562 11.402343 8.398438 18.300781 21.597656 18.300781 36 0 14.398438-6.898438 27.597656-18.300781 36zm0 0" fill="#fdbf00"/><path d="m421 405c0 8.398438-6.597656 15-15 15s-15-6.601562-15-15c0-8.402344 6.597656-15 15-15s15 6.597656 15 15zm0 0" fill="#fdbf00"/><path d="m421 405c0 8.398438-6.597656 15-15 15v-30c8.402344 0 15 6.597656 15 15zm0 0" fill="#ff9f00"/></svg>