<svg height="512pt" viewBox="0 0 512 512" width="512pt" xmlns="http://www.w3.org/2000/svg"><path d="m451 15v270c0 8.398438-6.597656 15-15 15s-15-6.601562-15-15v-270c0-8.402344 6.597656-15 15-15s15 6.597656 15 15zm0 0" fill="#68544f"/><path d="m451 15v270c0 8.398438-6.597656 15-15 15v-300c8.402344 0 15 6.597656 15 15zm0 0" fill="#3e322e"/><path d="m409.546875 345-48.546875-24.277344-30 102.089844 30 89.1875h75c8.289062 0 15-6.710938 15-15v-84.925781c0-28.578125-15.878906-54.269531-41.453125-67.074219zm0 0" fill="#99503d"/><path d="m42.453125 345c-25.574219 12.804688-42.453125 38.496094-42.453125 67.074219v84.925781c0 8.289062 6.710938 15 15 15h76l30-86.375-30-104.902344zm0 0" fill="#b35f49"/><path d="m361 320.699219v191.300781h-270v-191.300781l74.398438-37.199219h121.203124zm0 0" fill="#62de83"/><path d="m361 320.699219v191.300781h-135v-228.5h60.601562zm0 0" fill="#3bc480"/><path d="m301 270v105c0 41.398438-33.601562 75-75 75s-75-33.601562-75-75v-105zm0 0" fill="#f2f2fc"/><path d="m301 270v105c0 41.398438-33.601562 75-75 75v-180zm0 0" fill="#d8d8fc"/><path d="m271 270v105c0 24.898438-20.097656 45-45 45s-45-20.101562-45-45v-105zm0 0" fill="#b35f49"/><path d="m271 270v105c0 24.898438-20.097656 45-45 45v-150zm0 0" fill="#99503d"/><path d="m497 30h-121c-8.402344 0-15 6.597656-15 15v30c0 8.398438 6.597656 15 15 15h121c8.402344 0 15-6.601562 15-15v-30c0-8.402344-6.597656-15-15-15zm0 0" fill="#2ac1ff"/><path d="m497 210h-121c-8.402344 0-15 6.597656-15 15v30c0 8.398438 6.597656 15 15 15h121c8.402344 0 15-6.601562 15-15v-30c0-8.402344-6.597656-15-15-15zm0 0" fill="#2ac1ff"/><path d="m331 135v90c0 57.898438-47.101562 105-105 105s-105-47.101562-105-105v-90c0-29.402344 12-55.800781 31.5-74.699219h147c19.5 18.898438 31.5 45.296875 31.5 74.699219zm0 0" fill="#c6715a"/><path d="m331 135v90c0 57.898438-47.101562 105-105 105v-269.699219h73.5c19.5 18.898438 31.5 45.296875 31.5 74.699219zm0 0" fill="#b35f49"/><path d="m299.5 60.300781c-7.199219 33.898438-37.199219 59.699219-73.5 59.699219s-66.300781-25.800781-73.5-59.699219c18.898438-18.601562 45-30.300781 73.5-30.300781s54.601562 11.699219 73.5 30.300781zm0 0" fill="#53433f"/><path d="m299.5 60.300781c-7.199219 33.898438-37.199219 59.699219-73.5 59.699219v-90c28.5 0 54.601562 11.699219 73.5 30.300781zm0 0" fill="#3e322e"/><g fill="#008de4"><path d="m512 45v30c0 8.398438-6.597656 15-15 15h-61v-60h61c8.402344 0 15 6.597656 15 15zm0 0"/><path d="m512 225v30c0 8.398438-6.597656 15-15 15h-61v-60h61c8.402344 0 15 6.597656 15 15zm0 0"/></g></svg>