<svg height="512pt" viewBox="-31 0 512 512.00026" width="512pt" xmlns="http://www.w3.org/2000/svg"><path d="m0 497c0 8.292969 6.707031 15 15 15h74.996094l30-30-30-31.996094-46.871094-30-43.125 30zm0 0" fill="#ffbd86"/><path d="m359.984375 512h74.996094c8.292969 0 15-6.707031 15-15v-46.996094l-44.0625-30-45.933594 30-30 33.871094zm0 0" fill="#f6a96c"/><path d="m449.980469 412.203125v37.800781h-89.996094v61.996094h-269.988281v-61.996094h-89.996094v-37.800781c0-28.796875 15.902344-54.296875 41.398438-67.195313l108.59375-54.296874 30 24.296874h89.996093l30-24.296874 108.59375 54.296874c25.5 12.898438 41.398438 38.398438 41.398438 67.195313zm0 0" fill="#f2f2fc"/><path d="m449.980469 412.203125v37.800781h-89.996094v61.996094h-134.992187v-196.992188h44.996093l30-24.296874 108.59375 54.296874c25.5 12.898438 41.398438 38.398438 41.398438 67.195313zm0 0" fill="#d8d8fc"/><path d="m239.988281 405.003906v30c0 8.398438-6.597656 15-14.996093 15-8.402344 0-15-6.601562-15-15v-30c0-8.398437 6.597656-15 15-15 8.398437 0 14.996093 6.601563 14.996093 15zm0 0" fill="#d8d8fc"/><path d="m239.988281 405.003906v30c0 8.398438-6.597656 15-14.996093 15v-60c8.398437 0 14.996093 6.601563 14.996093 15zm0 0" fill="#a3a3d1"/><path d="m299.988281 290.710938v54.296874c0 3.898438-1.5 7.800782-4.5 10.5l-60 59.996094c-2.699219 3-6.597656 4.5-10.496093 4.5-3.902344 0-7.800782-1.5-10.5-4.5l-59.996094-59.996094c-3.003906-2.699218-4.503906-6.601562-4.503906-10.5v-54.296874l14.398437-7.199219h121.195313zm0 0" fill="#d8d8fc"/><path d="m299.988281 290.710938v54.296874c0 3.898438-1.5 7.800782-4.5 10.5l-60 59.996094c-2.699219 3-6.597656 4.5-10.496093 4.5v-136.492187h60.597656zm0 0" fill="#a3a3d1"/><path d="m269.988281 253.511719v85.195312l-44.996093 45-45-45v-85.195312zm0 0" fill="#ffbd86"/><path d="m269.988281 253.511719v85.195312l-44.996093 45v-130.195312zm0 0" fill="#f6a96c"/><path d="m329.984375 150.015625v74.996094c0 57.898437-47.097656 104.996093-104.992187 104.996093-57.898438 0-104.996094-47.097656-104.996094-104.996093v-74.996094l29.996094-30h161.996093zm0 0" fill="#fed2a4"/><path d="m329.984375 150.015625v74.996094c0 57.898437-47.097656 104.996093-104.992187 104.996093v-209.992187h86.996093zm0 0" fill="#ffbd86"/><path d="m329.984375 90.019531v59.996094h-179.992187v-59.996094l25.5-30h107.695312zm0 0" fill="#f2f2fc"/><path d="m329.984375 90.019531v59.996094h-104.992187v-89.996094h58.195312zm0 0" fill="#d8d8fc"/><path d="m329.984375 90.019531c0-33.089843-26.90625-60-59.996094-60-9.492187 0-18.9375 2.273438-27.316406 6.578125l8.644531 53.421875zm0 0" fill="#3e322e"/><path d="m269.988281 75.921875v14.097656h-59.996093c-16.5 0-30 13.5-30 29.996094v75c0 5.097656-2.699219 9.898437-7.199219 12.898437-2.402344 1.5-5.097657 2.097657-7.800781 2.097657-2.398438 0-4.5-.597657-6.597657-1.5-44.097656-22.199219-68.398437-58.796875-68.398437-103.492188 0-58.800781 48.597656-106.195312 107.398437-104.9960935 9.898438.2968745 19.195313 2.3984375 27.597657 6.3007815 26.398437 11.398437 44.996093 38.695312 44.996093 69.597656zm0 0" fill="#68544f"/><path d="m269.988281 90.019531h-44.996093v-83.695312c26.398437 11.398437 44.996093 38.695312 44.996093 69.597656zm0 0" fill="#53433f"/></svg>