<svg height="512pt" viewBox="0 0 512 512" width="512pt" xmlns="http://www.w3.org/2000/svg"><path d="m451 412.199219v84.800781c0 8.402344-6.597656 15-15 15h-421c-8.402344 0-15-6.597656-15-15v-84.800781c0-28.796875 16.902344-54.300781 42.398438-67.199219l108.601562-54.300781 30 24.300781h90l30-24.300781 108.601562 54.300781c25.496094 12.898438 41.398438 38.402344 41.398438 67.199219zm0 0" fill="#f2f2fc"/><path d="m451 412.199219v84.800781c0 8.402344-6.597656 15-15 15h-210v-197h45l30-24.300781 108.601562 54.300781c25.496094 12.898438 41.398438 38.402344 41.398438 67.199219zm0 0" fill="#d8d8fc"/><path d="m241 405v30c0 8.402344-6.597656 15-15 15s-15-6.597656-15-15v-30c0-8.402344 6.597656-15 15-15s15 6.597656 15 15zm0 0" fill="#d8d8fc"/><path d="m241 405v30c0 8.402344-6.597656 15-15 15v-60c8.402344 0 15 6.597656 15 15zm0 0" fill="#a3a3d1"/><path d="m301 290.699219v54.300781c0 3.898438-1.5 7.800781-4.5 10.5l-60 60c-2.699219 3-6.601562 4.5-10.5 4.5s-7.800781-1.5-10.5-4.5l-60-60c-3-2.699219-4.5-6.601562-4.5-10.5v-54.300781l14.398438-7.199219h121.203124zm0 0" fill="#d8d8fc"/><path d="m301 290.699219v54.300781c0 3.898438-1.5 7.800781-4.5 10.5l-60 60c-2.699219 3-6.601562 4.5-10.5 4.5v-136.5h60.601562zm0 0" fill="#a3a3d1"/><path d="m271 253.5v85.199219l-45 45-45-45v-85.199219zm0 0" fill="#ffbd86"/><path d="m271 253.5v85.199219l-45 45v-130.199219zm0 0" fill="#f6a96c"/><path d="m136 90h-30c-24.8125 0-45 20.1875-45 45v60c0 24.8125 20.1875 45 45 45h30c8.289062 0 15-6.710938 15-15v-120c0-8.289062-6.710938-15-15-15zm0 0" fill="#008de4"/><path d="m346 90h-30c-8.289062 0-15 6.710938-15 15v120c0 8.289062 6.710938 15 15 15h30c24.8125 0 45-20.1875 45-45v-60c0-24.8125-20.1875-45-45-45zm0 0" fill="#0065a8"/><path d="m481 360v122c0 16.5-13.5 30-30 30s-30-13.5-30-30v-122zm0 0" fill="#ffbd86"/><path d="m481 360v122c0 16.5-13.5 30-30 30v-152zm0 0" fill="#ea9b58"/><path d="m331 105v120c0 57.898438-47.101562 105-105 105s-105-47.101562-105-105v-120zm0 0" fill="#fed2a4"/><path d="m331 105v120c0 57.898438-47.101562 105-105 105v-225zm0 0" fill="#ffbd86"/><path d="m331 75v15l-27 30h-154.800781l-28.199219-30v-15c0-41.398438 33.601562-75 75-75h60c41.398438 0 75 33.601562 75 75zm0 0" fill="#2ac1ff"/><path d="m331 75v15l-27 30h-78v-120h30c41.398438 0 75 33.601562 75 75zm0 0" fill="#008de4"/><path d="m331 90v15c0 24.902344-20.097656 45-45 45h-120c-24.902344 0-45-20.097656-45-45v-15zm0 0" fill="#008de4"/><path d="m331 90v15c0 24.902344-20.097656 45-45 45h-60v-60zm0 0" fill="#0065a8"/><path d="m512 30v330c0 16.5-14.5 30-31 30h-60c-16.5 0-30-13.5-30-30v-330c0-16.5 13.5-30 30-30h60c16.5 0 31 13.5 31 30zm0 0" fill="#fed2a4"/><path d="m512 30v330c0 16.5-14.5 30-31 30h-30v-390h30c16.5 0 31 13.5 31 30zm0 0" fill="#f6a96c"/></svg>