<svg height="512pt" viewBox="0 0 512 512" width="512pt" xmlns="http://www.w3.org/2000/svg"><path d="m61 497c0 8.289062 6.710938 15 15 15h75l30-30-30-32-46.875-30-43.125 30zm0 0" fill="#ffbfab"/><path d="m421 512h76c8.289062 0 15-6.710938 15-15v-47l-44.0625-30-46.9375 30-30 33.875zm0 0" fill="#ffa78f"/><path d="m512 412.199219v37.800781h-91v62h-270v-62h-90v-37.800781c0-28.800781 15.902344-54.300781 41.398438-67.199219l108.601562-54.300781h150l109.601562 54.300781c25.496094 12.898438 41.398438 38.398438 41.398438 67.199219zm0 0" fill="#ff667c"/><path d="m512 412.199219v37.800781h-91v62h-135v-221.300781h75l109.601562 54.300781c25.496094 12.898438 41.398438 38.398438 41.398438 67.199219zm0 0" fill="#e63950"/><path d="m389.800781 380.699219c-1.5 4.199219-4.800781 7.199219-9 8.398437l-90 30c-1.5.601563-3.300781.902344-4.800781.902344s-3.300781-.300781-4.800781-.902344l-90-30c-4.199219-1.199218-7.5-4.199218-9-8.398437-1.800781-3.898438-1.5-8.398438.300781-12.300781l49.199219-98.398438h108.601562l49.199219 98.398438c1.800781 3.902343 2.101562 8.402343.300781 12.300781zm0 0" fill="#f2f2fc"/><path d="m389.800781 380.699219c-1.5 4.199219-4.800781 7.199219-9 8.398437l-90 30c-1.5.601563-3.300781.902344-4.800781.902344v-150h54.300781l49.199219 98.398438c1.800781 3.902343 2.101562 8.402343.300781 12.300781zm0 0" fill="#d8d8fc"/><path d="m241 255v70.5l45 67.5 45-67.5v-70.5zm0 0" fill="#ffbfab"/><path d="m331 255v70.5l-45 67.5v-138zm0 0" fill="#ffa78f"/><path d="m0 90v407c0 8.289062 6.710938 15 15 15s15-6.710938 15-15v-407l-13.058594-15zm0 0" fill="#d8d8fc"/><path d="m476.605469 244.394531c-16.273438-16.273437-25.605469-38.804687-25.605469-61.816406v-88.8125c0-47.082031-33.414062-87.042969-77.726562-92.945313-33.089844-4.410156-65.785157 9.550782-85.253907 36.503907l82.851563 232.675781h95.128906c6.0625 0 11.542969-3.648438 13.855469-9.257812 2.332031-5.609376 1.042969-12.054688-3.25-16.347657zm0 0" fill="#53433f"/><path d="m106 210c-24.8125 0-45-20.1875-45-45s20.1875-45 45-45 45 20.1875 45 45-20.1875 45-45 45zm0 0" fill="#f2f2fc"/><path d="m391 135v5.699219h-210v-5.699219c0-57.898438 47.101562-105 105-105 28.800781 0 55.199219 11.699219 74.097656 30.902344 19.203125 18.898437 30.902344 45.296875 30.902344 74.097656zm0 0" fill="#ff667c"/><path d="m391 168.300781v56.699219c0 57.898438-47.101562 105-105 105s-105-47.101562-105-105v-56.699219zm0 0" fill="#ffcebf"/><path d="m286 168.300781h105v56.699219c0 57.898438-47.101562 105-105 105zm0 0" fill="#ffbfab"/><path d="m391 135v5.699219h-105v-110.699219c28.800781 0 55.199219 11.699219 74.097656 30.902344 19.203125 18.898437 30.902344 45.296875 30.902344 74.097656zm0 0" fill="#e63950"/><path d="m391 140.699219v27.601562c0 14.699219-6.898438 27.898438-18.601562 36.601563-12 8.398437-26.699219 10.796875-40.496094 6.296875-14.703125-4.796875-30.300782-7.5-45.902344-7.5s-31.199219 2.703125-45.902344 7.5c-14.097656 4.5-28.796875 2.101562-40.496094-6.296875-11.703124-8.703125-18.601562-21.902344-18.601562-36.601563v-27.601562c12-3 48.601562-20.097657 105-20.097657h.902344c56.097656 0 92.097656 17.097657 104.097656 20.097657zm0 0" fill="#e63950"/><path d="m391 140.699219v27.601562c0 14.699219-6.898438 27.898438-18.601562 36.601563-12 8.398437-26.699219 10.796875-40.496094 6.296875-14.703125-4.796875-30.300782-7.5-45.902344-7.5v-83.097657h.902344c56.097656 0 92.097656 17.097657 104.097656 20.097657zm0 0" fill="#cc2e43"/><path d="m76 0c-41.472656 0-76 33.597656-76 75v15h76c24.902344 0 45-20.097656 45-45s-20.097656-45-45-45zm0 0" fill="#d8d8fc"/></svg>