<svg height="512pt" viewBox="0 0 512 512" width="512pt" xmlns="http://www.w3.org/2000/svg"><path d="m361 512h76c8.289062 0 15-6.710938 15-15l30-18.75-30-28.25-45.0625-30-45.9375 30-30 33.875zm0 0" fill="#f6a96c"/><path d="m0 497c0 8.289062 6.710938 15 15 15h76l30-30-30-32-47.875-30-43.125 30zm0 0" fill="#ffbd86"/><path d="m482 435-30 15h-91v62h-270v-62h-91v-37.800781c0-28.800781 15.902344-54.300781 41.398438-67.199219l79.601562-39.300781 30 39.300781h150l30-39.300781 78.601562 39.300781c25.496094 12.898438 42.398438 38.398438 42.398438 67.199219zm0 0" fill="#53433f"/><path d="m482 435-30 15h-91v62h-135v-167h75l30-39.300781 78.601562 39.300781c25.496094 12.898438 42.398438 38.398438 42.398438 67.199219zm0 0" fill="#3e322e"/><path d="m331 305.699219v9.300781c0 42.597656-21.300781 82.199219-56.699219 105.898438l-39.898437 26.699218c-2.703125 1.5-5.402344 2.402344-8.402344 2.402344s-5.699219-.902344-8.402344-2.402344l-39.898437-26.699218c-35.398438-23.699219-56.699219-63.300782-56.699219-105.898438v-9.300781l1.800781-.898438 28.199219-14.101562h150l28.199219 14.101562zm0 0" fill="#f2f2fc"/><path d="m331 305.699219v9.300781c0 42.597656-21.300781 82.199219-56.699219 105.898438l-39.898437 26.699218c-2.703125 1.5-5.402344 2.402344-8.402344 2.402344v-159.300781h75l28.199219 14.101562zm0 0" fill="#d8d8fc"/><path d="m301 240v75c0 32.398438-16.199219 62.699219-43.199219 80.699219l-31.800781 21.300781-31.800781-21.300781c-27-18-43.199219-48.300781-43.199219-80.699219v-75zm0 0" fill="#ffbd86"/><path d="m301 240v75c0 32.398438-16.199219 62.699219-43.199219 80.699219l-31.800781 21.300781v-177zm0 0" fill="#f6a96c"/><path d="m512 30v30l-26.398438 15-3.601562-1.5-30-13.5v-30c0-16.5 13.5-30 30-30s30 13.5 30 30zm0 0" fill="#68544f"/><path d="m512 30v30l-26.398438 15-3.601562-1.5v-73.5c16.5 0 30 13.5 30 30zm0 0" fill="#3e322e"/><path d="m512 90v407c0 8.398438-6.597656 15-15 15h-30c-8.402344 0-15-6.601562-15-15v-407l30-15zm0 0" fill="#fed2a4"/><path d="m512 90v407c0 8.398438-6.597656 15-15 15h-15v-437zm0 0" fill="#f6a96c"/><path d="m331 150v75c0 57.898438-47.101562 105-105 105s-105-47.101562-105-105v-165h180.902344zm0 0" fill="#fed2a4"/><path d="m331 150v75c0 57.898438-47.101562 105-105 105v-270h75.902344zm0 0" fill="#ffbd86"/><path d="m256 30h-180c-8.402344 0-15 6.597656-15 15v30c0 41.398438 33.601562 75 75 75h45c17.101562 0 32.402344-5.699219 45-15.300781 5.699219-3.898438 10.800781-9 15-14.699219 9.300781-12.300781 15-28.199219 15-45v30c0 24.851562 20.148438 45 45 45h30v-45c0-41.421875-33.578125-75-75-75zm0 0" fill="#53433f"/><path d="m256 30h-30v104.699219c5.699219-3.898438 10.800781-9 15-14.699219 9.300781-12.300781 15-28.199219 15-45v30c0 24.851562 20.148438 45 45 45h30v-45c0-41.421875-33.578125-75-75-75zm0 0" fill="#3e322e"/><path d="m452 60h60v30h-60zm0 0" fill="#f2f2fc"/><path d="m482 60h30v30h-30zm0 0" fill="#d8d8fc"/></svg>