<?xml version="1.0" encoding="iso-8859-1"?>
<!-- Generator: Adobe Illustrator 19.0.0, SVG Export Plug-In . SVG Version: 6.00 Build 0)  -->
<svg version="1.1" id="Capa_1" xmlns="http://www.w3.org/2000/svg" xmlns:xlink="http://www.w3.org/1999/xlink" x="0px" y="0px"
	 viewBox="0 0 512 512" style="enable-background:new 0 0 512 512;" xml:space="preserve">
<circle style="fill:#FFE733;" cx="256" cy="256" r="256"/>
<path style="fill:#F2D813;" d="M504.079,319.413l-87.918-87.918l-0.931,1.402L255.667,73.333L81.333,426.667l56.439,56.439
	C173.14,501.556,213.348,512,256,512C375.496,512,475.864,430.124,504.079,319.413z"/>
<polygon style="fill:#FF7045;" points="355.667,395.087 98.333,395.087 198.333,73.333 255.667,73.333 "/>
<polygon style="fill:#F05E3A;" points="255.667,73.333 226.405,73.333 226.405,395.087 355.667,395.087 "/>
<polygon style="fill:#FFD2BF;" points="168.518,169.263 285.482,169.263 271.963,125.767 182.037,125.767 "/>
<polygon style="fill:#FFB89C;" points="271.963,125.767 226.405,125.767 226.405,169.264 285.482,169.264 "/>
<polygon style="fill:#FFD2BF;" points="139.537,262.513 314.463,262.513 300.944,219.016 153.056,219.016 "/>
<polygon style="fill:#FFB89C;" points="300.944,219.017 226.405,219.017 226.405,262.513 314.463,262.513 "/>
<polygon style="fill:#FFD2BF;" points="110.556,355.762 343.444,355.762 329.926,312.265 124.074,312.265 "/>
<polygon style="fill:#FFB89C;" points="329.926,312.265 226.405,312.265 226.405,355.762 343.444,355.762 "/>
<rect x="81.33" y="384.36" style="fill:#DE4726;" width="289.33" height="42.3"/>
<rect x="226.41" y="384.36" style="fill:#D9351C;" width="144.26" height="42.3"/>
<circle style="fill:#FFFFFF;" cx="343.44" cy="300.4" r="100.18"/>
<path style="fill:#F0F0F0;" d="M343.444,200.22c-0.125,0-0.248,0.004-0.373,0.004v200.351c0.125,0,0.248,0.005,0.373,0.005
	c55.328,0,100.18-44.852,100.18-100.18S398.772,200.22,343.444,200.22z"/>
<polygon style="fill:#555A66;" points="343.444,259.131 304.76,287.237 319.536,332.713 367.353,332.713 382.129,287.237 "/>
<polygon style="fill:#414952;" points="382.129,287.237 343.444,259.131 343.071,259.402 343.071,332.713 367.353,332.713 "/>
<path style="fill:#555A66;" d="M307.072,207.031l36.372,26.426l36.372-26.426c-11.275-4.396-23.541-6.811-36.372-6.811
	S318.348,202.636,307.072,207.031z"/>
<g>
	<path style="fill:#414952;" d="M379.816,207.031c-11.275-4.396-23.541-6.811-36.372-6.811c-0.125,0-0.248,0.008-0.373,0.009v32.957
		l0.373,0.271L379.816,207.031z"/>
	<path style="fill:#414952;" d="M406.762,278.933l36.728,26.685c0.089-1.728,0.134-3.468,0.134-5.218
		c0-24.309-8.66-46.594-23.061-63.943L406.762,278.933z"/>
	<path style="fill:#414952;" d="M368.848,397.327c24.715-6.46,45.708-22.119,59.101-43.103h-45.096L368.848,397.327z"/>
</g>
<g>
	<path style="fill:#555A66;" d="M266.326,236.457c-14.401,17.349-23.061,39.634-23.061,63.943c0,1.75,0.046,3.49,0.134,5.218
		l36.728-26.685L266.326,236.457z"/>
	<path style="fill:#555A66;" d="M304.035,354.223h-45.096c13.393,20.984,34.387,36.643,59.101,43.103L304.035,354.223z"/>
</g>
<g>
</g>
<g>
</g>
<g>
</g>
<g>
</g>
<g>
</g>
<g>
</g>
<g>
</g>
<g>
</g>
<g>
</g>
<g>
</g>
<g>
</g>
<g>
</g>
<g>
</g>
<g>
</g>
<g>
</g>
</svg>
