<?xml version="1.0" encoding="iso-8859-1"?>
<!-- Generator: Adobe Illustrator 19.0.0, SVG Export Plug-In . SVG Version: 6.00 Build 0)  -->
<svg version="1.1" id="Capa_1" xmlns="http://www.w3.org/2000/svg" xmlns:xlink="http://www.w3.org/1999/xlink" x="0px" y="0px"
	 viewBox="0 0 512 512" style="enable-background:new 0 0 512 512;" xml:space="preserve">
<circle style="fill:#78B22A;" cx="256" cy="256" r="256"/>
<path style="fill:#679C20;" d="M512,256c0-5.163-0.171-10.285-0.472-15.372l-67.669-67.669L340.676,156.5L110.104,403.004
	l105.875,105.875C229.02,510.926,242.384,512,256,512C397.385,512,512,397.385,512,256z"/>
<path style="fill:#FFE733;" d="M443.859,172.959c0,0-98.731,1.622-176.839,73.13L110.104,403.004l-17.442-17.442l156.915-156.915
	c71.509-78.108,73.13-176.839,73.13-176.839L443.859,172.959z"/>
<path style="fill:#F2D813;" d="M382.855,111.955l-281.9,281.9l9.15,9.15L267.02,246.089c78.108-71.508,176.839-73.13,176.839-73.13
	L382.855,111.955z"/>
<rect x="128.211" y="292.545" transform="matrix(0.7071 -0.7071 0.7071 0.7071 -159.7014 224.2026)" style="fill:#FFA426;" width="125.149" height="24.667"/>
<rect x="188.46" y="246.452" transform="matrix(0.7071 0.7071 -0.7071 0.7071 275.6085 -47.3244)" style="fill:#FF9500;" width="12.939" height="125.149"/>
<g>
</g>
<g>
</g>
<g>
</g>
<g>
</g>
<g>
</g>
<g>
</g>
<g>
</g>
<g>
</g>
<g>
</g>
<g>
</g>
<g>
</g>
<g>
</g>
<g>
</g>
<g>
</g>
<g>
</g>
</svg>
