<svg height="512pt" viewBox="0 0 512 512" width="512pt" xmlns="http://www.w3.org/2000/svg"><path d="m512 412.199219v84.800781c0 8.398438-6.597656 15-15 15h-46l-15-30-15 15c0 8.398438-6.597656 15-15 15h-120c-2.101562 0-4.199219-.300781-6-.601562-13.800781-2.699219-24-15-24-29.398438 0 14.398438-10.199219 26.398438-23.699219 29.398438-2.101562.300781-4.199219.601562-6.300781.601562h-120c-8.402344 0-15-6.601562-15-15l-15-15-15 30h-46c-8.402344 0-15-6.601562-15-15v-84.800781c0-28.800781 16.902344-54.300781 42.398438-67.199219l153-61.5h121.203124l154 61.5c25.496094 12.898438 41.398438 38.398438 41.398438 67.199219zm0 0" fill="#ffbd86"/><path d="m512 412.199219v84.800781c0 8.398438-6.597656 15-15 15h-46l-15-30-15 15c0 8.398438-6.597656 15-15 15h-120c-2.101562 0-4.199219-.300781-6-.601562-13.800781-2.699219-24-15-24-29.398438v-198.5h60.601562l154 61.5c25.496094 12.898438 41.398438 38.398438 41.398438 67.199219zm0 0" fill="#f6a96c"/><path d="m383.867188 102.21875-28.523438-19.015625-29.378906 60.246094 30.640625 62.15625 34.128906-34.128907c9.566406-9.566406 14.296875-22.78125 12.949219-36.257812-1.332032-13.460938-8.550782-25.5-19.816406-33zm0 0" fill="#3e322e"/><path d="m128.132812 102.21875c-11.265624 7.5-18.484374 19.539062-19.816406 33-1.347656 13.476562 3.382813 26.691406 12.949219 36.257812l34.128906 34.128907 60.679688-65.933594-59.417969-56.46875zm0 0" fill="#53433f"/><path d="m361 195v60c0 41.398438-33.601562 75-75 75h-60c-41.398438 0-75-33.601562-75-75v-60c0-28.199219 10.800781-54.300781 30.902344-74.101562h148.195312c20.101563 19.800781 30.902344 45.902343 30.902344 74.101562zm0 0" fill="#fed2a4"/><path d="m361 195v60c0 41.398438-33.601562 75-75 75h-30v-209.101562h74.097656c20.101563 19.800781 30.902344 45.902343 30.902344 74.101562zm0 0" fill="#ffbd86"/><path d="m436 420c-8.285156 0-15 6.714844-15 15v62c0 8.398438 6.597656 15 15 15h15v-77c0-8.285156-6.714844-15-15-15zm0 0" fill="#ea9b58"/><path d="m76 420c-8.285156 0-15 6.714844-15 15v77h15c8.402344 0 15-6.601562 15-15v-62c0-8.285156-6.714844-15-15-15zm0 0" fill="#f6a96c"/><path d="m180.972656 435c0 8.285156-6.71875 15-15 15-8.285156 0-15-6.714844-15-15s6.714844-15 15-15c8.28125 0 15 6.714844 15 15zm0 0" fill="#f6a96c"/><path d="m360.972656 435c0 8.285156-6.71875 15-15 15-8.285156 0-15-6.714844-15-15s6.714844-15 15-15c8.28125 0 15 6.714844 15 15zm0 0" fill="#ea9b58"/><path d="m349 123-31.199219 31.5c-16.199219 16.199219-38.699219 25.5-61.800781 25.5s-45.601562-9.300781-61.800781-25.5l-31.199219-31.5c-11.699219-11.402344-16.199219-27.902344-11.699219-43.800781 4.5-15.898438 16.5-27.601563 32.402344-31.5 14.097656-3.601563 28.199219-6 42.597656-7.5h59.398438c14.398437 1.5 28.5 3.898437 42.601562 7.5 15.898438 3.898437 27.898438 15.601562 32.398438 31.5 4.5 15.898437 0 32.398437-11.699219 43.800781zm0 0" fill="#53433f"/><path d="m349 123-31.199219 31.5c-16.199219 16.199219-38.699219 25.5-61.800781 25.5v-139.800781h29.699219c14.398437 1.5 28.5 3.898437 42.601562 7.5 15.898438 3.898437 27.898438 15.601562 32.398438 31.5 4.5 15.898437 0 32.398437-11.699219 43.800781zm0 0" fill="#3e322e"/><path d="m256 0c-24.902344 0-45 20.097656-45 45 0 24.898438 20.097656 45 45 45s45-20.101562 45-45c0-24.902344-20.097656-45-45-45zm0 0" fill="#725d57"/><path d="m301 45c0 24.898438-20.097656 45-45 45v-90c24.902344 0 45 20.097656 45 45zm0 0" fill="#53433f"/></svg>