<?xml version="1.0" encoding="iso-8859-1"?>
<!-- Generator: Adobe Illustrator 19.0.0, SVG Export Plug-In . SVG Version: 6.00 Build 0)  -->
<svg version="1.1" id="Capa_1" xmlns="http://www.w3.org/2000/svg" xmlns:xlink="http://www.w3.org/1999/xlink" x="0px" y="0px"
	 viewBox="0 0 512 512" style="enable-background:new 0 0 512 512;" xml:space="preserve">
<circle style="fill:#78B22A;" cx="256" cy="256" r="256"/>
<path style="fill:#679C20;" d="M492.253,354.739L250,112.486L119.042,264.107l230.326,230.326
	C413.848,469.164,465.575,418.497,492.253,354.739z"/>
<rect x="155.948" y="282.189" transform="matrix(-0.7071 -0.7071 0.7071 -0.7071 291.6801 720.1935)" style="fill:#D4EEFF;" width="278.097" height="34.999"/>
<g>
	
		<rect x="292.848" y="154.29" transform="matrix(-0.7071 0.7071 -0.7071 -0.7071 721.8557 287.6758)" style="fill:#C2E5FF;" width="17" height="278.097"/>
	
		<rect x="169.962" y="205.512" transform="matrix(-0.7071 -0.7071 0.7071 -0.7071 369.8221 599.2073)" style="fill:#C2E5FF;" width="278.097" height="34.999"/>
</g>
<rect x="78.482" y="292.683" transform="matrix(-0.7071 -0.7071 0.7071 -0.7071 152.0156 683.3318)" style="fill:#D4EEFF;" width="278.097" height="34.999"/>
<circle style="fill:#FFFFFF;" cx="184" cy="187.85" r="100.18"/>
<path style="fill:#F0F0F0;" d="M284.18,187.847c0-55.328-44.852-100.18-100.18-100.18c-27.703,0-52.779,11.246-70.914,29.42
	L254.76,258.76C272.934,240.625,284.18,215.549,284.18,187.847z"/>
<polygon style="fill:#555A66;" points="184,146.578 145.316,174.683 160.092,220.159 207.908,220.159 222.684,174.683 "/>
<g>
	<polygon style="fill:#414952;" points="222.684,174.683 184,146.578 160.009,164.008 209.932,213.932 	"/>
	<path style="fill:#414952;" d="M147.628,94.478L184,120.904l36.372-26.426c-11.275-4.396-23.541-6.811-36.372-6.811
		S158.903,90.082,147.628,94.478z"/>
	<path style="fill:#414952;" d="M247.317,166.38l36.728,26.685c0.089-1.728,0.134-3.468,0.134-5.218
		c0-24.309-8.66-46.594-23.061-63.943L247.317,166.38z"/>
</g>
<path style="fill:#555A66;" d="M209.404,284.773c24.715-6.46,45.708-22.119,59.101-43.103h-45.096L209.404,284.773z"/>
<path style="fill:#414952;" d="M268.505,241.67H237.67l17.074,17.074C259.922,253.578,264.552,247.863,268.505,241.67z"/>
<g>
	<path style="fill:#555A66;" d="M106.881,123.904C92.48,141.253,83.82,163.538,83.82,187.847c0,1.75,0.046,3.49,0.134,5.218
		l36.728-26.685L106.881,123.904z"/>
	<path style="fill:#555A66;" d="M144.591,241.67H99.495c13.393,20.984,34.387,36.643,59.101,43.103L144.591,241.67z"/>
</g>
<g>
</g>
<g>
</g>
<g>
</g>
<g>
</g>
<g>
</g>
<g>
</g>
<g>
</g>
<g>
</g>
<g>
</g>
<g>
</g>
<g>
</g>
<g>
</g>
<g>
</g>
<g>
</g>
<g>
</g>
</svg>
