<svg height="512pt" viewBox="-32 0 512 512.00048" width="512pt" xmlns="http://www.w3.org/2000/svg"><path d="m406.421875 343.144531-48.34375-24.167969-29.839844 100.632813 29.839844 89.644531h74.601563c8.246093 0 14.921874-6.671875 14.921874-14.917968v-84.347657c0-28.644531-15.816406-54.011719-41.179687-66.84375zm0 0" fill="#99503d"/><path d="m41.179688 343.144531c-25.363282 12.832031-41.179688 38.199219-41.179688 66.84375v84.347657c0 8.246093 6.671875 14.917968 14.921875 14.917968h74.597656l29.839844-88.710937-29.839844-101.566407zm0 0" fill="#b35f49"/><path d="m358.078125 318.976562v190.277344h-59.679687l-29.839844-14.917968h-89.519532l-29.839843 14.917968h-59.679688v-190.277344l59.679688-29.839843h149.199219zm0 0" fill="#fdbf00"/><path d="m358.078125 318.976562v190.277344h-59.679687l-29.839844-14.917968h-44.757813v-205.199219h74.597657zm0 0" fill="#ff9f00"/><path d="m283.480469 238.707031v89.519531c0 32.824219-26.859375 59.679688-59.679688 59.679688-32.824219 0-59.679687-26.855469-59.679687-59.679688v-89.519531zm0 0" fill="#b35f49"/><path d="m223.800781 387.90625v-149.199219h59.679688v89.519531c0 32.824219-26.859375 59.679688-59.679688 59.679688zm0 0" fill="#99503d"/><path d="m298.398438 462.507812v46.746094h-149.199219v-46.746094c0-8.359374 6.566406-14.921874 14.921875-14.921874h119.359375c8.355469 0 14.917969 6.5625 14.917969 14.921874zm0 0" fill="#f2f2fc"/><path d="m296.992188 465.253906-.367188 46.746094-74.597656-.585938.484375-61.667968 59.679687.46875c8.355469.066406 14.867188 6.679687 14.800782 15.039062zm0 0" fill="#d8d8fc"/><path d="m413.390625 243.078125c-16.1875-16.1875-25.46875-38.597656-25.46875-61.488281v-88.339844c0-46.828125-33.234375-86.574219-77.3125-92.445312-32.984375-4.402344-65.433594 9.5-84.796875 36.308593l82.410156 231.433594h94.617188c6.03125 0 11.480468-3.628906 13.785156-9.207031 2.316406-5.582032 1.035156-11.992188-3.234375-16.261719zm0 0" fill="#3e322e"/><path d="m328.238281 179.027344v44.757812c0 57.59375-46.847656 104.441406-104.4375 104.441406-57.59375 0-104.441406-46.847656-104.441406-104.441406v-89.519531c0-7.460937.898437-14.621094 2.390625-21.484375l102.050781 32.824219zm0 0" fill="#c6715a"/><path d="m328.238281 179.027344v44.757812c0 57.59375-46.847656 104.441406-104.4375 104.441406v-182.621093zm0 0" fill="#b35f49"/><path d="m328.238281 134.265625v44.761719h-49.832031c-19.992188 0-38.195312-2.6875-54.605469-7.164063-63.859375-16.707031-99.667969-57.289062-102.054687-59.082031 9.25-44.460938 50.429687-82.953125 102.054687-82.953125 57.589844 0 104.4375 46.847656 104.4375 104.4375zm0 0" fill="#53433f"/><path d="m328.238281 134.265625v44.761719h-49.832031c-19.992188 0-38.195312-2.6875-54.605469-7.164063v-142.035156c57.589844 0 104.4375 46.847656 104.4375 104.4375zm0 0" fill="#3e322e"/></svg>