<?xml version="1.0" encoding="iso-8859-1"?>
<!-- Generator: Adobe Illustrator 19.0.0, SVG Export Plug-In . SVG Version: 6.00 Build 0)  -->
<svg version="1.1" id="Capa_1" xmlns="http://www.w3.org/2000/svg" xmlns:xlink="http://www.w3.org/1999/xlink" x="0px" y="0px"
	 viewBox="0 0 512 512" style="enable-background:new 0 0 512 512;" xml:space="preserve">
<circle style="fill:#FF9500;" cx="256" cy="256" r="256"/>
<path style="fill:#FE8205;" d="M512,256c0-11.734-0.806-23.278-2.335-34.593L404.751,116.493l-185.064,25.126L72.663,257.139
	l101.935,101.935l-35.482,45.477l107.25,107.25C249.565,511.92,252.773,512,256,512C397.385,512,512,397.385,512,256z"/>
<circle style="fill:#FFFFFF;" cx="314.25" cy="214.67" r="100.18"/>
<path style="fill:#F0F0F0;" d="M380.182,139.246L237.926,279.549c18.375,21.595,45.747,35.297,76.324,35.297
	c55.328,0,100.18-44.852,100.18-100.18C414.43,184.588,401.171,157.609,380.182,139.246z"/>
<polygon style="fill:#555A66;" points="314.25,173.398 275.566,201.503 290.342,246.979 338.158,246.979 352.934,201.503 "/>
<polygon style="fill:#414952;" points="285.636,232.495 290.342,246.979 338.158,246.979 352.934,201.503 332.276,186.495 "/>
<path style="fill:#555A66;" d="M277.878,121.298l36.372,26.426l36.372-26.426c-11.275-4.396-23.541-6.811-36.372-6.811
	S289.153,116.903,277.878,121.298z"/>
<g>
	<path style="fill:#414952;" d="M377.567,193.2l36.728,26.685c0.089-1.728,0.134-3.468,0.134-5.218
		c0-24.309-8.66-46.594-23.061-63.943L377.567,193.2z"/>
	<path style="fill:#414952;" d="M339.654,311.593c24.715-6.46,45.708-22.119,59.101-43.103h-45.096L339.654,311.593z"/>
</g>
<path style="fill:#555A66;" d="M237.131,150.724c-14.401,17.349-23.061,39.634-23.061,63.943c0,1.75,0.046,3.49,0.134,5.218
	l36.728-26.685L237.131,150.724z"/>
<path style="fill:#414952;" d="M274.841,268.49h-45.096c13.393,20.984,34.387,36.643,59.101,43.103L274.841,268.49z"/>
<path style="fill:#D4EEFF;" d="M404.751,116.493c-42.807-42.808-110.418-49.476-160.765-15.854L53.226,228.032l19.438,29.106
	l41.556-27.751c12.138,5.29,36.947,17.242,65.589,37.482c8.457,5.976,17.663,12.993,27.23,21.074l-92.561,91.75l24.64,24.857
	l93.664-92.843c22.804,23.011,45.778,51.956,64.346,87.433l-27.463,41.123l29.105,19.438L420.606,277.26
	C454.229,226.914,447.561,159.302,404.751,116.493z M395.74,250.819c-11.725-24.641-25.686-44.629-40.204-60.792l35.592-35.281
	C410.304,183.102,412.37,220.37,395.74,250.819z M366.356,130.022l-36.086,35.77c-10.592-8.735-20.969-15.725-30.479-21.251
	c-12.202-7.089-23.836-12.341-34.124-16.221C296.869,108.757,336.517,109.925,366.356,130.022z M198.969,237.555
	c-19.357-13.596-37.012-23.7-50.854-30.805l79.631-53.179c10.009,2.038,31.653,7.724,55.828,22.034
	c7.636,4.52,14.881,9.5,21.748,14.915l-73.336,72.693C220.36,253.249,209.171,244.721,198.969,237.555z M257.636,287.069
	l73.137-72.496c17.586,19.891,31.59,43.763,41.902,71.438l-53.693,80.4C300.469,334.914,278.988,308.614,257.636,287.069z"/>
<path style="fill:#C2E5FF;" d="M404.751,116.493c-0.249-0.249-0.502-0.49-0.753-0.736L125.309,390.621l13.807,13.93l93.664-92.843
	c22.804,23.011,45.778,51.956,64.346,87.433l-27.463,41.123l29.105,19.438L420.606,277.26
	C454.229,226.914,447.561,159.302,404.751,116.493z M318.983,366.412c-18.514-31.498-39.995-57.798-61.347-79.342l73.137-72.496
	c17.586,19.891,31.59,43.763,41.902,71.438L318.983,366.412z M395.74,250.819c-11.725-24.641-25.686-44.629-40.204-60.792
	l35.592-35.281C410.304,183.102,412.37,220.37,395.74,250.819z"/>
<g>
</g>
<g>
</g>
<g>
</g>
<g>
</g>
<g>
</g>
<g>
</g>
<g>
</g>
<g>
</g>
<g>
</g>
<g>
</g>
<g>
</g>
<g>
</g>
<g>
</g>
<g>
</g>
<g>
</g>
</svg>
