<svg height="512pt" viewBox="0 0 512 512" width="512pt" xmlns="http://www.w3.org/2000/svg"><path d="m410.546875 347-48.546875-24.277344-30 102.089844 30 87.1875h75c8.289062 0 15-6.710938 15-15v-82.925781c0-28.578125-15.878906-54.269531-41.453125-67.074219zm0 0" fill="#e2e2e7"/><path d="m42.453125 347c-25.574219 12.804688-42.453125 38.496094-42.453125 67.074219v82.925781c0 8.289062 6.710938 15 15 15h76l30-84.375-30-104.902344zm0 0" fill="#ffbfab"/><path d="m362 322.699219v189.300781h-271v-189.300781l74.398438-37.199219h122.203124zm0 0" fill="#f2f2fc"/><path d="m362 322.699219v189.300781h-136v-226.5h61.601562zm0 0" fill="#d8d8fc"/><path d="m302 272v37.800781c0 47.097657-27.101562 89.699219-69.402344 110.699219-2.097656.898438-4.199218 1.5-6.597656 1.5s-4.5-.601562-6.597656-1.5c-42.300782-21-68.402344-63.601562-68.402344-110.699219v-37.800781zm0 0" fill="#ff667c"/><path d="m302 272v37.800781c0 47.097657-27.101562 89.699219-69.402344 110.699219-2.097656.898438-4.199218 1.5-6.597656 1.5v-150zm0 0" fill="#e63950"/><path d="m272 302v7.800781c0 33.300781-18.101562 63.300781-46 80.097657-27.597656-15.902344-45-46.5-45-80.097657v-7.800781zm0 0" fill="#ffbfab"/><path d="m272 302v7.800781c0 33.300781-18.101562 63.300781-46 80.097657v-87.898438zm0 0" fill="#ffa78f"/><path d="m512 407c0 22.5-7.199219 43.199219-19.199219 60-3.300781 4.800781-36.898437-21-40.800781-17.101562-3.300781 3.300781 23.101562 36.601562 19.5 39.300781-14.101562 11.101562-30.898438 18.601562-49.5 21.300781-4.800781 0-9.902344-28.5-15-28.5s-10.199219 28.5-15 28.5c-18.601562-2.699219-35.398438-10.199219-49.5-21.300781-4.199219-3.300781 22.199219-36.601563 18.597656-40.203125-3.597656-3.597656-36.898437 22.5-39.898437 18.304687-12-17.101562-19.199219-37.800781-19.199219-60.300781s7.199219-42.898438 19.199219-60c2.398437-3.898438 35.402343 22.800781 38.398437 19.5 3.902344-4.199219-21.597656-38.101562-17.097656-41.699219 14.101562-11.101562 30.898438-18.601562 49.5-21.300781 4.800781 0 9.902344 28.5 15 28.5s10.199219-28.5 15-28.5c18.601562 2.699219 35.398438 10.199219 49.5 21.300781 5.101562 4.199219-20.101562 38.398438-15.601562 43.5 2.699218 2.699219 35.101562-24.300781 37.203124-21.300781 11.699219 17.101562 18.898438 37.800781 18.898438 60zm0 0" fill="#ff9f00"/><path d="m512 407c0 22.5-7.199219 43.199219-19.199219 60-3.300781 4.800781-36.898437-21-40.800781-17.101562-3.300781 3.300781 23.101562 36.601562 19.5 39.300781-14.101562 11.101562-30.898438 18.601562-49.5 21.300781-4.800781 0-9.902344-28.5-15-28.5v-150c5.097656 0 10.199219-28.5 15-28.5 18.601562 2.699219 35.398438 10.199219 49.5 21.300781 5.101562 4.199219-20.101562 38.398438-15.601562 43.5 2.699218 2.699219 35.101562-24.300781 37.203124-21.300781 11.699219 17.101562 18.898438 37.800781 18.898438 60zm0 0" fill="#ff9f00"/><path d="m492.800781 467c-6 8.699219-13.199219 15.898438-21.300781 22.199219-10.800781-18-28.5-31.199219-49.5-35.398438v56.699219c-4.800781.597656-9.902344 1.5-15 1.5s-10.199219-.902344-15-1.5v-57c-15.902344 3.300781-30.601562 11.699219-41.699219 24.300781-3 3.597657-5.402343 7.5-7.800781 11.398438-8.097656-6.300781-15.296875-13.5-21.300781-21.898438 2.402343-3 4.203125-6.300781 6.601562-9.300781 16.5-18.898438 39.597657-30.898438 64.199219-34.5v-33c-29.097656-4.199219-54.601562-20.402344-70.800781-43.5 6-8.402344 13.199219-15.902344 21.300781-22.199219 10.800781 18 28.5 31.199219 49.5 35.699219v-57c4.800781-.601562 9.902344-1.5 15-1.5s10.199219.898438 15 1.5v57c21-4.5 39-17.699219 49.5-35.699219 8.101562 6.597657 15.601562 13.796875 21.601562 22.199219-16.5 23.398438-42.003906 39.300781-71.101562 43.5v32.699219c29.097656 4.199219 54.300781 20.699219 70.800781 43.800781zm0 0" fill="#fed2a4"/><path d="m492.800781 467c-6 8.699219-13.199219 15.898438-21.300781 22.199219-10.800781-18-28.5-31.199219-49.5-35.398438v56.699219c-4.800781.597656-9.902344 1.5-15 1.5v-210c5.097656 0 10.199219.898438 15 1.5v57c21-4.5 39-17.699219 49.5-35.699219 8.101562 6.597657 15.601562 13.796875 21.601562 22.199219-16.5 23.398438-42.003906 39.300781-71.101562 43.5v32.699219c29.097656 4.199219 54.300781 20.699219 70.800781 43.800781zm0 0" fill="#ffbd86"/><path d="m272 45c0 24.898438-21.097656 45-46 45s-45-20.101562-45-45c0-24.902344 20.097656-45 45-45s46 20.097656 46 45zm0 0" fill="#53433f"/><path d="m272 45c0 24.898438-21.097656 45-46 45v-90c24.902344 0 46 20.097656 46 45zm0 0" fill="#3e322e"/><path d="m332 210v17c0 57.898438-48.101562 105-106 105s-105-47.101562-105-105v-62c0-7.5.902344-14.699219 2.402344-21.597656l102.597656 32.996094zm0 0" fill="#ffcebf"/><path d="m332 210v17c0 57.898438-48.101562 105-106 105v-155.601562zm0 0" fill="#ffbfab"/><path d="m332 165v45h-50.097656c-20.101563 0-39.402344-2.699219-55.902344-7.199219-64.199219-16.800781-100.199219-57.601562-102.597656-59.398437 9.296875-44.703125 50.699218-83.402344 102.597656-83.402344 57.898438 0 106 47.101562 106 105zm0 0" fill="#53433f"/><path d="m332 165v45h-50.097656c-20.101563 0-39.402344-2.699219-55.902344-7.199219v-142.800781c57.898438 0 106 47.101562 106 105zm0 0" fill="#3e322e"/></svg>