<svg height="512pt" viewBox="-31 0 512 512" width="512pt" xmlns="http://www.w3.org/2000/svg"><path d="m0 497c0 8.289062 6.710938 15 15 15h75l30-32-30-30-46.875-30-43.125 30zm0 0" fill="#ffbfab"/><path d="m360 512h75c8.289062 0 15-6.710938 15-15v-47l-44.0625-30-45.9375 30-30 31.875zm0 0" fill="#ffa78f"/><path d="m450 412.199219v37.800781h-90v62h-270v-62h-90v-37.800781c0-28.796875 15.902344-54.300781 41.398438-67.199219l108.601562-54.300781 30 24.300781h90l30-24.300781 108.601562 54.300781c25.496094 12.898438 41.398438 38.402344 41.398438 67.199219zm0 0" fill="#f2f2fc"/><path d="m450 412.199219v37.800781h-90v62h-135v-197h45l30-24.300781 108.601562 54.300781c25.496094 12.898438 41.398438 38.402344 41.398438 67.199219zm0 0" fill="#d8d8fc"/><path d="m240 405v30c0 8.402344-6.597656 15-15 15s-15-6.597656-15-15v-30c0-8.402344 6.597656-15 15-15s15 6.597656 15 15zm0 0" fill="#d8d8fc"/><path d="m240 405v30c0 8.402344-6.597656 15-15 15v-60c8.402344 0 15 6.597656 15 15zm0 0" fill="#a3a3d1"/><path d="m300 290.699219v54.300781c0 3.898438-1.5 7.800781-4.5 10.5l-60 60c-2.699219 3-6.601562 4.5-10.5 4.5s-7.800781-1.5-10.5-4.5l-60-60c-3-2.699219-4.5-6.601562-4.5-10.5v-54.300781l14.398438-7.199219h121.203124zm0 0" fill="#d8d8fc"/><path d="m300 290.699219v54.300781c0 3.898438-1.5 7.800781-4.5 10.5l-60 60c-2.699219 3-6.601562 4.5-10.5 4.5v-136.5h60.601562zm0 0" fill="#a3a3d1"/><path d="m270 253.5v85.199219l-45 45-45-45v-85.199219zm0 0" fill="#ffbfab"/><path d="m270 253.5v85.199219l-45 45v-130.199219zm0 0" fill="#ffa78f"/><path d="m125.933594 167.929688c-19.21875 14.621093-46.597656 16.097656-67.824219 2.679687-3.808594-2.386719-8.449219-2.988281-12.742187-1.519531-4.261719 1.417968-7.660157 4.671875-9.273438 8.875-22.996094 60.242187 22.214844 122.035156 83.90625 122.035156 13.492188 0 26.453125-2.914062 38.539062-8.65625zm0 0" fill="#53433f"/><path d="m413.90625 177.964844c-1.609375-4.203125-5.011719-7.457032-9.273438-8.878906-4.246093-1.449219-8.90625-.863282-12.742187 1.523437-21.226563 13.417969-48.617187 11.9375-67.824219-2.679687l-32.605468 123.414062c12.085937 5.742188 25.046874 8.65625 38.539062 8.65625 61.667969 0 106.910156-61.773438 83.90625-122.035156zm0 0" fill="#3e322e"/><path d="m330 75v35.699219h-210v-35.699219c0-41.398438 33.601562-75 75-75h60c41.398438 0 75 33.601562 75 75zm0 0" fill="#68544f"/><path d="m330 75v35.699219h-105v-110.699219h30c41.398438 0 75 33.601562 75 75zm0 0" fill="#53433f"/><path d="m330 138.300781v86.699219c0 57.898438-47.101562 105-105 105s-105-47.101562-105-105v-86.699219zm0 0" fill="#ffcebf"/><path d="m225 138.300781h105v86.699219c0 57.898438-47.101562 105-105 105zm0 0" fill="#ffbfab"/><path d="m330 110.699219v27.601562c0 14.699219-6.898438 27.898438-18.601562 36.601563-12 8.398437-26.699219 10.796875-40.496094 6.296875-14.703125-4.796875-30.300782-7.5-45.902344-7.5s-31.199219 2.703125-45.902344 7.5c-14.097656 4.5-28.796875 2.101562-40.496094-6.296875-11.703124-8.703125-18.601562-21.902344-18.601562-36.601563v-27.601562c12-3 48.601562-20.097657 105-20.097657h.902344c56.097656 0 92.097656 17.097657 104.097656 20.097657zm0 0" fill="#f2f2fc"/><path d="m330 110.699219v27.601562c0 14.699219-6.898438 27.898438-18.601562 36.601563-12 8.398437-26.699219 10.796875-40.496094 6.296875-14.703125-4.796875-30.300782-7.5-45.902344-7.5v-83.097657h.902344c56.097656 0 92.097656 17.097657 104.097656 20.097657zm0 0" fill="#d8d8fc"/></svg>