<svg height="512pt" viewBox="0 0 512 512" width="512pt" xmlns="http://www.w3.org/2000/svg"><path d="m121.445312 307.480469-79.046874 39.519531c-25.496094 12.898438-42.398438 38.402344-42.398438 67.199219v82.800781c0 8.289062 6.710938 15 15 15h46l15-30 15 30h90l30-73.945312zm0 0" fill="#f2f2fc"/><path d="m409.601562 347-78.9375-39.46875-89.664062 100.523438 30 103.945312h165c8.289062 0 15-6.710938 15-15v-82.800781c0-28.796875-15.902344-54.300781-41.398438-67.199219zm0 0" fill="#d8d8fc"/><path d="m330.699219 307.398438c-.601563 45.902343-18.300781 89.101562-51.597657 122.703124l-8.101562 8.097657v73.800781h-90v-73.800781l-8.101562-8.097657c-33.300782-33.300781-50.699219-77.101562-51.597657-122.703124l29.699219-14.699219h150zm0 0" fill="#2ac1ff"/><path d="m330.699219 307.398438c-.601563 45.902343-18.300781 89.101562-51.597657 122.703124l-8.101562 8.097657v73.800781h-45v-219.300781h75zm0 0" fill="#008de4"/><path d="m236.5 387.5c-2.699219 3-6.601562 4.5-10.5 4.5s-7.800781-1.5-10.5-4.5c-32.398438-32.097656-42.902344-80.699219-27.300781-123.902344h75.601562c15.601563 43.203125 5.097657 91.804688-27.300781 123.902344zm0 0" fill="#ffbd86"/><path d="m263.800781 263.597656c15.601563 43.203125 5.097657 91.804688-27.300781 123.902344-2.699219 3-6.601562 4.5-10.5 4.5v-128.402344zm0 0" fill="#f6a96c"/><path d="m331 210v17c0 57.898438-47.101562 105-105 105s-105-47.101562-105-105v-107l60-30 45 12.898438 60 17.101562zm0 0" fill="#fed2a4"/><path d="m331 210v17c0 57.898438-47.101562 105-105 105v-229.101562l60 17.101562zm0 0" fill="#ffbd86"/><path d="m76 422c-8.285156 0-15 6.714844-15 15v75h30v-75c0-8.285156-6.714844-15-15-15zm0 0" fill="#d8d8fc"/><path d="m331 105v105h-15c-41.398438 0-75-33.601562-75-75v-15h-165c-8.402344 0-15-6.597656-15-15s6.597656-15 15-15h46.5c6.902344-34.199219 37.199219-60 73.5-60h60c41.398438 0 75 33.601562 75 75zm0 0" fill="#53433f"/><path d="m331 105v105h-15c-41.398438 0-75-33.601562-75-75v-15h-15v-90h30c41.398438 0 75 33.601562 75 75zm0 0" fill="#3e322e"/><path d="m451 0c-24.300781 0-45 19.5-45 46.800781l18 450.800781h54l18-452.601562c0-24.902344-20.097656-45-45-45zm0 0" fill="#fed2a4"/><path d="m496 45-18 452.601562h-27v-497.601562c24.902344 0 45 20.097656 45 45zm0 0" fill="#f6a96c"/><path d="m512 482c0 16.5-14.5 30-31 30h-60c-16.5 0-30-13.5-30-30s13.5-30 30-30h60c16.5 0 31 13.5 31 30zm0 0" fill="#fed2a4"/><path d="m512 482c0 16.5-14.5 30-31 30h-30v-60h30c16.5 0 31 13.5 31 30zm0 0" fill="#f6a96c"/></svg>