<svg height="512pt" viewBox="0 -15 512 512" width="512pt" xmlns="http://www.w3.org/2000/svg"><path d="m391 378.300781v88.699219c0 8.398438-6.597656 15-15 15h-45l-15-30-15 30h-210l-15-30-15 30h-46c-8.402344 0-15-6.601562-15-15v-88.699219c0-26.101562 14.199219-49.800781 36.398438-63.601562l97.800781-60.601563h123.601562l97.800781 60.601563c22.199219 13.800781 35.398438 37.5 35.398438 63.601562zm0 0" fill="#2ac1ff"/><path d="m391 378.300781v88.699219c0 8.398438-6.597656 15-15 15h-45l-15-30-15 30h-105v-227.902344h61.800781l97.800781 60.601563c22.199219 13.800781 35.398438 37.5 35.398438 63.601562zm0 0" fill="#008de4"/><path d="m76 390c-8.289062 0-15 6.710938-15 15v77h30v-77c0-8.289062-6.710938-15-15-15zm0 0" fill="#008de4"/><path d="m451 330v122c0 16.5-13.5 30-30 30s-30-13.5-30-30v-122zm0 0" fill="#ffbd86"/><path d="m421 330h30v122c0 16.5-13.5 30-30 30zm0 0" fill="#ea9b58"/><path d="m503 300c-16.5 40.199219-50.199219 60-82 60s-64.5-19.800781-81-60l41.699219-30h90zm0 0" fill="#fed2a4"/><path d="m503 300c-16.5 40.199219-50.199219 60-82 60v-90h50.699219zm0 0" fill="#ffbd86"/><path d="m512 255c0 16.199219-3.300781 31.199219-9 45h-163c-5.699219-13.800781-9-28.800781-9-45 0-57.898438 40.199219-105 90-105s91 47.101562 91 105zm0 0" fill="#ff667c"/><path d="m512 255c0 16.199219-3.300781 31.199219-9 45h-82v-150c49.800781 0 91 47.101562 91 105zm0 0" fill="#e63950"/><path d="m211 375v30c0 8.402344-6.597656 15-15 15s-15-6.597656-15-15v-30c0-8.402344 6.597656-15 15-15s15 6.597656 15 15zm0 0" fill="#f2f2fc"/><path d="m211 375v30c0 8.402344-6.597656 15-15 15v-60c8.402344 0 15 6.597656 15 15zm0 0" fill="#d8d8fc"/><path d="m271 260.699219v54.300781c0 3.898438-1.5 7.800781-4.5 10.5l-60 60c-2.699219 3-6.601562 4.5-10.5 4.5s-7.800781-1.5-10.5-4.5l-60-60c-3-2.699219-4.5-6.601562-4.5-10.5v-54.300781l14.398438-7.199219h121.203124zm0 0" fill="#f2f2fc"/><path d="m271 260.699219v54.300781c0 3.898438-1.5 7.800781-4.5 10.5l-60 60c-2.699219 3-6.601562 4.5-10.5 4.5v-136.5h60.601562zm0 0" fill="#d8d8fc"/><path d="m241 223.5v85.199219l-45 45-45-45v-85.199219zm0 0" fill="#ffbd86"/><path d="m241 223.5v85.199219l-45 45v-130.199219zm0 0" fill="#f6a96c"/><path d="m301 120v75c0 57.898438-47.101562 105-105 105s-105-47.101562-105-105v-165h180.902344zm0 0" fill="#fed2a4"/><path d="m301 120v75c0 57.898438-47.101562 105-105 105v-270h75.902344zm0 0" fill="#ffbd86"/><path d="m226 0h-180c-8.402344 0-15 6.597656-15 15v30c0 41.398438 33.601562 75 75 75h45c17.101562 0 32.402344-5.699219 45-15.300781 5.699219-3.898438 10.800781-9 15-14.699219 9.300781-12.300781 15-28.199219 15-45v30c0 24.851562 20.148438 45 45 45h30v-45c0-41.421875-33.578125-75-75-75zm0 0" fill="#fdbf00"/><path d="m211 90c9.300781-12.300781 15-28.199219 15-45v30c0 24.851562 20.148438 45 45 45h30v-45c0-41.421875-33.578125-75-75-75h-30v104.699219c5.699219-3.898438 10.800781-9 15-14.699219zm0 0" fill="#ff9f00"/><path d="m316 390c-8.285156 0-15 6.714844-15 15v77h30v-77c0-8.285156-6.714844-15-15-15zm0 0" fill="#0065a8"/></svg>