<svg height="512pt" viewBox="0 0 512 512" width="512pt" xmlns="http://www.w3.org/2000/svg"><path d="m42.398438 347c-25.496094 12.898438-42.398438 38.402344-42.398438 67.199219v82.800781c0 8.289062 6.710938 15 15 15h76l18.375-81.375-43.613281-95.304688zm0 0" fill="#e63950"/><path d="m410.601562 347-24.363281-11.679688-44.539062 101.777344 19.300781 74.902344h76c8.289062 0 15-6.710938 15-15v-82.800781c0-28.796875-15.902344-54.300781-41.398438-67.199219zm0 0" fill="#cc2e43"/><path d="m382.300781 362-51.300781 15 47.101562 15-4.203124 30-42.898438 15 38.699219 15-8.699219 60h-270l-8.699219-60 38.699219-15-42.898438-15-4.203124-30 17.101562-15-21.300781-15-3.898438-26.699219 66.597657-33.300781h187.203124l66.597657 33.300781zm0 0" fill="#ff667c"/><g fill="#e63950"><path d="m382.300781 362-51.300781 15 47.101562 15-4.203124 30-42.898438 15 38.699219 15-8.699219 60h-135v-210h93.601562l66.597657 33.300781zm0 0"/><path d="m181 377c0-8.289062-6.710938-15-15-15h-96.425781l4.285156 30h92.140625c8.289062 0 15-6.710938 15-15zm0 0"/><path d="m181 437c0-8.289062-6.710938-15-15-15h-87.855469l4.285157 30h83.570312c8.289062 0 15-6.710938 15-15zm0 0"/></g><path d="m271 377c0 8.289062 6.710938 15 15 15h92.140625l4.285156-30h-96.425781c-8.289062 0-15 6.710938-15 15zm0 0" fill="#cc2e43"/><path d="m271 437c0 8.289062 6.710938 15 15 15h83.570312l4.285157-30h-87.855469c-8.289062 0-15 6.710938-15 15zm0 0" fill="#cc2e43"/><path d="m226 0c-24.902344 0-45 20.097656-45 45 0 24.898438 20.097656 45 45 45s45-20.101562 45-45c0-24.902344-20.097656-45-45-45zm0 0" fill="#d8d8fc"/><path d="m226 90v-90c24.902344 0 45 20.097656 45 45 0 24.898438-20.097656 45-45 45zm0 0" fill="#a3a3d1"/><path d="m331 182v45c0 57.898438-47.101562 105-105 105s-105-47.101562-105-105v-45l45-30h144.300781zm0 0" fill="#fed2a4"/><path d="m331 182v45c0 57.898438-47.101562 105-105 105v-180h84.300781zm0 0" fill="#ffbd86"/><path d="m331 167v15h-210v-15c0-57.898438 47.101562-107 105-107s105 49.101562 105 107zm0 0" fill="#d8d8fc"/><path d="m331 182h-105v-122c57.898438 0 105 49.101562 105 107zm0 0" fill="#a3a3d1"/><path d="m512 45v422c0 24.898438-20.097656 45-45 45s-45-20.101562-45-45v-422c0-24.902344 20.097656-45 45-45s45 20.097656 45 45zm0 0" fill="#2ac1ff"/><path d="m512 45v422c0 24.898438-20.097656 45-45 45v-512c24.902344 0 45 20.097656 45 45zm0 0" fill="#008de4"/><path d="m512 242v30c0 24.898438-20.097656 45-45 45s-45-20.101562-45-45v-30c0-24.902344 20.097656-45 45-45s45 20.097656 45 45zm0 0" fill="#68544f"/><path d="m512 242v30c0 24.898438-20.097656 45-45 45v-120c24.902344 0 45 20.097656 45 45zm0 0" fill="#3e322e"/></svg>