<?xml version="1.0" encoding="iso-8859-1"?>
<!-- Generator: Adobe Illustrator 19.0.0, SVG Export Plug-In . SVG Version: 6.00 Build 0)  -->
<svg version="1.1" id="Capa_1" xmlns="http://www.w3.org/2000/svg" xmlns:xlink="http://www.w3.org/1999/xlink" x="0px" y="0px"
	 viewBox="0 0 512 512" style="enable-background:new 0 0 512 512;" xml:space="preserve">
<circle style="fill:#FFE733;" cx="256" cy="256" r="256"/>
<path style="fill:#F2D813;" d="M509.95,288.549L312.433,91.033l-1.178,2.178L273.045,55l-34.09,13.777l34.353,34.353L184.465,445
	l66.942,66.942c1.529,0.027,3.058,0.058,4.594,0.058C386.359,512,493.959,414.565,509.95,288.549z"/>
<rect x="248.32" y="58.18" style="fill:#DBCFC6;" width="15.367" height="41.861"/>
<rect x="255.57" y="58.18" style="fill:#D1C1B8;" width="8.112" height="41.862"/>
<rect x="238.96" y="55" style="fill:#FFFFFF;" width="34.09" height="13.777"/>
<rect x="255.57" y="55" style="fill:#F0F0F0;" width="17.474" height="13.777"/>
<rect x="199.57" y="91.03" style="fill:#FFFFFF;" width="112.87" height="41.861"/>
<rect x="255.57" y="91.03" style="fill:#F0F0F0;" width="56.862" height="41.861"/>
<rect x="184.47" y="120.71" style="fill:#1E8CE6;" width="143.07" height="324.29"/>
<rect x="255.57" y="120.71" style="fill:#1478D2;" width="71.964" height="324.29"/>
<rect x="184.47" y="213.97" style="fill:#2864F0;" width="143.07" height="137.77"/>
<rect x="255.57" y="213.97" style="fill:#0053BF;" width="71.964" height="137.77"/>
<g>
</g>
<g>
</g>
<g>
</g>
<g>
</g>
<g>
</g>
<g>
</g>
<g>
</g>
<g>
</g>
<g>
</g>
<g>
</g>
<g>
</g>
<g>
</g>
<g>
</g>
<g>
</g>
<g>
</g>
</svg>
