<svg height="512pt" viewBox="-31 0 512 512" width="512pt" xmlns="http://www.w3.org/2000/svg"><path d="m450 412.199219v84.800781c0 8.398438-6.597656 15-15 15h-45l-15-30-15 15c0 8.398438-6.597656 15-15 15h-90c-5.398438 0-10.5-.902344-15-2.699219-5.699219-1.800781-10.800781-5.101562-15-9-7.800781 7.199219-18.300781 11.699219-30 11.699219h-90c-8.402344 0-15-6.601562-15-15l-15-15-15 30h-45c-8.402344 0-15-6.601562-15-15v-84.800781c0-28.800781 15.902344-54.300781 41.398438-67.199219l123-61.5h121.203124l123 61.5c25.496094 12.898438 41.398438 38.398438 41.398438 67.199219zm0 0" fill="#ffbd86"/><path d="m450 412.199219v84.800781c0 8.398438-6.597656 15-15 15h-45l-15-30-15 15c0 8.398438-6.597656 15-15 15h-90c-5.398438 0-10.5-.902344-15-2.699219-5.699219-1.800781-10.800781-5.101562-15-9v-216.800781h60.601562l123 61.5c25.496094 12.898438 41.398438 38.398438 41.398438 67.199219zm0 0" fill="#f6a96c"/><path d="m197.578125 407.578125c-3.839844 0-7.675781-1.464844-10.605469-4.394531-8.496094-8.496094-19.804687-13.183594-31.832031-13.183594-8.289063 0-15-6.710938-15-15s6.710937-15 15-15c20.039063 0 38.878906 7.808594 53.042969 21.972656 5.859375 5.859375 5.859375 15.351563 0 21.210938-2.929688 2.929687-6.769532 4.394531-10.605469 4.394531zm0 0" fill="#f6a96c"/><path d="m252.421875 407.578125c-3.835937 0-7.675781-1.464844-10.605469-4.394531-5.859375-5.859375-5.859375-15.351563 0-21.210938 14.164063-14.164062 33.003906-21.972656 53.042969-21.972656 8.289063 0 15 6.710938 15 15s-6.710937 15-15 15c-12.027344 0-23.335937 4.6875-31.832031 13.183594-2.929688 2.929687-6.765625 4.394531-10.605469 4.394531zm0 0" fill="#ea9b58"/><path d="m375 420c-8.285156 0-15 6.714844-15 15v62c0 8.398438 6.597656 15 15 15h15v-77c0-8.285156-6.714844-15-15-15zm0 0" fill="#ea9b58"/><path d="m75 420c-8.285156 0-15 6.714844-15 15v77h15c8.402344 0 15-6.601562 15-15v-62c0-8.285156-6.714844-15-15-15zm0 0" fill="#f6a96c"/><path d="m330 150-30 30 30 30v15c0 57.898438-47.101562 105-105 105s-105-47.101562-105-105v-15l30-30-30-30v-30l30-30h154.5l25.5 30zm0 0" fill="#fed2a4"/><path d="m330 150-30 30 30 30v15c0 57.898438-47.101562 105-105 105v-240h79.5l25.5 30zm0 0" fill="#ffbd86"/><path d="m330 105v15h-210v-15c0-57.898438 47.101562-105 105-105s105 47.101562 105 105zm0 0" fill="#53433f"/><path d="m330 105v15h-105v-120c57.898438 0 105 47.101562 105 105zm0 0" fill="#3e322e"/><path d="m180 165h90v30h-90zm0 0" fill="#008de4"/><path d="m225 165h45v30h-45zm0 0" fill="#0065a8"/><path d="m210 180c0-16.570312-13.429688-30-30-30h-60v60h60c16.570312 0 30-13.433594 30-30zm0 0" fill="#2ac1ff"/><path d="m270 150c-16.570312 0-30 13.429688-30 30 0 16.566406 13.429688 30 30 30h60v-60zm0 0" fill="#008de4"/></svg>