<?xml version="1.0" encoding="iso-8859-1"?>
<!-- Generator: Adobe Illustrator 19.0.0, SVG Export Plug-In . SVG Version: 6.00 Build 0)  -->
<svg version="1.1" id="Capa_1" xmlns="http://www.w3.org/2000/svg" xmlns:xlink="http://www.w3.org/1999/xlink" x="0px" y="0px"
	 viewBox="0 0 512 512" style="enable-background:new 0 0 512 512;" xml:space="preserve">
<circle style="fill:#78B22A;" cx="256" cy="256" r="256"/>
<path style="fill:#679C20;" d="M512,256c0-3.073-0.074-6.129-0.181-9.176L417.5,152.505l-6.957,9.543l-32.21-32.21l-24.106,191.227
	L163,129.839L94.5,397.227l109.479,109.478C220.777,510.173,238.175,512,256,512C397.385,512,512,397.385,512,256z"/>
<rect x="94.5" y="178.24" style="fill:#FFFAD2;" width="323" height="218.99"/>
<rect x="255.57" y="178.24" style="fill:#FFF5AF;" width="161.93" height="218.99"/>
<rect x="94.5" y="152.5" style="fill:#FA5D0F;" width="323" height="64.5"/>
<rect x="255.57" y="152.5" style="fill:#F24500;" width="161.93" height="64.5"/>
<rect x="133.67" y="129.84" style="fill:#F7D139;" width="29.333" height="45.33"/>
<rect x="349" y="129.84" style="fill:#F2C230;" width="29.333" height="45.33"/>
<g>
	<rect x="119.25" y="238.5" style="fill:#FFE67D;" width="51.4" height="51.4"/>
	<rect x="119.25" y="318.57" style="fill:#FFE67D;" width="51.4" height="51.4"/>
	<rect x="193.28" y="238.5" style="fill:#FFE67D;" width="51.4" height="51.4"/>
	<rect x="193.28" y="318.57" style="fill:#FFE67D;" width="51.4" height="51.4"/>
</g>
<rect x="267.32" y="238.5" style="fill:#F5DA73;" width="51.4" height="51.4"/>
<rect x="267.32" y="318.57" style="fill:#FFE67D;" width="51.4" height="51.4"/>
<g>
	<rect x="341.35" y="238.5" style="fill:#F5DA73;" width="51.4" height="51.4"/>
	<rect x="341.35" y="318.57" style="fill:#F5DA73;" width="51.4" height="51.4"/>
</g>
<circle style="fill:#FFFFFF;" cx="256" cy="349.51" r="72.44"/>
<path style="fill:#F0F0F0;" d="M256,277.068c-0.144,0-0.285,0.01-0.429,0.011v144.858c0.144,0.001,0.285,0.011,0.429,0.011
	c40.007,0,72.44-32.433,72.44-72.44S296.007,277.068,256,277.068z"/>
<g>
	<polygon style="fill:#555A66;" points="256,319.667 228.028,339.99 238.712,372.874 273.288,372.874 283.972,339.99 	"/>
	<polygon style="fill:#555A66;" points="228.028,339.99 238.712,372.874 255.571,372.874 255.571,319.978 	"/>
</g>
<polygon style="fill:#414952;" points="283.972,339.99 256,319.667 255.571,319.978 255.571,372.874 273.288,372.874 "/>
<g>
	<path style="fill:#555A66;" d="M229.7,281.994l26.3,19.108l26.3-19.108c-8.153-3.178-17.022-4.925-26.3-4.925
		S237.853,278.815,229.7,281.994z"/>
	<path style="fill:#555A66;" d="M229.699,281.994l25.872,18.797v-23.712C246.45,277.132,237.727,278.865,229.699,281.994z"/>
</g>
<g>
	<path style="fill:#414952;" d="M282.301,281.994c-8.153-3.178-17.023-4.925-26.301-4.925c-0.144,0-0.285,0.009-0.429,0.01v23.712
		l0.429,0.311L282.301,281.994z"/>
	<path style="fill:#414952;" d="M301.784,333.986l26.558,19.296c0.064-1.25,0.097-2.508,0.097-3.773
		c0-17.578-6.262-33.692-16.676-46.237L301.784,333.986z"/>
	<path style="fill:#414952;" d="M274.369,419.596c17.871-4.671,33.052-15.995,42.736-31.168h-32.609L274.369,419.596z"/>
</g>
<g>
	<path style="fill:#555A66;" d="M200.236,303.272c-10.413,12.545-16.676,28.659-16.676,46.237c0,1.266,0.033,2.524,0.097,3.773
		l26.558-19.296L200.236,303.272z"/>
	<path style="fill:#555A66;" d="M227.503,388.428h-32.609c9.684,15.173,24.865,26.497,42.736,31.168L227.503,388.428z"/>
</g>
<g>
</g>
<g>
</g>
<g>
</g>
<g>
</g>
<g>
</g>
<g>
</g>
<g>
</g>
<g>
</g>
<g>
</g>
<g>
</g>
<g>
</g>
<g>
</g>
<g>
</g>
<g>
</g>
<g>
</g>
</svg>
