<svg height="512pt" viewBox="0 0 512 512" width="512pt" xmlns="http://www.w3.org/2000/svg"><path d="m451 15v150c0 8.398438-6.597656 15-15 15s-15-6.601562-15-15v-150c0-8.402344 6.597656-15 15-15s15 6.597656 15 15zm0 0" fill="#ff667c"/><path d="m451 15v150c0 8.398438-6.597656 15-15 15v-180c8.402344 0 15 6.597656 15 15zm0 0" fill="#e63950"/><path d="m409.546875 345-48.546875-24.277344-30 102.089844 30 89.1875h75c8.289062 0 15-6.710938 15-15v-84.925781c0-28.578125-15.878906-54.269531-41.453125-67.074219zm0 0" fill="#f6a96c"/><path d="m41.453125 345c-25.574219 12.804688-41.453125 38.496094-41.453125 67.074219v84.925781c0 8.289062 6.710938 15 15 15h76l30-86.375-30-104.902344zm0 0" fill="#ffbd86"/><path d="m361 320.699219v191.300781h-270v-191.300781l74.398438-37.199219h121.203124zm0 0" fill="#2ac1ff"/><path d="m361 320.699219v191.300781h-135v-228.5h60.601562zm0 0" fill="#008de4"/><path d="m301 270v37.800781c0 47.097657-26.101562 89.699219-68.402344 110.699219-2.097656.898438-4.199218 1.5-6.597656 1.5s-4.5-.601562-6.597656-1.5c-42.300782-21-68.402344-63.601562-68.402344-110.699219v-37.800781zm0 0" fill="#ffbd86"/><path d="m301 270v37.800781c0 47.097657-26.101562 89.699219-68.402344 110.699219-2.097656.898438-4.199218 1.5-6.597656 1.5v-150zm0 0" fill="#f6a96c"/><path d="m436 150c-41.398438 0-75 33.601562-75 75s33.601562 75 75 75 76-33.601562 76-75-34.601562-75-76-75zm0 120c-24.902344 0-45-20.101562-45-45 0-24.902344 20.097656-45 45-45s46 20.097656 46 45c0 24.898438-21.097656 45-46 45zm0 0" fill="#f2f2fc"/><path d="m331 150v75c0 57.898438-47.101562 105-105 105s-105-47.101562-105-105v-165h180.902344zm0 0" fill="#fed2a4"/><path d="m331 150v75c0 57.898438-47.101562 105-105 105v-270h75.902344zm0 0" fill="#ffbd86"/><path d="m256 30h-180c-8.402344 0-15 6.597656-15 15v30c0 41.398438 33.601562 75 75 75h45c17.101562 0 32.402344-5.699219 45-15.300781 5.699219-3.898438 10.800781-9 15-14.699219 9.300781-12.300781 15-28.199219 15-45v30c0 24.851562 20.148438 45 45 45h30v-45c0-41.421875-33.578125-75-75-75zm0 0" fill="#53433f"/><path d="m301 150h30v-45c0-41.421875-33.578125-75-75-75h-30v104.699219c5.699219-3.898438 10.800781-9 15-14.699219 9.300781-12.300781 15-28.199219 15-45v30c0 24.851562 20.148438 45 45 45zm0 0" fill="#3e322e"/><path d="m512 225c0 41.398438-34.601562 75-76 75v-30c24.902344 0 46-20.101562 46-45 0-24.902344-21.097656-45-46-45v-30c41.398438 0 76 33.601562 76 75zm0 0" fill="#d8d8fc"/></svg>