<?xml version="1.0" encoding="iso-8859-1"?>
<!-- Generator: Adobe Illustrator 19.0.0, SVG Export Plug-In . SVG Version: 6.00 Build 0)  -->
<svg version="1.1" id="Capa_1" xmlns="http://www.w3.org/2000/svg" xmlns:xlink="http://www.w3.org/1999/xlink" x="0px" y="0px"
	 viewBox="0 0 512 512" style="enable-background:new 0 0 512 512;" xml:space="preserve">
<circle style="fill:#64E1DC;" cx="256" cy="256" r="256"/>
<path style="fill:#00C8C8;" d="M512,256c0-3.378-0.086-6.736-0.216-10.082L412.5,146.634l-287.286,22.962L99.5,364.366
	l147.458,147.458c3.003,0.104,6.014,0.176,9.042,0.176C397.385,512,512,397.385,512,256z"/>
<path style="fill:#93D632;" d="M9.418,325C39.54,432.866,138.524,512,256,512s216.46-79.134,246.582-187H9.418z"/>
<path style="fill:#86C42B;" d="M255.571,325v186.995c0.143,0,0.285,0.005,0.429,0.005c117.476,0,216.46-79.134,246.582-187H255.571z
	"/>
<circle style="fill:#FFFFFF;" cx="256" cy="291.24" r="86.85"/>
<path style="fill:#F0F0F0;" d="M256,204.392c-0.143,0-0.285,0.005-0.429,0.005v173.682c0.143,0.001,0.285,0.005,0.429,0.005
	c47.964,0,86.847-38.883,86.847-86.847S303.964,204.392,256,204.392z"/>
<polygon style="fill:#555A66;" points="256,255.462 222.464,279.827 235.274,319.25 276.726,319.25 289.536,279.827 "/>
<polygon style="fill:#414952;" points="289.536,279.827 256,255.462 255.571,255.773 255.571,319.25 276.726,319.25 "/>
<path style="fill:#555A66;" d="M224.469,210.296L256,233.205l31.531-22.909c-9.775-3.811-20.408-5.905-31.531-5.905
	S234.244,206.486,224.469,210.296z"/>
<g>
	<path style="fill:#414952;" d="M287.531,210.296c-9.775-3.811-20.408-5.905-31.531-5.905c-0.144,0-0.285,0.009-0.429,0.01v28.492
		l0.429,0.311L287.531,210.296z"/>
	<path style="fill:#414952;" d="M310.89,272.629l31.84,23.133c0.077-1.498,0.116-3.006,0.116-4.524
		c0-21.074-7.508-40.392-19.992-55.432L310.89,272.629z"/>
	<path style="fill:#414952;" d="M278.023,375.264c21.425-5.6,39.625-19.176,51.235-37.367h-39.094L278.023,375.264z"/>
</g>
<g>
	<path style="fill:#555A66;" d="M189.145,235.806c-12.484,15.04-19.992,34.359-19.992,55.432c0,1.517,0.04,3.025,0.116,4.524
		l31.84-23.133L189.145,235.806z"/>
	<path style="fill:#555A66;" d="M221.836,337.898h-39.094c11.61,18.191,29.81,31.766,51.235,37.367L221.836,337.898z"/>
</g>
<polygon style="fill:#FFFFFF;" points="412.5,364.366 378.5,364.366 378.5,180.634 133.5,180.634 133.5,364.366 99.5,364.366 
	99.5,146.634 412.5,146.634 "/>
<polygon style="fill:#F0F0F0;" points="255.571,146.634 255.571,180.634 378.5,180.634 378.5,364.366 412.5,364.366 412.5,146.634 
	"/>
<g>
</g>
<g>
</g>
<g>
</g>
<g>
</g>
<g>
</g>
<g>
</g>
<g>
</g>
<g>
</g>
<g>
</g>
<g>
</g>
<g>
</g>
<g>
</g>
<g>
</g>
<g>
</g>
<g>
</g>
</svg>
