<?xml version="1.0" encoding="iso-8859-1"?>
<!-- Generator: Adobe Illustrator 19.0.0, SVG Export Plug-In . SVG Version: 6.00 Build 0)  -->
<svg version="1.1" id="Capa_1" xmlns="http://www.w3.org/2000/svg" xmlns:xlink="http://www.w3.org/1999/xlink" x="0px" y="0px"
	 viewBox="0 0 512 512" style="enable-background:new 0 0 512 512;" xml:space="preserve">
<circle style="fill:#FF9500;" cx="256" cy="256" r="256"/>
<path style="fill:#FE8205;" d="M512,256c0-0.376-0.013-0.749-0.014-1.124L447,189.89H135.929l-24.69,79.322L237.437,395.41
	l-94.898,30.815l84.087,84.087C236.266,511.414,246.064,512,256,512C397.385,512,512,397.385,512,256z"/>
<polygon style="fill:#3F6199;" points="142.538,113.775 65,189.89 111.238,269.212 142.829,239.416 "/>
<polygon style="fill:#355382;" points="369.462,113.775 447,189.89 400.762,269.212 369.171,239.416 "/>
<rect x="142.54" y="113.78" style="fill:#3D7ED9;" width="226.92" height="312.45"/>
<rect x="255.57" y="113.78" style="fill:#466EB2;" width="113.89" height="312.45"/>
<g>
	<polygon style="fill:#E4F2F6;" points="228.427,351.455 196.427,351.455 196.427,260.838 187.083,270.699 163.854,248.689 
		200.813,209.686 228.427,220.691 	"/>
	<path style="fill:#E4F2F6;" d="M313.526,351.455h-51.644l-16-16V226.707l16-16h51.644l16,16v108.748L313.526,351.455z
		 M277.883,319.455h19.644v-76.748h-19.644V319.455z"/>
</g>
<path style="fill:#D5ECF2;" d="M313.526,210.707h-51.644l-6.312,6.312v128.125l6.312,6.312h51.644l16-16V226.707L313.526,210.707z
	 M297.526,319.455h-19.644v-76.748h19.644V319.455z"/>
<path style="fill:#3F6199;" d="M305.084,113.775c0,27.108-21.976,49.084-49.084,49.084s-49.084-21.976-49.084-49.084
	C206.916,113.775,305.084,113.775,305.084,113.775z"/>
<path style="fill:#355382;" d="M255.571,113.775v49.073c0.144,0.001,0.285,0.011,0.429,0.011c27.108,0,49.084-21.976,49.084-49.084
	C305.084,113.775,255.571,113.775,255.571,113.775z"/>
<g>
</g>
<g>
</g>
<g>
</g>
<g>
</g>
<g>
</g>
<g>
</g>
<g>
</g>
<g>
</g>
<g>
</g>
<g>
</g>
<g>
</g>
<g>
</g>
<g>
</g>
<g>
</g>
<g>
</g>
</svg>
