<svg height="512pt" viewBox="0 0 512 512" width="512pt" xmlns="http://www.w3.org/2000/svg"><path d="m436 427.074219c-8.289062 0-15-6.707031-15-15v-367.074219c0-8.289062 6.710938-15 15-15s15 6.710938 15 15v367.074219c0 8.292969-6.710938 15-15 15zm0 0" fill="#ffbd86"/><path d="m55.074219 393.535156-52.972657 1.265625c-1.5 5.699219-2.101562 11.398438-2.101562 17.398438v84.800781c0 8.398438 6.597656 15 15 15h76l60-59.1875zm0 0" fill="#ffbd86"/><path d="m448.898438 394.800781-73.921876-5.714843-43.976562 95.726562 30 27.1875h75c8.402344 0 15-6.601562 15-15v-84.800781c0-6-.601562-11.699219-2.101562-17.398438zm0 0" fill="#f6a96c"/><path d="m448.898438 394.5v.300781l-87.898438 48.597657v68.601562h-270v-68.601562l-88.898438-48.597657c2.097657-9.902343 6.597657-19.203125 12.597657-27.300781 6.898437-9.300781 16.902343-17.101562 27.699219-22.5l67.800781-33.898438h231.601562l67.800781 33.898438c10.796876 5.398438 19.800782 13.199219 26.699219 22.5 6 8.097656 10.5 17.101562 12.597657 27zm0 0" fill="#2ac1ff"/><path d="m448.898438 394.5v.300781l-87.898438 48.597657v68.601562h-135v-200.898438h115.800781l67.800781 33.898438c10.796876 5.398438 19.800782 13.199219 26.699219 22.5 6 8.097656 10.5 17.101562 12.597657 27zm0 0" fill="#008de4"/><path d="m341.800781 311.101562-106.800781 75.898438c-2.699219 2.097656-5.699219 3-9 3s-6.300781-.902344-9-3l-106.800781-75.898438 40.800781-20.402343h150zm0 0" fill="#ffbd86"/><path d="m341.800781 311.101562-106.800781 75.898438c-2.699219 2.097656-5.699219 3-9 3v-99.300781h75zm0 0" fill="#f6a96c"/><path d="m497 60h-121c-8.289062 0-15-6.710938-15-15v-30c0-8.289062 6.710938-15 15-15h121c8.289062 0 15 6.710938 15 15v30c0 8.289062-6.710938 15-15 15zm0 0" fill="#fed2a4"/><path d="m331 150v75c0 57.898438-47.101562 105-105 105s-105-47.101562-105-105v-75l38.699219-30h132.601562zm0 0" fill="#fed2a4"/><path d="m331 150v75c0 57.898438-47.101562 105-105 105v-210h66.300781zm0 0" fill="#ffbd86"/><path d="m331 135v15h-38.699219l-25.800781 25.5c-2.699219 3-6.601562 4.5-10.5 4.5h-60c-3.898438 0-7.800781-1.5-10.5-4.5l-25.800781-25.5h-38.699219v-15c0-5.101562.902344-10.199219 1.5-15 7.199219-50.699219 50.699219-90 103.5-90s96.300781 39.300781 103.5 90c.597656 4.800781 1.5 9.898438 1.5 15zm0 0" fill="#53433f"/><path d="m256 180h-30v-150c52.800781 0 96.300781 39.300781 103.5 90 .597656 4.800781 1.5 9.898438 1.5 15v15h-38.699219l-25.800781 25.5c-2.699219 3-6.601562 4.5-10.5 4.5zm0 0" fill="#3e322e"/><path d="m241 15v60c0 8.398438-6.597656 15-15 15s-15-6.601562-15-15v-60c0-8.402344 6.597656-15 15-15s15 6.597656 15 15zm0 0" fill="#53433f"/><path d="m241 15v60c0 8.398438-6.597656 15-15 15v-90c8.402344 0 15 6.597656 15 15zm0 0" fill="#3e322e"/></svg>