<svg height="512pt" viewBox="-31 0 512 512" width="512pt" xmlns="http://www.w3.org/2000/svg"><path d="m420 285v105h-390v-105c0-24.902344 20.097656-45 45-45l36.597656-30h236.101563l27.300781 30c24.902344 0 45 20.097656 45 45zm0 0" fill="#3bc480"/><path d="m420 285v105h-195v-180h122.699219l27.300781 30c24.902344 0 45 20.097656 45 45zm0 0" fill="#31a66e"/><path d="m330 399.300781-30 112.699219h-150l-30-108.800781 30-112.5 14.398438-7.199219h121.203124l14.398438 7.199219zm0 0" fill="#62de83"/><path d="m300 290.699219 30 108.601562-30 112.699219h-75v-228.5h60.601562zm0 0" fill="#3bc480"/><path d="m450 180v30c0 16.5-13.5 30-30 30h-390c-16.5 0-30-13.5-30-30v-30c0-16.5 13.5-30 30-30h390c16.5 0 30 13.5 30 30zm0 0" fill="#53433f"/><path d="m450 180v30c0 16.5-13.5 30-30 30h-195v-90h195c16.5 0 30 13.5 30 30zm0 0" fill="#3e322e"/><path d="m0 497c0 8.289062 6.710938 15 15 15h75l30-30-30-32-46.875-30-43.125 30zm0 0" fill="#ffbd86"/><path d="m360 512h75c8.289062 0 15-6.710938 15-15v-47l-44.0625-30-45.9375 30-30 33.875zm0 0" fill="#f6a96c"/><path d="m41.453125 345c-25.574219 12.804688-41.453125 38.496094-41.453125 67.074219v37.925781h90l30-55.3125-30-73.964844zm0 0" fill="#62de83"/><path d="m408.546875 345-48.546875-24.277344-30 101.152344 30 28.125h90v-37.925781c0-28.578125-15.878906-54.269531-41.453125-67.074219zm0 0" fill="#3bc480"/><path d="m240 315v60c0 8.398438-6.597656 15-15 15s-15-6.601562-15-15v-60c0-8.402344 6.597656-15 15-15s15 6.597656 15 15zm0 0" fill="#68544f"/><path d="m90 320.699219v191.300781h60v-221.300781zm0 0" fill="#53433f"/><path d="m240 315v60c0 8.398438-6.597656 15-15 15v-90c8.402344 0 15 6.597656 15 15zm0 0" fill="#53433f"/><path d="m300 512h60v-191.300781l-60-30zm0 0" fill="#3e322e"/><path d="m330 75v35.699219h-210v-35.699219c0-41.398438 33.601562-75 75-75h60c41.398438 0 75 33.601562 75 75zm0 0" fill="#62de83"/><path d="m330 75v35.699219h-105v-110.699219h30c41.398438 0 75 33.601562 75 75zm0 0" fill="#3bc480"/><path d="m330 138.300781v86.699219c0 57.898438-47.101562 105-105 105s-105-47.101562-105-105v-86.699219zm0 0" fill="#fed2a4"/><path d="m225 138.300781h105v86.699219c0 57.898438-47.101562 105-105 105zm0 0" fill="#ffbd86"/><path d="m330 110.699219v27.601562c0 14.699219-6.898438 27.898438-18.601562 36.601563-12 8.398437-26.699219 10.796875-40.496094 6.296875-14.703125-4.796875-30.300782-7.5-45.902344-7.5s-31.199219 2.703125-45.902344 7.5c-14.097656 4.5-28.796875 2.101562-40.496094-6.296875-11.703124-8.703125-18.601562-21.902344-18.601562-36.601563v-27.601562c12-3 48.601562-20.097657 105-20.097657h.902344c56.097656 0 92.097656 17.097657 104.097656 20.097657zm0 0" fill="#3bc480"/><path d="m330 110.699219v27.601562c0 14.699219-6.898438 27.898438-18.601562 36.601563-12 8.398437-26.699219 10.796875-40.496094 6.296875-14.703125-4.796875-30.300782-7.5-45.902344-7.5v-83.097657h.902344c56.097656 0 92.097656 17.097657 104.097656 20.097657zm0 0" fill="#31a66e"/></svg>