<?xml version="1.0" encoding="iso-8859-1"?>
<!-- Generator: Adobe Illustrator 19.0.0, SVG Export Plug-In . SVG Version: 6.00 Build 0)  -->
<svg version="1.1" id="Capa_1" xmlns="http://www.w3.org/2000/svg" xmlns:xlink="http://www.w3.org/1999/xlink" x="0px" y="0px"
	 viewBox="0 0 512 512" style="enable-background:new 0 0 512 512;" xml:space="preserve">
<circle style="fill:#FF9500;" cx="256" cy="256" r="256"/>
<path style="fill:#FE8205;" d="M512,256c0-17.058-1.684-33.721-4.866-49.845L435,134.021L77,349.508l161.91,161.91
	c5.65,0.373,11.345,0.581,17.09,0.581C397.385,512,512,397.385,512,256z"/>
<rect x="165" y="318.67" style="fill:#636978;" width="182" height="50.667"/>
<rect x="255.57" y="318.67" style="fill:#555A66;" width="91.43" height="50.667"/>
<rect x="77" y="134.02" style="fill:#414952;" width="358" height="215.49"/>
<rect x="255.57" y="134.02" style="fill:#333940;" width="179.43" height="215.49"/>
<rect x="95.5" y="149.14" style="fill:#BDF052;" width="321" height="185.25"/>
<rect x="255.57" y="149.14" style="fill:#A7E340;" width="160.93" height="185.25"/>
<rect x="95.5" y="149.14" style="fill:#80DBFF;" width="321" height="71.36"/>
<rect x="255.57" y="149.14" style="fill:#19CFFC;" width="160.93" height="71.36"/>
<polygon style="fill:#FFFFFF;" points="253.379,252 219.379,252 219.379,200.365 145.804,200.365 145.804,252 111.804,252 
	111.804,166.365 253.379,166.365 "/>
<polygon style="fill:#F0F0F0;" points="179.976,166.365 179.976,200.365 219.379,200.365 219.379,252 253.379,252 253.379,166.365 
	"/>
<circle style="fill:#FFFFFF;" cx="332.66" cy="256" r="53.21"/>
<path style="fill:#F0F0F0;" d="M385.868,256c0-29.288-23.665-53.042-52.916-53.199V309.2
	C362.203,309.042,385.868,285.288,385.868,256z"/>
<polygon style="fill:#555A66;" points="332.662,234.082 312.116,249.009 319.964,273.162 345.36,273.162 353.207,249.009 "/>
<polygon style="fill:#414952;" points="353.207,249.009 332.952,234.293 332.952,273.162 345.36,273.162 "/>
<g>
	<path style="fill:#555A66;" d="M313.344,206.411l19.318,14.035l19.318-14.035c-5.988-2.335-12.503-3.618-19.318-3.618
		S319.333,204.076,313.344,206.411z"/>
</g>
<g>
	<path style="fill:#414952;" d="M332.952,202.8v17.435l19.027-13.824C346.076,204.11,339.661,202.836,332.952,202.8z"/>
	<path style="fill:#414952;" d="M366.29,244.599l19.507,14.173c0.047-0.918,0.071-1.842,0.071-2.771
		c0-12.911-4.6-24.747-12.248-33.961L366.29,244.599z"/>
	<path style="fill:#414952;" d="M346.154,307.479c13.126-3.431,24.276-11.748,31.389-22.893h-23.951L346.154,307.479z"/>
</g>
<g>
	<path style="fill:#555A66;" d="M291.703,222.039c-7.648,9.214-12.248,21.05-12.248,33.961c0,0.93,0.024,1.854,0.071,2.771
		l19.507-14.173L291.703,222.039z"/>
	<path style="fill:#555A66;" d="M311.731,284.586H287.78c7.113,11.145,18.263,19.462,31.389,22.893L311.731,284.586z"/>
</g>
<g>
</g>
<g>
</g>
<g>
</g>
<g>
</g>
<g>
</g>
<g>
</g>
<g>
</g>
<g>
</g>
<g>
</g>
<g>
</g>
<g>
</g>
<g>
</g>
<g>
</g>
<g>
</g>
<g>
</g>
</svg>
