<svg height="512pt" viewBox="0 -15 512 511" width="512pt" xmlns="http://www.w3.org/2000/svg"><path d="m0 466.410156c0 8.308594 6.722656 15.027344 15.03125 15.027344h75.144531l30.058594-30.058594-30.058594-30.058594-46.964843-30.058593-43.210938 30.058593zm0 0" fill="#ffbd86"/><path d="m450.878906 383.449219v52.902343c0 24.949219-20.136718 45.085938-45.085937 45.085938h-315.617188v-60.117188h-90.175781v-37.871093c0-28.855469 15.933594-54.40625 41.480469-67.332031l108.8125-54.40625h15.03125l30.058593 39.375h60.117188l30.058594-39.375h15.027344l108.8125 54.40625c25.550781 12.925781 41.480468 38.476562 41.480468 67.332031zm0 0" fill="#ff667c"/><path d="m450.878906 383.449219v52.902343c0 24.949219-20.136718 45.085938-45.085937 45.085938h-180.351563v-180.351562h30.058594l30.058594-39.375h15.027344l108.8125 54.40625c25.550781 12.925781 41.480468 38.476562 41.480468 67.332031zm0 0" fill="#e63950"/><path d="m285.558594 261.710938v39.375c0 33.066406-27.054688 60.117187-60.117188 60.117187-33.066406 0-60.117187-27.050781-60.117187-60.117187v-39.375zm0 0" fill="#ffbd86"/><path d="m285.558594 261.710938v39.375c0 33.066406-27.054688 60.117187-60.117188 60.117187v-99.492187zm0 0" fill="#f6a96c"/><path d="m512 376.234375c0 29.457031-12.324219 56.210937-31.863281 75.144531l-13.523438.605469-11.125 16.832031c-14.726562 7.816406-30.957031 12.621094-48.695312 12.621094-17.734375 0-33.964844-4.804688-48.695313-12.621094l-5.105468-20.441406-19.539063 3.003906c-19.539063-18.933594-31.863281-45.6875-31.863281-75.144531 0-6.011719.902344-12.023437 1.800781-17.734375l19.238281-5.714844-9.917968-22.839844c15.027343-30.359374 44.1875-52.304687 79.054687-57.414062l15.027344 28.554688 15.03125-28.554688c34.867187 5.109375 64.023437 27.054688 79.054687 57.414062l-30.660156 21.339844 39.980469 7.214844c.898437 5.710938 1.800781 11.722656 1.800781 17.734375zm0 0" fill="#f2f2fc"/><g fill="#d8d8fc"><path d="m512 376.234375c0 29.457031-12.324219 56.210937-31.863281 75.144531l-13.523438.605469-11.125 16.832031c-14.726562 7.816406-30.957031 12.621094-48.695312 12.621094v-180.351562l15.03125-28.554688c34.867187 5.109375 64.023437 27.054688 79.054687 57.414062l-30.660156 21.339844 39.980469 7.214844c.898437 5.710938 1.800781 11.722656 1.800781 17.734375zm0 0"/><path d="m421.824219 272.53125v73.644531c0 8.417969-6.613281 15.027344-15.03125 15.027344-8.414063 0-15.027344-6.609375-15.027344-15.027344v-73.644531c4.808594-.601562 9.917969-1.503906 15.027344-1.503906s10.222656.902344 15.03125 1.503906zm0 0"/><path d="m378.203125 381.972656c6.339844 0 12.226563-4.035156 14.296875-10.390625 2.566406-7.882812-1.761719-16.363281-9.660156-18.933593l-70.019532-22.75c-4.417968 8.917968-7.691406 18.417968-9.429687 28.539062l70.175781 22.800781c1.539063.5 3.097656.734375 4.636719.734375zm0 0"/><path d="m397.960938 388.402344c-6.753907-4.902344-16.132813-3.421875-20.988282 3.316406l-43.433594 59.777344c7.195313 7 15.554688 12.667968 24.503907 17.398437l43.234375-59.503906c4.886718-6.722656 3.390625-16.117187-3.316406-20.988281zm0 0"/></g><path d="m415.628906 388.402344c-6.707031 4.871094-8.203125 14.265625-3.316406 20.988281l43.234375 59.503906c8.949219-4.730469 17.3125-10.398437 24.503906-17.402343l-43.433593-59.773438c-4.871094-6.722656-14.265626-8.203125-20.988282-3.316406zm0 0" fill="#a3a3d1"/><path d="m430.746094 352.648438c-7.894532 2.566406-12.226563 11.050781-9.65625 18.933593 2.070312 6.355469 7.953125 10.390625 14.296875 10.390625 1.539062 0 3.09375-.234375 4.636719-.734375l70.175781-22.800781c-1.738281-10.121094-5.011719-19.621094-9.429688-28.542969zm0 0" fill="#a3a3d1"/><path d="m421.824219 272.53125v73.644531c0 8.417969-6.613281 15.027344-15.03125 15.027344v-90.175781c5.109375 0 10.222656.902344 15.03125 1.503906zm0 0" fill="#a3a3d1"/><path d="m406.792969 331.144531c-24.949219 0-45.085938 20.140625-45.085938 45.089844s20.136719 45.085937 45.085938 45.085937c24.953125 0 45.089843-20.136718 45.089843-45.085937s-20.136718-45.089844-45.089843-45.089844zm0 0" fill="#725d57"/><path d="m451.882812 376.234375c0 24.949219-20.136718 45.085937-45.089843 45.085937v-90.175781c24.953125 0 45.089843 20.140625 45.089843 45.089844zm0 0" fill="#53433f"/><path d="m330.644531 120.734375v75.148437c0 58.011719-47.191406 105.203126-105.203125 105.203126-58.015625 0-105.207031-47.191407-105.207031-105.203126v-165.324218h181.253906zm0 0" fill="#fed2a4"/><path d="m330.644531 120.734375v75.148437c0 58.011719-47.191406 105.203126-105.203125 105.203126v-270.527344h76.046875zm0 0" fill="#ffbd86"/><path d="m255.5.5h-180.351562c-8.417969 0-15.03125 6.613281-15.03125 15.03125v30.058594c0 41.480468 33.664062 75.144531 75.148437 75.144531h45.085937c17.132813 0 32.464844-5.710937 45.089844-15.328125 5.710938-3.910156 10.820313-9.019531 15.027344-14.730469 9.320312-12.324219 15.03125-28.253906 15.03125-45.085937v30.058594c0 24.898437 20.183594 45.085937 45.085938 45.085937h30.058593v-45.085937c0-41.503907-33.644531-75.148438-75.144531-75.148438zm0 0" fill="#fdbf00"/><path d="m240.46875 90.675781c9.320312-12.324219 15.03125-28.253906 15.03125-45.085937v30.058594c0 24.898437 20.183594 45.085937 45.085938 45.085937h30.058593v-45.085937c0-41.503907-33.644531-75.148438-75.144531-75.148438h-30.058594v104.90625c5.710938-3.910156 10.820313-9.019531 15.027344-14.730469zm0 0" fill="#ff9f00"/></svg>