<svg height="512pt" viewBox="-31 0 512 512" width="512pt" xmlns="http://www.w3.org/2000/svg"><path d="m0 497c0 8.289062 6.710938 15 15 15h75l30-32-30-30-46.875-30-43.125 30zm0 0" fill="#b35f49"/><path d="m41.453125 345c-25.574219 12.804688-41.453125 38.496094-41.453125 67.074219v37.925781h90l30-55.3125-30-73.964844zm0 0" fill="#53433f"/><path d="m360 512h75c8.289062 0 15-6.710938 15-15v-47l-44.0625-30-45.9375 30-30 31.875zm0 0" fill="#99503d"/><path d="m408.546875 345-48.546875-24.277344-30 101.152344 30 28.125h90v-37.925781c0-28.578125-15.878906-54.269531-41.453125-67.074219zm0 0" fill="#3e322e"/><path d="m360 320.699219v191.300781h-90l-15-32h-60l-15 32h-90v-191.300781l74.398438-37.199219h121.203124zm0 0" fill="#fdbf00"/><path d="m360 320.699219v191.300781h-90l-15-32h-30v-196.5h60.601562zm0 0" fill="#ff9f00"/><path d="m270 283.5v106.5l-45 29.398438-.902344.601562-44.097656-30v-106.5zm0 0" fill="#b35f49"/><path d="m270 283.5v106.5l-45 29.398438v-135.898438zm0 0" fill="#99503d"/><path d="m330 180v45c0 57.898438-47.101562 105-105 105s-105-47.101562-105-105v-45l27.597656-60h158.703125zm0 0" fill="#c6715a"/><path d="m330 180v45c0 57.898438-47.101562 105-105 105v-210h81.300781zm0 0" fill="#b35f49"/><path d="m240 15v30c0 8.402344-6.597656 15-15 15s-15-6.597656-15-15v-30c0-8.402344 6.597656-15 15-15s15 6.597656 15 15zm0 0" fill="#fdbf00"/><path d="m225 60v-60c8.402344 0 15 6.597656 15 15v30c0 8.402344-6.597656 15-15 15zm0 0" fill="#ff9f00"/><path d="m330 120v60h-60c-24.902344 0-45-20.097656-45-45 0 24.902344-20.097656 45-45 45h-60v-60l30-30h135zm0 0" fill="#53433f"/><path d="m330 120v60h-60c-24.902344 0-45-20.097656-45-45v-45h60zm0 0" fill="#3e322e"/><path d="m330 105v15h-255c-8.402344 0-15-6.597656-15-15s6.597656-15 15-15h46.5c6.902344-34.199219 37.199219-60 73.5-60h60c41.398438 0 75 33.601562 75 75zm0 0" fill="#fdbf00"/><path d="m330 105v15h-105v-90h30c41.398438 0 75 33.601562 75 75zm0 0" fill="#ff9f00"/><path d="m180 390h90v122h-90zm0 0" fill="#53433f"/><path d="m225 390h45v122h-45zm0 0" fill="#3e322e"/></svg>