<?xml version="1.0" encoding="iso-8859-1"?>
<!-- Generator: Adobe Illustrator 19.0.0, SVG Export Plug-In . SVG Version: 6.00 Build 0)  -->
<svg version="1.1" id="Capa_1" xmlns="http://www.w3.org/2000/svg" xmlns:xlink="http://www.w3.org/1999/xlink" x="0px" y="0px"
	 viewBox="0 0 512 512" style="enable-background:new 0 0 512 512;" xml:space="preserve">
<circle style="fill:#64E1DC;" cx="256" cy="256" r="256"/>
<path style="fill:#00C8C8;" d="M512,256c0-1.58-0.031-3.153-0.06-4.727L421,160.333l-5.567,9.1L347.5,101.5l-165.143,35L91,398.333
	L198.087,505.42c18.61,4.304,37.996,6.58,57.913,6.58C397.385,512,512,397.385,512,256z"/>
<path style="fill:#FFFFFF;" d="M347.5,203.5H169v-102h178.5V203.5z M204,168.5h108.5v-32H204V168.5z"/>
<polygon style="fill:#F0F0F0;" points="347.5,101.5 255.571,101.5 255.571,136.5 312.5,136.5 312.5,168.5 255.571,168.5 
	255.571,203.5 347.5,203.5 "/>
<rect x="91" y="160.33" style="fill:#FFFFFF;" width="330" height="238"/>
<rect x="255.57" y="160.33" style="fill:#F0F0F0;" width="165.43" height="238"/>
<rect x="91" y="160.33" style="fill:#FF583E;" width="330" height="89.67"/>
<rect x="255.57" y="160.33" style="fill:#FF432E;" width="165.43" height="89.67"/>
<polygon style="fill:#FF583E;" points="301.333,310.667 273,310.667 273,282.333 239,282.333 239,310.667 210.667,310.666 
	210.667,344.666 239,344.667 239,373 273,373 273,344.667 301.333,344.667 "/>
<polygon style="fill:#FF432E;" points="273,310.667 273,282.333 255.571,282.333 255.571,373 273,373 273,344.667 301.333,344.667 
	301.333,310.667 "/>
<rect x="128.25" y="225" style="fill:#DB0404;" width="46" height="54.33"/>
<rect x="337.75" y="225" style="fill:#C10000;" width="46" height="54.33"/>
<g>
</g>
<g>
</g>
<g>
</g>
<g>
</g>
<g>
</g>
<g>
</g>
<g>
</g>
<g>
</g>
<g>
</g>
<g>
</g>
<g>
</g>
<g>
</g>
<g>
</g>
<g>
</g>
<g>
</g>
</svg>
