<svg height="512pt" viewBox="-31 0 512 512.00051" width="512pt" xmlns="http://www.w3.org/2000/svg"><path d="m317.101562 301.398438-30.300781 70.503906-61.800781 44.699218-17.699219 12.898438-69.300781-85.800781-2.097656-43.796875 28.496094-14.402344h121.203124zm0 0" fill="#b35f49"/><path d="m317.101562 301.398438-30.300781 70.503906-61.800781 44.699218v-131.101562h60.601562zm0 0" fill="#99503d"/><path d="m330 149.535156v75.464844c0 57.898438-47.101562 105-105 105s-105-47.101562-105-105v-75l27.597656-45h158.101563zm0 0" fill="#c6715a"/><path d="m305.699219 105 24.300781 44.535156v75.464844c0 57.898438-47.101562 105-105 105v-225zm0 0" fill="#b35f49"/><path d="m255 31h-120.066406c-14.460938-.023438-29.238282-6.515625-40.535156-17.816406l-8.535157-8.535156c-3.636719-3.632813-8.847656-5.398438-13.878906-4.347657-7.113281 1.488281-11.984375 7.695313-11.984375 14.699219v61c0 41.421875 33.578125 75 75 75h30c33.828125 0 63.964844-16.085938 83.183594-41.003906 14.511718 28.40625 46.578125 46.414062 81.816406 39.539062v-43.535156c0-41.421875-33.578125-75-75-75zm0 0" fill="#fdbf00"/><path d="m255 31h-30v101.117188c8.804688-6.15625 16.628906-13.621094 23.183594-22.121094 14.511718 28.40625 46.578125 46.414062 81.816406 39.539062v-43.535156c0-41.421875-33.578125-75-75-75zm0 0" fill="#ff9f00"/><path d="m408.546875 347-91.300781-45.65625-109.847656 122.253906 19.742187 58.9375 90.464844 29.464844h42.394531l15-30 15 30h45c8.292969 0 15-6.707031 15-15v-82.925781c0-28.578125-15.878906-54.269531-41.453125-67.074219zm0 0" fill="#d8d8fc"/><path d="m375 422c-8.285156 0-15 6.714844-15 15v75h30v-75c0-8.285156-6.714844-15-15-15zm0 0" fill="#a3a3d1"/><path d="m225 404-89.097656-104.097656-94.503906 47.097656c-25.496094 12.902344-41.398438 38.402344-41.398438 67.199219v82.800781c0 8.402344 6.597656 15 15 15h45l15-30 15 30h227.703125zm0 0" fill="#f2f2fc"/><path d="m90 437c0-8.285156-6.714844-15-15-15s-15 6.714844-15 15v75h30zm0 0" fill="#d8d8fc"/></svg>