<svg height="512pt" viewBox="0 -16 512 512" width="512pt" xmlns="http://www.w3.org/2000/svg"><path d="m452 382.199219v82.800781c0 8.398438-6.597656 15-15 15h-346l-15-30-15 30h-46c-8.402344 0-15-6.601562-15-15v-82.800781c0-28.800781 16.902344-54.300781 42.398438-67.199219l39-19.5h289.203124l40 19.5c25.496094 12.898438 41.398438 38.398438 41.398438 67.199219zm0 0" fill="#fdbf00"/><path d="m452 382.199219v82.800781c0 8.398438-6.597656 15-15 15h-211v-184.5h144.601562l40 19.5c25.496094 12.898438 41.398438 38.398438 41.398438 67.199219zm0 0" fill="#ff9f00"/><path d="m342.699219 281.398438-30 45-86.699219 15-88.199219-15-28.199219-45 41.398438-20.699219h150zm0 0" fill="#ffbd86"/><path d="m342.699219 281.398438-30 45-86.699219 15v-80.699219h75zm0 0" fill="#f6a96c"/><path d="m370.601562 295.5c-36.601562 40.5-88.800781 64.5-144.601562 64.5s-108-24.300781-144.601562-64.5l28.203124-14.101562c30.597657 30.300781 72 48.601562 116.398438 48.601562s86.101562-18 116.699219-48.601562zm0 0" fill="#f2f2fc"/><path d="m76 390c-8.289062 0-15 6.710938-15 15v75h30v-75c0-8.289062-6.710938-15-15-15zm0 0" fill="#ff9f00"/><path d="m512 375c0 47.699219-17.699219 80.699219-26.101562 97.199219-2.699219 4.800781-7.5 7.800781-13.199219 7.800781h-41.398438c-5.699219 0-10.5-3-13.199219-7.800781-8.699218-16.5-26.101562-49.199219-26.101562-97.199219 0-33.300781 7.800781-56.699219 15.601562-75l21.296876-14.402344-8.097657-15.597656c4.199219-11.398438 4.5-21.300781-3.898437-32.101562-4.804688-5.699219-9.902344-12.300782-9.902344-27.898438 0-24.902344 20.097656-45 45-45 4.199219 0 8.699219.597656 13.199219 1.800781 20.101562 5.699219 32.402343 24.597657 31.800781 45.597657-.601562 13.800781-5.398438 19.800781-9.902344 25.5-8.699218 10.5-8.097656 20.402343-3.898437 32.101562l-9 13.5 22.199219 16.5c7.800781 18.300781 15.601562 42 15.601562 75zm0 0" fill="#f2f2fc"/><path d="m512 375c0 47.699219-17.699219 80.699219-26.101562 97.199219-2.699219 4.800781-7.5 7.800781-13.199219 7.800781h-20.699219v-315c4.199219 0 8.699219.597656 13.199219 1.800781 20.101562 5.699219 32.402343 24.597657 31.800781 45.597657-.601562 13.800781-5.398438 19.800781-9.902344 25.5-8.699218 10.5-8.097656 20.402343-3.898437 32.101562l-9 13.5 22.199219 16.5c7.800781 18.300781 15.601562 42 15.601562 75zm0 0" fill="#d8d8fc"/><path d="m331 120v75c0 57.898438-47.101562 105-105 105s-105-47.101562-105-105v-165h180.902344zm0 0" fill="#fed2a4"/><path d="m331 120v75c0 57.898438-47.101562 105-105 105v-270h75.902344zm0 0" fill="#ffbd86"/><path d="m256 0h-60c-74.398438 0-135 60.597656-135 135 0 6 3.601562 11.398438 9.300781 13.800781 5.398438 2.398438 12 1.199219 16.5-3.300781 13.800781-14.398438 30.300781-25.5 50.398438-25.5h73.800781c5.398438 0 10.199219-.902344 15-2.699219 17.398438-6 30-22.800781 30-42.300781 0 24.851562 20.148438 45 45 45h30v-45c0-41.421875-33.578125-75-75-75zm0 0" fill="#53433f"/><path d="m256 0h-30v117.300781c17.398438-6 30-22.800781 30-42.300781 0 24.851562 20.148438 45 45 45h30v-45c0-41.421875-33.578125-75-75-75zm0 0" fill="#3e322e"/><path d="m496.398438 300h-88.796876c5.097657-11.699219 10.199219-21.601562 13.199219-30h62.398438c3.300781 8.699219 8.101562 18.300781 13.199219 30zm0 0" fill="#ff667c"/><path d="m496.398438 300h-44.398438v-30h31.199219c3.300781 8.699219 8.101562 18.300781 13.199219 30zm0 0" fill="#e63950"/><path d="m370.601562 295.5c-36.601562 40.5-88.800781 64.5-144.601562 64.5v-30c44.398438 0 86.101562-18 116.699219-48.601562zm0 0" fill="#d8d8fc"/></svg>