<?xml version="1.0" encoding="iso-8859-1"?>
<!-- Generator: Adobe Illustrator 19.0.0, SVG Export Plug-In . SVG Version: 6.00 Build 0)  -->
<svg version="1.1" id="Capa_1" xmlns="http://www.w3.org/2000/svg" xmlns:xlink="http://www.w3.org/1999/xlink" x="0px" y="0px"
	 viewBox="0 0 512 512" style="enable-background:new 0 0 512 512;" xml:space="preserve">
<circle style="fill:#64E1DC;" cx="256" cy="256" r="256"/>
<path style="fill:#00C8C8;" d="M512,256c0-18.29-1.933-36.125-5.579-53.329L439,135.25L73,376.75l129.671,129.671
	C219.875,510.067,237.71,512,256,512C397.385,512,512,397.385,512,256z"/>
<rect x="148.5" y="352.92" style="fill:#707789;" width="49.33" height="96.67"/>
<rect x="314.17" y="352.92" style="fill:#636978;" width="49.33" height="96.67"/>
<rect x="73" y="135.25" style="fill:#555A66;" width="366" height="241.5"/>
<rect x="255.57" y="135.25" style="fill:#414952;" width="183.43" height="241.5"/>
<rect x="276.63" y="167.5" style="fill:#DEBB0D;" width="128.12" height="177"/>
<rect x="107.25" y="167.5" style="fill:#E8C917;" width="128.12" height="177"/>
<path style="fill:#FFFFFF;" d="M218.333,329.25h-90v-146.5h90V329.25z M154.333,303.25h38v-94.5h-38V303.25z"/>
<rect x="329.67" y="182.75" style="fill:#F0F0F0;" width="26" height="146.5"/>
<g>
</g>
<g>
</g>
<g>
</g>
<g>
</g>
<g>
</g>
<g>
</g>
<g>
</g>
<g>
</g>
<g>
</g>
<g>
</g>
<g>
</g>
<g>
</g>
<g>
</g>
<g>
</g>
<g>
</g>
</svg>
