<svg height="512pt" viewBox="-31 0 512 512" width="512pt" xmlns="http://www.w3.org/2000/svg"><path d="m450 412.199219v84.800781c0 8.398438-6.597656 15-15 15h-45l-60-32-30 32h-150l-45-32-45 32h-45c-8.402344 0-15-6.601562-15-15v-84.800781c0-28.800781 15.902344-54.300781 41.398438-67.199219l123-61.5h121.203124l123 61.5c25.496094 12.898438 41.398438 38.398438 41.398438 67.199219zm0 0" fill="#ff667c"/><path d="m450 412.199219v84.800781c0 8.398438-6.597656 15-15 15h-45l-60-32-30 32h-75v-228.5h60.601562l123 61.5c25.496094 12.898438 41.398438 38.398438 41.398438 67.199219zm0 0" fill="#e63950"/><path d="m330 120v105c0 57.898438-47.101562 105-105 105-28.800781 0-55.199219-11.699219-74.097656-30.902344-19.203125-18.898437-30.902344-45.296875-30.902344-74.097656v-105zm0 0" fill="#fed2a4"/><path d="m330 120v105c0 57.898438-47.101562 105-105 105v-210zm0 0" fill="#ffbd86"/><path d="m165 240c-24.851562 0-45-20.148438-45-45v-45h90v45c0 24.851562-20.148438 45-45 45zm0 0" fill="#2ac1ff"/><path d="m285 240c-24.851562 0-45-20.148438-45-45v-45h90v45c0 24.851562-20.148438 45-45 45zm0 0" fill="#008de4"/><path d="m360 135v30c0 8.398438-6.597656 15-15 15h-240c-8.402344 0-15-6.601562-15-15v-30c0-5.101562.902344-9.902344 1.5-15l58.5-30-4.199219-63.601562c18.296875-13.5 40.199219-22.199219 64.199219-24.898438l15 28.5 15-28.5c27.898438 3.300781 53.402344 14.699219 73.5 32.402344l-13.5 56.097656 58.5 30c.597656 5.097656 1.5 9.898438 1.5 15zm0 0" fill="#ff667c"/><path d="m360 135v30c0 8.398438-6.597656 15-15 15h-120v-150l15-28.5c27.898438 3.300781 53.402344 14.699219 73.5 32.402344l-13.5 56.097656 58.5 30c.597656 5.097656 1.5 9.898438 1.5 15zm0 0" fill="#e63950"/><path d="m192.757812 112.882812c2.738282-4.410156 2.988282-9.933593.660157-14.59375l-47.679688-72.035156c-29.757812 21.753906-49.894531 55.277344-54.222656 93.746094h88.484375c5.199219 0 10.019531-2.695312 12.757812-7.117188zm0 0" fill="#53433f"/><path d="m313.503906 33.875-55.03125 61.515625c-3.722656 4.480469-4.527344 10.707031-2.050781 15.964844 2.460937 5.277343 7.761719 8.644531 13.578125 8.644531h88.484375c-3.859375-34.289062-20.3125-64.507812-44.980469-86.125zm0 0" fill="#3e322e"/><path d="m240 1.5v73.5c0 8.398438-6.597656 15-15 15s-15-6.601562-15-15v-73.5c5.097656-.601562 9.902344-1.5 15-1.5s9.902344.898438 15 1.5zm0 0" fill="#53433f"/><path d="m225 90v-90c5.097656 0 9.902344.898438 15 1.5v73.5c0 8.398438-6.597656 15-15 15zm0 0" fill="#3e322e"/><path d="m150 512h-60l-15-30.125 15-31.875h15c24.851562 0 45 22.148438 45 47zm0 0" fill="#f2f2fc"/><path d="m300 512h60l15-30.125-15-31.875h-15c-24.851562 0-45 22.148438-45 47zm0 0" fill="#d8d8fc"/><path d="m75 390c-8.285156 0-15 6.714844-15 15v107h30v-107c0-8.285156-6.714844-15-15-15zm0 0" fill="#e63950"/><path d="m375 390c8.285156 0 15 6.714844 15 15v107h-30v-107c0-8.285156 6.714844-15 15-15zm0 0" fill="#cc2e43"/></svg>