<svg height="512pt" viewBox="0 0 512 512" width="512pt" xmlns="http://www.w3.org/2000/svg"><path d="m451 412.199219v69.800781c0 16.5-13.5 30-30 30h-406c-8.402344 0-15-6.601562-15-15v-84.800781c0-28.800781 15.902344-54.300781 41.398438-67.199219l79.601562-39.300781 30 69.300781h150l30-69.300781 78.601562 39.300781c25.496094 12.898438 41.398438 38.398438 41.398438 67.199219zm0 0" fill="#62de83"/><path d="m451 412.199219v69.800781c0 16.5-13.5 30-30 30h-195v-137h75l30-69.300781 78.601562 39.300781c25.496094 12.898438 41.398438 38.398438 41.398438 67.199219zm0 0" fill="#3bc480"/><path d="m331 305.699219v99.300781c0 8.398438-6.597656 15-15 15h-180c-8.402344 0-15-6.601562-15-15v-99.300781l30-15h150zm0 0" fill="#f2f2fc"/><path d="m331 305.699219v99.300781c0 8.398438-6.597656 15-15 15h-90v-129.300781h75zm0 0" fill="#d8d8fc"/><path d="m151 270h150v120h-150zm0 0" fill="#ffbd86"/><path d="m226 270h75v120h-75zm0 0" fill="#f6a96c"/><path d="m331 150v75c0 57.898438-47.101562 105-105 105s-105-47.101562-105-105v-75l30-30h155.699219zm0 0" fill="#fed2a4"/><path d="m331 150v75c0 57.898438-47.101562 105-105 105v-210h80.699219zm0 0" fill="#ffbd86"/><path d="m241 15v30c0 8.398438-6.597656 15-15 15s-15-6.601562-15-15v-30c0-8.402344 6.597656-15 15-15s15 6.597656 15 15zm0 0" fill="#fdbf00"/><path d="m226 60v-60c8.402344 0 15 6.597656 15 15v30c0 8.398438-6.597656 15-15 15zm0 0" fill="#ff9f00"/><path d="m331 105v45h-255c-8.402344 0-15-6.601562-15-15 0-8.402344 6.597656-15 15-15h45v-15c0-41.398438 33.601562-75 75-75h60c41.398438 0 75 33.601562 75 75zm0 0" fill="#fdbf00"/><path d="m331 150h-105v-120h30c41.398438 0 75 33.601562 75 75zm0 0" fill="#ff9f00"/><path d="m421 512c-33.136719 0-60-28.863281-60-62v-360c0-33.136719 26.863281-60 60-60s60 26.863281 60 60v360c0 33.136719-26.863281 62-60 62zm0 0" fill="#e63950"/><path d="m466 210c-24.8125 0-45-20.1875-45-45s20.1875-45 45-45 46 20.1875 46 45-21.1875 45-46 45zm0 0" fill="#53433f"/><path d="m466 420c-24.8125 0-45-20.1875-45-45s20.1875-45 45-45 46 20.1875 46 45-21.1875 45-46 45zm0 0" fill="#53433f"/><g fill="#e2e2e7"><path d="m466 150c-8.277344 0-15 6.722656-15 15s6.722656 15 15 15 15-6.722656 15-15-6.722656-15-15-15zm0 0"/><path d="m466 360c-8.277344 0-15 6.722656-15 15s6.722656 15 15 15 15-6.722656 15-15-6.722656-15-15-15zm0 0"/></g></svg>