<svg height="512pt" viewBox="0 0 512 512" width="512pt" xmlns="http://www.w3.org/2000/svg"><path d="m452 412.199219v84.800781c0 8.398438-6.597656 15-15 15h-45l-15-30-15 15c0 8.398438-6.597656 15-15 15h-91c-5.398438 0-10.5-.902344-15-2.699219-5.699219-1.800781-10.800781-5.101562-15-9-7.800781 7.199219-18.300781 11.699219-30 11.699219h-90c-8.402344 0-15-6.601562-15-15l-15-15-15 30h-46c-8.402344 0-15-6.601562-15-15v-84.800781c0-28.800781 15.902344-54.300781 41.398438-67.199219l124-61.5h121.203124l124 61.5c25.496094 12.898438 41.398438 38.398438 41.398438 67.199219zm0 0" fill="#b35f49"/><path d="m452 412.199219v84.800781c0 8.398438-6.597656 15-15 15h-45l-15-30-15 15c0 8.398438-6.597656 15-15 15h-91c-5.398438 0-10.5-.902344-15-2.699219-5.699219-1.800781-10.800781-5.101562-15-9v-216.800781h60.601562l124 61.5c25.496094 12.898438 41.398438 38.398438 41.398438 67.199219zm0 0" fill="#99503d"/><path d="m198.578125 407.578125c-3.839844 0-7.675781-1.464844-10.605469-4.394531-8.496094-8.496094-19.804687-13.183594-31.832031-13.183594-8.289063 0-15-6.710938-15-15s6.710937-15 15-15c20.039063 0 38.878906 7.808594 53.042969 21.972656 5.859375 5.859375 5.859375 15.351563 0 21.210938-2.929688 2.929687-6.769532 4.394531-10.605469 4.394531zm0 0" fill="#99503d"/><path d="m253.421875 407.578125c-3.835937 0-7.675781-1.464844-10.605469-4.394531-5.859375-5.859375-5.859375-15.351563 0-21.210938 14.164063-14.164062 33.003906-21.972656 53.042969-21.972656 8.289063 0 15 6.710938 15 15s-6.710937 15-15 15c-12.027344 0-23.335937 4.6875-31.832031 13.183594-2.929688 2.929687-6.765625 4.394531-10.605469 4.394531zm0 0" fill="#804231"/><path d="m377 420c-8.285156 0-15 6.714844-15 15v62c0 8.398438 6.597656 15 15 15h15v-77c0-8.285156-6.714844-15-15-15zm0 0" fill="#804231"/><path d="m76 420c-8.285156 0-15 6.714844-15 15v77h15c8.402344 0 15-6.601562 15-15v-62c0-8.285156-6.714844-15-15-15zm0 0" fill="#99503d"/><path d="m331 150v75c0 57.898438-47.101562 105-105 105s-105-47.101562-105-105v-165h180.902344zm0 0" fill="#c6715a"/><path d="m331 150v75c0 57.898438-47.101562 105-105 105v-270h75.902344zm0 0" fill="#b35f49"/><path d="m256 30h-60c-74.398438 0-135 60.597656-135 135 0 6 3.601562 11.398438 9.300781 13.800781 5.398438 2.398438 12 1.199219 16.5-3.300781 13.800781-14.398438 30.300781-25.5 50.398438-25.5h73.800781c5.398438 0 10.199219-.902344 15-2.699219 17.398438-6 30-22.800781 30-42.300781 0 24.851562 20.148438 45 45 45h30v-45c0-41.421875-33.578125-75-75-75zm0 0" fill="#53433f"/><path d="m256 105c0 24.851562 20.148438 45 45 45h30v-45c0-41.421875-33.578125-75-75-75h-30v117.300781c17.398438-6 30-22.800781 30-42.300781zm0 0" fill="#3e322e"/><path d="m512 263.699219-30.601562-6 29.402343 47.402343c-5.398437 116.699219-29.703125 206.898438-58.800781 206.898438s-53.402344-90.199219-58.800781-206.902344l29.402343-49.199218-30.601562 7.800781v-8.699219c0-13.5.300781-26.699219.898438-39.601562l31.199218-51.300782-28.5 6.300782c8.101563-99.296876 30.300782-170.398438 56.402344-170.398438s48.300781 71.101562 56.398438 170.398438l-28.5-8.097657 31.199218 53.097657c.601563 12.902343.902344 26.101562.902344 39.601562zm0 0" fill="#ff667c"/><path d="m512 263.699219-30.601562-6 29.402343 47.402343c-5.398437 116.699219-29.703125 206.898438-58.800781 206.898438v-512c26.101562 0 48.300781 71.101562 56.398438 170.398438l-28.5-8.097657 31.199218 53.097657c.601563 12.902343.902344 26.101562.902344 39.601562zm0 0" fill="#e63950"/><path d="m511.097656 215.398438-59.097656-59.097657-59.097656 59.097657c.597656-15.597657 1.5-30.597657 2.699218-45l45.898438-45.898438c2.699219-3 6.601562-4.5 10.5-4.5s7.800781 1.5 10.5 4.5l45.898438 45.898438c1.199218 14.402343 2.101562 29.402343 2.699218 45zm0 0" fill="#ffd400"/><path d="m512 263.699219c-.300781 14.101562-.601562 27.898437-1.199219 41.398437l-58.800781-58.796875-58.800781 58.800781c-.597657-13.5-.898438-27.300781-1.199219-41.402343l49.5-49.199219c2.699219-3 6.601562-4.5 10.5-4.5s7.800781 1.5 10.5 4.5zm0 0" fill="#ffd400"/><g fill="#ff9f00"><path d="m511.097656 215.398438-59.097656-59.097657v-36.300781c3.898438 0 7.800781 1.5 10.5 4.5l45.898438 45.898438c1.199218 14.402343 2.101562 29.402343 2.699218 45zm0 0"/><path d="m512 263.699219c-.300781 14.101562-.601562 27.898437-1.199219 41.398437l-58.800781-58.796875v-36.300781c3.898438 0 7.800781 1.5 10.5 4.5zm0 0"/></g></svg>