<?xml version="1.0" encoding="iso-8859-1"?>
<!-- Generator: Adobe Illustrator 19.0.0, SVG Export Plug-In . SVG Version: 6.00 Build 0)  -->
<svg version="1.1" id="Capa_1" xmlns="http://www.w3.org/2000/svg" xmlns:xlink="http://www.w3.org/1999/xlink" x="0px" y="0px"
	 viewBox="0 0 512 512" style="enable-background:new 0 0 512 512;" xml:space="preserve">
<circle style="fill:#3D7ED9;" cx="256" cy="256" r="256"/>
<path style="fill:#466EB2;" d="M512,256c0-7.63-0.354-15.177-1.008-22.637l-90.339-90.339l-35.804,47.825L295,101L115.667,379.667
	l132.191,132.191c2.705,0.085,5.417,0.142,8.142,0.142C397.385,512,512,397.385,512,256z"/>
<rect x="213.783" y="120.801" transform="matrix(-0.9772 -0.2123 0.2123 -0.9772 544.7511 578.7624)" style="fill:#F2D813;" width="179.329" height="278.669"/>
<polygon style="fill:#E8C917;" points="420.654,143.024 332.912,123.959 272.624,396.029 361.485,415.337 "/>
<rect x="115.67" y="101" style="fill:#DE4726;" width="179.33" height="278.67"/>
<rect x="203.79" y="101" style="fill:#D9351C;" width="91.21" height="278.67"/>
<g>
</g>
<g>
</g>
<g>
</g>
<g>
</g>
<g>
</g>
<g>
</g>
<g>
</g>
<g>
</g>
<g>
</g>
<g>
</g>
<g>
</g>
<g>
</g>
<g>
</g>
<g>
</g>
<g>
</g>
</svg>
