<svg height="512pt" viewBox="0 0 512 512" width="512pt" xmlns="http://www.w3.org/2000/svg"><path d="m452 30h30v150h-30zm0 0" fill="#d8d8fc"/><path d="m467 30h15v150h-15zm0 0" fill="#a3a3d1"/><path d="m391 300c0 16.5-13.5 30-30 30h-270c-16.5 0-30-13.5-30-30s13.5-30 30-30h270c16.5 0 30 13.5 30 30zm0 0" fill="#53433f"/><path d="m391 300c0 16.5-13.5 30-30 30h-135v-60h135c16.5 0 30 13.5 30 30zm0 0" fill="#3e322e"/><path d="m452 412.199219v84.800781c0 8.398438-6.597656 15-15 15h-46l-15-30-15 30h-270l-15-30-15 30h-46c-8.402344 0-15-6.601562-15-15v-84.800781c0-28.800781 15.902344-54.300781 41.398438-67.199219l69.402343-34.199219 104.699219 74.699219h21l104.703125-74.699219 68.398437 34.199219c25.496094 12.898438 42.398438 38.398438 42.398438 67.199219zm0 0" fill="#62de83"/><path d="m452 412.199219v84.800781c0 8.398438-6.597656 15-15 15h-46l-15-30-15 30h-135v-126.5h10.5l104.699219-74.699219 68.402343 34.199219c25.496094 12.898438 42.398438 38.398438 42.398438 67.199219zm0 0" fill="#3bc480"/><path d="m121 315v60c0 8.285156 6.714844 15 15 15s15-6.714844 15-15v-60zm0 0" fill="#f2f2fc"/><path d="m301 315v60c0 8.285156 6.714844 15 15 15s15-6.714844 15-15v-60zm0 0" fill="#d8d8fc"/><path d="m341.199219 310.800781-104.699219 104.699219c-2.699219 3-6.601562 4.5-10.5 4.5s-7.800781-1.5-10.5-4.5l-104.699219-104.699219 28.199219-14.101562 26.398438-13.199219h121.203124l26.398438 13.199219zm0 0" fill="#53433f"/><path d="m341.199219 310.800781-104.699219 104.699219c-2.699219 3-6.601562 4.5-10.5 4.5v-136.5h60.601562l26.398438 13.199219zm0 0" fill="#3e322e"/><path d="m76 420c-8.285156 0-15 6.714844-15 15v77h30v-77c0-8.285156-6.714844-15-15-15zm0 0" fill="#3bc480"/><path d="m376 420c-8.285156 0-15 6.714844-15 15v77h30v-77c0-8.285156-6.714844-15-15-15zm0 0" fill="#31a66e"/><path d="m331 120v105c0 57.898438-47.101562 105-105 105-28.800781 0-55.199219-11.699219-74.097656-30.902344-19.203125-18.898437-30.902344-45.296875-30.902344-74.097656v-105zm0 0" fill="#ffcebf"/><path d="m331 120v105c0 57.898438-47.101562 105-105 105v-210zm0 0" fill="#ffbfab"/><path d="m166 240c-24.851562 0-45-20.148438-45-45v-45h90v45c0 24.851562-20.148438 45-45 45zm0 0" fill="#53433f"/><path d="m286 240c-24.851562 0-45-20.148438-45-45v-45h90v45c0 24.851562-20.148438 45-45 45zm0 0" fill="#3e322e"/><path d="m361 135v30c0 8.398438-6.597656 15-15 15h-240c-8.402344 0-15-6.601562-15-15v-30c0-5.101562.902344-9.902344 1.5-15l58.5-30-4.199219-63.601562c18.296875-13.5 40.199219-22.199219 64.199219-24.898438l15 28.5 15-28.5c27.898438 3.300781 53.402344 14.699219 73.5 32.402344l-13.5 56.097656 58.5 30c.597656 5.097656 1.5 9.898438 1.5 15zm0 0" fill="#2ac1ff"/><path d="m361 135v30c0 8.398438-6.597656 15-15 15h-120v-150l15-28.5c27.898438 3.300781 53.402344 14.699219 73.5 32.402344l-13.5 56.097656 58.5 30c.597656 5.097656 1.5 9.898438 1.5 15zm0 0" fill="#008de4"/><path d="m193.757812 112.882812c2.738282-4.410156 2.988282-9.933593.660157-14.59375l-47.679688-72.035156c-29.757812 21.753906-49.894531 55.277344-54.222656 93.746094h88.484375c5.199219 0 10.019531-2.695312 12.757812-7.117188zm0 0" fill="#53433f"/><path d="m314.503906 33.875-55.03125 61.515625c-3.722656 4.480469-4.527344 10.707031-2.050781 15.964844 2.460937 5.277343 7.761719 8.644531 13.578125 8.644531h88.484375c-3.859375-34.289062-20.3125-64.507812-44.980469-86.125zm0 0" fill="#3e322e"/><path d="m241 1.5v73.5c0 8.398438-6.597656 15-15 15s-15-6.601562-15-15v-73.5c5.097656-.601562 9.902344-1.5 15-1.5s9.902344.898438 15 1.5zm0 0" fill="#53433f"/><path d="m226 90v-90c5.097656 0 9.902344.898438 15 1.5v73.5c0 8.398438-6.597656 15-15 15zm0 0" fill="#3e322e"/><path d="m497 165v135c0 16.5-13.5 30-30 30s-30-13.5-30-30v-135c0-8.402344 6.597656-15 15-15h30c8.402344 0 15 6.597656 15 15zm0 0" fill="#68544f"/><path d="m497 165v135c0 16.5-13.5 30-30 30v-180h15c8.402344 0 15 6.597656 15 15zm0 0" fill="#3e322e"/><path d="m512 15v30c0 8.398438-6.597656 15-15 15h-91c-8.402344 0-15-6.601562-15-15 0-24.902344 21.097656-45 46-45h60c8.402344 0 15 6.597656 15 15zm0 0" fill="#f2f2fc"/><path d="m512 15v30c0 8.398438-6.597656 15-15 15h-30v-60h30c8.402344 0 15 6.597656 15 15zm0 0" fill="#d8d8fc"/></svg>