<?xml version="1.0" encoding="iso-8859-1"?>
<!-- Generator: Adobe Illustrator 19.0.0, SVG Export Plug-In . SVG Version: 6.00 Build 0)  -->
<svg version="1.1" id="Capa_1" xmlns="http://www.w3.org/2000/svg" xmlns:xlink="http://www.w3.org/1999/xlink" x="0px" y="0px"
	 viewBox="0 0 512 512" style="enable-background:new 0 0 512 512;" xml:space="preserve">
<circle style="fill:#FFE733;" cx="256" cy="256" r="256"/>
<path style="fill:#F2D813;" d="M512,256c0-10.833-0.68-21.507-1.986-31.986l-79.681-79.681L81.667,367.667l142.347,142.348
	C234.493,511.32,245.167,512,256,512C397.385,512,512,397.385,512,256z"/>
<rect x="81.67" y="144.33" style="fill:#86C42B;" width="348.67" height="223.33"/>
<rect x="255.57" y="144.33" style="fill:#78B22A;" width="174.76" height="223.33"/>
<polygon style="fill:#ECFFBF;" points="147.363,316.864 81.667,316.864 81.667,290.864 121.363,290.864 121.363,221.136 
	81.667,221.136 81.667,195.136 147.363,195.136 "/>
<polygon style="fill:#E2FF9C;" points="430.333,316.864 364.637,316.864 364.637,195.136 430.333,195.136 430.333,221.136 
	390.637,221.136 390.637,290.864 430.333,290.864 "/>
<path style="fill:#ECFFBF;" d="M327.25,256c0-34.846-25.152-63.91-58.25-70.04v-41.627h-26v41.627
	c-33.098,6.13-58.25,35.194-58.25,70.04s25.152,63.91,58.25,70.04v41.626h26V326.04C302.098,319.91,327.25,290.846,327.25,256z
	 M210.75,256c0-20.433,13.617-37.738,32.25-43.338v86.676C224.367,293.738,210.75,276.433,210.75,256z M269,299.338v-86.676
	c18.633,5.6,32.25,22.905,32.25,43.338S287.633,293.738,269,299.338z"/>
<path style="fill:#E2FF9C;" d="M269,185.96v-41.627h-13.429v223.333H269V326.04c33.098-6.13,58.25-35.194,58.25-70.04
	S302.098,192.09,269,185.96z M269,299.338v-86.676c18.633,5.6,32.25,22.905,32.25,43.338S287.633,293.738,269,299.338z"/>
<g>
</g>
<g>
</g>
<g>
</g>
<g>
</g>
<g>
</g>
<g>
</g>
<g>
</g>
<g>
</g>
<g>
</g>
<g>
</g>
<g>
</g>
<g>
</g>
<g>
</g>
<g>
</g>
<g>
</g>
</svg>
