<svg height="511pt" viewBox="0 1 511 511.99949" width="511pt" xmlns="http://www.w3.org/2000/svg"><path d="m.5 497c0 8.289062 6.707031 15 15 15h75.003906l30-30-30-30.003906-46.878906-30-43.125 30zm0 0" fill="#ffbfab"/><path d="m450.511719 414.195312v52.804688c0 24.898438-20.101563 45-45 45h-315.007813v-60.003906h-90.003906v-37.800782c0-28.796874 15.902344-54.300781 41.402344-67.199218l108.601562-54.300782h15l30 39.300782h60.003906l30-39.300782h15l108.601563 54.300782c25.5 12.898437 41.402344 38.402344 41.402344 67.199218zm0 0" fill="#ff667c"/><path d="m450.511719 414.195312v52.804688c0 24.898438-20.101563 45-45 45h-180.007813v-180.003906h30.003906l30-39.300782h15l108.601563 54.300782c25.5 12.898437 41.402344 38.402344 41.402344 67.199218zm0 0" fill="#e63950"/><path d="m285.507812 292.695312v39.300782c0 33-27.003906 60-60.003906 60s-60-27-60-60v-39.300782zm0 0" fill="#ffbfab"/><path d="m285.507812 292.695312v39.300782c0 33-27.003906 60-60.003906 60v-99.300782zm0 0" fill="#ffa78f"/><path d="m511.511719 406.996094c0 29.402344-12.296875 56.101562-31.800781 75.003906l-13.5.601562-11.101563 16.796876c-14.699219 7.800781-30.898437 12.601562-48.597656 12.601562-17.703125 0-33.902344-4.800781-48.601563-12.601562l-5.101562-20.398438-19.5 3c-19.5-18.902344-31.800782-45.601562-31.800782-75.003906 0-6 .902344-12 1.800782-17.699219l19.199218-5.703125-9.902343-22.796875c15-30.300781 44.101562-52.203125 78.902343-57.300781l15 28.5 15-28.5c34.800782 5.097656 63.902344 27 78.902344 57.300781l-30.601562 21.300781 39.902344 7.199219c.902343 5.699219 1.800781 11.699219 1.800781 17.699219zm0 0" fill="#f2f2fc"/><g fill="#d8d8fc"><path d="m511.511719 406.996094c0 29.402344-12.296875 56.101562-31.800781 75.003906l-13.5.601562-11.101563 16.796876c-14.699219 7.800781-30.898437 12.601562-48.597656 12.601562v-180.003906l15-28.5c34.796875 5.097656 63.898437 27 78.902343 57.300781l-30.601562 21.300781 39.898438 7.199219c.902343 5.699219 1.800781 11.699219 1.800781 17.699219zm0 0"/><path d="m421.511719 303.496094v73.5c0 8.402344-6.601563 15-15 15-8.402344 0-15.003907-6.597656-15.003907-15v-73.5c4.800782-.601563 9.902344-1.5 15.003907-1.5 5.097656 0 10.199219.898437 15 1.5zm0 0"/><path d="m377.972656 412.726562c6.328125 0 12.203125-4.03125 14.269532-10.371093 2.5625-7.867188-1.757813-16.335938-9.640626-18.898438l-69.886718-22.707031c-4.410156 8.902344-7.675782 18.382812-9.410156 28.484375l70.039062 22.757813c1.539062.496093 3.089844.734374 4.628906.734374zm0 0"/><path d="m397.691406 419.140625c-6.738281-4.894531-16.101562-3.414063-20.949218 3.3125l-43.347657 59.660156c7.179688 6.988281 15.523438 12.644531 24.457031 17.367188l43.152344-59.390625c4.875-6.710938 3.382813-16.085938-3.3125-20.949219zm0 0"/></g><path d="m415.328125 419.140625c-6.695313 4.863281-8.1875 14.238281-3.3125 20.949219l43.152344 59.386718c8.933593-4.71875 17.277343-10.375 24.457031-17.363281l-43.347656-59.660156c-4.863282-6.710937-14.238282-8.191406-20.949219-3.3125zm0 0" fill="#a3a3d1"/><path d="m430.417969 383.457031c-7.882813 2.5625-12.203125 11.03125-9.640625 18.894531 2.066406 6.34375 7.9375 10.371094 14.269531 10.371094 1.535156 0 3.089844-.234375 4.628906-.730468l70.039063-22.757813c-1.734375-10.101563-5-19.585937-9.410156-28.484375zm0 0" fill="#a3a3d1"/><path d="m421.511719 303.496094v73.5c0 8.402344-6.601563 15-15 15v-90c5.097656 0 10.199219.898437 15 1.5zm0 0" fill="#a3a3d1"/><path d="m406.511719 361.996094c-24.902344 0-45.003907 20.097656-45.003907 45s20.101563 45 45.003907 45c24.898437 0 45-20.097656 45-45s-20.101563-45-45-45zm0 0" fill="#725d57"/><path d="m451.511719 406.996094c0 24.902344-20.101563 45-45 45v-90c24.898437 0 45 20.101562 45 45zm0 0" fill="#53433f"/><path d="m416.117188 246.386719c-16.277344-16.273438-25.609376-40.804688-25.609376-63.816407v-88.816406c0-47.082031-33.410156-87.042968-77.726562-92.945312-33.164062-4.425782-65.785156 9.550781-85.253906 36.503906l82.851562 234.683594h95.132813c6.0625 0 11.542969-3.648438 13.855469-9.261719 2.328124-5.609375 1.039062-12.054687-3.25-16.347656zm0 0" fill="#ff9f00"/><path d="m330.507812 179.992188v47c0 57.902343-47.101562 105.003906-105.003906 105.003906-57.898437 0-105-47.101563-105-105.003906v-92.003907c0-7.5.898438-14.699219 2.398438-21.597656l102.601562 33zm0 0" fill="#ffcebf"/><path d="m330.507812 179.992188v47c0 57.902343-47.101562 105.003906-105.003906 105.003906v-185.605469zm0 0" fill="#ffbfab"/><path d="m330.507812 134.988281v45.003907h-50.101562c-20.101562 0-38.398438-2.703126-54.902344-7.203126-64.199218-16.796874-100.203125-57.597656-102.601562-59.398437 9.300781-44.703125 50.703125-83.402344 102.601562-83.402344 57.902344 0 105.003906 47.101563 105.003906 105zm0 0" fill="#fdbf00"/><path d="m330.507812 134.988281v45.003907h-50.101562c-20.101562 0-38.398438-2.703126-54.902344-7.203126v-142.800781c57.902344 0 105.003906 47.101563 105.003906 105zm0 0" fill="#ff9f00"/></svg>