<svg height="512pt" viewBox="0 0 512 512" width="512pt" xmlns="http://www.w3.org/2000/svg"><path d="m0 497c0 8.289062 6.710938 15 15 15h76l30-30-30-32-46.875-30-44.125 30zm0 0" fill="#ffbd86"/><path d="m361 512h75c8.289062 0 15-6.710938 15-15v-47l-44.0625-30-45.9375 30-30 33.875zm0 0" fill="#f6a96c"/><path d="m451 412.199219v37.800781h-90v62h-270v-62h-91v-37.800781c0-28.796875 16.902344-54.300781 42.398438-67.199219l108.601562-54.300781h150l108.601562 54.300781c25.496094 12.898438 41.398438 38.402344 41.398438 67.199219zm0 0" fill="#62de83"/><path d="m451 412.199219v37.800781h-90v62h-135v-221.300781h75l108.601562 54.300781c25.496094 12.898438 41.398438 38.402344 41.398438 67.199219zm0 0" fill="#3bc480"/><path d="m466 15v60c0 8.402344-6.597656 15-15 15s-15-6.597656-15-15v-60c0-8.402344 6.597656-15 15-15s15 6.597656 15 15zm0 0" fill="#d8d8fc"/><path d="m451 90v-90c8.402344 0 15 6.597656 15 15v60c0 8.402344-6.597656 15-15 15zm0 0" fill="#a3a3d1"/><path d="m481 90v77.699219c0 26.699219-10.800781 53.101562-30 72.300781-19.199219-19.199219-30-45.601562-30-72.300781v-77.699219c0-16.5 13.5-30 30-30s30 13.5 30 30zm0 0" fill="#68544f"/><path d="m481 90v77.699219c0 26.699219-10.800781 53.101562-30 72.300781v-180c16.5 0 30 13.5 30 30zm0 0" fill="#3e322e"/><path d="m241 435c0 8.402344-6.597656 15-15 15s-15-6.597656-15-15 6.597656-15 15-15 15 6.597656 15 15zm0 0" fill="#53433f"/><path d="m512 255v30c0 8.402344-6.597656 15-15 15-24.902344 0-46-20.097656-46-45 0 24.902344-20.097656 45-45 45-8.402344 0-15-6.597656-15-15v-30c0-24.902344 20.097656-45 45-45h30c24.902344 0 46 20.097656 46 45zm0 0" fill="#62de83"/><path d="m512 255v30c0 8.402344-6.597656 15-15 15-24.902344 0-46-20.097656-46-45v-45h15c24.902344 0 46 20.097656 46 45zm0 0" fill="#31a66e"/><path d="m241 435c0 8.402344-6.597656 15-15 15v-30c8.402344 0 15 6.597656 15 15zm0 0" fill="#3e322e"/><path d="m289 304.5-18.601562 74.101562c-1.5 6.597657-7.5 11.398438-14.398438 11.398438h-60c-6.898438 0-12.898438-4.800781-14.398438-11.398438l-18.601562-74.101562c-2.097656-8.101562 2.699219-16.199219 10.800781-18.300781h104.398438c8.101562 2.101562 12.898437 10.199219 10.800781 18.300781zm0 0" fill="#ffbd86"/><path d="m289 304.5-18.601562 74.101562c-1.5 6.597657-7.5 11.398438-14.398438 11.398438h-30v-103.800781h52.199219c8.101562 2.101562 12.898437 10.199219 10.800781 18.300781zm0 0" fill="#f6a96c"/><path d="m331 180v45c0 57.898438-47.101562 105-105 105s-105-47.101562-105-105v-45l90-120h30zm0 0" fill="#fed2a4"/><path d="m331 180v45c0 57.898438-47.101562 105-105 105v-270h15zm0 0" fill="#ffbd86"/><path d="m331 135v45h-15c-41.398438 0-75-33.601562-75-75v-45h15c41.398438 0 75 33.601562 75 75zm0 0" fill="#ff9f00"/><path d="m211 60v45c0 41.398438-33.601562 75-75 75h-15v-45c0-41.398438 33.601562-75 75-75zm0 0" fill="#fdbf00"/><path d="m286 47.699219c0 23.402343-18.898438 42.300781-42.300781 42.300781h-35.398438c-23.402343 0-42.300781-18.898438-42.300781-42.300781 0-11.398438 4.5-22.199219 12.300781-30l17.699219-17.699219h60l17.699219 17.699219c7.800781 7.800781 12.300781 18.601562 12.300781 30zm0 0" fill="#fdbf00"/><path d="m243.699219 90h-17.699219v-90h30l17.699219 17.699219c7.800781 7.800781 12.300781 18.601562 12.300781 30 0 23.402343-18.898438 42.300781-42.300781 42.300781zm0 0" fill="#ff9f00"/></svg>