<svg height="512pt" viewBox="0 0 512 512" width="512pt" xmlns="http://www.w3.org/2000/svg"><path d="m467 15v360c0 8.398438-6.597656 15-15 15s-15-6.601562-15-15v-360c0-8.402344 6.597656-15 15-15s15 6.597656 15 15zm0 0" fill="#d8d8fc"/><path d="m467 15v360c0 8.398438-6.597656 15-15 15v-390c8.402344 0 15 6.597656 15 15zm0 0" fill="#a3a3d1"/><path d="m452 412.199219v84.800781c0 8.398438-6.597656 15-15 15h-75l-30-30h-211l-30 30h-76c-8.402344 0-15-6.601562-15-15v-84.800781c0-9 2.101562-17.699219 5.097656-25.800781l38.703125 15.601562-22.800781-41.101562c18-18.898438 22.597656-14.398438 130-70.199219h151c114.902344 58.800781 106.199219 50.699219 121.800781 63.300781l-21 41.101562 39.898438-18c5.699219 10.496094 9.300781 22.5 9.300781 35.097657zm0 0" fill="#f2f2fc"/><path d="m452 412.199219v84.800781c0 8.398438-6.597656 15-15 15h-75l-30-30h-106v-191.300781h76c114.902344 58.800781 106.199219 50.699219 121.800781 63.300781l-21 41.101562 39.898438-18c5.699219 10.496094 9.300781 22.5 9.300781 35.097657zm0 0" fill="#d8d8fc"/><path d="m442.699219 377.101562-80.699219 64.199219v70.699219h-271v-68.902344l-85.902344-56.699218c3.601563-9.597657 8.703125-18.300782 15.902344-25.5l89.5 59.101562h230.199219l83.101562-66c7.800781 6.597656 14.398438 14.097656 18.898438 23.101562zm0 0" fill="#d8d8fc"/><path d="m442.699219 377.101562-80.699219 64.199219v70.699219h-136v-92h114.699219l83.101562-66c7.800781 6.597656 14.398438 14.097656 18.898438 23.101562zm0 0" fill="#a3a3d1"/><path d="m286 290.699219v39.300781c0 33-27 60-60 60s-60-27-60-60v-39.300781zm0 0" fill="#ffbd86"/><path d="m286 290.699219v39.300781c0 33-27 60-60 60v-99.300781zm0 0" fill="#f6a96c"/><path d="m226 0c-81.898438 0-135 58.800781-135 150 0 99.300781 60.601562 180 135 180s136-80.699219 136-180c0-91.199219-54.101562-150-136-150zm0 0" fill="#725d57"/><path d="m362 150c0 99.300781-61.601562 180-136 180v-330c81.898438 0 136 58.800781 136 150zm0 0" fill="#68544f"/><path d="m226 30c-65.699219 0-105 45-105 120 0 82.800781 47.101562 150 105 150s106-67.199219 106-150c0-75-40.300781-120-106-120zm0 0" fill="#f2f2fc"/><path d="m332 150c0 82.800781-48.101562 150-106 150v-270c65.699219 0 106 45 106 120zm0 0" fill="#d8d8fc"/><g fill="#725d57"><path d="m241 15v300c0 8.398438-6.597656 15-15 15s-15-6.601562-15-15v-300c0-8.402344 6.597656-15 15-15s15 6.597656 15 15zm0 0"/><path d="m356.902344 105c0 8.402344-6.601563 15-15 15h-230.804688c-8.398437 0-15-6.597656-15-15s6.601563-15 15-15h230.800782c8.402343 0 15.003906 6.597656 15.003906 15zm0 0"/><path d="m361.398438 165c0 8.398438-6.597657 15-15 15h-239.796876c-8.402343 0-15-6.601562-15-15 0-8.402344 6.597657-15 15-15h239.796876c8.402343 0 15 6.597656 15 15zm0 0"/><path d="m348.800781 225c0 8.398438-6.601562 15-15 15h-214.601562c-8.398438 0-15-6.601562-15-15 0-8.402344 6.601562-15 15-15h214.601562c8.398438 0 15 6.597656 15 15zm0 0"/></g><path d="m241 15v300c0 8.398438-6.597656 15-15 15v-330c8.402344 0 15 6.597656 15 15zm0 0" fill="#68544f"/><path d="m348.800781 225c0 8.398438-6.601562 15-15 15h-107.800781v-30h107.800781c8.398438 0 15 6.597656 15 15zm0 0" fill="#68544f"/><path d="m341.902344 120h-115.902344v-30h115.902344c8.398437 0 15 6.597656 15 15s-6.601563 15-15 15zm0 0" fill="#68544f"/><path d="m361.398438 165c0 8.398438-6.597657 15-15 15h-120.398438v-30h120.398438c8.402343 0 15 6.597656 15 15zm0 0" fill="#68544f"/><path d="m482 390v92c0 16.5-13.5 30-30 30s-30-13.5-30-30v-92zm0 0" fill="#2ac1ff"/><path d="m482 390v92c0 16.5-13.5 30-30 30v-122zm0 0" fill="#008de4"/><path d="m512 405c0 8.398438-6.597656 15-15 15h-90c-8.402344 0-15-6.601562-15-15 0-24.902344 20.097656-45 45-45h30c24.902344 0 45 20.097656 45 45zm0 0" fill="#f2f2fc"/><path d="m512 405c0 8.398438-6.597656 15-15 15h-45v-60h15c24.902344 0 45 20.097656 45 45zm0 0" fill="#d8d8fc"/></svg>