<?xml version="1.0" encoding="iso-8859-1"?>
<!-- Generator: Adobe Illustrator 19.0.0, SVG Export Plug-In . SVG Version: 6.00 Build 0)  -->
<svg version="1.1" id="Capa_1" xmlns="http://www.w3.org/2000/svg" xmlns:xlink="http://www.w3.org/1999/xlink" x="0px" y="0px"
	 viewBox="0 0 512 512" style="enable-background:new 0 0 512 512;" xml:space="preserve">
<circle style="fill:#64E1DC;" cx="256" cy="256" r="256"/>
<path style="fill:#00C8C8;" d="M512,256c0-6.224-0.234-12.392-0.671-18.504L360.5,86.667l-209,338.667l85.996,85.996
	c6.112,0.436,12.28,0.67,18.504,0.67C397.385,512,512,397.385,512,256z"/>
<rect x="151.5" y="86.67" style="fill:#555A66;" width="209" height="338.67"/>
<rect x="255.57" y="86.67" style="fill:#414952;" width="104.93" height="338.67"/>
<rect x="168.12" y="113.59" style="fill:#93D632;" width="175.76" height="284.81"/>
<rect x="255.57" y="113.59" style="fill:#86C42B;" width="88.31" height="284.81"/>
<circle style="fill:#FFFFFF;" cx="256" cy="197.56" r="72.44"/>
<path style="fill:#F0F0F0;" d="M256,125.12c-0.144,0-0.285,0.01-0.429,0.011v144.858C255.715,269.99,255.856,270,256,270
	c40.007,0,72.44-32.432,72.44-72.44S296.007,125.12,256,125.12z"/>
<polygon style="fill:#555A66;" points="256,167.719 228.028,188.042 238.712,220.925 273.288,220.925 283.972,188.042 "/>
<polygon style="fill:#414952;" points="283.972,188.042 256,167.719 255.571,168.03 255.571,220.926 273.288,220.926 "/>
<path style="fill:#555A66;" d="M229.7,130.046l26.3,19.108l26.3-19.108c-8.153-3.178-17.022-4.925-26.3-4.925
	S237.853,126.867,229.7,130.046z"/>
<g>
	<path style="fill:#414952;" d="M282.301,130.046c-8.153-3.178-17.023-4.925-26.301-4.925c-0.144,0-0.285,0.009-0.429,0.01v23.712
		l0.429,0.311L282.301,130.046z"/>
	<path style="fill:#414952;" d="M301.784,182.038l26.558,19.296c0.064-1.25,0.097-2.508,0.097-3.773
		c0-17.578-6.262-33.692-16.676-46.237L301.784,182.038z"/>
	<path style="fill:#414952;" d="M274.369,267.648c17.871-4.671,33.052-15.995,42.736-31.168h-32.609L274.369,267.648z"/>
</g>
<g>
	<path style="fill:#555A66;" d="M200.236,151.323c-10.413,12.545-16.676,28.659-16.676,46.237c0,1.266,0.033,2.524,0.097,3.773
		l26.558-19.296L200.236,151.323z"/>
	<path style="fill:#555A66;" d="M227.503,236.48h-32.609c9.684,15.173,24.865,26.497,42.736,31.168L227.503,236.48z"/>
</g>
<rect x="201.75" y="298.5" style="fill:#F2D813;" width="108.5" height="27"/>
<rect x="255.57" y="298.5" style="fill:#E8C917;" width="54.679" height="27"/>
<rect x="201.75" y="345" style="fill:#F2D813;" width="108.5" height="27"/>
<rect x="255.57" y="345" style="fill:#E8C917;" width="54.679" height="27"/>
<g>
</g>
<g>
</g>
<g>
</g>
<g>
</g>
<g>
</g>
<g>
</g>
<g>
</g>
<g>
</g>
<g>
</g>
<g>
</g>
<g>
</g>
<g>
</g>
<g>
</g>
<g>
</g>
<g>
</g>
</svg>
