<svg height="511pt" viewBox="-30 1 511 511.99925" width="511pt" xmlns="http://www.w3.org/2000/svg"><path d="m317.609375 301.390625-30.300781 70.503906-61.800782 44.703125-17.703124 12.898438-69.300782-85.800782-2.101562-43.804687 28.5-14.398437h121.207031zm0 0" fill="#b35f49"/><path d="m317.609375 301.390625-30.300781 70.503906-61.800782 44.703125v-131.105468h60.601563zm0 0" fill="#99503d"/><path d="m416.117188 246.386719c-16.273438-16.277344-25.605469-40.808594-25.605469-63.820313v-88.816406c0-47.082031-33.414063-87.042969-77.726563-92.945312-33.09375-4.410157-65.789062 9.550781-85.257812 36.503906l82.855468 234.683594h95.128907c6.066406 0 11.542969-3.648438 13.859375-9.257813 2.328125-5.613281 1.039062-12.058594-3.253906-16.347656zm0 0" fill="#ff9f00"/><path d="m330.507812 179.988281v47c0 57.902344-47.101562 105.003907-105 105.003907-57.902343 0-105.003906-47.101563-105.003906-105.003907v-92c0-7.5.898438-14.703125 2.398438-21.601562l102.605468 33zm0 0" fill="#c6715a"/><path d="m330.507812 179.988281v47c0 57.902344-47.101562 105.003907-105 105.003907v-185.605469zm0 0" fill="#b35f49"/><path d="m330.507812 134.988281v45h-50.097656c-20.101562 0-38.402344-2.699219-54.902344-7.199219-64.203124-16.800781-100.203124-57.601562-102.601562-59.402343 9.296875-44.703125 50.699219-83.402344 102.601562-83.402344 57.898438 0 105 47.101563 105 105.003906zm0 0" fill="#fdbf00"/><path d="m330.507812 134.988281v45h-50.097656c-20.101562 0-38.402344-2.699219-54.902344-7.199219v-142.804687c57.898438 0 105 47.101563 105 105.003906zm0 0" fill="#ff9f00"/><path d="m409.058594 346.992188-91.304688-45.65625-109.847656 122.257812 19.742188 58.9375 90.46875 29.46875h42.394531l15-30 15 30h45.003906c8.289063 0 15-6.710938 15-15v-82.929688c-.003906-28.578124-15.878906-54.273437-41.457031-67.078124zm0 0" fill="#d8d8fc"/><path d="m375.511719 421.996094c-8.285157 0-15 6.714844-15 15v75.003906h30v-75.003906c0-8.285156-6.714844-15-15-15zm0 0" fill="#a3a3d1"/><path d="m225.507812 403.996094-89.101562-104.105469-94.503906 47.101563c-25.5 12.902343-41.402344 38.402343-41.402344 67.203124v82.804688c0 8.398438 6.597656 15 15 15h45l15.003906-30 15 30h227.707032zm0 0" fill="#f2f2fc"/><path d="m90.5 436.996094c0-8.285156-6.714844-15-15-15-8.28125 0-15 6.714844-15 15v75.003906h30zm0 0" fill="#d8d8fc"/></svg>