<?xml version="1.0" encoding="iso-8859-1"?>
<!-- Generator: Adobe Illustrator 19.0.0, SVG Export Plug-In . SVG Version: 6.00 Build 0)  -->
<svg version="1.1" id="Capa_1" xmlns="http://www.w3.org/2000/svg" xmlns:xlink="http://www.w3.org/1999/xlink" x="0px" y="0px"
	 viewBox="0 0 512 512" style="enable-background:new 0 0 512 512;" xml:space="preserve">
<circle style="fill:#FF9500;" cx="256" cy="256" r="256"/>
<path style="fill:#FE8205;" d="M266.212,511.779C402.861,506.416,512,393.963,512,256c0-0.339-0.011-0.675-0.013-1.013L298,41
	l-84,41.333l84.691,84.691l0.428,78.038L159.984,105.927l-51.555,51.565l144.074,144.074l-120.745,75.758L266.212,511.779z"/>
<circle style="fill:#555A66;" cx="256" cy="256" r="173.67"/>
<path style="fill:#414952;" d="M256,82.333c-0.143,0-0.285,0.005-0.429,0.005V429.66c0.143,0,0.285,0.005,0.429,0.005
	c95.914,0,173.667-77.753,173.667-173.667S351.914,82.333,256,82.333z"/>
<circle style="fill:#EBF6FC;" cx="256" cy="256" r="142.33"/>
<path style="fill:#E1F1FA;" d="M256,113.667c-0.143,0-0.285,0.005-0.429,0.005v284.656c0.143,0,0.285,0.005,0.429,0.005
	c78.608,0,142.333-63.725,142.333-142.333S334.608,113.667,256,113.667z"/>
<path style="fill:#FFE733;" d="M398.333,256c0-78.609-63.725-142.333-142.333-142.333V256H398.333z"/>
<circle style="fill:#AFB4C8;" cx="256" cy="256" r="24.25"/>
<path style="fill:#9196AA;" d="M256,231.75c-0.144,0-0.285,0.008-0.429,0.011v48.478c0.143,0.003,0.285,0.011,0.429,0.011
	c13.393,0,24.25-10.857,24.25-24.25S269.393,231.75,256,231.75z"/>
<rect x="214" y="41" style="fill:#707789;" width="84" height="41.33"/>
<rect x="255.57" y="41" style="fill:#636978;" width="42.43" height="41.33"/>
<polygon style="fill:#707789;" points="159.984,105.927 108.428,157.492 83.054,132.119 134.61,80.554 "/>
<g>
</g>
<g>
</g>
<g>
</g>
<g>
</g>
<g>
</g>
<g>
</g>
<g>
</g>
<g>
</g>
<g>
</g>
<g>
</g>
<g>
</g>
<g>
</g>
<g>
</g>
<g>
</g>
<g>
</g>
</svg>
