<?xml version="1.0" encoding="iso-8859-1"?>
<!-- Generator: Adobe Illustrator 19.0.0, SVG Export Plug-In . SVG Version: 6.00 Build 0)  -->
<svg version="1.1" id="Capa_1" xmlns="http://www.w3.org/2000/svg" xmlns:xlink="http://www.w3.org/1999/xlink" x="0px" y="0px"
	 viewBox="0 0 512 512" style="enable-background:new 0 0 512 512;" xml:space="preserve">
<circle style="fill:#3D7ED9;" cx="256" cy="256" r="256"/>
<path style="fill:#466EB2;" d="M511.927,261.778L351.633,101.484L163.386,283.647l91.908,91.908l-65.96,74.778l61.603,61.603
	c1.685,0.033,3.371,0.064,5.064,0.064C395.453,512,508.854,400.493,511.927,261.778z"/>
<polygon style="fill:#FF9500;" points="322.667,450.333 256,420.333 189.333,450.333 189.333,262 322.667,262 "/>
<polygon style="fill:#FE8205;" points="256,420.333 322.667,450.333 322.667,262 255.571,262 "/>
<circle style="fill:#FFF04A;" cx="256" cy="191" r="131"/>
<path style="fill:#FFE733;" d="M256,60c-0.143,0-0.285,0.005-0.429,0.005v261.989c0.143,0,0.285,0.005,0.429,0.005
	c72.349,0,131-58.651,131-131S328.349,60,256,60z"/>
<circle style="fill:#F2D813;" cx="256" cy="191" r="92.61"/>
<path style="fill:#E8C917;" d="M256,98.386c-0.143,0-0.285,0.005-0.429,0.005v185.218c0.143,0.001,0.285,0.005,0.429,0.005
	c51.149,0,92.614-41.465,92.614-92.614S307.149,98.386,256,98.386z"/>
<g>
</g>
<g>
</g>
<g>
</g>
<g>
</g>
<g>
</g>
<g>
</g>
<g>
</g>
<g>
</g>
<g>
</g>
<g>
</g>
<g>
</g>
<g>
</g>
<g>
</g>
<g>
</g>
<g>
</g>
</svg>
