<svg height="512pt" viewBox="0 0 512 512" width="512pt" xmlns="http://www.w3.org/2000/svg"><path d="m452 412.199219v84.800781c0 8.398438-6.597656 15-15 15h-76l-28.800781-32h-215.097657l-26.101562 32h-76c-8.402344 0-15-6.601562-15-15v-84.800781c0-24.300781 12.699219-45.601563 31.601562-59.699219 3.300782-2.699219 36.898438 24.601562 40.800782 22.5l-15-37.5 93.597656-46.800781h150l96.402344 47.699219-16.800782 36.601562c4.800782 2.398438 38.699219-24.300781 42.597657-21.300781 17.699219 14.101562 28.800781 35.101562 28.800781 58.5zm0 0" fill="#b35f49"/><path d="m452 412.199219v84.800781c0 8.398438-6.597656 15-15 15h-76l-28.800781-32h-106.199219v-189.300781h75l96.398438 47.699219-16.796876 36.601562c4.800782 2.398438 38.699219-24.300781 42.597657-21.300781 17.699219 14.101562 28.800781 35.101562 28.800781 58.5zm0 0" fill="#99503d"/><path d="m423.199219 353.699219-62.199219 86.101562v72.199219h-270v-72.5l-59.398438-87c3.300782-2.699219 6.898438-5.398438 10.800782-7.5l15-7.5 58.800781 85.800781c28.796875-7.5 61.796875 2.699219 79.796875 26.699219h60c18-24 51-34.199219 80.097656-26.699219l61.300782-84.902343 13.203124 6.601562c4.800782 2.398438 8.699219 5.699219 12.597657 8.699219zm0 0" fill="#ff9ac9"/><path d="m423.199219 353.699219-62.199219 86.101562v72.199219h-135v-62h30c18-24 51-34.199219 80.097656-26.699219l61.300782-84.902343 13.203124 6.601562c4.800782 2.398438 8.699219 5.699219 12.597657 8.699219zm0 0" fill="#ff5ca8"/><path d="m271 45c0 24.898438-20.097656 45-45 45s-45-20.101562-45-45c0-24.902344 20.097656-45 45-45s45 20.097656 45 45zm0 0" fill="#53433f"/><path d="m271 45c0 24.898438-20.097656 45-45 45v-90c24.902344 0 45 20.097656 45 45zm0 0" fill="#53433f"/><path d="m331 210v15c0 57.898438-47.101562 105-105 105s-105-47.101562-105-105v-60c0-7.5.902344-14.699219 2.402344-21.597656l102.597656 32.996094zm0 0" fill="#c6715a"/><path d="m331 210v15c0 57.898438-47.101562 105-105 105v-153.601562zm0 0" fill="#b35f49"/><path d="m331 165v45h-50.097656c-20.101563 0-38.402344-2.699219-54.902344-7.199219-64.199219-16.800781-100.199219-57.601562-102.597656-59.398437 9.296875-44.703125 50.699218-83.402344 102.597656-83.402344 57.898438 0 105 47.101562 105 105zm0 0" fill="#53433f"/><path d="m331 165v45h-50.097656c-20.101563 0-38.402344-2.699219-54.902344-7.199219v-142.800781c57.898438 0 105 47.101562 105 105zm0 0" fill="#3e322e"/><path d="m512 263.699219-30.601562-6 29.402343 47.402343c-5.398437 116.699219-29.703125 206.898438-58.800781 206.898438s-53.402344-90.199219-58.800781-206.902344l29.402343-49.199218-30.601562 7.800781v-8.699219c0-13.5.300781-26.699219.898438-39.601562l31.199218-51.300782-28.5 6.300782c8.101563-99.296876 30.300782-170.398438 56.402344-170.398438s48.300781 71.101562 56.398438 170.398438l-28.5-8.097657 31.199218 53.097657c.601563 12.902343.902344 26.101562.902344 39.601562zm0 0" fill="#ff667c"/><path d="m512 263.699219-30.601562-6 29.402343 47.402343c-5.398437 116.699219-29.703125 206.898438-58.800781 206.898438v-512c26.101562 0 48.300781 71.101562 56.398438 170.398438l-28.5-8.097657 31.199218 53.097657c.601563 12.902343.902344 26.101562.902344 39.601562zm0 0" fill="#e63950"/><path d="m511.097656 215.398438-59.097656-59.097657-59.097656 59.097657c.597656-15.597657 1.5-30.597657 2.699218-45l45.898438-45.898438c2.699219-3 6.601562-4.5 10.5-4.5s7.800781 1.5 10.5 4.5l45.898438 45.898438c1.199218 14.402343 2.101562 29.402343 2.699218 45zm0 0" fill="#ffd400"/><path d="m512 263.699219c-.300781 14.101562-.601562 27.898437-1.199219 41.398437l-58.800781-58.796875-58.800781 58.800781c-.597657-13.5-.898438-27.300781-1.199219-41.402343l49.5-49.199219c2.699219-3 6.601562-4.5 10.5-4.5s7.800781 1.5 10.5 4.5zm0 0" fill="#ffd400"/><g fill="#ff9f00"><path d="m511.097656 215.398438-59.097656-59.097657v-36.300781c3.898438 0 7.800781 1.5 10.5 4.5l45.898438 45.898438c1.199218 14.402343 2.101562 29.402343 2.699218 45zm0 0"/><path d="m512 263.699219c-.300781 14.101562-.601562 27.898437-1.199219 41.398437l-58.800781-58.796875v-36.300781c3.898438 0 7.800781 1.5 10.5 4.5zm0 0"/></g></svg>