<?xml version="1.0" encoding="iso-8859-1"?>
<!-- Generator: Adobe Illustrator 19.0.0, SVG Export Plug-In . SVG Version: 6.00 Build 0)  -->
<svg version="1.1" id="Capa_1" xmlns="http://www.w3.org/2000/svg" xmlns:xlink="http://www.w3.org/1999/xlink" x="0px" y="0px"
	 viewBox="0 0 512 512" style="enable-background:new 0 0 512 512;" xml:space="preserve">
<circle style="fill:#F05E3A;" cx="256" cy="256" r="256"/>
<path style="fill:#DE4726;" d="M512,256c0-0.376-0.013-0.749-0.014-1.124L447,189.89l-265.833-21.485l-69.928,100.807L235.2,393.174
	l-92.662,33.051l84.087,84.087C236.266,511.414,246.064,512,256,512C397.385,512,512,397.385,512,256z"/>
<polygon style="fill:#CDE1E6;" points="142.538,113.775 65,189.89 111.238,269.212 142.829,239.416 "/>
<polygon style="fill:#B4D2D7;" points="369.462,113.775 447,189.89 400.762,269.212 369.171,239.416 "/>
<rect x="142.54" y="113.78" style="fill:#FFFFFF;" width="226.92" height="312.45"/>
<rect x="255.57" y="113.78" style="fill:#F0F0F0;" width="113.89" height="312.45"/>
<rect x="239.99" y="113.78" style="fill:#E1EBF0;" width="32.01" height="312.45"/>
<rect x="255.57" y="113.78" style="fill:#CDE1E6;" width="16.434" height="312.45"/>
<rect x="175.41" y="113.78" style="fill:#E1EBF0;" width="32.01" height="312.45"/>
<rect x="305.08" y="113.78" style="fill:#CDE1E6;" width="32.01" height="312.45"/>
<path style="fill:#B4D2D7;" d="M305.084,113.775c0,27.108-21.976,49.084-49.084,49.084s-49.084-21.976-49.084-49.084
	C206.916,113.775,305.084,113.775,305.084,113.775z"/>
<path style="fill:#87A0AF;" d="M255.571,113.775v49.073c0.143,0.001,0.285,0.011,0.429,0.011c27.108,0,49.084-21.976,49.084-49.084
	C305.084,113.775,255.571,113.775,255.571,113.775z"/>
<polygon style="fill:#FFEB50;" points="343.663,227.239 320.588,248.58 297.514,227.239 297.514,191.493 320.588,189.359 
	343.663,191.493 "/>
<g>
</g>
<g>
</g>
<g>
</g>
<g>
</g>
<g>
</g>
<g>
</g>
<g>
</g>
<g>
</g>
<g>
</g>
<g>
</g>
<g>
</g>
<g>
</g>
<g>
</g>
<g>
</g>
<g>
</g>
</svg>
