<svg height="512pt" viewBox="0 0 512 512" width="512pt" xmlns="http://www.w3.org/2000/svg"><path d="m0 497c0 8.289062 6.710938 15 15 15h76l30-32-30-30-47.875-30-43.125 30zm0 0" fill="#ffbd86"/><path d="m41.453125 345c-25.574219 12.804688-41.453125 38.496094-41.453125 67.074219v37.925781h91l30-55.3125-30-73.964844zm0 0" fill="#53433f"/><path d="m361 512h75c8.289062 0 15-6.710938 15-15v-47l-44.0625-30-45.9375 30-30 33.875zm0 0" fill="#f6a96c"/><path d="m409.546875 345-48.546875-24.277344-30 101.152344 30 28.125h90v-37.925781c0-28.578125-15.878906-54.269531-41.453125-67.074219zm0 0" fill="#3e322e"/><path d="m361 320.699219v191.300781h-30l-13.199219-32-16.800781 32h-30l-19.199219-32-10.800781 32h-30l-15.601562-32-14.398438 32h-30l-17.402344-32-12.597656 32h-30v-191.300781l30-15 12.300781 24 17.699219-39 14.398438-7.199219h15.601562l16.199219 30 13.800781-30h30l15 30 15-30h15.601562l14.398438 7.199219 15.601562 37.800781 14.398438-22.800781zm0 0" fill="#f2f2fc"/><path d="m361 320.699219v191.300781h-30l-13.199219-32-16.800781 32h-30l-19.199219-32-10.800781 32h-15v-228.5h15l15 30 15-30h15.601562l14.398438 7.199219 15.601562 37.800781 14.398438-22.800781zm0 0" fill="#d8d8fc"/><path d="m121 305.699219v206.300781h30v-221.300781zm0 0" fill="#53433f"/><path d="m181 283.5h30v228.5h-30zm0 0" fill="#53433f"/><path d="m241 283.5h30v228.5h-30zm0 0" fill="#3e322e"/><path d="m301 290.699219v221.300781h30v-206.300781zm0 0" fill="#3e322e"/><path d="m512 105c0 37.800781-15.398438 72.898438-38.5 91.199219-2.699219 2.402343-6 3.300781-9.300781 3.300781-4.5 0-8.699219-1.800781-11.699219-5.699219-5.398438-6.300781-4.199219-15.902343 2.402344-21 15.898437-12.601562 26.097656-39.300781 26.097656-67.800781 0-40.5-20.699219-75-45-75s-45 34.5-45 75c0 28.5 10.203125 55.199219 26.101562 67.800781 6.601563 5.097657 7.800782 14.699219 2.402344 21-5.101562 6.597657-14.402344 7.5-21 2.398438-23.105468-18.300781-37.503906-53.398438-37.503906-91.199219 0-58.800781 33-105 75-105s76 46.199219 76 105zm0 0" fill="#d8d8fc"/><path d="m512 105c0 37.800781-15.398438 72.898438-38.5 91.199219-2.699219 2.402343-6 3.300781-9.300781 3.300781-4.5 0-8.699219-1.800781-11.699219-5.699219-5.398438-6.300781-4.199219-15.902343 2.402344-21 15.898437-12.601562 26.097656-39.300781 26.097656-67.800781 0-40.5-20.699219-75-45-75v-30c42 0 76 46.199219 76 105zm0 0" fill="#a3a3d1"/><path d="m466 300c-8.289062 0-15-6.710938-15-15v-90c0-8.289062 6.710938-15 15-15s15 6.710938 15 15v90c0 8.289062-6.710938 15-15 15zm0 0" fill="#3e322e"/><path d="m331 150v75c0 57.898438-47.101562 105-105 105s-105-47.101562-105-105v-165h180.902344zm0 0" fill="#fed2a4"/><path d="m331 150v75c0 57.898438-47.101562 105-105 105v-270h75.902344zm0 0" fill="#ffbd86"/><path d="m286 78.601562-30 26.398438c0 19.5-12.597656 36.300781-30 42.300781-4.800781 1.796875-9.601562 2.699219-15 2.699219h-73.800781c-20.097657 0-36.597657 11.101562-50.398438 25.5-4.5 4.5-11.101562 5.699219-16.5 3.300781-5.699219-2.402343-9.300781-7.800781-9.300781-13.800781 0-74.402344 60.601562-135 135-135h60zm0 0" fill="#53433f"/><path d="m286 78.601562-30 26.398438c0 19.5-12.597656 36.300781-30 42.300781v-117.300781h30zm0 0" fill="#53433f"/><path d="m331 150h-30c-24.851562 0-45-20.148438-45-45v-75c41.421875 0 75 33.578125 75 75zm0 0" fill="#3e322e"/><path d="m436 150c-24.902344 0-45 20.097656-45 45 0 24.898438 20.097656 45 45 45s45-20.101562 45-45c0-24.902344-20.097656-45-45-45zm0 0" fill="#53433f"/><path d="m481 195c0 24.898438-20.097656 45-45 45v-90c24.902344 0 45 20.097656 45 45zm0 0" fill="#3e322e"/></svg>