<?xml version="1.0" encoding="iso-8859-1"?>
<!-- Generator: Adobe Illustrator 19.0.0, SVG Export Plug-In . SVG Version: 6.00 Build 0)  -->
<svg version="1.1" id="Capa_1" xmlns="http://www.w3.org/2000/svg" xmlns:xlink="http://www.w3.org/1999/xlink" x="0px" y="0px"
	 viewBox="0 0 512 512" style="enable-background:new 0 0 512 512;" xml:space="preserve">
<circle style="fill:#FFE733;" cx="256" cy="256" r="256"/>
<path style="fill:#F2D813;" d="M512,256c0-7.712-0.361-15.338-1.029-22.876L435,157.153L255.801,264.43L135.353,143.981
	l-43.146,4.357L77.5,195.276l110.026,110.026l-89.791,53.753l152.876,152.876c1.792,0.037,3.587,0.068,5.388,0.068
	C397.385,512,512,397.385,512,256z"/>
<path style="fill:#27488F;" d="M435,157.153H190.486c-67.521,0-122.257,54.736-122.257,122.257s54.736,122.257,122.257,122.257
	c65.638,0,119.188-51.728,122.123-116.641L435,259.034V157.153z"/>
<path style="fill:#1B3B6B;" d="M254.976,157.153v226.136c33.188-20.65,55.757-56.761,57.634-98.264L435,259.034V157.153H254.976z"/>
<circle style="fill:#4A98F7;" cx="190.49" cy="281.38" r="72.3"/>
<g>
	<path style="fill:#4A7AFF;" d="M190.486,209.079c-0.331,0-0.656,0.021-0.986,0.025v144.555c0.33,0.004,0.656,0.025,0.986,0.025
		c39.932,0,72.302-32.371,72.302-72.302S230.418,209.079,190.486,209.079z"/>
	<rect x="328.52" y="157.15" style="fill:#4A7AFF;" width="29.578" height="38.12"/>
</g>
<path style="fill:#27488F;" d="M106.75,131.333c-21.355,0-38.667,17.312-38.667,38.667s17.312,38.667,38.667,38.667
	s38.667-17.312,38.667-38.667S128.105,131.333,106.75,131.333z M106.75,184.543c-8.032,0-14.543-6.511-14.543-14.543
	s6.511-14.543,14.543-14.543s14.543,6.511,14.543,14.543S114.782,184.543,106.75,184.543z"/>
<g>
</g>
<g>
</g>
<g>
</g>
<g>
</g>
<g>
</g>
<g>
</g>
<g>
</g>
<g>
</g>
<g>
</g>
<g>
</g>
<g>
</g>
<g>
</g>
<g>
</g>
<g>
</g>
<g>
</g>
</svg>
