<?xml version="1.0" encoding="iso-8859-1"?>
<!-- Generator: Adobe Illustrator 19.0.0, SVG Export Plug-In . SVG Version: 6.00 Build 0)  -->
<svg version="1.1" id="Layer_1" xmlns="http://www.w3.org/2000/svg" xmlns:xlink="http://www.w3.org/1999/xlink" x="0px" y="0px"
	 viewBox="0 0 512 512" style="enable-background:new 0 0 512 512;" xml:space="preserve">
<circle style="fill:#FF5419;" cx="256" cy="256" r="256"/>
<path style="fill:#940030;" d="M511.498,271.82L328.404,84.902L135.327,398.653l115.145,113.276
	c1.839,0.038,3.681,0.071,5.529,0.071C392.07,512,503.325,405.833,511.498,271.82z"/>
<path style="fill:#FFEDB5;" d="M376.673,398.653V205.576c-67.772-16.089-48.269-120.673-48.269-120.673h-24.135
	c0,0-2.681,72.404-48.269,72.404s-48.269-72.404-48.269-72.404h-24.135c0,0,19.503,104.584-48.269,120.673v193.077H376.673z"/>
<path style="fill:#FDE085;" d="M376.673,205.576c-67.772-16.089-48.269-120.673-48.269-120.673h-24.135
	c0,0-2.681,72.404-48.269,72.404c-0.195,0-0.381-0.012-0.574-0.014v241.361h121.247V205.576z"/>
<path style="fill:#FEE187;" d="M164.978,188.428c-7.278,7.983-16.925,14.126-29.651,17.148v193.077h44.18
	C181.322,328.168,179.552,257.814,164.978,188.428z"/>
<g>
	<path style="fill:#FFC61B;" d="M347.02,188.428c7.278,7.983,16.925,14.126,29.651,17.148v193.077h-44.18
		C330.678,328.168,332.448,257.814,347.02,188.428z"/>
	<rect x="199.111" y="199.111" style="fill:#FFC61B;" width="113.778" height="85.333"/>
</g>
<rect x="255.431" y="199.111" style="fill:#D48B07;" width="57.458" height="85.333"/>
<g>
</g>
<g>
</g>
<g>
</g>
<g>
</g>
<g>
</g>
<g>
</g>
<g>
</g>
<g>
</g>
<g>
</g>
<g>
</g>
<g>
</g>
<g>
</g>
<g>
</g>
<g>
</g>
<g>
</g>
</svg>
