<?xml version="1.0" encoding="iso-8859-1"?>
<!-- Generator: Adobe Illustrator 19.0.0, SVG Export Plug-In . SVG Version: 6.00 Build 0)  -->
<svg version="1.1" id="Layer_1" xmlns="http://www.w3.org/2000/svg" xmlns:xlink="http://www.w3.org/1999/xlink" x="0px" y="0px"
	 viewBox="0 0 512 512" style="enable-background:new 0 0 512 512;" xml:space="preserve">
<circle style="fill:#FF7F4F;" cx="256" cy="256" r="256"/>
<path style="fill:#FF5419;" d="M230.855,457.14l53.31,53.31c118.222-12.941,212.227-106.365,226.061-224.318L287.039,62.947
	L230.855,457.14z"/>
<g>
	<path style="fill:#FFFFFF;" d="M261.322,51.124c0,0,34.232,1.805,33.876,35.492c-0.357,33.69-9.628,53.241-11.767,72.192
		c-2.139,18.951,0.719,39.402,11.769,57.449c11.052,18.046,38.334,47.056,34.799,98.057c-3.567,51.434-23.178,89.634-48.854,142.827
		h-50.29c-25.674-53.193-45.287-91.393-48.852-142.827c-3.536-51.002,23.747-80.012,34.799-98.057
		c11.052-18.048,13.91-38.5,11.771-57.449c-2.139-18.951-11.411-38.502-11.767-72.19c-0.355-33.685,33.876-35.492,33.876-35.492
		L261.322,51.124z"/>
	<path style="fill:#FFFFFF;" d="M250.68,51.124c0,0-34.232,1.805-33.876,35.492c0.357,33.69,9.628,53.241,11.767,72.192
		c2.139,18.951-0.719,39.402-11.771,57.449c-11.052,18.046-38.336,47.056-34.799,98.057c3.565,51.434,23.178,89.634,48.852,142.827
		h24.571V51.124H250.68z"/>
</g>
<path style="fill:#DDDDDD;" d="M295.2,216.255c-11.05-18.048-13.908-38.5-11.769-57.449c2.139-18.951,11.412-38.502,11.767-72.192
	c0.355-33.685-33.876-35.492-33.876-35.492h-5.896v406.016h25.719c25.674-53.193,45.287-91.393,48.854-142.827
	C333.534,263.311,306.252,234.301,295.2,216.255z"/>
<circle style="fill:#282828;" cx="319.285" cy="369.778" r="100.917"/>
<path d="M319.29,268.859c-0.605,0-1.202,0.034-1.803,0.045V470.65c0.602,0.01,1.198,0.045,1.803,0.045
	c55.736,0,100.919-45.182,100.919-100.919C420.209,314.042,375.027,268.859,319.29,268.859z"/>
<g>
	<circle style="fill:#FFFFFF;" cx="364.52" cy="311.355" r="12.216"/>
	<circle style="fill:#FFFFFF;" cx="376.742" cy="353.987" r="12.214"/>
	<circle style="fill:#FFFFFF;" cx="331.507" cy="341.782" r="12.216"/>
</g>
<g>
</g>
<g>
</g>
<g>
</g>
<g>
</g>
<g>
</g>
<g>
</g>
<g>
</g>
<g>
</g>
<g>
</g>
<g>
</g>
<g>
</g>
<g>
</g>
<g>
</g>
<g>
</g>
<g>
</g>
</svg>
