<?xml version="1.0" encoding="iso-8859-1"?>
<!-- Generator: Adobe Illustrator 19.0.0, SVG Export Plug-In . SVG Version: 6.00 Build 0)  -->
<svg version="1.1" id="Layer_1" xmlns="http://www.w3.org/2000/svg" xmlns:xlink="http://www.w3.org/1999/xlink" x="0px" y="0px"
	 viewBox="0 0 512 512" style="enable-background:new 0 0 512 512;" xml:space="preserve">
<circle style="fill:#366695;" cx="256" cy="256" r="256"/>
<path style="fill:#273B7A;" d="M189.624,437.119l74.731,74.731c131.101-4.206,237.306-106.972,246.927-236.635L260.325,24.238
	l-45.944,92.577L189.624,437.119z"/>
<path style="fill:#FFC61B;" d="M316.344,165.931c-2.284,0-4.472-1.305-5.487-3.518L256,42.908l-54.856,119.505
	c-1.389,3.031-4.973,4.36-8.001,2.967c-3.029-1.391-4.356-4.972-2.967-8.001l60.34-131.451c0.983-2.143,3.125-3.517,5.484-3.517
	c2.358,0,4.499,1.374,5.484,3.517l60.34,131.451c1.391,3.029,0.062,6.609-2.967,8.001
	C318.042,165.754,317.185,165.931,316.344,165.931z"/>
<path style="fill:#D48B07;" d="M321.824,157.379l-60.34-131.451c-0.983-2.143-3.125-3.517-5.484-3.517
	c-0.195,0-0.383,0.024-0.574,0.041v21.706l0.574-1.25l54.856,119.505c1.015,2.213,3.201,3.518,5.487,3.518
	c0.841,0,1.698-0.178,2.513-0.552C321.886,163.988,323.213,160.408,321.824,157.379z"/>
<path style="fill:#FFEDB5;" d="M233.732,455.111h44.534c34.832,0,63.067-28.236,63.067-63.066v-215.2
	c0-34.832-28.236-63.067-63.066-63.067h-44.534c-34.832,0-63.067,28.236-63.067,63.067v215.2
	C170.667,426.875,198.903,455.111,233.732,455.111z"/>
<path style="fill:#FEE187;" d="M278.268,113.778h-22.842v341.333h22.842c34.83,0,63.066-28.236,63.066-63.066V176.843
	C341.333,142.014,313.097,113.778,278.268,113.778z"/>
<rect x="170.667" y="199.111" style="fill:#FFC61B;" width="170.667" height="170.667"/>
<rect x="255.431" y="199.111" style="fill:#D48B07;" width="85.907" height="170.667"/>
<g>
</g>
<g>
</g>
<g>
</g>
<g>
</g>
<g>
</g>
<g>
</g>
<g>
</g>
<g>
</g>
<g>
</g>
<g>
</g>
<g>
</g>
<g>
</g>
<g>
</g>
<g>
</g>
<g>
</g>
</svg>
