<?xml version="1.0" encoding="iso-8859-1"?>
<!-- Generator: Adobe Illustrator 19.0.0, SVG Export Plug-In . SVG Version: 6.00 Build 0)  -->
<svg version="1.1" id="Layer_1" xmlns="http://www.w3.org/2000/svg" xmlns:xlink="http://www.w3.org/1999/xlink" x="0px" y="0px"
	 viewBox="0 0 512 512" style="enable-background:new 0 0 512 512;" xml:space="preserve">
<circle style="fill:#FDE085;" cx="256" cy="256" r="256"/>
<path style="fill:#FFC61B;" d="M173.451,419.54l92.258,92.258c128.546-4.796,232.85-104.355,245.079-230.865L284.15,54.294
	L173.451,419.54z"/>
<path style="fill:#C2001B;" d="M227.556,113.778V130.2c0,30.289-9.171,59.856-26.284,84.845
	c-29.146,42.56-59.049,94.074-59.049,126.288c0,62.645,50.631,113.452,113.204,113.764v-341.32H227.556z"/>
<path style="fill:#940030;" d="M310.729,215.045c-17.113-24.99-26.284-54.556-26.284-84.845v-16.422h-29.019v341.32
	c0.193,0,0.381,0.014,0.574,0.014c62.838,0,113.778-50.94,113.778-113.778C369.778,309.119,339.875,257.605,310.729,215.045z"/>
<path style="fill:#FF5419;" d="M277.333,130.2v-16.422h-42.667V130.2c0,30.289-6.878,59.856-19.713,84.845
	c-21.861,42.56-44.287,94.074-44.287,126.288c0,62.838,38.205,113.778,85.333,113.778s85.333-50.94,85.333-113.778
	c0-32.215-22.428-83.728-44.287-126.288C284.212,190.055,277.333,160.489,277.333,130.2z"/>
<path style="fill:#E03A00;" d="M297.046,215.045c-12.836-24.99-19.713-54.556-19.713-84.845v-16.422h-21.907v341.314
	c0.193,0.002,0.381,0.019,0.574,0.019c47.128,0,85.333-50.94,85.333-113.778C341.333,309.119,318.905,257.605,297.046,215.045z"/>
<path style="fill:#C2001B;" d="M256,127.569c-23.29,0-42.236-18.946-42.236-42.236S232.71,43.098,256,43.098
	s42.236,18.946,42.236,42.236S279.29,127.569,256,127.569z M256,70.68c-8.08,0-14.653,6.573-14.653,14.653S247.92,99.987,256,99.987
	c8.08,0,14.653-6.573,14.653-14.653S264.078,70.68,256,70.68z"/>
<path style="fill:#940030;" d="M256,43.098c-0.193,0-0.383,0.012-0.574,0.014v27.596c0.191-0.007,0.379-0.028,0.574-0.028
	c8.08,0,14.653,6.573,14.653,14.653S264.08,99.987,256,99.987c-0.193,0-0.383-0.021-0.574-0.029v27.598
	c0.191,0.002,0.381,0.014,0.574,0.014c23.29,0,42.236-18.946,42.236-42.236S279.29,43.098,256,43.098z"/>
<g>
</g>
<g>
</g>
<g>
</g>
<g>
</g>
<g>
</g>
<g>
</g>
<g>
</g>
<g>
</g>
<g>
</g>
<g>
</g>
<g>
</g>
<g>
</g>
<g>
</g>
<g>
</g>
<g>
</g>
</svg>
