<?xml version="1.0" encoding="iso-8859-1"?>
<!-- Generator: Adobe Illustrator 19.0.0, SVG Export Plug-In . SVG Version: 6.00 Build 0)  -->
<svg version="1.1" id="Layer_1" xmlns="http://www.w3.org/2000/svg" xmlns:xlink="http://www.w3.org/1999/xlink" x="0px" y="0px"
	 viewBox="0 0 512 512" style="enable-background:new 0 0 512 512;" xml:space="preserve">
<circle style="fill:#263A7A;" cx="256" cy="256" r="256"/>
<g>
	<path style="fill:#121149;" d="M508.68,297.213l-117.65-117.65l-281.893,82.941l34.24,33.299l-33.075,71.004l145.184,145.184
		c0.171,0,0.341,0.007,0.512,0.007C383.352,512,488.967,419,508.68,297.213z"/>
	<polygon style="fill:#121149;" points="330.469,143.3 375.299,188.13 334.222,188.13 	"/>
	<polygon style="fill:#121149;" points="192.926,143.3 237.756,188.13 196.677,188.13 	"/>
</g>
<path style="fill:#FF5419;" d="M118.603,369.778L118.603,369.778c-9.359,0-15.725-9.499-12.167-18.154l38.895-94.651
	c2.027-4.934,6.834-8.154,12.167-8.154l0,0c9.359,0,15.725,9.499,12.167,18.154l-38.895,94.651
	C128.743,366.558,123.937,369.778,118.603,369.778z"/>
<path style="fill:#FF7F4F;" d="M187.259,184.458L187.259,184.458c-5.237,0-9.481-4.244-9.481-9.481v-24.135
	c0-5.237,4.244-9.481,9.481-9.481l0,0c5.237,0,9.481,4.244,9.481,9.481v24.135C196.741,180.214,192.495,184.458,187.259,184.458z"/>
<path style="fill:#E03A00;" d="M324.741,184.458L324.741,184.458c-5.237,0-9.481-4.244-9.481-9.481v-24.135
	c0-5.237,4.244-9.481,9.481-9.481l0,0c5.237,0,9.482,4.244,9.482,9.481v24.135C334.222,180.214,329.976,184.458,324.741,184.458z"/>
<path style="fill:#940030;" d="M393.397,369.778L393.397,369.778c9.359,0,15.725-9.499,12.167-18.154l-38.895-94.651
	c-2.027-4.934-6.834-8.154-12.167-8.154l0,0c-9.359,0-15.725,9.499-12.167,18.154l38.895,94.651
	C383.257,366.558,388.062,369.778,393.397,369.778z"/>
<path style="fill:#FFC61B;" d="M134.213,272.698h243.572c24.566,0,41.884-24.105,34.045-47.387l-10.164-30.186
	c-4.922-14.615-18.623-24.459-34.045-24.459H144.379c-15.422,0-29.124,9.844-34.045,24.459l-10.164,30.186
	C92.329,248.592,109.647,272.698,134.213,272.698z"/>
<path style="fill:#D48B07;" d="M411.831,225.311l-10.164-30.186c-4.922-14.615-18.623-24.459-34.045-24.459H256.288v102.031h121.499
	C402.353,272.698,419.671,248.592,411.831,225.311z"/>
<g>
</g>
<g>
</g>
<g>
</g>
<g>
</g>
<g>
</g>
<g>
</g>
<g>
</g>
<g>
</g>
<g>
</g>
<g>
</g>
<g>
</g>
<g>
</g>
<g>
</g>
<g>
</g>
<g>
</g>
</svg>
