<?xml version="1.0" encoding="iso-8859-1"?>
<!-- Generator: Adobe Illustrator 19.0.0, SVG Export Plug-In . SVG Version: 6.00 Build 0)  -->
<svg version="1.1" id="Layer_1" xmlns="http://www.w3.org/2000/svg" xmlns:xlink="http://www.w3.org/1999/xlink" x="0px" y="0px"
	 viewBox="0 0 512 512" style="enable-background:new 0 0 512 512;" xml:space="preserve">
<circle style="fill:#FEE187;" cx="256" cy="256" r="256"/>
<path style="fill:#FFC61B;" d="M454.713,204.674l-230.996,59.654l-81.494-81.492l-26.433,104.82h17.601l-71.537,20.268
	l203.9,203.874c134.913-5.056,243.116-114.497,246.17-249.911L454.713,204.674z"/>
<rect x="135.327" y="225.832" style="fill:#263A7A;" width="241.347" height="60.337"/>
<rect x="256.293" y="225.832" style="fill:#121149;" width="120.385" height="60.337"/>
<path style="fill:#940030;" d="M131.879,333.576H99.7c-7.933,0-14.365-6.432-14.365-14.365V192.791
	c0-7.933,6.432-14.365,14.365-14.365h32.178c7.933,0,14.365,6.432,14.365,14.365V319.21
	C146.246,327.144,139.814,333.576,131.879,333.576z"/>
<path style="fill:#FF0F27;" d="M85.333,312.889H73.84c-9.363,0-16.951-7.59-16.951-16.951v-79.874
	c0-9.363,7.59-16.951,16.951-16.951h11.493V312.889z"/>
<path style="fill:#7A002C;" d="M384.145,178.424h32.178c7.933,0,14.365,6.432,14.365,14.365v126.419
	c0,7.933-6.432,14.365-14.365,14.365h-32.18c-7.933,0-14.365-6.432-14.365-14.365V192.79
	C369.778,184.856,376.21,178.424,384.145,178.424z"/>
<path style="fill:#CC0D32;" d="M430.69,199.111h11.493c9.363,0,16.951,7.59,16.951,16.951v79.874c0,9.363-7.59,16.951-16.951,16.951
	H430.69L430.69,199.111z"/>
<g>
</g>
<g>
</g>
<g>
</g>
<g>
</g>
<g>
</g>
<g>
</g>
<g>
</g>
<g>
</g>
<g>
</g>
<g>
</g>
<g>
</g>
<g>
</g>
<g>
</g>
<g>
</g>
<g>
</g>
</svg>
