<?xml version="1.0" encoding="iso-8859-1"?>
<!-- Generator: Adobe Illustrator 19.0.0, SVG Export Plug-In . SVG Version: 6.00 Build 0)  -->
<svg version="1.1" id="Layer_1" xmlns="http://www.w3.org/2000/svg" xmlns:xlink="http://www.w3.org/1999/xlink" x="0px" y="0px"
	 viewBox="0 0 512 512" style="enable-background:new 0 0 512 512;" xml:space="preserve">
<circle style="fill:#366796;" cx="256" cy="256" r="256"/>
<path style="fill:#273B7A;" d="M511.998,256c0-25.628-3.784-50.369-10.792-73.714l-86.033-86.033L102.284,409.141l96.416,96.416
	c18.422,4.212,37.598,6.442,57.296,6.442C397.384,512,511.998,397.384,511.998,256z"/>
<polygon style="fill:#FFFFFF;" points="178.452,354.983 157.017,333.548 415.173,96.251 415.173,96.251 "/>
<polygon style="fill:#CECECE;" points="167.448,343.978 178.452,354.982 415.173,96.251 408.498,102.928 "/>
<path style="fill:#D48B07;" d="M99.318,406.24l6.442,6.442c3.646,3.646,9.559,3.646,13.205,0l45.739-45.739
	c3.646-3.646,3.646-9.559,0-13.205l-6.442-6.442c-3.646-3.646-9.559-3.646-13.205,0l-45.739,45.737
	C95.672,396.681,95.672,402.592,99.318,406.24z"/>
<path style="fill:#935B02;" d="M161.196,350.23l-58.944,58.944l3.508,3.508c3.646,3.646,9.559,3.646,13.205,0l45.739-45.739
	c3.646-3.646,3.646-9.559,0-13.205L161.196,350.23z"/>
<path style="fill:#FFC61B;" d="M118.643,334.469c-5.77-5.77-4.336-15.444,2.825-19.356c21.089-11.516,48.064-8.347,65.915,9.504
	c17.851,17.851,21.02,44.825,9.504,65.915c-3.91,7.161-13.586,8.594-19.354,2.826L118.643,334.469z"/>
<path style="fill:#D48B07;" d="M187.083,324.342l-39.284,39.284l29.73,29.73c5.77,5.77,15.444,4.336,19.354-2.825
	c11.516-21.089,8.347-48.064-9.504-65.915C187.285,324.52,187.18,324.437,187.083,324.342z"/>
<polygon style="fill:#FFFFFF;" points="354.983,333.548 333.548,354.983 96.584,96.584 96.584,96.584 "/>
<polygon style="fill:#CECECE;" points="354.983,333.548 100.055,99.768 344.409,344.121 "/>
<path style="fill:#D48B07;" d="M406.24,412.682l6.442-6.442c3.646-3.646,3.646-9.559,0-13.205l-45.739-45.739
	c-3.646-3.646-9.559-3.646-13.205,0l-6.442,6.442c-3.646,3.646-3.646,9.559,0,13.205l45.739,45.739
	C396.681,416.328,402.592,416.328,406.24,412.682z"/>
<path style="fill:#935B02;" d="M412.682,406.24c3.646-3.646,3.646-9.559,0-13.205l-45.739-45.739c-3.646-3.646-9.559-3.646-13.205,0
	l-3.077,3.077l58.944,58.944L412.682,406.24z"/>
<path style="fill:#FFC61B;" d="M334.469,393.357c-5.77,5.77-15.444,4.336-19.356-2.825c-11.516-21.089-8.349-48.064,9.504-65.915
	c17.851-17.851,44.825-21.02,65.915-9.504c7.161,3.91,8.594,13.586,2.826,19.356L334.469,393.357z"/>
<path style="fill:#D48B07;" d="M393.357,334.469c5.77-5.77,4.336-15.444-2.825-19.356c-21.032-11.485-47.913-8.358-65.765,9.366
	l39.29,39.29L393.357,334.469z"/>
<g>
</g>
<g>
</g>
<g>
</g>
<g>
</g>
<g>
</g>
<g>
</g>
<g>
</g>
<g>
</g>
<g>
</g>
<g>
</g>
<g>
</g>
<g>
</g>
<g>
</g>
<g>
</g>
<g>
</g>
</svg>
