<?xml version="1.0" encoding="iso-8859-1"?>
<!-- Generator: Adobe Illustrator 19.0.0, SVG Export Plug-In . SVG Version: 6.00 Build 0)  -->
<svg version="1.1" id="Layer_1" xmlns="http://www.w3.org/2000/svg" xmlns:xlink="http://www.w3.org/1999/xlink" x="0px" y="0px"
	 viewBox="0 0 512 512" style="enable-background:new 0 0 512 512;" xml:space="preserve">
<circle style="fill:#FEE187;" cx="256" cy="256" r="256"/>
<path style="fill:#FFC61B;" d="M512,256c0-8.161-0.398-16.229-1.146-24.193L367.313,88.262L144.746,423.8l86.814,87.031
	c8.045,0.762,16.194,1.167,24.438,1.167C397.384,512,512,397.384,512,256z"/>
<path style="fill:#13A50F;" d="M151.418,426.667h209.167c5.079,0,9.194-4.117,9.194-9.194V94.527c0-5.079-4.117-9.194-9.194-9.194
	H151.418c-5.079,0-9.195,4.117-9.195,9.194v322.944C142.222,422.55,146.339,426.667,151.418,426.667z"/>
<path style="fill:#12890B;" d="M360.584,85.333H255.426v341.333h105.158c5.079,0,9.194-4.117,9.194-9.194V94.527
	C369.778,89.45,365.661,85.333,360.584,85.333z"/>
<polygon style="fill:#FFFFFF;" points="303.838,147.394 208.162,147.394 208.162,85.333 218.505,85.333 218.505,137.051 
	293.495,137.051 293.495,85.333 303.838,85.333 "/>
<polygon style="fill:#E0E0E0;" points="303.838,85.333 293.495,85.333 293.495,137.051 255.426,137.051 255.426,147.394 
	303.838,147.394 "/>
<polygon style="fill:#FFFFFF;" points="303.838,426.667 293.495,426.667 293.495,374.949 218.505,374.949 218.505,426.667 
	208.162,426.667 208.162,364.606 303.838,364.606 "/>
<polygon style="fill:#E0E0E0;" points="255.426,364.606 255.426,374.949 293.495,374.949 293.495,426.667 303.838,426.667 
	303.838,364.606 "/>
<path style="fill:#FFFFFF;" d="M369.778,250.828h-51.95c-2.639-31.808-29.351-56.889-61.828-56.889s-59.19,25.081-61.828,56.889
	h-51.95v10.343h51.95c2.639,31.808,29.351,56.889,61.828,56.889s59.19-25.081,61.828-56.889h51.95V250.828z M256,204.283
	c26.771,0,48.855,20.447,51.459,46.545H204.541C207.145,224.73,229.229,204.283,256,204.283z M256,307.717
	c-26.771,0-48.855-20.447-51.459-46.545h102.915C304.855,287.27,282.771,307.717,256,307.717z"/>
<path style="fill:#E0E0E0;" d="M317.828,250.828c-2.639-31.808-29.351-56.889-61.828-56.889c-0.193,0-0.383,0.012-0.574,0.014
	v10.343c0.191-0.002,0.381-0.014,0.574-0.014c26.771,0,48.855,20.447,51.459,46.545h-52.033v10.343h52.033
	c-2.603,26.098-24.686,46.545-51.459,46.545c-0.193,0-0.383-0.012-0.574-0.014v10.343c0.191,0.002,0.381,0.014,0.574,0.014
	c32.477,0,59.19-25.081,61.828-56.889h51.95v-10.343H317.828z"/>
<g>
</g>
<g>
</g>
<g>
</g>
<g>
</g>
<g>
</g>
<g>
</g>
<g>
</g>
<g>
</g>
<g>
</g>
<g>
</g>
<g>
</g>
<g>
</g>
<g>
</g>
<g>
</g>
<g>
</g>
</svg>
