<?xml version="1.0" encoding="iso-8859-1"?>
<!-- Generator: Adobe Illustrator 19.0.0, SVG Export Plug-In . SVG Version: 6.00 Build 0)  -->
<svg version="1.1" id="Layer_1" xmlns="http://www.w3.org/2000/svg" xmlns:xlink="http://www.w3.org/1999/xlink" x="0px" y="0px"
	 viewBox="0 0 512 512" style="enable-background:new 0 0 512 512;" xml:space="preserve">
<circle style="fill:#FF7F4F;" cx="256" cy="256" r="256"/>
<path style="fill:#E03A00;" d="M260.882,511.938C400.012,509.333,512,395.752,512,256c0-31.754-5.798-62.149-16.365-90.207
	l-78.777-78.777L279.561,328.978l-91.912,109.727L260.882,511.938z"/>
<path style="fill:#940030;" d="M396.71,89.562L295.407,286.679c-9.821,19.111-34.075,25.441-51.984,13.571l-20.783-13.777
	c-24.509-16.246-57.697-7.583-71.139,18.57l0,0c-10.357,20.154-2.417,44.889,17.737,55.246l21.919,11.266
	c38.586,19.83,85.942,4.627,105.772-33.959l121.685-236.775c3.108-6.049,0.726-13.471-5.323-16.581l0,0
	C407.242,81.13,399.819,83.515,396.71,89.562z"/>
<path style="fill:#7A012D;" d="M413.291,84.24L413.291,84.24c-6.049-3.108-13.471-0.726-16.579,5.323L295.408,286.68
	c-9.821,19.111-34.075,25.441-51.984,13.571l-9.835-6.52l-43.186,77.436l0.755,0.388c38.586,19.83,85.942,4.627,105.77-33.959
	l121.685-236.775C421.723,94.772,419.338,87.349,413.291,84.24z"/>
<circle style="fill:#FFFFFF;" cx="227.556" cy="398.222" r="56.889"/>
<path style="fill:#E2E2E2;" d="M227.556,341.333c31.418,0,56.889,25.471,56.889,56.889s-25.471,56.889-56.889,56.889V341.333z"/>
<g>
</g>
<g>
</g>
<g>
</g>
<g>
</g>
<g>
</g>
<g>
</g>
<g>
</g>
<g>
</g>
<g>
</g>
<g>
</g>
<g>
</g>
<g>
</g>
<g>
</g>
<g>
</g>
<g>
</g>
</svg>
