<?xml version="1.0" encoding="iso-8859-1"?>
<!-- Generator: Adobe Illustrator 19.0.0, SVG Export Plug-In . SVG Version: 6.00 Build 0)  -->
<svg version="1.1" id="Layer_1" xmlns="http://www.w3.org/2000/svg" xmlns:xlink="http://www.w3.org/1999/xlink" x="0px" y="0px"
	 viewBox="0 0 512.002 512.002" style="enable-background:new 0 0 512.002 512.002;" xml:space="preserve">
<circle style="fill:#FEE187;" cx="256.001" cy="256" r="256"/>
<path style="fill:#FFC61B;" d="M511.999,256c0-29.437-4.984-57.708-14.129-84.032l-84.952-84.952L256.001,361.158l-136.783,30.477
	l119.791,119.791c5.618,0.369,11.281,0.576,16.993,0.576C397.385,512,511.999,397.384,511.999,256z"/>
<path style="fill:#D48B07;" d="M393.084,89.562L273.369,322.505l-54.356-36.033c-24.509-16.246-57.697-7.583-71.139,18.57
	l-6.247,12.155c-6.908,13.441-1.612,29.937,11.829,36.845l79.603,40.91c13.441,6.908,29.937,1.612,36.843-11.829l145.084-282.303
	c3.108-6.047,0.726-13.471-5.323-16.581l0,0C403.615,81.13,396.192,83.515,393.084,89.562z"/>
<path style="fill:#935B02;" d="M409.663,84.24L409.663,84.24c-6.049-3.108-13.471-0.726-16.579,5.323L273.369,322.507
	l-32.504-21.547l-44.944,74.907l37.14,19.087c13.441,6.908,29.936,1.612,36.843-11.829l145.084-282.303
	C418.096,94.772,415.712,87.349,409.663,84.24z"/>
<path style="fill:#3A3A3A;" d="M207.156,398.222h-72.978c-11.266,0-20.399-9.133-20.399-20.399v-16.089
	c0-11.267,9.133-20.401,20.399-20.401h72.978c11.266,0,20.399,9.133,20.399,20.399v16.089
	C227.556,389.089,218.423,398.222,207.156,398.222z"/>
<path style="fill:#232323;" d="M207.156,341.333h-37.064v56.889h37.064c11.266,0,20.399-9.133,20.399-20.399v-16.089
	C227.556,350.467,218.423,341.333,207.156,341.333z"/>
<g>
</g>
<g>
</g>
<g>
</g>
<g>
</g>
<g>
</g>
<g>
</g>
<g>
</g>
<g>
</g>
<g>
</g>
<g>
</g>
<g>
</g>
<g>
</g>
<g>
</g>
<g>
</g>
<g>
</g>
</svg>
