<?xml version="1.0" encoding="iso-8859-1"?>
<!-- Generator: Adobe Illustrator 19.0.0, SVG Export Plug-In . SVG Version: 6.00 Build 0)  -->
<svg version="1.1" id="Layer_1" xmlns="http://www.w3.org/2000/svg" xmlns:xlink="http://www.w3.org/1999/xlink" x="0px" y="0px"
	 viewBox="0 0 512 512" style="enable-background:new 0 0 512 512;" xml:space="preserve">
<circle style="fill:#71E2EF;" cx="256" cy="256" r="256"/>
<g>
	<polygon style="fill:#38C6D9;" points="192.252,135.428 255.217,198.394 197.963,254.554 136.044,192.634 	"/>
	<path style="fill:#38C6D9;" d="M511.998,256c0-24.19-3.358-47.594-9.628-69.777l-88.223-88.24L98.07,414.218l88.154,88.154
		c22.181,6.27,45.585,9.628,69.775,9.628C397.384,512,511.998,397.384,511.998,256z"/>
</g>
<path style="fill:#366695;" d="M306.988,306.988c-55.508,55.508-149.678,93.96-195.025,110.242
	c-10.693,3.839-21.032-6.499-17.193-17.193c16.282-45.347,54.734-139.517,110.242-195.025S354.69,111.052,400.038,94.77
	c10.693-3.839,21.032,6.499,17.193,17.193C400.948,157.31,362.494,251.48,306.988,306.988z"/>
<path style="fill:#273B7A;" d="M98.07,414.218c3.443,3.343,8.621,4.905,13.893,3.012c45.347-16.282,139.517-54.734,195.025-110.242
	s93.96-149.678,110.242-195.025c1.893-5.272,0.331-10.449-3.012-13.893L98.07,414.218z"/>
<circle style="fill:#263A7A;" cx="256" cy="256" r="44.822"/>
<path style="fill:#121149;" d="M224.454,287.834c8.099,8.027,19.242,12.988,31.546,12.988c24.754,0,44.822-20.068,44.822-44.822
	c0-12.304-4.961-23.447-12.988-31.546L224.454,287.834z"/>
<rect x="242.881" y="148.82" transform="matrix(-0.7071 0.7071 -0.7071 -0.7071 613.5539 254.1218)" style="fill:#D48B07;" width="22.531" height="210.625"/>
<rect x="241.132" y="281.1" transform="matrix(0.7071 0.7071 -0.7071 0.7071 292.3679 -121.1082)" style="fill:#B27006;" width="102.485" height="22.531"/>
<path style="fill:#E03A00;" d="M188.702,188.702L188.702,188.702c-15.834,15.834-41.508,15.834-57.342,0l-42.474-42.474
	c-0.295-0.295-0.295-0.771,0-1.065l56.277-56.277c0.295-0.295,0.771-0.295,1.065,0l42.474,42.474
	C204.536,147.194,204.536,172.868,188.702,188.702z"/>
<path style="fill:#C62F00;" d="M323.298,323.298L323.298,323.298c15.834-15.834,41.508-15.834,57.342,0l42.474,42.474
	c0.295,0.295,0.295,0.771,0,1.065l-56.277,56.277c-0.295,0.295-0.771,0.295-1.065,0l-42.474-42.474
	C307.464,364.806,307.464,339.132,323.298,323.298z"/>
<g>
</g>
<g>
</g>
<g>
</g>
<g>
</g>
<g>
</g>
<g>
</g>
<g>
</g>
<g>
</g>
<g>
</g>
<g>
</g>
<g>
</g>
<g>
</g>
<g>
</g>
<g>
</g>
<g>
</g>
</svg>
