<?xml version="1.0" encoding="iso-8859-1"?>
<!-- Generator: Adobe Illustrator 19.0.0, SVG Export Plug-In . SVG Version: 6.00 Build 0)  -->
<svg version="1.1" id="Layer_1" xmlns="http://www.w3.org/2000/svg" xmlns:xlink="http://www.w3.org/1999/xlink" x="0px" y="0px"
	 viewBox="0 0 512 512" style="enable-background:new 0 0 512 512;" xml:space="preserve">
<circle style="fill:#366796;" cx="256" cy="256" r="256"/>
<path style="fill:#273B7A;" d="M114.691,358.081L268.312,511.7C403.978,505.275,512,393.257,512,256
	c0-8.108-0.395-16.122-1.131-24.036L410.793,131.887L114.691,358.081z"/>
<path style="fill:#FF7F4F;" d="M403.18,355.987H224.325c-5.594,0-10.128-4.534-10.128-10.128v-207.3
	c0-5.594,4.534-10.128,10.128-10.128H403.18c5.594,0,10.128,4.534,10.128,10.128v207.3
	C413.306,351.453,408.773,355.987,403.18,355.987z"/>
<path style="fill:#DB4E23;" d="M214.195,242.209v103.65c0,5.594,4.534,10.128,10.128,10.128h178.855
	c5.594,0,10.128-4.534,10.128-10.128v-103.65H214.195z"/>
<path style="fill:#FFC61B;" d="M113.778,128v227.987l0,0c0.914,7.654,26.048,13.791,56.889,13.791s55.932-6.137,56.846-13.791h0.043
	V128.431L113.778,128z"/>
<path style="fill:#D8A016;" d="M113.778,242.209v113.778l0,0c0.914,7.654,26.048,13.791,56.889,13.791s55.932-6.137,56.846-13.791
	h0.043V242.209H113.778z"/>
<ellipse style="fill:#FDE085;" cx="170.667" cy="128" rx="56.889" ry="14.222"/>
<ellipse style="fill:#FFC61B;" cx="170.667" cy="128" rx="35.009" ry="8.752"/>
<g>
</g>
<g>
</g>
<g>
</g>
<g>
</g>
<g>
</g>
<g>
</g>
<g>
</g>
<g>
</g>
<g>
</g>
<g>
</g>
<g>
</g>
<g>
</g>
<g>
</g>
<g>
</g>
<g>
</g>
</svg>
