<?xml version="1.0" encoding="iso-8859-1"?>
<!-- Generator: Adobe Illustrator 19.0.0, SVG Export Plug-In . SVG Version: 6.00 Build 0)  -->
<svg version="1.1" id="Layer_1" xmlns="http://www.w3.org/2000/svg" xmlns:xlink="http://www.w3.org/1999/xlink" x="0px" y="0px"
	 viewBox="0 0 512 512" style="enable-background:new 0 0 512 512;" xml:space="preserve">
<circle style="fill:#FFEDB5;" cx="256" cy="256" r="256"/>
<path style="fill:#FFC61B;" d="M265.581,511.803C402.523,506.761,512,394.174,512,256c0-20.304-2.376-40.052-6.842-58.992
	L394.343,86.195l-75.823,115.533L202.99,86.195l-16.089,8.189l61.811,213.714L174.68,420.902L265.581,511.803z"/>
<polygon style="fill:#5281A8;" points="298.667,284.444 213.333,284.444 117.657,86.195 202.99,86.195 "/>
<polygon style="fill:#386895;" points="213.333,284.444 298.667,284.444 394.343,86.195 309.01,86.195 "/>
<circle style="fill:#FF7F4F;" cx="256" cy="341.333" r="113.778"/>
<path style="fill:#E03A00;" d="M256,227.556c62.838,0,113.778,50.94,113.778,113.778S318.838,455.111,256,455.111V227.556z"/>
<circle style="fill:#FFC61B;" cx="256" cy="341.333" r="71.111"/>
<path style="fill:#D48B07;" d="M256,270.222c39.274,0,71.111,31.837,71.111,71.111S295.274,412.444,256,412.444V270.222z"/>
<g>
</g>
<g>
</g>
<g>
</g>
<g>
</g>
<g>
</g>
<g>
</g>
<g>
</g>
<g>
</g>
<g>
</g>
<g>
</g>
<g>
</g>
<g>
</g>
<g>
</g>
<g>
</g>
<g>
</g>
</svg>
