<?xml version="1.0" encoding="iso-8859-1"?>
<!-- Generator: Adobe Illustrator 19.0.0, SVG Export Plug-In . SVG Version: 6.00 Build 0)  -->
<svg version="1.1" id="Layer_1" xmlns="http://www.w3.org/2000/svg" xmlns:xlink="http://www.w3.org/1999/xlink" x="0px" y="0px"
	 viewBox="0 0 512 512" style="enable-background:new 0 0 512 512;" xml:space="preserve">
<circle style="fill:#366796;" cx="256" cy="256" r="256"/>
<path style="fill:#273B7A;" d="M256,512c141.384,0,256-114.616,256-256c0-6.273-0.236-12.491-0.681-18.651l-93.548-93.548
	l-80.474,80.418l-80.448-80.41l-80.439,80.386l68.522,68.522l-156.7,156.648C133.161,488.381,191.822,512,256,512z"/>
<circle style="fill:#FFFFFF;" cx="377.535" cy="184.027" r="56.889"/>
<path style="fill:#E0E0E0;" d="M417.77,143.796c22.216,22.216,22.216,58.237,0,80.453c-22.216,22.216-58.237,22.216-80.453,0
	L417.77,143.796z"/>
<circle style="fill:#FF6161;" cx="216.643" cy="184.027" r="56.889"/>
<path style="fill:#D64141;" d="M256.864,143.796c22.216,22.216,22.216,58.237,0,80.453s-58.237,22.216-80.453,0L256.864,143.796z"/>
<path style="fill:#FEE187;" d="M101.469,460.097l215.735-215.735l-20.113-20.113L79.713,441.625
	C86.611,448.178,93.877,454.341,101.469,460.097z"/>
<path style="fill:#FFC61B;" d="M317.204,244.362l-11.278-11.28L89.005,450.003c4.051,3.486,8.199,6.861,12.462,10.095
	L317.204,244.362z"/>
<g>
</g>
<g>
</g>
<g>
</g>
<g>
</g>
<g>
</g>
<g>
</g>
<g>
</g>
<g>
</g>
<g>
</g>
<g>
</g>
<g>
</g>
<g>
</g>
<g>
</g>
<g>
</g>
<g>
</g>
</svg>
