<?xml version="1.0" encoding="iso-8859-1"?>
<!-- Generator: Adobe Illustrator 19.0.0, SVG Export Plug-In . SVG Version: 6.00 Build 0)  -->
<svg version="1.1" id="Layer_1" xmlns="http://www.w3.org/2000/svg" xmlns:xlink="http://www.w3.org/1999/xlink" x="0px" y="0px"
	 viewBox="0 0 512 512" style="enable-background:new 0 0 512 512;" xml:space="preserve">
<circle style="fill:#C2001B;" cx="256" cy="256" r="256"/>
<path style="fill:#940030;" d="M511.998,256c0-14.646-1.248-29-3.61-42.974L369.778,72.835l-28.444,123.402l-27.339,26.865
	L177.778,85.333l-22.338,182.734l-55.748,40.224l3.275,93.841L208.4,507.564c15.426,2.901,31.332,4.436,47.599,4.436
	C397.384,512,511.998,397.384,511.998,256z"/>
<path style="fill:#FFEDB5;" d="M163.556,427.529c-47.528,0-86.195-38.667-86.195-86.195s38.667-86.195,86.195-86.195
	s86.195,38.667,86.195,86.195S211.084,427.529,163.556,427.529z M163.556,282.721c-32.32,0-58.613,26.293-58.613,58.613
	s26.293,58.613,58.613,58.613s58.613-26.293,58.613-58.613S195.875,282.721,163.556,282.721z"/>
<path style="fill:#FEE187;" d="M163.556,255.138c-0.121,0-0.238,0.009-0.359,0.009v27.582c0.121,0,0.238-0.009,0.359-0.009
	c32.32,0,58.613,26.293,58.613,58.613s-26.293,58.613-58.613,58.613c-0.121,0-0.238-0.009-0.359-0.009v27.582
	c0.121,0,0.238,0.009,0.359,0.009c47.528,0,86.195-38.667,86.195-86.195S211.084,255.138,163.556,255.138z"/>
<path style="fill:#FFEDB5;" d="M356.848,357.71c-47.528,0-86.195-38.667-86.195-86.195s38.667-86.195,86.195-86.195
	s86.195,38.667,86.195,86.195S404.377,357.71,356.848,357.71z M356.848,212.902c-32.32,0-58.613,26.293-58.613,58.613
	s26.293,58.613,58.613,58.613s58.613-26.293,58.613-58.613S389.168,212.902,356.848,212.902z"/>
<path style="fill:#FEE187;" d="M356.848,185.32c-0.481,0-0.957,0.029-1.436,0.036v27.582c0.479-0.012,0.955-0.036,1.436-0.036
	c32.32,0,58.613,26.293,58.613,58.613s-26.293,58.613-58.613,58.613c-0.481,0-0.957-0.024-1.436-0.036v27.582
	c0.479,0.007,0.955,0.036,1.436,0.036c47.528,0,86.195-38.667,86.195-86.195S404.377,185.32,356.848,185.32z"/>
<rect x="149.325" y="85.333" style="fill:#FFC61B;" width="28.444" height="199.111"/>
<rect x="163.202" y="85.333" style="fill:#D48B07;" width="14.581" height="199.111"/>
<rect x="341.333" y="72.835" style="fill:#FFC61B;" width="28.444" height="142.222"/>
<rect x="355.418" y="72.835" style="fill:#D48B07;" width="14.365" height="142.222"/>
<g>
</g>
<g>
</g>
<g>
</g>
<g>
</g>
<g>
</g>
<g>
</g>
<g>
</g>
<g>
</g>
<g>
</g>
<g>
</g>
<g>
</g>
<g>
</g>
<g>
</g>
<g>
</g>
<g>
</g>
</svg>
