<?xml version="1.0" encoding="iso-8859-1"?>
<!-- Generator: Adobe Illustrator 19.0.0, SVG Export Plug-In . SVG Version: 6.00 Build 0)  -->
<svg version="1.1" id="Layer_1" xmlns="http://www.w3.org/2000/svg" xmlns:xlink="http://www.w3.org/1999/xlink" x="0px" y="0px"
	 viewBox="0 0 512 512" style="enable-background:new 0 0 512 512;" xml:space="preserve">
<circle style="fill:#273B7A;" cx="256" cy="256" r="256"/>
<path style="fill:#121149;" d="M511.995,256.271L312.889,56.889l-1.648,112.58L199.521,57.749l-16.784,390.473l63.578,63.578
	c3.215,0.121,6.441,0.2,9.687,0.2C397.293,512,511.85,397.531,511.995,256.271z"/>
<path style="fill:#71E2EF;" d="M199.111,455.111L199.111,455.111c-15.71,0-28.444-12.734-28.444-28.444V125.561
	c0-25.757,10.231-50.459,28.444-68.67l0,0l0,0c18.213,18.211,28.444,42.913,28.444,68.67v301.106
	C227.556,442.377,214.821,455.111,199.111,455.111z"/>
<path style="fill:#38C6D9;" d="M199.111,56.889c-0.197,0.197-0.379,0.405-0.574,0.603v397.59c0.193,0.003,0.381,0.029,0.574,0.029
	c15.71,0,28.444-12.734,28.444-28.444V125.559C227.556,99.804,217.324,75.102,199.111,56.889z"/>
<path style="fill:#71E2EF;" d="M312.889,455.111L312.889,455.111c-15.71,0-28.444-12.734-28.444-28.444V125.561
	c0-25.757,10.231-50.459,28.444-68.67l0,0l0,0c18.213,18.211,28.444,42.913,28.444,68.67v301.106
	C341.333,442.377,328.599,455.111,312.889,455.111z"/>
<path style="fill:#38C6D9;" d="M313.177,57.192v397.905c15.575-0.157,28.157-12.819,28.157-28.431V125.559
	C341.333,99.943,331.204,75.374,313.177,57.192z"/>
<path style="fill:#366695;" d="M187.475,230.141h23.273c6.427,0,11.636-5.21,11.636-11.636l0,0c0-6.427-5.21-11.636-11.636-11.636
	h-23.273c-6.427,0-11.636,5.21-11.636,11.636l0,0C175.838,224.932,181.048,230.141,187.475,230.141z"/>
<path style="fill:#273B7A;" d="M210.747,206.869h-12.21v23.273h12.21c6.427,0,11.636-5.21,11.636-11.636
	C222.384,212.078,217.174,206.869,210.747,206.869z"/>
<path style="fill:#366695;" d="M187.475,307.717h23.273c6.427,0,11.636-5.21,11.636-11.636l0,0c0-6.427-5.21-11.636-11.636-11.636
	h-23.273c-6.427,0-11.636,5.21-11.636,11.636l0,0C175.838,302.508,181.048,307.717,187.475,307.717z"/>
<path style="fill:#273B7A;" d="M210.747,284.444h-12.21v23.273h12.21c6.427,0,11.636-5.21,11.636-11.636
	C222.384,289.654,217.174,284.444,210.747,284.444z"/>
<path style="fill:#366695;" d="M301.253,230.141h23.273c6.427,0,11.636-5.21,11.636-11.636l0,0c0-6.427-5.21-11.636-11.636-11.636
	h-23.273c-6.427,0-11.636,5.21-11.636,11.636l0,0C289.616,224.932,294.826,230.141,301.253,230.141z"/>
<path style="fill:#273B7A;" d="M324.525,206.869h-11.348v23.273h11.348c6.427,0,11.636-5.21,11.636-11.636
	C336.162,212.078,330.952,206.869,324.525,206.869z"/>
<path style="fill:#366695;" d="M301.253,307.717h23.273c6.427,0,11.636-5.21,11.636-11.636l0,0c0-6.427-5.21-11.636-11.636-11.636
	h-23.273c-6.427,0-11.636,5.21-11.636,11.636l0,0C289.616,302.508,294.826,307.717,301.253,307.717z"/>
<path style="fill:#273B7A;" d="M324.525,284.444h-11.348v23.273h11.348c6.427,0,11.636-5.21,11.636-11.636
	C336.162,289.654,330.952,284.444,324.525,284.444z"/>
<g>
</g>
<g>
</g>
<g>
</g>
<g>
</g>
<g>
</g>
<g>
</g>
<g>
</g>
<g>
</g>
<g>
</g>
<g>
</g>
<g>
</g>
<g>
</g>
<g>
</g>
<g>
</g>
<g>
</g>
</svg>
