<?xml version="1.0" encoding="iso-8859-1"?>
<!-- Generator: Adobe Illustrator 19.0.0, SVG Export Plug-In . SVG Version: 6.00 Build 0)  -->
<svg version="1.1" id="Layer_1" xmlns="http://www.w3.org/2000/svg" xmlns:xlink="http://www.w3.org/1999/xlink" x="0px" y="0px"
	 viewBox="0 0 512 512" style="enable-background:new 0 0 512 512;" xml:space="preserve">
<path style="fill:#40474C;" d="M436.291,312.889h9.194c5.317,0,9.626-4.31,9.626-9.625v-94.527c0-5.317-4.31-9.626-9.626-9.626
	h-9.194c-5.316,0-9.625,4.31-9.625,9.626v94.527C426.667,308.579,430.976,312.889,436.291,312.889z"/>
<circle style="fill:#71E2EF;" cx="256" cy="256" r="256"/>
<g>
	<polygon style="fill:#38C6D9;" points="59.604,309.963 91.746,342.104 91.746,303.766 	"/>
	<path style="fill:#38C6D9;" d="M87.919,339.609l172.337,172.337c137.907-2.251,249.287-113.536,251.685-251.408l-87.861-87.861
		L87.919,339.609z"/>
</g>
<path style="fill:#40474C;" d="M66.513,312.889h9.194c5.317,0,9.625-4.31,9.625-9.625v-94.527c0-5.317-4.31-9.626-9.625-9.626
	h-9.194c-5.315,0-9.625,4.31-9.625,9.626v94.527C56.889,308.579,61.199,312.889,66.513,312.889z"/>
<path style="fill:#FFFFFF;" d="M85.333,207.098v97.804c0,20.121,16.31,36.431,36.431,36.431h63.124
	c16.717,0,31.289-11.378,35.344-27.595l0.424-1.698c4.055-16.218,18.627-27.596,35.344-27.596l0,0
	c16.717,0,31.289,11.378,35.344,27.595l0.424,1.698c4.055,16.218,18.627,27.596,35.344,27.596h63.124
	c20.12,0,36.431-16.31,36.431-36.431v-97.804c0-20.12-16.31-36.431-36.431-36.431H121.765
	C101.643,170.667,85.333,186.977,85.333,207.098z"/>
<path style="fill:#DDDDDD;" d="M390.235,170.667H255.426v113.802c0.193-0.003,0.381-0.024,0.574-0.024
	c16.717,0,31.289,11.378,35.344,27.595l0.424,1.698c4.055,16.218,18.627,27.596,35.344,27.596h63.124
	c20.12,0,36.431-16.31,36.431-36.431v-97.804C426.667,186.977,410.355,170.667,390.235,170.667z"/>
<path style="fill:#386895;" d="M390.235,353.401h-63.124c-22.297,0-41.644-15.107-47.051-36.738l-0.424-1.696
	C276.921,304.1,267.2,296.512,256,296.512c-11.2,0-20.921,7.589-23.636,18.454l-0.424,1.696
	c-5.406,21.632-24.754,36.738-47.051,36.738h-63.124c-26.743,0-48.499-21.756-48.499-48.499v-97.804
	c0-26.743,21.756-48.499,48.499-48.499h268.471c26.743,0,48.499,21.756,48.499,48.499v97.804
	C438.734,331.645,416.978,353.401,390.235,353.401z M256,272.377c22.297,0,41.644,15.107,47.051,36.738l0.424,1.696
	c2.715,10.866,12.436,18.454,23.636,18.454h63.124c13.434,0,24.364-10.93,24.364-24.364v-97.804
	c0-13.434-10.93-24.364-24.364-24.364H121.765c-13.434,0-24.364,10.93-24.364,24.364v97.804c0,13.434,10.93,24.364,24.364,24.364
	h63.124c11.2,0,20.921-7.589,23.636-18.454l0.424-1.696C214.356,287.484,233.703,272.377,256,272.377z"/>
<path style="fill:#273B7A;" d="M390.235,158.599H255.426v24.135h134.809c13.434,0,24.364,10.93,24.364,24.364v97.804
	c0,13.434-10.93,24.364-24.364,24.364h-63.124c-11.2,0-20.921-7.589-23.636-18.454l-0.424-1.696
	c-5.406-21.632-24.754-36.738-47.051-36.738c-0.193,0-0.381,0.022-0.574,0.024v24.135c0.191-0.005,0.381-0.024,0.574-0.024
	c11.2,0,20.921,7.589,23.636,18.454l0.424,1.696c5.406,21.632,24.754,36.738,47.051,36.738h63.124
	c26.743,0,48.499-21.756,48.499-48.499v-97.804C438.734,180.355,416.978,158.599,390.235,158.599z"/>
<g>
	<path style="fill:#71E2EF;" d="M128,277.118c-1.764,0-3.531-0.674-4.875-2.02c-2.694-2.693-2.694-7.059,0-9.75l71.111-71.111
		c2.691-2.694,7.061-2.694,9.75,0c2.694,2.693,2.694,7.059,0,9.75l-71.111,71.111C131.531,276.444,129.764,277.118,128,277.118z"/>
	<path style="fill:#71E2EF;" d="M149.333,298.451c-1.764,0-3.531-0.674-4.875-2.02c-2.694-2.693-2.694-7.059,0-9.75l71.111-71.111
		c2.691-2.694,7.061-2.694,9.75,0c2.694,2.693,2.694,7.059,0,9.75l-71.111,71.111C152.864,297.777,151.097,298.451,149.333,298.451z
		"/>
</g>
<g>
</g>
<g>
</g>
<g>
</g>
<g>
</g>
<g>
</g>
<g>
</g>
<g>
</g>
<g>
</g>
<g>
</g>
<g>
</g>
<g>
</g>
<g>
</g>
<g>
</g>
<g>
</g>
<g>
</g>
</svg>
