<?xml version="1.0" encoding="iso-8859-1"?>
<!-- Generator: Adobe Illustrator 19.0.0, SVG Export Plug-In . SVG Version: 6.00 Build 0)  -->
<svg version="1.1" id="Layer_1" xmlns="http://www.w3.org/2000/svg" xmlns:xlink="http://www.w3.org/1999/xlink" x="0px" y="0px"
	 viewBox="0 0 512 512" style="enable-background:new 0 0 512 512;" xml:space="preserve">
<circle style="fill:#273B7A;" cx="256" cy="256" r="256"/>
<path style="fill:#121149;" d="M308.615,506.577C423,482.68,509.34,382.447,511.929,261.587L330.066,79.515l-41.024,88.997
	L158.456,356.418L308.615,506.577z"/>
<path style="fill:#71E2EF;" d="M336.1,149.623c-3.498-16.237-6.034-70.108-6.034-70.108l-28.439-0.134
	c0,0,1.057,55.656-14.848,70.968c-7.551,7.271-17.905,10.955-30.779,10.955c-12.874,0-23.228-3.684-30.784-10.955
	c-15.906-15.312-14.838-70.973-14.838-70.973h-28.446c0,0-2.536,54-6.034,70.247c-3.36,15.6-16.322,35.295-16.448,35.493
	l-0.852,18.079c0,8.123,1.515,16.115,4.499,23.747l16.096,41.093c1.539,3.934,2.322,8.051,2.322,12.231
	c0,5.042-1.115,9.931-3.319,14.531l-12.121,25.331c-2.598,5.42-4.525,11.014-5.772,16.743c-1.136,5.22-1.708,10.55-1.708,15.96
	l-0.143,3.591c0,0,24.445,10.397,48.23,27.239c22.333,15.827,27.07,48.969,27.07,48.969h44.489c0,0,4.732-33.147,27.064-48.969
	c23.785-16.851,48.094-27.441,48.094-27.441s-2.513-25.736-7.478-36.093l-12.121-25.331c-2.203-4.599-3.319-9.488-3.319-14.524
	c0-4.186,0.776-8.302,2.322-12.226l16.089-41.091c2.984-7.637,4.506-15.629,4.506-23.754l-0.848-18.082
	C352.422,184.918,339.459,165.223,336.1,149.623L336.1,149.623z"/>
<path style="fill:#38C6D9;" d="M333.802,294.795c-2.203-4.599-3.319-9.488-3.319-14.524c0-4.186,0.776-8.302,2.322-12.226
	l16.089-41.091c2.984-7.637,4.506-15.629,4.506-23.754l-0.848-18.082c-0.131-0.198-13.093-19.894-16.453-35.493
	c-3.498-16.237-6.034-70.108-6.034-70.108l-28.439-0.134c0,0,1.057,55.656-14.848,70.968c-7.551,7.271-17.904,10.955-30.779,10.955
	c-0.197,0-0.379-0.019-0.574-0.021v271.341h22.818c0,0,4.732-33.147,27.064-48.969c23.785-16.848,48.094-27.438,48.094-27.438
	s-2.513-25.736-7.478-36.095L333.802,294.795z"/>
<g>
</g>
<g>
</g>
<g>
</g>
<g>
</g>
<g>
</g>
<g>
</g>
<g>
</g>
<g>
</g>
<g>
</g>
<g>
</g>
<g>
</g>
<g>
</g>
<g>
</g>
<g>
</g>
<g>
</g>
</svg>
