<?xml version="1.0" encoding="iso-8859-1"?>
<!-- Generator: Adobe Illustrator 19.0.0, SVG Export Plug-In . SVG Version: 6.00 Build 0)  -->
<svg version="1.1" id="Layer_1" xmlns="http://www.w3.org/2000/svg" xmlns:xlink="http://www.w3.org/1999/xlink" x="0px" y="0px"
	 viewBox="0 0 512 512" style="enable-background:new 0 0 512 512;" xml:space="preserve">
<circle style="fill:#273B7A;" cx="256" cy="256" r="256"/>
<path style="fill:#121149;" d="M156.45,357.535l150.018,149.48c101.664-20.328,181.574-100.867,200.99-202.857L355.55,154.465
	L156.45,357.535z"/>
<circle style="fill:#FEE187;" cx="256" cy="256" r="142.222"/>
<path style="fill:#FFC61B;" d="M398.222,256c0-78.451-63.521-142.058-141.934-142.215v284.431
	C334.701,398.058,398.222,334.45,398.222,256z"/>
<path style="fill:#D48B07;" d="M355.55,154.465c-26.321,25.81-42.661,61.759-42.661,101.535s16.341,75.724,42.661,101.535
	c26.322-25.81,42.672-61.757,42.672-101.535C398.222,216.221,381.873,180.276,355.55,154.465z"/>
<path style="fill:#FFC61B;" d="M113.778,256c0,39.777,16.35,75.724,42.672,101.535c26.321-25.81,42.661-61.759,42.661-101.535
	s-16.341-75.724-42.661-101.535C130.127,180.276,113.778,216.221,113.778,256z"/>
<g>
</g>
<g>
</g>
<g>
</g>
<g>
</g>
<g>
</g>
<g>
</g>
<g>
</g>
<g>
</g>
<g>
</g>
<g>
</g>
<g>
</g>
<g>
</g>
<g>
</g>
<g>
</g>
<g>
</g>
</svg>
