<?xml version="1.0" encoding="iso-8859-1"?>
<!-- Generator: Adobe Illustrator 19.0.0, SVG Export Plug-In . SVG Version: 6.00 Build 0)  -->
<svg version="1.1" id="Layer_1" xmlns="http://www.w3.org/2000/svg" xmlns:xlink="http://www.w3.org/1999/xlink" x="0px" y="0px"
	 viewBox="0 0 512 512" style="enable-background:new 0 0 512 512;" xml:space="preserve">
<circle style="fill:#E03A00;" cx="256" cy="256" r="256"/>
<path style="fill:#940030;" d="M511.998,256c0-12.755-0.946-25.288-2.748-37.543l-75.892-76.054l-345.583,8.869L78.693,383.44
	l122.72,122.708C219.003,509.969,237.263,512,256,512C397.384,512,511.998,397.384,511.998,256z"/>
<path style="fill:#FFEDB5;" d="M426.667,215.488c5.236,0,9.481-4.246,9.481-9.481s-4.246-9.481-9.481-9.481h-47.407v-37.926h47.407
	c5.236,0,9.481-4.246,9.481-9.481s-4.246-9.481-9.481-9.481H85.333c-5.235,0-9.481,4.246-9.481,9.481s4.246,9.481,9.481,9.481
	h47.407v37.926H85.333c-5.235,0-9.481,4.246-9.481,9.481s4.246,9.481,9.481,9.481h47.407v37.926H85.333
	c-5.235,0-9.481,4.246-9.481,9.481s4.246,9.481,9.481,9.481h341.333c5.236,0,9.481-4.246,9.481-9.481s-4.246-9.481-9.481-9.481
	h-47.407v-37.926H426.667z M360.296,196.525H322.37v-37.926h37.926V196.525z M246.519,215.488v37.926h-37.926v-37.926H246.519z
	 M208.593,196.525v-37.926h37.926v37.926H208.593z M265.481,215.488h37.926v37.926h-37.926V215.488z M265.481,196.525v-37.926
	h37.926v37.926H265.481z M151.704,158.599h37.926v37.926h-37.926V158.599z M151.704,215.488h37.926v37.926h-37.926V215.488z
	 M360.296,253.414H322.37v-37.926h37.926V253.414z"/>
<path style="fill:#FEE187;" d="M426.667,215.488c5.236,0,9.481-4.246,9.481-9.481s-4.246-9.481-9.481-9.481h-47.407v-37.926h47.407
	c5.236,0,9.481-4.246,9.481-9.481s-4.246-9.481-9.481-9.481H255.426v132.741h171.241c5.236,0,9.481-4.246,9.481-9.481
	s-4.246-9.481-9.481-9.481h-47.407v-37.926H426.667z M303.407,253.414h-37.926v-37.926h37.926V253.414z M303.407,196.525h-37.926
	v-37.926h37.926V196.525z M360.296,253.414H322.37v-37.926h37.926V253.414z M360.296,196.525H322.37v-37.926h37.926V196.525z"/>
<path style="fill:#FFC61B;" d="M426.667,386.155c-5.236,0-9.481-4.246-9.481-9.481V149.118c0-5.236,4.246-9.481,9.481-9.481
	s9.481,4.246,9.481,9.481v227.556C436.148,381.909,431.902,386.155,426.667,386.155z"/>
<path style="fill:#FDE085;" d="M85.333,386.155c-5.235,0-9.481-4.246-9.481-9.481V149.118c0-5.236,4.246-9.481,9.481-9.481
	c5.236,0,9.481,4.246,9.481,9.481v227.556C94.815,381.909,90.569,386.155,85.333,386.155z"/>
<g>
</g>
<g>
</g>
<g>
</g>
<g>
</g>
<g>
</g>
<g>
</g>
<g>
</g>
<g>
</g>
<g>
</g>
<g>
</g>
<g>
</g>
<g>
</g>
<g>
</g>
<g>
</g>
<g>
</g>
</svg>
