<?xml version="1.0" encoding="iso-8859-1"?>
<!-- Generator: Adobe Illustrator 19.0.0, SVG Export Plug-In . SVG Version: 6.00 Build 0)  -->
<svg xmlns="http://www.w3.org/2000/svg" xmlns:xlink="http://www.w3.org/1999/xlink" version="1.1" id="Capa_1" x="0px" y="0px" viewBox="0 0 512 512" style="enable-background:new 0 0 512 512;" xml:space="preserve">
<circle style="fill:#F1333F;" cx="256" cy="256" r="256"/>
<path style="fill:#AE283F;" d="M278.434,511.01C409.31,499.645,512,389.824,512,256c0-5.598-0.2-11.149-0.554-16.657l-98.721-98.721  l-45.969,41.403l40.512,40.512L347.47,346.665L141.426,140.622L95,236.333l22.832,21.599l-19.63,45.703l39.505,42.437l-8.867,9.686  l43.53,43.53l-3.033,2.625L278.434,511.01z"/>
<path style="fill:#FFFFFF;" d="M256,363.391c-14.215,0-26.821,6.882-34.675,17.493c0.037-0.621,0.061-1.245,0.061-1.874  c0-17.157-13.909-31.066-31.066-31.066c-4.371,0-8.529,0.907-12.302,2.536c2.832-4.684,4.463-10.176,4.463-16.049  c0-17.157-13.909-31.066-31.066-31.066c-3.729,0-7.304,0.659-10.617,1.863c6.504-5.694,10.617-14.052,10.617-23.376  c0-17.157-13.908-31.066-31.065-31.066c-2.72,0-5.357,0.352-7.871,1.009c12.294-4.139,21.152-15.751,21.152-29.44  c0-12.522-7.413-23.307-18.087-28.224c1.567,0.243,3.172,0.371,4.807,0.371c17.157,0,31.065-13.909,31.065-31.066  s-13.908-31.066-31.065-31.066s-31.066,13.909-31.066,31.066c0,12.523,7.414,23.307,18.087,28.224  c-1.567-0.243-3.172-0.372-4.807-0.372c-17.157,0-31.066,13.909-31.066,31.066s13.908,31.066,31.066,31.066  c2.72,0,5.357-0.352,7.871-1.009c-12.294,4.139-21.152,15.751-21.152,29.44c0,17.157,13.908,31.066,31.066,31.066  c3.729,0,7.305-0.659,10.617-1.863c-6.504,5.694-10.617,14.052-10.617,23.376c0,17.157,13.909,31.065,31.066,31.065  c4.371,0,8.529-0.907,12.302-2.536c-2.832,4.684-4.464,10.176-4.464,16.049c0,17.157,13.909,31.066,31.066,31.066  c9.164,0,17.398-3.969,23.084-10.281c-0.342,2.188-0.523,4.43-0.523,6.715c0,23.814,19.305,43.118,43.118,43.118  s43.118-19.305,43.118-43.118C299.118,382.696,279.814,363.391,256,363.391z"/>
<path style="fill:#E0E0E0;" d="M440.5,222.355c0-17.157-13.908-31.066-31.065-31.066c-1.635,0-3.24,0.128-4.807,0.372  c10.674-4.917,18.087-15.701,18.087-28.224c0-17.157-13.908-31.066-31.066-31.066c-17.157,0-31.066,13.909-31.066,31.066  s13.908,31.066,31.066,31.066c1.635,0,3.24-0.128,4.807-0.372c-10.674,4.917-18.087,15.701-18.087,28.224  c0,13.689,8.858,25.302,21.152,29.44c-2.514-0.657-5.151-1.009-7.871-1.009c-17.157,0-31.066,13.909-31.066,31.066  c0,9.324,4.113,17.682,10.617,23.376c-3.313-1.205-6.888-1.863-10.617-1.863c-17.157,0-31.066,13.909-31.066,31.066  c0,5.873,1.631,11.365,4.463,16.049c-3.773-1.629-7.931-2.536-12.302-2.536c-17.157,0-31.066,13.909-31.066,31.066  c0,0.63,0.024,1.254,0.061,1.874c-7.855-10.611-20.46-17.493-34.675-17.493v86.237c23.814,0,43.118-19.305,43.118-43.118  c0-2.285-0.181-4.526-0.523-6.715c5.686,6.311,13.921,10.28,23.084,10.28c17.157,0,31.066-13.909,31.066-31.066  c0-5.873-1.631-11.365-4.463-16.049c3.773,1.629,7.931,2.536,12.302,2.536c17.157,0,31.065-13.909,31.065-31.066  c0-9.324-4.113-17.682-10.617-23.376c3.313,1.205,6.888,1.863,10.617,1.863c17.157,0,31.066-13.909,31.066-31.066  c0-13.689-8.858-25.302-21.152-29.44c2.514,0.657,5.152,1.009,7.871,1.009C426.592,253.421,440.5,239.513,440.5,222.355z"/>
<g>
</g>
<g>
</g>
<g>
</g>
<g>
</g>
<g>
</g>
<g>
</g>
<g>
</g>
<g>
</g>
<g>
</g>
<g>
</g>
<g>
</g>
<g>
</g>
<g>
</g>
<g>
</g>
<g>
</g>
</svg>
