<?xml version="1.0" encoding="iso-8859-1"?>
<!-- Generator: Adobe Illustrator 19.0.0, SVG Export Plug-In . SVG Version: 6.00 Build 0)  -->
<svg xmlns="http://www.w3.org/2000/svg" xmlns:xlink="http://www.w3.org/1999/xlink" version="1.1" id="Capa_1" x="0px" y="0px" viewBox="0 0 512 512" style="enable-background:new 0 0 512 512;" xml:space="preserve">
<circle style="fill:#590F38;" cx="256" cy="256" r="256"/>
<path style="fill:#4C032E;" d="M512,256c0-0.751-0.022-1.497-0.028-2.247L366.667,108.449L91.833,364.782L238.44,511.389  C244.244,511.782,250.096,512,256,512C397.385,512,512,397.385,512,256z"/>
<polygon style="fill:#FF9451;" points="366.667,304.449 145.333,304.449 145.333,108.449 256,60.333 366.667,108.449 "/>
<polygon style="fill:#F7674F;" points="366.667,108.449 256,60.333 256,304.449 366.667,304.449 "/>
<rect x="91.83" y="189.45" style="fill:#FF6838;" width="84" height="175.33"/>
<rect x="336.17" y="189.45" style="fill:#AE4E32;" width="84" height="175.33"/>
<rect x="133.83" y="247.12" style="fill:#FFDC00;" width="244.33" height="77.67"/>
<rect x="256" y="247.12" style="fill:#FFC000;" width="122.17" height="77.67"/>
<circle style="fill:#FF6838;" cx="209.83" cy="135" r="12"/>
<circle style="fill:#AE4E32;" cx="302.17" cy="135" r="12"/>
<circle style="fill:#FF6838;" cx="209.83" cy="217.67" r="12"/>
<circle style="fill:#AE4E32;" cx="302.17" cy="217.67" r="12"/>
<circle style="fill:#FF6838;" cx="256" cy="176.33" r="12"/>
<path style="fill:#AE4E32;" d="M256,164.333v24c6.627,0,12-5.373,12-12S262.627,164.333,256,164.333z"/>
<g>
</g>
<g>
</g>
<g>
</g>
<g>
</g>
<g>
</g>
<g>
</g>
<g>
</g>
<g>
</g>
<g>
</g>
<g>
</g>
<g>
</g>
<g>
</g>
<g>
</g>
<g>
</g>
<g>
</g>
</svg>
