<?xml version="1.0" encoding="iso-8859-1"?>
<!-- Generator: Adobe Illustrator 19.0.0, SVG Export Plug-In . SVG Version: 6.00 Build 0)  -->
<svg xmlns="http://www.w3.org/2000/svg" xmlns:xlink="http://www.w3.org/1999/xlink" version="1.1" id="Capa_1" x="0px" y="0px" viewBox="0 0 512 512" style="enable-background:new 0 0 512 512;" xml:space="preserve">
<circle style="fill:#175D76;" cx="256" cy="256" r="256"/>
<path style="fill:#00263F;" d="M511.247,236.233L409.988,134.974l-7.468,19.241L325.306,77l-31.354,35.472L435,254.635v9.062  l-53.466-53.466l-3.016,4.812L230.246,66.771l-82.985,78.723l-27.012-27.012l15.061,40.904L71.364,269.982l54.268,53.881  l-25.841,46.543l141.14,141.14C245.918,511.836,250.94,512,256,512c62.724,0,120.168-22.571,164.684-60.018l20.649-20.649  l0.611,0.611C485.364,386.072,512,324.149,512,256C512,249.349,511.745,242.757,511.247,236.233z"/>
<polygon style="fill:#FFDC00;" points="335.469,342.714 373.959,216.379 298.791,252.604 256,188.757 213.209,252.604   138.041,216.379 176.531,342.714 "/>
<polygon style="fill:#FFC000;" points="373.959,216.378 298.791,252.604 256,188.757 256,342.714 335.469,342.714 "/>
<circle style="fill:#FFB344;" cx="256" cy="188.76" r="19.471"/>
<path style="fill:#FF9451;" d="M256,169.286v38.942c10.754,0,19.471-8.717,19.471-19.471  C275.471,178.003,266.754,169.286,256,169.286z"/>
<circle style="fill:#FFB344;" cx="141.66" cy="217.51" r="13.358"/>
<circle style="fill:#FF9451;" cx="370.34" cy="217.51" r="13.358"/>
<path id="SVGCleanerId_0" style="fill:#8CC63F;" d="M427.156,279.301c19.819-8.206,29.233-30.923,21.028-50.742l-5.594-13.511  l-13.512,5.595c-3.773,1.562-7.166,3.652-10.134,6.146c-2.52-14.22-6.885-27.976-13.014-41.012l2.79-3.43  c13.535-16.642,11.016-41.106-5.626-54.641l-11.343-9.225l-9.227,11.346c-3.006,3.696-5.216,7.779-6.659,12.041  c-10.599-11.164-22.614-20.72-35.771-28.472v-4.241c0-23.409-18.976-42.385-42.384-42.385h-15.955v15.957  c0,21.665,16.258,39.521,37.237,42.063C369.041,148.713,401.5,199.253,401.5,256c0,80.229-65.271,145.5-145.5,145.5  S110.5,336.229,110.5,256c0-56.747,32.459-107.287,82.509-131.21c20.979-2.541,37.238-20.397,37.238-42.063V66.77H214.29  c-23.408,0-42.384,18.976-42.383,42.385v4.241c-13.156,7.752-25.171,17.309-35.771,28.473c-1.443-4.263-3.653-8.347-6.66-12.043  l-9.226-11.345l-11.344,9.226c-16.642,13.534-19.16,37.998-5.625,54.64l2.79,3.43c-6.129,13.036-10.494,26.792-13.014,41.012  c-2.969-2.494-6.362-4.584-10.135-6.146l-13.512-5.594l-5.594,13.511c-8.205,19.819,1.209,42.537,21.028,50.743l7.792,3.226  c2.726,16.847,8.002,32.847,15.421,47.595c-4.143-0.229-8.391,0.196-12.609,1.376l-14.096,3.945l3.947,14.087  c5.785,20.651,27.214,32.705,47.866,26.925l7.331-2.052c11.591,11.31,24.835,20.928,39.323,28.475  c-4.486,3.206-8.361,7.416-11.244,12.539l-7.178,12.756l12.752,7.171c18.693,10.512,42.369,3.883,52.886-14.808l0.811-1.442  c9.153,1.576,18.558,2.404,28.154,2.404c9.595,0,19-0.831,28.152-2.406l0.813,1.444c10.517,18.691,34.192,25.32,52.886,14.808  l12.752-7.171l-7.178-12.756c-2.881-5.12-6.753-9.327-11.235-12.532c14.488-7.546,27.724-17.173,39.314-28.482l7.331,2.052  c20.653,5.78,42.081-6.274,47.866-26.925l3.947-14.087l-14.096-3.945c-4.218-1.18-8.466-1.605-12.609-1.376  c7.419-14.748,12.695-30.749,15.421-47.595L427.156,279.301z"/>
<g>
	<path id="SVGCleanerId_0_1_" style="fill:#8CC63F;" d="M427.156,279.301c19.819-8.206,29.233-30.923,21.028-50.742l-5.594-13.511   l-13.512,5.595c-3.773,1.562-7.166,3.652-10.134,6.146c-2.52-14.22-6.885-27.976-13.014-41.012l2.79-3.43   c13.535-16.642,11.016-41.106-5.626-54.641l-11.343-9.225l-9.227,11.346c-3.006,3.696-5.216,7.779-6.659,12.041   c-10.599-11.164-22.614-20.72-35.771-28.472v-4.241c0-23.409-18.976-42.385-42.384-42.385h-15.955v15.957   c0,21.665,16.258,39.521,37.237,42.063C369.041,148.713,401.5,199.253,401.5,256c0,80.229-65.271,145.5-145.5,145.5   S110.5,336.229,110.5,256c0-56.747,32.459-107.287,82.509-131.21c20.979-2.541,37.238-20.397,37.238-42.063V66.77H214.29   c-23.408,0-42.384,18.976-42.383,42.385v4.241c-13.156,7.752-25.171,17.309-35.771,28.473c-1.443-4.263-3.653-8.347-6.66-12.043   l-9.226-11.345l-11.344,9.226c-16.642,13.534-19.16,37.998-5.625,54.64l2.79,3.43c-6.129,13.036-10.494,26.792-13.014,41.012   c-2.969-2.494-6.362-4.584-10.135-6.146l-13.512-5.594l-5.594,13.511c-8.205,19.819,1.209,42.537,21.028,50.743l7.792,3.226   c2.726,16.847,8.002,32.847,15.421,47.595c-4.143-0.229-8.391,0.196-12.609,1.376l-14.096,3.945l3.947,14.087   c5.785,20.651,27.214,32.705,47.866,26.925l7.331-2.052c11.591,11.31,24.835,20.928,39.323,28.475   c-4.486,3.206-8.361,7.416-11.244,12.539l-7.178,12.756l12.752,7.171c18.693,10.512,42.369,3.883,52.886-14.808l0.811-1.442   c9.153,1.576,18.558,2.404,28.154,2.404c9.595,0,19-0.831,28.152-2.406l0.813,1.444c10.517,18.691,34.192,25.32,52.886,14.808   l12.752-7.171l-7.178-12.756c-2.881-5.12-6.753-9.327-11.235-12.532c14.488-7.546,27.724-17.173,39.314-28.482l7.331,2.052   c20.653,5.78,42.081-6.274,47.866-26.925l3.947-14.087l-14.096-3.945c-4.218-1.18-8.466-1.605-12.609-1.376   c7.419-14.748,12.695-30.749,15.421-47.595L427.156,279.301z"/>
</g>
<path style="fill:#39B54A;" d="M427.156,279.301c19.819-8.206,29.233-30.923,21.028-50.742l-5.594-13.511l-13.512,5.595  c-3.773,1.562-7.166,3.652-10.134,6.146c-2.52-14.22-6.885-27.976-13.014-41.012l2.79-3.43  c13.535-16.642,11.016-41.106-5.626-54.641l-11.343-9.225l-9.227,11.346c-3.006,3.696-5.216,7.779-6.659,12.041  c-10.599-11.164-22.614-20.72-35.771-28.472v-4.241c0-23.409-18.976-42.385-42.384-42.385h-15.955v15.957  c0,21.665,16.258,39.521,37.237,42.063C369.041,148.713,401.5,199.253,401.5,256c0,80.229-65.271,145.5-145.5,145.5v20  c9.595,0,19-0.831,28.152-2.406l0.813,1.444c10.517,18.691,34.192,25.32,52.886,14.808l12.752-7.171l-7.178-12.756  c-2.881-5.12-6.753-9.327-11.235-12.532c14.488-7.546,27.724-17.173,39.314-28.482l7.331,2.052  c20.653,5.78,42.081-6.274,47.866-26.925l3.947-14.087l-14.096-3.945c-4.218-1.18-8.466-1.605-12.609-1.376  c7.419-14.748,12.695-30.749,15.421-47.595L427.156,279.301z"/>
<g>
</g>
<g>
</g>
<g>
</g>
<g>
</g>
<g>
</g>
<g>
</g>
<g>
</g>
<g>
</g>
<g>
</g>
<g>
</g>
<g>
</g>
<g>
</g>
<g>
</g>
<g>
</g>
<g>
</g>
</svg>
