<?xml version="1.0" encoding="iso-8859-1"?>
<!-- Generator: Adobe Illustrator 19.0.0, SVG Export Plug-In . SVG Version: 6.00 Build 0)  -->
<svg xmlns="http://www.w3.org/2000/svg" xmlns:xlink="http://www.w3.org/1999/xlink" version="1.1" id="Capa_1" x="0px" y="0px" viewBox="0 0 512 512" style="enable-background:new 0 0 512 512;" xml:space="preserve">
<circle style="fill:#B9EAFF;" cx="256" cy="256" r="256"/>
<path style="fill:#35CCFF;" d="M171.275,395.313L286.182,510.22C413.34,495.283,512,387.171,512,256  c0-6.896-0.281-13.725-0.816-20.482L391.999,116.333L171.275,395.313z"/>
<path style="fill:#AE4E32;" d="M362.261,116.333c-10.154,16.257-28.198,27.08-48.779,27.08s-38.624-10.823-48.779-27.08h-17.408  c-10.154,16.257-28.198,27.08-48.779,27.08s-38.624-10.823-48.779-27.08h-29.738V290.17c0,43.317,21.02,83.94,56.38,108.96  L256,455.467l79.619-56.336c35.36-25.021,56.38-65.644,56.38-108.96V116.333H362.261z"/>
<path style="fill:#893521;" d="M362.261,116.333c-10.154,16.257-28.198,27.08-48.779,27.08s-38.624-10.823-48.779-27.08H256v339.133  l79.619-56.336c35.36-25.021,56.38-65.644,56.38-108.96V116.333H362.261z"/>
<path style="fill:#FFC000;" d="M300.464,243.382c15.262,0,27.634,12.372,27.634,27.634c0,8.66-3.987,16.387-10.222,21.453  c1.621-2.668,2.555-5.801,2.555-9.152c0-9.748-8.228-17.023-17.88-15.659c-15.575,2.201-19.827,17.266-22.998,28.217  c-6.325,21.84-10.116,40.686-0.856,52.494c-29.952-2.674-9.421-65.029-9.421-77.368C269.275,255.74,285.202,243.382,300.464,243.382  z"/>
<path style="fill:#FFDC00;" d="M211.536,243.382c-15.262,0-27.634,12.372-27.634,27.634c0,8.66,3.987,16.387,10.222,21.453  c-1.621-2.668-2.555-5.801-2.555-9.152c0-9.748,8.228-17.023,17.88-15.659c15.575,2.201,19.827,17.266,22.998,28.217  c6.325,21.84,10.116,40.686,0.856,52.494c29.952-2.674,9.421-65.029,9.421-77.368C242.725,255.74,226.798,243.382,211.536,243.382z"/>
<path style="fill:#FFB344;" d="M256,363.496l15.689-16.348l-5.203-14.997c-2.032-5.858-2.009-12.234,0.067-18.076l16.884-47.533  c3.9-10.979,2.561-23.139-3.635-33.005L256,195.63l-23.761,37.916c-6.18,9.862-7.513,22.009-3.617,32.977l16.891,47.552  c2.075,5.843,2.099,12.218,0.067,18.076l-5.203,14.997L256,363.496z"/>
<path style="fill:#FF9451;" d="M283.437,266.542c3.9-10.979,2.561-23.139-3.635-33.005L256,195.63v167.867l15.689-16.348  l-5.203-14.997c-2.032-5.858-2.009-12.233,0.067-18.076L283.437,266.542z"/>
<path style="fill:#FFD863;" d="M269.254,336.864h-27.151c-3.973,0-7.194-3.221-7.194-7.194l0,0c0-3.973,3.221-7.194,7.194-7.194  h27.151c3.973,0,7.194,3.221,7.194,7.194l0,0C276.448,333.643,273.227,336.864,269.254,336.864z"/>
<path style="fill:#FFCF35;" d="M269.254,322.477H256v14.388h13.254c3.973,0,7.194-3.221,7.194-7.194  S273.228,322.477,269.254,322.477z"/>
<g>
</g>
<g>
</g>
<g>
</g>
<g>
</g>
<g>
</g>
<g>
</g>
<g>
</g>
<g>
</g>
<g>
</g>
<g>
</g>
<g>
</g>
<g>
</g>
<g>
</g>
<g>
</g>
<g>
</g>
</svg>
