<?xml version="1.0" encoding="iso-8859-1"?>
<!-- Generator: Adobe Illustrator 19.0.0, SVG Export Plug-In . SVG Version: 6.00 Build 0)  -->
<svg xmlns="http://www.w3.org/2000/svg" xmlns:xlink="http://www.w3.org/1999/xlink" version="1.1" id="Capa_1" x="0px" y="0px" viewBox="0 0 512 512" style="enable-background:new 0 0 512 512;" xml:space="preserve">
<circle style="fill:#B9EAFF;" cx="256" cy="256" r="256"/>
<path style="fill:#35CCFF;" d="M174.263,397.583l112.563,112.563C413.674,494.92,512,386.95,512,256  c0-6.895-0.281-13.724-0.816-20.482L391.999,116.333L174.263,397.583z"/>
<path style="fill:#FFD863;" d="M362.261,116.333c-10.154,16.257-28.198,27.08-48.779,27.08s-38.624-10.823-48.779-27.08h-17.408  c-10.154,16.257-28.198,27.08-48.779,27.08s-38.624-10.823-48.779-27.08h-29.738V290.17c0,43.317,21.02,83.94,56.38,108.96  L256,455.467l79.619-56.336c35.36-25.021,56.38-65.644,56.38-108.96V116.333H362.261z"/>
<path style="fill:#A67C52;" d="M337.565,138.129v259.58c34.178-25.12,54.434-65.027,54.434-107.539V116.333h-29.738  C356.351,125.795,347.765,133.411,337.565,138.129z"/>
<path style="fill:#8C6239;" d="M283.131,436.27l52.488-37.139c0.657-0.465,1.299-0.946,1.946-1.422v-259.58  c-7.325,3.388-15.48,5.285-24.083,5.285c-11.146,0-21.544-3.18-30.351-8.672V436.27z"/>
<path style="fill:#C69C6D;" d="M228.697,436.148L256,455.467l27.131-19.197V134.741c-7.456-4.649-13.772-10.955-18.427-18.408  h-17.408c-4.691,7.51-11.068,13.856-18.599,18.516V436.148z"/>
<path style="fill:#A67C52;" d="M264.704,116.333H256v339.133l27.131-19.197V134.741  C275.676,130.092,269.359,123.786,264.704,116.333z"/>
<path style="fill:#C69C6D;" d="M174.435,397.708v-259.58c-10.2-4.718-18.786-12.333-24.696-21.795h-29.738V290.17  C120.001,332.682,140.257,372.588,174.435,397.708z"/>
<path style="fill:#A67C52;" d="M174.263,138.049v259.534c0.703,0.519,1.403,1.042,2.118,1.547l52.316,37.018V134.85  c-8.771,5.427-19.107,8.564-30.18,8.564C189.848,143.414,181.632,141.487,174.263,138.049z"/>
<circle style="fill:#AE4E32;" cx="255.91" cy="268.36" r="54.43"/>
<path style="fill:#7A301F;" d="M310.348,268.356c0-30.034-24.325-54.385-54.348-54.432v108.864  C286.023,322.741,310.348,298.391,310.348,268.356z"/>
<circle style="fill:#F1333F;" cx="255.91" cy="268.36" r="31.887"/>
<path style="fill:#AE283F;" d="M287.801,268.354c0-17.582-14.23-31.838-31.801-31.884v63.771  C273.571,300.193,287.801,285.936,287.801,268.354z"/>
<g>
</g>
<g>
</g>
<g>
</g>
<g>
</g>
<g>
</g>
<g>
</g>
<g>
</g>
<g>
</g>
<g>
</g>
<g>
</g>
<g>
</g>
<g>
</g>
<g>
</g>
<g>
</g>
<g>
</g>
</svg>
