<?xml version="1.0" encoding="iso-8859-1"?>
<!-- Generator: Adobe Illustrator 19.0.0, SVG Export Plug-In . SVG Version: 6.00 Build 0)  -->
<svg xmlns="http://www.w3.org/2000/svg" xmlns:xlink="http://www.w3.org/1999/xlink" version="1.1" id="Capa_1" x="0px" y="0px" viewBox="0 0 512 512" style="enable-background:new 0 0 512 512;" xml:space="preserve">
<circle style="fill:#B9EAFF;" cx="256" cy="256" r="256"/>
<path style="fill:#35CCFF;" d="M512,256c0-7.213-0.314-14.353-0.899-21.415L409.589,133.073l-76.185,99.799l-85.297-85.297  l-71.019,202.768l151.269,151.27C434.502,470.391,512,372.253,512,256z"/>
<path style="fill:#F1333F;" d="M256,408.379c0,0,178-103.942,178-212.989c0-50.683-41.086-91.769-91.769-91.769  c-39.629,0-73.389,25.119-86.231,60.303c-12.842-35.184-46.603-60.303-86.231-60.303C119.086,103.621,78,144.707,78,195.39  C78,301.001,256,408.379,256,408.379z"/>
<path style="fill:#AE283F;" d="M342.231,103.621c-39.628,0-73.389,25.119-86.231,60.303v244.455l0,0c0,0,178-103.942,178-212.989  C434,144.707,392.914,103.621,342.231,103.621z"/>
<polygon style="fill:#FFDC00;" points="320.495,326.375 351.732,223.844 290.728,253.244 256,201.427 221.272,253.244   160.268,223.844 191.505,326.375 "/>
<polygon style="fill:#FFC000;" points="351.732,223.844 290.728,253.244 256,201.427 256,326.375 320.495,326.375 "/>
<circle style="fill:#FFB344;" cx="256" cy="201.43" r="15.802"/>
<path style="fill:#FF9451;" d="M256,185.625v31.604c8.727,0,15.802-7.075,15.802-15.802S264.727,185.625,256,185.625z"/>
<circle style="fill:#FFB344;" cx="163.21" cy="224.76" r="10.841"/>
<circle style="fill:#FF9451;" cx="348.79" cy="224.76" r="10.841"/>
<g>
</g>
<g>
</g>
<g>
</g>
<g>
</g>
<g>
</g>
<g>
</g>
<g>
</g>
<g>
</g>
<g>
</g>
<g>
</g>
<g>
</g>
<g>
</g>
<g>
</g>
<g>
</g>
<g>
</g>
</svg>
