<svg xmlns="http://www.w3.org/2000/svg" height="512pt" version="1.1" viewBox="0 0 512 512" width="512pt">
<g id="surface1">
<path d="M 512 256 C 512 397.386719 397.386719 512 256 512 C 114.613281 512 0 397.386719 0 256 C 0 114.613281 114.613281 0 256 0 C 397.386719 0 512 114.613281 512 256 Z M 512 256 " style=" stroke:none;fill-rule:nonzero;fill:rgb(67.058824%,35.294118%,11.372549%);fill-opacity:1;" />
<path d="M 512 256 C 512 243.199219 511.046875 230.621094 509.234375 218.328125 L 407.515625 116.609375 L 271.363281 144.910156 L 301.265625 210.589844 L 132.1875 417.914062 L 224.324219 510.050781 C 234.703125 511.332031 245.273438 512 256 512 C 397.386719 512 512 397.386719 512 256 Z M 512 256 " style=" stroke:none;fill-rule:nonzero;fill:rgb(54.117647%,27.843137%,6.666667%);fill-opacity:1;" />
<path d="M 403.328125 112.128906 C 367.570312 76.371094 309.390625 76.371094 273.632812 112.128906 C 243.875 141.886719 238.90625 187.160156 258.675781 222.132812 L 199.472656 281.335938 L 159.449219 241.3125 L 124.800781 275.960938 L 164.824219 315.984375 L 147.78125 333.027344 L 107.757812 293.003906 L 73.109375 327.652344 L 113.132812 367.675781 L 97.539062 383.265625 L 132.1875 417.914062 L 293.324219 256.78125 C 307.285156 264.671875 322.878906 268.644531 338.480469 268.644531 C 361.964844 268.644531 385.453125 259.703125 403.332031 241.824219 C 439.089844 206.066406 439.089844 147.886719 403.328125 112.128906 Z M 368.683594 207.175781 C 352.03125 223.828125 324.933594 223.828125 308.28125 207.175781 C 291.628906 190.523438 291.628906 163.429688 308.28125 146.773438 C 316.609375 138.449219 327.546875 134.285156 338.480469 134.285156 C 349.417969 134.285156 360.355469 138.449219 368.683594 146.773438 C 385.335938 163.429688 385.335938 190.523438 368.683594 207.175781 Z M 368.683594 207.175781 " style=" stroke:none;fill-rule:nonzero;fill:rgb(100%,80.784314%,0%);fill-opacity:1;" />
<path d="M 403.328125 112.128906 C 403.160156 111.960938 402.984375 111.804688 402.816406 111.636719 L 368.167969 146.285156 C 368.339844 146.449219 368.515625 146.605469 368.683594 146.773438 C 385.335938 163.429688 385.335938 190.523438 368.683594 207.175781 C 352.03125 223.828125 324.933594 223.828125 308.28125 207.175781 C 308.113281 207.007812 307.957031 206.832031 307.792969 206.660156 L 114.363281 400.089844 L 132.1875 417.914062 L 293.324219 256.78125 C 307.285156 264.671875 322.878906 268.644531 338.480469 268.644531 C 361.964844 268.644531 385.453125 259.703125 403.332031 241.824219 C 439.089844 206.066406 439.089844 147.886719 403.328125 112.128906 Z M 403.328125 112.128906 " style=" stroke:none;fill-rule:nonzero;fill:rgb(100%,66.666667%,0%);fill-opacity:1;" />
</g>
</svg>