<?xml version="1.0" encoding="iso-8859-1"?>
<!-- Generator: Adobe Illustrator 19.0.0, SVG Export Plug-In . SVG Version: 6.00 Build 0)  -->
<svg xmlns="http://www.w3.org/2000/svg" xmlns:xlink="http://www.w3.org/1999/xlink" version="1.1" id="Capa_1" x="0px" y="0px" viewBox="0 0 512 512" style="enable-background:new 0 0 512 512;" xml:space="preserve">
<circle style="fill:#FFCF35;" cx="256" cy="256" r="256"/>
<path style="fill:#FFB344;" d="M512,256c0-3.553-0.092-7.084-0.235-10.602L348.94,82.573L163.06,429.427l82.338,82.338  C248.916,511.908,252.447,512,256,512C397.385,512,512,397.385,512,256z"/>
<rect x="163.06" y="82.57" style="fill:#333333;" width="185.88" height="346.85"/>
<rect x="256" y="82.57" style="fill:#1A1A1A;" width="92.94" height="346.85"/>
<rect x="182" y="102.56" style="fill:#00BAFF;" width="148" height="284.44"/>
<rect x="256" y="102.56" style="fill:#008CC3;" width="74" height="284.44"/>
<polygon style="fill:#FFDC00;" points="295.816,293.446 315.1,230.149 277.439,248.298 256,216.31 234.561,248.298 196.9,230.149   216.184,293.446 "/>
<polygon style="fill:#FFC000;" points="315.1,230.149 277.439,248.298 256,216.31 256,293.446 295.816,293.446 "/>
<circle style="fill:#FFB344;" cx="256" cy="216.31" r="9.755"/>
<path style="fill:#FF9451;" d="M256,206.554v19.511c5.388,0,9.755-4.368,9.755-9.756S261.388,206.554,256,206.554z"/>
<circle style="fill:#FFB344;" cx="198.72" cy="230.72" r="6.693"/>
<circle style="fill:#FF9451;" cx="313.29" cy="230.72" r="6.693"/>
<g>
</g>
<g>
</g>
<g>
</g>
<g>
</g>
<g>
</g>
<g>
</g>
<g>
</g>
<g>
</g>
<g>
</g>
<g>
</g>
<g>
</g>
<g>
</g>
<g>
</g>
<g>
</g>
<g>
</g>
</svg>
