<?xml version="1.0" encoding="iso-8859-1"?>
<!-- Generator: Adobe Illustrator 19.0.0, SVG Export Plug-In . SVG Version: 6.00 Build 0)  -->
<svg xmlns="http://www.w3.org/2000/svg" xmlns:xlink="http://www.w3.org/1999/xlink" version="1.1" id="Capa_1" x="0px" y="0px" viewBox="0 0 512 512" style="enable-background:new 0 0 512 512;" xml:space="preserve">
<circle style="fill:#0074A3;" cx="256" cy="256" r="256"/>
<path style="fill:#005C83;" d="M512,256c0-6.871-0.279-13.677-0.81-20.411L360.391,84.79l-45.817,34.13L256,60.345l0,0L171.5,225.5  L133,283.667l16.5,120.055l108.257,108.256C398.331,511.031,512,396.797,512,256z"/>
<polygon style="fill:#FFDC00;" points="326.329,196.595 360.391,84.79 293.869,116.849 256,60.345 218.131,116.849 151.609,84.79   185.671,196.595 "/>
<g>
	<polygon style="fill:#FFC000;" points="360.391,84.79 293.869,116.849 256,60.345 256,196.595 326.329,196.595  "/>
	<path style="fill:#FFC000;" d="M256,451.149c-79.126,0-143.5-64.374-143.5-143.5s64.374-143.5,143.5-143.5   s143.5,64.374,143.5,143.5S335.126,451.149,256,451.149z M256,201.149c-58.724,0-106.5,47.776-106.5,106.5   s47.776,106.5,106.5,106.5c58.725,0,106.5-47.776,106.5-106.5S314.725,201.149,256,201.149z"/>
</g>
<path style="fill:#DDA300;" d="M256,164.149v37c58.725,0,106.5,47.776,106.5,106.5s-47.775,106.5-106.5,106.5v37  c79.126,0,143.5-64.374,143.5-143.5S335.126,164.149,256,164.149z"/>
<circle style="fill:#FF3F84;" cx="256" cy="128.47" r="26.5"/>
<path style="fill:#983262;" d="M256,101.97v53c14.635,0,26.5-11.865,26.5-26.5C282.5,113.834,270.635,101.97,256,101.97z"/>
<path style="fill:#FF3F84;" d="M177.56,169.971c11.079-3.174,19.19-13.372,19.19-25.471c0-14.636-11.865-26.5-26.5-26.5  c-2.839,0-5.571,0.451-8.135,1.277L177.56,169.971z"/>
<path style="fill:#983262;" d="M349.885,119.277c-2.564-0.826-5.296-1.277-8.135-1.277c-14.635,0-26.5,11.864-26.5,26.5  c0,12.099,8.111,22.296,19.19,25.471L349.885,119.277z"/>
<g>
</g>
<g>
</g>
<g>
</g>
<g>
</g>
<g>
</g>
<g>
</g>
<g>
</g>
<g>
</g>
<g>
</g>
<g>
</g>
<g>
</g>
<g>
</g>
<g>
</g>
<g>
</g>
<g>
</g>
</svg>
