<?xml version="1.0" encoding="iso-8859-1"?>
<!-- Generator: Adobe Illustrator 19.0.0, SVG Export Plug-In . SVG Version: 6.00 Build 0)  -->
<svg xmlns="http://www.w3.org/2000/svg" xmlns:xlink="http://www.w3.org/1999/xlink" version="1.1" id="Capa_1" x="0px" y="0px" viewBox="0 0 512 512" style="enable-background:new 0 0 512 512;" xml:space="preserve">
<circle style="fill:#005C83;" cx="256" cy="256" r="256"/>
<path style="fill:#00263F;" d="M512,256c0-13.658-1.081-27.062-3.141-40.141L401,108L77,280.5l57.044,57.044L85.667,358  l153.431,153.431C244.686,511.795,250.319,512,256,512C397.385,512,512,397.385,512,256z"/>
<rect x="111" y="108" style="fill:#F1333F;" width="290" height="207.99"/>
<rect x="256" y="108" style="fill:#AE283F;" width="145" height="207.99"/>
<rect x="126.75" y="219" style="fill:#E0E0E0;" width="99" height="37"/>
<rect x="286.25" y="219" style="fill:#C0C0C0;" width="99" height="37"/>
<rect x="95.67" y="231.09" style="fill:#FFFFFF;" width="320.67" height="84.9"/>
<rect x="256" y="231.09" style="fill:#E0E0E0;" width="160.33" height="84.9"/>
<rect x="85.67" y="256" style="fill:#FFDC00;" width="340.67" height="102"/>
<rect x="256" y="256" style="fill:#FFC000;" width="170.33" height="102"/>
<rect x="77" y="256" style="fill:#F1333F;" width="358" height="24.5"/>
<rect x="256" y="256" style="fill:#AE283F;" width="179" height="24.5"/>
<rect x="233.359" y="125.579" transform="matrix(-0.7071 -0.7071 0.7071 -0.7071 332.2063 434.0323)" style="fill:#FFDC00;" width="45.27" height="45.27"/>
<polygon style="fill:#FFC000;" points="256,116.212 256,180.238 288.013,148.226 "/>
<polygon style="fill:#FFDC00;" points="191.771,161.786 178.217,148.253 191.77,134.667 205.325,148.199 "/>
<polygon style="fill:#FFC000;" points="320.23,161.786 306.675,148.253 320.229,134.667 333.783,148.199 "/>
<g>
</g>
<g>
</g>
<g>
</g>
<g>
</g>
<g>
</g>
<g>
</g>
<g>
</g>
<g>
</g>
<g>
</g>
<g>
</g>
<g>
</g>
<g>
</g>
<g>
</g>
<g>
</g>
<g>
</g>
</svg>
