<svg xmlns="http://www.w3.org/2000/svg" height="512pt" version="1.1" viewBox="0 0 512 512" width="512pt">
<g id="surface1">
<path d="M 512 256 C 512 397.386719 397.386719 512 256 512 C 114.613281 512 0 397.386719 0 256 C 0 114.613281 114.613281 0 256 0 C 397.386719 0 512 114.613281 512 256 Z M 512 256 " style=" stroke:none;fill-rule:nonzero;fill:rgb(100%,80.784314%,0%);fill-opacity:1;" />
<path d="M 511.996094 256.375 L 302.121094 46.5 L 123.574219 386.988281 L 248.46875 511.882812 C 250.96875 511.953125 253.480469 512 256 512 C 397.257812 512 511.792969 397.585938 511.996094 256.375 Z M 511.996094 256.375 " style=" stroke:none;fill-rule:nonzero;fill:rgb(100%,66.666667%,0%);fill-opacity:1;" />
<path d="M 302.121094 46.5 L 220.597656 106.75 L 123.574219 386.988281 L 212.402344 415.761719 L 222.339844 381.925781 L 232.121094 421.5 L 309.667969 421.5 L 394.773438 377.726562 L 300 153 Z M 302.121094 46.5 " style=" stroke:none;fill-rule:nonzero;fill:rgb(67.058824%,35.294118%,11.372549%);fill-opacity:1;" />
<path d="M 394.773438 377.726562 L 300 153 L 302.121094 46.5 L 255.605469 80.878906 L 255.605469 421.5 L 309.667969 421.5 Z M 394.773438 377.726562 " style=" stroke:none;fill-rule:nonzero;fill:rgb(54.117647%,27.843137%,6.666667%);fill-opacity:1;" />
<path d="M 212.296875 244.144531 C 201.847656 238.5 197.953125 225.453125 203.601562 215.003906 L 205.648438 211.210938 L 243.488281 231.65625 L 241.441406 235.445312 C 235.796875 245.898438 222.746094 249.792969 212.296875 244.144531 Z M 212.296875 244.144531 " style=" stroke:none;fill-rule:nonzero;fill:rgb(47.058824%,24.705882%,8.627451%);fill-opacity:1;" />
<path d="M 299.703125 244.144531 C 310.152344 238.5 314.046875 225.453125 308.398438 215.003906 L 306.351562 211.210938 L 268.511719 231.65625 L 270.558594 235.445312 C 276.203125 245.898438 289.253906 249.792969 299.703125 244.144531 Z M 299.703125 244.144531 " style=" stroke:none;fill-rule:nonzero;fill:rgb(40%,20%,0%);fill-opacity:1;" />
</g>
</svg>