<?xml version="1.0" encoding="iso-8859-1"?>
<!-- Generator: Adobe Illustrator 19.0.0, SVG Export Plug-In . SVG Version: 6.00 Build 0)  -->
<svg xmlns="http://www.w3.org/2000/svg" xmlns:xlink="http://www.w3.org/1999/xlink" version="1.1" id="Capa_1" x="0px" y="0px" viewBox="0 0 512 512" style="enable-background:new 0 0 512 512;" xml:space="preserve">
<circle style="fill:#00BAFF;" cx="256" cy="256" r="256"/>
<path style="fill:#008CC3;" d="M511.948,260.098L371.06,119.21l-12.924,67.926L256,85l26.299,175.529l-141.32-141.32L88,358  l153.589,153.588C246.36,511.854,251.163,512,256,512C396.015,512,509.756,399.591,511.948,260.098z"/>
<path style="fill:#FFDC00;" d="M256,85.001L256,85.001L256,85.001c-42.328,61.372-63.003,142.238-62.05,222.666h124.1  C319.003,227.239,298.328,146.372,256,85.001z"/>
<path style="fill:#FFC000;" d="M256,85L256,85v222.666h62.05C319.003,227.239,298.328,146.372,256,85z"/>
<path style="fill:#FFECB3;" d="M256,119.001L256,119.001L256,119.001c-30.682,52.001-45.669,120.519-44.977,188.666h89.954  C301.668,239.52,286.682,171.001,256,119.001z"/>
<path style="fill:#FFD863;" d="M256,119L256,119v188.666h44.977C301.668,239.52,286.682,171,256,119z"/>
<path style="fill:#FFC000;" d="M371.06,119.211L371.06,119.211L371.06,119.211c-36.122,52.374-53.766,121.383-52.952,190.019  h105.904C424.826,240.594,407.182,171.584,371.06,119.211z"/>
<path style="fill:#FFD863;" d="M371.06,148.226L371.06,148.226L371.06,148.226c-26.184,44.376-38.973,102.849-38.383,161.004h76.765  C410.033,251.074,397.244,192.601,371.06,148.226z"/>
<path style="fill:#FFDC00;" d="M140.979,119.211L140.979,119.211L140.979,119.211c-36.122,52.374-53.766,121.383-52.952,190.019  h105.904C194.745,240.594,177.101,171.584,140.979,119.211z"/>
<path style="fill:#FFECB3;" d="M140.979,148.226L140.979,148.226L140.979,148.226c-26.184,44.376-38.973,102.849-38.383,161.004  h76.765C179.952,251.074,167.162,192.601,140.979,148.226z"/>
<rect x="88" y="304" style="fill:#FFC000;" width="336" height="54"/>
<rect x="256" y="304" style="fill:#E5AB07;" width="168" height="54"/>
<rect x="233.359" y="228.719" transform="matrix(-0.7071 -0.7071 0.7071 -0.7071 259.2746 610.1035)" style="fill:#F1333F;" width="45.27" height="45.27"/>
<polygon style="fill:#AE283F;" points="256,219.351 256,283.376 288.013,251.364 "/>
<rect x="245.383" y="320.393" transform="matrix(-0.7066 -0.7076 0.7076 -0.7066 202.683 746.0441)" style="fill:#F1333F;" width="21.248" height="21.22"/>
<g>
	<polygon style="fill:#AE283F;" points="256,315.986 256,346.014 271.014,331.021  "/>
	
		<rect x="360.444" y="320.39" transform="matrix(-0.7066 -0.7076 0.7076 -0.7066 399.05 827.4562)" style="fill:#AE283F;" width="21.248" height="21.22"/>
</g>
<rect x="130.353" y="320.384" transform="matrix(-0.7066 -0.7076 0.7076 -0.7066 6.3782 664.6322)" style="fill:#F1333F;" width="21.248" height="21.22"/>
<g>
</g>
<g>
</g>
<g>
</g>
<g>
</g>
<g>
</g>
<g>
</g>
<g>
</g>
<g>
</g>
<g>
</g>
<g>
</g>
<g>
</g>
<g>
</g>
<g>
</g>
<g>
</g>
<g>
</g>
</svg>
