<?xml version="1.0" encoding="iso-8859-1"?>
<!-- Generator: Adobe Illustrator 19.0.0, SVG Export Plug-In . SVG Version: 6.00 Build 0)  -->
<svg xmlns="http://www.w3.org/2000/svg" xmlns:xlink="http://www.w3.org/1999/xlink" version="1.1" id="Capa_1" x="0px" y="0px" viewBox="0 0 512 512" style="enable-background:new 0 0 512 512;" xml:space="preserve">
<circle style="fill:#00BAFF;" cx="256" cy="256" r="256"/>
<path style="fill:#008CC3;" d="M277.229,511.118c125.316-10.289,225.055-110.825,234.093-236.492L330.106,93.411l-5.572,18.17  L280.813,67.86L180.73,414.619L277.229,511.118z"/>
<path style="fill:#FFDC00;" d="M290.792,97.912c-0.444-24.15-15.56-42.915-34.792-42.915c-17.264,0-31.211,15.121-34.208,35.682  c-1.288-0.992-2.619-1.9-3.989-2.709c-8.635-5.1-18.17-5.949-26.163-2.332c-13.924,6.304-19.544,23.825-14.29,41.796  c-31.495,32.465-51.85,83.943-51.85,141.905c0,98.212,58.427,177.829,130.5,177.829s130.5-79.616,130.5-177.829  C386.5,187.547,345.973,118.662,290.792,97.912z M256,74.997c5.887,0,12.336,6.959,14.248,17.573  c-4.68-0.693-9.433-1.06-14.248-1.06c-4.815,0-9.568,0.367-14.248,1.06C243.664,81.956,250.113,74.997,256,74.997z M199.889,103.858  c0.698-0.316,1.441-0.443,2.187-0.443c1.702,0,3.409,0.663,4.594,1.253c-3.787,2.109-7.485,4.451-11.084,7.018  C196.063,107.794,197.625,104.883,199.889,103.858z"/>
<path style="fill:#FFC000;" d="M334.65,127.434c5.254-17.971-0.366-35.492-14.291-41.796c-7.989-3.617-17.526-2.768-26.162,2.332  c-1.37,0.809-2.701,1.717-3.989,2.709C287.211,70.117,273.264,54.997,256,54.997v20c5.887,0,12.336,6.959,14.248,17.572  c-4.68-0.692-9.433-1.059-14.248-1.059v31.494v20v304.165c72.073,0,130.5-79.617,130.5-177.829  C386.5,211.377,366.146,159.899,334.65,127.434z M309.925,103.415c0.745,0,1.488,0.127,2.186,0.443  c2.264,1.025,3.827,3.936,4.304,7.828c-3.599-2.566-7.297-4.909-11.083-7.018C306.515,104.078,308.223,103.415,309.925,103.415z"/>
<path style="fill:#488057;" d="M303.72,138.192c4.062-2.398,7.757-6.792,10.139-12.054c4.618-10.208,2.887-20.182-1.748-22.28  c-0.697-0.316-1.44-0.443-2.186-0.443c-2.249,0-4.511,1.158-5.559,1.776c-4.063,2.398-7.758,6.792-10.139,12.054l0,0  c-4.619,10.208-2.888,20.182,1.747,22.28C298.775,140.794,302.324,139.016,303.72,138.192z"/>
<path style="fill:#6EBA3B;" d="M217.772,117.246L217.772,117.246c-2.381-5.262-6.076-9.656-10.139-12.054  c-1.048-0.619-3.31-1.776-5.559-1.776c-0.745,0-1.488,0.127-2.187,0.443c-4.634,2.098-6.365,12.072-1.747,22.28  c2.382,5.262,6.077,9.655,10.139,12.054c1.395,0.824,4.943,2.603,7.744,1.333C220.66,137.427,222.392,127.453,217.772,117.246z"/>
<ellipse style="fill:#B9EAFF;" cx="256" cy="269.34" rx="87.31" ry="135.09"/>
<path style="fill:#35CCFF;" d="M343.306,269.339c0-74.611-39.088-135.095-87.306-135.095l0,0v270.189  C304.218,404.433,343.306,343.949,343.306,269.339z"/>
<rect x="219.425" y="164.505" transform="matrix(-0.7071 -0.7071 0.7071 -0.7071 249.3298 505.8258)" style="fill:#FFFFFF;" width="20" height="73.539"/>
<polygon style="fill:#E0E0E0;" points="256,175.846 256,188.85 262.502,182.348 "/>
<rect x="244.222" y="170.925" transform="matrix(-0.7071 -0.7071 0.7071 -0.7071 270.7938 573.7358)" style="fill:#FFFFFF;" width="20" height="119.719"/>
<polygon style="fill:#E0E0E0;" points="289.498,181.388 256,214.886 256,243.17 303.641,195.529 "/>
<path style="fill:#F1333F;" d="M256,74.997c-7.007,0-14.813,9.858-14.813,24.003s7.807,24.003,14.813,24.003  c7.006,0,14.813-9.858,14.813-24.003S263.007,74.997,256,74.997z"/>
<path style="fill:#AE283F;" d="M256,123.003c7.007,0,14.813-9.858,14.813-24.003S263.007,74.997,256,74.997V123.003z"/>
<g>
</g>
<g>
</g>
<g>
</g>
<g>
</g>
<g>
</g>
<g>
</g>
<g>
</g>
<g>
</g>
<g>
</g>
<g>
</g>
<g>
</g>
<g>
</g>
<g>
</g>
<g>
</g>
<g>
</g>
</svg>
