<svg xmlns="http://www.w3.org/2000/svg" height="512pt" version="1.1" viewBox="0 0 512 512" width="512pt">
<g id="surface1">
<path d="M 512 256 C 512 397.386719 397.386719 512 256 512 C 114.613281 512 0 397.386719 0 256 C 0 114.613281 114.613281 0 256 0 C 397.386719 0 512 114.613281 512 256 Z M 512 256 " style=" stroke:none;fill-rule:nonzero;fill:rgb(100%,80.784314%,0%);fill-opacity:1;" />
<path d="M 512 256 C 512 240.457031 510.613281 225.238281 507.957031 210.457031 L 385.5 88 L 265.28125 194.78125 L 158.5 88 L 126.5 421.5 L 213.460938 508.460938 C 227.296875 510.777344 241.503906 512 256 512 C 397.386719 512 512 397.386719 512 256 Z M 512 256 " style=" stroke:none;fill-rule:nonzero;fill:rgb(100%,66.666667%,0%);fill-opacity:1;" />
<path d="M 297.875 324.441406 C 296.28125 346.183594 278.148438 363.332031 256 363.332031 C 233.851562 363.332031 215.71875 346.183594 214.125 324.441406 L 149 324.441406 L 149 410.332031 L 363 410.332031 L 363 324.441406 Z M 297.875 324.441406 " style=" stroke:none;fill-rule:nonzero;fill:rgb(78.039216%,45.098039%,18.039216%);fill-opacity:1;" />
<path d="M 363 324.441406 L 297.875 324.441406 C 296.28125 346.183594 278.148438 363.332031 256 363.332031 C 255.867188 363.332031 255.738281 363.324219 255.605469 363.324219 L 255.605469 410.332031 L 363 410.332031 Z M 363 324.441406 " style=" stroke:none;fill-rule:nonzero;fill:rgb(73.72549%,40.784314%,16.078431%);fill-opacity:1;" />
<path d="M 214.128906 315.230469 C 215.71875 293.488281 233.851562 276.339844 256 276.339844 C 278.148438 276.339844 296.28125 293.488281 297.875 315.230469 L 363 315.230469 L 363 237 L 149 237 L 149 315.230469 Z M 214.128906 315.230469 " style=" stroke:none;fill-rule:nonzero;fill:rgb(73.72549%,40.784314%,16.078431%);fill-opacity:1;" />
<path d="M 363 237 L 255.605469 237 L 255.605469 276.347656 C 255.738281 276.347656 255.867188 276.339844 256 276.339844 C 278.148438 276.339844 296.28125 293.488281 297.875 315.230469 L 363 315.230469 Z M 363 237 " style=" stroke:none;fill-rule:nonzero;fill:rgb(67.058824%,35.294118%,11.372549%);fill-opacity:1;" />
<path d="M 363 227 L 149 162.332031 L 149 111.667969 L 363 111.667969 Z M 363 227 " style=" stroke:none;fill-rule:nonzero;fill:rgb(82.352941%,82.352941%,84.313725%);fill-opacity:1;" />
<path d="M 363 111.667969 L 255.605469 111.667969 L 255.605469 194.546875 L 363 227 Z M 363 111.667969 " style=" stroke:none;fill-rule:nonzero;fill:rgb(72.54902%,72.54902%,74.509804%);fill-opacity:1;" />
<path d="M 149 162.332031 L 363 227 L 363 192.332031 L 149 127.667969 Z M 149 162.332031 " style=" stroke:none;fill-rule:nonzero;fill:rgb(100%,100%,100%);fill-opacity:1;" />
<path d="M 363 192.332031 L 255.605469 159.882812 L 255.605469 194.546875 L 363 227 Z M 363 192.332031 " style=" stroke:none;fill-rule:nonzero;fill:rgb(94.901961%,96.470588%,98.823529%);fill-opacity:1;" />
<path d="M 126.5 88 L 158.5 88 L 158.5 421.5 L 126.5 421.5 Z M 126.5 88 " style=" stroke:none;fill-rule:nonzero;fill:rgb(67.058824%,35.294118%,11.372549%);fill-opacity:1;" />
<path d="M 353.5 88 L 385.5 88 L 385.5 421.5 L 353.5 421.5 Z M 353.5 88 " style=" stroke:none;fill-rule:nonzero;fill:rgb(54.117647%,27.843137%,6.666667%);fill-opacity:1;" />
</g>
</svg>