<svg xmlns="http://www.w3.org/2000/svg" height="512pt" version="1.1" viewBox="0 0 512 512" width="512pt">
<g id="surface1">
<path d="M 512 256 C 512 397.386719 397.386719 512 256 512 C 114.613281 512 0 397.386719 0 256 C 0 114.613281 114.613281 0 256 0 C 397.386719 0 512 114.613281 512 256 Z M 512 256 " style=" stroke:none;fill-rule:nonzero;fill:rgb(97.647059%,15.686275%,7.843137%);fill-opacity:1;" />
<path d="M 512 256 C 512 248.945312 511.703125 241.964844 511.144531 235.054688 L 406.300781 130.210938 L 117.34375 394.53125 L 233.191406 510.976562 C 240.707031 511.640625 248.3125 512 256 512 C 397.386719 512 512 397.386719 512 256 Z M 512 256 " style=" stroke:none;fill-rule:nonzero;fill:rgb(85.882353%,1.568627%,1.568627%);fill-opacity:1;" />
<path d="M 452 256 C 452 364.246094 364.246094 452 256 452 C 147.753906 452 60 364.246094 60 256 C 60 147.753906 147.753906 60 256 60 C 364.246094 60 452 147.753906 452 256 Z M 452 256 " style=" stroke:none;fill-rule:nonzero;fill:rgb(100%,80.784314%,0%);fill-opacity:1;" />
<path d="M 256 60 C 255.867188 60 255.738281 60.003906 255.605469 60.003906 L 255.605469 451.996094 C 255.738281 451.996094 255.867188 452 256 452 C 364.246094 452 452 364.246094 452 256 C 452 147.753906 364.246094 60 256 60 Z M 256 60 " style=" stroke:none;fill-rule:nonzero;fill:rgb(100%,66.666667%,0%);fill-opacity:1;" />
<path d="M 420.765625 256 C 420.765625 346.996094 346.996094 420.765625 256 420.765625 C 165.003906 420.765625 91.234375 346.996094 91.234375 256 C 91.234375 165.003906 165.003906 91.234375 256 91.234375 C 346.996094 91.234375 420.765625 165.003906 420.765625 256 Z M 420.765625 256 " style=" stroke:none;fill-rule:nonzero;fill:rgb(67.058824%,35.294118%,11.372549%);fill-opacity:1;" />
<path d="M 256 91.234375 C 255.867188 91.234375 255.738281 91.242188 255.605469 91.242188 L 255.605469 420.757812 C 255.738281 420.757812 255.867188 420.761719 256 420.761719 C 346.996094 420.761719 420.765625 346.996094 420.765625 256 C 420.765625 165.003906 346.996094 91.234375 256 91.234375 Z M 256 91.234375 " style=" stroke:none;fill-rule:nonzero;fill:rgb(54.117647%,27.843137%,6.666667%);fill-opacity:1;" />
<path d="M 243.097656 91.738281 C 230.78125 92.691406 218.84375 95.003906 207.433594 98.515625 L 207.433594 413.484375 C 218.84375 417 230.78125 419.308594 243.097656 420.261719 Z M 243.097656 91.738281 " style=" stroke:none;fill-rule:nonzero;fill:rgb(78.039216%,45.098039%,18.039216%);fill-opacity:1;" />
<path d="M 181.632812 108.941406 C 168.664062 115.515625 156.683594 123.753906 145.96875 133.371094 L 145.96875 378.628906 C 156.683594 388.246094 168.660156 396.484375 181.632812 403.058594 Z M 181.632812 108.941406 " style=" stroke:none;fill-rule:nonzero;fill:rgb(78.039216%,45.098039%,18.039216%);fill-opacity:1;" />
<path d="M 304.566406 98.515625 C 293.15625 95 281.21875 92.691406 268.902344 91.734375 L 268.902344 420.261719 C 281.21875 419.308594 293.15625 416.996094 304.566406 413.484375 Z M 304.566406 98.515625 " style=" stroke:none;fill-rule:nonzero;fill:rgb(73.72549%,40.784314%,16.078431%);fill-opacity:1;" />
<path d="M 120.164062 162.738281 C 101.921875 189.257812 91.238281 221.378906 91.238281 256 C 91.238281 290.621094 101.925781 322.742188 120.164062 349.261719 Z M 120.164062 162.738281 " style=" stroke:none;fill-rule:nonzero;fill:rgb(78.039216%,45.098039%,18.039216%);fill-opacity:1;" />
<path d="M 366.03125 133.371094 C 355.316406 123.753906 343.339844 115.515625 330.367188 108.941406 L 330.367188 403.058594 C 343.335938 396.484375 355.316406 388.246094 366.03125 378.628906 Z M 366.03125 133.371094 " style=" stroke:none;fill-rule:nonzero;fill:rgb(73.72549%,40.784314%,16.078431%);fill-opacity:1;" />
<path d="M 391.835938 162.738281 L 391.835938 349.261719 C 410.078125 322.742188 420.761719 290.621094 420.761719 256 C 420.765625 221.378906 410.078125 189.257812 391.835938 162.738281 Z M 391.835938 162.738281 " style=" stroke:none;fill-rule:nonzero;fill:rgb(73.72549%,40.784314%,16.078431%);fill-opacity:1;" />
<path d="M 309.53125 256 C 309.53125 285.566406 285.566406 309.53125 256 309.53125 C 226.433594 309.53125 202.46875 285.566406 202.46875 256 C 202.46875 226.433594 226.433594 202.46875 256 202.46875 C 285.566406 202.46875 309.53125 226.433594 309.53125 256 Z M 309.53125 256 " style=" stroke:none;fill-rule:nonzero;fill:rgb(100%,80.784314%,0%);fill-opacity:1;" />
<path d="M 256 202.46875 C 255.867188 202.46875 255.738281 202.476562 255.605469 202.476562 L 255.605469 309.523438 C 255.738281 309.523438 255.867188 309.53125 256 309.53125 C 285.566406 309.53125 309.53125 285.566406 309.53125 256 C 309.53125 226.433594 285.566406 202.46875 256 202.46875 Z M 256 202.46875 " style=" stroke:none;fill-rule:nonzero;fill:rgb(100%,66.666667%,0%);fill-opacity:1;" />
</g>
</svg>