<?xml version="1.0" encoding="iso-8859-1"?>
<!-- Generator: Adobe Illustrator 19.0.0, SVG Export Plug-In . SVG Version: 6.00 Build 0)  -->
<svg xmlns="http://www.w3.org/2000/svg" xmlns:xlink="http://www.w3.org/1999/xlink" version="1.1" id="Capa_1" x="0px" y="0px" viewBox="0 0 512 512" style="enable-background:new 0 0 512 512;" xml:space="preserve">
<circle style="fill:#35CCFF;" cx="256" cy="256" r="256"/>
<path style="fill:#00BAFF;" d="M511.969,258.443L358.282,104.755l-101.657,243.87l128.471,128.471  C460.347,433.062,511.095,351.719,511.969,258.443z"/>
<path style="fill:#FF6838;" d="M400.102,398.609c-3.675-19.334-13.505-17.521-17.18-36.855c-3.676-19.335,6.154-21.149,2.478-40.485  c-3.675-19.334-13.504-17.52-17.18-36.855c-3.675-19.334,6.154-21.148,2.478-40.482c-3.675-19.332-13.504-17.518-17.179-36.85  c-0.459-2.414-0.586-4.648-0.483-6.742c-5.755-2.251-10.287-6.679-13.425-12.558c-2.346-4.395-3.608-8.46-5.247-12.358  c-1.495-0.845-2.796-2.031-3.774-3.415c-1.064,0.271-2.157,0.425-3.281,0.425c-11.887,0-11.887-9.854-23.775-9.854  c-11.886,0-11.886,9.854-23.771,9.854s-11.885-9.854-23.77-9.854s-11.885,9.854-23.771,9.854c-11.885,0-11.885-9.854-23.77-9.854  c-0.009,0-0.017,0-0.026,0c-0.874,2.765-3.022,5.11-6.737,6.035c-3.102,0.772-6.743,1.515-10.349,2.464  c-1.154,0.531-2.456,0.94-3.983,1.163c-4.064,1.324-7.792,3.048-10.272,5.564c0.021,1.684,0.027,3.37,0.028,5.058  c0.002,5.838-5.327,10.424-10.783,10.138c-2.208,2.214-4.68,3.975-7.546,5.342c0.323,2.66,0.305,5.542-0.304,8.744  c-3.676,19.338-13.505,17.523-17.181,36.861c-3.675,19.335,6.154,21.149,2.478,40.484c-3.676,19.335-13.505,17.521-17.18,36.856  c-3.675,19.334,6.154,21.149,2.478,40.483c-3.675,19.334-13.504,17.52-17.18,36.854c-1.853,9.748-0.273,15.042,1.278,20.373h284.443  C399.59,413.53,401.831,407.708,400.102,398.609z"/>
<path style="fill:#AE4E32;" d="M400.102,398.609c-3.676-19.335-13.505-17.521-17.18-36.855c-3.676-19.335,6.153-21.149,2.478-40.485  c-3.675-19.334-13.504-17.52-17.18-36.855c-3.675-19.334,6.154-21.148,2.478-40.482c-3.675-19.332-13.504-17.518-17.179-36.85  c-0.459-2.414-0.586-4.648-0.483-6.742c-5.755-2.251-10.287-6.679-13.425-12.558c-2.346-4.395-3.608-8.46-5.247-12.358  c-1.495-0.845-2.796-2.031-3.774-3.415c-1.064,0.27-2.157,0.424-3.281,0.424c-11.887,0-11.887-9.853-23.775-9.853  c-11.886,0-11.886,9.853-23.772,9.853c-11.885,0-11.885-9.853-23.77-9.853c-0.112,0-0.216,0.006-0.325,0.008V419h141.95  C399.59,413.53,401.831,407.708,400.102,398.609z"/>
<path style="fill:#FFF0CC;" d="M460.799,409.616l-8.525-17.542l-152.978-37.523v-30.788h-86.591v30.788L59.726,392.075  l-8.525,17.542C97.907,471.784,172.255,512,256,512S414.093,471.785,460.799,409.616z"/>
<path style="fill:#FFECB3;" d="M452.274,392.075l-152.978-37.523v-30.788h-43.629v188.234c0.111,0,0.222,0.002,0.333,0.002  c83.745,0,158.093-40.215,204.799-102.384L452.274,392.075z"/>
<path style="fill:#F1333F;" d="M452.274,392.075l-119.386-29.284C315.165,391.413,292.859,413,256,413s-60.654-21.222-78.376-49.844  L59.726,392.075l-8.525,17.542C97.907,471.784,172.255,512,256,512s158.093-40.215,204.799-102.384L452.274,392.075z"/>
<path style="fill:#AE283F;" d="M452.274,392.075l-119.386-29.284C315.165,391.413,292.859,413,256,413  c-0.112,0-0.221-0.006-0.333-0.006v99.003c0.111,0,0.222,0.002,0.333,0.002c83.745,0,158.093-40.215,204.799-102.384  L452.274,392.075z"/>
<circle style="fill:#EFD48F;" cx="155.86" cy="243.98" r="28.808"/>
<path style="fill:#FF6838;" d="M350.583,213.226c0,0-2.49-63.333-48.37-78.333c-33.12-23-98.304-8.594-117.548,10.667  c-19.245,19.261-24.665,62-24.665,62c52.568-7.266,96.182-35.08,120.718-54.11C294.898,169.071,328.412,204.229,350.583,213.226z"/>
<circle style="fill:#E7C46B;" cx="356.14" cy="243.98" r="28.808"/>
<path style="fill:#FFECB3;" d="M256.737,337.945h-1.473c-54.901,0-99.406-44.506-99.406-99.406v-78.965  c0-54.901,44.506-99.406,99.406-99.406h1.473c54.901,0,99.406,44.506,99.406,99.407v78.965  C356.143,293.439,311.637,337.945,256.737,337.945z"/>
<path style="fill:#E8D3A0;" d="M256,62.167L256,62.167c-0.112,0-0.222,0.004-0.333,0.004v275.774h1.07  c54.901,0,99.406-44.506,99.406-99.407v-77.696C356.143,106.346,311.308,62.167,256,62.167z"/>
<circle style="fill:#1A1A1A;" cx="313.02" cy="229.85" r="10.803"/>
<circle style="fill:#333333;" cx="198.98" cy="229.85" r="10.803"/>
<path style="fill:#E8D3A0;" d="M256.354,257.642h-0.708c-6.156,0-11.146-4.99-11.146-11.146v-6.068h23v6.068  C267.5,252.651,262.51,257.642,256.354,257.642z"/>
<path style="fill:#CCB98C;" d="M255.667,240.428v17.214h0.687c6.156,0,11.146-4.99,11.146-11.146v-6.068L255.667,240.428  L255.667,240.428z"/>
<path style="fill:#F1333F;" d="M255.667,303c-16.818,0-30.5-13.682-30.5-30.5h12c0,10.201,8.299,18.5,18.5,18.5  s18.5-8.299,18.5-18.5h12C286.167,289.318,272.485,303,255.667,303z"/>
<path style="fill:#AE283F;" d="M255.667,291c10.201,0,18.5-8.299,18.5-18.5h12c0,16.818-13.682,30.5-30.5,30.5L255.667,291  L255.667,291z"/>
<path style="fill:#FF6838;" d="M256,60.167c-55.308,0-102.281,44.178-102.281,98.675l2.138,80.427  c0,13.034,2.57,25.475,7.229,36.865v-47.75c0-7.481,0.917-14.75,2.635-21.711c50.004-8.409,91.357-34.89,114.996-53.225  c13.515,14.889,44.585,47.506,66.666,58.325c1.002,5.387,1.53,10.938,1.53,16.61v47.75c4.659-11.39,7.229-23.831,7.229-36.865  l2.138-80.427C358.282,104.345,311.308,60.167,256,60.167z"/>
<path style="fill:#DD4A22;" d="M256,60.167c-0.167,0-0.333,0.005-0.5,0.006v110.89c9.78-6.131,18.269-12.225,25.218-17.614  c13.515,14.889,44.585,47.506,66.666,58.325c1.002,5.387,1.53,10.938,1.53,16.61v47.75c4.659-11.39,7.229-23.831,7.229-36.865  l2.138-80.427C358.282,104.345,311.308,60.167,256,60.167z"/>
<circle style="fill:#F1333F;" cx="149.58" cy="284" r="11.833"/>
<circle style="fill:#AE283F;" cx="362.42" cy="284" r="11.833"/>
<g>
	<path style="fill:#FFDC00;" d="M256.119,49.116c-104.536,18-114.619,82.667-114.619,82.667l14.565,83.386l0,0   c3.282-51.934,46.436-93.042,99.198-93.042h1.473c52.762,0,95.916,41.108,99.198,93.042h0.208l14.357-83.386   C370.5,131.782,360.655,67.116,256.119,49.116z"/>
	<path style="fill:#FFDC00;" d="M141.5,131.782l14.565,83.386c3.282-51.934,46.436-93.042,99.198-93.042h0.403V49.198   C151.56,67.308,141.5,131.782,141.5,131.782z"/>
</g>
<path style="fill:#FFC000;" d="M255.667,122.125h1.07c52.762,0,95.916,41.108,99.198,93.042h0.208l14.357-83.386  c0,0-9.845-64.667-114.381-82.667L255.667,122.125z"/>
<path style="fill:#FFDC00;" d="M345.114,365.79L184.229,501.8C207,508.439,231.084,512,256,512c15.019,0,29.733-1.3,44.042-3.782  l140.724-118.966L345.114,365.79z"/>
<path style="fill:#FFC000;" d="M345.114,365.79l-89.447,75.618v70.589c0.111,0,0.222,0.003,0.333,0.003  c15.019,0,29.733-1.3,44.042-3.782l140.724-118.966L345.114,365.79z"/>
<path style="fill:#FFFFFF;" d="M337.177,378.131c0-7.549-6.12-13.668-13.668-13.668c-0.751,0-1.482,0.077-2.201,0.193  c4.74-2.146,8.044-6.906,8.044-12.448c0-7.549-6.12-13.668-13.668-13.668c-7.549,0-13.668,6.12-13.668,13.668  s6.12,13.668,13.668,13.668c0.751,0,1.482-0.077,2.201-0.193c-4.74,2.146-8.044,6.906-8.044,12.448  c0,6.106,4.005,11.273,9.53,13.027c-1.174-0.329-2.408-0.517-3.687-0.517c-7.549,0-13.668,6.12-13.668,13.668  c0,4.126,1.836,7.816,4.726,10.322c-1.475-0.545-3.062-0.857-4.726-0.857c-7.549,0-13.668,6.12-13.668,13.668  c0,2.595,0.736,5.011,1.991,7.077c-1.668-0.725-3.506-1.132-5.44-1.132c-7.549,0-13.668,6.12-13.668,13.668  c0,0.286,0.025,0.566,0.043,0.847c-3.455-4.681-9.008-7.719-15.272-7.719s-11.818,3.038-15.272,7.719  c0.017-0.282,0.043-0.561,0.043-0.847c0-7.549-6.12-13.668-13.668-13.668c-1.935,0-3.772,0.407-5.44,1.132  c1.255-2.066,1.991-4.483,1.991-7.077c0-7.549-6.12-13.668-13.668-13.668c-1.664,0-3.251,0.312-4.726,0.857  c2.89-2.506,4.726-6.196,4.726-10.322c0-7.549-6.12-13.668-13.668-13.668c-1.279,0-2.512,0.189-3.687,0.517  c5.525-1.754,9.53-6.921,9.53-13.027c0-5.541-3.304-10.302-8.044-12.448c0.718,0.116,1.45,0.193,2.2,0.193  c7.549,0,13.668-6.12,13.668-13.668s-6.12-13.668-13.668-13.668c-7.549,0-13.668,6.12-13.668,13.668  c0,5.541,3.304,10.302,8.044,12.448c-0.718-0.117-1.45-0.193-2.2-0.193c-7.549,0-13.668,6.12-13.668,13.668  s6.12,13.668,13.668,13.668c1.279,0,2.512-0.189,3.687-0.517c-5.525,1.754-9.53,6.921-9.53,13.027  c0,7.549,6.12,13.669,13.668,13.669c1.664,0,3.251-0.312,4.726-0.857c-2.89,2.506-4.726,6.196-4.726,10.322  c0,7.549,6.12,13.668,13.668,13.668c1.935,0,3.772-0.407,5.44-1.132c-1.255,2.066-1.991,4.483-1.991,7.077  c0,7.549,6.12,13.668,13.668,13.668c4.04,0,7.659-1.763,10.161-4.549c-0.153,0.971-0.235,1.966-0.235,2.981  c0,10.478,8.494,18.971,18.971,18.971c10.478,0,18.971-8.494,18.971-18.971c0-1.014-0.082-2.009-0.235-2.981  c2.502,2.786,6.121,4.55,10.161,4.55c7.549,0,13.668-6.12,13.668-13.669c0-2.594-0.736-5.011-1.991-7.077  c1.668,0.725,3.506,1.132,5.44,1.132c7.549,0,13.668-6.12,13.668-13.668c0-4.126-1.836-7.815-4.726-10.322  c1.475,0.544,3.062,0.857,4.726,0.857c7.549,0,13.668-6.12,13.668-13.669c0-6.106-4.005-11.273-9.53-13.027  c1.174,0.329,2.408,0.517,3.687,0.517C331.058,391.799,337.177,385.68,337.177,378.131z"/>
<path style="fill:#E0E0E0;" d="M337.177,378.131c0-7.549-6.12-13.668-13.668-13.668c-0.751,0-1.482,0.077-2.2,0.193  c4.74-2.146,8.044-6.907,8.044-12.448c0-7.549-6.12-13.668-13.668-13.668s-13.668,6.12-13.668,13.668s6.12,13.668,13.668,13.668  c0.751,0,1.482-0.076,2.201-0.193c-4.74,2.146-8.044,6.906-8.044,12.448c0,6.105,4.005,11.273,9.53,13.027  c-1.174-0.329-2.407-0.518-3.687-0.518c-7.549,0-13.668,6.12-13.668,13.668c0,4.125,1.836,7.816,4.726,10.322  c-1.475-0.544-3.062-0.856-4.726-0.856c-7.549,0-13.668,6.12-13.668,13.668c0,2.594,0.736,5.011,1.991,7.077  c-1.668-0.725-3.506-1.132-5.44-1.132c-7.549,0-13.668,6.12-13.668,13.668c0,0.286,0.025,0.565,0.043,0.847  c-3.455-4.681-9.008-7.719-15.272-7.719c-0.112,0-0.222,0.008-0.333,0.01v37.916c0.112,0.002,0.221,0.017,0.333,0.017  c10.478,0,18.971-8.494,18.971-18.971c0-1.014-0.082-2.009-0.235-2.981c2.502,2.787,6.122,4.55,10.161,4.55  c7.549,0,13.668-6.12,13.668-13.668c0-2.594-0.736-5.011-1.991-7.077c1.668,0.725,3.506,1.131,5.44,1.131  c7.549,0,13.668-6.119,13.668-13.668c0-4.126-1.836-7.815-4.726-10.322c1.475,0.544,3.062,0.856,4.726,0.856  c7.549,0,13.668-6.12,13.668-13.668c0-6.105-4.005-11.273-9.53-13.027c1.174,0.329,2.407,0.517,3.687,0.517  C331.058,391.799,337.177,385.68,337.177,378.131z"/>
<circle style="fill:#FF9451;" cx="256" cy="458.6" r="11.833"/>
<path style="fill:#F7674F;" d="M256,446.764c-0.113,0-0.222,0.014-0.333,0.017v23.633c0.112,0.003,0.221,0.017,0.333,0.017  c6.535,0,11.833-5.298,11.833-11.833C267.833,452.062,262.535,446.764,256,446.764z"/>
<g>
</g>
<g>
</g>
<g>
</g>
<g>
</g>
<g>
</g>
<g>
</g>
<g>
</g>
<g>
</g>
<g>
</g>
<g>
</g>
<g>
</g>
<g>
</g>
<g>
</g>
<g>
</g>
<g>
</g>
</svg>
