<svg xmlns="http://www.w3.org/2000/svg" height="512pt" version="1.1" viewBox="0 0 512 512" width="512pt">
<g id="surface1">
<path d="M 512 256 C 512 397.386719 397.386719 512 256 512 C 114.613281 512 0 397.386719 0 256 C 0 114.613281 114.613281 0 256 0 C 397.386719 0 512 114.613281 512 256 Z M 512 256 " style=" stroke:none;fill-rule:nonzero;fill:rgb(25.490196%,28.627451%,32.156863%);fill-opacity:1;" />
<path d="M 511.683594 268.746094 L 361.34375 118.40625 L 225.304688 84.734375 L 154.394531 129.757812 L 125.75 354.25 L 110 408.265625 L 209.511719 507.777344 C 224.589844 510.542969 240.121094 512 256 512 C 393.109375 512 505.039062 404.207031 511.683594 268.746094 Z M 511.683594 268.746094 " style=" stroke:none;fill-rule:nonzero;fill:rgb(20%,22.352941%,25.098039%);fill-opacity:1;" />
<path d="M 260.457031 70.234375 L 251.355469 70.234375 C 179.734375 70.234375 121.46875 128.503906 121.46875 200.121094 L 121.46875 399.59375 L 390.34375 399.59375 L 390.34375 200.121094 C 390.34375 128.503906 332.078125 70.234375 260.457031 70.234375 Z M 181.59375 127.316406 L 181.59375 150.890625 L 163.324219 150.890625 C 168.234375 142.148438 174.40625 134.207031 181.59375 127.316406 Z M 150.46875 200.125 C 150.46875 193.195312 151.171875 186.429688 152.507812 179.890625 L 181.59375 179.890625 L 181.59375 226.5625 L 150.46875 226.5625 Z M 150.46875 255.5625 L 181.59375 255.5625 L 181.59375 302.234375 L 150.46875 302.234375 Z M 150.46875 331.234375 L 181.59375 331.234375 L 181.59375 370.59375 L 150.46875 370.59375 Z M 241.40625 370.59375 L 210.59375 370.59375 L 210.59375 331.234375 L 241.40625 331.234375 Z M 241.40625 302.234375 L 210.59375 302.234375 L 210.59375 255.5625 L 241.40625 255.5625 Z M 241.40625 226.5625 L 210.59375 226.5625 L 210.59375 179.890625 L 241.40625 179.890625 Z M 241.40625 150.890625 L 210.59375 150.890625 L 210.59375 109.203125 C 220.976562 104.195312 229.429688 100.902344 241.40625 99.726562 Z M 331.125 128.195312 C 337.925781 134.878906 343.785156 142.519531 348.488281 150.890625 L 331.125 150.890625 Z M 302.125 370.59375 L 270.40625 370.59375 L 270.40625 331.234375 L 302.125 331.234375 Z M 302.125 302.234375 L 270.40625 302.234375 L 270.40625 255.5625 L 302.125 255.5625 Z M 302.125 226.5625 L 270.40625 226.5625 L 270.40625 179.890625 L 302.125 179.890625 Z M 302.125 109.203125 L 302.125 150.890625 L 270.40625 150.890625 L 270.40625 99.726562 C 282.394531 100.902344 291.730469 104.1875 302.125 109.203125 Z M 361.34375 370.59375 L 331.125 370.59375 L 331.125 331.234375 L 361.34375 331.234375 Z M 361.34375 302.234375 L 331.125 302.234375 L 331.125 255.5625 L 361.34375 255.5625 Z M 361.34375 226.5625 L 331.125 226.5625 L 331.125 179.890625 L 359.304688 179.890625 C 360.640625 186.429688 361.34375 193.195312 361.34375 200.125 Z M 361.34375 226.5625 " style=" stroke:none;fill-rule:nonzero;fill:rgb(100%,80.784314%,0%);fill-opacity:1;" />
<path d="M 390.34375 200.125 C 390.34375 128.503906 332.078125 70.234375 260.457031 70.234375 L 256.210938 70.234375 L 256.210938 399.59375 L 390.34375 399.59375 Z M 331.125 128.195312 C 337.925781 134.878906 343.785156 142.519531 348.488281 150.890625 L 331.125 150.890625 Z M 302.125 370.59375 L 270.40625 370.59375 L 270.40625 331.234375 L 302.125 331.234375 Z M 302.125 302.234375 L 270.40625 302.234375 L 270.40625 255.5625 L 302.125 255.5625 Z M 302.125 226.5625 L 270.40625 226.5625 L 270.40625 179.890625 L 302.125 179.890625 Z M 302.125 109.203125 L 302.125 150.890625 L 270.40625 150.890625 L 270.40625 99.726562 C 282.394531 100.902344 291.730469 104.1875 302.125 109.203125 Z M 361.34375 370.59375 L 331.125 370.59375 L 331.125 331.234375 L 361.34375 331.234375 Z M 361.34375 302.234375 L 331.125 302.234375 L 331.125 255.5625 L 361.34375 255.5625 Z M 361.34375 226.5625 L 331.125 226.5625 L 331.125 179.890625 L 359.304688 179.890625 C 360.640625 186.429688 361.34375 193.195312 361.34375 200.125 Z M 361.34375 226.5625 " style=" stroke:none;fill-rule:nonzero;fill:rgb(100%,66.666667%,0%);fill-opacity:1;" />
<path d="M 110 350.265625 L 400 350.265625 L 400 408.265625 L 110 408.265625 Z M 110 350.265625 " style=" stroke:none;fill-rule:nonzero;fill:rgb(68.627451%,70.588235%,78.431373%);fill-opacity:1;" />
<path d="M 256.210938 350.265625 L 400 350.265625 L 400 408.265625 L 256.210938 408.265625 Z M 256.210938 350.265625 " style=" stroke:none;fill-rule:nonzero;fill:rgb(56.862745%,58.823529%,66.666667%);fill-opacity:1;" />
</g>
</svg>