<?xml version="1.0" encoding="iso-8859-1"?>
<!-- Generator: Adobe Illustrator 19.0.0, SVG Export Plug-In . SVG Version: 6.00 Build 0)  -->
<svg xmlns="http://www.w3.org/2000/svg" xmlns:xlink="http://www.w3.org/1999/xlink" version="1.1" id="Capa_1" x="0px" y="0px" viewBox="0 0 512 512" style="enable-background:new 0 0 512 512;" xml:space="preserve">
<circle style="fill:#35CCFF;" cx="256" cy="256" r="256"/>
<path style="fill:#00BAFF;" d="M512,256c0-6.53-0.248-13.003-0.728-19.411L396.682,122l-6.686,4.003l-29.67-29.67L160.333,256  l-56.015,23.25l-12.26,36.417l14.676,66l129.588,129.588C242.817,511.749,249.379,512,256,512C397.385,512,512,397.385,512,256z"/>
<polygon style="fill:#FFDC00;" points="364.605,318 147.395,318 115.318,122 396.682,122 "/>
<polygon style="fill:#FFC000;" points="396.682,122 256,122 256,318 364.605,318 "/>
<rect x="213.5" y="165.5" style="fill:#FF9451;" width="85" height="152.5"/>
<rect x="256" y="165.5" style="fill:#F7674F;" width="42.5" height="152.5"/>
<rect x="149.01" y="165.97" style="fill:#FF9451;" width="44.5" height="73.5"/>
<rect x="318.49" y="165.5" style="fill:#F7674F;" width="44.5" height="73.5"/>
<path style="fill:#AE4E32;" d="M158.059,249.667c-41.906,0-76,34.093-76,76s34.094,76,76,76s76-34.093,76-76  S199.965,249.667,158.059,249.667z M168.059,270.579c8.008,1.45,15.427,4.603,21.868,9.077l-21.868,21.868V270.579z   M148.059,301.524l-21.868-21.868c6.441-4.475,13.86-7.627,21.868-9.077V301.524z M133.916,315.667H102.97  c1.45-8.008,4.603-15.427,9.077-21.868L133.916,315.667z M133.916,335.667l-21.868,21.868c-4.475-6.441-7.627-13.86-9.077-21.868  H133.916z M148.059,349.809v30.945c-8.008-1.45-15.427-4.603-21.868-9.077L148.059,349.809z M168.059,349.809l21.868,21.868  c-6.441,4.475-13.86,7.627-21.868,9.077V349.809z M182.201,335.667h30.946c-1.45,8.008-4.603,15.427-9.077,21.868L182.201,335.667z   M182.201,315.667l21.868-21.868c4.475,6.441,7.627,13.86,9.077,21.868H182.201z"/>
<path style="fill:#FF6838;" d="M158.059,354c-15.623,0-28.333-12.71-28.333-28.333s12.71-28.333,28.333-28.333  s28.333,12.71,28.333,28.333S173.682,354,158.059,354z M158.059,317.333c-4.595,0-8.333,3.738-8.333,8.333s3.738,8.333,8.333,8.333  s8.333-3.738,8.333-8.333C166.392,321.072,162.653,317.333,158.059,317.333z"/>
<path style="fill:#82301D;" d="M353.941,249.667c-41.906,0-76,34.093-76,76s34.094,76,76,76s76-34.093,76-76  S395.848,249.667,353.941,249.667z M363.941,270.579c8.008,1.45,15.427,4.603,21.868,9.077l-21.868,21.868V270.579z   M343.941,301.524l-21.868-21.868c6.441-4.475,13.86-7.627,21.868-9.077V301.524z M329.799,315.667h-30.946  c1.45-8.008,4.602-15.427,9.077-21.868L329.799,315.667z M329.799,335.667l-21.868,21.868c-4.475-6.441-7.627-13.86-9.077-21.868  H329.799z M343.941,349.809v30.945c-8.008-1.45-15.427-4.603-21.868-9.077L343.941,349.809z M363.941,349.809l21.868,21.868  c-6.441,4.475-13.86,7.627-21.868,9.078V349.809z M378.084,335.667h30.945c-1.45,8.008-4.602,15.427-9.077,21.868L378.084,335.667z   M378.084,315.667l21.868-21.868c4.475,6.441,7.627,13.86,9.077,21.868H378.084z"/>
<path style="fill:#AE4E32;" d="M353.941,354c-15.623,0-28.333-12.71-28.333-28.333s12.71-28.333,28.333-28.333  s28.334,12.71,28.334,28.333S369.564,354,353.941,354z M353.941,317.333c-4.595,0-8.333,3.738-8.333,8.333s3.738,8.333,8.333,8.333  c4.596,0,8.334-3.738,8.334-8.333C362.275,321.072,358.537,317.333,353.941,317.333z"/>
<rect x="151.67" y="96.33" style="fill:#F1333F;" width="208.65" height="25.667"/>
<rect x="256" y="96.33" style="fill:#AE283F;" width="104.33" height="25.667"/>
<g>
</g>
<g>
</g>
<g>
</g>
<g>
</g>
<g>
</g>
<g>
</g>
<g>
</g>
<g>
</g>
<g>
</g>
<g>
</g>
<g>
</g>
<g>
</g>
<g>
</g>
<g>
</g>
<g>
</g>
</svg>
