<?xml version="1.0" encoding="iso-8859-1"?>
<!-- Generator: Adobe Illustrator 19.0.0, SVG Export Plug-In . SVG Version: 6.00 Build 0)  -->
<svg xmlns="http://www.w3.org/2000/svg" xmlns:xlink="http://www.w3.org/1999/xlink" version="1.1" id="Capa_1" x="0px" y="0px" viewBox="0 0 512 512" style="enable-background:new 0 0 512 512;" xml:space="preserve">
<circle style="fill:#B9EAFF;" cx="256" cy="256" r="256"/>
<path style="fill:#35CCFF;" d="M369.5,201.167L256,87.667l-23.91,126.91L133,115.486l-38,70.583l20.465,20.465L101,373.5  l137.919,137.919C244.567,511.792,250.259,512,256,512c141.385,0,256-114.615,256-256c0-2.556-0.048-5.1-0.123-7.637L379,115.486  L369.5,201.167z"/>
<rect x="198.32" y="156.5" style="fill:#FF6838;" width="115.37" height="188.5"/>
<g>
	<rect x="256" y="156.5" style="fill:#AE4E32;" width="57.684" height="188.5"/>
	<polygon style="fill:#AE4E32;" points="256,87.667 324.5,158.25 187.5,158.25  "/>
</g>
<polygon style="fill:#7F301D;" points="256,87.667 256,158.25 324.5,158.25 "/>
<rect x="101" y="185" style="fill:#FF6838;" width="64" height="188.5"/>
<g>
	<polygon style="fill:#AE4E32;" points="133,115.486 171,186.069 95,186.069  "/>
	<rect x="347" y="185" style="fill:#AE4E32;" width="64" height="188.5"/>
</g>
<polygon style="fill:#7F301D;" points="379,115.486 417,186.069 341,186.069 "/>
<rect x="140.5" y="224.5" style="fill:#AE4E32;" width="231" height="149"/>
<rect x="256" y="224.5" style="fill:#7F301D;" width="115.5" height="149"/>
<path style="fill:#93331D;" d="M304.833,373.5h-97.667v-54c0-26.97,21.863-48.833,48.833-48.833l0,0  c26.97,0,48.833,21.863,48.833,48.833L304.833,373.5L304.833,373.5z"/>
<path style="fill:#63190D;" d="M304.833,319.5c0-26.97-21.863-48.833-48.833-48.833l0,0V373.5h48.833V319.5z"/>
<g>
</g>
<g>
</g>
<g>
</g>
<g>
</g>
<g>
</g>
<g>
</g>
<g>
</g>
<g>
</g>
<g>
</g>
<g>
</g>
<g>
</g>
<g>
</g>
<g>
</g>
<g>
</g>
<g>
</g>
</svg>
