<svg xmlns="http://www.w3.org/2000/svg" height="512pt" version="1.1" viewBox="0 0 512 512" width="512pt">
<g id="surface1">
<path d="M 512 256 C 512 397.386719 397.386719 512 256 512 C 114.613281 512 0 397.386719 0 256 C 0 114.613281 114.613281 0 256 0 C 397.386719 0 512 114.613281 512 256 Z M 512 256 " style=" stroke:none;fill-rule:nonzero;fill:rgb(0%,92.941176%,100%);fill-opacity:1;" />
<path d="M 512 256 C 512 244.65625 511.253906 233.492188 509.824219 222.539062 L 400.488281 113.203125 L 111.511719 402.183594 L 218.601562 509.273438 C 230.8125 511.058594 243.296875 512 256 512 C 397.386719 512 512 397.386719 512 256 Z M 512 256 " style=" stroke:none;fill-rule:nonzero;fill:rgb(2.745098%,74.509804%,90.980392%);fill-opacity:1;" />
<path d="M 174.234375 370.355469 L 250.308594 306.882812 L 208.226562 264.800781 L 145.582031 339.878906 C 133.6875 337.289062 120.761719 340.605469 111.511719 349.855469 C 97.0625 364.304688 97.0625 387.730469 111.511719 402.183594 C 125.960938 416.632812 149.386719 416.632812 163.839844 402.183594 C 172.507812 393.511719 175.96875 381.609375 174.234375 370.355469 Z M 174.234375 370.355469 " style=" stroke:none;fill-rule:nonzero;fill:rgb(67.058824%,35.294118%,11.372549%);fill-opacity:1;" />
<path d="M 228.941406 285.515625 L 111.902344 402.554688 C 126.378906 416.621094 149.515625 416.503906 163.835938 402.183594 C 172.507812 393.511719 175.96875 381.609375 174.234375 370.355469 L 250.308594 306.882812 Z M 228.941406 285.515625 " style=" stroke:none;fill-rule:nonzero;fill:rgb(54.117647%,27.843137%,6.666667%);fill-opacity:1;" />
<path d="M 244.371094 355.933594 L 157.761719 269.320312 L 219.53125 207.550781 C 268.765625 158.3125 331.933594 125.382812 400.488281 113.203125 C 388.3125 181.761719 355.378906 244.925781 306.144531 294.160156 Z M 244.371094 355.933594 " style=" stroke:none;fill-rule:nonzero;fill:rgb(38.823529%,41.176471%,47.058824%);fill-opacity:1;" />
<path d="M 201.445312 313.007812 L 244.371094 355.933594 L 306.144531 294.160156 C 355.15625 245.152344 388.179688 181.398438 400.488281 113.203125 Z M 201.445312 313.007812 " style=" stroke:none;fill-rule:nonzero;fill:rgb(33.333333%,35.294118%,40%);fill-opacity:1;" />
</g>
</svg>