<?xml version="1.0" encoding="iso-8859-1"?>
<!-- Generator: Adobe Illustrator 19.0.0, SVG Export Plug-In . SVG Version: 6.00 Build 0)  -->
<svg xmlns="http://www.w3.org/2000/svg" xmlns:xlink="http://www.w3.org/1999/xlink" version="1.1" id="Capa_1" x="0px" y="0px" viewBox="0 0 512 512" style="enable-background:new 0 0 512 512;" xml:space="preserve">
<circle style="fill:#FFDC00;" cx="256" cy="256" r="256"/>
<path style="fill:#FFC000;" d="M65,293.377l217.288,217.288c123.837-12.632,221.535-113.536,229.207-238.776L337.174,97.567  l-54.066-10.023l23.674,23.674L137,243L65,293.377z"/>
<rect x="65" y="218.62" style="fill:#FFFFFF;" width="316" height="74.75"/>
<rect x="65" y="256" style="fill:#E0E0E0;" width="316" height="37.38"/>
<polygon style="fill:#FF6838;" points="314.518,418.142 98.602,258.92 314.386,93.957 325.925,109.051 130.244,258.646   325.794,402.85 "/>
<polygon style="fill:#AE4E32;" points="133.706,256 102.422,256 98.602,258.92 314.518,418.142 325.794,402.85 130.244,258.646 "/>
<rect x="84" y="243" style="fill:#C69C6D;" width="337" height="26"/>
<rect x="84" y="256" style="fill:#A67C52;" width="337" height="13"/>
<path style="fill:#8C6239;" d="M295.637,447.238l-12.529-22.782c51.269-28.195,77.265-84.872,77.265-168.456  s-25.996-140.26-77.265-168.456l12.529-22.782c60.208,33.111,90.735,97.453,90.735,191.238S355.845,414.126,295.637,447.238z"/>
<path style="fill:#754C24;" d="M283.108,424.456l12.529,22.782c60.208-33.111,90.735-97.453,90.735-191.238h-26  C360.373,339.583,334.377,396.26,283.108,424.456z"/>
<polygon style="fill:#FF6838;" points="397.75,220.5 455.75,256 397.75,291.5 "/>
<polygon style="fill:#AE4E32;" points="455.75,256 397.75,256 397.75,291.5 "/>
<g>
</g>
<g>
</g>
<g>
</g>
<g>
</g>
<g>
</g>
<g>
</g>
<g>
</g>
<g>
</g>
<g>
</g>
<g>
</g>
<g>
</g>
<g>
</g>
<g>
</g>
<g>
</g>
<g>
</g>
</svg>
