<svg xmlns="http://www.w3.org/2000/svg" height="512pt" version="1.1" viewBox="0 0 512 512" width="512pt">
<g id="surface1">
<path d="M 512 256 C 512 397.386719 397.386719 512 256 512 C 114.613281 512 0 397.386719 0 256 C 0 114.613281 114.613281 0 256 0 C 397.386719 0 512 114.613281 512 256 Z M 512 256 " style=" stroke:none;fill-rule:nonzero;fill:rgb(100%,80.784314%,0%);fill-opacity:1;" />
<path d="M 512 256 C 512 247.070312 511.539062 238.246094 510.648438 229.550781 L 433.488281 152.394531 L 385.765625 213.113281 L 290.222656 117.574219 L 279.101562 145.277344 L 244.871094 111.046875 L 244.871094 191.394531 L 86.332031 199.882812 L 262.261719 375.808594 L 98 391.667969 L 215.058594 508.726562 C 228.390625 510.871094 242.0625 512 256 512 C 397.386719 512 512 397.386719 512 256 Z M 512 256 " style=" stroke:none;fill-rule:nonzero;fill:rgb(100%,66.666667%,0%);fill-opacity:1;" />
<path d="M 441 176.882812 C 441 201 421.449219 220.550781 397.332031 220.550781 C 373.214844 220.550781 353.664062 201 353.664062 176.882812 C 353.664062 152.765625 373.214844 133.214844 397.332031 133.214844 C 421.449219 133.214844 441 152.765625 441 176.882812 Z M 441 176.882812 " style=" stroke:none;fill-rule:nonzero;fill:rgb(25.490196%,28.627451%,32.156863%);fill-opacity:1;" />
<path d="M 397.332031 133.214844 C 397.160156 133.214844 396.988281 133.226562 396.816406 133.230469 L 396.816406 220.535156 C 396.988281 220.539062 397.160156 220.550781 397.332031 220.550781 C 421.449219 220.550781 441 201 441 176.882812 C 441 152.765625 421.449219 133.214844 397.332031 133.214844 Z M 397.332031 133.214844 " style=" stroke:none;fill-rule:nonzero;fill:rgb(20%,22.352941%,25.098039%);fill-opacity:1;" />
<path d="M 86.332031 169.882812 L 86.332031 199.882812 L 347.132812 199.882812 C 350.945312 219.261719 368.023438 233.882812 388.523438 233.882812 L 404.8125 233.882812 C 428.109375 233.882812 447 214.992188 447 191.691406 L 447 169.882812 Z M 86.332031 169.882812 " style=" stroke:none;fill-rule:nonzero;fill:rgb(67.058824%,35.294118%,11.372549%);fill-opacity:1;" />
<path d="M 256.210938 169.882812 L 256.210938 199.882812 L 347.132812 199.882812 C 350.945312 219.261719 368.023438 233.882812 388.523438 233.882812 L 404.8125 233.882812 C 428.109375 233.882812 447 214.992188 447 191.691406 L 447 169.882812 Z M 256.210938 169.882812 " style=" stroke:none;fill-rule:nonzero;fill:rgb(54.117647%,27.843137%,6.666667%);fill-opacity:1;" />
<path d="M 221.769531 117.574219 L 244.867188 111.046875 L 321.542969 382.421875 L 298.449219 388.949219 Z M 221.769531 117.574219 " style=" stroke:none;fill-rule:nonzero;fill:rgb(67.058824%,35.294118%,11.372549%);fill-opacity:1;" />
<path d="M 321.554688 382.429688 L 256.210938 151.175781 L 256.210938 239.4375 L 298.460938 388.953125 Z M 321.554688 382.429688 " style=" stroke:none;fill-rule:nonzero;fill:rgb(54.117647%,27.843137%,6.666667%);fill-opacity:1;" />
<path d="M 213.542969 388.960938 L 190.449219 382.433594 L 267.125 111.058594 L 290.222656 117.585938 Z M 213.542969 388.960938 " style=" stroke:none;fill-rule:nonzero;fill:rgb(67.058824%,35.294118%,11.372549%);fill-opacity:1;" />
<path d="M 267.128906 111.046875 L 256.210938 149.675781 L 256.210938 237.9375 L 290.222656 117.574219 Z M 267.128906 111.046875 " style=" stroke:none;fill-rule:nonzero;fill:rgb(54.117647%,27.843137%,6.666667%);fill-opacity:1;" />
<path d="M 284.332031 188.882812 C 284.332031 204.53125 271.648438 217.214844 256 217.214844 C 240.351562 217.214844 227.667969 204.53125 227.667969 188.882812 C 227.667969 173.234375 240.351562 160.550781 256 160.550781 C 271.648438 160.550781 284.332031 173.234375 284.332031 188.882812 Z M 284.332031 188.882812 " style=" stroke:none;fill-rule:nonzero;fill:rgb(54.117647%,27.843137%,6.666667%);fill-opacity:1;" />
<path d="M 284.332031 188.882812 C 284.332031 173.304688 271.761719 160.667969 256.210938 160.554688 L 256.210938 217.210938 C 271.761719 217.097656 284.332031 204.460938 284.332031 188.882812 Z M 284.332031 188.882812 " style=" stroke:none;fill-rule:nonzero;fill:rgb(47.058824%,24.705882%,8.627451%);fill-opacity:1;" />
<path d="M 98 329.667969 L 414 329.667969 L 414 391.667969 L 98 391.667969 Z M 98 329.667969 " style=" stroke:none;fill-rule:nonzero;fill:rgb(54.117647%,27.843137%,6.666667%);fill-opacity:1;" />
<path d="M 256.210938 329.667969 L 414 329.667969 L 414 391.667969 L 256.210938 391.667969 Z M 256.210938 329.667969 " style=" stroke:none;fill-rule:nonzero;fill:rgb(47.058824%,24.705882%,8.627451%);fill-opacity:1;" />
</g>
</svg>