<svg xmlns="http://www.w3.org/2000/svg" height="512pt" version="1.1" viewBox="0 0 512 512" width="512pt">
<g id="surface1">
<path d="M 512 256 C 512 397.386719 397.386719 512 256 512 C 114.613281 512 0 397.386719 0 256 C 0 114.613281 114.613281 0 256 0 C 397.386719 0 512 114.613281 512 256 Z M 512 256 " style=" stroke:none;fill-rule:nonzero;fill:rgb(97.647059%,15.686275%,7.843137%);fill-opacity:1;" />
<path d="M 507.457031 304.152344 L 268.929688 65.621094 L 224.199219 154.042969 L 261.875 191.71875 L 253.632812 339.113281 L 157.335938 415.964844 L 253.335938 511.964844 C 254.222656 511.972656 255.109375 512 256 512 C 380.921875 512 484.929688 422.515625 507.457031 304.152344 Z M 507.457031 304.152344 " style=" stroke:none;fill-rule:nonzero;fill:rgb(85.882353%,1.568627%,1.568627%);fill-opacity:1;" />
<path d="M 202.003906 169.921875 L 309.996094 169.921875 L 309.996094 408.382812 L 202.003906 408.382812 Z M 202.003906 169.921875 " style=" stroke:none;fill-rule:nonzero;fill:rgb(100%,100%,100%);fill-opacity:1;" />
<path d="M 255.605469 169.921875 L 309.996094 169.921875 L 309.996094 408.382812 L 255.605469 408.382812 Z M 255.605469 169.921875 " style=" stroke:none;fill-rule:nonzero;fill:rgb(94.901961%,96.470588%,98.823529%);fill-opacity:1;" />
<path d="M 301.546875 439.847656 L 210.453125 439.847656 C 171.226562 439.847656 139.425781 408.046875 139.425781 368.820312 L 372.574219 368.820312 C 372.574219 408.046875 340.773438 439.847656 301.546875 439.847656 Z M 301.546875 439.847656 " style=" stroke:none;fill-rule:nonzero;fill:rgb(100%,80.784314%,0%);fill-opacity:1;" />
<path d="M 255.605469 368.820312 L 255.605469 439.847656 L 301.546875 439.847656 C 340.773438 439.847656 372.574219 408.046875 372.574219 368.820312 Z M 255.605469 368.820312 " style=" stroke:none;fill-rule:nonzero;fill:rgb(100%,66.666667%,0%);fill-opacity:1;" />
<path d="M 295.777344 130.144531 C 295.777344 152.113281 277.96875 169.921875 256 169.921875 C 234.03125 169.921875 216.222656 152.113281 216.222656 130.144531 C 216.222656 108.175781 234.03125 60.152344 256 60.152344 C 277.96875 60.152344 295.777344 108.175781 295.777344 130.144531 Z M 295.777344 130.144531 " style=" stroke:none;fill-rule:nonzero;fill:rgb(100%,80.784314%,0%);fill-opacity:1;" />
<path d="M 256 60.152344 C 255.867188 60.152344 255.738281 60.160156 255.605469 60.164062 L 255.605469 169.910156 C 255.738281 169.914062 255.867188 169.921875 256 169.921875 C 277.96875 169.921875 295.777344 152.113281 295.777344 130.144531 C 295.777344 108.175781 277.96875 60.152344 256 60.152344 Z M 256 60.152344 " style=" stroke:none;fill-rule:nonzero;fill:rgb(100%,66.666667%,0%);fill-opacity:1;" />
</g>
</svg>