<?xml version="1.0" encoding="iso-8859-1"?>
<!-- Generator: Adobe Illustrator 19.0.0, SVG Export Plug-In . SVG Version: 6.00 Build 0)  -->
<svg xmlns="http://www.w3.org/2000/svg" xmlns:xlink="http://www.w3.org/1999/xlink" version="1.1" id="Capa_1" x="0px" y="0px" viewBox="0 0 512 512" style="enable-background:new 0 0 512 512;" xml:space="preserve">
<circle style="fill:#662E57;" cx="256" cy="256" r="256"/>
<path style="fill:#590F38;" d="M290.086,509.736c106.836-14.216,192.837-94.314,215.836-198.116L255.702,61.4l-0.178,272.306  L210.403,362.7l43.822,43.822l-25.941,41.412L290.086,509.736z"/>
<polygon style="fill:#FFFFFF;" points="279.269,375.217 299.179,155.242 255.702,61.399 212.821,155.242 232.731,375.217 "/>
<polygon style="fill:#E0E0E0;" points="299.179,155.242 255.748,61.498 255.296,375.217 279.269,375.217 "/>
<rect x="228.28" y="347.2" style="fill:#FF9451;" width="55.43" height="100.73"/>
<polygon style="fill:#F7674F;" points="283.716,347.203 255.336,347.203 255.191,447.934 283.716,447.934 "/>
<rect x="210.4" y="331.7" style="fill:#FFDC00;" width="91.19" height="30.994"/>
<polygon style="fill:#FFC000;" points="301.597,331.705 255.359,331.705 255.314,362.7 301.597,362.7 "/>
<g>
</g>
<g>
</g>
<g>
</g>
<g>
</g>
<g>
</g>
<g>
</g>
<g>
</g>
<g>
</g>
<g>
</g>
<g>
</g>
<g>
</g>
<g>
</g>
<g>
</g>
<g>
</g>
<g>
</g>
</svg>
