<?xml version="1.0" encoding="iso-8859-1"?>
<!-- Generator: Adobe Illustrator 19.0.0, SVG Export Plug-In . SVG Version: 6.00 Build 0)  -->
<svg xmlns="http://www.w3.org/2000/svg" xmlns:xlink="http://www.w3.org/1999/xlink" version="1.1" id="Capa_1" x="0px" y="0px" viewBox="0 0 512 512" style="enable-background:new 0 0 512 512;" xml:space="preserve">
<circle style="fill:#008CC3;" cx="256" cy="256" r="256"/>
<path style="fill:#0074A3;" d="M266.438,511.771C402.981,506.292,512,393.887,512,256c0-4.837-0.147-9.64-0.412-14.412  L360.333,90.333L187.372,282.581l90.205,90.205L193.667,439L266.438,511.771z"/>
<rect x="233.67" y="274.33" style="fill:#FFB344;" width="44.667" height="164.67"/>
<rect x="256" y="274.33" style="fill:#FF9451;" width="22.333" height="164.67"/>
<rect x="193.67" y="403" style="fill:#FFDC00;" width="124.67" height="36"/>
<rect x="256" y="403" style="fill:#FFC000;" width="62.33" height="36"/>
<path style="fill:#FFDC00;" d="M256,308.333L256,308.333c-57.622,0-104.333-46.712-104.333-104.333V90.333h208.667V204  C360.333,261.622,313.622,308.333,256,308.333z"/>
<path style="fill:#FFC000;" d="M256,90.333v218l0,0c57.622,0,104.333-46.711,104.333-104.333V90.333H256z"/>
<rect x="151.67" y="90.33" style="fill:#FFB344;" width="208.67" height="50.667"/>
<rect x="256" y="90.33" style="fill:#FF9451;" width="104.33" height="50.667"/>
<g>
	<circle style="fill:#F1333F;" cx="184.33" cy="115.67" r="14.333"/>
	<circle style="fill:#F1333F;" cx="256" cy="115.67" r="14.333"/>
</g>
<g>
	<path style="fill:#AE283F;" d="M256,101.333V130c7.916,0,14.333-6.417,14.333-14.333C270.333,107.75,263.916,101.333,256,101.333z"/>
	<circle style="fill:#AE283F;" cx="327.67" cy="115.67" r="14.333"/>
</g>
<g>
</g>
<g>
</g>
<g>
</g>
<g>
</g>
<g>
</g>
<g>
</g>
<g>
</g>
<g>
</g>
<g>
</g>
<g>
</g>
<g>
</g>
<g>
</g>
<g>
</g>
<g>
</g>
<g>
</g>
</svg>
