<svg xmlns="http://www.w3.org/2000/svg" height="512pt" version="1.1" viewBox="0 0 512 512" width="512pt">
<g id="surface1">
<path d="M 512 256 C 512 397.386719 397.386719 512 256 512 C 114.613281 512 0 397.386719 0 256 C 0 114.613281 114.613281 0 256 0 C 397.386719 0 512 114.613281 512 256 Z M 512 256 " style=" stroke:none;fill-rule:nonzero;fill:rgb(0%,92.941176%,100%);fill-opacity:1;" />
<path d="M 512 256 C 512 246.042969 511.410156 236.222656 510.304688 226.558594 L 384.5 100.753906 L 105.5 411.246094 L 200.121094 505.863281 C 218.109375 509.871094 236.804688 512 256 512 C 397.386719 512 512 397.386719 512 256 Z M 512 256 " style=" stroke:none;fill-rule:nonzero;fill:rgb(2.745098%,74.509804%,90.980392%);fill-opacity:1;" />
<path d="M 127.5 100.753906 L 384.5 100.753906 L 384.5 411.246094 L 127.5 411.246094 Z M 127.5 100.753906 " style=" stroke:none;fill-rule:nonzero;fill:rgb(78.039216%,45.098039%,18.039216%);fill-opacity:1;" />
<path d="M 127.5 255.816406 L 384.5 255.816406 L 384.5 411.246094 L 127.5 411.246094 Z M 127.5 255.816406 " style=" stroke:none;fill-rule:nonzero;fill:rgb(73.72549%,40.784314%,16.078431%);fill-opacity:1;" />
<path d="M 105.5 100.753906 L 143 100.753906 L 143 411.246094 L 105.5 411.246094 Z M 105.5 100.753906 " style=" stroke:none;fill-rule:nonzero;fill:rgb(67.058824%,35.294118%,11.372549%);fill-opacity:1;" />
<path d="M 105.5 255.816406 L 143 255.816406 L 143 411.246094 L 105.5 411.246094 Z M 105.5 255.816406 " style=" stroke:none;fill-rule:nonzero;fill:rgb(54.117647%,27.843137%,6.666667%);fill-opacity:1;" />
<path d="M 347.5 323.832031 L 347.5 188.332031 C 320.070312 188.332031 297.832031 166.097656 297.832031 138.664062 C 297.832031 138.609375 297.835938 138.554688 297.835938 138.5 L 214.160156 138.5 C 214.160156 138.554688 214.164062 138.609375 214.164062 138.664062 C 214.164062 166.097656 191.929688 188.332031 164.5 188.332031 L 164.5 323.832031 C 191.929688 323.832031 214.164062 346.070312 214.164062 373.5 L 297.832031 373.5 C 297.832031 346.070312 320.070312 323.832031 347.5 323.832031 Z M 347.5 323.832031 " style=" stroke:none;fill-rule:nonzero;fill:rgb(100%,80.784314%,0%);fill-opacity:1;" />
<path d="M 164.5 255.816406 L 164.5 323.832031 C 191.929688 323.832031 214.167969 346.070312 214.167969 373.5 L 297.835938 373.5 C 297.835938 346.070312 320.070312 323.832031 347.5 323.832031 L 347.5 255.816406 Z M 164.5 255.816406 " style=" stroke:none;fill-rule:nonzero;fill:rgb(100%,66.666667%,0%);fill-opacity:1;" />
</g>
</svg>