<svg xmlns="http://www.w3.org/2000/svg" height="512pt" version="1.1" viewBox="0 0 512 512" width="512pt">
<g id="surface1">
<path d="M 512 256 C 512 397.386719 397.386719 512 256 512 C 114.613281 512 0 397.386719 0 256 C 0 114.613281 114.613281 0 256 0 C 397.386719 0 512 114.613281 512 256 Z M 512 256 " style=" stroke:none;fill-rule:nonzero;fill:rgb(0%,92.941176%,100%);fill-opacity:1;" />
<path d="M 511.9375 261.007812 L 449.992188 199.0625 L 442.523438 204.472656 L 352.980469 114.929688 L 99.128906 368.78125 L 241.957031 511.613281 C 246.609375 511.863281 251.285156 512 256 512 C 395.710938 512 509.265625 400.078125 511.9375 261.007812 Z M 511.9375 261.007812 " style=" stroke:none;fill-rule:nonzero;fill:rgb(2.745098%,74.509804%,90.980392%);fill-opacity:1;" />
<path d="M 218.613281 135.886719 C 268.09375 185.371094 296.289062 254.578125 340.433594 308.625 C 382.566406 278.003906 419.375 241.195312 449.992188 199.0625 C 395.949219 154.921875 326.738281 126.726562 277.257812 77.242188 C 250.640625 103.859375 245.230469 109.269531 218.613281 135.886719 Z M 218.613281 135.886719 " style=" stroke:none;fill-rule:nonzero;fill:rgb(38.823529%,41.176471%,47.058824%);fill-opacity:1;" />
<path d="M 277.257812 77.242188 C 264.347656 90.152344 256.429688 98.070312 248.660156 105.839844 L 400.246094 257.429688 C 418.265625 239.339844 434.886719 219.851562 449.992188 199.0625 C 395.949219 154.921875 326.742188 126.726562 277.257812 77.242188 Z M 277.257812 77.242188 " style=" stroke:none;fill-rule:nonzero;fill:rgb(33.333333%,35.294118%,40%);fill-opacity:1;" />
<path d="M 99.128906 368.785156 L 62.007812 331.660156 L 315.855469 77.8125 L 352.980469 114.933594 Z M 99.128906 368.785156 " style=" stroke:none;fill-rule:nonzero;fill:rgb(67.058824%,35.294118%,11.372549%);fill-opacity:1;" />
<path d="M 79.367188 349.023438 L 333.21875 95.175781 L 352.976562 114.933594 L 99.125 368.78125 Z M 79.367188 349.023438 " style=" stroke:none;fill-rule:nonzero;fill:rgb(54.117647%,27.843137%,6.666667%);fill-opacity:1;" />
</g>
</svg>