<?xml version="1.0" encoding="iso-8859-1"?>
<!-- Generator: Adobe Illustrator 19.0.0, SVG Export Plug-In . SVG Version: 6.00 Build 0)  -->
<svg xmlns="http://www.w3.org/2000/svg" xmlns:xlink="http://www.w3.org/1999/xlink" version="1.1" id="Capa_1" x="0px" y="0px" viewBox="0 0 512 512" style="enable-background:new 0 0 512 512;" xml:space="preserve">
<circle style="fill:#FFDC00;" cx="256" cy="256" r="256"/>
<path style="fill:#FFC000;" d="M511.905,262.905L335,86l-10.903,49.934L274.163,86l-10.654,50.182L213.326,86l-27.151,165.676  L123.5,189L77,335l176.974,176.974C254.65,511.979,255.323,512,256,512C395.076,512,508.245,401.097,511.905,262.905z"/>
<polygon style="fill:#175D76;" points="335,232 335,86 298.674,86 298.674,113.5 274.163,113.5 274.163,86 237.837,86   237.837,113.5 213.326,113.5 213.326,86 177,86 177,232 "/>
<polygon style="fill:#00263F;" points="335,86 298.674,86 298.674,113.5 274.163,113.5 274.163,86 256,86 256,232 335,232 "/>
<polygon style="fill:#758F9A;" points="388.5,189 388.5,216.5 357.125,216.5 357.125,189 310.625,189 310.625,216.5 279.25,216.5   279.25,189 232.75,189 232.75,216.5 201.375,216.5 201.375,189 154.875,189 154.875,216.5 123.5,216.5 123.5,189 77,189 77,335   435,335 435,189 "/>
<polygon style="fill:#4B7689;" points="435,189 388.5,189 388.5,216.5 357.125,216.5 357.125,189 310.625,189 310.625,216.5   279.25,216.5 279.25,189 256,189 256,335 435,335 "/>
<path style="fill:#175D76;" d="M304,335h-96v-42.5c0-26.51,21.49-48,48-48l0,0c26.51,0,48,21.49,48,48V335z"/>
<path style="fill:#00263F;" d="M304,292.5c0-26.51-21.49-48-48-48l0,0V335h48V292.5z"/>
<g>
</g>
<g>
</g>
<g>
</g>
<g>
</g>
<g>
</g>
<g>
</g>
<g>
</g>
<g>
</g>
<g>
</g>
<g>
</g>
<g>
</g>
<g>
</g>
<g>
</g>
<g>
</g>
<g>
</g>
</svg>
