<?xml version="1.0" encoding="iso-8859-1"?>
<!-- Generator: Adobe Illustrator 19.0.0, SVG Export Plug-In . SVG Version: 6.00 Build 0)  -->
<svg xmlns="http://www.w3.org/2000/svg" xmlns:xlink="http://www.w3.org/1999/xlink" version="1.1" id="Capa_1" x="0px" y="0px" viewBox="0 0 512 512" style="enable-background:new 0 0 512 512;" xml:space="preserve">
<circle style="fill:#005C83;" cx="256" cy="256" r="256"/>
<path style="fill:#00263F;" d="M512,256c0-7.27-0.32-14.464-0.914-21.581L381.667,105l-263.5,43.333l14.49,14.49l-2.323-0.49  l144.284,144.284l-156.451,84.716l13.109,13.109L130.333,405l106.273,106.273C243.008,511.752,249.475,512,256,512  C397.385,512,512,397.385,512,256z"/>
<rect x="144.33" y="135.33" style="fill:#FFFFFF;" width="223.33" height="241.33"/>
<rect x="256" y="135.33" style="fill:#E0E0E0;" width="111.67" height="241.33"/>
<rect x="118.17" y="119" style="fill:#C69C6D;" width="275.67" height="29.333"/>
<rect x="256" y="119" style="fill:#A67C52;" width="137.83" height="29.333"/>
<rect x="118.17" y="362" style="fill:#C69C6D;" width="275.67" height="29.333"/>
<rect x="256" y="362" style="fill:#A67C52;" width="137.83" height="29.333"/>
<rect x="130.33" y="105" style="fill:#E0E0E0;" width="251.33" height="57.33"/>
<rect x="256" y="105" style="fill:#C0C0C0;" width="125.67" height="57.33"/>
<rect x="130.33" y="347.67" style="fill:#E0E0E0;" width="251.33" height="57.33"/>
<rect x="256" y="347.67" style="fill:#C0C0C0;" width="125.67" height="57.33"/>
<rect x="171.92" y="185.9" style="fill:#F1333F;" width="42.15" height="20"/>
<rect x="233" y="185.9" style="fill:#808080;" width="107.08" height="20"/>
<rect x="256" y="185.9" style="fill:#666666;" width="84.08" height="20"/>
<rect x="297.92" y="224.4" style="fill:#AE283F;" width="42.15" height="20"/>
<rect x="171.92" y="224.4" style="fill:#808080;" width="107.08" height="20"/>
<rect x="256" y="224.4" style="fill:#666666;" width="23" height="20"/>
<rect x="171.92" y="267.6" style="fill:#F1333F;" width="42.15" height="20"/>
<rect x="233" y="267.6" style="fill:#808080;" width="107.08" height="20"/>
<rect x="256" y="267.6" style="fill:#666666;" width="84.08" height="20"/>
<rect x="297.92" y="306.1" style="fill:#AE283F;" width="42.15" height="20"/>
<rect x="171.92" y="306.1" style="fill:#808080;" width="107.08" height="20"/>
<rect x="256" y="306.1" style="fill:#666666;" width="23" height="20"/>
<g>
</g>
<g>
</g>
<g>
</g>
<g>
</g>
<g>
</g>
<g>
</g>
<g>
</g>
<g>
</g>
<g>
</g>
<g>
</g>
<g>
</g>
<g>
</g>
<g>
</g>
<g>
</g>
<g>
</g>
</svg>
