<svg xmlns="http://www.w3.org/2000/svg" height="512pt" version="1.1" viewBox="0 0 512 512" width="512pt">
<g id="surface1">
<path d="M 512 256 C 512 397.386719 397.386719 512 256 512 C 114.613281 512 0 397.386719 0 256 C 0 114.613281 114.613281 0 256 0 C 397.386719 0 512 114.613281 512 256 Z M 512 256 " style=" stroke:none;fill-rule:nonzero;fill:rgb(25.490196%,28.627451%,32.156863%);fill-opacity:1;" />
<path d="M 168.625 420.515625 L 260.0625 511.949219 C 398.21875 509.796875 509.796875 398.21875 511.949219 260.0625 L 343.375 91.484375 Z M 168.625 420.515625 " style=" stroke:none;fill-rule:nonzero;fill:rgb(20%,22.352941%,25.098039%);fill-opacity:1;" />
<path d="M 343.375 91.484375 L 303.230469 60 L 208.769531 60 L 168.625 91.484375 L 137.140625 137.929688 L 137.140625 374.070312 L 168.625 420.515625 L 208.769531 452 L 303.230469 452 L 343.375 420.515625 L 374.859375 374.070312 L 374.859375 137.929688 Z M 343.375 91.484375 " style=" stroke:none;fill-rule:nonzero;fill:rgb(0%,87.843137%,39.607843%);fill-opacity:1;" />
<path d="M 208.769531 60 L 168.628906 91.484375 L 137.140625 137.929688 L 208.769531 137.929688 Z M 208.769531 60 " style=" stroke:none;fill-rule:nonzero;fill:rgb(0%,87.843137%,39.607843%);fill-opacity:1;" />
<path d="M 374.859375 137.929688 L 343.375 91.484375 L 303.230469 60 L 303.230469 137.929688 Z M 374.859375 137.929688 " style=" stroke:none;fill-rule:nonzero;fill:rgb(0%,75.686275%,36.078431%);fill-opacity:1;" />
<path d="M 137.140625 374.070312 L 168.628906 420.515625 L 208.769531 452 L 208.769531 374.070312 Z M 137.140625 374.070312 " style=" stroke:none;fill-rule:nonzero;fill:rgb(0%,87.843137%,39.607843%);fill-opacity:1;" />
<path d="M 303.230469 452 L 343.375 420.515625 L 374.859375 374.070312 L 303.230469 374.070312 Z M 303.230469 452 " style=" stroke:none;fill-rule:nonzero;fill:rgb(0%,75.686275%,36.078431%);fill-opacity:1;" />
<path d="M 137.140625 137.929688 L 208.773438 137.929688 L 208.773438 374.074219 L 137.140625 374.074219 Z M 137.140625 137.929688 " style=" stroke:none;fill-rule:nonzero;fill:rgb(0%,75.686275%,36.078431%);fill-opacity:1;" />
<path d="M 303.230469 137.929688 L 374.859375 137.929688 L 374.859375 374.074219 L 303.230469 374.074219 Z M 303.230469 137.929688 " style=" stroke:none;fill-rule:nonzero;fill:rgb(3.921569%,62.745098%,30.588235%);fill-opacity:1;" />
<path d="M 208.769531 60 L 303.230469 60 L 303.230469 137.929688 L 208.769531 137.929688 Z M 208.769531 60 " style=" stroke:none;fill-rule:nonzero;fill:rgb(0%,75.686275%,36.078431%);fill-opacity:1;" />
<path d="M 255.605469 60 L 303.230469 60 L 303.230469 137.929688 L 255.605469 137.929688 Z M 255.605469 60 " style=" stroke:none;fill-rule:nonzero;fill:rgb(3.921569%,62.745098%,30.588235%);fill-opacity:1;" />
<path d="M 208.769531 374.070312 L 303.230469 374.070312 L 303.230469 452 L 208.769531 452 Z M 208.769531 374.070312 " style=" stroke:none;fill-rule:nonzero;fill:rgb(0%,75.686275%,36.078431%);fill-opacity:1;" />
<path d="M 255.605469 374.070312 L 303.230469 374.070312 L 303.230469 452 L 255.605469 452 Z M 255.605469 374.070312 " style=" stroke:none;fill-rule:nonzero;fill:rgb(3.921569%,62.745098%,30.588235%);fill-opacity:1;" />
<path d="M 208.769531 137.929688 L 303.230469 137.929688 L 303.230469 374.074219 L 208.769531 374.074219 Z M 208.769531 137.929688 " style=" stroke:none;fill-rule:nonzero;fill:rgb(0%,87.843137%,39.607843%);fill-opacity:1;" />
<path d="M 255.605469 137.929688 L 303.230469 137.929688 L 303.230469 374.074219 L 255.605469 374.074219 Z M 255.605469 137.929688 " style=" stroke:none;fill-rule:nonzero;fill:rgb(0%,75.686275%,36.078431%);fill-opacity:1;" />
</g>
</svg>