<?xml version="1.0" encoding="iso-8859-1"?>
<!-- Generator: Adobe Illustrator 19.0.0, SVG Export Plug-In . SVG Version: 6.00 Build 0)  -->
<svg xmlns="http://www.w3.org/2000/svg" xmlns:xlink="http://www.w3.org/1999/xlink" version="1.1" id="Capa_1" x="0px" y="0px" viewBox="0 0 512 512" style="enable-background:new 0 0 512 512;" xml:space="preserve">
<circle style="fill:#0074A3;" cx="256" cy="256" r="256"/>
<path style="fill:#005C83;" d="M269.733,511.631c130.831-6.916,235.611-112.057,241.956-243.039L320.096,77L191.904,205.417  l108.831,108.832L147,343.75l58.338,58.338l-26.413,18.737L269.733,511.631z"/>
<polygon style="fill:#B9EAFF;" points="320.096,205.418 256,234.457 191.904,205.418 191.904,77 320.096,77 "/>
<polygon style="fill:#35CCFF;" points="256,77 256,234.457 320.096,205.417 320.096,77 "/>
<path style="fill:#FFDC00;" d="M178.926,420.824c10.361-21.271,16.536-48.015,16.536-77.075s-6.175-55.803-16.536-77.074  c21.271,10.361,48.014,16.536,77.075,16.536c29.06,0,55.803-6.175,77.074-16.536c-10.361,21.271-16.536,48.014-16.536,77.075  c0,29.06,6.175,55.803,16.536,77.075c-21.271-10.361-48.014-16.536-77.075-16.536C226.94,404.289,200.196,410.464,178.926,420.824z"/>
<g>
	<path style="fill:#FFC000;" d="M316.539,343.75c0-29.06,6.175-55.803,16.536-77.075c-21.271,10.361-48.014,16.536-77.074,16.536   l0,0v121.078c29.06,0,55.804,6.175,77.074,16.536C322.714,399.553,316.539,372.81,316.539,343.75z"/>
	<path style="fill:#FFC000;" d="M147,343.75c22.367-7.715,45.644-22.259,66.193-42.808c20.548-20.548,35.092-43.825,42.807-66.192   c7.715,22.367,22.259,45.644,42.808,66.193c20.548,20.548,43.825,35.093,66.192,42.807c-22.367,7.715-45.644,22.259-66.193,42.807   S263.715,430.383,256,452.75c-7.714-22.367-22.259-45.644-42.808-66.193C192.644,366.009,169.367,351.464,147,343.75z"/>
</g>
<path style="fill:#D8A209;" d="M365,343.75c-22.367-7.715-45.644-22.259-66.192-42.808c-20.549-20.549-35.093-43.825-42.808-66.192  l0,0v217.999c7.715-22.367,22.259-45.643,42.807-66.192C319.356,366.009,342.633,351.465,365,343.75z"/>
<circle style="fill:#FF6838;" cx="256" cy="234.75" r="25.349"/>
<path style="fill:#AE4E32;" d="M256,209.401L256,209.401v50.698l0,0c14,0,25.349-11.349,25.349-25.349S270,209.401,256,209.401z"/>
<circle style="fill:#F7674F;" cx="256" cy="343.75" r="27.75"/>
<path style="fill:#C44E3D;" d="M256,316v55.5c15.326,0,27.75-12.424,27.75-27.75S271.326,316,256,316z"/>
<g>
</g>
<g>
</g>
<g>
</g>
<g>
</g>
<g>
</g>
<g>
</g>
<g>
</g>
<g>
</g>
<g>
</g>
<g>
</g>
<g>
</g>
<g>
</g>
<g>
</g>
<g>
</g>
<g>
</g>
</svg>
