<svg xmlns="http://www.w3.org/2000/svg" height="512pt" version="1.1" viewBox="0 0 512 512" width="512pt">
<g id="surface1">
<path d="M 512 256 C 512 397.386719 397.386719 512 256 512 C 114.613281 512 0 397.386719 0 256 C 0 114.613281 114.613281 0 256 0 C 397.386719 0 512 114.613281 512 256 Z M 512 256 " style=" stroke:none;fill-rule:nonzero;fill:rgb(25.490196%,28.627451%,32.156863%);fill-opacity:1;" />
<path d="M 511.628906 269.78125 L 418.035156 176.1875 L 408.382812 205.289062 L 296.363281 93.269531 L 277.117188 291.441406 L 167.777344 182.101562 L 77.96875 398.519531 L 179.972656 500.519531 C 203.992188 507.980469 229.527344 512 256 512 C 392.761719 512 504.46875 404.757812 511.628906 269.78125 Z M 511.628906 269.78125 " style=" stroke:none;fill-rule:nonzero;fill:rgb(20%,22.352941%,25.098039%);fill-opacity:1;" />
<path d="M 317.953125 392.019531 L 196.238281 392.019531 L 196.238281 171.730469 C 196.238281 133.957031 214.433594 98.496094 245.117188 76.46875 L 257.09375 67.871094 L 269.070312 76.46875 C 299.753906 98.496094 317.949219 133.957031 317.949219 171.730469 L 317.949219 392.019531 Z M 317.953125 392.019531 " style=" stroke:none;fill-rule:nonzero;fill:rgb(0%,92.941176%,100%);fill-opacity:1;" />
<path d="M 317.953125 171.730469 C 317.953125 133.957031 299.757812 98.496094 269.070312 76.46875 L 257.332031 68.042969 L 257.332031 392.015625 L 317.953125 392.015625 Z M 317.953125 171.730469 " style=" stroke:none;fill-rule:nonzero;fill:rgb(2.745098%,74.509804%,90.980392%);fill-opacity:1;" />
<path d="M 174.277344 392.019531 L 84.46875 392.019531 L 84.46875 229.476562 C 84.46875 201.605469 97.894531 175.441406 120.535156 159.1875 L 129.371094 152.84375 L 138.210938 159.1875 C 160.851562 175.441406 174.277344 201.605469 174.277344 229.476562 Z M 174.277344 392.019531 " style=" stroke:none;fill-rule:nonzero;fill:rgb(0%,92.941176%,100%);fill-opacity:1;" />
<path d="M 428.347656 392.019531 L 338.539062 392.019531 L 338.539062 229.476562 C 338.539062 201.605469 351.96875 175.441406 374.609375 159.1875 L 383.445312 152.84375 L 392.28125 159.1875 C 414.921875 175.441406 428.347656 201.605469 428.347656 229.476562 Z M 428.347656 392.019531 " style=" stroke:none;fill-rule:nonzero;fill:rgb(2.745098%,74.509804%,90.980392%);fill-opacity:1;" />
<path d="M 167.777344 229.480469 L 96 186 L 84.46875 218.5 L 84.46875 256 L 167.777344 256 Z M 167.777344 229.480469 " style=" stroke:none;fill-rule:nonzero;fill:rgb(97.647059%,15.686275%,7.843137%);fill-opacity:1;" />
<path d="M 171 272.429688 L 84.46875 304.667969 L 83.5 345 L 171 294.5 Z M 171 272.429688 " style=" stroke:none;fill-rule:nonzero;fill:rgb(0%,75.686275%,36.078431%);fill-opacity:1;" />
<path d="M 171 317 L 102.5 390 L 167.777344 385.519531 Z M 171 317 " style=" stroke:none;fill-rule:nonzero;fill:rgb(97.647059%,15.686275%,7.843137%);fill-opacity:1;" />
<path d="M 344.222656 229.480469 L 416 186 L 427.53125 218.5 L 427.53125 256 L 344.222656 256 Z M 344.222656 229.480469 " style=" stroke:none;fill-rule:nonzero;fill:rgb(85.882353%,1.568627%,1.568627%);fill-opacity:1;" />
<path d="M 341 272.429688 L 427.53125 304.667969 L 428.5 345 L 341 294.5 Z M 341 272.429688 " style=" stroke:none;fill-rule:nonzero;fill:rgb(3.921569%,62.745098%,30.588235%);fill-opacity:1;" />
<path d="M 341 317 L 409.5 390 L 344.222656 385.519531 Z M 341 317 " style=" stroke:none;fill-rule:nonzero;fill:rgb(85.882353%,1.568627%,1.568627%);fill-opacity:1;" />
<path d="M 180.777344 398.519531 L 77.96875 398.519531 L 77.96875 229.480469 C 77.96875 199.589844 92.464844 171.339844 116.746094 153.90625 L 129.371094 144.84375 L 142 153.90625 C 166.28125 171.339844 180.777344 199.589844 180.777344 229.476562 Z M 90.96875 385.519531 L 167.777344 385.519531 L 167.777344 229.480469 C 167.777344 203.765625 155.308594 179.464844 134.417969 164.46875 L 129.375 160.847656 L 124.328125 164.46875 C 103.441406 179.464844 90.96875 203.765625 90.96875 229.480469 Z M 90.96875 385.519531 " style=" stroke:none;fill-rule:nonzero;fill:rgb(100%,100%,100%);fill-opacity:1;" />
<path d="M 434.851562 398.519531 L 332.042969 398.519531 L 332.042969 229.480469 C 332.042969 199.589844 346.539062 171.339844 370.820312 153.90625 L 383.445312 144.84375 L 396.070312 153.90625 C 420.351562 171.339844 434.847656 199.589844 434.847656 229.480469 L 434.847656 398.519531 Z M 345.042969 385.519531 L 421.851562 385.519531 L 421.851562 229.480469 C 421.851562 203.765625 409.378906 179.464844 388.492188 164.46875 L 383.445312 160.847656 L 378.402344 164.46875 C 357.511719 179.464844 345.042969 203.765625 345.042969 229.480469 Z M 345.042969 385.519531 " style=" stroke:none;fill-rule:nonzero;fill:rgb(94.901961%,96.470588%,98.823529%);fill-opacity:1;" />
<path d="M 213 113 L 256 166.332031 L 256 201 L 196.667969 287.667969 L 198.34375 149.667969 Z M 213 113 " style=" stroke:none;fill-rule:nonzero;fill:rgb(97.647059%,15.686275%,7.843137%);fill-opacity:1;" />
<path d="M 250 245.667969 L 196.667969 327.667969 L 196.332031 363.667969 L 253 278.332031 Z M 250 245.667969 " style=" stroke:none;fill-rule:nonzero;fill:rgb(0%,75.686275%,36.078431%);fill-opacity:1;" />
<path d="M 250 311.667969 L 208.332031 392.019531 L 253 392.019531 Z M 250 311.667969 " style=" stroke:none;fill-rule:nonzero;fill:rgb(97.647059%,15.686275%,7.843137%);fill-opacity:1;" />
<path d="M 299 113 L 256 166.332031 L 256 201 L 315.332031 287.667969 L 313.65625 149.667969 Z M 299 113 " style=" stroke:none;fill-rule:nonzero;fill:rgb(85.882353%,1.568627%,1.568627%);fill-opacity:1;" />
<path d="M 262 245.667969 L 315.332031 327.667969 L 315.667969 363.667969 L 259 278.332031 Z M 262 245.667969 " style=" stroke:none;fill-rule:nonzero;fill:rgb(3.921569%,62.745098%,30.588235%);fill-opacity:1;" />
<path d="M 262 311.667969 L 303.667969 392.019531 L 259 392.019531 Z M 262 311.667969 " style=" stroke:none;fill-rule:nonzero;fill:rgb(85.882353%,1.568627%,1.568627%);fill-opacity:1;" />
<path d="M 269.667969 76.910156 C 269.46875 76.765625 269.273438 76.613281 269.070312 76.46875 L 264.238281 73 L 249.949219 73 L 245.117188 76.46875 C 244.179688 77.144531 243.25 77.832031 242.332031 78.53125 L 242.332031 149.664062 L 198.34375 149.664062 C 197.578125 153.65625 197.015625 157.703125 196.667969 161.785156 L 196.667969 175.664062 L 242.335938 175.664062 L 242.335938 392.015625 L 269.667969 392.015625 L 269.667969 175.667969 L 315.335938 175.667969 L 315.335938 149.667969 L 269.667969 149.667969 Z M 269.667969 76.910156 " style=" stroke:none;fill-rule:nonzero;fill:rgb(100%,94.901961%,0%);fill-opacity:1;" />
<path d="M 269.667969 149.667969 L 269.667969 76.910156 C 269.46875 76.765625 269.273438 76.613281 269.070312 76.46875 L 264.238281 73 L 257.332031 73 L 257.332031 392.019531 L 269.664062 392.019531 L 269.664062 175.667969 L 315.332031 175.667969 L 315.332031 149.667969 Z M 269.667969 149.667969 " style=" stroke:none;fill-rule:nonzero;fill:rgb(94.901961%,84.705882%,7.45098%);fill-opacity:1;" />
<path d="M 324.453125 398.519531 L 189.738281 398.519531 L 189.738281 171.730469 C 189.738281 131.964844 209.023438 94.378906 241.328125 71.1875 L 257.09375 59.871094 L 272.859375 71.1875 C 305.164062 94.378906 324.449219 131.964844 324.449219 171.730469 L 324.449219 398.519531 Z M 202.738281 385.519531 L 311.453125 385.519531 L 311.453125 171.730469 C 311.453125 136.140625 294.191406 102.503906 265.28125 81.75 L 257.09375 75.871094 L 248.910156 81.75 C 219.996094 102.503906 202.738281 136.144531 202.738281 171.730469 Z M 202.738281 385.519531 " style=" stroke:none;fill-rule:nonzero;fill:rgb(100%,100%,100%);fill-opacity:1;" />
<path d="M 324.453125 171.730469 C 324.453125 131.964844 305.164062 94.378906 272.859375 71.1875 L 257.332031 60.039062 L 257.332031 76.042969 L 265.277344 81.75 C 294.191406 102.503906 311.449219 136.140625 311.449219 171.730469 L 311.449219 385.519531 L 257.332031 385.519531 L 257.332031 398.519531 L 324.449219 398.519531 L 324.449219 171.730469 Z M 324.453125 171.730469 " style=" stroke:none;fill-rule:nonzero;fill:rgb(94.901961%,96.470588%,98.823529%);fill-opacity:1;" />
</g>
</svg>