<?xml version="1.0" encoding="iso-8859-1"?>
<!-- Generator: Adobe Illustrator 19.0.0, SVG Export Plug-In . SVG Version: 6.00 Build 0)  -->
<svg xmlns="http://www.w3.org/2000/svg" xmlns:xlink="http://www.w3.org/1999/xlink" version="1.1" id="Capa_1" x="0px" y="0px" viewBox="0 0 512 512" style="enable-background:new 0 0 512 512;" xml:space="preserve">
<circle style="fill:#590F38;" cx="256" cy="256" r="256"/>
<path style="fill:#49092F;" d="M510.963,278.963L373.667,141.667L256,435l67.884,67.884  C425.198,475.088,501.391,386.613,510.963,278.963z"/>
<polygon style="fill:#35CCFF;" points="138.333,141.667 60,240.667 256,435 256,141.667 "/>
<polygon style="fill:#00BAFF;" points="373.667,141.667 256,141.667 256,435 452,240.667 "/>
<polygon style="fill:#008CC3;" points="303.027,141.667 334.334,240.667 256,435 177.667,240.667 208.974,141.667 "/>
<polygon style="fill:#0074A3;" points="303.027,141.667 256,141.667 256,435 334.334,240.667 "/>
<polygon style="fill:#00BAFF;" points="60,240.667 138.333,141.667 373.667,141.667 452,240.667 "/>
<polygon style="fill:#008CC3;" points="373.667,141.667 256,141.667 256,240.667 452,240.667 "/>
<polygon style="fill:#35CCFF;" points="177.667,240.667 256,141.667 138.333,141.667 "/>
<polygon style="fill:#00BAFF;" points="256,141.667 334.334,240.667 373.667,141.667 "/>
<g>
</g>
<g>
</g>
<g>
</g>
<g>
</g>
<g>
</g>
<g>
</g>
<g>
</g>
<g>
</g>
<g>
</g>
<g>
</g>
<g>
</g>
<g>
</g>
<g>
</g>
<g>
</g>
<g>
</g>
</svg>
