<?xml version="1.0" encoding="iso-8859-1"?>
<!-- Generator: Adobe Illustrator 19.0.0, SVG Export Plug-In . SVG Version: 6.00 Build 0)  -->
<svg xmlns="http://www.w3.org/2000/svg" xmlns:xlink="http://www.w3.org/1999/xlink" version="1.1" id="Capa_1" x="0px" y="0px" viewBox="0 0 512 512" style="enable-background:new 0 0 512 512;" xml:space="preserve">
<circle style="fill:#FF6838;" cx="256" cy="256" r="256"/>
<path style="fill:#AE4E32;" d="M295.55,508.957C418.154,489.942,512,383.934,512,256c0-3.192-0.079-6.365-0.195-9.528L339,73.667  l-18.578,30.255L273.5,57L169.667,194.333l93.059,93.059L238.5,451.907L295.55,508.957z"/>
<rect x="238.5" y="57" style="fill:#754C24;" width="35" height="394.91"/>
<rect x="256" y="57" style="fill:#603813;" width="17.5" height="394.91"/>
<path style="fill:#FFFFFF;" d="M339,194.333c-56.445-20.111-112.889-20.111-169.333,0c-28.222-40.222-28.222-80.444,0-120.667  c56.444,20.111,112.889,20.111,169.333,0C367.222,113.889,367.222,154.111,339,194.333z"/>
<g>
	<path style="fill:#E0E0E0;" d="M339,73.667c-27.667,9.858-55.333,14.871-83,15.065v90.537c27.667,0.194,55.333,5.207,83,15.065   C367.222,154.111,367.222,113.889,339,73.667z"/>
	<path style="fill:#E0E0E0;" d="M195.259,81.399c-8.531-2.121-17.062-4.693-25.593-7.733c-28.222,40.222-28.222,80.444,0,120.667   c8.531-3.04,17.062-5.612,25.593-7.732C173.808,151.534,173.808,116.466,195.259,81.399z"/>
</g>
<path style="fill:#C0C0C0;" d="M313.407,186.601c8.531,2.121,17.062,4.693,25.593,7.733c28.222-40.222,28.222-80.444,0-120.667  c-8.531,3.04-17.062,5.612-25.593,7.732C334.859,116.466,334.859,151.534,313.407,186.601z"/>
<g>
</g>
<g>
</g>
<g>
</g>
<g>
</g>
<g>
</g>
<g>
</g>
<g>
</g>
<g>
</g>
<g>
</g>
<g>
</g>
<g>
</g>
<g>
</g>
<g>
</g>
<g>
</g>
<g>
</g>
</svg>
