<?xml version="1.0" encoding="iso-8859-1"?>
<!-- Generator: Adobe Illustrator 19.0.0, SVG Export Plug-In . SVG Version: 6.00 Build 0)  -->
<svg xmlns="http://www.w3.org/2000/svg" xmlns:xlink="http://www.w3.org/1999/xlink" version="1.1" id="Capa_1" x="0px" y="0px" viewBox="0 0 512 512" style="enable-background:new 0 0 512 512;" xml:space="preserve">
<circle style="fill:#B9EAFF;" cx="256" cy="256" r="256"/>
<path style="fill:#35CCFF;" d="M511.263,275.542L308.521,72.8l-185.51,325.555l112.86,112.86C242.513,511.732,249.225,512,256,512  C390.81,512,501.28,407.797,511.263,275.542z"/>
<path style="fill:#AE283F;" d="M200,86c0-30.928,25.072-6,56-6s56-24.928,56,6s-25.072,76-56,76S200,116.928,200,86z"/>
<path style="fill:#84172F;" d="M256,80v82c30.928,0,56-45.072,56-76S286.928,80,256,80z"/>
<path style="fill:#F1333F;" d="M88,310c0-92.784,75.216-168,168-168s168,75.216,168,168s-75.216,130-168,130S88,402.784,88,310z"/>
<path style="fill:#AE283F;" d="M256,142v298c92.784,0,168-37.216,168-130S348.784,142,256,142z"/>
<g>
</g>
<g>
</g>
<g>
</g>
<g>
</g>
<g>
</g>
<g>
</g>
<g>
</g>
<g>
</g>
<g>
</g>
<g>
</g>
<g>
</g>
<g>
</g>
<g>
</g>
<g>
</g>
<g>
</g>
</svg>
