<?xml version="1.0" encoding="iso-8859-1"?>
<!-- Generator: Adobe Illustrator 19.0.0, SVG Export Plug-In . SVG Version: 6.00 Build 0)  -->
<svg xmlns="http://www.w3.org/2000/svg" xmlns:xlink="http://www.w3.org/1999/xlink" version="1.1" id="Capa_1" x="0px" y="0px" viewBox="0 0 512 512" style="enable-background:new 0 0 512 512;" xml:space="preserve">
<circle style="fill:#F1333F;" cx="256" cy="256" r="256"/>
<path style="fill:#AE283F;" d="M510.941,279.218L317.864,86.141L158.789,165.46l24.181,21.575L117,277l28.045,127.272  l107.687,107.687c1.089,0.014,2.176,0.041,3.268,0.041C389.557,512,499.206,409.72,510.941,279.218z"/>
<path style="fill:#35CCFF;" d="M169.242,146.959c0-47.915,38.843-86.758,86.758-86.758s86.758,38.843,86.758,86.758H169.242z"/>
<path style="fill:#00BAFF;" d="M256,60.201v86.759h86.759C342.759,99.044,303.916,60.201,256,60.201z"/>
<path style="fill:#FFDC00;" d="M347.039,165.459h6.172v-37H158.789v37h6.172C125.061,193.956,99,240.64,99,293.299  c0,86.57,70.43,157,157,157s157-70.43,157-157C413,240.64,386.939,193.956,347.039,165.459z M256,413.299  c-66.168,0-120-53.832-120-120s53.832-120,120-120s120,53.832,120,120S322.168,413.299,256,413.299z"/>
<path style="fill:#FFC000;" d="M347.039,165.459h6.172v-37H256v44.84c66.168,0,120,53.832,120,120s-53.832,120-120,120v37  c86.57,0,157-70.43,157-157C413,240.64,386.939,193.956,347.039,165.459z"/>
<g>
</g>
<g>
</g>
<g>
</g>
<g>
</g>
<g>
</g>
<g>
</g>
<g>
</g>
<g>
</g>
<g>
</g>
<g>
</g>
<g>
</g>
<g>
</g>
<g>
</g>
<g>
</g>
<g>
</g>
</svg>
