<svg xmlns="http://www.w3.org/2000/svg" height="512pt" version="1.1" viewBox="0 0 512 512" width="512pt">
<g id="surface1">
<path d="M 512 256 C 512 397.386719 397.386719 512 256 512 C 114.613281 512 0 397.386719 0 256 C 0 114.613281 114.613281 0 256 0 C 397.386719 0 512 114.613281 512 256 Z M 512 256 " style=" stroke:none;fill-rule:nonzero;fill:rgb(100%,80.784314%,0%);fill-opacity:1;" />
<path d="M 170.109375 418.277344 L 263.703125 511.875 C 401.523438 507.800781 512 394.808594 512 256 C 512 252.554688 511.910156 249.132812 511.777344 245.722656 L 327.222656 61.167969 Z M 170.109375 418.277344 " style=" stroke:none;fill-rule:nonzero;fill:rgb(100%,66.666667%,0%);fill-opacity:1;" />
<path d="M 297.878906 151.695312 C 315.660156 124.15625 327.222656 84.847656 327.222656 61.167969 L 184.777344 61.167969 C 184.777344 84.847656 196.339844 124.15625 214.121094 151.695312 C 163.265625 183.25 126.695312 265.941406 126.695312 322.695312 C 126.695312 394.109375 184.585938 452 256 452 C 327.414062 452 385.304688 394.109375 385.304688 322.695312 C 385.304688 265.941406 348.734375 183.25 297.878906 151.695312 Z M 297.878906 151.695312 " style=" stroke:none;fill-rule:nonzero;fill:rgb(67.058824%,35.294118%,11.372549%);fill-opacity:1;" />
<path d="M 297.878906 151.695312 C 315.660156 124.15625 327.222656 84.847656 327.222656 61.167969 L 255.605469 61.167969 L 255.605469 451.996094 C 255.738281 451.996094 255.867188 452 256 452 C 327.414062 452 385.304688 394.109375 385.304688 322.695312 C 385.304688 265.941406 348.734375 183.25 297.878906 151.695312 Z M 297.878906 151.695312 " style=" stroke:none;fill-rule:nonzero;fill:rgb(54.117647%,27.843137%,6.666667%);fill-opacity:1;" />
<path d="M 200.765625 126.40625 L 311.230469 126.40625 L 311.230469 161.382812 L 200.765625 161.382812 Z M 200.765625 126.40625 " style=" stroke:none;fill-rule:nonzero;fill:rgb(100%,100%,100%);fill-opacity:1;" />
<path d="M 255.605469 126.40625 L 311.230469 126.40625 L 311.230469 161.382812 L 255.605469 161.382812 Z M 255.605469 126.40625 " style=" stroke:none;fill-rule:nonzero;fill:rgb(94.901961%,96.470588%,98.823529%);fill-opacity:1;" />
<path d="M 210.863281 154.46875 L 238.371094 154.46875 L 238.371094 231.921875 L 210.863281 231.921875 Z M 210.863281 154.46875 " style=" stroke:none;fill-rule:nonzero;fill:rgb(100%,100%,100%);fill-opacity:1;" />
</g>
</svg>