<svg xmlns="http://www.w3.org/2000/svg" height="512pt" version="1.1" viewBox="0 0 512 512" width="512pt">
<g id="surface1">
<path d="M 512 256 C 512 397.386719 397.386719 512 256 512 C 114.613281 512 0 397.386719 0 256 C 0 114.613281 114.613281 0 256 0 C 397.386719 0 512 114.613281 512 256 Z M 512 256 " style=" stroke:none;fill-rule:nonzero;fill:rgb(25.490196%,28.627451%,32.156863%);fill-opacity:1;" />
<path d="M 293.535156 509.253906 C 417.121094 491.09375 512 384.632812 512 256 C 512 188.917969 486.183594 127.871094 443.960938 82.222656 L 429.773438 68.035156 L 300.367188 144.910156 L 198.824219 144.910156 L 103.953125 50.039062 L 118.070312 141.101562 L 61.84375 144.472656 L 38.433594 121.058594 L 28.046875 139.378906 L 64.390625 175.726562 L 39.726562 192.460938 L 168.222656 321.152344 L 138.070312 353.789062 Z M 293.535156 509.253906 " style=" stroke:none;fill-rule:nonzero;fill:rgb(20%,22.352941%,25.098039%);fill-opacity:1;" />
<path d="M 473.566406 121.058594 C 467.125 132.859375 454.601562 140.882812 440.234375 140.882812 C 419.3125 140.882812 402.289062 123.859375 402.289062 102.933594 L 402.289062 102.359375 C 412.554688 91.9375 421.78125 80.441406 429.773438 68.035156 C 422.871094 61.652344 415.621094 55.640625 408.046875 50.039062 C 376.035156 101.777344 319.847656 136.164062 256 136.164062 C 192.152344 136.164062 135.964844 101.777344 103.953125 50.039062 C 96.378906 55.640625 89.128906 61.648438 82.226562 68.035156 C 90.21875 80.441406 99.445312 91.9375 109.710938 102.359375 L 109.710938 102.933594 C 109.710938 123.859375 92.6875 140.882812 71.765625 140.882812 C 57.398438 140.882812 44.875 132.859375 38.433594 121.058594 C 34.734375 127.011719 31.257812 133.113281 28.046875 139.378906 C 38.503906 151.898438 54.214844 159.882812 71.765625 159.882812 C 86.328125 159.882812 99.632812 154.378906 109.710938 145.347656 L 109.710938 157.945312 C 109.710938 189.347656 135.257812 214.894531 166.660156 214.894531 C 196.847656 214.894531 221.613281 191.277344 223.480469 161.550781 C 234.082031 163.265625 244.9375 164.167969 256 164.167969 C 267.0625 164.167969 277.917969 163.265625 288.519531 161.550781 C 290.386719 191.277344 315.152344 214.894531 345.339844 214.894531 C 376.742188 214.894531 402.289062 189.347656 402.289062 157.945312 L 402.289062 145.347656 C 412.367188 154.378906 425.671875 159.882812 440.234375 159.882812 C 457.785156 159.882812 473.5 151.898438 483.953125 139.378906 C 480.742188 133.113281 477.265625 127.011719 473.566406 121.058594 Z M 204.609375 157.945312 C 204.609375 178.871094 187.585938 195.894531 166.660156 195.894531 C 145.734375 195.894531 128.710938 178.871094 128.710938 157.945312 L 128.710938 119.449219 C 151.292969 137.414062 177.5625 150.710938 206.132812 157.945312 Z M 345.339844 195.894531 C 324.414062 195.894531 307.390625 178.871094 307.390625 157.945312 L 305.867188 157.945312 C 334.4375 150.710938 360.707031 137.414062 383.289062 119.449219 L 383.289062 157.945312 C 383.289062 178.871094 366.265625 195.894531 345.339844 195.894531 Z M 345.339844 195.894531 " style=" stroke:none;fill-rule:nonzero;fill:rgb(100%,80.784314%,0%);fill-opacity:1;" />
<path d="M 473.566406 121.058594 C 467.125 132.859375 454.601562 140.882812 440.234375 140.882812 C 419.3125 140.882812 402.289062 123.859375 402.289062 102.933594 L 402.289062 102.359375 C 412.554688 91.9375 421.78125 80.441406 429.773438 68.035156 C 422.871094 61.652344 415.621094 55.640625 408.046875 50.039062 C 376.175781 101.554688 320.324219 135.859375 256.816406 136.152344 L 256.816406 164.15625 C 267.597656 164.113281 278.179688 163.222656 288.519531 161.550781 C 290.386719 191.277344 315.152344 214.894531 345.339844 214.894531 C 376.742188 214.894531 402.289062 189.347656 402.289062 157.945312 L 402.289062 145.347656 C 412.367188 154.378906 425.671875 159.882812 440.234375 159.882812 C 457.785156 159.882812 473.5 151.898438 483.953125 139.378906 C 480.742188 133.113281 477.265625 127.011719 473.566406 121.058594 Z M 383.289062 157.945312 C 383.289062 178.871094 366.265625 195.894531 345.339844 195.894531 C 324.414062 195.894531 307.390625 178.871094 307.390625 157.945312 L 305.867188 157.945312 C 334.4375 150.710938 360.707031 137.414062 383.289062 119.449219 Z M 383.289062 157.945312 " style=" stroke:none;fill-rule:nonzero;fill:rgb(100%,66.666667%,0%);fill-opacity:1;" />
<path d="M 389.394531 318.605469 C 389.394531 318.605469 373.925781 295.152344 373.925781 283.421875 C 356.992188 285.832031 340.003906 287.695312 322.984375 289.058594 C 315.617188 272.386719 302.222656 258.988281 285.550781 251.621094 C 286.910156 234.601562 288.777344 217.613281 291.183594 200.679688 C 279.457031 200.679688 256 185.214844 256 185.214844 C 256 185.214844 232.542969 200.679688 220.816406 200.679688 C 223.226562 217.609375 225.089844 234.601562 226.449219 251.621094 C 209.777344 258.984375 196.378906 272.382812 189.011719 289.054688 C 171.992188 287.695312 155.003906 285.832031 138.070312 283.421875 C 138.070312 295.148438 122.605469 318.605469 122.605469 318.605469 C 122.605469 318.605469 138.070312 342.0625 138.070312 353.789062 C 155.003906 351.378906 171.992188 349.515625 189.011719 348.15625 C 196.378906 364.828125 209.777344 378.226562 226.449219 385.59375 C 225.085938 402.613281 223.222656 419.601562 220.8125 436.53125 C 232.542969 436.53125 256 452 256 452 C 256 452 279.453125 436.53125 291.183594 436.53125 C 288.773438 419.601562 286.910156 402.609375 285.550781 385.589844 C 302.222656 378.226562 315.617188 364.828125 322.984375 348.15625 C 340.003906 349.515625 356.992188 351.382812 373.925781 353.789062 C 373.925781 342.0625 389.394531 318.605469 389.394531 318.605469 Z M 389.394531 318.605469 " style=" stroke:none;fill-rule:nonzero;fill:rgb(100%,80.784314%,0%);fill-opacity:1;" />
<path d="M 256 452 C 256 452 279.457031 436.535156 291.1875 436.535156 C 288.777344 419.601562 286.914062 402.613281 285.550781 385.59375 C 302.222656 378.226562 315.621094 364.828125 322.984375 348.15625 C 340.007812 349.519531 356.996094 351.382812 373.929688 353.789062 C 373.929688 342.0625 389.394531 318.605469 389.394531 318.605469 C 389.394531 318.605469 373.929688 295.148438 373.929688 283.421875 C 356.996094 285.832031 340.007812 287.695312 322.984375 289.054688 C 315.621094 272.382812 302.222656 258.984375 285.550781 251.621094 C 286.914062 234.601562 288.777344 217.609375 291.1875 200.679688 C 279.457031 200.679688 256 185.214844 256 185.214844 Z M 256 452 " style=" stroke:none;fill-rule:nonzero;fill:rgb(100%,66.666667%,0%);fill-opacity:1;" />
<path d="M 300.644531 318.605469 C 300.644531 343.265625 280.65625 363.253906 256 363.253906 C 231.34375 363.253906 211.355469 343.265625 211.355469 318.605469 C 211.355469 293.949219 231.34375 273.960938 256 273.960938 C 280.65625 273.960938 300.644531 293.949219 300.644531 318.605469 Z M 300.644531 318.605469 " style=" stroke:none;fill-rule:nonzero;fill:rgb(97.647059%,15.686275%,7.843137%);fill-opacity:1;" />
<path d="M 256 273.960938 C 280.65625 273.960938 300.644531 293.949219 300.644531 318.605469 C 300.644531 343.265625 280.65625 363.253906 256 363.253906 Z M 256 273.960938 " style=" stroke:none;fill-rule:nonzero;fill:rgb(85.882353%,1.568627%,1.568627%);fill-opacity:1;" />
<path d="M 236.667969 130.332031 L 275.335938 130.332031 L 275.335938 191.429688 L 236.667969 191.429688 Z M 236.667969 130.332031 " style=" stroke:none;fill-rule:nonzero;fill:rgb(100%,66.666667%,0%);fill-opacity:1;" />
<path d="M 256 130.332031 L 275.332031 130.332031 L 275.332031 191.429688 L 256 191.429688 Z M 256 130.332031 " style=" stroke:none;fill-rule:nonzero;fill:rgb(100%,49.019608%,3.921569%);fill-opacity:1;" />
<path d="M 183.105469 235.445312 C 183.105469 246.796875 173.902344 256 162.554688 256 C 151.203125 256 142 246.796875 142 235.445312 C 142 224.097656 151.203125 214.894531 162.554688 214.894531 C 173.902344 214.894531 183.105469 224.097656 183.105469 235.445312 Z M 183.105469 235.445312 " style=" stroke:none;fill-rule:nonzero;fill:rgb(97.647059%,15.686275%,7.843137%);fill-opacity:1;" />
<path d="M 74.886719 178 C 74.886719 189.351562 65.683594 198.554688 54.332031 198.554688 C 42.980469 198.554688 33.78125 189.351562 33.78125 178 C 33.78125 166.648438 42.980469 157.445312 54.332031 157.445312 C 65.683594 157.445312 74.886719 166.648438 74.886719 178 Z M 74.886719 178 " style=" stroke:none;fill-rule:nonzero;fill:rgb(97.647059%,15.686275%,7.843137%);fill-opacity:1;" />
<path d="M 377.886719 235.445312 C 377.886719 246.796875 368.683594 256 357.332031 256 C 345.980469 256 336.78125 246.796875 336.78125 235.445312 C 336.78125 224.097656 345.980469 214.894531 357.332031 214.894531 C 368.683594 214.894531 377.886719 224.097656 377.886719 235.445312 Z M 377.886719 235.445312 " style=" stroke:none;fill-rule:nonzero;fill:rgb(85.882353%,1.568627%,1.568627%);fill-opacity:1;" />
<path d="M 476.105469 181.433594 C 476.105469 192.785156 466.902344 201.988281 455.554688 201.988281 C 444.203125 201.988281 435 192.785156 435 181.433594 C 435 170.082031 444.203125 160.882812 455.554688 160.882812 C 466.902344 160.882812 476.105469 170.082031 476.105469 181.433594 Z M 476.105469 181.433594 " style=" stroke:none;fill-rule:nonzero;fill:rgb(85.882353%,1.568627%,1.568627%);fill-opacity:1;" />
</g>
</svg>