<?xml version="1.0" encoding="iso-8859-1"?>
<!-- Generator: Adobe Illustrator 19.0.0, SVG Export Plug-In . SVG Version: 6.00 Build 0)  -->
<svg xmlns="http://www.w3.org/2000/svg" xmlns:xlink="http://www.w3.org/1999/xlink" version="1.1" id="Capa_1" x="0px" y="0px" viewBox="0 0 512 512" style="enable-background:new 0 0 512 512;" xml:space="preserve">
<circle style="fill:#00BAFF;" cx="256" cy="256" r="256"/>
<path style="fill:#008CC3;" d="M512,256c0-8.143-0.397-16.192-1.141-24.141L426.5,147.5L85.5,347l164.929,164.929  c1.853,0.04,3.708,0.071,5.571,0.071C397.385,512,512,397.385,512,256z"/>
<rect x="85.5" y="147.5" style="fill:#FFFFFF;" width="341" height="199.5"/>
<g>
	<rect x="256" y="147.5" style="fill:#E0E0E0;" width="170.5" height="199.5"/>
	<polygon style="fill:#E0E0E0;" points="85.5,147.5 256,280 426.5,147.5  "/>
</g>
<polygon style="fill:#C0C0C0;" points="256,147.5 256,280 426.5,147.5 "/>
<path style="fill:#F1333F;" d="M194,252.667c0-6.473,4.927-12.088,6.824-17.929c1.965-6.053,1.348-13.479,5.014-18.517  c3.703-5.089,10.981-6.779,16.07-10.482c5.038-3.667,8.875-10.087,14.928-12.053c5.84-1.896,12.691,0.981,19.164,0.981  s13.324-2.877,19.164-0.981c6.053,1.965,9.89,8.386,14.928,12.053c5.089,3.703,12.367,5.394,16.07,10.482  c3.667,5.038,3.049,12.464,5.014,18.517c1.896,5.84,6.823,11.456,6.823,17.929s-4.927,12.088-6.824,17.929  c-1.965,6.053-1.348,13.479-5.014,18.517c-3.703,5.089-10.981,6.779-16.07,10.482c-5.038,3.667-8.875,10.087-14.928,12.053  c-5.84,1.896-12.691-0.981-19.164-0.981c-6.473,0-13.324,2.877-19.164,0.981c-6.053-1.965-9.89-8.386-14.928-12.053  c-5.089-3.703-12.367-5.394-16.07-10.482c-3.667-5.038-3.049-12.464-5.014-18.517C198.927,264.755,194,259.139,194,252.667z"/>
<g>
	<path style="fill:#AE283F;" d="M311.177,234.738c-1.965-6.053-1.347-13.479-5.014-18.517c-3.703-5.089-10.981-6.779-16.07-10.482   c-5.039-3.667-8.875-10.088-14.928-12.053c-5.84-1.896-12.691,0.981-19.164,0.981v116c6.473,0,13.323,2.877,19.164,0.981   c6.053-1.965,9.89-8.386,14.928-12.053c5.089-3.703,12.367-5.393,16.07-10.482c3.667-5.038,3.049-12.464,5.014-18.517   c1.896-5.841,6.824-11.456,6.824-17.929C318,246.194,313.073,240.578,311.177,234.738z"/>
	<circle style="fill:#AE283F;" cx="256" cy="252.67" r="43"/>
</g>
<path style="fill:#84122A;" d="M256,209.667v86c23.748,0,43-19.252,43-43C299,228.918,279.748,209.667,256,209.667z"/>
<polygon style="fill:#FFDC00;" points="282.913,273.521 288.051,238.479 275.323,245.836 275.323,254.6 268.729,254.6   268.729,245.836 256,238.479 243.271,245.836 243.271,254.6 236.677,254.6 236.677,245.836 223.949,238.479 229.797,273.521 "/>
<polygon style="fill:#FFC000;" points="288.052,238.479 275.323,245.836 275.323,254.6 268.729,254.6 268.729,245.836 256,238.479   256,273.521 282.914,273.521 "/>
<g>
</g>
<g>
</g>
<g>
</g>
<g>
</g>
<g>
</g>
<g>
</g>
<g>
</g>
<g>
</g>
<g>
</g>
<g>
</g>
<g>
</g>
<g>
</g>
<g>
</g>
<g>
</g>
<g>
</g>
</svg>
