<svg viewBox="0 0 512 512" xmlns="http://www.w3.org/2000/svg"><path d="m512 256c0 141.386719-114.613281 256-256 256s-256-114.613281-256-256 114.613281-256 256-256 256 114.613281 256 256zm0 0" fill="#613394"/><path d="m259.457031 511.957031c138.636719-1.839843 250.660157-113.863281 252.5-252.5l-193.457031-193.457031-151.257812 294.355469 65.464843 65.460937-39.207031 20.183594zm0 0" fill="#4b1b7a"/><path d="m193.5 66h125v380h-125zm0 0" fill="#ff551c"/><path d="m256 66h62.5v380h-62.5zm0 0" fill="#f24500"/><path d="m393 256c0 75.664062-61.335938 137-137 137s-137-61.335938-137-137 61.335938-137 137-137 137 61.335938 137 137zm0 0" fill="#fff"/><path d="m256 119c-.078125 0-.160156.003906 0 .003906v273.992188c-.160156 0-.078125.003906 0 .003906 75.664062 0 137-61.335938 137-137s-61.335938-137-137-137zm0 0" fill="#e9edf5"/><path d="m369 256c0 62.40625-50.59375 113-113 113s-113-50.59375-113-113 50.59375-113 113-113 113 50.59375 113 113zm0 0" fill="#2864f0"/><path d="m256 369c62.40625 0 113-50.59375 113-113s-50.59375-113-113-113zm0 0" fill="#0053bf"/><path d="m171 242.140625c0-24.714844 20.035156-44.75 44.75-44.75 17.695312 0 32.988281 10.273437 40.25 25.179687 7.261719-14.90625 22.554688-25.179687 40.25-25.179687 24.714844 0 44.75 20.035156 44.75 44.75 0 59.902344-85 94.46875-85 94.46875s-85-40.722656-85-94.46875zm0 0" fill="#fff"/><path d="m256 336.609375s85-34.566406 85-94.46875c0-24.714844-20.035156-44.75-44.75-44.75-17.695312 0-32.988281 10.273437-40.25 25.179687zm0 0" fill="#dce1eb"/></svg>