<svg viewBox="0 0 512 512" xmlns="http://www.w3.org/2000/svg"><path d="m512 256c0 141.386719-114.613281 256-256 256s-256-114.613281-256-256 114.613281-256 256-256 256 114.613281 256 256zm0 0" fill="#613394"/><path d="m506.019531 311.179688-101.519531-101.519532-3.480469 18.824219-148.445312-148.441406h-115.472657l-3.367187 266.917969-99.183594 37.539062 92.949219 92.949219c37.769531 21.960937 81.660156 34.550781 128.5 34.550781 122.4375 0 224.78125-85.960938 250.019531-200.820312zm0 0" fill="#4b1b7a"/><path d="m190 47.5c-42.183594 0-76.5 34.316406-76.5 76.5v184c0 23.984375-19.515625 43.5-43.5 43.5h-51.574219c4.597657 11.433594 9.996094 22.453125 16.128907 33h35.445312c42.183594 0 76.5-34.316406 76.5-76.5v-184c0-23.984375 19.515625-43.5 43.5-43.5s43.5 19.515625 43.5 43.5v62.125h33v-62.125c0-42.183594-34.316406-76.5-76.5-76.5zm0 0" fill="#00f3ff"/><path d="m190 47.5c-42.183594 0-76.5 34.316406-76.5 76.5v184c0 23.984375-19.515625 43.5-43.5 43.5h-51.574219c4.597657 11.433594 9.996094 22.453125 16.128907 33h35.445312c42.183594 0 76.5-34.316406 76.5-76.5v-184c0-23.984375 19.515625-43.5 43.5-43.5s43.5 19.515625 43.5 43.5v62.125h33v-62.125c0-42.183594-34.316406-76.5-76.5-76.5zm0 0" fill="#00f3ff"/><path d="m190 47.5c-.105469 0-.207031.007812-.308594.007812v33c.101563 0 .203125-.007812.308594-.007812 23.984375 0 43.5 19.515625 43.5 43.5v62.125h33v-62.125c0-42.183594-34.316406-76.5-76.5-76.5zm0 0" fill="#00c2ef"/><path d="m317.5 435.5c-47.972656 0-87-39.027344-87-87v-162.375h39v162.375c0 26.46875 21.53125 48 48 48s48-21.53125 48-48v-46.160156l-34.367188 33.601562-27.265624-27.882812 100.632812-98.398438v138.839844c0 47.972656-39.027344 87-87 87zm0 0" fill="#fff"/><path d="m303.867188 308.058594 27.265624 27.882812 34.367188-33.601562v46.160156c0 26.46875-21.53125 48-48 48-.144531 0-.285156-.011719-.429688-.011719v39.003907c.144532.003906.285157.007812.429688.007812 47.972656 0 87-39.027344 87-87v-138.839844zm0 0" fill="#dce1eb"/><path d="m203 166.625h91v39h-91zm0 0" fill="#ff551c"/><path d="m249.808594 166.625h44.191406v39h-44.191406zm0 0" fill="#f24500"/></svg>