<svg viewBox="0 0 512 512" xmlns="http://www.w3.org/2000/svg"><path d="m512 256c0 141.386719-114.613281 256-256 256s-256-114.613281-256-256 114.613281-256 256-256 256 114.613281 256 256zm0 0" fill="#2864f0"/><path d="m511.640625 269.574219-60.804687-60.808594-9.339844 6.121094-111.21875-111.21875-80.277344 30.808593-52.300781-9.914062 28.503906 28.503906-138.894531 65.933594-10.96875 22.363281 119.53125 119.527344-72.371094 74.109375 69.074219 69.074219c20.285156 5.171875 41.53125 7.925781 63.425781 7.925781 136.832031 0 248.585938-107.351562 255.640625-242.425781zm0 0" fill="#0053bf"/><path d="m388.5 435h-265v-236l132.5-60 132.5 60zm0 0" fill="#00f3ff"/><path d="m388.5 199-132.5-60v296h132.5zm0 0" fill="#03dddd"/><path d="m311.898438 168h12.5v242.5h-12.5zm0 0" fill="#0ab9e2"/><path d="m271.800781 141h12.5v269.5h-12.5zm0 0" fill="#0ab9e2"/><g fill="#00c2ef"><path d="m231.699219 141h12.5v269.5h-12.5zm0 0"/><path d="m191.601562 168h12.5v242.5h-12.5zm0 0"/><path d="m151.5 182.5h12.5v228h-12.5zm0 0"/></g><path d="m352 182.5h12.5v228h-12.5zm0 0" fill="#0ab9e2"/><path d="m330.273438 103.667969-26.023438-.898438-221.734375 102.242188-2.363281-5.085938-18.984375 8.839844 15.171875 32.597656 18.984375-8.839843-2.679688-5.753907 221.65625-102.207031zm0 0" fill="#fff"/><path d="m304.25 102.769531-221.734375 102.242188-2.363281-5.085938-18.984375 8.839844 7.488281 16.089844 261.621094-121.1875zm0 0" fill="#e9edf5"/><path d="m181.726562 103.667969 26.023438-.898438 221.734375 102.242188 2.363281-5.085938 18.984375 8.839844-15.171875 32.597656-18.984375-8.839843 2.679688-5.753907-221.65625-102.207031zm0 0" fill="#dce1eb"/><path d="m450.832031 208.765625-18.984375-8.839844-2.363281 5.085938-221.734375-102.242188-26.023438.898438 261.683594 121.042969zm0 0" fill="#cdd2e1"/></svg>