<svg viewBox="0 0 512 512" xmlns="http://www.w3.org/2000/svg"><path d="m512 256c0 141.386719-114.613281 256-256 256s-256-114.613281-256-256 114.613281-256 256-256 256 114.613281 256 256zm0 0" fill="#00f3ff"/><path d="m512 256c0-1.148438-.027344-2.289062-.042969-3.433594l-121.707031-121.707031-26.15625 33.320313-108.09375-108.089844-124.5 230.859375 93.957031 93.960937-46.203125 63 67.921875 67.921875c2.929688.097657 5.871094.167969 8.824219.167969 141.386719 0 256-114.613281 256-256zm0 0" fill="#00c2ef"/><path d="m332.746094 443.910156h-153.492188l-40-210.636718h233.492188zm0 0" fill="#ff551c"/><path d="m372.746094 233.273438h-116.746094v210.636718h76.746094zm0 0" fill="#f24500"/><path d="m235.085938 244.191406h-32.339844c-44.734375 0-80.996094-36.261718-80.996094-80.996094v-32.335937h32.339844c44.730468 0 80.996094 36.261719 80.996094 80.996094zm0 0" fill="#613394"/><path d="m276.914062 244.191406h32.339844c44.734375 0 80.996094-36.261718 80.996094-80.996094v-32.335937h-32.339844c-44.730468 0-80.996094 36.261719-80.996094 80.996094zm0 0" fill="#4b1b7a"/><path d="m256 267.664062 30.183594-30.183593c41.753906-41.753907 41.753906-109.453125 0-151.207031l-30.183594-30.183594-30.183594 30.183594c-41.753906 41.753906-41.753906 109.453124 0 151.207031zm0 0" fill="#8f4cd6"/><path d="m256 267.664062 30.183594-30.183593c41.757812-41.753907 41.757812-109.453125 0-151.207031l-30.183594-30.183594zm0 0" fill="#7a3eb5"/><path d="m131.5 217.949219h249v69h-249zm0 0" fill="#e2390c"/><path d="m256 218.011719h124.5v69h-124.5zm0 0" fill="#db3305"/></svg>