<svg viewBox="0 0 512 512" xmlns="http://www.w3.org/2000/svg"><path d="m512 256c0 141.386719-114.613281 256-256 256s-256-114.613281-256-256 114.613281-256 256-256 256 114.613281 256 256zm0 0" fill="#ffce00"/><path d="m511.34375 274.265625-179.890625-179.890625-181.953125 93.402344 122.371094 122.371094-14.652344 53.050781-79.21875-79.21875-53.191406 30.628906.113281 70.597656-35.039063 2.066407 120.707032 120.710937c14.738281 2.636719 29.914062 4.015625 45.410156 4.015625 135.242188 0 245.976562-104.875 255.34375-237.734375zm0 0" fill="#ffb600"/><path d="m322.5 210h-133l31.738281 251h69.523438zm0 0" fill="#4b1b7a"/><path d="m322.5 210h-66.738281v251h35zm0 0" fill="#2c0652"/><path d="m196.457031 265.011719c16.632813 12.347656 37.234375 19.65625 59.542969 19.65625s42.910156-7.308594 59.542969-19.65625l4.871093-38.53125c-17.398437 14.671875-39.871093 23.519531-64.414062 23.519531s-47.015625-8.847656-64.414062-23.519531zm0 0" fill="#fff"/><path d="m256 250c-.078125 0-.15625-.003906-.238281-.003906v34.664062c.082031 0 .160156.007813.238281.007813 22.308594 0 42.910156-7.308594 59.542969-19.65625l4.871093-38.53125c-17.398437 14.671875-39.871093 23.519531-64.414062 23.519531zm0 0" fill="#e9edf5"/><path d="m356 160c0 55.226562-44.773438 100-100 100s-100-44.773438-100-100 44.773438-100 100-100 100 44.773438 100 100zm0 0" fill="#7a3eb5"/><path d="m256 60c-.078125 0-.15625.003906-.238281.003906v199.992188c.082031 0 .160156.003906.238281.003906 55.230469 0 100-44.769531 100-100s-44.769531-100-100-100zm0 0" fill="#613394"/><path d="m149.5 141.253906v46.523438c70.222656 14.859375 142.777344 14.859375 213 0v-46.523438c-70.0625 16.332032-142.9375 16.332032-213 0zm0 0" fill="#4b1b7a"/><path d="m255.761719 153.5v45.421875c35.773437.015625 71.550781-3.699219 106.738281-11.144531v-46.527344c-35.109375 8.1875-70.925781 12.269531-106.738281 12.25zm0 0" fill="#2c0652"/><path d="m435 205.390625-60.582031 11.722656v55.820313c-4.804688-.542969-10.113281.195312-15.257813 2.390625-12.964844 5.542969-19.960937 18.253906-15.625 28.394531 4.335938 10.136719 18.355469 13.863281 31.320313 8.324219 10.242187-4.378907 16.75-13.230469 16.898437-21.757813h.011719v-57.148437l43.234375-8.367188zm0 0" fill="#0053bf"/><path d="m178 283.980469-60.582031 11.726562v55.820313c-4.804688-.542969-10.113281.191406-15.257813 2.390625-12.964844 5.542969-19.960937 18.253906-15.625 28.390625 4.332032 10.140625 18.355469 13.867187 31.320313 8.324218 10.242187-4.375 16.75-13.230468 16.898437-21.753906h.011719v-57.152344l43.234375-8.367187zm0 0" fill="#2864f0"/></svg>