<svg viewBox="0 0 512 512" xmlns="http://www.w3.org/2000/svg"><path d="m512 256c0 141.386719-114.613281 256-256 256s-256-114.613281-256-256 114.613281-256 256-256 256 114.613281 256 256zm0 0" fill="#ff551c"/><path d="m512 256c0-13.03125-.980469-25.835938-2.859375-38.347656l-92.648437-92.648438-320.984376 252.996094 132.46875 132.46875c9.203126 1 18.550782 1.53125 28.023438 1.53125 141.386719 0 256-114.613281 256-256zm0 0" fill="#d13400"/><path d="m95.507812 125.007812h320.984376v221.988282h-320.984376zm0 0" fill="#613394"/><path d="m255.167969 125.007812h161.324219v221.988282h-161.324219zm0 0" fill="#4b1b7a"/><path d="m95.507812 335.503906h320.984376v42.496094h-320.984376zm0 0" fill="#4b1b7a"/><path d="m255.167969 335.503906h161.324219v42.496094h-161.324219zm0 0" fill="#2c0652"/><path d="m336.667969 236c0 44.550781-36.117188 80.667969-80.667969 80.667969s-80.667969-36.117188-80.667969-80.667969 36.117188-80.667969 80.667969-80.667969 80.667969 36.117188 80.667969 80.667969zm0 0" fill="#a260e5"/><path d="m256 155.332031c-.277344 0-.554688.019531-.832031.023438v161.289062c.277343.003907.554687.019531.832031.019531 44.550781 0 80.667969-36.113281 80.667969-80.664062 0-44.554688-36.117188-80.667969-80.667969-80.667969zm0 0" fill="#8f4cd6"/><path d="m225.089844 179.554688 92.484375 56.445312-92.484375 56.445312zm0 0" fill="#fff"/><path d="m317.574219 236h-92.484375v56.445312zm0 0" fill="#e9edf5"/><path d="m350.058594 316.667969h24.941406v40.085937h-24.941406zm0 0" fill="#8f4cd6"/></svg>