<svg viewBox="0 0 512 512" xmlns="http://www.w3.org/2000/svg"><path d="m512 256c0 141.386719-114.613281 256-256 256s-256-114.613281-256-256 114.613281-256 256-256 256 114.613281 256 256zm0 0" fill="#613394"/><path d="m512 256c0-25.820312-3.839844-50.742188-10.949219-74.246094l-80.058593-80.058594-329.984376 288.304688 117.605469 117.605469c15.359375 2.875 31.195313 4.394531 47.386719 4.394531 141.386719 0 256-114.613281 256-256zm0 0" fill="#4b1b7a"/><path d="m109.566406 145.804688h277.484375v218.695312h-277.484375zm0 0" fill="#00f3ff"/><path d="m255.761719 145.804688h131.289062v218.695312h-131.289062zm0 0" fill="#00c2ef"/><path d="m91.007812 390h68.992188l-20.746094-123 70.808594-123h-119.054688zm0 0" fill="#e23b0e"/><path d="m420.992188 390h-68.992188l20.746094-123-70.808594-123h119.054688zm0 0" fill="#db3305"/><path d="m91.007812 101.695312h329.984376v66.5h-329.984376zm0 0" fill="#ff551c"/><path d="m255.761719 101.695312h165.230469v66.5h-165.230469zm0 0" fill="#f24500"/></svg>