<svg viewBox="0 0 512 512" xmlns="http://www.w3.org/2000/svg"><path d="m512 256c0 141.386719-114.613281 256-256 256s-256-114.613281-256-256 114.613281-256 256-256 256 114.613281 256 256zm0 0" fill="#2864f0"/><path d="m510.421875 284.421875-115.421875-115.421875-308 182 160.859375 160.859375c2.703125.082031 5.414063.140625 8.140625.140625 131.777344 0 240.28125-99.570312 254.421875-227.578125zm0 0" fill="#0053bf"/><path d="m425 351h-338l30-182 139-70 139 70zm0 0" fill="#ffce00"/><path d="m256 351h169l-30-182-139-70zm0 0" fill="#ffb600"/><path d="m256 176v175h82zm0 0" fill="#ff9500"/></svg>