<svg viewBox="0 0 512 512" xmlns="http://www.w3.org/2000/svg"><path d="m512 256c0 141.386719-114.613281 256-256 256s-256-114.613281-256-256 114.613281-256 256-256 256 114.613281 256 256zm0 0" fill="#00f3ff"/><path d="m512 256c0-.46875-.015625-.9375-.019531-1.40625l-99.863281-99.863281-1.257813 2.375-34.105469-34.105469-11.425781 23.238281-86.238281-86.238281-9.980469 147.863281-84.863281-84.863281-101.824219 242.625 144.75 144.75c9.464844 1.0625 19.082031 1.625 28.828125 1.625 141.386719 0 256-114.613281 256-256zm0 0" fill="#00c2ef"/><path d="m135.246094 123h49v26.195312h-49zm0 0" fill="#4b1b7a"/><path d="m327.753906 123h49v26.195312h-49zm0 0" fill="#2c0652"/><path d="m232.910156 60h46.179688v89.195312h-46.179688zm0 0" fill="#4b1b7a"/><path d="m255.761719 60h23.328125v89.195312h-23.328125zm0 0" fill="#2c0652"/><path d="m445.816406 309.421875-11.71875-110.894531c-3.738281-35.40625-33.601562-62.277344-69.203125-62.277344h-217.789062c-35.601563 0-65.460938 26.871094-69.203125 62.277344l-11.71875 110.894531c-4.789063 41.546875 24.285156 78.328125 61.914062 78.328125 28.777344 0 53.824219-21.894531 60.644532-53.015625l10.699218-48.824219h113.117188l10.699218 48.824219c6.816407 31.117187 31.867188 53.015625 60.644532 53.015625 37.628906 0 66.703125-36.78125 61.914062-78.328125zm0 0" fill="#613394"/><path d="m445.816406 309.421875-11.71875-110.894531c-3.738281-35.40625-33.601562-62.277344-69.203125-62.277344h-109.132812v149.660156h56.796875l10.699218 48.824219c6.816407 31.121094 31.867188 53.019531 60.644532 53.019531 37.628906-.003906 66.703125-36.785156 61.914062-78.332031zm0 0" fill="#4b1b7a"/><path d="m215.917969 210.789062c0 34.019532-27.574219 61.59375-61.59375 61.59375-34.015625 0-61.59375-27.574218-61.59375-61.59375 0-34.015624 27.578125-61.59375 61.59375-61.59375 34.019531 0 61.59375 27.578126 61.59375 61.59375zm0 0" fill="#8f4cd6"/><path d="m419.269531 210.789062c0 34.019532-27.578125 61.59375-61.59375 61.59375-34.019531 0-61.59375-27.574218-61.59375-61.59375 0-34.015624 27.574219-61.59375 61.59375-61.59375 34.015625 0 61.59375 27.578126 61.59375 61.59375zm0 0" fill="#7a3eb5"/><path d="m232.910156 293.664062c0 11.753907-9.527344 21.28125-21.28125 21.28125s-21.28125-9.527343-21.28125-21.28125c0-11.753906 9.527344-21.28125 21.28125-21.28125s21.28125 9.527344 21.28125 21.28125zm0 0" fill="#8f4cd6"/><path d="m321.652344 293.664062c0 11.753907-9.527344 21.28125-21.28125 21.28125s-21.28125-9.527343-21.28125-21.28125c0-11.753906 9.527344-21.28125 21.28125-21.28125s21.28125 9.527344 21.28125 21.28125zm0 0" fill="#7a3eb5"/><path d="m193.058594 198.125h-26.066406v-26.070312h-25.335938v26.066406h-26.066406v25.335937h26.066406v26.066407h25.335938v-26.066407h26.066406zm0 0" fill="#613394"/><g fill="#4b1b7a"><path d="m374.34375 183.957031c0 9.203125-7.464844 16.667969-16.667969 16.667969-9.207031 0-16.667969-7.464844-16.667969-16.667969s7.460938-16.667969 16.667969-16.667969c9.203125 0 16.667969 7.464844 16.667969 16.667969zm0 0"/><path d="m374.34375 237.621094c0 9.207031-7.464844 16.667968-16.667969 16.667968-9.207031 0-16.667969-7.460937-16.667969-16.667968 0-9.203125 7.460938-16.664063 16.667969-16.664063 9.203125 0 16.667969 7.460938 16.667969 16.664063zm0 0"/><path d="m401.175781 210.789062c0 9.207032-7.460937 16.667969-16.667969 16.667969-9.203124 0-16.664062-7.460937-16.664062-16.667969 0-9.203124 7.460938-16.667968 16.664062-16.667968 9.207032 0 16.667969 7.464844 16.667969 16.667968zm0 0"/><path d="m347.507812 210.789062c0 9.207032-7.460937 16.667969-16.664062 16.667969-9.207031 0-16.667969-7.460937-16.667969-16.667969 0-9.203124 7.460938-16.667968 16.667969-16.667968 9.203125 0 16.664062 7.464844 16.664062 16.667968zm0 0"/></g></svg>