<svg viewBox="0 0 512 512" xmlns="http://www.w3.org/2000/svg"><path d="m512 256c0 141.386719-114.613281 256-256 256s-256-114.613281-256-256 114.613281-256 256-256 256 114.613281 256 256zm0 0" fill="#ff551c"/><path d="m292.433594 509.40625c121.578125-17.324219 215.621094-120.050781 219.433594-245.488281l-161.808594-161.808594-222.808594 196.472656 131.648438 131.648438-24.871094 20.769531zm0 0" fill="#d13400"/><path d="m382.121094 186.121094c0 69.65625-56.464844 126.121094-126.121094 126.121094s-126.121094-56.464844-126.121094-126.121094 56.464844-126.121094 126.121094-126.121094 126.121094 56.464844 126.121094 126.121094zm0 0" fill="#fff"/><path d="m256 60c-.277344 0-.554688.007812-.832031.011719v252.222656c.277343 0 .554687.007813.832031.007813 69.65625 0 126.121094-56.464844 126.121094-126.121094 0-69.652344-56.464844-126.121094-126.121094-126.121094zm0 0" fill="#e9edf5"/><path d="m361.101562 277.035156h-210.203124s52.316406 44.363282 83.128906 173.964844h43.945312c30.808594-129.601562 83.128906-173.964844 83.128906-173.964844zm0 0" fill="#ffce00"/><path d="m255.167969 277.035156v173.964844h22.804687c30.808594-129.601562 83.128906-173.964844 83.128906-173.964844zm0 0" fill="#ffb600"/><path d="m127.25 255.488281h257.5v43.09375h-257.5zm0 0" fill="#ffb600"/><path d="m255.167969 255.488281h129.582031v43.09375h-129.582031zm0 0" fill="#ff9100"/><g fill="#bec3d2"><path d="m321.164062 113.601562c0 8.707032-7.058593 15.765626-15.765624 15.765626-8.707032 0-15.765626-7.058594-15.765626-15.765626 0-8.707031 7.058594-15.765624 15.765626-15.765624 8.707031 0 15.765624 7.058593 15.765624 15.765624zm0 0"/><path d="m352.695312 158.796875c0 8.707031-7.058593 15.765625-15.765624 15.765625-8.707032 0-15.765626-7.058594-15.765626-15.765625s7.058594-15.765625 15.765626-15.765625c8.707031 0 15.765624 7.058594 15.765624 15.765625zm0 0"/><path d="m289.632812 158.796875c0 8.707031-7.058593 15.765625-15.765624 15.765625-8.707032 0-15.765626-7.058594-15.765626-15.765625s7.058594-15.765625 15.765626-15.765625c8.707031 0 15.765624 7.058594 15.765624 15.765625zm0 0"/></g></svg>