<svg viewBox="0 0 512 512" xmlns="http://www.w3.org/2000/svg"><path d="m512 256c0 141.386719-114.613281 256-256 256s-256-114.613281-256-256 114.613281-256 256-256 256 114.613281 256 256zm0 0" fill="#ffce00"/><path d="m278.960938 510.964844c128.550781-11.429688 229.773437-117.859375 232.957031-248.613282l-159.269531-159.269531-20.109376 23.957031-67.039062-67.039062-145.765625 100 127.882813 127.882812 2.382812 28.867188-38.953125 14.597656-144.402344-62.355468 103.558594 103.558593-17.523437 12.128907zm0 0" fill="#ffb600"/><path d="m246.5 60h19v286.5h-19zm0 0" fill="#fff"/><path d="m255.761719 60h9.738281v286.5h-9.738281zm0 0" fill="#e9edf5"/><path d="m187.222656 384.679688h-34.542968l32.699218-59.414063h34.542969zm0 0" fill="#a260e5"/><path d="m387.570312 384.679688h34.542969l-32.699219-59.414063h-34.542968zm0 0" fill="#8f4cd6"/><path d="m174.007812 302.105469-70.359374-65.152344c-4.546876-4.210937-10.519532-6.550781-16.71875-6.550781-22.378907 0-33.136719 27.453125-16.714844 42.660156l88.460937 81.910156h246.890625c14.601563 0 26.4375-11.832031 26.4375-26.433594 0-14.601562-11.835937-26.433593-26.4375-26.433593zm0 0" fill="#613394"/><path d="m405.566406 302.105469h-149.804687v52.871093h149.804687c14.597656 0 26.433594-11.835937 26.433594-26.4375 0-14.597656-11.835938-26.433593-26.433594-26.433593zm0 0" fill="#4b1b7a"/><path d="m256 66.5c-62.125 0-115.179688 38.808594-136.265625 93.5h272.53125c-21.085937-54.691406-74.140625-93.5-136.265625-93.5zm0 0" fill="#ff551c"/><path d="m256 66.5c-.078125 0-.160156.003906-.238281.003906v93.496094h136.503906c-21.085937-54.691406-74.140625-93.5-136.265625-93.5zm0 0" fill="#f24500"/><path d="m256 66.5c-35.789062 0-66.351562 38.808594-78.5 93.5h157c-12.148438-54.691406-42.710938-93.5-78.5-93.5zm0 0" fill="#fff"/><path d="m256 66.5c-.078125 0-.160156.003906-.238281.003906v93.496094h78.738281c-12.148438-54.691406-42.710938-93.5-78.5-93.5zm0 0" fill="#e9edf5"/><path d="m256 66.5c-15.273438 0-28.316406 38.808594-33.5 93.5h67c-5.183594-54.691406-18.226562-93.5-33.5-93.5zm0 0" fill="#ff551c"/><path d="m256 66.5c-.078125 0-.160156.007812-.238281.011719v93.488281h33.738281c-5.183594-54.691406-18.226562-93.5-33.5-93.5zm0 0" fill="#f24500"/></svg>