<svg viewBox="0 0 512 512" xmlns="http://www.w3.org/2000/svg"><path d="m512 256c0 141.386719-114.613281 256-256 256s-256-114.613281-256-256 114.613281-256 256-256 256 114.613281 256 256zm0 0" fill="#613394"/><path d="m141.042969 392.683594 119.261719 119.261718c139.398437-2.300781 251.695312-116 251.695312-255.945312 0-10.273438-.621094-20.398438-1.800781-30.351562l-78.28125-78.285157zm0 0" fill="#4b1b7a"/><path d="m326.71875 408.933594-130.617188-41.328125c-17.375-5.496094-27.003906-24.039063-21.507812-41.417969l67.269531-212.613281c5.496094-17.375 24.039063-27.003907 41.417969-21.507813l130.617188 41.328125c17.375 5.5 27.003906 24.042969 21.507812 41.417969l-67.269531 212.613281c-5.496094 17.375-24.039063 27.003907-41.417969 21.507813zm0 0" fill="#ff551c"/><path d="m413.898438 133.394531-61.660157-19.507812-93.992187 273.382812 68.472656 21.664063c17.378906 5.496094 35.921875-4.132813 41.417969-21.507813l67.269531-212.613281c5.5-17.378906-4.132812-35.921875-21.507812-41.417969zm0 0" fill="#f24500"/><path d="m302 403h-137c-18.226562 0-33-14.773438-33-33v-223c0-18.226562 14.773438-33 33-33h137c18.226562 0 33 14.773438 33 33v223c0 18.226562-14.773438 33-33 33zm0 0" fill="#fff"/><path d="m302 114h-68.5v289h68.5c18.226562 0 33-14.773438 33-33v-223c0-18.226562-14.773438-33-33-33zm0 0" fill="#e9edf5"/><path d="m161.832031 237.539062c0-20.839843 16.894531-37.730468 37.730469-37.730468 14.921875 0 27.816406 8.664062 33.9375 21.230468 6.121094-12.566406 19.015625-21.230468 33.9375-21.230468 20.835938 0 37.730469 16.890625 37.730469 37.730468 0 50.507813-71.667969 79.652344-71.667969 79.652344s-71.667969-34.335937-71.667969-79.652344zm0 0" fill="#ff551c"/><path d="m233.5 317.191406s71.667969-29.144531 71.667969-79.652344c0-20.839843-16.894531-37.730468-37.730469-37.730468-14.921875 0-27.816406 8.664062-33.9375 21.230468zm0 0" fill="#db3305"/></svg>