<svg viewBox="0 0 512 512" xmlns="http://www.w3.org/2000/svg"><path d="m512 256c0 141.386719-114.613281 256-256 256s-256-114.613281-256-256 114.613281-256 256-256 256 114.613281 256 256zm0 0" fill="#2864f0"/><path d="m512 256c0-7.503906-.34375-14.929688-.976562-22.269531l-154.945313-154.945313-199.765625 343.804688 89.203125 89.199218c3.488281.140626 6.964844.210938 10.484375.210938 141.386719 0 256-114.613281 256-256zm0 0" fill="#0053bf"/><path d="m334.847656 430.667969h-157.695312c-17.078125 0-30.921875-13.847657-30.921875-30.925781v-298.484376c0-17.078124 13.84375-30.925781 30.921875-30.925781h157.695312c17.078125 0 30.921875 13.847657 30.921875 30.925781v298.484376c0 17.078124-13.84375 30.925781-30.921875 30.925781zm0 0" fill="#fff"/><path d="m334.847656 70.332031h-79.242187v360.332031h79.242187c17.078125 0 30.921875-13.84375 30.921875-30.921874v-298.484376c0-17.078124-13.84375-30.925781-30.921875-30.925781zm0 0" fill="#e9edf5"/><path d="m171.882812 104.933594h168.234376v145.566406h-168.234376zm0 0" fill="#00f3ff"/><path d="m255.605469 104.933594h84.511719v145.566406h-84.511719zm0 0" fill="#00c2ef"/><path d="m326.296875 336.867188c0 38.824218-31.472656 70.296874-70.296875 70.296874s-70.296875-31.472656-70.296875-70.296874c0-38.824219 31.472656-70.296876 70.296875-70.296876s70.296875 31.472657 70.296875 70.296876zm0 0" fill="#e1e1e6"/><path d="m256 266.570312c-.132812 0-.261719.007813-.394531.007813v140.574219c.132812.003906.261719.011718.394531.011718 38.824219 0 70.296875-31.472656 70.296875-70.296874 0-38.824219-31.472656-70.296876-70.296875-70.296876zm0 0" fill="#d2d2d7"/><path d="m282.496094 336.867188c0 14.632812-11.863282 26.496093-26.496094 26.496093s-26.496094-11.863281-26.496094-26.496093c0-14.632813 11.863282-26.5 26.496094-26.5s26.496094 11.867187 26.496094 26.5zm0 0" fill="#b9b9be"/><path d="m256 310.367188c-.132812 0-.261719.011718-.394531.011718v52.976563c.132812 0 .261719.007812.394531.007812 14.636719 0 26.496094-11.859375 26.496094-26.496093 0-14.636719-11.859375-26.5-26.496094-26.5zm0 0" fill="#919196"/><path d="m302.375 119.34375-60.582031 11.722656v55.820313c-4.804688-.542969-10.113281.191406-15.257813 2.390625-12.964844 5.542968-19.960937 18.253906-15.625 28.394531 4.332032 10.136719 18.355469 13.863281 31.320313 8.324219 10.242187-4.378906 16.75-13.230469 16.898437-21.757813h.011719v-57.148437l43.234375-8.367188zm0 0" fill="#613394"/><path d="m255.605469 128.394531v86.648438c2.210937-3.40625 3.460937-7.132813 3.523437-10.804688h.007813v-57.148437l43.238281-8.367188v-19.378906zm0 0" fill="#4b1b7a"/></svg>