<svg viewBox="0 0 512 512" xmlns="http://www.w3.org/2000/svg"><path d="m512 256c0 141.386719-114.613281 256-256 256s-256-114.613281-256-256 114.613281-256 256-256 256 114.613281 256 256zm0 0" fill="#2864f0"/><path d="m512 256c0-7.695312-.359375-15.308594-1.023438-22.832031l-143.324218-143.320313-23.035156 54.222656-57.917969-57.914062-15.160157 80.445312-69.542968-69.542968-79.636719 313.683594 98.90625 98.902343c11.359375 1.542969 22.949219 2.355469 34.734375 2.355469 141.386719 0 256-114.613281 256-256zm0 0" fill="#0053bf"/><path d="m245.226562 311.238281c0-46.269531-12.972656-87.078125-32.71875-111.265625-9.78125-11.980468-14.929687-27.082031-14.929687-42.550781v-1.164063c0-9.625 1.71875-19.234374 5.617187-28.035156 2.257813-5.101562 3.355469-10.832031 2.945313-16.859375-1.195313-17.585937-15.433594-31.839843-33.015625-33.046875-20.804688-1.425781-38.125 15.027344-38.125 35.527344 0 5 1.03125 9.753906 2.894531 14.070312 3.609375 8.363282 5.753907 17.28125 5.753907 26.386719v3.121094c0 15.46875-5.148438 30.570313-14.929688 42.550781-19.746094 24.1875-32.71875 64.996094-32.71875 111.265625 0 33.785157 6.914062 64.660157 18.335938 88.28125 6.910156 14.292969 21.507812 23.269531 37.382812 23.269531h37.789062c15.875 0 30.46875-8.976562 37.382813-23.269531 11.417969-23.621093 18.335937-54.496093 18.335937-88.28125zm0 0" fill="#dce1eb"/><path d="m201.996094 181.671875c-2.910156-7.691406-4.417969-15.914063-4.417969-24.25v-1.164063c0-.546874.027344-1.089843.035156-1.636718h-53.964843v2.800781c0 8.335937-1.507813 16.558594-4.417969 24.25zm0 0" fill="#ff551c"/><path d="m416 311.238281c0-46.269531-12.972656-87.078125-32.71875-111.265625-9.78125-11.980468-14.929688-27.082031-14.929688-42.550781v-1.164063c0-9.625 1.71875-19.234374 5.617188-28.035156 2.257812-5.101562 3.355469-10.832031 2.945312-16.859375-1.191406-17.585937-15.433593-31.839843-33.015624-33.046875-20.804688-1.425781-38.125 15.027344-38.125 35.527344 0 5 1.035156 9.753906 2.894531 14.070312 3.609375 8.363282 5.753906 17.28125 5.753906 26.386719v3.121094c0 15.46875-5.148437 30.570313-14.929687 42.550781-19.746094 24.1875-32.71875 64.996094-32.71875 111.265625 0 33.785157 6.914062 64.660157 18.335937 88.28125 6.910156 14.292969 21.503906 23.269531 37.382813 23.269531h37.785156c15.878906 0 30.472656-8.976562 37.382812-23.269531 11.425782-23.621093 18.339844-54.496093 18.339844-88.28125zm0 0" fill="#cdd2e1"/><path d="m372.769531 181.671875c-2.910156-7.691406-4.417969-15.914063-4.417969-24.25v-1.164063c0-.546874.027344-1.089843.035157-1.636718h-53.964844v2.800781c0 8.335937-1.507813 16.558594-4.417969 24.25zm0 0" fill="#f24500"/><path d="m337.347656 325.074219c0-50.449219-14.144531-94.9375-35.671875-121.308594-10.664062-13.066406-16.277343-29.527344-16.277343-46.394531v-1.269532c0-10.492187 1.875-20.96875 6.125-30.566406 2.460937-5.5625 3.65625-11.808594 3.210937-18.382812-1.300781-19.167969-16.824219-34.710938-35.996094-36.027344-22.683593-1.554688-41.566406 16.382812-41.566406 38.730469 0 5.453125 1.128906 10.636719 3.15625 15.34375 3.933594 9.117187 6.273437 18.839843 6.273437 28.769531v3.402344c0 16.867187-5.613281 33.328125-16.277343 46.394531-21.53125 26.371094-35.671875 70.859375-35.671875 121.304687 0 36.835938 7.539062 70.5 19.992187 96.25 7.535157 15.585938 23.445313 25.371094 40.757813 25.371094h41.195312c17.3125 0 33.222656-9.785156 40.757813-25.371094 12.453125-25.75 19.992187-59.410156 19.992187-96.246093zm0 0" fill="#fff"/><path d="m301.675781 203.765625c-10.664062-13.0625-16.277343-29.527344-16.277343-46.390625v-1.269531c0-10.496094 1.875-20.972657 6.125-30.570313 2.460937-5.558594 3.65625-11.808594 3.210937-18.378906-1.300781-19.171875-16.824219-34.714844-35.996094-36.03125-1.054687-.070312-2.097656-.089844-3.132812-.078125v375.648437h20.992187c17.3125 0 33.222656-9.785156 40.757813-25.371093 12.453125-25.75 19.992187-59.414063 19.992187-96.25 0-50.445313-14.140625-94.9375-35.671875-121.308594zm0 0" fill="#e9edf5"/><path d="m290.214844 183.816406c-3.171875-8.386718-4.816406-17.355468-4.816406-26.441406v-1.269531c0-.59375.027343-1.1875.039062-1.785157h-58.835938v3.050782c0 9.089844-1.644531 18.058594-4.816406 26.441406h68.429688zm0 0" fill="#ff551c"/><path d="m285.398438 157.375v-1.269531c0-.59375.027343-1.191407.039062-1.785157h-29.832031v29.492188h34.609375c-3.171875-8.382812-4.816406-17.351562-4.816406-26.4375zm0 0" fill="#f24500"/></svg>