<svg viewBox="0 0 512 512" xmlns="http://www.w3.org/2000/svg"><path d="m512 256c0 141.386719-114.613281 256-256 256s-256-114.613281-256-256 114.613281-256 256-256 256 114.613281 256 256zm0 0" fill="#613394"/><path d="m512 256c0-9.320312-.511719-18.519531-1.480469-27.578125l-102.679687-102.679687-327.875 237.386718 147.253906 147.25c9.449219 1.058594 19.050781 1.621094 28.78125 1.621094 141.386719 0 256-114.613281 256-256zm0 0" fill="#4b1b7a"/><path d="m407.839844 351.417969h-317.226563v-175.738281c0-27.582032 22.359375-49.9375 49.9375-49.9375h267.289063zm0 0" fill="#fff"/><path d="m256.210938 125.742188h151.628906v225.675781h-151.628906zm0 0" fill="#e9edf5"/><path d="m285.417969 182.160156h94.742187v169.261719h-94.742187zm0 0" fill="#2864f0"/><path d="m133.191406 182.160156h118.164063v84.628906h-118.164063zm0 0" fill="#00f3ff"/><path d="m79.964844 333.320312h347.035156v29.808594h-347.035156zm0 0" fill="#ffce00"/><path d="m256.210938 333.320312h170.789062v29.808594h-170.789062zm0 0" fill="#ffb600"/><path d="m211.96875 351.949219c0 23.226562-18.828125 42.050781-42.050781 42.050781-23.222657 0-42.050781-18.824219-42.050781-42.050781 0-23.222657 18.828124-42.046875 42.050781-42.046875 23.222656 0 42.050781 18.824218 42.050781 42.046875zm0 0" fill="#2864f0"/><path d="m195.773438 351.949219c0 14.28125-11.578126 25.855469-25.855469 25.855469-14.277344 0-25.855469-11.574219-25.855469-25.855469 0-14.277344 11.578125-25.851563 25.855469-25.851563 14.277343 0 25.855469 11.574219 25.855469 25.851563zm0 0" fill="#e6f1ff"/></svg>