<svg viewBox="0 0 512 512" xmlns="http://www.w3.org/2000/svg"><path d="m512 256c0 141.386719-114.613281 256-256 256s-256-114.613281-256-256 114.613281-256 256-256 256 114.613281 256 256zm0 0" fill="#ff551c"/><path d="m508.613281 297.613281-240.613281-240.613281-38.75 38.5 35.433594 35.433594-72.683594 84.066406 65.953125 65.953125-90.820313 155.046875 75.664063 75.664062c4.375.222657 8.773437.335938 13.203125.335938 127.214844 0 232.734375-92.796875 252.613281-214.386719zm0 0" fill="#d13400"/><path d="m282.75 73.5h-14.75v-16.5h-24v16.5h-14.75v22h14.75v32.5h24v-32.5h14.75zm0 0" fill="#dce1eb"/><path d="m268 73.5v-16.5h-12.394531v71h12.394531v-32.5h14.75v-22zm0 0" fill="#cdd2e1"/><path d="m300 166h-88l-20-55h128zm0 0" fill="#fff"/><path d="m320 111h-64.394531v55h44.394531zm0 0" fill="#e9edf5"/><path d="m318.5 415h-125l20-215h85zm0 0" fill="#fff"/><path d="m298.5 200h-42.894531v215h62.894531zm0 0" fill="#e9edf5"/><path d="m192 160h128v55h-128zm0 0" fill="#dce1eb"/><path d="m255.605469 160h64.394531v55h-64.394531zm0 0" fill="#cdd2e1"/><path d="m167.132812 381h177.734376v55h-177.734376zm0 0" fill="#dce1eb"/><path d="m255.605469 381h89.261719v55h-89.261719zm0 0" fill="#cdd2e1"/></svg>