<svg viewBox="0 0 512 512" xmlns="http://www.w3.org/2000/svg"><path d="m512 256c0 141.386719-114.613281 256-256 256s-256-114.613281-256-256 114.613281-256 256-256 256 114.613281 256 256zm0 0" fill="#00f3ff"/><path d="m511.488281 271.984375-73.429687-73.433594-4.605469 6.117188-34.941406-34.941407-94.503907 104.117188-113.820312-113.816406-113.1875 156.417968 195.039062 195.039063c128.625-7.953125 231.523438-110.871094 239.449219-239.5zm0 0" fill="#00c2ef"/><path d="m99.152344 218.707031h311.503906v74.585938h-311.503906zm0 0" fill="#613394"/><path d="m255.761719 218.707031h154.894531v74.585938h-154.894531zm0 0" fill="#4b1b7a"/><path d="m145.632812 322.320312h-52.28125c-14.183593 0-25.683593-11.5-25.683593-25.683593v-81.273438c0-14.183593 11.5-25.683593 25.683593-25.683593h52.28125zm0 0" fill="#ff551c"/><path d="m190.1875 351.972656h-54.726562c-16.421876 0-29.730469-13.308594-29.730469-29.726562v-132.492188c0-16.417968 13.308593-29.726562 29.730469-29.726562h54.726562zm0 0" fill="#2864f0"/><path d="m366.367188 189.679688h52.28125c14.183593 0 25.683593 11.5 25.683593 25.683593v81.273438c0 14.183593-11.5 25.683593-25.683593 25.683593h-52.28125zm0 0" fill="#f24500"/><path d="m321.8125 160.027344h54.726562c16.421876 0 29.730469 13.308594 29.730469 29.726562v132.492188c0 16.417968-13.308593 29.726562-29.730469 29.726562h-54.726562zm0 0" fill="#0053bf"/></svg>