<svg viewBox="0 0 512 512" xmlns="http://www.w3.org/2000/svg"><path d="m512 256c0 141.386719-114.613281 256-256 256s-256-114.613281-256-256 114.613281-256 256-256 256 114.613281 256 256zm0 0" fill="#ffce00"/><path d="m512 256c0-16.238281-1.53125-32.117188-4.421875-47.519531l-93.480469-93.480469-337.097656 232.730469 163.808594 163.808593c5.027344.292969 10.089844.460938 15.191406.460938 141.386719 0 256-114.613281 256-256zm0 0" fill="#ffb600"/><path d="m97.902344 115h316.195312v218.5h-316.195312zm0 0" fill="#2864f0"/><path d="m255.605469 115h158.492187v218.5h-158.492187zm0 0" fill="#0053bf"/><path d="m127.367188 141.550781h257.265624v165.398438h-257.265624zm0 0" fill="#00f3ff"/><path d="m255.605469 141.550781h129.027343v165.398438h-129.027343zm0 0" fill="#00c2ef"/><path d="m77 286.234375h358v61.496094h-358zm0 0" fill="#0053bf"/><path d="m255.605469 286.234375h179.394531v61.496094h-179.394531zm0 0" fill="#27488f"/><path d="m364.328125 233.628906-178.625-57.871094 57.871094 178.625 15.90625-60.195312 64.054687 64.054688 44.652344-44.652344-64.054688-64.054688zm0 0" fill="#fff"/><path d="m345.828125 335.949219 22.359375-22.359375-64.058594-64.054688 60.199219-15.90625-178.625-57.871094zm0 0" fill="#f0f0f0"/></svg>