<svg viewBox="0 0 512 512" xmlns="http://www.w3.org/2000/svg"><path d="m512 256c0 141.386719-114.613281 256-256 256s-256-114.613281-256-256 114.613281-256 256-256 256 114.613281 256 256zm0 0" fill="#ffce00"/><path d="m506.3125 309.824219-166.8125-166.8125-60.5 13.988281 66.640625 66.640625 1.910156 25.078125-110.882812-110.886719-102.058594 36.214844 62.402344 62.402344-116.957031 116.214843 158.746093 158.746094c5.6875.378906 11.417969.589844 17.199219.589844 122.921875 0 225.589844-86.640625 250.3125-202.175781zm0 0" fill="#ffb600"/><path d="m218.164062 297.832031c0 39.121094-31.710937 70.832031-70.832031 70.832031-39.117187 0-70.832031-31.710937-70.832031-70.832031 0-39.121093 31.714844-70.832031 70.832031-70.832031 39.121094 0 70.832031 31.710938 70.832031 70.832031zm0 0" fill="#fff"/><path d="m147.332031 384.664062c-47.878906 0-86.832031-38.949218-86.832031-86.832031 0-47.878906 38.953125-86.832031 86.832031-86.832031 47.882813 0 86.835938 38.953125 86.835938 86.832031 0 47.878907-38.953125 86.832031-86.835938 86.832031zm0-141.664062c-30.234375 0-54.832031 24.597656-54.832031 54.832031s24.597656 54.832031 54.832031 54.832031 54.835938-24.597656 54.835938-54.832031-24.601563-54.832031-54.835938-54.832031zm0 0" fill="#613394"/><path d="m423.5 297.832031c0 39.121094-31.714844 70.832031-70.832031 70.832031-39.121094 0-70.832031-31.710937-70.832031-70.832031 0-39.121093 31.710937-70.832031 70.832031-70.832031 39.117187 0 70.832031 31.710938 70.832031 70.832031zm0 0" fill="#e6eced"/><path d="m352.667969 384.664062c-47.882813 0-86.835938-38.949218-86.835938-86.832031 0-47.878906 38.953125-86.832031 86.835938-86.832031 47.878906 0 86.832031 38.953125 86.832031 86.832031 0 47.878907-38.953125 86.832031-86.832031 86.832031zm0-141.664062c-30.234375 0-54.835938 24.597656-54.835938 54.832031s24.601563 54.832031 54.835938 54.832031 54.832031-24.597656 54.832031-54.832031-24.597656-54.832031-54.832031-54.832031zm0 0" fill="#4b1b7a"/><path d="m244.332031 309.832031h-97l-11.570312-15.167969 37.664062-137.5 19.042969-6.222656 143.175781 113.855469-18.128906-107.796875h-38.515625v-24h48.667969l11.832031 10.011719 25 148.664062-19.300781 11.382813-74.578125-59.304688-14.667969 57.066406zm-81.269531-24h71.964844l15.019531-58.441406-58.277344-46.34375zm0 0" fill="#2864f0"/><path d="m339.5 143.011719-11.832031-10.011719h-48.667969v24h38.515625l18.128906 107.796875-97.734375-77.71875-8.457031 23.9375 20.59375 16.375-15.019531 58.441406h-32.011719l-8.480469 24h49.796875l11.621094-9.011719 14.667969-57.066406 74.578125 59.304688 19.300781-11.382813zm0 0" fill="#0053bf"/><path d="m160.058594 187.953125-25.449219-13.90625 19.789063-36.214844h82.269531v29h-65.066407zm0 0" fill="#613394"/></svg>