<svg viewBox="0 0 512 512" xmlns="http://www.w3.org/2000/svg"><path d="m512 256c0 141.386719-114.613281 256-256 256s-256-114.613281-256-256 114.613281-256 256-256 256 114.613281 256 256zm0 0" fill="#ffce00"/><path d="m511.667969 269.113281-64.472657-64.472656-44.652343 41.058594-77.292969-77.292969-45.289062 42.578125-97.914063-97.910156-104.851563 132.222656 131.03125 131.03125-43.128906 58.671875 76.597656 76.59375c4.734376.261719 9.503907.40625 14.304688.40625 136.988281 0 248.84375-107.59375 255.667969-242.886719zm0 0" fill="#ffb600"/><path d="m328.097656 435-60-192h-43l-60 192h40.027344l41.472656-132.722656 41.476563 132.722656zm0 0" fill="#2864f0"/><path d="m246.597656 302.277344 41.476563 132.722656h40.023437l-60-192h-21.5zm0 0" fill="#0053bf"/><path d="m248.609375 159.953125 181.148437 46.113281-23.683593 93.035156-181.148438-46.117187zm0 0" fill="#2864f0"/><path d="m237.21875 204.734375-12.277344 48.242187 181.148438 46.105469 11.914062-46.800781zm0 0" fill="#0053bf"/><path d="m144.09375 122.304688 181.148438 46.117187-28.960938 113.769531-181.152344-46.117187zm0 0" fill="#0053bf"/><path d="m130.277344 176.609375-15.132813 59.460937 181.148438 46.105469 14.769531-58.019531zm0 0" fill="#27488f"/><path d="m115.171875 96.058594 66.871094 17.023437-37.992188 149.242188-66.867187-17.023438zm0 0" fill="#2864f0"/><path d="m96.910156 167.835938-19.714844 77.460937 66.867188 17.019531 19.582031-76.929687zm0 0" fill="#0053bf"/><path d="m400.585938 192.800781 46.597656 11.863281-26.472656 104.003907-46.601563-11.863281zm0 0" fill="#0053bf"/><path d="m387.496094 244.257812-13.371094 52.527344 46.601562 11.859375 13.273438-52.15625zm0 0" fill="#27488f"/></svg>