<svg viewBox="0 0 512 512" xmlns="http://www.w3.org/2000/svg"><path d="m512 256c0 141.386719-114.613281 256-256 256s-256-114.613281-256-256 114.613281-256 256-256 256 114.613281 256 256zm0 0" fill="#613394"/><path d="m512 256c0-6.464844-.246094-12.871094-.714844-19.214844l-105.785156-105.785156-299 119 63.820312 63.820312-93.320312 13.179688 38.011719 38.011719-24.878907 35.988281 103.28125 103.28125c20.03125 5.03125 40.992188 7.71875 62.585938 7.71875 141.386719 0 256-114.613281 256-256zm0 0" fill="#4b1b7a"/><path d="m339.632812 180h32.734376v123h-32.734376zm0 0" fill="#ff9d00"/><path d="m138.632812 180h32.734376v123h-32.734376zm0 0" fill="#ffb000"/><path d="m90.132812 303h32.734376v98h-32.734376zm0 0" fill="#ffb000"/><path d="m381.132812 303h32.734376v98h-32.734376zm0 0" fill="#ff9d00"/><path d="m106.5 131h299v119h-299zm0 0" fill="#ffce00"/><path d="m255.605469 131h149.894531v119h-149.894531zm0 0" fill="#ffb600"/><path d="m77 279h358v48h-358zm0 0" fill="#ffce00"/><path d="m255.605469 279h179.394531v48h-179.394531zm0 0" fill="#ffb600"/></svg>