<svg viewBox="0 0 512 512" xmlns="http://www.w3.org/2000/svg"><path d="m512 256c0 141.386719-114.613281 256-256 256s-256-114.613281-256-256 114.613281-256 256-256 256 114.613281 256 256zm0 0" fill="#ff551c"/><path d="m512 256c0-.777344-.023438-1.550781-.03125-2.328125l-199.46875-199.472656-8.816406 104.1875-104.183594-104.1875-6.058594 194.636719c-38.414062 4.070312-67.320312 7.164062-66.441406 7.164062l119.878906 119.878906-97.878906 59.121094 75.015625 75.015625c10.476563 1.304687 21.152344 1.984375 31.984375 1.984375 141.386719 0 256-114.613281 256-256zm0 0" fill="#d13400"/><path d="m199.5 258-.003906-.003906c-56.277344-56.277344-56.273438-147.519532.003906-203.796875l.003906.003906c56.277344 56.277344 56.273438 147.523437-.003906 203.796875zm0 0" fill="#fff"/><path d="m312.5 258-.003906-.003906c-56.277344-56.277344-56.273438-147.519532.003906-203.796875l.003906.003906c56.277344 56.277344 56.273438 147.523437-.003906 203.796875zm0 0" fill="#dce1eb"/><path d="m312.488281 241.5-.046875-.046875c-37.964844-37.96875-37.964844-99.527344.003906-137.496094l.046876.046875c37.96875 37.96875 37.96875 99.527344-.003907 137.496094zm0 0" fill="#b9b9be"/><path d="m199.523438 241.5-.046876-.046875c-37.96875-37.96875-37.96875-99.527344 0-137.496094l.046876.046875c37.96875 37.96875 37.96875 99.527344 0 137.496094zm0 0" fill="#d2d2d7"/><path d="m362 435c-71 0-142 0-213 0 20.855469-64.183594 20.855469-133.316406 0-197.5h213c-20.855469 64.183594-20.855469 133.316406 0 197.5zm0 0" fill="#7a3eb5"/><path d="m362 237.5c-35.464844 0-70.929688 0-106.394531 0v197.5h106.394531c-20.855469-64.183594-20.855469-133.316406 0-197.5zm0 0" fill="#613394"/><path d="m127 219h258v37h-258zm0 0" fill="#613394"/><path d="m255.605469 219h129.394531v37h-129.394531zm0 0" fill="#4b1b7a"/></svg>