<svg viewBox="0 0 512 512" xmlns="http://www.w3.org/2000/svg"><path d="m512 256c0 141.386719-114.613281 256-256 256s-256-114.613281-256-256 114.613281-256 256-256 256 114.613281 256 256zm0 0" fill="#00f3ff"/><path d="m512 256c0-19.167969-2.121094-37.839844-6.117188-55.804688l-133.472656-133.46875-230.996094 54.410157 114.027344 114.023437-135.734375 237.5625c39.46875 24.875 86.195313 39.277344 136.292969 39.277344 37.710938 0 73.519531-8.160156 105.753906-22.800781l4.425782-4.425781 1.589843 1.59375c85.378907-41.503907 144.230469-129.058594 144.230469-230.367188zm0 0" fill="#00c2ef"/><path d="m103.195312 461.410156c5.34375 3.980469 10.855469 7.75 16.511719 11.3125l79.640625-125.933594-16.90625-10.6875zm0 0" fill="#a260e5"/><path d="m111.101562 467.058594c2.828126 1.945312 5.699219 3.832031 8.605469 5.664062l79.640625-125.933594-9.90625-6.261718zm0 0" fill="#8f4cd6"/><path d="m146.65625 411.304688 5.195312-298.300782 212.0625-51.554687 47.816407 212.941406zm0 0" fill="#ff551c"/><path d="m411.730469 274.390625-47.816407-212.941406-1.992187.484375-215.234375 347.648437-.03125 1.722657zm0 0" fill="#d13400"/><path d="m419.621094 270.359375-125.332032-77.832031 78.121094-125.800782-16.988281-10.550781-78.125 125.800781-125.332031-77.832031-10.550782 16.992188 125.332032 77.832031-128.585938 207.0625 16.992188 10.550781 128.585937-207.0625 125.332031 77.828125zm0 0" fill="#613394"/><path d="m419.621094 270.359375-125.332032-77.832031 78.121094-125.800782-9.71875-6.039062-77.953125 125.910156-10.527343 17.003906-128.304688 207.238282 9.246094 5.742187 128.585937-207.0625 125.332031 77.828125zm0 0" fill="#4b1b7a"/></svg>