<svg viewBox="0 0 512 512" xmlns="http://www.w3.org/2000/svg"><path d="m512 256c0 141.386719-114.613281 256-256 256s-256-114.613281-256-256 114.613281-256 256-256 256 114.613281 256 256zm0 0" fill="#613394"/><path d="m312.183594 505.800781c114.355468-25.609375 199.816406-127.71875 199.816406-249.800781 0-8.976562-.46875-17.847656-1.367188-26.585938l-93.355468-93.351562-10.972656 28.125-57.109376-57.105469 4.113282 53.367188-70.609375-70.609375-31.808594 55.898437-41.3125-41.3125-17.515625 80.285157-51.359375-51.363282-46.273437 116.652344 164.171874 164.171875-11.214843 26.832031zm0 0" fill="#4b1b7a"/><path d="m247.386719 441.003906-142-203.679687 17.226562-12.007813 133.226563 191.09375 128.242187-190.945312 17.433594 11.710937-136.800781 203.679688zm0 0" fill="#fff"/><path d="m401.515625 237.175781-17.433594-11.710937-128.242187 190.945312-.234375-.335937v24.859375l9.109375-.078125zm0 0" fill="#e9edf5"/><path d="m245.964844 438.09375-72-233.683594 20.070312-6.183594 61.585938 199.890626 57.082031-199.683594 20.191406 5.773437-66.796875 233.679688zm0 0" fill="#fff"/><path d="m255.605469 437.992188 10.492187-.105469 66.796875-233.679688-20.191406-5.773437-57.082031 199.683594zm0 0" fill="#e9edf5"/><path d="m256 211.898438c-18.886719 0-34.199219-15.308594-34.199219-34.199219v-66.5c0-18.886719 15.3125-34.199219 34.199219-34.199219s34.199219 15.3125 34.199219 34.199219v66.5c0 18.890625-15.3125 34.199219-34.199219 34.199219zm0 0" fill="#ff551c"/><path d="m256 77c-.132812 0-.261719.007812-.394531.011719v134.878906c.132812 0 .261719.007813.394531.007813 18.886719 0 34.199219-15.308594 34.199219-34.199219v-66.5c0-18.886719-15.3125-34.199219-34.199219-34.199219zm0 0" fill="#d13400"/><path d="m119.199219 260.636719c-18.886719 0-34.199219-15.3125-34.199219-34.203125v-66.5c0-18.886719 15.3125-34.199219 34.199219-34.199219 18.890625 0 34.199219 15.3125 34.199219 34.199219v66.5c0 18.890625-15.308594 34.203125-34.199219 34.203125zm0 0" fill="#ff551c"/><path d="m392.800781 260.636719c-18.890625 0-34.199219-15.3125-34.199219-34.203125v-66.5c0-18.886719 15.308594-34.199219 34.199219-34.199219 18.886719 0 34.199219 15.3125 34.199219 34.199219v66.5c0 18.890625-15.3125 34.203125-34.199219 34.203125zm0 0" fill="#d13400"/><path d="m187.601562 231.320312c-18.890624 0-34.203124-15.3125-34.203124-34.199218v-66.5c0-18.890625 15.3125-34.199219 34.203124-34.199219 18.886719 0 34.199219 15.308594 34.199219 34.199219v66.5c0 18.886718-15.3125 34.199218-34.199219 34.199218zm0 0" fill="#ff784b"/><path d="m324.398438 231.320312c-18.886719 0-34.199219-15.3125-34.199219-34.199218v-66.5c0-18.890625 15.3125-34.199219 34.199219-34.199219 18.890624 0 34.203124 15.308594 34.203124 34.199219v66.5c0 18.886718-15.3125 34.199218-34.203124 34.199218zm0 0" fill="#f63"/></svg>