<svg viewBox="0 0 512 512" xmlns="http://www.w3.org/2000/svg"><path d="m512 256c0 141.386719-114.613281 256-256 256s-256-114.613281-256-256 114.613281-256 256-256 256 114.613281 256 256zm0 0" fill="#ff551c"/><path d="m512 256c0-9.714844-.558594-19.300781-1.613281-28.734375l-140.847657-140.84375-78.667968 97.367187 73.964844 73.964844-64.851563-16.054687-155.28125-155.277344-78.671875 97.367187 145.40625 145.402344-125.707031 47.859375 132.113281 132.117188c12.449219 1.859375 25.1875 2.832031 38.15625 2.832031 141.386719 0 256-114.613281 256-256zm0 0" fill="#d13400"/><path d="m176.125 221.320312h179.992188v86.839844h-179.992188zm0 0" fill="#fff"/><path d="m255.605469 221.320312h100.511719v86.839844h-100.511719zm0 0" fill="#e9edf5"/><path d="m99.21875 166.355469h90.972656v193.289062h-90.972656zm0 0" fill="#00f3ff"/><path d="m66.035156 183.789062 78.667969-97.367187 78.671875 97.367187zm0 0" fill="#2864f0"/><path d="m324.054688 166.355469h90.972656v193.289062h-90.972656zm0 0" fill="#00c2ef"/><path d="m290.871094 183.789062 78.667968-97.367187 78.671876 97.367187zm0 0" fill="#0053bf"/><path d="m391.457031 398.511719h-261.285156c-31.34375 0-56.753906-25.410157-56.753906-56.757813 0-31.34375 25.410156-56.753906 56.753906-56.753906h261.285156c31.34375 0 56.753907 25.410156 56.753907 56.753906 0 31.347656-25.410157 56.757813-56.753907 56.757813zm0 0" fill="#ffce00"/><path d="m391.457031 285h-135.851562v113.511719h135.851562c31.34375 0 56.753907-25.410157 56.753907-56.757813 0-31.34375-25.410157-56.753906-56.753907-56.753906zm0 0" fill="#ffb600"/></svg>