<svg viewBox="0 0 512 512" xmlns="http://www.w3.org/2000/svg"><path d="m512 256c0 141.386719-114.613281 256-256 256s-256-114.613281-256-256 114.613281-256 256-256 256 114.613281 256 256zm0 0" fill="#00f3ff"/><path d="m494.816406 348.363281-120.519531-120.519531-25.65625 47.734375-233.410156-233.410156-28.21875 330.144531 137.792969 137.792969c10.222656 1.242187 20.632812 1.894531 31.195312 1.894531 108.816406 0 201.761719-67.898438 238.816406-163.636719zm0 0" fill="#00c2ef"/><path d="m90.132812 61.019531v160.300781h25.097657v-179.152343c-8.757813 5.773437-17.136719 12.070312-25.097657 18.851562zm0 0" fill="#2864f0"/><path d="m162.96875 305.28125c-11.183594 0-20.246094-9.066406-20.246094-20.25v-80.996094c0-11.179687 9.0625-20.246094 20.246094-20.246094s20.25 9.066407 20.25 20.246094v80.996094c0 11.183594-9.066406 20.25-20.25 20.25zm0 0" fill="#2864f0"/><path d="m262.589844 207.511719v15.242187c0 33.132813-26.863282 59.992188-59.996094 59.992188s-59.992188-26.859375-59.992188-59.992188v-15.242187l-52.46875-38.988281v173.230468h323.734376l-20.644532-80.972656c-7.988281-31.339844-36.210937-53.269531-68.554687-53.269531zm0 0" fill="#ff551c"/><path d="m393.226562 260.78125c-7.992187-31.335938-36.214843-53.269531-68.554687-53.269531h-62.082031v15.242187c0 10.601563-2.761719 20.554688-7.589844 29.199219v89.800781h158.867188zm0 0" fill="#f24500"/><path d="m403.476562 382.132812h-294.953124c-15.738282 0-28.5-12.761718-28.5-28.5 0-15.738281 12.761718-28.5 28.5-28.5h294.953124c15.738282 0 28.496094 12.761719 28.496094 28.5 0 15.738282-12.757812 28.5-28.496094 28.5zm0 0" fill="#2864f0"/><path d="m403.476562 325.136719h-148.476562v56.996093h148.476562c15.738282 0 28.5-12.757812 28.5-28.5-.003906-15.738281-12.761718-28.496093-28.5-28.496093zm0 0" fill="#0053bf"/><path d="m337 276h60.105469l-3.878907-15.21875c-2.128906-8.339844-5.699218-16.007812-10.390624-22.78125h-45.835938zm0 0" fill="#ffce00"/></svg>