<svg viewBox="0 0 512 512" xmlns="http://www.w3.org/2000/svg"><path d="m512 256c0 141.386719-114.613281 256-256 256s-256-114.613281-256-256 114.613281-256 256-256 256 114.613281 256 256zm0 0" fill="#2864f0"/><path d="m512 256c0-18.617188-2.007812-36.765625-5.78125-54.253906l-90.757812-90.761719-22.214844 51.519531-55.503906-55.503906-245 298 98.816406 98.816406c20.589844 5.335938 42.183594 8.183594 64.441406 8.183594 141.386719 0 256-114.613281 256-256zm0 0" fill="#0053bf"/><path d="m92.742188 107h245v298h-245zm0 0" fill="#ffce00"/><path d="m219.847656 107h117.894532v298h-117.894532zm0 0" fill="#ffb600"/><path d="m92.742188 107h32.210937v298h-32.210937zm0 0" fill="#ffb000"/><path d="m161.933594 140h150v88h-150zm0 0" fill="#ff7d0a"/><path d="m219.847656 140h92.085938v88h-92.085938zm0 0" fill="#fe6a16"/><path d="m354.136719 361.367188-57.6875 32.253906-23.574219-61.746094 73.65625-202.957031c8.144531-22.441407 32.9375-34.03125 55.375-25.886719 22.441406 8.144531 34.03125 32.9375 25.886719 55.375zm0 0" fill="#fff"/><path d="m401.910156 103.03125c-.195312-.070312-.386718-.128906-.582031-.195312l-105.136719 290.113281.257813.671875 57.6875-32.253906 73.65625-202.957032c8.144531-22.441406-3.445313-47.234375-25.882813-55.378906zm0 0" fill="#e9edf5"/><path d="m277.125 420.519531 97.582031-268.839843 16.921875 6.140624-97.585937 268.839844zm0 0" fill="#d7d7d7"/><path d="m285.152344 423.417969 8.886718 3.226562 97.566407-268.84375-9.011719-3.269531zm0 0" fill="#cdcdcd"/></svg>