<svg viewBox="0 0 512 512" xmlns="http://www.w3.org/2000/svg"><path d="m512 256c0 141.386719-114.613281 256-256 256s-256-114.613281-256-256 114.613281-256 256-256 256 114.613281 256 256zm0 0" fill="#2864f0"/><path d="m512 256c0-5.035156-.160156-10.03125-.449219-14.992188l-107.347656-107.351562-293.460937 264.855469 111.230468 111.230469c11.132813 1.480468 22.488282 2.257812 34.027344 2.257812 141.386719 0 256-114.613281 256-256zm0 0" fill="#0053bf"/><path d="m310.46875 266.46875c10.09375 10.09375 14.859375 24.390625 11.890625 37.527344-2.707031 11.984375-11.949219 24.457031-36.496094 30.421875-54.992187 13.355469-31.269531 51.316406-59.75 79.792969-28.480469 28.480468-58.316406 41.355468-115.375-15.699219-57.054687-57.054688-44.175781-86.894531-15.695312-115.371094 28.476562-28.480469 66.4375-4.757813 79.792969-59.75 5.964843-24.550781 18.4375-33.789063 30.421874-36.5 13.136719-2.96875 27.433594 1.800781 37.527344 11.894531zm0 0" fill="#ffb000"/><path d="m275.894531 231.894531-165.882812 165.882813c.246093.246094.480469.488281.730469.734375 57.054687 57.054687 86.894531 44.179687 115.371093 15.699219 28.480469-28.476563 4.757813-66.4375 59.75-79.792969 24.550781-5.964844 33.789063-18.4375 36.5-30.421875 2.96875-13.136719-1.800781-27.433594-11.894531-37.527344zm0 0" fill="#ff9d00"/><path d="m359.691406 116.972656 32.585938 32.585938-160.738282 160.738281-32.585937-32.585937zm0 0" fill="#ffd400"/><path d="m214.507812 293.269531 160.738282-160.738281 17.027344 17.027344-160.738282 160.738281zm0 0" fill="#ffce00"/><path d="m243.53125 265.71875c-15.621094-15.625-40.953125-15.625-56.578125 0s-15.625 40.957031 0 56.578125c15.625 15.625 40.957031 15.625 56.578125 0 15.625-15.621094 15.625-40.953125 0-56.578125zm0 0" fill="#ff7f00"/><path d="m242.785156 265.003906-56.546875 56.542969c.238281.25.472657.507813.714844.753906 15.625 15.625 40.957031 15.625 56.582031 0s15.625-40.957031 0-56.582031c-.246094-.246094-.5-.476562-.75-.714844zm0 0" fill="#fa5d0f"/><path d="m358.839844 183.003906-32.589844-32.589844 40.03125-54.675781 47.234375 47.234375zm0 0" fill="#ff7f00"/><path d="m341.8125 165.976562 17.027344 17.027344 54.675781-40.03125-24.347656-24.351562zm0 0" fill="#fa5d0f"/></svg>