<svg viewBox="0 0 512 512" xmlns="http://www.w3.org/2000/svg"><path d="m512 256c0 141.386719-114.613281 256-256 256s-256-114.613281-256-256 114.613281-256 256-256 256 114.613281 256 256zm0 0" fill="#ff551c"/><path d="m511.929688 261.636719-198.589844-198.589844-26.523438 266.855469-154.449218 84.808594 95.777343 95.773437c9.152344.992187 18.441407 1.515625 27.855469 1.515625 139.5 0 252.929688-111.582031 255.929688-250.363281zm0 0" fill="#d13400"/><path d="m374.445312 357.535156h-210.449218l-86.367188-132.59375h249.375zm0 0" fill="#e1e1e6"/><path d="m327.003906 224.941406h-71.398437v132.59375h118.839843zm0 0" fill="#d2d2d7"/><path d="m342.820312 414.710938h-210.453124l-86.367188-132.59375h249.378906zm0 0" fill="#fff"/><path d="m295.378906 282.117188h-39.773437v132.59375h87.214843zm0 0" fill="#e9edf5"/><path d="m226.039062 156.820312 116.78125 257.890626 90.019532-64.472657-136.246094-200.71875zm0 0" fill="#ebebf0"/><path d="m432.839844 350.238281-136.246094-200.71875-40.988281 4.242188v68.355469l87.214843 192.59375zm0 0" fill="#b9b9be"/><path d="m313.34375 63.046875 70.546875 110.660156-157.851563-16.886719zm0 0" fill="#fff"/><path d="m313.339844 63.046875-57.734375 62.015625v34.917969l128.285156 13.726562zm0 0" fill="#e9edf5"/></svg>