<svg viewBox="0 0 512 512" xmlns="http://www.w3.org/2000/svg"><path d="m512 256c0 141.386719-114.613281 256-256 256s-256-114.613281-256-256 114.613281-256 256-256 256 114.613281 256 256zm0 0" fill="#613394"/><path d="m511.28125 275.28125-75.28125-75.28125-6.894531 10.960938-150.105469-150.105469-11.585938 157.914062-191.414062 16.230469 119.660156 119.660156-68.660156 50.050782 106.273438 106.273437c7.488281.660156 15.066406 1.015625 22.726562 1.015625 134.898438 0 245.421875-104.339844 255.28125-236.71875zm0 0" fill="#4b1b7a"/><path d="m385 404.710938h-258l-40-185.710938h338zm0 0" fill="#ffce00"/><path d="m425 219h-169.394531v185.710938h129.394531zm0 0" fill="#ffb600"/><path d="m76 200h360v35h-360zm0 0" fill="#ff551c"/><path d="m255.605469 200h180.394531v35h-180.394531zm0 0" fill="#f24500"/><path d="m233 60.855469h46v251h-46zm0 0" fill="#ff9d00"/><path d="m255.605469 60.855469h23.394531v251h-23.394531zm0 0" fill="#fe8205"/></svg>