<svg viewBox="0 0 512 512" xmlns="http://www.w3.org/2000/svg"><path d="m512 256c0 141.386719-114.613281 256-256 256s-256-114.613281-256-256 114.613281-256 256-256 256 114.613281 256 256zm0 0" fill="#613394"/><path d="m512 256c0-27.695312-4.414062-54.355469-12.550781-79.332031l-164.117188-164.117188-142.226562 437.023438 62.417969 62.417969c.160156 0 .316406.007812.476562.007812 141.386719 0 256-114.613281 256-256zm0 0" fill="#4b1b7a"/><path d="m335.332031 12.550781c-24.976562-8.136719-51.636719-12.550781-79.332031-12.550781s-54.355469 4.414062-79.332031 12.550781v401.113281h158.667969v-401.113281zm0 0" fill="#e09380"/><path d="m335.332031 12.550781c-24.914062-8.113281-51.503906-12.5273435-79.332031-12.54687475v413.66406275h79.332031zm0 0" fill="#d47f6c"/><path d="m310 226.835938v104c0 29.820312-24.175781 54-54 54s-54-24.179688-54-54v-104h-25.332031v184.519531c0 14.457031 5.941406 28.277343 16.4375 38.21875 9.777343 9.265625 22.734375 14.425781 36.203125 14.425781h52.671875c13.09375 0 25.722656-4.878906 35.410156-13.6875l.710937-.644531c10.972657-9.976563 17.230469-24.121094 17.230469-38.953125v-183.878906zm0 0" fill="#fff"/><path d="m310 226.835938v104c0 29.75-24.0625 53.878906-53.789062 53.992187v79.171875h25.769531c13.097656 0 25.722656-4.878906 35.414062-13.6875l.707031-.648438c10.976563-9.976562 17.234376-24.117187 17.234376-38.949218v-183.878906zm0 0" fill="#e9edf5"/><path d="m335.332031 288.507812-158.664062-130.667968v-80.839844l158.664062 130.667969zm0 0" fill="#e6e6e6"/><path d="m335.332031 207.667969-79.121093-65.160157-.210938 80.667969 79.332031 65.332031zm0 0" fill="#d7d7d7"/><path d="m176.667969 288.507812 158.664062-130.667968v-80.839844l-158.664062 130.667969zm0 0" fill="#d7d7d7"/><path d="m335.332031 77-79.332031 65.332031v80.84375l79.332031-65.335937zm0 0" fill="#cdcdcd"/><path d="m176.667969 77h158.667969v56h-158.667969zm0 0" fill="#fff"/><path d="m256.015625 77h79.320313v56h-79.320313zm0 0" fill="#e9edf5"/></svg>