<svg viewBox="0 0 512 512" xmlns="http://www.w3.org/2000/svg"><path d="m512 256c0 141.386719-114.613281 256-256 256s-256-114.613281-256-256 114.613281-256 256-256 256 114.613281 256 256zm0 0" fill="#2864f0"/><path d="m512 256c0-2.644531-.054688-5.273438-.132812-7.898438l-70.84375-70.839843-2.101563 3.589843-72.519531-72.515624-24.914063 95.261718-91.488281-91.488281-83.894531 187.664063-93.5625 39.835937 172.128906 172.128906c3.757813.164063 7.53125.261719 11.328125.261719 141.386719 0 256-114.613281 256-256zm0 0" fill="#0053bf"/><path d="m412.429688 162.300781c-11.28125-.363281-21.484376 4.292969-28.550782 11.898438-1.902344 2.050781-4.578125 3.210937-7.375 3.210937-5.578125 0-10.097656-4.519531-10.097656-10.097656v-58.976562h-57.464844c-6.476562 0-11.730468 5.25-11.730468 11.730468v1.171875c0 3.292969 1.417968 6.394531 3.8125 8.65625 7.792968 7.367188 12.441406 18.023438 11.710937 29.753907-1.191406 19.121093-16.90625 34.453124-36.046875 35.207031-21.488281.847656-39.171875-16.316407-39.171875-37.613281 0-10.777344 4.53125-20.492188 11.792969-27.355469 2.390625-2.257813 3.804687-5.359375 3.804687-8.648438v-1.171875c0-6.476562-5.253906-11.730468-11.730469-11.730468h-57.464843v182.484374h182.484375v-58.976562c0-5.578125 4.523437-10.097656 10.097656-10.097656 2.800781 0 5.472656 1.15625 7.378906 3.207031 6.808594 7.332031 16.53125 11.921875 27.324219 11.921875 21.085937 0 38.085937-17.5 37.265625-38.769531-.746094-19.414063-16.621094-35.179688-36.039062-35.804688zm0 0" fill="#ffce00"/><path d="m448.472656 198.101562c-.75-19.410156-16.625-35.175781-36.042968-35.800781-11.28125-.363281-21.484376 4.292969-28.550782 11.898438-1.902344 2.050781-4.578125 3.210937-7.375 3.210937-5.578125 0-10.097656-4.519531-10.097656-10.097656v-58.976562h-57.464844c-6.476562 0-11.730468 5.25-11.730468 11.730468v1.171875c0 3.292969 1.417968 6.394531 3.8125 8.65625 7.792968 7.367188 12.441406 18.023438 11.710937 29.753907-1.183594 19.015624-16.734375 34.277343-35.734375 35.1875v95.984374h89.40625v-58.980468c0-5.578125 4.519531-10.097656 10.097656-10.097656 2.796875 0 5.46875 1.160156 7.375 3.207031 6.808594 7.332031 16.53125 11.921875 27.324219 11.921875 21.089844 0 38.085937-17.5 37.269531-38.769532zm0 0" fill="#ffb600"/><path d="m96.070312 349.0625c11.28125.363281 21.484376-4.289062 28.550782-11.898438 1.902344-2.050781 4.578125-3.210937 7.375-3.210937 5.578125 0 10.097656 4.523437 10.097656 10.097656v58.980469h57.464844c6.476562 0 11.730468-5.253906 11.730468-11.730469v-1.171875c0-3.292968-1.417968-6.394531-3.8125-8.65625-7.792968-7.367187-12.441406-18.027344-11.710937-29.753906 1.191406-19.121094 16.90625-34.453125 36.046875-35.210938 21.488281-.847656 39.171875 16.320313 39.171875 37.617188 0 10.777344-4.53125 20.492188-11.792969 27.351562-2.390625 2.257813-3.804687 5.359376-3.804687 8.648438v1.171875c0 6.480469 5.253906 11.730469 11.730469 11.730469h57.464843v-182.484375h-182.484375v58.980469c0 5.578124-4.523437 10.097656-10.097656 10.097656-2.800781 0-5.472656-1.160156-7.378906-3.210938-6.808594-7.332031-16.53125-11.917968-27.324219-11.917968-21.085937 0-38.085937 17.5-37.265625 38.769531.746094 19.414062 16.621094 35.179687 36.039062 35.800781zm0 0" fill="#00f3ff"/><path d="m233 220.546875v95.945313c20.945312-.179688 37.984375 16.730468 37.984375 37.632812 0 10.777344-4.535156 20.492188-11.792969 27.355469-2.390625 2.257812-3.804687 5.359375-3.804687 8.648437v1.171875c0 6.476563 5.25 11.730469 11.730469 11.730469h57.464843v-182.484375zm0 0" fill="#00c2ef"/><path d="m255.386719 390.128906v1.171875c0 1 .136719 1.96875.375 2.898438v-6.925781c-.238281.925781-.375 1.878906-.375 2.855468zm0 0" fill="#00f3ff"/></svg>