<svg viewBox="0 0 512 512" xmlns="http://www.w3.org/2000/svg"><path d="m512 256c0 141.386719-114.613281 256-256 256s-256-114.613281-256-256 114.613281-256 256-256 256 114.613281 256 256zm0 0" fill="#ff551c"/><path d="m512 256c0-11.507812-.773438-22.835938-2.242188-33.9375l-66.308593-66.308594-6.550781 6.578125-35.417969-35.414062-311.320313 112.761719 40.335938 40.332031-15.152344 9.445312 49.636719 49.636719-74.820313 31.265625 140.386719 140.382813c8.371094.828124 16.863281 1.257812 25.453125 1.257812 141.386719 0 256-114.613281 256-256zm0 0" fill="#d13400"/><path d="m115.34375 230.398438h23.789062v59.058593h-23.789062zm0 0" fill="#d7d7d7"/><path d="m407.359375 155.753906h36.089844v83.925782h-36.089844zm0 0" fill="#cdcdcd"/><path d="m143.53125 109c-29.476562 0-53.371094 23.894531-53.371094 53.367188v77.3125h94.085938v-15.226563h139.035156v75.882813h-233.121094v70.023437h324.808594v-207.992187c0-29.472657-23.894531-53.367188-53.367188-53.367188zm0 0" fill="#fff"/><path d="m414.96875 162.367188c0-29.472657-23.894531-53.367188-53.367188-53.367188h-105.996093v115.453125h67.675781v75.882813h-67.675781v70.023437h159.363281zm0 0" fill="#e9edf5"/><path d="m90.160156 300.335938h165.445313v70.023437h-165.445313zm0 0" fill="#fff"/><path d="m247.242188 300.335938-78.703126 140.050781-78.378906-140.050781zm0 0" fill="#2864f0"/><path d="m247.242188 300.335938h-78.910157l.207031 140.050781zm0 0" fill="#0053bf"/><path d="m394.234375 168.058594c0 16.308594-13.21875 29.53125-29.527344 29.53125-16.308593 0-29.53125-13.222656-29.53125-29.53125s13.222657-29.527344 29.53125-29.527344c16.308594 0 29.527344 13.21875 29.527344 29.527344zm0 0" fill="#cdcdcd"/><path d="m184.246094 145.910156h122.222656v29.53125h-122.222656zm0 0" fill="#d7d7d7"/><path d="m255.605469 145.910156h50.863281v29.53125h-50.863281zm0 0" fill="#cdcdcd"/><path d="m345.839844 230.398438h43.472656v69.8125h-43.472656zm0 0" fill="#d7d7d7"/></svg>