<svg viewBox="0 0 512 512" xmlns="http://www.w3.org/2000/svg"><path d="m512 256c0 141.386719-114.613281 256-256 256s-256-114.613281-256-256 114.613281-256 256-256 256 114.613281 256 256zm0 0" fill="#2864f0"/><path d="m512 256c0-7.261719-.320312-14.445312-.910156-21.554688l-126.683594-126.132812-45.503906 92.257812-131.570313-131.570312-76.820312 337.558594 104.589843 104.589844c6.894532.554687 13.863282.851562 20.898438.851562 141.386719 0 256-114.613281 256-256zm0 0" fill="#0053bf"/><path d="m157 69h50.332031v36h-50.332031zm0 0" fill="#cdd2e1"/><path d="m345.90625 420.332031h-179.8125c-29.1875 0-52.84375-23.65625-52.84375-52.839843v-222.984376c0-29.183593 23.65625-52.839843 52.84375-52.839843h179.8125c29.1875 0 52.84375 23.65625 52.84375 52.839843v222.984376c0 29.183593-23.65625 52.839843-52.84375 52.839843zm0 0" fill="#fff"/><path d="m113.25 255.90625v111.585938c0 29.183593 23.65625 52.839843 52.84375 52.839843h179.8125c29.1875 0 52.84375-23.65625 52.84375-52.839843v-111.585938zm0 0" fill="#e9edf5"/><path d="m264.832031 91.667969h22.667969v328.667969h-22.667969zm0 0" fill="#ff551c"/><path d="m264.832031 255.90625h22.667969v164.429688h-22.667969zm0 0" fill="#f24500"/><path d="m247.167969 91.667969h22.667969v328.667969h-22.667969zm0 0" fill="#ffce00"/><path d="m247.167969 255.90625h22.667969v164.429688h-22.667969zm0 0" fill="#ffb600"/><path d="m224.5 91.667969h22.667969v328.667969h-22.667969zm0 0" fill="#00f3ff"/><path d="m224.5 255.90625h22.667969v164.429688h-22.667969zm0 0" fill="#00c2ef"/><path d="m347 300.667969c0 50.257812-40.742188 91-91 91s-91-40.742188-91-91c0-50.257813 40.742188-91 91-91s91 40.742187 91 91zm0 0" fill="#cdd2e1"/><path d="m165.023438 298.761719c-.011719.632812-.023438 1.269531-.023438 1.90625 0 50.257812 40.742188 91 91 91s91-40.742188 91-91c0-.636719-.011719-1.273438-.023438-1.90625zm0 0" fill="#bec3d2"/><path d="m314.667969 300.667969c0 32.398437-26.265625 58.667969-58.667969 58.667969s-58.667969-26.269532-58.667969-58.667969c0-32.402344 26.265625-58.667969 58.667969-58.667969s58.667969 26.265625 58.667969 58.667969zm0 0" fill="#613394"/><path d="m197.382812 298.761719c-.023437.632812-.050781 1.265625-.050781 1.90625 0 32.398437 26.265625 58.667969 58.667969 58.667969s58.667969-26.269532 58.667969-58.667969c0-.640625-.027344-1.273438-.050781-1.90625zm0 0" fill="#4b1b7a"/><path d="m307 120.5h67v37h-67zm0 0" fill="#cdd2e1"/></svg>