<svg viewBox="0 0 512 512" xmlns="http://www.w3.org/2000/svg"><path d="m512 256c0 141.386719-114.613281 256-256 256s-256-114.613281-256-256 114.613281-256 256-256 256 114.613281 256 256zm0 0" fill="#ff551c"/><path d="m260.472656 511.941406c114.734375-1.964844 211.078125-79.402344 241.503906-184.8125l-83.976562-83.976562-6.542969 11.03125-41.28125-41.28125-114.175781-40.925782 18.523438 167.902344-150.074219 36.042969zm0 0" fill="#d13400"/><path d="m359.769531 205.617188-96.734375-52.996094-33.707031 33.707031 52.996094 96.734375c8.710937 15.90625 24.003906 26.5 41.953125 29.066406 17.953125 2.570313 35.601562-3.3125 48.421875-16.132812 12.824219-12.824219 18.707031-30.472656 16.136719-48.425782-2.570313-17.949218-13.164063-33.242187-29.066407-41.953124zm-32.375 84.730468c-11.027343-1.578125-20.421875-8.085937-25.773437-17.855468l-38.792969-70.808594 85.292969 85.289062c-6.304688 3.191406-13.472656 4.414063-20.726563 3.375zm39.660157-39.660156c1.039062 7.253906-.183594 14.425781-3.375 20.726562l-85.289063-85.289062 70.808594 38.789062c9.769531 5.355469 16.277343 14.746094 17.855469 25.773438zm0 0" fill="#ffce00"/><path d="m388.835938 247.570312c-2.570313-17.949218-13.164063-33.242187-29.066407-41.953124l-96.734375-52.996094-15.992187 15.992187 126.496093 126.496094c12.226563-12.746094 17.808594-29.992187 15.296876-47.539063zm-25.15625 23.84375-85.289063-85.289062 70.804687 38.789062c9.773438 5.351563 16.28125 14.746094 17.859376 25.773438 1.039062 7.253906-.183594 14.425781-3.375 20.726562zm0 0" fill="#ffb600"/><path d="m135.265625 92.382812 33.765625-33.765624 94.003906 94.003906-33.765625 33.765625zm0 0" fill="#613394"/><path d="m153.039062 74.613281 15.992188-15.992187 94.003906 94-15.996094 15.996094zm0 0" fill="#4b1b7a"/><path d="m184.5 379.6875h143v55.3125h-143zm0 0" fill="#dce1eb"/><path d="m255.761719 379.6875h71.738281v55.3125h-71.738281zm0 0" fill="#cdd2e1"/><path d="m305.714844 411.332031h-99.429688c-62.015625 0-112.285156-50.269531-112.285156-112.28125v-55.898437h324v55.898437c0 62.011719-50.269531 112.28125-112.285156 112.28125zm0 0" fill="#fff"/><path d="m255.761719 243.152344v168.183594h49.953125c62.015625 0 112.285156-50.273438 112.285156-112.285157v-55.898437zm0 0" fill="#e9edf5"/><path d="m94 262h324v32h-324zm0 0" fill="#b674f2"/><path d="m255.761719 262h162.238281v32h-162.238281zm0 0" fill="#a260e5"/></svg>