<?xml version="1.0" encoding="iso-8859-1"?>
<!-- Generator: Adobe Illustrator 19.0.0, SVG Export Plug-In . SVG Version: 6.00 Build 0)  -->
<svg version="1.1" id="Layer_1" xmlns="http://www.w3.org/2000/svg" xmlns:xlink="http://www.w3.org/1999/xlink" x="0px" y="0px"
	 viewBox="0 0 512.001 512.001" style="enable-background:new 0 0 512.001 512.001;" xml:space="preserve">
<path style="fill:#FBC09B;" d="M256,0.001c-141.385,0-256,114.615-256,256c0,117.857,79.643,217.112,188.044,246.883
	l314.839-314.839C473.111,79.643,373.857,0.001,256,0.001z"/>
<path style="fill:#F79E73;" d="M98.592,413.408l89.458,89.458c21.641,5.944,44.422,9.135,67.951,9.135
	c141.384,0,256-114.615,256-256c0-23.529-3.191-46.309-9.135-67.95l-89.458-89.458L98.592,413.408z"/>
<path style="fill:#592C1A;" d="M256,33.392l-89.043,222.609L256,478.609c122.943,0,222.609-99.665,222.609-222.609
	S378.943,33.392,256,33.392z"/>
<path style="fill:#A65A3A;" d="M33.391,256.001c0,122.943,99.665,222.609,222.609,222.609V33.392
	C133.057,33.392,33.391,133.057,33.391,256.001z"/>
<path style="fill:#D1F1FF;" d="M256,66.783l-75.687,189.217L256,445.218c104.501,0,189.217-84.716,189.217-189.217
	S360.501,66.783,256,66.783z"/>
<path style="fill:#FFFFFF;" d="M66.783,256.001c0,104.501,84.716,189.217,189.217,189.217V66.783
	C151.497,66.783,66.783,151.498,66.783,256.001z"/>
<path style="fill:#74C8EE;" d="M256,89.044c-92.06,0-166.957,74.897-166.957,166.957S163.94,422.957,256,422.957
	s166.957-74.897,166.957-166.957S348.06,89.044,256,89.044z M337.745,375.327l-8.105-14.04l-19.278,11.13l8.127,14.077
	c-15.757,7.577-33.087,12.383-51.358,13.778v-16.272h-22.261v16.272c-18.269-1.397-35.601-6.203-51.358-13.778l8.127-14.077
	l-19.278-11.13l-8.105,14.04c-14.713-10.111-27.47-22.867-37.581-37.581l14.04-8.105l-11.13-19.278l-14.077,8.127
	c-7.576-15.757-12.383-33.087-13.778-51.358H128v-22.261h-16.272c1.397-18.27,6.203-35.601,13.778-51.358l14.077,8.127l11.13-19.278
	l-14.04-8.105c10.111-14.713,22.867-27.47,37.581-37.581l8.105,14.04l19.278-11.13l-8.127-14.077
	c15.757-7.576,33.087-12.383,51.358-13.778v16.269h22.261v-16.272c18.27,1.397,35.601,6.203,51.358,13.778l-8.127,14.077
	l19.278,11.13l8.106-14.04c14.713,10.111,27.47,22.867,37.581,37.581l-14.04,8.106l11.13,19.278l14.077-8.127
	c7.577,15.757,12.383,33.089,13.778,51.358H384v22.261h16.272c-1.397,18.27-6.203,35.601-13.778,51.358l-14.077-8.127l-11.13,19.278
	l14.04,8.106C365.214,352.459,352.457,365.216,337.745,375.327z"/>
<polygon style="fill:#592C1A;" points="339.478,267.131 244.87,267.131 244.87,150.261 267.13,150.261 267.13,244.87 
	339.478,244.87 "/>
<g>
</g>
<g>
</g>
<g>
</g>
<g>
</g>
<g>
</g>
<g>
</g>
<g>
</g>
<g>
</g>
<g>
</g>
<g>
</g>
<g>
</g>
<g>
</g>
<g>
</g>
<g>
</g>
<g>
</g>
</svg>
