<?xml version="1.0" encoding="iso-8859-1"?>
<!-- Generator: Adobe Illustrator 19.0.0, SVG Export Plug-In . SVG Version: 6.00 Build 0)  -->
<svg version="1.1" id="Layer_1" xmlns="http://www.w3.org/2000/svg" xmlns:xlink="http://www.w3.org/1999/xlink" x="0px" y="0px"
	 viewBox="0 0 512 512" style="enable-background:new 0 0 512 512;" xml:space="preserve">
<path style="fill:#008CCB;" d="M256,0C114.616,0,0,114.615,0,256c0,122.925,86.639,225.614,202.184,250.333l309.025-270.61
	C500.873,103.818,390.56,0,256,0z"/>
<path style="fill:#006998;" d="M512,256c0-6.825-0.274-13.586-0.798-20.276L317.217,41.739L144.473,448.601l57.715,57.715
	C219.54,510.029,237.539,512,256,512C397.384,512,512,397.384,512,256z"/>
<polygon style="fill:#D1F1FF;" points="255.026,52.87 232.376,108.522 306.087,108.522 306.087,52.87 "/>
<rect x="205.913" y="52.87" style="fill:#FFFFFF;" width="50.087" height="55.652"/>
<path style="fill:#AEE6FF;" d="M367.527,241.386v207.215H256l-44.522-175.605L256,97.391h50.087l51.411,101.866
	C363.019,210.187,367.527,229.142,367.527,241.386z"/>
<g>
	<path style="fill:#D1F1FF;" d="M256,97.391v351.21H144.473V241.386c0-12.243,4.508-31.199,10.029-42.129l51.411-101.866H256z"/>
	<path style="fill:#D1F1FF;" d="M345.266,241.386V426.34H256l-44.522-153.344L256,119.652h36.385l45.245,89.633
		C341.56,217.066,345.266,232.659,345.266,241.386z"/>
</g>
<path style="fill:#FFFFFF;" d="M256,119.652V426.34h-89.266V241.386c0-8.726,3.706-24.32,7.635-32.089l45.245-89.645
	C219.615,119.652,256,119.652,256,119.652z"/>
<polygon style="fill:#3AAADC;" points="256,41.739 244.707,52.87 256,64 317.217,64 317.217,41.739 "/>
<rect x="194.783" y="41.739" style="fill:#74C8EE;" width="61.217" height="22.261"/>
<g>
	<rect x="188.995" y="237.123" style="fill:#D1F1FF;" width="22.261" height="122.435"/>
	<rect x="188.995" y="381.818" style="fill:#D1F1FF;" width="22.261" height="22.261"/>
</g>
<g>
</g>
<g>
</g>
<g>
</g>
<g>
</g>
<g>
</g>
<g>
</g>
<g>
</g>
<g>
</g>
<g>
</g>
<g>
</g>
<g>
</g>
<g>
</g>
<g>
</g>
<g>
</g>
<g>
</g>
</svg>
