<?xml version="1.0" encoding="iso-8859-1"?>
<!-- Generator: Adobe Illustrator 19.0.0, SVG Export Plug-In . SVG Version: 6.00 Build 0)  -->
<svg version="1.1" id="Layer_1" xmlns="http://www.w3.org/2000/svg" xmlns:xlink="http://www.w3.org/1999/xlink" x="0px" y="0px"
	 viewBox="0 0 512 512" style="enable-background:new 0 0 512 512;" xml:space="preserve">
<path style="fill:#FFADC1;" d="M256,0C114.615,0,0,114.616,0,256c0,117.869,79.659,217.134,188.08,246.892l323.916-245.409
	c0.003-0.494,0.004-0.988,0.004-1.483C512,114.616,397.385,0,256,0z"/>
<path style="fill:#F5849F;" d="M511.981,257.483L396.75,142.251l-44.025,52.942L215.02,57.489L114.844,429.635l73.24,73.24
	C209.715,508.812,232.484,512,256,512C396.889,512,511.182,398.184,511.981,257.483z"/>
<g>
	<rect x="323.695" y="241.241" style="fill:#FEEB5C;" width="22.261" height="171.698"/>
	<polygon style="fill:#FEEB5C;" points="396.75,142.251 399.692,209.036 300.954,253.222 334.823,142.251 	"/>
</g>
<polygon style="fill:#FFF296;" points="334.823,252.939 269.955,209.036 272.898,142.251 334.823,142.251 "/>
<polygon style="fill:#FEEB5C;" points="334.823,407.374 325.828,418.504 334.823,429.635 396.597,429.635 396.597,407.374 "/>
<rect x="273.052" y="407.374" style="fill:#FFF296;" width="61.774" height="22.261"/>
<polygon style="fill:#E0315B;" points="215.02,57.489 215.02,129.855 168.271,172.297 181.628,57.489 "/>
<polygon style="fill:#EA5A7D;" points="181.628,57.489 181.628,172.297 148.237,129.855 148.237,57.489 "/>
<path style="fill:#7A3E25;" d="M248.409,241.53v188.104h-66.783l-44.522-140.243l44.522-159.533h33.391v53.849
	C234.975,195.25,248.409,216.821,248.409,241.53z"/>
<path style="fill:#A65A3A;" d="M181.626,129.859v299.776h-66.783V241.53c0-24.71,13.434-46.28,33.391-57.823v-53.849H181.626z"/>
<path style="fill:#A82544;" d="M401.53,250.557c0.045,0.991,0.078,1.992,0.078,2.994c0,36.886-29.896,66.783-66.783,66.783
	l-22.261-55.647l22.261-55.647h64.857C399.694,209.041,401.53,250.557,401.53,250.557z"/>
<path style="fill:#E0315B;" d="M334.826,209.041v111.293c-36.886,0-66.783-29.896-66.783-66.783c0-1.002,0.033-2.003,0.078-2.994
	l1.825-41.517L334.826,209.041L334.826,209.041z"/>
<polygon style="fill:#FFF296;" points="181.626,251.548 175.629,318.33 181.626,385.113 226.148,385.113 226.148,251.548 "/>
<rect x="137.105" y="251.548" style="fill:#FFFFFF;" width="44.522" height="133.565"/>
<g>
</g>
<g>
</g>
<g>
</g>
<g>
</g>
<g>
</g>
<g>
</g>
<g>
</g>
<g>
</g>
<g>
</g>
<g>
</g>
<g>
</g>
<g>
</g>
<g>
</g>
<g>
</g>
<g>
</g>
</svg>
