<?xml version="1.0" encoding="iso-8859-1"?>
<!-- Generator: Adobe Illustrator 19.0.0, SVG Export Plug-In . SVG Version: 6.00 Build 0)  -->
<svg version="1.1" id="Layer_1" xmlns="http://www.w3.org/2000/svg" xmlns:xlink="http://www.w3.org/1999/xlink" x="0px" y="0px"
	 viewBox="0 0 512 512" style="enable-background:new 0 0 512 512;" xml:space="preserve">
<circle style="fill:#386895;" cx="256" cy="256" r="256"/>
<g>
	<path style="fill:#273B7A;" d="M256.167,511.998c127.029-0.081,232.396-92.689,252.397-214.075l-94.61-94.61l-9.773,13.167
		l-80.343-80.343l-20.62,11.828L99.64,355.471L256.167,511.998z"/>
	<polygon style="fill:#273B7A;" points="282.398,169.188 303.218,147.966 282.074,169.446 	"/>
</g>
<path style="fill:#EAA22F;" d="M102.072,357.904l-4.936-4.936c-4.972-4.972-4.972-13.034,0-18.006l203.759-203.759
	c4.972-4.972,13.033-4.972,18.006,0l4.936,4.936c4.972,4.972,4.972,13.033,0,18.006L120.079,357.904
	C115.105,362.875,107.044,362.875,102.072,357.904z"/>
<path style="fill:#E09112;" d="M320.255,132.558L98.49,354.321l3.582,3.582c4.972,4.972,13.033,4.972,18.006,0l203.759-203.759
	c4.972-4.972,4.972-13.034,0-18.006L320.255,132.558z"/>
<path style="fill:#FFFFFF;" d="M298.155,319.112c0,0-1.584-102.674-52.112-147.085c-4.948-4.348-4.136-12.971,1.843-18.949
	l22.985-22.985c6.116-6.116,14.979-6.83,19.197-1.565c15.301,19.092,54.824,59.642,123.885,74.785
	C413.953,203.314,406.992,300.22,298.155,319.112z"/>
<path style="fill:#D0D1D3;" d="M247.886,153.078c-5.979,5.979-6.79,14.6-1.843,18.949c50.528,44.411,52.112,147.085,52.112,147.085
	c38.11-6.615,63.717-22.799,80.92-41.036l-118.748-137.44L247.886,153.078z"/>
<path style="fill:#D35933;" d="M413.953,203.314c-15.043-3.298-28.682-7.804-40.977-13.029
	c-7.909,25.274-28.205,64.84-79.529,84.316c4.408,25.347,4.708,44.511,4.708,44.511C406.992,300.22,413.953,203.314,413.953,203.314
	z"/>
<path style="fill:#B54324;" d="M293.447,274.601c4.408,25.347,4.708,44.511,4.708,44.511c38.11-6.615,63.717-22.799,80.92-41.036
	l-33.535-38.814C333.315,253.019,316.526,265.844,293.447,274.601z"/>
<g>
</g>
<g>
</g>
<g>
</g>
<g>
</g>
<g>
</g>
<g>
</g>
<g>
</g>
<g>
</g>
<g>
</g>
<g>
</g>
<g>
</g>
<g>
</g>
<g>
</g>
<g>
</g>
<g>
</g>
</svg>
