<?xml version="1.0" encoding="iso-8859-1"?>
<!-- Generator: Adobe Illustrator 19.0.0, SVG Export Plug-In . SVG Version: 6.00 Build 0)  -->
<svg version="1.1" id="Layer_1" xmlns="http://www.w3.org/2000/svg" xmlns:xlink="http://www.w3.org/1999/xlink" x="0px" y="0px"
	 viewBox="0 0 512 512" style="enable-background:new 0 0 512 512;" xml:space="preserve">
<path style="fill:#D1F1FF;" d="M256,0C114.616,0,0,114.616,0,256c0,117.216,78.779,216.032,186.279,246.391l316.113-316.109
	C472.034,78.78,373.217,0,256,0z"/>
<path style="fill:#AEE6FF;" d="M512,256c0-24.168-3.354-47.551-9.612-69.717l-88.336-88.336L97.948,414.052l88.336,88.336
	C208.447,508.646,231.832,512,256,512C397.384,512,512,397.384,512,256z"/>
<polygon style="fill:#313A3E;" points="211.478,153.6 256,414.052 414.052,414.052 414.052,186.991 "/>
<polygon style="fill:#57676E;" points="256,153.6 97.948,186.991 97.948,414.052 256,414.052 "/>
<polygon style="fill:#748993;" points="256,97.948 216.157,142.47 256,186.991 414.052,186.991 414.052,97.948 "/>
<rect x="97.948" y="97.948" style="fill:#A2B1B7;" width="158.052" height="89.043"/>
<polygon style="fill:#F37C4A;" points="256,253.774 221.769,322.783 256,391.791 391.791,391.791 391.791,253.774 "/>
<rect x="120.209" y="253.774" style="fill:#F79E73;" width="135.791" height="138.017"/>
<polygon style="fill:#C4D3D9;" points="256,209.252 244.03,220.383 256,231.513 391.791,231.513 391.791,209.252 "/>
<rect x="120.209" y="209.252" style="fill:#FFFFFF;" width="135.791" height="22.261"/>
<polygon style="fill:#313A3E;" points="256,120.209 244.216,142.47 256,164.73 302.748,164.73 302.748,120.209 "/>
<rect x="209.252" y="120.209" style="fill:#57676E;" width="46.748" height="44.522"/>
<polygon style="fill:#E0315B;" points="256,338.365 240.756,349.496 256,360.626 360.626,360.626 360.626,338.365 "/>
<rect x="151.374" y="338.365" style="fill:#F37C4A;" width="104.626" height="22.261"/>
<polygon style="fill:#E0315B;" points="256,284.939 240.756,296.07 256,307.2 360.626,307.2 360.626,284.939 "/>
<rect x="151.374" y="284.939" style="fill:#F37C4A;" width="104.626" height="22.261"/>
<path style="fill:#FFFFFF;" d="M164.73,120.209c12.299,0,22.261,9.962,22.261,22.261s-9.962,22.261-22.261,22.261
	s-22.261-9.962-22.261-22.261S152.431,120.209,164.73,120.209z"/>
<path style="fill:#C4D3D9;" d="M347.27,120.209c-12.299,0-22.261,9.962-22.261,22.261s9.962,22.261,22.261,22.261
	c12.299,0,22.261-9.962,22.261-22.261S359.569,120.209,347.27,120.209z"/>
<g>
</g>
<g>
</g>
<g>
</g>
<g>
</g>
<g>
</g>
<g>
</g>
<g>
</g>
<g>
</g>
<g>
</g>
<g>
</g>
<g>
</g>
<g>
</g>
<g>
</g>
<g>
</g>
<g>
</g>
</svg>
