<?xml version="1.0" encoding="iso-8859-1"?>
<!-- Generator: Adobe Illustrator 19.0.0, SVG Export Plug-In . SVG Version: 6.00 Build 0)  -->
<svg version="1.1" id="Layer_1" xmlns="http://www.w3.org/2000/svg" xmlns:xlink="http://www.w3.org/1999/xlink" x="0px" y="0px"
	 viewBox="0 0 512 512" style="enable-background:new 0 0 512 512;" xml:space="preserve">
<path style="fill:#414D53;" d="M506.799,204.407C482.928,87.752,379.711,0,256,0C114.615,0,0,114.615,0,256
	c0,124.33,88.632,227.959,206.159,251.152L506.799,204.407z"/>
<path style="fill:#313A3E;" d="M264.819,81.31l-36.422,244.375L122.431,219.72l-22.258,181.427l105.988,105.988
	C222.284,510.317,238.945,512,256,512c141.384,0,256-114.615,256-256c0-16.788-1.634-33.193-4.719-49.08L366.719,66.36
	L264.819,81.31z"/>
<polygon style="fill:#74C8EE;" points="389.57,176.974 345.048,176.974 345.048,154.713 367.309,132.452 389.57,154.713 "/>
<path style="fill:#AEE6FF;" d="M278.261,327.16h-44.522V121.426c0-42.961,34.951-77.913,77.913-77.913s77.913,34.952,77.913,77.913
	v33.287h-44.522v-33.287c0-18.412-14.979-33.391-33.391-33.391s-33.391,14.979-33.391,33.391V327.16z"/>
<polygon style="fill:#008CCB;" points="389.569,219.721 389.569,355.513 411.829,312.104 411.829,219.721 "/>
<polygon style="fill:#3AAADC;" points="411.826,312.104 411.826,401.148 345.043,401.148 333.913,356.626 345.043,312.104 "/>
<polygon style="fill:#74C8EE;" points="345.043,312.104 345.043,401.148 311.641,401.148 289.38,359.407 311.641,312.104 "/>
<polygon style="fill:#3AAADC;" points="122.43,219.721 122.43,355.513 100.169,312.104 100.169,219.721 "/>
<polygon style="fill:#74C8EE;" points="100.174,312.104 100.174,401.148 166.957,401.148 178.087,356.626 166.957,312.104 "/>
<polygon style="fill:#AEE6FF;" points="166.957,312.104 166.957,401.148 200.359,401.148 222.62,359.407 200.359,312.104 "/>
<polygon style="fill:#D1F1FF;" points="311.641,312.104 311.641,457.913 233.728,457.913 255.989,312.104 "/>
<rect x="200.337" y="312.109" style="fill:#FFFFFF;" width="55.652" height="145.809"/>
<polygon style="fill:#008CCB;" points="255.989,446.226 246.264,457.356 255.989,468.487 322.771,468.487 322.771,446.226 "/>
<rect x="189.206" y="446.23" style="fill:#3AAADC;" width="66.783" height="22.261"/>
<g>
</g>
<g>
</g>
<g>
</g>
<g>
</g>
<g>
</g>
<g>
</g>
<g>
</g>
<g>
</g>
<g>
</g>
<g>
</g>
<g>
</g>
<g>
</g>
<g>
</g>
<g>
</g>
<g>
</g>
</svg>
