<?xml version="1.0" encoding="iso-8859-1"?>
<!-- Generator: Adobe Illustrator 19.0.0, SVG Export Plug-In . SVG Version: 6.00 Build 0)  -->
<svg version="1.1" id="Layer_1" xmlns="http://www.w3.org/2000/svg" xmlns:xlink="http://www.w3.org/1999/xlink" x="0px" y="0px"
	 viewBox="0 0 512 512" style="enable-background:new 0 0 512 512;" xml:space="preserve">
<path style="fill:#E0315B;" d="M256,0C114.615,0,0,114.616,0,256c0,115.889,77.006,213.792,182.639,245.334L501.334,182.64
	C469.793,77.006,371.889,0,256,0z"/>
<path style="fill:#A82544;" d="M182.645,501.315C205.885,508.255,230.504,512,256,512c141.384,0,256-114.616,256-256
	c0-25.496-3.745-50.115-10.685-73.355l-81.141-81.141L147.478,221.279L91.826,410.496L182.645,501.315z"/>
<polygon style="fill:#FFE2C4;" points="91.826,377.105 91.826,410.496 114.087,410.496 114.087,354.844 "/>
<g>
	<polygon style="fill:#FBC09B;" points="397.913,354.844 397.913,410.496 420.174,410.496 420.174,377.105 	"/>
	<polygon style="fill:#FBC09B;" points="256,101.504 178.087,276.931 420.174,276.931 420.174,101.504 	"/>
</g>
<rect x="91.826" y="101.498" style="fill:#FFE2C4;" width="164.174" height="175.427"/>
<polygon style="fill:#FFF9CF;" points="255.699,157.155 233.439,235.67 364.522,235.67 364.522,157.156 "/>
<rect x="147.478" y="157.151" style="fill:#FFFFFF;" width="108.221" height="78.514"/>
<path style="fill:#F5849F;" d="M420.174,276.931l-208.696,44.522L256,221.279h108.522
	C395.127,221.279,420.174,246.325,420.174,276.931z"/>
<path style="fill:#FFADC1;" d="M91.826,276.931L256,321.452V221.279H147.478C116.873,221.279,91.826,246.325,91.826,276.931z"/>
<polygon style="fill:#E0315B;" points="420.174,276.931 420.174,332.583 200.348,362.145 256,276.931 "/>
<polygon style="fill:#EA5A7D;" points="256,276.931 256,354.651 91.826,332.583 91.826,276.931 "/>
<polygon style="fill:#F79E73;" points="255.699,332.583 233.439,354.844 256,377.105 420.174,377.105 420.174,332.583 "/>
<rect x="91.826" y="332.589" style="fill:#FBC09B;" width="164.174" height="44.522"/>
<g>
</g>
<g>
</g>
<g>
</g>
<g>
</g>
<g>
</g>
<g>
</g>
<g>
</g>
<g>
</g>
<g>
</g>
<g>
</g>
<g>
</g>
<g>
</g>
<g>
</g>
<g>
</g>
<g>
</g>
</svg>
