<?xml version="1.0" encoding="iso-8859-1"?>
<!-- Generator: Adobe Illustrator 19.0.0, SVG Export Plug-In . SVG Version: 6.00 Build 0)  -->
<svg version="1.1" id="Layer_1" xmlns="http://www.w3.org/2000/svg" xmlns:xlink="http://www.w3.org/1999/xlink" x="0px" y="0px"
	 viewBox="0 0 512 512" style="enable-background:new 0 0 512 512;" xml:space="preserve">
<path style="fill:#748993;" d="M503.231,189.329C473.895,80.272,374.322,0,256,0C114.615,0,0,114.616,0,256
	c0,118.322,80.273,217.896,189.33,247.233L503.231,189.329z"/>
<path style="fill:#414D53;" d="M122.435,436.313l66.901,66.901C210.592,508.931,232.937,512,256,512c141.384,0,256-114.615,256-256
	c0-23.063-3.068-45.408-8.786-66.665L389.565,75.687L122.435,436.313z"/>
<polygon style="fill:#F79E73;" points="389.565,75.687 389.565,436.313 256,436.313 189.217,278.261 256,75.687 "/>
<rect x="122.435" y="75.687" style="fill:#FBC09B;" width="133.565" height="360.626"/>
<polygon style="fill:#592C1A;" points="367.304,97.948 367.304,414.052 345.043,414.052 256,380.661 221.753,256 256,97.948 "/>
<polygon style="fill:#7A3E25;" points="256,97.948 256,380.661 166.957,414.052 144.696,414.052 144.696,97.948 "/>
<polygon style="fill:#FAC656;" points="345.043,345.786 345.043,414.052 311.652,414.052 322.783,345.786 "/>
<polygon style="fill:#FEEB5C;" points="322.783,345.786 322.783,414.052 289.391,414.052 300.522,345.786 "/>
<polygon style="fill:#FAC656;" points="300.522,345.786 300.522,414.052 267.13,414.052 278.261,345.786 "/>
<polygon style="fill:#FEEB5C;" points="278.261,345.786 278.261,414.052 244.87,414.052 256,345.786 "/>
<polygon style="fill:#FFF296;" points="256,345.786 256,414.052 222.609,414.052 233.739,345.786 "/>
<polygon style="fill:#FFF9CF;" points="233.739,345.786 233.739,414.052 200.348,414.052 211.478,345.786 "/>
<polygon style="fill:#FFF296;" points="211.478,345.786 211.478,414.052 178.087,414.052 189.217,345.786 "/>
<rect x="166.957" y="345.789" style="fill:#FFF9CF;" width="22.261" height="68.263"/>
<polygon style="fill:#008CCB;" points="345.043,232.997 345.043,313.136 311.652,313.136 322.783,232.997 "/>
<polygon style="fill:#3AAADC;" points="322.783,232.997 322.783,313.136 289.391,313.136 300.522,232.997 "/>
<polygon style="fill:#008CCB;" points="300.522,232.997 300.522,313.136 267.13,313.136 278.261,232.997 "/>
<polygon style="fill:#3AAADC;" points="278.261,232.997 278.261,313.136 244.87,313.136 256,232.997 "/>
<polygon style="fill:#74C8EE;" points="256,232.997 256,313.136 222.609,313.136 233.739,232.997 "/>
<polygon style="fill:#AEE6FF;" points="233.739,232.997 233.739,313.136 200.348,313.136 211.478,232.997 "/>
<polygon style="fill:#74C8EE;" points="211.478,232.997 211.478,313.136 178.087,313.136 189.217,232.997 "/>
<rect x="166.957" y="232.993" style="fill:#AEE6FF;" width="22.261" height="80.139"/>
<polygon style="fill:#F79E73;" points="378.435,301.264 378.435,323.525 256,323.525 244.87,312.395 256,301.264 "/>
<rect x="133.565" y="301.267" style="fill:#FBC09B;" width="122.435" height="22.261"/>
<polygon style="fill:#E0315B;" points="345.043,120.209 345.043,200.348 311.652,200.348 322.783,120.209 "/>
<polygon style="fill:#EA5A7D;" points="322.783,120.209 322.783,200.348 289.391,200.348 300.522,120.209 "/>
<polygon style="fill:#E0315B;" points="300.522,120.209 300.522,200.348 267.13,200.348 278.261,120.209 "/>
<polygon style="fill:#EA5A7D;" points="278.261,120.209 278.261,200.348 244.87,200.348 256,120.209 "/>
<polygon style="fill:#F5849F;" points="256,120.209 256,200.348 222.609,200.348 233.739,120.209 "/>
<polygon style="fill:#FFADC1;" points="233.739,120.209 233.739,200.348 200.348,200.348 211.478,120.209 "/>
<polygon style="fill:#F5849F;" points="211.478,120.209 211.478,200.348 178.087,200.348 189.217,120.209 "/>
<rect x="166.957" y="120.209" style="fill:#FFADC1;" width="22.261" height="80.139"/>
<polygon style="fill:#F79E73;" points="378.435,188.475 378.435,210.736 256,210.736 244.87,199.605 256,188.475 "/>
<rect x="133.565" y="188.472" style="fill:#FBC09B;" width="122.435" height="22.261"/>
<g>
</g>
<g>
</g>
<g>
</g>
<g>
</g>
<g>
</g>
<g>
</g>
<g>
</g>
<g>
</g>
<g>
</g>
<g>
</g>
<g>
</g>
<g>
</g>
<g>
</g>
<g>
</g>
<g>
</g>
</svg>
