<?xml version="1.0" encoding="iso-8859-1"?>
<!-- Generator: Adobe Illustrator 19.0.0, SVG Export Plug-In . SVG Version: 6.00 Build 0)  -->
<svg version="1.1" id="Layer_1" xmlns="http://www.w3.org/2000/svg" xmlns:xlink="http://www.w3.org/1999/xlink" x="0px" y="0px"
	 viewBox="0 0 512 512" style="enable-background:new 0 0 512 512;" xml:space="preserve">
<path style="fill:#748993;" d="M503.231,189.329C473.895,80.272,374.322,0,256,0C114.615,0,0,114.616,0,256
	c0,118.322,80.273,217.896,189.33,247.233L503.231,189.329z"/>
<path style="fill:#414D53;" d="M122.435,436.313l66.901,66.901C210.592,508.931,232.937,512,256,512c141.384,0,256-114.615,256-256
	c0-23.063-3.068-45.408-8.786-66.665L389.565,75.687L122.435,436.313z"/>
<polygon style="fill:#F79E73;" points="389.565,75.687 389.565,414.052 256,425.183 189.217,267.13 256,75.687 "/>
<g>
	<polygon style="fill:#FBC09B;" points="256,75.687 256,425.183 122.435,414.052 122.435,75.687 	"/>
	<polygon style="fill:#FBC09B;" points="256,414.052 238.171,425.183 256,436.313 389.565,436.313 389.565,414.052 	"/>
</g>
<rect x="122.435" y="414.052" style="fill:#FFE2C4;" width="133.565" height="22.261"/>
<polygon style="fill:#FFF9CF;" points="367.304,97.948 367.304,391.791 281.229,391.791 281.229,278.261 292.36,244.87 
	281.229,211.478 281.229,97.948 "/>
<polygon style="fill:#FFFFFF;" points="230.771,97.948 230.771,211.478 219.64,244.87 230.771,278.261 230.771,391.791 
	144.696,391.791 144.696,97.948 "/>
<rect x="281.233" y="211.478" style="fill:#F37C4A;" width="22.261" height="66.783"/>
<rect x="208.506" y="211.478" style="fill:#F79E73;" width="22.261" height="66.783"/>
<g>
</g>
<g>
</g>
<g>
</g>
<g>
</g>
<g>
</g>
<g>
</g>
<g>
</g>
<g>
</g>
<g>
</g>
<g>
</g>
<g>
</g>
<g>
</g>
<g>
</g>
<g>
</g>
<g>
</g>
</svg>
