<?xml version="1.0" encoding="iso-8859-1"?>
<!-- Generator: Adobe Illustrator 19.0.0, SVG Export Plug-In . SVG Version: 6.00 Build 0)  -->
<svg version="1.1" id="Layer_1" xmlns="http://www.w3.org/2000/svg" xmlns:xlink="http://www.w3.org/1999/xlink" x="0px" y="0px"
	 viewBox="0 0 512 512" style="enable-background:new 0 0 512 512;" xml:space="preserve">
<path style="fill:#A65A3A;" d="M256,0C114.616,0,0,114.615,0,256c0,116.645,78.013,215.069,184.71,245.943L501.943,184.71
	C471.069,78.013,372.645,0,256,0z"/>
<path style="fill:#7A3E25;" d="M512,256c0-24.741-3.522-48.657-10.07-71.287L400.696,83.478L133.565,372.87l-22.261,55.652
	l73.409,73.409C207.343,508.478,231.259,512,256,512C397.384,512,512,397.384,512,256z"/>
<polygon style="fill:#F37C4A;" points="400.696,83.478 400.696,105.739 233.739,128 256,83.478 "/>
<polygon style="fill:#F79E73;" points="256,83.478 256,128 111.304,105.739 111.304,83.478 "/>
<polygon style="fill:#F37C4A;" points="378.435,384 378.435,428.522 400.696,428.522 400.696,395.13 "/>
<polygon style="fill:#F79E73;" points="111.304,395.13 111.304,428.522 133.565,428.522 133.565,384 "/>
<polygon style="fill:#FBC09B;" points="256,105.739 211.478,317.217 256,395.13 400.696,395.13 400.696,105.739 "/>
<rect x="111.304" y="105.739" style="fill:#FFE2C4;" width="144.696" height="289.391"/>
<polygon style="fill:#FFF9CF;" points="378.435,261.565 378.435,372.87 256,372.87 222.609,317.217 256,261.565 "/>
<rect x="133.565" y="261.565" style="fill:#FFFFFF;" width="122.435" height="111.304"/>
<polygon style="fill:#F37C4A;" points="256,306.087 256,317.217 256,328.348 289.391,328.348 289.391,306.087 "/>
<rect x="222.609" y="306.087" style="fill:#F79E73;" width="33.391" height="22.261"/>
<polygon style="fill:#FFF9CF;" points="378.435,128 378.435,239.304 256,239.304 222.609,183.652 256,128 "/>
<rect x="133.565" y="128" style="fill:#FFFFFF;" width="122.435" height="111.304"/>
<polygon style="fill:#F37C4A;" points="256,172.522 256,183.652 256,194.783 289.391,194.783 289.391,172.522 "/>
<rect x="222.609" y="172.522" style="fill:#F79E73;" width="33.391" height="22.261"/>
<g>
</g>
<g>
</g>
<g>
</g>
<g>
</g>
<g>
</g>
<g>
</g>
<g>
</g>
<g>
</g>
<g>
</g>
<g>
</g>
<g>
</g>
<g>
</g>
<g>
</g>
<g>
</g>
<g>
</g>
</svg>
