<?xml version="1.0" encoding="iso-8859-1"?>
<!-- Generator: Adobe Illustrator 19.0.0, SVG Export Plug-In . SVG Version: 6.00 Build 0)  -->
<svg version="1.1" id="Layer_1" xmlns="http://www.w3.org/2000/svg" xmlns:xlink="http://www.w3.org/1999/xlink" x="0px" y="0px"
	 viewBox="0 0 512 512" style="enable-background:new 0 0 512 512;" xml:space="preserve">
<circle style="fill:#9AE4E8;" cx="256" cy="256" r="256"/>
<path style="fill:#38C6D9;" d="M256,512c139.821,0,253.445-112.099,255.941-251.325L378.328,127.062L228.705,94.527l-86.554,49.495
	l73.051,73.051v48.905l-44.535,27.948l74.128,74.128v143.688C248.511,511.902,252.244,512,256,512z"/>
<path style="fill:#E09112;" d="M241.778,511.6c4.71,0.259,9.449,0.4,14.222,0.4s9.513-0.141,14.222-0.4V256h-28.444V511.6z"/>
<path style="fill:#D35933;" d="M270.222,256h-14.22v256c4.773,0,9.513-0.141,14.22-0.4V256z"/>
<polygon style="fill:#FF6262;" points="327.758,292.526 184.242,292.526 160.323,125.092 256,77.253 351.677,125.092 "/>
<g>
	<polygon style="fill:#FF314F;" points="351.677,125.092 256.002,77.253 256.002,292.526 327.758,292.526 	"/>
	<polygon style="fill:#FF314F;" points="369.847,144.022 256,87.099 142.152,144.022 133.672,127.062 256,65.898 378.327,127.062 	
		"/>
	<circle style="fill:#FF314F;" cx="256" cy="170.667" r="38.788"/>
</g>
<circle style="fill:#FFFFFF;" cx="256" cy="245.657" r="11.205"/>
<rect x="170.667" y="274.963" style="fill:#FF314F;" width="170.667" height="18.963"/>
<g>
	<polygon style="fill:#A30F44;" points="378.327,127.062 256.002,65.898 256.002,87.1 369.847,144.022 	"/>
	<path style="fill:#A30F44;" d="M294.788,170.667c0-21.421-17.365-38.788-38.786-38.788v77.576
		C277.423,209.455,294.788,192.088,294.788,170.667z"/>
</g>
<path style="fill:#FFAD9E;" d="M267.205,245.657c0-6.189-5.017-11.205-11.204-11.205v22.411
	C262.189,256.862,267.205,251.845,267.205,245.657z"/>
<rect x="256" y="274.963" style="fill:#A30F44;" width="85.333" height="18.963"/>
<g>
</g>
<g>
</g>
<g>
</g>
<g>
</g>
<g>
</g>
<g>
</g>
<g>
</g>
<g>
</g>
<g>
</g>
<g>
</g>
<g>
</g>
<g>
</g>
<g>
</g>
<g>
</g>
<g>
</g>
</svg>
