<?xml version="1.0" encoding="iso-8859-1"?>
<!-- Generator: Adobe Illustrator 19.0.0, SVG Export Plug-In . SVG Version: 6.00 Build 0)  -->
<svg version="1.1" id="Layer_1" xmlns="http://www.w3.org/2000/svg" xmlns:xlink="http://www.w3.org/1999/xlink" x="0px" y="0px"
	 viewBox="0 0 512 512" style="enable-background:new 0 0 512 512;" xml:space="preserve">
<circle style="fill:#FFEDB5;" cx="256" cy="256" r="256"/>
<path style="fill:#FEE187;" d="M261.568,511.929c109.604-2.339,202.242-73.561,236.378-172.113l-134.67-134.672l-17.056,19.408
	l-87.204-87.204l-107.599,19.239l-54.12,42.524l160.256,158.498l-126.976,24.074L261.568,511.929z"/>
<path style="fill:#2E5E24;" d="M235.744,212.04h-38.788c-12.853,0-23.273-10.419-23.273-23.273l0,0
	c0-12.853,10.419-23.273,23.273-23.273h38.788c12.853,0,23.273,10.419,23.273,23.273l0,0
	C259.017,201.621,248.598,212.04,235.744,212.04z"/>
<path style="fill:#FF5419;" d="M312.889,199.111c0,0,18.675,71.542-56.889,85.333l28.444,56.889
	C284.444,341.333,362.594,246.519,312.889,199.111z"/>
<path style="fill:#EAA22F;" d="M312.889,369.778c0,0-17.527-111.192-85.333-142.222c-32.906-15.058-40.572-42.298-39.746-66.348
	c-4.563,1.572-9.283,2.663-14.095,3.362l-3.048,6.097c0,0-14.941,55.165,28.444,85.333s-28.444,113.778-28.444,113.778H312.889z"/>
<path style="fill:#E09112;" d="M251.978,243.721v126.057h60.911C312.889,369.778,299.701,286.168,251.978,243.721z"/>
<path style="fill:#D35933;" d="M341.333,398.222H170.667c-31.418,0-56.889-25.471-56.889-56.889l0,0h284.444l0,0
	C398.222,372.752,372.753,398.222,341.333,398.222z"/>
<path style="fill:#B54324;" d="M251.978,341.333v56.889h89.355c31.418,0,56.889-25.471,56.889-56.889H251.978z"/>
<path style="fill:#477F3C;" d="M341.333,251.69h-28.444c-15.71,0-28.444-12.734-28.444-28.444l0,0
	c0-15.71,12.734-28.444,28.444-28.444h28.444c15.71,0,28.444,12.734,28.444,28.444l0,0
	C369.778,238.956,357.043,251.69,341.333,251.69z"/>
<path style="fill:#2E5E24;" d="M341.333,194.801h-14.077v56.889h14.077c15.71,0,28.444-12.734,28.444-28.444l0,0
	C369.778,207.536,357.043,194.801,341.333,194.801z"/>
<path style="fill:#6CAF5F;" d="M239.192,186.182H130.586c-15.71,0-28.444-12.734-28.444-28.444l0,0
	c0-15.71,12.734-28.444,28.444-28.444h108.606c15.71,0,28.444,12.734,28.444,28.444l0,0
	C267.636,173.447,254.902,186.182,239.192,186.182z"/>
<g>
	<path style="fill:#477F3C;" d="M239.192,129.293H185.32v56.889h53.872c15.71,0,28.444-12.734,28.444-28.444l0,0
		C267.636,142.027,254.902,129.293,239.192,129.293z"/>
	<path style="fill:#477F3C;" d="M145.239,205.145h-34.478c-9.997,0-18.101-8.104-18.101-18.101l0,0
		c0-9.997,8.104-18.101,18.101-18.101h34.478c9.997,0,18.101,8.104,18.101,18.101l0,0
		C163.34,197.041,155.236,205.145,145.239,205.145z"/>
</g>
<g>
</g>
<g>
</g>
<g>
</g>
<g>
</g>
<g>
</g>
<g>
</g>
<g>
</g>
<g>
</g>
<g>
</g>
<g>
</g>
<g>
</g>
<g>
</g>
<g>
</g>
<g>
</g>
<g>
</g>
</svg>
