<?xml version="1.0" encoding="iso-8859-1"?>
<!-- Generator: Adobe Illustrator 19.0.0, SVG Export Plug-In . SVG Version: 6.00 Build 0)  -->
<svg version="1.1" id="Layer_1" xmlns="http://www.w3.org/2000/svg" xmlns:xlink="http://www.w3.org/1999/xlink" x="0px" y="0px"
	 viewBox="0 0 512 512" style="enable-background:new 0 0 512 512;" xml:space="preserve">
<path style="fill:#748993;" d="M503.231,189.329C473.895,80.272,374.322,0,256,0C114.615,0,0,114.616,0,256
	c0,118.322,80.273,217.896,189.33,247.233L503.231,189.329z"/>
<path style="fill:#414D53;" d="M122.435,436.313l66.901,66.901C210.592,508.931,232.937,512,256,512c141.384,0,256-114.615,256-256
	c0-23.063-3.068-45.408-8.786-66.665L389.565,75.687L122.435,436.313z"/>
<polygon style="fill:#F79E73;" points="389.565,75.687 389.565,436.313 256,436.313 189.217,278.261 256,75.687 "/>
<rect x="122.435" y="75.687" style="fill:#FBC09B;" width="133.565" height="360.626"/>
<polygon style="fill:#592C1A;" points="256,97.948 221.753,256 256,414.052 367.304,414.052 367.304,97.948 "/>
<rect x="144.696" y="97.948" style="fill:#7A3E25;" width="111.304" height="316.104"/>
<polygon style="fill:#F79E73;" points="378.435,301.264 378.435,323.525 256,323.525 244.87,312.395 256,301.264 "/>
<rect x="133.565" y="301.267" style="fill:#FBC09B;" width="122.435" height="22.261"/>
<polygon style="fill:#F79E73;" points="378.435,188.475 378.435,210.736 256,210.736 244.87,199.605 256,188.475 "/>
<rect x="133.565" y="188.472" style="fill:#FBC09B;" width="122.435" height="22.261"/>
<g>
</g>
<g>
</g>
<g>
</g>
<g>
</g>
<g>
</g>
<g>
</g>
<g>
</g>
<g>
</g>
<g>
</g>
<g>
</g>
<g>
</g>
<g>
</g>
<g>
</g>
<g>
</g>
<g>
</g>
</svg>
