<?xml version="1.0" encoding="iso-8859-1"?>
<!-- Generator: Adobe Illustrator 19.0.0, SVG Export Plug-In . SVG Version: 6.00 Build 0)  -->
<svg version="1.1" id="Layer_1" xmlns="http://www.w3.org/2000/svg" xmlns:xlink="http://www.w3.org/1999/xlink" x="0px" y="0px"
	 viewBox="0 0 512 512" style="enable-background:new 0 0 512 512;" xml:space="preserve">
<circle style="fill:#273B7A;" cx="256" cy="256" r="256"/>
<path style="fill:#121149;" d="M501.282,329.466L283.008,111.192L232.741,267.39l-52.133,109.527l129.365,129.365
	C401.439,486.648,474.753,418.164,501.282,329.466z"/>
<polygon style="fill:#D35933;" points="180.608,354.659 180.608,376.916 220.975,376.916 241.159,368.149 261.342,376.916 
	358.591,376.916 362.26,354.659 321.893,332.404 "/>
<polygon style="fill:#B54324;" points="321.893,332.404 220.374,348.396 220.374,376.916 220.975,376.916 241.159,368.149 
	261.342,376.916 358.591,376.916 362.26,354.659 "/>
<path style="fill:#FEE187;" d="M283.008,111.192c0,0-23.792,98.423-21.549,151.704c2.243,53.279,54.596,13.346,86.195,39.65
	s14.605,53.464,14.605,53.464H180.608c0,0-14.474-209.072-20.184-244.817H283.008z"/>
<path style="fill:#FFC61B;" d="M347.655,302.545c-31.599-26.303-83.952,13.629-86.195-39.65s21.549-151.704,21.549-151.704h-62.635
	v244.815H362.26C362.26,356.009,379.254,328.849,347.655,302.545z"/>
<g>
</g>
<g>
</g>
<g>
</g>
<g>
</g>
<g>
</g>
<g>
</g>
<g>
</g>
<g>
</g>
<g>
</g>
<g>
</g>
<g>
</g>
<g>
</g>
<g>
</g>
<g>
</g>
<g>
</g>
</svg>
