<?xml version="1.0" encoding="iso-8859-1"?>
<!-- Generator: Adobe Illustrator 19.0.0, SVG Export Plug-In . SVG Version: 6.00 Build 0)  -->
<svg version="1.1" id="Layer_1" xmlns="http://www.w3.org/2000/svg" xmlns:xlink="http://www.w3.org/1999/xlink" x="0px" y="0px"
	 viewBox="0 0 512 512" style="enable-background:new 0 0 512 512;" xml:space="preserve">
<circle style="fill:#273B7A;" cx="256" cy="256" r="256"/>
<path style="fill:#121149;" d="M512,256c0-6.577-0.25-13.093-0.736-19.546L398.688,123.88L255.433,274.97l-131.231,89.143
	l147.401,147.401C405.719,503.448,512,392.144,512,256z"/>
<path style="fill:#FF7F4F;" d="M246.7,187.851c0,0-40.832-69.417-133.387-63.971c0,0-48.999,178.985,136.109,221.858L246.7,187.851z
	"/>
<path style="fill:#FFC61B;" d="M246.019,262.711c0,0-80.305-0.681-121.818,101.402c0,0,47.638,42.194,125.902-4.763L246.019,262.711
	z"/>
<path style="fill:#D35933;" d="M265.3,187.851c0,0,40.832-69.417,133.387-63.971c0,0,48.999,178.985-136.109,221.858L265.3,187.851z
	"/>
<path style="fill:#EAA22F;" d="M265.981,262.711c0,0,80.305-0.681,121.818,101.402c0,0-47.638,42.194-125.902-4.763L265.981,262.711
	z"/>
<path style="fill:#FEE187;" d="M256,377.042L256,377.042c-10.149,0-18.375-8.227-18.375-18.375V191.252
	c0-10.149,8.226-18.375,18.375-18.375l0,0c10.149,0,18.375,8.226,18.375,18.375v167.415
	C274.375,368.816,266.149,377.042,256,377.042z"/>
<path style="fill:#FFC61B;" d="M256,172.878L256,172.878c10.149,0,18.375,8.226,18.375,18.375v167.415
	c0,10.149-8.226,18.375-18.375,18.375l0,0V172.878z"/>
<circle style="fill:#FF314F;" cx="182.941" cy="215.057" r="20.256"/>
<circle style="fill:#A30F44;" cx="329.042" cy="215.057" r="20.256"/>
<circle style="fill:#FEE187;" cx="198.111" cy="334.007" r="16.053"/>
<circle style="fill:#FFC61B;" cx="313.889" cy="334.007" r="16.053"/>
<g>
</g>
<g>
</g>
<g>
</g>
<g>
</g>
<g>
</g>
<g>
</g>
<g>
</g>
<g>
</g>
<g>
</g>
<g>
</g>
<g>
</g>
<g>
</g>
<g>
</g>
<g>
</g>
<g>
</g>
</svg>
