<?xml version="1.0" encoding="iso-8859-1"?>
<!-- Generator: Adobe Illustrator 19.0.0, SVG Export Plug-In . SVG Version: 6.00 Build 0)  -->
<svg version="1.1" id="Layer_1" xmlns="http://www.w3.org/2000/svg" xmlns:xlink="http://www.w3.org/1999/xlink" x="0px" y="0px"
	 viewBox="0 0 512 512" style="enable-background:new 0 0 512 512;" xml:space="preserve">
<circle style="fill:#FFC61B;" cx="256" cy="256" r="256"/>
<g>
	<polygon style="fill:#EAA22F;" points="183.453,129.239 205.002,150.788 214.214,144.593 223.937,128.565 203.655,108.284 	"/>
	<path style="fill:#EAA22F;" d="M286.892,510.138c126.226-15.186,224.175-122.213,225.083-252.318L359.602,105.446l-87.224,75.564
		l-21.223,127.031l-25.897-25.897l-65.796,22.125l89.947,89.947l-50.297,28.141L286.892,510.138z"/>
</g>
<polygon style="fill:#D35933;" points="312.889,422.357 199.111,422.357 170.667,280.135 341.333,280.135 "/>
<polygon style="fill:#B54324;" points="341.333,280.135 255.426,280.135 255.426,422.357 312.889,422.357 "/>
<path style="fill:#6CAF5F;" d="M190.492,177.274c0-36.18,29.329-65.508,65.508-65.508s65.508,29.329,65.508,65.508
	S292.18,286.454,256,286.454S190.492,213.454,190.492,177.274z"/>
<path style="fill:#477F3C;" d="M256,111.766c-0.193,0-0.383,0.014-0.574,0.016v174.656c0.191,0.003,0.383,0.017,0.574,0.017
	c36.18,0,65.508-73.002,65.508-109.18S292.18,111.766,256,111.766z"/>
<g>
	<path style="fill:#2E5E24;" d="M359.603,105.446c7.883,11.252,5.153,26.764-6.099,34.647c-11.252,7.883-47.138,19.427-55.022,8.175
		c-7.883-11.252,15.22-41.039,26.474-48.921C336.21,91.465,351.72,94.194,359.603,105.446z"/>
	<path style="fill:#2E5E24;" d="M346.608,174.778c-0.733,7.989-7.802,13.871-15.791,13.138c-7.989-0.733-28.336-9.13-27.603-17.117
		s22.268-12.543,30.256-11.81C341.459,159.72,347.341,166.79,346.608,174.778z"/>
	<path style="fill:#2E5E24;" d="M184.206,107.468c6.17-5.13,15.327-4.289,20.456,1.877c5.129,6.166,13.572,26.488,7.402,31.618
		c-6.17,5.13-24.614-6.875-29.743-13.041C177.193,121.754,178.038,112.597,184.206,107.468z"/>
</g>
<rect x="159.461" y="256" style="fill:#B54324;" width="193.077" height="48.269"/>
<rect x="255.431" y="256" style="fill:#930000;" width="97.108" height="48.269"/>
<g>
</g>
<g>
</g>
<g>
</g>
<g>
</g>
<g>
</g>
<g>
</g>
<g>
</g>
<g>
</g>
<g>
</g>
<g>
</g>
<g>
</g>
<g>
</g>
<g>
</g>
<g>
</g>
<g>
</g>
</svg>
