<?xml version="1.0" encoding="iso-8859-1"?>
<!-- Generator: Adobe Illustrator 19.0.0, SVG Export Plug-In . SVG Version: 6.00 Build 0)  -->
<svg version="1.1" id="Layer_1" xmlns="http://www.w3.org/2000/svg" xmlns:xlink="http://www.w3.org/1999/xlink" x="0px" y="0px"
	 viewBox="0 0 512 512" style="enable-background:new 0 0 512 512;" xml:space="preserve">
<circle style="fill:#FEE187;" cx="256" cy="256" r="256"/>
<path style="fill:#FFC61B;" d="M286.892,510.138c54.874-6.632,108.013-31.003,150.128-73.118
	c44.916-44.916,69.639-102.372,74.195-161.099l-213.43-213.43l-4.327,3l-7.74-7.74l-8.456,16.156l0,0l0,0v210.137l-117.801,20.225
	l73.485,73.485l-33.835,44.603L286.892,510.138z"/>
<polygon style="fill:#B54324;" points="297.786,62.492 268.643,62.492 268.643,90.238 269.341,90.936 "/>
<polygon style="fill:#D35933;" points="240.897,62.492 268.643,90.238 268.643,62.492 "/>
<polygon style="fill:#FF7F4F;" points="285.718,57.751 269.341,95.677 252.964,57.751 "/>
<polygon style="fill:#D35933;" points="285.718,57.751 268.643,57.751 268.643,94.058 269.341,95.677 "/>
<path style="fill:#6CAF5F;" d="M303.09,284.444h-67.498V115.7c0-18.639,15.11-33.749,33.749-33.749l0,0
	c18.639,0,33.749,15.11,33.749,33.749V284.444L303.09,284.444z"/>
<path style="fill:#477F3C;" d="M303.09,115.7c0-18.639-15.11-33.749-33.749-33.749l0,0c-0.236,0-0.464,0.031-0.698,0.036v202.457
	h34.447V115.7z"/>
<path style="fill:#8BC180;" d="M341.447,300.722h-67.498V165.728c0-18.639,15.11-33.749,33.749-33.749l0,0
	c18.639,0,33.749,15.11,33.749,33.749L341.447,300.722L341.447,300.722z"/>
<g>
	<path style="fill:#6CAF5F;" d="M341.447,165.728c0-18.639-15.11-33.749-33.749-33.749c-0.184,0-0.362,0.024-0.545,0.028v168.717
		h34.294L341.447,165.728L341.447,165.728z"/>
	<path style="fill:#6CAF5F;" d="M251.956,282.4h-67.498v-65.452c0-18.639,15.11-33.749,33.749-33.749l0,0
		c18.639,0,33.749,15.11,33.749,33.749L251.956,282.4L251.956,282.4z"/>
</g>
<path style="fill:#477F3C;" d="M251.956,216.947c0-18.639-15.11-33.749-33.749-33.749c-0.238,0-0.469,0.031-0.707,0.036V282.4
	h34.456V216.947z"/>
<polygon style="fill:#D35933;" points="312.889,422.357 199.111,422.357 170.667,280.135 341.333,280.135 "/>
<g>
	<polygon style="fill:#B54324;" points="341.333,280.135 256,280.135 256,422.357 312.889,422.357 	"/>
	<rect x="159.461" y="256" style="fill:#B54324;" width="193.077" height="48.269"/>
</g>
<rect x="256" y="256" style="fill:#930000;" width="96.539" height="48.269"/>
<g>
</g>
<g>
</g>
<g>
</g>
<g>
</g>
<g>
</g>
<g>
</g>
<g>
</g>
<g>
</g>
<g>
</g>
<g>
</g>
<g>
</g>
<g>
</g>
<g>
</g>
<g>
</g>
<g>
</g>
</svg>
