<?xml version="1.0" encoding="iso-8859-1"?>
<!-- Generator: Adobe Illustrator 19.0.0, SVG Export Plug-In . SVG Version: 6.00 Build 0)  -->
<svg version="1.1" id="Layer_1" xmlns="http://www.w3.org/2000/svg" xmlns:xlink="http://www.w3.org/1999/xlink" x="0px" y="0px"
	 viewBox="0 0 512.001 512.001" style="enable-background:new 0 0 512.001 512.001;" xml:space="preserve">
<path style="fill:#FFADC1;" d="M437.03,74.982c-99.976-99.976-262.068-99.976-362.042,0s-99.976,262.068,0,362.042
	c34.202,34.202,75.674,56.697,119.442,67.497L505.495,198.54C495.111,153.262,472.301,110.255,437.03,74.982z"/>
<path style="fill:#F5849F;" d="M259.157,260.726l-130.65,177.873l65.923,65.923c84.169,20.771,176.827-1.723,242.6-67.497
	c64.703-64.704,87.513-155.422,68.465-238.484l-68.465-68.465L259.157,260.726z"/>
<polygon style="fill:#E64A55;" points="409.483,102.529 243.416,244.984 100.959,411.052 128.506,438.599 437.03,130.076 "/>
<rect x="23.285" y="223.541" transform="matrix(-0.7071 0.7071 -0.7071 -0.7071 584.0075 244.1356)" style="fill:#ED6350;" width="436.314" height="38.957"/>
<polygon style="fill:#313A3E;" points="441.752,164.706 390.594,184.382 370.917,235.54 453.557,263.087 469.298,247.346 "/>
<polygon style="fill:#394449;" points="441.752,164.706 394.529,117.483 343.37,137.159 323.695,188.318 370.917,235.54 "/>
<rect x="271.242" y="61.701" transform="matrix(-0.7071 0.7071 -0.7071 -0.7071 629.9493 -30.6793)" style="fill:#414D53;" width="100.174" height="106.852"/>
<g>
	
		<rect x="284.231" y="101.634" transform="matrix(-0.7071 0.7071 -0.7071 -0.7071 583.9501 -16.3505)" style="fill:#313A3E;" width="22.261" height="22.261"/>
	
		<rect x="331.456" y="101.632" transform="matrix(-0.7071 0.7071 -0.7071 -0.7071 664.5664 -49.7479)" style="fill:#313A3E;" width="22.261" height="22.261"/>
</g>
<g>
</g>
<g>
</g>
<g>
</g>
<g>
</g>
<g>
</g>
<g>
</g>
<g>
</g>
<g>
</g>
<g>
</g>
<g>
</g>
<g>
</g>
<g>
</g>
<g>
</g>
<g>
</g>
<g>
</g>
</svg>
