<?xml version="1.0" encoding="iso-8859-1"?>
<!-- Generator: Adobe Illustrator 19.0.0, SVG Export Plug-In . SVG Version: 6.00 Build 0)  -->
<svg version="1.1" id="Layer_1" xmlns="http://www.w3.org/2000/svg" xmlns:xlink="http://www.w3.org/1999/xlink" x="0px" y="0px"
	 viewBox="0 0 512 512" style="enable-background:new 0 0 512 512;" xml:space="preserve">
<path style="fill:#F79E73;" d="M512,256C512,114.616,397.384,0,256,0C114.615,0,0,114.615,0,256
	c0,121.572,84.743,223.351,198.38,249.49l312.589-226.365C511.652,271.508,512,263.795,512,256z"/>
<path style="fill:#F37C4A;" d="M510.949,279.12L271.741,39.912L256,373.878l-111.315,77.913l53.697,53.697
	C216.901,509.747,236.187,512,256,512C389.59,512,499.26,409.669,510.949,279.12z"/>
<path style="fill:#FFFFFF;" d="M256,33.391c-12.295,0-22.261,9.966-22.261,22.261v112.313h44.522V55.652
	C278.261,43.357,268.295,33.391,256,33.391z"/>
<polygon style="fill:#394449;" points="256,145.704 233.739,189.217 311.652,167.965 311.652,145.704 "/>
<g>
	<polygon style="fill:#57676E;" points="256,145.704 200.348,145.704 200.348,167.965 256,189.217 	"/>
	<polygon style="fill:#57676E;" points="233.739,318.226 256,396.139 311.652,396.139 311.652,340.487 	"/>
</g>
<polygon style="fill:#748993;" points="256,318.226 200.348,340.487 200.348,396.139 256,396.139 "/>
<polygon style="fill:#C4D3D9;" points="256,167.965 226.445,254.226 256,340.487 311.652,340.487 311.652,167.965 "/>
<rect x="200.348" y="167.969" style="fill:#FFFFFF;" width="55.652" height="172.522"/>
<polygon style="fill:#E64A55;" points="256,190.226 238.267,270.921 256,318.226 289.391,318.226 289.391,190.226 "/>
<rect x="222.609" y="190.23" style="fill:#F37C4A;" width="33.391" height="128"/>
<path style="fill:#A2B1B7;" d="M322.771,373.878H256l-50.087,55.652l161.38-11.13C367.293,393.913,347.258,373.878,322.771,373.878z
	"/>
<path style="fill:#C4D3D9;" d="M256,440.661L144.685,418.4c0-24.487,20.035-44.522,44.522-44.522H256V440.661z"/>
<polygon style="fill:#394449;" points="255.989,418.4 241.401,435.095 255.989,451.791 367.293,451.791 367.293,418.4 "/>
<rect x="144.685" y="418.404" style="fill:#57676E;" width="111.304" height="33.391"/>
<g>
</g>
<g>
</g>
<g>
</g>
<g>
</g>
<g>
</g>
<g>
</g>
<g>
</g>
<g>
</g>
<g>
</g>
<g>
</g>
<g>
</g>
<g>
</g>
<g>
</g>
<g>
</g>
<g>
</g>
</svg>
