<?xml version="1.0" encoding="iso-8859-1"?>
<!-- Generator: Adobe Illustrator 19.0.0, SVG Export Plug-In . SVG Version: 6.00 Build 0)  -->
<svg version="1.1" id="Layer_1" xmlns="http://www.w3.org/2000/svg" xmlns:xlink="http://www.w3.org/1999/xlink" x="0px" y="0px"
	 viewBox="0 0 512 512" style="enable-background:new 0 0 512 512;" xml:space="preserve">
<circle style="fill:#273B7A;" cx="256" cy="256" r="256"/>
<path style="fill:#121149;" d="M511.764,266.619l-133.08-133.08l-3.77-1.122l-16.324-9.319l-20.04-0.971l-7.811,2.424l-8.149,2.798
	l-5.099,5.099L181.296,268.641l23.3,19.675l-39.995,39.995l-14.591-14.591l-30.715,30.715l4.411,43.634l123.775,123.775
	c2.829,0.093,5.666,0.157,8.52,0.157C393.826,512,506.192,403.077,511.764,266.619z"/>
<path style="fill:#FFFFFF;" d="M370.15,192.734L242.462,320.422l-50.66-50.66L319.49,142.074c13.99-13.989,36.671-13.989,50.66,0
	l0,0C384.14,156.065,384.14,178.745,370.15,192.734z"/>
<path style="fill:#D0D1D3;" d="M217.162,295.124l25.298,25.3l127.688-127.688c13.979-13.979,13.988-36.635,0.029-50.628
	L217.162,295.124z"/>
<path style="fill:#FFFFFF;" d="M219.267,358.16l-65.202-65.203l159.416-159.418c17.977-17.977,47.228-17.977,65.203,0
	c17.977,17.979,17.977,47.228,0,65.203L219.267,358.16z M158.941,292.957l60.326,60.326l156.981-156.979l1.219,1.219l-1.219-1.219
	c16.631-16.631,16.631-43.696,0-60.328c-16.634-16.629-43.698-16.631-60.328,0L158.941,292.957z"/>
<path style="fill:#D0D1D3;" d="M378.715,133.572l-2.438,2.439c16.599,16.636,16.591,43.675-0.029,60.295l1.219,1.219l-1.219-1.219
	L219.267,353.285l-30.132-30.132l-2.438,2.438l32.57,32.57l159.418-159.416C396.65,180.777,396.66,151.554,378.715,133.572z"/>
<path style="fill:#D35933;" d="M151.838,399.7c-10.187,0-20.375-3.877-28.131-11.631c-15.512-15.513-15.512-40.755-0.002-56.267
	l38.157-38.155l13.407,13.41l-38.155,38.155c-8.116,8.118-8.116,21.328,0.002,29.448c8.12,8.114,21.328,8.12,29.448-0.002
	l38.155-38.154l13.407,13.407l-38.155,38.155C172.215,395.823,162.026,399.7,151.838,399.7z"/>
<path style="fill:#B54324;" d="M166.564,374.658c-8.033,8.035-21.04,8.102-29.179,0.245l-13.409,13.409
	c7.723,7.582,17.789,11.388,27.862,11.388c10.188,0,20.377-3.877,28.132-11.633l38.155-38.155l-13.407-13.407L166.564,374.658z"/>
<path style="fill:#A6A8AA;" d="M342.512,183.482l-120.11,120.11l-13.771-13.771l120.11-120.11c3.803-3.803,9.968-3.803,13.771,0l0,0
	C346.315,173.515,346.315,179.679,342.512,183.482z"/>
<path style="fill:#808183;" d="M215.549,296.738l6.854,6.854l120.11-120.11c3.793-3.793,3.799-9.931,0.028-13.736L215.549,296.738z"
	/>
<path style="fill:#E09112;" d="M211.584,371.96l43.672-43.672l-60.259-60.259c-6.17-6.17-16.174-6.17-22.344,0l-43.672,43.672
	l60.259,60.259C195.41,378.13,205.414,378.13,211.584,371.96z"/>
<path style="fill:#FF5419;" d="M164.783,347.503l24.457,24.457c6.17,6.17,16.174,6.17,22.344,0l43.672-43.672l-35.63-35.628
	L164.783,347.503z"/>
<path style="fill:#FFC61B;" d="M195.332,323.52c-1.984,0-3.972-0.757-5.485-2.272l-61.274-61.275c-3.031-3.029-3.031-7.94,0-10.969
	c3.027-3.031,7.942-3.031,10.969,0l61.274,61.275c3.031,3.029,3.031,7.94,0,10.969C199.304,322.763,197.317,323.52,195.332,323.52z"
	/>
<g>
</g>
<g>
</g>
<g>
</g>
<g>
</g>
<g>
</g>
<g>
</g>
<g>
</g>
<g>
</g>
<g>
</g>
<g>
</g>
<g>
</g>
<g>
</g>
<g>
</g>
<g>
</g>
<g>
</g>
</svg>
