<?xml version="1.0" encoding="iso-8859-1"?>
<!-- Generator: Adobe Illustrator 19.0.0, SVG Export Plug-In . SVG Version: 6.00 Build 0)  -->
<svg version="1.1" id="Layer_1" xmlns="http://www.w3.org/2000/svg" xmlns:xlink="http://www.w3.org/1999/xlink" x="0px" y="0px"
	 viewBox="0 0 512 512" style="enable-background:new 0 0 512 512;" xml:space="preserve">
<path style="fill:#A65A3A;" d="M256,0C114.615,0,0,114.616,0,256c0,117.771,79.526,216.967,187.806,246.817L507.26,206.71
	C484.283,88.909,380.524,0,256,0z"/>
<path style="fill:#7A3E25;" d="M122.435,437.426l65.375,65.375C209.522,508.787,232.385,512,256,512c141.385,0,256-114.616,256-256
	c0-16.86-1.648-33.335-4.759-49.286L366.111,65.585L151.275,203.621L122.435,437.426z"/>
<path style="fill:#FEEB5C;" d="M380.501,96.781c-1.2-24.457-22.216-44.468-46.703-44.468H256L200.348,281.6h189.217L380.501,96.781z
	"/>
<path style="fill:#FFF296;" d="M178.38,52.313c-24.487,0-45.519,20.01-46.737,44.466L122.435,281.6H256V52.313H178.38z"/>
<polygon style="fill:#D3754F;" points="367.304,314.991 367.304,437.426 389.565,437.426 389.565,326.122 "/>
<polygon style="fill:#F37C4A;" points="122.435,326.122 122.435,437.426 144.696,437.426 144.696,314.991 "/>
<path style="fill:#FFF9CF;" d="M389.565,281.6v22.261L192,314.991l44.522-89.043h97.391
	C364.518,225.948,389.565,250.995,389.565,281.6z"/>
<path style="fill:#FFFFFF;" d="M122.435,281.6v22.261L256,314.991v-89.043h-77.913C147.482,225.948,122.435,250.995,122.435,281.6z"
	/>
<polygon style="fill:#F79E73;" points="256,303.861 238.171,314.991 256,326.122 389.565,326.122 389.565,303.861 "/>
<rect x="122.435" y="303.861" style="fill:#FBC09B;" width="133.565" height="22.261"/>
<g>
</g>
<g>
</g>
<g>
</g>
<g>
</g>
<g>
</g>
<g>
</g>
<g>
</g>
<g>
</g>
<g>
</g>
<g>
</g>
<g>
</g>
<g>
</g>
<g>
</g>
<g>
</g>
<g>
</g>
</svg>
