<?xml version="1.0" encoding="iso-8859-1"?>
<!-- Generator: Adobe Illustrator 19.0.0, SVG Export Plug-In . SVG Version: 6.00 Build 0)  -->
<svg version="1.1" id="Layer_1" xmlns="http://www.w3.org/2000/svg" xmlns:xlink="http://www.w3.org/1999/xlink" x="0px" y="0px"
	 viewBox="0 0 512 512" style="enable-background:new 0 0 512 512;" xml:space="preserve">
<path style="fill:#C4D3D9;" d="M510.73,230.4C497.884,101.037,388.745,0,256,0C114.616,0,0,114.616,0,256
	c0,124.405,88.745,228.068,206.378,251.176L510.73,230.4z"/>
<path style="fill:#A2B1B7;" d="M512,256c0-8.641-0.435-17.18-1.271-25.6L336.62,56.291l-80.613,169.657L256,395.209h-92.304
	l-10.514,58.772l53.195,53.195C222.434,510.33,239.021,512,256,512C397.384,512,512,397.384,512,256z"/>
<rect x="244.87" y="278.261" style="fill:#FFFFFF;" width="22.261" height="106.852"/>
<polygon style="fill:#414D53;" points="133.572,248.209 133.572,181.426 89.05,181.426 89.05,203.687 111.311,203.687 
	111.311,270.47 178.094,270.47 178.094,248.209 "/>
<polygon style="fill:#313A3E;" points="422.957,181.426 378.435,181.426 378.435,248.209 333.913,248.209 333.913,270.47 
	400.696,270.47 400.696,203.687 422.957,203.687 "/>
<path style="fill:#414D53;" d="M289.398,36.73h-33.391l-22.261,222.609l122.435-33.391V103.513
	C356.181,66.629,326.281,36.73,289.398,36.73z"/>
<g>
	<path style="fill:#57676E;" d="M222.615,36.73c-36.883,0-66.783,29.899-66.783,66.783v122.435l100.174,33.391V36.73H222.615z"/>
	<polygon style="fill:#57676E;" points="356.174,225.948 256.002,225.948 244.872,281.6 356.174,270.47 	"/>
</g>
<polygon style="fill:#748993;" points="155.826,225.948 155.826,270.47 256.002,281.6 256.002,225.948 "/>
<polygon style="fill:#313A3E;" points="356.174,270.47 256.002,270.47 233.741,281.6 256.002,292.73 356.174,292.73 "/>
<rect x="155.826" y="270.47" style="fill:#414D53;" width="100.174" height="22.261"/>
<polygon style="fill:#313A3E;" points="278.261,320.557 256.007,320.557 244.876,398.47 278.261,398.47 "/>
<rect x="233.739" y="320.557" style="fill:#394449;" width="22.261" height="77.913"/>
<path style="fill:#414D53;" d="M256,387.339H155.826V409.6c0.006,0,0.006,22.261,0.006,22.261h22.261V409.6h66.777L256,387.339z"/>
<polygon style="fill:#313A3E;" points="244.87,387.339 244.87,409.6 244.87,431.861 267.13,431.861 267.13,409.6 333.913,409.6 
	333.913,431.861 356.174,431.861 356.174,387.339 "/>
<circle style="fill:#57676E;" cx="256" cy="440.209" r="19.478"/>
<circle style="fill:#748993;" cx="166.957" cy="440.209" r="19.478"/>
<circle style="fill:#57676E;" cx="345.043" cy="440.209" r="19.478"/>
<g>
</g>
<g>
</g>
<g>
</g>
<g>
</g>
<g>
</g>
<g>
</g>
<g>
</g>
<g>
</g>
<g>
</g>
<g>
</g>
<g>
</g>
<g>
</g>
<g>
</g>
<g>
</g>
<g>
</g>
</svg>
