<?xml version="1.0" encoding="iso-8859-1"?>
<!-- Generator: Adobe Illustrator 19.0.0, SVG Export Plug-In . SVG Version: 6.00 Build 0)  -->
<svg version="1.1" id="Layer_1" xmlns="http://www.w3.org/2000/svg" xmlns:xlink="http://www.w3.org/1999/xlink" x="0px" y="0px"
	 viewBox="0 0 512 512" style="enable-background:new 0 0 512 512;" xml:space="preserve">
<path style="fill:#7A3E25;" d="M256,0C114.616,0,0,114.615,0,256c0,117.77,79.525,216.966,187.805,246.816l315.012-315.012
	C472.966,79.525,373.77,0,256,0z"/>
<path style="fill:#592C1A;" d="M512,256c0-23.615-3.213-46.478-9.199-68.191L389.565,74.574L139.13,163.617l-16.696,273.809
	l65.375,65.375C209.522,508.787,232.385,512,256,512C397.384,512,512,397.384,512,256z"/>
<polygon style="fill:#FBC09B;" points="256.001,74.574 238.21,141.357 256.001,208.139 378.728,208.139 378.319,74.574 "/>
<rect x="133.855" y="74.574" style="fill:#FFE2C4;" width="122.145" height="133.565"/>
<polygon style="fill:#E0315B;" points="256.08,96.835 243.142,141.357 256.08,185.878 345.336,185.878 345.039,96.835 "/>
<rect x="167.246" y="96.835" style="fill:#EA5A7D;" width="88.832" height="89.043"/>
<g>
	<polygon style="fill:#F79E73;" points="367.304,326.122 367.304,437.426 389.565,437.426 389.565,337.252 	"/>
	<rect x="367.304" y="74.574" style="fill:#F79E73;" width="22.261" height="229.287"/>
</g>
<g>
	<polygon style="fill:#FBC09B;" points="122.435,337.252 122.435,437.426 144.696,437.426 144.696,326.122 	"/>
	<rect x="122.435" y="74.574" style="fill:#FBC09B;" width="22.261" height="229.287"/>
</g>
<path style="fill:#E0315B;" d="M389.565,303.861v11.13L192,326.122l44.522-77.913h97.391
	C364.518,248.209,389.565,273.255,389.565,303.861z"/>
<path style="fill:#EA5A7D;" d="M122.435,303.861v11.13L256,326.122v-77.913h-77.913
	C147.482,248.209,122.435,273.255,122.435,303.861z"/>
<polygon style="fill:#FBC09B;" points="256,314.991 238.171,326.122 256,337.252 389.565,337.252 389.565,314.991 "/>
<rect x="122.435" y="314.991" style="fill:#FFE2C4;" width="133.565" height="22.261"/>
<g>
</g>
<g>
</g>
<g>
</g>
<g>
</g>
<g>
</g>
<g>
</g>
<g>
</g>
<g>
</g>
<g>
</g>
<g>
</g>
<g>
</g>
<g>
</g>
<g>
</g>
<g>
</g>
<g>
</g>
</svg>
