<?xml version="1.0" encoding="iso-8859-1"?>
<!-- Generator: Adobe Illustrator 19.0.0, SVG Export Plug-In . SVG Version: 6.00 Build 0)  -->
<svg version="1.1" id="Layer_1" xmlns="http://www.w3.org/2000/svg" xmlns:xlink="http://www.w3.org/1999/xlink" x="0px" y="0px"
	 viewBox="0 0 512 512" style="enable-background:new 0 0 512 512;" xml:space="preserve">
<path style="fill:#008CCB;" d="M256,0C114.615,0,0,114.616,0,256c0,138.594,110.133,251.463,247.657,255.866l254.271-327.206
	C471.039,77.989,372.627,0,256,0z"/>
<path style="fill:#006998;" d="M512,256c0-24.759-3.527-48.691-10.084-71.336l-96.579-96.579l-295.413,19l30.131,30.131
	l-33.392,17.652l161.053,161.053L159.722,423.915l87.936,87.936c2.771,0.089,5.55,0.149,8.342,0.149
	C397.384,512,512,397.385,512,256z"/>
<polygon style="fill:#3AAADC;" points="233.739,379.393 256,423.915 352.278,423.915 352.278,401.654 "/>
<polygon style="fill:#74C8EE;" points="256,379.393 159.722,401.654 159.722,423.915 256,423.915 "/>
<path style="fill:#3AAADC;" d="M256,188.259h213.148c0,19.501-2.204,37.409-6.378,55.641l-229.031,22.261L256,188.259z"/>
<path style="fill:#D1F1FF;" d="M256,243.9h206.77c-15.004,65.592-55.496,122.546-110.492,157.752H256l-33.391-78.876L256,243.9z"/>
<g>
	<polygon style="fill:#FBC09B;" points="405.337,88.085 405.337,110.346 256,110.346 244.87,99.216 256,88.085 	"/>
	<path style="fill:#FBC09B;" d="M394.207,132.607c6.144,0,11.13,4.986,11.13,11.13c0,6.155-4.986,11.13-11.13,11.13H256
		l-11.13-11.13l11.13-11.13C256,132.607,394.207,132.607,394.207,132.607z"/>
</g>
<path style="fill:#74C8EE;" d="M256,188.259v77.902L48.996,243.9c-4.029-17.909-6.144-36.53-6.144-55.641L256,188.259L256,188.259z"
	/>
<g>
	<rect x="106.663" y="132.608" style="fill:#FFE2C4;" width="149.337" height="22.261"/>
	<path style="fill:#FFE2C4;" d="M256,88.085v22.261H117.793c-6.144,0-11.13-4.986-11.13-11.13s4.986-11.13,11.13-11.13H256z"/>
</g>
<path style="fill:#FFFFFF;" d="M48.996,243.9H256v157.752h-96.278C104.426,366.257,63.8,309.959,48.996,243.9z"/>
<g>
</g>
<g>
</g>
<g>
</g>
<g>
</g>
<g>
</g>
<g>
</g>
<g>
</g>
<g>
</g>
<g>
</g>
<g>
</g>
<g>
</g>
<g>
</g>
<g>
</g>
<g>
</g>
<g>
</g>
</svg>
