<?xml version="1.0" encoding="iso-8859-1"?>
<!-- Generator: Adobe Illustrator 19.0.0, SVG Export Plug-In . SVG Version: 6.00 Build 0)  -->
<svg version="1.1" id="Layer_1" xmlns="http://www.w3.org/2000/svg" xmlns:xlink="http://www.w3.org/1999/xlink" x="0px" y="0px"
	 viewBox="0 0 512 512" style="enable-background:new 0 0 512 512;" xml:space="preserve">
<path style="fill:#FFE2C4;" d="M511.77,245.528C506.273,109.001,393.876,0,256,0C114.615,0,0,114.616,0,256
	c0,141.196,114.312,255.688,255.437,255.993C255.437,511.993,511.671,243.15,511.77,245.528z"/>
<path style="fill:#FBC09B;" d="M511.387,238.414L313.043,40.07l-7.677,36.846L268.522,40.07v106.852l38.957,38.957H162.783
	c-46.103,0-83.478,37.374-83.478,83.478s37.375,83.478,83.478,83.478l19.617,86.122l73.037,73.037c0.188,0,0.375,0.007,0.563,0.007
	c141.384,0,256-114.615,256-256C512,250.088,511.782,244.226,511.387,238.414z"/>
<path style="fill:#E64A55;" d="M162.783,336.139c-36.883,0-66.783-29.9-66.783-66.783s29.9-66.783,66.783-66.783h100.174v-33.391
	c0,0-44.849,0-100.174,0S62.609,214.032,62.609,269.357c0,55.324,44.849,100.174,100.174,100.174s100.174,0,100.174,0v-33.391
	H162.783z"/>
<path style="fill:#C34346;" d="M279.652,169.183l-33.391,143.583l33.391,145.809h50.087c36.73,0,66.783-30.052,66.783-66.783
	V169.183H279.652z"/>
<path style="fill:#E64A55;" d="M162.783,169.183v222.609c0,36.73,30.052,66.783,66.783,66.783h50.087V169.183H162.783z"/>
<g>
	<rect x="352" y="387.339" style="fill:#A03B38;" width="22.261" height="22.261"/>
	<rect x="318.609" y="353.948" style="fill:#A03B38;" width="22.261" height="22.261"/>
</g>
<g>
	<rect x="246.261" y="40.07" style="fill:#FFFFFF;" width="22.261" height="106.852"/>
	<rect x="290.783" y="40.07" style="fill:#FFFFFF;" width="22.261" height="106.852"/>
</g>
<g>
</g>
<g>
</g>
<g>
</g>
<g>
</g>
<g>
</g>
<g>
</g>
<g>
</g>
<g>
</g>
<g>
</g>
<g>
</g>
<g>
</g>
<g>
</g>
<g>
</g>
<g>
</g>
<g>
</g>
</svg>
