<?xml version="1.0" encoding="iso-8859-1"?>
<!-- Generator: Adobe Illustrator 19.0.0, SVG Export Plug-In . SVG Version: 6.00 Build 0)  -->
<svg version="1.1" id="Layer_1" xmlns="http://www.w3.org/2000/svg" xmlns:xlink="http://www.w3.org/1999/xlink" x="0px" y="0px"
	 viewBox="0 0 512 512" style="enable-background:new 0 0 512 512;" xml:space="preserve">
<path style="fill:#FFADC1;" d="M256,0C114.616,0,0,114.616,0,256c0,121.529,84.684,223.28,198.261,249.462l310.662-289.279
	C489.796,93.708,383.841,0,256,0z"/>
<path style="fill:#F5849F;" d="M512,256c0-13.545-1.061-26.841-3.088-39.818L403.478,110.748l-21.426,21.426l-98.226-98.226
	L256,66.226L92.779,157.919L59.388,293.447l119.096,119.096l-36.57,36.57l56.348,56.348C216.818,509.738,236.144,512,256,512
	C397.385,512,512,397.385,512,256z"/>
<polygon style="fill:#313A3E;" points="228.174,33.948 233.739,66.226 256,99.617 278.261,66.226 283.826,33.948 "/>
<polygon style="fill:#FFFFFF;" points="164.174,110.748 119.652,110.748 112.493,133.009 126.012,155.27 205.345,155.27 "/>
<polygon style="fill:#C4D3D9;" points="278.261,66.226 256,66.226 233.739,157.208 370.087,110.748 "/>
<polygon style="fill:#FFFFFF;" points="233.739,66.226 141.913,110.748 256,157.208 256,66.226 "/>
<path style="fill:#414D53;" d="M370.087,110.748l-24.646,94.609c24.487,0,47.356-19.833,50.818-44.074l7.219-50.534H370.087z"/>
<rect x="244.87" y="257.67" style="fill:#C4D3D9;" width="91.826" height="44.522"/>
<rect x="175.304" y="257.67" style="fill:#FFFFFF;" width="80.696" height="44.522"/>
<g>
	<path style="fill:#313A3E;" d="M126.012,155.27h-6.36c-12.065,0-22.261,10.195-22.261,22.261v100.174
		c0,12.299-9.962,22.261-22.261,22.261s-22.261-9.962-22.261-22.261V177.53c0-36.73,30.052-66.783,66.783-66.783L126.012,155.27z"/>
	<polygon style="fill:#313A3E;" points="370.087,110.748 347.826,268.8 301.913,268.8 285.52,189.774 313.043,110.748 	"/>
</g>
<polygon style="fill:#414D53;" points="313.043,110.748 301.913,268.8 256,268.8 233.739,189.774 256,110.748 "/>
<polygon style="fill:#57676E;" points="256,110.748 256,268.8 210.087,268.8 182.586,189.774 198.957,110.748 "/>
<polygon style="fill:#748993;" points="198.957,110.748 210.087,268.8 164.174,268.8 141.913,110.748 "/>
<polygon style="fill:#313A3E;" points="370.087,449.113 347.826,291.061 301.913,291.061 285.52,370.087 313.043,449.113 "/>
<polygon style="fill:#414D53;" points="313.043,449.113 301.913,291.061 256,291.061 233.739,370.087 256,449.113 "/>
<polygon style="fill:#57676E;" points="256,449.113 256,291.061 210.087,291.061 182.586,370.087 198.957,449.113 "/>
<polygon style="fill:#748993;" points="198.957,449.113 210.087,291.061 164.174,291.061 141.913,449.113 "/>
<g>
</g>
<g>
</g>
<g>
</g>
<g>
</g>
<g>
</g>
<g>
</g>
<g>
</g>
<g>
</g>
<g>
</g>
<g>
</g>
<g>
</g>
<g>
</g>
<g>
</g>
<g>
</g>
<g>
</g>
</svg>
