<?xml version="1.0" encoding="iso-8859-1"?>
<!-- Generator: Adobe Illustrator 19.0.0, SVG Export Plug-In . SVG Version: 6.00 Build 0)  -->
<svg version="1.1" id="Layer_1" xmlns="http://www.w3.org/2000/svg" xmlns:xlink="http://www.w3.org/1999/xlink" x="0px" y="0px"
	 viewBox="0 0 512 512" style="enable-background:new 0 0 512 512;" xml:space="preserve">
<path style="fill:#FAC656;" d="M505.461,198.262C479.279,84.685,377.53,0,256,0C114.616,0,0,114.616,0,256
	c0,119.42,81.771,219.737,192.374,248.026L505.461,198.262z"/>
<path style="fill:#F7A150;" d="M512,256c0-19.854-2.262-39.181-6.539-57.738L378.435,71.235L149.306,86.975l-26.871,347.112
	l69.939,69.939C212.717,509.23,234.035,512,256,512C397.384,512,512,397.384,512,256z"/>
<polygon style="fill:#FFFFFF;" points="133.565,71.235 133.565,293.843 155.826,293.843 155.826,93.496 256,93.496 256,71.235 "/>
<polygon style="fill:#FFE2C4;" points="256,71.235 256,93.496 356.174,93.496 356.174,293.843 378.435,293.843 378.435,71.235 "/>
<rect x="244.903" y="144.696" style="fill:#414D53;" width="22.261" height="133.565"/>
<polygon style="fill:#A82544;" points="322.812,166.957 256,166.957 233.739,222.609 322.812,222.609 "/>
<rect x="189.251" y="166.957" style="fill:#E0315B;" width="66.755" height="55.652"/>
<polygon style="fill:#394449;" points="322.812,60.104 256,60.104 233.739,82.365 256,104.626 322.812,104.626 "/>
<rect x="189.251" y="60.104" style="fill:#57676E;" width="66.755" height="44.522"/>
<path style="fill:#E0315B;" d="M77.913,267.13v55.652c0,24.487,20.035,44.522,44.522,44.522h33.391V267.13H77.913z"/>
<rect x="55.652" y="267.13" style="fill:#E64A55;" width="133.565" height="22.261"/>
<path style="fill:#E0315B;" d="M389.565,267.13c0-36.73-30.052-66.783-66.783-66.783H256l-11.13,222.609l144.696-11.13V267.13z"/>
<path style="fill:#E64A55;" d="M189.217,200.348c-36.73,0-66.783,30.052-66.783,66.783v144.696L256,422.957V200.348H189.217z"/>
<polygon style="fill:#A82544;" points="389.565,411.826 256,411.826 244.87,422.957 256,434.087 389.565,434.087 "/>
<rect x="122.435" y="411.826" style="fill:#E0315B;" width="133.565" height="22.261"/>
<g>
</g>
<g>
</g>
<g>
</g>
<g>
</g>
<g>
</g>
<g>
</g>
<g>
</g>
<g>
</g>
<g>
</g>
<g>
</g>
<g>
</g>
<g>
</g>
<g>
</g>
<g>
</g>
<g>
</g>
</svg>
