<?xml version="1.0" encoding="iso-8859-1"?>
<!-- Generator: Adobe Illustrator 19.0.0, SVG Export Plug-In . SVG Version: 6.00 Build 0)  -->
<svg version="1.1" id="Layer_1" xmlns="http://www.w3.org/2000/svg" xmlns:xlink="http://www.w3.org/1999/xlink" x="0px" y="0px"
	 viewBox="0 0 512 512" style="enable-background:new 0 0 512 512;" xml:space="preserve">
<path style="fill:#FBC09B;" d="M256,0C114.615,0,0,114.616,0,256c0,116.645,78.013,215.069,184.71,245.943L501.943,184.71
	C471.069,78.013,372.645,0,256,0z"/>
<path style="fill:#F79E73;" d="M41.183,217.043l69.433,69.433l-11.782,43.211l41.262,41.262l-51.052,35.312l95.669,95.669
	C207.343,508.478,231.259,512,256,512c141.385,0,256-114.616,256-256c0-24.741-3.522-48.657-10.07-71.287l-78.974-78.974
	l-228.174,29.043v60.279L41.183,217.043z"/>
<g>
	<rect x="183.652" y="206.191" style="fill:#313A3E;" width="22.261" height="44.522"/>
	<rect x="155.826" y="161.67" style="fill:#313A3E;" width="77.913" height="44.522"/>
</g>
<path style="fill:#FFE2C4;" d="M194.783,272.974l-11.13,100.174l44.408-11.13c16.57-8.306,27.94-25.436,27.94-45.229v-43.815
	H194.783z"/>
<path style="fill:#FFFFFF;" d="M133.565,272.974v43.815c0,19.792,11.37,36.922,27.941,45.229l33.277,11.13V272.974H133.565z"/>
<polygon style="fill:#C34346;" points="328.348,372.87 328.348,161.391 422.957,172.522 422.957,361.739 "/>
<rect x="278.261" y="161.391" style="fill:#E64A55;" width="72.348" height="211.478"/>
<polygon style="fill:#ED6350;" points="278.261,105.739 244.439,139.13 278.261,172.522 422.957,172.522 422.957,105.739 "/>
<polygon style="fill:#313A3E;" points="256,406.261 231.688,384 256,361.739 422.957,361.739 422.957,406.261 "/>
<rect x="89.043" y="361.739" style="fill:#414D53;" width="166.957" height="44.522"/>
<polygon style="fill:#57676E;" points="155.826,217.043 111.304,217.043 98.504,205.913 111.304,194.783 133.565,195.061 "/>
<rect x="41.183" y="194.783" style="fill:#313A3E;" width="70.122" height="22.261"/>
<polygon style="fill:#57676E;" points="194.783,228.452 176.358,211.757 194.783,195.061 256,195.061 256,228.452 "/>
<rect x="133.565" y="195.061" style="fill:#748993;" width="61.217" height="33.391"/>
<path style="fill:#FFFFFF;" d="M171.225,339.478h-48.79c-18.412,0-33.391-14.979-33.391-33.391s14.979-33.391,33.391-33.391h48.79
	v22.261h-48.79c-6.137,0-11.13,4.993-11.13,11.13s4.993,11.13,11.13,11.13h48.79L171.225,339.478L171.225,339.478z"/>
<rect x="133.565" y="105.739" style="fill:#F37C4A;" width="144.696" height="66.783"/>
<g>
</g>
<g>
</g>
<g>
</g>
<g>
</g>
<g>
</g>
<g>
</g>
<g>
</g>
<g>
</g>
<g>
</g>
<g>
</g>
<g>
</g>
<g>
</g>
<g>
</g>
<g>
</g>
<g>
</g>
</svg>
