<?xml version="1.0" encoding="iso-8859-1"?>
<!-- Generator: Adobe Illustrator 19.0.0, SVG Export Plug-In . SVG Version: 6.00 Build 0)  -->
<svg version="1.1" id="Layer_1" xmlns="http://www.w3.org/2000/svg" xmlns:xlink="http://www.w3.org/1999/xlink" x="0px" y="0px"
	 viewBox="0 0 512 512" style="enable-background:new 0 0 512 512;" xml:space="preserve">
<path style="fill:#FBC09B;" d="M256,0C114.615,0,0,114.616,0,256c0,116.645,78.013,215.069,184.71,245.943l317.232-317.234
	C471.068,78.012,372.645,0,256,0z"/>
<path style="fill:#F79E73;" d="M356.174,366.886l-267.13,39.375l95.669,95.669C207.343,508.478,231.259,512,256,512
	c141.385,0,256-114.616,256-256c0-24.741-3.522-48.657-10.07-71.287l-78.974-78.974L356.174,366.886z"/>
<g>
	<rect x="178.087" y="161.391" style="fill:#313A3E;" width="22.261" height="55.652"/>
	<polygon style="fill:#313A3E;" points="188.661,261.565 166.4,217.043 254.33,217.043 254.33,261.565 	"/>
</g>
<rect x="122.991" y="217.043" style="fill:#414D53;" width="65.67" height="44.522"/>
<path style="fill:#57676E;" d="M133.565,339.478H91.248c-30.687,0-55.652-24.966-55.652-55.652v-22.261
	c0-30.687,24.966-55.652,55.652-55.652h175.326v22.261H91.248c-18.412,0-33.391,14.979-33.391,33.391v22.261
	c0,18.412,14.979,33.391,33.391,33.391h42.317V339.478z"/>
<polygon style="fill:#FFF9CF;" points="266.574,250.435 266.574,272.696 166.876,294.957 189.217,250.435 "/>
<polygon style="fill:#FFFFFF;" points="189.217,250.435 189.217,294.957 111.861,272.696 111.861,250.435 "/>
<polygon style="fill:#A65A3A;" points="266.574,272.696 266.574,372.87 155.706,372.87 189.217,272.696 "/>
<rect x="111.861" y="272.696" style="fill:#D3754F;" width="77.357" height="100.174"/>
<polygon style="fill:#313A3E;" points="189.747,406.261 175.083,384 189.747,361.739 311.652,361.739 290.451,406.261 "/>
<rect x="89.043" y="361.739" style="fill:#414D53;" width="100.708" height="44.522"/>
<polygon style="fill:#313A3E;" points="168.547,150.261 189.747,105.739 290.451,105.739 311.652,128 "/>
<polygon style="fill:#414D53;" points="189.747,150.261 89.043,128 89.043,105.739 189.747,105.739 "/>
<polygon style="fill:#F37C4A;" points="300.522,128 89.043,128 122.435,183.652 333.913,183.652 "/>
<polygon style="fill:#C34346;" points="356.174,406.261 319.747,256 356.174,105.739 422.957,105.739 422.957,406.261 "/>
<rect x="289.391" y="105.739" style="fill:#E64A55;" width="66.783" height="300.522"/>
<polygon style="fill:#FFF9CF;" points="333.913,228.174 333.913,272.696 311.652,272.696 311.652,228.174 322.783,217.043 "/>
<rect x="311.652" y="128" style="fill:#FFFFFF;" width="22.261" height="100.174"/>
<g>
</g>
<g>
</g>
<g>
</g>
<g>
</g>
<g>
</g>
<g>
</g>
<g>
</g>
<g>
</g>
<g>
</g>
<g>
</g>
<g>
</g>
<g>
</g>
<g>
</g>
<g>
</g>
<g>
</g>
</svg>
