<?xml version="1.0" encoding="iso-8859-1"?>
<!-- Generator: Adobe Illustrator 19.0.0, SVG Export Plug-In . SVG Version: 6.00 Build 0)  -->
<svg version="1.1" id="Layer_1" xmlns="http://www.w3.org/2000/svg" xmlns:xlink="http://www.w3.org/1999/xlink" x="0px" y="0px"
	 viewBox="0 0 512 512" style="enable-background:new 0 0 512 512;" xml:space="preserve">
<path style="fill:#E0315B;" d="M512,256C512,114.615,397.384,0,256,0C114.615,0,0,114.616,0,256
	c0,120.74,83.587,221.958,196.051,248.942l315.819-240.738C511.957,261.479,512,258.745,512,256z"/>
<path style="fill:#A82544;" d="M325.923,332.601L181.704,188.383l-20.313,20.313l-72.348-72.348L66.783,375.652l129.272,129.272
	C215.286,509.539,235.354,512,256,512c138.638,0,251.522-110.21,255.855-247.797l-66.638-66.638L325.923,332.601z"/>
<polygon style="fill:#F79E73;" points="434.087,286.609 434.087,342.261 256,342.261 233.739,286.609 "/>
<rect x="77.913" y="286.609" style="fill:#FBC09B;" width="178.087" height="55.652"/>
<polygon style="fill:#EA5A7D;" points="256,219.826 222.609,269.913 256,320 434.087,320 434.087,219.826 "/>
<path style="fill:#FFFFFF;" d="M150.261,175.304H83.478v77.913h111.304v-33.391C194.783,195.339,174.748,175.304,150.261,175.304z"
	/>
<polygon style="fill:#FFADC1;" points="133.565,219.826 166.957,269.913 133.565,320 83.478,320 83.478,219.826 "/>
<polygon style="fill:#FFF296;" points="256,320 194.783,320 178.087,269.913 194.783,219.826 256,219.826 "/>
<rect x="133.565" y="219.826" style="fill:#FFF9CF;" width="61.217" height="100.174"/>
<rect x="66.783" y="136.348" style="fill:#FFE2C4;" width="22.261" height="239.304"/>
<rect x="422.957" y="197.565" style="fill:#FBC09B;" width="22.261" height="178.087"/>
<g>
</g>
<g>
</g>
<g>
</g>
<g>
</g>
<g>
</g>
<g>
</g>
<g>
</g>
<g>
</g>
<g>
</g>
<g>
</g>
<g>
</g>
<g>
</g>
<g>
</g>
<g>
</g>
<g>
</g>
</svg>
