<?xml version="1.0" encoding="iso-8859-1"?>
<!-- Generator: Adobe Illustrator 19.0.0, SVG Export Plug-In . SVG Version: 6.00 Build 0)  -->
<svg version="1.1" id="Layer_1" xmlns="http://www.w3.org/2000/svg" xmlns:xlink="http://www.w3.org/1999/xlink" x="0px" y="0px"
	 viewBox="0 0 512 512" style="enable-background:new 0 0 512 512;" xml:space="preserve">
<path style="fill:#FFF9CF;" d="M256,0C114.615,0,0,114.615,0,256c0,118.322,80.273,217.896,189.33,247.233l314.979-309.76
	C476.406,82.312,375.816,0,256,0z"/>
<path style="fill:#FEEB5C;" d="M512,256c0-21.57-2.681-42.512-7.704-62.524L390.306,79.487L77.913,391.791l111.422,111.422
	C210.592,508.931,232.937,512,256,512C397.384,512,512,397.384,512,256z"/>
<path style="fill:#E0315B;" d="M323.072,51.2c55.096,0,96.167,44.9,91.27,99.773l-13.357,149.549H211.233L256,51.2H323.072z"/>
<g>
	<path style="fill:#EA5A7D;" d="M256,51.2v249.322H111.015L97.658,150.973C92.761,96.1,133.832,51.2,188.928,51.2H256z"/>
	<path style="fill:#EA5A7D;" d="M386.836,242.543l33.391,102.5H233.793L256,204.088
		C304.195,204.088,349.148,218.212,386.836,242.543z"/>
</g>
<path style="fill:#F5849F;" d="M125.272,242.543l-33.391,102.5H256V204.088C207.805,204.088,162.96,218.212,125.272,242.543z"/>
<polygon style="fill:#E0315B;" points="256,325.009 238.171,358.4 256,391.791 367.89,391.791 389.741,325.009 "/>
<polygon style="fill:#EA5A7D;" points="256,325.009 122.611,325.009 144.696,391.791 256,391.791 "/>
<polygon style="fill:#FBC09B;" points="256,313.878 238.171,325.009 256,336.139 390.151,336.139 389.741,313.878 "/>
<polygon style="fill:#FFE2C4;" points="256,313.878 122.611,313.878 122.435,336.139 256,336.139 "/>
<polygon style="fill:#D3754F;" points="111.304,369.53 111.304,425.183 144.696,425.183 144.696,391.791 "/>
<polygon style="fill:#A65A3A;" points="401.281,369.53 401.281,425.183 367.89,425.183 367.89,391.791 "/>
<path style="fill:#F5849F;" d="M479.194,244.87c0-30.736-24.917-55.652-55.652-55.652s-55.652,24.917-55.652,55.652v146.922h66.783
	v-92.385C460.074,294.25,479.194,271.793,479.194,244.87z"/>
<path style="fill:#E0315B;" d="M423.542,222.609l-8.904,22.261l8.904,22.261c12.295,0,22.261-9.966,22.261-22.261
	C445.803,232.575,435.837,222.609,423.542,222.609z"/>
<path style="fill:#EA5A7D;" d="M401.281,244.87c0,12.295,9.966,22.261,22.261,22.261v-44.522
	C411.247,222.609,401.281,232.575,401.281,244.87z"/>
<g>
	<rect x="151.374" y="94.765" style="fill:#E0315B;" width="22.261" height="22.261"/>
	<rect x="184.765" y="128.156" style="fill:#E0315B;" width="22.261" height="22.261"/>
</g>
<path style="fill:#FFADC1;" d="M89.043,189.217c-30.736,0-55.652,24.917-55.652,55.652c0,26.923,19.12,49.38,44.522,54.537v92.385
	h66.783V244.87C144.696,214.134,119.779,189.217,89.043,189.217z"/>
<path style="fill:#EA5A7D;" d="M89.043,222.609l-8.904,22.261l8.904,22.261c12.295,0,22.261-9.966,22.261-22.261
	C111.304,232.575,101.338,222.609,89.043,222.609z"/>
<path style="fill:#F5849F;" d="M66.783,244.87c0,12.295,9.966,22.261,22.261,22.261v-44.522
	C76.749,222.609,66.783,232.575,66.783,244.87z"/>
<g>
</g>
<g>
</g>
<g>
</g>
<g>
</g>
<g>
</g>
<g>
</g>
<g>
</g>
<g>
</g>
<g>
</g>
<g>
</g>
<g>
</g>
<g>
</g>
<g>
</g>
<g>
</g>
<g>
</g>
</svg>
