<?xml version="1.0" encoding="iso-8859-1"?>
<!-- Generator: Adobe Illustrator 19.0.0, SVG Export Plug-In . SVG Version: 6.00 Build 0)  -->
<svg version="1.1" id="Layer_1" xmlns="http://www.w3.org/2000/svg" xmlns:xlink="http://www.w3.org/1999/xlink" x="0px" y="0px"
	 viewBox="0 0 512 512" style="enable-background:new 0 0 512 512;" xml:space="preserve">
<path style="fill:#D1F1FF;" d="M503.231,189.329C473.895,80.272,374.322,0,256,0C114.615,0,0,114.616,0,256
	c0,118.322,80.273,217.896,189.33,247.233L503.231,189.329z"/>
<path style="fill:#AEE6FF;" d="M122.435,436.313l66.901,66.901C210.592,508.931,232.937,512,256,512c141.384,0,256-114.615,256-256
	c0-23.063-3.068-45.408-8.786-66.665L389.565,75.687L122.435,436.313z"/>
<polygon style="fill:#748993;" points="389.565,75.687 389.565,369.53 222.609,391.791 256,75.687 "/>
<rect x="300.522" y="97.948" style="fill:#57676E;" width="66.783" height="22.261"/>
<polygon style="fill:#A2B1B7;" points="256,75.687 256,155.826 244.87,233.739 256,311.652 256,391.791 122.435,369.53 
	122.435,75.687 "/>
<polygon style="fill:#313A3E;" points="256,369.53 238.171,402.922 256,436.313 389.565,436.313 389.565,369.53 "/>
<g>
	<rect x="122.435" y="369.53" style="fill:#57676E;" width="133.565" height="66.783"/>
	<polygon style="fill:#57676E;" points="256,391.791 241.142,402.922 256,414.052 367.304,414.052 367.304,391.791 	"/>
</g>
<rect x="144.696" y="391.791" style="fill:#748993;" width="111.304" height="22.261"/>
<polygon style="fill:#C4D3D9;" points="278.261,311.652 256,311.652 244.87,233.739 256,155.826 278.261,155.826 "/>
<polygon style="fill:#748993;" points="144.696,278.261 211.478,278.261 211.478,211.478 178.087,200.348 144.696,211.478 "/>
<rect x="166.957" y="200.348" style="fill:#57676E;" width="22.261" height="33.391"/>
<rect x="144.696" y="189.217" style="fill:#313A3E;" width="66.783" height="22.261"/>
<rect x="233.739" y="155.826" style="fill:#FFFFFF;" width="22.261" height="155.826"/>
<g>
</g>
<g>
</g>
<g>
</g>
<g>
</g>
<g>
</g>
<g>
</g>
<g>
</g>
<g>
</g>
<g>
</g>
<g>
</g>
<g>
</g>
<g>
</g>
<g>
</g>
<g>
</g>
<g>
</g>
</svg>
