<?xml version="1.0" encoding="iso-8859-1"?>
<!-- Generator: Adobe Illustrator 19.0.0, SVG Export Plug-In . SVG Version: 6.00 Build 0)  -->
<svg version="1.1" id="Layer_1" xmlns="http://www.w3.org/2000/svg" xmlns:xlink="http://www.w3.org/1999/xlink" x="0px" y="0px"
	 viewBox="0 0 512 512" style="enable-background:new 0 0 512 512;" xml:space="preserve">
<path style="fill:#FFF9CF;" d="M256,0C114.615,0,0,114.616,0,256c0,119.201,81.47,219.374,191.765,247.875l317.677-284.202
	C491.802,95.492,385.052,0,256,0z"/>
<path style="fill:#FEEB5C;" d="M68.584,380.689l123.183,123.183C212.292,509.175,233.816,512,256,512c141.384,0,256-114.616,256-256
	c0-12.334-0.892-24.458-2.577-36.325l-43.841-43.841L121.362,281.866L68.584,380.689z"/>
<path style="fill:#E0315B;" d="M376.538,109.05H256l-33.816,135.847h221.137l-22.261-69.064v-22.261
	C421.06,129.085,401.025,109.05,376.538,109.05z"/>
<g>
	<path style="fill:#EA5A7D;" d="M135.366,109.05c-24.487,0-44.522,20.035-44.522,44.522v22.317l-22.261,69.008H256V109.05H135.366z"
		/>
	<polygon style="fill:#EA5A7D;" points="428.706,231.485 428.706,311.68 222.184,311.68 256,231.485 	"/>
</g>
<rect x="82.554" y="231.48" style="fill:#F5849F;" width="173.446" height="80.195"/>
<polygon style="fill:#D3754F;" points="68.584,347.342 68.584,380.689 101.975,380.689 101.975,325.036 "/>
<polygon style="fill:#A65A3A;" points="443.416,347.342 443.416,380.689 410.025,380.689 410.025,325.036 "/>
<polygon style="fill:#F5849F;" points="421.06,175.833 421.06,302.758 256,302.82 237.775,325.081 256,347.342 465.677,347.342 
	465.582,175.833 "/>
<polygon style="fill:#FFADC1;" points="90.844,302.758 90.844,175.889 46.323,175.889 46.323,347.342 256,347.342 256,302.758 "/>
<g>
</g>
<g>
</g>
<g>
</g>
<g>
</g>
<g>
</g>
<g>
</g>
<g>
</g>
<g>
</g>
<g>
</g>
<g>
</g>
<g>
</g>
<g>
</g>
<g>
</g>
<g>
</g>
<g>
</g>
</svg>
