<?xml version="1.0" encoding="iso-8859-1"?>
<!-- Generator: Adobe Illustrator 19.0.0, SVG Export Plug-In . SVG Version: 6.00 Build 0)  -->
<svg version="1.1" id="Layer_1" xmlns="http://www.w3.org/2000/svg" xmlns:xlink="http://www.w3.org/1999/xlink" x="0px" y="0px"
	 viewBox="0 0 512 512" style="enable-background:new 0 0 512 512;" xml:space="preserve">
<path style="fill:#FFADC1;" d="M256,0C114.616,0,0,114.616,0,256c0,129.86,96.691,237.137,222.008,253.763l278.253-330.626
	C467.62,75.307,370.604,0,256,0z"/>
<path style="fill:#F5849F;" d="M60.095,347.835L222.01,509.749C233.131,511.225,244.474,512,256,512c141.384,0,256-114.615,256-256
	c0-26.781-4.119-52.598-11.747-76.86l-83.975-83.975L59.691,178.618L60.095,347.835z"/>
<g>
	<path style="fill:#FFF9CF;" d="M197.009,372.313h-77.913c-46.03,0-83.478-37.448-83.478-83.478v-65.67
		c0-46.03,37.448-83.478,83.478-83.478h77.913v33.391h-77.913c-27.618,0-50.087,22.469-50.087,50.087v65.67
		c0,27.618,22.469,50.087,50.087,50.087h77.913V372.313z"/>
	<path style="fill:#FFF9CF;" d="M416.278,95.165v277.148c0,24.487-20.035,44.522-44.522,44.522H279.93L202.017,256L279.93,95.165
		h91.826l11.13,11.13l11.13-11.13H416.278z"/>
</g>
<path style="fill:#FFFFFF;" d="M279.93,95.165v321.67h-91.826c-24.487,0-44.522-20.035-44.522-44.522V95.165H279.93z"/>
<g>
	<rect x="176.974" y="128.557" style="fill:#FFF9CF;" width="22.261" height="22.261"/>
	<rect x="210.365" y="161.948" style="fill:#FFF9CF;" width="22.261" height="22.261"/>
</g>
<g>
	<path style="fill:#FFFFFF;" d="M371.757,372.221c-0.023,0.032-0.06,0.069-0.091,0.092H188.104v22.261h183.652
		c12.275,0,22.261-9.986,22.261-22.261V150.817h-22.261V372.221z"/>
	<rect x="371.757" y="95.165" style="fill:#FFFFFF;" width="22.261" height="33.391"/>
	<rect x="327.235" y="327.791" style="fill:#FFFFFF;" width="22.261" height="22.261"/>
</g>
<g>
</g>
<g>
</g>
<g>
</g>
<g>
</g>
<g>
</g>
<g>
</g>
<g>
</g>
<g>
</g>
<g>
</g>
<g>
</g>
<g>
</g>
<g>
</g>
<g>
</g>
<g>
</g>
<g>
</g>
</svg>
