<?xml version="1.0" encoding="iso-8859-1"?>
<!-- Generator: Adobe Illustrator 19.0.0, SVG Export Plug-In . SVG Version: 6.00 Build 0)  -->
<svg version="1.1" id="Layer_1" xmlns="http://www.w3.org/2000/svg" xmlns:xlink="http://www.w3.org/1999/xlink" x="0px" y="0px"
	 viewBox="0 0 512 512" style="enable-background:new 0 0 512 512;" xml:space="preserve">
<path style="fill:#F79E73;" d="M509.843,222.678C493.51,97.037,386.091,0,256,0C114.616,0,0,114.616,0,256
	c0,122.539,86.104,224.951,201.106,250.08L509.843,222.678z"/>
<path style="fill:#F37C4A;" d="M144.695,449.67l56.411,56.411C218.792,509.945,237.155,512,256,512c141.385,0,256-114.616,256-256
	c0-11.294-0.739-22.414-2.157-33.322l-175.93-175.93L256.002,190.33v225.948L144.695,449.67z"/>
<rect x="244.87" y="226.315" style="fill:#AEE6FF;" width="22.261" height="198.122"/>
<polygon style="fill:#D1F1FF;" points="255.999,394.017 244.868,438.539 322.781,427.409 267.129,394.017 "/>
<polygon style="fill:#FFFFFF;" points="244.868,394.017 189.216,427.409 255.999,438.539 255.999,394.017 "/>
<polygon style="fill:#74C8EE;" points="255.999,427.409 233.739,438.539 255.999,449.67 367.303,449.67 367.303,427.409 "/>
<rect x="144.696" y="427.409" style="fill:#AEE6FF;" width="111.304" height="22.261"/>
<path style="fill:#D1F1FF;" d="M339.393,186.932l-5.48-140.184H256l-22.261,113.53L256,273.809
	c46.103,0,83.478-37.375,83.478-83.478C339.478,189.191,339.438,188.061,339.393,186.932z"/>
<path style="fill:#FFFFFF;" d="M178.087,46.748l-5.48,140.184c-0.045,1.129-0.086,2.258-0.086,3.398
	c0,46.103,37.375,83.478,83.478,83.478V46.748H178.087z"/>
<g>
</g>
<g>
</g>
<g>
</g>
<g>
</g>
<g>
</g>
<g>
</g>
<g>
</g>
<g>
</g>
<g>
</g>
<g>
</g>
<g>
</g>
<g>
</g>
<g>
</g>
<g>
</g>
<g>
</g>
</svg>
