<?xml version="1.0" encoding="iso-8859-1"?>
<!-- Generator: Adobe Illustrator 19.0.0, SVG Export Plug-In . SVG Version: 6.00 Build 0)  -->
<svg version="1.1" id="Layer_1" xmlns="http://www.w3.org/2000/svg" xmlns:xlink="http://www.w3.org/1999/xlink" x="0px" y="0px"
	 viewBox="0 0 512 512" style="enable-background:new 0 0 512 512;" xml:space="preserve">
<circle style="fill:#273B7A;" cx="256" cy="256" r="256"/>
<path style="fill:#121149;" d="M505.22,314.733L380.545,190.061l-1.936,1.221l-67.363-68.022l-52.66,2.298v2.527l-57.951,4.518
	l63.06,63.06h-96.763l-53.155,145.67l169.248,169.248C392.04,499.141,480.675,419.29,505.22,314.733z"/>
<path style="fill:#D0D1D3;" d="M335.012,170.667h-79.588v56.889h72.118c7.616,0,13.791,6.175,13.791,13.791V256h56.889v-22.123
	C398.222,198.966,369.923,170.667,335.012,170.667z"/>
<path style="fill:#FFFFFF;" d="M173.684,170.667c-33.085,0-59.906,26.821-59.906,59.906v110.761h56.889V240.916
	c0-7.378,5.982-13.36,13.36-13.36h71.399v-56.889H173.684z"/>
<path style="fill:#FFC61B;" d="M305.131,120.242h-98.263c-4.284,0-7.758,3.474-7.758,7.758c0,4.284,3.474,7.758,7.758,7.758h34.909
	v45.253h28.444v-45.253h34.909c4.284,0,7.758-3.474,7.758-7.758C312.889,123.716,309.415,120.242,305.131,120.242z"/>
<g>
	<path style="fill:#EAA22F;" d="M305.131,120.242h-49.705v60.768h14.796v-45.253h34.909c4.284,0,7.758-3.474,7.758-7.758
		C312.889,123.716,309.415,120.242,305.131,120.242z"/>
	<circle style="fill:#EAA22F;" cx="256" cy="199.111" r="45.684"/>
</g>
<path style="fill:#E09112;" d="M256,153.428c-0.193,0-0.383,0.012-0.574,0.014v91.338c0.191,0.002,0.381,0.014,0.574,0.014
	c25.229,0,45.684-20.452,45.684-45.684S281.229,153.428,256,153.428z"/>
<path style="fill:#38C6D9;" d="M341.333,332.367c0-16.377,29.653-47.923,29.653-47.923s29.653,31.546,29.653,47.923
	s-13.276,29.653-29.653,29.653S341.333,348.744,341.333,332.367z"/>
<path style="fill:#02B2B2;" d="M370.986,284.444c0,0,29.653,31.546,29.653,47.923s-13.276,29.653-29.653,29.653V284.444z"/>
<g>
</g>
<g>
</g>
<g>
</g>
<g>
</g>
<g>
</g>
<g>
</g>
<g>
</g>
<g>
</g>
<g>
</g>
<g>
</g>
<g>
</g>
<g>
</g>
<g>
</g>
<g>
</g>
<g>
</g>
</svg>
