<?xml version="1.0" encoding="iso-8859-1"?>
<!-- Generator: Adobe Illustrator 19.0.0, SVG Export Plug-In . SVG Version: 6.00 Build 0)  -->
<svg version="1.1" id="Layer_1" xmlns="http://www.w3.org/2000/svg" xmlns:xlink="http://www.w3.org/1999/xlink" x="0px" y="0px"
	 viewBox="0 0 512 512" style="enable-background:new 0 0 512 512;" xml:space="preserve">
<circle style="fill:#FFEDB5;" cx="256" cy="256" r="256"/>
<path style="fill:#FEE187;" d="M512,256c0-9.468-0.531-18.811-1.533-28.013L403.101,120.585l-2.644,53.451l-27.719,3.563
	l-57.656-57.656l-6.054,65.846l-13.662,1.757l-67.35-67.35l-2.198,74.266l-10.533,0.348l-74.614-74.614l-8.809,77.374l-46.528,1.539
	l44.247,44.247v79.722l-44.247,18.253l42.439,42.439l-25.2,14.45l110.111,110.111C226.766,510.733,241.235,512,256,512
	C397.384,512,512,397.384,512,256z"/>
<path style="fill:#FF7F4F;" d="M147.394,398.222h-44.822V136.189c0-12.378,10.033-22.411,22.411-22.411l0,0
	c12.378,0,22.411,10.033,22.411,22.411V398.222z"/>
<path style="fill:#D35933;" d="M147.394,136.189c0-12.378-10.033-22.411-22.411-22.411c-0.193,0-0.381,0.024-0.574,0.029v284.415
	h22.985V136.189z"/>
<path style="fill:#FF7F4F;" d="M234.739,398.222h-44.822V136.189c0-12.378,10.033-22.411,22.411-22.411l0,0
	c12.378,0,22.411,10.033,22.411,22.411V398.222z"/>
<path style="fill:#D35933;" d="M234.739,136.189c0-12.378-10.033-22.411-22.411-22.411v284.444h22.411V136.189z"/>
<path style="fill:#FF7F4F;" d="M322.082,398.222h-44.822V136.189c0-12.378,10.033-22.411,22.411-22.411l0,0
	c12.378,0,22.411,10.033,22.411,22.411V398.222z"/>
<path style="fill:#D35933;" d="M322.082,136.189c0-12.378-10.033-22.411-22.411-22.411l0,0c-0.193,0-0.381,0.024-0.574,0.029
	v284.415h22.985L322.082,136.189L322.082,136.189z"/>
<path style="fill:#FF7F4F;" d="M409.428,398.222h-44.822V136.189c0-12.378,10.033-22.411,22.411-22.411l0,0
	c12.378,0,22.411,10.033,22.411,22.411V398.222z"/>
<path style="fill:#D35933;" d="M409.428,136.189c0-12.378-10.033-22.411-22.411-22.411c-0.193,0-0.381,0.024-0.574,0.029v284.415
	h22.985V136.189z"/>
<g>
	<rect x="85.333" y="170.667" style="fill:#B54324;" width="341.333" height="28.444"/>
	<rect x="85.333" y="312.889" style="fill:#B54324;" width="341.333" height="28.444"/>
</g>
<g>
	<rect x="85.333" y="184.165" style="fill:#930000;" width="341.333" height="14.941"/>
	<rect x="85.333" y="326.68" style="fill:#930000;" width="341.333" height="14.653"/>
</g>
<g>
</g>
<g>
</g>
<g>
</g>
<g>
</g>
<g>
</g>
<g>
</g>
<g>
</g>
<g>
</g>
<g>
</g>
<g>
</g>
<g>
</g>
<g>
</g>
<g>
</g>
<g>
</g>
<g>
</g>
</svg>
