<?xml version="1.0" encoding="iso-8859-1"?>
<!-- Generator: Adobe Illustrator 19.0.0, SVG Export Plug-In . SVG Version: 6.00 Build 0)  -->
<svg version="1.1" id="Layer_1" xmlns="http://www.w3.org/2000/svg" xmlns:xlink="http://www.w3.org/1999/xlink" x="0px" y="0px"
	 viewBox="0 0 512 512" style="enable-background:new 0 0 512 512;" xml:space="preserve">
<circle style="fill:#FFC61B;" cx="256" cy="256" r="256"/>
<path style="fill:#EAA22F;" d="M512,256c0-1.05-0.028-2.095-0.04-3.143L386.155,127.052L259.456,278.993L125.845,413.393
	l96.389,96.389C233.284,511.238,244.553,512,256,512C397.384,512,512,397.384,512,256z"/>
<rect x="125.845" y="127.052" style="fill:#273B7A;" width="260.31" height="286.341"/>
<rect x="256.724" y="127.052" style="fill:#121149;" width="129.431" height="286.341"/>
<path style="fill:#38C6D9;" d="M206.686,231.176h-5.496c-12.859,0-23.283-10.424-23.283-23.283v-80.841h52.062v80.841
	C229.969,220.751,219.545,231.176,206.686,231.176z"/>
<path style="fill:#386895;" d="M258.748,231.176h-5.496c-12.859,0-23.283-10.424-23.283-23.283v-80.841h52.062v80.841
	C282.031,220.751,271.607,231.176,258.748,231.176z"/>
<path style="fill:#273B7A;" d="M256.719,127.052v104.124h2.029c12.859,0,23.283-10.424,23.283-23.283v-80.841H256.719z"/>
<path style="fill:#02B2B2;" d="M310.81,231.176h-5.496c-12.859,0-23.283-10.424-23.283-23.283v-80.841h52.062v80.841
	C334.093,220.751,323.668,231.176,310.81,231.176z"/>
<path style="fill:#273B7A;" d="M362.872,231.176h-5.496c-12.859,0-23.283-10.424-23.283-23.283v-80.841h52.062v80.841
	C386.155,220.751,375.73,231.176,362.872,231.176z"/>
<path style="fill:#386895;" d="M154.624,231.176h-5.496c-12.859,0-23.283-10.424-23.283-23.283v-80.841h52.062v80.841
	C177.907,220.751,167.483,231.176,154.624,231.176z"/>
<rect x="218.919" y="257.207" style="fill:#FFEDB5;" width="156.186" height="156.186"/>
<rect x="297.081" y="257.207" style="fill:#FEE187;" width="78.024" height="156.186"/>
<rect x="133.741" y="283.238" style="fill:#38C6D9;" width="70.204" height="130.155"/>
<circle style="fill:#FFFFFF;" cx="190.923" cy="348.315" r="7.099"/>
<g>
	<path style="fill:#6CAF5F;" d="M297.019,399.946c-0.953,0-1.724-0.771-1.724-1.724V292.414c0-0.953,0.771-1.724,1.724-1.724
		s1.724,0.771,1.724,1.724v105.808C298.743,399.176,297.972,399.946,297.019,399.946z"/>
	<path style="fill:#6CAF5F;" d="M297.088,290.704v109.228c0.919-0.038,1.655-0.781,1.655-1.71V292.414
		C298.743,291.485,298.006,290.742,297.088,290.704z"/>
	<path style="fill:#6CAF5F;" d="M261.172,399.946c-0.953,0-1.724-0.771-1.724-1.724v-56.889c0-0.953,0.771-1.724,1.724-1.724
		s1.724,0.771,1.724,1.724v56.889C262.896,399.176,262.125,399.946,261.172,399.946z"/>
	<path style="fill:#6CAF5F;" d="M337.024,399.946c-0.953,0-1.724-0.771-1.724-1.724v-56.889c0-0.953,0.771-1.724,1.724-1.724
		s1.724,0.771,1.724,1.724v56.889C338.747,399.176,337.977,399.946,337.024,399.946z"/>
</g>
<circle style="fill:#B54324;" cx="328.335" cy="354.073" r="11.216"/>
<circle style="fill:#930000;" cx="345.178" cy="337.23" r="11.216"/>
<circle style="fill:#B54324;" cx="328.335" cy="337.23" r="11.216"/>
<circle style="fill:#930000;" cx="345.178" cy="354.073" r="11.216"/>
<g>
	<circle style="fill:#D35933;" cx="324.715" cy="345.66" r="11.33"/>
	<circle style="fill:#D35933;" cx="348.798" cy="345.66" r="11.33"/>
</g>
<g>
	<circle style="fill:#FF7F4F;" cx="336.748" cy="333.61" r="11.33"/>
	<circle style="fill:#FF7F4F;" cx="336.748" cy="357.693" r="11.33"/>
</g>
<circle style="fill:#FFC61B;" cx="336.748" cy="345.66" r="8.775"/>
<circle style="fill:#B54324;" cx="288.599" cy="301.339" r="11.216"/>
<circle style="fill:#930000;" cx="305.442" cy="284.479" r="11.216"/>
<circle style="fill:#B54324;" cx="288.599" cy="284.479" r="11.216"/>
<circle style="fill:#930000;" cx="305.442" cy="301.339" r="11.216"/>
<circle style="fill:#D35933;" cx="284.979" cy="292.909" r="11.33"/>
<circle style="fill:#B54324;" cx="309.062" cy="292.909" r="11.33"/>
<circle style="fill:#FF7F4F;" cx="297.012" cy="280.876" r="11.33"/>
<path style="fill:#D35933;" d="M308.348,280.872c0-6.234-5.036-11.29-11.262-11.326V292.2
	C303.313,292.162,308.348,287.106,308.348,280.872z"/>
<circle style="fill:#FF7F4F;" cx="297.012" cy="304.942" r="11.33"/>
<path style="fill:#D35933;" d="M308.348,304.949c0-6.234-5.036-11.29-11.262-11.328v22.654
	C303.313,316.238,308.348,311.184,308.348,304.949z"/>
<circle style="fill:#FFC61B;" cx="297.012" cy="292.909" r="8.775"/>
<path style="fill:#EAA22F;" d="M303.223,286.706c-1.696-1.696-3.913-2.546-6.135-2.563v17.537c2.222-0.017,4.441-0.867,6.137-2.563
	C306.65,295.688,306.65,290.133,303.223,286.706z"/>
<circle style="fill:#B54324;" cx="253.293" cy="367.088" r="11.216"/>
<circle style="fill:#930000;" cx="270.153" cy="350.246" r="11.216"/>
<circle style="fill:#B54324;" cx="253.293" cy="350.246" r="11.216"/>
<circle style="fill:#930000;" cx="270.153" cy="367.088" r="11.216"/>
<g>
	<circle style="fill:#D35933;" cx="249.673" cy="358.676" r="11.33"/>
	<circle style="fill:#D35933;" cx="273.756" cy="358.676" r="11.33"/>
</g>
<g>
	<circle style="fill:#FF7F4F;" cx="261.723" cy="346.626" r="11.33"/>
	<circle style="fill:#FF7F4F;" cx="261.723" cy="370.709" r="11.33"/>
</g>
<circle style="fill:#FFC61B;" cx="261.723" cy="358.676" r="8.775"/>
<g>
</g>
<g>
</g>
<g>
</g>
<g>
</g>
<g>
</g>
<g>
</g>
<g>
</g>
<g>
</g>
<g>
</g>
<g>
</g>
<g>
</g>
<g>
</g>
<g>
</g>
<g>
</g>
<g>
</g>
</svg>
