<?xml version="1.0" encoding="iso-8859-1"?>
<!-- Generator: Adobe Illustrator 19.0.0, SVG Export Plug-In . SVG Version: 6.00 Build 0)  -->
<svg version="1.1" id="Layer_1" xmlns="http://www.w3.org/2000/svg" xmlns:xlink="http://www.w3.org/1999/xlink" x="0px" y="0px"
	 viewBox="0 0 512 512" style="enable-background:new 0 0 512 512;" xml:space="preserve">
<circle style="fill:#FFEDB5;" cx="256" cy="256" r="256"/>
<path style="fill:#FEE187;" d="M286.892,510.138c109.085-13.122,197.053-94.841,219.519-200.77L297.632,103.372l-52.262,65.57
	l-30.779,17.779l38.231,35.588v64.329l-93.362,17.63l84.435,84.435l-44.785,33.652L286.892,510.138z"/>
<path style="fill:#477F3C;" d="M256,319.785c-3.808,0-6.896-3.088-6.896-6.896V170.667c0-3.808,3.088-6.896,6.896-6.896
	c3.808,0,6.896,3.088,6.896,6.896v142.222C262.896,316.697,259.808,319.785,256,319.785z"/>
<path style="fill:#2E5E24;" d="M256,163.771c-0.197,0-0.381,0.041-0.574,0.059v155.898c0.193,0.016,0.378,0.059,0.574,0.059
	c3.808,0,6.896-3.088,6.896-6.896V170.667C262.896,166.859,259.808,163.771,256,163.771z"/>
<polygon style="fill:#D35933;" points="312.889,422.357 199.111,422.357 170.667,280.135 341.333,280.135 "/>
<g>
	<polygon style="fill:#B54324;" points="341.333,280.135 255.426,280.135 255.426,422.357 312.889,422.357 	"/>
	<rect x="159.461" y="256" style="fill:#B54324;" width="193.077" height="48.269"/>
</g>
<rect x="255.431" y="256" style="fill:#930000;" width="97.108" height="48.269"/>
<circle style="fill:#B54324;" cx="234.555" cy="166.46" r="28.546"/>
<circle style="fill:#930000;" cx="277.445" cy="123.552" r="28.546"/>
<circle style="fill:#B54324;" cx="234.555" cy="123.552" r="28.546"/>
<circle style="fill:#930000;" cx="277.445" cy="166.46" r="28.546"/>
<circle style="fill:#D35933;" cx="225.366" cy="144.998" r="28.836"/>
<circle style="fill:#B54324;" cx="286.634" cy="144.998" r="28.836"/>
<g>
	<circle style="fill:#FF7F4F;" cx="256" cy="114.364" r="28.836"/>
	<circle style="fill:#FF7F4F;" cx="256" cy="175.649" r="28.836"/>
</g>
<g>
	<path style="fill:#D35933;" d="M256,85.532c-0.193,0-0.381,0.026-0.574,0.029v57.615c0.193,0.003,0.381,0.029,0.574,0.029
		c15.925,0,28.836-12.91,28.836-28.836C284.836,98.442,271.925,85.532,256,85.532z"/>
	<path style="fill:#D35933;" d="M256,146.808c-0.193,0-0.381,0.026-0.574,0.029v57.615c0.193,0.003,0.381,0.029,0.574,0.029
		c15.925,0,28.836-12.91,28.836-28.836C284.836,159.718,271.925,146.808,256,146.808z"/>
</g>
<circle style="fill:#FFC61B;" cx="256" cy="144.998" r="22.333"/>
<path style="fill:#EAA22F;" d="M271.791,129.214c-4.508-4.506-10.461-6.665-16.365-6.513v44.611
	c5.906,0.152,11.859-2.007,16.365-6.515C280.512,152.076,280.512,137.935,271.791,129.214z"/>
<path style="fill:#3B9B27;" d="M268.245,210.127c11.39-5.81,33.735,1.308,33.735,1.308s-7.37,22.273-18.76,28.082
	c-11.39,5.81-18.351,1.071-22.487-7.046C256.6,224.356,256.855,215.936,268.245,210.127z"/>
<path style="fill:#2E821A;" d="M301.98,211.435c0,0-7.37,22.273-18.76,28.082c-11.39,5.81-18.351,1.071-22.487-7.046L301.98,211.435
	z"/>
<g>
</g>
<g>
</g>
<g>
</g>
<g>
</g>
<g>
</g>
<g>
</g>
<g>
</g>
<g>
</g>
<g>
</g>
<g>
</g>
<g>
</g>
<g>
</g>
<g>
</g>
<g>
</g>
<g>
</g>
</svg>
