<?xml version="1.0" encoding="iso-8859-1"?>
<!-- Generator: Adobe Illustrator 19.0.0, SVG Export Plug-In . SVG Version: 6.00 Build 0)  -->
<svg version="1.1" id="Layer_1" xmlns="http://www.w3.org/2000/svg" xmlns:xlink="http://www.w3.org/1999/xlink" x="0px" y="0px"
	 viewBox="0 0 512 512" style="enable-background:new 0 0 512 512;" xml:space="preserve">
<circle style="fill:#273B7A;" cx="256" cy="256" r="256"/>
<path style="fill:#121149;" d="M503.984,319.8L314.761,130.577l-34.469,30.763l-48.795,52.502l82.815,82.815l-18.623,18.623
	l-28.662-28.662l-39.021,6.318l-34.638-4.182l-48.166,81.024l140.498,140.498C391.725,498.024,478.02,421.012,503.984,319.8z"/>
<path style="fill:#FFEDB5;" d="M353.78,272.913c-2.396-3.331-6.751-4.641-10.592-3.198c-0.055,0.021-0.11,0.04-0.165,0.059
	l-65,21.64c0.014,0.522,0.003,1.048-0.031,1.577c-0.543,8.301-6.961,14.969-15.21,15.807l-39.172,4.068
	c-2.477,0.259-4.694-1.543-4.951-4.018c-0.259-2.477,1.541-4.751,4.018-4.951l39.172-4.068c3.867-0.421,6.887-3.525,7.142-7.423
	c0.138-2.127-0.56-4.182-1.967-5.784c-1.407-1.603-3.353-2.562-5.482-2.701l-52.01-3.391c-5.841-0.379-11.64,0.91-16.768,3.734
	l-68.594,37.772l18.577,37.459l17.23-15.032c7.318-6.384,17.012-9.133,26.595-7.54l57.594,9.571
	c10.554,1.403,21.135-1.229,29.799-7.411l78.417-54.005C355.888,282.012,356.511,276.708,353.78,272.913z"/>
<path style="fill:#FEE187;" d="M353.78,272.913c-2.396-3.331-6.751-4.641-10.592-3.198c-0.055,0.021-0.11,0.04-0.165,0.059
	l-65,21.64c0.014,0.522,0.003,1.048-0.031,1.577c-0.317,4.858-2.657,9.145-6.189,12.043v35.44c0.726-0.453,1.46-0.893,2.162-1.395
	l78.417-54.005C355.888,282.012,356.511,276.708,353.78,272.913z"/>
<rect x="126.984" y="310.87" transform="matrix(0.8256 -0.5643 0.5643 0.8256 -166.4881 138.8)" style="fill:#D35933;" width="28.59" height="55.684"/>
<circle style="fill:#B54324;" cx="251.69" cy="193.664" r="28.546"/>
<circle style="fill:#930000;" cx="294.581" cy="150.756" r="28.546"/>
<circle style="fill:#B54324;" cx="251.69" cy="150.756" r="28.546"/>
<circle style="fill:#930000;" cx="294.581" cy="193.664" r="28.546"/>
<circle style="fill:#D35933;" cx="242.485" cy="172.201" r="28.836"/>
<circle style="fill:#B54324;" cx="303.769" cy="172.201" r="28.836"/>
<circle style="fill:#FF7F4F;" cx="273.136" cy="141.567" r="28.836"/>
<path style="fill:#D35933;" d="M273.129,112.735c-0.157,0-0.307,0.021-0.462,0.024v57.625c0.155,0.002,0.307,0.024,0.462,0.024
	c15.925,0,28.836-12.91,28.836-28.836C301.964,125.645,289.054,112.735,273.129,112.735z"/>
<circle style="fill:#FF7F4F;" cx="273.136" cy="202.852" r="28.836"/>
<path style="fill:#D35933;" d="M273.129,174.011c-0.157,0-0.307,0.021-0.462,0.024v57.627c0.155,0.002,0.307,0.024,0.462,0.024
	c15.925,0,28.836-12.91,28.836-28.836C301.964,186.923,289.054,174.011,273.129,174.011z"/>
<circle style="fill:#FFC61B;" cx="273.136" cy="172.201" r="22.333"/>
<path style="fill:#EAA22F;" d="M288.92,156.419c-4.479-4.479-10.385-6.64-16.255-6.518v44.622
	c5.868,0.121,11.776-2.041,16.255-6.518C297.641,179.279,297.641,165.14,288.92,156.419z"/>
<g>
</g>
<g>
</g>
<g>
</g>
<g>
</g>
<g>
</g>
<g>
</g>
<g>
</g>
<g>
</g>
<g>
</g>
<g>
</g>
<g>
</g>
<g>
</g>
<g>
</g>
<g>
</g>
<g>
</g>
</svg>
