<?xml version="1.0" encoding="iso-8859-1"?>
<!-- Generator: Adobe Illustrator 19.0.0, SVG Export Plug-In . SVG Version: 6.00 Build 0)  -->
<svg version="1.1" id="Layer_1" xmlns="http://www.w3.org/2000/svg" xmlns:xlink="http://www.w3.org/1999/xlink" x="0px" y="0px"
	 viewBox="0 0 512 512" style="enable-background:new 0 0 512 512;" xml:space="preserve">
<circle style="fill:#FEE187;" cx="256" cy="256" r="256"/>
<path style="fill:#FFC61B;" d="M279.355,510.929c116.696-10.555,210.78-99.411,229.311-213.621L392.733,180.889l-222.067,65.629
	l-75.078,33.109l77.505,77.084l-30.965,16.991L279.355,510.929z"/>
<path style="fill:#B54324;" d="M225.928,373.703c-24.898-39.038-20.89-104.451-20.89-104.451h-42.018
	c0,0,4.008,65.414-20.89,104.451H225.928z"/>
<path style="fill:#930000;" d="M205.038,269.253h-21.442v104.451h42.332C201.03,334.667,205.038,269.253,205.038,269.253z"/>
<path style="fill:#35662B;" d="M258.96,206.477c0.203-1.414,0.345-2.85,0.345-4.32c0-16.632-13.483-30.115-30.115-30.115
	c-0.814,0-1.612,0.059-2.41,0.122c-7.175-16.582-23.676-28.188-42.894-28.188s-35.718,11.605-42.894,28.188
	c-0.798-0.064-1.596-0.122-2.41-0.122c-16.632,0-30.115,13.483-30.115,30.115c0,1.47,0.141,2.905,0.345,4.32
	c-15.124,7.735-25.484,23.459-25.484,41.613c0,25.805,20.92,46.725,46.725,46.725c10.026,0,19.306-3.169,26.917-8.544
	c7.611,5.375,16.891,8.544,26.917,8.544s19.306-3.169,26.917-8.544c7.611,5.375,16.891,8.544,26.917,8.544
	c25.805,0,46.725-20.92,46.725-46.725C284.444,229.938,274.084,214.213,258.96,206.477z"/>
<path style="fill:#2E5E24;" d="M258.96,206.477c0.203-1.414,0.345-2.85,0.345-4.32c0-16.632-13.483-30.115-30.115-30.115
	c-0.814,0-1.612,0.059-2.41,0.122c-7.175-16.582-23.676-28.188-42.894-28.188c-0.098,0-0.193,0.01-0.29,0.01v150.816
	c0.098,0,0.193,0.012,0.29,0.012c10.026,0,19.306-3.169,26.917-8.544c7.611,5.375,16.891,8.544,26.917,8.544
	c25.805,0,46.725-20.92,46.725-46.725C284.444,229.938,274.084,214.213,258.96,206.477z"/>
<path style="fill:#B54324;" d="M368.15,373.703c-24.898-39.038-20.89-104.451-20.89-104.451h-42.018c0,0,4.008,65.414-20.89,104.451
	H368.15z"/>
<path style="fill:#930000;" d="M347.26,269.253h-21.154v104.451h42.044C343.252,334.667,347.26,269.253,347.26,269.253z"/>
<path style="fill:#35662B;" d="M401.182,206.477c0.203-1.414,0.345-2.85,0.345-4.32c0-16.632-13.483-30.115-30.115-30.115
	c-0.814,0-1.612,0.059-2.41,0.122c-7.177-16.582-23.676-28.188-42.894-28.188c-19.218,0-35.718,11.605-42.894,28.188
	c-0.798-0.064-1.596-0.122-2.41-0.122c-16.632,0-30.115,13.483-30.115,30.115c0,1.47,0.141,2.905,0.345,4.32
	c-15.124,7.735-25.485,23.459-25.485,41.613c0,25.805,20.92,46.725,46.725,46.725c10.026,0,19.306-3.169,26.917-8.544
	c7.611,5.375,16.891,8.544,26.917,8.544s19.306-3.169,26.917-8.544c7.611,5.375,16.891,8.544,26.917,8.544
	c25.805,0,46.725-20.92,46.725-46.725C426.667,229.938,416.306,214.213,401.182,206.477z"/>
<path style="fill:#2E5E24;" d="M401.182,206.477c0.203-1.414,0.345-2.85,0.345-4.32c0-16.632-13.483-30.115-30.115-30.115
	c-0.814,0-1.612,0.059-2.41,0.122c-7.177-16.582-23.676-28.188-42.894-28.188h-0.002v150.837h0.002
	c10.026,0,19.306-3.169,26.917-8.544c7.611,5.375,16.891,8.544,26.917,8.544c25.805,0,46.725-20.92,46.725-46.725
	C426.667,229.938,416.306,214.213,401.182,206.477z"/>
<path style="fill:#D35933;" d="M303.569,398.222c-28.172-44.17-23.636-118.182-23.636-118.182h-47.542
	c0,0,4.536,74.012-23.636,118.182H303.569z"/>
<path style="fill:#B54324;" d="M279.933,280.04H256v118.182h47.569C275.397,354.054,279.933,280.04,279.933,280.04z"/>
<path style="fill:#6CAF5F;" d="M348.022,207.794c0.25-1.734,0.422-3.493,0.422-5.296c0-20.387-16.527-36.912-36.912-36.912
	c-0.996,0-1.977,0.072-2.953,0.15c-8.795-20.325-29.022-34.551-52.577-34.551s-43.782,14.226-52.577,34.551
	c-0.977-0.078-1.957-0.15-2.953-0.15c-20.387,0-36.912,16.527-36.912,36.912c0,1.803,0.172,3.562,0.422,5.296
	c-18.539,9.481-31.237,28.755-31.237,51.007c0,31.63,25.641,57.272,57.272,57.272c12.29,0,23.666-3.884,32.994-10.473
	c9.328,6.589,20.704,10.473,32.994,10.473c12.29,0,23.666-3.884,32.994-10.473c9.328,6.589,20.704,10.473,32.994,10.473
	c31.63,0,57.272-25.641,57.272-57.272C379.259,236.549,366.561,217.276,348.022,207.794z"/>
<path style="fill:#477F3C;" d="M348.022,207.794c0.25-1.734,0.422-3.493,0.422-5.296c0-20.387-16.527-36.912-36.912-36.912
	c-0.996,0-1.977,0.072-2.955,0.15c-8.795-20.325-29.022-34.551-52.577-34.551v184.889c12.29,0,23.664-3.884,32.994-10.473
	c9.328,6.589,20.704,10.473,32.994,10.473c31.63,0,57.272-25.641,57.272-57.272C379.259,236.549,366.561,217.276,348.022,207.794z"
	/>
<g>
</g>
<g>
</g>
<g>
</g>
<g>
</g>
<g>
</g>
<g>
</g>
<g>
</g>
<g>
</g>
<g>
</g>
<g>
</g>
<g>
</g>
<g>
</g>
<g>
</g>
<g>
</g>
<g>
</g>
</svg>
