<?xml version="1.0" encoding="iso-8859-1"?>
<!-- Generator: Adobe Illustrator 19.0.0, SVG Export Plug-In . SVG Version: 6.00 Build 0)  -->
<svg version="1.1" id="Layer_1" xmlns="http://www.w3.org/2000/svg" xmlns:xlink="http://www.w3.org/1999/xlink" x="0px" y="0px"
	 viewBox="0 0 512 512" style="enable-background:new 0 0 512 512;" xml:space="preserve">
<circle style="fill:#273B7A;" cx="256" cy="256" r="256"/>
<path style="fill:#121149;" d="M297.743,508.594c105.939-17.377,189.978-99.771,209.798-204.869L355.556,151.742l-66.513-8.657
	l-33.506,33.506l-33.439-30.346h-54.122l-23.795,23.795L137.361,204l67.863,67.863l-7.79,1.272l-51.124-51.124l-8.949,38.878
	l65.857,65.857l-81.956,5.368L297.743,508.594z"/>
<path style="fill:#71E2EF;" d="M312.889,135.327c-24.816,0-46.349,14.253-56.889,34.994c-10.54-20.74-32.073-34.994-56.889-34.994
	c-35.171,0-63.785,28.613-63.785,63.785c0,3.808,3.088,6.896,6.896,6.896s6.896-3.088,6.896-6.896
	c0-27.565,22.428-49.993,49.993-49.993s49.993,22.428,49.993,49.993v142.222c0,3.808,3.088,6.896,6.896,6.896
	c3.808,0,6.896-3.088,6.896-6.896V199.111c0-27.565,22.428-49.993,49.993-49.993c27.565,0,49.993,22.428,49.993,49.993
	c0,3.808,3.088,6.896,6.896,6.896s6.896-3.088,6.896-6.896C376.673,163.94,348.06,135.327,312.889,135.327z"/>
<path style="fill:#38C6D9;" d="M312.889,135.327c-24.816,0-46.349,14.253-56.889,34.994c-0.179-0.353-0.388-0.69-0.574-1.04v178.891
	c0.193,0.017,0.378,0.059,0.574,0.059c3.808,0,6.896-3.088,6.896-6.896V199.113c0-27.565,22.428-49.993,49.993-49.993
	c27.565,0,49.993,22.428,49.993,49.993c0,3.808,3.088,6.896,6.896,6.896s6.896-3.088,6.896-6.896
	C376.673,163.94,348.06,135.327,312.889,135.327z"/>
<path style="fill:#EAA22F;" d="M248.661,262.866l-19.382,163.8h53.441l-19.235-162.569
	C258.536,263.73,253.593,263.332,248.661,262.866z"/>
<path style="fill:#E09112;" d="M263.485,264.097c-2.689-0.2-5.375-0.412-8.059-0.634v163.204h27.295L263.485,264.097z"/>
<path style="fill:#FF7F4F;" d="M327.111,284.444H184.889c-15.71,0-28.444-12.734-28.444-28.444l0,0h199.111l0,0
	C355.556,271.71,342.821,284.444,327.111,284.444z"/>
<path style="fill:#D35933;" d="M255.426,256v28.444h71.685c15.71,0,28.444-12.734,28.444-28.444H255.426z"/>
<path style="fill:#FF7F4F;" d="M369.778,341.333H142.222c-15.71,0-28.444-12.734-28.444-28.444l0,0h284.444l0,0
	C398.222,328.599,385.488,341.333,369.778,341.333z"/>
<path style="fill:#D35933;" d="M255.426,312.889v28.444h114.352c15.71,0,28.444-12.734,28.444-28.444H255.426z"/>
<path style="fill:#71E2EF;" d="M142.222,262.896c-3.808,0-6.896-3.088-6.896-6.896v-28.444c0-3.808,3.088-6.896,6.896-6.896
	s6.896,3.088,6.896,6.896V256C149.118,259.808,146.03,262.896,142.222,262.896z"/>
<g>
	<path style="fill:#38C6D9;" d="M369.778,262.896c-3.808,0-6.896-3.088-6.896-6.896v-28.444c0-3.808,3.088-6.896,6.896-6.896
		s6.896,3.088,6.896,6.896V256C376.673,259.808,373.586,262.896,369.778,262.896z"/>
	<path style="fill:#38C6D9;" d="M341.333,234.451c-3.808,0-6.896-3.088-6.896-6.896v-28.444c0-3.808,3.087-6.896,6.896-6.896
		s6.896,3.088,6.896,6.896v28.444C348.229,231.364,345.141,234.451,341.333,234.451z"/>
</g>
<path style="fill:#71E2EF;" d="M170.667,234.451c-3.808,0-6.896-3.088-6.896-6.896v-28.444c0-3.808,3.088-6.896,6.896-6.896
	c3.808,0,6.896,3.088,6.896,6.896v28.444C177.562,231.364,174.475,234.451,170.667,234.451z"/>
<g>
</g>
<g>
</g>
<g>
</g>
<g>
</g>
<g>
</g>
<g>
</g>
<g>
</g>
<g>
</g>
<g>
</g>
<g>
</g>
<g>
</g>
<g>
</g>
<g>
</g>
<g>
</g>
<g>
</g>
</svg>
