<?xml version="1.0" encoding="iso-8859-1"?>
<!-- Generator: Adobe Illustrator 19.0.0, SVG Export Plug-In . SVG Version: 6.00 Build 0)  -->
<svg version="1.1" id="Layer_1" xmlns="http://www.w3.org/2000/svg" xmlns:xlink="http://www.w3.org/1999/xlink" x="0px" y="0px"
	 viewBox="0 0 512.001 512.001" style="enable-background:new 0 0 512.001 512.001;" xml:space="preserve">
<path style="fill:#FAC656;" d="M502.856,188.035c-11.36-41.407-33.296-80.519-65.829-113.052
	c-99.976-99.976-262.07-99.976-362.045,0s-99.976,262.07,0,362.045c32.533,32.533,71.646,54.469,113.052,65.829L502.856,188.035z"/>
<path style="fill:#F7A150;" d="M437.028,437.028c67.444-67.444,89.379-163.153,65.829-248.993l-89.44-89.44L98.594,413.415
	l89.44,89.44C273.875,526.407,369.584,504.471,437.028,437.028z"/>
<path style="fill:#C34346;" d="M98.593,413.414l82.64-106.252l23.611,39.352l-66.9,66.9
	C127.079,424.282,109.46,424.282,98.593,413.414z"/>
<path style="fill:#D3754F;" d="M98.593,413.414c-10.867-10.867-10.867-28.486,0-39.352l66.9-66.9l27.547,11.806L98.593,413.414z"/>
<polygon style="fill:#394449;" points="248.133,263.874 267.81,283.551 220.586,330.774 200.911,311.098 216.651,279.615 "/>
<path style="fill:#57676E;" d="M181.234,291.421c27.917-27.917,47.223-47.223,47.223-47.223l19.677,19.677l-47.223,47.223
	L181.234,291.421z"/>
<polygon style="fill:#D1F1FF;" points="200.911,311.098 220.586,330.774 204.845,346.515 185.168,326.839 185.168,311.098 "/>
<path style="fill:#FFFFFF;" d="M165.493,307.162c9.305-9.305,15.741-15.741,15.741-15.741l19.677,19.677l-15.741,15.741
	L165.493,307.162z"/>
<path style="fill:#57676E;" d="M413.415,98.594l-135.019,87.796l-61.745,108.968c54.247,54.247,142.515,54.248,196.764,0
	S467.664,152.842,413.415,98.594z"/>
<path style="fill:#748993;" d="M216.653,98.594c-54.248,54.248-54.247,142.515,0,196.764L413.415,98.594
	C359.168,44.346,270.9,44.346,216.653,98.594z"/>
<path style="fill:#313A3E;" d="M397.674,114.335l-106.252,59.029l-59.029,106.252c45.568,45.568,119.713,45.568,165.281,0
	S443.243,159.903,397.674,114.335z"/>
<path style="fill:#414D53;" d="M232.393,114.335c-45.568,45.568-45.568,119.713,0,165.281l165.281-165.281
	C352.107,68.767,277.961,68.767,232.393,114.335z"/>
<g>
</g>
<g>
</g>
<g>
</g>
<g>
</g>
<g>
</g>
<g>
</g>
<g>
</g>
<g>
</g>
<g>
</g>
<g>
</g>
<g>
</g>
<g>
</g>
<g>
</g>
<g>
</g>
<g>
</g>
</svg>
