<?xml version="1.0" encoding="iso-8859-1"?>
<!-- Generator: Adobe Illustrator 19.0.0, SVG Export Plug-In . SVG Version: 6.00 Build 0)  -->
<svg version="1.1" id="Layer_1" xmlns="http://www.w3.org/2000/svg" xmlns:xlink="http://www.w3.org/1999/xlink" x="0px" y="0px"
	 viewBox="0 0 512 512" style="enable-background:new 0 0 512 512;" xml:space="preserve">
<path style="fill:#F79E73;" d="M256,0C114.616,0,0,114.615,0,256c0,118.322,80.273,217.896,189.33,247.233l316.295-304.262
	C479.704,85.037,377.783,0,256,0z"/>
<path style="fill:#F37C4A;" d="M512,256c0-19.603-2.212-38.688-6.384-57.028L376.487,69.843l-254.052,366.47l66.901,66.901
	C210.592,508.931,232.937,512,256,512C397.384,512,512,397.384,512,256z"/>
<g>
	<polygon style="fill:#C4D3D9;" points="389.565,156.939 389.565,414.052 256,425.183 222.609,145.809 	"/>
	<path style="fill:#C4D3D9;" d="M389.565,101.287v33.391l-166.956,11.13L256,56.765h89.043
		C369.53,56.765,389.565,76.8,389.565,101.287z"/>
</g>
<g>
	<polygon style="fill:#FFFFFF;" points="256,145.809 256,425.183 122.435,414.052 122.435,156.939 	"/>
	<path style="fill:#FFFFFF;" d="M256,56.765v89.043l-133.565-11.13v-33.391c0-24.487,20.035-44.522,44.522-44.522H256z"/>
</g>
<path style="fill:#A2B1B7;" d="M345.043,313.878l-122.435,11.13L256,269.357h44.522
	C325.009,269.357,345.043,289.391,345.043,313.878z"/>
<path style="fill:#C4D3D9;" d="M256,269.357v55.652l-89.043-11.13c0-24.487,20.035-44.522,44.522-44.522H256z"/>
<polygon style="fill:#57676E;" points="256,336.139 241.142,380.661 256,425.183 345.043,425.183 345.043,336.139 "/>
<rect x="166.957" y="336.139" style="fill:#748993;" width="89.043" height="89.043"/>
<polygon style="fill:#313A3E;" points="256,313.878 241.142,325.009 256,336.139 345.043,336.139 345.043,313.878 "/>
<rect x="166.957" y="313.878" style="fill:#57676E;" width="89.043" height="22.261"/>
<polygon style="fill:#313A3E;" points="256,134.678 241.142,145.809 256,156.939 389.565,156.939 389.565,134.678 "/>
<rect x="122.435" y="134.678" style="fill:#57676E;" width="133.565" height="22.261"/>
<polygon style="fill:#313A3E;" points="256,414.052 241.142,425.183 256,436.313 389.565,436.313 389.565,414.052 "/>
<rect x="122.435" y="414.052" style="fill:#57676E;" width="133.565" height="22.261"/>
<g>
</g>
<g>
</g>
<g>
</g>
<g>
</g>
<g>
</g>
<g>
</g>
<g>
</g>
<g>
</g>
<g>
</g>
<g>
</g>
<g>
</g>
<g>
</g>
<g>
</g>
<g>
</g>
<g>
</g>
</svg>
