<?xml version="1.0" encoding="iso-8859-1"?>
<!-- Generator: Adobe Illustrator 19.0.0, SVG Export Plug-In . SVG Version: 6.00 Build 0)  -->
<svg version="1.1" id="Layer_1" xmlns="http://www.w3.org/2000/svg" xmlns:xlink="http://www.w3.org/1999/xlink" x="0px" y="0px"
	 viewBox="0 0 512.003 512.003" style="enable-background:new 0 0 512.003 512.003;" xml:space="preserve">
<path style="fill:#57676E;" d="M437.033,74.983c-99.977-99.978-262.072-99.978-362.049,0s-99.977,262.072,0,362.049
	c42.604,42.604,96.488,67.038,152.038,73.332l283.342-283.342C504.07,171.472,479.636,117.587,437.033,74.983z"/>
<path style="fill:#414D53;" d="M510.364,227.021l-41.849-41.849l-19.677-3.936l-3.936-19.677l-94.448-94.448L193.042,193.043
	L67.112,350.456l94.448,94.448l19.677,3.936l3.936,19.677l41.849,41.849c74.809,8.476,152.637-15.958,210.011-73.332
	S518.84,301.83,510.364,227.021z"/>
<polygon style="fill:#F79E73;" points="216.655,405.55 161.56,350.456 141.883,354.391 137.948,374.067 193.042,429.161 "/>
<rect x="105.503" y="295.756" transform="matrix(-0.7071 0.7071 -0.7071 -0.7071 445.2847 484.9832)" style="fill:#FBC09B;" width="33.392" height="77.914"/>
<polygon style="fill:#F79E73;" points="287.49,334.715 232.396,279.62 212.719,283.556 208.785,303.231 263.878,358.326 "/>
<rect x="176.339" y="224.92" transform="matrix(-0.7071 0.7071 -0.7071 -0.7071 516.121 313.9704)" style="fill:#FBC09B;" width="33.392" height="77.914"/>
<polygon style="fill:#F79E73;" points="358.326,263.879 303.231,208.785 283.555,212.719 279.62,232.396 334.715,287.49 "/>
<rect x="247.175" y="154.084" transform="matrix(-0.7071 0.7071 -0.7071 -0.7071 586.9573 142.9574)" style="fill:#FBC09B;" width="33.392" height="77.914"/>
<polygon style="fill:#F79E73;" points="429.161,193.043 374.067,137.949 354.39,141.883 350.456,161.56 405.549,216.655 "/>
<rect x="318.014" y="83.249" transform="matrix(-0.7071 0.7071 -0.7071 -0.7071 657.7975 -28.0569)" style="fill:#FBC09B;" width="33.392" height="77.915"/>
<rect x="-3.369" y="180.286" transform="matrix(-0.7071 0.7071 -0.7071 -0.7071 475.5574 196.9811)" style="fill:#F37C4A;" width="400.703" height="33.392"/>
<rect x="114.673" y="298.338" transform="matrix(-0.7071 0.7071 -0.7071 -0.7071 760.543 315.0416)" style="fill:#ED6350;" width="400.703" height="33.392"/>
<g>
</g>
<g>
</g>
<g>
</g>
<g>
</g>
<g>
</g>
<g>
</g>
<g>
</g>
<g>
</g>
<g>
</g>
<g>
</g>
<g>
</g>
<g>
</g>
<g>
</g>
<g>
</g>
<g>
</g>
</svg>
