<?xml version="1.0" encoding="iso-8859-1"?>
<!-- Generator: Adobe Illustrator 19.0.0, SVG Export Plug-In . SVG Version: 6.00 Build 0)  -->
<svg version="1.1" id="Layer_1" xmlns="http://www.w3.org/2000/svg" xmlns:xlink="http://www.w3.org/1999/xlink" x="0px" y="0px"
	 viewBox="0 0 512 512" style="enable-background:new 0 0 512 512;" xml:space="preserve">
<circle style="fill:#FFEDB5;" cx="256" cy="256" r="256"/>
<path style="fill:#FEE187;" d="M293.659,509.237C417.187,491.022,512,384.59,512,256c0-6.096-0.228-12.14-0.646-18.129
	L383.297,109.815l-17.063,17.063l-24.169-24.169l-67.965,66.71l-40.86-41.313l4.698,86.88l-35.974,202.552L293.659,509.237z"/>
<path style="fill:#6CAF5F;" d="M403.325,186.671c-2.408-2.408-5.63-3.736-9.068-3.736c-3.437,0-6.656,1.327-9.066,3.736
	l-59.992,59.992l-6.094-6.094l59.992-59.992l10.111-10.111c6.049-6.051,6.904-15.041,1.905-20.04
	c-2.313-2.312-5.608-3.429-9.259-3.163c-3.908,0.291-7.718,2.11-10.73,5.122l-70.103,70.103l-0.509,0.509l-6.094-6.094
	l88.876-88.878c2.432-2.432,3.772-5.665,3.772-9.104c0-3.439-1.338-6.672-3.772-9.104c-5.02-5.017-13.188-5.022-18.21,0
	l-16.917,16.917c-0.005,0.005-0.009,0.01-0.012,0.014l-29.022,29.02l-42.925,42.925l-6.094-6.094l11.857-11.857l0,0l31.068-31.067
	l29.034-29.034c4.932-4.948,4.929-12.986-0.012-17.927l-0.212-0.21c-2.407-2.407-5.592-3.727-8.982-3.727
	c-3.389,0-6.573,1.321-8.97,3.715l-84.564,84.563l-2.089-48.947l0.007-0.184c0.303-6.989-5.136-12.919-12.126-13.221
	c-3.386-0.147-6.625,1.034-9.121,3.324c-2.498,2.291-3.953,5.417-4.099,8.802l-0.062,0.559l-13.312,75.816
	c-2.446,13.939-9.03,26.598-19.039,36.605l-54.72,54.72l90.034,90.034l188.507-189.938
	C408.269,199.666,408.269,191.617,403.325,186.671z"/>
<path style="fill:#477F3C;" d="M403.325,186.671c-2.408-2.408-5.63-3.736-9.068-3.736c-3.437,0-6.656,1.327-9.066,3.736
	l-59.992,59.992l-6.094-6.094l59.992-59.992l10.111-10.111c6.049-6.051,6.904-15.041,1.905-20.04
	c-2.313-2.312-5.608-3.429-9.259-3.163c-3.908,0.291-7.718,2.11-10.73,5.122l-70.103,70.103l-0.509,0.509l-4.03-4.03
	L167.845,347.603l46.959,46.961l188.507-189.938C408.269,199.666,408.269,191.617,403.325,186.671z"/>
<circle style="fill:#B54324;" cx="196.663" cy="305.976" r="16.801"/>
<circle style="fill:#930000;" cx="232.365" cy="305.976" r="16.801"/>
<circle style="fill:#B54324;" cx="214.506" cy="288.134" r="16.801"/>
<circle style="fill:#930000;" cx="214.506" cy="323.836" r="16.801"/>
<circle style="fill:#D35933;" cx="201.766" cy="293.219" r="16.972"/>
<circle style="fill:#B54324;" cx="227.262" cy="318.733" r="16.972"/>
<g>
	<circle style="fill:#FF7F4F;" cx="227.262" cy="293.219" r="16.972"/>
	<circle style="fill:#FF7F4F;" cx="201.766" cy="318.733" r="16.972"/>
</g>
<g>
	<path style="fill:#D35933;" d="M236.472,278.976l-23.462,23.462c0.64,0.988,1.386,1.926,2.251,2.791
		c6.628,6.628,17.374,6.628,24.002,0s6.628-17.374,0-24.002C238.397,280.362,237.459,279.616,236.472,278.976z"/>
	<path style="fill:#D35933;" d="M210.97,304.478l-23.462,23.462c0.64,0.988,1.386,1.926,2.251,2.791
		c6.628,6.628,17.374,6.628,24.002,0s6.628-17.374,0-24.002C212.895,305.864,211.958,305.118,210.97,304.478z"/>
</g>
<g>
	<circle style="fill:#FFC61B;" cx="214.506" cy="305.976" r="13.145"/>
	<path style="fill:#FFC61B;" d="M220.932,294.517l-17.884,17.884c2.251,4.01,6.537,6.723,11.462,6.723
		c7.259,0,13.145-5.885,13.145-13.145C227.656,301.054,224.942,296.767,220.932,294.517z"/>
</g>
<rect x="89.805" y="342.417" transform="matrix(-0.7071 -0.7071 0.7071 -0.7071 23.341 723.156)" style="fill:#477F3C;" width="143.272" height="28.654"/>
<rect x="149.296" y="367.064" transform="matrix(0.7071 0.7071 -0.7071 0.7071 324.1864 -19.8735)" style="fill:#2E5E24;" width="73.574" height="28.654"/>
<g>
</g>
<g>
</g>
<g>
</g>
<g>
</g>
<g>
</g>
<g>
</g>
<g>
</g>
<g>
</g>
<g>
</g>
<g>
</g>
<g>
</g>
<g>
</g>
<g>
</g>
<g>
</g>
<g>
</g>
</svg>
