<?xml version="1.0" encoding="iso-8859-1"?>
<!-- Generator: Adobe Illustrator 19.0.0, SVG Export Plug-In . SVG Version: 6.00 Build 0)  -->
<svg version="1.1" id="Layer_1" xmlns="http://www.w3.org/2000/svg" xmlns:xlink="http://www.w3.org/1999/xlink" x="0px" y="0px"
	 viewBox="0 0 512 512" style="enable-background:new 0 0 512 512;" xml:space="preserve">
<path style="fill:#FEEB5C;" d="M504.251,193.294C476.284,82.227,375.75,0,256,0C114.616,0,0,114.616,0,256
	c0,119.42,81.771,219.737,192.374,248.026L504.251,193.294z"/>
<path style="fill:#FAC656;" d="M134.261,122.435l126.601,126.601L122.435,434.087l69.939,69.939C212.717,509.23,234.035,512,256,512
	c141.384,0,256-114.616,256-256c0-21.634-2.696-42.638-7.749-62.706L388.87,77.913L134.261,122.435z"/>
<rect x="244.87" y="89.043" style="fill:#57676E;" width="22.261" height="144.696"/>
<polygon style="fill:#748993;" points="388.87,77.913 255.304,77.913 233.043,100.174 255.304,122.435 377.739,122.435 "/>
<polygon style="fill:#A2B1B7;" points="123.13,77.913 134.261,122.435 256.696,122.435 256.696,77.913 "/>
<path style="fill:#EA5A7D;" d="M378.151,258.846c-4.262-63.754-57.316-114.15-122.15-114.15L233.74,422.957l155.825-11.13
	L378.151,258.846z"/>
<path style="fill:#F5849F;" d="M133.851,258.846l-11.416,152.98l133.566,11.13V144.696
	C191.167,144.696,138.112,195.092,133.851,258.846z"/>
<path style="fill:#FFF9CF;" d="M256,166.957L233.739,267.13L256,367.304c55.325,0,100.174-44.849,100.174-100.174
	S311.325,166.957,256,166.957z"/>
<path style="fill:#FFFFFF;" d="M155.826,267.13c0,55.325,44.849,100.174,100.174,100.174V166.957
	C200.676,166.957,155.826,211.805,155.826,267.13z"/>
<rect x="244.87" y="189.217" style="fill:#394449;" width="22.261" height="77.913"/>
<polygon style="fill:#A82544;" points="389.565,411.826 256,411.826 244.87,422.957 256,434.087 389.565,434.087 "/>
<rect x="122.435" y="411.826" style="fill:#E0315B;" width="133.565" height="22.261"/>
<g>
</g>
<g>
</g>
<g>
</g>
<g>
</g>
<g>
</g>
<g>
</g>
<g>
</g>
<g>
</g>
<g>
</g>
<g>
</g>
<g>
</g>
<g>
</g>
<g>
</g>
<g>
</g>
<g>
</g>
</svg>
