<?xml version="1.0" encoding="iso-8859-1"?>
<!-- Generator: Adobe Illustrator 19.0.0, SVG Export Plug-In . SVG Version: 6.00 Build 0)  -->
<svg version="1.1" id="Layer_1" xmlns="http://www.w3.org/2000/svg" xmlns:xlink="http://www.w3.org/1999/xlink" x="0px" y="0px"
	 viewBox="0 0 512 512" style="enable-background:new 0 0 512 512;" xml:space="preserve">
<path style="fill:#F7A150;" d="M503.453,190.218C474.417,80.712,374.642,0,256,0C114.616,0,0,114.615,0,256
	c0,141.384,114.616,256,256,256c30.609,0,59.959-5.38,87.167-15.233L503.453,190.218z"/>
<g>
	<path style="fill:#F37C4A;" d="M512,256c0-22.744-2.981-44.789-8.547-65.782L395.922,82.687l-84.27,382.565l31.515,31.515
		C441.636,461.109,512,366.776,512,256z"/>
	<polygon style="fill:#F37C4A;" points="295.467,166.957 77.913,211.478 295.467,429.033 	"/>
</g>
<polygon style="fill:#748993;" points="289.391,100.174 122.435,117.748 100.174,166.4 122.435,216.164 289.391,233.739 "/>
<polygon style="fill:#414D53;" points="77.913,122.435 77.913,211.478 122.435,216.164 122.435,117.748 "/>
<rect x="256" y="300.522" style="fill:#008CCB;" width="44.522" height="33.391"/>
<rect x="311.652" y="431.861" style="fill:#57676E;" width="22.261" height="33.391"/>
<path style="fill:#313A3E;" d="M300.522,164.73l22.261,278.261c24.588,0,44.522-19.933,44.522-44.522s0-233.739,0-233.739H300.522z"
	/>
<path style="fill:#414D53;" d="M278.261,164.73c0,0,0,209.151,0,233.739s19.933,44.522,44.522,44.522V164.73H278.261z"/>
<path style="fill:#A2B1B7;" d="M322.783,100.174l-22.261,66.783l22.261,66.783c36.883,0,66.783-29.9,66.783-66.783
	S359.665,100.174,322.783,100.174z"/>
<path style="fill:#C4D3D9;" d="M256,166.957c0,36.883,29.9,66.783,66.783,66.783V100.174C285.9,100.174,256,130.074,256,166.957z"/>
<polygon style="fill:#414D53;" points="389.565,178.087 322.783,178.087 311.652,189.217 322.783,200.348 389.565,200.348 "/>
<rect x="256" y="178.087" style="fill:#57676E;" width="66.783" height="22.261"/>
<polygon style="fill:#414D53;" points="389.565,133.565 322.783,133.565 311.652,144.696 322.783,155.826 389.565,155.826 "/>
<rect x="256" y="133.565" style="fill:#57676E;" width="66.783" height="22.261"/>
<path style="fill:#414D53;" d="M322.783,55.652l-22.261,27.826l22.261,27.826c30.736,0,55.652,24.917,55.652,55.652
	s-24.917,55.652-55.652,55.652l-22.261,27.826l22.261,27.826c61.472,0,111.304-49.832,111.304-111.304
	S384.255,55.652,322.783,55.652z"/>
<path style="fill:#57676E;" d="M267.13,166.957c0-30.736,24.917-55.652,55.652-55.652V55.652
	c-61.472,0-111.304,49.832-111.304,111.304s49.832,111.304,111.304,111.304v-55.652C292.047,222.609,267.13,197.692,267.13,166.957z
	"/>
<g>
</g>
<g>
</g>
<g>
</g>
<g>
</g>
<g>
</g>
<g>
</g>
<g>
</g>
<g>
</g>
<g>
</g>
<g>
</g>
<g>
</g>
<g>
</g>
<g>
</g>
<g>
</g>
<g>
</g>
</svg>
