<?xml version="1.0" encoding="iso-8859-1"?>
<!-- Generator: Adobe Illustrator 19.0.0, SVG Export Plug-In . SVG Version: 6.00 Build 0)  -->
<svg version="1.1" id="Layer_1" xmlns="http://www.w3.org/2000/svg" xmlns:xlink="http://www.w3.org/1999/xlink" x="0px" y="0px"
	 viewBox="0 0 512 512" style="enable-background:new 0 0 512 512;" xml:space="preserve">
<path style="fill:#7A3E25;" d="M503.319,189.654C474.093,80.432,374.439,0,256,0C114.616,0,0,114.616,0,256
	c0,125.254,89.953,229.498,208.782,251.655L503.319,189.654z"/>
<path style="fill:#592C1A;" d="M311.959,128.631l-1.26,27.021l-107.038,0.787l-4.269-25.815l-65.828-34.346l-15.741,15.741
	l82.523,82.523l-6.918,46.897l-75.606,48.666l133.1,133.101l-95.098,31.472l52.96,52.96C224.09,510.492,239.869,512,256,512
	c141.385,0,256-114.616,256-256c0-22.944-3.036-45.176-8.697-66.336L394.175,80.536L311.959,128.631z"/>
<g>
	<rect x="200.348" y="146.365" style="fill:#C4D3D9;" width="55.652" height="22.261"/>
	<rect x="200.348" y="202.017" style="fill:#C4D3D9;" width="55.652" height="22.261"/>
</g>
<g>
	<rect x="256" y="146.365" style="fill:#A2B1B7;" width="55.652" height="22.261"/>
	<rect x="256" y="202.017" style="fill:#A2B1B7;" width="55.652" height="22.261"/>
</g>
<path style="fill:#C4D3D9;" d="M278.261,96.278v341.704h-36.73L256,74.017C268.299,74.017,278.261,83.979,278.261,96.278z"/>
<path style="fill:#FFFFFF;" d="M256,74.017v363.965h-22.261V96.278C233.739,83.979,243.701,74.017,256,74.017z"/>
<path style="fill:#A2B1B7;" d="M322.783,421.287H256l-22.261,16.696L256,454.678h100.174
	C356.174,436.313,341.148,421.287,322.783,421.287z"/>
<path style="fill:#C4D3D9;" d="M256,454.678H155.826c0-18.365,15.026-33.391,33.391-33.391H256V454.678z"/>
<path style="fill:#A2B1B7;" d="M368.476,281.83l-46.868-23.435c-12.021-6.009-21.087-20.677-21.087-34.117v-77.913
	c0-13.44,9.066-28.108,21.087-34.117l46.87-23.436l9.956,19.91l-46.87,23.436c-4.432,2.216-8.782,9.253-8.782,14.207v77.913
	c0,4.954,4.349,11.991,8.781,14.207l46.868,23.435L368.476,281.83z"/>
<path style="fill:#C4D3D9;" d="M143.524,281.83l-9.955-19.911l46.869-23.435c4.43-2.215,8.78-9.253,8.78-14.207v-77.913
	c0-4.954-4.349-11.991-8.78-14.207l-46.872-23.435l9.955-19.911l46.871,23.436c12.021,6.01,21.085,20.678,21.085,34.117v77.913
	c0,13.44-9.066,28.107-21.085,34.117L143.524,281.83z"/>
<circle style="fill:#FEEB5C;" cx="378.435" cy="96.278" r="22.261"/>
<circle style="fill:#EA5A7D;" cx="378.435" cy="274.365" r="22.261"/>
<circle style="fill:#F37C4A;" cx="133.565" cy="96.278" r="22.261"/>
<circle style="fill:#3AAADC;" cx="133.565" cy="274.365" r="22.261"/>
<g>
</g>
<g>
</g>
<g>
</g>
<g>
</g>
<g>
</g>
<g>
</g>
<g>
</g>
<g>
</g>
<g>
</g>
<g>
</g>
<g>
</g>
<g>
</g>
<g>
</g>
<g>
</g>
<g>
</g>
</svg>
