<?xml version="1.0" encoding="iso-8859-1"?>
<!-- Generator: Adobe Illustrator 19.0.0, SVG Export Plug-In . SVG Version: 6.00 Build 0)  -->
<svg version="1.1" id="Layer_1" xmlns="http://www.w3.org/2000/svg" xmlns:xlink="http://www.w3.org/1999/xlink" x="0px" y="0px"
	 viewBox="0 0 512 512" style="enable-background:new 0 0 512 512;" xml:space="preserve">
<circle style="fill:#273B7A;" cx="256" cy="256" r="256"/>
<path style="fill:#121149;" d="M500.848,330.924L392.076,222.153l-20.751,29.124L271.257,151.205l-11.702,143.019l-58.394-58.394
	l-25.035,36.833l-11.666,115.714l121.832,121.832C388.129,498.2,471.659,426.432,500.848,330.924z"/>
<g>
	<path style="fill:#6CAF5F;" d="M335.274,256.138c-1.834-3.281-10.173-18.868-10.195-30.922c-0.009-4.474,5.82-6.265,8.444-2.641
		l6.887,9.506c1.936,2.672,5.96,2.544,7.721-0.245l6.063-9.599c2.131-3.374,7.24-2.688,8.406,1.129l1.62,5.303
		c0.9,2.948,4.361,4.227,6.963,2.576l15.191-9.649c3.681-2.338,8.273,1.203,6.946,5.358l-8.432,26.388
		c-0.774,2.424,0.536,5.02,2.944,5.837l0,0c4.456,1.512,4.124,7.921-0.464,8.966l-15.136,3.444
		c-2.579,0.586-4.155,3.196-3.472,5.751l3.684,13.802c0.988,3.699-2.644,6.953-6.208,5.553c-9.907-3.891-25.719-13.952-30.47-39.179
		C335.675,257.033,335.515,256.569,335.274,256.138z"/>
	<path style="fill:#6CAF5F;" d="M175.923,272.862c-2.281,2.181-13.196,12.243-22.99,14.798c-3.636,0.948-6.316-3.412-3.925-6.308
		l6.277-7.599c1.765-2.136,0.814-5.38-1.826-6.225l-9.08-2.908c-3.191-1.022-3.71-5.32-0.853-7.07l3.97-2.434
		c2.207-1.353,2.519-4.436,0.628-6.203l-11.042-10.318c-2.676-2.5-0.764-6.978,2.893-6.773l23.226,1.298
		c2.132,0.119,3.968-1.493,4.125-3.622l0,0c0.291-3.941,5.572-5.02,7.387-1.51l5.987,11.579c1.021,1.972,3.474,2.703,5.406,1.612
		l10.443-5.901c2.8-1.581,6.21,0.686,5.822,3.877c-1.077,8.873-5.925,23.845-25.433,33.018
		C176.566,272.348,176.221,272.575,175.923,272.862z"/>
</g>
<rect x="164.461" y="357.866" style="fill:#EAA22F;" width="183.079" height="30.513"/>
<rect x="254.845" y="357.866" style="fill:#E09112;" width="92.688" height="30.513"/>
<path style="fill:#FF314F;" d="M272.813,246.351c-3.56-4.656-9.275-6.684-14.677-5.77c-0.231-0.362-0.469-0.722-0.734-1.069
	c-5.118-6.694-14.693-7.971-21.387-2.855c-2.457,1.879-4.177,4.36-5.125,7.077c-4.746-1.758-10.259-1.134-14.577,2.167
	c-2.082,1.593-3.641,3.617-4.646,5.853c-2.729,0.269-5.418,1.258-7.756,3.046c-6.694,5.118-7.971,14.693-2.855,21.387
	c0.895,1.169,1.931,2.164,3.058,2.998c-3.248,5.23-3.132,12.129,0.827,17.31c3.858,5.046,10.247,7.009,16.027,5.482
	c3.518,3.503,8.439,5.001,13.148,4.253c0.395,2.381,1.357,4.703,2.924,6.753c2.925,3.825,7.306,5.873,11.773,5.979
	c0.181,2.417,1.034,4.811,2.617,6.882c4.343,5.68,12.466,6.765,18.146,2.422c5.68-4.342,6.765-12.466,2.422-18.146
	c-0.378-0.493-0.791-0.94-1.222-1.362c5.086-5.339,5.694-13.721,1.074-19.765c-0.598-0.783-1.262-1.484-1.97-2.117
	c5.529-5.304,6.311-14.027,1.548-20.258c-0.024-0.033-0.053-0.06-0.079-0.093C276.797,261.208,277.551,252.549,272.813,246.351z"/>
<path style="fill:#9333AA;" d="M327.83,227.857c-3.56-4.656-9.275-6.684-14.677-5.77c-0.231-0.362-0.469-0.722-0.734-1.069
	c-5.118-6.694-14.693-7.971-21.387-2.855c-2.457,1.879-4.177,4.36-5.125,7.077c-4.746-1.758-10.259-1.134-14.577,2.167
	c-2.082,1.593-3.641,3.617-4.646,5.853c-2.729,0.269-5.418,1.258-7.756,3.046c-6.694,5.118-7.971,14.693-2.855,21.387
	c0.895,1.169,1.931,2.164,3.058,2.998c-3.248,5.23-3.132,12.129,0.827,17.31c3.858,5.046,10.247,7.009,16.027,5.482
	c3.518,3.503,8.439,5.001,13.148,4.253c0.395,2.381,1.357,4.703,2.924,6.753c2.925,3.825,7.306,5.873,11.773,5.979
	c0.181,2.417,1.034,4.811,2.617,6.882c4.342,5.68,12.466,6.765,18.146,2.422c5.68-4.343,6.765-12.466,2.422-18.146
	c-0.378-0.493-0.791-0.94-1.222-1.362c5.086-5.339,5.694-13.721,1.074-19.765c-0.598-0.783-1.262-1.484-1.97-2.117
	c5.529-5.304,6.311-14.027,1.548-20.258c-0.024-0.033-0.053-0.06-0.079-0.093C331.814,242.716,332.567,234.055,327.83,227.857z"/>
<polygon style="fill:#FFC61B;" points="347.539,364.797 164.461,364.797 103.434,273.258 408.566,273.258 "/>
<g>
	<polygon style="fill:#EAA22F;" points="408.566,273.258 254.852,273.258 254.852,364.797 347.539,364.797 	"/>
	<rect x="240.743" y="151.204" style="fill:#EAA22F;" width="30.513" height="152.566"/>
</g>
<rect x="254.845" y="151.204" style="fill:#E09112;" width="16.405" height="152.566"/>
<path style="fill:#FF6262;" d="M209.075,277.882c0-5.861-3.308-10.943-8.156-13.498c0.036-0.429,0.066-0.859,0.066-1.296
	c0-8.426-6.83-15.257-15.257-15.257c-3.093,0-5.966,0.927-8.37,2.508c-2.703-4.28-7.461-7.132-12.897-7.132
	c-2.622,0-5.089,0.662-7.246,1.829c-2.331-1.443-5.068-2.291-8.011-2.291c-8.426,0-15.257,6.83-15.257,15.257
	c0,1.472,0.221,2.891,0.609,4.239c-5.756,2.182-9.856,7.733-9.856,14.255c0,6.351,3.882,11.792,9.402,14.088
	c0.669,4.92,3.667,9.099,7.863,11.364c-1.131,2.131-1.779,4.56-1.779,7.14c0,4.815,2.236,9.102,5.722,11.9
	c-1.324,2.031-2.1,4.451-2.1,7.056c0,7.149,5.796,12.945,12.945,12.945c7.149,0,12.945-5.796,12.945-12.945
	c0-0.621-0.059-1.227-0.143-1.826c7.284-1.153,12.857-7.442,12.857-15.05c0-0.984-0.102-1.945-0.279-2.877
	c7.613-0.857,13.534-7.309,13.534-15.153c0-0.041-0.005-0.081-0.007-0.122C203.216,292.104,209.075,285.682,209.075,277.882z"/>
<g>
	<path style="fill:#FF314F;" d="M209.075,277.882c0-5.861-3.308-10.942-8.156-13.498c0.036-0.429,0.066-0.859,0.066-1.296
		c0-8.426-6.83-15.257-15.257-15.257c-3.093,0-5.966,0.927-8.37,2.508c-1.51-2.391-3.677-4.312-6.232-5.563l-17.222,95.887
		c0.919,0.207,1.87,0.326,2.851,0.326c7.149,0,12.945-5.796,12.945-12.945c0-0.621-0.059-1.227-0.143-1.826
		c7.283-1.153,12.857-7.442,12.857-15.05c0-0.984-0.102-1.945-0.279-2.877c7.615-0.857,13.533-7.309,13.533-15.153
		c0-0.041-0.005-0.081-0.007-0.122C203.216,292.104,209.075,285.682,209.075,277.882z"/>
	<path style="fill:#FF314F;" d="M360.655,248.663c-3.56-4.656-9.275-6.684-14.677-5.77c-0.231-0.362-0.469-0.722-0.734-1.069
		c-5.118-6.694-14.693-7.971-21.387-2.855c-2.457,1.879-4.177,4.36-5.125,7.077c-4.746-1.758-10.259-1.134-14.577,2.167
		c-2.082,1.593-3.641,3.617-4.646,5.853c-2.729,0.269-5.418,1.258-7.756,3.046c-6.694,5.118-7.971,14.693-2.855,21.387
		c0.895,1.169,1.931,2.163,3.058,2.998c-3.248,5.23-3.132,12.129,0.827,17.31c3.858,5.046,10.247,7.009,16.027,5.482
		c3.518,3.503,8.439,5.001,13.148,4.253c0.395,2.381,1.357,4.703,2.924,6.753c2.925,3.825,7.306,5.873,11.773,5.979
		c0.181,2.417,1.034,4.811,2.617,6.882c4.342,5.68,12.466,6.765,18.146,2.422c5.68-4.343,6.765-12.466,2.422-18.146
		c-0.378-0.493-0.791-0.94-1.222-1.362c5.086-5.339,5.694-13.721,1.074-19.765c-0.598-0.783-1.262-1.484-1.97-2.117
		c5.529-5.304,6.311-14.027,1.548-20.258c-0.024-0.033-0.053-0.06-0.079-0.093C364.639,263.52,365.392,254.859,360.655,248.663z"/>
</g>
<path style="fill:#A30F44;" d="M311.806,245.191c-2.693,0.279-5.346,1.257-7.654,3.022c-2.082,1.593-3.641,3.617-4.646,5.853
	c-2.729,0.269-5.418,1.258-7.756,3.046c-6.694,5.118-7.971,14.693-2.855,21.387c0.895,1.169,1.931,2.163,3.058,2.998
	c-3.248,5.23-3.134,12.129,0.827,17.31c3.858,5.046,10.247,7.009,16.027,5.482c3.518,3.501,8.439,5.001,13.148,4.253
	c0.395,2.381,1.357,4.703,2.924,6.753c2.925,3.825,7.306,5.873,11.773,5.979c0.181,2.417,1.034,4.811,2.617,6.88
	c4.342,5.68,12.466,6.765,18.146,2.422c0.002-0.002,0.005-0.005,0.007-0.007L311.806,245.191z"/>
<g>
</g>
<g>
</g>
<g>
</g>
<g>
</g>
<g>
</g>
<g>
</g>
<g>
</g>
<g>
</g>
<g>
</g>
<g>
</g>
<g>
</g>
<g>
</g>
<g>
</g>
<g>
</g>
<g>
</g>
</svg>
