<?xml version="1.0" encoding="iso-8859-1"?>
<!-- Generator: Adobe Illustrator 19.0.0, SVG Export Plug-In . SVG Version: 6.00 Build 0)  -->
<svg version="1.1" id="Layer_1" xmlns="http://www.w3.org/2000/svg" xmlns:xlink="http://www.w3.org/1999/xlink" x="0px" y="0px"
	 viewBox="0 0 512 512" style="enable-background:new 0 0 512 512;" xml:space="preserve">
<circle style="fill:#273B7A;" cx="256" cy="256" r="256"/>
<path style="fill:#121149;" d="M506.854,307.305L380.247,180.698l-16.293,22.557l-25.995-25.622l1.012,28.022l13.5,13.5
	l-75.023,92.853l-60.397-60.899L82.246,221.427l91.334,90.581h-28.879l-82.298,18.218l181.481,181.481
	c4.017,0.188,8.054,0.293,12.117,0.293C379.813,512,483.094,424.103,506.854,307.305z"/>
<path style="fill:#3B9B27;" d="M345.145,185.41c10.728-8.013,35.102-4.711,35.102-4.711s-3.613,24.204-14.341,32.216
	c-10.728,8.013-18.775,4.394-24.507-3.201C335.667,202.118,334.417,193.422,345.145,185.41z"/>
<path style="fill:#2E821A;" d="M380.247,180.698c0,0-3.613,24.204-14.341,32.216c-10.728,8.013-18.775,4.394-24.507-3.201
	L380.247,180.698z"/>
<path style="fill:#6CAF5F;" d="M338.013,219.16c-0.428,0-0.862-0.064-1.291-0.198c-2.27-0.712-3.536-3.131-2.824-5.403
	c2.955-9.423-1.198-25.936-3.048-31.503c-0.752-2.26,0.471-4.699,2.731-5.448c2.263-0.755,4.699,0.472,5.448,2.731
	c0.309,0.926,7.477,22.819,3.094,36.8C341.547,217.979,339.847,219.16,338.013,219.16z"/>
<path style="fill:#D35933;" d="M368.295,200.98c-12.074,0-22.652,6.404-28.525,16.001c-5.873-9.595-16.45-16.001-28.525-16.001
	c-18.458,0-33.42,14.962-33.42,33.416c0,18.456,8.328,78.648,33.42,77.972c6.515-0.176,12.595,0.162,17.736-2.069
	c7.021-3.046,15.046-2.655,22.113,0.284c5.025,2.091,10.911,1.95,17.201,1.783c25.543-0.676,33.42-59.518,33.42-77.972
	C401.715,215.942,386.751,200.98,368.295,200.98z"/>
<path style="fill:#B54324;" d="M368.295,200.98c-12.076,0-22.652,6.404-28.525,16.001c-0.097-0.157-0.205-0.307-0.303-0.462v91.696
	c3.951,0.012,7.921,0.829,11.628,2.372c5.025,2.091,10.911,1.95,17.201,1.783c25.543-0.676,33.42-59.516,33.42-77.972
	C401.715,215.942,386.751,200.98,368.295,200.98z"/>
<path style="fill:#6CAF5F;" d="M197.711,306.366c0,0-95.535-20.289-127.428,10.393s39.772,9.359,39.772,9.359
	s19.468,14.9,39.745,8.083S197.711,306.366,197.711,306.366z"/>
<path style="fill:#477F3C;" d="M200.649,303.094c0,0-72.919-31.718-103.352-12.424c-30.432,19.292,30.21,13.933,30.21,13.933
	s13.109,15.051,30.394,12.91C175.187,315.371,200.649,303.094,200.649,303.094z"/>
<path style="fill:#EAA22F;" d="M212.456,276.709l161.228,49.926l-167.145,3.586c-12.333,0.264-22.544-9.518-22.809-21.851
	l-0.212-9.849C183.193,283.283,197.892,272.201,212.456,276.709z"/>
<path style="fill:#E09112;" d="M183.632,303.795l0.098,4.577c0.265,12.333,10.476,22.114,22.809,21.851l167.145-3.586l-0.876-0.271
	L183.632,303.795z"/>
<path style="fill:#6CAF5F;" d="M212.552,256.236c0,0-76.822-60.306-118.972-46.814c-42.148,13.491,31.58,25.924,31.58,25.924
	s10.911,21.954,32.118,24.767C178.486,262.928,212.552,256.236,212.552,256.236z"/>
<path style="fill:#477F3C;" d="M216.629,254.593c0,0-51.484-60.6-87.304-56.689c-35.819,3.912,20.98,25.817,20.98,25.817
	s5.136,19.289,21.597,24.981S216.629,254.593,216.629,254.593z"/>
<path style="fill:#FEE187;" d="M238.48,236.87l122.739,115.855l-151.626-70.423c-11.186-5.196-16.044-18.477-10.849-29.663
	l4.149-8.935C209.315,229.878,227.395,226.406,238.48,236.87z"/>
<path style="fill:#FFC61B;" d="M200.342,249.196l-1.598,3.443c-5.196,11.186-0.34,24.467,10.849,29.663l151.626,70.423l-0.081-0.076
	L200.342,249.196z"/>
<g>
</g>
<g>
</g>
<g>
</g>
<g>
</g>
<g>
</g>
<g>
</g>
<g>
</g>
<g>
</g>
<g>
</g>
<g>
</g>
<g>
</g>
<g>
</g>
<g>
</g>
<g>
</g>
<g>
</g>
</svg>
