<?xml version="1.0" encoding="iso-8859-1"?>
<!-- Generator: Adobe Illustrator 19.0.0, SVG Export Plug-In . SVG Version: 6.00 Build 0)  -->
<svg version="1.1" id="Layer_1" xmlns="http://www.w3.org/2000/svg" xmlns:xlink="http://www.w3.org/1999/xlink" x="0px" y="0px"
	 viewBox="0 0 512 512" style="enable-background:new 0 0 512 512;" xml:space="preserve">
<circle style="fill:#FFEDB5;" cx="256" cy="256" r="256"/>
<g>
	<path style="fill:#FEE187;" d="M413.282,121.782l-3.853,5.758l101.116,101.116c-1.153-10.866-2.989-21.528-5.46-31.946
		l-79.598-79.6L413.282,121.782z"/>
	<path style="fill:#FEE187;" d="M267.335,511.736c115.193-5.02,210.618-86.159,237.244-194.372L383.212,195.998l-73.8,7.108
		l-78.438,78.438l0,0l-123.992,69.842L267.335,511.736z"/>
	<path style="fill:#FEE187;" d="M367.473,115.783l-8.626,10.809l27.138,27.138l-5.001,2.255l129.334,129.334
		c1.098-9.623,1.681-19.403,1.681-29.318c0-1.536-0.031-3.063-0.059-4.594L374.313,113.78L367.473,115.783z"/>
</g>
<g>
	<path style="fill:#38C6D9;" d="M423.334,127.235c-3.389,2.201-13.905,0.303-13.905,0.303s2.544-10.378,5.934-12.579
		c3.389-2.201,7.923-1.238,10.125,2.151C427.689,120.499,426.724,125.033,423.334,127.235z"/>
	<path style="fill:#38C6D9;" d="M394.89,155.679c-3.391,2.201-13.907,0.305-13.907,0.305s2.544-10.378,5.934-12.579
		c3.389-2.201,7.923-1.238,10.125,2.151S398.279,153.478,394.89,155.679z"/>
	<path style="fill:#38C6D9;" d="M373.31,124.552c-3.265,2.705-14.462,2.039-14.462,2.039s1.383-11.085,4.648-13.79
		s8.109-2.267,10.819,0.977C377.025,117.024,376.575,121.847,373.31,124.552z"/>
</g>
<path style="fill:#273B7A;" d="M322.193,208.212L188.7,338.037c-5.267,5.122-13.688,5.005-18.808-0.262l0,0
	c-5.122-5.267-5.004-13.686,0.262-18.808l133.492-129.826c5.267-5.122,13.686-5.005,18.808,0.262l0,0
	C327.577,194.67,327.459,203.09,322.193,208.212z"/>
<path style="fill:#121149;" d="M320.834,188.006L170.499,338.341c5.16,4.689,13.136,4.625,18.201-0.302l133.492-129.826
	c5.267-5.122,5.384-13.543,0.262-18.808C321.948,188.881,321.4,188.426,320.834,188.006z"/>
<path style="fill:#386895;" d="M339.278,303.492H153.067c-7.346,0-13.302-5.954-13.302-13.302l0,0
	c0-7.346,5.954-13.302,13.302-13.302H339.28c7.346,0,13.302,5.954,13.302,13.302l0,0
	C352.58,297.536,346.626,303.492,339.278,303.492z"/>
<g>
	<path style="fill:#273B7A;" d="M339.278,276.89h-92.903v26.602h92.903c7.346,0,13.302-5.956,13.302-13.302
		S346.626,276.89,339.278,276.89z"/>
	<path style="fill:#273B7A;" d="M355.402,330.093H136.945c-7.346,0-13.302-5.954-13.302-13.302l0,0
		c0-7.346,5.954-13.302,13.302-13.302h218.457c7.346,0,13.302,5.954,13.302,13.302l0,0
		C368.702,324.137,362.748,330.093,355.402,330.093z"/>
</g>
<path style="fill:#121149;" d="M355.402,303.492H246.375v26.602h109.027c7.346,0,13.302-5.954,13.302-13.302
	C368.702,309.446,362.748,303.492,355.402,303.492z"/>
<path style="fill:#386895;" d="M374.748,356.695h-257.15c-7.346,0-13.302-5.954-13.302-13.302l0,0
	c0-7.346,5.954-13.302,13.302-13.302h257.15c7.346,0,13.302,5.954,13.302,13.302l0,0
	C388.049,350.741,382.093,356.695,374.748,356.695z"/>
<path style="fill:#273B7A;" d="M374.748,330.093H246.375v26.602h128.372c7.346,0,13.302-5.954,13.302-13.302
	C388.049,336.046,382.093,330.093,374.748,330.093z"/>
<path style="fill:#EAA22F;" d="M309.379,181.115l-34.185,31.43l24.183,23.378l31.801-31.953c16.803,8.285,37.69,5.711,52.034-7.971
	l-63.417-66.482C305.452,143.196,301.896,163.94,309.379,181.115z"/>
<path style="fill:#E09112;" d="M285.924,222.917l13.453,13.005l31.803-31.953c16.803,8.285,37.69,5.711,52.034-7.971l-34.354-36.016
	L285.924,222.917z"/>
<g>
</g>
<g>
</g>
<g>
</g>
<g>
</g>
<g>
</g>
<g>
</g>
<g>
</g>
<g>
</g>
<g>
</g>
<g>
</g>
<g>
</g>
<g>
</g>
<g>
</g>
<g>
</g>
<g>
</g>
</svg>
