<?xml version="1.0" encoding="iso-8859-1"?>
<!-- Generator: Adobe Illustrator 19.0.0, SVG Export Plug-In . SVG Version: 6.00 Build 0)  -->
<svg version="1.1" id="Layer_1" xmlns="http://www.w3.org/2000/svg" xmlns:xlink="http://www.w3.org/1999/xlink" x="0px" y="0px"
	 viewBox="0 0 512 512" style="enable-background:new 0 0 512 512;" xml:space="preserve">
<path style="fill:#ED6350;" d="M507.513,208.162c-9.236-48.79-32.724-95.415-70.486-133.177c-99.976-99.976-262.07-99.976-362.045,0
	s-99.976,262.07,0,362.045c33.655,33.655,74.35,55.961,117.344,66.959L507.513,208.162z"/>
<path style="fill:#E64A55;" d="M437.028,437.03c62.215-62.215,85.703-148.483,70.486-228.868l-74.002-74.002l-177.505-22.847
	L133.57,445.233l58.756,58.756C277.052,525.659,370.706,503.352,437.028,437.03z"/>
<polygon style="fill:#414D53;" points="378.443,378.448 233.745,356.186 256.006,445.232 378.443,445.232 "/>
<polygon style="fill:#57676E;" points="133.569,378.448 133.569,445.232 256.006,445.232 256.006,356.186 "/>
<path style="fill:#414D53;" d="M378.443,144.705c24.589,0,44.522,19.933,44.522,44.523v53.427c0,24.59-19.934,44.523-44.522,44.523
	h-53.43v33.392h53.43c42.962,0,77.914-34.952,77.914-77.914v-53.427c0-42.962-34.952-77.914-77.914-77.914h-53.43v33.392H378.443
	L378.443,144.705z"/>
<g>
	<polygon style="fill:#A2B1B7;" points="378.443,111.313 233.745,89.051 256.006,378.448 378.443,378.448 	"/>
	<path style="fill:#A2B1B7;" d="M89.047,111.313v55.653c0,24.487,20.035,44.523,44.523,44.523h33.392V111.313
		C166.961,111.313,89.047,111.313,89.047,111.313z"/>
</g>
<polygon style="fill:#C4D3D9;" points="133.569,111.313 133.569,378.448 256.006,378.448 256.006,89.051 "/>
<polygon style="fill:#FAC656;" points="289.398,400.709 256.006,400.709 244.875,411.84 256.006,422.97 289.398,422.97 "/>
<rect x="222.613" y="400.703" style="fill:#FEEB5C;" width="33.392" height="22.261"/>
<polygon style="fill:#D1F1FF;" points="256.006,133.574 244.875,278.272 289.398,256.011 289.398,133.574 "/>
<polygon style="fill:#FFFFFF;" points="256.006,133.574 222.614,133.574 222.614,256.011 256.006,278.272 "/>
<polygon style="fill:#74C8EE;" points="256.006,356.186 289.398,356.186 289.398,256.011 256.006,256.011 244.875,306.099 "/>
<rect x="222.613" y="256.005" style="fill:#AEE6FF;" width="33.392" height="100.176"/>
<path style="fill:#414D53;" d="M311.659,44.529h-55.653l-46.749,33.392l46.749,33.392h122.437
	C378.443,74.429,348.543,44.529,311.659,44.529z"/>
<path style="fill:#57676E;" d="M200.353,44.529c-36.884,0-66.784,29.899-66.784,66.784h122.437V44.529
	C256.006,44.529,200.353,44.529,200.353,44.529z"/>
<g>
</g>
<g>
</g>
<g>
</g>
<g>
</g>
<g>
</g>
<g>
</g>
<g>
</g>
<g>
</g>
<g>
</g>
<g>
</g>
<g>
</g>
<g>
</g>
<g>
</g>
<g>
</g>
<g>
</g>
</svg>
