<?xml version="1.0" encoding="iso-8859-1"?>
<!-- Generator: Adobe Illustrator 19.0.0, SVG Export Plug-In . SVG Version: 6.00 Build 0)  -->
<svg version="1.1" id="Layer_1" xmlns="http://www.w3.org/2000/svg" xmlns:xlink="http://www.w3.org/1999/xlink" x="0px" y="0px"
	 viewBox="0 0 512 512" style="enable-background:new 0 0 512 512;" xml:space="preserve">
<path style="fill:#AEE6FF;" d="M256,0C114.615,0,0,114.615,0,256c0,134.091,103.093,244.102,234.342,255.096l276.881-275.189
	C500.975,103.914,390.623,0,256,0z"/>
<path style="fill:#74C8EE;" d="M512,256c0-6.764-0.297-13.458-0.814-20.089L329.54,54.265l-73.401,16.964l-8.91,96.829
	l-35.612-35.612L89.347,269.042l151.875,151.875l-48.521,48.521l41.642,41.642c7.141,0.599,14.36,0.92,21.656,0.92
	C397.384,512,512,397.384,512,256z"/>
<path style="fill:#008CCB;" d="M292.174,38.762c-29.151,0-52.87,23.719-52.87,52.87v97.391h33.391V91.631
	c0-10.741,8.737-19.478,19.478-19.478c10.741,0,19.478,8.737,19.478,19.478v12.989h33.391V91.631
	C345.043,62.481,321.325,38.762,292.174,38.762z"/>
<rect x="166.957" y="143.583" style="fill:#007BB2;" width="33.391" height="45.646"/>
<rect x="311.652" y="143.583" style="fill:#006998;" width="33.391" height="45.646"/>
<rect x="155.96" y="132.452" style="fill:#008CCB;" width="55.652" height="22.261"/>
<rect x="300.655" y="132.452" style="fill:#007BB2;" width="55.652" height="22.261"/>
<polygon style="fill:#FFF296;" points="330.917,310.528 319.299,469.437 256,469.437 222.609,277.137 "/>
<g>
	<polygon style="fill:#FFF9CF;" points="256,288.267 256,469.437 192.701,469.437 181.426,310.528 	"/>
	<path style="fill:#FFF9CF;" d="M256,176.963l-33.391,66.783L256,310.528h74.917c67,0,121.322-54.322,121.322-121.322v-12.243
		L256,176.963L256,176.963z"/>
</g>
<path style="fill:#FFFFFF;" d="M59.762,176.963v12.243c0,67,54.322,121.322,121.322,121.322H256V176.963L59.762,176.963
	L59.762,176.963z"/>
<g>
</g>
<g>
</g>
<g>
</g>
<g>
</g>
<g>
</g>
<g>
</g>
<g>
</g>
<g>
</g>
<g>
</g>
<g>
</g>
<g>
</g>
<g>
</g>
<g>
</g>
<g>
</g>
<g>
</g>
</svg>
