<?xml version="1.0" encoding="iso-8859-1"?>
<!-- Generator: Adobe Illustrator 19.0.0, SVG Export Plug-In . SVG Version: 6.00 Build 0)  -->
<svg version="1.1" id="Layer_1" xmlns="http://www.w3.org/2000/svg" xmlns:xlink="http://www.w3.org/1999/xlink" x="0px" y="0px"
	 viewBox="0 0 512 512" style="enable-background:new 0 0 512 512;" xml:space="preserve">
<path style="fill:#AEE6FF;" d="M512,256C512,114.615,397.384,0,256,0C114.615,0,0,114.616,0,256
	c0,118.416,80.4,218.054,189.589,247.302l321.089-221.127C511.553,273.568,512,264.836,512,256z"/>
<path style="fill:#74C8EE;" d="M189.595,503.284C210.775,508.957,233.03,512,256,512c132.333,0,241.208-100.412,254.606-229.2
	l-34.591-34.591l-36.087,36.087L236.837,81.205l-70.684-9.773l-57.517,57.517L85.059,398.748L189.595,503.284z"/>
<path style="fill:#008CCB;" d="M177.809,56.755c-46.103,0-83.478,37.375-83.478,83.478V296.06h33.391V140.233
	c0-27.618,22.469-50.087,50.087-50.087s50.087,22.469,50.087,50.087l16.696,11.13l16.696-11.13
	C261.287,94.129,223.912,56.755,177.809,56.755z"/>
<rect x="160.968" y="225.948" style="fill:#006998;" width="33.391" height="34.504"/>
<path style="fill:#FFF9CF;" d="M476.015,248.209v30.052c0,73.761-59.804,133.565-133.565,133.565h-68.452L239.026,281.6
	l155.826-33.391H476.015z"/>
<path style="fill:#FFFFFF;" d="M273.998,279.096v132.73H116.502c-24.487,0-44.522-20.035-44.522-44.522V248.209h144.785
	L273.998,279.096z"/>
<polygon style="fill:#006998;" points="294.678,173.624 294.678,195.885 244.591,195.885 233.461,162.493 "/>
<g>
	<path style="fill:#007BB2;" d="M294.678,173.624h-50.087l-11.13-16.696l11.13-16.696h16.696
		C279.652,140.232,294.678,155.258,294.678,173.624z"/>
	<polygon style="fill:#007BB2;" points="244.591,162.493 244.591,195.885 194.504,195.885 194.504,173.624 	"/>
</g>
<path style="fill:#008CCB;" d="M194.504,173.624c0-18.365,15.026-33.391,33.391-33.391h16.696v33.391H194.504z"/>
<polygon style="fill:#FEEB5C;" points="394.852,248.209 394.852,348.383 305.809,348.383 283.548,298.296 305.809,248.209 
	350.33,248.209 361.461,259.339 372.591,248.209 "/>
<polygon style="fill:#FFF296;" points="305.809,248.209 305.809,348.383 216.765,348.383 216.765,248.209 239.026,248.209 
	250.157,259.339 261.287,248.209 "/>
<polygon style="fill:#FFF9CF;" points="350.33,248.209 350.33,303.861 305.809,303.861 294.678,314.991 305.809,326.122 
	372.591,326.122 372.591,248.209 "/>
<polygon style="fill:#FFFFFF;" points="261.287,303.861 261.287,248.209 239.026,248.209 239.026,326.122 305.809,326.122 
	305.809,303.861 "/>
<g>
</g>
<g>
</g>
<g>
</g>
<g>
</g>
<g>
</g>
<g>
</g>
<g>
</g>
<g>
</g>
<g>
</g>
<g>
</g>
<g>
</g>
<g>
</g>
<g>
</g>
<g>
</g>
<g>
</g>
</svg>
