<?xml version="1.0" encoding="iso-8859-1"?>
<!-- Generator: Adobe Illustrator 19.0.0, SVG Export Plug-In . SVG Version: 6.00 Build 0)  -->
<svg version="1.1" id="Layer_1" xmlns="http://www.w3.org/2000/svg" xmlns:xlink="http://www.w3.org/1999/xlink" x="0px" y="0px"
	 viewBox="0 0 512 512" style="enable-background:new 0 0 512 512;" xml:space="preserve">
<path style="fill:#FBC09B;" d="M256,0C114.615,0,0,114.616,0,256c0,119.211,81.483,219.391,191.793,247.881l313.794-305.079
	C479.604,84.953,377.722,0,256,0z"/>
<path style="fill:#F79E73;" d="M124.828,436.913l66.965,66.965C212.312,509.178,233.826,512,256,512c141.384,0,256-114.615,256-256
	c0-19.664-2.224-38.807-6.421-57.199L380.306,73.781L124.828,436.913z"/>
<path style="fill:#FFF9CF;" d="M452.658,213.721c6.329-9.797,8.352-22.251,4.466-34.201c-3.877-11.95-12.839-20.837-23.718-25.046
	c2.987-11.275,1.071-23.739-6.318-33.911c-7.388-10.162-18.652-15.848-30.293-16.49c-0.642-11.639-6.329-22.904-16.49-30.293
	c-10.172-7.388-22.636-9.305-33.911-6.318c-4.208-10.879-13.096-19.841-25.046-23.718c-11.95-3.887-24.403-1.863-34.2,4.466
	c-7.366-9.038-18.578-14.82-31.149-14.82l-42.831,235.945l254.309-21.415v-3.052C467.478,232.299,461.696,221.087,452.658,213.721z"
	/>
<path style="fill:#FFFFFF;" d="M224.851,48.21c-9.798-6.329-22.251-8.352-34.201-4.466c-11.95,3.877-20.837,12.839-25.046,23.718
	c-11.275-2.987-23.739-1.071-33.911,6.318c-10.162,7.388-15.848,18.653-16.49,30.293c-11.639,0.642-22.904,6.329-30.293,16.49
	c-7.388,10.172-9.305,22.636-6.318,33.911c-10.879,4.208-19.841,13.096-23.718,25.046c-3.887,11.95-1.863,24.403,4.466,34.2
	c-9.038,7.367-14.82,18.579-14.82,31.15v3.052L256,269.336V33.391C243.429,33.391,232.218,39.174,224.851,48.21z"/>
<polygon style="fill:#E64A55;" points="241.525,359.789 256,436.913 387.172,436.913 387.172,414.878 "/>
<g>
	<polygon style="fill:#ED6350;" points="256,359.789 256,436.913 124.828,436.913 124.828,414.878 	"/>
	<path style="fill:#ED6350;" d="M256,247.922L200.348,331.4L256,414.878h131.172c54.984-35.199,91.437-96.82,91.437-166.957H256z"/>
</g>
<path style="fill:#F37C4A;" d="M256,247.922v166.957H124.828c-54.984-35.199-91.437-96.82-91.437-166.957H256z"/>
<g>
	<rect x="352.278" y="115.2" style="fill:#FFFFFF;" width="22.261" height="22.261"/>
	<rect x="374.539" y="159.722" style="fill:#FFFFFF;" width="22.261" height="22.261"/>
</g>
<g>
	<rect x="115.2" y="170.006" style="fill:#FFF9CF;" width="22.261" height="22.261"/>
	<rect x="181.983" y="103.224" style="fill:#FFF9CF;" width="22.261" height="22.261"/>
	<rect x="148.591" y="203.398" style="fill:#FFF9CF;" width="22.261" height="22.261"/>
</g>
<g>
</g>
<g>
</g>
<g>
</g>
<g>
</g>
<g>
</g>
<g>
</g>
<g>
</g>
<g>
</g>
<g>
</g>
<g>
</g>
<g>
</g>
<g>
</g>
<g>
</g>
<g>
</g>
<g>
</g>
</svg>
