<?xml version="1.0" encoding="iso-8859-1"?>
<!-- Generator: Adobe Illustrator 19.0.0, SVG Export Plug-In . SVG Version: 6.00 Build 0)  -->
<svg version="1.1" id="Layer_1" xmlns="http://www.w3.org/2000/svg" xmlns:xlink="http://www.w3.org/1999/xlink" x="0px" y="0px"
	 viewBox="0 0 512 512" style="enable-background:new 0 0 512 512;" xml:space="preserve">
<path style="fill:#748993;" d="M256,0C114.615,0,0,114.616,0,256s114.615,256,256,256c13.862,0,27.465-1.102,40.73-3.222
	l211.418-297.267C487.089,91.333,382.21,0,256,0z"/>
<path style="fill:#414D53;" d="M296.727,508.762C418.754,489.252,512,383.522,512,256c0-15.175-1.329-30.038-3.861-44.487
	L348.383,51.757l-9.739,34.783l-34.783-34.783L281.6,164.174l33.391,33.391L41.183,253.217L296.727,508.762z"/>
<polygon style="fill:#D3754F;" points="41.183,219.826 171.409,242.087 160.278,186.435 41.183,186.435 "/>
<polygon style="fill:#A65A3A;" points="160.278,253.217 41.183,253.217 41.183,219.826 171.409,219.826 "/>
<polygon style="fill:#D1F1FF;" points="215.93,253.217 160.278,253.217 160.278,186.435 182.539,186.435 "/>
<path style="fill:#3AAADC;" d="M447.443,186.435v174.748c0,24.487-20.035,44.522-44.522,44.522h-87.93L281.6,296.07l33.391-109.635
	H447.443z"/>
<path style="fill:#74C8EE;" d="M314.991,186.435v219.27h-87.93c-24.487,0-44.522-20.035-44.522-44.522V186.435H314.991z"/>
<rect x="326.122" y="51.757" style="fill:#FBC09B;" width="22.261" height="112.417"/>
<rect x="281.6" y="51.757" style="fill:#FFE2C4;" width="22.261" height="112.417"/>
<g>
</g>
<g>
</g>
<g>
</g>
<g>
</g>
<g>
</g>
<g>
</g>
<g>
</g>
<g>
</g>
<g>
</g>
<g>
</g>
<g>
</g>
<g>
</g>
<g>
</g>
<g>
</g>
<g>
</g>
</svg>
