<?xml version="1.0" encoding="iso-8859-1"?>
<!-- Generator: Adobe Illustrator 19.0.0, SVG Export Plug-In . SVG Version: 6.00 Build 0)  -->
<svg version="1.1" id="Layer_1" xmlns="http://www.w3.org/2000/svg" xmlns:xlink="http://www.w3.org/1999/xlink" x="0px" y="0px"
	 viewBox="0 0 512 512" style="enable-background:new 0 0 512 512;" xml:space="preserve">
<path style="fill:#C4D3D9;" d="M256,0C114.615,0,0,114.616,0,256c0,122.469,85.998,224.853,200.901,250.055L506.578,203.34
	C482.298,87.218,379.334,0,256,0z"/>
<path style="fill:#A2B1B7;" d="M426.776,150.84L317.222,41.285L115.546,176.174l151.402,151.402L144.696,449.828l56.209,56.209
	C218.653,509.93,237.083,512,256,512c141.384,0,256-114.616,256-256c0-18.051-1.879-35.661-5.433-52.657l-66.147-66.147
	L426.776,150.84z"/>
<g>
	<path style="fill:#FFFFFF;" d="M396.969,313.981H336.79v-33.391h60.179c15.343,0,27.826-12.483,27.826-27.826v-72.348
		c0-15.343-12.275-27.826-27.362-27.826h-44.059v-33.391h44.059c33.5,0,60.753,27.462,60.753,61.217v72.348
		C458.187,286.519,430.724,313.981,396.969,313.981z"/>
	<path style="fill:#FFFFFF;" d="M139.13,185.981c-18.459-0.1-33.391-15.009-33.391-33.391v-33.391h75.093v66.783H139.13z"/>
</g>
<polygon style="fill:#ED6350;" points="256,41.285 234.151,96.937 317.222,96.937 317.222,41.285 "/>
<g>
	<rect x="194.783" y="41.283" style="fill:#F37C4A;" width="61.217" height="55.652"/>
	<path style="fill:#F37C4A;" d="M317.222,63.546H256l-21.904,90.159l138.773-34.507C372.87,88.462,347.961,63.546,317.222,63.546z"
		/>
</g>
<path style="fill:#F79E73;" d="M256,63.546h-61.222c-30.738,0-55.648,24.917-55.648,55.652l117.227,34.507L256,63.546z"/>
<polygon style="fill:#FBC09B;" points="256,119.198 234.096,217.444 372.87,185.981 372.87,119.198 "/>
<polygon style="fill:#FFE2C4;" points="256,119.198 139.13,119.198 139.13,185.981 256.357,217.444 "/>
<polygon style="fill:#FFF296;" points="372.87,185.981 352.545,367.462 222.609,389.723 256,185.981 "/>
<polygon style="fill:#FFFFFF;" points="256,185.981 139.13,185.981 159.455,367.462 256,389.723 "/>
<polygon style="fill:#A2B1B7;" points="222.6,304.927 222.553,267.275 200.292,267.303 200.357,318.693 256,346.516 256,321.627 "/>
<g>
	<rect x="245.126" y="267.286" style="fill:#748993;" width="22.261" height="115.79"/>
	<polygon style="fill:#748993;" points="289.391,267.288 289.391,304.932 256,321.627 256,346.516 311.652,318.69 311.652,267.288 	
		"/>
</g>
<polygon style="fill:#313A3E;" points="352.545,367.462 256,367.462 222.609,408.487 256,449.828 367.304,449.828 "/>
<polygon style="fill:#414D53;" points="159.455,367.462 144.696,449.828 256,449.828 256,367.462 "/>
<circle style="fill:#ED6350;" cx="256" cy="408.643" r="16.696"/>
<g>
</g>
<g>
</g>
<g>
</g>
<g>
</g>
<g>
</g>
<g>
</g>
<g>
</g>
<g>
</g>
<g>
</g>
<g>
</g>
<g>
</g>
<g>
</g>
<g>
</g>
<g>
</g>
<g>
</g>
</svg>
