<?xml version="1.0" encoding="iso-8859-1"?>
<!-- Generator: Adobe Illustrator 19.0.0, SVG Export Plug-In . SVG Version: 6.00 Build 0)  -->
<svg version="1.1" id="Layer_1" xmlns="http://www.w3.org/2000/svg" xmlns:xlink="http://www.w3.org/1999/xlink" x="0px" y="0px"
	 viewBox="0 0 512 512" style="enable-background:new 0 0 512 512;" xml:space="preserve">
<path style="fill:#748993;" d="M256,0C114.616,0,0,114.616,0,256c0,133.642,102.404,243.366,233.026,254.983l278.256-235.67
	C511.758,268.937,512,262.497,512,256C512,114.616,397.384,0,256,0z"/>
<path style="fill:#414D53;" d="M511.278,275.312L311.652,75.687l-11.316,33.205L267.13,75.687L256,142.47l-66.783-66.783
	l-44.522,141.357l16.859,222.445l71.474,71.474c7.569,0.673,15.228,1.037,22.972,1.037C390.887,512,501.405,407.676,511.278,275.312
	z"/>
<polygon style="fill:#A65A3A;" points="155.826,75.687 133.565,205.913 189.217,194.783 189.217,75.687 "/>
<polygon style="fill:#D3754F;" points="122.435,194.783 122.435,75.687 155.826,75.687 155.826,205.913 "/>
<polygon style="fill:#74C8EE;" points="122.435,217.043 122.435,345.043 166.957,378.435 166.957,205.913 "/>
<rect x="122.435" y="194.783" style="fill:#D1F1FF;" width="66.783" height="22.261"/>
<g>
	<rect x="244.87" y="75.687" style="fill:#C4D3D9;" width="22.261" height="180.313"/>
	<rect x="244.87" y="278.261" style="fill:#C4D3D9;" width="22.261" height="44.522"/>
	<rect x="289.391" y="75.687" style="fill:#C4D3D9;" width="22.261" height="247.096"/>
</g>
<path style="fill:#74C8EE;" d="M256,345.043l-33.391,63.443L256,478.609c73.768,0,133.565-59.797,133.565-133.565H256z"/>
<path style="fill:#AEE6FF;" d="M122.435,345.043c0,73.768,59.797,133.565,133.565,133.565V345.043H122.435z"/>
<g>
</g>
<g>
</g>
<g>
</g>
<g>
</g>
<g>
</g>
<g>
</g>
<g>
</g>
<g>
</g>
<g>
</g>
<g>
</g>
<g>
</g>
<g>
</g>
<g>
</g>
<g>
</g>
<g>
</g>
</svg>
