<?xml version="1.0" encoding="iso-8859-1"?>
<!-- Generator: Adobe Illustrator 19.0.0, SVG Export Plug-In . SVG Version: 6.00 Build 0)  -->
<svg version="1.1" id="Layer_1" xmlns="http://www.w3.org/2000/svg" xmlns:xlink="http://www.w3.org/1999/xlink" x="0px" y="0px"
	 viewBox="0 0 512 512" style="enable-background:new 0 0 512 512;" xml:space="preserve">
<path style="fill:#748993;" d="M256,0C114.615,0,0,114.616,0,256s114.615,256,256,256c13.862,0,27.465-1.102,40.73-3.222
	l214.655-270.662C502.204,105.075,391.373,0,256,0z"/>
<path style="fill:#414D53;" d="M41.183,249.89l255.545,255.545C418.754,485.925,512,380.196,512,252.673
	c0-6.014-0.224-11.974-0.631-17.883L370.643,94.064L242.799,186.72L41.183,249.89z"/>
<polygon style="fill:#A65A3A;" points="314.991,119.652 292.73,249.878 348.383,238.748 348.383,119.652 "/>
<polygon style="fill:#D3754F;" points="281.6,238.748 281.6,119.652 314.991,119.652 314.991,249.878 "/>
<path style="fill:#74C8EE;" d="M393.76,141.913h-78.769L281.6,249.878l165.843-63.443
	C441.322,161.948,419.001,141.913,393.76,141.913z"/>
<path style="fill:#AEE6FF;" d="M236.222,141.913h78.769v107.965l-132.452-63.443C188.661,161.948,210.982,141.913,236.222,141.913z"
	/>
<polygon style="fill:#D3754F;" points="41.183,219.826 171.409,242.087 160.278,186.435 41.183,186.435 "/>
<polygon style="fill:#A65A3A;" points="160.278,253.217 41.183,253.217 41.183,219.826 171.409,219.826 "/>
<polygon style="fill:#D1F1FF;" points="215.93,253.217 160.278,253.217 160.278,186.435 182.539,186.435 "/>
<path style="fill:#3AAADC;" d="M447.443,186.435v174.748c0,24.487-20.035,44.522-44.522,44.522h-87.93L281.6,296.07l33.391-109.635
	H447.443z"/>
<path style="fill:#74C8EE;" d="M314.991,186.435v219.27h-87.93c-24.487,0-44.522-20.035-44.522-44.522V186.435H314.991z"/>
<polygon style="fill:#7A3E25;" points="314.991,97.391 305.996,108.522 314.991,119.652 370.643,119.652 370.643,97.391 "/>
<rect x="259.339" y="97.391" style="fill:#A65A3A;" width="55.652" height="22.261"/>
<g>
</g>
<g>
</g>
<g>
</g>
<g>
</g>
<g>
</g>
<g>
</g>
<g>
</g>
<g>
</g>
<g>
</g>
<g>
</g>
<g>
</g>
<g>
</g>
<g>
</g>
<g>
</g>
<g>
</g>
</svg>
