<?xml version="1.0" encoding="iso-8859-1"?>
<!-- Generator: Adobe Illustrator 19.0.0, SVG Export Plug-In . SVG Version: 6.00 Build 0)  -->
<svg version="1.1" id="Layer_1" xmlns="http://www.w3.org/2000/svg" xmlns:xlink="http://www.w3.org/1999/xlink" x="0px" y="0px"
	 viewBox="0 0 512 512" style="enable-background:new 0 0 512 512;" xml:space="preserve">
<path style="fill:#74C8EE;" d="M504.026,192.375C475.738,81.771,375.42,0,256,0C114.616,0,0,114.616,0,256
	c0,119.42,81.771,219.738,192.374,248.026L504.026,192.375z"/>
<path style="fill:#3AAADC;" d="M512,256c0-21.965-2.77-43.282-7.974-63.625L395.13,83.478L116.87,428.522l75.504,75.504
	C212.718,509.23,234.035,512,256,512C397.384,512,512,397.384,512,256z"/>
<polygon style="fill:#A2B1B7;" points="116.87,105.739 116.87,150.261 239.304,172.522 239.304,94.609 "/>
<polygon style="fill:#C4D3D9;" points="217.043,83.478 116.87,83.478 116.87,105.739 239.304,105.739 "/>
<polygon style="fill:#57676E;" points="395.13,83.478 256,83.478 244.87,172.522 395.13,150.261 "/>
<rect x="217.043" y="83.478" style="fill:#748993;" width="38.957" height="89.043"/>
<polygon style="fill:#C4D3D9;" points="256,150.261 211.478,289.391 256,428.522 350.609,428.522 395.13,384 395.13,150.261 "/>
<rect x="350.609" y="384" style="fill:#A2B1B7;" width="44.522" height="44.522"/>
<g>
	<rect x="350.609" y="105.739" style="fill:#313A3E;" width="22.261" height="22.261"/>
	<rect x="306.087" y="105.739" style="fill:#313A3E;" width="22.261" height="22.261"/>
</g>
<rect x="116.87" y="150.261" style="fill:#FFFFFF;" width="139.13" height="278.261"/>
<path style="fill:#57676E;" d="M350.466,239.304c-13.753-38.905-50.85-66.783-94.466-66.783l-33.391,100.174L256,372.87
	c43.616,0,80.713-27.877,94.466-66.783l-14.379-33.391L350.466,239.304z"/>
<path style="fill:#748993;" d="M155.826,272.696c0,55.325,44.849,100.174,100.174,100.174V172.522
	C200.675,172.522,155.826,217.371,155.826,272.696z"/>
<path style="fill:#AEE6FF;" d="M256,205.913l-22.261,66.783L256,339.478c36.883,0,66.783-29.9,66.783-66.783
	S292.883,205.913,256,205.913z"/>
<path style="fill:#FFFFFF;" d="M189.217,272.696c0,36.883,29.9,66.783,66.783,66.783V205.913
	C219.117,205.913,189.217,235.813,189.217,272.696z"/>
<path style="fill:#748993;" d="M350.466,239.304h-36.64v66.783h36.64c3.692-10.445,5.708-21.681,5.708-33.391
	S354.158,249.749,350.466,239.304z"/>
<g>
</g>
<g>
</g>
<g>
</g>
<g>
</g>
<g>
</g>
<g>
</g>
<g>
</g>
<g>
</g>
<g>
</g>
<g>
</g>
<g>
</g>
<g>
</g>
<g>
</g>
<g>
</g>
<g>
</g>
</svg>
