<?xml version="1.0" encoding="iso-8859-1"?>
<!-- Generator: Adobe Illustrator 19.0.0, SVG Export Plug-In . SVG Version: 6.00 Build 0)  -->
<svg version="1.1" id="Layer_1" xmlns="http://www.w3.org/2000/svg" xmlns:xlink="http://www.w3.org/1999/xlink" x="0px" y="0px"
	 viewBox="0 0 512 512" style="enable-background:new 0 0 512 512;" xml:space="preserve">
<path style="fill:#FBC09B;" d="M256,0.001c-141.385,0-256,114.616-256,256c0,136.48,106.8,248.015,241.386,255.589l270.048-272.761
	C502.599,105.451,391.614,0.001,256,0.001z"/>
<path style="fill:#F79E73;" d="M512,256.001c0-5.772-0.21-11.493-0.587-17.17l-32.805-32.805L124.828,395.017l116.558,116.558
	c4.838,0.273,9.708,0.424,14.614,0.424C397.384,512.001,512,397.385,512,256.001z"/>
<polygon style="fill:#E64A55;" points="241.525,317.894 256,395.019 387.172,395.019 387.172,372.983 "/>
<g>
	<polygon style="fill:#ED6350;" points="256,317.894 256,395.019 124.828,395.019 124.828,372.983 	"/>
	<path style="fill:#ED6350;" d="M256,206.026l-55.652,83.478L256,372.983h131.172c54.984-35.199,91.437-96.82,91.437-166.956
		L256,206.026L256,206.026z"/>
</g>
<path style="fill:#F37C4A;" d="M256,206.026v166.957H124.828c-54.984-35.199-91.437-96.82-91.437-166.956L256,206.026L256,206.026z"
	/>
<g>
	<rect x="244.87" y="116.981" style="fill:#FFFFFF;" width="22.261" height="44.522"/>
	
		<rect x="186.515" y="147.668" transform="matrix(-0.7071 -0.7071 0.7071 -0.7071 244.1148 418.712)" style="fill:#FFFFFF;" width="44.521" height="22.261"/>
	
		<rect x="292.1" y="136.535" transform="matrix(-0.7071 -0.7071 0.7071 -0.7071 405.3609 485.4966)" style="fill:#FFFFFF;" width="22.261" height="44.521"/>
</g>
<g>
</g>
<g>
</g>
<g>
</g>
<g>
</g>
<g>
</g>
<g>
</g>
<g>
</g>
<g>
</g>
<g>
</g>
<g>
</g>
<g>
</g>
<g>
</g>
<g>
</g>
<g>
</g>
<g>
</g>
</svg>
