<?xml version="1.0" encoding="iso-8859-1"?>
<!-- Generator: Adobe Illustrator 19.0.0, SVG Export Plug-In . SVG Version: 6.00 Build 0)  -->
<svg version="1.1" id="Layer_1" xmlns="http://www.w3.org/2000/svg" xmlns:xlink="http://www.w3.org/1999/xlink" x="0px" y="0px"
	 viewBox="0 0 512 512" style="enable-background:new 0 0 512 512;" xml:space="preserve">
<path style="fill:#F37C4A;" d="M511.417,238.882C502.608,105.481,391.631,0,256,0C114.616,0,0,114.616,0,256
	c0,119.42,81.771,219.737,192.374,248.026L511.417,238.882z"/>
<path style="fill:#ED6350;" d="M512,256c0-5.753-0.209-11.458-0.583-17.117l-141.41-141.41l-8.267,8.267l-72.348-72.348
	l-33.39,17.979v180.97L122.435,434.087l69.939,69.939C212.717,509.23,234.035,512,256,512C397.384,512,512,397.384,512,256z"/>
<polygon style="fill:#F37C4A;" points="256.001,166.957 77.913,211.478 271.285,404.851 "/>
<rect x="77.913" y="189.217" style="fill:#414D53;" width="66.783" height="22.261"/>
<rect x="367.304" y="189.217" style="fill:#394449;" width="66.783" height="22.261"/>
<polygon style="fill:#A2B1B7;" points="233.739,122.435 256,434.087 389.565,434.087 389.565,166.957 "/>
<polygon style="fill:#C4D3D9;" points="122.435,166.957 122.435,434.087 256,434.087 256,122.435 "/>
<g>
	<rect x="178.087" y="389.565" style="fill:#A2B1B7;" width="22.261" height="22.261"/>
	<rect x="144.696" y="356.174" style="fill:#A2B1B7;" width="22.261" height="22.261"/>
</g>
<rect x="244.87" y="44.522" style="fill:#394449;" width="22.261" height="66.783"/>
<path style="fill:#57676E;" d="M322.784,77.913h-66.783l-46.748,33.391l46.748,33.391h133.565
	C389.566,107.812,359.667,77.913,322.784,77.913z"/>
<path style="fill:#748993;" d="M189.219,77.913c-36.883,0-66.783,29.899-66.783,66.783h133.565V77.913H189.219z"/>
<rect x="122.435" y="144.696" style="fill:#57676E;" width="133.565" height="22.261"/>
<g>
	<rect x="256" y="144.696" style="fill:#414D53;" width="133.565" height="22.261"/>
	<rect x="222.609" y="33.391" style="fill:#414D53;" width="66.783" height="22.261"/>
</g>
<g>
</g>
<g>
</g>
<g>
</g>
<g>
</g>
<g>
</g>
<g>
</g>
<g>
</g>
<g>
</g>
<g>
</g>
<g>
</g>
<g>
</g>
<g>
</g>
<g>
</g>
<g>
</g>
<g>
</g>
</svg>
