<?xml version="1.0" encoding="iso-8859-1"?>
<!-- Generator: Adobe Illustrator 19.0.0, SVG Export Plug-In . SVG Version: 6.00 Build 0)  -->
<svg version="1.1" id="Layer_1" xmlns="http://www.w3.org/2000/svg" xmlns:xlink="http://www.w3.org/1999/xlink" x="0px" y="0px"
	 viewBox="0 0 512 512" style="enable-background:new 0 0 512 512;" xml:space="preserve">
<circle style="fill:#FFEDB5;" cx="256" cy="256" r="256"/>
<path style="fill:#FEE187;" d="M283.308,510.548c110.121-11.679,199.387-93.177,222.713-199.39L360.705,165.84l-8.642,16.955
	l-65.414-65.414l-57.201,151.138l-118.694,3.325l71.377,71.377l-31.816,34.328L283.308,510.548z"/>
<path style="fill:#59595B;" d="M194.731,217.943c-1.812,0-3.62-0.709-4.975-2.119L151.1,175.59c-2.638-2.748-2.55-7.111,0.195-9.75
	c2.748-2.639,7.115-2.55,9.75,0.195l38.655,40.234c2.638,2.748,2.55,7.111-0.195,9.75
	C198.17,217.305,196.448,217.943,194.731,217.943z"/>
<g>
	<path style="fill:#272525;" d="M317.271,217.943c-1.717,0-3.437-0.638-4.777-1.922c-2.746-2.639-2.834-7.004-0.195-9.75
		l38.655-40.234c2.636-2.746,7.001-2.836,9.75-0.195c2.746,2.639,2.834,7.004,0.195,9.75l-38.655,40.234
		C320.891,217.235,319.081,217.943,317.271,217.943z"/>
	<path style="fill:#272525;" d="M356.714,379.668c-1.717,0-3.439-0.638-4.777-1.922l-40.234-38.657
		c-2.746-2.639-2.834-7.004-0.195-9.75c2.636-2.744,7.004-2.836,9.75-0.195l40.234,38.657c2.746,2.639,2.834,7.004,0.195,9.75
		C360.336,378.959,358.526,379.668,356.714,379.668z"/>
</g>
<g>
	<path style="fill:#59595B;" d="M155.286,379.668c-1.812,0-3.62-0.709-4.975-2.119c-2.638-2.746-2.55-7.111,0.195-9.75
		l40.234-38.657c2.748-2.639,7.111-2.55,9.75,0.195c2.638,2.746,2.55,7.111-0.195,9.75l-40.234,38.657
		C158.725,379.03,157.003,379.668,155.286,379.668z"/>
	<path style="fill:#59595B;" d="M169.22,274.744h-52.857c-3.808,0-6.896-3.088-6.896-6.896s3.088-6.896,6.896-6.896h52.857
		c3.808,0,6.896,3.087,6.896,6.896S173.028,274.744,169.22,274.744z"/>
</g>
<path style="fill:#272525;" d="M395.636,274.744h-52.855c-3.808,0-6.896-3.088-6.896-6.896s3.088-6.896,6.896-6.896h52.855
	c3.808,0,6.896,3.087,6.896,6.896S399.444,274.744,395.636,274.744z"/>
<circle style="fill:#59595B;" cx="256" cy="151.359" r="45.756"/>
<path style="fill:#272525;" d="M256,105.598c25.271,0,45.756,20.485,45.756,45.756S281.271,197.11,256,197.11V105.598z"/>
<circle style="fill:#C92F00;" cx="256" cy="267.843" r="110.968"/>
<path style="fill:#930000;" d="M256,156.875c61.288,0,110.973,49.685,110.973,110.973S317.288,378.821,256,378.821V156.875z"/>
<g>
	<circle style="fill:#59595B;" cx="208.989" cy="204.731" r="10.256"/>
	<circle style="fill:#59595B;" cx="208.989" cy="333.334" r="10.256"/>
	<circle style="fill:#59595B;" cx="174.683" cy="267.843" r="10.256"/>
	<circle style="fill:#59595B;" cx="229.107" cy="267.843" r="10.256"/>
</g>
<g>
	<circle style="fill:#272525;" cx="303.011" cy="204.731" r="10.256"/>
	<circle style="fill:#272525;" cx="303.011" cy="333.334" r="10.256"/>
	<circle style="fill:#272525;" cx="337.317" cy="267.843" r="10.256"/>
	<circle style="fill:#272525;" cx="282.893" cy="267.843" r="10.256"/>
</g>
<g>
</g>
<g>
</g>
<g>
</g>
<g>
</g>
<g>
</g>
<g>
</g>
<g>
</g>
<g>
</g>
<g>
</g>
<g>
</g>
<g>
</g>
<g>
</g>
<g>
</g>
<g>
</g>
<g>
</g>
</svg>
