<?xml version="1.0" encoding="iso-8859-1"?>
<!-- Generator: Adobe Illustrator 19.0.0, SVG Export Plug-In . SVG Version: 6.00 Build 0)  -->
<svg version="1.1" id="Layer_1" xmlns="http://www.w3.org/2000/svg" xmlns:xlink="http://www.w3.org/1999/xlink" x="0px" y="0px"
	 viewBox="0 0 512 512" style="enable-background:new 0 0 512 512;" xml:space="preserve">
<path style="fill:#FFF296;" d="M256,0C114.616,0,0,114.616,0,256c0,117.771,79.526,216.967,187.806,246.817l315.011-315.011
	C472.967,79.526,373.77,0,256,0z"/>
<path style="fill:#FEEB5C;" d="M187.809,502.801C209.522,508.787,232.385,512,256,512c141.385,0,256-114.616,256-256
	c0-23.615-3.213-46.477-9.199-68.191l-82.07-82.07L69.009,384L187.809,502.801z"/>
<polygon style="fill:#748993;" points="256,105.739 222.609,350.609 420.73,350.609 420.73,105.739 "/>
<rect x="91.27" y="105.739" style="fill:#A2B1B7;" width="164.73" height="244.87"/>
<polygon style="fill:#414D53;" points="256,130.226 233.308,230.4 256,319.443 398.47,319.443 398.47,130.226 "/>
<rect x="113.53" y="130.226" style="fill:#57676E;" width="142.47" height="189.217"/>
<g>
	<rect x="135.791" y="152.487" style="fill:#748993;" width="22.261" height="100.174"/>
	<rect x="135.791" y="274.922" style="fill:#748993;" width="22.261" height="22.261"/>
</g>
<polygon style="fill:#A2B1B7;" points="300.522,339.478 240.909,361.739 256,384 442.991,384 442.991,339.478 "/>
<polygon style="fill:#C4D3D9;" points="211.478,339.478 69.009,339.478 69.009,384 256,384 256,361.739 "/>
<polygon style="fill:#414D53;" points="256,339.478 241.277,350.609 256,361.739 300.522,361.739 300.522,339.478 "/>
<rect x="211.478" y="339.478" style="fill:#57676E;" width="44.522" height="22.261"/>
<g>
</g>
<g>
</g>
<g>
</g>
<g>
</g>
<g>
</g>
<g>
</g>
<g>
</g>
<g>
</g>
<g>
</g>
<g>
</g>
<g>
</g>
<g>
</g>
<g>
</g>
<g>
</g>
<g>
</g>
</svg>
