<?xml version="1.0" encoding="iso-8859-1"?>
<!-- Generator: Adobe Illustrator 19.0.0, SVG Export Plug-In . SVG Version: 6.00 Build 0)  -->
<svg version="1.1" id="Layer_1" xmlns="http://www.w3.org/2000/svg" xmlns:xlink="http://www.w3.org/1999/xlink" x="0px" y="0px"
	 viewBox="0 0 512 512" style="enable-background:new 0 0 512 512;" xml:space="preserve">
<circle style="fill:#477F3C;" cx="256" cy="256" r="256"/>
<path style="fill:#2E5E24;" d="M347.776,495.039c62.362-23.959,112.966-71.609,140.795-131.939l-92.491-92.491l-8.585,19.346
	l-64.321-64.321l-39.286,59.873l-31.349,10.702l-72.39-72.389l-26.146-47.407l-15.946-38.645l-58.103,18.989L237.53,314.333
	l-31.915,38.545L347.776,495.039z"/>
<path style="fill:#FEE187;" d="M207.979,282.726c-3.184,0-6.244-1.77-7.742-4.82l-59.056-120.21
	c-2.558-5.208-8.295-7.932-13.946-6.628l-38.479,8.883c-4.637,1.058-9.268-1.82-10.338-6.459c-1.071-4.637,1.822-9.268,6.459-10.338
	l38.479-8.883c13.496-3.11,27.188,3.393,33.296,15.824l59.054,120.21c2.1,4.274,0.338,9.44-3.934,11.536
	C210.549,282.441,209.255,282.726,207.979,282.726z"/>
<path style="fill:#E09112;" d="M323.831,289.435h-80.429c-8.328,0-15.081-6.753-15.081-15.081v-46.72
	c0-8.328,6.753-15.081,15.081-15.081h46.425c27.108,0,49.085,21.976,49.085,49.085v12.716
	C338.911,282.683,332.159,289.435,323.831,289.435z"/>
<path style="fill:#FF5419;" d="M289.825,212.554h-5.668v76.881h39.672c8.328,0,15.081-6.753,15.081-15.081v-12.714
	C338.911,234.53,316.935,212.554,289.825,212.554z"/>
<path style="fill:#FFC61B;" d="M420.2,342.659h-198.77c-4.66,0-9.035-1.962-11.76-5.275l-33.909-41.212
	c-23.431-28.477,3.853-67.618,43.456-62.342l133.554,17.794c27.351,3.644,50.512,19.608,61,42.046l16.655,35.628
	C433.407,335.674,428.06,342.659,420.2,342.659z"/>
<path style="fill:#EAA22F;" d="M430.428,329.299l-16.655-35.628c-10.488-22.438-33.649-38.402-61-42.046l-68.615-9.142v100.176
	H420.2C428.06,342.659,433.407,335.674,430.428,329.299z"/>
<circle style="fill:#D35933;" cx="229.297" cy="332.283" r="31.391"/>
<circle style="fill:#B54324;" cx="389.637" cy="339.316" r="24.359"/>
<g>
</g>
<g>
</g>
<g>
</g>
<g>
</g>
<g>
</g>
<g>
</g>
<g>
</g>
<g>
</g>
<g>
</g>
<g>
</g>
<g>
</g>
<g>
</g>
<g>
</g>
<g>
</g>
<g>
</g>
</svg>
