<?xml version="1.0" encoding="iso-8859-1"?>
<!-- Generator: Adobe Illustrator 19.0.0, SVG Export Plug-In . SVG Version: 6.00 Build 0)  -->
<svg version="1.1" id="Layer_1" xmlns="http://www.w3.org/2000/svg" xmlns:xlink="http://www.w3.org/1999/xlink" x="0px" y="0px"
	 viewBox="0 0 512 512" style="enable-background:new 0 0 512 512;" xml:space="preserve">
<circle style="fill:#FFEDB5;" cx="256" cy="256" r="256"/>
<path style="fill:#FEE187;" d="M505.601,313.099L359.015,166.514l-126.236,126.05l-88.047,86.357l132.222,132.222
	C389.31,502.039,481.156,420.395,505.601,313.099z"/>
<path style="fill:#8BC180;" d="M152.657,382.204c-2.869,0-5.735-1.095-7.925-3.282c-4.375-4.375-4.375-11.469,0.002-15.846
	l104.512-104.51c4.374-4.375,11.469-4.374,15.846,0.002c4.375,4.375,4.375,11.469-0.002,15.846l-104.512,104.51
	C158.392,381.109,155.524,382.204,152.657,382.204z"/>
<path style="fill:#6CAF5F;" d="M265.092,258.565c4.375,4.375,4.375,11.469-0.002,15.846l-104.512,104.51
	c-2.188,2.188-5.056,3.281-7.923,3.281c-2.869,0-5.735-1.095-7.925-3.282L265.092,258.565z"/>
<path style="fill:#3B9B27;" d="M187.975,214.652c47.611-47.538,171.041-48.138,171.041-48.138s-0.783,123.428-48.393,170.967
	s-90.152,35.106-124.02,1.188S140.366,262.191,187.975,214.652z"/>
<path style="fill:#2E821A;" d="M359.015,166.514c0,0-0.783,123.428-48.393,170.967s-90.152,35.106-124.02,1.188L359.015,166.514z"/>
<g>
</g>
<g>
</g>
<g>
</g>
<g>
</g>
<g>
</g>
<g>
</g>
<g>
</g>
<g>
</g>
<g>
</g>
<g>
</g>
<g>
</g>
<g>
</g>
<g>
</g>
<g>
</g>
<g>
</g>
</svg>
