<?xml version="1.0" encoding="iso-8859-1"?>
<!-- Generator: Adobe Illustrator 19.0.0, SVG Export Plug-In . SVG Version: 6.00 Build 0)  -->
<svg version="1.1" id="Layer_1" xmlns="http://www.w3.org/2000/svg" xmlns:xlink="http://www.w3.org/1999/xlink" x="0px" y="0px"
	 viewBox="0 0 512 512" style="enable-background:new 0 0 512 512;" xml:space="preserve">
<path style="fill:#FFF9CF;" d="M256,0C114.615,0,0,114.615,0,256c0,122.528,86.081,224.951,201.066,250.092L508.81,215.476
	C489.387,93.348,383.595,0,256,0z"/>
<path style="fill:#FEEB5C;" d="M86.817,391.819l114.254,114.254C218.768,509.942,237.142,512,256,512c141.384,0,256-114.616,256-256
	c0-13.788-1.104-27.317-3.203-40.515l-50.503-50.503L139.199,265.863L86.817,391.819z"/>
<polygon style="fill:#E0315B;" points="430.933,153.572 430.933,263.818 222.184,263.818 256,153.572 "/>
<g>
	<rect x="80.328" y="153.567" style="fill:#EA5A7D;" width="175.672" height="110.247"/>
	<polygon style="fill:#EA5A7D;" points="430.933,240.946 430.933,323.311 222.184,323.311 256,240.946 	"/>
</g>
<rect x="80.328" y="240.417" style="fill:#F5849F;" width="175.672" height="82.365"/>
<polygon style="fill:#E0315B;" points="256,311.652 238.171,335.041 256,358.428 392.377,358.428 414.228,311.652 "/>
<polygon style="fill:#EA5A7D;" points="256,311.652 98.124,311.652 120.209,358.428 256,358.428 "/>
<polygon style="fill:#D3754F;" points="86.817,336.167 86.817,391.819 120.209,391.819 120.209,358.428 "/>
<path style="fill:#FFADC1;" d="M120.209,192.529c0-21.515-17.441-38.957-38.957-38.957s-38.957,17.441-38.957,38.957
	c0,15.538,9.101,28.944,22.261,35.197v130.702h55.652V192.584h-0.068L120.209,192.529z"/>
<circle style="fill:#F5849F;" cx="81.252" cy="192.523" r="16.696"/>
<polygon style="fill:#A65A3A;" points="425.183,336.167 425.183,391.819 391.791,391.819 391.791,358.428 "/>
<path style="fill:#F5849F;" d="M430.748,153.572c-21.515,0-38.957,17.441-38.957,38.957l0.068,0.056h-0.068v165.843h55.652V227.725
	c13.16-6.253,22.261-19.659,22.261-35.197C469.704,171.014,452.263,153.572,430.748,153.572z"/>
<circle style="fill:#EA5A7D;" cx="430.748" cy="192.523" r="16.696"/>
<g>
</g>
<g>
</g>
<g>
</g>
<g>
</g>
<g>
</g>
<g>
</g>
<g>
</g>
<g>
</g>
<g>
</g>
<g>
</g>
<g>
</g>
<g>
</g>
<g>
</g>
<g>
</g>
<g>
</g>
</svg>
