<?xml version="1.0" encoding="iso-8859-1"?>
<!-- Generator: Adobe Illustrator 19.0.0, SVG Export Plug-In . SVG Version: 6.00 Build 0)  -->
<svg version="1.1" id="Layer_1" xmlns="http://www.w3.org/2000/svg" xmlns:xlink="http://www.w3.org/1999/xlink" x="0px" y="0px"
	 viewBox="0 0 512 512" style="enable-background:new 0 0 512 512;" xml:space="preserve">
<path style="fill:#E0315B;" d="M256,0C114.616,0,0,114.616,0,256c0,119.682,82.135,220.173,193.11,248.206l315.693-288.69
	C489.394,93.371,383.607,0,256,0z"/>
<path style="fill:#A82544;" d="M512,256c0-13.777-1.102-27.296-3.198-40.484l-48.559-48.56l-352.835,44.522L74.017,385.113
	L193.11,504.205C213.232,509.289,234.299,512,256,512C397.384,512,512,397.384,512,256z"/>
<polygon style="fill:#ED6350;" points="426.852,200.348 233.739,200.348 256,244.87 426.852,244.87 "/>
<g>
	<rect x="85.148" y="200.348" style="fill:#F37C4A;" width="170.852" height="44.522"/>
	<rect x="404.591" y="200.348" style="fill:#F37C4A;" width="33.391" height="184.765"/>
</g>
<rect x="74.017" y="200.348" style="fill:#F79E73;" width="33.391" height="184.765"/>
<polygon style="fill:#FBC09B;" points="460.243,166.957 256,166.957 233.739,183.652 256,211.478 460.243,211.478 "/>
<rect x="51.757" y="166.957" style="fill:#FFE2C4;" width="204.243" height="44.522"/>
<g>
</g>
<g>
</g>
<g>
</g>
<g>
</g>
<g>
</g>
<g>
</g>
<g>
</g>
<g>
</g>
<g>
</g>
<g>
</g>
<g>
</g>
<g>
</g>
<g>
</g>
<g>
</g>
<g>
</g>
</svg>
