<?xml version="1.0" encoding="iso-8859-1"?>
<!-- Generator: Adobe Illustrator 19.0.0, SVG Export Plug-In . SVG Version: 6.00 Build 0)  -->
<svg version="1.1" id="Layer_1" xmlns="http://www.w3.org/2000/svg" xmlns:xlink="http://www.w3.org/1999/xlink" x="0px" y="0px"
	 viewBox="0 0 512 512" style="enable-background:new 0 0 512 512;" xml:space="preserve">
<path style="fill:#FEEB5C;" d="M511.571,270.68c0.275-4.86,0.429-9.751,0.429-14.68C512,114.616,397.385,0,256,0
	C114.616,0,0,114.616,0,256c0,118.321,80.279,217.876,189.335,247.214L511.571,270.68z"/>
<path style="fill:#FAC656;" d="M511.571,270.68l-69.456-69.456L115.757,362.852l-22.261,44.522l95.84,95.84
	C210.592,508.932,232.937,512,256,512C392.457,512,503.963,405.232,511.571,270.68z"/>
<path style="fill:#E0315B;" d="M418.504,191.443c0,0-24.376,0-54.168,0c-29.793,0-78.543-15.026-108.336-33.391l-22.261,215.93
	h184.765V191.443z"/>
<g>
	<path style="fill:#EA5A7D;" d="M147.664,124.661c-29.793,0-54.168,0-54.168,0v249.322H256v-215.93
		C226.208,139.687,177.457,124.661,147.664,124.661z"/>
	<path style="fill:#EA5A7D;" d="M385.113,291.617c0-18.441-14.949-33.391-33.391-33.391H256l-22.261,31.165L256,318.33h151.374
		L385.113,291.617z"/>
</g>
<path style="fill:#F5849F;" d="M160.278,258.226c-18.442,0-33.391,14.95-33.391,33.391l-22.261,26.713H256v-60.104H160.278z"/>
<rect x="396.243" y="362.852" style="fill:#D3754F;" width="22.261" height="44.522"/>
<rect x="93.496" y="362.852" style="fill:#F37C4A;" width="22.261" height="44.522"/>
<path style="fill:#FFADC1;" d="M126.887,158.052c0-18.441-14.949-33.391-33.391-33.391s-33.391,14.95-33.391,33.391
	c0,14.537,9.293,26.899,22.261,31.484v173.316l44.522,11.13C126.887,373.983,126.887,158.057,126.887,158.052z"/>
<path style="fill:#F5849F;" d="M451.896,224.835c0-18.441-14.949-33.391-33.391-33.391s-33.391,14.95-33.391,33.391v149.148
	l44.522-11.13V256.318C442.603,251.734,451.896,239.372,451.896,224.835z"/>
<circle style="fill:#EA5A7D;" cx="418.504" cy="224.835" r="11.13"/>
<polygon style="fill:#C42B50;" points="429.635,362.852 256,362.852 244.87,373.983 256,385.113 429.635,385.113 "/>
<rect x="82.365" y="362.852" style="fill:#E64A55;" width="173.635" height="22.261"/>
<circle style="fill:#F5849F;" cx="93.496" cy="158.052" r="11.13"/>
<g>
</g>
<g>
</g>
<g>
</g>
<g>
</g>
<g>
</g>
<g>
</g>
<g>
</g>
<g>
</g>
<g>
</g>
<g>
</g>
<g>
</g>
<g>
</g>
<g>
</g>
<g>
</g>
<g>
</g>
</svg>
