<?xml version="1.0" encoding="iso-8859-1"?>
<!-- Generator: Adobe Illustrator 19.0.0, SVG Export Plug-In . SVG Version: 6.00 Build 0)  -->
<svg version="1.1" id="Layer_1" xmlns="http://www.w3.org/2000/svg" xmlns:xlink="http://www.w3.org/1999/xlink" x="0px" y="0px"
	 viewBox="0 0 512 512" style="enable-background:new 0 0 512 512;" xml:space="preserve">
<path style="fill:#FAC656;" d="M511.477,272.173C511.811,266.823,512,261.434,512,256C512,114.616,397.385,0,256,0S0,114.616,0,256
	c0,131.827,99.647,240.363,227.724,254.438L511.477,272.173z"/>
<path style="fill:#F7A150;" d="M511.477,272.173L272.696,33.391l-16.691,238.191l-72.352,194.783l44.073,44.073
	C237.01,511.459,246.441,512,256,512C391.952,512,503.13,406.02,511.477,272.173z"/>
<polygon style="fill:#E64A55;" points="256,33.391 244.87,122.435 272.696,100.174 272.696,33.391 "/>
<polygon style="fill:#ED6350;" points="239.304,33.391 239.304,100.174 256,122.435 256,33.391 "/>
<polygon style="fill:#C4D3D9;" points="272.696,111.304 256,100.174 244.87,310.539 272.696,310.539 "/>
<polygon style="fill:#FFFFFF;" points="239.304,111.304 239.304,310.539 256,310.539 256,100.174 "/>
<polygon style="fill:#E64A55;" points="339.478,271.583 256,271.583 222.609,368.974 256,466.365 328.348,466.365 "/>
<polygon style="fill:#ED6350;" points="172.522,271.583 183.652,466.365 256,466.365 256,271.583 "/>
<path style="fill:#C4D3D9;" d="M338.783,282.713c0,45.647-37.136,82.783-82.783,82.783l-11.13,11.13l11.13,11.13
	c57.921,0,105.043-47.123,105.043-105.043H338.783z"/>
<path style="fill:#FFFFFF;" d="M173.217,282.713h-22.261c0,57.921,47.123,105.043,105.043,105.043v-22.261
	C210.353,365.496,173.217,328.36,173.217,282.713z"/>
<polygon style="fill:#C34346;" points="272.696,89.043 256.001,89.043 244.871,100.174 256.001,111.304 272.696,111.304 "/>
<rect x="239.304" y="89.043" style="fill:#E64A55;" width="16.696" height="22.261"/>
<g>
</g>
<g>
</g>
<g>
</g>
<g>
</g>
<g>
</g>
<g>
</g>
<g>
</g>
<g>
</g>
<g>
</g>
<g>
</g>
<g>
</g>
<g>
</g>
<g>
</g>
<g>
</g>
<g>
</g>
</svg>
