<?xml version="1.0" encoding="iso-8859-1"?>
<!-- Generator: Adobe Illustrator 19.0.0, SVG Export Plug-In . SVG Version: 6.00 Build 0)  -->
<svg version="1.1" id="Layer_1" xmlns="http://www.w3.org/2000/svg" xmlns:xlink="http://www.w3.org/1999/xlink" x="0px" y="0px"
	 viewBox="0 0 512 512" style="enable-background:new 0 0 512 512;" xml:space="preserve">
<path style="fill:#008CCB;" d="M505.028,196.476C478.194,83.8,376.89,0,256,0C114.616,0,0,114.616,0,256
	c0,120.889,83.8,222.192,196.476,249.027L505.028,196.476z"/>
<path style="fill:#006998;" d="M120.6,429.153l75.875,75.875C215.578,509.577,235.504,512,256,512c141.384,0,256-114.616,256-256
	c0-20.496-2.423-40.422-6.973-59.524L391.4,82.847L120.6,429.153z"/>
<path style="fill:#A2B1B7;" d="M233.739,126.887L256,474.156c85.923,0,155.826-39.945,155.826-89.043V126.887H233.739z"/>
<g>
	<path style="fill:#C42B50;" d="M333.913,149.148v150.261c0,9.22,7.475,16.696,16.696,16.696c9.22,0,16.696-7.475,16.696-16.696
		V149.148H333.913z"/>
	<path style="fill:#C42B50;" d="M278.261,193.67v172.522c0,9.22,7.475,16.696,16.696,16.696s16.696-7.475,16.696-16.696V193.67
		H278.261z"/>
</g>
<path style="fill:#C4D3D9;" d="M100.174,126.887v258.226c0,49.099,69.904,89.043,155.826,89.043v-347.27H100.174z"/>
<path style="fill:#E0315B;" d="M166.957,149.148v150.261c0,9.22,7.475,16.696,16.696,16.696c9.22,0,16.696-7.475,16.696-16.696
	V149.148H166.957z"/>
<path style="fill:#C42B50;" d="M256,37.843l-22.261,89.043L256,215.93c85.923,0,155.826-39.945,155.826-89.043
	S341.923,37.843,256,37.843z"/>
<path style="fill:#E0315B;" d="M100.174,126.887c0,49.099,69.904,89.043,155.826,89.043V37.843
	C170.077,37.843,100.174,77.788,100.174,126.887z"/>
<path style="fill:#EA5A7D;" d="M256,60.104l-22.261,100.174h136.32c12.533-10.418,19.506-22.134,19.506-33.391
	C389.565,95.3,334.712,60.104,256,60.104z"/>
<path style="fill:#F5849F;" d="M122.435,126.887c0,11.257,6.973,22.973,19.506,33.391H256V60.104
	C177.288,60.104,122.435,95.3,122.435,126.887z"/>
<path style="fill:#E0315B;" d="M256,126.887l-22.261,33.391L256,193.67c50.658,0,91.429-14.58,114.059-33.391
	C347.429,141.467,306.658,126.887,256,126.887z"/>
<path style="fill:#EA5A7D;" d="M141.941,160.278C164.571,179.09,205.342,193.67,256,193.67v-66.783
	C205.342,126.887,164.571,141.467,141.941,160.278z"/>
<g>
</g>
<g>
</g>
<g>
</g>
<g>
</g>
<g>
</g>
<g>
</g>
<g>
</g>
<g>
</g>
<g>
</g>
<g>
</g>
<g>
</g>
<g>
</g>
<g>
</g>
<g>
</g>
<g>
</g>
</svg>
