<?xml version="1.0" encoding="iso-8859-1"?>
<!-- Generator: Adobe Illustrator 19.0.0, SVG Export Plug-In . SVG Version: 6.00 Build 0)  -->
<svg version="1.1" id="Layer_1" xmlns="http://www.w3.org/2000/svg" xmlns:xlink="http://www.w3.org/1999/xlink" x="0px" y="0px"
	 viewBox="0 0 512 512" style="enable-background:new 0 0 512 512;" xml:space="preserve">
<path style="fill:#C4D3D9;" d="M437.027,74.982c-99.975-99.976-262.07-99.976-362.045,0s-99.976,262.07,0,362.045
	c32.533,32.533,71.646,54.469,113.052,65.829l314.822-314.822C491.496,146.628,469.56,107.516,437.027,74.982z"/>
<path style="fill:#A2B1B7;" d="M502.856,188.035l-89.44-89.44l-7.87,7.87c-30.428-30.428-79.76-30.428-110.188,0
	s-30.428,79.76,0,110.188L110.4,425.222l77.634,77.634c85.841,23.55,181.549,1.615,248.993-65.829S526.407,273.876,502.856,188.035z
	"/>
<polygon style="fill:#414D53;" points="200.911,405.545 216.653,389.804 169.429,342.582 114.335,397.675 161.558,444.899 
	177.299,429.158 157.623,409.481 181.235,385.87 "/>
<rect x="184.209" y="166.398" transform="matrix(-0.7071 -0.7071 0.7071 -0.7071 122.9888 673.1342)" style="fill:#57676E;" width="33.392" height="289.394"/>
<path style="fill:#414D53;" d="M413.415,98.595l-19.677,3.936l-3.936,19.677c21.734,21.734,21.734,56.971,0,78.706
	s-56.971,21.734-78.706,0l-19.677,3.936l-3.936,19.677c34.774,34.774,91.154,34.774,125.929,0S448.19,133.369,413.415,98.595z"/>
<path style="fill:#57676E;" d="M311.098,122.206c21.734-21.734,56.971-21.734,78.706,0l23.611-23.611
	c-34.774-34.774-91.154-34.774-125.929,0s-34.774,91.154,0,125.929l23.611-23.611C289.365,179.177,289.365,143.94,311.098,122.206z"
	/>
<g>
</g>
<g>
</g>
<g>
</g>
<g>
</g>
<g>
</g>
<g>
</g>
<g>
</g>
<g>
</g>
<g>
</g>
<g>
</g>
<g>
</g>
<g>
</g>
<g>
</g>
<g>
</g>
<g>
</g>
</svg>
