<?xml version="1.0" encoding="iso-8859-1"?>
<!-- Generator: Adobe Illustrator 19.0.0, SVG Export Plug-In . SVG Version: 6.00 Build 0)  -->
<svg version="1.1" id="Layer_1" xmlns="http://www.w3.org/2000/svg" xmlns:xlink="http://www.w3.org/1999/xlink" x="0px" y="0px"
	 viewBox="0 0 512 512" style="enable-background:new 0 0 512 512;" xml:space="preserve">
<path style="fill:#F5849F;" d="M506.081,201.107C480.952,86.105,378.54,0,256,0C114.616,0,0,114.616,0,256
	c0,122.539,86.105,224.952,201.107,250.081L506.081,201.107z"/>
<path style="fill:#EA5A7D;" d="M512,256c0-18.845-2.055-37.207-5.919-54.893L369.53,64.557L142.47,447.443l58.637,58.637
	C218.793,509.945,237.155,512,256,512C397.384,512,512,397.384,512,256z"/>
<polygon style="fill:#FEEB5C;" points="233.739,402.922 369.53,380.661 369.53,109.078 233.739,86.817 "/>
<polygon style="fill:#FFFFFF;" points="256,86.817 142.47,109.078 142.47,380.661 256,402.922 "/>
<g>
	<rect x="164.73" y="131.339" style="fill:#FFF9CF;" width="22.261" height="182.539"/>
	<rect x="164.73" y="336.139" style="fill:#FFF9CF;" width="22.261" height="22.261"/>
</g>
<g>
	<polygon style="fill:#313A3E;" points="256,64.557 222.609,86.817 256,109.078 369.53,109.078 369.53,64.557 	"/>
	<polygon style="fill:#313A3E;" points="256,447.443 369.53,447.443 369.53,380.661 256,380.661 222.609,414.052 	"/>
</g>
<g>
	<rect x="142.47" y="380.661" style="fill:#414D53;" width="113.53" height="66.783"/>
	<rect x="142.47" y="64.557" style="fill:#414D53;" width="113.53" height="44.522"/>
</g>
<rect x="244.87" y="402.922" style="fill:#748993;" width="22.261" height="22.261"/>
<g>
</g>
<g>
</g>
<g>
</g>
<g>
</g>
<g>
</g>
<g>
</g>
<g>
</g>
<g>
</g>
<g>
</g>
<g>
</g>
<g>
</g>
<g>
</g>
<g>
</g>
<g>
</g>
<g>
</g>
</svg>
