<?xml version="1.0" encoding="iso-8859-1"?>
<!-- Generator: Adobe Illustrator 19.0.0, SVG Export Plug-In . SVG Version: 6.00 Build 0)  -->
<svg version="1.1" id="Layer_1" xmlns="http://www.w3.org/2000/svg" xmlns:xlink="http://www.w3.org/1999/xlink" x="0px" y="0px"
	 viewBox="0 0 512 512" style="enable-background:new 0 0 512 512;" xml:space="preserve">
<path style="fill:#FEEB5C;" d="M256,0C114.616,0,0,114.616,0,256c0,124.526,88.917,228.267,206.72,251.242l304.495-271.367
	C500.952,103.898,390.611,0,256,0z"/>
<path style="fill:#FAC656;" d="M512,256c0-6.773-0.268-13.483-0.785-20.124L324.105,48.765L150.261,450.783l56.459,56.459
	C222.669,510.353,239.142,512,256,512C397.384,512,512,397.384,512,256z"/>
<polygon style="fill:#394449;" points="150.261,317.217 150.261,406.261 256,428.522 256,317.217 "/>
<polygon style="fill:#313A3E;" points="361.739,317.217 256,317.217 235.859,428.522 361.739,406.261 "/>
<polygon style="fill:#394449;" points="361.739,406.261 256,406.261 233.739,428.522 256,450.783 361.739,450.783 "/>
<g>
	<rect x="150.261" y="406.261" style="fill:#414D53;" width="105.739" height="44.522"/>
	<path style="fill:#414D53;" d="M300.522,38.957H256l-41.739,219.826L256,406.261h77.913V72.348
		C333.913,53.983,318.887,38.957,300.522,38.957z"/>
</g>
<path style="fill:#57676E;" d="M256,38.957h-44.522c-18.365,0-33.391,15.026-33.391,33.391v333.913H256V38.957z"/>
<polygon style="fill:#FFF9CF;" points="311.652,116.87 256,116.87 233.739,155.826 256,194.783 311.652,194.783 "/>
<rect x="200.348" y="116.87" style="fill:#FFFFFF;" width="55.652" height="77.913"/>
<g>
	<rect x="244.87" y="217.043" style="fill:#313A3E;" width="22.261" height="22.261"/>
	<rect x="289.391" y="217.043" style="fill:#313A3E;" width="22.261" height="22.261"/>
</g>
<rect x="200.348" y="217.043" style="fill:#414D53;" width="22.261" height="22.261"/>
<g>
	<rect x="244.87" y="261.565" style="fill:#313A3E;" width="22.261" height="22.261"/>
	<rect x="289.391" y="261.565" style="fill:#313A3E;" width="22.261" height="22.261"/>
</g>
<rect x="200.348" y="261.565" style="fill:#414D53;" width="22.261" height="22.261"/>
<g>
	<rect x="244.87" y="306.087" style="fill:#313A3E;" width="22.261" height="22.261"/>
	<rect x="289.391" y="306.087" style="fill:#313A3E;" width="22.261" height="22.261"/>
</g>
<rect x="200.348" y="306.087" style="fill:#414D53;" width="22.261" height="22.261"/>
<g>
	<rect x="244.87" y="350.609" style="fill:#313A3E;" width="22.261" height="22.261"/>
	<rect x="289.391" y="350.609" style="fill:#313A3E;" width="22.261" height="22.261"/>
</g>
<rect x="200.348" y="350.609" style="fill:#414D53;" width="22.261" height="22.261"/>
<path style="fill:#57676E;" d="M256,61.217l-11.13,16.696L256,94.609c9.22,0,16.696-7.475,16.696-16.696S265.22,61.217,256,61.217z"
	/>
<path style="fill:#748993;" d="M239.304,77.913c0,9.22,7.475,16.696,16.696,16.696V61.217
	C246.78,61.217,239.304,68.693,239.304,77.913z"/>
<g>
</g>
<g>
</g>
<g>
</g>
<g>
</g>
<g>
</g>
<g>
</g>
<g>
</g>
<g>
</g>
<g>
</g>
<g>
</g>
<g>
</g>
<g>
</g>
<g>
</g>
<g>
</g>
<g>
</g>
</svg>
