<?xml version="1.0" encoding="iso-8859-1"?>
<!-- Generator: Adobe Illustrator 19.0.0, SVG Export Plug-In . SVG Version: 6.00 Build 0)  -->
<svg version="1.1" id="Layer_1" xmlns="http://www.w3.org/2000/svg" xmlns:xlink="http://www.w3.org/1999/xlink" x="0px" y="0px"
	 viewBox="0 0 512 512" style="enable-background:new 0 0 512 512;" xml:space="preserve">
<path style="fill:#E64A55;" d="M256,0C114.616,0,0,114.616,0,256c0,117.217,78.782,216.029,186.283,246.388l316.104-316.104
	C472.029,78.782,373.217,0,256,0z"/>
<path style="fill:#A03B38;" d="M512,256c0-24.168-3.354-47.551-9.612-69.717l-88.336-88.336L97.948,414.052l88.336,88.336
	C208.447,508.647,231.832,512,256,512C397.384,512,512,397.384,512,256z"/>
<rect x="97.948" y="97.948" style="fill:#FEEB5C;" width="158.052" height="316.104"/>
<polygon style="fill:#FAC656;" points="414.052,97.948 256,97.948 233.739,256 256,414.052 414.052,414.052 "/>
<polygon style="fill:#FFF9CF;" points="391.791,120.209 256,120.209 233.739,256 256,391.791 391.791,391.791 "/>
<rect x="120.209" y="120.209" style="fill:#FFFFFF;" width="135.791" height="271.583"/>
<path style="fill:#FFF9CF;" d="M256,166.957L233.739,267.13L256,367.304c55.325,0,100.174-44.849,100.174-100.174
	S311.325,166.957,256,166.957z"/>
<path style="fill:#FFFFFF;" d="M155.826,267.13c0,55.325,44.849,100.174,100.174,100.174V166.957
	C200.675,166.957,155.826,211.805,155.826,267.13z"/>
<path style="fill:#F7A150;" d="M256,153.6L233.245,256L256,358.4c56.554,0,102.4-45.845,102.4-102.4S312.554,153.6,256,153.6z"/>
<path style="fill:#FAC656;" d="M153.6,256c0,56.555,45.846,102.4,102.4,102.4V153.6C199.446,153.6,153.6,199.445,153.6,256z"/>
<rect x="198.122" y="244.87" style="fill:#A65A3A;" width="22.261" height="22.261"/>
<rect x="291.617" y="244.87" style="fill:#592C1A;" width="22.261" height="22.261"/>
<g>
</g>
<g>
</g>
<g>
</g>
<g>
</g>
<g>
</g>
<g>
</g>
<g>
</g>
<g>
</g>
<g>
</g>
<g>
</g>
<g>
</g>
<g>
</g>
<g>
</g>
<g>
</g>
<g>
</g>
</svg>
