<?xml version="1.0" encoding="iso-8859-1"?>
<!-- Generator: Adobe Illustrator 19.0.0, SVG Export Plug-In . SVG Version: 6.00 Build 0)  -->
<svg version="1.1" id="Layer_1" xmlns="http://www.w3.org/2000/svg" xmlns:xlink="http://www.w3.org/1999/xlink" x="0px" y="0px"
	 viewBox="0 0 511.999 511.999" style="enable-background:new 0 0 511.999 511.999;" xml:space="preserve">
<path style="fill:#AEE6FF;" d="M511.936,251.002C509.271,111.925,395.714,0,256,0C114.616,0,0.001,114.615,0.001,255.999
	c0,122.318,85.792,224.582,200.482,249.945l192.027-81.186L511.936,251.002z"/>
<g>
	<path style="fill:#74C8EE;" d="M122.251,411.971c-0.016-0.017-0.032-0.03-0.048-0.047
		C122.22,411.941,122.236,411.957,122.251,411.971z"/>
	<path style="fill:#74C8EE;" d="M511.936,251.001L397.532,136.597l-7.733,7.736c73.891,73.893,73.891,193.697-0.002,267.592
		c-73.873,73.873-193.629,73.893-267.528,0.063l-7.869,7.873l86.083,86.083c17.878,3.955,36.451,6.056,55.517,6.056
		c141.384,0,255.999-114.617,255.999-256.001C511.999,254.329,511.968,252.665,511.936,251.001z"/>
</g>
<path style="fill:#006998;" d="M300.523,82.906v46.02c64.296,19.203,111.304,78.878,111.304,149.334
	c0,85.922-69.903,155.826-155.826,155.826l-22.261,22.261l22.261,22.261c110.472,0,200.347-89.875,200.347-200.347
	C456.349,183.085,389.638,103.206,300.523,82.906z"/>
<g>
	<path style="fill:#008CCB;" d="M100.175,278.26c0-70.457,47.008-130.131,111.304-149.334v-46.02
		c-89.116,20.3-155.826,100.179-155.826,195.354c0,110.473,89.876,200.347,200.347,200.347v-44.522
		C170.079,434.086,100.175,364.183,100.175,278.26z"/>
	<polygon style="fill:#008CCB;" points="278.262,33.391 256.001,33.391 244.871,155.826 256.001,278.26 278.262,278.26 	"/>
</g>
<rect x="233.739" y="33.391" style="fill:#3AAADC;" width="22.261" height="244.869"/>
<g>
</g>
<g>
</g>
<g>
</g>
<g>
</g>
<g>
</g>
<g>
</g>
<g>
</g>
<g>
</g>
<g>
</g>
<g>
</g>
<g>
</g>
<g>
</g>
<g>
</g>
<g>
</g>
<g>
</g>
</svg>
