<?xml version="1.0" encoding="iso-8859-1"?>
<!-- Generator: Adobe Illustrator 19.0.0, SVG Export Plug-In . SVG Version: 6.00 Build 0)  -->
<svg version="1.1" id="Layer_1" xmlns="http://www.w3.org/2000/svg" xmlns:xlink="http://www.w3.org/1999/xlink" x="0px" y="0px"
	 viewBox="0 0 512 512" style="enable-background:new 0 0 512 512;" xml:space="preserve">
<path style="fill:#414D53;" d="M256,0C114.615,0,0,114.615,0,256c0,123.002,86.748,225.744,202.404,250.38l309.327-262.229
	C505.541,108.267,393.414,0,256,0z"/>
<path style="fill:#313A3E;" d="M512,256c0-3.972-0.103-7.919-0.283-11.847L308.736,41.171l-94.28,15.304v57.396L94.64,171.955
	l43.132,43.132l-67.114,12.521l111.594,111.594l-49.032,97.975l69.188,69.188C219.691,510.045,237.617,512,256,512
	C397.385,512,512,397.384,512,256z"/>
<polygon style="fill:#748993;" points="336.339,327.78 336.339,350.041 256,350.041 244.87,338.911 256,327.78 "/>
<rect x="175.727" y="327.78" style="fill:#A2B1B7;" width="80.273" height="22.261"/>
<polygon style="fill:#C4D3D9;" points="308.736,94.042 286.475,94.042 286.475,49.52 308.736,63.433 "/>
<g>
	<polygon style="fill:#FFFFFF;" points="203.325,94.042 225.586,94.042 225.586,49.52 203.325,63.433 	"/>
	<rect x="70.656" y="205.345" style="fill:#FFFFFF;" width="77.913" height="22.261"/>
</g>
<rect x="363.431" y="205.345" style="fill:#C4D3D9;" width="77.913" height="22.261"/>
<rect x="171.408" y="246.878" transform="matrix(-0.9808 -0.1951 0.1951 -0.9808 297.7896 683.1552)" style="fill:#FFFFFF;" width="22.261" height="160.069"/>
<polygon style="fill:#C4D3D9;" points="323.711,246.235 301.879,250.578 341.589,450.216 364.286,450.216 "/>
<path style="fill:#F37C4A;" d="M322.814,82.912h-66.783l-22.261,77.913l155.826-11.13
	C389.596,112.814,359.694,82.912,322.814,82.912z"/>
<path style="fill:#F79E73;" d="M189.249,82.912c-36.881,0-66.783,29.902-66.783,66.783l133.565,11.13V82.912H189.249z"/>
<path style="fill:#3AAADC;" d="M227.409,171.955h162.186c0,73.766-59.799,133.565-133.565,133.565L227.409,171.955z"/>
<path style="fill:#74C8EE;" d="M256.031,171.955V305.52c-73.766,0-133.565-59.799-133.565-133.565H256.031z"/>
<rect x="94.642" y="149.693" style="fill:#ED6350;" width="322.783" height="22.261"/>
<path style="fill:#748993;" d="M164.7,361.173l-17.809,44.522l17.809,44.522c24.588,0,44.522-19.933,44.522-44.522
	S189.289,361.173,164.7,361.173z"/>
<path style="fill:#A2B1B7;" d="M120.179,405.694c0,24.588,19.934,44.522,44.522,44.522v-89.043
	C140.112,361.173,120.179,381.105,120.179,405.694z"/>
<circle style="fill:#FFFFFF;" cx="164.697" cy="405.693" r="16.696"/>
<rect x="203.331" y="41.173" style="fill:#ED6350;" width="105.405" height="22.261"/>
<g>
</g>
<g>
</g>
<g>
</g>
<g>
</g>
<g>
</g>
<g>
</g>
<g>
</g>
<g>
</g>
<g>
</g>
<g>
</g>
<g>
</g>
<g>
</g>
<g>
</g>
<g>
</g>
<g>
</g>
</svg>
