<?xml version="1.0" encoding="iso-8859-1"?>
<!-- Generator: Adobe Illustrator 19.0.0, SVG Export Plug-In . SVG Version: 6.00 Build 0)  -->
<svg version="1.1" id="Layer_1" xmlns="http://www.w3.org/2000/svg" xmlns:xlink="http://www.w3.org/1999/xlink" x="0px" y="0px"
	 viewBox="0 0 512 512" style="enable-background:new 0 0 512 512;" xml:space="preserve">
<circle style="fill:#273B7A;" cx="256" cy="256" r="256"/>
<path style="fill:#121149;" d="M512,256c0-12.486-0.912-24.759-2.639-36.767L401.065,110.937L244.36,275.965l-9.335,13.652
	l-57.846-57.846l-59.07,58.559l211.044,211.044C434.891,469.897,512,371.962,512,256z"/>
<path style="fill:#FFC61B;" d="M401.065,110.935L401.065,110.935c5.061,5.061,5.061,13.267,0,18.327L232.191,298.136
	c-5.061,5.061-13.267,5.061-18.327,0l0,0c-5.061-5.061-5.061-13.267,0-18.327l168.874-168.874
	C387.798,105.875,396.004,105.875,401.065,110.935z"/>
<path style="fill:#EAA22F;" d="M401.065,110.935c-0.195-0.195-0.4-0.367-0.603-0.546L213.318,297.532
	c0.179,0.203,0.352,0.41,0.546,0.603c5.061,5.061,13.265,5.061,18.327,0l168.874-168.874
	C406.125,124.202,406.125,115.996,401.065,110.935z"/>
<path style="fill:#A6A8AA;" d="M242.664,247.736l21.601,21.601l-43.53,43.53c-4.549,4.549-11.924,4.549-16.474,0l-5.127-5.127
	c-4.549-4.549-4.549-11.924,0-16.474L242.664,247.736z"/>
<path style="fill:#808183;" d="M201.123,309.727l3.137,3.139c4.549,4.549,11.924,4.549,16.474,0l43.53-43.53l-11.374-11.374
	L201.123,309.727z"/>
<g>
	
		<rect x="239.061" y="351.936" transform="matrix(0.7071 0.7071 -0.7071 0.7071 340.8036 -63.3055)" style="fill:#D0D1D3;" width="15.515" height="55.595"/>
	
		<rect x="219.96" y="332.827" transform="matrix(0.7071 0.7071 -0.7071 0.7071 321.6968 -55.3961)" style="fill:#D0D1D3;" width="15.515" height="55.595"/>
	
		<rect x="200.876" y="313.735" transform="matrix(0.7071 0.7071 -0.7071 0.7071 302.6073 -47.4938)" style="fill:#D0D1D3;" width="15.515" height="55.595"/>
</g>
<rect x="181.793" y="294.667" transform="matrix(0.7071 0.7071 -0.7071 0.7071 283.5351 -39.5844)" style="fill:#FFFFFF;" width="15.515" height="55.595"/>
<rect x="187.709" y="297.116" transform="matrix(0.7071 0.7071 -0.7071 0.7071 285.9825 -40.5954)" style="fill:#D0D1D3;" width="8.571" height="55.595"/>
<g>
	
		<rect x="162.692" y="275.575" transform="matrix(0.7071 0.7071 -0.7071 0.7071 264.4405 -31.6699)" style="fill:#FFFFFF;" width="15.515" height="55.595"/>
	
		<rect x="143.608" y="256.483" transform="matrix(0.7071 0.7071 -0.7071 0.7071 245.351 -23.7676)" style="fill:#FFFFFF;" width="15.515" height="55.595"/>
	
		<rect x="124.537" y="237.386" transform="matrix(0.7071 0.7071 -0.7071 0.7071 226.2615 -15.8755)" style="fill:#FFFFFF;" width="15.515" height="55.595"/>
</g>
<path style="fill:#D0D1D3;" d="M138.588,247.91l15.253-15.253c8.435-8.435,22.111-8.435,30.546,0l94.956,94.956
	c8.435,8.435,8.435,22.111,0,30.546l-15.253,15.253L138.588,247.91z"/>
<path style="fill:#A6A8AA;" d="M231.29,279.561l-30.525,30.525l63.326,63.326l15.251-15.253c8.435-8.435,8.435-22.111,0-30.546
	L231.29,279.561z"/>
<g>
</g>
<g>
</g>
<g>
</g>
<g>
</g>
<g>
</g>
<g>
</g>
<g>
</g>
<g>
</g>
<g>
</g>
<g>
</g>
<g>
</g>
<g>
</g>
<g>
</g>
<g>
</g>
<g>
</g>
</svg>
