<?xml version="1.0" encoding="iso-8859-1"?>
<!-- Generator: Adobe Illustrator 19.0.0, SVG Export Plug-In . SVG Version: 6.00 Build 0)  -->
<svg version="1.1" id="Layer_1" xmlns="http://www.w3.org/2000/svg" xmlns:xlink="http://www.w3.org/1999/xlink" x="0px" y="0px"
	 viewBox="0 0 512 512" style="enable-background:new 0 0 512 512;" xml:space="preserve">
<path style="fill:#3AAADC;" d="M503.628,190.865C474.814,81.03,374.875,0,256,0C114.616,0,0,114.616,0,256
	c0,117.929,79.747,217.217,188.251,246.92L503.628,190.865z"/>
<path style="fill:#007BB2;" d="M512,256c0-22.51-2.917-44.336-8.372-65.135L389.565,76.803L120.927,435.595l67.325,67.325
	C209.833,508.828,232.545,512,256,512C397.385,512,512,397.385,512,256z"/>
<rect x="345.043" y="78.314" style="fill:#FAC656;" width="44.522" height="100.174"/>
<polygon style="fill:#FFF9CF;" points="389.566,212.986 389.566,181.821 256.001,48.256 233.74,224.117 "/>
<polygon style="fill:#FAC656;" points="233.74,212.986 256.001,435.595 389.566,435.595 389.566,235.247 "/>
<polygon style="fill:#FEEB5C;" points="122.436,435.595 256.001,435.595 256.001,212.986 122.436,235.247 "/>
<polygon style="fill:#FFFFFF;" points="256.001,48.256 122.436,181.821 122.436,212.986 256.001,224.117 "/>
<polygon style="fill:#F37C4A;" points="389.566,212.986 256.001,212.986 233.74,224.117 256.001,235.247 389.566,235.247 "/>
<rect x="122.435" y="212.981" style="fill:#F79E73;" width="133.565" height="22.261"/>
<polygon style="fill:#E64A55;" points="300.523,268.639 256.001,268.639 233.74,352.117 256.001,435.595 300.523,435.595 "/>
<rect x="211.478" y="268.633" style="fill:#F37C4A;" width="44.522" height="166.957"/>
<polygon style="fill:#FFF9CF;" points="367.305,268.639 322.784,268.639 322.784,340.986 345.045,352.117 367.305,340.986 "/>
<polygon style="fill:#FFFFFF;" points="144.697,268.639 144.697,340.986 166.958,352.117 189.219,340.986 189.219,268.639 "/>
<rect x="322.783" y="340.992" style="fill:#F37C4A;" width="44.522" height="22.261"/>
<rect x="144.696" y="340.992" style="fill:#F79E73;" width="44.522" height="22.261"/>
<polygon style="fill:#E64A55;" points="256.001,32.12 244.871,63.603 256.001,63.603 431.783,239.384 447.525,223.643 "/>
<polygon style="fill:#ED6350;" points="64.479,223.643 80.22,239.384 256.001,63.603 256.001,32.12 "/>
<g>
</g>
<g>
</g>
<g>
</g>
<g>
</g>
<g>
</g>
<g>
</g>
<g>
</g>
<g>
</g>
<g>
</g>
<g>
</g>
<g>
</g>
<g>
</g>
<g>
</g>
<g>
</g>
<g>
</g>
</svg>
