<?xml version="1.0" encoding="iso-8859-1"?>
<!-- Generator: Adobe Illustrator 19.0.0, SVG Export Plug-In . SVG Version: 6.00 Build 0)  -->
<svg version="1.1" id="Layer_1" xmlns="http://www.w3.org/2000/svg" xmlns:xlink="http://www.w3.org/1999/xlink" x="0px" y="0px"
	 viewBox="0 0 512 512" style="enable-background:new 0 0 512 512;" xml:space="preserve">
<path style="fill:#C34346;" d="M256,0C114.616,0,0,114.616,0,256c0,117.217,78.782,216.029,186.283,246.388l316.104-316.104
	C472.029,78.782,373.217,0,256,0z"/>
<path style="fill:#A03B38;" d="M512,256c0-24.168-3.354-47.551-9.612-69.717l-88.336-88.336L97.948,414.052l88.336,88.336
	C208.447,508.647,231.832,512,256,512C397.384,512,512,397.384,512,256z"/>
<rect x="256" y="109.078" style="fill:#74C8EE;" width="146.922" height="293.843"/>
<rect x="109.078" y="109.078" style="fill:#AEE6FF;" width="146.922" height="293.843"/>
<path style="fill:#FFFFFF;" d="M109.078,109.078v33.391h0.994L120.209,256c17.212,0,31.165-13.953,31.165-31.165
	c0,17.212,13.953,31.165,31.165,31.165s31.165-13.953,31.165-31.165c0,17.212,13.953,31.165,31.165,31.165l10.136-113.53H256
	v-33.391H109.078z"/>
<path style="fill:#FFF296;" d="M256,109.078v33.391h0.994L267.13,256c17.212,0,31.165-13.953,31.165-31.165
	c0,17.212,13.953,31.165,31.165,31.165s31.165-13.953,31.165-31.165c0,17.212,13.953,31.165,31.165,31.165l10.136-113.53h0.994
	v-33.391H256z"/>
<polygon style="fill:#F79E73;" points="256,120.209 244.87,97.948 97.948,97.948 97.948,414.052 244.87,414.052 256,391.791 
	120.209,391.791 120.209,120.209 "/>
<path style="fill:#F37C4A;" d="M244.87,97.948v316.104h169.183V97.948H244.87z M391.791,391.791H267.13V120.209h124.661V391.791z"/>
<g>
</g>
<g>
</g>
<g>
</g>
<g>
</g>
<g>
</g>
<g>
</g>
<g>
</g>
<g>
</g>
<g>
</g>
<g>
</g>
<g>
</g>
<g>
</g>
<g>
</g>
<g>
</g>
<g>
</g>
</svg>
