<?xml version="1.0" encoding="iso-8859-1"?>
<!-- Generator: Adobe Illustrator 19.0.0, SVG Export Plug-In . SVG Version: 6.00 Build 0)  -->
<svg version="1.1" id="Layer_1" xmlns="http://www.w3.org/2000/svg" xmlns:xlink="http://www.w3.org/1999/xlink" x="0px" y="0px"
	 viewBox="0 0 512 512" style="enable-background:new 0 0 512 512;" xml:space="preserve">
<path style="fill:#7A3E25;" d="M509.631,221.167C492.636,96.263,385.568,0,256,0C114.616,0,0,114.616,0,256
	c0,129.568,96.264,236.636,221.168,253.631L509.631,221.167z"/>
<path style="fill:#592C1A;" d="M139.301,427.764l81.868,81.868C232.56,511.182,244.184,512,256,512c141.384,0,256-114.616,256-256
	c0-11.816-0.818-23.441-2.369-34.833L372.699,84.235L139.301,427.764z"/>
<path style="fill:#AEE6FF;" d="M368.63,112.833c-30.421-36.874-70.419-57.18-112.63-57.18L200.348,256L256,456.348
	c42.211,0,82.209-20.306,112.629-57.18c31.446-38.115,48.762-88.96,48.762-143.167S400.075,150.948,368.63,112.833z"/>
<g>
	<path style="fill:#D1F1FF;" d="M143.37,112.833C111.927,150.948,94.609,201.793,94.609,256s17.318,105.052,48.761,143.169
		c30.421,36.873,70.42,57.179,112.63,57.179V55.652C213.79,55.652,173.791,75.959,143.37,112.833z"/>
	<path style="fill:#D1F1FF;" d="M378.876,126.442c-3.229-4.693-6.64-9.238-10.247-13.609c-1.154-1.399-2.327-2.766-3.509-4.118
		L256,217.835l-11.13,31.481H256L378.876,126.442z"/>
</g>
<path style="fill:#FFFFFF;" d="M127.84,377.476L256,249.316v-31.481L116.737,357.097
	C120.081,364.131,123.785,370.935,127.84,377.476z"/>
<path style="fill:#D1F1FF;" d="M340.867,85.746c-12.666-9.805-26.308-17.317-40.574-22.39L256,107.649l-22.261,62.963H256
	L340.867,85.746z"/>
<path style="fill:#FFFFFF;" d="M103.821,322.79L256,170.612v-62.963L94.94,268.708C95.881,287.363,98.884,305.522,103.821,322.79z"
	/>
<path style="fill:#F37C4A;" d="M256,33.391l-22.261,16.696L256,66.783c38.826,0,75.777,18.869,104.044,53.132
	c29.803,36.126,46.217,84.454,46.217,136.085s-16.414,99.959-46.217,136.085c-28.267,34.263-65.218,53.132-104.044,53.132
	l-22.261,16.696L256,478.609c101.266,0,183.652-99.862,183.652-222.609S357.266,33.391,256,33.391z"/>
<path style="fill:#F79E73;" d="M151.956,392.085c-29.803-36.126-46.217-84.454-46.217-136.085s16.414-99.959,46.217-136.085
	C180.224,85.652,217.174,66.783,256,66.783V33.391C154.734,33.391,72.348,133.254,72.348,256S154.734,478.609,256,478.609v-33.391
	C217.174,445.217,180.224,426.348,151.956,392.085z"/>
<g>
</g>
<g>
</g>
<g>
</g>
<g>
</g>
<g>
</g>
<g>
</g>
<g>
</g>
<g>
</g>
<g>
</g>
<g>
</g>
<g>
</g>
<g>
</g>
<g>
</g>
<g>
</g>
<g>
</g>
</svg>
