<?xml version="1.0" encoding="iso-8859-1"?>
<!-- Generator: Adobe Illustrator 19.0.0, SVG Export Plug-In . SVG Version: 6.00 Build 0)  -->
<svg version="1.1" id="Layer_1" xmlns="http://www.w3.org/2000/svg" xmlns:xlink="http://www.w3.org/1999/xlink" x="0px" y="0px"
	 viewBox="0 0 512 512" style="enable-background:new 0 0 512 512;" xml:space="preserve">
<path style="fill:#F5849F;" d="M256,0C114.616,0,0,114.616,0,256c0,120.476,83.228,221.495,195.319,248.745l316.636-252.281
	C510.061,112.711,396.203,0,256,0z"/>
<path style="fill:#EA5A7D;" d="M512,256c0-1.182-0.029-2.357-0.045-3.536L318.963,59.472l-62.962,327.867l-122.436,55.652
	l61.754,61.754C214.774,509.474,235.09,512,256,512C397.385,512,512,397.385,512,256z"/>
<rect x="244.87" y="278.261" style="fill:#74C8EE;" width="33.391" height="153.6"/>
<rect x="233.739" y="278.261" style="fill:#AEE6FF;" width="22.261" height="153.6"/>
<polygon style="fill:#D1F1FF;" points="256,387.339 244.87,431.861 345.043,420.73 278.261,387.339 "/>
<polygon style="fill:#FFFFFF;" points="233.739,387.339 166.957,420.73 256,431.861 256,387.339 "/>
<polygon style="fill:#74C8EE;" points="256,420.73 243.942,431.861 256,442.991 378.435,442.991 378.435,420.73 "/>
<rect x="133.565" y="420.73" style="fill:#AEE6FF;" width="122.435" height="22.261"/>
<rect x="111.304" y="86.817" style="fill:#FFE2C4;" width="33.391" height="111.304"/>
<path style="fill:#FAC656;" d="M256,33.391l-44.522,189.217h133.565V122.435C345.043,73.258,305.178,33.391,256,33.391z"/>
<path style="fill:#FEEB5C;" d="M166.957,122.435v100.174H256V33.391C206.822,33.391,166.957,73.258,166.957,122.435z"/>
<path style="fill:#7A3E25;" d="M166.957,122.435l-33.391,89.043l33.391,89.043c49.178,0,89.043-39.866,89.043-89.043
	S216.134,122.435,166.957,122.435z"/>
<path style="fill:#A65A3A;" d="M77.913,211.478c0,49.178,39.866,89.043,89.043,89.043V122.435
	C117.779,122.435,77.913,162.302,77.913,211.478z"/>
<path style="fill:#E0315B;" d="M345.043,122.435l-33.391,89.043l33.391,89.043c49.178,0,89.043-39.866,89.043-89.043
	S394.221,122.435,345.043,122.435z"/>
<path style="fill:#EA5A7D;" d="M256,211.478c0,49.178,39.866,89.043,89.043,89.043V122.435C295.866,122.435,256,162.302,256,211.478
	z"/>
<path style="fill:#D1F1FF;" d="M327.652,340.174H256l-11.13-117.565l189.217,11.13C434.087,292.522,386.434,340.174,327.652,340.174
	z"/>
<path style="fill:#FFFFFF;" d="M184.348,340.174c-58.782,0-106.435-47.652-106.435-106.435L256,222.609v117.565H184.348z"/>
<polygon style="fill:#74C8EE;" points="456.348,233.739 256,233.739 243.942,222.609 256,211.478 456.348,211.478 "/>
<rect x="55.652" y="211.478" style="fill:#AEE6FF;" width="200.348" height="22.261"/>
<g>
</g>
<g>
</g>
<g>
</g>
<g>
</g>
<g>
</g>
<g>
</g>
<g>
</g>
<g>
</g>
<g>
</g>
<g>
</g>
<g>
</g>
<g>
</g>
<g>
</g>
<g>
</g>
<g>
</g>
</svg>
