<?xml version="1.0" encoding="iso-8859-1"?>
<!-- Generator: Adobe Illustrator 19.0.0, SVG Export Plug-In . SVG Version: 6.00 Build 0)  -->
<svg version="1.1" id="Layer_1" xmlns="http://www.w3.org/2000/svg" xmlns:xlink="http://www.w3.org/1999/xlink" x="0px" y="0px"
	 viewBox="0 0 512 512" style="enable-background:new 0 0 512 512;" xml:space="preserve">
<path style="fill:#008CCB;" d="M504.386,193.847C476.612,82.5,375.947,0,256,0C114.616,0,0,114.616,0,256
	c0,138.344,109.742,251.037,246.919,255.822L504.386,193.847z"/>
<path style="fill:#006998;" d="M504.386,193.845L388.452,77.913L213.704,478.609l33.214,33.214c3.015,0.106,6.04,0.177,9.081,0.177
	c141.384,0,256-114.616,256-256C512,234.562,509.35,213.747,504.386,193.845z"/>
<polygon style="fill:#D1F1FF;" points="121.322,77.913 121.322,100.174 256,122.435 256,77.913 "/>
<polygon style="fill:#74C8EE;" points="388.452,77.913 256,77.913 256,122.435 388.452,100.174 "/>
<polygon style="fill:#3AAADC;" points="388.452,100.174 256,100.174 233.739,278.261 367.303,267.13 388.452,267.13 "/>
<polygon style="fill:#AEE6FF;" points="121.322,100.174 121.322,267.13 144.696,267.13 256,278.261 256,100.174 "/>
<polygon style="fill:#74C8EE;" points="287.165,283.826 233.739,283.826 256,478.609 298.296,478.609 "/>
<g>
	<polygon style="fill:#AEE6FF;" points="224.835,283.826 213.704,478.609 256,478.609 256,283.826 	"/>
	<path style="fill:#AEE6FF;" d="M244.87,278.261L256,389.565c55.325,0,100.174-44.849,100.174-100.174L244.87,278.261z"/>
</g>
<path style="fill:#FFFFFF;" d="M155.826,289.391c0,55.325,44.849,100.174,100.174,100.174V278.261L155.826,289.391z"/>
<polygon style="fill:#74C8EE;" points="367.304,267.13 256,267.13 244.87,278.261 256,289.391 367.304,289.391 "/>
<g>
	<rect x="144.696" y="267.13" style="fill:#D1F1FF;" width="111.304" height="22.261"/>
	<path style="fill:#D1F1FF;" d="M256,33.391l-22.261,116.87L256,267.13c55.325,0,100.174-52.324,100.174-116.87
		S311.325,33.391,256,33.391z"/>
</g>
<path style="fill:#FFFFFF;" d="M155.826,150.261c0,64.545,44.849,116.87,100.174,116.87V33.391
	C200.676,33.391,155.826,85.715,155.826,150.261z"/>
<rect x="189.217" y="100.174" style="fill:#AEE6FF;" width="22.261" height="22.261"/>
<rect x="300.522" y="100.174" style="fill:#74C8EE;" width="22.261" height="22.261"/>
<g>
</g>
<g>
</g>
<g>
</g>
<g>
</g>
<g>
</g>
<g>
</g>
<g>
</g>
<g>
</g>
<g>
</g>
<g>
</g>
<g>
</g>
<g>
</g>
<g>
</g>
<g>
</g>
<g>
</g>
</svg>
