<?xml version="1.0" encoding="iso-8859-1"?>
<!-- Generator: Adobe Illustrator 19.0.0, SVG Export Plug-In . SVG Version: 6.00 Build 0)  -->
<svg version="1.1" id="Layer_1" xmlns="http://www.w3.org/2000/svg" xmlns:xlink="http://www.w3.org/1999/xlink" x="0px" y="0px"
	 viewBox="0 0 512 512" style="enable-background:new 0 0 512 512;" xml:space="preserve">
<circle style="fill:#273B7A;" cx="256" cy="256" r="256"/>
<path style="fill:#121149;" d="M512,256c0-0.452-0.016-0.898-0.017-1.348L399.144,141.814l-39.134,1.558L174.976,278.849
	l-52.265,52.265l76.614,84.352l93.837,93.837C416.934,491.305,512,384.762,512,256z"/>
<polygon style="fill:#FFFFFF;" points="237.958,358.662 161.77,283.35 351.225,93.894 399.145,141.812 382.638,149.854 
	379.387,168.526 362.437,177.011 359.188,195.682 342.238,204.166 338.987,222.839 322.036,231.326 318.785,250.001 
	301.833,258.486 298.58,277.161 281.633,285.644 278.381,304.318 261.427,312.808 258.176,331.483 241.218,339.978 "/>
<polygon style="fill:#D0D1D3;" points="378.92,121.589 189.623,310.884 237.958,358.662 241.218,339.978 258.176,331.483 
	261.427,312.808 278.381,304.318 281.633,285.644 298.58,277.161 301.833,258.486 318.785,250.001 322.036,231.326 338.987,222.839 
	342.238,204.166 359.188,195.682 362.437,177.011 379.387,168.526 382.638,149.854 399.145,141.812 "/>
<path style="fill:#EAA22F;" d="M155.398,278.992l-39.903,39.903c-3.518,3.518-3.518,9.225,0,12.743l83.83,83.83
	c3.518,3.518,9.223,3.518,12.741,0l39.903-39.903c3.518-3.518,3.518-9.223,0-12.741l-83.83-83.83
	C164.621,275.473,158.917,275.473,155.398,278.992z M219.946,377.742c1.779,1.779,1.779,4.665,0,6.444l-11.328,11.328
	c-1.779,1.779-4.665,1.779-6.444,0l-66.727-66.725c-1.779-1.779-1.779-4.665,0-6.444l11.328-11.328c1.779-1.779,4.665-1.779,6.444,0
	L219.946,377.742z"/>
<path style="fill:#E09112;" d="M194.829,305.68l-23.473,23.473l48.59,48.59c1.779,1.779,1.779,4.665,0,6.444l-11.328,11.328
	c-1.779,1.779-4.665,1.779-6.444,0l-48.59-48.59l-11.402,11.4l57.142,57.142c3.518,3.518,9.223,3.518,12.741,0l39.903-39.903
	c3.518-3.518,3.518-9.223,0-12.741L194.829,305.68z"/>
<g>
</g>
<g>
</g>
<g>
</g>
<g>
</g>
<g>
</g>
<g>
</g>
<g>
</g>
<g>
</g>
<g>
</g>
<g>
</g>
<g>
</g>
<g>
</g>
<g>
</g>
<g>
</g>
<g>
</g>
</svg>
