<?xml version="1.0" encoding="iso-8859-1"?>
<!-- Generator: Adobe Illustrator 19.0.0, SVG Export Plug-In . SVG Version: 6.00 Build 0)  -->
<svg version="1.1" id="Layer_1" xmlns="http://www.w3.org/2000/svg" xmlns:xlink="http://www.w3.org/1999/xlink" x="0px" y="0px"
	 viewBox="0 0 512 512" style="enable-background:new 0 0 512 512;" xml:space="preserve">
<circle style="fill:#273B7A;" cx="256" cy="256" r="256"/>
<path style="fill:#121149;" d="M172.168,408.373l102.921,102.921c125.771-9.271,226.27-109.404,236.113-235.015L336.646,101.723
	L281.44,204.741L178.421,101.723l74.178,156.839l-26.822,46.513L172.168,408.373z"/>
<path style="fill:#FFFFFF;" d="M178.421,101.723l97.942,169.651c3.056,5.294-0.615,12.012-6.727,12.162
	c-2.969,0.072-6.161,0.35-9.332,0.972c-12.576,2.469-25.407-2.612-32.28-13.428C200.158,227.225,146.427,132.818,178.421,101.723z"
	/>
<polygon style="fill:#A6A8AA;" points="309.291,347.505 295.265,355.819 250.504,280.257 264.528,271.941 "/>
<path style="fill:#930000;" d="M334.85,408.373L334.85,408.373c-6.47,3.836-14.826,1.7-18.658-4.772l-54.698-93.322l23.424-13.888
	l54.703,93.331C343.452,396.188,341.318,404.539,334.85,408.373z"/>
<polygon style="fill:#FFFFFF;" points="197.729,347.505 211.754,355.819 256.515,280.257 242.491,271.941 "/>
<path style="fill:#D35933;" d="M172.168,408.373L172.168,408.373c6.47,3.836,14.826,1.7,18.658-4.772l54.698-93.322l-23.424-13.888
	l-54.703,93.331C163.566,396.188,165.702,404.539,172.168,408.373z"/>
<path style="fill:#D0D1D3;" d="M336.646,101.723l-100.23,173.611c-2.148,3.72,0.614,8.368,4.908,8.223
	c5.339-0.179,12.01,0.174,18.122,2.155c8.823,2.862,18.453-0.488,23.505-8.266C309.143,237.127,370.29,134.422,336.646,101.723z"/>
<circle style="fill:#A6A8AA;" cx="258.138" cy="270.826" r="8.892"/>
<g>
</g>
<g>
</g>
<g>
</g>
<g>
</g>
<g>
</g>
<g>
</g>
<g>
</g>
<g>
</g>
<g>
</g>
<g>
</g>
<g>
</g>
<g>
</g>
<g>
</g>
<g>
</g>
<g>
</g>
</svg>
