<?xml version="1.0" encoding="iso-8859-1"?>
<!-- Generator: Adobe Illustrator 19.0.0, SVG Export Plug-In . SVG Version: 6.00 Build 0)  -->
<svg version="1.1" id="Layer_1" xmlns="http://www.w3.org/2000/svg" xmlns:xlink="http://www.w3.org/1999/xlink" x="0px" y="0px"
	 viewBox="0 0 512 512" style="enable-background:new 0 0 512 512;" xml:space="preserve">
<circle style="fill:#273B7A;" cx="256" cy="256" r="256"/>
<path style="fill:#121149;" d="M277.083,511.131c124.619-10.161,223.975-109.565,234.06-234.205L331.529,97.313l-63.822,103.739
	L102.055,336.105L277.083,511.131z"/>
<path style="fill:#FF7F4F;" d="M275.928,189.192l-54.868,4.18c-8.123,0.619-15.674,4.41-21.023,10.552L101.86,316.666
	c-5.66,6.499-4.503,16.46,2.498,21.488l0,0c5.685,4.084,13.465,3.569,18.563-1.231l92.922-87.488
	c5.37-5.056,12.319-8.109,19.677-8.644l46.199-3.355L275.928,189.192z"/>
<path style="fill:#D35933;" d="M323.76,237.023l-4.18,54.868c-0.619,8.123-4.41,15.674-10.552,21.025l-112.742,98.176
	c-6.499,5.66-16.46,4.503-21.488-2.498l0,0c-4.084-5.685-3.568-13.465,1.231-18.563l87.488-92.924
	c5.056-5.37,8.109-12.319,8.644-19.677l3.355-46.199L323.76,237.023z"/>
<path style="fill:#FFFFFF;" d="M413.737,183.325l-94.66,62.511c-16.796,11.092-40.022,6.69-50.791-10.314
	c-10.438-16.484-5.794-38.364,10.559-49.164c11.978-7.909,26.953-7.706,38.455-0.715c7.392,4.494,16.537,4.668,24.097,0.46
	C354.013,179.079,376.837,172.835,413.737,183.325z"/>
<path style="fill:#D0D1D3;" d="M331.529,97.311l-65.826,98.085c-11.679,17.405-7.278,41.627,10.345,52.974
	c17.084,11,39.903,6.337,51.274-10.607c8.33-12.41,8.233-28.008,1.043-40.041c-4.622-7.733-4.732-17.258-0.291-25.098
	C335.488,159.542,342.166,135.82,331.529,97.311z"/>
<path style="fill:#A6A8AA;" d="M324.922,187.078L269.3,242.7c1.981,2.11,4.211,4.036,6.749,5.67
	c17.084,11,39.903,6.337,51.274-10.607c8.33-12.41,8.233-28.008,1.043-40.041C326.389,194.41,325.244,190.771,324.922,187.078z"/>
<circle style="fill:#808183;" cx="295.857" cy="217.109" r="14.651"/>
<path style="fill:#59595B;" d="M305.709,206.289l-20.677,20.677c3.337,3.653,8.435,5.539,13.645,4.513
	c7.94-1.564,13.109-9.266,11.547-17.206C309.593,211.072,307.952,208.332,305.709,206.289z"/>
<g>
</g>
<g>
</g>
<g>
</g>
<g>
</g>
<g>
</g>
<g>
</g>
<g>
</g>
<g>
</g>
<g>
</g>
<g>
</g>
<g>
</g>
<g>
</g>
<g>
</g>
<g>
</g>
<g>
</g>
</svg>
