<?xml version="1.0" encoding="iso-8859-1"?>
<!-- Generator: Adobe Illustrator 19.0.0, SVG Export Plug-In . SVG Version: 6.00 Build 0)  -->
<svg version="1.1" id="Layer_1" xmlns="http://www.w3.org/2000/svg" xmlns:xlink="http://www.w3.org/1999/xlink" x="0px" y="0px"
	 viewBox="0 0 512 512" style="enable-background:new 0 0 512 512;" xml:space="preserve">
<path style="fill:#E0315B;" d="M503.007,188.573C473.411,79.905,374.045,0,255.999,0C114.615,0,0,114.615,0,256.001
	c0,118.045,79.905,217.41,188.571,247.006L503.007,188.573z"/>
<path style="fill:#A82544;" d="M512,255.999c0-23.339-3.141-45.943-8.993-67.428l-71.702-71.702l-12.819,87.355l-31.703-31.703
	L191.087,205l-88.129-88.129l-22.261,278.26l107.876,107.876c21.485,5.852,44.089,8.993,67.428,8.993
	C397.385,512,512,397.385,512,255.999z"/>
<rect x="308.869" y="333.912" style="fill:#F79E73;" width="111.304" height="22.261"/>
<polygon style="fill:#EA5A7D;" points="297.74,250.435 297.74,272.696 320,283.827 420.174,283.827 420.174,250.435 "/>
<polygon style="fill:#FBC09B;" points="409.044,272.696 409.044,116.87 431.305,116.87 431.305,395.131 409.044,395.131 
	409.044,294.957 320,294.957 320,395.131 297.74,395.131 297.74,272.696 "/>
<polygon style="fill:#ED6350;" points="353.392,194.783 233.74,194.783 256.001,228.175 353.392,228.175 "/>
<g>
	<rect x="158.608" y="194.782" style="fill:#F37C4A;" width="97.391" height="33.391"/>
	<rect x="342.26" y="194.782" style="fill:#F37C4A;" width="22.261" height="200.347"/>
</g>
<rect x="91.826" y="333.912" style="fill:#FBC09B;" width="111.304" height="22.261"/>
<polygon style="fill:#F5849F;" points="214.262,250.435 214.262,272.696 192.001,283.827 91.827,283.827 91.827,250.435 "/>
<polygon style="fill:#FFE2C4;" points="102.957,272.696 102.957,116.87 80.697,116.87 80.697,395.131 102.957,395.131 
	102.957,294.957 192.001,294.957 192.001,395.131 214.262,395.131 214.262,272.696 "/>
<rect x="147.478" y="194.782" style="fill:#F79E73;" width="22.261" height="200.347"/>
<polygon style="fill:#FBC09B;" points="386.783,172.523 256.001,172.523 233.74,189.218 256.001,205.914 386.783,205.914 "/>
<rect x="125.217" y="172.521" style="fill:#FFE2C4;" width="130.782" height="33.391"/>
<g>
</g>
<g>
</g>
<g>
</g>
<g>
</g>
<g>
</g>
<g>
</g>
<g>
</g>
<g>
</g>
<g>
</g>
<g>
</g>
<g>
</g>
<g>
</g>
<g>
</g>
<g>
</g>
<g>
</g>
</svg>
