<?xml version="1.0" encoding="iso-8859-1"?>
<!-- Generator: Adobe Illustrator 19.0.0, SVG Export Plug-In . SVG Version: 6.00 Build 0)  -->
<svg version="1.1" id="Layer_1" xmlns="http://www.w3.org/2000/svg" xmlns:xlink="http://www.w3.org/1999/xlink" x="0px" y="0px"
	 viewBox="0 0 512 512" style="enable-background:new 0 0 512 512;" xml:space="preserve">
<path style="fill:#7A3E25;" d="M256,0C114.615,0,0,114.615,0,256c0,117.77,79.525,216.966,187.805,246.817l318.412-301.178
	C481.29,86.367,378.731,0,256,0z"/>
<path style="fill:#592C1A;" d="M122.435,437.426l65.375,65.375C209.522,508.787,232.385,512,256,512c141.384,0,256-114.615,256-256
	c0-18.655-2.013-36.836-5.802-54.357L373.216,68.663l-225.737,47.651L122.435,437.426z"/>
<polygon style="fill:#FBC09B;" points="256,319.443 238.171,336.139 256,352.835 378.435,352.835 378.435,319.443 "/>
<rect x="133.565" y="319.443" style="fill:#FFE2C4;" width="122.435" height="33.391"/>
<polygon style="fill:#FBC09B;" points="256,274.922 238.171,286.052 256,297.183 378.435,297.183 378.435,274.922 "/>
<rect x="133.565" y="274.922" style="fill:#FFE2C4;" width="122.435" height="22.261"/>
<polygon style="fill:#F79E73;" points="356.174,163.617 356.174,437.426 389.565,437.426 389.565,174.748 "/>
<polygon style="fill:#FBC09B;" points="122.435,174.748 122.435,437.426 155.826,437.426 155.826,163.617 "/>
<path style="fill:#E0315B;" d="M389.565,107.965v33.391L192,163.617l44.522-111.304h97.391
	C364.518,52.313,389.565,77.36,389.565,107.965z"/>
<path style="fill:#EA5A7D;" d="M122.435,107.965v33.391L256,163.617V52.313h-77.913C147.482,52.313,122.435,77.36,122.435,107.965z"
	/>
<polygon style="fill:#FBC09B;" points="256,141.357 238.171,163.617 256,174.748 389.565,174.748 389.565,141.357 "/>
<rect x="122.435" y="141.357" style="fill:#FFE2C4;" width="133.565" height="33.391"/>
<g>
</g>
<g>
</g>
<g>
</g>
<g>
</g>
<g>
</g>
<g>
</g>
<g>
</g>
<g>
</g>
<g>
</g>
<g>
</g>
<g>
</g>
<g>
</g>
<g>
</g>
<g>
</g>
<g>
</g>
</svg>
