<?xml version="1.0" encoding="iso-8859-1"?>
<!-- Generator: Adobe Illustrator 19.0.0, SVG Export Plug-In . SVG Version: 6.00 Build 0)  -->
<svg version="1.1" id="Layer_1" xmlns="http://www.w3.org/2000/svg" xmlns:xlink="http://www.w3.org/1999/xlink" x="0px" y="0px"
	 viewBox="0 0 512 512" style="enable-background:new 0 0 512 512;" xml:space="preserve">
<circle style="fill:#273B7A;" cx="256" cy="256" r="256"/>
<path style="fill:#121149;" d="M512,256c0-6.07-0.226-12.085-0.641-18.048L392.702,119.296L282.146,222.384l-163.58,168.738
	l120.294,120.294c5.666,0.374,11.378,0.584,17.141,0.584C397.384,512,512,397.384,512,256z"/>
<path style="fill:#FFC61B;" d="M392.702,119.298L392.702,119.298c5.061,5.061,5.061,13.267,0,18.327L223.828,306.498
	c-5.061,5.061-13.267,5.061-18.327,0l0,0c-5.061-5.061-5.061-13.267,0-18.327l168.874-168.874
	C379.437,114.236,387.641,114.236,392.702,119.298z"/>
<path style="fill:#EAA22F;" d="M391.797,118.479L204.684,305.592c0.257,0.31,0.528,0.614,0.819,0.905l0,0
	c5.061,5.061,13.267,5.061,18.327,0l168.872-168.874c5.061-5.061,5.061-13.265,0-18.327
	C392.411,119.006,392.108,118.736,391.797,118.479z"/>
<path style="fill:#D0D1D3;" d="M195.575,260.57l55.855,55.855c8.435,8.435,8.435,22.111,0,30.546l-36.89,36.89
	c-8.092,8.092-19.068,12.638-30.511,12.638h-54.344c-7.832,0-14.183-6.349-14.183-14.183v-54.344
	c0-11.443,4.546-22.419,12.638-30.511l36.89-36.89C173.465,252.135,187.14,252.135,195.575,260.57z"/>
<g>
	<path style="fill:#A6A8AA;" d="M222.641,287.637L118.836,391.442c2.601,3.089,6.492,5.056,10.849,5.056h54.344
		c11.443,0,22.419-4.546,30.511-12.638l36.89-36.89c8.435-8.435,8.435-22.111,0-30.546L222.641,287.637z"/>
	<path style="fill:#A6A8AA;" d="M115.502,327.971v54.344c0,3.327,1.146,6.387,3.065,8.806c2.598,3.275,6.613,5.377,11.117,5.377
		h54.344c11.445,0,22.419-4.546,30.511-12.638l17.446-17.446c-8.092,8.092-19.068,12.638-30.511,12.638H147.13
		c-7.833,0-14.183-6.349-14.183-14.183v-54.344c0-11.443,4.546-22.419,12.638-30.511L128.14,297.46
		C120.048,305.552,115.502,316.526,115.502,327.971z"/>
</g>
<path style="fill:#808183;" d="M147.13,379.052c-4.355,0-8.247-1.967-10.849-5.056l-17.439,17.439
	c2.601,3.087,6.485,5.063,10.842,5.063h54.344c11.445,0,22.419-4.546,30.511-12.638l17.446-17.446
	c-8.092,8.092-19.068,12.638-30.511,12.638H147.13z"/>
<path style="fill:#A6A8AA;" d="M234.303,256.098l21.601,21.601l-56.563,56.563c-4.549,4.549-11.924,4.549-16.474,0l-5.127-5.127
	c-4.549-4.549-4.549-11.924,0-16.474L234.303,256.098z"/>
<path style="fill:#808183;" d="M179.44,330.836l3.425,3.425c4.549,4.549,11.924,4.549,16.474,0l56.563-56.563l-11.662-11.662
	L179.44,330.836z"/>
<g>
</g>
<g>
</g>
<g>
</g>
<g>
</g>
<g>
</g>
<g>
</g>
<g>
</g>
<g>
</g>
<g>
</g>
<g>
</g>
<g>
</g>
<g>
</g>
<g>
</g>
<g>
</g>
<g>
</g>
</svg>
