<?xml version="1.0" encoding="iso-8859-1"?>
<!-- Generator: Adobe Illustrator 19.0.0, SVG Export Plug-In . SVG Version: 6.00 Build 0)  -->
<svg version="1.1" id="Layer_1" xmlns="http://www.w3.org/2000/svg" xmlns:xlink="http://www.w3.org/1999/xlink" x="0px" y="0px"
	 viewBox="0 0 512 512" style="enable-background:new 0 0 512 512;" xml:space="preserve">
<path style="fill:#3AAADC;" d="M278.262,0.975C278.261,0.975,256,27.826,256,27.826L233.739,0.975
	C102.781,12.257,0,122.118,0,256.001c0,87.682,44.092,165.058,111.304,211.194l399.722-233.456
	C500.374,110.119,401.881,11.627,278.262,0.975z"/>
<path style="fill:#008CCB;" d="M511.026,233.739L278.262,0.975L256,122.436L89.045,211.478l22.261,22.261l11.13,38.958
	l-11.13,38.957v22.261l11.13,38.957l-11.13,38.957v33.391l22.261,35.639c14.09,7.69,28.985,14.091,44.522,19.053l11.13-32.431
	l11.13,38.439c14.421,3.2,29.298,5.182,44.522,5.835l11.13-44.274l11.13,44.267c15.223-0.651,30.1-2.631,44.522-5.829l11.13-38.437
	l11.13,32.433c15.536-4.959,30.432-11.351,44.522-19.037l11.13-13.394h10.722C467.731,421.375,512,343.86,512,256
	C512,248.498,511.658,241.076,511.026,233.739z"/>
<path style="fill:#A2B1B7;" d="M278.261,0.974C270.923,0.343,263.502,0,256,0l-11.13,139.13h33.391V0.974z"/>
<path style="fill:#FFFFFF;" d="M233.739,0.974V139.13H256V0C248.498,0,241.077,0.343,233.739,0.974z"/>
<rect id="SVGCleanerId_0" x="111.304" y="333.913" style="fill:#FFFFFF;" width="22.261" height="77.913"/>
<rect x="111.304" y="233.739" style="fill:#FFFFFF;" width="22.261" height="77.913"/>
<polygon style="fill:#748993;" points="300.522,100.174 256,100.174 244.87,144.696 300.522,144.696 "/>
<rect x="211.478" y="100.174" style="fill:#A2B1B7;" width="44.522" height="44.522"/>
<path style="fill:#313A3E;" d="M333.913,122.435H256l-11.13,77.913l155.826-11.13C400.696,152.333,370.796,122.435,333.913,122.435z
	"/>
<path style="fill:#414D53;" d="M178.087,122.435c-36.883,0-66.783,29.899-66.783,66.783L256,200.348v-77.913H178.087z"/>
<polygon style="fill:#C4D3D9;" points="422.957,189.217 256,189.217 243.942,200.348 256,211.478 422.957,211.478 "/>
<rect x="89.043" y="189.217" style="fill:#FFFFFF;" width="166.957" height="22.261"/>
<rect id="SVGCleanerId_1" x="178.087" y="333.913" style="fill:#FFFFFF;" width="22.261" height="77.913"/>
<rect x="178.087" y="233.739" style="fill:#FFFFFF;" width="22.261" height="77.913"/>
<rect id="SVGCleanerId_2" x="244.87" y="333.913" style="fill:#D1F1FF;" width="22.261" height="77.913"/>
<rect x="244.87" y="233.739" style="fill:#D1F1FF;" width="22.261" height="77.913"/>
<rect id="SVGCleanerId_3" x="311.652" y="333.913" style="fill:#D1F1FF;" width="22.261" height="77.913"/>
<rect x="311.652" y="233.739" style="fill:#D1F1FF;" width="22.261" height="77.913"/>
<rect id="SVGCleanerId_4" x="378.435" y="333.913" style="fill:#D1F1FF;" width="22.261" height="77.913"/>
<g>
	<rect id="SVGCleanerId_0_1_" x="111.304" y="333.913" style="fill:#FFFFFF;" width="22.261" height="77.913"/>
</g>
<g>
	<rect id="SVGCleanerId_1_1_" x="178.087" y="333.913" style="fill:#FFFFFF;" width="22.261" height="77.913"/>
</g>
<g>
	<rect id="SVGCleanerId_2_1_" x="244.87" y="333.913" style="fill:#D1F1FF;" width="22.261" height="77.913"/>
</g>
<g>
	<rect id="SVGCleanerId_3_1_" x="311.652" y="333.913" style="fill:#D1F1FF;" width="22.261" height="77.913"/>
</g>
<g>
	<rect id="SVGCleanerId_4_1_" x="378.435" y="333.913" style="fill:#D1F1FF;" width="22.261" height="77.913"/>
</g>
<g>
	<path style="fill:#FFFFFF;" d="M111.304,467.196c7.168,4.92,14.592,9.493,22.261,13.677v-35.655h-22.261V467.196z"/>
	<path style="fill:#FFFFFF;" d="M178.087,499.911c7.284,2.325,14.71,4.331,22.261,6.005v-60.699h-22.261V499.911z"/>
</g>
<g>
	<path style="fill:#D1F1FF;" d="M244.87,511.745c3.692,0.158,7.4,0.255,11.13,0.255c3.731,0,7.438-0.098,11.13-0.255v-66.528H244.87
		V511.745z"/>
	<path style="fill:#D1F1FF;" d="M311.652,505.915c7.551-1.674,14.977-3.68,22.261-6.005v-54.693h-22.261V505.915z"/>
	<path style="fill:#D1F1FF;" d="M378.435,480.873c7.669-4.184,15.093-8.757,22.261-13.677v-21.978h-22.261V480.873z"/>
	<rect x="378.435" y="233.739" style="fill:#D1F1FF;" width="22.261" height="77.913"/>
</g>
<g>
</g>
<g>
</g>
<g>
</g>
<g>
</g>
<g>
</g>
<g>
</g>
<g>
</g>
<g>
</g>
<g>
</g>
<g>
</g>
<g>
</g>
<g>
</g>
<g>
</g>
<g>
</g>
<g>
</g>
</svg>
