<?xml version="1.0" encoding="iso-8859-1"?>
<!-- Generator: Adobe Illustrator 19.0.0, SVG Export Plug-In . SVG Version: 6.00 Build 0)  -->
<svg version="1.1" id="Layer_1" xmlns="http://www.w3.org/2000/svg" xmlns:xlink="http://www.w3.org/1999/xlink" x="0px" y="0px"
	 viewBox="0 0 512 512" style="enable-background:new 0 0 512 512;" xml:space="preserve">
<path style="fill:#414D53;" d="M256,0C114.616,0,0,114.616,0,256c0,138.177,109.472,250.784,246.417,255.824l264.712-277.1
	C500.315,103.293,390.221,0,256,0z"/>
<path style="fill:#313A3E;" d="M260.735,60.654l-8.389,90.872l-79.824,37.691l26.536,26.536L74.713,340.098l171.705,171.705
	C249.599,511.92,252.79,512,256,512c141.384,0,256-114.615,256-256c0-7.166-0.309-14.258-0.887-21.275L329.54,53.152L260.735,60.654
	z"/>
<g>
	<polygon style="fill:#A2B1B7;" points="182.539,143.577 194.783,189.217 256,189.217 256,143.577 	"/>
	<polygon style="fill:#A2B1B7;" points="345.043,121.311 345.043,143.571 311.652,143.571 311.652,121.311 328.348,110.18 	"/>
</g>
<path style="fill:#C4D3D9;" d="M345.043,90.513v30.798h-33.391V90.513c0-10.741-8.737-19.478-19.478-19.478
	c-10.741,0-19.478,8.737-19.478,19.478v153.043h-33.391V90.513c0-29.151,23.719-52.87,52.87-52.87
	C321.325,37.643,345.043,61.362,345.043,90.513z"/>
<path style="fill:#3AAADC;" d="M289.391,328.348v116.87c0,18.443-14.948,33.391-33.391,33.391l-22.261-150.261H289.391z"/>
<path style="fill:#74C8EE;" d="M256,328.348v150.261c-18.443,0-33.391-14.948-33.391-33.391v-116.87H256z"/>
<path style="fill:#C4D3D9;" d="M200.348,221.485L256,366.18h118.325c49.174,0,89.043-39.869,89.043-89.043v-55.652L200.348,221.485
	L200.348,221.485z"/>
<path style="fill:#FFFFFF;" d="M48.631,277.137c0,49.174,39.869,89.043,89.043,89.043H256V221.484H48.631V277.137z"/>
<polygon style="fill:#3AAADC;" points="256,209.252 244.03,220.383 256,231.513 474.499,231.513 474.499,209.252 "/>
<rect x="37.501" y="209.252" style="fill:#74C8EE;" width="218.502" height="22.261"/>
<rect x="172.522" y="90.524" style="fill:#748993;" width="22.261" height="98.694"/>
<g>
	<rect x="82.02" y="264.904" style="fill:#C4D3D9;" width="22.261" height="22.261"/>
	<rect x="115.411" y="298.296" style="fill:#C4D3D9;" width="22.261" height="22.261"/>
</g>
<g>
</g>
<g>
</g>
<g>
</g>
<g>
</g>
<g>
</g>
<g>
</g>
<g>
</g>
<g>
</g>
<g>
</g>
<g>
</g>
<g>
</g>
<g>
</g>
<g>
</g>
<g>
</g>
<g>
</g>
</svg>
