<?xml version="1.0" encoding="iso-8859-1"?>
<!-- Generator: Adobe Illustrator 19.0.0, SVG Export Plug-In . SVG Version: 6.00 Build 0)  -->
<svg version="1.1" id="Layer_1" xmlns="http://www.w3.org/2000/svg" xmlns:xlink="http://www.w3.org/1999/xlink" x="0px" y="0px"
	 viewBox="0 0 512 512" style="enable-background:new 0 0 512 512;" xml:space="preserve">
<path style="fill:#E0315B;" d="M256,0C114.616,0,0,114.616,0,256c0,118.706,80.796,218.543,190.394,247.515l313.12-313.128
	C474.539,80.792,374.705,0,256,0z"/>
<path style="fill:#A82544;" d="M512,256c0-22.679-2.964-44.664-8.499-65.604L386.783,73.678L125.217,438.322l65.179,65.179
	C211.336,509.036,233.321,512,256,512C397.384,512,512,397.384,512,256z"/>
<polygon style="fill:#FFE2C4;" points="125.217,404.931 125.217,438.322 147.478,438.322 147.478,382.67 "/>
<g>
	<polygon style="fill:#FBC09B;" points="364.522,382.67 364.522,438.322 386.783,438.322 386.783,404.931 	"/>
	<polygon style="fill:#FBC09B;" points="256,73.678 189.217,260.235 386.783,260.235 386.783,73.678 	"/>
</g>
<rect x="125.217" y="73.672" style="fill:#FFE2C4;" width="130.783" height="186.557"/>
<polygon style="fill:#FFF9CF;" points="255.699,129.329 233.439,218.975 331.13,218.975 331.13,129.33 "/>
<rect x="180.87" y="129.325" style="fill:#FFFFFF;" width="74.83" height="89.645"/>
<path style="fill:#F5849F;" d="M386.783,260.235v22.261l-164.174,44.522L256,204.583h75.13
	C361.736,204.583,386.783,229.63,386.783,260.235z"/>
<path style="fill:#FFADC1;" d="M125.217,260.235v22.261L256,327.018V204.583h-75.13C150.264,204.583,125.217,229.63,125.217,260.235
	z"/>
<polygon style="fill:#E0315B;" points="386.783,282.496 386.783,360.409 211.478,389.971 256,282.496 "/>
<polygon style="fill:#EA5A7D;" points="256,282.496 256,382.477 125.217,360.409 125.217,282.496 "/>
<polygon style="fill:#F79E73;" points="255.699,360.409 233.439,382.67 256,404.931 386.783,404.931 386.783,360.409 "/>
<rect x="125.217" y="360.415" style="fill:#FBC09B;" width="130.783" height="44.522"/>
<g>
</g>
<g>
</g>
<g>
</g>
<g>
</g>
<g>
</g>
<g>
</g>
<g>
</g>
<g>
</g>
<g>
</g>
<g>
</g>
<g>
</g>
<g>
</g>
<g>
</g>
<g>
</g>
<g>
</g>
</svg>
