<?xml version="1.0" encoding="iso-8859-1"?>
<!-- Generator: Adobe Illustrator 19.0.0, SVG Export Plug-In . SVG Version: 6.00 Build 0)  -->
<svg version="1.1" id="Layer_1" xmlns="http://www.w3.org/2000/svg" xmlns:xlink="http://www.w3.org/1999/xlink" x="0px" y="0px"
	 viewBox="0 0 512 512" style="enable-background:new 0 0 512 512;" xml:space="preserve">
<path style="fill:#EA5A7D;" d="M256,0C114.616,0,0,114.615,0,256c0,119.523,81.911,219.915,192.66,248.104l312.682-306.362
	C478.97,84.425,377.344,0,256,0z"/>
<path style="fill:#E0315B;" d="M512,256c0-20.04-2.307-39.542-6.664-58.257l-56.604-56.604l-155.316,18.905l-50.349-50.349
	L122.274,225.018L74.574,386.009l118.087,118.087C212.919,509.252,234.138,512,256,512C397.385,512,512,397.384,512,256z"/>
<polygon style="fill:#F79E73;" points="267.13,152.275 267.13,219.058 176.49,219.058 143.026,152.275 "/>
<rect x="80.139" y="152.275" style="fill:#FBC09B;" width="96.356" height="66.783"/>
<rect x="96.835" y="285.841" style="fill:#F79E73;" width="22.261" height="100.174"/>
<polygon style="fill:#F37C4A;" points="233.739,285.835 233.739,386.009 256,386.009 267.13,285.835 "/>
<polygon style="fill:#FFF9CF;" points="154.229,219.058 176.63,289.545 265.533,289.545 265.533,219.058 "/>
<rect x="87.441" y="219.058" style="fill:#FFFFFF;" width="89.043" height="70.489"/>
<polygon style="fill:#FFE2C4;" points="74.574,152.27 74.574,386.009 96.835,386.009 96.835,237.604 119.096,152.27 "/>
<polygon style="fill:#F79E73;" points="324.452,300.675 346.713,386.009 437.426,386.009 437.426,311.806 "/>
<polygon style="fill:#FBC09B;" points="256,311.806 256,386.009 346.713,386.009 346.713,300.675 "/>
<rect x="318.887" y="337.775" style="fill:#FFFFFF;" width="55.652" height="22.261"/>
<polygon style="fill:#FBC09B;" points="324.452,226.473 346.713,311.806 437.426,311.806 437.426,237.604 "/>
<polygon style="fill:#FFE2C4;" points="256,237.604 256,311.806 346.713,311.806 346.713,226.473 "/>
<rect x="318.887" y="263.58" style="fill:#FFFFFF;" width="55.652" height="22.261"/>
<polygon style="fill:#F79E73;" points="324.452,152.27 346.713,237.604 437.426,237.604 437.426,163.4 "/>
<polygon style="fill:#FBC09B;" points="256,163.4 233.739,237.604 346.713,237.604 346.713,152.27 "/>
<rect x="318.887" y="189.373" style="fill:#FFFFFF;" width="55.652" height="22.261"/>
<polygon style="fill:#FFE2C4;" points="256,141.139 230.219,152.27 256.344,163.4 448.732,163.4 448.732,141.139 "/>
<rect x="63.622" y="141.145" style="fill:#FFFFFF;" width="192.735" height="22.261"/>
<path style="fill:#FFF296;" d="M211.624,96.618H176.49l-10.655,72.35l10.798,68.635h79.514v-96.464
	C256.146,116.653,236.111,96.618,211.624,96.618z"/>
<path style="fill:#FFF9CF;" d="M141.357,96.618c-24.487,0-44.522,20.035-44.522,44.522v96.464h79.655V96.618H141.357z"/>
<g>
</g>
<g>
</g>
<g>
</g>
<g>
</g>
<g>
</g>
<g>
</g>
<g>
</g>
<g>
</g>
<g>
</g>
<g>
</g>
<g>
</g>
<g>
</g>
<g>
</g>
<g>
</g>
<g>
</g>
</svg>
