<?xml version="1.0" encoding="iso-8859-1"?>
<!-- Generator: Adobe Illustrator 19.0.0, SVG Export Plug-In . SVG Version: 6.00 Build 0)  -->
<svg version="1.1" id="Layer_1" xmlns="http://www.w3.org/2000/svg" xmlns:xlink="http://www.w3.org/1999/xlink" x="0px" y="0px"
	 viewBox="0 0 512 512" style="enable-background:new 0 0 512 512;" xml:space="preserve">
<path style="fill:#FEEB5C;" d="M256,0C114.615,0,0,114.616,0,256c0,120.854,83.744,222.148,196.37,249.019l312.185-291.123
	C488.474,92.544,383.044,0,256,0z"/>
<path style="fill:#FAC656;" d="M512,256c0-14.342-1.199-28.402-3.466-42.101L352.559,57.923l-246.82,248.164l66.226,66.226
	l-31.88,76.402l56.288,56.288C215.506,509.568,235.468,512,256,512C397.384,512,512,397.384,512,256z"/>
<g>
	<rect x="244.87" y="372.87" style="fill:#748993;" width="22.261" height="60.104"/>
	<polygon style="fill:#748993;" points="345.043,377.322 345.043,432.974 367.304,432.974 367.304,388.452 	"/>
</g>
<polygon style="fill:#A2B1B7;" points="144.696,388.452 144.696,432.974 166.957,432.974 166.957,377.322 "/>
<path style="fill:#313A3E;" d="M317.217,44.522c24.487,0,48.778,19.577,53.979,43.506l18.369,84.494v100.174H222.609L256,44.522
	H317.217z"/>
<rect x="233.739" y="272.696" style="fill:#414D53;" width="44.522" height="100.174"/>
<rect x="144.696" y="366.191" style="fill:#57676E;" width="222.609" height="22.261"/>
<circle style="fill:#414D53;" cx="155.826" cy="432.974" r="22.261"/>
<g>
	<circle style="fill:#313A3E;" cx="256" cy="432.974" r="22.261"/>
	<circle style="fill:#313A3E;" cx="356.174" cy="432.974" r="22.261"/>
</g>
<path style="fill:#414D53;" d="M194.783,44.522c-24.487,0-48.778,19.577-53.979,43.506l-18.369,84.494v100.174H256V44.522H194.783z"
	/>
<path style="fill:#748993;" d="M372.87,250.435L384,283.826H192l44.522-89.043h80.696
	C347.823,194.783,372.87,219.829,372.87,250.435z"/>
<path style="fill:#A2B1B7;" d="M189.217,194.783c-30.605,0-50.087,25.047-50.087,55.652L128,283.826h128v-89.043H189.217z"/>
<polygon style="fill:#57676E;" points="372.87,172.522 372.87,272.696 256,272.696 238.171,294.957 256,306.087 406.261,306.087 
	406.261,172.522 "/>
<polygon style="fill:#748993;" points="139.13,272.696 139.13,172.522 105.739,172.522 105.739,306.087 256,306.087 256,272.696 "/>
<g>
</g>
<g>
</g>
<g>
</g>
<g>
</g>
<g>
</g>
<g>
</g>
<g>
</g>
<g>
</g>
<g>
</g>
<g>
</g>
<g>
</g>
<g>
</g>
<g>
</g>
<g>
</g>
<g>
</g>
</svg>
