<?xml version="1.0" encoding="iso-8859-1"?>
<!-- Generator: Adobe Illustrator 19.0.0, SVG Export Plug-In . SVG Version: 6.00 Build 0)  -->
<svg version="1.1" id="Layer_1" xmlns="http://www.w3.org/2000/svg" xmlns:xlink="http://www.w3.org/1999/xlink" x="0px" y="0px"
	 viewBox="0 0 512 512" style="enable-background:new 0 0 512 512;" xml:space="preserve">
<path style="fill:#ED6350;" d="M511.426,272.986C511.794,267.37,512,261.709,512,256C512,114.616,397.385,0,256,0
	C114.616,0,0,114.616,0,256c0,130.553,97.73,238.275,224.019,254.014L511.426,272.986z"/>
<g>
	<path style="fill:#E0315B;" d="M511.426,272.986L387.435,148.995L47.861,333.856l176.158,176.158
		C234.497,511.32,245.169,512,256,512C391.676,512,502.68,406.449,511.426,272.986z"/>
	<polygon style="fill:#E0315B;" points="267.13,72.292 316.954,122.114 226.824,112.599 	"/>
</g>
<rect x="244.87" y="72.292" style="fill:#A2B1B7;" width="22.261" height="77.913"/>
<path style="fill:#C4D3D9;" d="M441.878,280.43c0-102.655-83.221-185.878-185.878-185.878l-22.261,228.174h208.139V280.43z"/>
<path style="fill:#FFFFFF;" d="M70.122,280.43v42.296H256V94.552C153.342,94.552,70.122,177.775,70.122,280.43z"/>
<polygon style="fill:#A2B1B7;" points="445.588,322.726 233.739,322.726 256,367.248 430.748,367.248 "/>
<polygon style="fill:#C4D3D9;" points="66.412,322.726 81.252,367.248 256,367.248 256,322.726 "/>
<polygon style="fill:#748993;" points="464.139,311.595 256,311.595 233.739,322.726 256,333.856 464.139,333.856 "/>
<rect x="47.861" y="311.597" style="fill:#A2B1B7;" width="208.139" height="22.261"/>
<g>
	<rect x="125.774" y="233.683" style="fill:#C4D3D9;" width="22.261" height="22.261"/>
	<rect x="92.383" y="267.075" style="fill:#C4D3D9;" width="22.261" height="22.261"/>
</g>
<g>
</g>
<g>
</g>
<g>
</g>
<g>
</g>
<g>
</g>
<g>
</g>
<g>
</g>
<g>
</g>
<g>
</g>
<g>
</g>
<g>
</g>
<g>
</g>
<g>
</g>
<g>
</g>
<g>
</g>
</svg>
