<?xml version="1.0" encoding="iso-8859-1"?>
<!-- Generator: Adobe Illustrator 19.0.0, SVG Export Plug-In . SVG Version: 6.00 Build 0)  -->
<svg version="1.1" id="Layer_1" xmlns="http://www.w3.org/2000/svg" xmlns:xlink="http://www.w3.org/1999/xlink" x="0px" y="0px"
	 viewBox="0 0 512 512" style="enable-background:new 0 0 512 512;" xml:space="preserve">
<path style="fill:#A65A3A;" d="M503.214,189.335C473.876,80.279,374.321,0,256,0C114.616,0,0,114.616,0,256
	c0,118.321,80.279,217.876,189.335,247.214L503.214,189.335z"/>
<path style="fill:#7A3E25;" d="M512,256c0-23.063-3.069-45.407-8.786-66.665l-96.953-96.953l-34.948,34.948L83.478,203.687
	l46.568,46.568l1.083,102.081l-47.65,45.022l105.857,105.857C210.592,508.932,232.937,512,256,512C397.384,512,512,397.384,512,256z
	"/>
<rect x="395.13" y="148.035" style="fill:#FEEB5C;" width="55.652" height="66.783"/>
<rect x="116.87" y="148.035" style="fill:#FFFFFF;" width="22.261" height="166.957"/>
<rect x="105.739" y="148.035" style="fill:#394449;" width="44.522" height="77.913"/>
<rect x="139.13" y="92.383" style="fill:#FFFFFF;" width="22.261" height="77.913"/>
<rect x="384" y="92.383" style="fill:#A2B1B7;" width="22.261" height="77.913"/>
<polygon style="fill:#74C8EE;" points="256,114.643 233.739,148.035 256,181.426 317.217,181.426 317.217,341.704 428.522,308.313 
	428.522,114.643 "/>
<polygon style="fill:#D1F1FF;" points="83.478,114.643 83.478,203.687 172.523,203.687 183.653,181.426 256,181.426 256,114.643 "/>
<polygon style="fill:#AEE6FF;" points="256,308.313 244.87,386.226 428.522,375.096 428.522,308.313 "/>
<polygon style="fill:#FFFFFF;" points="256,308.313 83.478,308.313 83.478,375.096 256,386.226 "/>
<polygon style="fill:#A2B1B7;" points="256,397.357 428.522,397.357 428.522,375.096 256,375.096 244.87,386.226 "/>
<rect x="83.478" y="375.096" style="fill:#C4D3D9;" width="172.522" height="22.261"/>
<path style="fill:#FEEB5C;" d="M372.87,181.426l-8.904,22.261l8.904,22.261c12.295,0,22.261-9.967,22.261-22.261
	S385.164,181.426,372.87,181.426z"/>
<path style="fill:#FFFFFF;" d="M350.609,203.687c0,12.294,9.966,22.261,22.261,22.261v-44.522
	C360.575,181.426,350.609,191.393,350.609,203.687z"/>
<path style="fill:#FEEB5C;" d="M372.87,248.209l-8.904,22.261l8.904,22.261c12.295,0,22.261-9.967,22.261-22.261
	C395.13,258.176,385.164,248.209,372.87,248.209z"/>
<path style="fill:#FFFFFF;" d="M350.609,270.47c0,12.294,9.966,22.261,22.261,22.261v-44.522
	C360.575,248.209,350.609,258.176,350.609,270.47z"/>
<rect x="139.13" y="136.904" style="fill:#74C8EE;" width="22.261" height="22.261"/>
<g>
</g>
<g>
</g>
<g>
</g>
<g>
</g>
<g>
</g>
<g>
</g>
<g>
</g>
<g>
</g>
<g>
</g>
<g>
</g>
<g>
</g>
<g>
</g>
<g>
</g>
<g>
</g>
<g>
</g>
</svg>
