<?xml version="1.0" encoding="iso-8859-1"?>
<!-- Generator: Adobe Illustrator 19.0.0, SVG Export Plug-In . SVG Version: 6.00 Build 0)  -->
<svg version="1.1" id="Layer_1" xmlns="http://www.w3.org/2000/svg" xmlns:xlink="http://www.w3.org/1999/xlink" x="0px" y="0px"
	 viewBox="0 0 512 512" style="enable-background:new 0 0 512 512;" xml:space="preserve">
<path style="fill:#FEEB5C;" d="M256,0C114.616,0,0,114.616,0,256c0,119.947,82.493,220.627,193.84,248.401l309.393-315.07
	C473.896,80.273,374.322,0,256,0z"/>
<path style="fill:#FAC656;" d="M512,256c0-23.063-3.068-45.408-8.786-66.665l-69.127-69.127L77.913,365.078l58.621,58.621
	l-9.647,13.727l66.96,66.96C213.747,509.35,234.563,512,256,512C397.384,512,512,397.384,512,256z"/>
<polygon style="fill:#FFF296;" points="289.391,326.122 311.652,415.165 256,415.165 222.609,326.122 "/>
<polygon style="fill:#FFF9CF;" points="256,326.122 256,415.165 200.348,415.165 222.609,326.122 "/>
<polygon style="fill:#57676E;" points="256,415.165 246.275,426.296 256,437.426 385.113,437.426 385.113,415.165 "/>
<rect x="126.887" y="415.165" style="fill:#748993;" width="129.113" height="22.261"/>
<polygon style="fill:#57676E;" points="256,120.209 230.067,242.643 256,365.078 434.087,365.078 434.087,120.209 "/>
<rect x="77.913" y="120.209" style="fill:#748993;" width="178.087" height="244.87"/>
<polygon style="fill:#313A3E;" points="256,144.696 233.308,244.87 256,345.043 411.826,345.043 411.826,144.696 "/>
<rect x="100.174" y="144.696" style="fill:#394449;" width="155.826" height="200.348"/>
<g>
	<rect x="122.435" y="166.957" style="fill:#414D53;" width="22.261" height="111.304"/>
	<rect x="122.435" y="300.522" style="fill:#414D53;" width="22.261" height="22.261"/>
</g>
<g>
</g>
<g>
</g>
<g>
</g>
<g>
</g>
<g>
</g>
<g>
</g>
<g>
</g>
<g>
</g>
<g>
</g>
<g>
</g>
<g>
</g>
<g>
</g>
<g>
</g>
<g>
</g>
<g>
</g>
</svg>
