<?xml version="1.0" encoding="iso-8859-1"?>
<!-- Generator: Adobe Illustrator 19.0.0, SVG Export Plug-In . SVG Version: 6.00 Build 0)  -->
<svg version="1.1" id="Layer_1" xmlns="http://www.w3.org/2000/svg" xmlns:xlink="http://www.w3.org/1999/xlink" x="0px" y="0px"
	 viewBox="0 0 512 512" style="enable-background:new 0 0 512 512;" xml:space="preserve">
<path style="fill:#FEEB5C;" d="M256,0C114.616,0,0,114.616,0,256c0,119.947,82.493,220.627,193.84,248.401l309.393-315.07
	C473.896,80.273,374.322,0,256,0z"/>
<path style="fill:#FAC656;" d="M512,256c0-23.063-3.068-45.408-8.786-66.665l-69.127-69.127L77.913,365.078l58.621,58.621
	l-9.647,13.727l66.96,66.96C213.747,509.35,234.563,512,256,512C397.384,512,512,397.384,512,256z"/>
<polygon style="fill:#FFF296;" points="289.391,326.122 311.652,415.165 256,415.165 222.609,326.122 "/>
<polygon style="fill:#FFF9CF;" points="256,326.122 256,415.165 200.348,415.165 222.609,326.122 "/>
<polygon style="fill:#57676E;" points="256,415.165 246.275,426.296 256,437.426 385.113,437.426 385.113,415.165 "/>
<rect x="126.887" y="415.165" style="fill:#748993;" width="129.113" height="22.261"/>
<path style="fill:#57676E;" d="M256,136.96l-44.522,105.683L256,348.327c59.774,0,119.53,5.629,178.087,16.751v-244.87
	C375.53,131.331,315.765,136.96,256,136.96z"/>
<path style="fill:#748993;" d="M77.913,120.209v244.87C136.47,353.956,196.226,348.327,256,348.327V136.96
	C196.235,136.96,136.47,131.331,77.913,120.209z"/>
<path style="fill:#313A3E;" d="M256,159.222l-44.522,83.421L256,326.065c52.09,0,104.387,4.201,155.826,12.504V146.717
	C360.387,155.02,308.09,159.222,256,159.222z"/>
<path style="fill:#394449;" d="M100.174,146.717v191.852c51.439-8.303,103.736-12.504,155.826-12.504V159.222
	C203.91,159.222,151.613,155.02,100.174,146.717z"/>
<g>
	<rect x="122.435" y="178.087" style="fill:#414D53;" width="22.261" height="89.043"/>
	<rect x="122.435" y="289.391" style="fill:#414D53;" width="22.261" height="22.261"/>
</g>
<g>
</g>
<g>
</g>
<g>
</g>
<g>
</g>
<g>
</g>
<g>
</g>
<g>
</g>
<g>
</g>
<g>
</g>
<g>
</g>
<g>
</g>
<g>
</g>
<g>
</g>
<g>
</g>
<g>
</g>
</svg>
