<?xml version="1.0" encoding="iso-8859-1"?>
<!-- Generator: Adobe Illustrator 19.0.0, SVG Export Plug-In . SVG Version: 6.00 Build 0)  -->
<svg version="1.1" id="Layer_1" xmlns="http://www.w3.org/2000/svg" xmlns:xlink="http://www.w3.org/1999/xlink" x="0px" y="0px"
	 viewBox="0 0 512 512" style="enable-background:new 0 0 512 512;" xml:space="preserve">
<path style="fill:#008CCB;" d="M256,0C114.616,0,0,114.616,0,256c0,125.252,89.951,229.495,208.778,251.654l299.887-293.08
	C488.866,92.888,383.281,0,256,0z"/>
<path style="fill:#006998;" d="M155.826,454.678l52.96,52.96C224.09,510.492,239.869,512,256,512c141.385,0,256-114.616,256-256
	c0-14.106-1.159-27.937-3.354-41.423L377.992,83.921L259.8,407.43L155.826,454.678z"/>
<polygon style="fill:#D1F1FF;" points="300.522,421.287 244.87,432.974 256,367.304 289.391,367.304 "/>
<polygon style="fill:#FFFFFF;" points="211.478,421.287 256,432.974 256,367.304 222.609,367.304 "/>
<rect x="244.87" y="399.026" style="fill:#007BB2;" width="22.261" height="33.391"/>
<path style="fill:#3AAADC;" d="M322.783,421.287H256l-22.261,16.696L256,454.678h100.174
	C356.174,436.313,341.148,421.287,322.783,421.287z"/>
<path style="fill:#74C8EE;" d="M256,454.678H155.826c0-18.365,15.026-33.391,33.391-33.391H256V454.678z"/>
<path style="fill:#3AAADC;" d="M256,33.391l-69.009,172.522L256,378.435c95.281,0,172.522-77.241,172.522-172.522
	S351.281,33.391,256,33.391z"/>
<path style="fill:#74C8EE;" d="M83.478,205.913c0,95.281,77.241,172.522,172.522,172.522V33.391
	C160.719,33.391,83.478,110.632,83.478,205.913z"/>
<path style="fill:#D1F1FF;" d="M256,55.652l-60.104,150.261L256,356.174c82.987,0,150.261-67.273,150.261-150.261
	S338.987,55.652,256,55.652z"/>
<path style="fill:#FFFFFF;" d="M105.739,205.913c0,82.987,67.273,150.261,150.261,150.261V55.652
	C173.013,55.652,105.739,122.927,105.739,205.913z"/>
<path style="fill:#007BB2;" d="M242.927,75.13h-15.866V198.82h57.878v-81.677C284.939,93.936,266.133,75.13,242.927,75.13z"/>
<path style="fill:#006998;" d="M269.073,336.696h15.866V213.006h-57.878v81.677C227.061,317.89,245.867,336.696,269.073,336.696z"/>
<path style="fill:#007BB2;" d="M248.907,176.974h-81.677c-23.207,0-42.012,18.806-42.012,42.012v15.866h123.69L248.907,176.974z"/>
<path style="fill:#006998;" d="M263.093,176.974v57.878h81.677c23.207,0,42.012-18.806,42.012-42.013v-15.865H263.093z"/>
<path style="fill:#AEE6FF;" d="M256,165.009l-16.362,40.904L256,246.817c22.59,0,40.904-18.314,40.904-40.904
	S278.59,165.009,256,165.009z"/>
<path style="fill:#D1F1FF;" d="M215.096,205.913c0,22.59,18.314,40.904,40.904,40.904v-81.809
	C233.41,165.009,215.096,183.323,215.096,205.913z"/>
<circle style="fill:#FFFFFF;" cx="256" cy="205.913" r="22.261"/>
<g>
</g>
<g>
</g>
<g>
</g>
<g>
</g>
<g>
</g>
<g>
</g>
<g>
</g>
<g>
</g>
<g>
</g>
<g>
</g>
<g>
</g>
<g>
</g>
<g>
</g>
<g>
</g>
<g>
</g>
</svg>
