<?xml version="1.0" encoding="iso-8859-1"?>
<!-- Generator: Adobe Illustrator 19.0.0, SVG Export Plug-In . SVG Version: 6.00 Build 0)  -->
<svg version="1.1" id="Layer_1" xmlns="http://www.w3.org/2000/svg" xmlns:xlink="http://www.w3.org/1999/xlink" x="0px" y="0px"
	 viewBox="0 0 512 512" style="enable-background:new 0 0 512 512;" xml:space="preserve">
<circle style="fill:#273B7A;" cx="256" cy="256" r="256"/>
<path style="fill:#121149;" d="M311.312,505.989c112.176-24.709,196.742-122.978,200.54-241.657L400.568,153.048l-20.049-8.351
	h-43.208l-28.688,28.688l-41.155,140.741l-148.67-148.67l-6.751,5.777l-4.237-4.237l-31.349,35.831l137.421,137.421l-39.569,28.741
	L311.312,505.989z"/>
<path style="fill:#FEE187;" d="M327.177,325.62v-17.239c20.382,0,72.77-54.879,72.77-115.426c0-21.742-17.91-39.431-39.92-39.431
	c-21.74,0-39.429,17.689-39.429,39.431h-17.239c0-31.248,25.421-56.67,56.668-56.67c31.518,0,57.16,25.422,57.16,56.67
	c0,29.782-11.817,62.897-32.425,90.855C369.862,304.021,346.912,325.62,327.177,325.62z"/>
<polygon style="fill:#EAA22F;" points="209.282,224.568 152.862,224.568 99.244,175.719 87.714,184.33 181.872,341.045 
	179.605,266.954 179.862,267.312 "/>
<path style="fill:#FFC61B;" d="M313.578,379.444H197.134c-17.66,0-31.541-15.103-30.055-32.699l15.046-178.242h146.463
	l15.046,178.242C345.119,364.341,331.236,379.444,313.578,379.444z"/>
<g>
	<path style="fill:#EAA22F;" d="M343.633,346.745l-15.046-178.242h-72.73v210.942h57.722
		C331.236,379.444,345.119,364.341,343.633,346.745z"/>
	<polygon style="fill:#EAA22F;" points="328.587,168.503 182.124,168.503 178.938,206.25 331.774,206.25 	"/>
</g>
<polygon style="fill:#E09112;" points="328.587,168.503 255.857,168.503 255.857,206.25 331.774,206.25 "/>
<rect x="63.927" y="169.657" transform="matrix(-0.7497 0.6618 -0.6618 -0.7497 279.012 250.3364)" style="fill:#FF5419;" width="56.473" height="16.553"/>
<g>
</g>
<g>
</g>
<g>
</g>
<g>
</g>
<g>
</g>
<g>
</g>
<g>
</g>
<g>
</g>
<g>
</g>
<g>
</g>
<g>
</g>
<g>
</g>
<g>
</g>
<g>
</g>
<g>
</g>
</svg>
