<?xml version="1.0" encoding="iso-8859-1"?>
<!-- Generator: Adobe Illustrator 19.0.0, SVG Export Plug-In . SVG Version: 6.00 Build 0)  -->
<svg version="1.1" id="Layer_1" xmlns="http://www.w3.org/2000/svg" xmlns:xlink="http://www.w3.org/1999/xlink" x="0px" y="0px"
	 viewBox="0 0 512 512" style="enable-background:new 0 0 512 512;" xml:space="preserve">
<circle style="fill:#273B7A;" cx="256" cy="256" r="256"/>
<path style="fill:#121149;" d="M265.583,511.803c133.663-4.922,241.14-112.304,246.21-245.929L327.79,81.873l-4.23,44.73
	l-20.635-20.635l-0.271,1.336l-25.433-25.431l-3.982,62.935l27.152,98.139L214.044,156.6l-0.49,48.485l-24.436-24.436l-0.036,1.56
	L163.475,156.6l-4.656,88.126l-6.37,86.681l36.84,36.84l-4.973,62.288L265.583,511.803z"/>
<g>
	<path style="fill:#FFEDB5;" d="M274.675,165.495c-2.381,0-4.31-1.929-4.31-4.31V85.333c0-2.381,1.929-4.31,4.31-4.31
		s4.31,1.929,4.31,4.31v75.852C278.985,163.566,277.056,165.495,274.675,165.495z"/>
	<path style="fill:#FFEDB5;" d="M325.244,165.495c-2.381,0-4.31-1.929-4.31-4.31V85.333c0-2.381,1.929-4.31,4.31-4.31
		c2.381,0,4.31,1.929,4.31,4.31v75.852C329.554,163.566,327.625,165.495,325.244,165.495z"/>
</g>
<path style="fill:#FEE187;" d="M299.96,186.47h-18.908c-12.407,0-22.466-10.059-22.466-22.466v-28.103h18.908
	c12.407,0,22.466,10.059,22.466,22.466V186.47z"/>
<path style="fill:#EAA22F;" d="M299.96,224.396h-18.908c-12.407,0-22.466-10.059-22.466-22.466v-28.101h18.908
	c12.407,0,22.466,10.059,22.466,22.466V224.396z"/>
<path style="fill:#FEE187;" d="M299.96,262.322h-18.908c-12.407,0-22.466-10.059-22.466-22.466v-28.101h18.908
	c12.407,0,22.466,10.059,22.466,22.466V262.322z"/>
<path style="fill:#FFC61B;" d="M299.96,186.47h18.908c12.407,0,22.466-10.059,22.466-22.466v-28.103h-18.908
	c-12.407,0-22.466,10.059-22.466,22.466V186.47z"/>
<path style="fill:#E09112;" d="M299.96,224.396h18.908c12.407,0,22.466-10.059,22.466-22.466v-28.101h-18.908
	c-12.407,0-22.466,10.059-22.466,22.466V224.396z"/>
<path style="fill:#FFC61B;" d="M299.96,262.322h18.908c12.407,0,22.466-10.059,22.466-22.466v-28.101h-18.908
	c-12.407,0-22.466,10.059-22.466,22.466V262.322z"/>
<path style="fill:#EAA22F;" d="M299.96,430.976c-2.381,0-4.31-1.929-4.31-4.31V109.084c0-2.381,1.929-4.31,4.31-4.31
	s4.31,1.929,4.31,4.31v317.583C304.269,429.047,302.34,430.976,299.96,430.976z"/>
<path style="fill:#E09112;" d="M299.96,104.774c2.381,0,4.31,1.929,4.31,4.31v317.583c0,2.381-1.929,4.31-4.31,4.31V104.774z"/>
<g>
	<path style="fill:#FFEDB5;" d="M160.897,240.197c-2.381,0-4.31-1.929-4.31-4.31v-75.852c0-2.381,1.929-4.31,4.31-4.31
		s4.31,1.929,4.31,4.31v75.852C165.207,238.268,163.278,240.197,160.897,240.197z"/>
	<path style="fill:#FFEDB5;" d="M211.466,240.197c-2.381,0-4.31-1.929-4.31-4.31v-75.852c0-2.381,1.929-4.31,4.31-4.31
		s4.31,1.929,4.31,4.31v75.852C215.776,238.268,213.847,240.197,211.466,240.197z"/>
</g>
<path style="fill:#FEE187;" d="M186.182,261.172h-18.908c-12.407,0-22.466-10.059-22.466-22.466v-28.101h18.908
	c12.407,0,22.466,10.059,22.466,22.466V261.172z"/>
<path style="fill:#EAA22F;" d="M186.182,299.098h-18.908c-12.407,0-22.466-10.059-22.466-22.466V248.53h18.908
	c12.407,0,22.466,10.059,22.466,22.466V299.098z"/>
<path style="fill:#FEE187;" d="M186.182,337.024h-18.908c-12.407,0-22.466-10.059-22.466-22.466v-28.101h18.908
	c12.407,0,22.466,10.059,22.466,22.466V337.024z"/>
<path style="fill:#FFC61B;" d="M186.182,261.172h18.908c12.407,0,22.466-10.059,22.466-22.466v-28.101h-18.908
	c-12.407,0-22.466,10.059-22.466,22.466V261.172z"/>
<path style="fill:#E09112;" d="M186.182,299.098h18.908c12.407,0,22.466-10.059,22.466-22.466V248.53h-18.908
	c-12.407,0-22.466,10.059-22.466,22.466V299.098z"/>
<path style="fill:#FFC61B;" d="M186.182,337.024h18.908c12.407,0,22.466-10.059,22.466-22.466v-28.101h-18.908
	c-12.407,0-22.466,10.059-22.466,22.466V337.024z"/>
<path style="fill:#EAA22F;" d="M186.182,430.976c-2.381,0-4.31-1.929-4.31-4.31V183.787c0-2.381,1.929-4.31,4.31-4.31
	s4.31,1.929,4.31,4.31v242.879C190.492,429.047,188.563,430.976,186.182,430.976z"/>
<path style="fill:#E09112;" d="M186.182,179.478c2.381,0,4.31,1.929,4.31,4.31v242.879c0,2.381-1.929,4.31-4.31,4.31V179.478z"/>
<g>
</g>
<g>
</g>
<g>
</g>
<g>
</g>
<g>
</g>
<g>
</g>
<g>
</g>
<g>
</g>
<g>
</g>
<g>
</g>
<g>
</g>
<g>
</g>
<g>
</g>
<g>
</g>
<g>
</g>
</svg>
