<?xml version="1.0" encoding="iso-8859-1"?>
<!-- Generator: Adobe Illustrator 19.0.0, SVG Export Plug-In . SVG Version: 6.00 Build 0)  -->
<svg version="1.1" id="Layer_1" xmlns="http://www.w3.org/2000/svg" xmlns:xlink="http://www.w3.org/1999/xlink" x="0px" y="0px"
	 viewBox="0 0 512 512" style="enable-background:new 0 0 512 512;" xml:space="preserve">
<circle style="fill:#E09112;" cx="256" cy="256" r="256"/>
<path style="fill:#FF5419;" d="M296.927,508.73c108.113-17.374,193.577-102.434,211.559-210.342L396.374,186.275l-140.503,93.093
	L74.719,257.365l93.341,93.182l-14.493,14.82L296.927,508.73z"/>
<path style="fill:#386895;" d="M399.508,190.548c-1.995-4.396-6.273-7.315-11.093-7.568l-241.824-12.726
	c-4.224-0.228-8.28,1.629-10.878,4.961s-3.403,7.721-2.158,11.759l26.162,84.851c1.291,4.191,4.62,7.439,8.838,8.633l130.107,36.769
	c1.164,0.328,2.345,0.486,3.517,0.486c3.905,0,7.677-1.77,10.166-4.941l85.557-108.892
	C400.882,200.083,401.503,194.943,399.508,190.548z"/>
<path style="fill:#273B7A;" d="M399.508,190.548c-1.995-4.396-6.273-7.315-11.093-7.568l-132.991-6.999v129.026l43.236,12.219
	c1.164,0.328,2.345,0.486,3.517,0.486c3.905,0,7.677-1.77,10.166-4.941L397.9,203.879
	C400.882,200.083,401.503,194.943,399.508,190.548z"/>
<path style="fill:#808183;" d="M348.665,305.905L87.043,235.56c-6.887-1.845-13.988,2.234-15.843,9.13
	c-1.853,6.896,2.234,13.988,9.13,15.843l69.622,18.72v77.15c0,4.984,2.863,9.521,7.361,11.669c1.772,0.846,3.675,1.26,5.566,1.26
	c2.907,0,5.787-0.979,8.135-2.877l75.642-61.2l95.297,25.624c1.124,0.302,2.253,0.447,3.365,0.447
	c5.704,0,10.926-3.805,12.478-9.576C359.65,314.854,355.561,307.76,348.665,305.905z M175.809,329.309v-43.105l39.986,10.752
	L175.809,329.309z"/>
<path style="fill:#59595B;" d="M348.665,305.905l-93.241-25.071v26.777l86.526,23.266c1.124,0.302,2.253,0.446,3.365,0.446
	c5.704,0,10.926-3.805,12.478-9.576C359.65,314.854,355.561,307.76,348.665,305.905z"/>
<path style="fill:#272525;" d="M360.867,293.976c-21.556,0-39.093,17.536-39.093,39.091s17.537,39.093,39.093,39.093
	c21.556,0,39.091-17.537,39.091-39.093S382.421,293.976,360.867,293.976z"/>
<g>
</g>
<g>
</g>
<g>
</g>
<g>
</g>
<g>
</g>
<g>
</g>
<g>
</g>
<g>
</g>
<g>
</g>
<g>
</g>
<g>
</g>
<g>
</g>
<g>
</g>
<g>
</g>
<g>
</g>
</svg>
