<?xml version="1.0" encoding="iso-8859-1"?>
<!-- Generator: Adobe Illustrator 19.0.0, SVG Export Plug-In . SVG Version: 6.00 Build 0)  -->
<svg version="1.1" id="Layer_1" xmlns="http://www.w3.org/2000/svg" xmlns:xlink="http://www.w3.org/1999/xlink" x="0px" y="0px"
	 viewBox="0 0 512 512" style="enable-background:new 0 0 512 512;" xml:space="preserve">
<path style="fill:#EA5A7D;" d="M256,0C114.616,0,0,114.616,0,256c0,119.42,81.771,219.737,192.374,248.026l311.652-311.652
	C475.737,81.771,375.42,0,256,0z"/>
<path style="fill:#E0315B;" d="M512,256c0-21.965-2.77-43.283-7.974-63.626L389.565,77.913l-267.13,44.522l44.522,44.522
	l-44.522,267.13l69.939,69.939C212.717,509.23,234.035,512,256,512C397.384,512,512,397.384,512,256z"/>
<g>
	<polygon style="fill:#F37C4A;" points="345.043,237.449 345.043,204.058 256,204.058 233.739,220.753 256,237.449 	"/>
	<polygon style="fill:#F37C4A;" points="361.739,352.464 361.739,319.073 256,319.073 233.739,335.768 256,352.464 	"/>
</g>
<g>
	<rect x="150.261" y="319.076" style="fill:#F79E73;" width="105.739" height="33.391"/>
	<rect x="166.957" y="204.054" style="fill:#F79E73;" width="89.043" height="33.391"/>
</g>
<polygon style="fill:#FBC09B;" points="144.696,100.174 122.435,434.087 166.957,434.087 189.217,100.174 "/>
<polygon style="fill:#F79E73;" points="367.304,100.174 322.783,100.174 345.043,434.087 389.565,434.087 "/>
<polygon style="fill:#FBC09B;" points="389.565,77.913 256,77.913 233.739,100.174 256,122.435 389.565,122.435 "/>
<rect x="122.435" y="77.913" style="fill:#FFE2C4;" width="133.565" height="44.522"/>
<g>
</g>
<g>
</g>
<g>
</g>
<g>
</g>
<g>
</g>
<g>
</g>
<g>
</g>
<g>
</g>
<g>
</g>
<g>
</g>
<g>
</g>
<g>
</g>
<g>
</g>
<g>
</g>
<g>
</g>
</svg>
