<?xml version="1.0" encoding="iso-8859-1"?>
<!-- Generator: Adobe Illustrator 19.0.0, SVG Export Plug-In . SVG Version: 6.00 Build 0)  -->
<svg version="1.1" id="Layer_1" xmlns="http://www.w3.org/2000/svg" xmlns:xlink="http://www.w3.org/1999/xlink" x="0px" y="0px"
	 viewBox="0 0 511.944 511.944" style="enable-background:new 0 0 511.944 511.944;" xml:space="preserve">
<path style="fill:#FFF296;" d="M444.734,138.979l60.487,60.487C479.59,85.301,377.625,0,255.722,0C114.491,0,0,114.491,0,255.722
	c0,121.902,85.302,223.869,199.468,249.499L444.734,138.979z"/>
<path style="fill:none;stroke:#BA78DD;stroke-miterlimit:10;" d="M505.221,199.467c4.065,18.103,6.223,36.926,6.223,56.256
	c0,141.232-114.491,255.722-255.722,255.722c-19.329,0-38.151-2.158-56.254-6.223"/>
<path style="fill:#FEEB5C;" d="M511.444,255.722c0-19.329-2.158-38.153-6.223-56.256l-60.487-60.487l-41.239,25.471l-25.471-25.471
	l-15.768,50.942l-50.942-50.942l-10.674,56.036l-56.036-56.036l-10.674,56.036l-56.036-56.036l-10.674,56.036l-56.036-56.036
	L66.71,372.465l132.758,132.758c18.103,4.064,36.925,6.222,56.254,6.222C396.954,511.444,511.444,396.954,511.444,255.722z"/>
<polygon style="fill:#A65A3A;" points="411.379,327.991 255.722,327.991 233.485,339.11 255.722,350.228 411.379,350.228 "/>
<rect x="100.065" y="327.991" style="fill:#D3754F;" width="155.657" height="22.237"/>
<polygon style="fill:#A65A3A;" points="411.379,161.216 255.722,161.216 233.485,172.334 255.722,183.453 411.379,183.453 "/>
<rect x="100.065" y="161.216" style="fill:#D3754F;" width="155.657" height="22.237"/>
<g>
	<polygon style="fill:#F79E73;" points="111.184,372.465 66.71,372.465 66.71,138.979 88.947,116.743 111.184,138.979 	"/>
	<polygon style="fill:#F79E73;" points="177.894,372.465 133.42,372.465 133.42,138.979 155.657,116.743 177.894,138.979 	"/>
	<polygon style="fill:#F79E73;" points="244.604,372.465 200.13,372.465 200.13,138.979 222.367,116.743 244.604,138.979 	"/>
</g>
<g>
	<polygon style="fill:#D3754F;" points="311.314,372.465 266.84,372.465 266.84,138.979 289.077,116.743 311.314,138.979 	"/>
	<polygon style="fill:#D3754F;" points="378.024,372.465 333.551,372.465 333.551,138.979 355.787,116.743 378.024,138.979 	"/>
	<polygon style="fill:#D3754F;" points="444.734,372.465 400.261,372.465 400.261,138.979 422.497,116.743 444.734,138.979 	"/>
</g>
<g>
</g>
<g>
</g>
<g>
</g>
<g>
</g>
<g>
</g>
<g>
</g>
<g>
</g>
<g>
</g>
<g>
</g>
<g>
</g>
<g>
</g>
<g>
</g>
<g>
</g>
<g>
</g>
<g>
</g>
</svg>
