<svg height="512pt" viewBox="0 0 512 512" width="512pt" xmlns="http://www.w3.org/2000/svg"><path d="m512 256c0 141.386719-114.613281 256-256 256s-256-114.613281-256-256 114.613281-256 256-256 256 114.613281 256 256zm0 0" fill="#fd095d"/><path d="m506.054688 200.980469-126.332032-126.328125-6.582031 11.414062-30.082031-30.082031-132.238282 124.09375 47.417969 47.421875-68.949219 60.386719 45.566407 45.566406-99.933594 103.894531 69.4375 69.441406c16.679687 3.414063 33.949219 5.210938 51.640625 5.210938 141.386719 0 256-114.613281 256-256 0-18.890625-2.066406-37.296875-5.945312-55.019531zm0 0" fill="#bc1742"/><path d="m379.722656 74.652344-132.238281 124.089844 47.605469 34.898437-69.136719 72.914063 32.96875 23.164062-87.335937 126.296875 162.160156-127.503906-35.132813-29.453125 65.703125-70.699219-50-39.207031zm0 0" fill="#fff"/><path d="m225.953125 306.554688 29.855469 20.976562v-52.464844zm0 0" fill="#cbf7f7"/><path d="m247.484375 198.742188 8.324219 6.105468v-13.914062zm0 0" fill="#cbf7f7"/><path d="m314.316406 189.152344 65.40625-114.5-123.914062 116.28125v13.914062l39.28125 28.792969-39.28125 41.425781v52.464844l3.113281 2.1875-3.113281 4.503906v55.570313l77.9375-61.28125-35.132813-29.453125 65.703125-70.699219zm0 0" fill="#f2f6fc"/><path d="m343.058594 55.984375-132.238282 124.09375 47.601563 34.894531-69.136719 72.914063 32.972656 23.167969-87.335937 126.292968 162.15625-127.5-35.132813-29.453125 65.707032-70.699219-50.003906-39.210937zm0 0" fill="#0adebf"/><path d="m277.648438 170.484375 65.410156-114.5-87.25 81.875v75.199219l2.613281 1.914062-2.613281 2.757813v124.566406l41.269531-32.449219-35.132813-29.453125 65.707032-70.699219zm0 0" fill="#00ad90"/></svg>