<svg height="512pt" viewBox="0 0 512 512" width="512pt" xmlns="http://www.w3.org/2000/svg"><path d="m512 256c0 141.386719-114.613281 256-256 256s-256-114.613281-256-256 114.613281-256 256-256 256 114.613281 256 256zm0 0" fill="#00617e"/><path d="m511.207031 276.210938-216.210937-216.210938-137.402344 185.191406 55.90625 207.308594 58.960938 58.960938c127.015624-8.066407 228.867187-108.734376 238.746093-235.25zm0 0" fill="#034051"/><path d="m256 102c-65.171875 0-118 52.828125-118 118v147l75.5 85.5v-152.167969h-37.167969v-31.332031h66.054688v84l13.613281 20 13.609375-20-.007813-84h66.054688v31.332031h-37.15625v152.167969l75.5-85.5v-147c0-65.171875-52.828125-118-118-118zm0 0" fill="#ffe000"/><path d="m256 373 13.609375-20-.007813-84h66.054688v31.332031h-37.15625v152.167969l75.5-85.5v-147c0-65.171875-52.828125-118-118-118-.0625 0-.128906.003906-.191406.003906zm0 0" fill="#ffc200"/><path d="m217.003906 60h77.992188v149.363281h-77.992188zm0 0" fill="#fd095d"/><path d="m255.808594 60h39.1875v149.363281h-39.1875zm0 0" fill="#bc1742"/></svg>