<?xml version="1.0" encoding="iso-8859-1"?>
<!-- Generator: Adobe Illustrator 19.0.0, SVG Export Plug-In . SVG Version: 6.00 Build 0)  -->
<svg version="1.1" id="Capa_1" xmlns="http://www.w3.org/2000/svg" xmlns:xlink="http://www.w3.org/1999/xlink" x="0px" y="0px"
	 viewBox="0 0 512 512" style="enable-background:new 0 0 512 512;" xml:space="preserve">
<circle style="fill:#005C83;" cx="256" cy="256" r="256"/>
<path style="fill:#00263F;" d="M267.631,511.726C403.616,505.643,512,393.486,512,256c0-1.104-0.028-2.201-0.042-3.302
	L371.011,111.751l-3.378,7.591l-49.308-49.308L194.537,98.333l-64.871,40L150.333,219l93.106,185.632l-48.902,34L267.631,511.726z"
	/>
<path style="fill:#FFDC00;" d="M393.636,165.106c0-40.999-33.355-74.354-74.354-74.354c-0.321,0-0.636,0.02-0.956,0.024V70.035
	H192.91v20.722c-0.064,0-0.127-0.005-0.191-0.005c-40.999,0-74.354,33.355-74.354,74.354c0,24.491,11.908,46.248,30.233,59.803
	c-3.25,10.509-5.012,21.671-5.012,33.247c0,39.399,20.273,123.942,50.952,180.475h122.926
	c30.679-56.533,50.952-141.076,50.952-180.475c0-11.576-1.763-22.738-5.013-33.247C381.727,211.355,393.636,189.598,393.636,165.106
	z M139.365,165.106c0-29.42,23.935-53.354,53.354-53.354c0.064,0,0.127,0.005,0.191,0.005v53.35
	c-14.899,10.122-27.24,23.728-35.851,39.647C146.204,194.979,139.365,180.828,139.365,165.106z M318.325,164.594v-52.818
	c0.319-0.006,0.635-0.024,0.956-0.024c29.42,0,53.354,23.935,53.354,53.354c0,15.725-6.842,29.878-17.7,39.652
	C346.177,188.568,333.567,174.767,318.325,164.594z"/>
<path style="fill:#FFC000;" d="M393.636,165.106c0-40.999-33.355-74.354-74.354-74.354c-0.321,0-0.636,0.02-0.956,0.024V70.035
	h-62.658v368.597h61.796c30.679-56.533,50.952-141.076,50.952-180.475c0-11.576-1.763-22.738-5.013-33.247
	C381.727,211.355,393.636,189.598,393.636,165.106z M354.936,204.758c-8.758-16.19-21.369-29.99-36.611-40.163v-52.818
	c0.319-0.006,0.635-0.024,0.956-0.024c29.42,0,53.354,23.935,53.354,53.354C372.636,180.831,365.794,194.984,354.936,204.758z"/>
<g>
</g>
<g>
</g>
<g>
</g>
<g>
</g>
<g>
</g>
<g>
</g>
<g>
</g>
<g>
</g>
<g>
</g>
<g>
</g>
<g>
</g>
<g>
</g>
<g>
</g>
<g>
</g>
<g>
</g>
</svg>
