<svg height="512pt" viewBox="0 0 512 512" width="512pt" xmlns="http://www.w3.org/2000/svg"><path d="m512 256c0 141.386719-114.613281 256-256 256s-256-114.613281-256-256 114.613281-256 256-256 256 114.613281 256 256zm0 0" fill="#00617e"/><path d="m512 256c0-14.054688-1.148438-27.835938-3.328125-41.277344l-41.726563-41.722656-20.484374 35.183594-111.953126-111.949219-196.664062 236.179687 173.554688 173.558594c17.558593-3.875 34.445312-9.539062 50.445312-16.816406l2.894531-2.894531 1.050781 1.050781c86.445313-41.101562 146.210938-129.222656 146.210938-231.3125zm0 0" fill="#034051"/><path d="m466.945312 173-68.898437 64.65625 24.800781 18.183594-36.019531 37.988281 17.175781 12.070313-45.503906 65.804687 84.492188-66.433594-18.308594-15.34375 34.238281-36.835937-26.054687-20.429688zm0 0" fill="#ffe000"/><path d="m384.332031 259.667969c0-10.015625-4.488281-18.980469-11.558593-25 7.070312-6.023438 11.558593-14.984375 11.558593-25 0-18.132813-14.699219-32.832031-32.832031-32.832031s-32.832031 14.699218-32.832031 32.832031c0 10.015625 4.488281 18.976562 11.558593 25-7.070312 6.019531-11.558593 14.984375-11.558593 25 0 9.738281 4.246093 18.484375 10.980469 24.5-6.738282 6.011719-10.980469 14.757812-10.980469 24.5 0 18.132812 14.699219 32.832031 32.832031 32.832031s32.832031-14.699219 32.832031-32.832031c0-9.742188-4.246093-18.488281-10.980469-24.5 6.734376-6.015625 10.980469-14.761719 10.980469-24.5zm0 0" fill="#d7d7d7"/><path d="m193.332031 259.667969c0-10.015625-4.488281-18.980469-11.558593-25 7.070312-6.023438 11.558593-14.984375 11.558593-25 0-18.132813-14.699219-32.832031-32.832031-32.832031s-32.832031 14.699218-32.832031 32.832031c0 10.015625 4.488281 18.976562 11.558593 25-7.070312 6.019531-11.558593 14.984375-11.558593 25 0 9.738281 4.246093 18.484375 10.980469 24.5-6.738282 6.011719-10.980469 14.757812-10.980469 24.5 0 18.132812 14.699219 32.832031 32.832031 32.832031s32.832031-14.699219 32.832031-32.832031c0-9.742188-4.246093-18.488281-10.980469-24.5 6.734376-6.015625 10.980469-14.761719 10.980469-24.5zm0 0" fill="#e6e6e6"/><path d="m439.578125 434.394531-32.839844-41.519531-101.933593-37.121094c-9.402344-3.425781-15.65625-12.363281-15.65625-22.371094v-22.078124h-66.296876v22.078124c0 10.007813-6.253906 18.945313-15.65625 22.371094l-101.933593 37.121094-31.484375 42.910156c46.417968 47.046875 110.910156 76.214844 182.222656 76.214844 72.011719 0 137.066406-29.746094 183.578125-77.605469zm0 0" fill="#faa68e"/><path d="m406.738281 392.875-101.933593-37.121094c-9.402344-3.425781-15.65625-12.363281-15.65625-22.371094v-22.078124h-33.339844v200.691406c.066406 0 .128906.003906.191406.003906 72.011719 0 137.066406-29.746094 183.578125-77.605469zm0 0" fill="#e09380"/><path d="m198.667969 218.238281c0 15.726563-12.746094 28.472657-28.472657 28.472657-15.722656 0-28.46875-12.746094-28.46875-28.472657 0-15.722656 12.746094-28.46875 28.46875-28.46875 15.726563 0 28.472657 12.746094 28.472657 28.46875zm0 0" fill="#ffbeaa"/><path d="m370.273438 218.238281c0 15.726563-12.746094 28.472657-28.46875 28.472657-15.726563 0-28.472657-12.746094-28.472657-28.472657 0-15.722656 12.746094-28.46875 28.472657-28.46875 15.722656 0 28.46875 12.746094 28.46875 28.46875zm0 0" fill="#faa68e"/><path d="m293.910156 324.835938-19.011718 9.765624c-11.863282 6.09375-25.933594 6.09375-37.792969 0l-19.011719-9.765624c-28.175781-14.476563-45.890625-43.488282-45.890625-75.164063v-74.109375c0-46.28125 37.515625-83.800781 83.800781-83.800781 46.277344 0 83.796875 37.519531 83.796875 83.800781v74.109375c0 31.675781-17.714843 60.691406-45.890625 75.164063zm0 0" fill="#ffbeaa"/><path d="m256 91.761719c-.0625 0-.128906.003906-.191406.003906v247.398437c6.546875.03125 13.097656-1.484374 19.085937-4.5625l19.015625-9.765624c28.175782-14.476563 45.890625-43.488282 45.890625-75.164063v-74.109375c0-46.28125-37.519531-83.800781-83.800781-83.800781zm0 0" fill="#faa68e"/><path d="m285.003906 423h-58.007812c-31.753906 0-57.496094-25.742188-57.496094-57.496094v-93.914062c0-11.921875 9.664062-21.589844 21.589844-21.589844h129.816406c11.925781 0 21.59375 9.667969 21.59375 21.589844v93.914062c0 31.753906-25.742188 57.496094-57.496094 57.496094zm0 0" fill="#fff"/><path d="m320.910156 250h-65.101562v173h29.195312c31.753906 0 57.496094-25.742188 57.496094-57.496094v-93.914062c0-11.921875-9.667969-21.589844-21.589844-21.589844zm0 0" fill="#f2f6fc"/><path d="m227.667969 282.332031h56.667969v14.667969h-56.667969zm0 0" fill="#ffbeaa"/><path d="m255.808594 282.332031h28.527344v14.667969h-28.527344zm0 0" fill="#faa68e"/><path d="m345.714844 126.722656c.289062-1.761718.449218-3.566406.449218-5.40625 0-18.132812-14.699218-32.835937-32.832031-32.835937-7.519531 0-14.445312 2.535156-19.980469 6.785156-6.707031-8.671875-17.207031-14.265625-29.019531-14.265625-4.253906 0-8.335937.734375-12.136719 2.066406-5.792968-3.832031-12.730468-6.066406-20.195312-6.066406-15.6875 0-29.070312 9.855469-34.304688 23.714844-2.789062-.679688-5.699218-1.046875-8.695312-1.046875-20.25 0-36.667969 16.414062-36.667969 36.667969 0 2.769531.320313 5.46875.902344 8.0625-8.371094 6.722656-13.734375 17.03125-13.734375 28.601562 0 20.25 16.414062 36.667969 36.667969 36.667969 20.25 0 36.667969-16.414063 36.667969-36.667969 0-.195312-.015626-.390625-.015626-.589844 2.113282.382813 4.289063.589844 6.515626.589844 14.519531 0 27.066406-8.441406 33.003906-20.683594 3.761718 1.300782 7.792968 2.019532 11.996094 2.019532 9.851562 0 18.792968-3.898438 25.378906-10.222657 5.121094 5.300781 12.003906 8.878907 19.707031 9.792969-.292969 1.761719-.453125 3.566406-.453125 5.40625 0 18.132812 14.703125 32.835938 32.835938 32.835938 18.132812 0 32.832031-14.703126 32.832031-32.835938 0-16.808594-12.632813-30.65625-28.921875-32.589844zm0 0" fill="#fff"/><path d="m345.714844 126.722656c.289062-1.761718.449218-3.566406.449218-5.40625 0-18.132812-14.699218-32.835937-32.832031-32.835937-7.519531 0-14.445312 2.535156-19.980469 6.785156-6.707031-8.671875-17.207031-14.265625-29.019531-14.265625-2.9375 0-5.785156.355469-8.523437 1.011719v71.308593c2.738281.65625 5.585937 1.015626 8.523437 1.015626 9.855469 0 18.796875-3.898438 25.382813-10.222657 5.117187 5.300781 12 8.878907 19.707031 9.792969-.292969 1.761719-.453125 3.566406-.453125 5.40625 0 18.132812 14.699219 32.835938 32.832031 32.835938 18.132813 0 32.835938-14.703126 32.835938-32.835938 0-16.808594-12.632813-30.65625-28.921875-32.589844zm0 0" fill="#f2f6fc"/><path d="m256 512c43.710938 0 84.847656-10.976562 120.84375-30.292969l13.671875-94.738281-22.074219-8.039062c-7.953125 18.433593-47.878906 80.292968-230.601562 104.210937 35.351562 18.429687 75.535156 28.859375 118.160156 28.859375zm0 0" fill="#e6e6e6"/><path d="m368.441406 378.929688c-5.828125 13.507812-28.835937 50.34375-112.632812 78.472656v54.597656h.191406c43.710938 0 84.847656-10.976562 120.84375-30.292969l13.671875-94.738281zm0 0" fill="#d7d7d7"/></svg>