<?xml version="1.0" encoding="iso-8859-1"?>
<!-- Generator: Adobe Illustrator 19.0.0, SVG Export Plug-In . SVG Version: 6.00 Build 0)  -->
<svg version="1.1" id="Capa_1" xmlns="http://www.w3.org/2000/svg" xmlns:xlink="http://www.w3.org/1999/xlink" x="0px" y="0px"
	 viewBox="0 0 512 512" style="enable-background:new 0 0 512 512;" xml:space="preserve">
<circle style="fill:#005C83;" cx="256" cy="256" r="256"/>
<path style="fill:#00263F;" d="M512,256c0-10.876-0.684-21.592-2-32.111L393.777,107.667L83,225.875l135.498,134.636L142,410
	l101.7,101.7c4.077,0.193,8.176,0.3,12.3,0.3C397.385,512,512,397.385,512,256z"/>
<rect x="118.22" y="107.67" style="fill:#FFFFFF;" width="275.55" height="37.33"/>
<rect x="255.67" y="107.67" style="fill:#E0E0E0;" width="138.11" height="37.33"/>
<rect x="142" y="177" style="fill:#FFFFFF;" width="228" height="233"/>
<g>
	<rect x="255.67" y="177" style="fill:#E0E0E0;" width="114.33" height="233"/>
	<path style="fill:#E0E0E0;" d="M395.667,145H116.333C90.192,145,69,166.192,69,192.333s21.192,47.333,47.333,47.333
		c23.18,0,42.454-16.666,46.528-38.667h186.278c4.073,22,23.348,38.667,46.528,38.667c26.141,0,47.333-21.192,47.333-47.333
		S421.808,145,395.667,145z"/>
</g>
<path style="fill:#C0C0C0;" d="M395.667,145h-140v56h93.472c4.073,22,23.348,38.667,46.528,38.667
	c26.141,0,47.333-21.192,47.333-47.333S421.808,145,395.667,145z"/>
<g>
	<circle style="fill:#FFFFFF;" cx="116.33" cy="192.33" r="27.5"/>
	<circle style="fill:#FFFFFF;" cx="395.67" cy="192.33" r="27.5"/>
</g>
<g>
	<rect x="172" y="231.67" style="fill:#E0E0E0;" width="34" height="178.33"/>
	<rect x="239" y="231.67" style="fill:#E0E0E0;" width="34" height="178.33"/>
</g>
<g>
	<rect x="255.67" y="231.67" style="fill:#C0C0C0;" width="17.333" height="178.33"/>
	<rect x="306" y="231.67" style="fill:#C0C0C0;" width="34" height="178.33"/>
</g>
<g>
</g>
<g>
</g>
<g>
</g>
<g>
</g>
<g>
</g>
<g>
</g>
<g>
</g>
<g>
</g>
<g>
</g>
<g>
</g>
<g>
</g>
<g>
</g>
<g>
</g>
<g>
</g>
<g>
</g>
</svg>
