<?xml version="1.0" encoding="iso-8859-1"?>
<!-- Generator: Adobe Illustrator 19.0.0, SVG Export Plug-In . SVG Version: 6.00 Build 0)  -->
<svg version="1.1" id="Capa_1" xmlns="http://www.w3.org/2000/svg" xmlns:xlink="http://www.w3.org/1999/xlink" x="0px" y="0px"
	 viewBox="0 0 512 512" style="enable-background:new 0 0 512 512;" xml:space="preserve">
<circle style="fill:#B9EAFF;" cx="256" cy="256" r="256"/>
<path style="fill:#35CCFF;" d="M195.213,439.372l72.356,72.356c123.901-5.512,224.883-99.087,241.889-219.655L280.013,62.628
	L195.213,439.372z"/>
<path style="fill:#2B9153;" d="M280.013,144.889V62.627h-48.027v82.262c0,24.347-14.445,46.322-36.73,56.127
	C160.374,216.366,137,248.126,137,301.613c0,47.392,29.767,101.299,58.213,137.759h121.574C345.233,402.912,375,349.005,375,301.613
	c0-53.487-23.374-85.247-58.257-100.596C294.459,191.211,280.013,169.236,280.013,144.889z"/>
<path style="fill:#176633;" d="M375,301.613c0-53.487-23.374-85.247-58.257-100.596c-22.285-9.806-36.73-31.781-36.73-56.127V62.628
	h-24.347v376.744h61.12C345.233,402.912,375,349.005,375,301.613z"/>
<rect x="190.36" y="259" style="fill:#6EBA3B;" width="131.27" height="127"/>
<rect x="255.67" y="259" style="fill:#5EA328;" width="65.97" height="127"/>
<polygon style="fill:#006837;" points="238.272,312.696 245.242,319.866 255.667,309.734 255.667,295.789 "/>
<polygon style="fill:#012D17;" points="255.667,309.734 257.883,307.58 267.387,319.412 275.184,313.15 265.086,300.579 
	283.308,282.868 276.338,275.697 255.667,295.789 "/>
<path style="fill:#D9E021;" d="M306.046,352.963L306.046,352.963c-8.09,8.09-21.207,8.09-29.297,0l-11.13-11.13
	c-8.09-8.09-8.09-21.207,0-29.297l0,0c8.09-8.09,21.207-8.09,29.297,0l11.13,11.13C314.136,331.756,314.136,344.873,306.046,352.963
	z"/>
<path style="fill:#E6E18A;" d="M206.1,353.163L206.1,353.163c-8.17-8.01-8.301-21.126-0.291-29.296l11.019-11.24
	c8.009-8.17,21.126-8.301,29.296-0.291l0,0c8.17,8.009,8.3,21.126,0.291,29.296l-11.019,11.24
	C227.387,361.042,214.271,361.173,206.1,353.163z"/>
<g>
</g>
<g>
</g>
<g>
</g>
<g>
</g>
<g>
</g>
<g>
</g>
<g>
</g>
<g>
</g>
<g>
</g>
<g>
</g>
<g>
</g>
<g>
</g>
<g>
</g>
<g>
</g>
<g>
</g>
</svg>
