<?xml version="1.0" encoding="iso-8859-1"?>
<!-- Generator: Adobe Illustrator 19.0.0, SVG Export Plug-In . SVG Version: 6.00 Build 0)  -->
<svg version="1.1" id="Capa_1" xmlns="http://www.w3.org/2000/svg" xmlns:xlink="http://www.w3.org/1999/xlink" x="0px" y="0px"
	 viewBox="0 0 512 512" style="enable-background:new 0 0 512 512;" xml:space="preserve">
<circle style="fill:#B9EAFF;" cx="256" cy="256" r="256"/>
<path style="fill:#35CCFF;" d="M273.398,511.399c131.385-8.82,235.609-116.75,238.53-249.669L359.489,109.292l-2.797,5.017
	L307.263,64.88l-28.513,58.37l-47.125-47.125l-15.734,46.266l62.958,62.958l-3.935,0.69l-40-40l-10.726,19.273l-44.95-44.939
	l-15.67,46.335l22.333,22.333l-11.568,20.625l-3.837-12.245l-30.167-30.167l-15.682,46.324l64.583,64.583l-4.397,3.338l-2.75-4.038
	l-36.417-36.417l-15.763,46.243l88.5,88.5l-8.617,72L273.398,511.399z"/>
<rect x="209.79" y="281.54" style="fill:#FF6838;" width="92.43" height="166.25"/>
<rect x="255.96" y="281.54" style="fill:#AE4E32;" width="46.26" height="166.25"/>
<g>
	<path style="fill:#578E44;" d="M246.155,275.032L246.155,275.032c-20.86,0-37.77-16.91-37.77-37.77v-30.72l0,0
		c20.86,0,37.77,16.91,37.77,37.77V275.032z"/>
	<path style="fill:#578E44;" d="M198.741,245.624L198.741,245.624c-20.86,0-37.77-16.91-37.77-37.77v-30.72l0,0
		c20.86,0,37.77,16.91,37.77,37.77V245.624z"/>
	<path style="fill:#578E44;" d="M156.672,298.416L156.672,298.416c-20.86,0-37.77-16.91-37.77-37.77v-30.72l0,0
		c20.86,0,37.77,16.91,37.77,37.77V298.416z"/>
	<path style="fill:#578E44;" d="M151.328,224.618L151.328,224.618c-20.86,0-37.77-16.91-37.77-37.77v-30.72l0,0
		c20.86,0,37.77,16.91,37.77,37.77V224.618z"/>
	<path style="fill:#578E44;" d="M190.281,177.781L190.281,177.781c-20.86,0-37.77-16.91-37.77-37.77v-30.72l0,0
		c20.86,0,37.77,16.91,37.77,37.77V177.781z"/>
	<path style="fill:#578E44;" d="M245.509,202.988L245.509,202.988c-20.86,0-37.77-16.91-37.77-37.77v-30.72l0,0
		c20.86,0,37.77,16.91,37.77,37.77V202.988z"/>
	<path style="fill:#578E44;" d="M242.508,133.368L242.508,133.368c-20.86,0-37.77-16.91-37.77-37.77v-30.72l0,0
		c20.86,0,37.77,16.91,37.77,37.77V133.368z"/>
	<path style="fill:#578E44;" d="M204.237,319.816L204.237,319.816c-20.86,0-37.77-16.91-37.77-37.77v-30.72l0,0
		c20.86,0,37.77,16.91,37.77,37.77V319.816z"/>
</g>
<path style="fill:#3D682D;" d="M265.845,275.032L265.845,275.032c20.86,0,37.77-16.91,37.77-37.77v-30.72l0,0
	c-20.86,0-37.77,16.91-37.77,37.77V275.032z"/>
<path style="fill:#578E44;" d="M246.155,341.051L246.155,341.051c-20.86,0-37.77-16.91-37.77-37.77v-30.72l0,0
	c20.86,0,37.77,16.91,37.77,37.77V341.051z"/>
<g>
	<path style="fill:#3D682D;" d="M265.845,341.051L265.845,341.051c20.86,0,37.77-16.91,37.77-37.77v-30.72l0,0
		c-20.86,0-37.77,16.91-37.77,37.77V341.051z"/>
	<path style="fill:#3D682D;" d="M313.259,245.624L313.259,245.624c20.86,0,37.77-16.91,37.77-37.77v-30.72l0,0
		c-20.86,0-37.77,16.91-37.77,37.77V245.624z"/>
	<path style="fill:#3D682D;" d="M355.328,298.416L355.328,298.416c20.86,0,37.77-16.91,37.77-37.77v-30.72l0,0
		c-20.86,0-37.77,16.91-37.77,37.77V298.416z"/>
	<path style="fill:#3D682D;" d="M360.672,224.618L360.672,224.618c20.86,0,37.77-16.91,37.77-37.77v-30.72l0,0
		c-20.86,0-37.77,16.91-37.77,37.77V224.618z"/>
	<path style="fill:#3D682D;" d="M321.719,177.781L321.719,177.781c20.86,0,37.77-16.91,37.77-37.77v-30.72l0,0
		c-20.86,0-37.77,16.91-37.77,37.77V177.781z"/>
	<path style="fill:#3D682D;" d="M266.491,202.988L266.491,202.988c20.86,0,37.77-16.91,37.77-37.77v-30.72l0,0
		c-20.86,0-37.77,16.91-37.77,37.77V202.988z"/>
	<path style="fill:#3D682D;" d="M269.492,133.368L269.492,133.368c20.86,0,37.77-16.91,37.77-37.77v-30.72l0,0
		c-20.86,0-37.77,16.91-37.77,37.77V133.368z"/>
	<path style="fill:#3D682D;" d="M307.763,319.816L307.763,319.816c20.86,0,37.77-16.91,37.77-37.77v-30.72l0,0
		c-20.86,0-37.77,16.91-37.77,37.77V319.816z"/>
</g>
<g>
</g>
<g>
</g>
<g>
</g>
<g>
</g>
<g>
</g>
<g>
</g>
<g>
</g>
<g>
</g>
<g>
</g>
<g>
</g>
<g>
</g>
<g>
</g>
<g>
</g>
<g>
</g>
<g>
</g>
</svg>
