<?xml version="1.0" encoding="iso-8859-1"?>
<!-- Generator: Adobe Illustrator 19.0.0, SVG Export Plug-In . SVG Version: 6.00 Build 0)  -->
<svg version="1.1" id="Capa_1" xmlns="http://www.w3.org/2000/svg" xmlns:xlink="http://www.w3.org/1999/xlink" x="0px" y="0px"
	 viewBox="0 0 512 512" style="enable-background:new 0 0 512 512;" xml:space="preserve">
<circle style="fill:#FFDC00;" cx="256" cy="256" r="256"/>
<path style="fill:#FFC000;" d="M199.587,446.589l65.243,65.243c125.966-4.272,228.842-99.534,244.962-222.141L278.177,58.077
	L199.587,446.589z"/>
<polygon style="fill:#8C6239;" points="272.831,104.362 239.169,104.362 233.823,58.077 278.177,58.077 "/>
<polygon style="fill:#754C24;" points="278.177,58.077 255.667,58.077 255.667,104.362 272.831,104.362 "/>
<path style="fill:#39B54A;" d="M282.005,182.906h-3.213V88.232h-45.584v94.674h-3.213c-25.609,0-45.896,21.627-44.261,47.183
	l13.853,216.5h112.826l13.853-216.5C327.901,204.533,307.613,182.906,282.005,182.906z"/>
<g>
	<path style="fill:#009245;" d="M282.005,182.906h-3.213V88.232h-23.125v358.357h56.746l13.853-216.5
		C327.901,204.533,307.613,182.906,282.005,182.906z"/>
	<rect x="213.92" y="239.71" style="fill:#009245;" width="84.15" height="147.27"/>
</g>
<rect x="255.67" y="239.71" style="fill:#006837;" width="42.41" height="147.27"/>
<g>
</g>
<g>
</g>
<g>
</g>
<g>
</g>
<g>
</g>
<g>
</g>
<g>
</g>
<g>
</g>
<g>
</g>
<g>
</g>
<g>
</g>
<g>
</g>
<g>
</g>
<g>
</g>
<g>
</g>
</svg>
