<?xml version="1.0" encoding="iso-8859-1"?>
<!-- Generator: Adobe Illustrator 19.0.0, SVG Export Plug-In . SVG Version: 6.00 Build 0)  -->
<svg version="1.1" id="Capa_1" xmlns="http://www.w3.org/2000/svg" xmlns:xlink="http://www.w3.org/1999/xlink" x="0px" y="0px"
	 viewBox="0 0 512 512" style="enable-background:new 0 0 512 512;" xml:space="preserve">
<circle style="fill:#590F38;" cx="256" cy="256" r="256"/>
<path style="fill:#3F0729;" d="M511.057,277.911l-99.982-99.982l-20.108,26.744L250.696,64.401l-3.644,49.457l-89.432,60.499
	l80.132,80.132l11.995,167.521l-114.151-89.915l-43.567,35.406l143.702,143.702C242.418,511.727,249.177,512,256,512
	C390.002,512,499.939,409.037,511.057,277.911z"/>
<path style="fill:#FF6838;" d="M300.377,258.289c0-24.482-19.847-44.33-44.33-44.33s-44.329,19.847-44.329,44.33
	c0,13.11,5.692,60.937,14.738,102.546c-6.518-4.443-13.102-7.718-19.171-9.051c-37.516-8.241-54.824-15.247-63.982-17.954
	c-2.262-3.081-4.894-7.31-6.139-11.666c-2.418-8.463-14.105-12.694-23.374,3.425c-6.914,12.024-15.846,22.479-19.939,27.015
	c-1.658,1.837-2.735,4.118-3.093,6.567c-0.443,3.027-0.558,6.844,1.27,8.329c3.224,2.619,9.873-4.634,15.918-9.672
	c3.918-3.265,9.601-6.705,16.347-8.309c3.221-0.766,6.59,0.432,8.706,2.978c19.511,23.475,80.058,65.404,92.567,72.694
	c15.62,9.102,33.822,6.406,41.397-6.324c0.017,0.009,0.034,0.018,0.051,0.028C286.192,386.229,300.377,278.986,300.377,258.289z"/>
<g>
	<path style="fill:#AE4E32;" d="M256.047,213.959c-0.072,0-0.142,0.005-0.214,0.005v214.437c4.617-1.929,8.51-5.13,11.13-9.533
		c0.017,0.009,0.034,0.018,0.051,0.028c19.178-32.667,33.363-139.91,33.363-160.607C300.377,233.807,280.53,213.959,256.047,213.959
		z"/>
	<path style="fill:#AE4E32;" d="M236.679,219.697c-21.202,12.241-28.467,39.353-16.226,60.555
		c12.241,21.203,39.353,28.467,60.555,16.226c11.353-6.555,49.927-35.398,81.439-64.037c-0.588,7.866-0.133,15.206,1.747,21.128
		c11.622,36.61,14.208,55.102,16.443,64.387c-1.537,3.5-3.883,7.893-7.034,11.15c-6.12,6.326-3.941,18.562,14.653,18.53
		c13.87-0.024,27.391,2.484,33.365,3.76c2.42,0.517,4.934,0.309,7.234-0.605c2.843-1.13,6.206-2.939,6.578-5.264
		c0.657-4.102-8.95-6.233-16.335-8.95c-4.787-1.761-10.607-4.962-15.37-10.003c-2.274-2.407-2.921-5.923-1.774-9.029
		c10.574-28.634,16.613-102.034,16.671-116.512c0.073-18.078-11.363-32.494-26.175-32.689c0-0.019-0.001-0.039-0.001-0.058
		C354.57,168.012,254.603,209.349,236.679,219.697z"/>
</g>
<g>
	<path style="fill:#FF6838;" d="M233.253,296.378c21.202,12.241,48.314,4.977,60.555-16.226s4.977-48.314-16.226-60.555
		c-11.353-6.555-55.619-25.539-96.177-38.509c7.107-3.424,13.235-7.488,17.424-12.077c25.895-28.37,40.616-39.855,47.54-46.433
		c3.799-0.419,8.778-0.584,13.173,0.517c8.538,2.137,18.046-5.868,8.72-21.955c-6.956-12-11.544-24.963-13.427-30.775
		c-0.762-2.354-2.199-4.428-4.141-5.962c-2.4-1.897-5.648-3.905-7.848-3.065c-3.881,1.482-0.923,10.868,0.417,18.622
		c0.869,5.026,1.006,11.667-0.977,18.312c-0.947,3.173-3.669,5.491-6.932,6.051c-30.085,5.16-96.671,36.63-109.238,43.818
		c-15.693,8.976-22.459,26.088-15.222,39.012c-0.016,0.01-0.033,0.021-0.05,0.03C129.546,220.124,215.329,286.029,233.253,296.378z"
		/>
	<path style="fill:#FF6838;" d="M277.583,219.597c-3.885-2.243-11.625-5.941-21.75-10.355v93.071
		c15.159-0.156,29.846-8.08,37.975-22.16C306.05,258.95,298.785,231.838,277.583,219.597z"/>
</g>
<circle style="fill:#FFDC00;" cx="256" cy="256" r="52"/>
<path style="fill:#FFC000;" d="M256,204c-0.056,0-0.111,0.004-0.167,0.004v103.991c0.056,0,0.111,0.004,0.167,0.004
	c28.719,0,52-23.281,52-52S284.719,204,256,204z"/>
<g>
</g>
<g>
</g>
<g>
</g>
<g>
</g>
<g>
</g>
<g>
</g>
<g>
</g>
<g>
</g>
<g>
</g>
<g>
</g>
<g>
</g>
<g>
</g>
<g>
</g>
<g>
</g>
<g>
</g>
</svg>
