<svg height="512pt" viewBox="0 0 512 512" width="512pt" xmlns="http://www.w3.org/2000/svg"><path d="m512 256c0 141.386719-114.613281 256-256 256s-256-114.613281-256-256 114.613281-256 256-256 256 114.613281 256 256zm0 0" fill="#00617e"/><path d="m334.242188 111.394531-184.449219 223.207031 169.503906 169.503907c100.964844-25.679688 177.960937-111.363281 190.800781-216.855469zm0 0" fill="#034051"/><path d="m362.207031 334.601562h-212.414062v-151.394531c0-58.65625 47.550781-106.207031 106.207031-106.207031s106.207031 47.550781 106.207031 106.207031zm0 0" fill="#fd095d"/><path d="m362.207031 183.207031c0-58.65625-47.550781-106.207031-106.207031-106.207031-.0625 0-.128906.003906-.191406.003906v257.597656h106.398437zm0 0" fill="#bc1742"/><path d="m256 512c61.3125 0 117.585938-21.566406 161.664062-57.511719l-26.921874-42.175781-91.066407-41.101562c-8.398437-3.792969-13.988281-13.6875-13.988281-24.765626v-24.441406h-59.226562v24.441406c0 11.078126-5.589844 20.972657-13.992188 24.765626l-91.066406 41.101562-25.648438 43.320312c43.867188 35.257813 99.585938 56.367188 160.246094 56.367188zm0 0" fill="#faa68e"/><path d="m417.664062 454.488281-26.921874-42.175781-91.066407-41.101562c-8.398437-3.792969-13.988281-13.6875-13.988281-24.765626v-24.441406h-29.878906v189.992188c.066406 0 .128906.003906.191406.003906 61.3125 0 117.585938-21.566406 161.664062-57.511719zm0 0" fill="#e09380"/><path d="m198.667969 218.238281c0 15.726563-12.746094 28.472657-28.472657 28.472657-15.722656 0-28.46875-12.746094-28.46875-28.472657 0-15.722656 12.746094-28.46875 28.46875-28.46875 15.726563 0 28.472657 12.746094 28.472657 28.46875zm0 0" fill="#ffbeaa"/><path d="m370.273438 218.238281c0 15.726563-12.746094 28.472657-28.46875 28.472657-15.726563 0-28.472657-12.746094-28.472657-28.472657 0-15.722656 12.746094-28.46875 28.472657-28.46875 15.722656 0 28.46875 12.746094 28.46875 28.46875zm0 0" fill="#faa68e"/><path d="m293.910156 324.835938-19.011718 9.765624c-11.863282 6.09375-25.933594 6.09375-37.792969 0l-19.011719-9.765624c-28.175781-14.476563-45.890625-43.488282-45.890625-75.164063v-74.109375c0-46.28125 37.515625-83.800781 83.800781-83.800781 46.277344 0 83.796875 37.519531 83.796875 83.800781v74.109375c0 31.675781-17.714843 60.691406-45.890625 75.164063zm0 0" fill="#ffbeaa"/><path d="m256 91.761719c-.0625 0-.128906.003906-.191406.003906v247.398437c6.546875.03125 13.097656-1.484374 19.085937-4.5625l19.015625-9.765624c28.175782-14.476563 45.890625-43.488282 45.890625-75.164063v-74.109375c0-46.28125-37.519531-83.800781-83.800781-83.800781zm0 0" fill="#faa68e"/><path d="m171.359375 497.652344c26.492187 9.285156 54.972656 14.347656 84.640625 14.347656 33.128906 0 64.777344-6.304688 93.835938-17.765625l19.332031-91.660156-38.238281-17.257813c-24.527344 20.449219-95.722657 78.023438-159.570313 112.335938zm0 0" fill="#ffe000"/><path d="m330.929688 385.316406c-13.667969 11.390625-41.824219 34.3125-75.121094 58.3125v68.367188c.0625 0 .128906.003906.191406.003906 33.128906 0 64.777344-6.304688 93.835938-17.765625l19.332031-91.660156zm0 0" fill="#ffc200"/><path d="m194.710938 379.226562-58.515626 26.410157 14.578126 14.578125c29.011718 29.011718 67.117187 43.515625 105.226562 43.515625s76.21875-14.507813 105.230469-43.515625l14.621093-14.625-58.511718-26.410156c-34.234375 32.722656-88.378906 32.738281-122.628906.046874zm0 0" fill="#fff"/><path d="m317.335938 379.179688c-17.171876 16.417968-39.355469 24.597656-61.527344 24.550781v60h.191406c38.105469 0 76.21875-14.503907 105.226562-43.515625l14.625-14.625zm0 0" fill="#f2f6fc"/><path d="m344.589844 206.527344h-177.179688v-29.222656c0-48.925782 39.664063-88.589844 88.589844-88.589844s88.589844 39.664062 88.589844 88.589844zm0 0" fill="#bc1742"/><path d="m344.589844 206.527344h-177.179688v-29.222656c0-48.925782 39.664063-88.589844 88.589844-88.589844s88.589844 39.664062 88.589844 88.589844zm0 0" fill="#fd095d"/><path d="m344.589844 177.304688c0-48.929688-39.664063-88.589844-88.589844-88.589844-.0625 0-.128906 0-.191406 0v117.8125h88.78125zm0 0" fill="#bc1742"/><path d="m149.960938 177.304688h212.078124c-.566406-10.363282-2.621093-20.324219-5.949218-29.683594h-200.179688c-3.328125 9.359375-5.382812 19.320312-5.949218 29.683594zm0 0" fill="#ffe000"/><path d="m356.089844 147.621094h-100.28125v29.683594h106.230468c-.566406-10.363282-2.621093-20.324219-5.949218-29.683594zm0 0" fill="#ffc200"/></svg>