<?xml version="1.0" encoding="iso-8859-1"?>
<!-- Generator: Adobe Illustrator 19.0.0, SVG Export Plug-In . SVG Version: 6.00 Build 0)  -->
<svg version="1.1" id="Capa_1" xmlns="http://www.w3.org/2000/svg" xmlns:xlink="http://www.w3.org/1999/xlink" x="0px" y="0px"
	 viewBox="0 0 512.001 512.001" style="enable-background:new 0 0 512.001 512.001;" xml:space="preserve">
<circle style="fill:#590F38;" cx="256" cy="256" r="256"/>
<path style="fill:#440C2D;" d="M508.529,298.14L287.388,77l-120.721,64.619l2.56,106.297l95.154,95.154v47.56L187,443.667
	l68.325,68.325c0.226,0.001,0.449,0.009,0.675,0.009C383.029,512,488.43,419.472,508.529,298.14z"/>
<path style="fill:#FF6838;" d="M256,69.712c-17.948,0-32.719,0.16-34.608,15.816l-58.253,50.874
	c-12.633,11.404-20.646,26.79-22.976,43.264h28.397c1.977-8.538,6.531-16.332,13.342-22.48l45.129-40.742
	c6.244,16.882,16.887,33.177,28.969,33.177c19.229,0,34.817-41.273,34.817-60.502S275.229,69.712,256,69.712z"/>
<g>
	<path style="fill:#FFDC00;" d="M140.162,179.667h-7.733c2.096,4.983,4.5,9.802,7.159,14.457
		C139.289,189.26,139.49,184.418,140.162,179.667z"/>
	<polygon style="fill:#FFDC00;" points="228.82,400.999 191.666,400.999 191.666,427 194.831,427 192.83,423.847 	"/>
	<polygon style="fill:#FFDC00;" points="320.333,427 320.333,400.999 281.061,400.999 240.106,427 	"/>
	<path style="fill:#FFDC00;" d="M379.572,179.667H168.559l0,0h-36.13c18.684,44.419,60.619,76.65,110.571,81.46v26.365v104.505
		v9.002h-51.334v26h128.667v-26H269v-25.508v-74.185v-31.784v-8.395C318.952,256.317,360.887,224.085,379.572,179.667
		L379.572,179.667L379.572,179.667z"/>
</g>
<path style="fill:#FFC000;" d="M269,301.306v-31.784v-8.395c49.952-4.81,91.887-37.041,110.571-81.46H256.333V427h64v-26H269
	v-25.508V301.306z"/>
<g>
	<path style="fill:#FF6838;" d="M243,261.126c-44.348-4.27-82.362-30.165-103.412-67.003c0.094,1.517,0.233,3.036,0.424,4.555
		c2.932,23.275,17.081,43.684,37.849,54.594L243,287.492V261.126z"/>
	<path style="fill:#FF6838;" d="M317.434,335.159c-1.156-25.751-16.38-48.799-39.201-60.787l-9.233-4.85v31.784
		c12.282,7.669,19.868,20.625,20.469,35.293c0.648,15.804-6.938,30.301-20.291,38.778L269,375.491l-26,16.506l-14.18,9.002
		l-22.963,14.578c-8.398,5.331-14.574,13.53-17.381,23.073L187,443.667l5.014,0.919c10.172,1.864,20.673-0.179,29.404-5.722
		L240.106,427l40.955-26l3.124-1.983C306.158,385.067,318.602,361.178,317.434,335.159z"/>
</g>
<g>
	<path style="fill:#AE4E32;" d="M317.434,335.159c-1.156-25.751-16.38-48.799-39.201-60.787L269,269.521v31.784
		c12.282,7.669,19.868,20.625,20.469,35.293c0.648,15.804-6.938,30.301-20.291,38.778L269,375.491l-12.667,8.042v33.166L281.061,401
		l3.124-1.983C306.158,385.067,318.602,361.178,317.434,335.159z"/>
	<path style="fill:#AE4E32;" d="M290.817,89.119c0-19.117-15.409-19.403-34.484-19.406v79.897
		C275.409,149.136,290.817,108.236,290.817,89.119z"/>
	<circle style="fill:#AE4E32;" cx="239.25" cy="102.83" r="4.167"/>
</g>
<circle style="fill:#89331F;" cx="272.75" cy="102.83" r="4.167"/>
<g>
</g>
<g>
</g>
<g>
</g>
<g>
</g>
<g>
</g>
<g>
</g>
<g>
</g>
<g>
</g>
<g>
</g>
<g>
</g>
<g>
</g>
<g>
</g>
<g>
</g>
<g>
</g>
<g>
</g>
</svg>
