<svg height="512pt" viewBox="0 0 512 512" width="512pt" xmlns="http://www.w3.org/2000/svg"><path d="m512 256c0 141.386719-114.613281 256-256 256s-256-114.613281-256-256 114.613281-256 256-256 256 114.613281 256 256zm0 0" fill="#ffe000"/><path d="m512 256c0-22.746094-2.980469-44.789062-8.546875-65.785156l-88.832031-88.828125-125.566406 127.660156-101.625-101.628906-72.03125 72.03125 105.863281 105.867187-115.871094 121.328125 73.542969 73.542969c24.324218 7.667969 50.210937 11.8125 77.066406 11.8125 141.386719 0 256-114.613281 256-256zm0 0" fill="#ffc200"/><path d="m322.238281 177.738281 16.027344 16.027344-232.871094 232.871094-16.027343-16.027344zm0 0" fill="#fff"/><path d="m338.265625 193.769531-7.265625-8.769531-234.625 232.625 9.015625 9.019531zm0 0" fill="#f2f6fc"/><path d="m316.558594 199.449219v-72.03125l98.0625-26.03125-26.03125 98.0625zm0 0" fill="#00617e"/><path d="m315.804688 200.195312.753906-.746093h72.03125l26.03125-98.0625-.761719.753906zm0 0" fill="#034051"/><path d="m165.71875 193.769531 16.027344-16.027343 232.871094 232.871093-16.027344 16.027344zm0 0" fill="#f8a122"/><path d="m173.824219 185.664062 7.921875-7.921874 232.871094 232.871093-7.921876 7.921875zm0 0" fill="#ff4e2a"/><path d="m187.429688 199.261719-72.03125.1875-26.035157-98.0625 98.066407 26.03125zm0 0" fill="#00617e"/><path d="m187.429688 127.417969-98.066407-26.03125 98.066407 97.875zm0 0" fill="#034051"/></svg>