<?xml version="1.0" encoding="iso-8859-1"?>
<!-- Generator: Adobe Illustrator 19.0.0, SVG Export Plug-In . SVG Version: 6.00 Build 0)  -->
<svg version="1.1" id="Capa_1" xmlns="http://www.w3.org/2000/svg" xmlns:xlink="http://www.w3.org/1999/xlink" x="0px" y="0px"
	 viewBox="0 0 512 512" style="enable-background:new 0 0 512 512;" xml:space="preserve">
<circle style="fill:#FFDC00;" cx="256" cy="256" r="256"/>
<path style="fill:#FFC000;" d="M148.492,488.38C181.183,503.529,217.6,512,256,512c135.061,0,245.684-104.594,255.31-237.2
	L304.647,68.137l-132.974,49.776l24.373,135.421L177.976,256L148.492,488.38z"/>
<path style="fill:#333333;" d="M351.667,148.333c0-31.148-21.06-57.454-49.683-65.473l2.663-14.724h-97.294l2.663,14.724
	c-28.623,8.019-49.683,34.325-49.683,65.473c0,18.434,8.156,51.847,19.393,79.449c2.75,6.755,5.558,12.912,8.419,18.493
	l2.108,32.422c3.11,47.839,18.909,93.987,45.769,133.696l6.006,8.878c6.689,9.89,21.253,9.89,27.943,0l6.006-8.878
	c26.861-39.709,42.659-85.856,45.769-133.696l2.108-32.422c2.861-5.581,5.669-11.737,8.419-18.493
	C343.511,200.181,351.667,166.767,351.667,148.333z M213.597,102.657l5.484,30.315c-17.396,10.595-29.834,28.421-33.25,49.146
	c-3.549-14.087-5.498-26.396-5.498-33.785C180.333,127.006,194.319,108.892,213.597,102.657z M326.169,182.118
	c-3.416-20.725-15.854-38.551-33.25-49.146l5.484-30.315c19.278,6.235,33.264,24.349,33.264,45.676
	C331.667,155.723,329.718,168.031,326.169,182.118z"/>
<path style="fill:#1A1A1A;" d="M301.984,82.86l2.663-14.724h-48.695v360.551c5.329,0.015,10.664-2.457,14.019-7.416l6.006-8.878
	c26.861-39.709,42.659-85.856,45.769-133.696l2.108-32.422c2.861-5.581,5.669-11.737,8.419-18.493
	c11.237-27.602,19.393-61.016,19.393-79.449C351.667,117.185,330.607,90.879,301.984,82.86z M326.169,182.118
	c-3.416-20.725-15.854-38.551-33.25-49.146l5.484-30.315c19.278,6.235,33.264,24.349,33.264,45.676
	C331.667,155.723,329.718,168.031,326.169,182.118z"/>
<path style="fill:#876D2D;" d="M314.018,186.405c-2.825-17.136-13.108-31.875-27.492-40.636h-61.052
	c-14.384,8.76-24.668,23.5-27.492,40.636l-4.018,30.054c-0.693,5.185,0.05,10.471,2.206,15.237l0.033,0.073h119.596
	c0.011-0.024,0.022-0.049,0.033-0.073c2.156-4.766,2.899-10.052,2.206-15.237L314.018,186.405z"/>
<path style="fill:#604B1B;" d="M318.036,216.459l-4.018-30.054c-2.825-17.136-13.108-31.875-27.492-40.636h-30.574v86h59.845
	c0.011-0.024,0.022-0.048,0.033-0.073C317.987,226.931,318.73,221.645,318.036,216.459z"/>
<path style="fill:#FF6838;" d="M348.75,243h-185.5l-14.758,245.38c6.381,2.957,12.896,5.674,19.548,8.108L182.083,263h147.834
	l14.043,233.488c6.653-2.434,13.167-5.151,19.548-8.108L348.75,243z"/>
<path style="fill:#AE4E32;" d="M348.75,243h-92.798v20h73.965l14.043,233.488c6.653-2.434,13.167-5.151,19.548-8.108L348.75,243z"/>
<g>
</g>
<g>
</g>
<g>
</g>
<g>
</g>
<g>
</g>
<g>
</g>
<g>
</g>
<g>
</g>
<g>
</g>
<g>
</g>
<g>
</g>
<g>
</g>
<g>
</g>
<g>
</g>
<g>
</g>
</svg>
