<?xml version="1.0" encoding="iso-8859-1"?>
<!-- Generator: Adobe Illustrator 19.0.0, SVG Export Plug-In . SVG Version: 6.00 Build 0)  -->
<svg version="1.1" id="Capa_1" xmlns="http://www.w3.org/2000/svg" xmlns:xlink="http://www.w3.org/1999/xlink" x="0px" y="0px"
	 viewBox="0 0 512 512" style="enable-background:new 0 0 512 512;" xml:space="preserve">
<circle style="fill:#590F38;" cx="256" cy="256" r="256"/>
<path style="fill:#3A0826;" d="M512,256c0-19.538-2.199-38.561-6.344-56.844L441.667,135.5L70,376.5l129.156,129.156
	C217.439,509.801,236.462,512,256,512C397.385,512,512,397.385,512,256z"/>
<g>
	<rect x="70" y="135.5" style="fill:#FF6838;" width="371.67" height="241"/>
	<rect x="70" y="135.5" style="fill:#FF6838;" width="186" height="241"/>
</g>
<rect x="256" y="135.5" style="fill:#AE4E32;" width="185.67" height="241"/>
<polygon style="fill:#FFECB3;" points="142.614,149.541 147.5,166 136.5,179.5 137.5,157 130.522,149.541 91.673,149.541 
	91.673,362.459 189.515,362.459 208.5,335.5 200.5,305 216,335 206.847,362.459 266.692,362.459 266.692,149.541 "/>
<polygon style="fill:#FFD863;" points="372.069,149.541 364,167.5 357.676,149.541 256,149.541 256,362.459 338.014,362.459 
	341,324.5 354,335.5 358.936,362.459 420.327,362.459 420.327,149.541 "/>
<g>
	<rect x="109.84" y="197.67" style="fill:#808080;" width="128" height="14"/>
	<rect x="109.84" y="231.89" style="fill:#808080;" width="128" height="14"/>
	<rect x="109.84" y="266.11" style="fill:#808080;" width="128" height="14"/>
	<rect x="109.84" y="300.33" style="fill:#808080;" width="128" height="14"/>
</g>
<g>
	<rect x="274.33" y="197.67" style="fill:#666666;" width="128" height="14"/>
	<rect x="274.33" y="231.89" style="fill:#666666;" width="128" height="14"/>
	<rect x="274.33" y="266.11" style="fill:#666666;" width="128" height="14"/>
	<rect x="274.33" y="300.33" style="fill:#666666;" width="128" height="14"/>
</g>
<g>
</g>
<g>
</g>
<g>
</g>
<g>
</g>
<g>
</g>
<g>
</g>
<g>
</g>
<g>
</g>
<g>
</g>
<g>
</g>
<g>
</g>
<g>
</g>
<g>
</g>
<g>
</g>
<g>
</g>
</svg>
