<svg height="512pt" viewBox="0 0 512 512" width="512pt" xmlns="http://www.w3.org/2000/svg"><path d="m512 256c0 141.386719-114.613281 256-256 256s-256-114.613281-256-256 114.613281-256 256-256 256 114.613281 256 256zm0 0" fill="#00617e"/><path d="m512 256c0-5.058594-.164062-10.078125-.453125-15.0625l-51-51-26.175781 39.851562-70.25-70.246093-140.761719 123.113281 55.417969 55.417969-92.316406 18.570312-44.613282-44.613281-81.847656 70.054688 117.699219 117.699218c24.683593 7.921875 50.988281 12.214844 78.300781 12.214844 141.386719 0 256-114.613281 256-256zm0 0" fill="#034051"/><path d="m257.660156 147.992188s1.699219 123.625-44.488281 146.71875c-46.191406 23.097656-141.625 30.566406-147.398437 64.191406h283.246093s21.980469-11.378906 12.90625-34.980469c-9.074219-23.605469 2.195313-164.382813 2.195313-164.382813zm0 0" fill="#faa68e"/><path d="m364.125 159.542969-106.460938-11.546875s.234376 17.128906-1.855468 39.824218v171.082032h93.214844s21.980468-11.378906 12.90625-34.980469c-9.074219-23.605469 2.195312-164.378906 2.195312-164.378906zm0 0" fill="#e09380"/><path d="m133.699219 329.523438h179.324219v12.738281h-179.324219zm0 0" fill="#ffe000"/><path d="m255.808594 329.523438h57.214844v12.738281h-57.214844zm0 0" fill="#ffc200"/><path d="m116.71875 312.035156h25.132812v54.679688h-25.132812zm0 0" fill="#ffe000"/><path d="m313.019531 279.089844h23.777344v87.625h-23.777344zm0 0" fill="#ffc200"/><path d="m223.359375 259.730469h146.300781v22.925781h-146.300781zm0 0" fill="#ffe000"/><path d="m339.214844 282.65625h40.945312c43.425782 0 79.457032-39.726562 80.359375-89.757812.019531-.984376.027344-1.972657.027344-2.960938h-137.6875c-37.171875 0-67.304687 34.722656-67.304687 77.558594v62.027344h21.839843c10.320313-27.566407 34.109375-46.867188 61.820313-46.867188zm0 0" fill="#fff"/><path d="m256.386719 255.308594c-.542969 3.972656-.832031 8.039062-.832031 12.1875v62.027344h21.839843c10.320313-27.566407 34.109375-46.867188 61.820313-46.867188h40.945312c22.253906 0 42.566406-10.4375 57.207032-27.347656zm0 0" fill="#f2f6fc"/><path d="m60 358.902344h306.824219v23.183594h-306.824219zm0 0" fill="#ffe000"/><path d="m255.808594 358.902344h111.015625v23.183594h-111.015625zm0 0" fill="#ffc200"/></svg>