<?xml version="1.0" encoding="iso-8859-1"?>
<!-- Generator: Adobe Illustrator 19.0.0, SVG Export Plug-In . SVG Version: 6.00 Build 0)  -->
<svg version="1.1" id="Capa_1" xmlns="http://www.w3.org/2000/svg" xmlns:xlink="http://www.w3.org/1999/xlink" x="0px" y="0px"
	 viewBox="0 0 512 512" style="enable-background:new 0 0 512 512;" xml:space="preserve">
<circle style="fill:#0074A3;" cx="256" cy="256" r="256"/>
<path style="fill:#005C83;" d="M512,256c0-21.021-2.552-41.442-7.331-60.991l-64.175-64.175l-13.06,25.883l-38.383-38.383
	L85.714,142.81l15.601,98.913l178.733,178.733l-93.597-7.526l33.579,33.579l-45.365,9.824l54.24,54.24
	C237.811,511.51,246.848,512,256,512C397.385,512,512,397.385,512,256z"/>
<path style="fill:#FFC000;" d="M149.246,274.776l-27.495-16.247c-22.447-13.265-37.391-35.682-40.998-61.504l-9.247-66.191h368.988
	l-9.247,66.191c-3.607,25.822-18.551,48.24-40.999,61.504l-27.494,16.247l-10.174-17.219l27.494-16.247
	c17.173-10.148,28.605-27.298,31.364-47.053l6.067-43.424H94.494l6.066,43.424c2.76,19.755,14.192,36.905,31.365,47.053
	l27.495,16.247L149.246,274.776z"/>
<path style="fill:#CC9805;" d="M255.952,130.833v20h161.553l-6.067,43.424c-2.759,19.755-14.191,36.905-31.364,47.053
	l-27.494,16.247l10.174,17.219l27.494-16.247c22.448-13.265,37.392-35.682,40.999-61.504l9.247-66.191L255.952,130.833
	L255.952,130.833z"/>
<path style="fill:#FFDC00;" d="M296.444,434.521l-12.761,7.331c-17.142,9.848-38.224,9.848-55.366,0l-12.761-7.331
	c-44.565-25.603-73.604-71.57-77.585-122.812l-15.023-193.376H389.05l-15.023,193.376
	C370.048,362.951,341.009,408.918,296.444,434.521z"/>
<g>
	<path style="fill:#FFC000;" d="M255.952,118.333v330.904c9.572,0.008,19.146-2.453,27.731-7.385l12.761-7.331
		c44.565-25.603,73.604-71.57,77.585-122.812l15.023-193.375L255.952,118.333L255.952,118.333z"/>
	<path style="fill:#FFC000;" d="M337.333,456.333H174.667l0,0C174.667,441.238,186.904,429,202,429h108
		C325.096,429,337.333,441.238,337.333,456.333L337.333,456.333z"/>
</g>
<path style="fill:#CC9805;" d="M310,429h-54.048v27.333h81.381C337.333,441.237,325.096,429,310,429z"/>
<circle style="fill:#FFECB3;" cx="256" cy="167" r="33.5"/>
<path style="fill:#FFD863;" d="M256,133.5c-0.016,0-0.032,0.001-0.048,0.001v66.998c0.016,0,0.032,0.001,0.048,0.001
	c18.501,0,33.5-14.999,33.5-33.5S274.501,133.5,256,133.5z"/>
<circle style="fill:#FFB344;" cx="256" cy="167" r="21.2"/>
<path style="fill:#FF9451;" d="M256,145.798c-0.016,0-0.031,0.002-0.048,0.002v42.398c0.016,0,0.031,0.002,0.048,0.002
	c11.709,0,21.202-9.492,21.202-21.202S267.709,145.798,256,145.798z"/>
<circle style="fill:#FFECB3;" cx="170" cy="167" r="33.5"/>
<circle style="fill:#FFB344;" cx="170" cy="167" r="21.2"/>
<circle style="fill:#FFD863;" cx="343" cy="167" r="33.5"/>
<circle style="fill:#FF9451;" cx="343" cy="167" r="21.2"/>
<g>
</g>
<g>
</g>
<g>
</g>
<g>
</g>
<g>
</g>
<g>
</g>
<g>
</g>
<g>
</g>
<g>
</g>
<g>
</g>
<g>
</g>
<g>
</g>
<g>
</g>
<g>
</g>
<g>
</g>
</svg>
