<svg height="512pt" viewBox="0 0 512 512" width="512pt" xmlns="http://www.w3.org/2000/svg"><path d="m512 256c0 141.386719-114.613281 256-256 256s-256-114.613281-256-256 114.613281-256 256-256 256 114.613281 256 256zm0 0" fill="#0adebf"/><path d="m353.414062 492.796875c88.21875-36.332031 151.667969-120.515625 158.039063-220.234375l-118.933594-118.933594-9.171875 8.773438-95.597656-95.597656-47.234375 88.824218-67.824219-67.824218-63.695312 61.335937 117.757812 117.757813-23.183594 76.054687zm0 0" fill="#00ad90"/><path d="m188.476562 115.070312c-8.265624-27.90625-34.09375-48.265624-64.679687-48.265624h-34.597656v34.601562c0 34.992188 26.648437 63.757812 60.753906 67.121094l-28.144531 305.507812c37.515625 23.140625 81.453125 36.871094 128.523437 37.894532l-23.335937-343.402344c34.109375-3.363282 60.757812-32.128906 60.757812-67.121094v-34.601562h-34.601562c-30.585938.003906-56.410156 20.359374-64.675782 48.265624zm0 0" fill="#00617e"/><path d="m188.417969 502.964844c19.785156 5.402344 40.523437 8.5 61.914062 8.964844l-23.335937-343.402344c34.109375-3.363282 60.757812-32.128906 60.757812-67.121094v-34.601562h-34.601562c-30.585938 0-56.410156 20.359374-64.675782 48.265624zm0 0" fill="#034051"/><path d="m413.726562 416.984375h-163.625v-208.398437c0-45.183594 36.628907-81.8125 81.8125-81.8125 45.183594 0 81.808594 36.628906 81.808594 81.8125v208.398437zm0 0" fill="#00617e"/><path d="m413.726562 208.585938c0-45.183594-36.628906-81.8125-81.8125-81.8125-.171874 0-.339843.011718-.507812.011718v290.199219h82.320312zm0 0" fill="#034051"/><path d="m446.238281 401.5625c-6.871093-10.765625-16.730469-19.296875-28.371093-24.550781l-52.3125-23.609375c-6.46875-2.917969-10.773438-10.539063-10.773438-19.074219v-18.828125h-45.625v18.828125c0 8.53125-4.304688 16.15625-10.773438 19.074219l-51.210937 23.113281c-12.328125 5.5625-22.636719 14.792969-29.527344 26.429687-6 10.140626-9.167969 21.707032-9.167969 33.488282v71.144531c15.402344 2.890625 31.28125 4.421875 47.523438 4.421875 79.855469 0 151.164062-36.570312 198.113281-93.867188-1.726562-5.5-4.175781-10.769531-7.304687-15.671874zm0 0" fill="#faa68e"/><path d="m454.113281 418.132812c-1.726562-5.5-4.175781-10.769531-7.304687-15.671874l-.574219-.898438c-6.871094-10.765625-16.726563-19.292969-28.371094-24.546875l-52.308593-23.609375c-6.46875-2.921875-10.777344-10.542969-10.777344-19.078125v-18.828125h-23.375v185.1875c48.691406-14.992188 91.195312-44.089844 122.710937-82.554688zm0 0" fill="#e09380"/><path d="m287.753906 235.570312c0 12.113282-9.820312 21.933594-21.933594 21.933594-12.113281 0-21.933593-9.820312-21.933593-21.933594 0-12.113281 9.820312-21.933593 21.933593-21.933593 12.113282 0 21.933594 9.820312 21.933594 21.933593zm0 0" fill="#ffbeaa"/><path d="m419.941406 235.570312c0 12.113282-9.820312 21.933594-21.933594 21.933594-12.113281 0-21.933593-9.820312-21.933593-21.933594 0-12.113281 9.820312-21.933593 21.933593-21.933593 12.113282 0 21.933594 9.820312 21.933594 21.933593zm0 0" fill="#faa68e"/><path d="m361.117188 317.683594-14.648438 7.523437c-9.132812 4.691407-19.972656 4.691407-29.109375 0l-14.648437-7.523437c-21.703126-11.152344-35.347657-33.5-35.347657-57.902344v-57.085938c0-35.648437 28.902344-64.550781 64.550781-64.550781 35.652344 0 64.550782 28.902344 64.550782 64.550781v57.085938c0 24.402344-13.644532 46.75-35.347656 57.902344zm0 0" fill="#ffbeaa"/><path d="m331.914062 138.144531c-.171874 0-.339843.011719-.507812.011719v190.554688c5.160156.082031 10.339844-1.078126 15.0625-3.503907l14.648438-7.523437c21.703124-11.152344 35.347656-33.5 35.347656-57.902344v-57.085938c0-35.648437-28.902344-64.550781-64.550782-64.550781zm0 0" fill="#faa68e"/><path d="m400.15625 226.546875h-136.484375v-22.511719c0-37.6875 30.554687-68.238281 68.242187-68.238281s68.238282 30.550781 68.238282 68.238281v22.511719zm0 0" fill="#00617e"/><path d="m400.15625 204.035156c0-37.6875-30.554688-68.238281-68.242188-68.238281-.171874 0-.339843.011719-.507812.011719v90.742187h68.75zm0 0" fill="#034051"/><path d="m253.742188 416.984375v94.988281c.179687 0 .363281.003906.542968.007813 3.039063-.019531 6.0625-.050781 9.078125-.09375 55.011719-1.550781 105.675781-20.460938 146.722657-51.445313v-43.457031l-78.683594 37.332031zm0 0" fill="#00617e"/><path d="m331.410156 500.703125c28.703125-8.835937 55.253906-22.585937 78.675782-40.261719v-43.457031l-78.683594 37.332031zm0 0" fill="#034051"/></svg>