<?xml version="1.0" encoding="iso-8859-1"?>
<!-- Generator: Adobe Illustrator 19.0.0, SVG Export Plug-In . SVG Version: 6.00 Build 0)  -->
<svg version="1.1" id="Capa_1" xmlns="http://www.w3.org/2000/svg" xmlns:xlink="http://www.w3.org/1999/xlink" x="0px" y="0px"
	 viewBox="0 0 512 512" style="enable-background:new 0 0 512 512;" xml:space="preserve">
<circle style="fill:#005C83;" cx="256" cy="256" r="256"/>
<path style="fill:#00263F;" d="M300.459,508.144C420.65,487.096,512,382.22,512,256c0-2.413-0.04-4.817-0.107-7.214L340.632,77.525
	l-36.934,37.54l-34.627-34.627l-97.703,148.053l86.56,86.561l-14.999,135.563L300.459,508.144z"/>
<path style="fill:#FFFFFF;" d="M340.632,228.491c-56.422-36.232-112.843-36.232-169.265,0c-40.624-50.322-40.624-100.644,0-150.966
	c56.422,36.232,112.843,36.232,169.265,0C381.256,127.847,381.256,178.169,340.632,228.491z"/>
<g>
	<path style="fill:#E0E0E0;" d="M340.632,77.524c-28.227,18.126-56.453,27.184-84.68,27.173v96.62
		c28.227-0.01,56.453,9.047,84.68,27.173C381.256,178.168,381.256,127.847,340.632,77.524z"/>
	<path style="fill:#E0E0E0;" d="M187.335,86.809c-5.323-2.773-10.645-5.867-15.968-9.285c-40.624,50.322-40.624,100.644,0,150.966
		c5.323-3.418,10.645-6.512,15.968-9.285C156.09,175.074,156.09,130.941,187.335,86.809z"/>
</g>
<path style="fill:#C0C0C0;" d="M324.665,219.207c5.323,2.773,10.645,5.867,15.968,9.285c40.624-50.322,40.624-100.644,0-150.966
	c-5.323,3.418-10.645,6.512-15.968,9.285C355.91,130.942,355.91,175.074,324.665,219.207z"/>
<rect x="242.93" y="80.44" style="fill:#FF6838;" width="26.14" height="370.18"/>
<rect x="255.95" y="80.44" style="fill:#AE4E32;" width="13.12" height="370.18"/>
<g>
</g>
<g>
</g>
<g>
</g>
<g>
</g>
<g>
</g>
<g>
</g>
<g>
</g>
<g>
</g>
<g>
</g>
<g>
</g>
<g>
</g>
<g>
</g>
<g>
</g>
<g>
</g>
<g>
</g>
</svg>
