<svg height="512pt" viewBox="0 0 512 512" width="512pt" xmlns="http://www.w3.org/2000/svg"><path d="m512 256c0 141.386719-114.613281 256-256 256s-256-114.613281-256-256 114.613281-256 256-256 256 114.613281 256 256zm0 0" fill="#0adebf"/><path d="m512 256c0-26.550781-4.042969-52.160156-11.546875-76.242188l-141.714844-141.714843-164.238281 242.457031 67.820312 67.820312-121.953124 64.269532 98.847656 98.847656c5.550781.359375 11.144531.5625 16.785156.5625 141.386719 0 256-114.613281 256-256zm0 0" fill="#00ad90"/><path d="m212.71875 248.808594 34.863281-143.148438c12.023438-49.367187 61.789063-79.640625 111.15625-67.617187l-34.863281 143.148437c-12.019531 49.367188-61.789062 79.640625-111.15625 67.617188zm0 0" fill="#e9edf5"/><path d="m358.738281 38.042969c-12.144531-2.957031-24.308593-3.351563-35.933593-1.535157l-70.742188 213.238282c34.15625-6.667969 63.039062-32.523438 71.816406-68.554688zm0 0" fill="#dce1eb"/><path d="m200.652344 325.121094c3.398437.828125 6.824218-1.253906 7.652344-4.652344l51.269531-210.515625c.828125-3.398437-1.257813-6.824219-4.65625-7.652344-3.398438-.828125-6.824219 1.257813-7.652344 4.65625l-51.265625 210.511719c-.828125 3.398438 1.253906 6.828125 4.652344 7.652344zm0 0" fill="#fff"/><path d="m202.203125 278.589844-74.203125 60.179687 12.367188 73.820313h231.265624l12.367188-73.820313-74.203125-60.179687zm0 0" fill="#034051"/><path d="m384 338.769531-74.203125-60.179687h-53.988281v134h115.824218zm0 0" fill="#003241"/><path d="m194.5 231.5h123v49h-123zm0 0" fill="#00617e"/><path d="m255.808594 231.5h61.691406v49h-61.691406zm0 0" fill="#034051"/></svg>