<?xml version="1.0" encoding="iso-8859-1"?>
<!-- Generator: Adobe Illustrator 19.0.0, SVG Export Plug-In . SVG Version: 6.00 Build 0)  -->
<svg version="1.1" id="Capa_1" xmlns="http://www.w3.org/2000/svg" xmlns:xlink="http://www.w3.org/1999/xlink" x="0px" y="0px"
	 viewBox="0 0 512 512" style="enable-background:new 0 0 512 512;" xml:space="preserve">
<circle style="fill:#B9EAFF;" cx="256" cy="256" r="256"/>
<path style="fill:#35CCFF;" d="M299.803,508.252C420.317,487.471,512,382.449,512,256c0-6.958-0.288-13.848-0.833-20.666
	L341.885,66.052l-34.111,33.725L268,60.003l-7.464,82.971l-81.178,62.912l25.969,25.969l-63.35,54.154l61.744,61.744l-18.79,14.863
	l55.455,55.455l-17.399,13.365L299.803,508.252z"/>
<rect x="243" y="60" style="fill:#39B54A;" width="25" height="121.44"/>
<path style="fill:#009245;" d="M256.042,181.448H268v-39.552l22.391-22.391c5.814,9.954,16.606,16.662,28.942,16.662
	c18.472,0,33.5-15.028,33.5-33.5c0-12.336-6.708-23.128-16.662-28.942l6.693-6.693l-17.678-17.678L268,106.54V60.003h-11.958
	V181.448z M319.333,111.167c-4.687,0-8.5-3.813-8.5-8.5s3.813-8.5,8.5-8.5s8.5,3.813,8.5,8.5S324.02,111.167,319.333,111.167z"/>
<circle style="fill:#662E57;" cx="213.83" cy="181.33" r="42.33"/>
<circle style="fill:#590F38;" cx="298.17" cy="181.33" r="42.33"/>
<circle style="fill:#662E57;" cx="214.17" cy="332" r="42.33"/>
<circle style="fill:#590F38;" cx="297.83" cy="332" r="42.33"/>
<circle style="fill:#662E57;" cx="256" cy="404.95" r="42.33"/>
<path style="fill:#590F38;" d="M256,362.616c-0.112,0-0.222,0.008-0.333,0.008v84.65c0.112,0.001,0.221,0.008,0.333,0.008
	c23.38,0,42.333-18.953,42.333-42.333S279.38,362.616,256,362.616z"/>
<g>
	<circle style="fill:#662E57;" cx="171.83" cy="256" r="42.33"/>
	<circle style="fill:#662E57;" cx="255.5" cy="256" r="42.33"/>
</g>
<g>
	<path style="fill:#590F38;" d="M297.833,256c0-23.324-18.864-42.239-42.167-42.329v84.658
		C278.97,298.239,297.833,279.324,297.833,256z"/>
	<circle style="fill:#590F38;" cx="340.17" cy="256" r="42.33"/>
</g>
<g>
</g>
<g>
</g>
<g>
</g>
<g>
</g>
<g>
</g>
<g>
</g>
<g>
</g>
<g>
</g>
<g>
</g>
<g>
</g>
<g>
</g>
<g>
</g>
<g>
</g>
<g>
</g>
<g>
</g>
</svg>
