<?xml version="1.0" encoding="iso-8859-1"?>
<!-- Generator: Adobe Illustrator 19.0.0, SVG Export Plug-In . SVG Version: 6.00 Build 0)  -->
<svg version="1.1" id="Capa_1" xmlns="http://www.w3.org/2000/svg" xmlns:xlink="http://www.w3.org/1999/xlink" x="0px" y="0px"
	 viewBox="0 0 512 512" style="enable-background:new 0 0 512 512;" xml:space="preserve">
<circle style="fill:#590F38;" cx="256" cy="256" r="256"/>
<path style="fill:#470D30;" d="M323.317,503.037C432.041,473.479,512,374.085,512,256c0-3.191-0.079-6.364-0.195-9.528
	l-77.139-77.139L273.57,286.216L106.163,118.808l-40.774,37.161l146.517,146.517L141.08,320.8L323.317,503.037z"/>
<path style="fill:#FFFFFF;" d="M413.167,180.333c0,0-266,170-309.5-52l-35,16c0,0,6,297,339,239L413.167,180.333z"/>
<path style="fill:#E0E0E0;" d="M255.952,240.74v142.801c40.966,9.126,90.877,10.389,151.714-0.208l5.5-203
	C413.167,180.333,334.647,230.509,255.952,240.74z"/>
<rect x="399.67" y="169.33" style="fill:#C0C0C0;" width="35" height="224.5"/>
<polygon style="fill:#E0E0E0;" points="65.389,155.969 58.333,134.952 106.163,118.808 113.219,139.825 "/>
<g>
</g>
<g>
</g>
<g>
</g>
<g>
</g>
<g>
</g>
<g>
</g>
<g>
</g>
<g>
</g>
<g>
</g>
<g>
</g>
<g>
</g>
<g>
</g>
<g>
</g>
<g>
</g>
<g>
</g>
</svg>
