<svg height="512pt" viewBox="0 0 512 512" width="512pt" xmlns="http://www.w3.org/2000/svg"><path d="m512 256c0 141.386719-114.613281 256-256 256s-256-114.613281-256-256 114.613281-256 256-256 256 114.613281 256 256zm0 0" fill="#00617e"/><path d="m301.464844 507.972656c110.929687-19.882812 197.0625-111.222656 209.085937-224.683594l-240.28125-240.28125-1.21875 223.628907-192.71875.363281 183.402344 183.402344-10.601563 5.242187zm0 0" fill="#034051"/><path d="m76.332031 245h316.667969v22h-316.667969zm0 0" fill="#e6e6e6"/><path d="m76.332031 255.90625h316.667969v11.09375h-316.667969zm0 0" fill="#d7d7d7"/><path d="m252 57.65625h22v396.6875h-22zm0 0" fill="#fff"/><path d="m252 255.90625h22v198.4375h-22zm0 0" fill="#f2f6fc"/><path d="m312.71875 256c26.40625-4.824219 46.496094-27.988281 46.496094-55.769531 0-10.734375-3.03125-21.207031-8.765625-30.285157l-80.179688-126.9375-21.136719 13.351563 80.179688 126.9375c3.207031 5.078125 4.902344 10.933594 4.902344 16.933594 0 17.484375-14.226563 31.710937-31.707032 31.710937v48.121094c17.480469 0 31.707032 14.222656 31.707032 31.707031 0 6.003907-1.695313 11.859375-4.902344 16.933594l-80.179688 126.941406 21.136719 13.351563 80.179688-126.941406c5.734375-9.078126 8.765625-19.546876 8.765625-30.285157 0-27.78125-20.085938-50.945312-46.496094-55.769531zm0 0" fill="#ffe000"/><path d="m312.71875 256c.152344-.027344.304688-.066406.460938-.09375h-10.671876v24.15625c17.480469 0 31.707032 14.222656 31.707032 31.707031 0 6.003907-1.695313 11.859375-4.902344 16.933594l-80.179688 126.941406 21.136719 13.347657 80.179688-126.9375c5.734375-9.078126 8.765625-19.550782 8.765625-30.285157 0-27.78125-20.085938-50.945312-46.496094-55.769531zm0 0" fill="#ffc200"/><path d="m302.507812 210.621094h26.492188v90.757812h-26.492188zm0 0" fill="#fd095d"/><path d="m302.507812 255.90625h26.492188v45.472656h-26.492188zm0 0" fill="#bc1742"/><path d="m381.554688 198.109375 57.890624 57.898437-57.886718 57.882813zm0 0" fill="#fff"/><path d="m381.558594 255.90625v57.984375l57.886718-57.882813zm0 0" fill="#f2f6fc"/></svg>