<?xml version="1.0" encoding="iso-8859-1"?>
<!-- Generator: Adobe Illustrator 19.0.0, SVG Export Plug-In . SVG Version: 6.00 Build 0)  -->
<svg version="1.1" id="Capa_1" xmlns="http://www.w3.org/2000/svg" xmlns:xlink="http://www.w3.org/1999/xlink" x="0px" y="0px"
	 viewBox="0 0 512 512" style="enable-background:new 0 0 512 512;" xml:space="preserve">
<circle style="fill:#005C83;" cx="256" cy="256" r="256"/>
<path style="fill:#00263F;" d="M512,256c0-24.975-3.592-49.108-10.26-71.928l-76.073-76.073l-339.333,64l163.328,163.328
	L142,424.999l85.402,85.402C236.793,511.445,246.331,512,256,512C397.385,512,512,397.385,512,256z"/>
<rect x="142" y="192" style="fill:#FFFFFF;" width="228" height="233"/>
<g>
	<rect x="255.48" y="192" style="fill:#E0E0E0;" width="114.52" height="233"/>
	<rect x="172" y="246.67" style="fill:#E0E0E0;" width="34" height="178.33"/>
	<rect x="239" y="246.67" style="fill:#E0E0E0;" width="34" height="178.33"/>
</g>
<g>
	<rect x="255.48" y="246.67" style="fill:#C0C0C0;" width="17.524" height="178.33"/>
	<rect x="306" y="246.67" style="fill:#C0C0C0;" width="34" height="178.33"/>
</g>
<polygon style="fill:#E0E0E0;" points="370.042,212.999 142,212.999 96.333,158.666 415.667,158.666 "/>
<polygon style="fill:#C0C0C0;" points="415.667,158.666 255.476,158.666 255.476,212.999 370.042,212.999 "/>
<rect x="86.33" y="136" style="fill:#FFFFFF;" width="339.33" height="36"/>
<g>
	<rect x="255.48" y="136" style="fill:#E0E0E0;" width="170.19" height="36"/>
	<rect x="86.33" y="108" style="fill:#E0E0E0;" width="339.33" height="36"/>
</g>
<rect x="255.48" y="108" style="fill:#C0C0C0;" width="170.19" height="36"/>
<g>
</g>
<g>
</g>
<g>
</g>
<g>
</g>
<g>
</g>
<g>
</g>
<g>
</g>
<g>
</g>
<g>
</g>
<g>
</g>
<g>
</g>
<g>
</g>
<g>
</g>
<g>
</g>
<g>
</g>
</svg>
