<svg height="512pt" viewBox="0 0 512 512" width="512pt" xmlns="http://www.w3.org/2000/svg"><path d="m512 256c0 141.386719-114.613281 256-256 256s-256-114.613281-256-256 114.613281-256 256-256 256 114.613281 256 256zm0 0" fill="#00617e"/><path d="m510.976562 278.800781-100.351562-100.351562-4.070312 10.476562-98.136719-98.132812-57.605469 18.28125-47.824219-47.820313-14.738281 226.496094 14.738281 14.738281-36.988281 148.257813 59.429688 59.429687c10.023437 1.191407 20.222656 1.824219 30.570312 1.824219 133.699219 0 243.4375-102.496094 254.976562-233.199219zm0 0" fill="#034051"/><path d="m224.84375 94.800781h26v327.492188h-26zm0 0" fill="#fff"/><path d="m224.84375 256.5h26v165.792969h-26zm0 0" fill="#f2f6fc"/><path d="m278.90625 94.800781h26v266.304688h-26zm0 0" fill="#fff"/><path d="m278.90625 256.5h26v104.605469h-26zm0 0" fill="#f2f6fc"/><path d="m332.96875 172.613281h26v118.59375h-26zm0 0" fill="#fff"/><path d="m332.96875 256.5h26v34.707031h-26zm0 0" fill="#f2f6fc"/><path d="m253.214844 442.617188-22.648438-16.460938 160.171875-220.34375c2.011719-2.769531 1.191407-5.378906.527344-6.6875-.667969-1.308594-2.296875-3.503906-5.71875-3.503906h-45.167969c-15.152344 0-28.726562-10.148438-33.011718-24.679688l-16.972657-57.539062c-.796875-2.710938-3.328125-4.601563-6.152343-4.601563h-111.171876v-28h111.171876c15.152343 0 28.726562 10.148438 33.011718 24.679688l16.96875 57.542969c.800782 2.707031 3.332032 4.597656 6.15625 4.597656h45.167969c13.011719 0 24.761719 7.203125 30.667969 18.796875 5.902344 11.59375 4.820312 25.332031-2.828125 35.855469zm0 0" fill="#ffe000"/><path d="m353.890625 256.5-123.324219 169.65625 22.648438 16.460938 135.292968-186.117188zm0 0" fill="#ffc200"/><path d="m173.070312 61.253906h29.917969v382.378906h-29.917969zm0 0" fill="#ffe000"/><path d="m173.070312 256.5h29.917969v187.132812h-29.917969zm0 0" fill="#ffc200"/><path d="m166 409.488281h130.886719v41.257813h-130.886719zm0 0" fill="#fe8205"/></svg>