<?xml version="1.0" encoding="iso-8859-1"?>
<!-- Generator: Adobe Illustrator 19.0.0, SVG Export Plug-In . SVG Version: 6.00 Build 0)  -->
<svg version="1.1" id="Capa_1" xmlns="http://www.w3.org/2000/svg" xmlns:xlink="http://www.w3.org/1999/xlink" x="0px" y="0px"
	 viewBox="0 0 512 512" style="enable-background:new 0 0 512 512;" xml:space="preserve">
<circle style="fill:#590F38;" cx="256" cy="256" r="256"/>
<path style="fill:#42092B;" d="M512,256c0-21.34-2.628-42.063-7.548-61.881L435,124.667l-31.157,39.104l-39.104-39.104
	L290.51,306.01L120,135.5L77,387.333l117.119,117.119C213.937,509.372,234.66,512,256,512C397.385,512,512,397.385,512,256z"/>
<g>
	<polygon style="fill:#FFECB3;" points="380.542,124.667 372.5,140.5 364.739,124.667 142.823,124.667 152,136.5 131.5,163.5 
		157.5,177.5 114.5,171 120,135.5 110.37,124.667 77,124.667 77,233.397 84.5,242 77,250.786 77,387.333 144.55,387.333 157,359 
		168.403,387.333 335.448,387.333 341,339.5 351.093,387.333 394.841,387.333 411.5,352.5 406,318.5 425.5,353.5 417.042,387.333 
		435,387.333 435,124.667 	"/>
	<polygon style="fill:#FFECB3;" points="380.542,124.667 372.5,140.5 364.739,124.667 142.823,124.667 152,136.5 131.5,163.5 
		157.5,177.5 114.5,171 120,135.5 110.37,124.667 77,124.667 77,233.397 84.5,242 77,250.786 77,387.333 144.55,387.333 157,359 
		168.403,387.333 335.448,387.333 341,339.5 351.093,387.333 394.841,387.333 411.5,352.5 406,318.5 425.5,353.5 417.042,387.333 
		435,387.333 435,124.667 	"/>
</g>
<polygon style="fill:#FFD863;" points="380.542,124.667 372.5,140.5 364.739,124.667 255.952,124.667 255.952,387.333 
	335.448,387.333 341,339.5 351.093,387.333 394.841,387.333 411.5,352.5 406,318.5 425.5,353.5 417.042,387.333 435,387.333 
	435,124.667 "/>
<path style="fill:#4D4D4D;" d="M124,182.25v147.5h264v-147.5H124z M374,246.916c-23.97-22.923-57.893-39.889-101.289-50.666H374
	V246.916z M138,197.754c12.227,2.688,36.932,9.189,63.999,22.41c22.879,11.175,42.445,24.506,58.634,39.888v8.448h8.374
	c13.181,14.186,23.714,29.96,31.559,47.25H138V197.754z M315.834,315.75c-8.773-21.111-21.443-40.439-37.625-57.616V254.5h-3.508
	c-18.284-18.488-40.755-34.361-66.951-47.107c-7.398-3.6-14.594-6.714-21.423-9.406c52.571,2.875,142.91,15.876,187.673,69.352
	v48.411H315.834z"/>
<rect id="SVGCleanerId_0" x="205.95" y="254.5" style="fill:#4D4D4D;" width="17.577" height="14"/>
<rect id="SVGCleanerId_1" x="178.61" y="254.5" style="fill:#4D4D4D;" width="17.577" height="14"/>
<rect id="SVGCleanerId_2" x="151.26" y="254.5" style="fill:#4D4D4D;" width="17.577" height="14"/>
<rect x="342.66" y="254.5" style="fill:#4D4D4D;" width="17.577" height="14"/>
<rect id="SVGCleanerId_3" x="233.29" y="254.5" style="fill:#4D4D4D;" width="17.577" height="14"/>
<g>
	<rect x="287.97" y="254.5" style="fill:#4D4D4D;" width="17.577" height="14"/>
	<rect x="315.32" y="254.5" style="fill:#4D4D4D;" width="17.577" height="14"/>
</g>
<path style="fill:#333333;" d="M388,182.25H255.952v24.624c43.545,9.148,89.843,26.77,118.048,60.465v48.411h-58.166
	c-8.773-21.111-21.443-40.439-37.625-57.616V254.5h-3.508c-5.828-5.893-12.085-11.517-18.748-16.862v18.123
	c1.587,1.414,3.153,2.84,4.68,4.291v8.448h8.374c13.181,14.186,23.714,29.96,31.559,47.25h-44.613v14H388V182.25z M374,246.916
	c-23.97-22.923-57.893-39.889-101.289-50.666H374V246.916z"/>
<g>
	<rect id="SVGCleanerId_0_1_" x="205.95" y="254.5" style="fill:#4D4D4D;" width="17.577" height="14"/>
</g>
<g>
	<rect id="SVGCleanerId_1_1_" x="178.61" y="254.5" style="fill:#4D4D4D;" width="17.577" height="14"/>
</g>
<g>
	<rect id="SVGCleanerId_2_1_" x="151.26" y="254.5" style="fill:#4D4D4D;" width="17.577" height="14"/>
</g>
<rect x="342.66" y="254.5" style="fill:#333333;" width="17.577" height="14"/>
<g>
	<rect id="SVGCleanerId_3_1_" x="233.29" y="254.5" style="fill:#4D4D4D;" width="17.577" height="14"/>
</g>
<g>
	<rect x="287.97" y="254.5" style="fill:#333333;" width="17.577" height="14"/>
	<rect x="315.32" y="254.5" style="fill:#333333;" width="17.577" height="14"/>
</g>
<g>
	<rect x="132.5" y="254.5" style="fill:#4D4D4D;" width="9" height="14"/>
	<path style="fill:#4D4D4D;" d="M177.029,170.479l12.685-33.986h7.563l12.637,33.986h-9.86l-2.059-6.653h-9.046l-2.011,6.653
		H177.029z M193.495,146.21l-3.16,11.392h6.175L193.495,146.21z"/>
</g>
<path style="fill:#333333;" d="M423.383,277.267c0,1.532-0.319,2.848-0.958,3.949s-1.516,2.003-2.633,2.705s-2.417,1.22-3.901,1.556
	c-1.484,0.335-3.056,0.502-4.715,0.502H394.47v-33.986h19.721c1.18,0,2.25,0.256,3.207,0.766c0.958,0.511,1.771,1.172,2.441,1.986
	c0.67,0.813,1.188,1.74,1.556,2.776c0.366,1.037,0.55,2.099,0.55,3.183c0,1.596-0.407,3.12-1.221,4.571
	c-0.813,1.453-2.034,2.545-3.662,3.279c1.946,0.575,3.486,1.572,4.619,2.992C422.816,272.967,423.383,274.874,423.383,277.267z
	 M403.805,259.938v5.218h6.366c0.638,0,1.221-0.175,1.747-0.526c0.527-0.351,0.79-1.053,0.79-2.106c0-0.925-0.224-1.587-0.67-1.986
	c-0.447-0.399-0.974-0.599-1.58-0.599h-6.653V259.938z M413.905,275.352c0-0.83-0.224-1.523-0.67-2.083
	c-0.447-0.558-1.021-0.837-1.723-0.837h-7.707v5.696h7.372c0.766,0,1.412-0.239,1.938-0.718
	C413.642,276.932,413.905,276.246,413.905,275.352z"/>
<g>
</g>
<g>
</g>
<g>
</g>
<g>
</g>
<g>
</g>
<g>
</g>
<g>
</g>
<g>
</g>
<g>
</g>
<g>
</g>
<g>
</g>
<g>
</g>
<g>
</g>
<g>
</g>
<g>
</g>
</svg>
