<svg height="512pt" viewBox="0 0 512 512" width="512pt" xmlns="http://www.w3.org/2000/svg"><path d="m512 256c0 141.386719-114.613281 256-256 256s-256-114.613281-256-256 114.613281-256 256-256 256 114.613281 256 256zm0 0" fill="#fd095d"/><path d="m510.394531 284.65625-75.394531-75.394531-103.90625 59.359375-78.09375-73.621094-14.617188 36.457031-36.519531-36.519531-27.167969 48.355469-48.355468-48.355469-51.207032 105.972656 209.488282 209.488282c118.5-13.183594 212.570312-107.246094 225.773437-225.742188zm0 0" fill="#bc1742"/><g fill="#00617e"><path d="m128.523438 261.28125h-12.976563v-12.980469c0-29.472656 23.890625-53.363281 53.363281-53.363281h12.976563v12.980469c0 29.472656-23.890625 53.363281-53.363281 53.363281zm0 0"/><path d="m128.523438 250.71875h-12.976563v12.980469c0 29.472656 23.890625 53.363281 53.363281 53.363281h12.976563v-12.980469c0-29.472656-23.890625-53.363281-53.363281-53.363281zm0 0"/><path d="m117.921875 250.707031h225.386719v13.996094h-225.386719zm0 0"/></g><path d="m255.808594 250.707031h87.5v13.996094h-87.5zm0 0" fill="#034051"/><path d="m395.476562 261.28125h12.976563v-12.980469c0-29.472656-23.890625-53.363281-53.363281-53.363281h-12.976563v12.980469c0 29.472656 23.890625 53.363281 53.363281 53.363281zm0 0" fill="#034051"/><path d="m395.476562 250.71875h12.976563v12.980469c0 29.472656-23.890625 53.363281-53.363281 53.363281h-12.976563v-12.980469c0-29.472656 23.890625-53.363281 53.363281-53.363281zm0 0" fill="#034051"/><path d="m253 206.855469v-12.976563h-12.980469c-29.46875 0-53.363281 23.890625-53.363281 53.363282v15.394531c0 29.472656 23.894531 53.363281 53.363281 53.363281h12.980469v-12.980469c0-21.167969-12.324219-39.457031-30.191406-48.082031 17.867187-8.625 30.191406-26.914062 30.191406-48.082031zm0 0" fill="#00617e"/><path d="m319.953125 261.28125h12.980469v-12.980469c0-29.472656-23.894532-53.363281-53.363282-53.363281h-12.980468v12.980469c0 29.472656 23.890625 53.363281 53.363281 53.363281zm0 0" fill="#034051"/><path d="m319.953125 250.71875h12.980469v12.980469c0 29.472656-23.894532 53.363281-53.363282 53.363281h-12.980468v-12.980469c0-29.472656 23.890625-53.363281 53.363281-53.363281zm0 0" fill="#034051"/><path d="m72.980469 261.28125h-12.980469v-12.980469c0-29.472656 23.890625-53.363281 53.363281-53.363281h12.980469v12.980469c0 29.472656-23.894531 53.363281-53.363281 53.363281zm0 0" fill="#ffe000"/><path d="m72.980469 250.71875h-12.980469v12.980469c0 29.472656 23.890625 53.363281 53.363281 53.363281h12.980469v-12.980469c0-29.472656-23.894531-53.363281-53.363281-53.363281zm0 0" fill="#ffe000"/><path d="m62.378906 250.707031h91.152344v13.996094h-91.152344zm0 0" fill="#ffe000"/><path d="m439.019531 261.28125h12.980469v-12.980469c0-29.472656-23.890625-53.363281-53.363281-53.363281h-12.980469v12.980469c0 29.472656 23.894531 53.363281 53.363281 53.363281zm0 0" fill="#ffc200"/><path d="m439.019531 250.71875h12.980469v12.980469c0 29.472656-23.890625 53.363281-53.363281 53.363281h-12.980469v-12.980469c0-29.472656 23.894531-53.363281 53.363281-53.363281zm0 0" fill="#ffc200"/><path d="m148.5 261.28125h-12.976562v-12.980469c0-29.472656 23.890624-53.363281 53.363281-53.363281h12.976562v12.980469c0 29.472656-23.890625 53.363281-53.363281 53.363281zm0 0" fill="#ffe000"/><path d="m148.5 250.71875h-12.976562v12.980469c0 29.472656 23.890624 53.363281 53.363281 53.363281h12.976562v-12.980469c0-29.472656-23.890625-53.363281-53.363281-53.363281zm0 0" fill="#ffe000"/><path d="m363.5 261.28125h12.976562v-12.980469c0-29.472656-23.890624-53.363281-53.363281-53.363281h-12.976562v12.980469c0 29.472656 23.890625 53.363281 53.363281 53.363281zm0 0" fill="#ffc200"/><path d="m363.5 250.71875h12.976562v12.980469c0 29.472656-23.890624 53.363281-53.363281 53.363281h-12.976562v-12.980469c0-29.472656 23.890625-53.363281 53.363281-53.363281zm0 0" fill="#ffc200"/><path d="m449.621094 264.703125h-91.152344v-13.996094h91.152344zm0 0" fill="#ffc200"/></svg>