<?xml version="1.0" encoding="iso-8859-1"?>
<!-- Generator: Adobe Illustrator 19.0.0, SVG Export Plug-In . SVG Version: 6.00 Build 0)  -->
<svg version="1.1" id="Capa_1" xmlns="http://www.w3.org/2000/svg" xmlns:xlink="http://www.w3.org/1999/xlink" x="0px" y="0px"
	 viewBox="0 0 512 512" style="enable-background:new 0 0 512 512;" xml:space="preserve">
<circle style="fill:#005C83;" cx="256" cy="256" r="256"/>
<path style="fill:#00263F;" d="M512,256c0-5.251-0.177-10.46-0.489-15.633L363.63,92.486L269.048,256l-88.333-61.407l-96.978,34.57
	l2.524,113.748l169.08,169.081c0.22,0,0.439,0.008,0.659,0.008C397.385,512,512,397.385,512,256z"/>
<path style="fill:#FFDC00;" d="M363.63,92.486v195.313H165.905v-96.22h119.057c15.583,0,28.216-12.633,28.216-28.216v-15.955
	c0-15.905,8.473-30.605,22.235-38.577L363.63,92.486z"/>
<path style="fill:#FFC000;" d="M363.63,92.486l-28.216,16.345c-13.762,7.972-22.235,22.672-22.235,38.577v15.955
	c0,15.583-12.633,28.216-28.216,28.216h-29.01v96.22H363.63V92.486z"/>
<rect x="163.87" y="283.64" style="fill:#FF6838;" width="270.43" height="20"/>
<rect x="255.95" y="283.64" style="fill:#AE4E32;" width="178.35" height="20"/>
<path style="fill:#FFFFFF;" d="M161.824,186.297c-53.245,0-96.563,43.318-96.563,96.564s43.318,96.564,96.563,96.564
	c53.246,0,96.564-43.318,96.564-96.564S215.07,186.297,161.824,186.297z M236.985,275.046h-56.216l39.73-39.731
	C229.503,246.406,235.44,260.082,236.985,275.046z M169.454,207.681c14.945,1.505,28.608,7.394,39.708,16.342l-39.708,39.71
	L169.454,207.681L169.454,207.681z M153.454,263.732l-39.383-39.383c10.989-8.985,24.545-14.935,39.383-16.578V263.732z
	 M153.454,357.95c-14.745-1.633-28.221-7.522-39.174-16.414l39.174-39.175V357.95z M169.454,302.36l39.501,39.501
	c-11.063,8.855-24.649,14.683-39.501,16.179L169.454,302.36L169.454,302.36z M102.824,235.73l39.316,39.316H86.664
	C88.19,260.266,94.005,246.747,102.824,235.73z M86.712,291.046h55.43L102.989,330.2C94.151,319.239,88.306,305.774,86.712,291.046z
	 M220.336,330.614l-39.568-39.568h56.17C235.324,305.957,229.358,319.579,220.336,330.614z"/>
<path style="fill:#E0E0E0;" d="M161.824,186.297c-0.172,0-0.343,0.006-0.515,0.007v193.115c0.172,0,0.343,0.006,0.515,0.006
	c53.246,0,96.564-43.318,96.564-96.564S215.07,186.297,161.824,186.297z M236.985,275.046h-56.216l39.73-39.731
	C229.503,246.406,235.44,260.082,236.985,275.046z M169.454,207.681c14.945,1.505,28.608,7.394,39.708,16.342l-39.708,39.71
	L169.454,207.681L169.454,207.681z M169.454,358.041v-55.68l39.501,39.501C197.892,350.717,184.306,356.544,169.454,358.041z
	 M220.336,330.614l-39.568-39.568h56.17C235.324,305.957,229.358,319.579,220.336,330.614z"/>
<g>
</g>
<g>
</g>
<g>
</g>
<g>
</g>
<g>
</g>
<g>
</g>
<g>
</g>
<g>
</g>
<g>
</g>
<g>
</g>
<g>
</g>
<g>
</g>
<g>
</g>
<g>
</g>
<g>
</g>
</svg>
