<svg height="512pt" viewBox="0 0 512 512" width="512pt" xmlns="http://www.w3.org/2000/svg"><path d="m512 256c0 141.386719-114.613281 256-256 256s-256-114.613281-256-256 114.613281-256 256-256 256 114.613281 256 256zm0 0" fill="#00617e"/><path d="m512 256c0-6.84375-.277344-13.625-.804688-20.335938l-105.082031-105.082031-317.113281 75.992188 59.667969 59.667969v122.550781l-59.667969 7.300781 109.398438 109.398438c18.515624 4.253906 37.792968 6.507812 57.601562 6.507812 141.386719 0 256-114.613281 256-256zm0 0" fill="#034051"/><path d="m406.113281 188.75h-300.226562v-58.167969l150.113281-65.675781 150.113281 65.675781zm0 0" fill="#fff"/><path d="m255.808594 188.75h150.304687v-58.167969l-150.113281-65.675781zm0 0" fill="#f2f6fc"/><path d="m105.886719 196.257812h53.964843v179.195313h-53.964843zm0 0" fill="#fff"/><path d="m187.976562 196.257812h53.960938v179.195313h-53.960938zm0 0" fill="#fff"/><path d="m270.0625 196.257812h53.960938v179.195313h-53.960938zm0 0" fill="#f2f6fc"/><path d="m352.148438 196.257812h53.964843v179.195313h-53.964843zm0 0" fill="#f2f6fc"/><path d="m89 148.40625h334v58.167969h-334zm0 0" fill="#e9edf5"/><path d="m255.808594 148.40625h167.191406v58.167969h-167.191406zm0 0" fill="#dce1eb"/><path d="m89 351.765625h334v44.328125h-334zm0 0" fill="#e9edf5"/><path d="m255.808594 351.765625h167.191406v44.328125h-167.191406zm0 0" fill="#dce1eb"/></svg>