<svg height="512pt" viewBox="0 0 512 512" width="512pt" xmlns="http://www.w3.org/2000/svg"><path d="m512 256c0 141.386719-114.613281 256-256 256s-256-114.613281-256-256 114.613281-256 256-256 256 114.613281 256 256zm0 0" fill="#00617e"/><path d="m512 256c0-2.988281-.070312-5.960938-.171875-8.921875l-130.738281-130.738281-182.421875 73.496094-75.09375 198.902343 123.074219 123.074219c3.105468.113281 6.21875.1875 9.351562.1875 141.386719 0 256-114.613281 256-256zm0 0" fill="#034051"/><path d="m443.5 256c0 103.554688-83.945312 187.5-187.5 187.5s-187.5-83.945312-187.5-187.5 83.945312-187.5 187.5-187.5 187.5 83.945312 187.5 187.5zm0 0" fill="#f8a122"/><path d="m256 68.5c-.0625 0-.128906.003906-.191406.003906v374.992188c.066406 0 .128906.003906.191406.003906 103.554688 0 187.5-83.949219 187.5-187.5 0-103.554688-83.945312-187.5-187.5-187.5zm0 0" fill="#ff4e2a"/><path d="m349.753906 256c0 51.777344-41.976562 93.753906-93.753906 93.753906s-93.753906-41.976562-93.753906-93.753906 41.976562-93.753906 93.753906-93.753906 93.753906 41.976562 93.753906 93.753906zm0 0" fill="#fff"/><path d="m256 162.246094c-.0625 0-.128906.003906-.191406.003906v187.5c.066406 0 .128906.003906.191406.003906 51.777344 0 93.753906-41.976562 93.753906-93.753906s-41.976562-93.753906-93.753906-93.753906zm0 0" fill="#f2f6fc"/><path d="m299.097656 256c0 23.800781-19.296875 43.097656-43.097656 43.097656s-43.097656-19.296875-43.097656-43.097656 19.296875-43.097656 43.097656-43.097656 43.097656 19.296875 43.097656 43.097656zm0 0" fill="#636978"/><path d="m256 212.902344c-.0625 0-.128906.007812-.191406.007812v86.179688c.066406 0 .128906.007812.191406.007812 23.800781 0 43.097656-19.296875 43.097656-43.097656s-19.296875-43.097656-43.097656-43.097656zm0 0" fill="#555a66"/><path d="m273.203125 103.425781c0 9.5-7.703125 17.203125-17.203125 17.203125s-17.203125-7.703125-17.203125-17.203125c0-9.503906 7.703125-17.203125 17.203125-17.203125s17.203125 7.699219 17.203125 17.203125zm0 0" fill="#fff"/><path d="m256 86.222656c-.0625 0-.125.007813-.191406.007813v34.386719c.066406.003906.128906.011718.191406.011718 9.5 0 17.203125-7.703125 17.203125-17.203125 0-9.503906-7.703125-17.203125-17.203125-17.203125zm0 0" fill="#f2f6fc"/><path d="m273.203125 408.574219c0 9.503906-7.703125 17.207031-17.203125 17.207031s-17.203125-7.703125-17.203125-17.207031c0-9.5 7.703125-17.203125 17.203125-17.203125s17.203125 7.703125 17.203125 17.203125zm0 0" fill="#fff"/><path d="m256 391.371094c-.0625 0-.125.011718-.191406.011718v34.386719c.066406 0 .128906.011719.191406.011719 9.5 0 17.203125-7.703125 17.203125-17.207031 0-9.5-7.703125-17.203125-17.203125-17.203125zm0 0" fill="#f2f6fc"/><path d="m425.78125 256c0 9.5-7.703125 17.203125-17.207031 17.203125-9.5 0-17.203125-7.703125-17.203125-17.203125s7.703125-17.203125 17.203125-17.203125c9.503906 0 17.207031 7.703125 17.207031 17.203125zm0 0" fill="#f2f6fc"/><path d="m120.628906 256c0 9.5-7.703125 17.203125-17.203125 17.203125-9.503906 0-17.203125-7.703125-17.203125-17.203125s7.699219-17.203125 17.203125-17.203125c9.5 0 17.203125 7.703125 17.203125 17.203125zm0 0" fill="#fff"/><path d="m376.046875 135.949219c-6.714844-6.71875-17.609375-6.71875-24.328125 0s-6.71875 17.613281 0 24.332031 17.613281 6.71875 24.328125 0c6.71875-6.71875 6.71875-17.613281 0-24.332031zm0 0" fill="#f2f6fc"/><path d="m160.273438 351.71875c-6.71875-6.714844-17.609376-6.714844-24.328126 0-6.71875 6.71875-6.71875 17.613281 0 24.332031s17.609376 6.71875 24.328126 0 6.71875-17.613281 0-24.332031zm0 0" fill="#fff"/><path d="m160.277344 135.949219c-6.71875-6.71875-17.613282-6.71875-24.332032 0s-6.71875 17.609375 0 24.328125 17.613282 6.71875 24.332032 0 6.71875-17.609375 0-24.328125zm0 0" fill="#fff"/><path d="m376.046875 351.722656c-6.71875-6.71875-17.609375-6.71875-24.328125 0s-6.71875 17.609375 0 24.328125 17.609375 6.71875 24.328125 0 6.71875-17.609375 0-24.328125zm0 0" fill="#f2f6fc"/></svg>