<?xml version="1.0" encoding="iso-8859-1"?>
<!-- Generator: Adobe Illustrator 19.0.0, SVG Export Plug-In . SVG Version: 6.00 Build 0)  -->
<svg version="1.1" id="Capa_1" xmlns="http://www.w3.org/2000/svg" xmlns:xlink="http://www.w3.org/1999/xlink" x="0px" y="0px"
	 viewBox="0 0 512 512" style="enable-background:new 0 0 512 512;" xml:space="preserve">
<circle style="fill:#005C83;" cx="256" cy="256" r="256"/>
<path style="fill:#00263F;" d="M493.192,352.442L248,107.25l-19.037,33.774h-54.689L140.5,107.25l-5.17,269.7L113,377.5
	l134.338,134.338C250.215,511.934,253.1,512,256,512C363.264,512,455.103,446.021,493.192,352.442z"/>
<path id="SVGCleanerId_0" style="fill:#FFDC00;" d="M418.787,305.153l-134.538-23.235C263.245,278.291,248,260.188,248,238.873
	V107.25h-21v21.25h-86.5v-21.25h-21V370.5h21v-46.813l95.365-52.059c1.197,2.041,2.511,4.004,3.92,5.896l-55.073,84.229
	l17.576,11.492l52.916-80.931c2.626,1.79,5.396,3.394,8.296,4.792V364.5h21v-61.228l20.667,3.569V374h21v-63.532l20.666,3.569V366
	h21v-48.336l20.667,3.569V366.5h21v-41.64l5.713,0.987L418.787,305.153z M140.5,219v-24.25H227V219H140.5z M227,149.5v24.25h-86.5
	V149.5H227z M140.5,299.762V240h86.525c0.069,4.036,0.507,7.989,1.284,11.827L140.5,299.762z"/>
<g>
	<path id="SVGCleanerId_0_1_" style="fill:#FFDC00;" d="M418.787,305.153l-134.538-23.235C263.245,278.291,248,260.188,248,238.873
		V107.25h-21v21.25h-86.5v-21.25h-21V370.5h21v-46.813l95.365-52.059c1.197,2.041,2.511,4.004,3.92,5.896l-55.073,84.229
		l17.576,11.492l52.916-80.931c2.626,1.79,5.396,3.394,8.296,4.792V364.5h21v-61.228l20.667,3.569V374h21v-63.532l20.666,3.569V366
		h21v-48.336l20.667,3.569V366.5h21v-41.64l5.713,0.987L418.787,305.153z M140.5,219v-24.25H227V219H140.5z M227,149.5v24.25h-86.5
		V149.5H227z M140.5,299.762V240h86.525c0.069,4.036,0.507,7.989,1.284,11.827L140.5,299.762z"/>
</g>
<path style="fill:#FFC000;" d="M284.249,281.918c-11.819-2.041-21.815-8.667-28.297-17.868v28.755
	c2.405,1.59,4.92,3.035,7.548,4.302V364.5h21v-61.228l20.667,3.569V374h21v-63.532l20.666,3.569V366h21v-48.336l20.667,3.569V366.5
	h21v-41.64l5.713,0.987l3.574-20.693L284.249,281.918z"/>
<rect x="113" y="354.5" style="fill:#FF6838;" width="305.5" height="23"/>
<rect x="255.95" y="354.5" style="fill:#AE4E32;" width="162.55" height="23"/>
<g>
</g>
<g>
</g>
<g>
</g>
<g>
</g>
<g>
</g>
<g>
</g>
<g>
</g>
<g>
</g>
<g>
</g>
<g>
</g>
<g>
</g>
<g>
</g>
<g>
</g>
<g>
</g>
<g>
</g>
</svg>
