<svg height="512pt" viewBox="0 0 512 512" width="512pt" xmlns="http://www.w3.org/2000/svg"><path d="m512 256c0 141.386719-114.613281 256-256 256s-256-114.613281-256-256 114.613281-256 256-256 256 114.613281 256 256zm0 0" fill="#00617e"/><path d="m300.773438 508.089844c107.398437-18.945313 191.707031-104.839844 208.265624-213.042969l-199.707031-199.707031 1.667969 14.660156-55-55 2.597656 96.269531-55.929687-55.929687 38.230469 106.769531-93.554688-16.109375 93.285156 93.285156-2.945312 165.714844zm0 0" fill="#034051"/><path d="m218 148c0-20.988281 38-93 38-93s38 72.011719 38 93-17.011719 38-38 38-38-17.011719-38-38zm0 0" fill="#ffe000"/><path d="m255.808594 185.996094c.066406 0 .128906.003906.191406.003906 20.988281 0 38-17.011719 38-38s-38-93-38-93zm0 0" fill="#ffc200"/><path d="m176.367188 159.703125c0-14.523437 26.296874-64.363281 26.296874-64.363281s26.300782 49.839844 26.300782 64.363281-11.773438 26.296875-26.300782 26.296875c-14.523437 0-26.296874-11.773438-26.296874-26.296875zm0 0" fill="#ffe000"/><path d="m283.035156 159.703125c0-14.523437 26.296875-64.363281 26.296875-64.363281s26.300781 49.839844 26.300781 64.363281-11.777343 26.296875-26.300781 26.296875c-14.523437 0-26.296875-11.773438-26.296875-26.296875zm0 0" fill="#ffc200"/><path d="m230.71875 154.78125c0-13.964844 25.28125-61.875 25.28125-61.875s25.28125 47.910156 25.28125 61.875c0 13.960938-11.320312 25.28125-25.28125 25.28125s-25.28125-11.320312-25.28125-25.28125zm0 0" fill="#ff9408"/><path d="m256 92.90625s-.066406.128906-.191406.363281v86.785157c.066406 0 .128906.007812.191406.007812 13.960938 0 25.28125-11.320312 25.28125-25.28125 0-13.964844-25.28125-61.875-25.28125-61.875zm0 0" fill="#ff4e2a"/><path d="m274.316406 445h-36.632812l-23.894532-243h84.421876zm0 0" fill="#e9edf5"/><path d="m298.210938 202h-42.402344v243h18.507812zm0 0" fill="#dce1eb"/><path d="m134.402344 169c25.863281 39.726562 70.660156 66 121.597656 66s95.734375-26.273438 121.597656-66zm0 0" fill="#fff"/><path d="m255.808594 169v65.996094c.066406 0 .128906.003906.191406.003906 50.9375 0 95.734375-26.273438 121.597656-66zm0 0" fill="#f2f6fc"/></svg>