<?xml version="1.0" encoding="iso-8859-1"?>
<!-- Generator: Adobe Illustrator 19.0.0, SVG Export Plug-In . SVG Version: 6.00 Build 0)  -->
<svg version="1.1" id="Capa_1" xmlns="http://www.w3.org/2000/svg" xmlns:xlink="http://www.w3.org/1999/xlink" x="0px" y="0px"
	 viewBox="0 0 512 512" style="enable-background:new 0 0 512 512;" xml:space="preserve">
<circle style="fill:#35CCFF;" cx="256" cy="256" r="256"/>
<path style="fill:#00BAFF;" d="M512,256c0-1.438-0.031-2.868-0.054-4.299L335.745,75.5l-16.386,31.248l-50.074-50.074
	L61.877,307.723l36.506,36.506l-16.695,6.781l160.624,160.624C246.845,511.873,251.408,512,256,512C397.385,512,512,397.385,512,256
	z"/>
<path style="fill:#FFECB3;" d="M356.479,222.984c0,0,0-11.468,0-13.202c0-77.031-62.447-139.478-139.478-139.478
	S77.523,132.75,77.523,209.782c0,38.331,15.466,73.046,40.492,98.258l3.108,2.812l-34.934,136.7
	c42.395,37.611,97.355,61.365,157.796,64.159l13.316-100.844h63.574c19.663,0,35.604-15.94,35.604-35.604v-56.102h21.706
	c8.548,0,14.358-8.679,11.101-16.582L356.479,222.984z"/>
<path style="fill:#FFD863;" d="M389.286,302.58l-32.807-79.596c0,0,0-11.468,0-13.202c0-77.031-62.447-139.478-139.478-139.478
	c-6.1,0-12.108,0.394-18.001,1.154V505.61c14.563,3.312,29.595,5.389,44.985,6.101l13.316-100.844h63.574
	c19.663,0,35.604-15.94,35.604-35.604v-56.102h21.706C386.733,319.162,392.543,310.483,389.286,302.58z"/>
<path style="fill:#754C24;" d="M327.667,97c-0.925,0-1.84,0.043-2.749,0.106c-3.511-17.55-19.002-30.773-37.584-30.773
	c-3.496,0-6.878,0.477-10.096,1.354C272.571,56.703,261.686,49,249,49c-9.891,0-18.683,4.688-24.291,11.958
	C219.239,52.558,209.771,47,199,47c-12.043,0-22.458,6.945-27.476,17.045c-3.648-1.531-7.654-2.379-11.858-2.379
	c-16.609,0-30.125,13.207-30.642,29.691c-1.53-0.235-3.096-0.357-4.691-0.357c-16.937,0-30.667,13.73-30.667,30.667
	c0,0.341,0.015,0.678,0.026,1.016C78.958,124.92,67.667,137.641,67.667,153c0,6.033,1.749,11.655,4.758,16.399
	c-11.022,4.649-18.758,15.554-18.758,28.268c0,6.576,2.076,12.663,5.6,17.656c-7.823,5.557-12.933,14.685-12.933,25.011
	c0,10.945,5.738,20.544,14.365,25.971c-3.988,5.176-6.365,11.657-6.365,18.696c0,14.484,10.045,26.615,23.546,29.827
	c-2.673,4.55-4.213,9.848-4.213,15.507c0,16.937,13.73,30.667,30.667,30.667C121.27,361,135,347.27,135,330.333
	c0-0.023-0.002-0.045-0.002-0.068C148.729,327.221,159,314.98,159,300.333c0-3.688-0.652-7.224-1.846-10.5
	c14.317-2.588,25.179-15.105,25.179-30.167c0-8.549-3.501-16.277-9.144-21.839c10.866-1.977,19.734-9.673,23.366-19.863
	c4.567,2.746,9.907,4.335,15.616,4.364c-2.856,4.659-4.505,10.139-4.505,16.004c0,16.937,13.73,30.667,30.667,30.667
	C255.27,269,269,255.27,269,238.333c0-2.586-0.324-5.097-0.927-7.496c13.525-3.195,23.593-15.336,23.593-29.837
	c0-2.337-0.27-4.61-0.765-6.797c0.911,0.082,1.833,0.13,2.765,0.13c12.832,0,23.818-7.885,28.391-19.071
	c1.833,0.262,3.704,0.405,5.609,0.405c21.723,0,39.333-17.61,39.333-39.333C367,114.61,349.39,97,327.667,97z"/>
<path style="fill:#603813;" d="M327.667,97c-0.925,0-1.84,0.043-2.749,0.106c-3.511-17.55-19.002-30.773-37.584-30.773
	c-3.496,0-6.878,0.477-10.096,1.354C272.571,56.703,261.686,49,249,49c-9.891,0-18.683,4.688-24.291,11.958
	C219.239,52.558,209.771,47,199,47v172.27c3.988,1.93,8.45,3.035,13.172,3.059c-2.856,4.659-4.505,10.139-4.505,16.004
	c0,16.937,13.73,30.667,30.667,30.667C255.27,269,269,255.27,269,238.333c0-2.586-0.324-5.097-0.927-7.496
	c13.525-3.195,23.593-15.336,23.593-29.837c0-2.337-0.27-4.61-0.765-6.797c0.911,0.082,1.833,0.13,2.765,0.13
	c12.832,0,23.818-7.885,28.391-19.071c1.833,0.262,3.704,0.405,5.609,0.405c21.723,0,39.333-17.61,39.333-39.333
	C367,114.61,349.39,97,327.667,97z"/>
<polygon style="fill:#FFFFFF;" points="353.598,101.398 61.877,307.723 44.025,281.825 335.745,75.5 "/>
<polygon style="fill:#E0E0E0;" points="335.745,75.5 199,172.216 199,210.74 353.598,101.398 "/>
<path style="fill:#FFECB3;" d="M161.373,254.363c0-21.206,16.258-38.397,36.313-38.397S234,233.157,234,254.363
	S230.839,313,210.783,313S161.373,275.569,161.373,254.363z"/>
<path style="fill:#FFD863;" d="M199,216.001v93.519c4.082,2.203,8.091,3.48,11.783,3.48C230.839,313,234,275.569,234,254.363
	C234,233.623,218.446,216.733,199,216.001z"/>
<path style="fill:#8C6239;" d="M313,355v-40.704C264.582,295.543,235,253,235,253s-19.333,50.667-19.333,118s142.667,90,142.667,90
	V355H313z"/>
<g>
</g>
<g>
</g>
<g>
</g>
<g>
</g>
<g>
</g>
<g>
</g>
<g>
</g>
<g>
</g>
<g>
</g>
<g>
</g>
<g>
</g>
<g>
</g>
<g>
</g>
<g>
</g>
<g>
</g>
</svg>
