<?xml version="1.0" encoding="iso-8859-1"?>
<!-- Generator: Adobe Illustrator 19.0.0, SVG Export Plug-In . SVG Version: 6.00 Build 0)  -->
<svg version="1.1" id="Capa_1" xmlns="http://www.w3.org/2000/svg" xmlns:xlink="http://www.w3.org/1999/xlink" x="0px" y="0px"
	 viewBox="0 0 512 512" style="enable-background:new 0 0 512 512;" xml:space="preserve">
<circle style="fill:#005C83;" cx="256" cy="256" r="256"/>
<path style="fill:#00263F;" d="M302,78.5l22.5,27L135,253.5l-77.229,33.955l223.32,223.319C410.698,498.166,512,388.918,512,256
	c0-2.609-0.051-5.206-0.129-7.795L324.282,60.518L302,78.5z"/>
<rect x="89.67" y="246.33" style="fill:#FFECB3;" width="344.67" height="20"/>
<rect x="89.67" y="256" style="fill:#FFD863;" width="344.67" height="10.338"/>
<polygon style="fill:#FFDC00;" points="318.419,417.23 127.501,256 318.419,94.77 331.323,110.05 158.499,256 331.323,401.95 "/>
<polygon style="fill:#FFC000;" points="127.501,256 318.419,417.23 331.323,401.95 158.499,256 "/>
<path style="fill:#FF6838;" d="M399,255.867c0-79.175-35.929-146.011-85.139-167.265c8.436-0.823,15.03-7.932,15.03-16.584
	c0-9.205-7.462-16.667-16.667-16.667s-16.667,7.462-16.667,16.667c0,4.774,2.018,9.067,5.234,12.106
	c-0.003-0.001-0.005-0.001-0.008-0.002c34.482,35.047,57.55,98.846,57.55,171.746s-23.068,136.698-57.55,171.746
	c0.003,0,0.005-0.001,0.008-0.002c-3.385,3.051-5.526,7.456-5.526,12.371c0,9.205,7.462,16.667,16.667,16.667
	s16.667-7.462,16.667-16.667c0-8.752-6.75-15.914-15.325-16.599C362.785,402.408,399,335.356,399,255.867z"/>
<path style="fill:#AE4E32;" d="M358.333,255.867c0,72.9-23.068,136.698-57.55,171.746c0.003-0.001,0.005-0.002,0.008-0.003
	c-3.385,3.051-5.526,7.456-5.526,12.371c0,9.205,7.462,16.667,16.667,16.667s16.667-7.462,16.667-16.667
	c0-8.752-6.75-15.914-15.325-16.599C362.785,402.408,399,335.356,399,255.867H358.333z"/>
<polygon style="fill:#FFFFFF;" points="479.648,256 412.437,287.455 420.657,256 412.438,224.545 "/>
<polygon style="fill:#E0E0E0;" points="420.657,256 412.437,287.455 479.648,256 "/>
<polygon style="fill:#FF6838;" points="112.635,276.791 118.068,256 112.635,235.209 57.771,224.545 65.991,256 57.771,287.455 "/>
<polygon style="fill:#AE4E32;" points="65.991,256 57.771,287.455 112.635,276.791 118.068,256 "/>
<g>
</g>
<g>
</g>
<g>
</g>
<g>
</g>
<g>
</g>
<g>
</g>
<g>
</g>
<g>
</g>
<g>
</g>
<g>
</g>
<g>
</g>
<g>
</g>
<g>
</g>
<g>
</g>
<g>
</g>
</svg>
