<svg height="512pt" viewBox="0 0 512 512" width="512pt" xmlns="http://www.w3.org/2000/svg"><path d="m512 256c0 141.386719-114.613281 256-256 256s-256-114.613281-256-256 114.613281-256 256-256 256 114.613281 256 256zm0 0" fill="#00617e"/><path d="m511.777344 266.277344-172.277344-172.277344-157 41 33.625 33.625-88.125 7.375 6.5 153.75 78.828125 78.46875-30.652344 33.78125 69.957031 69.957031c1.121094.015625 2.238282.042969 3.367188.042969 137.941406 0 250.382812-109.105469 255.777344-245.722656zm0 0" fill="#034051"/><path d="m309.5 203.09375 10-68.09375h10l10-41h-167l10 41h10l2.351562 16h-35.3125c-30.625 0-55.539062 24.914062-55.539062 55.539062v49.460938c0 37.398438 19.65625 70.285156 49.179688 88.890625 5.910156 30.039063 16.167968 65.570313 29.496093 97.109375h146.648438c21.621093-51.160156 35.175781-112.847656 35.175781-144.5 0-40.46875-22.15625-75.757812-55-94.40625zm-177.5 52.90625v-49.460938c0-15.183593 12.355469-27.539062 27.539062-27.539062h39.421876l3.539062 24.09375c-32.84375 18.648438-55 53.9375-55 94.40625 0 1.558594.042969 3.210938.105469 4.910156-9.785157-12.914062-15.605469-28.992187-15.605469-46.410156zm0 0" fill="#ffe000"/><path d="m352.460938 151h-35.3125l2.351562-16h10l10-41h-83.691406v348h73.515625c13.328125-31.539062 23.585937-67.070312 29.496093-97.109375 29.523438-18.605469 49.179688-51.492187 49.179688-88.890625v-49.460938c0-30.625-24.914062-55.539062-55.539062-55.539062zm27.539062 105c0 17.417969-5.820312 33.496094-15.605469 46.410156.0625-1.699218.105469-3.351562.105469-4.910156 0-40.46875-22.15625-75.757812-55-94.40625l3.539062-24.09375h39.421876c15.183593 0 27.539062 12.355469 27.539062 27.539062zm0 0" fill="#ffc200"/><path d="m301.667969 240.441406h12.921875c17.53125 0 31.746094 14.210938 31.746094 31.746094v12.917969h-44.667969zm0 0" fill="#bc1742"/><path d="m197.414062 240.441406h12.921876v44.664063h-44.667969v-12.917969c0-17.535156 14.210937-31.746094 31.746093-31.746094zm0 0" fill="#fd095d"/><path d="m278.332031 285.105469h-44.664062v-44.664063h44.664062zm0 0" fill="#fd095d"/><path d="m255.808594 240.441406h22.527344v44.664063h-22.527344zm0 0" fill="#bc1742"/><path d="m150.804688 331.699219h210.390624c1.949219-12.003907 3.074219-22.75 3.269532-31.5h-216.929688c.195313 8.746093 1.320313 19.492187 3.269532 31.5zm0 0" fill="#fd095d"/><path d="m364.464844 300.199219h-108.65625v31.5h105.386718c1.949219-12.007813 3.074219-22.753907 3.269532-31.5zm0 0" fill="#bc1742"/></svg>