<?xml version="1.0" encoding="iso-8859-1"?>
<!-- Generator: Adobe Illustrator 19.0.0, SVG Export Plug-In . SVG Version: 6.00 Build 0)  -->
<svg version="1.1" id="Capa_1" xmlns="http://www.w3.org/2000/svg" xmlns:xlink="http://www.w3.org/1999/xlink" x="0px" y="0px"
	 viewBox="0 0 512 512" style="enable-background:new 0 0 512 512;" xml:space="preserve">
<circle style="fill:#B9EAFF;" cx="256" cy="256" r="256"/>
<path style="fill:#35CCFF;" d="M512,256c0-7.208-0.313-14.341-0.897-21.397l-116.29-116.946L113.808,390.893l120.941,120.223
	C241.758,511.692,248.843,512,256,512C397.385,512,512,397.385,512,256z"/>
<circle style="fill:#FF6838;" cx="256" cy="256" r="196"/>
<path style="fill:#AE4E32;" d="M256,60c-0.111,0-0.222,0.004-0.333,0.004v391.992c0.111,0,0.222,0.004,0.333,0.004
	c108.248,0,196-87.752,196-196S364.248,60,256,60z"/>
<circle style="fill:#FFDC00;" cx="256" cy="256" r="155"/>
<path style="fill:#FFC000;" d="M256,101c-0.111,0-0.222,0.004-0.333,0.004v309.992c0.111,0,0.222,0.004,0.333,0.004
	c85.604,0,155-69.396,155-155S341.604,101,256,101z"/>
<path style="fill:#FFECB3;" d="M354.598,302.069v27.978h14.818v-13.159h13.724v22.225h-45.314V302.07h-43.36v27.978h14.819v-13.159
	h13.723v22.225h-45.575v-37.043h-43.36v27.978h14.818V316.89h13.723v22.225H217.3v-37.043h-43.36v27.978h14.818v-13.159h13.724
	v22.225h-45.314v-37.043h-43.36v15.698c1.823,4.192,3.819,8.291,5.992,12.281h8.826v-13.159h13.724v22.225h-17.2
	c3.281,5.155,6.86,10.101,10.71,14.818h240.28c8.788-10.768,16.153-22.74,21.818-35.63v-16.232h-43.36V302.069z"/>
<path style="fill:#FFD863;" d="M354.598,302.069v27.978h14.818v-13.159h13.724v22.225h-45.314V302.07h-43.36v27.978h14.819v-13.159
	h13.723v22.225h-45.575v-37.043h-21.766v14.819h6.948v22.225h-6.948v14.818H376.14c8.788-10.768,16.153-22.74,21.818-35.63v-16.232
	h-43.36V302.069z"/>
<g>
	<polygon style="fill:#FFECB3;" points="234.073,302.069 234.073,330.047 248.891,330.047 248.891,316.888 255.667,316.888 
		255.667,302.069 	"/>
	<path style="fill:#FFECB3;" d="M398.192,209.931v-15.698c-1.823-4.192-3.819-8.291-5.992-12.28h-8.826v13.159H369.65v-22.225h17.2
		c-3.281-5.155-6.86-10.101-10.71-14.818H135.86c-8.788,10.768-16.153,22.739-21.818,35.628v16.233h43.36v-27.978h-14.818v13.159
		H128.86v-22.225h45.314v37.043h43.36v-27.978h-14.819v13.16h-13.723v-22.225h45.575v37.043h43.36v-27.978h-14.818v13.159h-13.724
		v-22.225h45.314v37.043h43.36V181.95h-14.818v13.159h-13.724v-22.225h45.314v37.043L398.192,209.931z"/>
</g>
<g>
	<polygon style="fill:#FFD863;" points="277.928,209.931 277.928,181.953 263.109,181.953 263.109,195.113 255.667,195.113 
		255.667,209.931 	"/>
	<path style="fill:#FFD863;" d="M392.2,181.953h-8.826v13.159H369.65v-22.225h17.2c-3.281-5.155-6.86-10.101-10.71-14.818H255.667
		v14.818H294.7v37.043h43.36v-27.978h-14.818v13.159h-13.724v-22.225h45.314v37.043h43.36v-15.698
		C396.369,190.042,394.374,185.942,392.2,181.953z"/>
</g>
<g>
	<circle style="fill:#FF6838;" cx="155.61" cy="256" r="17.904"/>
	<circle style="fill:#FF6838;" cx="222.54" cy="256" r="17.904"/>
</g>
<g>
	<circle style="fill:#AE4E32;" cx="289.46" cy="256" r="17.904"/>
	<circle style="fill:#AE4E32;" cx="356.39" cy="256" r="17.904"/>
</g>
<g>
</g>
<g>
</g>
<g>
</g>
<g>
</g>
<g>
</g>
<g>
</g>
<g>
</g>
<g>
</g>
<g>
</g>
<g>
</g>
<g>
</g>
<g>
</g>
<g>
</g>
<g>
</g>
<g>
</g>
</svg>
