<svg height="512pt" viewBox="0 0 512 512" width="512pt" xmlns="http://www.w3.org/2000/svg"><path d="m512 256c0 141.386719-114.613281 256-256 256s-256-114.613281-256-256 114.613281-256 256-256 256 114.613281 256 256zm0 0" fill="#00617e"/><path d="m512 256c0-21.585938-2.683594-42.542969-7.714844-62.566406l-92.859375-92.859375-35.386719 31.433593-43.84375-19.617187-76.195312-76.195313-.035156 50-137.058594 39.875-31.410156 128.265626-51.300782 1.664062 66.105469 66.105469 24.902344 61.015625-26.628906 28.304687 92.859375 92.859375c20.023437 5.03125 40.980468 7.714844 62.566406 7.714844 141.386719 0 256-114.613281 256-256zm0 0" fill="#034051"/><path d="m256 439.5c-101.183594 0-183.5-82.316406-183.5-183.5s82.316406-183.5 183.5-183.5 183.5 82.316406 183.5 183.5-82.316406 183.5-183.5 183.5zm0-346c-89.601562 0-162.5 72.898438-162.5 162.5s72.898438 162.5 162.5 162.5 162.5-72.898438 162.5-162.5-72.898438-162.5-162.5-162.5zm0 0" fill="#ffe000"/><path d="m256 72.5c-.0625 0-.128906.003906-.191406.003906v21c.0625 0 .128906-.003906.191406-.003906 89.601562 0 162.5 72.898438 162.5 162.5s-72.898438 162.5-162.5 162.5c-.0625 0-.128906-.003906-.191406-.003906v21c.0625 0 .128906.003906.191406.003906 101.183594 0 183.5-82.316406 183.5-183.5s-82.316406-183.5-183.5-183.5zm0 0" fill="#ffc200"/><path d="m256 512c62.011719 0 118.871094-22.050781 163.171875-58.738281l-12.429687-15.710938-101.933594-37.125c-9.402344-3.425781-15.660156-12.363281-15.660156-22.371093v-22.078126h-66.292969v22.078126c0 10.007812-6.257813 18.945312-15.660157 22.371093l-101.933593 37.125-11.871094 16.175781c44.21875 36.40625 100.859375 58.273438 162.609375 58.273438zm0 0" fill="#faa68e"/><path d="m419.171875 453.261719-12.429687-15.710938-101.933594-37.125c-9.402344-3.425781-15.660156-12.363281-15.660156-22.371093v-22.078126h-33.339844v156.019532c.0625 0 .128906.003906.191406.003906 62.011719 0 118.871094-22.050781 163.171875-58.738281zm0 0" fill="#e09380"/><path d="m198.667969 262.914062c0 15.722657-12.746094 28.472657-28.472657 28.472657-15.722656 0-28.46875-12.75-28.46875-28.472657 0-15.726562 12.746094-28.472656 28.46875-28.472656 15.726563 0 28.472657 12.746094 28.472657 28.472656zm0 0" fill="#ffbeaa"/><path d="m370.273438 262.914062c0 15.722657-12.746094 28.472657-28.46875 28.472657-15.726563 0-28.472657-12.75-28.472657-28.472657 0-15.726562 12.746094-28.472656 28.472657-28.472656 15.722656 0 28.46875 12.746094 28.46875 28.472656zm0 0" fill="#faa68e"/><path d="m293.910156 369.507812-19.011718 9.765626c-11.863282 6.09375-25.933594 6.09375-37.792969 0l-19.011719-9.765626c-28.175781-14.472656-45.890625-43.488281-45.890625-75.164062v-74.109375c0-46.28125 37.515625-83.800781 83.800781-83.800781 46.277344 0 83.796875 37.519531 83.796875 83.800781v74.109375c0 31.675781-17.714843 60.691406-45.890625 75.164062zm0 0" fill="#ffbeaa"/><path d="m256 136.433594c-.0625 0-.128906.007812-.191406.007812v247.398438c6.546875.027344 13.097656-1.488282 19.089844-4.566406l19.011718-9.765626c28.175782-14.472656 45.890625-43.488281 45.890625-75.164062v-74.109375c0-46.28125-37.519531-83.800781-83.800781-83.800781zm0 0" fill="#faa68e"/><path d="m345.714844 171.394531c.289062-1.761719.449218-3.566406.449218-5.40625 0-18.136719-14.699218-32.835937-32.832031-32.835937-7.519531 0-14.445312 2.535156-19.980469 6.785156-6.703124-8.671875-17.207031-14.265625-29.015624-14.265625-4.257813 0-8.339844.734375-12.140626 2.066406-5.792968-3.828125-12.730468-6.066406-20.195312-6.066406-15.6875 0-29.070312 9.859375-34.304688 23.714844-2.789062-.679688-5.699218-1.046875-8.695312-1.046875-20.25 0-36.664062 16.417968-36.664062 36.667968 0 2.769532.316406 5.46875.898437 8.066407-8.371094 6.71875-13.734375 17.03125-13.734375 28.601562 0 18.722657 14.042969 34.160157 32.167969 36.378907v37.332031h14.667969v-38.484375c15.300781-4.410156 26.5-18.507813 26.5-35.226563 0-.199219-.011719-.394531-.015626-.589843 2.113282.378906 4.289063.589843 6.515626.589843 14.519531 0 27.066406-8.445312 33.007812-20.6875 3.757812 1.300781 7.789062 2.019531 11.992188 2.019531 9.851562 0 18.792968-3.894531 25.382812-10.222656 5.117188 5.300782 12 8.878906 19.703125 9.796875-.292969 1.757813-.449219 3.5625-.449219 5.40625 0 12.046875 6.492188 22.570313 16.164063 28.28125v59.117188h14.664062v-54.632813c.664063.039063 1.328125.066406 2.003907.066406 18.132812 0 32.832031-14.703124 32.832031-32.835937 0-16.808594-12.636719-30.65625-28.921875-32.589844zm0 0" fill="#ff9408"/><path d="m345.714844 171.394531c.289062-1.761719.449218-3.566406.449218-5.40625 0-18.136719-14.699218-32.835937-32.832031-32.835937-7.519531 0-14.445312 2.535156-19.980469 6.785156-6.703124-8.671875-17.207031-14.265625-29.015624-14.265625-2.9375 0-5.789063.359375-8.527344 1.011719v71.3125c2.738281.652344 5.589844 1.011718 8.527344 1.011718 9.851562 0 18.792968-3.894531 25.378906-10.222656 5.121094 5.300782 12.003906 8.878906 19.707031 9.796875-.292969 1.757813-.453125 3.5625-.453125 5.40625 0 12.046875 6.492188 22.570313 16.164062 28.28125v59.117188h14.667969v-54.632813c.664063.039063 1.328125.066406 2.003907.066406 18.132812 0 32.832031-14.703124 32.832031-32.835937 0-16.808594-12.636719-30.65625-28.921875-32.589844zm0 0" fill="#ff4e2a"/><path d="m233.890625 86.195312 22.109375-50 22.109375 50zm0 0" fill="#ffe000"/><path d="m255.808594 86.195312h22.300781l-22.109375-50zm0 0" fill="#ffc200"/><path d="m425.804688 233.890625 50 22.109375-50 22.109375zm0 0" fill="#ffc200"/><path d="m86.195312 278.109375-50-22.109375 50-22.109375zm0 0" fill="#ffe000"/><path d="m360.4375 120.296875 50.988281-19.722656-19.722656 50.988281zm0 0" fill="#ffc200"/><path d="m151.5625 391.703125-50.988281 19.722656 19.722656-50.988281zm0 0" fill="#ffe000"/><path d="m120.296875 151.5625-19.722656-50.988281 50.988281 19.722656zm0 0" fill="#ffe000"/><path d="m391.707031 360.441406 19.722657 50.988282-50.992188-19.71875zm0 0" fill="#ffc200"/></svg>