<?xml version="1.0" encoding="iso-8859-1"?>
<!-- Generator: Adobe Illustrator 19.0.0, SVG Export Plug-In . SVG Version: 6.00 Build 0)  -->
<svg version="1.1" id="Capa_1" xmlns="http://www.w3.org/2000/svg" xmlns:xlink="http://www.w3.org/1999/xlink" x="0px" y="0px"
	 viewBox="0 0 512 512" style="enable-background:new 0 0 512 512;" xml:space="preserve">
<circle style="fill:#005C83;" cx="256" cy="256" r="256"/>
<path style="fill:#00263F;" d="M512,256c0-10.439-0.641-20.727-1.855-30.838L388.838,103.854L297,125.667l-9.42,179.915
	L91.067,392.697l114.892,114.399C222.144,510.304,238.873,512,256,512C397.385,512,512,397.385,512,256z"/>
<path style="fill:#E0E0E0;" d="M235.148,363.135H78.826c0,23.093,18.721,41.814,41.814,41.814h156.322L235.148,363.135z"/>
<polygon style="fill:#C0C0C0;" points="235.148,363.135 223.667,363.135 223.667,404.949 276.962,404.949 "/>
<path style="fill:#FFFFFF;" d="M235.502,363.07c0,23.093,18.721,41.814,41.814,41.814s41.832-18.721,41.832-41.814V135.013
	l41.814-41.814H177.538c-23.093,0-41.814,18.721-41.814,41.814V363.07H235.502z"/>
<path style="fill:#E0E0E0;" d="M223.667,93.199V363.07h11.835c0,23.093,18.721,41.814,41.814,41.814s41.832-18.721,41.832-41.814
	V135.013l41.814-41.814C360.962,93.199,223.667,93.199,223.667,93.199z"/>
<path style="fill:#C0C0C0;" d="M402.777,135.013c0-23.093-18.721-41.814-41.814-41.814s-41.814,18.721-41.814,41.814H402.777z"/>
<path style="fill:#FFDC00;" d="M303.721,335.861L303.721,335.861c-19.081-19.081-19.081-50.017-0.001-69.097l105.216-105.217l0,0
	c19.081,19.081,19.081,50.017,0.001,69.097L303.721,335.861z"/>
<path style="fill:#FFC000;" d="M291.59,315.743c2.269,7.36,6.305,14.293,12.131,20.118l0,0l105.216-105.217
	c12.304-12.305,16.661-29.537,13.096-45.344L291.59,315.743z"/>
<rect x="321.424" y="184.17" transform="matrix(-0.7071 -0.7071 0.7071 -0.7071 360.4987 710.6219)" style="fill:#FFB344;" width="12" height="192.958"/>
<rect x="326.08" y="186.12" transform="matrix(0.7071 0.7071 -0.7071 0.7071 296.2885 -150.1056)" style="fill:#FF9451;" width="6.515" height="192.958"/>
<g>
</g>
<g>
</g>
<g>
</g>
<g>
</g>
<g>
</g>
<g>
</g>
<g>
</g>
<g>
</g>
<g>
</g>
<g>
</g>
<g>
</g>
<g>
</g>
<g>
</g>
<g>
</g>
<g>
</g>
</svg>
