<?xml version="1.0" encoding="iso-8859-1"?>
<!-- Generator: Adobe Illustrator 19.0.0, SVG Export Plug-In . SVG Version: 6.00 Build 0)  -->
<svg version="1.1" id="Capa_1" xmlns="http://www.w3.org/2000/svg" xmlns:xlink="http://www.w3.org/1999/xlink" x="0px" y="0px"
	 viewBox="0 0 512 512" style="enable-background:new 0 0 512 512;" xml:space="preserve">
<circle style="fill:#005C83;" cx="256" cy="256" r="256"/>
<path style="fill:#00263F;" d="M512,256c0-9.281-0.507-18.444-1.47-27.47L367.5,85.5l-40.269,33.731L281,73L178.425,233.492
	l-31.308,21.402l93.548,93.548l-135.54,66.696l89.417,89.417C214.232,509.408,234.812,512,256,512C397.385,512,512,397.385,512,256z
	"/>
<rect x="261" y="73" style="fill:#FF6838;" width="20" height="250"/>
<polygon style="fill:#FFDC00;" points="441.251,265.749 57.949,311.942 105.125,415.139 362.625,415.139 "/>
<g>
	<polygon style="fill:#FFC000;" points="441.25,265.749 255.667,288.115 255.667,415.138 362.625,415.138 	"/>
	<polygon style="fill:#FFC000;" points="423.208,300.029 441.251,265.749 57.949,311.942 71.86,342.371 	"/>
</g>
<polygon style="fill:#DDA507;" points="441.25,265.749 255.667,288.115 255.667,320.22 423.208,300.029 "/>
<path style="fill:#FFFFFF;" d="M367.5,254.895c-73.461,0-146.922,0-220.383,0c47.82-46.34,47.82-123.054,0-169.395
	c73.461,0,146.922,0,220.383,0C415.32,131.84,415.32,208.554,367.5,254.895z"/>
<path style="fill:#E0E0E0;" d="M367.5,85.5c-37.278,0-74.556,0-111.833,0v169.395c37.278,0,74.555,0,111.833,0
	C415.32,208.554,415.32,131.84,367.5,85.5z"/>
<g>
</g>
<g>
</g>
<g>
</g>
<g>
</g>
<g>
</g>
<g>
</g>
<g>
</g>
<g>
</g>
<g>
</g>
<g>
</g>
<g>
</g>
<g>
</g>
<g>
</g>
<g>
</g>
<g>
</g>
</svg>
