<svg height="512pt" viewBox="0 0 512 512" width="512pt" xmlns="http://www.w3.org/2000/svg"><path d="m512 256c0 141.386719-114.613281 256-256 256s-256-114.613281-256-256 114.613281-256 256-256 256 114.613281 256 256zm0 0" fill="#00617e"/><path d="m512 256c0-22.664062-2.960938-44.636719-8.488281-65.5625l-105.640625-105.640625-172.960938 172.835937-88.414062-88.414062-83.828125 109.78125 87.183593 87.183594-48.851562 30.816406 108.796875 108.796875c18.085937 4.050781 36.890625 6.203125 56.203125 6.203125 141.386719 0 256-114.613281 256-256zm0 0" fill="#034051"/><path d="m149.332031 196-4.964843-14.027344c-5.015626-14.167968-18.414063-23.640625-33.445313-23.640625-16.226563 0-30.386719 11.011719-34.382813 26.742188l-23.871093 93.925781h43.003906l11.300781-61.085938c2.15625-11.660156 15.039063-17.847656 25.488282-12.234374l10.398437 5.582031zm0 0" fill="#ffe000"/><path d="m385.414062 88.597656-41.746093 5.070313-84 83.332031 19.664062 19 70-87 31.335938-5.332031zm0 0" fill="#ffc200"/><path d="m386.03125 107.042969 11.839844-22.246094-19.824219 6.050781c-6.46875 1.976563-10.453125 8.230469-9.800781 14.714844l-18.914063 3.4375-70 87h-130l-28 66 29 88h23l-7-51 24-27 111.667969 5 5.050781 73.40625 27-1 29.949219-111.074219 3.332031-77.332031 55.59375 10.886719 10.597657-12.585938zm0 0" fill="#ffe000"/><path d="m386.03125 107.042969 11.839844-22.246094-19.824219 6.050781c-6.46875 1.976563-10.453125 8.230469-9.800781 14.714844l-18.914063 3.4375-70 87h-23.523437v78.933594l46.191406 2.066406 5.050781 73.40625 27-1 29.949219-111.074219 3.332031-77.332031 55.59375 10.886719 10.597657-12.585938zm0 0" fill="#ffc200"/><path d="m91 346.332031h330v50.667969h-330zm0 0" fill="#fc9e15"/><path d="m255.808594 346.332031h165.191406v50.667969h-165.191406zm0 0" fill="#fe8205"/><path d="m206.976562 399c0 23.75-19.25 43-43 43-23.746093 0-43-19.25-43-43s19.253907-43 43-43c23.75 0 43 19.25 43 43zm0 0" fill="#ffe000"/><path d="m391.023438 399c0 23.75-19.253907 43-43 43-23.75 0-43-19.25-43-43s19.25-43 43-43c23.746093 0 43 19.25 43 43zm0 0" fill="#ffc200"/></svg>