<?xml version="1.0" encoding="iso-8859-1"?>
<!-- Generator: Adobe Illustrator 19.0.0, SVG Export Plug-In . SVG Version: 6.00 Build 0)  -->
<svg version="1.1" id="Capa_1" xmlns="http://www.w3.org/2000/svg" xmlns:xlink="http://www.w3.org/1999/xlink" x="0px" y="0px"
	 viewBox="0 0 512 512" style="enable-background:new 0 0 512 512;" xml:space="preserve">
<circle style="fill:#00BAFF;" cx="256" cy="256" r="256"/>
<path style="fill:#008CC3;" d="M512,256c0-23.944-3.297-47.117-9.445-69.099L432.654,117L79.346,395l107.555,107.555
	C208.883,508.703,232.056,512,256,512C397.385,512,512,397.385,512,256z"/>
<rect x="79.35" y="117" style="fill:#005C83;" width="353.31" height="278"/>
<rect x="255.67" y="117" style="fill:#00263F;" width="176.99" height="278"/>
<g>
	<polygon style="fill:#FFFFFF;" points="399.397,273.353 314.404,273.353 314.404,321.265 338.404,321.265 338.404,297.353 
		375.397,297.353 375.397,345.176 296.704,345.176 296.704,273.353 211.711,273.353 211.711,321.265 235.711,321.265 
		235.711,297.353 272.704,297.353 272.704,345.176 194.011,345.176 194.011,273.353 109.018,273.353 109.018,321.265 
		133.018,321.265 133.018,297.353 170.011,297.353 170.011,345.176 79.318,345.176 79.318,369.176 182.011,369.176 194.011,369.176 
		284.704,369.176 296.704,369.176 387.397,369.176 399.397,369.176 432.682,369.176 432.682,345.176 399.397,345.176 	"/>
	<polygon style="fill:#FFFFFF;" points="326.709,141.176 314.709,141.176 224.016,141.176 212.016,141.176 121.323,141.176 
		109.323,141.176 79.318,141.176 79.318,165.176 109.323,165.176 109.323,237 194.316,237 194.316,189.088 170.316,189.088 
		170.316,213 133.323,213 133.323,165.176 212.016,165.176 212.016,237 297.009,237 297.009,189.088 273.009,189.088 273.009,213 
		236.016,213 236.016,165.176 314.709,165.176 314.709,237 399.702,237 399.702,189.088 375.702,189.088 375.702,213 338.709,213 
		338.709,165.176 432.682,165.176 432.682,141.176 	"/>
</g>
<polygon style="fill:#E0E0E0;" points="399.397,345.176 399.397,273.353 314.404,273.353 314.404,321.265 338.404,321.265 
	338.404,297.353 375.397,297.353 375.397,345.176 296.704,345.176 296.704,273.353 255.667,273.353 255.667,297.353 
	272.704,297.353 272.704,345.176 255.667,345.176 255.667,369.176 284.704,369.176 296.704,369.176 387.397,369.176 
	399.397,369.176 432.682,369.176 432.682,345.176 "/>
<polygon style="fill:#FFFFFF;" points="211.711,273.353 211.711,321.265 235.711,321.265 235.711,297.353 255.667,297.353 
	255.667,273.353 "/>
<g>
	<polygon style="fill:#E0E0E0;" points="297.009,237 297.009,189.088 273.009,189.088 273.009,213 255.667,213 255.667,237 	"/>
	<polygon style="fill:#E0E0E0;" points="432.682,165.176 432.682,141.176 326.709,141.176 314.709,141.176 255.667,141.176 
		255.667,165.176 314.709,165.176 314.709,237 399.702,237 399.702,189.088 375.702,189.088 375.702,213 338.709,213 
		338.709,165.176 	"/>
</g>
<g>
</g>
<g>
</g>
<g>
</g>
<g>
</g>
<g>
</g>
<g>
</g>
<g>
</g>
<g>
</g>
<g>
</g>
<g>
</g>
<g>
</g>
<g>
</g>
<g>
</g>
<g>
</g>
<g>
</g>
</svg>
