<svg height="512pt" viewBox="0 0 512 512" width="512pt" xmlns="http://www.w3.org/2000/svg"><path d="m512 256c0 141.386719-114.613281 256-256 256s-256-114.613281-256-256 114.613281-256 256-256 256 114.613281 256 256zm0 0" fill="#0adebf"/><path d="m512 256c0-4.34375-.109375-8.664062-.324219-12.953125l-143.304687-143.304687-32.46875 28.605468-69.527344-69.527344-20.75 59.289063 52.347656 52.347656-26.082031 28.199219-71.664063-71.664062-14.671874 14.675781 71.84375 71.84375-174.15625 178.542969 112.890624 112.890624c19.207032 4.601563 39.25 7.054688 59.867188 7.054688 141.386719 0 256-114.613281 256-256zm0 0" fill="#00ad90"/><path d="m83.242188 222.980469h345.515624v169.074219h-345.515624zm0 0" fill="#00617e"/><path d="m255.808594 222.980469h172.949218v169.074219h-172.949218zm0 0" fill="#034051"/><path d="m428.757812 260.351562h-345.515624v-40.914062c0-33.746094 27.359374-61.101562 61.105468-61.101562h223.304688c33.746094 0 61.105468 27.355468 61.105468 61.101562zm0 0" fill="#636978"/><path d="m428.757812 219.4375c0-33.746094-27.359374-61.101562-61.105468-61.101562h-111.84375v102.015624h172.949218zm0 0" fill="#555a66"/><path d="m231.425781 245.351562h49.148438v49.152344h-49.148438zm0 0" fill="#ffe000"/><path d="m255.808594 245.351562h24.765625v49.152344h-24.765625zm0 0" fill="#ffc200"/><path d="m147.40625 158.332031h28.125v233.722657h-28.125zm0 0" fill="#ffe000"/><path d="m336.46875 158.332031h28.125v233.722657h-28.125zm0 0" fill="#ffc200"/><path d="m245.625 58.820312h20.75v59.289063h-20.75zm0 0" fill="#00617e"/><path d="m255.808594 58.820312h10.566406v59.289063h-10.566406zm0 0" fill="#034051"/><path d="m143.625 99.742188 14.675781-14.675782 41.925781 41.925782-14.675781 14.675781zm0 0" fill="#00617e"/><path d="m326.449219 141.667969-14.675781-14.671875 41.925781-41.925782 14.675781 14.675782zm0 0" fill="#034051"/></svg>