<?xml version="1.0" encoding="iso-8859-1"?>
<!-- Generator: Adobe Illustrator 19.0.0, SVG Export Plug-In . SVG Version: 6.00 Build 0)  -->
<svg version="1.1" id="Capa_1" xmlns="http://www.w3.org/2000/svg" xmlns:xlink="http://www.w3.org/1999/xlink" x="0px" y="0px"
	 viewBox="0 0 512 512" style="enable-background:new 0 0 512 512;" xml:space="preserve">
<circle style="fill:#005C83;" cx="256" cy="256" r="256"/>
<path style="fill:#00263F;" d="M512,256c0-5.046-0.163-10.053-0.45-15.026L396.928,126.352L116.995,387.713L240.821,511.54
	c5.024,0.294,10.081,0.46,15.179,0.46C397.385,512,512,397.385,512,256z"/>
<circle style="fill:#FFFFFF;" cx="256" cy="256" r="191.5"/>
<path style="fill:#E0E0E0;" d="M256,64.5c-0.111,0-0.222,0.004-0.333,0.004v382.992c0.111,0,0.222,0.004,0.333,0.004
	c105.762,0,191.5-85.738,191.5-191.5C447.5,150.237,361.762,64.5,256,64.5z"/>
<circle style="fill:#C0C0C0;" cx="256" cy="256" r="155.88"/>
<path style="fill:#758F9B;" d="M256,100.116c-0.111,0-0.222,0.004-0.333,0.004v311.76c0.111,0,0.222,0.004,0.333,0.004
	c86.092,0,155.884-69.792,155.884-155.884S342.092,100.116,256,100.116z"/>
<path style="fill:#FFFFFF;" d="M227.194,350.809c8.673-11.716,6.206-28.245-5.51-36.918l-9.315-6.896l-6.896,9.315
	c-5.668,7.657-6.576,17.368-3.256,25.6c-10.951-8.306-19.06-18.312-25.055-28.717l5.333-1.966
	c13.02-4.8,19.683-19.245,14.883-32.265l-3.816-10.352l-10.352,3.816c-8.428,3.107-14.187,10.257-15.903,18.445
	c-3.486-10.672-5.273-20.77-6.172-28.838l4.056,0.511c12.936,1.63,24.743-7.535,26.373-20.471l1.296-10.285l-10.285-1.296
	c-8.806-1.11-17.085,2.786-21.991,9.466c0.643-9.263,2.407-18.34,5.214-27.054l2.878,1.593c10.101,5.593,22.824,1.939,28.417-8.163
	l4.447-8.031l-8.031-4.447c-6.212-3.44-13.414-3.377-19.341-0.473c3.63-6.671,7.925-12.997,12.855-18.866l2.371,2.13
	c6.754,6.067,17.147,5.51,23.214-1.244l4.824-5.37l-5.37-4.823c-3.313-2.976-7.5-4.348-11.624-4.187
	c1.334-1.137,2.688-2.256,4.081-3.338l-7.425-9.565c-1.993,1.547-3.928,3.149-5.811,4.798c-0.25-4.163-2.071-8.234-5.419-11.242
	l-5.37-4.823l-4.824,5.37c-6.067,6.754-5.51,17.147,1.244,23.214l1.099,0.988c-5.096,6.027-9.597,12.487-13.452,19.293
	c-1.294-5.56-4.847-10.573-10.235-13.556l-8.031-4.447l-4.447,8.031c-5.593,10.101-1.938,22.824,8.163,28.417l5.002,2.77
	c-3.023,8.811-5.065,17.978-6.078,27.344c-3.681-5.383-9.558-9.227-16.536-10.107l-10.285-1.296l-1.296,10.285
	c-1.63,12.936,7.535,24.743,20.471,26.373l7.52,0.948c1.065,11.686,3.299,22.869,6.64,33.315
	c-6.469-4.357-14.865-5.656-22.742-2.751l-10.352,3.816l3.816,10.352c4.8,13.02,19.246,19.683,32.265,14.883l7.187-2.65
	c1.639,2.95,3.375,5.815,5.23,8.564c5.77,8.551,12.468,16.022,20.061,22.392c-6.806,0.926-13.248,4.486-17.658,10.444l-6.896,9.315
	l9.316,6.896c11.716,8.673,28.245,6.206,36.918-5.511l3.919-5.294c6.178,2.726,12.729,4.967,19.65,6.709l2.954-11.742
	c-5.216-1.313-10.086-2.91-14.637-4.747L227.194,350.809z"/>
<path style="fill:#E0E0E0;" d="M356.551,293.797c3.342-10.446,5.575-21.629,6.64-33.315l7.52-0.948
	c12.936-1.63,22.101-13.438,20.471-26.373l-1.296-10.285l-10.285,1.296c-6.979,0.88-12.855,4.724-16.536,10.107
	c-1.013-9.366-3.055-18.533-6.078-27.344l5.002-2.77c10.101-5.593,13.756-18.315,8.163-28.417l-4.447-8.031l-8.031,4.447
	c-5.388,2.983-8.94,7.996-10.235,13.556c-3.855-6.806-8.356-13.266-13.452-19.293l1.099-0.988c6.754-6.067,7.311-16.46,1.244-23.214
	l-4.824-5.37l-5.37,4.823c-3.348,3.007-5.168,7.078-5.419,11.242c-1.883-1.649-3.818-3.252-5.811-4.798l-7.425,9.565
	c1.393,1.081,2.747,2.201,4.081,3.338c-4.124-0.161-8.312,1.211-11.624,4.187l-5.37,4.823l4.824,5.37
	c6.067,6.754,16.46,7.311,23.214,1.244l2.371-2.13c4.93,5.869,9.225,12.195,12.855,18.866c-5.927-2.904-13.129-2.967-19.341,0.473
	l-8.031,4.447l4.447,8.031c5.593,10.101,18.316,13.756,28.417,8.163l2.878-1.593c2.807,8.714,4.572,17.791,5.214,27.054
	c-4.906-6.68-13.185-10.576-21.991-9.466l-10.285,1.296l1.296,10.285c1.63,12.936,13.438,22.101,26.373,20.471l4.056-0.511
	c-0.898,8.067-2.685,18.165-6.172,28.838c-1.716-8.188-7.475-15.338-15.903-18.445l-10.352-3.816l-3.816,10.352
	c-4.8,13.02,1.864,27.465,14.883,32.265l5.333,1.966c-5.995,10.405-14.104,20.411-25.055,28.717c3.32-8.232,2.412-17.943-3.256-25.6
	l-6.896-9.315l-9.315,6.896c-11.716,8.673-14.183,25.202-5.51,36.918l2.712,3.663c-4.551,1.837-9.421,3.434-14.637,4.747
	l2.954,11.742c6.921-1.742,13.472-3.982,19.65-6.709l3.919,5.294c8.673,11.716,25.202,14.183,36.918,5.511l9.315-6.896l-6.896-9.315
	c-4.41-5.957-10.851-9.517-17.658-10.444c7.594-6.37,14.292-13.841,20.061-22.392c1.855-2.75,3.591-5.614,5.23-8.564l7.187,2.65
	c13.02,4.8,27.465-1.864,32.265-14.883l3.816-10.352l-10.352-3.816C371.416,288.141,363.02,289.439,356.551,293.797z"/>
<g>
</g>
<g>
</g>
<g>
</g>
<g>
</g>
<g>
</g>
<g>
</g>
<g>
</g>
<g>
</g>
<g>
</g>
<g>
</g>
<g>
</g>
<g>
</g>
<g>
</g>
<g>
</g>
<g>
</g>
</svg>
