<?xml version="1.0" encoding="iso-8859-1"?>
<!-- Generator: Adobe Illustrator 19.0.0, SVG Export Plug-In . SVG Version: 6.00 Build 0)  -->
<svg version="1.1" id="Capa_1" xmlns="http://www.w3.org/2000/svg" xmlns:xlink="http://www.w3.org/1999/xlink" x="0px" y="0px"
	 viewBox="0 0 512 512" style="enable-background:new 0 0 512 512;" xml:space="preserve">
<circle style="fill:#B9EAFF;" cx="256" cy="256" r="256"/>
<path style="fill:#35CCFF;" d="M511.943,260.521L355.009,103.587L132,314.826l45.587,45.587l-35.67,27.045l-22.258-2.376
	l126.719,126.719C249.572,511.92,252.777,512,256,512C395.873,512,509.528,399.818,511.943,260.521z"/>
<path style="fill:#FF6838;" d="M132,314.826c-48.319-55.133-42.992-149.663,8.053-200.708s149.912-75.575,214.956-10.531
	L132,314.826z"/>
<path style="fill:#AE4E32;" d="M255.667,64.41v133.276l99.342-94.099C326.171,74.749,290.686,63.529,255.667,64.41z"/>
<path style="fill:#4D4D4D;" d="M385.411,315.702l-25.151-78.053h-65.291v-29.115h56.62c-4.402-52.219-48.174-93.23-101.532-93.23
	c-56.279,0-101.903,45.623-101.903,101.903v103.451c0,0,6.195,64.425-28.496,64.425c0,0,77.434,28.496,87.345-58.85
	c9.911-87.345,19.823,77.434,161.682,77.434l-6.295-87.965L385.411,315.702L385.411,315.702z"/>
<path style="fill:#333333;" d="M385.411,315.702l-25.151-78.053h-65.291v-29.115h56.62c-4.247-50.376-45.136-90.316-95.922-93.073
	v238.375c23.025,25.179,58.15,49.831,113.019,49.831l-6.295-87.965H385.411z"/>
<g>
</g>
<g>
</g>
<g>
</g>
<g>
</g>
<g>
</g>
<g>
</g>
<g>
</g>
<g>
</g>
<g>
</g>
<g>
</g>
<g>
</g>
<g>
</g>
<g>
</g>
<g>
</g>
<g>
</g>
</svg>
