<?xml version="1.0" encoding="iso-8859-1"?>
<!-- Generator: Adobe Illustrator 19.0.0, SVG Export Plug-In . SVG Version: 6.00 Build 0)  -->
<svg version="1.1" id="Capa_1" xmlns="http://www.w3.org/2000/svg" xmlns:xlink="http://www.w3.org/1999/xlink" x="0px" y="0px"
	 viewBox="0 0 512 512" style="enable-background:new 0 0 512 512;" xml:space="preserve">
<circle style="fill:#B9EAFF;" cx="256" cy="256" r="256"/>
<path style="fill:#35CCFF;" d="M512,256c0-7.941-0.381-15.793-1.089-23.55L378.508,100.048l-29.045,7.177l-37.079-36.552
	l-37.344,57.453L235.667,89L188,104l-56.5,3.667l-9,91.833l111.762,253.833l56.77,56.27C415.84,492.521,512,385.499,512,256z"/>
<path style="fill:#FF6838;" d="M391.187,115.774c-10.61-18.388-26.696-28.108-46.52-28.108c-17.008,0-30.901,2.771-42.138,8.41
	c4.913-15.02,9.855-25.403,9.855-25.403L244.5,70.667L262,94.333l-17.5,24.582l21.833,41.418l-36-44.667L235.667,89l-20.37-18.333
	h-15.701c0,0,4.962,10.391,9.875,25.41c-11.237-5.639-25.129-8.41-42.138-8.41c-19.823,0-35.909,9.72-46.52,28.108
	c-9.608,16.653-14.48,39.859-14.48,68.972c0,27.276,11.763,58.809,32.272,86.512c0.466,0.63,0.936,1.248,1.406,1.866
	c4.092,54.74,23.515,124.947,94.251,180.209h43.476c70.735-55.262,90.159-125.47,94.251-180.209c0.47-0.618,0.94-1.236,1.406-1.866
	c20.51-27.703,32.272-59.235,32.272-86.512C405.667,155.633,400.795,132.428,391.187,115.774z M218.929,153.333
	c-2,38-74.667,5.333-78,52.333c-0.548,7.725-1.273,17.359-1.634,28.421c-7.821-15.845-12.962-33.044-12.962-49.341
	c0-23.176,3.995-77.08,41-77.08c26.388,0,42.653,7.405,50.548,23.884C218.857,138.82,219.305,146.194,218.929,153.333z
	 M372.705,234.087c-0.361-11.062-1.086-20.696-1.634-28.421c-3.333-47-76-14.333-78-52.333c-0.376-7.139,0.072-14.513,1.048-21.783
	c7.895-16.479,24.16-23.884,50.548-23.884c37.005,0,41,53.904,41,77.08C385.667,201.043,380.525,218.243,372.705,234.087z"/>
<path style="fill:#AE4E32;" d="M391.187,115.774c-10.61-18.388-26.696-28.108-46.52-28.108c-17.008,0-30.901,2.771-42.138,8.41
	c4.913-15.02,9.855-25.403,9.855-25.403L256,70.667v15.552l6,8.114l-6,8.428v37.969l10.333,19.602L256,147.512v305.821h21.738
	c70.735-55.262,90.159-125.47,94.251-180.209c0.47-0.618,0.94-1.236,1.406-1.866c20.51-27.703,32.272-59.235,32.272-86.512
	C405.667,155.633,400.795,132.428,391.187,115.774z M372.705,234.087c-0.361-11.062-1.086-20.696-1.634-28.421
	c-3.333-47-76-14.333-78-52.333c-0.376-7.139,0.072-14.513,1.048-21.783c7.895-16.479,24.16-23.884,50.548-23.884
	c37.005,0,41,53.904,41,77.08C385.667,201.043,380.525,218.243,372.705,234.087z"/>
<polyline style="fill:#FF6838;" points="244.5,70.667 256,86.219 256,70.667 "/>
<g>
	<path style="fill:#FFFFFF;" d="M333.89,335.834v22.657h12v-10.657h10.233c1.497-4.014,2.867-8.017,4.121-12H333.89z"/>
	<path style="fill:#FFFFFF;" d="M348.56,365.832h-28.254v-29.998h-35.113v22.657h12v-10.657h11.113v17.998h-36.695v-29.998h-35.113
		v22.657h12v-10.657h11.113v17.998h-36.695v-29.998h-35.113v22.657h12v-10.657h11.113v17.998H174.22v-29.998h-22.464
		c1.254,3.983,2.624,7.986,4.121,12h6.343v15.359c2.221,4.883,4.645,9.768,7.289,14.639h172.983
		C344.659,373.838,346.679,369.836,348.56,365.832z"/>
</g>
<path style="fill:#E0E0E0;" d="M348.56,365.832h-28.254v-29.998h-35.113v22.657h12v-10.657h11.113v17.998h-36.695v-29.998H256v12
	h3.611v17.998H256v12h86.491C344.659,373.838,346.679,369.836,348.56,365.832z"/>
<g>
</g>
<g>
</g>
<g>
</g>
<g>
</g>
<g>
</g>
<g>
</g>
<g>
</g>
<g>
</g>
<g>
</g>
<g>
</g>
<g>
</g>
<g>
</g>
<g>
</g>
<g>
</g>
<g>
</g>
</svg>
