<?xml version="1.0" encoding="iso-8859-1"?>
<!-- Generator: Adobe Illustrator 19.0.0, SVG Export Plug-In . SVG Version: 6.00 Build 0)  -->
<svg version="1.1" id="Capa_1" xmlns="http://www.w3.org/2000/svg" xmlns:xlink="http://www.w3.org/1999/xlink" x="0px" y="0px"
	 viewBox="0 0 512 512" style="enable-background:new 0 0 512 512;" xml:space="preserve">
<circle style="fill:#590F38;" cx="256" cy="256" r="256"/>
<path style="fill:#3A0826;" d="M512,256c0-0.917-0.025-1.827-0.035-2.741l-109.15-109.15L267,241.5L114.483,391.516L234.017,511.05
	c7.248,0.617,14.576,0.95,21.983,0.95C397.385,512,512,397.385,512,256z"/>
<path id="SVGCleanerId_0" style="fill:#FF6838;" d="M106.764,274.132c34.547-34.547,157.446-101.435,191.993-66.888
	s-32.342,157.446-66.889,191.993s-92.271,17.394-117.385-7.72C87.221,364.254,72.217,308.678,106.764,274.132z"/>
<g>
	<path id="SVGCleanerId_0_1_" style="fill:#FF6838;" d="M106.764,274.132c34.547-34.547,157.446-101.435,191.993-66.888
		s-32.342,157.446-66.889,191.993s-92.271,17.394-117.385-7.72C87.221,364.254,72.217,308.678,106.764,274.132z"/>
</g>
<g>
	<path style="fill:#AE4E32;" d="M297.714,206.286L113.495,390.505c0.328,0.34,0.656,0.679,0.988,1.011
		c25.114,25.114,82.838,42.266,117.385,7.72c34.546-34.547,101.435-157.446,66.888-191.993
		C298.422,206.909,298.065,206.601,297.714,206.286z"/>
	<circle style="fill:#AE4E32;" cx="202.76" cy="303.24" r="47.963"/>
</g>
<path style="fill:#84311E;" d="M235.65,268.35l-67.779,67.779c0.323,0.343,0.639,0.69,0.974,1.025
	c18.731,18.73,49.099,18.73,67.83,0c18.731-18.731,18.731-49.099,0-67.83C236.34,268.989,235.993,268.673,235.65,268.35z"/>
<g>
	
		<rect x="262.703" y="94.804" transform="matrix(-0.7071 -0.7071 0.7071 -0.7071 323.2406 581.6866)" style="fill:#FFFFFF;" width="38.777" height="258.188"/>
	
		<rect x="145.639" y="207.565" transform="matrix(-0.7071 0.7071 -0.7071 -0.7071 622.1243 175.4131)" style="fill:#FFFFFF;" width="258.188" height="17.975"/>
</g>
<rect x="278.043" y="101.179" transform="matrix(0.7071 0.7071 -0.7071 0.7071 247.3108 -136.5151)" style="fill:#E0E0E0;" width="20.802" height="258.188"/>
<polygon style="fill:#FF6838;" points="350.679,184.747 321.253,155.321 361.891,103.185 402.815,144.108 "/>
<polygon style="fill:#AE4E32;" points="334.966,169.034 350.679,184.747 402.815,144.108 381.353,122.647 "/>
<g>
</g>
<g>
</g>
<g>
</g>
<g>
</g>
<g>
</g>
<g>
</g>
<g>
</g>
<g>
</g>
<g>
</g>
<g>
</g>
<g>
</g>
<g>
</g>
<g>
</g>
<g>
</g>
<g>
</g>
</svg>
