<svg height="512pt" viewBox="0 0 512 512" width="512pt" xmlns="http://www.w3.org/2000/svg"><path d="m512 256c0 141.386719-114.613281 256-256 256s-256-114.613281-256-256 114.613281-256 256-256 256 114.613281 256 256zm0 0" fill="#00617e"/><path d="m102.894531 345.105469 166.546875 166.542969c124.382813-6.433594 225.285156-101.648438 240.554688-223.496094l-170.195313-170.195313zm0 0" fill="#034051"/><path d="m362.207031 453.746094h-212.414062v-270.539063c0-58.65625 47.550781-106.207031 106.207031-106.207031s106.207031 47.550781 106.207031 106.207031zm0 0" fill="#ffe000"/><path d="m362.207031 183.207031c0-58.65625-47.550781-106.207031-106.207031-106.207031-.0625 0-.128906.003906-.191406.003906v376.742188h106.398437zm0 0" fill="#ffc200"/><path d="m256 512c61.3125 0 117.585938-21.566406 161.664062-57.511719l-26.921874-42.175781-91.066407-41.101562c-8.398437-3.792969-13.988281-13.6875-13.988281-24.765626v-24.441406h-59.226562v24.441406c0 11.078126-5.589844 20.972657-13.992188 24.765626l-91.066406 41.101562-25.648438 43.320312c43.867188 35.257813 99.585938 56.367188 160.246094 56.367188zm0 0" fill="#ffbeaa"/><path d="m417.664062 454.488281-26.921874-42.179687-91.066407-41.097656c-8.398437-3.792969-13.988281-13.6875-13.988281-24.765626v-24.441406h-29.878906v189.992188c.0625 0 .128906.003906.191406.003906 61.3125 0 117.582031-21.566406 161.664062-57.511719zm0 0" fill="#faa68e"/><path d="m198.667969 218.238281c0 15.726563-12.746094 28.472657-28.472657 28.472657-15.722656 0-28.46875-12.746094-28.46875-28.472657 0-15.722656 12.746094-28.46875 28.46875-28.46875 15.726563 0 28.472657 12.746094 28.472657 28.46875zm0 0" fill="#ffbeaa"/><path d="m370.273438 218.238281c0 15.726563-12.746094 28.472657-28.46875 28.472657-15.726563 0-28.472657-12.746094-28.472657-28.472657 0-15.722656 12.746094-28.46875 28.472657-28.46875 15.722656 0 28.46875 12.746094 28.46875 28.46875zm0 0" fill="#faa68e"/><path d="m293.910156 324.835938-19.011718 9.765624c-11.863282 6.09375-25.933594 6.09375-37.792969 0l-19.011719-9.765624c-28.175781-14.476563-45.890625-43.488282-45.890625-75.164063v-74.109375c0-46.28125 37.515625-83.800781 83.800781-83.800781 46.277344 0 83.796875 37.519531 83.796875 83.800781v74.109375c0 31.675781-17.714843 60.691406-45.890625 75.164063zm0 0" fill="#ffcdbe"/><path d="m256 91.761719c-.0625 0-.128906.003906-.191406.007812v247.398438c6.546875.027343 13.097656-1.488281 19.089844-4.566407l19.011718-9.765624c28.175782-14.472657 45.890625-43.488282 45.890625-75.164063v-74.109375c0-46.28125-37.519531-83.800781-83.800781-83.800781zm0 0" fill="#ffbeaa"/><path d="m344.589844 206.527344h-177.179688v-29.222656c0-48.925782 39.664063-88.589844 88.589844-88.589844s88.589844 39.664062 88.589844 88.589844zm0 0" fill="#ffe000"/><path d="m344.589844 177.304688c0-48.929688-39.664063-88.589844-88.589844-88.589844-.0625 0-.128906 0-.191406 0v117.8125h88.78125zm0 0" fill="#ffc200"/><path d="m88.574219 314.128906c0-12.925781 10.476562-23.402344 23.402343-23.402344 10.085938 0 18.683594 6.382813 21.96875 15.332032 3.289063-8.949219 11.886719-15.332032 21.972657-15.332032 12.925781 0 23.402343 10.476563 23.402343 23.402344 0 33.957032-45.375 51.878906-45.375 51.878906s-45.371093-18.65625-45.371093-51.878906zm0 0" fill="#fd095d"/><path d="m133.949219 366.007812s45.371093-17.921874 45.371093-51.878906c0-12.925781-10.476562-23.402344-23.398437-23.402344-10.089844 0-18.683594 6.382813-21.972656 15.332032zm0 0" fill="#bc1742"/><path d="m400.011719 372.554688c-28.710938 0-51.988281-23.277344-51.988281-51.988282v-21.652344c0-28.710937 23.277343-51.984374 51.988281-51.984374 28.710937 0 51.988281 23.273437 51.988281 51.984374v21.652344c0 28.710938-23.277344 51.988282-51.988281 51.988282zm0 0" fill="#0adebf"/><path d="m400.011719 246.925781c-.003907 0-.007813 0-.011719 0v125.628907h.011719c28.710937 0 51.988281-23.277344 51.988281-51.988282v-21.652344c0-28.710937-23.277344-51.988281-51.988281-51.988281zm0 0" fill="#00ad90"/><path d="m431.28125 246c3.605469-3.253906 5.679688-8.175781 5-13.546875-.871094-6.921875-6.460938-12.511719-13.382812-13.382813-3.09375-.390624-6.039063.132813-8.601563 1.335938-2.367187-5.546875-7.871094-9.4375-14.285156-9.4375-6.414063 0-11.917969 3.890625-14.285157 9.4375-1.421874-.667969-2.953124-1.136719-4.5625-1.335938-10.160156-1.28125-18.703124 7.261719-17.421874 17.417969.472656 3.738281 2.324218 7.078125 5.011718 9.503907-18.078125 10.722656-30.230468 30.421874-30.230468 52.921874v21.652344c0 30.671875 22.578124 56.171875 51.988281 60.75v60.183594h19v-60.183594c29.410156-4.578125 51.988281-30.078125 51.988281-60.75v-21.652344c0-22.492187-12.148438-42.191406-30.21875-52.914062zm11.21875 74.566406c0 23.425782-19.0625 42.488282-42.488281 42.488282s-42.488281-19.0625-42.488281-42.488282v-21.652344c0-23.425781 19.0625-42.488281 42.488281-42.488281s42.488281 19.0625 42.488281 42.488281zm0 0" fill="#b4f5f0"/><path d="m431.28125 246c3.605469-3.253906 5.679688-8.175781 5-13.546875-.871094-6.921875-6.460938-12.511719-13.382812-13.382813-3.09375-.390624-6.039063.132813-8.601563 1.335938-2.367187-5.546875-7.871094-9.4375-14.285156-9.4375-.003907 0-.007813 0-.011719 0v45.457031h.011719c23.429687 0 42.488281 19.0625 42.488281 42.488281v21.652344c0 23.425782-19.0625 42.488282-42.488281 42.488282-.003907 0-.007813 0-.011719 0v78.445312h9.511719v-60.183594c29.410156-4.578125 51.988281-30.078125 51.988281-60.75v-21.652344c0-22.492187-12.148438-42.191406-30.21875-52.914062zm0 0" fill="#96ebe6"/><path d="m378.804688 291.832031 16.257812-16.257812 9.898438 9.902343-16.253907 16.253907zm0 0" fill="#b4f5f0"/><path d="m400 280.488281v9.921875l4.960938-4.960937zm0 0" fill="#96ebe6"/><path d="m385.054688 318.199219 34.496093-34.496094 9.898438 9.902344-34.492188 34.492187zm0 0" fill="#b4f5f0"/><path d="m419.550781 283.679688-19.550781 19.546874v19.800782l29.449219-29.449219zm0 0" fill="#96ebe6"/></svg>