<svg height="512pt" viewBox="0 0 512 512" width="512pt" xmlns="http://www.w3.org/2000/svg"><path d="m512 256c0 141.386719-114.613281 256-256 256s-256-114.613281-256-256 114.613281-256 256-256 256 114.613281 256 256zm0 0" fill="#00617e"/><path d="m148.789062 205.382812-83.21875 110.390626 196.152344 196.15625c138.742188-3.046876 250.277344-116.457032 250.277344-255.929688 0-12.113281-.859375-24.027344-2.488281-35.691406l-98.738281-98.738282-51.132813 67.402344-60.710937-60.710937-150.140626 55.90625 72.863282 72.867187-7.957032 13.253906zm0 0" fill="#034051"/><path d="m162.238281 232.773438-4.964843-14.027344c-5.015626-14.167969-18.417969-23.636719-33.445313-23.636719-16.230469 0-30.390625 11.007813-34.386719 26.738281l-23.871094 93.925782h43.003907l11.300781-61.085938c2.15625-11.660156 15.042969-17.84375 25.488281-12.234375l10.398438 5.585937zm0 0" fill="#ffe000"/><path d="m398.320312 125.375-41.75 5.066406-84 83.332032 19.667969 19 70-87 31.332031-5.332032zm0 0" fill="#ffc200"/><path d="m398.933594 143.816406 11.839844-22.246094-19.824219 6.054688c-6.46875 1.976562-10.449219 8.230469-9.796875 14.714844l-18.914063 3.433594-54.964843 68.3125c-9.507813 11.816406-23.859376 18.6875-39.027344 18.6875l-84.527344-10.683594c-15.222656-1.921875-29.578125 7.53125-33.820312 22.277344l-8.648438 30.039062c-2.179688 7.578125-2.316406 15.597656-.398438 23.242188l22.382813 109.125h23l-7-71 24-27 107.667969 7 9.050781 91.40625 16.515625-1 38.613281-124.320313c1.210938-4.488281 1.921875-9.09375 2.121094-13.738281l3.03125-70.347656 55.59375 10.886718 10.601563-12.585937zm0 0" fill="#ffe000"/><path d="m398.933594 143.816406 11.839844-22.246094-19.824219 6.054688c-6.46875 1.976562-10.449219 8.230469-9.796875 14.714844l-18.914063 3.433594-54.960937 68.3125c-9.511719 11.816406-23.863282 18.6875-39.03125 18.6875l-12.4375-1.570313v80.988281l55.097656 3.582032 9.050781 91.40625 16.511719-1 38.617188-124.320313c1.210937-4.488281 1.921874-9.09375 2.121093-13.734375l3.03125-70.351562 55.59375 10.886718 10.597657-12.585937zm0 0" fill="#ffc200"/><path d="m233.210938 204.808594-42.921876-3.699219c-45.523437-3.925781-79.703124-48.824219-76.128906-101.355469.070313-1.03125.152344-2.066406.238282-3.101562l144.335937 12.441406c38.964844 3.359375 67.414063 42.480469 63.542969 87.382812l-5.605469 65.019532-22.894531-1.972656c-8.324219-29.828126-31.519532-52.210938-60.566406-54.714844zm0 0" fill="#fff"/><path d="m258.734375 109.09375-2.925781-.25v102.363281c18.15625 9.082031 31.949218 26.753907 37.96875 48.316407l22.894531 1.976562 5.605469-65.023438c3.871094-44.902343-24.578125-84.023437-63.542969-87.382812zm0 0" fill="#f2f6fc"/></svg>