<?xml version="1.0" encoding="iso-8859-1"?>
<!-- Generator: Adobe Illustrator 19.0.0, SVG Export Plug-In . SVG Version: 6.00 Build 0)  -->
<svg version="1.1" id="Capa_1" xmlns="http://www.w3.org/2000/svg" xmlns:xlink="http://www.w3.org/1999/xlink" x="0px" y="0px"
	 viewBox="0 0 512 512" style="enable-background:new 0 0 512 512;" xml:space="preserve">
<circle style="fill:#590F38;" cx="256" cy="256" r="256"/>
<path style="fill:#440A2D;" d="M98.667,146.654l24.59,24.59l-43.84,157.673L193.25,442.75l-2.917,2.737l66.502,66.502
	C397.835,511.538,512,397.105,512,256c0-13.524-1.057-26.8-3.077-39.757l-95.589-95.589L98.667,146.654z"/>
<polygon style="fill:#FFC000;" points="390.82,146.654 413.333,146.654 413.333,120.654 98.667,120.654 98.667,146.654 
	121.181,146.654 74.183,291.546 90.354,296.792 134.333,161.203 178.313,296.789 194.484,291.543 147.486,146.654 243,146.654 
	243,408.487 190.333,408.487 190.333,445.487 321.667,445.487 321.667,408.487 269,408.487 269,146.654 364.514,146.654 
	317.516,291.546 333.687,296.792 377.667,161.203 421.646,296.789 437.817,291.543 "/>
<polygon style="fill:#D8A003;" points="390.82,146.654 413.333,146.654 413.333,120.654 255.667,120.654 255.667,445.487 
	321.667,445.487 321.667,408.487 269,408.487 269,146.654 364.514,146.654 317.516,291.546 333.687,296.792 377.667,161.203 
	421.646,296.789 437.817,291.543 "/>
<path style="fill:#FFDC00;" d="M157.833,341.654h-47c-24.853,0-45-20.147-45-45v-23h137v23
	C202.833,321.507,182.686,341.654,157.833,341.654z"/>
<path style="fill:#FFC000;" d="M401.167,341.654h-47c-24.853,0-45-20.147-45-45v-23h137v23
	C446.167,321.507,426.019,341.654,401.167,341.654z"/>
<g>
</g>
<g>
</g>
<g>
</g>
<g>
</g>
<g>
</g>
<g>
</g>
<g>
</g>
<g>
</g>
<g>
</g>
<g>
</g>
<g>
</g>
<g>
</g>
<g>
</g>
<g>
</g>
<g>
</g>
</svg>
