<?xml version="1.0" encoding="iso-8859-1"?>
<!-- Generator: Adobe Illustrator 19.0.0, SVG Export Plug-In . SVG Version: 6.00 Build 0)  -->
<svg version="1.1" id="Capa_1" xmlns="http://www.w3.org/2000/svg" xmlns:xlink="http://www.w3.org/1999/xlink" x="0px" y="0px"
	 viewBox="0 0 512 512" style="enable-background:new 0 0 512 512;" xml:space="preserve">
<circle style="fill:#983262;" cx="256" cy="256" r="256"/>
<path style="fill:#662E57;" d="M512,256c0-9.362-0.517-18.603-1.497-27.705l-96.193-96.193L97.69,414.31l87.873,87.873
	C207.941,508.574,231.57,512,256,512C397.385,512,512,397.385,512,256z"/>
<rect x="339.054" y="100.93" transform="matrix(-0.7071 -0.7071 0.7071 -0.7071 515.2684 510.6194)" style="fill:#FFDC00;" width="48.667" height="95.329"/>
<rect x="359.025" y="109.22" transform="matrix(0.7071 0.7071 -0.7071 0.7071 219.7915 -216.8549)" style="fill:#FFC000;" width="25.276" height="95.329"/>
<polygon style="fill:#B9EAFF;" points="174.175,392.508 97.69,414.31 119.492,337.825 312.269,160.169 351.831,199.731 "/>
<polygon style="fill:#35CCFF;" points="97.69,414.31 174.175,392.508 351.831,199.731 331.383,179.283 "/>
<rect x="265.719" y="159.949" transform="matrix(-0.7071 -0.7071 0.7071 -0.7071 439.6077 541.989)" style="fill:#FFC000;" width="132.669" height="40"/>
<rect x="321.53" y="183.069" transform="matrix(0.7071 0.7071 -0.7071 0.7071 247.618 -191.6658)" style="fill:#DBA100;" width="67.279" height="40"/>
<g>
</g>
<g>
</g>
<g>
</g>
<g>
</g>
<g>
</g>
<g>
</g>
<g>
</g>
<g>
</g>
<g>
</g>
<g>
</g>
<g>
</g>
<g>
</g>
<g>
</g>
<g>
</g>
<g>
</g>
</svg>
