<svg height="512pt" viewBox="0 0 512 512" width="512pt" xmlns="http://www.w3.org/2000/svg"><path d="m512 256c0 141.386719-114.613281 256-256 256s-256-114.613281-256-256 114.613281-256 256-256 256 114.613281 256 256zm0 0" fill="#00617e"/><path d="m512 256c0-.671875-.019531-1.339844-.023438-2.011719l-149.429687-149.425781-140.542969 122.921875 61.6875 61.6875-85.027344 25.6875-58.046874-58.042969-81.71875 69.941406 184.945312 184.945313c4.03125.191406 8.082031.296875 12.15625.296875 141.386719 0 256-114.613281 256-256zm0 0" fill="#034051"/><path d="m256.25 93.03125s1.695312 123.433594-44.421875 146.492188c-46.117187 23.058593-141.402344 30.515624-147.167969 64.085937h282.808594s21.945312-11.359375 12.886719-34.925781c-9.0625-23.566406 2.191406-164.121094 2.191406-164.121094zm0 0" fill="#faa68e"/><path d="m362.546875 104.5625-106.296875-11.53125s.105469 7.578125-.441406 19.320312v191.261719h91.660156s21.945312-11.359375 12.886719-34.929687c-9.0625-23.566406 2.191406-164.121094 2.191406-164.121094zm0 0" fill="#e09380"/><path d="m132.480469 274.277344h179.042969v12.71875h-179.042969zm0 0" fill="#ffe000"/><path d="m255.808594 274.277344h55.714844v12.71875h-55.714844zm0 0" fill="#ffc200"/><path d="m115.523438 256.816406h25.09375v54.59375h-25.09375zm0 0" fill="#ffe000"/><path d="m311.523438 223.921875h23.738281v87.488281h-23.738281zm0 0" fill="#ffc200"/><path d="m222.003906 204.59375h146.070313v22.890625h-146.070313zm0 0" fill="#ffe000"/><path d="m255.808594 204.59375h112.265625v22.890625h-112.265625zm0 0" fill="#ffc200"/><path d="m58.894531 303.609375h306.347657v23.148437h-306.347657zm0 0" fill="#ffe000"/><path d="m255.808594 303.609375h109.433594v23.148437h-109.433594zm0 0" fill="#ffc200"/><path d="m423.269531 361.488281-12.664062 12.660157-36.179688-36.175782 12.664063-12.664062zm0 0" fill="#fd095d"/><path d="m381.738281 330.648438 5.339844-5.339844 36.179687 36.175781-5.339843 5.339844zm0 0" fill="#bc1742"/><path d="m445.890625 274.277344v17.910156h-51.164063v-17.910156zm0 0" fill="#bc1742"/><path d="m323.390625 349.730469h17.910156v51.164062h-17.910156zm0 0" fill="#fd095d"/></svg>