<svg height="512pt" viewBox="0 0 512 512" width="512pt" xmlns="http://www.w3.org/2000/svg"><path d="m512 256c0 141.386719-114.613281 256-256 256s-256-114.613281-256-256 114.613281-256 256-256 256 114.613281 256 256zm0 0" fill="#ffe000"/><path d="m506.925781 306.925781-161.375-161.375-1.316406 31.542969-102.773437-102.769531-92.824219 351.351562 85.371093 85.375c7.25.617188 14.582032.949219 21.992188.949219 123.945312 0 227.3125-88.089844 250.925781-205.074219zm0 0" fill="#ffc200"/><path d="m241.460938 172.414062v-98.089843h-59.660157v98.089843c-19.742187 10.636719-33.167969 31.496094-33.167969 55.496094v197.765625h125.996094v-197.765625c0-24-13.421875-44.859375-33.167968-55.496094zm0 0" fill="#034051"/><path d="m274.628906 227.910156c0-24-13.421875-44.859375-33.167968-55.496094v-98.089843h-30.890626v351.351562h64.058594zm0 0" fill="#034051"/><path d="m330.871094 145.550781h14.679687v76.0625h-14.679687zm0 0" fill="#fff"/><path d="m337.355469 145.550781h8.195312v76.0625h-8.195312zm0 0" fill="#f2f6fc"/><path d="m371.335938 387.789062c0 18.296876-14.828126 33.125-33.125 33.125-18.292969 0-33.121094-14.828124-33.121094-33.125 0-18.292968 14.828125-33.121093 33.121094-33.121093 18.296874 0 33.125 14.828125 33.125 33.121093zm0 0" fill="#00617e"/><path d="m338.210938 354.667969c-.285157 0-.570313.011719-.855469.019531v66.207031c.285156.003907.570312.019531.855469.019531 18.296874 0 33.125-14.828124 33.125-33.125 0-18.292968-14.828126-33.121093-33.125-33.121093zm0 0" fill="#034051"/><path d="m338.425781 331.542969c0 18.292969-14.832031 33.121093-33.125 33.121093s-33.125-14.828124-33.125-33.121093 14.832031-33.125 33.125-33.125 33.125 14.832031 33.125 33.125zm0 0" fill="#00617e"/><path d="m404.246094 331.542969c0 18.292969-14.828125 33.121093-33.125 33.121093-18.292969 0-33.121094-14.828124-33.121094-33.121093s14.828125-33.125 33.121094-33.125c18.296875 0 33.125 14.832031 33.125 33.125zm0 0" fill="#034051"/><path d="m338.425781 217.371094c0 18.296875-14.832031 33.125-33.125 33.125s-33.125-14.828125-33.125-33.125c0-18.292969 14.832031-33.121094 33.125-33.121094s33.125 14.828125 33.125 33.121094zm0 0" fill="#00617e"/><path d="m404.246094 217.371094c0 18.296875-14.828125 33.125-33.125 33.125-18.292969 0-33.121094-14.828125-33.121094-33.125 0-18.292969 14.828125-33.121094 33.121094-33.121094 18.296875 0 33.125 14.828125 33.125 33.121094zm0 0" fill="#034051"/><path d="m371.441406 273.949219c0 18.296875-14.828125 33.125-33.125 33.125-18.292968 0-33.121094-14.828125-33.121094-33.125 0-18.292969 14.828126-33.121094 33.121094-33.121094 18.296875 0 33.125 14.828125 33.125 33.121094zm0 0" fill="#00617e"/><path d="m338.316406 240.828125c-.320312 0-.640625.015625-.960937.023437v66.199219c.320312.007813.640625.023438.960937.023438 18.296875 0 33.125-14.828125 33.125-33.125 0-18.292969-14.828125-33.121094-33.125-33.121094zm0 0" fill="#034051"/><path d="m437.265625 273.949219c0 18.296875-14.832031 33.125-33.125 33.125s-33.125-14.828125-33.125-33.125c0-18.292969 14.832031-33.121094 33.125-33.121094s33.125 14.828125 33.125 33.121094zm0 0" fill="#034051"/><path d="m305.40625 273.949219c0 18.296875-14.828125 33.125-33.125 33.125-18.292969 0-33.121094-14.828125-33.121094-33.125 0-18.292969 14.828125-33.121094 33.121094-33.121094 18.296875 0 33.125 14.828125 33.125 33.121094zm0 0" fill="#00617e"/></svg>