<?xml version="1.0" encoding="iso-8859-1"?>
<!-- Generator: Adobe Illustrator 19.0.0, SVG Export Plug-In . SVG Version: 6.00 Build 0)  -->
<svg version="1.1" id="Capa_1" xmlns="http://www.w3.org/2000/svg" xmlns:xlink="http://www.w3.org/1999/xlink" x="0px" y="0px"
	 viewBox="0 0 512 512" style="enable-background:new 0 0 512 512;" xml:space="preserve">
<circle style="fill:#590F38;" cx="256" cy="256" r="256"/>
<path style="fill:#3A0C28;" d="M267.599,511.727c135.132-6.028,242.996-116.807,244.368-253.101L373.705,120.364l-19.438,31.209
	L269.594,73l-14.408,61.898l-22.514-22.514l-65.93,58.834l51.682,51.682l-69.142,50.522l66.077,66.414l-63.64,56.009
	L267.599,511.727z"/>
<path style="fill:#39B54A;" d="M255.143,197.425h-32.21c-40.511,0-73.353-32.841-73.353-73.353v-32.21h32.21
	c40.511,0,73.353,32.841,73.353,73.353V197.425z"/>
<g>
	<path style="fill:#009245;" d="M266.08,227.99l0.001-32.84c0.001-41.303,33.484-74.785,74.787-74.786h32.838l-0.001,32.841
		c-0.001,41.303-33.483,74.785-74.786,74.785H266.08z"/>
	<polygon style="fill:#009245;" points="269.57,347.5 242.5,347.5 242.5,73 269.594,73 	"/>
</g>
<polygon style="fill:#006837;" points="269.594,73 256.5,73 256.5,347.5 269.57,347.5 "/>
<path style="fill:#D9E021;" d="M367.859,397.414L367.859,397.414c-17.476,17.476-45.81,17.476-63.286,0l-24.042-24.042
	c-17.476-17.476-17.476-45.81,0-63.286l0,0c17.476-17.476,45.81-17.476,63.286,0l24.042,24.042
	C385.335,351.604,385.335,379.938,367.859,397.414z"/>
<path id="SVGCleanerId_0" style="fill:#8CC63F;" d="M151.718,395.846L151.718,395.846c-17.649-17.302-17.93-45.634-0.629-63.283
	l23.802-24.279c17.301-17.649,45.634-17.93,63.283-0.629l0,0c17.649,17.301,17.93,45.634,0.629,63.283L215,395.217
	C197.699,412.866,169.366,413.147,151.718,395.846z"/>
<g>
	<path id="SVGCleanerId_0_1_" style="fill:#8CC63F;" d="M151.718,395.846L151.718,395.846c-17.649-17.302-17.93-45.634-0.629-63.283
		l23.802-24.279c17.301-17.649,45.634-17.93,63.283-0.629l0,0c17.649,17.301,17.93,45.634,0.629,63.283L215,395.217
		C197.699,412.866,169.366,413.147,151.718,395.846z"/>
</g>
<path style="fill:#D9E021;" d="M149.218,273.346L149.218,273.346c-17.649-17.302-17.93-45.634-0.629-63.283l23.802-24.279
	c17.301-17.649,45.634-17.93,63.283-0.629l0,0c17.649,17.301,17.93,45.634,0.629,63.283L212.5,272.717
	C195.199,290.366,166.866,290.647,149.218,273.346z"/>
<g>
</g>
<g>
</g>
<g>
</g>
<g>
</g>
<g>
</g>
<g>
</g>
<g>
</g>
<g>
</g>
<g>
</g>
<g>
</g>
<g>
</g>
<g>
</g>
<g>
</g>
<g>
</g>
<g>
</g>
</svg>
