<svg height="512pt" viewBox="0 0 512 512" width="512pt" xmlns="http://www.w3.org/2000/svg"><path d="m512 256c0 141.386719-114.613281 256-256 256s-256-114.613281-256-256 114.613281-256 256-256 256 114.613281 256 256zm0 0" fill="#0adebf"/><path d="m392.664062 472.492188c71.710938-45.363282 119.335938-125.359376 119.335938-216.492188 0-23.769531-3.253906-46.773438-9.3125-68.613281l-115.054688-115.054688-22.402343 78.320313h-162.542969l-78.320312-78.320313 17.738281 78.320313 51.367187 51.367187-76.300781-5.019531zm0 0" fill="#00ad90"/><path d="m187.332031 209.980469h-42.335937c-20.0625 0-36.332032-16.265625-36.332032-36.332031v-4.332032h78.667969zm0 0" fill="#034051"/><path d="m324.667969 209.980469h42.335937c20.0625 0 36.332032-16.265625 36.332032-36.332031v-4.332032h-78.667969zm0 0" fill="#04252b"/><path d="m220.035156 168-36.042968 1.28125c-27.265626.972656-50.691407-19.183594-53.804688-46.289062l-5.820312-50.65625 26.25 42.515624c5.683593 9.210938 15.734374 14.816407 26.558593 14.816407h42.191407zm0 0" fill="#fff"/><path d="m291.964844 168 36.042968 1.28125c27.265626.972656 50.691407-19.183594 53.804688-46.289062l5.820312-50.65625-26.25 42.515624c-5.683593 9.210938-15.734374 14.816407-26.558593 14.816407h-42.191407zm0 0" fill="#f2f6fc"/><path d="m55.15625 414.738281c46.886719 59.246094 119.421875 97.261719 200.84375 97.261719 81.453125 0 154.011719-38.046875 200.898438-97.328125l-6.4375-9.808594-131.625-57.761719c-12.140626-5.328124-20.21875-19.234374-20.21875-34.804687v-34.347656h-85.601563v34.347656c0 15.570313-8.082031 29.476563-20.222656 34.804687l-131.625 57.761719zm0 0" fill="#faa68e"/><path d="m450.460938 404.863281-131.625-57.761719c-12.140626-5.328124-20.222657-19.234374-20.222657-34.804687v-34.347656h-42.804687v234.046875c.066406 0 .128906.003906.191406.003906 81.453125 0 154.011719-38.046875 200.898438-97.328125zm0 0" fill="#e09380"/><path d="m288.992188 104.332031h-65.980469c-8.152344 0-16.097657 2.839844-22.226563 8.210938-17.519531 15.355469-28.585937 37.890625-28.585937 63.019531v74.109375c0 31.675781 17.714843 60.691406 45.890625 75.164063l19.015625 9.765624c11.859375 6.09375 25.929687 6.09375 37.789062 0l19.015625-9.765624c28.175782-14.472657 45.890625-43.488282 45.890625-75.164063v-74.109375c0-25.125-11.066406-47.660156-28.585937-63.015625-6.125-5.375-14.074219-8.214844-22.222656-8.214844zm0 0" fill="#00617e"/><path d="m311.21875 112.542969c-6.128906-5.371094-14.078125-8.210938-22.226562-8.210938h-33.183594v234.832031c6.546875.03125 13.097656-1.484374 19.089844-4.5625l19.011718-9.765624c28.175782-14.476563 45.890625-43.488282 45.890625-75.164063v-74.109375c0-25.125-11.066406-47.660156-28.582031-63.019531zm0 0" fill="#053f4c"/><path d="m283.035156 345h-54.070312c-22.992188 0-41.632813-18.640625-41.632813-41.632812v-15.402344c0-22.992188 18.640625-41.632813 41.632813-41.632813h54.070312c22.992188 0 41.632813 18.640625 41.632813 41.632813v15.402344c0 22.992187-18.640625 41.632812-41.632813 41.632812zm0 0" fill="#053f4c"/><path d="m283.035156 246.332031h-27.226562v98.667969h27.226562c22.992188 0 41.632813-18.640625 41.632813-41.632812v-15.402344c0-22.992188-18.640625-41.632813-41.632813-41.632813zm0 0" fill="#04252b"/><path d="m309.515625 295.667969c0 11.332031-9.183594 20.515625-20.515625 20.515625s-20.515625-9.183594-20.515625-20.515625 9.183594-20.519531 20.515625-20.519531 20.515625 9.1875 20.515625 20.519531zm0 0" fill="#121614"/><path d="m243.515625 295.667969c0 11.332031-9.183594 20.515625-20.515625 20.515625s-20.515625-9.183594-20.515625-20.515625 9.183594-20.519531 20.515625-20.519531 20.515625 9.1875 20.515625 20.519531zm0 0" fill="#121614"/><path d="m195 197h32.667969v16.667969h-32.667969zm0 0" fill="#034051"/><path d="m284.332031 197h32.667969v16.667969h-32.667969zm0 0" fill="#121614"/></svg>