<svg height="512pt" viewBox="0 0 512 512" width="512pt" xmlns="http://www.w3.org/2000/svg"><path d="m512 256c0 141.386719-114.613281 256-256 256s-256-114.613281-256-256 114.613281-256 256-256 256 114.613281 256 256zm0 0" fill="#00617e"/><path d="m331.59375 138.023438-29.113281 12.4375-67.3125-67.3125-20.660157 19.910156 59.546876 59.546875-40.757813 17.414062-59.011719-59.011719-15.8125 12.605469 54.914063 54.914063-28.410157 12.136718-98.679687 94.902344 99.707031 99.707032-17 14.507812 101.78125 101.78125c115.457032-6.574219 210.425782-89.65625 235.007813-199.339844zm0 0" fill="#034051"/><path d="m374.582031 163.8125 134 134c1.394531-8.488281 2.371094-17.117188 2.910157-25.863281l-122.789063-122.789063zm0 0" fill="#034051"/><path d="m246.933594 377.503906-65.777344-161.246094-76.183594 94.382813-18.675781-15.074219 85.929687-106.457031 150.816407-47.289063 107.886719 152.746094zm-44.53125-172.703125 57.355468 140.597657 134.78125-60.753907-81.007812-114.6875zm0 0" fill="#0adebf"/><path d="m323.039062 141.824219-67.230468 21.078125v25.152344l57.722656-18.097657 81.007812 114.6875-134.78125 60.753907-3.949218-9.679688v37.785156l175.121094-78.9375zm0 0" fill="#00ad90"/><path d="m340.5625 155.890625c0 12.304687-9.972656 22.277344-22.277344 22.277344-12.304687 0-22.277344-9.972657-22.277344-22.277344s9.972657-22.277344 22.277344-22.277344c12.304688 0 22.277344 9.972657 22.277344 22.277344zm0 0" fill="#ffc200"/><path d="m435.011719 289.605469c0 12.304687-9.972657 22.277343-22.277344 22.277343s-22.277344-9.972656-22.277344-22.277343c0-12.304688 9.972657-22.277344 22.277344-22.277344s22.277344 9.972656 22.277344 22.277344zm0 0" fill="#ffc200"/><path d="m275.625 361.449219c0 12.304687-9.976562 22.277343-22.277344 22.277343-12.304687 0-22.28125-9.972656-22.28125-22.277343 0-12.304688 9.976563-22.277344 22.28125-22.277344 12.300782 0 22.277344 9.972656 22.277344 22.277344zm0 0" fill="#ffe000"/><path d="m275.625 361.449219c0-11.46875-8.671875-20.914063-19.816406-22.136719v44.277344c11.144531-1.226563 19.816406-10.667969 19.816406-22.140625zm0 0" fill="#ffc200"/><path d="m210.476562 199.476562c0 12.300782-9.972656 22.277344-22.277343 22.277344-12.304688 0-22.277344-9.976562-22.277344-22.277344 0-12.304687 9.972656-22.28125 22.277344-22.28125 12.304687 0 22.277343 9.976563 22.277343 22.28125zm0 0" fill="#ffe000"/><path d="m237.824219 91.515625c0 8.015625-6.5 14.515625-14.515625 14.515625-8.019532 0-14.519532-6.5-14.519532-14.515625s6.5-14.515625 14.519532-14.515625c8.015625 0 14.515625 6.5 14.515625 14.515625zm0 0" fill="#fff"/><path d="m192.324219 398.242188c0 8.019531-6.5 14.519531-14.515625 14.519531-8.019532 0-14.519532-6.5-14.519532-14.519531 0-8.015626 6.5-14.515626 14.519532-14.515626 8.015625 0 14.515625 6.5 14.515625 14.515626zm0 0" fill="#fff"/><path d="m364.824219 401.742188c0 8.019531-6.5 14.519531-14.515625 14.519531-8.019532 0-14.519532-6.5-14.519532-14.519531 0-8.015626 6.5-14.515626 14.519532-14.515626 8.015625 0 14.515625 6.5 14.515625 14.515626zm0 0" fill="#f2f6fc"/><path d="m175.722656 126.214844c0 5.644531-4.574218 10.21875-10.214844 10.21875-5.644531 0-10.21875-4.574219-10.21875-10.21875 0-5.640625 4.574219-10.214844 10.21875-10.214844 5.640626 0 10.214844 4.574219 10.214844 10.214844zm0 0" fill="#fff"/><g fill="#f2f6fc"><path d="m318.285156 267.328125c0 5.640625-4.574218 10.214844-10.214844 10.214844-5.640624 0-10.214843-4.574219-10.214843-10.214844 0-5.644531 4.574219-10.21875 10.214843-10.21875 5.640626 0 10.214844 4.574219 10.214844 10.21875zm0 0"/><path d="m391.246094 155.890625c0 5.640625-4.574219 10.214844-10.21875 10.214844-5.640625 0-10.214844-4.574219-10.214844-10.214844 0-5.644531 4.574219-10.214844 10.214844-10.214844 5.644531 0 10.21875 4.570313 10.21875 10.214844zm0 0"/><path d="m318.285156 402.542969c0 5.644531-4.574218 10.21875-10.214844 10.21875-5.640624 0-10.214843-4.574219-10.214843-10.21875 0-5.640625 4.574219-10.214844 10.214843-10.214844 5.640626 0 10.214844 4.574219 10.214844 10.214844zm0 0"/></g></svg>