<?xml version="1.0" encoding="iso-8859-1"?>
<!-- Generator: Adobe Illustrator 19.0.0, SVG Export Plug-In . SVG Version: 6.00 Build 0)  -->
<svg version="1.1" id="Capa_1" xmlns="http://www.w3.org/2000/svg" xmlns:xlink="http://www.w3.org/1999/xlink" x="0px" y="0px"
	 viewBox="0 0 512 512" style="enable-background:new 0 0 512 512;" xml:space="preserve">
<circle style="fill:#FFECB3;" cx="256" cy="256" r="256"/>
<path style="fill:#FFD863;" d="M512,256c0-8.35-0.414-16.603-1.195-24.749L387.102,107.549l-64.746,42.118l8.564,25.348h-97.037
	l-63.911-63.352l-41.051,39.652l54.842,54.842L141,286.524l6.009,94.483l45.963,45.962l-12.684,17.269l67.622,67.622
	c2.688,0.083,5.382,0.14,8.09,0.14C397.385,512,512,397.385,512,256z"/>
<g>
	<rect x="189.64" y="177.76" style="fill:#175D76;" width="16" height="217.53"/>
	<rect x="228.55" y="177.76" style="fill:#175D76;" width="16" height="217.53"/>
</g>
<g>
	<rect x="267.45" y="177.76" style="fill:#00263F;" width="16" height="217.53"/>
	<rect x="306.36" y="177.76" style="fill:#00263F;" width="16" height="217.53"/>
</g>
<rect x="180.29" y="165.15" style="fill:#D34A24;" width="151.43" height="19.723"/>
<rect x="255.67" y="165.15" style="fill:#A52F13;" width="76.05" height="19.723"/>
<path style="fill:#FF6838;" d="M357.391,102.833c-1.122,0.47-27.941,10.98-38.369,40.137c-8.359,23.372-3.903,50.957,13.242,81.989
	c31.67,57.322,40.232,103.94,24.109,131.269c-14.132,23.954-47.903,36.1-100.373,36.1s-86.24-12.146-100.373-36.1
	c-16.123-27.329-7.561-73.948,24.109-131.269c17.145-31.032,21.6-58.617,13.242-81.989c-8.809-24.633-29.232-36.18-36.002-39.521
	c-3.775-1.863-8.002-2.971-12.5-2.971c-15.352,0-27.797,12.445-27.797,27.797s12.445,27.797,27.797,27.797
	c10.211,0,19.131-5.51,23.963-13.714c1.51,2.494,2.854,5.251,3.919,8.291c6.001,17.122,2.004,38.544-11.879,63.672
	c-25.176,45.568-49.742,109.117-23.8,153.087c18.369,31.134,58.514,46.921,119.32,46.921s100.952-15.786,119.321-46.92
	c25.941-43.97,1.375-107.519-23.8-153.087c-13.883-25.128-17.88-46.55-11.879-63.672c1.194-3.406,2.74-6.453,4.476-9.176
	c4.699,8.693,13.893,14.6,24.469,14.6c15.352,0,27.797-12.445,27.797-27.797s-12.445-27.797-27.797-27.797
	C364.602,100.478,360.843,101.385,357.391,102.833z"/>
<path style="fill:#AE4E32;" d="M344.118,141.472c4.699,8.693,13.893,14.6,24.469,14.6c15.352,0,27.797-12.445,27.797-27.797
	s-12.445-27.797-27.797-27.797c-3.984,0-7.743,0.906-11.195,2.354c-1.122,0.47-27.941,10.98-38.369,40.137
	c-8.359,23.372-3.903,50.957,13.242,81.989c31.67,57.322,40.232,103.94,24.109,131.269c-14.132,23.954-47.903,36.1-100.373,36.1
	c-0.112,0-0.221-0.002-0.333-0.002v22c0.112,0,0.221,0.003,0.333,0.003c60.807,0,100.952-15.786,119.321-46.92
	c25.941-43.97,1.375-107.519-23.8-153.087c-13.883-25.128-17.88-46.55-11.879-63.672
	C340.835,147.242,342.382,144.195,344.118,141.472z"/>
<rect x="180.29" y="403.33" style="fill:#D34A24;" width="151.43" height="40.91"/>
<rect x="255.67" y="403.33" style="fill:#A52F13;" width="76.05" height="40.91"/>
<g>
</g>
<g>
</g>
<g>
</g>
<g>
</g>
<g>
</g>
<g>
</g>
<g>
</g>
<g>
</g>
<g>
</g>
<g>
</g>
<g>
</g>
<g>
</g>
<g>
</g>
<g>
</g>
<g>
</g>
</svg>
