<svg height="512pt" viewBox="0 0 512 512" width="512pt" xmlns="http://www.w3.org/2000/svg"><path d="m512 256c0 141.386719-114.613281 256-256 256s-256-114.613281-256-256 114.613281-256 256-256 256 114.613281 256 256zm0 0" fill="#0adebf"/><path d="m153.539062 408.1875 103.796876 103.792969c140.769531-.71875 254.664062-115.042969 254.664062-255.980469 0-5.664062-.203125-11.277344-.566406-16.851562l-100.910156-100.910157-23.542969 21.347657-32.980469-32.984376-52.675781 29.855469-85.8125-85.8125-123.441407 77.898438 73.523438 73.519531-64.796875 103.933594 68.171875 68.171875c-8.113281 8.542969-14.609375 14.839843-15.429688 14.019531zm0 0" fill="#00ad90"/><path d="m148.75 227.972656c-33.550781 0-60.75 27.199219-60.75 60.75 0 27.457032 18.21875 50.644532 43.222656 58.171875-.132812 1.878907-.222656 3.769531-.222656 5.679688 0 44.125 35.769531 79.898437 79.894531 79.898437 28.585938 0 53.648438-15.023437 67.769531-37.589844 7.742188 4.5 16.734376 7.089844 26.335938 7.089844 28.996094 0 52.5-23.503906 52.5-52.5 0-.195312-.011719-.382812-.015625-.574218 2.703125.367187 5.460937.574218 8.265625.574218 33.550781 0 60.75-27.199218 60.75-60.75 0-33.550781-27.199219-60.75-60.75-60.75zm0 0" fill="#fff"/><path d="m365.75 227.972656h-109.941406v190.664063c9.164062-6.246094 16.964844-14.339844 22.855468-23.757813 7.742188 4.503906 16.734376 7.09375 26.335938 7.09375 28.996094 0 52.5-23.507812 52.5-52.5 0-.195312-.011719-.382812-.015625-.578125 2.703125.371094 5.460937.578125 8.265625.578125 33.550781 0 60.75-27.199218 60.75-60.75 0-33.550781-27.199219-60.75-60.75-60.75zm0 0" fill="#f2f6fc"/><path d="m217.523438 157.226562c16.179687 0 29.296874-13.117187 29.296874-29.292968 0-13.242188-8.785156-24.421875-20.84375-28.050782.0625-.90625.109376-1.820312.109376-2.742187 0-21.277344-17.25-38.527344-38.527344-38.527344-13.785156 0-25.871094 7.246094-32.679688 18.128907-3.734375-2.171876-8.070312-3.421876-12.699218-3.421876-13.984376 0-25.316407 11.335938-25.316407 25.316407 0 .09375.003907.183593.007813.277343-1.304688-.175781-2.632813-.277343-3.984375-.277343-16.179688 0-29.296875 13.117187-29.296875 29.296875 0 16.175781 13.117187 29.292968 29.296875 29.292968zm0 0" fill="#cbf7f7"/><path d="m412.300781 210.667969c13.515625 0 24.472657-10.957031 24.472657-24.472657 0-11.0625-7.339844-20.402343-17.414063-23.433593.054687-.757813.089844-1.519531.089844-2.289063 0-17.777344-14.410157-32.1875-32.183594-32.1875-11.515625 0-21.613281 6.054688-27.300781 15.144532-3.117188-1.8125-6.742188-2.855469-10.609375-2.855469-11.679688 0-21.148438 9.46875-21.148438 21.148437 0 .078125.003907.152344.003907.230469-1.089844-.148437-2.199219-.230469-3.328126-.230469-13.515624 0-24.472656 10.957032-24.472656 24.472656 0 13.515626 10.957032 24.472657 24.472656 24.472657zm0 0" fill="#b4f5f0"/><path d="m354 164.578125h-196v-37.976563l98-42.875 98 42.875zm0 0" fill="#00617e"/><path d="m354 126.601562-98-42.875-.191406 80.851563h98.191406zm0 0" fill="#034051"/><path d="m158 169.476562h35.230469v116.988282h-35.230469zm0 0" fill="#00617e"/><path d="m211.589844 169.476562h35.230468v116.988282h-35.230468zm0 0" fill="#00617e"/><path d="m265.179688 169.476562h35.230468v116.988282h-35.230468zm0 0" fill="#034051"/><path d="m318.769531 169.476562h35.230469v116.988282h-35.230469zm0 0" fill="#034051"/><path d="m146.976562 138.238281h218.046876v37.976563h-218.046876zm0 0" fill="#09758e"/><path d="m255.808594 138.238281h109.214844v37.976563h-109.214844zm0 0" fill="#00617e"/><path d="m146.976562 271h218.046876v28.9375h-218.046876zm0 0" fill="#09758e"/><path d="m255.808594 271h109.214844v28.9375h-109.214844zm0 0" fill="#00617e"/></svg>