<?xml version="1.0" encoding="iso-8859-1"?>
<!-- Generator: Adobe Illustrator 19.0.0, SVG Export Plug-In . SVG Version: 6.00 Build 0)  -->
<svg version="1.1" id="Capa_1" xmlns="http://www.w3.org/2000/svg" xmlns:xlink="http://www.w3.org/1999/xlink" x="0px" y="0px"
	 viewBox="0 0 512 512" style="enable-background:new 0 0 512 512;" xml:space="preserve">
<circle style="fill:#590F38;" cx="256" cy="256" r="256"/>
<path style="fill:#470B32;" d="M198.214,445.311l66.525,66.525c137.195-4.605,247.03-117.146,247.256-255.409L333.758,78.189
	L174.426,272.228L262,359.802v68.594L198.214,445.311z"/>
<polygon style="fill:#FFFFFF;" points="270.627,416.057 270.627,245.768 241.373,245.768 241.373,416.057 198.214,416.057 
	198.214,445.311 313.786,445.311 313.786,416.057 "/>
<polygon style="fill:#E0E0E0;" points="313.786,416.057 270.627,416.057 270.627,245.768 255.667,245.768 255.667,445.311 
	313.786,445.311 "/>
<path style="fill:#FFFFFF;" d="M178.242,78.189c-23.016,34.488-37.453,79.023-37.453,112.683
	c0,63.629,51.581,115.211,115.211,115.211s115.211-51.582,115.211-115.211c0-33.659-14.437-78.194-37.453-112.683
	C333.758,78.189,178.242,78.189,178.242,78.189z"/>
<path style="fill:#E0E0E0;" d="M333.758,78.189h-78.091v227.889c0.111,0,0.222,0.004,0.333,0.004
	c63.629,0,115.211-51.582,115.211-115.211C371.211,157.212,356.774,112.677,333.758,78.189z"/>
<path style="fill:#F1333F;" d="M142.028,172.814c-0.81,6.264-1.239,12.322-1.239,18.058c0,63.629,51.581,115.211,115.211,115.211
	s115.211-51.582,115.211-115.211c0-5.736-0.429-11.794-1.239-18.058L142.028,172.814L142.028,172.814z"/>
<path style="fill:#AE283F;" d="M369.972,172.814H255.667v133.265c0.111,0,0.222,0.004,0.333,0.004
	c63.629,0,115.211-51.582,115.211-115.211C371.211,185.135,370.782,179.078,369.972,172.814z"/>
<g>
</g>
<g>
</g>
<g>
</g>
<g>
</g>
<g>
</g>
<g>
</g>
<g>
</g>
<g>
</g>
<g>
</g>
<g>
</g>
<g>
</g>
<g>
</g>
<g>
</g>
<g>
</g>
<g>
</g>
</svg>
