<svg height="512pt" viewBox="0 0 512 512" width="512pt" xmlns="http://www.w3.org/2000/svg"><path d="m512 256c0 141.386719-114.613281 256-256 256s-256-114.613281-256-256 114.613281-256 256-256 256 114.613281 256 256zm0 0" fill="#fd095d"/><path d="m512 256c0-13.75-1.097656-27.242188-3.183594-40.40625l-106.207031-106.203125-269.417969 18.894531-23.800781 274.324219 106.203125 106.207031c13.164062 2.085938 26.65625 3.183594 40.40625 3.183594 141.386719 0 256-114.613281 256-256zm0 0" fill="#bc1742"/><path d="m109.390625 109.390625v293.21875h293.21875v-293.21875zm31 262.21875v-51.503906h100.109375v33.996093h31v-64.996093h-131.109375v-148.714844h49.671875v29.085937h31v-29.085937h84.492188v54.777344h-115.492188v60.832031h31v-29.832031h115.492188v-85.777344h35.054687v130.574219h-58.054687v31h58.054687v69.644531zm0 0" fill="#e9edf5"/><g fill="#dce1eb"><path d="m402.609375 109.390625h-146.800781v31h49.746094v54.777344h-49.746094v31h80.746094v-85.777344h35.054687v130.574219h-58.054687v31h58.054687v69.644531h-115.800781v31h146.800781zm0 0"/><path d="m255.808594 289.105469h15.691406v64.996093h-15.691406zm0 0"/></g></svg>