<svg height="512pt" viewBox="0 0 512 512" width="512pt" xmlns="http://www.w3.org/2000/svg"><path d="m512 256c0 141.386719-114.613281 256-256 256s-256-114.613281-256-256 114.613281-256 256-256 256 114.613281 256 256zm0 0" fill="#00617e"/><path d="m512 256c0-18.242188-1.921875-36.035156-5.550781-53.199219l-101.625-101.625-295.683594 299.613281 108.324219 108.324219c12.566406 1.898438 25.4375 2.886719 38.535156 2.886719 141.386719 0 256-114.613281 256-256zm0 0" fill="#034051"/><path d="m384.40625 204.089844 20.417969-102.914063-102.914063 20.417969-166.117187 206.9375 41.675781 41.675781zm0 0" fill="#fff"/><path d="m156.214844 348.953125 21.253906 21.253906 206.9375-166.117187 20.417969-102.914063zm0 0" fill="#f2f6fc"/><path d="m148.875 318.941406 38.183594 38.183594-60.789063 60.789062-38.183593-38.183593zm0 0" fill="#f8a122"/><path d="m106.757812 398.40625 60.789063-60.789062 19.507813 19.507812-60.789063 60.789062zm0 0" fill="#ff4e2a"/><path d="m143.238281 290.632812 72.125 72.125-22.667969 22.671876-72.125-72.125zm0 0" fill="#ffe000"/><path d="m156.210938 348.953125 22.667968-22.671875 36.480469 36.480469-22.671875 22.667969zm0 0" fill="#ffc200"/></svg>