<?xml version="1.0" encoding="iso-8859-1"?>
<!-- Generator: Adobe Illustrator 19.0.0, SVG Export Plug-In . SVG Version: 6.00 Build 0)  -->
<svg version="1.1" id="Capa_1" xmlns="http://www.w3.org/2000/svg" xmlns:xlink="http://www.w3.org/1999/xlink" x="0px" y="0px"
	 viewBox="0 0 512 512" style="enable-background:new 0 0 512 512;" xml:space="preserve">
<circle style="fill:#E0E0E0;" cx="256" cy="256" r="256"/>
<path style="fill:#C0C0C0;" d="M75.144,268.86l237.688,236.799C426.863,479.81,512,377.852,512,256c0-1.176-0.029-2.344-0.044-3.516
	l-72.922-72.922h-84.7l-10.53,38.427l-42.869-42.869L234.667,171l-33.765,38.206l-36.652-36.652l-95.107,22.113L75.144,268.86z"/>
<path style="fill:#00BAFF;" d="M122.213,288.763c-36.241,0-65.726-29.484-65.726-65.725s29.484-65.725,65.726-65.725
	c36.241,0,65.725,29.484,65.725,65.725S158.454,288.763,122.213,288.763z M122.213,184.312c-21.354,0-38.726,17.372-38.726,38.725
	s17.372,38.725,38.726,38.725c21.353,0,38.725-17.372,38.725-38.725S143.566,184.312,122.213,184.312z"/>
<path style="fill:#008CC3;" d="M122.213,288.763c36.241,0,65.725-29.484,65.725-65.725s-29.484-65.725-65.725-65.725v27
	c21.353,0,38.725,17.372,38.725,38.725s-17.372,38.725-38.725,38.725C122.213,261.763,122.213,288.763,122.213,288.763z"/>
<path style="fill:#333333;" d="M256,288.763c-36.241,0-65.726-29.484-65.726-65.725s29.484-65.725,65.726-65.725
	s65.726,29.484,65.726,65.725S292.241,288.763,256,288.763z M256,184.312c-21.354,0-38.726,17.372-38.726,38.725
	s17.372,38.725,38.726,38.725s38.726-17.372,38.726-38.725S277.354,184.312,256,184.312z"/>
<path style="fill:#1A1A1A;" d="M256,184.312c21.354,0,38.726,17.372,38.726,38.725S277.354,261.763,256,261.763v27
	c36.241,0,65.726-29.484,65.726-65.725S292.241,157.312,256,157.312V184.312z"/>
<path style="fill:#FF3F84;" d="M389.787,288.763c-36.241,0-65.726-29.484-65.726-65.725s29.484-65.725,65.726-65.725
	s65.726,29.484,65.726,65.725S426.028,288.763,389.787,288.763z M389.787,184.312c-21.354,0-38.726,17.372-38.726,38.725
	s17.372,38.725,38.726,38.725s38.726-17.372,38.726-38.725S411.141,184.312,389.787,184.312z"/>
<path style="fill:#983262;" d="M389.787,184.312c21.354,0,38.726,17.372,38.726,38.725s-17.372,38.725-38.726,38.725v27
	c36.241,0,65.726-29.484,65.726-65.725s-29.484-65.725-65.726-65.725V184.312z"/>
<path style="fill:#97CC52;" d="M323.184,347.297c-36.241,0-65.726-29.484-65.726-65.725s29.484-65.725,65.726-65.725
	s65.726,29.484,65.726,65.725S359.425,347.297,323.184,347.297z M323.184,242.846c-21.354,0-38.726,17.372-38.726,38.725
	s17.372,38.725,38.726,38.725s38.726-17.372,38.726-38.725S344.537,242.846,323.184,242.846z"/>
<path style="fill:#60C344;" d="M323.184,347.297c36.241,0,65.726-29.484,65.726-65.725s-29.484-65.725-65.726-65.725v27
	c21.354,0,38.726,17.372,38.726,38.725s-17.372,38.725-38.726,38.725L323.184,347.297L323.184,347.297z"/>
<path style="fill:#FFDC00;" d="M188.816,347.297c-36.241,0-65.726-29.484-65.726-65.725s29.484-65.725,65.726-65.725
	c36.241,0,65.725,29.484,65.725,65.725S225.057,347.297,188.816,347.297z M188.816,242.846c-21.354,0-38.726,17.372-38.726,38.725
	s17.372,38.725,38.726,38.725c21.353,0,38.725-17.372,38.725-38.725S210.169,242.846,188.816,242.846z"/>
<path style="fill:#FFC000;" d="M188.816,242.846c21.353,0,38.725,17.372,38.725,38.725s-17.372,38.725-38.725,38.725v27
	c36.241,0,65.725-29.484,65.725-65.725s-29.484-65.725-65.725-65.725L188.816,242.846L188.816,242.846z"/>
<g>
</g>
<g>
</g>
<g>
</g>
<g>
</g>
<g>
</g>
<g>
</g>
<g>
</g>
<g>
</g>
<g>
</g>
<g>
</g>
<g>
</g>
<g>
</g>
<g>
</g>
<g>
</g>
<g>
</g>
</svg>
