<svg height="512pt" viewBox="0 0 512 512" width="512pt" xmlns="http://www.w3.org/2000/svg"><path d="m512 256c0 141.386719-114.613281 256-256 256s-256-114.613281-256-256 114.613281-256 256-256 256 114.613281 256 256zm0 0" fill="#00617e"/><path d="m340.980469 497.539062c99.609375-35.046874 171.019531-129.945312 171.019531-241.539062 0-18.101562-1.890625-35.757812-5.464844-52.796875l-107.535156-107.535156-15.617188 37.449219-132.742187 100.1875-137.640625-137.636719 13.855469 61.859375 85.453125 85.449218-75.386719 19.023438 75.933594 75.933594-21.503907 9.976562zm0 0" fill="#034051"/><path d="m333.667969 236.773438 65.332031-40.332032-18.757812 56.269532c-3.925782 11.78125-14.953126 19.730468-27.371094 19.730468h-15.871094zm0 0" fill="#faa68e"/><path d="m178.332031 236.773438-65.332031-40.332032 18.757812 56.269532c3.925782 11.78125 14.953126 19.730468 27.371094 19.730468h15.871094zm0 0" fill="#ffcdbe"/><path d="m256 512c62.011719 0 118.871094-22.050781 163.171875-58.738281l-12.429687-15.710938-101.933594-37.125c-9.402344-3.425781-15.660156-12.363281-15.660156-22.371093v-22.078126h-66.292969v22.078126c0 10.007812-6.257813 18.945312-15.660157 22.371093l-101.933593 37.125-11.871094 16.175781c44.21875 36.40625 100.859375 58.273438 162.609375 58.273438zm0 0" fill="#faa68e"/><path d="m419.171875 453.261719-12.429687-15.710938-101.933594-37.125c-9.402344-3.425781-15.660156-12.363281-15.660156-22.371093v-22.078126h-33.339844v156.019532c.0625 0 .128906.003906.191406.003906 62.011719 0 118.871094-22.050781 163.171875-58.738281zm0 0" fill="#e09380"/><path d="m293.910156 369.507812-19.011718 9.765626c-11.863282 6.09375-25.933594 6.09375-37.792969 0l-19.011719-9.765626c-28.175781-14.472656-45.890625-43.488281-45.890625-75.164062v-74.109375c0-46.28125 37.515625-83.800781 83.800781-83.800781 46.277344 0 83.796875 37.519531 83.796875 83.800781v74.109375c0 31.675781-17.714843 60.691406-45.890625 75.164062zm0 0" fill="#ffbeaa"/><path d="m256 136.433594c-.0625 0-.128906.007812-.191406.007812v247.398438c6.546875.027344 13.097656-1.488282 19.089844-4.566406l19.011718-9.765626c28.175782-14.472656 45.890625-43.488281 45.890625-75.164062v-74.109375c0-46.28125-37.519531-83.800781-83.800781-83.800781zm0 0" fill="#faa68e"/><path d="m345.714844 171.394531c.289062-1.761719.449218-3.566406.449218-5.40625 0-18.136719-14.699218-32.835937-32.832031-32.835937-7.519531 0-14.445312 2.535156-19.980469 6.785156-6.703124-8.671875-17.207031-14.265625-29.015624-14.265625-4.257813 0-8.339844.734375-12.140626 2.066406-5.792968-3.828125-12.730468-6.066406-20.195312-6.066406-15.6875 0-29.070312 9.859375-34.304688 23.714844-2.789062-.679688-5.699218-1.046875-8.695312-1.046875-20.25 0-36.664062 16.417968-36.664062 36.667968 0 2.769532.316406 5.46875.898437 8.066407-8.371094 6.71875-13.734375 17.03125-13.734375 28.601562 0 18.722657 14.042969 34.160157 32.167969 36.378907v37.332031h14.667969v-38.484375c15.300781-4.410156 26.5-18.507813 26.5-35.226563 0-.199219-.011719-.394531-.015626-.589843 2.113282.378906 4.289063.589843 6.515626.589843 14.519531 0 27.066406-8.445312 33.007812-20.6875 3.757812 1.300781 7.789062 2.019531 11.992188 2.019531 9.851562 0 18.792968-3.894531 25.382812-10.222656 5.117188 5.300782 12 8.878906 19.703125 9.796875-.292969 1.757813-.449219 3.5625-.449219 5.40625 0 12.046875 6.492188 22.570313 16.164063 28.28125v59.117188h14.664062v-54.632813c.664063.039063 1.328125.066406 2.003907.066406 18.132812 0 32.832031-14.703124 32.832031-32.835937 0-16.808594-12.636719-30.65625-28.921875-32.589844zm0 0" fill="#fd095d"/><path d="m345.714844 171.394531c.289062-1.761719.449218-3.566406.449218-5.40625 0-18.136719-14.699218-32.835937-32.832031-32.835937-7.519531 0-14.445312 2.535156-19.980469 6.785156-6.703124-8.671875-17.207031-14.265625-29.015624-14.265625-2.9375 0-5.789063.355469-8.527344 1.011719v71.308594c2.738281.65625 5.589844 1.015624 8.527344 1.015624 9.851562 0 18.792968-3.898437 25.378906-10.222656 5.121094 5.300782 12.003906 8.878906 19.707031 9.792969-.292969 1.761719-.453125 3.566406-.453125 5.40625 0 12.046875 6.492188 22.574219 16.164062 28.285156v59.113281h14.667969v-54.628906c.664063.039063 1.328125.0625 2.003907.0625 18.132812 0 32.832031-14.699218 32.832031-32.832031 0-16.808594-12.636719-30.65625-28.921875-32.589844zm0 0" fill="#bc1742"/><path d="m207.667969 181-9.863281-31.164062c-4.050782-12.800782-15.929688-21.503907-29.359376-21.503907h-33.558593l-21.886719-32.664062 6.015625 45.109375c1.929687 14.488281 13.785156 25.625 28.367187 26.648437l12.949219.910157 14.667969 23.332031zm0 0" fill="#fff"/><path d="m304.332031 181 9.863281-31.164062c4.050782-12.800782 15.929688-21.503907 29.359376-21.503907h33.558593l21.886719-32.664062-6.015625 45.109375c-1.929687 14.488281-13.785156 25.625-28.367187 26.648437l-12.949219.910157-14.667969 23.332031zm0 0" fill="#f2f6fc"/></svg>