<svg height="512pt" viewBox="0 0 512 512" width="512pt" xmlns="http://www.w3.org/2000/svg"><path d="m512 256c0 141.386719-114.613281 256-256 256s-256-114.613281-256-256 114.613281-256 256-256 256 114.613281 256 256zm0 0" fill="#00617e"/><path d="m512 256c0-22.382812-2.878906-44.089844-8.277344-64.777344l-60.21875-60.222656-13.605468 18.589844-36.589844-36.589844-311.882813 235.859375 162.867188 162.863281c3.882812.175782 7.78125.277344 11.707031.277344 141.386719 0 256-114.613281 256-256zm0 0" fill="#034051"/><path d="m256.082031 204h46.308594c49.117187 0 89.867187-38.992188 90.886719-88.097656.023437-.964844.03125-1.929688.03125-2.902344h-155.722656c-42.039063 0-76.121094 34.078125-76.121094 76.121094v60.878906h24.699218c11.671876-27.054688 38.578126-46 69.917969-46zm0 0" fill="#ffff91"/><path d="m255.808594 113v91.003906c.09375 0 .183594-.003906.273437-.003906h46.308594c49.117187 0 89.867187-38.992188 90.886719-88.097656.023437-.964844.03125-1.929688.03125-2.902344zm0 0" fill="#fff573"/><path d="m95.660156 320.84375c0-78.261719 63.445313-141.707031 141.707032-141.707031 78.265624 0 141.707031 63.445312 141.707031 141.707031zm0 0" fill="#ffe000"/><path d="m255.808594 180.332031v140.511719h123.265625c0-72.011719-53.714844-131.472656-123.265625-140.511719zm0 0" fill="#ffc200"/><path d="m81.425781 297.945312h311.882813v50.914063h-311.882813zm0 0" fill="#ffe000"/><path d="m255.808594 297.945312h137.5v50.914063h-137.5zm0 0" fill="#ffc200"/><path d="m306.277344 222h46.308594c49.113281 0 89.863281-38.992188 90.886718-88.097656.019532-.964844.03125-1.929688.03125-2.902344h-155.726562c-42.039063 0-76.121094 34.078125-76.121094 76.121094v60.878906h24.703125c11.671875-27.054688 38.578125-46 69.917969-46zm0 0" fill="#ffe000"/><path d="m287.777344 131c-11.421875 0-22.246094 2.53125-31.96875 7.039062v103.113282c13.433594-11.910156 31.101562-19.152344 50.464844-19.152344h46.3125c49.113281 0 89.863281-38.988281 90.886718-88.09375.019532-.964844.03125-1.933594.03125-2.90625zm0 0" fill="#ffc200"/></svg>