<?xml version="1.0" encoding="iso-8859-1"?>
<!-- Generator: Adobe Illustrator 19.0.0, SVG Export Plug-In . SVG Version: 6.00 Build 0)  -->
<svg version="1.1" id="Capa_1" xmlns="http://www.w3.org/2000/svg" xmlns:xlink="http://www.w3.org/1999/xlink" x="0px" y="0px"
	 viewBox="0 0 512 512" style="enable-background:new 0 0 512 512;" xml:space="preserve">
<circle style="fill:#590F38;" cx="256" cy="256" r="256"/>
<path style="fill:#440A2D;" d="M286.13,510.226c116.911-13.71,209.731-106.181,223.963-222.932L256,33.201l-74.667,226.465
	l100.93,100.93L233.904,458L286.13,510.226z"/>
<polygon style="fill:#F7674F;" points="278.096,458 233.904,458 201.827,236.823 310.173,236.823 "/>
<polygon style="fill:#CE4C3A;" points="310.173,236.823 255.667,236.823 255.667,458 278.096,458 "/>
<path style="fill:#FFDC00;" d="M195.333,149.202c0-33.505,60.667-116,60.667-116s60.667,82.495,60.667,116
	S289.505,209.868,256,209.868S195.333,182.707,195.333,149.202z"/>
<path style="fill:#FFC000;" d="M255.667,209.86c0.112,0.001,0.221,0.008,0.333,0.008c33.505,0,60.667-27.161,60.667-60.667
	c0-33.505-60.667-116-60.667-116L255.667,209.86z"/>
<path style="fill:#FF6838;" d="M220.279,160.325c0-19.728,35.603-68.301,35.603-68.301s35.838,48.573,35.838,68.301
	s-15.992,35.721-35.72,35.721S220.279,180.053,220.279,160.325z"/>
<path style="fill:#AE4E32;" d="M255.667,196.037c0.112,0.001,0.221,0.009,0.333,0.009c19.728,0,35.721-15.993,35.721-35.721
	s-35.838-68.301-35.838-68.301L255.667,196.037z"/>
<path style="fill:#FFD863;" d="M174.701,155.335c0-20.177,36.534-69.856,36.534-69.856s36.534,49.679,36.534,69.856
	s-16.357,36.534-36.534,36.534S174.701,175.512,174.701,155.335z"/>
<path style="fill:#FF6838;" d="M189.724,162.033c0-11.88,21.511-41.131,21.511-41.131s21.511,29.251,21.511,41.131
	s-9.631,21.511-21.511,21.511S189.724,173.913,189.724,162.033z"/>
<path style="fill:#FFCF35;" d="M264.231,155.335c0-20.177,36.534-69.856,36.534-69.856s36.534,49.679,36.534,69.856
	s-16.357,36.534-36.534,36.534C280.588,191.868,264.231,175.512,264.231,155.335z"/>
<path style="fill:#AE4E32;" d="M279.254,162.033c0-11.88,21.511-41.131,21.511-41.131s21.511,29.251,21.511,41.131
	s-9.631,21.511-21.511,21.511S279.254,173.913,279.254,162.033z"/>
<rect x="181.33" y="176.16" style="fill:#FF9451;" width="149.33" height="83.51"/>
<rect x="255.67" y="176.16" style="fill:#F7674F;" width="75" height="83.51"/>
<polygon style="fill:#FFFFFF;" points="322.252,230.026 322.252,200.028 287.139,200.028 287.139,222.685 299.139,222.685 
	299.139,212.028 310.252,212.028 310.252,230.026 273.557,230.026 273.557,200.028 238.443,200.028 238.443,222.685 
	250.443,222.685 250.443,212.028 261.557,212.028 261.557,230.026 224.861,230.026 224.861,200.028 189.748,200.028 
	189.748,222.685 201.748,222.685 201.748,212.028 212.861,212.028 212.861,230.026 181.333,230.026 181.333,242.026 
	330.667,242.026 330.667,230.026 "/>
<polygon style="fill:#E0E0E0;" points="330.667,230.026 322.252,230.026 322.252,200.028 287.139,200.028 287.139,222.685 
	299.139,222.685 299.139,212.028 310.252,212.028 310.252,230.026 273.557,230.026 273.557,200.028 255.667,200.028 
	255.667,212.028 261.557,212.028 261.557,230.026 255.667,230.026 255.667,242.026 330.667,242.026 "/>
<g>
</g>
<g>
</g>
<g>
</g>
<g>
</g>
<g>
</g>
<g>
</g>
<g>
</g>
<g>
</g>
<g>
</g>
<g>
</g>
<g>
</g>
<g>
</g>
<g>
</g>
<g>
</g>
<g>
</g>
</svg>
