<svg height="512pt" viewBox="0 0 512 512" width="512pt" xmlns="http://www.w3.org/2000/svg"><path d="m512 256c0 141.386719-114.613281 256-256 256s-256-114.613281-256-256 114.613281-256 256-256 256 114.613281 256 256zm0 0" fill="#ffe000"/><path d="m283.316406 510.546875c116.769532-12.386719 210.085938-103.273437 226.199219-218.890625l-168.25-168.25-.3125.546875-73.953125-73.953125-21.800781 96.066406-127.472657 126.496094 67.351563 67.351562-17.09375 19.945313 62.792969 62.792969-10.847656 24.507812zm0 0" fill="#ffc200"/><path d="m245 50h22v114h-22zm0 0" fill="#fff"/><path d="m255.808594 50h11.191406v114h-11.191406zm0 0" fill="#f2f6fc"/><path d="m305.644531 413.066406c0 27.417969-22.226562 49.648438-49.644531 49.648438s-49.644531-22.230469-49.644531-49.648438c0-27.417968 22.226562-49.644531 49.644531-49.644531s49.644531 22.226563 49.644531 49.644531zm0 0" fill="#00617e"/><path d="m256 363.421875c-.0625 0-.128906.003906-.191406.003906v99.28125c.066406 0 .128906.007813.191406.007813 27.417969 0 49.644531-22.230469 49.644531-49.648438 0-27.417968-22.226562-49.644531-49.644531-49.644531zm0 0" fill="#034051"/><path d="m256.320312 328.761719c0 27.417969-22.230468 49.644531-49.648437 49.644531s-49.644531-22.226562-49.644531-49.644531 22.226562-49.644531 49.644531-49.644531 49.648437 22.226562 49.648437 49.644531zm0 0" fill="#00617e"/><path d="m354.972656 328.761719c0 27.417969-22.226562 49.644531-49.644531 49.644531s-49.648437-22.226562-49.648437-49.644531 22.230468-49.644531 49.648437-49.644531 49.644531 22.226562 49.644531 49.644531zm0 0" fill="#034051"/><path d="m256.320312 157.644531c0 27.421875-22.230468 49.648438-49.648437 49.648438s-49.644531-22.226563-49.644531-49.648438c0-27.417969 22.226562-49.644531 49.644531-49.644531s49.648437 22.226562 49.648437 49.644531zm0 0" fill="#00617e"/><path d="m354.972656 157.644531c0 27.421875-22.226562 49.648438-49.644531 49.648438s-49.648437-22.226563-49.648437-49.648438c0-27.417969 22.230468-49.644531 49.648437-49.644531s49.644531 22.226562 49.644531 49.644531zm0 0" fill="#034051"/><path d="m305.804688 242.445312c0 27.417969-22.226563 49.644532-49.644532 49.644532-27.417968 0-49.648437-22.226563-49.648437-49.644532 0-27.417968 22.230469-49.644531 49.648437-49.644531 27.417969 0 49.644532 22.226563 49.644532 49.644531zm0 0" fill="#00617e"/><path d="m256.160156 192.796875c-.117187 0-.234375.007813-.351562.011719v99.273437c.117187 0 .234375.007813.351562.007813 27.417969 0 49.644532-22.226563 49.644532-49.644532 0-27.417968-22.226563-49.648437-49.644532-49.648437zm0 0" fill="#034051"/><path d="m404.460938 242.445312c0 27.417969-22.226563 49.644532-49.648438 49.644532-27.417969 0-49.644531-22.226563-49.644531-49.644532 0-27.417968 22.226562-49.644531 49.644531-49.644531 27.421875 0 49.648438 22.226563 49.648438 49.644531zm0 0" fill="#034051"/><path d="m206.832031 242.445312c0 27.417969-22.226562 49.644532-49.644531 49.644532-27.421875 0-49.648438-22.226563-49.648438-49.644532 0-27.417968 22.226563-49.644531 49.648438-49.644531 27.417969 0 49.644531 22.226563 49.644531 49.644531zm0 0" fill="#00617e"/></svg>