<?xml version="1.0" encoding="iso-8859-1"?>
<!-- Generator: Adobe Illustrator 19.0.0, SVG Export Plug-In . SVG Version: 6.00 Build 0)  -->
<svg version="1.1" id="Capa_1" xmlns="http://www.w3.org/2000/svg" xmlns:xlink="http://www.w3.org/1999/xlink" x="0px" y="0px"
	 viewBox="0 0 512 512" style="enable-background:new 0 0 512 512;" xml:space="preserve">
<circle style="fill:#B9EAFF;" cx="256" cy="256" r="256"/>
<path style="fill:#35CCFF;" d="M512,256c0-11.458-0.765-22.736-2.223-33.795L398.091,110.519l-258.424,17.148L119.909,388.7
	l122.969,122.969C247.225,511.888,251.599,512,256,512C397.385,512,512,397.385,512,256z"/>
<path style="fill:#39B54A;" d="M119.909,110.519V388.7h278.182V110.519H119.909z M367.091,258.5h-30.786v-86.195H327v-30.786h40.091
	V258.5z M296,141.519v30.786h-40v31h49.305v92.609h-92.609V261h16.75v18.164h59.109V256h-20v3.164h-19.109v-19.109h29.109v-20
	h-49.109V234h-16.75v-30.695H227.5v-31h-45.805V262h-30.786V141.519H296z M150.909,293h30.786v33.914H222.5V357.7h-71.591V293z
	 M253.5,357.7v-30.786h82.805V289.5h30.786v68.2H253.5z"/>
<g>
	<path style="fill:#009245;" d="M398.091,110.519H255.667v31H296v30.786h-40v31h49.305v92.609h-49.638v31h80.638V289.5h30.786v68.2
		H255.667v31h142.424V110.519z M367.091,258.5h-30.786v-86.195H327v-30.786h40.091V258.5z"/>
	<polygon style="fill:#009245;" points="288.555,256 268.555,256 268.555,259.164 255.667,259.164 255.667,279.164 288.555,279.164 
			"/>
	<rect x="255.67" y="220.06" style="fill:#009245;" width="22.888" height="20"/>
</g>
<g>
</g>
<g>
</g>
<g>
</g>
<g>
</g>
<g>
</g>
<g>
</g>
<g>
</g>
<g>
</g>
<g>
</g>
<g>
</g>
<g>
</g>
<g>
</g>
<g>
</g>
<g>
</g>
<g>
</g>
</svg>
