<svg height="512pt" viewBox="0 0 512 512" width="512pt" xmlns="http://www.w3.org/2000/svg"><path d="m512 256c0 141.386719-114.613281 256-256 256s-256-114.613281-256-256 114.613281-256 256-256 256 114.613281 256 256zm0 0" fill="#00617e"/><path d="m512 256c0-28.398438-4.632812-55.714844-13.171875-81.242188l-92.421875-92.425781-22.800781 29.109375-187.308594 31.59375-60.703125-60.703125-30 76 89.664062 89.664063-49.332031 34.972656 21.558594 21.5625-21.558594 8.546875 83.5 83.5-40.183593 10.738281-53.648438-53.648437-30 76 69.164062 69.160156c25.527344 8.539063 52.84375 13.171875 81.242188 13.171875 141.386719 0 256-114.613281 256-256zm0 0" fill="#034051"/><path d="m349.667969 275.003906 16.40625-7.414062v-31.769532l-33.742188-10.816406 33.742188-13.867187v-97.464844h-220.148438v68.335937l29.074219 10.332032h-29.074219v90.628906l24.40625 9.371094-24.40625 8.429687v12.308594l9.371094 7.925781-9.371094 6.34375v70.980469h220.148438v-117.011719zm0 0" fill="#fff"/><path d="m366.074219 113.671875h-110.265625v284.65625h110.265625v-117.011719l-16.40625-6.3125 16.40625-7.414062v-31.769532l-33.742188-10.816406 33.742188-13.867187zm0 0" fill="#f2f6fc"/><path d="m110.1875 93h291.625v50.644531h-291.625zm0 0" fill="#ffe000"/><path d="m255.808594 93h146.003906v50.644531h-146.003906zm0 0" fill="#ffc200"/><path d="m105.59375 82.332031h30v76h-30zm0 0" fill="#ffe85f"/><path d="m376.40625 82.332031h30v76h-30zm0 0" fill="#ffc200"/><path d="m110.1875 364.332031h291.625v50.648438h-291.625zm0 0" fill="#ffe000"/><path d="m255.808594 364.332031h146.003906v50.648438h-146.003906zm0 0" fill="#ffc200"/><path d="m105.59375 353.667969h30v76h-30zm0 0" fill="#ffe85f"/><path d="m376.40625 353.667969h30v76h-30zm0 0" fill="#ffc200"/><g fill="#e6e6e6"><path d="m182.667969 169.667969h146.667969v12h-146.667969zm0 0"/><path d="m182.667969 201.800781h146.667969v12h-146.667969zm0 0"/><path d="m182.667969 233.933594h146.667969v12h-146.667969zm0 0"/><path d="m182.667969 266.066406h146.667969v12h-146.667969zm0 0"/><path d="m182.667969 298.199219h146.667969v12h-146.667969zm0 0"/><path d="m182.667969 330.332031h146.667969v12h-146.667969zm0 0"/></g><path d="m255.808594 169.667969h73.527344v12h-73.527344zm0 0" fill="#d7d7d7"/><path d="m255.808594 201.800781h73.527344v12h-73.527344zm0 0" fill="#d7d7d7"/><path d="m255.808594 233.933594h73.527344v12h-73.527344zm0 0" fill="#d7d7d7"/><path d="m255.808594 266.066406h73.527344v12h-73.527344zm0 0" fill="#d7d7d7"/><path d="m255.808594 298.199219h73.527344v12h-73.527344zm0 0" fill="#d7d7d7"/><path d="m255.808594 330.332031h73.527344v12h-73.527344zm0 0" fill="#d7d7d7"/></svg>