<?xml version="1.0" encoding="iso-8859-1"?>
<!-- Generator: Adobe Illustrator 19.0.0, SVG Export Plug-In . SVG Version: 6.00 Build 0)  -->
<svg version="1.1" id="Capa_1" xmlns="http://www.w3.org/2000/svg" xmlns:xlink="http://www.w3.org/1999/xlink" x="0px" y="0px"
	 viewBox="0 0 512 512" style="enable-background:new 0 0 512 512;" xml:space="preserve">
<circle style="fill:#005C83;" cx="256" cy="256" r="256"/>
<path style="fill:#00263F;" d="M512,256c0-6.63-0.252-13.201-0.747-19.704L396.999,122.042l-295.925,55.617l14.3,14.3L109.201,194
	l39.45,39.45l-47.576,156.883l119.169,119.169C231.93,511.136,243.863,512,256,512C397.385,512,512,397.385,512,256z"/>
<g>
	<rect x="119.61" y="164.54" style="fill:#FFFFFF;" width="42.675" height="204.28"/>
	<rect x="234.7" y="164.54" style="fill:#FFFFFF;" width="42.675" height="204.28"/>
</g>
<g>
	<rect x="255.67" y="164.54" style="fill:#E0E0E0;" width="21.704" height="204.28"/>
	<rect x="349.78" y="164.54" style="fill:#E0E0E0;" width="42.675" height="204.28"/>
</g>
<polygon style="fill:#FFFFFF;" points="396.999,162.968 113.667,162.968 113.667,122.042 256.033,71.551 396.999,122.042 "/>
<polygon style="fill:#E0E0E0;" points="255.667,162.968 396.999,162.968 396.999,122.042 256.033,71.551 "/>
<g>
	<rect x="109.2" y="330.5" style="fill:#C0C0C0;" width="63.5" height="20"/>
	<rect x="224.25" y="330.5" style="fill:#C0C0C0;" width="63.5" height="20"/>
</g>
<g>
	<rect x="255.67" y="330.5" style="fill:#758F9B;" width="32.08" height="20"/>
	<rect x="339.37" y="330.5" style="fill:#758F9B;" width="63.5" height="20"/>
</g>
<g>
	<rect x="109.2" y="174" style="fill:#C0C0C0;" width="63.5" height="20"/>
	<rect x="224.25" y="174" style="fill:#C0C0C0;" width="63.5" height="20"/>
</g>
<g>
	<rect x="255.67" y="174" style="fill:#758F9B;" width="32.08" height="20"/>
	<rect x="339.37" y="174" style="fill:#758F9B;" width="63.5" height="20"/>
</g>
<rect x="101.08" y="349.41" style="fill:#E0E0E0;" width="308.52" height="40.926"/>
<rect x="255.67" y="349.41" style="fill:#C0C0C0;" width="153.93" height="40.926"/>
<rect x="101.08" y="136.73" style="fill:#E0E0E0;" width="308.52" height="40.926"/>
<rect x="255.67" y="136.73" style="fill:#C0C0C0;" width="153.93" height="40.926"/>
<g>
</g>
<g>
</g>
<g>
</g>
<g>
</g>
<g>
</g>
<g>
</g>
<g>
</g>
<g>
</g>
<g>
</g>
<g>
</g>
<g>
</g>
<g>
</g>
<g>
</g>
<g>
</g>
<g>
</g>
</svg>
