<svg height="512pt" viewBox="0 0 512 512" width="512pt" xmlns="http://www.w3.org/2000/svg"><path d="m512 256c0 141.386719-114.613281 256-256 256s-256-114.613281-256-256 114.613281-256 256-256 256 114.613281 256 256zm0 0" fill="#fd095d"/><path d="m512 256c0-8.816406-.445312-17.527344-1.316406-26.113281l-71.375-71.378907-12.765625 34.375-63.359375-63.359374-255.496094 255.492187 126.007812 126.007813c7.351563.632812 14.789063.976562 22.304688.976562 141.386719 0 256-114.613281 256-256zm0 0" fill="#bc1742"/><path d="m291.015625 192.738281-45.535156-45.53125c5.027343-11.238281 12.144531-21.765625 21.367187-30.988281s19.753906-16.339844 30.988282-21.367188l45.535156 45.53125c25.941406 25.941407 64.230468 31.96875 95.9375 18.125 11.179687 35.695313 2.632812 76.238282-25.648438 104.519532-28.285156 28.28125-68.824218 36.828125-104.519531 25.648437 13.839844-31.703125 7.816406-69.996093-18.125-95.9375zm0 0" fill="#fff"/><path d="m439.308594 158.507812c-31.707032 13.84375-69.996094 7.816407-95.9375-18.125l-11.320313-11.316406-52.355469 52.355469 11.320313 11.316406c25.941406 25.941407 31.964844 64.234375 18.125 95.9375 35.695313 11.179688 76.238281 2.636719 104.519531-25.648437 28.28125-28.28125 36.828125-68.824219 25.648438-104.519532zm0 0" fill="#f2f6fc"/><path d="m107.691406 385.019531-27.75-27.75 255.492188-255.492187 27.746094 27.75zm0 0" fill="#ffe85f"/><path d="m91.894531 369.222656 255.492188-255.488281 15.792969 15.792969-255.492188 255.488281zm0 0" fill="#ffc200"/><path d="m296.429688 209.367188-40.835938-40.835938 61.253906-61.253906 40.835938 40.835937zm0 0" fill="#ffe000"/><path d="m274.089844 187.027344 61.253906-61.253906 22.335938 22.335937-61.253907 61.253906zm0 0" fill="#ffc200"/></svg>