<svg height="512pt" viewBox="0 0 512 512" width="512pt" xmlns="http://www.w3.org/2000/svg"><path d="m512 256c0 141.386719-114.613281 256-256 256s-256-114.613281-256-256 114.613281-256 256-256 256 114.613281 256 256zm0 0" fill="#66dbbf"/><path d="m271.984375 511.488281c130.523437-8.042969 234.574219-113.878906 239.789063-245.148437l-119.21875-119.21875-12.046876-1.722656-20.546874-10.328126-18-18.070312-51.925782 84.5-121.6875-.042969-37-37-4.789062 47.855469 25.03125 25.035156 5.160156 47.152344-29.253906 82.5zm0 0" fill="#5cae96"/><path d="m115.445312 170.320312v15.957032l9.035157 6.023437 9.039062-6.023437v-15.957032c0-4.988281-4.046875-9.035156-9.039062-9.035156-4.988281 0-9.035157 4.046875-9.035157 9.035156zm0 0" fill="#3c261b"/><path d="m335.929688 162.085938v44.195312c14.125 0 25.667968-11.027344 26.503906-24.484375h18.074218v-19.710937zm0 0" fill="#ffc052"/><path d="m323.886719 228.445312v138.554688h24.09375v-115.265625zm0 0" fill="#faa241"/><path d="m193.757812 204.546875v72.089844h-24.09375v90.359375h24.09375v-64.757813c36.539063 0 66.15625-17.570312 66.15625-52.835937v-53.96875zm0 0" fill="#ffc052"/><path d="m392.554688 222.15625h-18.074219v-64.457031l18.074219 6.023437zm0 0" fill="#ffebcf"/><path d="m380.507812 145.398438-12.050781-10.328126h-26.5v-18.070312c-9.980469 0-18.070312 8.089844-18.070312 18.070312l-33.851563 44.378907-72.289062 13.105469-56.175782 72.914062 144.40625 12.691406c23.101563 2.03125 35.984376-15.28125 35.984376-38.476562l6.023437-75.960938h44.570313v-16.601562zm0 0" fill="#f58330"/><path d="m271.964844 204.601562h18.070312v18.074219h-18.070312zm0 0" fill="#faa241"/><path d="m235.816406 228.699219h18.074219v18.070312h-18.074219zm0 0" fill="#faa241"/><path d="m347.980469 163.722656v88.011719c0 23.191406-18.902344 40.503906-42.003907 38.476563l-17.324218-1.523438v-18.148438l18.910156 1.664063c6.066406.535156 11.699219-1.277344 15.871094-5.101563 4.175781-3.824218 6.476562-9.28125 6.476562-15.367187v-64.320313zm0 0" fill="#f9d4a0"/><path d="m193.648438 262.191406v18.144532l95 8.351562v-18.148438zm0 0" fill="#ffebcf"/><path d="m281.71875 257.199219h24.09375v109.800781h-24.09375zm0 0" fill="#f58330"/><path d="m151.589844 204.546875v-.199219c-9.964844 0-18.070313-8.105468-18.070313-18.070312h-18.074219c0 19.929687 16.214844 36.144531 36.144532 36.144531v54.214844h-24.09375v90.363281h24.09375v-64.761719c36.539062 0 66.15625-17.570312 66.15625-52.835937v-56.847656zm0 0" fill="#faa241"/></svg>