<svg height="512pt" viewBox="0 0 512 512" width="512pt" xmlns="http://www.w3.org/2000/svg"><path d="m512 256c0 141.386719-114.613281 256-256 256s-256-114.613281-256-256 114.613281-256 256-256 256 114.613281 256 256zm0 0" fill="#762916"/><path d="m510.886719 279.84375-144.59375-144.59375-239.5625 78.824219-31.445313 83.851562 70.167969 70.121094-22.125 48.664063 94.648437 94.648437c5.957032.414063 11.964844.640625 18.023438.640625 133.34375 0 242.859375-101.953125 254.886719-232.15625zm0 0" fill="#3c261b"/><path d="m368.671875 297.925781v118.789063h-112.671875v-132.765625zm0 0" fill="#cb9851"/><path d="m256 416.714844h-112.671875v-118.789063l112.671875-13.976562zm0 0" fill="#ffc052"/><path d="m332.863281 315.394531-76.863281 6.988281-6.988281 19.214844 6.988281 19.214844h62.886719zm0 0" fill="#f9d4a0"/><path d="m256 322.382812-76.863281-6.988281 13.976562 45.417969h62.886719zm0 0" fill="#ffebcf"/><path d="m416.714844 214.074219h-31.445313v-32.421875c0-36.601563-29.78125-66.378906-66.382812-66.378906-.746094 0-1.484375.015624-2.214844.042968-16.949219-12.582031-37.941406-20.03125-60.671875-20.03125l-13.976562 113.550782 13.976562 113.546874h62.886719l20.964843-24.457031h76.863282zm0 0" fill="#ffc052"/><path d="m318.886719 297.925781h20.964843v62.886719h-20.964843zm0 0" fill="#3c261b"/><path d="m195.328125 115.316406c-.730469-.027344-1.46875-.042968-2.214844-.042968-36.601562 0-66.382812 29.777343-66.382812 66.378906v32.421875h-31.445313v83.851562h76.863282l20.964843 24.457031h62.886719v-227.097656c-22.730469 0-43.722656 7.449219-60.671875 20.03125zm0 0" fill="#f9d4a0"/><path d="m287.445312 283.949219h-31.445312l-6.988281-21.660157 6.988281-21.660156h31.445312zm0 0" fill="#3c261b"/><path d="m224.554688 240.628906h31.445312v43.320313h-31.445312zm0 0" fill="#762916"/><path d="m238.53125 181.652344c0 25.085937-20.335938 45.421875-45.417969 45.421875-25.085937 0-45.421875-20.335938-45.421875-45.421875 0-25.082032 20.335938-45.417969 45.421875-45.417969 25.082031 0 45.417969 20.335937 45.417969 45.417969zm0 0" fill="#762916"/><path d="m365.003906 181.652344c0 25.085937-20.332031 45.421875-45.417968 45.421875-25.085938 0-45.417969-20.335938-45.417969-45.421875 0-25.082032 20.332031-45.417969 45.417969-45.417969 25.085937 0 45.417968 20.335937 45.417968 45.417969zm0 0" fill="#3c261b"/><path d="m172.148438 297.925781h20.964843v62.886719h-20.964843zm0 0" fill="#762916"/></svg>