<svg height="512pt" viewBox="0 0 512 512" width="512pt" xmlns="http://www.w3.org/2000/svg"><path d="m512 256c0 141.386719-114.613281 256-256 256s-256-114.613281-256-256 114.613281-256 256-256 256 114.613281 256 256zm0 0" fill="#762916"/><path d="m508.148438 300.421875-170.972657-170.972656-227.003906 182.449219 33.15625 33v71.816406l94.648437 94.644531c5.953126.414063 11.960938.640625 18.023438.640625 126.234375 0 231.117188-91.367188 252.148438-211.578125zm0 0" fill="#3c261b"/><path d="m368.671875 311.898438v104.816406h-112.671875v-125.777344zm0 0" fill="#ffc052"/><path d="m256 416.714844h-112.671875v-104.816406l112.671875-20.960938zm0 0" fill="#f9d4a0"/><path d="m339.851562 336.355469-83.851562 6.988281-6.988281 15.722656 6.988281 15.722656h69.875zm0 0" fill="#ffebcf"/><path d="m256 343.34375-83.851562-6.988281 13.976562 38.433593h69.875zm0 0" fill="#fff"/><path d="m401.828125 242.023438h-20.960937v-42.902344c0-23.039063-12.460938-43.222656-30.992188-54.175782-20.441406-29.976562-54.859375-49.660156-93.875-49.660156l-13.976562 124.03125 13.976562 124.027344h69.875l20.964844-31.445312h54.988281zm0 0" fill="#f9d4a0"/><path d="m162.125 144.945312c-18.53125 10.953126-30.992188 31.136719-30.992188 54.175782v42.902344h-20.960937v69.875h54.988281l20.964844 31.445312h69.875v-248.058594c-39.015625 0-73.433594 19.683594-93.875 49.660156zm0 0" fill="#ffebcf"/><path d="m165.160156 311.898438h20.964844v62.890624h-20.964844zm0 0" fill="#762916"/><path d="m325.875 311.898438h20.964844v62.890624h-20.964844zm0 0" fill="#3c261b"/><path d="m283.949219 297.925781h-27.949219l-6.988281-21.660156 6.988281-21.664063h27.949219zm0 0" fill="#3c261b"/><path d="m228.050781 254.601562h27.949219v43.324219h-27.949219zm0 0" fill="#762916"/><path d="m235.945312 199.121094c0 23.15625-18.769531 41.925781-41.925781 41.925781-23.152343 0-41.921875-18.769531-41.921875-41.925781 0-23.152344 18.769532-41.921875 41.921875-41.921875 23.15625 0 41.925781 18.769531 41.925781 41.921875zm0 0" fill="#762916"/><path d="m359.902344 199.121094c0 23.15625-18.769532 41.925781-41.921875 41.925781-23.15625 0-41.925781-18.769531-41.925781-41.925781 0-23.152344 18.769531-41.921875 41.925781-41.921875 23.152343 0 41.921875 18.769531 41.921875 41.921875zm0 0" fill="#3c261b"/></svg>