<svg height="512pt" viewBox="0 0 512 512" width="512pt" xmlns="http://www.w3.org/2000/svg"><path d="m512 256c0 141.386719-114.613281 256-256 256s-256-114.613281-256-256 114.613281-256 256-256 256 114.613281 256 256zm0 0" fill="#f0651f"/><path d="m509.121094 294.472656-158.75-158.75-227.132813 182.753906 39.304688 38.480469-18.480469 58.707031 95.8125 95.816407c5.335938.332031 10.707031.519531 16.125.519531 128.308594 0 234.5625-94.394531 253.121094-217.527344zm0 0" fill="#af2b12"/><path d="m367.9375 318.476562v97.191407h-111.9375v-111.074219zm0 0" fill="#ffc052"/><path d="m256 415.667969h-111.9375v-97.191407l111.9375-13.882812zm0 0" fill="#f9d4a0"/><path d="m325.421875 342.773438h-69.421875l-6.941406 15.621093 6.941406 15.621094h69.421875zm0 0" fill="#ffebcf"/><path d="m186.578125 342.773438h69.421875v31.242187h-69.421875zm0 0" fill="#fff"/><path d="m256 96.332031-13.882812 123.222657 13.882812 123.21875h69.421875l20.824219-24.296876h42.515625v-89.378906c0-73.328125-59.433594-132.765625-132.761719-132.765625zm0 0" fill="#f9d4a0"/><path d="m256 342.773438v-246.441407c-73.320312 0-132.761719 59.4375-132.761719 132.765625v89.378906h42.515625l20.824219 24.296876zm0 0" fill="#ffebcf"/><path d="m242.117188 220.320312c0 23.003907-18.648438 41.652344-41.652344 41.652344s-41.652344-18.648437-41.652344-41.652344c0-23.003906 18.648438-41.652343 41.652344-41.652343s41.652344 18.648437 41.652344 41.652343zm0 0" fill="#762916"/><path d="m353.1875 220.320312c0 23.003907-18.648438 41.652344-41.652344 41.652344s-41.652344-18.648437-41.652344-41.652344c0-23.003906 18.648438-41.652343 41.652344-41.652343s41.652344 18.648437 41.652344 41.652343zm0 0" fill="#3c261b"/><path d="m276.824219 311.535156h-20.824219l-6.941406-19.207031 6.941406-19.667969h20.824219zm0 0" fill="#3c261b"/><path d="m235.175781 272.660156h20.824219v38.875h-20.824219zm0 0" fill="#762916"/><path d="m165.753906 318.476562h20.824219v55.539063h-20.824219zm0 0" fill="#762916"/><path d="m325.421875 318.476562h20.824219v55.539063h-20.824219zm0 0" fill="#3c261b"/></svg>