<svg height="512pt" viewBox="0 0 512 512" width="512pt" xmlns="http://www.w3.org/2000/svg"><path d="m512 256c0 141.386719-114.613281 256-256 256s-256-114.613281-256-256 114.613281-256 256-256 256 114.613281 256 256zm0 0" fill="#f0651f"/><path d="m145.386719 383.085938 128.296875 128.296874c133.132812-9.085937 238.316406-119.945312 238.316406-255.382812 0-2.785156-.058594-5.554688-.148438-8.316406l-151.015624-151.015625zm0 0" fill="#af2b12"/><path d="m321.300781 227.183594 67.226563 128c-27.359375 44.484375-76.480469 74.152344-132.527344 74.152344v-259.992188zm0 0" fill="#cb9851"/><path d="m256 169.34375v259.992188c-56.046875 0-105.167969-29.667969-132.527344-74.152344l67.226563-128zm0 0" fill="#ffc052"/><path d="m411.445312 169.34375v104.542969c0 29.804687-8.386718 57.644531-22.917968 81.296875-40.613282-28.046875-67.226563-74.917969-67.226563-128v-57.839844zm0 0" fill="#967151"/><path d="m190.699219 169.34375v57.839844c0 53.082031-26.613281 99.953125-67.226563 128-14.53125-23.648438-22.917968-51.492188-22.917968-81.296875v-104.542969zm0 0" fill="#f9d4a0"/><path d="m360.835938 96.667969 50.609374 72.675781-90.324218 57.839844-29.804688-65.257813-.492187-65.257812zm0 0" fill="#624950"/><path d="m220.996094 96.667969-1.039063 65.257812-29.257812 65.257813-90.144531-57.839844 50.609374-72.675781zm0 0" fill="#cb9851"/><path d="m290.824219 96.667969 30.296875 130.515625h-130.421875l30.296875-130.515625zm0 0" fill="#967151"/></svg>