<svg height="512pt" viewBox="0 0 512 512" width="512pt" xmlns="http://www.w3.org/2000/svg"><path d="m512 256c0 141.386719-114.613281 256-256 256s-256-114.613281-256-256 114.613281-256 256-256 256 114.613281 256 256zm0 0" fill="#f0651f"/><path d="m505.125 315.125-249.125-249.125-77.824219 358 87.789063 87.789062c116.601562-4.464843 213.207031-86.898437 239.160156-196.664062zm0 0" fill="#af2b12"/><path d="m100.347656 271.492188 77.828125 152.507812 77.824219-129.160156v-23.347656l-77.824219-15.566407zm0 0" fill="#cb9851"/><path d="m333.824219 424 77.828125-152.507812-77.828125-15.566407-77.824219 15.566407v23.347656zm0 0" fill="#624950"/><path d="m178.175781 424h155.648438l-77.824219-152.507812zm0 0" fill="#967151"/><path d="m411.652344 271.492188-155.652344-205.492188-15.566406 102.746094 15.566406 102.746094zm0 0" fill="#cb9851"/><path d="m256 271.492188v-205.492188l-155.652344 205.492188zm0 0" fill="#ffc052"/><g fill="#cb9851"><path d="m209.304688 178.101562h23.347656v23.347657h-23.347656zm0 0"/><path d="m170.390625 224.796875h23.347656v23.347656h-23.347656zm0 0"/></g></svg>