<svg height="512pt" viewBox="0 0 512 512" width="512pt" xmlns="http://www.w3.org/2000/svg"><path d="m512 256c0 141.386719-114.613281 256-256 256s-256-114.613281-256-256 114.613281-256 256-256 256 114.613281 256 256zm0 0" fill="#66dbbf"/><path d="m260.132812 511.949219c139.476563-2.210938 251.867188-115.945313 251.867188-255.949219 0-7.019531-.292969-13.972656-.847656-20.847656l-117.152344-117.152344-125.921875 101.738281-93.96875-93.996093-48.367187 48.367187 93.996093 93.96875-77.738281 125.738281zm0 0" fill="#5cae96"/><path d="m369.816406 394 24.183594-24.183594-170.105469-170.101562-16.332031 7.847656-7.847656 16.332031zm0 0" fill="#af2b12"/><path d="m199.714844 223.894531 24.179687-24.179687-12.726562-12.730469-16.332031 7.851563-7.851563 16.332031zm0 0" fill="#ffc052"/><path d="m186.984375 211.167969 24.183594-24.183594-12.726563-12.726563-16.335937 7.847657-7.847657 16.335937zm0 0" fill="#f9d4a0"/><path d="m142.183594 394-24.183594-24.183594 170.105469-170.101562 16.332031 7.847656 7.847656 16.332031zm0 0" fill="#f0651f"/><path d="m312.285156 223.894531-24.179687-24.179687 12.726562-12.730469 16.332031 7.851563 7.851563 16.332031zm0 0" fill="#f9d4a0"/><path d="m325.015625 211.167969-24.183594-24.183594 12.726563-12.726563 16.335937 7.847657 7.847657 16.335937zm0 0" fill="#ffebcf"/><path d="m149.925781 149.925781-20.203125-11.71875-11.722656-20.207031 56.109375 7.742188zm0 0" fill="#cb9851"/><path d="m149.925781 149.925781 9.726563 18.210938 18.210937 9.726562 7.851563-16.335937-11.605469-35.785156zm0 0" fill="#967151"/><path d="m125.742188 174.109375-7.742188-56.109375 31.925781 31.925781zm0 0" fill="#967151"/><path d="m125.742188 174.109375 35.785156 11.605469 16.335937-7.851563-27.9375-27.9375zm0 0" fill="#624950"/><path d="m198.441406 174.257812-24.179687 24.183594-12.730469-12.730468 24.183594-24.179688zm0 0" fill="#ffc052"/><path d="m386.257812 174.109375 7.742188-56.109375-20.207031 11.722656-11.71875 20.203125zm0 0" fill="#cb9851"/><path d="m386.257812 174.109375-35.785156 11.605469-16.335937-7.851563 9.726562-18.210937 18.210938-9.726563zm0 0" fill="#967151"/><path d="m362.074219 149.925781 31.925781-31.925781-56.109375 7.742188zm0 0" fill="#ffc052"/><path d="m362.074219 149.925781-27.9375 27.9375-7.851563-16.335937 11.605469-35.785156zm0 0" fill="#cb9851"/><path d="m326.285156 161.527344 24.183594 24.183594-12.726562 12.726562-24.183594-24.183594zm0 0" fill="#f9d4a0"/></svg>