<svg height="512pt" viewBox="0 0 512 512" width="512pt" xmlns="http://www.w3.org/2000/svg"><path d="m512 256c0 141.386719-114.613281 256-256 256s-256-114.613281-256-256 114.613281-256 256-256 256 114.613281 256 256zm0 0" fill="#66dbbf"/><path d="m506.140625 310.621094-217.546875-217.550782-32.59375 28.429688-143.902344 259.972656 130.15625 130.15625c4.550782.242188 9.132813.371094 13.746094.371094 122.636719 0 225.113281-86.242188 250.140625-201.378906zm0 0" fill="#5cae96"/><path d="m245.832031 136.460938h20.335938v218.976562h-20.335938zm0 0" fill="#ffc052"/><path d="m256 323.574219-6.777344 40.675781 6.777344 40.675781c22.464844 0 40.675781-18.210937 40.675781-40.675781s-18.210937-40.675781-40.675781-40.675781zm0 0" fill="#893a31"/><path d="m215.324219 364.25c0 22.464844 18.210937 40.675781 40.675781 40.675781v-81.351562c-22.464844 0-40.675781 18.210937-40.675781 40.675781zm0 0" fill="#c53e16"/><path d="m272.949219 310.867188-16.949219 6.78125-16.949219-6.78125-6.777343-20.335938h47.453124zm0 0" fill="#c53e16"/><path d="m232.273438 310.867188h47.453124v20.339843h-47.453124zm0 0" fill="#f9d4a0"/><path d="m288.59375 160.867188-44.621094-44.839844 114.257813 233.164062 18.265625-8.949218zm0 0" fill="#cb9851"/><path d="m223.40625 160.867188 44.621094-44.839844-114.257813 233.164062-18.265625-8.949218zm0 0" fill="#f9d4a0"/><path d="m407.769531 334.730469c-9.886719-20.171875-34.253906-28.511719-54.425781-18.625l14.492188 43.410156 21.304687 29.640625c20.171875-9.882812 28.511719-34.253906 18.628906-54.425781zm0 0" fill="#762916"/><path d="m158.660156 316.101562c20.167969 9.886719 28.507813 34.257813 18.625 54.425782-9.886718 20.175781-34.25 28.515625-54.425781 18.632812l10.414063-35.085937zm0 0" fill="#c53e16"/><path d="m158.660156 316.101562-35.800781 73.054688c-14.414063-7.0625-22.785156-21.523438-22.785156-36.558594 0-6.007812 1.335937-12.109375 4.15625-17.867187 9.886719-20.171875 34.253906-28.511719 54.429687-18.628907zm0 0" fill="#da521b"/><path d="m353.34375 316.105469c-20.175781 9.882812-28.515625 34.25-18.628906 54.425781 9.886718 20.171875 34.253906 28.511719 54.425781 18.625zm0 0" fill="#893a31"/><path d="m362.972656 297.238281-10.746094 16.589844-19.695312-1.675781-15.035156-15.28125 42.613281-20.878906zm0 0" fill="#893a31"/><path d="m326.441406 315.15625 42.613282-20.878906 8.949218 18.261718-42.617187 20.882813zm0 0" fill="#ffc052"/><path d="m149.027344 297.238281 9.632812 16.589844 20.808594-1.675781 15.035156-15.28125-42.613281-20.878906zm0 0" fill="#da521b"/><path d="m176.589844 333.398438-42.613282-20.878907 8.945313-18.265625 42.617187 20.882813zm0 0" fill="#ffebcf"/><path d="m288.59375 126.96875v33.898438h-65.1875v-33.898438l32.59375-6.777344zm0 0" fill="#ffebcf"/><path d="m223.40625 93.070312h65.1875v33.898438h-65.1875zm0 0" fill="#f9d4a0"/></svg>