<svg height="512pt" viewBox="0 0 512 512" width="512pt" xmlns="http://www.w3.org/2000/svg"><path d="m512 256c0 141.386719-114.613281 256-256 256s-256-114.613281-256-256 114.613281-256 256-256 256 114.613281 256 256zm0 0" fill="#66dbbf"/><path d="m503.246094 322.542969-140.457032-140.457031-12.160156 4.753906-94.628906-94.839844-75.007812 254.433594 30.78125 30.785156-65.234376 42.78125 91.355469 91.355469c5.984375.417969 12.015625.644531 18.105469.644531 118.363281 0 217.949219-80.339844 247.246094-189.457031zm0 0" fill="#5cae96"/><path d="m332.234375 194.03125-76.234375-102.03125-14.261719 142.609375 14.261719 142.609375c58.976562 0 106.789062-47.8125 106.789062-106.792969v-88.339843zm0 0" fill="#f0651f"/><path d="m179.765625 194.03125-30.554687-11.945312v88.339843c0 58.980469 47.8125 106.792969 106.789062 106.792969v-285.21875zm0 0" fill="#f58330"/><path d="m365.460938 420h-109.460938l-14.261719-21.390625 14.261719-21.390625h109.460938zm0 0" fill="#624950"/><path d="m256 377.21875v42.78125h-66.675781l-14.261719-21.390625 14.261719-21.390625zm0 0" fill="#967151"/><path d="m146.539062 377.21875h42.785157v42.78125h-42.785157zm0 0" fill="#cb9851"/><path d="m303.890625 253.550781c7.667969 10.289063 11.726563 22.585938 11.726563 35.527344 0 32.871094-26.742188 59.617187-59.617188 59.617187l-14.261719-79.617187 14.261719-79.613281zm0 0" fill="#ffc052"/><path d="m256 189.464844v159.230468c-32.875 0-59.617188-26.746093-59.617188-59.617187 0-12.941406 4.058594-25.238281 11.757813-35.5625zm0 0" fill="#f9d4a0"/></svg>