<svg height="512pt" viewBox="0 0 512 512" width="512pt" xmlns="http://www.w3.org/2000/svg"><path d="m512 256c0 141.386719-114.613281 256-256 256s-256-114.613281-256-256 114.613281-256 256-256 256 114.613281 256 256zm0 0" fill="#66dbbf"/><path d="m511.949219 260-126.484375-126.484375-271.492188 256.816406 120.785156 120.785157c7.003907.574218 14.085938.882812 21.242188.882812 140.046875 0 253.808594-112.460938 255.949219-252zm0 0" fill="#5cae96"/><path d="m379.800781 192.078125c9.980469-7 16.511719-18.585937 16.511719-31.703125 0-21.378906-17.328125-38.707031-38.707031-38.707031-13.890625 0-26.066407 7.320312-32.894531 18.308593h-68.710938l-12.199219 125.179688 12.199219 125.175781h142.027344zm0 0" fill="#624950"/><path d="m357.605469 180.777344c-11.25 0-20.40625-9.152344-20.40625-20.402344 0-11.253906 9.15625-20.40625 20.40625-20.40625s20.40625 9.152344 20.40625 20.40625c0 11.25-9.152344 20.402344-20.40625 20.402344zm0 0" fill="#cb9851"/><path d="m187.289062 139.976562c-6.828124-10.988281-19.003906-18.308593-32.894531-18.308593-21.378906 0-38.707031 17.328125-38.707031 38.707031 0 13.117188 6.53125 24.703125 16.511719 31.703125l-18.226563 198.257813h142.027344v-250.359376zm0 0" fill="#967151"/><path d="m154.394531 180.777344c-11.25 0-20.40625-9.152344-20.40625-20.402344 0-11.253906 9.15625-20.40625 20.40625-20.40625s20.40625 9.152344 20.40625 20.40625c0 11.25-9.15625 20.402344-20.40625 20.402344zm0 0" fill="#ffc052"/><path d="m286.160156 241.496094 18.304688 29.253906v57.246094c0 20.152344-16.394532 36.542968-36.542969 36.542968h-2.769531l-21.351563-61.519531 12.199219-61.523437zm0 0" fill="#cb9851"/><path d="m256 241.496094v80.542968l-9.152344 42.5h-2.769531c-20.148437 0-36.542969-16.390624-36.542969-36.539062v-57.25l18.304688-29.253906zm0 0" fill="#ffc052"/><path d="m304.464844 270.75h-18.304688v-29.253906h45.726563v18.300781h-27.421875zm0 0" fill="#3c261b"/><path d="m225.839844 270.75h-18.304688v-10.953125h-27.421875v-18.300781h45.726563zm0 0" fill="#3c261b"/><path d="m246.847656 194.808594h18.304688v24.402344h-18.304688zm0 0" fill="#cb9851"/><path d="m216.347656 164.308594h18.300782v24.402344h-18.300782zm0 0" fill="#cb9851"/><path d="m277.351562 164.308594h18.300782v24.402344h-18.300782zm0 0" fill="#967151"/><path d="m276.816406 322.035156v18.304688h-20.816406l9.152344-18.304688zm0 0" fill="#3c261b"/><path d="m235.183594 322.035156v18.304688h11.664062v24.199218h18.304688v-42.503906zm0 0" fill="#624950"/></svg>