<svg height="512pt" viewBox="0 0 512 512" width="512pt" xmlns="http://www.w3.org/2000/svg"><path d="m512 256c0 141.386719-114.613281 256-256 256s-256-114.613281-256-256 114.613281-256 256-256 256 114.613281 256 256zm0 0" fill="#66dbbf"/><path d="m508.421875 298.78125-202.667969-202.667969-41.796875 31.183594-41.183593-41.296875 36.125 87.117188-151.398438 209.882812 128.199219 128.199219c6.699219.527343 13.46875.800781 20.300781.800781 126.804688 0 232.058594-92.203125 252.421875-213.21875zm0 0" fill="#5cae96"/><path d="m244.640625 158.863281 44.585937-72.863281 16.527344 10.113281-38.398437 62.75zm0 0" fill="#cb9851"/><path d="m267.355469 158.863281-44.582031-72.863281-16.527344 10.113281 38.394531 62.75 11.359375 6.457031zm0 0" fill="#ffc052"/><path d="m267.355469 158.863281 117.773437 192.175781 6.457032 15.980469-6.457032 15.980469h-30.351562l-9.683594-6.457031-9.683594 6.457031h-30.351562l-61.972656-112.070312 12.914062-112.066407zm0 0" fill="#af2b12"/><path d="m256 158.863281v117.605469l-49.058594 106.53125h-30.351562l-9.683594-6.457031-9.683594 6.457031h-30.351562l-6.457032-15.980469 6.457032-15.980469 117.773437-192.175781zm0 0" fill="#da521b"/><path d="m295.371094 325.523438-9.683594 57.476562h-29.6875l-6.457031-48.425781 6.457031-48.421875c21.746094 0 39.371094 17.625 39.371094 39.371094zm0 0" fill="#3c261b"/><path d="m256 286.152344v96.847656h-29.6875l-9.683594-57.476562c0-21.746094 17.625-39.371094 39.371094-39.371094zm0 0" fill="#624950"/><path d="m305.058594 325.523438v57.476562h-19.371094v-57.476562c0-16.367188-13.320312-29.6875-29.6875-29.6875l-6.457031-9.683594 6.457031-9.683594c27.046875 0 49.058594 22.003906 49.058594 49.054688zm0 0" fill="#cb9851"/><g fill="#ffc052"><path d="m256 276.46875v19.367188c-16.367188 0-29.6875 13.320312-29.6875 29.6875v57.476562h-19.371094v-57.476562c0-27.050782 22.011719-49.054688 49.058594-49.054688zm0 0"/><path d="m107.5 351.039062h19.371094v31.960938h-19.371094zm0 0"/><path d="m157.222656 351.039062h19.371094v31.960938h-19.371094zm0 0"/></g><path d="m335.410156 351.039062h19.367188v31.960938h-19.367188zm0 0" fill="#cb9851"/><path d="m385.128906 351.039062h19.371094v31.960938h-19.371094zm0 0" fill="#cb9851"/></svg>