<svg height="512pt" viewBox="0 0 512 512" width="512pt" xmlns="http://www.w3.org/2000/svg"><path d="m512 256c0 141.386719-114.613281 256-256 256s-256-114.613281-256-256 114.613281-256 256-256 256 114.613281 256 256zm0 0" fill="#762916"/><path d="m506.808594 307.542969-201.410156-201.410157-18.929688-9.632812-20.371094-21-20.195312 41.371094-133.53125 268.628906 125.878906 125.878906c5.863281.398438 11.78125.621094 17.75.621094 123.730469 0 226.957031-87.777344 250.808594-204.457031zm0 0" fill="#3c261b"/><path d="m245.902344 75.5h20.195312v61.148438h-20.195312zm0 0" fill="#f9d4a0"/><path d="m256 126.96875-7.550781 21.011719-41.847657-41.847657 14.28125-14.28125zm0 0" fill="#ffebcf"/><path d="m256 126.96875 7.550781 21.011719 41.847657-41.847657-14.28125-14.28125zm0 0" fill="#ffc052"/><path d="m399.628906 270.597656v46.066406l-13.464844 62.105469-130.164062-13.464843-13.464844-109.070313 13.464844-129.265625c79.195312 0 143.628906 64.433594 143.628906 143.628906zm0 0" fill="#967151"/><path d="m256 126.96875v238.335938l-130.164062 13.464843-13.464844-62.105469v-46.066406c0-79.195312 64.433594-143.628906 143.628906-143.628906zm0 0" fill="#cb9851"/><path d="m349.671875 270.597656v108.171875l-93.671875-13.464843-6.730469-84.089844 6.730469-104.289063c51.730469 0 93.671875 41.941407 93.671875 93.671875zm0 0" fill="#3c261b"/><path d="m256 176.925781v188.378907l-93.671875 13.464843v-108.171875c0-51.730468 41.941406-93.671875 93.671875-93.671875zm0 0" fill="#624950"/><path d="m320.382812 365.304688h-128.765624l12.878906 20.195312h103.007812zm0 0" fill="#967151"/><path d="m204.496094 385.5v-81.929688l15.441406-15.441406c9.964844-9.96875 9.964844-26.125 0-36.09375-9.96875-9.96875-26.125-9.96875-36.09375 0l-10.285156 10.285156-6.734375 61.589844 6.734375 61.589844zm0 0" fill="#ffc052"/><path d="m127.179688 288.128906 15.441406 15.441406v41.875l-6.734375 20.027344 6.734375 20.027344h30.9375v-123.179688l-10.289063-10.285156c-9.964843-9.96875-26.121093-9.96875-36.089843 0s-9.96875 26.125 0 36.09375zm0 0" fill="#f9d4a0"/><path d="m150.171875 320.253906c-4.875-4.875-12.773437-4.875-17.648437 0l-5.027344 5.027344-5.027344-5.027344c-4.871094-4.875-12.773438-4.875-17.644531 0-4.875 4.871094-4.875 12.769532 0 17.644532l7.546875 7.546874v40.054688h30.25v-40.054688l7.550781-7.546874c4.871094-4.875 4.871094-12.769532 0-17.644532zm0 0" fill="#ffebcf"/><path d="m369.378906 385.5 6.730469-20.027344-6.730469-20.023437v-41.878907l15.441406-15.441406c9.96875-9.96875 9.96875-26.125 0-36.09375s-26.125-9.96875-36.09375 0l-10.285156 10.285156-6.730468 61.589844 6.730468 61.589844zm0 0" fill="#cb9851"/><path d="m292.0625 288.128906 15.441406 15.441406v81.929688h30.9375v-123.179688l-10.285156-10.285156c-9.96875-9.96875-26.125-9.96875-36.09375 0-9.964844 9.96875-9.964844 26.125 0 36.09375zm0 0" fill="#ffc052"/><path d="m361.828125 320.253906c4.875-4.875 12.773437-4.875 17.648437 0l5.027344 5.027344 5.027344-5.027344c4.871094-4.875 12.773438-4.875 17.644531 0 4.875 4.871094 4.875 12.769532 0 17.644532l-7.546875 7.546874v40.054688h-30.25v-40.054688l-7.550781-7.546874c-4.871094-4.875-4.871094-12.769532 0-17.644532zm0 0" fill="#f9d4a0"/></svg>