<svg height="512pt" viewBox="0 0 512 512" width="512pt" xmlns="http://www.w3.org/2000/svg"><path d="m512 256c0 141.386719-114.613281 256-256 256s-256-114.613281-256-256 114.613281-256 256-256 256 114.613281 256 256zm0 0" fill="#762916"/><path d="m512 256c0-5.980469-.222656-11.90625-.625-17.78125l-105.914062-105.914062-149.460938 97.464843-125.765625-89.769531-23.929687 45.003906 97.378906 97.082032-71.144532 123.609374 105.679688 105.679688c5.875.402344 11.800781.625 17.78125.625 141.386719 0 256-114.613281 256-256zm0 0" fill="#3c261b"/><path d="m405.695312 379.460938-26.234374 26.234374-123.460938-123.464843 9.203125-18.40625 17.027344-7.824219zm0 0" fill="#af2b12"/><g fill="#ffc052"><path d="m210.914062 237.148438 26.230469-26.234376 27.613281 27.613282-26.230468 26.234375zm0 0"/><path d="m154.167969 137.140625-47.863281 47.863281v-52.464844zm0 0"/><path d="m180.203125 163.175781-47.863281 47.859375v-52.464844zm0 0"/><path d="m206.234375 189.207031-47.863281 47.863281v-52.464843zm0 0"/><path d="m210.914062 237.148438-26.230468 26.230468v-52.464844l17.71875 8.515626zm0 0"/></g><path d="m106.304688 132.539062 26.230468-26.234374 104.609375 104.609374-26.230469 26.234376zm0 0" fill="#cb9851"/><path d="m106.304688 379.460938 26.234374 26.234374 123.460938-123.464843-4.847656-21.382813-21.382813-4.847656zm0 0" fill="#f0651f"/><path d="m229.769531 256 26.230469 26.230469 13.808594-13.804688-8.515625-17.71875-17.71875-8.515625zm0 0" fill="#ffebcf"/><path d="m274.851562 210.914062-31.277343 31.277344 26.234375 26.234375 31.277344-31.277343-8.515626-17.71875zm0 0" fill="#f9d4a0"/><path d="m357.832031 137.140625 47.863281 47.863281v-52.464844zm0 0" fill="#f9d4a0"/><path d="m331.796875 163.175781 47.863281 47.859375v-52.464844zm0 0" fill="#f9d4a0"/><path d="m305.765625 189.207031 47.863281 47.863281v-52.464843zm0 0" fill="#f9d4a0"/><path d="m301.085938 237.148438 26.230468 26.230468v-52.464844l-22.320312 3.914063zm0 0" fill="#f9d4a0"/><path d="m301.085938 237.152344-26.230469-26.234375 104.609375-104.609375 26.230468 26.234375zm0 0" fill="#ffc052"/></svg>