<svg height="512pt" viewBox="0 0 512 512" width="512pt" xmlns="http://www.w3.org/2000/svg"><path d="m512 256c0 141.386719-114.613281 256-256 256s-256-114.613281-256-256 114.613281-256 256-256 256 114.613281 256 256zm0 0" fill="#66dbbf"/><path d="m512 256c0-1.832031-.03125-3.660156-.070312-5.480469l-154.851563-154.851562-41.824219 79.707031-48.832031-48.816406-32.734375-6.921875-23-23.96875-69.710938 125.476562 39.660157 38.71875-25.714844 156.46875 95.59375 95.597657c1.824219.039062 3.648437.070312 5.484375.070312 141.386719 0 256-114.613281 256-256zm0 0" fill="#5cae96"/><path d="m301.394531 316.597656-35.023437-2.691406c-15.285156-1.175781-27.796875 10.410156-27.796875 25.746094v13.941406l45.3125 6.972656 45.308593-6.972656v-6.972656c0-15.335938-12.511718-28.84375-27.800781-30.023438zm0 0" fill="#967151"/><path d="m238.570312 353.59375v13.941406c0 15.335938 12.515626 26.921875 27.800782 25.746094l35.023437-2.691406c15.285157-1.179688 27.800781-14.6875 27.800781-30.023438v-6.972656zm0 0" fill="#624950"/><path d="m336.167969 95.667969-6.972657 104.5625 6.972657 104.566406h20.910156v-209.128906zm0 0" fill="#c53e16"/><path d="m315.253906 95.667969h20.914063v209.128906h-20.914063zm0 0" fill="#da521b"/><path d="m336.167969 290.855469-13.941407 62.738281 13.941407 62.738281h34.855469v-125.476562zm0 0" fill="#af2b12"/><path d="m301.3125 290.855469h34.855469v125.476562h-34.855469zm0 0" fill="#c53e16"/><path d="m273.429688 158.40625v13.941406c0 15.335938-12.515626 26.921875-27.800782 25.746094l-35.023437-2.691406c-15.285157-1.179688-27.800781-14.6875-27.800781-30.023438v-6.972656l45.3125-6.972656zm0 0" fill="#967151"/><path d="m273.429688 144.464844v13.941406h-90.625v-6.972656c0-15.335938 12.511718-28.84375 27.800781-30.023438l35.023437-2.691406c15.285156-1.175781 27.800782 10.410156 27.800782 25.746094zm0 0" fill="#cb9851"/><path d="m196.746094 207.203125v209.128906h-20.914063l-6.96875-104.5625 6.96875-104.566406zm0 0" fill="#da521b"/><path d="m154.921875 207.203125h20.910156v209.128906h-20.910156zm0 0" fill="#f0651f"/><path d="m210.6875 95.667969v125.476562h-34.855469l-13.941406-62.738281 13.941406-62.738281zm0 0" fill="#c53e16"/><path d="m140.976562 95.667969h34.855469v125.476562h-34.855469zm0 0" fill="#da521b"/></svg>