<svg height="512pt" viewBox="0 0 512 512" width="512pt" xmlns="http://www.w3.org/2000/svg"><path d="m512 256c0 141.386719-114.613281 256-256 256s-256-114.613281-256-256 114.613281-256 256-256 256 114.613281 256 256zm0 0" fill="#762916"/><path d="m512 256c0-6.738281-.265625-13.410156-.773438-20.015625l-133.453124-133.480469-132.441407 162.496094-137.824219 112.632812 133.945313 133.945313c4.816406.273437 9.664063.421875 14.546875.421875 141.386719 0 256-114.613281 256-256zm0 0" fill="#3c261b"/><path d="m209.699219 362.359375-14.976563 14.976563v22.90625c0 14.785156-11.984375 26.769531-26.769531 26.769531-14.789063 0-26.769531-11.984375-26.769531-26.769531v-15.257813l15.722656-35.695313 35.691406-15.71875zm0 0" fill="#ffc052"/><path d="m125.925781 331.445312h22.902344l14.980469-14.976562 28.789062 17.097656-51.414062 51.417969h-15.257813c-14.785156 0-26.769531-11.984375-26.769531-26.769531s11.984375-26.769532 26.769531-26.769532zm0 0" fill="#f9d4a0"/><path d="m390.25 119.984375-76.164062 56.191406-56.191407 76.164063 41.675781 20.148437 78.203126-78.195312c20.09375-20.097657 24.257812-50.105469 12.476562-74.308594zm0 0" fill="#ffc052"/><path d="m377.773438 102.503906-124.09375 124.09375 4.214843 25.742188 132.355469-132.355469c-3.070312-6.316406-7.230469-12.234375-12.476562-17.480469zm0 0" fill="#f9d4a0"/><path d="m209.699219 362.359375-45.890625-45.890625 14.976562-14.980469 27.941406 17.953125 17.953126 27.9375zm0 0" fill="#f58330"/><path d="m224.679688 347.378906-45.894532-45.890625 14.980469-14.976562 27.9375 17.953125 17.953125 27.9375zm0 0" fill="#f0651f"/><path d="m239.65625 332.402344-45.890625-45.890625 14.976563-14.980469 27.941406 17.953125 17.953125 27.9375zm0 0" fill="#f58330"/><path d="m254.636719 317.421875-45.894531-45.890625 14.980468-14.976562 27.9375 17.953124 17.953125 27.9375zm0 0" fill="#f0651f"/><path d="m269.613281 302.445312-45.890625-45.890624 14.976563-14.980469 27.941406 17.953125 17.953125 27.9375zm0 0" fill="#f58330"/><path d="m253.679688 226.59375 45.890624 45.890625-14.980468 14.976563-45.886719-45.890626zm0 0" fill="#f0651f"/></svg>