<svg height="512pt" viewBox="0 0 512 512" width="512pt" xmlns="http://www.w3.org/2000/svg"><path d="m512 256c0 141.386719-114.613281 256-256 256s-256-114.613281-256-256 114.613281-256 256-256 256 114.613281 256 256zm0 0" fill="#762916"/><path d="m512 256c0-7.359375-.328125-14.644531-.9375-21.847656l-116.609375-116.605469-80.6875 64.757813-171.925781-56.3125-10.980469 42.835937 98.191406 98.191406-46.796875 58.976563-79.546875 52.023437 133.199219 133.199219c6.628906.515625 13.332031.78125 20.09375.78125 141.386719 0 256-114.613281 256-256zm0 0" fill="#3c261b"/><path d="m145.953125 125.644531-4.113281.347657 1.738281 19.675781 19.683594 1.738281c49.636719-.308594 97.5 17.742188 134.550781 50.84375l14.453125-1.496094 1.507813-14.445312c-45.597657-41.214844-106.125-61.777344-167.820313-56.664063zm0 0" fill="#da521b"/><path d="m128.386719 139.445312-13.457031 13.453126 15.929687 15.929687 22.421875-22.425781zm0 0" fill="#da521b"/><path d="m386.410156 366.101562c5.121094-61.714843-15.464844-122.273437-56.71875-167.878906l-14.429687 1.519532-1.511719 14.441406c33.140625 37.0625 51.210938 84.945312 50.894531 134.613281l1.742188 19.679687 19.675781 1.738282zm0 0" fill="#af2b12"/><path d="m365.652344 358.773438-22.425782 22.421874 15.929688 15.929688 13.453125-13.453125zm0 0" fill="#af2b12"/><path d="m128.382812 139.449219 13.453126-13.457031 244.226562 244.226562-13.457031 13.453125zm0 0" fill="#f9d4a0"/><path d="m160.332031 367.597656-15.929687-15.929687 153.410156-153.414063 12.453125 3.480469 3.484375 12.449219zm0 0" fill="#f0651f"/><path d="m194.816406 348.457031-13.636718 13.636719-15.636719-15.636719 23.722656-23.722656zm0 0" fill="#af2b12"/><path d="m189.265625 322.734375-23.722656 23.722656-15.636719-15.636719 13.636719-13.636718zm0 0" fill="#da521b"/><path d="m181.179688 362.09375-47.199219 47.199219-5.546875-25.726563 47.199218-47.199218zm0 0" fill="#cb9851"/><path d="m175.632812 336.367188-47.199218 47.199218-25.726563-5.546875 47.199219-47.199219zm0 0" fill="#ffc052"/><path d="m313.679688 214.246094-15.925782-15.925782 16.125-16.128906 12.449219 3.480469 3.480469 12.449219zm0 0" fill="#ffebcf"/><path d="m329.808594 198.121094-15.929688-15.929688 16.128906-16.125 12.445313 3.480469 3.480469 12.445313zm0 0" fill="#f9d4a0"/><path d="m345.933594 181.992188-15.925782-15.925782 16.125-16.128906 12.449219 3.480469 3.480469 12.449219zm0 0" fill="#ffebcf"/><path d="m376.148438 179.953125 18.304687-62.40625-24.664063 15.691406-15.691406 24.664063zm0 0" fill="#cb9851"/><path d="m354.097656 157.902344 40.355469-40.355469-62.40625 18.304687zm0 0" fill="#ffc052"/></svg>