<svg height="512pt" viewBox="0 0 512 512" width="512pt" xmlns="http://www.w3.org/2000/svg"><path d="m512 256c0 141.386719-114.613281 256-256 256s-256-114.613281-256-256 114.613281-256 256-256 256 114.613281 256 256zm0 0" fill="#762916"/><path d="m296.039062 508.875c122.363282-19.21875 215.960938-125.113281 215.960938-252.875 0-5.246094-.175781-10.449219-.488281-15.617188l-94.671875-94.671874-91.433594-.804688-28.894531-28.886719-126.617188 266.714844zm0 0" fill="#3c261b"/><path d="m95.160156 145.710938 66.007813 102.742187 111.03125 74.292969c17.558593-48.828125 6.78125-105.5625-32.34375-144.691406-39.128907-39.128907-95.863281-49.902344-144.695313-32.34375zm0 0" fill="#a3e9d9"/><path d="m416.839844 145.710938c17.558594 48.828124 6.78125 105.5625-32.34375 144.691406-39.128906 39.128906-95.863282 49.902344-144.695313 32.34375l69.640625-106.378906zm0 0" fill="#5cae96"/><path d="m416.839844 145.710938-177.039063 177.035156c-17.558593-48.828125-6.78125-105.5625 32.34375-144.691406 39.128907-39.128907 95.863281-49.902344 144.695313-32.34375zm0 0" fill="#66dbbf"/><path d="m256 87c46.945312 22.113281 79.441406 69.851562 79.441406 125.183594 0 55.335937-32.496094 103.074218-79.441406 125.1875l-22.042969-125.183594zm0 0" fill="#51816d"/><path d="m256 87v250.371094c-46.945312-22.113282-79.441406-69.851563-79.441406-125.183594 0-55.335938 32.496094-103.074219 79.441406-125.1875zm0 0" fill="#5cae96"/><path d="m95.160156 145.710938c-17.558594 48.828124-6.78125 105.5625 32.34375 144.691406 39.128906 39.128906 95.863282 49.902344 144.695313 32.34375zm0 0" fill="#66dbbf"/><path d="m341.761719 206.691406-85.761719 57.488282-7.347656 80.410156 7.347656 80.410156c69.609375-13.878906 122.078125-57.75 122.078125-131.4375 0-34-13.890625-64.738281-36.316406-86.871094zm0 0" fill="#762916"/><path d="m170.238281 206.691406c-22.425781 22.132813-36.316406 52.871094-36.316406 86.871094 0 73.6875 52.46875 117.558594 122.078125 131.4375v-160.820312zm0 0" fill="#af2b12"/><path d="m256 171.484375-7.347656 46.347656 7.347656 46.347657c38.722656 0 71.90625-23.757813 85.761719-57.488282-22.046875-21.78125-52.335938-35.207031-85.761719-35.207031zm0 0" fill="#ffc052"/><path d="m170.238281 206.691406c13.855469 33.730469 47.039063 57.488282 85.761719 57.488282v-92.695313c-33.425781 0-63.714844 13.425781-85.761719 35.207031zm0 0" fill="#f9d4a0"/></svg>