<svg height="512pt" viewBox="0 0 512 512" width="512pt" xmlns="http://www.w3.org/2000/svg"><path d="m512 256c0 141.386719-114.613281 256-256 256s-256-114.613281-256-256 114.613281-256 256-256 256 114.613281 256 256zm0 0" fill="#762916"/><path d="m512 256c0-6.910156-.28125-13.75-.820312-20.519531l-116.746094-116.75-297.605469 254.867187 137.480469 137.476563c7.152344.601562 14.382812.925781 21.691406.925781 141.386719 0 256-114.613281 256-256zm0 0" fill="#3c261b"/><path d="m394.433594 271.941406-87-66.214844 38.304687-59.085937 48.695313-27.910156c20.460937 20.460937 31.730468 47.671875 31.730468 76.613281-.003906 28.929688-11.269531 56.136719-31.730468 76.597656zm0 0" fill="#f58330"/><path d="m394.433594 118.730469-87 87-66.214844-87c20.460938-20.460938 47.671875-31.730469 76.601562-31.730469 28.941407 0 56.152344 11.269531 76.613282 31.730469zm0 0" fill="#faa241"/><path d="m187.605469 397.144531c0 15.390625-12.472657 27.859375-27.855469 27.855469-15.386719.003906-27.855469-12.464844-27.855469-27.855469v-15.878906l26.75-37.140625 37.140625-26.75 18.683594 29.074219-26.859375 26.863281zm0 0" fill="#ffc052"/><path d="m317.824219 195.335938-68.8125 58.421874-58.421875 68.8125 23.882812 23.878907 20.78125-20.78125 106.992188-24.773438c19.746094-4.546875 37.792968-14.558593 52.183594-28.949219zm0 0" fill="#f0651f"/><path d="m195.785156 317.375-63.890625 63.890625h-15.878906c-15.386719 0-27.859375-12.46875-27.855469-27.855469-.003906-15.382812 12.46875-27.851562 27.855469-27.851562l23.835937-.003906 26.859376-26.863282zm0 0" fill="#f9d4a0"/><path d="m317.824219 195.335938-45.429688-45.429688-2.597656-12.992188-12.992187-2.597656-15.585938-15.585937c-14.390625 14.390625-24.40625 32.4375-28.949219 52.1875l-24.773437 106.988281-20.785156 20.785156 23.882812 23.878906zm0 0" fill="#f58330"/><path d="m272.394531 149.90625-15.589843-15.589844c16.300781-16.296875 37.96875-25.273437 61.015624-25.273437 23.054688 0 44.726563 8.976562 61.023438 25.273437l-15.585938 15.589844c-12.132812-12.136719-28.269531-18.820312-45.4375-18.820312-17.160156.003906-33.292968 6.683593-45.425781 18.820312zm0 0" fill="#f9d4a0"/></svg>