<svg height="512pt" viewBox="0 0 512 512" width="512pt" xmlns="http://www.w3.org/2000/svg"><path d="m512 256c0 141.386719-114.613281 256-256 256s-256-114.613281-256-256 114.613281-256 256-256 256 114.613281 256 256zm0 0" fill="#66dbbf"/><path d="m512 256c0-.632812-.019531-1.261719-.023438-1.890625l-73.4375-73.4375-301.585937-63.492187-63.492187 191.273437 86.507812 86 15.53125 9.238281-15.53125 23.808594 84.21875 84.21875c3.914062.175781 7.851562.28125 11.8125.28125 141.386719 0 256-114.613281 256-256zm0 0" fill="#5cae96"/><path d="m375.046875 117.179688 7.9375 44.898437-7.9375 44.898437-23.015625-23.015624v243.539062h-96.03125l-15.871094-146.824219 15.871094-138.890625 73.347656-47.621094h22.683594zm0 0" fill="#c53e16"/><path d="m438.539062 180.671875v103.96875l-31.742187 15.875-31.75-15.875v-167.460937zm0 0" fill="#af2b12"/><path d="m375.046875 284.640625h63.492187v23.8125h-63.492187zm0 0" fill="#762916"/><path d="m256 141.785156v285.714844h-96.03125v-243.539062l-23.015625 23.015624-7.9375-44.898437 7.9375-44.898437 23.015625-23.015626h22.683594zm0 0" fill="#f0651f"/><path d="m136.953125 206.976562v77.664063l-31.75 15.875-31.742187-15.875v-103.96875l63.492187-63.492187zm0 0" fill="#f58330"/><path d="m73.460938 284.640625h63.488281v23.8125h-63.488281zm0 0" fill="#893a31"/><path d="m159.96875 381.46875h23.808594v22.222656h-23.808594zm0 0" fill="#893a31"/><path d="m159.96875 333.847656h23.808594v22.222656h-23.808594zm0 0" fill="#893a31"/><path d="m159.96875 286.230469h23.808594v22.21875h-23.808594zm0 0" fill="#893a31"/><g fill="#762916"><path d="m328.222656 381.46875h23.808594v22.222656h-23.808594zm0 0"/><path d="m328.222656 333.847656h23.808594v22.222656h-23.808594zm0 0"/><path d="m328.222656 286.230469h23.808594v22.21875h-23.808594zm0 0"/><path d="m288.230469 222.59375-15.398438 15.390625 15.398438 15.394531-16.839844 16.835938-15.390625-15.390625-7.9375-16.835938 7.9375-16.839843 15.390625-15.386719zm0 0"/></g><path d="m256 221.148438v33.675781l-15.390625 15.390625-16.839844-16.835938 15.398438-15.394531-15.398438-15.390625 16.839844-16.832031zm0 0" fill="#893a31"/><path d="m256 133.847656-7.9375 16.835938 7.9375 16.839844 15.390625 15.386718 16.839844-16.832031-15.398438-15.398437 56.515625-56.515626h-33.664062zm0 0" fill="#762916"/><path d="m256 133.847656v33.675782l-15.390625 15.386718-16.839844-16.832031 15.398438-15.398437-56.515625-56.515626h33.664062zm0 0" fill="#893a31"/></svg>