<svg height="512pt" viewBox="0 0 512 512" width="512pt" xmlns="http://www.w3.org/2000/svg"><path d="m512 256c0 141.386719-114.613281 256-256 256s-256-114.613281-256-256 114.613281-256 256-256 256 114.613281 256 256zm0 0" fill="#762916"/><path d="m512 256c0-.625-.019531-1.246094-.023438-1.871094l-166.0625-166.0625-48.488281-.644531-16.847656-16.835937-58.625 24.199218-6.695313-6.675781-51.382812 44.628906-44.628906 51.382813 6.675781 6.699218-24.203125 58.625 16.847656 16.855469-9.496094 28.644531-11.453124 36.117188 56.125 55.863281-26.015626 26.046875 97.140626 97.136719c10.207031 1.238281 20.59375 1.890625 31.132812 1.890625 141.386719 0 256-114.613281 256-256zm0 0" fill="#3c261b"/><path d="m238.964844 358.234375h34.070312v93.671875h-34.070312zm0 0" fill="#967151"/><path d="m337.445312 331.839844 46.839844 81.121094-29.507812 17.035156-46.835938-81.121094zm0 0" fill="#967151"/><path d="m174.5625 331.839844 29.503906 17.035156-46.835937 81.121094-29.503907-17.035156zm0 0" fill="#cb9851"/><path d="m377.878906 280.476562 49.269532 28.449219-12.773438 22.128907-49.273438-28.449219zm0 0" fill="#967151"/><path d="m134.117188 280.480469 12.777343 22.128906-49.269531 28.449219-12.777344-22.128906zm0 0" fill="#cb9851"/><path d="m403.261719 159.515625c0 18.816406-15.253907 34.070313-34.070313 34.070313s-34.070312-15.253907-34.070312-34.070313 15.253906-34.070313 34.070312-34.070313 34.070313 15.253907 34.070313 34.070313zm0 0" fill="#ffc052"/><path d="m355.421875 111.675781c0 18.816407-15.253906 34.070313-34.070313 34.070313-18.816406 0-34.070312-15.253906-34.070312-34.070313 0-18.816406 15.253906-34.070312 34.070312-34.070312 18.816407 0 34.070313 15.253906 34.070313 34.070312zm0 0" fill="#ffc052"/><path d="m290.070312 355.566406c0-18.816406-15.253906-34.070312-34.070312-34.070312l-17.035156 34.070312 17.035156 34.070313c18.816406 0 34.070312-15.253907 34.070312-34.070313zm0 0" fill="#cb9851"/><path d="m355.421875 338.058594c0 18.816406-15.253906 34.070312-34.070313 34.070312-18.816406 0-34.070312-15.253906-34.070312-34.070312 0-18.820313 15.253906-34.074219 34.070312-34.074219 18.816407 0 34.070313 15.253906 34.070313 34.074219zm0 0" fill="#cb9851"/><path d="m403.261719 290.21875c0 18.816406-15.253907 34.070312-34.070313 34.070312s-34.070312-15.253906-34.070312-34.070312c0-18.820312 15.253906-34.074219 34.070312-34.074219s34.070313 15.253907 34.070313 34.074219zm0 0" fill="#cb9851"/><path d="m352.632812 224.867188 34.070313-17.035157 34.070313 17.035157c0 18.816406-15.253907 34.070312-34.070313 34.070312s-34.070313-15.253906-34.070313-34.070312zm0 0" fill="#cb9851"/><g fill="#ffc052"><path d="m420.773438 224.867188h-68.140626c0-18.816407 15.253907-34.070313 34.070313-34.070313s34.070313 15.253906 34.070313 34.070313zm0 0"/><path d="m290.070312 94.164062c0-18.816406-15.253906-34.070312-34.070312-34.070312l-17.035156 34.070312 17.035156 34.070313c18.816406 0 34.070312-15.253906 34.070312-34.070313zm0 0"/><path d="m256 389.636719v-68.140625c-18.816406 0-34.070312 15.253906-34.070312 34.070312s15.253906 34.070313 34.070312 34.070313zm0 0"/><path d="m176.878906 290.21875c0 18.816406-15.253906 34.070312-34.070312 34.070312s-34.070313-15.253906-34.070313-34.070312c0-18.820312 15.253907-34.074219 34.070313-34.074219s34.070312 15.253907 34.070312 34.074219zm0 0"/><path d="m224.71875 338.058594c0 18.816406-15.253906 34.070312-34.070312 34.070312-18.816407 0-34.070313-15.253906-34.070313-34.070312 0-18.820313 15.253906-34.074219 34.070313-34.074219 18.816406 0 34.070312 15.253906 34.070312 34.074219zm0 0"/><path d="m91.226562 224.867188 34.070313-8.515626 34.070313 8.515626c0 18.816406-15.253907 34.070312-34.070313 34.070312s-34.070313-15.253906-34.070313-34.070312zm0 0"/></g><path d="m256 128.234375v-68.140625c-18.816406 0-34.070312 15.253906-34.070312 34.070312 0 18.816407 15.253906 34.070313 34.070312 34.070313zm0 0" fill="#f9d4a0"/><path d="m224.71875 111.675781c0 18.816407-15.253906 34.070313-34.070312 34.070313-18.816407 0-34.070313-15.253906-34.070313-34.070313 0-18.816406 15.253906-34.070312 34.070313-34.070312 18.816406 0 34.070312 15.253906 34.070312 34.070312zm0 0" fill="#f9d4a0"/><path d="m176.878906 159.515625c0 18.816406-15.253906 34.070313-34.070312 34.070313s-34.070313-15.253907-34.070313-34.070313 15.253907-34.070313 34.070313-34.070313 34.070312 15.253907 34.070312 34.070313zm0 0" fill="#f9d4a0"/><path d="m159.367188 224.867188h-68.140626c0-18.816407 15.253907-34.070313 34.070313-34.070313s34.070313 15.253906 34.070313 34.070313zm0 0" fill="#f9d4a0"/></svg>