<svg height="512pt" viewBox="0 0 512 512" width="512pt" xmlns="http://www.w3.org/2000/svg"><path d="m512 256c0 141.386719-114.613281 256-256 256s-256-114.613281-256-256 114.613281-256 256-256 256 114.613281 256 256zm0 0" fill="#f0651f"/><path d="m512 256c0-9.8125-.570312-19.492188-1.648438-29.019531l-104.648437-104.648438-293.992187 109.9375 43.894531 43.285157-23.28125 127.113281 108.894531 108.894531c4.894531.28125 9.816406.4375 14.78125.4375 141.386719 0 256-114.613281 256-256zm0 0" fill="#af2b12"/><path d="m208.671875 337.011719v65.65625h-38.175781l-13.738282-65.65625zm0 0" fill="#967151"/><path d="m208.671875 232.269531v104.742188l-38.175781 38.171875-13.738282-84.511719 13.738282-72.144531zm0 0" fill="#cb9851"/><path d="m170.496094 218.527344v184.140625h-38.171875v-170.398438zm0 0" fill="#ffc052"/><path d="m379.675781 232.269531v170.398438h-38.171875l-20.613281-92.070313 20.613281-92.070312zm0 0" fill="#967151"/><path d="m303.328125 262.96875 13.742187 69.847656-13.742187 69.851563h-38.175781v-101.523438zm0 0" fill="#ffc052"/><path d="m341.503906 218.527344v184.140625h-38.175781v-170.398438zm0 0" fill="#cb9851"/><path d="m414.03125 163.816406-13.742188 68.453125h-229.792968v-75.324219zm0 0" fill="#624950"/><path d="m303.328125 191.042969h20.613281v20.613281h-20.613281zm0 0" fill="#967151"/><path d="m170.496094 156.945312v75.324219h-58.785156l-13.742188-68.453125zm0 0" fill="#967151"/><path d="m405.703125 122.332031 8.328125 41.488281h-41.226562l-10.304688 6.871094-10.308594-6.871094h-181.695312l-43.03125-20.742187 1.546875-20.746094zm0 0" fill="#cb9851"/><path d="m352.191406 163.816406h20.613282v20.613282h-20.613282zm0 0" fill="#967151"/><path d="m170.496094 163.820312h-72.527344l8.328125-41.488281h22.714844zm0 0" fill="#ffc052"/></svg>