<svg height="512pt" viewBox="0 0 512 512" width="512pt" xmlns="http://www.w3.org/2000/svg"><path d="m512 256c0 141.386719-114.613281 256-256 256s-256-114.613281-256-256 114.613281-256 256-256 256 114.613281 256 256zm0 0" fill="#66dbbf"/><path d="m506.046875 311.050781-198.46875-204.550781-175.570313 299 105.851563 105.851562c5.992187.421876 12.039063.648438 18.140625.648438 122.484375 0 224.859375-86.023438 250.046875-200.949219zm0 0" fill="#5cae96"/><path d="m106.5 213.75 25.507812 191.75h72.414063l32.5-149.5-32.5-149.5zm0 0" fill="#f0651f"/><path d="m149.628906 196.199219h14.949219v14.949219h-14.949219zm0 0" fill="#c53e16"/><path d="m405.5 213.75-25.507812 191.75h-175.570313v-42.25l19.5-58.5-19.5-58.5zm0 0" fill="#893a31"/><path d="m307.578125 106.5 97.921875 107.25-58.078125 32.5-71.5 19.5-71.5-19.5 13-30.550781-13-40.941407v-68.257812zm0 0" fill="#c53e16"/><path d="m347.421875 200.757812v45.492188l-26 26v-71.492188c0-7.175781 5.824219-13.007812 12.992187-13.007812 7.179688 0 13.007813 5.832031 13.007813 13.007812zm0 0" fill="#ffc052"/><path d="m310.105469 174.75v91l-26-19.5v-71.5c0-7.164062 5.824219-13 13-13 7.164062 0 13 5.835938 13 13zm0 0" fill="#ffc052"/><path d="m230.421875 292.542969-26 70.707031c-21.449219 0-39.84375-17.550781-39.84375-39l.007813-84.449219c0-7.175781 5.824218-13.003906 12.992187-13.003906 7.175781 0 13.007813 5.828125 13.007813 13.003906v52.742188zm0 0" fill="#f9d4a0"/><path d="m270.261719 161.75v110.5l-26-26v-84.5c0-7.164062 5.832031-13 13-13 7.164062 0 13 5.835938 13 13zm0 0" fill="#ffc052"/><path d="m230.421875 174.757812v97.492188l-26-26v-71.492188c0-7.175781 5.824219-13.007812 12.992187-13.007812 7.179688 0 13.007813 5.832031 13.007813 13.007812zm0 0" fill="#ffc052"/><path d="m204.421875 246.25v117h107.242187c19.664063 0 35.75-17.550781 35.75-39l.007813-78zm0 0" fill="#cb9851"/><g fill="#893a31"><path d="m312.972656 302.800781h14.949219v14.949219h-14.949219zm0 0"/><path d="m293.472656 328.800781h14.949219v14.949219h-14.949219zm0 0"/></g></svg>