<svg height="512pt" viewBox="0 0 512 512" width="512pt" xmlns="http://www.w3.org/2000/svg"><path d="m512 256c0 141.386719-114.613281 256-256 256s-256-114.613281-256-256 114.613281-256 256-256 256 114.613281 256 256zm0 0" fill="#762916"/><path d="m512 256c0-7.789062-.367188-15.492188-1.050781-23.105469l-126.890625-126.894531-58.695313 56.667969-40.882812-40.875-130.453125-15.792969-26.085938 300 104.953125 104.949219c7.613281.683593 15.316407 1.050781 23.105469 1.050781 141.386719 0 256-114.613281 256-256zm0 0" fill="#3c261b"/><path d="m212.726562 184.261719v31.332031l19.5625 37.941406v-69.273437zm0 0" fill="#ffc052"/><path d="m299.515625 215.59375-19.566406 37.941406v-69.273437h19.328125zm0 0" fill="#faa241"/><path d="m246.339844 184.261719h19.5625v78.261719h-19.5625zm0 0" fill="#faa241"/><path d="m299.515625 215.59375v46.078125l-43.394531 41.3125-6.523438-26.300781 6.523438-26.300782zm0 0" fill="#ffc052"/><path d="m256.121094 250.382812v52.601563l-43.394532-41.3125v-46.078125zm0 0" fill="#f9d4a0"/><path d="m299.515625 261.671875v46.074219l-43.394531 41.316406-6.523438-26.300781 6.523438-26.300781zm0 0" fill="#faa241"/><path d="m256.121094 296.460938v52.601562l-43.394532-41.316406v-46.074219zm0 0" fill="#ffc052"/><path d="m299.515625 307.746094v46.078125l-43.394531 34.792969-6.523438-23.039063 6.523438-23.039063zm0 0" fill="#ffc052"/><path d="m256.121094 342.539062v46.078126l-43.394532-34.792969v-46.078125zm0 0" fill="#f9d4a0"/><path d="m177.859375 125.566406h95.328125v32.609375h-95.328125zm0 0" fill="#cb9851"/><path d="m186.636719 184.261719v221.738281h-29.347657l-19.5625-125.109375 19.5625-125.109375zm0 0" fill="#da521b"/><path d="m157.289062 155.78125v250.21875h-29.347656v-221.738281zm0 0" fill="#f0651f"/><path d="m247.101562 106h-93.074218c-14.347656 0-26.085938 11.738281-26.085938 26.085938v52.175781h58.695313v-52.175781h60.464843c14.378907 0 26.085938 11.699218 26.085938 26.089843h26.085938c0-28.816406-23.359376-52.175781-52.171876-52.175781zm0 0" fill="#ffc052"/><path d="m354.710938 356.21875-19.566407-125.109375 19.566407-125.109375h29.347656v221.738281zm0 0" fill="#c53e16"/><path d="m325.363281 327.738281v-221.738281h29.347657v250.21875zm0 0" fill="#da521b"/><path d="m238.8125 353.824219h95.328125v32.609375h-95.328125zm0 0" fill="#967151"/><path d="m325.363281 327.738281v52.175781h-60.464843c-14.378907 0-26.085938-11.699218-26.085938-26.089843h-26.085938c0 28.816406 23.359376 52.175781 52.171876 52.175781h93.074218c14.347656 0 26.085938-11.738281 26.085938-26.085938v-52.175781zm0 0" fill="#cb9851"/></svg>