<svg height="512pt" viewBox="0 0 512 512" width="512pt" xmlns="http://www.w3.org/2000/svg"><path d="m512 256c0 141.386719-114.613281 256-256 256s-256-114.613281-256-256 114.613281-256 256-256 256 114.613281 256 256zm0 0" fill="#762916"/><path d="m502.4375 325.535156-81.929688-81.929687-99.933593-41.675781-29.96875-49.21875c-.222657-.230469-47.34375-47.351563-47.683594-47.679688-4.691406-4.957031-54.515625 309.96875-54.515625 309.96875l95.480469 95.480469c104.839843-11.359375 190.6875-85.996094 218.550781-184.945313zm0 0" fill="#3c261b"/><path d="m347.394531 243.046875-11.894531 16.988281 20.953125 14.667969 11.894531-16.988281-4.425781-14.851563zm0 0" fill="#da521b"/><path d="m371.183594 209.070312-13.691406 2.769532 1.796874 14.21875 15.035157 23.121094 17.8125-25.4375zm0 0" fill="#ffc052"/><path d="m425.601562 272.492188-51.277343-23.3125 17.8125-25.4375 28.371093 19.863281zm0 0" fill="#f9d4a0"/><path d="m359.289062 226.058594-13.167968 6.167968 1.273437 10.824219 66.308594 46.429688 11.898437-16.988281zm0 0" fill="#cb9851"/><path d="m230.898438 152.765625 43.453124 13.820313 14.214844-2.070313-2.320312-14.921875-35.625-24.941406zm0 0" fill="#ffc052"/><path d="m238.726562 141.640625-11.894531 16.988281 23.792969 16.660156-.03125 8.285157h11.859375l11.898437-16.988281zm0 0" fill="#cb9851"/><path d="m262.457031 183.574219-11.835937-8.289063v-50.632812c0-15.210938-11.664063-27.652344-25.921875-27.652344h-5.183594l-20.742187 159 20.742187 159h31.105469v-214.527344l12.398437-4.097656zm0 0" fill="#da521b"/><path d="m188.40625 97h31.109375v318h-31.109375zm0 0" fill="#f0651f"/><path d="m267.519531 212.496094-16.898437-12.023438 35.59375-50.832031 16.988281 11.894531-10.898437 32.351563zm0 0" fill="#ffebcf"/><path d="m284.507812 224.394531-16.988281-11.898437 35.683594-50.960938 16.988281 11.894532-10.441406 31.699218zm0 0" fill="#f9d4a0"/><path d="m301.496094 236.289062-16.988282-11.894531 35.683594-50.964843 16.988282 11.894531-10.679688 32.039062zm0 0" fill="#ffebcf"/><path d="m318.484375 248.183594-16.988281-11.894532 35.683594-50.964843 16.988281 11.898437-10.480469 31.753906zm0 0" fill="#f9d4a0"/><path d="m354.179688 197.238281 16.988281 11.894531-35.683594 50.96875-16.992187-11.898437zm0 0" fill="#ffebcf"/></svg>