<svg height="512pt" viewBox="0 0 512 512" width="512pt" xmlns="http://www.w3.org/2000/svg"><path d="m512 256c0 141.386719-114.613281 256-256 256s-256-114.613281-256-256 114.613281-256 256-256 256 114.613281 256 256zm0 0" fill="#762916"/><path d="m508.328125 299.34375-153.980469-153.980469-244.433594 75.855469 43.257813 42.777344-7.78125 152.003906 95.546875 95.546875c4.988281.289063 10.003906.453125 15.0625.453125 126.609375 0 231.734375-91.917969 252.328125-212.65625zm0 0" fill="#3c261b"/><path d="m249.042969 233.394531h103.652343v106.082031h-103.652343zm0 0" fill="#f58330"/><path d="m256 332.523438-13.914062 10.433593 13.914062 10.433594h96.695312v-20.867187zm0 0" fill="#f0651f"/><path d="m256 276.871094-13.914062 10.433594 13.914062 10.433593h96.695312v-20.867187zm0 0" fill="#f0651f"/><path d="m352.695312 214.261719v27.824219h-96.695312l-13.914062-13.910157 13.914062-13.914062zm0 0" fill="#f0651f"/><path d="m159.304688 233.394531h96.695312v106.082031h-96.695312zm0 0" fill="#faa241"/><g fill="#f58330"><path d="m159.304688 332.523438h96.695312v20.867187h-96.695312zm0 0"/><path d="m159.304688 276.871094h96.695312v20.867187h-96.695312zm0 0"/><path d="m159.304688 214.261719h96.695312v27.824219h-96.695312zm0 0"/></g><path d="m212.40625 214.261719h20.171875v201.738281h-20.171875zm0 0" fill="#f0651f"/><path d="m145.390625 214.261719h20.175781v201.738281h-20.175781zm0 0" fill="#f0651f"/><path d="m346.433594 214.261719h20.175781v201.738281h-20.175781zm0 0" fill="#da521b"/><path d="m279.421875 214.261719h20.171875v201.738281h-20.171875zm0 0" fill="#da521b"/><path d="m256 96-20.871094 62.609375 20.871094 62.609375h146.085938c-24.917969-67.960938-80.195313-117.335938-146.085938-125.21875zm0 0" fill="#faa241"/><path d="m109.914062 221.21875h146.085938v-125.21875c-65.890625 7.882812-121.167969 57.257812-146.085938 125.21875zm0 0" fill="#ffc052"/><path d="m214.261719 179.476562h20.871093v20.871094h-20.871093zm0 0" fill="#faa241"/><path d="m186.433594 144.695312h20.871094v20.871094h-20.871094zm0 0" fill="#faa241"/></svg>