<svg height="512pt" viewBox="0 0 512 512" width="512pt" xmlns="http://www.w3.org/2000/svg"><path d="m512 256c0 141.386719-114.613281 256-256 256s-256-114.613281-256-256 114.613281-256 256-256 256 114.613281 256 256zm0 0" fill="#f0651f"/><path d="m505.9375 311.558594-140.851562-140.847656-271.242188 84.28125 21.148438 20v121.007812l114.660156 114.65625c8.660156.886719 17.453125 1.34375 26.347656 1.34375 122.304688 0 224.558594-85.773438 249.9375-200.441406zm0 0" fill="#af2b12"/><path d="m397.457031 247.941406v148.058594h-84.828125l-56.628906-119.855469-14.101562-28.203125zm0 0" fill="#ffc052"/><path d="m256 247.941406v28.203125l-56.175781 119.855469h-84.832031v-148.058594zm0 0" fill="#f9d4a0"/><path d="m305.578125 283.195312-14.101563 112.804688h-35.476562l-21.152344-112.804688zm0 0" fill="#3c261b"/><path d="m256 283.195312v112.804688h-35.027344l-14.101562-112.804688zm0 0" fill="#762916"/><path d="m185.722656 276.144531h141.007813v24.675781h-141.007813zm0 0" fill="#967151"/><path d="m199.824219 300.820312h21.148437v95.179688h-21.148437zm0 0" fill="#cb9851"/><path d="m291.476562 300.820312h21.152344v95.179688h-21.152344zm0 0" fill="#cb9851"/><path d="m256 116-28.199219 69.496094 28.199219 69.496094h162.15625c-27.65625-75.433594-89.015625-130.242188-162.15625-138.992188zm0 0" fill="#faa241"/><path d="m93.84375 254.992188h162.15625v-138.992188c-73.140625 8.75-134.5 63.558594-162.15625 138.992188zm0 0" fill="#ffc052"/><path d="m207.546875 212.691406h21.148437v21.152344h-21.148437zm0 0" fill="#faa241"/><path d="m179.34375 177.4375h21.152344v21.152344h-21.152344zm0 0" fill="#faa241"/><path d="m311.503906 177.4375h21.152344v21.152344h-21.152344zm0 0" fill="#ffc052"/></svg>