<svg height="512pt" viewBox="0 0 512 512" width="512pt" xmlns="http://www.w3.org/2000/svg"><path d="m512 256c0 141.386719-114.613281 256-256 256s-256-114.613281-256-256 114.613281-256 256-256 256 114.613281 256 256zm0 0" fill="#f0651f"/><path d="m512 256c0-1.117188-.027344-2.230469-.042969-3.347656l-162.320312-162.320313-187.273438 21.609375 14.40625 14 25.566407 32.40625-49.644532 263.316406 89.988282 89.992188c4.414062.226562 8.851562.339844 13.320312.339844 141.386719.003906 256-114.609375 256-255.996094zm0 0" fill="#af2b12"/><path d="m335.230469 104.738281v53.613281l-79.230469 21.609376-21.609375-75.222657zm0 0" fill="#624950"/><path d="m256 104.738281v75.222657l-79.230469-21.609376v-53.613281zm0 0" fill="#967151"/><path d="m256 274.007812-21.609375-57.828124 21.609375-57.828126h79.230469c43.21875 20.921876 72.03125 58.433594 72.03125 101.25zm0 0" fill="#967151"/><path d="m256 158.351562v115.65625l-151.261719-14.40625c0-42.816406 28.8125-80.328124 72.03125-101.25zm0 0" fill="#cb9851"/><path d="m212.914062 216.382812h21.609376v21.609376h-21.609376zm0 0" fill="#967151"/><path d="m256 259.601562h151.261719c0 10.21875-1.644531 20.136719-4.734375 29.601563l-43.214844 132.460937h-103.3125l-21.609375-81.03125zm0 0" fill="#624950"/><path d="m256 259.601562v162.0625h-103.3125l-43.214844-132.460937c-3.089844-9.464844-4.734375-19.382813-4.734375-29.601563zm0 0" fill="#967151"/><path d="m198.378906 360.441406h21.605469v21.609375h-21.605469zm0 0" fill="#624950"/><path d="m162.363281 324.429688h21.609375v21.605468h-21.609375zm0 0" fill="#624950"/><path d="m342.433594 281.210938h21.609375v21.609374h-21.609375zm0 0" fill="#967151"/><path d="m349.636719 90.332031v21.609375h-93.636719l-14.40625-10.804687 14.40625-10.804688zm0 0" fill="#3c261b"/><path d="m162.363281 90.332031h93.636719v21.609375h-93.636719zm0 0" fill="#624950"/></svg>