<svg height="512pt" viewBox="0 0 512 512" width="512pt" xmlns="http://www.w3.org/2000/svg"><path d="m512 256c0 141.386719-114.613281 256-256 256s-256-114.613281-256-256 114.613281-256 256-256 256 114.613281 256 256zm0 0" fill="#66dbbf"/><path d="m486.359375 367.78125-271.542969-271.78125-58.199218 199.015625 23.679687 23.699219-61.222656 75.386718 117.148437 117.144532c6.527344.5 13.121094.753906 19.777344.753906 101.304688 0 188.859375-58.847656 230.359375-144.21875zm0 0" fill="#5cae96"/><path d="m243.253906 339.5625c0 30.703125 24.890625 55.589844 55.59375 55.589844h61.386719c30.703125 0 55.59375-24.886719 55.59375-55.589844l-86.289063-13.898438zm0 0" fill="#967151"/><path d="m96.175781 339.5625c0 42.214844 34.222657 76.4375 76.4375 76.4375h84.410157c42.214843 0 76.4375-34.222656 76.4375-76.4375l-118.644532-6.949219zm0 0" fill="#cb9851"/><path d="m281.734375 185.5625c10.351563 13.890625 16.46875 31.113281 16.46875 49.765625 0 46.050781-37.335937 83.386719-83.386719 83.386719l-13.898437-111.355469 13.898437-111.359375zm0 0" fill="#f0651f"/><path d="m214.816406 318.714844c-46.050781 0-83.386718-37.335938-83.386718-83.390625 0-18.652344 6.117187-35.871094 16.46875-49.761719l66.917968-89.5625zm0 0" fill="#f58330"/><path d="m252.210938 223.574219c5.988281 8.035156 9.160156 17.636719 9.160156 27.738281 0 25.671875-20.886719 46.554688-46.554688 46.554688l-20.847656-62.167969 20.847656-62.171875zm0 0" fill="#ffc052"/><path d="m214.816406 173.53125v124.335938c-25.667968 0-46.550781-20.882813-46.550781-46.554688 0-10.101562 3.167969-19.703125 9.179687-27.769531zm0 0" fill="#f9d4a0"/><path d="m200.917969 251.3125h27.796875v74.351562h-27.796875zm0 0" fill="#ffebcf"/><path d="m415.824219 318.714844v20.847656h-201.007813l-13.898437-10.425781 13.898437-10.421875zm0 0" fill="#624950"/><path d="m96.175781 318.714844h118.640625v20.847656h-118.640625zm0 0" fill="#967151"/></svg>