<svg height="512pt" viewBox="0 0 512 512" width="512pt" xmlns="http://www.w3.org/2000/svg"><path d="m512 256c0 141.386719-114.613281 256-256 256s-256-114.613281-256-256 114.613281-256 256-256 256 114.613281 256 256zm0 0" fill="#66dbbf"/><path d="m512 256c0-7.195312-.3125-14.316406-.894531-21.363281l-116.371094-116.371094-231.378906 34.878906-45.089844 241.589844 116.371094 116.371094c7.046875.582031 14.167969.894531 21.363281.894531 141.386719 0 256-114.613281 256-256zm0 0" fill="#5cae96"/><path d="m298.5 256 72.25-34 72.25 34c0 103.285156-83.71875 187-187 187l-34-72.25 34-72.25c23.476562 0 42.5-19.023438 42.5-42.5zm0 0" fill="#da521b"/><path d="m256 69c-103.285156 0-187 83.71875-187 187s83.714844 187 187 187v-144.5c-23.476562 0-42.5-19.023438-42.5-42.5v-42.5h42.5c23.476562 0 42.5 19.023438 42.5 42.5h144.5c0-103.28125-83.714844-187-187-187zm0 0" fill="#f0651f"/><path d="m375 256c0 65.621094-53.378906 119-119 119l-8.5 11.621094 8.5 13.878906c79.679688 0 144.5-64.820312 144.5-144.5zm0 0" fill="#af2b12"/><path d="m336.75 247.5-12.75 8.5c0 37.492188-30.507812 68-68 68v25.5c51.554688 0 93.5-41.949219 93.5-93.5zm0 0" fill="#af2b12"/><path d="m137 256h-25.5c0 79.679688 64.820312 144.5 144.5 144.5v-25.5c-65.621094 0-119-53.378906-119-119zm0 0" fill="#c53e16"/><g fill="#f58330"><path d="m256 213.5v-25.5c-37.492188 0-68 30.507812-68 68h25.5c0-23.46875 19.03125-42.5 42.5-42.5zm0 0"/><path d="m256 162.5v-25.5c-65.621094 0-119 53.378906-119 119h25.5c0-51.550781 41.945312-93.5 93.5-93.5zm0 0"/><path d="m256 111.5v-25.5c-93.738281 0-170 76.261719-170 170h25.5c0-79.679688 64.820312-144.5 144.5-144.5zm0 0"/></g><path d="m256 162.5v25.5c37.492188 0 68 30.507812 68 68h25.5c0-51.550781-41.945312-93.5-93.5-93.5zm0 0" fill="#c53e16"/><path d="m426 256h25.5c0-107.976562-87.523438-195.5-195.5-195.5l-8.5 12.75 8.5 12.75c93.738281 0 170 76.261719 170 170zm0 0" fill="#c53e16"/><path d="m426 256c0 93.738281-76.261719 170-170 170l-8.5 12.75 8.5 12.75c107.976562 0 195.5-87.523438 195.5-195.5zm0 0" fill="#af2b12"/><path d="m86 256h-25.5c0 107.976562 87.523438 195.5 195.5 195.5v-25.5c-93.738281 0-170-76.261719-170-170zm0 0" fill="#c53e16"/><path d="m256 86v-25.5c-107.976562 0-195.5 87.523438-195.5 195.5h25.5c0-93.738281 76.261719-170 170-170zm0 0" fill="#f0651f"/></svg>