<svg height="512pt" viewBox="0 0 512 512" width="512pt" xmlns="http://www.w3.org/2000/svg"><path d="m512 256c0 141.386719-114.613281 256-256 256s-256-114.613281-256-256 114.613281-256 256-256 256 114.613281 256 256zm0 0" fill="#762916"/><path d="m512 256c0-1.65625-.03125-3.304688-.0625-4.949219l-177.046875-177.046875-24.914063 30-29.0625-30-49.828124 124.5625-8.304688 124.566406-63.277344 64.277344 123.203125 123.207032c128.832031-13.355469 229.292969-122.253907 229.292969-254.617188zm0 0" fill="#3c261b"/><path d="m256 439.390625-24.914062-8.304687v-357.082032h24.914062l16.609375 182.691406zm0 0" fill="#cb9851"/><path d="m256 74.003906v357.082032h-24.914062l24.914062 24.914062 24.914062-24.914062v-357.082032zm0 0" fill="#967151"/><path d="m289.21875 298.21875-33.21875-16.609375-33.21875 16.609375v33.21875h66.4375zm0 0" fill="#c53e16"/><path d="m289.21875 273.304688-33.21875-16.609376-33.21875 16.609376v24.914062h66.4375zm0 0" fill="#893a31"/><path d="m289.21875 248.394531-33.21875-16.609375-33.21875 16.609375v24.910157h66.4375zm0 0" fill="#c53e16"/><path d="m289.21875 223.480469-33.21875-16.609375-33.21875 16.609375v24.914062h66.4375zm0 0" fill="#893a31"/><path d="m309.976562 74.003906v103.804688c0 11.445312-9.3125 20.757812-20.757812 20.757812h-66.4375v24.914063h66.4375c25.183594 0 45.671875-20.488281 45.671875-45.671875v-103.804688zm0 0" fill="#c53e16"/><path d="m148.042969 360.5 107.957031-16.609375 107.957031 16.609375c0 20.636719-16.734375 37.371094-37.371093 37.371094h-141.171876c-20.636718 0-37.371093-16.734375-37.371093-37.371094zm0 0" fill="#ffc052"/><path d="m363.957031 360.5h-215.914062c0-20.636719 16.734375-37.367188 37.371093-37.367188h141.171876c20.636718 0 37.371093 16.730469 37.371093 37.367188zm0 0" fill="#f9d4a0"/></svg>