<svg height="512pt" viewBox="0 0 512 512" width="512pt" xmlns="http://www.w3.org/2000/svg"><path d="m512 256c0 141.386719-114.613281 256-256 256s-256-114.613281-256-256 114.613281-256 256-256 256 114.613281 256 256zm0 0" fill="#f0651f"/><path d="m511.304688 274.863281-160.039063-160.039062-214.351563 58.175781 36.730469 36.6875-18.6875 212.3125 89.738281 89.738281c3.75.164063 7.515626.261719 11.304688.261719 135.039062 0 245.648438-104.558594 255.304688-237.136719zm0 0" fill="#af2b12"/><path d="m256 313.738281-7.21875 14.4375 7.21875 14.433594h7.21875v79.390625h21.648438v-79.390625h14.4375v79.390625h21.652343v-79.390625h14.433594v79.390625h21.652344v-101.042969zm0 0" fill="#ffc052"/><path d="m292.085938 90h-36.085938l-7.21875 30.675781 7.21875 30.671875c11.9375 0 21.652344 9.714844 21.652344 21.652344s-9.714844 21.652344-21.652344 21.652344l-7.21875 55.933594 7.21875 55.9375 101.042969-7.21875v-126.304688h18.042969c0-45.835938-37.160157-83-83-83zm0 0" fill="#ffc052"/><path d="m234.347656 173c0-11.9375 9.714844-21.652344 21.652344-21.652344v-61.347656h-36.085938c-45.839843 0-83 37.164062-83 83h18.042969v126.304688l101.042969 7.21875v-111.871094c-11.9375 0-21.652344-9.714844-21.652344-21.652344zm0 0" fill="#f9d4a0"/><path d="m154.957031 320.957031v101.042969h21.652344v-79.390625h14.433594v79.390625h21.652343v-79.390625h14.433594v79.390625h21.652344v-79.390625h7.21875v-28.871094zm0 0" fill="#f9d4a0"/><path d="m357.042969 299.304688v21.652343h-101.042969l-14.433594-10.828125 14.433594-10.824218zm0 0" fill="#cb9851"/><path d="m154.957031 299.304688h101.042969v21.652343h-101.042969zm0 0" fill="#ffc052"/></svg>