<svg height="512pt" viewBox="0 0 512 512" width="512pt" xmlns="http://www.w3.org/2000/svg"><path d="m512 256c0 141.386719-114.613281 256-256 256s-256-114.613281-256-256 114.613281-256 256-256 256 114.613281 256 256zm0 0" fill="#762916"/><path d="m504.476562 317.777344-184.457031-184.460938-206.519531 81.605469 115 114.621094-115 61.957031 119.457031 119.457031c7.59375.675781 15.273438 1.042969 23.042969 1.042969 120.082031 0 220.835938-82.6875 248.476562-194.222656zm0 0" fill="#3c261b"/><path d="m256 106.5c49.613281 0 89.835938 40.222656 89.835938 89.835938 0 49.617187-40.222657 89.835937-89.835938 89.835937zm0 0" fill="#cb9851"/><path d="m256 106.5c-43.242188 0-79.34375 30.554688-87.90625 71.25h-54.59375v37.175781h54.59375c8.5625 40.695313 44.664062 71.25 87.90625 71.25zm0 0" fill="#ffc052"/><path d="m175.457031 329.542969 12.390625 30.976562-37.171875 12.394531-37.175781-12.394531 12.390625-30.976562zm0 0" fill="#ffc052"/><path d="m256 125.085938c39.285156 0 71.25 31.964843 71.25 71.25l-83.640625 12.390624zm0 0" fill="#624950"/><path d="m327.25 196.335938h-83.640625l12.390625 139.402343h18.585938v-70.617187c30.304687-8.195313 52.664062-35.925782 52.664062-68.785156zm0 0" fill="#f0651f"/><path d="m220.375 183.945312-35.625 12.390626c0 32.859374 22.359375 60.589843 52.664062 68.785156v70.617187h18.585938v-139.402343zm0 0" fill="#f58330"/><path d="m256 125.085938v71.25h-71.25c0-39.285157 31.964844-71.25 71.25-71.25zm0 0" fill="#967151"/><path d="m386.109375 329.542969 12.390625 30.976562-154.890625 6.199219 12.390625-37.175781zm0 0" fill="#967151"/><path d="m256 329.542969v37.175781l-68.152344-6.199219-12.390625-30.976562zm0 0" fill="#cb9851"/><path d="m398.5 360.519531v30.980469h-142.5l-12.390625-15.488281 12.390625-15.492188zm0 0" fill="#624950"/><path d="m113.5 360.519531h142.5v30.980469h-142.5zm0 0" fill="#967151"/></svg>