<svg height="512pt" viewBox="0 0 512 512" width="512pt" xmlns="http://www.w3.org/2000/svg"><path d="m512 256c0 141.386719-114.613281 256-256 256s-256-114.613281-256-256 114.613281-256 256-256 256 114.613281 256 256zm0 0" fill="#f0651f"/><path d="m512 256c0-7.195312-.3125-14.316406-.894531-21.363281l-116.371094-116.371094-231.378906 34.878906-45.089844 241.589844 116.371094 116.371094c7.046875.582031 14.167969.894531 21.363281.894531 141.386719 0 256-114.613281 256-256zm0 0" fill="#af2b12"/><path d="m256 60.5c107.976562 0 195.5 87.523438 195.5 195.5s-87.523438 195.5-195.5 195.5l-42.5-195.5zm0 0" fill="#66dbbf"/><path d="m256 86c93.890625 0 170 76.109375 170 170s-76.109375 170-170 170l-25.5-170zm0 0" fill="#51816d"/><path d="m256 451.5c-107.976562 0-195.5-87.523438-195.5-195.5s87.523438-195.5 195.5-195.5zm0 0" fill="#a3e9d9"/><path d="m256 86v340c-93.890625 0-170-76.109375-170-170s76.109375-170 170-170zm0 0" fill="#5cae96"/><path d="m256 192.25-25.5 63.75 25.5 63.75c35.152344 0 63.75-28.597656 63.75-63.75s-28.597656-63.75-63.75-63.75zm0 0" fill="#5cae96"/><path d="m192.25 256c0 35.152344 28.597656 63.75 63.75 63.75v-127.5c-35.152344 0-63.75 28.597656-63.75 63.75zm0 0" fill="#66dbbf"/><path d="m256 217.75-25.5 38.25 25.5 38.25c21.125 0 38.25-17.125 38.25-38.25s-17.125-38.25-38.25-38.25zm0 0" fill="#a3e9d9"/><path d="m217.75 256c0 21.125 17.125 38.25 38.25 38.25v-76.5c-21.125 0-38.25 17.125-38.25 38.25zm0 0" fill="#ffebcf"/><path d="m256 111.5-8.5 17 8.5 17c9.390625 0 17-7.609375 17-17s-7.609375-17-17-17zm0 0" fill="#a3e9d9"/><g fill="#ffebcf"><path d="m239 128.5c0 9.390625 7.609375 17 17 17v-34c-9.390625 0-17 7.609375-17 17zm0 0"/><path d="m209.25 145.582031c0 9.390625-7.609375 17-17 17s-17-7.609375-17-17 7.609375-17 17-17 17 7.609375 17 17zm0 0"/><path d="m162.582031 192.25c0 9.390625-7.609375 17-17 17s-17-7.609375-17-17 7.609375-17 17-17 17 7.609375 17 17zm0 0"/><path d="m145.5 256c0 9.390625-7.609375 17-17 17s-17-7.609375-17-17 7.609375-17 17-17 17 7.609375 17 17zm0 0"/><path d="m162.582031 319.75c0 9.390625-7.609375 17-17 17s-17-7.609375-17-17 7.609375-17 17-17 17 7.609375 17 17zm0 0"/><path d="m209.25 366.417969c0 9.390625-7.609375 17-17 17s-17-7.609375-17-17 7.609375-17 17-17 17 7.609375 17 17zm0 0"/></g><path d="m256 366.5-8.5 17 8.5 17c9.390625 0 17-7.609375 17-17s-7.609375-17-17-17zm0 0" fill="#a3e9d9"/><path d="m239 383.5c0 9.390625 7.609375 17 17 17v-34c-9.390625 0-17 7.609375-17 17zm0 0" fill="#ffebcf"/><path d="m336.75 366.417969c0 9.390625-7.609375 17-17 17s-17-7.609375-17-17 7.609375-17 17-17 17 7.609375 17 17zm0 0" fill="#a3e9d9"/><path d="m383.417969 319.75c0 9.390625-7.609375 17-17 17s-17-7.609375-17-17 7.609375-17 17-17 17 7.609375 17 17zm0 0" fill="#a3e9d9"/><path d="m400.5 256c0 9.390625-7.609375 17-17 17s-17-7.609375-17-17 7.609375-17 17-17 17 7.609375 17 17zm0 0" fill="#a3e9d9"/><path d="m383.417969 192.25c0 9.390625-7.609375 17-17 17s-17-7.609375-17-17 7.609375-17 17-17 17 7.609375 17 17zm0 0" fill="#a3e9d9"/><path d="m336.75 145.582031c0 9.390625-7.609375 17-17 17s-17-7.609375-17-17 7.609375-17 17-17 17 7.609375 17 17zm0 0" fill="#a3e9d9"/></svg>