<svg height="512pt" viewBox="0 0 512 512" width="512pt" xmlns="http://www.w3.org/2000/svg"><path d="m512 256c0 141.386719-114.613281 256-256 256s-256-114.613281-256-256 114.613281-256 256-256 256 114.613281 256 256zm0 0" fill="#762916"/><path d="m498.871094 337.113281-242.871094-243.113281-133.042969 306 111.050781 111.050781c7.25.617188 14.582032.949219 21.992188.949219 113.03125 0 208.945312-73.261719 242.871094-174.886719zm0 0" fill="#3c261b"/><path d="m290.699219 140.441406c5.367187 7.203125 8.539062 16.128906 8.539062 25.804688 0 23.878906-19.359375 43.238281-43.238281 43.238281l-13.304688-35.660156 13.304688-79.824219zm0 0" fill="#f0651f"/><path d="m256 209.484375c-23.878906 0-43.238281-19.359375-43.238281-43.238281 0-9.671875 3.171875-18.601563 8.539062-25.804688l34.699219-46.441406zm0 0" fill="#f58330"/><path d="m275.390625 160.152344c3.105469 4.164062 4.75 9.144531 4.75 14.382812 0 13.308594-10.828125 24.140625-24.140625 24.140625l-6.652344-24.847656 6.652344-39.625zm0 0" fill="#ffc052"/><path d="m256 134.203125v64.472656c-13.308594 0-24.140625-10.828125-24.140625-24.140625 0-5.238281 1.644531-10.21875 4.761719-14.398437zm0 0" fill="#f9d4a0"/><path d="m354.996094 207.085938 34.046875 192.914062h-133.042969l-39.914062-96.457031 39.914062-109.761719zm0 0" fill="#cb9851"/><g fill="#ffc052"><path d="m329.175781 320.175781h19.957031v19.957031h-19.957031zm0 0"/><path d="m329.175781 360.085938h19.957031v19.957031h-19.957031zm0 0"/><path d="m256 400h-133.042969l34.046875-192.914062 98.996094-13.304688zm0 0"/></g><path d="m176.960938 227.042969h19.953124v19.957031h-19.953124zm0 0" fill="#cb9851"/><path d="m354.910156 206.582031.085938.503907h-98.996094l-13.304688-16.628907 13.304688-16.632812h59.871094c18.292968 0 35.859375 14.742187 39.039062 32.757812zm0 0" fill="#967151"/><path d="m256 173.824219v33.261719h-98.996094l.085938-.503907c3.179687-18.015625 20.746094-32.757812 39.039062-32.757812zm0 0" fill="#cb9851"/><path d="m309.21875 320.175781-66.523438 13.300781 13.304688-66.519531c29.390625 0 53.21875 23.828125 53.21875 53.21875zm0 0" fill="#3c261b"/><path d="m309.21875 320.175781v40.863281h-53.21875l-13.304688-40.863281zm0 0" fill="#c53e16"/><path d="m256 320.175781v40.863281h-53.21875v-40.863281l26.609375-13.308593zm0 0" fill="#f0651f"/><path d="m256 266.957031v53.214844h-53.21875c0-29.386719 23.828125-53.214844 53.21875-53.214844zm0 0" fill="#762916"/></svg>