<?xml version="1.0" encoding="iso-8859-1"?>
<!-- Generator: Adobe Illustrator 19.0.0, SVG Export Plug-In . SVG Version: 6.00 Build 0)  -->
<svg xmlns="http://www.w3.org/2000/svg" xmlns:xlink="http://www.w3.org/1999/xlink" version="1.1" id="Capa_1" x="0px" y="0px" viewBox="0 0 512 512" style="enable-background:new 0 0 512 512;" xml:space="preserve">
<circle style="fill:#005ECE;" cx="256" cy="256" r="256"/>
<path style="fill:#00479B;" d="M512,256c0-34.302-6.763-67.019-19.002-96.915l-47.781-47.781H256H66.783v289.391h0.088l-0.088,0.065  l92.193,92.193C188.901,505.22,221.657,512,256,512C397.385,512,512,397.384,512,256z"/>
<rect x="66.783" y="111.304" style="fill:#FFDA44;" width="378.435" height="289.391"/>
<rect x="256" y="111.304" style="fill:#FFA733;" width="189.217" height="289.391"/>
<rect x="89.043" y="133.565" style="fill:#5EAC24;" width="333.913" height="244.87"/>
<rect x="256" y="133.565" style="fill:#4E901E;" width="166.957" height="244.87"/>
<polygon style="fill:#FFFFFF;" points="312.301,205.913 211.014,256 211.014,155.826 "/>
<polygon style="fill:#E1E3FA;" points="256.031,178.087 256.031,233.739 312.301,205.913 "/>
<g>
	<path style="fill:#FFFFFF;" d="M130.967,352.403v-74.142h31.954c3.62,0,6.961,0.749,10.025,2.245   c3.063,1.498,5.691,3.447,7.884,5.848c2.194,2.402,3.917,5.153,5.17,8.25c1.253,3.099,1.879,6.213,1.879,9.345   c0,3.273-0.592,6.459-1.775,9.555c-1.184,3.099-2.837,5.848-4.96,8.25c-2.125,2.401-4.7,4.318-7.728,5.743   c-3.029,1.427-6.353,2.14-9.972,2.14h-12.114v22.765L130.967,352.403L130.967,352.403z M151.33,311.886h10.756   c1.252,0,2.418-0.575,3.498-1.723c1.079-1.149,1.618-3.22,1.618-6.214c0-3.062-0.627-5.151-1.879-6.265   c-1.253-1.113-2.507-1.671-3.76-1.671h-10.233v15.873H151.33z"/>
	<path style="fill:#FFFFFF;" d="M196.024,352.403v-74.142h20.363v56.39h33.626v17.752H196.024z"/>
	<path style="fill:#FFFFFF;" d="M278.554,278.261h18.587l25.689,74.142h-20.676l-4.49-14.515h-19.736l-4.385,14.515h-20.781   L278.554,278.261z M294.426,324.312l-6.579-22.973l-6.892,22.973L294.426,324.312L294.426,324.312z"/>
	<path style="fill:#FFFFFF;" d="M332.058,278.261l13.262,32.059l13.575-32.059h22.138l-25.583,49.602v24.54h-20.258v-24.749   l-25.167-49.394H332.058z"/>
</g>
<g>
</g>
<g>
</g>
<g>
</g>
<g>
</g>
<g>
</g>
<g>
</g>
<g>
</g>
<g>
</g>
<g>
</g>
<g>
</g>
<g>
</g>
<g>
</g>
<g>
</g>
<g>
</g>
<g>
</g>
</svg>
