<?xml version="1.0" encoding="iso-8859-1"?>
<!-- Generator: Adobe Illustrator 19.0.0, SVG Export Plug-In . SVG Version: 6.00 Build 0)  -->
<svg version="1.1" id="Capa_1" xmlns="http://www.w3.org/2000/svg" xmlns:xlink="http://www.w3.org/1999/xlink" x="0px" y="0px"
	 viewBox="0 0 512 512" style="enable-background:new 0 0 512 512;" xml:space="preserve">
<circle style="fill:#733C82;" cx="256" cy="256" r="256"/>
<path style="fill:#4B285A;" d="M512,256c0-5.09-0.166-10.14-0.459-15.156L395.364,124.667L119.636,390.435l121.099,121.099
	C245.787,511.832,250.874,512,256,512C397.385,512,512,397.385,512,256z"/>
<circle style="fill:#FFEB50;" cx="256" cy="256" r="191.5"/>
<path style="fill:#F7D139;" d="M256,64.5c-0.016,0-0.032,0.001-0.048,0.001V447.5c0.016,0,0.032,0.001,0.048,0.001
	c105.762,0,191.5-85.738,191.5-191.5C447.5,150.237,361.762,64.5,256,64.5z"/>
<circle style="fill:#FFECB3;" cx="256" cy="256" r="131.33"/>
<path style="fill:#FFD863;" d="M256,124.667c-0.016,0-0.032,0.001-0.048,0.001v262.666c0.016,0,0.032,0,0.048,0
	c72.533,0,131.333-58.8,131.333-131.333S328.533,124.667,256,124.667z"/>
<rect x="232.17" y="178.33" style="fill:#FF9B32;" width="47.667" height="155.33"/>
<rect x="255.95" y="178.33" style="fill:#FF7D0A;" width="23.881" height="155.33"/>
<g>
</g>
<g>
</g>
<g>
</g>
<g>
</g>
<g>
</g>
<g>
</g>
<g>
</g>
<g>
</g>
<g>
</g>
<g>
</g>
<g>
</g>
<g>
</g>
<g>
</g>
<g>
</g>
<g>
</g>
</svg>
