<?xml version="1.0" encoding="iso-8859-1"?>
<!-- Generator: Adobe Illustrator 19.0.0, SVG Export Plug-In . SVG Version: 6.00 Build 0)  -->
<svg version="1.1" id="Capa_1" xmlns="http://www.w3.org/2000/svg" xmlns:xlink="http://www.w3.org/1999/xlink" x="0px" y="0px"
	 viewBox="0 0 512 512" style="enable-background:new 0 0 512 512;" xml:space="preserve">
<circle style="fill:#91CDFF;" cx="256" cy="256" r="256"/>
<g>
	<path style="fill:#1E8CE6;" d="M260.382,511.945c106.969-1.797,197.956-69.191,234.479-163.702L286.377,139.758L265,118.381v7.848
		l-24.69-24.69l-12.728,12.728L265,151.685v9.459l-40.188-40.188l-31.817,18L265,210.961L161.263,412.987L260.382,511.945z"/>
	<path style="fill:#1E8CE6;" d="M306.915,91.77l-5.87,4.01L265,59.735l-18,31.817l44.34,44.34l-4.153,3.065l208.118,208.118
		c6.434-16.896,11.138-34.644,13.878-53.036L306.915,91.77z"/>
</g>
<rect x="247" y="59.735" style="fill:#FFEB50;" width="18" height="31.817"/>
<g>
	<rect x="256" y="59.735" style="fill:#F7D139;" width="9" height="31.817"/>
	<rect x="287.19" y="120.96" style="fill:#F7D139;" width="31.817" height="18"/>
</g>
<g>
	<rect x="193" y="120.96" style="fill:#FFEB50;" width="31.817" height="18"/>
	
		<rect x="206.783" y="87.658" transform="matrix(-0.7071 -0.7071 0.7071 -0.7071 311.8109 322.4731)" style="fill:#FFEB50;" width="31.817" height="18"/>
</g>
<rect x="280.287" y="80.753" transform="matrix(-0.7071 -0.7071 0.7071 -0.7071 425.4937 369.5677)" style="fill:#F7D139;" width="18" height="31.817"/>
<rect x="247" y="118.38" style="fill:#666666;" width="18" height="71.29"/>
<g>
	<rect x="256" y="118.38" style="fill:#4D4D4D;" width="9" height="71.29"/>
	<rect x="220.52" y="163.46" style="fill:#4D4D4D;" width="70.967" height="37.634"/>
</g>
<g>
	<rect x="256" y="163.46" style="fill:#333333;" width="35.483" height="37.634"/>
	<circle style="fill:#333333;" cx="256" cy="318.02" r="134.14"/>
</g>
<path style="fill:#1A1A1A;" d="M256,183.887v268.276c74.082,0,134.138-60.056,134.138-134.138S330.082,183.887,256,183.887z"/>
<g>
</g>
<g>
</g>
<g>
</g>
<g>
</g>
<g>
</g>
<g>
</g>
<g>
</g>
<g>
</g>
<g>
</g>
<g>
</g>
<g>
</g>
<g>
</g>
<g>
</g>
<g>
</g>
<g>
</g>
</svg>
