<?xml version="1.0" encoding="iso-8859-1"?>
<!-- Generator: Adobe Illustrator 19.0.0, SVG Export Plug-In . SVG Version: 6.00 Build 0)  -->
<svg xmlns="http://www.w3.org/2000/svg" xmlns:xlink="http://www.w3.org/1999/xlink" version="1.1" id="Capa_1" x="0px" y="0px" viewBox="0 0 512 512" style="enable-background:new 0 0 512 512;" xml:space="preserve">
<circle style="fill:#005ECE;" cx="256" cy="256" r="256"/>
<path style="fill:#00479B;" d="M512,256c0-34.302-6.763-67.019-19.002-96.915l-47.781-47.781H256H66.783v289.391h0.088l-0.088,0.065  l92.193,92.193C188.901,505.22,221.657,512,256,512C397.385,512,512,397.384,512,256z"/>
<rect x="66.783" y="111.304" style="fill:#FFDA44;" width="378.435" height="289.391"/>
<rect x="256" y="111.304" style="fill:#FFA733;" width="189.217" height="289.391"/>
<rect x="89.043" y="133.565" style="fill:#FF3501;" width="333.913" height="244.87"/>
<rect x="256" y="133.565" style="fill:#C70024;" width="166.957" height="244.87"/>
<g>
	<path style="fill:#FFFFFF;" d="M163.834,239.123c-5.295,4.46-11.39,6.688-18.287,6.688c-4.806,0-9.405-0.853-13.794-2.56   c-4.388-1.706-8.221-4.196-11.494-7.471c-3.275-3.273-5.887-7.279-7.837-12.018c-1.951-4.737-2.926-10.136-2.926-16.197   c0-5.225,0.975-10.084,2.926-14.578c1.95-4.493,4.632-8.395,8.046-11.704c3.413-3.308,7.436-5.92,12.069-7.837   c4.632-1.916,9.63-2.874,14.996-2.874c3.344,0,6.547,0.365,9.613,1.097c3.064,0.731,5.904,1.812,8.516,3.24   c2.612,1.429,4.963,3.135,7.053,5.12c2.09,1.986,3.797,4.232,5.121,6.741l-15.152,11.599c-1.464-2.926-3.657-5.277-6.583-7.053   c-2.926-1.775-6.027-2.665-9.301-2.665c-2.439,0-4.668,0.489-6.688,1.464c-2.02,0.976-3.761,2.335-5.225,4.075   c-1.463,1.743-2.612,3.814-3.448,6.217c-0.836,2.403-1.254,5.034-1.254,7.889c0,2.926,0.419,5.575,1.254,7.943   c0.836,2.369,2.002,4.407,3.502,6.113c1.497,1.709,3.291,3.031,5.38,3.97c2.09,0.941,4.423,1.411,7.001,1.411   c5.92,0,11.146-2.438,15.675-7.315h-12.853v-14.63h30.513v39.5h-16.825v-6.167H163.834z"/>
	<path style="fill:#FFFFFF;" d="M209.918,171.096h18.6l25.707,74.192h-20.691l-4.493-14.525h-19.749l-4.389,14.525h-20.795   L209.918,171.096z M225.801,217.179l-6.583-22.989l-6.898,22.989L225.801,217.179L225.801,217.179z"/>
	<path style="fill:#FFFFFF;" d="M316.503,245.289v-39.082l-12.435,27.483H293.2l-12.436-27.483v39.082h-20.376v-74.192h22.259   L298.634,206l16.092-34.903h22.154v74.192L316.503,245.289L316.503,245.289z"/>
	<path style="fill:#FFFFFF;" d="M402.503,227.525v17.764h-52.876v-74.192h51.935v17.764h-31.558v10.449h26.961v16.51h-26.961v11.704   h32.5V227.525z"/>
	<path style="fill:#FFFFFF;" d="M154.638,341.426c-5.642,0-10.763-1.079-15.36-3.239c-4.598-2.158-8.535-4.999-11.809-8.517   c-3.275-3.516-5.817-7.54-7.628-12.069c-1.812-4.528-2.717-9.196-2.717-14.002c0-4.876,0.939-9.578,2.822-14.107   c1.881-4.528,4.509-8.517,7.889-11.965c3.378-3.448,7.383-6.2,12.018-8.255c4.632-2.055,9.7-3.083,15.204-3.083   c5.643,0,10.763,1.082,15.361,3.24c4.597,2.16,8.533,5.015,11.808,8.569c3.273,3.552,5.799,7.593,7.576,12.121   c1.776,4.529,2.665,9.161,2.665,13.897c0,4.877-0.939,9.562-2.822,14.056c-1.881,4.493-4.493,8.464-7.837,11.913   c-3.344,3.448-7.332,6.216-11.964,8.307C165.209,340.381,160.14,341.426,154.638,341.426z M137.815,303.807   c0,2.509,0.348,4.93,1.045,7.263c0.696,2.335,1.741,4.408,3.135,6.217c1.392,1.812,3.151,3.276,5.277,4.389   c2.125,1.115,4.65,1.672,7.576,1.672s5.468-0.574,7.628-1.724c2.159-1.15,3.919-2.647,5.278-4.494   c1.358-1.845,2.367-3.952,3.03-6.322c0.661-2.367,0.993-4.771,0.993-7.209c0-2.509-0.349-4.927-1.045-7.263   c-0.697-2.334-1.761-4.389-3.187-6.165c-1.429-1.776-3.206-3.203-5.33-4.284c-2.126-1.08-4.616-1.619-7.471-1.619   c-2.926,0-5.453,0.559-7.576,1.672c-2.126,1.115-3.885,2.596-5.277,4.441c-1.395,1.847-2.422,3.937-3.083,6.27   C138.144,298.985,137.815,301.37,137.815,303.807z"/>
	<path style="fill:#FFFFFF;" d="M212.53,266.607l14.525,48.591l14.316-48.591h21.422l-27.274,74.193h-16.928l-27.587-74.193H212.53z   "/>
	<path style="fill:#FFFFFF;" d="M321.31,323.035v17.764h-52.876v-74.192h51.935v17.764H288.81v10.449h26.961v16.51H288.81v11.704   h32.5V323.035z"/>
	<path style="fill:#FFFFFF;" d="M330.819,340.799v-74.192h34.067c3.622,0,6.964,0.749,10.031,2.247   c3.064,1.498,5.695,3.448,7.889,5.851c2.195,2.403,3.919,5.157,5.172,8.255c1.254,3.1,1.881,6.216,1.881,9.352   c0,4.321-0.939,8.343-2.82,12.07c-1.882,3.726-4.494,6.776-7.837,9.144l15.675,27.273h-22.989l-13.062-22.78h-7.629v22.78   L330.819,340.799L330.819,340.799z M351.195,300.255h12.853c1.253,0,2.42-0.696,3.5-2.09c1.08-1.392,1.619-3.344,1.619-5.852   c0-2.576-0.627-4.546-1.881-5.904c-1.254-1.358-2.509-2.038-3.761-2.038h-12.331L351.195,300.255L351.195,300.255z"/>
</g>
<g>
</g>
<g>
</g>
<g>
</g>
<g>
</g>
<g>
</g>
<g>
</g>
<g>
</g>
<g>
</g>
<g>
</g>
<g>
</g>
<g>
</g>
<g>
</g>
<g>
</g>
<g>
</g>
<g>
</g>
</svg>
