<?xml version="1.0" encoding="iso-8859-1"?>
<!-- Generator: Adobe Illustrator 19.0.0, SVG Export Plug-In . SVG Version: 6.00 Build 0)  -->
<svg xmlns="http://www.w3.org/2000/svg" xmlns:xlink="http://www.w3.org/1999/xlink" version="1.1" id="Capa_1" x="0px" y="0px" viewBox="0 0 512 512" style="enable-background:new 0 0 512 512;" xml:space="preserve">
<circle style="fill:#50206C;" cx="256" cy="256" r="256"/>
<path style="fill:#3D1952;" d="M511.94,263.879L410.116,162.056c-1.223-1.549-3.251-2.268-5.2-1.801  c-47.105,11.3-69.995,35.554-80.903,53.912c-5.679,9.557-8.789,18.501-10.49,25.333c-0.141,0.006-0.283,0.011-0.423,0.018  l-53.146-53.146l-0.018,0.018c-19.841-18.567-46.5-29.936-75.816-29.936c-7.742,0-15.3,0.794-22.595,2.302l-40.242-40.242  l-19.176,57.527l-57.527,19.177l34.962,34.962c-4.151,11.648-6.412,24.193-6.412,37.267c0,32.168,13.685,61.139,35.551,81.411  L271.376,511.55C403.032,503.78,507.931,396.514,511.94,263.879z"/>
<path style="fill:#A78966;" d="M397.655,295.659c-1.68,0-3.325-0.827-4.301-2.345c-22.604-35.125-19.006-69.011-12.009-91.252  c3.644-11.585,8.506-21.202,12.61-28.114c-27.891,9.167-48.902,24.713-61.216,45.439c-10.6,17.84-11.109,33.121-11.113,33.273  c-0.072,2.82-2.389,5.05-5.238,4.976c-2.82-0.072-5.049-2.418-4.976-5.238c0.019-0.73,0.597-18.123,12.544-38.231  c10.907-18.357,33.796-42.613,80.903-53.912c2.135-0.511,4.363,0.398,5.526,2.264c1.163,1.865,1.003,4.266-0.398,5.96  c-0.117,0.141-12.122,14.887-19.001,36.992c-9.085,29.196-5.397,56.891,10.961,82.313c1.527,2.373,0.841,5.534-1.532,7.061  C399.559,295.395,398.601,295.659,397.655,295.659z"/>
<circle style="fill:#FF3501;" cx="315.27" cy="286.62" r="47.16"/>
<path style="fill:#C70024;" d="M315.265,239.466v94.32c26.046,0,47.16-21.114,47.16-47.16  C362.425,260.58,341.311,239.466,315.265,239.466z"/>
<circle style="fill:#FF3501;" cx="398.058" cy="307.066" r="47.16"/>
<path style="fill:#C70024;" d="M398.058,259.901v94.32c26.046,0,47.16-21.114,47.16-47.16  C445.217,281.016,424.103,259.901,398.058,259.901z"/>
<path style="fill:#FFDA44;" d="M179.622,267.444l80.667-80.667c-19.882-18.795-46.708-30.323-76.228-30.323  c-61.298,0-110.99,49.692-110.99,110.99s49.694,110.989,110.992,110.989c29.52,0,56.344-11.528,76.228-30.323L179.622,267.444z"/>
<path style="fill:#FFA733;" d="M73.071,267.444c0,61.298,49.692,110.99,110.99,110.99c29.52,0,56.344-11.528,76.228-30.323  l-80.667-80.667H73.071V267.444z"/>
<polygon style="fill:#FF3501;" points="121.224,118.515 102.048,176.041 44.522,195.217 95.656,246.351 114.832,188.824   172.359,169.649 "/>
<path style="fill:#00479B;" d="M147.543,248.829c-2.006,0-3.972-0.971-5.169-2.764c-1.901-2.852-1.131-6.704,1.721-8.605  l20.179-13.453h-21.702c-3.427,0-6.205-2.778-6.205-6.205c0-3.427,2.778-6.205,6.205-6.205h42.197c2.735,0,5.147,1.79,5.939,4.408  c0.792,2.617-0.221,5.444-2.498,6.961l-37.232,24.822C149.921,248.491,148.725,248.829,147.543,248.829z"/>
<g>
</g>
<g>
</g>
<g>
</g>
<g>
</g>
<g>
</g>
<g>
</g>
<g>
</g>
<g>
</g>
<g>
</g>
<g>
</g>
<g>
</g>
<g>
</g>
<g>
</g>
<g>
</g>
<g>
</g>
</svg>
