<?xml version="1.0" encoding="iso-8859-1"?>
<!-- Generator: Adobe Illustrator 19.0.0, SVG Export Plug-In . SVG Version: 6.00 Build 0)  -->
<svg version="1.1" id="Capa_1" xmlns="http://www.w3.org/2000/svg" xmlns:xlink="http://www.w3.org/1999/xlink" x="0px" y="0px"
	 viewBox="0 0 512 512" style="enable-background:new 0 0 512 512;" xml:space="preserve">
<circle style="fill:#733C82;" cx="256" cy="256" r="256"/>
<path style="fill:#4B285A;" d="M512,256c0-13.379-1.031-26.517-3.009-39.342L426,133.667L86,378.333l130.658,130.658
	C229.483,510.97,242.621,512,256,512C397.385,512,512,397.385,512,256z"/>
<rect x="86" y="133.67" style="fill:#E0E0E0;" width="340" height="244.67"/>
<g>
	<rect x="255.95" y="133.67" style="fill:#C0C0C0;" width="170.05" height="244.67"/>
	<rect x="86" y="133.67" style="fill:#C0C0C0;" width="74.33" height="244.67"/>
</g>
<rect x="351.67" y="133.67" style="fill:#758F9B;" width="74.33" height="244.67"/>
<circle style="fill:#FFFFFF;" cx="255" cy="254.33" r="114.67"/>
<path style="fill:#E0E0E0;" d="M369.667,254.333c0-63.01-50.825-114.142-113.714-114.655v229.309
	C318.842,368.475,369.667,317.344,369.667,254.333z"/>
<circle style="fill:#758F9B;" cx="123.5" cy="337" r="20.667"/>
<circle style="fill:#576D75;" cx="388.83" cy="337" r="20.667"/>
<g>
</g>
<g>
</g>
<g>
</g>
<g>
</g>
<g>
</g>
<g>
</g>
<g>
</g>
<g>
</g>
<g>
</g>
<g>
</g>
<g>
</g>
<g>
</g>
<g>
</g>
<g>
</g>
<g>
</g>
</svg>
