<?xml version="1.0" encoding="iso-8859-1"?>
<!-- Generator: Adobe Illustrator 19.0.0, SVG Export Plug-In . SVG Version: 6.00 Build 0)  -->
<svg xmlns="http://www.w3.org/2000/svg" xmlns:xlink="http://www.w3.org/1999/xlink" version="1.1" id="Capa_1" x="0px" y="0px" viewBox="0 0 512 512" style="enable-background:new 0 0 512 512;" xml:space="preserve">
<circle style="fill:#50206C;" cx="256" cy="256" r="256"/>
<path style="fill:#3D1952;" d="M506.627,305.914l-70.692-70.692l-0.252,0.252c-4.951-4.533-11.544-7.302-18.786-7.302  c-3.266,0-6.398,0.568-9.308,1.601l-84.354-84.486c-27.288-25.795-64.104-41.617-104.618-41.617  C134.489,103.672,66.29,171.872,66.29,256c0,44.428,19.025,84.409,49.366,112.253l143.698,143.698  C381.941,510.143,483.645,422.187,506.627,305.914z"/>
<g>
	<circle style="fill:#F7AFD1;" cx="317.217" cy="256" r="27.826"/>
	<circle style="fill:#F7AFD1;" cx="417.391" cy="256" r="27.826"/>
</g>
<path style="fill:#FFDA44;" d="M213.018,256l110.711-110.711c-27.288-25.795-64.104-41.617-104.618-41.617  c-84.128,0-152.328,68.2-152.328,152.328s68.2,152.328,152.328,152.328c40.515,0,77.33-15.821,104.618-41.617L213.018,256z"/>
<circle style="fill:#A5001E;" cx="176.462" cy="182.884" r="24.372"/>
<path style="fill:#FFA733;" d="M66.783,256c0,84.128,68.2,152.328,152.328,152.328c40.515,0,77.33-15.821,104.618-41.617  L213.018,256H66.783z"/>
<g>
</g>
<g>
</g>
<g>
</g>
<g>
</g>
<g>
</g>
<g>
</g>
<g>
</g>
<g>
</g>
<g>
</g>
<g>
</g>
<g>
</g>
<g>
</g>
<g>
</g>
<g>
</g>
<g>
</g>
</svg>
