<?xml version="1.0" encoding="iso-8859-1"?>
<!-- Generator: Adobe Illustrator 19.0.0, SVG Export Plug-In . SVG Version: 6.00 Build 0)  -->
<svg version="1.1" id="Capa_1" xmlns="http://www.w3.org/2000/svg" xmlns:xlink="http://www.w3.org/1999/xlink" x="0px" y="0px"
	 viewBox="0 0 512 512" style="enable-background:new 0 0 512 512;" xml:space="preserve">
<circle style="fill:#91CDFF;" cx="256" cy="256" r="256"/>
<path style="fill:#1E8CE6;" d="M511.949,260.042L342.857,90.95L105.898,393.297l116.508,116.508C233.4,511.246,244.612,512,256,512
	C396.034,512,509.787,399.561,511.949,260.042z"/>
<polygon style="fill:#D7283C;" points="196.901,432.276 161.923,388.216 105.898,393.297 181.099,217.725 272.102,256.704 "/>
<polygon style="fill:#C30032;" points="315.099,432.276 350.077,388.216 406.102,393.297 330.901,217.725 239.898,256.704 "/>
<circle style="fill:#FFEB50;" cx="256" cy="187" r="129.5"/>
<path style="fill:#F7D139;" d="M256,57.5c-0.016,0-0.032,0.001-0.048,0.001V316.5c0.016,0,0.032,0.001,0.048,0.001
	c71.521,0,129.5-57.979,129.5-129.5C385.5,115.479,327.521,57.5,256,57.5z"/>
<circle style="fill:#FFECB3;" cx="256" cy="187" r="83.5"/>
<path style="fill:#FFD863;" d="M256,103.5c-0.016,0-0.031,0.001-0.047,0.001V270.5c0.016,0,0.031,0.001,0.047,0.001
	c46.116,0,83.5-37.384,83.5-83.5C339.5,140.884,302.116,103.5,256,103.5z"/>
<g>
</g>
<g>
</g>
<g>
</g>
<g>
</g>
<g>
</g>
<g>
</g>
<g>
</g>
<g>
</g>
<g>
</g>
<g>
</g>
<g>
</g>
<g>
</g>
<g>
</g>
<g>
</g>
<g>
</g>
</svg>
