<svg xmlns="http://www.w3.org/2000/svg" height="512pt" version="1.1" viewBox="0 0 512 512" width="512pt">
<g id="surface1">
<path d="M 512 256 C 512 397.386719 397.386719 512 256 512 C 114.613281 512 0 397.386719 0 256 C 0 114.613281 114.613281 0 256 0 C 397.386719 0 512 114.613281 512 256 Z M 512 256 " style=" stroke:none;fill-rule:nonzero;fill:rgb(99.607843%,41.568627%,8.627451%);fill-opacity:1;" />
<path d="M 512 256 C 512 250.4375 511.800781 244.925781 511.453125 239.453125 L 359.5 87.5 L 152.5 424.5 L 239.453125 511.453125 C 244.925781 511.800781 250.4375 512 256 512 C 397.386719 512 512 397.386719 512 256 Z M 512 256 " style=" stroke:none;fill-rule:nonzero;fill:rgb(98.039216%,36.470588%,5.882353%);fill-opacity:1;" />
<path d="M 152.5 87.5 L 359.5 87.5 L 359.5 424.5 L 152.5 424.5 Z M 152.5 87.5 " style=" stroke:none;fill-rule:nonzero;fill:rgb(20%,22.352941%,25.098039%);fill-opacity:1;" />
<path d="M 255.761719 87.5 L 359.5 87.5 L 359.5 424.5 L 255.761719 424.5 Z M 255.761719 87.5 " style=" stroke:none;fill-rule:nonzero;fill:rgb(13.72549%,15.294118%,16.862745%);fill-opacity:1;" />
<path d="M 174.769531 111.316406 L 337.230469 111.316406 L 337.230469 400.683594 L 174.769531 400.683594 Z M 174.769531 111.316406 " style=" stroke:none;fill-rule:nonzero;fill:rgb(100%,100%,100%);fill-opacity:1;" />
<path d="M 255.761719 111.316406 L 337.230469 111.316406 L 337.230469 400.683594 L 255.761719 400.683594 Z M 255.761719 111.316406 " style=" stroke:none;fill-rule:nonzero;fill:rgb(91.372549%,92.941176%,96.078431%);fill-opacity:1;" />
<path d="M 174.769531 335.699219 L 207.261719 335.699219 L 207.261719 368.191406 L 174.769531 368.191406 Z M 174.769531 335.699219 " style=" stroke:none;fill-rule:nonzero;fill:rgb(94.901961%,27.058824%,0%);fill-opacity:1;" />
<path d="M 174.769531 368.191406 L 207.261719 368.191406 L 207.261719 400.683594 L 174.769531 400.683594 Z M 174.769531 368.191406 " style=" stroke:none;fill-rule:nonzero;fill:rgb(99.607843%,41.568627%,8.627451%);fill-opacity:1;" />
<path d="M 239.753906 400.683594 L 207.261719 400.683594 L 207.261719 368.191406 L 239.753906 368.191406 Z M 239.753906 400.683594 " style=" stroke:none;fill-rule:nonzero;fill:rgb(94.901961%,27.058824%,0%);fill-opacity:1;" />
<path d="M 304.738281 335.699219 L 272.246094 335.699219 L 272.246094 303.207031 L 304.738281 303.207031 Z M 304.738281 335.699219 " style=" stroke:none;fill-rule:nonzero;fill:rgb(100%,76.078431%,0%);fill-opacity:1;" />
<path d="M 239.753906 368.191406 L 207.261719 368.191406 L 207.261719 335.699219 L 239.753906 335.699219 Z M 239.753906 368.191406 " style=" stroke:none;fill-rule:nonzero;fill:rgb(99.607843%,41.568627%,8.627451%);fill-opacity:1;" />
<path d="M 174.769531 127.699219 L 207.261719 127.699219 L 207.261719 160.191406 L 174.769531 160.191406 Z M 174.769531 127.699219 " style=" stroke:none;fill-rule:nonzero;fill:rgb(35.294118%,32.941176%,87.843137%);fill-opacity:1;" />
<path d="M 174.769531 160.191406 L 207.261719 160.191406 L 207.261719 192.683594 L 174.769531 192.683594 Z M 174.769531 160.191406 " style=" stroke:none;fill-rule:nonzero;fill:rgb(22.745098%,25.490196%,80%);fill-opacity:1;" />
<path d="M 239.753906 192.683594 L 207.261719 192.683594 L 207.261719 160.191406 L 239.753906 160.191406 Z M 239.753906 192.683594 " style=" stroke:none;fill-rule:nonzero;fill:rgb(35.294118%,32.941176%,87.843137%);fill-opacity:1;" />
<path d="M 239.753906 160.191406 L 207.261719 160.191406 L 207.261719 127.699219 L 239.753906 127.699219 Z M 239.753906 160.191406 " style=" stroke:none;fill-rule:nonzero;fill:rgb(22.745098%,25.490196%,80%);fill-opacity:1;" />
<path d="M 239.753906 335.699219 L 272.246094 335.699219 L 272.246094 368.191406 L 239.753906 368.191406 Z M 239.753906 335.699219 " style=" stroke:none;fill-rule:nonzero;fill:rgb(35.294118%,32.941176%,87.843137%);fill-opacity:1;" />
<path d="M 255.761719 335.699219 L 272.246094 335.699219 L 272.246094 368.191406 L 255.761719 368.191406 Z M 255.761719 335.699219 " style=" stroke:none;fill-rule:nonzero;fill:rgb(22.745098%,25.490196%,80%);fill-opacity:1;" />
<path d="M 239.753906 368.191406 L 272.246094 368.191406 L 272.246094 400.683594 L 239.753906 400.683594 Z M 239.753906 368.191406 " style=" stroke:none;fill-rule:nonzero;fill:rgb(22.745098%,25.490196%,80%);fill-opacity:1;" />
<path d="M 255.761719 368.191406 L 272.246094 368.191406 L 272.246094 400.683594 L 255.761719 400.683594 Z M 255.761719 368.191406 " style=" stroke:none;fill-rule:nonzero;fill:rgb(20.784314%,25.490196%,70.980392%);fill-opacity:1;" />
<path d="M 239.753906 270.714844 L 272.246094 270.714844 L 272.246094 303.207031 L 239.753906 303.207031 Z M 239.753906 270.714844 " style=" stroke:none;fill-rule:nonzero;fill:rgb(100%,85.490196%,0%);fill-opacity:1;" />
<path d="M 255.761719 270.714844 L 272.246094 270.714844 L 272.246094 303.207031 L 255.761719 303.207031 Z M 255.761719 270.714844 " style=" stroke:none;fill-rule:nonzero;fill:rgb(100%,76.078431%,0%);fill-opacity:1;" />
<path d="M 239.753906 303.207031 L 272.246094 303.207031 L 272.246094 335.699219 L 239.753906 335.699219 Z M 239.753906 303.207031 " style=" stroke:none;fill-rule:nonzero;fill:rgb(100%,85.490196%,0%);fill-opacity:1;" />
<path d="M 255.761719 303.207031 L 272.246094 303.207031 L 272.246094 335.699219 L 255.761719 335.699219 Z M 255.761719 303.207031 " style=" stroke:none;fill-rule:nonzero;fill:rgb(100%,76.078431%,0%);fill-opacity:1;" />
<path d="M 304.738281 400.683594 L 272.246094 400.683594 L 272.246094 368.191406 L 304.738281 368.191406 Z M 304.738281 400.683594 " style=" stroke:none;fill-rule:nonzero;fill:rgb(6.666667%,65.882353%,57.254902%);fill-opacity:1;" />
<path d="M 304.738281 368.191406 L 272.246094 368.191406 L 272.246094 335.699219 L 304.738281 335.699219 Z M 304.738281 368.191406 " style=" stroke:none;fill-rule:nonzero;fill:rgb(2.352941%,80%,67.058824%);fill-opacity:1;" />
<path d="M 304.738281 335.699219 L 337.230469 335.699219 L 337.230469 368.191406 L 304.738281 368.191406 Z M 304.738281 335.699219 " style=" stroke:none;fill-rule:nonzero;fill:rgb(22.745098%,25.490196%,80%);fill-opacity:1;" />
<path d="M 304.738281 368.191406 L 337.230469 368.191406 L 337.230469 400.683594 L 304.738281 400.683594 Z M 304.738281 368.191406 " style=" stroke:none;fill-rule:nonzero;fill:rgb(2.352941%,80%,67.058824%);fill-opacity:1;" />
<path d="M 304.738281 196.691406 L 272.246094 196.691406 L 272.246094 164.199219 L 304.738281 164.199219 Z M 304.738281 196.691406 " style=" stroke:none;fill-rule:nonzero;fill:rgb(6.666667%,65.882353%,57.254902%);fill-opacity:1;" />
<path d="M 304.738281 164.199219 L 337.230469 164.199219 L 337.230469 196.691406 L 304.738281 196.691406 Z M 304.738281 164.199219 " style=" stroke:none;fill-rule:nonzero;fill:rgb(2.352941%,80%,67.058824%);fill-opacity:1;" />
<path d="M 304.738281 196.691406 L 337.230469 196.691406 L 337.230469 229.183594 L 304.738281 229.183594 Z M 304.738281 196.691406 " style=" stroke:none;fill-rule:nonzero;fill:rgb(6.666667%,65.882353%,57.254902%);fill-opacity:1;" />
</g>
</svg>