<svg xmlns="http://www.w3.org/2000/svg" height="512pt" version="1.1" viewBox="0 0 512 512" width="512pt">
<g id="surface1">
<path d="M 512 256 C 512 397.386719 397.386719 512 256 512 C 114.613281 512 0 397.386719 0 256 C 0 114.613281 114.613281 0 256 0 C 397.386719 0 512 114.613281 512 256 Z M 512 256 " style=" stroke:none;fill-rule:nonzero;fill:rgb(20%,22.352941%,25.098039%);fill-opacity:1;" />
<path d="M 512 256 C 512 252.753906 511.917969 249.53125 511.800781 246.3125 L 410.859375 145.375 L 122.960938 392.039062 L 242.570312 511.652344 C 247.015625 511.882812 251.492188 512 256 512 C 397.386719 512 512 397.386719 512 256 Z M 512 256 " style=" stroke:none;fill-rule:nonzero;fill:rgb(13.72549%,15.294118%,16.862745%);fill-opacity:1;" />
<path d="M 446.304688 256 C 446.304688 361.101562 361.101562 446.304688 256 446.304688 C 150.898438 446.304688 65.695312 361.101562 65.695312 256 C 65.695312 150.898438 150.898438 65.695312 256 65.695312 C 361.101562 65.695312 446.304688 150.898438 446.304688 256 Z M 446.304688 256 " style=" stroke:none;fill-rule:nonzero;fill:rgb(99.607843%,50.980392%,1.960784%);fill-opacity:1;" />
<path d="M 256 65.695312 L 256 446.304688 C 361.101562 446.304688 446.304688 361.101562 446.304688 256 C 446.304688 150.898438 361.101562 65.695312 256 65.695312 Z M 256 65.695312 " style=" stroke:none;fill-rule:nonzero;fill:rgb(99.607843%,41.568627%,8.627451%);fill-opacity:1;" />
<path d="M 385.351562 256 C 385.351562 327.4375 327.4375 385.351562 256 385.351562 C 184.5625 385.351562 126.648438 327.4375 126.648438 256 C 126.648438 184.5625 184.5625 126.648438 256 126.648438 C 327.4375 126.648438 385.351562 184.5625 385.351562 256 Z M 385.351562 256 " style=" stroke:none;fill-rule:nonzero;fill:rgb(100%,64.313725%,14.901961%);fill-opacity:1;" />
<path d="M 256 126.648438 L 256 385.351562 C 327.4375 385.351562 385.351562 327.4375 385.351562 256 C 385.351562 184.5625 327.4375 126.648438 256 126.648438 Z M 256 126.648438 " style=" stroke:none;fill-rule:nonzero;fill:rgb(100%,58.431373%,0%);fill-opacity:1;" />
<path d="M 124.988281 117.988281 C 107.527344 134.566406 93.222656 154.429688 83.03125 176.574219 L 138.894531 201.015625 C 146.015625 185.882812 155.980469 172.347656 168.109375 161.109375 Z M 124.988281 117.988281 " style=" stroke:none;fill-rule:nonzero;fill:rgb(98.039216%,36.470588%,5.882353%);fill-opacity:1;" />
<path d="M 256 126.660156 L 256 65.707031 C 231.886719 65.828125 209.753906 70.078125 189.285156 77.742188 L 211.492188 134.527344 C 225.074219 129.550781 239.71875 126.777344 256 126.660156 Z M 256 126.660156 " style=" stroke:none;fill-rule:nonzero;fill:rgb(98.039216%,36.470588%,5.882353%);fill-opacity:1;" />
<path d="M 126.675781 258 L 65.722656 258 C 65.992188 284.476562 71.683594 309.652344 81.71875 332.484375 L 137.722656 308.40625 C 130.867188 292.964844 126.945312 275.925781 126.675781 258 Z M 126.675781 258 " style=" stroke:none;fill-rule:nonzero;fill:rgb(98.039216%,36.470588%,5.882353%);fill-opacity:1;" />
<path d="M 166.058594 348.941406 L 122.960938 392.039062 C 140.253906 408.957031 160.765625 422.597656 183.480469 431.972656 L 207.382812 375.882812 C 191.886719 369.589844 177.882812 360.386719 166.058594 348.941406 Z M 166.058594 348.941406 " style=" stroke:none;fill-rule:nonzero;fill:rgb(98.039216%,36.470588%,5.882353%);fill-opacity:1;" />
<path d="M 375.417969 206.222656 C 381.8125 221.542969 385.351562 238.359375 385.351562 256 C 385.351562 256.667969 385.335938 257.335938 385.324219 258 L 446.277344 258 C 446.285156 257.332031 446.304688 256.667969 446.304688 256 C 446.304688 229.804688 441.003906 204.851562 431.425781 182.144531 Z M 375.417969 206.222656 " style=" stroke:none;fill-rule:nonzero;fill:rgb(98.039216%,36.470588%,5.882353%);fill-opacity:1;" />
<path d="M 332.691406 81.804688 L 308.792969 137.890625 C 323.941406 144.675781 337.554688 154.28125 348.945312 166.054688 L 392.046875 122.953125 C 375.183594 105.710938 355.0625 91.671875 332.691406 81.804688 Z M 332.691406 81.804688 " style=" stroke:none;fill-rule:nonzero;fill:rgb(98.039216%,36.470588%,5.882353%);fill-opacity:1;" />
<path d="M 256 446.304688 C 281.453125 446.304688 305.734375 441.304688 327.925781 432.234375 L 305.714844 375.449219 C 290.410156 381.828125 273.617188 385.351562 256 385.351562 Z M 256 446.304688 " style=" stroke:none;fill-rule:nonzero;fill:rgb(98.039216%,36.470588%,5.882353%);fill-opacity:1;" />
<path d="M 305.714844 375.449219 C 290.410156 381.828125 273.617188 385.351562 256 385.351562 L 256 446.304688 C 281.453125 446.304688 305.734375 441.304688 327.925781 432.238281 Z M 305.714844 375.449219 " style=" stroke:none;fill-rule:nonzero;fill:rgb(94.901961%,27.058824%,0%);fill-opacity:1;" />
<path d="M 350.894531 343.894531 L 394.007812 387.007812 C 409.867188 370.300781 422.722656 350.71875 431.722656 329.128906 L 375.859375 304.6875 C 369.933594 319.273438 361.421875 332.53125 350.894531 343.894531 Z M 350.894531 343.894531 " style=" stroke:none;fill-rule:nonzero;fill:rgb(98.039216%,36.470588%,5.882353%);fill-opacity:1;" />
<path d="M 256 154.339844 L 287.082031 217.316406 L 356.585938 227.417969 L 306.292969 276.441406 L 318.164062 345.660156 L 256 312.980469 L 193.835938 345.660156 L 205.707031 276.441406 L 155.414062 227.417969 L 224.917969 217.316406 Z M 256 154.339844 " style=" stroke:none;fill-rule:nonzero;fill:rgb(100%,85.490196%,0%);fill-opacity:1;" />
<path d="M 356.585938 227.417969 L 287.082031 217.316406 L 256 154.339844 L 256 312.980469 L 318.164062 345.660156 L 306.292969 276.441406 Z M 356.585938 227.417969 " style=" stroke:none;fill-rule:nonzero;fill:rgb(100%,76.078431%,0%);fill-opacity:1;" />
</g>
</svg>