<?xml version="1.0" encoding="iso-8859-1"?>
<!-- Generator: Adobe Illustrator 19.0.0, SVG Export Plug-In . SVG Version: 6.00 Build 0)  -->
<svg xmlns="http://www.w3.org/2000/svg" xmlns:xlink="http://www.w3.org/1999/xlink" version="1.1" id="Capa_1" x="0px" y="0px" viewBox="0 0 512 512" style="enable-background:new 0 0 512 512;" xml:space="preserve">
<circle style="fill:#9CDD05;" cx="256" cy="256" r="256"/>
<path style="fill:#5EAC24;" d="M512,256c0-3.82-0.1-7.617-0.266-11.396L397.301,130.17c-4.856-5.449-10.022-10.615-15.47-15.47  l-3.396-3.396l-0.319,0.17C345.157,83.6,302.545,66.783,256,66.783C151.499,66.783,66.783,151.499,66.783,256  c0,56.188,24.499,106.645,63.388,141.301l114.434,114.434C248.383,511.9,252.18,512,256,512C397.384,512,512,397.385,512,256z"/>
<path style="fill:#787680;" d="M256,111.304V66.783C151.499,66.783,66.783,151.499,66.783,256S151.499,445.217,256,445.217v-44.522  c-1.736,0-3.463-0.041-5.185-0.102c1.722,0.061,3.448,0.102,5.185,0.102V189.217c-48.966,0-110.429,18.15-139.346,27.687  c-0.404,1.445-0.782,2.901-1.143,4.363C131.069,158.131,188.061,111.304,256,111.304z M113.289,279.948  c0.181,1.09,0.375,2.176,0.581,3.258C113.664,282.124,113.47,281.039,113.289,279.948z M244.565,400.247  c1.695,0.134,3.401,0.229,5.113,0.303C247.966,400.476,246.26,400.38,244.565,400.247z M211.479,393.706  c3.488,1.128,7.034,2.125,10.633,2.99C218.513,395.832,214.968,394.833,211.479,393.706z M222.205,396.718  c1.79,0.429,3.592,0.825,5.407,1.186C225.796,397.543,223.994,397.146,222.205,396.718z M227.68,397.917  c1.755,0.348,3.522,0.663,5.299,0.948C231.202,398.581,229.435,398.266,227.68,397.917z M233.269,398.914  c1.733,0.274,3.476,0.514,5.228,0.726C236.744,399.428,235.001,399.186,233.269,398.914z M239.243,399.724  c1.633,0.189,3.272,0.353,4.921,0.487C242.515,400.078,240.876,399.913,239.243,399.724z M211.478,343.185v50.521  c-49.727-16.067-87.678-58.312-97.608-110.497c1.558-0.063,3.16,0.109,4.762,0.59l62.644,18.794  C199.202,307.969,211.478,324.469,211.478,343.185z"/>
<path style="fill:#57565C;" d="M256,66.783v44.522c67.516,0,124.229,46.243,140.201,108.782c-0.274-1.065-0.559-2.126-0.855-3.182  c-28.917-9.537-90.38-27.687-139.346-27.687v211.478c1.666,0,3.322-0.039,4.974-0.095c-1.652,0.056-3.309,0.095-4.974,0.095v44.522  c104.501,0,189.217-84.716,189.217-189.217S360.501,66.783,256,66.783z M398.992,278.261c-0.081,0.523-0.173,1.043-0.259,1.564  c0.086-0.52,0.161-1.043,0.242-1.564H398.992z M262.212,400.554c1.647-0.07,3.289-0.156,4.922-0.28  c1.634-0.125,3.257-0.286,4.875-0.464c-1.618,0.178-3.241,0.339-4.875,0.464C265.501,400.397,263.858,400.484,262.212,400.554z   M283.98,397.982c1.574-0.308,3.143-0.633,4.698-0.992c1.556-0.359,3.099-0.752,4.636-1.162c-1.537,0.409-3.08,0.803-4.636,1.162  C287.122,397.35,285.554,397.674,283.98,397.982z M273.22,399.672c3.227-0.383,6.421-0.872,9.58-1.463  C279.642,398.8,276.448,399.289,273.22,399.672z M294.465,395.517c1.53-0.421,3.054-0.857,4.563-1.327  C297.519,394.66,295.995,395.096,294.465,395.517z M300.522,393.706v-50.521c0-18.716,12.276-35.214,30.202-40.593l62.644-18.794  c1.603-0.481,3.204-0.653,4.762-0.59C388.199,335.393,350.249,377.639,300.522,393.706z M398.711,279.948  c-0.181,1.09-0.375,2.176-0.581,3.258C398.336,282.124,398.53,281.039,398.711,279.948z"/>
<g>
	<path style="fill:#87868A;" d="M396.99,223.322c-0.499-2.159-1.051-4.297-1.644-6.418l0,0   C395.94,219.026,396.492,221.164,396.99,223.322z"/>
	<path style="fill:#87868A;" d="M299.028,394.19c0.501-0.156,0.995-0.324,1.494-0.485l0,0   C300.023,393.866,299.529,394.035,299.028,394.19z"/>
</g>
<circle style="fill:#E0E0E2;" cx="155.826" cy="250.435" r="22.261"/>
<circle style="fill:#57A4FF;" cx="340.591" cy="250.435" r="8.904"/>
<circle style="fill:#FF6243;" cx="380.661" cy="250.435" r="8.904"/>
<circle style="fill:#FFDA44;" cx="360.626" cy="231.513" r="8.904"/>
<circle style="fill:#C2FB3B;" cx="360.626" cy="269.357" r="8.904"/>
<circle style="fill:#FFFFFF;" cx="256" cy="256" r="55.652"/>
<path style="fill:#E0E0E2;" d="M256,200.348v111.304c30.736,0,55.652-24.917,55.652-55.652S286.736,200.348,256,200.348z"/>
<circle style="fill:#FFDA44;" cx="256" cy="256" r="33.391"/>
<path style="fill:#FFA733;" d="M256,222.609v66.783c18.442,0,33.391-14.949,33.391-33.391S274.442,222.609,256,222.609z"/>
<path style="fill:#57565C;" d="M111.304,256c0-79.913,64.782-144.696,144.696-144.696V66.783  C151.499,66.783,66.783,151.499,66.783,256S151.499,445.217,256,445.217v-44.522C176.087,400.696,111.304,335.913,111.304,256z"/>
<path style="fill:#3E3D42;" d="M400.696,256c0-79.913-64.782-144.696-144.696-144.696V66.783  c104.501,0,189.217,84.716,189.217,189.217S360.501,445.217,256,445.217v-44.522C335.913,400.696,400.696,335.913,400.696,256z"/>
<g>
	<path style="fill:#FF0C38;" d="M256.026,111.304V66.783c-62.895,0-118.613,30.696-153.018,77.913h60.564   C188.644,123.847,220.869,111.304,256.026,111.304z"/>
	<path style="fill:#FF0C38;" d="M163.572,367.304h-60.564c34.405,47.218,90.122,77.913,153.018,77.913v-44.522   C220.869,400.696,188.644,388.153,163.572,367.304z"/>
</g>
<g>
	<path style="fill:#C70024;" d="M348.479,144.696h60.564c-34.405-47.218-90.122-77.913-153.018-77.913v44.522   C291.182,111.304,323.407,123.847,348.479,144.696z"/>
	<path style="fill:#C70024;" d="M256.026,400.696v44.522c62.895,0,118.613-30.696,153.018-77.913h-60.564   C323.407,388.153,291.182,400.696,256.026,400.696z"/>
</g>
<g>
</g>
<g>
</g>
<g>
</g>
<g>
</g>
<g>
</g>
<g>
</g>
<g>
</g>
<g>
</g>
<g>
</g>
<g>
</g>
<g>
</g>
<g>
</g>
<g>
</g>
<g>
</g>
<g>
</g>
</svg>
