<?xml version="1.0" encoding="iso-8859-1"?>
<!-- Generator: Adobe Illustrator 19.0.0, SVG Export Plug-In . SVG Version: 6.00 Build 0)  -->
<svg version="1.1" id="Capa_1" xmlns="http://www.w3.org/2000/svg" xmlns:xlink="http://www.w3.org/1999/xlink" x="0px" y="0px"
	 viewBox="0 0 512 512" style="enable-background:new 0 0 512 512;" xml:space="preserve">
<circle style="fill:#0066AA;" cx="256" cy="256" r="256"/>
<path style="fill:#1E2D64;" d="M511.943,260.482L332.101,80.641L276.786,97.5L262,147.579l45.323,45.323l-29.712,134.61
	l-149.455,95.035l86.615,86.132C228.194,510.853,241.962,512,256,512c53.035,0,102.304-16.128,143.169-43.747l3.911-3.911
	l0.709,0.708C468.124,419.486,510.491,344.971,511.943,260.482z"/>
<g>
	<circle style="fill:#FF4682;" cx="238.13" cy="342.03" r="93.97"/>
	<path style="fill:#FF4682;" d="M238.128,452c-60.639,0-109.973-49.333-109.973-109.973c0-60.639,49.334-109.973,109.973-109.973
		c60.64,0,109.974,49.333,109.974,109.973S298.768,452,238.128,452z M238.128,264.054c-42.994,0-77.973,34.979-77.973,77.973
		c0,42.995,34.979,77.973,77.973,77.973c42.995,0,77.974-34.979,77.974-77.973S281.123,264.054,238.128,264.054z"/>
</g>
<path style="fill:#C42364;" d="M238.128,232.054c-0.21,0-0.418,0.007-0.628,0.008v32.008c0.21-0.002,0.417-0.016,0.628-0.016
	c42.995,0,77.974,34.979,77.974,77.973c0,42.995-34.979,77.973-77.974,77.973c-0.21,0-0.418-0.014-0.628-0.016v32.008
	c0.21,0.001,0.418,0.008,0.628,0.008c60.64,0,109.974-49.333,109.974-109.973C348.102,281.388,298.768,232.054,238.128,232.054z"/>
<rect x="280.95" y="151" style="fill:#FFFFFF;" width="32" height="191.03"/>
<rect x="296.43" y="151" style="fill:#E0E0E0;" width="16.518" height="191.03"/>
<circle style="fill:#FF4682;" cx="202.97" cy="342.03" r="93.97"/>
<path style="fill:#C42364;" d="M296.946,342.027c0-51.898-42.072-93.971-93.97-93.973V436
	C254.875,435.998,296.946,393.926,296.946,342.027z"/>
<path style="fill:#FF9B32;" d="M202.973,452C142.334,452,93,402.667,93,342.027c0-60.639,49.334-109.973,109.973-109.973
	c60.64,0,109.974,49.333,109.974,109.973C312.946,402.667,263.612,452,202.973,452z M202.973,264.054
	c-42.994,0-77.973,34.979-77.973,77.973C125,385.021,159.979,420,202.973,420c42.995,0,77.974-34.979,77.974-77.973
	C280.946,299.033,245.968,264.054,202.973,264.054z"/>
<path style="fill:#FF7D0A;" d="M312.946,342.027c0-60.638-49.332-109.971-109.97-109.973v32c42.994,0.002,77.97,34.979,77.97,77.973
	s-34.977,77.971-77.97,77.973v32C263.614,451.998,312.946,402.666,312.946,342.027z"/>
<path style="fill:#FFFFFF;" d="M296.946,162.5c-26.743,0-48.5-21.757-48.5-48.5s21.757-48.5,48.5-48.5s48.5,21.757,48.5,48.5
	S323.689,162.5,296.946,162.5z M296.946,97.5c-9.099,0-16.5,7.402-16.5,16.5s7.401,16.5,16.5,16.5s16.5-7.402,16.5-16.5
	S306.045,97.5,296.946,97.5z"/>
<path style="fill:#E0E0E0;" d="M296.946,65.5c-0.174,0-0.344,0.011-0.518,0.013v32.013c0.173-0.005,0.343-0.026,0.518-0.026
	c9.099,0,16.5,7.402,16.5,16.5s-7.401,16.5-16.5,16.5c-0.175,0-0.344-0.021-0.518-0.026v32.013c0.173,0.002,0.344,0.013,0.518,0.013
	c26.743,0,48.5-21.757,48.5-48.5S323.689,65.5,296.946,65.5z"/>
<g>
</g>
<g>
</g>
<g>
</g>
<g>
</g>
<g>
</g>
<g>
</g>
<g>
</g>
<g>
</g>
<g>
</g>
<g>
</g>
<g>
</g>
<g>
</g>
<g>
</g>
<g>
</g>
<g>
</g>
</svg>
