<?xml version="1.0" encoding="iso-8859-1"?>
<!-- Generator: Adobe Illustrator 19.0.0, SVG Export Plug-In . SVG Version: 6.00 Build 0)  -->
<svg xmlns="http://www.w3.org/2000/svg" xmlns:xlink="http://www.w3.org/1999/xlink" version="1.1" id="Capa_1" x="0px" y="0px" viewBox="0 0 512 512" style="enable-background:new 0 0 512 512;" xml:space="preserve">
<circle style="fill:#50206C;" cx="256" cy="256" r="256"/>
<path style="fill:#3D1952;" d="M512,256c0-7.867-0.375-15.644-1.069-23.329L367.304,89.043H256H144.696v44.522l0,0l22.261,22.261  l-11.13,122.435l-11.13,22.261l0,0v33.391v89.043h0.075l87.982,87.982c7.659,0.69,15.41,1.062,23.248,1.062  C397.385,512,512,397.385,512,256z"/>
<polygon style="fill:#C70024;" points="367.304,89.043 144.696,89.043 144.696,133.565 166.957,155.826 155.826,278.261   144.696,300.522 144.696,422.957 256,422.957 367.304,422.957 367.304,300.522 356.174,278.261 345.043,155.826 367.304,133.565 "/>
<polygon style="fill:#A5001E;" points="367.304,89.043 256,89.043 256,422.957 367.304,422.957 367.304,300.522 356.174,278.261   345.043,155.826 367.304,133.565 "/>
<polygon style="fill:#FFDA44;" points="356.174,278.261 155.826,278.261 166.957,155.826 345.043,155.826 "/>
<polygon style="fill:#FFA733;" points="356.174,278.261 256,278.261 256,155.826 345.043,155.826 "/>
<rect x="144.696" y="300.522" style="fill:#FF0C38;" width="222.609" height="122.435"/>
<rect x="256" y="300.522" style="fill:#C70024;" width="111.304" height="122.435"/>
<rect x="144.696" y="89.043" style="fill:#FF0C38;" width="222.609" height="44.522"/>
<rect x="256" y="89.043" style="fill:#C70024;" width="111.304" height="44.522"/>
<rect x="144.696" y="300.522" style="fill:#FFDA44;" width="222.609" height="33.391"/>
<rect x="256" y="300.522" style="fill:#FFA733;" width="111.304" height="33.391"/>
<polygon style="fill:#005ECE;" points="343.02,267.13 168.98,267.13 178.087,166.957 333.913,166.957 "/>
<polygon style="fill:#00479B;" points="343.02,267.13 256,267.13 256,166.957 333.913,166.957 "/>
<rect x="311.652" y="244.87" style="fill:#FFDA44;" width="11.13" height="44.522"/>
<circle style="fill:#FF0C38;" cx="317.217" cy="250.435" r="16.696"/>
<rect x="333.913" y="356.174" style="fill:#3E3D42;" width="11.13" height="33.391"/>
<g>
	<circle style="fill:#FFDA44;" cx="164.73" cy="384" r="8.904"/>
	<circle style="fill:#FFDA44;" cx="184.765" cy="365.078" r="8.904"/>
</g>
<circle style="fill:#FFA733;" cx="184.765" cy="402.922" r="8.904"/>
<g>
</g>
<g>
</g>
<g>
</g>
<g>
</g>
<g>
</g>
<g>
</g>
<g>
</g>
<g>
</g>
<g>
</g>
<g>
</g>
<g>
</g>
<g>
</g>
<g>
</g>
<g>
</g>
<g>
</g>
</svg>
