<?xml version="1.0" encoding="iso-8859-1"?>
<!-- Generator: Adobe Illustrator 19.0.0, SVG Export Plug-In . SVG Version: 6.00 Build 0)  -->
<svg xmlns="http://www.w3.org/2000/svg" xmlns:xlink="http://www.w3.org/1999/xlink" version="1.1" id="Capa_1" x="0px" y="0px" viewBox="0 0 512 512" style="enable-background:new 0 0 512 512;" xml:space="preserve">
<circle style="fill:#005ECE;" cx="256" cy="256" r="256"/>
<path style="fill:#00479B;" d="M511.987,256c0-7.011-0.282-13.956-0.835-20.825L368.075,92.098c-0.629-0.65-1.262-1.297-1.902-1.936  s-1.286-1.273-1.936-1.902l-0.365-0.365l-0.008,0.007c-1.696-1.627-3.428-3.218-5.196-4.767c-0.234-0.206-0.47-0.411-0.705-0.614  c-0.707-0.612-1.419-1.218-2.137-1.818c-0.239-0.2-0.48-0.4-0.72-0.598c-0.529-0.436-1.061-0.869-1.596-1.299  c-0.387-0.311-0.776-0.62-1.165-0.927c-1.277-1.006-2.569-1.992-3.877-2.958c-0.252-0.186-0.503-0.371-0.755-0.554  c-1.01-0.736-2.028-1.46-3.055-2.173c-0.514-0.356-1.03-0.709-1.548-1.06c-1.194-0.807-2.401-1.597-3.619-2.372  c-0.367-0.233-0.735-0.465-1.103-0.696c-0.531-0.332-1.065-0.66-1.601-0.985s-1.073-0.648-1.613-0.966  c-1.349-0.798-2.711-1.576-4.086-2.333c-0.825-0.454-1.654-0.902-2.489-1.342c-0.557-0.293-1.114-0.583-1.674-0.87  c-0.466-0.239-0.935-0.475-1.404-0.709c-0.467-0.234-0.936-0.464-1.407-0.693c-0.667-0.325-1.336-0.644-2.007-0.959  c-2.66-1.249-5.362-2.424-8.102-3.525c-0.588-0.236-1.178-0.469-1.77-0.698c-0.376-0.146-0.754-0.289-1.132-0.433  c-0.512-0.194-1.026-0.385-1.542-0.574c-0.597-0.218-1.195-0.433-1.795-0.644s-1.202-0.42-1.805-0.623  c-0.905-0.306-1.814-0.604-2.726-0.895c-0.397-0.127-0.796-0.25-1.195-0.374c-0.516-0.16-1.034-0.317-1.553-0.472  c-0.306-0.091-0.613-0.181-0.92-0.27c-0.922-0.268-1.848-0.528-2.777-0.779c-0.619-0.167-1.24-0.332-1.862-0.491  c-0.622-0.16-1.247-0.317-1.872-0.47c-2.188-0.534-4.395-1.022-6.619-1.463c-0.953-0.189-1.909-0.37-2.868-0.541  c-0.319-0.057-0.64-0.114-0.961-0.168c-0.962-0.166-1.926-0.323-2.893-0.47c-2.257-0.345-4.53-0.641-6.817-0.888  c-0.653-0.07-1.309-0.137-1.965-0.199c-0.328-0.031-0.657-0.061-0.985-0.091c-0.657-0.058-1.316-0.112-1.975-0.163  c-0.99-0.076-1.981-0.141-2.975-0.198c-0.663-0.038-1.327-0.071-1.992-0.101c-1.33-0.059-2.665-0.101-4.004-0.127  c-0.669-0.012-1.34-0.021-2.011-0.026c-0.334-0.001-0.67-0.002-1.006-0.002l0,0c-62.393,0-116.221,36.67-141.108,89.634  c-1.125-0.383-2.332-0.591-3.586-0.591c-6.147,0-11.13,4.983-11.13,11.13v278.261l0,0l76.523,76.523  C201.653,507.607,228.307,512,255.988,512C397.371,512,511.987,397.384,511.987,256z"/>
<path style="fill:#FFDA44;" d="M411.826,422.957H100.174V200.348c0-86.061,69.766-155.826,155.826-155.826l0,0  c86.061,0,155.826,69.766,155.826,155.826V422.957z"/>
<path style="fill:#FFA733;" d="M256,44.522L256,44.522v378.435h155.826V200.348C411.826,114.287,342.061,44.522,256,44.522z"/>
<path style="fill:#FF3501;" d="M388.911,422.957H123.089V199.693c0-73.405,59.507-132.911,132.911-132.911l0,0  c73.404,0,132.911,59.506,132.911,132.911V422.957z"/>
<path style="fill:#C70024;" d="M256,66.783L256,66.783v356.174h132.911V199.693C388.911,126.289,329.404,66.783,256,66.783z"/>
<rect x="100.174" y="144.696" style="fill:#FFDA44;" width="311.652" height="278.261"/>
<rect x="256" y="144.696" style="fill:#FFA733;" width="155.826" height="278.261"/>
<rect x="100.174" y="144.696" style="fill:#7C84E8;" width="311.652" height="155.826"/>
<rect x="256" y="144.696" style="fill:#6E76E5;" width="155.826" height="155.826"/>
<circle style="fill:#FFFFFF;" cx="111.304" cy="144.696" r="11.13"/>
<circle style="fill:#C4C8F5;" cx="133.565" cy="144.696" r="11.13"/>
<circle style="fill:#FFFFFF;" cx="155.826" cy="144.696" r="11.13"/>
<circle style="fill:#C4C8F5;" cx="178.087" cy="144.696" r="11.13"/>
<circle style="fill:#FFFFFF;" cx="200.348" cy="144.696" r="11.13"/>
<circle style="fill:#C4C8F5;" cx="222.609" cy="144.696" r="11.13"/>
<circle style="fill:#FFFFFF;" cx="244.87" cy="144.696" r="11.13"/>
<circle style="fill:#C4C8F5;" cx="267.13" cy="144.696" r="11.13"/>
<circle style="fill:#FFFFFF;" cx="289.391" cy="144.696" r="11.13"/>
<circle style="fill:#C4C8F5;" cx="311.652" cy="144.696" r="11.13"/>
<circle style="fill:#FFFFFF;" cx="333.913" cy="144.696" r="11.13"/>
<circle style="fill:#C4C8F5;" cx="356.174" cy="144.696" r="11.13"/>
<circle style="fill:#FFFFFF;" cx="378.435" cy="144.696" r="11.13"/>
<circle style="fill:#C4C8F5;" cx="400.696" cy="144.696" r="11.13"/>
<circle style="fill:#FFFFFF;" cx="111.304" cy="300.522" r="11.13"/>
<circle style="fill:#C4C8F5;" cx="133.565" cy="300.522" r="11.13"/>
<circle style="fill:#FFFFFF;" cx="155.826" cy="300.522" r="11.13"/>
<circle style="fill:#C4C8F5;" cx="178.087" cy="300.522" r="11.13"/>
<circle style="fill:#FFFFFF;" cx="200.348" cy="300.522" r="11.13"/>
<circle style="fill:#C4C8F5;" cx="222.609" cy="300.522" r="11.13"/>
<circle style="fill:#FFFFFF;" cx="244.87" cy="300.522" r="11.13"/>
<circle style="fill:#C4C8F5;" cx="267.13" cy="300.522" r="11.13"/>
<circle style="fill:#FFFFFF;" cx="289.391" cy="300.522" r="11.13"/>
<circle style="fill:#C4C8F5;" cx="311.652" cy="300.522" r="11.13"/>
<circle style="fill:#FFFFFF;" cx="333.913" cy="300.522" r="11.13"/>
<circle style="fill:#C4C8F5;" cx="356.174" cy="300.522" r="11.13"/>
<circle style="fill:#FFFFFF;" cx="378.435" cy="300.522" r="11.13"/>
<circle style="fill:#C4C8F5;" cx="400.696" cy="300.522" r="11.13"/>
<rect x="211.478" y="166.957" style="fill:#FFFFFF;" width="89.043" height="111.304"/>
<path style="fill:#FF0000;" d="M255.941,202.149h-28.299v-18.065h59.523l-36.236,74.142h-22.452L255.941,202.149z"/>
<rect x="111.304" y="166.957" style="fill:#FFFFFF;" width="89.043" height="111.304"/>
<path style="fill:#2488FF;" d="M155.767,202.149h-28.299v-18.065h59.523l-36.236,74.142h-22.452L155.767,202.149z"/>
<rect x="311.652" y="166.957" style="fill:#FFFFFF;" width="89.043" height="111.304"/>
<path style="fill:#5EAC24;" d="M356.115,202.149h-28.299v-18.065h59.523l-36.236,74.142h-22.452L356.115,202.149z"/>
<rect x="355.317" y="345.043" style="fill:#CC7400;" width="11.13" height="55.652"/>
<circle style="fill:#C70024;" cx="360.882" cy="327.491" r="26.969"/>
<rect x="122.435" y="345.043" style="fill:#CC7400;" width="178.087" height="44.522"/>
<rect x="122.435" y="367.304" style="fill:#AA6100;" width="178.087" height="22.261"/>
<g>
	<path style="fill:#FFDA44;" d="M200.526,105.326c-1.011-0.607-2.057-1.145-3.135-1.618c-0.91-0.405-1.931-0.784-3.06-1.138   c-1.13-0.354-2.234-0.531-3.312-0.531c-0.877,0-1.576,0.135-2.098,0.404c-0.523,0.27-0.785,0.726-0.785,1.366   c0,0.473,0.152,0.859,0.455,1.163c0.304,0.303,0.741,0.582,1.314,0.835c0.573,0.253,1.272,0.498,2.098,0.733   c0.826,0.236,1.761,0.523,2.807,0.859c1.651,0.505,3.143,1.062,4.476,1.67c1.331,0.607,2.469,1.323,3.414,2.149   c0.944,0.826,1.67,1.829,2.175,3.009c0.505,1.181,0.758,2.612,0.758,4.299c0,2.158-0.396,3.97-1.188,5.436   c-0.792,1.467-1.838,2.638-3.135,3.515c-1.298,0.877-2.765,1.509-4.4,1.897c-1.635,0.387-3.279,0.581-4.931,0.581   c-1.315,0-2.664-0.101-4.046-0.303c-1.382-0.203-2.756-0.489-4.122-0.859c-1.366-0.371-2.68-0.809-3.944-1.314   c-1.264-0.505-2.436-1.079-3.515-1.72l4.247-8.647c1.18,0.742,2.41,1.399,3.691,1.972c1.079,0.505,2.301,0.961,3.666,1.366   c1.366,0.404,2.756,0.607,4.172,0.607c1.079,0,1.829-0.144,2.251-0.43c0.421-0.286,0.632-0.666,0.632-1.138   c0-0.505-0.211-0.936-0.632-1.29c-0.422-0.354-1.003-0.666-1.744-0.936c-0.742-0.269-1.593-0.539-2.554-0.809   c-0.961-0.269-1.981-0.59-3.06-0.961c-1.585-0.539-2.951-1.121-4.096-1.745c-1.146-0.623-2.09-1.331-2.832-2.124   c-0.742-0.791-1.29-1.694-1.643-2.706c-0.354-1.011-0.531-2.175-0.531-3.488c0-1.989,0.362-3.742,1.087-5.259   c0.725-1.517,1.711-2.781,2.958-3.793c1.247-1.012,2.671-1.778,4.273-2.301c1.601-0.522,3.295-0.784,5.082-0.784   c1.315,0,2.596,0.127,3.843,0.38c1.247,0.253,2.453,0.573,3.616,0.961c1.163,0.388,2.251,0.809,3.261,1.264   c1.012,0.455,1.922,0.885,2.73,1.29L200.526,105.326z"/>
	<path style="fill:#FFDA44;" d="M209.982,129.498V93.594h9.86v27.307h16.284v8.596h-26.144V129.498z"/>
	<path style="fill:#FFDA44;" d="M255.291,129.801c-2.73,0-5.208-0.522-7.433-1.567c-2.225-1.045-4.131-2.419-5.714-4.122   c-1.585-1.702-2.816-3.649-3.692-5.84c-0.877-2.192-1.314-4.45-1.314-6.776c0-2.36,0.455-4.635,1.366-6.827   c0.91-2.19,2.183-4.12,3.818-5.79c1.635-1.668,3.573-3.001,5.816-3.995c2.242-0.994,4.694-1.491,7.358-1.491   c2.73,0,5.208,0.523,7.433,1.568c2.225,1.045,4.129,2.428,5.714,4.147c1.584,1.72,2.807,3.674,3.666,5.866   c0.859,2.192,1.289,4.433,1.289,6.725c0,2.36-0.455,4.627-1.365,6.802c-0.91,2.175-2.175,4.096-3.793,5.764   c-1.618,1.67-3.548,3.01-5.79,4.02C260.407,129.296,257.954,129.801,255.291,129.801z M247.15,111.596   c0,1.214,0.168,2.385,0.505,3.515c0.336,1.13,0.843,2.133,1.517,3.01c0.673,0.877,1.525,1.585,2.553,2.124   c1.028,0.54,2.251,0.809,3.666,0.809c1.416,0,2.646-0.278,3.691-0.835c1.044-0.557,1.896-1.281,2.553-2.175   c0.658-0.893,1.146-1.913,1.467-3.06c0.319-1.146,0.48-2.308,0.48-3.489c0-1.214-0.169-2.384-0.505-3.515   c-0.337-1.129-0.852-2.124-1.543-2.983c-0.691-0.859-1.55-1.55-2.579-2.074c-1.03-0.522-2.234-0.784-3.616-0.784   c-1.416,0-2.638,0.27-3.666,0.809c-1.028,0.54-1.88,1.257-2.553,2.149c-0.675,0.894-1.172,1.904-1.491,3.034   C247.309,109.263,247.15,110.417,247.15,111.596z"/>
	<path style="fill:#FFDA44;" d="M305.203,102.191h-10.316v27.307h-9.86v-27.307h-10.366v-8.597h30.543v8.597H305.203z"/>
	<path style="fill:#FFDA44;" d="M330.538,105.326c-1.011-0.607-2.057-1.145-3.135-1.618c-0.91-0.405-1.93-0.784-3.06-1.138   s-2.234-0.531-3.312-0.531c-0.877,0-1.576,0.135-2.098,0.404c-0.523,0.27-0.784,0.726-0.784,1.366c0,0.473,0.151,0.859,0.455,1.163   c0.304,0.303,0.741,0.582,1.315,0.835c0.573,0.253,1.272,0.498,2.098,0.733c0.826,0.236,1.761,0.523,2.807,0.859   c1.652,0.505,3.143,1.062,4.476,1.67c1.331,0.607,2.469,1.323,3.413,2.149c0.944,0.826,1.67,1.829,2.175,3.009   c0.505,1.181,0.758,2.612,0.758,4.299c0,2.158-0.397,3.97-1.189,5.436c-0.793,1.467-1.838,2.638-3.135,3.515   c-1.298,0.877-2.765,1.509-4.4,1.897c-1.635,0.387-3.279,0.581-4.931,0.581c-1.315,0-2.664-0.101-4.046-0.303   c-1.382-0.203-2.756-0.489-4.12-0.859c-1.366-0.371-2.68-0.809-3.945-1.314c-1.264-0.505-2.436-1.079-3.515-1.72l4.247-8.647   c1.18,0.742,2.41,1.399,3.691,1.972c1.079,0.505,2.302,0.961,3.666,1.366c1.366,0.404,2.756,0.607,4.172,0.607   c1.079,0,1.829-0.144,2.251-0.43c0.421-0.286,0.631-0.666,0.631-1.138c0-0.505-0.21-0.936-0.631-1.29   c-0.422-0.354-1.004-0.666-1.745-0.936c-0.741-0.269-1.593-0.539-2.554-0.809c-0.961-0.269-1.981-0.59-3.06-0.961   c-1.585-0.539-2.951-1.121-4.096-1.745c-1.146-0.623-2.09-1.331-2.832-2.124c-0.741-0.791-1.29-1.694-1.643-2.706   c-0.354-1.011-0.531-2.175-0.531-3.488c0-1.989,0.362-3.742,1.087-5.259c0.725-1.517,1.711-2.781,2.958-3.793   c1.247-1.012,2.671-1.778,4.273-2.301c1.601-0.522,3.295-0.784,5.082-0.784c1.314,0,2.596,0.127,3.843,0.38   c1.247,0.253,2.452,0.573,3.615,0.961c1.163,0.388,2.251,0.809,3.261,1.264c1.012,0.455,1.922,0.885,2.73,1.29L330.538,105.326z"/>
</g>
<g>
	<path style="fill:#FFCD00;" d="M305.203,102.191h-10.316v27.307h-9.86v-27.307h-10.366v-8.597h30.543v8.597H305.203z"/>
	<path style="fill:#FFCD00;" d="M330.538,105.326c-1.011-0.607-2.057-1.145-3.135-1.618c-0.91-0.405-1.93-0.784-3.06-1.138   s-2.234-0.531-3.312-0.531c-0.877,0-1.576,0.135-2.098,0.404c-0.523,0.27-0.784,0.726-0.784,1.366c0,0.473,0.151,0.859,0.455,1.163   c0.304,0.303,0.741,0.582,1.315,0.835c0.573,0.253,1.272,0.498,2.098,0.733c0.826,0.236,1.761,0.523,2.807,0.859   c1.652,0.505,3.143,1.062,4.476,1.67c1.331,0.607,2.469,1.323,3.413,2.149c0.944,0.826,1.67,1.829,2.175,3.009   c0.505,1.181,0.758,2.612,0.758,4.299c0,2.158-0.397,3.97-1.189,5.436c-0.793,1.467-1.838,2.638-3.135,3.515   c-1.298,0.877-2.765,1.509-4.4,1.897c-1.635,0.387-3.279,0.581-4.931,0.581c-1.315,0-2.664-0.101-4.046-0.303   c-1.382-0.203-2.756-0.489-4.12-0.859c-1.366-0.371-2.68-0.809-3.945-1.314c-1.264-0.505-2.436-1.079-3.515-1.72l4.247-8.647   c1.18,0.742,2.41,1.399,3.691,1.972c1.079,0.505,2.302,0.961,3.666,1.366c1.366,0.404,2.756,0.607,4.172,0.607   c1.079,0,1.829-0.144,2.251-0.43c0.421-0.286,0.632-0.666,0.632-1.138c0-0.505-0.21-0.936-0.632-1.29   c-0.422-0.354-1.004-0.666-1.745-0.936c-0.741-0.269-1.593-0.539-2.554-0.809c-0.961-0.269-1.981-0.59-3.06-0.961   c-1.585-0.539-2.951-1.121-4.096-1.745c-1.146-0.623-2.09-1.331-2.832-2.124c-0.741-0.791-1.29-1.694-1.643-2.706   c-0.354-1.011-0.531-2.175-0.531-3.488c0-1.989,0.362-3.742,1.087-5.259c0.725-1.517,1.711-2.781,2.958-3.793   c1.247-1.012,2.671-1.778,4.273-2.301c1.601-0.522,3.295-0.784,5.082-0.784c1.314,0,2.596,0.127,3.843,0.38   c1.247,0.253,2.452,0.573,3.615,0.961c1.163,0.388,2.251,0.809,3.261,1.264c1.012,0.455,1.922,0.885,2.73,1.29L330.538,105.326z"/>
	<path style="fill:#FFCD00;" d="M272.308,104.972c-0.86-2.192-2.082-4.146-3.666-5.866c-1.585-1.72-3.489-3.102-5.714-4.147   c-2.087-0.979-4.395-1.5-6.928-1.562v8.764c1.11,0.071,2.096,0.325,2.957,0.762c1.028,0.523,1.888,1.214,2.579,2.074   c0.69,0.859,1.205,1.854,1.543,2.983c0.337,1.13,0.505,2.301,0.505,3.515c0,1.181-0.16,2.343-0.48,3.489   c-0.322,1.146-0.809,2.167-1.467,3.06c-0.658,0.894-1.509,1.618-2.553,2.175c-0.893,0.475-1.921,0.747-3.084,0.816v8.754   c2.391-0.082,4.607-0.584,6.649-1.505c2.242-1.011,4.172-2.352,5.79-4.02c1.618-1.668,2.883-3.591,3.793-5.764   c0.91-2.174,1.365-4.441,1.365-6.802C273.597,109.405,273.168,107.164,272.308,104.972z"/>
</g>
<g>
</g>
<g>
</g>
<g>
</g>
<g>
</g>
<g>
</g>
<g>
</g>
<g>
</g>
<g>
</g>
<g>
</g>
<g>
</g>
<g>
</g>
<g>
</g>
<g>
</g>
<g>
</g>
<g>
</g>
</svg>
