<?xml version="1.0" encoding="iso-8859-1"?>
<!-- Generator: Adobe Illustrator 19.0.0, SVG Export Plug-In . SVG Version: 6.00 Build 0)  -->
<svg xmlns="http://www.w3.org/2000/svg" xmlns:xlink="http://www.w3.org/1999/xlink" version="1.1" id="Capa_1" x="0px" y="0px" viewBox="0 0 512 512" style="enable-background:new 0 0 512 512;" xml:space="preserve">
<circle style="fill:#50206C;" cx="256" cy="256" r="256"/>
<path style="fill:#3D1952;" d="M512,256c0-19.341-2.145-38.182-6.21-56.297l-99.529-99.529h-66.783v11.13l-11.13-11.13h-66.783  v11.13l-11.13-11.13h-66.783v11.13l-11.13-11.13h-66.783v33.391h0.047l-0.047,0.047l11.084,11.084h-11.084v33.391h0.047  l-0.047,0.047l11.084,11.084h-11.084v33.391h0.047l-0.047,0.047l155.779,155.779h-88.997v33.391l99.67,99.67  C406.033,503.142,512,391.946,512,256z"/>
<circle style="fill:#E1E3FA;" cx="293.543" cy="262.99" r="29.24"/>
<path style="fill:#C4C8F5;" d="M293.468,233.745l0.14,58.488c16.151-0.039,29.213-13.163,29.174-29.314  S309.62,233.706,293.468,233.745z"/>
<rect x="105.739" y="100.174" style="fill:#9CDD05;" width="66.783" height="33.391"/>
<rect x="183.652" y="100.174" style="fill:#FFDA44;" width="66.783" height="33.391"/>
<rect x="261.565" y="100.174" style="fill:#9CDD05;" width="66.783" height="33.391"/>
<rect x="261.565" y="144.696" style="fill:#FF3501;" width="66.783" height="33.391"/>
<rect x="339.478" y="100.174" style="fill:#46F8FF;" width="66.783" height="33.391"/>
<rect x="105.739" y="144.696" style="fill:#FF3501;" width="66.783" height="33.391"/>
<rect x="183.652" y="144.696" style="fill:#46F8FF;" width="66.783" height="33.391"/>
<rect x="339.478" y="144.696" style="fill:#57A4FF;" width="66.783" height="33.391"/>
<rect x="105.739" y="189.217" style="fill:#FFDA44;" width="66.783" height="33.391"/>
<rect x="183.652" y="189.217" style="fill:#57A4FF;" width="66.783" height="33.391"/>
<rect x="339.478" y="189.217" style="fill:#9CDD05;" width="66.783" height="33.391"/>
<rect x="172.522" y="378.435" style="fill:#F7AFD1;" width="133.565" height="33.391"/>
<rect x="172.522" y="395.13" style="fill:#F072AE;" width="133.565" height="16.696"/>
<g>
</g>
<g>
</g>
<g>
</g>
<g>
</g>
<g>
</g>
<g>
</g>
<g>
</g>
<g>
</g>
<g>
</g>
<g>
</g>
<g>
</g>
<g>
</g>
<g>
</g>
<g>
</g>
<g>
</g>
</svg>
