<svg xmlns="http://www.w3.org/2000/svg" height="512pt" version="1.1" viewBox="0 0 512 512" width="512pt">
<g id="surface1">
<path d="M 512 256 C 512 397.386719 397.386719 512 256 512 C 114.613281 512 0 397.386719 0 256 C 0 114.613281 114.613281 0 256 0 C 397.386719 0 512 114.613281 512 256 Z M 512 256 " style=" stroke:none;fill-rule:nonzero;fill:rgb(99.607843%,41.568627%,8.627451%);fill-opacity:1;" />
<path d="M 155.292969 407.582031 L 259.664062 511.953125 C 399.355469 509.992188 512 396.160156 512 256 C 512 242.621094 510.96875 229.484375 508.992188 216.65625 L 373 80.667969 Z M 155.292969 407.582031 " style=" stroke:none;fill-rule:nonzero;fill:rgb(98.039216%,36.470588%,5.882353%);fill-opacity:1;" />
<path d="M 373 431.332031 L 206.855469 431.332031 C 169.382812 431.332031 139 400.953125 139 363.476562 L 139 80.667969 L 373 80.667969 Z M 373 431.332031 " style=" stroke:none;fill-rule:nonzero;fill:rgb(100%,100%,100%);fill-opacity:1;" />
<path d="M 255.167969 80.667969 L 373 80.667969 L 373 431.335938 L 255.167969 431.335938 Z M 255.167969 80.667969 " style=" stroke:none;fill-rule:nonzero;fill:rgb(91.372549%,92.941176%,96.078431%);fill-opacity:1;" />
<path d="M 166.332031 107.667969 L 345.664062 107.667969 L 345.664062 277 L 166.332031 277 Z M 166.332031 107.667969 " style=" stroke:none;fill-rule:nonzero;fill:rgb(43.921569%,46.666667%,53.72549%);fill-opacity:1;" />
<path d="M 255.167969 107.667969 L 345.667969 107.667969 L 345.667969 277 L 255.167969 277 Z M 255.167969 107.667969 " style=" stroke:none;fill-rule:nonzero;fill:rgb(38.823529%,41.176471%,47.058824%);fill-opacity:1;" />
<path d="M 347.804688 319 C 347.804688 331.136719 337.964844 340.976562 325.828125 340.976562 C 313.691406 340.976562 303.855469 331.136719 303.855469 319 C 303.855469 306.863281 313.691406 297.023438 325.828125 297.023438 C 337.964844 297.023438 347.804688 306.863281 347.804688 319 Z M 347.804688 319 " style=" stroke:none;fill-rule:nonzero;fill:rgb(38.823529%,41.176471%,47.058824%);fill-opacity:1;" />
<path d="M 315 371 C 315 383.136719 305.160156 392.976562 293.023438 392.976562 C 280.886719 392.976562 271.050781 383.136719 271.050781 371 C 271.050781 358.863281 280.886719 349.023438 293.023438 349.023438 C 305.160156 349.023438 315 358.863281 315 371 Z M 315 371 " style=" stroke:none;fill-rule:nonzero;fill:rgb(22.745098%,25.490196%,80%);fill-opacity:1;" />
<path d="M 252.328125 327.347656 L 222.960938 327.347656 L 222.960938 297.976562 L 195.703125 297.976562 L 195.703125 327.347656 L 166.332031 327.347656 L 166.332031 354.601562 L 195.703125 354.601562 L 195.703125 383.972656 L 222.960938 383.972656 L 222.960938 354.601562 L 252.328125 354.601562 Z M 252.328125 327.347656 " style=" stroke:none;fill-rule:nonzero;fill:rgb(35.294118%,32.941176%,87.843137%);fill-opacity:1;" />
</g>
</svg>