<svg xmlns="http://www.w3.org/2000/svg" height="512pt" version="1.1" viewBox="0 0 512 512" width="512pt">
<g id="surface1">
<path d="M 512 256 C 512 397.386719 397.386719 512 256 512 C 114.613281 512 0 397.386719 0 256 C 0 114.613281 114.613281 0 256 0 C 397.386719 0 512 114.613281 512 256 Z M 512 256 " style=" stroke:none;fill-rule:nonzero;fill:rgb(35.294118%,32.941176%,87.843137%);fill-opacity:1;" />
<path d="M 512 256 C 512 249.835938 511.769531 243.730469 511.339844 237.675781 L 387.605469 113.941406 L 121.773438 412.773438 L 218.21875 509.21875 C 230.550781 511.042969 243.160156 512 256 512 C 397.386719 512 512 397.386719 512 256 Z M 512 256 " style=" stroke:none;fill-rule:nonzero;fill:rgb(22.745098%,25.490196%,80%);fill-opacity:1;" />
<path d="M 165.441406 316.402344 L 191.792969 342.75 L 121.773438 412.769531 L 95.425781 386.417969 Z M 165.441406 316.402344 " style=" stroke:none;fill-rule:nonzero;fill:rgb(99.607843%,41.568627%,8.627451%);fill-opacity:1;" />
<path d="M 109.4375 400.4375 L 179.457031 330.421875 L 191.789062 342.753906 L 121.769531 412.773438 Z M 109.4375 400.4375 " style=" stroke:none;fill-rule:nonzero;fill:rgb(98.039216%,36.470588%,5.882353%);fill-opacity:1;" />
<path d="M 167.324219 340.871094 C 145.996094 319.546875 145.996094 284.96875 167.324219 263.644531 L 352.316406 78.652344 L 429.546875 155.882812 L 244.554688 340.871094 C 223.226562 362.199219 188.648438 362.199219 167.324219 340.871094 Z M 167.324219 340.871094 " style=" stroke:none;fill-rule:nonzero;fill:rgb(100%,85.490196%,0%);fill-opacity:1;" />
<path d="M 391.773438 118.109375 L 168.1875 341.695312 C 189.574219 362.179688 223.507812 361.917969 244.554688 340.871094 L 429.546875 155.878906 Z M 391.773438 118.109375 " style=" stroke:none;fill-rule:nonzero;fill:rgb(100%,76.078431%,0%);fill-opacity:1;" />
<path d="M 427 259.5 C 427 295.121094 398.121094 324 362.5 324 C 326.878906 324 298 295.121094 298 259.5 C 298 223.878906 326.878906 195 362.5 195 C 398.121094 195 427 223.878906 427 259.5 Z M 427 259.5 " style=" stroke:none;fill-rule:nonzero;fill:rgb(100%,100%,100%);fill-opacity:1;" />
<path d="M 362.5 195 C 362.238281 195 361.976562 195.015625 361.714844 195.019531 L 361.714844 323.980469 C 361.976562 323.984375 362.234375 324 362.5 324 C 398.121094 324 427 295.121094 427 259.5 C 427 223.878906 398.121094 195 362.5 195 Z M 362.5 195 " style=" stroke:none;fill-rule:nonzero;fill:rgb(91.372549%,92.941176%,96.078431%);fill-opacity:1;" />
</g>
</svg>