<?xml version="1.0" encoding="iso-8859-1"?>
<!-- Generator: Adobe Illustrator 19.0.0, SVG Export Plug-In . SVG Version: 6.00 Build 0)  -->
<svg version="1.1" id="Capa_1" xmlns="http://www.w3.org/2000/svg" xmlns:xlink="http://www.w3.org/1999/xlink" x="0px" y="0px"
	 viewBox="0 0 512 512" style="enable-background:new 0 0 512 512;" xml:space="preserve">
<circle style="fill:#0066AA;" cx="256" cy="256" r="256"/>
<path style="fill:#1E2D64;" d="M301.891,507.891c104.033-18.83,186.171-100.525,205.678-204.321L266,62l-2.183,174.58
	L150.943,123.706l-32.432,146.047l136.584,136.584L246,452L301.891,507.891z"/>
<path style="fill:#91CDFF;" d="M131.5,274L131.5,274c-12.15,0-22-9.85-22-22V134c0-12.15,9.85-22,22-22l0,0c12.15,0,22,9.85,22,22
	v118C153.5,264.15,143.65,274,131.5,274z"/>
<path style="fill:#1E8CE6;" d="M109.852,255.905C111.696,266.191,120.683,274,131.5,274s19.804-7.809,21.648-18.095H109.852z"/>
<path style="fill:#C30032;" d="M380.5,400L380.5,400c-12.15,0-22-9.85-22-22V260c0-12.15,9.85-22,22-22l0,0c12.15,0,22,9.85,22,22
	v118C402.5,390.15,392.65,400,380.5,400z"/>
<path style="fill:#D7283C;" d="M358.886,255.905c-0.25,1.328-0.386,2.695-0.386,4.095v118c0,12.15,9.85,22,22,22s22-9.85,22-22V260
	c0-1.4-0.136-2.768-0.386-4.095H358.886z"/>
<circle style="fill:#FFFFFF;" cx="314" cy="291" r="29"/>
<rect x="246" y="62" style="fill:#B9EAFF;" width="20" height="390"/>
<rect x="246" y="255.91" style="fill:#91CDFF;" width="20" height="196.09"/>
<g>
</g>
<g>
</g>
<g>
</g>
<g>
</g>
<g>
</g>
<g>
</g>
<g>
</g>
<g>
</g>
<g>
</g>
<g>
</g>
<g>
</g>
<g>
</g>
<g>
</g>
<g>
</g>
<g>
</g>
</svg>
