<?xml version="1.0" encoding="iso-8859-1"?>
<!-- Generator: Adobe Illustrator 19.0.0, SVG Export Plug-In . SVG Version: 6.00 Build 0)  -->
<svg version="1.1" id="Capa_1" xmlns="http://www.w3.org/2000/svg" xmlns:xlink="http://www.w3.org/1999/xlink" x="0px" y="0px"
	 viewBox="0 0 512 512" style="enable-background:new 0 0 512 512;" xml:space="preserve">
<circle style="fill:#85E374;" cx="256" cy="256" r="256"/>
<path style="fill:#13C37B;" d="M512,256c0-1.33-0.03-2.652-0.05-3.977L326.927,67L222.146,171.781l66.622,66.622L118.72,395.279
	l115.817,115.817C241.615,511.685,248.771,512,256,512C397.385,512,512,397.385,512,256z"/>
<path style="fill:#FFFFFF;" d="M342.219,291.854c-16.973-63.076-56.998-103.101-120.073-120.073
	c8.511-61.343,43.438-96.27,104.781-104.781C343.899,130.076,383.924,170.101,447,187.073
	C438.489,248.416,403.562,283.343,342.219,291.854z"/>
<path style="fill:#E0E0E0;" d="M368.623,143.235l-70.242,70.242c20.579,20.16,35.201,46.277,43.838,78.377
	c61.343-8.511,96.271-43.438,104.781-104.781C414.899,178.436,388.782,163.813,368.623,143.235z"/>
<path style="fill:#AF5500;" d="M118.72,395.279L118.72,395.279c-6.114-6.114-6.114-16.027,0-22.141l246.32-246.32
	c6.114-6.114,16.027-6.114,22.141,0l0,0c6.114,6.114,6.114,16.027,0,22.141l-246.32,246.32
	C134.747,401.393,124.835,401.393,118.72,395.279z"/>
<path style="fill:#944800;" d="M387.182,126.818L387.182,126.818c-0.362-0.362-0.739-0.699-1.126-1.018L117.703,394.154
	c0.319,0.387,0.656,0.764,1.017,1.125c6.114,6.114,16.027,6.114,22.141,0l246.32-246.32
	C393.296,142.845,393.296,132.932,387.182,126.818z"/>
<g>
</g>
<g>
</g>
<g>
</g>
<g>
</g>
<g>
</g>
<g>
</g>
<g>
</g>
<g>
</g>
<g>
</g>
<g>
</g>
<g>
</g>
<g>
</g>
<g>
</g>
<g>
</g>
<g>
</g>
</svg>
