<?xml version="1.0" encoding="iso-8859-1"?>
<!-- Generator: Adobe Illustrator 19.0.0, SVG Export Plug-In . SVG Version: 6.00 Build 0)  -->
<svg xmlns="http://www.w3.org/2000/svg" xmlns:xlink="http://www.w3.org/1999/xlink" version="1.1" id="Capa_1" x="0px" y="0px" viewBox="0 0 512 512" style="enable-background:new 0 0 512 512;" xml:space="preserve">
<circle style="fill:#005ECE;" cx="256" cy="256" r="256"/>
<path style="fill:#00479B;" d="M508.699,297.105l-81.174-81.174l-0.058,0.058l-82.423-82.423H166.957l-89.043,89.043L256,411.826  l2.645-2.81l0.082,0.082L256,411.826l85.521,85.521C428.369,466.57,493.661,390.259,508.699,297.105z"/>
<polygon style="fill:#46F8FF;" points="345.043,133.565 166.957,133.565 77.913,222.609 256,411.826 434.087,222.609 "/>
<polygon style="fill:#83FFFF;" points="77.913,222.609 166.957,222.609 166.957,133.565 "/>
<polygon style="fill:#00D7DF;" points="345.043,133.565 345.043,222.609 166.957,222.609 256,411.826 434.087,222.609 "/>
<polygon style="fill:#00B6BD;" points="345.043,222.609 434.087,222.609 256,411.826 "/>
<polygon style="fill:#005ECE;" points="505.187,409.016 502.541,411.826 505.269,409.099 "/>
<g>
	<polygon style="fill:#FFFFFF;" points="233.739,44.522 222.609,55.838 233.739,66.968 244.87,55.838  "/>
	<polygon style="fill:#FFFFFF;" points="400.696,133.379 389.565,144.696 400.696,155.826 411.826,144.696  "/>
	<polygon style="fill:#FFFFFF;" points="111.304,311.652 100.174,322.968 111.304,334.099 122.435,322.968  "/>
	<polygon style="fill:#FFFFFF;" points="161.253,378.435 144.696,395.268 161.253,411.826 177.811,395.268  "/>
	<polygon style="fill:#FFFFFF;" points="283.964,77.913 267.406,94.747 283.964,111.304 300.522,94.747  "/>
	<polygon style="fill:#FFFFFF;" points="389.565,322.597 378.435,333.913 389.565,345.043 400.696,333.913  "/>
</g>
<g>
</g>
<g>
</g>
<g>
</g>
<g>
</g>
<g>
</g>
<g>
</g>
<g>
</g>
<g>
</g>
<g>
</g>
<g>
</g>
<g>
</g>
<g>
</g>
<g>
</g>
<g>
</g>
<g>
</g>
</svg>
