<svg xmlns="http://www.w3.org/2000/svg" height="512pt" version="1.1" viewBox="0 0 512 512" width="512pt">
<g id="surface1">
<path d="M 512 256 C 512 397.386719 397.386719 512 256 512 C 114.613281 512 0 397.386719 0 256 C 0 114.613281 114.613281 0 256 0 C 397.386719 0 512 114.613281 512 256 Z M 512 256 " style=" stroke:none;fill-rule:nonzero;fill:rgb(100%,85.490196%,0%);fill-opacity:1;" />
<path d="M 512 256 C 512 251.617188 511.890625 247.261719 511.671875 242.933594 L 398.8125 130.070312 L 391.1875 164.6875 L 275 48.5 L 93.261719 194 L 48.5 275 L 138.8125 365.308594 L 112.554688 381.214844 L 243.011719 511.675781 C 247.316406 511.890625 251.644531 512 256 512 C 397.386719 512 512 397.386719 512 256 Z M 512 256 " style=" stroke:none;fill-rule:nonzero;fill:rgb(100%,76.078431%,0%);fill-opacity:1;" />
<path d="M 256 318 C 221.8125 318 194 290.1875 194 256 C 194 221.8125 221.8125 194 256 194 C 290.1875 194 318 221.8125 318 256 C 318 290.1875 290.1875 318 256 318 Z M 256 226 C 239.457031 226 226 239.457031 226 256 C 226 272.542969 239.457031 286 256 286 C 272.542969 286 286 272.542969 286 256 C 286 239.457031 272.542969 226 256 226 Z M 256 226 " style=" stroke:none;fill-rule:nonzero;fill:rgb(94.901961%,27.058824%,0%);fill-opacity:1;" />
<path d="M 318 256 C 318 222 290.488281 194.316406 256.558594 194.015625 L 256.558594 226.015625 C 272.84375 226.3125 286 239.644531 286 256 C 286 272.355469 272.84375 285.6875 256.558594 285.984375 L 256.558594 317.984375 C 290.488281 317.683594 318 290 318 256 Z M 318 256 " style=" stroke:none;fill-rule:nonzero;fill:rgb(81.960784%,20.392157%,0%);fill-opacity:1;" />
<path d="M 463.5 237 L 445.554688 237 C 436.609375 147.097656 364.902344 75.390625 275 66.445312 L 275 48.5 L 237 48.5 L 237 66.445312 C 147.097656 75.390625 75.390625 147.097656 66.445312 237 L 48.5 237 L 48.5 275 L 66.445312 275 C 75.390625 364.902344 147.097656 436.609375 237 445.554688 L 237 463.5 L 275 463.5 L 275 445.554688 C 364.902344 436.609375 436.609375 364.902344 445.554688 275 L 463.5 275 Z M 400.261719 237 L 386.628906 237 C 378.285156 179.390625 332.609375 133.714844 275 125.371094 L 275 111.738281 C 340.0625 120.265625 391.734375 171.9375 400.261719 237 Z M 366.378906 275 C 358.390625 321.5625 321.5625 358.390625 275 366.382812 L 275 340.15625 L 237 340.15625 L 237 366.382812 C 190.4375 358.390625 153.609375 321.5625 145.621094 275 L 171.84375 275 L 171.84375 237 L 145.621094 237 C 153.609375 190.441406 190.4375 153.609375 237 145.621094 L 237 171.84375 L 275 171.84375 L 275 145.621094 C 321.5625 153.609375 358.390625 190.4375 366.378906 237 L 340.15625 237 L 340.15625 275 Z M 237 111.738281 L 237 125.371094 C 179.390625 133.714844 133.714844 179.390625 125.371094 237 L 111.738281 237 C 120.265625 171.9375 171.9375 120.265625 237 111.738281 Z M 111.738281 275 L 125.371094 275 C 133.714844 332.609375 179.390625 378.285156 237 386.628906 L 237 400.257812 C 171.9375 391.734375 120.265625 340.0625 111.738281 275 Z M 275 400.261719 L 275 386.628906 C 332.609375 378.285156 378.285156 332.609375 386.628906 275 L 400.257812 275 C 391.734375 340.0625 340.0625 391.734375 275 400.261719 Z M 275 400.261719 " style=" stroke:none;fill-rule:nonzero;fill:rgb(20%,22.352941%,25.098039%);fill-opacity:1;" />
<path d="M 445.554688 237 C 436.609375 147.097656 364.902344 75.390625 275 66.445312 L 275 48.5 L 256.558594 48.5 L 256.558594 171.84375 L 275 171.84375 L 275 145.621094 C 321.5625 153.609375 358.390625 190.4375 366.378906 237 L 340.15625 237 L 340.15625 275 L 366.378906 275 C 358.390625 321.5625 321.5625 358.390625 275 366.382812 L 275 340.15625 L 256.558594 340.15625 L 256.558594 463.5 L 275 463.5 L 275 445.554688 C 364.902344 436.609375 436.609375 364.902344 445.554688 275 L 463.5 275 L 463.5 237 Z M 275 400.261719 L 275 386.628906 C 332.609375 378.285156 378.285156 332.609375 386.628906 275 L 400.257812 275 C 391.734375 340.0625 340.0625 391.734375 275 400.261719 Z M 386.628906 237 C 378.285156 179.390625 332.609375 133.714844 275 125.371094 L 275 111.738281 C 340.0625 120.261719 391.734375 171.9375 400.261719 237 Z M 386.628906 237 " style=" stroke:none;fill-rule:nonzero;fill:rgb(13.72549%,15.294118%,16.862745%);fill-opacity:1;" />
</g>
</svg>