<?xml version="1.0" encoding="iso-8859-1"?>
<!-- Generator: Adobe Illustrator 19.0.0, SVG Export Plug-In . SVG Version: 6.00 Build 0)  -->
<svg xmlns="http://www.w3.org/2000/svg" xmlns:xlink="http://www.w3.org/1999/xlink" version="1.1" id="Capa_1" x="0px" y="0px" viewBox="0 0 512 512" style="enable-background:new 0 0 512 512;" xml:space="preserve">
<circle style="fill:#F072AE;" cx="256" cy="256" r="256"/>
<path style="fill:#ED539D;" d="M510.394,284.572L384.75,158.927c-5.767-6.502-12.336-11.788-19.399-15.517  c-1.896-1.001-3.78-1.914-5.651-2.747c-0.936-0.416-1.868-0.811-2.797-1.188c-10.22-4.134-20.035-5.859-29.26-5.909  c-24.319-0.132-44.532,11.375-57.22,21.065c-0.437,0.334-0.866,0.666-1.286,0.995c-2.517,1.976-4.707,3.853-6.539,5.514  c-0.305,0.277-0.601,0.548-0.886,0.811c-0.571,0.529-1.102,1.031-1.591,1.501c-0.245,0.236-0.479,0.464-0.702,0.683  c-0.447,0.44-0.854,0.846-1.215,1.215c-1.45,1.477-2.21,2.357-2.21,2.357s-48.698-56.318-109.36-24.302  c-42.776,22.577-67.523,101.984-4.402,165.807l-0.047,0.047l190.91,190.91C428.048,470.219,499.083,386.41,510.394,284.572z"/>
<path style="fill:#FF0C38;" d="M365.36,143.41C304.698,111.395,256,167.712,256,167.712s-48.698-56.318-109.36-24.302  c-43.744,23.087-68.65,105.608,0,170.115C217.117,379.749,256,398.583,256,398.583s38.883-18.834,109.36-85.058  C434.01,249.018,409.104,166.497,365.36,143.41z"/>
<path style="fill:#C70024;" d="M365.36,313.525C294.883,379.749,256,398.583,256,398.583V167.712c0,0,48.698-56.318,109.36-24.302  C409.104,166.497,434.01,249.018,365.36,313.525z"/>
<g>
</g>
<g>
</g>
<g>
</g>
<g>
</g>
<g>
</g>
<g>
</g>
<g>
</g>
<g>
</g>
<g>
</g>
<g>
</g>
<g>
</g>
<g>
</g>
<g>
</g>
<g>
</g>
<g>
</g>
</svg>
