<?xml version="1.0" encoding="iso-8859-1"?>
<!-- Generator: Adobe Illustrator 19.0.0, SVG Export Plug-In . SVG Version: 6.00 Build 0)  -->
<svg version="1.1" id="Capa_1" xmlns="http://www.w3.org/2000/svg" xmlns:xlink="http://www.w3.org/1999/xlink" x="0px" y="0px"
	 viewBox="0 0 512 512" style="enable-background:new 0 0 512 512;" xml:space="preserve">
<circle style="fill:#FFEB50;" cx="256" cy="256" r="256"/>
<path style="fill:#F7D139;" d="M512,256c0-4.122-0.107-8.219-0.3-12.294L389.997,122.003l21.946,108.439L281.5,100l-21.09,160.411
	L158.065,158.066l-52.494,59.958l11.076,165.277L245.1,511.753c3.616,0.151,7.247,0.247,10.9,0.247C397.385,512,512,397.385,512,256
	z"/>
<path style="fill:#0074A3;" d="M256,445.411c-48.527,0-97.054-18.471-133.997-55.414c-73.886-73.886-73.886-194.107,0-267.993
	l36.063,36.063C131.906,184.225,117.5,219.005,117.5,256s14.406,71.775,40.565,97.934c26.997,26.997,62.472,40.498,97.935,40.5
	c35.471,0.003,70.931-13.497,97.935-40.5c54.001-54.001,54.001-141.868,0-195.869l36.063-36.063
	c73.886,73.886,73.886,194.107,0,267.994C353.054,426.939,304.526,445.411,256,445.411z"/>
<g>
	<path style="fill:#0066AA;" d="M389.997,122.003l-36.063,36.063c54.001,54.001,54.001,141.867,0,195.869
		c-27.004,27.004-62.464,40.504-97.935,40.5c-0.016,0-0.032,0-0.048,0v50.976c0.016,0,0.032,0,0.048,0
		c48.526,0,97.054-18.471,133.997-55.414C463.883,316.11,463.883,195.889,389.997,122.003z"/>
	<rect x="230.5" y="100" style="fill:#0066AA;" width="51" height="196"/>
</g>
<rect x="255.95" y="100" style="fill:#1E2D64;" width="25.548" height="196"/>
<g>
</g>
<g>
</g>
<g>
</g>
<g>
</g>
<g>
</g>
<g>
</g>
<g>
</g>
<g>
</g>
<g>
</g>
<g>
</g>
<g>
</g>
<g>
</g>
<g>
</g>
<g>
</g>
<g>
</g>
</svg>
