<?xml version="1.0" encoding="iso-8859-1"?>
<!-- Generator: Adobe Illustrator 19.0.0, SVG Export Plug-In . SVG Version: 6.00 Build 0)  -->
<svg xmlns="http://www.w3.org/2000/svg" xmlns:xlink="http://www.w3.org/1999/xlink" version="1.1" id="Capa_1" x="0px" y="0px" viewBox="0 0 512 512" style="enable-background:new 0 0 512 512;" xml:space="preserve">
<circle style="fill:#005ECE;" cx="256" cy="256" r="256"/>
<path style="fill:#00479B;" d="M510.073,287.465L256,33.391l-14.166,77.913h-8.095l-21.743,86.973L77.913,322.783v33.391v11.13  l0.104-0.012L220.225,509.5c11.693,1.635,23.632,2.5,35.775,2.5C386.73,512,494.563,414.004,510.073,287.465z"/>
<polygon style="fill:#FF3501;" points="278.261,155.826 233.739,155.826 256,33.391 "/>
<polygon style="fill:#C70024;" points="256,33.391 256,155.826 278.261,155.826 "/>
<polygon style="fill:#FF3501;" points="244.87,434.087 166.957,445.217 166.957,422.957 244.87,367.304 "/>
<polygon style="fill:#C70024;" points="267.13,434.087 345.043,445.217 345.043,422.957 267.13,367.304 "/>
<polygon style="fill:#E1E3FA;" points="300.522,389.565 267.13,445.217 244.87,445.217 211.478,389.565 211.478,200.348   233.739,111.304 278.261,111.304 300.522,200.348 "/>
<polygon style="fill:#C4C8F5;" points="278.261,111.304 256,111.304 256,445.217 267.13,445.217 300.522,389.565 300.522,200.348   "/>
<polygon style="fill:#FFFFFF;" points="77.913,367.304 166.957,356.174 233.739,389.565 233.739,178.087 77.913,322.783 "/>
<polygon style="fill:#E1E3FA;" points="434.087,367.304 345.043,356.174 278.261,389.565 278.261,178.087 434.087,322.783 "/>
<polygon style="fill:#46F8FF;" points="256,367.304 212.591,294.957 256,222.609 299.409,294.957 "/>
<polygon style="fill:#00D7DF;" points="256,222.609 256,367.304 299.409,294.957 "/>
<polygon style="fill:#E1E3FA;" points="77.913,322.783 77.913,367.304 233.739,178.087 "/>
<polygon style="fill:#C4C8F5;" points="434.087,322.783 434.087,367.304 278.261,178.087 "/>
<polygon style="fill:#FF3501;" points="77.913,367.304 166.957,356.174 166.957,311.652 "/>
<polygon style="fill:#C70024;" points="434.087,367.304 345.043,356.174 345.043,311.652 "/>
<g>
</g>
<g>
</g>
<g>
</g>
<g>
</g>
<g>
</g>
<g>
</g>
<g>
</g>
<g>
</g>
<g>
</g>
<g>
</g>
<g>
</g>
<g>
</g>
<g>
</g>
<g>
</g>
<g>
</g>
</svg>
