<?xml version="1.0" encoding="iso-8859-1"?>
<!-- Generator: Adobe Illustrator 19.0.0, SVG Export Plug-In . SVG Version: 6.00 Build 0)  -->
<svg xmlns="http://www.w3.org/2000/svg" xmlns:xlink="http://www.w3.org/1999/xlink" version="1.1" id="Capa_1" x="0px" y="0px" viewBox="0 0 512 512" style="enable-background:new 0 0 512 512;" xml:space="preserve">
<circle style="fill:#005ECE;" cx="256" cy="256" r="256"/>
<path style="fill:#00479B;" d="M506.805,306.643L255.814,55.652l-44.522,89.043v242.643l-44.522,35.617v11.13h0.07l-0.07,0.07  l77.591,77.591c3.797,0.167,7.614,0.252,11.452,0.252C379.862,512,483.301,423.771,506.805,306.643z"/>
<polygon style="fill:#FFFFFF;" points="300.522,434.087 211.478,434.087 211.478,144.696 256,55.652 300.522,144.696 "/>
<polygon style="fill:#E1E3FA;" points="256,55.652 256,434.087 300.522,434.087 300.522,144.696 "/>
<polygon style="fill:#FF3501;" points="222.609,434.087 166.957,434.087 166.957,422.957 222.609,378.435 "/>
<polygon style="fill:#C70024;" points="289.391,434.087 345.043,434.087 345.043,422.957 289.391,378.435 "/>
<polygon style="fill:#C6C5CA;" points="256,55.652 211.478,144.696 211.478,155.826 256,155.826 "/>
<polygon style="fill:#ACABB1;" points="300.522,155.826 300.522,144.696 256,55.652 256,155.826 "/>
<rect x="211.478" y="144.696" style="fill:#FF3501;" width="89.043" height="22.261"/>
<rect x="256" y="144.696" style="fill:#C70024;" width="44.522" height="22.261"/>
<circle style="fill:#46F8FF;" cx="256" cy="233.739" r="23.751"/>
<path style="fill:#00D7DF;" d="M256,209.988v47.501c13.117,0,23.751-10.634,23.751-23.751  C279.751,220.622,269.117,209.988,256,209.988z"/>
<g>
</g>
<g>
</g>
<g>
</g>
<g>
</g>
<g>
</g>
<g>
</g>
<g>
</g>
<g>
</g>
<g>
</g>
<g>
</g>
<g>
</g>
<g>
</g>
<g>
</g>
<g>
</g>
<g>
</g>
</svg>
