<?xml version="1.0" encoding="iso-8859-1"?>
<!-- Generator: Adobe Illustrator 19.0.0, SVG Export Plug-In . SVG Version: 6.00 Build 0)  -->
<svg version="1.1" id="Capa_1" xmlns="http://www.w3.org/2000/svg" xmlns:xlink="http://www.w3.org/1999/xlink" x="0px" y="0px"
	 viewBox="0 0 512 512" style="enable-background:new 0 0 512 512;" xml:space="preserve">
<circle style="fill:#FFEB50;" cx="256" cy="256" r="256"/>
<path style="fill:#F7D139;" d="M319.306,130.306l-24.234-22.234l-42.488,35.845L202.538,93l-6.268,101.049L93,202.539
	l116.324,116.324L93,329.462l181.845,181.845c126.361-9.195,227.267-110.102,236.462-236.462L329.462,93L319.306,130.306z"/>
<path style="fill:#0066AA;" d="M419,202.538v-20h-89.538V93h-20v89.538H202.538V93h-20v89.539H93v20h89.538v106.924H93v20h89.538
	V419h20v-89.538h106.924V419h20v-89.538H419v-20h-89.538V202.538H419z M309.462,309.462H202.538V202.539h106.924V309.462z"/>
<polygon style="fill:#1E2D64;" points="419,202.538 419,182.538 329.462,182.538 329.462,93 309.462,93 309.462,182.538 
	255.952,182.538 255.952,202.538 309.462,202.538 309.462,309.462 255.952,309.462 255.952,329.462 309.462,329.462 309.462,419 
	329.462,419 329.462,329.462 419,329.462 419,309.462 329.462,309.462 329.462,202.538 "/>
<circle style="fill:#FF4682;" cx="256" cy="255" r="40"/>
<path style="fill:#C42364;" d="M256,215c-0.016,0-0.032,0.001-0.048,0.001v79.998c0.016,0,0.031,0.001,0.048,0.001
	c22.091,0,40-17.909,40-40S278.091,215,256,215z"/>
<polygon style="fill:#333333;" points="295.071,108.071 280.929,93.929 256,118.857 231.071,93.929 216.929,108.072 241.857,133 
	216.929,157.929 231.071,172.071 256,147.143 280.929,172.072 295.071,157.929 270.142,133 "/>
<g>
	<polygon style="fill:#1A1A1A;" points="256,147.143 280.929,172.072 295.071,157.929 270.142,133 295.071,108.071 280.929,93.929 
		256,118.857 	"/>
	<polygon style="fill:#1A1A1A;" points="420.322,281.179 395.393,256.25 420.321,231.321 406.179,217.179 381.25,242.108 
		356.321,217.179 342.179,231.322 367.108,256.25 342.179,281.179 356.321,295.322 381.25,270.393 406.18,295.322 	"/>
</g>
<g>
</g>
<g>
</g>
<g>
</g>
<g>
</g>
<g>
</g>
<g>
</g>
<g>
</g>
<g>
</g>
<g>
</g>
<g>
</g>
<g>
</g>
<g>
</g>
<g>
</g>
<g>
</g>
<g>
</g>
</svg>
