<svg xmlns="http://www.w3.org/2000/svg" height="512pt" version="1.1" viewBox="0 0 512 512" width="512pt">
<g id="surface1">
<path d="M 512 256 C 512 397.386719 397.386719 512 256 512 C 114.613281 512 0 397.386719 0 256 C 0 114.613281 114.613281 0 256 0 C 397.386719 0 512 114.613281 512 256 Z M 512 256 " style=" stroke:none;fill-rule:nonzero;fill:rgb(99.607843%,41.568627%,8.627451%);fill-opacity:1;" />
<path d="M 512 256 C 512 238.050781 510.144531 220.535156 506.628906 203.628906 L 420 117 L 92 405.902344 L 189.300781 503.203125 C 210.570312 508.929688 232.925781 512 256 512 C 397.386719 512 512 397.386719 512 256 Z M 512 256 " style=" stroke:none;fill-rule:nonzero;fill:rgb(98.039216%,36.470588%,5.882353%);fill-opacity:1;" />
<path d="M 92 117 L 420 117 L 420 405.902344 L 92 405.902344 Z M 92 117 " style=" stroke:none;fill-rule:nonzero;fill:rgb(35.294118%,32.941176%,87.843137%);fill-opacity:1;" />
<path d="M 255.761719 117 L 420 117 L 420 405.902344 L 255.761719 405.902344 Z M 255.761719 117 " style=" stroke:none;fill-rule:nonzero;fill:rgb(22.745098%,25.490196%,80%);fill-opacity:1;" />
<path d="M 92 283.796875 L 420 283.796875 L 420 405.902344 L 92 405.902344 Z M 92 283.796875 " style=" stroke:none;fill-rule:nonzero;fill:rgb(22.745098%,25.490196%,80%);fill-opacity:1;" />
<path d="M 255.761719 283.796875 L 420 283.796875 L 420 405.902344 L 255.761719 405.902344 Z M 255.761719 283.796875 " style=" stroke:none;fill-rule:nonzero;fill:rgb(22.352941%,27.058824%,73.72549%);fill-opacity:1;" />
<path d="M 115 161.261719 L 203 161.261719 L 203 268 L 115 268 Z M 115 161.261719 " style=" stroke:none;fill-rule:nonzero;fill:rgb(100%,100%,100%);fill-opacity:1;" />
<path d="M 309 161.261719 L 397 161.261719 L 397 268 L 309 268 Z M 309 161.261719 " style=" stroke:none;fill-rule:nonzero;fill:rgb(91.372549%,92.941176%,96.078431%);fill-opacity:1;" />
<path d="M 212 161.261719 L 300 161.261719 L 300 268 L 212 268 Z M 212 161.261719 " style=" stroke:none;fill-rule:nonzero;fill:rgb(100%,100%,100%);fill-opacity:1;" />
<path d="M 255.761719 161.261719 L 300 161.261719 L 300 268 L 255.761719 268 Z M 255.761719 161.261719 " style=" stroke:none;fill-rule:nonzero;fill:rgb(91.372549%,92.941176%,96.078431%);fill-opacity:1;" />
<path d="M 151.171875 262.4375 L 132.351562 251.039062 L 166.742188 194.238281 L 131.261719 194.238281 L 131.261719 172.238281 L 186.261719 172.238281 L 195.671875 188.9375 Z M 151.171875 262.4375 " style=" stroke:none;fill-rule:nonzero;fill:rgb(100%,85.490196%,0%);fill-opacity:1;" />
<path d="M 248.410156 262.4375 L 229.589844 251.039062 L 263.980469 194.238281 L 228.5 194.238281 L 228.5 172.238281 L 283.5 172.238281 L 292.910156 188.9375 Z M 248.410156 262.4375 " style=" stroke:none;fill-rule:nonzero;fill:rgb(100%,85.490196%,0%);fill-opacity:1;" />
<path d="M 283.5 172.238281 L 255.761719 172.238281 L 255.761719 194.238281 L 263.980469 194.238281 L 255.761719 207.8125 L 255.761719 250.292969 L 292.910156 188.9375 Z M 283.5 172.238281 " style=" stroke:none;fill-rule:nonzero;fill:rgb(100%,76.078431%,0%);fill-opacity:1;" />
<path d="M 345.410156 262.4375 L 326.589844 251.039062 L 360.980469 194.238281 L 325.5 194.238281 L 325.5 172.238281 L 380.5 172.238281 L 389.910156 188.9375 Z M 345.410156 262.4375 " style=" stroke:none;fill-rule:nonzero;fill:rgb(100%,76.078431%,0%);fill-opacity:1;" />
<path d="M 200.5 283.796875 L 311.5 283.796875 L 311.5 405.902344 L 200.5 405.902344 Z M 200.5 283.796875 " style=" stroke:none;fill-rule:nonzero;fill:rgb(13.72549%,19.607843%,71.764706%);fill-opacity:1;" />
<path d="M 255.761719 283.796875 L 311.5 283.796875 L 311.5 405.902344 L 255.761719 405.902344 Z M 255.761719 283.796875 " style=" stroke:none;fill-rule:nonzero;fill:rgb(12.54902%,20%,64.705882%);fill-opacity:1;" />
<path d="M 288.25 341.375 C 288.25 359.1875 273.8125 373.625 256 373.625 C 238.1875 373.625 223.75 359.1875 223.75 341.375 C 223.75 323.5625 238.1875 309.125 256 309.125 C 273.8125 309.125 288.25 323.5625 288.25 341.375 Z M 288.25 341.375 " style=" stroke:none;fill-rule:nonzero;fill:rgb(100%,58.431373%,0%);fill-opacity:1;" />
<path d="M 256 309.125 C 255.921875 309.125 255.84375 309.128906 255.761719 309.132812 L 255.761719 373.617188 C 255.84375 373.617188 255.921875 373.625 256 373.625 C 273.8125 373.625 288.25 359.1875 288.25 341.375 C 288.25 323.5625 273.8125 309.125 256 309.125 Z M 256 309.125 " style=" stroke:none;fill-rule:nonzero;fill:rgb(99.607843%,50.980392%,1.960784%);fill-opacity:1;" />
</g>
</svg>