<svg xmlns="http://www.w3.org/2000/svg" height="512pt" version="1.1" viewBox="0 0 512 512" width="512pt">
<g id="surface1">
<path d="M 512 256 C 512 397.386719 397.386719 512 256 512 C 114.613281 512 0 397.386719 0 256 C 0 114.613281 114.613281 0 256 0 C 397.386719 0 512 114.613281 512 256 Z M 512 256 " style=" stroke:none;fill-rule:nonzero;fill:rgb(2.352941%,80%,67.058824%);fill-opacity:1;" />
<path d="M 512 256 C 512 253.28125 511.941406 250.574219 511.859375 247.878906 L 391.515625 127.535156 L 120.484375 324.464844 L 210.734375 414.714844 L 174.5 460 L 224.578125 510.078125 C 234.878906 511.339844 245.359375 512 256 512 C 397.386719 512 512 397.386719 512 256 Z M 512 256 " style=" stroke:none;fill-rule:nonzero;fill:rgb(0%,74.117647%,61.568627%);fill-opacity:1;" />
<path d="M 337.5 460 L 256 440.242188 L 174.5 460 L 174.5 326 L 337.5 326 Z M 337.5 460 " style=" stroke:none;fill-rule:nonzero;fill:rgb(35.294118%,32.941176%,87.843137%);fill-opacity:1;" />
<path d="M 337.5 326 L 256 326 L 256 440.242188 L 337.5 460 Z M 337.5 326 " style=" stroke:none;fill-rule:nonzero;fill:rgb(22.745098%,25.490196%,80%);fill-opacity:1;" />
<path d="M 88.5 226 L 115.679688 180.40625 L 120.484375 127.535156 L 169.304688 106.65625 L 204.226562 66.65625 L 256 78.5 L 307.773438 66.65625 L 342.695312 106.65625 L 391.515625 127.535156 L 396.320312 180.402344 L 423.5 226 L 396.320312 271.59375 L 391.515625 324.464844 L 342.695312 345.34375 L 307.773438 385.34375 L 256 373.5 L 204.226562 385.34375 L 169.304688 345.34375 L 120.484375 324.464844 L 115.679688 271.597656 Z M 88.5 226 " style=" stroke:none;fill-rule:nonzero;fill:rgb(100%,85.490196%,0%);fill-opacity:1;" />
<path d="M 396.320312 180.402344 L 391.515625 127.535156 L 342.695312 106.65625 L 307.769531 66.65625 L 256 78.5 L 256 373.5 L 307.773438 385.34375 L 342.695312 345.34375 L 391.515625 324.464844 L 396.320312 271.59375 L 423.5 226 Z M 396.320312 180.402344 " style=" stroke:none;fill-rule:nonzero;fill:rgb(100%,76.078431%,0%);fill-opacity:1;" />
<path d="M 362 228 C 362 286.542969 314.542969 334 256 334 C 197.457031 334 150 286.542969 150 228 C 150 169.457031 197.457031 122 256 122 C 314.542969 122 362 169.457031 362 228 Z M 362 228 " style=" stroke:none;fill-rule:nonzero;fill:rgb(99.607843%,41.568627%,8.627451%);fill-opacity:1;" />
<path d="M 256 122 L 256 334 C 314.542969 334 362 286.542969 362 228 C 362 169.457031 314.542969 122 256 122 Z M 256 122 " style=" stroke:none;fill-rule:nonzero;fill:rgb(98.039216%,36.470588%,5.882353%);fill-opacity:1;" />
<path d="M 239.5 153 L 272.5 153 L 272.5 303 L 239.5 303 Z M 239.5 153 " style=" stroke:none;fill-rule:nonzero;fill:rgb(100%,100%,100%);fill-opacity:1;" />
<path d="M 256 153 L 272.5 153 L 272.5 303 L 256 303 Z M 256 153 " style=" stroke:none;fill-rule:nonzero;fill:rgb(91.372549%,92.941176%,96.078431%);fill-opacity:1;" />
</g>
</svg>