<?xml version="1.0" encoding="iso-8859-1"?>
<!-- Generator: Adobe Illustrator 19.0.0, SVG Export Plug-In . SVG Version: 6.00 Build 0)  -->
<svg xmlns="http://www.w3.org/2000/svg" xmlns:xlink="http://www.w3.org/1999/xlink" version="1.1" id="Capa_1" x="0px" y="0px" viewBox="0 0 512 512" style="enable-background:new 0 0 512 512;" xml:space="preserve">
<circle style="fill:#50206C;" cx="256" cy="256" r="256"/>
<path style="fill:#3D1952;" d="M511.746,267.508l-155.59-155.59l0.018-0.018l-10.175-10.175l-0.018,0.018l-0.018-0.018  l-10.158,10.158l-10.158-10.158L315.472,111.9l10.158,10.158l-38.032,38.032l-84.634-84.634c-0.116-0.116-0.233-0.229-0.351-0.343  c-0.236-0.225-0.475-0.445-0.72-0.659c-0.366-0.321-0.742-0.629-1.128-0.923c-0.514-0.393-1.044-0.764-1.591-1.111  c-0.273-0.174-0.55-0.342-0.831-0.504c-0.28-0.163-0.565-0.319-0.855-0.47s-0.581-0.297-0.877-0.436s-0.595-0.274-0.899-0.403  c-0.21-0.089-0.424-0.175-0.638-0.259c-1.327-0.521-2.718-0.941-4.167-1.258c-0.505-0.11-1.016-0.209-1.535-0.295  c-0.346-0.058-0.695-0.11-1.045-0.156c-0.193-0.026-0.387-0.049-0.581-0.071c-0.322-0.037-0.647-0.07-0.973-0.098  c-0.554-0.048-1.115-0.083-1.683-0.106c-0.736-0.029-1.48-0.038-2.236-0.024c-0.567,0.01-1.138,0.031-1.714,0.065  c-0.769,0.045-1.546,0.109-2.332,0.195c-0.393,0.042-0.788,0.09-1.184,0.144c-0.198,0.027-0.397,0.055-0.597,0.083  c-0.398,0.058-0.799,0.121-1.202,0.189c-1.208,0.206-2.431,0.456-3.667,0.752c-0.985,0.236-1.978,0.501-2.979,0.792  c-0.256,0.075-0.513,0.151-0.77,0.229c-0.631,0.193-1.264,0.396-1.9,0.611c-0.424,0.142-0.848,0.291-1.274,0.444  c-0.639,0.229-1.28,0.47-1.922,0.721c-1.072,0.419-2.148,0.867-3.228,1.346c-0.648,0.287-1.298,0.584-1.948,0.893  c-0.362,0.171-0.725,0.347-1.087,0.525c-0.505,0.248-1.012,0.503-1.518,0.765c-0.652,0.336-1.306,0.683-1.959,1.041  c-0.313,0.171-0.626,0.346-0.939,0.522c-0.776,0.436-1.553,0.886-2.327,1.352c-0.218,0.13-0.435,0.263-0.653,0.395  c-0.302,0.185-0.603,0.371-0.904,0.56c-0.351,0.22-0.702,0.442-1.053,0.667c-1.086,0.698-2.17,1.425-3.251,2.179  c-0.865,0.603-1.726,1.225-2.586,1.863c-0.644,0.48-1.287,0.968-1.928,1.467c-0.427,0.333-0.853,0.669-1.278,1.011  c-0.425,0.341-0.849,0.687-1.272,1.036c-0.423,0.35-0.845,0.703-1.266,1.062c-2.314,1.971-4.591,4.072-6.815,6.295  c-1.416,1.416-2.781,2.853-4.095,4.307c-0.375,0.415-0.747,0.833-1.113,1.251c-2.751,3.137-5.265,6.345-7.528,9.587  c-0.302,0.432-0.599,0.865-0.892,1.298c-0.147,0.217-0.292,0.433-0.436,0.65c-0.577,0.867-1.135,1.736-1.676,2.607  c-0.676,1.087-1.323,2.177-1.942,3.266c-0.247,0.435-0.491,0.872-0.729,1.307c-0.595,1.089-1.162,2.177-1.7,3.262  c-0.323,0.651-0.634,1.302-0.936,1.952c-0.2,0.433-0.397,0.866-0.589,1.298c-0.574,1.297-1.105,2.587-1.594,3.87  c-0.325,0.856-0.631,1.707-0.917,2.556c-0.215,0.636-0.419,1.269-0.611,1.9c-0.065,0.21-0.127,0.42-0.189,0.63  c-0.308,1.047-0.587,2.088-0.834,3.119c-0.049,0.206-0.097,0.412-0.145,0.618c-0.093,0.411-0.183,0.82-0.266,1.228  c-0.083,0.407-0.163,0.814-0.236,1.218c-0.294,1.616-0.506,3.206-0.637,4.76c-0.017,0.195-0.031,0.388-0.045,0.581  c-0.055,0.774-0.088,1.538-0.101,2.293c-0.013,0.755-0.004,1.5,0.024,2.236c0.023,0.569,0.058,1.131,0.107,1.686  c0.028,0.324,0.06,0.644,0.097,0.963c0.022,0.197,0.047,0.393,0.072,0.588c0.047,0.352,0.099,0.7,0.156,1.045  c0.029,0.173,0.059,0.345,0.09,0.516c0.062,0.343,0.131,0.682,0.205,1.02c0.065,0.295,0.135,0.588,0.207,0.878  c0.021,0.085,0.043,0.169,0.065,0.254c0.273,1.045,0.601,2.058,0.985,3.035c0.085,0.214,0.17,0.427,0.259,0.638  c0.129,0.303,0.263,0.603,0.403,0.899s0.285,0.589,0.436,0.877c0.151,0.288,0.308,0.573,0.471,0.855  c0.163,0.28,0.331,0.558,0.504,0.831c0.347,0.547,0.718,1.077,1.111,1.591c0.295,0.385,0.602,0.761,0.923,1.128  c0.214,0.244,0.433,0.484,0.659,0.72c0.112,0.118,0.227,0.235,0.343,0.351l36.176,36.176L65.99,284.782  c-8.693,8.694-8.693,22.788,0,31.481l0,0c0.413,0.414,0.839,0.807,1.277,1.182l194.492,194.492  C396.649,508.958,505.811,401.647,511.746,267.508z"/>
<path style="fill:#6E76E5;" d="M307.8,300.522c-53.414,0-96.715,24.743-96.715,55.266v23.033c0,30.522,43.301,55.266,96.715,55.266  s96.715-24.743,96.715-55.266v-23.033C404.514,325.265,361.214,300.522,307.8,300.522z"/>
<ellipse style="fill:#E1E3FA;" cx="307.801" cy="355.784" rx="96.712" ry="55.266"/>
<path style="fill:#515BE0;" d="M307.8,300.522v133.565c53.414,0,96.715-24.743,96.715-55.266v-23.033  C404.514,325.265,361.214,300.522,307.8,300.522z"/>
<path style="fill:#C4C8F5;" d="M307.8,300.522v110.532c53.414,0,96.715-24.743,96.715-55.266S361.214,300.522,307.8,300.522z"/>
<path style="fill:#CC7400;" d="M307.8,256c-43.03,0-77.913,34.883-77.913,77.913v11.13c0,24.588,34.883,44.522,77.913,44.522  s77.913-19.933,77.913-44.522v-11.13C385.713,290.883,350.83,256,307.8,256L307.8,256z"/>
<path style="fill:#AA6100;" d="M307.8,256L307.8,256v133.565c43.03,0,77.913-19.933,77.913-44.522v-11.13  C385.713,290.883,350.83,256,307.8,256z"/>
<g>
	<polygon style="fill:#FFFFFF;" points="249.338,306.251 241.017,314.572 257.658,331.213 241.017,347.854 249.338,356.174    274.3,331.213  "/>
	<polygon style="fill:#FFFFFF;" points="348.225,309.863 356.545,318.184 339.903,334.825 356.545,351.466 348.225,359.787    323.262,334.825  "/>
</g>
<path style="fill:#FFA733;" d="M129.3,95.546c-25.889,25.889-34.884,58.87-20.09,73.665l88.093,88.093  c14.793,14.793,47.775,5.799,73.665-20.09s34.884-58.87,20.09-73.665l-88.093-88.093C188.17,60.662,155.189,69.656,129.3,95.546z"/>
<ellipse transform="matrix(-0.7071 -0.7071 0.7071 -0.7071 179.9464 319.2071)" style="fill:#FFDA44;" cx="156.083" cy="122.335" rx="37.877" ry="66.292"/>
<path style="fill:#CC7400;" d="M184.047,229.688l-86.575,86.575c-8.693,8.693-22.788,8.693-31.481,0l0,0  c-8.693-8.693-8.693-22.788,0-31.481l86.575-86.575c8.693-8.693,22.788-8.693,31.481,0l0,0  C192.741,206.9,192.741,220.995,184.047,229.688z"/>
<g>
	<polygon style="fill:#FF3501;" points="396.085,179.637 380.345,195.378 364.604,179.637 348.862,195.378 364.604,211.119    348.862,226.859 364.604,242.6 380.345,226.859 396.085,242.6 411.826,226.859 396.085,211.119 411.826,195.378  "/>
	<polygon style="fill:#FF3501;" points="345.998,101.724 335.823,111.9 325.648,101.724 315.471,111.9 325.648,122.075    315.471,132.251 325.648,142.426 335.823,132.251 345.998,142.426 356.174,132.251 345.998,122.075 356.174,111.9  "/>
</g>
<g>
</g>
<g>
</g>
<g>
</g>
<g>
</g>
<g>
</g>
<g>
</g>
<g>
</g>
<g>
</g>
<g>
</g>
<g>
</g>
<g>
</g>
<g>
</g>
<g>
</g>
<g>
</g>
<g>
</g>
</svg>
