<svg xmlns="http://www.w3.org/2000/svg" height="512pt" version="1.1" viewBox="0 0 512 512" width="512pt">
<g id="surface1">
<path d="M 512 256 C 512 397.386719 397.386719 512 256 512 C 114.613281 512 0 397.386719 0 256 C 0 114.613281 114.613281 0 256 0 C 397.386719 0 512 114.613281 512 256 Z M 512 256 " style=" stroke:none;fill-rule:nonzero;fill:rgb(20%,22.352941%,25.098039%);fill-opacity:1;" />
<path d="M 512 256 C 512 244.632812 511.25 233.445312 509.8125 222.46875 L 426.339844 138.996094 L 408.4375 182.570312 L 305.519531 79.652344 L 79.667969 387.128906 L 197.917969 505.378906 C 216.578125 509.707031 236.019531 512 256 512 C 397.386719 512 512 397.386719 512 256 Z M 512 256 " style=" stroke:none;fill-rule:nonzero;fill:rgb(13.72549%,15.294118%,16.862745%);fill-opacity:1;" />
<path d="M 79.667969 192.121094 L 432.335938 192.121094 L 432.335938 387.128906 L 79.667969 387.128906 Z M 79.667969 192.121094 " style=" stroke:none;fill-rule:nonzero;fill:rgb(99.607843%,41.568627%,8.627451%);fill-opacity:1;" />
<path d="M 255.761719 192.121094 L 432.332031 192.121094 L 432.332031 387.128906 L 255.761719 387.128906 Z M 255.761719 192.121094 " style=" stroke:none;fill-rule:nonzero;fill:rgb(98.039216%,36.470588%,5.882353%);fill-opacity:1;" />
<path d="M 432.332031 236.605469 L 79.667969 236.605469 L 79.667969 157.984375 C 79.667969 139.695312 94.492188 124.871094 112.78125 124.871094 L 399.21875 124.871094 C 417.507812 124.871094 432.332031 139.695312 432.332031 157.984375 Z M 432.332031 236.605469 " style=" stroke:none;fill-rule:nonzero;fill:rgb(94.901961%,27.058824%,0%);fill-opacity:1;" />
<path d="M 432.332031 157.984375 C 432.332031 139.695312 417.507812 124.871094 399.21875 124.871094 L 255.761719 124.871094 L 255.761719 236.605469 L 432.332031 236.605469 Z M 432.332031 157.984375 " style=" stroke:none;fill-rule:nonzero;fill:rgb(81.960784%,20.392157%,0%);fill-opacity:1;" />
<path d="M 133.175781 124.871094 L 187.046875 124.871094 L 187.046875 236.605469 L 133.175781 236.605469 Z M 133.175781 124.871094 " style=" stroke:none;fill-rule:nonzero;fill:rgb(100%,58.431373%,0%);fill-opacity:1;" />
<path d="M 324.953125 124.871094 L 378.824219 124.871094 L 378.824219 236.605469 L 324.953125 236.605469 Z M 324.953125 124.871094 " style=" stroke:none;fill-rule:nonzero;fill:rgb(99.607843%,50.980392%,1.960784%);fill-opacity:1;" />
<path d="M 133.175781 236.605469 L 187.046875 236.605469 L 187.046875 387.128906 L 133.175781 387.128906 Z M 133.175781 236.605469 " style=" stroke:none;fill-rule:nonzero;fill:rgb(100%,69.411765%,23.137255%);fill-opacity:1;" />
<path d="M 324.953125 236.605469 L 378.824219 236.605469 L 378.824219 387.128906 L 324.953125 387.128906 Z M 324.953125 236.605469 " style=" stroke:none;fill-rule:nonzero;fill:rgb(100%,64.313725%,14.901961%);fill-opacity:1;" />
<path d="M 316.355469 114.160156 C 316.355469 147.492188 289.332031 174.515625 256 174.515625 C 222.667969 174.515625 195.644531 147.492188 195.644531 114.160156 C 195.644531 80.824219 222.667969 53.804688 256 53.804688 C 289.332031 53.804688 316.355469 80.824219 316.355469 114.160156 Z M 316.355469 114.160156 " style=" stroke:none;fill-rule:nonzero;fill:rgb(100%,85.490196%,0%);fill-opacity:1;" />
<path d="M 256 53.804688 C 255.921875 53.804688 255.84375 53.808594 255.761719 53.808594 L 255.761719 174.507812 C 255.84375 174.507812 255.921875 174.515625 256 174.515625 C 289.332031 174.515625 316.355469 147.492188 316.355469 114.160156 C 316.355469 80.824219 289.332031 53.804688 256 53.804688 Z M 256 53.804688 " style=" stroke:none;fill-rule:nonzero;fill:rgb(100%,76.078431%,0%);fill-opacity:1;" />
<path d="M 294.558594 114.160156 C 294.558594 135.453125 277.292969 152.714844 256 152.714844 C 234.707031 152.714844 217.441406 135.453125 217.441406 114.160156 C 217.441406 92.863281 234.707031 75.601562 256 75.601562 C 277.292969 75.601562 294.558594 92.863281 294.558594 114.160156 Z M 294.558594 114.160156 " style=" stroke:none;fill-rule:nonzero;fill:rgb(100%,76.078431%,0%);fill-opacity:1;" />
<path d="M 256 75.601562 C 255.921875 75.601562 255.84375 75.605469 255.761719 75.605469 L 255.761719 152.710938 C 255.84375 152.710938 255.921875 152.714844 256 152.714844 C 277.292969 152.714844 294.558594 135.453125 294.558594 114.15625 C 294.558594 92.863281 277.292969 75.601562 256 75.601562 Z M 256 75.601562 " style=" stroke:none;fill-rule:nonzero;fill:rgb(100%,69.019608%,0%);fill-opacity:1;" />
<path d="M 276.667969 276.667969 C 276.667969 265.253906 267.414062 256 256 256 C 244.585938 256 235.332031 265.253906 235.332031 276.667969 C 235.332031 283.675781 238.832031 289.859375 244.164062 293.597656 L 244.164062 322.667969 L 267.832031 322.667969 L 267.832031 293.597656 C 273.167969 289.859375 276.667969 283.675781 276.667969 276.667969 Z M 276.667969 276.667969 " style=" stroke:none;fill-rule:nonzero;fill:rgb(94.901961%,27.058824%,0%);fill-opacity:1;" />
<path d="M 256 256 C 255.921875 256 255.84375 256.011719 255.761719 256.011719 L 255.761719 322.667969 L 267.832031 322.667969 L 267.832031 293.597656 C 273.167969 289.859375 276.664062 283.675781 276.664062 276.667969 C 276.667969 265.253906 267.414062 256 256 256 Z M 256 256 " style=" stroke:none;fill-rule:nonzero;fill:rgb(81.960784%,20.392157%,0%);fill-opacity:1;" />
</g>
</svg>