<svg xmlns="http://www.w3.org/2000/svg" height="512pt" version="1.1" viewBox="0 0 512 512" width="512pt">
<g id="surface1">
<path d="M 512 256 C 512 397.386719 397.386719 512 256 512 C 114.613281 512 0 397.386719 0 256 C 0 114.613281 114.613281 0 256 0 C 397.386719 0 512 114.613281 512 256 Z M 512 256 " style=" stroke:none;fill-rule:nonzero;fill:rgb(100%,85.490196%,0%);fill-opacity:1;" />
<path d="M 290.21875 509.71875 C 404.226562 494.488281 494.488281 404.226562 509.71875 290.21875 L 280.5 61 L 249.46875 219.96875 L 146.5 117 L 93.5 241 L 256.382812 403.882812 L 231.5 451 Z M 290.21875 509.71875 " style=" stroke:none;fill-rule:nonzero;fill:rgb(100%,76.078431%,0%);fill-opacity:1;" />
<path d="M 231.5 61 L 280.5 61 L 280.5 451 L 231.5 451 Z M 231.5 61 " style=" stroke:none;fill-rule:nonzero;fill:rgb(20%,22.352941%,25.098039%);fill-opacity:1;" />
<path d="M 231.5 256 L 280.5 256 L 280.5 451 L 231.5 451 Z M 231.5 256 " style=" stroke:none;fill-rule:nonzero;fill:rgb(13.72549%,15.294118%,16.862745%);fill-opacity:1;" />
<path d="M 93.5 117 L 146.5 117 L 146.5 241 L 93.5 241 Z M 93.5 117 " style=" stroke:none;fill-rule:nonzero;fill:rgb(38.823529%,41.176471%,47.058824%);fill-opacity:1;" />
<path d="M 365.5 271 L 418.5 271 L 418.5 395 L 365.5 395 Z M 365.5 271 " style=" stroke:none;fill-rule:nonzero;fill:rgb(33.333333%,35.294118%,40%);fill-opacity:1;" />
<path d="M 93.5 177 L 146.5 177 L 146.5 241 L 93.5 241 Z M 93.5 177 " style=" stroke:none;fill-rule:nonzero;fill:rgb(25.490196%,28.627451%,32.156863%);fill-opacity:1;" />
<path d="M 365.5 331 L 418.5 331 L 418.5 395 L 365.5 395 Z M 365.5 331 " style=" stroke:none;fill-rule:nonzero;fill:rgb(25.490196%,28.627451%,32.156863%);fill-opacity:1;" />
<path d="M 359 205.5 C 359 220.136719 347.136719 232 332.5 232 C 317.863281 232 306 220.136719 306 205.5 C 306 190.863281 317.863281 179 332.5 179 C 347.136719 179 359 190.863281 359 205.5 Z M 359 205.5 " style=" stroke:none;fill-rule:nonzero;fill:rgb(99.607843%,41.568627%,8.627451%);fill-opacity:1;" />
<path d="M 359 205.5 C 359 220.136719 347.136719 232 332.5 232 C 317.863281 232 306 220.136719 306 205.5 Z M 359 205.5 " style=" stroke:none;fill-rule:nonzero;fill:rgb(98.039216%,36.470588%,5.882353%);fill-opacity:1;" />
</g>
</svg>