<?xml version="1.0" encoding="iso-8859-1"?>
<!-- Generator: Adobe Illustrator 19.0.0, SVG Export Plug-In . SVG Version: 6.00 Build 0)  -->
<svg version="1.1" id="Capa_1" xmlns="http://www.w3.org/2000/svg" xmlns:xlink="http://www.w3.org/1999/xlink" x="0px" y="0px"
	 viewBox="0 0 512 512" style="enable-background:new 0 0 512 512;" xml:space="preserve">
<circle style="fill:#91CDFF;" cx="256" cy="256" r="256"/>
<path style="fill:#1E8CE6;" d="M512,256c0-16.196-1.521-32.035-4.397-47.397L385,86L127,426l81.603,81.603
	C223.965,510.479,239.804,512,256,512C397.385,512,512,397.385,512,256z"/>
<rect x="127" y="86" style="fill:#333333;" width="258" height="340"/>
<rect x="255.95" y="86" style="fill:#1A1A1A;" width="129.05" height="340"/>
<rect x="145.75" y="106.62" style="fill:#85E374;" width="220.5" height="298.75"/>
<rect x="255.95" y="106.62" style="fill:#13C37B;" width="110.3" height="298.75"/>
<path style="fill:#FFFFFF;" d="M162.75,125.25v261.5h186.5v-261.5H162.75z M291.321,142.25
	c-4.091,15.683-18.375,27.292-35.321,27.292s-31.23-11.609-35.321-27.292H291.321z M203.309,142.25
	c4.379,25.125,26.331,44.292,52.691,44.292s48.312-19.167,52.691-44.292h23.559V247.5h-37.185
	c-3.908-17.976-19.935-31.483-39.065-31.483s-35.156,13.507-39.065,31.483H179.75V142.25H203.309z M234.653,247.5
	c3.387-8.476,11.676-14.483,21.347-14.483c9.671,0,17.959,6.007,21.347,14.483H234.653z M277.347,264.5
	c-3.387,8.476-11.676,14.483-21.347,14.483s-17.959-6.007-21.347-14.483H277.347z M220.679,369.75
	c4.091-15.683,18.375-27.292,35.321-27.292s31.23,11.609,35.321,27.292H220.679z M308.691,369.75
	c-4.379-25.125-26.331-44.292-52.691-44.292s-48.312,19.167-52.691,44.292H179.75V264.5h37.185
	c3.908,17.976,19.935,31.483,39.065,31.483s35.156-13.507,39.065-31.483h37.185v105.25H308.691z"/>
<path style="fill:#E0E0E0;" d="M349.25,125.25h-93.298v17h35.369c-4.091,15.683-18.375,27.292-35.321,27.292
	c-0.016,0-0.032-0.001-0.048-0.001v17c0.016,0,0.032,0.001,0.048,0.001c26.359,0,48.312-19.167,52.691-44.292h23.559V247.5h-37.185
	c-3.908-17.976-19.935-31.483-39.065-31.483c-0.016,0-0.032,0.001-0.048,0.001v17.001c0.016,0,0.032-0.002,0.048-0.002
	c9.671,0,17.959,6.007,21.347,14.483h-21.394v17h21.394c-3.387,8.476-11.676,14.483-21.347,14.483c-0.016,0-0.032-0.002-0.048-0.002
	v17.001c0.016,0,0.032,0.001,0.048,0.001c19.13,0,35.156-13.507,39.065-31.483h37.185v105.25h-23.559
	c-4.379-25.125-26.331-44.292-52.691-44.292c-0.016,0-0.032,0.001-0.048,0.001v17c0.016,0,0.032-0.001,0.048-0.001
	c16.946,0,31.23,11.609,35.321,27.292h-35.369v17h93.298L349.25,125.25L349.25,125.25z"/>
<g>
</g>
<g>
</g>
<g>
</g>
<g>
</g>
<g>
</g>
<g>
</g>
<g>
</g>
<g>
</g>
<g>
</g>
<g>
</g>
<g>
</g>
<g>
</g>
<g>
</g>
<g>
</g>
<g>
</g>
</svg>
