<?xml version="1.0" encoding="iso-8859-1"?>
<!-- Generator: Adobe Illustrator 19.0.0, SVG Export Plug-In . SVG Version: 6.00 Build 0)  -->
<svg xmlns="http://www.w3.org/2000/svg" xmlns:xlink="http://www.w3.org/1999/xlink" version="1.1" id="Capa_1" x="0px" y="0px" viewBox="0 0 512 512" style="enable-background:new 0 0 512 512;" xml:space="preserve">
<circle style="fill:#57A4FF;" cx="256" cy="256" r="256"/>
<path style="fill:#2488FF;" d="M511.282,275.248L376.826,140.792c-16.386-17.18-36.398-30.869-58.809-39.841l-45.299-45.299  l-0.023,0.023v-0.023h-33.391v33.415l-0.905,0.905C159.95,98.193,97.674,160.73,89.873,239.304H55.652v33.391h0.023l45.245,45.244  c9.52,23.814,24.367,44.918,43.067,61.85l131.478,131.478C401.404,501.799,501.918,401.214,511.282,275.248z"/>
<circle style="fill:#FF3501;" cx="256" cy="256" r="44.522"/>
<path style="fill:#C70024;" d="M256,211.478v89.043c24.588,0,44.522-19.934,44.522-44.522S280.588,211.478,256,211.478z"/>
<path style="fill:#FFFFFF;" d="M456.348,239.304h-34.221c-7.831-78.876-70.556-141.6-149.432-149.432V55.652h-33.391v34.221  c-78.876,7.831-141.6,70.556-149.432,149.432H55.652v33.391h34.221c7.831,78.876,70.556,141.6,149.432,149.432v34.221h33.391  v-34.221c78.876-7.831,141.6-70.556,149.432-149.432h34.221V239.304z M350.445,350.445c-21.249,21.249-48.396,34.454-77.749,38.092  v-43.493h-33.391v43.493c-29.353-3.637-56.5-16.844-77.749-38.092c-21.249-21.248-34.454-48.396-38.092-77.749h43.493v-33.391  h-43.493c3.637-29.353,16.844-56.5,38.092-77.749s48.396-34.454,77.749-38.092v43.493h33.391v-43.493  c29.353,3.637,56.5,16.844,77.749,38.092s34.454,48.396,38.092,77.749h-43.493v33.391h43.493  C384.899,302.049,371.693,329.196,350.445,350.445z"/>
<path style="fill:#E1E3FA;" d="M422.127,239.304c-7.831-78.876-70.556-141.6-149.432-149.432V55.652H256v111.304h16.696v-43.493  c29.353,3.637,56.5,16.844,77.749,38.092s34.454,48.396,38.092,77.749h-43.493v33.391h43.493  c-3.637,29.353-16.844,56.5-38.092,77.749c-21.248,21.249-48.396,34.454-77.749,38.092v-43.493H256v111.304h16.696v-34.221  c78.876-7.831,141.6-70.556,149.432-149.432h34.221v-33.391H422.127z"/>
<g>
</g>
<g>
</g>
<g>
</g>
<g>
</g>
<g>
</g>
<g>
</g>
<g>
</g>
<g>
</g>
<g>
</g>
<g>
</g>
<g>
</g>
<g>
</g>
<g>
</g>
<g>
</g>
<g>
</g>
</svg>
