<?xml version="1.0" encoding="iso-8859-1"?>
<!-- Generator: Adobe Illustrator 19.0.0, SVG Export Plug-In . SVG Version: 6.00 Build 0)  -->
<svg version="1.1" id="Capa_1" xmlns="http://www.w3.org/2000/svg" xmlns:xlink="http://www.w3.org/1999/xlink" x="0px" y="0px"
	 viewBox="0 0 512 512" style="enable-background:new 0 0 512 512;" xml:space="preserve">
<circle style="fill:#0066AA;" cx="256" cy="256" r="256"/>
<path style="fill:#1E2D64;" d="M512,256c0-10.58-0.655-21.007-1.902-31.25L403.933,118.584l1.768,129.095L292.979,134.957
	l-25.575,95.27L136.736,99.559l-41.703,70.837L197.61,272.973L79.641,377.056l130.923,130.923C225.31,510.62,240.494,512,256,512
	C397.385,512,512,397.385,512,256z"/>
<path style="fill:#FFEB50;" d="M204,231.729c-45.951,0-83.202-37.251-83.202-83.202c0-18.307,5.917-35.229,15.937-48.969
	c-36.3,16.177-61.607,52.569-61.607,94.876c0,57.341,46.484,103.824,103.824,103.824s103.824-46.484,103.824-103.824
	c0-5.371-0.408-10.647-1.194-15.798C269.517,209.704,239.332,231.729,204,231.729z"/>
<path style="fill:#F7D139;" d="M308,231.729c45.951,0,83.202-37.251,83.202-83.202c0-18.307-5.917-35.229-15.937-48.969
	c36.3,16.177,61.607,52.569,61.607,94.876c0,57.341-46.484,103.824-103.824,103.824s-103.824-46.484-103.824-103.824
	c0-5.371,0.408-10.647,1.194-15.798C242.483,209.704,272.668,231.729,308,231.729z"/>
<path style="fill:#D76E19;" d="M90.387,319.533c0-91.466,74.148-165.613,165.613-165.613s165.613,74.148,165.613,165.613H90.387z"/>
<path style="fill:#C85F05;" d="M256,153.92c-0.016,0-0.032,0.001-0.048,0.001v165.612h165.661
	C421.613,228.068,347.466,153.92,256,153.92z"/>
<rect x="219.02" y="134.96" style="fill:#FFFFFF;" width="73.957" height="207.25"/>
<g>
	<rect x="255.95" y="134.96" style="fill:#E0E0E0;" width="37.03" height="207.25"/>
	<rect x="79.64" y="307.37" style="fill:#E0E0E0;" width="352.72" height="69.69"/>
</g>
<g>
	<rect x="255.95" y="307.37" style="fill:#C0C0C0;" width="176.41" height="69.69"/>
	<circle style="fill:#C0C0C0;" cx="256" cy="167.83" r="11.378"/>
</g>
<path style="fill:#758F9B;" d="M256,156.449c-0.016,0-0.032,0.002-0.048,0.002v22.751c0.016,0,0.032,0.002,0.048,0.002
	c6.284,0,11.378-5.094,11.378-11.378S262.284,156.449,256,156.449z"/>
<circle style="fill:#C0C0C0;" cx="256" cy="223.45" r="11.378"/>
<path style="fill:#758F9B;" d="M256,212.074c-0.016,0-0.032,0.002-0.048,0.002v22.751c0.016,0,0.032,0.002,0.048,0.002
	c6.284,0,11.378-5.094,11.378-11.378C267.378,217.168,262.284,212.074,256,212.074z"/>
<circle style="fill:#C0C0C0;" cx="256" cy="279.08" r="11.378"/>
<path style="fill:#758F9B;" d="M256,267.7c-0.016,0-0.032,0.002-0.048,0.002v22.751c0.016,0,0.032,0.002,0.048,0.002
	c6.284,0,11.378-5.094,11.378-11.378C267.378,272.794,262.284,267.7,256,267.7z"/>
<circle style="fill:#C0C0C0;" cx="256" cy="342.21" r="12.802"/>
<g>
	<path style="fill:#758F9B;" d="M256,329.409c-0.016,0-0.032,0.002-0.048,0.002v25.599c0.016,0,0.032,0.002,0.048,0.002
		c7.07,0,12.802-5.731,12.802-12.802S263.07,329.409,256,329.409z"/>
	<circle style="fill:#758F9B;" cx="323.57" cy="342.21" r="12.802"/>
	<circle style="fill:#758F9B;" cx="391.13" cy="342.21" r="12.802"/>
</g>
<g>
	<circle style="fill:#C0C0C0;" cx="188.43" cy="342.21" r="12.802"/>
	<circle style="fill:#C0C0C0;" cx="120.87" cy="342.21" r="12.802"/>
</g>
<g>
</g>
<g>
</g>
<g>
</g>
<g>
</g>
<g>
</g>
<g>
</g>
<g>
</g>
<g>
</g>
<g>
</g>
<g>
</g>
<g>
</g>
<g>
</g>
<g>
</g>
<g>
</g>
<g>
</g>
</svg>
