<?xml version="1.0" encoding="iso-8859-1"?>
<!-- Generator: Adobe Illustrator 19.0.0, SVG Export Plug-In . SVG Version: 6.00 Build 0)  -->
<svg xmlns="http://www.w3.org/2000/svg" xmlns:xlink="http://www.w3.org/1999/xlink" version="1.1" id="Capa_1" x="0px" y="0px" viewBox="0 0 512 512" style="enable-background:new 0 0 512 512;" xml:space="preserve">
<circle style="fill:#57A4FF;" cx="256" cy="256" r="256"/>
<path style="fill:#2488FF;" d="M508.683,297.205L267.13,55.652H244.87v56.681c-28.493,5.237-50.087,30.182-50.087,60.189  c0,3.262,0.262,6.462,0.752,9.587l-68.49,68.49l-15.741,15.741l15.741,15.741l62.964,62.964l0.01-0.01l40.361,40.361l-37.983,59.823  l0,0l66.743,66.743C385.086,510.444,489.136,417.992,508.683,297.205z"/>
<polygon style="fill:#C6C5CA;" points="274.769,171.895 369.214,266.339 306.251,329.303 321.991,345.043 384.955,282.08   400.696,266.339 384.955,250.598 290.51,156.153 "/>
<g>
	<polygon style="fill:#D8D9DD;" points="237.231,171.895 142.786,266.339 205.749,329.303 190.009,345.043 127.045,282.08    111.304,266.339 127.045,250.598 221.49,156.153  "/>
	<rect x="244.87" y="55.652" style="fill:#D8D9DD;" width="22.261" height="122.435"/>
</g>
<circle style="fill:#C6C5CA;" cx="256" cy="172.522" r="61.217"/>
<path style="fill:#ACABB1;" d="M256,111.304v122.435c33.81,0,61.217-27.408,61.217-61.217S289.81,111.304,256,111.304z"/>
<circle style="fill:#FFFFFF;" cx="256" cy="173.546" r="39.791"/>
<path style="fill:#D8D9DD;" d="M256,133.751v79.583c21.976,0,39.791-17.815,39.791-39.791  C295.791,151.565,277.976,133.751,256,133.751z"/>
<polygon style="fill:#F7AFD1;" points="319.603,445.217 192.397,445.217 256,345.043 "/>
<polygon style="fill:#F072AE;" points="256,345.043 256,445.217 319.603,445.217 "/>
<g>
</g>
<g>
</g>
<g>
</g>
<g>
</g>
<g>
</g>
<g>
</g>
<g>
</g>
<g>
</g>
<g>
</g>
<g>
</g>
<g>
</g>
<g>
</g>
<g>
</g>
<g>
</g>
<g>
</g>
</svg>
