<svg xmlns="http://www.w3.org/2000/svg" height="512pt" version="1.1" viewBox="0 0 512 512" width="512pt">
<g id="surface1">
<path d="M 512 256 C 512 397.386719 397.386719 512 256 512 C 114.613281 512 0 397.386719 0 256 C 0 114.613281 114.613281 0 256 0 C 397.386719 0 512 114.613281 512 256 Z M 512 256 " style=" stroke:none;fill-rule:nonzero;fill:rgb(2.352941%,80%,67.058824%);fill-opacity:1;" />
<path d="M 439.84375 434.128906 L 204.523438 198.804688 L 83.867188 320.648438 L 274.546875 511.324219 C 339.273438 506.691406 397.332031 477.992188 439.84375 434.128906 Z M 439.84375 434.128906 " style=" stroke:none;fill-rule:nonzero;fill:rgb(0%,74.117647%,61.568627%);fill-opacity:1;" />
<path d="M 511.609375 241.949219 L 400.441406 130.777344 L 293.839844 237.507812 L 462.980469 406.648438 C 493.800781 364.378906 512 312.316406 512 256 C 512 251.285156 511.863281 246.601562 511.609375 241.949219 Z M 511.609375 241.949219 " style=" stroke:none;fill-rule:nonzero;fill:rgb(0%,74.117647%,61.568627%);fill-opacity:1;" />
<path d="M 244.726562 436.117188 L 92.613281 327.78125 C 49.40625 297.007812 44.214844 234.785156 81.722656 197.277344 C 119.230469 159.769531 181.449219 164.964844 212.222656 208.167969 L 320.5625 360.28125 C 335.96875 381.910156 333.496094 411.503906 314.722656 430.277344 C 295.945312 449.054688 266.355469 451.523438 244.726562 436.117188 Z M 244.726562 436.117188 " style=" stroke:none;fill-rule:nonzero;fill:rgb(20%,22.352941%,25.098039%);fill-opacity:1;" />
<path d="M 320.5625 360.28125 L 212.222656 208.167969 C 181.523438 165.066406 119.527344 159.800781 81.992188 197.015625 L 314.980469 430.007812 C 333.515625 411.21875 335.894531 381.808594 320.5625 360.28125 Z M 320.5625 360.28125 " style=" stroke:none;fill-rule:nonzero;fill:rgb(13.72549%,15.294118%,16.862745%);fill-opacity:1;" />
<path d="M 156.179688 229.585938 C 144.539062 217.945312 125.667969 217.945312 114.027344 229.585938 C 102.386719 241.226562 102.386719 260.097656 114.027344 271.738281 C 125.667969 283.378906 144.539062 283.378906 156.179688 271.738281 C 167.820312 260.097656 167.820312 241.226562 156.179688 229.585938 Z M 156.179688 229.585938 " style=" stroke:none;fill-rule:nonzero;fill:rgb(100%,100%,100%);fill-opacity:1;" />
<path d="M 156.183594 229.585938 C 144.632812 218.035156 125.960938 217.953125 114.300781 229.324219 L 156.441406 271.464844 C 167.816406 259.804688 167.734375 241.136719 156.183594 229.585938 Z M 156.183594 229.585938 " style=" stroke:none;fill-rule:nonzero;fill:rgb(91.372549%,92.941176%,96.078431%);fill-opacity:1;" />
<path d="M 425 186.5 C 425 228.199219 391.199219 262 349.5 262 C 307.800781 262 274 228.199219 274 186.5 C 274 144.800781 307.800781 111 349.5 111 C 391.199219 111 425 144.800781 425 186.5 Z M 425 186.5 " style=" stroke:none;fill-rule:nonzero;fill:rgb(100%,100%,100%);fill-opacity:1;" />
<path d="M 349.5 111 C 349.003906 111 348.515625 111.027344 348.023438 111.035156 L 348.023438 261.960938 C 348.515625 261.972656 349.003906 262 349.5 262 C 391.199219 262 425 228.195312 425 186.5 C 425 144.800781 391.199219 111 349.5 111 Z M 349.5 111 " style=" stroke:none;fill-rule:nonzero;fill:rgb(91.372549%,92.941176%,96.078431%);fill-opacity:1;" />
</g>
</svg>