<svg xmlns="http://www.w3.org/2000/svg" height="512pt" version="1.1" viewBox="0 0 512 512" width="512pt">
<g id="surface1">
<path d="M 512 256 C 512 397.386719 397.386719 512 256 512 C 114.613281 512 0 397.386719 0 256 C 0 114.613281 114.613281 0 256 0 C 397.386719 0 512 114.613281 512 256 Z M 512 256 " style=" stroke:none;fill-rule:nonzero;fill:rgb(35.294118%,32.941176%,87.843137%);fill-opacity:1;" />
<path d="M 512 256 C 512 246.265625 511.4375 236.667969 510.378906 227.214844 L 394.671875 111.535156 L 114.183594 391.148438 L 234.09375 511.058594 C 241.316406 511.667969 248.617188 512 256 512 C 397.386719 512 512 397.386719 512 256 Z M 512 256 " style=" stroke:none;fill-rule:nonzero;fill:rgb(22.745098%,25.490196%,80%);fill-opacity:1;" />
<path d="M 158.265625 329.203125 C 105.964844 276.902344 105.964844 192.101562 158.265625 139.800781 L 196.359375 101.707031 C 248.660156 49.40625 333.460938 49.40625 385.761719 101.707031 C 438.0625 154.011719 438.0625 238.808594 385.761719 291.113281 L 347.671875 329.203125 C 295.367188 381.507812 210.566406 381.507812 158.265625 329.203125 Z M 158.265625 329.203125 " style=" stroke:none;fill-rule:nonzero;fill:rgb(99.607843%,41.568627%,8.627451%);fill-opacity:1;" />
<path d="M 385.761719 101.707031 C 385.628906 101.574219 385.488281 101.445312 385.355469 101.3125 L 157.871094 328.796875 C 158.003906 328.933594 158.132812 329.070312 158.265625 329.203125 C 210.566406 381.503906 295.367188 381.503906 347.671875 329.203125 L 385.761719 291.109375 C 438.0625 238.808594 438.0625 154.011719 385.761719 101.707031 Z M 385.761719 101.707031 " style=" stroke:none;fill-rule:nonzero;fill:rgb(98.039216%,36.470588%,5.882353%);fill-opacity:1;" />
<path d="M 293.109375 362.292969 L 125.175781 194.359375 C 113.972656 230.136719 118.132812 269.683594 137.65625 302.664062 L 81.675781 358.640625 L 128.828125 405.792969 L 184.804688 349.8125 C 217.785156 369.335938 257.332031 373.496094 293.109375 362.292969 Z M 293.109375 362.292969 " style=" stroke:none;fill-rule:nonzero;fill:rgb(100%,85.490196%,0%);fill-opacity:1;" />
<path d="M 104.851562 381.816406 L 128.828125 405.792969 L 184.808594 349.8125 C 217.785156 369.335938 257.332031 373.496094 293.113281 362.292969 L 208.742188 277.925781 Z M 104.851562 381.816406 " style=" stroke:none;fill-rule:nonzero;fill:rgb(100%,76.078431%,0%);fill-opacity:1;" />
<path d="M 435.203125 226.5625 C 412.816406 204.175781 376.515625 204.175781 354.128906 226.5625 C 331.738281 248.953125 331.738281 285.25 354.128906 307.640625 C 376.515625 330.027344 412.816406 330.027344 435.203125 307.640625 C 457.59375 285.25 457.59375 248.953125 435.203125 226.5625 Z M 435.203125 226.5625 " style=" stroke:none;fill-rule:nonzero;fill:rgb(100%,100%,100%);fill-opacity:1;" />
<path d="M 435.207031 226.5625 C 435.191406 226.546875 435.171875 226.53125 435.15625 226.511719 L 354.082031 307.585938 C 354.097656 307.605469 354.113281 307.621094 354.132812 307.640625 C 376.519531 330.027344 412.820312 330.027344 435.207031 307.640625 C 457.597656 285.25 457.597656 248.949219 435.207031 226.5625 Z M 435.207031 226.5625 " style=" stroke:none;fill-rule:nonzero;fill:rgb(91.372549%,92.941176%,96.078431%);fill-opacity:1;" />
</g>
</svg>