<?xml version="1.0" encoding="iso-8859-1"?>
<!-- Generator: Adobe Illustrator 19.0.0, SVG Export Plug-In . SVG Version: 6.00 Build 0)  -->
<svg version="1.1" id="Capa_1" xmlns="http://www.w3.org/2000/svg" xmlns:xlink="http://www.w3.org/1999/xlink" x="0px" y="0px"
	 viewBox="0 0 512 512" style="enable-background:new 0 0 512 512;" xml:space="preserve">
<circle style="fill:#91CDFF;" cx="256" cy="256" r="256"/>
<path style="fill:#1E8CE6;" d="M510.252,285.9L301.352,77L188.968,259.077l67.758,67.758l-130.392,74.832l109.55,109.55
	C242.521,511.732,249.229,512,256,512C387.268,512,495.441,413.194,510.252,285.9z"/>
<path style="fill:#4D4D4D;" d="M367.667,355c-74.445,42.382-148.888,42.382-223.333,0c70.895-52.986,64.384-136.579,69.75-225.974
	c25.831-5.52,51.662-5.938,77.492-1.253C301.76,217.635,294.659,303.217,367.667,355z"/>
<g>
	<path style="fill:#333333;" d="M367.667,355c-73.008-51.783-65.906-137.365-76.091-227.227
		c-11.875-2.154-23.749-3.215-35.623-3.213v262.226C293.19,386.795,330.428,376.2,367.667,355z"/>
	<circle style="fill:#333333;" cx="256" cy="129" r="69"/>
</g>
<path style="fill:#1A1A1A;" d="M256,60c-0.016,0-0.032,0.001-0.048,0.001v137.998c0.016,0,0.031,0.001,0.048,0.001
	c38.108,0,69-30.892,69-69S294.108,60,256,60z"/>
<rect x="144.33" y="323" style="fill:#333333;" width="223.33" height="49.33"/>
<rect x="255.95" y="323" style="fill:#1A1A1A;" width="111.71" height="49.33"/>
<path style="fill:#333333;" d="M304.333,267.667h-96.667C194.044,267.667,183,256.623,183,243l0,0
	c0-13.623,11.044-24.667,24.667-24.667h96.667C317.956,218.333,329,229.377,329,243l0,0
	C329,256.623,317.956,267.667,304.333,267.667z"/>
<g>
	<path style="fill:#1A1A1A;" d="M304.333,218.333h-48.381v49.333h48.381C317.956,267.667,329,256.623,329,243l0,0
		C329,229.377,317.956,218.333,304.333,218.333z"/>
	<rect x="126.33" y="352.33" style="fill:#1A1A1A;" width="259.33" height="49.33"/>
</g>
<rect x="255.95" y="352.33" width="129.71" height="49.33"/>
<g>
</g>
<g>
</g>
<g>
</g>
<g>
</g>
<g>
</g>
<g>
</g>
<g>
</g>
<g>
</g>
<g>
</g>
<g>
</g>
<g>
</g>
<g>
</g>
<g>
</g>
<g>
</g>
<g>
</g>
</svg>
