<?xml version="1.0" encoding="iso-8859-1"?>
<!-- Generator: Adobe Illustrator 19.0.0, SVG Export Plug-In . SVG Version: 6.00 Build 0)  -->
<svg xmlns="http://www.w3.org/2000/svg" xmlns:xlink="http://www.w3.org/1999/xlink" version="1.1" id="Capa_1" x="0px" y="0px" viewBox="0 0 512 512" style="enable-background:new 0 0 512 512;" xml:space="preserve">
<circle style="fill:#50206C;" cx="256" cy="256" r="256"/>
<path style="fill:#3D1952;" d="M512,256c0-4.017-0.105-8.009-0.288-11.982L374.499,106.804c-0.187-0.2-0.377-0.397-0.568-0.595  c-0.187-0.194-0.362-0.394-0.552-0.585l-0.003,0.003c-10.136-10.238-24.196-16.583-39.741-16.583  c-30.889,0-55.93,25.041-55.93,55.93c0,10.525,2.912,20.369,7.967,28.777l-67.981-67.981c-0.047-0.048-0.09-0.098-0.137-0.146  l-0.003,0.003c-10.136-10.238-24.196-16.583-39.741-16.583c-30.889,0-55.93,25.041-55.93,55.93c0,15.545,6.345,29.605,16.583,39.741  l-0.003,0.003c0.193,0.19,0.394,0.367,0.589,0.554c0.441,0.424,0.882,0.849,1.337,1.259c0.019,0.017,0.037,0.035,0.055,0.051  l9.35,9.35c-10.372,5.633-16.995,17.154-15.589,29.808l1.288,11.588c2.396,21.567,4.955,43.303,3.602,64.962l-6.233,83.674  c-0.688,13.71,4.822,26.236,14.017,34.944l90.407,90.407C243.46,511.762,249.702,512,256,512C397.384,512,512,397.384,512,256z"/>
<path style="fill:#87868A;" d="M177.809,433.231L177.809,433.231c-25.745,0-46.245-21.554-44.954-47.267l6.233-83.673  c1.353-21.659-1.205-43.393-3.602-64.962l-1.288-11.588c-1.982-17.84,11.983-33.443,29.932-33.443h27.355  c17.95,0,31.914,15.603,29.932,33.443l-1.288,11.588c-2.396,21.569-4.955,43.303-3.602,64.962l6.233,83.673  C224.053,411.677,203.553,433.231,177.809,433.231z"/>
<path style="fill:#787680;" d="M222.762,385.965l-6.233-83.674c-1.353-21.659,1.205-43.394,3.602-64.962l1.288-11.588  c1.982-17.84-11.983-33.443-29.932-33.443h-13.4v240.929C203.7,433.074,224.048,411.583,222.762,385.965z"/>
<circle style="fill:#FF0C38;" cx="177.809" cy="398.815" r="8.605"/>
<g>
	<circle style="fill:#3E3D42;" cx="177.809" cy="278.35" r="8.605"/>
	<path style="fill:#3E3D42;" d="M177.809,261.137L177.809,261.137c-7.128,0-12.907-5.779-12.907-12.907v-17.21   c0-7.128,5.779-12.907,12.907-12.907l0,0c7.128,0,12.907,5.779,12.907,12.907v17.21   C190.716,255.359,184.937,261.137,177.809,261.137z"/>
</g>
<circle style="fill:#46F8FF;" cx="177.809" cy="144.974" r="55.93"/>
<path style="fill:#00D7DF;" d="M178.088,89.045v111.858c30.761-0.15,55.652-25.133,55.652-55.929S208.849,89.195,178.088,89.045z"/>
<path style="fill:#87868A;" d="M333.635,433.231L333.635,433.231c-25.745,0-46.245-21.554-44.954-47.267l6.233-83.673  c1.353-21.659-1.205-43.393-3.602-64.962l-1.288-11.588c-1.982-17.84,11.983-33.443,29.932-33.443h27.355  c17.95,0,31.914,15.603,29.932,33.443l-1.288,11.588c-2.396,21.569-4.955,43.303-3.602,64.962l6.233,83.673  C379.879,411.677,359.379,433.231,333.635,433.231z"/>
<path style="fill:#787680;" d="M378.588,385.965l-6.233-83.674c-1.353-21.659,1.205-43.394,3.602-64.962l1.288-11.588  c1.982-17.84-11.983-33.443-29.932-33.443h-13.4v240.929C359.526,433.074,379.874,411.583,378.588,385.965z"/>
<circle style="fill:#FF0C38;" cx="333.635" cy="398.815" r="8.605"/>
<g>
	<circle style="fill:#3E3D42;" cx="333.635" cy="278.35" r="8.605"/>
	<path style="fill:#3E3D42;" d="M333.635,261.137L333.635,261.137c-7.128,0-12.907-5.779-12.907-12.907v-17.21   c0-7.128,5.779-12.907,12.907-12.907l0,0c7.128,0,12.907,5.779,12.907,12.907v17.21   C346.542,255.359,340.763,261.137,333.635,261.137z"/>
</g>
<circle style="fill:#F7AFD1;" cx="333.635" cy="144.974" r="55.93"/>
<path style="fill:#F072AE;" d="M333.914,89.045v111.858c30.761-0.15,55.652-25.133,55.652-55.929S364.675,89.195,333.914,89.045z"/>
<g>
</g>
<g>
</g>
<g>
</g>
<g>
</g>
<g>
</g>
<g>
</g>
<g>
</g>
<g>
</g>
<g>
</g>
<g>
</g>
<g>
</g>
<g>
</g>
<g>
</g>
<g>
</g>
<g>
</g>
</svg>
