<svg xmlns="http://www.w3.org/2000/svg" height="512pt" version="1.1" viewBox="0 0 512 512" width="512pt">
<g id="surface1">
<path d="M 512 256 C 512 397.386719 397.386719 512 256 512 C 114.613281 512 0 397.386719 0 256 C 0 114.613281 114.613281 0 256 0 C 397.386719 0 512 114.613281 512 256 Z M 512 256 " style=" stroke:none;fill-rule:nonzero;fill:rgb(35.294118%,32.941176%,87.843137%);fill-opacity:1;" />
<path d="M 408.28125 209.933594 L 223.617188 214.761719 L 55.828125 289.511719 L 277.421875 511.101562 C 391.230469 501.671875 483.914062 417.800781 506.644531 308.296875 Z M 408.28125 209.933594 " style=" stroke:none;fill-rule:nonzero;fill:rgb(22.745098%,25.490196%,80%);fill-opacity:1;" />
<path d="M 423.246094 298.09375 L 369.558594 273.050781 C 297.574219 239.476562 214.425781 239.476562 142.441406 273.050781 L 88.753906 298.09375 C 61.699219 310.714844 37.496094 276.15625 58.605469 255.046875 L 134.671875 178.980469 C 201.679688 111.972656 310.320312 111.972656 377.328125 178.980469 L 453.394531 255.046875 C 474.503906 276.15625 450.300781 310.714844 423.246094 298.09375 Z M 423.246094 298.09375 " style=" stroke:none;fill-rule:nonzero;fill:rgb(100%,100%,100%);fill-opacity:1;" />
<path d="M 453.394531 255.046875 L 377.328125 178.980469 C 343.765625 145.417969 299.753906 128.667969 255.761719 128.726562 L 255.761719 247.875 C 294.625 247.839844 333.492188 256.230469 369.558594 273.050781 L 423.246094 298.09375 C 450.300781 310.714844 474.503906 276.15625 453.394531 255.046875 Z M 453.394531 255.046875 " style=" stroke:none;fill-rule:nonzero;fill:rgb(91.372549%,92.941176%,96.078431%);fill-opacity:1;" />
<path d="M 120.804688 192.851562 L 82.511719 231.144531 L 125.371094 281.015625 L 142.441406 273.054688 C 154.046875 267.640625 165.941406 263.113281 178.035156 259.445312 Z M 120.804688 192.851562 " style=" stroke:none;fill-rule:nonzero;fill:rgb(99.607843%,41.568627%,8.627451%);fill-opacity:1;" />
<path d="M 391.195312 192.851562 L 429.488281 231.144531 L 386.628906 281.015625 L 369.558594 273.054688 C 357.953125 267.640625 346.058594 263.113281 333.964844 259.445312 Z M 391.195312 192.851562 " style=" stroke:none;fill-rule:nonzero;fill:rgb(98.039216%,36.470588%,5.882353%);fill-opacity:1;" />
</g>
</svg>