<?xml version="1.0" encoding="iso-8859-1"?>
<!-- Generator: Adobe Illustrator 19.0.0, SVG Export Plug-In . SVG Version: 6.00 Build 0)  -->
<svg version="1.1" id="Capa_1" xmlns="http://www.w3.org/2000/svg" xmlns:xlink="http://www.w3.org/1999/xlink" x="0px" y="0px"
	 viewBox="0 0 512 512" style="enable-background:new 0 0 512 512;" xml:space="preserve">
<circle style="fill:#FFEB50;" cx="256" cy="256" r="256"/>
<path style="fill:#F7D139;" d="M512,256c0-9.734-0.563-19.335-1.62-28.787L397.667,114.5l-283.333,283l112.88,112.88
	c9.452,1.058,19.053,1.62,28.787,1.62C397.385,512,512,397.385,512,256z"/>
<rect x="114.33" y="237.63" style="fill:#0066AA;" width="283.33" height="159.87"/>
<rect x="255.95" y="237.63" style="fill:#1E2D64;" width="141.71" height="159.87"/>
<rect x="114.33" y="114.5" style="fill:#1E8CE6;" width="283.33" height="141.5"/>
<rect x="255.95" y="114.5" style="fill:#0074A3;" width="141.71" height="141.5"/>
<rect x="165.67" y="133.63" style="fill:#FFFFFF;" width="180.67" height="104"/>
<rect x="255.95" y="133.63" style="fill:#E0E0E0;" width="90.38" height="104"/>
<rect x="165.67" y="275.13" style="fill:#B9EAFF;" width="180.67" height="104"/>
<g>
	<rect x="255.95" y="275.13" style="fill:#91CDFF;" width="90.38" height="104"/>
	<polygon style="fill:#91CDFF;" points="158.832,337.462 148.499,337.462 148.499,327.129 131.832,327.129 131.832,337.461 
		121.498,337.461 121.498,354.127 131.832,354.127 131.832,364.462 148.499,364.462 148.499,354.128 158.832,354.128 	"/>
</g>
<circle style="fill:#FFFFFF;" cx="140.16" cy="295.13" r="11.415"/>
<g>
	<circle style="fill:#E0E0E0;" cx="370.17" cy="295.13" r="11.415"/>
	<circle style="fill:#E0E0E0;" cx="370.17" cy="334.38" r="11.415"/>
</g>
<g>
</g>
<g>
</g>
<g>
</g>
<g>
</g>
<g>
</g>
<g>
</g>
<g>
</g>
<g>
</g>
<g>
</g>
<g>
</g>
<g>
</g>
<g>
</g>
<g>
</g>
<g>
</g>
<g>
</g>
</svg>
