<?xml version="1.0" encoding="iso-8859-1"?>
<!-- Generator: Adobe Illustrator 19.0.0, SVG Export Plug-In . SVG Version: 6.00 Build 0)  -->
<svg xmlns="http://www.w3.org/2000/svg" xmlns:xlink="http://www.w3.org/1999/xlink" version="1.1" id="Capa_1" x="0px" y="0px" viewBox="0 0 512 512" style="enable-background:new 0 0 512 512;" xml:space="preserve">
<circle style="fill:#50206C;" cx="256" cy="256" r="256"/>
<path style="fill:#3D1952;" d="M512,256c0-4.404-0.111-8.782-0.332-13.132l-88.029-88.029c-0.128-0.145-0.266-0.282-0.395-0.426  c-0.42-0.469-0.851-0.925-1.282-1.383c-0.493-0.526-0.986-1.052-1.493-1.565c-0.443-0.45-0.895-0.888-1.348-1.328  c-0.515-0.501-1.033-0.999-1.56-1.488c-0.465-0.43-0.939-0.85-1.415-1.27c-0.536-0.474-1.074-0.945-1.623-1.406  c-0.488-0.41-0.981-0.81-1.477-1.209c-0.558-0.449-1.119-0.892-1.687-1.326c-0.505-0.386-1.016-0.765-1.53-1.14  c-0.579-0.423-1.162-0.838-1.752-1.247c-0.524-0.363-1.053-0.72-1.586-1.072c-0.598-0.394-1.202-0.781-1.811-1.161  c-0.542-0.338-1.087-0.672-1.637-1c-0.619-0.367-1.243-0.725-1.872-1.076c-0.558-0.313-1.116-0.621-1.681-0.922  c-0.639-0.339-1.284-0.667-1.933-0.991c-0.571-0.285-1.143-0.569-1.722-0.841c-0.659-0.311-1.326-0.608-1.995-0.902  c-0.584-0.257-1.168-0.515-1.759-0.76c-0.68-0.282-1.368-0.546-2.056-0.811c-0.593-0.228-1.185-0.459-1.785-0.673  c-0.702-0.252-1.412-0.485-2.124-0.719c-0.601-0.198-1.2-0.401-1.806-0.585c-0.725-0.22-1.458-0.42-2.19-0.622  c-0.605-0.167-1.209-0.342-1.82-0.495c-0.751-0.189-1.512-0.354-2.271-0.524c-0.605-0.135-1.207-0.279-1.815-0.402  c-0.786-0.158-1.582-0.288-2.375-0.424c-0.594-0.101-1.184-0.216-1.782-0.305c-0.837-0.126-1.683-0.22-2.528-0.322  c-0.565-0.068-1.126-0.15-1.696-0.207c-0.939-0.093-1.889-0.152-2.837-0.216c-0.484-0.032-0.963-0.081-1.448-0.106  c-1.437-0.071-2.884-0.11-4.339-0.11c-28.139,0-53.121,13.513-68.812,34.403h-68.795c-15.692-20.891-40.674-34.403-68.812-34.403  c-1.455,0-2.902,0.038-4.339,0.11c-0.486,0.024-0.964,0.073-1.448,0.106c-0.948,0.063-1.898,0.122-2.837,0.216  c-0.569,0.057-1.13,0.139-1.696,0.207c-0.845,0.101-1.691,0.196-2.528,0.322c-0.599,0.09-1.189,0.204-1.782,0.305  c-0.794,0.136-1.588,0.267-2.375,0.424c-0.61,0.122-1.211,0.267-1.815,0.402c-0.759,0.169-1.519,0.335-2.271,0.524  c-0.611,0.155-1.214,0.328-1.82,0.495c-0.732,0.203-1.466,0.401-2.19,0.622c-0.607,0.185-1.205,0.387-1.806,0.585  c-0.71,0.234-1.421,0.466-2.124,0.719c-0.6,0.215-1.191,0.445-1.785,0.673c-0.689,0.265-1.377,0.53-2.056,0.811  c-0.591,0.245-1.174,0.502-1.759,0.76c-0.668,0.295-1.335,0.591-1.995,0.902c-0.579,0.273-1.15,0.557-1.722,0.841  c-0.649,0.324-1.294,0.651-1.933,0.991c-0.565,0.301-1.124,0.609-1.681,0.922c-0.629,0.352-1.253,0.709-1.872,1.076  c-0.55,0.327-1.095,0.661-1.637,1c-0.609,0.38-1.212,0.766-1.811,1.161c-0.533,0.352-1.061,0.708-1.586,1.072  c-0.59,0.408-1.173,0.824-1.752,1.247c-0.514,0.375-1.025,0.754-1.53,1.14c-0.569,0.434-1.13,0.878-1.687,1.326  c-0.496,0.398-0.989,0.799-1.477,1.209c-0.548,0.461-1.086,0.932-1.623,1.406c-0.475,0.42-0.948,0.84-1.415,1.27  c-0.528,0.488-1.045,0.987-1.56,1.488c-0.452,0.44-0.905,0.878-1.348,1.328c-0.506,0.513-1,1.04-1.493,1.565  c-0.43,0.459-0.861,0.915-1.282,1.383c-0.484,0.54-0.955,1.093-1.426,1.646c-0.404,0.474-0.813,0.945-1.208,1.429  c-0.464,0.569-0.912,1.151-1.361,1.732c-0.377,0.488-0.76,0.971-1.128,1.466c-0.444,0.6-0.869,1.213-1.298,1.825  c-0.348,0.496-0.703,0.987-1.041,1.49c-0.425,0.636-0.829,1.286-1.239,1.932c-0.315,0.499-0.64,0.992-0.946,1.497  c-0.414,0.686-0.805,1.388-1.2,2.086c-0.274,0.483-0.559,0.959-0.824,1.448c-0.422,0.78-0.816,1.577-1.214,2.371  c-0.213,0.424-0.439,0.84-0.644,1.268c-0.571,1.188-1.114,2.392-1.632,3.61c-0.069,0.161-0.131,0.325-0.199,0.486  c-0.476,1.142-0.936,2.293-1.365,3.459c-0.169,0.461-0.315,0.932-0.476,1.396c-0.291,0.837-0.587,1.671-0.853,2.52  c-0.17,0.545-0.317,1.101-0.478,1.651c-0.227,0.78-0.461,1.558-0.667,2.347c-0.152,0.587-0.282,1.183-0.423,1.775  c-0.181,0.765-0.37,1.527-0.531,2.3c-0.129,0.617-0.235,1.241-0.349,1.861c-0.141,0.76-0.287,1.518-0.408,2.285  c-0.1,0.638-0.179,1.282-0.266,1.924c-0.102,0.761-0.208,1.52-0.291,2.288c-0.07,0.656-0.121,1.317-0.177,1.978  c-0.047,0.558-0.112,1.11-0.149,1.67l-0.18-0.072l0.099,1.569c-0.066,1.38-0.099,2.768-0.099,4.165c0,1.395,0.039,2.779,0.105,4.157  c0.021,0.455,0.061,0.905,0.089,1.358c0.058,0.92,0.122,1.84,0.209,2.753c0.05,0.531,0.115,1.057,0.175,1.585  c0.095,0.833,0.197,1.663,0.316,2.489c0.078,0.544,0.164,1.086,0.252,1.628c0.061,0.374,0.108,0.754,0.174,1.126l8.019,126.477  c0.605,10.292,5.226,19.438,12.281,25.961l129.879,129.879C230.593,511.046,243.184,512,256,512C397.385,512,512,397.384,512,256z"/>
<path style="fill:#7C84E8;" d="M445.118,207.65l0.099-1.569l-0.184,0.071c-2.916-44.861-40.227-80.345-85.825-80.345  c-28.139,0-53.121,13.513-68.812,34.403h-68.795c-15.692-20.891-40.674-34.403-68.812-34.403c-45.598,0-82.908,35.484-85.825,80.345  l-0.184-0.07l0.099,1.569c-0.066,1.38-0.099,2.768-0.099,4.165c0,5.15,0.453,10.194,1.321,15.095l8.019,126.477  c1.222,20.782,18.798,36.903,39.775,36.153c12.824-0.459,24.504-7.534,31.392-18.361l22.792-35.816  c14.879-23.382,40.672-37.541,68.386-37.541h35.065c27.714,0,53.507,14.159,68.387,37.541l22.792,35.816  c6.89,10.827,18.569,17.901,31.392,18.361c20.976,0.75,38.551-15.371,39.775-36.153l8.019-126.477  c0.868-4.901,1.321-9.945,1.321-15.095C445.217,210.42,445.184,209.031,445.118,207.65z"/>
<path style="fill:#C4C8F5;" d="M359.209,125.807c-28.139,0-53.121,13.513-68.812,34.403h-68.795  c-15.692-20.891-40.674-34.403-68.812-34.403c-47.501,0-86.008,38.507-86.008,86.008s38.507,86.008,86.008,86.008  c28.139,0,53.121-13.513,68.812-34.403h68.795c15.692,20.891,40.674,34.403,68.812,34.403c47.501,0,86.008-38.507,86.008-86.008  S406.711,125.807,359.209,125.807z"/>
<g>
	<path style="fill:#FFFFFF;" d="M359.209,297.77v-171.91c-47.471,0-85.955,38.483-85.955,85.955S311.738,297.77,359.209,297.77z"/>
	<path style="fill:#FFFFFF;" d="M152.737,297.77v-171.91c-47.471,0-85.955,38.483-85.955,85.955S105.266,297.77,152.737,297.77z"/>
</g>
<circle style="fill:#C70024;" cx="152.787" cy="211.812" r="65.447"/>
<path style="fill:#A5001E;" d="M152.791,146.369v130.895c36.146,0,65.447-29.302,65.447-65.447S188.936,146.369,152.791,146.369z"/>
<circle style="fill:#C70024;" cx="359.213" cy="211.812" r="65.447"/>
<path style="fill:#A5001E;" d="M359.209,146.369v130.895c36.146,0,65.448-29.302,65.448-65.447S395.355,146.369,359.209,146.369z"/>
<circle style="fill:#FFDA44;" cx="359.213" cy="177.408" r="17.202"/>
<circle style="fill:#F7AFD1;" cx="393.617" cy="211.812" r="17.202"/>
<circle style="fill:#46F8FF;" cx="324.808" cy="211.812" r="17.202"/>
<circle style="fill:#B2FA09;" cx="359.213" cy="246.216" r="17.202"/>
<polygon style="fill:#FFDA44;" points="208.139,190.073 173.892,190.073 173.892,155.826 131.082,155.826 131.082,190.073   96.835,190.073 96.835,232.883 131.082,232.883 131.082,267.13 173.892,267.13 173.892,232.883 208.139,232.883 "/>
<circle style="fill:#FFA733;" cx="152.487" cy="211.478" r="8.562"/>
<g>
	<polygon style="fill:#A5001E;" points="165.329,181.512 139.645,181.512 152.487,164.388  "/>
	<polygon style="fill:#A5001E;" points="139.645,241.445 165.329,241.445 152.487,258.569  "/>
	<polygon style="fill:#A5001E;" points="122.52,198.636 122.52,224.321 105.396,211.478  "/>
	<polygon style="fill:#A5001E;" points="182.453,224.321 182.453,198.636 199.578,211.478  "/>
</g>
<g>
</g>
<g>
</g>
<g>
</g>
<g>
</g>
<g>
</g>
<g>
</g>
<g>
</g>
<g>
</g>
<g>
</g>
<g>
</g>
<g>
</g>
<g>
</g>
<g>
</g>
<g>
</g>
<g>
</g>
</svg>
