<?xml version="1.0" encoding="iso-8859-1"?>
<!-- Generator: Adobe Illustrator 19.0.0, SVG Export Plug-In . SVG Version: 6.00 Build 0)  -->
<svg version="1.1" id="Capa_1" xmlns="http://www.w3.org/2000/svg" xmlns:xlink="http://www.w3.org/1999/xlink" x="0px" y="0px"
	 viewBox="0 0 512 512" style="enable-background:new 0 0 512 512;" xml:space="preserve">
<circle style="fill:#FFEB50;" cx="256" cy="256" r="256"/>
<path style="fill:#F7D139;" d="M512,256c0-10.833-0.68-21.507-1.986-31.986L419,133l-93.811,120.189L192,120l-43,337l48.205,48.206
	C216.085,509.643,235.766,512,256,512C397.385,512,512,397.385,512,256z"/>
<polygon style="fill:#D7283C;" points="419,301 161,301 161,133 419,133 370.886,217 "/>
<polygon style="fill:#C30032;" points="161,217 161,301 419,301 370.886,217 "/>
<rect x="149" y="120" style="fill:#AF5500;" width="43" height="337"/>
<rect x="168.45" y="120" style="fill:#944800;" width="23.548" height="337"/>
<g>
</g>
<g>
</g>
<g>
</g>
<g>
</g>
<g>
</g>
<g>
</g>
<g>
</g>
<g>
</g>
<g>
</g>
<g>
</g>
<g>
</g>
<g>
</g>
<g>
</g>
<g>
</g>
<g>
</g>
</svg>
