<svg xmlns="http://www.w3.org/2000/svg" height="512pt" version="1.1" viewBox="0 0 512 512" width="512pt">
<g id="surface1">
<path d="M 512 256 C 512 397.386719 397.386719 512 256 512 C 114.613281 512 0 397.386719 0 256 C 0 114.613281 114.613281 0 256 0 C 397.386719 0 512 114.613281 512 256 Z M 512 256 " style=" stroke:none;fill-rule:nonzero;fill:rgb(100%,85.490196%,0%);fill-opacity:1;" />
<path d="M 512 256 C 512 251.511719 511.882812 247.054688 511.652344 242.625 L 394.523438 125.492188 L 96.734375 190.835938 L 188.675781 282.773438 L 70.25 305.953125 L 142.464844 378.167969 L 83 394.867188 L 192.089844 503.957031 C 212.519531 509.207031 233.933594 512 256 512 C 397.386719 512 512 397.386719 512 256 Z M 512 256 " style=" stroke:none;fill-rule:nonzero;fill:rgb(100%,76.078431%,0%);fill-opacity:1;" />
<path d="M 139.792969 212.464844 L 352.460938 212.464844 C 382.097656 212.464844 406.125 188.4375 406.125 158.796875 C 406.125 129.160156 382.097656 105.132812 352.460938 105.132812 L 139.792969 105.132812 C 110.152344 105.132812 86.125 129.15625 86.125 158.796875 C 86.125 188.4375 110.152344 212.464844 139.792969 212.464844 Z M 139.792969 212.464844 " style=" stroke:none;fill-rule:nonzero;fill:rgb(2.352941%,80%,67.058824%);fill-opacity:1;" />
<path d="M 352.457031 105.132812 L 255.761719 105.132812 L 255.761719 212.464844 L 352.457031 212.464844 C 382.097656 212.464844 406.125 188.4375 406.125 158.796875 C 406.125 129.160156 382.097656 105.132812 352.457031 105.132812 Z M 352.457031 105.132812 " style=" stroke:none;fill-rule:nonzero;fill:rgb(0%,74.117647%,61.568627%);fill-opacity:1;" />
<path d="M 221.25 344.367188 L 158.5 344.367188 L 158.5 266.367188 L 238.050781 266.367188 Z M 171.5 331.367188 L 210.75 331.367188 L 221.949219 279.367188 L 171.5 279.367188 Z M 171.5 331.367188 " style=" stroke:none;fill-rule:nonzero;fill:rgb(35.294118%,32.941176%,87.843137%);fill-opacity:1;" />
<path d="M 165 394.867188 L 83 394.867188 L 109 259.210938 L 191 259.210938 Z M 165 394.867188 " style=" stroke:none;fill-rule:nonzero;fill:rgb(22.745098%,25.490196%,80%);fill-opacity:1;" />
<path d="M 70.25 212.464844 L 422 212.464844 L 422 305.953125 L 70.25 305.953125 Z M 70.25 212.464844 " style=" stroke:none;fill-rule:nonzero;fill:rgb(35.294118%,32.941176%,87.843137%);fill-opacity:1;" />
<path d="M 255.761719 212.464844 L 422 212.464844 L 422 305.953125 L 255.761719 305.953125 Z M 255.761719 212.464844 " style=" stroke:none;fill-rule:nonzero;fill:rgb(22.745098%,25.490196%,80%);fill-opacity:1;" />
<path d="M 422 223.867188 L 448 223.867188 L 448 264.867188 L 422 264.867188 Z M 422 223.867188 " style=" stroke:none;fill-rule:nonzero;fill:rgb(20%,53.72549%,100%);fill-opacity:1;" />
</g>
</svg>