<?xml version="1.0" encoding="iso-8859-1"?>
<!-- Generator: Adobe Illustrator 19.0.0, SVG Export Plug-In . SVG Version: 6.00 Build 0)  -->
<svg version="1.1" id="Capa_1" xmlns="http://www.w3.org/2000/svg" xmlns:xlink="http://www.w3.org/1999/xlink" x="0px" y="0px"
	 viewBox="0 0 512 512" style="enable-background:new 0 0 512 512;" xml:space="preserve">
<circle style="fill:#85E374;" cx="256" cy="256" r="256"/>
<path style="fill:#13C37B;" d="M510.524,283.524L293.667,66.667L184.83,442.113l69.87,69.87c0.434,0.002,0.865,0.017,1.3,0.017
	C388.085,512,496.792,411.964,510.524,283.524z"/>
<polygon style="fill:#FFEB50;" points="279.63,139 232.37,139 218.333,66.667 293.667,66.667 "/>
<polygon style="fill:#F7D139;" points="293.667,66.667 255.952,66.667 255.952,139 279.63,139 "/>
<path style="fill:#B9EAFF;" d="M327.17,181.672l-15.061-7.755c-13.509-6.956-22-20.878-22-36.073v-25.85H221.89v25.85
	c0,15.195-8.49,29.117-22,36.073l-15.061,7.755l-43.251,170.435l43.251,90.006h142.34l43.251-90.006L327.17,181.672z"/>
<path style="fill:#91CDFF;" d="M370.422,352.107L327.17,181.672l-15.061-7.755c-13.509-6.956-22-20.877-22-36.073v-25.85h-34.157
	v330.119h71.218L370.422,352.107z"/>
<polygon style="fill:#FF4682;" points="154.548,301 141.578,352.107 184.83,442.113 327.17,442.113 370.422,352.107 357.452,301 "/>
<polygon style="fill:#C42364;" points="370.422,352.107 357.452,301 255.952,301 255.952,442.113 327.17,442.113 "/>
<circle style="fill:#FF73A0;" cx="201.75" cy="348.75" r="25.75"/>
<circle style="fill:#C42364;" cx="293.67" cy="275" r="17"/>
<g>
	<circle style="fill:#FF4682;" cx="278.85" cy="383.15" r="14.35"/>
	<circle style="fill:#FF4682;" cx="315.35" cy="331.65" r="14.35"/>
</g>
<g>
	<circle style="fill:#FF73A0;" cx="227.5" cy="204.65" r="14.35"/>
	<circle style="fill:#FF73A0;" cx="202.15" cy="269" r="11"/>
</g>
<g>
</g>
<g>
</g>
<g>
</g>
<g>
</g>
<g>
</g>
<g>
</g>
<g>
</g>
<g>
</g>
<g>
</g>
<g>
</g>
<g>
</g>
<g>
</g>
<g>
</g>
<g>
</g>
<g>
</g>
</svg>
