<?xml version="1.0" encoding="iso-8859-1"?>
<!-- Generator: Adobe Illustrator 19.0.0, SVG Export Plug-In . SVG Version: 6.00 Build 0)  -->
<svg xmlns="http://www.w3.org/2000/svg" xmlns:xlink="http://www.w3.org/1999/xlink" version="1.1" id="Capa_1" x="0px" y="0px" viewBox="0 0 512 512" style="enable-background:new 0 0 512 512;" xml:space="preserve">
<circle style="fill:#F072AE;" cx="256" cy="256" r="256"/>
<path style="fill:#ED539D;" d="M510.6,282.855L305.363,77.619c-0.08-0.088-0.156-0.181-0.237-0.269  c-2.125-2.311-4.408-4.473-6.833-6.468c-4.041-3.326-8.475-6.19-13.215-8.506c-1.897-0.927-3.842-1.766-5.831-2.513  c-6.963-2.613-14.463-4.09-22.268-4.203c-0.328-0.004-0.652,0.011-0.981,0.011c-36.881,0.002-66.783,29.883-66.783,66.765  c0,11.214,2.764,21.781,7.647,31.059c12.206,23.19,11.61,51.03-1.52,73.709l-1.84,3.179c-12.866,22.222-36.361,35.997-62.027,36.781  c-0.28,0.009-0.561,0.019-0.841,0.031c-34.304,1.466-62.205,29.271-63.781,63.569c-0.992,21.573,8.259,41.021,23.3,53.9  l123.897,123.897C227.703,510.81,241.712,512,256,512C388.314,512,497.175,411.617,510.6,282.855z"/>
<path style="fill:#C70024;" d="M381.364,267.193c-0.281-0.012-0.562-0.022-0.841-0.031c-25.666-0.782-49.161-14.559-62.027-36.781  l-1.838-3.173c-13.234-22.859-13.354-50.748-1.255-74.227c4.937-9.581,7.624-20.511,7.363-32.09  c-0.805-35.674-30.106-64.72-65.785-65.232c-37.333-0.535-67.763,29.567-67.763,66.776c0,11.214,2.764,21.781,7.647,31.059  c12.206,23.19,11.61,51.03-1.52,73.709l-1.84,3.179c-12.866,22.222-36.361,35.997-62.027,36.781  c-0.28,0.009-0.561,0.019-0.841,0.031c-34.304,1.466-62.205,29.271-63.781,63.569c-1.761,38.315,28.782,69.933,66.71,69.933  c23.82,0,44.728-12.471,56.549-31.24c14.11-22.403,39.154-35.543,65.629-35.543h0.512c26.476,0,51.519,13.139,65.629,35.543  c11.822,18.769,32.729,31.24,56.549,31.24c37.928,0,68.471-31.617,66.71-69.933C443.569,296.464,415.668,268.66,381.364,267.193z"/>
<circle style="fill:#FF0C38;" cx="256" cy="261.565" r="50.087"/>
<path style="fill:#A5001E;" d="M306.087,261.565c0-27.662-22.424-50.087-50.087-50.087v100.174  C283.662,311.652,306.087,289.228,306.087,261.565z"/>
<circle style="fill:#C6C5CA;" cx="133.565" cy="333.913" r="44.522"/>
<circle style="fill:#787680;" cx="378.435" cy="333.913" r="44.522"/>
<circle style="fill:#C6C5CA;" cx="256" cy="122.435" r="44.522"/>
<path style="fill:#787680;" d="M300.522,122.435c0-24.588-19.934-44.522-44.522-44.522v89.043  C280.588,166.957,300.522,147.023,300.522,122.435z"/>
<g>
	<circle style="fill:#1D1D1F;" cx="256" cy="122.435" r="22.261"/>
	<circle style="fill:#1D1D1F;" cx="378.435" cy="333.913" r="22.261"/>
	<circle style="fill:#1D1D1F;" cx="133.565" cy="333.913" r="22.261"/>
</g>
<circle style="fill:#C70024;" cx="256" cy="261.565" r="38.957"/>
<path style="fill:#FF0C38;" d="M256,66.783c0.272,0,0.548,0.002,0.82,0.006c14.363,0.206,27.962,5.96,38.293,16.205  c10.331,10.243,16.2,23.792,16.524,38.148c0.21,9.305-1.91,18.552-6.13,26.741c-14.047,27.26-13.479,58.999,1.517,84.902  l1.838,3.173c7.251,12.525,17.687,23.049,30.181,30.434c12.415,7.339,26.641,11.452,41.138,11.894  c0.235,0.007,0.47,0.016,0.706,0.026c28.488,1.218,51.829,24.48,53.137,52.96c0.707,15.388-4.74,29.974-15.34,41.071  c-10.604,11.107-24.9,17.223-40.25,17.223c-19.241,0-36.861-9.735-47.131-26.042c-7.899-12.542-19.08-22.932-32.331-30.047  c-13.032-6.997-27.803-10.694-42.717-10.694h-0.512c-14.915,0-29.686,3.698-42.717,10.694  c-13.252,7.115-24.431,17.505-32.331,30.047c-10.27,16.307-27.89,26.042-47.131,26.042c-15.35,0-29.646-6.116-40.252-17.221  c-10.6-11.097-16.047-25.684-15.34-41.071c1.309-28.479,24.649-51.742,53.138-52.96c0.235-0.01,0.47-0.019,0.706-0.026  c14.497-0.442,28.723-4.555,41.138-11.894c12.494-7.386,22.931-17.91,30.181-30.434l1.841-3.179  c7.384-12.754,11.45-27.281,11.756-42.008c0.307-14.741-3.158-29.424-10.02-42.462c-4.224-8.026-6.365-16.732-6.365-25.876  C200.348,91.748,225.313,66.783,256,66.783 M256,55.652c-36.885,0-66.783,29.897-66.783,66.783c0,11.214,2.764,21.781,7.647,31.059  c12.206,23.19,11.61,51.03-1.52,73.709l-1.84,3.179c-12.865,22.222-36.361,35.997-62.027,36.781  c-0.28,0.009-0.561,0.019-0.841,0.031c-34.304,1.466-62.205,29.271-63.781,63.569c-1.761,38.315,28.782,69.933,66.71,69.933  c23.82,0,44.728-12.471,56.549-31.24c14.11-22.403,39.154-35.543,65.629-35.543h0.512c26.476,0,51.519,13.139,65.629,35.543  c11.822,18.769,32.729,31.24,56.549,31.24c37.928,0,68.471-31.617,66.71-69.934c-1.576-34.298-29.477-62.103-63.781-63.569  c-0.281-0.012-0.562-0.022-0.841-0.031c-25.666-0.782-49.161-14.559-62.027-36.781l-1.838-3.173  c-13.234-22.859-13.354-50.748-1.255-74.227c4.937-9.581,7.624-20.511,7.363-32.09c-0.805-35.674-30.106-64.72-65.785-65.232  C256.654,55.654,256.325,55.652,256,55.652L256,55.652z"/>
<path style="fill:#A5001E;" d="M445.145,330.762c-1.576-34.298-29.477-62.103-63.781-63.569c-0.281-0.012-0.561-0.022-0.841-0.031  c-25.666-0.782-49.161-14.559-62.027-36.781l-1.838-3.173c-13.234-22.859-13.354-50.748-1.255-74.227  c4.937-9.581,7.624-20.511,7.363-32.09c-0.805-35.674-30.106-64.72-65.785-65.232c-0.326-0.004-0.656-0.007-0.981-0.007v11.13l0,0  c0.272,0,0.548,0.002,0.82,0.006c14.363,0.206,27.962,5.96,38.293,16.205c10.331,10.243,16.199,23.792,16.523,38.148  c0.21,9.305-1.91,18.552-6.13,26.741c-14.047,27.26-13.479,58.998,1.517,84.902l1.838,3.173  c7.251,12.525,17.687,23.049,30.181,30.435c12.415,7.339,26.641,11.452,41.138,11.894c0.235,0.007,0.47,0.016,0.706,0.026  c28.487,1.218,51.829,24.48,53.137,52.96c0.707,15.388-4.74,29.974-15.34,41.071c-10.603,11.106-24.899,17.222-40.249,17.222  c-19.241,0-36.861-9.735-47.131-26.042c-7.899-12.542-19.08-22.932-32.331-30.047c-13.032-6.997-27.803-10.694-42.717-10.694H256  v11.13h0.256c26.476,0,51.519,13.139,65.629,35.543c11.822,18.768,32.729,31.24,56.549,31.24  C416.363,400.696,446.906,369.079,445.145,330.762z"/>
<g>
</g>
<g>
</g>
<g>
</g>
<g>
</g>
<g>
</g>
<g>
</g>
<g>
</g>
<g>
</g>
<g>
</g>
<g>
</g>
<g>
</g>
<g>
</g>
<g>
</g>
<g>
</g>
<g>
</g>
</svg>
