<svg xmlns="http://www.w3.org/2000/svg" height="512pt" version="1.1" viewBox="0 0 512 512" width="512pt">
<g id="surface1">
<path d="M 512 256 C 512 397.386719 397.386719 512 256 512 C 114.613281 512 0 397.386719 0 256 C 0 114.613281 114.613281 0 256 0 C 397.386719 0 512 114.613281 512 256 Z M 512 256 " style=" stroke:none;fill-rule:nonzero;fill:rgb(100%,85.490196%,0%);fill-opacity:1;" />
<path d="M 491.585938 356.328125 L 354.113281 218.855469 L 353.546875 220.96875 L 153.808594 21.230469 L 138.644531 357.238281 L 155.960938 408.695312 L 259.226562 511.960938 C 363.617188 510.667969 452.960938 446.910156 491.585938 356.328125 Z M 491.585938 356.328125 " style=" stroke:none;fill-rule:nonzero;fill:rgb(100%,76.078431%,0%);fill-opacity:1;" />
<path d="M 118.777344 39.855469 L 118.777344 327.621094 L 153.808594 327.621094 L 153.808594 21.230469 C 141.609375 26.550781 129.898438 32.78125 118.777344 39.855469 Z M 118.777344 39.855469 " style=" stroke:none;fill-rule:nonzero;fill:rgb(20%,22.352941%,25.098039%);fill-opacity:1;" />
<path d="M 393.222656 314.777344 C 393.222656 390.5625 331.785156 452 256 452 C 180.214844 452 118.777344 390.5625 118.777344 314.777344 C 118.777344 238.992188 180.214844 177.554688 256 177.554688 C 331.785156 177.554688 393.222656 238.992188 393.222656 314.777344 Z M 393.222656 314.777344 " style=" stroke:none;fill-rule:nonzero;fill:rgb(35.294118%,32.941176%,87.843137%);fill-opacity:1;" />
<path d="M 256 177.554688 C 255.921875 177.554688 255.84375 177.558594 255.761719 177.558594 L 255.761719 451.996094 C 255.84375 451.996094 255.921875 452 256 452 C 331.785156 452 393.222656 390.5625 393.222656 314.777344 C 393.222656 238.992188 331.785156 177.554688 256 177.554688 Z M 256 177.554688 " style=" stroke:none;fill-rule:nonzero;fill:rgb(22.745098%,25.490196%,80%);fill-opacity:1;" />
<path d="M 323.863281 314.777344 C 323.863281 352.257812 293.480469 382.644531 256 382.644531 C 218.519531 382.644531 188.136719 352.257812 188.136719 314.777344 C 188.136719 277.296875 218.519531 246.914062 256 246.914062 C 293.480469 246.914062 323.863281 277.296875 323.863281 314.777344 Z M 323.863281 314.777344 " style=" stroke:none;fill-rule:nonzero;fill:rgb(99.607843%,41.568627%,8.627451%);fill-opacity:1;" />
<path d="M 256 246.914062 C 255.921875 246.914062 255.84375 246.917969 255.761719 246.917969 L 255.761719 382.636719 C 255.84375 382.636719 255.921875 382.644531 256 382.644531 C 293.480469 382.644531 323.863281 352.257812 323.863281 314.777344 C 323.863281 277.296875 293.480469 246.914062 256 246.914062 Z M 256 246.914062 " style=" stroke:none;fill-rule:nonzero;fill:rgb(98.039216%,36.470588%,5.882353%);fill-opacity:1;" />
</g>
</svg>