<?xml version="1.0" encoding="iso-8859-1"?>
<!-- Generator: Adobe Illustrator 19.0.0, SVG Export Plug-In . SVG Version: 6.00 Build 0)  -->
<svg version="1.1" id="Capa_1" xmlns="http://www.w3.org/2000/svg" xmlns:xlink="http://www.w3.org/1999/xlink" x="0px" y="0px"
	 viewBox="0 0 512 512" style="enable-background:new 0 0 512 512;" xml:space="preserve">
<circle style="fill:#91CDFF;" cx="256" cy="256" r="256"/>
<path style="fill:#1E8CE6;" d="M512,256c0-2.203-0.028-4.4-0.083-6.59l-82.275-82.275l-1.28,2.692l-19.658-19.658l-131.752,90.325
	l-109.091-109.09l-82.69,113.415l66.614,66.614l-61.028,63.801l134.978,134.978C235.663,511.38,245.758,512,256,512
	C397.385,512,512,397.385,512,256z"/>
<path style="fill:#1A1A1A;" d="M228.469,300.323h-34.672v-20h34.672c13.93,0,26.048-8.925,30.183-22.219l8.138-28.375l19.225,5.513
	l-8.222,28.663C271.083,285.687,251.262,300.323,228.469,300.323z"/>
<path d="M266.789,229.728l-8.138,28.375c-0.684,2.2-1.605,4.266-2.699,6.206v28.156c10.206-6.4,18.081-16.358,21.84-28.562
	l8.222-28.663L266.789,229.728z"/>
<path style="fill:#1A1A1A;" d="M227.905,272.723c-21.961-11.667-28.788-36.622-29.068-37.678l19.322-5.165
	c0.048,0.176,4.996,17.673,19.129,25.181L227.905,272.723z"/>
<polygon style="fill:#333333;" points="90.758,375.234 190.811,375.234 226.712,197.494 126.66,197.494 "/>
<path style="fill:#666666;" d="M158.735,176.699L158.735,176.699c-7.604,0-13.767-6.164-13.767-13.767v-21.225
	c0-7.603,6.164-13.767,13.767-13.767l0,0c7.603,0,13.767,6.164,13.767,13.767v21.225
	C172.502,170.535,166.339,176.699,158.735,176.699z"/>
<rect x="402.11" y="167.13" style="fill:#1A1A1A;" width="27.535" height="60.717"/>
<rect x="85.17" y="159.49" style="fill:#333333;" width="65.52" height="85.33"/>
<polygon style="fill:#4D4D4D;" points="90.758,244.819 408.704,244.819 408.704,150.168 127.327,150.168 "/>
<rect x="255.95" y="150.17" style="fill:#333333;" width="152.75" height="94.65"/>
<path style="fill:#4D4D4D;" d="M314.34,185.304h94.363v-35.135H280.782v1.577C280.782,170.279,295.807,185.304,314.34,185.304z"/>
<g>
</g>
<g>
</g>
<g>
</g>
<g>
</g>
<g>
</g>
<g>
</g>
<g>
</g>
<g>
</g>
<g>
</g>
<g>
</g>
<g>
</g>
<g>
</g>
<g>
</g>
<g>
</g>
<g>
</g>
</svg>
