<?xml version="1.0" encoding="iso-8859-1"?>
<!-- Generator: Adobe Illustrator 19.0.0, SVG Export Plug-In . SVG Version: 6.00 Build 0)  -->
<svg version="1.1" id="Capa_1" xmlns="http://www.w3.org/2000/svg" xmlns:xlink="http://www.w3.org/1999/xlink" x="0px" y="0px"
	 viewBox="0 0 512 512" style="enable-background:new 0 0 512 512;" xml:space="preserve">
<circle style="fill:#0066AA;" cx="256" cy="256" r="256"/>
<path style="fill:#1E2D64;" d="M512,256c0-5.715-0.207-11.38-0.576-17.002L366.578,94.152L147.31,419.917l91.495,91.495
	C244.49,511.789,250.22,512,256,512C397.385,512,512,397.385,512,256z"/>
<path style="fill:#FFFFFF;" d="M335.951,432H176.049c-22.226,0-40.244-18.018-40.244-40.244V120.244
	c0-22.226,18.018-40.244,40.244-40.244h159.902c22.226,0,40.244,18.018,40.244,40.244v271.512
	C376.195,413.982,358.177,432,335.951,432z"/>
<path style="fill:#E0E0E0;" d="M335.951,80h-79.999v352h79.999c22.226,0,40.244-18.018,40.244-40.244V120.244
	C376.195,98.018,358.177,80,335.951,80z"/>
<path style="fill:#D7283C;" d="M169.452,224.5c0-24.301,19.699-44,44-44c20.357,0,37.477,13.827,42.5,32.6
	c5.023-18.772,22.143-32.6,42.5-32.6c24.301,0,44,19.699,44,44c0,63-86.5,107-86.5,107S169.452,287.5,169.452,224.5z"/>
<path style="fill:#C30032;" d="M255.952,331.5c0,0,86.5-44,86.5-107c0-24.301-19.699-44-44-44c-20.357,0-37.477,13.827-42.5,32.6
	V331.5z"/>
<g>
</g>
<g>
</g>
<g>
</g>
<g>
</g>
<g>
</g>
<g>
</g>
<g>
</g>
<g>
</g>
<g>
</g>
<g>
</g>
<g>
</g>
<g>
</g>
<g>
</g>
<g>
</g>
<g>
</g>
</svg>
