<svg xmlns="http://www.w3.org/2000/svg" height="512pt" version="1.1" viewBox="0 0 512 512" width="512pt">
<g id="surface1">
<path d="M 512 256 C 512 397.386719 397.386719 512 256 512 C 114.613281 512 0 397.386719 0 256 C 0 114.613281 114.613281 0 256 0 C 397.386719 0 512 114.613281 512 256 Z M 512 256 " style=" stroke:none;fill-rule:nonzero;fill:rgb(20%,22.352941%,25.098039%);fill-opacity:1;" />
<path d="M 126.5 333.78125 L 300.804688 508.085938 C 420.824219 486.898438 512 382.101562 512 256 C 512 243.160156 511.042969 230.550781 509.21875 218.21875 L 368 77 L 144 139 L 202.976562 197.976562 L 148.691406 252.261719 Z M 126.5 333.78125 " style=" stroke:none;fill-rule:nonzero;fill:rgb(13.72549%,15.294118%,16.862745%);fill-opacity:1;" />
<path d="M 187.996094 393.082031 L 126.5 333.78125 L 126.5 240.640625 L 219.632812 153.140625 L 239.488281 174.273438 L 155.5 253.183594 L 155.5 321.460938 L 208.125 372.203125 Z M 187.996094 393.082031 " style=" stroke:none;fill-rule:nonzero;fill:rgb(100%,85.490196%,0%);fill-opacity:1;" />
<path d="M 324.003906 393.082031 L 303.875 372.203125 L 356.5 321.460938 L 356.5 253.183594 L 272.511719 174.273438 L 292.367188 153.140625 L 385.5 240.640625 L 385.5 333.78125 Z M 324.003906 393.082031 " style=" stroke:none;fill-rule:nonzero;fill:rgb(100%,76.078431%,0%);fill-opacity:1;" />
<path d="M 182.5 131 L 329.5 131 L 329.5 177.554688 L 182.5 177.554688 Z M 182.5 131 " style=" stroke:none;fill-rule:nonzero;fill:rgb(99.607843%,41.568627%,8.627451%);fill-opacity:1;" />
<path d="M 255.761719 131 L 329.5 131 L 329.5 177.554688 L 255.761719 177.554688 Z M 255.761719 131 " style=" stroke:none;fill-rule:nonzero;fill:rgb(98.039216%,36.470588%,5.882353%);fill-opacity:1;" />
<path d="M 144 77 L 368 77 L 368 139 L 144 139 Z M 144 77 " style=" stroke:none;fill-rule:nonzero;fill:rgb(100%,85.490196%,0%);fill-opacity:1;" />
<path d="M 255.761719 77 L 368 77 L 368 139 L 255.761719 139 Z M 255.761719 77 " style=" stroke:none;fill-rule:nonzero;fill:rgb(100%,76.078431%,0%);fill-opacity:1;" />
<path d="M 242 319.585938 C 242 338.179688 226.925781 353.25 208.332031 353.25 C 189.738281 353.25 174.664062 338.179688 174.664062 319.585938 C 174.664062 300.988281 189.738281 285.917969 208.332031 285.917969 C 226.925781 285.917969 242 300.988281 242 319.585938 Z M 242 319.585938 " style=" stroke:none;fill-rule:nonzero;fill:rgb(94.901961%,27.058824%,0%);fill-opacity:1;" />
<path d="M 337.335938 319.585938 C 337.335938 338.179688 322.261719 353.25 303.667969 353.25 C 285.074219 353.25 270 338.179688 270 319.585938 C 270 300.988281 285.074219 285.917969 303.667969 285.917969 C 322.261719 285.917969 337.335938 300.988281 337.335938 319.585938 Z M 337.335938 319.585938 " style=" stroke:none;fill-rule:nonzero;fill:rgb(81.960784%,20.392157%,0%);fill-opacity:1;" />
<path d="M 215.222656 377.933594 C 197.898438 371.183594 175.183594 387.960938 164.488281 415.410156 C 153.789062 442.863281 159.160156 470.585938 176.484375 477.339844 C 193.808594 484.089844 216.523438 467.308594 227.222656 439.859375 C 237.917969 412.410156 232.546875 384.6875 215.222656 377.933594 Z M 215.222656 377.933594 " style=" stroke:none;fill-rule:nonzero;fill:rgb(99.607843%,41.568627%,8.627451%);fill-opacity:1;" />
<path d="M 347.460938 415.417969 C 336.765625 387.96875 314.050781 371.191406 296.726562 377.941406 C 279.402344 384.691406 274.03125 412.417969 284.726562 439.867188 C 295.425781 467.316406 318.140625 484.097656 335.464844 477.34375 C 352.789062 470.59375 358.160156 442.867188 347.460938 415.417969 Z M 347.460938 415.417969 " style=" stroke:none;fill-rule:nonzero;fill:rgb(98.039216%,36.470588%,5.882353%);fill-opacity:1;" />
<path d="M 256 350.875 C 207.378906 350.875 167.964844 420.289062 167.964844 468.910156 C 167.964844 479.609375 169.875 489.480469 173.371094 498.367188 C 199.296875 507.199219 227.085938 512 256 512 C 284.914062 512 312.703125 507.199219 338.628906 498.367188 C 342.121094 489.480469 344.035156 479.609375 344.035156 468.910156 C 344.035156 420.289062 304.621094 350.875 256 350.875 Z M 256 350.875 " style=" stroke:none;fill-rule:nonzero;fill:rgb(94.901961%,27.058824%,0%);fill-opacity:1;" />
<path d="M 256 350.875 C 255.921875 350.875 255.839844 350.878906 255.761719 350.878906 L 255.761719 511.996094 C 255.839844 511.996094 255.921875 512 256 512 C 284.914062 512 312.703125 507.199219 338.628906 498.363281 C 342.121094 489.476562 344.035156 479.609375 344.035156 468.90625 C 344.035156 420.289062 304.621094 350.875 256 350.875 Z M 256 350.875 " style=" stroke:none;fill-rule:nonzero;fill:rgb(81.960784%,20.392157%,0%);fill-opacity:1;" />
<path d="M 322.527344 339.703125 C 322.527344 376.445312 292.742188 406.230469 256 406.230469 C 219.257812 406.230469 189.472656 376.445312 189.472656 339.703125 C 189.472656 302.960938 219.257812 273.175781 256 273.175781 C 292.742188 273.175781 322.527344 302.960938 322.527344 339.703125 Z M 322.527344 339.703125 " style=" stroke:none;fill-rule:nonzero;fill:rgb(99.607843%,41.568627%,8.627451%);fill-opacity:1;" />
<path d="M 256 273.175781 C 255.921875 273.175781 255.84375 273.179688 255.761719 273.179688 L 255.761719 406.222656 C 255.84375 406.222656 255.921875 406.230469 256 406.230469 C 292.742188 406.230469 322.527344 376.445312 322.527344 339.703125 C 322.527344 302.960938 292.742188 273.175781 256 273.175781 Z M 256 273.175781 " style=" stroke:none;fill-rule:nonzero;fill:rgb(98.039216%,36.470588%,5.882353%);fill-opacity:1;" />
<path d="M 227.492188 356.683594 C 227.492188 361.375 223.6875 365.175781 219 365.175781 C 214.3125 365.175781 210.507812 361.375 210.507812 356.683594 C 210.507812 351.996094 214.3125 348.191406 219 348.191406 C 223.6875 348.191406 227.492188 351.996094 227.492188 356.683594 Z M 227.492188 356.683594 " style=" stroke:none;fill-rule:nonzero;fill:rgb(51.372549%,21.176471%,4.313725%);fill-opacity:1;" />
<path d="M 303.664062 356.683594 C 303.664062 361.375 299.863281 365.175781 295.175781 365.175781 C 290.484375 365.175781 286.683594 361.375 286.683594 356.683594 C 286.683594 351.996094 290.484375 348.191406 295.175781 348.191406 C 299.863281 348.191406 303.664062 351.996094 303.664062 356.683594 Z M 303.664062 356.683594 " style=" stroke:none;fill-rule:nonzero;fill:rgb(38.431373%,16.470588%,2.352941%);fill-opacity:1;" />
<path d="M 270 358.035156 C 270 350.304688 263.730469 354.265625 256 354.265625 C 248.269531 354.265625 242 350.304688 242 358.035156 C 242 364.488281 246.371094 369.90625 252.3125 371.527344 L 252.3125 388.25 L 259.6875 388.25 L 259.6875 371.527344 C 265.628906 369.90625 270 364.488281 270 358.035156 Z M 270 358.035156 " style=" stroke:none;fill-rule:nonzero;fill:rgb(51.372549%,21.176471%,4.313725%);fill-opacity:1;" />
<path d="M 256 354.265625 C 255.921875 354.265625 255.839844 354.265625 255.761719 354.261719 L 255.761719 388.25 L 259.6875 388.25 L 259.6875 371.527344 C 265.628906 369.90625 270 364.488281 270 358.035156 C 270 350.304688 263.730469 354.265625 256 354.265625 Z M 256 354.265625 " style=" stroke:none;fill-rule:nonzero;fill:rgb(38.431373%,16.470588%,2.352941%);fill-opacity:1;" />
</g>
</svg>