<?xml version="1.0" encoding="iso-8859-1"?>
<!-- Generator: Adobe Illustrator 19.0.0, SVG Export Plug-In . SVG Version: 6.00 Build 0)  -->
<svg xmlns="http://www.w3.org/2000/svg" xmlns:xlink="http://www.w3.org/1999/xlink" version="1.1" id="Capa_1" x="0px" y="0px" viewBox="0 0 512 512" style="enable-background:new 0 0 512 512;" xml:space="preserve">
<circle style="fill:#F072AE;" cx="256" cy="256" r="256"/>
<path style="fill:#ED539D;" d="M511.235,275.896L383.144,147.803c-30.623-35.951-76.217-58.76-127.144-58.76l0,0l0,0  c-92.208,0-166.957,74.749-166.957,166.957v128c0,4.425,1.734,8.438,4.545,11.427l-0.057,0.229l111.208,111.207  C221.302,510.229,238.444,512,256,512C390.689,512,501.082,407.983,511.235,275.896z"/>
<path style="fill:#46F8FF;" d="M256,89.043L256,89.043c-92.208,0-166.957,74.749-166.957,166.957v128  c0,9.22,7.475,16.696,16.696,16.696l0,0c9.22,0,16.696-7.475,16.696-16.696l0,0c0-9.22,7.475-16.696,16.696-16.696l0,0  c9.22,0,16.696,7.475,16.696,16.696l0,0c0,9.22,7.475,16.696,16.696,16.696l0,0c9.22,0,16.696-7.475,16.696-16.696l0,0  c0-9.22,7.475-16.696,16.696-16.696h11.13c9.22,0,16.696,7.475,16.696,16.696l0,0c0,9.22,7.475,16.696,16.696,16.696h11.13  c9.22,0,16.696-7.475,16.696-16.696l0,0c0-9.22,7.475-16.696,16.696-16.696h11.13c9.22,0,16.696,7.475,16.696,16.696l0,0  c0,9.22,7.475,16.696,16.696,16.696l0,0c9.22,0,16.696-7.475,16.696-16.696l0,0c0-9.22,7.475-16.696,16.696-16.696l0,0  c9.22,0,16.696,7.475,16.696,16.696l0,0c0,9.22,7.475,16.696,16.696,16.696l0,0c9.22,0,16.696-7.475,16.696-16.696V256  C422.957,163.792,348.208,89.043,256,89.043z"/>
<path style="fill:#00E7F0;" d="M256,89.043L256,89.043v311.652h5.565c9.22,0,16.696-7.475,16.696-16.696l0,0  c0-9.22,7.475-16.696,16.696-16.696h11.13c9.22,0,16.696,7.475,16.696,16.696l0,0c0,9.22,7.475,16.696,16.696,16.696l0,0  c9.22,0,16.696-7.475,16.696-16.696l0,0c0-9.22,7.475-16.696,16.696-16.696l0,0c9.22,0,16.696,7.475,16.696,16.696l0,0  c0,9.22,7.475,16.696,16.696,16.696l0,0c9.22,0,16.696-7.475,16.696-16.696V256C422.957,163.792,348.208,89.043,256,89.043z"/>
<g>
	<path style="fill:#FFFFFF;" d="M172.522,289.391L172.522,289.391c-27.662,0-50.087-22.424-50.087-50.087l0,0   c0-27.662,22.424-50.087,50.087-50.087l0,0c27.662,0,50.087,22.424,50.087,50.087l0,0   C222.609,266.967,200.184,289.391,172.522,289.391z"/>
	<path style="fill:#FFFFFF;" d="M339.478,289.391L339.478,289.391c-27.662,0-50.087-22.424-50.087-50.087l0,0   c0-27.662,22.424-50.087,50.087-50.087l0,0c27.662,0,50.087,22.424,50.087,50.087l0,0   C389.565,266.967,367.141,289.391,339.478,289.391z"/>
</g>
<g>
	<path style="fill:#005ECE;" d="M150.261,267.13L150.261,267.13c-15.368,0-27.826-12.458-27.826-27.826l0,0   c0-15.368,12.458-27.826,27.826-27.826l0,0c15.368,0,27.826,12.458,27.826,27.826l0,0   C178.087,254.672,165.629,267.13,150.261,267.13z"/>
	<path style="fill:#005ECE;" d="M317.217,267.13L317.217,267.13c-15.368,0-27.826-12.458-27.826-27.826l0,0   c0-15.368,12.458-27.826,27.826-27.826l0,0c15.368,0,27.826,12.458,27.826,27.826l0,0   C345.043,254.672,332.585,267.13,317.217,267.13z"/>
</g>
<g>
</g>
<g>
</g>
<g>
</g>
<g>
</g>
<g>
</g>
<g>
</g>
<g>
</g>
<g>
</g>
<g>
</g>
<g>
</g>
<g>
</g>
<g>
</g>
<g>
</g>
<g>
</g>
<g>
</g>
</svg>
