<?xml version="1.0" encoding="iso-8859-1"?>
<!-- Generator: Adobe Illustrator 19.0.0, SVG Export Plug-In . SVG Version: 6.00 Build 0)  -->
<svg version="1.1" id="Capa_1" xmlns="http://www.w3.org/2000/svg" xmlns:xlink="http://www.w3.org/1999/xlink" x="0px" y="0px"
	 viewBox="0 0 512 512" style="enable-background:new 0 0 512 512;" xml:space="preserve">
<circle style="fill:#FFEB50;" cx="256" cy="256" r="256"/>
<path style="fill:#F7D139;" d="M309.763,506.327C425.331,481.624,512,378.941,512,256c0-0.802-0.023-1.6-0.03-2.4l-72.146-72.146
	l-28.166,26.399l-29.583-29.583l-8.631,68.417l-68.417-68.417l-20.585,34.626l-36.559-36.559l-10.81,66.53l-61.413-61.413
	l-28.234,26.508l-31.625-31.625L94.24,245.579l86.993,86.993l-22.414,22.811L309.763,506.327z"/>
<g>
	<path style="fill:#D7283C;" d="M69.17,198.287c0-15.732,12.753-28.486,28.486-28.486c13.179,0,24.262,8.952,27.514,21.105
		c3.252-12.153,14.336-21.105,27.514-21.105c15.732,0,28.486,12.753,28.486,28.486c0,40.786-56,69.272-56,69.272
		S69.17,239.073,69.17,198.287z"/>
	<path style="fill:#D7283C;" d="M201.251,198.287c0-15.732,12.753-28.486,28.486-28.486c13.179,0,24.262,8.952,27.514,21.105
		c3.252-12.153,14.336-21.105,27.514-21.105c15.732,0,28.486,12.753,28.486,28.486c0,40.786-56,69.272-56,69.272
		S201.251,239.073,201.251,198.287z"/>
</g>
<g>
	<path style="fill:#C30032;" d="M257.251,267.558c0,0,56-28.486,56-69.272c0-15.732-12.753-28.485-28.486-28.485
		c-13.179,0-24.262,8.952-27.514,21.105V267.558z"/>
	<path style="fill:#C30032;" d="M333.333,198.287c0-15.732,12.753-28.486,28.486-28.486c13.179,0,24.262,8.952,27.514,21.105
		c3.252-12.153,14.336-21.105,27.514-21.105c15.732,0,28.486,12.753,28.486,28.486c0,40.786-56,69.272-56,69.272
		S333.333,239.073,333.333,198.287z"/>
</g>
<path style="fill:#D7283C;" d="M133.959,308.287c0-15.732,12.753-28.486,28.486-28.486c13.179,0,24.262,8.952,27.514,21.105
	c3.252-12.153,14.336-21.105,27.514-21.105c15.732,0,28.486,12.753,28.486,28.486c0,40.786-56,69.272-56,69.272
	S133.959,349.073,133.959,308.287z"/>
<path style="fill:#C30032;" d="M266.041,308.287c0-15.732,12.753-28.486,28.486-28.486c13.179,0,24.262,8.952,27.514,21.105
	c3.252-12.153,14.336-21.105,27.514-21.105c15.732,0,28.486,12.753,28.486,28.486c0,40.786-56,69.272-56,69.272
	S266.041,349.073,266.041,308.287z"/>
<g>
</g>
<g>
</g>
<g>
</g>
<g>
</g>
<g>
</g>
<g>
</g>
<g>
</g>
<g>
</g>
<g>
</g>
<g>
</g>
<g>
</g>
<g>
</g>
<g>
</g>
<g>
</g>
<g>
</g>
</svg>
