<?xml version="1.0" encoding="iso-8859-1"?>
<!-- Generator: Adobe Illustrator 19.0.0, SVG Export Plug-In . SVG Version: 6.00 Build 0)  -->
<svg version="1.1" id="Capa_1" xmlns="http://www.w3.org/2000/svg" xmlns:xlink="http://www.w3.org/1999/xlink" x="0px" y="0px"
	 viewBox="0 0 512 512" style="enable-background:new 0 0 512 512;" xml:space="preserve">
<circle style="fill:#0066AA;" cx="256" cy="256" r="256"/>
<path style="fill:#1E2D64;" d="M512,256c0-7.025-0.295-13.98-0.85-20.862L392.59,116.577L141.095,411.44L241.22,511.565
	c4.893,0.279,9.818,0.435,14.78,0.435C397.385,512,512,397.385,512,256z"/>
<rect x="121.623" y="310.364" transform="matrix(-0.7071 -0.7071 0.7071 -0.7071 7.6312 716.8879)" style="fill:#FF4682;" width="61.329" height="92.999"/>
<rect x="147.267" y="320.994" transform="matrix(0.7071 0.7071 -0.7071 0.7071 307.573 -7.5598)" style="fill:#C42364;" width="31.29" height="92.999"/>
<polygon style="fill:#FFFFFF;" points="208.959,347.783 161.383,300.207 298.899,147.571 392.59,116.577 361.596,210.267 "/>
<polygon style="fill:#E0E0E0;" points="184.731,323.555 208.959,347.783 361.596,210.267 392.59,116.577 392.59,116.577 "/>
<rect x="143.011" y="293.145" transform="matrix(-0.7071 -0.7071 0.7071 -0.7071 113.1836 673.1722)" style="fill:#FF9B32;" width="105.999" height="40"/>
<rect x="187.718" y="311.671" transform="matrix(0.7071 0.7071 -0.7071 0.7071 297.3611 -54.5506)" style="fill:#FF7D0A;" width="53.621" height="40"/>
<g>
</g>
<g>
</g>
<g>
</g>
<g>
</g>
<g>
</g>
<g>
</g>
<g>
</g>
<g>
</g>
<g>
</g>
<g>
</g>
<g>
</g>
<g>
</g>
<g>
</g>
<g>
</g>
<g>
</g>
</svg>
