<?xml version="1.0" encoding="iso-8859-1"?>
<!-- Generator: Adobe Illustrator 19.0.0, SVG Export Plug-In . SVG Version: 6.00 Build 0)  -->
<svg version="1.1" id="Capa_1" xmlns="http://www.w3.org/2000/svg" xmlns:xlink="http://www.w3.org/1999/xlink" x="0px" y="0px"
	 viewBox="0 0 512 512" style="enable-background:new 0 0 512 512;" xml:space="preserve">
<circle style="fill:#85E374;" cx="256" cy="256" r="256"/>
<path style="fill:#13C37B;" d="M277.171,511.123C408.65,500.357,512,390.255,512,256c0-6.853-0.277-13.64-0.805-20.357
	L399.261,123.709l-4.682,8.168l-51.062-51.062L145.503,379.454L277.171,511.123z"/>
<path style="fill:#FFEB50;" d="M343.517,80.815H168.483c-11.603,21.166-31.715,36.999-55.744,42.894v177.057
	c0,36.813,18.271,71.226,48.766,91.848L256,456.518l94.495-63.903c30.495-20.622,48.766-55.035,48.766-91.848V123.71
	C375.232,117.815,355.12,101.981,343.517,80.815z"/>
<path style="fill:#F7D139;" d="M343.517,80.815H256v375.703l0,0l94.495-63.903c30.495-20.622,48.766-55.035,48.766-91.848V123.709
	C375.232,117.815,355.12,101.981,343.517,80.815z"/>
<path style="fill:#FF9B32;" d="M325.844,118.749H186.156c-9.26,16.892-25.311,29.528-44.487,34.232v141.303
	c0,29.379,14.582,56.843,38.918,73.301L256,418.584l75.413-50.999c24.337-16.458,38.918-43.922,38.918-73.301V152.982
	C351.155,148.277,335.104,135.641,325.844,118.749z"/>
<path style="fill:#FF7D0A;" d="M325.844,118.749H256v299.835l0,0l75.413-50.999c24.337-16.458,38.918-43.922,38.918-73.301V152.982
	C351.155,148.277,335.104,135.641,325.844,118.749z"/>
<g>
</g>
<g>
</g>
<g>
</g>
<g>
</g>
<g>
</g>
<g>
</g>
<g>
</g>
<g>
</g>
<g>
</g>
<g>
</g>
<g>
</g>
<g>
</g>
<g>
</g>
<g>
</g>
<g>
</g>
</svg>
