<svg xmlns="http://www.w3.org/2000/svg" height="512pt" version="1.1" viewBox="0 0 512 512" width="512pt">
<g id="surface1">
<path d="M 512 256 C 512 397.386719 397.386719 512 256 512 C 114.613281 512 0 397.386719 0 256 C 0 114.613281 114.613281 0 256 0 C 397.386719 0 512 114.613281 512 256 Z M 512 256 " style=" stroke:none;fill-rule:nonzero;fill:rgb(100%,85.490196%,0%);fill-opacity:1;" />
<path d="M 429.679688 194.742188 L 85.074219 320.589844 L 275.738281 511.25 C 401.210938 501.683594 501.382812 401.664062 511.203125 276.265625 Z M 429.679688 194.742188 " style=" stroke:none;fill-rule:nonzero;fill:rgb(100%,76.078431%,0%);fill-opacity:1;" />
<path d="M 352.332031 354.667969 L 159.667969 354.667969 C 105.175781 354.667969 61 310.492188 61 256 C 61 201.507812 105.175781 157.332031 159.667969 157.332031 L 352.335938 157.332031 C 406.824219 157.332031 451 201.507812 451 256 C 451 310.492188 406.824219 354.667969 352.332031 354.667969 Z M 352.332031 354.667969 " style=" stroke:none;fill-rule:nonzero;fill:rgb(20%,22.352941%,25.098039%);fill-opacity:1;" />
<path d="M 61 255.90625 C 61 255.9375 61 255.96875 61 256 C 61 310.492188 105.175781 354.667969 159.667969 354.667969 L 352.335938 354.667969 C 406.824219 354.667969 451 310.492188 451 256 C 451 255.96875 451 255.9375 451 255.90625 Z M 61 255.90625 " style=" stroke:none;fill-rule:nonzero;fill:rgb(13.72549%,15.294118%,16.862745%);fill-opacity:1;" />
<path d="M 156.378906 244.0625 L 130.648438 244.0625 L 130.648438 218.332031 L 106.773438 218.332031 L 106.773438 244.0625 L 81.042969 244.0625 L 81.042969 267.9375 L 106.773438 267.9375 L 106.773438 293.667969 L 130.648438 293.667969 L 130.648438 267.9375 L 156.378906 267.9375 Z M 156.378906 244.0625 " style=" stroke:none;fill-rule:nonzero;fill:rgb(43.921569%,46.666667%,53.72549%);fill-opacity:1;" />
<path d="M 81.042969 255.90625 L 81.042969 267.9375 L 106.773438 267.9375 L 106.773438 293.667969 L 130.648438 293.667969 L 130.648438 267.9375 L 156.378906 267.9375 L 156.378906 255.90625 Z M 81.042969 255.90625 " style=" stroke:none;fill-rule:nonzero;fill:rgb(38.823529%,41.176471%,47.058824%);fill-opacity:1;" />
<path d="M 408.773438 229.773438 C 408.773438 238.945312 401.335938 246.382812 392.164062 246.382812 C 382.988281 246.382812 375.554688 238.945312 375.554688 229.773438 C 375.554688 220.597656 382.988281 213.164062 392.164062 213.164062 C 401.335938 213.164062 408.773438 220.597656 408.773438 229.773438 Z M 408.773438 229.773438 " style=" stroke:none;fill-rule:nonzero;fill:rgb(43.921569%,46.666667%,53.72549%);fill-opacity:1;" />
<path d="M 408.773438 282.226562 C 408.773438 291.402344 401.335938 298.835938 392.164062 298.835938 C 382.988281 298.835938 375.554688 291.402344 375.554688 282.226562 C 375.554688 273.054688 382.988281 265.617188 392.164062 265.617188 C 401.335938 265.617188 408.773438 273.054688 408.773438 282.226562 Z M 408.773438 282.226562 " style=" stroke:none;fill-rule:nonzero;fill:rgb(38.823529%,41.176471%,47.058824%);fill-opacity:1;" />
<path d="M 435 256 C 435 265.171875 427.5625 272.609375 418.390625 272.609375 C 409.21875 272.609375 401.78125 265.171875 401.78125 256 C 401.78125 246.828125 409.21875 239.390625 418.390625 239.390625 C 427.5625 239.390625 435 246.828125 435 256 Z M 435 256 " style=" stroke:none;fill-rule:nonzero;fill:rgb(43.921569%,46.666667%,53.72549%);fill-opacity:1;" />
<path d="M 401.785156 255.90625 C 401.785156 255.9375 401.78125 255.96875 401.78125 256 C 401.78125 265.171875 409.21875 272.609375 418.390625 272.609375 C 427.5625 272.609375 435 265.171875 435 256 C 435 255.96875 434.996094 255.9375 434.996094 255.90625 Z M 401.785156 255.90625 " style=" stroke:none;fill-rule:nonzero;fill:rgb(38.823529%,41.176471%,47.058824%);fill-opacity:1;" />
<path d="M 382.542969 256 C 382.542969 265.171875 375.105469 272.609375 365.933594 272.609375 C 356.761719 272.609375 349.324219 265.171875 349.324219 256 C 349.324219 246.828125 356.761719 239.390625 365.933594 239.390625 C 375.105469 239.390625 382.542969 246.828125 382.542969 256 Z M 382.542969 256 " style=" stroke:none;fill-rule:nonzero;fill:rgb(43.921569%,46.666667%,53.72549%);fill-opacity:1;" />
<path d="M 349.328125 255.90625 C 349.328125 255.9375 349.324219 255.96875 349.324219 256 C 349.324219 265.171875 356.761719 272.609375 365.933594 272.609375 C 375.105469 272.609375 382.542969 265.171875 382.542969 256 C 382.542969 255.96875 382.539062 255.9375 382.539062 255.90625 Z M 349.328125 255.90625 " style=" stroke:none;fill-rule:nonzero;fill:rgb(38.823529%,41.176471%,47.058824%);fill-opacity:1;" />
<path d="M 170 170.835938 L 342 170.835938 L 342 341.164062 L 170 341.164062 Z M 170 170.835938 " style=" stroke:none;fill-rule:nonzero;fill:rgb(35.294118%,32.941176%,87.843137%);fill-opacity:1;" />
<path d="M 170 255.90625 L 342 255.90625 L 342 341.164062 L 170 341.164062 Z M 170 255.90625 " style=" stroke:none;fill-rule:nonzero;fill:rgb(22.745098%,25.490196%,80%);fill-opacity:1;" />
</g>
</svg>