<?xml version="1.0" encoding="iso-8859-1"?>
<!-- Generator: Adobe Illustrator 19.0.0, SVG Export Plug-In . SVG Version: 6.00 Build 0)  -->
<svg xmlns="http://www.w3.org/2000/svg" xmlns:xlink="http://www.w3.org/1999/xlink" version="1.1" id="Capa_1" x="0px" y="0px" viewBox="0 0 512 512" style="enable-background:new 0 0 512 512;" xml:space="preserve">
<circle style="fill:#50206C;" cx="256" cy="256" r="256"/>
<path style="fill:#3D1952;" d="M511.935,261.106L294.656,43.825l-0.326-0.326L42.476,295.352l0.326,0.326l-0.032,0.032  l216.252,216.252C397.311,510.359,509.234,399.126,511.935,261.106z"/>
<path style="fill:#5EAC24;" d="M467.478,216.648l-53.181-53.181c-18.617,8.891-41.586,5.638-57.005-9.783  c-15.42-15.419-18.674-38.388-9.783-57.005l-53.181-53.181L42.476,295.352l53.181,53.181c18.617-8.891,41.586-5.638,57.005,9.783  s18.674,38.388,9.783,57.005l53.181,53.181L467.478,216.648z"/>
<path style="fill:#4E901E;" d="M467.478,216.648l-53.181-53.181c-18.617,8.891-41.586,5.638-57.005-9.783L152.662,358.315  c15.419,15.419,18.674,38.388,9.783,57.005l53.181,53.181L467.478,216.648z"/>
<path style="fill:#FFFFFF;" d="M373.033,232.389L231.366,374.056l-94.445-94.445l141.667-141.667L373.033,232.389 M404.514,232.389  L278.588,106.463L105.44,279.611l125.926,125.926L404.514,232.389L404.514,232.389z"/>
<polygon style="fill:#D8D9DD;" points="373.033,232.389 231.366,374.056 184.144,326.834 168.402,342.575 231.366,405.537   404.514,232.389 341.552,169.425 325.811,185.166 "/>
<g>
</g>
<g>
</g>
<g>
</g>
<g>
</g>
<g>
</g>
<g>
</g>
<g>
</g>
<g>
</g>
<g>
</g>
<g>
</g>
<g>
</g>
<g>
</g>
<g>
</g>
<g>
</g>
<g>
</g>
</svg>
