<?xml version="1.0" encoding="iso-8859-1"?>
<!-- Generator: Adobe Illustrator 19.0.0, SVG Export Plug-In . SVG Version: 6.00 Build 0)  -->
<svg version="1.1" id="Capa_1" xmlns="http://www.w3.org/2000/svg" xmlns:xlink="http://www.w3.org/1999/xlink" x="0px" y="0px"
	 viewBox="0 0 512 512" style="enable-background:new 0 0 512 512;" xml:space="preserve">
<circle style="fill:#733C82;" cx="256" cy="256" r="256"/>
<path style="fill:#4B285A;" d="M512,256c0-2.116-0.029-4.225-0.08-6.328L395.292,133.044L256,426.956l74.129,74.129
	C435.364,469.297,512,371.605,512,256z"/>
<polygon style="fill:#91CDFF;" points="449.01,216.779 449.01,216.779 395.292,133.044 116.708,133.044 62.99,216.779 
	62.99,216.779 62.99,216.779 62.99,216.779 62.99,216.779 256,426.956 "/>
<polygon style="fill:#1E8CE6;" points="449.01,216.78 449.01,216.78 395.292,133.044 256,133.044 256,426.956 256,426.956 "/>
<polygon style="fill:#64AFFF;" points="449.01,216.78 62.99,216.78 116.708,133.044 395.292,133.044 "/>
<polygon style="fill:#1478D2;" points="395.292,133.044 256,133.044 256,216.78 449.01,216.78 "/>
<polygon style="fill:#B9EAFF;" points="395.292,133.044 336.333,216.78 256,133.044 183,216.78 116.708,133.044 "/>
<polygon style="fill:#91CDFF;" points="256,133.044 336.333,216.78 395.292,133.044 "/>
<polygon style="fill:#B9EAFF;" points="183,216.78 256,426.956 336.333,216.78 "/>
<polygon style="fill:#91CDFF;" points="336.333,216.78 256,216.78 256,426.956 256,426.956 "/>
<g>
</g>
<g>
</g>
<g>
</g>
<g>
</g>
<g>
</g>
<g>
</g>
<g>
</g>
<g>
</g>
<g>
</g>
<g>
</g>
<g>
</g>
<g>
</g>
<g>
</g>
<g>
</g>
<g>
</g>
</svg>
