<?xml version="1.0" encoding="iso-8859-1"?>
<!-- Generator: Adobe Illustrator 19.0.0, SVG Export Plug-In . SVG Version: 6.00 Build 0)  -->
<svg xmlns="http://www.w3.org/2000/svg" xmlns:xlink="http://www.w3.org/1999/xlink" version="1.1" id="Capa_1" x="0px" y="0px" viewBox="0 0 512 512" style="enable-background:new 0 0 512 512;" xml:space="preserve">
<circle style="fill:#57A4FF;" cx="256" cy="256" r="256"/>
<path style="fill:#2488FF;" d="M512,256c0-12.302-0.887-24.397-2.564-36.236l-97.33-97.329l0,0H165.278L116.03,73.187l-7.87,7.87  l41.377,41.377h-26.823v4.658l-19.164-19.164l-7.87,7.87l27.035,27.035v31.481l-26.08-26.08l-7.87,7.87l33.685,33.685  c0.017,1.658,0.101,3.317,0.266,4.97v217.066l0,0l97.7,97.7C232.046,511.144,243.922,512,256,512C397.384,512,512,397.384,512,256z"/>
<rect x="122.713" y="122.435" style="fill:#C6C5CA;" width="289.391" height="289.391"/>
<polygon style="fill:#787680;" points="412.105,411.826 122.714,411.826 412.105,122.435 "/>
<rect x="144.974" y="144.696" style="fill:#87868A;" width="244.87" height="244.87"/>
<circle style="fill:#ACABB1;" cx="267.409" cy="267.13" r="111.304"/>
<path style="fill:#D8D9DD;" d="M267.41,378.435V155.826c-61.472,0-111.304,49.832-111.304,111.304S205.939,378.435,267.41,378.435z"/>
<circle style="fill:#C6C5CA;" cx="267.409" cy="267.13" r="89.043"/>
<rect x="256.278" y="200.348" style="fill:#3E3D42;" width="22.261" height="133.565"/>
<g>
	
		<rect x="116.306" y="102.638" transform="matrix(0.7071 -0.7071 0.7071 0.7071 -59.1419 125.4586)" style="fill:#FFFFFF;" width="11.13" height="62.964"/>
	
		<rect x="106.618" y="144.098" transform="matrix(0.7071 -0.7071 0.7071 0.7071 -88.5139 129.5992)" style="fill:#FFFFFF;" width="11.13" height="55.095"/>
	
		<rect x="137.008" y="64.5" transform="matrix(0.7071 -0.7071 0.7071 0.7071 -34.3195 132.3268)" style="fill:#FFFFFF;" width="11.13" height="86.182"/>
</g>
<circle style="fill:#FFDA44;" cx="178.087" cy="189.217" r="55.652"/>
<path style="fill:#FFCD00;" d="M178.087,133.565V244.87c30.736,0,55.652-24.917,55.652-55.652S208.823,133.565,178.087,133.565z"/>
<circle style="fill:#FFA733;" cx="178.087" cy="189.217" r="44.522"/>
<g>
</g>
<g>
</g>
<g>
</g>
<g>
</g>
<g>
</g>
<g>
</g>
<g>
</g>
<g>
</g>
<g>
</g>
<g>
</g>
<g>
</g>
<g>
</g>
<g>
</g>
<g>
</g>
<g>
</g>
</svg>
