<svg xmlns="http://www.w3.org/2000/svg" height="512pt" version="1.1" viewBox="0 0 512 512" width="512pt">
<g id="surface1">
<path d="M 512 256 C 512 397.386719 397.386719 512 256 512 C 114.613281 512 0 397.386719 0 256 C 0 114.613281 114.613281 0 256 0 C 397.386719 0 512 114.613281 512 256 Z M 512 256 " style=" stroke:none;fill-rule:nonzero;fill:rgb(99.607843%,41.568627%,8.627451%);fill-opacity:1;" />
<path d="M 512 256 C 512 251.09375 511.847656 246.222656 511.574219 241.382812 L 397.148438 126.957031 L 119.875 391.246094 L 240.125 511.496094 C 245.378906 511.816406 250.667969 512 256 512 C 397.386719 512 512 397.386719 512 256 Z M 512 256 " style=" stroke:none;fill-rule:nonzero;fill:rgb(98.039216%,36.470588%,5.882353%);fill-opacity:1;" />
<path d="M 360.800781 404.492188 L 151.199219 404.492188 C 127.070312 404.492188 107.507812 384.933594 107.507812 360.800781 L 107.507812 151.199219 C 107.507812 127.070312 127.066406 107.507812 151.199219 107.507812 L 360.800781 107.507812 C 384.929688 107.507812 404.492188 127.066406 404.492188 151.199219 L 404.492188 360.800781 C 404.492188 384.929688 384.929688 404.492188 360.800781 404.492188 Z M 360.800781 404.492188 " style=" stroke:none;fill-rule:nonzero;fill:rgb(100%,100%,100%);fill-opacity:1;" />
<path d="M 360.800781 107.507812 L 255.167969 107.507812 L 255.167969 404.492188 L 360.800781 404.492188 C 384.929688 404.492188 404.492188 384.929688 404.492188 360.800781 L 404.492188 151.199219 C 404.492188 127.070312 384.929688 107.507812 360.800781 107.507812 Z M 360.800781 107.507812 " style=" stroke:none;fill-rule:nonzero;fill:rgb(90.196078%,90.196078%,90.196078%);fill-opacity:1;" />
<path d="M 315.882812 188.824219 L 355.667969 107.507812 L 156.335938 107.507812 L 196.117188 188.824219 C 177.640625 205.308594 166.003906 229.292969 166.003906 256 C 166.003906 305.703125 206.296875 345.996094 256 345.996094 C 305.703125 345.996094 345.996094 305.703125 345.996094 256 C 345.996094 229.292969 334.359375 205.308594 315.882812 188.824219 Z M 315.882812 188.824219 " style=" stroke:none;fill-rule:nonzero;fill:rgb(84.313725%,84.313725%,84.313725%);fill-opacity:1;" />
<path d="M 315.882812 188.824219 L 355.667969 107.507812 L 255.167969 107.507812 L 255.167969 345.984375 C 255.445312 345.988281 255.722656 345.996094 256 345.996094 C 305.703125 345.996094 345.996094 305.703125 345.996094 256 C 345.996094 229.292969 334.359375 205.308594 315.882812 188.824219 Z M 315.882812 188.824219 " style=" stroke:none;fill-rule:nonzero;fill:rgb(80.392157%,80.392157%,80.392157%);fill-opacity:1;" />
<path d="M 185 353.667969 C 185 368.027344 173.359375 379.667969 159 379.667969 C 144.640625 379.667969 133 368.027344 133 353.667969 C 133 339.308594 144.640625 327.667969 159 327.667969 C 173.359375 327.667969 185 339.308594 185 353.667969 Z M 185 353.667969 " style=" stroke:none;fill-rule:nonzero;fill:rgb(90.196078%,90.196078%,90.196078%);fill-opacity:1;" />
<path d="M 379 353.667969 C 379 368.027344 367.359375 379.667969 353 379.667969 C 338.640625 379.667969 327 368.027344 327 353.667969 C 327 339.308594 338.640625 327.667969 353 327.667969 C 367.359375 327.667969 379 339.308594 379 353.667969 Z M 379 353.667969 " style=" stroke:none;fill-rule:nonzero;fill:rgb(84.313725%,84.313725%,84.313725%);fill-opacity:1;" />
</g>
</svg>