<?xml version="1.0" encoding="iso-8859-1"?>
<!-- Generator: Adobe Illustrator 19.0.0, SVG Export Plug-In . SVG Version: 6.00 Build 0)  -->
<svg version="1.1" id="Capa_1" xmlns="http://www.w3.org/2000/svg" xmlns:xlink="http://www.w3.org/1999/xlink" x="0px" y="0px"
	 viewBox="0 0 512 512" style="enable-background:new 0 0 512 512;" xml:space="preserve">
<circle style="fill:#733C82;" cx="256" cy="256" r="256"/>
<path style="fill:#4B285A;" d="M512,256c0-5.199-0.174-10.357-0.479-15.479L331,60L165.315,429.819l82.019,82.019
	c2.878,0.096,5.764,0.162,8.666,0.162C397.385,512,512,397.385,512,256z"/>
<rect x="181" y="60" style="fill:#FF4682;" width="150" height="213.84"/>
<g>
	<rect x="255.95" y="60" style="fill:#C42364;" width="75.05" height="213.84"/>
	<rect x="219.67" y="60" style="fill:#C42364;" width="72.67" height="213.84"/>
</g>
<rect x="255.95" y="60" style="fill:#B40A5A;" width="36.38" height="213.84"/>
<polygon style="fill:#FFEB50;" points="255.952,150.815 301.343,242.593 402.732,257.325 329.366,328.839 346.685,429.819 
	255.952,382.168 165.315,429.819 182.634,328.839 109.268,257.325 210.657,242.593 "/>
<polygon style="fill:#F7D139;" points="402.732,257.325 301.343,242.593 255.952,150.815 255.952,150.815 255.952,382.168 
	255.952,382.168 346.685,429.819 329.366,328.839 "/>
<g>
</g>
<g>
</g>
<g>
</g>
<g>
</g>
<g>
</g>
<g>
</g>
<g>
</g>
<g>
</g>
<g>
</g>
<g>
</g>
<g>
</g>
<g>
</g>
<g>
</g>
<g>
</g>
<g>
</g>
</svg>
