<?xml version="1.0" encoding="iso-8859-1"?>
<!-- Generator: Adobe Illustrator 19.0.0, SVG Export Plug-In . SVG Version: 6.00 Build 0)  -->
<svg xmlns="http://www.w3.org/2000/svg" xmlns:xlink="http://www.w3.org/1999/xlink" version="1.1" id="Capa_1" x="0px" y="0px" viewBox="0 0 512 512" style="enable-background:new 0 0 512 512;" xml:space="preserve">
<circle style="fill:#57A4FF;" cx="256" cy="256" r="256"/>
<path style="fill:#2488FF;" d="M512,256c0-27.552-4.371-54.079-12.425-78.948l-76.748-76.748l0.129-0.13l-11.13-11.13l-11.13,11.13  l-9.023-9.023l-23.216,23.216l-0.13,3.423c-69.947-56.988-173.076-52.894-238.254,12.285c-69.547,69.547-69.547,182.305,0,251.853  c0.211,0.211,0.427,0.414,0.64,0.623l0,0L260.11,511.948C399.598,509.749,512,396.011,512,256z"/>
<circle style="fill:#FF3501;" cx="256" cy="256" r="178.087"/>
<path style="fill:#CD2A00;" d="M381.926,130.074L130.074,381.926c69.547,69.547,182.305,69.547,251.853,0  S451.474,199.621,381.926,130.074z"/>
<circle style="fill:#FFFFFF;" cx="256" cy="256" r="136.181"/>
<path style="fill:#E0E0E2;" d="M352.297,159.703L159.703,352.297c53.183,53.183,139.41,53.183,192.593,0  S405.479,212.886,352.297,159.703z"/>
<circle style="fill:#FF3501;" cx="256" cy="256" r="94.286"/>
<path style="fill:#CD2A00;" d="M322.667,189.333L189.333,322.667c36.819,36.819,96.515,36.819,133.334,0  S359.486,226.153,322.667,189.333z"/>
<circle style="fill:#FFFFFF;" cx="256" cy="256" r="52.38"/>
<path style="fill:#E0E0E2;" d="M293.038,218.962l-74.074,74.074c20.456,20.456,53.62,20.456,74.074,0  C313.492,272.582,313.492,239.418,293.038,218.962z"/>
<polygon style="fill:#5EAC24;" points="368.457,114.366 367.304,144.696 397.634,143.543 420.85,120.328 391.672,91.15 "/>
<rect x="330.881" y="62.043" transform="matrix(0.7071 0.7071 -0.7071 0.7071 221.7333 -188.7852)" style="fill:#3E3D42;" width="15.738" height="222.44"/>
<g>
</g>
<g>
</g>
<g>
</g>
<g>
</g>
<g>
</g>
<g>
</g>
<g>
</g>
<g>
</g>
<g>
</g>
<g>
</g>
<g>
</g>
<g>
</g>
<g>
</g>
<g>
</g>
<g>
</g>
</svg>
