<?xml version="1.0" encoding="iso-8859-1"?>
<!-- Generator: Adobe Illustrator 19.0.0, SVG Export Plug-In . SVG Version: 6.00 Build 0)  -->
<svg xmlns="http://www.w3.org/2000/svg" xmlns:xlink="http://www.w3.org/1999/xlink" version="1.1" id="Capa_1" x="0px" y="0px" viewBox="0 0 512 512" style="enable-background:new 0 0 512 512;" xml:space="preserve">
<circle style="fill:#005ECE;" cx="256" cy="256" r="256"/>
<path style="fill:#00479B;" d="M512,256c0-21.965-2.77-43.282-7.974-63.626L389.563,77.911l-267.128,0.002v356.174l69.939,69.939  C212.718,509.23,234.035,512,256,512C397.385,512,512,397.385,512,256z"/>
<rect x="122.435" y="77.913" style="fill:#9CDD05;" width="267.13" height="356.174"/>
<rect x="256" y="77.913" style="fill:#5EAC24;" width="133.565" height="356.174"/>
<g>
	<polygon style="fill:#FFFFFF;" points="322.783,77.913 322.783,133.565 189.217,133.565 189.217,77.913 178.087,77.913    178.087,144.696 333.913,144.696 333.913,77.913  "/>
	<polygon style="fill:#FFFFFF;" points="189.217,434.087 189.217,378.435 322.783,378.435 322.783,434.087 333.913,434.087    333.913,367.304 178.087,367.304 178.087,434.087  "/>
	<path style="fill:#FFFFFF;" d="M389.565,244.87h-83.793c-2.769-25.042-23.992-44.522-49.772-44.522   c-25.78,0-47.003,19.479-49.772,44.522h-83.793V256h83.793c2.769,25.041,23.992,44.522,49.772,44.522s47.003-19.48,49.772-44.522   h83.793V244.87z M256,289.391c-21.515,0-38.957-17.441-38.957-38.957s17.441-38.957,38.957-38.957s38.957,17.441,38.957,38.957   S277.515,289.391,256,289.391z"/>
</g>
<g>
	<polygon style="fill:#D8D9DD;" points="333.913,144.696 333.913,77.913 322.783,77.913 322.783,133.565 256,133.565 256,144.696     "/>
	<polygon style="fill:#D8D9DD;" points="322.783,378.435 322.783,434.087 333.913,434.087 333.913,367.304 256,367.304 256,378.435     "/>
	<path style="fill:#D8D9DD;" d="M294.957,250.435c0,21.515-17.441,38.957-38.957,38.957v11.13c25.78,0,47.003-19.48,49.772-44.522   h83.793v-11.13h-83.793c-2.769-25.042-23.992-44.522-49.772-44.522v11.13C277.515,211.478,294.957,228.92,294.957,250.435z"/>
</g>
<g>
</g>
<g>
</g>
<g>
</g>
<g>
</g>
<g>
</g>
<g>
</g>
<g>
</g>
<g>
</g>
<g>
</g>
<g>
</g>
<g>
</g>
<g>
</g>
<g>
</g>
<g>
</g>
<g>
</g>
</svg>
