<?xml version="1.0" encoding="iso-8859-1"?>
<!-- Generator: Adobe Illustrator 19.0.0, SVG Export Plug-In . SVG Version: 6.00 Build 0)  -->
<svg version="1.1" id="Capa_1" xmlns="http://www.w3.org/2000/svg" xmlns:xlink="http://www.w3.org/1999/xlink" x="0px" y="0px"
	 viewBox="0 0 512 512" style="enable-background:new 0 0 512 512;" xml:space="preserve">
<circle style="fill:#0066AA;" cx="256" cy="256" r="256"/>
<path style="fill:#1E2D64;" d="M512,256c0-10.256-0.621-20.365-1.794-30.305L405.332,120.821l-19.309,19.735l11.31,11.31
	l-24.308,56.253l-59.994-85.902l-20.232,19.307l14.029,14.029l-19.25,35.988l-67.998-67.998l-21.426,18.006l12.025,12.025
	l-9.934,44.751l-77.321-77.321l-17.205,22.07l12.614,12.614l-3.667,243.952l110.505,110.505C235.28,511.36,245.565,512,256,512
	C397.385,512,512,397.385,512,256z"/>
<polygon style="fill:#FFE13C;" points="397.333,318.975 114.667,318.975 114.667,135.641 161.778,231.869 208.889,135.641 
	256,231.869 303.111,135.641 350.222,231.869 397.333,135.641 "/>
<polygon style="fill:#F2C230;" points="397.333,135.641 350.222,231.869 303.111,135.641 256,231.869 256,231.869 255.667,318.975 
	397.333,318.975 "/>
<rect x="114.67" y="311.64" style="fill:#FFEB50;" width="282.67" height="88"/>
<rect x="255.67" y="311.64" style="fill:#F7D139;" width="141.67" height="88"/>
<rect x="114.67" y="341.64" style="fill:#FFE13C;" width="282.67" height="28"/>
<rect x="255.67" y="341.64" style="fill:#F2C230;" width="141.67" height="28"/>
<g>
	<circle style="fill:#FF4682;" cx="114.67" cy="132.31" r="14"/>
	<circle style="fill:#FF4682;" cx="208.67" cy="132.31" r="14"/>
	<circle style="fill:#FF4682;" cx="303.33" cy="132.31" r="14"/>
	<circle style="fill:#FF4682;" cx="397.33" cy="132.31" r="14"/>
</g>
<g>
</g>
<g>
</g>
<g>
</g>
<g>
</g>
<g>
</g>
<g>
</g>
<g>
</g>
<g>
</g>
<g>
</g>
<g>
</g>
<g>
</g>
<g>
</g>
<g>
</g>
<g>
</g>
<g>
</g>
</svg>
