<svg xmlns="http://www.w3.org/2000/svg" height="512pt" version="1.1" viewBox="0 0 512 512" width="512pt">
<g id="surface1">
<path d="M 512 256 C 512 397.386719 397.386719 512 256 512 C 114.613281 512 0 397.386719 0 256 C 0 114.613281 114.613281 0 256 0 C 397.386719 0 512 114.613281 512 256 Z M 512 256 " style=" stroke:none;fill-rule:nonzero;fill:rgb(35.294118%,32.941176%,87.843137%);fill-opacity:1;" />
<path d="M 510.191406 286.4375 L 479.753906 256 L 456.011719 262.808594 L 328.304688 135.105469 L 349.84375 193.238281 L 216.605469 60 L 182.605469 113.347656 L 219.703125 150.445312 L 149.777344 246.382812 L 123.65625 220.261719 L 120.09375 286.324219 L 56 291.738281 L 203.351562 439.089844 L 182.605469 454 L 240.097656 511.492188 C 245.359375 511.816406 250.65625 512 256 512 C 387.085938 512 495.140625 413.472656 510.191406 286.4375 Z M 510.191406 286.4375 " style=" stroke:none;fill-rule:nonzero;fill:rgb(22.745098%,25.490196%,80%);fill-opacity:1;" />
<path d="M 242.429688 424.511719 L 141.164062 255.996094 L 242.429688 87.589844 L 271.570312 105.109375 L 180.835938 256.003906 L 271.570312 407 Z M 242.429688 424.511719 " style=" stroke:none;fill-rule:nonzero;fill:rgb(100%,100%,100%);fill-opacity:1;" />
<path d="M 180.835938 256 L 141.167969 256 L 242.429688 424.511719 L 271.570312 407 L 180.835938 256.003906 Z M 180.835938 256 " style=" stroke:none;fill-rule:nonzero;fill:rgb(91.372549%,92.941176%,96.078431%);fill-opacity:1;" />
<path d="M 90.417969 240.054688 L 433.582031 240.054688 L 433.582031 272.054688 L 90.417969 272.054688 Z M 90.417969 240.054688 " style=" stroke:none;fill-rule:nonzero;fill:rgb(100%,85.490196%,0%);fill-opacity:1;" />
<path d="M 90.417969 256 L 433.582031 256 L 433.582031 272.054688 L 90.417969 272.054688 Z M 90.417969 256 " style=" stroke:none;fill-rule:nonzero;fill:rgb(100%,76.078431%,0%);fill-opacity:1;" />
<path d="M 479.753906 256 L 384.574219 300.265625 L 402.683594 256 L 384.574219 211.734375 Z M 479.753906 256 " style=" stroke:none;fill-rule:nonzero;fill:rgb(100%,100%,100%);fill-opacity:1;" />
<path d="M 402.683594 256 L 384.574219 300.265625 L 479.753906 256 Z M 402.683594 256 " style=" stroke:none;fill-rule:nonzero;fill:rgb(91.372549%,92.941176%,96.078431%);fill-opacity:1;" />
<path d="M 153.609375 256 L 123.660156 220.265625 L 56 220.265625 L 85.949219 256 L 56 291.738281 L 123.660156 291.738281 Z M 153.609375 256 " style=" stroke:none;fill-rule:nonzero;fill:rgb(2.352941%,80%,67.058824%);fill-opacity:1;" />
<path d="M 85.949219 256 L 56 291.738281 L 123.660156 291.738281 L 153.609375 256 Z M 85.949219 256 " style=" stroke:none;fill-rule:nonzero;fill:rgb(0%,74.117647%,61.568627%);fill-opacity:1;" />
<path d="M 216.605469 454 L 182.605469 454 L 182.605469 398.757812 L 199.605469 398.757812 C 278.292969 398.757812 342.308594 334.738281 342.308594 256.050781 C 342.308594 177.363281 278.292969 113.347656 199.605469 113.347656 L 182.605469 113.347656 L 182.605469 60 L 216.605469 60 L 216.605469 80.160156 C 306.097656 88.738281 376.308594 164.351562 376.308594 256.054688 C 376.308594 347.753906 306.097656 423.367188 216.605469 431.945312 Z M 216.605469 454 " style=" stroke:none;fill-rule:nonzero;fill:rgb(99.607843%,41.568627%,8.627451%);fill-opacity:1;" />
<path d="M 342.308594 256 C 342.308594 256.019531 342.308594 256.035156 342.308594 256.054688 C 342.308594 334.738281 278.292969 398.757812 199.605469 398.757812 L 182.605469 398.757812 L 182.605469 454 L 216.605469 454 L 216.605469 431.945312 C 306.097656 423.363281 376.308594 347.753906 376.308594 256.050781 C 376.308594 256.035156 376.308594 256.015625 376.308594 256 Z M 342.308594 256 " style=" stroke:none;fill-rule:nonzero;fill:rgb(98.039216%,36.470588%,5.882353%);fill-opacity:1;" />
</g>
</svg>