<?xml version="1.0" encoding="iso-8859-1"?>
<!-- Generator: Adobe Illustrator 19.0.0, SVG Export Plug-In . SVG Version: 6.00 Build 0)  -->
<svg version="1.1" id="Capa_1" xmlns="http://www.w3.org/2000/svg" xmlns:xlink="http://www.w3.org/1999/xlink" x="0px" y="0px"
	 viewBox="0 0 512.001 512.001" style="enable-background:new 0 0 512.001 512.001;" xml:space="preserve">
<circle style="fill:#91CDFF;" cx="256.001" cy="256" r="256"/>
<path style="fill:#1E8CE6;" d="M512,256c0-6.283-0.237-12.511-0.682-18.681L407.488,133.488L210.12,99.952L95.834,201.738
	l21.156,190.757L235.695,511.2c6.7,0.526,13.471,0.801,20.307,0.801C397.386,512,512,397.385,512,256z"/>
<path style="fill:#4D4D4D;" d="M413.001,226.333h-314v51.333h48.667c46.76,0,84.667,37.907,84.667,84.667v56h47.333v-56
	c0-46.76,37.907-84.667,84.667-84.667h48.666V226.333z"/>
<g>
	<path style="fill:#333333;" d="M255.953,226.333v192h23.714v-56c0-46.76,37.907-84.667,84.667-84.667h48.667v-51.333
		L255.953,226.333L255.953,226.333z"/>
	<path style="fill:#333333;" d="M256.001,61.167c-107.603,0-194.833,87.23-194.833,194.833s87.23,194.833,194.833,194.833
		S450.834,363.604,450.834,256S363.605,61.167,256.001,61.167z M256.001,398.667c-78.793,0-142.667-63.874-142.667-142.667
		s63.874-142.667,142.667-142.667S398.668,177.207,398.668,256C398.668,334.792,334.794,398.667,256.001,398.667z"/>
</g>
<path style="fill:#1A1A1A;" d="M256.001,61.167c-0.016,0-0.032,0-0.048,0v52.167c0.016,0,0.032-0.001,0.048-0.001
	c78.793,0,142.667,63.874,142.667,142.667c0,78.792-63.874,142.667-142.667,142.667c-0.016,0-0.032,0-0.048,0v52.167
	c0.016,0,0.032,0.001,0.048,0.001c107.604,0,194.833-87.23,194.833-194.833S363.605,61.167,256.001,61.167z"/>
<polygon style="fill:#808080;" points="241.001,296.282 226.001,270.301 241.001,244.32 271.001,244.32 286.001,270.301 
	271.001,296.282 "/>
<polygon style="fill:#666666;" points="286.001,270.301 271.001,244.32 255.953,244.32 255.953,296.282 271.001,296.282 "/>
<g>
</g>
<g>
</g>
<g>
</g>
<g>
</g>
<g>
</g>
<g>
</g>
<g>
</g>
<g>
</g>
<g>
</g>
<g>
</g>
<g>
</g>
<g>
</g>
<g>
</g>
<g>
</g>
<g>
</g>
</svg>
