<svg xmlns="http://www.w3.org/2000/svg" height="512pt" version="1.1" viewBox="0 0 512 512" width="512pt">
<g id="surface1">
<path d="M 512 256 C 512 397.386719 397.386719 512 256 512 C 114.613281 512 0 397.386719 0 256 C 0 114.613281 114.613281 0 256 0 C 397.386719 0 512 114.613281 512 256 Z M 512 256 " style=" stroke:none;fill-rule:nonzero;fill:rgb(100%,85.490196%,0%);fill-opacity:1;" />
<path d="M 512 256 C 512 248.515625 511.660156 241.113281 511.03125 233.792969 L 396.210938 118.40625 L 120.523438 398.257812 L 233.246094 510.984375 C 240.746094 511.644531 248.332031 512 256 512 C 397.386719 512 512 397.386719 512 256 Z M 512 256 " style=" stroke:none;fill-rule:nonzero;fill:rgb(100%,76.078431%,0%);fill-opacity:1;" />
<path d="M 452.445312 256 C 452.445312 364.492188 364.492188 452.445312 256 452.445312 C 147.507812 452.445312 59.554688 364.492188 59.554688 256 C 59.554688 147.507812 147.507812 59.554688 256 59.554688 C 364.492188 59.554688 452.445312 147.507812 452.445312 256 Z M 452.445312 256 " style=" stroke:none;fill-rule:nonzero;fill:rgb(35.294118%,32.941176%,87.843137%);fill-opacity:1;" />
<path d="M 256 59.554688 C 364.492188 59.554688 452.445312 147.507812 452.445312 256 C 452.445312 364.492188 364.492188 452.445312 256 452.445312 Z M 256 59.554688 " style=" stroke:none;fill-rule:nonzero;fill:rgb(99.607843%,41.568627%,8.627451%);fill-opacity:1;" />
<path d="M 256 103.050781 C 197.257812 103.050781 149.636719 191.003906 149.636719 299.496094 C 149.636719 353.179688 161.296875 401.820312 180.191406 437.277344 C 203.519531 447.046875 229.128906 452.445312 256 452.445312 C 282.871094 452.445312 308.480469 447.042969 331.808594 437.277344 C 350.699219 401.820312 362.363281 353.179688 362.363281 299.496094 C 362.363281 191.003906 314.742188 103.050781 256 103.050781 Z M 256 103.050781 " style=" stroke:none;fill-rule:nonzero;fill:rgb(100%,100%,100%);fill-opacity:1;" />
<path d="M 256 103.050781 C 255.921875 103.050781 255.839844 103.054688 255.761719 103.054688 L 255.761719 452.441406 C 255.84375 452.441406 255.921875 452.445312 256 452.445312 C 282.871094 452.445312 308.480469 447.042969 331.808594 437.277344 C 350.699219 401.820312 362.363281 353.179688 362.363281 299.496094 C 362.363281 191.003906 314.742188 103.050781 256 103.050781 Z M 256 103.050781 " style=" stroke:none;fill-rule:nonzero;fill:rgb(91.372549%,92.941176%,96.078431%);fill-opacity:1;" />
<path d="M 337.472656 96.121094 C 337.472656 76.171875 300.996094 60 256 60 C 211.003906 60 174.527344 76.171875 174.527344 96.121094 C 174.527344 116.074219 211.003906 132.246094 256 132.246094 C 300.996094 132.246094 337.472656 116.074219 337.472656 96.121094 Z M 337.472656 96.121094 " style=" stroke:none;fill-rule:nonzero;fill:rgb(2.352941%,80%,67.058824%);fill-opacity:1;" />
<path d="M 256 60 C 255.921875 60 255.84375 60.003906 255.761719 60.003906 L 255.761719 132.242188 C 255.84375 132.242188 255.921875 132.246094 256 132.246094 C 300.996094 132.246094 337.472656 116.074219 337.472656 96.121094 C 337.472656 76.171875 300.996094 60 256 60 Z M 256 60 " style=" stroke:none;fill-rule:nonzero;fill:rgb(0%,74.117647%,61.568627%);fill-opacity:1;" />
</g>
</svg>