<?xml version="1.0" encoding="iso-8859-1"?>
<!-- Generator: Adobe Illustrator 19.0.0, SVG Export Plug-In . SVG Version: 6.00 Build 0)  -->
<svg xmlns="http://www.w3.org/2000/svg" xmlns:xlink="http://www.w3.org/1999/xlink" version="1.1" id="Capa_1" x="0px" y="0px" viewBox="0 0 512 512" style="enable-background:new 0 0 512 512;" xml:space="preserve">
<circle style="fill:#9CDD05;" cx="256" cy="256" r="256"/>
<path style="fill:#5EAC24;" d="M512,256c0-13.71-1.091-27.165-3.165-40.292L364.003,70.877c-0.03-0.031-0.058-0.065-0.087-0.096  c-0.197-0.205-0.406-0.397-0.608-0.6l-1.685-1.685l-0.036,0.036c-1.106-1.01-2.252-1.979-3.449-2.887  c-1.374-1.042-2.804-2.013-4.286-2.909c-7.414-4.481-16.129-7.083-25.504-7.083c-30.002,0-53.24,26.645-48.71,56.303  c1.664,10.898,7.991,27.778,13.249,43.885c1.924,5.896,3.702,11.684,5.057,17.037c0.001,0.003,0.001,0.006,0.002,0.009  c0.225,0.89,0.439,1.769,0.639,2.632c0.001,0.003,0.001,0.007,0.002,0.01c0.201,0.866,0.388,1.719,0.562,2.557  c0.858,4.138,1.374,7.916,1.374,11.13c0,6.536-1.791,14.022-4.649,22.261c-0.585,1.688-1.218,3.41-1.888,5.161  c-0.035,0.089-0.068,0.177-0.102,0.266c-1.002,2.608-2.088,5.281-3.24,8.016c-0.038,0.09-0.076,0.179-0.113,0.269  c-1.175,2.785-2.416,5.633-3.704,8.537c-5.24,11.825-11.224,24.593-16.52,37.917c-1.993-2.377-4.084-4.701-6.32-6.938  c-41.294-41.294-108.243-41.294-149.537,0c-40.797,40.799-41.259,106.623-1.441,148.023l-0.022,0.022l0.861,0.861  c0.205,0.208,0.394,0.425,0.601,0.632c0.207,0.207,0.424,0.396,0.632,0.601l92.573,92.573C223.312,510.414,239.469,512,256,512  C397.385,512,512,397.384,512,256z"/>
<path style="fill:#FFFFFF;" d="M356.174,189.217c0-19.105,17.907-57.761,20.884-77.262c4.53-29.657-18.708-56.303-48.71-56.303l0,0  c-30.002,0-53.24,26.646-48.71,56.303c2.977,19.501,20.884,58.157,20.884,77.262c0,32.618-44.522,88.861-44.522,144.696  c0,48.958,22.261,111.304,22.261,111.304h100.174c0,0,22.261-62.346,22.261-111.304  C400.696,278.078,356.174,221.835,356.174,189.217z"/>
<path style="fill:#E1E3FA;" d="M356.174,189.217c0-19.105,17.907-57.761,20.884-77.262c4.53-29.658-18.708-56.303-48.71-56.303l0,0  v389.565h50.087c0,0,22.261-62.346,22.261-111.304C400.696,278.078,356.174,221.835,356.174,189.217z"/>
<g>
	<path style="fill:#00D7DF;" d="M363.815,155.826h-70.934c2.569,7.87,4.876,15.547,6.268,22.261h58.399   C358.939,171.373,361.246,163.696,363.815,155.826z"/>
	<path style="fill:#00D7DF;" d="M360.823,211.478h-64.951c-2.403,6.925-5.561,14.384-9.051,22.261h83.053   C366.384,225.862,363.225,218.404,360.823,211.478z"/>
</g>
<g>
	<path style="fill:#00B6BD;" d="M357.547,178.087c1.391-6.714,3.699-14.391,6.268-22.261h-35.467v22.261H357.547z"/>
	<path style="fill:#00B6BD;" d="M369.874,233.739c-3.49-7.877-6.649-15.336-9.051-22.261h-32.475v22.261H369.874z"/>
</g>
<circle style="fill:#5B5B5F;" cx="189.217" cy="339.478" r="105.739"/>
<path style="fill:#3E3D42;" d="M189.217,233.739v211.478c58.398,0,105.739-47.341,105.739-105.739S247.615,233.739,189.217,233.739z  "/>
<g>
	<ellipse style="fill:#ACABB1;" cx="194.783" cy="276.168" rx="11.13" ry="7.93"/>
	<ellipse style="fill:#ACABB1;" cx="210.365" cy="255.299" rx="11.13" ry="7.93"/>
	<ellipse style="fill:#ACABB1;" cx="179.2" cy="255.299" rx="11.13" ry="7.93"/>
</g>
<g>
</g>
<g>
</g>
<g>
</g>
<g>
</g>
<g>
</g>
<g>
</g>
<g>
</g>
<g>
</g>
<g>
</g>
<g>
</g>
<g>
</g>
<g>
</g>
<g>
</g>
<g>
</g>
<g>
</g>
</svg>
