<?xml version="1.0" encoding="iso-8859-1"?>
<!-- Generator: Adobe Illustrator 19.0.0, SVG Export Plug-In . SVG Version: 6.00 Build 0)  -->
<svg xmlns="http://www.w3.org/2000/svg" xmlns:xlink="http://www.w3.org/1999/xlink" version="1.1" id="Capa_1" x="0px" y="0px" viewBox="0 0 512 512" style="enable-background:new 0 0 512 512;" xml:space="preserve">
<circle style="fill:#9CDD05;" cx="256" cy="256" r="256"/>
<path style="fill:#5EAC24;" d="M512,256c0-3.82-0.1-7.617-0.266-11.396L397.301,130.17c-4.856-5.449-10.022-10.615-15.47-15.47  l-3.396-3.396l-0.319,0.17C345.157,83.6,302.545,66.783,256,66.783C151.499,66.783,66.783,151.499,66.783,256  c0,56.188,24.499,106.645,63.388,141.301l114.434,114.434C248.383,511.9,252.18,512,256,512C397.384,512,512,397.385,512,256z"/>
<circle style="fill:#FF5023;" cx="256" cy="256" r="189.217"/>
<path style="fill:#FF3501;" d="M256,66.783v378.435c104.501,0,189.217-84.716,189.217-189.217S360.501,66.783,256,66.783z"/>
<path style="fill:#FFFFFF;" d="M347.901,264.87h97.112c0.136-2.94,0.205-5.896,0.205-8.87s-0.069-5.93-0.205-8.87h-97.112  c2.475-44.146,23.309-83.467,54.971-110.437c-3.734-4.591-7.679-9.003-11.82-13.223c-35.299,30.22-58.429,74.264-60.915,123.66  H264.87V66.987c-2.94-0.136-5.897-0.205-8.87-0.205s-5.93,0.069-8.87,0.205V247.13h-65.267  c-2.485-49.396-25.616-93.44-60.915-123.66c-4.142,4.22-8.086,8.632-11.821,13.223c31.662,26.97,52.496,66.293,54.971,110.437  H66.987c-0.136,2.94-0.205,5.897-0.205,8.87s0.069,5.93,0.205,8.87h97.112c-2.475,44.146-23.309,83.467-54.971,110.437  c3.734,4.591,7.679,9.003,11.821,13.223c35.299-30.22,58.429-74.264,60.915-123.66h65.267v180.143  c2.94,0.136,5.897,0.205,8.87,0.205c2.973,0,5.93-0.069,8.87-0.205V264.87h65.267c2.485,49.396,25.616,93.44,60.915,123.66  c4.142-4.22,8.086-8.632,11.82-13.223C371.209,348.337,350.376,309.014,347.901,264.87z"/>
<g>
</g>
<g>
</g>
<g>
</g>
<g>
</g>
<g>
</g>
<g>
</g>
<g>
</g>
<g>
</g>
<g>
</g>
<g>
</g>
<g>
</g>
<g>
</g>
<g>
</g>
<g>
</g>
<g>
</g>
</svg>
