<svg xmlns="http://www.w3.org/2000/svg" height="512pt" version="1.1" viewBox="0 0 512 512" width="512pt">
<g id="surface1">
<path d="M 512 256 C 512 397.386719 397.386719 512 256 512 C 114.613281 512 0 397.386719 0 256 C 0 114.613281 114.613281 0 256 0 C 397.386719 0 512 114.613281 512 256 Z M 512 256 " style=" stroke:none;fill-rule:nonzero;fill:rgb(20%,22.352941%,25.098039%);fill-opacity:1;" />
<path d="M 512 256 C 512 231.664062 508.601562 208.121094 502.261719 185.820312 L 410.492188 94.050781 L 101.507812 417.945312 L 185.820312 502.261719 C 208.121094 508.601562 231.664062 512 256 512 C 397.386719 512 512 397.386719 512 256 Z M 512 256 " style=" stroke:none;fill-rule:nonzero;fill:rgb(13.72549%,15.294118%,16.862745%);fill-opacity:1;" />
<path d="M 101.507812 94.054688 L 410.492188 94.054688 L 410.492188 417.949219 L 101.507812 417.949219 Z M 101.507812 94.054688 " style=" stroke:none;fill-rule:nonzero;fill:rgb(100%,100%,100%);fill-opacity:1;" />
<path d="M 255.761719 94.054688 L 410.492188 94.054688 L 410.492188 417.949219 L 255.761719 417.949219 Z M 255.761719 94.054688 " style=" stroke:none;fill-rule:nonzero;fill:rgb(91.372549%,92.941176%,96.078431%);fill-opacity:1;" />
<path d="M 118.25 112.546875 L 203.75 112.546875 L 203.75 198.046875 L 118.25 198.046875 Z M 118.25 112.546875 " style=" stroke:none;fill-rule:nonzero;fill:rgb(90.196078%,90.196078%,90.196078%);fill-opacity:1;" />
<path d="M 308.25 112.546875 L 393.75 112.546875 L 393.75 198.046875 L 308.25 198.046875 Z M 308.25 112.546875 " style=" stroke:none;fill-rule:nonzero;fill:rgb(84.313725%,84.313725%,84.313725%);fill-opacity:1;" />
<path d="M 213.25 112.546875 L 298.75 112.546875 L 298.75 198.046875 L 213.25 198.046875 Z M 213.25 112.546875 " style=" stroke:none;fill-rule:nonzero;fill:rgb(90.196078%,90.196078%,90.196078%);fill-opacity:1;" />
<path d="M 255.761719 112.546875 L 298.75 112.546875 L 298.75 198.046875 L 255.761719 198.046875 Z M 255.761719 112.546875 " style=" stroke:none;fill-rule:nonzero;fill:rgb(84.313725%,84.313725%,84.313725%);fill-opacity:1;" />
<path d="M 118.25 211.796875 L 203.75 211.796875 L 203.75 297.296875 L 118.25 297.296875 Z M 118.25 211.796875 " style=" stroke:none;fill-rule:nonzero;fill:rgb(90.196078%,90.196078%,90.196078%);fill-opacity:1;" />
<path d="M 308.25 211.796875 L 393.75 211.796875 L 393.75 297.296875 L 308.25 297.296875 Z M 308.25 211.796875 " style=" stroke:none;fill-rule:nonzero;fill:rgb(84.313725%,84.313725%,84.313725%);fill-opacity:1;" />
<path d="M 213.25 211.796875 L 298.75 211.796875 L 298.75 297.296875 L 213.25 297.296875 Z M 213.25 211.796875 " style=" stroke:none;fill-rule:nonzero;fill:rgb(90.196078%,90.196078%,90.196078%);fill-opacity:1;" />
<path d="M 255.761719 211.796875 L 298.75 211.796875 L 298.75 297.296875 L 255.761719 297.296875 Z M 255.761719 211.796875 " style=" stroke:none;fill-rule:nonzero;fill:rgb(84.313725%,84.313725%,84.313725%);fill-opacity:1;" />
<path d="M 118.25 311.046875 L 203.75 311.046875 L 203.75 396.546875 L 118.25 396.546875 Z M 118.25 311.046875 " style=" stroke:none;fill-rule:nonzero;fill:rgb(90.196078%,90.196078%,90.196078%);fill-opacity:1;" />
<path d="M 308.25 311.046875 L 393.75 311.046875 L 393.75 396.546875 L 308.25 396.546875 Z M 308.25 311.046875 " style=" stroke:none;fill-rule:nonzero;fill:rgb(84.313725%,84.313725%,84.313725%);fill-opacity:1;" />
<path d="M 213.25 311.046875 L 298.75 311.046875 L 298.75 396.546875 L 213.25 396.546875 Z M 213.25 311.046875 " style=" stroke:none;fill-rule:nonzero;fill:rgb(90.196078%,90.196078%,90.196078%);fill-opacity:1;" />
<path d="M 255.761719 311.046875 L 298.75 311.046875 L 298.75 396.546875 L 255.761719 396.546875 Z M 255.761719 311.046875 " style=" stroke:none;fill-rule:nonzero;fill:rgb(84.313725%,84.313725%,84.313725%);fill-opacity:1;" />
<path d="M 173.25 177.5 L 173.25 128.5 L 159.917969 122.535156 L 138.667969 141.535156 L 149.332031 153.464844 L 157.25 146.382812 L 157.25 177.5 L 144.5625 177.5 L 144.5625 193.5 L 186.5625 193.5 L 186.5625 177.5 Z M 173.25 177.5 " style=" stroke:none;fill-rule:nonzero;fill:rgb(60.784314%,60.784314%,60.784314%);fill-opacity:1;" />
<path d="M 364.75 283.796875 L 348.75 283.796875 L 348.75 272.546875 L 323 272.546875 L 316.933594 259.328125 L 350.683594 220.078125 L 364.75 225.296875 L 364.75 256.546875 L 374.25 256.546875 L 374.25 272.546875 L 364.75 272.546875 Z M 340.429688 256.546875 L 348.75 256.546875 L 348.75 246.867188 Z M 340.429688 256.546875 " style=" stroke:none;fill-rule:nonzero;fill:rgb(50.980392%,50.980392%,50.980392%);fill-opacity:1;" />
<path d="M 156.894531 387.054688 L 143.105469 378.945312 L 166.011719 340 L 139 340 L 139 324 L 180 324 L 186.894531 336.054688 Z M 156.894531 387.054688 " style=" stroke:none;fill-rule:nonzero;fill:rgb(60.784314%,60.784314%,60.784314%);fill-opacity:1;" />
</g>
</svg>