<?xml version="1.0" encoding="iso-8859-1"?>
<!-- Generator: Adobe Illustrator 19.0.0, SVG Export Plug-In . SVG Version: 6.00 Build 0)  -->
<svg version="1.1" id="Capa_1" xmlns="http://www.w3.org/2000/svg" xmlns:xlink="http://www.w3.org/1999/xlink" x="0px" y="0px"
	 viewBox="0 0 512 512" style="enable-background:new 0 0 512 512;" xml:space="preserve">
<circle style="fill:#91CDFF;" cx="256" cy="256" r="256"/>
<path style="fill:#1E8CE6;" d="M512,256c0-5.628-0.202-11.209-0.56-16.747L398.274,126.087L118.511,390.953l120.47,120.47
	C244.608,511.792,250.279,512,256,512C397.385,512,512,397.385,512,256z"/>
<circle style="fill:#4D4D4D;" cx="256" cy="256" r="192.67"/>
<g>
	<path style="fill:#333333;" d="M255.905,448.666c0.032,0,0.063,0.001,0.095,0.001c106.407,0,192.667-86.26,192.667-192.667
		S362.407,63.333,256,63.333c-0.032,0-0.063,0.001-0.095,0.001V448.666z"/>
	<circle style="fill:#333333;" cx="183.81" cy="223.87" r="38.12"/>
	<circle style="fill:#333333;" cx="217.78" cy="126.88" r="38.12"/>
	<circle style="fill:#333333;" cx="282.25" cy="211.87" r="38.12"/>
</g>
<path style="fill:#1A1A1A;" d="M255.905,239.422c6.846,6.548,16.12,10.578,26.341,10.578c21.056,0,38.125-17.069,38.125-38.125
	s-17.069-38.125-38.125-38.125c-10.221,0-19.496,4.03-26.341,10.578V239.422z"/>
<g>
</g>
<g>
</g>
<g>
</g>
<g>
</g>
<g>
</g>
<g>
</g>
<g>
</g>
<g>
</g>
<g>
</g>
<g>
</g>
<g>
</g>
<g>
</g>
<g>
</g>
<g>
</g>
<g>
</g>
</svg>
