<?xml version="1.0" encoding="iso-8859-1"?>
<!-- Generator: Adobe Illustrator 19.0.0, SVG Export Plug-In . SVG Version: 6.00 Build 0)  -->
<svg xmlns="http://www.w3.org/2000/svg" xmlns:xlink="http://www.w3.org/1999/xlink" version="1.1" id="Capa_1" x="0px" y="0px" viewBox="0 0 512 512" style="enable-background:new 0 0 512 512;" xml:space="preserve">
<circle style="fill:#9CDD05;" cx="256" cy="256" r="256"/>
<path style="fill:#5EAC24;" d="M512,256c0-3.82-0.1-7.617-0.266-11.396L397.301,130.17c-4.856-5.449-10.022-10.615-15.47-15.47  l-3.396-3.396l-0.319,0.17C345.157,83.6,302.545,66.783,256,66.783C151.499,66.783,66.783,151.499,66.783,256  c0,56.188,24.499,106.645,63.388,141.301l114.434,114.434C248.383,511.9,252.18,512,256,512C397.384,512,512,397.385,512,256z"/>
<circle style="fill:#5B5B5F;" cx="256" cy="256" r="189.217"/>
<path style="fill:#3E3D42;" d="M256,66.783v378.435c104.501,0,189.217-84.716,189.217-189.217S360.501,66.783,256,66.783z"/>
<circle style="fill:#FFFFFF;" cx="256" cy="256" r="106.429"/>
<path style="fill:#D8D9DD;" d="M256,149.565v212.87c58.782,0,106.435-47.653,106.435-106.435S314.782,149.565,256,149.565z"/>
<path d="M298.436,279.109c0,5.485-1.125,10.419-3.371,14.803c-2.248,4.387-5.32,8.17-9.212,11.349  c-3.893,3.182-8.417,5.621-13.569,7.319c-5.156,1.699-10.637,2.549-16.447,2.549c-5.813,0-11.295-0.905-16.447-2.714  c-5.156-1.81-9.65-4.359-13.488-7.649c-3.84-3.289-6.854-7.18-9.046-11.678c-2.195-4.494-3.29-9.43-3.29-14.802  c0-3.29,0.548-6.332,1.645-9.129c1.095-2.796,2.521-5.346,4.276-7.649c1.753-2.303,3.701-4.33,5.839-6.086  c2.138-1.753,4.302-3.179,6.497-4.276c-4.058-1.973-7.513-4.934-10.362-8.882c-2.853-3.947-4.276-8.278-4.276-12.994  c0-5.264,1.178-9.895,3.536-13.899c2.356-4.001,5.427-7.373,9.212-10.115c3.783-2.739,7.949-4.824,12.499-6.25  c4.549-1.424,9.072-2.138,13.57-2.138c4.384,0,8.908,0.687,13.569,2.056c4.659,1.372,8.854,3.428,12.582,6.168  c3.726,2.743,6.797,6.114,9.212,10.116c2.411,4.004,3.618,8.635,3.618,13.897c0,2.303-0.385,4.58-1.152,6.826  c-0.768,2.248-1.838,4.333-3.207,6.25c-1.372,1.92-2.988,3.646-4.852,5.181c-1.865,1.537-3.84,2.796-5.921,3.783  c2.411,1.208,4.713,2.714,6.909,4.523c2.192,1.809,4.165,3.893,5.921,6.25c1.753,2.36,3.151,4.963,4.194,7.814  C297.914,272.587,298.436,275.712,298.436,279.109z M276.066,277.793c0-2.739-0.575-5.207-1.726-7.402  c-1.152-2.192-2.688-4.029-4.606-5.51c-1.92-1.48-4.086-2.603-6.497-3.371c-2.413-0.766-4.881-1.151-7.402-1.151  c-2.631,0-5.156,0.411-7.566,1.233c-2.413,0.823-4.523,2.001-6.332,3.536c-1.809,1.537-3.265,3.371-4.359,5.51  c-1.097,2.138-1.644,4.523-1.644,7.155c0,2.631,0.575,5.017,1.726,7.155c1.152,2.138,2.658,3.976,4.523,5.51  c1.863,1.537,4.001,2.714,6.414,3.536c2.411,0.821,4.878,1.233,7.402,1.233c2.631,0,5.152-0.437,7.565-1.316  c2.411-0.877,4.549-2.083,6.414-3.619c1.863-1.534,3.344-3.371,4.441-5.51C275.516,282.645,276.066,280.317,276.066,277.793z   M239.553,229.93c0,2.303,0.493,4.305,1.479,6.004c0.987,1.701,2.275,3.125,3.866,4.276c1.588,1.151,3.344,2.03,5.264,2.631  c1.918,0.604,3.864,0.905,5.839,0.905c1.863,0,3.783-0.301,5.757-0.905c1.973-0.601,3.754-1.506,5.346-2.714  c1.588-1.205,2.878-2.657,3.866-4.359c0.986-1.7,1.48-3.701,1.48-6.004c0-4.055-1.619-7.292-4.852-9.704  c-3.236-2.411-7.155-3.619-11.76-3.619c-4.498,0-8.334,1.233-11.513,3.701C241.141,222.611,239.553,225.875,239.553,229.93z"/>
<g>
</g>
<g>
</g>
<g>
</g>
<g>
</g>
<g>
</g>
<g>
</g>
<g>
</g>
<g>
</g>
<g>
</g>
<g>
</g>
<g>
</g>
<g>
</g>
<g>
</g>
<g>
</g>
<g>
</g>
</svg>
