<?xml version="1.0" encoding="iso-8859-1"?>
<!-- Generator: Adobe Illustrator 19.0.0, SVG Export Plug-In . SVG Version: 6.00 Build 0)  -->
<svg version="1.1" id="Capa_1" xmlns="http://www.w3.org/2000/svg" xmlns:xlink="http://www.w3.org/1999/xlink" x="0px" y="0px"
	 viewBox="0 0 512 512" style="enable-background:new 0 0 512 512;" xml:space="preserve">
<circle style="fill:#0066AA;" cx="256" cy="256" r="256"/>
<g>
	<path style="fill:#1E2D64;" d="M453.315,419.108L264.346,230.654l-167.18,167.18l109.375,109.375
		C222.546,510.341,239.078,512,256,512C335.403,512,406.359,475.848,453.315,419.108z"/>
	<path style="fill:#1E2D64;" d="M454.654,417.459C490.5,373.409,512,317.219,512,256c0-6.148-0.23-12.241-0.657-18.28l-56.87-56.87
		L336.259,299.064L454.654,417.459z"/>
</g>
<rect x="97.17" y="230.65" style="fill:#FFFFFF;" width="167.18" height="167.18"/>
<rect x="180.76" y="230.65" style="fill:#E0E0E0;" width="83.59" height="167.18"/>
<circle style="fill:#4D4D4D;" cx="136.62" cy="270.11" r="23.18"/>
<g>
	<circle style="fill:#333333;" cx="224.89" cy="358.38" r="23.18"/>
	<circle style="fill:#333333;" cx="224.89" cy="270.11" r="23.18"/>
</g>
<g>
	<circle style="fill:#4D4D4D;" cx="136.62" cy="358.38" r="23.18"/>
	<circle style="fill:#4D4D4D;" cx="180.76" cy="314.24" r="23.18"/>
</g>
<path style="fill:#333333;" d="M180.757,291.066c12.801,0,23.178,10.377,23.178,23.178s-10.377,23.178-23.178,23.178V291.066z"/>
<rect x="252.667" y="97.26" transform="matrix(-0.7071 0.7071 -0.7071 -0.7071 701.9056 70.9603)" style="fill:#FFFFFF;" width="167.178" height="167.178"/>
<polygon style="fill:#E0E0E0;" points="336.259,62.636 454.473,180.85 336.259,299.064 "/>
<circle style="fill:#4D4D4D;" cx="273.84" cy="180.85" r="23.18"/>
<circle style="fill:#333333;" cx="398.68" cy="180.85" r="23.18"/>
<circle style="fill:#4D4D4D;" cx="336.26" cy="118.43" r="23.18"/>
<path style="fill:#333333;" d="M336.259,95.257c12.801,0,23.177,10.377,23.177,23.178s-10.378,23.178-23.178,23.178L336.259,95.257z
	"/>
<circle style="fill:#4D4D4D;" cx="336.26" cy="243.27" r="23.18"/>
<path style="fill:#333333;" d="M336.259,220.089c12.801,0,23.178,10.377,23.178,23.178s-10.378,23.178-23.179,23.178
	L336.259,220.089z"/>
<g>
</g>
<g>
</g>
<g>
</g>
<g>
</g>
<g>
</g>
<g>
</g>
<g>
</g>
<g>
</g>
<g>
</g>
<g>
</g>
<g>
</g>
<g>
</g>
<g>
</g>
<g>
</g>
<g>
</g>
</svg>
