<svg xmlns="http://www.w3.org/2000/svg" height="512pt" version="1.1" viewBox="0 0 512 512" width="512pt">
<g id="surface1">
<path d="M 512 256 C 512 397.386719 397.386719 512 256 512 C 114.613281 512 0 397.386719 0 256 C 0 114.613281 114.613281 0 256 0 C 397.386719 0 512 114.613281 512 256 Z M 512 256 " style=" stroke:none;fill-rule:nonzero;fill:rgb(100%,85.490196%,0%);fill-opacity:1;" />
<path d="M 509.03125 295.109375 L 294.878906 80.960938 L 144.332031 417.976562 L 237.695312 511.34375 C 243.742188 511.769531 249.84375 512 256 512 C 384.085938 512 490.203125 417.929688 509.03125 295.109375 Z M 509.03125 295.109375 " style=" stroke:none;fill-rule:nonzero;fill:rgb(100%,76.078431%,0%);fill-opacity:1;" />
<path d="M 289.238281 373.109375 C 289.238281 391.464844 274.355469 447.214844 256 447.214844 C 237.644531 447.214844 222.761719 391.464844 222.761719 373.109375 C 222.761719 354.753906 237.644531 339.871094 256 339.871094 C 274.355469 339.871094 289.238281 354.753906 289.238281 373.109375 Z M 289.238281 373.109375 " style=" stroke:none;fill-rule:nonzero;fill:rgb(99.607843%,41.568627%,8.627451%);fill-opacity:1;" />
<path d="M 256 339.871094 C 255.921875 339.871094 255.84375 339.878906 255.761719 339.878906 L 255.761719 447.203125 C 255.839844 447.203125 255.921875 447.214844 256 447.214844 C 274.355469 447.214844 289.238281 391.464844 289.238281 373.109375 C 289.238281 354.753906 274.355469 339.871094 256 339.871094 Z M 256 339.871094 " style=" stroke:none;fill-rule:nonzero;fill:rgb(98.039216%,36.470588%,5.882353%);fill-opacity:1;" />
<path d="M 325.355469 305.785156 L 186.644531 305.785156 L 186.644531 144.480469 C 186.644531 118.300781 199.226562 93.714844 220.464844 78.40625 L 256 52.785156 L 291.535156 78.40625 C 312.773438 93.714844 325.355469 118.300781 325.355469 144.480469 Z M 325.355469 305.785156 " style=" stroke:none;fill-rule:nonzero;fill:rgb(99.607843%,41.568627%,8.627451%);fill-opacity:1;" />
<path d="M 255.761719 305.785156 L 325.355469 305.785156 L 325.355469 144.480469 C 325.355469 118.300781 312.773438 93.714844 291.535156 78.40625 L 256 52.785156 Z M 255.761719 305.785156 " style=" stroke:none;fill-rule:nonzero;fill:rgb(98.039216%,36.470588%,5.882353%);fill-opacity:1;" />
<path d="M 186.644531 161.480469 L 325.355469 161.480469 L 325.355469 364.480469 L 186.644531 364.480469 Z M 186.644531 161.480469 " style=" stroke:none;fill-rule:nonzero;fill:rgb(35.294118%,32.941176%,87.843137%);fill-opacity:1;" />
<path d="M 255.761719 161.480469 L 325.355469 161.480469 L 325.355469 364.480469 L 255.761719 364.480469 Z M 255.761719 161.480469 " style=" stroke:none;fill-rule:nonzero;fill:rgb(22.745098%,25.490196%,80%);fill-opacity:1;" />
<path d="M 305.667969 236.3125 C 305.667969 263.742188 283.429688 285.976562 256 285.976562 C 228.570312 285.976562 206.332031 263.742188 206.332031 236.3125 C 206.332031 208.878906 228.570312 186.644531 256 186.644531 C 283.429688 186.644531 305.667969 208.878906 305.667969 236.3125 Z M 305.667969 236.3125 " style=" stroke:none;fill-rule:nonzero;fill:rgb(20%,53.72549%,100%);fill-opacity:1;" />
<path d="M 256 186.644531 C 255.921875 186.644531 255.84375 186.652344 255.761719 186.652344 L 255.761719 285.972656 C 255.84375 285.972656 255.921875 285.976562 256 285.976562 C 283.429688 285.976562 305.667969 263.742188 305.667969 236.3125 C 305.667969 208.882812 283.429688 186.644531 256 186.644531 Z M 256 186.644531 " style=" stroke:none;fill-rule:nonzero;fill:rgb(23.921569%,49.411765%,85.098039%);fill-opacity:1;" />
<path d="M 288.667969 236.3125 C 288.667969 254.351562 274.042969 268.976562 256 268.976562 C 237.957031 268.976562 223.332031 254.351562 223.332031 236.3125 C 223.332031 218.269531 237.957031 203.644531 256 203.644531 C 274.042969 203.644531 288.667969 218.269531 288.667969 236.3125 Z M 288.667969 236.3125 " style=" stroke:none;fill-rule:nonzero;fill:rgb(100%,100%,100%);fill-opacity:1;" />
<path d="M 256 203.644531 C 255.921875 203.644531 255.84375 203.652344 255.761719 203.652344 L 255.761719 268.972656 C 255.84375 268.972656 255.921875 268.976562 256 268.976562 C 274.039062 268.976562 288.667969 254.351562 288.667969 236.3125 C 288.667969 218.269531 274.039062 203.644531 256 203.644531 Z M 256 203.644531 " style=" stroke:none;fill-rule:nonzero;fill:rgb(91.372549%,92.941176%,96.078431%);fill-opacity:1;" />
<path d="M 186.644531 387.976562 L 144.332031 417.976562 L 144.332031 240.644531 L 186.644531 210.644531 Z M 186.644531 387.976562 " style=" stroke:none;fill-rule:nonzero;fill:rgb(20%,53.72549%,100%);fill-opacity:1;" />
<path d="M 325.355469 387.976562 L 367.667969 417.976562 L 367.667969 240.644531 L 325.355469 210.644531 Z M 325.355469 387.976562 " style=" stroke:none;fill-rule:nonzero;fill:rgb(23.921569%,49.411765%,85.098039%);fill-opacity:1;" />
</g>
</svg>