<?xml version="1.0" encoding="iso-8859-1"?>
<!-- Generator: Adobe Illustrator 19.0.0, SVG Export Plug-In . SVG Version: 6.00 Build 0)  -->
<svg xmlns="http://www.w3.org/2000/svg" xmlns:xlink="http://www.w3.org/1999/xlink" version="1.1" id="Capa_1" x="0px" y="0px" viewBox="0 0 512 512" style="enable-background:new 0 0 512 512;" xml:space="preserve">
<circle style="fill:#005ECE;" cx="256" cy="256" r="256"/>
<path style="fill:#00479B;" d="M512,256c0-3.82-0.1-7.617-0.266-11.396L397.301,130.17c-4.856-5.449-10.022-10.615-15.47-15.47  l-3.396-3.396l-0.319,0.17C345.157,83.6,302.545,66.783,256,66.783C151.499,66.783,66.783,151.499,66.783,256  c0,56.188,24.499,106.645,63.388,141.301l114.434,114.434C248.383,511.9,252.18,512,256,512C397.384,512,512,397.385,512,256z"/>
<circle style="fill:#FFFFFF;" cx="256" cy="256" r="189.217"/>
<path style="fill:#E1E3FA;" d="M256,66.783v378.435c104.501,0,189.217-84.716,189.217-189.217S360.501,66.783,256,66.783z"/>
<path style="fill:#FF3501;" d="M412.466,149.565H99.534C78.866,179.89,66.783,216.534,66.783,256s12.083,76.11,32.751,106.435  h312.931c20.669-30.325,32.752-66.968,32.752-106.435S433.134,179.89,412.466,149.565z"/>
<path style="fill:#C70024;" d="M412.466,149.565H256v212.87h156.466c20.668-30.325,32.751-66.968,32.751-106.435  S433.134,179.89,412.466,149.565z"/>
<circle style="fill:#FFFFFF;" cx="256" cy="256" r="100.174"/>
<path style="fill:#E1E3FA;" d="M256,155.826v200.348c55.325,0,100.174-44.849,100.174-100.174S311.325,155.826,256,155.826z"/>
<path d="M251.148,279.48v17.271h-57.952V279.48h20.27v-43.25c-0.857,1.142-2.214,2.308-4.068,3.497  c-1.855,1.192-3.879,2.308-6.067,3.355c-2.19,1.047-4.448,1.904-6.78,2.569c-2.333,0.667-4.402,1-6.209,1v-17.842  c1.713,0,3.804-0.547,6.28-1.642c2.473-1.093,4.9-2.402,7.28-3.926c2.377-1.522,4.447-3.021,6.209-4.497  c1.759-1.474,2.876-2.64,3.355-3.496h19.554v64.23h18.128V279.48z"/>
<path d="M321.657,279.48v17.271h-57.951V279.48h20.268v-43.25c-0.856,1.142-2.213,2.308-4.068,3.497  c-1.855,1.192-3.878,2.308-6.066,3.355c-2.19,1.047-4.45,1.904-6.78,2.569c-2.334,0.667-4.403,1-6.211,1v-17.842  c1.713,0,3.804-0.547,6.282-1.642c2.472-1.093,4.9-2.402,7.278-3.926c2.377-1.522,4.447-3.021,6.209-4.497  c1.761-1.474,2.878-2.64,3.355-3.496h19.555v64.23h18.128V279.48z"/>
<g>
</g>
<g>
</g>
<g>
</g>
<g>
</g>
<g>
</g>
<g>
</g>
<g>
</g>
<g>
</g>
<g>
</g>
<g>
</g>
<g>
</g>
<g>
</g>
<g>
</g>
<g>
</g>
<g>
</g>
</svg>
