<?xml version="1.0" encoding="iso-8859-1"?>
<!-- Generator: Adobe Illustrator 19.0.0, SVG Export Plug-In . SVG Version: 6.00 Build 0)  -->
<svg version="1.1" id="Capa_1" xmlns="http://www.w3.org/2000/svg" xmlns:xlink="http://www.w3.org/1999/xlink" x="0px" y="0px"
	 viewBox="0 0 512 512" style="enable-background:new 0 0 512 512;" xml:space="preserve">
<circle style="fill:#FFEB50;" cx="256" cy="256" r="256"/>
<path style="fill:#F7D139;" d="M512,256c0-16.196-1.521-32.035-4.397-47.397L385,86L127,426l81.603,81.603
	C223.965,510.479,239.804,512,256,512C397.385,512,512,397.385,512,256z"/>
<rect x="127" y="86" style="fill:#333333;" width="258" height="340"/>
<rect x="255.95" y="86" style="fill:#1A1A1A;" width="129.05" height="340"/>
<rect x="145.75" y="106.62" style="fill:#3A9BF5;" width="220.5" height="298.75"/>
<rect x="255.95" y="106.62" style="fill:#1E8CE6;" width="110.3" height="298.75"/>
<path style="fill:#FFEB50;" d="M223.667,292.075c0-17.857,14.476-32.333,32.333-32.333s32.333,14.476,32.333,32.333
	S273.857,366.558,256,366.558S223.667,309.932,223.667,292.075z"/>
<path style="fill:#F7D139;" d="M256,259.742c-0.016,0-0.032,0.001-0.048,0.001v106.813c0.016,0,0.032,0.002,0.048,0.002
	c17.857,0,32.333-56.626,32.333-74.483S273.857,259.742,256,259.742z"/>
<path style="fill:#FF9B32;" d="M234.822,299.358c0-11.692,9.478-21.171,21.171-21.171c11.692,0,21.171,9.478,21.171,21.171
	c0,11.692-9.478,48.77-21.17,48.77C244.301,348.127,234.822,311.05,234.822,299.358z"/>
<path style="fill:#FF7D0A;" d="M255.992,278.187c-0.013,0-0.027,0.002-0.04,0.002v69.935c0.014,0,0.027,0.004,0.041,0.004
	c11.692,0,21.17-37.077,21.17-48.77C277.163,287.665,267.685,278.187,255.992,278.187z"/>
<path style="fill:#FFFFFF;" d="M296.406,302.767h-80.812l10.429-117.693c0.916-10.336,4.615-20.23,10.705-28.632l11.752-16.213
	c3.708-5.116,11.333-5.116,15.041,0l11.752,16.213c6.09,8.401,9.789,18.296,10.705,28.632L296.406,302.767z"/>
<g>
	<path style="fill:#E0E0E0;" d="M285.978,185.074c-0.916-10.336-4.615-20.23-10.705-28.632l-11.752-16.213
		c-1.865-2.573-4.719-3.849-7.568-3.835v166.373h40.454L285.978,185.074z"/>
	<polygon style="fill:#E0E0E0;" points="235.61,312.267 188.987,312.267 211.941,228.583 235.61,228.583 	"/>
</g>
<polygon style="fill:#C0C0C0;" points="276.39,312.267 323.013,312.267 300.059,228.583 276.39,228.583 "/>
<path style="fill:#B9EAFF;" d="M281.439,194.348c-16.874,2.402-34.004,2.402-50.879,0c1.086-7.627,2.171-15.255,3.257-22.882
	c14.714,2.094,29.651,2.094,44.365,0C279.268,179.093,280.354,186.72,281.439,194.348z"/>
<path style="fill:#91CDFF;" d="M281.439,194.348c-1.086-7.627-2.171-15.255-3.257-22.882c-7.373,1.05-14.802,1.572-22.23,1.57
	v23.113C264.469,196.15,272.986,195.551,281.439,194.348z"/>
<g>
</g>
<g>
</g>
<g>
</g>
<g>
</g>
<g>
</g>
<g>
</g>
<g>
</g>
<g>
</g>
<g>
</g>
<g>
</g>
<g>
</g>
<g>
</g>
<g>
</g>
<g>
</g>
<g>
</g>
</svg>
