<svg xmlns="http://www.w3.org/2000/svg" height="512pt" version="1.1" viewBox="0 0 512 512" width="512pt">
<g id="surface1">
<path d="M 512 256 C 512 397.386719 397.386719 512 256 512 C 114.613281 512 0 397.386719 0 256 C 0 114.613281 114.613281 0 256 0 C 397.386719 0 512 114.613281 512 256 Z M 512 256 " style=" stroke:none;fill-rule:nonzero;fill:rgb(99.607843%,41.568627%,8.627451%);fill-opacity:1;" />
<path d="M 512 256 C 512 254.105469 511.96875 252.222656 511.929688 250.339844 L 332.226562 70.636719 L 179.773438 126.464844 L 259.71875 206.410156 L 133.15625 412.535156 L 231.441406 510.820312 C 239.523438 511.589844 247.714844 512 256 512 C 397.386719 512 512 397.386719 512 256 Z M 512 256 " style=" stroke:none;fill-rule:nonzero;fill:rgb(98.039216%,36.470588%,5.882353%);fill-opacity:1;" />
<path d="M 375.507812 321.347656 L 305.390625 251.226562 L 305.390625 117.171875 L 206.609375 117.171875 L 206.609375 251.230469 L 136.492188 321.347656 C 99.734375 358.101562 125.769531 420.949219 177.75 420.949219 L 334.246094 420.949219 C 386.230469 420.949219 412.261719 358.101562 375.507812 321.347656 Z M 375.507812 321.347656 " style=" stroke:none;fill-rule:nonzero;fill:rgb(2.352941%,80%,67.058824%);fill-opacity:1;" />
<path d="M 375.507812 321.347656 L 305.390625 251.230469 L 305.390625 117.167969 L 255.167969 117.167969 L 255.167969 420.949219 L 334.25 420.949219 C 386.230469 420.949219 412.261719 358.101562 375.507812 321.347656 Z M 375.507812 321.347656 " style=" stroke:none;fill-rule:nonzero;fill:rgb(0%,74.117647%,61.568627%);fill-opacity:1;" />
<path d="M 381.457031 315.398438 L 313.804688 247.742188 L 313.804688 108.757812 L 198.195312 108.757812 L 198.195312 247.742188 L 130.542969 315.398438 C 111.089844 334.851562 105.542969 362.730469 116.070312 388.152344 C 126.601562 413.570312 150.234375 429.363281 177.75 429.363281 L 334.25 429.363281 C 361.765625 429.363281 385.398438 413.570312 395.925781 388.152344 C 406.457031 362.730469 400.910156 334.851562 381.457031 315.398438 Z M 380.382812 381.710938 C 372.507812 400.726562 354.828125 412.535156 334.25 412.535156 L 177.75 412.535156 C 157.171875 412.535156 139.492188 400.726562 131.617188 381.710938 C 123.742188 362.699219 127.890625 341.847656 142.441406 327.296875 L 215.023438 254.714844 L 215.023438 231.285156 L 296.976562 231.285156 L 296.976562 254.714844 L 369.558594 327.296875 C 384.109375 341.847656 388.257812 362.699219 380.382812 381.710938 Z M 380.382812 381.710938 " style=" stroke:none;fill-rule:nonzero;fill:rgb(100%,100%,100%);fill-opacity:1;" />
<path d="M 381.457031 315.398438 L 313.804688 247.742188 L 313.804688 108.757812 L 255.167969 108.757812 L 255.167969 231.285156 L 296.976562 231.285156 L 296.976562 254.710938 L 369.558594 327.292969 C 384.109375 341.847656 388.257812 362.695312 380.382812 381.710938 C 372.503906 400.722656 354.828125 412.535156 334.25 412.535156 L 255.164062 412.535156 L 255.164062 429.363281 L 334.25 429.363281 C 361.765625 429.363281 385.398438 413.570312 395.925781 388.148438 C 406.457031 362.730469 400.910156 334.851562 381.457031 315.398438 Z M 381.457031 315.398438 " style=" stroke:none;fill-rule:nonzero;fill:rgb(91.372549%,92.941176%,96.078431%);fill-opacity:1;" />
<path d="M 179.773438 70.636719 L 332.226562 70.636719 L 332.226562 126.464844 L 179.773438 126.464844 Z M 179.773438 70.636719 " style=" stroke:none;fill-rule:nonzero;fill:rgb(87.058824%,98.039216%,94.117647%);fill-opacity:1;" />
<path d="M 255.167969 70.636719 L 332.226562 70.636719 L 332.226562 126.464844 L 255.167969 126.464844 Z M 255.167969 70.636719 " style=" stroke:none;fill-rule:nonzero;fill:rgb(78.431373%,96.078431%,90.196078%);fill-opacity:1;" />
<path d="M 240.925781 317.597656 C 240.925781 328.535156 232.058594 337.402344 221.121094 337.402344 C 210.183594 337.402344 201.316406 328.535156 201.316406 317.597656 C 201.316406 306.660156 210.183594 297.789062 221.121094 297.789062 C 232.058594 297.789062 240.925781 306.660156 240.925781 317.597656 Z M 240.925781 317.597656 " style=" stroke:none;fill-rule:nonzero;fill:rgb(87.058824%,98.039216%,94.117647%);fill-opacity:1;" />
<path d="M 343.285156 354.054688 C 343.285156 371.769531 328.925781 386.128906 311.210938 386.128906 C 293.496094 386.128906 279.136719 371.769531 279.136719 354.054688 C 279.136719 336.339844 293.496094 321.980469 311.210938 321.980469 C 328.925781 321.980469 343.285156 336.339844 343.285156 354.054688 Z M 343.285156 354.054688 " style=" stroke:none;fill-rule:nonzero;fill:rgb(78.431373%,96.078431%,90.196078%);fill-opacity:1;" />
</g>
</svg>