<?xml version="1.0" encoding="iso-8859-1"?>
<!-- Generator: Adobe Illustrator 19.0.0, SVG Export Plug-In . SVG Version: 6.00 Build 0)  -->
<svg version="1.1" id="Capa_1" xmlns="http://www.w3.org/2000/svg" xmlns:xlink="http://www.w3.org/1999/xlink" x="0px" y="0px"
	 viewBox="0 0 512 512" style="enable-background:new 0 0 512 512;" xml:space="preserve">
<circle style="fill:#FFEB50;" cx="256" cy="256" r="256"/>
<path style="fill:#F7D139;" d="M512,256c0-16.196-1.521-32.035-4.397-47.397L385,86L127,426l81.603,81.603
	C223.965,510.479,239.804,512,256,512C397.385,512,512,397.385,512,256z"/>
<rect x="127" y="86" style="fill:#333333;" width="258" height="340"/>
<rect x="255.95" y="86" style="fill:#1A1A1A;" width="129.05" height="340"/>
<rect x="145.75" y="106.62" style="fill:#B9EAFF;" width="220.5" height="298.75"/>
<rect x="255.95" y="106.62" style="fill:#91CDFF;" width="110.3" height="298.75"/>
<rect x="145.75" y="280.5" style="fill:#A5C855;" width="220.5" height="124.87"/>
<rect x="255.95" y="280.5" style="fill:#82B455;" width="110.3" height="124.87"/>
<polygon style="fill:#808080;" points="145.75,405.375 366.25,405.375 309.212,280.5 202.788,280.5 "/>
<polygon style="fill:#666666;" points="309.212,280.5 255.952,280.5 255.952,405.375 366.25,405.375 "/>
<polygon style="fill:#FFFFFF;" points="299.379,337.967 256,294.588 212.621,337.967 226.764,352.109 246,332.873 246,387.808 
	266,387.808 266,332.872 285.237,352.109 "/>
<polygon style="fill:#E0E0E0;" points="256,294.588 255.952,294.636 255.952,387.808 266,387.808 266,332.872 285.237,352.109 
	299.379,337.967 "/>
<g>
	<circle style="fill:#D7283C;" cx="178.17" cy="142.17" r="15.833"/>
	<circle style="fill:#D7283C;" cx="217.17" cy="142.17" r="15.833"/>
</g>
<rect x="270" y="124.67" style="fill:#0074A3;" width="79.67" height="13.667"/>
<g>
</g>
<g>
</g>
<g>
</g>
<g>
</g>
<g>
</g>
<g>
</g>
<g>
</g>
<g>
</g>
<g>
</g>
<g>
</g>
<g>
</g>
<g>
</g>
<g>
</g>
<g>
</g>
<g>
</g>
</svg>
