<?xml version="1.0" encoding="iso-8859-1"?>
<!-- Generator: Adobe Illustrator 19.0.0, SVG Export Plug-In . SVG Version: 6.00 Build 0)  -->
<svg version="1.1" id="Capa_1" xmlns="http://www.w3.org/2000/svg" xmlns:xlink="http://www.w3.org/1999/xlink" x="0px" y="0px"
	 viewBox="0 0 512 512" style="enable-background:new 0 0 512 512;" xml:space="preserve">
<circle style="fill:#0066AA;" cx="256" cy="256" r="256"/>
<path style="fill:#1E2D64;" d="M512,256c0-7.994-0.385-15.897-1.102-23.704L393,114.399l-31.48,173.497L188.023,114.399
	l-34.511,291.007l107.1,106.536C399.867,509.479,512,395.843,512,256z"/>
<g>
	<path style="fill:#91CDFF;" d="M256,451.601c-75.542,0-137-61.458-137-137V165.4h69.023v149.201
		c0,37.483,30.495,67.977,67.977,67.977s67.977-30.494,67.977-67.977V165.4H393v149.201C393,390.143,331.542,451.601,256,451.601z"
		/>
	<rect x="323.98" y="165.4" style="fill:#91CDFF;" width="69.02" height="90.5"/>
</g>
<path style="fill:#1E8CE6;" d="M323.977,255.905v58.697c0,37.483-30.495,67.977-67.977,67.977s-67.977-30.495-67.977-67.977v-58.697
	H119v58.697c0,75.542,61.458,137,137,137s137-61.458,137-137v-58.697H323.977z"/>
<path style="fill:#FF4682;" d="M256,451.601v-69.023c37.482,0,67.977-30.494,67.977-67.977V165.4H393v149.201
	C393,390.143,331.542,451.601,256,451.601z"/>
<path style="fill:#C42364;" d="M323.977,255.905v58.697c0,37.483-30.495,67.977-67.977,67.977v69.023c75.542,0,137-61.458,137-137
	v-58.697H323.977z"/>
<g>
	<rect x="119" y="114.4" style="fill:#FFFFFF;" width="69.02" height="69.72"/>
	<rect x="323.98" y="114.4" style="fill:#FFFFFF;" width="69.02" height="69.72"/>
</g>
<g>
</g>
<g>
</g>
<g>
</g>
<g>
</g>
<g>
</g>
<g>
</g>
<g>
</g>
<g>
</g>
<g>
</g>
<g>
</g>
<g>
</g>
<g>
</g>
<g>
</g>
<g>
</g>
<g>
</g>
</svg>
