<svg xmlns="http://www.w3.org/2000/svg" height="512pt" version="1.1" viewBox="0 0 512 512" width="512pt">
<g id="surface1">
<path d="M 512 256 C 512 397.386719 397.386719 512 256 512 C 114.613281 512 0 397.386719 0 256 C 0 114.613281 114.613281 0 256 0 C 397.386719 0 512 114.613281 512 256 Z M 512 256 " style=" stroke:none;fill-rule:nonzero;fill:rgb(35.294118%,32.941176%,87.843137%);fill-opacity:1;" />
<path d="M 510.90625 279.589844 L 356.535156 125.222656 L 208.738281 102.335938 L 159.332031 149.953125 L 87.414062 359.304688 L 239.566406 511.460938 C 245.003906 511.804688 250.476562 512 256 512 C 389.429688 512 498.996094 409.914062 510.90625 279.589844 Z M 510.90625 279.589844 " style=" stroke:none;fill-rule:nonzero;fill:rgb(22.745098%,25.490196%,80%);fill-opacity:1;" />
<path d="M 393.785156 285.945312 L 359.785156 285.945312 L 359.785156 219.335938 C 359.785156 162.109375 313.226562 115.550781 256 115.550781 C 198.773438 115.550781 152.214844 162.109375 152.214844 219.335938 L 152.214844 285.945312 L 118.214844 285.945312 L 118.214844 219.335938 C 118.214844 143.363281 180.023438 81.550781 256 81.550781 C 331.976562 81.550781 393.785156 143.363281 393.785156 219.335938 Z M 393.785156 285.945312 " style=" stroke:none;fill-rule:nonzero;fill:rgb(100%,85.490196%,0%);fill-opacity:1;" />
<path d="M 256 81.550781 C 255.921875 81.550781 255.84375 81.554688 255.761719 81.554688 L 255.761719 115.554688 C 255.84375 115.554688 255.921875 115.550781 256 115.550781 C 313.226562 115.550781 359.785156 162.109375 359.785156 219.335938 L 359.785156 285.945312 L 393.785156 285.945312 L 393.785156 219.335938 C 393.785156 143.363281 331.976562 81.550781 256 81.550781 Z M 256 81.550781 " style=" stroke:none;fill-rule:nonzero;fill:rgb(100%,76.078431%,0%);fill-opacity:1;" />
<path d="M 256 81.550781 C 197.023438 81.550781 146.59375 118.796875 126.972656 171 L 164.179688 171 C 181.59375 138.054688 216.214844 115.550781 256 115.550781 C 295.785156 115.550781 330.40625 138.054688 347.820312 171 L 385.027344 171 C 365.40625 118.796875 314.976562 81.550781 256 81.550781 Z M 256 81.550781 " style=" stroke:none;fill-rule:nonzero;fill:rgb(99.607843%,41.568627%,8.627451%);fill-opacity:1;" />
<path d="M 256 81.550781 C 255.921875 81.550781 255.84375 81.554688 255.761719 81.554688 L 255.761719 115.554688 C 255.84375 115.554688 255.921875 115.550781 256 115.550781 C 295.785156 115.550781 330.40625 138.058594 347.820312 171 L 385.027344 171 C 365.40625 118.796875 314.976562 81.550781 256 81.550781 Z M 256 81.550781 " style=" stroke:none;fill-rule:nonzero;fill:rgb(98.039216%,36.470588%,5.882353%);fill-opacity:1;" />
<path d="M 153.046875 375.585938 L 122.101562 375.585938 C 97.191406 375.585938 77 355.394531 77 330.484375 L 77 272.730469 C 77 247.820312 97.191406 227.628906 122.101562 227.628906 L 153.046875 227.628906 Z M 153.046875 375.585938 " style=" stroke:none;fill-rule:nonzero;fill:rgb(2.352941%,80%,67.058824%);fill-opacity:1;" />
<path d="M 358.953125 227.628906 L 389.898438 227.628906 C 414.808594 227.628906 435 247.820312 435 272.730469 L 435 330.484375 C 435 355.394531 414.808594 375.585938 389.898438 375.585938 L 358.953125 375.585938 Z M 358.953125 227.628906 " style=" stroke:none;fill-rule:nonzero;fill:rgb(0%,74.117647%,61.568627%);fill-opacity:1;" />
<path d="M 327 227.628906 L 358.953125 227.628906 L 358.953125 375.585938 L 327 375.585938 Z M 327 227.628906 " style=" stroke:none;fill-rule:nonzero;fill:rgb(91.372549%,92.941176%,96.078431%);fill-opacity:1;" />
<path d="M 153.046875 227.628906 L 185 227.628906 L 185 375.585938 L 153.046875 375.585938 Z M 153.046875 227.628906 " style=" stroke:none;fill-rule:nonzero;fill:rgb(100%,100%,100%);fill-opacity:1;" />
</g>
</svg>