<?xml version="1.0" encoding="iso-8859-1"?>
<!-- Generator: Adobe Illustrator 19.0.0, SVG Export Plug-In . SVG Version: 6.00 Build 0)  -->
<svg version="1.1" id="Capa_1" xmlns="http://www.w3.org/2000/svg" xmlns:xlink="http://www.w3.org/1999/xlink" x="0px" y="0px"
	 viewBox="0 0 512 512" style="enable-background:new 0 0 512 512;" xml:space="preserve">
<circle style="fill:#91CDFF;" cx="256" cy="256" r="256"/>
<path style="fill:#1E8CE6;" d="M259.644,511.954c138.472-1.935,250.349-113.796,252.309-252.262L384.722,132.46l-11.461,30.3
	L270.5,60l-125.262,89.826L60,270.5l92.56,92.56l-22.196,19.613L259.644,511.954z"/>
<path style="fill:#333333;" d="M452,241.5h-18.092C426.89,154.615,357.385,85.11,270.5,78.092V60h-29v18.092
	C154.615,85.11,85.11,154.615,78.092,241.5H60v29h18.092c7.019,86.885,76.524,156.39,163.408,163.408V452h29v-18.092
	c86.885-7.019,156.39-76.523,163.408-163.408H452V241.5z M404.795,241.5h-14.4c-6.748-62.976-56.918-113.147-119.895-119.895v-14.4
	C341.383,114.06,397.94,170.617,404.795,241.5z M361.179,270.5c-6.443,46.966-43.713,84.237-90.679,90.679V341h-29v20.179
	c-46.967-6.443-84.237-43.713-90.679-90.679H171v-29h-20.179c6.443-46.966,43.713-84.237,90.679-90.679V171h29v-20.179
	c46.967,6.443,84.237,43.713,90.679,90.679H341v29H361.179z M241.5,107.205v14.4c-62.977,6.747-113.147,56.918-119.895,119.895
	h-14.4C114.06,170.617,170.617,114.06,241.5,107.205z M107.205,270.5h14.4c6.748,62.976,56.918,113.147,119.895,119.895v14.4
	C170.617,397.94,114.06,341.383,107.205,270.5z M270.5,404.795v-14.4c62.977-6.747,113.147-56.918,119.895-119.895h14.4
	C397.94,341.383,341.383,397.94,270.5,404.795z"/>
<path style="fill:#1A1A1A;" d="M433.908,241.5C426.89,154.615,357.385,85.11,270.5,78.092V60h-14.548v111H270.5v-20.179
	c46.967,6.443,84.237,43.713,90.679,90.679H341v29h20.179c-6.443,46.966-43.713,84.237-90.679,90.679V341h-14.548v111H270.5v-18.092
	c86.885-7.019,156.39-76.523,163.408-163.408H452v-29H433.908z M270.5,404.795v-14.4c62.977-6.747,113.147-56.918,119.895-119.895
	h14.4C397.94,341.383,341.383,397.94,270.5,404.795z M390.395,241.5c-6.748-62.976-56.918-113.147-119.895-119.895v-14.4
	c70.883,6.854,127.44,63.412,134.295,134.295H390.395z"/>
<g>
</g>
<g>
</g>
<g>
</g>
<g>
</g>
<g>
</g>
<g>
</g>
<g>
</g>
<g>
</g>
<g>
</g>
<g>
</g>
<g>
</g>
<g>
</g>
<g>
</g>
<g>
</g>
<g>
</g>
</svg>
