<svg xmlns="http://www.w3.org/2000/svg" height="512pt" version="1.1" viewBox="0 0 512 512" width="512pt">
<g id="surface1">
<path d="M 512 256 C 512 397.386719 397.386719 512 256 512 C 114.613281 512 0 397.386719 0 256 C 0 114.613281 114.613281 0 256 0 C 397.386719 0 512 114.613281 512 256 Z M 512 256 " style=" stroke:none;fill-rule:nonzero;fill:rgb(35.294118%,32.941176%,87.843137%);fill-opacity:1;" />
<path d="M 512 256 C 512 251.320312 511.867188 246.671875 511.617188 242.050781 L 419.964844 150.398438 L 92.035156 361.332031 L 242.339844 511.636719 C 246.863281 511.875 251.414062 512 256 512 C 328.625 512 394.179688 481.753906 440.773438 433.175781 L 440.585938 432.988281 L 445.914062 427.65625 C 486.984375 382.25 512 322.046875 512 256 Z M 512 256 " style=" stroke:none;fill-rule:nonzero;fill:rgb(22.745098%,25.490196%,80%);fill-opacity:1;" />
<path d="M 419.964844 361.332031 L 256 441.332031 L 256 230.398438 L 419.964844 150.398438 Z M 419.964844 361.332031 " style=" stroke:none;fill-rule:nonzero;fill:rgb(100%,85.490196%,0%);fill-opacity:1;" />
<path d="M 256 441.332031 L 92.035156 361.332031 L 92.035156 150.398438 L 256 230.398438 Z M 256 441.332031 " style=" stroke:none;fill-rule:nonzero;fill:rgb(99.607843%,41.568627%,8.627451%);fill-opacity:1;" />
<path d="M 92.035156 257.203125 L 92.035156 361.332031 L 167 397.910156 L 167 291.449219 Z M 92.035156 257.203125 " style=" stroke:none;fill-rule:nonzero;fill:rgb(94.901961%,27.058824%,0%);fill-opacity:1;" />
<path d="M 256 230.398438 L 167 186.972656 L 167 291.449219 L 256 332.105469 Z M 256 230.398438 " style=" stroke:none;fill-rule:nonzero;fill:rgb(94.901961%,27.058824%,0%);fill-opacity:1;" />
<path d="M 419.964844 257.203125 L 419.964844 361.332031 L 345 397.910156 L 345 291.449219 Z M 419.964844 257.203125 " style=" stroke:none;fill-rule:nonzero;fill:rgb(100%,69.019608%,0%);fill-opacity:1;" />
<path d="M 256 230.398438 L 345 186.972656 L 345 291.449219 L 256 332.105469 Z M 256 230.398438 " style=" stroke:none;fill-rule:nonzero;fill:rgb(100%,69.019608%,0%);fill-opacity:1;" />
<path d="M 92.035156 150.398438 L 254.027344 75.199219 L 419.964844 150.398438 L 256 230.398438 Z M 92.035156 150.398438 " style=" stroke:none;fill-rule:nonzero;fill:rgb(100%,100%,100%);fill-opacity:1;" />
<path d="M 254.027344 75.199219 L 419.964844 150.398438 L 256 230.398438 Z M 254.027344 75.199219 " style=" stroke:none;fill-rule:nonzero;fill:rgb(94.901961%,96.470588%,98.823529%);fill-opacity:1;" />
<path d="M 176.128906 111.359375 L 92.035156 150.398438 L 168.429688 187.671875 L 255.785156 147.355469 Z M 176.128906 111.359375 " style=" stroke:none;fill-rule:nonzero;fill:rgb(86.27451%,88.235294%,92.156863%);fill-opacity:1;" />
<path d="M 333.796875 111.351562 L 255.785156 147.355469 L 344.261719 187.335938 L 419.964844 150.398438 Z M 333.796875 111.351562 " style=" stroke:none;fill-rule:nonzero;fill:rgb(86.27451%,88.235294%,92.156863%);fill-opacity:1;" />
</g>
</svg>