<svg xmlns="http://www.w3.org/2000/svg" height="512pt" version="1.1" viewBox="0 0 512 512" width="512pt">
<g id="surface1">
<path d="M 512 256 C 512 397.386719 397.386719 512 256 512 C 114.613281 512 0 397.386719 0 256 C 0 114.613281 114.613281 0 256 0 C 397.386719 0 512 114.613281 512 256 Z M 512 256 " style=" stroke:none;fill-rule:nonzero;fill:rgb(35.294118%,32.941176%,87.843137%);fill-opacity:1;" />
<path d="M 512 256 C 512 252.621094 511.914062 249.261719 511.785156 245.914062 L 403 137.128906 L 126.050781 393.308594 L 244.472656 511.730469 C 248.296875 511.898438 252.136719 512 256 512 C 397.386719 512 512 397.386719 512 256 Z M 512 256 " style=" stroke:none;fill-rule:nonzero;fill:rgb(22.745098%,25.490196%,80%);fill-opacity:1;" />
<path d="M 445.054688 256 C 445.054688 360.414062 360.414062 445.054688 256 445.054688 C 151.585938 445.054688 66.945312 360.414062 66.945312 256 C 66.945312 151.585938 151.585938 66.945312 256 66.945312 C 360.414062 66.945312 445.054688 151.585938 445.054688 256 Z M 445.054688 256 " style=" stroke:none;fill-rule:nonzero;fill:rgb(100%,100%,100%);fill-opacity:1;" />
<path d="M 256 66.945312 C 255.921875 66.945312 255.84375 66.949219 256 66.949219 L 256 445.050781 C 255.84375 445.050781 255.921875 445.054688 256 445.054688 C 360.410156 445.054688 445.054688 360.410156 445.054688 256 C 445.054688 151.589844 360.410156 66.945312 256 66.945312 Z M 256 66.945312 " style=" stroke:none;fill-rule:nonzero;fill:rgb(91.372549%,92.941176%,96.078431%);fill-opacity:1;" />
<path d="M 256 141.246094 L 256 93.515625 C 213.195312 93.515625 174.265625 110.078125 145.242188 137.128906 L 177.6875 172.128906 C 198.195312 152.972656 225.726562 141.246094 256 141.246094 Z M 256 141.246094 " style=" stroke:none;fill-rule:nonzero;fill:rgb(100%,85.490196%,0%);fill-opacity:1;" />
<path d="M 256 93.515625 C 234.90625 93.515625 214.753906 97.546875 196.261719 104.863281 L 209.621094 151.015625 C 223.804688 144.738281 239.492188 141.246094 256 141.246094 Z M 256 93.515625 " style=" stroke:none;fill-rule:nonzero;fill:rgb(100%,76.078431%,0%);fill-opacity:1;" />
<path d="M 177.6875 172.128906 L 145.242188 137.128906 C 113.421875 166.789062 93.515625 209.066406 93.515625 256 L 141.246094 256 C 141.246094 222.898438 155.265625 193.074219 177.6875 172.128906 Z M 177.6875 172.128906 " style=" stroke:none;fill-rule:nonzero;fill:rgb(58.431373%,90.980392%,78.431373%);fill-opacity:1;" />
<path d="M 177.6875 172.128906 L 145.242188 137.128906 C 130.3125 151.046875 118.003906 167.742188 109.144531 186.394531 L 149.316406 213.675781 C 155.632812 197.773438 165.394531 183.613281 177.6875 172.128906 Z M 177.6875 172.128906 " style=" stroke:none;fill-rule:nonzero;fill:rgb(50.980392%,85.098039%,71.372549%);fill-opacity:1;" />
<path d="M 141.246094 256 L 93.515625 256 C 93.515625 302.113281 112.730469 343.738281 143.585938 373.3125 L 176.800781 339.042969 C 154.894531 318.144531 141.246094 288.667969 141.246094 256 Z M 141.246094 256 " style=" stroke:none;fill-rule:nonzero;fill:rgb(2.352941%,80%,67.058824%);fill-opacity:1;" />
<path d="M 141.246094 256 L 93.515625 256 C 93.515625 280.417969 98.90625 303.578125 108.554688 324.355469 L 147.433594 293.253906 C 143.425781 281.570312 141.246094 269.039062 141.246094 256 Z M 141.246094 256 " style=" stroke:none;fill-rule:nonzero;fill:rgb(0%,74.117647%,61.568627%);fill-opacity:1;" />
<path d="M 370.753906 256 C 370.753906 289.398438 356.480469 319.460938 333.707031 340.433594 L 366.152344 375.433594 C 398.324219 345.746094 418.484375 303.230469 418.484375 256 Z M 370.753906 256 " style=" stroke:none;fill-rule:nonzero;fill:rgb(94.901961%,27.058824%,0%);fill-opacity:1;" />
<path d="M 363.335938 296.652344 C 356.949219 313.496094 346.71875 328.449219 333.707031 340.433594 L 366.152344 375.433594 C 381.066406 361.671875 393.390625 345.152344 402.328125 326.6875 Z M 363.335938 296.652344 " style=" stroke:none;fill-rule:nonzero;fill:rgb(81.960784%,20.392157%,0%);fill-opacity:1;" />
<path d="M 256 93.515625 L 256 141.246094 C 287.375 141.246094 315.804688 153.839844 336.519531 174.246094 L 369.734375 139.976562 C 340.425781 111.242188 300.285156 93.515625 256 93.515625 Z M 256 93.515625 " style=" stroke:none;fill-rule:nonzero;fill:rgb(100%,64.313725%,14.901961%);fill-opacity:1;" />
<path d="M 369.734375 139.972656 C 353.5625 124.121094 334.089844 111.628906 312.449219 103.605469 L 301 150.414062 C 314.320312 156.101562 326.351562 164.230469 336.519531 174.246094 Z M 369.734375 139.972656 " style=" stroke:none;fill-rule:nonzero;fill:rgb(100%,58.431373%,0%);fill-opacity:1;" />
<path d="M 369.734375 139.972656 L 336.519531 174.246094 C 357.648438 195.058594 370.753906 223.996094 370.753906 256 L 418.484375 256 C 418.484375 210.546875 399.8125 169.464844 369.734375 139.972656 Z M 369.734375 139.972656 " style=" stroke:none;fill-rule:nonzero;fill:rgb(99.607843%,41.568627%,8.627451%);fill-opacity:1;" />
<path d="M 418.484375 256 C 418.484375 230.933594 412.796875 207.199219 402.65625 186 L 361.921875 211.800781 C 367.609375 225.402344 370.753906 240.332031 370.753906 256 Z M 418.484375 256 " style=" stroke:none;fill-rule:nonzero;fill:rgb(98.039216%,36.470588%,5.882353%);fill-opacity:1;" />
<path d="M 283.09375 311.558594 C 276.957031 329.574219 256.097656 337.761719 239.347656 328.722656 C 222.59375 319.683594 217.980469 297.757812 229.671875 282.734375 L 326.277344 167.574219 Z M 283.09375 311.558594 " style=" stroke:none;fill-rule:nonzero;fill:rgb(20%,22.352941%,25.098039%);fill-opacity:1;" />
<path d="M 229.671875 282.734375 C 218.058594 297.652344 222.535156 319.375 239.007812 328.527344 L 326.277344 167.574219 Z M 229.671875 282.734375 " style=" stroke:none;fill-rule:nonzero;fill:rgb(20%,22.352941%,25.098039%);fill-opacity:1;" />
<path d="M 239.007812 328.527344 C 239.121094 328.589844 239.230469 328.660156 239.347656 328.722656 C 256.097656 337.761719 276.957031 329.574219 283.09375 311.558594 L 326.273438 167.574219 Z M 239.007812 328.527344 " style=" stroke:none;fill-rule:nonzero;fill:rgb(13.72549%,15.294118%,16.862745%);fill-opacity:1;" />
<path d="M 185.34375 357.429688 L 326.65625 357.429688 L 326.65625 413 L 185.34375 413 Z M 185.34375 357.429688 " style=" stroke:none;fill-rule:nonzero;fill:rgb(33.333333%,35.294118%,40%);fill-opacity:1;" />
<path d="M 256 357.429688 L 326.65625 357.429688 L 326.65625 413 L 256 413 Z M 256 357.429688 " style=" stroke:none;fill-rule:nonzero;fill:rgb(25.490196%,28.627451%,32.156863%);fill-opacity:1;" />
</g>
</svg>