<?xml version="1.0" encoding="iso-8859-1"?>
<!-- Generator: Adobe Illustrator 19.0.0, SVG Export Plug-In . SVG Version: 6.00 Build 0)  -->
<svg version="1.1" id="Capa_1" xmlns="http://www.w3.org/2000/svg" xmlns:xlink="http://www.w3.org/1999/xlink" x="0px" y="0px"
	 viewBox="0 0 512 512" style="enable-background:new 0 0 512 512;" xml:space="preserve">
<circle style="fill:#FFEB50;" cx="256" cy="256" r="256"/>
<path style="fill:#F7D139;" d="M511.962,258.967L433.5,180.505l-56.667,49.627L230.717,84.015l-79.526,91.533L78.5,336.333
	l175.643,175.643c0.62,0.004,1.236,0.023,1.857,0.023C396.393,512,510.37,398.983,511.962,258.967z"/>
<g>
	<polygon style="fill:#1E8CE6;" points="78.5,180.505 208.529,84.015 230.717,84.015 163.122,186.181 	"/>
	<polygon style="fill:#1E8CE6;" points="433.5,180.505 303.471,84.015 281.283,84.015 348.878,186.181 	"/>
</g>
<path style="fill:#4D4D4D;" d="M78.5,180.505v155.828h86.701c25.484,0,48.138-16.233,56.329-40.366l4.836-14.249
	c4.309-12.696,16.227-21.236,29.634-21.236l0,0c13.407,0,25.325,8.54,29.634,21.236l4.836,14.249
	c8.191,24.132,30.844,40.366,56.329,40.366H433.5V180.505H78.5z"/>
<path style="fill:#333333;" d="M255.952,180.505v79.98c0.016,0,0.032-0.002,0.048-0.002c13.407,0,25.325,8.54,29.634,21.236
	l4.836,14.249c8.191,24.132,30.844,40.366,56.329,40.366H433.5V180.505H255.952z"/>
<g>
</g>
<g>
</g>
<g>
</g>
<g>
</g>
<g>
</g>
<g>
</g>
<g>
</g>
<g>
</g>
<g>
</g>
<g>
</g>
<g>
</g>
<g>
</g>
<g>
</g>
<g>
</g>
<g>
</g>
</svg>
