<?xml version="1.0" encoding="iso-8859-1"?>
<!-- Generator: Adobe Illustrator 19.0.0, SVG Export Plug-In . SVG Version: 6.00 Build 0)  -->
<svg version="1.1" id="Capa_1" xmlns="http://www.w3.org/2000/svg" xmlns:xlink="http://www.w3.org/1999/xlink" x="0px" y="0px"
	 viewBox="0 0 512 512" style="enable-background:new 0 0 512 512;" xml:space="preserve">
<circle style="fill:#0066AA;" cx="256" cy="256" r="256"/>
<path style="fill:#1E2D64;" d="M512,256c0-6.891-0.281-13.716-0.815-20.469l-120.52-120.519L61.354,288.605L156,383.251
	l-28.671,11.398l117.078,117.078C248.251,511.898,252.114,512,256,512C397.385,512,512,397.385,512,256z"/>
<path style="fill:#FFECB3;" d="M347.851,409.494H164.149c-29.345,0-53.134-23.789-53.134-53.134v-79.906
	c0-29.345,23.789-53.134,53.134-53.134h183.703c29.345,0,53.134,23.789,53.134,53.134v79.906
	C400.985,385.706,377.196,409.494,347.851,409.494z"/>
<path style="fill:#FFD863;" d="M347.851,223.321h-91.899v186.174h91.899c29.345,0,53.134-23.789,53.134-53.134v-79.907
	C400.985,247.109,377.196,223.321,347.851,223.321z"/>
<path style="fill:#333333;" d="M209.662,333.707L209.662,333.707c-8.872,0-16.064-7.192-16.064-16.064v-58.076
	c0-8.872,7.192-16.064,16.064-16.064l0,0c8.872,0,16.064,7.192,16.064,16.064v58.076
	C225.726,326.515,218.534,333.707,209.662,333.707z"/>
<path style="fill:#1A1A1A;" d="M302.338,333.707L302.338,333.707c-8.872,0-16.064-7.192-16.064-16.064v-58.076
	c0-8.872,7.192-16.064,16.064-16.064l0,0c8.872,0,16.064,7.192,16.064,16.064v58.076
	C318.401,326.515,311.209,333.707,302.338,333.707z"/>
<path style="fill:#D7283C;" d="M256,61.748c-108.75,0-196.909,88.159-196.909,196.909c0,10.182,0.773,20.183,2.263,29.948h76.191
	v-3.543c0-13.947,11.307-25.254,25.254-25.254h186.4c13.947,0,25.254,11.306,25.254,25.254v3.543h76.191
	c1.49-9.765,2.263-19.766,2.263-29.948C452.909,149.907,364.75,61.748,256,61.748z"/>
<path style="fill:#C30032;" d="M256,61.748c-0.016,0-0.032,0.001-0.048,0.001v198.059H349.2c13.947,0,25.254,11.306,25.254,25.254
	v3.543h76.191c1.49-9.765,2.263-19.766,2.263-29.948C452.908,149.907,364.75,61.748,256,61.748z"/>
<path style="fill:#FFFFFF;" d="M166.071,259.806c0-49.667,40.263-89.929,89.929-89.929s89.929,40.263,89.929,89.929H166.071z"/>
<path style="fill:#E0E0E0;" d="M256,169.876c-0.016,0-0.032,0.001-0.048,0.001v89.929h89.977
	C345.929,210.139,305.667,169.876,256,169.876z"/>
<path style="fill:#FFFFFF;" d="M256,61.748c-16.175,0-31.889,1.965-46.931,5.643C211.86,90.84,231.8,109.026,256,109.026
	s44.14-18.186,46.931-41.635C287.889,63.713,272.175,61.748,256,61.748z"/>
<path style="fill:#E0E0E0;" d="M256,61.748c-0.016,0-0.032,0.001-0.048,0.001v47.276c0.016,0,0.032,0.001,0.048,0.001
	c24.2,0,44.14-18.186,46.931-41.635C287.889,63.713,272.175,61.748,256,61.748z"/>
<path style="fill:#FFFFFF;" d="M89.444,153.595c8.492,8.135,20.004,13.143,32.692,13.143c26.111,0,47.278-21.167,47.278-47.278
	c0-12.029-4.5-23.001-11.898-31.345C129.869,104.115,106.48,126.646,89.444,153.595z"/>
<g>
	<path style="fill:#E0E0E0;" d="M354.484,88.115c-7.398,8.344-11.898,19.317-11.898,31.345c0,26.111,21.167,47.278,47.278,47.278
		c12.688,0,24.2-5.008,32.692-13.143C405.52,126.646,382.131,104.115,354.484,88.115z"/>
	<path style="fill:#E0E0E0;" d="M396.808,254.924c0,13.186,5.403,25.106,14.11,33.681h39.728c1.49-9.765,2.263-19.766,2.263-29.948
		c0-17.624-2.329-34.701-6.672-50.956c-0.713-0.032-1.43-0.054-2.151-0.054C417.975,207.646,396.808,228.813,396.808,254.924z"/>
</g>
<path style="fill:#FFFFFF;" d="M115.192,254.924c0-26.111-21.167-47.278-47.278-47.278c-0.721,0-1.437,0.022-2.151,0.054
	c-4.343,16.255-6.672,33.332-6.672,50.956c0,10.182,0.773,20.183,2.263,29.948h39.727
	C109.789,280.03,115.192,268.11,115.192,254.924z"/>
<g>
</g>
<g>
</g>
<g>
</g>
<g>
</g>
<g>
</g>
<g>
</g>
<g>
</g>
<g>
</g>
<g>
</g>
<g>
</g>
<g>
</g>
<g>
</g>
<g>
</g>
<g>
</g>
<g>
</g>
</svg>
