<svg xmlns="http://www.w3.org/2000/svg" height="512pt" version="1.1" viewBox="0 0 512 512" width="512pt">
<g id="surface1">
<path d="M 512 256 C 512 397.386719 397.386719 512 256 512 C 114.613281 512 0 397.386719 0 256 C 0 114.613281 114.613281 0 256 0 C 397.386719 0 512 114.613281 512 256 Z M 512 256 " style=" stroke:none;fill-rule:nonzero;fill:rgb(99.607843%,41.568627%,8.627451%);fill-opacity:1;" />
<path d="M 512 256 C 512 250.4375 511.800781 244.925781 511.453125 239.453125 L 359.5 87.5 L 152.5 424.5 L 239.453125 511.453125 C 244.925781 511.800781 250.4375 512 256 512 C 397.386719 512 512 397.386719 512 256 Z M 512 256 " style=" stroke:none;fill-rule:nonzero;fill:rgb(98.039216%,36.470588%,5.882353%);fill-opacity:1;" />
<path d="M 152.5 87.5 L 359.5 87.5 L 359.5 424.5 L 152.5 424.5 Z M 152.5 87.5 " style=" stroke:none;fill-rule:nonzero;fill:rgb(20%,22.352941%,25.098039%);fill-opacity:1;" />
<path d="M 255.167969 87.5 L 359.5 87.5 L 359.5 424.5 L 255.167969 424.5 Z M 255.167969 87.5 " style=" stroke:none;fill-rule:nonzero;fill:rgb(13.72549%,15.294118%,16.862745%);fill-opacity:1;" />
<path d="M 174.769531 111.316406 L 337.230469 111.316406 L 337.230469 400.683594 L 174.769531 400.683594 Z M 174.769531 111.316406 " style=" stroke:none;fill-rule:nonzero;fill:rgb(100%,100%,100%);fill-opacity:1;" />
<path d="M 255.167969 111.316406 L 337.230469 111.316406 L 337.230469 400.683594 L 255.167969 400.683594 Z M 255.167969 111.316406 " style=" stroke:none;fill-rule:nonzero;fill:rgb(91.372549%,92.941176%,96.078431%);fill-opacity:1;" />
<path d="M 286.753906 348.5 C 286.753906 365.484375 272.984375 379.253906 256 379.253906 C 239.015625 379.253906 225.246094 365.484375 225.246094 348.5 C 225.246094 331.515625 239.015625 317.746094 256 317.746094 C 272.984375 317.746094 286.753906 331.515625 286.753906 348.5 Z M 286.753906 348.5 " style=" stroke:none;fill-rule:nonzero;fill:rgb(35.294118%,32.941176%,87.843137%);fill-opacity:1;" />
<path d="M 256 317.746094 C 255.71875 317.746094 255.445312 317.761719 255.167969 317.765625 L 255.167969 379.234375 C 255.445312 379.238281 255.722656 379.253906 256 379.253906 C 272.984375 379.253906 286.753906 365.484375 286.753906 348.5 C 286.753906 331.515625 272.984375 317.746094 256 317.746094 Z M 256 317.746094 " style=" stroke:none;fill-rule:nonzero;fill:rgb(22.745098%,25.490196%,80%);fill-opacity:1;" />
<path d="M 329.664062 141.203125 C 329.664062 153.054688 320.058594 162.660156 308.210938 162.660156 C 296.359375 162.660156 286.753906 153.054688 286.753906 141.203125 C 286.753906 129.355469 296.359375 119.746094 308.210938 119.746094 C 320.058594 119.746094 329.664062 129.355469 329.664062 141.203125 Z M 329.664062 141.203125 " style=" stroke:none;fill-rule:nonzero;fill:rgb(22.745098%,25.490196%,80%);fill-opacity:1;" />
<path d="M 225.246094 141.203125 C 225.246094 153.054688 215.640625 162.660156 203.789062 162.660156 C 191.941406 162.660156 182.335938 153.054688 182.335938 141.203125 C 182.335938 129.355469 191.941406 119.746094 203.789062 119.746094 C 215.640625 119.746094 225.246094 129.355469 225.246094 141.203125 Z M 225.246094 141.203125 " style=" stroke:none;fill-rule:nonzero;fill:rgb(100%,64.313725%,14.901961%);fill-opacity:1;" />
<path d="M 277.457031 141.203125 C 277.457031 153.054688 267.851562 162.660156 256 162.660156 C 244.148438 162.660156 234.542969 153.054688 234.542969 141.203125 C 234.542969 129.355469 244.148438 119.746094 256 119.746094 C 267.851562 119.746094 277.457031 129.355469 277.457031 141.203125 Z M 277.457031 141.203125 " style=" stroke:none;fill-rule:nonzero;fill:rgb(100%,85.490196%,0%);fill-opacity:1;" />
<path d="M 256 119.746094 C 255.71875 119.746094 255.445312 119.777344 255.167969 119.789062 L 255.167969 162.617188 C 255.445312 162.628906 255.71875 162.660156 256 162.660156 C 267.851562 162.660156 277.457031 153.054688 277.457031 141.203125 C 277.457031 129.355469 267.851562 119.746094 256 119.746094 Z M 256 119.746094 " style=" stroke:none;fill-rule:nonzero;fill:rgb(100%,76.078431%,0%);fill-opacity:1;" />
<path d="M 305.347656 194.128906 C 305.347656 205.980469 295.742188 215.585938 283.894531 215.585938 C 272.042969 215.585938 262.4375 205.980469 262.4375 194.128906 C 262.4375 182.277344 272.042969 172.671875 283.894531 172.671875 C 295.742188 172.671875 305.347656 182.277344 305.347656 194.128906 Z M 305.347656 194.128906 " style=" stroke:none;fill-rule:nonzero;fill:rgb(2.352941%,80%,67.058824%);fill-opacity:1;" />
<path d="M 253.140625 194.128906 C 253.140625 205.980469 243.53125 215.585938 231.683594 215.585938 C 219.832031 215.585938 210.226562 205.980469 210.226562 194.128906 C 210.226562 182.277344 219.832031 172.671875 231.683594 172.671875 C 243.53125 172.671875 253.140625 182.277344 253.140625 194.128906 Z M 253.140625 194.128906 " style=" stroke:none;fill-rule:nonzero;fill:rgb(35.294118%,32.941176%,87.843137%);fill-opacity:1;" />
</g>
</svg>