<?xml version="1.0" encoding="iso-8859-1"?>
<!-- Generator: Adobe Illustrator 19.0.0, SVG Export Plug-In . SVG Version: 6.00 Build 0)  -->
<svg version="1.1" id="Capa_1" xmlns="http://www.w3.org/2000/svg" xmlns:xlink="http://www.w3.org/1999/xlink" x="0px" y="0px"
	 viewBox="0 0 512 512" style="enable-background:new 0 0 512 512;" xml:space="preserve">
<circle style="fill:#733C82;" cx="256" cy="256" r="256"/>
<path style="fill:#4B285A;" d="M512,256c0-4.501-0.119-8.974-0.349-13.417L379.984,110.916L217,231.667L124.291,392.21
	l119.901,119.509C248.107,511.897,252.041,512,256,512C397.385,512,512,397.385,512,256z"/>
<path style="fill:#FFEB50;" d="M233.375,257.525l146.609-146.609C347.056,83.644,304.792,67.25,258.696,67.25
	c-105.086,0-190.275,85.189-190.275,190.275S153.61,447.8,258.696,447.8c46.096,0,88.36-16.394,121.289-43.666L233.375,257.525z"/>
<path style="fill:#F7D139;" d="M68.421,257.525c0,105.086,85.189,190.275,190.275,190.275c46.096,0,88.36-16.394,121.289-43.666
	l-146.61-146.609H68.421z"/>
<circle style="fill:#4D4D4D;" cx="209.93" cy="157.93" r="31.35"/>
<g>
</g>
<g>
</g>
<g>
</g>
<g>
</g>
<g>
</g>
<g>
</g>
<g>
</g>
<g>
</g>
<g>
</g>
<g>
</g>
<g>
</g>
<g>
</g>
<g>
</g>
<g>
</g>
<g>
</g>
</svg>
