<?xml version="1.0" encoding="iso-8859-1"?>
<!-- Generator: Adobe Illustrator 19.0.0, SVG Export Plug-In . SVG Version: 6.00 Build 0)  -->
<svg version="1.1" id="Layer_1" xmlns="http://www.w3.org/2000/svg" xmlns:xlink="http://www.w3.org/1999/xlink" x="0px" y="0px"
	 viewBox="0 0 512 512" style="enable-background:new 0 0 512 512;" xml:space="preserve">
<circle style="fill:#324A5E;" cx="256" cy="256" r="256"/>
<path style="fill:#2B3B4E;" d="M509.075,294.817L369.778,155.522l-25.636-1.502l-78.876-78.767l-0.493,38.484l-75.509,11.383
	l-56.261,56.261l-17.211,31.03v46.056l-36.983,3.067l60.049,60.138l10.478,38.205l148.302,148.735
	C406.604,490.784,492.439,404.18,509.075,294.817z"/>
<path style="fill:#FFD15D;" d="M256,386.812c-73.668,0-133.603-59.935-133.603-133.603S182.332,119.606,256,119.606
	c0.097,0,0.191,0.007,0.288,0.007v-17.241c-0.097,0-0.191-0.003-0.288-0.003c-83.175,0-150.842,67.667-150.842,150.842
	S172.825,404.052,256,404.052c0.097,0,0.191-0.003,0.288-0.003v-17.242C256.191,386.805,256.097,386.812,256,386.812z"/>
<path style="fill:#F9B54C;" d="M406.842,253.209c0-83.078-67.512-150.681-150.554-150.838v17.243
	c73.535,0.159,133.315,60.025,133.315,133.596s-59.78,133.439-133.315,133.596v17.242
	C339.33,403.892,406.842,336.289,406.842,253.209z"/>
<path style="fill:#84DBFF;" d="M374.949,253.209c0-65.493-53.205-118.786-118.662-118.943v10.343
	c59.752,0.157,108.318,48.811,108.318,108.599S316.04,361.651,256.288,361.808v10.343
	C321.745,371.995,374.949,318.702,374.949,253.209z"/>
<path style="fill:#B5F1F4;" d="M256,361.815c-59.885,0-108.606-48.721-108.606-108.606S196.115,144.603,256,144.603
	c0.097,0,0.191,0.007,0.288,0.007v-10.343c-0.097,0-0.191-0.007-0.288-0.007c-65.589,0-118.949,53.36-118.949,118.949
	S190.411,372.158,256,372.158c0.097,0,0.191-0.007,0.288-0.007v-10.343C256.191,361.808,256.097,361.815,256,361.815z"/>
<path style="fill:#84DBFF;" d="M346.505,253.209c0-49.807-40.446-90.341-90.217-90.498v10.343
	c44.07,0.157,79.874,36.05,79.874,80.155s-35.804,79.998-79.874,80.155v10.343C306.059,343.55,346.505,303.018,346.505,253.209z"/>
<path style="fill:#B5F1F4;" d="M256,333.371c-44.203,0-80.162-35.959-80.162-80.162s35.959-80.162,80.162-80.162
	c0.097,0,0.191,0.007,0.288,0.007v-10.343c-0.097,0-0.191-0.007-0.288-0.007c-49.904,0-90.505,40.601-90.505,90.505
	s40.601,90.505,90.505,90.505c0.097,0,0.191-0.007,0.288-0.007v-10.343C256.191,333.365,256.097,333.371,256,333.371z"/>
<path style="fill:#FC6F58;" d="M424.081,239.418h-84.944c-4.603,0-8.633,2.412-10.924,6.034h-65.317v-65.317
	c3.622-2.291,6.034-6.322,6.034-10.924V84.266c0-7.142-5.787-12.929-12.929-12.929s-12.929,5.787-12.929,12.929v84.944
	c0,4.603,2.412,8.633,6.034,10.924v65.317h-65.317c-2.291-3.622-6.322-6.034-10.924-6.034H87.919
	c-7.142,0-12.929,5.787-12.929,12.929c0,7.142,5.787,12.929,12.929,12.929h84.944c4.603,0,8.633-2.412,10.924-6.034h65.317v65.317
	c-3.622,2.291-6.034,6.322-6.034,10.924v84.944c0,7.142,5.787,12.929,12.929,12.929s12.929-5.787,12.929-12.929v-84.944
	c0-4.603-2.412-8.633-6.034-10.924v-65.317h65.317c2.291,3.622,6.322,6.034,10.924,6.034h84.944c7.142,0,12.929-5.787,12.929-12.929
	C437.01,245.205,431.223,239.418,424.081,239.418z"/>
<path style="fill:#F1543F;" d="M424.081,239.418h-84.944c-4.603,0-8.633,2.412-10.924,6.034h-65.317v-65.317
	c3.622-2.291,6.034-6.322,6.034-10.924V84.266c0-7.044-5.634-12.76-12.641-12.916v361.991c7.008-0.155,12.641-5.872,12.641-12.916
	v-84.944c0-4.603-2.412-8.633-6.034-10.924v-65.317h65.317c2.291,3.622,6.322,6.034,10.924,6.034h84.944
	c7.142,0,12.929-5.787,12.929-12.929C437.01,245.203,431.223,239.418,424.081,239.418z"/>
<g>
</g>
<g>
</g>
<g>
</g>
<g>
</g>
<g>
</g>
<g>
</g>
<g>
</g>
<g>
</g>
<g>
</g>
<g>
</g>
<g>
</g>
<g>
</g>
<g>
</g>
<g>
</g>
<g>
</g>
</svg>
