<?xml version="1.0" encoding="iso-8859-1"?>
<!-- Generator: Adobe Illustrator 19.0.0, SVG Export Plug-In . SVG Version: 6.00 Build 0)  -->
<svg version="1.1" id="Layer_1" xmlns="http://www.w3.org/2000/svg" xmlns:xlink="http://www.w3.org/1999/xlink" x="0px" y="0px"
	 viewBox="0 0 512 512" style="enable-background:new 0 0 512 512;" xml:space="preserve">
<circle style="fill:#FD8469;" cx="256" cy="256" r="256"/>
<path style="fill:#FC6F58;" d="M512,256c0-9.288-0.507-18.458-1.472-27.489l-98.89-98.89l-72.826,66.65l-40.245-40.245
	l-40.012,70.925l22.331,22.331l-55.341,19.361L87.009,312.927l197.487,197.487C412.467,496.238,512,387.751,512,256z"/>
<rect x="152.755" y="310.527" style="fill:#324A5E;" width="80.91" height="37.595"/>
<g>
	<rect x="193.37" y="310.527" style="fill:#2B3B4E;" width="40.303" height="37.595"/>
	<path style="fill:#2B3B4E;" d="M293.397,315.838H93.029c-4.251,0-7.696-3.446-7.696-7.696V161.714c0-4.251,3.446-7.696,7.696-7.696
		h200.368c4.251,0,7.696,3.446,7.696,7.696v146.427C301.094,312.392,297.648,315.838,293.397,315.838z"/>
</g>
<path style="fill:#1D2C3A;" d="M293.397,154.017H193.365v161.82h100.031c4.251,0,7.696-3.446,7.696-7.695V161.714
	C301.094,157.463,297.648,154.017,293.397,154.017z"/>
<rect x="93.505" y="163.219" style="fill:#B5F1F4;" width="199.421" height="143.429"/>
<rect x="193.37" y="163.219" style="fill:#84DBFF;" width="99.556" height="143.429"/>
<path style="fill:#2B3B4E;" d="M237.027,360.379h-87.626c-5.592,0-10.128-4.534-10.128-10.128v-6.715
	c0-5.592,4.534-10.128,10.128-10.128h87.626c5.592,0,10.128,4.534,10.128,10.128v6.715
	C247.153,355.845,242.619,360.379,237.027,360.379z"/>
<path style="fill:#1D2C3A;" d="M237.027,333.409h-43.661v26.97h43.661c5.592,0,10.128-4.534,10.128-10.128v-6.715
	C247.153,337.942,242.619,333.409,237.027,333.409z"/>
<path style="fill:#2B3B4E;" d="M404.614,369.778h-86.087c-6.018,0-10.897-4.879-10.897-10.897V137.945
	c0-6.018,4.879-10.897,10.897-10.897h86.087c6.018,0,10.897,4.879,10.897,10.897v220.936
	C415.511,364.899,410.633,369.778,404.614,369.778z"/>
<path style="fill:#1D2C3A;" d="M404.614,127.048h-43.456v242.729h43.456c6.018,0,10.897-4.879,10.897-10.897V137.945
	C415.511,131.927,410.633,127.048,404.614,127.048z"/>
<circle style="fill:#84DBFF;" cx="361.572" cy="302.356" r="7.356"/>
<circle style="fill:#4CDBC4;" cx="361.572" cy="323.198" r="7.356"/>
<g>
	<rect x="314.992" y="159.323" style="fill:#324A5E;" width="93.177" height="16.346"/>
	<rect x="314.992" y="137.671" style="fill:#324A5E;" width="93.177" height="16.346"/>
	<rect x="314.992" y="180.993" style="fill:#324A5E;" width="93.177" height="16.346"/>
</g>
<path style="fill:#B5F1F4;" d="M354.216,302.352c0,3.922,3.077,7.096,6.942,7.315V295.04
	C357.292,295.257,354.216,298.432,354.216,302.352z"/>
<path style="fill:#84DBFF;" d="M361.572,294.998c-0.141,0-0.274,0.034-0.412,0.041v14.627c0.14,0.009,0.271,0.041,0.412,0.041
	c4.062,0,7.356-3.293,7.356-7.356C368.928,298.289,365.633,294.998,361.572,294.998z"/>
<path style="fill:#4CDBC4;" d="M354.216,323.193c0,3.922,3.077,7.096,6.942,7.315V315.88
	C357.292,316.097,354.216,319.273,354.216,323.193z"/>
<path style="fill:#2C9984;" d="M361.572,315.838c-0.141,0-0.274,0.034-0.412,0.041v14.627c0.14,0.009,0.271,0.041,0.412,0.041
	c4.062,0,7.356-3.293,7.356-7.356C368.928,319.129,365.633,315.838,361.572,315.838z"/>
<g>
	<rect x="361.158" y="159.323" style="fill:#2B3B4E;" width="46.994" height="16.346"/>
	<rect x="361.158" y="137.671" style="fill:#2B3B4E;" width="46.994" height="16.346"/>
	<rect x="361.158" y="180.993" style="fill:#2B3B4E;" width="46.994" height="16.346"/>
</g>
<g>
</g>
<g>
</g>
<g>
</g>
<g>
</g>
<g>
</g>
<g>
</g>
<g>
</g>
<g>
</g>
<g>
</g>
<g>
</g>
<g>
</g>
<g>
</g>
<g>
</g>
<g>
</g>
<g>
</g>
</svg>
