<?xml version="1.0" encoding="iso-8859-1"?>
<!-- Generator: Adobe Illustrator 19.0.0, SVG Export Plug-In . SVG Version: 6.00 Build 0)  -->
<svg version="1.1" id="Layer_1" xmlns="http://www.w3.org/2000/svg" xmlns:xlink="http://www.w3.org/1999/xlink" x="0px" y="0px"
	 viewBox="0 0 512 512" style="enable-background:new 0 0 512 512;" xml:space="preserve">
<circle style="fill:#B5F1F4;" cx="256" cy="256" r="256"/>
<path style="fill:#84DBFF;" d="M278.821,510.973c57.715-5.136,114.023-29.775,158.199-73.952
	c40.493-40.493,64.579-91.176,72.27-143.793L326.939,111.011l-56.286-20.506v0.288l-1.438-1.438l-19.339,3.789l20.777,21.207
	v143.803H133.172l2.155-2.155l-82.653-20.546l35.795,34.599l-35.854,15.072L278.821,510.973z"/>
<path style="fill:#804000;" d="M138.342,250.775l-43.098-24.883c-0.917-0.529-1.958-0.809-3.017-0.809h-35.34
	c-2.731,0-5.122,1.834-5.829,4.472c-0.707,2.638,0.446,5.423,2.812,6.789L87.917,256L53.87,275.656
	c-2.365,1.365-3.518,4.149-2.812,6.789c0.707,2.636,3.098,4.472,5.829,4.472h35.34c1.058,0,2.1-0.279,3.017-0.809l43.098-24.883
	c1.867-1.077,3.017-3.07,3.017-5.225C141.359,253.845,140.209,251.852,138.342,250.775z"/>
<path style="fill:#683100;" d="M87.171,255.569L87.917,256L53.87,275.656c-2.365,1.365-3.518,4.149-2.812,6.789
	c0.707,2.636,3.098,4.472,5.829,4.472h35.34c1.058,0,2.1-0.279,3.017-0.809l43.098-24.883c1.867-1.077,3.017-3.07,3.017-5.225
	c0-0.145-0.019-0.288-0.029-0.431H87.171z"/>
<path style="fill:#F9B54C;" d="M271.513,427.529c-3.332,0-6.034-2.701-6.034-6.034V90.505c0-3.332,2.701-6.034,6.034-6.034
	s6.034,2.701,6.034,6.034v330.99C277.547,424.827,274.846,427.529,271.513,427.529z"/>
<path style="fill:#57442F;" d="M255.998,433.562c-4.761,0-8.62-3.858-8.62-8.62s3.858-8.62,8.62-8.62
	c57.985,0,105.158-71.921,105.158-160.323S313.984,95.677,255.998,95.677c-4.761,0-8.62-3.858-8.62-8.62s3.858-8.62,8.62-8.62
	c33.351,0,64.462,18.925,87.602,53.286c22.438,33.316,34.795,77.453,34.795,124.276s-12.357,90.96-34.795,124.276
	C320.46,414.637,289.349,433.562,255.998,433.562z"/>
<path style="fill:#B97850;" d="M398.22,260.31H85.332c-2.381,0-4.31-1.929-4.31-4.31s1.929-4.31,4.31-4.31H398.22
	c2.381,0,4.31,1.929,4.31,4.31S400.601,260.31,398.22,260.31z"/>
<path style="fill:#935635;" d="M81.065,255.569c-0.014,0.143-0.043,0.283-0.043,0.431c0,2.381,1.929,4.31,4.31,4.31H398.22
	c2.381,0,4.31-1.929,4.31-4.31c0-0.148-0.029-0.288-0.043-0.431H81.065z"/>
<path style="fill:#804000;" d="M444.335,250.775l-43.098-24.883c-1.865-1.077-4.168-1.077-6.034,0
	c-1.867,1.077-3.017,3.07-3.017,5.225v49.764c0,2.155,1.15,4.148,3.017,5.225c0.933,0.54,1.976,0.809,3.017,0.809
	c1.041,0,2.084-0.269,3.017-0.809l43.098-24.883c1.867-1.077,3.017-3.07,3.017-5.225
	C447.352,253.843,446.202,251.852,444.335,250.775z"/>
<path style="fill:#683100;" d="M392.187,255.569v25.314c0,2.155,1.15,4.148,3.017,5.225c0.933,0.54,1.976,0.809,3.017,0.809
	c1.041,0,2.084-0.269,3.017-0.809l43.098-24.883c1.867-1.077,3.017-3.07,3.017-5.225c0-0.145-0.019-0.288-0.029-0.431H392.187z"/>
<g>
</g>
<g>
</g>
<g>
</g>
<g>
</g>
<g>
</g>
<g>
</g>
<g>
</g>
<g>
</g>
<g>
</g>
<g>
</g>
<g>
</g>
<g>
</g>
<g>
</g>
<g>
</g>
<g>
</g>
</svg>
