<?xml version="1.0" encoding="iso-8859-1"?>
<!-- Generator: Adobe Illustrator 19.0.0, SVG Export Plug-In . SVG Version: 6.00 Build 0)  -->
<svg version="1.1" id="Layer_1" xmlns="http://www.w3.org/2000/svg" xmlns:xlink="http://www.w3.org/1999/xlink" x="0px" y="0px"
	 viewBox="0 0 512 512" style="enable-background:new 0 0 512 512;" xml:space="preserve">
<circle style="fill:#324A5E;" cx="256" cy="256" r="256"/>
<path style="fill:#2B3B4E;" d="M504.877,316.14L343.124,154.388L226.032,336.362l-40.1,70.12l103.365,103.365
	C394.942,496.125,480.351,417.995,504.877,316.14z"/>
<path style="fill:#B8C2C9;" d="M315.799,415.246l-27.991,18.661c-19.261,12.841-44.354,12.841-63.616,0l-27.991-18.661
	c-15.953-10.635-25.535-28.539-25.535-47.713V256h170.667v111.533C341.333,386.707,331.752,404.611,315.799,415.246z"/>
<path style="fill:#8C9CA5;" d="M256,256v187.537c11.088,0,22.178-3.21,31.808-9.631l27.991-18.66
	c15.953-10.635,25.534-28.539,25.534-47.713V256H256z"/>
<path style="fill:#E6F3FF;" d="M369.778,227.556c0-62.838-50.94-113.778-113.778-113.778s-113.778,50.94-113.778,113.778v85.333
	l50.64,50.64v25.643h28.444v-19.394h4.167v19.394h28.444v-19.394h4.167v19.394h28.444v-19.394h4.167v19.394h28.444v-25.643
	l50.638-50.64V227.556z"/>
<path style="fill:#CFDBE6;" d="M256,113.778L256,113.778v256h2.082v19.394h28.444v-19.394h4.167v19.394h28.444v-25.643l50.64-50.64
	v-85.333C369.778,164.717,318.838,113.778,256,113.778z"/>
<path style="fill:#97A7B2;" d="M263.013,341.333H249.23c-4.772,0-8.414-3.62-7.664-7.62l7.616-40.624
	c0.6-3.196,3.849-5.549,7.664-5.549l0,0c3.903,0,7.197,2.458,7.697,5.744l6.166,40.624
	C271.307,337.846,267.692,341.333,263.013,341.333z"/>
<path style="fill:#718089;" d="M270.708,333.908l-6.166-40.624c-0.498-3.284-3.794-5.744-7.697-5.744
	c-0.288,0-0.565,0.038-0.846,0.065v53.727h7.013C267.692,341.333,271.307,337.846,270.708,333.908z"/>
<path style="fill:#97A7B2;" d="M224.192,288.361l-17.787,7.008c-15.091,5.944-31.429-5.179-31.429-21.399v-7.008
	c0-12.702,10.297-22.999,22.999-22.999h17.787c12.702,0,22.999,10.297,22.999,22.999l0,0
	C238.761,276.411,232.982,284.898,224.192,288.361z"/>
<path style="fill:#718089;" d="M287.808,288.361l17.787,7.008c15.091,5.944,31.429-5.179,31.429-21.399v-7.008
	c0-12.702-10.297-22.999-22.999-22.999h-17.787c-12.702,0-22.999,10.297-22.999,22.999l0,0
	C273.239,276.411,279.018,284.898,287.808,288.361z"/>
<g>
</g>
<g>
</g>
<g>
</g>
<g>
</g>
<g>
</g>
<g>
</g>
<g>
</g>
<g>
</g>
<g>
</g>
<g>
</g>
<g>
</g>
<g>
</g>
<g>
</g>
<g>
</g>
<g>
</g>
</svg>
