<?xml version="1.0" encoding="iso-8859-1"?>
<!-- Generator: Adobe Illustrator 19.0.0, SVG Export Plug-In . SVG Version: 6.00 Build 0)  -->
<svg version="1.1" id="Layer_1" xmlns="http://www.w3.org/2000/svg" xmlns:xlink="http://www.w3.org/1999/xlink" x="0px" y="0px"
	 viewBox="0 0 512 512" style="enable-background:new 0 0 512 512;" xml:space="preserve">
<circle style="fill:#324A5E;" cx="256" cy="256" r="256"/>
<path style="fill:#2B3B4E;" d="M260.911,511.938c122.589-2.308,224.08-90.776,246.47-207.384L300.23,97.401l-48.023,39.322
	l-24.371-24.371l-10.354,5.735l25.879,25.879l-39.764,32.559l-22.94-22.94l-22.45,22.45l-10.568,10.568l-31.48,136.344
	l96.589,96.589l-27.462,16.774L260.911,511.938z"/>
<g>
	<path style="fill:#FD8469;" d="M138.8,224.915c-1.312-67.308,52.876-78.764,53.422-78.872l2.334,11.838l-1.167-5.92l1.188,5.916
		c-1.831,0.376-44.822,9.849-43.713,66.801L138.8,224.915z"/>
	<path style="fill:#FD8469;" d="M219.727,339.684c-1.312-67.306,52.876-78.764,53.422-78.872l2.334,11.838l-1.167-5.92l1.188,5.916
		c-1.831,0.376-44.822,9.85-43.713,66.801L219.727,339.684z"/>
</g>
<g>
	<path style="fill:#FC6F58;" d="M297.984,339.684l-12.064-0.236c1.108-56.951-41.884-66.426-43.713-66.801l2.355-11.835
		C245.108,260.92,299.296,272.377,297.984,339.684z"/>
	<path style="fill:#FC6F58;" d="M378.911,224.915l-12.064-0.236c0.471-24.226-6.818-42.837-21.668-55.315
		c-10.974-9.225-21.914-11.461-22.023-11.483l2.334-11.838C326.035,146.149,380.223,157.606,378.911,224.915z"/>
</g>
<circle style="fill:#84DBFF;" cx="258.862" cy="231.779" r="48.562"/>
<path style="fill:#31BAFD;" d="M307.412,231.784c0-26.817-21.74-48.557-48.556-48.557v97.113
	C285.674,280.342,307.412,258.601,307.412,231.784z"/>
<path style="fill:#CFDBE6;" d="M301.78,247.668h-85.847c-13.331,0-24.809-9.409-27.424-22.483l-10.764-53.817
	c-3.462-17.306,9.776-33.452,27.424-33.452h107.373c17.649,0,30.885,16.146,27.424,33.452l-10.764,53.817
	C326.589,238.258,315.111,247.668,301.78,247.668z"/>
<path style="fill:#B8C9D9;" d="M312.542,137.916h-53.686v109.751h42.924c13.331,0,24.809-9.409,27.424-22.481l10.764-53.817
	C343.428,154.062,330.192,137.916,312.542,137.916z"/>
<circle style="fill:#FFFFFF;" cx="258.862" cy="113.336" r="36.785"/>
<path style="fill:#E6F3FF;" d="M295.641,113.336c0-20.316-16.468-36.785-36.785-36.785v73.571
	C279.171,150.121,295.641,133.651,295.641,113.336z"/>
<circle style="fill:#31BAFD;" cx="371.364" cy="317.13" r="25.014"/>
<circle style="fill:#84DBFF;" cx="146.36" cy="317.13" r="25.014"/>
<path style="fill:#FFFFFF;" d="M164.709,328.899h-36.711c-9.344,0-16.353-8.549-14.52-17.711l18.356-91.777
	c1.384-6.921,7.461-11.904,14.52-11.904l0,0c7.058,0,13.136,4.982,14.52,11.904l18.356,91.777
	C181.062,320.35,174.052,328.899,164.709,328.899z"/>
<path style="fill:#E6F3FF;" d="M389.713,328.899h-36.711c-9.344,0-16.353-8.549-14.52-17.711l18.356-91.777
	c1.384-6.921,7.461-11.904,14.52-11.904l0,0c7.058,0,13.136,4.982,14.52,11.904l18.356,91.777
	C406.066,320.35,399.058,328.899,389.713,328.899z"/>
<path style="fill:#B8C9D9;" d="M306.99,434.473h-32.261c-8.211,0-14.37-7.513-12.76-15.565l16.131-80.653
	c1.217-6.082,6.558-10.461,12.76-10.461l0,0c6.203,0,11.543,4.379,12.76,10.461l16.131,80.653
	C321.36,426.96,315.201,434.473,306.99,434.473z"/>
<path style="fill:#CFDBE6;" d="M242.983,434.473h-32.261c-8.211,0-14.37-7.513-12.76-15.565l16.131-80.653
	c1.217-6.082,6.558-10.461,12.76-10.461l0,0c6.203,0,11.543,4.379,12.76,10.461l16.131,80.653
	C257.353,426.96,251.194,434.473,242.983,434.473z"/>
<path style="fill:#FD8469;" d="M185.285,436.312c0-20.316,16.47-36.785,36.785-36.785s36.785,16.47,36.785,36.785H185.285z"/>
<path style="fill:#FC6F58;" d="M258.857,436.312c0-20.316,16.47-36.785,36.785-36.785c20.314,0,36.785,16.47,36.785,36.785H258.857z
	"/>
<rect x="217.488" y="97.401" style="fill:#B5F1F4;" width="82.747" height="20.687"/>
<rect x="258.862" y="97.401" style="fill:#84DBFF;" width="41.374" height="20.687"/>
<g>
</g>
<g>
</g>
<g>
</g>
<g>
</g>
<g>
</g>
<g>
</g>
<g>
</g>
<g>
</g>
<g>
</g>
<g>
</g>
<g>
</g>
<g>
</g>
<g>
</g>
<g>
</g>
<g>
</g>
</svg>
