<?xml version="1.0" encoding="iso-8859-1"?>
<!-- Generator: Adobe Illustrator 19.0.0, SVG Export Plug-In . SVG Version: 6.00 Build 0)  -->
<svg version="1.1" id="Layer_1" xmlns="http://www.w3.org/2000/svg" xmlns:xlink="http://www.w3.org/1999/xlink" x="0px" y="0px"
	 viewBox="0 0 512 512" style="enable-background:new 0 0 512 512;" xml:space="preserve">
<circle style="fill:#E6F3FF;" cx="256" cy="256" r="256"/>
<path style="fill:#CFDBE6;" d="M508.845,296.227L273.387,59.009l-14.224,13.969l-10.361,8.063v213.62l-80.829,54.518
	l154.174,154.174C418.84,477.56,493.003,396.595,508.845,296.227z"/>
<path style="fill:#F1543F;" d="M253.65,184.739l-12.509-9.182c11.276-15.358,7.068-31.144,2.195-49.424
	c-1.224-4.591-2.488-9.337-3.527-14.177c-6.604-30.825,19.075-48.111,33.578-52.946l4.906,14.72l-2.453-7.361l2.479,7.351
	c-1.174,0.4-28.672,10.092-23.337,34.985c0.957,4.467,2.172,9.023,3.346,13.431C263.733,142.415,269.324,163.387,253.65,184.739z"/>
<circle style="fill:#2B3B4E;" cx="256" cy="277.101" r="113.778"/>
<path style="fill:#1B2835;" d="M256,163.314c-0.191,0-0.381,0.014-0.572,0.014v227.526c0.191,0.002,0.381,0.016,0.572,0.016
	c62.838,0,113.778-50.94,113.778-113.778S318.838,163.314,256,163.314z"/>
<rect x="219.798" y="142.222" style="fill:#324A5E;" width="72.404" height="28.394"/>
<rect x="255.431" y="142.222" style="fill:#2B3B4E;" width="36.774" height="28.394"/>
<g>
</g>
<g>
</g>
<g>
</g>
<g>
</g>
<g>
</g>
<g>
</g>
<g>
</g>
<g>
</g>
<g>
</g>
<g>
</g>
<g>
</g>
<g>
</g>
<g>
</g>
<g>
</g>
<g>
</g>
</svg>
