<?xml version="1.0" encoding="iso-8859-1"?>
<!-- Generator: Adobe Illustrator 19.0.0, SVG Export Plug-In . SVG Version: 6.00 Build 0)  -->
<svg version="1.1" id="Layer_1" xmlns="http://www.w3.org/2000/svg" xmlns:xlink="http://www.w3.org/1999/xlink" x="0px" y="0px"
	 viewBox="0 0 512 512" style="enable-background:new 0 0 512 512;" xml:space="preserve">
<circle style="fill:#FC6F58;" cx="256" cy="256" r="256"/>
<path style="fill:#F1543F;" d="M512,256c0-0.681-0.021-1.357-0.026-2.038l-84.697-84.087L188.768,291.34L84.83,342.123
	l167.969,169.836c1.067,0.014,2.131,0.04,3.201,0.04C397.384,512,512,397.384,512,256z"/>
<path style="fill:#324A5E;" d="M398.222,270.222v-28.444c0-7.854,6.368-14.222,14.222-14.222l0,0
	c7.854,0,14.222-6.368,14.222-14.222v-28.444c0-7.854-6.368-14.222-14.222-14.222H99.556c-7.854,0-14.222,6.368-14.222,14.222
	v142.222c0,7.854,6.368,14.222,14.222,14.222h312.889c7.854,0,14.222-6.368,14.222-14.222v-28.444
	c0-7.854-6.368-14.222-14.222-14.222l0,0C404.59,284.444,398.222,278.076,398.222,270.222z"/>
<path style="fill:#2B3B4E;" d="M412.444,227.556c7.854,0,14.222-6.368,14.222-14.222v-28.444c0-7.854-6.368-14.222-14.222-14.222
	h-157.88v170.667h157.88c7.854,0,14.222-6.368,14.222-14.222v-28.444c0-7.854-6.368-14.222-14.222-14.222
	c-7.854,0-14.222-6.368-14.222-14.222v-28.444C398.222,233.924,404.59,227.556,412.444,227.556z"/>
<path style="fill:#E6F3FF;" d="M412.446,348.229H99.556c-11.645,0-21.118-9.473-21.118-21.118V184.889
	c0-11.645,9.473-21.118,21.118-21.118h312.891c11.643,0,21.116,9.473,21.116,21.118v28.444c0,11.645-9.473,21.118-21.116,21.118
	c-4.041,0-7.328,3.286-7.328,7.327v28.444c0,4.041,3.286,7.327,7.327,7.327c11.645,0,21.118,9.473,21.118,21.118v28.444
	C433.562,338.756,424.088,348.229,412.446,348.229z M99.556,177.562c-4.041,0-7.327,3.286-7.327,7.327v142.222
	c0,4.041,3.286,7.327,7.327,7.327h312.891c4.039,0,7.325-3.286,7.325-7.327v-28.444c0-4.041-3.286-7.327-7.325-7.327
	c-11.645,0-21.12-9.473-21.12-21.118v-28.444c0-11.645,9.473-21.118,21.118-21.118c4.041,0,7.327-3.286,7.327-7.327v-28.444
	c0-4.041-3.286-7.327-7.325-7.327H99.556z"/>
<path style="fill:#B8C9D9;" d="M412.446,234.451c11.643,0,21.116-9.473,21.116-21.118v-28.444c0-11.645-9.473-21.118-21.116-21.118
	H254.564v13.791h157.882c4.039,0,7.325,3.286,7.325,7.327v28.444c0,4.041-3.286,7.327-7.327,7.327
	c-11.645,0-21.118,9.473-21.118,21.118v28.444c0,11.645,9.475,21.118,21.12,21.118c4.039,0,7.325,3.286,7.325,7.327v28.444
	c0,4.041-3.286,7.327-7.325,7.327H254.564v13.791h157.882c11.643,0,21.116-9.473,21.116-21.118v-28.444
	c0-11.645-9.473-21.118-21.118-21.118c-4.041,0-7.327-3.286-7.327-7.327v-28.444C405.118,237.737,408.405,234.451,412.446,234.451z"
	/>
<path style="fill:#9BADBC;" d="M157.796,252.264h-7.585c-2.348,0-4.253-1.903-4.253-4.253v-7.585c0-2.348-1.903-4.253-4.253-4.253
	h-7.585c-2.348,0-4.253,1.903-4.253,4.253v7.585c0,2.348-1.903,4.253-4.253,4.253h-7.585c-2.348,0-4.253,1.903-4.253,4.253v7.585
	c0,2.348,1.903,4.253,4.253,4.253h7.585c2.348,0,4.253,1.903,4.253,4.253v7.585c0,2.348,1.903,4.253,4.253,4.253h7.585
	c2.348,0,4.253-1.903,4.253-4.253v-7.585c0-2.348,1.903-4.253,4.253-4.253h7.585c2.348,0,4.253-1.903,4.253-4.253v-7.585
	C162.047,254.169,160.144,252.264,157.796,252.264z"/>
<g>
	<circle style="fill:#FD8469;" cx="338.747" cy="300.822" r="12.154"/>
	<circle style="fill:#FD8469;" cx="373.139" cy="300.822" r="12.154"/>
</g>
<g>
	<rect x="199.111" y="262.896" style="fill:#CFDBE6;" width="113.778" height="56.889"/>
	<rect x="199.111" y="237.037" style="fill:#CFDBE6;" width="113.778" height="10.343"/>
	<rect x="199.111" y="216.35" style="fill:#CFDBE6;" width="113.778" height="10.343"/>
	<rect x="199.111" y="195.663" style="fill:#CFDBE6;" width="113.778" height="10.343"/>
</g>
<g>
	<rect x="254.569" y="262.896" style="fill:#B8C9D9;" width="58.325" height="56.889"/>
	<rect x="254.569" y="237.037" style="fill:#B8C9D9;" width="58.325" height="10.343"/>
	<rect x="254.569" y="216.35" style="fill:#B8C9D9;" width="58.325" height="10.343"/>
	<rect x="254.569" y="195.663" style="fill:#B8C9D9;" width="58.325" height="10.343"/>
</g>
<g>
</g>
<g>
</g>
<g>
</g>
<g>
</g>
<g>
</g>
<g>
</g>
<g>
</g>
<g>
</g>
<g>
</g>
<g>
</g>
<g>
</g>
<g>
</g>
<g>
</g>
<g>
</g>
<g>
</g>
</svg>
