<?xml version="1.0" encoding="iso-8859-1"?>
<!-- Generator: Adobe Illustrator 19.0.0, SVG Export Plug-In . SVG Version: 6.00 Build 0)  -->
<svg version="1.1" id="Layer_1" xmlns="http://www.w3.org/2000/svg" xmlns:xlink="http://www.w3.org/1999/xlink" x="0px" y="0px"
	 viewBox="0 0 512 512" style="enable-background:new 0 0 512 512;" xml:space="preserve">
<circle style="fill:#31BAFD;" cx="256" cy="256" r="256"/>
<path style="fill:#2B9ED8;" d="M437.019,437.019c50.017-50.017,75.009-115.581,74.98-181.138L392.097,135.98L207.731,279.561
	l-86.842,97.473l135.963,134.958C322.084,511.774,387.25,486.79,437.019,437.019z"/>
<path style="fill:#324A5E;" d="M374.236,384H137.764c-13.246,0-23.986-10.738-23.986-23.986V151.986
	c0-13.246,10.738-23.986,23.986-23.986h236.472c13.247,0,23.986,10.738,23.986,23.986v208.027
	C398.222,373.262,387.484,384,374.236,384z"/>
<g>
	<path style="fill:#2B3B4E;" d="M374.236,128H256v256h118.236c13.247,0,23.986-10.738,23.986-23.986V151.986
		C398.222,138.74,387.484,128,374.236,128z"/>
	<circle style="fill:#2B3B4E;" cx="256" cy="256" r="85.333"/>
</g>
<path style="fill:#233344;" d="M341.333,256c0-47.128-38.205-85.333-85.333-85.333v170.667
	C303.128,341.333,341.333,303.128,341.333,256z"/>
<path style="fill:#FC6F58;" d="M298.667,329.888v-16.999c-11.885,8.928-26.657,14.222-42.667,14.222s-30.782-5.294-42.667-14.222
	v16.999c12.555,7.265,27.119,11.445,42.667,11.445C271.548,341.333,286.111,337.155,298.667,329.888z"/>
<path style="fill:#F1543F;" d="M298.667,312.891c-11.885,8.928-26.657,14.222-42.667,14.222v14.22
	c15.548,0,30.111-4.179,42.667-11.445V312.891z"/>
<path style="fill:#1B2835;" d="M297.374,248.673h-82.747c-3.808,0-6.896-3.088-6.896-6.896l0,0c0-3.808,3.088-6.896,6.896-6.896
	h82.747c3.808,0,6.896,3.088,6.896,6.896l0,0C304.269,245.586,301.182,248.673,297.374,248.673z"/>
<path style="fill:#101A23;" d="M297.374,234.882H256v13.791h41.374c3.808,0,6.896-3.088,6.896-6.896
	S301.182,234.882,297.374,234.882z"/>
<g>
	<path style="fill:#2B3B4E;" d="M152.423,238.761h-20.399c-5.317,0-9.626-4.31-9.626-9.625v-60.049c0-5.317,4.31-9.626,9.626-9.626
		h20.399c5.315,0,9.625,4.31,9.625,9.626v60.049C162.047,234.451,157.737,238.761,152.423,238.761z"/>
	<path style="fill:#2B3B4E;" d="M113.778,360.014c0,13.247,10.738,23.986,23.986,23.986h32.902v-56.027
		c0-8.33-6.753-15.084-15.084-15.084h-41.805V360.014z"/>
</g>
<g>
	<circle style="fill:#B5F1F4;" cx="133.034" cy="357.624" r="7.14"/>
	<circle style="fill:#B5F1F4;" cx="153.221" cy="357.624" r="7.14"/>
</g>
<g>
</g>
<g>
</g>
<g>
</g>
<g>
</g>
<g>
</g>
<g>
</g>
<g>
</g>
<g>
</g>
<g>
</g>
<g>
</g>
<g>
</g>
<g>
</g>
<g>
</g>
<g>
</g>
<g>
</g>
</svg>
