<?xml version="1.0" encoding="iso-8859-1"?>
<!-- Generator: Adobe Illustrator 19.0.0, SVG Export Plug-In . SVG Version: 6.00 Build 0)  -->
<svg version="1.1" id="Layer_1" xmlns="http://www.w3.org/2000/svg" xmlns:xlink="http://www.w3.org/1999/xlink" x="0px" y="0px"
	 viewBox="0 0 512 512" style="enable-background:new 0 0 512 512;" xml:space="preserve">
<circle style="fill:#FFD15D;" cx="256" cy="256" r="256"/>
<path style="fill:#F9B54C;" d="M507.106,305.99L357.56,156.444l-133.165,123.69l-67.951,77.419l149.552,149.552
	C407.274,487.052,487.057,407.269,507.106,305.99z"/>
<g>
	<circle style="fill:#2B3B4E;" cx="256" cy="256" r="142.222"/>
	<path style="fill:#2B3B4E;" d="M256,113.778c-0.193,0-0.381,0.014-0.574,0.014v284.415c0.193,0,0.381,0.014,0.574,0.014
		c78.546,0,142.222-63.676,142.222-142.222S334.548,113.778,256,113.778z"/>
</g>
<path style="fill:#3E5768;" d="M338.017,222.815h-31.291c-9.687,0-17.539-7.852-17.539-17.539v-31.291
	c0-9.687-7.852-17.539-17.539-17.539h-31.291c-9.687,0-17.539,7.852-17.539,17.539v31.291c0,9.687-7.852,17.539-17.539,17.539
	h-31.291c-9.687,0-17.539,7.852-17.539,17.539v31.291c0,9.687,7.852,17.539,17.539,17.539h31.291
	c9.687,0,17.539,7.852,17.539,17.539v31.291c0,9.687,7.852,17.539,17.539,17.539h31.291c9.687,0,17.539-7.852,17.539-17.539v-31.291
	c0-9.687,7.852-17.539,17.539-17.539h31.291c9.687,0,17.539-7.852,17.539-17.539v-31.291
	C355.556,230.667,347.703,222.815,338.017,222.815z"/>
<path style="fill:#324A5E;" d="M338.017,222.815h-31.291c-9.687,0-17.539-7.852-17.539-17.539v-31.291
	c0-9.687-7.852-17.539-17.539-17.539h-16.22v199.111h16.22c9.687,0,17.539-7.852,17.539-17.539v-31.291
	c0-9.687,7.852-17.539,17.539-17.539h31.291c9.687,0,17.539-7.852,17.539-17.539v-31.291
	C355.556,230.667,347.703,222.815,338.017,222.815z"/>
<circle style="fill:#FC6F58;" cx="256" cy="256" r="28.444"/>
<path style="fill:#F1543F;" d="M256,227.556c-0.193,0-0.381,0.026-0.574,0.029v56.83c0.193,0.003,0.381,0.029,0.574,0.029
	c15.71,0,28.444-12.734,28.444-28.444S271.71,227.556,256,227.556z"/>
<g>
	<polygon style="fill:#FFD15D;" points="236.175,195.262 256,169.172 275.825,195.262 	"/>
	<polygon style="fill:#FFD15D;" points="275.825,316.738 256,342.828 236.175,316.738 	"/>
</g>
<g>
	<polygon style="fill:#F9B54C;" points="256,169.172 255.426,169.927 255.426,195.262 275.825,195.262 	"/>
	<polygon style="fill:#F9B54C;" points="275.825,316.738 255.426,316.738 255.426,342.073 256,342.828 	"/>
	<polygon style="fill:#F9B54C;" points="316.738,236.175 342.828,256 316.738,275.825 	"/>
</g>
<polygon style="fill:#FFD15D;" points="195.262,275.825 169.172,256 195.262,236.175 "/>
<g>
</g>
<g>
</g>
<g>
</g>
<g>
</g>
<g>
</g>
<g>
</g>
<g>
</g>
<g>
</g>
<g>
</g>
<g>
</g>
<g>
</g>
<g>
</g>
<g>
</g>
<g>
</g>
<g>
</g>
</svg>
