<?xml version="1.0" encoding="iso-8859-1"?>
<!-- Generator: Adobe Illustrator 19.0.0, SVG Export Plug-In . SVG Version: 6.00 Build 0)  -->
<svg version="1.1" id="Layer_1" xmlns="http://www.w3.org/2000/svg" xmlns:xlink="http://www.w3.org/1999/xlink" x="0px" y="0px"
	 viewBox="0 0 512 512" style="enable-background:new 0 0 512 512;" xml:space="preserve">
<circle style="fill:#FC6F58;" cx="256" cy="256" r="256"/>
<path style="fill:#F1543F;" d="M437.019,437.019c47.213-47.214,72.118-108.282,74.736-170.117L393.925,149.07l-181.02,131.639
	l-94.86,82.18l148.868,148.866C328.744,509.135,389.808,484.231,437.019,437.019z"/>
<path style="fill:#E6F3FF;" d="M379.404,369.778H132.598c-10.393,0-18.82-8.425-18.82-18.818V161.042
	c0-10.395,8.426-18.82,18.82-18.82h246.806c10.393,0,18.82,8.425,18.82,18.818v189.918
	C398.222,361.353,389.797,369.778,379.404,369.778z"/>
<g>
	<path style="fill:#CFDBE6;" d="M379.404,142.222H256.29v227.556h123.114c10.393,0,18.82-8.425,18.82-18.82V161.042
		C398.222,150.647,389.797,142.222,379.404,142.222z"/>
	<circle style="fill:#CFDBE6;" cx="256" cy="256" r="85.333"/>
</g>
<path style="fill:#B8C9D9;" d="M341.333,256c0-47.032-38.05-85.17-85.045-85.326v170.653
	C303.283,341.17,341.333,303.032,341.333,256z"/>
<path style="fill:#CFDBE6;" d="M164.633,142.222h-32.035c-10.393,0-18.82,8.425-18.82,18.82V350.96
	c0,10.393,8.426,18.82,18.82,18.82h32.035V142.222z"/>
<g>
	<path style="fill:#B8C9D9;" d="M379.404,142.222h-32.037v227.556h32.035c10.393,0,18.82-8.425,18.82-18.82V161.042
		C398.222,150.647,389.797,142.222,379.404,142.222z"/>
	<circle style="fill:#B8C9D9;" cx="139.843" cy="327.111" r="16.593"/>
</g>
<circle style="fill:#A6A8AA;" cx="372.14" cy="327.111" r="16.593"/>
<g>
</g>
<g>
</g>
<g>
</g>
<g>
</g>
<g>
</g>
<g>
</g>
<g>
</g>
<g>
</g>
<g>
</g>
<g>
</g>
<g>
</g>
<g>
</g>
<g>
</g>
<g>
</g>
<g>
</g>
</svg>
