<?xml version="1.0" encoding="iso-8859-1"?>
<!-- Generator: Adobe Illustrator 19.0.0, SVG Export Plug-In . SVG Version: 6.00 Build 0)  -->
<svg version="1.1" id="Layer_1" xmlns="http://www.w3.org/2000/svg" xmlns:xlink="http://www.w3.org/1999/xlink" x="0px" y="0px"
	 viewBox="0 0 512 512" style="enable-background:new 0 0 512 512;" xml:space="preserve">
<circle style="fill:#FFD15D;" cx="256" cy="256" r="256"/>
<path style="fill:#F9B54C;" d="M512,256c0-1.458-0.031-2.91-0.055-4.363L402.532,142.222L216.35,301.396L105.589,402.532
	l105.544,105.544c14.569,2.576,29.56,3.924,44.868,3.924C397.384,512,512,397.384,512,256z"/>
<rect x="116.364" y="142.222" style="fill:#324A5E;" width="99.142" height="227.556"/>
<rect x="204.248" y="142.222" style="fill:#2B3B4E;" width="198.284" height="227.556"/>
<rect x="105.589" y="361.158" style="fill:#CFDBE6;" width="101.71" height="41.374"/>
<rect x="205.145" y="361.158" style="fill:#B8C9D9;" width="208.593" height="41.374"/>
<path style="fill:#B5F1F4;" d="M156.444,341.333L156.444,341.333c-4.76,0-8.62-3.86-8.62-8.62V179.286c0-4.76,3.86-8.62,8.62-8.62
	l0,0c4.76,0,8.62,3.86,8.62,8.62v153.428C165.064,337.474,161.204,341.333,156.444,341.333z"/>
<g>
</g>
<g>
</g>
<g>
</g>
<g>
</g>
<g>
</g>
<g>
</g>
<g>
</g>
<g>
</g>
<g>
</g>
<g>
</g>
<g>
</g>
<g>
</g>
<g>
</g>
<g>
</g>
<g>
</g>
</svg>
