<?xml version="1.0" encoding="iso-8859-1"?>
<!-- Generator: Adobe Illustrator 19.0.0, SVG Export Plug-In . SVG Version: 6.00 Build 0)  -->
<svg version="1.1" id="Layer_1" xmlns="http://www.w3.org/2000/svg" xmlns:xlink="http://www.w3.org/1999/xlink" x="0px" y="0px"
	 viewBox="0 0 512 512" style="enable-background:new 0 0 512 512;" xml:space="preserve">
<circle style="fill:#31BAFD;" cx="256" cy="256" r="256"/>
<path style="fill:#2B9ED8;" d="M511.591,270.376L380.788,139.574L210.03,104.296L97.258,219.367l40.8,159.749l133.668,132.389
	C401.03,503.667,504.422,399.862,511.591,270.376z"/>
<path style="fill:#E6F3FF;" d="M377.535,232.727H290.04c-7.689-10.452-20.07-17.239-34.04-17.239
	c-13.971,0-26.352,6.787-34.04,17.239h-87.495v46.545h85.213c3.265,5.491,7.735,10.176,13.052,13.693v84.57h46.545v-84.57
	c5.315-3.517,9.787-8.202,13.05-13.693h85.211V232.727z"/>
<path style="fill:#CFDBE6;" d="M290.04,232.727c-7.689-10.452-20.07-17.239-34.04-17.239c-0.193,0-0.383,0.016-0.574,0.017v162.03
	h23.847v-84.57c5.315-3.517,9.787-8.202,13.05-13.693h85.213v-46.545H290.04z"/>
<path style="fill:#9BADBC;" d="M196.074,250.254h-5.418c-1.677,0-3.038-1.36-3.038-3.038v-5.418c0-1.677-1.36-3.038-3.038-3.038
	h-5.418c-1.677,0-3.038,1.36-3.038,3.038v5.418c0,1.677-1.36,3.038-3.038,3.038h-5.418c-1.677,0-3.038,1.36-3.038,3.038v5.418
	c0,1.677,1.36,3.038,3.038,3.038h5.418c1.677,0,3.038,1.36,3.038,3.038v5.418c0,1.677,1.36,3.038,3.038,3.038h5.418
	c1.677,0,3.038-1.36,3.038-3.038v-5.418c0-1.677,1.36-3.038,3.038-3.038h5.418c1.677,0,3.038-1.36,3.038-3.038v-5.418
	C199.111,251.613,197.751,250.254,196.074,250.254z"/>
<path style="fill:#324A5E;" d="M256,85.333c-94.256,0-170.667,76.41-170.667,170.667S161.744,426.667,256,426.667
	S426.667,350.256,426.667,256S350.256,85.333,256,85.333z M284.444,380.788v-11.011h-56.889v11.011
	c-47.844-10.862-85.482-48.5-96.344-96.344h11.011v-56.889h-11.011C144.151,170.56,195.089,128,256,128
	s111.849,42.56,124.788,99.556h-11.011v56.889h11.011C369.926,332.288,332.288,369.926,284.444,380.788z"/>
<path style="fill:#2B3B4E;" d="M256,85.333c-0.191,0-0.383,0.007-0.574,0.007v42.672c0.191,0,0.381-0.012,0.574-0.012
	c60.911,0,111.849,42.56,124.788,99.556h-11.011v56.889h11.011c-10.862,47.844-48.5,85.482-96.344,96.344v-11.011h-29.019v56.882
	c0.191,0,0.383,0.007,0.574,0.007c94.256,0,170.667-76.41,170.667-170.667S350.256,85.333,256,85.333z"/>
<circle style="fill:#CFDBE6;" cx="256" cy="257.724" r="28.444"/>
<path style="fill:#B8C9D9;" d="M256,229.279c-0.193,0-0.381,0.026-0.574,0.029v56.83c0.193,0.003,0.381,0.029,0.574,0.029
	c15.71,0,28.444-12.734,28.444-28.444S271.71,229.279,256,229.279z"/>
<circle style="fill:#4CDBC4;" cx="326.68" cy="243.933" r="6.896"/>
<circle style="fill:#B8C9D9;" cx="326.68" cy="268.067" r="6.896"/>
<circle style="fill:#FD8469;" cx="338.747" cy="256" r="6.896"/>
<circle style="fill:#FF80AA;" cx="314.613" cy="256" r="6.896"/>
<g>
</g>
<g>
</g>
<g>
</g>
<g>
</g>
<g>
</g>
<g>
</g>
<g>
</g>
<g>
</g>
<g>
</g>
<g>
</g>
<g>
</g>
<g>
</g>
<g>
</g>
<g>
</g>
<g>
</g>
</svg>
