<?xml version="1.0" encoding="iso-8859-1"?>
<!-- Generator: Adobe Illustrator 19.0.0, SVG Export Plug-In . SVG Version: 6.00 Build 0)  -->
<svg version="1.1" id="Layer_1" xmlns="http://www.w3.org/2000/svg" xmlns:xlink="http://www.w3.org/1999/xlink" x="0px" y="0px"
	 viewBox="0 0 512 512" style="enable-background:new 0 0 512 512;" xml:space="preserve">
<g>
	<circle style="fill:#FD8469;" cx="256" cy="256" r="256"/>
	<circle style="fill:#FD8469;" cx="256" cy="256" r="256"/>
</g>
<path style="fill:#FC6F58;" d="M511.774,266.359L392.239,146.823L197.387,307.717l-78.365,56.673L266.957,511.75
	C399.822,506.154,506.48,399.301,511.774,266.359z"/>
<path style="fill:#324A5E;" d="M380.264,369.778h-248.53c-9.916,0-17.956-8.04-17.956-17.958V160.178
	c0-9.916,8.04-17.956,17.956-17.956h248.53c9.918,0,17.958,8.04,17.958,17.956V351.82
	C398.222,361.737,390.182,369.778,380.264,369.778z"/>
<g>
	<path style="fill:#2B3B4E;" d="M380.264,142.222h-124.84v227.556h124.84c9.918,0,17.958-8.04,17.958-17.958V160.18
		C398.222,150.263,390.182,142.222,380.264,142.222z"/>
	<path style="fill:#2B3B4E;" d="M398.222,160.18c0-9.918-8.04-17.958-17.958-17.958h-60.159L256,199.004l-64.103-56.782h-60.161
		c-9.918,0-17.958,8.04-17.958,17.958v26.843l77.876,68.979l-77.876,68.98v26.839c0,9.918,8.04,17.958,17.958,17.958h60.166
		l64.1-56.779l64.1,56.779h60.164c9.918,0,17.958-8.04,17.958-17.958v-26.839l-77.874-68.979l77.872-68.979V160.18z"/>
</g>
<path style="fill:#223242;" d="M398.222,160.18c0-9.918-8.04-17.958-17.958-17.958h-60.159L256,199.004l-0.574-0.509V313.51
	l0.574-0.509l64.1,56.779h60.164c9.918,0,17.958-8.04,17.958-17.958v-26.839l-77.874-68.979l77.874-68.979V160.18z"/>
<circle style="fill:#90DFAA;" cx="256" cy="256" r="28.444"/>
<path style="fill:#7CCE93;" d="M256,227.556c-0.193,0-0.381,0.026-0.574,0.029v56.83c0.193,0.003,0.381,0.029,0.574,0.029
	c15.71,0,28.444-12.734,28.444-28.444S271.71,227.556,256,227.556z"/>
<g>
</g>
<g>
</g>
<g>
</g>
<g>
</g>
<g>
</g>
<g>
</g>
<g>
</g>
<g>
</g>
<g>
</g>
<g>
</g>
<g>
</g>
<g>
</g>
<g>
</g>
<g>
</g>
<g>
</g>
</svg>
