<?xml version="1.0" encoding="iso-8859-1"?>
<!-- Generator: Adobe Illustrator 19.0.0, SVG Export Plug-In . SVG Version: 6.00 Build 0)  -->
<svg version="1.1" id="Layer_1" xmlns="http://www.w3.org/2000/svg" xmlns:xlink="http://www.w3.org/1999/xlink" x="0px" y="0px"
	 viewBox="0 0 512 512" style="enable-background:new 0 0 512 512;" xml:space="preserve">
<circle style="fill:#FC6F58;" cx="256" cy="256" r="256"/>
<path style="fill:#F1543F;" d="M437.019,437.019c44.842-44.842,69.556-102.183,74.171-160.809L380.178,145.198l-9.949,71.552
	l-60.288-60.507l-144.267,75.729l-67.339,81.163l195.982,195.982C346.545,501.255,396.807,477.231,437.019,437.019z"/>
<rect x="163.909" y="310.527" style="fill:#E6F3FF;" width="80.91" height="37.595"/>
<g>
	<rect x="203.128" y="310.527" style="fill:#CFDBE6;" width="41.684" height="37.595"/>
	<path style="fill:#CFDBE6;" d="M304.552,315.838H104.184c-4.251,0-7.696-3.446-7.696-7.696V161.714
		c0-4.251,3.446-7.696,7.696-7.696h200.368c4.251,0,7.696,3.446,7.696,7.696v146.427
		C312.249,312.392,308.803,315.838,304.552,315.838z"/>
</g>
<path style="fill:#B8C9D9;" d="M304.552,154.017H203.135v161.82h101.417c4.251,0,7.696-3.446,7.696-7.695V161.714
	C312.249,157.463,308.803,154.017,304.552,154.017z"/>
<rect x="104.662" y="163.219" style="fill:#324A5E;" width="199.421" height="143.429"/>
<rect x="203.128" y="163.219" style="fill:#2B3B4E;" width="100.935" height="143.429"/>
<path style="fill:#CFDBE6;" d="M248.182,360.379h-87.626c-5.592,0-10.128-4.534-10.128-10.128v-6.715
	c0-5.592,4.534-10.128,10.128-10.128h87.626c5.592,0,10.128,4.534,10.128,10.128v6.715
	C258.308,355.845,253.774,360.379,248.182,360.379z"/>
<path style="fill:#B8C9D9;" d="M248.182,333.409h-45.047v26.97h45.047c5.592,0,10.128-4.534,10.128-10.128v-6.715
	C258.308,337.944,253.774,333.409,248.182,333.409z"/>
<path style="fill:#E6F3FF;" d="M374.069,369.778h-43.06c-4.294,0-7.777-3.482-7.777-7.777V149.999c0-4.294,3.482-7.777,7.777-7.777
	h43.06c4.294,0,7.777,3.482,7.777,7.777v212.002C381.845,366.295,378.363,369.778,374.069,369.778z"/>
<path style="fill:#CFDBE6;" d="M374.069,142.222h-22.678v227.556h22.678c4.294,0,7.777-3.482,7.777-7.777V149.999
	C381.845,145.704,378.363,142.222,374.069,142.222z"/>
<circle style="fill:#90DFAA;" cx="352.539" cy="319.991" r="21.333"/>
<path style="fill:#05BEA6;" d="M352.539,298.667c-0.388,0-0.765,0.038-1.148,0.059v42.551c0.383,0.021,0.76,0.059,1.148,0.059
	c11.781,0,21.333-9.55,21.333-21.333C373.872,308.219,364.32,298.667,352.539,298.667z"/>
<g>
</g>
<g>
</g>
<g>
</g>
<g>
</g>
<g>
</g>
<g>
</g>
<g>
</g>
<g>
</g>
<g>
</g>
<g>
</g>
<g>
</g>
<g>
</g>
<g>
</g>
<g>
</g>
<g>
</g>
</svg>
