<?xml version="1.0" encoding="iso-8859-1"?>
<!-- Generator: Adobe Illustrator 19.0.0, SVG Export Plug-In . SVG Version: 6.00 Build 0)  -->
<svg version="1.1" id="Layer_1" xmlns="http://www.w3.org/2000/svg" xmlns:xlink="http://www.w3.org/1999/xlink" x="0px" y="0px"
	 viewBox="0 0 512 512" style="enable-background:new 0 0 512 512;" xml:space="preserve">
<circle style="fill:#FFD15D;" cx="256" cy="256" r="256"/>
<path style="fill:#F9B54C;" d="M297.12,508.697c92.427-14.926,168.286-79.322,199.518-165.166l-217.724-218.19l-4.92,61.719
	l-86.447-6.266l51.281,51.795l-28.512,6.603l34.747,35.145l-34.747,10.107l50.033,50.138l-95.716,41.229L297.12,508.697z"/>
<rect x="227.556" y="256" style="fill:#FC6F58;" width="49.993" height="85.333"/>
<rect x="251.121" y="256" style="fill:#F1543F;" width="26.433" height="85.333"/>
<g>
	<rect x="210.316" y="210.747" style="fill:#FC6F58;" width="15.515" height="28.444"/>
	<rect x="210.316" y="256" style="fill:#FC6F58;" width="15.515" height="28.444"/>
</g>
<rect x="164.633" y="325.818" style="fill:#324A5E;" width="182.734" height="49.993"/>
<rect x="251.121" y="325.818" style="fill:#2B3B4E;" width="96.251" height="49.993"/>
<path style="fill:#435C6D;" d="M178.64,140.59v20.121c0,15.072,12.219,27.291,27.291,27.291l0,0c5.556,0,10.061,4.505,10.061,10.061
	v77.093c0,20.628,16.722,37.352,37.352,37.352l0,0c20.628,0,37.352-16.722,37.352-37.352V153.983
	c0-22.469-18.215-40.684-40.684-40.684h-44.08C190.857,113.299,178.64,125.518,178.64,140.59z"/>
<path style="fill:#324A5E;" d="M251.116,113.328v199.108c0.736,0.043,1.477,0.072,2.226,0.072l0,0
	c20.628,0,37.352-16.724,37.352-37.352V153.983C290.694,131.884,273.072,113.916,251.116,113.328z"/>
<g>
	<rect x="256" y="179.717" style="fill:#2B3B4E;" width="28.444" height="10.343"/>
	<rect x="256" y="201.697" style="fill:#2B3B4E;" width="28.444" height="10.343"/>
	<rect x="256" y="223.677" style="fill:#2B3B4E;" width="28.444" height="10.343"/>
	<rect x="256" y="245.657" style="fill:#2B3B4E;" width="28.444" height="10.343"/>
</g>
<g>
</g>
<g>
</g>
<g>
</g>
<g>
</g>
<g>
</g>
<g>
</g>
<g>
</g>
<g>
</g>
<g>
</g>
<g>
</g>
<g>
</g>
<g>
</g>
<g>
</g>
<g>
</g>
<g>
</g>
</svg>
