<?xml version="1.0" encoding="iso-8859-1"?>
<!-- Generator: Adobe Illustrator 19.0.0, SVG Export Plug-In . SVG Version: 6.00 Build 0)  -->
<svg version="1.1" id="Layer_1" xmlns="http://www.w3.org/2000/svg" xmlns:xlink="http://www.w3.org/1999/xlink" x="0px" y="0px"
	 viewBox="0 0 512 512" style="enable-background:new 0 0 512 512;" xml:space="preserve">
<circle style="fill:#B5F1F4;" cx="256" cy="256" r="256"/>
<path style="fill:#84DBFF;" d="M511.372,273.815l-86.923-86.923l-2.248,3.46l-15.82-15.819l-78.25,22.199l-68.329-68.329
	l-61.05,17.911l-47.14,12.279l68.72,68.722l-46.487,13.188L90.639,252.23l56.844,56.844l-52.093,52.307l150.399,150.399
	c3.387,0.133,6.787,0.221,10.207,0.221C391.394,512,502.222,406.887,511.372,273.815z"/>
<rect x="163.961" y="152.135" style="fill:#5F7889;" width="85.333" height="28.444"/>
<g>
	<path style="fill:#2B3B4E;" d="M219.37,283.152c-0.074,0-0.148-0.002-0.222-0.005c-25.474-1.3-32.421-21.959-32.535-32.704
		c-0.026-2.381,1.884-4.33,4.265-4.355c0.016,0,0.031,0,0.047,0c2.353,0,4.274,1.893,4.308,4.249
		c0.017,0.958,0.702,22.995,24.354,24.2c2.377,0.121,4.206,2.146,4.086,4.523C223.554,281.364,221.649,283.152,219.37,283.152z"/>
	<path style="fill:#2B3B4E;" d="M215.195,305.131h-72.973v-10.343h72.973c5.653,0,10.735-3.141,13.26-8.197l22.918-45.833
		l9.252,4.627l-22.918,45.833C233.417,299.799,224.79,305.131,215.195,305.131z"/>
	<path style="fill:#2B3B4E;" d="M421.998,229.279h-19.108c-2.579,0-4.668-2.089-4.668-4.668V190.85c0-2.579,2.089-4.668,4.668-4.668
		h19.108c2.579,0,4.668,2.089,4.668,4.668v33.761C426.667,227.19,424.577,229.279,421.998,229.279z"/>
</g>
<path style="fill:#1C2935;" d="M398.222,206.581v18.029c0,2.579,2.089,4.668,4.668,4.668h19.108c2.579,0,4.668-2.089,4.668-4.668
	v-18.029H398.222z"/>
<path style="fill:#2B3B4E;" d="M153.091,369.778h-40.393c-13.881,0-24.309-12.671-21.64-26.291l19.228-98.12
	c2.029-10.347,11.097-17.811,21.64-17.811h40.393c13.881,0,24.309,12.671,21.64,26.291l-19.228,98.12
	C172.703,362.313,163.635,369.778,153.091,369.778z"/>
<g>
	<path style="fill:#324A5E;" d="M354.566,327.632h-26c-8.935,0-15.648-8.156-13.929-16.924l12.378-63.159
		c1.305-6.659,7.142-11.464,13.929-11.464h26c8.935,0,15.648,8.156,13.929,16.924l-12.378,63.159
		C367.19,322.827,361.353,327.632,354.566,327.632z"/>
	<path style="fill:#324A5E;" d="M396.21,256H100.705c-8.489,0-15.372-6.882-15.372-15.372v-54.591c0-8.489,6.882-15.37,15.372-15.37
		h295.507c8.489,0,15.372,6.882,15.372,15.37v54.591C411.582,249.118,404.701,256,396.21,256z"/>
</g>
<path style="fill:#2B3B4E;" d="M85.333,206.581v34.047c0,8.488,6.882,15.372,15.372,15.372h295.507
	c8.489,0,15.372-6.882,15.372-15.372v-34.047L85.333,206.581L85.333,206.581z"/>
<path style="fill:#324A5E;" d="M256.662,161.185H156.579c-3.35,0-6.065-2.715-6.065-6.065v-21.535c0-3.35,2.715-6.065,6.065-6.065
	h100.085c3.35,0,6.065,2.715,6.065,6.065v21.535C262.727,158.47,260.012,161.185,256.662,161.185z"/>
<g>
</g>
<g>
</g>
<g>
</g>
<g>
</g>
<g>
</g>
<g>
</g>
<g>
</g>
<g>
</g>
<g>
</g>
<g>
</g>
<g>
</g>
<g>
</g>
<g>
</g>
<g>
</g>
<g>
</g>
</svg>
