<?xml version="1.0" encoding="iso-8859-1"?>
<!-- Generator: Adobe Illustrator 19.0.0, SVG Export Plug-In . SVG Version: 6.00 Build 0)  -->
<svg version="1.1" id="Layer_1" xmlns="http://www.w3.org/2000/svg" xmlns:xlink="http://www.w3.org/1999/xlink" x="0px" y="0px"
	 viewBox="0 0 512 512" style="enable-background:new 0 0 512 512;" xml:space="preserve">
<circle style="fill:#324A5E;" cx="256" cy="256" r="256"/>
<path style="fill:#2B3B4E;" d="M507.209,305.455L296.786,95.03l-48.954,237.168L214.74,444.966l65.853,65.853
	C393.93,500.014,485.702,415.323,507.209,305.455z"/>
<path style="fill:#E6F3FF;" d="M281.638,451.232h-51.276c-12.498,0-22.631-10.133-22.631-22.631V111.844
	c0-12.498,10.133-22.631,22.631-22.631h51.276c12.498,0,22.631,10.133,22.631,22.631v316.757
	C304.269,441.099,294.136,451.232,281.638,451.232z"/>
<path style="fill:#CFDBE6;" d="M281.638,89.212h-25.636v362.02h25.636c12.498,0,22.631-10.133,22.631-22.631V111.844
	C304.269,99.345,294.136,89.212,281.638,89.212z"/>
<path style="fill:#84DBFF;" d="M276.113,133.891L276.113,133.891c-5.554,0-10.056-4.503-10.056-10.056l0,0
	c0-5.554-4.503-10.056-10.056-10.056l0,0c-5.554,0-10.056,4.503-10.056,10.056l0,0c0,5.554-4.503,10.056-10.056,10.056l0,0
	c-5.554,0-10.056,4.503-10.056,10.056l0,0c0,5.554,4.503,10.056,10.056,10.056l0,0c5.554,0,10.056,4.503,10.056,10.056l0,0
	c0,5.554,4.503,10.056,10.056,10.056l0,0c5.554,0,10.056-4.503,10.056-10.056l0,0c0-5.554,4.503-10.056,10.056-10.056l0,0
	c5.554,0,10.056-4.503,10.056-10.056l0,0C286.168,138.392,281.665,133.891,276.113,133.891z"/>
<circle style="fill:#B8C9D9;" cx="256" cy="212.04" r="15.515"/>
<circle style="fill:#FC6F58;" cx="256" cy="297.374" r="9.481"/>
<circle style="fill:#9FAFBC;" cx="281.859" cy="297.374" r="9.481"/>
<circle style="fill:#B8C9D9;" cx="228.417" cy="297.374" r="9.481"/>
<g>
	<circle style="fill:#84DBFF;" cx="256" cy="341.333" r="11.205"/>
	<circle style="fill:#84DBFF;" cx="256" cy="369.778" r="11.205"/>
</g>
<path style="fill:#B8C9D9;" d="M289.616,426.667h-67.232c-2.857,0-5.172-2.315-5.172-5.172l0,0c0-2.857,2.315-5.172,5.172-5.172
	h67.232c2.857,0,5.172,2.315,5.172,5.172l0,0C294.788,424.351,292.473,426.667,289.616,426.667z"/>
<path style="fill:#31BAFD;" d="M276.113,133.891c-5.554,0-10.056-4.503-10.056-10.056c0-5.553-4.501-10.056-10.056-10.056v60.337
	c5.553,0,10.056-4.503,10.056-10.056l0,0c0-5.553,4.503-10.056,10.056-10.056c5.554,0,10.056-4.503,10.056-10.056
	S281.665,133.891,276.113,133.891z"/>
<path style="fill:#9FAFBC;" d="M271.515,212.04c0-8.568-6.946-15.515-15.513-15.515v31.03
	C264.57,227.556,271.515,220.608,271.515,212.04z"/>
<path style="fill:#F1543F;" d="M265.481,297.374c0-5.236-4.244-9.481-9.48-9.481v18.963
	C261.237,306.855,265.481,302.609,265.481,297.374z"/>
<g>
	<path style="fill:#31BAFD;" d="M267.205,341.333c0-6.189-5.017-11.205-11.204-11.205v22.411
		C262.189,352.539,267.205,347.522,267.205,341.333z"/>
	<path style="fill:#31BAFD;" d="M267.205,369.778c0-6.189-5.017-11.205-11.204-11.205v22.411
		C262.189,380.983,267.205,375.967,267.205,369.778z"/>
</g>
<path style="fill:#9FAFBC;" d="M289.616,416.323H256v10.343h33.616c2.857,0,5.172-2.315,5.172-5.172
	S292.473,416.323,289.616,416.323z"/>
<g>
</g>
<g>
</g>
<g>
</g>
<g>
</g>
<g>
</g>
<g>
</g>
<g>
</g>
<g>
</g>
<g>
</g>
<g>
</g>
<g>
</g>
<g>
</g>
<g>
</g>
<g>
</g>
<g>
</g>
</svg>
