<?xml version="1.0" encoding="iso-8859-1"?>
<!-- Generator: Adobe Illustrator 19.0.0, SVG Export Plug-In . SVG Version: 6.00 Build 0)  -->
<svg version="1.1" id="Layer_1" xmlns="http://www.w3.org/2000/svg" xmlns:xlink="http://www.w3.org/1999/xlink" x="0px" y="0px"
	 viewBox="0 0 512 512" style="enable-background:new 0 0 512 512;" xml:space="preserve">
<circle style="fill:#FFD15D;" cx="256" cy="256" r="256"/>
<path style="fill:#F9B54C;" d="M219.951,439.737l70.016,70.016c109.606-14.533,197.304-98.404,217.584-206.089L297.039,93.151
	L219.951,439.737z"/>
<rect x="227.556" y="150.618" style="fill:#486172;" width="56.889" height="60.337"/>
<g>
	<rect x="255.431" y="150.618" style="fill:#324A5E;" width="29.018" height="60.337"/>
	<path style="fill:#324A5E;" d="M256,455.111L256,455.111c-27.61,0-49.993-22.383-49.993-49.993V224.739
		c0-14.153,11.474-25.628,25.628-25.628h48.731c14.153,0,25.628,11.474,25.628,25.628v180.379
		C305.993,432.728,283.61,455.111,256,455.111z"/>
</g>
<path style="fill:#2B3B4E;" d="M280.366,199.111h-24.94v255.986c0.191,0.002,0.381,0.014,0.574,0.014
	c27.61,0,49.993-22.383,49.993-49.993V224.739C305.993,210.585,294.519,199.111,280.366,199.111z"/>
<path style="fill:#B8C9D9;" d="M275.882,292.547h-7.585c-2.348,0-4.253-1.903-4.253-4.253v-7.585c0-2.348-1.903-4.253-4.253-4.253
	h-7.585c-2.348,0-4.253,1.903-4.253,4.253v7.585c0,2.348-1.903,4.253-4.253,4.253h-7.585c-2.348,0-4.253,1.903-4.253,4.253v7.585
	c0,2.348,1.903,4.253,4.253,4.253h7.585c2.348,0,4.253,1.903,4.253,4.253v7.585c0,2.348,1.903,4.253,4.253,4.253h7.585
	c2.348,0,4.253-1.903,4.253-4.253v-7.585c0-2.348,1.903-4.253,4.253-4.253h7.585c2.348,0,4.253-1.903,4.253-4.253V296.8
	C280.135,294.45,278.231,292.547,275.882,292.547z"/>
<circle style="fill:#4CDBC4;" cx="256" cy="355.556" r="9.481"/>
<circle style="fill:#FD8469;" cx="256" cy="388.741" r="9.481"/>
<path style="fill:#9BADBC;" d="M275.882,292.547h-7.585c-2.348,0-4.251-1.903-4.251-4.253v-7.585c0-2.348-1.903-4.253-4.253-4.253
	h-4.367v48.269h4.367c2.348,0,4.253-1.903,4.253-4.251v-7.585c0-2.348,1.903-4.253,4.251-4.253h7.585
	c2.348,0,4.253-1.903,4.253-4.253v-7.585C280.135,294.45,278.231,292.547,275.882,292.547z"/>
<path style="fill:#2C9984;" d="M256,346.074c-0.193,0-0.383,0.017-0.574,0.029v18.904c0.191,0.012,0.381,0.029,0.574,0.029
	c5.237,0,9.481-4.244,9.481-9.481S261.237,346.074,256,346.074z"/>
<path style="fill:#FC6F58;" d="M256,379.259c-0.193,0-0.383,0.017-0.574,0.029v18.904c0.191,0.012,0.381,0.029,0.574,0.029
	c5.237,0,9.481-4.244,9.481-9.481S261.237,379.259,256,379.259z"/>
<circle style="fill:#31BAFD;" cx="256" cy="132.525" r="56.889"/>
<path style="fill:#2B9ED8;" d="M256,75.636c-0.193,0-0.383,0.012-0.574,0.014v113.748c0.191,0.002,0.381,0.014,0.574,0.014
	c31.418,0,56.889-25.471,56.889-56.889S287.418,75.636,256,75.636z"/>
<g>
</g>
<g>
</g>
<g>
</g>
<g>
</g>
<g>
</g>
<g>
</g>
<g>
</g>
<g>
</g>
<g>
</g>
<g>
</g>
<g>
</g>
<g>
</g>
<g>
</g>
<g>
</g>
<g>
</g>
</svg>
