<?xml version="1.0" encoding="iso-8859-1"?>
<!-- Generator: Adobe Illustrator 19.0.0, SVG Export Plug-In . SVG Version: 6.00 Build 0)  -->
<svg version="1.1" id="Layer_1" xmlns="http://www.w3.org/2000/svg" xmlns:xlink="http://www.w3.org/1999/xlink" x="0px" y="0px"
	 viewBox="0 0 512 512" style="enable-background:new 0 0 512 512;" xml:space="preserve">
<circle style="fill:#324A5E;" cx="256" cy="256" r="256"/>
<path style="fill:#2B3B4E;" d="M504.273,318.611L305.178,119.515l-53.2,150.707l-47.007,148.876l89.96,89.96
	C397.122,493.466,479.427,417.449,504.273,318.611z"/>
<path style="fill:#E6F3FF;" d="M290.047,426.667h-68.094c-12.616,0-22.842-10.226-22.842-22.842V136.62
	c0-12.616,10.226-22.842,22.842-22.842h68.094c12.616,0,22.842,10.226,22.842,22.842v267.205
	C312.889,416.44,302.663,426.667,290.047,426.667z"/>
<path style="fill:#CFDBE6;" d="M290.047,113.778h-34.621v312.889h34.621c12.616,0,22.842-10.226,22.842-22.842V136.62
	C312.889,124.004,302.663,113.778,290.047,113.778z"/>
<path style="fill:#84DBFF;" d="M281.786,174.833h-11.348c-2.42,0-4.382-1.962-4.382-4.382v-11.348c0-2.42-1.962-4.382-4.382-4.382
	h-11.348c-2.42,0-4.382,1.962-4.382,4.382v11.348c0,2.42-1.962,4.382-4.382,4.382h-11.348c-2.42,0-4.382,1.962-4.382,4.382v11.348
	c0,2.42,1.962,4.382,4.382,4.382h11.348c2.42,0,4.382,1.962,4.382,4.382v11.348c0,2.42,1.962,4.382,4.382,4.382h11.348
	c2.42,0,4.382-1.962,4.382-4.382v-11.348c0-2.42,1.962-4.382,4.382-4.382h11.348c2.42,0,4.382-1.962,4.382-4.382v-11.348
	C286.168,176.795,284.207,174.833,281.786,174.833z"/>
<path style="fill:#31BAFD;" d="M281.786,174.833h-11.348c-2.42,0-4.382-1.962-4.382-4.382v-11.348c0-2.42-1.962-4.382-4.382-4.382
	h-6.249v60.337h6.249c2.42,0,4.382-1.962,4.382-4.382v-11.348c0-2.42,1.962-4.382,4.382-4.382h11.348
	c2.42,0,4.382-1.962,4.382-4.382v-11.348C286.168,176.795,284.207,174.833,281.786,174.833z"/>
<circle style="fill:#B8C9D9;" cx="256" cy="256" r="18.963"/>
<path style="fill:#9FB3C4;" d="M256,237.037c-0.193,0-0.381,0.022-0.574,0.029v37.867c0.193,0.005,0.381,0.029,0.574,0.029
	c10.473,0,18.963-8.49,18.963-18.963C274.963,245.527,266.473,237.037,256,237.037z"/>
<g>
	<circle style="fill:#84DBFF;" cx="256" cy="341.333" r="11.205"/>
	<circle style="fill:#84DBFF;" cx="256" cy="369.778" r="11.205"/>
</g>
<g>
	<path style="fill:#31BAFD;" d="M256,330.128c-0.193,0-0.383,0.019-0.574,0.029v22.352c0.191,0.01,0.381,0.029,0.574,0.029
		c6.189,0,11.205-5.017,11.205-11.205S262.189,330.128,256,330.128z"/>
	<path style="fill:#31BAFD;" d="M256,358.572c-0.193,0-0.383,0.019-0.574,0.029v22.352c0.191,0.01,0.381,0.029,0.574,0.029
		c6.189,0,11.205-5.017,11.205-11.205S262.189,358.572,256,358.572z"/>
</g>
<g>
</g>
<g>
</g>
<g>
</g>
<g>
</g>
<g>
</g>
<g>
</g>
<g>
</g>
<g>
</g>
<g>
</g>
<g>
</g>
<g>
</g>
<g>
</g>
<g>
</g>
<g>
</g>
<g>
</g>
</svg>
