<?xml version="1.0" encoding="iso-8859-1"?>
<!-- Generator: Adobe Illustrator 19.0.0, SVG Export Plug-In . SVG Version: 6.00 Build 0)  -->
<svg version="1.1" id="Layer_1" xmlns="http://www.w3.org/2000/svg" xmlns:xlink="http://www.w3.org/1999/xlink" x="0px" y="0px"
	 viewBox="0 0 512 512" style="enable-background:new 0 0 512 512;" xml:space="preserve">
<circle style="fill:#324A5E;" cx="256" cy="256" r="256"/>
<path style="fill:#2B3B4E;" d="M509.119,294.493l-161.58-161.58l-73.704,196.661L256,407.531l88.683,88.683
	C430.761,464.424,495.064,387.696,509.119,294.493z"/>
<polygon style="fill:#2B9ED8;" points="408.566,224.453 103.434,224.453 164.461,132.913 347.539,132.913 "/>
<polygon style="fill:#1E90BC;" points="347.539,132.913 256,132.913 256,224.453 408.566,224.453 "/>
<polygon style="fill:#7BD4EF;" points="347.539,132.913 317.026,224.453 256,132.913 "/>
<polygon style="fill:#84DBFF;" points="256,132.913 194.974,224.453 164.461,132.913 "/>
<polygon style="fill:#31BAFD;" points="408.566,224.453 256,407.531 103.434,224.453 "/>
<polygon style="fill:#B5F1F4;" points="317.026,224.453 256,407.531 194.974,224.453 "/>
<polygon style="fill:#84DBFF;" points="256,224.453 256,407.53 317.026,224.453 "/>
<g>
</g>
<g>
</g>
<g>
</g>
<g>
</g>
<g>
</g>
<g>
</g>
<g>
</g>
<g>
</g>
<g>
</g>
<g>
</g>
<g>
</g>
<g>
</g>
<g>
</g>
<g>
</g>
<g>
</g>
</svg>
