<?xml version="1.0" encoding="iso-8859-1"?>
<!-- Generator: Adobe Illustrator 19.0.0, SVG Export Plug-In . SVG Version: 6.00 Build 0)  -->
<svg version="1.1" id="Layer_1" xmlns="http://www.w3.org/2000/svg" xmlns:xlink="http://www.w3.org/1999/xlink" x="0px" y="0px"
	 viewBox="0 0 512 512" style="enable-background:new 0 0 512 512;" xml:space="preserve">
<circle style="fill:#324A5E;" cx="256" cy="256" r="256"/>
<path style="fill:#2B3B4E;" d="M504.18,318.998L328.204,143.022L216.023,277.507L157.737,383.36L284.76,510.383
	C391.494,498.448,478.391,420.904,504.18,318.998z"/>
<path style="fill:#FF80AA;" d="M354.263,383.36L329.7,363.51l-24.562,19.851l-24.554-19.851l-24.56,19.851l-24.569-19.851
	l-24.56,19.851l-24.578-19.851l-24.579,19.851V209.663c0-54.269,43.994-98.263,98.263-98.263l0,0
	c54.269,0,98.263,43.994,98.263,98.263V383.36z"/>
<path style="fill:#FD5790;" d="M256.288,111.407v271.739l24.297-19.637l24.554,19.851L329.7,363.51l24.562,19.851V209.663
	C354.263,155.491,310.424,111.564,256.288,111.407z"/>
<path style="fill:#FFFFFF;" d="M217.864,243.35h-3.131c-10.099,0-18.285-8.187-18.285-18.285v-30.803
	c0-10.099,8.187-18.285,18.285-18.285h3.131c10.099,0,18.285,8.187,18.285,18.285v30.803
	C236.149,235.163,227.962,243.35,217.864,243.35z"/>
<circle style="fill:#31BAFD;" cx="222.918" cy="215.678" r="13.234"/>
<path style="fill:#E6F3FF;" d="M297.267,243.35h-3.131c-10.099,0-18.285-8.187-18.285-18.285v-30.803
	c0-10.099,8.187-18.285,18.285-18.285h3.131c10.099,0,18.285,8.187,18.285,18.285v30.803
	C315.552,235.163,307.367,243.35,297.267,243.35z"/>
<circle style="fill:#2B9ED8;" cx="302.321" cy="215.678" r="13.234"/>
<g>
</g>
<g>
</g>
<g>
</g>
<g>
</g>
<g>
</g>
<g>
</g>
<g>
</g>
<g>
</g>
<g>
</g>
<g>
</g>
<g>
</g>
<g>
</g>
<g>
</g>
<g>
</g>
<g>
</g>
</svg>
