<?xml version="1.0" encoding="iso-8859-1"?>
<!-- Generator: Adobe Illustrator 19.0.0, SVG Export Plug-In . SVG Version: 6.00 Build 0)  -->
<svg version="1.1" id="Layer_1" xmlns="http://www.w3.org/2000/svg" xmlns:xlink="http://www.w3.org/1999/xlink" x="0px" y="0px"
	 viewBox="0 0 512 512" style="enable-background:new 0 0 512 512;" xml:space="preserve">
<circle style="fill:#324A5E;" cx="256" cy="256" r="256"/>
<path style="fill:#2B3B4E;" d="M507.385,304.538L386.96,184.113L256.945,285.389L113.778,142.222L97.402,249.678L85.333,369.778
	L225.77,510.214C235.685,511.381,245.77,512,256,512C380.787,512,484.702,422.709,507.385,304.538z"/>
<path style="fill:#FFD15D;" d="M356.13,341.333H113.778V170.667H356.13c23.247,0,42.093,18.846,42.093,42.091v86.483
	C398.222,322.488,379.376,341.333,356.13,341.333z"/>
<g>
	<path style="fill:#F9B54C;" d="M113.778,256v85.333H356.13c23.247,0,42.093-18.846,42.093-42.093V256H113.778z"/>
	<path style="fill:#F9B54C;" d="M303.925,327.887H136.189V184.113h167.736c39.702,0,71.887,32.185,71.887,71.887l0,0
		C375.811,295.702,343.626,327.887,303.925,327.887z"/>
</g>
<path style="fill:#E59B39;" d="M136.189,327.887h167.736c39.702,0,71.887-32.185,71.887-71.887H136.189V327.887z"/>
<rect x="85.333" y="142.222" style="fill:#CFDBE6;" width="28.444" height="227.556"/>
<rect x="85.333" y="256" style="fill:#B8C9D9;" width="28.444" height="113.778"/>
<circle style="fill:#E6F3FF;" cx="299.098" cy="256" r="56.889"/>
<path style="fill:#CFDBE6;" d="M299.098,312.889c31.418,0,56.889-25.471,56.889-56.889H242.209
	C242.209,287.418,267.679,312.889,299.098,312.889z"/>
<path style="fill:#B8C9D9;" d="M355.88,259.37c0.066-1.115,0.109-2.238,0.109-3.37c0-2.081-0.119-4.134-0.336-6.156
	c-6.485-2.738-14.126-5.049-26.665-5.049c-3.801,0-7.144,0.217-10.149,0.59c-1.396-2.589-3.286-4.873-5.546-6.723
	c1.455-1.779,3.134-3.643,5.113-5.622c9.356-9.356,16.186-12.193,23.23-14.805c-0.743-0.836-1.507-1.658-2.308-2.46
	c-1.472-1.472-3.007-2.839-4.591-4.115c-6.522,2.65-13.559,6.418-22.425,15.284c-2.689,2.689-4.901,5.208-6.765,7.597
	c-2.043-0.612-4.203-0.952-6.446-0.952c-0.752,0-1.493,0.04-2.226,0.112c-0.229-2.288-0.36-4.789-0.36-7.589
	c0-13.233,2.824-20.066,5.956-26.895c-1.115-0.066-2.238-0.109-3.37-0.109c-2.081,0-4.134,0.119-6.156,0.336
	c-2.738,6.485-5.049,14.126-5.049,26.665c0,3.801,0.217,7.144,0.59,10.149c-2.589,1.396-4.873,3.286-6.725,5.546
	c-1.779-1.455-3.643-3.132-5.622-5.113c-9.356-9.356-12.193-16.186-14.805-23.23c-0.836,0.743-1.658,1.507-2.46,2.307
	c-1.472,1.472-2.839,3.007-4.115,4.591c2.65,6.522,6.418,13.559,15.284,22.426c2.689,2.689,5.208,4.901,7.597,6.763
	c-0.612,2.043-0.952,4.205-0.952,6.446c0,0.752,0.04,1.495,0.112,2.227c-2.284,0.229-4.786,0.359-7.58,0.359
	c-13.238,0-20.073-2.824-26.902-5.958c-0.065,1.117-0.109,2.239-0.109,3.372c0,2.081,0.119,4.132,0.336,6.154
	c6.487,2.738,14.129,5.051,26.674,5.051c3.798,0,7.137-0.217,10.142-0.588c1.396,2.589,3.286,4.872,5.544,6.723
	c-1.455,1.777-3.129,3.637-5.106,5.615c-9.361,9.359-16.191,12.197-23.237,14.81c0.743,0.836,1.507,1.66,2.308,2.46
	c1.47,1.472,3.007,2.838,4.591,4.113c6.523-2.651,13.562-6.42,22.431-15.289c2.688-2.688,4.896-5.203,6.758-7.59
	c2.043,0.612,4.205,0.952,6.447,0.952c0.752,0,1.495-0.04,2.227-0.112c0.228,2.284,0.359,4.786,0.359,7.58
	c0,13.238-2.824,20.073-5.958,26.902c1.117,0.065,2.239,0.109,3.372,0.109c2.081,0,4.132-0.119,6.154-0.336
	c2.738-6.487,5.051-14.129,5.051-26.674c0-3.798-0.217-7.137-0.588-10.142c2.589-1.396,4.872-3.286,6.723-5.546
	c1.777,1.455,3.637,3.131,5.615,5.108c9.361,9.361,12.197,16.193,14.81,23.237c0.836-0.743,1.66-1.507,2.46-2.308
	c1.47-1.47,2.838-3.007,4.113-4.591c-2.651-6.523-6.42-13.564-15.289-22.433c-2.688-2.688-5.203-4.898-7.592-6.759
	c0.612-2.043,0.952-4.205,0.952-6.446c0-0.752-0.04-1.493-0.112-2.227c2.288-0.229,4.789-0.359,7.589-0.359
	C342.216,253.414,349.051,256.238,355.88,259.37z"/>
<g>
	<path style="fill:#A5B7C6;" d="M355.88,259.37c0.066-1.115,0.109-2.238,0.109-3.37h-8.476
		C350.551,256.977,353.218,258.15,355.88,259.37z"/>
	<path style="fill:#A5B7C6;" d="M276.799,258.227c-2.284,0.229-4.786,0.359-7.58,0.359c-8.077,0-13.764-1.055-18.527-2.586h-8.483
		c0,2.081,0.119,4.132,0.336,6.154c6.487,2.738,14.129,5.051,26.674,5.051c3.798,0,7.137-0.217,10.142-0.588
		c1.396,2.589,3.286,4.872,5.544,6.723c-1.455,1.777-3.129,3.637-5.106,5.615c-9.361,9.359-16.191,12.197-23.237,14.81
		c0.743,0.836,1.507,1.66,2.308,2.46c1.47,1.472,3.006,2.838,4.591,4.113c6.523-2.651,13.562-6.42,22.431-15.289
		c2.688-2.688,4.896-5.203,6.758-7.59c2.043,0.612,4.205,0.952,6.447,0.952c0.752,0,1.495-0.04,2.227-0.112
		c0.228,2.284,0.359,4.786,0.359,7.58c0,13.238-2.824,20.073-5.958,26.902c1.117,0.065,2.239,0.109,3.372,0.109
		c2.081,0,4.132-0.119,6.154-0.336c2.738-6.487,5.051-14.129,5.051-26.674c0-3.798-0.217-7.137-0.588-10.142
		c2.589-1.396,4.872-3.286,6.723-5.546c1.777,1.455,3.637,3.131,5.615,5.108c9.361,9.361,12.197,16.193,14.81,23.237
		c0.836-0.743,1.66-1.507,2.46-2.308c1.47-1.47,2.838-3.007,4.113-4.591c-2.651-6.523-6.42-13.564-15.289-22.433
		c-2.688-2.688-5.203-4.898-7.592-6.759c0.612-2.043,0.952-4.205,0.952-6.446h-44.822
		C276.687,256.752,276.727,257.495,276.799,258.227z"/>
</g>
<rect x="131.448" y="170.667" style="fill:#FD8469;" width="28.444" height="170.667"/>
<rect x="131.448" y="256" style="fill:#FC6F58;" width="28.444" height="85.333"/>
<g>
</g>
<g>
</g>
<g>
</g>
<g>
</g>
<g>
</g>
<g>
</g>
<g>
</g>
<g>
</g>
<g>
</g>
<g>
</g>
<g>
</g>
<g>
</g>
<g>
</g>
<g>
</g>
<g>
</g>
</svg>
