<?xml version="1.0" encoding="iso-8859-1"?>
<!-- Generator: Adobe Illustrator 19.0.0, SVG Export Plug-In . SVG Version: 6.00 Build 0)  -->
<svg version="1.1" id="Layer_1" xmlns="http://www.w3.org/2000/svg" xmlns:xlink="http://www.w3.org/1999/xlink" x="0px" y="0px"
	 viewBox="0 0 512 512" style="enable-background:new 0 0 512 512;" xml:space="preserve">
<circle style="fill:#F4E3C3;" cx="256" cy="256" r="256"/>
<path style="fill:#FED8B2;" d="M506.003,311.251L335.812,141.06L223.839,283.601l-38.881,61.916l153.06,153.06
	C422.147,470.144,486.66,399.167,506.003,311.251z"/>
<path style="fill:#324A5E;" d="M285.972,390.465L285.972,390.465c-75.105,0-135.992-60.885-135.992-135.992v-37.352
	c0-52.789,42.796-95.585,95.585-95.585h45.84c33.287,0,60.271,26.984,60.271,60.271V324.76
	C351.677,361.048,322.26,390.465,285.972,390.465z"/>
<path style="fill:#2B3B4E;" d="M291.406,121.535h-32.532v266.221c8.757,1.77,17.818,2.708,27.098,2.708l0,0
	c36.288,0,65.705-29.417,65.705-65.705V181.807C351.677,148.52,324.692,121.535,291.406,121.535z"/>
<rect x="244.726" y="121.535" style="fill:#FD8469;" width="28.522" height="85.568"/>
<rect x="258.879" y="121.535" style="fill:#FC6F58;" width="14.365" height="85.568"/>
<path style="fill:#FD8469;" d="M175.447,245.134c0-12.564-10.185-22.75-22.75-22.75h-2.717v32.089
	c0,18.989,3.903,37.062,10.933,53.479h14.533v-62.817H175.447z"/>
<path style="fill:#324A5E;" d="M258.977,193.352L258.977,193.352c-4.501,0-8.149-3.648-8.149-8.149v-26.486
	c0-4.501,3.648-8.149,8.149-8.149l0,0c4.501,0,8.149,3.648,8.149,8.149v26.486C267.128,189.704,263.478,193.352,258.977,193.352z"/>
<path style="fill:#2B3B4E;" d="M258.977,150.568c-0.036,0-0.069,0.01-0.103,0.01v42.763c0.036,0,0.069,0.01,0.103,0.01
	c4.501,0,8.149-3.65,8.149-8.149v-26.486C267.128,154.215,263.478,150.568,258.977,150.568z"/>
<g>
</g>
<g>
</g>
<g>
</g>
<g>
</g>
<g>
</g>
<g>
</g>
<g>
</g>
<g>
</g>
<g>
</g>
<g>
</g>
<g>
</g>
<g>
</g>
<g>
</g>
<g>
</g>
<g>
</g>
</svg>
