<?xml version="1.0" encoding="iso-8859-1"?>
<!-- Generator: Adobe Illustrator 19.0.0, SVG Export Plug-In . SVG Version: 6.00 Build 0)  -->
<svg version="1.1" id="Layer_1" xmlns="http://www.w3.org/2000/svg" xmlns:xlink="http://www.w3.org/1999/xlink" x="0px" y="0px"
	 viewBox="0 0 512 512" style="enable-background:new 0 0 512 512;" xml:space="preserve">
<circle style="fill:#FD8469;" cx="256" cy="256" r="256"/>
<path style="fill:#FC6F58;" d="M277.144,511.112c58.301-4.803,115.271-29.489,159.875-74.093
	c45.784-45.784,70.584-104.595,74.435-164.5l-75.352-75.352l-3.636,3.906l-24.297-24.297l-200.923,83.327L76.14,300.308
	l37.914,37.66l-6.968,3.086L277.144,511.112z"/>
<path style="fill:#2B3B4E;" d="M215.821,327.628l-90.131,19.315c-11.104,2.379-21.859-4.818-21.859-14.629v-19.313
	c0-8.328,7.877-15.079,17.592-15.079h90.131c9.716,0,17.592,6.751,17.592,15.079l0,0
	C229.147,319.919,223.653,325.951,215.821,327.628z"/>
<g>
	<path style="fill:#202E3D;" d="M296.179,327.628l90.131,19.313c11.104,2.379,21.859-4.818,21.859-14.629v-19.313
		c0-8.328-7.877-15.079-17.592-15.079h-90.131c-9.716,0-17.592,6.751-17.592,15.079l0,0
		C282.853,319.919,288.347,325.951,296.179,327.628z"/>
	<path style="fill:#202E3D;" d="M417.868,302.316h13.155c3.782,0,6.849-3.067,6.849-6.849v-93.715c0-3.782-3.067-6.849-6.849-6.849
		h-13.155c-3.782,0-6.849,3.067-6.849,6.849v93.715C411.019,299.249,414.086,302.316,417.868,302.316z"/>
</g>
<path style="fill:#2B3B4E;" d="M80.977,302.316h13.155c3.782,0,6.849-3.067,6.849-6.849v-93.715c0-3.782-3.067-6.849-6.849-6.849
	H80.977c-3.782,0-6.849,3.067-6.849,6.849v93.715C74.128,299.249,77.195,302.316,80.977,302.316z"/>
<path style="fill:#324A5E;" d="M386.946,329.169H125.054c-16.665,0-30.177-13.51-30.177-30.177V198.223
	c0-16.665,13.51-30.177,30.177-30.177h261.891c16.665,0,30.177,13.51,30.177,30.177v100.769
	C417.121,315.659,403.611,329.169,386.946,329.169z"/>
<g>
	<path style="fill:#2B3B4E;" d="M386.946,168.048H257.15v161.121h129.796c16.665,0,30.177-13.51,30.177-30.177V198.223
		C417.121,181.558,403.611,168.048,386.946,168.048z"/>
	<path style="fill:#2B3B4E;" d="M378.192,316.964H133.808c-14.758,0-26.722-11.964-26.722-26.722v-83.265
		c0-14.758,11.964-26.722,26.722-26.722h244.386c14.758,0,26.722,11.964,26.722,26.722v83.265
		C404.916,304.999,392.951,316.964,378.192,316.964z"/>
</g>
<path style="fill:#202E3D;" d="M378.192,180.255H257.15v136.709h121.042c14.758,0,26.722-11.964,26.722-26.722v-83.265
	C404.916,192.219,392.951,180.255,378.192,180.255z"/>
<g>
	<path style="fill:#B5F1F4;" d="M145.67,268.067c-1.103,0-2.205-0.421-3.048-1.262c-1.684-1.684-1.684-4.411,0-6.094l49.993-49.993
		c1.684-1.684,4.411-1.684,6.094,0s1.684,4.411,0,6.094l-49.993,49.993C147.875,267.647,146.773,268.067,145.67,268.067z"/>
	<path style="fill:#B5F1F4;" d="M145.67,237.468c-1.103,0-2.205-0.421-3.048-1.262c-1.684-1.684-1.684-4.411,0-6.094l19.394-19.394
		c1.684-1.684,4.411-1.684,6.094,0s1.684,4.411,0,6.094l-19.394,19.394C147.875,237.047,146.773,237.468,145.67,237.468z"/>
</g>
<g>
</g>
<g>
</g>
<g>
</g>
<g>
</g>
<g>
</g>
<g>
</g>
<g>
</g>
<g>
</g>
<g>
</g>
<g>
</g>
<g>
</g>
<g>
</g>
<g>
</g>
<g>
</g>
<g>
</g>
</svg>
