<?xml version="1.0" encoding="iso-8859-1"?>
<!-- Generator: Adobe Illustrator 19.0.0, SVG Export Plug-In . SVG Version: 6.00 Build 0)  -->
<svg version="1.1" id="Layer_1" xmlns="http://www.w3.org/2000/svg" xmlns:xlink="http://www.w3.org/1999/xlink" x="0px" y="0px"
	 viewBox="0 0 512 512" style="enable-background:new 0 0 512 512;" xml:space="preserve">
<circle style="fill:#31BAFD;" cx="256" cy="256" r="256"/>
<path style="fill:#2B9ED8;" d="M273.917,511.366c123.061-8.509,222.17-103.981,236.328-225.402l-97.794-97.794l-3.572,2.215
	l-14.596-14.596l-193.519,51.767l-81.679,24.674l59.918,59.918l-55.493,48.814L273.917,511.366z"/>
<g>
	<path style="fill:#2B3B4E;" d="M247.813,283.152c-0.074,0-0.148-0.002-0.222-0.005c-25.472-1.3-32.421-21.959-32.535-32.704
		c-0.026-2.379,1.884-4.33,4.265-4.355c0.016,0,0.031,0,0.047,0c2.353,0,4.275,1.893,4.308,4.253
		c0.019,1,0.729,22.993,24.354,24.197c2.377,0.121,4.206,2.146,4.086,4.523C251.997,281.364,250.094,283.152,247.813,283.152z"/>
	<path style="fill:#2B3B4E;" d="M243.641,305.131h-72.975v-10.343h72.975c5.653,0,10.735-3.141,13.26-8.197l22.916-45.833
		l9.252,4.627l-22.916,45.833C261.863,299.799,253.237,305.131,243.641,305.131z"/>
	<path style="fill:#2B3B4E;" d="M408.638,229.279H389.53c-2.579,0-4.668-2.089-4.668-4.668V190.85c0-2.579,2.089-4.668,4.668-4.668
		h19.108c2.579,0,4.668,2.089,4.668,4.668v33.761C413.306,227.19,411.217,229.279,408.638,229.279z"/>
</g>
<path style="fill:#1A2735;" d="M384.862,207.731v16.88c0,2.579,2.089,4.668,4.668,4.668h19.108c2.579,0,4.668-2.091,4.668-4.668
	v-16.88H384.862z"/>
<path style="fill:#2B3B4E;" d="M181.536,369.778h-40.393c-13.881,0-24.309-12.671-21.64-26.291l19.228-98.12
	c2.029-10.347,11.097-17.811,21.64-17.811h40.393c13.881,0,24.309,12.671,21.64,26.291l-19.228,98.12
	C201.147,362.313,192.079,369.778,181.536,369.778z"/>
<path style="fill:#324A5E;" d="M382.85,256H129.148c-8.489,0-15.37-6.882-15.37-15.372v-54.591c0-8.489,6.882-15.37,15.37-15.37
	H382.85c8.488,0,15.372,6.882,15.372,15.37v54.591C398.222,249.118,391.34,256,382.85,256z"/>
<path style="fill:#213644;" d="M113.778,207.731v32.897c0,8.488,6.882,15.372,15.372,15.372h253.702
	c8.488,0,15.372-6.882,15.372-15.372v-32.897H113.778z"/>
<path style="fill:#FD8469;" d="M215.633,199.111h109.18c9.125,0,16.52-7.397,16.52-16.522v-11.923H199.111v11.923
	C199.111,191.714,206.508,199.111,215.633,199.111z"/>
<g>
</g>
<g>
</g>
<g>
</g>
<g>
</g>
<g>
</g>
<g>
</g>
<g>
</g>
<g>
</g>
<g>
</g>
<g>
</g>
<g>
</g>
<g>
</g>
<g>
</g>
<g>
</g>
<g>
</g>
</svg>
