<svg id="Capa_1" enable-background="new 0 0 512.048 512.048" height="512" viewBox="0 0 512.048 512.048" width="512" xmlns="http://www.w3.org/2000/svg"><path d="m432.272 211.603h-90.263l-15.025 73.355c-9.219 45.007-6.936 91.612 6.638 135.502 4.987 16.125 19.896 27.12 36.775 27.12h33.488c16.878 0 31.788-10.995 36.775-27.12 13.574-43.89 15.857-90.495 6.638-135.502z" fill="#a3defe"/><path d="m342.009 211.604-15.025 73.355c-9.219 45.007-6.936 91.612 6.638 135.502 4.987 16.125 19.896 27.12 36.775 27.12h33.488c4.522 0 8.9-.796 12.986-2.262-36.691-20.876-46.26-87.593-44.729-149.197.084-3.363 2.921-6.026 6.279-5.814 2.884.182 5.791.276 8.72.276 20.948 0 40.82-4.681 58.638-13.039l-13.507-65.941z" fill="#7acefa"/><path d="m504.535 152.023c0-64.835-40.127-144.523-117.395-144.523-77.267 0-117.395 79.688-117.395 144.523s52.559 117.395 117.395 117.395 117.395-52.56 117.395-117.395z" fill="#f7ef87"/><path d="m334.044 22.26c-42.463 26.046-64.298 81.941-64.298 129.763 0 64.835 52.559 117.395 117.395 117.395 6.261 0 12.405-.495 18.401-1.439-62.499-36.84-93.689-158.504-71.498-245.719z" fill="#efd176"/><path d="m442.941 220.395c-4.655-1.137-8.819-3.745-11.874-7.437l-26.771-32.359c-8.905-10.764-25.407-10.764-34.312 0l-26.771 32.359c-3.055 3.692-7.219 6.3-11.874 7.437l-33.25 8.12c21.529 25.041 53.436 40.903 89.05 40.903s67.521-15.862 89.05-40.903z" fill="#8eafe2"/><path d="m387.14 269.418c6.259 0 12.4-.5 18.393-1.443-22.092-13.025-40.27-36.647-53.563-65.602l-8.758 10.586c-3.055 3.692-7.219 6.3-11.874 7.437l-33.25 8.119c21.531 25.041 53.438 40.903 89.052 40.903z" fill="#6a96d7"/><path d="m404.296 58.326 26.771-32.359c1.804-2.181 4.002-3.971 6.453-5.316-14.502-8.289-31.307-13.151-50.38-13.151s-35.878 4.862-50.38 13.151c2.451 1.345 4.649 3.135 6.453 5.316l26.771 32.359c8.905 10.764 25.407 10.764 34.312 0z" fill="#e8899e"/><path d="m341.055 147.169c-.037 11.852-12.132 21.422-27.015 21.376-14.883-.047-26.918-9.692-26.881-21.544s12.132-21.422 27.015-21.376 26.918 9.691 26.881 21.544z" fill="#eda1ab"/><path d="m433.226 147.457c-.037 11.852 11.998 21.498 26.881 21.544 14.883.047 26.978-9.523 27.015-21.376.037-11.852-11.998-21.498-26.881-21.545-14.883-.045-26.978 9.525-27.015 21.377z" fill="#eda1ab"/><path d="m408.919 130.892c.042-13.427-9.681-14.719-21.681-14.757-11.999-.038-21.731 1.193-21.773 14.621-.042 13.427 9.651 24.342 21.651 24.38 11.999.038 21.761-10.816 21.803-24.244z" fill="#4e5660"/><path d="m213.84 282.611-63.825 63.825 41.245 62.494c25.306 38.343 59.875 69.684 100.508 91.121 14.928 7.876 33.246 5.108 45.18-6.827l23.68-23.68c11.935-11.935 14.702-30.252 6.827-45.18-21.437-40.633-52.777-75.202-91.121-100.508z" fill="#a3defe"/><path d="m246.644 360.618c10.314-12.473 18.106-26.343 23.378-40.928l-56.182-37.079-63.825 63.826 41.245 62.494c20.986 31.798 48.357 58.758 80.26 79.269-18.465-27.846-28.553-73.552-28.605-117.337-.005-3.748 1.34-7.357 3.729-10.245z" fill="#7acefa"/><path d="m222.808 189.383c-45.845-45.845-130.568-73.819-185.204-19.183s-26.662 139.359 19.183 185.204c45.846 45.845 120.176 45.845 166.021 0 45.846-45.845 45.846-120.175 0-166.021z" fill="#f7ef87"/><path d="m104.651 140.32c-24.094 1.362-47.497 10.331-67.046 29.881-54.636 54.636-26.663 139.359 19.183 185.204 30.835 30.835 74.556 40.929 113.829 30.286-53.013-37.398-83.429-148.702-65.966-245.371z" fill="#efd176"/><path d="m227.601 281.283c-4.095 2.488-8.884 3.588-13.655 3.137l-41.811-3.951c-13.908-1.314-25.576 10.354-24.262 24.262l3.951 41.811c.451 4.771-.649 9.559-3.137 13.655l-17.77 29.252c32.93 2.483 66.708-8.862 91.891-34.045s36.529-58.961 34.045-91.891z" fill="#8eafe2"/><path d="m147.186 362.668-16.269 26.782c13.301 1.003 26.739-.253 39.695-3.763-8.41-5.933-16.254-13.718-23.426-23.019z" fill="#6a96d7"/><path d="m85.675 194.009-3.951-41.811c-.266-2.818.022-5.638.804-8.322-16.116 4.393-31.437 12.838-44.923 26.325-13.486 13.486-21.931 28.808-26.325 44.923 2.684-.782 5.504-1.071 8.322-.804l41.811 3.951c13.908 1.314 25.576-10.354 24.262-24.262z" fill="#e8899e"/><ellipse cx="77.514" cy="308.839" fill="#eda1ab" rx="25.759" ry="20.513" transform="matrix(.707 -.707 .707 .707 -195.68 145.268)"/><ellipse cx="176.243" cy="210.11" fill="#eda1ab" rx="25.759" ry="20.513" transform="matrix(.707 -.707 .707 .707 -96.95 186.162)"/><path d="m488.966 63.835c-2.04-3.604-6.616-4.873-10.222-2.832-3.605 2.041-4.873 6.617-2.832 10.221 13.424 23.715 21.123 53.165 21.123 80.799 0 25.688-8.863 49.344-23.687 68.077l-28.628-6.991c-3.066-.749-5.862-2.5-7.874-4.932l-26.771-32.359c-5.674-6.858-14.033-10.792-22.935-10.792-8.901 0-17.26 3.933-22.935 10.792l-26.771 32.359c-2.012 2.432-4.808 4.183-7.875 4.932l-28.628 6.991c-14.824-18.733-23.687-42.388-23.687-68.077 0-32.497 10.602-66.988 28.359-92.264 7.201-10.25 17.289-21.486 30.784-30.138.367.358.719.73 1.046 1.125l26.771 32.359c5.674 6.859 14.033 10.793 22.935 10.793 8.901 0 17.261-3.934 22.935-10.793l26.772-32.359c.325-.393.674-.763 1.037-1.118 5.79 3.718 11.312 8.115 16.533 13.237 2.957 2.901 7.706 2.856 10.606-.101 2.901-2.956 2.855-7.705-.101-10.606-7.145-7.01-14.898-12.912-23.146-17.675-.337-.233-.691-.436-1.059-.609-16.236-9.135-34.363-13.874-53.576-13.874-47.84 0-77.419 27.809-93.809 51.137-19.755 28.119-31.086 64.891-31.086 100.887 0 30.708 11.147 58.858 29.599 80.632.352.53.761 1.013 1.226 1.431 8.951 10.248 19.546 19.024 31.369 25.915l-4.803 23.452c-4.055 19.799-5.949 39.945-5.674 60.115-10.477-9.472-21.671-18.168-33.496-25.973l-19.913-13.142c2.725-10.335 4.14-21.088 4.14-32.06 0-33.361-12.991-64.725-36.581-88.314-25.453-25.453-59.466-43.443-93.318-49.357-28.085-4.905-68.664-3.654-102.492 30.174-33.829 33.829-35.081 74.408-30.175 102.493 5.914 33.852 23.904 67.865 49.357 93.318 4.045 4.045 8.391 7.838 12.915 11.272 3.3 2.503 8.003 1.859 10.508-1.44 2.504-3.299 1.859-8.004-1.44-10.508-3.984-3.023-7.812-6.364-11.377-9.93-22.979-22.979-39.871-54.864-45.187-85.293-2.156-12.34-2.968-27.419.458-43.08.512-.006 1.024.008 1.534.058l41.812 3.951c.946.089 1.889.133 2.829.133 7.861 0 15.397-3.097 21.019-8.72 6.294-6.294 9.424-14.986 8.586-23.848l-3.951-41.813c-.048-.511-.063-1.022-.057-1.534 15.66-3.425 30.738-2.613 43.078-.457 30.429 5.316 62.314 22.208 85.292 45.187 17.696 17.696 28.607 40.365 31.442 64.854l-25.24 15.332c-2.696 1.639-5.909 2.379-9.055 2.081l-41.811-3.952c-8.861-.837-17.554 2.292-23.848 8.586s-9.424 14.986-8.587 23.849l3.952 41.811c.297 3.142-.442 6.358-2.081 9.055l-15.326 25.229c-8.114-.951-16.132-2.791-23.905-5.542-3.904-1.382-8.19.663-9.573 4.568-1.382 3.905.663 8.19 4.568 9.573 13.466 4.766 27.57 7.167 41.729 7.167 8.892 0 17.807-.948 26.592-2.852 1.839-.398 3.66-.852 5.472-1.332l13.168 19.949c25.928 39.286 61.638 71.66 103.269 93.623 6.836 3.607 14.214 5.363 21.526 5.363 11.879 0 23.577-4.64 32.457-13.52l23.68-23.68c5.669-5.669 9.602-12.488 11.711-19.767h26.242c20.288 0 37.945-13.022 43.939-32.404 13.907-44.969 16.266-93.111 6.821-139.223l-4.804-23.452c11.888-6.93 22.535-15.763 31.518-26.083.413-.394.797-.82 1.113-1.306 18.43-21.768 29.562-49.9 29.562-80.589.001-30.145-8.407-62.288-23.068-88.189zm-101.826-48.835c13.246 0 25.651 2.49 37.145 7.399l-25.768 31.146c-2.815 3.402-6.961 5.354-11.377 5.354s-8.562-1.952-11.377-5.354l-25.763-31.141c10.668-4.558 22.992-7.404 37.14-7.404zm-313.191 191.545c-3.122 3.123-7.433 4.674-11.831 4.259l-40.238-3.803c4.321-10.767 11.022-21.493 21.027-31.498s20.731-16.707 31.498-21.028l3.802 40.238c.417 4.397-1.136 8.709-4.258 11.832zm89.236 173.241c-6.314 1.369-12.703 2.174-19.095 2.425l11.006-18.119c3.303-5.437 4.792-11.92 4.194-18.254l-3.952-41.812c-.415-4.396 1.137-8.708 4.26-11.831 3.122-3.122 7.429-4.678 11.83-4.259l41.812 3.952c6.336.596 12.817-.891 18.254-4.194l18.107-11c-.369 9.647-1.972 19.075-4.743 28.1-.158.381-.277.77-.368 1.163-5.26 16.472-14.407 31.565-26.986 44.144-14.959 14.96-33.743 25.226-54.319 29.685zm201.007 66.27c-.072.35-.112.711-.133 1.076-.99 6.312-3.943 12.319-8.733 17.109l-23.68 23.68c-9.667 9.667-24.287 11.875-36.377 5.497-39.405-20.789-73.206-51.433-97.748-88.619l-10.947-16.587c15.462-6.241 29.58-15.546 41.539-27.505 12.062-12.061 21.344-26.158 27.544-41.513l16.547 10.921c37.185 24.542 67.829 58.343 88.619 97.749 3.038 5.761 4.106 12.093 3.369 18.192zm69.302-27.811c-4.04 13.061-15.939 21.836-29.609 21.836h-24.494c-.332-6.548-2.075-13.1-5.302-19.216-11.932-22.617-26.942-43.48-44.458-61.983-1.751-24.252-.178-48.601 4.701-72.419l3.991-19.486c15.004 6.396 31.505 9.94 48.818 9.94s33.814-3.544 48.818-9.94l3.991 19.486c8.94 43.648 6.707 89.217-6.456 131.782zm-46.354-156.327c-28.743 0-54.939-11.097-74.542-29.225l20.521-5.011c6.181-1.51 11.818-5.041 15.873-9.942l26.771-32.359c2.815-3.402 6.961-5.353 11.377-5.353s8.563 1.951 11.377 5.353l26.771 32.359c4.055 4.902 9.692 8.434 15.874 9.943l20.521 5.011c-19.604 18.126-45.8 29.224-74.543 29.224zm-317.808 2.412c-5.507 0-10.685 2.145-14.579 6.039-8.039 8.038-8.039 21.119 0 29.158 1.464 1.464 3.384 2.197 5.303 2.197s3.839-.732 5.303-2.197c2.929-2.929 2.929-7.678 0-10.607-2.19-2.19-2.19-5.754 0-7.945 1.061-1.061 2.472-1.646 3.973-1.646s2.912.585 3.973 1.646c2.929 2.929 7.678 2.929 10.606 0 2.929-2.929 2.929-7.678 0-10.606-3.894-3.895-9.071-6.039-14.579-6.039zm260.552-160.876c-11.178 0-20.29 9.077-20.326 20.263-.013 4.142 3.334 7.511 7.476 7.524h.024c4.131-.001 7.486-3.342 7.5-7.476.009-2.937 2.401-5.313 5.343-5.311 1.423.004 2.759.563 3.762 1.572s1.553 2.349 1.548 3.771c-.013 4.142 3.334 7.511 7.476 7.524h.024c4.131 0 7.486-3.342 7.5-7.476.017-5.43-2.081-10.541-5.908-14.392s-8.925-5.982-14.355-5.999zm38.613 8.243c-4.785 2.407-10.496 7.664-10.532 19.036-.055 17.541 13.012 31.853 29.127 31.903h.087c7.935 0 15.353-3.392 20.898-9.558 5.352-5.952 8.315-13.823 8.341-22.163.069-22.189-20.412-22.253-29.157-22.281-7.575-.011-13.65.489-18.764 3.063zm32.922 19.172c-.015 4.648-1.61 8.973-4.494 12.179-2.662 2.96-6.121 4.588-9.747 4.588h-.038c-7.845-.024-14.203-7.586-14.174-16.856.014-4.547 1.429-5.259 2.273-5.684 2.514-1.265 7.167-1.462 11.493-1.462.162 0 .323.001.483.001 14.226.045 14.219 2.447 14.204 7.234zm-249.171 65.546c1.501 0 2.911.584 3.972 1.645 2.929 2.929 7.678 2.929 10.606 0 2.929-2.929 2.929-7.678 0-10.607-3.894-3.894-9.072-6.038-14.579-6.038s-10.685 2.145-14.579 6.038c-3.895 3.894-6.039 9.072-6.039 14.579s2.145 10.685 6.039 14.579c1.464 1.464 3.384 2.197 5.303 2.197s3.839-.732 5.303-2.197c2.929-2.929 2.929-7.678 0-10.606-1.061-1.061-1.645-2.472-1.645-3.973s.585-2.911 1.646-3.972 2.472-1.645 3.973-1.645zm-37.583 31.963c-4.819 0-9.349 1.876-12.756 5.284-2.929 2.929-2.928 7.678 0 10.607 2.93 2.929 7.678 2.928 10.607 0 .774-.775 1.679-.89 2.149-.89s1.374.115 2.149.891c.775.775.89 1.679.89 2.149s-.115 1.374-.89 2.149c-2.929 2.929-2.929 7.678 0 10.606.366.366.761.687 1.176.961 1.248.824 2.687 1.236 4.127 1.236s2.879-.412 4.127-1.236c.416-.274.81-.595 1.176-.961.775-.775 1.679-.89 2.149-.89s1.375.115 2.149.89c1.185 1.185 1.185 3.114 0 4.299-2.929 2.929-2.929 7.678 0 10.606 1.464 1.464 3.384 2.197 5.303 2.197s3.839-.732 5.303-2.197c7.034-7.034 7.034-18.478.001-25.512-2.716-2.716-6.15-4.439-9.871-5.035-.596-3.721-2.319-7.155-5.034-9.87-3.406-3.407-7.936-5.284-12.755-5.284zm329.941-124.565c-11.164-.022-20.355 9.055-20.391 20.263-.013 4.142 3.334 7.511 7.476 7.524h.024c4.131 0 7.486-3.342 7.5-7.476.009-2.932 2.397-5.311 5.327-5.311h.017c1.423.004 2.759.563 3.762 1.572 1.002 1.009 1.552 2.349 1.548 3.771-.013 4.142 3.334 7.511 7.476 7.524h.024c4.131-.001 7.486-3.342 7.499-7.476.017-5.43-2.081-10.541-5.908-14.392s-8.925-5.981-14.354-5.999z"/></svg>