<svg id="Capa_1" enable-background="new 0 0 512 512" height="512" viewBox="0 0 512 512" width="512" xmlns="http://www.w3.org/2000/svg"><path d="m353.793 504.5h-195.607c-27.408 0-48.452-24.293-44.542-51.421l14.84-102.977c2.913-20.215 4.375-40.612 4.375-61.036v-229.061c0-28.998 23.507-52.505 52.505-52.505h141.253c28.998 0 52.505 23.507 52.505 52.505v229.061c0 20.424 1.462 40.821 4.375 61.036l14.84 102.977c3.908 27.128-17.135 51.421-44.544 51.421z" fill="#c6c6c6"/><path d="m203.998 7.5h-18.635c-28.998 0-52.505 23.507-52.505 52.505v229.061c0 20.424-1.462 40.821-4.375 61.036l-14.84 102.977c-3.909 27.128 17.134 51.421 44.542 51.421h109.227c-67.067-92.753-83.958-371.813-63.414-497z" fill="#9aa3b1"/><path d="m128.483 350.101-14.84 102.977c-3.909 27.128 17.134 51.421 44.542 51.421h195.607c27.408 0 48.452-24.293 44.542-51.421l-14.84-102.977c-2.504-17.377-3.929-34.889-4.281-52.437h-246.45c-.351 17.548-1.776 35.06-4.28 52.437z" fill="#4e5660"/><path d="m132.765 297.665c-.353 17.547-1.777 35.06-4.281 52.437l-14.84 102.977c-3.909 27.128 17.134 51.421 44.542 51.421h109.227c-30.115-41.648-50.114-120.854-61.149-206.835z" fill="#383c43"/><path d="m311.867 391.384c-4.143 0-7.5-3.358-7.5-7.5 0-26.676-21.702-48.378-48.378-48.378-26.675 0-48.377 21.702-48.377 48.378 0 4.142-3.357 7.5-7.5 7.5s-7.5-3.358-7.5-7.5c0-34.947 28.431-63.378 63.377-63.378s63.378 28.431 63.378 63.378c0 4.142-3.357 7.5-7.5 7.5z" fill="#fff"/><ellipse cx="255.99" cy="383.884" fill="#c6c6c6" rx="29.616" ry="29.616" transform="matrix(.973 -.23 .23 .973 -81.35 69.084)"/><path d="m279.199 471.277 15.064-15.064c5.438-5.438 1.586-14.735-6.103-14.735h-49.275c-2.289 0-4.485.909-6.103 2.528l-15.064 15.064c-5.438 5.438-1.586 14.735 6.103 14.735h49.275c2.288 0 4.484-.909 6.103-2.528z" fill="#f7ef87"/><path d="m237.144 441.658c-1.641.338-3.161 1.146-4.364 2.349l-15.064 15.063c-5.437 5.438-1.586 14.735 6.103 14.735h26.069c-4.548-9.815-8.795-20.583-12.744-32.147z" fill="#efd176"/><path d="m208.113 166.638c.006 12.313-12.523 22.3-27.984 22.308-15.462.008-28.001-9.967-28.007-22.28s12.523-22.301 27.984-22.309c15.461-.007 28.001 9.969 28.007 22.281z" fill="#fff"/><path d="m303.867 166.59c.006 12.313 12.545 22.288 28.007 22.28s27.991-9.995 27.984-22.308c-.006-12.313-12.545-22.288-28.007-22.28s-27.991 9.995-27.984 22.308z" fill="#fff"/><path d="m283.427 156.522c-.008-16.96-12.295-18.547-27.451-18.539s-27.441 1.607-27.433 18.567c.009 16.959 12.302 30.701 27.458 30.694 15.155-.009 27.434-13.763 27.426-30.722z" fill="#4e5660"/><path d="m328.859 272.304c-1.919 0-3.839-.732-5.303-2.197-2.93-2.929-2.93-7.677-.001-10.606l12.853-12.853c2.93-2.929 7.679-2.93 10.606 0 2.93 2.929 2.93 7.677.001 10.606l-12.853 12.853c-1.464 1.464-3.384 2.197-5.303 2.197z" fill="#9aa3b1"/><path d="m330.058 239.764c-1.919 0-3.839-.732-5.304-2.197-2.929-2.929-2.929-7.678 0-10.606l10.456-10.456c2.93-2.929 7.678-2.929 10.607 0s2.929 7.678 0 10.606l-10.456 10.456c-1.464 1.464-3.384 2.197-5.303 2.197z" fill="#9aa3b1"/><path d="m390.919 349.032c-2.852-19.792-4.298-39.968-4.298-59.966v-229.061c0-21.396-11.527-41.33-30.085-52.023-3.589-2.068-8.175-.835-10.242 2.754-2.068 3.589-.835 8.175 2.754 10.243 13.924 8.023 22.573 22.977 22.573 39.026v229.061c0 .366.009.733.01 1.099h-231.283c.001-.366.01-.733.01-1.099v-229.061c0-24.816 20.189-45.005 45.005-45.005h130.171c4.143 0 7.5-3.358 7.5-7.5s-3.357-7.5-7.5-7.5h-130.171c-33.087 0-60.005 26.918-60.005 60.005v229.061c0 19.999-1.446 40.174-4.298 59.966l-14.84 102.977c-3.314 23 8.584 45.108 29.607 55.014 1.032.487 2.12.717 3.191.717 2.813-.001 5.511-1.591 6.789-4.305 1.766-3.747.159-8.216-3.588-9.981-15.021-7.078-23.521-22.873-21.154-39.305l14.841-102.977c2.189-15.196 3.574-30.61 4.147-46.007h231.872c.572 15.396 1.958 30.81 4.148 46.007l14.84 102.977c1.553 10.775-1.645 21.674-8.773 29.903-7.128 8.228-17.46 12.948-28.347 12.948h-178.207c-4.143 0-7.5 3.358-7.5 7.5s3.357 7.5 7.5 7.5h178.207c15.241 0 29.705-6.607 39.685-18.127 9.979-11.52 14.455-26.779 12.281-41.864zm-332.45-325.558c-2.93-2.929-7.678-2.929-10.607 0s-2.929 7.678 0 10.607l34.283 34.283c1.465 1.464 3.385 2.197 5.304 2.197s3.839-.732 5.304-2.197c2.929-2.929 2.929-7.678 0-10.606zm257.054 98.025c-11.483.006-20.82 9.353-20.814 20.836.002 4.141 3.359 7.496 7.5 7.496h.004c4.143-.003 7.498-3.362 7.496-7.504-.001-1.556.604-3.019 1.704-4.12s2.563-1.708 4.118-1.709h.003c3.211 0 5.823 2.611 5.825 5.822.002 4.141 3.359 7.496 7.5 7.496h.004c4.143-.003 7.498-3.362 7.496-7.504-.006-11.48-9.347-20.815-20.825-20.815h-.011zm-224.39 50.17c0-4.142-3.357-7.5-7.5-7.5h-48.19c-4.143 0-7.5 3.358-7.5 7.5s3.357 7.5 7.5 7.5h48.189c4.143 0 7.501-3.358 7.501-7.5zm333.419-101.108c1.919 0 3.839-.732 5.304-2.197l34.283-34.283c2.929-2.929 2.929-7.678 0-10.607-2.93-2.929-7.678-2.929-10.607 0l-34.283 34.283c-2.929 2.929-2.929 7.678 0 10.606 1.464 1.465 3.384 2.198 5.303 2.198zm-342.407 204.412-34.283 34.284c-2.929 2.929-2.929 7.678 0 10.607 1.465 1.464 3.385 2.197 5.304 2.197s3.839-.733 5.304-2.197l34.283-34.284c2.929-2.929 2.929-7.678 0-10.606-2.931-2.93-7.679-2.93-10.608-.001zm114.265-153.414c-5.563.002-10.791 2.171-14.723 6.107s-6.095 9.166-6.092 14.729c.002 4.141 3.359 7.496 7.5 7.496h.004c4.143-.002 7.498-3.362 7.496-7.504-.001-1.556.604-3.019 1.704-4.12s2.561-1.708 4.118-1.708h.003c3.211 0 5.823 2.611 5.825 5.822.002 4.141 3.359 7.496 7.5 7.496h.004c4.143-.002 7.498-3.362 7.496-7.504-.006-11.48-9.347-20.814-20.824-20.814zm233.445 153.414c-2.929-2.929-7.677-2.929-10.608 0-2.929 2.929-2.929 7.678 0 10.606l34.283 34.284c1.465 1.465 3.384 2.197 5.304 2.197 1.919 0 3.839-.733 5.304-2.197 2.929-2.929 2.929-7.678 0-10.607zm46.702-110.804h-48.189c-4.143 0-7.5 3.358-7.5 7.5s3.357 7.5 7.5 7.5h48.189c4.143 0 7.5-3.358 7.5-7.5 0-4.143-3.358-7.5-7.5-7.5zm-267.64 307.177c2.506 6.05 8.355 9.958 14.903 9.958h49.274c4.311 0 8.361-1.678 11.407-4.725l15.063-15.063c4.631-4.63 6.004-11.531 3.498-17.58-2.506-6.05-8.355-9.959-14.903-9.959h-49.275c-4.309 0-8.359 1.678-11.407 4.725l-15.063 15.064c-4.631 4.631-6.003 11.531-3.497 17.58zm14.103-6.973 15.063-15.063c.214-.214.498-.332.801-.332h49.275c.227 0 .756 0 1.045.698s-.085 1.073-.246 1.233l-15.064 15.063v.001c-.213.213-.497.33-.8.33h-49.274c-.227 0-.756 0-1.045-.699-.29-.696.085-1.071.245-1.231zm-1.978-307.82c.011 21.062 15.685 38.19 34.946 38.19h.016c9.494-.005 18.37-4.092 24.991-11.509 6.41-7.18 9.937-16.668 9.932-26.716-.014-26.053-23.602-26.03-34.955-26.035-11.342.005-34.942.016-34.93 26.07zm35.017-11.071c18.064 0 19.864 3.2 19.868 11.043.003 6.356-2.171 12.294-6.121 16.719-3.739 4.188-8.644 6.496-13.81 6.499h-.008c-10.992-.001-19.939-10.405-19.946-23.197-.004-7.855 1.799-11.055 19.938-11.063h.079zm-.07 275.518c20.466 0 37.116-16.65 37.116-37.116s-16.65-37.116-37.116-37.116-37.116 16.65-37.116 37.116 16.65 37.116 37.116 37.116zm0-59.232c3.362 0 6.549.757 9.405 2.105l-5.946 5.946c-2.929 2.929-2.929 7.678 0 10.607 1.465 1.464 3.385 2.197 5.304 2.197s3.839-.733 5.304-2.197l5.945-5.945c1.348 2.856 2.105 6.043 2.105 9.404 0 12.195-9.921 22.116-22.116 22.116s-22.116-9.921-22.116-22.116 9.92-22.117 22.115-22.117z"/></svg>