<svg id="Capa_1" enable-background="new 0 0 512.003 512.003" height="512" viewBox="0 0 512.003 512.003" width="512" xmlns="http://www.w3.org/2000/svg"><circle cx="131.729" cy="131.729" fill="#efd176" r="63.27"/><circle cx="131.729" cy="131.729" fill="#eea849" r="37.548"/><circle cx="278.898" cy="70.77" fill="#f7ef87" r="63.27"/><ellipse cx="278.898" cy="70.769" fill="#eea849" rx="37.548" ry="37.548" transform="matrix(.707 -.707 .707 .707 31.646 217.938)"/><circle cx="426.066" cy="131.729" fill="#f7ef87" r="63.27"/><circle cx="426.066" cy="131.729" fill="#eea849" r="37.548"/><circle cx="70.77" cy="278.897" fill="#efd176" r="63.27"/><circle cx="70.77" cy="278.897" fill="#eea849" r="37.548"/><circle cx="131.729" cy="426.066" fill="#efd176" r="63.27"/><ellipse cx="131.729" cy="426.066" fill="#eea849" rx="37.548" ry="37.548" transform="matrix(.707 -.707 .707 .707 -262.692 217.938)"/><path d="m113.76 444.035c-91.057-91.057-91.058-239.219 0-330.276 91.057-91.057 239.219-91.057 330.276 0 44.288 44.288 64.919 99.177 59.662 158.73-4.827 54.686-32.154 109.471-76.945 154.262s-99.576 72.118-154.262 76.945c-59.554 5.258-114.443-15.373-158.731-59.661zm294.337-294.337c-71.241-71.241-187.159-71.241-258.399-.001-71.241 71.241-71.241 187.158 0 258.399 33.314 33.314 74.23 48.866 118.323 44.974 42.817-3.781 86.426-25.89 122.793-62.257s58.476-79.975 62.257-122.793c3.892-44.092-11.66-85.008-44.974-118.322z" fill="#a3defe"/><path d="m272.49 503.697c30.453-2.688 60.935-12.362 89.706-28.135-15.471-10.136-29.954-22.056-43.409-35.375-16.713 6.999-33.8 11.385-50.765 12.883-44.093 3.892-85.01-11.66-118.323-44.974-71.241-71.241-71.241-187.159-.001-258.399 14.234-14.234 30.255-25.615 47.343-34.161 2.019-23.243 7.052-43.865 15.248-60.441-36.093 10.676-70.096 30.23-98.53 58.664-91.057 91.057-91.057 239.219 0 330.276 44.289 44.288 99.178 64.919 158.731 59.662z" fill="#7acefa"/><path d="m302.756 491.37c-3.528-3.528-6.47-7.759-8.592-12.604-9.132-20.846.364-45.149 21.211-54.281 22.941-10.051 44.565-25.137 64.269-44.841s34.79-41.327 44.841-64.269c9.132-20.847 33.435-30.342 54.281-21.211 20.848 9.132 30.343 33.435 21.211 54.281-14.185 32.382-35.063 62.486-62.055 89.477-26.991 26.991-57.095 47.869-89.477 62.055-16.001 7.009-34.039 3.043-45.689-8.607z" fill="#8eafe2"/><path d="m369.353 389.347c-16.86 15.009-34.964 26.808-53.977 35.138-20.847 9.132-30.342 33.435-21.211 54.281 2.122 4.846 5.064 9.077 8.592 12.604 11.65 11.65 29.688 15.616 45.689 8.607 14.493-6.349 28.526-14.049 42.031-23.027-14.045-21.152-26.006-57.603-21.124-87.603z" fill="#6a96d7"/><path d="m489.647 162.788c4.711-9.637 7.189-20.289 7.189-31.06 0-39.022-31.747-70.769-70.77-70.769-10.589 0-21.074 2.395-30.58 6.951-15.933-8.796-32.659-15.646-49.827-20.565-9.857-28.077-36.709-47.345-66.761-47.345s-56.904 19.268-66.761 47.345c-17.175 4.92-33.907 11.774-49.845 20.575-26.806-12.832-59.382-7.453-80.605 13.768-1.266 1.266-2.496 2.592-3.655 3.941-2.7 3.141-2.343 7.876.799 10.576 1.415 1.217 3.154 1.813 4.885 1.813 2.11 0 4.208-.886 5.691-2.611.915-1.064 1.887-2.111 2.888-3.112 14.187-14.188 34.816-19.395 53.642-14.475-13.25 8.767-25.82 18.977-37.481 30.638-11.657 11.658-21.865 24.224-30.631 37.471-1.882-7.188-2.349-14.755-1.288-22.168.586-4.1-2.263-7.899-6.363-8.486-4.099-.59-7.9 2.262-8.486 6.363-1.979 13.842.241 28.112 6.233 40.654-8.801 15.939-15.655 32.671-20.575 49.846-28.078 9.855-47.346 36.708-47.346 66.759 0 30.052 19.268 56.905 47.345 66.762 4.919 17.168 11.769 33.893 20.565 49.826-4.556 9.506-6.951 19.991-6.951 30.581 0 39.023 31.747 70.77 70.77 70.77 10.763 0 21.408-2.475 31.04-7.179 28.339 14.782 59.18 22.348 91.591 22.347 6.206 0 12.475-.278 18.789-.835 11.696-1.033 23.591-3.111 35.405-6.159 7.162 3.937 15.144 5.984 23.24 5.984 6.61 0 13.295-1.358 19.661-4.147 8.564-3.751 17.085-8.016 25.326-12.675 3.606-2.038 4.877-6.614 2.839-10.22-2.04-3.606-6.614-4.878-10.22-2.838-7.802 4.41-15.864 8.445-23.965 11.994-10.389 4.55-21.997 3.593-31.288-2.2-.158-.116-.322-.222-.489-.325-1.987-1.287-3.87-2.785-5.599-4.514-2.964-2.964-5.327-6.433-7.025-10.311-3.403-7.768-3.762-16.345-1.055-24.323.013-.034.025-.067.037-.101.157-.459.32-.916.497-1.37 3.276-8.386 9.623-14.995 17.871-18.607 23.801-10.427 46.195-26.041 66.563-46.407 20.365-20.366 35.979-42.761 46.407-66.563 7.458-17.025 27.375-24.807 44.402-17.351 6.172 2.704 11.278 7.086 14.832 12.634.017.026.033.052.05.079 1.173 1.843 2.176 3.814 2.989 5.894 3.276 8.387 3.092 17.547-.521 25.795-13.807 31.521-34.158 60.854-60.488 87.183-10.694 10.695-22.031 20.527-33.694 29.221-3.321 2.476-4.006 7.175-1.53 10.496 2.474 3.32 7.174 4.005 10.495 1.531 12.242-9.126 24.132-19.435 35.337-30.641 27.655-27.656 49.06-58.532 63.621-91.771 5.22-11.917 5.487-25.154.752-37.272-.753-1.929-1.632-3.784-2.603-5.576 3.055-11.83 5.138-23.742 6.173-35.457 3.468-39.29-3.915-76.599-21.522-110.364zm-474.647 116.109c0-20.123 10.958-38.43 27.824-48.244-6.45 31.811-6.45 64.677 0 96.489-16.866-9.814-27.824-28.122-27.824-48.245zm411.066-202.937c30.751 0 55.77 25.018 55.77 55.769 0 4.874-.646 9.717-1.896 14.395-8.543-13.22-18.747-25.814-30.6-37.668-11.665-11.665-24.24-21.879-37.496-30.648 4.624-1.219 9.409-1.848 14.222-1.848zm-147.168-60.96c20.123 0 38.43 10.958 48.244 27.824-31.811-6.45-64.677-6.45-96.488 0 9.814-16.866 28.122-27.824 48.244-27.824zm-147.169 466.835c-30.751 0-55.769-25.018-55.769-55.77 0-4.814.63-9.598 1.849-14.224 8.769 13.256 18.983 25.831 30.648 37.496 11.852 11.852 24.444 22.06 37.661 30.603-4.676 1.25-9.517 1.895-14.389 1.895zm313.871-214.473c-.582 6.598-1.651 13.334-3.173 20.074-10.711 4.764-19.749 13.372-24.812 24.929-9.675 22.085-24.234 42.936-43.275 61.976-19.04 19.04-39.892 33.6-61.975 43.274-11.229 4.919-20.016 13.683-24.956 24.817-6.732 1.519-13.459 2.586-20.047 3.167-22.958 2.028-45.014-1.531-65.486-10.385.397-3.042.622-6.1.622-9.148 0-39.022-31.747-70.77-70.77-70.77-3.383 0-6.783.25-10.16.741-3.264-6.671-6.074-13.508-8.44-20.465 17.888-13.34 28.41-34.116 28.41-56.675 0-22.56-10.522-43.336-28.411-56.675 2.366-6.957 5.176-13.794 8.439-20.464 3.449.504 6.9.756 10.328.756 18.529 0 36.402-7.271 49.874-20.744 15.965-15.964 23.214-38.107 19.983-60.2 6.672-3.265 13.511-6.075 20.469-8.442 13.34 17.889 34.117 28.41 56.676 28.41 22.56 0 43.336-10.521 56.675-28.41 6.957 2.366 13.795 5.176 20.466 8.44-.492 3.377-.741 6.776-.741 10.16 0 39.023 31.747 70.77 70.768 70.77 3.045 0 6.103-.225 9.145-.622 8.857 20.475 12.417 42.533 10.391 65.486zm-258.102 158.704c0 .625-.03 1.252-.051 1.879-11.453-6.627-22.316-15.022-32.445-25.151-9.983-9.983-18.496-20.886-25.561-32.431.763-.032 1.527-.066 2.288-.066 30.751-.001 55.769 25.018 55.769 55.769zm-78.904-106.186c-6.429-26.91-6.429-55.055-.001-81.965 11.381 10.458 17.946 25.166 17.946 40.982.001 15.817-6.565 30.525-17.945 40.983zm20.835-132.429c7.068-11.552 15.584-22.462 25.573-32.45 9.988-9.988 20.898-18.505 32.45-25.572.672 15.465-5.085 30.533-16.288 41.736-11.202 11.202-26.27 16.958-41.735 16.286zm108.486-78.858c26.91-6.429 55.055-6.429 81.965 0-10.458 11.38-25.165 17.946-40.983 17.946-15.815 0-30.523-6.566-40.982-17.946zm132.382 23.136c0-.761.034-1.525.066-2.288 11.545 7.065 22.447 15.578 32.43 25.56 10.129 10.129 18.523 20.992 25.15 32.446-.626.021-1.252.051-1.877.051-30.751 0-55.769-25.018-55.769-55.769zm125.93 140.101c-.65 7.363-1.743 14.817-3.263 22.282-3.367-2.728-7.113-5.032-11.189-6.818-7.56-3.311-15.514-4.535-23.22-3.939.888-4.923 1.558-9.83 1.986-14.674 4.094-46.375-12.207-89.352-47.141-124.287-74.166-74.164-194.841-74.166-269.007-.001-74.163 74.166-74.163 194.842.002 269.007 31.414 31.414 69.326 47.759 110.37 47.759 4.6 0 9.243-.206 13.916-.618 4.832-.427 9.726-1.095 14.637-1.98-.603 7.857.725 15.791 3.976 23.213 1.776 4.055 4.067 7.799 6.823 11.189-7.467 1.52-14.922 2.613-22.286 3.263-57.289 5.058-110.1-14.825-152.768-57.494-88.134-88.133-88.134-231.536-.001-319.669 88.134-88.133 231.537-88.132 319.669 0 42.67 42.669 62.552 95.495 57.496 152.767z"/></svg>