<svg id="Capa_1" enable-background="new 0 0 512 512" height="512" viewBox="0 0 512 512" width="512" xmlns="http://www.w3.org/2000/svg"><path d="m276.896 98.893c-8.278 0-14.989-6.711-14.989-14.989v-61.415c0-8.278 6.711-14.989 14.989-14.989s14.989 6.711 14.989 14.989v61.414c0 8.279-6.711 14.99-14.989 14.99z" fill="#8eafe2"/><path d="m368.258 432.694h-182.724c-32.14 0-60.923-16.617-76.993-44.452-16.07-27.834-16.07-61.07.001-88.904l91.362-158.243c16.07-27.834 44.852-44.452 76.993-44.452s60.923 16.618 76.993 44.452l91.362 158.243c6.898 11.949 2.804 27.227-9.144 34.126-11.947 6.9-27.227 2.805-34.126-9.144l-91.362-158.243c-7.039-12.191-19.646-19.47-33.723-19.47-14.078 0-26.684 7.279-33.723 19.47l-91.363 158.243c-7.039 12.191-7.039 26.749-.001 38.94 7.039 12.192 19.646 19.47 33.723 19.47h182.724c13.797 0 24.982 11.185 24.982 24.982.001 13.797-11.184 24.982-24.981 24.982z" fill="#c6c6c6"/><path d="m353.889 141.095c-16.07-27.834-44.853-44.452-76.993-44.452-32.141 0-60.923 16.618-76.993 44.452l-91.362 158.243c-16.071 27.834-16.071 61.07-.001 88.904 16.07 27.835 44.853 44.452 76.993 44.452h85.308c-6.759-11.77-12.145-30.144-16.341-49.964h-68.967c-14.078 0-26.684-7.278-33.723-19.47-7.039-12.191-7.039-26.749.001-38.94l91.362-158.243c7.038-12.191 19.645-19.47 33.723-19.47s26.684 7.279 33.723 19.47l19.249 33.34c5.273-3.939 9.651-9.108 12.6-15.208l16.548-34.234z" fill="#9aa3b1"/><path d="m333.778 83.903h-113.764c-16.477 0-27.285 17.229-20.114 32.064l28.903 59.792c3.73 7.716 11.544 12.618 20.114 12.618h55.958c8.57 0 16.384-4.902 20.114-12.618l28.903-59.792c7.171-14.835-3.636-32.064-20.114-32.064z" fill="#4e5660"/><path d="m256.731 83.903h-36.718c-16.477 0-27.285 17.229-20.114 32.064l28.903 59.792c3.73 7.715 11.544 12.618 20.114 12.618h24.402c-14.566-22.46-23.165-74.792-16.587-104.474z" fill="#383c43"/><ellipse cx="236.338" cy="141.916" fill="#eda1ab" rx="14.965" ry="11.917"/><ellipse cx="317.454" cy="141.916" fill="#eda1ab" rx="14.965" ry="11.917"/><g fill="#fff"><path d="m245.06 137.943c-4.142 0-7.5-3.358-7.5-7.5v-6.118c0-4.142 3.358-7.5 7.5-7.5s7.5 3.358 7.5 7.5v6.118c0 4.142-3.358 7.5-7.5 7.5z"/><path d="m308.732 137.943c-4.142 0-7.5-3.358-7.5-7.5v-6.118c0-4.142 3.358-7.5 7.5-7.5s7.5 3.358 7.5 7.5v6.118c0 4.142-3.358 7.5-7.5 7.5z"/><path d="m276.896 141.585c-5.386 0-10.506-2.332-14.048-6.396-2.721-3.123-2.396-7.861.727-10.582 3.122-2.72 7.86-2.395 10.581.728.407.467 1.304 1.251 2.739 1.251s2.332-.784 2.738-1.251c2.721-3.123 7.458-3.449 10.582-.728 3.123 2.721 3.448 7.459.727 10.582-3.541 4.064-8.661 6.396-14.046 6.396z"/></g><path d="m139.205 428.667c-8.243-8.243-8.243-21.609 0-29.853l123.997-123.997c8.243-8.243 21.609-8.243 29.853 0s8.243 21.609 0 29.853l-123.998 123.997c-8.243 8.243-21.609 8.243-29.852 0z" fill="#c6c6c6"/><path d="m93.077 496.736-21.941-21.941c-10.353-10.353-10.353-27.138 0-37.49l12.742-12.742c4.774-4.774 8.434-10.543 10.72-16.895 6.58-18.286 29.947-23.511 43.689-9.769l31.686 31.686c13.742 13.742 8.517 37.109-9.769 43.689-6.352 2.286-12.122 5.947-16.895 10.72l-12.742 12.742c-10.352 10.352-27.137 10.352-37.49 0z" fill="#8eafe2"/><path d="m93.077 496.736c10.353 10.353 27.138 10.353 37.49 0l3.983-3.983c-16.091-20.419-27.85-63.322-22.94-101.395-7.494 2.339-14.006 7.956-17.011 16.309-2.286 6.352-5.947 12.121-10.72 16.895l-12.742 12.742c-10.353 10.353-10.353 27.138 0 37.491z" fill="#6a96d7"/><path d="m169.974 429.584-31.686-31.686c-13.742-13.742-37.109-8.517-43.689 9.769-.34.944-.719 1.87-1.118 2.786l63.938 63.938c.917-.399 1.843-.779 2.786-1.118 18.286-6.58 23.511-29.948 9.769-43.689z" fill="#f7ef87"/><path d="m94.599 407.667c-.34.944-.719 1.87-1.118 2.786l18.153 18.153c-1.451-12.312-1.599-25.028-.024-37.248-7.493 2.34-14.005 7.956-17.011 16.309z" fill="#efd176"/><path d="m451.746 295.588-56.869-98.499c-2.071-3.587-6.658-4.817-10.245-2.745-3.587 2.071-4.816 6.658-2.745 10.245l56.869 98.499c2.335 4.044 2.955 8.755 1.746 13.266-1.209 4.51-4.102 8.28-8.146 10.615-4.043 2.335-8.753 2.954-13.264 1.747-4.511-1.209-8.281-4.102-10.616-8.146l-79.27-137.299c.951-1.335 1.809-2.748 2.535-4.248l16.126-33.359 16.229 28.11c1.389 2.406 3.91 3.751 6.502 3.751 1.272 0 2.562-.324 3.743-1.006 3.587-2.071 4.816-6.658 2.745-10.245l-16.702-28.929c-1.486-2.575-3.116-5.096-4.847-7.548l5.107-10.565c4.499-9.306 3.905-20.088-1.587-28.844-5.493-8.756-14.943-13.983-25.279-13.983h-34.394v-53.916c0-12.4-10.089-22.489-22.489-22.489s-22.489 10.089-22.489 22.489v53.914h-34.393c-10.336 0-19.786 5.227-25.279 13.983s-6.086 19.539-1.588 28.845l5.107 10.566c-1.731 2.454-3.361 4.974-4.847 7.548l-91.362 158.243c-5.351 9.269-9.116 19.192-11.19 29.494-.817 4.061 1.811 8.016 5.872 8.833.5.101.998.149 1.488.149 3.498 0 6.628-2.46 7.345-6.021 1.752-8.703 4.941-17.099 9.476-24.955l90.889-157.424 16.126 33.358c.725 1.501 1.584 2.913 2.535 4.249l-79.27 137.298c-8.395 14.54-8.395 31.9-.001 46.44 1.825 3.161 3.984 6.046 6.433 8.654l-12.946 12.946c-7.137-4.925-15.879-6.943-24.565-5.561-3.708-6.721-6.463-13.832-8.169-21.17-.938-4.035-4.966-6.548-9.003-5.607-4.035.938-6.545 4.969-5.607 9.003 1.88 8.085 4.818 15.93 8.745 23.374-5.748 3.962-10.207 9.66-12.66 16.479-1.9 5.278-5.001 10.165-8.967 14.131l-12.742 12.742c-13.26 13.26-13.26 34.837 0 48.097l21.941 21.94c6.423 6.424 14.964 9.961 24.048 9.961s17.625-3.538 24.048-9.961l12.742-12.742c3.967-3.967 8.854-7.067 14.132-8.966 11.017-3.964 19.12-13.153 21.674-24.58 1.173-5.247 1.073-10.561-.165-15.581.426.006.855.024 1.28.024h182.724c17.911 0 32.482-14.571 32.482-32.482s-14.571-32.482-32.482-32.482h-135.156l65.257-65.257c11.155-11.155 11.155-29.305 0-40.459-11.154-11.155-29.305-11.156-40.46 0l-95.541 95.541c-1.532-1.682-2.889-3.532-4.051-5.545-5.683-9.843-5.683-21.597 0-31.44l77.97-135.047c3.901 1.835 8.205 2.854 12.641 2.854h55.958c4.436 0 8.74-1.018 12.641-2.854l77.969 135.047c4.338 7.514 11.343 12.889 19.723 15.134 2.799.75 5.639 1.121 8.46 1.121 5.628 0 11.183-1.477 16.186-4.367 7.514-4.337 12.889-11.342 15.135-19.723 2.247-8.378 1.096-17.131-3.243-24.645zm-281.965 156.89c-1.45 6.482-5.865 11.489-12.115 13.738-7.343 2.642-14.141 6.956-19.66 12.474l-12.742 12.742c-3.591 3.591-8.364 5.568-13.442 5.568s-9.852-1.977-13.442-5.568l-21.941-21.94c-7.412-7.412-7.412-19.472 0-26.884l12.742-12.742c5.518-5.518 9.832-12.316 12.475-19.659 2.249-6.25 7.256-10.666 13.738-12.115 1.442-.322 2.88-.481 4.296-.481 4.953 0 9.642 1.938 13.294 5.59l31.686 31.686c.527.527 1.013 1.079 1.468 1.647.041.048.079.099.121.146 3.512 4.469 4.794 10.106 3.522 15.798zm198.477-62.248c9.64 0 17.482 7.842 17.482 17.482s-7.842 17.482-17.482 17.482h-182.724c-.782 0-1.567-.022-2.353-.045l34.919-34.919zm-99.753-110.109c5.306-5.305 13.939-5.306 19.247 0 5.306 5.306 5.306 13.94 0 19.247l-78.059 78.059c-.001.001-.002.002-.003.003l-40.632 40.632-19.247-19.246zm.902-257.632c0-4.129 3.359-7.489 7.489-7.489s7.489 3.36 7.489 7.489v53.914h-14.978zm35.468 158.387h-55.958c-5.656 0-10.9-3.29-13.361-8.382l-28.903-59.792c-2.27-4.697-1.982-9.926.79-14.345s7.355-6.954 12.572-6.954h113.765c5.217 0 9.799 2.535 12.572 6.955 2.772 4.419 3.06 9.648.79 14.345l-28.903 59.793c-2.463 5.09-7.708 8.38-13.364 8.38z"/></svg>