<svg id="Capa_1" enable-background="new 0 0 512 512" height="512" viewBox="0 0 512 512" width="512" xmlns="http://www.w3.org/2000/svg"><path d="m441.71 409.031c-13.57 0-24.608-10.96-24.687-24.547-.079-13.636 10.911-24.754 24.547-24.832l9.701-.056c2.134-.013 3.861-1.759 3.849-3.893l-.315-54.505c-.093-16.103-6.452-31.206-17.903-42.527l-15.19-15.015c-15.712-15.531-24.435-36.252-24.563-58.346l-.213-31.324c-.001-.048-.001-.095-.001-.142 0-27.097-19.173-45.107-35.257-55.444-26.173-16.821-63.704-26.085-105.678-26.085-41.975 0-79.505 9.264-105.678 26.084-16.084 10.337-35.257 28.347-35.257 55.444 0 .048 0 .095-.001.143l-.214 31.323c-.127 22.092-8.85 42.814-24.562 58.346l-15.19 15.015c-11.452 11.321-17.81 26.424-17.903 42.526l-.315 54.506c-.012 2.134 1.714 3.88 3.848 3.893l9.702.056c13.636.078 24.626 11.196 24.547 24.832-.078 13.586-11.118 24.547-24.687 24.547-.049 0-.096 0-.146-.001l-9.701-.056c-29.362-.169-53.112-24.195-52.942-53.557l.315-54.505c.168-29.292 11.734-56.766 32.567-77.36l15.19-15.016c6.332-6.259 9.847-14.61 9.898-23.513l.213-31.268c.03-38.495 20.604-72.904 57.939-96.898 34.533-22.191 80.308-33.921 132.377-33.921s97.844 11.73 132.376 33.923c37.336 23.995 57.91 58.404 57.94 96.9l.213 31.267c.052 8.903 3.567 17.254 9.899 23.513l15.19 15.015c20.832 20.594 32.399 48.068 32.568 77.36l.315 54.505c.169 29.363-23.58 53.388-52.943 53.558l-9.701.056c-.05-.001-.099-.001-.147-.001z" fill="#f7ef87"/><path d="m395.741 61.892c-2.38-1.723-4.83-3.405-7.366-5.034-34.532-22.193-80.306-33.923-132.375-33.923s-97.844 11.73-132.376 33.923c-37.336 23.995-57.909 58.404-57.939 96.898l-.213 31.268c-.051 8.903-3.567 17.254-9.898 23.513l-15.19 15.016c-20.833 20.594-32.399 48.068-32.567 77.36l-.315 54.505c-.169 29.363 23.58 53.388 52.942 53.557l9.701.056c.049.001.097.001.146.001 13.569-.001 24.608-10.961 24.687-24.547.079-13.636-10.911-24.754-24.547-24.832l-9.702-.056c-2.134-.013-3.86-1.759-3.848-3.893l.315-54.506c.093-16.102 6.451-31.205 17.903-42.526l15.19-15.015c15.712-15.533 24.435-36.254 24.562-58.346l.214-31.323c.001-.048.001-.095.001-.143 0-27.097 19.173-45.107 35.257-55.444 26.172-16.822 63.702-26.086 105.677-26.086s79.505 9.264 105.679 26.084c3.486 2.24 7.116 4.842 10.665 7.818 1.272-1.765 2.435-3.629 3.463-5.596l17.867-34.172c.776-1.487 1.463-3.009 2.067-4.557z" fill="#efd176"/><path d="m353.926 89.18c-4.855 9.286-15.828 13.597-25.674 10.01-20.634-7.519-45.241-11.444-72.252-11.444s-51.617 3.924-72.252 11.443c-9.846 3.588-20.819-.723-25.674-10.01l-17.867-34.171c-5.793-11.079-.668-24.726 10.979-29.271 30.689-11.974 66.449-18.234 104.814-18.234s74.126 6.26 104.814 18.235c11.647 4.545 16.772 18.192 10.979 29.271z" fill="#a3defe"/><path d="m217.037 9.768c-23.648 2.797-45.834 8.159-65.852 15.969-11.647 4.544-16.772 18.192-10.979 29.271l17.867 34.171c4.855 9.286 15.828 13.597 25.674 10.009 15.49-5.644 33.218-9.262 52.522-10.716-15.272-18.176-27.372-52.504-19.232-78.704z" fill="#7acefa"/><path d="m129.312 486.766c-58.97-.34-76.227-53.912-75.947-102.522.28-48.611 18.154-101.979 77.125-101.639z" fill="#e8899e"/><path d="m129.312 486.766.478-82.875c-34.801-14.531-54.094-57.152-57.324-92.713-13.777 19.771-18.951 47.096-19.101 73.066-.28 48.61 16.977 102.182 75.947 102.522z" fill="#de5c6e"/><path d="m153.897 504.025-19.379-3.092c-11.113-1.773-19.27-11.391-19.205-22.645l1.081-187.368c.065-11.254 8.332-20.777 19.465-22.422l19.413-2.868c22.807-3.37 43.253 14.38 43.12 37.435l-.946 164.024c-.133 23.056-20.782 40.569-43.549 36.936z" fill="#4e5660"/><path d="m88.825 424.592c-.015 0-.029 0-.044 0l-6.291-.036c-4.142-.024-7.48-3.401-7.457-7.543.024-4.128 3.377-7.457 7.499-7.457h.044l6.291.036c4.142.024 7.48 3.401 7.457 7.543-.024 4.127-3.378 7.457-7.499 7.457z" fill="#fff"/><path d="m382.688 486.766c58.97-.34 76.227-53.912 75.947-102.522-.28-48.611-18.154-101.979-77.125-101.639z" fill="#e8899e"/><path d="m381.633 303.881 1.055 182.885c49.546-.286 69.643-38.149 74.636-79.075-37.221-8.676-65.742-58.109-75.691-103.81z" fill="#de5c6e"/><path d="m358.103 504.025 19.379-3.092c11.113-1.773 19.27-11.391 19.205-22.645l-1.081-187.368c-.065-11.254-8.332-20.777-19.465-22.422l-19.413-2.868c-22.807-3.37-43.253 14.38-43.12 37.435l.946 164.024c.133 23.056 20.782 40.569 43.549 36.936z" fill="#4e5660"/><path d="m423.175 424.592c-4.122 0-7.475-3.33-7.499-7.457-.023-4.142 3.315-7.519 7.457-7.543l6.29-.036h.044c4.122 0 7.475 3.33 7.499 7.457.023 4.142-3.315 7.519-7.457 7.543l-6.291.036c-.013 0-.028 0-.043 0z" fill="#fff"/><path d="m511.685 300.868c-.181-31.296-12.538-60.648-34.795-82.65l-15.19-15.015c-4.907-4.851-7.631-11.322-7.671-18.23l-.213-31.221c-.032-41.133-21.833-77.785-61.385-103.203-3.434-2.207-7.047-4.348-10.777-6.397-.119-2.998-.71-5.987-1.783-8.85-2.838-7.576-8.79-13.608-16.33-16.55-31.434-12.266-68.621-18.749-107.541-18.749s-76.106 6.483-107.539 18.748c-7.54 2.941-13.492 8.974-16.33 16.55-1.073 2.863-1.663 5.852-1.783 8.85-3.734 2.051-7.347 4.192-10.778 6.397-12.498 8.032-23.36 17.298-32.284 27.541-2.721 3.123-2.395 7.861.728 10.582 1.421 1.238 3.176 1.845 4.924 1.845 2.093 0 4.175-.871 5.658-2.573 7.993-9.174 17.778-17.51 29.084-24.776 2.037-1.309 4.151-2.594 6.317-3.851l15.952 30.509c-1.253.746-2.489 1.499-3.681 2.265-31.987 20.558-38.701 44.929-38.701 61.743 0 .034-.001.068-.001.102l-.214 31.331c-.115 20.089-8.047 38.932-22.335 53.056l-15.191 15.015c-12.876 12.73-20.025 29.711-20.13 47.816l-.274 47.437c-2.669 12.993-3.498 25.534-3.556 35.61-.026 4.542.099 9.589.471 14.951-18.493-6.09-31.452-23.472-31.335-43.691l.314-54.505c.157-27.289 10.932-52.883 30.34-72.069l15.19-15.016c7.756-7.668 12.062-17.897 12.125-28.795l.213-31.313c.01-13.098 2.585-25.795 7.654-37.738 1.619-3.813-.161-8.216-3.974-9.834-3.816-1.619-8.216.161-9.834 3.974-5.858 13.803-8.835 28.468-8.847 43.542l-.213 31.276c-.04 6.9-2.764 13.371-7.671 18.222l-15.19 15.016c-22.258 22.003-34.615 51.356-34.795 82.65l-.314 54.505c-.169 29.182 20.172 53.929 48.176 59.792 2.006 12.369 5.579 25.393 11.746 37.321 11.135 21.539 28.807 35.275 51.278 39.945 4.285 8.277 12.304 14.339 22.136 15.908l19.379 3.092c2.376.379 4.758.566 7.128.566 10.61 0 20.95-3.743 29.166-10.712 10.052-8.524 15.86-20.973 15.937-34.152l.946-164.025c.076-13.179-5.588-25.693-15.541-34.333-9.952-8.64-23.139-12.489-36.176-10.565l-19.413 2.869c-9.848 1.455-17.937 7.423-22.318 15.651-20.078 3.931-36.421 15.116-47.798 32.663l.047-8.153c.081-14.099 5.648-27.322 15.675-37.235l15.19-15.015c17.137-16.941 26.651-39.541 26.79-63.629l.214-31.323.001-.194c0-23.712 17.299-39.808 31.812-49.135 1.511-.971 3.087-1.926 4.712-2.861 7.531 5.892 17.801 7.825 27.227 4.39 19.73-7.19 43.827-10.99 69.684-10.99s49.954 3.8 69.685 10.99c3.157 1.15 6.407 1.699 9.62 1.699 6.379 0 12.597-2.171 17.607-6.089 1.624.935 3.201 1.89 4.713 2.862 14.513 9.328 31.812 25.423 31.812 49.135l.214 31.509c.14 24.097 9.654 46.697 26.791 63.637l15.189 15.014c10.028 9.913 15.595 23.137 15.677 37.237l.047 8.154c-11.376-17.548-27.72-28.733-47.798-32.664-4.381-8.228-12.469-14.196-22.318-15.651l-19.413-2.869c-13.037-1.925-26.223 1.924-36.175 10.565-9.953 8.64-15.617 21.154-15.541 34.333l.946 164.024c.076 13.179 5.885 25.627 15.936 34.152 8.217 6.969 18.556 10.711 29.167 10.711 2.369 0 4.753-.187 7.128-.566l19.378-3.092c9.832-1.569 17.851-7.631 22.136-15.909 11.353-2.348 21.47-6.958 30.116-13.746 3.258-2.559 3.825-7.273 1.267-10.531-2.559-3.258-7.273-3.825-10.53-1.267-5.145 4.04-11.007 7.086-17.477 9.155l-1.056-182.973c42.699 13.181 47.878 67.316 48.016 91.219.126 21.858-3.412 41.509-10.232 56.829-1.685 3.784.017 8.217 3.801 9.902.991.441 2.027.65 3.046.65 2.872 0 5.613-1.659 6.856-4.452 4.206-9.449 7.296-20.266 9.216-32.051 28.004-5.862 48.346-30.61 48.177-59.792zm-387.791-9.904c.01-1.659.292-3.25.784-4.746.098-.244.184-.493.256-.748 1.936-4.994 6.412-8.723 12.021-9.551l19.413-2.869c1.473-.218 2.947-.325 4.414-.325 7.206 0 14.216 2.585 19.735 7.377 6.644 5.768 10.425 14.122 10.375 22.919l-.946 164.024c-.051 8.798-3.928 17.108-10.639 22.799-6.71 5.69-15.54 8.16-24.229 6.773l-19.378-3.092c-5.597-.893-10.029-4.671-11.908-9.685-.07-.26-.155-.513-.252-.762-.474-1.5-.737-3.092-.727-4.748zm-15.013 2.104-1.056 182.986c-42.545-13.673-47.098-67.864-46.96-91.767s5.317-78.039 48.016-91.219zm279.578 190.011c-.096.249-.182.503-.252.762-1.879 5.014-6.311 8.792-11.908 9.685l-19.378 3.092c-8.688 1.386-17.519-1.082-24.229-6.773s-10.587-14.001-10.638-22.799l-.946-164.024c-.051-8.798 3.73-17.152 10.375-22.92 5.52-4.792 12.529-7.377 19.735-7.377 1.466 0 2.942.107 4.415.325l19.414 2.869c5.607.828 10.082 4.555 12.019 9.547.073.258.16.51.259.757.491 1.495.773 3.085.783 4.741l1.081 187.368c.007 1.655-.256 3.248-.73 4.747zm-41.179-397.374c-.392.749-.847 1.448-1.355 2.093-.034.04-.07.078-.103.119-3.542 4.389-9.573 6.205-15.003 4.226-21.663-7.894-46.836-11.896-74.82-11.896-27.983 0-53.156 4.002-74.819 11.896-5.431 1.979-11.461.163-15.003-4.226-.033-.041-.069-.079-.103-.12-.508-.645-.963-1.343-1.354-2.092l-17.867-34.171c-1.798-3.439-2.039-7.335-.677-10.97 1.364-3.641 4.111-6.424 7.736-7.839 29.713-11.594 65.014-17.722 102.088-17.722s72.376 6.128 102.088 17.722c3.625 1.415 6.372 4.198 7.736 7.839 1.362 3.635 1.122 7.53-.677 10.97zm118.377 313.449c.339-4.873.507-9.861.478-14.954-.058-10.076-.887-22.616-3.555-35.607l-.274-47.439c-.105-18.105-7.254-35.087-20.131-47.817l-15.189-15.015c-14.287-14.123-22.219-32.965-22.336-53.064l-.214-31.415c0-16.824-6.714-41.194-38.702-61.753-1.193-.767-2.428-1.52-3.681-2.265l15.951-30.509c2.165 1.256 4.278 2.541 6.317 3.851 35.113 22.566 54.467 54.74 54.495 90.642l.213 31.259c.064 10.907 4.37 21.136 12.126 28.803l15.189 15.015c19.408 19.185 30.183 44.78 30.34 72.069l.314 54.505c.118 20.222-12.845 37.606-31.341 43.694z"/></svg>