<svg id="Capa_1" enable-background="new 0 0 512 512" height="512" viewBox="0 0 512 512" width="512" xmlns="http://www.w3.org/2000/svg"><path d="m136.963 450.324h-31.206c-10.216 0-18.498-8.282-18.498-18.498v-25.328h68.203v25.328c-.001 10.216-8.283 18.498-18.499 18.498z" fill="#8eafe2"/><path d="m375.037 450.324h31.206c10.216 0 18.498-8.282 18.498-18.498v-25.328h-68.203v25.328c.001 10.216 8.283 18.498 18.499 18.498z" fill="#8eafe2"/><path d="m430.309 415.431h-348.618c-40.975 0-74.191-33.217-74.191-74.191v-205.373c0-40.975 33.217-74.191 74.191-74.191h348.617c40.975 0 74.191 33.217 74.191 74.191v205.373c.001 40.975-33.216 74.191-74.19 74.191z" fill="#4e5660"/><path d="m126.009 61.676h-44.318c-40.974 0-74.191 33.217-74.191 74.191v205.373c0 40.975 33.217 74.191 74.191 74.191h100.342c-53.346-75.077-62.743-244.777-56.024-353.755z" fill="#383c43"/><path d="m430.309 61.676h-348.618c-40.974 0-74.191 33.217-74.191 74.191v26.297h497v-26.297c0-40.974-33.216-74.191-74.191-74.191z" fill="#a3defe"/><path d="m126.009 61.676h-44.318c-40.974 0-74.191 33.217-74.191 74.191v26.297h117.201c-1.17-35.937-.54-70.508 1.308-100.488z" fill="#7acefa"/><circle cx="188.772" cy="218.458" fill="#f7ef87" r="21.755"/><path d="m206.733 336.391h-35.923c-5.935 0-10.747-4.812-10.747-10.747v-15.242c0-5.935 4.812-10.747 10.747-10.747h35.923c5.935 0 10.747 4.812 10.747 10.747v15.242c0 5.935-4.811 10.747-10.747 10.747z" fill="#fff"/><circle cx="306.727" cy="218.458" fill="#e8899e" r="21.755"/><path d="m324.689 354.759h-35.923c-5.935 0-10.747-4.812-10.747-10.747v-15.242c0-5.935 4.812-10.747 10.747-10.747h35.923c5.935 0 10.747 4.812 10.747 10.747v15.242c0 5.936-4.812 10.747-10.747 10.747z" fill="#fff"/><circle cx="424.682" cy="218.458" fill="#8eafe2" r="21.755"/><path d="m442.644 320.889h-35.923c-5.935 0-10.747-4.812-10.747-10.747v-15.242c0-5.935 4.812-10.747 10.747-10.747h35.923c5.935 0 10.747 4.812 10.747 10.747v15.242c0 5.935-4.812 10.747-10.747 10.747z" fill="#fff"/><path d="m101.035 370.643h-27.554c-6.245 0-11.308-5.063-11.308-11.308v-18.005c0-6.245 5.063-11.308 11.308-11.308h27.554c6.245 0 11.308 5.063 11.308 11.308v18.005c0 6.245-5.062 11.308-11.308 11.308z" fill="#8eafe2"/><path d="m133.744 132.23h-55.346c-8.117 0-14.696-6.58-14.696-14.696v-11.229c0-8.117 6.58-14.696 14.696-14.696h55.346c8.116 0 14.696 6.58 14.696 14.696v11.229c0 8.117-6.58 14.696-14.696 14.696z" fill="#f7ef87"/><path d="m124.634 91.609h-46.236c-8.117 0-14.696 6.58-14.696 14.696v11.229c0 8.116 6.579 14.696 14.696 14.696h45.735c-.081-13.972.096-27.583.501-40.621z" fill="#efd176"/><ellipse cx="216.443" cy="130.422" fill="#fff" rx="33.313" ry="26.529"/><path d="m363.698 130.283c.014 14.652 14.94 26.515 33.338 26.497 18.398-.017 33.302-11.909 33.288-26.56-.014-14.652-14.94-26.515-33.338-26.497-18.398.017-33.301 11.908-33.288 26.56z" fill="#fff"/><ellipse cx="306.716" cy="118.015" fill="#4e5660" rx="14.903" ry="17.091"/><path d="m62.174 252.128h50.17c4.142 0 7.5-3.358 7.5-7.5s-3.358-7.5-7.5-7.5h-50.17c-4.143 0-7.5 3.358-7.5 7.5s3.357 7.5 7.5 7.5zm90.39 58.274v15.242c0 10.062 8.185 18.247 18.247 18.247h10.462v36.799c0 4.142 3.357 7.5 7.5 7.5 4.142 0 7.5-3.358 7.5-7.5v-36.799h10.461c10.062 0 18.247-8.186 18.247-18.247v-15.242c0-10.062-8.186-18.247-18.247-18.247h-10.461v-23.559c0-4.142-3.358-7.5-7.5-7.5-4.143 0-7.5 3.358-7.5 7.5v23.559h-10.462c-10.062 0-18.247 8.186-18.247 18.247zm15 0c0-1.791 1.457-3.247 3.247-3.247h35.923c1.79 0 3.247 1.456 3.247 3.247v15.242c0 1.791-1.457 3.247-3.247 3.247h-35.923c-1.79 0-3.247-1.457-3.247-3.247zm-105.39-97.798h50.17c4.142 0 7.5-3.358 7.5-7.5s-3.358-7.5-7.5-7.5h-50.17c-4.143 0-7.5 3.358-7.5 7.5s3.357 7.5 7.5 7.5zm0 79.049h50.17c4.142 0 7.5-3.358 7.5-7.5s-3.358-7.5-7.5-7.5h-50.17c-4.143 0-7.5 3.358-7.5 7.5s3.357 7.5 7.5 7.5zm439.015-196.425c-2.065-3.593-6.649-4.83-10.239-2.768-3.591 2.063-4.83 6.648-2.767 10.239 5.769 10.042 8.817 21.511 8.817 33.168v18.797h-482v-18.797c0-36.774 29.918-66.691 66.691-66.691h348.617c12.342 0 24.393 3.395 34.852 9.818 3.525 2.167 8.146 1.064 10.315-2.465 2.168-3.53 1.064-8.148-2.466-10.316-12.82-7.875-27.586-12.037-42.701-12.037h-348.617c-45.045 0-81.691 36.646-81.691 81.691v183.824c0 4.142 3.357 7.5 7.5 7.5s7.5-3.358 7.5-7.5v-150.027h482v171.576c0 36.774-29.918 66.691-66.691 66.691h-348.618c-31.576 0-59.06-22.418-65.349-53.305-.827-4.059-4.787-6.681-8.846-5.853-4.06.827-6.68 4.787-5.853 8.846 7.578 37.211 40.256 64.37 78.114 65.269v8.937c0 14.335 11.663 25.998 25.999 25.998h31.206c14.335 0 25.998-11.663 25.998-25.998v-8.894h186.078v8.894c0 14.335 11.663 25.998 25.998 25.998h31.206c14.336 0 25.999-11.663 25.999-25.998v-8.943c44.154-1.034 79.759-37.245 79.759-81.642v-205.373c0-14.275-3.738-28.327-10.811-40.639zm-353.228 336.598c0 6.064-4.934 10.998-10.998 10.998h-31.206c-6.064 0-10.999-4.934-10.999-10.998v-8.894h53.203zm269.281 0c0 6.064-4.935 10.998-10.999 10.998h-31.206c-6.064 0-10.998-4.934-10.998-10.998v-8.894h53.203zm-338.844-347.717c-12.239 0-22.196 9.957-22.196 22.196v11.229c0 12.239 9.957 22.196 22.196 22.196h55.346c12.239 0 22.196-9.957 22.196-22.196v-11.229c0-12.239-9.957-22.196-22.196-22.196zm62.542 22.197v11.229c0 3.968-3.229 7.196-7.196 7.196h-55.346c-3.968 0-7.196-3.228-7.196-7.196v-11.229c0-3.968 3.229-7.196 7.196-7.196h55.346c3.968-.001 7.196 3.227 7.196 7.196zm242.566-14.332c-1.501 1.725-3.667 2.715-5.942 2.717h-.008c-2.273 0-4.438-.986-5.939-2.706-2.725-3.121-7.462-3.441-10.582-.717s-3.441 7.462-.717 10.582c4.352 4.983 10.633 7.84 17.238 7.84h.021c6.613-.006 12.898-2.876 17.245-7.873 2.719-3.125 2.39-7.862-.735-10.581-3.125-2.716-7.862-2.387-10.581.738zm70.432 126.484c0-16.131-13.124-29.255-29.255-29.255-16.132 0-29.256 13.124-29.256 29.255s13.124 29.255 29.256 29.255c16.131 0 29.255-13.124 29.255-29.255zm-43.511 0c0-7.86 6.396-14.255 14.256-14.255s14.255 6.395 14.255 14.255-6.395 14.255-14.255 14.255c-7.861 0-14.256-6.395-14.256-14.255zm-103.735-125.034c-12.354.012-22.393 11.053-22.38 24.612.006 6.378 2.218 12.419 6.228 17.009 4.26 4.877 10.004 7.562 16.178 7.562h.02c12.353-.012 22.393-11.053 22.381-24.612 0 0 0 0 0-.001-.014-13.553-10.063-24.57-22.407-24.57zm7.427 24.585c.005 5.199-3.382 9.594-7.395 9.598h-.006c-2.4 0-4.089-1.522-4.882-2.43-1.602-1.834-2.522-4.441-2.524-7.154-.005-5.199 3.381-9.595 7.394-9.599h.006c4.01 0 7.402 4.388 7.407 9.585zm-72.352-25.902c-1.501 1.725-3.667 2.716-5.941 2.718h-.007c-2.275 0-4.439-.986-5.941-2.706-2.724-3.121-7.463-3.441-10.582-.717-3.12 2.724-3.441 7.462-.717 10.582 4.352 4.983 10.634 7.84 17.24 7.84h.02c6.612-.006 12.898-2.875 17.245-7.872 2.719-3.125 2.39-7.862-.735-10.581-3.126-2.718-7.864-2.389-10.582.736zm94.215 126.351c0-16.131-13.124-29.255-29.255-29.255-16.132 0-29.256 13.124-29.256 29.255s13.124 29.255 29.256 29.255c16.131 0 29.255-13.124 29.255-29.255zm-43.51 0c0-7.86 6.395-14.255 14.256-14.255 7.86 0 14.255 6.395 14.255 14.255s-6.395 14.255-14.255 14.255c-7.861 0-14.256-6.395-14.256-14.255zm-21.953 110.312v15.242c0 10.061 8.186 18.247 18.247 18.247h10.462v18.431c0 4.142 3.357 7.5 7.5 7.5s7.5-3.358 7.5-7.5v-18.431h10.461c10.061 0 18.247-8.186 18.247-18.247v-15.242c0-10.061-8.185-18.247-18.247-18.247h-10.461v-41.927c0-4.142-3.357-7.5-7.5-7.5s-7.5 3.358-7.5 7.5v41.927h-10.462c-10.062 0-18.247 8.185-18.247 18.247zm15 0c0-1.79 1.457-3.247 3.247-3.247h35.923c1.79 0 3.247 1.457 3.247 3.247v15.242c0 1.79-1.457 3.247-3.247 3.247h-35.923c-1.79 0-3.247-1.457-3.247-3.247zm102.955-33.87v15.242c0 10.062 8.186 18.247 18.247 18.247h10.462v52.301c0 4.142 3.357 7.5 7.5 7.5s7.5-3.358 7.5-7.5v-52.301h10.461c10.062 0 18.247-8.186 18.247-18.247v-15.242c0-10.061-8.185-18.247-18.247-18.247h-10.461v-8.057c0-4.142-3.357-7.5-7.5-7.5s-7.5 3.358-7.5 7.5v8.057h-10.462c-10.062 0-18.247 8.185-18.247 18.247zm15 0c0-1.79 1.457-3.247 3.247-3.247h35.923c1.79 0 3.247 1.457 3.247 3.247v15.242c0 1.79-1.457 3.247-3.247 3.247h-35.923c-1.79 0-3.247-1.457-3.247-3.247zm-185.447-76.442c0-16.131-13.124-29.255-29.255-29.255-16.132 0-29.256 13.124-29.256 29.255s13.124 29.255 29.256 29.255c16.131 0 29.255-13.124 29.255-29.255zm-43.51 0c0-7.86 6.395-14.255 14.256-14.255 7.86 0 14.255 6.395 14.255 14.255s-6.395 14.255-14.255 14.255c-7.861 0-14.256-6.395-14.256-14.255z"/></svg>