<svg id="Capa_1" enable-background="new 0 0 512 512" height="512" viewBox="0 0 512 512" width="512" xmlns="http://www.w3.org/2000/svg"><path d="m489.12 168.763-320.342 320.343c-20.507 20.507-53.755 20.507-74.263 0l-71.635-71.635c-20.507-20.507-20.507-53.755 0-74.262l320.342-320.343c20.507-20.507 53.755-20.507 74.263 0l71.635 71.635c20.507 20.507 20.507 53.755 0 74.262z" fill="#89d47f"/><path d="m185.392 180.697-162.512 162.511c-20.507 20.507-20.507 53.755 0 74.262l71.635 71.635c20.507 20.507 53.756 20.507 74.263 0l70.707-70.707c-36.374-55.99-53.975-161.36-54.093-237.701z" fill="#5ec783"/><path d="m468.01 256.376-211.62 211.62c-11.771 11.771-30.857 11.771-42.628 0l-23.874-23.874c-11.771-11.771-11.771-30.856 0-42.628l211.62-211.62c11.771-11.771 30.857-11.771 42.628 0l23.874 23.874c11.771 11.771 11.771 30.856 0 42.628z" fill="#f7ef87"/><path d="m307.4 416.985c-24.875-18.367-36.37-61.896-36.351-96.654l-81.161 81.162c-11.771 11.771-11.771 30.856 0 42.628l23.874 23.874c11.771 11.771 30.856 11.771 42.628 0z" fill="#efd176"/><path d="m368.624 115.762-252.848 252.848c-14.639 14.639-38.374 14.639-53.013 0l-32.482-32.482c-14.639-14.639-14.639-38.374 0-53.013l252.848-252.848c14.639-14.639 38.374-14.639 53.013 0l32.482 32.482c14.639 14.64 14.639 38.374 0 53.013z" fill="#f7ef87"/><path d="m179.175 134.221-148.894 148.894c-14.639 14.639-14.639 38.374 0 53.013l32.482 32.482c14.639 14.639 38.374 14.639 53.013 0l87.019-87.019c-21.991-34.004-28.668-100.516-23.62-147.37z" fill="#efd176"/><circle cx="121.7" cy="438.081" fill="#f7ef87" r="22.766"/><path d="m121.7 468.347c-4.142 0-7.5-3.358-7.5-7.5v-45.533c0-4.142 3.358-7.5 7.5-7.5s7.5 3.358 7.5 7.5v45.533c0 4.142-3.358 7.5-7.5 7.5z" fill="#efd176"/><circle cx="438.095" cy="121.686" fill="#f7ef87" r="22.766"/><path d="m438.095 151.952c-4.142 0-7.5-3.358-7.5-7.5v-45.533c0-4.142 3.358-7.5 7.5-7.5s7.5 3.358 7.5 7.5v45.533c0 4.142-3.358 7.5-7.5 7.5z" fill="#efd176"/><ellipse cx="161.329" cy="265.509" fill="#eda1ab" rx="27.185" ry="21.649" transform="matrix(.707 -.707 .707 .707 -140.491 191.842)"/><ellipse cx="265.523" cy="161.315" fill="#eda1ab" rx="27.185" ry="21.649" transform="matrix(.707 -.707 .707 .707 -36.297 234.999)"/><path d="m227.898 317.784c-1.919 0-3.839-.733-5.303-2.197-2.929-2.929-2.929-7.678 0-10.607l82.399-82.399c2.929-2.929 7.678-2.929 10.607 0s2.929 7.678 0 10.607l-82.399 82.399c-1.465 1.464-3.384 2.197-5.304 2.197z" fill="#fff"/><path d="m231.481 408.604c-2.929-2.93-7.678-2.929-10.607 0s-2.929 7.677 0 10.606l17.798 17.799c1.464 1.465 3.384 2.197 5.303 2.197s3.839-.732 5.303-2.197c2.929-2.929 2.929-7.677 0-10.606zm38.483-2.886c1.464 1.464 3.384 2.197 5.303 2.197s3.839-.732 5.303-2.197c2.929-2.929 2.929-7.678 0-10.606l-17.799-17.799c-2.929-2.929-7.678-2.929-10.606 0-2.929 2.929-2.929 7.678 0 10.607zm242.036-274.086c0-16.03-6.242-31.1-17.577-42.435l-71.635-71.635c-23.398-23.398-61.471-23.398-84.869 0l-2.417 2.417c-17.543-12.345-42-10.691-57.676 4.984l-219.636 219.637c-2.929 2.929-2.929 7.678 0 10.606 2.929 2.929 7.678 2.929 10.606 0l219.637-219.636c11.643-11.642 30.553-11.687 42.256-.143.003.003.006.007.009.01.064.063.13.126.199.19l32.424 32.424c11.691 11.691 11.691 30.715 0 42.406l-252.848 252.85c-11.691 11.691-30.715 11.691-42.406 0l-32.423-32.423c-.063-.067-.126-.134-.191-.2-.003-.003-.007-.006-.01-.009-11.544-11.703-11.499-30.614.142-42.256l8.135-8.135c2.929-2.929 2.929-7.677 0-10.607-2.928-2.929-7.677-2.929-10.606 0l-8.135 8.135c-15.676 15.676-17.329 40.133-4.984 57.676l-2.417 2.417c-11.336 11.335-17.578 26.405-17.578 42.434 0 16.03 6.242 31.1 17.577 42.435l71.635 71.635c11.335 11.335 26.405 17.577 42.434 17.577 16.03 0 31.1-6.242 42.435-17.577l27.744-27.744 6.634 6.634c7.11 7.11 16.563 11.025 26.617 11.025 10.055 0 19.508-3.915 26.617-11.025l192.004-192.004c2.929-2.929 2.929-7.678 0-10.607s-7.678-2.929-10.607 0l-192.004 192.004c-4.277 4.277-9.962 6.632-16.011 6.632-6.048 0-11.734-2.355-16.011-6.632l-23.874-23.874c-8.828-8.829-8.828-23.193 0-32.021l211.62-211.62c4.277-4.276 9.963-6.632 16.011-6.632s11.734 2.355 16.011 6.632l23.874 23.874c7.054 7.054 8.679 17.719 4.044 26.539-1.927 3.667-.517 8.201 3.15 10.128 3.668 1.925 8.201.517 10.128-3.15 7.708-14.667 5.009-32.399-6.715-44.124l-6.634-6.634 27.744-27.744c11.335-11.334 17.577-26.404 17.577-42.434zm-55.928 59.572-6.634-6.634c-14.677-14.677-38.558-14.677-53.234 0l-211.62 211.62c-7.11 7.11-11.025 16.563-11.025 26.617s3.915 19.507 11.025 26.617l6.634 6.634-27.744 27.744c-8.501 8.501-19.805 13.184-31.828 13.184s-23.326-4.682-31.828-13.184l-71.635-71.635c-8.501-8.501-13.183-19.804-13.183-31.828 0-12.023 4.682-23.326 13.184-31.828l1.937-1.937 27.339 27.339c8.77 8.77 20.29 13.155 31.81 13.155s23.04-4.385 31.81-13.155l252.848-252.848c17.54-17.54 17.54-46.079 0-63.619l-27.34-27.34 1.937-1.937c17.55-17.55 46.106-17.55 63.656 0l71.635 71.635c8.501 8.501 13.184 19.805 13.184 31.828s-4.682 23.326-13.184 31.828zm-355.774 225.475c-5.717 5.717-8.865 13.317-8.865 21.402s3.148 15.685 8.865 21.401c5.901 5.901 13.65 8.851 21.401 8.851 7.749 0 15.501-2.951 21.401-8.851 5.717-5.716 8.865-13.317 8.865-21.401s-3.148-15.685-8.865-21.402c-11.8-11.801-31.001-11.801-42.802 0zm32.197 32.197c-5.952 5.952-15.637 5.953-21.59 0-2.884-2.884-4.472-6.717-4.472-10.795s1.588-7.912 4.472-10.795c2.976-2.976 6.886-4.464 10.795-4.464s7.819 1.488 10.795 4.464c2.883 2.884 4.472 6.717 4.472 10.795-.001 4.078-1.589 7.911-4.472 10.795zm284.198-348.592c-11.801 11.801-11.801 31.002 0 42.803 5.9 5.9 13.651 8.851 21.401 8.851 7.751 0 15.501-2.95 21.402-8.851 11.801-11.801 11.801-31.002 0-42.803-11.799-11.8-31.001-11.801-42.803 0zm32.197 32.196c-5.952 5.953-15.638 5.952-21.59 0s-5.952-15.638 0-21.59c2.976-2.976 6.886-4.464 10.795-4.464s7.819 1.488 10.795 4.464c5.952 5.953 5.952 15.638 0 21.59zm-204.205 15.824c2.929 2.929 7.678 2.929 10.606 0 2.929-2.929 2.929-7.678 0-10.607-8.322-8.322-21.862-8.322-30.185 0-8.322 8.322-8.322 21.863 0 30.185 1.464 1.464 3.384 2.197 5.303 2.197s3.839-.732 5.303-2.197c2.929-2.929 2.929-7.678 0-10.607-1.198-1.198-1.858-2.791-1.858-4.486 0-1.694.66-3.288 1.858-4.486 2.475-2.473 6.499-2.473 8.973.001zm-91.991 85.647c1.694 0 3.288.66 4.485 1.858 2.929 2.928 7.678 2.929 10.607.001 2.929-2.929 2.929-7.678.001-10.607-4.031-4.032-9.392-6.252-15.093-6.252s-11.061 2.22-15.093 6.252c-8.322 8.322-8.322 21.863 0 30.185 1.464 1.464 3.384 2.197 5.303 2.197s3.839-.732 5.303-2.197c2.929-2.929 2.929-7.678 0-10.606-1.198-1.198-1.858-2.792-1.858-4.486s.66-3.288 1.858-4.486c1.199-1.199 2.792-1.859 4.487-1.859zm148.56 140.477c1.464 1.464 3.384 2.197 5.303 2.197s3.839-.733 5.303-2.197c2.929-2.929 2.929-7.678 0-10.607l-17.799-17.799c-2.929-2.929-7.678-2.929-10.606 0-2.929 2.929-2.929 7.678 0 10.607zm125.162-125.162c1.464 1.464 3.384 2.197 5.303 2.197s3.839-.732 5.303-2.197c2.929-2.929 2.929-7.678 0-10.607l-17.799-17.799c-2.929-2.929-7.678-2.929-10.606 0-2.929 2.929-2.929 7.678 0 10.606zm-239.048-62.802c-2.929 2.929-2.929 7.678 0 10.607s7.678 2.929 10.606 0c1.413-1.412 3.711-1.412 5.124 0 1.413 1.413 1.413 3.711 0 5.124-2.929 2.929-2.929 7.678 0 10.606.366.366.761.687 1.176.961 1.248.824 2.687 1.236 4.127 1.236 1.439 0 2.879-.412 4.127-1.236.416-.274.81-.595 1.176-.961 1.413-1.412 3.711-1.412 5.124 0 1.413 1.413 1.413 3.712 0 5.124-2.929 2.929-2.929 7.678 0 10.606 1.464 1.464 3.384 2.197 5.303 2.197s3.839-.732 5.303-2.197c7.261-7.261 7.261-19.076 0-26.337-2.95-2.95-6.654-4.681-10.497-5.234-.553-3.842-2.283-7.547-5.233-10.497-7.26-7.261-19.075-7.261-26.336.001zm207.758 94.092c1.464 1.464 3.384 2.197 5.303 2.197s3.839-.732 5.303-2.197c2.929-2.929 2.929-7.678 0-10.606l-17.799-17.799c-2.929-2.929-7.678-2.929-10.607 0s-2.929 7.678 0 10.607zm-62.581 62.581c1.464 1.464 3.384 2.197 5.303 2.197s3.839-.732 5.303-2.197c2.929-2.929 2.929-7.678 0-10.607l-17.799-17.799c-2.929-2.929-7.678-2.929-10.606 0-2.929 2.929-2.929 7.678 0 10.606zm31.29-31.29c1.464 1.464 3.384 2.197 5.303 2.197s3.839-.732 5.303-2.197c2.929-2.929 2.929-7.678 0-10.606l-17.799-17.799c-2.929-2.929-7.678-2.929-10.607 0s-2.929 7.678 0 10.606z"/></svg>