<svg id="Capa_1" enable-background="new 0 0 511.985 511.985" height="512" viewBox="0 0 511.985 511.985" width="512" xmlns="http://www.w3.org/2000/svg"><path d="m325.842 226.433 4.967 76.489c.945 14.553-10.604 26.876-25.187 26.876h-11.137c-13.03 0-23.918-9.918-25.131-22.891l-17.437-186.553c-3.58-38.306-35.73-67.591-74.203-67.591h-49.75v48.355h30.194c11.291 0 20.444 9.153 20.444 20.444v212.69c0 63.358 51.362 114.719 114.719 114.719h18.905c88.838 0 160.855-72.017 160.855-160.855v-61.682h-147.239z" fill="#f7ef87"/><path d="m329.357 280.566h143.725v-54.133h-147.24z" fill="#efd176"/><path d="m285.672 328.195c-8.836-3.297-15.393-11.397-16.318-21.289l-17.437-186.553c-3.58-38.306-35.73-67.591-74.203-67.591h-49.75v48.355h30.194c11.291 0 20.444 9.153 20.444 20.444v212.69c0 63.358 51.362 114.719 114.719 114.719h18.905c15.907 0 31.27-2.32 45.781-6.621-41.861-19.522-67.36-77.168-72.335-114.154z" fill="#efd176"/><path d="m483.107 215.325h-165.117c-11.807 0-21.378 9.571-21.378 21.378 0 11.807 9.571 21.378 21.378 21.378h165.117c11.807 0 21.378-9.571 21.378-21.378 0-11.807-9.571-21.378-21.378-21.378z" fill="#eea849"/><path d="m385.653 215.325h-67.663c-11.807 0-21.378 9.571-21.378 21.378 0 11.807 9.571 21.378 21.378 21.378h71.259c-5.155-10.834-9.324-30.078-3.596-42.756z" fill="#e9901b"/><ellipse cx="244.49" cy="261.969" fill="#f7ef87" rx="25.267" ry="25.267" transform="matrix(.898 -.44 .44 .898 -90.315 134.263)"/><path d="m55.81 112.201h66.704c10.436 0 18.896-8.46 18.896-18.896v-32.73c0-10.436-8.46-18.897-18.896-18.897h-19.177c-9.335 0-18.554 2.062-26.999 6.039l-28.577 13.455c-6.621 3.118-10.847 9.778-10.847 17.097v15.036c0 10.435 8.46 18.896 18.896 18.896z" fill="#4e5660"/><path d="m31.77 283.549c10.66-10.66 48.438-39.369 80.011-56.142 15.184-8.066 34.028-3.144 43.32 11.322 11.233 17.487 25.953 36.979 36.476 47.502s30.015 25.243 47.502 36.476c14.466 9.292 19.388 28.137 11.322 43.32-16.773 31.573-45.482 69.35-56.142 80.011z" fill="#4e5660"/><path d="m31.77 283.549 95.054 95.054c-15.849-42.163-22.751-112.285-17.918-149.645-30.953 16.939-66.797 44.252-77.136 54.591z" fill="#383c43"/><path d="m72.996 251.383c15.82 18.804 46.191 53.118 73.251 80.178s61.374 57.431 80.178 73.251c-12.901 18.699-25.776 34.836-32.166 41.226l-162.489-162.489c6.39-6.39 22.527-19.265 41.226-32.166z" fill="#c6c6c6"/><path d="m109.135 292.48c-14.452-15.857-27.478-30.802-36.139-41.097-18.699 12.901-34.836 25.776-41.226 32.166l95.054 95.054c-8.841-23.52-14.899-55.737-17.689-86.123z" fill="#9aa3b1"/><path d="m14.838 310.1 152.87 152.87c9.804 9.804 25.7 9.804 35.504 0 10.585-10.585 10.585-27.747 0-38.332l-45.879-45.879c-9.55-9.55-21.021-16.961-33.653-21.741-12.632-4.781-24.103-12.191-33.653-21.742l-60.68-60.68c-4.007-4.007-10.503-4.007-14.51 0-9.803 9.804-9.803 25.699.001 35.504z" fill="#4e5660"/><ellipse cx="241.265" cy="172.295" fill="#f7ef87" rx="25.267" ry="25.267" transform="matrix(.23 -.973 .973 .23 18.148 367.521)"/><ellipse cx="317.856" cy="374.091" fill="#eda1ab" rx="18.707" ry="14.898"/><ellipse cx="419.256" cy="374.091" fill="#eda1ab" rx="18.707" ry="14.898"/><path d="m483.107 207.825h-5.255c-4.143 0-7.5 3.358-7.5 7.5s3.357 7.5 7.5 7.5h5.255c7.652 0 13.878 6.226 13.878 13.878s-6.226 13.878-13.878 13.878h-165.117c-7.652 0-13.878-6.226-13.878-13.878s6.225-13.878 13.878-13.878h123.77c4.143 0 7.5-3.358 7.5-7.5s-3.357-7.5-7.5-7.5h-123.77c-15.924 0-28.878 12.955-28.878 28.878s12.954 28.878 28.878 28.878h2.878l2.457 37.828c.321 4.947-1.368 9.663-4.758 13.28-3.391 3.617-7.987 5.609-12.944 5.609h-11.138c-9.212 0-16.806-6.917-17.662-16.089l-2.807-30.036c2.076-4.299 3.241-9.117 3.241-14.202 0-7.256-2.375-13.966-6.382-19.402l-4.593-49.142c4.831-5.71 7.752-13.084 7.752-21.131 0-10.239-4.723-19.392-12.102-25.406l-2.545-27.234c-1.906-20.391-11.293-39.216-26.434-53.007-15.14-13.791-34.757-21.386-55.237-21.386h-33.719c-4.792-6.702-12.632-11.084-21.481-11.084h-19.178c-10.371 0-20.812 2.335-30.194 6.753l-28.578 13.455c-9.204 4.333-15.152 13.708-15.152 23.881v15.036c0 14.555 11.841 26.396 26.396 26.396h66.704c8.849 0 16.689-4.381 21.481-11.084h14.163c7.137 0 12.944 5.807 12.944 12.944v127.461c-3.327-4.703-6.604-9.542-9.69-14.346-11.313-17.612-34.659-23.714-53.149-13.892-26.64 14.152-56.692 36.002-72.74 49.379l-.87-.87c-6.925-6.925-18.192-6.924-25.117 0-12.713 12.712-12.713 33.398 0 46.11l121.165 121.168c2.929 2.93 7.678 2.929 10.607 0s2.929-7.678 0-10.606l-121.167-121.168c-6.864-6.864-6.864-18.033 0-24.897 1.075-1.076 2.827-1.077 3.904 0l60.679 60.679c10.371 10.371 22.584 18.262 36.301 23.453 11.716 4.434 22.147 11.173 31.004 20.03l45.879 45.879c3.703 3.703 5.742 8.626 5.742 13.863s-2.039 10.16-5.742 13.863c-6.864 6.865-18.034 6.864-24.898 0l-6.354-6.353c-2.929-2.929-7.678-2.929-10.607 0s-2.929 7.678 0 10.606l6.354 6.354c6.357 6.357 14.705 9.535 23.056 9.535 8.348 0 16.7-3.179 23.055-9.535 6.536-6.536 10.136-15.226 10.136-24.469 0-4.317-.795-8.51-2.298-12.423.341-.443.691-.904 1.037-1.357 21.55 17.108 48.209 26.447 75.931 26.447h18.905c92.831 0 168.355-75.524 168.355-168.355v-22.536h2.525c15.924 0 28.878-12.955 28.878-28.878.002-15.923-12.952-28.877-28.876-28.877zm-349.196-114.521c0 6.284-5.112 11.396-11.397 11.396h-66.703c-6.284 0-11.396-5.112-11.396-11.396v-15.036c0-4.393 2.568-8.44 6.542-10.311l28.578-13.457c7.396-3.483 15.627-5.324 23.803-5.324h19.178c6.284 0 11.397 5.112 11.397 11.396v32.732zm126.662 161.166h-6.305c-4.142 0-7.5 3.358-7.5 7.5s3.358 7.5 7.5 7.5h6.305c-2.835 6.054-8.969 10.267-16.083 10.267-9.796 0-17.767-7.97-17.767-17.767s7.97-17.767 17.767-17.767c7.114-.001 13.248 4.213 16.083 10.267zm-3.224-89.675h-6.305c-4.142 0-7.5 3.358-7.5 7.5s3.358 7.5 7.5 7.5h6.305c-2.835 6.054-8.969 10.267-16.084 10.267-9.797 0-17.767-7.97-17.767-17.767 0-9.796 7.97-17.767 17.767-17.767 7.115 0 13.249 4.213 16.084 10.267zm-49.881 253.492-44.832-44.832c-10.371-10.371-22.584-18.261-36.301-23.453-11.715-4.433-22.146-11.172-31.004-20.03l-49.16-49.16c6.697-5.524 15.635-12.348 25.533-19.359 15.243 17.841 43.038 49.21 69.24 75.411 26.207 26.207 57.58 54.006 75.419 69.247-3.052 4.304-6.046 8.394-8.895 12.176zm-55.918-92.029c-25.316-25.315-52.153-55.535-67.417-73.35 10.365-6.911 21.165-13.564 31.166-18.877 11.652-6.19 26.363-2.346 33.492 8.751 7.411 11.537 15.926 23.342 23.785 33.138.116.157.236.31.364.457 4.846 6.018 9.431 11.253 13.334 15.156 10.313 10.314 29.905 25.377 48.752 37.483 11.097 7.129 14.942 21.84 8.751 33.492-5.419 10.202-12.057 20.964-18.866 31.176-17.813-15.261-48.038-42.104-73.361-67.426zm314.032-38.142c0 84.56-68.795 153.355-153.355 153.355h-18.905c-24.485 0-48.022-8.306-66.993-23.509 2.074-2.883 4.181-5.864 6.298-8.932 0-.001.001-.001.001-.002 8.681-12.582 17.477-26.458 24.396-39.482 9.823-18.49 3.722-41.835-13.891-53.149-18.034-11.585-36.621-25.839-46.252-35.469-3.175-3.176-6.859-7.339-10.778-12.121v-147.246c0-15.409-12.536-27.944-27.944-27.944h-9.255c.001-.104.008-.208.008-.313v-32.73c0-.105-.007-.208-.008-.313h28.811c16.735 0 32.764 6.206 45.136 17.476 12.372 11.269 20.042 26.651 21.6 43.313l1.762 18.851c-1.614-.245-3.265-.374-4.947-.374-18.068 0-32.767 14.699-32.767 32.767s14.699 32.767 32.767 32.767c3.807 0 7.462-.66 10.864-1.859l2.583 27.641c-3.219-1.06-6.654-1.642-10.223-1.642-18.067 0-32.767 14.699-32.767 32.767 0 18.067 14.699 32.767 32.767 32.767 5.732 0 11.122-1.483 15.813-4.08l1.584 16.948c1.582 16.928 15.596 29.694 32.598 29.694h11.138c9.017 0 17.724-3.773 23.889-10.352 6.166-6.579 9.366-15.513 8.782-24.51l-2.394-36.855h129.682zm-57.229 78.423c5.867 0 11.446-2.541 15.307-6.97 2.722-3.123 2.396-7.86-.727-10.582-3.125-2.721-7.86-2.397-10.582.727-.594.681-1.903 1.825-3.998 1.825s-3.404-1.144-3.998-1.825c-2.722-3.124-7.46-3.448-10.582-.727s-3.448 7.459-.727 10.582c3.861 4.429 9.44 6.97 15.307 6.97zm-39.797 9.237c4.122 0 7.463-3.563 7.463-7.959s-3.341-7.959-7.463-7.959-7.463 3.564-7.463 7.959c0 4.396 3.341 7.959 7.463 7.959zm-35.8-26.062c-.594.681-1.903 1.825-3.998 1.825s-3.404-1.144-3.999-1.826c-2.723-3.122-7.459-3.446-10.582-.725-3.122 2.722-3.446 7.46-.725 10.582 3.861 4.429 9.439 6.969 15.306 6.969s11.446-2.541 15.307-6.97c2.722-3.123 2.395-7.86-.727-10.582-3.125-2.721-7.859-2.396-10.582.727z"/></svg>