<svg id="Capa_1" enable-background="new 0 0 512.015 512.015" height="512" viewBox="0 0 512.015 512.015" width="512" xmlns="http://www.w3.org/2000/svg"><ellipse cx="162.773" cy="349.711" fill="#e1b89a" rx="154.015" ry="154.809"/><path d="m241.711 482.674c-144.688-22.022-180.294-187.231-118.842-282.507-25.277 6.789-49.171 20.146-69.002 40.079-60.146 60.456-60.146 158.476 0 218.932 50.945 51.207 128.696 59.034 187.844 23.496z" fill="#d2996f"/><path d="m418.927 142.506-50.012-50.269-159.021 159.841 50.012 50.269z" fill="#d2996f"/><path d="m450.035 129.226-31.109 13.28-50.012-50.27 13.212-31.269c2.86-6.769 6.99-12.922 12.164-18.123l13.165-13.233c5.174-5.201 11.295-9.351 18.03-12.227l19.655-8.391c6.922-2.955 14.935-1.39 20.253 3.955l32.413 32.58c5.318 5.345 6.874 13.4 3.935 20.357l-8.348 19.756c-2.86 6.769-6.99 12.922-12.164 18.123l-13.164 13.236c-5.174 5.2-11.295 9.351-18.03 12.226z" fill="#4e5660"/><ellipse cx="162.773" cy="349.711" fill="#fcf2d0" rx="122.673" ry="123.305"/><path d="m194.189 468.889c-88.411-39.805-117.003-144.914-90.787-227.073-9.81 5.459-19.047 12.338-27.372 20.706-47.907 48.154-47.907 126.226 0 174.379 32.017 32.182 77.323 42.823 118.159 31.988z" fill="#f6e3a3"/><path d="m55.035 291.043-12.759-6.948c-8.488-4.622-19.039-.705-22.608 8.31-9.074 22.923-12.484 47.582-10.229 71.811.898 9.648 9.936 16.37 19.363 14.34l14.181-3.053c7.831-1.686 13.299-8.92 12.647-16.944-1.308-16.101.963-32.44 6.81-47.715 2.871-7.498-.376-15.974-7.405-19.801z" fill="#4e5660"/><path d="m100.477 426.723-14.322-14.396c-3.868-3.888-9.928-4.49-14.478-1.438l-33.767 22.647c-6.02 4.037-6.861 12.6-1.744 17.744l25.558 25.689c5.117 5.143 13.636 4.297 17.653-1.753l22.531-33.941c3.036-4.573 2.437-10.664-1.431-14.552z" fill="#4e5660"/><path d="m155.872 415.304c-1.926 0-3.852-.737-5.317-2.211l-50.895-51.157c-2.921-2.936-2.909-7.685.027-10.606 2.937-2.921 7.685-2.91 10.607.027l50.895 51.157c2.921 2.937 2.909 7.685-.027 10.607-1.464 1.455-3.377 2.183-5.29 2.183z" fill="#d2996f"/><path d="m283.476 185.391h15.001v70.91h-15.001z" fill="#f7ef87" transform="matrix(.709 -.705 .705 .709 -71.063 269.505)"/><path d="m338.435 130.149h15.001v70.91h-15.001z" fill="#f7ef87" transform="matrix(.709 -.705 .705 .709 -16.104 292.187)"/><ellipse cx="124.437" cy="298.297" fill="#eda1ab" rx="18.64" ry="23.408" transform="matrix(.715 -.699 .699 .715 -173.051 171.937)"/><ellipse cx="213.923" cy="388.244" fill="#eda1ab" rx="18.64" ry="23.408" transform="matrix(.715 -.699 .699 .715 -210.43 260.1)"/><path d="m427.578 91.041c-1.913 0-3.826-.727-5.29-2.183-2.936-2.921-2.948-7.67-.027-10.606l16.969-17.056c2.921-2.937 7.669-2.949 10.607-.027 2.936 2.921 2.948 7.67.027 10.606l-16.969 17.056c-1.465 1.473-3.391 2.21-5.317 2.21z" fill="#f7ef87"/><path d="m508.651 68.808c4.145-9.812 1.976-21.024-5.527-28.566l-32.415-32.581c-7.523-7.562-18.716-9.747-28.514-5.563l-19.654 8.391c-1.975.843-3.894 1.782-5.76 2.807l-1.581-1.581c-2.928-2.929-7.677-2.928-10.606.001-2.868 2.869-2.92 7.479-.169 10.419-.778.709-1.541 1.439-2.288 2.189l-13.163 13.232c-.711.715-1.401 1.445-2.075 2.188-2.939-2.791-7.581-2.753-10.463.129-2.93 2.929-2.93 7.678-.001 10.607l1.65 1.65c-1.048 1.917-2.009 3.888-2.867 5.919l-12.646 29.929-6.807 6.842c-2.922 2.936-2.91 7.685.026 10.606 1.464 1.456 3.377 2.183 5.29 2.183 1.926 0 3.852-.737 5.316-2.21l2.516-2.529 39.432 39.636-135.952 136.655c-4.957-7.775-10.804-15.138-17.561-21.929-6.721-6.755-14.05-12.674-21.859-17.719l108.144-108.708c2.921-2.937 2.908-7.686-.028-10.606-2.936-2.922-7.685-2.91-10.607.027l-87.894 88.352c-29.349-16.76-63.746-23.922-97.53-20.199-36.338 4.005-70.611 20.546-96.509 46.577-15.524 15.605-27.299 33.763-35.216 53.234-.227.477-.444.96-.64 1.454-.107.269-.193.541-.266.815-9.202 23.642-12.759 49.133-10.464 74.293.004.054.002.106.007.16.005.058.015.116.021.174 2.325 24.923 10.402 49.509 24.422 71.642-.512 1.444-.86 2.958-1.014 4.52-.564 5.69 1.423 11.275 5.45 15.323l25.557 25.689c3.587 3.605 8.391 5.589 13.407 5.589.624 0 1.251-.031 1.879-.092 1.56-.154 3.072-.502 4.514-1.016 25.905 16.576 55.621 25.275 86.488 25.275 1.473 0 2.951-.02 4.429-.06 34.075-.914 66.358-12.319 93.359-32.983 3.29-2.517 3.916-7.225 1.398-10.514-2.517-3.288-7.225-3.916-10.514-1.398-24.479 18.732-53.748 29.071-84.646 29.9-28.081.759-55.21-6.412-79.01-20.738l9.116-13.732c20.381 12.056 43.123 17.981 65.785 17.981 33.651 0 67.099-13.03 92.22-38.281 40.131-40.338 48.508-100.685 25.147-149.386l12.18-12.242c12.815 24.16 18.624 51.246 16.803 78.936-2.051 31.189-13.612 60.337-33.436 84.294-2.641 3.191-2.194 7.919.997 10.559 1.398 1.158 3.093 1.722 4.777 1.722 2.157 0 4.299-.926 5.782-2.719 21.847-26.402 34.588-58.517 36.847-92.873 2.107-32.052-5.051-63.39-20.729-91.019l120.014-120.633 29.765-12.706c1.974-.843 3.894-1.782 5.76-2.807l2.997 2.997c1.465 1.464 3.385 2.197 5.304 2.197s3.839-.732 5.304-2.197c2.929-2.929 2.929-7.678 0-10.606l-1.239-1.239c.774-.707 1.534-1.433 2.278-2.18l13.163-13.232c.708-.712 1.397-1.44 2.069-2.18l1.28 1.28c1.465 1.464 3.385 2.197 5.304 2.197s3.839-.732 5.304-2.197c2.929-2.929 2.929-7.678 0-10.606l-3.067-3.067c1.048-1.917 2.009-3.888 2.867-5.919zm-449.466 176.727c23.83-23.954 54.094-38.562 87.517-42.246 29.293-3.23 59.079 2.559 84.889 16.345l-12.176 12.24c-17.439-8.481-36.695-12.966-56.641-12.967-.003 0 .001 0-.001 0-34.775 0-67.474 13.612-92.06 38.326-7.127 7.163-13.364 15.105-18.638 23.659l-6.212-3.382c-2.876-1.566-6.014-2.49-9.206-2.765 6.149-10.467 13.662-20.299 22.528-29.21zm-42.279 117.987c-.001-.012-.004-.024-.005-.036-2.159-23.46 1.294-47.239 10.142-69.196 1.011-1.935 2.66-3.385 4.726-4.134 2.308-.835 4.765-.649 6.92.526l12.76 6.947c3.783 2.061 5.497 6.589 3.987 10.534-6.165 16.103-8.683 33.74-7.281 51.003.344 4.231-2.559 8.102-6.751 9.005l-.147.032-14.033 3.021c-2.402.518-4.816-.001-6.798-1.457-2.034-1.491-3.283-3.709-3.52-6.245zm3.819 22.392c1.552.319 3.134.499 4.726.499 1.643 0 3.296-.173 4.93-.524l6.873-1.48c3.028 11.119 7.48 21.706 13.297 31.619l-13.631 9.142c-7.399-12.441-12.785-25.671-16.195-39.256zm74.935 51.214-7.26 10.936c-.001.002-.002.003-.003.004-.001.002-.002.004-.004.006l-15.265 22.995c-.91 1.371-2.214 1.69-2.91 1.759-.692.07-2.027.01-3.179-1.148l-25.557-25.689c-1.172-1.177-1.227-2.552-1.157-3.267.07-.711.393-2.041 1.762-2.959l33.768-22.647c.664-.445 1.426-.663 2.184-.663 1.021 0 2.037.396 2.8 1.162l14.321 14.395c1.354 1.361 1.564 3.513.5 5.116zm148.537-5.517c-36.994 37.188-94.364 44.383-139.058 18.358l3.018-4.546c4.985-7.512 3.992-17.601-2.362-23.989 0-.001 0-.001-.001-.001l-14.321-14.395c-6.381-6.415-16.462-7.413-23.973-2.378l-4.467 2.996c-4.995-8.669-8.819-17.913-11.422-27.613 7.548-4.488 12.235-12.974 11.495-22.091-1.222-15.042.97-30.404 6.338-44.426 3.259-8.511 1.143-17.956-4.832-24.39 4.717-7.716 10.317-14.876 16.734-21.325 21.753-21.864 50.671-33.905 81.427-33.905 19.122 0 37.532 4.658 53.952 13.433.317.209.648.383.987.538 9.613 5.26 18.531 11.937 26.486 19.934 44.928 45.16 44.928 118.641-.001 163.8zm250.636-368.641-8.348 19.756c-1.177 2.786-2.598 5.431-4.236 7.93-.396.456-.734.945-1.001 1.463-1.595 2.253-3.368 4.382-5.336 6.36l-13.163 13.232c-4.517 4.539-9.785 8.112-15.658 10.619l-26.433 11.284-42.875-43.095 11.252-26.63c1.286-3.043 2.858-5.921 4.692-8.62.04-.058.083-.113.121-.172 1.7-2.478 3.618-4.807 5.76-6.96l13.163-13.232c4.515-4.538 9.783-8.111 15.658-10.619l19.654-8.391c4.117-1.758 8.824-.837 11.992 2.347l32.413 32.581c3.189 3.202 4.109 7.971 2.345 12.147zm-312.713 276.048c-2.336.161-4.64-.701-6.3-2.369-1.67-1.679-2.535-4.01-2.372-6.395.282-4.133-2.839-7.711-6.972-7.994-4.123-.287-7.711 2.839-7.993 6.971-.457 6.695 1.986 13.254 6.704 17.996 4.352 4.375 10.246 6.81 16.371 6.809.53 0 1.063-.018 1.595-.055 4.132-.285 7.251-3.866 6.966-7.999-.286-4.131-3.878-7.242-7.999-6.964zm36.488 6.505c-4.979 0-9.657 1.947-13.175 5.482-2.921 2.936-2.909 7.685.027 10.606 2.938 2.921 7.685 2.909 10.607-.027.918-.923 1.986-1.061 2.54-1.061.555 0 1.623.138 2.541 1.061 1.432 1.438 1.432 3.78 0 5.218-2.921 2.936-2.909 7.685.027 10.606 1.464 1.456 3.377 2.183 5.29 2.183 1.926 0 3.852-.737 5.317-2.21 7.234-7.272 7.234-19.105 0-26.376-3.516-3.535-8.195-5.482-13.174-5.482zm-57.068-65.123c-3.517-3.535-8.196-5.483-13.176-5.483-4.979 0-9.657 1.947-13.175 5.483-2.921 2.936-2.908 7.685.027 10.606 2.938 2.921 7.686 2.909 10.607-.027.918-.923 1.986-1.062 2.54-1.062.555 0 1.623.138 2.541 1.062 1.432 1.438 1.432 3.779 0 5.218-2.921 2.937-2.909 7.685.027 10.607 1.464 1.456 3.377 2.183 5.29 2.183 1.926 0 3.852-.737 5.317-2.211 7.237-7.272 7.237-19.104.002-26.376z"/></svg>