<svg id="Capa_1" enable-background="new 0 0 511.984 511.984" height="512" viewBox="0 0 511.984 511.984" width="512" xmlns="http://www.w3.org/2000/svg"><path d="m288.247 363.285c14.142-14.142 28.026-9.326 59.847-41.147 2.184-2.184 4.207-4.429 6.072-6.728 5.754-7.091 3.194-17.886-5.143-21.612-38.42-17.175-39-56.419-11.349-84.07l9.964-9.964c-4.816-6.571-10.271-12.954-16.359-19.042-43.694-43.694-102.194-56.037-141.417-16.815-31.821 31.821-27.005 45.705-41.147 59.847-27.632 27.632-54.14-12.938-108.93 41.852-49.352 49.353-41.524 126.537 19.275 187.336s137.982 68.627 187.336 19.273c54.789-54.79 14.219-81.298 41.851-108.93z" fill="#e8899e"/><path d="m253.131 465.089c-88.423-28.984-113.13-145.742-106.397-239.479-26.935 23.877-53.469-13.484-106.948 39.996-49.353 49.353-41.525 126.537 19.273 187.336 60.799 60.799 137.983 68.627 187.336 19.273 2.431-2.431 4.666-4.804 6.736-7.126z" fill="#de5c6e"/><path d="m294.941 81.609h50.065v220.836h-50.065z" fill="#fcf2d0" transform="matrix(.707 .707 -.707 .707 229.502 -170.012)"/><path d="m504.145 53.283-1.966-15.267c-1.895-14.715-13.479-26.299-28.194-28.194l-15.267-1.966c-13.008-1.675-26.057 2.775-35.331 12.049l-18.281 18.281c-9.81 9.81-16.641 22.197-19.702 35.728l-5.053 22.334 35.402 35.401 22.335-5.053c13.531-3.061 25.918-9.892 35.728-19.702l18.281-18.281c9.272-9.273 13.723-22.322 12.048-35.33z" fill="#e8899e"/><g fill="#fff"><path d="m437.412 82.089c-1.92 0-3.839-.732-5.304-2.197-2.929-2.929-2.929-7.678.001-10.606l16.116-16.116c2.929-2.93 7.678-2.929 10.606 0 2.929 2.929 2.929 7.678-.001 10.606l-16.116 16.116c-1.463 1.464-3.383 2.197-5.302 2.197z"/><circle cx="233.201" cy="412.497" r="15.885"/><circle cx="198.227" cy="457.314" r="15.885"/></g><path d="m269.38 210.089h15v50.065h-15z" fill="#c6c6c6" transform="matrix(.707 -.707 .707 .707 -85.16 264.65)"/><path d="m309.204 170.264h15v50.066h-15z" fill="#c6c6c6" transform="matrix(.707 -.707 .707 .707 -45.334 281.155)"/><path d="m349.027 130.441h15v50.065h-15z" fill="#c6c6c6" transform="matrix(.707 -.707 .707 .707 -5.512 297.64)"/><path d="m205.647 357.009-50.655-50.655c-4.937-4.937-12.364-5.514-16.589-1.289l-13.801 13.802c-4.937 4.937-4.937 12.941 0 17.878l50.655 50.655c4.937 4.937 12.941 4.937 17.878 0l13.801-13.802c4.225-4.225 3.648-11.653-1.289-16.589z" fill="#f7ef87"/><path d="m154.992 306.354c-4.937-4.937-12.364-5.514-16.589-1.289l-13.802 13.802c-4.937 4.937-4.937 12.941 0 17.878l50.655 50.655c2.432 2.432 5.609 3.66 8.796 3.696-13.448-13.879-20.447-54.828-17.058-72.738z" fill="#efd176"/><ellipse cx="50.888" cy="374.951" fill="#fff" rx="17.902" ry="22.48" transform="matrix(.707 -.707 .707 .707 -250.226 145.804)"/><ellipse cx="137.05" cy="461.113" fill="#fff" rx="17.902" ry="22.48" transform="matrix(.707 -.707 .707 .707 -285.916 231.966)"/><path d="m267.224 295.432-50.655-50.655c-4.937-4.937-12.364-5.514-16.589-1.289l-13.801 13.801c-4.937 4.937-4.937 12.941 0 17.878l50.655 50.655c4.937 4.937 12.941 4.937 17.878 0l13.802-13.802c4.224-4.224 3.647-11.651-1.29-16.588z" fill="#f7ef87"/><path d="m216.569 244.777c-4.937-4.937-12.364-5.514-16.589-1.289l-13.802 13.802c-4.937 4.937-4.937 12.941 0 17.878l50.655 50.655c2.432 2.432 5.609 3.66 8.796 3.696-13.448-13.879-20.447-54.828-17.058-72.738z" fill="#efd176"/><path d="m97.948 389.255c-4.118-.275-7.713 2.836-7.997 6.968-.481 6.994 2.082 13.845 7.032 18.795 4.557 4.556 10.722 7.09 17.128 7.09.555 0 1.11-.019 1.667-.057 4.133-.284 7.253-3.864 6.969-7.997-.283-4.132-3.872-7.24-7.996-6.968-2.673.184-5.277-.792-7.16-2.675-1.884-1.883-2.858-4.493-2.675-7.159.284-4.132-2.836-7.712-6.968-7.997zm43.219 38.606-6.499 6.499c-2.93 2.929-2.93 7.678-.001 10.607 1.465 1.464 3.384 2.197 5.304 2.197 1.919 0 3.839-.732 5.303-2.196l6.499-6.499c2.93-2.929 2.93-7.678.001-10.607s-7.678-2.929-10.607-.001zm43.029-29.26c5.381 0 10.439-2.095 14.243-5.899l13.802-13.802c7.142-7.143 6.564-19.342-1.289-27.195l-50.655-50.655c-3.651-3.651-8.369-5.872-13.284-6.254-5.284-.414-10.346 1.4-13.911 4.965l-13.803 13.801c-7.853 7.854-7.853 20.632 0 28.484l50.655 50.655c3.804 3.806 8.862 5.9 14.242 5.9zm-54.291-74.432 13.803-13.801c.501-.501 1.207-.63 1.803-.63.118 0 .232.005.34.013 1.332.103 2.731.798 3.839 1.906l50.655 50.655c2.081 2.081 2.396 4.875 1.289 5.983l-13.802 13.802c-.971.971-2.262 1.505-3.636 1.505-1.373 0-2.664-.535-3.635-1.505l-50.655-50.655c-2.005-2.006-2.005-5.268-.001-7.273zm88.157-152.059c-6.032 0-10.922 4.89-10.922 10.922s4.89 10.922 10.922 10.922c.312 0 .62-.021.925-.047.361.778.853 1.51 1.495 2.151l7.483 7.483c1.464 1.464 3.384 2.196 5.303 2.196s3.839-.732 5.304-2.197c2.929-2.929 2.929-7.678-.001-10.607l-7.483-7.483c-.641-.641-1.373-1.134-2.15-1.494.026-.306.047-.613.047-.925-.001-6.031-4.891-10.921-10.923-10.921zm-144.529 188.118-6.498 6.498c-2.929 2.929-2.929 7.678 0 10.606 1.465 1.464 3.385 2.197 5.304 2.197s3.839-.732 5.304-2.197l6.498-6.498c2.929-2.929 2.929-7.678 0-10.607-2.931-2.927-7.679-2.927-10.608.001zm124.694 120.471c6.246 0 12.119-2.433 16.535-6.849 0 0 0 0 .001-.001 4.417-4.417 6.85-10.289 6.85-16.536s-2.433-12.12-6.85-16.536c-4.417-4.417-10.289-6.85-16.536-6.85s-12.119 2.433-16.535 6.849c-4.418 4.417-6.851 10.289-6.851 16.537 0 6.246 2.433 12.119 6.85 16.536s10.289 6.85 16.536 6.85zm-5.929-29.315c1.583-1.584 3.688-2.456 5.929-2.456 2.24 0 4.346.872 5.93 2.456s2.456 3.69 2.456 5.929-.872 4.345-2.456 5.929c-.001.001-.001.001-.001.001-1.583 1.584-3.689 2.456-5.929 2.456s-4.346-.872-5.93-2.457c-1.584-1.583-2.456-3.689-2.456-5.929 0-2.239.872-4.345 2.457-5.929zm302.51-354.876 2.59-2.59c10.841-10.839 16.143-26.388 14.185-41.592v-.001l-1.966-15.267c-2.33-18.087-16.589-32.345-34.675-34.674l-15.267-1.966c-15.211-1.96-30.754 3.345-41.593 14.185l-2.591 2.591-5.962-5.962c-2.929-2.929-7.678-2.93-10.607 0-2.93 2.929-2.93 7.677-.001 10.606l5.962 5.963-5.083 5.084c-2.54 2.54-4.89 5.24-7.055 8.068l-6.469-6.469c-2.929-2.929-7.678-2.929-10.606 0-2.93 2.929-2.93 7.677-.001 10.606l8.925 8.925c-2.874 5.768-5.069 11.885-6.508 18.245l-4.575 20.22-4.222 4.222c-2.929 2.929-2.929 7.678 0 10.606 1.465 1.464 3.385 2.197 5.304 2.197s3.839-.732 5.304-2.197l.452-.452 24.795 24.795-72.773 72.773c-.001.001-.002.001-.003.002-.003.003-.007.007-.01.01l-72.762 72.762-24.795-24.794 120.193-120.193c2.929-2.929 2.929-7.678 0-10.606-2.93-2.929-7.678-2.929-10.607 0l-32.994 32.994c-20.335-13.67-41.886-21.191-62.683-21.787-24.396-.691-46.58 8.22-64.152 25.792-20.025 20.026-26.227 33.299-31.21 43.964-3.026 6.478-5.213 11.158-9.938 15.882-9.198 9.199-17.657 8.985-30.453 8.659-19.671-.497-44.162-1.121-78.477 33.193-25.506 25.507-37.52 59.403-33.827 95.444 3.637 35.49 22.495 71.892 53.101 102.499 35.502 35.502 76.785 53.725 115.461 53.722 29.285-.002 57.078-10.453 79.715-31.763 3.017-2.839 3.159-7.586.32-10.602-2.838-3.017-7.586-3.158-10.602-.32-22.627 21.301-51.157 30.622-82.49 26.964-31.991-3.736-63.734-20.544-91.797-48.608-57.7-57.701-65.625-130.375-19.272-176.729 29.763-29.762 49.802-29.252 67.488-28.805 13.615.348 27.691.703 41.441-13.047 6.591-6.59 9.666-13.171 12.921-20.14 4.485-9.6 10.067-21.547 28.227-39.707 27.248-27.249 67.055-28.46 105.407-3.791l-76.378 76.378-2.323-2.323c-7.852-7.852-20.052-8.432-27.196-1.289l-13.8 13.801c-3.805 3.804-5.9 8.862-5.9 14.243 0 5.38 2.096 10.438 5.899 14.242l50.654 50.655c3.805 3.804 8.862 5.899 14.242 5.899 5.381 0 10.439-2.095 14.243-5.899l13.802-13.802c7.142-7.142 6.564-19.342-1.289-27.195l-2.323-2.323 40.837-40.837c-.377 4.602-.17 9.194.663 13.708 3.199 17.329 15.365 31.523 34.258 39.969 1.823.815 3.142 2.428 3.619 4.426.479 2.007.027 4.054-1.239 5.614-1.709 2.107-3.577 4.176-5.552 6.15-18.159 18.16-30.106 23.742-39.707 28.227-6.968 3.255-13.549 6.33-20.14 12.921-13.75 13.75-13.393 27.828-13.048 41.441.33 12.97.67 26.381-9.793 43.87-2.126 3.555-.969 8.16 2.586 10.287 1.206.722 2.533 1.065 3.844 1.065 2.551 0 5.038-1.302 6.443-3.65 12.695-21.222 12.263-38.261 11.916-51.952-.325-12.799-.54-21.255 8.659-30.454 4.724-4.724 9.404-6.911 15.882-9.937 10.665-4.983 23.939-11.184 43.964-31.21 2.34-2.339 4.558-4.797 6.593-7.305 4.229-5.209 5.752-11.97 4.182-18.549-1.568-6.569-5.975-11.904-12.088-14.637-14.457-6.463-23.319-16.49-25.628-28.997-2.575-13.953 3.599-29.995 16.517-42.916l76.551-76.551 20.219-4.575c6.359-1.439 12.477-3.633 18.245-6.507l8.924 8.925c1.465 1.465 3.384 2.197 5.304 2.197 1.919 0 3.839-.732 5.303-2.197 2.93-2.929 2.93-7.677.001-10.606l-6.469-6.469c2.829-2.165 5.528-4.515 8.069-7.055l5.083-5.084 5.962 5.963c1.465 1.465 3.384 2.197 5.304 2.197 1.919 0 3.839-.732 5.303-2.197 2.93-2.929 2.93-7.677.001-10.606zm-231.599 210.21-13.802 13.802c-.971.971-2.262 1.506-3.636 1.506-1.373 0-2.664-.535-3.635-1.506l-50.655-50.655c-.971-.971-1.506-2.262-1.506-3.635 0-1.374.535-2.664 1.507-3.636l13.8-13.801c.413-.413 1.06-.627 1.816-.627 1.274 0 2.86.61 4.166 1.916l7.626 7.626s0 .001.001.001c0 0 .001 0 .001.001l35.397 35.396c.001.001.002.003.004.004.001.001.003.003.004.004l7.622 7.623c2.082 2.079 2.399 4.873 1.29 5.981zm223.582-223.407-18.281 18.281c-8.82 8.82-19.913 14.937-32.079 17.69l-18.3 4.141-29.554-29.553 4.142-18.3c2.752-12.167 8.869-23.26 17.69-32.08l18.281-18.281c7.575-7.576 18.445-11.281 29.069-9.914l15.267 1.966c11.326 1.458 20.255 10.387 21.714 21.713l1.966 15.267c1.369 10.626-2.337 21.494-9.915 29.07zm-237.054 345.722c.001-.001.001-.001.001-.001 9.117-9.118 9.117-23.954-.001-33.072s-23.954-9.116-33.072.001c-9.117 9.118-9.117 23.954.001 33.072 4.559 4.559 10.547 6.838 16.536 6.838 5.988 0 11.976-2.279 16.535-6.838zm-22.465-10.607c-3.27-3.27-3.27-8.589-.001-11.858 1.636-1.635 3.782-2.452 5.931-2.452 2.146 0 4.295.817 5.929 2.452 3.27 3.269 3.27 8.589.001 11.858-3.271 3.268-8.592 3.27-11.86 0z"/></svg>