<svg id="Capa_1" enable-background="new 0 0 511.992 511.992" height="512" viewBox="0 0 511.992 511.992" width="512" xmlns="http://www.w3.org/2000/svg"><path d="m263.339 333.866h-52.431v155.152c0 8.546 6.928 15.474 15.475 15.474h21.482c8.546 0 15.474-6.928 15.474-15.474z" fill="#c6c6c6"/><path d="m210.908 377.937c7.931 3.82 16.823 5.961 26.216 5.961 9.392 0 18.285-2.141 26.216-5.961v-44.072h-52.431v44.072z" fill="#9aa3b1"/><circle cx="237.123" cy="323.409" fill="#a3defe" r="35.32"/><path d="m392.644 300.307-38.632 38.632 52.144 52.144c8.019 8.019 21.02 8.019 29.038 0l9.593-9.593c8.019-8.019 8.019-21.02 0-29.038z" fill="#4e5660"/><path d="m408.395 316.271-38.418 38.418c-10.212 10.212-26.49 11.05-37.697 1.942l-169.67-137.894 109.833-109.833 137.895 169.67c9.108 11.207 8.269 27.486-1.943 37.697z" fill="#e8899e"/><path d="m244.015 137.332-81.405 81.405 126.323 102.665c-29.367-47.866-45.504-124.517-44.918-184.07z" fill="#de5c6e"/><path d="m235.016 277.583 30.253 24.588 90.607-90.608-24.587-30.253z" fill="#f7ef87"/><path d="m272.443 108.904c-6.074-38.817-51.833-83.289-92.868-98.829-14.821-5.613-31.564-1.884-42.771 9.322l-63.701 63.702c-11.207 11.207-14.935 27.95-9.322 42.771 15.541 41.035 60.012 86.794 98.829 92.868z" fill="#4e5660"/><path d="m143.202 14.199c-2.274 1.499-4.426 3.226-6.398 5.198l-63.701 63.702c-11.207 11.207-14.935 27.95-9.322 42.771 15.541 41.035 60.012 86.794 98.829 92.868l53.849-53.849c-81.747-34.926-85.143-101.16-73.257-150.69z" fill="#383c43"/><path d="m110.461 190.936 134.181-134.181c-9.003-10.214-19.514-19.687-30.618-27.689l-131.252 131.252c8.002 11.104 17.474 21.615 27.689 30.618z" fill="#c6c6c6"/><path d="m314.156 258.56-37.383-30.382c-11.613-9.438-28.483-8.569-39.065 2.013l-27.085 27.086c-8.278 8.278-7.577 21.9 1.509 29.284l53.173 43.214c7.265 5.904 17.817 5.361 24.437-1.259l26.647-26.647c12.241-12.243 11.203-32.389-2.233-43.309z" fill="#4e5660"/><path d="m145.628 97.462-62.856 62.856c8.001 11.104 17.474 21.615 27.689 30.618l57.897-57.897c-10.649-11.035-17.969-23.09-22.73-35.577z" fill="#9aa3b1"/><path d="m450.091 347.147-31.567-31.567c8.183-12.725 7.55-29.535-2.366-41.736l-136.658-168.149c-5.619-30.035-31.432-61.161-60.587-82.307-.327-.282-.672-.53-1.032-.746-11.74-8.398-23.987-15.165-35.65-19.582-17.491-6.625-37.404-2.294-50.73 11.033l-43.18 43.18c-2.929 2.929-2.929 7.678 0 10.607s7.678 2.929 10.606 0l43.18-43.18c9.162-9.164 22.827-12.15 34.812-7.612 8.896 3.369 17.457 7.798 25.529 12.947l-118.707 118.707c-5.149-8.072-9.578-16.633-12.947-25.529-3.845-10.152-2.355-21.558 3.984-30.512 2.394-3.381 1.593-8.062-1.787-10.455-3.38-2.394-8.062-1.594-10.455 1.787-9.228 13.034-11.385 29.666-5.77 44.493 4.417 11.663 11.184 23.91 19.582 35.65.216.359.464.704.745 1.031 21.146 29.155 52.271 54.968 82.307 60.588l40.851 33.2c-2.103 4.183-3.122 8.883-2.877 13.645.396 7.689 4.05 14.885 10.026 19.741l.141.115c-8.327 7.985-13.238 19.121-13.238 30.914 0 9.932 3.408 19.077 9.104 26.349v139.26c0 12.668 10.306 22.975 22.975 22.975h21.482c12.668 0 22.974-10.306 22.974-22.975v-139.26c2.018-2.572 3.756-5.385 5.154-8.406.278.009.556.035.833.035 6.069 0 12.111-2.154 16.945-6.388l33.778 27.452c6.609 5.372 14.573 8.022 22.506 8.022 6.712 0 13.398-1.905 19.23-5.655l21.264 21.264c1.464 1.464 3.384 2.197 5.303 2.197s3.839-.732 5.303-2.197c2.929-2.929 2.929-7.678 0-10.606l-20.68-20.681 28.024-28.025 30.983 30.982c2.462 2.462 3.817 5.735 3.817 9.216s-1.355 6.754-3.817 9.216l-9.593 9.593c-1.623 1.623-3.642 2.79-5.84 3.375-4.003 1.067-6.382 5.176-5.315 9.179.895 3.355 3.927 5.57 7.242 5.57.639 0 1.29-.082 1.937-.255 4.745-1.265 9.096-3.776 12.583-7.263l9.593-9.593c5.295-5.295 8.211-12.335 8.211-19.823.003-7.486-2.913-14.526-8.208-19.821zm-357.569-185.972 122.359-122.359c7.037 5.483 13.555 11.462 19.41 17.683l-124.086 124.087c-6.221-5.856-12.2-12.374-17.683-19.411zm29.098 29.208 122.469-122.468c10.346 13.248 17.519 26.847 20.232 38.505l-104.195 104.195c-11.659-2.713-25.257-9.885-38.506-20.232zm134.219 298.635c0 4.397-3.577 7.975-7.974 7.975h-21.482c-4.397 0-7.975-3.578-7.975-7.975v-127.104c5.658 2.761 12.008 4.315 18.716 4.315 6.634 0 13.005-1.55 18.715-4.34zm-18.715-137.789c-15.34 0-27.82-12.48-27.82-27.82 0-8.302 3.748-16.106 10.013-21.344l41.257 33.53c.361.294.738.554 1.11.825-4.749 8.934-14.151 14.809-24.56 14.809zm47.313-28.017c-3.915 3.915-10.107 4.233-14.403.742l-53.173-43.214c-2.725-2.214-4.325-5.365-4.506-8.872s1.087-6.806 3.57-9.289l27.085-27.085c4.228-4.228 9.772-6.375 15.342-6.375 4.825 0 9.669 1.612 13.689 4.879l37.383 30.382c4.829 3.925 7.665 9.509 7.985 15.723.32 6.215-1.927 12.061-6.327 16.462zm118.674-12.265c-.021.022-.042.043-.063.065l-38.309 38.31c-.037.035-.079.075-.101.096-.003.002-.005.005-.007.008-7.521 7.48-19.384 8.08-27.62 1.385l-32.526-26.434 17.205-17.205c7.335-7.335 11.234-17.482 10.701-27.84-.534-10.358-5.456-20.05-13.504-26.592l-37.384-30.382c-14.646-11.903-35.754-10.816-49.098 2.53l-22.568 22.568-36.044-29.294 98.075-98.075 132.65 163.218c6.7 8.244 6.093 20.122-1.407 27.642z"/></svg>