<svg id="Capa_1" enable-background="new 0 0 511.985 511.985" height="512" viewBox="0 0 511.985 511.985" width="512" xmlns="http://www.w3.org/2000/svg"><path d="m63.993 455.68c49.753 49.752 124.119 56.05 170.499 9.671 9.285-9.285 16.548-17.65 22.875-25.673 3.603-4.568 4.206-10.801 1.515-15.958-20.351-39.009-6.563-95.017 61.394-87.427 3.201.358 6.447-.523 8.969-2.526 49.352-39.218 30.343-103.77-4.613-138.725-34.956-34.956-99.508-53.964-138.725-4.613-2.004 2.521-2.884 5.768-2.526 8.969 7.59 67.957-48.418 81.745-87.427 61.394-5.158-2.691-11.391-2.088-15.958 1.515-8.023 6.327-16.387 13.59-25.672 22.875-46.381 46.378-40.083 120.745 9.669 170.498z" fill="#e1b89a"/><path d="m219.491 477.889c-53.631-23.678-73.455-125.98-70.103-211.414-16.671 5.507-36.629 3.083-53.435-5.685-5.158-2.691-11.39-2.088-15.958 1.515-8.023 6.327-16.387 13.59-25.672 22.875-46.38 46.38-40.082 120.747 9.671 170.5 44.681 44.681 109.212 54.305 155.497 22.209z" fill="#d2996f"/><path d="m149.421 400.296-30.044-30.044c-2.886-2.886-7.628-2.668-10.237.47l-56.004 67.364c-2.291 2.756-2.105 6.803.429 9.337l18.683 18.683c2.534 2.534 6.582 2.72 9.337.429l67.365-56.004c3.139-2.608 3.357-7.349.471-10.235z" fill="#4e5660"/><path d="m70.03 363.534c-6.959-19.802-24.438-34.453-41.38-42.822-6.637-3.278-14.699.267-16.67 7.402-3.695 13.372-5.145 27.521-4.198 42.051 1.769 27.128 11.758 53.666 28.579 76.75 4.491 6.162 13.534 6.697 18.567.969 17.143-19.509 26.541-51.801 15.102-84.35z" fill="#383c43"/><path d="m441.398 105.4-27.125-27.125-175.365 164.543c-4.409 4.136-4.519 11.1-.245 15.375l22.817 22.817c4.275 4.275 11.239 4.164 15.375-.245z" fill="#fcf2d0"/><path d="m414.273 78.275-39.464 37.028c1.572 2.205 3.327 4.302 5.28 6.256l18.024 18.024c1.953 1.954 4.051 3.709 6.256 5.281l37.028-39.463z" fill="#f6e3a3"/><path d="m497.277 40.42-18.024-18.024c-9.63-9.63-25.244-9.63-34.875 0l-47.259 47.259c-9.63 9.63-9.63 25.244 0 34.875l18.024 18.024c9.63 9.63 25.244 9.63 34.875 0l47.259-47.259c9.631-9.631 9.631-25.245 0-34.875z" fill="#e1b89a"/><path d="m444.842 21.955c-.155.147-.312.289-.464.441l-47.259 47.259c-9.63 9.63-9.63 25.244 0 34.875l18.024 18.024c9.63 9.63 25.245 9.63 34.875 0l6.364-6.364c-16.467-22.846-19.898-68.105-11.54-94.235z" fill="#d2996f"/><path d="m195.951 358.147c-1.919 0-3.839-.732-5.303-2.197l-26.925-26.925c-2.929-2.929-2.929-7.678 0-10.606 2.929-2.929 7.678-2.929 10.606 0l26.925 26.925c2.929 2.929 2.929 7.678 0 10.606-1.464 1.465-3.383 2.197-5.303 2.197z" fill="#fcf2d0"/><path d="m249.054 320.69c-.502-4.111-4.244-7.042-8.354-6.534-4.112.502-7.037 4.243-6.534 8.354 1.374 11.238-6.45 21.626-14.734 32.625-11.473 15.233-25.752 34.192-7.692 55.847 1.483 1.779 3.616 2.696 5.764 2.696 1.694 0 3.398-.571 4.8-1.74 3.181-2.653 3.609-7.382.956-10.564-9.499-11.39-5.061-19.668 8.154-37.215 9.257-12.29 19.75-26.222 17.64-43.469zm249.45-236.014 4.078-4.078c12.538-12.54 12.538-32.942 0-45.482 0 0 0 0-.001 0l-18.023-18.024c-6.074-6.074-14.15-9.419-22.741-9.419-8.59 0-16.666 3.345-22.741 9.419l-4.077 4.077-3.076-3.076c-2.93-2.929-7.678-2.929-10.607 0s-2.929 7.678 0 10.606l3.077 3.077-14.655 14.654-3.077-3.077c-2.93-2.929-7.678-2.929-10.607 0s-2.929 7.678 0 10.607l3.077 3.077-7.315 7.315c-6.075 6.074-9.42 14.15-9.42 22.741 0 3.261.485 6.448 1.415 9.479l-12.66 11.878c-3.021 2.834-3.172 7.581-.338 10.601 1.477 1.573 3.472 2.368 5.472 2.368 1.839 0 3.683-.673 5.13-2.031l10.298-9.662c.035.035.067.072.101.106l18.024 18.024c.035.035.072.067.107.101l-138.559 147.676c-.808.861-1.779 1.003-2.286 1.012-.477.009-1.479-.102-2.315-.938l-22.817-22.818c-.835-.834-.946-1.809-.938-2.316s.15-1.478 1.011-2.286l111.025-104.174c3.021-2.834 3.172-7.581.338-10.601-2.835-3.019-7.58-3.172-10.602-.337l-39.682 37.233c-38.816-23.356-91.114-27.393-125.085 15.355-3.189 4.014-4.687 9.287-4.108 14.467 2.812 25.177-3.471 43.806-18.169 53.874-15.104 10.345-38.546 10.361-58.335.038-7.747-4.041-17.196-3.149-24.072 2.275-9.268 7.31-17.635 14.764-26.331 23.461-9.554 9.553-17.194 20.403-22.792 32.318-3.615-.536-7.347-.047-10.778 1.49-5.269 2.36-9.168 6.892-10.699 12.431-3.95 14.293-5.448 29.278-4.453 44.536 1.851 28.385 12.225 56.284 30.001 80.679 3.518 4.828 8.951 7.752 14.906 8.024.3.014.599.021.898.021 2.557 0 5.037-.521 7.338-1.469l13.505 13.505c2.391 2.391 5.403 3.772 8.516 4.141 23.376 17.557 51.082 27.724 78.298 28.682 1.483.052 2.959.078 4.431.078 27.475 0 52.857-9.078 73.648-26.39 3.183-2.65 3.615-7.379.964-10.563-2.65-3.183-7.379-3.614-10.563-.964-19.024 15.841-42.519 23.755-67.953 22.847-21.629-.761-43.682-8.136-63.085-20.947l62.543-51.996c3.114-2.588 5.006-6.393 5.192-10.438s-1.35-8.007-4.213-10.869l-30.043-30.044c-2.863-2.863-6.817-4.401-10.871-4.213-4.045.186-7.849 2.079-10.437 5.192l-20.921 25.165c-.167-10.112-1.917-20.286-5.347-30.046-5.859-16.673-19.199-31.896-37.187-42.718 4.851-10.247 11.456-19.594 19.707-27.845 8.27-8.27 16.218-15.352 25.014-22.289 2.246-1.773 5.326-2.068 7.845-.754 24.949 13.016 53.896 12.638 73.751-.961 19.279-13.206 28.016-37.326 24.599-67.915-.142-1.271.203-2.536.944-3.47 18.643-23.459 55.984-40.149 101.961-14.009l-59.963 56.263c-3.627 3.402-5.667 8.015-5.746 12.986-.079 4.972 1.814 9.646 5.33 13.161l22.817 22.817c3.445 3.445 8.003 5.332 12.862 5.332.1 0 .2-.001.3-.002 4.972-.079 9.583-2.12 12.986-5.746l56.262-59.963c26.14 45.978 9.45 83.319-14.009 101.961-.934.742-2.194 1.087-3.47.944-30.584-3.417-54.708 5.32-67.915 24.6-13.6 19.853-13.977 48.802-.962 73.75 1.314 2.519 1.018 5.598-.754 7.845-1.553 1.969-3.139 3.926-4.713 5.816-2.651 3.183-2.22 7.912.963 10.563 1.402 1.168 3.104 1.737 4.796 1.737 2.149 0 4.283-.919 5.767-2.7 1.66-1.993 3.331-4.055 4.966-6.128 5.423-6.876 6.316-16.325 2.275-24.072-10.323-19.788-10.308-43.231.038-58.335 10.068-14.698 28.697-20.979 53.875-18.169 5.179.578 10.453-.919 14.466-4.108 42.75-33.97 38.712-86.269 15.355-125.085l73.835-78.692c3.032.931 6.218 1.415 9.479 1.415 8.591 0 16.667-3.345 22.741-9.419l7.315-7.315 3.077 3.077c1.465 1.465 3.384 2.197 5.304 2.197 1.919 0 3.839-.732 5.303-2.197 2.93-2.929 2.93-7.677.001-10.607l-3.077-3.077 14.653-14.653 3.076 3.076c1.465 1.464 3.385 2.197 5.304 2.197s3.839-.732 5.304-2.197c2.929-2.929 2.929-7.678 0-10.606zm-419.681 334.245 35.688-42.927 29.168 29.168-66.492 55.278-12.587-12.589c6.464-8.623 11.243-18.472 14.223-28.93zm-15.868-52.901c11.347 32.288-.204 61.528-13.576 76.813l-.255.253c-.036.037-.067.078-.103.116-1.119 1.07-2.426 1.194-3.133 1.169-1.382-.063-2.646-.746-3.467-1.874-16.1-22.095-25.491-47.275-27.156-72.821-.886-13.581.441-26.892 3.943-39.565.459-1.661 1.684-2.428 2.373-2.736.406-.182 1.049-.396 1.827-.396.58 0 1.233.119 1.919.458 8.758 4.325 29.952 16.743 37.628 38.583zm429.019-296.028-47.26 47.259c-3.24 3.241-7.55 5.026-12.134 5.026-4.583 0-8.893-1.785-12.134-5.026l-18.024-18.024c-3.241-3.241-5.025-7.55-5.025-12.134s1.784-8.893 5.026-12.134l37.876-37.877c.001-.001.001-.001.002-.002s.001-.001.002-.002l9.378-9.378c3.242-3.241 7.552-5.026 12.135-5.026 4.584 0 8.894 1.785 12.134 5.026l18.024 18.024c6.69 6.69 6.69 17.577 0 24.268zm-292.991 200.627c-17.241-2.11-31.178 8.383-43.47 17.641-17.546 13.215-25.825 17.652-37.214 8.154-3.182-2.654-7.91-2.225-10.563.956s-2.225 7.911.956 10.563c7.433 6.199 14.548 8.588 21.304 8.588 12.926 0 24.538-8.745 34.542-16.28 10.999-8.283 21.385-16.108 32.625-14.734 4.111.512 7.852-2.422 8.354-6.534.503-4.111-2.423-7.852-6.534-8.354z"/></svg>