<svg id="Capa_1" enable-background="new 0 0 512 512" height="512" viewBox="0 0 512 512" width="512" xmlns="http://www.w3.org/2000/svg"><path d="m175.635 471.352h-8.256c-21.775 0-39.426-17.652-39.426-39.427v-276.123c0-21.775 17.652-39.427 39.426-39.427h8.256c21.775 0 39.426 17.652 39.426 39.427v276.123c0 21.775-17.652 39.427-39.426 39.427z" fill="#89d47f"/><path d="m167.378 471.352h8.256c6.731 0 13.067-1.691 18.611-4.665-37.565-48.684-54.31-237.25-40.148-348.012-15.239 5.452-26.145 20.014-26.145 37.127v276.123c0 21.775 17.652 39.427 39.426 39.427z" fill="#5ec783"/><path d="m262.744 449.352h-8.256c-21.775 0-39.426-17.652-39.426-39.426v-232.123c0-21.775 17.652-39.426 39.426-39.426h8.256c21.775 0 39.426 17.652 39.426 39.426v232.122c0 21.775-17.652 39.427-39.426 39.427z" fill="#f7ef87"/><path d="m254.488 449.352h8.256c8.384 0 16.15-2.625 22.539-7.086-30.542-30.037-39.52-211.843-33.776-303.766-20.381 1.525-36.446 18.532-36.446 39.303v232.122c0 21.775 17.652 39.427 39.427 39.427z" fill="#efd176"/><path d="m349.853 420.132h-8.256c-21.775 0-39.426-17.652-39.426-39.426v-173.683c0-21.775 17.652-39.426 39.426-39.426h8.256c21.775 0 39.427 17.652 39.427 39.426v173.682c0 21.775-17.652 39.427-39.427 39.427z" fill="#e8899e"/><path d="m341.597 420.132h8.256c7.507 0 14.523-2.099 20.496-5.741-34.612-55.496-36.497-194.812-32.67-246.599-19.935 1.967-35.509 18.779-35.509 39.231v173.682c0 21.775 17.652 39.427 39.427 39.427z" fill="#de5c6e"/><g fill="#fff"><circle cx="171.506" cy="168.092" r="17.156"/><circle cx="258.616" cy="189.187" r="17.156"/><circle cx="345.725" cy="216.18" r="17.156"/><circle cx="345.725" cy="371.548" r="17.156"/><ellipse cx="258.616" cy="398.541" rx="17.156" ry="17.156" transform="matrix(1 -.004 .004 1 -1.699 1.108)"/><circle cx="171.506" cy="419.636" r="17.156"/></g><path d="m92.824 504.493h-28.228c-31.533 0-57.096-25.562-57.096-57.095v-307.067c0-31.533 25.563-57.096 57.096-57.096h28.228c19.401 0 35.128 15.727 35.128 35.128v351.001c0 19.401-15.727 35.129-35.128 35.129z" fill="#e1b89a"/><path d="m458.033 412.169h-36.962c-17.558 0-31.791-14.234-31.791-31.791v-173.028c0-17.558 14.233-31.791 31.791-31.791h36.962c25.663 0 46.467 20.804 46.467 46.467v143.676c0 25.663-20.804 46.467-46.467 46.467z" fill="#e1b89a"/><ellipse cx="47.01" cy="211.39" fill="#fff" rx="24.234" ry="30.431"/><ellipse cx="47.01" cy="376.338" fill="#fff" rx="24.234" ry="30.431"/><path d="m226.282 155.906c-5.925 0-11.847-2.259-16.368-6.78-9.039-9.04-9.039-23.696 0-32.735l102.12-102.119c9.041-9.039 23.695-9.039 32.736 0 9.038 9.04 9.038 23.696 0 32.735l-102.12 102.119c-4.519 4.519-10.444 6.78-16.368 6.78z" fill="#8eafe2"/><circle cx="226.282" cy="132.759" fill="#e8899e" r="48.952"/><path d="m260.897 167.373c.947-.947 1.834-1.931 2.687-2.934-48.436 1.041-69.915-43.392-61.595-74.178-3.69 2.112-7.169 4.733-10.32 7.884-19.117 19.117-19.117 50.111 0 69.228 19.116 19.117 50.111 19.117 69.228 0z" fill="#de5c6e"/><path d="m487.763 176.98c-3.452-2.284-8.106-1.334-10.393 2.12-2.284 3.456-1.335 8.108 2.121 10.393 10.963 7.249 17.509 19.41 17.509 32.533v143.676c0 21.487-17.48 38.967-38.968 38.967h-36.961c-13.395 0-24.292-10.897-24.292-24.292v-173.027c0-13.395 10.897-24.292 24.292-24.292h27.575c4.143 0 7.5-3.358 7.5-7.5s-3.357-7.5-7.5-7.5h-27.575c-12.516 0-23.674 5.889-30.875 15.033-8.19-13.755-23.205-22.995-40.344-22.995h-8.256c-12.451 0-23.777 4.884-32.186 12.824-1.69-16.44-11.83-30.656-26.739-37.611.037-.848.062-1.698.062-2.551 0-4.034-.434-8-1.253-11.855l68.593-68.593c11.947-11.949 11.947-31.392-.001-43.342-11.95-11.949-31.395-11.947-43.343 0l-68.623 68.622c-18.092-3.848-37.717 1.225-51.743 15.25-4.786 4.786-8.529 10.227-11.234 16.035h-7.753c-12.322 0-23.544 4.781-31.926 12.578v-3.09c0-23.505-19.123-42.628-42.628-42.628h-28.226c-35.618 0-64.596 28.978-64.596 64.596v304.462c0 4.142 3.357 7.5 7.5 7.5s7.5-3.358 7.5-7.5v-304.462c0-27.347 22.249-49.596 49.596-49.596h28.229c15.234 0 27.628 12.394 27.628 27.628v351.001c0 15.234-12.394 27.628-27.628 27.628h-28.229c-16.349 0-31.644-8.058-40.914-21.555-2.345-3.414-7.015-4.281-10.429-1.936s-4.281 7.014-1.937 10.428c12.069 17.572 31.987 28.063 53.279 28.063h28.229c23.505 0 42.628-19.123 42.628-42.628v-3.09c8.382 7.796 19.603 12.577 31.926 12.577h8.257c22.062 0 40.605-15.307 45.596-35.856 8.504 8.552 20.272 13.855 33.257 13.855h8.257c24.225 0 44.22-18.453 46.671-42.041 8.409 7.938 19.732 12.82 32.182 12.82h8.256c17.139 0 32.154-9.24 40.344-22.995 7.201 9.144 18.359 15.033 30.875 15.033h36.961c29.758 0 53.968-24.21 53.968-53.967v-143.674c-.002-18.173-9.062-35.012-24.239-45.046zm-170.426-157.404c6.101-6.1 16.029-6.1 22.13-.001 6.1 6.101 6.1 16.028 0 22.129l-63.758 63.757c-2.534-4.572-5.711-8.822-9.509-12.62-3.839-3.839-8.104-6.993-12.637-9.493zm-109.776 412.35c0 17.604-14.322 31.926-31.927 31.926h-8.257c-17.604 0-31.926-14.322-31.926-31.926v-276.124c0-17.604 14.322-31.926 31.926-31.926h3.19c-2.727 17.252 2.53 35.533 15.797 48.8 6.181 6.181 13.451 10.625 21.197 13.335zm-10.589-269.857c-16.162-16.162-16.162-42.459 0-58.622 8.081-8.081 18.695-12.122 29.311-12.122 10.615 0 21.23 4.04 29.312 12.122 4.855 4.855 8.354 10.704 10.314 17.087.038.145.08.288.127.43 1.116 3.78 1.699 7.742 1.699 11.794 0 2.028-.148 4.033-.432 6.004-.028.143-.047.286-.067.429-1.337 8.628-5.35 16.586-11.641 22.877-.001 0-.001 0-.001 0-16.164 16.163-42.461 16.163-58.622.001zm97.698 247.856c0 17.604-14.322 31.926-31.926 31.926h-8.257c-17.604 0-31.926-14.322-31.926-31.926v-220.878c1.239.081 2.48.137 3.721.137 14.456 0 28.912-5.502 39.918-16.508h-.001c6.257-6.256 10.849-13.728 13.588-21.877 9.131 5.736 14.882 15.801 14.882 27.004v232.122zm87.109-29.22c0 17.604-14.322 31.926-31.927 31.926h-8.256c-17.605 0-31.927-14.322-31.927-31.926v-173.682c0-17.604 14.322-31.926 31.927-31.926h8.256c17.604 0 31.927 14.322 31.927 31.926zm-299.001-159.08h-12.439c-4.143 0-7.5 3.358-7.5 7.5s3.357 7.5 7.5 7.5h12.439c4.143 0 7.5-3.358 7.5-7.5s-3.357-7.5-7.5-7.5zm-16.997 94.961c1.421 1.239 3.177 1.846 4.925 1.846 2.093 0 4.174-.871 5.656-2.572 2.722-3.122 2.398-7.86-.726-10.582-3.307-2.882-5.203-7.042-5.203-11.414s1.896-8.532 5.203-11.414c3.123-2.722 3.447-7.459.726-10.582s-7.459-3.448-10.581-.726c-6.576 5.732-10.348 14.014-10.348 22.722.001 8.708 3.772 16.99 10.348 22.722zm16.997 34.517h-12.439c-4.143 0-7.5 3.358-7.5 7.5s3.357 7.5 7.5 7.5h12.439c4.143 0 7.5-3.358 7.5-7.5s-3.357-7.5-7.5-7.5z"/></svg>