<svg id="Capa_1" enable-background="new 0 0 511.956 511.956" height="512" viewBox="0 0 511.956 511.956" width="512" xmlns="http://www.w3.org/2000/svg"><path d="m354.64 446.272c-11.134 0-21.668-6.672-26.055-17.641-5.757-14.385 1.238-30.714 15.625-36.47 5.978-2.392 29.297-24.888 57.08-94.501 24.292-60.866 41.424-132 47.006-195.162.416-4.718-2.081-7.683-3.606-9.028-1.491-1.318-4.663-3.385-9.163-2.413-15.815 3.412-30.422 8.387-45.884 13.655-31.423 10.706-67.04 22.839-118.435 22.839-35.929 0-68.97-9.429-98.123-17.748-24.754-7.063-48.134-13.736-69.476-13.736-16.468 0-30.557 6.972-36.769 18.195-5.074 9.168-4.103 19.845 2.812 30.878 8.226 13.13 4.252 30.443-8.879 38.67-13.129 8.229-30.441 4.253-38.67-8.877-17.875-28.529-19.463-60.546-4.355-87.844 16.091-29.072 48.992-47.133 85.861-47.133 29.191 0 57.496 8.077 84.871 15.889 26.867 7.667 54.648 15.594 82.727 15.594 42.1 0 70.39-9.638 100.341-19.842 16.298-5.552 33.151-11.293 52.15-15.391 20.891-4.507 42.081 1.033 58.128 15.196 16.101 14.215 24.252 34.638 22.362 56.032-6.041 68.378-24.552 145.293-50.783 211.021-19.598 49.103-50.833 110.786-88.351 125.797-3.417 1.372-6.945 2.02-10.414 2.02z" fill="#f7ef87"/><path d="m393.856 423.143c-1.151-1.448-2.364-2.86-3.696-4.192l-35.7-35.7c-4.84 5.466-8.387 8.165-10.25 8.911-14.387 5.756-21.382 22.084-15.625 36.47 4.387 10.969 14.921 17.641 26.055 17.641 3.469 0 6.997-.648 10.413-2.016 10.092-4.038 19.724-11.475 28.803-21.114z" fill="#efd176"/><path d="m211.414 62.206c-7.708-2.02-15.359-4.196-22.935-6.358-27.376-7.812-55.681-15.889-84.871-15.889-36.869 0-69.77 18.06-85.861 47.133-15.108 27.298-13.521 59.315 4.355 87.844 8.23 13.129 25.542 17.106 38.67 8.877 13.13-8.227 17.105-25.541 8.879-38.67-6.915-11.033-7.886-21.71-2.812-30.878 6.212-11.223 20.302-18.195 36.769-18.195 21.341 0 44.722 6.672 69.476 13.736 15.821 4.515 32.796 9.345 50.748 12.829-10.054-18.99-16.502-40.914-12.418-60.429z" fill="#efd176"/><path d="m160.824 438.762-148.851-268.083c-6.608-11.901 1.998-26.523 15.61-26.523h18.558c22.05 0 43.197 8.759 58.788 24.351l267.837 267.837c15.108 15.108 4.408 40.94-16.958 40.94h-129.534c-27.194-.001-52.249-14.747-65.45-38.522z" fill="#e1b89a"/><path d="m104.929 168.507c-15.591-15.592-36.738-24.351-58.788-24.351h-18.558c-13.613 0-22.218 14.622-15.611 26.523l114.238 205.744c-12.115-67.695-21.476-135.948-1.69-188.324z" fill="#d2996f"/><path d="m157.242 376.294c-9.849 0-18.959 3.141-26.405 8.462l29.987 54.007c4.896 8.818 11.425 16.39 19.087 22.432 13.629-7.854 22.811-22.561 22.811-39.421-.001-25.119-20.362-45.48-45.48-45.48z" fill="#efd176"/><path d="m270.335 439.311c0-27.816-22.549-50.365-50.364-50.365-27.816 0-50.365 22.549-50.365 50.365 0 3.883-.379 7.464-1.066 10.753 14.069 17.051 35.161 27.22 57.734 27.22h66.99c-14.993-9.218-22.929-24.657-22.929-37.973z" fill="#f7ef87"/><path d="m244.904 446.811c-4.143 0-7.5-3.358-7.5-7.5 0-9.613-7.82-17.434-17.434-17.434-9.613 0-17.434 7.821-17.434 17.434 0 4.142-3.357 7.5-7.5 7.5s-7.5-3.358-7.5-7.5c0-17.884 14.55-32.434 32.434-32.434s32.434 14.55 32.434 32.434c0 4.142-3.358 7.5-7.5 7.5z" fill="#efd176"/><path d="m182.772 346.404c-2.136 0-4.257-.907-5.74-2.669l-58.624-69.613c-2.669-3.168-2.263-7.899.905-10.568 3.167-2.668 7.899-2.262 10.567.906l58.624 69.613c2.669 3.168 2.263 7.899-.905 10.568-1.406 1.184-3.122 1.763-4.827 1.763z" fill="#d2996f"/><path d="m415.46 395.107c-3.417-2.342-8.084-1.472-10.427 1.944-9.671 14.105-19.351 24.865-28.85 32.104l-29.765-29.765c.195-.085.38-.186.578-.266 5.911-2.366 14.57-11.39 23.757-24.758 12.657-18.42 25.274-43.292 37.501-73.926 24.55-61.515 41.867-133.421 47.511-197.283.516-5.848-1.714-11.429-6.111-15.308-4.344-3.838-10.066-5.341-15.71-4.123-16.25 3.506-31.051 8.549-46.722 13.888-3.676 1.252-7.413 2.525-11.224 3.794 0 0 0 0-.001 0-28.198 9.393-60.61 18.644-104.79 18.644-26.17 0-51.004-5.222-73.899-11.29-.034-.01-.068-.018-.102-.028-7.581-2.01-14.95-4.112-22.083-6.148-13.594-3.879-26.777-7.631-39.548-10.28-.032-.007-.063-.014-.094-.02-10.932-2.263-21.561-3.718-31.873-3.718-19.195 0-35.799 8.454-43.332 22.063-4.516 8.16-5.281 17.39-2.404 26.797-3.861-.496-7.774-.773-11.732-.773h-18.557c-4.11 0-8.029.966-11.519 2.74-2.949-16.85-.166-33.477 8.245-48.672 1.664-3.005 3.561-5.937 5.637-8.714 2.48-3.317 1.802-8.017-1.516-10.498-3.318-2.482-8.018-1.802-10.498 1.515-2.483 3.321-4.753 6.831-6.746 10.433-11.785 21.291-14.333 45.862-7.287 69.51-2.682 6.945-2.193 14.668 1.518 21.35l118.903 214.146c.001.002.002.004.003.006l29.944 53.93c2.444 4.402 5.268 8.516 8.402 12.327.019.023.038.045.057.068 15.479 18.775 38.713 29.986 63.548 29.986h66.969c.005 0 .009.001.014.001s.01-.001.016-.001h62.536c12.976 0 24.12-7.447 29.085-19.435 3.318-8.01 3.234-16.532.088-24.046 10.893-8.248 21.774-20.237 32.423-35.77 2.343-3.414 1.471-8.082-1.945-10.424zm-29.731-281.142c2.131-.721 4.241-1.44 6.332-2.152 15.246-5.194 29.647-10.101 45.049-13.423.4-.086 1.463-.314 2.618.706 1.242 1.095 1.136 2.294 1.097 2.743-5.521 62.466-22.47 132.827-46.501 193.041-2.926 7.332-5.797 14.117-8.595 20.393zm-61.054 16.511c17.023-2.995 32.105-7.16 46.054-11.575v226.772c-15.197 27.572-26.343 38.082-29.304 39.525-2.137.855-4.16 1.906-6.065 3.133l-10.685-10.685zm-61.054 4.435c2.514.087 5.041.142 7.587.142 13.894 0 26.636-.867 38.468-2.333v229.926l-46.055-46.055zm-61.054-9.317c14.597 3.615 29.964 6.704 46.054 8.296v167.701l-46.054-46.054zm-61.054-16.572c9.545 2.304 19.411 5.113 29.52 7.998 5.381 1.535 10.895 3.107 16.533 4.653v118.865l-46.054-46.054v-85.462zm-68.112 8.874c4.892-8.837 16.467-14.327 30.208-14.327 7.315 0 14.972.858 22.904 2.268v73.646l-16.28-16.28c-9.719-9.718-21.259-16.951-33.848-21.394-.128-.215-.249-.441-.38-.65-5.454-8.703-6.331-16.53-2.604-23.263zm89.872 309.828-22.345-40.243c5.064-2.421 10.602-3.687 16.313-3.687 9.884 0 19.28 3.876 26.293 10.607-10.2 8.292-17.537 19.976-20.261 33.323zm63.001 42.059c-19.156 0-37.151-8.151-49.757-21.958.381-2.755.589-5.601.589-8.515 0-23.636 19.229-42.865 42.864-42.865 23.636 0 42.864 19.229 42.864 42.865 0 10.658 4.064 21.456 11.042 30.473zm144.763-10.174c-2.038 4.919-7.108 10.175-15.228 10.175h-60.31c-10.786-7.344-17.665-19.103-17.665-30.473 0-31.907-25.958-57.865-57.864-57.865-8.298 0-16.187 1.769-23.329 4.929-9.988-11.108-24.289-17.581-39.399-17.581-8.287 0-16.315 1.902-23.608 5.549l-115.104-207.305c-1.826-3.29-1.779-7.036.129-10.279 1.909-3.243 5.162-5.103 8.925-5.103h18.558c7.594 0 15.018 1.113 22.085 3.259.435.19.885.34 1.348.445 11.206 3.638 21.48 9.878 30.051 18.449l90.135 90.135c.002.002.004.004.007.006l61.047 61.047c.002.002.004.004.007.006l116.643 116.643c5.74 5.743 5.609 13.044 3.572 17.963zm115.752-413.826c-17.854-15.759-41.43-21.92-64.672-16.905-19.426 4.19-36.487 10.002-52.988 15.623-29.345 9.998-57.063 19.441-97.921 19.441-27.032 0-54.3-7.781-80.676-15.309-27.868-7.952-56.686-16.175-86.923-16.175-19.953 0-39.235 4.976-55.763 14.39-3.6 2.05-4.855 6.63-2.805 10.229s6.632 4.856 10.229 2.805c14.27-8.128 30.985-12.424 48.339-12.424 28.14 0 55.931 7.93 82.812 15.601 27.362 7.809 55.655 15.883 84.786 15.883 43.343 0 72.203-9.833 102.758-20.243 16.096-5.482 32.739-11.152 51.314-15.158 18.536-3.999 37.341.917 51.582 13.487 14.296 12.621 21.532 30.755 19.854 49.749-5.979 67.678-24.305 143.82-50.278 208.901-7.193 18.024-14.695 34.556-22.295 49.137-1.915 3.673-.489 8.203 3.184 10.118 1.107.577 2.292.851 3.461.851 2.705 0 5.319-1.469 6.656-4.035 7.833-15.026 15.546-32.02 22.926-50.51 26.492-66.382 45.185-144.069 51.288-213.142 2.102-23.792-6.961-46.504-24.868-62.314z"/></svg>