<svg id="Capa_1" enable-background="new 0 0 512.079 512.079" height="512" viewBox="0 0 512.079 512.079" width="512" xmlns="http://www.w3.org/2000/svg"><path d="m40.429 261.018c-50.31 50.31-42.33 128.99 19.647 190.967s140.657 69.957 190.967 19.647c55.852-55.852 14.496-82.874 42.663-111.041 14.417-14.417 28.569-9.507 61.007-41.945 39.983-39.983 22.954-95.17-21.587-139.711s-99.728-61.57-139.711-21.587c-32.438 32.438-27.528 46.59-41.945 61.007-28.168 28.168-55.189-13.189-111.041 42.663z" fill="#e1b89a"/><path d="m251.043 471.632c2.379-2.379 4.569-4.702 6.608-6.979-82.053-68.924-88.762-227.492-68.637-302.764-27.584 29.245-23.82 42.742-37.544 56.465-28.167 28.167-55.189-13.189-111.041 42.663-50.31 50.31-42.33 128.99 19.647 190.967s140.657 69.958 190.967 19.648z" fill="#d2996f"/><circle cx="218.828" cy="293.233" fill="#8eafe2" r="71.005"/><path d="m179.63 234.016c-3.889 2.58-7.582 5.581-11.01 9.009-27.729 27.729-27.729 72.687 0 100.416 7.732 7.732 16.806 13.303 26.471 16.723-12.251-41.463-16.576-86.463-15.461-126.148z" fill="#6a96d7"/><path d="m298.626 54.128h51.375v267.24h-51.375z" fill="#fcf2d0" transform="matrix(.707 .707 -.707 .707 227.747 -174.334)"/><path d="m495.434 34.525-17.898-17.898c-9.676-9.676-24.553-11.858-36.6-5.368l-12.193 6.568c-7.075 3.811-13.337 8.967-18.435 15.178l-21.158 25.779c-7.968 9.708-7.273 23.878 1.608 32.759l29.76 29.76c8.881 8.881 23.05 9.577 32.759 1.608l25.779-21.159c6.211-5.098 11.367-11.36 15.178-18.435l6.568-12.193c6.49-12.046 4.307-26.923-5.368-36.599z" fill="#e1b89a"/><path d="m433.223 86.339c-1.92 0-3.839-.732-5.303-2.197-2.929-2.929-2.929-7.678 0-10.606l21.67-21.67c2.929-2.929 7.678-2.929 10.606 0 2.929 2.929 2.929 7.678 0 10.606l-21.67 21.67c-1.465 1.464-3.384 2.197-5.303 2.197z" fill="#fcf2d0"/><circle cx="218.828" cy="293.233" fill="#4e5660" r="42.392"/><path d="m56.278 400.362 55.421 55.421c5.309 5.309 13.513 6.411 20.035 2.693l6.976-3.978c5.904-3.366 6.987-11.426 2.181-16.232l-67.096-67.096c-4.805-4.805-12.865-3.722-16.232 2.181l-3.978 6.976c-3.718 6.522-2.616 14.726 2.693 20.035z" fill="#fcf2d0"/><g fill="#c6c6c6"><path d="m287.967 190.907h15v51.375h-15z" transform="matrix(.707 -.707 .707 .707 -66.615 272.366)"/><path d="m327.508 151.366h15v51.374h-15z" transform="matrix(.707 -.707 .707 .707 -27.074 288.744)"/><path d="m367.049 111.825h15v51.375h-15z" transform="matrix(.707 -.707 .707 .707 12.466 305.122)"/></g><ellipse cx="83.034" cy="337.774" fill="#fff" rx="18.96" ry="23.809" transform="matrix(.707 -.707 .707 .707 -214.522 157.644)"/><ellipse cx="174.287" cy="429.027" fill="#fff" rx="18.96" ry="23.809" transform="matrix(.707 -.707 .707 .707 -252.321 248.9)"/><path d="m152.535 386.673c8.389-8.389 3.1-15.254-4.397-22.75-7.496-7.496-14.361-12.785-22.75-4.397-8.388 8.389-9.112 21.266-1.615 28.762 7.496 7.497 20.373 6.774 28.762-1.615z" fill="#4e5660"/><path d="m64.14 360.811c-5.548.746-10.32 3.962-13.092 8.825l-3.978 6.976c-5.377 9.43-3.771 21.377 3.905 29.053l55.421 55.421c4.643 4.643 10.846 7.064 17.112 7.064 4.094 0 8.215-1.035 11.941-3.16l6.976-3.978c4.863-2.772 8.079-7.544 8.825-13.092s-1.096-11-5.055-14.958l-67.097-67.097c-3.959-3.956-9.409-5.799-14.958-5.054zm72.243 85.112c-.069.513-.341 1.463-1.388 2.06l-6.976 3.977c-3.577 2.038-8.107 1.429-11.017-1.481l-55.421-55.421c-2.911-2.911-3.52-7.441-1.481-11.017l3.978-6.976c.598-1.047 1.547-1.319 2.06-1.388.514-.069 1.5-.057 2.353.795l67.097 67.097c.853.853.864 1.842.795 2.354zm101.588 27.489c-47.704 39.541-117.063 28.798-172.591-26.73-58.88-58.881-66.96-133.047-19.647-180.36 30.383-30.383 50.847-29.864 68.903-29.405 13.848.35 28.165.714 42.138-13.258 6.7-6.7 9.829-13.397 13.142-20.489 4.577-9.796 10.273-21.988 28.803-40.518 7.664-7.663 16.154-13.233 25.234-16.554 3.89-1.422 5.89-5.73 4.467-9.62-1.422-3.89-5.73-5.89-9.62-4.467-11.145 4.076-21.47 10.817-30.688 20.035-20.396 20.396-26.711 33.914-31.786 44.775-3.092 6.617-5.325 11.398-10.159 16.231-9.421 9.42-18.068 9.201-31.15 8.869-20.034-.507-44.956-1.141-79.891 33.794-25.97 25.97-38.202 60.481-34.442 97.176 3.703 36.146 22.913 73.221 54.089 104.397 29.844 29.844 63.964 48.301 98.671 53.376 6.461.945 12.835 1.414 19.1 1.414 27.761 0 53.397-9.213 74.999-27.118 3.189-2.644 3.631-7.372.988-10.56-2.644-3.189-7.372-3.631-10.56-.988zm-74.549-100.78c-1.626-4.973-5.166-9.198-9.98-14.012s-9.039-8.354-14.012-9.98c-4.732-1.548-11.927-1.835-19.344 5.584-11.299 11.299-12.023 28.959-1.615 39.369 4.924 4.924 11.471 7.356 18.2 7.356 7.495 0 15.215-3.018 21.168-8.972 7.417-7.418 7.13-14.614 5.583-19.345zm-16.191 8.738c-5.451 5.45-13.595 6.176-18.155 1.615-4.56-4.56-3.836-12.705 1.615-18.155 1.7-1.7 2.708-2.068 3.368-2.068.295 0 .521.074.708.135 2.583.845 6.427 4.689 8.068 6.33 1.641 1.642 5.485 5.485 6.33 8.068.197.603.528 1.614-1.934 4.075zm-40.073-51.484 6.874-6.875c2.929-2.929 2.929-7.678 0-10.607s-7.678-2.929-10.606 0l-6.875 6.875c-2.929 2.929-2.929 7.678 0 10.606 1.464 1.464 3.384 2.197 5.303 2.197 1.92.001 3.839-.731 5.304-2.196zm400.247-255.204c8.123-15.079 5.443-33.348-6.668-45.46l-17.898-17.898c-12.111-12.11-30.379-14.791-45.46-6.668l-12.192 6.568c-1.688.909-3.32 1.897-4.914 2.933l-3.186-3.186c-2.929-2.929-7.678-2.929-10.606 0-2.929 2.929-2.929 7.678 0 10.606l2.124 2.125c-1.422 1.452-2.792 2.961-4.093 4.545l-5.941 7.238-3-2.999c-2.929-2.93-7.678-2.929-10.606 0-2.929 2.929-2.929 7.678 0 10.606l4.043 4.043-5.655 6.89c-7.738 9.429-9.253 21.95-4.803 32.551l-65.457 65.458c-17.863-12.744-36.385-20.888-53.906-23.626-4.089-.636-7.928 2.16-8.568 6.253-.639 4.092 2.16 7.928 6.252 8.568 14.576 2.277 30.157 9.004 45.461 19.565l-56.672 56.673c-12.994-4.731-26.956-5.953-40.697-3.502-15.835 2.822-30.236 10.346-41.646 21.757-30.609 30.609-30.609 80.413 0 111.022 15.304 15.305 35.408 22.957 55.511 22.957s40.207-7.652 55.511-22.957c11.411-11.411 18.934-25.812 21.757-41.646 2.449-13.741 1.229-27.703-3.502-40.696l56.672-56.672c12.073 17.477 19.052 35.156 20.267 51.533 1.465 19.74-5.306 37.263-20.123 52.082-18.53 18.53-30.722 24.226-40.518 28.803-7.091 3.313-13.789 6.442-20.489 13.142-13.973 13.973-13.609 28.291-13.258 42.138.376 14.81.765 30.124-14.131 51.105-2.397 3.378-1.603 8.06 1.774 10.457 1.318.935 2.833 1.385 4.336 1.385 2.347 0 4.66-1.099 6.122-3.159 17.787-25.053 17.292-44.524 16.895-60.17-.332-13.085-.551-21.729 8.87-31.15 4.833-4.834 9.614-7.067 16.231-10.159 10.862-5.075 24.379-11.39 44.775-31.786 17.79-17.79 26.253-39.851 24.476-63.798-1.466-19.754-9.908-40.792-24.465-61.183l65.456-65.456c3.921 1.645 8.102 2.48 12.295 2.48 7.145 0 14.316-2.408 20.258-7.284l6.89-5.655 4.043 4.044c1.464 1.465 3.384 2.197 5.303 2.197s3.839-.732 5.303-2.197c2.929-2.929 2.929-7.677 0-10.606l-2.999-2.999 7.238-5.941c1.584-1.3 3.094-2.671 4.546-4.093l2.124 2.124c1.464 1.464 3.384 2.197 5.303 2.197s3.839-.732 5.303-2.197c2.929-2.929 2.929-7.678 0-10.606l-3.186-3.186c1.036-1.595 2.023-3.227 2.933-4.914zm-243.672 263.456c-24.761 24.76-65.049 24.759-89.809 0-24.76-24.76-24.76-65.049 0-89.809 15.938-15.939 38.445-22.036 59.731-16.856l-11.98 11.98c-13.707-.776-27.676 4.051-38.126 14.501-19.453 19.453-19.453 51.105 0 70.559 9.727 9.727 22.503 14.59 35.279 14.59s25.553-4.863 35.279-14.59c10.449-10.449 15.277-24.418 14.501-38.125l11.981-11.981c5.181 21.285-.918 43.792-16.856 59.731zm-20.232-69.578c13.604 13.604 13.604 35.741 0 49.346-13.605 13.604-35.741 13.604-49.346 0-13.604-13.605-13.604-35.741 0-49.346 6.803-6.803 15.737-10.203 24.673-10.203 8.934 0 17.872 3.402 24.673 10.203zm21.029 4.692c-2.421-5.555-5.886-10.761-10.423-15.298s-9.743-8.002-15.298-10.423l80.37-80.37.008-.008 68.288-68.288 25.721 25.721zm229.669-205.684-6.568 12.193c-3.364 6.246-7.851 11.694-13.333 16.194l-13.605 11.167c-.003.002-.005.004-.008.007l-12.165 9.985c-5.904 4.845-14.097 5.09-20.196.953-.032-.022-.063-.047-.095-.068-.846-.583-1.654-1.247-2.406-1.999l-29.76-29.76c-.751-.752-1.415-1.558-1.997-2.403-.023-.035-.049-.068-.073-.103-4.135-6.098-3.889-14.289.956-20.192l9.985-12.165c.002-.003.005-.006.007-.008l11.167-13.605c4.5-5.483 9.949-9.969 16.195-13.333l12.192-6.568c3.547-1.911 7.381-2.841 11.18-2.841 6.056 0 12.018 2.368 16.56 6.91l17.898 17.898c7.388 7.389 9.023 18.537 4.066 27.738zm-301.417 347.942 6.875-6.875c2.929-2.929 2.929-7.678 0-10.606-2.929-2.929-7.678-2.929-10.606 0l-6.875 6.874c-2.929 2.929-2.929 7.678 0 10.606 1.464 1.464 3.384 2.197 5.303 2.197 1.919.001 3.838-.731 5.303-2.196z"/></svg>