<svg id="Capa_1" enable-background="new 0 0 512.001 512.001" height="512" viewBox="0 0 512.001 512.001" width="512" xmlns="http://www.w3.org/2000/svg"><path d="m397.643 63.277c0-18.88-15.495-34.142-34.462-33.762-18.489.371-33.076 15.936-33.076 34.429v85.372h-135.075v-107.379c0-18.493-14.587-34.058-33.076-34.429-18.967-.38-34.462 14.881-34.462 33.762v250.3c0 16.797 7.276 32.77 19.948 43.794l13.09 11.387c12.385 10.774 19.496 26.385 19.496 42.8v95.645c0 10.662 8.644 19.306 19.306 19.306h126.472c10.662 0 19.306-8.643 19.306-19.306v-95.646c0-16.415 7.111-32.026 19.496-42.8l13.09-11.387c12.672-11.024 19.948-26.997 19.948-43.794v-228.292z" fill="#ffd4be"/><path d="m228.799 78.409c-18.65 0-33.769 15.119-33.769 33.769v74.278c0 18.65 15.119 33.769 33.769 33.769 18.65 0 33.769-15.119 33.769-33.769v-74.278c0-18.651-15.119-33.769-33.769-33.769z" fill="#d2996f"/><path d="m296.337 78.409c-18.65 0-33.769 15.119-33.769 33.769v74.278c0 18.65 15.119 33.769 33.769 33.769 18.65 0 33.769-15.119 33.769-33.769v-74.278c0-18.651-15.119-33.769-33.769-33.769z" fill="#ffbf9e"/><path d="m226.609 246.226h-81.246c-22.802 0-41.286-18.484-41.286-41.286 0-22.802 18.484-41.286 41.286-41.286h81.246c22.802 0 41.286 18.484 41.286 41.286 0 22.802-18.484 41.286-41.286 41.286z" fill="#ffbf9e"/><path d="m159.298 412.943c0-9.345-7.576-16.92-16.92-16.92-9.345 0-25.165 7.576-25.165 16.92 0 9.345 15.82 16.92 25.165 16.92 9.344.001 16.92-7.575 16.92-16.92z" fill="#c6c6c6"/><path d="m365.838 412.943c0-9.345 7.576-16.92 16.92-16.92 9.345 0 25.165 7.576 25.165 16.92 0 9.345-15.82 16.92-25.165 16.92-9.344.001-16.92-7.575-16.92-16.92z" fill="#c6c6c6"/><path d="m359.691 455.707h-194.246c-12.74 0-23.068-10.328-23.068-23.068v-39.392c0-12.74 10.328-23.068 23.068-23.068h194.245c12.74 0 23.068 10.328 23.068 23.068v39.392c0 12.74-10.327 23.068-23.067 23.068z" fill="#4e5660"/><path d="m236.352 370.18h-70.907c-12.74 0-23.068 10.328-23.068 23.068v39.392c0 12.74 10.328 23.068 23.068 23.068h86.904c-15.514-17.721-21.647-59.229-15.997-85.528z" fill="#383c43"/><ellipse cx="186.223" cy="319.253" fill="#eda1ab" rx="27.336" ry="21.769"/><ellipse cx="334.391" cy="319.253" fill="#eda1ab" rx="27.336" ry="21.769"/><path d="m260.307 332.82c9.475 0 17.913 6.431 23.22-4.54 5.383-11.13-6.673-27.644-23.22-27.644-16.546 0-28.603 16.514-23.22 27.644 5.307 10.971 13.745 4.54 23.22 4.54z" fill="#4e5660"/><path d="m267.86 328.107c-4.841-1.978-10.265-1.978-15.106 0-3.206 1.31-5.301 4.429-5.301 7.892v13.78c0 7.099 5.755 12.854 12.854 12.854 7.099 0 12.854-5.755 12.854-12.854v-13.78c0-3.463-2.095-6.582-5.301-7.892z" fill="#eda1ab"/><path d="m209.97 271.371h-24.918c-10.469 0-18.271 9.653-16.077 19.889l1.38 6.436c2.319 10.817 11.88 18.545 22.943 18.545h8.425c11.063 0 20.624-7.728 22.943-18.545l1.38-6.436c2.196-10.236-5.607-19.889-16.076-19.889z" fill="#383c43"/><path d="m310.644 271.371h24.918c10.469 0 18.271 9.653 16.077 19.889l-1.38 6.436c-2.319 10.817-11.88 18.545-22.943 18.545h-8.426c-11.063 0-20.623-7.728-22.943-18.545l-1.38-6.436c-2.195-10.236 5.608-19.889 16.077-19.889z" fill="#383c43"/><ellipse cx="262.568" cy="412.943" fill="#c6c6c6" rx="16.92" ry="16.92" transform="matrix(.967 -.255 .255 .967 -96.437 80.408)"/><ellipse cx="191.975" cy="412.943" fill="#fff" rx="16.92" ry="16.92" transform="matrix(.707 -.707 .707 .707 -235.767 256.695)"/><ellipse cx="333.161" cy="412.943" fill="#fff" rx="16.92" ry="16.92" transform="matrix(.707 -.707 .707 .707 -194.414 356.529)"/><path d="m262.568 388.523c-13.465 0-24.42 10.955-24.42 24.42s10.955 24.42 24.42 24.42c13.466 0 24.421-10.955 24.421-24.42s-10.956-24.42-24.421-24.42zm0 33.841c-5.194 0-9.42-4.226-9.42-9.42s4.226-9.42 9.42-9.42 9.421 4.226 9.421 9.42-4.227 9.42-9.421 9.42zm-70.593-33.841c-13.465 0-24.42 10.955-24.42 24.42s10.955 24.42 24.42 24.42 24.42-10.955 24.42-24.42-10.955-24.42-24.42-24.42zm0 33.841c-5.194 0-9.42-4.226-9.42-9.42s4.226-9.42 9.42-9.42 9.42 4.226 9.42 9.42-4.226 9.42-9.42 9.42zm198.041-32.893c-1.83-14.777-14.241-26.311-29.396-26.767 2.483-3.82 5.468-7.302 8.908-10.295l13.088-11.387c14.316-12.453 22.526-30.478 22.526-49.452v-177.452c0-4.142-3.357-7.5-7.5-7.5s-7.5 3.358-7.5 7.5v177.452c0 14.632-6.331 28.532-17.371 38.135l-13.088 11.387c-6.841 5.95-12.353 13.342-16.153 21.588h-67.496c2.888-3.514 4.625-8.008 4.625-12.901v-8.69c4.075-1.55 7.294-4.739 9.618-9.543 3.336-6.897 2.517-15.496-2.191-23.004-5.959-9.502-16.604-15.405-27.78-15.405s-21.821 5.903-27.78 15.405c-4.709 7.507-5.528 16.107-2.192 23.004 2.323 4.803 5.544 7.987 9.618 9.537v8.697c0 4.893 1.737 9.387 4.625 12.901h-62.973c-3.801-8.247-9.313-15.639-16.152-21.588l-13.089-11.388c-11.039-9.603-17.371-23.502-17.371-38.135v-38.963c3.344.727 6.811 1.12 10.37 1.12h81.247c21.498 0 39.779-13.983 46.261-33.328 6.785 4.703 14.914 7.325 23.467 7.325 22.756 0 41.269-18.513 41.269-41.269v-122.511c0-14.565 11.541-26.646 25.727-26.93 7.087-.153 13.847 2.521 18.929 7.501 5.082 4.982 7.882 11.646 7.882 18.762v15.132c0 4.142 3.357 7.5 7.5 7.5s7.5-3.358 7.5-7.5v-15.132c0-11.18-4.397-21.647-12.383-29.474-7.982-7.825-18.538-12.027-29.728-11.787-22.291.447-40.426 19.255-40.426 41.927v16.429c-7.141-5.909-16.297-9.464-26.269-9.464-13.949 0-26.295 6.964-33.769 17.59-7.474-10.626-19.82-17.59-33.769-17.59-9.971 0-19.127 3.556-26.268 9.464v-38.435c0-22.672-18.135-41.481-40.426-41.928-11.202-.234-21.746 3.962-29.729 11.787-7.985 7.827-12.382 18.294-12.382 29.474v122.016c-14.031 8.577-23.416 24.04-23.416 41.654 0 17.615 9.385 33.077 23.416 41.654v44.975c0 18.975 8.21 36.999 22.525 49.452l13.09 11.388c3.44 2.992 6.425 6.474 8.907 10.295-15.155.456-27.566 11.991-29.396 26.768-11.419 2.72-25.407 11.152-25.407 23.472s13.988 20.752 25.407 23.472c1.867 15.079 14.75 26.792 30.326 26.792h7.081v21.988c0 8.689 4.24 16.875 11.343 21.897 1.315.93 2.827 1.377 4.324 1.377 2.352 0 4.669-1.104 6.13-3.171 2.392-3.382 1.588-8.063-1.794-10.454-3.133-2.215-5.003-5.823-5.003-9.65v-21.988h150.082v21.988c0 6.51-5.296 11.806-11.806 11.806h-102.907c-4.142 0-7.5 3.358-7.5 7.5s3.358 7.5 7.5 7.5h102.907c14.78 0 26.806-12.025 26.806-26.806v-21.988h7.081c15.575 0 28.458-11.713 30.326-26.792 11.419-2.72 25.408-11.152 25.408-23.472-.001-12.32-13.99-20.752-25.409-23.472zm-119.947-277.294c0-14.484 11.784-26.269 26.269-26.269 14.484 0 26.269 11.784 26.269 26.269v74.278c0 14.484-11.784 26.269-26.269 26.269-8.346 0-16.067-3.91-21.025-10.542-.389-6.94-2.242-13.491-5.243-19.364v-70.641zm-67.538 0c0-14.484 11.784-26.269 26.268-26.269 14.485 0 26.27 11.784 26.27 26.269v53.176c-8.017-5.78-17.844-9.199-28.459-9.199h-24.079zm-67.538-70.907c0-7.116 2.799-13.779 7.882-18.761 5.081-4.98 11.8-7.663 18.929-7.502 14.186.284 25.727 12.365 25.727 26.931v114.217h-42.168c-3.559 0-7.026.393-10.37 1.12zm-23.416 163.67c0-18.63 15.156-33.786 33.786-33.786h81.247c18.629 0 33.786 15.156 33.786 33.786s-15.156 33.786-33.786 33.786h-81.247c-18.63.001-33.786-15.156-33.786-33.786zm23.301 215.818c-5.425-2.111-10.165-5.787-10.165-7.814s4.74-5.704 10.165-7.814zm109.127-95.419c-.056-.11-.106-.202-.166-.325-1.073-2.219-.551-5.398 1.396-8.503 2.423-3.863 7.824-8.375 15.072-8.375 7.249 0 12.65 4.511 15.072 8.375 1.947 3.105 2.47 6.284 1.396 8.503-.06.123-.11.215-.166.325-1.591-1.784-3.592-3.227-5.911-4.174h-.001c-6.701-2.736-14.079-2.737-20.779 0-2.321.947-4.322 2.39-5.913 4.174zm21.655 10.66v13.78c0 2.952-2.401 5.354-5.354 5.354-2.952 0-5.354-2.402-5.354-5.354v-13.78c0-.418.25-.791.636-.949 1.521-.621 3.119-.932 4.717-.932s3.196.311 4.717.932c.388.157.638.53.638.949zm109.598 96.64c0 8.584-6.983 15.568-15.567 15.568h-194.246c-8.584 0-15.567-6.984-15.567-15.568v-39.392c0-8.584 6.983-15.567 15.567-15.567h11.126c.009 0 .017.002.025.002.015 0 .03-.002.045-.002h171.852c.015 0 .03.002.045.002.009 0 .017-.002.025-.002h11.126c8.584 0 15.567 6.983 15.567 15.567v39.392zm15-11.881v-15.629c5.426 2.111 10.166 5.787 10.166 7.814 0 2.028-4.74 5.704-10.166 7.815zm-103.024-127.925 1.381 6.435c3.04 14.181 15.772 24.473 30.275 24.473h8.426c14.503 0 27.235-10.292 30.275-24.472l1.381-6.437c1.523-7.104-.223-14.42-4.79-20.07s-11.354-8.891-18.62-8.891h-24.918c-5.458 0-10.645 1.829-14.825 5.134-9.058-1.151-20.858-2.291-35.512-2.291s-26.453 1.141-35.512 2.291c-4.18-3.305-9.367-5.134-14.824-5.134h-24.918c-7.266 0-14.053 3.241-18.62 8.892-4.567 5.65-6.313 12.966-4.79 20.07l1.38 6.437c3.041 14.18 15.774 24.472 30.276 24.472h8.426c14.503 0 27.236-10.292 30.276-24.473l1.38-6.436c.699-3.259.701-6.56.068-9.727 7.459-.773 16.396-1.392 26.859-1.392 10.462 0 19.4.619 26.859 1.392-.635 3.166-.632 6.468.067 9.727zm16.355-10.501c.301-.287.578-.598.829-.933 1.66-1.616 3.875-2.528 6.227-2.528h24.918c2.714 0 5.248 1.211 6.954 3.321s2.358 4.843 1.79 7.495l-1.381 6.437c-1.567 7.311-8.133 12.617-15.609 12.617h-8.426c-7.477 0-14.042-5.306-15.609-12.618l-1.381-6.435c-.558-2.597.062-5.265 1.688-7.356zm-84.876 7.356-1.38 6.436c-1.567 7.311-8.132 12.617-15.609 12.617h-8.426c-7.477 0-14.042-5.307-15.609-12.617l-1.38-6.436c-.569-2.653.083-5.386 1.789-7.496s4.241-3.321 6.955-3.321h24.918c2.342 0 4.547.905 6.205 2.509.259.349.549.673.863.97 1.614 2.088 2.23 4.749 1.674 7.338zm114.448 98.835c-13.465 0-24.42 10.955-24.42 24.42s10.955 24.42 24.42 24.42 24.42-10.955 24.42-24.42-10.955-24.42-24.42-24.42zm0 33.841c-5.194 0-9.42-4.226-9.42-9.42s4.226-9.42 9.42-9.42 9.42 4.226 9.42 9.42-4.225 9.42-9.42 9.42z"/></svg>