<svg id="Capa_1" enable-background="new 0 0 512 512" height="512" viewBox="0 0 512 512" width="512" xmlns="http://www.w3.org/2000/svg"><path d="m225.955 246.756 50.012-8.819v193.703l-50.012 8.819z" fill="#4e5660"/><path d="m463.107 118.742-191.857 33.83c-26.196 4.619-45.295 27.38-45.295 53.98v40.204l278.545-49.115v-44.166c0-21.928-19.798-38.541-41.393-34.733z" fill="#89d47f"/><path d="m271.25 152.572c-26.196 4.619-45.295 27.38-45.295 53.98v40.204l92.592-16.326c-15.823-12.932-19.188-63.369-16.16-83.348z" fill="#5ec783"/><ellipse cx="195.273" cy="445.869" fill="#a3defe" rx="83.025" ry="55.282" transform="matrix(.949 -.315 .315 .949 -130.63 84.32)"/><path d="m183.669 391.63c-39.066 10.856-69.091 39.832-69.091 68.467 0 31.413 36.128 50.508 80.695 42.65 9.393-1.656 18.404-4.388 26.788-7.947-46.357-19.368-47.821-79.347-38.392-103.17z" fill="#7acefa"/><path d="m225.955 246.756 50.012-8.819v34.803l-50.012 8.819z" fill="#383c43"/><path d="m454.487 206.459 50.013-8.818v193.703l-50.013 8.818z" fill="#4e5660"/><ellipse cx="423.806" cy="405.572" fill="#a3defe" rx="83.025" ry="55.282" transform="matrix(.949 -.315 .315 .949 -106.265 154.326)"/><path d="m412.202 351.334c-39.066 10.856-69.091 39.832-69.091 68.467 0 31.413 36.128 50.508 80.695 42.65 9.393-1.656 18.404-4.388 26.788-7.947-46.357-19.369-47.822-79.348-38.392-103.17z" fill="#7acefa"/><path d="m454.487 206.459 50.013-8.818v34.803l-50.013 8.818z" fill="#383c43"/><path d="m340.369 192.255c0 7.977-8.12 14.443-18.136 14.443s-18.136-6.466-18.136-14.443 8.12-14.443 18.136-14.443c10.016.001 18.136 6.467 18.136 14.443z" fill="#fff"/><path d="m402.401 192.255c0 7.977 8.12 14.443 18.136 14.443s18.136-6.466 18.136-14.443-8.12-14.443-18.136-14.443c-10.016.001-18.136 6.467-18.136 14.443z" fill="#fff"/><path d="m118.877 93.297 50.012-8.818v164.271l-50.012 8.819z" fill="#4e5660"/><path d="m244.908 7.615-87.52 15.432c-22.273 3.927-38.512 23.28-38.512 45.897v24.354l90.143-15.895c25.203-4.444 43.578-26.342 43.578-51.934v-11.402c0-4.073-3.678-7.159-7.689-6.452z" fill="#f7ef87"/><path d="m157.388 23.047c-22.273 3.927-38.512 23.28-38.512 45.897v24.354l78.726-13.882c-13.453-10.995-16.315-44.05-13.74-61.037z" fill="#efd176"/><ellipse cx="88.195" cy="262.979" fill="#e8899e" rx="83.025" ry="55.282" transform="matrix(.949 -.315 .315 .949 -78.424 41.226)"/><path d="m76.591 208.741c-39.067 10.855-69.091 39.832-69.091 68.467 0 31.413 36.128 50.508 80.695 42.65 9.393-1.656 18.404-4.388 26.788-7.947-46.357-19.369-47.821-79.348-38.392-103.17z" fill="#de5c6e"/><path d="m118.877 93.297 50.012-8.818v34.803l-50.012 8.818z" fill="#383c43"/><path d="m176.387 248.807c0-.019.003-.038.003-.057v-157.978l31.994-5.641c4.079-.719 6.803-4.609 6.083-8.688-.72-4.08-4.609-6.8-8.688-6.084l-79.401 14.001v-15.416c0-19.013 13.59-35.209 32.314-38.511l86.406-15.236v10.271c0 11.478-4.311 22.428-12.138 30.834-2.822 3.031-2.653 7.777.378 10.6 3.032 2.823 7.777 2.653 10.601-.378 10.42-11.191 16.159-25.772 16.159-41.056v-11.401c0-4.164-1.829-8.087-5.019-10.764-3.19-2.676-7.369-3.797-11.474-3.075l-87.52 15.432c-25.906 4.568-44.709 26.977-44.709 53.283v127.988c-7.886-.267-16.12.308-24.485 1.783-22.893 4.037-44.455 14.151-60.715 28.48-16.88 14.874-26.176 32.636-26.176 50.014 0 13.943 5.892 26.256 17.038 35.609 12.637 10.603 31.124 16.279 51.701 16.279 6.739 0 13.702-.609 20.758-1.853 22.893-4.037 44.455-14.151 60.715-28.479 16.862-14.858 26.155-32.597 26.175-49.957zm-50.01-149.216 35.013-6.174v121.523c-.659-.611-1.338-1.211-2.039-1.799-8.65-7.259-20.047-12.201-32.974-14.601zm13.919 187.919c-14.222 12.532-33.188 21.397-53.404 24.961-24.287 4.284-46.792.115-60.212-11.145-7.641-6.411-11.68-14.751-11.68-24.118 0-13.008 7.491-26.773 21.093-38.759 14.222-12.532 33.187-21.397 53.404-24.962 6.284-1.108 12.449-1.65 18.368-1.65 3.467 0 6.844.196 10.117.563.063.007.124.017.187.023 12.655 1.449 23.665 5.602 31.54 12.21 7.641 6.412 11.68 14.751 11.68 24.119 0 13.007-7.491 26.772-21.093 38.758zm356.427-166.798c-9.71-8.147-22.439-11.556-34.918-9.356l-191.857 33.83c-29.837 5.261-51.492 31.07-51.492 61.367v173.269c-7.886-.267-16.119.308-24.485 1.782-22.893 4.037-44.455 14.151-60.715 28.48-16.881 14.874-26.177 32.636-26.177 50.014 0 13.943 5.892 26.256 17.038 35.609 12.637 10.604 31.124 16.279 51.701 16.279 6.739 0 13.702-.609 20.758-1.853 22.893-4.037 44.455-14.151 60.715-28.48 16.863-14.858 26.155-32.597 26.175-49.957 0-.019.003-.038.003-.057v-187.41l163.52-28.833v124.127c-7.886-.267-16.119.308-24.484 1.783-22.892 4.037-44.455 14.151-60.715 28.479-16.881 14.875-26.177 32.636-26.177 50.014 0 13.943 5.892 26.256 17.038 35.609 12.637 10.604 31.124 16.279 51.701 16.279 6.739 0 13.702-.609 20.758-1.853 13.136-2.316 25.741-6.582 37.468-12.679 3.675-1.911 5.105-6.439 3.194-10.114s-6.44-5.103-10.114-3.194c-10.369 5.391-21.523 9.165-33.153 11.215-24.288 4.283-46.793.115-60.212-11.145-7.641-6.412-11.68-14.751-11.68-24.119 0-13.008 7.491-26.773 21.093-38.759 14.222-12.532 33.188-21.397 53.404-24.961 24.286-4.285 46.792-.115 60.212 11.145 7.641 6.412 11.68 14.751 11.68 24.119 0 10.774-5.111 22.042-14.78 32.585-2.8 3.053-2.595 7.797.458 10.597 3.054 2.8 7.798 2.596 10.597-.458 12.247-13.356 18.723-28.13 18.723-42.722v-237.869c0-12.675-5.568-24.616-15.277-32.763zm-249.349 349.687c-14.222 12.532-33.188 21.397-53.404 24.962-24.288 4.283-46.793.115-60.212-11.145-7.641-6.412-11.68-14.751-11.68-24.119 0-13.008 7.491-26.773 21.093-38.759 14.222-12.532 33.188-21.397 53.404-24.961 6.284-1.108 12.449-1.65 18.368-1.65 3.467 0 6.843.196 10.116.563.063.007.124.017.187.023 12.655 1.449 23.666 5.602 31.54 12.21 7.641 6.412 11.68 14.751 11.68 24.119.001 13.007-7.49 26.772-21.092 38.757zm21.094-72.57c-.659-.611-1.338-1.211-2.039-1.799-8.651-7.259-20.046-12.201-32.974-14.601v-128.38l35.013-6.174zm228.532-40.297c-.659-.611-1.338-1.21-2.038-1.798-8.651-7.259-20.047-12.201-32.975-14.602v-128.38l35.013-6.173zm0-166.185-263.545 46.471v-31.266c0-23.004 16.442-42.6 39.098-46.594l191.857-33.83c1.614-.285 3.234-.425 4.846-.425 6.472 0 12.777 2.264 17.824 6.499 6.305 5.29 9.92 13.043 9.92 21.272zm-87.032-27.909c-4.143 0-7.5 3.358-7.5 7.5v7.414c0 4.142 3.357 7.5 7.5 7.5s7.5-3.358 7.5-7.5v-7.414c0-4.142-3.358-7.5-7.5-7.5zm-23.485 9.039c-3.122-2.72-7.861-2.396-10.581.728-1.142 1.31-2.788 2.061-4.518 2.061-1.754 0-3.359-.732-4.519-2.063-2.72-3.122-7.459-3.447-10.581-.726-3.123 2.722-3.447 7.459-.726 10.582 3.991 4.58 9.76 7.206 15.825 7.206 6.067 0 11.836-2.627 15.826-7.208 2.724-3.122 2.397-7.859-.726-10.58zm-53.68-9.039c-4.143 0-7.5 3.358-7.5 7.5v7.414c0 4.142 3.357 7.5 7.5 7.5s7.5-3.358 7.5-7.5v-7.414c0-4.142-3.358-7.5-7.5-7.5z"/></svg>