<svg id="Capa_1" enable-background="new 0 0 512 512" height="512" viewBox="0 0 512 512" width="512" xmlns="http://www.w3.org/2000/svg"><path d="m420.857 504.5h-329.714v-371.925l164.857-105.219 164.857 105.219z" fill="#8eafe2"/><path d="m221.046 49.666-129.903 82.91v371.924h180.291c-61.637-82.344-70.994-345.166-50.388-454.834z" fill="#6a96d7"/><path d="m125.652 313.022h260.695v36.091h-260.695z" fill="#a3defe"/><path d="m217.836 313.022h-92.183v36.091h96.7c-1.711-11.816-3.214-23.883-4.517-36.091z" fill="#7acefa"/><path d="m206.033 279.608v75.361c0 27.596 22.371 49.967 49.967 49.967s49.967-22.371 49.967-49.967v-75.361z" fill="#f7ef87"/><path d="m206.033 354.97c0 18.505 10.067 34.648 25.015 43.284-7.765-36.365-13.096-77.268-16.265-118.645h-8.75z" fill="#efd176"/><path d="m323.504 235.648h-135.008c-5.984 0-10.834 4.851-10.834 10.834v22.292c0 5.984 4.851 10.834 10.834 10.834h135.007c5.984 0 10.834-4.851 10.834-10.834v-22.292c.001-5.984-4.85-10.834-10.833-10.834z" fill="#a3defe"/><path d="m212.219 235.648h-23.722c-5.984 0-10.834 4.851-10.834 10.834v22.292c0 5.984 4.851 10.834 10.834 10.834h26.286c-1.122-14.655-1.973-29.368-2.564-43.96z" fill="#7acefa"/><path d="m181.491 206.743c-9.634 0-17.009-8.787-15.098-18.23 8.45-41.758 45.357-73.195 89.608-73.195s81.158 31.437 89.608 73.195c1.911 9.443-5.464 18.23-15.098 18.23z" fill="#fff"/><path d="m212.714 126.215c-23.518 12.669-40.863 35.322-46.322 62.299-1.911 9.443 5.464 18.23 15.098 18.23h29.887c-.495-28.241-.02-55.542 1.337-80.529z" fill="#fcf2d0"/><ellipse cx="199.589" cy="188.411" fill="#eda1ab" rx="20.815" ry="16.576"/><ellipse cx="312.411" cy="188.411" fill="#eda1ab" rx="20.815" ry="16.576"/><path d="m435.754 504.5h-29.794c-10.832 0-19.613-8.781-19.613-19.613v-276.358c0-71.763-57.303-131.308-129.062-132.003-72.461-.702-131.633 58.039-131.633 130.341v278.021c0 10.832-8.781 19.613-19.613 19.613h-29.793c-10.832 0-19.613-8.781-19.613-19.613v-276.092c0-110.202 88.6-200.988 198.801-201.296 110.19-.307 199.932 89.246 199.932 199.366v278.021c.001 10.832-8.78 19.613-19.612 19.613z" fill="#f7ef87"/><path d="m167.633 28.378c-65.882 33.046-111 101.783-111 180.418v276.091c0 10.832 8.781 19.613 19.613 19.613h29.794c10.832 0 19.613-8.781 19.613-19.613v-278.02c0-44.473 22.393-83.809 56.491-107.342-10.281-16.767-18.249-43.827-14.511-71.147z" fill="#efd176"/><g fill="#e8899e"><path d="m383.209 262.809h75.297c5.747 0 10.407-4.659 10.407-10.407v-33.509c0-5.747-4.659-10.407-10.407-10.407h-75.297c-5.747 0-10.407 4.659-10.407 10.407v33.509c0 5.748 4.659 10.407 10.407 10.407z"/><path d="m128.791 262.809h-75.296c-5.747 0-10.407-4.659-10.407-10.407v-33.509c0-5.747 4.659-10.407 10.407-10.407h75.297c5.747 0 10.407 4.659 10.407 10.407v33.509c-.001 5.748-4.66 10.407-10.408 10.407z"/><path d="m91.143 426.227c-4.142 0-7.5-3.357-7.5-7.5v-70.145c0-4.142 3.358-7.5 7.5-7.5s7.5 3.358 7.5 7.5v70.145c0 4.142-3.358 7.5-7.5 7.5z"/><path d="m420.857 426.227c-4.142 0-7.5-3.357-7.5-7.5v-70.145c0-4.142 3.358-7.5 7.5-7.5s7.5 3.358 7.5 7.5v70.145c0 4.142-3.358 7.5-7.5 7.5z"/></g><path d="m211.72 179.954c4.142 0 7.5-3.357 7.5-7.5v-8.509c0-4.143-3.358-7.5-7.5-7.5s-7.5 3.357-7.5 7.5v8.509c0 4.143 3.358 7.5 7.5 7.5zm88.56 0c4.142 0 7.5-3.357 7.5-7.5v-8.509c0-4.143-3.358-7.5-7.5-7.5s-7.5 3.357-7.5 7.5v8.509c0 4.143 3.358 7.5 7.5 7.5zm-44.28 5.066c6.642 0 12.958-2.876 17.329-7.891 2.721-3.123 2.396-7.86-.727-10.582-3.123-2.721-7.86-2.396-10.582.727-1.52 1.745-3.715 2.746-6.02 2.746s-4.499-1.001-6.02-2.746c-2.722-3.122-7.459-3.447-10.582-.727-3.122 2.722-3.448 7.459-.727 10.582 4.371 5.015 10.687 7.891 17.329 7.891zm-17.719 153.548h35.437c4.142 0 7.5-3.357 7.5-7.5s-3.358-7.5-7.5-7.5h-35.437c-4.142 0-7.5 3.357-7.5 7.5s3.358 7.5 7.5 7.5zm105.778 53.788c-4.142 0-7.5 3.357-7.5 7.5v73.836c0 4.143 3.358 7.5 7.5 7.5s7.5-3.357 7.5-7.5v-73.836c0-4.142-3.358-7.5-7.5-7.5zm118.738-190.828c-1.345-53.283-22.811-103.202-60.792-141.078-39.106-38.997-90.932-60.45-145.999-60.45-.196 0-.396 0-.592.001-49.276.137-96.974 18.116-134.305 50.626-3.124 2.721-3.451 7.458-.73 10.582 2.72 3.122 7.458 3.45 10.581.73 34.612-30.142 78.826-46.812 124.496-46.938.184-.001.364-.001.548-.001 51.065 0 99.138 19.901 135.409 56.071 35.009 34.911 54.882 80.851 56.355 129.915h-54.126c-3.882-72.734-63.532-131.255-136.284-131.961-37.018-.339-71.945 13.823-98.311 39.937-24.97 24.729-39.309 57.217-40.764 92.024h-53.981c1.681-41.471 16.7-81.74 42.717-114.132 2.594-3.229 2.079-7.949-1.15-10.544-3.23-2.595-7.951-2.079-10.544 1.151-28.258 35.18-44.466 78.988-46.048 124.047-7.841 1.904-13.688 8.966-13.688 17.385v33.509c0 8.367 5.776 15.392 13.545 17.347v215.139c0 14.95 12.163 27.112 27.113 27.112h359.508c10.074 0 19.262-5.535 23.976-14.445 1.938-3.661.54-8.199-3.121-10.137-3.662-1.938-8.199-.541-10.137 3.121-2.108 3.985-6.215 6.461-10.718 6.461h-29.795c-6.679 0-12.113-5.434-12.113-12.112v-214.579h54.019v188.278c0 4.143 3.358 7.5 7.5 7.5s7.5-3.357 7.5-7.5v-188.838c7.769-1.955 13.545-8.979 13.545-17.347v-33.509c.001-8.392-5.809-15.434-13.614-17.365zm-329.645 68.221c7.769-1.955 13.546-8.979 13.546-17.347v-33.509c0-8.325-5.718-15.32-13.426-17.317 1.308-30.995 14.087-59.927 36.331-81.956 23.5-23.273 54.607-35.911 87.61-35.595 64.768.627 117.881 52.75 121.439 117.571-7.67 2.024-13.349 9-13.349 17.297v33.509c0 8.367 5.776 15.392 13.545 17.347v35.773h-65.38v-18.414h10.036c10.11 0 18.335-8.225 18.335-18.334v-22.292c0-10.11-8.225-18.335-18.335-18.335h-135.007c-10.11 0-18.335 8.225-18.335 18.335v22.292c0 10.109 8.225 18.334 18.335 18.334h10.036v18.414h-65.38v-35.773zm55.345 2.359c-1.838 0-3.335-1.496-3.335-3.334v-22.292c0-1.839 1.496-3.335 3.335-3.335h135.007c1.838 0 3.335 1.496 3.335 3.335v22.292c0 1.838-1.496 3.334-3.335 3.334zm109.97 15v67.861c0 23.416-19.051 42.467-42.467 42.467s-42.467-19.051-42.467-42.467v-67.861zm15 33.414h65.38v21.092h-65.38zm-180.315 0h65.38v21.092h-65.38zm-15 164.366c0 6.679-5.434 12.112-12.113 12.112h-29.793c-6.679 0-12.113-5.434-12.113-12.112v-214.579h54.019zm-64.657-229.579c-1.603 0-2.907-1.304-2.907-2.906v-33.509c0-1.604 1.304-2.907 2.907-2.907h75.296c1.603 0 2.907 1.304 2.907 2.907v33.509c0 1.603-1.304 2.906-2.907 2.906zm76.791 241.691c1.83-3.648 2.867-7.76 2.867-12.112v-128.274h65.422c.876 30.928 26.29 55.822 57.426 55.822s56.55-24.894 57.426-55.822h65.422v128.273c0 4.352 1.037 8.464 2.867 12.112h-251.43zm331.126-244.598c0 1.603-1.304 2.906-2.907 2.906h-75.296c-1.603 0-2.907-1.304-2.907-2.906v-33.509c0-1.604 1.304-2.907 2.907-2.907h75.296c1.603 0 2.907 1.304 2.907 2.907zm-161.382 166.725c-4.142 0-7.5 3.357-7.5 7.5v47.065c0 4.143 3.358 7.5 7.5 7.5s7.5-3.357 7.5-7.5v-47.065c0-4.143-3.358-7.5-7.5-7.5zm-132.089-26.771c-4.142 0-7.5 3.357-7.5 7.5v73.836c0 4.143 3.358 7.5 7.5 7.5s7.5-3.357 7.5-7.5v-73.836c0-4.142-3.358-7.5-7.5-7.5zm88.059 39.418c-4.142 0-7.5 3.357-7.5 7.5v34.418c0 4.143 3.358 7.5 7.5 7.5s7.5-3.357 7.5-7.5v-34.418c0-4.142-3.358-7.5-7.5-7.5zm-44.03-12.647c-4.142 0-7.5 3.357-7.5 7.5v47.065c0 4.143 3.358 7.5 7.5 7.5s7.5-3.357 7.5-7.5v-47.065c0-4.143-3.358-7.5-7.5-7.5z"/></svg>