<svg id="Capa_1" enable-background="new 0 0 511.999 511.999" height="512" viewBox="0 0 511.999 511.999" width="512" xmlns="http://www.w3.org/2000/svg"><path d="m157.479 504.499h-31.577c-8.723 0-15.794-7.071-15.794-15.793v-48.637h63.164v48.637c.001 8.722-7.07 15.793-15.793 15.793z" fill="#4e5660"/><path d="m354.52 504.499h31.577c8.723 0 15.793-7.071 15.793-15.793v-48.637h-63.164v48.637c0 8.722 7.071 15.793 15.794 15.793z" fill="#4e5660"/><path d="m58.322 123.445c0-63.393 50.902-115.763 114.296-115.945 63.465-.183 114.97 51.21 114.97 114.633 0 36.182 29.331 65.512 65.512 65.512h47.096c29.536 0 53.48 23.944 53.48 53.48v150.405c0 26.807-21.731 48.538-48.538 48.538h-298.278c-26.807 0-48.538-21.731-48.538-48.538z" fill="#8eafe2"/><path d="m147.008 10.494c-50.951 11.965-88.686 58.37-88.686 112.951v268.085c0 26.807 21.731 48.538 48.538 48.538h83.431c-37.042-68.251-57.116-231.776-43.283-429.574z" fill="#6a96d7"/><path d="m58.322 284.279v107.251c0 26.807 21.731 48.538 48.538 48.538h298.278c26.807 0 48.538-21.731 48.538-48.538v-107.251z" fill="#a3defe"/><path d="m150.739 284.279h-92.417v107.251c0 26.807 21.731 48.538 48.538 48.538h83.431c-17.644-32.51-31.438-86.638-39.552-155.789z" fill="#7acefa"/><path d="m392.66 405.519h-273.321c-8.216 0-14.876-6.66-14.876-14.876v-56.939c0-8.216 6.66-14.876 14.876-14.876h273.321c8.216 0 14.876 6.66 14.876 14.876v56.939c0 8.216-6.66 14.876-14.876 14.876z" fill="#fff"/><path d="m154.976 405.519h-35.636c-8.216 0-14.876-6.66-14.876-14.876v-56.939c0-8.216 6.66-14.876 14.876-14.876h35.636z" fill="#f6e3a3"/><path d="m205.488 318.829h50.512v86.691h-50.512z" fill="#f6e3a3"/><path d="m306.512 318.829h50.512v86.691h-50.512z" fill="#f6e3a3"/><g fill="#4e5660"><path d="m167.604 318.829h-25.256v37.148c0 3.484 2.824 6.308 6.308 6.308h12.641c3.484 0 6.308-2.824 6.308-6.308v-37.148z"/><path d="m268.628 318.829h-25.256v37.148c0 3.484 2.824 6.308 6.308 6.308h12.641c3.484 0 6.308-2.824 6.308-6.308v-37.148z"/><path d="m369.652 318.829h-25.256v37.148c0 3.484 2.824 6.308 6.308 6.308h12.641c3.484 0 6.308-2.824 6.308-6.308v-37.148z"/></g><ellipse cx="115.037" cy="242.411" fill="#fff" rx="30.906" ry="24.612"/><ellipse cx="282.557" cy="242.411" fill="#fff" rx="30.906" ry="24.612"/><path d="m198.797 216.261c-12.261 0-23.18-8.239-30.047 1.922-6.966 10.307 8.636 26.289 30.047 26.289s37.014-15.982 30.047-26.289c-6.867-10.161-17.786-1.922-30.047-1.922z" fill="#4e5660"/><path d="m400.197 180.145h-47.096c-31.988 0-58.012-26.024-58.012-58.013 0-32.689-12.749-63.404-35.898-86.486-23.063-22.997-53.671-35.646-86.231-35.646h-.364c-24.84.071-48.731 7.663-69.09 21.955-3.39 2.38-4.209 7.058-1.829 10.448s7.058 4.209 10.448 1.829c17.835-12.519 38.76-19.17 60.515-19.232h.319c28.56 0 55.412 11.097 75.641 31.268 20.306 20.247 31.489 47.189 31.489 75.864 0 40.26 32.753 73.013 73.012 73.013h47.096c25.353 0 45.98 20.627 45.98 45.98v35.654h-380.355v-153.335c0-23.307 7.257-45.558 20.985-64.349 2.444-3.345 1.713-8.037-1.631-10.48-3.344-2.446-8.038-1.714-10.48 1.631-15.619 21.377-23.874 46.688-23.874 73.198v268.086c0 29.469 22.868 53.679 51.787 55.861v41.314c0 12.845 10.449 23.294 23.293 23.294h31.577c12.844 0 23.293-10.449 23.293-23.294v-41.136h150.454v41.136c0 12.845 10.449 23.294 23.293 23.294h31.577c12.844 0 23.293-10.449 23.293-23.294v-41.304c19.805-1.529 37.686-13.639 46.333-31.731 1.787-3.737.205-8.215-3.532-10.001-3.738-1.789-8.215-.204-10.001 3.532-6.785 14.195-21.329 23.367-37.051 23.367h-298.278c-22.628 0-41.038-18.41-41.038-41.039v-99.751h380.354v85.4c0 4.143 3.358 7.5 7.5 7.5s7.5-3.357 7.5-7.5v-136.053c.001-33.625-27.355-60.98-60.979-60.98zm-53.97 267.424h48.164v41.136c0 4.573-3.72 8.294-8.293 8.294h-31.578c-4.573 0-8.293-3.721-8.293-8.294zm-228.618 0h48.163v41.136c0 4.573-3.72 8.294-8.293 8.294h-31.577c-4.573 0-8.293-3.721-8.293-8.294zm146.936-223.051c7.395 0 14.427-3.203 19.294-8.787 2.722-3.122 2.396-7.86-.726-10.582-3.123-2.722-7.86-2.397-10.582.727-2.018 2.314-4.929 3.643-7.987 3.643s-5.969-1.327-7.986-3.643c-2.721-3.122-7.459-3.447-10.582-.727-3.123 2.722-3.448 7.459-.727 10.582 4.869 5.583 11.901 8.787 19.296 8.787zm-145.206 86.811c-12.338 0-22.376 10.037-22.376 22.375v56.939c0 12.338 10.038 22.376 22.376 22.376h273.32c12.338 0 22.376-10.038 22.376-22.376v-56.939c0-12.338-10.038-22.375-22.376-22.375zm28.137 86.691h-28.136c-4.067 0-7.376-3.309-7.376-7.376v-56.939c0-4.066 3.309-7.375 7.376-7.375h15.508v29.647c0 7.215 5.565 13.146 12.628 13.748zm12.628-43.236h-10.256v-28.455h10.256zm37.883 43.236h-35.512v-28.295c7.062-.602 12.628-6.533 12.628-13.748v-29.647h22.884zm50.513 0h-35.512v-71.69h22.884v29.647c0 7.215 5.566 13.146 12.628 13.748zm12.627-43.236h-10.256v-28.455h10.256zm37.885 43.236h-35.512v-28.295c7.062-.602 12.628-6.533 12.628-13.748v-29.647h22.884zm50.511 0h-35.512v-71.69h22.884v29.647c0 7.215 5.565 13.146 12.628 13.748zm12.628-43.236h-10.256v-28.455h10.256zm37.885-21.08v56.939c0 4.067-3.309 7.376-7.376 7.376h-28.136v-28.295c7.063-.602 12.628-6.533 12.628-13.748v-29.647h15.508c4.067 0 7.376 3.309 7.376 7.375zm-266.987-109.186c7.395 0 14.427-3.203 19.294-8.787 2.722-3.122 2.396-7.86-.726-10.582-3.123-2.722-7.86-2.397-10.582.727-2.018 2.314-4.929 3.643-7.987 3.643s-5.969-1.327-7.986-3.643c-2.721-3.122-7.459-3.447-10.582-.727-3.123 2.722-3.448 7.459-.727 10.582 4.869 5.583 11.901 8.787 19.296 8.787zm65.748 27.454c15.727 0 30.836-7.767 36.742-18.887 3.476-6.545 3.301-13.508-.48-19.102-7.489-11.08-18.409-8.58-26.383-6.755-3.293.754-6.698 1.533-9.878 1.533s-6.585-.779-9.878-1.533c-7.973-1.824-18.893-4.324-26.383 6.755-3.781 5.595-3.956 12.558-.48 19.102 5.904 11.12 21.013 18.887 36.74 18.887zm-23.833-29.589c.759-1.123 1.333-1.768 3.213-1.768 1.454 0 3.689.386 7.395 1.233 3.914.896 8.351 1.912 13.226 1.912s9.311-1.016 13.225-1.912c8.497-1.943 9.262-1.458 10.608.534.247.364.9 1.332-.339 3.667-2.812 5.295-12.002 10.922-23.494 10.922s-20.682-5.627-23.494-10.922c-1.24-2.334-.587-3.302-.34-3.666z"/></svg>