<svg id="Capa_1" enable-background="new 0 0 512 512" height="512" viewBox="0 0 512 512" width="512" xmlns="http://www.w3.org/2000/svg"><path d="m400.631 504.5h-289.262c-32.137 0-58.189-26.052-58.189-58.189v-380.622c0-32.137 26.052-58.189 58.189-58.189h238.904c59.948 0 108.547 48.598 108.547 108.547v330.265c0 32.136-26.052 58.188-58.189 58.188z" fill="#fcf2d0"/><path d="m161.992 7.5h-50.623c-32.137 0-58.189 26.052-58.189 58.189v380.622c0 32.137 26.052 58.189 58.189 58.189h117.985c-79.198-77.135-72.789-413.455-67.362-497z" fill="#f6e3a3"/><path d="m350.273 7.5v50.358c0 32.137 26.052 58.189 58.189 58.189h50.358c0-59.949-48.598-108.547-108.547-108.547z" fill="#f6e3a3"/><path d="m179.752 131.279 37.514-6.615v97.019l-37.514 6.615z" fill="#4e5660"/><path d="m274.288 67.009-65.648 11.576c-16.707 2.946-28.887 17.462-28.887 34.427v18.268l67.616-11.923c18.905-3.333 32.687-19.759 32.687-38.955v-8.553c-.001-3.056-2.759-5.37-5.768-4.84z" fill="#a3defe"/><path d="m208.64 78.585c-16.707 2.946-28.887 17.462-28.887 34.427v18.268l59.052-10.412c-10.091-8.248-12.238-33.042-10.306-45.783z" fill="#7acefa"/><ellipse cx="156.738" cy="232.356" fill="#8eafe2" rx="62.276" ry="41.467" transform="matrix(.949 -.315 .315 .949 -65.271 61.277)"/><path d="m156.738 275.02c2.835-.5 5.62-1.139 8.351-1.886-2.339-28.141-3.865-56.559-4.794-83.99-1.178.16-2.362.337-3.557.548-33.429 5.894-60.528 29.774-60.528 53.337 0 23.562 27.099 37.885 60.528 31.991z" fill="#6a96d7"/><path d="m179.752 131.279 37.514-6.615v26.106l-37.514 6.614z" fill="#383c43"/><path d="m304.243 269.827 37.514-6.615v97.019l-37.514 6.615z" fill="#4e5660"/><path d="m398.779 205.557-65.648 11.575c-16.707 2.946-28.888 17.462-28.888 34.427v18.267l67.616-11.922c18.905-3.333 32.687-19.759 32.687-38.955v-8.553c0-3.055-2.758-5.369-5.767-4.839z" fill="#a3defe"/><path d="m333.131 217.133c-16.707 2.946-28.888 17.462-28.888 34.427v18.267l59.052-10.412c-10.091-8.248-12.238-33.042-10.306-45.783z" fill="#7acefa"/><ellipse cx="281.229" cy="370.904" fill="#8eafe2" rx="62.276" ry="41.467" transform="matrix(.949 -.315 .315 .949 -102.607 107.6)"/><path d="m272.525 330.22c-29.303 8.143-51.824 29.878-51.824 51.357 0 23.563 27.1 37.886 60.529 31.991 7.046-1.242 13.805-3.292 20.094-5.961-34.773-14.528-35.872-59.518-28.799-77.387z" fill="#6a96d7"/><path d="m304.243 269.827 37.514-6.615v26.106l-37.514 6.615z" fill="#383c43"/><path d="m457.511 460.76c-3.846-1.523-8.209.358-9.734 4.211-7.708 19.457-26.214 32.029-47.146 32.029h-289.262c-27.95 0-50.689-22.738-50.689-50.689v-325.17c0-4.143-3.358-7.5-7.5-7.5s-7.5 3.357-7.5 7.5v325.17c0 36.221 29.468 65.689 65.689 65.689h289.262c27.124 0 51.104-16.292 61.092-41.505 1.525-3.851-.36-8.21-4.212-9.735zm-107.238-460.76h-238.904c-36.221 0-65.689 29.468-65.689 65.689v19.608c0 4.143 3.358 7.5 7.5 7.5s7.5-3.357 7.5-7.5v-19.608c0-27.95 22.739-50.689 50.689-50.689h231.404v42.858c0 36.221 29.468 65.688 65.689 65.688h42.858v308.449c0 4.143 3.357 7.5 7.5 7.5s7.5-3.357 7.5-7.5v-315.948c0-63.988-52.059-116.047-116.047-116.047zm58.189 108.547c-27.95 0-50.689-22.738-50.689-50.688v-42.58c49.752 3.668 89.601 43.516 93.268 93.268zm-253.026 73.759c-37.417 6.598-66.726 33.27-66.726 60.723 0 10.873 4.776 20.868 13.45 28.145 2.047 1.718 4.3 3.259 6.712 4.639.254 3.912 3.499 7.008 7.475 7.008h13.144c4.068.655 8.31 1 12.677 1 4.296 0 8.711-.342 13.18-1h141.396v31.476h-180.397c-4.142 0-7.5 3.357-7.5 7.5s3.358 7.5 7.5 7.5h137.305c-15.713 7.581-28.181 18.835-34.924 31.476h-102.381c-4.142 0-7.5 3.357-7.5 7.5s3.358 7.5 7.5 7.5h97.301c-.286 1.927-.448 3.863-.448 5.805 0 10.872 4.776 20.867 13.449 28.145 9.816 8.237 24.124 12.648 40.011 12.648 5.157 0 10.483-.466 15.872-1.416 30.254-5.335 55.201-23.797 63.645-45.182h49.475c4.143 0 7.5-3.357 7.5-7.5s-3.357-7.5-7.5-7.5h-46.412c.003-.18.018-.361.018-.541v-30.935h46.395c4.143 0 7.5-3.357 7.5-7.5s-3.357-7.5-7.5-7.5h-46.395v-31.476h46.395c4.143 0 7.5-3.357 7.5-7.5s-3.357-7.5-7.5-7.5h-36.845l14.355-2.531c22.531-3.973 38.885-23.462 38.885-46.341v-8.553c0-3.679-1.617-7.145-4.436-9.511-2.818-2.363-6.512-3.356-10.135-2.714l-65.648 11.575c-8.778 1.548-16.513 5.711-22.474 11.599h-84.588v-90.388l23.904-4.215c22.531-3.974 38.885-23.463 38.885-46.341v-8.553c0-3.679-1.616-7.145-4.435-9.51-2.818-2.364-6.51-3.358-10.135-2.716 0 0 0 0-.001 0l-65.648 11.576c-20.33 3.584-35.085 21.169-35.085 41.813v18.268c0 .003.001.006.001.009v49.619c-5.453-.061-11.096.389-16.817 1.399zm178.822 148.573c-6.156-4.706-13.861-8.034-22.514-9.84v-44.919l22.514-3.97zm-22.515-79.319c0-6.671 2.383-12.848 6.408-17.648.066-.072.133-.141.196-.215 4.017-4.689 9.611-8.035 16.086-9.177l62.613-11.04v5.471c0 15.586-11.141 28.862-26.49 31.569l-58.813 10.37zm-8.123 83.291c9.071 1.054 16.938 4.02 22.546 8.725 5.369 4.505 8.092 10.108 8.092 16.655 0 19.715-24.881 40.758-54.33 45.951-17.682 3.116-33.991.143-43.636-7.951-5.369-4.505-8.091-10.108-8.091-16.654 0-19.716 24.88-40.759 54.331-45.951 4.62-.815 9.146-1.213 13.485-1.213 2.454 0 4.844.134 7.161.386.147.02.293.04.442.052zm-4.066-98.505c-1.816 4.742-2.811 9.874-2.811 15.214v16.262h-101.599c12.83-8.46 22.427-19.535 26.873-31.476zm-89.788-44.015c-6.156-4.706-13.861-8.034-22.514-9.84v-44.919l22.514-3.97zm-22.514-79.319c0-13.351 9.542-24.723 22.69-27.041l62.613-11.041v5.472c0 15.585-11.141 28.862-26.49 31.569l-58.813 10.37zm-8.592 83.235c.16.023.32.044.482.058 9.066 1.055 16.928 4.02 22.533 8.723 5.369 4.505 8.091 10.108 8.091 16.655 0 1.818-.215 3.648-.622 5.475-.017.076-.038.151-.053.227-4.151 17.908-27.034 35.554-53.655 40.248-17.676 3.115-33.988.145-43.635-7.95-5.369-4.505-8.091-10.108-8.091-16.655 0-19.715 24.88-40.758 54.33-45.951 4.621-.814 9.146-1.213 13.485-1.213 2.445 0 4.826.133 7.135.383z"/></svg>