<svg id="Capa_1" enable-background="new 0 0 512 512" height="512" viewBox="0 0 512 512" width="512" xmlns="http://www.w3.org/2000/svg"><circle cx="331.124" cy="159.209" fill="#4e5660" r="151.709"/><path d="m326.946 135.579h-145.696c-1.204 7.701-1.835 15.591-1.835 23.63 0 83.787 67.922 151.709 151.709 151.709 24.038 0 46.766-5.6 66.963-15.552v-88.646c0-39.227-31.914-71.141-71.141-71.141z" fill="#383c43"/><ellipse cx="331.124" cy="159.209" fill="#89d47f" rx="66.812" ry="66.812" transform="matrix(.174 -.985 .985 .174 116.596 457.485)"/><path d="m393.799 182.391c-9.96-27.282-36.168-46.812-66.854-46.812h-58.32c-2.78 7.348-4.314 15.308-4.314 23.63 0 36.899 29.913 66.812 66.812 66.812 28.749 0 53.251-18.159 62.676-43.63z" fill="#5ec783"/><circle cx="331.124" cy="159.209" fill="#fff" r="19.186"/><path d="m326.946 166.65h-257.71c-22.13 0-40.07 17.94-40.07 40.07v257.71c0 22.13 17.94 40.07 40.07 40.07h257.71c22.13 0 40.07-17.94 40.07-40.07v-257.71c0-22.13-17.94-40.07-40.07-40.07z" fill="#f7ef87"/><path d="m141.992 166.65h-72.756c-22.13 0-40.07 17.94-40.07 40.07v257.71c0 22.13 17.94 40.07 40.07 40.07h133.104c-46.273-61.316-73.756-242.792-60.348-337.85z" fill="#efd176"/><path d="m367.016 331.146v-51.063c-7.111-14.571-20.034-25.643-35.826-30.298l-53.538-15.783-31.555-46.041c-6.704-9.783-16.116-17.121-26.854-21.311h-42.313c-10.738 4.19-20.15 11.528-26.854 21.31l-31.555 46.042-53.538 15.783c-15.784 4.653-28.701 15.717-35.815 30.276v51.11c1.699 3.474 3.736 6.81 6.142 9.938l34.037 44.238-1.535 55.796c-.435 15.849 5.395 30.818 16.419 42.148 10.932 11.237 26.14 17.681 41.723 17.681 6.644 0 13.219-1.141 19.542-3.389l52.591-18.702 52.591 18.702c6.323 2.25 12.898 3.389 19.542 3.389 15.583 0 30.791-6.445 41.723-17.683 11.024-11.33 16.854-26.298 16.417-42.146l-1.534-55.796 34.038-44.238c2.41-3.136 4.451-6.481 6.152-9.963z" fill="#8eafe2"/><path d="m188.781 482.188c-32.83-65.101-52.927-190.144-49.889-277.911l-20.373 29.725-53.538 15.783c-15.784 4.653-28.701 15.717-35.815 30.276v51.11c1.699 3.474 3.736 6.81 6.142 9.938l34.037 44.238-1.535 55.796c-.435 15.849 5.395 30.818 16.419 42.148 10.932 11.237 26.14 17.681 41.723 17.681 6.644 0 13.219-1.141 19.542-3.389z" fill="#6a96d7"/><path d="m188.994 449.135-53.911 19.171c-17.962 6.387-36.737-7.254-36.213-26.31l1.573-57.196c.172-6.238-1.813-12.345-5.618-17.292l-34.891-45.348c-11.625-15.109-4.454-37.181 13.832-42.571l54.883-16.178c5.986-1.765 11.181-5.539 14.709-10.687l32.346-47.197c10.777-15.725 33.985-15.725 44.762 0l32.346 47.197c3.528 5.148 8.723 8.922 14.709 10.687l54.883 16.178c18.286 5.39 25.458 27.462 13.832 42.571l-34.892 45.348c-3.806 4.946-5.79 11.053-5.618 17.292l1.573 57.196c.524 19.057-18.251 32.698-36.213 26.31l-53.911-19.171c-5.879-2.091-12.3-2.091-18.181 0z" fill="#f7ef87"/><path d="m139.566 257.115c-3.082 2.903-6.805 5.082-10.917 6.295l-54.883 16.178c-18.286 5.39-25.458 27.462-13.832 42.571l34.892 45.348c3.806 4.946 5.79 11.053 5.618 17.292l-1.573 57.196c-.524 19.057 18.251 32.698 36.213 26.31l41.418-14.728c-19.929-53.874-33.333-129.559-36.936-196.462z" fill="#efd176"/><path d="m151.816 342.97c.006 11.901-12.104 21.554-27.048 21.562s-27.064-9.634-27.07-21.534c-.006-11.901 12.104-21.554 27.048-21.562 14.945-.008 27.064 9.634 27.07 21.534z" fill="#eda1ab"/><path d="m244.366 342.924c.006 11.901 12.126 21.542 27.07 21.534 14.944-.007 27.054-9.661 27.048-21.561-.006-11.901-12.126-21.542-27.07-21.535-14.944.008-27.054 9.661-27.048 21.562z" fill="#eda1ab"/><path d="m224.61 333.192c-.008-16.392-11.884-17.926-26.533-17.919s-26.523 1.553-26.515 17.946c.008 16.392 11.89 29.674 26.539 29.667 14.649-.008 26.517-13.302 26.509-29.694z" fill="#4e5660"/><path d="m243.251 99.82c-1.158 0-2.325-.357-3.326-1.1-2.483-1.84-3.005-5.344-1.165-7.827 13.094-17.675 30.827-31.159 51.281-38.995 2.89-1.105 6.122.339 7.228 3.224 1.105 2.887-.338 6.122-3.224 7.228-18.462 7.071-34.47 19.245-46.292 35.206-1.099 1.481-2.79 2.264-4.502 2.264z" fill="#383c43"/><path d="m408.397 242.079c-1.432 0-2.864-.547-3.957-1.639-2.185-2.186-2.185-5.729 0-7.914 14.425-14.424 24.198-32.549 28.264-52.415.619-3.027 3.571-4.983 6.604-4.359 3.027.619 4.979 3.575 4.359 6.604-4.506 22.02-15.334 42.105-31.313 58.085-1.093 1.091-2.525 1.638-3.957 1.638z" fill="#383c43"/><path d="m173.752 359.203c6.452 7.212 15.093 11.183 24.336 11.183h.017c18.76-.01 34.015-16.696 34.005-37.197-.005-10.471-4.005-17.804-11.888-21.797-5.92-2.998-13.097-3.618-22.045-3.618h-.104c-8.997.004-16.206.625-22.146 3.641-7.879 4.001-11.871 11.338-11.866 21.809.006 9.773 3.448 19 9.691 25.979zm8.967-34.414c3.48-1.767 9.439-2.013 15.362-2.016h.113c5.885 0 11.792.248 15.251 2 1.28.648 3.662 1.854 3.665 8.423.006 12.23-8.523 22.184-19.013 22.189h-.009c-4.917 0-9.589-2.196-13.157-6.184-3.782-4.227-5.866-9.905-5.869-15.987-.003-6.567 2.378-7.775 3.657-8.425zm73.59-24.65h-.015c-4.135 0-7.492 3.349-7.499 7.486l-.02 10.627c-.008 4.142 3.344 7.506 7.486 7.514h.015c4.135 0 7.491-3.349 7.499-7.486l.021-10.627c.006-4.142-3.345-7.506-7.487-7.514zm200.075-239.213c-2.558-3.256-7.273-3.822-10.531-1.264-3.257 2.56-3.822 7.274-1.264 10.531 20.113 25.6 30.745 56.38 30.745 89.016 0 32.989-10.841 64.033-31.352 89.776-17.896 22.461-42.3 39.178-69.467 47.768v-77.24c19.435-13.973 30.921-36.214 30.921-60.305 0-40.976-33.337-74.312-74.313-74.312-40.956 0-74.278 33.304-74.31 74.253h-69.898c.032-79.488 64.711-144.149 144.209-144.149 32.887 0 63.857 10.78 89.56 31.174 3.245 2.575 7.961 2.031 10.537-1.213 2.575-3.245 2.031-7.963-1.213-10.537-28.383-22.521-62.577-34.424-98.884-34.424-87.769 0-159.176 71.389-159.208 159.15h-102.68c-26.23 0-47.57 21.34-47.57 47.57v237.773c0 4.143 3.358 7.5 7.5 7.5s7.5-3.357 7.5-7.5v-89.323l25.109 32.634-1.461 53.13c-.492 17.891 6.093 34.79 18.539 47.583 3.09 3.177 6.484 6.013 10.112 8.481h-19.729c-13.059 0-24.818-7.758-29.958-19.765-1.63-3.809-6.039-5.573-9.847-3.943s-5.573 6.038-3.943 9.846c7.505 17.535 24.678 28.864 43.748 28.864h257.71c26.23 0 47.569-21.34 47.569-47.57v-152.019c31.802-9.012 60.463-28.053 81.198-54.079 22.648-28.426 34.62-62.702 34.62-99.123.001-36.029-11.739-70.015-33.949-98.283zm-419.718 145.795c0-17.959 14.611-32.57 32.57-32.57h82.64c-2.939 2.91-5.616 6.109-7.988 9.57l-30.047 43.842-50.981 15.027c-9.855 2.906-18.804 8.085-26.194 14.975zm132.847 290.279 28.572-10.16 28.573 10.16zm190.002-32.57c0 17.959-14.61 32.57-32.569 32.57h-19.74c3.628-2.469 7.022-5.306 10.112-8.482 12.447-12.794 19.031-29.692 18.538-47.582l-1.462-53.13 25.121-32.649zm0-135.109c-1.355 2.567-2.889 4.994-4.598 7.214l-34.038 44.238c-1.052 1.367-1.601 3.055-1.553 4.779l1.535 55.796c.38 13.807-4.696 26.844-14.296 36.71-9.528 9.795-22.776 15.413-36.347 15.413-5.785 0-11.515-.994-17.03-2.956l-52.591-18.701c-1.625-.578-3.4-.578-5.025 0l-52.591 18.701c-5.518 1.961-11.247 2.956-17.03 2.956-13.571 0-26.819-5.617-36.348-15.412-9.599-9.865-14.676-22.903-14.297-36.711l1.535-55.796c.047-1.725-.501-3.412-1.553-4.779l-34.038-44.239c-1.704-2.214-3.235-4.633-4.586-7.191v-47.448c6.369-12.022 17.368-21.064 30.435-24.916l53.538-15.782c1.655-.488 3.091-1.531 4.066-2.954l31.555-46.041c5.52-8.055 13.159-14.269 22.147-18.051h39.353c8.989 3.781 16.629 9.996 22.149 18.052l31.555 46.04c.976 1.423 2.411 2.466 4.065 2.954l53.539 15.783c13.077 3.855 24.079 12.903 30.446 24.936v47.405zm0-71.746c-7.391-6.894-16.344-12.077-26.204-14.984l-50.981-15.028-30.047-43.84c-2.373-3.463-5.049-6.661-7.989-9.572h69.087.1 13.466c17.959 0 32.569 14.611 32.569 32.57v50.854zm-40.074-98.425c.032-6.416 5.259-11.627 11.682-11.627 6.443 0 11.686 5.242 11.686 11.686 0 .88-.105 1.738-.291 2.573-4.883-1.697-10.119-2.631-15.573-2.631h-7.504zm54.606 40.973c-1.759-12.62-8.484-23.666-18.136-31.1 1.229-3.107 1.898-6.434 1.898-9.815 0-14.715-11.971-26.686-26.686-26.686-14.695 0-26.652 11.939-26.684 26.627h-32.626c.032-32.677 26.626-59.253 59.31-59.253 32.705 0 59.313 26.607 59.313 59.312 0 15.49-5.961 30.017-16.389 40.915zm-49.521 72.272-54.883-16.179c-4.319-1.272-8.099-4.018-10.645-7.733l-32.346-47.197c-6.46-9.426-17.14-15.053-28.567-15.053-11.428 0-22.107 5.627-28.567 15.053l-32.347 47.198c-2.544 3.714-6.324 6.46-10.643 7.732l-54.883 16.179c-10.961 3.232-19.614 11.648-23.145 22.517-3.532 10.869-1.479 22.765 5.489 31.821l34.892 45.349c2.745 3.568 4.189 8.012 4.065 12.512l-1.573 57.196c-.314 11.424 5.018 22.254 14.264 28.971 9.245 6.718 21.192 8.441 31.959 4.612l53.911-19.171c4.242-1.508 8.915-1.508 13.156 0l53.911 19.171c3.779 1.344 7.703 2.004 11.605 2.004 7.215 0 14.354-2.257 20.354-6.616 9.245-6.717 14.577-17.547 14.263-28.971l-1.573-57.195c-.123-4.501 1.321-8.944 4.066-12.513l34.892-45.349c6.969-9.057 9.021-20.952 5.489-31.821-3.531-10.869-12.183-19.286-23.144-22.517zm5.767 45.191-34.892 45.349c-4.843 6.294-7.39 14.132-7.172 22.07l1.573 57.196c.181 6.573-2.767 12.559-8.085 16.424-5.319 3.863-11.921 4.817-18.118 2.614l-53.911-19.171c-3.741-1.33-7.672-1.995-11.604-1.995-3.931 0-7.862.665-11.603 1.995l-53.911 19.171c-6.195 2.202-12.798 1.251-18.117-2.614s-8.267-9.851-8.086-16.424l1.573-57.196c.218-7.939-2.329-15.776-7.171-22.07l-34.893-45.349c-4.009-5.211-5.143-11.786-3.111-18.039s6.814-10.905 13.121-12.764l54.883-16.179c7.618-2.246 14.286-7.091 18.775-13.642l32.347-47.197c3.717-5.423 9.62-8.533 16.194-8.533 6.575 0 12.478 3.11 16.194 8.533l32.346 47.196c4.489 6.552 11.157 11.396 18.775 13.643l54.884 16.179c6.306 1.858 11.088 6.511 13.12 12.764s.898 12.828-3.111 18.039zm-101.057 84.771h-62.289c-4.142 0-7.5 3.357-7.5 7.5s3.358 7.5 7.5 7.5h62.289c4.142 0 7.5-3.357 7.5-7.5 0-4.142-3.358-7.5-7.5-7.5zm-64.274-85.047c.012-5.33-2.053-10.346-5.814-14.123s-8.767-5.863-14.096-5.875h-.047c-5.313 0-10.31 2.064-14.077 5.814-3.777 3.761-5.863 8.767-5.875 14.097-.009 4.143 3.341 7.508 7.483 7.517h.017c4.134 0 7.49-3.348 7.499-7.483.003-1.323.521-2.566 1.459-3.5.935-.932 2.175-1.443 3.495-1.443h.011c1.323.003 2.566.521 3.5 1.458.934.938 1.446 2.184 1.443 3.507-.009 4.143 3.341 7.508 7.483 7.517h.017c4.136-.003 7.492-3.351 7.502-7.486z"/></svg>