<svg id="Capa_1" enable-background="new 0 0 511.561 511.561" height="512" viewBox="0 0 511.561 511.561" width="512" xmlns="http://www.w3.org/2000/svg"><path d="m181.128 441.674c-.606 0-1.217-.034-1.834-.107-8.566-1.003-14.698-8.759-13.696-17.325 2.195-18.76 10.493-66.779 40.079-107.404 5.076-6.971 14.845-8.51 21.816-3.43 6.972 5.077 8.508 14.845 3.43 21.816-25.941 35.621-32.815 79.918-34.304 92.647-.93 7.95-7.677 13.803-15.491 13.803z" fill="#e1b89a"/><path d="m118.023 416.103c-2.598 0-5.231-.65-7.655-2.016-7.513-4.234-10.17-13.759-5.934-21.272 26.198-46.474 52.997-68.619 76.641-88.158 1.927-1.593 3.845-3.178 5.753-4.768 6.623-5.522 16.471-4.627 21.994 2 5.522 6.626 4.626 16.472-2 21.994-1.941 1.618-3.892 3.23-5.852 4.85-22.604 18.678-45.977 37.993-69.33 79.42-2.868 5.088-8.164 7.95-13.617 7.95z" fill="#e1b89a"/><path d="m186.828 299.889c-1.908 1.59-3.827 3.175-5.753 4.768-13.916 11.5-28.926 23.909-44.262 41.644 1.943 1.103 4.033 2.008 6.251 2.678 8.472 2.559 17.939 4.716 27.781 6.518 10.146-10.252 20.209-18.57 30.126-26.764 1.96-1.62 3.911-3.232 5.852-4.85 6.626-5.522 7.521-15.368 2-21.994-5.524-6.627-15.372-7.522-21.995-2z" fill="#d2996f"/><path d="m227.493 313.408c-6.971-5.079-16.74-3.541-21.816 3.43-9.616 13.204-16.971 27.185-22.611 40.693 10.959 1.654 22.062 2.9 32.525 3.799 4.175-8.833 9.218-17.71 15.332-26.105 5.078-6.972 3.543-16.739-3.43-21.817z" fill="#d2996f"/><path d="m327.944 441.674c.606 0 1.217-.034 1.834-.107 8.566-1.003 14.698-8.759 13.696-17.325-2.195-18.76-10.493-66.779-40.079-107.404-5.076-6.971-14.845-8.51-21.816-3.43-6.972 5.077-8.508 14.845-3.43 21.816 25.941 35.621 32.815 79.918 34.304 92.647.93 7.95 7.677 13.803 15.491 13.803z" fill="#e1b89a"/><path d="m391.049 416.103c2.598 0 5.231-.65 7.655-2.016 7.513-4.234 10.17-13.759 5.934-21.272-26.198-46.474-52.997-68.619-76.641-88.158-1.927-1.593-3.845-3.178-5.753-4.768-6.623-5.522-16.471-4.627-21.994 2-5.522 6.626-4.626 16.472 2 21.994 1.941 1.618 3.892 3.23 5.852 4.85 22.604 18.678 45.977 37.993 69.33 79.42 2.868 5.088 8.164 7.95 13.617 7.95z" fill="#e1b89a"/><path d="m322.244 299.889c1.908 1.59 3.827 3.175 5.753 4.768 13.916 11.5 28.926 23.909 44.262 41.644-1.943 1.103-4.033 2.008-6.251 2.678-8.472 2.559-17.939 4.716-27.781 6.518-10.145-10.252-20.209-18.57-30.126-26.764-1.96-1.62-3.911-3.232-5.852-4.85-6.626-5.522-7.521-15.368-2-21.994 5.524-6.627 15.372-7.522 21.995-2z" fill="#d2996f"/><path d="m281.579 313.408c6.971-5.079 16.74-3.541 21.816 3.43 9.616 13.204 16.971 27.185 22.611 40.693-10.959 1.654-22.062 2.9-32.525 3.799-4.175-8.833-9.218-17.71-15.332-26.105-5.078-6.972-3.543-16.739 3.43-21.817z" fill="#d2996f"/><path d="m399.987 303.449 39.006-6.877v128.121l-39.006 6.878z" fill="#4e5660"/><path d="m498.283 236.623-68.26 12.036c-17.372 3.063-30.037 18.157-30.037 35.796v18.994l70.306-12.397c19.657-3.466 33.988-20.545 33.988-40.505v-8.893c0-3.176-2.868-5.583-5.997-5.031z" fill="#f7ef87"/><path d="m430.024 248.659c-17.372 3.063-30.037 18.157-30.037 35.796v18.994l61.401-10.827c-10.493-8.576-12.725-34.356-10.716-47.605z" fill="#efd176"/><ellipse cx="376.057" cy="435.79" fill="#e8899e" rx="64.754" ry="43.116" transform="matrix(.949 -.315 .315 .949 -118.23 140.811)"/><path d="m367.007 393.488c-30.469 8.467-53.886 31.067-53.886 53.4 0 24.5 28.178 39.393 62.937 33.264 7.326-1.292 14.354-3.423 20.893-6.198-36.157-15.107-37.299-61.886-29.944-80.466z" fill="#de5c6e"/><path d="m399.987 303.449 39.006-6.877v27.144l-39.006 6.878z" fill="#383c43"/><path d="m361.179 311.886c53.512-16.303 76.856-80.018 48.908-129.059-18.027-31.633-64.758-70.317-155.551-70.317s-137.524 38.684-155.551 70.317c-27.948 49.041-4.604 112.756 48.908 129.059z" fill="#89d47f"/><path d="m189.811 120.21c-49.403 12.868-77.712 39.606-90.826 62.617-27.948 49.041-4.605 112.756 48.908 129.059h72.636c-42.924-34.993-52.08-145.772-30.718-191.676z" fill="#5ec783"/><path d="m92.956 195.64c-17.715 46.739 5.982 101.332 54.937 116.246h213.287c48.955-14.914 72.652-69.507 54.937-116.246-46.678-21.998-100.05-28.246-161.58-28.246s-114.903 6.248-161.581 28.246z" fill="#f7ef87"/><path d="m179.076 171.683c-31.036 4.078-59.655 11.484-86.12 23.956-17.715 46.739 5.982 101.332 54.937 116.246h72.636c-30.756-25.072-44.175-89.049-41.453-140.202z" fill="#efd176"/><path d="m416.602 258.462c-46.793-22.185-100.322-28.482-162.066-28.482s-115.273 6.297-162.066 28.482c8.843 24.617 28.235 45.141 55.423 53.424h213.287c27.187-8.283 46.579-28.807 55.422-53.424z" fill="#e8899e"/><path d="m183.22 233.745c-32.829 3.979-62.976 11.549-90.75 24.717 8.843 24.617 28.235 45.141 55.423 53.424h72.636c-18.871-15.384-31.216-45.409-37.309-78.141z" fill="#de5c6e"/><path d="m254.536 290.256c37.099 0 82.575 10.568 106.643 21.63 7.682 3.531 6.902 14.716-1.192 17.161-30.071 9.082-77.568 13.333-105.451 13.333s-75.38-4.25-105.451-13.333c-8.094-2.445-8.874-13.63-1.192-17.161 24.068-11.062 69.544-21.63 106.643-21.63z" fill="#4e5660"/><path d="m205.73 295.077c-22.612 4.118-43.844 10.378-57.837 16.809-7.683 3.531-6.902 14.716 1.192 17.161 14.834 4.48 33.909 7.783 52.778 9.981-11.795-10.473-4.444-37.02 3.867-43.951z" fill="#383c43"/><path d="m94.147 96.961 39.006-6.878v128.121l-39.006 6.878z" fill="#4e5660"/><path d="m192.443 30.134-68.26 12.036c-17.372 3.063-30.037 18.157-30.037 35.797v18.994l70.306-12.397c19.657-3.466 33.988-20.545 33.988-40.505v-8.893c0-3.176-2.868-5.583-5.997-5.032z" fill="#f7ef87"/><path d="m124.184 42.17c-17.372 3.063-30.037 18.157-30.037 35.797v18.994l61.401-10.827c-10.493-8.576-12.725-34.356-10.716-47.605z" fill="#efd176"/><ellipse cx="70.217" cy="229.302" fill="#89d47f" rx="64.754" ry="43.116" transform="matrix(.949 -.315 .315 .949 -68.722 33.839)"/><path d="m61.167 187c-30.469 8.467-53.886 31.067-53.886 53.4 0 24.5 28.178 39.393 62.937 33.264 7.326-1.292 14.354-3.423 20.893-6.198-36.157-15.107-37.298-61.886-29.944-80.466z" fill="#5ec783"/><path d="m94.147 96.961 39.006-6.878v27.144l-39.006 6.878z" fill="#383c43"/><path d="m326.006 278.742c-1.998 0-3.996-.763-5.521-2.287-3.049-3.05-3.049-7.993 0-11.043l8.12-8.12c3.051-3.049 7.992-3.049 11.043 0 3.049 3.05 3.049 7.993 0 11.043l-8.12 8.12c-1.526 1.524-3.524 2.287-5.522 2.287z" fill="#de5c6e"/><path d="m191.615 216.735c-1.998 0-3.996-.763-5.52-2.287-3.05-3.049-3.05-7.993-.001-11.042l12.221-12.222c3.049-3.051 7.993-3.05 11.042-.001 3.05 3.049 3.05 7.993.001 11.042l-12.221 12.222c-1.525 1.525-3.524 2.288-5.522 2.288z" fill="#efd176"/><path d="m296.63 152.376c-1.998 0-3.996-.763-5.522-2.287-3.049-3.05-3.049-7.993 0-11.043l3.707-3.707c3.051-3.049 7.992-3.049 11.043 0 3.049 3.05 3.049 7.993 0 11.043l-3.707 3.707c-1.525 1.525-3.523 2.287-5.521 2.287z" fill="#5ec783"/><path d="m507.135 232.164c-2.814-2.36-6.496-3.35-10.116-2.711l-68.26 12.036c-.157.028-.312.064-.469.093 3.082-21.328-.944-43.174-11.878-62.36-6.73-11.811-16.453-23.18-28.12-32.881-3.09-2.571-7.683-2.15-10.252.943-2.571 3.091-2.148 7.682.943 10.252 8.567 7.124 15.914 15.209 21.524 23.636-38.665-14.489-84.73-21.06-145.971-21.06-45.947 0-82.532 3.608-114.103 11.304v-21.638c28.99-19.633 68.339-29.989 114.103-29.989 37.011 0 69.258 6.552 95.846 19.475 3.617 1.756 7.972.251 9.73-3.365s.251-7.973-3.365-9.73c-28.588-13.895-62.977-20.939-102.211-20.939-44.589 0-83.701 9.419-114.103 27.344v-36.38l25.282-4.458c23.181-4.087 40.005-24.138 40.005-47.675v-8.893c0-3.672-1.613-7.131-4.426-9.491s-6.495-3.351-10.116-2.711l-68.259 12.034c-20.891 3.685-36.053 21.754-36.053 42.967v98.371c-5.8-.099-11.812.357-17.914 1.432-38.665 6.819-68.952 34.328-68.952 62.629 0 11.312 4.772 21.294 13.8 28.869 10.113 8.486 24.868 13.03 41.261 13.03 5.334 0 10.845-.481 16.421-1.465 7.171-1.264 14.051-3.244 20.505-5.805 10.028 18.243 25.293 32.175 44.03 40.244-.599 1.923-.854 3.981-.708 6.094.283 4.108 2.03 7.8 4.786 10.544-10.796 11.316-20.474 23.399-29.378 36.734-2.232 3.344-1.332 7.865 2.012 10.098 1.242.829 2.646 1.227 4.036 1.227 2.351 0 4.658-1.137 6.062-3.238 9.456-14.164 19.827-26.835 31.582-38.649 6.2 1.6 12.803 3.012 19.603 4.246-17.488 16.19-33.02 34.411-48.712 62.25-1.477 2.618-4.265 4.245-7.276 4.245-1.438 0-2.81-.363-4.08-1.078-2.019-1.139-3.438-3.005-3.997-5.256-.968-3.902-4.92-6.282-8.819-5.311-3.902.968-6.28 4.917-5.312 8.819 1.512 6.091 5.513 11.352 10.979 14.432 3.43 1.934 7.313 2.955 11.229 2.955 8.26 0 15.908-4.467 19.96-11.656 11.808-20.947 23.58-35.971 34.76-47.759-9.546 25.854-13.134 48.818-14.375 59.428-1.469 12.539 7.539 23.935 20.079 25.402.883.104 1.785.156 2.682.156 11.604 0 21.372-8.7 22.721-20.237 1.26-10.771 6.847-47.456 26.726-79.857 9.162.547 17.397.799 23.96.799s14.798-.252 23.959-.799c19.884 32.407 25.467 69.086 26.726 79.859.294 2.508 1.018 4.953 2.112 7.23-.973 3.604-1.494 7.264-1.494 10.938 0 11.312 4.771 21.294 13.8 28.869 10.113 8.486 24.868 13.03 41.261 13.03 5.334 0 10.845-.481 16.421-1.465 38.665-6.818 68.952-34.328 68.952-62.629v-122.013l25.282-4.458c23.181-4.087 40.005-24.138 40.005-47.675v-8.893c0-3.671-1.614-7.13-4.426-9.49zm-252.599-57.491c67.638 0 115.866 8.132 155.776 26.31 5.197 15.277 5.829 31.699 1.774 47.444-41.029-17.756-90.114-25.727-157.55-25.727-47.892 0-85.105 3.799-117.55 12.156 1.641-3.987 2.724-8.075 3.181-12.203.052-.457.099-.913.135-1.37.021-.269.04-.538.055-.808.045-.757.075-1.514.075-2.269v-31.777c31.179-8.009 67.638-11.756 114.104-11.756zm-153.109-96.706c0-14.133 10.102-26.173 24.021-28.627l65.712-11.587v6.306c0 16.458-11.764 30.478-27.973 33.335l-61.761 10.891v-10.318zm0 25.104 24.446-4.311v89.984c-6.567-5.27-14.961-8.956-24.446-10.878zm-32.475 163.423c-18.524 3.268-35.648.135-45.793-8.379-5.706-4.788-8.599-10.748-8.599-17.716 0-20.734 26.066-42.848 56.921-48.288 4.831-.853 9.563-1.269 14.104-1.269 2.592 0 5.116.143 7.564.411.124.017.248.034.374.045 9.549 1.105 17.839 4.23 23.752 9.192 5.706 4.787 8.599 10.747 8.599 17.715 0 .561-.028 1.123-.066 1.686-.015.219-.035.438-.056.658-.029.313-.068.627-.108.941-1.002 7.552-5.366 15.391-12.188 22.422-.192.197-.379.396-.576.591-.155.156-.316.31-.474.465-10.539 10.271-26.249 18.492-43.454 21.526zm36.167 2.189c7.428-4.288 13.979-9.393 19.36-15.047 34.951-11.315 75.184-16.376 130.057-16.376 65.879 0 113.388 7.727 152.702 24.942-9.024 19.909-25.403 34.956-45.657 41.897-24.224-10.45-68.743-21.124-107.045-21.124-38.293 0-82.8 10.67-107.028 21.117-18.114-6.184-32.912-18.562-42.389-35.409zm229.951 73.643c6.806-1.234 13.414-2.648 19.617-4.25 13.44 13.498 24.878 27.918 35.501 44.744-5.017.057-10.173.517-15.397 1.438-1.063.188-2.117.397-3.167.615-12.352-18.291-24.68-31.554-36.554-42.547zm21.774 46.766c-3.961 1.452-7.769 3.124-11.4 4.986-2.12-8.884-5.05-19.139-9.067-30.013 6.759 7.131 13.611 15.302 20.467 25.027zm12.148-57.195c2.747-2.742 4.488-6.429 4.771-10.529.146-2.117-.109-4.179-.71-6.105 7.057-3.06 13.646-6.98 19.654-11.645v56.871c-7.329-10.205-15.136-19.611-23.715-28.592zm-179.604 95.129c-.49 4.2-4.041 7.368-8.259 7.368-.332 0-.665-.02-.988-.057-4.566-.535-7.846-4.684-7.312-9.249 1.538-13.136 6.882-46.348 23.718-79.347 6.045.755 12.052 1.389 17.88 1.912-18.411 33.219-23.771 68.538-25.039 79.373zm92.244-92.943c-9.822.671-19.097 1.016-27.096 1.016s-17.274-.345-27.095-1.016c-.115-.011-.23-.017-.346-.023-25.947-1.792-55.664-5.869-75.906-11.983-.838-.253-1.294-.828-1.354-1.71-.061-.876.309-1.504 1.098-1.866 22.114-10.163 65.939-20.965 103.604-20.965 37.664 0 81.489 10.802 103.603 20.965.789.362 1.158.99 1.098 1.866-.061.882-.516 1.457-1.354 1.71-20.243 6.114-49.961 10.192-75.908 11.983-.115.006-.229.012-.344.023zm36.378 81.684c-2.809-15.956-9.248-42.643-23.365-68.114 5.83-.523 11.839-1.158 17.885-1.913 10.539 20.653 16.505 41.226 19.826 56.434-5.53 4.096-10.368 8.677-14.346 13.593zm56.782 57.215c-18.524 3.267-35.646.134-45.793-8.379-5.706-4.788-8.599-10.748-8.599-17.716 0-20.734 26.066-42.848 56.921-48.289 4.829-.852 9.562-1.269 14.102-1.269 2.584 0 5.101.141 7.541.408.136.019.272.038.41.049 9.544 1.106 17.829 4.231 23.74 9.191 5.706 4.787 8.599 10.747 8.599 17.715 0 20.736-26.066 42.849-56.921 48.29zm56.921-77.75c-6.566-5.27-14.961-8.956-24.446-10.878v-74.795l24.446-4.311zm65.287-144.685c0 16.458-11.764 30.477-27.973 33.335l-61.76 10.891v-5.303c6.199-7.512 11.293-16.071 15.028-25.464.8-2.011 1.523-4.04 2.185-6.08 2.173-.973 4.451-1.683 6.807-2.098l65.713-11.586z"/></svg>