<svg id="Capa_1" enable-background="new 0 0 512 512" height="512" viewBox="0 0 512 512" width="512" xmlns="http://www.w3.org/2000/svg"><path d="m400.631 504.5h-289.262c-32.137 0-58.189-26.052-58.189-58.189v-380.622c0-32.137 26.052-58.189 58.189-58.189h238.904c59.949 0 108.547 48.598 108.547 108.547v330.265c0 32.136-26.052 58.188-58.189 58.188z" fill="#fcf2d0"/><path d="m161.992 7.5h-50.623c-32.137 0-58.189 26.052-58.189 58.189v380.622c0 32.137 26.052 58.189 58.189 58.189h117.985c-79.197-77.135-72.789-413.455-67.362-497z" fill="#f6e3a3"/><path d="m180.845 166.311 38.106-6.719v147.587l-38.106 6.719z" fill="#4e5660"/><path d="m361.538 68.773-146.182 25.776c-19.96 3.52-34.512 20.862-34.512 41.129v30.632l212.232-37.422v-33.651c.001-16.708-15.084-29.365-31.538-26.464z" fill="#89d47f"/><path d="m215.356 94.549c-19.96 3.519-34.512 20.862-34.512 41.129v30.632l70.548-12.439c-12.056-9.853-14.62-48.283-12.313-63.505z" fill="#5ec783"/><ellipse cx="157.467" cy="318.021" fill="#8eafe2" rx="63.259" ry="42.121" transform="matrix(.949 -.315 .315 .949 -92.245 65.877)"/><path d="m157.467 361.358c6.069-1.07 11.926-2.732 17.463-4.863-4.236-26.45-7.429-54.485-9.795-82.816-2.514.223-5.07.546-7.668 1.004-33.956 5.988-61.483 30.244-61.483 54.179s27.527 38.483 61.483 32.496z" fill="#6a96d7"/><path d="m180.845 166.311 38.106-6.719v26.517l-38.106 6.719z" fill="#383c43"/><path d="m354.971 135.607 38.106-6.719v147.588l-38.106 6.719z" fill="#4e5660"/><ellipse cx="331.593" cy="287.317" fill="#8eafe2" rx="63.259" ry="42.121" transform="matrix(.949 -.315 .315 .949 -73.682 119.217)"/><path d="m322.752 245.992c-29.766 8.271-52.642 30.349-52.642 52.167 0 23.934 27.527 38.483 61.484 32.496 7.157-1.262 14.023-3.344 20.411-6.055-35.322-14.758-36.437-60.457-29.253-78.608z" fill="#6a96d7"/><path d="m354.971 135.607 38.106-6.719v26.518l-38.106 6.719z" fill="#383c43"/><path d="m321.036 461.028h-130.072c-12.13 0-21.963-9.833-21.963-21.963v-20.538c0-12.13 9.833-21.963 21.963-21.963h130.073c12.13 0 21.963 9.833 21.963 21.963v20.538c-.001 12.129-9.834 21.963-21.964 21.963z" fill="#a3defe"/><path d="m182.823 398.129c-8.098 3.235-13.822 11.145-13.822 20.398v20.538c0 12.13 9.833 21.963 21.963 21.963h11.07c-7.621-18.05-13.958-39.404-19.211-62.899z" fill="#7acefa"/><path d="m286.961 436.076h-61.922c-4.021 0-7.28-3.26-7.28-7.28s3.259-7.28 7.28-7.28h61.922c4.021 0 7.28 3.26 7.28 7.28s-3.259 7.28-7.28 7.28z" fill="#fff"/><path d="m350.273 7.5v50.358c0 32.137 26.052 58.189 58.189 58.189h50.358c0-59.949-48.598-108.547-108.547-108.547z" fill="#f6e3a3"/><path d="m457.513 460.76c-3.849-1.527-8.21.358-9.735 4.21-7.708 19.458-26.214 32.03-47.147 32.03h-289.262c-27.95 0-50.689-22.738-50.689-50.689v-325.17c0-4.143-3.358-7.5-7.5-7.5s-7.5 3.357-7.5 7.5v325.17c0 36.221 29.468 65.689 65.689 65.689h289.262c27.124 0 51.104-16.292 61.092-41.505 1.526-3.851-.359-8.21-4.21-9.735zm-107.24-460.76h-238.904c-36.221 0-65.689 29.468-65.689 65.688v19.609c0 4.143 3.358 7.5 7.5 7.5s7.5-3.357 7.5-7.5v-19.609c0-27.95 22.739-50.688 50.689-50.688h231.404v42.857c0 2.211.113 4.396.328 6.552l-129.047 22.754c-23.589 4.159-40.71 24.563-40.71 48.515v130.204c-5.569-.069-11.333.385-17.18 1.416-37.952 6.691-67.682 33.733-67.682 61.563 0 11.009 4.837 21.131 13.62 28.501 9.948 8.347 24.455 12.817 40.561 12.817 5.233 0 10.636-.472 16.105-1.436 37.952-6.691 67.681-33.733 67.681-61.564v-141.295l121.02-21.339v90.632c-5.569-.069-11.334.385-17.18 1.417-37.952 6.691-67.681 33.733-67.681 61.564 0 11.009 4.837 21.131 13.62 28.5 9.949 8.349 24.455 12.819 40.563 12.819 5.232 0 10.635-.472 16.104-1.437 37.952-6.692 67.681-33.735 67.681-61.564v-153.42c2.588.311 5.215.49 7.885.49h42.858v308.449c0 4.143 3.358 7.5 7.5 7.5s7.5-3.357 7.5-7.5v-315.948c.001-63.988-52.057-116.047-116.046-116.047zm-194.108 353.972c-17.986 3.17-34.594.145-44.419-8.101-5.482-4.6-8.262-10.323-8.262-17.01 0-20.08 25.318-41.508 55.286-46.792 4.699-.828 9.302-1.233 13.716-1.233 2.506 0 4.946.137 7.311.395.138.019.275.038.415.049 9.243 1.072 17.261 4.094 22.977 8.89 5.482 4.6 8.261 10.322 8.261 17.009.001 20.081-25.317 41.509-55.285 46.793zm55.286-76.365c-6.292-4.865-14.205-8.298-23.106-10.143v-94.86l23.106-4.074zm118.839 45.663c-17.988 3.171-34.594.144-44.419-8.102-5.482-4.6-8.262-10.323-8.262-17.01 0-20.08 25.318-41.508 55.286-46.792 4.699-.828 9.302-1.233 13.716-1.233 2.506 0 4.947.137 7.313.395.137.019.274.038.413.049 9.244 1.072 17.262 4.094 22.978 8.89 5.482 4.6 8.261 10.322 8.261 17.009.001 20.08-25.317 41.508-55.286 46.794zm55.287-76.366c-6.293-4.865-14.205-8.299-23.106-10.144v-94.859l23.106-4.074zm0-124.308-197.232 34.776v-21.694c0-16.659 11.908-30.85 28.314-33.743l129.651-22.86c6.374 18.619 20.877 33.495 39.267 40.353zm22.885-14.049c-27.95 0-50.688-22.739-50.688-50.689v-42.579c49.751 3.668 89.6 43.516 93.268 93.268zm-87.425 359.98c16.246 0 29.463-13.217 29.463-29.463v-20.538c0-16.246-13.217-29.463-29.463-29.463h-130.074c-16.246 0-29.463 13.217-29.463 29.463v20.538c0 16.246 13.217 29.463 29.463 29.463zm-144.536-29.462v-20.538c0-7.975 6.488-14.463 14.463-14.463h130.073c7.975 0 14.463 6.488 14.463 14.463v20.538c0 7.975-6.488 14.463-14.463 14.463h-130.074c-7.975-.001-14.462-6.489-14.462-14.463z"/></svg>