<svg id="Capa_1" enable-background="new 0 0 512 512" height="512" viewBox="0 0 512 512" width="512" xmlns="http://www.w3.org/2000/svg"><path d="m108.35 60.049h295.301v48.456h-295.301z" fill="#4e5660"/><path d="m169.834 83.906c.016-8.226-.998-16.219-2.91-23.857h-58.574v48.456h60.975c.315-7.847.492-16.034.509-24.599z" fill="#383c43"/><path d="m403.65 60.049h-58.574c-1.913 7.638-2.926 15.631-2.91 23.857.017 8.565.194 16.752.509 24.599h60.975z" fill="#383c43"/><path d="m504.5 82.575c0-37.067-30.155-67.091-67.271-66.879-37.05.212-66.559 31.103-66.487 68.154.165 84.889 16.823 131.173 30.22 168.4 11.625 32.301 18.641 51.796 11.879 87.719-5.054 26.848-17.064 46.638-37.248 60.928-4.457 3.156-10.152 3.942-15.326 2.195-30.035-10.143-71.147-15.657-104.267-15.657s-74.232 5.514-104.268 15.656c-5.174 1.747-10.869.961-15.326-2.195-20.183-14.289-32.194-34.08-37.248-60.928-6.762-35.923.255-55.418 11.879-87.719 13.398-37.226 30.055-83.511 30.22-168.4.072-37.051-29.437-67.942-66.487-68.154-37.115-.212-67.27 29.812-67.27 66.88 0 35.236 27.255 64.086 61.83 66.671-5.115 34.13-13.738 58.119-21.681 80.191-12.78 35.51-24.85 69.051-14.696 122.995 12.355 65.635 61.081 143.874 223.047 143.874s210.692-78.239 223.048-143.875c10.154-53.944-1.916-87.486-14.696-122.995-7.943-22.072-16.566-46.061-21.681-80.191 34.574-2.584 61.829-31.435 61.829-66.67z" fill="#e1b89a"/><path d="m208.083 390.719c-20.018 2.632-39.855 6.802-56.35 12.371-5.174 1.747-10.869.961-15.326-2.195-20.183-14.289-32.194-34.08-37.248-60.928-6.762-35.923.255-55.418 11.879-87.719 13.398-37.226 30.055-83.511 30.22-168.4.072-37.051-29.437-67.942-66.487-68.154-37.116-.211-67.271 29.813-67.271 66.881 0 35.236 27.255 64.086 61.83 66.671-5.115 34.13-13.738 58.119-21.681 80.191-12.78 35.51-24.85 69.051-14.696 122.995 11.604 61.648 55.304 134.411 194.777 143.023-27.34-23.031-25.92-73.949-19.647-104.736z" fill="#d2996f"/><g fill="#f7ef87"><path d="m183.438 458.655c-30.227 0-57.592-10.708-82.975-32.339-3.152-2.686-3.53-7.42-.844-10.572 2.688-3.154 7.42-3.532 10.573-.844 30.435 25.936 64.076 34.171 102.839 25.181 4.04-.94 8.065 1.576 9.001 5.611.936 4.034-1.577 8.065-5.611 9-11.373 2.639-22.355 3.963-32.983 3.963z"/><path d="m328.561 458.654c-10.63 0-21.607-1.323-32.983-3.962-4.035-.935-6.547-4.966-5.611-9 .936-4.036 4.967-6.551 9.001-5.611 38.764 8.992 72.405.755 102.84-25.181 3.153-2.686 7.886-2.311 10.573.844 2.686 3.152 2.309 7.886-.844 10.572-25.381 21.629-52.751 32.338-82.976 32.338z"/><path d="m256 464.305c-15.64 0-28.364-12.725-28.364-28.364 0-15.64 12.724-28.363 28.364-28.363s28.364 12.724 28.364 28.363c0 15.64-12.724 28.364-28.364 28.364zm0-41.727c-7.369 0-13.364 5.995-13.364 13.363 0 7.369 5.995 13.364 13.364 13.364s13.364-5.995 13.364-13.364c0-7.368-5.995-13.363-13.364-13.363z"/><path d="m74.762 111.203c-15.712 0-28.496-12.783-28.496-28.495 0-15.713 12.783-28.496 28.496-28.496s28.495 12.783 28.495 28.496c0 15.711-12.782 28.495-28.495 28.495zm0-41.992c-7.441 0-13.496 6.055-13.496 13.496s6.054 13.495 13.496 13.495 13.495-6.054 13.495-13.495-6.053-13.496-13.495-13.496z"/><path d="m437.238 111.203c-15.712 0-28.496-12.783-28.496-28.495 0-15.713 12.783-28.496 28.496-28.496s28.495 12.783 28.495 28.496c0 15.711-12.782 28.495-28.495 28.495zm0-41.992c-7.441 0-13.496 6.055-13.496 13.496s6.054 13.495 13.496 13.495 13.495-6.054 13.495-13.495-6.053-13.496-13.495-13.496z"/></g><path d="m466.838 236.248c-3.915 1.352-5.992 5.623-4.639 9.538 9.595 27.767 18.23 58.766 9.479 105.258-7.231 38.412-24.994 69.41-52.795 92.131-37.048 30.279-91.85 45.632-162.882 45.632-77.349 0-135.3-18.155-172.242-53.962-2.975-2.884-7.723-2.808-10.605.166-2.883 2.975-2.809 7.723.166 10.605 39.837 38.612 101.301 58.19 182.682 58.19 74.582 0 132.577-16.491 172.374-49.017 30.613-25.02 50.142-58.991 58.044-100.971 9.431-50.103.21-83.262-10.042-112.932-1.355-3.915-5.625-5.99-9.54-4.638zm23.224-206.419c-14.145-14.064-32.931-21.777-52.877-21.633-29.867.171-55.61 18.371-67.274 44.354h-227.822c-11.664-25.983-37.407-44.183-67.275-44.354-.147-.001-.292-.001-.439-.001-19.788 0-38.397 7.673-52.438 21.634-14.146 14.065-21.937 32.797-21.937 52.746 0 35.952 26.075 66.616 60.7 73.097-5.075 29.454-12.708 50.662-20.108 71.225-13.135 36.498-25.542 70.971-15.01 126.923 4.356 23.14 12.394 44.133 23.892 62.396 1.426 2.265 3.862 3.506 6.354 3.506 1.365 0 2.747-.373 3.988-1.154 3.505-2.206 4.558-6.837 2.352-10.342-10.489-16.663-17.839-35.901-21.845-57.182-9.777-51.938 1.958-84.546 14.383-119.067 7.878-21.891 16.808-46.702 22.041-81.62.31-2.063-.254-4.16-1.556-5.79-1.301-1.631-3.223-2.645-5.302-2.801-30.779-2.301-54.889-28.301-54.889-59.191 0-15.926 6.22-30.88 17.514-42.109 11.209-11.146 26.064-17.271 41.863-17.271.117 0 .234 0 .351.001 25.172.145 46.677 16.39 55.157 39.08.089.285.199.56.319.83 2.312 6.474 3.568 13.458 3.554 20.73-.163 83.588-16.583 129.213-29.777 165.874-11.642 32.347-19.332 53.717-12.193 91.646 5.428 28.834 18.605 50.313 40.285 65.661 6.363 4.506 14.61 5.694 22.059 3.179 27.457-9.271 67.443-15.261 101.868-15.261s74.411 5.99 101.868 15.261c7.449 2.516 15.695 1.326 22.059-3.179 21.679-15.349 34.857-36.827 40.285-65.661 7.14-37.928-.551-59.297-12.193-91.646-13.194-36.66-29.614-82.285-29.777-165.874-.014-7.273 1.242-14.257 3.555-20.732.12-.268.229-.542.318-.826 8.479-22.691 29.985-38.937 55.157-39.082.118-.001.233-.001.351-.001 15.799 0 30.655 6.125 41.864 17.271 11.293 11.229 17.513 26.183 17.513 42.109 0 30.891-24.11 56.891-54.889 59.19-2.08.156-4.001 1.17-5.302 2.8s-1.865 3.729-1.556 5.791c3.997 26.669 10.036 46.667 14.851 61.11 1.31 3.93 5.556 6.051 9.487 4.743 3.929-1.311 6.053-5.558 4.743-9.487-4.157-12.468-9.263-29.241-13.031-51.052 34.625-6.479 60.697-37.143 60.697-73.095 0-19.949-7.791-38.681-21.938-52.746zm-312.922 358.645c-10.047 2.171-19.471 4.696-27.807 7.511-2.918.984-6.131.533-8.592-1.21-18.603-13.171-29.474-31.026-34.211-56.194-6.384-33.917-.009-51.632 11.566-83.791 11.793-32.769 26.087-72.501 29.765-138.784h29.28v272.468zm71.36-8.447c-18.417.429-38.001 2.399-56.36 5.549v-269.57h56.36zm-100.007-279.022c.162-5.539.254-11.245.266-17.141.011-5.6-.603-11.055-1.74-16.316h217.964c-1.138 5.261-1.752 10.716-1.741 16.316.011 5.896.104 11.602.266 17.141zm171.367 284.571c-18.359-3.15-37.943-5.12-56.36-5.549v-264.022h56.36zm74.047-130.784c11.573 32.158 17.948 49.873 11.564 83.788-4.738 25.168-15.609 43.023-34.211 56.194-2.462 1.742-5.674 2.195-8.592 1.21-8.337-2.815-17.76-5.34-27.807-7.511v-272.468h29.279c3.678 66.286 17.972 106.016 29.767 138.787z"/></svg>