<svg id="Capa_1" enable-background="new 0 0 511.536 511.536" height="512" viewBox="0 0 511.536 511.536" width="512" xmlns="http://www.w3.org/2000/svg"><path d="m242.568 413.399-78.408 27.882c-26.124 9.29-53.431-10.55-52.669-38.266l2.288-83.186c.249-9.073-2.636-17.955-8.172-25.149l-50.747-65.955c-16.908-21.975-6.478-54.076 20.118-61.916l79.822-23.53c8.706-2.566 16.262-8.056 21.393-15.543l47.045-68.644c15.675-22.871 49.428-22.871 65.102 0l47.045 68.644c5.131 7.487 12.687 12.977 21.393 15.543l79.822 23.53c26.595 7.84 37.026 39.941 20.118 61.916l-50.747 65.955c-5.535 7.194-8.421 16.076-8.171 25.149l2.288 83.186c.762 27.716-26.544 47.556-52.669 38.266l-78.408-27.882c-8.552-3.041-17.891-3.041-26.443 0z" fill="#f7ef87"/><path d="m242.568 413.399c6.034-2.146 12.459-2.77 18.724-1.888-52.249-59.672-83.173-207.535-72.715-301.845l-12.384 18.07c-5.131 7.487-12.687 12.977-21.393 15.543l-79.822 23.53c-26.596 7.84-37.026 39.941-20.118 61.916l50.747 65.954c5.535 7.194 8.421 16.076 8.172 25.149l-2.288 83.186c-.762 27.716 26.544 47.556 52.669 38.266z" fill="#efd176"/><path d="m443.61 138.847h-29.055c-6.003 0-10.551-5.42-9.509-11.332l14.616-82.894c3.435-19.481-11.551-37.341-31.332-37.341h-72.015c-15.44 0-28.652 11.086-31.333 26.291l-23.216 131.669c-3.113 17.653 10.467 33.837 28.392 33.837h15.528c6.003 0 10.551 5.42 9.509 11.332l-14.803 83.953c-3.377 19.151 20.497 30.699 33.415 16.163l124.16-139.712c11.009-12.387 2.215-31.966-14.357-31.966z" fill="#8eafe2"/><path d="m197.619 241.438c0 14.96-15.229 27.087-34.014 27.087s-34.014-12.127-34.014-27.087 15.229-27.088 34.014-27.088 34.014 12.128 34.014 27.088z" fill="#eda1ab"/><path d="m313.96 241.438c0 14.96 15.229 27.087 34.015 27.087 18.785 0 34.014-12.127 34.014-27.087s-15.229-27.088-34.014-27.088c-18.786 0-34.015 12.128-34.015 27.088z" fill="#fff"/><path d="m283.214 220.625c0-16.949-12.278-18.541-27.424-18.541s-27.424 1.592-27.424 18.541c0 16.948 12.278 30.687 27.424 30.687 15.145 0 27.424-13.739 27.424-30.687z" fill="#4e5660"/><path d="m160.2 346.907 40.697-7.176v105.25l-40.697 7.176z" fill="#4e5660"/><path d="m262.756 277.185-71.217 12.557c-18.125 3.196-31.338 18.943-31.338 37.348v19.817l73.352-12.934c20.508-3.616 35.46-21.435 35.46-42.26v-9.278c0-3.315-2.993-5.826-6.257-5.25z" fill="#a3defe"/><path d="m191.539 289.742c-18.125 3.196-31.338 18.943-31.338 37.348v19.817l64.062-11.296c-10.947-8.947-13.276-35.845-11.181-49.667z" fill="#7acefa"/><ellipse cx="135.233" cy="456.559" fill="#8eafe2" rx="67.56" ry="44.985" transform="matrix(.949 -.315 .315 .949 -137.065 65.934)"/><path d="m125.791 412.424c-31.789 8.833-56.221 32.413-56.221 55.714 0 25.562 29.399 41.1 65.664 34.705 7.644-1.348 14.976-3.571 21.799-6.466-37.723-15.762-38.915-64.568-31.242-83.953z" fill="#6a96d7"/><path d="m160.2 346.907 40.697-7.176v28.321l-40.697 7.175z" fill="#383c43"/><path d="m462.716 176.43.693-.78c7.023-7.902 8.695-18.803 4.364-28.446-4.332-9.645-13.591-15.636-24.163-15.636h-29.056c-.963 0-1.553-.531-1.818-.849-.267-.316-.688-.989-.52-1.939l14.616-82.895c2.012-11.409-1.107-23.044-8.554-31.919-7.446-8.876-18.362-13.966-29.948-13.966h-72.015c-19.009 0-35.201 13.587-38.503 32.307l-1.267 7.187c-8.13-4.013-17.38-5.621-26.613-4.47-13.415 1.674-25.026 8.76-32.697 19.953l-47.045 68.643c-4.173 6.088-10.369 10.59-17.447 12.676l-48.698 14.355c-3.856 1.137-6.062 5.186-4.925 9.042.935 3.17 3.835 5.224 6.98 5.224.682 0 1.375-.097 2.062-.299l48.698-14.355c10.28-3.03 19.28-9.568 25.34-18.411l47.045-68.644c5.282-7.707 13.269-12.585 22.489-13.735 7.868-.979 15.729.932 22.123 5.271l-19.261 109.234c-1.857 10.538 1.021 21.284 7.9 29.482.452.539.919 1.06 1.398 1.568-3.005-.218-5.809-.222-8.104-.222-11.265 0-34.704 0-34.704 25.82 0 20.936 15.568 37.968 34.704 37.968s34.704-17.032 34.704-37.968c0-6.167-1.347-10.848-3.537-14.421 1.06.094 2.126.154 3.201.154h15.528c.964 0 1.554.531 1.819.849.266.316.688.99.52 1.939l-14.803 83.953c-2.119 12.019 3.61 23.218 14.597 28.532 3.852 1.863 7.868 2.77 11.812 2.77 7.305 0 14.353-3.115 19.618-9.039l113.516-127.734c6.953 11.175 6.522 25.821-1.816 36.658l-50.748 65.954c-6.536 8.496-9.973 19.075-9.678 29.789l1.707 62.063c.108 3.951 3.346 7.08 7.273 7.08.067 0 .136-.001.204-.003 4.02-.11 7.188-3.458 7.077-7.478l-1.707-62.063c-.203-7.377 2.163-14.66 6.663-20.51l50.747-65.954c13.004-16.9 12.766-40.175.229-56.735zm-206.926 67.602c-11.107 0-20.144-10.5-20.144-23.407 0-8.001 1.822-11.26 20.144-11.26s20.144 3.259 20.144 11.26c-.001 12.907-9.037 23.407-20.144 23.407zm196.736-78.054-124.16 139.712c-4.447 5.005-10.255 4.745-14.206 2.833-3.952-1.911-7.761-6.303-6.598-12.895l14.803-83.954c.871-4.942-.479-9.982-3.706-13.827-3.225-3.844-7.954-6.049-12.973-6.049h-15.528c-6.386 0-12.403-2.806-16.508-7.697-4.105-4.892-5.824-11.306-4.715-17.595l23.217-131.669c2.071-11.748 12.233-20.275 24.163-20.275h72.015c7.271 0 14.121 3.194 18.795 8.765 4.674 5.57 6.631 12.871 5.368 20.031l-14.616 82.895c-.872 4.942.478 9.981 3.704 13.827 3.227 3.845 7.955 6.05 12.974 6.05h29.056c4.833 0 8.9 2.632 10.881 7.04 1.978 4.406 1.244 9.195-1.966 12.808zm-110.237 21.951c-4.02 0-7.28 3.26-7.28 7.28v13.89c0 4.021 3.26 7.28 7.28 7.28 4.021 0 7.28-3.26 7.28-7.28v-13.89c0-4.02-3.26-7.28-7.28-7.28zm-165.717 21.17v-13.89c0-4.02-3.26-7.28-7.28-7.28-4.021 0-7.28 3.26-7.28 7.28v13.89c0 4.021 3.26 7.28 7.28 7.28s7.28-3.26 7.28-7.28zm223.58 202.192c-3.761-1.419-7.962.473-9.386 4.233-6.148 16.254-24.5 24.73-40.907 18.896l-78.408-27.882c-10.1-3.592-21.223-3.592-31.322 0l-31.951 11.362v-72.06l26.64-4.697c24.033-4.238 41.477-25.026 41.477-49.43v-9.278c0-3.736-1.642-7.258-4.504-9.66-2.863-2.402-6.616-3.407-10.298-2.76 0 0 0 0-.001 0l-71.217 12.558c-21.644 3.817-37.354 22.539-37.354 44.518v74.534c-6.13-.126-12.491.342-18.952 1.481-5.192.916-10.235 2.196-15.088 3.784-.104-1.216-.146-2.442-.113-3.674l2.288-83.187c.295-10.714-3.142-21.293-9.679-29.789l-50.746-65.954c-6.258-8.133-8.255-18.453-5.481-28.315 2.783-9.896 9.836-17.666 19.348-21.318 3.754-1.441 5.628-5.653 4.188-9.406-1.442-3.753-5.656-5.628-9.406-4.188-13.847 5.317-24.106 16.605-28.146 30.97-4.03 14.331-1.131 29.325 7.958 41.137l50.746 65.954c4.501 5.85 6.867 13.133 6.664 20.51l-2.288 83.188c-.09 3.286.167 6.541.75 9.736-25.346 12.464-42.674 33.797-42.674 55.586 0 11.705 4.939 22.036 14.285 29.878 10.494 8.806 25.813 13.521 42.842 13.521 5.548 0 11.279-.501 17.081-1.523 40.194-7.088 71.68-35.653 71.68-65.032v-11.626l36.83-13.097c6.953-2.473 14.611-2.473 21.564 0l78.408 27.882c5.104 1.815 10.335 2.676 15.496 2.676 18.93-.001 36.889-11.583 43.909-30.139 1.423-3.764-.472-7.966-4.233-9.389zm-266.184 84.382c-19.418 3.424-37.378.132-48.034-8.812-5.943-4.986-9.084-11.461-9.084-18.724 0-21.777 27.315-44.991 59.647-50.692 5.054-.892 10.01-1.328 14.763-1.328 2.721 0 5.372.15 7.942.432.124.017.248.034.374.045 10.029 1.159 18.739 4.445 24.957 9.662 5.942 4.986 9.083 11.461 9.083 18.724.001 21.778-27.315 44.992-59.648 50.693zm59.649-80.785c-6.941-5.734-15.941-9.709-26.136-11.738v-50.134l26.136-4.609zm-26.136-76.658v-11.14c0-14.898 10.649-27.591 25.322-30.178l68.93-12.154v6.955c0 17.324-12.384 32.082-29.445 35.09z"/></svg>