<svg id="Capa_1" enable-background="new 0 0 512 512" height="512" viewBox="0 0 512 512" width="512" xmlns="http://www.w3.org/2000/svg"><path d="m406.582 95.679h-301.164l-11.126 83.81c-9.281 69.914.078 141.039 27.13 206.171l40.013 96.34c5.658 13.622 18.958 22.5 33.709 22.5h121.712c14.751 0 28.051-8.878 33.709-22.5l40.013-96.339c27.052-65.133 36.411-136.258 27.13-206.171z" fill="#e8899e"/><path d="m105.418 95.679-11.126 83.81c-9.281 69.914.078 141.039 27.13 206.171l40.013 96.34c5.658 13.622 18.958 22.5 33.709 22.5h79.323c-60.148-46.468-70.353-272.441-56.587-408.821z" fill="#de5c6e"/><path d="m366.098 7.5h-220.196c-13.058 0-25.115 6.996-31.595 18.333l-13.34 23.339h310.064l-13.34-23.339c-6.478-11.337-18.536-18.333-31.593-18.333z" fill="#f6e3a3"/><path d="m413.24 49.172h-314.48c-9.234 0-16.719 7.486-16.719 16.719v13.068c0 9.234 7.485 16.719 16.719 16.719h314.48c9.234 0 16.719-7.486 16.719-16.719v-13.067c.001-9.234-7.485-16.72-16.719-16.72z" fill="#4e5660"/><path d="m259.662 49.172h-160.902c-9.234 0-16.719 7.486-16.719 16.719v13.069c0 9.234 7.486 16.719 16.719 16.719h169.629c-10.018-10.606-13.38-31.618-8.727-46.507z" fill="#383c43"/><path d="m142.028 180.422-10.338-20.677c-7.307-14.614 3.32-31.808 19.658-31.808h20.677c16.339 0 26.965 17.194 19.658 31.808l-10.339 20.677c-8.099 16.199-31.217 16.199-39.316 0z" fill="#f7ef87"/><path d="m369.972 180.422 10.338-20.677c7.307-14.614-3.32-31.808-19.658-31.808h-20.677c-16.339 0-26.965 17.194-19.658 31.808l10.339 20.677c8.099 16.199 31.217 16.199 39.316 0z" fill="#f7ef87"/><path d="m256 392.852c-45.877 0-95.814-3.484-135.898-10.445.439 1.084.871 2.171 1.32 3.253l40.013 96.34c5.658 13.622 18.959 22.5 33.709 22.5h121.712c14.751 0 28.051-8.878 33.709-22.5l40.013-96.339c.449-1.081.88-2.168 1.32-3.253-40.084 6.961-90.021 10.444-135.898 10.444z" fill="#fcf2d0"/><path d="m226.814 392.386c-37.146-1.152-75.01-4.473-106.712-9.979.439 1.085.871 2.172 1.32 3.253l40.013 96.34c5.658 13.622 18.958 22.5 33.709 22.5h79.323c-22.318-17.242-37.76-59.19-47.653-112.114z" fill="#f6e3a3"/><path d="m256 442.388c-37.829 0-78.416-2.371-113.967-7.104l19.402 46.716c5.658 13.622 18.959 22.5 33.709 22.5h121.712c14.751 0 28.051-8.878 33.709-22.5l19.402-46.715c-35.551 4.733-76.138 7.103-113.967 7.103z" fill="#8eafe2"/><path d="m238.946 442.224c-32.75-.6-66.653-2.911-96.913-6.94l19.402 46.716c5.658 13.622 18.958 22.5 33.709 22.5h79.323c-14.695-11.353-26.41-33.416-35.521-62.276z" fill="#6a96d7"/><ellipse cx="172.75" cy="303.393" fill="#fff" rx="30.718" ry="24.462"/><ellipse cx="339.25" cy="303.393" fill="#fff" rx="30.717" ry="24.462"/><path d="m415.444 41.777-11.24-19.665c-7.795-13.639-22.397-22.112-38.106-22.112h-22.365c-4.142 0-7.5 3.357-7.5 7.5s3.358 7.5 7.5 7.5h22.365c10.341 0 19.952 5.577 25.083 14.555l6.926 12.117h-284.214l6.926-12.117c5.132-8.978 14.743-14.555 25.083-14.555h162.74c4.142 0 7.5-3.357 7.5-7.5s-3.358-7.5-7.5-7.5h-162.74c-15.709 0-30.311 8.473-38.106 22.111l-11.24 19.665c-12.325 1.118-22.016 11.504-22.016 24.116v13.067c0 12.717 9.855 23.169 22.327 24.139l-10.01 75.404c-9.444 71.136.113 143.765 27.638 210.035l40.013 96.34c3.957 9.527 11.18 17.398 20.336 22.161 1.106.575 2.289.849 3.455.849 2.708 0 5.324-1.472 6.66-4.041 1.912-3.675.482-8.203-3.192-10.114-6.037-3.141-10.798-8.328-13.406-14.608l-14.462-34.82c31.73 3.617 67.464 5.586 102.1 5.586s70.37-1.969 102.1-5.586l-14.462 34.82c-4.51 10.86-15.023 17.877-26.783 17.877h-102.14c-4.142 0-7.5 3.357-7.5 7.5s3.358 7.5 7.5 7.5h102.14c17.842 0 33.792-10.647 40.635-27.123l40.013-96.34c27.525-66.271 37.082-138.899 27.638-210.035l-10.01-75.404c12.473-.969 22.327-11.422 22.327-24.139v-13.068c.003-12.612-9.688-22.998-22.013-24.115zm-50.737 386.62c-33.152 4.189-71.548 6.492-108.707 6.492s-75.555-2.302-108.707-6.492l-15.146-36.467c36.431 5.383 80.709 8.423 123.853 8.423s87.422-3.04 123.853-8.423zm21.793-52.685c-37.221 6.138-84.477 9.64-130.5 9.64-46.022 0-93.278-3.502-130.5-9.64-24.309-61.908-32.535-129.238-23.774-195.236l10.262-77.298h42.198v17.259h-2.838c-10.292 0-19.666 5.227-25.076 13.98-5.41 8.755-5.893 19.477-1.29 28.682l10.338 20.677c5.025 10.051 15.128 16.295 26.366 16.295h.001c11.237 0 21.341-6.244 26.367-16.295l10.339-20.678c4.602-9.205 4.12-19.927-1.291-28.681s-14.785-13.98-25.076-13.98h-2.838v-17.259h173.628v17.259h-2.838c-10.291 0-19.665 5.227-25.076 13.98-5.411 8.754-5.893 19.476-1.291 28.682l10.339 20.677c5.025 10.051 15.128 16.295 26.366 16.295s21.341-6.244 26.366-16.295l10.338-20.677c4.603-9.205 4.12-19.927-1.29-28.682-5.411-8.754-14.785-13.98-25.076-13.98h-2.838v-17.259h42.198l10.262 77.298c8.758 65.999.533 133.328-23.776 195.236zm-224.814-214.208c4.142 0 7.5-3.357 7.5-7.5v-18.566h2.838c5.13 0 9.62 2.503 12.316 6.866 2.697 4.364 2.928 9.499.634 14.087l-10.338 20.677c-2.506 5.012-7.348 8.004-12.951 8.004s-10.444-2.992-12.95-8.004l-10.338-20.677c-2.294-4.588-2.063-9.723.634-14.087 2.697-4.363 7.186-6.866 12.316-6.866h2.838v18.566c.001 4.142 3.359 7.5 7.501 7.5zm188.628 0c4.142 0 7.5-3.357 7.5-7.5v-18.566h2.838c5.13 0 9.62 2.503 12.316 6.866 2.697 4.364 2.928 9.499.634 14.087l-10.338 20.677c-2.506 5.012-7.347 8.004-12.95 8.004s-10.444-2.992-12.95-8.004l-10.338-20.676c-2.294-4.589-2.063-9.724.634-14.088 2.697-4.363 7.186-6.866 12.316-6.866h2.838v18.566c0 4.142 3.358 7.5 7.5 7.5zm72.146-82.545c0 5.084-4.136 9.22-9.219 9.22h-55.426v-15.753c0-4.143-3.358-7.5-7.5-7.5s-7.5 3.357-7.5 7.5v15.753h-173.629v-15.753c0-4.143-3.358-7.5-7.5-7.5s-7.5 3.357-7.5 7.5v15.753h-55.426c-5.084 0-9.219-4.136-9.219-9.22v-13.067c0-5.084 4.136-9.22 9.219-9.22h2.186c.005 0 .01.001.015.001s.01-.001.015-.001h310.047c.005 0 .01.001.015.001s.01-.001.015-.001h2.186c5.083 0 9.219 4.136 9.219 9.22v13.067zm-236.463 174.247c-12.761 0-23.143 10.382-23.143 23.143 0 4.143 3.358 7.5 7.5 7.5s7.5-3.357 7.5-7.5c0-4.49 3.653-8.143 8.143-8.143s8.143 3.652 8.143 8.143c0 4.143 3.358 7.5 7.5 7.5s7.5-3.357 7.5-7.5c0-12.761-10.382-23.143-23.143-23.143zm70.714 8.811c-4.142 0-7.5 3.357-7.5 7.5s3.358 7.5 7.5 7.5c2.795 0 5.068 2.273 5.068 5.068s-2.273 5.068-5.068 5.068c-4.142 0-7.5 3.357-7.5 7.5s3.358 7.5 7.5 7.5c2.795 0 5.068 2.273 5.068 5.068s-2.273 5.068-5.068 5.068c-4.142 0-7.5 3.357-7.5 7.5s3.358 7.5 7.5 7.5c11.066 0 20.068-9.003 20.068-20.068 0-4.756-1.671-9.125-4.447-12.568 2.776-3.443 4.447-7.812 4.447-12.568 0-11.065-9.002-20.068-20.068-20.068zm69.117-8.811c-12.761 0-23.143 10.382-23.143 23.143 0 4.143 3.358 7.5 7.5 7.5s7.5-3.357 7.5-7.5c0-4.49 3.653-8.143 8.143-8.143s8.143 3.652 8.143 8.143c0 4.143 3.358 7.5 7.5 7.5s7.5-3.357 7.5-7.5c-.001-12.761-10.383-23.143-23.143-23.143z"/></svg>