<svg id="Capa_1" enable-background="new 0 0 512 512" height="512" viewBox="0 0 512 512" width="512" xmlns="http://www.w3.org/2000/svg"><path d="m442.064 113.724c-22.426 0-16.589-19.41-38.526-19.41s-16.1 19.41-38.526 19.41h-20.842c-6.734 0-12.193 5.459-12.193 12.193 0 6.734 5.459 12.194 12.193 12.194h118.736c6.734 0 12.194-5.459 12.194-12.194 0-6.734-5.459-12.193-12.194-12.193z" fill="#efd176"/><path d="m324.381 214.974h116.268v66.132h-116.268z" fill="#8eafe2" transform="matrix(-1 0 0 -1 765.031 496.081)"/><path d="m324.381 214.974h116.268v17.211h-116.268z" fill="#6a96d7"/><path d="m317.369 188.637h130.293c5.203 0 9.422 4.218 9.422 9.422v7.494c0 5.203-4.218 9.422-9.422 9.422h-130.293c-5.203 0-9.422-4.218-9.422-9.422v-7.494c0-5.204 4.219-9.422 9.422-9.422z" fill="#4e5660"/><path d="m317.369 281.107h130.293c5.203 0 9.422 4.218 9.422 9.422v7.494c0 5.203-4.218 9.422-9.422 9.422h-130.293c-5.203 0-9.422-4.218-9.422-9.422v-7.494c0-5.204 4.219-9.422 9.422-9.422z" fill="#4e5660"/><path d="m379.519 278.591h108.547v77.163h-108.547z" fill="#e8899e" transform="matrix(-1 0 0 -1 867.585 634.344)"/><path d="m379.519 278.591h108.547v17.211h-108.547z" fill="#de5c6e" transform="matrix(-1 0 0 -1 867.585 574.392)"/><path d="m372.507 256.665h122.571c5.203 0 9.422 4.218 9.422 9.422v3.082c0 5.203-4.218 9.422-9.422 9.422h-122.571c-5.203 0-9.422-4.218-9.422-9.422v-3.082c0-5.203 4.218-9.422 9.422-9.422z" fill="#4e5660"/><path d="m372.507 355.753h122.571c5.203 0 9.422 4.218 9.422 9.422v5.288c0 5.203-4.218 9.422-9.422 9.422h-122.571c-5.203 0-9.422-4.218-9.422-9.422v-5.288c0-5.204 4.218-9.422 9.422-9.422z" fill="#4e5660"/><path d="m87.337 95.414c22.426 0 16.589-19.41 38.526-19.41s16.099 19.41 38.526 19.41h20.842c6.734 0 12.193 5.459 12.193 12.194 0 6.734-5.459 12.193-12.193 12.193h-118.736c-6.734 0-12.193-5.459-12.193-12.193 0-6.734 5.459-12.194 12.193-12.194z" fill="#efd176"/><path d="m67.729 195.963h116.268v66.132h-116.268z" fill="#8eafe2"/><path d="m67.729 195.963h116.268v17.211h-116.268z" fill="#6a96d7"/><path d="m191.009 169.625h-130.293c-5.203 0-9.422 4.218-9.422 9.422v7.494c0 5.203 4.218 9.422 9.422 9.422h130.293c5.203 0 9.422-4.218 9.422-9.422v-7.494c0-5.203-4.219-9.422-9.422-9.422z" fill="#4e5660"/><path d="m191.009 262.095h-130.293c-5.203 0-9.422 4.218-9.422 9.422v7.494c0 5.203 4.218 9.422 9.422 9.422h130.293c5.203 0 9.422-4.218 9.422-9.422v-7.494c0-5.204-4.219-9.422-9.422-9.422z" fill="#4e5660"/><path d="m23.934 278.591h108.547v77.163h-108.547z" fill="#e8899e"/><path d="m23.934 278.591h108.547v17.211h-108.547z" fill="#de5c6e"/><path d="m139.493 256.665h-122.571c-5.203 0-9.422 4.218-9.422 9.422v3.082c0 5.203 4.218 9.422 9.422 9.422h122.571c5.203 0 9.422-4.218 9.422-9.422v-3.082c0-5.203-4.219-9.422-9.422-9.422z" fill="#4e5660"/><path d="m139.493 355.753h-122.571c-5.203 0-9.422 4.218-9.422 9.422v5.288c0 5.203 4.218 9.422 9.422 9.422h122.571c5.203 0 9.422-4.218 9.422-9.422v-5.288c0-5.204-4.219-9.422-9.422-9.422z" fill="#4e5660"/><ellipse cx="255.448" cy="322.089" fill="#f7ef87" rx="132.218" ry="132.218" transform="matrix(.707 -.707 .707 .707 -152.932 274.967)"/><path d="m339.262 424.348c-147.109-22.858-158.507-173.247-133.773-224.702-48.252 19.709-82.258 67.101-82.258 122.443 0 73.022 59.196 132.218 132.218 132.218 31.813 0 61-11.239 83.813-29.959z" fill="#efd176"/><ellipse cx="255.448" cy="322.089" fill="#8eafe2" rx="97.369" ry="97.369" transform="matrix(.707 -.707 .707 .707 -152.932 274.967)"/><path d="m158.08 322.089c0 53.775 43.594 97.369 97.369 97.369 13.557 0 26.466-2.774 38.193-7.78-77.935-32.781-100.89-110.442-98.16-166.303-22.768 17.823-37.402 45.559-37.402 76.714z" fill="#6a96d7"/><ellipse cx="199.547" cy="339.537" fill="#fff" rx="20.627" ry="16.426"/><ellipse cx="311.35" cy="339.537" fill="#fff" rx="20.627" ry="16.426"/><path d="m211.568 307.793c-4.142 0-7.5 3.357-7.5 7.5v8.433c0 4.143 3.358 7.5 7.5 7.5s7.5-3.357 7.5-7.5v-8.433c0-4.143-3.358-7.5-7.5-7.5zm60.376 10.026c-3.122-2.722-7.86-2.396-10.581.728-1.494 1.714-3.649 2.697-5.914 2.697s-4.42-.983-5.913-2.697c-2.722-3.124-7.46-3.449-10.582-.729-3.123 2.721-3.45 7.458-.729 10.582 4.343 4.984 10.621 7.844 17.224 7.844s12.88-2.858 17.224-7.844c2.721-3.123 2.394-7.86-.729-10.581zm-16.495-100.598c-57.825 0-104.869 47.044-104.869 104.868 0 57.825 47.044 104.869 104.869 104.869s104.869-47.044 104.869-104.869c-.001-57.824-47.045-104.868-104.869-104.868zm0 194.737c-49.554 0-89.869-40.315-89.869-89.869s40.315-89.868 89.869-89.868 89.869 40.314 89.869 89.868-40.316 89.869-89.869 89.869zm256.551-142.789v-3.082c0-9.331-7.591-16.922-16.921-16.922h-46.929v-26.716c9.104-.262 16.434-7.731 16.434-16.896v-7.494c0-9.331-7.591-16.922-16.922-16.922h-36.624v-35.525h51.868c10.859 0 19.694-8.834 19.694-19.693s-8.835-19.693-19.694-19.693h-20.842c-7.786 0-10.041-2.679-13.777-7.116-3.517-4.177-8.09-9.591-17.249-11.545v-11.56c0-4.143-3.358-7.5-7.5-7.5s-7.5 3.357-7.5 7.5v11.56c-9.159 1.954-13.731 7.367-17.249 11.545-3.736 4.438-5.992 7.116-13.777 7.116h-20.842c-10.859 0-19.693 8.834-19.693 19.693s8.834 19.693 19.693 19.693h51.868v35.525h-78.669c-6.593 0-12.303 3.799-15.095 9.315-14.646-5.225-30.407-8.081-46.826-8.081-16.898 0-33.104 3.017-48.11 8.538.374-1.396.592-2.855.592-4.368v-7.494c0-9.331-7.591-16.922-16.922-16.922h-57.646v-34.824h51.868c10.859 0 19.693-8.834 19.693-19.693s-8.834-19.693-19.693-19.693h-20.842c-7.786 0-10.041-2.679-13.777-7.116-3.517-4.177-8.09-9.591-17.249-11.545v-11.56c0-4.143-3.358-7.5-7.5-7.5s-7.5 3.357-7.5 7.5v11.56c-9.159 1.954-13.732 7.368-17.249 11.545-3.736 4.438-5.991 7.116-13.777 7.116h-20.841c-10.859 0-19.693 8.834-19.693 19.693 0 4.839 1.771 9.49 4.988 13.099 2.757 3.095 7.498 3.364 10.589.608 3.092-2.757 3.364-7.497.608-10.589-.541-.607-1.186-1.641-1.186-3.118 0-2.588 2.105-4.693 4.693-4.693h20.842c14.765 0 20.826-7.198 25.252-12.455 3.776-4.484 5.856-6.955 13.274-6.955s9.498 2.471 13.274 6.955c4.426 5.257 10.487 12.455 25.251 12.455h20.842c2.588 0 4.693 2.105 4.693 4.693s-2.105 4.693-4.693 4.693h-93.24c-4.142 0-7.5 3.357-7.5 7.5s3.358 7.5 7.5 7.5h26.372v34.824h-57.645c-9.331 0-16.921 7.591-16.921 16.922v7.494c0 9.166 7.33 16.636 16.434 16.897v45.727h-43.307c-9.331 0-16.922 7.591-16.922 16.922v3.082c0 9.166 7.33 16.636 16.434 16.897v62.211c-9.104.262-16.434 7.731-16.434 16.898v5.288c0 9.331 7.591 16.922 16.922 16.922h53.786v26.547l-24.628 24.628c-2.929 2.93-2.929 7.678 0 10.608 2.929 2.928 7.678 2.928 10.606 0l21.521-21.522 21.521 21.522c1.464 1.464 3.384 2.196 5.303 2.196s3.839-.732 5.303-2.196c2.929-2.93 2.929-7.678 0-10.608l-24.628-24.628v-26.547h46.252c23.48 44.228 70.021 74.423 123.489 74.423 26.819 0 52.875-7.622 75.35-22.041 3.486-2.236 4.499-6.876 2.263-10.362-2.238-3.488-6.877-4.502-10.362-2.263-20.053 12.865-43.308 19.666-67.251 19.666-68.77 0-124.718-55.948-124.718-124.719 0-68.77 55.948-124.718 124.718-124.718s124.718 55.948 124.718 124.718c0 30.856-11.355 60.47-31.973 83.387-2.771 3.08-2.52 7.821.56 10.592 3.079 2.772 7.823 2.52 10.592-.559 7.744-8.607 14.315-18.061 19.638-28.124h47.31v26.547l-24.628 24.628c-2.929 2.93-2.929 7.678 0 10.608 2.929 2.928 7.678 2.928 10.606 0l21.521-21.522 21.522 21.522c1.464 1.464 3.384 2.196 5.303 2.196s3.839-.732 5.303-2.196c2.929-2.93 2.929-7.678 0-10.608l-24.628-24.628v-26.547h53.786c9.331 0 16.921-7.591 16.921-16.922v-5.288c0-9.167-7.33-16.636-16.434-16.897v-62.211c9.106-.262 16.436-7.732 16.436-16.898zm-495.078 103.216c-1.06 0-1.922-.862-1.922-1.922v-5.288c0-1.06.862-1.922 1.922-1.922h105c.955 3.092 2.019 6.135 3.179 9.132zm30.805-67.065c4.142 0 7.5-3.357 7.5-7.5v-11.73h41.106v11.73c0 4.143 3.358 7.5 7.5 7.5s7.5-3.357 7.5-7.5v-11.73h9.107c-3.067 11.49-4.71 23.555-4.71 35.998 0 8.941.855 17.685 2.467 26.164h-86.763v-62.162h8.793v11.73c0 4.143 3.358 7.5 7.5 7.5zm77.641-34.229h-14.869c-1.245-2.417-3.76-4.072-6.666-4.072s-5.42 1.656-6.666 4.072h-42.774c-1.245-2.417-3.76-4.072-6.666-4.072s-5.42 1.656-6.666 4.072h-24.14c-1.06 0-1.922-.862-1.922-1.922v-3.082c0-1.06.862-1.922 1.922-1.922h43.603c.899 3.134 3.781 5.43 7.204 5.43s6.305-2.295 7.204-5.43h53.383c-1.041 2.277-2.026 4.585-2.947 6.926zm51.129-64.209c-16.167 11.113-29.889 25.535-40.179 42.283h-61.09v-45.702h43.134v9.711c0 4.143 3.358 7.5 7.5 7.5s7.5-3.357 7.5-7.5v-9.711h43.134v3.419zm16.434-20.341c0 1.06-.862 1.922-1.922 1.922h-57.783c-.66-3.469-3.703-6.092-7.363-6.092s-6.704 2.623-7.363 6.092h-57.784c-1.06 0-1.921-.862-1.921-1.922v-7.494c0-1.06.862-1.922 1.921-1.922h130.292c1.06 0 1.922.862 1.922 1.922v7.494zm151.239-55.93c-2.588 0-4.693-2.105-4.693-4.693s2.105-4.693 4.693-4.693h20.842c14.765 0 20.826-7.198 25.251-12.455 3.776-4.484 5.856-6.955 13.274-6.955s9.498 2.471 13.274 6.955c4.426 5.257 10.487 12.455 25.251 12.455h20.842c2.588 0 4.694 2.105 4.694 4.693s-2.105 4.693-4.694 4.693zm-8.916 76.863c-5.957-4.16-12.249-7.871-18.831-11.078.28-.16.6-.259.946-.259h130.293c1.06 0 1.922.862 1.922 1.922v7.494c0 1.06-.862 1.921-1.922 1.921h-57.783c-.66-3.468-3.703-6.091-7.363-6.091s-6.703 2.623-7.363 6.091zm39.325 41.691c-5.991-9.751-13.146-18.711-21.268-26.691h21.704v9.711c0 4.143 3.358 7.5 7.5 7.5s7.5-3.357 7.5-7.5v-9.711h43.134v26.691zm122.421 116.01v5.288c0 1.06-.862 1.922-1.921 1.922h-109.26c1.159-3.006 2.215-6.051 3.164-9.132h106.096c1.059 0 1.921.862 1.921 1.922zm-88.834-59.855c4.142 0 7.5-3.357 7.5-7.5v-11.73h41.106v11.73c0 4.143 3.358 7.5 7.5 7.5s7.5-3.357 7.5-7.5v-11.73h8.793v62.162h-87.865c1.627-8.563 2.466-17.317 2.466-26.164 0-12.443-1.644-24.508-4.71-35.998h10.21v11.73c0 4.143 3.358 7.5 7.5 7.5zm86.913-34.229h-24.14c-1.245-2.417-3.76-4.072-6.666-4.072s-5.421 1.656-6.666 4.072h-42.774c-1.245-2.417-3.76-4.072-6.666-4.072s-5.42 1.656-6.666 4.072h-15.972c-.921-2.34-1.906-4.649-2.947-6.926h112.497c1.06 0 1.921.862 1.921 1.922v3.082c0 1.059-.862 1.922-1.921 1.922zm-195.75 36.702c-4.142 0-7.5 3.357-7.5 7.5v8.433c0 4.143 3.358 7.5 7.5 7.5s7.5-3.357 7.5-7.5v-8.433c0-4.143-3.358-7.5-7.5-7.5z"/></svg>