<svg id="Capa_1" enable-background="new 0 0 511.556 511.556" height="512" viewBox="0 0 511.556 511.556" width="512" xmlns="http://www.w3.org/2000/svg"><path d="m305.203 504.276c-6.177 0-12.202-3.133-15.636-8.802-33.636-55.525-60.187-135.776-74.76-225.969-12.441-76.99-14.436-150.69-5.208-192.338 2.181-9.846 11.933-16.063 21.779-13.878 9.846 2.182 16.06 11.933 13.878 21.779-8.17 36.871-5.969 106.98 5.605 178.612 13.843 85.667 38.682 161.266 69.943 212.872 5.226 8.626 2.469 19.855-6.157 25.079-2.957 1.792-6.221 2.645-9.444 2.645z" fill="#a3defe"/><path d="m250.861 263.68c-4.522-27.99-7.607-55.737-9.207-81.37-6.648 5.356-13.511 10.737-20.518 16.222-4.663 3.65-9.333 7.324-13.994 11.019 1.815 19.4 4.37 39.557 7.666 59.954 11.235 69.534 29.595 133.147 52.827 184.089 13.141-.024 25.886-1.874 37.804-5.402-24.021-49.268-43.089-113.415-54.578-184.512z" fill="#7acefa"/><path d="m336.081 293.36c-14.097-8.284-31.852-13.493-51.998-15.37-6.156-3.033-13.081-4.743-20.407-4.743-25.542 0-46.248 20.706-46.248 46.248s20.706 46.248 46.248 46.248c25.016 0 45.38-19.865 46.208-44.68 2.763 1.139 5.339 2.4 7.694 3.784 11.067 6.503 16.447 15.023 16.447 26.045 0 15.731-6.327 29.317-18.298 39.29-12.252 10.207-29.424 15.828-48.353 15.828-32.431 0-60.152-11.262-76.055-30.896-12.19-15.051-16.417-33.444-12.224-53.19 7.66-36.066 38.993-60.595 72.168-86.564 41.588-32.557 88.726-69.458 91.227-135.371.996-26.272-3.161-47.713-12.358-63.728-9.323-16.234-23.748-26.371-40.618-28.542-35.174-4.516-70.283 25.979-79.916 69.449-2.182 9.846 4.031 19.597 13.878 21.779 9.842 2.182 19.597-4.032 21.779-13.878 5.956-26.883 25.283-42.988 39.598-41.126 14.035 1.806 22.333 23.262 21.141 54.663-1.858 48.982-38.476 77.649-77.243 107.997-36.854 28.85-74.962 58.683-85.38 107.735-6.467 30.451.481 60.198 19.566 83.763 22.869 28.238 60.936 44.432 104.436 44.432 27.454 0 52.928-8.626 71.729-24.29 20.276-16.891 31.443-40.81 31.443-67.35.002-24.042-12.238-44.474-34.464-57.533z" fill="#a3defe"/><path d="m339.77 287.084c-14.748-8.667-32.811-14.12-53.71-16.217-7.043-3.252-14.566-4.9-22.384-4.9-1.694 0-3.366.088-5.02.243-.212-1.27-.413-2.493-.606-3.691-1.1-6.809-2.135-13.789-3.095-20.801.267-.209.533-.417.8-.626 42.834-33.533 91.384-71.541 94.013-140.827 1.048-27.657-3.434-50.411-13.32-67.629-10.483-18.256-26.82-29.669-46.004-32.138-38.884-4.987-77.514 27.994-87.95 75.094-2.072 9.352-3.624 20.374-4.611 32.762-.32 4.008 2.67 7.516 6.679 7.835 3.98.305 7.516-2.67 7.835-6.679.935-11.719 2.386-22.07 4.313-30.768 8.824-39.818 40.402-67.841 71.879-63.803 14.559 1.873 27.071 10.733 35.233 24.946 8.506 14.813 12.341 34.941 11.396 59.827-2.372 62.537-48.096 98.332-88.438 129.915-34.246 26.807-66.593 52.127-74.802 90.783-4.666 21.969.067 42.469 13.688 59.284 13.783 17.018 35.507 28.242 61.295 32.1.047.008.093.014.14.021 6.521.968 13.298 1.474 20.275 1.474 7.108 0 13.993-.756 20.532-2.186.044-.008.089-.02.133-.029 12.384-2.729 23.495-7.924 32.349-15.3 13.685-11.401 20.918-26.921 20.918-44.883 0-13.634-6.742-24.508-20.04-32.322-2.612-1.534-5.508-2.96-8.607-4.237-2.207-.91-4.72-.68-6.723.614-2.005 1.294-3.248 3.488-3.328 5.873-.604 18.112-13.285 32.846-30.218 36.667-.211.036-.421.085-.63.141-2.607.543-5.309.835-8.083.835-21.487 0-38.968-17.48-38.968-38.968s17.48-38.968 38.968-38.968c6.028 0 11.812 1.344 17.19 3.993.797.393 1.658.636 2.542.719 19.035 1.773 35.975 6.752 48.985 14.398 19.909 11.697 30.874 29.9 30.874 51.255 0 24.34-10.236 46.272-28.823 61.756-10.001 8.332-22.074 14.514-35.39 18.29-.05.011-.1.028-.15.04-9.933 2.801-20.552 4.272-31.529 4.272-41.295 0-77.298-15.211-98.778-41.733-17.676-21.825-24.105-49.408-18.103-77.668 9.868-46.463 46.916-75.466 82.746-103.516 40.136-31.419 78.044-61.096 80.031-113.453 1.366-35.983-9.166-59.802-27.479-62.159-17.417-2.272-40.598 14.972-47.643 46.77-5.455 24.612-6.544 63.173-3.1 108.894-3.558 2.825-7.163 5.647-10.788 8.485-3.291 2.576-6.591 5.161-9.882 7.766-2.131-22.794-3.23-44.419-3.242-64.415-.003-4.019-3.262-7.275-7.28-7.275h-.005c-4.02.003-7.278 3.264-7.275 7.285.014 23.239 1.458 48.586 4.259 75.366-29.457 24.523-55.889 52.278-64.585 93.227-6.933 32.641.535 64.553 21.03 89.857 22.56 27.855 58.848 44.654 100.584 46.87 7.969 18.203 16.523 34.916 25.475 49.694 4.669 7.709 12.843 12.311 21.863 12.311 4.653 0 9.224-1.279 13.215-3.697 3.423-2.073 6.236-4.831 8.36-8.197 2.147-3.399 1.13-7.895-2.27-10.042-3.401-2.147-7.896-1.132-10.043 2.271-.908 1.438-2.116 2.621-3.593 3.515-1.717 1.041-3.678 1.591-5.67 1.591-3.884 0-7.401-1.979-9.409-5.294-7.645-12.619-15.002-26.743-21.949-42.059 7.791-.369 15.401-1.411 22.743-3.076 3.132 6.635 6.357 13.049 9.626 19.113 1.315 2.44 3.823 3.826 6.415 3.826 1.166 0 2.35-.28 3.448-.873 3.539-1.908 4.861-6.323 2.953-9.863-2.8-5.194-5.568-10.667-8.274-16.318 12.233-4.381 23.424-10.632 33.007-18.616 21.966-18.3 34.063-44.205 34.063-72.943-.001-26.729-13.516-49.39-38.058-63.809zm-24.085 45.151c7.631 4.98 11.061 10.803 11.061 18.658 0 13.499-5.421 25.151-15.678 33.695-5.56 4.632-12.303 8.201-19.847 10.598-2.948-8.262-5.795-16.834-8.507-25.615 16.33-6.154 28.803-20.021 32.971-37.336zm-52.009 40.789c1.618 0 3.219-.073 4.799-.211 2.668 8.688 5.467 17.183 8.368 25.396-3.084.345-6.246.522-9.469.522-4.721 0-9.331-.251-13.804-.742-3.129-9.221-6.128-18.746-8.973-28.491 5.931 2.269 12.359 3.526 19.079 3.526zm-37.526-15.404c3.432 12.775 7.135 25.282 11.063 37.336-16.87-4.493-30.873-12.866-40.235-24.424-10.761-13.285-14.48-29.57-10.76-47.095 3.346-15.754 11.833-29.349 23.225-41.949 1.178 6.779 2.431 13.545 3.749 20.236-1.965 5.564-3.045 11.543-3.045 17.771.001 14.91 6.134 28.41 16.003 38.125zm-1.646-74.553c-.845-4.736-1.657-9.482-2.425-14.215 6.154-5.653 12.778-11.176 19.644-16.685.625 4.267 1.276 8.501 1.95 12.674.245 1.517.503 3.074.778 4.71-7.649 2.955-14.454 7.614-19.947 13.516zm27.859-196.424c3.414-15.405 16.173-35.594 29.801-35.594.585 0 1.173.037 1.76.113 8.203 1.056 15.919 17.596 14.796 47.166-1.34 35.328-22.839 59.886-49.846 82.769-2.408-39.42-1.189-73.335 3.489-94.454z"/></svg>