<svg id="Capa_1" enable-background="new 0 0 511.994 511.994" height="512" viewBox="0 0 511.994 511.994" width="512" xmlns="http://www.w3.org/2000/svg"><path d="m74.088 326.427c-35.872-17.451-51.1-75.645-26.966-135.544 5.118-12.703 22.941-12.86 28.271-.244 12.036 28.488 32.343 58.938 52.14 75.806z" fill="#f6e3a3"/><path d="m65.325 328.013 31.601 34.386 67.478-73.312-35.592-29.846c-4.606-3.862-11.309-3.97-16.004-.218-18.926 15.125-35.406 33.181-48.752 53.483-3.185 4.844-2.654 11.239 1.269 15.507z" fill="#8eafe2"/><path d="m437.906 326.427c35.872-17.451 51.1-75.645 26.966-135.544-5.118-12.703-22.941-12.86-28.272-.244-12.036 28.488-32.343 58.938-52.139 75.806z" fill="#f6e3a3"/><path d="m446.669 328.013-31.601 34.386-67.477-73.312 35.592-29.846c4.606-3.862 11.309-3.97 16.004-.218 18.927 15.125 35.406 33.181 48.752 53.483 3.184 4.844 2.653 11.239-1.27 15.507z" fill="#8eafe2"/><path d="m453.913 438.427c0-109.306-88.61-197.916-197.916-197.916s-197.916 88.61-197.916 197.916z" fill="#e1b89a"/><path d="m58.081 438.427h163.629c-51.372-40.106-68.262-121.239-59.533-174.302-61.977 33.43-104.096 98.945-104.096 174.302z" fill="#d2996f"/><path d="m277.21 220.673h-42.426c-12.574 0-22.767 10.193-22.767 22.767v214.826h87.959v-214.827c.001-12.573-10.192-22.766-22.766-22.766z" fill="#8eafe2"/><circle cx="255.997" cy="261.41" fill="#fff" r="21.439"/><ellipse cx="156.218" cy="351.168" fill="#fff" rx="30.952" ry="24.649"/><ellipse cx="255.997" cy="334.972" fill="#4e5660" rx="21.439" ry="26.141"/><ellipse cx="355.776" cy="351.168" fill="#fff" rx="30.952" ry="24.649"/><path d="m414.602 384.963c-10.213-.341-19.834 2.075-28.179 6.56-8.024 4.312-17.757 4.349-25.776.028-7.837-4.223-16.803-6.619-26.33-6.619-6.914 0-13.53 1.264-19.635 3.573-8.186 3.095-17.358 2.445-24.772-2.204-9.83-6.163-21.454-9.728-33.913-9.728s-24.083 3.565-33.913 9.728c-7.414 4.648-16.586 5.299-24.772 2.204-6.105-2.308-12.721-3.573-19.635-3.573-9.527 0-18.493 2.397-26.33 6.619-8.019 4.321-17.753 4.285-25.776-.028-8.344-4.485-17.966-6.9-28.179-6.56-29.455.982-53.261 25.262-53.698 54.73-.461 31.096 24.608 56.449 55.599 56.449 9.525 0 18.49-2.396 26.326-6.618 8.003-4.311 17.728-4.311 25.731 0 7.836 4.222 16.801 6.618 26.326 6.618 6.914 0 13.53-1.265 19.635-3.573 8.186-3.095 17.357-2.445 24.772 2.204 9.83 6.163 21.454 9.728 33.913 9.728s24.083-3.565 33.913-9.728c7.414-4.648 16.586-5.299 24.772-2.204 6.105 2.308 12.721 3.573 19.635 3.573 9.525 0 18.49-2.396 26.326-6.618 8.003-4.311 17.728-4.311 25.731 0 7.836 4.222 16.801 6.618 26.326 6.618 30.991 0 56.06-25.352 55.599-56.449-.435-29.469-24.242-53.748-53.696-54.73z" fill="#fcf2d0"/><path d="m289.91 494.772c3.236-2.029 6.808-3.296 10.486-3.822-7.097-12.696-8.035-29.343-2.956-41.447 1.844-4.395.158-9.486-4.064-11.697-16.749-8.771-22.897-36.467-14.576-57.038-7.083-2.706-14.768-4.197-22.803-4.197-12.459 0-24.083 3.565-33.913 9.728-7.414 4.648-16.586 5.299-24.771 2.204-6.105-2.308-12.721-3.573-19.635-3.573-9.527 0-18.493 2.397-26.33 6.62-8.019 4.321-17.753 4.284-25.777-.028-8.344-4.484-17.964-6.9-28.176-6.56-29.454.981-53.261 25.257-53.701 54.724-.464 31.099 24.606 56.454 55.599 56.454 9.525 0 18.49-2.396 26.327-6.618 8.003-4.311 17.728-4.311 25.731 0 7.836 4.222 16.801 6.618 26.326 6.618 6.914 0 13.531-1.265 19.635-3.573 8.185-3.095 17.357-2.445 24.771 2.204 9.83 6.163 21.454 9.728 33.913 9.728 12.46.001 24.084-3.564 33.914-9.727z" fill="#f6e3a3"/><g fill="#fcf2d0"><path d="m107.95 442.845c-1.919 0-3.839-.732-5.303-2.196-2.929-2.93-2.929-7.678 0-10.607l10.486-10.486c2.929-2.928 7.678-2.928 10.606 0 2.929 2.93 2.929 7.678 0 10.607l-10.486 10.486c-1.464 1.463-3.384 2.196-5.303 2.196z"/><path d="m190.154 468.905c-1.919 0-3.838-.732-5.303-2.196-2.929-2.929-2.929-7.678 0-10.607l7.623-7.623c2.929-2.93 7.677-2.929 10.606-.001 2.929 2.929 2.929 7.678.001 10.607l-7.623 7.623c-1.465 1.465-3.385 2.197-5.304 2.197z"/><path d="m255.997 430.618c-1.919 0-3.839-.733-5.303-2.197-2.929-2.929-2.929-7.678 0-10.606l8.037-8.036c2.929-2.928 7.678-2.929 10.606.001 2.929 2.929 2.929 7.678 0 10.606l-8.037 8.036c-1.464 1.464-3.384 2.196-5.303 2.196z"/></g><path d="m327.519 460.984c-1.919 0-3.839-.732-5.304-2.197-2.929-2.929-2.928-7.678 0-10.606l6.601-6.601c2.929-2.929 7.677-2.928 10.607.001 2.929 2.929 2.928 7.678 0 10.606l-6.601 6.601c-1.464 1.463-3.383 2.196-5.303 2.196z" fill="#f6e3a3"/><path d="m398.801 442.793c-1.919 0-3.839-.733-5.303-2.196-2.929-2.93-2.929-7.678 0-10.607l10.383-10.383c2.929-2.928 7.678-2.928 10.606 0 2.929 2.93 2.929 7.678 0 10.608l-10.383 10.383c-1.464 1.463-3.383 2.195-5.303 2.195z" fill="#f6e3a3"/><path d="m61.378 248.686c-1.919 0-3.838-.732-5.303-2.196-2.929-2.929-2.929-7.678 0-10.607l6.186-6.186c2.93-2.93 7.677-2.929 10.607-.001 2.929 2.929 2.929 7.678.001 10.607l-6.186 6.186c-1.466 1.464-3.385 2.197-5.305 2.197z" fill="#fcf2d0"/><path d="m441.207 270.471c-1.919 0-3.839-.732-5.304-2.197-2.929-2.929-2.928-7.678 0-10.606l7.065-7.064c2.929-2.929 7.678-2.928 10.607.001s2.928 7.678 0 10.607l-7.065 7.064c-1.464 1.462-3.384 2.195-5.303 2.195z" fill="#fcf2d0"/><path d="m174.592 66.402 34.337-6.054v88.802l-34.337 6.054z" fill="#4e5660"/><path d="m261.121 7.576-60.088 10.595c-15.292 2.696-26.441 15.983-26.441 31.511v16.72l61.889-10.913c17.304-3.051 29.919-18.086 29.919-35.656v-7.828c0-2.796-2.525-4.915-5.279-4.429z" fill="#f7ef87"/><path d="m201.033 18.171c-15.292 2.696-26.441 15.983-26.441 31.511v16.72l54.051-9.531c-9.236-7.549-11.201-30.243-9.434-41.906z" fill="#efd176"/><ellipse cx="153.526" cy="158.919" fill="#89d47f" rx="57.002" ry="37.955" transform="matrix(.949 -.315 .315 .949 -42.279 56.518)"/><path d="m145.559 121.681c-26.822 7.453-47.435 27.348-47.435 47.007 0 21.567 24.805 34.677 55.402 29.282 6.449-1.137 12.636-3.013 18.392-5.456-31.827-13.298-32.832-54.478-26.359-70.833z" fill="#5ec783"/><path d="m174.592 66.402 34.337-6.054v23.894l-34.337 6.055z" fill="#383c43"/><path d="m375.987 88.94 34.337-6.054v88.802l-34.337 6.054z" fill="#4e5660"/><path d="m462.516 30.113-60.088 10.595c-15.292 2.696-26.441 15.983-26.441 31.511v16.72l61.889-10.913c17.304-3.051 29.919-18.086 29.919-35.656v-7.828c0-2.796-2.525-4.914-5.279-4.429z" fill="#89d47f"/><path d="m402.428 40.709c-15.292 2.696-26.441 15.983-26.441 31.511v16.72l54.051-9.531c-9.237-7.549-11.201-30.243-9.434-41.906z" fill="#5ec783"/><ellipse cx="354.922" cy="181.457" fill="#a3defe" rx="57.002" ry="37.955" transform="matrix(.949 -.315 .315 .949 -39.111 121.172)"/><path d="m346.955 144.218c-26.822 7.453-47.435 27.348-47.435 47.007 0 21.567 24.804 34.677 55.402 29.282 6.449-1.137 12.636-3.013 18.392-5.456-31.828-13.297-32.833-54.477-26.359-70.833z" fill="#7acefa"/><path d="m375.987 88.94 34.337-6.054v23.894l-34.337 6.055z" fill="#383c43"/><path d="m304.557 217.469c9.098 7.634 22.345 11.724 37.038 11.724 4.755 0 9.664-.429 14.629-1.305 34.542-6.091 61.6-30.779 61.6-56.206v-82.509l21.355-3.766c20.927-3.69 36.116-21.792 36.116-43.042v-7.828c0-3.556-1.562-6.905-4.285-9.19-2.724-2.286-6.292-3.243-9.795-2.625l-60.088 10.595c-18.912 3.334-32.639 19.693-32.639 38.898v61.497c-4.83-.015-9.818.412-14.868 1.303-34.542 6.091-61.6 30.779-61.6 56.206 0 10.141 4.452 19.464 12.537 26.248zm78.93-145.255c0-11.911 8.514-22.058 20.243-24.126l56.565-9.973v4.25c0 13.957-9.977 25.846-23.721 28.271l-53.087 9.36zm0 23.014 19.337-3.41v51.713c-5.404-3.869-12.005-6.633-19.337-8.226zm-27.263 54.557c4.197-.739 8.306-1.102 12.244-1.102 2.193 0 4.329.117 6.399.339.174.026.349.049.526.063 8.157.954 15.222 3.618 20.252 7.839 4.763 3.997 7.179 8.962 7.179 14.758 0 17.757-22.533 36.731-49.205 41.435-15.998 2.817-30.733.15-39.421-7.139-4.763-3.997-7.179-8.962-7.179-14.758.001-17.757 22.533-36.732 49.205-41.435zm-196.814 164.528 7.894 2.115c-.348.865-.544 1.807-.544 2.796v10.931c0 4.143 3.358 7.5 7.5 7.5s7.5-3.357 7.5-7.5v-9.853l3.024.81c.65.175 1.303.258 1.946.258 3.311 0 6.342-2.21 7.24-5.56 1.072-4.001-1.302-8.113-5.303-9.186l-25.374-6.8c-4-1.075-8.113 1.302-9.186 5.303-1.072 4.001 1.302 8.113 5.303 9.186zm189.291-14.489-25.375 6.8c-4.001 1.072-6.375 5.185-5.303 9.186.898 3.351 3.928 5.56 7.24 5.56.643 0 1.296-.083 1.946-.258l3.024-.81v9.852c0 4.143 3.358 7.5 7.5 7.5s7.5-3.357 7.5-7.5v-10.931c0-.989-.196-1.931-.544-2.795l7.895-2.116c4.001-1.072 6.375-5.185 5.303-9.186-1.073-4-5.188-6.379-9.186-5.302zm108.233 95.831c-3.656-17.261-9.466-33.719-17.144-49.079l12.401-13.495c2.972-3.233 4.705-7.22 5.18-11.341 29.108-28.015 35.147-82.317 14.457-133.667-3.526-8.75-11.556-14.235-20.956-14.314-9.359-.066-17.511 5.268-21.181 13.953-9.36 22.153-23.437 44.696-38.059 61.088-4.716-.069-9.453 1.487-13.268 4.686l-13.068 10.958c-17.7-11.127-37.239-19.635-58.089-24.982-1.954-14.816-14.657-26.291-29.997-26.291h-42.426c-15.341 0-28.043 11.475-29.997 26.291-20.85 5.348-40.389 13.855-58.089 24.982l-13.067-10.958c-3.815-3.199-8.551-4.755-13.267-4.686-14.623-16.391-28.701-38.935-38.061-61.088-3.644-8.622-11.668-13.954-20.978-13.954-.068 0-.137 0-.205.001-9.399.079-17.429 5.564-20.954 14.314-20.691 51.35-14.652 105.652 14.457 133.668.475 4.121 2.208 8.107 5.18 11.34l12.401 13.494c-7.678 15.36-13.488 31.819-17.144 49.08-.249.246-.507.481-.752.732-11.44 11.662-17.873 27-18.112 43.188-.252 17.044 6.191 33.111 18.145 45.243 11.955 12.134 27.92 18.816 44.953 18.816 10.423 0 20.756-2.599 29.883-7.515 5.742-3.091 12.876-3.092 18.618.001 9.127 4.915 19.46 7.514 29.883 7.514 7.668 0 15.167-1.365 22.288-4.058 6.213-2.35 12.824-1.786 18.136 1.543 11.347 7.114 24.451 10.874 37.896 10.874 13.446 0 26.55-3.76 37.897-10.874 5.234-3.282 12.012-3.858 18.135-1.544 7.12 2.693 14.619 4.059 22.288 4.059 10.423 0 20.756-2.599 29.884-7.515 5.741-3.094 12.875-3.093 18.617.001 9.127 4.915 19.46 7.514 29.883 7.514 9.131 0 17.942-1.909 26.189-5.676 3.768-1.721 5.427-6.17 3.706-9.939-1.721-3.768-6.17-5.427-9.938-3.706-6.277 2.867-12.991 4.32-19.957 4.32-7.948 0-15.822-1.979-22.77-5.72-10.283-5.54-22.561-5.541-32.845-.001-6.948 3.742-14.822 5.721-22.77 5.721-5.85 0-11.563-1.039-16.982-3.089-10.483-3.963-22.225-2.891-31.408 2.865-8.956 5.615-19.305 8.583-29.929 8.583s-20.973-2.968-29.929-8.583c-9.184-5.759-20.925-6.826-31.409-2.865-5.419 2.05-11.133 3.089-16.982 3.089-7.948 0-15.822-1.979-22.769-5.72-10.282-5.54-22.561-5.541-32.845-.001-6.948 3.742-14.821 5.721-22.77 5.721-12.984 0-25.154-5.095-34.268-14.345-9.112-9.247-14.024-21.497-13.832-34.492.183-12.319 5.092-24.006 13.823-32.906.539-.55 1.09-1.085 1.651-1.606.164-.133.322-.274.474-.421 8.445-7.646 19.164-12.035 30.502-12.413 8.518-.297 16.949 1.678 24.378 5.671 10.323 5.548 22.617 5.558 32.885.023 6.947-3.743 14.822-5.722 22.772-5.722 5.849 0 11.563 1.039 16.982 3.087 5.794 2.192 11.972 2.838 17.89 2.011.468-.033.923-.109 1.363-.224 4.301-.772 8.439-2.32 12.155-4.65 8.956-5.615 19.305-8.583 29.929-8.583s20.973 2.968 29.929 8.583c3.712 2.327 7.845 3.874 12.141 4.647.449.118.914.196 1.392.228 5.914.823 12.086.178 17.875-2.011 5.42-2.049 11.134-3.088 16.983-3.088 7.951 0 15.825 1.979 22.772 5.722 10.269 5.533 22.563 5.524 32.884-.023 7.432-3.995 15.865-5.961 24.378-5.671 11.334.378 22.05 4.764 30.494 12.405.159.155.324.303.496.442.556.517 1.102 1.047 1.636 1.592 8.73 8.9 13.639 20.587 13.822 32.906.122 8.255-1.875 16.423-5.775 23.62-1.974 3.642-.622 8.193 3.02 10.167 3.642 1.975 8.194.621 10.168-3.021 5.123-9.452 7.746-20.168 7.586-30.989-.24-16.188-6.672-31.525-18.113-43.188-.246-.248-.503-.482-.752-.729zm-412.976-131.093c-3.024-22.432.475-46.942 10.121-70.882 1.823-4.524 5.947-4.909 7.167-4.92 1.216.018 5.344.306 7.239 4.792 9.263 21.925 22.919 44.275 37.39 61.44-17.688 14.49-33.133 31.365-45.976 50.242-8.185-10.392-13.754-24.457-15.941-40.672zm26.889 58.37c-1.604-1.745-1.819-4.341-.524-6.311 12.911-19.641 28.78-37.05 47.168-51.744 1.891-1.511 4.626-1.467 6.503.106l9.835 8.247c-21.691 16.052-40.077 36.266-54.009 59.466zm133.671 59.741c-1.525-.23-3.051-.624-4.553-1.192-7.122-2.691-14.62-4.057-22.287-4.057-10.425 0-20.76 2.6-29.888 7.517-5.819 3.136-12.798 3.124-18.668-.031-9.76-5.246-20.821-7.83-31.979-7.45-8.128.271-16.012 2.105-23.297 5.34 3.55-11.658 8.178-22.842 13.781-33.43.198-.314.375-.638.522-.972 14.703-27.403 35.916-50.779 61.626-68.065.389-.215.762-.462 1.114-.75 16.271-10.774 34.317-19.116 53.629-24.52zm87.959-3.588c-11.015-6.555-23.588-10.02-36.479-10.02s-25.464 3.465-36.48 10.02v-135.645c0-8.418 6.849-15.267 15.267-15.267h42.426c8.418 0 15.267 6.849 15.267 15.267v135.645zm151.032-185.533c1.896-4.485 6.02-4.814 7.238-4.792 1.221.011 5.345.396 7.168 4.92 9.646 23.939 13.145 48.45 10.121 70.882-2.187 16.215-7.756 30.28-15.942 40.673-12.842-18.878-28.288-35.753-45.976-50.242 14.471-17.166 28.127-39.516 37.391-61.441zm-55.507 71.431c1.877-1.574 4.611-1.618 6.502-.105 18.387 14.693 34.257 32.103 47.167 51.743 1.296 1.971 1.08 4.566-.524 6.311l-8.973 9.764c-13.932-23.2-32.318-43.413-54.008-59.465zm26.849 112.477c-11.161-.379-22.218 2.205-31.979 7.45-5.87 3.155-12.849 3.167-18.668.031-9.126-4.917-19.461-7.517-29.887-7.517-7.668 0-15.165 1.365-22.288 4.058-1.502.568-3.028.962-4.553 1.191v-127.61c19.314 5.404 37.361 13.747 53.633 24.523.348.283.717.529 1.101.741 25.716 17.288 46.933 40.667 61.637 68.076.146.331.321.651.516.962 5.604 10.59 10.233 21.776 13.784 33.436-7.284-3.236-15.167-5.07-23.296-5.341zm-311.689-182.529c9.098 7.634 22.345 11.724 37.036 11.724 4.756 0 9.664-.429 14.631-1.305 34.542-6.091 61.6-30.779 61.6-56.206v-82.509l21.354-3.766c20.927-3.689 36.117-21.791 36.117-43.042v-7.828c0-3.556-1.562-6.905-4.285-9.19-2.724-2.285-6.295-3.243-9.795-2.625h-.001l-60.089 10.595c-18.912 3.334-32.639 19.692-32.639 38.896v61.498c-4.83-.015-9.818.412-14.867 1.302-9.524 1.679-18.642 4.808-27.1 9.301-3.658 1.942-5.048 6.483-3.105 10.142s6.484 5.048 10.142 3.105c7.067-3.754 14.693-6.37 22.667-7.775 6.626-1.168 13.026-1.381 18.879-.728.073.009.145.017.218.023 8.187.947 15.279 3.609 20.324 7.842 4.764 3.997 7.179 8.963 7.179 14.758 0 17.757-22.533 36.731-49.204 41.435-15.995 2.82-30.733.152-39.421-7.138-4.764-3.998-7.18-8.963-7.18-14.759 0-3.569.925-7.283 2.75-11.038 1.811-3.726.258-8.214-3.467-10.024-3.726-1.81-8.213-.257-10.024 3.468-2.826 5.815-4.259 11.734-4.259 17.595.001 10.142 4.454 19.465 12.539 26.249zm78.93-145.255c0-11.91 8.514-22.057 20.243-24.125l56.565-9.975v4.251c0 13.957-9.976 25.847-23.721 28.271l-53.087 9.36zm0 63.092v-40.078l19.337-3.41v51.714c-5.404-3.87-12.005-6.633-19.337-8.226zm73.905 188.563c-15.957 0-28.939 15.091-28.939 33.641s12.982 33.642 28.939 33.642c15.956 0 28.939-15.092 28.939-33.642s-12.982-33.641-28.939-33.641zm0 52.282c-7.556 0-13.939-8.537-13.939-18.642 0-10.104 6.383-18.641 13.939-18.641s13.939 8.536 13.939 18.641-6.383 18.642-13.939 18.642z"/></svg>