<svg id="Capa_1" enable-background="new 0 0 512 512" height="512" viewBox="0 0 512 512" width="512" xmlns="http://www.w3.org/2000/svg"><path d="m7.5 392.458v-272.916c0-25.689 20.825-46.514 46.514-46.514h403.972c25.689 0 46.514 20.825 46.514 46.514v272.915c0 25.689-20.825 46.514-46.514 46.514h-403.972c-25.689.001-46.514-20.824-46.514-46.513z" fill="#a3defe"/><path d="m157.404 73.028h-103.39c-25.689 0-46.514 20.826-46.514 46.515v272.915c0 25.689 20.825 46.514 46.514 46.514h146.574c-44.139-64.695-47.313-231.959-43.184-365.944z" fill="#7acefa"/><path d="m7.5 392.458v-152.846h497v152.846c0 25.689-20.825 46.514-46.514 46.514h-403.972c-25.689 0-46.514-20.825-46.514-46.514z" fill="#8eafe2"/><path d="m158.033 239.612h-150.533v152.846c0 25.689 20.825 46.514 46.514 46.514h146.574c-26.64-39.046-38.36-115.452-42.555-199.36z" fill="#6a96d7"/><path d="m443.981 398.915h-375.962c-11.301 0-20.462-9.161-20.462-20.462v-78.322c0-11.301 9.161-20.462 20.462-20.462h375.962c11.301 0 20.462 9.161 20.462 20.462v78.322c0 11.301-9.161 20.462-20.462 20.462z" fill="#fff"/><path d="m117.038 398.915h-49.019c-11.301 0-20.462-9.161-20.462-20.462v-78.322c0-11.301 9.161-20.462 20.462-20.462h49.019z" fill="#f6e3a3"/><path d="m186.519 279.669h69.481v119.246h-69.481z" fill="#f6e3a3"/><path d="m325.481 279.669h69.481v119.246h-69.481z" fill="#f6e3a3"/><g fill="#4e5660"><path d="m134.408 279.669h-34.74v51.098c0 4.792 3.885 8.676 8.676 8.676h17.388c4.792 0 8.676-3.885 8.676-8.676z"/><path d="m273.37 279.669h-34.74v51.098c0 4.792 3.885 8.676 8.676 8.676h17.387c4.792 0 8.676-3.885 8.676-8.676v-51.098z"/><path d="m412.332 279.669h-34.741v51.098c0 4.792 3.885 8.676 8.676 8.676h17.388c4.792 0 8.677-3.885 8.677-8.676z"/><circle cx="96.77" cy="156.32" r="49.213"/><circle cx="415.23" cy="156.32" r="49.213"/></g><path d="m322.589 209.748h-133.178c-5.5 0-9.959-4.459-9.959-9.958v-18.357c0-5.5 4.459-9.959 9.959-9.959h133.178c5.5 0 9.959 4.459 9.959 9.959v18.357c-.001 5.5-4.459 9.958-9.959 9.958z" fill="#8eafe2"/><path d="m217.726 209.748h-28.315c-5.5 0-9.959-4.459-9.959-9.958v-18.357c0-5.5 4.459-9.959 9.959-9.959h28.315z" fill="#f7ef87"/><path d="m217.726 171.475h38.274v38.274h-38.274z" fill="#e8899e"/><path d="m256 171.475h38.274v38.274h-38.274z" fill="#fff"/><path d="m214.294 136.892c0 10.726-10.919 19.421-24.387 19.421-13.469 0-24.387-8.695-24.387-19.421s10.919-19.421 24.387-19.421 24.387 8.695 24.387 19.421z" fill="#fff"/><path d="m297.706 136.892c0 10.726 10.919 19.421 24.387 19.421 13.469 0 24.387-8.695 24.387-19.421s-10.919-19.421-24.387-19.421-24.387 8.695-24.387 19.421z" fill="#fff"/><path d="m275.662 121.97c0-12.151-8.803-13.293-19.662-13.293s-19.662 1.142-19.662 13.293 8.803 22.002 19.662 22.002 19.662-9.85 19.662-22.002z" fill="#4e5660"/><path d="m325.517 113.706v-9.958c0-4.143-3.358-7.5-7.5-7.5s-7.5 3.357-7.5 7.5v9.958c0 4.143 3.358 7.5 7.5 7.5s7.5-3.357 7.5-7.5zm178.983 14.687c-4.142 0-7.5 3.357-7.5 7.5v96.22h-482v-112.57c0-21.513 17.501-39.014 39.014-39.014h403.972c15.237 0 29.175 8.959 35.509 22.824 1.721 3.768 6.172 5.426 9.938 3.706 3.768-1.722 5.427-6.171 3.706-9.938-8.767-19.191-28.06-31.592-49.152-31.592h-403.973c-29.784-.001-54.014 24.23-54.014 54.013v272.916c0 22.413 14.099 42.748 35.084 50.602.866.324 1.754.478 2.627.478 3.039 0 5.897-1.86 7.025-4.873 1.452-3.88-.517-8.201-4.396-9.653-15.156-5.673-25.34-20.363-25.34-36.554v-145.346h482v145.346c0 21.512-17.502 39.014-39.014 39.014h-384.349c-4.142 0-7.5 3.357-7.5 7.5s3.358 7.5 7.5 7.5h384.349c29.784 0 54.014-24.23 54.014-54.014v-256.565c0-4.143-3.358-7.5-7.5-7.5zm-464.443 27.927c0 31.271 25.441 56.713 56.713 56.713 31.271 0 56.713-25.441 56.713-56.713s-25.442-56.713-56.713-56.713c-31.272 0-56.713 25.442-56.713 56.713zm98.426 0c0 23.001-18.712 41.713-41.713 41.713s-41.713-18.712-41.713-41.713 18.712-41.713 41.713-41.713c23 0 41.713 18.712 41.713 41.713zm276.747-56.713c-31.272 0-56.713 25.441-56.713 56.713s25.441 56.713 56.713 56.713 56.713-25.441 56.713-56.713-25.441-56.713-56.713-56.713zm0 98.426c-23.001 0-41.713-18.712-41.713-41.713s18.712-41.713 41.713-41.713 41.713 18.712 41.713 41.713-18.712 41.713-41.713 41.713zm28.751 208.382c15.418 0 27.962-12.544 27.962-27.962v-78.322c0-15.418-12.544-27.962-27.962-27.962h-375.962c-15.418 0-27.962 12.544-27.962 27.962v78.322c0 15.418 12.544 27.962 27.962 27.962zm-24.149-75.648v-43.598h24.148c7.147 0 12.962 5.814 12.962 12.962v78.322c0 7.147-5.815 12.962-12.962 12.962h-41.519v-44.472h1.194c8.921 0 16.177-7.257 16.177-16.176zm-34.74-43.598h19.741v43.598c0 .648-.528 1.177-1.177 1.177h-17.388c-.648 0-1.176-.528-1.176-1.177zm-52.111 0h37.111v43.598c0 8.92 7.257 16.177 16.176 16.177h1.194v44.472h-54.481zm-52.111 43.598v-43.598h37.111v104.246h-54.481v-44.472h1.194c8.919 0 16.176-7.257 16.176-16.176zm-34.741-43.598h19.741v43.598c0 .648-.528 1.177-1.176 1.177h-17.388c-.649 0-1.177-.528-1.177-1.177zm-52.11 0h37.11v43.598c0 8.92 7.257 16.177 16.177 16.177h1.194v44.472h-54.481zm-52.111 43.598v-43.598h37.111v104.246h-54.481v-44.472h1.194c8.919 0 16.176-7.257 16.176-16.176zm-34.741-43.598h19.741v43.598c0 .648-.528 1.177-1.176 1.177h-17.388c-.649 0-1.177-.528-1.177-1.177zm-52.11 91.284v-78.322c0-7.147 5.815-12.962 12.962-12.962h24.148v43.598c0 8.92 7.257 16.177 16.177 16.177h1.194v44.472h-41.519c-7.147-.001-12.962-5.815-12.962-12.963zm146.426-264.747v-9.958c0-4.143-3.358-7.5-7.5-7.5s-7.5 3.357-7.5 7.5v9.958c0 4.143 3.358 7.5 7.5 7.5s7.5-3.357 7.5-7.5zm-29.53 67.728v18.356c0 9.626 7.832 17.458 17.458 17.458h133.178c9.626 0 17.458-7.832 17.458-17.458v-18.356c0-9.627-7.832-17.459-17.458-17.459h-133.178c-9.626 0-17.458 7.832-17.458 17.459zm129.821-2.459h20.815c1.355 0 2.458 1.104 2.458 2.459v18.356c0 1.355-1.103 2.458-2.458 2.458h-20.815zm-38.274 0h23.274v23.273h-23.274zm-38.274 0h23.274v23.273h-23.274zm-38.273 2.459c0-1.355 1.103-2.459 2.458-2.459h20.815v23.273h-20.815c-1.355 0-2.458-1.103-2.458-2.458zm96.209-59.463c0-20.793-19.034-20.793-27.162-20.793s-27.162 0-27.162 20.793c0 16.268 12.185 29.502 27.162 29.502s27.162-13.235 27.162-29.502zm-39.324 0c0-4.097 0-5.793 12.162-5.793s12.162 1.696 12.162 5.793c0 7.996-5.456 14.502-12.162 14.502s-12.162-6.506-12.162-14.502z"/></svg>