<svg id="Capa_1" enable-background="new 0 0 512 512" height="512" viewBox="0 0 512 512" width="512" xmlns="http://www.w3.org/2000/svg"><path d="m228.262 7.512c-121.924 0-220.762 98.838-220.762 220.762s98.838 220.761 220.762 220.761 220.761-98.838 220.761-220.761-98.838-220.762-220.761-220.762zm0 264.596c-24.209 0-43.834-19.625-43.834-43.834s19.625-43.834 43.834-43.834 43.834 19.625 43.834 43.834c-.001 24.208-19.626 43.834-43.834 43.834z" fill="#f7ef87"/><path d="m197.266 197.279-125.106-125.107c-39.95 39.95-64.66 95.14-64.66 156.102h176.928c0-12.105 4.906-23.063 12.838-30.995z" fill="#efd176"/><path d="m272.095 228.274c0 12.105-4.906 23.063-12.839 30.995l125.107 125.107c39.95-39.95 64.659-95.14 64.659-156.102z" fill="#efd176"/><path d="m228.262 141.093c-48.148 0-87.18 39.032-87.18 87.18s39.032 87.18 87.18 87.18 87.18-39.032 87.18-87.18-39.032-87.18-87.18-87.18zm0 131.015c-24.209 0-43.834-19.625-43.834-43.834s19.625-43.834 43.834-43.834 43.834 19.625 43.834 43.834c-.001 24.208-19.626 43.834-43.834 43.834z" fill="#8eafe2"/><path d="m279.339 296.155 40.427-7.129v156.579l-40.427 7.128z" fill="#4e5660"/><path d="m471.04 192.675-155.087 27.346c-21.176 3.734-36.614 22.132-36.614 43.635v32.499l225.161-39.702v-35.701c0-17.726-16.004-31.155-33.46-28.077z" fill="#89d47f"/><path d="m315.953 220.021c-21.176 3.734-36.614 22.132-36.614 43.635v32.499l74.846-13.197c-12.79-10.454-15.511-51.224-13.063-67.374z" fill="#5ec783"/><ellipse cx="254.537" cy="457.107" fill="#a3defe" rx="67.113" ry="44.687" transform="matrix(.949 -.315 .315 .949 -131.151 103.581)"/><path d="m245.157 413.263c-31.579 8.775-55.849 32.198-55.849 55.345 0 25.392 29.204 40.828 65.229 34.476 7.593-1.339 14.877-3.547 21.654-6.424-37.472-15.656-38.656-64.14-31.034-83.397z" fill="#7acefa"/><path d="m279.339 296.155 40.427-7.129v28.133l-40.427 7.129z" fill="#383c43"/><path d="m464.073 263.581 40.427-7.128v156.578l-40.427 7.129z" fill="#4e5660"/><ellipse cx="439.271" cy="424.533" fill="#a3defe" rx="67.113" ry="44.687" transform="matrix(.949 -.315 .315 .949 -111.456 160.171)"/><path d="m429.891 380.69c-31.579 8.775-55.849 32.198-55.849 55.345 0 25.392 29.204 40.828 65.229 34.476 7.593-1.339 14.877-3.548 21.654-6.424-37.472-15.657-38.656-64.14-31.034-83.397z" fill="#7acefa"/><path d="m464.073 263.581 40.427-7.128v28.133l-40.427 7.128z" fill="#383c43"/><ellipse cx="149.015" cy="103.848" fill="#eda1ab" rx="29.24" ry="23.286"/><ellipse cx="307.508" cy="103.848" fill="#eda1ab" rx="29.24" ry="23.286"/><path d="m173.557 81.146v-11.379c0-4.143-3.358-7.5-7.5-7.5s-7.5 3.357-7.5 7.5v11.379c0 4.143 3.358 7.5 7.5 7.5s7.5-3.357 7.5-7.5zm325.58 112.021c-8.175-6.86-18.892-9.73-29.399-7.877l-16.747 2.953c-9.025-50.924-35.274-97.492-74.493-131.812-41.574-36.383-94.929-56.419-150.237-56.419-35.962 0-70.378 8.125-102.293 24.15-30.428 15.279-57.548 37.635-78.427 64.654-2.533 3.277-1.929 7.987 1.349 10.521 3.277 2.531 7.988 1.929 10.521-1.349 19.513-25.251 44.856-46.144 73.288-60.42 29.807-14.967 61.959-22.556 95.562-22.556 51.673 0 101.52 18.718 140.358 52.705 36.643 32.067 61.168 75.567 69.6 123.13l-116.79 20.593c-3.644-20.286-13.822-38.86-29.189-52.957-17.497-16.05-40.219-24.89-63.979-24.89-52.207 0-94.68 42.474-94.68 94.681 0 52.206 42.473 94.68 94.68 94.68 15.351 0 30.183-3.652 43.578-10.63v89.935c-6.023-.106-12.266.366-18.604 1.485-25.804 4.55-47.989 18-60.52 34.828-48.4-8.129-92.715-32.926-125.214-70.171-33.856-38.803-52.501-88.568-52.501-140.127 0-35.061 8.688-69.82 25.126-100.52 1.955-3.651.58-8.196-3.072-10.152-3.649-1.955-8.197-.58-10.152 3.072-17.599 32.87-26.902 70.077-26.902 107.6 0 55.186 19.958 108.453 56.199 149.987 33.593 38.5 78.995 64.572 128.745 74.148-2.04 5.282-3.136 10.726-3.136 16.199 0 11.709 4.94 22.043 14.286 29.885 10.473 8.788 25.756 13.494 42.736 13.494 5.526 0 11.232-.499 17.01-1.518 40.053-7.063 71.427-35.555 71.427-64.865v-11.634c64.58-31.12 110.761-90.583 124.786-160.654l4.52-.797v97.167c-6.023-.106-12.266.366-18.604 1.484-40.052 7.061-71.426 35.554-71.426 64.864 0 11.709 4.94 22.044 14.286 29.886 10.474 8.788 25.755 13.493 42.733 13.493 5.526 0 11.233-.498 17.011-1.518 10.623-1.872 20.832-5.305 30.345-10.203 3.683-1.897 5.131-6.419 3.234-10.102-1.896-3.683-6.417-5.129-10.102-3.234-8.17 4.207-16.945 7.157-26.082 8.768-19.217 3.387-36.972.138-47.498-8.694-5.924-4.972-8.928-11.16-8.928-18.396 0-21.512 27.033-44.451 59.031-50.093 19.215-3.387 36.972-.139 47.499 8.695 5.924 4.971 8.928 11.159 8.928 18.395 0 6.714-2.685 13.895-7.766 20.767-2.462 3.33-1.758 8.026 1.573 10.489 3.329 2.461 8.027 1.759 10.489-1.573 7.002-9.472 10.703-19.735 10.703-29.683v-192.28c.001-10.67-4.688-20.725-12.862-27.584zm-270.876 114.787c-43.936 0-79.68-35.744-79.68-79.68s35.744-79.681 79.68-79.681c19.996 0 39.116 7.438 53.839 20.943 13.083 12.001 21.689 27.853 24.662 45.145-12.061 4.14-21.948 12.499-28.085 23.215.594-3.119.918-6.333.918-9.623 0-28.306-23.028-51.334-51.335-51.334-28.305 0-51.333 23.028-51.333 51.334s23.028 51.334 51.333 51.334c19.033 0 35.667-10.419 44.531-25.846-.62 3.211-.954 6.517-.954 9.894v31.302c-12.97 8.509-27.954 12.997-43.576 12.997zm36.335-79.68c0 20.034-16.299 36.334-36.335 36.334-20.034 0-36.333-16.3-36.333-36.334s16.299-36.334 36.333-36.334c20.035 0 36.335 16.3 36.335 36.334zm-11.361 267.425c-19.216 3.386-36.972.137-47.499-8.695-5.924-4.971-8.927-11.16-8.927-18.395 0-21.511 27.033-44.451 59.031-50.094 5.008-.883 9.917-1.314 14.624-1.314 2.69 0 5.31.148 7.85.427.126.017.252.035.38.046 9.908 1.145 18.508 4.387 24.645 9.536 5.924 4.972 8.928 11.16 8.928 18.396 0 21.51-27.034 44.45-59.032 50.093zm59.032-80.535c-6.819-5.496-15.554-9.337-25.428-11.332v-101.384l25.428-4.484zm15 2.025v-121.87l108.839-19.191c-13.882 60.593-53.651 112.121-108.839 141.061zm169.733-34.598c-6.819-5.496-15.554-9.337-25.428-11.332v-101.385l25.428-4.483zm0-132.431-210.161 37.057v-23.561c0-17.624 12.411-32.669 29.623-36.091.037-.007.074-.015.111-.022.228-.044.454-.096.684-.136l155.087-27.346c6.125-1.078 12.383.594 17.152 4.597 4.77 4.002 7.505 9.868 7.505 16.094v29.408zm-210.024-169.33c0-3.136 2.552-5.688 5.688-5.688s5.688 2.552 5.688 5.688c0 4.143 3.357 7.5 7.5 7.5s7.5-3.357 7.5-7.5c0-11.407-9.28-20.687-20.688-20.687-11.407 0-20.688 9.28-20.688 20.687 0 4.143 3.357 7.5 7.5 7.5s7.5-3.358 7.5-7.5zm-58.714 15.218c8.453 0 16.492-3.661 22.054-10.044 2.721-3.123 2.396-7.86-.727-10.582-3.123-2.721-7.861-2.396-10.582.727-2.713 3.114-6.63 4.899-10.746 4.899s-8.033-1.785-10.746-4.899c-2.722-3.122-7.459-3.448-10.581-.727-3.123 2.722-3.448 7.459-.727 10.582 5.562 6.383 13.601 10.044 22.055 10.044z"/></svg>