<svg id="Capa_1" enable-background="new 0 0 511.561 511.561" height="512" viewBox="0 0 511.561 511.561" width="512" xmlns="http://www.w3.org/2000/svg"><path d="m258.371 475.971c42.503 0 232.217-95.984 232.217-241.048 0-76.795-62.255-139.049-139.049-139.049-35.841 0-68.511 13.563-93.167 35.833-24.656-22.269-57.326-35.833-93.167-35.833-76.795 0-139.049 62.254-139.049 139.049-.002 145.065 189.712 241.048 232.215 241.048z" fill="#e8899e"/><path d="m182.866 96.994c-5.785-.734-11.678-1.12-17.662-1.12-76.795 0-139.049 62.254-139.049 139.049 0 145.064 189.714 241.048 232.217 241.048 8.742 0 23.715-4.064 41.981-11.777-104.69-41.486-171.26-225.092-117.487-367.2z" fill="#de5c6e"/><path d="m203.753 263.532c.007 14.046-14.286 25.44-31.924 25.449s-31.943-11.371-31.95-25.417 14.286-25.44 31.924-25.449 31.943 11.371 31.95 25.417z" fill="#fff"/><path d="m312.988 263.478c.007 14.046 14.312 25.426 31.95 25.417s31.931-11.403 31.924-25.449c-.007-14.047-14.311-25.426-31.95-25.417-17.638.008-31.931 11.402-31.924 25.449z" fill="#fff"/><path d="m289.67 251.991c-.01-19.348-14.027-21.158-31.316-21.15-17.29.009-31.305 1.834-31.295 21.181s14.034 35.024 31.323 35.015c17.29-.008 31.298-15.699 31.288-35.046z" fill="#4e5660"/><path d="m379.957 309.893 46.497-8.199v120.253l-46.497 8.199z" fill="#4e5660"/><path d="m497.132 230.232-81.369 14.348c-20.708 3.651-35.805 21.644-35.805 42.671v22.642l83.808-14.778c23.432-4.132 40.515-24.491 40.515-48.284v-10.601c-.001-3.787-3.42-6.656-7.149-5.998z" fill="#f7ef87"/><path d="m415.762 244.579c-20.708 3.651-35.805 21.644-35.805 42.671v22.642l73.194-12.906c-12.508-10.223-15.168-40.954-12.775-56.748z" fill="#efd176"/><ellipse cx="351.431" cy="435.176" fill="#f7ef87" rx="77.19" ry="51.397" transform="matrix(.949 -.315 .315 .949 -119.293 133.015)"/><path d="m340.642 384.749c-36.321 10.093-64.235 37.033-64.235 63.656 0 29.205 33.589 46.959 75.024 39.653 8.733-1.54 17.111-4.08 24.906-7.388-43.1-18.009-44.461-73.772-35.695-95.921z" fill="#efd176"/><path d="m379.957 309.893 46.497-8.199v32.358l-46.497 8.198z" fill="#383c43"/><path d="m390.344 150.378c14.368 0 78.5-32.447 78.5-81.485 0-25.96-21.045-47.005-47.005-47.005-12.116 0-23.16 4.585-31.495 12.113-8.335-7.528-19.379-12.113-31.495-12.113-25.96 0-47.005 21.045-47.005 47.005-.001 49.038 64.132 81.485 78.5 81.485z" fill="#de5c6e"/><path d="m409.014 142.659 10.164 3.752c9.354 3.453 16.729 10.828 20.182 20.182l3.752 10.164c3.443 9.325 16.632 9.325 20.075 0l3.752-10.164c3.453-9.355 10.828-16.729 20.182-20.182l10.164-3.752c9.325-3.443 9.325-16.632 0-20.075l-10.164-3.752c-9.354-3.453-16.729-10.828-20.182-20.182l-3.752-10.164c-3.443-9.325-16.632-9.325-20.075 0l-3.752 10.164c-3.453 9.354-10.828 16.729-20.182 20.182l-10.164 3.752c-9.325 3.442-9.325 16.632 0 20.075z" fill="#f7ef87"/><path d="m436.621 104.346c-3.963 6.622-10.086 11.77-17.443 14.486l-10.164 3.752c-9.325 3.443-9.325 16.632 0 20.075l10.164 3.752c9.354 3.453 16.729 10.828 20.183 20.183l3.752 10.164c3.443 9.325 16.632 9.325 20.075 0l3.752-10.164c1.229-3.329 2.963-6.401 5.098-9.142-18.755-8.596-31.363-33.008-35.417-53.106z" fill="#efd176"/><path d="m107.888 428.681 10.164 3.752c9.354 3.453 16.729 10.828 20.183 20.182l3.752 10.164c3.443 9.325 16.632 9.325 20.075 0l3.752-10.164c3.453-9.354 10.828-16.729 20.182-20.182l10.164-3.752c9.325-3.443 9.325-16.632 0-20.075l-10.164-3.752c-9.354-3.453-16.729-10.828-20.182-20.182l-3.752-10.164c-3.443-9.325-16.632-9.325-20.075 0l-3.752 10.164c-3.454 9.355-10.828 16.729-20.183 20.182l-10.164 3.752c-9.325 3.443-9.325 16.632 0 20.075z" fill="#f7ef87"/><path d="m135.495 390.368c-3.963 6.622-10.086 11.77-17.442 14.486l-10.164 3.752c-9.325 3.443-9.325 16.632 0 20.075l10.164 3.752c9.354 3.453 16.729 10.828 20.183 20.182l3.752 10.164c3.443 9.325 16.632 9.325 20.075 0l3.752-10.164c1.229-3.329 2.963-6.401 5.098-9.142-18.755-8.595-31.364-33.007-35.418-53.105z" fill="#efd176"/><path d="m17.18 150.199 14.387 5.311c13.241 4.888 23.679 15.327 28.567 28.567l5.311 14.387c4.873 13.199 23.542 13.199 28.415 0l5.311-14.387c4.888-13.241 15.326-23.679 28.567-28.567l14.387-5.311c13.199-4.873 13.199-23.542 0-28.415l-14.387-5.311c-13.241-4.888-23.679-15.326-28.567-28.567l-5.311-14.387c-4.873-13.2-23.542-13.2-28.415 0l-5.311 14.386c-4.888 13.241-15.327 23.679-28.567 28.567l-14.387 5.311c-13.2 4.874-13.2 23.543 0 28.416z" fill="#f7ef87"/><path d="m56.256 95.969c-5.61 9.373-14.276 16.66-24.689 20.504l-14.387 5.311c-13.2 4.873-13.2 23.542 0 28.415l14.387 5.311c13.241 4.888 23.679 15.326 28.567 28.567l5.311 14.387c4.873 13.199 23.542 13.199 28.415 0l5.311-14.387c1.74-4.713 4.194-9.061 7.216-12.94-26.546-12.166-44.393-46.721-50.131-75.168z" fill="#efd176"/><path d="m327.044 241.654c4.015 0 7.272-3.251 7.28-7.267l.023-12.543c.008-4.021-3.246-7.286-7.267-7.294h-.014c-4.015 0-7.273 3.251-7.28 7.267l-.023 12.543c-.008 4.021 3.246 7.286 7.267 7.294zm-146.026-1.213c4.014 0 7.271-3.249 7.28-7.265.004-1.981.78-3.843 2.185-5.241 1.4-1.394 3.259-2.161 5.234-2.161h.017c1.982.004 3.843.78 5.241 2.184s2.166 3.269 2.161 5.25c-.009 4.02 3.243 7.288 7.264 7.297h.017c4.013 0 7.271-3.249 7.28-7.264.014-5.871-2.261-11.396-6.403-15.557-4.143-4.16-9.657-6.459-15.528-6.472h-.049c-5.853 0-11.358 2.273-15.507 6.403-4.16 4.143-6.459 9.657-6.472 15.528-.009 4.02 3.244 7.287 7.265 7.296h.015zm325.765-14.455c-2.649-2.223-6.015-3.314-9.425-3.1-1.779-21.642-8.341-42.64-19.241-61.4 2.998-3.691 6.957-6.559 11.526-8.245l10.164-3.753c7.14-2.636 11.753-9.257 11.753-16.867 0-7.609-4.613-14.23-11.753-16.867l-10.164-3.752c-7.368-2.72-13.153-8.505-15.874-15.874l-1.733-4.694c2.708-7.409 4.087-14.978 4.087-22.541 0-3.887-.414-7.771-1.232-11.542-.852-3.93-4.728-6.418-8.657-5.573-3.93.852-6.425 4.727-5.573 8.657.599 2.76.901 5.605.901 8.458 0 2.365-.182 4.737-.532 7.108-2.392-1.155-5.068-1.789-7.881-1.789-7.61 0-14.231 4.613-16.866 11.753l-3.754 10.164c-2.72 7.368-8.506 13.154-15.874 15.874l-10.164 3.753c-7.14 2.636-11.753 9.257-11.753 16.866 0 3.204.826 6.228 2.306 8.857-3.305 1.139-5.622 1.619-6.701 1.619-4.922 0-23.03-7.13-40.095-20.761-11.177-8.928-18.514-17.725-23.241-25.889-.184-.416-.406-.807-.659-1.173-5.614-10.155-7.225-19.281-7.225-26.382 0-21.904 17.82-39.725 39.725-39.725 9.855 0 19.308 3.635 26.615 10.235 2.772 2.504 6.988 2.504 9.76 0 7.308-6.601 16.76-10.235 26.614-10.235 8.073 0 15.842 2.405 22.464 6.955 3.314 2.278 7.847 1.435 10.123-1.877 2.277-3.314 1.437-7.847-1.877-10.123-9.061-6.226-19.68-9.516-30.71-9.516-11.366 0-22.341 3.539-31.494 10.067-9.153-6.528-20.128-10.067-31.495-10.067-29.933 0-54.285 24.353-54.285 54.285 0 9.176 1.959 17.781 5.289 25.749-18.764 5.578-36.328 14.931-51.482 27.446-26.186-21.644-59.022-33.493-93.168-33.493-17.842 0-35.216 3.174-51.728 9.424-3.191-3.686-5.744-7.946-7.475-12.634l-5.311-14.387c-3.288-8.905-11.545-14.659-21.037-14.659s-17.75 5.754-21.038 14.659l-5.312 14.387c-4.156 11.26-12.998 20.102-24.259 24.258l-14.387 5.312c-8.901 3.288-14.655 11.546-14.655 21.038 0 9.491 5.754 17.749 14.658 21.037l14.387 5.311c2.524.931 4.917 2.11 7.172 3.486-11.354 21.169-17.344 44.911-17.344 69.097 0 42.144 15.236 83.41 45.286 122.654 1.434 1.872 3.597 2.855 5.785 2.855 1.544 0 3.101-.489 4.421-1.5 3.192-2.444 3.799-7.014 1.354-10.206-28.059-36.645-42.286-74.934-42.286-113.803 0-20.578 4.808-40.798 13.957-59.039 2.465 3.223 4.475 6.819 5.913 10.714l5.312 14.386c3.288 8.905 11.546 14.659 21.038 14.659s17.749-5.754 21.037-14.659l5.311-14.386c4.157-11.261 12.999-20.103 24.259-24.259l14.387-5.311c8.904-3.288 14.658-11.546 14.658-21.037 0-9.492-5.754-17.75-14.658-21.038l-14.387-5.312c-.875-.323-1.729-.684-2.574-1.062 12.113-3.599 24.679-5.425 37.517-5.425 32.689 0 64.044 12.059 88.287 33.955 1.386 1.251 3.133 1.877 4.88 1.877s3.494-.626 4.88-1.878c15.343-13.858 33.793-23.923 53.625-29.324 20.559 31.355 60.869 49.873 73.468 49.873 6.363 0 15.486-3.755 21.049-6.36l5.264 1.943c7.368 2.72 13.154 8.506 15.875 15.874l3.752 10.164c2.636 7.14 9.257 11.753 16.867 11.753s14.232-4.613 16.866-11.753l.423-1.146c7.062 14.778 11.314 30.795 12.503 47.208l-68.446 12.069c-24.232 4.273-41.82 25.234-41.82 49.841v86.2c-7.257-.223-14.824.319-22.51 1.674-21.339 3.763-41.439 13.191-56.6 26.55-15.762 13.889-24.441 30.484-24.441 46.73 0 6.342 1.312 12.318 3.846 17.797-7.798 2.108-12.341 2.49-14.602 2.49-12.036 0-40.291-9.586-73.106-27.965 1.046-.553 2.129-1.048 3.254-1.464l10.164-3.752c7.14-2.636 11.753-9.257 11.753-16.867s-4.613-14.231-11.753-16.866l-10.164-3.754c-7.369-2.72-13.154-8.505-15.874-15.873l-3.753-10.164c-2.636-7.14-9.257-11.753-16.868-11.753-7.61.001-14.23 4.614-16.866 11.753l-3.751 10.164c-2.072 5.611-5.925 10.3-10.898 13.421-7.553-6.492-14.738-13.202-21.4-19.994-2.815-2.872-7.425-2.914-10.295-.1-2.871 2.815-2.915 7.425-.1 10.295 5.294 5.398 10.903 10.74 16.75 15.968l-.096.036c-7.14 2.636-11.753 9.257-11.753 16.867s4.613 14.232 11.753 16.866l10.164 3.754c7.367 2.72 13.153 8.505 15.874 15.874l3.752 10.164c2.636 7.139 9.256 11.752 16.866 11.753h.001c7.61 0 14.232-4.613 16.868-11.753l3.752-10.164c.491-1.331 1.085-2.607 1.768-3.826 33.537 19.242 66.726 31.94 83.958 31.94 5.998 0 13.885-1.504 23.484-4.469 1.019 1.018 2.086 2.01 3.223 2.964 11.804 9.905 29.063 15.207 48.268 15.207 6.282 0 12.774-.567 19.349-1.727 21.339-3.763 41.439-13.191 56.6-26.551 15.761-13.888 24.44-30.483 24.44-46.729v-42.181c25.848-27.715 44.131-57.025 54.393-87.199 14.333-10.296 23.433-27.07 23.433-45.734v-10.602c.002-3.963-1.74-7.696-4.776-10.244zm-367.179-97.372c4.77 1.761 5.141 6.092 5.141 7.378 0 1.285-.371 5.616-5.141 7.377l-14.387 5.311c-15.259 5.633-27.241 17.616-32.876 32.876l-5.311 14.386c-1.761 4.771-6.092 5.142-7.377 5.142-1.286 0-5.617-.371-7.378-5.142l-5.312-14.386c-5.633-15.26-17.616-27.243-32.876-32.876l-14.387-5.311c-4.77-1.761-5.141-6.092-5.141-7.377 0-1.286.371-5.617 5.141-7.378l14.387-5.312c15.26-5.633 27.242-17.615 32.876-32.875l5.312-14.387c1.761-4.771 6.092-5.142 7.378-5.142 1.285 0 5.616.371 7.377 5.142l5.311 14.387c5.635 15.26 17.617 27.242 32.876 32.875zm320.507 35.458-3.754 10.164c-.744 2.018-2.491 2.235-3.207 2.235-.717 0-2.463-.218-3.208-2.235l-3.752-10.164c-4.196-11.368-13.123-20.295-24.491-24.491l-10.164-3.751c-2.018-.745-2.235-2.492-2.235-3.209 0-.716.218-2.463 2.235-3.207l10.164-3.752c11.368-4.196 20.295-13.123 24.49-24.491l3.754-10.164c.744-2.018 2.49-2.235 3.207-2.235.716 0 2.463.218 3.208 2.235l3.752 10.164c4.197 11.368 13.123 20.295 24.49 24.491l10.164 3.751c2.018.745 2.235 2.492 2.235 3.208 0 .717-.218 2.464-2.235 3.208l-10.164 3.752c-11.367 4.196-20.292 13.123-24.489 24.491zm-301.127 286.022-3.751 10.164c-.745 2.018-2.492 2.235-3.209 2.235s-2.463-.218-3.207-2.235l-3.753-10.164c-4.197-11.368-13.124-20.295-24.49-24.49l-10.164-3.753c0-.001 0-.001 0-.001-2.018-.744-2.235-2.49-2.235-3.207s.218-2.463 2.235-3.208l10.164-3.752c11.366-4.196 20.293-13.122 24.491-24.49l3.752-10.164c.744-2.018 2.49-2.235 3.207-2.235s2.464.218 3.208 2.235l3.752 10.164c4.196 11.367 13.123 20.293 24.491 24.489l10.164 3.754c2.018.744 2.235 2.49 2.235 3.207s-.218 2.463-2.235 3.208l-10.164 3.752c-11.368 4.196-20.294 13.123-24.491 24.491zm240.683 7.658c-13.181 11.614-30.76 19.831-49.501 23.135-22.481 3.969-43.32.118-55.73-10.294-7.032-5.901-10.749-13.573-10.749-22.189 0-12.005 6.928-24.721 19.507-35.806 13.181-11.614 30.761-19.831 49.501-23.135 5.828-1.028 11.542-1.53 17.03-1.53 3.204 0 6.325.181 9.35.52.067.008.134.018.202.024 11.699 1.341 21.876 5.178 29.148 11.281 7.032 5.9 10.749 13.573 10.749 22.188 0 12.006-6.928 24.721-19.507 35.806zm19.507-67.922c-.457-.412-.912-.825-1.39-1.225-8.026-6.734-18.579-11.335-30.547-13.595v-59.008l31.937-5.631zm14.56-32.037v-49.99l31.295-5.518c1.398-.247 2.77-.555 4.126-.899-8.273 19.244-20.131 38.12-35.421 56.407zm63.266-110.961c0 14.423-7.33 27.322-18.742 34.849-.155.094-.305.196-.454.302-4.54 2.909-9.707 4.977-15.304 5.964l-75.263 13.272v-13.969c0-17.527 12.528-32.458 29.789-35.501l79.974-14.101zm-238.634 47.486h.019c10.464-.005 20.251-4.516 27.56-12.703 7.103-7.956 11.012-18.478 11.006-29.627-.006-11.718-4.436-19.901-13.169-24.324-6.71-3.398-14.975-4.101-25.315-4.101h-.116c-10.393.005-18.695.708-25.428 4.127-8.728 4.432-13.15 12.62-13.145 24.338.006 11.148 3.925 21.667 11.036 29.615 7.313 8.174 17.097 12.675 27.552 12.675zm-18.851-53.647c4.401-2.234 11.657-2.546 18.843-2.549h.126c7.145 0 14.342.314 18.719 2.53 2.563 1.298 5.184 3.661 5.188 11.343.004 7.565-2.591 14.641-7.308 19.923-4.51 5.052-10.442 7.836-16.704 7.839h-.011c-6.257 0-12.187-2.778-16.701-7.822-4.721-5.278-7.323-12.351-7.327-19.916-.005-7.682 2.613-10.047 5.175-11.348z"/></svg>