<svg id="Capa_1" enable-background="new 0 0 511.561 511.561" height="512" viewBox="0 0 511.561 511.561" width="512" xmlns="http://www.w3.org/2000/svg"><path d="m490.187 238.182-252.005 252.005c-18.791 18.792-49.259 18.792-68.05 0l-148.758-148.758c-18.792-18.792-18.792-49.259 0-68.05l252.005-252.005c18.792-18.792 49.259-18.792 68.05 0l148.758 148.758c18.791 18.791 18.791 49.258 0 68.05z" fill="#8eafe2"/><path d="m227.531 67.221-206.157 206.158c-18.792 18.792-18.792 49.259 0 68.05l148.758 148.758c18.791 18.791 49.258 18.791 68.05 0l63.388-63.388c-53.29-59.629-82-219.288-74.039-359.578z" fill="#6a96d7"/><path d="m191.659 447.87c-1.919 0-3.839-.732-5.304-2.196-2.929-2.93-2.929-7.678 0-10.607l24.599-24.599c2.93-2.928 7.678-2.928 10.607 0 2.929 2.93 2.929 7.678 0 10.607l-24.599 24.599c-1.464 1.464-3.384 2.196-5.303 2.196z" fill="#f7ef87"/><path d="m415.772 223.758c-1.919 0-3.839-.732-5.304-2.196-2.929-2.93-2.929-7.678 0-10.607l24.599-24.599c2.93-2.928 7.678-2.928 10.607 0 2.929 2.93 2.929 7.678 0 10.607l-24.599 24.599c-1.465 1.463-3.385 2.196-5.303 2.196z" fill="#f7ef87"/><path d="m445.142 283.226-161.916 161.916-25.705-53.646c-6.58-13.733-3.779-30.122 6.989-40.89l86.097-86.097c10.767-10.767 27.157-13.569 40.89-6.989z" fill="#a3defe"/><path d="m326.24 288.877-61.73 61.73c-10.768 10.768-13.569 27.157-6.989 40.89l25.704 53.646 66.165-66.165c-15.12-18.086-26.999-58.823-23.15-90.101z" fill="#7acefa"/><path d="m382.395 174.511-207.884 207.884c-10.31 10.31-27.027 10.31-37.337 0l-64.634-64.633c-10.31-10.31-10.31-27.027 0-37.337l207.884-207.885c10.31-10.31 27.027-10.31 37.337 0l64.633 64.633c10.311 10.311 10.311 27.027.001 37.338z" fill="#fff"/><path d="m248.533 308.373c-13.57-54.197-21.329-118.222-22.224-181.717l-153.769 153.768c-10.311 10.31-10.311 27.027 0 37.337l64.633 64.633c10.31 10.31 27.027 10.31 37.337 0z" fill="#fcf2d0"/><path d="m114.458 359.679 22.716 22.716c10.311 10.311 27.027 10.31 37.337 0l207.884-207.884c10.31-10.31 10.31-27.027 0-37.337l-22.716-22.716z" fill="#a3defe"/><path d="m248.533 308.373c-5.444-21.745-9.955-45.068-13.46-69.309l-120.615 120.615 22.716 22.716c10.311 10.311 27.027 10.31 37.337 0z" fill="#7acefa"/><path d="m156.276 196.366h142.382v62.202h-142.382z" fill="#f7ef87" transform="matrix(.707 -.707 .707 .707 -94.22 227.468)"/><path d="m238.47 260.448c-4.353-25.119-7.597-51.491-9.648-78.319l-73.686 73.686 43.984 43.984z" fill="#efd176"/><circle cx="177.128" cy="277.807" fill="#4e5660" r="31.101"/><circle cx="277.807" cy="177.128" fill="#4e5660" r="31.101"/><path d="m495.334 164.984-117.207-117.208c-2.842-2.844-7.453-2.843-10.295-.001-2.844 2.844-2.844 7.453 0 10.296l117.207 117.209c7.713 7.713 11.961 17.968 11.961 28.876s-4.248 21.164-11.961 28.878l-41.399 41.399-48.998-23.477c-16.488-7.902-36.254-4.523-49.185 8.406l-86.096 86.098c-12.93 12.929-16.308 32.693-8.406 49.183l23.477 48.998-41.399 41.399c-7.713 7.712-17.969 11.96-28.877 11.96s-21.163-4.248-28.877-11.961l-14.948-14.948c-2.842-2.844-7.453-2.844-10.295 0-2.844 2.843-2.844 7.452 0 10.295l14.947 14.948c10.464 10.464 24.375 16.227 39.173 16.227s28.71-5.763 39.174-16.227l252.004-252.005c10.464-10.463 16.227-24.375 16.227-39.173s-5.763-28.709-16.227-39.172zm-209.986 267.741-21.261-44.373c-5.236-10.929-2.998-24.027 5.57-32.597l86.097-86.098c8.57-8.568 21.67-10.805 32.598-5.57l44.373 21.261zm-258.827-96.445c-7.713-7.713-11.961-17.968-11.961-28.876s4.248-21.164 11.961-28.878l252.005-252.005c7.714-7.713 17.97-11.961 28.878-11.961s21.163 4.248 28.877 11.961l6.555 6.555c2.842 2.844 7.453 2.844 10.295 0 2.844-2.843 2.844-7.452 0-10.295l-6.554-6.555c-10.464-10.463-24.375-16.226-39.173-16.226s-28.71 5.763-39.173 16.227l-252.005 252.003c-10.463 10.464-16.226 24.377-16.226 39.174 0 14.798 5.763 28.709 16.226 39.172l108.699 108.698c1.421 1.422 3.284 2.133 5.147 2.133s3.727-.711 5.148-2.133c2.844-2.843 2.844-7.452 0-10.295zm346.814-51.297-8.047 8.047c-2.337 2.337-2.337 6.127 0 8.464l8.047 8.047c2.337 2.337 6.127 2.337 8.464 0l8.047-8.047c2.337-2.337 2.337-6.127 0-8.464l-8.047-8.047c-2.338-2.337-6.127-2.337-8.464 0zm-71.841 80.305c-2.337-2.337-6.127-2.337-8.464 0l-8.047 8.047c-2.337 2.337-2.337 6.127 0 8.464l8.047 8.046c2.337 2.337 6.127 2.337 8.464 0l8.047-8.046c2.337-2.337 2.337-6.127 0-8.464zm-2.401-307.761c-8.997 0-17.455 3.503-23.816 9.865l-207.884 207.884c-6.362 6.361-9.865 14.819-9.865 23.816s3.503 17.455 9.865 23.816l64.633 64.633c6.361 6.362 14.819 9.865 23.816 9.865s17.455-3.503 23.816-9.865l207.884-207.884c6.362-6.361 9.865-14.819 9.865-23.816s-3.503-17.455-9.865-23.815l-64.633-64.634c-6.361-6.362-14.819-9.865-23.816-9.865zm78.154 84.795c3.611 3.61 5.601 8.412 5.601 13.52 0 5.107-1.989 9.909-5.601 13.521l-207.884 207.884c-3.612 3.611-8.414 5.601-13.521 5.601s-9.909-1.989-13.52-5.601l-17.569-17.568 44.337-44.337c2.614.554 5.302.847 8.037.847 10.253 0 19.891-3.992 27.14-11.241.007-.007.013-.014.02-.021l100.64-100.64c.007-.007.014-.013.02-.02 7.25-7.25 11.242-16.888 11.242-27.141 0-2.735-.293-5.423-.847-8.037l44.337-44.337zm-103.871 72.925-58.129 58.129c-.98-8.575-4.786-16.514-10.981-22.708-6.361-6.361-14.418-10.007-22.728-10.96l58.168-58.168c.954 8.31 4.6 16.367 10.96 22.728 6.196 6.193 14.136 9.999 22.71 10.979zm-12.413-54.964c4.645-4.644 10.744-6.965 16.844-6.965 6.101 0 12.2 2.321 16.845 6.966 2.525 2.525 4.413 5.516 5.584 8.78.007.022.016.043.023.065.901 2.533 1.371 5.229 1.371 7.998 0 6.363-2.479 12.345-6.979 16.845-4.499 4.499-10.48 6.978-16.844 6.978-6.362 0-12.344-2.479-16.843-6.978 0 0 0 0-.001 0-9.287-9.288-9.287-24.401 0-33.689zm-66.991 100.68v.001c4.499 4.499 6.978 10.48 6.978 16.843s-2.479 12.345-6.979 16.845c-4.499 4.499-10.48 6.978-16.844 6.978-2.766 0-5.46-.47-7.992-1.369-.025-.008-.049-.018-.074-.026-3.263-1.171-6.254-3.059-8.778-5.582-9.287-9.288-9.287-24.4 0-33.689 4.645-4.643 10.744-6.965 16.845-6.965 6.1-.001 12.199 2.32 16.844 6.964zm115.059-106.153c-1.219-1.698-2.577-3.314-4.085-4.822-14.965-14.965-39.313-14.963-54.278 0l-100.68 100.68c-14.965 14.965-14.965 39.314-.001 54.278 1.508 1.508 3.124 2.866 4.823 4.086l-40.352 40.352-36.77-36.77c-7.455-7.456-7.455-19.587 0-27.043l207.883-207.883c3.729-3.728 8.624-5.591 13.522-5.591 4.896 0 9.794 1.864 13.521 5.591l36.77 36.771zm-12.828-24.173c1.421 1.421 3.284 2.132 5.147 2.132s3.727-.711 5.149-2.133l16.579-16.58c2.843-2.843 2.843-7.452-.001-10.296-2.842-2.842-7.452-2.843-10.296.001l-16.579 16.58c-2.843 2.843-2.843 7.452.001 10.296zm-175.862 165.565-16.58 16.579c-2.844 2.844-2.844 7.453-.001 10.296 1.422 1.422 3.285 2.133 5.148 2.133s3.727-.711 5.147-2.132l16.58-16.579c2.844-2.844 2.844-7.453.001-10.296-2.843-2.844-7.453-2.843-10.295-.001z"/></svg>