<svg id="Capa_1" enable-background="new 0 0 512 512" height="512" viewBox="0 0 512 512" width="512" xmlns="http://www.w3.org/2000/svg"><path d="m51.912 275.367h408.175v207.688h-408.175z" fill="#8eafe2"/><g fill="#6a96d7"><path d="m169.585 275.367h-117.673v207.688h168.166c-29.793-42.517-50.493-156.545-50.493-207.688z"/><path d="m212.286 311.624h-13.867c-4.142 0-7.5-3.357-7.5-7.5s3.358-7.5 7.5-7.5h13.867c4.142 0 7.5 3.357 7.5 7.5s-3.358 7.5-7.5 7.5z"/><path d="m331.224 328.595h-13.868c-4.142 0-7.5-3.357-7.5-7.5s3.358-7.5 7.5-7.5h13.868c4.142 0 7.5 3.357 7.5 7.5s-3.358 7.5-7.5 7.5z"/></g><path d="m103.259 444.651h-13.868c-4.142 0-7.5-3.357-7.5-7.5s3.358-7.5 7.5-7.5h13.868c4.142 0 7.5 3.357 7.5 7.5s-3.358 7.5-7.5 7.5z" fill="#8eafe2"/><path d="m422.609 428.75h-13.868c-4.142 0-7.5-3.357-7.5-7.5s3.358-7.5 7.5-7.5h13.868c4.142 0 7.5 3.357 7.5 7.5s-3.358 7.5-7.5 7.5z" fill="#6a96d7"/><path d="m129.861 391.685h-77.949v-76.168h77.948c9.865 0 17.861 7.997 17.861 17.862v40.445c.001 9.864-7.996 17.861-17.86 17.861z" fill="#a3defe"/><path d="m51.912 378.108 62.592-62.591h-62.592z" fill="#7acefa"/><path d="m430.349 191.15h-348.699c-16.424 0-29.738 13.314-29.738 29.738v54.479h408.175v-54.479c0-16.424-13.314-29.738-29.738-29.738z" fill="#e8899e"/><path d="m169.585 191.15h-87.935c-16.424 0-29.738 13.314-29.738 29.738v54.479h117.672v-84.217z" fill="#de5c6e"/><path d="m169.585 115.36h172.831v160.008h-172.831z" fill="#f7ef87"/><path d="m342.415 115.36h-172.83v68.94c20.257 25.358 51.436 41.609 86.415 41.609s66.159-16.25 86.415-41.609z" fill="#efd176"/><ellipse cx="256" cy="115.36" fill="#8eafe2" rx="86.415" ry="86.415" transform="matrix(.707 -.707 .707 .707 -6.591 214.807)"/><ellipse cx="256" cy="115.36" fill="#f7ef87" rx="61.357" ry="61.357" transform="matrix(.973 -.23 .23 .973 -19.656 61.903)"/><path d="m304.915 348.687h-97.829c-10.009 0-18.122 8.114-18.122 18.122v116.246h134.074v-116.246c-.001-10.008-8.115-18.122-18.123-18.122z" fill="#a3defe"/><path d="m188.963 404.52v78.535h31.115c-12.144-17.331-22.778-46.54-31.115-78.535z" fill="#7acefa"/><path d="m155.743 415.871h-16.042c-3.712 0-6.721 3.009-6.721 6.721v60.463h29.484v-60.463c0-3.711-3.009-6.721-6.721-6.721z" fill="#4e5660"/><path d="m382.139 391.685h77.948v-76.168h-77.948c-9.865 0-17.862 7.997-17.862 17.862v40.445c.001 9.864 7.998 17.861 17.862 17.861z" fill="#a3defe"/><path d="m382.139 391.685h77.948v-76.168h-4.392l-75.984 75.984c.796.108 1.603.184 2.428.184z" fill="#7acefa"/><path d="m356.257 415.871h16.042c3.712 0 6.721 3.009 6.721 6.721v60.463h-29.484v-60.463c0-3.711 3.009-6.721 6.721-6.721z" fill="#4e5660"/><path d="m102.96 191.15h14.561v84.217h-14.561z" fill="#e8899e"/><path d="m394.479 191.15h14.561v84.217h-14.561z" fill="#de5c6e"/><path d="m96.325 438.643c0-24.528-19.884-85.042-44.412-85.042s-44.413 60.514-44.413 85.042 19.884 44.413 44.412 44.413 44.413-19.884 44.413-44.413z" fill="#89d47f"/><path d="m415.675 438.643c0-24.528 19.884-85.042 44.413-85.042 24.528 0 44.413 60.514 44.413 85.042s-19.884 44.413-44.413 44.413-44.413-19.884-44.413-44.413z" fill="#89d47f"/><path d="m502.31 393.7c-1.431-3.887-5.743-5.877-9.629-4.446-3.887 1.432-5.878 5.742-4.447 9.63 5.325 14.461 8.766 30.068 8.766 39.76 0 20.354-16.559 36.912-36.913 36.912s-36.913-16.559-36.913-36.912c0-9.413 3.564-26.995 10.397-44.004.014-.034.027-.068.042-.102.617-1.534 1.259-3.064 1.93-4.582 7.862-17.798 17.267-28.854 24.544-28.854 4.796 0 9.64 4.743 12.86 8.723 2.605 3.219 7.328 3.719 10.548 1.112 3.22-2.604 3.718-7.327 1.113-10.548-5.412-6.689-11.113-11.039-17.021-13.029v-126.472c0-20.533-16.705-37.238-37.238-37.238h-80.434v-68.29c0-51.785-42.13-93.915-93.915-93.915s-93.915 42.13-93.915 93.915v68.29h-80.435c-13.947 0-26.612 7.691-33.053 20.073-1.911 3.675-.482 8.203 3.193 10.114 1.106.576 2.289.849 3.455.849 2.709-.001 5.324-1.473 6.66-4.041 3.848-7.398 11.414-11.995 19.745-11.995h80.434v69.218h-102.671v-25.721c0-4.143-3.358-7.5-7.5-7.5s-7.5 3.357-7.5 7.5v105.211c-13.966 4.698-24.263 21.818-30.765 36.536-8.036 18.191-13.648 40.705-13.648 54.75 0 28.624 23.288 51.912 51.913 51.912h408.175c28.624 0 51.913-23.288 51.913-51.912-.001-11.491-3.714-28.711-9.691-44.944zm-49.723-46.343c-13.966 4.698-24.263 21.818-30.765 36.536-.043.096-.083.196-.125.292h-39.558c-5.713 0-10.361-4.648-10.361-10.362v-40.444c0-5.714 4.648-10.362 10.361-10.362h70.448zm-102.672-148.708h80.434c12.262 0 22.238 9.976 22.238 22.238v46.979h-102.672zm-93.915-162.205c43.514 0 78.915 35.401 78.915 78.915 0 43.515-35.401 78.916-78.915 78.916s-78.915-35.401-78.915-78.916c0-43.513 35.401-78.915 78.915-78.915zm-78.915 129.777c16.741 25.886 45.86 43.054 78.915 43.054s62.174-17.168 78.915-43.054v101.646h-157.83zm-117.672 156.796h70.448c5.713 0 10.362 4.648 10.362 10.362v40.444c0 5.714-4.648 10.362-10.362 10.362h-39.464c-7.649-17.305-18.252-32.401-30.985-36.792v-24.376zm-7.5 152.539c-20.354 0-36.913-16.559-36.913-36.912 0-10.281 4.249-30.307 12.369-48.688 7.862-17.798 17.267-28.854 24.544-28.854s16.682 11.056 24.544 28.854c.671 1.518 1.312 3.048 1.93 4.582.014.034.027.069.041.102 6.834 17.01 10.398 34.591 10.398 44.004-.001 20.353-16.56 36.912-36.913 36.912zm103.051 0h-14.484v-52.185h14.484zm93.536 0h-52.037v-108.746c0-5.858 4.765-10.623 10.622-10.623h41.415zm67.037 0h-52.037v-119.37h41.415c5.857 0 10.622 4.766 10.622 10.623zm55.983 0h-14.484v-52.185h14.484zm15 0v-52.963c0-7.842-6.379-14.222-14.221-14.222h-16.041c-7.842 0-14.222 6.38-14.222 14.222v52.963h-11.499v-108.746c0-14.129-11.494-25.623-25.622-25.623h-97.829c-14.128 0-25.622 11.494-25.622 25.623v108.746h-11.499v-52.963c0-7.842-6.38-14.222-14.222-14.222h-16.042c-7.842 0-14.221 6.38-14.221 14.222v52.963h-37.11c9.534-9.417 15.455-22.485 15.455-36.912 0-9.675-2.72-24.494-7.673-39.458h33.708c13.984 0 25.362-11.378 25.362-25.362v-40.444c0-13.984-11.378-25.362-25.362-25.362h-70.447v-25.149h393.175v25.149h-70.448c-13.984 0-25.361 11.378-25.361 25.362v40.444c0 13.984 11.377 25.362 25.361 25.362h33.821c-4.767 14.346-7.785 29.172-7.785 39.458 0 14.427 5.921 27.495 15.455 36.912zm-142.006-322.128c12.23-2.157 22.144-10.893 22.144-19.513v-35.494l11.012-1.942c6.916-1.22 11.958-7.229 11.958-14.252v-3.129c0-1.118-1.009-1.965-2.11-1.771l-24.017 4.235c-6.112 1.078-10.568 6.389-10.568 12.595v27.739c-2.596-.295-5.438-.212-8.42.314-12.23 2.157-22.144 10.893-22.144 19.513.001 8.621 9.916 13.861 22.145 11.705zm52.376 76.764h-81.78c-4.142 0-7.5 3.357-7.5 7.5s3.358 7.5 7.5 7.5h81.779c4.142 0 7.5-3.357 7.5-7.5.001-4.142-3.357-7.5-7.499-7.5zm-40.89-45.976c37.968 0 68.856-30.889 68.856-68.856 0-37.968-30.889-68.856-68.856-68.856s-68.856 30.889-68.856 68.856 30.888 68.856 68.856 68.856zm0-122.713c29.697 0 53.856 24.16 53.856 53.856s-24.16 53.856-53.856 53.856-53.856-24.16-53.856-53.856 24.159-53.856 53.856-53.856z"/></svg>