<svg id="Capa_1" enable-background="new 0 0 512 512" height="512" viewBox="0 0 512 512" width="512" xmlns="http://www.w3.org/2000/svg"><path d="m419.409 453.039h-326.818c-46.994 0-85.091-38.096-85.091-85.091v-223.897c0-46.994 38.096-85.091 85.091-85.091h326.819c46.994 0 85.091 38.096 85.091 85.091v223.898c-.001 46.994-38.097 85.09-85.092 85.09z" fill="#89d47f"/><path d="m279.99 58.96h-187.4c-46.994 0-85.09 38.097-85.09 85.091v223.898c0 46.994 38.096 85.091 85.091 85.091h187.4v-394.08z" fill="#a3defe"/><path d="m92.59 58.96c-46.994 0-85.09 38.097-85.09 85.09v223.898c0 46.994 38.096 85.09 85.09 85.09h152.116c-65.225-61.577-96.202-215.382-82.837-394.079h-69.279z" fill="#7acefa"/><circle cx="177.126" cy="256" fill="#4e5660" r="131.725"/><path d="m259.216 359.014c-106.507 4.521-135.452-168.059-99.476-233.596-64.532 8.51-114.339 63.727-114.339 130.582 0 72.75 58.975 131.725 131.725 131.725 31.044 0 59.574-10.745 82.09-28.711z" fill="#383c43"/><circle cx="177.126" cy="256" fill="#89d47f" r="34.134"/><path d="m148.552 237.335c-3.512 5.365-5.56 11.774-5.56 18.665 0 13.77 8.158 25.627 19.901 31.024-6.657-15.58-11.42-32.546-14.341-49.689z" fill="#5ec783"/><g fill="#f7ef87"><path d="m342.683 135.036h-14.339c-7.73 0-13.997-6.266-13.997-13.997v-14.339c0-7.73 6.267-13.997 13.997-13.997h14.339c7.73 0 13.997 6.266 13.997 13.997v14.339c-.001 7.731-6.267 13.997-13.997 13.997z"/><path d="m240.395 276.109-10.139-10.139c-5.466-5.466-5.466-14.328 0-19.794l10.139-10.139c5.466-5.466 14.328-5.466 19.794 0l10.139 10.139c5.466 5.466 5.466 14.328 0 19.794l-10.139 10.139c-5.465 5.466-14.328 5.466-19.794 0z"/><path d="m463.037 349.933h-28.18c-4.683 0-8.48 3.797-8.48 8.48v14.519c0 4.684 3.797 8.48 8.48 8.48h28.18c4.683 0 8.48-3.797 8.48-8.48v-14.519c0-4.683-3.797-8.48-8.48-8.48z"/></g><path d="m463.037 290.134h-28.18c-4.683 0-8.48 3.797-8.48 8.48v14.519c0 4.683 3.797 8.48 8.48 8.48h28.18c4.683 0 8.48-3.797 8.48-8.48v-14.519c0-4.683-3.797-8.48-8.48-8.48z" fill="#fff"/><path d="m463.037 230.336h-28.18c-4.683 0-8.48 3.797-8.48 8.48v14.519c0 4.683 3.797 8.48 8.48 8.48h28.18c4.683 0 8.48-3.797 8.48-8.48v-14.519c0-4.684-3.797-8.48-8.48-8.48z" fill="#f7ef87"/><ellipse cx="367.614" cy="329.143" fill="#e8899e" rx="21.96" ry="21.96" transform="matrix(.973 -.232 .232 .973 -66.315 94.236)"/><circle cx="448.947" cy="169.931" fill="#6a96d7" r="19.729"/><circle cx="387.342" cy="169.931" fill="#6a96d7" r="19.729"/><path d="m203.487 348.171c-3.197 0-6.16-2.06-7.159-5.274-1.23-3.955.979-8.159 4.934-9.389 12.144-3.777 23.402-10.499 32.557-19.438 2.963-2.894 7.712-2.838 10.606.127 2.894 2.963 2.837 7.712-.126 10.605-10.843 10.587-24.185 18.55-38.581 23.028-.743.231-1.493.341-2.231.341z" fill="#383c43"/><path d="m98.226 223.019c-1.154 0-2.326-.268-3.423-.832-3.684-1.893-5.134-6.416-3.24-10.1 7.973-15.506 20.024-28.575 34.851-37.796 3.519-2.189 8.142-1.107 10.33 2.408 2.187 3.518 1.109 8.143-2.409 10.33-12.522 7.787-22.7 18.824-29.432 31.917-1.33 2.586-3.956 4.073-6.677 4.073z" fill="#4e5660"/><path d="m497.225 93.854c-2.249-3.478-6.891-4.475-10.37-2.228-3.479 2.248-4.477 6.891-2.228 10.37 8.094 12.525 12.373 27.068 12.373 42.055v223.898c0 42.783-34.807 77.59-77.591 77.59h-131.919v-104.771c18.087-23.493 28.861-52.894 28.861-84.768 0-16.544-2.907-32.42-8.226-47.153l21.59-21.59c8.576-8.575 13.298-19.977 13.298-32.104v-12.634c11.7-.18 21.166-9.738 21.166-21.48v-14.338c0-11.854-9.644-21.497-21.497-21.497h-14.338c-11.853 0-21.497 9.644-21.497 21.497v14.338c0 11.742 9.466 21.301 21.167 21.48v12.634c0 8.12-3.163 15.755-8.905 21.496l-17.351 17.351c-4.028-8.064-8.815-15.684-14.268-22.768v-104.771h131.919c14.83 0 29.242 4.195 41.678 12.131 3.492 2.229 8.129 1.206 10.357-2.288 2.229-3.491 1.204-8.128-2.288-10.356-14.851-9.478-32.053-14.486-49.747-14.486h-326.818c-51.055-.001-92.591 41.534-92.591 92.589v223.898c0 40.228 25.682 75.616 63.906 88.06.771.251 1.554.37 2.323.37 3.16 0 6.099-2.013 7.13-5.181 1.282-3.938-.872-8.171-4.81-9.453-32.029-10.427-53.549-40.083-53.549-73.796v-223.898c0-42.783 34.807-77.59 77.591-77.59h179.899v88.202c-24.934-23.477-58.496-37.888-95.364-37.888-76.769-.001-139.226 62.455-139.226 139.225s62.457 139.226 139.226 139.226c36.869 0 70.431-14.411 95.364-37.888v88.202h-169.866c-4.142 0-7.5 3.357-7.5 7.5s3.358 7.5 7.5 7.5h316.785c51.055 0 92.591-41.535 92.591-92.59v-223.899c0-17.882-5.109-35.239-14.775-50.197zm-175.378 27.185v-14.338c0-3.582 2.914-6.497 6.497-6.497h14.338c3.582 0 6.497 2.915 6.497 6.497v14.338c0 3.582-2.915 6.497-6.497 6.497h-14.338c-3.582 0-6.497-2.915-6.497-6.497zm-144.721 259.187c-68.498 0-124.226-55.728-124.226-124.226s55.727-124.226 124.226-124.226c50.431 0 93.936 30.208 113.379 73.479l-25.258 25.258c-8.4-8.145-21.853-8.08-30.155.222l-10.14 10.14c-3.86 3.86-5.919 8.837-6.223 13.9-.653-22.391-19.058-40.408-41.603-40.408-22.958 0-41.635 18.678-41.635 41.635s18.677 41.635 41.635 41.635c22.514 0 40.899-17.967 41.601-40.313.293 5.081 2.353 10.079 6.226 13.953l10.139 10.139c4.191 4.19 9.695 6.286 15.2 6.285 5.504 0 11.01-2.096 15.201-6.285l10.139-10.139c4.061-4.061 6.296-9.459 6.296-15.201 0-5.63-2.161-10.922-6.074-14.955l20.388-20.388c3.318 11.186 5.108 23.022 5.108 35.27.001 68.497-55.726 124.225-124.224 124.225zm89.802-124.153c0 1.735-.676 3.367-1.903 4.594l-10.139 10.139c-2.533 2.533-6.655 2.533-9.188 0l-10.139-10.139c-2.533-2.532-2.533-6.654 0-9.187l10.139-10.139c1.267-1.267 2.93-1.9 4.594-1.9s3.328.634 4.594 1.9l5.067 5.067c.001.001.002.002.002.003.001.001.002.001.003.002l5.066 5.066c1.228 1.227 1.904 2.859 1.904 4.594zm-63.168-.073c0 14.686-11.948 26.635-26.634 26.635-14.687 0-26.635-11.948-26.635-26.635s11.948-26.635 26.635-26.635c14.686 0 26.634 11.949 26.634 26.635zm275.257 42.614c0-8.812-7.169-15.979-15.98-15.979h-28.181c-8.811 0-15.98 7.168-15.98 15.979v14.52c0 8.812 7.168 15.98 15.98 15.98h28.181c8.811 0 15.98-7.169 15.98-15.98zm-15 14.52c0 .541-.44.98-.98.98h-28.181c-.54 0-.98-.439-.98-.98v-14.52c0-.54.439-.979.98-.979h28.181c.54 0 .98.439.98.979zm-49.446-143.202c0-15.015-12.215-27.229-27.228-27.229s-27.228 12.215-27.228 27.229 12.215 27.229 27.228 27.229 27.228-12.216 27.228-27.229zm-27.229 12.228c-6.743 0-12.228-5.485-12.228-12.229 0-6.743 5.486-12.229 12.228-12.229s12.229 5.486 12.229 12.229c0 6.744-5.486 12.229-12.229 12.229zm61.605-39.458c-15.014 0-27.228 12.215-27.228 27.229s12.215 27.229 27.228 27.229c15.014 0 27.229-12.215 27.229-27.229-.001-15.014-12.216-27.229-27.229-27.229zm0 39.458c-6.743 0-12.228-5.485-12.228-12.229 0-6.743 5.486-12.229 12.228-12.229s12.229 5.486 12.229 12.229c-.001 6.744-5.487 12.229-12.229 12.229zm30.07 56.655c0-8.811-7.169-15.979-15.98-15.979h-28.181c-8.811 0-15.98 7.168-15.98 15.979v14.52c0 8.812 7.168 15.98 15.98 15.98h28.181c8.811 0 15.98-7.169 15.98-15.98zm-15 14.52c0 .541-.44.98-.98.98h-28.181c-.54 0-.98-.439-.98-.98v-14.52c0-.54.439-.979.98-.979h28.181c.54 0 .98.439.98.979zm-.98 89.099h-28.181c-8.811 0-15.98 7.168-15.98 15.979v14.52c0 8.812 7.168 15.98 15.98 15.98h28.181c8.811 0 15.98-7.169 15.98-15.98v-14.52c0-8.811-7.168-15.979-15.98-15.979zm.98 30.499c0 .541-.44.98-.98.98h-28.181c-.54 0-.98-.439-.98-.98v-14.52c0-.54.439-.979.98-.979h28.181c.54 0 .98.439.98.979zm-96.403 19.417c4.142 0 7.5-3.357 7.5-7.5v-27.217c12.623-3.326 21.96-14.836 21.96-28.489s-9.337-25.163-21.96-28.489v-73.756c0-4.143-3.358-7.5-7.5-7.5s-7.5 3.357-7.5 7.5v73.756c-12.623 3.326-21.96 14.836-21.96 28.489s9.337 25.163 21.96 28.489v27.217c0 4.142 3.358 7.5 7.5 7.5zm-14.46-63.206c0-7.974 6.487-14.46 14.46-14.46s14.46 6.486 14.46 14.46-6.487 14.46-14.46 14.46c-7.973-.001-14.46-6.487-14.46-14.46z"/></svg>