<svg id="Capa_1" enable-background="new 0 0 512 512" height="512" viewBox="0 0 512 512" width="512" xmlns="http://www.w3.org/2000/svg"><path d="m317.925 248.65c1.349-23.883 21.138-42.837 45.359-42.837 25.095 0 45.438 20.343 45.438 45.438 0 17.564-9.972 32.789-24.557 40.352.167 1.673.255 3.369.255 5.086 0 27.946-22.655 50.601-50.601 50.601s-50.601-22.655-50.601-50.601c0-22.391 14.55-41.373 34.707-48.039z" fill="#7acefa"/><path d="m64.275 48.783h30.875v77.93h-30.875z" fill="#8eafe2"/><path d="m416.85 48.783h30.875v77.93h-30.875z" fill="#8eafe2" transform="matrix(-1 0 0 -1 864.575 175.495)"/><path d="m209.874 84.774-33.506 33.506c-2.854 2.854-7.481 2.854-10.336 0l-21.117-21.117c-9.696-9.696-9.696-25.417 0-35.113l8.729-8.729c9.696-9.696 25.417-9.696 35.113 0l21.117 21.117c2.854 2.855 2.854 7.482 0 10.336z" fill="#efd176"/><path d="m302.126 84.774 33.506 33.506c2.854 2.854 7.482 2.854 10.336 0l21.117-21.117c9.696-9.696 9.696-25.417 0-35.113l-8.729-8.729c-9.696-9.696-25.417-9.696-35.113 0l-21.117 21.117c-2.854 2.855-2.854 7.482 0 10.336z" fill="#efd176"/><path d="m477.799 48.783h-443.598c-8.815 0-15.962-7.146-15.962-15.962v-9.359c0-8.815 7.146-15.962 15.962-15.962h443.598c8.815 0 15.962 7.146 15.962 15.962v9.359c0 8.815-7.146 15.962-15.962 15.962z" fill="#4e5660"/><path d="m231.581 7.5h-197.38c-8.815 0-15.962 7.146-15.962 15.962v9.359c0 8.815 7.146 15.962 15.962 15.962h204.444c-5.484-9.683-10.326-28.584-7.064-41.283z" fill="#383c43"/><path d="m252.258 272.883c-5.802 0-11.408.823-16.728 2.327-6.992-15.068-19.998-26.778-35.938-32.05-1.614-28.582-25.297-51.264-54.283-51.264-30.032 0-54.378 24.346-54.378 54.378 0 21.02 11.934 39.241 29.389 48.291-.2 2.002-.305 4.032-.305 6.087 0 33.444 27.112 60.556 60.556 60.556 5.401 0 10.633-.717 15.616-2.043 9.555 21.466 31.058 36.44 56.07 36.44 33.889 0 61.361-27.472 61.361-61.361.001-33.889-27.471-61.361-61.36-61.361z" fill="#a3defe"/><path d="m481.56 383.972h-451.12v82.364c0 21.078 17.087 38.164 38.164 38.164h374.791c21.078 0 38.164-17.087 38.164-38.164v-82.364z" fill="#8eafe2"/><path d="m236.978 383.972h-206.538v82.364c0 21.078 17.087 38.165 38.164 38.165h190.444c-13.08-22.299-24.813-70.951-22.07-120.529z" fill="#6a96d7"/><path d="m207.506 460.606c-.039 12.471-12.766 22.541-28.427 22.492s-28.325-10.199-28.286-22.67 12.766-22.542 28.427-22.493c15.662.049 28.325 10.199 28.286 22.671z" fill="#fff"/><path d="m304.494 460.91c-.039 12.471 12.625 22.621 28.285 22.67 15.661.049 28.388-10.021 28.427-22.492s-12.625-22.621-28.285-22.67c-15.661-.05-28.388 10.02-28.427 22.492z" fill="#fff"/><path d="m278.916 443.479c.044-14.129-10.187-15.489-22.814-15.528-12.626-.04-22.866 1.256-22.91 15.385s10.156 25.614 22.782 25.654c12.627.039 22.898-11.382 22.942-25.511z" fill="#4e5660"/><path d="m492.49 334.243h-472.98c-6.633 0-12.01 5.377-12.01 12.01v25.707c0 6.633 5.377 12.01 12.01 12.01h472.98c6.633 0 12.01-5.377 12.01-12.01v-25.707c0-6.632-5.377-12.01-12.01-12.01z" fill="#f7ef87"/><path d="m281.573 334.243h-262.063c-6.633 0-12.01 5.377-12.01 12.01v25.707c0 6.633 5.377 12.01 12.01 12.01h267.744c-6.419-11.165-11.806-30.494-5.681-49.727z" fill="#efd176"/><path d="m107.645 126.713h-55.864c-11.786 0-21.341 9.555-21.341 21.341v99.566h98.546v-99.566c0-11.787-9.555-21.341-21.341-21.341z" fill="#4e5660"/><circle cx="79.713" cy="188.425" fill="#c6c6c6" r="26.342"/><path d="m153.57 247.619h-123.13v86.625h140.407v-69.347c0-9.543-7.735-17.278-17.277-17.278z" fill="#c6c6c6"/><g fill="#4e5660"><circle cx="130.541" cy="290.931" r="18.971"/><circle cx="70.745" cy="290.931" r="18.971"/><path d="m404.355 126.713h55.864c11.786 0 21.341 9.555 21.341 21.341v99.566h-98.546v-99.566c0-11.787 9.555-21.341 21.341-21.341z"/></g><circle cx="432.287" cy="188.425" fill="#c6c6c6" r="26.342"/><path d="m358.43 247.619h123.13v86.625h-140.407v-69.347c0-9.543 7.735-17.278 17.277-17.278z" fill="#c6c6c6"/><circle cx="381.459" cy="290.931" fill="#4e5660" r="18.971"/><circle cx="441.255" cy="290.931" fill="#4e5660" r="18.971"/><path d="m195.751 414.999c-5.583 0-10.836 2.166-14.798 6.104-3.978 3.954-6.179 9.22-6.196 14.828-.013 4.142 3.335 7.511 7.477 7.523h.024c4.131 0 7.486-3.343 7.499-7.477.005-1.602.634-3.106 1.77-4.235 1.131-1.125 2.632-1.743 4.226-1.743h.02c1.601.005 3.106.634 4.235 1.77 1.129 1.137 1.748 2.645 1.743 4.246-.013 4.142 3.334 7.511 7.477 7.523h.024c4.131 0 7.486-3.343 7.5-7.477.036-11.577-9.353-21.026-20.931-21.063h-.07zm105.85 6.481c-3.978 3.954-6.179 9.22-6.196 14.828-.013 4.142 3.334 7.511 7.477 7.523h.024c4.131 0 7.486-3.343 7.499-7.477.011-3.301 2.698-5.978 5.996-5.978h.02c1.602.005 3.105.634 4.234 1.77s1.748 2.644 1.743 4.246c-.013 4.142 3.334 7.511 7.477 7.523h.024c4.131 0 7.486-3.343 7.499-7.476.036-11.577-9.353-21.026-20.931-21.063-5.629.023-10.889 2.151-14.866 6.104zm190.888-94.737h-3.429v-178.689c0-15.903-12.938-28.841-28.841-28.841h-4.995v-62.931h22.574c12.937 0 23.462-10.524 23.462-23.461v-9.359c.001-12.937-10.525-23.462-23.461-23.462h-387.369c-4.142 0-7.5 3.357-7.5 7.5s3.358 7.5 7.5 7.5h387.369c4.666 0 8.462 3.796 8.462 8.462v9.359c0 4.665-3.796 8.461-8.462 8.461h-443.598c-4.665 0-8.461-3.796-8.461-8.461v-9.359c0-4.666 3.796-8.462 8.461-8.462h19.566c4.142 0 7.5-3.357 7.5-7.5s-3.358-7.5-7.5-7.5h-19.566c-12.937 0-23.462 10.525-23.462 23.462v9.359c0 12.937 10.525 23.461 23.461 23.461h22.574v62.931h-4.994c-15.903 0-28.841 12.938-28.841 28.841v178.689h-3.43c-10.757 0-19.509 8.753-19.509 19.511v25.707c0 10.758 8.752 19.511 19.51 19.511h3.43v74.864c0 25.18 20.485 45.664 45.665 45.664h374.791c17.476 0 33.648-10.188 41.201-25.954 1.79-3.735.212-8.215-3.523-10.004-3.733-1.789-8.215-.213-10.004 3.523-5.075 10.591-15.937 17.435-27.674 17.435h-374.792c-16.909 0-30.665-13.756-30.665-30.664v-74.864h436.121v54.2c0 4.143 3.358 7.5 7.5 7.5 4.143 0 7.5-3.357 7.5-7.5v-54.2h3.429c10.758 0 19.511-8.753 19.511-19.511v-25.707c0-10.758-8.753-19.511-19.511-19.511zm-32.269-192.53c7.632 0 13.841 6.209 13.841 13.841v92.065h-83.546v-92.065c0-7.632 6.209-13.841 13.841-13.841zm-306.65 105.906h-17.084v-39.891c2.896-.552 5.847-.831 8.824-.831 24.841 0 45.395 19.409 46.794 44.186.174 3.075 2.209 5.731 5.133 6.698 13.856 4.582 25.333 14.818 31.49 28.086 1.551 3.342 5.297 5.064 8.845 4.06 4.795-1.356 9.736-2.044 14.686-2.044 27.152 0 49.664 20.201 53.327 46.36h-127.238v-61.847c0-13.662-11.115-24.777-24.777-24.777zm140.632 39.566c4.829-11.255 14.279-20.012 26.08-23.915 2.924-.968 4.959-3.624 5.133-6.698 1.132-20.052 17.767-35.759 37.87-35.759 4.222 0 8.317.682 12.23 2.018v24.788h-17.084c-13.662 0-24.777 11.115-24.777 24.777v61.847h-12.95c-2.082-19.115-12.017-35.895-26.502-47.058zm54.451-14.788c0-5.392 4.386-9.777 9.777-9.777h115.63v71.624h-125.407zm75.697-208.615h15.875v62.931h-15.875zm-92.877 0h18.654c1.053.673 2.036 1.453 2.926 2.343l8.729 8.729c6.757 6.756 6.757 17.75 0 24.506l-20.982 20.982-33.235-33.235 20.983-20.981c.889-.891 1.872-1.67 2.925-2.344zm-181.255 11.072 8.729-8.729c.89-.89 1.873-1.669 2.925-2.343h18.655c1.053.673 2.036 1.453 2.925 2.343l20.982 20.981-33.234 33.236-20.981-20.982c-6.757-6.756-6.757-17.751-.001-24.506zm-47.568-11.072h37.425l-.464.464c-12.605 12.605-12.605 33.115 0 45.721l21.117 21.117c2.797 2.797 6.516 4.337 10.471 4.337s7.674-1.54 10.471-4.337l33.507-33.507c5.773-5.773 5.773-15.168-.001-20.942l-12.853-12.853h107.352l-12.855 12.853c-5.771 5.774-5.771 15.168.001 20.942l33.506 33.506c2.798 2.797 6.517 4.337 10.472 4.337s7.674-1.54 10.472-4.337l21.117-21.117c12.604-12.605 12.604-33.115 0-45.721l-.464-.464h37.425v62.931h-4.994c-15.903 0-28.841 12.938-28.841 28.841v51.684c-3.973-.941-8.058-1.424-12.23-1.424-26.377 0-48.475 19.383-52.335 44.965-13.083 5.597-23.603 15.786-29.645 28.551-8.832-4.127-18.671-6.447-29.046-6.447-4.284 0-8.56.402-12.774 1.198-7.492-12.91-19.101-23.092-32.883-28.81-4.161-30.304-30.179-53.375-61.291-53.375-2.965 0-5.911.218-8.824.635v-36.978c0-15.903-12.938-28.841-28.841-28.841h-4.995v-62.929zm-30.875 0h15.875v62.931h-15.875zm-33.835 91.772c0-7.632 6.209-13.841 13.841-13.841h55.864c7.632 0 13.841 6.209 13.841 13.841v46.316.082 45.667h-83.546zm0 107.065h115.63c5.391 0 9.777 4.386 9.777 9.777v61.847h-125.407zm459.06 116.842c0 2.487-2.023 4.511-4.511 4.511h-472.979c-2.487 0-4.51-2.023-4.51-4.511v-25.707c0-2.487 2.023-4.511 4.51-4.511h294.09c.007 0 .013.001.019.001.007 0 .013-.001.019-.001h178.851c2.487 0 4.511 2.023 4.511 4.511zm-240.873 48.49c-7.916-.018-14.256.507-19.569 3.18-4.936 2.483-10.829 7.915-10.866 19.682-.057 18.241 13.517 33.125 30.258 33.178h.088c16.701 0 30.321-14.778 30.377-32.987.037-11.767-5.82-17.234-10.741-19.75-5.295-2.707-11.645-3.278-19.547-3.303zm-.088 41.039h-.041c-8.471-.026-15.337-8.16-15.306-18.131.016-5.025 1.639-5.842 2.608-6.329 2.717-1.367 7.669-1.58 12.268-1.58.171 0 .341 0 .511.001 4.738.015 9.959.224 12.768 1.659.967.493 2.584 1.32 2.568 6.346-.03 9.954-6.924 18.035-15.376 18.034z"/></svg>