<svg id="Capa_1" enable-background="new 0 0 511.561 511.561" height="512" viewBox="0 0 511.561 511.561" width="512" xmlns="http://www.w3.org/2000/svg"><path d="m418.098 368.418c47.597 0 86.182-38.585 86.182-86.182s-38.585-86.182-86.182-86.182c-.643 0-1.283.01-1.922.024-10.828-63.755-66.32-112.302-133.159-112.302-50.403 0-94.353 27.61-117.566 68.527-6.564-1.902-13.495-2.942-20.672-2.942-40.074 0-72.703 31.792-74.091 71.528-35.86 5.208-63.408 36.067-63.408 73.371 0 40.956 33.201 74.157 74.157 74.157h336.661z" fill="#fcf2d0"/><path d="m223.415 97.626c-24.37 12.007-44.605 31.131-57.963 54.677-6.564-1.902-13.495-2.942-20.672-2.942-40.074 0-72.703 31.792-74.091 71.528-35.861 5.208-63.409 36.067-63.409 73.371 0 40.956 33.201 74.157 74.157 74.157h210.419c-53.756-36.527-88.797-179.057-68.441-270.791z" fill="#f6e3a3"/><ellipse cx="211.44" cy="183.488" fill="#eda1ab" rx="26.612" ry="21.193"/><ellipse cx="355.686" cy="183.488" fill="#eda1ab" rx="26.612" ry="21.193"/><path d="m159.702 279.309 32.526-5.735v106.837l-32.526 5.736z" fill="#4e5660"/><path d="m241.669 223.584-56.92 10.037c-14.486 2.554-25.047 15.14-25.047 29.85v15.839l58.626-10.337c16.391-2.89 28.342-17.132 28.342-33.776v-7.415c0-2.651-2.392-4.658-5.001-4.198z" fill="#89d47f"/><path d="m184.749 233.62c-14.486 2.554-25.047 15.14-25.047 29.85v15.839l51.201-9.028c-8.75-7.151-10.611-28.649-8.936-39.696z" fill="#5ec783"/><ellipse cx="139.747" cy="389.665" fill="#a3defe" rx="53.997" ry="35.954" transform="matrix(.949 -.315 .315 .949 -115.741 63.945)"/><path d="m132.2 354.39c-25.408 7.06-44.935 25.906-44.935 44.529 0 20.43 23.497 32.849 52.481 27.738 6.109-1.077 11.97-2.854 17.422-5.168-30.148-12.597-31.1-51.605-24.968-67.099z" fill="#7acefa"/><path d="m159.702 279.309 32.526-5.735v22.635l-32.526 5.735z" fill="#383c43"/><path d="m319.106 263.405 32.526-5.735v106.837l-32.526 5.735z" fill="#4e5660"/><path d="m401.073 207.68-56.92 10.037c-14.486 2.554-25.047 15.14-25.047 29.85v15.839l58.626-10.338c16.391-2.89 28.342-17.132 28.342-33.776v-7.415c0-2.65-2.392-4.657-5.001-4.197z" fill="#a3defe"/><path d="m344.153 217.716c-14.486 2.554-25.047 15.14-25.047 29.85v15.839l51.201-9.028c-8.749-7.151-10.611-28.649-8.936-39.697z" fill="#7acefa"/><ellipse cx="299.151" cy="373.761" fill="#8eafe2" rx="53.997" ry="35.954" transform="matrix(.949 -.315 .315 .949 -102.594 113.396)"/><path d="m291.604 338.486c-25.408 7.06-44.935 25.906-44.935 44.529 0 20.43 23.497 32.849 52.481 27.738 6.109-1.077 11.97-2.854 17.422-5.168-30.148-12.597-31.1-51.605-24.968-67.099z" fill="#6a96d7"/><path d="m319.106 263.405 32.526-5.735v22.635l-32.526 5.735z" fill="#383c43"/><path d="m422.201 188.862c-6.535-30.396-23.027-58.048-46.877-78.383-25.702-21.915-58.483-33.983-92.307-33.983-49.292 0-95.169 25.695-121.053 67.421-5.651-1.221-11.41-1.837-17.185-1.837-13.879 0-27.584 3.556-39.632 10.283-3.511 1.96-4.768 6.395-2.808 9.905 1.96 3.511 6.395 4.768 9.905 2.808 9.884-5.519 21.134-8.436 32.534-8.436 6.294 0 12.567.894 18.645 2.654 3.237.941 6.696-.47 8.358-3.399 22.689-39.994 65.312-64.839 111.233-64.839 30.363 0 59.79 10.833 82.859 30.503 22.816 19.453 38.131 46.351 43.122 75.737.596 3.507 3.635 6.061 7.176 6.061.056 0 .112-.001.169-.002.583-.014 1.168-.022 1.755-.022 43.507 0 78.901 35.395 78.901 78.901 0 18.763-6.697 36.943-18.859 51.193-2.609 3.058-2.246 7.653.813 10.264 1.371 1.17 3.051 1.742 4.722 1.742 2.058 0 4.102-.867 5.542-2.554 14.408-16.884 22.344-38.421 22.344-60.646.003-50.158-39.718-91.216-89.357-93.371zm-87.411-28.435c0-2.971 2.416-5.387 5.387-5.387s5.387 2.416 5.387 5.387c0 4.021 3.26 7.28 7.28 7.28s7.28-3.26 7.28-7.28c0-10.999-8.948-19.947-19.947-19.947s-19.947 8.948-19.947 19.947c0 4.021 3.26 7.28 7.28 7.28s7.28-3.26 7.28-7.28zm-51.227 28.206c7.255 0 14.153-3.142 18.926-8.619 2.641-3.031 2.325-7.63-.707-10.271-3.029-2.642-7.63-2.325-10.272.707-2.006 2.303-4.903 3.623-7.947 3.623s-5.94-1.32-7.946-3.623c-2.643-3.032-7.242-3.347-10.271-.707-3.032 2.642-3.348 7.24-.707 10.271 4.771 5.477 11.67 8.619 18.924 8.619zm-62-28.206c0-2.971 2.416-5.387 5.387-5.387s5.387 2.416 5.387 5.387c0 4.021 3.26 7.28 7.28 7.28 4.021 0 7.28-3.26 7.28-7.28 0-10.999-8.948-19.947-19.947-19.947s-19.947 8.948-19.947 19.947c0 4.021 3.26 7.28 7.28 7.28s7.28-3.26 7.28-7.28zm231.002 192.805c-10.782 5.246-22.379 7.905-34.467 7.905h-59.187v-97.359l20.084-3.542c19.908-3.51 34.357-20.73 34.357-40.946v-7.415c0-3.42-1.503-6.643-4.123-8.842-2.619-2.197-6.053-3.119-9.422-2.524l-56.92 10.037c-17.999 3.174-31.064 18.742-31.064 37.02v80.8c-4.532-.003-9.206.398-13.939 1.232-22.579 3.982-41.789 16.341-51.571 31.539h-46.807v-81.455l20.084-3.541c19.908-3.511 34.357-20.732 34.357-40.946v-7.415c0-3.42-1.503-6.643-4.123-8.841-2.619-2.199-6.058-3.115-9.423-2.525l-56.92 10.036c-17.999 3.175-31.064 18.744-31.064 37.021v15.838c0 .006.001.012.001.018v64.944c-4.532-.003-9.207.398-13.939 1.233-13.925 2.456-26.559 8.105-36.501 15.635h-20.54c-36.876 0-66.877-30.001-66.877-66.878 0-32.987 24.58-61.433 57.175-66.166 3.484-.507 6.107-3.433 6.229-6.951.428-12.24 4.198-24.105 10.906-34.313 2.208-3.36 1.274-7.874-2.086-10.082-3.36-2.207-7.874-1.274-10.082 2.086-7.093 10.794-11.491 23.104-12.87 35.912-16.908 3.734-32.284 12.83-43.781 26.006-12.931 14.816-20.052 33.819-20.052 53.507 0 44.905 36.533 81.438 81.438 81.438h6.383c-4.988 7.25-7.835 15.194-7.835 23.221 0 9.66 4.24 18.539 11.939 24.999 8.649 7.258 21.24 11.146 35.199 11.146 4.516 0 9.174-.406 13.888-1.237 32.802-5.785 58.497-29.248 58.497-53.416v-4.713h40.668c-.51 2.42-.787 4.864-.787 7.316 0 9.661 4.24 18.54 11.939 25 8.649 7.258 21.238 11.147 35.197 11.147 4.516 0 9.175-.407 13.889-1.238 27.687-4.882 50.309-22.359 56.692-42.225h60.991c14.313 0 28.053-3.153 40.836-9.372 3.616-1.759 5.121-6.116 3.362-9.732-1.758-3.617-6.117-5.119-9.731-3.362zm-314.082 66.255c-15.104 2.663-29.01.148-37.199-6.724-4.472-3.751-6.738-8.409-6.738-13.845 0-16.74 21.278-34.635 46.465-39.076 3.968-.7 7.851-1.042 11.571-1.042 2.065 0 4.077.11 6.027.318.172.026.344.048.52.062 7.688.9 14.344 3.41 19.081 7.385 4.472 3.751 6.738 8.409 6.738 13.845 0 16.741-21.278 34.636-46.465 39.077zm46.465-66.071c-5.052-3.554-11.175-6.111-17.966-7.603v-60.396l17.966-3.167zm-17.966-82.783v-7.162c0-11.197 8.004-20.736 19.031-22.681l53.377-9.411v3.816c0 13.136-9.39 24.325-22.325 26.606zm130.905 132.95c-15.1 2.664-29.008.149-37.198-6.722-4.472-3.752-6.738-8.41-6.738-13.847 0-3.597.988-7.246 2.78-10.805.162-.264.31-.538.437-.824 6.856-12.674 23.891-24.034 43.247-27.448 3.968-.7 7.851-1.042 11.571-1.042 2.053 0 4.055.108 5.994.314.188.029.376.053.568.068 7.681.902 14.331 3.411 19.065 7.383 4.472 3.752 6.738 8.41 6.738 13.846.001 16.742-21.278 34.637-46.464 39.077zm46.465-66.071c-5.052-3.554-11.175-6.111-17.966-7.603v-60.395l17.966-3.168zm-17.966-82.783v-7.162c0-11.197 8.004-20.736 19.031-22.68l53.376-9.412v3.816c0 13.137-9.389 24.326-22.325 26.606z"/></svg>