<svg id="Capa_1" enable-background="new 0 0 511.562 511.562" height="512" viewBox="0 0 511.562 511.562" width="512" xmlns="http://www.w3.org/2000/svg"><path d="m97.72 468.052-54.208-54.208c-48.307-48.307-48.307-126.908-.001-175.214l72.149-72.149c10.804-10.804 28.32-10.803 39.123 0 10.804 10.804 10.804 28.319 0 39.123l-72.149 72.149c-26.734 26.733-26.734 70.233.001 96.968l54.208 54.208c26.734 26.734 70.234 26.734 96.968 0l72.149-72.149c10.804-10.804 28.32-10.803 39.123 0 10.804 10.804 10.804 28.319 0 39.123l-72.149 72.149c-48.307 48.306-126.908 48.306-175.214 0z" fill="#4e5660"/><path d="m129.878 421.964-47.243-47.243c-26.735-26.735-26.735-70.235-.001-96.969l72.149-72.149c10.804-10.804 10.804-28.319 0-39.123-10.803-10.803-28.319-10.804-39.123 0l-72.149 72.149c-48.307 48.307-48.306 126.908.001 175.214l54.208 54.208c11.692 11.692 25.162 20.546 39.545 26.578-4.734-23.201-7.35-49.677-7.387-72.665z" fill="#383c43"/><path d="m320.988 419.997 24.094-24.094c10.804-10.804 10.804-28.319 0-39.123-10.803-10.803-28.319-10.804-39.123 0l-24.094 24.094z" fill="#383c43"/><path d="m162.682 213.502-54.922-54.922c-6.778-6.778-6.778-17.768 0-24.547l76.275-76.275c6.778-6.778 17.768-6.778 24.546 0l54.922 54.922c6.778 6.778 6.778 17.768 0 24.546l-76.275 76.275c-6.777 6.78-17.767 6.78-24.546.001z" fill="#4e5660"/><path d="m313.486 41.339.486-15.545c.324-10.351-8.153-18.828-18.504-18.504l-15.544.486c-4.565.143-8.903 2.02-12.132 5.249l-51.972 51.972 40.445 40.445 51.972-51.972c3.229-3.228 5.106-7.567 5.249-12.131z" fill="#f7ef87"/><path d="m265.439 15.378-49.619 49.619 40.445 40.446 16.015-16.015c-13.396-17.288-9.241-54.292-6.841-74.05z" fill="#efd176"/><path d="m160.49 97.301h14.559v112.386h-14.559z" fill="#e8899e" transform="matrix(.707 -.707 .707 .707 -59.398 163.588)"/><path d="m209.892 138.779c-1.863 0-3.727-.711-5.147-2.133l-20.127-20.127c-2.844-2.843-2.844-7.452 0-10.295 2.842-2.844 7.453-2.844 10.295 0l20.127 20.127c2.844 2.843 2.844 7.452 0 10.295-1.422 1.422-3.285 2.133-5.148 2.133z" fill="#fff"/><path d="m298.06 348.88 54.922 54.922c6.778 6.778 17.768 6.778 24.547 0l76.275-76.275c6.778-6.778 6.778-17.768 0-24.546l-54.922-54.922c-6.778-6.778-17.768-6.778-24.547 0l-76.275 76.275c-6.778 6.778-6.778 17.768 0 24.546z" fill="#4e5660"/><path d="m470.224 198.077 15.544-.486c10.351-.324 18.828 8.153 18.504 18.504l-.486 15.544c-.143 4.564-2.02 8.903-5.249 12.132l-51.972 51.972-40.445-40.445 51.972-51.972c3.229-3.229 7.567-5.107 12.132-5.249z" fill="#f7ef87"/><path d="m455.739 205.678-49.619 49.619 40.445 40.446 16.015-16.015c-13.396-17.288-9.241-54.292-6.841-74.05z" fill="#efd176"/><path d="m350.79 287.6h14.559v112.386h-14.559z" fill="#e8899e" transform="matrix(.707 -.707 .707 .707 -138.223 353.888)"/><path d="m400.191 329.078c-1.863 0-3.727-.711-5.147-2.133l-20.127-20.127c-2.844-2.843-2.844-7.452 0-10.295 2.842-2.844 7.453-2.844 10.295 0l20.127 20.127c2.844 2.843 2.844 7.452 0 10.295-1.421 1.422-3.284 2.133-5.148 2.133z" fill="#fff"/><path d="m504.171 197.692c-4.906-4.905-11.703-7.612-18.63-7.378l-15.545.486c-6.439.201-12.496 2.821-17.052 7.378l-46.824 46.824-2.091-2.091c-6.688-6.69-16.413-8.951-25.369-5.903-3.807 1.295-5.844 5.43-4.549 9.236 1.295 3.807 5.433 5.84 9.236 4.549 3.672-1.245 7.649-.323 10.387 2.413l54.922 54.922c1.902 1.903 2.951 4.435 2.951 7.126s-1.049 5.223-2.951 7.126l-76.275 76.274c-1.903 1.902-4.434 2.951-7.125 2.951-2.692 0-5.223-1.049-7.126-2.951l-54.922-54.922c-1.902-1.903-2.951-4.435-2.951-7.125 0-2.692 1.049-5.223 2.951-7.126l56.736-56.736c2.843-2.843 2.843-7.452-.001-10.295-2.842-2.844-7.452-2.844-10.296 0l-56.734 56.736c-9.606 9.605-9.606 25.235 0 34.841l2.751 2.751-67.001 67.001c-23.895 23.895-62.776 23.896-86.673.001l-54.208-54.208c-23.896-23.897-23.896-62.778-.001-86.675l67.002-67.001 2.752 2.752c4.653 4.653 10.84 7.217 17.421 7.217 6.58 0 12.767-2.564 17.42-7.217l76.275-76.274c4.653-4.653 7.217-10.84 7.217-17.421s-2.564-12.768-7.217-17.421l-2.091-2.091 46.824-46.824c4.557-4.556 7.177-10.612 7.378-17.052l.486-15.545c.217-6.934-2.473-13.725-7.378-18.63-4.906-4.905-11.703-7.611-18.63-7.378l-15.544.488c-6.441.201-12.497 2.821-17.052 7.378l-46.824 46.824-2.091-2.091c-4.653-4.654-10.84-7.217-17.421-7.217s-12.768 2.563-17.422 7.217l-76.273 76.275c-4.654 4.653-7.217 10.84-7.217 17.42 0 6.581 2.563 12.768 7.217 17.421l2.752 2.752-67.002 67.002c-22.475 22.474-35.998 52.343-38.079 84.103-2.062 31.458 7.183 62.552 26.03 87.554 1.431 1.898 3.611 2.897 5.819 2.897 1.525 0 3.064-.478 4.377-1.467 3.21-2.421 3.851-6.985 1.431-10.196-34.766-46.117-30.159-111.718 10.717-152.595l67.002-67.002 28.828 28.828-67.002 67.002c-29.572 29.573-29.571 77.692.002 107.265l54.208 54.209c14.786 14.785 34.209 22.178 53.631 22.178 19.423 0 38.846-7.393 53.632-22.179l67.002-67.002 28.828 28.828-67.002 67.001c-21.987 21.988-51.272 34.098-82.459 34.098-31.186 0-60.471-12.109-82.459-34.098l-41.421-41.421c-2.842-2.844-7.453-2.844-10.295 0-2.844 2.843-2.844 7.452 0 10.295l41.42 41.421c24.739 24.739 57.68 38.363 92.755 38.363 35.076 0 68.017-13.624 92.755-38.363l67.002-67.001 2.752 2.753c4.653 4.653 10.84 7.217 17.421 7.217 6.58 0 12.767-2.564 17.42-7.216l76.275-76.275c4.654-4.653 7.217-10.84 7.217-17.421s-2.563-12.768-7.217-17.421l-2.091-2.091 46.824-46.823c4.557-4.556 7.177-10.611 7.378-17.053l.486-15.545c.216-6.937-2.474-13.727-7.379-18.632zm-231.231-179.519c1.926-1.927 4.487-3.035 7.211-3.12l15.545-.486c2.956-.076 5.773 1.016 7.879 3.121 2.105 2.104 3.214 4.903 3.121 7.879l-.486 15.545c-.085 2.724-1.193 5.284-3.12 7.212l-17.537 17.537-30.15-30.15zm-27.832 27.832 30.15 30.15-18.992 18.992-30.15-30.15zm-132.2 107.428c-1.902-1.903-2.951-4.434-2.951-7.126 0-2.691 1.049-5.222 2.952-7.125l76.273-76.275c1.903-1.902 4.435-2.951 7.126-2.951s5.223 1.049 7.126 2.951l54.922 54.922c1.902 1.903 2.951 4.435 2.951 7.126s-1.049 5.223-2.951 7.126l-76.275 76.274c-1.903 1.902-4.435 2.951-7.125 2.951-2.692 0-5.223-1.049-7.126-2.951zm333.657 132.015-30.15-30.15 18.992-18.992 30.15 30.15zm49.945-54.037c-.085 2.724-1.193 5.285-3.12 7.212l-17.537 17.537-30.15-30.15 17.537-17.537c1.928-1.927 4.488-3.035 7.212-3.12l15.545-.486c2.959-.072 5.773 1.016 7.879 3.121 2.105 2.104 3.214 4.903 3.121 7.879z"/></svg>