<?xml version="1.0" encoding="iso-8859-1"?>
<!-- Generator: Adobe Illustrator 19.0.0, SVG Export Plug-In . SVG Version: 6.00 Build 0)  -->
<svg version="1.1" id="Layer_1" xmlns="http://www.w3.org/2000/svg" xmlns:xlink="http://www.w3.org/1999/xlink" x="0px" y="0px"
	 viewBox="0 0 297 297" style="enable-background:new 0 0 297 297;" xml:space="preserve">
<g>
	<g>
		<g>
			<g>
				<g>
					<g>
						<circle style="fill:#9ADAD9;" cx="148.5" cy="148.5" r="148.5"/>
					</g>
				</g>
			</g>
		</g>
	</g>
	<path style="fill:#72B7B3;" d="M295.42,126.822L236.117,67.52L55.95,231.046l63.021,63.013c9.544,1.926,19.417,2.94,29.529,2.94
		c82.014,0,148.5-66.486,148.5-148.5C297,141.136,296.455,133.899,295.42,126.822z"/>
	<g>
		<path style="fill:#97A5AF;" d="M53.5,71.47v154.06c0,4.106,3.329,7.435,7.435,7.435h57.529c4.106,0,7.435-3.329,7.435-7.435V71.47
			c0-4.106-3.329-7.435-7.435-7.435H60.935C56.829,64.035,53.5,67.364,53.5,71.47z"/>
	</g>
	<g>
		<g>
			<g>
				<path style="fill:#FFFFFF;" d="M58.659,86.799V73.182c0-1.285,1.041-2.326,2.326-2.326h41.472v18.269H60.985
					C59.701,89.125,58.659,88.083,58.659,86.799z"/>
			</g>
		</g>
		<g>
			<g>
				<path style="fill:#FFFFFF;" d="M58.659,114.203v-13.617c0-1.285,1.041-2.326,2.326-2.326h41.472v18.269H60.985
					C59.701,116.529,58.659,115.487,58.659,114.203z"/>
			</g>
		</g>
		<g>
			<g>
				<path style="fill:#FFFFFF;" d="M58.659,141.607V127.99c0-1.285,1.041-2.326,2.326-2.326h41.472v18.269H60.985
					C59.701,143.933,58.659,142.891,58.659,141.607z"/>
			</g>
		</g>
		<g>
			<g>
				<path style="fill:#FFFFFF;" d="M58.659,169.011v-13.617c0-1.285,1.041-2.326,2.326-2.326h41.472v18.269H60.985
					C59.701,171.337,58.659,170.295,58.659,169.011z"/>
			</g>
		</g>
		<g>
			<g>
				<path style="fill:#FFFFFF;" d="M58.659,196.414v-13.617c0-1.285,1.041-2.326,2.326-2.326h41.472v18.269H60.985
					C59.701,198.74,58.659,197.699,58.659,196.414z"/>
			</g>
		</g>
		<g>
			<g>
				<path style="fill:#FFFFFF;" d="M58.659,223.818v-13.617c0-1.285,1.041-2.326,2.326-2.326h41.472v18.269H60.985
					C59.701,226.144,58.659,225.103,58.659,223.818z"/>
			</g>
		</g>
		<g>
			<g>
				<path style="fill:#2B2B2B;" d="M68.392,155.309v-13.617c0-1.285,1.041-2.326,2.326-2.326h31.739v18.269H70.718
					C69.433,157.635,68.392,156.593,68.392,155.309z"/>
			</g>
		</g>
		<g>
			<g>
				<path style="fill:#2B2B2B;" d="M68.392,182.713v-13.617c0-1.285,1.041-2.326,2.326-2.326h31.739v18.269H70.718
					C69.433,185.039,68.392,183.997,68.392,182.713z"/>
			</g>
		</g>
		<g>
			<g>
				<path style="fill:#2B2B2B;" d="M68.392,210.116v-13.617c0-1.285,1.041-2.326,2.326-2.326h31.739v18.269H70.718
					C69.433,212.442,68.392,211.401,68.392,210.116z"/>
			</g>
		</g>
		<g>
			<g>
				<path style="fill:#2B2B2B;" d="M68.392,100.501V86.884c0-1.285,1.041-2.326,2.326-2.326h31.739v18.269H70.718
					C69.433,102.827,68.392,101.785,68.392,100.501z"/>
			</g>
		</g>
	</g>
	<g>
		<g>
			<rect x="180.808" y="72.203" style="fill:#97A5AF;" width="15.259" height="152.594"/>
		</g>
		<g>
			<rect x="166.485" y="72.203" style="fill:#FFFFFF;" width="15.259" height="152.594"/>
		</g>
		<g>
			<rect x="152.162" y="72.203" style="fill:#97A5AF;" width="15.259" height="152.594"/>
		</g>
		<g>
			<rect x="123.517" y="72.203" style="fill:#97A5AF;" width="15.259" height="152.594"/>
		</g>
		<g>
			<rect x="137.839" y="72.203" style="fill:#FFFFFF;" width="15.259" height="152.594"/>
		</g>
	</g>
	<g>
		<path style="fill:#32373B;" d="M230.065,232.965c4.106,0,7.435-3.329,7.435-7.435V71.47c0-4.106-3.329-7.435-7.435-7.435h-36.589
			v168.93H230.065z"/>
	</g>
	<g>
		<g>
			<circle style="fill:#D0D5D9;" cx="216.365" cy="88.503" r="5.549"/>
		</g>
		<g>
			<circle style="fill:#D0D5D9;" cx="216.365" cy="116.941" r="5.549"/>
		</g>
		<g>
			<circle style="fill:#D0D5D9;" cx="216.365" cy="147.459" r="5.549"/>
		</g>
		<g>
			<circle style="fill:#D0D5D9;" cx="216.365" cy="175.898" r="5.549"/>
		</g>
		<g>
			<circle style="fill:#D0D5D9;" cx="216.365" cy="208.497" r="5.549"/>
		</g>
	</g>
	<g>
		<path style="fill:#32373B;" d="M118.464,232.965c4.106,0,7.435-3.329,7.435-7.435V71.47c0-4.106-3.329-7.435-7.435-7.435h-21.33
			v168.93H118.464z"/>
	</g>
</g>
<g>
</g>
<g>
</g>
<g>
</g>
<g>
</g>
<g>
</g>
<g>
</g>
<g>
</g>
<g>
</g>
<g>
</g>
<g>
</g>
<g>
</g>
<g>
</g>
<g>
</g>
<g>
</g>
<g>
</g>
</svg>
