<?xml version="1.0" encoding="iso-8859-1"?>
<!-- Generator: Adobe Illustrator 19.0.0, SVG Export Plug-In . SVG Version: 6.00 Build 0)  -->
<svg version="1.1" id="Layer_1" xmlns="http://www.w3.org/2000/svg" xmlns:xlink="http://www.w3.org/1999/xlink" x="0px" y="0px"
	 viewBox="0 0 297.001 297.001" style="enable-background:new 0 0 297.001 297.001;" xml:space="preserve">
<g>
	<g>
		<g>
			<g>
				<g>
					<g>
						<circle style="fill:#C3A99A;" cx="148.5" cy="148.5" r="148.5"/>
					</g>
				</g>
			</g>
		</g>
	</g>
	<path style="fill:#A08172;" d="M296.987,147.438l-85.655-85.685L86.158,235.747l61.24,61.24c0.368,0.003,0.734,0.014,1.103,0.014
		c82.014,0,148.5-66.486,148.5-148.5C297,148.145,296.989,147.793,296.987,147.438z"/>
	<g>
		<rect x="99" y="231" style="fill:#5E4534;" width="16.5" height="16.5"/>
	</g>
	<g>
		<rect x="181.5" y="231" style="fill:#5E4534;" width="16.5" height="16.5"/>
	</g>
	<g>
		<path style="fill:#905835;" d="M94.709,239.25h107.583c6.743,0,12.208-5.466,12.208-12.208V69.959
			c0-6.743-5.466-12.209-12.208-12.209H94.709c-6.743,0-12.209,5.466-12.209,12.209v157.083
			C82.5,233.784,87.966,239.25,94.709,239.25z"/>
	</g>
	<g>
		<path style="fill:#704220;" d="M202.292,57.75h-53.625v181.5h53.625c6.743,0,12.208-5.466,12.208-12.208V69.958
			C214.5,63.216,209.034,57.75,202.292,57.75z"/>
	</g>
	<g>
		<circle style="fill:#32373B;" cx="148.5" cy="148.5" r="28"/>
	</g>
	<g>
		<path style="fill:#2B2B2B;" d="M176.5,148.5c0-15.408-12.446-27.905-27.833-27.996v55.992
			C164.054,176.405,176.5,163.908,176.5,148.5z"/>
	</g>
</g>
<g>
</g>
<g>
</g>
<g>
</g>
<g>
</g>
<g>
</g>
<g>
</g>
<g>
</g>
<g>
</g>
<g>
</g>
<g>
</g>
<g>
</g>
<g>
</g>
<g>
</g>
<g>
</g>
<g>
</g>
</svg>
