<?xml version="1.0" encoding="iso-8859-1"?>
<!-- Generator: Adobe Illustrator 19.0.0, SVG Export Plug-In . SVG Version: 6.00 Build 0)  -->
<svg version="1.1" id="Layer_1" xmlns="http://www.w3.org/2000/svg" xmlns:xlink="http://www.w3.org/1999/xlink" x="0px" y="0px"
	 viewBox="0 0 297 297" style="enable-background:new 0 0 297 297;" xml:space="preserve">
<g>
	<g>
		<g>
			<g>
				<g>
					<g>
						<circle style="fill:#4A3943;" cx="148.5" cy="148.5" r="148.5"/>
					</g>
				</g>
			</g>
		</g>
	</g>
	<path style="fill:#33252E;" d="M292.261,111.15l-51.239-51.239L75.252,216.297l80.524,80.524C234.41,293.026,297,228.074,297,148.5
		C297,135.599,295.352,123.084,292.261,111.15z"/>
	<g>
		<g>
			<path style="fill:#F86E51;" d="M132.536,260.791l30.809-114.981c1.201-4.483-2.901-8.585-7.384-7.384L40.98,169.236
				c-4.483,1.201-5.984,6.805-2.703,10.086l84.172,84.172C125.731,266.776,131.334,265.274,132.536,260.791z"/>
		</g>
		<g>
			<path style="fill:#E04332;" d="M155.961,138.427l-8.294,2.222v63.671l15.678-58.51
				C164.546,141.328,160.444,137.226,155.961,138.427z"/>
		</g>
		<g>
			<path style="fill:#F0D3A7;" d="M136.831,164.941L136.831,164.941c-3.274-3.274-3.274-8.582,0-11.856l71.8-71.8
				c3.274-3.274,8.582-3.274,11.856,0l0,0c3.274,3.274,3.274,8.582,0,11.856l-71.8,71.8
				C145.413,168.215,140.105,168.215,136.831,164.941z"/>
		</g>
		<g>
			<path style="fill:#DBBA8D;" d="M220.488,81.284c-3.274-3.274-8.582-3.274-11.856,0L147.5,142.415v23.506
				c0.417-0.287,0.816-0.609,1.187-0.98l71.8-71.8C223.762,89.866,223.762,84.558,220.488,81.284z"/>
		</g>
		<g>
			<circle style="fill:#32373B;" cx="118.069" cy="183.703" r="11.754"/>
		</g>
		<g>
			<path style="fill:#32373B;" d="M88.49,188.245l25.036,25.036c1.263,1.263,3.31,1.263,4.573,0l0,0c1.263-1.263,1.263-3.31,0-4.573
				l-25.036-25.036c-1.263-1.263-3.31-1.263-4.573,0l0,0C87.228,184.934,87.228,186.982,88.49,188.245z"/>
		</g>
	</g>
	<g>
		<path style="fill:#F86E51;" d="M215.196,93.305l-6.729-6.729c-3.593-3.593-3.593-9.417,0-13.01l16.599-16.599
			c3.593-3.593,9.417-3.593,13.01,0l6.729,6.729c3.593,3.593,3.593,9.417,0,13.01l-16.599,16.599
			C224.613,96.897,218.789,96.897,215.196,93.305z"/>
	</g>
</g>
<g>
</g>
<g>
</g>
<g>
</g>
<g>
</g>
<g>
</g>
<g>
</g>
<g>
</g>
<g>
</g>
<g>
</g>
<g>
</g>
<g>
</g>
<g>
</g>
<g>
</g>
<g>
</g>
<g>
</g>
</svg>
