<?xml version="1.0" encoding="iso-8859-1"?>
<!-- Generator: Adobe Illustrator 19.0.0, SVG Export Plug-In . SVG Version: 6.00 Build 0)  -->
<svg version="1.1" id="Layer_1" xmlns="http://www.w3.org/2000/svg" xmlns:xlink="http://www.w3.org/1999/xlink" x="0px" y="0px"
	 viewBox="0 0 297 297" style="enable-background:new 0 0 297 297;" xml:space="preserve">
<g>
	<g>
		<g>
			<g>
				<g>
					<g>
						<circle style="fill:#9ADAD9;" cx="148.5" cy="148.5" r="148.5"/>
					</g>
				</g>
			</g>
		</g>
	</g>
	<path style="fill:#72B7B3;" d="M289.955,103.205l-48.58-48.58L59.691,236.31l57.337,57.337C127.173,295.836,137.7,297,148.5,297
		c32.498,0,62.552-10.447,87.004-28.155l31.066-30.283C285.655,213.579,297,182.366,297,148.5
		C297,132.703,294.524,117.486,289.955,103.205z"/>
	<g>
		<g>
			<circle style="fill:#345065;" cx="99.336" cy="197.509" r="55.469"/>
		</g>
		<g>
			<circle style="fill:#D5F5E6;" cx="99.336" cy="197.509" r="47.949"/>
		</g>
		<g>
			<path style="fill:#394C81;" d="M126.063,179.177l-8.395-8.395c-1.07-1.07-1.07-2.804,0-3.874l98.74-98.741
				c1.07-1.07,2.804-1.07,3.874,0l8.395,8.395c1.07,1.07,1.07,2.804,0,3.874l-98.74,98.741
				C128.867,180.247,127.132,180.247,126.063,179.177z"/>
		</g>
		<g>
			<path style="fill:#34495E;" d="M228.677,76.563l-8.396-8.395c-1.07-1.07-2.804-1.07-3.874,0l-60.241,60.241v24.539l72.51-72.51
				C229.747,79.367,229.747,77.632,228.677,76.563z"/>
		</g>
		<g>
			<path style="fill:#32373B;" d="M236.197,49.457l11.167,11.158c1.815,1.813,1.729,4.783-0.189,6.492l-22.812,20.335
				c-1.766,1.574-4.451,1.499-6.122-0.171l-8.656-8.648c-1.672-1.67-1.75-4.356-0.178-6.124l20.301-22.845
				C231.414,47.733,234.382,47.643,236.197,49.457z"/>
		</g>
		<g>
			<path style="fill:#32373B;" d="M75.481,196.983l24.381,24.381c1.061,1.061,2.78,1.061,3.841,0l1.392-1.392
				c1.061-1.061,1.061-2.78,0-3.841L80.714,191.75c-1.061-1.061-2.78-1.061-3.841,0l-1.392,1.392
				C74.42,194.203,74.42,195.923,75.481,196.983z"/>
		</g>
	</g>
</g>
<g>
</g>
<g>
</g>
<g>
</g>
<g>
</g>
<g>
</g>
<g>
</g>
<g>
</g>
<g>
</g>
<g>
</g>
<g>
</g>
<g>
</g>
<g>
</g>
<g>
</g>
<g>
</g>
<g>
</g>
</svg>
