<?xml version="1.0" encoding="iso-8859-1"?>
<!-- Generator: Adobe Illustrator 19.0.0, SVG Export Plug-In . SVG Version: 6.00 Build 0)  -->
<svg version="1.1" id="Layer_1" xmlns="http://www.w3.org/2000/svg" xmlns:xlink="http://www.w3.org/1999/xlink" x="0px" y="0px"
	 viewBox="0 0 297 297" style="enable-background:new 0 0 297 297;" xml:space="preserve">
<g>
	<g>
		<g>
			<g>
				<g>
					<g>
						<circle style="fill:#5E4534;" cx="148.5" cy="148.5" r="148.5"/>
					</g>
				</g>
			</g>
		</g>
	</g>
	<path style="fill:#422E20;" d="M257.712,123.063L118.56,155.258l-56.742,38.661l102.174,102.28
		c70.177-7.275,125.831-63.421,132.358-133.818L257.712,123.063z"/>
	<g>
		<rect x="107.25" y="132" style="fill:#ECF0F1;" width="82.5" height="33"/>
	</g>
	<g>
		<rect x="147.167" y="132" style="fill:#BDC3C7;" width="42.583" height="33"/>
	</g>
	<g>
		<g>
			<path style="fill:#FFA800;" d="M67.008,196.12h45.318c3.422,0,6.401-2.435,7.218-5.898l14.812-62.774H44.978l14.812,62.774
				C60.606,193.685,63.586,196.12,67.008,196.12z"/>
		</g>
		<g>
			<path style="fill:#F86E51;" d="M45.127,125.565h89.078l-6.899-13.797c-1.838-3.676-5.595-5.998-9.705-5.998H61.73
				c-4.11,0-7.867,2.322-9.705,5.998L45.127,125.565z"/>
		</g>
		<g>
			<path style="fill:#BDC3C7;" d="M42.518,130.973h94.296c2.452,0,4.439-1.987,4.439-4.439v-0.428c0-2.452-1.987-4.439-4.439-4.439
				H42.518c-2.452,0-4.439,1.987-4.439,4.439v0.428C38.079,128.985,40.067,130.973,42.518,130.973z"/>
		</g>
		<g>
			<path style="fill:#BDC3C7;" d="M56.797,189.004h65.738c1.724,0,3.122-1.398,3.122-3.122v-0.354c0-1.724-1.398-3.122-3.122-3.122
				H56.797c-1.724,0-3.122,1.398-3.122,3.122v0.354C53.675,187.606,55.073,189.004,56.797,189.004z"/>
		</g>
		<g>
			<path style="fill:#5E4534;" d="M68.219,187.45c-1.257,0-2.34-0.945-2.481-2.224l-6.599-59.385
				c-0.152-1.372,0.836-2.608,2.208-2.761c1.377-0.164,2.608,0.836,2.761,2.208l6.599,59.385c0.152,1.372-0.836,2.608-2.208,2.761
				C68.404,187.445,68.311,187.45,68.219,187.45z"/>
		</g>
		<g>
			<path style="fill:#5E4534;" d="M109.465,187.451c-0.092,0-0.186-0.005-0.279-0.016c-1.372-0.152-2.36-1.388-2.208-2.761
				l6.598-59.386c0.151-1.372,1.379-2.373,2.761-2.208c1.372,0.152,2.36,1.388,2.208,2.761l-6.598,59.386
				C111.805,186.506,110.722,187.451,109.465,187.451z"/>
		</g>
		<g>
			<path style="fill:#5E4534;" d="M89.666,187.15c-1.381,0-2.5-1.119-2.5-2.5v-58.785c0-1.381,1.119-2.5,2.5-2.5s2.5,1.119,2.5,2.5
				v58.785C92.166,186.031,91.047,187.15,89.666,187.15z"/>
		</g>
		<g>
			<path style="fill:#FFA800;" d="M184.675,196.12h45.318c3.422,0,6.401-2.435,7.218-5.898l14.812-62.774h-89.378l14.812,62.774
				C178.273,193.685,181.253,196.12,184.675,196.12z"/>
		</g>
		<g>
			<path style="fill:#F86E51;" d="M162.795,125.565h89.078l-6.899-13.797c-1.838-3.676-5.595-5.998-9.705-5.998h-55.871
				c-4.11,0-7.867,2.322-9.705,5.998L162.795,125.565z"/>
		</g>
		<g>
			<path style="fill:#BDC3C7;" d="M160.185,130.973h94.296c2.452,0,4.439-1.987,4.439-4.439v-0.428c0-2.452-1.987-4.439-4.439-4.439
				h-94.296c-2.452,0-4.439,1.987-4.439,4.439v0.428C155.746,128.985,157.734,130.973,160.185,130.973z"/>
		</g>
		<g>
			<path style="fill:#BDC3C7;" d="M174.464,189.004h65.738c1.724,0,3.122-1.398,3.122-3.122v-0.354c0-1.724-1.398-3.122-3.122-3.122
				h-65.738c-1.724,0-3.122,1.398-3.122,3.122v0.354C171.342,187.606,172.74,189.004,174.464,189.004z"/>
		</g>
		<g>
			<path style="fill:#5E4534;" d="M185.886,187.45c-1.257,0-2.34-0.945-2.481-2.224l-6.599-59.385
				c-0.152-1.372,0.836-2.608,2.208-2.761c1.371-0.164,2.608,0.836,2.761,2.208l6.599,59.385c0.152,1.372-0.836,2.608-2.208,2.761
				C186.071,187.445,185.978,187.45,185.886,187.45z"/>
		</g>
		<g>
			<path style="fill:#5E4534;" d="M227.132,187.451c-0.092,0-0.186-0.005-0.279-0.016c-1.372-0.152-2.36-1.388-2.208-2.761
				l6.598-59.386c0.152-1.372,1.372-2.373,2.761-2.208c1.372,0.152,2.36,1.388,2.208,2.761l-6.598,59.386
				C229.472,186.506,228.389,187.451,227.132,187.451z"/>
		</g>
		<g>
			<path style="fill:#5E4534;" d="M207.334,187.15c-1.381,0-2.5-1.119-2.5-2.5v-58.785c0-1.381,1.119-2.5,2.5-2.5s2.5,1.119,2.5,2.5
				v58.785C209.834,186.031,208.715,187.15,207.334,187.15z"/>
		</g>
	</g>
</g>
<g>
</g>
<g>
</g>
<g>
</g>
<g>
</g>
<g>
</g>
<g>
</g>
<g>
</g>
<g>
</g>
<g>
</g>
<g>
</g>
<g>
</g>
<g>
</g>
<g>
</g>
<g>
</g>
<g>
</g>
</svg>
