<?xml version="1.0" encoding="iso-8859-1"?>
<!-- Generator: Adobe Illustrator 19.0.0, SVG Export Plug-In . SVG Version: 6.00 Build 0)  -->
<svg version="1.1" id="Layer_1" xmlns="http://www.w3.org/2000/svg" xmlns:xlink="http://www.w3.org/1999/xlink" x="0px" y="0px"
	 viewBox="0 0 297.001 297.001" style="enable-background:new 0 0 297.001 297.001;" xml:space="preserve">
<g>
	<g>
		<g>
			<g>
				<g>
					<g>
						<circle style="fill:#345065;" cx="148.501" cy="148.5" r="148.5"/>
					</g>
				</g>
			</g>
		</g>
	</g>
	<path style="fill:#1F3949;" d="M222.66,83.679L76.535,228.928l68.019,68.02c1.312,0.034,2.627,0.053,3.947,0.053
		c78.915,0,143.441-61.558,148.206-139.273L222.66,83.679z"/>
	<g>
		
			<rect x="117.511" y="82.563" transform="matrix(-0.7071 -0.7071 0.7071 -0.7071 237.3194 333.683)" style="fill:#D0D5D9;" width="140.513" height="70.256"/>
	</g>
	<g>
		<polygon style="fill:#BDC3C7;" points="262.287,142.533 162.93,43.174 148.668,57.436 148.668,128.271 212.609,192.212 		"/>
	</g>
	<g>
		<path style="fill:#2980B9;" d="M261.523,145L160.463,43.94c-3.101-3.101-3.101-8.128,0-11.229l0,0
			c3.101-3.101,8.128-3.101,11.229,0l101.06,101.06c3.101,3.101,3.101,8.128,0,11.229l0,0C269.651,148.1,264.622,148.1,261.523,145z
			"/>
	</g>
	<g>
		<path style="fill:#2980B9;" d="M76.535,228.928L76.535,228.928c-11.776-11.776-10.207-31.297,3.298-41.041l65.829-50.543
			l22.458,22.458l-50.543,65.828C107.831,239.135,88.311,240.704,76.535,228.928z"/>
	</g>
	<g>
		<polygon style="fill:#356272;" points="148.668,140.35 148.668,185.135 168.118,159.801 		"/>
	</g>
	<g>
		<path style="fill:#3498DB;" d="M205.378,201.144l-101.06-101.06c-3.101-3.101-3.101-8.128,0-11.229l0,0
			c3.101-3.101,8.128-3.101,11.229,0l101.06,101.06c3.101,3.101,3.101,8.128,0,11.229l0,0
			C213.506,204.245,208.479,204.245,205.378,201.144z"/>
	</g>
	<g>
		<path style="fill:#2980B9;" d="M216.607,189.915l-67.939-67.939v22.458l56.71,56.71c3.101,3.101,8.128,3.101,11.229,0
			S219.708,193.016,216.607,189.915z"/>
	</g>
</g>
<g>
</g>
<g>
</g>
<g>
</g>
<g>
</g>
<g>
</g>
<g>
</g>
<g>
</g>
<g>
</g>
<g>
</g>
<g>
</g>
<g>
</g>
<g>
</g>
<g>
</g>
<g>
</g>
<g>
</g>
</svg>
