<?xml version="1.0" encoding="iso-8859-1"?>
<!-- Generator: Adobe Illustrator 19.0.0, SVG Export Plug-In . SVG Version: 6.00 Build 0)  -->
<svg version="1.1" id="Layer_1" xmlns="http://www.w3.org/2000/svg" xmlns:xlink="http://www.w3.org/1999/xlink" x="0px" y="0px"
	 viewBox="0 0 297 297" style="enable-background:new 0 0 297 297;" xml:space="preserve">
<g>
	<g>
		<g>
			<g>
				<g>
					<g>
						<circle style="fill:#EDB7AB;" cx="148.5" cy="148.5" r="148.5"/>
					</g>
				</g>
			</g>
		</g>
	</g>
	<path style="fill:#CE948A;" d="M226.485,85.546L53.45,229.176l64.719,64.719c9.792,2.032,19.936,3.104,30.331,3.104
		c79.489,0,144.389-62.454,148.311-140.969L226.485,85.546z"/>
	<g>
		<path style="fill:#503B2C;" d="M127.594,108.937l2.493-14.96c1.001-6.008-3.632-11.477-9.723-11.477H77.635
			c-6.091,0-10.724,5.469-9.723,11.477l2.493,14.959c1.121,6.724-1.742,13.557-7.449,17.284
			c-18.7,12.213-30.828,33.646-29.908,57.853c1.293,34.014,28.76,61.751,62.761,63.352C133.711,249.209,165,219.008,165,181.5
			c0-23.136-11.91-43.481-29.93-55.262C129.355,122.502,126.471,115.673,127.594,108.937z"/>
	</g>
	<g>
		<circle style="fill:#3A281C;" cx="99" cy="181.5" r="49.5"/>
	</g>
	<g>
		<path style="fill:#704220;" d="M226.594,108.937l2.493-14.96c1.001-6.008-3.632-11.477-9.723-11.477h-42.729
			c-6.091,0-10.724,5.469-9.723,11.477l2.493,14.959c1.121,6.724-1.742,13.557-7.449,17.284
			c-18.7,12.213-30.828,33.646-29.908,57.853c1.293,34.014,28.76,61.751,62.761,63.352C232.711,249.209,264,219.008,264,181.5
			c0-23.136-11.91-43.481-29.93-55.262C228.355,122.502,225.471,115.673,226.594,108.937z"/>
	</g>
	<g>
		<path style="fill:#562F15;" d="M234.07,126.238c-5.715-3.737-8.599-10.565-7.477-17.301l2.493-14.96
			c1.001-6.008-3.632-11.477-9.723-11.477h-24.198v164.932C232.906,249.01,264,218.89,264,181.5
			C264,158.364,252.09,138.019,234.07,126.238z"/>
	</g>
	<g>
		<path style="fill:#ECA684;" d="M198,152.75c-1.279,0-2.56-0.488-3.535-1.465l-22.5-22.5c-1.953-1.952-1.953-5.118,0-7.07
			c1.951-1.953,5.119-1.953,7.07,0L198,140.679l18.965-18.964c1.951-1.953,5.119-1.953,7.07,0c1.953,1.952,1.953,5.118,0,7.07
			l-22.5,22.5C200.56,152.262,199.279,152.75,198,152.75z"/>
	</g>
	<g>
		<path style="fill:#CE8A6F;" d="M224.035,121.715c-1.951-1.953-5.119-1.953-7.07,0L198,140.679l-2.833-2.833v14.013
			c0.851,0.588,1.84,0.891,2.833,0.891c1.279,0,2.56-0.488,3.535-1.465l22.5-22.5C225.988,126.833,225.988,123.667,224.035,121.715z
			"/>
		<path style="fill:#ECA684;" d="M194.465,151.285c0.219,0.219,0.457,0.404,0.702,0.574v-14.013l-16.132-16.131
			c-1.951-1.953-5.119-1.953-7.07,0c-1.953,1.952-1.953,5.118,0,7.07"/>
	</g>
	<path style="fill:#32373B;" d="M174.297,39.536c-12.618-9.7-24.619-11.422-25.124-11.49c-0.283-0.038-0.561-0.038-0.837-0.028
		c-0.004,0-0.008,0-0.013,0c-0.098,0.003-0.195,0.008-0.292,0.017c-0.069,0.005-0.135,0.003-0.205,0.012
		c-0.505,0.068-12.506,1.79-25.124,11.49c-11.477,8.821-25.769,26.222-28.684,59.021c-0.244,2.75,1.787,5.179,4.538,5.423
		c0.15,0.014,0.3,0.02,0.448,0.02c2.562,0,4.743-1.957,4.975-4.558c4.597-51.711,39.011-60.322,44.521-61.372
		c5.518,1.052,39.924,9.669,44.519,61.372c0.231,2.601,2.413,4.558,4.975,4.558c0.148,0,0.298-0.006,0.448-0.02
		c2.751-0.244,4.782-2.673,4.538-5.423C200.065,65.758,185.773,48.357,174.297,39.536z"/>
</g>
<g>
</g>
<g>
</g>
<g>
</g>
<g>
</g>
<g>
</g>
<g>
</g>
<g>
</g>
<g>
</g>
<g>
</g>
<g>
</g>
<g>
</g>
<g>
</g>
<g>
</g>
<g>
</g>
<g>
</g>
</svg>
