<?xml version="1.0" encoding="iso-8859-1"?>
<!-- Generator: Adobe Illustrator 19.0.0, SVG Export Plug-In . SVG Version: 6.00 Build 0)  -->
<svg version="1.1" id="Layer_1" xmlns="http://www.w3.org/2000/svg" xmlns:xlink="http://www.w3.org/1999/xlink" x="0px" y="0px"
	 viewBox="0 0 297 297" style="enable-background:new 0 0 297 297;" xml:space="preserve">
<g>
	<g>
		<g>
			<g>
				<circle style="fill:#662621;" cx="148.5" cy="148.5" r="148.5"/>
			</g>
		</g>
	</g>
	<path style="fill:#561D1A;" d="M208.514,91.891L89.582,206.249l87.91,87.913c58.753-11.629,105.037-57.911,116.668-116.663
		L208.514,91.891z"/>
	<g>
		<circle style="fill:#D0D5D9;" cx="148.5" cy="148.5" r="82.5"/>
	</g>
	<g>
		<path style="fill:#B7BFC4;" d="M148.5,66c-0.112,0-0.221,0.008-0.333,0.008v164.983c0.112,0,0.221,0.008,0.333,0.008
			c45.563,0,82.5-36.937,82.5-82.5S194.063,66,148.5,66z"/>
	</g>
	<g>
		<circle style="fill:#C0C0B8;" cx="148.5" cy="148.5" r="24.75"/>
	</g>
	<g>
		<path style="fill:#AAAAA5;" d="M148.5,123.75c-0.112,0-0.222,0.007-0.333,0.008v49.483c0.111,0.001,0.221,0.008,0.333,0.008
			c13.669,0,24.75-11.081,24.75-24.75C173.25,134.831,162.169,123.75,148.5,123.75z"/>
	</g>
	<g>
		<circle style="fill:#32373B;" cx="148.5" cy="148.5" r="10"/>
	</g>
	<g>
		<path style="fill:#2B2B2B;" d="M148.5,138.5c-0.112,0-0.221,0.013-0.333,0.017v19.966c0.112,0.004,0.221,0.017,0.333,0.017
			c5.523,0,10-4.477,10-10S154.023,138.5,148.5,138.5z"/>
	</g>
	<g>
		<path style="fill:#D35400;" d="M224.09,223.084c8.601-8.183,27.275-30.388,5.049-52.524l-11.972,10.729
			c0,0,2.786-14.274-19.195-30.289c0,0-14.551,8.704-16.409,32.726l-11.455-12.185c0,0-24.715,23.915,5.833,51.662
			c2.247,2.041,5.048,3.172,7.936,3.172h32.157C218.981,226.375,221.84,225.224,224.09,223.084z"/>
	</g>
	<g>
		<path style="fill:#E67E22;" d="M210.819,226.375c0,0,13.313-20.715-11.455-46.304c0,0-18.266,26.982-8.05,46.304H210.819z"/>
	</g>
</g>
<g>
</g>
<g>
</g>
<g>
</g>
<g>
</g>
<g>
</g>
<g>
</g>
<g>
</g>
<g>
</g>
<g>
</g>
<g>
</g>
<g>
</g>
<g>
</g>
<g>
</g>
<g>
</g>
<g>
</g>
</svg>
