<?xml version="1.0" encoding="iso-8859-1"?>
<!-- Generator: Adobe Illustrator 19.0.0, SVG Export Plug-In . SVG Version: 6.00 Build 0)  -->
<svg version="1.1" id="Layer_1" xmlns="http://www.w3.org/2000/svg" xmlns:xlink="http://www.w3.org/1999/xlink" x="0px" y="0px"
	 viewBox="0 0 297 297" style="enable-background:new 0 0 297 297;" xml:space="preserve">
<g>
	<g>
		<g>
			<g>
				<g>
					<g>
						<circle style="fill:#3C5768;" cx="148.5" cy="148.5" r="148.5"/>
					</g>
				</g>
			</g>
		</g>
	</g>
	<path style="fill:#1F3949;" d="M296.847,141.929l-47.771-47.792L49.585,220.752l74.187,74.187
		c8.043,1.348,16.302,2.061,24.728,2.061c82.014,0,148.5-66.486,148.5-148.5C297,146.297,296.942,144.108,296.847,141.929z"/>
	<g>
		<g>
			<path style="fill:#ECF0F1;" d="M89.544,155.929H79.61c-3.927,0-7.11-3.183-7.11-7.11V123.61c0-3.927,3.183-7.11,7.11-7.11h9.935
				c3.927,0,7.11,3.183,7.11,7.11v25.209C96.654,152.745,93.471,155.929,89.544,155.929z"/>
		</g>
		<g>
			<path style="fill:#ECF0F1;" d="M121.506,169.071h-9.935c-3.927,0-7.11-3.183-7.11-7.11V123.61c0-3.927,3.183-7.11,7.11-7.11
				h9.935c3.927,0,7.11,3.183,7.11,7.11v38.352C128.616,165.888,125.432,169.071,121.506,169.071z"/>
		</g>
		<g>
			<path style="fill:#ECF0F1;" d="M153.467,182.214h-9.935c-3.927,0-7.11-3.183-7.11-7.11V123.61c0-3.927,3.183-7.11,7.11-7.11
				h9.935c3.927,0,7.11,3.183,7.11,7.11v51.495C160.577,179.031,157.394,182.214,153.467,182.214z"/>
		</g>
		<g>
			<path style="fill:#A8B3BA;" d="M185.429,195.357h-9.935c-3.927,0-7.11-3.183-7.11-7.11V123.61c0-3.927,3.183-7.11,7.11-7.11
				h9.935c3.927,0,7.11,3.183,7.11,7.11v64.638C192.539,192.174,189.355,195.357,185.429,195.357z"/>
		</g>
		<g>
			<path style="fill:#A8B3BA;" d="M217.39,208.5h-9.935c-3.927,0-7.11-3.183-7.11-7.11v-77.78c0-3.927,3.183-7.11,7.11-7.11h9.935
				c3.927,0,7.11,3.183,7.11,7.11v77.781C224.5,205.317,221.317,208.5,217.39,208.5z"/>
		</g>
	</g>
	<g>
		<path style="fill:#F9B65F;" d="M46.5,98.464v116.571c0,4.024,3.262,7.286,7.286,7.286l0,0c4.024,0,7.286-3.262,7.286-7.286v-102
			c0-4.024,3.262-7.286,7.286-7.286h160.286c4.024,0,7.286,3.262,7.286,7.286v102c0,4.024,3.262,7.286,7.286,7.286l0,0
			c4.024,0,7.286-3.262,7.286-7.286V98.464c0-4.024-3.262-7.286-7.286-7.286H53.786C49.762,91.179,46.5,94.44,46.5,98.464z"/>
	</g>
	<g>
		<path style="fill:#A8B3BA;" d="M153.467,116.5h-4.8v65.714h4.8c3.927,0,7.11-3.183,7.11-7.11V123.61
			C160.577,119.683,157.394,116.5,153.467,116.5z"/>
		<path style="fill:#ECF0F1;" d="M143.533,116.5c-3.927,0-7.11,3.183-7.11,7.11v51.495c0,3.927,3.183,7.11,7.11,7.11h5.134V116.5
			H143.533z"/>
	</g>
	<path style="fill:#D0D5D9;" d="M214.5,61h-65.833H95.561c-2.019-5.254-7.104-9-13.061-9c-7.72,0-14,6.28-14,14s6.28,14,14,14
		c5.957,0,11.042-3.746,13.061-9h53.106H214.5c2.762,0,5-2.238,5-5S217.262,61,214.5,61z"/>
	<g>
		<path style="fill:#E29000;" d="M243.214,91.178h-94.547v14.572h79.976c4.024,0,7.286,3.262,7.286,7.286v102
			c0,4.024,3.262,7.286,7.286,7.286s7.286-3.262,7.286-7.286V98.464C250.5,94.44,247.238,91.178,243.214,91.178z"/>
	</g>
	<path style="fill:#A8B3BA;" d="M214.5,61h-65.833v10H214.5c2.762,0,5-2.238,5-5S217.262,61,214.5,61z"/>
</g>
<g>
</g>
<g>
</g>
<g>
</g>
<g>
</g>
<g>
</g>
<g>
</g>
<g>
</g>
<g>
</g>
<g>
</g>
<g>
</g>
<g>
</g>
<g>
</g>
<g>
</g>
<g>
</g>
<g>
</g>
</svg>
