<?xml version="1.0" encoding="iso-8859-1"?>
<!-- Generator: Adobe Illustrator 19.0.0, SVG Export Plug-In . SVG Version: 6.00 Build 0)  -->
<svg version="1.1" id="Layer_1" xmlns="http://www.w3.org/2000/svg" xmlns:xlink="http://www.w3.org/1999/xlink" x="0px" y="0px"
	 viewBox="0 0 297 297" style="enable-background:new 0 0 297 297;" xml:space="preserve">
<g>
	<g>
		<g>
			<g>
				<g>
					<g>
						<circle style="fill:#F0D3A7;" cx="148.5" cy="148.5" r="148.5"/>
					</g>
				</g>
			</g>
		</g>
	</g>
	<path style="fill:#D6B68B;" d="M295.141,124.99l-86.205-86.23L87.903,242.58l54.296,54.278c2.091,0.087,4.189,0.142,6.301,0.142
		c82.014,0,148.5-66.486,148.5-148.5C297,140.499,296.359,132.648,295.141,124.99z"/>
	<g>
		<path style="fill:#5E4534;" d="M113.525,248h-12.549c-10.204,0-18.475-8.272-18.475-18.475V51.975
			c0-10.204,8.272-18.475,18.475-18.475h12.549C123.728,33.5,132,41.772,132,51.975v177.549C132,239.728,123.728,248,113.525,248z"
			/>
	</g>
	<g>
		<rect x="82.5" y="66" style="fill:#F86E51;" width="49.5" height="16.5"/>
	</g>
	<g>
		<path style="fill:#503B2C;" d="M183.476,33.5h12.549c10.204,0,18.475,8.272,18.475,18.475v177.549
			c0,10.204-8.272,18.475-18.475,18.475h-12.549C173.272,248,165,239.728,165,229.525V51.976C165,41.772,173.272,33.5,183.476,33.5z
			"/>
	</g>
	<g>
		<rect x="165" y="198" style="fill:#E04332;" width="49.5" height="16.5"/>
	</g>
</g>
<g>
</g>
<g>
</g>
<g>
</g>
<g>
</g>
<g>
</g>
<g>
</g>
<g>
</g>
<g>
</g>
<g>
</g>
<g>
</g>
<g>
</g>
<g>
</g>
<g>
</g>
<g>
</g>
<g>
</g>
</svg>
