<?xml version="1.0" encoding="iso-8859-1"?>
<!-- Generator: Adobe Illustrator 19.0.0, SVG Export Plug-In . SVG Version: 6.00 Build 0)  -->
<svg version="1.1" id="Layer_1" xmlns="http://www.w3.org/2000/svg" xmlns:xlink="http://www.w3.org/1999/xlink" x="0px" y="0px"
	 viewBox="0 0 297 297" style="enable-background:new 0 0 297 297;" xml:space="preserve">
<g>
	<g>
		<g>
			<g>
				<circle style="fill:#4F2B4F;" cx="148.5" cy="148.5" r="148.5"/>
			</g>
		</g>
	</g>
	<path style="fill:#412242;" d="M220.552,107.908l-178.634,79.64l109.416,109.416c69.652-1.305,127.568-50.559,142.127-116.14
		L220.552,107.908z"/>
	<g>
		<path style="fill:#FFFFFF;" d="M231,198c18.225,0,33-14.775,33-33s-14.775-33-33-33c0-18.225-14.775-33-33-33
			c-6.56,0-12.668,1.922-17.806,5.223C175.088,82.321,155.457,66,132,66c-24.148,0-44.246,17.295-48.61,40.172
			c-13.778,1.496-24.609,12.808-25.348,26.8C43.662,136.534,33,149.519,33,165c0,18.225,14.775,33,33,33H231z"/>
	</g>
	<g>
		<path style="fill:#E3E5E4;" d="M231,132c0-18.225-14.775-33-33-33c-6.56,0-12.668,1.922-17.806,5.223
			c-3.792-16.264-15.597-29.444-31.027-35.155V198H231c18.225,0,33-14.775,33-33S249.225,132,231,132z"/>
	</g>
	<g>
		<path style="fill:#32373B;" d="M138.259,105.852l-44.269,9.974v39.277c-4.676-1.794-10.933-0.182-15.563,4.449
			c-5.852,5.852-6.888,14.302-2.315,18.875s13.024,3.537,18.875-2.315c3.229-3.229,4.988-7.248,5.151-10.971h0.016V133.29
			l31.941-7.369v19.208c-4.676-1.794-10.933-0.182-15.563,4.449c-5.852,5.852-6.888,14.302-2.315,18.875s13.024,3.537,18.875-2.315
			c3.229-3.229,4.988-7.248,5.151-10.971h0.016V105.852z M100.154,126.934v-6.14l31.941-7.152v5.877L100.154,126.934z"/>
	</g>
</g>
<g>
</g>
<g>
</g>
<g>
</g>
<g>
</g>
<g>
</g>
<g>
</g>
<g>
</g>
<g>
</g>
<g>
</g>
<g>
</g>
<g>
</g>
<g>
</g>
<g>
</g>
<g>
</g>
<g>
</g>
</svg>
