<?xml version="1.0" encoding="iso-8859-1"?>
<!-- Generator: Adobe Illustrator 19.0.0, SVG Export Plug-In . SVG Version: 6.00 Build 0)  -->
<svg version="1.1" id="Layer_1" xmlns="http://www.w3.org/2000/svg" xmlns:xlink="http://www.w3.org/1999/xlink" x="0px" y="0px"
	 viewBox="0 0 297 297" style="enable-background:new 0 0 297 297;" xml:space="preserve">
<g>
	<g>
		<g>
			<g>
				<g>
					<g>
						<circle style="fill:#32373B;" cx="148.5" cy="148.5" r="148.5"/>
					</g>
				</g>
			</g>
		</g>
	</g>
	<path style="fill:#262626;" d="M192.674,60.167c-1.743,2.62-3.056,5.538-4.174,8.333c-16,43-31,89-80,108c-17,7-24,36-25,58
		c0,2.271-3.809,2.178-5.084,4.356l58.295,57.679c3.89,0.306,7.821,0.465,11.79,0.465c76.875,0,140.107-58.415,147.729-133.279
		L192.674,60.167z"/>
	<g>
		<path style="fill:#F86E51;" d="M192.674,60.167h-88.349c-3.186,6.16-5.827,13.373-7.831,21.667h104.011
			C198.501,73.539,195.86,66.327,192.674,60.167z"/>
	</g>
	<g>
		<path style="fill:#E0563F;" d="M192.674,60.167h-44.507v21.667h52.339C198.501,73.539,195.86,66.327,192.674,60.167z"/>
	</g>
	<g>
		<path style="fill:#F9B65F;" d="M96.494,81.833c-2.781,11.508-4.328,25.111-4.328,41c0,40.194,9.815,85.366,24.751,113.667h63.164
			c14.936-28.301,24.751-73.473,24.751-113.667c0-15.889-1.547-29.492-4.328-41H96.494z"/>
	</g>
	<g>
		<path style="fill:#E09944;" d="M204.833,122.833c0-15.889-1.547-29.492-4.328-41h-52.339V236.5h31.915
			C195.018,208.199,204.833,163.027,204.833,122.833z"/>
	</g>
	<g>
		<path style="fill:#FFFFFF;" d="M215.998,240.001c-1.524,0-2.927-1.004-3.364-2.543l-15.641-54.974h-96.986l-15.641,54.974
			c-0.528,1.859-2.465,2.938-4.324,2.408c-1.859-0.528-2.938-2.465-2.408-4.324l16.363-57.516c0.428-1.504,1.802-2.542,3.366-2.542
			h102.273c1.564,0,2.938,1.038,3.366,2.542l16.363,57.516c0.529,1.859-0.549,3.796-2.408,4.324
			C216.638,239.957,216.315,240.001,215.998,240.001z"/>
	</g>
	<g>
		<path style="fill:#E8E5E2;" d="M219.366,235.542l-16.363-57.516c-0.428-1.504-1.802-2.542-3.366-2.542h-51.47v7h48.826
			l15.641,54.974c0.438,1.539,1.84,2.543,3.364,2.543c0.317,0,0.64-0.044,0.96-0.135
			C218.817,239.338,219.896,237.401,219.366,235.542z"/>
	</g>
	<path style="fill:#FFFFFF;" d="M202.391,78.8H94.609c-1.933,0-3.5,1.567-3.5,3.5s1.567,3.5,3.5,3.5H145v12.1
		c0,1.933,1.567,3.5,3.5,3.5s3.5-1.567,3.5-3.5V85.8h50.391c1.933,0,3.5-1.567,3.5-3.5S204.323,78.8,202.391,78.8z"/>
	<path style="fill:#E8E5E2;" d="M202.391,78.8h-54.224v22.567c0.111,0.011,0.219,0.034,0.333,0.034c1.933,0,3.5-1.567,3.5-3.5V85.8
		h50.391c1.933,0,3.5-1.567,3.5-3.5S204.323,78.8,202.391,78.8z"/>
</g>
<g>
</g>
<g>
</g>
<g>
</g>
<g>
</g>
<g>
</g>
<g>
</g>
<g>
</g>
<g>
</g>
<g>
</g>
<g>
</g>
<g>
</g>
<g>
</g>
<g>
</g>
<g>
</g>
<g>
</g>
</svg>
