<?xml version="1.0" encoding="iso-8859-1"?>
<!-- Generator: Adobe Illustrator 19.0.0, SVG Export Plug-In . SVG Version: 6.00 Build 0)  -->
<svg version="1.1" id="Layer_1" xmlns="http://www.w3.org/2000/svg" xmlns:xlink="http://www.w3.org/1999/xlink" x="0px" y="0px"
	 viewBox="0 0 297 297" style="enable-background:new 0 0 297 297;" xml:space="preserve">
<g>
	<g>
		<g>
			<g>
				<circle style="fill:#5E4534;" cx="148.5" cy="148.5" r="148.5"/>
			</g>
		</g>
	</g>
	<path style="fill:#422E20;" d="M185.041,52.832c-19.652,23.92-42.217,42.26-65.541,62.668c-3,4-5,9-7,14c-4,16,1,34-5,48
		c-11.564,24.781-29.044,49.081-52.979,63.954l48.384,48.403C117.273,294.489,132.592,297,148.5,297
		c76.784,0,139.953-58.277,147.698-133.012L185.041,52.832z"/>
	<g>
		<path style="fill:#E67E22;" d="M244.278,112.067c-4.297-4.295-11.26-4.295-15.557,0l-59.341,59.341
			c-5.848,5.848-13.622,9.068-21.892,9.068c-8.271,0-16.045-3.221-21.893-9.068c-12.07-12.071-12.07-31.713,0-43.784l59.341-59.341
			c4.296-4.296,4.296-11.261,0-15.557c-4.297-4.295-11.26-4.295-15.557,0l-59.341,59.341c-17.982,17.982-20.297,45.782-6.96,66.301
			l-31.666,31.666c-0.999-0.161-2.013-0.264-3.045-0.264c-5.04,0-9.777,1.962-13.341,5.525c-3.564,3.563-5.526,8.302-5.526,13.342
			c0,5.039,1.962,9.777,5.526,13.342c3.678,3.678,8.51,5.516,13.341,5.516s9.663-1.838,13.341-5.516c0,0,0,0,0.001,0
			c3.563-3.564,5.525-8.303,5.525-13.342c0-1.033-0.103-2.047-0.264-3.047l31.66-31.66c8.514,5.556,18.454,8.546,28.859,8.546
			c14.146,0,27.446-5.509,37.448-15.512l59.341-59.341C248.574,123.328,248.574,116.363,244.278,112.067z"/>
	</g>
	<g>
		<path style="fill:#C1611A;" d="M184.937,68.283c4.296-4.296,4.296-11.261,0-15.557c-4.297-4.295-11.26-4.295-15.557,0
			L148.167,73.94v31.113L184.937,68.283z"/>
		<path style="fill:#C1611A;" d="M244.278,112.067c-4.297-4.295-11.26-4.295-15.557,0l-59.341,59.341
			c-5.687,5.687-13.198,8.88-21.213,9.052v22c13.892-0.174,26.928-5.653,36.77-15.495l59.341-59.341
			C248.574,123.328,248.574,116.363,244.278,112.067z"/>
	</g>
</g>
<g>
</g>
<g>
</g>
<g>
</g>
<g>
</g>
<g>
</g>
<g>
</g>
<g>
</g>
<g>
</g>
<g>
</g>
<g>
</g>
<g>
</g>
<g>
</g>
<g>
</g>
<g>
</g>
<g>
</g>
</svg>
