<?xml version="1.0" encoding="iso-8859-1"?>
<!-- Generator: Adobe Illustrator 19.0.0, SVG Export Plug-In . SVG Version: 6.00 Build 0)  -->
<svg version="1.1" id="Layer_1" xmlns="http://www.w3.org/2000/svg" xmlns:xlink="http://www.w3.org/1999/xlink" x="0px" y="0px"
	 viewBox="0 0 297 297" style="enable-background:new 0 0 297 297;" xml:space="preserve">
<g>
	<g>
		<g>
			<g>
				<g>
					<g>
						<circle style="fill:#C0C0B8;" cx="148.5" cy="148.5" r="148.5"/>
					</g>
				</g>
			</g>
		</g>
	</g>
	<path style="fill:#A0A095;" d="M293.983,118.57l-59.755-59.713L63.294,228.706l67.205,67.205C136.4,296.624,142.406,297,148.5,297
		c82.014,0,148.5-66.486,148.5-148.5C297,138.248,295.961,128.238,293.983,118.57z"/>
	<g>
		<path style="fill:#5E4534;" d="M81.517,57.078c-5.591-4.173-13.398-3.61-18.331,1.324l0,0c-4.993,4.993-5.502,12.917-1.189,18.508
			l11.55,14.972l4.732,3.38c2.982,2.13,7.067,1.792,9.659-0.799l-0.071,0.071l134.174,134.173c3.222,3.222,8.445,3.222,11.667,0l0,0
			c3.222-3.222,3.222-8.445,0-11.667L99.533,82.866l-0.071,0.071c2.591-2.591,2.929-6.677,0.799-9.659l-3.38-4.732L81.517,57.078z"
			/>
	</g>
	<g>
		<path style="fill:#905835;" d="M234.922,76.517c4.173-5.591,3.61-13.398-1.323-18.331l0,0c-4.993-4.993-12.917-5.502-18.508-1.189
			l-14.972,11.55l-3.38,4.732c-2.13,2.982-1.792,7.067,0.799,9.659l-0.071-0.071L63.294,217.039c-3.222,3.222-3.222,8.445,0,11.667
			l0,0c3.222,3.222,8.445,3.222,11.667,0L209.134,94.533l-0.071-0.071c2.591,2.591,6.677,2.929,9.659,0.799l4.732-3.38
			L234.922,76.517z"/>
	</g>
	<g>
		<path style="fill:#473325;" d="M233.706,217.039L148.167,131.5v23.334l73.872,73.872c3.222,3.222,8.446,3.222,11.667,0
			C236.928,225.484,236.928,220.261,233.706,217.039z"/>
	</g>
	<g>
		<path style="fill:#774225;" d="M233.599,58.186c-4.993-4.993-12.917-5.502-18.508-1.189l-14.972,11.55l-3.38,4.732
			c-2.13,2.982-1.792,7.067,0.799,9.659l-0.071-0.071l-49.3,49.3V155.5l60.967-60.967l-0.071-0.072
			c2.591,2.592,6.677,2.93,9.659,0.799l4.731-3.38l11.469-15.364C239.096,70.926,238.532,63.119,233.599,58.186z"/>
	</g>
</g>
<g>
</g>
<g>
</g>
<g>
</g>
<g>
</g>
<g>
</g>
<g>
</g>
<g>
</g>
<g>
</g>
<g>
</g>
<g>
</g>
<g>
</g>
<g>
</g>
<g>
</g>
<g>
</g>
<g>
</g>
</svg>
