<?xml version="1.0" encoding="iso-8859-1"?>
<!-- Generator: Adobe Illustrator 19.0.0, SVG Export Plug-In . SVG Version: 6.00 Build 0)  -->
<svg version="1.1" id="Layer_1" xmlns="http://www.w3.org/2000/svg" xmlns:xlink="http://www.w3.org/1999/xlink" x="0px" y="0px"
	 viewBox="0 0 297 297" style="enable-background:new 0 0 297 297;" xml:space="preserve">
<g>
	<g>
		<g>
			<g>
				<g>
					<g>
						<circle style="fill:#5E4534;" cx="148.5" cy="148.5" r="148.5"/>
					</g>
				</g>
			</g>
		</g>
	</g>
	<path style="fill:#422E20;" d="M295.317,126.083l-78.668-78.668L104.264,156.476c10.774,31.345-1.521,64.725-9.646,96.446
		l43.726,43.726C141.7,296.874,145.085,297,148.5,297c82.014,0,148.5-66.486,148.5-148.5
		C297,140.88,296.424,133.395,295.317,126.083z"/>
	<g>
		<path style="fill:#D8C46C;" d="M163.382,103.611c-0.768,0-1.536-0.293-2.122-0.879c-1.171-1.172-1.171-3.071,0.001-4.243
			l51.118-51.102c1.172-1.17,3.071-1.171,4.243,0.001c1.171,1.172,1.171,3.071-0.001,4.243l-51.118,51.102
			C164.917,103.318,164.149,103.611,163.382,103.611z"/>
	</g>
	<g>
		<path style="fill:#E8D579;" d="M133.618,103.611c-0.768,0-1.535-0.293-2.121-0.878L80.379,51.632
			c-1.172-1.172-1.172-3.071-0.001-4.243c1.172-1.172,3.071-1.171,4.243-0.001l51.118,51.102c1.172,1.172,1.172,3.071,0.001,4.243
			C135.154,103.318,134.386,103.611,133.618,103.611z"/>
	</g>
	<g>
		<path style="fill:#F0C082;" d="M148.5,254.5c-3.866,0-7-3.134-7-7V165c0-3.866,3.134-7,7-7s7,3.134,7,7v82.5
			C155.5,251.366,152.366,254.5,148.5,254.5z"/>
	</g>
	<g>
		<path style="fill:#DDAA72;" d="M148.667,158.008v96.483c3.788-0.09,6.833-3.182,6.833-6.992V165
			C155.5,161.19,152.455,158.098,148.667,158.008z"/>
	</g>
	<g>
		<path style="fill:#DDAA72;" d="M197.992,254.501c-3.269,0-6.19-2.301-6.856-5.628l-16.5-82.5c-0.758-3.791,1.7-7.479,5.491-8.237
			c3.795-0.761,7.479,1.7,8.237,5.491l16.5,82.5c0.758,3.791-1.7,7.479-5.491,8.237
			C198.909,254.457,198.447,254.501,197.992,254.501z"/>
	</g>
	<g>
		<path style="fill:#F0C082;" d="M99.008,254.501c-0.455,0-0.917-0.044-1.381-0.137c-3.791-0.759-6.249-4.446-5.491-8.237l16.5-82.5
			c0.759-3.791,4.443-6.252,8.237-5.491c3.791,0.759,6.249,4.446,5.491,8.237l-16.5,82.5
			C105.198,252.2,102.275,254.501,99.008,254.501z"/>
	</g>
	<g>
		<path style="fill:#A38671;" d="M219.853,115.5c6.28,0,11.203,5.534,10.317,11.751c-5.704,39.997-40.095,87.249-81.669,87.249
			s-75.966-47.251-81.669-87.249c-0.887-6.217,4.036-11.751,10.317-11.751H219.853z"/>
	</g>
	<g>
		<path style="fill:#826856;" d="M219.853,115.5h-71.186v98.997c41.499-0.126,75.806-47.302,81.502-87.246
			C231.056,121.034,226.133,115.5,219.853,115.5z"/>
	</g>
	<g>
		<path style="fill:#E3E5E4;" d="M230.169,127.251c0.887-6.217-4.036-11.751-10.317-11.751H77.147
			c-6.28,0-11.203,5.534-10.317,11.751c0.667,4.679,1.732,9.458,3.15,14.249h157.038
			C228.437,136.709,229.502,131.93,230.169,127.251z"/>
	</g>
	<g>
		<path style="fill:#BEC6C2;" d="M219.853,115.5h-71.186v26h78.352c1.418-4.791,2.483-9.57,3.15-14.249
			C231.056,121.034,226.133,115.5,219.853,115.5z"/>
	</g>
</g>
<g>
</g>
<g>
</g>
<g>
</g>
<g>
</g>
<g>
</g>
<g>
</g>
<g>
</g>
<g>
</g>
<g>
</g>
<g>
</g>
<g>
</g>
<g>
</g>
<g>
</g>
<g>
</g>
<g>
</g>
</svg>
