<?xml version="1.0" encoding="iso-8859-1"?>
<!-- Generator: Adobe Illustrator 19.0.0, SVG Export Plug-In . SVG Version: 6.00 Build 0)  -->
<svg version="1.1" id="Layer_1" xmlns="http://www.w3.org/2000/svg" xmlns:xlink="http://www.w3.org/1999/xlink" x="0px" y="0px"
	 viewBox="0 0 297 297" style="enable-background:new 0 0 297 297;" xml:space="preserve">
<g>
	<g>
		<g>
			<g>
				<g>
					<g>
						<circle style="fill:#CBE3E3;" cx="148.5" cy="148.5" r="148.5"/>
					</g>
				</g>
			</g>
		</g>
	</g>
	<path style="fill:#9AB5B4;" d="M240.75,138.25L50.76,238.494l50.988,50.988c14.7,4.872,30.416,7.518,46.752,7.518
		c76.067,0,138.765-57.195,147.46-130.924L240.75,138.25z"/>
	<path style="fill:#345065;" d="M214.5,86.5H95.561c-2.019-5.254-7.104-9-13.061-9c-7.72,0-14,6.28-14,14s6.28,14,14,14
		c5.957,0,11.042-3.746,13.061-9H214.5c2.762,0,5-2.238,5-5S217.262,86.5,214.5,86.5z"/>
	<path style="fill:#2D4A5B;" d="M214.5,86.5h-66.833v10H214.5c2.762,0,5-2.238,5-5S217.262,86.5,214.5,86.5z"/>
	<g>
		<rect x="57.75" y="148.5" style="fill:#5D7486;" width="181.5" height="82.5"/>
	</g>
	<g>
		<rect x="148.5" y="148.5" style="fill:#4C6270;" width="90.75" height="82.5"/>
	</g>
	<path style="fill:#8FB3C1;" d="M92.215,189.75l19.507-39.014c1.235-2.47,0.234-5.474-2.235-6.708
		c-2.47-1.236-5.474-0.235-6.708,2.235L86.625,178.57l-16.153-32.307c-1.234-2.47-4.237-3.472-6.708-2.235
		c-2.47,1.234-3.471,4.238-2.235,6.708l19.507,39.014l-19.507,39.014c-1.235,2.47-0.234,5.474,2.235,6.708
		c0.718,0.359,1.48,0.529,2.232,0.529c1.834,0,3.6-1.013,4.476-2.765l16.153-32.307l16.153,32.307
		c0.876,1.752,2.642,2.765,4.476,2.765c0.751,0,1.515-0.17,2.232-0.529c2.47-1.234,3.471-4.238,2.235-6.708L92.215,189.75z"/>
	<path style="fill:#8FB3C1;" d="M154.09,189.75l19.507-39.014c1.235-2.47,0.234-5.474-2.235-6.708
		c-2.47-1.236-5.474-0.235-6.708,2.235L148.5,178.57l-16.153-32.307c-1.234-2.47-4.238-3.472-6.708-2.235
		c-2.47,1.234-3.471,4.238-2.235,6.708l19.507,39.014l-19.507,39.014c-1.235,2.47-0.234,5.474,2.235,6.708
		c0.718,0.359,1.48,0.529,2.232,0.529c1.834,0,3.6-1.013,4.476-2.765L148.5,200.93l16.153,32.307
		c0.876,1.752,2.642,2.765,4.476,2.765c0.751,0,1.515-0.17,2.232-0.529c2.47-1.234,3.471-4.238,2.235-6.708L154.09,189.75z"/>
	<path style="fill:#82A4AF;" d="M154.09,189.75l19.507-39.014c1.235-2.47,0.234-5.474-2.235-6.708
		c-2.47-1.236-5.474-0.235-6.708,2.235L148.5,178.57l-0.833-1.666v25.691l0.833-1.666l16.153,32.307
		c0.876,1.752,2.642,2.765,4.476,2.765c0.751,0,1.515-0.17,2.232-0.529c2.47-1.234,3.471-4.238,2.235-6.708L154.09,189.75z"/>
	<path style="fill:#82A4AF;" d="M215.965,189.75l19.507-39.014c1.235-2.47,0.234-5.474-2.235-6.708
		c-2.469-1.236-5.473-0.235-6.708,2.235l-16.153,32.307l-16.153-32.307c-1.234-2.47-4.236-3.472-6.708-2.235
		c-2.47,1.234-3.471,4.238-2.235,6.708l19.507,39.014l-19.507,39.014c-1.235,2.47-0.234,5.474,2.235,6.708
		c0.718,0.359,1.48,0.529,2.232,0.529c1.834,0,3.6-1.013,4.476-2.765l16.153-32.307l16.153,32.307
		c0.876,1.752,2.642,2.765,4.476,2.765c0.751,0,1.515-0.17,2.232-0.529c2.47-1.234,3.471-4.238,2.235-6.708L215.965,189.75z"/>
	<g>
		<path style="fill:#345065;" d="M56.25,154.75h184.5c4.556,0,8.25-3.694,8.25-8.25l0,0c0-4.556-3.694-8.25-8.25-8.25H56.25
			c-4.556,0-8.25,3.694-8.25,8.25l0,0C48,151.056,51.694,154.75,56.25,154.75z"/>
	</g>
	<g>
		<path style="fill:#2D4A5B;" d="M240.75,138.25h-93.083v16.5h93.083c4.556,0,8.25-3.694,8.25-8.25S245.306,138.25,240.75,138.25z"
			/>
	</g>
	<g>
		<path style="fill:#345065;" d="M56.25,240.75h184.5c4.556,0,8.25-3.694,8.25-8.25l0,0c0-4.556-3.694-8.25-8.25-8.25H56.25
			c-4.556,0-8.25,3.694-8.25,8.25l0,0C48,237.056,51.694,240.75,56.25,240.75z"/>
	</g>
	<g>
		<path style="fill:#2D4A5B;" d="M240.75,224.25h-93.083v16.5h93.083c4.556,0,8.25-3.694,8.25-8.25S245.306,224.25,240.75,224.25z"
			/>
	</g>
</g>
<g>
</g>
<g>
</g>
<g>
</g>
<g>
</g>
<g>
</g>
<g>
</g>
<g>
</g>
<g>
</g>
<g>
</g>
<g>
</g>
<g>
</g>
<g>
</g>
<g>
</g>
<g>
</g>
<g>
</g>
</svg>
