<?xml version="1.0" encoding="iso-8859-1"?>
<!-- Generator: Adobe Illustrator 19.0.0, SVG Export Plug-In . SVG Version: 6.00 Build 0)  -->
<svg version="1.1" id="Layer_1" xmlns="http://www.w3.org/2000/svg" xmlns:xlink="http://www.w3.org/1999/xlink" x="0px" y="0px"
	 viewBox="0 0 297 297" style="enable-background:new 0 0 297 297;" xml:space="preserve">
<g>
	<g>
		<g>
			<g>
				<g>
					<g>
						<circle style="fill:#79302A;" cx="148.5" cy="148.5" r="148.5"/>
					</g>
				</g>
			</g>
		</g>
	</g>
	<path style="fill:#601E1B;" d="M291.632,108.827l-59.165-59.165L66.092,251.817l38.616,38.616
		C118.551,294.699,133.257,297,148.5,297c82.014,0,148.5-66.486,148.5-148.5C297,134.759,295.125,121.457,291.632,108.827z"/>
	<path style="fill:#F86E51;" d="M203,86.5h-98.974c-1.93-4.458-6.353-7.586-11.494-7.586C85.622,78.914,80,84.561,80,91.5
		s5.622,12.586,12.532,12.586c5.141,0,9.564-3.128,11.494-7.586H203c2.762,0,5-2.238,5-5S205.762,86.5,203,86.5z"/>
	<path style="fill:#F86E51;" d="M223.468,45.829c-5.141,0-9.564,3.127-11.494,7.585H113c-2.762,0-5,2.238-5,5s2.238,5,5,5h98.974
		c1.93,4.458,6.353,7.586,11.494,7.586C230.378,71,236,65.354,236,58.414S230.378,45.829,223.468,45.829z"/>
	<path style="fill:#E04332;" d="M203,86.5h-54.333v10H203c2.762,0,5-2.238,5-5S205.762,86.5,203,86.5z"/>
	<path style="fill:#E04332;" d="M223.468,45.829c-5.141,0-9.564,3.127-11.494,7.585h-63.307v10h63.307
		c1.93,4.458,6.353,7.586,11.494,7.586C230.378,71,236,65.354,236,58.414S230.378,45.829,223.468,45.829z"/>
	<g>
		<rect x="70.843" y="129.494" style="fill:#FFCF6D;" width="155.313" height="114.481"/>
	</g>
	<g>
		<rect x="148.667" y="129.495" style="fill:#F9B65F;" width="77.49" height="114.481"/>
	</g>
	<path style="fill:#F86E51;" d="M100.785,186.735l17.195-55.767c0.813-2.64-0.666-5.438-3.305-6.252
		c-2.639-0.812-5.438,0.666-6.252,3.305l-12.871,41.743l-12.871-41.743c-0.815-2.639-3.612-4.121-6.252-3.305
		c-2.639,0.813-4.118,3.612-3.305,6.252l17.195,55.767l-17.195,55.767c-0.813,2.64,0.666,5.438,3.305,6.252
		c0.491,0.151,0.987,0.223,1.476,0.223c2.136,0,4.114-1.38,4.776-3.527l12.871-41.743l12.871,41.743
		c0.663,2.147,2.641,3.527,4.776,3.527c0.488,0,0.984-0.071,1.476-0.223c2.639-0.813,4.118-3.612,3.305-6.252L100.785,186.735z"/>
	<path style="fill:#F86E51;" d="M153.733,186.735l17.195-55.767c0.813-2.64-0.666-5.438-3.305-6.252
		c-2.639-0.812-5.437,0.666-6.252,3.305L148.5,169.764l-12.871-41.744c-0.815-2.639-3.612-4.121-6.252-3.305
		c-2.639,0.813-4.118,3.612-3.305,6.252l17.195,55.767l-17.195,55.767c-0.813,2.64,0.666,5.438,3.305,6.252
		c0.491,0.151,0.987,0.223,1.476,0.223c2.136,0,4.113-1.38,4.776-3.527l12.871-41.744l12.871,41.744
		c0.663,2.147,2.641,3.527,4.776,3.527c0.488,0,0.984-0.071,1.476-0.223c2.639-0.813,4.118-3.612,3.305-6.252L153.733,186.735z"/>
	<path style="fill:#E04332;" d="M153.733,186.735l17.195-55.767c0.813-2.64-0.666-5.438-3.305-6.252
		c-2.639-0.812-5.437,0.666-6.252,3.305l-12.704,41.202v35.024l12.704,41.202c0.663,2.147,2.641,3.527,4.776,3.527
		c0.488,0,0.984-0.071,1.476-0.223c2.639-0.813,4.118-3.612,3.305-6.252L153.733,186.735z"/>
	<path style="fill:#E04332;" d="M206.68,186.735l17.195-55.767c0.813-2.64-0.666-5.438-3.305-6.252
		c-2.639-0.812-5.438,0.666-6.252,3.305l-12.871,41.743l-12.871-41.743c-0.814-2.639-3.613-4.121-6.252-3.305
		c-2.639,0.813-4.118,3.612-3.305,6.252l17.195,55.767l-17.195,55.767c-0.813,2.64,0.666,5.438,3.305,6.252
		c0.491,0.151,0.987,0.223,1.476,0.223c2.136,0,4.114-1.38,4.776-3.527l12.871-41.743l12.871,41.743
		c0.663,2.147,2.641,3.527,4.776,3.527c0.488,0,0.984-0.071,1.476-0.223c2.639-0.813,4.118-3.612,3.305-6.252L206.68,186.735z"/>
	<g>
		<path style="fill:#E67E22;" d="M69.9,135.371h157.2c4.087,0,7.4-3.313,7.4-7.4v-0.714c0-4.087-3.313-7.4-7.4-7.4H69.9
			c-4.087,0-7.4,3.313-7.4,7.4v0.714C62.5,132.058,65.813,135.371,69.9,135.371z"/>
	</g>
	<g>
		<path style="fill:#E67E22;" d="M69.9,253.144h157.2c4.087,0,7.4-3.313,7.4-7.4v-0.714c0-4.087-3.313-7.4-7.4-7.4H69.9
			c-4.087,0-7.4,3.313-7.4,7.4v0.714C62.5,249.83,65.813,253.144,69.9,253.144z"/>
	</g>
	<g>
		<path style="fill:#D35400;" d="M227.1,119.856h-78.433v15.515H227.1c4.087,0,7.4-3.313,7.4-7.4v-0.714
			C234.5,123.169,231.187,119.856,227.1,119.856z"/>
	</g>
	<g>
		<path style="fill:#D35400;" d="M227.1,237.629h-78.433v15.515H227.1c4.087,0,7.4-3.313,7.4-7.4v-0.714
			C234.5,240.942,231.187,237.629,227.1,237.629z"/>
	</g>
</g>
<g>
</g>
<g>
</g>
<g>
</g>
<g>
</g>
<g>
</g>
<g>
</g>
<g>
</g>
<g>
</g>
<g>
</g>
<g>
</g>
<g>
</g>
<g>
</g>
<g>
</g>
<g>
</g>
<g>
</g>
</svg>
