<?xml version="1.0" encoding="iso-8859-1"?>
<!-- Generator: Adobe Illustrator 19.0.0, SVG Export Plug-In . SVG Version: 6.00 Build 0)  -->
<svg version="1.1" id="Layer_1" xmlns="http://www.w3.org/2000/svg" xmlns:xlink="http://www.w3.org/1999/xlink" x="0px" y="0px"
	 viewBox="0 0 297.001 297.001" style="enable-background:new 0 0 297.001 297.001;" xml:space="preserve">
<g>
	<g>
		<g>
			<g>
				<g>
					<g>
						<circle style="fill:#4A3943;" cx="148.501" cy="148.5" r="148.5"/>
					</g>
				</g>
			</g>
		</g>
	</g>
	<path style="fill:#33252E;" d="M288.531,98.976l-47.07-47.07L110.479,188.417c4.599,22.895,9.29,49.408-0.445,70.023l37.81,38.553
		c0.219,0.001,0.437,0.008,0.656,0.008c82.014,0,148.5-66.486,148.5-148.5C297,131.133,294.01,114.467,288.531,98.976z"/>
	<g>
		<g>
			<g>
				<path style="fill:#F4AF30;" d="M88.042,216.168l18.91,39.931c1.6,3.379,6.486,3.138,7.746-0.382l37.185-103.889
					c2.384-6.66-4.05-13.094-10.71-10.71L37.284,178.303c-3.52,1.26-3.761,6.146-0.382,7.746l39.931,18.91
					C81.752,207.288,85.713,211.249,88.042,216.168z"/>
			</g>
			<g>
				<path style="fill:#F86E51;" d="M123.753,164.142l5.469,5.469c1.141,1.141,2.991,1.141,4.132,0L235.066,67.899
					c1.141-1.141,1.141-2.991,0-4.132l-5.469-5.469c-1.141-1.141-2.991-1.141-4.132,0L123.753,160.01
					C122.612,161.151,122.612,163.001,123.753,164.142z"/>
			</g>
			<g>
				<path style="fill:#E04332;" d="M235.066,63.767l-5.469-5.469c-1.141-1.141-2.991-1.141-4.132,0l-71.798,71.798V149.3
					l81.399-81.4C236.208,66.758,236.208,64.908,235.066,63.767z"/>
			</g>
			<g>
				<path style="fill:#79302A;" d="M112.57,173.805l6.99,6.99c0.721,0.721,1.891,0.721,2.612,0l0,0c0.721-0.721,0.721-1.891,0-2.612
					l-6.99-6.99c-0.721-0.721-1.891-0.721-2.612,0l0,0C111.849,171.914,111.849,173.084,112.57,173.805z"/>
			</g>
			<g>
				<path style="fill:#79302A;" d="M99.553,176.052l17.76,17.76c0.865,0.865,2.269,0.865,3.134,0l0,0
					c0.865-0.865,0.865-2.269,0-3.134l-17.76-17.76c-0.865-0.865-2.269-0.865-3.134,0l0,0
					C98.687,173.783,98.687,175.186,99.553,176.052z"/>
			</g>
			<g>
				<circle style="fill:#F86E51;" cx="110.035" cy="219.231" r="2.887"/>
			</g>
			<g>
				<circle style="fill:#F86E51;" cx="110.035" cy="233.004" r="2.887"/>
			</g>
		</g>
		<g>
			<path style="fill:#EDB7AB;" d="M205.7,68.699l30.798-17.643c3.547-2.032,7.479,1.901,5.447,5.447l-17.643,30.798
				c-1.317,2.298-4.451,2.728-6.313,0.866l-13.155-13.155C202.971,73.149,203.402,70.015,205.7,68.699z"/>
		</g>
	</g>
</g>
<g>
</g>
<g>
</g>
<g>
</g>
<g>
</g>
<g>
</g>
<g>
</g>
<g>
</g>
<g>
</g>
<g>
</g>
<g>
</g>
<g>
</g>
<g>
</g>
<g>
</g>
<g>
</g>
<g>
</g>
</svg>
