<?xml version="1.0" encoding="iso-8859-1"?>
<!-- Generator: Adobe Illustrator 19.0.0, SVG Export Plug-In . SVG Version: 6.00 Build 0)  -->
<svg version="1.1" id="Layer_1" xmlns="http://www.w3.org/2000/svg" xmlns:xlink="http://www.w3.org/1999/xlink" x="0px" y="0px"
	 viewBox="0 0 297 297" style="enable-background:new 0 0 297 297;" xml:space="preserve">
<g>
	<g>
		<g>
			<g>
				<circle style="fill:#345065;" cx="148.5" cy="148.5" r="148.5"/>
			</g>
		</g>
	</g>
	<path style="fill:#1F3949;" d="M293.853,117.976L244.93,69.052L53.422,229.134l64.765,64.765c9.787,2.03,19.924,3.101,30.312,3.101
		c82.014,0,148.5-66.486,148.5-148.5C297,138.037,295.912,127.828,293.853,117.976z"/>
	<g>
		<path style="fill:#ECF0F1;" d="M59.084,231h178.833c5.293,0,9.583-4.291,9.583-9.583V75.584c0-5.293-4.291-9.584-9.583-9.584
			H59.084c-5.293,0-9.583,4.291-9.583,9.584v145.833C49.5,226.709,53.791,231,59.084,231z"/>
	</g>
	<g>
		<path style="fill:#D0D5D9;" d="M237.917,66h-90.25v165h90.25c5.293,0,9.583-4.291,9.583-9.583V75.583
			C247.5,70.291,243.209,66,237.917,66z"/>
	</g>
	<g>
		<circle style="fill:#32373B;" cx="184.875" cy="128.625" r="46.125"/>
	</g>
	<g>
		<path style="fill:#2B2B2B;" d="M184.875,82.5c-15.278,0-28.814,7.433-37.208,18.874v54.501
			c8.394,11.441,21.93,18.874,37.208,18.874c25.474,0,46.125-20.651,46.125-46.125S210.349,82.5,184.875,82.5z"/>
	</g>
	<g>
		<circle style="fill:#BDC3C7;" cx="184.875" cy="128.625" r="10"/>
	</g>
	<g>
		<circle style="fill:#32373B;" cx="221" cy="191.5" r="6.5"/>
	</g>
	<g>
		<circle style="fill:#32373B;" cx="191.3" cy="191.5" r="6.5"/>
	</g>
	<g>
		<circle style="fill:#32373B;" cx="161.6" cy="191.5" r="6.5"/>
	</g>
	<g>
		<circle style="fill:#32373B;" cx="131.9" cy="191.5" r="6.5"/>
	</g>
	<g>
		<circle style="fill:#32373B;" cx="102.2" cy="191.5" r="6.5"/>
	</g>
	<g>
		<circle style="fill:#32373B;" cx="72.5" cy="191.5" r="6.5"/>
	</g>
	<g>
		<circle style="fill:#34495E;" cx="221" cy="213.5" r="6.5"/>
	</g>
	<g>
		<circle style="fill:#34495E;" cx="191.3" cy="213.5" r="6.5"/>
	</g>
	<g>
		<circle style="fill:#34495E;" cx="161.6" cy="213.5" r="6.5"/>
	</g>
	<g>
		<circle style="fill:#34495E;" cx="131.9" cy="213.5" r="6.5"/>
	</g>
	<g>
		<circle style="fill:#34495E;" cx="102.2" cy="213.5" r="6.5"/>
	</g>
	<g>
		<circle style="fill:#34495E;" cx="72.5" cy="213.5" r="6.5"/>
	</g>
	<g>
		<rect x="76.5" y="84.25" style="fill:#5D7486;" width="12" height="80.5"/>
	</g>
	<g>
		<rect x="71" y="140.5" style="fill:#32373B;" width="23" height="14"/>
	</g>
</g>
<g>
</g>
<g>
</g>
<g>
</g>
<g>
</g>
<g>
</g>
<g>
</g>
<g>
</g>
<g>
</g>
<g>
</g>
<g>
</g>
<g>
</g>
<g>
</g>
<g>
</g>
<g>
</g>
<g>
</g>
</svg>
