<?xml version="1.0" encoding="iso-8859-1"?>
<!-- Generator: Adobe Illustrator 19.0.0, SVG Export Plug-In . SVG Version: 6.00 Build 0)  -->
<svg version="1.1" id="Layer_1" xmlns="http://www.w3.org/2000/svg" xmlns:xlink="http://www.w3.org/1999/xlink" x="0px" y="0px"
	 viewBox="0 0 297 297" style="enable-background:new 0 0 297 297;" xml:space="preserve">
<g>
	<g>
		<g>
			<g>
				<circle style="fill:#F86E51;" cx="148.5" cy="148.5" r="148.5"/>
			</g>
		</g>
	</g>
	<path style="fill:#D3442D;" d="M296.991,147.824L226.707,77.54L69.785,218.993l78.01,77.998c0.235,0.001,0.469,0.009,0.705,0.009
		c82.014,0,148.5-66.486,148.5-148.5C297,148.274,296.992,148.05,296.991,147.824z"/>
	<g>
		<path style="fill:#F9B65F;" d="M78.875,222.75h139.25c7.111,0,12.875-5.764,12.875-12.875V87.125
			c0-7.111-5.764-12.875-12.875-12.875H78.875C71.764,74.25,66,80.014,66,87.125v122.75C66,216.986,71.764,222.75,78.875,222.75z"/>
	</g>
	<g>
		<path style="fill:#FFA800;" d="M218.125,74.25h-69.958v148.5h69.958c7.11,0,12.875-5.764,12.875-12.875V87.125
			C231,80.014,225.236,74.25,218.125,74.25z"/>
	</g>
	<g>
		<rect x="92" y="90.75" style="fill:#ECF0F1;" width="14" height="115.5"/>
	</g>
	<g>
		<rect x="125" y="90.75" style="fill:#ECF0F1;" width="14" height="115.5"/>
	</g>
	<g>
		<rect x="158" y="90.75" style="fill:#ECF0F1;" width="14" height="115.5"/>
	</g>
	<g>
		<rect x="191" y="90.75" style="fill:#ECF0F1;" width="14" height="115.5"/>
	</g>
	<g>
		<rect x="115.5" y="108.5" style="fill:#32373B;" width="33" height="14"/>
	</g>
	<g>
		<rect x="82.5" y="174.5" style="fill:#32373B;" width="33" height="14"/>
	</g>
	<g>
		<rect x="148.5" y="141.5" style="fill:#32373B;" width="33" height="14"/>
	</g>
	<g>
		<rect x="181.5" y="174.5" style="fill:#32373B;" width="33" height="14"/>
	</g>
</g>
<g>
</g>
<g>
</g>
<g>
</g>
<g>
</g>
<g>
</g>
<g>
</g>
<g>
</g>
<g>
</g>
<g>
</g>
<g>
</g>
<g>
</g>
<g>
</g>
<g>
</g>
<g>
</g>
<g>
</g>
</svg>
