<?xml version="1.0" encoding="iso-8859-1"?>
<!-- Generator: Adobe Illustrator 19.0.0, SVG Export Plug-In . SVG Version: 6.00 Build 0)  -->
<svg version="1.1" id="Layer_1" xmlns="http://www.w3.org/2000/svg" xmlns:xlink="http://www.w3.org/1999/xlink" x="0px" y="0px"
	 viewBox="0 0 297 297" style="enable-background:new 0 0 297 297;" xml:space="preserve">
<g>
	<g>
		<g>
			<g>
				<g>
					<g>
						<circle style="fill:#C3A99A;" cx="148.5" cy="148.5" r="148.5"/>
					</g>
				</g>
			</g>
		</g>
	</g>
	<path style="fill:#A08172;" d="M296.268,133.706L229.96,67.398L69.288,245.642l48.031,48.068c10.055,2.149,20.484,3.29,31.18,3.29
		c82.014,0,148.5-66.486,148.5-148.5C297,143.507,296.749,138.572,296.268,133.706z"/>
	<g>
		<g>
			<path style="fill:#905835;" d="M86.84,247.5H74.697c-4.859,0-8.799-3.939-8.799-8.799V70.329c0-2.391,1.938-4.329,4.329-4.329
				H91.31c2.391,0,4.329,1.938,4.329,4.329v168.373C95.639,243.561,91.7,247.5,86.84,247.5z"/>
		</g>
		<g>
			<path style="fill:#905835;" d="M120.706,227.333h-12.144c-4.859,0-8.799-3.939-8.799-8.799V70.329
				c0-2.391,1.938-4.329,4.329-4.329h21.083c2.391,0,4.329,1.938,4.329,4.329v148.206
				C129.505,223.394,125.565,227.333,120.706,227.333z"/>
		</g>
		<g>
			<path style="fill:#905835;" d="M154.572,207.167h-12.144c-4.859,0-8.799-3.939-8.799-8.799V70.329
				c0-2.391,1.938-4.329,4.329-4.329h21.083c2.391,0,4.329,1.938,4.329,4.329v128.039
				C163.37,203.227,159.431,207.167,154.572,207.167z"/>
		</g>
		<g>
			<path style="fill:#824829;" d="M159.042,66h-10.875v141.167h6.405c4.859,0,8.799-3.939,8.799-8.798V70.329
				C163.37,67.938,161.432,66,159.042,66z"/>
		</g>
		<g>
			<path style="fill:#824829;" d="M188.438,187h-12.144c-4.859,0-8.799-3.939-8.799-8.799V70.329c0-2.391,1.938-4.329,4.329-4.329
				h21.083c2.391,0,4.329,1.938,4.329,4.329v107.873C197.236,183.061,193.297,187,188.438,187z"/>
		</g>
		<g>
			<path style="fill:#824829;" d="M222.303,166.833H210.16c-4.859,0-8.799-3.939-8.799-8.799V70.329
				c0-2.391,1.938-4.329,4.329-4.329h21.083c2.391,0,4.329,1.938,4.329,4.329v87.706
				C231.102,162.894,227.163,166.833,222.303,166.833z"/>
		</g>
		<g>
			<path style="fill:#503B2C;" d="M62.486,116.417h172.028c2.616,0,4.736-2.12,4.736-4.736V91.208c0-2.616-2.12-4.736-4.736-4.736
				H62.486c-2.616,0-4.736,2.12-4.736,4.736v20.472C57.75,114.296,59.87,116.417,62.486,116.417z"/>
		</g>
		<g>
			<path style="fill:#473224;" d="M234.514,86.472h-86.347v29.944h86.347c2.616,0,4.736-2.12,4.736-4.736V91.208
				C239.25,88.593,237.13,86.472,234.514,86.472z"/>
		</g>
	</g>
	<g>
		<path style="fill:#F0C082;" d="M214.5,104.944h-132c-1.933,0-3.5-1.567-3.5-3.5s1.567-3.5,3.5-3.5h132c1.933,0,3.5,1.567,3.5,3.5
			S216.433,104.944,214.5,104.944z"/>
	</g>
	<g>
		<path style="fill:#E2AA6D;" d="M214.5,97.944h-66.333v7H214.5c1.933,0,3.5-1.567,3.5-3.5S216.433,97.944,214.5,97.944z"/>
	</g>
</g>
<g>
</g>
<g>
</g>
<g>
</g>
<g>
</g>
<g>
</g>
<g>
</g>
<g>
</g>
<g>
</g>
<g>
</g>
<g>
</g>
<g>
</g>
<g>
</g>
<g>
</g>
<g>
</g>
<g>
</g>
</svg>
