<?xml version="1.0" encoding="iso-8859-1"?>
<!-- Generator: Adobe Illustrator 19.0.0, SVG Export Plug-In . SVG Version: 6.00 Build 0)  -->
<svg version="1.1" id="Layer_1" xmlns="http://www.w3.org/2000/svg" xmlns:xlink="http://www.w3.org/1999/xlink" x="0px" y="0px"
	 viewBox="0 0 297 297" style="enable-background:new 0 0 297 297;" xml:space="preserve">
<g>
	<g>
		<g>
			<g>
				<g>
					<g>
						<circle style="fill:#345065;" cx="148.5" cy="148.5" r="148.5"/>
					</g>
				</g>
			</g>
		</g>
	</g>
	<path style="fill:#1F3949;" d="M296.243,133.429l-64.082-64.082L67.343,230.157l66.086,66.086c4.956,0.5,9.983,0.757,15.071,0.757
		c82.014,0,148.5-66.486,148.5-148.5C297,143.412,296.743,138.385,296.243,133.429z"/>
	<g>
		<path style="fill:#FFFFFF;" d="M60.953,214.338L214.339,60.953c2.604-2.604,6.825-2.604,9.429,0l12.279,12.279
			c2.604,2.604,2.604,6.825,0,9.429L82.661,236.047c-2.604,2.604-6.825,2.604-9.429,0l-12.279-12.279
			C58.349,221.163,58.349,216.942,60.953,214.338z"/>
	</g>
	<g>
		<path style="fill:#E3E5E4;" d="M236.047,73.233l-12.279-12.279c-2.604-2.604-6.825-2.604-9.429,0l-65.672,65.671v43.417
			l87.38-87.379C238.651,80.058,238.651,75.837,236.047,73.233z"/>
	</g>
	<g>
		<path style="fill:#9BA4AA;" d="M175.489,92.895l23.318-23.318c1.826-1.826,4.787-1.826,6.614,0l22.002,22.002
			c1.826,1.826,1.826,4.787,0,6.614l-23.318,23.318c-1.826,1.826-4.787,1.826-6.614,0l-22.002-22.002
			C173.663,97.683,173.663,94.722,175.489,92.895z"/>
	</g>
	<g>
		<path style="fill:#9BA4AA;" d="M154.411,113.973l2.979-2.979c0.812-0.812,2.129-0.812,2.941,0l25.675,25.675
			c0.812,0.812,0.812,2.129,0,2.941l-2.979,2.979c-0.812,0.812-2.129,0.812-2.941,0l-25.675-25.675
			C153.599,116.102,153.599,114.785,154.411,113.973z"/>
	</g>
	<g>
		<path style="fill:#A9B2B7;" d="M141.09,127.294l2.979-2.979c0.812-0.812,2.129-0.812,2.941,0l25.675,25.675
			c0.812,0.812,0.812,2.129,0,2.941l-2.979,2.979c-0.812,0.812-2.129,0.812-2.941,0l-25.675-25.675
			C140.278,129.423,140.278,128.106,141.09,127.294z"/>
	</g>
	<g>
		<path style="fill:#9BA4AA;" d="M172.685,149.99l-24.018-24.018v11.841l18.097,18.098c0.812,0.812,2.129,0.812,2.941,0l2.979-2.979
			C173.497,152.119,173.497,150.802,172.685,149.99z"/>
	</g>
	<g>
		<circle style="fill:#32373B;" cx="137.646" cy="159.354" r="7.675"/>
	</g>
	<g>
		<circle style="fill:#32373B;" cx="115.937" cy="181.063" r="7.675"/>
	</g>
	<g>
		<circle style="fill:#32373B;" cx="94.228" cy="202.771" r="7.675"/>
	</g>
</g>
<g>
</g>
<g>
</g>
<g>
</g>
<g>
</g>
<g>
</g>
<g>
</g>
<g>
</g>
<g>
</g>
<g>
</g>
<g>
</g>
<g>
</g>
<g>
</g>
<g>
</g>
<g>
</g>
<g>
</g>
</svg>
