<?xml version="1.0" encoding="iso-8859-1"?>
<!-- Generator: Adobe Illustrator 19.0.0, SVG Export Plug-In . SVG Version: 6.00 Build 0)  -->
<svg version="1.1" id="Layer_1" xmlns="http://www.w3.org/2000/svg" xmlns:xlink="http://www.w3.org/1999/xlink" x="0px" y="0px"
	 viewBox="0 0 297 297" style="enable-background:new 0 0 297 297;" xml:space="preserve">
<g>
	<g>
		<g>
			<g>
				<circle style="fill:#79302A;" cx="148.5" cy="148.5" r="148.5"/>
			</g>
		</g>
	</g>
	<path style="fill:#601E1B;" d="M236.718,95.092L65.946,213.739l83.244,83.252c79.447-0.363,144.149-63.107,147.652-141.776
		L236.718,95.092z"/>
	<g>
		<path style="fill:#F9B65F;" d="M88.942,222.9h119.116c18.47,0,33.442-14.973,33.442-33.442V104.63
			c0-6.589-5.341-11.93-11.93-11.93H129.9l-15.106-15.106c-2.237-2.237-5.272-3.494-8.436-3.494H67.43
			c-6.589,0-11.93,5.341-11.93,11.93v103.428C55.5,207.927,70.473,222.9,88.942,222.9z"/>
	</g>
	<g>
		<path style="fill:#D89545;" d="M229.57,92.7h-82.403v130.2h60.891c18.47,0,33.442-14.973,33.442-33.442V104.63
			C241.5,98.041,236.159,92.7,229.57,92.7z"/>
	</g>
	<g>
		<path style="fill:#32373B;" d="M181.5,115.5l-49.47,11.146v43.892c-5.226-2.004-12.217-0.203-17.392,4.971
			c-6.539,6.539-7.697,15.983-2.587,21.093s14.554,3.952,21.093-2.587c3.608-3.608,5.574-8.1,5.757-12.26h0.018v-35.593
			l35.693-8.235v21.465c-5.226-2.004-12.217-0.203-17.392,4.971c-6.539,6.539-7.697,15.983-2.587,21.093s14.554,3.952,21.093-2.587
			c3.608-3.608,5.574-8.1,5.757-12.26h0.018V115.5H181.5z M138.918,139.059v-6.861l35.693-7.992v6.567L138.918,139.059z"/>
	</g>
	<g>
		<path style="fill:#262626;" d="M147.167,123.236v7.115l27.444-6.145v6.567l-27.444,6.371v7.115l27.444-6.332v21.465
			c-5.226-2.004-12.217-0.203-17.392,4.971c-6.539,6.539-7.697,15.983-2.587,21.093s14.554,3.952,21.093-2.587
			c3.608-3.608,5.574-8.1,5.757-12.26h0.018V115.5L147.167,123.236z"/>
	</g>
</g>
<g>
</g>
<g>
</g>
<g>
</g>
<g>
</g>
<g>
</g>
<g>
</g>
<g>
</g>
<g>
</g>
<g>
</g>
<g>
</g>
<g>
</g>
<g>
</g>
<g>
</g>
<g>
</g>
<g>
</g>
</svg>
