<?xml version="1.0" encoding="iso-8859-1"?>
<!-- Generator: Adobe Illustrator 19.0.0, SVG Export Plug-In . SVG Version: 6.00 Build 0)  -->
<svg version="1.1" id="Layer_1" xmlns="http://www.w3.org/2000/svg" xmlns:xlink="http://www.w3.org/1999/xlink" x="0px" y="0px"
	 viewBox="0 0 297 297" style="enable-background:new 0 0 297 297;" xml:space="preserve">
<g>
	<g>
		<g>
			<g>
				<g>
					<g>
						<circle style="fill:#79302A;" cx="148.5" cy="148.5" r="148.5"/>
					</g>
				</g>
			</g>
		</g>
	</g>
	<path style="fill:#601E1B;" d="M293.276,115.326l-57.009-57.009L75.066,220.61l76.349,76.353C232.083,295.408,297,229.54,297,148.5
		C297,137.095,295.71,125.993,293.276,115.326z"/>
	<g>
		<path style="fill:#F86E51;" d="M150.924,194.074c5.217-6.688,20.23-11.275,25.789-16.834
			c11.795-11.795,4.629-30.128-11.098-45.855s-34.06-22.894-45.855-11.098c-5.559,5.559-10.146,20.572-16.834,25.789
			c-13.729,10.71-29.79,5.878-40.383,16.471c-16.383,16.383-8.66,36.884,13.184,58.727s42.345,29.566,58.727,13.184
			C145.047,223.864,140.214,207.804,150.924,194.074z"/>
	</g>
	<g>
		<path style="fill:#DD553E;" d="M165.615,131.385c-5.622-5.622-11.577-10.142-17.448-13.101v79.945
			c0.788-1.403,1.693-2.791,2.757-4.155c5.217-6.688,20.23-11.275,25.789-16.834C188.509,165.445,181.342,147.112,165.615,131.385z"
			/>
	</g>
	<g>
		
			<rect x="167.712" y="62.759" transform="matrix(-0.7071 -0.7071 0.7071 -0.7071 218.7545 329.4074)" style="fill:#D5C295;" width="19.775" height="113.279"/>
	</g>
	<g>
		<polygon style="fill:#C1AA7C;" points="210.659,72.358 148.167,134.85 148.167,162.816 224.642,86.341 		"/>
	</g>
	<g>
		<circle style="fill:#32373B;" cx="130.958" cy="166.042" r="15.537"/>
	</g>
	<g>
		<path style="fill:#32373B;" d="M88.336,191.337l17.327,17.327c1.504,1.504,3.942,1.504,5.445,0l1.946-1.946
			c1.504-1.504,1.504-3.942,0-5.445l-17.327-17.327c-1.504-1.504-3.942-1.504-5.445,0l-1.946,1.946
			C86.833,187.395,86.833,189.833,88.336,191.337z"/>
	</g>
	<g>
		<path style="fill:#8E725E;" d="M199.333,84.757l12.91,12.91c2.269,2.269,5.947,2.269,8.215,0l23.472-23.472
			c2.269-2.269,2.269-5.947,0-8.215l-12.91-12.91c-2.269-2.269-5.947-2.269-8.215,0l-23.472,23.472
			C197.065,78.811,197.065,82.489,199.333,84.757z"/>
	</g>
</g>
<g>
</g>
<g>
</g>
<g>
</g>
<g>
</g>
<g>
</g>
<g>
</g>
<g>
</g>
<g>
</g>
<g>
</g>
<g>
</g>
<g>
</g>
<g>
</g>
<g>
</g>
<g>
</g>
<g>
</g>
</svg>
