<?xml version="1.0" encoding="iso-8859-1"?>
<!-- Generator: Adobe Illustrator 19.0.0, SVG Export Plug-In . SVG Version: 6.00 Build 0)  -->
<svg version="1.1" id="Layer_1" xmlns="http://www.w3.org/2000/svg" xmlns:xlink="http://www.w3.org/1999/xlink" x="0px" y="0px"
	 viewBox="0 0 297 297" style="enable-background:new 0 0 297 297;" xml:space="preserve">
<g>
	<g>
		<g>
			<g>
				<g>
					<g>
						<circle style="fill:#D5C295;" cx="148.5" cy="148.5" r="148.5"/>
					</g>
				</g>
			</g>
		</g>
	</g>
	<path style="fill:#BCA67A;" d="M255.717,107.347l-215.433,81.37L148.62,296.999c81.916-0.065,148.309-66.455,148.378-148.37
		L255.717,107.347z"/>
	<g>
		<path style="fill:#E67E22;" d="M247.604,192.708H49.396c-6.846,0-12.396-5.55-12.396-12.396v-43.709
			c0-6.846,5.55-12.396,12.396-12.396h198.209c6.846,0,12.396,5.55,12.396,12.396v43.709
			C260,187.159,254.45,192.708,247.604,192.708z"/>
	</g>
	<g>
		<path style="fill:#D16718;" d="M247.604,124.208H147.167v68.5h100.437c6.846,0,12.396-5.55,12.396-12.396v-43.708
			C260,129.758,254.45,124.208,247.604,124.208z"/>
	</g>
	<g>
		<path style="fill:#905835;" d="M247.604,172.792H49.396c-6.846,0-12.396-5.55-12.396-12.396v-43.709
			c0-6.846,5.55-12.396,12.396-12.396h198.209c6.846,0,12.396,5.55,12.396,12.396v43.709
			C260,167.242,254.45,172.792,247.604,172.792z"/>
	</g>
	<g>
		<path style="fill:#7A4325;" d="M247.604,104.292H147.167v68.5h100.437c6.846,0,12.396-5.55,12.396-12.396v-43.709
			C260,109.841,254.45,104.292,247.604,104.292z"/>
	</g>
	<g>
		<rect x="49.25" y="172.792" style="fill:#32373B;" width="12" height="13.417"/>
	</g>
	<g>
		<rect x="72.5" y="172.792" style="fill:#32373B;" width="12" height="13.417"/>
	</g>
	<g>
		<rect x="95.75" y="172.792" style="fill:#32373B;" width="12" height="13.417"/>
	</g>
	<g>
		<rect x="119" y="172.792" style="fill:#32373B;" width="12" height="13.417"/>
	</g>
	<g>
		<rect x="142.25" y="172.792" style="fill:#32373B;" width="12" height="13.417"/>
	</g>
	<g>
		<rect x="147.167" y="172.792" style="fill:#2B2B2B;" width="7.083" height="13.417"/>
	</g>
	<g>
		<rect x="165.5" y="172.792" style="fill:#2B2B2B;" width="12" height="13.417"/>
	</g>
	<g>
		<rect x="188.75" y="172.792" style="fill:#2B2B2B;" width="12" height="13.417"/>
	</g>
	<g>
		<rect x="212" y="172.792" style="fill:#2B2B2B;" width="12" height="13.417"/>
	</g>
	<g>
		<rect x="235.25" y="172.792" style="fill:#2B2B2B;" width="12" height="13.417"/>
	</g>
	<g>
		<path style="fill:#FFA800;" d="M206.958,123.196h-11.192v-1.353c0-3.604-2.921-6.525-6.525-6.525h-81.482
			c-3.604,0-6.525,2.921-6.525,6.525v1.353H90.042c-3.575,0-6.473,2.898-6.473,6.473v18.565c0,3.575,2.898,6.473,6.473,6.473h11.192
			v1.353c0,3.604,2.921,6.525,6.525,6.525h81.482c3.604,0,6.525-2.921,6.525-6.525v-1.353h11.192c3.575,0,6.473-2.898,6.473-6.473
			v-18.565C213.431,126.094,210.533,123.196,206.958,123.196z"/>
	</g>
	<g>
		<path style="fill:#D18602;" d="M206.958,123.196h-11.192v-1.353c0-3.604-2.921-6.525-6.525-6.525h-42.074v47.266h42.074
			c3.604,0,6.525-2.922,6.525-6.525v-1.353h11.192c3.575,0,6.473-2.898,6.473-6.473v-18.565
			C213.431,126.094,210.533,123.196,206.958,123.196z"/>
	</g>
</g>
<g>
</g>
<g>
</g>
<g>
</g>
<g>
</g>
<g>
</g>
<g>
</g>
<g>
</g>
<g>
</g>
<g>
</g>
<g>
</g>
<g>
</g>
<g>
</g>
<g>
</g>
<g>
</g>
<g>
</g>
</svg>
