<?xml version="1.0" encoding="iso-8859-1"?>
<!-- Generator: Adobe Illustrator 19.0.0, SVG Export Plug-In . SVG Version: 6.00 Build 0)  -->
<svg version="1.1" id="Layer_1" xmlns="http://www.w3.org/2000/svg" xmlns:xlink="http://www.w3.org/1999/xlink" x="0px" y="0px"
	 viewBox="0 0 297 297" style="enable-background:new 0 0 297 297;" xml:space="preserve">
<g>
	<g>
		<g>
			<g>
				<circle style="fill:#17AB93;" cx="148.5" cy="148.5" r="148.5"/>
			</g>
		</g>
	</g>
	<path style="fill:#0E8C74;" d="M296.966,145.8l-87.722-87.768c-4.73,0.082-11.437-2.455-15.744-3.532c-24-6-47-17-72-9
		c-37,13-50,55-59,93c-4.927,24.633-14.937,46.875-22.034,70.301l86.662,86.661c6.98,1.006,14.114,1.537,21.372,1.537
		c82.014,0,148.5-66.486,148.5-148.5C297,147.597,296.982,146.699,296.966,145.8z"/>
	<g>
		<path style="fill:#BDC3C7;" d="M61.413,214.729c-0.145,0.032-0.29,0.065-0.435,0.097c-12.91,2.886-25.411-6.151-26.796-19.307
			c-1.575-14.966-1.575-30.056,0-45.022c1.385-13.156,13.886-22.193,26.796-19.307c0.145,0.032,0.29,0.065,0.435,0.097
			c10.912,2.439,18.329,12.654,17.152,23.773c-1.263,11.931-1.263,23.963,0,35.894C79.742,202.075,72.325,212.289,61.413,214.729z"
			/>
	</g>
	<g>
		<path style="fill:#BDC3C7;" d="M233.087,214.729c0.145,0.032,0.29,0.065,0.435,0.097c12.91,2.886,25.411-6.151,26.796-19.307
			c1.575-14.966,1.575-30.056,0-45.022c-1.385-13.156-13.886-22.193-26.796-19.307c-0.145,0.032-0.29,0.065-0.435,0.097
			c-10.912,2.439-18.329,12.654-17.152,23.773c1.263,11.931,1.263,23.963,0,35.894C214.758,202.075,222.175,212.289,233.087,214.729
			z"/>
	</g>
	<path style="fill:#393F42;" d="M246.189,148.033c-0.821-7.801-5.166-14.293-11.219-18.162c0.35-3.175,0.53-6.381,0.53-9.614
		c0-47.972-39.028-87-87-87s-87,39.028-87,87c0,3.006,0.154,5.988,0.456,8.944c-6.63,3.761-11.462,10.561-12.333,18.832
		c-1.748,16.604-1.748,33.346,0,49.949c1.144,10.865,9.122,19.192,19.033,21.422V231c0,2.762,2.238,5,5,5s5-2.238,5-5v-11.462
		c0.232-0.045,0.463-0.084,0.696-0.136c0.161-0.036,0.322-0.072,0.483-0.108c12.107-2.706,20.335-14.039,19.029-26.375
		c-1.401-13.237-1.401-26.586,0-39.823c1.306-12.336-6.922-23.669-19.029-26.375c-0.161-0.036-0.322-0.072-0.483-0.108
		c-1.205-0.269-2.406-0.437-3.598-0.525c-0.153-1.932-0.254-3.874-0.254-5.831c0-40.252,32.748-73,73-73s73,32.748,73,73
		c0,1.938-0.1,3.86-0.25,5.774c-1.58,0.038-3.181,0.222-4.79,0.582c-0.161,0.036-0.322,0.072-0.483,0.108
		c-12.107,2.706-20.335,14.039-19.029,26.375c1.402,13.237,1.402,26.586,0,39.823c-1.306,12.336,6.923,23.669,19.029,26.375
		c0.161,0.036,0.322,0.072,0.483,0.108c0.232,0.052,0.464,0.091,0.695,0.136V231c0,2.762,2.238,5,5,5s5-2.238,5-5v-11.596
		c9.911-2.23,17.89-10.557,19.033-21.422C247.937,181.379,247.937,164.637,246.189,148.033z"/>
	<path style="fill:#2B2B2B;" d="M246.189,148.033c-0.821-7.801-5.166-14.293-11.219-18.162c0.35-3.175,0.53-6.381,0.53-9.614
		c0-47.972-39.028-87-87-87c-0.279,0-0.555,0.008-0.833,0.011v14.011c0.279-0.003,0.554-0.021,0.833-0.021c40.252,0,73,32.748,73,73
		c0,1.938-0.1,3.86-0.25,5.774c-1.58,0.038-3.181,0.222-4.79,0.582c-0.161,0.036-0.322,0.072-0.483,0.108
		c-12.107,2.706-20.335,14.039-19.029,26.375c1.402,13.237,1.402,26.586,0,39.823c-1.306,12.336,6.923,23.669,19.029,26.375
		c0.161,0.036,0.322,0.072,0.483,0.108c0.232,0.052,0.464,0.091,0.695,0.136V231c0,2.762,2.238,5,5,5s5-2.238,5-5v-11.596
		c9.911-2.23,17.89-10.557,19.033-21.422C247.937,181.379,247.937,164.637,246.189,148.033z"/>
</g>
<g>
</g>
<g>
</g>
<g>
</g>
<g>
</g>
<g>
</g>
<g>
</g>
<g>
</g>
<g>
</g>
<g>
</g>
<g>
</g>
<g>
</g>
<g>
</g>
<g>
</g>
<g>
</g>
<g>
</g>
</svg>
