<?xml version="1.0" encoding="iso-8859-1"?>
<!-- Generator: Adobe Illustrator 19.0.0, SVG Export Plug-In . SVG Version: 6.00 Build 0)  -->
<svg version="1.1" id="Layer_1" xmlns="http://www.w3.org/2000/svg" xmlns:xlink="http://www.w3.org/1999/xlink" x="0px" y="0px"
	 viewBox="0 0 297 297" style="enable-background:new 0 0 297 297;" xml:space="preserve">
<g>
	<g>
		<g>
			<g>
				<circle style="fill:#17AB93;" cx="148.5" cy="148.5" r="148.5"/>
			</g>
		</g>
	</g>
	<path style="fill:#0E8C74;" d="M295.044,124.409L206.04,35.387L91.12,251.634l44.837,44.834c4.136,0.346,8.317,0.532,12.543,0.532
		c82.014,0,148.5-66.486,148.5-148.5C297,140.296,296.324,132.251,295.044,124.409z"/>
	<g>
		<path style="fill:#595155;" d="M101.111,255.779h94.779c7.793,0,14.111-6.318,14.111-14.111V45.188
			c0-7.793-6.318-14.111-14.111-14.111h-94.779C93.318,31.078,87,37.395,87,45.188v196.48
			C87,249.462,93.318,255.779,101.111,255.779z"/>
	</g>
	<g>
		<path style="fill:#443D41;" d="M195.889,31.078h-47.722V255.78h47.722c7.793,0,14.111-6.318,14.111-14.111V45.188
			C210,37.395,203.682,31.078,195.889,31.078z"/>
	</g>
	<g>
		<path style="fill:#BDC3C7;" d="M109.519,139.169h77.962c3.945,0,7.144-3.198,7.144-7.144V54.062c0-3.945-3.198-7.144-7.144-7.144
			h-77.962c-3.945,0-7.144,3.198-7.144,7.144v77.962C102.375,135.97,105.573,139.169,109.519,139.169z"/>
	</g>
	<g>
		<path style="fill:#9DA5AA;" d="M187.481,46.918h-39.314v92.25h39.314c3.945,0,7.144-3.198,7.144-7.144V54.062
			C194.625,50.117,191.427,46.918,187.481,46.918z"/>
	</g>
	<g>
		<circle style="fill:#FFFFFF;" cx="148.5" cy="195.544" r="46.125"/>
	</g>
	<g>
		<path style="fill:#E3E5E4;" d="M148.5,149.418c-0.112,0-0.221,0.008-0.333,0.009v92.233c0.112,0.001,0.221,0.008,0.333,0.008
			c25.474,0,46.125-20.651,46.125-46.125S173.974,149.418,148.5,149.418z"/>
	</g>
	<g>
		<circle style="fill:#595155;" cx="148.5" cy="195.544" r="15.375"/>
	</g>
	<g>
		<path style="fill:#443D41;" d="M148.5,180.168c-0.112,0-0.221,0.015-0.333,0.017v30.716c0.112,0.002,0.221,0.017,0.333,0.017
			c8.491,0,15.375-6.884,15.375-15.375S156.991,180.168,148.5,180.168z"/>
	</g>
	<g>
		<path style="fill:#32373B;" d="M263.971,108.66c-0.537-1.874-1.549-4.744-3.45-9.008c-4.05-9.082-10.416-9.818-10.416-9.818
			h-5.525v35.204c-4.191-1.608-9.799-0.163-13.949,3.987c-5.245,5.245-6.174,12.819-2.075,16.918s11.673,3.17,16.918-2.075
			c2.894-2.894,4.471-6.496,4.617-9.834h0.014V97.439c2.872-0.224,5.002,0.766,6.366,2.213c3.225,3.423,4.823,7.37,6.316,9.561
			C263.21,109.834,264.178,109.383,263.971,108.66z"/>
	</g>
	<g>
		<path style="fill:#32373B;" d="M78.477,143.872c-0.424-1.48-1.223-3.745-2.724-7.111c-3.197-7.17-8.223-7.751-8.223-7.751h-4.362
			v27.792c-3.309-1.269-7.736-0.129-11.013,3.148c-4.14,4.141-4.874,10.12-1.638,13.356c3.236,3.236,9.216,2.503,13.356-1.638
			c2.285-2.285,3.529-5.129,3.645-7.763h0.011v-28.891c2.267-0.177,3.949,0.605,5.026,1.747c2.546,2.702,3.808,5.819,4.986,7.548
			C77.877,144.799,78.641,144.443,78.477,143.872z"/>
	</g>
</g>
<g>
</g>
<g>
</g>
<g>
</g>
<g>
</g>
<g>
</g>
<g>
</g>
<g>
</g>
<g>
</g>
<g>
</g>
<g>
</g>
<g>
</g>
<g>
</g>
<g>
</g>
<g>
</g>
<g>
</g>
</svg>
