<?xml version="1.0" encoding="iso-8859-1"?>
<!-- Generator: Adobe Illustrator 19.0.0, SVG Export Plug-In . SVG Version: 6.00 Build 0)  -->
<svg version="1.1" id="Layer_1" xmlns="http://www.w3.org/2000/svg" xmlns:xlink="http://www.w3.org/1999/xlink" x="0px" y="0px"
	 viewBox="0 0 297 297" style="enable-background:new 0 0 297 297;" xml:space="preserve">
<g>
	<g>
		<g>
			<g>
				<g>
					<circle style="fill:#345065;" cx="148.5" cy="148.5" r="148.5"/>
				</g>
			</g>
		</g>
	</g>
	<path style="fill:#1F3949;" d="M296.608,137.724l-34.811-34.877L35.85,194.892L137.588,296.6c3.604,0.262,7.242,0.4,10.912,0.4
		c82.014,0,148.5-66.486,148.5-148.5C297,144.875,296.864,141.283,296.608,137.724z"/>
	<g>
		<path style="fill:#97A5AF;" d="M43.167,198h210.667c5.615,0,10.167-4.552,10.167-10.167v-78.667
			C264,103.552,259.448,99,253.833,99H43.167C37.552,99,33,103.552,33,109.166v78.667C33,193.448,37.552,198,43.167,198z"/>
	</g>
	<g>
		<path style="fill:#7C8C96;" d="M253.833,99H148.667v99h105.167c5.615,0,10.167-4.552,10.167-10.167v-78.667
			C264,103.552,259.448,99,253.833,99z"/>
	</g>
	<g>
		<g>
			<g>
				<path style="fill:#FFFFFF;" d="M64.128,190.945H45.507c-1.757,0-3.181-1.424-3.181-3.181v-56.71h24.982v56.71
					C67.308,189.521,65.884,190.945,64.128,190.945z"/>
			</g>
		</g>
		<g>
			<g>
				<path style="fill:#FFFFFF;" d="M101.601,190.945H82.98c-1.757,0-3.181-1.424-3.181-3.181v-56.71h24.982v56.71
					C104.781,189.521,103.357,190.945,101.601,190.945z"/>
			</g>
		</g>
		<g>
			<g>
				<path style="fill:#FFFFFF;" d="M139.074,190.945h-18.621c-1.757,0-3.181-1.424-3.181-3.181v-56.71h24.982v56.71
					C142.255,189.521,140.83,190.945,139.074,190.945z"/>
			</g>
		</g>
		<g>
			<g>
				<path style="fill:#FFFFFF;" d="M176.547,190.945h-18.621c-1.757,0-3.181-1.424-3.181-3.181v-56.71h24.982v56.71
					C179.728,189.521,178.303,190.945,176.547,190.945z"/>
			</g>
		</g>
		<g>
			<g>
				<path style="fill:#FFFFFF;" d="M214.02,190.945h-18.621c-1.757,0-3.181-1.424-3.181-3.181v-56.71H217.2v56.71
					C217.201,189.521,215.777,190.945,214.02,190.945z"/>
			</g>
		</g>
		<g>
			<g>
				<path style="fill:#FFFFFF;" d="M251.493,190.945h-18.621c-1.757,0-3.181-1.424-3.181-3.181v-56.71h24.982v56.71
					C254.674,189.521,253.25,190.945,251.493,190.945z"/>
			</g>
		</g>
		<g>
			<g>
				<path style="fill:#2B2B2B;" d="M157.81,177.636h-18.62c-1.757,0-3.181-1.424-3.181-3.181v-43.401h24.982v43.401
					C160.991,176.212,159.567,177.636,157.81,177.636z"/>
			</g>
		</g>
		<g>
			<g>
				<path style="fill:#181919;" d="M146.667,131.055v46.581h11.143c1.757,0,3.181-1.424,3.181-3.181v-43.401h-14.324V131.055z"/>
			</g>
		</g>
		<g>
			<g>
				<path style="fill:#181919;" d="M195.283,177.636h-18.621c-1.757,0-3.181-1.424-3.181-3.181v-43.401h24.982v43.401
					C198.464,176.212,197.04,177.636,195.283,177.636z"/>
			</g>
		</g>
		<g>
			<g>
				<path style="fill:#181919;" d="M232.756,177.636h-18.621c-1.757,0-3.181-1.424-3.181-3.181v-43.401h24.982v43.401
					C235.937,176.212,234.513,177.636,232.756,177.636z"/>
			</g>
		</g>
		<g>
			<g>
				<path style="fill:#2B2B2B;" d="M82.864,177.636h-18.62c-1.757,0-3.181-1.424-3.181-3.181v-43.401h24.982v43.401
					C86.045,176.212,84.621,177.636,82.864,177.636z"/>
			</g>
		</g>
	</g>
	<g>
		<path style="fill:#B8C9F1;" d="M264,109.167C264,103.552,259.448,99,253.833,99H43.167C37.552,99,33,103.552,33,109.167v29.167
			h231V109.167z"/>
	</g>
	<g>
		<path style="fill:#95A8CE;" d="M264,109.167C264,103.552,259.448,99,253.833,99H146.667v39.333H264V109.167z"/>
	</g>
</g>
<g>
</g>
<g>
</g>
<g>
</g>
<g>
</g>
<g>
</g>
<g>
</g>
<g>
</g>
<g>
</g>
<g>
</g>
<g>
</g>
<g>
</g>
<g>
</g>
<g>
</g>
<g>
</g>
<g>
</g>
</svg>
