<?xml version="1.0" encoding="iso-8859-1"?>
<!-- Generator: Adobe Illustrator 19.0.0, SVG Export Plug-In . SVG Version: 6.00 Build 0)  -->
<svg version="1.1" id="Layer_1" xmlns="http://www.w3.org/2000/svg" xmlns:xlink="http://www.w3.org/1999/xlink" x="0px" y="0px"
	 viewBox="0 0 297 297" style="enable-background:new 0 0 297 297;" xml:space="preserve">
<g>
	<g>
		<g>
			<g>
				<g>
					<g>
						<circle style="fill:#3498DB;" cx="148.5" cy="148.5" r="148.5"/>
					</g>
				</g>
			</g>
		</g>
	</g>
	<path style="fill:#2680B2;" d="M296.806,140.84l-68.752-68.752L67.611,234.792l60.858,60.858c6.552,0.884,13.237,1.35,20.031,1.35
		c82.014,0,148.5-66.486,148.5-148.5C297,145.931,296.935,143.377,296.806,140.84z"/>
	<g>
		<path style="fill:#FFFFFF;" d="M218.118,68.281l-6.6,6.6c-1.692,1.692-4.436,1.692-6.128,0l0,0c-1.692-1.692-4.436-1.692-6.128,0
			l-9.428,9.428c-1.692,1.692-1.692,4.436,0,6.128l24.985,24.985c1.692,1.692,4.436,1.692,6.128,0l9.428-9.428
			c1.692-1.692,1.692-4.436,0-6.128l0,0c-1.692-1.692-1.692-4.436,0-6.128l6.6-6.6c1.692-1.692,1.692-4.436,0-6.128l-12.728-12.728
			C222.554,66.589,219.811,66.589,218.118,68.281z"/>
	</g>
	<g>
		<path style="fill:#34495E;" d="M226.78,125.145L97.969,253.954c-3.092,3.092-8.104,3.092-11.196,0L51.3,218.481
			c-3.092-3.092-3.092-8.104,0-11.196l128.812-128.81c3.092-3.092,8.104-3.092,11.196,0l35.473,35.473
			C229.872,117.04,229.872,122.053,226.78,125.145z"/>
	</g>
	<g>
		<path style="fill:#2C3E50;" d="M226.781,113.949l-35.473-35.473c-3.092-3.092-8.104-3.092-11.196,0l-32.444,32.444v93.338
			l79.114-79.112C229.872,122.053,229.872,117.041,226.781,113.949z"/>
	</g>
	<g>
		<path style="fill:#5D7486;" d="M202.264,138.852L95.713,245.4c-2.471,2.471-6.479,2.471-8.95,0l-26.91-26.91
			c-2.472-2.471-2.471-6.479,0-8.95l106.551-106.548c2.471-2.471,6.479-2.471,8.95,0l26.91,26.91
			C204.736,132.373,204.736,136.38,202.264,138.852z"/>
	</g>
	<g>
		<path style="fill:#345065;" d="M202.264,129.902l-26.91-26.91c-2.472-2.471-6.479-2.471-8.95,0l-17.737,17.737v71.719
			l53.597-53.596C204.736,136.38,204.736,132.373,202.264,129.902z"/>
	</g>
	<g>
		<g>
			<g>
				<path style="fill:#FFFFFF;" d="M61.458,210.66l27.511,27.511c0.877,0.877,2.3,0.877,3.177,0l9.301-9.301
					c0.877-0.877,0.878-2.3,0-3.177l-27.511-27.511L61.458,210.66z"/>
			</g>
		</g>
		<g>
			<g>
				<path style="fill:#FFFFFF;" d="M80.175,191.943l27.511,27.511c0.878,0.878,2.3,0.878,3.177,0l9.301-9.301
					c0.877-0.877,0.878-2.3,0-3.177l-27.511-27.511L80.175,191.943z"/>
			</g>
		</g>
		<g>
			<g>
				<path style="fill:#FFFFFF;" d="M98.893,173.225l27.511,27.511c0.877,0.877,2.3,0.877,3.177,0l9.301-9.301
					c0.877-0.877,0.878-2.3,0-3.177l-27.511-27.511L98.893,173.225z"/>
			</g>
		</g>
		<g>
			<g>
				<path style="fill:#FFFFFF;" d="M117.61,154.508l27.511,27.511c0.877,0.877,2.3,0.878,3.177,0l9.301-9.301
					c0.878-0.877,0.878-2.3,0-3.177l-27.511-27.511L117.61,154.508z"/>
			</g>
		</g>
		<g>
			<g>
				<path style="fill:#FFFFFF;" d="M136.328,135.791l27.511,27.511c0.878,0.878,2.3,0.877,3.178,0l9.301-9.301
					c0.877-0.877,0.877-2.3,0-3.177l-27.511-27.511L136.328,135.791z"/>
			</g>
		</g>
		<g>
			<g>
				<path style="fill:#BDC3C7;" d="M157.6,169.541l-9.933-9.933v22.846c0.228-0.107,0.444-0.247,0.632-0.435l9.301-9.301
					C158.477,171.841,158.477,170.418,157.6,169.541z"/>
			</g>
		</g>
		<g>
			<g>
				<path style="fill:#BDC3C7;" d="M176.317,150.824l-27.511-27.511l-1.14,1.139v22.678l16.172,16.172
					c0.877,0.878,2.3,0.877,3.177,0l9.301-9.301C177.195,153.124,177.195,151.701,176.317,150.824z"/>
			</g>
		</g>
		<g>
			<g>
				<path style="fill:#BDC3C7;" d="M155.046,117.073l27.511,27.511c0.878,0.878,2.3,0.878,3.177,0l9.301-9.301
					c0.878-0.877,0.878-2.3,0-3.177l-27.511-27.511L155.046,117.073z"/>
			</g>
		</g>
		<g>
			<g>
				<path style="fill:#2B2B2B;" d="M108.252,163.867l20.863,20.863c0.877,0.877,2.3,0.878,3.178,0l9.301-9.301
					c0.877-0.877,0.877-2.3,0-3.177l-20.863-20.863L108.252,163.867z"/>
			</g>
		</g>
		<g>
			<g>
				<path style="fill:#2B2B2B;" d="M126.969,145.149l20.863,20.863c0.877,0.877,2.3,0.877,3.177,0l9.301-9.301
					c0.877-0.878,0.878-2.3,0-3.177l-20.863-20.863L126.969,145.149z"/>
			</g>
		</g>
		<g>
			<g>
				<path style="fill:#262626;" d="M160.311,153.534l-12.644-12.644v24.957l0.166,0.166c0.877,0.877,2.3,0.877,3.177,0l9.301-9.301
					C161.188,155.834,161.188,154.412,160.311,153.534z"/>
			</g>
		</g>
		<g>
			<g>
				<path style="fill:#262626;" d="M145.687,126.432l20.863,20.863c0.877,0.878,2.3,0.878,3.177,0l9.301-9.301
					c0.877-0.877,0.877-2.3,0-3.177l-20.863-20.863L145.687,126.432z"/>
			</g>
		</g>
		<g>
			<g>
				<path style="fill:#2B2B2B;" d="M70.816,201.302l20.863,20.863c0.878,0.878,2.3,0.878,3.178,0l9.301-9.301
					c0.877-0.877,0.877-2.3,0-3.177l-20.863-20.863L70.816,201.302z"/>
			</g>
		</g>
	</g>
</g>
<g>
</g>
<g>
</g>
<g>
</g>
<g>
</g>
<g>
</g>
<g>
</g>
<g>
</g>
<g>
</g>
<g>
</g>
<g>
</g>
<g>
</g>
<g>
</g>
<g>
</g>
<g>
</g>
<g>
</g>
</svg>
