<?xml version="1.0" encoding="iso-8859-1"?>
<!-- Generator: Adobe Illustrator 19.0.0, SVG Export Plug-In . SVG Version: 6.00 Build 0)  -->
<svg version="1.1" id="Layer_1" xmlns="http://www.w3.org/2000/svg" xmlns:xlink="http://www.w3.org/1999/xlink" x="0px" y="0px"
	 viewBox="0 0 297 297" style="enable-background:new 0 0 297 297;" xml:space="preserve">
<g>
	<g>
		<g>
			<g>
				<g>
					<g>
						<circle style="fill:#345065;" cx="148.5" cy="148.5" r="148.5"/>
					</g>
				</g>
			</g>
		</g>
	</g>
	<path style="fill:#1F3949;" d="M296.957,145.08l-84.845-84.845L93.937,241.051l55.931,55.931
		C231.251,296.247,297,230.057,297,148.5C297,147.356,296.982,146.217,296.957,145.08z"/>
	<g>
		<g>
			<path style="fill:#ECA684;" d="M142.75,94.421c0-24.508-15.894-44.375-35.5-44.375s-35.5,19.867-35.5,44.375
				c0,20.35,18.72,51.953,25.906,66.061c9.713,19.066-10.321,52.725-10.321,62.125c0,13.748,8.916,24.893,19.915,24.893
				s19.915-11.145,19.915-24.893c0-9.4-20.034-43.059-10.321-62.125C124.03,146.374,142.75,114.771,142.75,94.421z"/>
		</g>
		<g>
			<path style="fill:#D95459;" d="M72.981,82.833c-0.798,3.695-1.231,7.577-1.231,11.588c0,6.979,2.206,15.281,5.388,23.746h60.223
				c3.183-8.465,5.388-16.767,5.388-23.746c0-4.01-0.433-7.893-1.231-11.588H72.981z"/>
		</g>
		<g>
			<path style="fill:#16A085;" d="M77.138,118.167c3.267,8.69,7.564,17.551,11.58,25.333h37.063
				c4.016-7.782,8.313-16.644,11.58-25.333H77.138z"/>
		</g>
		<g>
			<path style="fill:#2980B9;" d="M125.782,143.5H88.718c2.975,5.765,5.788,10.931,7.914,15h21.236
				C119.993,154.431,122.807,149.265,125.782,143.5z"/>
		</g>
		<g>
			<path style="fill:#D3886A;" d="M225.25,94.421c0-24.508-15.894-44.375-35.5-44.375s-35.5,19.867-35.5,44.375
				c0,20.35,18.72,51.953,25.906,66.061c9.713,19.066-10.321,52.725-10.321,62.125c0,13.748,8.916,24.893,19.915,24.893
				s19.915-11.145,19.915-24.893c0-9.4-20.034-43.059-10.321-62.125C206.53,146.374,225.25,114.771,225.25,94.421z"/>
		</g>
		<g>
			<path style="fill:#CC4852;" d="M155.481,82.833c-0.798,3.695-1.231,7.577-1.231,11.588c0,6.979,2.206,15.281,5.388,23.746h60.223
				c3.183-8.465,5.388-16.767,5.388-23.746c0-4.01-0.433-7.893-1.231-11.588H155.481z"/>
		</g>
		<g>
			<path style="fill:#16A085;" d="M159.638,118.167c3.267,8.69,7.564,17.551,11.58,25.333h37.063
				c4.016-7.782,8.313-16.644,11.58-25.333H159.638z"/>
		</g>
		<g>
			<path style="fill:#2980B9;" d="M208.282,143.5h-37.063c2.975,5.765,5.788,10.931,7.914,15h21.236
				C202.493,154.431,205.307,149.265,208.282,143.5z"/>
		</g>
	</g>
</g>
<g>
</g>
<g>
</g>
<g>
</g>
<g>
</g>
<g>
</g>
<g>
</g>
<g>
</g>
<g>
</g>
<g>
</g>
<g>
</g>
<g>
</g>
<g>
</g>
<g>
</g>
<g>
</g>
<g>
</g>
</svg>
