<?xml version="1.0" encoding="iso-8859-1"?>
<!-- Generator: Adobe Illustrator 19.0.0, SVG Export Plug-In . SVG Version: 6.00 Build 0)  -->
<svg version="1.1" id="Layer_1" xmlns="http://www.w3.org/2000/svg" xmlns:xlink="http://www.w3.org/1999/xlink" x="0px" y="0px"
	 viewBox="0 0 297 297" style="enable-background:new 0 0 297 297;" xml:space="preserve">
<g>
	<g>
		<g>
			<g>
				<circle style="fill:#9ADAD9;" cx="148.5" cy="148.5" r="148.5"/>
			</g>
		</g>
	</g>
	<path style="fill:#72B7B3;" d="M182.033,46.088L131.656,239.88l52.742,52.742c61.322-15.225,107.589-68.552,112.214-133.405
		L182.033,46.088z"/>
	<g>
		<path style="fill:#32373B;" d="M175.153,268.541c-7.424,0-13.696-2.192-18.71-6.551c-12.241-10.643-11.96-30.247-11.942-31.077
			c0.047-2.208,1.846-3.959,4.086-3.912c2.207,0.048,3.958,1.874,3.912,4.081c-0.004,0.273-0.163,16.765,9.217,24.891
			c4.637,4.019,11.082,5.392,19.143,4.079c18.5-3.008,22.925-22.218,28.526-46.538c6.714-29.145,15.068-65.417,52.767-85.061
			c1.959-1.021,4.375-0.261,5.396,1.698s0.261,4.375-1.698,5.396c-34.428,17.94-41.993,50.784-48.668,79.763
			c-5.776,25.08-11.232,48.769-35.039,52.639C179.711,268.344,177.38,268.54,175.153,268.541z"/>
	</g>
	<g>
		<path style="fill:#394C81;" d="M148.5,247.993L148.5,247.993c11.28,0,20.654-8.695,21.5-19.944l8.5-113.041h-60l8.5,113.041
			C127.846,239.297,137.22,247.993,148.5,247.993z"/>
	</g>
	<g>
		<path style="fill:#293B63;" d="M148.667,115.007v132.977c11.205-0.086,20.491-8.743,21.333-19.936l8.5-113.041H148.667z"/>
	</g>
	<g>
		<circle style="fill:#32373B;" cx="148.5" cy="82.5" r="49.5"/>
	</g>
	<g>
		<path style="fill:#2B2B2B;" d="M198,82.5c0-27.282-22.072-49.405-49.333-49.496v98.992C175.928,131.905,198,109.782,198,82.5z"/>
	</g>
	<g>
		<path style="fill:#FFFFFF;" d="M148.5,101.5c-26.42,0-54.5-6.659-54.5-19c0-1.381,1.119-2.5,2.5-2.5s2.5,1.119,2.5,2.5
			c0,5.846,18.831,14,49.5,14s49.5-8.154,49.5-14c0-1.381,1.119-2.5,2.5-2.5s2.5,1.119,2.5,2.5C203,94.841,174.92,101.5,148.5,101.5
			z"/>
	</g>
	<g>
		<path style="fill:#D0D5D9;" d="M203,82.5c0-1.381-1.119-2.5-2.5-2.5s-2.5,1.119-2.5,2.5c0,5.835-18.764,13.969-49.333,13.999v5
			C175.038,101.471,203,94.815,203,82.5z"/>
	</g>
</g>
<g>
</g>
<g>
</g>
<g>
</g>
<g>
</g>
<g>
</g>
<g>
</g>
<g>
</g>
<g>
</g>
<g>
</g>
<g>
</g>
<g>
</g>
<g>
</g>
<g>
</g>
<g>
</g>
<g>
</g>
</svg>
