<?xml version="1.0" encoding="iso-8859-1"?>
<!-- Generator: Adobe Illustrator 19.0.0, SVG Export Plug-In . SVG Version: 6.00 Build 0)  -->
<svg version="1.1" id="Layer_1" xmlns="http://www.w3.org/2000/svg" xmlns:xlink="http://www.w3.org/1999/xlink" x="0px" y="0px"
	 viewBox="0 0 297 297" style="enable-background:new 0 0 297 297;" xml:space="preserve">
<g>
	<g>
		<g>
			<g>
				<circle style="fill:#345065;" cx="148.5" cy="148.5" r="148.5"/>
			</g>
		</g>
	</g>
	<path style="fill:#1F3949;" d="M210.886,84.393L90.315,216.454l78.86,79.107c65.5-9.125,117.315-60.967,126.399-126.48
		L210.886,84.393z"/>
	<circle style="fill:#B8C9F1;" cx="148.5" cy="148.5" r="85"/>
	<path style="fill:#99ABD5;" d="M148.5,63.5c-0.112,0-0.221,0.008-0.333,0.008v169.983c0.112,0,0.221,0.008,0.333,0.008
		c46.944,0,85-38.056,85-85S195.444,63.5,148.5,63.5z"/>
	<path style="fill:#FFFFFF;" d="M153,59.113V33c0-2.485-2.015-4.5-4.5-4.5S144,30.515,144,33v26.113
		c-47.268,2.352-85,41.546-85,89.387c0,49.351,40.149,89.5,89.5,89.5s89.5-40.149,89.5-89.5C238,100.658,200.268,61.465,153,59.113z
		 M195.443,144c-0.237-9.528-1.222-18.62-2.849-27.076c19.206,6.08,32.855,15.92,35.792,27.076H195.443z M186.433,144H153v-33.433
		c10.528,0.29,20.59,1.585,29.75,3.684C184.848,123.41,186.144,133.472,186.433,144z M153,101.557V68.614
		c11.156,2.937,20.996,16.585,27.076,35.792C171.62,102.779,162.528,101.793,153,101.557z M144,68.614v32.943
		c-9.528,0.237-18.62,1.222-27.076,2.849C123.004,85.199,132.844,71.551,144,68.614z M144,110.567V144h-33.433
		c0.29-10.528,1.585-20.59,3.684-29.75C123.41,112.152,133.472,110.856,144,110.567z M101.557,144H68.614
		c2.937-11.156,16.585-20.996,35.792-27.076C102.779,125.38,101.793,134.472,101.557,144z M101.557,153
		c0.237,9.528,1.222,18.62,2.849,27.076C85.2,173.996,71.551,164.156,68.614,153H101.557z M110.567,153H144v33.433
		c-10.528-0.29-20.59-1.585-29.75-3.684C112.152,173.59,110.856,163.528,110.567,153z M144,195.443v32.943
		c-11.156-2.937-20.996-16.585-27.076-35.792C125.38,194.221,134.472,195.207,144,195.443z M153,228.386v-32.943
		c9.528-0.237,18.62-1.222,27.076-2.849C173.996,211.801,164.156,225.449,153,228.386z M153,186.433V153h33.433
		c-0.29,10.528-1.585,20.59-3.684,29.75C173.59,184.848,163.528,186.144,153,186.433z M195.443,153h32.943
		c-2.937,11.156-16.585,20.996-35.792,27.076C194.221,171.62,195.207,162.528,195.443,153z M225.135,123.881
		c-8.373-7.281-20.419-13.208-34.886-17.129c-3.922-14.467-9.849-26.513-17.129-34.886
		C197.735,79.792,217.208,99.265,225.135,123.881z M123.881,71.865c-7.281,8.373-13.208,20.419-17.129,34.886
		c-14.467,3.922-26.513,9.849-34.886,17.129C79.792,99.265,99.265,79.792,123.881,71.865z M71.865,173.119
		c8.373,7.281,20.419,13.208,34.886,17.129c3.922,14.467,9.849,26.513,17.129,34.886C99.265,217.208,79.792,197.735,71.865,173.119z
		 M173.119,225.135c7.281-8.373,13.208-20.419,17.129-34.886c14.467-3.922,26.513-9.849,34.886-17.129
		C217.208,197.735,197.735,217.208,173.119,225.135z"/>
	<path style="fill:#E3E5E4;" d="M153,59.113V33c0-2.485-2.015-4.5-4.5-4.5c-0.114,0-0.221,0.025-0.333,0.034v209.462
		c0.111,0,0.222,0.004,0.333,0.004c49.351,0,89.5-40.149,89.5-89.5C238,100.658,200.268,61.465,153,59.113z M225.135,123.881
		c-8.373-7.281-20.419-13.208-34.886-17.129c-3.922-14.467-9.849-26.513-17.129-34.886
		C197.735,79.792,217.208,99.265,225.135,123.881z M228.386,144h-32.943c-0.237-9.528-1.222-18.62-2.849-27.076
		C211.801,123.004,225.449,132.844,228.386,144z M153,68.614c11.156,2.937,20.996,16.585,27.076,35.792
		c-8.456-1.626-17.548-2.612-27.076-2.849V68.614z M153,110.567c10.528,0.29,20.59,1.585,29.75,3.684
		c2.098,9.16,3.394,19.221,3.684,29.75H153V110.567z M153,153h33.433c-0.29,10.528-1.585,20.59-3.684,29.75
		c-9.16,2.098-19.221,3.394-29.75,3.684V153H153z M153,228.386v-32.943c9.528-0.237,18.62-1.222,27.076-2.849
		C173.996,211.801,164.156,225.449,153,228.386z M173.119,225.135c7.281-8.373,13.208-20.419,17.129-34.886
		c14.467-3.922,26.513-9.849,34.886-17.129C217.208,197.735,197.735,217.208,173.119,225.135z M192.595,180.076
		c1.626-8.456,2.612-17.548,2.849-27.076h32.943C225.449,164.156,211.801,173.996,192.595,180.076z"/>
</g>
<g>
</g>
<g>
</g>
<g>
</g>
<g>
</g>
<g>
</g>
<g>
</g>
<g>
</g>
<g>
</g>
<g>
</g>
<g>
</g>
<g>
</g>
<g>
</g>
<g>
</g>
<g>
</g>
<g>
</g>
</svg>
