<?xml version="1.0" encoding="iso-8859-1"?>
<!-- Generator: Adobe Illustrator 19.0.0, SVG Export Plug-In . SVG Version: 6.00 Build 0)  -->
<svg version="1.1" id="Layer_1" xmlns="http://www.w3.org/2000/svg" xmlns:xlink="http://www.w3.org/1999/xlink" x="0px" y="0px"
	 viewBox="0 0 297 297" style="enable-background:new 0 0 297 297;" xml:space="preserve">
<g>
	<g>
		<g>
			<g>
				<circle style="fill:#E67E22;" cx="148.5" cy="148.5" r="148.5"/>
			</g>
		</g>
	</g>
	<path style="fill:#C1621B;" d="M296.984,147.23l-94.652-94.653L94.223,244.016l53.027,52.968c0.417,0.003,0.832,0.016,1.25,0.016
		c82.014,0,148.5-66.486,148.5-148.5C297,148.075,296.988,147.654,296.984,147.23z"/>
	<g>
		<path style="fill:#393F42;" d="M194.375,247.5h-91.75c-6.558,0-11.875-5.317-11.875-11.875V61.375
			c0-6.558,5.317-11.875,11.875-11.875h91.75c6.558,0,11.875,5.317,11.875,11.875v174.25
			C206.25,242.183,200.933,247.5,194.375,247.5z"/>
	</g>
	<g>
		<path style="fill:#32373B;" d="M194.375,49.5h-46.208v198h46.208c6.559,0,11.875-5.317,11.875-11.875V61.375
			C206.25,54.817,200.933,49.5,194.375,49.5z"/>
	</g>
	<g>
		<path style="fill:#D0D5D9;" d="M185.75,221h-74.5c-4.28,0-7.75-3.47-7.75-7.75V69.75c0-4.28,3.47-7.75,7.75-7.75h74.5
			c4.28,0,7.75,3.47,7.75,7.75v143.5C193.5,217.53,190.03,221,185.75,221z"/>
	</g>
	<g>
		<path style="fill:#B5B9BC;" d="M185.75,62h-37.583v159h37.583c4.28,0,7.75-3.47,7.75-7.75V69.75C193.5,65.47,190.03,62,185.75,62z
			"/>
	</g>
	<g>
		<path style="fill:#C63C22;" d="M141.224,101.278c-0.791-0.184-2.893,0-2.893,0v18.435c-2.195-0.842-5.132-0.085-7.305,2.088
			c-2.746,2.747-3.233,6.713-1.087,8.859s6.113,1.66,8.859-1.087c1.515-1.515,2.341-3.402,2.418-5.15h0.007v-19.164
			c1.504-0.117,2.619,0.401,3.334,1.159c1.689,1.792,2.526,3.86,3.307,5.007c0.222,0.325,0.728,0.089,0.62-0.289
			c-0.281-0.982-0.811-2.484-1.807-4.717C144.889,102.406,142.06,101.473,141.224,101.278z"/>
	</g>
	<g>
		<path style="fill:#C63C22;" d="M124.724,148.582c-0.791-0.184-2.893,0-2.893,0v18.435c-2.195-0.842-5.132-0.085-7.305,2.088
			c-2.746,2.747-3.233,6.713-1.087,8.859s6.113,1.66,8.859-1.087c1.515-1.515,2.341-3.402,2.418-5.15h0.007v-19.164
			c1.504-0.117,2.619,0.401,3.334,1.159c1.689,1.792,2.526,3.86,3.307,5.007c0.222,0.325,0.728,0.089,0.62-0.289
			c-0.281-0.982-0.811-2.484-1.807-4.717C128.389,149.71,125.56,148.777,124.724,148.582z"/>
	</g>
	<g>
		<path style="fill:#B2321D;" d="M172.476,134.762c-1.283-0.299-4.693,0-4.693,0v29.904c-3.56-1.366-8.324-0.139-11.849,3.387
			c-4.455,4.455-5.244,10.889-1.762,14.371c3.482,3.482,9.916,2.693,14.371-1.762c2.458-2.458,3.798-5.518,3.922-8.353h0.012
			v-31.086c2.44-0.19,4.249,0.65,5.408,1.88c2.739,2.907,4.097,6.261,5.365,8.121c0.359,0.527,1.181,0.144,1.006-0.47
			c-0.456-1.592-1.315-4.03-2.93-7.652C178.421,136.592,173.833,135.078,172.476,134.762z"/>
	</g>
	<g>
		<circle style="fill:#262626;" cx="148.5" cy="233.5" r="5.5"/>
	</g>
</g>
<g>
</g>
<g>
</g>
<g>
</g>
<g>
</g>
<g>
</g>
<g>
</g>
<g>
</g>
<g>
</g>
<g>
</g>
<g>
</g>
<g>
</g>
<g>
</g>
<g>
</g>
<g>
</g>
<g>
</g>
</svg>
