<?xml version="1.0" encoding="iso-8859-1"?>
<!-- Generator: Adobe Illustrator 19.0.0, SVG Export Plug-In . SVG Version: 6.00 Build 0)  -->
<svg version="1.1" id="Layer_1" xmlns="http://www.w3.org/2000/svg" xmlns:xlink="http://www.w3.org/1999/xlink" x="0px" y="0px"
	 viewBox="0 0 297 297" style="enable-background:new 0 0 297 297;" xml:space="preserve">
<g>
	<g>
		<g>
			<g>
				<g>
					<g>
						<circle style="fill:#D35400;" cx="148.5" cy="148.5" r="148.5"/>
					</g>
				</g>
			</g>
		</g>
	</g>
	<path style="fill:#AD3E00;" d="M294.665,122.131l-59.822-59.822L62.119,234.653l60.012,60.012
		c8.558,1.534,17.37,2.335,26.369,2.335c82.014,0,148.5-66.486,148.5-148.5C297,139.501,296.199,130.689,294.665,122.131z"/>
	<g>
		<path style="fill:#F4AF30;" d="M118,57c0-16.845,13.655-30.5,30.5-30.5S179,40.155,179,57"/>
	</g>
	<g>
		<path style="fill:#F4AF30;" d="M179,240c0,16.845-13.655,30.5-30.5,30.5S118,256.845,118,240"/>
	</g>
	<g>
		<path style="fill:#E29000;" d="M148.5,26.5c-0.112,0-0.222,0.007-0.333,0.009V57H179C179,40.155,165.345,26.5,148.5,26.5z"/>
	</g>
	<g>
		<path style="fill:#E29000;" d="M148.167,240v30.492c0.111,0.001,0.221,0.008,0.333,0.008c16.845,0,30.5-13.655,30.5-30.5H148.167z
			"/>
	</g>
	<g>
		<path style="fill:#E29000;" d="M240,118c16.845,0,30.5,13.655,30.5,30.5S256.845,179,240,179"/>
	</g>
	<g>
		<path style="fill:#F4AF30;" d="M57,179c-16.845,0-30.5-13.655-30.5-30.5S40.155,118,57,118"/>
	</g>
	<g>
		<path style="fill:#E29000;" d="M191.634,62.233c11.911-11.911,31.223-11.911,43.133,0s11.911,31.222,0,43.133"/>
	</g>
	<g>
		<path style="fill:#F4AF30;" d="M105.366,234.767c-11.911,11.911-31.223,11.911-43.133,0c-11.911-11.911-11.911-31.222,0-43.133"/>
	</g>
	<g>
		<path style="fill:#E29000;" d="M234.767,191.634c11.911,11.911,11.911,31.223,0,43.133c-11.911,11.911-31.223,11.911-43.133,0"/>
	</g>
	<g>
		<path style="fill:#F4AF30;" d="M62.233,105.366c-11.911-11.911-11.911-31.223,0-43.134s31.222-11.911,43.133,0"/>
	</g>
	<g>
		<path style="fill:#4A3943;" d="M148.5,248.5c-55.141,0-100-44.859-100-100s44.859-100,100-100s100,44.859,100,100
			S203.641,248.5,148.5,248.5z M148.5,65.5c-45.767,0-83,37.233-83,83s37.233,83,83,83s83-37.233,83-83S194.267,65.5,148.5,65.5z"/>
	</g>
	<g>
		<path style="fill:#4A3943;" d="M148.5,220.5c-39.701,0-72-32.299-72-72s32.299-72,72-72s72,32.299,72,72
			S188.201,220.5,148.5,220.5z M148.5,88.5c-33.084,0-60,26.916-60,60s26.916,60,60,60s60-26.916,60-60S181.584,88.5,148.5,88.5z"/>
	</g>
	<g>
		<path style="fill:#33262F;" d="M148.5,48.5c-0.111,0-0.222,0.004-0.333,0.004v17.004c0.112,0,0.221-0.008,0.333-0.008
			c45.767,0,83,37.233,83,83s-37.233,83-83,83c-0.112,0-0.221-0.008-0.333-0.008v17.004c0.111,0,0.222,0.004,0.333,0.004
			c55.141,0,100-44.859,100-100S203.641,48.5,148.5,48.5z"/>
	</g>
	<g>
		<path style="fill:#33262F;" d="M148.5,76.5c-0.112,0-0.221,0.008-0.333,0.008v12c0.112-0.001,0.221-0.008,0.333-0.008
			c33.084,0,60,26.916,60,60s-26.916,60-60,60c-0.112,0-0.221-0.008-0.333-0.008v12c0.112,0,0.221,0.008,0.333,0.008
			c39.701,0,72-32.299,72-72S188.201,76.5,148.5,76.5z"/>
	</g>
</g>
<g>
</g>
<g>
</g>
<g>
</g>
<g>
</g>
<g>
</g>
<g>
</g>
<g>
</g>
<g>
</g>
<g>
</g>
<g>
</g>
<g>
</g>
<g>
</g>
<g>
</g>
<g>
</g>
<g>
</g>
</svg>
