<?xml version="1.0" encoding="iso-8859-1"?>
<!-- Generator: Adobe Illustrator 19.0.0, SVG Export Plug-In . SVG Version: 6.00 Build 0)  -->
<svg version="1.1" id="Layer_1" xmlns="http://www.w3.org/2000/svg" xmlns:xlink="http://www.w3.org/1999/xlink" x="0px" y="0px"
	 viewBox="0 0 297 297" style="enable-background:new 0 0 297 297;" xml:space="preserve">
<g>
	<g>
		<g>
			<g>
				<g>
					<g>
						<circle style="fill:#5E4534;" cx="148.5" cy="148.5" r="148.5"/>
					</g>
				</g>
			</g>
		</g>
	</g>
	<path style="fill:#422E20;" d="M296.822,141.251l-62.287-62.287c-17.004,14.65-29.561,34.48-49.035,46.535c-3-8-3-15-10-21
		c-1-2-1-5-2-7c-8-10-15-22-26-27c-2-1-7,4-8,8c-15,32-32,60-51,91c-8.429,12.643-16.887,24.251-25.401,35.726l91.714,91.632
		C233.897,293.549,297,228.399,297,148.5C297,146.069,296.937,143.653,296.822,141.251z"/>
	<path style="fill:#FFA800;" d="M220.246,166.321L158.565,59.486C165.36,55.869,170,48.72,170,40.5c0-11.855-9.645-21.5-21.5-21.5
		S127,28.645,127,40.5c0,8.22,4.64,15.369,11.435,18.986L61.351,193c-1.786,3.094-1.786,6.906,0,10s5.088,5,8.66,5H198
		c5.522,0,10-4.478,10-10s-4.478-10-10-10H87.331L148.5,82.053l54.426,94.269c2.763,4.783,8.879,6.424,13.66,3.66
		C221.369,177.22,223.008,171.104,220.246,166.321z M148.5,29c6.341,0,11.5,5.159,11.5,11.5S154.841,52,148.5,52
		S137,46.841,137,40.5S142.159,29,148.5,29z"/>
	<path style="fill:#E29000;" d="M198,208c5.522,0,10-4.478,10-10s-4.478-10-10-10h-48.833v20H198z"/>
	<path style="fill:#E29000;" d="M220.246,166.321L158.565,59.486C165.36,55.869,170,48.72,170,40.5
		c0-11.63-9.288-21.109-20.833-21.466v10C155.197,29.382,160,34.384,160,40.5s-4.803,11.118-10.833,11.466v31.242l53.759,93.113
		c2.763,4.783,8.879,6.424,13.66,3.66C221.369,177.22,223.008,171.104,220.246,166.321z"/>
	<g>
		<path style="fill:#D0D5D9;" d="M148.5,170c-1.279,0-2.56-0.488-3.535-1.465c-1.953-1.952-1.953-5.118,0-7.07l82.5-82.5
			c1.951-1.953,5.119-1.953,7.07,0c1.953,1.952,1.953,5.118,0,7.07l-82.5,82.5C151.06,169.512,149.779,170,148.5,170z"/>
	</g>
</g>
<g>
</g>
<g>
</g>
<g>
</g>
<g>
</g>
<g>
</g>
<g>
</g>
<g>
</g>
<g>
</g>
<g>
</g>
<g>
</g>
<g>
</g>
<g>
</g>
<g>
</g>
<g>
</g>
<g>
</g>
</svg>
