<?xml version="1.0" encoding="iso-8859-1"?>
<!-- Generator: Adobe Illustrator 19.0.0, SVG Export Plug-In . SVG Version: 6.00 Build 0)  -->
<svg version="1.1" id="Layer_1" xmlns="http://www.w3.org/2000/svg" xmlns:xlink="http://www.w3.org/1999/xlink" x="0px" y="0px"
	 viewBox="0 0 297 297" style="enable-background:new 0 0 297 297;" xml:space="preserve">
<g>
	<g>
		<g>
			<g>
				<circle style="fill:#5065A1;" cx="148.5" cy="148.5" r="148.5"/>
			</g>
		</g>
	</g>
	<path style="fill:#374C7C;" d="M217.857,77.852L78.261,218.265l78.503,78.503c75.434-4.138,135.866-64.571,140.004-140.005
		L217.857,77.852z"/>
	<g>
		<circle style="fill:#B8C9F1;" cx="148.5" cy="148.5" r="99"/>
	</g>
	<g>
		<path style="fill:#B8C9F1;" d="M148.5,49.5c-0.279,0-0.555,0.008-0.833,0.011V247.49c0.278,0.002,0.554,0.011,0.833,0.011
			c54.676,0,99-44.324,99-99C247.5,93.824,203.176,49.5,148.5,49.5z"/>
	</g>
	<g>
		<circle style="fill:#32373B;" cx="148.5" cy="148.5" r="82.5"/>
	</g>
	<g>
		<path style="fill:#2B2B2B;" d="M148.5,66c-0.279,0-0.554,0.018-0.833,0.021v164.958c0.279,0.003,0.554,0.021,0.833,0.021
			c45.563,0,82.5-36.937,82.5-82.5C231,102.936,194.063,66,148.5,66z"/>
	</g>
	<g>
		<circle style="fill:#FFFFFF;" cx="148.5" cy="148.5" r="24.75"/>
	</g>
	<g>
		<path style="fill:#D0D5D9;" d="M148.5,123.75c-0.279,0-0.556,0.012-0.833,0.021v49.458c0.277,0.009,0.554,0.021,0.833,0.021
			c13.669,0,24.75-11.081,24.75-24.75S162.169,123.75,148.5,123.75z"/>
	</g>
	<path style="fill:#262626;" d="M148.5,138.5c-0.281,0-0.558,0.019-0.833,0.042c-5.132,0.424-9.167,4.716-9.167,9.958
		s4.035,9.534,9.167,9.958c0.275,0.023,0.552,0.042,0.833,0.042c5.523,0,10-4.477,10-10C158.5,142.977,154.023,138.5,148.5,138.5z"
		/>
	<path style="fill:#262626;" d="M148.5,138.5c-0.281,0-0.558,0.019-0.833,0.042v19.916c0.275,0.023,0.552,0.042,0.833,0.042
		c5.523,0,10-4.477,10-10C158.5,142.977,154.023,138.5,148.5,138.5z"/>
	<g>
		<path style="fill:#FFFFFF;" d="M98.998,167.5c-0.44,0-0.886-0.115-1.29-0.359C57.242,142.725,63.462,99.058,63.529,98.62
			c0.211-1.365,1.491-2.296,2.852-2.09c1.363,0.21,2.299,1.485,2.091,2.849l0,0c-0.252,1.656-5.72,40.831,31.82,63.481
			c1.182,0.713,1.562,2.25,0.849,3.433C100.671,167.069,99.845,167.5,98.998,167.5z"/>
	</g>
	<g>
		<path style="fill:#FFFFFF;" d="M111.528,181.767l-14.296-8.239c-3.948-2.275-5.304-7.32-3.028-11.267l0,0
			c2.275-3.948,7.32-5.304,11.267-3.028l14.296,8.239c3.948,2.275,5.304,7.32,3.028,11.267l0,0
			C120.521,182.687,115.476,184.042,111.528,181.767z"/>
	</g>
</g>
<g>
</g>
<g>
</g>
<g>
</g>
<g>
</g>
<g>
</g>
<g>
</g>
<g>
</g>
<g>
</g>
<g>
</g>
<g>
</g>
<g>
</g>
<g>
</g>
<g>
</g>
<g>
</g>
<g>
</g>
</svg>
