<?xml version="1.0" encoding="iso-8859-1"?>
<!-- Generator: Adobe Illustrator 19.0.0, SVG Export Plug-In . SVG Version: 6.00 Build 0)  -->
<svg version="1.1" id="Layer_1" xmlns="http://www.w3.org/2000/svg" xmlns:xlink="http://www.w3.org/1999/xlink" x="0px" y="0px"
	 viewBox="0 0 297 297" style="enable-background:new 0 0 297 297;" xml:space="preserve">
<g>
	<g>
		<g>
			<g>
				<g>
					<g>
						<circle style="fill:#5E4534;" cx="148.5" cy="148.5" r="148.5"/>
					</g>
				</g>
			</g>
		</g>
	</g>
	<path style="fill:#422E20;" d="M294.46,121.064L258.07,84.63L42.899,132.883l-3.911,36.794l125.189,126.499
		C238.821,288.344,297,225.219,297,148.5C297,139.125,296.122,129.957,294.46,121.064z"/>
	<path style="fill:#E3E5E4;" d="M206.628,47.982c-0.31-2.187-2.329-3.704-4.521-3.4l-52.939,7.493l-60.316,8.537
		c-0.859-1.806-2.112-3.401-3.708-4.656c-2.716-2.137-6.069-3.046-9.437-2.573c-3.37,0.478-6.336,2.285-8.352,5.091
		c-1.978,2.753-2.801,6.145-2.318,9.551c0.482,3.405,2.215,6.435,4.879,8.53c2.244,1.766,4.924,2.695,7.688,2.695
		c0.579,0,1.162-0.041,1.746-0.123c3.37-0.477,6.337-2.284,8.353-5.091c1.185-1.649,1.946-3.529,2.27-5.502l59.194-8.378
		l54.061-7.652C205.415,52.194,206.938,50.17,206.628,47.982z"/>
	<path style="fill:#BDC3C7;" d="M206.628,47.982c-0.31-2.187-2.329-3.704-4.521-3.4l-52.939,7.493v8.081l54.061-7.652
		C205.415,52.194,206.938,50.17,206.628,47.982z"/>
	<path style="fill:#FFA800;" d="M257.612,84.216c-1.512-1.233-3.498-1.728-5.409-1.335l-103.036,20.975L42.203,125.631
		C39.176,126.247,37,128.91,37,132v33c0,3.09,2.176,5.753,5.203,6.369l106.964,21.775l103.036,20.975
		c0.431,0.088,0.865,0.131,1.297,0.131c1.485,0,2.941-0.51,4.112-1.466c1.511-1.235,2.388-3.083,2.388-5.034V89.25
		C260,87.299,259.123,85.451,257.612,84.216z M247,199.793l-97.833-19.916L50,159.689V137.31l99.167-20.188L247,97.207V199.793z"/>
	<g>
		<path style="fill:#E67E22;" d="M257.612,84.216c-1.512-1.233-3.498-1.728-5.409-1.335l-103.036,20.975v13.267L247,97.207v102.586
			l-97.833-19.916v13.267l103.036,20.975c0.431,0.088,0.865,0.131,1.297,0.131c1.485,0,2.941-0.51,4.112-1.466
			c1.511-1.235,2.388-3.083,2.388-5.034V89.25C260,87.299,259.123,85.451,257.612,84.216z"/>
	</g>
	<g>
		<path style="fill:#BDC3C7;" d="M232.083,222.75h-18.667c-3.958,0-7.167-3.209-7.167-7.167V81.416c0-3.958,3.209-7.166,7.167-7.166
			h18.667c3.958,0,7.167,3.209,7.167,7.166v134.167C239.25,219.541,236.041,222.75,232.083,222.75z"/>
	</g>
	<g>
		<path style="fill:#BDC3C7;" d="M182.583,214.5h-18.667c-3.958,0-7.167-3.209-7.167-7.167V89.666c0-3.958,3.209-7.166,7.167-7.166
			h18.667c3.958,0,7.167,3.209,7.167,7.166v117.667C189.75,211.291,186.541,214.5,182.583,214.5z"/>
	</g>
	<g>
		<path style="fill:#ECF0F1;" d="M132.56,205.5h-17.62c-4.247,0-7.69-3.443-7.69-7.69V99.19c0-4.247,3.443-7.69,7.69-7.69h17.619
			c4.247,0,7.69,3.443,7.69,7.69v98.619C140.25,202.057,136.807,205.5,132.56,205.5z"/>
	</g>
	<g>
		<path style="fill:#ECF0F1;" d="M82.665,190.5h-16.83c-4.465,0-8.085-3.62-8.085-8.085v-67.83c0-4.465,3.62-8.085,8.085-8.085
			h16.83c4.465,0,8.085,3.62,8.085,8.085v67.83C90.75,186.88,87.13,190.5,82.665,190.5z"/>
	</g>
	<g>
		<circle style="fill:#C0392B;" cx="222.75" cy="90.75" r="5"/>
	</g>
	<g>
		<circle style="fill:#C0392B;" cx="222.75" cy="209.5" r="5"/>
	</g>
	<g>
		<circle style="fill:#C0392B;" cx="173.5" cy="200.5" r="5"/>
	</g>
	<g>
		<circle style="fill:#C0392B;" cx="173.5" cy="98.5" r="5"/>
	</g>
	<g>
		<circle style="fill:#C0392B;" cx="123.5" cy="109.5" r="5"/>
	</g>
	<g>
		<circle style="fill:#C0392B;" cx="123.5" cy="187.5" r="5"/>
	</g>
	<g>
		<circle style="fill:#C0392B;" cx="74.5" cy="174.5" r="5"/>
	</g>
	<g>
		<circle style="fill:#C0392B;" cx="74.5" cy="121.5" r="5"/>
	</g>
</g>
<g>
</g>
<g>
</g>
<g>
</g>
<g>
</g>
<g>
</g>
<g>
</g>
<g>
</g>
<g>
</g>
<g>
</g>
<g>
</g>
<g>
</g>
<g>
</g>
<g>
</g>
<g>
</g>
<g>
</g>
</svg>
