<svg height="512pt" viewBox="0 0 512 512" width="512pt" xmlns="http://www.w3.org/2000/svg"><path d="m512 256c0 141.386719-114.613281 256-256 256s-256-114.613281-256-256 114.613281-256 256-256 256 114.613281 256 256zm0 0" fill="#77c0bc"/><path d="m510.546875 283.332031-141.734375-140.144531-251.3125 251.3125 116.554688 116.554688c7.234374.613281 14.550781.945312 21.945312.945312 132.152344 0 240.902344-100.136719 254.546875-228.667969zm0 0" fill="#3b7d84"/><path d="m330.277344 233.09375-135.714844 135.722656-29.972656-21.410156 140.003906-148.558594zm0 0" fill="#ff9d49"/><path d="m308.875 203.128906-144.285156 144.277344-21.40625-29.96875 135.71875-135.714844zm0 0" fill="#ffcc75"/><path d="m394.503906 168.878906-38.535156 38.527344-34.25-25.683594 47.097656-38.53125zm0 0" fill="#bd1515"/><path d="m368.8125 143.1875-42.8125 42.8125-21.40625-29.96875 38.53125-38.53125zm0 0" fill="#f2484b"/><path d="m278.902344 181.722656 25.6875-25.691406 51.375 51.375-25.691406 25.6875zm0 0" fill="#082947"/><path d="m156.03125 381.65625-38.535156 12.84375 12.84375-38.53125 21.40625 4.28125zm0 0" fill="#082947"/><path d="m143.183594 317.4375-12.84375 38.53125 25.691406 25.6875 38.53125-12.839844zm0 0" fill="#f2ebd9"/></svg>