<svg height="512pt" viewBox="0 0 512 512" width="512pt" xmlns="http://www.w3.org/2000/svg"><path d="m512 256c0 141.386719-114.613281 256-256 256s-256-114.613281-256-256 114.613281-256 256-256 256 114.613281 256 256zm0 0" fill="#2fc0f0"/><path d="m410.007812 136.667969-39.960937-39.957031-44.546875 44.546874 39.957031 39.957032-10.789062 10.789062-39.480469-39.484375-94.203125 94.203125-89.4375-89.4375-44.546875 44.546875 89.4375 89.4375-89.4375 89.441407 128.007812 128.007812c13.351563 2.148438 27.039063 3.28125 40.992188 3.28125 141.386719 0 256-114.613281 256-256 0-10.414062-.636719-20.679688-1.847656-30.769531l-94.355469-94.355469zm0 0" fill="#0d91bd"/><path d="m385.390625 221.632812v79.878907h-258.78125v-79.878907l31.488281-38.023437-30.5-61c4.558594-22.578125 24.558594-39.609375 48.523438-39.609375h159.757812c23.964844 0 43.964844 17.03125 48.523438 39.609375l-26.34375 41.984375zm0 0" fill="#ff9f00"/><path d="m385.390625 221.632812v79.878907h-129.390625v-218.511719h79.878906c23.964844 0 43.964844 17.03125 48.523438 39.609375l-26.34375 41.984375zm0 0" fill="#ff7816"/><path d="m205.828125 83v59.414062h100.34375v-59.414062zm0 0" fill="#ffd400"/><path d="m256 83h50.171875v59.414062h-50.171875zm0 0" fill="#fdbf00"/><path d="m405.195312 311.414062v58.226563h-298.390624v-58.226563c0-16.4375 13.269531-29.707031 29.707031-29.707031h238.976562c16.4375 0 29.707031 13.269531 29.707031 29.707031zm0 0" fill="#fdbf00"/><path d="m405.195312 311.414062v58.226563h-149.195312v-87.933594h119.488281c16.4375 0 29.707031 13.269531 29.707031 29.707031zm0 0" fill="#ff9f00"/><path d="m296.269531 242.097656h-80.539062c-16.4375 0-29.707031 13.269532-29.707031 29.707032v108.925781h139.953124v-108.925781c0-16.4375-13.269531-29.707032-29.707031-29.707032zm0 0" fill="#ffd400"/><path d="m325.976562 271.804688v108.925781h-69.976562v-138.632813h40.269531c16.4375 0 29.707031 13.269532 29.707031 29.707032zm0 0" fill="#fdbf00"/><path d="m186.023438 421h-59.414063v-60.074219h59.414063zm0 0" fill="#53433f"/><path d="m385.390625 421h-59.414063v-60.074219h59.414063zm0 0" fill="#3e322e"/><path d="m146.414062 201.828125h-59.414062v-49.511719c0-16.382812 13.324219-29.707031 29.707031-29.707031h29.707031zm0 0" fill="#53433f"/><path d="m425 201.828125h-59.414062v-79.21875h29.707031c16.382812 0 29.707031 13.324219 29.707031 29.707031zm0 0" fill="#3e322e"/><path d="m225.632812 281.707031h60.734376v19.804688h-60.734376zm0 0" fill="#b34f03"/><path d="m256 281.707031h30.367188v19.804688h-30.367188zm0 0" fill="#913f02"/><path d="m225.632812 321.316406h60.734376v19.804688h-60.734376zm0 0" fill="#b34f03"/><path d="m146.414062 321.316406h19.804688v19.804688h-19.804688zm0 0" fill="#e7e7e7"/><path d="m345.78125 321.316406h19.804688v19.804688h-19.804688zm0 0" fill="#d3d3d8"/><path d="m87 360.925781h338v19.804688h-338zm0 0" fill="#ff9f00"/><path d="m384.402344 122.609375h-256.804688c-.59375 3.167969-.988281 6.535156-.988281 9.902344v89.121093h258.78125v-89.121093c0-3.367188-.398437-6.734375-.988281-9.902344zm0 0" fill="#fdbf00"/><path d="m256 321.316406h30.367188v19.804688h-30.367188zm0 0" fill="#913f02"/><path d="m256 360.925781h169v19.804688h-169zm0 0" fill="#ff7816"/><path d="m385.390625 132.511719v89.121093h-129.390625v-99.023437h128.402344c.589844 3.167969.988281 6.535156.988281 9.902344zm0 0" fill="#ff9f00"/><path d="m146.414062 142.414062h99.683594v59.414063h-99.683594zm0 0" fill="#9ee2f8"/><path d="m265.902344 142.414062h99.683594v59.414063h-99.683594zm0 0" fill="#2fc0f0"/><path d="m220.484375 201.828125h-25.351563l-21.785156-27.332031 15.449219-12.277344zm0 0" fill="#0fa9dd"/><path d="m340.632812 201.828125h-25.351562l-21.785156-27.332031 15.449218-12.277344zm0 0" fill="#0d91bd"/></svg>