<svg xmlns="http://www.w3.org/2000/svg" height="512pt" version="1.1" viewBox="0 0 512 512" width="512pt">
<g id="surface1">
<path d="M 512 256 C 512 397.386719 397.386719 512 256 512 C 114.613281 512 0 397.386719 0 256 C 0 114.613281 114.613281 0 256 0 C 397.386719 0 512 114.613281 512 256 Z M 512 256 " style=" stroke:none;fill-rule:nonzero;fill:rgb(99.607843%,41.568627%,8.627451%);fill-opacity:1;" />
<path d="M 512 256 C 512 229.132812 507.851562 203.234375 500.175781 178.902344 L 425 103.726562 L 87 337.214844 L 131.085938 381.300781 L 106.0625 390.878906 L 225.355469 510.167969 C 235.402344 511.367188 245.628906 512 256 512 C 397.386719 512 512 397.386719 512 256 Z M 512 256 " style=" stroke:none;fill-rule:nonzero;fill:rgb(94.901961%,27.058824%,0%);fill-opacity:1;" />
<path d="M 163.4375 311 L 119.4375 397.667969 " style=" stroke:none;fill-rule:nonzero;fill:rgb(25.490196%,28.627451%,32.156863%);fill-opacity:1;" />
<path d="M 106.074219 390.878906 L 150.074219 304.207031 L 176.828125 317.789062 L 132.824219 404.460938 Z M 106.074219 390.878906 " style=" stroke:none;fill-rule:nonzero;fill:rgb(69.019608%,27.45098%,9.019608%);fill-opacity:1;" />
<path d="M 348.5625 311 L 392.5625 397.667969 " style=" stroke:none;fill-rule:nonzero;fill:rgb(25.490196%,28.627451%,32.156863%);fill-opacity:1;" />
<path d="M 335.199219 317.796875 L 361.953125 304.214844 L 405.953125 390.886719 L 379.203125 404.46875 Z M 335.199219 317.796875 " style=" stroke:none;fill-rule:nonzero;fill:rgb(58.823529%,23.137255%,6.666667%);fill-opacity:1;" />
<path d="M 97 113.726562 L 415 113.726562 L 415 327.214844 L 97 327.214844 Z M 97 113.726562 " style=" stroke:none;fill-rule:nonzero;fill:rgb(25.490196%,28.627451%,32.156863%);fill-opacity:1;" />
<path d="M 255.761719 113.726562 L 415 113.726562 L 415 327.214844 L 255.761719 327.214844 Z M 255.761719 113.726562 " style=" stroke:none;fill-rule:nonzero;fill:rgb(20%,22.352941%,25.098039%);fill-opacity:1;" />
<path d="M 425 337.214844 L 87 337.214844 L 87 103.726562 L 425 103.726562 Z M 107 317.214844 L 405 317.214844 L 405 123.726562 L 107 123.726562 Z M 107 317.214844 " style=" stroke:none;fill-rule:nonzero;fill:rgb(86.27451%,88.235294%,92.156863%);fill-opacity:1;" />
<path d="M 425 103.726562 L 255.761719 103.726562 L 255.761719 123.726562 L 405 123.726562 L 405 317.214844 L 255.761719 317.214844 L 255.761719 337.214844 L 425 337.214844 Z M 425 103.726562 " style=" stroke:none;fill-rule:nonzero;fill:rgb(80.392157%,82.352941%,88.235294%);fill-opacity:1;" />
<path d="M 312 293 L 381.609375 293 L 381.609375 317 L 312 317 Z M 312 293 " style=" stroke:none;fill-rule:nonzero;fill:rgb(100%,100%,100%);fill-opacity:1;" />
</g>
</svg>