<svg xmlns="http://www.w3.org/2000/svg" height="512pt" version="1.1" viewBox="0 0 512 512" width="512pt">
<g id="surface1">
<path d="M 512 256 C 512 397.386719 397.386719 512 256 512 C 114.613281 512 0 397.386719 0 256 C 0 114.613281 114.613281 0 256 0 C 397.386719 0 512 114.613281 512 256 Z M 512 256 " style=" stroke:none;fill-rule:nonzero;fill:rgb(29.019608%,47.843137%,100%);fill-opacity:1;" />
<path d="M 512 256 C 512 244.824219 511.277344 233.816406 509.890625 223.015625 L 391.242188 104.371094 L 132.757812 410.355469 L 233.398438 510.996094 C 240.847656 511.648438 248.382812 512 256 512 C 397.386719 512 512 397.386719 512 256 Z M 512 256 " style=" stroke:none;fill-rule:nonzero;fill:rgb(15.686275%,39.215686%,94.117647%);fill-opacity:1;" />
<path d="M 152.757812 104.371094 L 391.242188 104.371094 L 391.242188 410.355469 L 152.757812 410.355469 Z M 152.757812 104.371094 " style=" stroke:none;fill-rule:nonzero;fill:rgb(100%,100%,100%);fill-opacity:1;" />
<path d="M 152.757812 255.90625 L 391.242188 255.90625 L 391.242188 410.355469 L 152.757812 410.355469 Z M 152.757812 255.90625 " style=" stroke:none;fill-rule:nonzero;fill:rgb(91.372549%,92.941176%,96.078431%);fill-opacity:1;" />
<path d="M 132.757812 104.371094 L 191 104.371094 L 191 410.355469 L 132.757812 410.355469 Z M 132.757812 104.371094 " style=" stroke:none;fill-rule:nonzero;fill:rgb(100%,83.137255%,0%);fill-opacity:1;" />
<path d="M 132.757812 255.90625 L 191 255.90625 L 191 410.355469 L 132.757812 410.355469 Z M 132.757812 255.90625 " style=" stroke:none;fill-rule:nonzero;fill:rgb(99.215686%,72.941176%,7.058824%);fill-opacity:1;" />
<path d="M 360 227 L 329 196.015625 L 298 227 L 298 104.371094 L 360 104.371094 Z M 360 227 " style=" stroke:none;fill-rule:nonzero;fill:rgb(99.607843%,41.568627%,8.627451%);fill-opacity:1;" />
<path d="M 329 104.371094 L 329 196.015625 L 360 227 L 360 104.371094 Z M 329 104.371094 " style=" stroke:none;fill-rule:nonzero;fill:rgb(94.901961%,27.058824%,0%);fill-opacity:1;" />
</g>
</svg>