<svg height="512pt" viewBox="0 0 512 512" width="512pt" xmlns="http://www.w3.org/2000/svg"><path d="m512 256c0 141.386719-114.613281 256-256 256s-256-114.613281-256-256 114.613281-256 256-256 256 114.613281 256 256zm0 0" fill="#e7e7e7"/><path d="m512 256c0-15.855469-1.453125-31.367188-4.210938-46.425781l-135.355468-135.355469-84.542969 84.539062-84.707031-84.707031-28.859375 28.855469 84.707031 84.710938-69.957031 69.957031.625.625-103.792969 103.792969 149.152344 149.152343c6.910156.558594 13.890625.855469 20.941406.855469 141.386719 0 256-114.613281 256-256zm0 0" fill="#d3d3d8"/><path d="m76 244.15625v42.1875l23.652344 21.09375h39.628906v-63.28125zm0 0" fill="#b34f03"/><path d="m436 286.34375v-42.1875h-63.28125v63.28125h41.300781zm0 0" fill="#913f02"/><path d="m404.359375 370.71875h-31.640625v-84.375h63.28125v52.734375c0 17.449219-14.191406 31.640625-31.640625 31.640625zm0 0" fill="#53433f"/><path d="m139.28125 370.71875h-31.640625c-17.449219 0-31.640625-14.191406-31.640625-31.640625v-52.734375h63.28125zm0 0" fill="#68544f"/><path d="m139.28125 158.863281v-84.863281h63.984375v60.699219zm0 0" fill="#68544f"/><path d="m372.71875 158.863281-63.984375-24.164062v-60.699219h63.984375zm0 0" fill="#53433f"/><path d="m393.8125 190.71875v169.453125c0 40.710937-33.820312 73.828125-74.53125 73.828125h-126.5625c-40.710938 0-74.53125-33.117188-74.53125-73.828125v-169.453125c0-28.898438 16.664062-54.84375 42.398438-66.65625l20.882812 9.703125v56.953125c0 17.507812 14.835938 32.34375 32.34375 32.34375h84.375c17.507812 0 32.34375-14.835938 32.34375-32.34375v-46.40625l21.097656-20.25c25.519532 11.8125 42.183594 37.757812 42.183594 66.65625zm0 0" fill="#ff7816"/><path d="m393.8125 190.71875v169.453125c0 40.710937-33.820312 73.828125-74.53125 73.828125h-63.28125v-210.9375h42.1875c17.507812 0 32.34375-14.835938 32.34375-32.34375v-46.40625l21.09375-20.25c25.523438 11.8125 42.1875 37.757812 42.1875 66.65625zm0 0" fill="#ff4b00"/><path d="m224.359375 223.90625v30.796875c0 17.507813 14.132813 31.640625 31.640625 31.640625s31.640625-14.132812 31.640625-31.640625v-30.796875zm0 0" fill="#ffd400"/><path d="m256 286.34375v-62.4375h31.640625v30.796875c0 17.507813-14.132813 31.640625-31.640625 31.640625zm0 0" fill="#ff9f00"/><path d="m344.875 121.320312c-7.804688-2.953124-16.734375-4.429687-25.59375-4.429687h-126.5625c-8.859375 0-17.789062 1.476563-25.59375 4.429687l-6.75 2.742188v66.65625c0 29.109375 24.328125 53.4375 53.4375 53.4375h84.375c29.109375 0 53.4375-24.328125 53.4375-53.4375v-66.65625zm0 0" fill="#e7e7e7"/><path d="m351.625 124.0625v66.65625c0 29.109375-24.328125 53.4375-53.4375 53.4375h-42.1875v-127.265625h63.28125c8.859375 0 17.789062 1.476563 25.59375 4.429687zm0 0" fill="#d3d3d8"/><path d="m224.359375 116.890625v127.265625h63.28125v-127.265625zm0 0" fill="#b34f03"/><path d="m256 116.890625h31.640625v127.265625h-31.640625zm0 0" fill="#913f02"/><path d="m160.375 307.4375v52.734375c0 17.507813 14.835938 31.640625 32.34375 31.640625h126.5625c17.507812 0 32.34375-14.132812 32.34375-31.640625v-52.734375zm0 0" fill="#e7e7e7"/><path d="m203.265625 307.4375h21.09375v42.1875h-21.09375zm0 0" fill="#68544f"/><path d="m351.625 307.4375v52.734375c0 17.507813-14.835938 31.640625-32.34375 31.640625h-63.28125v-84.375zm0 0" fill="#d3d3d8"/></svg>