<?xml version="1.0" encoding="iso-8859-1"?>
<!-- Generator: Adobe Illustrator 19.0.0, SVG Export Plug-In . SVG Version: 6.00 Build 0)  -->
<svg xmlns="http://www.w3.org/2000/svg" xmlns:xlink="http://www.w3.org/1999/xlink" version="1.1" id="Capa_1" x="0px" y="0px" viewBox="0 0 512 512" style="enable-background:new 0 0 512 512;" xml:space="preserve">
<circle style="fill:#F7DC4D;" cx="256" cy="256" r="256"/>
<path style="fill:#F6CE23;" d="M511.909,249.21L370.108,107.408l0,0H255.671H142.113v297.184l107.324,107.324  c2.181,0.055,4.369,0.083,6.563,0.083c141.385,0,256-114.615,256-256C512,253.73,511.968,251.466,511.909,249.21z"/>
<rect x="142.115" y="107.411" style="fill:#57565C;" width="227.998" height="297.187"/>
<rect x="255.674" y="107.411" style="fill:#3E3E42;" width="114.439" height="297.187"/>
<rect x="171.935" y="146.286" style="fill:#FFFFFF;" width="168.337" height="219.429"/>
<rect x="255.674" y="146.286" style="fill:#BCD8F2;" width="84.608" height="219.429"/>
<rect x="211.956" y="121.901" style="fill:#E57654;" width="88.295" height="48.759"/>
<rect x="255.674" y="121.901" style="fill:#E25F3F;" width="44.588" height="48.759"/>
<rect x="196.695" y="213.498" style="fill:#A2C8EA;" width="118.61" height="17.462"/>
<rect x="255.674" y="213.498" style="fill:#8AB8E4;" width="59.631" height="17.462"/>
<rect x="196.695" y="249.575" style="fill:#A2C8EA;" width="118.61" height="17.462"/>
<rect x="255.674" y="249.575" style="fill:#8AB8E4;" width="59.631" height="17.462"/>
<rect x="196.695" y="285.652" style="fill:#A2C8EA;" width="118.61" height="17.462"/>
<rect x="255.674" y="285.652" style="fill:#8AB8E4;" width="59.631" height="17.462"/>
<g>
</g>
<g>
</g>
<g>
</g>
<g>
</g>
<g>
</g>
<g>
</g>
<g>
</g>
<g>
</g>
<g>
</g>
<g>
</g>
<g>
</g>
<g>
</g>
<g>
</g>
<g>
</g>
<g>
</g>
</svg>
