<svg height="512pt" viewBox="0 0 512 512" width="512pt" xmlns="http://www.w3.org/2000/svg"><path d="m512 256c0 141.386719-114.613281 256-256 256s-256-114.613281-256-256 114.613281-256 256-256 256 114.613281 256 256zm0 0" fill="#811c26"/><path d="m512 256c0-7.394531-.332031-14.710938-.945312-21.945312l-116.554688-116.554688-277 277 116.554688 116.554688c7.234374.613281 14.550781.945312 21.945312.945312 141.386719 0 256-114.613281 256-256zm0 0" fill="#442236"/><path d="m281.546875 281.546875 87.40625-87.402344-25.546875-34.066406-91.660156 100.183594zm0 0" fill="#bd1515"/><path d="m251.746094 260.261719 95.917968-95.925781-29.808593-21.289063-87.402344 87.40625zm0 0" fill="#f2484b"/><path d="m194.144531 368.953125 87.410157-87.398437-25.550782-25.550782-95.917968 87.40625zm0 0" fill="#185f8d"/><path d="m164.34375 347.667969 91.660156-91.664063-25.550781-25.550781-87.402344 87.40625zm0 0" fill="#6da8d6"/><path d="m356.179688 130.273438 38.320312-12.773438-12.773438 38.320312-21.289062-4.257812zm0 0" fill="#bd1515"/><path d="m368.957031 194.144531 12.769531-38.324219-25.546874-25.546874-38.324219 12.769531zm0 0" fill="#f2ebd9"/><path d="m130.273438 356.179688-12.773438 38.320312 38.320312-12.773438-4.257812-21.289062zm0 0" fill="#185f8d"/><path d="m194.144531 368.957031-38.324219 12.769531-25.546874-25.546874 12.769531-38.324219zm0 0" fill="#f2ebd9"/></svg>