<svg height="512pt" viewBox="0 0 512 512" width="512pt" xmlns="http://www.w3.org/2000/svg"><path d="m512 256c0 141.386719-114.613281 256-256 256s-256-114.613281-256-256 114.613281-256 256-256 256 114.613281 256 256zm0 0" fill="#f2484b"/><path d="m512 256c0-3.199219-.078125-6.378906-.195312-9.550781l-111.304688-111.304688-77.578125 31.804688-40.558594-14.304688-70.851562 69.15625 13.972656 13.976563-100.859375 166.488281 108.722656 108.722656c7.464844.65625 15.015625 1.011719 22.652344 1.011719 141.386719 0 256-114.613281 256-256zm0 0" fill="#bd1515"/><path d="m339.242188 152.648438 39.378906-39.378907 21.875 21.875-39.378906 39.378907zm0 0" fill="#9ec8e8"/><path d="m354.558594 211.714844-138.050782 138.050781-35.003906-26.253906 142.429688-142.425781zm0 0" fill="#082947"/><path d="m328.308594 185.460938-142.425782 142.425781-21.878906-30.625 138.050782-138.050781zm0 0" fill="#274b6d"/><path d="m380.8125 185.460938-26.253906 26.253906-30.625-30.628906 30.625-21.875zm0 0" fill="#4284b2"/><path d="m139.941406 360.699219 13.125 13.125-28.4375 28.441406-13.128906-13.128906zm0 0" fill="#082947"/><path d="m216.507812 349.765625-65.628906 39.375-13.125-13.125 17.5-35.003906 35.003906-17.5zm0 0" fill="#4284b2"/><path d="m190.257812 323.511719-52.503906 52.503906-13.128906-13.125 39.378906-65.628906zm0 0" fill="#6da8d6"/><path d="m302.050781 159.210938 26.253907-26.253907 26.25 26.253907-26.25 26.25zm0 0" fill="#6da8d6"/><path d="m212.359375 222.652344-13.125-13.128906 83.132813-83.128907 78.753906 78.753907-13.125 13.128906-65.628906-65.632813zm0 0" fill="#9ec8e8"/></svg>