<?xml version="1.0" encoding="iso-8859-1"?>
<!-- Generator: Adobe Illustrator 19.0.0, SVG Export Plug-In . SVG Version: 6.00 Build 0)  -->
<svg xmlns="http://www.w3.org/2000/svg" xmlns:xlink="http://www.w3.org/1999/xlink" version="1.1" id="Capa_1" x="0px" y="0px" viewBox="0 0 512.007 512.007" style="enable-background:new 0 0 512.007 512.007;" xml:space="preserve">
<circle style="fill:#EA971E;" cx="256.003" cy="256.003" r="256.003"/>
<path style="fill:#C27526;" d="M399.673,121.911h-48.271h-48.445h-48.271H206.24v-0.261h-48.271h-48.445v268.193L230.412,510.73  c8.416,0.835,16.951,1.27,25.587,1.27C397.385,512,512,397.385,512,256c0-7.68-0.358-15.274-1.02-22.782L399.673,121.911z"/>
<rect x="109.519" y="121.653" style="fill:#E25F3F;" width="96.713" height="268.196"/>
<rect x="157.965" y="121.653" style="fill:#CC4A2B;" width="48.271" height="268.196"/>
<rect x="133.054" y="154.065" style="fill:#FFFFFF;" width="49.663" height="125.998"/>
<rect x="157.965" y="154.065" style="fill:#F9ED9D;" width="24.742" height="125.998"/>
<rect x="133.054" y="251.302" style="fill:#F6E781;" width="49.663" height="28.751"/>
<rect x="157.965" y="251.302" style="fill:#F7E05D;" width="24.742" height="28.751"/>
<circle style="fill:#FFFFFF;" cx="157.885" cy="333.378" r="25.094"/>
<path style="fill:#BDAC92;" d="M157.969,308.289v50.184c13.819-0.047,25.007-11.262,25.007-25.092  C182.975,319.551,171.788,308.336,157.969,308.289z"/>
<rect x="206.242" y="121.91" style="fill:#3B6EAF;" width="96.713" height="268.196"/>
<rect x="254.687" y="121.91" style="fill:#2D5D92;" width="48.271" height="268.196"/>
<rect x="229.767" y="154.323" style="fill:#FFFFFF;" width="49.663" height="125.998"/>
<rect x="254.687" y="154.323" style="fill:#F9ED9D;" width="24.742" height="125.998"/>
<rect x="229.767" y="251.56" style="fill:#F6E781;" width="49.663" height="28.751"/>
<rect x="254.687" y="251.56" style="fill:#F7E05D;" width="24.742" height="28.751"/>
<circle style="fill:#FFFFFF;" cx="254.598" cy="333.645" r="25.094"/>
<path style="fill:#BDAC92;" d="M254.685,308.55v50.184c13.819-0.048,25.007-11.262,25.007-25.092  C279.692,319.813,268.504,308.598,254.685,308.55z"/>
<rect x="302.954" y="121.91" style="fill:#348A7A;" width="96.713" height="268.196"/>
<rect x="351.4" y="121.91" style="fill:#27675C;" width="48.271" height="268.196"/>
<rect x="326.479" y="154.323" style="fill:#FFFFFF;" width="49.663" height="125.998"/>
<rect x="351.4" y="154.323" style="fill:#F9ED9D;" width="24.742" height="125.998"/>
<rect x="326.479" y="251.56" style="fill:#F6E781;" width="49.663" height="28.751"/>
<rect x="351.4" y="251.56" style="fill:#F7E05D;" width="24.742" height="28.751"/>
<circle style="fill:#FFFFFF;" cx="351.311" cy="333.645" r="25.094"/>
<path style="fill:#BDAC92;" d="M351.402,308.55v50.184c13.819-0.048,25.007-11.262,25.007-25.092  C376.408,319.813,365.221,308.598,351.402,308.55z"/>
<g>
</g>
<g>
</g>
<g>
</g>
<g>
</g>
<g>
</g>
<g>
</g>
<g>
</g>
<g>
</g>
<g>
</g>
<g>
</g>
<g>
</g>
<g>
</g>
<g>
</g>
<g>
</g>
<g>
</g>
</svg>
