<svg xmlns="http://www.w3.org/2000/svg" height="512pt" version="1.1" viewBox="0 0 512 512" width="512pt">
<g id="surface1">
<path d="M 512 256 C 512 397.386719 397.386719 512 256 512 C 114.613281 512 0 397.386719 0 256 C 0 114.613281 114.613281 0 256 0 C 397.386719 0 512 114.613281 512 256 Z M 512 256 " style=" stroke:none;fill-rule:nonzero;fill:rgb(98.039216%,36.470588%,5.882353%);fill-opacity:1;" />
<path d="M 512 256 C 512 227.429688 507.316406 199.953125 498.679688 174.292969 L 418.390625 94.003906 L 330.140625 237.28125 L 186.863281 94.003906 L 184.980469 396.492188 L 297.175781 508.6875 C 418.980469 488.988281 512 383.367188 512 256 Z M 512 256 " style=" stroke:none;fill-rule:nonzero;fill:rgb(93.72549%,21.960784%,0%);fill-opacity:1;" />
<path d="M 268.234375 319.664062 L 174.984375 319.664062 L 93.609375 94.003906 L 186.863281 94.003906 Z M 268.234375 319.664062 " style=" stroke:none;fill-rule:nonzero;fill:rgb(25.490196%,28.627451%,32.156863%);fill-opacity:1;" />
<path d="M 243.765625 319.664062 L 337.015625 319.664062 L 418.390625 94.003906 L 325.136719 94.003906 Z M 243.765625 319.664062 " style=" stroke:none;fill-rule:nonzero;fill:rgb(13.72549%,15.294118%,16.862745%);fill-opacity:1;" />
<path d="M 352.160156 331.660156 C 352.160156 384.769531 309.109375 427.820312 256 427.820312 C 202.890625 427.820312 159.839844 384.769531 159.839844 331.660156 C 159.839844 278.554688 202.890625 235.5 256 235.5 C 309.109375 235.5 352.160156 278.554688 352.160156 331.660156 Z M 352.160156 331.660156 " style=" stroke:none;fill-rule:nonzero;fill:rgb(100%,83.137255%,0%);fill-opacity:1;" />
<path d="M 256 235.5 C 255.921875 235.5 255.839844 235.503906 255.761719 235.503906 L 255.761719 427.820312 C 255.84375 427.820312 255.921875 427.820312 256 427.820312 C 309.109375 427.820312 352.160156 384.769531 352.160156 331.660156 C 352.160156 278.554688 309.109375 235.5 256 235.5 Z M 256 235.5 " style=" stroke:none;fill-rule:nonzero;fill:rgb(99.215686%,72.941176%,7.058824%);fill-opacity:1;" />
<path d="M 320.832031 331.660156 C 320.832031 367.464844 291.804688 396.492188 256 396.492188 C 220.195312 396.492188 191.167969 367.464844 191.167969 331.660156 C 191.167969 295.855469 220.195312 266.828125 256 266.828125 C 291.804688 266.828125 320.832031 295.855469 320.832031 331.660156 Z M 320.832031 331.660156 " style=" stroke:none;fill-rule:nonzero;fill:rgb(100%,90.980392%,37.254902%);fill-opacity:1;" />
<path d="M 256 266.832031 C 255.921875 266.832031 255.84375 266.835938 255.761719 266.835938 L 255.761719 396.484375 C 255.84375 396.484375 255.921875 396.492188 256 396.492188 C 291.804688 396.492188 320.832031 367.464844 320.832031 331.660156 C 320.832031 295.855469 291.804688 266.832031 256 266.832031 Z M 256 266.832031 " style=" stroke:none;fill-rule:nonzero;fill:rgb(100%,76.078431%,0%);fill-opacity:1;" />
<path d="M 243.765625 285.398438 L 268.234375 285.398438 L 268.234375 377.925781 L 243.765625 377.925781 Z M 243.765625 285.398438 " style=" stroke:none;fill-rule:nonzero;fill:rgb(99.215686%,72.941176%,7.058824%);fill-opacity:1;" />
<path d="M 255.761719 285.398438 L 268.234375 285.398438 L 268.234375 377.925781 L 255.761719 377.925781 Z M 255.761719 285.398438 " style=" stroke:none;fill-rule:nonzero;fill:rgb(100%,63.921569%,0%);fill-opacity:1;" />
</g>
</svg>