<svg height="512pt" viewBox="0 0 512 512" width="512pt" xmlns="http://www.w3.org/2000/svg"><path d="m512 256c0 141.386719-114.613281 256-256 256s-256-114.613281-256-256 114.613281-256 256-256 256 114.613281 256 256zm0 0" fill="#185f8d"/><path d="m511.921875 262.125-117.417969-117.421875-277.007812 249.796875 116.554687 116.554688c7.238281.613281 14.554688.945312 21.949219.945312 139.335938 0 252.667969-111.320312 255.921875-249.875zm0 0" fill="#082947"/><path d="m394.503906 144.703125-115.660156 136.527344-32.558594-24.035157 134.609375-126.089843zm0 0" fill="#ff6e1d"/><path d="m380.894531 131.105469-130.351562 130.347656-19.777344-28.292969 136.523437-115.660156zm0 0" fill="#ff9d49"/><path d="m195.117188 372.234375-77.621094 22.265625 73.441406-81.953125 13.601562 22.117187c-9.902343 9.90625-12.878906 24.304688-9.421874 37.570313zm0 0" fill="#ffb55f"/><path d="m278.84375 281.230469-35.15625 41.496093-35.722656-27.207031 46.835937-38.324219zm0 0" fill="#55a7a2"/><path d="m195.195312 316.804688-77.699218 77.695312 22.265625-77.617188c13.269531 3.457032 27.664062.480469 37.570312-9.425781zm0 0" fill="#ffcc75"/><path d="m254.800781 257.195312-42.578125 42.582032-22.949218-31.472656 41.492187-35.144532zm0 0" fill="#98d9d5"/><path d="m243.6875 322.726562-39.148438 11.941407-13.601562-13.605469 4.171875-21.207031 21.371094-4.335938zm0 0" fill="#98d9d5"/><path d="m216.480469 295.519531-25.542969 25.542969-13.605469-13.605469 11.941407-39.152343zm0 0" fill="#c1e8e6"/><path d="m148.277344 350.941406 12.773437-12.773437 12.773438 12.773437-12.773438 12.773438zm0 0" fill="#ff6e1d"/></svg>