<?xml version="1.0" encoding="iso-8859-1"?>
<!-- Generator: Adobe Illustrator 19.0.0, SVG Export Plug-In . SVG Version: 6.00 Build 0)  -->
<svg version="1.1" id="Capa_1" xmlns="http://www.w3.org/2000/svg" xmlns:xlink="http://www.w3.org/1999/xlink" x="0px" y="0px"
	 viewBox="0 0 512 512" style="enable-background:new 0 0 512 512;" xml:space="preserve">
<circle style="fill:#FD833F;" cx="256" cy="256" r="256"/>
<path style="fill:#FA5535;" d="M447.168,354.333L131.548,195.19L87,354.333l157.393,157.393C248.242,511.898,252.109,512,256,512
	c94.517,0,177.06-51.229,221.406-127.429L447.168,354.333z"/>
<path style="fill:#FED500;" d="M87,125.264v229.07h360.168L87,125.264z M136.158,208.981l154.997,98.579H136.158V208.981z"/>
<polygon style="fill:#FCC000;" points="87,354.333 447.168,354.333 232.749,217.961 199.219,249.088 291.155,307.56 136.158,307.56 
	"/>
<g>
	<rect x="117.31" y="331.07" style="fill:#FFE861;" width="5.639" height="23.259"/>
	<rect x="156.87" y="331.07" style="fill:#FFE861;" width="5.639" height="23.259"/>
	<rect x="275.56" y="331.07" style="fill:#FFE861;" width="5.639" height="23.259"/>
	<rect x="236" y="331.07" style="fill:#FFE861;" width="5.639" height="23.259"/>
	<rect x="196.44" y="331.07" style="fill:#FFE861;" width="5.639" height="23.259"/>
	<rect x="354.69" y="331.07" style="fill:#FFE861;" width="5.639" height="23.259"/>
	<rect x="315.13" y="331.07" style="fill:#FFE861;" width="5.639" height="23.259"/>
</g>
<g>
</g>
<g>
</g>
<g>
</g>
<g>
</g>
<g>
</g>
<g>
</g>
<g>
</g>
<g>
</g>
<g>
</g>
<g>
</g>
<g>
</g>
<g>
</g>
<g>
</g>
<g>
</g>
<g>
</g>
</svg>
