<svg xmlns="http://www.w3.org/2000/svg" height="512pt" version="1.1" viewBox="0 0 512 512" width="512pt">
<g id="surface1">
<path d="M 512 256 C 512 397.386719 397.386719 512 256 512 C 114.613281 512 0 397.386719 0 256 C 0 114.613281 114.613281 0 256 0 C 397.386719 0 512 114.613281 512 256 Z M 512 256 " style=" stroke:none;fill-rule:nonzero;fill:rgb(3.529412%,80.784314%,40.392157%);fill-opacity:1;" />
<path d="M 512 256 C 512 245.75 511.378906 235.648438 510.207031 225.714844 L 422.5 138.003906 L 89.5 359.433594 L 241.660156 511.59375 C 246.40625 511.855469 251.1875 512 256 512 C 397.386719 512 512 397.386719 512 256 Z M 512 256 " style=" stroke:none;fill-rule:nonzero;fill:rgb(10.196078%,67.843137%,36.078431%);fill-opacity:1;" />
<path d="M 422.5 138.003906 L 89.5 138.003906 L 89.5 359.433594 L 148.503906 359.433594 L 148.503906 418.433594 L 218.597656 359.433594 L 422.5 359.433594 Z M 422.5 138.003906 " style=" stroke:none;fill-rule:nonzero;fill:rgb(25.490196%,28.627451%,32.156863%);fill-opacity:1;" />
<path d="M 255.761719 138.003906 L 422.5 138.003906 L 422.5 359.433594 L 255.761719 359.433594 Z M 255.761719 138.003906 " style=" stroke:none;fill-rule:nonzero;fill:rgb(20%,22.352941%,25.098039%);fill-opacity:1;" />
<path d="M 369.988281 291.871094 L 327.539062 259.632812 L 285.089844 291.871094 L 285.089844 138.003906 L 369.988281 138.003906 Z M 369.988281 291.871094 " style=" stroke:none;fill-rule:nonzero;fill:rgb(99.607843%,41.568627%,8.627451%);fill-opacity:1;" />
<path d="M 327.5 138.003906 L 327.5 259.664062 L 327.539062 259.632812 L 369.988281 291.871094 L 369.988281 138.003906 Z M 327.5 138.003906 " style=" stroke:none;fill-rule:nonzero;fill:rgb(94.901961%,27.058824%,0%);fill-opacity:1;" />
</g>
</svg>