<svg height="512pt" viewBox="0 0 512 512" width="512pt" xmlns="http://www.w3.org/2000/svg"><path d="m512 256c0 141.386719-114.613281 256-256 256s-256-114.613281-256-256 114.613281-256 256-256 256 114.613281 256 256zm0 0" fill="#53433f"/><path d="m505.199219 197.171875-95.167969-95.164063-308.011719 308.011719 95.183594 95.1875c18.882813 4.4375 38.5625 6.792969 58.796875 6.792969 141.386719 0 256-114.613281 256-256 0-20.246094-2.359375-39.9375-6.800781-58.828125zm0 0" fill="#3e322e"/><path d="m256 102h-154v154l72.789062 19.640625 99.257813-1.59375 4.886719-127.832031zm0 0" fill="#ff9f00"/><path d="m367.066406 226.296875-111.066406 29.703125-23.3125 122.191406 23.3125 31.808594h154v-154zm0 0" fill="#ff4b00"/><path d="m256 102h154v154h-154zm0 0" fill="#ff7816"/><path d="m102 256h154v154h-154zm0 0" fill="#ff7816"/><path d="m210.882812 355.257812h18.046876v18.046876h-18.046876zm0 0" fill="#68544f"/><path d="m355.859375 355.257812h18.046875v18.046876h-18.046875zm0 0" fill="#53433f"/><path d="m210.882812 210.882812h18.046876v18.046876h-18.046876zm0 0" fill="#68544f"/><path d="m355.859375 210.882812h18.046875v18.046876h-18.046875zm0 0" fill="#53433f"/><path d="m228.929688 192.835938h-72.1875v-54.140626h72.1875zm0 0" fill="#e7e7e7"/><path d="m373.90625 192.835938h-72.1875v-54.140626h72.1875zm0 0" fill="#d3d3d8"/><path d="m228.929688 337.210938h-72.1875v-54.140626h72.1875zm0 0" fill="#e7e7e7"/><path d="m373.90625 337.210938h-72.1875v-54.140626h72.1875zm0 0" fill="#d3d3d8"/></svg>