<svg xmlns="http://www.w3.org/2000/svg" height="512pt" version="1.1" viewBox="0 0 512 512" width="512pt">
<g id="surface1">
<path d="M 512 256 C 512 397.386719 397.386719 512 256 512 C 114.613281 512 0 397.386719 0 256 C 0 114.613281 114.613281 0 256 0 C 397.386719 0 512 114.613281 512 256 Z M 512 256 " style=" stroke:none;fill-rule:nonzero;fill:rgb(0%,92.941176%,100%);fill-opacity:1;" />
<path d="M 265.855469 54.757812 L 74.945312 189.664062 L 370.359375 485.078125 C 442.488281 449.003906 495.191406 379.871094 508.628906 297.535156 Z M 265.855469 54.757812 " style=" stroke:none;fill-rule:nonzero;fill:rgb(2.745098%,74.509804%,90.980392%);fill-opacity:1;" />
<path d="M 282.492188 171.140625 L 219.59375 217.894531 L 144.972656 241.847656 L 104.402344 162.945312 L 241.925781 92.238281 Z M 282.492188 171.140625 " style=" stroke:none;fill-rule:nonzero;fill:rgb(33.333333%,35.294118%,40%);fill-opacity:1;" />
<path d="M 241.925781 92.238281 L 173.355469 127.492188 L 219.59375 217.894531 L 282.492188 171.140625 Z M 241.925781 92.238281 " style=" stroke:none;fill-rule:nonzero;fill:rgb(25.490196%,28.627451%,32.156863%);fill-opacity:1;" />
<path d="M 261.5 82.175781 L 268.910156 78.367188 L 309.738281 157.785156 L 302.328125 161.59375 Z M 261.5 82.175781 " style=" stroke:none;fill-rule:nonzero;fill:rgb(33.333333%,35.294118%,40%);fill-opacity:1;" />
<path d="M 309.757812 157.777344 L 268.925781 78.355469 L 265.726562 80 L 305.664062 159.878906 Z M 309.757812 157.777344 " style=" stroke:none;fill-rule:nonzero;fill:rgb(25.490196%,28.627451%,32.156863%);fill-opacity:1;" />
<path d="M 329.921875 179.117188 L 307.976562 190.402344 L 297.898438 158.917969 C 296.855469 155.660156 298.320312 152.125 301.363281 150.5625 C 304.40625 148.996094 308.132812 149.859375 310.175781 152.605469 Z M 329.921875 179.117188 " style=" stroke:none;fill-rule:nonzero;fill:rgb(98.039216%,36.470588%,5.882353%);fill-opacity:1;" />
<path d="M 310.175781 152.605469 C 308.132812 149.859375 304.40625 148.996094 301.363281 150.5625 C 301.269531 150.609375 301.179688 150.667969 301.085938 150.71875 L 318.277344 185.105469 L 329.921875 179.117188 Z M 310.175781 152.605469 " style=" stroke:none;fill-rule:nonzero;fill:rgb(93.72549%,21.960784%,0%);fill-opacity:1;" />
<path d="M 59.992188 160.59375 L 265.835938 54.769531 L 280.78125 83.835938 L 74.9375 189.664062 Z M 59.992188 160.59375 " style=" stroke:none;fill-rule:nonzero;fill:rgb(25.490196%,28.627451%,32.156863%);fill-opacity:1;" />
<path d="M 265.855469 54.757812 L 163.128906 107.574219 L 178.054688 136.652344 L 280.800781 83.828125 Z M 265.855469 54.757812 " style=" stroke:none;fill-rule:nonzero;fill:rgb(13.72549%,15.294118%,16.862745%);fill-opacity:1;" />
<path d="M 346.550781 388.488281 L 294.742188 364.09375 L 253.582031 324.28125 L 290.421875 270.941406 L 383.386719 335.152344 Z M 346.550781 388.488281 " style=" stroke:none;fill-rule:nonzero;fill:rgb(33.333333%,35.294118%,40%);fill-opacity:1;" />
<path d="M 294.742188 364.09375 L 346.550781 388.488281 L 383.386719 335.152344 L 336.359375 302.671875 Z M 294.742188 364.09375 " style=" stroke:none;fill-rule:nonzero;fill:rgb(25.490196%,28.627451%,32.156863%);fill-opacity:1;" />
<path d="M 396.625 344.289062 L 401.632812 347.75 L 364.554688 401.4375 L 359.542969 397.976562 Z M 396.625 344.289062 " style=" stroke:none;fill-rule:nonzero;fill:rgb(33.333333%,35.294118%,40%);fill-opacity:1;" />
<path d="M 401.640625 347.757812 L 398.882812 345.851562 L 361.917969 399.621094 L 364.558594 401.445312 Z M 401.640625 347.757812 " style=" stroke:none;fill-rule:nonzero;fill:rgb(25.490196%,28.627451%,32.156863%);fill-opacity:1;" />
<path d="M 357.761719 421.792969 L 342.925781 411.546875 L 359.734375 394.199219 C 361.472656 392.40625 364.257812 392.128906 366.3125 393.550781 C 368.367188 394.972656 369.097656 397.671875 368.035156 399.933594 Z M 357.761719 421.792969 " style=" stroke:none;fill-rule:nonzero;fill:rgb(98.039216%,36.470588%,5.882353%);fill-opacity:1;" />
<path d="M 366.3125 393.550781 C 366.261719 393.515625 366.203125 393.492188 366.152344 393.460938 L 350.242188 416.601562 L 357.761719 421.792969 L 368.035156 399.933594 C 369.097656 397.671875 368.371094 394.972656 366.3125 393.550781 Z M 366.3125 393.550781 " style=" stroke:none;fill-rule:nonzero;fill:rgb(93.72549%,21.960784%,0%);fill-opacity:1;" />
<path d="M 276.621094 241.523438 L 415.773438 337.636719 L 402.203125 357.285156 L 263.046875 261.171875 Z M 276.621094 241.523438 " style=" stroke:none;fill-rule:nonzero;fill:rgb(25.490196%,28.627451%,32.156863%);fill-opacity:1;" />
<path d="M 415.78125 337.640625 L 345.675781 289.222656 L 332.078125 308.855469 L 402.210938 357.292969 Z M 415.78125 337.640625 " style=" stroke:none;fill-rule:nonzero;fill:rgb(13.72549%,15.294118%,16.862745%);fill-opacity:1;" />
</g>
</svg>