<?xml version="1.0" encoding="iso-8859-1"?>
<!-- Generator: Adobe Illustrator 19.0.0, SVG Export Plug-In . SVG Version: 6.00 Build 0)  -->
<svg version="1.1" id="Capa_1" xmlns="http://www.w3.org/2000/svg" xmlns:xlink="http://www.w3.org/1999/xlink" x="0px" y="0px"
	 viewBox="0 0 512 512" style="enable-background:new 0 0 512 512;" xml:space="preserve">
<circle style="fill:#FEE17A;" cx="256" cy="256" r="256"/>
<path style="fill:#FCC55F;" d="M512,256c0-4.837-0.147-9.64-0.412-14.412L364.5,94.5l-197.532,81.927L201.19,206.5l-75.69,3.604
	l87.044,87.044L125.5,311.104l65.81,65.81l-61.074,40.496l92.432,92.432C233.578,511.26,244.702,512,256,512
	C397.385,512,512,397.385,512,256z"/>
<path style="fill:#E0F4FD;" d="M385.5,425H177c-27.89,0-50.5-22.61-50.5-50.5l0,0c0-27.89,22.61-50.5,50.5-50.5h208.5"/>
<rect x="255.95" y="324" style="fill:#CADBE0;" width="129.55" height="101"/>
<path style="fill:#303F9E;" d="M398.5,438H177c-35.014,0-63.5-28.486-63.5-63.5S141.986,311,177,311h221.5v26H177
	c-20.678,0-37.5,16.822-37.5,37.5S156.322,412,177,412h221.5V438z"/>
<g>
	<rect x="255.95" y="311" style="fill:#283592;" width="142.55" height="26"/>
	<rect x="255.95" y="412" style="fill:#283592;" width="142.55" height="26"/>
</g>
<path style="fill:#F0F7E8;" d="M351.5,173.43H198.144c-20.514,0-37.144-14.759-37.144-32.965l0,0
	c0-18.206,16.63-32.965,37.144-32.965H351.5"/>
<rect x="255.95" y="107.5" style="fill:#E0E0E0;" width="95.55" height="65.93"/>
<path style="fill:#2E7D32;" d="M364.5,186.43H198.144c-27.649,0-50.144-20.62-50.144-45.965S170.494,94.5,198.144,94.5H364.5v26
	H198.144c-13.313,0-24.144,8.956-24.144,19.965s10.831,19.965,24.144,19.965H364.5V186.43z"/>
<g>
	<rect x="255.95" y="160.43" style="fill:#1B5E20;" width="108.55" height="26"/>
	<rect x="255.95" y="94.5" style="fill:#1B5E20;" width="108.55" height="26"/>
</g>
<path style="fill:#E0F4FD;" d="M138.5,197.104H347c27.89,0,50.5,22.61,50.5,50.5l0,0c0,27.89-22.61,50.5-50.5,50.5H138.5V197.104z"
	/>
<path style="fill:#E0E0E0;" d="M347,197.104h-91.048v101H347c27.89,0,50.5-22.61,50.5-50.5l0,0
	C397.5,219.713,374.89,197.104,347,197.104z"/>
<path style="fill:#DA302B;" d="M347,311.104H125.5v-26H347c20.678,0,37.5-16.822,37.5-37.5s-16.822-37.5-37.5-37.5H125.5v-26H347
	c35.014,0,63.5,28.486,63.5,63.5S382.014,311.104,347,311.104z"/>
<path style="fill:#C40619;" d="M347,184.104h-91.048v26H347c20.678,0,37.5,16.822,37.5,37.5s-16.822,37.5-37.5,37.5h-91.048v26H347
	c35.014,0,63.5-28.486,63.5-63.5S382.014,184.104,347,184.104z"/>
<g>
</g>
<g>
</g>
<g>
</g>
<g>
</g>
<g>
</g>
<g>
</g>
<g>
</g>
<g>
</g>
<g>
</g>
<g>
</g>
<g>
</g>
<g>
</g>
<g>
</g>
<g>
</g>
<g>
</g>
</svg>
