<?xml version="1.0" encoding="iso-8859-1"?>
<!-- Generator: Adobe Illustrator 19.0.0, SVG Export Plug-In . SVG Version: 6.00 Build 0)  -->
<svg xmlns="http://www.w3.org/2000/svg" xmlns:xlink="http://www.w3.org/1999/xlink" version="1.1" id="Capa_1" x="0px" y="0px" viewBox="0 0 512 512" style="enable-background:new 0 0 512 512;" xml:space="preserve">
<circle style="fill:#5A7EBF;" cx="256" cy="256" r="256"/>
<path style="fill:#4360AC;" d="M511.245,236.209l-100.66-100.66l0,0h-5.251l-19.857-19.857h-14.769v19.857h-6.072l-19.856-19.857  h-14.769v19.856h-6.071l-19.858-19.856h-14.769v19.856h-6.072l-19.856-19.856h-14.769v19.857h-6.072l-19.856-19.857l0,0h-14.769  v19.857h-6.071l-19.858-19.857H167.22v19.857h-6.072l-19.856-19.857l0,0h-14.769v19.857h-25.108v61.703v179.856l134.073,134.073  C242.256,511.717,249.095,512,256,512c141.385,0,256-114.615,256-256C512,249.341,511.745,242.741,511.245,236.209z"/>
<rect x="101.415" y="135.552" style="fill:#FFFFFF;" width="309.169" height="241.556"/>
<rect x="101.415" y="135.552" style="fill:#E57654;" width="309.169" height="61.706"/>
<rect x="256" y="135.552" style="fill:#C6C5CA;" width="154.585" height="241.556"/>
<rect x="256" y="135.552" style="fill:#BF2717;" width="154.585" height="61.706"/>
<g>
	<rect x="248.615" y="115.692" style="fill:#3E3E42;" width="14.769" height="39.71"/>
	<rect x="207.921" y="115.692" style="fill:#3E3E42;" width="14.769" height="39.71"/>
	<rect x="167.217" y="115.692" style="fill:#3E3E42;" width="14.769" height="39.71"/>
	<rect x="126.523" y="115.692" style="fill:#3E3E42;" width="14.769" height="39.71"/>
	<rect x="370.708" y="115.692" style="fill:#3E3E42;" width="14.769" height="39.71"/>
	<rect x="330.014" y="115.692" style="fill:#3E3E42;" width="14.769" height="39.71"/>
	<rect x="289.31" y="115.692" style="fill:#3E3E42;" width="14.769" height="39.71"/>
</g>
<g>
	<rect x="203.185" y="217.108" style="fill:#E1E1E3;" width="39.22" height="39.22"/>
	<rect x="333.863" y="217.108" style="fill:#E1E1E3;" width="39.22" height="39.22"/>
	<rect x="268.032" y="217.108" style="fill:#E1E1E3;" width="39.22" height="39.22"/>
	<rect x="137.354" y="269.292" style="fill:#E1E1E3;" width="39.22" height="39.22"/>
	<rect x="203.185" y="269.292" style="fill:#E1E1E3;" width="39.22" height="39.22"/>
	<rect x="333.863" y="269.292" style="fill:#E1E1E3;" width="39.22" height="39.22"/>
	<rect x="268.032" y="269.292" style="fill:#E1E1E3;" width="39.22" height="39.22"/>
	<rect x="137.354" y="321.477" style="fill:#E1E1E3;" width="39.22" height="39.22"/>
	<rect x="203.185" y="321.477" style="fill:#E1E1E3;" width="39.22" height="39.22"/>
	<rect x="333.863" y="321.477" style="fill:#E1E1E3;" width="39.22" height="39.22"/>
	<rect x="268.032" y="321.477" style="fill:#E1E1E3;" width="39.22" height="39.22"/>
</g>
<g>
</g>
<g>
</g>
<g>
</g>
<g>
</g>
<g>
</g>
<g>
</g>
<g>
</g>
<g>
</g>
<g>
</g>
<g>
</g>
<g>
</g>
<g>
</g>
<g>
</g>
<g>
</g>
<g>
</g>
</svg>
