<svg xmlns="http://www.w3.org/2000/svg" height="512pt" version="1.1" viewBox="0 0 512 512" width="512pt">
<g id="surface1">
<path d="M 512 256 C 512 397.386719 397.386719 512 256 512 C 114.613281 512 0 397.386719 0 256 C 0 114.613281 114.613281 0 256 0 C 397.386719 0 512 114.613281 512 256 Z M 512 256 " style=" stroke:none;fill-rule:nonzero;fill:rgb(25.490196%,28.627451%,32.156863%);fill-opacity:1;" />
<path d="M 510.578125 283.050781 L 450.359375 222.832031 L 446.300781 230.304688 L 327 111 L 209.929688 245.191406 L 61.640625 271.871094 L 121.59375 331.828125 L 84.5 387 L 204.269531 506.769531 C 220.976562 510.199219 238.277344 512 256 512 C 388.246094 512 497.066406 411.71875 510.578125 283.050781 Z M 510.578125 283.050781 " style=" stroke:none;fill-rule:nonzero;fill:rgb(20%,22.352941%,25.098039%);fill-opacity:1;" />
<path d="M 162.5 283 L 189.738281 283 L 189.738281 387 L 162.5 387 Z M 162.5 283 " style=" stroke:none;fill-rule:nonzero;fill:rgb(99.215686%,72.941176%,7.058824%);fill-opacity:1;" />
<path d="M 322.261719 283 L 349.5 283 L 349.5 387 L 322.261719 387 Z M 322.261719 283 " style=" stroke:none;fill-rule:nonzero;fill:rgb(100%,63.921569%,0%);fill-opacity:1;" />
<path d="M 185 111 L 327 111 L 327 253 L 185 253 Z M 185 111 " style=" stroke:none;fill-rule:nonzero;fill:rgb(100%,83.137255%,0%);fill-opacity:1;" />
<path d="M 255.761719 111 L 327 111 L 327 253 L 255.761719 253 Z M 255.761719 111 " style=" stroke:none;fill-rule:nonzero;fill:rgb(99.215686%,72.941176%,7.058824%);fill-opacity:1;" />
<path d="M 162.5 247.351562 L 349.5 247.351562 L 349.5 291 L 162.5 291 Z M 162.5 247.351562 " style=" stroke:none;fill-rule:nonzero;fill:rgb(100%,83.137255%,0%);fill-opacity:1;" />
<path d="M 255.761719 247.351562 L 349.5 247.351562 L 349.5 291 L 255.761719 291 Z M 255.761719 247.351562 " style=" stroke:none;fill-rule:nonzero;fill:rgb(99.215686%,72.941176%,7.058824%);fill-opacity:1;" />
<path d="M 84.5 253 L 130.5 253 L 130.5 387 L 84.5 387 Z M 84.5 253 " style=" stroke:none;fill-rule:nonzero;fill:rgb(99.607843%,50.980392%,1.960784%);fill-opacity:1;" />
<path d="M 381.5 253 L 427.5 253 L 427.5 387 L 381.5 387 Z M 381.5 253 " style=" stroke:none;fill-rule:nonzero;fill:rgb(99.607843%,41.568627%,8.627451%);fill-opacity:1;" />
<path d="M 61.640625 222.832031 L 450.359375 222.832031 L 450.359375 271.871094 L 61.640625 271.871094 Z M 61.640625 222.832031 " style=" stroke:none;fill-rule:nonzero;fill:rgb(99.607843%,41.568627%,8.627451%);fill-opacity:1;" />
<path d="M 255.761719 222.832031 L 450.359375 222.832031 L 450.359375 271.871094 L 255.761719 271.871094 Z M 255.761719 222.832031 " style=" stroke:none;fill-rule:nonzero;fill:rgb(94.901961%,27.058824%,0%);fill-opacity:1;" />
</g>
</svg>