<?xml version="1.0" encoding="iso-8859-1"?>
<!-- Generator: Adobe Illustrator 19.0.0, SVG Export Plug-In . SVG Version: 6.00 Build 0)  -->
<svg xmlns="http://www.w3.org/2000/svg" xmlns:xlink="http://www.w3.org/1999/xlink" version="1.1" id="Capa_1" x="0px" y="0px" viewBox="0 0 512.007 512.007" style="enable-background:new 0 0 512.007 512.007;" xml:space="preserve">
<circle style="fill:#5A7EBF;" cx="256.003" cy="256.003" r="256.003"/>
<path style="fill:#4360AC;" d="M256.229,91.819h-80.102v95.388h-73.016v35.341l0,0l12.673,12.673v47.967  c0,8.651,3.529,16.494,9.222,22.165l-0.001,0.001l50.46,50.46v79.616l76.519,76.519c1.338,0.021,2.674,0.05,4.016,0.051  c137.786,0,250.127-108.858,255.759-245.259L336.838,91.819l0,0H256.229z"/>
<path style="fill:#57565C;" d="M164.295,314.49h-17.211c-17.259,0-31.3-14.041-31.3-31.301v-86.313h17.003v86.313  c0,7.884,6.413,14.297,14.296,14.297h17.211L164.295,314.49L164.295,314.49z"/>
<rect x="176.127" y="91.815" style="fill:#F6D433;" width="160.708" height="164.11"/>
<rect x="256.23" y="91.815" style="fill:#DF871E;" width="80.606" height="164.11"/>
<rect x="175.467" y="294.482" style="fill:#C6C5CA;" width="29.007" height="140.941"/>
<rect x="308.492" y="294.482" style="fill:#797882;" width="29.007" height="140.941"/>
<rect x="147.458" y="288.676" style="fill:#DF871E;" width="218.047" height="34.634"/>
<rect x="256.23" y="288.676" style="fill:#A16125;" width="109.275" height="34.634"/>
<rect x="103.113" y="187.209" style="fill:#F6D433;" width="146.029" height="35.342"/>
<rect x="176.127" y="187.209" style="fill:#DF871E;" width="73.014" height="35.341"/>
<rect x="196.703" y="255.934" style="fill:#8A8A91;" width="19.334" height="32.741"/>
<rect x="296.927" y="255.934" style="fill:#797882;" width="19.334" height="32.741"/>
<g>
</g>
<g>
</g>
<g>
</g>
<g>
</g>
<g>
</g>
<g>
</g>
<g>
</g>
<g>
</g>
<g>
</g>
<g>
</g>
<g>
</g>
<g>
</g>
<g>
</g>
<g>
</g>
<g>
</g>
</svg>
