<svg height="512pt" viewBox="0 0 512 512" width="512pt" xmlns="http://www.w3.org/2000/svg"><path d="m512 256c0 141.386719-114.613281 256-256 256s-256-114.613281-256-256 114.613281-256 256-256 256 114.613281 256 256zm0 0" fill="#ff9d49"/><path d="m165.730469 399.5 111.609375 111.609375c131.398437-10.847656 234.660156-120.910156 234.660156-255.109375 0-11.226562-.730469-22.285156-2.128906-33.128906l-110.371094-110.371094zm0 0" fill="#ff6e1d"/><path d="m192.347656 139.109375 160.578125 160.585937-2.21875 15.523438 15.527344-2.214844 33.265625 33.265625-26.613281 26.617188-216.03125-207.160157zm0 0" fill="#f2484b"/><path d="m161.289062 161.289062 211.597657 211.597657-26.617188 26.613281-33.265625-33.265625 2.214844-15.527344-15.523438 2.21875-160.585937-160.578125zm0 0" fill="#bd1515"/><path d="m352.925781 299.691406 13.304688 13.308594-53.226563 53.226562-13.308594-13.304687zm0 0" fill="#fff"/><path d="m125.804688 152.421875-13.304688-39.921875 39.921875 13.304688-4.4375 22.179687zm0 0" fill="#f2484b"/><path d="m192.347656 139.109375-39.925781-13.304687-26.617187 26.617187 13.304687 39.925781zm0 0" fill="#f2ebd9"/><path d="m372.890625 192.347656-160.585937 160.578125-15.523438-2.21875 2.214844 15.527344-33.265625 33.265625-26.617188-26.613281 207.160157-216.03125zm0 0" fill="#55a7a2"/><path d="m350.710938 161.289062-211.597657 211.597657-26.613281-26.617188 33.265625-33.265625 15.527344 2.214844-2.21875-15.523438 160.578125-160.585937zm0 0" fill="#98d9d5"/><path d="m159.078125 299.691406 53.226563 53.230469-13.304688 13.304687-53.230469-53.226562zm0 0" fill="#fff"/><path d="m359.578125 125.804688 39.921875-13.304688-13.304688 39.921875-22.179687-4.4375zm0 0" fill="#98d9d5"/><path d="m372.890625 192.347656 13.304687-39.925781-26.617187-26.617187-39.925781 13.304687zm0 0" fill="#f2ebd9"/></svg>