<svg xmlns="http://www.w3.org/2000/svg" height="512pt" version="1.1" viewBox="0 0 512 512" width="512pt">
<g id="surface1">
<path d="M 512 256 C 512 397.386719 397.386719 512 256 512 C 114.613281 512 0 397.386719 0 256 C 0 114.613281 114.613281 0 256 0 C 397.386719 0 512 114.613281 512 256 Z M 512 256 " style=" stroke:none;fill-rule:nonzero;fill:rgb(29.019608%,47.843137%,100%);fill-opacity:1;" />
<path d="M 512 256 C 512 245.929688 511.398438 236.003906 510.269531 226.234375 L 456.871094 172.839844 L 448.164062 181.5 L 379 112.332031 L 133 135 L 180.300781 182.300781 L 55.128906 191.160156 L 145.273438 281.308594 L 62.332031 362.824219 L 206.757812 507.246094 C 222.695312 510.355469 239.152344 512 256 512 C 397.386719 512 512 397.386719 512 256 Z M 512 256 " style=" stroke:none;fill-rule:nonzero;fill:rgb(15.686275%,39.215686%,94.117647%);fill-opacity:1;" />
<path d="M 62.332031 186.140625 L 449.664062 186.140625 L 449.664062 362.824219 L 62.332031 362.824219 Z M 62.332031 186.140625 " style=" stroke:none;fill-rule:nonzero;fill:rgb(80.392157%,82.352941%,88.235294%);fill-opacity:1;" />
<path d="M 255.761719 186.140625 L 449.667969 186.140625 L 449.667969 362.824219 L 255.761719 362.824219 Z M 255.761719 186.140625 " style=" stroke:none;fill-rule:nonzero;fill:rgb(74.509804%,76.470588%,82.352941%);fill-opacity:1;" />
<path d="M 55.128906 172.839844 L 456.871094 172.839844 L 456.871094 191.160156 L 55.128906 191.160156 Z M 55.128906 172.839844 " style=" stroke:none;fill-rule:nonzero;fill:rgb(100%,83.137255%,0%);fill-opacity:1;" />
<path d="M 255.761719 172.839844 L 456.871094 172.839844 L 456.871094 191.160156 L 255.761719 191.160156 Z M 255.761719 172.839844 " style=" stroke:none;fill-rule:nonzero;fill:rgb(99.215686%,72.941176%,7.058824%);fill-opacity:1;" />
<path d="M 146.53125 122.835938 L 365.46875 122.835938 L 365.46875 362.824219 L 146.53125 362.824219 Z M 146.53125 122.835938 " style=" stroke:none;fill-rule:nonzero;fill:rgb(100%,100%,100%);fill-opacity:1;" />
<path d="M 255.761719 122.835938 L 365.46875 122.835938 L 365.46875 362.824219 L 255.761719 362.824219 Z M 255.761719 122.835938 " style=" stroke:none;fill-rule:nonzero;fill:rgb(91.372549%,92.941176%,96.078431%);fill-opacity:1;" />
<path d="M 77 204 L 133 204 L 133 255.332031 L 77 255.332031 Z M 77 204 " style=" stroke:none;fill-rule:nonzero;fill:rgb(100%,100%,100%);fill-opacity:1;" />
<path d="M 379 204 L 435 204 L 435 255.332031 L 379 255.332031 Z M 379 204 " style=" stroke:none;fill-rule:nonzero;fill:rgb(91.372549%,92.941176%,96.078431%);fill-opacity:1;" />
<path d="M 77 282 L 133 282 L 133 333.332031 L 77 333.332031 Z M 77 282 " style=" stroke:none;fill-rule:nonzero;fill:rgb(100%,100%,100%);fill-opacity:1;" />
<path d="M 379 282 L 435 282 L 435 333.332031 L 379 333.332031 Z M 379 282 " style=" stroke:none;fill-rule:nonzero;fill:rgb(91.372549%,92.941176%,96.078431%);fill-opacity:1;" />
<path d="M 163 152.332031 L 213.035156 152.332031 L 213.035156 183.332031 L 163 183.332031 Z M 163 152.332031 " style=" stroke:none;fill-rule:nonzero;fill:rgb(91.372549%,92.941176%,96.078431%);fill-opacity:1;" />
<path d="M 230.980469 152.332031 L 281.015625 152.332031 L 281.015625 183.332031 L 230.980469 183.332031 Z M 230.980469 152.332031 " style=" stroke:none;fill-rule:nonzero;fill:rgb(91.372549%,92.941176%,96.078431%);fill-opacity:1;" />
<path d="M 255.761719 152.332031 L 281.019531 152.332031 L 281.019531 183.332031 L 255.761719 183.332031 Z M 255.761719 152.332031 " style=" stroke:none;fill-rule:nonzero;fill:rgb(86.27451%,88.235294%,92.156863%);fill-opacity:1;" />
<path d="M 298.964844 152.332031 L 349 152.332031 L 349 183.332031 L 298.964844 183.332031 Z M 298.964844 152.332031 " style=" stroke:none;fill-rule:nonzero;fill:rgb(86.27451%,88.235294%,92.156863%);fill-opacity:1;" />
<path d="M 163 192.578125 L 213.035156 192.578125 L 213.035156 223.578125 L 163 223.578125 Z M 163 192.578125 " style=" stroke:none;fill-rule:nonzero;fill:rgb(91.372549%,92.941176%,96.078431%);fill-opacity:1;" />
<path d="M 230.980469 192.578125 L 281.015625 192.578125 L 281.015625 223.578125 L 230.980469 223.578125 Z M 230.980469 192.578125 " style=" stroke:none;fill-rule:nonzero;fill:rgb(91.372549%,92.941176%,96.078431%);fill-opacity:1;" />
<path d="M 255.761719 192.578125 L 281.019531 192.578125 L 281.019531 223.578125 L 255.761719 223.578125 Z M 255.761719 192.578125 " style=" stroke:none;fill-rule:nonzero;fill:rgb(86.27451%,88.235294%,92.156863%);fill-opacity:1;" />
<path d="M 298.964844 192.578125 L 349 192.578125 L 349 223.578125 L 298.964844 223.578125 Z M 298.964844 192.578125 " style=" stroke:none;fill-rule:nonzero;fill:rgb(86.27451%,88.235294%,92.156863%);fill-opacity:1;" />
<path d="M 163 232.820312 L 213.035156 232.820312 L 213.035156 263.820312 L 163 263.820312 Z M 163 232.820312 " style=" stroke:none;fill-rule:nonzero;fill:rgb(91.372549%,92.941176%,96.078431%);fill-opacity:1;" />
<path d="M 230.980469 232.820312 L 281.015625 232.820312 L 281.015625 263.820312 L 230.980469 263.820312 Z M 230.980469 232.820312 " style=" stroke:none;fill-rule:nonzero;fill:rgb(91.372549%,92.941176%,96.078431%);fill-opacity:1;" />
<path d="M 255.761719 232.820312 L 281.019531 232.820312 L 281.019531 263.820312 L 255.761719 263.820312 Z M 255.761719 232.820312 " style=" stroke:none;fill-rule:nonzero;fill:rgb(86.27451%,88.235294%,92.156863%);fill-opacity:1;" />
<path d="M 298.964844 232.820312 L 349 232.820312 L 349 263.820312 L 298.964844 263.820312 Z M 298.964844 232.820312 " style=" stroke:none;fill-rule:nonzero;fill:rgb(86.27451%,88.235294%,92.156863%);fill-opacity:1;" />
<path d="M 201.898438 274.484375 L 310.101562 274.484375 L 310.101562 362.824219 L 201.898438 362.824219 Z M 201.898438 274.484375 " style=" stroke:none;fill-rule:nonzero;fill:rgb(100%,83.137255%,0%);fill-opacity:1;" />
<path d="M 255.761719 274.484375 L 310.101562 274.484375 L 310.101562 362.824219 L 255.761719 362.824219 Z M 255.761719 274.484375 " style=" stroke:none;fill-rule:nonzero;fill:rgb(99.215686%,72.941176%,7.058824%);fill-opacity:1;" />
<path d="M 133 112.332031 L 379 112.332031 L 379 135 L 133 135 Z M 133 112.332031 " style=" stroke:none;fill-rule:nonzero;fill:rgb(100%,83.137255%,0%);fill-opacity:1;" />
<path d="M 255.761719 112.332031 L 379 112.332031 L 379 135 L 255.761719 135 Z M 255.761719 112.332031 " style=" stroke:none;fill-rule:nonzero;fill:rgb(99.215686%,72.941176%,7.058824%);fill-opacity:1;" />
</g>
</svg>