<?xml version="1.0" encoding="iso-8859-1"?>
<!-- Generator: Adobe Illustrator 19.0.0, SVG Export Plug-In . SVG Version: 6.00 Build 0)  -->
<svg version="1.1" id="Capa_1" xmlns="http://www.w3.org/2000/svg" xmlns:xlink="http://www.w3.org/1999/xlink" x="0px" y="0px"
	 viewBox="0 0 512 512" style="enable-background:new 0 0 512 512;" xml:space="preserve">
<circle style="fill:#1B56DB;" cx="256" cy="256" r="256"/>
<path style="fill:#1149AA;" d="M511.843,264.535l-89.51-89.51l-21.789,28.269L260,62.75L220.708,88l38.825,38.826L89.667,391.667
	l115.225,115.225C221.407,510.238,238.498,512,256,512C394.527,512,507.339,401.967,511.843,264.535z"/>
<rect x="220.71" y="65.67" style="fill:#C20231;" width="33" height="22.333"/>
<g>
	<rect x="252" y="62.75" style="fill:#C69C6D;" width="8" height="48.25"/>
	<polyline style="fill:#C69C6D;" points="252,111 255.952,111 255.952,62.75 252,62.75 	"/>
</g>
<rect x="255.95" y="62.75" style="fill:#A67C52;" width="4.048" height="48.25"/>
<rect x="89.67" y="175.03" style="fill:#FFB80E;" width="332.67" height="216.64"/>
<rect x="255.95" y="175.03" style="fill:#FFA02E;" width="166.38" height="216.64"/>
<polygon style="fill:#F56C04;" points="338.5,391.667 173.5,391.667 173.5,175.025 255.952,100.979 338.5,175.025 "/>
<polygon style="fill:#C95100;" points="338.5,175.025 255.952,100.979 255.952,100.979 255.952,391.667 338.5,391.667 "/>
<g>
	<rect x="110.87" y="196.12" style="fill:#47D7FD;" width="43.5" height="43.5"/>
	<rect x="110.87" y="265.79" style="fill:#47D7FD;" width="43.5" height="43.5"/>
</g>
<g>
	<rect x="360.21" y="196.12" style="fill:#0FADF5;" width="43.5" height="43.5"/>
	<rect x="360.21" y="265.79" style="fill:#0FADF5;" width="43.5" height="43.5"/>
	<rect x="269.25" y="196.12" style="fill:#0FADF5;" width="43.5" height="43.5"/>
	<rect x="269.25" y="265.79" style="fill:#0FADF5;" width="43.5" height="43.5"/>
</g>
<g>
	<rect x="199.25" y="196.12" style="fill:#47D7FD;" width="43.5" height="43.5"/>
	<rect x="199.25" y="265.79" style="fill:#47D7FD;" width="43.5" height="43.5"/>
</g>
<rect x="224.5" y="325" style="fill:#D6283B;" width="63" height="66.67"/>
<rect x="255.95" y="325" style="fill:#C20231;" width="31.548" height="66.67"/>
<circle style="fill:#47D7FD;" cx="256" cy="153.5" r="23.5"/>
<path style="fill:#0FADF5;" d="M256,130c-0.016,0-0.032,0.001-0.048,0.001v46.998c0.016,0,0.031,0.001,0.048,0.001
	c12.979,0,23.5-10.521,23.5-23.5S268.979,130,256,130z"/>
<g>
</g>
<g>
</g>
<g>
</g>
<g>
</g>
<g>
</g>
<g>
</g>
<g>
</g>
<g>
</g>
<g>
</g>
<g>
</g>
<g>
</g>
<g>
</g>
<g>
</g>
<g>
</g>
<g>
</g>
</svg>
