<svg xmlns="http://www.w3.org/2000/svg" height="512pt" version="1.1" viewBox="0 0 512 512" width="512pt">
<g id="surface1">
<path d="M 512 256 C 512 397.386719 397.386719 512 256 512 C 114.613281 512 0 397.386719 0 256 C 0 114.613281 114.613281 0 256 0 C 397.386719 0 512 114.613281 512 256 Z M 512 256 " style=" stroke:none;fill-rule:nonzero;fill:rgb(98.039216%,36.470588%,5.882353%);fill-opacity:1;" />
<path d="M 512 256 C 512 236.316406 509.773438 217.152344 505.566406 198.742188 L 433 126.179688 L 79 372.871094 L 214.8125 508.6875 C 228.222656 510.855469 241.976562 512 256 512 C 397.386719 512 512 397.386719 512 256 Z M 512 256 " style=" stroke:none;fill-rule:nonzero;fill:rgb(93.72549%,21.960784%,0%);fill-opacity:1;" />
<path d="M 79 126.179688 L 433 126.179688 L 433 372.871094 L 79 372.871094 Z M 79 126.179688 " style=" stroke:none;fill-rule:nonzero;fill:rgb(100%,83.137255%,0%);fill-opacity:1;" />
<path d="M 255.167969 126.179688 L 433 126.179688 L 433 372.871094 L 255.167969 372.871094 Z M 255.167969 126.179688 " style=" stroke:none;fill-rule:nonzero;fill:rgb(99.215686%,72.941176%,7.058824%);fill-opacity:1;" />
<path d="M 102.917969 148.609375 L 409.082031 148.609375 L 409.082031 354.027344 L 102.917969 354.027344 Z M 102.917969 148.609375 " style=" stroke:none;fill-rule:nonzero;fill:rgb(100%,100%,100%);fill-opacity:1;" />
<path d="M 255.167969 148.609375 L 409.082031 148.609375 L 409.082031 354.027344 L 255.167969 354.027344 Z M 255.167969 148.609375 " style=" stroke:none;fill-rule:nonzero;fill:rgb(94.901961%,96.470588%,98.823529%);fill-opacity:1;" />
<path d="M 181.667969 177 L 330.335938 177 L 330.335938 198.644531 L 181.667969 198.644531 Z M 181.667969 177 " style=" stroke:none;fill-rule:nonzero;fill:rgb(90.196078%,90.196078%,90.196078%);fill-opacity:1;" />
<path d="M 255.167969 177 L 330.335938 177 L 330.335938 198.644531 L 255.167969 198.644531 Z M 255.167969 177 " style=" stroke:none;fill-rule:nonzero;fill:rgb(84.313725%,84.313725%,84.313725%);fill-opacity:1;" />
<path d="M 126.199219 218.332031 L 385.800781 218.332031 L 385.800781 239.980469 L 126.199219 239.980469 Z M 126.199219 218.332031 " style=" stroke:none;fill-rule:nonzero;fill:rgb(90.196078%,90.196078%,90.196078%);fill-opacity:1;" />
<path d="M 255.167969 218.332031 L 385.800781 218.332031 L 385.800781 239.980469 L 255.167969 239.980469 Z M 255.167969 218.332031 " style=" stroke:none;fill-rule:nonzero;fill:rgb(84.313725%,84.313725%,84.313725%);fill-opacity:1;" />
<path d="M 126.199219 259.667969 L 385.800781 259.667969 L 385.800781 281.3125 L 126.199219 281.3125 Z M 126.199219 259.667969 " style=" stroke:none;fill-rule:nonzero;fill:rgb(90.196078%,90.196078%,90.196078%);fill-opacity:1;" />
<path d="M 255.167969 259.667969 L 385.800781 259.667969 L 385.800781 281.3125 L 255.167969 281.3125 Z M 255.167969 259.667969 " style=" stroke:none;fill-rule:nonzero;fill:rgb(84.313725%,84.313725%,84.313725%);fill-opacity:1;" />
<path d="M 126.199219 301 L 274.867188 301 L 274.867188 322.644531 L 126.199219 322.644531 Z M 126.199219 301 " style=" stroke:none;fill-rule:nonzero;fill:rgb(90.196078%,90.196078%,90.196078%);fill-opacity:1;" />
<path d="M 255.167969 301 L 274.867188 301 L 274.867188 322.644531 L 255.167969 322.644531 Z M 255.167969 301 " style=" stroke:none;fill-rule:nonzero;fill:rgb(84.313725%,84.313725%,84.313725%);fill-opacity:1;" />
<path d="M 384.332031 316 C 384.332031 330.910156 372.246094 343 357.332031 343 C 342.421875 343 330.332031 330.910156 330.332031 316 C 330.332031 301.089844 342.421875 289 357.332031 289 C 372.246094 289 384.332031 301.089844 384.332031 316 Z M 384.332031 316 " style=" stroke:none;fill-rule:nonzero;fill:rgb(29.019608%,47.843137%,100%);fill-opacity:1;" />
<path d="M 384.332031 316 C 384.332031 301.160156 372.359375 289.121094 357.546875 289.003906 L 357.546875 342.992188 C 372.359375 342.878906 384.332031 330.839844 384.332031 316 Z M 384.332031 316 " style=" stroke:none;fill-rule:nonzero;fill:rgb(15.686275%,39.215686%,94.117647%);fill-opacity:1;" />
</g>
</svg>