<svg height="512pt" viewBox="0 0 512 512" width="512pt" xmlns="http://www.w3.org/2000/svg"><path d="m512 256c0 141.386719-114.613281 256-256 256s-256-114.613281-256-256 114.613281-256 256-256 256 114.613281 256 256zm0 0" fill="#811c26"/><path d="m165.441406 399.5 111.628906 111.632812c131.527344-10.71875 234.929688-120.84375 234.929688-255.132812 0-5.242188-.175781-10.441406-.488281-15.605469l-112.894531-112.894531zm0 0" fill="#442236"/><path d="m128.382812 112.5-15.882812 15.882812 41.003906 64.824219 33.085938-6.617187 6.617187-33.085938zm0 0" fill="#ff9d49"/><path d="m146.886719 199.824219 199.671875 199.675781 26.472656-26.46875-86.605469-113.074219-113.070312-86.601562zm0 0" fill="#ffb55f"/><path d="m373.027344 373.03125-199.671875-199.671875 26.472656-26.46875 199.671875 199.671875zm0 0" fill="#ffcc75"/><path d="m383.617188 112.5 15.882812 15.882812-41.003906 64.824219-33.085938-6.617187-6.617187-33.085938zm0 0" fill="#185f8d"/><path d="m365.113281 199.824219-199.671875 199.675781-26.472656-26.46875 86.605469-113.074219 113.070312-86.601562zm0 0" fill="#4284b2"/><path d="m112.496094 346.558594 199.675781-199.671875 26.46875 26.46875-199.671875 199.671875zm0 0" fill="#6da8d6"/></svg>