<svg height="512pt" viewBox="0 0 512 512" width="512pt" xmlns="http://www.w3.org/2000/svg"><path d="m512 256c0 141.386719-114.613281 256-256 256s-256-114.613281-256-256 114.613281-256 256-256 256 114.613281 256 256zm0 0" fill="#f2484b"/><path d="m273.925781 511.367188c133.019531-9.207032 238.074219-120.011719 238.074219-255.367188 0-4.804688-.144531-9.578125-.40625-14.320312l-83.980469-83.980469-107.359375-18.324219-130.867187 287.449219zm0 0" fill="#bd1515"/><path d="m409.289062 155.082031-36.664062 36.664063-36.660156-26.183594 47.136718-36.664062zm0 0" fill="#082947"/><path d="m383.101562 128.898438-41.902343 41.898437-20.945313-31.421875 36.664063-36.664062zm0 0" fill="#274b6d"/><path d="m236.28125 379.453125-30.394531 32.449219-63.371094-52.894532 47.136719-36.660156zm0 0" fill="#55a7a2"/><path d="m372.625 191.746094-10.015625 52.832031-58.066406-47.59375 41.894531-31.421875zm0 0" fill="#98d9d5"/><path d="m346.4375 165.5625-36.660156 36.660156-42.355469-52.832031 52.832031-10.015625zm0 0" fill="#c1e8e6"/><path d="m362.609375 244.578125-30.390625 32.445313-59.09375-48.621094 41.890625-31.417969zm0 0" fill="#55a7a2"/><path d="m315.015625 196.984375-36.652344 36.652344-43.386719-53.855469 32.445313-30.390625zm0 0" fill="#98d9d5"/><path d="m332.21875 277.023438-95.9375 102.429687-51.867188-51.867187 33.882813-65.304688 65.300781-33.878906zm0 0" fill="#f9dca7"/><path d="m189.652344 322.347656-41.898438 41.898438-47.65625-58.132813 32.449219-30.394531zm0 0" fill="#98d9d5"/><path d="m137.277344 374.71875 15.710937-15.710938 52.894531 52.894532-15.710937 15.710937zm0 0" fill="#98d9d5"/><path d="m84.382812 321.824219 15.710938-15.710938 52.894531 52.894531-15.710937 15.710938zm0 0" fill="#c1e8e6"/><path d="m283.597656 228.402344-99.183594 99.183594-51.867187-51.867188 102.429687-95.9375zm0 0" fill="#f2ebd9"/><path d="m354.296875 84.382812 73.316406 73.316407-15.710937 15.710937-73.316406-73.316406zm0 0" fill="#082947"/></svg>