<svg xmlns="http://www.w3.org/2000/svg" height="512pt" version="1.1" viewBox="0 0 512 512" width="512pt">
<g id="surface1">
<path d="M 512 256 C 512 397.386719 397.386719 512 256 512 C 114.613281 512 0 397.386719 0 256 C 0 114.613281 114.613281 0 256 0 C 397.386719 0 512 114.613281 512 256 Z M 512 256 " style=" stroke:none;fill-rule:nonzero;fill:rgb(25.490196%,28.627451%,32.156863%);fill-opacity:1;" />
<path d="M 512 256 C 512 249.101562 511.71875 242.269531 511.183594 235.511719 L 394.867188 119.195312 L 106.886719 381.554688 L 236.601562 511.273438 C 243.007812 511.753906 249.472656 512 256 512 C 397.386719 512 512 397.386719 512 256 Z M 512 256 " style=" stroke:none;fill-rule:nonzero;fill:rgb(20%,22.352941%,25.098039%);fill-opacity:1;" />
<path d="M 450.941406 256 C 450.941406 363.664062 363.664062 450.941406 256 450.941406 C 148.335938 450.941406 61.058594 363.664062 61.058594 256 C 61.058594 148.335938 148.335938 61.058594 256 61.058594 C 363.664062 61.058594 450.941406 148.335938 450.941406 256 Z M 450.941406 256 " style=" stroke:none;fill-rule:nonzero;fill:rgb(99.607843%,41.568627%,8.627451%);fill-opacity:1;" />
<path d="M 256 61.058594 C 255.921875 61.058594 255.839844 61.058594 255.761719 61.058594 L 255.761719 450.941406 C 255.84375 450.941406 255.921875 450.941406 256 450.941406 C 363.664062 450.941406 450.941406 363.664062 450.941406 256 C 450.941406 148.335938 363.664062 61.058594 256 61.058594 Z M 256 61.058594 " style=" stroke:none;fill-rule:nonzero;fill:rgb(94.901961%,27.058824%,0%);fill-opacity:1;" />
<path d="M 411.039062 167.191406 C 384.582031 145.480469 352.609375 129.996094 317.765625 121.617188 C 326.121094 112.34375 338.21875 106.5 351.65625 106.5 L 381.101562 106.5 C 371.648438 98.582031 361.4375 91.550781 350.589844 85.519531 C 327.09375 85.890625 306.515625 98.480469 294.941406 117.207031 C 285.601562 115.835938 276.109375 114.949219 266.5 114.578125 L 266.5 61.339844 C 263.023438 61.15625 259.523438 61.058594 256 61.058594 C 252.476562 61.058594 248.976562 61.15625 245.5 61.339844 L 245.5 114.578125 C 235.894531 114.949219 226.398438 115.835938 217.058594 117.207031 C 205.484375 98.480469 184.910156 85.890625 161.410156 85.515625 C 150.5625 91.550781 140.351562 98.582031 130.902344 106.5 L 160.34375 106.5 C 173.78125 106.5 185.878906 112.339844 194.238281 121.613281 C 159.390625 129.996094 127.417969 145.476562 100.960938 167.191406 C 88.773438 177.195312 78.179688 188.171875 69.265625 199.90625 C 63.933594 217.671875 61.058594 236.496094 61.058594 255.996094 C 61.058594 258.257812 61.113281 260.5 61.1875 262.738281 C 77.023438 203.570312 132.902344 156.378906 204.5625 140.839844 C 205.484375 144.453125 205.976562 148.234375 205.976562 152.132812 C 205.976562 164.117188 201.363281 175.441406 192.988281 184.019531 L 156.695312 221.167969 C 131.898438 246.550781 112.539062 276.078125 99.152344 308.941406 C 93.542969 322.714844 89.105469 336.804688 85.828125 351.136719 C 90.753906 359.929688 96.332031 368.308594 102.515625 376.191406 C 105.414062 355.902344 110.785156 336.050781 118.601562 316.863281 C 130.957031 286.53125 148.828125 259.273438 171.71875 235.84375 L 208.007812 198.691406 C 220.242188 186.171875 226.980469 169.636719 226.980469 152.128906 C 226.980469 147.027344 226.382812 142.066406 225.292969 137.289062 C 231.929688 136.453125 238.671875 135.882812 245.503906 135.59375 L 245.503906 450.660156 C 248.980469 450.84375 252.480469 450.941406 256.003906 450.941406 C 259.527344 450.941406 263.027344 450.84375 266.503906 450.660156 L 266.503906 135.597656 C 273.335938 135.886719 280.078125 136.457031 286.714844 137.292969 C 285.625 142.066406 285.027344 147.03125 285.027344 152.132812 C 285.027344 169.636719 291.765625 186.175781 304 198.695312 L 340.289062 235.847656 C 363.179688 259.273438 381.050781 286.53125 393.40625 316.867188 C 401.222656 336.054688 406.597656 355.90625 409.492188 376.195312 C 415.675781 368.3125 421.253906 359.933594 426.179688 351.140625 C 422.902344 336.808594 418.464844 322.714844 412.855469 308.941406 C 399.46875 276.082031 380.109375 246.550781 355.3125 221.171875 L 319.019531 184.023438 C 310.644531 175.445312 306.03125 164.121094 306.03125 152.132812 C 306.03125 148.238281 306.523438 144.457031 307.445312 140.84375 C 379.105469 156.382812 434.984375 203.574219 450.820312 262.742188 C 450.894531 260.503906 450.949219 258.257812 450.949219 256 C 450.949219 236.5 448.074219 217.675781 442.742188 199.910156 C 433.824219 188.175781 423.230469 177.195312 411.039062 167.191406 Z M 411.039062 167.191406 " style=" stroke:none;fill-rule:nonzero;fill:rgb(100%,100%,100%);fill-opacity:1;" />
<path d="M 450.816406 262.742188 C 450.890625 260.503906 450.945312 258.257812 450.945312 256 C 450.945312 236.5 448.066406 217.675781 442.738281 199.910156 C 433.824219 188.175781 423.230469 177.195312 411.042969 167.191406 C 384.585938 145.480469 352.613281 129.996094 317.765625 121.617188 C 326.121094 112.34375 338.21875 106.5 351.660156 106.5 L 381.101562 106.5 C 371.652344 98.582031 361.4375 91.550781 350.589844 85.519531 C 327.09375 85.890625 306.519531 98.480469 294.945312 117.207031 C 285.601562 115.835938 276.109375 114.949219 266.503906 114.578125 L 266.503906 61.339844 C 263.023438 61.15625 259.523438 61.058594 256.003906 61.058594 C 255.921875 61.058594 255.84375 61.058594 255.765625 61.058594 L 255.765625 450.941406 C 255.84375 450.941406 255.921875 450.941406 256.003906 450.941406 C 259.523438 450.941406 263.023438 450.84375 266.503906 450.660156 L 266.503906 135.597656 C 273.335938 135.886719 280.078125 136.457031 286.714844 137.292969 C 285.621094 142.066406 285.027344 147.03125 285.027344 152.132812 C 285.027344 169.636719 291.765625 186.175781 303.996094 198.695312 L 340.289062 235.847656 C 363.175781 259.273438 381.046875 286.53125 393.40625 316.867188 C 401.222656 336.054688 406.59375 355.90625 409.492188 376.195312 C 415.671875 368.3125 421.25 359.933594 426.179688 351.140625 C 422.898438 336.808594 418.464844 322.714844 412.851562 308.941406 C 399.464844 276.082031 380.105469 246.550781 355.3125 221.171875 L 319.019531 184.023438 C 310.640625 175.445312 306.027344 164.121094 306.027344 152.132812 C 306.027344 148.238281 306.519531 144.457031 307.445312 140.84375 C 379.097656 156.382812 434.980469 203.574219 450.816406 262.742188 Z M 450.816406 262.742188 " style=" stroke:none;fill-rule:nonzero;fill:rgb(91.372549%,92.941176%,96.078431%);fill-opacity:1;" />
</g>
</svg>