<?xml version="1.0" encoding="iso-8859-1"?>
<!-- Generator: Adobe Illustrator 19.0.0, SVG Export Plug-In . SVG Version: 6.00 Build 0)  -->
<svg xmlns="http://www.w3.org/2000/svg" xmlns:xlink="http://www.w3.org/1999/xlink" version="1.1" id="Capa_1" x="0px" y="0px" viewBox="0 0 512 512" style="enable-background:new 0 0 512 512;" xml:space="preserve">
<circle style="fill:#5A7EBF;" cx="256" cy="256" r="256"/>
<path style="fill:#4360AC;" d="M364.594,182.637l-54.069-54.069l-0.011,0.011c-14.617-14.617-32.704-25.763-52.938-32.056  c-12.14-3.776-25.047-5.81-38.431-5.81c-71.375,0-129.235,57.86-129.235,129.235c0,46.049,24.09,86.468,60.35,109.356v90.978  l91.307,91.307c4.777,0.265,9.587,0.412,14.431,0.412c134.609,0,244.947-103.893,255.214-235.866l-92.354-92.355  c-6.827-8.22-16.939-12.974-27.628-12.978C380.664,170.801,371.164,175.37,364.594,182.637z"/>
<path style="fill:#57565C;" d="M219.147,407.336v-30.608c86.45,0,156.782-70.332,156.782-156.782h30.608  C406.537,323.274,322.474,407.336,219.147,407.336z"/>
<rect x="150.259" y="312.607" style="fill:#C27526;" width="137.766" height="107.678"/>
<rect x="219.152" y="312.607" style="fill:#7E4F1F;" width="68.883" height="107.678"/>
<circle style="fill:#E1E1E3;" cx="219.152" cy="219.943" r="129.236"/>
<path style="fill:#ACACB2;" d="M219.147,90.712v258.469c71.375,0,129.235-57.861,129.235-129.235S290.52,90.712,219.147,90.712z"/>
<circle style="fill:#C6C5CA;" cx="219.152" cy="219.943" r="28.041"/>
<path style="fill:#8A8A91;" d="M247.188,219.947c0-15.487-12.555-28.041-28.041-28.041v56.083  C234.633,247.988,247.188,235.433,247.188,219.947z"/>
<circle style="fill:#E25F3F;" cx="391.235" cy="206.698" r="35.899"/>
<path style="fill:#C44829;" d="M391.233,170.802v71.803c19.828,0,35.901-16.074,35.901-35.901  C427.134,186.875,411.06,170.802,391.233,170.802z"/>
<g>
</g>
<g>
</g>
<g>
</g>
<g>
</g>
<g>
</g>
<g>
</g>
<g>
</g>
<g>
</g>
<g>
</g>
<g>
</g>
<g>
</g>
<g>
</g>
<g>
</g>
<g>
</g>
<g>
</g>
</svg>
