<svg xmlns="http://www.w3.org/2000/svg" height="512pt" version="1.1" viewBox="0 0 512 512" width="512pt">
<g id="surface1">
<path d="M 512 256 C 512 397.386719 397.386719 512 256 512 C 114.613281 512 0 397.386719 0 256 C 0 114.613281 114.613281 0 256 0 C 397.386719 0 512 114.613281 512 256 Z M 512 256 " style=" stroke:none;fill-rule:nonzero;fill:rgb(25.490196%,28.627451%,32.156863%);fill-opacity:1;" />
<path d="M 259.808594 511.953125 C 392.390625 510.015625 500.558594 407.3125 511.136719 276.996094 L 410.714844 176.574219 L 263.625 218.863281 L 224.363281 179.601562 L 69.863281 244.59375 L 101.734375 276.46875 L 68.191406 320.332031 Z M 259.808594 511.953125 " style=" stroke:none;fill-rule:nonzero;fill:rgb(13.72549%,15.294118%,16.862745%);fill-opacity:1;" />
<path d="M 443.808594 320.332031 L 409.808594 320.332031 L 409.808594 306.933594 C 409.808594 302.363281 408.148438 298.019531 405.246094 295.023438 L 382.972656 271.988281 L 407.414062 248.351562 L 429.6875 271.386719 C 438.660156 280.664062 443.808594 293.621094 443.808594 306.933594 Z M 443.808594 320.332031 " style=" stroke:none;fill-rule:nonzero;fill:rgb(84.313725%,84.313725%,84.313725%);fill-opacity:1;" />
<path d="M 102.191406 320.332031 L 68.191406 320.332031 L 68.191406 306.933594 C 68.191406 293.621094 73.335938 280.664062 82.308594 271.386719 L 104.585938 248.351562 L 129.027344 271.984375 L 106.75 295.023438 C 103.851562 298.019531 102.191406 302.359375 102.191406 306.933594 Z M 102.191406 320.332031 " style=" stroke:none;fill-rule:nonzero;fill:rgb(90.196078%,90.196078%,90.196078%);fill-opacity:1;" />
<path d="M 227.988281 226.503906 C 227.988281 263.152344 198.28125 292.863281 161.632812 292.863281 C 124.980469 292.863281 95.273438 263.152344 95.273438 226.503906 C 95.273438 189.855469 124.980469 160.144531 161.632812 160.144531 C 198.28125 160.144531 227.988281 189.855469 227.988281 226.503906 Z M 227.988281 226.503906 " style=" stroke:none;fill-rule:nonzero;fill:rgb(0%,92.941176%,100%);fill-opacity:1;" />
<path d="M 161.632812 304.863281 C 118.425781 304.863281 83.273438 269.710938 83.273438 226.503906 C 83.273438 183.296875 118.425781 148.144531 161.632812 148.144531 C 204.839844 148.144531 239.988281 183.296875 239.988281 226.503906 C 239.988281 269.710938 204.839844 304.863281 161.632812 304.863281 Z M 161.632812 172.144531 C 131.65625 172.144531 107.273438 196.53125 107.273438 226.503906 C 107.273438 256.480469 131.65625 280.863281 161.632812 280.863281 C 191.605469 280.863281 215.988281 256.480469 215.988281 226.503906 C 215.988281 196.53125 191.605469 172.144531 161.632812 172.144531 Z M 161.632812 172.144531 " style=" stroke:none;fill-rule:nonzero;fill:rgb(100%,100%,100%);fill-opacity:1;" />
<path d="M 416.726562 226.503906 C 416.726562 263.152344 387.019531 292.863281 350.367188 292.863281 C 313.71875 292.863281 284.011719 263.152344 284.011719 226.503906 C 284.011719 189.855469 313.71875 160.144531 350.367188 160.144531 C 387.019531 160.144531 416.726562 189.855469 416.726562 226.503906 Z M 416.726562 226.503906 " style=" stroke:none;fill-rule:nonzero;fill:rgb(2.745098%,74.509804%,90.980392%);fill-opacity:1;" />
<path d="M 350.367188 304.863281 C 307.160156 304.863281 272.011719 269.710938 272.011719 226.503906 C 272.011719 183.296875 307.160156 148.144531 350.367188 148.144531 C 393.574219 148.144531 428.726562 183.296875 428.726562 226.503906 C 428.726562 269.710938 393.574219 304.863281 350.367188 304.863281 Z M 350.367188 172.144531 C 320.394531 172.144531 296.011719 196.53125 296.011719 226.503906 C 296.011719 256.480469 320.394531 280.863281 350.367188 280.863281 C 380.34375 280.863281 404.726562 256.480469 404.726562 226.503906 C 404.726562 196.53125 380.34375 172.144531 350.367188 172.144531 Z M 350.367188 172.144531 " style=" stroke:none;fill-rule:nonzero;fill:rgb(94.901961%,96.470588%,98.823529%);fill-opacity:1;" />
<path d="M 230.292969 209.503906 L 281.710938 209.503906 L 281.710938 243.503906 L 230.292969 243.503906 Z M 230.292969 209.503906 " style=" stroke:none;fill-rule:nonzero;fill:rgb(100%,100%,100%);fill-opacity:1;" />
<path d="M 255.761719 209.503906 L 281.710938 209.503906 L 281.710938 243.503906 L 255.761719 243.503906 Z M 255.761719 209.503906 " style=" stroke:none;fill-rule:nonzero;fill:rgb(94.901961%,96.470588%,98.823529%);fill-opacity:1;" />
<path d="M 69.863281 209.503906 L 88.136719 209.503906 L 88.136719 243.503906 L 69.863281 243.503906 Z M 69.863281 209.503906 " style=" stroke:none;fill-rule:nonzero;fill:rgb(100%,100%,100%);fill-opacity:1;" />
<path d="M 423.863281 209.503906 L 442.136719 209.503906 L 442.136719 243.503906 L 423.863281 243.503906 Z M 423.863281 209.503906 " style=" stroke:none;fill-rule:nonzero;fill:rgb(94.901961%,96.470588%,98.823529%);fill-opacity:1;" />
</g>
</svg>