<svg xmlns="http://www.w3.org/2000/svg" height="512pt" version="1.1" viewBox="0 0 512 512" width="512pt">
<g id="surface1">
<path d="M 512 256 C 512 397.386719 397.386719 512 256 512 C 114.613281 512 0 397.386719 0 256 C 0 114.613281 114.613281 0 256 0 C 397.386719 0 512 114.613281 512 256 Z M 512 256 " style=" stroke:none;fill-rule:nonzero;fill:rgb(25.490196%,28.627451%,32.156863%);fill-opacity:1;" />
<path d="M 512 256 C 512 246.589844 511.476562 237.300781 510.488281 228.152344 L 430.667969 148.335938 L 313.410156 231.128906 L 202.347656 120.0625 L 81.332031 395 L 189.625 503.292969 C 210.796875 508.960938 233.039062 512 256 512 C 397.386719 512 512 397.386719 512 256 Z M 512 256 " style=" stroke:none;fill-rule:nonzero;fill:rgb(20%,22.352941%,25.098039%);fill-opacity:1;" />
<path d="M 214.550781 148.332031 C 211.128906 120.992188 187.816406 99.832031 159.546875 99.832031 L 81.332031 99.832031 L 81.332031 395 L 430.664062 395 L 430.664062 148.332031 Z M 214.550781 148.332031 " style=" stroke:none;fill-rule:nonzero;fill:rgb(100%,83.137255%,0%);fill-opacity:1;" />
<path d="M 255.761719 148.332031 L 430.667969 148.332031 L 430.667969 395 L 255.761719 395 Z M 255.761719 148.332031 " style=" stroke:none;fill-rule:nonzero;fill:rgb(99.215686%,72.941176%,7.058824%);fill-opacity:1;" />
<path d="M 221 289.667969 L 407.667969 289.667969 L 407.667969 363 L 221 363 Z M 221 289.667969 " style=" stroke:none;fill-rule:nonzero;fill:rgb(100%,100%,100%);fill-opacity:1;" />
<path d="M 255.761719 289.667969 L 407.667969 289.667969 L 407.667969 363 L 255.761719 363 Z M 255.761719 289.667969 " style=" stroke:none;fill-rule:nonzero;fill:rgb(91.372549%,92.941176%,96.078431%);fill-opacity:1;" />
</g>
</svg>