<?xml version="1.0" encoding="iso-8859-1"?>
<!-- Generator: Adobe Illustrator 19.0.0, SVG Export Plug-In . SVG Version: 6.00 Build 0)  -->
<svg xmlns="http://www.w3.org/2000/svg" xmlns:xlink="http://www.w3.org/1999/xlink" version="1.1" id="Capa_1" x="0px" y="0px" viewBox="0 0 512 512" style="enable-background:new 0 0 512 512;" xml:space="preserve">
<circle style="fill:#E57654;" cx="256" cy="256" r="256"/>
<path style="fill:#A2482A;" d="M239.044,81.793l-13.433-8.23l-57.953,94.591l-0.001,0.001l11.456,11.456l-11.569,18.882  l126.552,126.552c-1.291,4.463-1.994,9.177-1.994,14.056c0,2.846,0.247,5.633,0.699,8.35c-0.849,0.404-1.707,0.79-2.571,1.167  l-80.998-80.999l0,0h-42.556l0,0h-43.216l0,0H95.015v41.879l0,0l86.055,86.055h-0.394v38.4l78.013,78.013  c125.458-1.294,229.28-92.819,249.664-212.776L294.568,85.405l-41.979-25.719L239.044,81.793z"/>
<path style="fill:#8A8A91;" d="M255.015,399.175c-72.541,0-131.556-59.016-131.556-131.556h43.216  c0,48.712,39.63,88.342,88.341,88.342s88.341-39.63,88.341-88.342s-39.629-88.342-88.341-88.342v-43.216  c72.541,0,131.556,59.016,131.556,131.556S327.556,399.175,255.015,399.175z"/>
<rect x="95.015" y="267.618" style="fill:#FFFFFF;" width="114.215" height="41.879"/>
<rect x="151.463" y="267.618" style="fill:#C6C5CA;" width="57.764" height="41.879"/>
<g>
	<circle style="fill:#57565C;" cx="342.646" cy="339.102" r="50.54"/>
	
		<rect x="206.455" y="60.55" transform="matrix(-0.8527 -0.5224 0.5224 -0.8527 353.9538 383.6898)" style="fill:#57565C;" width="49.231" height="162.786"/>
</g>
<rect x="190.702" y="86.475" transform="matrix(-0.8527 -0.5224 0.5224 -0.8527 353.9538 383.6898)" style="fill:#FFFFFF;" width="80.738" height="110.937"/>
<rect x="229.163" y="66.969" transform="matrix(0.8527 0.5224 -0.5224 0.8527 113.0786 -104.3114)" style="fill:#3E3E42;" width="24.694" height="162.786"/>
<rect x="228.015" y="96.997" transform="matrix(-0.8527 -0.5224 0.5224 -0.8527 380.2652 412.1519)" style="fill:#C6C5CA;" width="40.448" height="110.937"/>
<rect x="180.677" y="395.55" style="fill:#FFFFFF;" width="147.692" height="38.4"/>
<rect x="255.015" y="395.55" style="fill:#C6C5CA;" width="73.354" height="38.4"/>
<path style="fill:#3E3E42;" d="M342.646,288.557v101.087c27.915,0,50.543-22.629,50.543-50.543S370.561,288.557,342.646,288.557z"/>
<circle style="fill:#DEDDE3;" cx="342.646" cy="339.102" r="21.662"/>
<path style="fill:#C6C5CA;" d="M364.308,339.102c0-11.963-9.698-21.662-21.662-21.662v43.323  C354.609,360.763,364.308,351.065,364.308,339.102z"/>
<g>
</g>
<g>
</g>
<g>
</g>
<g>
</g>
<g>
</g>
<g>
</g>
<g>
</g>
<g>
</g>
<g>
</g>
<g>
</g>
<g>
</g>
<g>
</g>
<g>
</g>
<g>
</g>
<g>
</g>
</svg>
