<?xml version="1.0" encoding="iso-8859-1"?>
<!-- Generator: Adobe Illustrator 19.0.0, SVG Export Plug-In . SVG Version: 6.00 Build 0)  -->
<svg version="1.1" id="Capa_1" xmlns="http://www.w3.org/2000/svg" xmlns:xlink="http://www.w3.org/1999/xlink" x="0px" y="0px"
	 viewBox="0 0 512 512" style="enable-background:new 0 0 512 512;" xml:space="preserve">
<circle style="fill:#1B56DB;" cx="256" cy="256" r="256"/>
<path style="fill:#1149AA;" d="M512,256c0-29.638-5.054-58.091-14.317-84.567L424.25,98L81.667,405l94.185,94.185
	C201.066,507.491,228.005,512,256,512C397.385,512,512,397.385,512,256z"/>
<polygon style="fill:#FEAA00;" points="430.333,385.5 81.667,385.5 81.667,113.667 159.5,113.667 194.5,154.167 430.333,154.167 "/>
<rect x="255.95" y="154.17" style="fill:#FE8E00;" width="174.38" height="231.33"/>
<rect x="87.75" y="98" style="fill:#FFFFFF;" width="336.5" height="161"/>
<rect x="255.95" y="98" style="fill:#E0E0E0;" width="168.3" height="161"/>
<polygon style="fill:#FEE17A;" points="430.333,405 81.667,405 81.667,133.167 159.5,133.167 194.5,173.667 430.333,173.667 "/>
<rect x="255.95" y="173.67" style="fill:#FCC55F;" width="174.38" height="231.33"/>
<rect x="179.31" y="233.33" style="fill:#37474F;" width="153.99" height="103.99"/>
<rect x="255.95" y="233.33" style="fill:#263238;" width="77.34" height="103.99"/>
<rect x="152.51" y="231.73" style="fill:#37474F;" width="9.999" height="58.4"/>
<rect x="148.11" y="220.13" style="fill:#455A64;" width="216.38" height="20.398"/>
<rect x="255.95" y="220.13" style="fill:#37474F;" width="108.54" height="20.398"/>
<polygon style="fill:#607D8A;" points="167.507,316.322 147.509,316.322 152.509,286.125 162.51,286.125 "/>
<g>
</g>
<g>
</g>
<g>
</g>
<g>
</g>
<g>
</g>
<g>
</g>
<g>
</g>
<g>
</g>
<g>
</g>
<g>
</g>
<g>
</g>
<g>
</g>
<g>
</g>
<g>
</g>
<g>
</g>
</svg>
