<svg xmlns="http://www.w3.org/2000/svg" height="512pt" version="1.1" viewBox="0 0 512 512" width="512pt">
<g id="surface1">
<path d="M 512 256 C 512 397.386719 397.386719 512 256 512 C 114.613281 512 0 397.386719 0 256 C 0 114.613281 114.613281 0 256 0 C 397.386719 0 512 114.613281 512 256 Z M 512 256 " style=" stroke:none;fill-rule:nonzero;fill:rgb(29.019608%,47.843137%,100%);fill-opacity:1;" />
<path d="M 512 256 C 512 240.691406 510.652344 225.695312 508.074219 211.125 L 385 88.050781 L 356.128906 150.511719 L 293.667969 88.050781 L 89.667969 390.050781 L 206.890625 507.273438 C 222.785156 510.363281 239.199219 512 256 512 C 397.386719 512 512 397.386719 512 256 Z M 512 256 " style=" stroke:none;fill-rule:nonzero;fill:rgb(15.686275%,39.215686%,94.117647%);fill-opacity:1;" />
<path d="M 89.667969 390.050781 L 293.667969 390.050781 L 293.667969 88.050781 Z M 246.617188 334.464844 L 185.144531 334.464844 L 246.617188 243.457031 Z M 246.617188 334.464844 " style=" stroke:none;fill-rule:nonzero;fill:rgb(100%,83.137255%,0%);fill-opacity:1;" />
<path d="M 246.617188 255.90625 L 246.617188 334.464844 L 185.144531 334.464844 L 238.210938 255.90625 L 180.28125 255.90625 L 89.667969 390.050781 L 293.667969 390.050781 L 293.667969 255.90625 Z M 246.617188 255.90625 " style=" stroke:none;fill-rule:nonzero;fill:rgb(99.215686%,72.941176%,7.058824%);fill-opacity:1;" />
<path d="M 326.332031 88.050781 L 385 88.050781 L 385 390.050781 L 326.332031 390.050781 Z M 326.332031 88.050781 " style=" stroke:none;fill-rule:nonzero;fill:rgb(100%,100%,100%);fill-opacity:1;" />
<path d="M 326.332031 255.90625 L 385 255.90625 L 385 390.050781 L 326.332031 390.050781 Z M 326.332031 255.90625 " style=" stroke:none;fill-rule:nonzero;fill:rgb(94.901961%,96.470588%,98.823529%);fill-opacity:1;" />
<path d="M 357.945312 106.050781 L 385 106.050781 L 385 116.71875 L 357.945312 116.71875 Z M 357.945312 106.050781 " style=" stroke:none;fill-rule:nonzero;fill:rgb(100%,83.137255%,0%);fill-opacity:1;" />
<path d="M 341.347656 134.421875 L 385 134.421875 L 385 145.085938 L 341.347656 145.085938 Z M 341.347656 134.421875 " style=" stroke:none;fill-rule:nonzero;fill:rgb(100%,83.137255%,0%);fill-opacity:1;" />
<path d="M 357.945312 162.789062 L 385 162.789062 L 385 173.457031 L 357.945312 173.457031 Z M 357.945312 162.789062 " style=" stroke:none;fill-rule:nonzero;fill:rgb(100%,83.137255%,0%);fill-opacity:1;" />
<path d="M 341.347656 191.160156 L 385 191.160156 L 385 201.828125 L 341.347656 201.828125 Z M 341.347656 191.160156 " style=" stroke:none;fill-rule:nonzero;fill:rgb(100%,83.137255%,0%);fill-opacity:1;" />
<path d="M 357.945312 219.53125 L 385 219.53125 L 385 230.199219 L 357.945312 230.199219 Z M 357.945312 219.53125 " style=" stroke:none;fill-rule:nonzero;fill:rgb(100%,83.137255%,0%);fill-opacity:1;" />
<path d="M 341.347656 247.902344 L 385 247.902344 L 385 258.566406 L 341.347656 258.566406 Z M 341.347656 247.902344 " style=" stroke:none;fill-rule:nonzero;fill:rgb(100%,83.137255%,0%);fill-opacity:1;" />
<path d="M 341.347656 255.90625 L 385 255.90625 L 385 258.566406 L 341.347656 258.566406 Z M 341.347656 255.90625 " style=" stroke:none;fill-rule:nonzero;fill:rgb(99.215686%,72.941176%,7.058824%);fill-opacity:1;" />
<path d="M 357.945312 276.273438 L 385 276.273438 L 385 286.9375 L 357.945312 286.9375 Z M 357.945312 276.273438 " style=" stroke:none;fill-rule:nonzero;fill:rgb(99.215686%,72.941176%,7.058824%);fill-opacity:1;" />
<path d="M 341.347656 304.644531 L 385 304.644531 L 385 315.308594 L 341.347656 315.308594 Z M 341.347656 304.644531 " style=" stroke:none;fill-rule:nonzero;fill:rgb(99.215686%,72.941176%,7.058824%);fill-opacity:1;" />
<path d="M 357.945312 333.015625 L 385 333.015625 L 385 343.679688 L 357.945312 343.679688 Z M 357.945312 333.015625 " style=" stroke:none;fill-rule:nonzero;fill:rgb(99.215686%,72.941176%,7.058824%);fill-opacity:1;" />
<path d="M 341.347656 361.382812 L 385 361.382812 L 385 372.050781 L 341.347656 372.050781 Z M 341.347656 361.382812 " style=" stroke:none;fill-rule:nonzero;fill:rgb(99.215686%,72.941176%,7.058824%);fill-opacity:1;" />
</g>
</svg>