<svg height="512pt" viewBox="0 0 512 512" width="512pt" xmlns="http://www.w3.org/2000/svg"><path d="m512 256c0 141.386719-114.613281 256-256 256s-256-114.613281-256-256 114.613281-256 256-256 256 114.613281 256 256zm0 0" fill="#185f8d"/><path d="m512 256c0-5.347656-.183594-10.648438-.507812-15.914062l-89.304688-89.304688-196.902344 74.03125-74.472656 196.472656 90.269531 90.269532c4.9375.285156 9.910157.445312 14.917969.445312 141.386719 0 256-114.613281 256-256zm0 0" fill="#082947"/><path d="m89.8125 360.285156 46.109375 46.109375 140.523437-130.421875-17.851562-38.554687-33.308594-12.605469zm0 0" fill="#98d9d5"/><path d="m225.285156 224.8125 51.082032 51.085938 130.492187-140.445313-46.105469-46.105469zm0 0" fill="#c1e8e6"/><path d="m135.921875 406.394531 15.324219 15.328125 135.472656-135.472656 2.6875-18.015625-18.011719 2.6875zm0 0" fill="#55a7a2"/><g fill="#98d9d5"><path d="m286.722656 286.253906-15.328125-15.328125 135.464844-135.46875 15.328125 15.328125zm0 0"/><path d="m340.371094 109.722656 30.65625 30.65625-15.328125 15.328125-30.65625-30.65625zm0 0"/><path d="m304.5625 145.53125 20.4375 20.4375-15.328125 15.328125-20.4375-20.4375zm0 0"/><path d="m268.753906 181.339844 20.4375 20.4375-15.328125 15.328125-20.4375-20.4375zm0 0"/></g><path d="m232.945312 217.148438 30.65625 30.65625-15.328124 15.328124-30.65625-30.65625zm0 0" fill="#55a7a2"/><path d="m197.136719 252.957031 20.4375 20.4375-15.328125 15.328125-20.4375-20.4375zm0 0" fill="#55a7a2"/><path d="m161.332031 288.765625 20.433594 20.4375-15.324219 15.328125-20.4375-20.4375zm0 0" fill="#55a7a2"/><path d="m125.523438 324.574219 30.652343 30.65625-15.328125 15.328125-30.652344-30.65625zm0 0" fill="#55a7a2"/></svg>