<svg height="512pt" viewBox="0 0 512 512" width="512pt" xmlns="http://www.w3.org/2000/svg"><path d="m512 256c0 141.386719-114.613281 256-256 256s-256-114.613281-256-256 114.613281-256 256-256 256 114.613281 256 256zm0 0" fill="#fdbf00"/><path d="m512 256c0-23.273438-3.125-45.8125-8.941406-67.242188l-88.277344-88.273437-38.257812 38.257813-21.800782-21.800782-278.652344 278.648438 105.363282 105.363281c23.59375 7.175781 48.628906 11.046875 74.566406 11.046875 141.386719 0 256-114.613281 256-256zm0 0" fill="#ff9f00"/><path d="m97.15625 100.402344v253.023437h317.6875v-253.023437zm0 0" fill="#913f02"/><path d="m256 100.402344h158.84375v253.023437h-158.84375zm0 0" fill="#6f2e01"/><path d="m118.242188 121.488281h275.515624v210.855469h-275.515624zm0 0" fill="#53433f"/><path d="m256 121.488281h137.757812v210.855469h-137.757812zm0 0" fill="#3e322e"/><path d="m245.457031 353.425781h-105.425781v-31.625c0-17.441406 14.1875-31.628906 31.625-31.628906h42.171875c17.441406 0 31.628906 14.1875 31.628906 31.628906zm0 0" fill="#ffd400"/><path d="m404.300781 332.34375h-296.601562c-17.5 0-31.628907 14.125-31.628907 31.625v31.628906h359.859376v-31.628906c0-17.5-14.128907-31.625-31.628907-31.625zm0 0" fill="#b34f03"/><path d="m203.285156 269.085938h-63.730468l.484374-11.007813c.753907-17.121094 10.75-32.511719 26.070313-40.171875 9.929687-4.964844 16.089844-11.414062 16.089844-22.621094 0-5.816406-4.726563-10.542968-10.542969-10.542968s-10.542969 4.726562-10.542969 10.542968h-21.082031c0-17.4375 14.1875-31.625 31.625-31.625 17.441406 0 31.628906 14.1875 31.628906 31.625 0 16.898438-8.191406 31.699219-27.734375 41.472656-4.992187 2.503907-8.957031 6.464844-11.46875 11.242188h39.203125zm0 0" fill="#e7e7e7"/><path d="m344.234375 236.757812c19.539063-9.773437 27.734375-24.574218 27.734375-41.472656 0-17.441406-14.1875-31.628906-31.628906-31.628906s-31.625 14.1875-31.625 31.628906h21.082031c0-5.816406 4.726563-10.542968 10.542969-10.542968s10.542968 4.726562 10.542968 10.542968c0 8.988282-4.992187 17.070313-13.042968 21.097656-19.570313 9.785157-28.367188 24.628907-29.117188 41.695313l-.484375 11.007813h63.730469v-21.085938h-39.207031c2.515625-4.777344 6.476562-8.742188 11.472656-11.242188zm0 0" fill="#d3d3d8"/><path d="m287.628906 205.828125v21.085937h-21.085937v21.085938h-21.085938v-21.085938h-21.085937v-21.085937h21.085937v-21.085937h21.085938v21.085937zm0 0" fill="#e7e7e7"/><path d="m266.542969 248h-10.542969v-63.257812h10.542969v21.085937h21.085937v21.085937h-21.085937zm0 0" fill="#d3d3d8"/><path d="m435.929688 363.96875v31.628906h-179.929688v-63.253906h148.300781c17.5 0 31.628907 14.125 31.628907 31.625zm0 0" fill="#913f02"/></svg>