<?xml version="1.0" encoding="iso-8859-1"?>
<!-- Generator: Adobe Illustrator 19.0.0, SVG Export Plug-In . SVG Version: 6.00 Build 0)  -->
<svg version="1.1" id="Capa_1" xmlns="http://www.w3.org/2000/svg" xmlns:xlink="http://www.w3.org/1999/xlink" x="0px" y="0px"
	 viewBox="0 0 512 512" style="enable-background:new 0 0 512 512;" xml:space="preserve">
<circle style="fill:#006C5D;" cx="256" cy="256" r="256"/>
<path style="fill:#005B4E;" d="M512,256c0-23.124-3.084-45.524-8.832-66.832L389,75L132.333,430.333l77.507,77.506
	c14.974,2.727,30.399,4.16,46.16,4.16C397.385,512,512,397.385,512,256z"/>
<rect x="260.33" y="75" style="fill:#DC2C00;" width="128.67" height="355.33"/>
<rect x="260.33" y="75" style="fill:#E7C19A;" width="128.67" height="355.33"/>
<rect x="323.81" y="75" style="fill:#C9A07C;" width="65.19" height="355.33"/>
<rect id="SVGCleanerId_0" x="282.67" y="113.67" style="fill:#FE6D00;" width="84" height="199.33"/>
<g>
	<rect id="SVGCleanerId_0_1_" x="282.67" y="113.67" style="fill:#FE6D00;" width="84" height="199.33"/>
</g>
<rect x="323.81" y="113.67" style="fill:#E55100;" width="42.857" height="199.33"/>
<g>
	<circle style="fill:#FEF5E0;" cx="324.67" cy="371.33" r="25.667"/>
	<circle style="fill:#FEF5E0;" cx="324.67" cy="371.33" r="25.667"/>
</g>
<path style="fill:#FEDFB1;" d="M324.667,345.667c-0.288,0-0.572,0.012-0.857,0.022v51.29c0.285,0.009,0.57,0.021,0.857,0.021
	c14.175,0,25.667-11.491,25.667-25.667S338.842,345.667,324.667,345.667z"/>
<rect x="132.33" y="75" style="fill:#0277BC;" width="128.67" height="355.33"/>
<rect x="195.83" y="75" style="fill:#01579A;" width="65.17" height="355.33"/>
<rect x="154.67" y="113.67" style="fill:#0D47A0;" width="84" height="199.33"/>
<rect x="195.83" y="113.67" style="fill:#05367C;" width="42.833" height="199.33"/>
<circle style="fill:#FEF5E0;" cx="196.67" cy="371.33" r="25.667"/>
<path style="fill:#DBD5C8;" d="M196.667,345.667c-0.28,0-0.556,0.012-0.833,0.021v51.292c0.277,0.009,0.554,0.021,0.833,0.021
	c14.175,0,25.667-11.491,25.667-25.667S210.842,345.667,196.667,345.667z"/>
<g>
</g>
<g>
</g>
<g>
</g>
<g>
</g>
<g>
</g>
<g>
</g>
<g>
</g>
<g>
</g>
<g>
</g>
<g>
</g>
<g>
</g>
<g>
</g>
<g>
</g>
<g>
</g>
<g>
</g>
</svg>
