<?xml version="1.0" encoding="iso-8859-1"?>
<!-- Generator: Adobe Illustrator 19.0.0, SVG Export Plug-In . SVG Version: 6.00 Build 0)  -->
<svg version="1.1" id="Capa_1" xmlns="http://www.w3.org/2000/svg" xmlns:xlink="http://www.w3.org/1999/xlink" x="0px" y="0px"
	 viewBox="0 0 512 512" style="enable-background:new 0 0 512 512;" xml:space="preserve">
<circle style="fill:#FEE17A;" cx="256" cy="256" r="256"/>
<path style="fill:#FCC55F;" d="M512,256c0-7.701-0.36-15.317-1.026-22.845L375.81,97.991L117.177,304.172l55.286,55.286
	l-95.13,26.875l118.549,118.549C215.166,509.524,235.292,512,256,512C397.385,512,512,397.385,512,256z"/>
<rect x="139.52" y="107.99" style="fill:#DA302B;" width="226.29" height="163.35"/>
<rect x="255.95" y="107.99" style="fill:#C40619;" width="109.86" height="163.35"/>
<path style="fill:#455A64;" d="M375.81,281.343H129.523V97.991H375.81V281.343z M149.523,261.343H355.81V117.991H149.523V261.343z"
	/>
<polygon style="fill:#37474F;" points="375.81,97.991 255.952,97.991 255.952,117.991 355.81,117.991 355.81,261.343 
	255.952,261.343 255.952,281.343 375.81,281.343 "/>
<polygon style="fill:#FFFFFF;" points="233.968,158.85 278.032,189.667 233.968,220.483 "/>
<polygon style="fill:#E0E0E0;" points="255.952,174.226 255.952,205.108 278.032,189.667 "/>
<path style="fill:#0287D0;" d="M77.333,386.333c0-35.899,29.101-65,65-65s65,29.101,65,65H77.333z"/>
<circle style="fill:#FFFFFF;" cx="142.33" cy="280.33" r="34.667"/>
<path style="fill:#0277BC;" d="M191.333,386.333c0-35.899,29.102-65,65-65s65,29.101,65,65H191.333z"/>
<path style="fill:#01579A;" d="M256.333,321.333c-0.128,0-0.253,0.009-0.381,0.009v64.991h65.381
	C321.333,350.435,292.232,321.333,256.333,321.333z"/>
<circle style="fill:#FFFFFF;" cx="256.33" cy="280.33" r="34.667"/>
<path style="fill:#E0E0E0;" d="M256.333,245.667c-0.128,0-0.253,0.008-0.381,0.01v69.314c0.127,0.001,0.253,0.01,0.381,0.01
	C275.479,315,291,299.479,291,280.333C291,261.188,275.479,245.667,256.333,245.667z"/>
<path style="fill:#0277BC;" d="M298,386.333c0-35.899,29.102-65,65-65s65,29.101,65,65H298z"/>
<circle style="fill:#E0E0E0;" cx="363" cy="280.33" r="34.667"/>
<g>
</g>
<g>
</g>
<g>
</g>
<g>
</g>
<g>
</g>
<g>
</g>
<g>
</g>
<g>
</g>
<g>
</g>
<g>
</g>
<g>
</g>
<g>
</g>
<g>
</g>
<g>
</g>
<g>
</g>
</svg>
