<svg height="512pt" viewBox="0 0 512 512" width="512pt" xmlns="http://www.w3.org/2000/svg"><path d="m512 256c0 141.386719-114.613281 256-256 256s-256-114.613281-256-256 114.613281-256 256-256 256 114.613281 256 256zm0 0" fill="#ff9d49"/><path d="m510.675781 282.1875-113.359375-113.359375-70.066406-31.84375-34.832031-1.566406-52.226563 63.136719 12.742188 12.742187-125.511719 189.203125 110.878906 110.878906c5.851563.402344 11.75.621094 17.699219.621094 132.542969 0 241.5625-100.730469 254.675781-229.8125zm0 0" fill="#ff6e1d"/><path d="m141.820312 360.621094 12.742188 12.738281-27.136719 27.136719-12.742187-12.738282zm0 0" fill="#082947"/><path d="m182.855469 357.800781-30.421875 30.425781-12.738282-12.738281 26.179688-34.671875zm0 0" fill="#98d9d5"/><path d="m170.121094 345.0625-30.425782 30.425781-12.734374-12.742187 30.421874-30.421875zm0 0" fill="#c1e8e6"/><path d="m208.34375 281.363281-42.464844 67.945313 21.230469 21.234375 50.960937-50.960938zm0 0" fill="#185f8d"/><path d="m165.878906 349.308594-21.238281-21.238282 50.964844-50.957031 25.480469 16.988281zm0 0" fill="#4284b2"/><path d="m284.777344 221.914062-67.9375 76.433594 25.476562 25.480469 67.941406-67.941406zm0 0" fill="#6da8d6"/><path d="m289.027344 226.160156-72.1875 72.1875-25.480469-25.480468 67.945313-67.945313zm0 0" fill="#9ec8e8"/><path d="m365.46875 200.675781-55.210938 55.210938-25.480468-25.480469 53.082031-70.066406 29.726563 29.722656zm0 0" fill="#185f8d"/><path d="m397.316406 168.828125-19.109375 19.109375-10.621093 2.125-25.476563-25.476562 29.726563-21.234376zm0 0" fill="#082947"/><path d="m346.355469 168.832031-61.578125 61.574219-25.472656-25.484375 61.574218-61.566406zm0 0" fill="#4284b2"/><path d="m320.875 143.359375 25.480469-25.480469 25.476562 25.476563-25.480469 25.476562zm0 0" fill="#274b6d"/><path d="m240.191406 198.554688-12.738281-12.738282 74.316406-74.316406 76.4375 76.4375-12.738281 12.742188-63.699219-63.699219zm0 0" fill="#98d9d5"/></svg>