<svg xmlns="http://www.w3.org/2000/svg" height="512pt" version="1.1" viewBox="0 0 512 512" width="512pt">
<g id="surface1">
<path d="M 512 256 C 512 397.386719 397.386719 512 256 512 C 114.613281 512 0 397.386719 0 256 C 0 114.613281 114.613281 0 256 0 C 397.386719 0 512 114.613281 512 256 Z M 512 256 " style=" stroke:none;fill-rule:nonzero;fill:rgb(100%,83.137255%,0%);fill-opacity:1;" />
<path d="M 512 256 C 512 239.429688 510.40625 223.230469 507.398438 207.535156 L 387.5 87.636719 L 124.5 400.636719 L 235 511.136719 C 241.925781 511.699219 248.929688 512 256 512 C 397.386719 512 512 397.386719 512 256 Z M 512 256 " style=" stroke:none;fill-rule:nonzero;fill:rgb(99.215686%,72.941176%,7.058824%);fill-opacity:1;" />
<path d="M 124.5 87.636719 L 387.5 87.636719 L 387.5 400.636719 L 124.5 400.636719 Z M 124.5 87.636719 " style=" stroke:none;fill-rule:nonzero;fill:rgb(100%,100%,100%);fill-opacity:1;" />
<path d="M 255.832031 87.636719 L 387.5 87.636719 L 387.5 400.636719 L 255.832031 400.636719 Z M 255.832031 87.636719 " style=" stroke:none;fill-rule:nonzero;fill:rgb(94.901961%,96.470588%,98.823529%);fill-opacity:1;" />
<path d="M 299.167969 447 L 255.832031 427 L 212.5 447 L 212.5 337.667969 L 299.167969 337.667969 Z M 299.167969 447 " style=" stroke:none;fill-rule:nonzero;fill:rgb(29.019608%,47.843137%,100%);fill-opacity:1;" />
<path d="M 255.832031 426.957031 L 299.167969 446.957031 L 299.167969 337.625 L 255.667969 337.625 Z M 255.832031 426.957031 " style=" stroke:none;fill-rule:nonzero;fill:rgb(15.686275%,39.215686%,94.117647%);fill-opacity:1;" />
<path d="M 333.363281 321.832031 L 319.140625 338.847656 L 322.960938 360.691406 L 302.121094 368.285156 L 294.523438 389.128906 L 272.679688 385.304688 L 255.667969 399.527344 L 238.652344 385.304688 L 216.808594 389.128906 L 209.214844 368.285156 L 188.371094 360.691406 L 192.195312 338.84375 L 177.972656 321.832031 L 192.195312 304.820312 L 188.371094 282.976562 L 209.214844 275.378906 L 216.808594 254.539062 L 238.65625 258.359375 L 255.667969 244.136719 L 272.679688 258.359375 L 294.523438 254.539062 L 302.121094 275.378906 L 322.960938 282.976562 L 319.140625 304.820312 Z M 333.363281 321.832031 " style=" stroke:none;fill-rule:nonzero;fill:rgb(98.039216%,36.470588%,5.882353%);fill-opacity:1;" />
<path d="M 333.363281 321.832031 L 319.140625 304.820312 L 322.960938 282.976562 L 302.121094 275.378906 L 294.523438 254.539062 L 272.679688 258.359375 L 255.832031 244.277344 L 255.832031 399.390625 L 272.679688 385.304688 L 294.523438 389.128906 L 302.121094 368.285156 L 322.960938 360.691406 L 319.140625 338.847656 Z M 333.363281 321.832031 " style=" stroke:none;fill-rule:nonzero;fill:rgb(93.72549%,21.960784%,0%);fill-opacity:1;" />
<path d="M 187.667969 125 L 324.335938 125 L 324.335938 145 L 187.667969 145 Z M 187.667969 125 " style=" stroke:none;fill-rule:nonzero;fill:rgb(68.627451%,70.588235%,78.431373%);fill-opacity:1;" />
<path d="M 255.832031 125 L 324.332031 125 L 324.332031 145 L 255.832031 145 Z M 255.832031 125 " style=" stroke:none;fill-rule:nonzero;fill:rgb(56.862745%,58.823529%,66.666667%);fill-opacity:1;" />
<path d="M 155 165 L 357 165 L 357 185 L 155 185 Z M 155 165 " style=" stroke:none;fill-rule:nonzero;fill:rgb(68.627451%,70.588235%,78.431373%);fill-opacity:1;" />
<path d="M 255.832031 165 L 357 165 L 357 185 L 255.832031 185 Z M 255.832031 165 " style=" stroke:none;fill-rule:nonzero;fill:rgb(56.862745%,58.823529%,66.666667%);fill-opacity:1;" />
<path d="M 155 207.570312 L 357 207.570312 L 357 227.570312 L 155 227.570312 Z M 155 207.570312 " style=" stroke:none;fill-rule:nonzero;fill:rgb(68.627451%,70.588235%,78.431373%);fill-opacity:1;" />
<path d="M 255.832031 207.570312 L 357 207.570312 L 357 227.570312 L 255.832031 227.570312 Z M 255.832031 207.570312 " style=" stroke:none;fill-rule:nonzero;fill:rgb(56.862745%,58.823529%,66.666667%);fill-opacity:1;" />
<path d="M 301.851562 321.832031 C 301.851562 347.15625 281.324219 367.683594 256 367.683594 C 230.675781 367.683594 210.148438 347.15625 210.148438 321.832031 C 210.148438 296.507812 230.675781 275.980469 256 275.980469 C 281.324219 275.980469 301.851562 296.507812 301.851562 321.832031 Z M 301.851562 321.832031 " style=" stroke:none;fill-rule:nonzero;fill:rgb(100%,64.313725%,14.901961%);fill-opacity:1;" />
<path d="M 256 275.980469 C 255.945312 275.980469 255.890625 275.984375 255.832031 275.984375 L 255.832031 367.679688 C 255.890625 367.679688 255.945312 367.683594 256 367.683594 C 281.324219 367.683594 301.851562 347.15625 301.851562 321.832031 C 301.851562 296.511719 281.324219 275.980469 256 275.980469 Z M 256 275.980469 " style=" stroke:none;fill-rule:nonzero;fill:rgb(100%,58.431373%,0%);fill-opacity:1;" />
</g>
</svg>