<svg height="512pt" viewBox="0 0 512 512" width="512pt" xmlns="http://www.w3.org/2000/svg"><path d="m512 256c0 141.386719-114.613281 256-256 256s-256-114.613281-256-256 114.613281-256 256-256 256 114.613281 256 256zm0 0" fill="#53433f"/><path d="m497.828125 171.847656-78.304687-78.308594-89.078126 89.074219-82.859374-82.859375-69.917969 28.578125-38.039063 12.710938-18 18 116.195313 116.195312-126.09375 126.09375 108.113281 108.113281c11.8125 1.671876 23.878906 2.554688 36.15625 2.554688 141.386719 0 256-114.613281 256-256 0-29.484375-5-57.796875-14.171875-84.152344zm0 0" fill="#3e322e"/><path d="m419.863281 151.429688-2.179687 1.867187-53.054688 41.855469-23.492187-2.023438-20.539063-20.539062-2.648437-24.113282 40.769531-51.96875c7.464844-9.023437 18.203125-14.46875 29.714844-15.09375 11.515625-.621093 22.871094 3.890626 31.117187 12.136719 16.027344 16.027344 16.183594 42.011719.3125 57.878907zm0 0" fill="#ff7816"/><path d="m341.132812 193.128906-10.578124-10.578125 88.996093-89c16.027344 16.027344 16.179688 42.011719.3125 57.878907l-2.179687 1.867187-53.054688 41.855469zm0 0" fill="#ff4b00"/><path d="m364.628906 195.152344-60.367187 60.367187-6.535157-14.625c-2.335937-5.445312-6.070312-10.734375-10.425781-15.089843-4.355469-4.359376-9.648437-8.09375-15.09375-10.425782l-14.625-6.535156 60.367188-60.367188zm0 0" fill="#68544f"/><path d="m297.722656 240.898438c-2.332031-5.449219-6.066406-10.738282-10.421875-15.09375l53.988281-53.992188 23.339844 23.339844-60.367187 60.367187zm0 0" fill="#53433f"/><path d="m119.527344 315.78125-7.777344 7.777344c-21.472656 21.472656-21.472656 56.324218 0 77.796875 21.472656 21.46875 56.324219 21.472656 77.792969 0l7.78125-7.78125zm0 0" fill="#ff9f00"/><path d="m158.425781 354.675781 38.898438 38.898438-7.78125 7.78125c-21.472657 21.472656-56.324219 21.472656-77.792969 0zm0 0" fill="#ff7816"/><path d="m247.425781 381.75-.15625-.464844-28.007812 3.109375-93.199219-93.199219 5.757812-25.359374-.464843-.46875c10.113281-5.445313 19.605469-12.136719 27.847656-20.378907l34.742187-34.742187c23.183594-23.183594 58.347657-29.09375 87.597657-14.78125 7.625 3.269531 14.78125 8.246094 21.316406 14.78125 6.222656 6.222656 11.667969 13.847656 15.089844 21.625 14.003906 28.941406 8.09375 64.105468-15.089844 87.289062l-31.117187 31.117188c-7.9375 7.933594-18.714844 21.515625-24.316407 31.472656zm0 0" fill="#ffd400"/><path d="m247.425781 381.75-.15625-.464844-28.007812 3.109375-45.277344-45.277343 128.875-128.871094c6.222656 6.222656 11.667969 13.847656 15.089844 21.625 14.003906 28.941406 8.09375 64.105468-15.089844 87.289062l-31.117187 31.117188c-7.9375 7.933594-18.714844 21.515625-24.316407 31.472656zm0 0" fill="#fdbf00"/><path d="m233.109375 423.136719c1.867187-12.445313 5.445313-24.117188 10.582031-34.851563l3.578125-7-115.449219-115.449218-7.003906 3.265624c-11.511718 5.292969-23.492187 8.871094-36.09375 10.269532l-32.585937 4.359375 172.304687 173.160156zm0 0" fill="#fdbf00"/><path d="m354.070312 391.476562-14.113281-16.882812c3.289063-2.757812 6.488281-5.667969 9.578125-8.757812 26.960938-26.964844 41.816406-62.121094 41.816406-100.378907h22c0 44.125-17.136718 84.820313-48.257812 115.9375-3.546875 3.546875-7.230469 6.914063-11.023438 10.082031zm0 0" fill="#d3d3d8"/><path d="m121.628906 159.03125c3.167969-3.789062 6.53125-7.476562 10.082032-11.023438 31.117187-31.117187 71.734374-48.257812 115.859374-48.257812v22.003906c-38.261718 0-73.339843 14.851563-100.300781 41.8125-3.09375 3.09375-6.003906 6.289063-8.761719 9.582032zm0 0" fill="#e7e7e7"/><path d="m325.871094 357.683594-14.070313-16.925782c2.273438-1.894531 4.488281-3.914062 6.617188-6.039062 18.675781-18.675781 28.953125-42.785156 28.945312-69.261719h22c.007813 32.355469-12.558593 61.988281-35.386719 84.820313-2.613281 2.613281-5.316406 5.089844-8.105468 7.40625zm0 0" fill="#d3d3d8"/><path d="m155.421875 187.234375c2.316406-2.789063 4.792969-5.496094 7.40625-8.105469 22.828125-22.832031 52.386719-35.398437 84.742187-35.390625v22c-26.476562-.007812-50.511718 10.273438-69.183593 28.945313-2.128907 2.128906-4.148438 4.347656-6.039063 6.617187zm0 0" fill="#e7e7e7"/><path d="m228.441406 456.890625-85.574218-86.65625 46.675781-46.675781 57.726562 57.722656-3.582031 7.003906c-5.132812 10.734375-8.710938 22.40625-10.578125 34.851563zm0 0" fill="#ff9f00"/></svg>