<?xml version="1.0" encoding="iso-8859-1"?>
<!-- Generator: Adobe Illustrator 19.0.0, SVG Export Plug-In . SVG Version: 6.00 Build 0)  -->
<svg xmlns="http://www.w3.org/2000/svg" xmlns:xlink="http://www.w3.org/1999/xlink" version="1.1" id="Capa_1" x="0px" y="0px" viewBox="0 0 512 512" style="enable-background:new 0 0 512 512;" xml:space="preserve">
<circle style="fill:#65BA70;" cx="255.997" cy="256" r="255.997"/>
<path style="fill:#488E53;" d="M271.749,511.507C405.796,503.369,512,392.098,512,256.003c0-4.713-0.137-9.393-0.388-14.042  L361.461,91.811l-0.003-0.003h-0.001l-0.43,0.43v-0.43H151.249l-66.696,68.734l76.787,142.124  c-6.468,13.621-10.092,28.854-10.092,44.935c0,29.834,12.456,56.756,32.449,75.855l0,0L271.749,511.507z"/>
<rect x="151.251" y="91.808" style="fill:#991718;" width="209.778" height="86.869"/>
<rect x="255.72" y="91.808" style="fill:#780F13;" width="105.309" height="86.869"/>
<polygon style="fill:#BB161B;" points="234.476,328.923 313.975,371.875 428.154,160.542 361.458,91.808 "/>
<polygon style="fill:#E25F3F;" points="278.232,328.923 198.733,371.875 84.554,160.542 151.249,91.808 "/>
<circle style="fill:#F6D433;" cx="256.135" cy="347.597" r="104.884"/>
<g>
	<path style="fill:#DF871E;" d="M256.139,242.712c-0.046,0-0.093,0.002-0.139,0.002v209.774c0.046,0,0.093,0.002,0.139,0.002   c57.929,0,104.889-46.961,104.889-104.889S314.067,242.712,256.139,242.712z"/>
	<polygon style="fill:#DF871E;" points="256,287.709 276.259,324.949 317.936,332.709 288.78,363.484 294.279,405.52 256,387.3    217.721,405.52 223.22,363.484 194.063,332.709 235.741,324.949  "/>
</g>
<polygon style="fill:#A16125;" points="294.279,405.519 288.78,363.484 317.936,332.708 276.259,324.949 256,287.709 256,387.3 "/>
<g>
</g>
<g>
</g>
<g>
</g>
<g>
</g>
<g>
</g>
<g>
</g>
<g>
</g>
<g>
</g>
<g>
</g>
<g>
</g>
<g>
</g>
<g>
</g>
<g>
</g>
<g>
</g>
<g>
</g>
</svg>
