<svg height="512pt" viewBox="0 0 512 512" width="512pt" xmlns="http://www.w3.org/2000/svg"><path d="m512 256c0 141.386719-114.613281 256-256 256s-256-114.613281-256-256 114.613281-256 256-256 256 114.613281 256 256zm0 0" fill="#f2484b"/><path d="m512 256c0-6.308594-.238281-12.5625-.6875-18.757812l-111.8125-111.8125-157.585938 116.484374-78.554687 156.726563 112.589844 112.589844c132.0625-10.179688 236.050781-120.558594 236.050781-255.230469zm0 0" fill="#bd1515"/><path d="m112.5 125.429688 12.929688-12.929688 25.859374 25.859375-12.929687 12.929687zm0 0" fill="#55a7a2"/><path d="m149.132812 123.273438 62.886719 49.957031-19.398437 36.632812-56.417969-73.660156zm0 0" fill="#c1e8e6"/><path d="m136.203125 136.203125 65.039063 65.039063-28.011719 10.777343-49.957031-62.886719zm0 0" fill="#98d9d5"/><path d="m373.640625 321.921875 25.859375 25.859375-25.859375 25.859375-43.101563-25.859375zm0 0" fill="#c1e8e6"/><path d="m192.621094 192.621094 60.339844 94.820312 94.820312 60.339844 25.859375-25.859375-155.15625-155.15625zm0 0" fill="#55a7a2"/><path d="m339.160156 339.160156 34.480469 34.480469-25.859375 25.859375-25.859375-25.859375zm0 0" fill="#98d9d5"/><path d="m321.921875 373.644531-155.15625-155.15625 25.859375-25.859375 155.15625 155.15625zm0 0" fill="#3b7d84"/><path d="m386.566406 112.496094 12.933594 12.929687-25.859375 25.859375-12.933594-12.929687zm0 0" fill="#ff9d49"/><path d="m388.726562 149.132812-49.957031 62.886719-36.632812-19.398437 73.660156-56.417969zm0 0" fill="#ffb55f"/><path d="m375.796875 136.203125-65.039063 65.039063-10.777343-28.011719 62.886719-49.957031zm0 0" fill="#ffcc75"/><path d="m190.078125 373.640625-25.859375 25.859375-25.859375-25.859375 25.859375-43.101563zm0 0" fill="#f9dca7"/><path d="m319.378906 192.621094-94.820312 60.339844-60.339844 94.820312 25.859375 25.859375 155.15625-155.15625zm0 0" fill="#ff9d49"/><path d="m172.839844 339.160156-34.480469 34.480469-25.859375-25.859375 25.859375-25.859375zm0 0" fill="#f2ebd9"/><path d="m138.355469 321.921875 155.15625-155.15625 25.859375 25.859375-155.15625 155.15625zm0 0" fill="#ffb55f"/></svg>