<svg xmlns="http://www.w3.org/2000/svg" height="512pt" version="1.1" viewBox="0 0 512 512" width="512pt">
<g id="surface1">
<path d="M 512 256 C 512 397.386719 397.386719 512 256 512 C 114.613281 512 0 397.386719 0 256 C 0 114.613281 114.613281 0 256 0 C 397.386719 0 512 114.613281 512 256 Z M 512 256 " style=" stroke:none;fill-rule:nonzero;fill:rgb(0%,92.941176%,100%);fill-opacity:1;" />
<path d="M 511.917969 262.546875 L 326.386719 77.015625 L 133.179688 270.222656 L 237.039062 374.082031 L 174.449219 435.910156 L 250.472656 511.929688 C 252.308594 511.96875 254.152344 512 256 512 C 395.195312 512 508.445312 400.90625 511.917969 262.546875 Z M 511.917969 262.546875 " style=" stroke:none;fill-rule:nonzero;fill:rgb(2.745098%,74.509804%,90.980392%);fill-opacity:1;" />
<path d="M 338.140625 435.910156 L 256.296875 398.136719 L 174.449219 435.910156 L 174.449219 229.40625 L 338.140625 229.40625 Z M 338.140625 435.910156 " style=" stroke:none;fill-rule:nonzero;fill:rgb(25.490196%,28.627451%,32.156863%);fill-opacity:1;" />
<path d="M 255.761719 229.40625 L 256.296875 398.136719 L 338.140625 435.910156 L 338.140625 229.40625 Z M 255.761719 229.40625 " style=" stroke:none;fill-rule:nonzero;fill:rgb(13.72549%,15.294118%,16.862745%);fill-opacity:1;" />
<path d="M 397.078125 199.503906 L 380.703125 233.011719 L 378.152344 270.222656 L 347.175781 291.011719 L 326.386719 321.988281 L 289.175781 324.539062 L 255.667969 340.917969 L 222.160156 324.539062 L 184.945312 321.988281 L 164.15625 291.011719 L 133.179688 270.222656 L 130.632812 233.011719 L 114.253906 199.503906 L 130.632812 165.996094 L 133.179688 128.78125 L 164.15625 107.992188 L 184.945312 77.015625 L 222.15625 74.46875 L 255.667969 58.089844 L 289.175781 74.46875 L 326.386719 77.019531 L 347.175781 107.992188 L 378.152344 128.78125 L 380.703125 165.996094 Z M 397.078125 199.503906 " style=" stroke:none;fill-rule:nonzero;fill:rgb(98.039216%,36.470588%,5.882353%);fill-opacity:1;" />
<path d="M 380.703125 165.996094 L 378.152344 128.78125 L 347.175781 107.992188 L 326.386719 77.019531 L 289.175781 74.46875 L 255.761719 58.136719 L 255.761719 340.871094 L 289.175781 324.539062 L 326.386719 321.988281 L 347.175781 291.011719 L 378.152344 270.222656 L 380.703125 233.011719 L 397.078125 199.503906 Z M 380.703125 165.996094 " style=" stroke:none;fill-rule:nonzero;fill:rgb(93.72549%,21.960784%,0%);fill-opacity:1;" />
<path d="M 342.898438 199.503906 C 342.898438 247.332031 304.125 286.105469 256.296875 286.105469 C 208.464844 286.105469 169.691406 247.332031 169.691406 199.503906 C 169.691406 151.671875 208.464844 112.898438 256.296875 112.898438 C 304.125 112.898438 342.898438 151.671875 342.898438 199.503906 Z M 342.898438 199.503906 " style=" stroke:none;fill-rule:nonzero;fill:rgb(100%,64.313725%,14.901961%);fill-opacity:1;" />
<path d="M 256.296875 112.902344 C 256.117188 112.902344 255.941406 112.90625 255.761719 112.90625 L 255.761719 286.101562 C 255.941406 286.101562 256.117188 286.105469 256.296875 286.105469 C 304.125 286.105469 342.898438 247.335938 342.898438 199.503906 C 342.898438 151.675781 304.125 112.902344 256.296875 112.902344 Z M 256.296875 112.902344 " style=" stroke:none;fill-rule:nonzero;fill:rgb(100%,58.431373%,0%);fill-opacity:1;" />
</g>
</svg>