<svg xmlns="http://www.w3.org/2000/svg" height="512pt" version="1.1" viewBox="0 0 512 512" width="512pt">
<g id="surface1">
<path d="M 512 256 C 512 397.386719 397.386719 512 256 512 C 114.613281 512 0 397.386719 0 256 C 0 114.613281 114.613281 0 256 0 C 397.386719 0 512 114.613281 512 256 Z M 512 256 " style=" stroke:none;fill-rule:nonzero;fill:rgb(99.607843%,41.568627%,8.627451%);fill-opacity:1;" />
<path d="M 289.550781 509.8125 C 415.078125 493.378906 512 386.011719 512 256 C 512 246.410156 511.453125 236.949219 510.429688 227.636719 L 378.789062 95.996094 L 289.65625 95.257812 L 251.390625 56.996094 L 121.09375 226.867188 L 276.414062 382.1875 L 194.734375 414.992188 Z M 289.550781 509.8125 " style=" stroke:none;fill-rule:nonzero;fill:rgb(94.901961%,27.058824%,0%);fill-opacity:1;" />
<path d="M 402.128906 405.109375 L 375.128906 405.109375 L 375.128906 152.742188 C 375.128906 123.078125 350.996094 98.945312 321.332031 98.945312 L 211.644531 98.945312 L 211.644531 71.945312 L 321.332031 71.945312 C 365.882812 71.945312 402.128906 108.191406 402.128906 152.742188 Z M 402.128906 405.109375 " style=" stroke:none;fill-rule:nonzero;fill:rgb(25.490196%,28.627451%,32.156863%);fill-opacity:1;" />
<path d="M 321.332031 71.945312 L 311.714844 71.945312 L 311.714844 98.945312 L 321.332031 98.945312 C 350.996094 98.945312 375.128906 123.078125 375.128906 152.742188 L 375.128906 405.109375 L 402.128906 405.109375 L 402.128906 152.742188 C 402.128906 108.191406 365.882812 71.945312 321.332031 71.945312 Z M 321.332031 71.945312 " style=" stroke:none;fill-rule:nonzero;fill:rgb(20%,22.352941%,25.098039%);fill-opacity:1;" />
<path d="M 171.894531 56.992188 L 251.390625 56.992188 L 251.390625 113.898438 L 171.894531 113.898438 Z M 171.894531 56.992188 " style=" stroke:none;fill-rule:nonzero;fill:rgb(38.823529%,41.176471%,47.058824%);fill-opacity:1;" />
<path d="M 214.09375 56.992188 L 251.390625 56.992188 L 251.390625 113.898438 L 214.09375 113.898438 Z M 214.09375 56.992188 " style=" stroke:none;fill-rule:nonzero;fill:rgb(33.333333%,35.294118%,40%);fill-opacity:1;" />
<path d="M 194.734375 414.992188 C 194.734375 382.246094 221.28125 355.699219 254.03125 355.699219 L 371.78125 355.699219 C 404.53125 355.699219 431.078125 382.246094 431.078125 414.992188 Z M 194.734375 414.992188 " style=" stroke:none;fill-rule:nonzero;fill:rgb(20%,22.352941%,25.098039%);fill-opacity:1;" />
<path d="M 371.78125 355.699219 L 311.714844 355.699219 L 311.714844 414.992188 L 431.078125 414.992188 C 431.078125 382.246094 404.53125 355.699219 371.78125 355.699219 Z M 371.78125 355.699219 " style=" stroke:none;fill-rule:nonzero;fill:rgb(13.72549%,15.294118%,16.862745%);fill-opacity:1;" />
<path d="M 266.890625 215.988281 C 266.890625 245.109375 243.285156 268.71875 214.160156 268.71875 C 185.039062 268.71875 161.433594 245.109375 161.433594 215.988281 C 161.433594 186.867188 185.039062 163.257812 214.160156 163.257812 C 243.285156 163.257812 266.890625 186.867188 266.890625 215.988281 Z M 266.890625 215.988281 " style=" stroke:none;fill-rule:nonzero;fill:rgb(100%,83.137255%,0%);fill-opacity:1;" />
<path d="M 214.160156 163.257812 C 214.140625 163.257812 214.117188 163.261719 214.09375 163.261719 L 214.09375 268.71875 C 214.117188 268.71875 214.140625 268.71875 214.160156 268.71875 C 243.285156 268.71875 266.890625 245.109375 266.890625 215.988281 C 266.890625 186.867188 243.285156 163.257812 214.160156 163.257812 Z M 214.160156 163.257812 " style=" stroke:none;fill-rule:nonzero;fill:rgb(99.215686%,72.941176%,7.058824%);fill-opacity:1;" />
<path d="M 307.230469 226.867188 L 121.09375 226.867188 L 121.09375 169.808594 C 121.09375 137.058594 147.640625 110.511719 180.390625 110.511719 L 247.933594 110.511719 C 280.683594 110.511719 307.230469 137.058594 307.230469 169.808594 Z M 307.230469 226.867188 " style=" stroke:none;fill-rule:nonzero;fill:rgb(25.490196%,28.627451%,32.156863%);fill-opacity:1;" />
<path d="M 307.230469 169.808594 C 307.230469 137.058594 280.683594 110.511719 247.933594 110.511719 L 214.09375 110.511719 L 214.09375 226.867188 L 307.230469 226.867188 Z M 307.230469 169.808594 " style=" stroke:none;fill-rule:nonzero;fill:rgb(20%,22.352941%,25.098039%);fill-opacity:1;" />
</g>
</svg>