<svg xmlns="http://www.w3.org/2000/svg" height="512pt" version="1.1" viewBox="0 0 512 512" width="512pt">
<g id="surface1">
<path d="M 512 256 C 512 397.386719 397.386719 512 256 512 C 114.613281 512 0 397.386719 0 256 C 0 114.613281 114.613281 0 256 0 C 397.386719 0 512 114.613281 512 256 Z M 512 256 " style=" stroke:none;fill-rule:nonzero;fill:rgb(98.039216%,36.470588%,5.882353%);fill-opacity:1;" />
<path d="M 512 256 C 512 255.019531 511.972656 254.046875 511.964844 253.070312 L 363.066406 104.171875 L 329.300781 149.679688 L 214.128906 34.507812 L 79.070312 169.566406 L 204.917969 295.410156 L 86.332031 385 L 209.015625 507.683594 C 224.246094 510.507812 239.949219 512 256 512 C 397.386719 512 512 397.386719 512 256 Z M 512 256 " style=" stroke:none;fill-rule:nonzero;fill:rgb(93.72549%,21.960784%,0%);fill-opacity:1;" />
<path d="M 148.933594 104.171875 L 363.066406 104.171875 L 363.066406 246.171875 L 148.933594 246.171875 Z M 148.933594 104.171875 " style=" stroke:none;fill-rule:nonzero;fill:rgb(100%,100%,100%);fill-opacity:1;" />
<path d="M 255.167969 104.171875 L 363.066406 104.171875 L 363.066406 246.171875 L 255.167969 246.171875 Z M 255.167969 104.171875 " style=" stroke:none;fill-rule:nonzero;fill:rgb(94.901961%,96.470588%,98.823529%);fill-opacity:1;" />
<path d="M 101 234.667969 L 411 234.667969 L 411 376.667969 L 101 376.667969 Z M 101 234.667969 " style=" stroke:none;fill-rule:nonzero;fill:rgb(100%,97.254902%,67.058824%);fill-opacity:1;" />
<path d="M 255.167969 234.667969 L 411 234.667969 L 411 376.667969 L 255.167969 376.667969 Z M 255.167969 234.667969 " style=" stroke:none;fill-rule:nonzero;fill:rgb(100%,95.686275%,56.078431%);fill-opacity:1;" />
<path d="M 381.363281 234.667969 L 381.363281 252.183594 C 381.363281 270.632812 366.355469 285.640625 347.910156 285.640625 C 329.464844 285.640625 314.453125 270.632812 314.453125 252.183594 L 314.453125 234.667969 L 289.453125 234.667969 L 289.453125 252.183594 C 289.453125 270.632812 274.445312 285.640625 256 285.640625 C 237.554688 285.640625 222.546875 270.632812 222.546875 252.183594 L 222.546875 234.667969 L 197.546875 234.667969 L 197.546875 252.183594 C 197.546875 270.632812 182.535156 285.640625 164.089844 285.640625 C 145.644531 285.640625 130.636719 270.632812 130.636719 252.183594 L 130.636719 234.667969 L 105.636719 234.667969 L 105.636719 252.183594 C 105.636719 280.964844 126.550781 304.9375 153.976562 309.746094 L 153.976562 376.667969 L 178.976562 376.667969 L 178.976562 308.710938 C 191.449219 305.425781 202.289062 298.105469 210.046875 288.246094 C 218.289062 298.730469 230.03125 306.332031 243.5 309.28125 L 243.5 376.667969 L 268.5 376.667969 L 268.5 309.28125 C 281.96875 306.332031 293.710938 298.730469 301.953125 288.246094 C 310.199219 298.730469 321.9375 306.332031 335.410156 309.28125 L 335.410156 376.667969 L 360.410156 376.667969 L 360.410156 309.28125 C 386.652344 303.539062 406.363281 280.125 406.363281 252.183594 L 406.363281 234.667969 Z M 381.363281 234.667969 " style=" stroke:none;fill-rule:nonzero;fill:rgb(100%,90.980392%,37.254902%);fill-opacity:1;" />
<path d="M 381.363281 234.667969 L 381.363281 252.183594 C 381.363281 270.632812 366.355469 285.640625 347.910156 285.640625 C 329.464844 285.640625 314.453125 270.632812 314.453125 252.183594 L 314.453125 234.667969 L 289.453125 234.667969 L 289.453125 252.183594 C 289.453125 270.632812 274.445312 285.640625 256 285.640625 C 255.722656 285.640625 255.445312 285.625 255.167969 285.617188 L 255.167969 376.667969 L 268.5 376.667969 L 268.5 309.28125 C 281.96875 306.332031 293.710938 298.730469 301.953125 288.246094 C 310.199219 298.730469 321.9375 306.332031 335.410156 309.28125 L 335.410156 376.667969 L 360.410156 376.667969 L 360.410156 309.28125 C 386.652344 303.539062 406.363281 280.125 406.363281 252.183594 L 406.363281 234.667969 Z M 381.363281 234.667969 " style=" stroke:none;fill-rule:nonzero;fill:rgb(100%,76.078431%,0%);fill-opacity:1;" />
<path d="M 321.832031 104.171875 L 346.832031 104.171875 L 346.832031 234.667969 L 321.832031 234.667969 Z M 321.832031 104.171875 " style=" stroke:none;fill-rule:nonzero;fill:rgb(100%,76.078431%,0%);fill-opacity:1;" />
<path d="M 243.5 104.171875 L 268.5 104.171875 L 268.5 234.667969 L 243.5 234.667969 Z M 243.5 104.171875 " style=" stroke:none;fill-rule:nonzero;fill:rgb(100%,90.980392%,37.254902%);fill-opacity:1;" />
<path d="M 255.167969 104.171875 L 268.5 104.171875 L 268.5 234.667969 L 255.167969 234.667969 Z M 255.167969 104.171875 " style=" stroke:none;fill-rule:nonzero;fill:rgb(100%,76.078431%,0%);fill-opacity:1;" />
<path d="M 165.5 104.171875 L 190.5 104.171875 L 190.5 234.667969 L 165.5 234.667969 Z M 165.5 104.171875 " style=" stroke:none;fill-rule:nonzero;fill:rgb(100%,90.980392%,37.254902%);fill-opacity:1;" />
<path d="M 237.472656 102.683594 L 199.839844 155.277344 L 147.246094 192.910156 L 95.480469 141.144531 L 185.707031 50.917969 Z M 237.472656 102.683594 " style=" stroke:none;fill-rule:nonzero;fill:rgb(33.333333%,35.294118%,40%);fill-opacity:1;" />
<path d="M 237.472656 102.683594 L 185.707031 50.917969 L 140.265625 96.359375 L 199.457031 155.550781 L 199.839844 155.277344 Z M 237.472656 102.683594 " style=" stroke:none;fill-rule:nonzero;fill:rgb(25.490196%,28.627451%,32.156863%);fill-opacity:1;" />
<path d="M 60 150.492188 L 195.054688 15.4375 L 214.125 34.507812 L 79.070312 169.566406 Z M 60 150.492188 " style=" stroke:none;fill-rule:nonzero;fill:rgb(25.490196%,28.627451%,32.156863%);fill-opacity:1;" />
<path d="M 127.199219 83.296875 L 195.054688 15.4375 L 214.125 34.507812 L 146.269531 102.367188 Z M 127.199219 83.296875 " style=" stroke:none;fill-rule:nonzero;fill:rgb(13.72549%,15.294118%,16.862745%);fill-opacity:1;" />
<path d="M 86.332031 337.402344 L 425.664062 337.402344 L 425.664062 385 L 86.332031 385 Z M 86.332031 337.402344 " style=" stroke:none;fill-rule:nonzero;fill:rgb(100%,100%,100%);fill-opacity:1;" />
<path d="M 255.167969 337.402344 L 425.667969 337.402344 L 425.667969 385 L 255.167969 385 Z M 255.167969 337.402344 " style=" stroke:none;fill-rule:nonzero;fill:rgb(94.901961%,96.470588%,98.823529%);fill-opacity:1;" />
</g>
</svg>