<svg height="512pt" viewBox="0 0 512 512" width="512pt" xmlns="http://www.w3.org/2000/svg"><path d="m512 256c0 141.386719-114.613281 256-256 256s-256-114.613281-256-256 114.613281-256 256-256 256 114.613281 256 256zm0 0" fill="#fdbf00"/><path d="m512 256c0-13.578125-1.066406-26.90625-3.101562-39.910156l-160.148438-160.144532-87.417969 54.722657-84.402343 200.261719-96.917969 96.917968 88.976562 88.972656c27.164063 9.816407 56.460938 15.179688 87.011719 15.179688 141.386719 0 256-114.613281 256-256zm0 0" fill="#ff9f00"/><path d="m127.230469 201.0625-47.230469 47.230469 11.171875 10.777343h72.445313l9.882812-10.777343v-47.230469zm0 0" fill="#ff7816"/><path d="m384.769531 201.0625h-46.269531v47.230469l20.882812 14.644531h61.875l10.742188-14.644531zm0 0" fill="#ff4b00"/><path d="m80 248.292969h93.5v159.707031h-93.5zm0 0" fill="#d3d3d8"/><path d="m266.3125 108.25v20.625h-20.625v-10.3125l10.3125-9.28125 1.03125-1.03125zm0 0" fill="#53433f"/><path d="m266.3125 128.875h-10.3125v-19.59375l1.03125-1.03125h9.28125zm0 0" fill="#3e322e"/><path d="m245.6875 56v62.5625h103.125v-62.5625zm0 0" fill="#ff7816"/><path d="m256 56h92.8125v62.5625h-92.8125zm0 0" fill="#ff4b00"/><path d="m338.5 248.292969h93.5v159.707031h-93.5zm0 0" fill="#babac0"/><path d="m348.8125 200.785156v207.214844h-184.765625v-207.214844l92.382813-86.949218zm0 0" fill="#e7e7e7"/><path d="m348.8125 201.0625v206.9375h-92.8125v-293.769531zm0 0" fill="#d3d3d8"/><path d="m256 201.0625c-17.117188 0-30.9375 13.820312-30.9375 30.9375s13.816406 30.9375 30.9375 30.9375 30.9375-13.820312 30.9375-30.9375-13.820312-30.9375-30.9375-30.9375zm0 0" fill="#ff7816"/><path d="m256 283.5625c-28.464844 0-51.5625 23.101562-51.5625 51.5625v72.875h103.125v-72.875c0-28.464844-23.097656-51.5625-51.5625-51.5625zm0 0" fill="#53433f"/><path d="m256 262.9375v-61.875c17.117188 0 30.9375 13.820312 30.9375 30.9375s-13.820312 30.9375-30.9375 30.9375zm0 0" fill="#ff4b00"/><path d="m307.5625 335.125v72.875h-51.5625v-124.4375c28.464844 0 51.5625 23.097656 51.5625 51.5625zm0 0" fill="#3e322e"/><path d="m121.25 283.5625h20.625v20.625h-20.625zm0 0" fill="#53433f"/><path d="m121.25 324.8125h20.625v20.625h-20.625zm0 0" fill="#53433f"/><path d="m370.125 283.5625h20.625v20.625h-20.625zm0 0" fill="#3e322e"/><path d="m370.125 324.8125h20.625v20.625h-20.625zm0 0" fill="#3e322e"/><g fill="#0fa9dd"><path d="m266.3125 345.4375h20.625v62.5625h-20.625zm0 0"/><path d="m285.082031 324.8125h-58.160156c4.328125-11.960938 15.671875-20.625 29.078125-20.625s24.75 8.664062 29.082031 20.625zm0 0"/><path d="m225.0625 345.4375h20.625v62.5625h-20.625zm0 0"/><path d="m285.082031 324.8125h-29.082031v-20.625c13.40625 0 24.75 8.664062 29.082031 20.625zm0 0"/></g><path d="m266.3125 232c0 5.773438-4.539062 10.3125-10.3125 10.3125s-10.3125-4.539062-10.3125-10.3125c0-5.777344 4.535156-10.3125 10.3125-10.3125s10.3125 4.535156 10.3125 10.3125zm0 0" fill="#ede9e8"/><path d="m256 242.3125v-20.625c5.777344 0 10.3125 4.539062 10.3125 10.3125s-4.535156 10.3125-10.3125 10.3125zm0 0" fill="#dfd7d5"/></svg>