<?xml version="1.0" encoding="iso-8859-1"?>
<!-- Generator: Adobe Illustrator 19.0.0, SVG Export Plug-In . SVG Version: 6.00 Build 0)  -->
<svg xmlns="http://www.w3.org/2000/svg" xmlns:xlink="http://www.w3.org/1999/xlink" version="1.1" id="Capa_1" x="0px" y="0px" viewBox="0 0 512 512" style="enable-background:new 0 0 512 512;" xml:space="preserve">
<circle style="fill:#69C4D2;" cx="256" cy="256" r="256"/>
<path style="fill:#38979E;" d="M338.916,137.183h-19.84l-57.78-57.78h-35.898h-36.153v77.272H154.25h-33.229v61.927v9.392  l0.001,171.985l0,0l110.883,110.884C239.839,511.604,247.873,512,256,512c139.787,0,253.389-112.043,255.94-251.22L388.343,137.183  H363.19H338.916z"/>
<rect x="189.242" y="79.4" style="fill:#917857;" width="72.052" height="320.573"/>
<rect x="225.399" y="79.4" style="fill:#7D684A;" width="35.899" height="320.573"/>
<rect x="261.298" y="137.182" style="fill:#F6D433;" width="77.62" height="262.79"/>
<rect x="300.459" y="137.182" style="fill:#DF871E;" width="38.457" height="262.8"/>
<rect x="338.918" y="137.182" style="fill:#5A9449;" width="49.431" height="262.8"/>
<rect x="363.184" y="137.182" style="fill:#3A7545;" width="25.153" height="262.8"/>
<rect x="121.022" y="156.674" style="fill:#E57654;" width="68.221" height="243.309"/>
<rect x="154.252" y="156.674" style="fill:#BF2717;" width="34.995" height="243.309"/>
<rect x="121.022" y="191.091" style="fill:#A2482A;" width="68.221" height="36.898"/>
<rect x="154.252" y="191.091" style="fill:#963C1E;" width="34.995" height="36.898"/>
<rect x="189.242" y="343.307" style="fill:#FDF7D0;" width="72.052" height="25.699"/>
<rect x="225.399" y="343.307" style="fill:#F9ED9D;" width="35.899" height="25.699"/>
<rect x="261.298" y="165.52" style="fill:#C27526;" width="77.62" height="44.027"/>
<rect x="300.459" y="165.52" style="fill:#A16125;" width="38.457" height="44.026"/>
<rect x="338.918" y="313.121" style="fill:#BCDC96;" width="49.431" height="18.328"/>
<rect x="363.184" y="313.121" style="fill:#9BCD66;" width="25.153" height="18.327"/>
<rect x="338.918" y="347.715" style="fill:#BCDC96;" width="49.431" height="18.328"/>
<rect x="363.184" y="347.715" style="fill:#9BCD66;" width="25.153" height="18.327"/>
<g>
</g>
<g>
</g>
<g>
</g>
<g>
</g>
<g>
</g>
<g>
</g>
<g>
</g>
<g>
</g>
<g>
</g>
<g>
</g>
<g>
</g>
<g>
</g>
<g>
</g>
<g>
</g>
<g>
</g>
</svg>
