<svg xmlns="http://www.w3.org/2000/svg" height="512pt" version="1.1" viewBox="0 0 512 512" width="512pt">
<g id="surface1">
<path d="M 512 256 C 512 397.386719 397.386719 512 256 512 C 114.613281 512 0 397.386719 0 256 C 0 114.613281 114.613281 0 256 0 C 397.386719 0 512 114.613281 512 256 Z M 512 256 " style=" stroke:none;fill-rule:nonzero;fill:rgb(25.490196%,28.627451%,32.156863%);fill-opacity:1;" />
<path d="M 512 256 C 512 249.359375 511.746094 242.777344 511.25 236.265625 L 351.984375 77 L 103.757812 402.992188 L 208.3125 507.546875 C 223.765625 510.460938 239.699219 512 256 512 C 397.386719 512 512 397.386719 512 256 Z M 512 256 " style=" stroke:none;fill-rule:nonzero;fill:rgb(20%,22.352941%,25.098039%);fill-opacity:1;" />
<path d="M 163 77 L 103.757812 136.242188 L 103.757812 402.992188 L 351.984375 402.992188 L 351.984375 77 Z M 163 77 " style=" stroke:none;fill-rule:nonzero;fill:rgb(100%,100%,100%);fill-opacity:1;" />
<path d="M 228.382812 77 L 351.984375 77 L 351.984375 402.992188 L 228.382812 402.992188 Z M 228.382812 77 " style=" stroke:none;fill-rule:nonzero;fill:rgb(91.372549%,92.941176%,96.078431%);fill-opacity:1;" />
<path d="M 135.625 148.488281 L 320.117188 148.488281 L 320.117188 164.261719 L 135.625 164.261719 Z M 135.625 148.488281 " style=" stroke:none;fill-rule:nonzero;fill:rgb(86.27451%,88.235294%,92.156863%);fill-opacity:1;" />
<path d="M 135.625 188.339844 L 320.117188 188.339844 L 320.117188 204.113281 L 135.625 204.113281 Z M 135.625 188.339844 " style=" stroke:none;fill-rule:nonzero;fill:rgb(86.27451%,88.235294%,92.156863%);fill-opacity:1;" />
<path d="M 135.625 228.1875 L 320.117188 228.1875 L 320.117188 243.960938 L 135.625 243.960938 Z M 135.625 228.1875 " style=" stroke:none;fill-rule:nonzero;fill:rgb(86.27451%,88.235294%,92.156863%);fill-opacity:1;" />
<path d="M 135.625 268.039062 L 320.117188 268.039062 L 320.117188 283.8125 L 135.625 283.8125 Z M 135.625 268.039062 " style=" stroke:none;fill-rule:nonzero;fill:rgb(86.27451%,88.235294%,92.156863%);fill-opacity:1;" />
<path d="M 135.625 307.886719 L 320.117188 307.886719 L 320.117188 323.660156 L 135.625 323.660156 Z M 135.625 307.886719 " style=" stroke:none;fill-rule:nonzero;fill:rgb(86.27451%,88.235294%,92.156863%);fill-opacity:1;" />
<path d="M 135.625 347.738281 L 320.117188 347.738281 L 320.117188 363.511719 L 135.625 363.511719 Z M 135.625 347.738281 " style=" stroke:none;fill-rule:nonzero;fill:rgb(86.27451%,88.235294%,92.156863%);fill-opacity:1;" />
<path d="M 228.382812 347.738281 L 320.117188 347.738281 L 320.117188 363.511719 L 228.382812 363.511719 Z M 228.382812 347.738281 " style=" stroke:none;fill-rule:nonzero;fill:rgb(80.392157%,82.352941%,88.235294%);fill-opacity:1;" />
<path d="M 298.003906 307.535156 L 337.601562 267.9375 L 429.996094 360.332031 L 390.398438 399.929688 Z M 298.003906 307.535156 " style=" stroke:none;fill-rule:nonzero;fill:rgb(99.607843%,41.568627%,8.627451%);fill-opacity:1;" />
<path d="M 318.765625 286.769531 L 337.601562 267.9375 L 429.996094 360.332031 L 411.160156 379.164062 Z M 318.765625 286.769531 " style=" stroke:none;fill-rule:nonzero;fill:rgb(94.901961%,27.058824%,0%);fill-opacity:1;" />
<path d="M 336.472656 148.957031 C 292.996094 105.480469 222.503906 105.480469 179.023438 148.957031 C 135.546875 192.433594 135.546875 262.925781 179.023438 306.402344 C 222.503906 349.882812 292.996094 349.882812 336.472656 306.402344 C 379.949219 262.925781 379.949219 192.433594 336.472656 148.957031 Z M 336.472656 148.957031 " style=" stroke:none;fill-rule:nonzero;fill:rgb(29.019608%,47.843137%,100%);fill-opacity:1;" />
<path d="M 336.476562 148.957031 C 293.320312 105.800781 223.554688 105.488281 180.003906 148.003906 L 337.429688 305.429688 C 379.945312 261.878906 379.632812 192.113281 336.476562 148.957031 Z M 336.476562 148.957031 " style=" stroke:none;fill-rule:nonzero;fill:rgb(15.686275%,39.215686%,94.117647%);fill-opacity:1;" />
<path d="M 317.75 167.679688 C 284.613281 134.539062 230.886719 134.539062 197.746094 167.679688 C 164.609375 200.816406 164.609375 254.542969 197.746094 287.683594 C 230.886719 320.820312 284.613281 320.820312 317.75 287.683594 C 350.886719 254.542969 350.886719 200.816406 317.75 167.679688 Z M 317.75 167.679688 " style=" stroke:none;fill-rule:nonzero;fill:rgb(39.607843%,69.411765%,98.823529%);fill-opacity:1;" />
<path d="M 317.753906 167.679688 C 284.9375 134.863281 231.949219 134.5625 198.738281 166.738281 L 318.695312 286.691406 C 350.867188 253.484375 350.570312 200.492188 317.753906 167.679688 Z M 317.753906 167.679688 " style=" stroke:none;fill-rule:nonzero;fill:rgb(29.019608%,59.607843%,96.862745%);fill-opacity:1;" />
<path d="M 163 136.242188 L 163 77 L 103.757812 136.242188 Z M 163 136.242188 " style=" stroke:none;fill-rule:nonzero;fill:rgb(80.392157%,82.352941%,88.235294%);fill-opacity:1;" />
</g>
</svg>