<?xml version="1.0" encoding="iso-8859-1"?>
<!-- Generator: Adobe Illustrator 19.0.0, SVG Export Plug-In . SVG Version: 6.00 Build 0)  -->
<svg version="1.1" id="Capa_1" xmlns="http://www.w3.org/2000/svg" xmlns:xlink="http://www.w3.org/1999/xlink" x="0px" y="0px"
	 viewBox="0 0 512 512" style="enable-background:new 0 0 512 512;" xml:space="preserve">
<circle style="fill:#47D7FD;" cx="256" cy="256" r="256"/>
<path style="fill:#0FADF5;" d="M512,256c0-1.807-0.031-3.606-0.068-5.404L335.324,73.988L98.013,390.845L216.06,508.892
	C229.075,510.932,242.412,512,256,512C397.385,512,512,397.385,512,256z"/>
<rect x="98.01" y="232.2" style="fill:#1B56DB;" width="158.65" height="158.65"/>
<rect x="176.79" y="232.2" style="fill:#0E45A8;" width="79.875" height="158.65"/>
<rect x="255.34" y="232.2" style="fill:#EB0511;" width="158.65" height="158.65"/>
<rect x="335.71" y="232.2" style="fill:#C60517;" width="78.27" height="158.65"/>
<rect x="176.68" y="73.988" style="fill:#006C5D;" width="158.65" height="158.65"/>
<polygon style="fill:#005B4E;" points="335.324,73.988 255.318,73.992 255.318,232.641 335.324,232.637 "/>
<path style="fill:#FFFFFF;" d="M191.915,220.311l52.837-133.98h21.135l52.648,133.98h-27.551l-12.266-33.4h-46.987l-12.266,33.4
	H191.915z M255.319,114.448l-19.248,54.158h37.93L255.319,114.448z"/>
<polygon style="fill:#E0E0E0;" points="265.886,86.331 255.317,86.331 255.319,114.448 274.001,168.605 255.31,168.605 
	255.31,186.91 278.718,186.91 290.984,220.311 318.535,220.311 "/>
<path style="fill:#FFFFFF;" d="M237.44,343.778c0,5.661-1.132,10.632-3.397,14.908c-2.264,4.278-5.378,7.863-9.341,10.756
	c-3.962,2.896-8.556,5.095-13.775,6.604c-5.222,1.51-10.789,2.265-16.7,2.265h-64.726v-133.98h71.708
	c4.653,0,8.869,1.009,12.644,3.02c3.774,2.014,6.982,4.623,9.624,7.831c2.642,3.208,4.686,6.858,6.133,10.945
	c1.445,4.09,2.17,8.208,2.17,12.36c0,6.542-1.637,12.675-4.906,18.398c-3.273,5.726-8.052,9.972-14.342,12.737
	c7.672,2.265,13.743,6.322,18.21,12.172C235.205,327.644,237.44,334.974,237.44,343.778z M155.542,266.598v33.778h34.721
	c4.402,0,8.144-1.51,11.228-4.529c3.081-3.019,4.624-7.17,4.624-12.454c0-5.157-1.416-9.247-4.246-12.266
	c-2.831-3.019-6.322-4.529-10.473-4.529H155.542z M211.21,338.872c0-2.389-0.41-4.686-1.227-6.888
	c-0.82-2.2-1.919-4.119-3.302-5.756c-1.386-1.633-3.02-2.925-4.906-3.868c-1.887-0.943-3.963-1.416-6.228-1.416h-40.005v35.288
	h38.684c2.388,0,4.624-0.439,6.699-1.321c2.076-0.878,3.868-2.105,5.378-3.68c1.51-1.571,2.704-3.426,3.585-5.567
	C210.768,343.527,211.21,341.263,211.21,338.872z"/>
<path style="fill:#E0E0E0;" d="M230.741,321.794c-4.467-5.85-10.538-9.907-18.21-12.172c6.29-2.766,11.069-7.011,14.342-12.737
	c3.27-5.723,4.906-11.856,4.906-18.398c0-4.152-0.726-8.271-2.17-12.36c-1.447-4.086-3.491-7.737-6.133-10.945
	c-2.642-3.208-5.85-5.817-9.624-7.831c-3.774-2.011-7.991-3.02-12.644-3.02h-24.423v22.267h14.61c4.151,0,7.643,1.51,10.473,4.529
	c2.831,3.02,4.246,7.109,4.246,12.266c0,5.284-1.542,9.435-4.624,12.454c-3.084,3.02-6.826,4.529-11.228,4.529h-13.478v20.568
	h18.762c2.265,0,4.34,0.472,6.228,1.416c1.887,0.943,3.521,2.235,4.906,3.868c1.383,1.637,2.482,3.556,3.302,5.756
	c0.817,2.202,1.227,4.499,1.227,6.888c0,2.391-0.442,4.656-1.321,6.793c-0.882,2.141-2.076,3.996-3.585,5.567
	c-1.51,1.575-3.302,2.801-5.378,3.68c-2.076,0.882-4.311,1.321-6.699,1.321h-17.441v22.078h17.441c5.912,0,11.479-0.755,16.7-2.265
	c5.219-1.509,9.813-3.709,13.775-6.604c3.963-2.893,7.077-6.478,9.341-10.756c2.265-4.275,3.397-9.247,3.397-14.908
	C237.44,334.974,235.205,327.644,230.741,321.794z"/>
<path style="fill:#FFFFFF;" d="M274.242,310.377c0-8.176,1.445-16.258,4.34-24.248c2.892-7.988,7.076-15.126,12.549-21.418
	c5.472-6.29,12.171-11.384,20.097-15.285c7.926-3.898,16.983-5.85,27.173-5.85c11.95,0,22.297,2.707,31.042,8.114
	c8.742,5.41,15.19,12.454,19.342,21.135L368.782,286.6c-1.51-3.774-3.461-6.95-5.85-9.53c-2.391-2.577-5.001-4.623-7.832-6.133
	s-5.755-2.609-8.774-3.302c-3.02-0.69-5.915-1.038-8.681-1.038c-6.165,0-11.576,1.321-16.229,3.963
	c-4.656,2.642-8.524,6.071-11.605,10.284c-3.084,4.217-5.411,8.996-6.982,14.342c-1.574,5.349-2.358,10.662-2.358,15.945
	c0,5.915,0.911,11.605,2.736,17.078c1.822,5.473,4.402,10.285,7.737,14.436c3.332,4.151,7.327,7.486,11.983,10.001
	c4.653,2.518,9.748,3.774,15.285,3.774c2.893,0,5.85-0.377,8.869-1.132c3.019-0.755,5.944-1.949,8.774-3.585
	c2.831-1.633,5.44-3.742,7.832-6.321c2.388-2.577,4.34-5.691,5.85-9.341l21.324,12.266c-2.014,5.033-4.939,9.468-8.775,13.304
	c-3.839,3.839-8.208,7.076-13.115,9.718c-4.906,2.642-10.066,4.656-15.474,6.039c-5.41,1.383-10.756,2.076-16.04,2.076
	c-9.312,0-17.833-2.011-25.569-6.039c-7.737-4.025-14.406-9.276-20.003-15.757c-5.599-6.478-9.939-13.837-13.021-22.078
	C275.781,327.331,274.242,318.934,274.242,310.377z"/>
<g>
	<path style="fill:#E0E0E0;" d="M337.646,266.598c2.766,0,5.661,0.348,8.681,1.038c3.019,0.693,5.944,1.792,8.774,3.302
		s5.44,3.556,7.832,6.133c2.388,2.58,4.34,5.755,5.85,9.53l20.003-13.775c-4.152-8.681-10.6-15.725-19.342-21.135
		c-8.745-5.408-19.092-8.114-31.042-8.114c-0.908,0-1.797,0.034-2.687,0.065v23.009
		C336.351,266.621,336.992,266.598,337.646,266.598z"/>
	<path style="fill:#E0E0E0;" d="M369.538,336.041c-1.51,3.65-3.461,6.764-5.85,9.341c-2.392,2.58-5.001,4.688-7.832,6.321
		c-2.831,1.637-5.755,2.831-8.774,3.585c-3.02,0.755-5.977,1.132-8.869,1.132c-0.844,0-1.675-0.039-2.499-0.098v23.072
		c0.581,0.016,1.156,0.047,1.744,0.047c5.284,0,10.629-0.693,16.04-2.076c5.408-1.383,10.568-3.397,15.474-6.039
		s9.276-5.879,13.115-9.718c3.836-3.836,6.761-8.271,8.775-13.304L369.538,336.041z"/>
</g>
<g>
</g>
<g>
</g>
<g>
</g>
<g>
</g>
<g>
</g>
<g>
</g>
<g>
</g>
<g>
</g>
<g>
</g>
<g>
</g>
<g>
</g>
<g>
</g>
<g>
</g>
<g>
</g>
<g>
</g>
</svg>
