<svg height="512pt" viewBox="0 0 512 512" width="512pt" xmlns="http://www.w3.org/2000/svg"><path d="m512 256c0 141.386719-114.613281 256-256 256s-256-114.613281-256-256 114.613281-256 256-256 256 114.613281 256 256zm0 0" fill="#185f8d"/><path d="m512 256c0-2.179688-.027344-4.351562-.082031-6.519531l-117.253907-117.25-86-16.230469-208.664062 208 11.175781 61.929688 125.335938 125.335937c6.429687.484375 12.929687.734375 19.488281.734375 141.386719 0 256-114.613281 256-256zm0 0" fill="#082947"/><path d="m111.175781 385.929688 2.480469-12.410157 12.414062-2.484375c17.796876 17.796875 46.75 17.796875 64.546876 0l134.535156-134.535156c9.582031-9.585938 9.582031-25.175781 0-34.757812l2.484375-12.414063 12.414062-2.480469c17.792969 17.792969 17.792969 46.75 0 64.546875l-134.539062 134.535157c-26.007813 26.011718-68.328125 26.011718-94.335938 0zm0 0" fill="#77c0bc"/><path d="m251.703125 399.324219-14.898437-14.894531 142.964843-142.964844c26.011719-26.011719 26.011719-68.332032 0-94.339844l2.484375-12.414062 12.414063-2.480469c34.222656 34.222656 34.222656 89.90625 0 124.128906zm0 0" fill="#77c0bc"/><g fill="#98d9d5"><path d="m172.257812 319.882812-14.894531-14.898437 118.136719-118.136719c17.796875-17.796875 46.753906-17.796875 64.546875 0l-14.894531 14.894532c-9.582032-9.582032-25.175782-9.582032-34.757813 0zm0 0"/><path d="m111.175781 385.929688c-26.011719-26.007813-26.011719-68.328126 0-94.335938l159.359375-159.363281c34.222656-34.222657 89.910156-34.222657 124.132813 0l-14.898438 14.894531c-26.007812-26.007812-68.328125-26.007812-94.335937 0l-159.363282 159.363281c-17.796874 17.792969-17.796874 46.75 0 64.546875zm0 0"/></g></svg>