<svg height="512pt" viewBox="0 0 512 512" width="512pt" xmlns="http://www.w3.org/2000/svg"><path d="m512 256c0 141.386719-114.613281 256-256 256s-256-114.613281-256-256 114.613281-256 256-256 256 114.613281 256 256zm0 0" fill="#ff9d49"/><path d="m506.101562 310.789062-189.003906-189-106.847656-6.039062-16.289062 60.355469 36.648437 36.785156 1.390625 54.628906-99.113281 144.8125 98.484375 98.484375c8.105468.773438 16.320312 1.183594 24.628906 1.183594 122.574219 0 225.011719-86.15625 250.101562-201.210938zm0 0" fill="#ff6e1d"/><path d="m379.113281 267.519531-13.167969 105.320313-129.691406 13.164062 19.746094-118.484375zm0 0" fill="#082947"/><path d="m256 267.519531v118.484375l-109.945312-13.164062-13.167969-105.320313zm0 0" fill="#274b6d"/><path d="m379.113281 372.839844v39.492187h-61.464843l-9.875-13.164062-9.871094 13.164062h-41.902344l-19.746094-19.746093 19.746094-19.746094zm0 0" fill="#274b6d"/><path d="m256 372.839844v39.492187h-41.898438l-9.875-13.164062-9.875 13.164062h-61.464843v-39.492187zm0 0" fill="#185f8d"/><path d="m297.746094 194.3125c5.285156-4.203125 13.273437-10.550781 20.289062-18.203125 7.234375-7.894531 11.058594-17.105469 11.058594-26.640625 0-27.925781-32.105469-49.800781-73.09375-49.800781l-13.164062 9.871093 13.164062 9.875c15.046875 0 29.046875 3.613282 39.429688 10.167969 5.199218 3.28125 13.917968 10.230469 13.917968 19.886719 0 4.574219-1.976562 9.050781-5.871094 13.300781-5.960937 6.5-13.214843 12.265625-18.023437 16.085938-11.363281 9.027343-18.222656 27.285156-15.609375 41.5625l28.054688 153.316406v38.601563h19.75v-40.394532l-28.378907-155.078125c-1.324219-7.226562 2.714844-17.976562 8.476563-22.550781zm0 0" fill="#77c0bc"/><path d="m214.101562 412.332031h-19.75v-40.390625l28.378907-155.078125c1.324219-7.226562-2.714844-17.976562-8.46875-22.546875-5.289063-4.203125-13.285157-10.554687-20.300781-18.210937-7.230469-7.894531-11.054688-17.105469-11.054688-26.636719 0-27.925781 32.105469-49.800781 73.09375-49.800781v19.746093c-15.046875 0-29.046875 3.613282-39.429688 10.167969-5.199218 3.28125-13.917968 10.230469-13.917968 19.886719 0 4.574219 1.976562 9.046875 5.867187 13.296875 5.960938 6.503906 13.222657 12.273437 18.023438 16.085937 11.367187 9.03125 18.222656 27.289063 15.609375 41.566407l-28.050782 153.316406zm0 0" fill="#98d9d5"/></svg>