<?xml version="1.0" encoding="iso-8859-1"?>
<!-- Generator: Adobe Illustrator 19.0.0, SVG Export Plug-In . SVG Version: 6.00 Build 0)  -->
<svg version="1.1" id="Capa_1" xmlns="http://www.w3.org/2000/svg" xmlns:xlink="http://www.w3.org/1999/xlink" x="0px" y="0px"
	 viewBox="0 0 512 512" style="enable-background:new 0 0 512 512;" xml:space="preserve">
<circle style="fill:#1B56DB;" cx="256" cy="256" r="256"/>
<path style="fill:#1149AA;" d="M512,256c0-6.344-0.24-12.632-0.693-18.86L333.5,59.333l-8.791,22.308h-94.902L207.5,59.333
	l-10.476,96.185l46.767,92.66L178.5,452.667l58.64,58.64C243.368,511.76,249.656,512,256,512C397.385,512,512,397.385,512,256z"/>
<rect x="194.67" y="71.64" style="fill:#FE6D00;" width="123" height="20"/>
<rect x="255.95" y="71.64" style="fill:#E55100;" width="61.714" height="20"/>
<rect x="207" y="126.97" style="fill:#C5FE00;" width="98.33" height="20"/>
<rect x="255.95" y="126.97" style="fill:#ADE900;" width="49.38" height="20"/>
<rect x="222" y="182.31" style="fill:#1DE8B5;" width="68.33" height="20"/>
<rect x="255.95" y="182.31" style="fill:#00BEA4;" width="34.381" height="20"/>
<rect x="194.33" y="420.36" style="fill:#FE6D00;" width="123" height="20"/>
<rect x="255.95" y="420.36" style="fill:#E55100;" width="61.38" height="20"/>
<rect x="206.67" y="365.02" style="fill:#C5FE00;" width="98.33" height="20"/>
<rect x="255.95" y="365.02" style="fill:#ADE900;" width="49.05" height="20"/>
<rect x="221.67" y="309.69" style="fill:#1DE8B5;" width="68.33" height="20"/>
<rect x="255.95" y="309.69" style="fill:#00BEA4;" width="34.05" height="20"/>
<path style="fill:#FEC007;" d="M333.5,59.333h-29c0,81.667-22.218,127.124-48.5,169.569C229.718,186.457,207.5,141,207.5,59.333h-29
	c0,97.255,29.836,148.872,60.289,196.667c-30.453,47.794-60.289,99.411-60.289,196.667h29c0-81.667,22.218-127.124,48.5-169.569
	c26.282,42.446,48.5,87.903,48.5,169.569h29c0-97.255-29.836-148.872-60.289-196.667C303.664,208.206,333.5,156.589,333.5,59.333z"
	/>
<path style="fill:#FEB200;" d="M256,283.097c26.282,42.446,48.5,87.903,48.5,169.569h29c0-97.255-29.836-148.872-60.289-196.667
	c30.453-47.794,60.289-99.411,60.289-196.667h-29c0,81.667-22.218,127.124-48.5,169.569V283.097z"/>
<g>
</g>
<g>
</g>
<g>
</g>
<g>
</g>
<g>
</g>
<g>
</g>
<g>
</g>
<g>
</g>
<g>
</g>
<g>
</g>
<g>
</g>
<g>
</g>
<g>
</g>
<g>
</g>
<g>
</g>
</svg>
