<svg xmlns="http://www.w3.org/2000/svg" height="512pt" version="1.1" viewBox="0 0 512 512" width="512pt">
<g id="surface1">
<path d="M 512 256 C 512 397.386719 397.386719 512 256 512 C 114.613281 512 0 397.386719 0 256 C 0 114.613281 114.613281 0 256 0 C 397.386719 0 512 114.613281 512 256 Z M 512 256 " style=" stroke:none;fill-rule:nonzero;fill:rgb(3.529412%,80.784314%,40.392157%);fill-opacity:1;" />
<path d="M 512 256 C 512 233.714844 509.144531 212.09375 503.792969 191.480469 L 435 122.6875 L 77 389.3125 L 191.480469 503.792969 C 212.09375 509.144531 233.714844 512 256 512 C 397.386719 512 512 397.386719 512 256 Z M 512 256 " style=" stroke:none;fill-rule:nonzero;fill:rgb(10.196078%,67.843137%,36.078431%);fill-opacity:1;" />
<path d="M 77 122.6875 L 435 122.6875 L 435 389.3125 L 77 389.3125 Z M 77 122.6875 " style=" stroke:none;fill-rule:nonzero;fill:rgb(100%,100%,100%);fill-opacity:1;" />
<path d="M 256.355469 122.6875 L 435 122.6875 L 435 389.3125 L 256.355469 389.3125 Z M 256.355469 122.6875 " style=" stroke:none;fill-rule:nonzero;fill:rgb(91.372549%,92.941176%,96.078431%);fill-opacity:1;" />
<path d="M 77 122.6875 L 435 122.6875 L 435 159.121094 L 77 159.121094 Z M 77 122.6875 " style=" stroke:none;fill-rule:nonzero;fill:rgb(86.27451%,88.235294%,92.156863%);fill-opacity:1;" />
<path d="M 256.355469 122.6875 L 435 122.6875 L 435 159.121094 L 256.355469 159.121094 Z M 256.355469 122.6875 " style=" stroke:none;fill-rule:nonzero;fill:rgb(80.392157%,82.352941%,88.235294%);fill-opacity:1;" />
<path d="M 106.042969 140.90625 C 106.042969 146.464844 101.535156 150.972656 95.976562 150.972656 C 90.417969 150.972656 85.910156 146.464844 85.910156 140.90625 C 85.910156 135.34375 90.417969 130.839844 95.976562 130.839844 C 101.535156 130.839844 106.042969 135.34375 106.042969 140.90625 Z M 106.042969 140.90625 " style=" stroke:none;fill-rule:nonzero;fill:rgb(99.607843%,41.568627%,8.627451%);fill-opacity:1;" />
<path d="M 133.902344 140.90625 C 133.902344 146.464844 129.394531 150.972656 123.835938 150.972656 C 118.277344 150.972656 113.769531 146.464844 113.769531 140.90625 C 113.769531 135.34375 118.277344 130.839844 123.835938 130.839844 C 129.394531 130.839844 133.902344 135.34375 133.902344 140.90625 Z M 133.902344 140.90625 " style=" stroke:none;fill-rule:nonzero;fill:rgb(100%,63.921569%,0%);fill-opacity:1;" />
<path d="M 162.1875 140.90625 C 162.1875 146.464844 157.683594 150.972656 152.121094 150.972656 C 146.5625 150.972656 142.058594 146.464844 142.058594 140.90625 C 142.058594 135.34375 146.5625 130.839844 152.121094 130.839844 C 157.683594 130.839844 162.1875 135.34375 162.1875 140.90625 Z M 162.1875 140.90625 " style=" stroke:none;fill-rule:nonzero;fill:rgb(10.196078%,67.843137%,36.078431%);fill-opacity:1;" />
<path d="M 405.15625 298.203125 L 366.785156 269.0625 L 328.414062 298.203125 L 328.414062 159.121094 L 405.15625 159.121094 Z M 405.15625 298.203125 " style=" stroke:none;fill-rule:nonzero;fill:rgb(99.607843%,41.568627%,8.627451%);fill-opacity:1;" />
<path d="M 366.75 159.121094 L 366.75 269.089844 L 366.785156 269.0625 L 405.15625 298.203125 L 405.15625 159.121094 Z M 366.75 159.121094 " style=" stroke:none;fill-rule:nonzero;fill:rgb(94.901961%,27.058824%,0%);fill-opacity:1;" />
<path d="M 102.980469 201.792969 L 284.117188 201.792969 L 284.117188 217.261719 L 102.980469 217.261719 Z M 102.980469 201.792969 " style=" stroke:none;fill-rule:nonzero;fill:rgb(29.019608%,47.843137%,100%);fill-opacity:1;" />
<path d="M 192.070312 201.792969 L 284.117188 201.792969 L 284.117188 217.261719 L 192.070312 217.261719 Z M 192.070312 201.792969 " style=" stroke:none;fill-rule:nonzero;fill:rgb(15.686275%,39.215686%,94.117647%);fill-opacity:1;" />
<path d="M 102.980469 240.871094 L 284.117188 240.871094 L 284.117188 256.339844 L 102.980469 256.339844 Z M 102.980469 240.871094 " style=" stroke:none;fill-rule:nonzero;fill:rgb(86.27451%,88.235294%,92.156863%);fill-opacity:1;" />
<path d="M 192.070312 240.871094 L 284.117188 240.871094 L 284.117188 256.339844 L 192.070312 256.339844 Z M 192.070312 240.871094 " style=" stroke:none;fill-rule:nonzero;fill:rgb(80.392157%,82.352941%,88.235294%);fill-opacity:1;" />
<path d="M 102.980469 279.953125 L 284.117188 279.953125 L 284.117188 295.421875 L 102.980469 295.421875 Z M 102.980469 279.953125 " style=" stroke:none;fill-rule:nonzero;fill:rgb(86.27451%,88.235294%,92.156863%);fill-opacity:1;" />
<path d="M 192.070312 279.953125 L 284.117188 279.953125 L 284.117188 295.421875 L 192.070312 295.421875 Z M 192.070312 279.953125 " style=" stroke:none;fill-rule:nonzero;fill:rgb(80.392157%,82.352941%,88.235294%);fill-opacity:1;" />
<path d="M 102.980469 319.03125 L 284.117188 319.03125 L 284.117188 334.5 L 102.980469 334.5 Z M 102.980469 319.03125 " style=" stroke:none;fill-rule:nonzero;fill:rgb(86.27451%,88.235294%,92.156863%);fill-opacity:1;" />
<path d="M 192.070312 319.03125 L 284.117188 319.03125 L 284.117188 334.5 L 192.070312 334.5 Z M 192.070312 319.03125 " style=" stroke:none;fill-rule:nonzero;fill:rgb(80.392157%,82.352941%,88.235294%);fill-opacity:1;" />
</g>
</svg>