<svg xmlns="http://www.w3.org/2000/svg" height="512pt" version="1.1" viewBox="0 0 512 512" width="512pt">
<g id="surface1">
<path d="M 512 256 C 512 397.386719 397.386719 512 256 512 C 114.613281 512 0 397.386719 0 256 C 0 114.613281 114.613281 0 256 0 C 397.386719 0 512 114.613281 512 256 Z M 512 256 " style=" stroke:none;fill-rule:nonzero;fill:rgb(0%,92.941176%,100%);fill-opacity:1;" />
<path d="M 273.378906 511.398438 C 404.359375 502.617188 508.355469 395.335938 511.902344 262.984375 L 371.289062 122.371094 L 363.261719 145.90625 L 284.035156 66.679688 L 276.222656 119.523438 L 214.40625 57.707031 L 199.53125 198.996094 L 157.714844 210.320312 L 273.789062 326.394531 L 231.578125 469.601562 Z M 273.378906 511.398438 " style=" stroke:none;fill-rule:nonzero;fill:rgb(2.745098%,74.509804%,90.980392%);fill-opacity:1;" />
<path d="M 352.34375 168.21875 L 257.71875 469.601562 L 156.070312 101.621094 Z M 352.34375 168.21875 " style=" stroke:none;fill-rule:nonzero;fill:rgb(29.019608%,47.843137%,100%);fill-opacity:1;" />
<path d="M 352.34375 168.21875 L 255.761719 135.449219 L 255.761719 462.515625 L 257.71875 469.601562 Z M 352.34375 168.21875 " style=" stroke:none;fill-rule:nonzero;fill:rgb(15.686275%,39.215686%,94.117647%);fill-opacity:1;" />
<path d="M 244.878906 176.609375 C 241.246094 176.609375 236.222656 177.476562 230.9375 179.011719 C 232.472656 173.726562 233.339844 168.703125 233.339844 165.070312 C 233.339844 152.707031 223.316406 142.683594 210.949219 142.683594 C 198.585938 142.683594 188.5625 152.707031 188.5625 165.070312 C 188.5625 168.703125 189.429688 173.726562 190.964844 179.011719 C 185.679688 177.476562 180.65625 176.609375 177.023438 176.609375 C 164.660156 176.609375 154.636719 186.632812 154.636719 198.996094 C 154.636719 211.359375 164.660156 221.382812 177.023438 221.382812 C 180.65625 221.382812 185.679688 220.519531 190.964844 218.984375 C 189.429688 224.265625 188.5625 229.292969 188.5625 232.925781 C 188.5625 245.289062 198.585938 255.3125 210.949219 255.3125 C 223.316406 255.3125 233.339844 245.289062 233.339844 232.925781 C 233.339844 229.292969 232.472656 224.265625 230.9375 218.984375 C 236.222656 220.519531 241.246094 221.382812 244.878906 221.382812 C 257.242188 221.382812 267.265625 211.359375 267.265625 198.996094 C 267.265625 186.632812 257.242188 176.609375 244.878906 176.609375 Z M 244.878906 176.609375 " style=" stroke:none;fill-rule:nonzero;fill:rgb(100%,100%,100%);fill-opacity:1;" />
<path d="M 234.078125 198.996094 C 234.078125 211.769531 223.726562 222.125 210.949219 222.125 C 198.175781 222.125 187.820312 211.769531 187.820312 198.996094 C 187.820312 186.222656 198.175781 175.867188 210.949219 175.867188 C 223.726562 175.867188 234.078125 186.222656 234.078125 198.996094 Z M 234.078125 198.996094 " style=" stroke:none;fill-rule:nonzero;fill:rgb(100%,83.137255%,0%);fill-opacity:1;" />
<path d="M 226.574219 76.761719 C 223.679688 76.761719 219.671875 77.449219 215.460938 78.675781 C 216.683594 74.460938 217.375 70.457031 217.375 67.5625 C 217.375 57.707031 209.386719 49.714844 199.527344 49.714844 C 189.671875 49.714844 181.683594 57.707031 181.683594 67.5625 C 181.683594 70.457031 182.371094 74.464844 183.597656 78.675781 C 179.382812 77.449219 175.378906 76.761719 172.484375 76.761719 C 162.628906 76.761719 154.636719 84.75 154.636719 94.605469 C 154.636719 104.464844 162.628906 112.453125 172.484375 112.453125 C 175.378906 112.453125 179.386719 111.761719 183.597656 110.539062 C 182.371094 114.753906 181.683594 118.757812 181.683594 121.652344 C 181.683594 131.507812 189.671875 139.496094 199.527344 139.496094 C 209.386719 139.496094 217.375 131.507812 217.375 121.652344 C 217.375 118.757812 216.683594 114.75 215.460938 110.539062 C 219.675781 111.761719 223.679688 112.453125 226.574219 112.453125 C 236.429688 112.453125 244.421875 104.464844 244.421875 94.605469 C 244.421875 84.75 236.429688 76.761719 226.574219 76.761719 Z M 226.574219 76.761719 " style=" stroke:none;fill-rule:nonzero;fill:rgb(100%,100%,100%);fill-opacity:1;" />
<path d="M 217.964844 94.605469 C 217.964844 104.789062 209.710938 113.042969 199.527344 113.042969 C 189.347656 113.042969 181.09375 104.789062 181.09375 94.605469 C 181.09375 84.425781 189.347656 76.171875 199.527344 76.171875 C 209.710938 76.171875 217.964844 84.425781 217.964844 94.605469 Z M 217.964844 94.605469 " style=" stroke:none;fill-rule:nonzero;fill:rgb(100%,83.137255%,0%);fill-opacity:1;" />
<path d="M 307.140625 102.691406 C 301.910156 102.691406 294.675781 103.9375 287.070312 106.148438 C 289.277344 98.539062 290.527344 91.304688 290.527344 86.074219 C 290.527344 68.273438 276.097656 53.84375 258.296875 53.84375 C 240.492188 53.84375 226.0625 68.273438 226.0625 86.074219 C 226.0625 91.304688 227.3125 98.539062 229.519531 106.148438 C 221.914062 103.9375 214.679688 102.691406 209.449219 102.691406 C 191.648438 102.691406 177.21875 117.121094 177.21875 134.921875 C 177.21875 152.722656 191.648438 167.152344 209.449219 167.152344 C 214.679688 167.152344 221.914062 165.90625 229.519531 163.695312 C 227.3125 171.304688 226.0625 178.535156 226.0625 183.765625 C 226.0625 201.566406 240.492188 215.996094 258.296875 215.996094 C 276.097656 215.996094 290.527344 201.566406 290.527344 183.765625 C 290.527344 178.535156 289.277344 171.304688 287.070312 163.695312 C 294.675781 165.90625 301.910156 167.152344 307.140625 167.152344 C 324.941406 167.152344 339.371094 152.722656 339.371094 134.921875 C 339.371094 117.121094 324.941406 102.691406 307.140625 102.691406 Z M 307.140625 102.691406 " style=" stroke:none;fill-rule:nonzero;fill:rgb(98.039216%,36.470588%,5.882353%);fill-opacity:1;" />
<path d="M 307.140625 102.691406 C 301.910156 102.691406 294.675781 103.9375 287.070312 106.148438 C 289.28125 98.539062 290.527344 91.304688 290.527344 86.074219 C 290.527344 68.273438 276.097656 53.84375 258.296875 53.84375 C 257.441406 53.84375 256.597656 53.886719 255.761719 53.953125 L 255.761719 215.886719 C 256.597656 215.953125 257.441406 215.996094 258.296875 215.996094 C 276.097656 215.996094 290.527344 201.566406 290.527344 183.765625 C 290.527344 178.535156 289.277344 171.300781 287.066406 163.691406 C 294.675781 165.902344 301.910156 167.148438 307.140625 167.148438 C 324.941406 167.148438 339.371094 152.71875 339.371094 134.921875 C 339.371094 117.121094 324.941406 102.691406 307.140625 102.691406 Z M 307.140625 102.691406 " style=" stroke:none;fill-rule:nonzero;fill:rgb(93.72549%,21.960784%,0%);fill-opacity:1;" />
<path d="M 291.59375 134.921875 C 291.59375 153.3125 276.6875 168.21875 258.296875 168.21875 C 239.90625 168.21875 224.996094 153.3125 224.996094 134.921875 C 224.996094 116.53125 239.90625 101.621094 258.296875 101.621094 C 276.6875 101.621094 291.59375 116.53125 291.59375 134.921875 Z M 291.59375 134.921875 " style=" stroke:none;fill-rule:nonzero;fill:rgb(100%,58.431373%,0%);fill-opacity:1;" />
<path d="M 258.296875 101.621094 C 257.441406 101.621094 256.597656 101.664062 255.761719 101.726562 L 255.761719 168.113281 C 256.597656 168.175781 257.441406 168.21875 258.296875 168.21875 C 276.6875 168.21875 291.59375 153.3125 291.59375 134.921875 C 291.59375 116.53125 276.6875 101.621094 258.296875 101.621094 Z M 258.296875 101.621094 " style=" stroke:none;fill-rule:nonzero;fill:rgb(99.607843%,50.980392%,1.960784%);fill-opacity:1;" />
<path d="M 386.269531 145.832031 C 382.636719 145.832031 377.613281 146.699219 372.328125 148.234375 C 373.863281 142.949219 374.730469 137.925781 374.730469 134.292969 C 374.730469 121.929688 364.707031 111.90625 352.34375 111.90625 C 339.976562 111.90625 329.953125 121.929688 329.953125 134.292969 C 329.953125 137.925781 330.820312 142.949219 332.355469 148.234375 C 327.070312 146.699219 322.046875 145.832031 318.414062 145.832031 C 306.050781 145.832031 296.027344 155.855469 296.027344 168.21875 C 296.027344 180.582031 306.050781 190.605469 318.414062 190.605469 C 322.046875 190.605469 327.070312 189.738281 332.355469 188.203125 C 330.820312 193.488281 329.953125 198.515625 329.953125 202.144531 C 329.953125 214.511719 339.976562 224.53125 352.34375 224.53125 C 364.707031 224.53125 374.730469 214.511719 374.730469 202.144531 C 374.730469 198.515625 373.863281 193.488281 372.328125 188.203125 C 377.613281 189.738281 382.636719 190.605469 386.269531 190.605469 C 398.632812 190.605469 408.65625 180.582031 408.65625 168.21875 C 408.65625 155.855469 398.632812 145.832031 386.269531 145.832031 Z M 386.269531 145.832031 " style=" stroke:none;fill-rule:nonzero;fill:rgb(94.901961%,96.470588%,98.823529%);fill-opacity:1;" />
<path d="M 375.472656 168.21875 C 375.472656 180.992188 365.117188 191.347656 352.34375 191.347656 C 339.566406 191.347656 329.214844 180.992188 329.214844 168.21875 C 329.214844 155.445312 339.566406 145.089844 352.34375 145.089844 C 365.117188 145.089844 375.472656 155.445312 375.472656 168.21875 Z M 375.472656 168.21875 " style=" stroke:none;fill-rule:nonzero;fill:rgb(99.215686%,72.941176%,7.058824%);fill-opacity:1;" />
<path d="M 386.269531 190.605469 L 177.222656 233.109375 L 231.578125 392.804688 L 231.578125 469.601562 L 291.59375 469.601562 L 291.59375 396.082031 Z M 386.269531 190.605469 " style=" stroke:none;fill-rule:nonzero;fill:rgb(15.686275%,39.215686%,94.117647%);fill-opacity:1;" />
<path d="M 255.761719 217.140625 L 255.761719 469.601562 L 291.59375 469.601562 L 291.59375 396.082031 L 386.269531 190.605469 Z M 255.761719 217.140625 " style=" stroke:none;fill-rule:nonzero;fill:rgb(0%,32.54902%,74.901961%);fill-opacity:1;" />
</g>
</svg>