<svg height="512pt" viewBox="0 0 512 512" width="512pt" xmlns="http://www.w3.org/2000/svg"><path d="m512 256c0 141.386719-114.613281 256-256 256s-256-114.613281-256-256 114.613281-256 256-256 256 114.613281 256 256zm0 0" fill="#fdbf00"/><path d="m387.285156 135.949219-65.085937-65.082031-48.082031 48.082031 65.082031 65.085937-45.082031 45.082032-93.625-93.625-114.707032 114.707031 88.457032 88.460937-72.625 72.625 93.382812 93.382813c19.550781 4.777343 39.976562 7.332031 61 7.332031 141.386719 0 256-114.613281 256-256 0-1.976562-.03125-3.941406-.074219-5.90625l-119.390625-119.394531zm0 0" fill="#ff9f00"/><path d="m324.632812 86.109375c-7.855468 7.882813-52.015624 52.3125-59.453124 59.457031h-18.355469c-7.277344-7.277344 6.9375 6.9375-54.269531-54.269531-1.195313-10.175781-2.59375-20.550781-2.59375-20.550781h132.078124zm0 0" fill="#d3d3d8"/><path d="m265.179688 145.566406h-9.179688v-74.820312h66.039062l2.59375 15.363281c-7.855468 7.882813-52.015624 52.3125-59.453124 59.457031zm0 0" fill="#babac0"/><path d="m146.265625 114.242188c-24.9375 8.378906-43.492187 30.125-47.285156 56.460937l-13.234375 79.609375h80.472656v-127.152344zm0 0" fill="#0fa9dd"/><path d="m413.019531 170.703125c-3.792969-26.335937-22.347656-48.082031-47.285156-56.460937l-19.953125 7.71875v128.351562h80.472656zm0 0" fill="#0d91bd"/><path d="m410.425781 411.253906h-308.851562l44.691406-113.058594 28.332031-11.574218h152.628906l38.507813 11.574218zm0 0" fill="#0fa9dd"/><path d="m410.425781 411.253906h-154.425781v-124.632812h71.226562l38.507813 11.574218zm0 0" fill="#0d91bd"/><path d="m307.875 290.214844h-103.75l-41.898438 121.039062h187.546876zm0 0" fill="#2fc0f0"/><path d="m349.773438 411.253906h-93.773438v-121.039062h51.875zm0 0" fill="#0fa9dd"/><path d="m365.734375 114.242188v183.953124h-219.46875v-183.953124c2.59375-1 5.1875-1.597657 7.980469-2.195313 3.988281-.800781 13.367187-1.398437 13.964844-1.398437h12.171874l37.707032 37.710937 37.910156-18.957031 37.910156 18.957031 37.707032-37.710937h12.171874c.597657 0 9.976563.597656 13.964844 1.398437 2.792969.597656 5.386719 1.195313 7.980469 2.195313zm0 0" fill="#e7e7e7"/><path d="m365.734375 114.242188v183.953124h-109.734375v-168.792968l37.910156 18.957031 37.707032-37.710937h12.171874c.597657 0 9.976563.597656 13.964844 1.398437 2.792969.597656 5.386719 1.195313 7.980469 2.195313zm0 0" fill="#d3d3d8"/><path d="m186.167969 190.457031h39.902343v19.949219h-39.902343zm0 0" fill="#2fc0f0"/><path d="m341.992188 110.648438-44.09375 62.050781-41.898438-20.949219-41.898438 20.949219-44.09375-62.050781 19.953126-39.902344 66.039062 55.863281 66.039062-55.863281zm0 0" fill="#2fc0f0"/><path d="m297.898438 172.699219-41.898438-20.949219v-25.140625l66.039062-55.863281 19.953126 39.902344zm0 0" fill="#0fa9dd"/></svg>