<?xml version="1.0" encoding="iso-8859-1"?>
<!-- Generator: Adobe Illustrator 19.0.0, SVG Export Plug-In . SVG Version: 6.00 Build 0)  -->
<svg xmlns="http://www.w3.org/2000/svg" xmlns:xlink="http://www.w3.org/1999/xlink" version="1.1" id="Capa_1" x="0px" y="0px" viewBox="0 0 512 512" style="enable-background:new 0 0 512 512;" xml:space="preserve">
<circle style="fill:#F7DC4D;" cx="255.996" cy="255.996" r="255.996"/>
<path style="fill:#E5BF2B;" d="M511.195,235.639L378.093,102.538h-66.957v28.331l68.663,68.663l8.019,24.699  c-9.49-3.662-19.785-5.691-30.551-5.691c-11.799,0-23.037,2.425-33.26,6.783L201.22,102.536h-66.957L84.799,254.885  c-9.714,13.832-15.439,30.659-15.439,48.807c0,24.697,10.578,46.963,27.431,62.531l-0.057,0.057l145.339,145.339  C246.684,511.866,251.327,512,256,512c141.385,0,256-114.615,256-256C512,249.146,511.723,242.357,511.195,235.639z"/>
<polygon style="fill:#57565C;" points="97.012,309.011 70.065,300.262 134.264,102.538 201.221,102.538 201.221,130.869   154.852,130.869 "/>
<g>
	<polygon style="fill:#1D1D1F;" points="415.345,309.011 357.505,130.869 311.136,130.869 311.136,102.538 378.093,102.538    442.292,300.262  "/>
	<rect x="226.504" y="280.104" style="fill:#1D1D1F;" width="58.776" height="24.58"/>
</g>
<rect x="226.504" y="280.104" style="fill:#3E3E42;" width="29.504" height="24.58"/>
<circle style="fill:#BFE2E4;" cx="154.506" cy="303.697" r="72.859"/>
<path style="fill:#3E3E42;" d="M154.511,388.843c-46.952,0-85.151-38.199-85.151-85.15s38.199-85.15,85.151-85.15  c46.951,0,85.15,38.199,85.15,85.15S201.464,388.843,154.511,388.843z M154.511,243.121c-33.399,0-60.572,27.172-60.572,60.571  s27.172,60.571,60.572,60.571s60.571-27.172,60.571-60.571S187.911,243.121,154.511,243.121z"/>
<circle style="fill:#8ECECF;" cx="357.268" cy="303.697" r="72.859"/>
<path style="fill:#1D1D1F;" d="M357.268,388.843c-46.952,0-85.151-38.199-85.151-85.15s38.199-85.15,85.151-85.15  c46.952,0,85.15,38.199,85.15,85.15S404.219,388.843,357.268,388.843z M357.268,243.121c-33.399,0-60.572,27.172-60.572,60.571  s27.172,60.571,60.572,60.571c33.398,0,60.571-27.172,60.571-60.571S390.666,243.121,357.268,243.121z"/>
<g>
</g>
<g>
</g>
<g>
</g>
<g>
</g>
<g>
</g>
<g>
</g>
<g>
</g>
<g>
</g>
<g>
</g>
<g>
</g>
<g>
</g>
<g>
</g>
<g>
</g>
<g>
</g>
<g>
</g>
</svg>
