<svg height="512pt" viewBox="0 0 512 512" width="512pt" xmlns="http://www.w3.org/2000/svg"><path d="m512 256c0 141.386719-114.613281 256-256 256s-256-114.613281-256-256 114.613281-256 256-256 256 114.613281 256 256zm0 0" fill="#fdbf00"/><path d="m264.4375 236.011719-28.09375-28.097657-157.703125 157.703126 144.253906 144.253906c10.835938 1.402344 21.886719 2.128906 33.105469 2.128906 141.386719 0 256-114.613281 256-256 0-12.800781-.953125-25.375-2.765625-37.671875l-113.558594-113.558594zm0 0" fill="#ff9f00"/><path d="m328.714844 275.609375-90.050782-23.9375 165.085938-94.890625 32.695312 56.628906zm0 0" fill="#babac0"/><path d="m433.5 164.777344-177.5 102.007812-77.234375 44.03125-13.296875 7.628906-6.320312-7.628906-21.796876-26.375 7.628907-29.425781 111.019531-63.648437 114.070312-65.605469 41.632813 1.089843zm0 0" fill="#53433f"/><path d="m433.5 164.777344-177.5 102.007812v-75.417968l114.070312-65.605469 41.632813 1.089843zm0 0" fill="#3e322e"/><path d="m411.703125 126.851562-155.703125 89.585938-118.648438 68.003906-35.3125-42.9375.875-12.425781 153.085938-88.058594 75.925781-43.378906c25.9375-15.039063 59.289063-6.101563 74.328125 19.835937zm0 0" fill="#2fc0f0"/><path d="m124.492188 223.628906c-30.046876 0-54.492188 24.445313-54.492188 54.492188v32.695312l22.835938 21.796875h86.148437v-54.492187c0-30.046875-24.449219-54.492188-54.492187-54.492188zm0 0" fill="#d3d3d8"/><path d="m411.703125 126.851562-155.703125 89.585938v-75.417969l75.925781-43.378906c25.9375-15.039063 59.289063-6.101563 74.328125 19.835937zm0 0" fill="#0fa9dd"/><path d="m70 310.816406v32.695313c0 8.933593 3.703125 17.21875 9.589844 23.105469 5.886718 5.882812 14.171875 9.589843 23.105468 9.589843h306.609376c8.9375 0 17.21875-3.707031 23.105468-9.589843 5.886719-5.886719 9.589844-14.171876 9.589844-23.105469v-32.695313zm0 0" fill="#2fc0f0"/><path d="m398.40625 289.019531h21.796875v32.695313h-21.796875zm0 0" fill="#babac0"/><path d="m442 310.816406v32.695313c0 8.933593-3.703125 17.21875-9.589844 23.105469-5.886718 5.882812-14.171875 9.589843-23.105468 9.589843h-153.304688v-65.390625zm0 0" fill="#0fa9dd"/><path d="m113.59375 267.222656h21.796875v21.796875h-21.796875zm0 0" fill="#a1a1a7"/></svg>