<svg height="512pt" viewBox="0 0 512 512" width="512pt" xmlns="http://www.w3.org/2000/svg"><path d="m512 256c0 141.386719-114.613281 256-256 256s-256-114.613281-256-256 114.613281-256 256-256 256 114.613281 256 256zm0 0" fill="#811c26"/><path d="m512 256c0-8.515625-.425781-16.933594-1.238281-25.238281l-114.761719-114.761719-280 280 114.761719 114.761719c8.304687.8125 16.722656 1.238281 25.238281 1.238281 141.386719 0 256-114.613281 256-256zm0 0" fill="#442236"/><path d="m396 116v280h-140l-18.261719-139.390625 18.261719-140.609375h18.261719l42.609375 30.433594 42.605468-30.433594zm0 0" fill="#d82f30"/><path d="m256 116v280h-140v-280h36.523438l42.605468 30.433594 42.609375-30.433594zm0 0" fill="#f2484b"/><path d="m195.128906 335.128906-18.257812-108.953125 18.257812-110.175781" fill="#77c0bc"/><path d="m237.738281 116v176.523438c0 23.53125-19.078125 42.609374-42.609375 42.609374l-18.257812-108.957031 18.257812-110.175781zm0 0" fill="#98d9d5"/><path d="m195.128906 116v219.128906c-23.53125 0-42.609375-19.074218-42.609375-42.609375v-176.519531zm0 0" fill="#c1e8e6"/><path d="m359.476562 116v176.523438c0 23.53125-19.074218 42.609374-42.609374 42.609374l-18.257813-108.957031 18.261719-110.175781zm0 0" fill="#77c0bc"/><path d="m316.871094 116v219.128906c-23.53125 0-42.609375-19.074218-42.609375-42.609375v-176.519531zm0 0" fill="#98d9d5"/><path d="m332.085938 225.566406c0 8.402344-6.8125 15.214844-15.214844 15.214844-8.40625 0-15.21875-6.8125-15.21875-15.214844 0-8.40625 6.8125-15.21875 15.21875-15.21875 8.402344 0 15.214844 6.8125 15.214844 15.21875zm0 0" fill="#c1e8e6"/><path d="m210.347656 225.566406c0 8.402344-6.8125 15.214844-15.21875 15.214844-8.402344 0-15.214844-6.8125-15.214844-15.214844 0-8.40625 6.8125-15.21875 15.214844-15.21875 8.40625 0 15.21875 6.8125 15.21875 15.21875zm0 0" fill="#fff"/></svg>