<?xml version="1.0" encoding="iso-8859-1"?>
<!-- Generator: Adobe Illustrator 19.0.0, SVG Export Plug-In . SVG Version: 6.00 Build 0)  -->
<svg version="1.1" id="Capa_1" xmlns="http://www.w3.org/2000/svg" xmlns:xlink="http://www.w3.org/1999/xlink" x="0px" y="0px"
	 viewBox="0 0 512.002 512.002" style="enable-background:new 0 0 512.002 512.002;" xml:space="preserve">
<circle style="fill:#FEE17A;" cx="256.001" cy="256" r="256"/>
<path style="fill:#FCC55F;" d="M512.001,256c0-9.54-0.539-18.953-1.556-28.222L396.334,113.667l-266,284.667l20.549,20.549
	l-13.215,12.785l76.994,76.994c13.459,2.185,27.263,3.34,41.34,3.34C397.386,512,512.001,397.385,512.001,256z"/>
<polygon style="fill:#FFFFFF;" points="184.334,431.667 161.88,421.333 137.668,431.667 137.668,373.667 184.334,373.667 "/>
<rect x="130.331" y="113.67" style="fill:#154797;" width="217.33" height="284.67"/>
<rect x="179.001" y="113.67" style="fill:#1F66CC;" width="217.33" height="284.67"/>
<rect x="262.001" y="113.67" style="fill:#154797;" width="134.33" height="284.67"/>
<rect x="212.331" y="183" style="fill:#00398C;" width="150.67" height="64.67"/>
<rect x="212.331" y="183" style="fill:#154797;" width="49.667" height="64.67"/>
<g>
</g>
<g>
</g>
<g>
</g>
<g>
</g>
<g>
</g>
<g>
</g>
<g>
</g>
<g>
</g>
<g>
</g>
<g>
</g>
<g>
</g>
<g>
</g>
<g>
</g>
<g>
</g>
<g>
</g>
</svg>
