<svg xmlns="http://www.w3.org/2000/svg" height="512pt" version="1.1" viewBox="0 0 512 512" width="512pt">
<g id="surface1">
<path d="M 512 256 C 512 397.386719 397.386719 512 256 512 C 114.613281 512 0 397.386719 0 256 C 0 114.613281 114.613281 0 256 0 C 397.386719 0 512 114.613281 512 256 Z M 512 256 " style=" stroke:none;fill-rule:nonzero;fill:rgb(99.607843%,41.568627%,8.627451%);fill-opacity:1;" />
<path d="M 270.570312 511.578125 C 391.738281 504.777344 490.386719 413.722656 508.875 296.046875 L 351.285156 138.457031 L 320.730469 173.511719 L 233.011719 85.789062 L 120.269531 127.183594 L 196.097656 203.007812 L 140.03125 381.039062 Z M 270.570312 511.578125 " style=" stroke:none;fill-rule:nonzero;fill:rgb(94.901961%,27.058824%,0%);fill-opacity:1;" />
<path d="M 176.640625 398.933594 C 151.015625 398.933594 130.242188 378.164062 130.242188 352.539062 L 130.242188 101.246094 L 223.035156 101.246094 L 223.035156 352.539062 C 223.039062 378.164062 202.265625 398.933594 176.640625 398.933594 Z M 176.640625 398.933594 " style=" stroke:none;fill-rule:nonzero;fill:rgb(86.27451%,88.235294%,92.156863%);fill-opacity:1;" />
<path d="M 176 101.246094 L 176 398.917969 C 176.214844 398.921875 176.425781 398.933594 176.640625 398.933594 C 202.265625 398.933594 223.035156 378.164062 223.035156 352.539062 L 223.035156 101.246094 Z M 176 101.246094 " style=" stroke:none;fill-rule:nonzero;fill:rgb(80.392157%,82.352941%,88.235294%);fill-opacity:1;" />
<path d="M 176.640625 384.964844 C 156.421875 384.964844 140.03125 368.574219 140.03125 348.355469 L 140.03125 230.664062 L 213.25 230.664062 L 213.25 348.355469 C 213.25 368.574219 196.859375 384.964844 176.640625 384.964844 Z M 176.640625 384.964844 " style=" stroke:none;fill-rule:nonzero;fill:rgb(25.490196%,28.627451%,32.156863%);fill-opacity:1;" />
<path d="M 213.25 230.664062 L 176 230.664062 L 176 384.949219 C 176.214844 384.953125 176.425781 384.964844 176.640625 384.964844 C 196.859375 384.964844 213.25 368.574219 213.25 348.355469 Z M 213.25 230.664062 " style=" stroke:none;fill-rule:nonzero;fill:rgb(20%,22.352941%,25.098039%);fill-opacity:1;" />
<path d="M 120.269531 85.789062 L 233.011719 85.789062 L 233.011719 127.183594 L 120.269531 127.183594 Z M 120.269531 85.789062 " style=" stroke:none;fill-rule:nonzero;fill:rgb(100%,100%,100%);fill-opacity:1;" />
<path d="M 176 85.789062 L 233.011719 85.789062 L 233.011719 127.183594 L 176 127.183594 Z M 176 85.789062 " style=" stroke:none;fill-rule:nonzero;fill:rgb(91.372549%,92.941176%,96.078431%);fill-opacity:1;" />
<path d="M 405.617188 348.757812 L 339.285156 257.0625 L 339.285156 145.457031 L 260.285156 145.457031 L 260.285156 257.0625 L 193.953125 348.761719 C 178.820312 369.679688 193.765625 398.9375 219.585938 398.9375 L 379.984375 398.9375 C 405.804688 398.933594 420.75 369.675781 405.617188 348.757812 Z M 405.617188 348.757812 " style=" stroke:none;fill-rule:nonzero;fill:rgb(100%,100%,100%);fill-opacity:1;" />
<path d="M 405.617188 348.757812 L 339.285156 257.0625 L 339.285156 145.457031 L 299.808594 145.457031 L 299.808594 398.9375 L 379.984375 398.9375 C 405.804688 398.933594 420.75 369.675781 405.617188 348.757812 Z M 405.617188 348.757812 " style=" stroke:none;fill-rule:nonzero;fill:rgb(91.372549%,92.941176%,96.078431%);fill-opacity:1;" />
<path d="M 393.90625 354.445312 L 362.375 310.855469 C 332.539062 328.054688 301.550781 335.800781 266.785156 331.457031 C 253.273438 329.695312 239.878906 327.664062 226.550781 325.574219 L 205.664062 354.445312 C 196.316406 367.371094 205.550781 385.449219 221.503906 385.449219 L 378.070312 385.449219 C 394.023438 385.449219 403.257812 367.371094 393.90625 354.445312 Z M 393.90625 354.445312 " style=" stroke:none;fill-rule:nonzero;fill:rgb(29.019608%,47.843137%,100%);fill-opacity:1;" />
<path d="M 393.90625 354.445312 L 362.375 310.855469 C 342.308594 322.425781 321.71875 329.707031 299.808594 331.921875 L 299.808594 385.449219 L 378.070312 385.449219 C 394.023438 385.449219 403.257812 367.371094 393.90625 354.445312 Z M 393.90625 354.445312 " style=" stroke:none;fill-rule:nonzero;fill:rgb(15.686275%,39.215686%,94.117647%);fill-opacity:1;" />
<path d="M 248.285156 138.457031 L 351.285156 138.457031 L 351.285156 172.457031 L 248.285156 172.457031 Z M 248.285156 138.457031 " style=" stroke:none;fill-rule:nonzero;fill:rgb(86.27451%,88.235294%,92.156863%);fill-opacity:1;" />
<path d="M 299.808594 138.457031 L 351.285156 138.457031 L 351.285156 172.457031 L 299.808594 172.457031 Z M 299.808594 138.457031 " style=" stroke:none;fill-rule:nonzero;fill:rgb(80.392157%,82.352941%,88.235294%);fill-opacity:1;" />
</g>
</svg>