<svg xmlns="http://www.w3.org/2000/svg" height="512pt" version="1.1" viewBox="0 0 512 512" width="512pt">
<g id="surface1">
<path d="M 512 256 C 512 397.386719 397.386719 512 256 512 C 114.613281 512 0 397.386719 0 256 C 0 114.613281 114.613281 0 256 0 C 397.386719 0 512 114.613281 512 256 Z M 512 256 " style=" stroke:none;fill-rule:nonzero;fill:rgb(98.039216%,36.470588%,5.882353%);fill-opacity:1;" />
<path d="M 510.140625 286.890625 L 377.492188 154.246094 L 134.507812 423.757812 L 220.25 509.503906 C 231.9375 511.136719 243.867188 512 256 512 C 386.929688 512 494.886719 413.707031 510.140625 286.890625 Z M 510.140625 286.890625 " style=" stroke:none;fill-rule:nonzero;fill:rgb(93.72549%,21.960784%,0%);fill-opacity:1;" />
<path d="M 316.25 93 L 134.507812 93 L 134.507812 423.757812 L 377.492188 423.757812 L 377.492188 154.246094 Z M 316.25 93 " style=" stroke:none;fill-rule:nonzero;fill:rgb(100%,100%,100%);fill-opacity:1;" />
<path d="M 377.492188 154.246094 L 316.25 93 L 255.167969 93 L 255.167969 423.757812 L 377.492188 423.757812 Z M 377.492188 154.246094 " style=" stroke:none;fill-rule:nonzero;fill:rgb(94.901961%,96.470588%,98.823529%);fill-opacity:1;" />
<path d="M 316.25 154.246094 L 377.492188 154.246094 L 316.25 93 Z M 316.25 154.246094 " style=" stroke:none;fill-rule:nonzero;fill:rgb(80.392157%,82.352941%,88.235294%);fill-opacity:1;" />
<path d="M 163.0625 181 L 348.933594 181 L 348.933594 204.035156 L 163.0625 204.035156 Z M 163.0625 181 " style=" stroke:none;fill-rule:nonzero;fill:rgb(86.27451%,88.235294%,92.156863%);fill-opacity:1;" />
<path d="M 255.167969 181 L 348.9375 181 L 348.9375 204.035156 L 255.167969 204.035156 Z M 255.167969 181 " style=" stroke:none;fill-rule:nonzero;fill:rgb(80.392157%,82.352941%,88.235294%);fill-opacity:1;" />
<path d="M 163.0625 222.964844 L 348.933594 222.964844 L 348.933594 246.003906 L 163.0625 246.003906 Z M 163.0625 222.964844 " style=" stroke:none;fill-rule:nonzero;fill:rgb(86.27451%,88.235294%,92.156863%);fill-opacity:1;" />
<path d="M 255.167969 222.964844 L 348.9375 222.964844 L 348.9375 246.003906 L 255.167969 246.003906 Z M 255.167969 222.964844 " style=" stroke:none;fill-rule:nonzero;fill:rgb(80.392157%,82.352941%,88.235294%);fill-opacity:1;" />
<path d="M 163.0625 264.933594 L 348.933594 264.933594 L 348.933594 287.96875 L 163.0625 287.96875 Z M 163.0625 264.933594 " style=" stroke:none;fill-rule:nonzero;fill:rgb(86.27451%,88.235294%,92.156863%);fill-opacity:1;" />
<path d="M 255.167969 264.933594 L 348.9375 264.933594 L 348.9375 287.96875 L 255.167969 287.96875 Z M 255.167969 264.933594 " style=" stroke:none;fill-rule:nonzero;fill:rgb(80.392157%,82.352941%,88.235294%);fill-opacity:1;" />
<path d="M 163.0625 306.898438 L 348.933594 306.898438 L 348.933594 329.933594 L 163.0625 329.933594 Z M 163.0625 306.898438 " style=" stroke:none;fill-rule:nonzero;fill:rgb(86.27451%,88.235294%,92.156863%);fill-opacity:1;" />
<path d="M 255.167969 306.898438 L 348.9375 306.898438 L 348.9375 329.933594 L 255.167969 329.933594 Z M 255.167969 306.898438 " style=" stroke:none;fill-rule:nonzero;fill:rgb(80.392157%,82.352941%,88.235294%);fill-opacity:1;" />
<path d="M 163.0625 348.863281 L 348.933594 348.863281 L 348.933594 371.898438 L 163.0625 371.898438 Z M 163.0625 348.863281 " style=" stroke:none;fill-rule:nonzero;fill:rgb(86.27451%,88.235294%,92.156863%);fill-opacity:1;" />
<path d="M 255.167969 348.863281 L 348.9375 348.863281 L 348.9375 371.898438 L 255.167969 371.898438 Z M 255.167969 348.863281 " style=" stroke:none;fill-rule:nonzero;fill:rgb(80.392157%,82.352941%,88.235294%);fill-opacity:1;" />
<path d="M 397.210938 380.207031 C 391.324219 380.207031 385.441406 377.964844 380.949219 373.472656 L 327.902344 320.425781 C 318.921875 311.441406 318.921875 296.882812 327.902344 287.898438 C 336.886719 278.917969 351.445312 278.914062 360.429688 287.898438 L 413.476562 340.945312 C 422.457031 349.925781 422.457031 364.488281 413.476562 373.472656 C 408.984375 377.960938 403.097656 380.207031 397.210938 380.207031 Z M 397.210938 380.207031 " style=" stroke:none;fill-rule:nonzero;fill:rgb(13.72549%,15.294118%,16.862745%);fill-opacity:1;" />
<path d="M 413.476562 340.945312 L 360.429688 287.898438 C 351.601562 279.070312 337.402344 278.941406 328.386719 287.460938 L 413.914062 372.988281 C 422.433594 363.972656 422.300781 349.769531 413.476562 340.945312 Z M 413.476562 340.945312 " style=" stroke:none;fill-rule:nonzero;fill:rgb(13.72549%,15.294118%,16.862745%);fill-opacity:1;" />
<path d="M 279.5 335.503906 C 230.148438 335.503906 190 295.351562 190 246.003906 C 190 196.652344 230.148438 156.503906 279.5 156.503906 C 328.851562 156.503906 369 196.652344 369 246.003906 C 369 295.351562 328.851562 335.503906 279.5 335.503906 Z M 279.5 184.503906 C 245.589844 184.503906 218 212.089844 218 246.003906 C 218 279.914062 245.589844 307.503906 279.5 307.503906 C 313.410156 307.503906 341 279.914062 341 246.003906 C 341 212.089844 313.410156 184.503906 279.5 184.503906 Z M 279.5 184.503906 " style=" stroke:none;fill-rule:nonzero;fill:rgb(25.490196%,28.627451%,32.156863%);fill-opacity:1;" />
<path d="M 279.5 184.503906 C 313.410156 184.503906 341 212.089844 341 246.003906 C 341 261.070312 335.542969 274.882812 326.515625 285.585938 L 346.359375 305.429688 C 360.433594 289.613281 369 268.789062 369 246.003906 C 369 196.652344 328.851562 156.503906 279.5 156.503906 C 256.710938 156.503906 235.890625 165.066406 220.070312 179.144531 L 239.914062 198.984375 C 250.621094 189.957031 264.433594 184.503906 279.5 184.503906 Z M 279.5 184.503906 " style=" stroke:none;fill-rule:nonzero;fill:rgb(13.72549%,15.294118%,16.862745%);fill-opacity:1;" />
</g>
</svg>