<svg xmlns="http://www.w3.org/2000/svg" height="512pt" version="1.1" viewBox="0 0 512 512" width="512pt">
<g id="surface1">
<path d="M 512 256 C 512 397.386719 397.386719 512 256 512 C 114.613281 512 0 397.386719 0 256 C 0 114.613281 114.613281 0 256 0 C 397.386719 0 512 114.613281 512 256 Z M 512 256 " style=" stroke:none;fill-rule:nonzero;fill:rgb(29.019608%,47.843137%,100%);fill-opacity:1;" />
<path d="M 512 256 C 512 231.246094 508.476562 207.320312 501.921875 184.683594 L 437 119.761719 L 83.8125 398.933594 L 187.628906 502.753906 C 209.394531 508.769531 232.320312 512 256 512 C 397.386719 512 512 397.386719 512 256 Z M 512 256 " style=" stroke:none;fill-rule:nonzero;fill:rgb(15.686275%,39.215686%,94.117647%);fill-opacity:1;" />
<path d="M 117.109375 119.761719 L 437 119.761719 L 437 398.933594 L 117.109375 398.933594 Z M 117.109375 119.761719 " style=" stroke:none;fill-rule:nonzero;fill:rgb(75.686275%,75.686275%,75.686275%);fill-opacity:1;" />
<path d="M 103.109375 119.761719 L 423 119.761719 L 423 398.933594 L 103.109375 398.933594 Z M 103.109375 119.761719 " style=" stroke:none;fill-rule:nonzero;fill:rgb(85.098039%,85.098039%,85.098039%);fill-opacity:1;" />
<path d="M 408.1875 138.457031 L 83.8125 138.457031 L 83.8125 398.933594 L 335.066406 398.933594 L 408.1875 325.8125 Z M 408.1875 138.457031 " style=" stroke:none;fill-rule:nonzero;fill:rgb(100%,100%,100%);fill-opacity:1;" />
<path d="M 255.761719 138.457031 L 255.761719 398.933594 L 335.066406 398.933594 L 408.1875 325.8125 L 408.1875 138.457031 Z M 255.761719 138.457031 " style=" stroke:none;fill-rule:nonzero;fill:rgb(91.372549%,92.941176%,96.078431%);fill-opacity:1;" />
<path d="M 335.066406 398.933594 L 408.1875 325.8125 L 335.066406 325.8125 Z M 335.066406 398.933594 " style=" stroke:none;fill-rule:nonzero;fill:rgb(94.901961%,27.058824%,0%);fill-opacity:1;" />
<path d="M 83.8125 119.761719 L 408.1875 119.761719 L 408.1875 167.101562 L 83.8125 167.101562 Z M 83.8125 119.761719 " style=" stroke:none;fill-rule:nonzero;fill:rgb(99.607843%,41.568627%,8.627451%);fill-opacity:1;" />
<path d="M 255.761719 119.761719 L 408.1875 119.761719 L 408.1875 167.101562 L 255.761719 167.101562 Z M 255.761719 119.761719 " style=" stroke:none;fill-rule:nonzero;fill:rgb(94.901961%,27.058824%,0%);fill-opacity:1;" />
<path d="M 154 211.667969 C 154 224.644531 143.480469 235.167969 130.5 235.167969 C 117.519531 235.167969 107 224.644531 107 211.667969 C 107 198.6875 117.519531 188.167969 130.5 188.167969 C 143.480469 188.167969 154 198.6875 154 211.667969 Z M 154 211.667969 " style=" stroke:none;fill-rule:nonzero;fill:rgb(85.098039%,85.098039%,85.098039%);fill-opacity:1;" />
<path d="M 154 279.730469 C 154 292.710938 143.480469 303.230469 130.5 303.230469 C 117.519531 303.230469 107 292.710938 107 279.730469 C 107 266.753906 117.519531 256.230469 130.5 256.230469 C 143.480469 256.230469 154 266.753906 154 279.730469 Z M 154 279.730469 " style=" stroke:none;fill-rule:nonzero;fill:rgb(85.098039%,85.098039%,85.098039%);fill-opacity:1;" />
<path d="M 154 347.796875 C 154 360.777344 143.480469 371.296875 130.5 371.296875 C 117.519531 371.296875 107 360.777344 107 347.796875 C 107 334.816406 117.519531 324.296875 130.5 324.296875 C 143.480469 324.296875 154 334.816406 154 347.796875 Z M 154 347.796875 " style=" stroke:none;fill-rule:nonzero;fill:rgb(100%,69.411765%,23.137255%);fill-opacity:1;" />
<path d="M 230.023438 211.667969 C 230.023438 224.644531 219.5 235.167969 206.523438 235.167969 C 193.542969 235.167969 183.023438 224.644531 183.023438 211.667969 C 183.023438 198.6875 193.542969 188.167969 206.523438 188.167969 C 219.5 188.167969 230.023438 198.6875 230.023438 211.667969 Z M 230.023438 211.667969 " style=" stroke:none;fill-rule:nonzero;fill:rgb(85.098039%,85.098039%,85.098039%);fill-opacity:1;" />
<path d="M 230.023438 279.730469 C 230.023438 292.710938 219.5 303.230469 206.523438 303.230469 C 193.542969 303.230469 183.023438 292.710938 183.023438 279.730469 C 183.023438 266.753906 193.542969 256.230469 206.523438 256.230469 C 219.5 256.230469 230.023438 266.753906 230.023438 279.730469 Z M 230.023438 279.730469 " style=" stroke:none;fill-rule:nonzero;fill:rgb(85.098039%,85.098039%,85.098039%);fill-opacity:1;" />
<path d="M 230.023438 347.796875 C 230.023438 360.777344 219.5 371.296875 206.523438 371.296875 C 193.542969 371.296875 183.023438 360.777344 183.023438 347.796875 C 183.023438 334.816406 193.542969 324.296875 206.523438 324.296875 C 219.5 324.296875 230.023438 334.816406 230.023438 347.796875 Z M 230.023438 347.796875 " style=" stroke:none;fill-rule:nonzero;fill:rgb(85.098039%,85.098039%,85.098039%);fill-opacity:1;" />
<path d="M 306.042969 211.667969 C 306.042969 224.644531 295.523438 235.167969 282.542969 235.167969 C 269.5625 235.167969 259.042969 224.644531 259.042969 211.667969 C 259.042969 198.6875 269.5625 188.167969 282.542969 188.167969 C 295.523438 188.167969 306.042969 198.6875 306.042969 211.667969 Z M 306.042969 211.667969 " style=" stroke:none;fill-rule:nonzero;fill:rgb(81.176471%,81.176471%,81.176471%);fill-opacity:1;" />
<path d="M 306.042969 279.730469 C 306.042969 292.710938 295.523438 303.230469 282.542969 303.230469 C 269.5625 303.230469 259.042969 292.710938 259.042969 279.730469 C 259.042969 266.753906 269.5625 256.230469 282.542969 256.230469 C 295.523438 256.230469 306.042969 266.753906 306.042969 279.730469 Z M 306.042969 279.730469 " style=" stroke:none;fill-rule:nonzero;fill:rgb(81.176471%,81.176471%,81.176471%);fill-opacity:1;" />
<path d="M 382.066406 211.667969 C 382.066406 224.644531 371.542969 235.167969 358.566406 235.167969 C 345.585938 235.167969 335.066406 224.644531 335.066406 211.667969 C 335.066406 198.6875 345.585938 188.167969 358.566406 188.167969 C 371.542969 188.167969 382.066406 198.6875 382.066406 211.667969 Z M 382.066406 211.667969 " style=" stroke:none;fill-rule:nonzero;fill:rgb(100%,64.313725%,14.901961%);fill-opacity:1;" />
<path d="M 382.066406 279.730469 C 382.066406 292.710938 371.542969 303.230469 358.566406 303.230469 C 345.585938 303.230469 335.066406 292.710938 335.066406 279.730469 C 335.066406 266.753906 345.585938 256.230469 358.566406 256.230469 C 371.542969 256.230469 382.066406 266.753906 382.066406 279.730469 Z M 382.066406 279.730469 " style=" stroke:none;fill-rule:nonzero;fill:rgb(100%,64.313725%,14.901961%);fill-opacity:1;" />
</g>
</svg>