<?xml version="1.0" encoding="iso-8859-1"?>
<!-- Generator: Adobe Illustrator 19.0.0, SVG Export Plug-In . SVG Version: 6.00 Build 0)  -->
<svg xmlns="http://www.w3.org/2000/svg" xmlns:xlink="http://www.w3.org/1999/xlink" version="1.1" id="Capa_1" x="0px" y="0px" viewBox="0 0 512 512" style="enable-background:new 0 0 512 512;" xml:space="preserve">
<circle style="fill:#69C4D2;" cx="256" cy="256" r="256"/>
<path style="fill:#38979E;" d="M392.205,112.579h-63.86H222.334h-23.191l-14.117-14.117c-0.44-0.49-0.905-0.955-1.395-1.395  l-0.096-0.096l-0.005,0.005c-3.214-2.844-7.424-4.585-12.043-4.585c-10.044,0-18.215,8.171-18.215,18.215v1.974h-36.102v287.373  L227.647,510.43c9.311,1.026,18.768,1.57,28.353,1.57c141.385,0,256-114.615,256-256c0-8.377-0.415-16.657-1.202-24.828  L392.205,112.579z"/>
<rect x="181.031" y="112.581" style="fill:#ACACB2;" width="211.17" height="287.37"/>
<rect x="150.548" y="112.581" style="fill:#C6C5CA;" width="211.17" height="287.37"/>
<rect x="117.169" y="112.581" style="fill:#FFFFFF;" width="211.17" height="287.37"/>
<rect x="222.336" y="112.581" style="fill:#E1E0E3;" width="106.014" height="287.37"/>
<path style="fill:#E25F3F;" d="M171.488,182.646c-10.044,0-18.215-8.171-18.215-18.215v-53.826c0-10.044,8.171-18.215,18.215-18.215  s18.215,8.171,18.215,18.215v1.969h-9.846v-1.969c0-4.615-3.754-8.369-8.369-8.369c-4.615,0-8.369,3.754-8.369,8.369v53.826  c0,4.615,3.754,8.369,8.369,8.369c4.615,0,8.369-3.754,8.369-8.369v-3.938h9.846v3.938  C189.703,174.475,181.532,182.646,171.488,182.646z"/>
<g>
</g>
<g>
</g>
<g>
</g>
<g>
</g>
<g>
</g>
<g>
</g>
<g>
</g>
<g>
</g>
<g>
</g>
<g>
</g>
<g>
</g>
<g>
</g>
<g>
</g>
<g>
</g>
<g>
</g>
</svg>
