<svg height="512pt" viewBox="0 0 512 512" width="512pt" xmlns="http://www.w3.org/2000/svg"><path d="m512 256c0 141.386719-114.613281 256-256 256s-256-114.613281-256-256 114.613281-256 256-256 256 114.613281 256 256zm0 0" fill="#ff9d49"/><path d="m511.539062 271.164062-168.101562-167.496093-67.441406 107.71875-107.433594-107.71875 84.886719 163.839843-49.152344 22.222657-85.832031 20.757812.058594 84.589844s59.386718 59.390625 116.011718 116.019531c7.078125.585938 14.234375.902344 21.464844.902344 136.292969 0 247.691406-106.511719 255.539062-240.835938zm0 0" fill="#ff6e1d"/><path d="m155.46875 117.484375 138.273438 201.640625 13.960937-29.394531-139.140625-186.0625c-5.191406 3.882812-9.601562 8.558593-13.09375 13.816406zm0 0" fill="#185f8d"/><path d="m393.535156 310.488281c-14.234375-19.035156-35.167968-30.402343-55.984375-30.402343-11.09375 0-21.414062 3.335937-29.847656 9.644531-5.214844 3.898437-9.488281 8.734375-12.738281 14.300781l-139.496094-186.546875c-4.554688 6.851563-7.570312 14.703125-8.785156 23.117187-2.144532 14.871094 1.601562 29.644532 10.546875 41.613282l146.078125 195.644531c.019531.023437.035156.046875.050781.070313 14.238281 19.039062 35.167969 30.402343 55.988281 30.402343 11.09375 0 21.414063-3.332031 29.847656-9.640625 12.363282-9.25 19.480469-23.753906 20.039063-40.835937.53125-16.300781-5.042969-33.121094-15.699219-47.367188zm-3.058594 46.753907c-.367187 11.273437-4.8125 20.65625-12.519531 26.417968-5.164062 3.863282-11.597656 5.90625-18.605469 5.90625-14.714843 0-30.40625-8.765625-40.960937-22.875-8.109375-10.84375-12.363281-23.457031-11.96875-35.515625.367187-11.273437 4.8125-20.652343 12.519531-26.417969 5.164063-3.863281 11.597656-5.902343 18.609375-5.902343 14.710938 0 30.402344 8.765625 40.957031 22.875 8.109376 10.84375 12.363282 23.457031 11.96875 35.511719zm0 0" fill="#4284b2"/><path d="m356.53125 117.484375-138.273438 201.640625-13.960937-29.394531 139.140625-186.0625c5.195312 3.882812 9.601562 8.558593 13.09375 13.816406zm0 0" fill="#77c0bc"/><path d="m365.316406 140.601562c-1.214844-8.414062-4.230468-16.265624-8.785156-23.117187l-139.496094 186.546875c-3.25-5.566406-7.523437-10.402344-12.738281-14.300781-8.433594-6.308594-18.753906-9.644531-29.84375-9.644531-20.820313 0-41.75 11.367187-55.988281 30.402343-10.65625 14.246094-16.230469 31.066407-15.699219 47.367188.558594 17.085937 7.671875 31.585937 20.039063 40.835937 8.433593 6.308594 18.753906 9.644532 29.84375 9.644532 20.820312 0 41.75-11.367188 55.988281-30.402344.019531-.023438.035156-.046875.054687-.070313l146.078125-195.648437c8.945313-11.96875 12.691407-26.742188 10.546875-41.613282zm-171.707031 226.089844c-10.550781 14.109375-26.246094 22.875-40.960937 22.875-7.007813 0-13.4375-2.042968-18.605469-5.90625-7.707031-5.761718-12.152344-15.144531-12.519531-26.417968-.394532-12.054688 3.859374-24.667969 11.96875-35.511719 10.550781-14.113281 26.246093-22.875 40.957031-22.875 7.007812 0 13.441406 2.039062 18.605469 5.902343 7.707031 5.765626 12.15625 15.144532 12.523437 26.417969.394531 12.058594-3.859375 24.671875-11.96875 35.515625zm0 0" fill="#98d9d5"/></svg>