<svg xmlns="http://www.w3.org/2000/svg" height="512pt" version="1.1" viewBox="0 0 512 512" width="512pt">
<g id="surface1">
<path d="M 512 256 C 512 397.386719 397.386719 512 256 512 C 114.613281 512 0 397.386719 0 256 C 0 114.613281 114.613281 0 256 0 C 397.386719 0 512 114.613281 512 256 Z M 512 256 " style=" stroke:none;fill-rule:nonzero;fill:rgb(100%,83.137255%,0%);fill-opacity:1;" />
<path d="M 512 256 C 512 242.960938 511.019531 230.152344 509.136719 217.636719 L 408.5 117 L 103.5 328 L 157.515625 382.019531 L 117.121094 392 L 236.382812 511.257812 C 242.855469 511.75 249.398438 512 256 512 C 397.386719 512 512 397.386719 512 256 Z M 512 256 " style=" stroke:none;fill-rule:nonzero;fill:rgb(99.215686%,72.941176%,7.058824%);fill-opacity:1;" />
<path d="M 218 299 L 294 299 L 294 375 L 218 375 Z M 218 299 " style=" stroke:none;fill-rule:nonzero;fill:rgb(20%,22.352941%,25.098039%);fill-opacity:1;" />
<path d="M 255.761719 299 L 294 299 L 294 375 L 255.761719 375 Z M 255.761719 299 " style=" stroke:none;fill-rule:nonzero;fill:rgb(13.72549%,15.294118%,16.862745%);fill-opacity:1;" />
<path d="M 103.5 117 L 408.5 117 L 408.5 328 L 103.5 328 Z M 103.5 117 " style=" stroke:none;fill-rule:nonzero;fill:rgb(25.490196%,28.627451%,32.156863%);fill-opacity:1;" />
<path d="M 255.761719 117 L 408.5 117 L 408.5 328 L 255.761719 328 Z M 255.761719 117 " style=" stroke:none;fill-rule:nonzero;fill:rgb(20%,22.352941%,25.098039%);fill-opacity:1;" />
<path d="M 124.246094 136.085938 L 387.753906 136.085938 L 387.753906 308.914062 L 124.246094 308.914062 Z M 124.246094 136.085938 " style=" stroke:none;fill-rule:nonzero;fill:rgb(29.019608%,47.843137%,100%);fill-opacity:1;" />
<path d="M 255.761719 136.085938 L 387.753906 136.085938 L 387.753906 308.914062 L 255.761719 308.914062 Z M 255.761719 136.085938 " style=" stroke:none;fill-rule:nonzero;fill:rgb(15.686275%,39.215686%,94.117647%);fill-opacity:1;" />
<path d="M 403.109375 392 L 372.398438 392 C 364.726562 392 358.503906 385.777344 358.503906 378.105469 C 358.503906 365.726562 368.539062 355.691406 380.917969 355.691406 L 394.589844 355.691406 C 406.96875 355.691406 417.003906 365.726562 417.003906 378.105469 C 417.003906 385.777344 410.78125 392 403.109375 392 Z M 403.109375 392 " style=" stroke:none;fill-rule:nonzero;fill:rgb(13.72549%,15.294118%,16.862745%);fill-opacity:1;" />
<path d="M 125.621094 357 L 146 357 L 146 377.378906 L 125.621094 377.378906 Z M 125.621094 357 " style=" stroke:none;fill-rule:nonzero;fill:rgb(49.411765%,52.156863%,58.823529%);fill-opacity:1;" />
<path d="M 157.664062 357 L 178.039062 357 L 178.039062 377.378906 L 157.664062 377.378906 Z M 157.664062 357 " style=" stroke:none;fill-rule:nonzero;fill:rgb(49.411765%,52.156863%,58.823529%);fill-opacity:1;" />
<path d="M 189.703125 357 L 210.082031 357 L 210.082031 377.378906 L 189.703125 377.378906 Z M 189.703125 357 " style=" stroke:none;fill-rule:nonzero;fill:rgb(49.411765%,52.156863%,58.823529%);fill-opacity:1;" />
<path d="M 221.746094 357 L 242.125 357 L 242.125 377.378906 L 221.746094 377.378906 Z M 221.746094 357 " style=" stroke:none;fill-rule:nonzero;fill:rgb(49.411765%,52.156863%,58.823529%);fill-opacity:1;" />
<path d="M 253.789062 357 L 274.164062 357 L 274.164062 377.378906 L 253.789062 377.378906 Z M 253.789062 357 " style=" stroke:none;fill-rule:nonzero;fill:rgb(49.411765%,52.156863%,58.823529%);fill-opacity:1;" />
<path d="M 255.761719 357 L 274.164062 357 L 274.164062 377.378906 L 255.761719 377.378906 Z M 255.761719 357 " style=" stroke:none;fill-rule:nonzero;fill:rgb(43.921569%,46.666667%,53.72549%);fill-opacity:1;" />
<path d="M 285.828125 357 L 306.207031 357 L 306.207031 377.378906 L 285.828125 377.378906 Z M 285.828125 357 " style=" stroke:none;fill-rule:nonzero;fill:rgb(43.921569%,46.666667%,53.72549%);fill-opacity:1;" />
<path d="M 317.871094 357 L 338.25 357 L 338.25 377.378906 L 317.871094 377.378906 Z M 317.871094 357 " style=" stroke:none;fill-rule:nonzero;fill:rgb(43.921569%,46.666667%,53.72549%);fill-opacity:1;" />
<path d="M 117.121094 365 L 346.746094 365 L 346.746094 392 L 117.121094 392 Z M 117.121094 365 " style=" stroke:none;fill-rule:nonzero;fill:rgb(38.823529%,41.176471%,47.058824%);fill-opacity:1;" />
<path d="M 255.761719 365 L 346.746094 365 L 346.746094 392 L 255.761719 392 Z M 255.761719 365 " style=" stroke:none;fill-rule:nonzero;fill:rgb(33.333333%,35.294118%,40%);fill-opacity:1;" />
<path d="M 146 158 L 178.039062 158 L 178.039062 190.042969 L 146 190.042969 Z M 146 158 " style=" stroke:none;fill-rule:nonzero;fill:rgb(39.607843%,69.411765%,98.823529%);fill-opacity:1;" />
<path d="M 146 206.480469 L 178.039062 206.480469 L 178.039062 238.519531 L 146 238.519531 Z M 146 206.480469 " style=" stroke:none;fill-rule:nonzero;fill:rgb(39.607843%,69.411765%,98.823529%);fill-opacity:1;" />
<path d="M 146 254.957031 L 178.039062 254.957031 L 178.039062 287 L 146 287 Z M 146 254.957031 " style=" stroke:none;fill-rule:nonzero;fill:rgb(39.607843%,69.411765%,98.823529%);fill-opacity:1;" />
<path d="M 193.0625 158 L 225.105469 158 L 225.105469 190.042969 L 193.0625 190.042969 Z M 193.0625 158 " style=" stroke:none;fill-rule:nonzero;fill:rgb(39.607843%,69.411765%,98.823529%);fill-opacity:1;" />
<path d="M 193.0625 206.480469 L 225.105469 206.480469 L 225.105469 238.519531 L 193.0625 238.519531 Z M 193.0625 206.480469 " style=" stroke:none;fill-rule:nonzero;fill:rgb(39.607843%,69.411765%,98.823529%);fill-opacity:1;" />
<path d="M 193.0625 254.957031 L 225.105469 254.957031 L 225.105469 287 L 193.0625 287 Z M 193.0625 254.957031 " style=" stroke:none;fill-rule:nonzero;fill:rgb(39.607843%,69.411765%,98.823529%);fill-opacity:1;" />
<path d="M 288.507812 158 L 320.550781 158 L 320.550781 190.042969 L 288.507812 190.042969 Z M 288.507812 158 " style=" stroke:none;fill-rule:nonzero;fill:rgb(29.019608%,59.607843%,96.862745%);fill-opacity:1;" />
<path d="M 288.507812 206.480469 L 320.550781 206.480469 L 320.550781 238.519531 L 288.507812 238.519531 Z M 288.507812 206.480469 " style=" stroke:none;fill-rule:nonzero;fill:rgb(29.019608%,59.607843%,96.862745%);fill-opacity:1;" />
<path d="M 288.507812 254.957031 L 320.550781 254.957031 L 320.550781 287 L 288.507812 287 Z M 288.507812 254.957031 " style=" stroke:none;fill-rule:nonzero;fill:rgb(29.019608%,59.607843%,96.862745%);fill-opacity:1;" />
<path d="M 335.570312 158 L 367.613281 158 L 367.613281 190.042969 L 335.570312 190.042969 Z M 335.570312 158 " style=" stroke:none;fill-rule:nonzero;fill:rgb(29.019608%,59.607843%,96.862745%);fill-opacity:1;" />
<path d="M 335.570312 206.480469 L 367.613281 206.480469 L 367.613281 238.519531 L 335.570312 238.519531 Z M 335.570312 206.480469 " style=" stroke:none;fill-rule:nonzero;fill:rgb(29.019608%,59.607843%,96.862745%);fill-opacity:1;" />
<path d="M 335.570312 254.957031 L 367.613281 254.957031 L 367.613281 287 L 335.570312 287 Z M 335.570312 254.957031 " style=" stroke:none;fill-rule:nonzero;fill:rgb(29.019608%,59.607843%,96.862745%);fill-opacity:1;" />
<path d="M 239.980469 158 L 272.019531 158 L 272.019531 190.042969 L 239.980469 190.042969 Z M 239.980469 158 " style=" stroke:none;fill-rule:nonzero;fill:rgb(39.607843%,69.411765%,98.823529%);fill-opacity:1;" />
<path d="M 255.761719 158 L 272.019531 158 L 272.019531 190.042969 L 255.761719 190.042969 Z M 255.761719 158 " style=" stroke:none;fill-rule:nonzero;fill:rgb(29.019608%,59.607843%,96.862745%);fill-opacity:1;" />
<path d="M 239.980469 206.480469 L 272.019531 206.480469 L 272.019531 238.519531 L 239.980469 238.519531 Z M 239.980469 206.480469 " style=" stroke:none;fill-rule:nonzero;fill:rgb(39.607843%,69.411765%,98.823529%);fill-opacity:1;" />
<path d="M 255.761719 206.480469 L 272.019531 206.480469 L 272.019531 238.519531 L 255.761719 238.519531 Z M 255.761719 206.480469 " style=" stroke:none;fill-rule:nonzero;fill:rgb(29.019608%,59.607843%,96.862745%);fill-opacity:1;" />
<path d="M 239.980469 254.957031 L 272.019531 254.957031 L 272.019531 287 L 239.980469 287 Z M 239.980469 254.957031 " style=" stroke:none;fill-rule:nonzero;fill:rgb(39.607843%,69.411765%,98.823529%);fill-opacity:1;" />
<path d="M 255.761719 254.957031 L 272.019531 254.957031 L 272.019531 287 L 255.761719 287 Z M 255.761719 254.957031 " style=" stroke:none;fill-rule:nonzero;fill:rgb(29.019608%,59.607843%,96.862745%);fill-opacity:1;" />
</g>
</svg>