<?xml version="1.0" encoding="iso-8859-1"?>
<!-- Generator: Adobe Illustrator 19.0.0, SVG Export Plug-In . SVG Version: 6.00 Build 0)  -->
<svg version="1.1" id="Capa_1" xmlns="http://www.w3.org/2000/svg" xmlns:xlink="http://www.w3.org/1999/xlink" x="0px" y="0px"
	 viewBox="0 0 512 512" style="enable-background:new 0 0 512 512;" xml:space="preserve">
<circle style="fill:#1B56DB;" cx="256" cy="256" r="256"/>
<path style="fill:#1149AA;" d="M511.304,274.901L365.808,129.405l-141.403-15.167L76.806,276.544l78.453,78.454l-83.386-6.296
	l162.37,162.369C241.417,511.674,248.67,512,256,512C391.027,512,501.629,407.459,511.304,274.901z"/>
<path style="fill:#FEC007;" d="M413.993,215.726c-14.629-73.834-79.75-129.501-157.879-129.501s-143.25,55.667-157.879,129.501
	h-21.43v60.818h358.617v-60.818L413.993,215.726L413.993,215.726z M256.114,138.13c49.29,0,90.929,32.705,104.431,77.596H151.683
	C165.185,170.836,206.825,138.13,256.114,138.13z"/>
<path style="fill:#FEAA00;" d="M435.423,215.726h-21.43c-14.629-73.834-79.75-129.501-157.879-129.501
	c-0.054,0-0.108,0.002-0.162,0.002v51.907c0.054,0,0.108-0.003,0.162-0.003c49.29,0,90.929,32.706,104.431,77.596H255.952v60.818
	h179.47v-60.819H435.423z"/>
<g>
	<polygon style="fill:#FFDE1F;" points="129.512,321.148 71.873,348.701 129.512,375.057 422.141,375.057 422.141,321.148 	"/>
	<polygon style="fill:#FFDE1F;" points="129.512,321.148 71.873,348.701 129.512,375.057 422.141,375.057 422.141,321.148 	"/>
</g>
<polygon style="fill:#F9C41E;" points="72.99,348.167 71.873,348.701 129.512,375.057 422.141,375.057 422.141,348.167 "/>
<polygon style="fill:#FFFFFF;" points="129.512,375.057 71.873,348.701 129.512,321.148 "/>
<polygon style="fill:#E0E0E0;" points="72.99,348.167 71.873,348.701 129.512,375.057 129.512,348.167 "/>
<polygon style="fill:#4D4D4D;" points="100.087,361.602 100.087,335.214 71.873,348.701 "/>
<polygon style="fill:#333333;" points="72.991,348.167 71.873,348.701 100.087,361.602 100.087,348.167 "/>
<g>
</g>
<g>
</g>
<g>
</g>
<g>
</g>
<g>
</g>
<g>
</g>
<g>
</g>
<g>
</g>
<g>
</g>
<g>
</g>
<g>
</g>
<g>
</g>
<g>
</g>
<g>
</g>
<g>
</g>
</svg>
