<svg height="512pt" viewBox="0 0 512 512" width="512pt" xmlns="http://www.w3.org/2000/svg"><path d="m512 256c0 141.386719-114.613281 256-256 256s-256-114.613281-256-256 114.613281-256 256-256 256 114.613281 256 256zm0 0" fill="#185f8d"/><path d="m511.800781 265.640625-138.171875-138.175781-249.71875 271.535156 112.238282 112.238281c6.550781.503907 13.171874.761719 19.851562.761719 138.15625 0 250.730469-109.445312 255.800781-246.359375zm0 0" fill="#274b6d"/><g fill="#98d9d5"><path d="m351.050781 380.480469h37.039063v18.519531h-37.039063zm0 0"/><path d="m295.488281 380.480469h37.039063v18.519531h-37.039063zm0 0"/><path d="m239.925781 380.480469h37.039063v18.519531h-37.039063zm0 0"/><path d="m184.363281 380.480469h37.039063v18.519531h-37.039063zm0 0"/><path d="m123.910156 380.480469h41.933594v18.519531h-41.933594zm0 0"/></g><path d="m209.378906 313.515625-34.90625-34.917969-50.5625 50.558594v69.84375l85.453125-85.449219zm0 0" fill="#c1e8e6"/><path d="m238.363281 306.378906-13.097656 13.09375-41.273437-15.476562 25.996093-43.457032zm0 0" fill="#ff9d49"/><path d="m218.71875 269.269531-34.726562 34.726563-15.472657-41.277344 13.097657-13.085938zm0 0" fill="#ffb55f"/><path d="m373.625 197.308594-14.355469 14.351562c-9.457031 9.460938-23.042969 12.078125-33.660156 7.480469l-45.84375-28.375 52.382813-52.386719zm0 0" fill="#ff9d49"/><path d="m340.878906 147.109375-52.386718 52.386719-19.636719-37.101563 34.921875-34.925781zm0 0" fill="#ffb55f"/><path d="m373.625 197.308594-69.847656-69.835938c19.285156-19.289062 50.558594-19.300781 69.851562-.003906 19.285156 19.285156 19.28125 50.550781-.003906 69.839844zm0 0" fill="#082947"/><path d="m325.605469 219.140625-87.242188 87.238281-21.828125-21.828125 34.886719-52.351562 52.351563-34.886719zm0 0" fill="#ffb55f"/><path d="m268.851562 162.390625 21.824219 21.824219-34.886719 52.351562-52.347656 34.890625-21.828125-21.828125zm0 0" fill="#ffcc75"/><path d="m290.675781 184.214844 13.097657 13.09375-87.238282 87.238281-13.09375-13.097656zm0 0" fill="#c1e8e6"/></svg>