<?xml version="1.0" encoding="iso-8859-1"?>
<!-- Generator: Adobe Illustrator 19.0.0, SVG Export Plug-In . SVG Version: 6.00 Build 0)  -->
<svg xmlns="http://www.w3.org/2000/svg" xmlns:xlink="http://www.w3.org/1999/xlink" version="1.1" id="Capa_1" x="0px" y="0px" viewBox="0 0 512 512" style="enable-background:new 0 0 512 512;" xml:space="preserve">
<circle style="fill:#5A7EBF;" cx="256" cy="256" r="256"/>
<path style="fill:#4360AC;" d="M511.941,251.364L378.932,118.355l0,0l-9.189,22.344l-4.354,10.586l-33.583-33.584l0,0H222.984  H114.478v24.031H98.084v14.713l0,0l16.394,16.394v4.531H98.084v14.713l16.394,16.394v4.531H98.084v14.713l0,0l16.394,16.394v4.531  H98.084v14.713l16.394,16.394v4.53H98.084v14.713l16.394,16.394v4.531H98.084v14.713l16.394,16.394v4.53H98.084v14.713  l16.394,16.394v7.637l116.48,116.48c8.24,0.8,16.592,1.221,25.042,1.221c141.385,0,256-114.615,256-256  C512,254.45,511.969,252.907,511.941,251.364z"/>
<rect x="114.474" y="117.701" style="fill:#E25F3F;" width="217.325" height="276.598"/>
<rect x="222.985" y="117.701" style="fill:#BF2717;" width="108.825" height="276.598"/>
<rect x="362.255" y="158.897" style="fill:#F6D433;" width="33.349" height="235.402"/>
<rect x="378.851" y="158.897" style="fill:#DF871E;" width="16.753" height="235.402"/>
<polygon style="fill:#FDF7D0;" points="395.606,158.897 362.258,158.897 378.932,118.355 "/>
<g>
	<polygon style="fill:#57565C;" points="388.122,140.699 378.932,118.355 369.742,140.699  "/>
	<rect x="98.084" y="248.644" style="fill:#57565C;" width="32.368" height="14.713"/>
	<rect x="98.084" y="213.01" style="fill:#57565C;" width="32.368" height="14.713"/>
	<rect x="98.084" y="177.366" style="fill:#57565C;" width="32.368" height="14.713"/>
	<rect x="98.084" y="141.732" style="fill:#57565C;" width="32.368" height="14.713"/>
	<rect x="98.084" y="355.556" style="fill:#57565C;" width="32.368" height="14.713"/>
	<rect x="98.084" y="319.922" style="fill:#57565C;" width="32.368" height="14.713"/>
	<rect x="98.084" y="284.278" style="fill:#57565C;" width="32.368" height="14.713"/>
</g>
<rect x="169.323" y="180.966" style="fill:#FFFFFF;" width="107.638" height="58.851"/>
<rect x="222.985" y="180.966" style="fill:#F9ED9D;" width="53.976" height="58.851"/>
<g>
</g>
<g>
</g>
<g>
</g>
<g>
</g>
<g>
</g>
<g>
</g>
<g>
</g>
<g>
</g>
<g>
</g>
<g>
</g>
<g>
</g>
<g>
</g>
<g>
</g>
<g>
</g>
<g>
</g>
</svg>
