<svg xmlns="http://www.w3.org/2000/svg" height="512pt" version="1.1" viewBox="0 0 512 512.001" width="512pt">
<g id="surface1">
<path d="M 512 256 C 512 397.386719 397.386719 512 256 512 C 114.617188 512 0 397.386719 0 256 C 0 114.613281 114.617188 0 256 0 C 397.386719 0 512 114.613281 512 256 Z M 512 256 " style=" stroke:none;fill-rule:nonzero;fill:rgb(100%,83.137255%,0%);fill-opacity:1;" />
<path d="M 512 256 C 512 253.480469 511.953125 250.96875 511.882812 248.464844 L 403.070312 139.652344 L 109.753906 147.136719 L 176.523438 213.90625 L 109.753906 226.308594 L 169.148438 285.703125 L 81.179688 340.625 L 252.515625 511.957031 C 253.675781 511.972656 254.835938 512 256 512 C 397.386719 512 512 397.386719 512 256 Z M 512 256 " style=" stroke:none;fill-rule:nonzero;fill:rgb(99.215686%,72.941176%,7.058824%);fill-opacity:1;" />
<path d="M 421.746094 342.742188 L 119.890625 342.742188 C 96.261719 342.742188 77.105469 323.585938 77.105469 299.960938 L 77.105469 285.898438 C 77.105469 262.269531 96.261719 243.117188 119.890625 243.117188 L 421.746094 243.117188 Z M 421.746094 342.742188 " style=" stroke:none;fill-rule:nonzero;fill:rgb(100%,100%,100%);fill-opacity:1;" />
<path d="M 255.761719 243.113281 L 421.746094 243.113281 L 421.746094 342.742188 L 255.761719 342.742188 Z M 255.761719 243.113281 " style=" stroke:none;fill-rule:nonzero;fill:rgb(94.901961%,96.470588%,98.823529%);fill-opacity:1;" />
<path d="M 446.195312 359.042969 L 126.917969 359.042969 C 90.464844 359.042969 60.804688 329.382812 60.804688 292.929688 C 60.804688 256.472656 90.464844 226.8125 126.917969 226.8125 L 446.195312 226.8125 L 446.195312 259.414062 L 126.917969 259.414062 C 108.441406 259.414062 93.40625 274.449219 93.40625 292.929688 C 93.40625 311.40625 108.441406 326.441406 126.917969 326.441406 L 446.195312 326.441406 Z M 446.195312 359.042969 " style=" stroke:none;fill-rule:nonzero;fill:rgb(29.019608%,47.843137%,100%);fill-opacity:1;" />
<path d="M 255.761719 326.441406 L 446.195312 326.441406 L 446.195312 359.042969 L 255.761719 359.042969 Z M 255.761719 326.441406 " style=" stroke:none;fill-rule:nonzero;fill:rgb(15.686275%,39.215686%,94.117647%);fill-opacity:1;" />
<path d="M 255.761719 226.816406 L 446.195312 226.816406 L 446.195312 259.414062 L 255.761719 259.414062 Z M 255.761719 226.816406 " style=" stroke:none;fill-rule:nonzero;fill:rgb(15.686275%,39.215686%,94.117647%);fill-opacity:1;" />
<path d="M 129.183594 134.328125 L 369.070312 134.328125 C 387.847656 134.328125 403.070312 149.550781 403.070312 168.328125 L 403.070312 179.503906 C 403.070312 198.28125 387.847656 213.503906 369.070312 213.503906 L 129.183594 213.503906 Z M 129.183594 134.328125 " style=" stroke:none;fill-rule:nonzero;fill:rgb(100%,100%,100%);fill-opacity:1;" />
<path d="M 369.070312 134.328125 L 255.761719 134.328125 L 255.761719 213.503906 L 369.070312 213.503906 C 387.847656 213.503906 403.070312 198.28125 403.070312 179.503906 L 403.070312 168.328125 C 403.070312 149.550781 387.847656 134.328125 369.070312 134.328125 Z M 369.070312 134.328125 " style=" stroke:none;fill-rule:nonzero;fill:rgb(94.901961%,96.470588%,98.823529%);fill-opacity:1;" />
<path d="M 363.484375 226.308594 L 109.753906 226.308594 L 109.753906 200.695312 L 363.484375 200.695312 C 378.25 200.695312 390.261719 188.683594 390.261719 173.914062 C 390.261719 159.148438 378.25 147.136719 363.484375 147.136719 L 109.753906 147.136719 L 109.753906 121.523438 L 363.484375 121.523438 C 392.371094 121.523438 415.875 145.027344 415.875 173.914062 C 415.875 202.804688 392.371094 226.308594 363.484375 226.308594 Z M 363.484375 226.308594 " style=" stroke:none;fill-rule:nonzero;fill:rgb(98.039216%,36.470588%,5.882353%);fill-opacity:1;" />
<path d="M 363.484375 121.519531 L 255.761719 121.519531 L 255.761719 147.136719 L 363.484375 147.136719 C 378.25 147.136719 390.261719 159.148438 390.261719 173.914062 C 390.261719 188.679688 378.25 200.695312 363.484375 200.695312 L 255.761719 200.695312 L 255.761719 226.308594 L 363.484375 226.308594 C 392.371094 226.308594 415.875 202.804688 415.875 173.914062 C 415.875 145.027344 392.371094 121.523438 363.484375 121.519531 Z M 363.484375 121.519531 " style=" stroke:none;fill-rule:nonzero;fill:rgb(93.72549%,21.960784%,0%);fill-opacity:1;" />
<path d="M 339.078125 249.597656 L 315.792969 239.371094 L 292.503906 249.597656 L 292.503906 165.765625 L 339.078125 165.765625 Z M 339.078125 249.597656 " style=" stroke:none;fill-rule:nonzero;fill:rgb(13.72549%,15.294118%,16.862745%);fill-opacity:1;" />
<path d="M 190.046875 369.519531 L 166.757812 359.296875 L 143.472656 369.519531 L 143.472656 285.691406 L 190.046875 285.691406 Z M 190.046875 369.519531 " style=" stroke:none;fill-rule:nonzero;fill:rgb(25.490196%,28.627451%,32.156863%);fill-opacity:1;" />
</g>
</svg>