<svg height="512pt" viewBox="0 0 512 512" width="512pt" xmlns="http://www.w3.org/2000/svg"><path d="m512 256c0 141.386719-114.613281 256-256 256s-256-114.613281-256-256 114.613281-256 256-256 256 114.613281 256 256zm0 0" fill="#77c0bc"/><path d="m511.921875 262.125-117.417969-117.421875-277.007812 249.796875 116.554687 116.554688c7.238281.613281 14.554688.945312 21.949219.945312 139.335938 0 252.667969-111.320312 255.921875-249.875zm0 0" fill="#3b7d84"/><path d="m394.5 144.703125-115.640625 136.515625-41.070313-24.039062 143.109376-126.078126zm0 0" fill="#082947"/><path d="m380.898438 131.101562-134.59375 134.59375-15.523438-32.554687 136.515625-115.640625zm0 0" fill="#274b6d"/><path d="m266.082031 293.984375-62.351562 39.828125-25.542969-8.515625 59.601562-68.117187zm0 0" fill="#98d9d5"/><path d="m242.050781 269.949219-59.605469 59.605469-4.257812-21.285157 39.820312-62.351562zm0 0" fill="#c1e8e6"/><path d="m278.859375 281.21875-12.777344 12.765625-24.03125-24.035156-2.128906-14.898438 14.898437 2.128907zm0 0" fill="#77c0bc"/><path d="m218.007812 245.914062 12.769532-12.769531 24.039062 24.035157-12.773437 12.773437zm0 0" fill="#98d9d5"/><path d="m203.730469 333.8125s-9.308594 24.554688-23.738281 38.980469c-23.449219 23.449219-62.460938 21.675781-62.460938 21.675781l28.199219-45.230469 45.230469-28.199219zm0 0" fill="#ff6e1d"/><path d="m190.960938 321.039062-73.429688 73.429688s-1.773438-39.011719 21.675781-62.460938c14.429688-14.429687 38.980469-23.738281 38.980469-23.738281zm0 0" fill="#ff9d49"/></svg>