<svg xmlns="http://www.w3.org/2000/svg" height="512pt" version="1.1" viewBox="0 0 512 512" width="512pt">
<g id="surface1">
<path d="M 512 256 C 512 397.386719 397.386719 512 256 512 C 114.613281 512 0 397.386719 0 256 C 0 114.613281 114.613281 0 256 0 C 397.386719 0 512 114.613281 512 256 Z M 512 256 " style=" stroke:none;fill-rule:nonzero;fill:rgb(99.607843%,41.568627%,8.627451%);fill-opacity:1;" />
<path d="M 512 256 C 512 251.304688 511.863281 246.636719 511.613281 242.003906 L 362.617188 93.003906 L 114.386719 418.996094 L 201.574219 506.183594 C 219.117188 509.980469 237.320312 512 256 512 C 397.386719 512 512 397.386719 512 256 Z M 512 256 " style=" stroke:none;fill-rule:nonzero;fill:rgb(94.901961%,27.058824%,0%);fill-opacity:1;" />
<path d="M 173.632812 93.003906 L 114.386719 152.246094 L 114.386719 418.996094 L 362.617188 418.996094 L 362.617188 93.003906 Z M 173.632812 93.003906 " style=" stroke:none;fill-rule:nonzero;fill:rgb(29.019608%,47.843137%,100%);fill-opacity:1;" />
<path d="M 237.90625 93.003906 L 362.617188 93.003906 L 362.617188 418.996094 L 237.90625 418.996094 Z M 237.90625 93.003906 " style=" stroke:none;fill-rule:nonzero;fill:rgb(15.686275%,39.215686%,94.117647%);fill-opacity:1;" />
<path d="M 146.257812 164.492188 L 330.746094 164.492188 L 330.746094 180.265625 L 146.257812 180.265625 Z M 146.257812 164.492188 " style=" stroke:none;fill-rule:nonzero;fill:rgb(0%,32.54902%,74.901961%);fill-opacity:1;" />
<path d="M 237.90625 164.492188 L 330.746094 164.492188 L 330.746094 180.265625 L 237.90625 180.265625 Z M 237.90625 164.492188 " style=" stroke:none;fill-rule:nonzero;fill:rgb(15.294118%,28.235294%,56.078431%);fill-opacity:1;" />
<path d="M 146.257812 204.34375 L 330.746094 204.34375 L 330.746094 220.117188 L 146.257812 220.117188 Z M 146.257812 204.34375 " style=" stroke:none;fill-rule:nonzero;fill:rgb(0%,32.54902%,74.901961%);fill-opacity:1;" />
<path d="M 237.90625 204.34375 L 330.746094 204.34375 L 330.746094 220.117188 L 237.90625 220.117188 Z M 237.90625 204.34375 " style=" stroke:none;fill-rule:nonzero;fill:rgb(15.294118%,28.235294%,56.078431%);fill-opacity:1;" />
<path d="M 146.257812 244.191406 L 330.746094 244.191406 L 330.746094 259.964844 L 146.257812 259.964844 Z M 146.257812 244.191406 " style=" stroke:none;fill-rule:nonzero;fill:rgb(0%,32.54902%,74.901961%);fill-opacity:1;" />
<path d="M 146.257812 284.042969 L 330.746094 284.042969 L 330.746094 299.816406 L 146.257812 299.816406 Z M 146.257812 284.042969 " style=" stroke:none;fill-rule:nonzero;fill:rgb(0%,32.54902%,74.901961%);fill-opacity:1;" />
<path d="M 237.90625 284.042969 L 330.746094 284.042969 L 330.746094 299.816406 L 237.90625 299.816406 Z M 237.90625 284.042969 " style=" stroke:none;fill-rule:nonzero;fill:rgb(15.294118%,28.235294%,56.078431%);fill-opacity:1;" />
<path d="M 146.257812 323.890625 L 330.746094 323.890625 L 330.746094 339.664062 L 146.257812 339.664062 Z M 146.257812 323.890625 " style=" stroke:none;fill-rule:nonzero;fill:rgb(0%,32.54902%,74.901961%);fill-opacity:1;" />
<path d="M 237.90625 323.890625 L 330.746094 323.890625 L 330.746094 339.664062 L 237.90625 339.664062 Z M 237.90625 323.890625 " style=" stroke:none;fill-rule:nonzero;fill:rgb(15.294118%,28.235294%,56.078431%);fill-opacity:1;" />
<path d="M 146.257812 363.742188 L 330.746094 363.742188 L 330.746094 379.515625 L 146.257812 379.515625 Z M 146.257812 363.742188 " style=" stroke:none;fill-rule:nonzero;fill:rgb(0%,32.54902%,74.901961%);fill-opacity:1;" />
<path d="M 237.90625 363.742188 L 330.746094 363.742188 L 330.746094 379.515625 L 237.90625 379.515625 Z M 237.90625 363.742188 " style=" stroke:none;fill-rule:nonzero;fill:rgb(15.294118%,28.235294%,56.078431%);fill-opacity:1;" />
<path d="M 173.632812 152.246094 L 173.632812 93.003906 L 114.386719 152.246094 Z M 173.632812 152.246094 " style=" stroke:none;fill-rule:nonzero;fill:rgb(100%,100%,100%);fill-opacity:1;" />
<path d="M 337.816406 185.699219 C 287.082031 185.699219 243.003906 214.167969 220.667969 256 C 243.003906 297.832031 287.082031 326.300781 337.816406 326.300781 C 388.550781 326.300781 432.632812 297.832031 454.96875 256 C 432.628906 214.167969 388.550781 185.699219 337.816406 185.699219 Z M 337.816406 185.699219 " style=" stroke:none;fill-rule:nonzero;fill:rgb(100%,100%,100%);fill-opacity:1;" />
<path d="M 454.96875 256 C 432.644531 214.191406 388.601562 185.730469 337.90625 185.699219 L 337.90625 326.300781 C 388.601562 326.269531 432.644531 297.808594 454.96875 256 Z M 454.96875 256 " style=" stroke:none;fill-rule:nonzero;fill:rgb(91.372549%,92.941176%,96.078431%);fill-opacity:1;" />
<path d="M 400.523438 256 C 400.523438 290.632812 372.449219 318.707031 337.816406 318.707031 C 303.183594 318.707031 275.109375 290.632812 275.109375 256 C 275.109375 221.367188 303.183594 193.292969 337.816406 193.292969 C 372.449219 193.292969 400.523438 221.367188 400.523438 256 Z M 400.523438 256 " style=" stroke:none;fill-rule:nonzero;fill:rgb(52.941176%,78.039216%,100%);fill-opacity:1;" />
<path d="M 400.523438 256 C 400.523438 221.398438 372.496094 193.34375 337.902344 193.296875 L 337.902344 318.703125 C 372.496094 318.65625 400.523438 290.601562 400.523438 256 Z M 400.523438 256 " style=" stroke:none;fill-rule:nonzero;fill:rgb(39.607843%,69.411765%,98.823529%);fill-opacity:1;" />
<path d="M 374.410156 256 C 374.410156 276.210938 358.027344 292.59375 337.816406 292.59375 C 317.609375 292.59375 301.226562 276.210938 301.226562 256 C 301.226562 235.789062 317.609375 219.40625 337.816406 219.40625 C 358.027344 219.40625 374.410156 235.789062 374.410156 256 Z M 374.410156 256 " style=" stroke:none;fill-rule:nonzero;fill:rgb(25.490196%,28.627451%,32.156863%);fill-opacity:1;" />
<path d="M 374.40625 256 C 374.40625 235.820312 358.074219 219.457031 337.902344 219.410156 L 337.902344 292.589844 C 358.074219 292.542969 374.40625 276.179688 374.40625 256 Z M 374.40625 256 " style=" stroke:none;fill-rule:nonzero;fill:rgb(20%,22.352941%,25.098039%);fill-opacity:1;" />
</g>
</svg>