<?xml version="1.0" encoding="iso-8859-1"?>
<!-- Generator: Adobe Illustrator 19.0.0, SVG Export Plug-In . SVG Version: 6.00 Build 0)  -->
<svg xmlns="http://www.w3.org/2000/svg" xmlns:xlink="http://www.w3.org/1999/xlink" version="1.1" id="Capa_1" x="0px" y="0px" viewBox="0 0 511.993 511.993" style="enable-background:new 0 0 511.993 511.993;" xml:space="preserve">
<circle style="fill:#E57654;" cx="255.997" cy="255.997" r="255.997"/>
<path style="fill:#A2482A;" d="M511.781,245.795l-80.477-80.403h-19.658l-43.951-43.951l-0.009,0.009  c-3.006-2.768-8.882-5.34-17.018-7.599l-27.727-27.727h-64.978H192.65v22.373c-26.725,3.6-44.716,9.355-46.82,15.918l-0.215,56.924  l-15.947-15.947H84.483v80.908l0,0v31.344l45.184,45.093v51.173l23.751,23.751c0.511,4.927,2.923,9.281,6.476,12.345l-0.104,0.104  l101.821,101.822c63.633-1.387,126.848-26.354,175.407-74.914C489.602,384.436,514.511,314.669,511.781,245.795z"/>
<polygon style="fill:#3E3E42;" points="431.304,277.645 362.455,277.645 362.455,258.95 412.497,258.95 412.497,219.172   431.304,219.172 "/>
<rect x="386.104" y="165.39" style="fill:#57565C;" width="45.202" height="80.91"/>
<polygon style="fill:#3E3E42;" points="153.313,277.645 84.483,277.645 84.483,219.172 103.271,219.172 103.271,258.95   153.313,258.95 "/>
<path style="fill:#57565C;" d="M197.082,414.604h-24.847c-10.45,0-18.921-8.472-18.921-18.921v-21.772h62.69v21.772  C216.003,406.132,207.532,414.604,197.082,414.604z"/>
<path style="fill:#2D2E30;" d="M344.457,414.604H319.61c-10.45,0-18.921-8.472-18.921-18.921v-21.772h62.69v21.772  C363.379,406.132,354.907,414.604,344.457,414.604z"/>
<path style="fill:#E5BF2B;" d="M369.762,124.416c-3.55-11.074-52.317-19.847-111.966-19.847s-108.416,8.774-111.966,19.847  l-0.215,129.009h224.362V124.416H369.762z"/>
<path style="fill:#D4B331;" d="M369.977,253.424V124.416h-0.215c-3.55-11.074-52.317-19.847-111.966-19.847v148.856h112.181V253.424  z"/>
<polygon style="fill:#2D2E30;" points="257.796,154.619 257.796,253.856 264.697,253.856 264.697,253.856 345.168,253.856   345.168,154.619 "/>
<rect x="171.713" y="154.623" style="fill:#57565C;" width="86.24" height="99.24"/>
<path style="fill:#F6D433;" d="M385.925,373.911H129.668V266.867c0-22.089,17.907-39.996,39.996-39.996H345.93  c22.089,0,39.996,17.907,39.996,39.996L385.925,373.911z"/>
<rect x="84.48" y="165.39" style="fill:#57565C;" width="45.184" height="80.91"/>
<circle style="fill:#FFFFFF;" cx="175.952" cy="273.559" r="19.706"/>
<path style="fill:#E5BF2B;" d="M344.843,226.871h-87.047v147.04h128.129V267.953C385.925,245.264,367.532,226.871,344.843,226.871z"/>
<circle style="fill:#FFFFFF;" cx="340.919" cy="273.559" r="19.706"/>
<g>
	<rect x="209.926" y="267.344" style="fill:#57565C;" width="97.028" height="16.014"/>
	<rect x="209.926" y="295.134" style="fill:#57565C;" width="97.028" height="16.014"/>
	<rect x="209.926" y="322.924" style="fill:#57565C;" width="97.028" height="16.014"/>
</g>
<rect x="192.649" y="86.122" style="fill:#FFFFFF;" width="130.294" height="45.79"/>
<rect x="257.963" y="86.122" style="fill:#F9ED9D;" width="64.98" height="45.79"/>
<g>
	<path style="fill:#E25F3F;" d="M206.397,110.931l4.753-0.298c0.102,0.772,0.313,1.36,0.628,1.765   c0.515,0.654,1.25,0.981,2.206,0.981c0.713,0,1.263-0.168,1.648-0.502c0.386-0.334,0.579-0.722,0.579-1.163   c0-0.419-0.184-0.794-0.552-1.126c-0.367-0.33-1.22-0.643-2.558-0.937c-2.191-0.493-3.753-1.147-4.687-1.963   c-0.942-0.816-1.411-1.856-1.411-3.12c0-0.832,0.241-1.616,0.722-2.354c0.482-0.739,1.206-1.32,2.172-1.743   c0.967-0.422,2.292-0.633,3.975-0.633c2.065,0,3.64,0.384,4.726,1.152c1.084,0.768,1.729,1.99,1.935,3.667l-4.709,0.276   c-0.125-0.728-0.387-1.258-0.788-1.588c-0.401-0.331-0.954-0.497-1.66-0.497c-0.581,0-1.018,0.123-1.312,0.369   c-0.294,0.247-0.441,0.547-0.441,0.899c0,0.258,0.121,0.49,0.364,0.695c0.235,0.213,0.794,0.411,1.676,0.595   c2.183,0.47,3.748,0.947,4.693,1.428c0.944,0.482,1.631,1.079,2.061,1.793c0.43,0.713,0.645,1.51,0.645,2.393   c0,1.036-0.286,1.992-0.86,2.867c-0.573,0.875-1.375,1.539-2.404,1.99c-1.029,0.451-2.327,0.678-3.892,0.678   c-2.75,0-4.654-0.529-5.712-1.587C207.136,113.909,206.536,112.565,206.397,110.931z"/>
	<path style="fill:#E25F3F;" d="M234.339,109.663l4.378,1.324c-0.294,1.228-0.757,2.253-1.389,3.077s-1.416,1.445-2.353,1.863   c-0.938,0.419-2.131,0.628-3.578,0.628c-1.757,0-3.192-0.255-4.307-0.765c-1.113-0.511-2.075-1.408-2.883-2.693   c-0.809-1.286-1.213-2.931-1.213-4.937c0-2.674,0.711-4.729,2.135-6.165c1.422-1.437,3.435-2.155,6.037-2.155   c2.037,0,3.636,0.411,4.803,1.235c1.165,0.824,2.031,2.088,2.597,3.793l-4.411,0.981c-0.154-0.493-0.317-0.853-0.486-1.08   c-0.279-0.383-0.621-0.677-1.026-0.883c-0.404-0.206-0.857-0.309-1.356-0.309c-1.133,0-1.999,0.455-2.602,1.366   c-0.455,0.676-0.683,1.737-0.683,3.183c0,1.792,0.271,3.019,0.816,3.685c0.545,0.666,1.309,0.997,2.293,0.997   c0.956,0,1.678-0.268,2.167-0.806C233.765,111.464,234.119,110.685,234.339,109.663z"/>
	<path style="fill:#E25F3F;" d="M241.166,100.113h4.995v5.657h5.459v-5.657h5.018v16.166h-5.018v-6.539h-5.459v6.539h-4.995V100.113   z"/>
	<path style="fill:#E25F3F;" d="M259.328,108.208c0-2.639,0.735-4.695,2.206-6.164c1.47-1.471,3.517-2.206,6.141-2.206   c2.69,0,4.764,0.722,6.221,2.166c1.455,1.446,2.183,3.468,2.183,6.071c0,1.889-0.318,3.439-0.954,4.648   c-0.636,1.21-1.555,2.151-2.757,2.823c-1.202,0.673-2.699,1.008-4.493,1.008c-1.824,0-3.332-0.29-4.526-0.871   c-1.196-0.58-2.164-1.5-2.906-2.757C259.699,111.671,259.328,110.097,259.328,108.208z M264.324,108.23   c0,1.632,0.303,2.805,0.91,3.517c0.607,0.713,1.433,1.07,2.476,1.07c1.073,0,1.904-0.349,2.492-1.047   c0.589-0.698,0.883-1.952,0.883-3.76c0-1.522-0.307-2.633-0.921-3.336c-0.614-0.702-1.447-1.053-2.498-1.053   c-1.007,0-1.816,0.357-2.426,1.07C264.627,105.404,264.324,106.584,264.324,108.23z"/>
	<path style="fill:#E25F3F;" d="M278.141,108.208c0-2.639,0.735-4.695,2.206-6.164c1.47-1.471,3.517-2.206,6.141-2.206   c2.69,0,4.764,0.722,6.221,2.166c1.455,1.446,2.183,3.468,2.183,6.071c0,1.889-0.318,3.439-0.954,4.648   c-0.636,1.21-1.555,2.151-2.757,2.823c-1.202,0.673-2.699,1.008-4.493,1.008c-1.824,0-3.332-0.29-4.526-0.871   c-1.196-0.58-2.164-1.5-2.906-2.757C278.511,111.671,278.141,110.097,278.141,108.208z M283.136,108.23   c0,1.632,0.303,2.805,0.91,3.517c0.607,0.713,1.432,1.07,2.476,1.07c1.073,0,1.904-0.349,2.492-1.047   c0.589-0.698,0.883-1.952,0.883-3.76c0-1.522-0.307-2.633-0.921-3.336c-0.614-0.702-1.447-1.053-2.498-1.053   c-1.007,0-1.816,0.357-2.426,1.07C283.441,105.404,283.136,106.584,283.136,108.23z"/>
	<path style="fill:#E25F3F;" d="M297.581,100.113h4.995v12.186h7.796v3.981h-12.791V100.113z"/>
</g>
<rect x="129.665" y="337.399" style="fill:#2D2E30;" width="256.262" height="36.512"/>
<rect x="258.445" y="337.399" style="fill:#1D1D1F;" width="127.482" height="36.512"/>
<rect x="169.294" y="300.395" style="fill:#DF871E;" width="13.301" height="29.49"/>
<rect x="334.272" y="300.395" style="fill:#A16125;" width="13.301" height="29.49"/>
<g>
</g>
<g>
</g>
<g>
</g>
<g>
</g>
<g>
</g>
<g>
</g>
<g>
</g>
<g>
</g>
<g>
</g>
<g>
</g>
<g>
</g>
<g>
</g>
<g>
</g>
<g>
</g>
<g>
</g>
</svg>
