<svg xmlns="http://www.w3.org/2000/svg" height="512pt" version="1.1" viewBox="0 0 512 512" width="512pt">
<g id="surface1">
<path d="M 512 256 C 512 397.386719 397.386719 512 256 512 C 114.613281 512 0 397.386719 0 256 C 0 114.613281 114.613281 0 256 0 C 397.386719 0 512 114.613281 512 256 Z M 512 256 " style=" stroke:none;fill-rule:nonzero;fill:rgb(25.490196%,28.627451%,32.156863%);fill-opacity:1;" />
<path d="M 512 256 C 512 237.882812 510.105469 220.207031 506.527344 203.152344 L 384.992188 81.621094 L 127.007812 425 L 209.847656 507.839844 C 224.820312 510.566406 240.242188 512 256 512 C 397.386719 512 512 397.386719 512 256 Z M 512 256 " style=" stroke:none;fill-rule:nonzero;fill:rgb(13.72549%,15.294118%,16.862745%);fill-opacity:1;" />
<path d="M 127.007812 81.621094 L 384.992188 81.621094 L 384.992188 425 L 127.007812 425 Z M 127.007812 81.621094 " style=" stroke:none;fill-rule:nonzero;fill:rgb(100%,100%,100%);fill-opacity:1;" />
<path d="M 256.355469 81.621094 L 384.992188 81.621094 L 384.992188 425 L 256.355469 425 Z M 256.355469 81.621094 " style=" stroke:none;fill-rule:nonzero;fill:rgb(94.901961%,96.470588%,98.823529%);fill-opacity:1;" />
<path d="M 153.492188 103.742188 L 358.507812 103.742188 L 358.507812 187.738281 L 153.492188 187.738281 Z M 153.492188 103.742188 " style=" stroke:none;fill-rule:nonzero;fill:rgb(0%,92.941176%,100%);fill-opacity:1;" />
<path d="M 256.355469 103.742188 L 358.507812 103.742188 L 358.507812 187.738281 L 256.355469 187.738281 Z M 256.355469 103.742188 " style=" stroke:none;fill-rule:nonzero;fill:rgb(2.745098%,74.509804%,90.980392%);fill-opacity:1;" />
<path d="M 154 203 L 205.097656 203 L 205.097656 254.097656 L 154 254.097656 Z M 154 203 " style=" stroke:none;fill-rule:nonzero;fill:rgb(80.392157%,82.352941%,88.235294%);fill-opacity:1;" />
<path d="M 307.410156 203 L 358.507812 203 L 358.507812 254.097656 L 307.410156 254.097656 Z M 307.410156 203 " style=" stroke:none;fill-rule:nonzero;fill:rgb(98.039216%,36.470588%,5.882353%);fill-opacity:1;" />
<path d="M 230.453125 203 L 281.546875 203 L 281.546875 254.097656 L 230.453125 254.097656 Z M 230.453125 203 " style=" stroke:none;fill-rule:nonzero;fill:rgb(80.392157%,82.352941%,88.235294%);fill-opacity:1;" />
<path d="M 256.355469 203 L 281.546875 203 L 281.546875 254.097656 L 256.355469 254.097656 Z M 256.355469 203 " style=" stroke:none;fill-rule:nonzero;fill:rgb(74.509804%,76.470588%,82.352941%);fill-opacity:1;" />
<path d="M 154 273.667969 L 205.097656 273.667969 L 205.097656 324.761719 L 154 324.761719 Z M 154 273.667969 " style=" stroke:none;fill-rule:nonzero;fill:rgb(80.392157%,82.352941%,88.235294%);fill-opacity:1;" />
<path d="M 307.410156 273.667969 L 358.507812 273.667969 L 358.507812 324.761719 L 307.410156 324.761719 Z M 307.410156 273.667969 " style=" stroke:none;fill-rule:nonzero;fill:rgb(29.019608%,47.843137%,100%);fill-opacity:1;" />
<path d="M 230.453125 273.667969 L 281.546875 273.667969 L 281.546875 324.761719 L 230.453125 324.761719 Z M 230.453125 273.667969 " style=" stroke:none;fill-rule:nonzero;fill:rgb(80.392157%,82.352941%,88.235294%);fill-opacity:1;" />
<path d="M 256.355469 273.667969 L 281.546875 273.667969 L 281.546875 324.761719 L 256.355469 324.761719 Z M 256.355469 273.667969 " style=" stroke:none;fill-rule:nonzero;fill:rgb(74.509804%,76.470588%,82.352941%);fill-opacity:1;" />
<path d="M 154 344.332031 L 205.097656 344.332031 L 205.097656 395.429688 L 154 395.429688 Z M 154 344.332031 " style=" stroke:none;fill-rule:nonzero;fill:rgb(80.392157%,82.352941%,88.235294%);fill-opacity:1;" />
<path d="M 307.410156 344.332031 L 358.507812 344.332031 L 358.507812 395.429688 L 307.410156 395.429688 Z M 307.410156 344.332031 " style=" stroke:none;fill-rule:nonzero;fill:rgb(29.019608%,47.843137%,100%);fill-opacity:1;" />
<path d="M 230.453125 344.332031 L 281.546875 344.332031 L 281.546875 395.429688 L 230.453125 395.429688 Z M 230.453125 344.332031 " style=" stroke:none;fill-rule:nonzero;fill:rgb(80.392157%,82.352941%,88.235294%);fill-opacity:1;" />
<path d="M 256.355469 344.332031 L 281.546875 344.332031 L 281.546875 395.429688 L 256.355469 395.429688 Z M 256.355469 344.332031 " style=" stroke:none;fill-rule:nonzero;fill:rgb(74.509804%,76.470588%,82.352941%);fill-opacity:1;" />
</g>
</svg>