<?xml version="1.0" encoding="iso-8859-1"?>
<!-- Generator: Adobe Illustrator 19.0.0, SVG Export Plug-In . SVG Version: 6.00 Build 0)  -->
<svg version="1.1" id="Capa_1" xmlns="http://www.w3.org/2000/svg" xmlns:xlink="http://www.w3.org/1999/xlink" x="0px" y="0px"
	 viewBox="0 0 512 512" style="enable-background:new 0 0 512 512;" xml:space="preserve">
<circle style="fill:#47D7FD;" cx="256" cy="256" r="256"/>
<path style="fill:#0FADF5;" d="M350.702,107.595L213.503,432.292l77.338,77.338c120.833-16.446,214.852-117.188,220.848-241.048
	L350.702,107.595z"/>
<path style="fill:#FEE17A;" d="M382.053,190.781c0-69.921-56.929-126.545-126.964-126.05
	c-67.428,0.477-122.99,54.646-125.08,122.044c-1.184,38.193,14.63,72.714,40.444,96.577c17.053,15.764,26.452,38.142,26.452,61.365
	v26.134c0,32.637,26.458,59.095,59.095,59.095l0,0c32.637,0,59.095-26.458,59.095-59.095v-26.134
	c0-23.602,10.056-45.938,27.249-62.107C366.788,259.621,382.053,226.986,382.053,190.781z"/>
<path style="fill:#FCC55F;" d="M255.952,64.736v365.208c0.016,0,0.032,0.001,0.048,0.001l0,0c32.637,0,59.095-26.458,59.095-59.095
	v-26.134c0-23.602,10.056-45.938,27.249-62.107c24.444-22.989,39.709-55.624,39.709-91.829
	C382.053,121.149,325.591,64.711,255.952,64.736z"/>
<path style="fill:#FE6D00;" d="M287.259,394.269H224.74l-28.198-207.292h118.915L287.259,394.269z M242.205,374.269h27.591
	l22.757-167.292h-73.104L242.205,374.269z"/>
<polygon style="fill:#E55100;" points="315.458,186.977 255.952,186.977 255.952,206.977 292.552,206.977 269.795,374.269 
	255.952,374.269 255.952,394.269 287.259,394.269 "/>
<path style="fill:#FEF5E0;" d="M196.905,365.099v26.134c0,32.637,26.458,59.095,59.095,59.095l0,0
	c32.637,0,59.095-26.458,59.095-59.095v-26.134H196.905z"/>
<path style="fill:#FEDFB1;" d="M255.952,365.099v85.228c0.016,0,0.032,0.001,0.048,0.001l0,0c32.637,0,59.095-26.458,59.095-59.095
	v-26.134H255.952z"/>
<g>
</g>
<g>
</g>
<g>
</g>
<g>
</g>
<g>
</g>
<g>
</g>
<g>
</g>
<g>
</g>
<g>
</g>
<g>
</g>
<g>
</g>
<g>
</g>
<g>
</g>
<g>
</g>
<g>
</g>
</svg>
