<svg xmlns="http://www.w3.org/2000/svg" height="512pt" version="1.1" viewBox="0 0 512 512" width="512pt">
<g id="surface1">
<path d="M 512 256 C 512 397.386719 397.386719 512 256 512 C 114.613281 512 0 397.386719 0 256 C 0 114.613281 114.613281 0 256 0 C 397.386719 0 512 114.613281 512 256 Z M 512 256 " style=" stroke:none;fill-rule:nonzero;fill:rgb(0%,92.941176%,100%);fill-opacity:1;" />
<path d="M 511.859375 264.144531 L 414.019531 166.308594 L 397.472656 207.902344 L 290.761719 101.195312 L 112.171875 326.265625 L 143.527344 357.625 L 127.820312 368.453125 L 159.28125 399.917969 L 147.164062 467.664062 L 180.039062 500.539062 C 204.039062 507.988281 229.550781 512 256 512 C 394.65625 512 507.554688 401.757812 511.859375 264.144531 Z M 511.859375 264.144531 " style=" stroke:none;fill-rule:nonzero;fill:rgb(2.745098%,74.509804%,90.980392%);fill-opacity:1;" />
<path d="M 147.167969 317.667969 L 162.167969 317.667969 L 162.167969 467.667969 L 147.167969 467.667969 Z M 147.167969 317.667969 " style=" stroke:none;fill-rule:nonzero;fill:rgb(98.039216%,36.470588%,5.882353%);fill-opacity:1;" />
<path d="M 153.976562 317.667969 L 162.167969 317.667969 L 162.167969 467.667969 L 153.976562 467.667969 Z M 153.976562 317.667969 " style=" stroke:none;fill-rule:nonzero;fill:rgb(93.72549%,21.960784%,0%);fill-opacity:1;" />
<path d="M 216.558594 279 L 231.558594 279 L 231.558594 459 L 216.558594 459 Z M 216.558594 279 " style=" stroke:none;fill-rule:nonzero;fill:rgb(98.039216%,36.470588%,5.882353%);fill-opacity:1;" />
<path d="M 223.023438 279 L 231.558594 279 L 231.558594 459 L 223.023438 459 Z M 223.023438 279 " style=" stroke:none;fill-rule:nonzero;fill:rgb(93.72549%,21.960784%,0%);fill-opacity:1;" />
<path d="M 337.5 317.667969 L 352.5 317.667969 L 352.5 467.667969 L 337.5 467.667969 Z M 337.5 317.667969 " style=" stroke:none;fill-rule:nonzero;fill:rgb(100%,100%,100%);fill-opacity:1;" />
<path d="M 345.046875 317.667969 L 352.5 317.667969 L 352.5 467.667969 L 345.046875 467.667969 Z M 345.046875 317.667969 " style=" stroke:none;fill-rule:nonzero;fill:rgb(94.901961%,96.470588%,98.823529%);fill-opacity:1;" />
<path d="M 237.667969 222.140625 C 237.667969 172.105469 200.507812 131.546875 154.667969 131.546875 C 108.828125 131.546875 71.667969 172.105469 71.667969 222.140625 C 71.667969 267.273438 101.902344 333.863281 141.46875 346.480469 L 127.820312 368.453125 L 181.515625 368.429688 L 167.871094 346.480469 C 207.433594 333.855469 237.667969 267.273438 237.667969 222.140625 Z M 237.667969 222.140625 " style=" stroke:none;fill-rule:nonzero;fill:rgb(100%,100%,100%);fill-opacity:1;" />
<path d="M 237.667969 222.144531 C 237.667969 172.109375 200.507812 131.546875 154.667969 131.546875 C 154.4375 131.546875 154.207031 131.554688 153.976562 131.558594 L 153.976562 368.441406 L 181.515625 368.433594 L 167.871094 346.480469 C 207.433594 333.855469 237.667969 267.269531 237.667969 222.144531 Z M 237.667969 222.144531 " style=" stroke:none;fill-rule:nonzero;fill:rgb(94.901961%,96.470588%,98.823529%);fill-opacity:1;" />
<path d="M 310.734375 161.605469 C 310.734375 109.355469 271.929688 67 224.058594 67 C 176.191406 67 137.382812 109.355469 137.382812 161.605469 C 137.382812 208.734375 168.957031 278.273438 210.277344 291.453125 L 196.023438 314.394531 L 252.09375 314.371094 L 237.847656 291.449219 C 279.164062 278.265625 310.734375 208.734375 310.734375 161.605469 Z M 310.734375 161.605469 " style=" stroke:none;fill-rule:nonzero;fill:rgb(29.019608%,47.843137%,100%);fill-opacity:1;" />
<path d="M 310.734375 161.605469 C 310.734375 109.355469 271.929688 67 224.058594 67 C 223.714844 67 223.367188 67.011719 223.023438 67.015625 L 223.023438 314.382812 L 252.09375 314.371094 L 237.847656 291.449219 C 279.164062 278.265625 310.734375 208.734375 310.734375 161.605469 Z M 310.734375 161.605469 " style=" stroke:none;fill-rule:nonzero;fill:rgb(15.686275%,39.215686%,94.117647%);fill-opacity:1;" />
<path d="M 428 216.636719 C 428 166.601562 390.839844 126.042969 345 126.042969 C 299.160156 126.042969 262 166.601562 262 216.636719 C 262 261.769531 292.234375 328.359375 331.800781 340.976562 L 318.152344 362.949219 L 371.847656 362.925781 L 358.203125 340.976562 C 397.769531 328.351562 428 261.765625 428 216.636719 Z M 428 216.636719 " style=" stroke:none;fill-rule:nonzero;fill:rgb(98.039216%,36.470588%,5.882353%);fill-opacity:1;" />
<path d="M 428 216.636719 C 428 166.621094 390.863281 126.070312 345.046875 126.042969 L 345.046875 362.9375 L 371.847656 362.925781 L 358.203125 340.976562 C 397.769531 328.351562 428 261.765625 428 216.636719 Z M 428 216.636719 " style=" stroke:none;fill-rule:nonzero;fill:rgb(93.72549%,21.960784%,0%);fill-opacity:1;" />
</g>
</svg>