<?xml version="1.0" encoding="iso-8859-1"?>
<!-- Generator: Adobe Illustrator 19.0.0, SVG Export Plug-In . SVG Version: 6.00 Build 0)  -->
<svg xmlns="http://www.w3.org/2000/svg" xmlns:xlink="http://www.w3.org/1999/xlink" version="1.1" id="Capa_1" x="0px" y="0px" viewBox="0 0 512.007 512.007" style="enable-background:new 0 0 512.007 512.007;" xml:space="preserve">
<circle style="fill:#5A7EBF;" cx="256.003" cy="256.003" r="256.003"/>
<path style="fill:#4360AC;" d="M511.21,235.814L379.572,104.175l0,0H131.114v301.679l105.414,105.414  c6.428,0.483,12.921,0.733,19.472,0.733c141.385,0,256-114.615,256-256C512,249.206,511.73,242.474,511.21,235.814z"/>
<rect x="131.112" y="104.178" style="fill:#57565C;" width="248.461" height="301.679"/>
<rect x="255.658" y="104.178" style="fill:#3E3E42;" width="123.905" height="301.679"/>
<rect x="162.345" y="133.419" style="fill:#2D2E30;" width="186.006" height="49.952"/>
<rect x="255.658" y="133.419" style="fill:#1D1D1F;" width="92.683" height="49.952"/>
<g>
	<rect x="162.345" y="208.454" style="fill:#C6C5CA;" width="44.036" height="44.036"/>
	<rect x="304.312" y="208.454" style="fill:#C6C5CA;" width="44.036" height="44.036"/>
</g>
<rect x="326.326" y="208.454" style="fill:#ACACB2;" width="22.018" height="44.036"/>
<rect x="233.328" y="208.454" style="fill:#C6C5CA;" width="44.036" height="44.036"/>
<rect x="255.658" y="208.454" style="fill:#ACACB2;" width="21.699" height="44.036"/>
<g>
	<rect x="162.345" y="273.523" style="fill:#C6C5CA;" width="44.036" height="44.036"/>
	<rect x="233.328" y="273.523" style="fill:#C6C5CA;" width="44.036" height="44.036"/>
</g>
<rect x="255.658" y="273.523" style="fill:#ACACB2;" width="21.699" height="44.036"/>
<rect x="162.345" y="337.605" style="fill:#C6C5CA;" width="44.036" height="44.036"/>
<g>
	<rect x="184.36" y="208.454" style="fill:#ACACB2;" width="22.018" height="44.036"/>
	<rect x="184.36" y="273.523" style="fill:#ACACB2;" width="22.018" height="44.036"/>
	<rect x="184.36" y="337.605" style="fill:#ACACB2;" width="22.018" height="44.036"/>
</g>
<path style="fill:#F7DC4D;" d="M304.309,273.526c0,10.121,0,96.634,0,108.118h44.036c0-12.776,0-96.606,0-108.118H304.309z"/>
<path style="fill:#F6CE23;" d="M326.326,273.526c0,10.121,0,96.634,0,108.118h22.018c0-12.776,0-96.606,0-108.118H326.326z"/>
<rect x="233.328" y="337.605" style="fill:#C6C5CA;" width="44.036" height="44.036"/>
<rect x="255.658" y="337.605" style="fill:#ACACB2;" width="21.699" height="44.036"/>
<g>
</g>
<g>
</g>
<g>
</g>
<g>
</g>
<g>
</g>
<g>
</g>
<g>
</g>
<g>
</g>
<g>
</g>
<g>
</g>
<g>
</g>
<g>
</g>
<g>
</g>
<g>
</g>
<g>
</g>
</svg>
