<?xml version="1.0" encoding="iso-8859-1"?>
<!-- Generator: Adobe Illustrator 19.0.0, SVG Export Plug-In . SVG Version: 6.00 Build 0)  -->
<svg version="1.1" id="Capa_1" xmlns="http://www.w3.org/2000/svg" xmlns:xlink="http://www.w3.org/1999/xlink" x="0px" y="0px"
	 viewBox="0 0 512 512" style="enable-background:new 0 0 512 512;" xml:space="preserve">
<circle style="fill:#1B56DB;" cx="256" cy="256" r="256"/>
<path style="fill:#1149AA;" d="M512,256c0-7.367-0.329-14.656-0.939-21.865L381.457,104.531L204.04,122.329L88.69,241.619
	l102.039,142.417l-32.636,53.034l73.791,73.791C239.824,511.603,247.865,512,256,512C397.385,512,512,397.385,512,256z"/>
<polygon style="fill:#FEC007;" points="203.051,428.184 63.372,239.277 204.923,97.727 224.015,116.819 98.909,241.925 
	224.761,412.131 "/>
<circle style="fill:#FFDE1F;" cx="294.2" cy="163.85" r="52.4"/>
<path style="fill:#F9C41E;" d="M257.146,200.903c20.273,20.273,53.017,20.448,73.521,0.551l-74.072-74.072
	C236.698,147.885,236.873,180.63,257.146,200.903z"/>
<rect x="198.637" y="69.149" transform="matrix(-0.7071 0.7071 -0.7071 -0.7071 470.4146 10.5354)" style="fill:#FEAA00;" width="68.777" height="67.089"/>
<g>
	
		<rect x="203.802" y="81.585" transform="matrix(-0.7071 0.7071 -0.7071 -0.7071 457.9907 40.5525)" style="fill:#FE8E00;" width="33.59" height="67.089"/>
	<path style="fill:#FE8E00;" d="M234.875,251.113c-40.477-40.477-40.477-106.104,0-146.582s106.104-40.478,146.582,0
		L234.875,251.113z"/>
</g>
<path style="fill:#FE6F00;" d="M234.875,251.113l72.726-72.726l-73.284-73.284C194.405,145.625,194.587,210.824,234.875,251.113z"/>
<rect x="158.09" y="397.04" style="fill:#FE8E00;" width="182.66" height="40.03"/>
<rect x="248.21" y="397.04" style="fill:#FE6F00;" width="92.54" height="40.03"/>
<g>
</g>
<g>
</g>
<g>
</g>
<g>
</g>
<g>
</g>
<g>
</g>
<g>
</g>
<g>
</g>
<g>
</g>
<g>
</g>
<g>
</g>
<g>
</g>
<g>
</g>
<g>
</g>
<g>
</g>
</svg>
