<svg xmlns="http://www.w3.org/2000/svg" height="512pt" version="1.1" viewBox="0 0 512 512" width="512pt">
<g id="surface1">
<path d="M 512 256 C 512 397.386719 397.386719 512 256 512 C 114.613281 512 0 397.386719 0 256 C 0 114.613281 114.613281 0 256 0 C 397.386719 0 512 114.613281 512 256 Z M 512 256 " style=" stroke:none;fill-rule:nonzero;fill:rgb(100%,83.137255%,0%);fill-opacity:1;" />
<path d="M 512 256 C 512 247.714844 511.589844 239.527344 510.820312 231.445312 L 431.101562 151.726562 L 420.933594 170.691406 L 332.730469 82.488281 L 296.117188 82.488281 L 239.328125 170.5 L 175.5 172 L 157.445312 214.652344 L 89.074219 241.652344 L 152.972656 305.546875 L 100 324 L 87.34375 374.328125 L 222.886719 509.871094 C 233.726562 511.273438 244.777344 512 256 512 C 397.386719 512 512 397.386719 512 256 Z M 512 256 " style=" stroke:none;fill-rule:nonzero;fill:rgb(99.215686%,72.941176%,7.058824%);fill-opacity:1;" />
<path d="M 363.941406 231.683594 L 381.367188 214.257812 C 386.757812 216.867188 392.796875 218.332031 399.175781 218.332031 C 421.765625 218.332031 440.148438 199.953125 440.148438 177.359375 C 440.148438 154.765625 421.765625 136.386719 399.175781 136.386719 C 376.582031 136.386719 358.199219 154.769531 358.199219 177.359375 C 358.199219 183.738281 359.667969 189.777344 362.277344 195.164062 L 341.480469 215.960938 L 286.554688 215.960938 L 260.066406 170.082031 L 283.457031 146.691406 C 289.296875 149.898438 295.992188 151.726562 303.109375 151.726562 C 325.703125 151.726562 344.082031 133.34375 344.082031 110.753906 C 344.082031 88.160156 325.703125 69.78125 303.109375 69.78125 C 280.515625 69.78125 262.136719 88.160156 262.136719 110.753906 C 262.136719 116.378906 263.277344 121.742188 265.339844 126.628906 L 237.605469 154.359375 L 179.171875 154.359375 L 144.113281 119.304688 L 125.023438 138.398438 L 156.707031 170.082031 L 130.976562 214.652344 L 89.074219 214.652344 L 89.074219 241.652344 L 130.980469 241.652344 L 156.710938 286.21875 L 134.277344 308.652344 C 128.890625 306.042969 122.851562 304.574219 116.472656 304.574219 C 93.878906 304.574219 75.5 322.957031 75.5 345.550781 C 75.5 368.140625 93.878906 386.519531 116.472656 386.519531 C 139.066406 386.519531 157.445312 368.140625 157.445312 345.550781 C 157.445312 339.171875 155.980469 333.132812 153.371094 327.742188 L 179.171875 301.941406 L 234.097656 301.941406 L 260.585938 347.820312 L 243.160156 365.246094 C 237.773438 362.636719 231.730469 361.167969 225.355469 361.167969 C 202.761719 361.167969 184.382812 379.550781 184.382812 402.140625 C 184.382812 424.734375 202.761719 443.113281 225.355469 443.113281 C 247.949219 443.113281 266.328125 424.734375 266.328125 402.140625 C 266.328125 395.765625 264.863281 389.722656 262.253906 384.335938 L 283.050781 363.539062 L 341.480469 363.539062 L 375.8125 397.871094 L 394.90625 378.78125 L 363.945312 347.820312 L 389.675781 303.25 L 432.953125 303.25 L 432.953125 276.25 L 389.675781 276.25 Z M 399.175781 163.386719 C 406.878906 163.386719 413.148438 169.65625 413.148438 177.359375 C 413.148438 185.066406 406.878906 191.332031 399.175781 191.332031 C 391.46875 191.332031 385.199219 185.066406 385.199219 177.359375 C 385.199219 169.65625 391.46875 163.386719 399.175781 163.386719 Z M 303.109375 96.78125 C 310.816406 96.78125 317.085938 103.046875 317.085938 110.753906 C 317.085938 118.457031 310.816406 124.726562 303.109375 124.726562 C 295.40625 124.726562 289.136719 118.457031 289.136719 110.753906 C 289.140625 103.046875 295.40625 96.78125 303.109375 96.78125 Z M 181.375 181.359375 L 235.402344 181.359375 L 262.417969 228.152344 L 235.402344 274.941406 L 181.375 274.941406 L 154.363281 228.152344 Z M 116.472656 359.519531 C 108.769531 359.519531 102.5 353.253906 102.5 345.550781 C 102.5 337.84375 108.769531 331.574219 116.472656 331.574219 C 124.175781 331.574219 130.445312 337.84375 130.445312 345.550781 C 130.445312 353.253906 124.175781 359.519531 116.472656 359.519531 Z M 225.355469 416.113281 C 217.648438 416.113281 211.382812 409.847656 211.382812 402.140625 C 211.382812 394.4375 217.648438 388.167969 225.355469 388.167969 C 233.058594 388.167969 239.328125 394.4375 239.328125 402.140625 C 239.328125 409.847656 233.058594 416.113281 225.355469 416.113281 Z M 339.277344 336.539062 L 285.25 336.539062 L 258.234375 289.75 L 285.25 242.960938 L 339.277344 242.960938 L 366.292969 289.75 Z M 339.277344 336.539062 " style=" stroke:none;fill-rule:nonzero;fill:rgb(29.019608%,47.843137%,100%);fill-opacity:1;" />
<path d="M 363.941406 231.683594 L 381.367188 214.257812 C 386.757812 216.867188 392.796875 218.332031 399.175781 218.332031 C 421.765625 218.332031 440.148438 199.953125 440.148438 177.359375 C 440.148438 154.765625 421.765625 136.386719 399.175781 136.386719 C 376.582031 136.386719 358.199219 154.769531 358.199219 177.359375 C 358.199219 183.738281 359.667969 189.777344 362.277344 195.164062 L 341.480469 215.960938 L 286.554688 215.960938 L 260.066406 170.082031 L 283.457031 146.691406 C 289.296875 149.898438 295.992188 151.726562 303.109375 151.726562 C 325.703125 151.726562 344.082031 133.34375 344.082031 110.753906 C 344.082031 88.160156 325.703125 69.78125 303.109375 69.78125 C 280.515625 69.78125 262.136719 88.160156 262.136719 110.753906 C 262.136719 116.378906 263.277344 121.742188 265.339844 126.628906 L 255.761719 136.203125 L 255.761719 216.621094 L 262.414062 228.148438 L 255.761719 239.675781 L 255.761719 339.464844 L 260.585938 347.816406 L 255.761719 352.640625 L 255.761719 429.570312 C 262.324219 422.300781 266.324219 412.679688 266.324219 402.140625 C 266.324219 395.765625 264.859375 389.722656 262.25 384.335938 L 283.046875 363.539062 L 341.480469 363.539062 L 375.8125 397.871094 L 394.902344 378.777344 L 363.941406 347.816406 L 389.675781 303.25 L 432.949219 303.25 L 432.949219 276.25 L 389.675781 276.25 Z M 399.175781 163.386719 C 406.878906 163.386719 413.148438 169.65625 413.148438 177.359375 C 413.148438 185.066406 406.878906 191.332031 399.175781 191.332031 C 391.46875 191.332031 385.199219 185.066406 385.199219 177.359375 C 385.199219 169.65625 391.46875 163.386719 399.175781 163.386719 Z M 303.109375 96.78125 C 310.816406 96.78125 317.085938 103.046875 317.085938 110.753906 C 317.085938 118.457031 310.816406 124.726562 303.109375 124.726562 C 295.40625 124.726562 289.136719 118.457031 289.136719 110.753906 C 289.140625 103.046875 295.40625 96.78125 303.109375 96.78125 Z M 339.277344 336.539062 L 285.25 336.539062 L 258.234375 289.75 L 285.25 242.960938 L 339.277344 242.960938 L 366.292969 289.75 Z M 339.277344 336.539062 " style=" stroke:none;fill-rule:nonzero;fill:rgb(15.686275%,39.215686%,94.117647%);fill-opacity:1;" />
</g>
</svg>