<svg height="512pt" viewBox="0 0 512 512" width="512pt" xmlns="http://www.w3.org/2000/svg"><path d="m512 256c0 141.386719-114.613281 256-256 256s-256-114.613281-256-256 114.613281-256 256-256 256 114.613281 256 256zm0 0" fill="#fdbf00"/><path d="m156.667969 127-47.691407-47.984375-13.34375 13.34375 18.9375 18.941406-9.480468 9.476563 156.65625 156.65625-2.90625 2.90625 49.34375 49.34375-110.09375 110.09375 71.84375 71.839844c134.902344-7.234376 242.066406-118.90625 242.066406-255.617188 0-13.585938-1.066406-26.917969-3.105469-39.929688l-92.890625-92.894531zm0 0" fill="#ff9f00"/><path d="m335.160156 328.542969v57.296875c0 43.652344-35.507812 79.160156-79.160156 79.160156s-79.160156-35.507812-79.160156-79.160156v-57.296875l33.699218-22.617188h104.039063zm0 0" fill="#2fc0f0"/><path d="m314.578125 305.925781 20.582031 22.617188v57.296875c0 43.652344-35.507812 79.160156-79.160156 79.160156v-159.074219zm0 0" fill="#0d91bd"/><path d="m425.628906 146.851562c0 18.773438-15.152344 33.925782-33.925781 33.925782h-113.085937c-6.332032 0-11.308594 4.976562-11.308594 11.308594v57.296874h-22.617188v-57.296874c0-9.949219 4.296875-18.996094 11.308594-25.105469 5.882812-5.425781 13.796875-8.820313 22.617188-8.820313h113.085937c6.332031 0 11.308594-4.972656 11.308594-11.308594 0-6.332031-4.976563-11.308593-11.308594-11.308593h-248.789063c-31.210937 0-56.542968-25.332031-56.542968-56.542969h22.617187c0 18.773438 15.152344 33.925781 33.925781 33.925781h248.789063c18.773437 0 33.925781 15.152344 33.925781 33.925781zm0 0" fill="#68544f"/><path d="m425.628906 146.851562c0 18.773438-15.152344 33.925782-33.925781 33.925782h-113.085937c-6.332032 0-11.308594 4.976562-11.308594 11.308594v57.296874h-11.308594v-82.402343c5.882812-5.425781 13.796875-8.820313 22.617188-8.820313h113.085937c6.332031 0 11.308594-4.972656 11.308594-11.308594 0-6.332031-4.976563-11.308593-11.308594-11.308593h-135.703125v-22.617188h135.703125c18.773437 0 33.925781 15.152344 33.925781 33.925781zm0 0" fill="#53433f"/><path d="m311.863281 261.371094c-12.210937-12.441406-27.816406-20.128906-44.554687-22.390625-3.84375-.679688-7.464844-.90625-11.308594-.90625s-7.691406.226562-11.308594.90625c-38.222656 5.425781-67.851562 38.449219-67.851562 78.253906v11.308594h158.320312v-11.308594c0-21.035156-8.140625-40.9375-23.296875-55.863281zm0 0" fill="#e7e7e7"/><path d="m335.160156 317.234375v11.308594h-79.160156v-90.46875c3.84375 0 7.464844.226562 11.308594.902343 16.738281 2.265626 32.34375 9.953126 44.554687 22.394532 15.15625 14.925781 23.296875 34.828125 23.296875 55.863281zm0 0" fill="#d3d3d8"/><path d="m267.308594 238.976562v89.566407h-22.617188v-89.566407c3.617188-.675781 7.464844-.902343 11.308594-.902343s7.464844.226562 11.308594.902343zm0 0" fill="#d3d3d8"/><path d="m267.308594 238.976562v89.566407h-11.308594v-90.46875c3.84375 0 7.464844.226562 11.308594.902343zm0 0" fill="#babac0"/></svg>