<svg height="512pt" viewBox="0 0 512 512" width="512pt" xmlns="http://www.w3.org/2000/svg"><path d="m512 256c0 141.386719-114.613281 256-256 256s-256-114.613281-256-256 114.613281-256 256-256 256 114.613281 256 256zm0 0" fill="#811c26"/><path d="m510.859375 280.144531-124.628906-124.628906-194.5625 121.484375-90 103.9375 129.894531 129.894531c8.046875.761719 16.195312 1.167969 24.4375 1.167969 133.242188 0 242.691406-101.796875 254.859375-231.855469zm0 0" fill="#442236"/><path d="m383.199219 222.804688v65.867187h-86.300781l-10.066407-65.867187zm0 0" fill="#98d9d5"/><path d="m186.609375 222.804688h110.289063v65.867187h-110.289063zm0 0" fill="#c1e8e6"/><path d="m373.132812 222.804688h20.128907v87.230468h-20.128907zm0 0" fill="#98d9d5"/><path d="m200.03125 360.363281-98.363281-20.132812v-104.003907l98.363281-20.132812zm0 0" fill="#ff8430"/><path d="m164.269531 288.675781c0 7.410157-6.007812 13.417969-13.417969 13.417969-7.414062 0-13.421874-6.007812-13.421874-13.417969 0-7.414062 6.007812-13.421875 13.421874-13.421875 7.410157 0 13.417969 6.007813 13.417969 13.421875zm0 0" fill="#c1e8e6"/><path d="m200.03125 340.230469h210.300781v40.707031h-308.664062v-40.707031zm0 0" fill="#ff9d49"/><path d="m410.332031 216.09375-154.332031 13.421875-154.332031-13.421875v-56.175781l212.617187-28.035157c25.398438-3.347656 49.445313 3.628907 67.71875 19.648438 18.273438 16.015625 28.328125 38.945312 28.328125 64.5625zm0 0" fill="#ff8430"/><path d="m101.667969 216.09375h308.667969v20.128906h-308.667969zm0 0" fill="#ff6e1d"/></svg>