<svg height="512pt" viewBox="0 0 512 512" width="512pt" xmlns="http://www.w3.org/2000/svg"><path d="m512 256c0 141.386719-114.613281 256-256 256s-256-114.613281-256-256 114.613281-256 256-256 256 114.613281 256 256zm0 0" fill="#fdbf00"/><path d="m512 256c0-15.792969-1.441406-31.246094-4.175781-46.246094l-115.050781-115.050781-176.035157 176.035156 20.992188 20.992188-119.054688 119.054687 98.25 98.25c12.738281 1.953125 25.789063 2.964844 39.074219 2.964844 141.386719 0 256-114.613281 256-256zm0 0" fill="#ff9f00"/><path d="m372.832031 86.839844h-233.664062c-16.160157 0-29.207031 13.046875-29.207031 29.207031v273.90625c0 16.160156 13.046874 29.207031 29.207031 29.207031h233.664062c16.160157 0 29.207031-13.046875 29.207031-29.207031v-273.90625c0-16.160156-13.046874-29.207031-29.207031-29.207031zm0 0" fill="#53433f"/><path d="m402.039062 116.046875v273.90625c0 16.160156-13.046874 29.207031-29.207031 29.207031h-116.832031v-332.320312h116.832031c16.160157 0 29.207031 13.046875 29.207031 29.207031zm0 0" fill="#3e322e"/><path d="m148.90625 125.785156v97.359375h214.191406v-97.359375zm0 0" fill="#9cdd05"/><path d="m256 125.785156h107.09375v97.359375h-107.09375zm0 0" fill="#79ab03"/><g fill="#e7e7e7"><path d="m207.320312 301.679688h-58.417968v-58.414063h58.417968zm0 0"/><path d="m226.792969 243.265625v58.414063h58.414062v-58.414063zm0 0"/><path d="m207.320312 380.214844h-58.417968v-58.414063h58.417968zm0 0"/><path d="m226.792969 321.800781v58.417969h58.414062v-58.417969zm0 0"/></g><path d="m304.679688 243.265625h58.417968v19.46875h-58.417968zm0 0" fill="#d3d3d8"/><path d="m304.679688 164.726562h19.472656v19.472657h-19.472656zm0 0" fill="#3e322e"/><path d="m265.734375 164.726562h19.472656v19.472657h-19.472656zm0 0" fill="#3e322e"/><path d="m226.792969 164.726562h19.472656v19.472657h-19.472656zm0 0" fill="#53433f"/><path d="m187.847656 164.726562h19.472656v19.472657h-19.472656zm0 0" fill="#53433f"/><path d="m363.09375 380.214844h-58.414062v-98.007813h58.417968v98.007813zm0 0" fill="#ff4b00"/><path d="m256 243.265625h29.207031v58.414063h-29.207031zm0 0" fill="#d3d3d8"/><path d="m256 321.800781h29.207031v58.417969h-29.207031zm0 0" fill="#d3d3d8"/></svg>