<svg xmlns="http://www.w3.org/2000/svg" height="512pt" version="1.1" viewBox="0 0 512 512" width="512pt">
<g id="surface1">
<path d="M 512 256 C 512 397.386719 397.386719 512 256 512 C 114.613281 512 0 397.386719 0 256 C 0 114.613281 114.613281 0 256 0 C 397.386719 0 512 114.613281 512 256 Z M 512 256 " style=" stroke:none;fill-rule:nonzero;fill:rgb(25.490196%,28.627451%,32.156863%);fill-opacity:1;" />
<path d="M 512 256 C 512 250.828125 511.828125 245.699219 511.527344 240.601562 L 358.53125 87.605469 L 350.195312 112.828125 L 301.058594 63.695312 L 290.851562 73.851562 L 262 45 L 250 77 L 334.210938 161.210938 L 330.894531 171.242188 L 236.289062 76.636719 L 226.839844 84.027344 L 326.710938 183.902344 L 326.519531 184.476562 L 241.902344 99.859375 L 145.332031 408.332031 L 122.863281 420 L 210.902344 508.039062 C 225.542969 510.640625 240.613281 512 256 512 C 397.386719 512 512 397.386719 512 256 Z M 512 256 " style=" stroke:none;fill-rule:nonzero;fill:rgb(13.72549%,15.294118%,16.862745%);fill-opacity:1;" />
<path d="M 358.445312 295.816406 C 374.179688 276.039062 381.125 250.679688 377.65625 225.644531 L 358.53125 87.605469 L 270.097656 99.859375 L 289.222656 237.894531 C 292.691406 262.929688 306.265625 285.449219 326.789062 300.203125 L 334.695312 305.886719 L 348.722656 407.140625 L 328.511719 409.941406 L 331.019531 428.050781 L 389.136719 420 L 386.625 401.890625 L 366.410156 404.691406 L 352.382812 303.4375 Z M 358.445312 295.816406 " style=" stroke:none;fill-rule:nonzero;fill:rgb(100%,100%,100%);fill-opacity:1;" />
<path d="M 386.625 401.890625 L 366.410156 404.691406 L 352.382812 303.4375 L 358.445312 295.816406 C 374.179688 276.039062 381.125 250.675781 377.65625 225.640625 L 358.53125 87.605469 L 314.539062 93.699219 L 359.59375 424.09375 L 389.132812 420 Z M 386.625 401.890625 " style=" stroke:none;fill-rule:nonzero;fill:rgb(94.901961%,96.470588%,98.823529%);fill-opacity:1;" />
<path d="M 358.445312 295.816406 L 351.5 304.546875 C 347.695312 309.328125 340.808594 310.28125 335.847656 306.714844 L 326.789062 300.203125 C 306.269531 285.449219 292.691406 262.929688 289.222656 237.894531 L 280.4375 174.484375 L 368.871094 162.230469 L 377.65625 225.644531 C 381.125 250.675781 374.179688 276.039062 358.445312 295.816406 Z M 358.445312 295.816406 " style=" stroke:none;fill-rule:nonzero;fill:rgb(100%,83.137255%,0%);fill-opacity:1;" />
<path d="M 351.5 304.546875 L 358.445312 295.816406 C 374.179688 276.039062 381.125 250.679688 377.65625 225.644531 L 368.867188 162.230469 L 324.71875 168.347656 L 343.871094 308.785156 C 346.773438 308.441406 349.542969 307.003906 351.5 304.546875 Z M 351.5 304.546875 " style=" stroke:none;fill-rule:nonzero;fill:rgb(99.215686%,72.941176%,7.058824%);fill-opacity:1;" />
<path d="M 153.554688 295.816406 C 137.820312 276.039062 130.875 250.679688 134.34375 225.644531 L 153.46875 87.605469 L 241.902344 99.859375 L 222.777344 237.894531 C 219.308594 262.929688 205.734375 285.449219 185.210938 300.203125 L 177.304688 305.886719 L 163.277344 407.140625 L 183.488281 409.941406 L 180.980469 428.050781 L 122.863281 420 L 125.375 401.890625 L 145.589844 404.691406 L 159.617188 303.4375 Z M 153.554688 295.816406 " style=" stroke:none;fill-rule:nonzero;fill:rgb(100%,100%,100%);fill-opacity:1;" />
<path d="M 197.496094 93.707031 L 152.441406 424.097656 L 180.984375 428.050781 L 183.492188 409.941406 L 163.277344 407.140625 L 177.308594 305.886719 L 185.214844 300.203125 C 205.734375 285.449219 219.3125 262.929688 222.78125 237.894531 L 241.90625 99.859375 Z M 197.496094 93.707031 " style=" stroke:none;fill-rule:nonzero;fill:rgb(94.901961%,96.470588%,98.823529%);fill-opacity:1;" />
<path d="M 153.554688 295.816406 L 160.5 304.546875 C 164.304688 309.328125 171.191406 310.28125 176.152344 306.714844 L 185.210938 300.203125 C 205.730469 285.449219 219.308594 262.929688 222.777344 237.894531 L 231.5625 174.484375 L 143.128906 162.230469 L 134.34375 225.644531 C 130.875 250.675781 137.820312 276.039062 153.554688 295.816406 Z M 153.554688 295.816406 " style=" stroke:none;fill-rule:nonzero;fill:rgb(100%,83.137255%,0%);fill-opacity:1;" />
<path d="M 187.316406 168.351562 L 168.167969 308.785156 C 170.902344 309.101562 173.753906 308.441406 176.15625 306.714844 L 185.214844 300.203125 C 205.734375 285.449219 219.308594 262.929688 222.777344 237.894531 L 231.566406 174.484375 Z M 187.316406 168.351562 " style=" stroke:none;fill-rule:nonzero;fill:rgb(99.215686%,72.941176%,7.058824%);fill-opacity:1;" />
<path d="M 250 45 L 262 45 L 262 77 L 250 77 Z M 250 45 " style=" stroke:none;fill-rule:nonzero;fill:rgb(99.607843%,83.137255%,0.784314%);fill-opacity:1;" />
<path d="M 256.355469 45 L 262 45 L 262 77 L 256.355469 77 Z M 256.355469 45 " style=" stroke:none;fill-rule:nonzero;fill:rgb(99.215686%,72.941176%,7.058824%);fill-opacity:1;" />
<path d="M 210.941406 63.707031 L 220.394531 56.316406 L 236.289062 76.648438 L 226.835938 84.039062 Z M 210.941406 63.707031 " style=" stroke:none;fill-rule:nonzero;fill:rgb(99.607843%,83.137255%,0.784314%);fill-opacity:1;" />
<path d="M 275.695312 76.632812 L 291.59375 56.296875 L 301.046875 63.6875 L 285.148438 84.023438 Z M 275.695312 76.632812 " style=" stroke:none;fill-rule:nonzero;fill:rgb(99.215686%,72.941176%,7.058824%);fill-opacity:1;" />
</g>
</svg>