<svg height="512pt" viewBox="0 0 512 512" width="512pt" xmlns="http://www.w3.org/2000/svg"><path d="m512 256c0 141.386719-114.613281 256-256 256s-256-114.613281-256-256 114.613281-256 256-256 256 114.613281 256 256zm0 0" fill="#9cdd05"/><path d="m511.949219 260.035156-140.566407-140.5625-157.382812 38.527344-68-63-43.75 80.25-4.917969 56.082031 40.636719 107.46875 86.21875 86.21875-51.84375 13.28125 73.476562 73.480469c3.378907.132812 6.769532.21875 10.179688.21875 140.035156 0 253.789062-112.441406 255.949219-251.964844zm0 0" fill="#79ab03"/><path d="m347.558594 427.546875h-158.449219l44.203125-45.414063h70.042969zm0 0" fill="#ff7816"/><path d="m303.355469 382.132812 44.203125 45.414063h-79.222656v-45.414063zm0 0" fill="#ff4b00"/><path d="m404.359375 333.445312-7.683594 7.6875c-35.238281 35.234376-81.789062 52.957032-128.339843 52.957032-46.554688 0-92.890626-17.722656-128.339844-53.171875-46.550782-46.554688-64.277344-114.671875-46.339844-177.882813 10.679688-37.367187 28.617188-61.070312 53.816406-86.269531l44.839844 44.628906-21.996094 8.328125-22.632812-22.632812c-15.589844 17.9375-26.90625 38.863281-33.527344 61.714844-15.800781 55.730468 0 115.953124 41 156.953124 31.179688 31.386719 72.179688 46.976563 113.179688 46.976563 37.796874 0 75.378906-13.238281 105.488281-39.503906l-29.042969-29.253907 14.949219-15.164062zm0 0" fill="#68544f"/><path d="m404.359375 333.445312-7.683594 7.6875c-35.238281 35.234376-81.789062 52.957032-128.339843 52.957032v-21.355469c37.796874 0 75.378906-13.238281 105.488281-39.503906l-29.042969-29.253907 14.949219-15.164062zm0 0" fill="#53433f"/><path d="m172.238281 416.867188h192.191407v21.355468h-192.191407zm0 0" fill="#68544f"/><path d="m268.335938 416.867188h96.09375v21.355468h-96.09375zm0 0" fill="#53433f"/><path d="m358.875 303.121094c-24.984375 24.984375-57.65625 37.585937-90.539062 37.585937-32.886719 0-65.558594-12.601562-90.542969-37.585937-49.972657-49.96875-49.972657-131.113282 0-181.082032 24.984375-24.984374 57.65625-37.585937 90.542969-37.585937 32.882812 0 65.554687 12.597656 90.539062 37.585937 49.972656 49.96875 49.972656 131.113282 0 181.082032zm0 0" fill="#0fa9dd"/><path d="m366.5625 114.347656c-27.117188-26.902344-62.78125-40.570312-98.226562-40.570312-35.449219 0-71.113282 13.667968-98.230469 40.570312-54.027344 54.242188-54.027344 142.222656 0 196.460938 27.117187 26.90625 62.78125 40.574218 98.230469 40.574218 35.445312 0 71.109374-13.667968 98.226562-40.574218 54.027344-54.238282 54.027344-142.21875 0-196.460938zm-15.160156 15.164063c7.902344 7.898437 13.878906 16.867187 19.003906 26.265625l-28.1875 28.1875c-6.40625-8.328125-13.238281-16.441406-21.140625-24.128906-7.6875-7.902344-15.800781-14.734376-24.128906-21.144532l28.1875-28.1875c9.394531 5.125 18.367187 11.105469 26.265625 19.007813zm-98.230469 52.957031 15.164063-15.160156 13.449218-13.453125c8.328125 6.40625 16.445313 13.238281 24.347656 20.925781 7.683594 7.902344 14.519532 16.015625 20.925782 24.34375l-28.617188 28.613281zm30.324219 60.21875-28.613282 28.617188c-8.328124-6.40625-16.445312-13.242188-24.347656-20.929688-7.683594-7.898438-14.519531-16.015625-20.925781-24.34375l28.617187-28.613281zm-15.160156-147.554688c12.382812.210938 24.128906 2.347657 35.875 6.191407l-24.773438 24.558593c-4.054688-2.5625-7.6875-4.699218-11.101562-6.621093-17.085938-9.609375-29.472657-13.453125-42.070313-16.015625 14.734375-5.765625 28.828125-8.113282 42.070313-8.113282zm-4.488282 46.335938-25.621094 25.839844-43.566406-43.347656c21.140625-7.261719 50.183594 5.976562 69.1875 17.507812zm-84.132812-2.347656 43.347656 43.347656-25.839844 25.625c-6.191406-10.460938-11.53125-20.925781-14.945312-30.960938-4.914063-15.375-5.765625-28.402343-2.5625-38.011718zm-20.714844 31.390625c.855469 4.269531 1.496094 8.753906 3.203125 13.453125 4.269531 13.023437 11.105469 26.476562 19.433594 39.71875l-24.558594 24.769531c-8.113281-25.410156-7.6875-52.957031 1.921875-77.941406zm26.265625 125.136719c-7.902344-7.902344-13.878906-16.871094-19.003906-26.265626l28.1875-28.191406c6.40625 8.328125 13.238281 16.445313 21.140625 24.132813 7.6875 7.898437 15.800781 14.734375 24.128906 21.140625l-28.1875 28.1875c-9.394531-5.125-18.363281-11.101563-26.265625-19.003906zm83.070313 33.953124c-11.960938 0-24.132813-1.921874-35.875-5.765624l24.769531-24.558594c3.628906 2.351562 7.257812 4.484375 11.105469 6.621094 9.609374 5.339843 19.21875 9.820312 28.613281 12.8125 4.484375 1.492187 8.753906 2.5625 13.027343 3.417968-13.453124 5.125-27.550781 7.472656-41.640624 7.472656zm35.445312-30.964843c-10.035156-3.414063-20.5-8.753907-30.960938-14.949219l25.621094-25.835938 43.351563 43.347657c-9.609375 3.203125-22.636719 2.351562-38.011719-2.5625zm53.171875-12.597657-43.347656-43.351562 25.839843-25.625c6.191407 10.464844 11.53125 20.929688 14.945313 30.964844 4.914063 15.375 5.765625 28.402344 2.5625 38.011718zm17.511719-44.84375c-4.269532-13.027343-11.105469-26.480468-19.433594-39.71875l24.558594-24.773437c8.113281 25.414063 7.6875 52.960937-1.921875 77.945313-.855469-4.273438-1.496094-8.757813-3.203125-13.453126zm0 0" fill="#9ee2f8"/><path d="m358.875 303.121094c-24.984375 24.984375-57.65625 37.585937-90.539062 37.585937v-256.253906c32.882812 0 65.554687 12.597656 90.539062 37.585937 49.972656 49.96875 49.972656 131.113282 0 181.082032zm0 0" fill="#0d91bd"/><path d="m366.5625 114.347656c-27.117188-26.902344-62.78125-40.570312-98.226562-40.570312v21.355468c12.382812.210938 24.128906 2.347657 35.875 6.191407l-24.773438 24.558593c-4.054688-2.5625-7.6875-4.699218-11.101562-6.621093v48.046875l13.449218-13.453125c8.328125 6.40625 16.445313 13.238281 24.347656 20.925781 7.683594 7.902344 14.519532 16.015625 20.925782 24.34375l-28.617188 28.613281-30.105468-30.105469v29.894532l15.160156 15.160156-15.160156 15.164062v48.046876c9.609374 5.335937 19.21875 9.820312 28.613281 12.8125 4.484375 1.492187 8.753906 2.558593 13.027343 3.414062-13.453124 5.125-27.550781 7.472656-41.640624 7.472656v21.785156c35.445312 0 71.109374-13.667968 98.226562-40.574218 54.027344-54.238282 54.027344-142.21875 0-196.460938zm-45.484375 45.488282c-7.6875-7.902344-15.800781-14.734376-24.128906-21.144532l28.1875-28.1875c9.394531 5.125 18.363281 11.105469 26.265625 19.007813 7.902344 7.898437 13.878906 16.867187 19.003906 26.265625l-28.1875 28.1875c-6.40625-8.328125-13.238281-16.441406-21.140625-24.128906zm-17.296875 138.800781c-10.035156-3.414063-20.5-8.753907-30.960938-14.949219l25.621094-25.835938 43.351563 43.347657c-9.609375 3.203125-22.636719 2.351562-38.011719-2.5625zm53.171875-12.597657-43.347656-43.351562 25.839843-25.625c6.191407 10.464844 11.53125 20.929688 14.945313 30.964844 4.914063 15.375 5.765625 28.402344 2.5625 38.011718zm17.511719-44.84375c-4.269532-13.027343-11.105469-26.480468-19.433594-39.71875l24.558594-24.773437c8.113281 25.414063 7.6875 52.960937-1.921875 77.945313-.855469-4.273438-1.496094-8.757813-3.203125-13.453126zm0 0" fill="#2fc0f0"/></svg>