<?xml version="1.0" encoding="iso-8859-1"?>
<!-- Generator: Adobe Illustrator 19.0.0, SVG Export Plug-In . SVG Version: 6.00 Build 0)  -->
<svg xmlns="http://www.w3.org/2000/svg" xmlns:xlink="http://www.w3.org/1999/xlink" version="1.1" id="Capa_1" x="0px" y="0px" viewBox="0 0 512.007 512.007" style="enable-background:new 0 0 512.007 512.007;" xml:space="preserve">
<circle style="fill:#F7DC4D;" cx="256.003" cy="256.003" r="256.003"/>
<path style="fill:#E5BF2B;" d="M323.168,94.093l-30.832-30.832l0,0l0,0H256l0,0h-36.334v29.947h-22.146  c-23.596,0-42.725,19.128-42.725,42.725l64.871,64.871V448.74l0,0l61.985,61.985c123.939-12.331,221.845-113.059,229.805-238.235  L344.743,105.776c-5.324-5.342-12.051-9.285-19.585-11.223C324.501,94.383,323.837,94.231,323.168,94.093z"/>
<path style="fill:#EA971E;" d="M292.335,63.261h-72.669V448.74h72.669V63.261z"/>
<path style="fill:#DF871E;" d="M292.334,63.261h-36.335V448.74h36.335V63.261z"/>
<g>
	<rect x="219.664" y="77.993" style="fill:#F4C479;" width="29.326" height="7.119"/>
	<rect x="219.664" y="99.791" style="fill:#F4C479;" width="14.663" height="7.119"/>
	<rect x="219.664" y="121.598" style="fill:#F4C479;" width="14.663" height="7.119"/>
	<rect x="219.664" y="143.406" style="fill:#F4C479;" width="14.663" height="7.119"/>
	<rect x="219.664" y="165.204" style="fill:#F4C479;" width="29.326" height="7.119"/>
	<rect x="219.664" y="187.012" style="fill:#F4C479;" width="14.663" height="7.119"/>
	<rect x="219.664" y="208.809" style="fill:#F4C479;" width="14.663" height="7.119"/>
	<rect x="219.664" y="230.617" style="fill:#F4C479;" width="14.663" height="7.119"/>
	<rect x="219.664" y="252.425" style="fill:#F4C479;" width="29.326" height="7.119"/>
	<rect x="219.664" y="274.223" style="fill:#F4C479;" width="14.663" height="7.119"/>
	<rect x="219.664" y="296.03" style="fill:#F4C479;" width="14.663" height="7.119"/>
	<rect x="219.664" y="317.828" style="fill:#F4C479;" width="14.663" height="7.119"/>
	<rect x="219.664" y="339.636" style="fill:#F4C479;" width="29.326" height="7.119"/>
	<rect x="219.664" y="361.443" style="fill:#F4C479;" width="14.663" height="7.119"/>
	<rect x="219.664" y="383.241" style="fill:#F4C479;" width="14.663" height="7.119"/>
	<rect x="219.664" y="405.049" style="fill:#F4C479;" width="14.663" height="7.119"/>
	<rect x="219.664" y="426.856" style="fill:#F4C479;" width="29.326" height="7.119"/>
</g>
<path style="fill:#C27526;" d="M357.206,135.932c0-23.596-19.129-42.725-42.725-42.725H197.519  c-23.596,0-42.725,19.129-42.725,42.725H357.206z"/>
<path style="fill:#A16125;" d="M255.999,93.208v42.725h101.206c0-23.596-19.129-42.725-42.725-42.725H255.999z"/>
<g>
</g>
<g>
</g>
<g>
</g>
<g>
</g>
<g>
</g>
<g>
</g>
<g>
</g>
<g>
</g>
<g>
</g>
<g>
</g>
<g>
</g>
<g>
</g>
<g>
</g>
<g>
</g>
<g>
</g>
</svg>
