<?xml version="1.0" encoding="iso-8859-1"?>
<!-- Generator: Adobe Illustrator 19.0.0, SVG Export Plug-In . SVG Version: 6.00 Build 0)  -->
<svg version="1.1" id="Capa_1" xmlns="http://www.w3.org/2000/svg" xmlns:xlink="http://www.w3.org/1999/xlink" x="0px" y="0px"
	 viewBox="0 0 512 512" style="enable-background:new 0 0 512 512;" xml:space="preserve">
<circle style="fill:#006C5D;" cx="256" cy="256" r="256"/>
<path style="fill:#005B4E;" d="M512,256c0-3.876-0.101-7.728-0.272-11.563l-88.411-88.41h-55.025l-74.61-74.61L219.048,87L193.5,143
	l-101,23.5l44.667,84.167L91.502,359.62l152.075,152.075C247.694,511.892,251.834,512,256,512C397.385,512,512,397.385,512,256z"/>
<circle style="fill:#FFB80E;" cx="256" cy="256" r="29"/>
<path style="fill:#FFA02E;" d="M256,227c-0.016,0-0.032,0.001-0.048,0.001v57.998c0.016,0,0.032,0.001,0.048,0.001
	c16.016,0,29-12.984,29-29S272.016,227,256,227z"/>
<path style="fill:#FFFFFF;" d="M388.889,256c4.561-4.763,8.818-9.535,12.732-14.293c27.015-32.838,35.273-62.388,23.254-83.207
	c-12.021-20.819-41.742-28.442-83.687-21.465c-6.078,1.011-12.339,2.311-18.744,3.879c-1.844-6.331-3.849-12.403-6.012-18.172
	C301.502,82.927,280.04,61,256,61s-45.501,21.927-60.432,61.742c-2.163,5.769-4.168,11.841-6.012,18.173
	c-6.406-1.568-12.667-2.869-18.745-3.88c-41.944-6.978-71.667,0.646-83.686,21.465c-12.02,20.819-3.761,50.369,23.254,83.207
	c3.914,4.758,8.171,9.53,12.732,14.293c-4.561,4.763-8.818,9.535-12.732,14.293c-27.015,32.838-35.274,62.388-23.254,83.207
	c9.115,15.787,28.402,23.986,55.486,23.985c8.633,0,18.062-0.834,28.2-2.521c6.078-1.011,12.339-2.311,18.745-3.879
	c1.844,6.331,3.849,12.403,6.012,18.172C210.499,429.073,231.96,451,256,451s45.502-21.927,60.433-61.742
	c2.163-5.769,4.167-11.841,6.012-18.172c6.405,1.568,12.666,2.869,18.744,3.879c10.141,1.687,19.565,2.521,28.2,2.521
	c27.08,0,46.372-8.2,55.486-23.985c12.02-20.819,3.761-50.369-23.254-83.207C397.707,265.535,393.45,260.763,388.889,256z
	 M345.454,162.683c8.809-1.465,16.941-2.179,24.173-2.179c16.708,0,28.585,3.815,32.73,10.997
	c6.742,11.678-3.99,37.035-32.173,66.544c-10.656-9.465-22.41-18.774-35.04-27.738c-1.447-15.397-3.627-30.211-6.49-44.155
	C334.404,164.748,340.013,163.588,345.454,162.683z M283.625,303.848c-9.197,5.31-18.435,10.24-27.625,14.763
	c-9.19-4.523-18.428-9.453-27.625-14.763c-9.43-5.444-18.298-10.972-26.623-16.528c-0.65-9.987-1.002-20.432-1.002-31.32
	s0.353-21.333,1.002-31.32c8.325-5.556,17.193-11.083,26.623-16.528c9.197-5.31,18.435-10.24,27.625-14.763
	c9.19,4.523,18.428,9.453,27.625,14.763c9.43,5.444,18.298,10.972,26.623,16.528c0.65,9.987,1.002,20.432,1.002,31.32
	s-0.353,21.333-1.002,31.32C301.923,292.876,293.055,298.404,283.625,303.848z M306.821,320.312
	c-0.92,6.327-1.964,12.406-3.118,18.22c-5.704-1.936-11.495-4.075-17.347-6.402c3.428-1.874,6.853-3.792,10.269-5.765
	C300.065,324.378,303.462,322.358,306.821,320.312z M225.644,332.129c-5.852,2.327-11.643,4.465-17.347,6.401
	c-1.155-5.813-2.198-11.892-3.118-18.219c3.36,2.046,6.756,4.067,10.196,6.053C218.791,328.337,222.216,330.255,225.644,332.129z
	 M174.894,267.857c-5.04-3.976-9.799-7.935-14.272-11.857c4.473-3.922,9.232-7.881,14.272-11.857
	c-0.092,3.933-0.144,7.885-0.144,11.857C174.75,259.972,174.802,263.924,174.894,267.857z M205.179,191.688
	c0.92-6.327,1.964-12.406,3.118-18.219c5.704,1.936,11.495,4.075,17.347,6.402c-3.428,1.874-6.852,3.792-10.269,5.765
	C211.935,187.621,208.538,189.642,205.179,191.688z M286.356,179.871c5.852-2.327,11.643-4.466,17.347-6.402
	c1.155,5.813,2.198,11.892,3.118,18.219c-3.36-2.046-6.756-4.067-10.196-6.053C293.209,183.663,289.784,181.745,286.356,179.871z
	 M337.106,244.144c5.039,3.976,9.799,7.935,14.271,11.856c-4.473,3.922-9.232,7.88-14.271,11.856
	c0.092-3.933,0.144-7.884,0.144-11.856S337.198,248.076,337.106,244.144z M256,87c13.484,0,30.078,21.974,41.542,61.134
	c-13.525,4.497-27.464,10.021-41.542,16.477c-14.078-6.455-28.017-11.98-41.542-16.477C225.922,108.974,242.516,87,256,87z
	 M109.642,171.5c5.941-10.289,27.745-13.667,56.903-8.817c5.441,0.905,11.051,2.065,16.8,3.469
	c-2.862,13.943-5.043,28.757-6.49,44.155c-12.63,8.964-24.384,18.274-35.04,27.738C113.632,208.535,102.899,183.178,109.642,171.5z
	 M166.545,349.317c-29.157,4.851-50.962,1.472-56.903-8.817c-6.742-11.678,3.99-37.035,32.173-66.544
	c10.656,9.464,22.411,18.774,35.04,27.738c1.447,15.397,3.627,30.211,6.49,44.154C177.596,347.252,171.986,348.412,166.545,349.317z
	 M256,425c-13.484,0-30.078-21.974-41.542-61.135c13.525-4.496,27.464-10.021,41.542-16.476
	c14.078,6.455,28.017,11.98,41.542,16.477C286.078,403.026,269.484,425,256,425z M402.357,340.5
	c-5.939,10.289-27.744,13.668-56.903,8.817c-5.441-0.905-11.05-2.065-16.799-3.468c2.862-13.943,5.043-28.757,6.49-44.155
	c12.629-8.964,24.383-18.273,35.04-27.738C398.367,303.465,409.1,328.822,402.357,340.5z"/>
<path style="fill:#E0E0E0;" d="M388.889,256c4.561-4.763,8.818-9.535,12.732-14.293c27.015-32.838,35.273-62.388,23.254-83.207
	c-12.021-20.819-41.742-28.442-83.687-21.465c-6.078,1.011-12.339,2.311-18.744,3.879c-1.844-6.331-3.849-12.403-6.012-18.172
	C301.502,82.927,280.04,61,256,61c-0.016,0-0.032,0.001-0.048,0.001v26.001c0.016,0,0.032-0.002,0.048-0.002
	c13.484,0,30.078,21.974,41.542,61.134c-13.525,4.497-27.464,10.021-41.542,16.477c-0.016-0.007-0.032-0.014-0.047-0.021v28.823
	c0.016-0.008,0.032-0.016,0.048-0.024c9.19,4.523,18.428,9.453,27.625,14.763c9.43,5.444,18.298,10.972,26.623,16.528
	c0.65,9.987,1.002,20.432,1.002,31.32s-0.353,21.333-1.002,31.32c-8.324,5.557-17.193,11.084-26.623,16.528
	c-9.197,5.31-18.435,10.24-27.625,14.763c-0.016-0.008-0.032-0.016-0.048-0.024v28.823c0.016-0.007,0.032-0.014,0.047-0.021
	c14.078,6.455,28.017,11.98,41.542,16.477C286.078,403.026,269.484,425,256,425c-0.016,0-0.032-0.002-0.048-0.002v26.001
	c0.016,0,0.032,0.001,0.048,0.001c24.04,0,45.502-21.927,60.433-61.742c2.163-5.769,4.167-11.841,6.012-18.172
	c6.405,1.568,12.666,2.869,18.744,3.879c10.141,1.687,19.565,2.521,28.2,2.521c27.08,0,46.372-8.2,55.486-23.985
	c12.02-20.819,3.761-50.369-23.254-83.207C397.707,265.535,393.45,260.763,388.889,256z M296.625,185.635
	c-3.416-1.972-6.841-3.891-10.269-5.765c5.852-2.327,11.643-4.466,17.347-6.402c1.155,5.813,2.198,11.892,3.118,18.219
	C303.462,189.642,300.065,187.621,296.625,185.635z M303.703,338.531c-5.704-1.936-11.495-4.075-17.347-6.402
	c3.428-1.874,6.853-3.792,10.269-5.765c3.44-1.986,6.837-4.007,10.196-6.053C305.901,326.639,304.858,332.718,303.703,338.531z
	 M345.454,162.683c8.809-1.465,16.941-2.179,24.173-2.179c16.708,0,28.585,3.815,32.73,10.997
	c6.742,11.678-3.99,37.035-32.173,66.544c-10.656-9.465-22.41-18.774-35.04-27.738c-1.447-15.397-3.627-30.211-6.49-44.155
	C334.404,164.748,340.013,163.588,345.454,162.683z M337.106,244.144c5.039,3.976,9.799,7.935,14.271,11.856
	c-4.473,3.922-9.232,7.88-14.271,11.856c0.092-3.933,0.144-7.884,0.144-11.856S337.198,248.076,337.106,244.144z M402.357,340.5
	c-5.939,10.289-27.744,13.668-56.903,8.817c-5.441-0.905-11.05-2.065-16.799-3.468c2.862-13.943,5.043-28.757,6.49-44.155
	c12.629-8.964,24.383-18.273,35.04-27.738C398.367,303.465,409.1,328.822,402.357,340.5z"/>
<g>
</g>
<g>
</g>
<g>
</g>
<g>
</g>
<g>
</g>
<g>
</g>
<g>
</g>
<g>
</g>
<g>
</g>
<g>
</g>
<g>
</g>
<g>
</g>
<g>
</g>
<g>
</g>
<g>
</g>
</svg>
