<svg xmlns="http://www.w3.org/2000/svg" height="512pt" version="1.1" viewBox="0 0 512 512" width="512pt">
<g id="surface1">
<path d="M 512 256 C 512 397.386719 397.386719 512 256 512 C 114.613281 512 0 397.386719 0 256 C 0 114.613281 114.613281 0 256 0 C 397.386719 0 512 114.613281 512 256 Z M 512 256 " style=" stroke:none;fill-rule:nonzero;fill:rgb(3.529412%,80.784314%,40.392157%);fill-opacity:1;" />
<path d="M 512 256 C 512 249.046875 511.714844 242.160156 511.167969 235.347656 L 358.265625 82.445312 L 353.183594 89.957031 L 323.226562 60 L 303.105469 125.652344 L 237.453125 60 L 165.1875 444.699219 L 231.296875 510.808594 C 239.425781 511.585938 247.664062 512 256 512 C 397.386719 512 512 397.386719 512 256 Z M 512 256 " style=" stroke:none;fill-rule:nonzero;fill:rgb(10.196078%,67.843137%,36.078431%);fill-opacity:1;" />
<path d="M 293.472656 414.40625 L 300.425781 414.40625 L 300.425781 452 L 293.472656 452 Z M 293.472656 414.40625 " style=" stroke:none;fill-rule:nonzero;fill:rgb(91.372549%,92.941176%,96.078431%);fill-opacity:1;" />
<path d="M 296.949219 414.40625 L 300.425781 414.40625 L 300.425781 452 L 296.949219 452 Z M 296.949219 414.40625 " style=" stroke:none;fill-rule:nonzero;fill:rgb(86.27451%,88.235294%,92.156863%);fill-opacity:1;" />
<path d="M 278.152344 389.953125 L 315.746094 389.953125 L 315.746094 427.546875 L 278.152344 427.546875 Z M 278.152344 389.953125 " style=" stroke:none;fill-rule:nonzero;fill:rgb(38.823529%,41.176471%,47.058824%);fill-opacity:1;" />
<path d="M 296.949219 389.953125 L 315.746094 389.953125 L 315.746094 427.546875 L 296.949219 427.546875 Z M 296.949219 389.953125 " style=" stroke:none;fill-rule:nonzero;fill:rgb(33.333333%,35.294118%,40%);fill-opacity:1;" />
<path d="M 315.746094 82.445312 L 315.746094 93.945312 L 346.039062 93.945312 L 346.039062 208.914062 L 358.265625 208.914062 L 358.265625 82.445312 Z M 315.746094 82.445312 " style=" stroke:none;fill-rule:nonzero;fill:rgb(86.27451%,88.235294%,92.156863%);fill-opacity:1;" />
<path d="M 270.671875 60 L 323.230469 60 L 323.230469 401.335938 L 270.671875 401.335938 Z M 270.671875 60 " style=" stroke:none;fill-rule:nonzero;fill:rgb(25.490196%,28.627451%,32.156863%);fill-opacity:1;" />
<path d="M 296.949219 60 L 323.226562 60 L 323.226562 401.335938 L 296.949219 401.335938 Z M 296.949219 60 " style=" stroke:none;fill-rule:nonzero;fill:rgb(20%,22.352941%,25.098039%);fill-opacity:1;" />
<path d="M 165.1875 60 L 237.453125 60 L 237.453125 444.699219 L 165.1875 444.699219 Z M 165.1875 60 " style=" stroke:none;fill-rule:nonzero;fill:rgb(100%,83.137255%,0%);fill-opacity:1;" />
<path d="M 200.40625 60 L 237.457031 60 L 237.457031 444.699219 L 200.40625 444.699219 Z M 200.40625 60 " style=" stroke:none;fill-rule:nonzero;fill:rgb(99.215686%,72.941176%,7.058824%);fill-opacity:1;" />
<path d="M 165.1875 86.277344 L 209.714844 86.277344 L 209.714844 96.5 L 165.1875 96.5 Z M 165.1875 86.277344 " style=" stroke:none;fill-rule:nonzero;fill:rgb(98.823529%,68.627451%,1.176471%);fill-opacity:1;" />
<path d="M 200.40625 86.277344 L 209.714844 86.277344 L 209.714844 96.5 L 200.40625 96.5 Z M 200.40625 86.277344 " style=" stroke:none;fill-rule:nonzero;fill:rgb(100%,58.431373%,0%);fill-opacity:1;" />
<path d="M 165.1875 119.128906 L 195.835938 119.128906 L 195.835938 129.347656 L 165.1875 129.347656 Z M 165.1875 119.128906 " style=" stroke:none;fill-rule:nonzero;fill:rgb(98.823529%,68.627451%,1.176471%);fill-opacity:1;" />
<path d="M 165.1875 151.976562 L 209.714844 151.976562 L 209.714844 162.199219 L 165.1875 162.199219 Z M 165.1875 151.976562 " style=" stroke:none;fill-rule:nonzero;fill:rgb(98.823529%,68.627451%,1.176471%);fill-opacity:1;" />
<path d="M 200.40625 151.976562 L 209.714844 151.976562 L 209.714844 162.199219 L 200.40625 162.199219 Z M 200.40625 151.976562 " style=" stroke:none;fill-rule:nonzero;fill:rgb(100%,58.431373%,0%);fill-opacity:1;" />
<path d="M 165.1875 184.828125 L 195.835938 184.828125 L 195.835938 195.046875 L 165.1875 195.046875 Z M 165.1875 184.828125 " style=" stroke:none;fill-rule:nonzero;fill:rgb(98.823529%,68.627451%,1.176471%);fill-opacity:1;" />
<path d="M 165.1875 217.675781 L 209.714844 217.675781 L 209.714844 227.894531 L 165.1875 227.894531 Z M 165.1875 217.675781 " style=" stroke:none;fill-rule:nonzero;fill:rgb(98.823529%,68.627451%,1.176471%);fill-opacity:1;" />
<path d="M 200.40625 217.675781 L 209.714844 217.675781 L 209.714844 227.894531 L 200.40625 227.894531 Z M 200.40625 217.675781 " style=" stroke:none;fill-rule:nonzero;fill:rgb(100%,58.431373%,0%);fill-opacity:1;" />
<path d="M 165.1875 250.523438 L 195.835938 250.523438 L 195.835938 260.746094 L 165.1875 260.746094 Z M 165.1875 250.523438 " style=" stroke:none;fill-rule:nonzero;fill:rgb(98.823529%,68.627451%,1.176471%);fill-opacity:1;" />
<path d="M 165.1875 283.375 L 209.714844 283.375 L 209.714844 293.59375 L 165.1875 293.59375 Z M 165.1875 283.375 " style=" stroke:none;fill-rule:nonzero;fill:rgb(98.823529%,68.627451%,1.176471%);fill-opacity:1;" />
<path d="M 200.40625 283.375 L 209.714844 283.375 L 209.714844 293.59375 L 200.40625 293.59375 Z M 200.40625 283.375 " style=" stroke:none;fill-rule:nonzero;fill:rgb(100%,58.431373%,0%);fill-opacity:1;" />
<path d="M 165.1875 316.222656 L 195.835938 316.222656 L 195.835938 326.441406 L 165.1875 326.441406 Z M 165.1875 316.222656 " style=" stroke:none;fill-rule:nonzero;fill:rgb(98.823529%,68.627451%,1.176471%);fill-opacity:1;" />
<path d="M 165.1875 349.074219 L 209.714844 349.074219 L 209.714844 359.292969 L 165.1875 359.292969 Z M 165.1875 349.074219 " style=" stroke:none;fill-rule:nonzero;fill:rgb(98.823529%,68.627451%,1.176471%);fill-opacity:1;" />
<path d="M 200.40625 349.074219 L 209.714844 349.074219 L 209.714844 359.292969 L 200.40625 359.292969 Z M 200.40625 349.074219 " style=" stroke:none;fill-rule:nonzero;fill:rgb(100%,58.431373%,0%);fill-opacity:1;" />
<path d="M 165.1875 381.921875 L 195.835938 381.921875 L 195.835938 392.140625 L 165.1875 392.140625 Z M 165.1875 381.921875 " style=" stroke:none;fill-rule:nonzero;fill:rgb(98.823529%,68.627451%,1.176471%);fill-opacity:1;" />
<path d="M 165.1875 414.769531 L 209.714844 414.769531 L 209.714844 424.992188 L 165.1875 424.992188 Z M 165.1875 414.769531 " style=" stroke:none;fill-rule:nonzero;fill:rgb(98.823529%,68.627451%,1.176471%);fill-opacity:1;" />
<path d="M 200.40625 414.769531 L 209.714844 414.769531 L 209.714844 424.992188 L 200.40625 424.992188 Z M 200.40625 414.769531 " style=" stroke:none;fill-rule:nonzero;fill:rgb(100%,58.431373%,0%);fill-opacity:1;" />
</g>
</svg>