<svg height="512pt" viewBox="0 0 512 512" width="512pt" xmlns="http://www.w3.org/2000/svg"><path d="m512 256c0 141.386719-114.613281 256-256 256s-256-114.613281-256-256 114.613281-256 256-256 256 114.613281 256 256zm0 0" fill="#53433f"/><path d="m512 256c0-20.332031-2.382812-40.109375-6.863281-59.074219l-90.046875-90.046875-40.1875 40.1875-30.5625-30.5625-244.605469 244.605469 150.820313 150.820313c1.8125.039062 3.625.070312 5.445312.070312 141.386719 0 256-114.613281 256-256zm0 0" fill="#3e322e"/><path d="m393.546875 97.332031h-273.09375c-16.113281 0-29.121094 13.007813-29.121094 29.121094v214.203125c0 16.113281 13.007813 29.121094 29.121094 29.121094h273.09375c16.113281 0 29.117187-13.007813 29.117187-29.121094v-214.203125c.003907-16.113281-13.003906-29.121094-29.117187-29.121094zm0 0" fill="#ff7816"/><path d="m422.667969 126.453125v214.203125c0 16.113281-13.007813 29.121094-29.121094 29.121094h-136.546875v-272.445313h136.546875c16.113281 0 29.121094 13.007813 29.121094 29.121094zm0 0" fill="#ff4b00"/><path d="m120.453125 350.363281c-5.351563 0-9.707031-4.355469-9.707031-9.707031v-214.203125c0-5.351563 4.355468-9.707031 9.707031-9.707031h273.09375c5.351563 0 9.707031 4.355468 9.707031 9.707031v214.203125c0 5.351562-4.355468 9.707031-9.707031 9.707031zm0 0" fill="#ede9e8"/><path d="m393.546875 116.746094h-136.546875v233.617187h136.546875c5.351563 0 9.707031-4.355469 9.707031-9.707031v-214.203125c0-5.351563-4.355468-9.707031-9.707031-9.707031zm0 0" fill="#dfd7d5"/><path d="m344.363281 263h-174.726562c0-18.832031 6.019531-36.304688 16.308593-50.476562h15.140626l-2.328126-14.367188c13.199219-12.035156 29.894532-19.996094 48.535157-21.9375l9.707031 14.367188 9.707031-14.367188c18.445313 1.941406 35.140625 9.707031 48.339844 21.746094l-.96875 14.945312 14.171875-.386718c10.09375 14.171874 16.113281 31.644531 16.113281 50.476562zm0 0" fill="#ff7816"/><path d="m344.363281 263h-87.363281v-72.414062l9.707031-14.367188c18.445313 1.941406 35.140625 9.707031 48.339844 21.746094l-.96875 14.945312 14.171875-.386718c10.09375 14.171874 16.113281 31.644531 16.113281 50.476562zm0 0" fill="#ff4b00"/><path d="m328.25 212.523438c-14.171875 12.621093-22.714844 30.867187-22.714844 50.476562h-19.414062c0-25.046875 10.871094-48.535156 28.925781-65.039062 4.855469 4.273437 9.320313 9.125 13.203125 14.5625zm0 0" fill="#913f02"/><path d="m227.878906 263h-19.414062c0-19.804688-8.738282-38.050781-22.519532-50.476562 3.6875-5.433594 7.957032-10.289063 12.8125-14.367188 17.859376 15.917969 29.121094 39.214844 29.121094 64.84375zm0 0" fill="#b34f03"/><path d="m266.707031 176.21875v86.78125h-19.414062v-86.78125c3.105469-.386719 6.40625-.582031 9.707031-.582031s6.601562.195312 9.707031.582031zm0 0" fill="#b34f03"/><path d="m266.707031 263h-9.707031v-87.363281c3.300781 0 6.601562.195312 9.707031.582031zm0 0" fill="#913f02"/><path d="m346.5 295.808594-9.125 11.261718c-5.824219 7.375-10.871094 15.53125-15.144531 23.878907h-55.523438v-29.121094h-19.414062v29.121094h-55.523438c-4.273437-8.347657-9.320312-16.503907-15.144531-23.878907l-9.125-11.261718-15.144531 12.039062 9.125 11.453125c17.667969 22.132813 27.570312 50.285157 27.570312 78.820313v30.546875h135.898438v-30.546875c0-28.535156 9.898437-56.6875 27.566406-78.820313l9.125-11.453125zm-99.207031 113.445312h-38.828125v-11.132812c0-3.105469-.582032-6.015625-.777344-8.929688h39.605469zm0-39.476562h-41.933594c-1.359375-6.601563-2.71875-13.007813-5.046875-19.414063h46.980469zm58.242187 28.34375v11.132812h-38.828125v-20.0625h39.605469c-.195312 2.910156-.777344 5.824219-.777344 8.929688zm3.105469-28.34375h-41.933594v-19.414063h46.980469c-2.328125 6.40625-3.6875 12.8125-5.046875 19.414063zm0 0" fill="#babac0"/><path d="m130.808594 136.160156h252.382812v19.414063h-252.382812zm0 0" fill="#d3d3d8"/><path d="m346.5 295.808594-9.125 11.261718c-5.824219 7.375-10.871094 15.53125-15.144531 23.878907h-55.523438v-29.121094h-9.707031v126.839844h67.949219v-30.546875c0-28.539063 9.902343-56.6875 27.566406-78.820313l9.125-11.453125zm-40.964844 102.3125v11.132812h-38.828125v-20.0625h39.605469c-.195312 2.910156-.777344 5.824219-.777344 8.929688zm3.105469-28.34375h-41.933594v-19.414063h46.980469c-2.328125 6.40625-3.6875 12.8125-5.046875 19.414063zm0 0" fill="#a1a1a7"/><path d="m257 136.160156h126.191406v19.414063h-126.191406zm0 0" fill="#babac0"/><path d="m354.070312 253.292969h-194.140624c-16.113282 0-29.121094 13.007812-29.121094 29.121093 0 16.113282 13.007812 29.121094 29.121094 29.121094h194.140624c16.113282 0 29.121094-13.007812 29.121094-29.121094 0-16.113281-13.007812-29.121093-29.121094-29.121093zm0 0" fill="#68544f"/><path d="m383.191406 282.414062c0 16.113282-13.007812 29.121094-29.121094 29.121094h-97.070312v-58.242187h97.070312c16.113282 0 29.121094 13.007812 29.121094 29.121093zm0 0" fill="#53433f"/></svg>