<svg xmlns="http://www.w3.org/2000/svg" height="512pt" version="1.1" viewBox="0 0 512 512" width="512pt">
<g id="surface1">
<path d="M 512 256 C 512 397.386719 397.386719 512 256 512 C 114.613281 512 0 397.386719 0 256 C 0 114.613281 114.613281 0 256 0 C 397.386719 0 512 114.613281 512 256 Z M 512 256 " style=" stroke:none;fill-rule:nonzero;fill:rgb(98.039216%,36.470588%,5.882353%);fill-opacity:1;" />
<path d="M 512 256 C 512 249.097656 511.71875 242.261719 511.183594 235.496094 L 418 142.3125 L 156.953125 117.808594 L 94 411.027344 L 184.984375 502.011719 C 207.535156 508.507812 231.359375 512 256 512 C 397.386719 512 512 397.386719 512 256 Z M 512 256 " style=" stroke:none;fill-rule:nonzero;fill:rgb(93.72549%,21.960784%,0%);fill-opacity:1;" />
<path d="M 338.765625 66.523438 L 173.234375 66.523438 L 153.796875 138.867188 L 370.835938 138.867188 Z M 338.765625 66.523438 " style=" stroke:none;fill-rule:nonzero;fill:rgb(25.490196%,28.627451%,32.156863%);fill-opacity:1;" />
<path d="M 338.765625 66.523438 L 255.761719 66.523438 L 255.761719 138.867188 L 370.835938 138.867188 Z M 338.765625 66.523438 " style=" stroke:none;fill-rule:nonzero;fill:rgb(13.72549%,15.294118%,16.862745%);fill-opacity:1;" />
<path d="M 173.234375 411.027344 L 133.617188 445.476562 L 94 411.027344 L 94 142.3125 L 173.234375 66.523438 Z M 173.234375 411.027344 " style=" stroke:none;fill-rule:nonzero;fill:rgb(100%,83.137255%,0%);fill-opacity:1;" />
<path d="M 162.308594 403.824219 L 133.617188 428.773438 L 104.929688 403.824219 L 104.929688 131.640625 L 162.308594 76.757812 Z M 162.308594 403.824219 " style=" stroke:none;fill-rule:nonzero;fill:rgb(25.490196%,28.627451%,32.156863%);fill-opacity:1;" />
<path d="M 338.765625 411.027344 L 378.382812 445.476562 L 418 411.027344 L 418 142.3125 L 338.765625 66.523438 Z M 338.765625 411.027344 " style=" stroke:none;fill-rule:nonzero;fill:rgb(99.215686%,72.941176%,7.058824%);fill-opacity:1;" />
<path d="M 349.691406 403.824219 L 378.382812 428.773438 L 407.070312 403.824219 L 407.070312 131.640625 L 349.691406 76.757812 Z M 349.691406 403.824219 " style=" stroke:none;fill-rule:nonzero;fill:rgb(13.72549%,15.294118%,16.862745%);fill-opacity:1;" />
</g>
</svg>