<svg height="512pt" viewBox="0 0 512 512" width="512pt" xmlns="http://www.w3.org/2000/svg"><path d="m512 256c0 141.386719-114.613281 256-256 256s-256-114.613281-256-256 114.613281-256 256-256 256 114.613281 256 256zm0 0" fill="#811c26"/><path d="m511.121094 277.179688-104.179688-104.179688-254.640625 191.324219-21.332031 42.644531 104.183594 104.183594c6.875.554687 13.828125.847656 20.847656.847656 134.25 0 244.351562-103.34375 255.121094-234.820312zm0 0" fill="#442236"/><path d="m132 351.929688 28.03125 28.03125-28.03125 28.039062-28.03125-28.03125zm0 0" fill="#ffcc75"/><path d="m244.210938 350.316406-14.019532 14.007813-59.96875-41.277344 32.703125-32.707031zm0 0" fill="#082947"/><path d="m212.273438 299.683594-32.707032 32.707031-31.933594-50.625 14.015626-14.011719zm0 0" fill="#274b6d"/><path d="m408.03125 174.089844-35.082031-35.082032-94.355469 75.667969-75.667969 94.355469 50.628907 50.628906zm0 0" fill="#ff9d49"/><path d="m188.914062 323.046875 41.277344 41.277344s-36.304687.476562-60.808594 24.980469l-23.367187-23.359376 12.101563-30.796874zm0 0" fill="#274b6d"/><path d="m337.941406 104-185.636718 154.40625 50.621093 50.625 170.023438-170.023438zm0 0" fill="#ffcc75"/><path d="m147.632812 281.765625 41.28125 41.28125-42.902343 42.898437-23.363281-23.363281c24.503906-24.503906 24.984374-60.816406 24.984374-60.816406zm0 0" fill="#185f8d"/></svg>