<svg height="512pt" viewBox="0 0 512 512" width="512pt" xmlns="http://www.w3.org/2000/svg"><path d="m512 256c0 141.386719-114.613281 256-256 256s-256-114.613281-256-256 114.613281-256 256-256 256 114.613281 256 256zm0 0" fill="#185f8d"/><path d="m512 256c0-8.328125-.410156-16.5625-1.191406-24.691406l-124.808594-124.808594-260 299 105.308594 105.308594c8.128906.78125 16.363281 1.191406 24.691406 1.191406 141.386719 0 256-114.613281 256-256zm0 0" fill="#082947"/><path d="m256 106.5h-130v299h130l13-149.5zm0 0" fill="#f2484b"/><path d="m256 106.5h130v299h-130zm0 0" fill="#ff9d49"/><path d="m191 337.25c10.773438 0 19.5 8.726562 19.5 19.5 0 10.765625-8.726562 19.5-19.5 19.5-10.765625 0-19.5-8.734375-19.5-19.5 0-10.773438 8.734375-19.5 19.5-19.5zm0 0" fill="#bd1515"/><path d="m321 337.25c10.773438 0 19.5 8.726562 19.5 19.5 0 10.765625-8.726562 19.5-19.5 19.5-10.765625 0-19.5-8.734375-19.5-19.5 0-10.773438 8.734375-19.5 19.5-19.5zm0 0" fill="#ff6e1d"/><path d="m217 145.5h-52v45.5l26 13 26-13zm0 0" fill="#6da8d6"/><path d="m165 191h52v97.5h-52zm0 0" fill="#fff"/><path d="m347 145.5h-52v45.5l26 13 26-13zm0 0" fill="#4284b2"/><path d="m295 191h52v97.5h-52zm0 0" fill="#f2ebd9"/></svg>