<svg xmlns="http://www.w3.org/2000/svg" height="512pt" version="1.1" viewBox="0 0 512 512" width="512pt">
<g id="surface1">
<path d="M 512 256 C 512 397.386719 397.386719 512 256 512 C 114.613281 512 0 397.386719 0 256 C 0 114.613281 114.613281 0 256 0 C 397.386719 0 512 114.613281 512 256 Z M 512 256 " style=" stroke:none;fill-rule:nonzero;fill:rgb(99.607843%,41.568627%,8.627451%);fill-opacity:1;" />
<path d="M 512 256 C 512 226.074219 506.847656 197.355469 497.410156 170.664062 L 458.535156 131.789062 L 421.964844 199.597656 L 325.6875 103.320312 L 75 432.546875 L 105.660156 463.203125 C 147.875 493.886719 199.816406 512 256 512 C 397.386719 512 512 397.386719 512 256 Z M 512 256 " style=" stroke:none;fill-rule:nonzero;fill:rgb(94.901961%,27.058824%,0%);fill-opacity:1;" />
<path d="M 134.832031 103.320312 L 75 163.152344 L 75 432.546875 L 325.6875 432.546875 L 325.6875 103.320312 Z M 134.832031 103.320312 " style=" stroke:none;fill-rule:nonzero;fill:rgb(100%,100%,100%);fill-opacity:1;" />
<path d="M 201 103.320312 L 325.6875 103.320312 L 325.6875 432.546875 L 201 432.546875 Z M 201 103.320312 " style=" stroke:none;fill-rule:nonzero;fill:rgb(91.372549%,92.941176%,96.078431%);fill-opacity:1;" />
<path d="M 134.832031 163.152344 L 134.832031 103.320312 L 75 163.152344 Z M 134.832031 163.152344 " style=" stroke:none;fill-rule:nonzero;fill:rgb(80.392157%,82.352941%,88.235294%);fill-opacity:1;" />
<path d="M 348.535156 326.011719 L 271 326.011719 L 191 131.789062 L 268.535156 131.789062 Z M 348.535156 326.011719 " style=" stroke:none;fill-rule:nonzero;fill:rgb(29.019608%,47.843137%,100%);fill-opacity:1;" />
<path d="M 301 326.011719 L 378.535156 326.011719 L 458.535156 131.789062 L 381 131.789062 Z M 301 326.011719 " style=" stroke:none;fill-rule:nonzero;fill:rgb(0%,32.54902%,74.901961%);fill-opacity:1;" />
<path d="M 404.519531 326.167969 C 404.519531 369.613281 369.296875 404.835938 325.851562 404.835938 C 282.40625 404.835938 247.183594 369.613281 247.183594 326.167969 C 247.183594 282.71875 282.40625 247.5 325.851562 247.5 C 369.296875 247.5 404.519531 282.71875 404.519531 326.167969 Z M 404.519531 326.167969 " style=" stroke:none;fill-rule:nonzero;fill:rgb(100%,83.137255%,0%);fill-opacity:1;" />
<path d="M 325.851562 247.5 C 325.699219 247.5 325.554688 247.511719 325.40625 247.511719 L 325.40625 404.820312 C 325.554688 404.820312 325.699219 404.832031 325.851562 404.832031 C 369.296875 404.832031 404.519531 369.613281 404.519531 326.164062 C 404.515625 282.71875 369.296875 247.5 325.851562 247.5 Z M 325.851562 247.5 " style=" stroke:none;fill-rule:nonzero;fill:rgb(99.215686%,72.941176%,7.058824%);fill-opacity:1;" />
<path d="M 385.109375 326.167969 C 385.109375 358.894531 358.578125 385.425781 325.851562 385.425781 C 293.125 385.425781 266.59375 358.894531 266.59375 326.167969 C 266.59375 293.4375 293.125 266.90625 325.851562 266.90625 C 358.578125 266.90625 385.109375 293.4375 385.109375 326.167969 Z M 385.109375 326.167969 " style=" stroke:none;fill-rule:nonzero;fill:rgb(100%,87.45098%,34.117647%);fill-opacity:1;" />
<path d="M 325.851562 266.90625 C 325.699219 266.90625 325.554688 266.917969 325.40625 266.917969 L 325.40625 385.414062 C 325.554688 385.414062 325.699219 385.425781 325.851562 385.425781 C 358.578125 385.425781 385.109375 358.894531 385.109375 326.164062 C 385.109375 293.4375 358.578125 266.90625 325.851562 266.90625 Z M 325.851562 266.90625 " style=" stroke:none;fill-rule:nonzero;fill:rgb(100%,80.784314%,0%);fill-opacity:1;" />
</g>
</svg>