<?xml version="1.0" encoding="iso-8859-1"?>
<!-- Generator: Adobe Illustrator 19.0.0, SVG Export Plug-In . SVG Version: 6.00 Build 0)  -->
<svg version="1.1" id="Capa_1" xmlns="http://www.w3.org/2000/svg" xmlns:xlink="http://www.w3.org/1999/xlink" x="0px" y="0px"
	 viewBox="0 0 512 512" style="enable-background:new 0 0 512 512;" xml:space="preserve">
<circle style="fill:#1B56DB;" cx="256" cy="256" r="256"/>
<path style="fill:#1149AA;" d="M512,256c0-6.128-0.23-12.203-0.653-18.224L403.143,129.573L131.846,405.067L238.15,511.371
	C244.048,511.777,249.998,512,256,512C397.385,512,512,397.385,512,256z"/>
<circle style="fill:#AFBDC4;" cx="256" cy="256" r="194"/>
<path style="fill:#8FA3AD;" d="M256,62c-0.016,0-0.032,0-0.048,0v387.999c0.016,0,0.032,0.001,0.048,0.001
	c107.143,0,194-86.857,194-194S363.143,62,256,62z"/>
<circle style="fill:#FFFFFF;" cx="256" cy="256" r="161.33"/>
<path style="fill:#E0E0E0;" d="M256,94.667c-0.016,0-0.032,0-0.048,0v322.666c0.016,0,0.032,0,0.048,0
	c89.102,0,161.333-72.231,161.333-161.333C417.333,166.899,345.102,94.667,256,94.667z"/>
<rect x="248" y="103.15" style="fill:#C0C0C0;" width="16" height="39.5"/>
<rect x="255.95" y="103.15" style="fill:#758F9B;" width="8.05" height="39.5"/>
<rect x="248" y="369.35" style="fill:#C0C0C0;" width="16" height="39.5"/>
<g>
	<rect x="255.95" y="369.35" style="fill:#758F9B;" width="8.05" height="39.5"/>
	<rect x="369.35" y="248" style="fill:#758F9B;" width="39.5" height="16"/>
</g>
<rect x="103.15" y="248" style="fill:#C0C0C0;" width="39.5" height="16"/>
<rect x="342.11" y="142.135" transform="matrix(-0.7071 -0.7071 0.7071 -0.7071 483.2057 523.9207)" style="fill:#758F9B;" width="16" height="39.5"/>
<g>
	
		<rect x="153.89" y="330.36" transform="matrix(-0.7071 -0.7071 0.7071 -0.7071 28.7977 712.1487)" style="fill:#C0C0C0;" width="16" height="39.5"/>
	
		<rect x="142.14" y="153.885" transform="matrix(-0.7071 -0.7071 0.7071 -0.7071 161.8936 390.8282)" style="fill:#C0C0C0;" width="39.5" height="16"/>
</g>
<rect x="330.36" y="342.106" transform="matrix(-0.7071 -0.7071 0.7071 -0.7071 350.1131 845.2327)" style="fill:#758F9B;" width="39.5" height="16"/>
<polygon style="fill:#333333;" points="255.938,274.469 200.902,224.751 218.098,205.249 255.952,237.076 311.284,178.25 
	330.223,196.063 "/>
<polygon style="fill:#1A1A1A;" points="255.938,274.469 330.223,196.063 311.284,178.25 255.952,237.076 "/>
<g>
</g>
<g>
</g>
<g>
</g>
<g>
</g>
<g>
</g>
<g>
</g>
<g>
</g>
<g>
</g>
<g>
</g>
<g>
</g>
<g>
</g>
<g>
</g>
<g>
</g>
<g>
</g>
<g>
</g>
</svg>
