<svg height="512pt" viewBox="0 0 512 512" width="512pt" xmlns="http://www.w3.org/2000/svg"><path d="m512 256c0 141.386719-114.613281 256-256 256s-256-114.613281-256-256 114.613281-256 256-256 256 114.613281 256 256zm0 0" fill="#e7e7e7"/><path d="m309.929688 82.519531-62.554688 23.730469-12.25 5.5-30.945312-30.105469-46.675782 46.675781 66.84375 66.839844-54.949218 54.945313-34.46875-34.46875-46.671876 46.675781 34.46875 34.46875-19.675781 19.675781 91.796875 91.796875-22.734375 22.734375 80.972657 80.976563c.972656.007812 1.941406.035156 2.914062.035156 132.210938 0 241.003906-100.226562 254.566406-228.84375zm0 0" fill="#d3d3d8"/><path d="m182.582031 73h-20.976562c-17.410157 0-31.464844 14.054688-31.464844 31.464844v77.683594h83.90625v-77.683594c0-17.410156-14.054687-31.464844-31.464844-31.464844zm0 0" fill="#ff7816"/><path d="m203.558594 93.976562h62.929687v20.976563h-62.929687zm0 0" fill="#3e322e"/><path d="m287.464844 304.441406c-17.410156 0-31.464844 14.054688-31.464844 31.464844v52.441406h62.929688v-52.441406c0-17.410156-14.054688-31.464844-31.464844-31.464844zm0 0" fill="#68544f"/><path d="m287.464844 73c-17.410156 0-31.464844 14.054688-31.464844 31.464844s14.054688 31.464844 31.464844 31.464844 31.464844-14.054688 31.464844-31.464844-14.054688-31.464844-31.464844-31.464844zm0 0" fill="#ff7816"/><path d="m182.582031 157.605469h-20.976562c-40.484375 0-73.417969 32.933593-73.417969 73.417969v31.464843h167.8125v-31.464843c0-40.484376-32.933594-73.417969-73.417969-73.417969zm0 0" fill="#ff9f00"/><path d="m127.601562 281.660156 14.832032 14.832032-29.671875 29.671874-14.832031-14.832031zm0 0" fill="#ffd400"/><path d="m161.605469 304.441406h20.976562v41.953125h-20.976562zm0 0" fill="#ffd400"/><path d="m216.585938 281.660156 29.671874 29.671875-14.828124 14.828125-29.671876-29.671875zm0 0" fill="#fdbf00"/><path d="m312.035156 328.683594-16.917968-12.414063 72.660156-99 16.917968 12.414063zm0 0" fill="#3e322e"/><path d="m371.769531 201.605469-78.027343-73.359375 14.300781-15.339844 78.027343 73.359375zm0 0" fill="#3e322e"/><path d="m214.046875 346.394531h20.976563v31.464844h-20.976563zm0 0" fill="#53433f"/><path d="m172.09375 304.441406h10.488281v41.953125h-10.488281zm0 0" fill="#fdbf00"/><path d="m214.046875 104.464844v77.683594h-41.953125v-109.148438h10.488281c17.410157 0 31.464844 14.054688 31.464844 31.464844zm0 0" fill="#ff4b00"/><path d="m256 231.023438v31.464843h-83.90625v-104.882812h10.488281c40.484375 0 73.417969 32.933593 73.417969 73.417969zm0 0" fill="#ff7816"/><path d="m287.464844 135.929688v-62.929688c17.410156 0 31.464844 14.054688 31.464844 31.464844s-14.054688 31.464844-31.464844 31.464844zm0 0" fill="#ff4b00"/><path d="m318.929688 335.90625v52.441406h-31.464844v-83.90625c17.410156 0 31.464844 14.054688 31.464844 31.464844zm0 0" fill="#53433f"/><path d="m350.394531 367.371094h-125.859375c-28.949218 0-52.441406 24.191406-52.441406 53.140625v10.488281h230.742188v-10.488281c0-28.949219-23.492188-53.140625-52.441407-53.140625zm0 0" fill="#ff7816"/><g fill="#ff4b00"><path d="m402.835938 420.511719v10.488281h-115.371094v-63.628906h62.929687c28.949219 0 52.441407 24.191406 52.441407 53.140625zm0 0"/><path d="m392.347656 241.511719c-17.351562 0-31.464844-14.113281-31.464844-31.464844s14.113282-31.464844 31.464844-31.464844c17.351563 0 31.464844 14.113281 31.464844 31.464844s-14.113281 31.464844-31.464844 31.464844zm0 0"/></g></svg>