<?xml version="1.0" encoding="iso-8859-1"?>
<!-- Generator: Adobe Illustrator 19.0.0, SVG Export Plug-In . SVG Version: 6.00 Build 0)  -->
<svg version="1.1" id="Capa_1" xmlns="http://www.w3.org/2000/svg" xmlns:xlink="http://www.w3.org/1999/xlink" x="0px" y="0px"
	 viewBox="0 0 512 512" style="enable-background:new 0 0 512 512;" xml:space="preserve">
<circle style="fill:#47D7FD;" cx="256" cy="256" r="256"/>
<path style="fill:#0FADF5;" d="M186.329,409.476l100.653,100.653c116.631-14.072,209.102-106.558,223.152-223.196L322.292,99.091
	L186.329,409.476z"/>
<path style="fill:#AB6A50;" d="M256,53.588C178.527,88.076,124.506,165.725,124.506,256s54.02,167.924,131.493,202.412
	C333.473,423.924,387.493,346.275,387.493,256S333.473,88.076,256,53.588z"/>
<g>
	<path style="fill:#854830;" d="M256,458.412C333.473,423.924,387.494,346.275,387.494,256S333.473,88.076,256,53.588V458.412z"/>
	<path style="fill:#854830;" d="M124.506,256c0,52.648,18.379,100.997,49.063,139H338.43c30.684-38.003,49.063-86.352,49.063-139
		s-18.379-100.997-49.063-139H173.569C142.886,155.003,124.506,203.352,124.506,256z"/>
</g>
<path style="fill:#5E2D1D;" d="M387.494,256c0-52.648-18.379-100.997-49.063-139h-82.428v278h82.428
	C369.114,356.997,387.494,308.648,387.494,256z"/>
<polygon style="fill:#603813;" points="288.5,197.254 288.5,169.254 270,169.254 270,156.304 242,156.304 242,169.254 
	223.5,169.254 223.5,197.254 242,197.254 242,217.751 223.5,217.751 223.5,245.751 242,245.751 242,266.249 223.5,266.249 
	223.5,294.249 242,294.249 242,314.746 223.5,314.746 223.5,342.746 242,342.746 242,355.696 270,355.696 270,342.746 
	288.5,342.746 288.5,314.746 270,314.746 270,294.249 288.5,294.249 288.5,266.249 270,266.249 270,245.751 288.5,245.751 
	288.5,217.751 270,217.751 270,197.254 "/>
<polygon style="fill:#42210B;" points="288.5,197.254 288.5,169.254 270,169.254 270,156.304 255.999,156.304 255.999,355.696 
	270,355.696 270,342.746 288.5,342.746 288.5,314.746 270,314.746 270,294.249 288.5,294.249 288.5,266.249 270,266.249 
	270,245.751 288.5,245.751 288.5,217.751 270,217.751 270,197.254 "/>
<g>
</g>
<g>
</g>
<g>
</g>
<g>
</g>
<g>
</g>
<g>
</g>
<g>
</g>
<g>
</g>
<g>
</g>
<g>
</g>
<g>
</g>
<g>
</g>
<g>
</g>
<g>
</g>
<g>
</g>
</svg>
