<svg height="512pt" viewBox="0 0 512 512" width="512pt" xmlns="http://www.w3.org/2000/svg"><path d="m512 256c0 141.386719-114.613281 256-256 256s-256-114.613281-256-256 114.613281-256 256-256 256 114.613281 256 256zm0 0" fill="#9cdd05"/><path d="m510.242188 226-152.222657-152.222656-68.59375 68.59375-180.175781 82.628906-3.394531 68.710938 76.644531 77.289062-15.1875 55.289062-26.3125 11.445313 70.382812 70.382813c14.492188 2.546874 29.398438 3.882812 44.617188 3.882812 141.386719 0 256-114.613281 256-256 0-10.152344-.609375-20.15625-1.757812-30zm0 0" fill="#79ab03"/><path d="m179.5 349h165v22h-165zm0 0" fill="#53433f"/><path d="m262 349h82.5v22h-82.5zm0 0" fill="#3e322e"/><path d="m361 425.632812-22 2.199219-9.898438-101.566406h-134.203124l-9.898438 101.566406-22-2.199219 12.101562-121.367187h173.796876zm0 0" fill="#68544f"/><path d="m361 425.632812-22 2.199219-9.898438-101.566406h-67.101562v-22h86.898438zm0 0" fill="#53433f"/><path d="m317 227.265625h22v44h-22zm0 0" fill="#53433f"/><path d="m185 227.265625h22v44h-22zm0 0" fill="#68544f"/><path d="m130 282.265625c-6.070312 0-11-4.929687-11-11v-52.449219l-22 19.449219v33c0 18.199219 14.804688 33 33 33h22v-22zm0 0" fill="#53433f"/><path d="m350 260.265625h-176c-18.261719 0-33 14.742187-33 33v33h242v-33c0-18.257813-14.738281-33-33-33zm0 0" fill="#ff9100"/><path d="m371.339844 124.085938-10.339844 82.5c-1.980469 15.179687-14.960938 31.679687-33 31.679687h-55l-11-4.398437-100.761719-40.699219-8.578125-69.078125c-2.421875-20.023438 1.539063-37.183594 11.441406-48.402344 7.699219-8.800781 18.699219-13.417969 31.898438-13.417969h132c13.199219 0 24.199219 4.617188 31.898438 13.417969 9.902343 11.21875 13.863281 28.378906 11.441406 48.398438zm0 0" fill="#ff9100"/><path d="m317 415.734375h66v22h-66zm0 0" fill="#3e322e"/><path d="m141 415.734375h66v22h-66zm0 0" fill="#53433f"/><path d="m262 180.847656c-5.71875-5.28125-13.421875-8.582031-22-8.582031h-110c-18.261719 0-33 14.742187-33 33v33h176v-33c0-9.679687-4.179688-18.480469-11-24.417969zm0 0" fill="#b34f03"/><path d="m273 238.265625-11-4.398437v-171.601563h66c13.199219 0 24.199219 4.621094 31.898438 13.421875 9.902343 11.21875 13.863281 28.378906 11.441406 48.398438l-10.339844 82.5c-1.980469 15.179687-14.960938 31.679687-33 31.679687zm0 0" fill="#ff7816"/><path d="m383 293.265625v33h-121v-66h88c18.261719 0 33 14.742187 33 33zm0 0" fill="#ff7816"/><path d="m273 238.265625h-11v-57.417969c6.820312 5.9375 11 14.738282 11 24.417969zm0 0" fill="#913f02"/></svg>