<svg height="512pt" viewBox="0 0 512 512" width="512pt" xmlns="http://www.w3.org/2000/svg"><path d="m512 256c0 141.386719-114.613281 256-256 256s-256-114.613281-256-256 114.613281-256 256-256 256 114.613281 256 256zm0 0" fill="#f2484b"/><path d="m512 256c0-.273438-.011719-.546875-.011719-.820312l-108.632812-108.632813-92.378907 27.703125-68-27.703125-6.4375-6.4375-134.332031 134.332031 21.300781 21.300782-14.863281 90.6875 124.546875 124.546874c7.515625.664063 15.121094 1.023438 22.808594 1.023438 141.386719 0 256-114.613281 256-256zm0 0" fill="#bd1515"/><path d="m108.644531 345.308594v41.121094h147.355469l13.707031-54.832032zm0 0" fill="#ffb55f"/><path d="m403.355469 345.308594-147.355469-13.710938v54.832032h147.355469zm0 0" fill="#ff9d49"/><path d="m108.644531 146.546875v198.761719h147.355469l13.707031-99.382813-13.707031-99.378906zm0 0" fill="#ffcc75"/><path d="m256 146.546875h147.355469v198.761719h-147.355469zm0 0" fill="#ffb55f"/><path d="m222 125.570312 14.539062 14.535157-134.332031 134.335937-14.539062-14.539062zm0 0" fill="#6da8d6"/><path d="m290 125.566406 134.332031 134.332032-14.539062 14.539062-134.332031-134.332031zm0 0" fill="#4284b2"/></svg>