<?xml version="1.0" encoding="iso-8859-1"?>
<!-- Generator: Adobe Illustrator 19.0.0, SVG Export Plug-In . SVG Version: 6.00 Build 0)  -->
<svg version="1.1" id="Capa_1" xmlns="http://www.w3.org/2000/svg" xmlns:xlink="http://www.w3.org/1999/xlink" x="0px" y="0px"
	 viewBox="0 0 512 512" style="enable-background:new 0 0 512 512;" xml:space="preserve">
<circle style="fill:#47D7FD;" cx="256" cy="256" r="256"/>
<path style="fill:#0FADF5;" d="M512,256c0-14.355-1.201-28.428-3.472-42.139L411,116.333l-31.23,60.103L293,89.667L113,405
	l104.056,104.056C229.755,510.994,242.76,512,256,512C397.385,512,512,397.385,512,256z"/>
<rect x="113" y="116.33" style="fill:#FE6D00;" width="80" height="288.67"/>
<rect x="149.41" y="116.33" style="fill:#E55100;" width="43.595" height="288.67"/>
<rect x="331" y="116.33" style="fill:#1E87E4;" width="80" height="288.67"/>
<rect x="387.5" y="116.33" style="fill:#1976D1;" width="23.5" height="288.67"/>
<rect x="288.33" y="116.33" style="fill:#FE8E00;" width="80" height="288.67"/>
<rect x="327.98" y="116.33" style="fill:#FE6F00;" width="40.36" height="288.67"/>
<rect x="288.33" y="315.67" style="fill:#FEB200;" width="80" height="68.67"/>
<rect x="327.98" y="315.67" style="fill:#FEAA00;" width="40.36" height="68.67"/>
<rect x="190.33" y="89.67" style="fill:#1565BF;" width="102.67" height="315.33"/>
<rect x="241.07" y="89.67" style="fill:#0D47A0;" width="51.929" height="315.33"/>
<rect x="136.33" y="187.67" style="fill:#FEB200;" width="28.667" height="157.33"/>
<rect x="149.41" y="187.67" style="fill:#FEAA00;" width="15.595" height="157.33"/>
<rect x="217" y="133" style="fill:#42A4F4;" width="49.33" height="212"/>
<rect x="241.07" y="133" style="fill:#1E87E4;" width="25.26" height="212"/>
<g>
</g>
<g>
</g>
<g>
</g>
<g>
</g>
<g>
</g>
<g>
</g>
<g>
</g>
<g>
</g>
<g>
</g>
<g>
</g>
<g>
</g>
<g>
</g>
<g>
</g>
<g>
</g>
<g>
</g>
</svg>
