<?xml version="1.0" encoding="iso-8859-1"?>
<!-- Generator: Adobe Illustrator 19.0.0, SVG Export Plug-In . SVG Version: 6.00 Build 0)  -->
<svg xmlns="http://www.w3.org/2000/svg" xmlns:xlink="http://www.w3.org/1999/xlink" version="1.1" id="Capa_1" x="0px" y="0px" viewBox="0 0 512 512" style="enable-background:new 0 0 512 512;" xml:space="preserve">
<circle style="fill:#F7DC4D;" cx="255.997" cy="255.997" r="255.997"/>
<path style="fill:#E5BF2B;" d="M511.929,250.417L411.64,150.128H303.713l0,0h-15.219h-15.219h-17.933H99.044V359.98l151.957,151.957  c1.663,0.032,3.328,0.063,4.999,0.063C397.385,512,512,397.385,512,256.001C512,254.133,511.969,252.274,511.929,250.417z"/>
<ellipse style="fill:#7D684A;" cx="255.346" cy="359.983" rx="30.602" ry="12.304"/>
<path style="fill:#5D4E38;" d="M255.343,347.676v24.607c16.901,0,30.602-5.508,30.602-12.304  C285.944,353.183,272.242,347.676,255.343,347.676z"/>
<rect x="99.041" y="150.125" style="fill:#7D684A;" width="156.295" height="209.847"/>
<rect x="255.346" y="150.125" style="fill:#5D4E38;" width="156.295" height="209.847"/>
<rect x="127.342" y="176.196" style="fill:#FFFFFF;" width="128.003" height="157.716"/>
<rect x="255.346" y="176.196" style="fill:#BFE2E4;" width="126.68" height="157.716"/>
<polygon style="fill:#E25F3F;" points="303.713,277.223 288.494,287.095 273.275,277.223 273.275,150.127 303.713,150.127 "/>
<polygon style="fill:#BF492C;" points="303.713,277.223 288.494,287.095 288.494,150.127 303.713,150.127 "/>
<g>
</g>
<g>
</g>
<g>
</g>
<g>
</g>
<g>
</g>
<g>
</g>
<g>
</g>
<g>
</g>
<g>
</g>
<g>
</g>
<g>
</g>
<g>
</g>
<g>
</g>
<g>
</g>
<g>
</g>
</svg>
