<svg height="512pt" viewBox="0 0 512 512" width="512pt" xmlns="http://www.w3.org/2000/svg"><path d="m512 256c0 141.386719-114.613281 256-256 256s-256-114.613281-256-256 114.613281-256 256-256 256 114.613281 256 256zm0 0" fill="#77c0bc"/><path d="m512 256c0-8.40625-.417969-16.714844-1.210938-24.910156l-126.457031-126.457032-256.664062 302.734376 103.421875 103.421874c8.199218.792969 16.503906 1.210938 24.910156 1.210938 141.386719 0 256-114.613281 256-256zm0 0" fill="#3b7d84"/><path d="m127.667969 104.632812v302.734376h128.332031l13.160156-236.921876-62.519531-65.8125zm0 0" fill="#ffb55f"/><path d="m256 137.539062v269.828126h128.332031v-302.734376h-78.972656zm0 0" fill="#ff8430"/><path d="m167.152344 144.121094v223.757812h88.847656l13.160156-111.878906-13.160156-111.878906zm0 0" fill="#fff"/><path d="m256 144.121094v223.757812h23.035156l26.324219-39.484375 39.488281-26.328125v-157.945312zm0 0" fill="#c1e8e6"/><path d="m279.035156 302.066406v65.8125l65.8125-65.8125zm0 0" fill="#fff"/><path d="m206.640625 104.632812v59.230469h49.359375l13.160156-29.617187-13.160156-29.613282zm0 0" fill="#185f8d"/><path d="m256 104.632812h49.359375v59.230469h-49.359375zm0 0" fill="#082947"/></svg>