<?xml version="1.0" encoding="iso-8859-1"?>
<!-- Generator: Adobe Illustrator 19.0.0, SVG Export Plug-In . SVG Version: 6.00 Build 0)  -->
<svg xmlns="http://www.w3.org/2000/svg" xmlns:xlink="http://www.w3.org/1999/xlink" version="1.1" id="Capa_1" x="0px" y="0px" viewBox="0 0 512 512" style="enable-background:new 0 0 512 512;" xml:space="preserve">
<circle style="fill:#5A7EBF;" cx="256" cy="256" r="256"/>
<path style="fill:#4360AC;" d="M384.918,111.324l-184.731,50.348l-10.039,69.493l0.13,0.13L79.924,341.649l37.334,37.335  l6.829,6.829l44.034,44.034l82.079,82.079c1.928,0.043,3.86,0.073,5.798,0.073c141.385,0,256-114.615,256-256  c0-6.137-0.23-12.22-0.654-18.248L384.918,111.324z"/>
<rect x="116.834" y="252.536" transform="matrix(-0.7071 -0.7071 0.7071 -0.7071 72.1641 691.0232)" style="fill:#F6D433;" width="124.727" height="156.06"/>
<rect x="170.148" y="274.618" transform="matrix(-0.7071 -0.7071 0.7071 -0.7071 94.2508 744.3358)" style="fill:#DF871E;" width="62.27" height="156.06"/>
<path style="fill:#57565C;" d="M398.448,124.854l-98.406,98.406c5.094,10.667,3.23,23.828-5.605,32.663  c-11.208,11.208-29.379,11.208-40.587,0c-11.208-11.208-11.208-29.379,0-40.587c8.835-8.835,21.996-10.7,32.663-5.605l98.406-98.406  l-184.731,50.348l-10.039,69.493l88.458,88.458l69.493-10.039L398.448,124.854z"/>
<path style="fill:#2D2E30;" d="M398.448,124.854l-98.406,98.406c5.094,10.667,3.23,23.828-5.605,32.663  c-11.208,11.208-29.379,11.208-40.587,0l-19.473,19.473l44.23,44.23l69.493-10.039L398.448,124.854z"/>
<g>
</g>
<g>
</g>
<g>
</g>
<g>
</g>
<g>
</g>
<g>
</g>
<g>
</g>
<g>
</g>
<g>
</g>
<g>
</g>
<g>
</g>
<g>
</g>
<g>
</g>
<g>
</g>
<g>
</g>
</svg>
