<svg xmlns="http://www.w3.org/2000/svg" height="512pt" version="1.1" viewBox="0 0 512 512" width="512pt">
<g id="surface1">
<path d="M 512 256 C 512 397.386719 397.386719 512 256 512 C 114.613281 512 0 397.386719 0 256 C 0 114.613281 114.613281 0 256 0 C 397.386719 0 512 114.613281 512 256 Z M 512 256 " style=" stroke:none;fill-rule:nonzero;fill:rgb(25.490196%,28.627451%,32.156863%);fill-opacity:1;" />
<path d="M 510.140625 286.890625 L 377.492188 154.246094 L 353.335938 197.167969 L 225.167969 69 L 134.507812 423.757812 L 220.253906 509.503906 C 231.9375 511.136719 243.867188 512 256 512 C 386.929688 512 494.886719 413.707031 510.140625 286.890625 Z M 510.140625 286.890625 " style=" stroke:none;fill-rule:nonzero;fill:rgb(13.72549%,15.294118%,16.862745%);fill-opacity:1;" />
<path d="M 316.25 93 L 134.507812 93 L 134.507812 423.757812 L 377.492188 423.757812 L 377.492188 154.246094 Z M 316.25 93 " style=" stroke:none;fill-rule:nonzero;fill:rgb(100%,100%,100%);fill-opacity:1;" />
<path d="M 377.492188 154.246094 L 316.25 93 L 255.761719 93 L 255.761719 423.757812 L 377.492188 423.757812 Z M 377.492188 154.246094 " style=" stroke:none;fill-rule:nonzero;fill:rgb(94.901961%,96.470588%,98.823529%);fill-opacity:1;" />
<path d="M 316.25 154.246094 L 377.492188 154.246094 L 316.25 93 Z M 316.25 154.246094 " style=" stroke:none;fill-rule:nonzero;fill:rgb(80.392157%,82.352941%,88.235294%);fill-opacity:1;" />
<path d="M 230.167969 291.667969 L 195.167969 291.667969 L 175.167969 323 L 199.167969 375 L 209.167969 375 L 209.167969 349.109375 C 206.234375 346.855469 200.335938 333.320312 200.335938 329.332031 C 200.335938 322.519531 205.855469 317 212.667969 317 C 219.476562 317 225 322.523438 225 329.332031 C 225 333.320312 219.101562 346.855469 216.167969 349.109375 L 216.167969 375 L 226.167969 375 L 250.167969 323 Z M 230.167969 291.667969 " style=" stroke:none;fill-rule:nonzero;fill:rgb(100%,83.137255%,0%);fill-opacity:1;" />
<path d="M 230.167969 291.667969 L 212.308594 291.667969 L 212.308594 317.019531 C 212.429688 317.015625 212.546875 317 212.667969 317 C 219.480469 317 225 322.523438 225 329.335938 C 225 333.320312 219.101562 346.855469 216.167969 349.109375 L 216.167969 375 L 226.167969 375 L 250.167969 323 Z M 230.167969 291.667969 " style=" stroke:none;fill-rule:nonzero;fill:rgb(99.215686%,72.941176%,7.058824%);fill-opacity:1;" />
<path d="M 235.167969 276.5 L 190.167969 276.5 L 200.167969 69 L 225.167969 69 Z M 235.167969 276.5 " style=" stroke:none;fill-rule:nonzero;fill:rgb(39.607843%,69.411765%,98.823529%);fill-opacity:1;" />
<path d="M 225.167969 69 L 212.308594 69 L 212.308594 276.5 L 235.167969 276.5 Z M 225.167969 69 " style=" stroke:none;fill-rule:nonzero;fill:rgb(29.019608%,59.607843%,96.862745%);fill-opacity:1;" />
<path d="M 181.667969 271.167969 L 243.667969 271.167969 L 243.667969 297.167969 L 181.667969 297.167969 Z M 181.667969 271.167969 " style=" stroke:none;fill-rule:nonzero;fill:rgb(29.019608%,47.843137%,100%);fill-opacity:1;" />
<path d="M 212.308594 271.167969 L 243.667969 271.167969 L 243.667969 297.167969 L 212.308594 297.167969 Z M 212.308594 271.167969 " style=" stroke:none;fill-rule:nonzero;fill:rgb(15.686275%,39.215686%,94.117647%);fill-opacity:1;" />
</g>
</svg>