<?xml version="1.0" encoding="iso-8859-1"?>
<!-- Generator: Adobe Illustrator 19.0.0, SVG Export Plug-In . SVG Version: 6.00 Build 0)  -->
<svg version="1.1" id="Capa_1" xmlns="http://www.w3.org/2000/svg" xmlns:xlink="http://www.w3.org/1999/xlink" x="0px" y="0px"
	 viewBox="0 0 512 512" style="enable-background:new 0 0 512 512;" xml:space="preserve">
<circle style="fill:#006C5D;" cx="256" cy="256" r="256"/>
<path style="fill:#005B4E;" d="M511.849,264.38L344.307,96.838C342.673,98.471,162.5,256,162.5,256l-9.768,161.604l94.219,94.219
	C249.957,511.928,252.97,512,256,512C394.579,512,507.425,401.884,511.849,264.38z"/>
<path style="fill:#FFFFFF;" d="M246.631,55.092c-116.026,0-156.672,124.566-156.672,221.705s70.144,175.886,156.672,175.886
	c0.157,0,0.314,0,0.47-0.001c18.681-0.062,31.465-18.915,24.915-36.409c-3.383-9.034-5.056-18.903-4.626-29.213
	c1.605-38.506,33.032-69.704,71.549-71.048c9.566-0.334,18.745,1.144,27.22,4.115c16.509,5.789,34.206-4.993,36.045-22.391
	c0.726-6.866,1.099-13.853,1.099-20.939C403.302,179.657,361.917,55.092,246.631,55.092z M211.528,340.352
	c-19.795,0-35.842-17.536-35.842-39.168s16.047-39.168,35.842-39.168s35.842,17.536,35.842,39.168
	C247.37,322.816,231.323,340.352,211.528,340.352z"/>
<path style="fill:#EBEEF0;" d="M255.952,55.386v395.756c13.576-4.833,21.513-20.317,16.063-34.871
	c-3.383-9.034-5.056-18.903-4.626-29.213c1.605-38.506,33.032-69.705,71.549-71.048c9.566-0.334,18.744,1.144,27.22,4.115
	c16.509,5.789,34.206-4.993,36.045-22.391c0.726-6.866,1.099-13.853,1.099-20.939C403.302,182.325,364.149,61.929,255.952,55.386z"
	/>
<circle style="fill:#4B96EF;" cx="335" cy="229" r="30"/>
<path style="fill:#347FEA;" d="M335,199c-0.16,0-0.317,0.01-0.476,0.012v59.976C334.683,258.99,334.84,259,335,259
	c16.569,0,30-13.431,30-30S351.569,199,335,199z"/>
<circle style="fill:#42DB8F;" cx="303" cy="142.33" r="30"/>
<path style="fill:#0ACB72;" d="M303,112.333c-0.008,0-0.016,0.001-0.024,0.001v59.999c0.008,0,0.016,0,0.024,0
	c16.569,0,30-13.431,30-30S319.569,112.333,303,112.333z"/>
<circle style="fill:#DA302B;" cx="210.33" cy="124.33" r="30"/>
<path style="fill:#C40619;" d="M210.333,94.333c-0.471,0-0.939,0.014-1.405,0.036v59.929c0.466,0.021,0.934,0.035,1.405,0.035
	c16.569,0,30-13.431,30-30S226.902,94.333,210.333,94.333z"/>
<circle style="fill:#91CCFE;" cx="149.67" cy="211" r="30"/>
<path style="fill:#74AACE;" d="M149.667,181c-0.288,0-0.572,0.014-0.857,0.022v59.957c0.285,0.008,0.57,0.022,0.857,0.022
	c16.569,0,30-13.431,30-30S166.235,181,149.667,181z"/>
<g>
</g>
<g>
</g>
<g>
</g>
<g>
</g>
<g>
</g>
<g>
</g>
<g>
</g>
<g>
</g>
<g>
</g>
<g>
</g>
<g>
</g>
<g>
</g>
<g>
</g>
<g>
</g>
<g>
</g>
</svg>
