<svg height="512pt" viewBox="0 0 512 512" width="512pt" xmlns="http://www.w3.org/2000/svg"><path d="m512 256c0 141.386719-114.613281 256-256 256s-256-114.613281-256-256 114.613281-256 256-256 256 114.613281 256 256zm0 0" fill="#2fc0f0"/><path d="m512 256c0-24.925781-3.578125-49.015625-10.21875-71.792969l-51.644531-51.644531-268.136719 46.9375-48.652344 269.847656 53.078125 53.078125c22.125 6.234375 45.457031 9.574219 69.574219 9.574219 141.386719 0 256-114.613281 256-256zm0 0" fill="#0d91bd"/><path d="m189.28125 300.875c28.972656-4.777344 54.65625-18.515625 74.367188-38.226562 19.710937-19.714844 33.449218-45.394532 38.226562-74.367188l-20.757812-3.433594c-4.03125 24.339844-15.679688 46.140625-32.402344 62.867188-16.726563 16.726562-38.527344 28.371094-62.867188 32.40625zm0 0" fill="#68544f"/><path d="m281.121094 184.847656c-4.03125 24.339844-15.679688 46.140625-32.40625 62.867188l14.933594 14.933594c19.710937-19.710938 33.449218-45.394532 38.230468-74.363282zm0 0" fill="#53433f"/><path d="m430.472656 132.472656h19.769532v21.117188h-30.328126v-13.726563zm0 0" fill="#53433f"/><path d="m377.679688 195.828125h-185.15625v-63.355469h237.949218v10.558594c0 29.109375-23.683594 52.796875-52.792968 52.796875zm0 0" fill="#ff4b00"/><path d="m151.921875 409.667969h2.667969v39.574219h-21.117188v-19.773438zm0 0" fill="#68544f"/><path d="m144.03125 429.46875h-10.558594v-237.949219h63.355469v185.152344c0 29.109375-23.6875 52.796875-52.796875 52.796875zm0 0" fill="#ff7816"/><path d="m99.238281 143.039062 18.964844 18.964844 44.800781-44.800781-18.964844-18.964844c-12.246093-12.242187-32.40625-12.390625-44.800781 0-12.390625 12.394531-12.242187 32.554688 0 44.800781zm0 0" fill="#68544f"/><path d="m99.238281 98.238281 41.363281 41.363281 22.402344-22.398437-18.964844-18.964844c-12.246093-12.242187-32.40625-12.394531-44.800781 0zm0 0" fill="#53433f"/><path d="m129.105469 202.769531c10.003906 10.003907 23.292969 15.53125 37.332031 15.53125 14.035156 0 27.328125-5.527343 37.332031-15.53125 10.003907-10.003906 15.53125-23.296875 15.53125-37.332031 0-14.039062-5.527343-27.328125-15.53125-37.332031-9.855469-9.855469-23.148437-15.382813-37.183593-15.382813-14.1875-.148437-27.476563 5.378906-37.480469 15.382813-19.863281 19.859375-19.863281 54.800781 0 74.664062zm0 0" fill="#d3d3d8"/><path d="m197.53125 449.242188 9.757812-.148438c67.046876.148438 127.824219-27.179688 171.726563-71.078125 43.898437-43.902344 71.226563-104.679687 71.078125-171.726563l.148438-9.054687h-21.203126v9.203125c.148438 61.074219-24.789062 116.476562-64.957031 156.644531-40.171875 40.167969-95.570312 65.105469-156.644531 64.957031h-9.90625zm0 0" fill="#e7e7e7"/><path d="m429.039062 206.4375c.148438 61.074219-24.789062 116.472656-64.957031 156.644531l14.933594 14.933594c43.898437-43.902344 71.226563-104.679687 71.078125-171.726563l.148438-9.054687h-21.203126zm0 0" fill="#d3d3d8"/><path d="m269.921875 283.855469-47.488281-47.484375 14.933594-14.933594 47.484374 47.484375zm0 0" fill="#68544f"/><path d="m229.898438 228.902344 7.464843-7.46875 47.484375 47.488281-7.464844 7.464844zm0 0" fill="#53433f"/><path d="m129.105469 128.105469 74.664062 74.664062c10.003907-10.007812 15.527344-23.296875 15.527344-37.335937 0-14.035156-5.523437-27.324219-15.527344-37.328125-9.859375-9.859375-23.148437-15.382813-37.183593-15.382813-14.1875-.148437-27.476563 5.378906-37.480469 15.382813zm0 0" fill="#babac0"/><path d="m155.996094 155h21.042968v21.039062h-21.042968zm0 0" fill="#68544f"/><path d="m156 155h21.039062v21.039062zm0 0" fill="#53433f"/></svg>