<svg xmlns="http://www.w3.org/2000/svg" height="512pt" version="1.1" viewBox="0 0 512 512" width="512pt">
<g id="surface1">
<path d="M 512 256 C 512 397.386719 397.386719 512 256 512 C 114.613281 512 0 397.386719 0 256 C 0 114.613281 114.613281 0 256 0 C 397.386719 0 512 114.613281 512 256 Z M 512 256 " style=" stroke:none;fill-rule:nonzero;fill:rgb(25.490196%,28.627451%,32.156863%);fill-opacity:1;" />
<path d="M 512 256 C 512 246.0625 511.414062 236.265625 510.3125 226.625 L 405.726562 122.039062 L 81.667969 345.625 L 247.898438 511.859375 C 250.589844 511.941406 253.289062 512 256 512 C 346.304688 512 425.679688 465.238281 471.253906 394.613281 L 471.15625 394.515625 L 471.625 394.050781 C 497.179688 354.214844 512 306.839844 512 256 Z M 512 256 " style=" stroke:none;fill-rule:nonzero;fill:rgb(20%,22.352941%,25.098039%);fill-opacity:1;" />
<path d="M 411.167969 338.722656 L 100.832031 338.722656 L 100.832031 135.878906 C 100.832031 124.648438 109.933594 115.546875 121.160156 115.546875 L 390.835938 115.546875 C 402.066406 115.546875 411.167969 124.652344 411.167969 135.878906 Z M 411.167969 338.722656 " style=" stroke:none;fill-rule:nonzero;fill:rgb(100%,100%,100%);fill-opacity:1;" />
<path d="M 411.167969 135.878906 C 411.167969 124.648438 402.066406 115.546875 390.835938 115.546875 L 255.761719 115.546875 L 255.761719 338.722656 L 411.167969 338.722656 Z M 411.167969 135.878906 " style=" stroke:none;fill-rule:nonzero;fill:rgb(91.372549%,92.941176%,96.078431%);fill-opacity:1;" />
<path d="M 400.378906 333.722656 L 111.621094 333.722656 L 111.621094 135.976562 C 111.621094 130.507812 116.058594 126.070312 121.53125 126.070312 L 390.46875 126.070312 C 395.941406 126.070312 400.375 130.507812 400.375 135.976562 L 400.375 333.722656 Z M 400.378906 333.722656 " style=" stroke:none;fill-rule:nonzero;fill:rgb(29.019608%,47.843137%,100%);fill-opacity:1;" />
<path d="M 400.378906 135.976562 C 400.378906 130.507812 395.941406 126.070312 390.46875 126.070312 L 255.761719 126.070312 L 255.761719 333.722656 L 400.378906 333.722656 Z M 400.378906 135.976562 " style=" stroke:none;fill-rule:nonzero;fill:rgb(15.686275%,39.215686%,94.117647%);fill-opacity:1;" />
<path d="M 355.015625 277.964844 C 350.546875 276.335938 347.570312 272.085938 347.570312 267.328125 L 347.570312 256.832031 L 316.054688 256.832031 L 316.054688 267.328125 C 316.054688 272.085938 313.078125 276.335938 308.609375 277.964844 L 278.300781 289 L 385.320312 289 Z M 355.015625 277.964844 " style=" stroke:none;fill-rule:nonzero;fill:rgb(3.529412%,80.784314%,40.392157%);fill-opacity:1;" />
<path d="M 355.015625 277.960938 C 350.546875 276.335938 347.570312 272.085938 347.570312 267.328125 L 347.570312 256.832031 L 331.636719 256.832031 L 331.636719 289 L 385.320312 289 Z M 355.015625 277.960938 " style=" stroke:none;fill-rule:nonzero;fill:rgb(10.196078%,67.843137%,36.078431%);fill-opacity:1;" />
<path d="M 305.453125 212.585938 C 305.453125 220.0625 299.394531 226.121094 291.917969 226.121094 C 284.441406 226.121094 278.378906 220.0625 278.378906 212.585938 C 278.378906 205.109375 284.441406 199.046875 291.917969 199.046875 C 299.394531 199.046875 305.453125 205.109375 305.453125 212.585938 Z M 305.453125 212.585938 " style=" stroke:none;fill-rule:nonzero;fill:rgb(100%,74.509804%,66.666667%);fill-opacity:1;" />
<path d="M 385.242188 212.585938 C 385.242188 220.0625 379.183594 226.121094 371.707031 226.121094 C 364.230469 226.121094 358.167969 220.0625 358.167969 212.585938 C 358.167969 205.109375 364.230469 199.046875 371.707031 199.046875 C 379.183594 199.046875 385.242188 205.109375 385.242188 212.585938 Z M 385.242188 212.585938 " style=" stroke:none;fill-rule:nonzero;fill:rgb(100%,74.509804%,66.666667%);fill-opacity:1;" />
<path d="M 349.835938 263.261719 L 340.796875 267.90625 C 335.15625 270.804688 328.464844 270.804688 322.828125 267.90625 L 313.785156 263.261719 C 300.390625 256.382812 291.96875 242.585938 291.96875 227.527344 L 291.96875 192.292969 C 291.96875 170.289062 309.804688 152.453125 331.808594 152.453125 C 353.8125 152.453125 371.652344 170.289062 371.652344 192.292969 L 371.652344 227.527344 C 371.652344 242.585938 363.230469 256.382812 349.835938 263.261719 Z M 349.835938 263.261719 " style=" stroke:none;fill-rule:nonzero;fill:rgb(100%,80.392157%,74.509804%);fill-opacity:1;" />
<path d="M 331.8125 152.453125 C 331.753906 152.453125 331.695312 152.453125 331.636719 152.453125 L 331.636719 270.074219 C 334.777344 270.101562 337.921875 269.382812 340.796875 267.90625 L 349.835938 263.261719 C 363.230469 256.382812 371.652344 242.585938 371.652344 227.527344 L 371.652344 192.292969 C 371.652344 170.289062 353.816406 152.453125 331.8125 152.453125 Z M 331.8125 152.453125 " style=" stroke:none;fill-rule:nonzero;fill:rgb(100%,74.509804%,66.666667%);fill-opacity:1;" />
<path d="M 367.628906 192.363281 L 375.8125 192.363281 L 375.8125 227.972656 L 367.628906 227.972656 Z M 367.628906 192.363281 " style=" stroke:none;fill-rule:nonzero;fill:rgb(89.803922%,34.117647%,6.27451%);fill-opacity:1;" />
<path d="M 324.648438 206.210938 L 303.636719 206.210938 C 290.714844 206.210938 280.238281 195.734375 280.238281 182.8125 C 280.238281 163.484375 295.90625 147.8125 315.234375 147.8125 L 343.953125 147.8125 C 346.214844 147.8125 348.046875 149.648438 348.046875 151.90625 L 348.046875 182.8125 C 348.046875 195.734375 337.570312 206.210938 324.648438 206.210938 Z M 324.648438 206.210938 " style=" stroke:none;fill-rule:nonzero;fill:rgb(99.607843%,41.568627%,8.627451%);fill-opacity:1;" />
<path d="M 343.953125 147.8125 L 331.636719 147.8125 L 331.636719 205.148438 C 341.144531 202.175781 348.046875 193.300781 348.046875 182.8125 L 348.046875 151.90625 C 348.046875 149.648438 346.214844 147.8125 343.953125 147.8125 Z M 343.953125 147.8125 " style=" stroke:none;fill-rule:nonzero;fill:rgb(89.803922%,34.117647%,6.27451%);fill-opacity:1;" />
<path d="M 365.960938 206.210938 C 355.464844 206.210938 346.957031 197.703125 346.957031 187.207031 L 346.957031 152.386719 C 346.957031 149.859375 349.003906 147.8125 351.527344 147.8125 L 355.660156 147.8125 C 371.84375 147.8125 384.964844 160.933594 384.964844 177.117188 L 384.964844 187.207031 C 384.964844 197.703125 376.453125 206.210938 365.960938 206.210938 Z M 365.960938 206.210938 " style=" stroke:none;fill-rule:nonzero;fill:rgb(89.803922%,34.117647%,6.27451%);fill-opacity:1;" />
<path d="M 287.808594 192.363281 L 295.996094 192.363281 L 295.996094 227.972656 L 287.808594 227.972656 Z M 287.808594 192.363281 " style=" stroke:none;fill-rule:nonzero;fill:rgb(99.607843%,41.568627%,8.627451%);fill-opacity:1;" />
<path d="M 81.667969 310.414062 L 430.335938 310.414062 L 430.335938 345.625 L 81.667969 345.625 Z M 81.667969 310.414062 " style=" stroke:none;fill-rule:nonzero;fill:rgb(86.27451%,88.235294%,92.156863%);fill-opacity:1;" />
<path d="M 255.761719 310.414062 L 430.332031 310.414062 L 430.332031 345.625 L 255.761719 345.625 Z M 255.761719 310.414062 " style=" stroke:none;fill-rule:nonzero;fill:rgb(80.392157%,82.352941%,88.235294%);fill-opacity:1;" />
<path d="M 129 155.871094 L 250.910156 155.871094 L 250.910156 171.832031 L 129 171.832031 Z M 129 155.871094 " style=" stroke:none;fill-rule:nonzero;fill:rgb(80.392157%,82.352941%,88.235294%);fill-opacity:1;" />
<path d="M 190.285156 155.871094 L 250.910156 155.871094 L 250.910156 171.832031 L 190.285156 171.832031 Z M 190.285156 155.871094 " style=" stroke:none;fill-rule:nonzero;fill:rgb(74.509804%,76.470588%,82.352941%);fill-opacity:1;" />
<path d="M 129 190.25 L 250.910156 190.25 L 250.910156 206.210938 L 129 206.210938 Z M 129 190.25 " style=" stroke:none;fill-rule:nonzero;fill:rgb(80.392157%,82.352941%,88.235294%);fill-opacity:1;" />
<path d="M 190.285156 190.25 L 250.910156 190.25 L 250.910156 206.210938 L 190.285156 206.210938 Z M 190.285156 190.25 " style=" stroke:none;fill-rule:nonzero;fill:rgb(74.509804%,76.470588%,82.352941%);fill-opacity:1;" />
<path d="M 129 224.628906 L 250.910156 224.628906 L 250.910156 240.589844 L 129 240.589844 Z M 129 224.628906 " style=" stroke:none;fill-rule:nonzero;fill:rgb(80.392157%,82.352941%,88.235294%);fill-opacity:1;" />
<path d="M 190.285156 224.628906 L 250.910156 224.628906 L 250.910156 240.589844 L 190.285156 240.589844 Z M 190.285156 224.628906 " style=" stroke:none;fill-rule:nonzero;fill:rgb(74.509804%,76.470588%,82.352941%);fill-opacity:1;" />
<path d="M 129 259.007812 L 250.910156 259.007812 L 250.910156 274.972656 L 129 274.972656 Z M 129 259.007812 " style=" stroke:none;fill-rule:nonzero;fill:rgb(80.392157%,82.352941%,88.235294%);fill-opacity:1;" />
<path d="M 190.285156 259.007812 L 250.910156 259.007812 L 250.910156 274.972656 L 190.285156 274.972656 Z M 190.285156 259.007812 " style=" stroke:none;fill-rule:nonzero;fill:rgb(74.509804%,76.470588%,82.352941%);fill-opacity:1;" />
</g>
</svg>