<svg height="512pt" viewBox="0 0 512 512" width="512pt" xmlns="http://www.w3.org/2000/svg"><path d="m512 256c0 141.386719-114.613281 256-256 256s-256-114.613281-256-256 114.613281-256 256-256 256 114.613281 256 256zm0 0" fill="#185f8d"/><path d="m510.800781 280.789062-99.796875-99.796874-285.339844 218.679687 111.648438 111.644531c6.171875.445313 12.402344.683594 18.6875.683594 133.019531 0 242.332031-101.460938 254.800781-231.210938zm0 0" fill="#082947"/><path d="m143.441406 353.894531 14.664063 14.664063-31.773438 31.773437-14.667969-14.664062zm0 0" fill="#55a7a2"/><path d="m327.011719 97-68.4375 68.4375 53.773437 53.769531 58.660156-78.214843zm0 0" fill="#c1e8e6"/><path d="m371.003906 140.992188 43.992188 43.992187-68.433594 68.433594-43.992188-43.992188zm0 0" fill="#98d9d5"/><path d="m327.011719 140.992188 14.664062 14.664062-14.664062 14.664062-14.667969-14.664062zm0 0" fill="#77c0bc"/><path d="m356.339844 170.320312 14.664062 14.664063-14.664062 14.664063-14.664063-14.664063zm0 0" fill="#55a7a2"/><path d="m253.6875 140.992188-156.6875 156.691406 58.660156 58.65625 88.117188-68.566406 68.570312-88.121094zm0 0" fill="#ff6e1d"/><path d="m312.347656 199.652344 58.65625 58.65625-156.683594 156.6875-58.660156-58.660156zm0 0" fill="#f2484b"/><path d="m281.855469 230.144531c-16.199219-16.195312-42.460938-16.195312-58.660157 0l-111.53125 111.53125 29.332032 29.332031zm0 0" fill="#c1e8e6"/><path d="m281.855469 288.804688c16.195312-16.199219 16.195312-42.460938 0-58.660157l-140.863281 140.863281 29.332031 29.328126zm0 0" fill="#98d9d5"/><path d="m258.011719 264.363281c0 5.726563-4.644531 10.371094-10.371094 10.371094s-10.371094-4.644531-10.371094-10.371094c0-5.726562 4.644531-10.371093 10.371094-10.371093s10.371094 4.644531 10.371094 10.371093zm0 0" fill="#ff6e1d"/></svg>