<?xml version="1.0" encoding="iso-8859-1"?>
<!-- Generator: Adobe Illustrator 19.0.0, SVG Export Plug-In . SVG Version: 6.00 Build 0)  -->
<svg version="1.1" id="Capa_1" xmlns="http://www.w3.org/2000/svg" xmlns:xlink="http://www.w3.org/1999/xlink" x="0px" y="0px"
	 viewBox="0 0 512 512" style="enable-background:new 0 0 512 512;" xml:space="preserve">
<circle style="fill:#FEE17A;" cx="256" cy="256" r="256"/>
<path style="fill:#FCC55F;" d="M512,256c0-19.462-2.183-38.413-6.298-56.631L382,75.667L140,82.69l-10,353.643l69.369,69.369
	C217.587,509.817,236.538,512,256,512C397.385,512,512,397.385,512,256z"/>
<rect x="140" y="359.56" style="fill:#8C6E63;" width="232" height="20"/>
<rect x="255.95" y="359.56" style="fill:#795548;" width="116.05" height="20"/>
<rect x="140" y="132.44" style="fill:#8C6E63;" width="232" height="20"/>
<rect x="255.95" y="132.44" style="fill:#795548;" width="116.05" height="20"/>
<rect x="140" y="189.22" style="fill:#8C6E63;" width="232" height="20"/>
<rect x="255.95" y="189.22" style="fill:#795548;" width="116.05" height="20"/>
<rect x="140" y="246" style="fill:#8C6E63;" width="232" height="20"/>
<rect x="255.95" y="246" style="fill:#795548;" width="116.05" height="20"/>
<rect x="140" y="302.78" style="fill:#8C6E63;" width="232" height="20"/>
<rect x="255.95" y="302.78" style="fill:#795548;" width="116.05" height="20"/>
<path style="fill:#6D4C41;" d="M382,436.333H130V75.667h252V436.333z M150,416.333h212V95.667H150V416.333z"/>
<polygon style="fill:#5D4037;" points="382,75.667 255.952,75.667 255.952,95.667 362,95.667 362,416.333 255.952,416.333 
	255.952,436.333 382,436.333 "/>
<g>
	<path style="fill:#FE3D00;" d="M163,134v17.334c0,12.703,10.297,23,23,23l0,0c12.703,0,23-10.297,23-23V134
		c0-12.703-10.297-23-23-23l0,0C173.297,111,163,121.297,163,134z"/>
	<path style="fill:#FE3D00;" d="M219.5,134v17.334c0,12.703,10.297,23,23,23l0,0c12.703,0,23-10.297,23-23V134
		c0-12.703-10.297-23-23-23l0,0C229.797,111,219.5,121.297,219.5,134z"/>
</g>
<path style="fill:#DC2C00;" d="M255.952,115.35v54.634c5.782-4.178,9.548-10.972,9.548-18.65V134
	C265.5,126.322,261.734,119.527,255.952,115.35z"/>
<g>
	<path style="fill:#FE3D00;" d="M163,303.5v17.334c0,12.703,10.297,23,23,23l0,0c12.703,0,23-10.297,23-23V303.5
		c0-12.703-10.297-23-23-23l0,0C173.297,280.5,163,290.797,163,303.5z"/>
	<path style="fill:#FE3D00;" d="M219.5,303.5v17.334c0,12.703,10.297,23,23,23l0,0c12.703,0,23-10.297,23-23V303.5
		c0-12.703-10.297-23-23-23l0,0C229.797,280.5,219.5,290.797,219.5,303.5z"/>
</g>
<g>
	<path style="fill:#DC2C00;" d="M255.952,284.85v54.634c5.782-4.178,9.548-10.972,9.548-18.65V303.5
		C265.5,295.822,261.734,289.027,255.952,284.85z"/>
	<path style="fill:#DC2C00;" d="M267,246v17.334c0,12.703,10.297,23,23,23l0,0c12.703,0,23-10.297,23-23V246
		c0-12.703-10.297-23-23-23l0,0C277.297,223,267,233.297,267,246z"/>
	<path style="fill:#DC2C00;" d="M267,361v17.334c0,12.703,10.297,23,23,23l0,0c12.703,0,23-10.297,23-23V361
		c0-12.703-10.297-23-23-23l0,0C277.297,338,267,348.297,267,361z"/>
	<path style="fill:#DC2C00;" d="M307,189.5v17.334c0,12.703,10.297,23,23,23l0,0c12.703,0,23-10.297,23-23V189.5
		c0-12.703-10.297-23-23-23l0,0C317.297,166.5,307,176.797,307,189.5z"/>
</g>
<g>
</g>
<g>
</g>
<g>
</g>
<g>
</g>
<g>
</g>
<g>
</g>
<g>
</g>
<g>
</g>
<g>
</g>
<g>
</g>
<g>
</g>
<g>
</g>
<g>
</g>
<g>
</g>
<g>
</g>
</svg>
