<?xml version="1.0" encoding="iso-8859-1"?>
<!-- Generator: Adobe Illustrator 19.0.0, SVG Export Plug-In . SVG Version: 6.00 Build 0)  -->
<svg xmlns="http://www.w3.org/2000/svg" xmlns:xlink="http://www.w3.org/1999/xlink" version="1.1" id="Capa_1" x="0px" y="0px" viewBox="0 0 512 512" style="enable-background:new 0 0 512 512;" xml:space="preserve">
<circle style="fill:#73A8DB;" cx="256" cy="255.999" r="255.999"/>
<path style="fill:#497FC1;" d="M205.799,95.102h-65.573v131.799l0,0L169.325,256h-59.514v131.799l123.158,123.158  c7.589,0.677,15.268,1.043,23.032,1.043c117.289,0,216.149-78.88,246.442-186.482L272.026,95.102l0,0H205.799z"/>
<rect x="109.81" y="255.999" style="fill:#E25F3F;" width="131.797" height="131.797"/>
<rect x="175.056" y="255.999" style="fill:#BB161B;" width="66.554" height="131.797"/>
<rect x="270.707" y="255.999" style="fill:#C3DA49;" width="131.797" height="131.797"/>
<rect x="337.258" y="255.999" style="fill:#7DC152;" width="65.256" height="131.797"/>
<rect x="140.225" y="95.102" style="fill:#F6D433;" width="131.797" height="131.797"/>
<rect x="205.795" y="95.102" style="fill:#EDA637;" width="66.227" height="131.797"/>
<g>
	<path style="fill:#FFFFFF;" d="M214.658,178.669h-19.73l-2.74,9.284h-17.744l21.138-56.24h18.956l21.134,56.24h-18.198   L214.658,178.669z M211.053,166.508l-6.208-20.217l-6.143,20.217H211.053z"/>
	<path style="fill:#FFFFFF;" d="M149.378,290.003h32.532c5.422,0,9.585,1.343,12.488,4.028c2.902,2.685,4.354,6.01,4.354,9.975   c0,3.325-1.036,6.176-3.107,8.555c-1.381,1.587-3.402,2.839-6.061,3.76c4.04,0.972,7.013,2.64,8.92,5.007   c1.904,2.366,2.858,5.338,2.858,8.92c0,2.916-0.678,5.538-2.033,7.865c-1.356,2.327-3.21,4.169-5.563,5.524   c-1.458,0.844-3.658,1.458-6.598,1.841c-3.913,0.512-6.509,0.767-7.788,0.767h-29.999L149.378,290.003L149.378,290.003z    M166.91,312.062h7.558c2.711,0,4.598-0.467,5.659-1.4c1.062-0.933,1.592-2.283,1.592-4.047c0-1.637-0.531-2.916-1.592-3.836   c-1.062-0.92-2.91-1.381-5.543-1.381h-7.673L166.91,312.062L166.91,312.062z M166.91,334.16h8.862c2.992,0,5.102-0.531,6.33-1.592   c1.227-1.061,1.842-2.487,1.842-4.277c0-1.662-0.608-2.998-1.822-4.009c-1.215-1.011-3.345-1.515-6.387-1.515h-8.823L166.91,334.16   L166.91,334.16z"/>
	<path style="fill:#FFFFFF;" d="M349.651,323.226l15.23,4.603c-1.023,4.272-2.634,7.839-4.834,10.703   c-2.2,2.865-4.929,5.026-8.191,6.483c-3.261,1.457-7.411,2.187-12.449,2.187c-6.112,0-11.107-0.888-14.981-2.665   c-3.875-1.776-7.218-4.9-10.032-9.373c-2.814-4.473-4.22-10.198-4.22-17.176c0-9.303,2.474-16.453,7.423-21.45   c4.949-4.997,11.95-7.496,21.003-7.496c7.084,0,12.653,1.432,16.707,4.296c4.053,2.865,7.065,7.263,9.034,13.197l-15.345,3.414   c-0.537-1.713-1.1-2.967-1.688-3.76c-0.972-1.329-2.161-2.353-3.568-3.069c-1.407-0.715-2.98-1.074-4.718-1.074   c-3.939,0-6.957,1.585-9.054,4.752c-1.587,2.351-2.378,6.042-2.378,11.073c0,6.233,0.946,10.506,2.838,12.817   c1.893,2.312,4.552,3.468,7.98,3.468c3.324,0,5.837-0.934,7.538-2.8C347.649,329.492,348.884,326.78,349.651,323.226z"/>
</g>
<g>
</g>
<g>
</g>
<g>
</g>
<g>
</g>
<g>
</g>
<g>
</g>
<g>
</g>
<g>
</g>
<g>
</g>
<g>
</g>
<g>
</g>
<g>
</g>
<g>
</g>
<g>
</g>
<g>
</g>
</svg>
