<svg height="512pt" viewBox="0 0 512 512" width="512pt" xmlns="http://www.w3.org/2000/svg"><path d="m512 256c0 141.386719-114.613281 256-256 256s-256-114.613281-256-256 114.613281-256 256-256 256 114.613281 256 256zm0 0" fill="#811c26"/><path d="m512 256c0-6.582031-.25-13.105469-.738281-19.5625l-108.261719-108.261719-294 255.648438 127.4375 127.4375c6.457031.488281 12.980469.738281 19.5625.738281 141.386719 0 256-114.613281 256-256zm0 0" fill="#442236"/><path d="m109 128.175781v255.648438h38.347656l12.78125-127.824219-12.78125-127.824219zm0 0" fill="#c1e8e6"/><path d="m147.347656 128.175781v255.648438h127.828125l12.78125-127.824219-12.78125-127.824219zm0 0" fill="#77c0bc"/><path d="m275.175781 128.175781h127.824219v255.648438h-127.824219zm0 0" fill="#55a7a2"/><path d="m185.695312 256 44.738282 12.78125 44.742187-12.78125 12.78125-44.738281-12.78125-44.738281c-49.417969 0-89.480469 40.058593-89.480469 89.476562zm0 0" fill="#c1e8e6"/><path d="m275.175781 166.523438v89.476562l44.417969-18.851562 18.851562-44.417969c-16.191406-16.195313-38.5625-26.207031-63.269531-26.207031zm0 0" fill="#98d9d5"/><path d="m275.175781 256-12.785156 44.738281 12.785156 44.738281c49.414063 0 89.476563-40.058593 89.476563-89.476562l-44.738282-12.78125zm0 0" fill="#98d9d5"/><path d="m211.902344 319.269531c16.191406 16.195313 38.5625 26.210938 63.273437 26.210938v-89.480469l-44.417969 18.851562zm0 0" fill="#c1e8e6"/><path d="m185.695312 256c0 24.710938 10.015626 47.078125 26.207032 63.269531l63.273437-63.269531zm0 0" fill="#fff"/><path d="m364.652344 256c0-24.710938-10.015625-47.078125-26.207032-63.269531l-63.269531 63.269531zm0 0" fill="#c1e8e6"/><path d="m246.414062 256c0 15.882812 12.875 28.761719 28.761719 28.761719l12.78125-28.761719-12.78125-28.761719c-15.886719 0-28.761719 12.878907-28.761719 28.761719zm0 0" fill="#98d9d5"/><path d="m275.175781 227.238281v57.523438c15.882813 0 28.757813-12.878907 28.757813-28.761719s-12.875-28.761719-28.757813-28.761719zm0 0" fill="#77c0bc"/></svg>