<svg xmlns="http://www.w3.org/2000/svg" height="512pt" version="1.1" viewBox="0 0 512 512" width="512pt">
<g id="surface1">
<path d="M 512 256 C 512 397.386719 397.386719 512 256 512 C 114.613281 512 0 397.386719 0 256 C 0 114.613281 114.613281 0 256 0 C 397.386719 0 512 114.613281 512 256 Z M 512 256 " style=" stroke:none;fill-rule:nonzero;fill:rgb(29.019608%,47.843137%,100%);fill-opacity:1;" />
<path d="M 512 256 C 512 254.070312 511.96875 252.148438 511.925781 250.226562 L 436.542969 174.84375 L 438.6875 217.6875 L 282 61 L 193.785156 259.414062 L 136.765625 202.398438 L 129.082031 215.40625 L 99.175781 185.496094 L 75.457031 227.929688 L 75.457031 337.15625 L 133.4375 395.136719 L 129.5 404 L 236.785156 511.285156 C 243.128906 511.753906 249.535156 512 256 512 C 397.386719 512 512 397.386719 512 256 Z M 512 256 " style=" stroke:none;fill-rule:nonzero;fill:rgb(15.686275%,39.215686%,94.117647%);fill-opacity:1;" />
<path d="M 282 108.054688 L 282 61 L 230 61 L 230 108.054688 C 180.960938 119.769531 144.5 163.871094 144.5 216.5 L 144.5 389 L 367.5 389 L 367.5 216.5 C 367.5 163.875 331.039062 119.769531 282 108.054688 Z M 282 108.054688 " style=" stroke:none;fill-rule:nonzero;fill:rgb(100%,83.137255%,0%);fill-opacity:1;" />
<path d="M 367.5 216.5 C 367.5 163.875 331.039062 119.769531 282 108.054688 L 282 61 L 255.761719 61 L 255.761719 389 L 367.5 389 Z M 367.5 216.5 " style=" stroke:none;fill-rule:nonzero;fill:rgb(99.215686%,72.941176%,7.058824%);fill-opacity:1;" />
<path d="M 235.5 412.25 C 235.5 434.203125 217.703125 452 195.75 452 C 173.796875 452 156 434.203125 156 412.25 C 156 390.296875 173.796875 372.5 195.75 372.5 C 217.703125 372.5 235.5 390.296875 235.5 412.25 Z M 235.5 412.25 " style=" stroke:none;fill-rule:nonzero;fill:rgb(100%,83.137255%,0%);fill-opacity:1;" />
<path d="M 129.5 341 L 382.5 341 L 382.5 404 L 129.5 404 Z M 129.5 341 " style=" stroke:none;fill-rule:nonzero;fill:rgb(99.215686%,72.941176%,7.058824%);fill-opacity:1;" />
<path d="M 255.761719 341 L 382.5 341 L 382.5 404 L 255.761719 404 Z M 255.761719 341 " style=" stroke:none;fill-rule:nonzero;fill:rgb(100%,63.921569%,0%);fill-opacity:1;" />
<path d="M 75.457031 337.15625 C 52.285156 285.582031 52.285156 226.417969 75.457031 174.84375 L 99.175781 185.496094 C 79.042969 230.304688 79.042969 281.695312 99.175781 326.503906 Z M 75.457031 337.15625 " style=" stroke:none;fill-rule:nonzero;fill:rgb(100%,100%,100%);fill-opacity:1;" />
<path d="M 436.542969 337.15625 L 412.824219 326.503906 C 432.957031 281.695312 432.957031 230.304688 412.824219 185.496094 L 436.542969 174.84375 C 459.714844 226.417969 459.714844 285.582031 436.542969 337.15625 Z M 436.542969 337.15625 " style=" stroke:none;fill-rule:nonzero;fill:rgb(94.901961%,96.470588%,98.823529%);fill-opacity:1;" />
<path d="M 118.523438 317.800781 C 100.878906 278.523438 100.878906 233.476562 118.523438 194.199219 L 136.765625 202.398438 C 121.460938 236.460938 121.460938 275.535156 136.765625 309.601562 Z M 118.523438 317.800781 " style=" stroke:none;fill-rule:nonzero;fill:rgb(100%,100%,100%);fill-opacity:1;" />
<path d="M 393.476562 317.800781 L 375.234375 309.601562 C 390.539062 275.535156 390.539062 236.460938 375.234375 202.398438 L 393.476562 194.199219 C 411.121094 233.476562 411.121094 278.523438 393.476562 317.800781 Z M 393.476562 317.800781 " style=" stroke:none;fill-rule:nonzero;fill:rgb(94.901961%,96.470588%,98.823529%);fill-opacity:1;" />
</g>
</svg>