<?xml version="1.0" encoding="iso-8859-1"?>
<!-- Generator: Adobe Illustrator 19.0.0, SVG Export Plug-In . SVG Version: 6.00 Build 0)  -->
<svg xmlns="http://www.w3.org/2000/svg" xmlns:xlink="http://www.w3.org/1999/xlink" version="1.1" id="Capa_1" x="0px" y="0px" viewBox="0 0 512 512" style="enable-background:new 0 0 512 512;" xml:space="preserve">
<circle style="fill:#69C4D2;" cx="255.997" cy="256" r="255.997"/>
<path style="fill:#38979E;" d="M512,256.003c0-2.205-0.028-4.403-0.084-6.594L345.485,82.978c0,0-0.048,0.11-0.136,0.313  c-0.011,0.026-0.016,0.037-0.029,0.065l0,0c-1.835,4.241-18.737,43.583-18.737,53.455c0,6.708,3.505,12.585,8.772,15.94h-6.589  v29.041c0,0-0.016,1.398-0.035,3.968l-62.435-62.435l-0.017,0.017c-10.531-10.895-23.88-19.207-39.151-23.703  c-38.175-11.238-79.169,4.028-100.76,37.456c-19.813,30.674-31.312,67.219-31.312,106.452c0,53.691,21.539,102.349,56.446,137.811  l-0.006,0.006l129.427,129.427C410.612,498.259,512,388.978,512,256.003z"/>
<path style="fill:#FFFFFF;" d="M239.745,298.095c0-15.752,7.035-29.862,18.135-39.358c21.316-18.235,33.639-44.952,33.639-73.004  v-0.021c0-39.795-26.212-74.834-64.388-86.073s-79.169,4.028-100.76,37.456c-19.813,30.674-31.312,67.219-31.312,106.451  c0,85.736,54.918,158.644,131.496,185.465c14.932,5.23,31.472,2.897,44.378-6.255c12.906-9.152,20.586-23.994,20.586-39.816v-0.057  c0-16.31-9.135-31.259-23.641-38.717C251.172,335.579,239.745,318.172,239.745,298.095z"/>
<circle style="fill:#F7E05D;" cx="198.254" cy="155.954" r="29.881"/>
<circle style="fill:#E57654;" cx="145.261" cy="217.984" r="29.881"/>
<circle style="fill:#8DC652;" cx="162.735" cy="300.861" r="29.881"/>
<path style="fill:#F4C479;" d="M364.386,136.812c0,10.438-8.462,18.9-18.9,18.9s-18.9-8.462-18.9-18.9s18.9-53.834,18.9-53.834  S364.386,126.373,364.386,136.812z"/>
<path style="fill:#A16125;" d="M345.485,428.418c-19.421,0-16.717-246.625-16.717-246.625h33.434  C362.202,181.793,362.202,428.418,345.485,428.418z"/>
<rect x="328.765" y="152.748" style="fill:#ACACB2;" width="33.434" height="29.041"/>
<path style="fill:#F1B559;" d="M345.321,83.355v72.348c0.055,0,0.109,0.009,0.164,0.009c10.438,0,18.9-8.462,18.9-18.901  s-18.9-53.834-18.9-53.834S345.427,83.113,345.321,83.355z"/>
<rect x="345.324" y="152.748" style="fill:#8A8A91;" width="16.884" height="29.041"/>
<path style="fill:#7E4F1F;" d="M345.321,428.402c0.055,0.004,0.109,0.017,0.164,0.017c16.586,0,16.716-242.786,16.717-246.58  c0-0.03,0-0.045,0-0.045h-16.881V428.402z"/>
<path style="fill:#F6CE23;" d="M198.257,126.069v59.761c16.503,0,29.881-13.379,29.881-29.881S214.76,126.069,198.257,126.069z"/>
<path style="fill:#CF5D3A;" d="M145.261,188.103v59.761c16.503,0,29.881-13.379,29.881-29.881S161.764,188.103,145.261,188.103z"/>
<path style="fill:#6AAF50;" d="M162.738,270.98v59.761c16.503,0,29.881-13.378,29.881-29.881S179.241,270.98,162.738,270.98z"/>
<g>
</g>
<g>
</g>
<g>
</g>
<g>
</g>
<g>
</g>
<g>
</g>
<g>
</g>
<g>
</g>
<g>
</g>
<g>
</g>
<g>
</g>
<g>
</g>
<g>
</g>
<g>
</g>
<g>
</g>
</svg>
