<svg height="512pt" viewBox="0 0 512 512" width="512pt" xmlns="http://www.w3.org/2000/svg"><path d="m512 256c0 141.386719-114.613281 256-256 256s-256-114.613281-256-256 114.613281-256 256-256 256 114.613281 256 256zm0 0" fill="#811c26"/><path d="m511.519531 271.519531-188.019531-188.019531-45 45-45-45-67.5 345 83.417969 83.417969c2.1875.054687 4.382812.082031 6.582031.082031 136.171875 0 247.492188-106.324219 255.519531-240.480469zm0 0" fill="#442236"/><path d="m188.5 128.5 22.5 15 22.5-15v-45h-45zm0 0" fill="#f2484b"/><path d="m278.5 83.5v45l22.5 15 22.5-15v-45zm0 0" fill="#d82f30"/><path d="m188.5 128.5h45v97.5h-45zm0 0" fill="#ffcc75"/><path d="m278.5 128.5h45v97.5h-45zm0 0" fill="#ff9d49"/><path d="m166 211v217.5h77.5l22.5-217.5zm0 0" fill="#f9dca7"/><path d="m291 211-22.5 217.5h77.5v-217.5zm0 0" fill="#ffcc75"/><path d="m256 211c-1.816406 104.238281-20.683594 113.261719-22.5 217.5h45c1.816406-104.238281 20.683594-113.261719 22.5-217.5zm0 0" fill="#f2ebd9"/></svg>