<svg height="512pt" viewBox="0 0 512 512" width="512pt" xmlns="http://www.w3.org/2000/svg"><path d="m512 256c0 141.386719-114.613281 256-256 256s-256-114.613281-256-256 114.613281-256 256-256 256 114.613281 256 256zm0 0" fill="#53433f"/><path d="m512 256c0-18.363281-1.949219-36.273438-5.625-53.539062l-106.460938-106.460938-86.746093 86.75-81.246094-79.910156-66.667969 12.667968 107.578125 107.578126-13.207031 13.207031 25.480469 25.476562-46.542969 46.542969-25.875-25.875-28.792969 28.792969-58.792969-58.792969-38.476562 38.480469 58.789062 58.792969-44.207031 44.207031 115 115c12.96875 2.023437 26.257813 3.082031 39.792969 3.082031 141.386719 0 256-114.613281 256-256zm0 0" fill="#3e322e"/><path d="m254.417969 140.445312-26.71875-24.945312h-62.449219v-19.5h70.144531l32.335938 30.203125zm0 0" fill="#2fc0f0"/><path d="m399.898438 96v39l-13.257813 19.5h-126.035156l-27.105469-19.5c16.183594 0 29.25-13.066406 29.25-29.25v-9.75zm0 0" fill="#d3d3d8"/><path d="m386.640625 154.5h-73.777344v-58.5h87.035157v39zm0 0" fill="#babac0"/><path d="m419.398438 193.5-22.421876 19.5h-180.636718l-9.359375-19.5 19.5-58.5h173.417969zm0 0" fill="#e7e7e7"/><path d="m419.398438 193.5-22.421876 19.5h-84.113281v-78h87.035157zm0 0" fill="#d3d3d8"/><path d="m419.398438 193.5v165.75c0 16.183594-13.0625 29.25-29.25 29.25h-49.789063l-27.492187-36.855469-83.070313-111.148437-22.816406-46.996094zm0 0" fill="#2fc0f0"/><path d="m419.398438 193.5v165.75c0 16.183594-13.0625 29.25-29.25 29.25h-49.789063l-27.492187-36.855469v-158.144531zm0 0" fill="#0fa9dd"/><path d="m340.75 271.5v48.75l-19.890625 9.75h-198.574219l-16.183594-9.75v-48.75zm0 0" fill="#ffd400"/><path d="m340.75 271.5v48.75l-19.890625 9.75h-97.109375v-58.5zm0 0" fill="#fdbf00"/><path d="m106.101562 320.25v58.5h234.648438v-58.5zm0 0" fill="#b34f03"/><path d="m223.75 320.25h117v58.5h-117zm0 0" fill="#913f02"/><path d="m115.070312 252 98.929688 98.28125 98.28125-98.28125zm0 0" fill="#9cdd05"/><path d="m312.28125 252-88.53125 88.53125v-88.53125zm0 0" fill="#79ab03"/><path d="m86.601562 349.5v9.75c0 26.910156 21.839844 48.75 48.75 48.75h176.148438c26.910156 0 48.75-21.839844 48.75-48.75v-9.75zm0 0" fill="#ff9100"/><path d="m223.75 349.5h136.5v9.75c0 26.910156-21.839844 48.75-48.75 48.75h-87.75zm0 0" fill="#ff7816"/><path d="m272.5 193.5h-97.5c-23.203125 0-45.890625 9.164062-62.855469 25.738281-16.378906 16.773438-25.542969 38.808594-25.542969 62.011719v9.75h273.648438v-9.75c0-48.359375-39.390625-87.75-87.75-87.75zm0 0" fill="#ff9100"/><path d="m360.25 281.25v9.75h-136.5v-97.5h48.75c48.359375 0 87.75 39.390625 87.75 87.75zm0 0" fill="#ff7816"/><path d="m165.25 232.5h19.5v19.5h-19.5zm0 0" fill="#ffd400"/><path d="m214 232.5h19.5v19.5h-19.5zm0 0" fill="#ffd400"/><g fill="#fdbf00"><path d="m262.75 232.5h19.5v19.5h-19.5zm0 0"/><path d="m223.75 232.5h9.75v19.5h-9.75zm0 0"/></g></svg>