<svg xmlns="http://www.w3.org/2000/svg" height="512pt" version="1.1" viewBox="0 0 512 512.001" width="512pt">
<g id="surface1">
<path d="M 512 256 C 512 397.386719 397.386719 512 256 512 C 114.617188 512 0 397.386719 0 256 C 0 114.613281 114.617188 0 256 0 C 397.386719 0 512 114.613281 512 256 Z M 512 256 " style=" stroke:none;fill-rule:nonzero;fill:rgb(0%,92.941176%,100%);fill-opacity:1;" />
<path d="M 512 256 C 512 224.742188 506.390625 194.796875 496.132812 167.105469 L 400.054688 71.023438 L 112.382812 111.648438 L 285.710938 284.976562 L 117.628906 381.535156 L 247.957031 511.863281 C 250.628906 511.945312 253.308594 512 256 512 C 397.386719 512 512 397.386719 512 256 Z M 512 256 " style=" stroke:none;fill-rule:nonzero;fill:rgb(2.745098%,74.509804%,90.980392%);fill-opacity:1;" />
<path d="M 194.347656 417.398438 C 139.117188 417.398438 94.34375 372.625 94.34375 317.394531 L 94.34375 286.714844 C 94.34375 267.285156 110.097656 251.53125 129.527344 251.53125 L 294.351562 251.53125 L 294.351562 317.394531 C 294.351562 372.625 249.578125 417.398438 194.347656 417.398438 Z M 194.347656 417.398438 " style=" stroke:none;fill-rule:nonzero;fill:rgb(56.862745%,58.823529%,66.666667%);fill-opacity:1;" />
<path d="M 317.652344 417.398438 C 372.882812 417.398438 417.65625 372.625 417.65625 317.394531 L 417.65625 286.714844 C 417.65625 267.285156 401.90625 251.53125 382.472656 251.53125 L 217.648438 251.53125 L 217.648438 317.394531 C 217.648438 372.625 262.421875 417.398438 317.652344 417.398438 Z M 317.652344 417.398438 " style=" stroke:none;fill-rule:nonzero;fill:rgb(49.411765%,52.156863%,58.823529%);fill-opacity:1;" />
<path d="M 352.308594 184.3125 L 256.21875 200.246094 L 160.128906 184.3125 L 160.128906 74.050781 L 352.308594 74.050781 Z M 352.308594 184.3125 " style=" stroke:none;fill-rule:nonzero;fill:rgb(33.333333%,35.294118%,40%);fill-opacity:1;" />
<path d="M 256.226562 73.824219 L 256.226562 199.980469 L 256.21875 200.246094 L 352.308594 184.3125 L 352.308594 74.050781 Z M 256.226562 73.824219 " style=" stroke:none;fill-rule:nonzero;fill:rgb(25.490196%,28.627451%,32.156863%);fill-opacity:1;" />
<path d="M 112.382812 71.023438 L 400.054688 71.023438 L 400.054688 111.648438 L 112.382812 111.648438 Z M 112.382812 71.023438 " style=" stroke:none;fill-rule:nonzero;fill:rgb(25.490196%,28.627451%,32.156863%);fill-opacity:1;" />
<path d="M 256.21875 71.023438 L 400.054688 71.023438 L 400.054688 111.648438 L 256.21875 111.648438 Z M 256.21875 71.023438 " style=" stroke:none;fill-rule:nonzero;fill:rgb(13.72549%,15.294118%,16.862745%);fill-opacity:1;" />
<path d="M 256.289062 452.976562 C 177.367188 452.976562 113.386719 388.996094 113.386719 310.074219 L 113.386719 215.960938 L 399.191406 215.960938 L 399.191406 310.074219 C 399.191406 388.996094 335.210938 452.976562 256.289062 452.976562 Z M 256.289062 452.976562 " style=" stroke:none;fill-rule:nonzero;fill:rgb(38.823529%,41.176471%,47.058824%);fill-opacity:1;" />
<path d="M 256.289062 215.925781 L 256.289062 452.941406 C 256.097656 452.972656 256.191406 452.976562 256.289062 452.976562 C 335.210938 452.976562 399.191406 388.996094 399.191406 310.074219 L 399.191406 215.960938 Z M 256.289062 215.925781 " style=" stroke:none;fill-rule:nonzero;fill:rgb(33.333333%,35.294118%,40%);fill-opacity:1;" />
<path d="M 256.289062 417.398438 C 201.058594 417.398438 156.285156 372.625 156.285156 317.394531 L 156.285156 251.53125 L 356.292969 251.53125 L 356.292969 317.394531 C 356.292969 372.625 311.519531 417.398438 256.289062 417.398438 Z M 256.289062 417.398438 " style=" stroke:none;fill-rule:nonzero;fill:rgb(56.862745%,58.823529%,66.666667%);fill-opacity:1;" />
<path d="M 256.289062 251.535156 L 256.289062 417.394531 C 256.097656 417.394531 256.191406 417.398438 256.289062 417.398438 C 311.519531 417.398438 356.292969 372.625 356.292969 317.394531 L 356.292969 251.535156 Z M 256.289062 251.535156 " style=" stroke:none;fill-rule:nonzero;fill:rgb(49.411765%,52.156863%,58.823529%);fill-opacity:1;" />
<path d="M 322.964844 143.457031 C 294.527344 143.457031 269.683594 158.835938 256.289062 181.726562 C 242.894531 158.835938 218.050781 143.457031 189.613281 143.457031 C 146.972656 143.457031 112.410156 178.023438 112.410156 220.660156 C 112.410156 263.300781 146.972656 297.863281 189.613281 297.863281 C 218.050781 297.863281 242.894531 282.488281 256.289062 259.597656 C 269.683594 282.488281 294.527344 297.863281 322.964844 297.863281 C 365.605469 297.863281 400.167969 263.300781 400.167969 220.660156 C 400.167969 178.023438 365.605469 143.457031 322.964844 143.457031 Z M 322.964844 143.457031 " style=" stroke:none;fill-rule:nonzero;fill:rgb(25.490196%,28.627451%,32.156863%);fill-opacity:1;" />
<path d="M 256.289062 259.597656 C 269.683594 282.488281 294.527344 297.863281 322.964844 297.863281 C 365.601562 297.863281 400.167969 263.300781 400.167969 220.660156 C 400.167969 178.023438 365.605469 143.457031 322.964844 143.457031 C 294.527344 143.457031 269.683594 158.835938 256.289062 181.726562 Z M 256.289062 259.597656 " style=" stroke:none;fill-rule:nonzero;fill:rgb(13.72549%,15.294118%,16.862745%);fill-opacity:1;" />
<path d="M 236.636719 220.660156 C 236.636719 246.632812 215.585938 267.683594 189.613281 267.683594 C 163.644531 267.683594 142.589844 246.632812 142.589844 220.660156 C 142.589844 194.691406 163.644531 173.636719 189.613281 173.636719 C 215.585938 173.636719 236.636719 194.691406 236.636719 220.660156 Z M 236.636719 220.660156 " style=" stroke:none;fill-rule:nonzero;fill:rgb(100%,100%,100%);fill-opacity:1;" />
<path d="M 215.582031 220.660156 C 215.582031 235.003906 203.957031 246.628906 189.613281 246.628906 C 175.273438 246.628906 163.644531 235.003906 163.644531 220.660156 C 163.644531 206.320312 175.273438 194.691406 189.613281 194.691406 C 203.957031 194.691406 215.582031 206.320312 215.582031 220.660156 Z M 215.582031 220.660156 " style=" stroke:none;fill-rule:nonzero;fill:rgb(0%,92.941176%,100%);fill-opacity:1;" />
<path d="M 202.386719 220.660156 C 202.386719 227.714844 196.667969 233.433594 189.613281 233.433594 C 182.558594 233.433594 176.839844 227.714844 176.839844 220.660156 C 176.839844 213.605469 182.558594 207.890625 189.613281 207.890625 C 196.667969 207.890625 202.386719 213.605469 202.386719 220.660156 Z M 202.386719 220.660156 " style=" stroke:none;fill-rule:nonzero;fill:rgb(25.490196%,28.627451%,32.156863%);fill-opacity:1;" />
<path d="M 369.988281 220.660156 C 369.988281 246.632812 348.9375 267.683594 322.964844 267.683594 C 296.996094 267.683594 275.941406 246.632812 275.941406 220.660156 C 275.941406 194.691406 296.996094 173.636719 322.964844 173.636719 C 348.9375 173.636719 369.988281 194.691406 369.988281 220.660156 Z M 369.988281 220.660156 " style=" stroke:none;fill-rule:nonzero;fill:rgb(94.901961%,96.470588%,98.823529%);fill-opacity:1;" />
<path d="M 348.933594 220.660156 C 348.933594 235.003906 337.308594 246.628906 322.964844 246.628906 C 308.625 246.628906 296.996094 235.003906 296.996094 220.660156 C 296.996094 206.320312 308.625 194.691406 322.964844 194.691406 C 337.308594 194.691406 348.933594 206.320312 348.933594 220.660156 Z M 348.933594 220.660156 " style=" stroke:none;fill-rule:nonzero;fill:rgb(2.745098%,74.509804%,90.980392%);fill-opacity:1;" />
<path d="M 335.738281 220.988281 C 335.738281 228.042969 330.019531 233.761719 322.964844 233.761719 C 315.910156 233.761719 310.195312 228.042969 310.195312 220.988281 C 310.195312 213.9375 315.910156 208.21875 322.964844 208.21875 C 330.019531 208.21875 335.738281 213.9375 335.738281 220.988281 Z M 335.738281 220.988281 " style=" stroke:none;fill-rule:nonzero;fill:rgb(13.72549%,15.294118%,16.862745%);fill-opacity:1;" />
<path d="M 256.289062 321.253906 L 219.566406 277.511719 L 256.289062 247.804688 L 293.015625 277.511719 Z M 256.289062 321.253906 " style=" stroke:none;fill-rule:nonzero;fill:rgb(100%,83.137255%,0%);fill-opacity:1;" />
<path d="M 293.015625 277.511719 L 256.289062 247.804688 L 256.289062 321.253906 Z M 293.015625 277.511719 " style=" stroke:none;fill-rule:nonzero;fill:rgb(99.215686%,72.941176%,7.058824%);fill-opacity:1;" />
<path d="M 384.863281 98.851562 L 395.21875 98.851562 L 395.21875 209.839844 L 384.863281 209.839844 Z M 384.863281 98.851562 " style=" stroke:none;fill-rule:nonzero;fill:rgb(33.333333%,35.294118%,40%);fill-opacity:1;" />
<path d="M 389.5 98.855469 L 395.21875 98.855469 L 395.21875 209.839844 L 389.5 209.839844 Z M 389.5 98.855469 " style=" stroke:none;fill-rule:nonzero;fill:rgb(25.490196%,28.627451%,32.156863%);fill-opacity:1;" />
<path d="M 405.375 244.886719 L 374.707031 244.886719 L 381.460938 204.363281 C 382.160156 200.167969 385.789062 197.09375 390.039062 197.09375 C 394.292969 197.09375 397.921875 200.167969 398.621094 204.363281 Z M 405.375 244.886719 " style=" stroke:none;fill-rule:nonzero;fill:rgb(98.039216%,36.470588%,5.882353%);fill-opacity:1;" />
<path d="M 398.621094 204.359375 C 397.921875 200.167969 394.292969 197.09375 390.039062 197.09375 C 389.859375 197.09375 389.679688 197.105469 389.5 197.117188 L 389.5 244.886719 L 405.375 244.886719 Z M 398.621094 204.359375 " style=" stroke:none;fill-rule:nonzero;fill:rgb(93.72549%,21.960784%,0%);fill-opacity:1;" />
</g>
</svg>