<?xml version="1.0" encoding="iso-8859-1"?>
<!-- Generator: Adobe Illustrator 19.0.0, SVG Export Plug-In . SVG Version: 6.00 Build 0)  -->
<svg version="1.1" id="Capa_1" xmlns="http://www.w3.org/2000/svg" xmlns:xlink="http://www.w3.org/1999/xlink" x="0px" y="0px"
	 viewBox="0 0 512 512" style="enable-background:new 0 0 512 512;" xml:space="preserve">
<circle style="fill:#1B56DB;" cx="256" cy="256" r="256"/>
<path style="fill:#1149AA;" d="M512,256c0-2.546-0.048-5.081-0.122-7.609L358.975,95.487l-8.137,141.058L209.779,95.487
	L99.49,377.734l133.198,133.198C240.368,511.626,248.14,512,256,512C397.385,512,512,397.385,512,256z"/>
<rect x="153.03" y="95.49" style="fill:#FE6F00;" width="56.754" height="132.63"/>
<rect x="302.22" y="95.49" style="fill:#D65600;" width="56.754" height="132.63"/>
<path style="fill:#F8A725;" d="M132.834,387.646h-13.488c-13.722,0-24.846-11.124-24.846-24.846v-70.279
	c0-13.722,11.124-24.846,24.846-24.846h13.488c13.722,0,24.846,11.124,24.846,24.846V362.8
	C157.68,376.522,146.556,387.646,132.834,387.646z"/>
<path style="fill:#F47F17;" d="M392.654,387.646h-13.488c-13.722,0-24.846-11.124-24.846-24.846v-70.279
	c0-13.722,11.124-24.846,24.846-24.846h13.488c13.722,0,24.846,11.124,24.846,24.846V362.8
	C417.5,376.522,406.376,387.646,392.654,387.646z"/>
<path style="fill:#FEE17A;" d="M351.362,425.757H160.638c-17.744,0-32.129-14.385-32.129-32.129V248.363
	c0-70.411,57.08-127.491,127.491-127.491l0,0c70.411,0,127.491,57.08,127.491,127.491v145.265
	C383.491,411.372,369.106,425.757,351.362,425.757z"/>
<path style="fill:#FCC55F;" d="M256,120.872L256,120.872c-0.016,0-0.032,0-0.048,0v304.884h95.409
	c17.745,0,32.129-14.385,32.129-32.129V248.363C383.491,177.952,326.411,120.872,256,120.872z"/>
<path style="fill:#F8A725;" d="M337.006,387.133H174.994c-10.194,0-18.457-8.264-18.457-18.457v-76.392
	c0-10.194,8.264-18.457,18.457-18.457h162.013c10.194,0,18.457,8.264,18.457,18.457v76.392
	C355.464,378.87,347.2,387.133,337.006,387.133z"/>
<path style="fill:#F47F17;" d="M337.006,273.827h-81.054v113.306h81.054c10.194,0,18.457-8.263,18.457-18.457v-76.392
	C355.464,282.091,347.2,273.827,337.006,273.827z"/>
<circle style="fill:#FE6F00;" cx="256" cy="203.59" r="32.3"/>
<path style="fill:#D65600;" d="M256,171.287c-0.016,0-0.032,0.001-0.048,0.001v64.598c0.016,0,0.032,0.001,0.048,0.001
	c17.839,0,32.3-14.461,32.3-32.3S273.839,171.287,256,171.287z"/>
<g>
</g>
<g>
</g>
<g>
</g>
<g>
</g>
<g>
</g>
<g>
</g>
<g>
</g>
<g>
</g>
<g>
</g>
<g>
</g>
<g>
</g>
<g>
</g>
<g>
</g>
<g>
</g>
<g>
</g>
</svg>
