<svg xmlns="http://www.w3.org/2000/svg" height="512pt" version="1.1" viewBox="0 0 512 512" width="512pt">
<g id="surface1">
<path d="M 512 256 C 512 397.386719 397.386719 512 256 512 C 114.613281 512 0 397.386719 0 256 C 0 114.613281 114.613281 0 256 0 C 397.386719 0 512 114.613281 512 256 Z M 512 256 " style=" stroke:none;fill-rule:nonzero;fill:rgb(29.019608%,47.843137%,100%);fill-opacity:1;" />
<path d="M 512 256 C 512 249.070312 511.714844 242.207031 511.175781 235.417969 L 341.902344 66.144531 L 329.265625 115.714844 L 279.621094 66.070312 L 275.335938 194.1875 L 190.941406 109.792969 L 190.941406 435 L 267.664062 511.722656 C 403.632812 505.625 512 393.472656 512 256 Z M 512 256 " style=" stroke:none;fill-rule:nonzero;fill:rgb(15.686275%,39.215686%,94.117647%);fill-opacity:1;" />
<path d="M 289.039062 349.027344 L 256 340.804688 L 305.292969 142.75 C 307.5625 133.628906 316.800781 128.070312 325.925781 130.34375 C 335.046875 132.613281 340.601562 141.851562 338.332031 150.976562 Z M 289.039062 349.027344 " style=" stroke:none;fill-rule:nonzero;fill:rgb(25.490196%,28.627451%,32.156863%);fill-opacity:1;" />
<path d="M 325.925781 130.34375 C 325.875 130.328125 325.824219 130.324219 325.773438 130.3125 L 272.5625 344.925781 L 289.039062 349.027344 L 338.332031 150.972656 C 340.601562 141.851562 335.046875 132.613281 325.925781 130.34375 Z M 325.925781 130.34375 " style=" stroke:none;fill-rule:nonzero;fill:rgb(20%,22.352941%,25.098039%);fill-opacity:1;" />
<path d="M 210.894531 323.15625 L 243.933594 314.933594 L 194.640625 116.878906 C 192.367188 107.753906 183.132812 102.199219 174.007812 104.472656 C 164.882812 106.742188 159.328125 115.980469 161.601562 125.101562 Z M 210.894531 323.15625 " style=" stroke:none;fill-rule:nonzero;fill:rgb(99.607843%,41.568627%,8.627451%);fill-opacity:1;" />
<path d="M 194.640625 116.878906 C 192.425781 107.972656 183.570312 102.488281 174.664062 104.34375 L 226.726562 319.214844 L 243.933594 314.933594 Z M 194.640625 116.878906 " style=" stroke:none;fill-rule:nonzero;fill:rgb(94.901961%,27.058824%,0%);fill-opacity:1;" />
<path d="M 232.378906 66.070312 L 279.621094 66.070312 L 279.621094 372.011719 L 232.378906 372.011719 Z M 232.378906 66.070312 " style=" stroke:none;fill-rule:nonzero;fill:rgb(74.509804%,76.470588%,82.352941%);fill-opacity:1;" />
<path d="M 255.761719 66.070312 L 279.621094 66.070312 L 279.621094 372.011719 L 255.761719 372.011719 Z M 255.761719 66.070312 " style=" stroke:none;fill-rule:nonzero;fill:rgb(68.627451%,70.588235%,78.431373%);fill-opacity:1;" />
<path d="M 321.058594 435 L 190.941406 435 L 170.941406 222.171875 L 341.058594 222.171875 Z M 321.058594 435 " style=" stroke:none;fill-rule:nonzero;fill:rgb(100%,100%,100%);fill-opacity:1;" />
<path d="M 341.058594 222.171875 L 255.761719 222.171875 L 255.761719 435 L 321.058594 435 Z M 341.058594 222.171875 " style=" stroke:none;fill-rule:nonzero;fill:rgb(91.372549%,92.941176%,96.078431%);fill-opacity:1;" />
<path d="M 357.148438 124.851562 C 353.285156 140.382812 337.5625 149.839844 322.035156 145.972656 C 306.503906 142.109375 297.050781 126.386719 300.914062 110.855469 C 304.777344 95.328125 341.902344 66.144531 341.902344 66.144531 C 341.902344 66.144531 361.015625 109.324219 357.148438 124.851562 Z M 357.148438 124.851562 " style=" stroke:none;fill-rule:nonzero;fill:rgb(100%,83.137255%,0%);fill-opacity:1;" />
<path d="M 321.902344 145.9375 C 321.945312 145.949219 321.988281 145.960938 322.035156 145.972656 C 337.5625 149.839844 353.285156 140.382812 357.148438 124.855469 C 361.015625 109.324219 341.902344 66.144531 341.902344 66.144531 Z M 321.902344 145.9375 " style=" stroke:none;fill-rule:nonzero;fill:rgb(99.215686%,72.941176%,7.058824%);fill-opacity:1;" />
</g>
</svg>