<svg height="512pt" viewBox="0 0 512 512" width="512pt" xmlns="http://www.w3.org/2000/svg"><path d="m512 256c0 141.386719-114.613281 256-256 256s-256-114.613281-256-256 114.613281-256 256-256 256 114.613281 256 256zm0 0" fill="#2fc0f0"/><path d="m512 256c0-21.757812-2.722656-42.878906-7.832031-63.050781l-92.558594-92.558594-311.109375 311.109375 92.738281 92.738281c20.082031 5.0625 41.105469 7.761719 62.761719 7.761719 141.386719 0 256-114.613281 256-256zm0 0" fill="#0d91bd"/><path d="m256 100.371094h-155.628906v155.628906l73.558594 19.847656 100.308593-1.609375 4.9375-129.183593zm0 0" fill="#e7e7e7"/><path d="m367.636719 225.984375-111.636719 30.015625-23.558594 123.484375 23.558594 32.144531h155.628906v-155.628906zm0 0" fill="#ff4b00"/><path d="m256 100.371094h155.628906v155.628906h-155.628906zm0 0" fill="#d3d3d8"/><path d="m100.371094 256h155.628906v155.628906h-155.628906zm0 0" fill="#d3d3d8"/><path d="m283.355469 173.929688h91.191406v18.238281h-91.191406zm0 0" fill="#53433f"/><path d="m137.453125 319.832031h91.191406v18.238281h-91.191406zm0 0" fill="#68544f"/><path d="m228.644531 173.929688h-36.476562v-36.476563h-18.238281v36.476563h-36.476563v18.238281h36.476563v36.476562h18.238281v-36.476562h36.476562zm0 0" fill="#68544f"/><path d="m367.636719 303.160156-12.894531-12.894531-25.792969 25.789063-25.789063-25.789063-12.894531 12.894531 25.789063 25.789063-25.789063 25.792969 12.894531 12.894531 25.789063-25.789063 25.792969 25.789063 12.894531-12.894531-25.789063-25.792969zm0 0" fill="#d3d3d8"/><g fill="#68544f"><path d="m173.929688 283.355469h18.238281v18.238281h-18.238281zm0 0"/><path d="m173.929688 356.308594h18.238281v18.238281h-18.238281zm0 0"/></g></svg>