<?xml version="1.0" encoding="iso-8859-1"?>
<!-- Generator: Adobe Illustrator 19.0.0, SVG Export Plug-In . SVG Version: 6.00 Build 0)  -->
<svg version="1.1" id="Capa_1" xmlns="http://www.w3.org/2000/svg" xmlns:xlink="http://www.w3.org/1999/xlink" x="0px" y="0px"
	 viewBox="0 0 512 512" style="enable-background:new 0 0 512 512;" xml:space="preserve">
<circle style="fill:#FD833F;" cx="256" cy="256" r="256"/>
<path style="fill:#FA5535;" d="M512,256c0-10.394-0.636-20.637-1.84-30.707L392.833,107.966l-25.646,182.303L184.885,107.966
	L158.522,413.45l98.537,98.537C397.955,511.415,512,397.031,512,256z"/>
<path style="fill:#1B56DB;" d="M254.334,452.034c-76.369,0-138.5-62.131-138.5-138.5V107.966h69.052v205.568
	c0,38.294,31.154,69.448,69.448,69.448s69.449-31.154,69.449-69.448V107.966h69.052v205.568
	C392.833,389.903,330.703,452.034,254.334,452.034z"/>
<path style="fill:#0F45A5;" d="M323.782,107.966v205.568c0,37.751-30.283,68.541-67.829,69.407v69.072
	c75.625-0.872,136.881-62.652,136.881-138.479V107.966H323.782z"/>
<rect x="115.83" y="107.97" style="fill:#DA302B;" width="69.05" height="69.05"/>
<rect x="323.78" y="107.97" style="fill:#C40619;" width="69.05" height="69.05"/>
<g>
</g>
<g>
</g>
<g>
</g>
<g>
</g>
<g>
</g>
<g>
</g>
<g>
</g>
<g>
</g>
<g>
</g>
<g>
</g>
<g>
</g>
<g>
</g>
<g>
</g>
<g>
</g>
<g>
</g>
</svg>
