<?xml version="1.0" encoding="iso-8859-1"?>
<!-- Generator: Adobe Illustrator 19.0.0, SVG Export Plug-In . SVG Version: 6.00 Build 0)  -->
<svg xmlns="http://www.w3.org/2000/svg" xmlns:xlink="http://www.w3.org/1999/xlink" version="1.1" id="Capa_1" x="0px" y="0px" viewBox="0 0 512 512" style="enable-background:new 0 0 512 512;" xml:space="preserve">
<circle style="fill:#5A7EBF;" cx="256" cy="255.997" r="255.997"/>
<path style="fill:#4360AC;" d="M373.351,175.037L373.351,175.037L373.351,175.037l-72.768-72.768l0,0l0,0l0,0h-44.578H138.656  v307.462L240.44,511.515c5.15,0.309,10.335,0.485,15.563,0.485c129.427,0,236.402-96.054,253.575-220.761l-82.094-82.094  l0.304-0.304l-21.151-21.151l-21.151-21.151l-12.134,12.134L373.351,175.037L373.351,175.037z"/>
<polygon style="fill:#FFFFFF;" points="373.351,409.731 138.656,409.731 138.656,102.269 300.581,102.269 373.351,175.037 "/>
<polygon style="fill:#B5DFEC;" points="300.581,102.269 256.003,102.269 256.003,409.731 373.351,409.731 373.351,175.037 "/>
<polygon style="fill:#8ED0E4;" points="300.582,175.037 373.351,175.037 300.582,102.269 "/>
<rect x="302.595" y="201.64" transform="matrix(-0.7071 -0.7071 0.7071 -0.7071 382.4969 682.0579)" style="fill:#F6D433;" width="59.824" height="120.342"/>
<rect x="328.133" y="212.215" transform="matrix(-0.7071 -0.7071 0.7071 -0.7071 393.0836 707.5917)" style="fill:#E5BF2B;" width="29.912" height="120.342"/>
<rect x="349.908" y="203.963" transform="matrix(-0.7071 -0.7071 0.7071 -0.7071 496.7217 634.7404)" style="fill:#C6C5CA;" width="59.824" height="21.065"/>
<rect x="375.445" y="214.542" transform="matrix(-0.7071 -0.7071 0.7071 -0.7071 507.3055 660.2813)" style="fill:#ACACB2;" width="29.912" height="21.065"/>
<rect x="367.041" y="183.676" transform="matrix(-0.7071 -0.7071 0.7071 -0.7071 538.0812 617.6163)" style="fill:#E57654;" width="59.824" height="27.384"/>
<rect x="392.569" y="194.25" transform="matrix(-0.7071 -0.7071 0.7071 -0.7071 548.6511 643.1431)" style="fill:#BF2717;" width="29.912" height="27.384"/>
<polygon style="fill:#E3E3F2;" points="311.115,325.512 268.813,283.21 256.003,338.322 "/>
<polygon style="fill:#D7CCBD;" points="256.003,338.322 311.115,325.512 289.964,304.361 "/>
<polygon style="fill:#57565C;" points="260.489,319.022 256.003,338.322 275.303,333.836 "/>
<g>
</g>
<g>
</g>
<g>
</g>
<g>
</g>
<g>
</g>
<g>
</g>
<g>
</g>
<g>
</g>
<g>
</g>
<g>
</g>
<g>
</g>
<g>
</g>
<g>
</g>
<g>
</g>
<g>
</g>
</svg>
