<svg height="512pt" viewBox="0 0 512 512" width="512pt" xmlns="http://www.w3.org/2000/svg"><path d="m512 256c0 141.386719-114.613281 256-256 256s-256-114.613281-256-256 114.613281-256 256-256 256 114.613281 256 256zm0 0" fill="#185f8d"/><path d="m507.1875 305.558594-125.644531-125.644532-146.46875 59.132813-29.398438-59.132813-60-60.871093-51.566406 261.390625 129.539063 129.539062c10.597656 1.335938 21.394531 2.027344 32.351562 2.027344 124.429688 0 228.105469-88.777344 251.1875-206.441406zm0 0" fill="#082947"/><path d="m122.847656 119.042969h22.828125v76.085937h-22.828125zm0 0" fill="#4284b2"/><path d="m88.609375 179.914062-2.066406 45.652344 163.75 15.214844-15.21875-60.867188zm0 0" fill="#98d9d5"/><path d="m381.542969 179.914062h-146.46875v60.867188l148.535156-15.214844zm0 0" fill="#77c0bc"/><path d="m386.019531 278.824219 3.097657 68.480469h41.882812v-68.480469zm0 0" fill="#185f8d"/><path d="m86.542969 225.566406-5.507813 121.738282c-.96875 25.109374 18.800782 45.652343 43.929688 45.652343l110.109375-.019531 15.21875-83.683594-15.21875-83.6875zm0 0" fill="#f2484b"/><path d="m389.117188 347.304688-5.507813-121.738282h-148.535156v167.375l110.148437-.019531c25.105469 0 44.859375-20.527344 43.894532-45.617187zm0 0" fill="#d82f30"/></svg>