<svg xmlns="http://www.w3.org/2000/svg" height="512pt" version="1.1" viewBox="0 0 512 512" width="512pt">
<g id="surface1">
<path d="M 512 256 C 512 397.386719 397.386719 512 256 512 C 114.613281 512 0 397.386719 0 256 C 0 114.613281 114.613281 0 256 0 C 397.386719 0 512 114.613281 512 256 Z M 512 256 " style=" stroke:none;fill-rule:nonzero;fill:rgb(98.039216%,36.470588%,5.882353%);fill-opacity:1;" />
<path d="M 512 256 C 512 235.113281 509.480469 214.816406 504.761719 195.382812 L 403.738281 94.359375 L 108.113281 136.105469 L 268.890625 296.882812 L 222.402344 439.859375 L 292.007812 509.464844 C 374.050781 497.914062 443.605469 447.492188 481.429688 377.402344 L 481.058594 377.035156 L 482.253906 375.839844 C 501.234375 340.085938 512 299.300781 512 256 Z M 512 256 " style=" stroke:none;fill-rule:nonzero;fill:rgb(93.72549%,21.960784%,0%);fill-opacity:1;" />
<path d="M 353.578125 236.671875 C 353.578125 182.320312 309.136719 138.34375 254.605469 139.105469 C 201.59375 139.84375 158.523438 183.460938 158.421875 236.480469 C 158.378906 260.40625 166.941406 282.324219 181.191406 299.320312 C 197.386719 318.632812 206.371094 342.964844 206.371094 368.167969 L 206.371094 390.019531 L 305.628906 390.019531 L 305.628906 368.171875 C 305.628906 343.25 314.105469 318.90625 330.277344 299.945312 C 344.808594 282.910156 353.578125 260.816406 353.578125 236.671875 Z M 353.578125 236.671875 " style=" stroke:none;fill-rule:nonzero;fill:rgb(100%,83.137255%,0%);fill-opacity:1;" />
<path d="M 255.761719 139.105469 L 255.761719 390.019531 L 305.628906 390.019531 L 305.628906 368.171875 C 305.628906 343.25 314.105469 318.90625 330.277344 299.945312 C 344.808594 282.910156 353.578125 260.816406 353.578125 236.671875 C 353.578125 182.703125 309.761719 138.976562 255.761719 139.105469 Z M 255.761719 139.105469 " style=" stroke:none;fill-rule:nonzero;fill:rgb(99.215686%,72.941176%,7.058824%);fill-opacity:1;" />
<path d="M 354.675781 236.269531 L 255.925781 252.640625 L 157.179688 236.269531 L 157.179688 122.957031 L 354.675781 122.957031 Z M 354.675781 236.269531 " style=" stroke:none;fill-rule:nonzero;fill:rgb(33.333333%,35.294118%,40%);fill-opacity:1;" />
<path d="M 255.761719 122.957031 L 255.761719 252.613281 L 255.925781 252.640625 L 354.675781 236.269531 L 354.675781 122.957031 Z M 255.761719 122.957031 " style=" stroke:none;fill-rule:nonzero;fill:rgb(25.490196%,28.627451%,32.156863%);fill-opacity:1;" />
<path d="M 382.804688 122.957031 L 393.445312 122.957031 L 393.445312 237.011719 L 382.804688 237.011719 Z M 382.804688 122.957031 " style=" stroke:none;fill-rule:nonzero;fill:rgb(33.333333%,35.294118%,40%);fill-opacity:1;" />
<path d="M 387.308594 122.957031 L 393.449219 122.957031 L 393.449219 237.011719 L 387.308594 237.011719 Z M 387.308594 122.957031 " style=" stroke:none;fill-rule:nonzero;fill:rgb(25.490196%,28.627451%,32.156863%);fill-opacity:1;" />
<path d="M 403.882812 273.027344 L 372.367188 273.027344 L 379.308594 231.382812 C 380.027344 227.070312 383.757812 223.910156 388.128906 223.910156 C 392.496094 223.910156 396.226562 227.070312 396.945312 231.382812 Z M 403.882812 273.027344 " style=" stroke:none;fill-rule:nonzero;fill:rgb(0%,92.941176%,100%);fill-opacity:1;" />
<path d="M 396.945312 231.382812 C 396.226562 227.070312 392.496094 223.914062 388.128906 223.914062 C 387.851562 223.914062 387.578125 223.925781 387.308594 223.949219 L 387.308594 273.027344 L 403.886719 273.027344 Z M 396.945312 231.382812 " style=" stroke:none;fill-rule:nonzero;fill:rgb(2.745098%,74.509804%,90.980392%);fill-opacity:1;" />
<path d="M 108.117188 94.359375 L 403.738281 94.359375 L 403.738281 136.105469 L 108.117188 136.105469 Z M 108.117188 94.359375 " style=" stroke:none;fill-rule:nonzero;fill:rgb(25.490196%,28.627451%,32.156863%);fill-opacity:1;" />
<path d="M 255.761719 94.359375 L 403.738281 94.359375 L 403.738281 136.105469 L 255.761719 136.105469 Z M 255.761719 94.359375 " style=" stroke:none;fill-rule:nonzero;fill:rgb(13.72549%,15.294118%,16.862745%);fill-opacity:1;" />
<path d="M 227.085938 391.875 L 207.402344 274.761719 L 304.597656 274.761719 L 284.914062 391.875 L 265.191406 388.5625 L 280.957031 294.761719 L 231.042969 294.761719 L 246.808594 388.5625 Z M 227.085938 391.875 " style=" stroke:none;fill-rule:nonzero;fill:rgb(100%,58.431373%,0%);fill-opacity:1;" />
<path d="M 255.761719 274.761719 L 255.761719 294.761719 L 280.957031 294.761719 L 265.191406 388.5625 L 284.914062 391.875 L 304.597656 274.761719 Z M 255.761719 274.761719 " style=" stroke:none;fill-rule:nonzero;fill:rgb(99.607843%,50.980392%,1.960784%);fill-opacity:1;" />
<path d="M 256 452.976562 C 228.59375 452.976562 206.371094 430.757812 206.371094 403.347656 L 206.371094 379.863281 L 305.628906 379.863281 L 305.628906 403.347656 C 305.628906 430.757812 283.40625 452.976562 256 452.976562 Z M 256 452.976562 " style=" stroke:none;fill-rule:nonzero;fill:rgb(100%,100%,100%);fill-opacity:1;" />
<path d="M 255.761719 379.863281 L 255.761719 452.96875 C 255.84375 452.96875 255.921875 452.976562 256 452.976562 C 283.40625 452.976562 305.628906 430.757812 305.628906 403.347656 L 305.628906 379.863281 Z M 255.761719 379.863281 " style=" stroke:none;fill-rule:nonzero;fill:rgb(94.901961%,96.470588%,98.823529%);fill-opacity:1;" />
</g>
</svg>