<svg xmlns="http://www.w3.org/2000/svg" height="512pt" version="1.1" viewBox="0 0 512 512" width="512pt">
<g id="surface1">
<path d="M 512 256 C 512 397.386719 397.386719 512 256 512 C 114.613281 512 0 397.386719 0 256 C 0 114.613281 114.613281 0 256 0 C 397.386719 0 512 114.613281 512 256 Z M 512 256 " style=" stroke:none;fill-rule:nonzero;fill:rgb(3.529412%,80.784314%,40.392157%);fill-opacity:1;" />
<path d="M 510.054688 287.632812 L 271.621094 49.199219 L 227.191406 170.089844 L 191.5 450.800781 L 252.65625 511.957031 C 253.769531 511.972656 254.882812 512 256 512 C 386.675781 512 494.46875 414.089844 510.054688 287.632812 Z M 510.054688 287.632812 " style=" stroke:none;fill-rule:nonzero;fill:rgb(10.196078%,67.843137%,36.078431%);fill-opacity:1;" />
<path d="M 240.378906 49.199219 L 271.621094 49.199219 L 271.621094 101.628906 L 240.378906 101.628906 Z M 240.378906 49.199219 " style=" stroke:none;fill-rule:nonzero;fill:rgb(25.490196%,28.627451%,32.156863%);fill-opacity:1;" />
<path d="M 255.761719 49.199219 L 271.621094 49.199219 L 271.621094 101.628906 L 255.761719 101.628906 Z M 255.761719 49.199219 " style=" stroke:none;fill-rule:nonzero;fill:rgb(20%,22.352941%,25.098039%);fill-opacity:1;" />
<path d="M 191.5 381.5 L 206.011719 381.5 L 206.011719 450.800781 L 191.5 450.800781 Z M 191.5 381.5 " style=" stroke:none;fill-rule:nonzero;fill:rgb(25.490196%,28.627451%,32.156863%);fill-opacity:1;" />
<path d="M 305.988281 381.5 L 320.5 381.5 L 320.5 450.800781 L 305.988281 450.800781 Z M 305.988281 381.5 " style=" stroke:none;fill-rule:nonzero;fill:rgb(20%,22.352941%,25.098039%);fill-opacity:1;" />
<path d="M 191.5 405.925781 L 191.5 150.878906 L 237.824219 150.878906 L 237.824219 359.605469 C 237.824219 385.1875 217.082031 405.925781 191.5 405.925781 Z M 191.5 405.925781 " style=" stroke:none;fill-rule:nonzero;fill:rgb(86.27451%,88.235294%,92.156863%);fill-opacity:1;" />
<path d="M 320.5 405.925781 L 320.5 150.878906 L 274.175781 150.878906 L 274.175781 359.605469 C 274.175781 385.1875 294.917969 405.925781 320.5 405.925781 Z M 320.5 405.925781 " style=" stroke:none;fill-rule:nonzero;fill:rgb(80.392157%,82.352941%,88.235294%);fill-opacity:1;" />
<path d="M 320.5 147.210938 C 320.5 182.835938 291.621094 211.710938 256 211.710938 C 220.378906 211.710938 191.5 182.835938 191.5 147.210938 C 191.5 111.589844 220.378906 82.710938 256 82.710938 C 291.621094 82.710938 320.5 111.589844 320.5 147.210938 Z M 320.5 147.210938 " style=" stroke:none;fill-rule:nonzero;fill:rgb(100%,100%,100%);fill-opacity:1;" />
<path d="M 256 82.710938 C 255.921875 82.710938 255.84375 82.71875 255.761719 82.71875 L 255.761719 211.707031 C 255.84375 211.707031 255.921875 211.710938 256 211.710938 C 291.621094 211.710938 320.5 182.835938 320.5 147.210938 C 320.5 111.589844 291.621094 82.710938 256 82.710938 Z M 256 82.710938 " style=" stroke:none;fill-rule:nonzero;fill:rgb(91.372549%,92.941176%,96.078431%);fill-opacity:1;" />
<path d="M 301.585938 147.210938 C 301.585938 172.386719 281.175781 192.796875 256 192.796875 C 230.824219 192.796875 210.414062 172.386719 210.414062 147.210938 C 210.414062 122.035156 230.824219 101.628906 256 101.628906 C 281.175781 101.628906 301.585938 122.035156 301.585938 147.210938 Z M 301.585938 147.210938 " style=" stroke:none;fill-rule:nonzero;fill:rgb(25.490196%,28.627451%,32.156863%);fill-opacity:1;" />
<path d="M 256 101.628906 C 255.921875 101.628906 255.84375 101.632812 255.761719 101.632812 L 255.761719 192.789062 C 255.84375 192.789062 255.921875 192.796875 256 192.796875 C 281.175781 192.796875 301.585938 172.386719 301.585938 147.210938 C 301.585938 122.035156 281.175781 101.628906 256 101.628906 Z M 256 101.628906 " style=" stroke:none;fill-rule:nonzero;fill:rgb(20%,22.352941%,25.098039%);fill-opacity:1;" />
<path d="M 278.878906 147.210938 C 278.878906 159.847656 268.632812 170.089844 256 170.089844 C 243.367188 170.089844 233.121094 159.847656 233.121094 147.210938 C 233.121094 134.578125 243.367188 124.335938 256 124.335938 C 268.632812 124.335938 278.878906 134.578125 278.878906 147.210938 Z M 278.878906 147.210938 " style=" stroke:none;fill-rule:nonzero;fill:rgb(100%,100%,100%);fill-opacity:1;" />
<path d="M 256 124.335938 C 255.921875 124.335938 255.84375 124.339844 255.761719 124.339844 L 255.761719 170.085938 C 255.84375 170.085938 255.921875 170.089844 256 170.089844 C 268.636719 170.089844 278.878906 159.847656 278.878906 147.214844 C 278.878906 134.578125 268.636719 124.335938 256 124.335938 Z M 256 124.335938 " style=" stroke:none;fill-rule:nonzero;fill:rgb(91.372549%,92.941176%,96.078431%);fill-opacity:1;" />
</g>
</svg>