<svg xmlns="http://www.w3.org/2000/svg" height="512pt" version="1.1" viewBox="0 0 512 512" width="512pt">
<g id="surface1">
<path d="M 512 256 C 512 397.386719 397.386719 512 256 512 C 114.613281 512 0 397.386719 0 256 C 0 114.613281 114.613281 0 256 0 C 397.386719 0 512 114.613281 512 256 Z M 512 256 " style=" stroke:none;fill-rule:nonzero;fill:rgb(3.529412%,80.784314%,40.392157%);fill-opacity:1;" />
<path d="M 511.8125 265.300781 L 440.382812 193.871094 L 399.511719 233.238281 L 289.589844 123.316406 L 105.167969 152.332031 L 115.03125 301.277344 L 318.140625 504.386719 C 426.601562 477.339844 507.675781 381.128906 511.8125 265.300781 Z M 511.8125 265.300781 " style=" stroke:none;fill-rule:nonzero;fill:rgb(10.196078%,67.843137%,36.078431%);fill-opacity:1;" />
<path d="M 244.410156 193.871094 L 244.410156 310.699219 C 244.410156 364.816406 288.28125 408.683594 342.398438 408.683594 C 396.511719 408.683594 440.382812 364.816406 440.382812 310.699219 L 440.382812 193.871094 Z M 263.335938 231.914062 C 270.960938 240.773438 282.222656 246.390625 294.800781 246.390625 C 307.382812 246.390625 318.644531 240.773438 326.265625 231.914062 C 323.871094 247.195312 310.699219 258.878906 294.800781 258.878906 C 278.90625 258.878906 265.730469 247.191406 263.335938 231.914062 Z M 342.398438 339.703125 C 322.25 339.703125 304.203125 346.785156 291.996094 357.960938 C 295.832031 338.695312 316.933594 323.957031 342.398438 323.957031 C 367.859375 323.957031 388.960938 338.695312 392.796875 357.960938 C 380.589844 346.785156 362.546875 339.703125 342.398438 339.703125 Z M 389.992188 258.878906 C 374.09375 258.878906 360.921875 247.191406 358.527344 231.914062 C 366.148438 240.773438 377.414062 246.390625 389.992188 246.390625 C 402.570312 246.390625 413.835938 240.773438 421.457031 231.914062 C 419.0625 247.191406 405.886719 258.878906 389.992188 258.878906 Z M 389.992188 258.878906 " style=" stroke:none;fill-rule:nonzero;fill:rgb(25.490196%,28.627451%,32.156863%);fill-opacity:1;" />
<path d="M 342.070312 193.871094 L 342.070312 323.960938 C 342.179688 323.960938 342.289062 323.957031 342.398438 323.957031 C 367.859375 323.957031 388.960938 338.691406 392.796875 357.960938 C 380.589844 346.785156 362.546875 339.703125 342.398438 339.703125 C 342.289062 339.703125 342.179688 339.710938 342.070312 339.710938 L 342.070312 408.679688 C 342.179688 408.679688 342.289062 408.683594 342.398438 408.683594 C 396.511719 408.683594 440.382812 364.816406 440.382812 310.699219 L 440.382812 193.871094 Z M 389.992188 258.878906 C 374.09375 258.878906 360.921875 247.191406 358.527344 231.914062 C 366.148438 240.773438 377.414062 246.390625 389.992188 246.390625 C 402.570312 246.390625 413.835938 240.777344 421.457031 231.914062 C 419.0625 247.191406 405.886719 258.878906 389.992188 258.878906 Z M 389.992188 258.878906 " style=" stroke:none;fill-rule:nonzero;fill:rgb(20%,22.352941%,25.098039%);fill-opacity:1;" />
<path d="M 93.617188 123.316406 L 93.617188 240.140625 C 93.617188 294.257812 137.488281 338.128906 191.601562 338.128906 C 245.71875 338.128906 289.589844 294.257812 289.589844 240.140625 L 289.589844 123.316406 Z M 112.542969 188.324219 C 114.9375 173.046875 128.113281 161.359375 144.007812 161.359375 C 159.902344 161.359375 173.078125 173.046875 175.472656 188.324219 C 167.851562 179.464844 156.585938 173.847656 144.007812 173.847656 C 131.429688 173.847656 120.164062 179.464844 112.542969 188.324219 Z M 191.601562 287.40625 C 166.140625 287.40625 145.039062 272.667969 141.203125 253.402344 C 153.410156 264.574219 171.453125 271.65625 191.601562 271.65625 C 211.753906 271.65625 229.796875 264.574219 242.003906 253.402344 C 238.167969 272.667969 217.066406 287.40625 191.601562 287.40625 Z M 239.199219 173.847656 C 226.617188 173.847656 215.355469 179.464844 207.734375 188.324219 C 210.128906 173.042969 223.300781 161.355469 239.199219 161.355469 C 255.09375 161.355469 268.269531 173.042969 270.664062 188.324219 C 263.039062 179.464844 251.777344 173.847656 239.199219 173.847656 Z M 239.199219 173.847656 " style=" stroke:none;fill-rule:nonzero;fill:rgb(100%,100%,100%);fill-opacity:1;" />
<path d="M 190.882812 123.316406 L 190.882812 271.640625 C 191.121094 271.640625 191.359375 271.65625 191.601562 271.65625 C 211.75 271.65625 229.792969 264.574219 242.003906 253.402344 C 238.167969 272.667969 217.066406 287.40625 191.601562 287.40625 C 191.359375 287.40625 191.121094 287.394531 190.882812 287.390625 L 190.882812 338.121094 C 191.121094 338.121094 191.363281 338.128906 191.601562 338.128906 C 245.71875 338.128906 289.589844 294.257812 289.589844 240.144531 L 289.589844 123.316406 Z M 239.199219 173.847656 C 226.617188 173.847656 215.355469 179.464844 207.734375 188.324219 C 210.128906 173.046875 223.300781 161.359375 239.199219 161.359375 C 255.09375 161.359375 268.269531 173.046875 270.664062 188.324219 C 263.039062 179.464844 251.777344 173.847656 239.199219 173.847656 Z M 239.199219 173.847656 " style=" stroke:none;fill-rule:nonzero;fill:rgb(91.372549%,92.941176%,96.078431%);fill-opacity:1;" />
</g>
</svg>