<svg height="512pt" viewBox="0 0 512 512" width="512pt" xmlns="http://www.w3.org/2000/svg"><path d="m512 256c0 141.386719-114.613281 256-256 256s-256-114.613281-256-256 114.613281-256 256-256 256 114.613281 256 256zm0 0" fill="#fdbf00"/><path d="m323.433594 135.980469-40.542969-40.542969-159.851563 159.851562 71.851563 71.851563-26.398437 26.398437-10.5-10.5-76.625 76.625 70.066406 70.066407c31.925781 14.304687 67.316406 22.269531 104.566406 22.269531 141.386719 0 256-114.613281 256-256 0-25.511719-3.75-50.148438-10.699219-73.402344l-112.242187-112.242187zm0 0" fill="#ff9f00"/><path d="m81.339844 317.320312v102.339844h245.613281v-102.339844zm0 0" fill="#e7e7e7"/><path d="m204.148438 317.320312h122.804687v102.339844h-122.804687zm0 0" fill="#d3d3d8"/><path d="m399.957031 317.320312h-20.46875c-16.988281 0-30.699219 13.710938-30.699219 30.703126v30.699218h81.871094v-30.699218c0-16.992188-13.714844-30.703126-30.703125-30.703126zm0 0" fill="#e7e7e7"/><path d="m133.191406 80.574219h245.617188v122.808593h-245.617188zm0 0" fill="#9ee2f8"/><path d="m245.085938 358.257812h40.933593v20.464844h-40.933593zm0 0" fill="#a1a1a7"/><path d="m204.148438 358.257812h20.46875v20.464844h-20.46875zm0 0" fill="#a1a1a7"/><g fill="#babac0"><path d="m163.210938 358.257812h20.46875v20.464844h-20.46875zm0 0"/><path d="m122.277344 358.257812h20.464844v20.464844h-20.464844zm0 0"/><path d="m307.578125 286.550781h-103.15625l12.894531-51.785156h77.367188zm0 0"/></g><path d="m122.960938 70.339844v122.808594l19.03125 20.464843h213.890624l33.160157-20.464843v-122.808594zm245.613281 122.808594h-225.148438v-102.339844h225.148438zm0 0" fill="#444"/><path d="m294.683594 234.765625 12.894531 51.785156h-51.578125v-51.785156zm0 0" fill="#a1a1a7"/><path d="m256 80.574219h122.808594v122.808593h-122.808594zm0 0" fill="#2fc0f0"/><path d="m389.039062 70.339844v122.808594l-33.15625 20.46875h-99.882812v-20.46875h112.574219v-102.339844h-112.574219v-20.46875zm0 0" fill="#292929"/><path d="m122.960938 193.148438v62.085937h266.082031v-62.085937zm0 0" fill="#e7e7e7"/><path d="m256 193.148438h133.039062v62.085937h-133.039062zm0 0" fill="#d3d3d8"/><path d="m184.363281 275.703125h143.273438v20.46875h-143.273438zm0 0" fill="#e7e7e7"/><path d="m256 275.703125h71.636719v20.46875h-71.636719zm0 0" fill="#d3d3d8"/><path d="m307.171875 111.277344h40.933594v20.464844h-40.933594zm0 0" fill="#0d91bd"/><path d="m266.234375 152.210938h81.871094v20.46875h-81.871094zm0 0" fill="#0d91bd"/><path d="m430.660156 348.023438v30.699218h-40.9375v-61.402344h10.234375c16.988281 0 30.703125 13.710938 30.703125 30.703126zm0 0" fill="#d3d3d8"/></svg>