<svg xmlns="http://www.w3.org/2000/svg" height="512pt" version="1.1" viewBox="0 0 512 512" width="512pt">
<g id="surface1">
<path d="M 512 256 C 512 397.386719 397.386719 512 256 512 C 114.613281 512 0 397.386719 0 256 C 0 114.613281 114.613281 0 256 0 C 397.386719 0 512 114.613281 512 256 Z M 512 256 " style=" stroke:none;fill-rule:nonzero;fill:rgb(100%,83.137255%,0%);fill-opacity:1;" />
<path d="M 512 256 C 512 241.28125 510.742188 226.859375 508.355469 212.824219 L 410.53125 115 L 85.25 332.855469 L 140.957031 388.5625 L 122.453125 409 L 223.394531 509.941406 C 234.074219 511.300781 244.953125 512 256 512 C 397.386719 512 512 397.386719 512 256 Z M 512 256 " style=" stroke:none;fill-rule:nonzero;fill:rgb(99.215686%,72.941176%,7.058824%);fill-opacity:1;" />
<path d="M 389.546875 409 L 344.714844 409 L 312.28125 289.21875 L 357.113281 289.21875 Z M 389.546875 409 " style=" stroke:none;fill-rule:nonzero;fill:rgb(93.72549%,21.960784%,0%);fill-opacity:1;" />
<path d="M 122.453125 409 L 167.285156 409 L 199.71875 289.21875 L 154.886719 289.21875 Z M 122.453125 409 " style=" stroke:none;fill-rule:nonzero;fill:rgb(98.039216%,36.470588%,5.882353%);fill-opacity:1;" />
<path d="M 101.46875 115 L 410.53125 115 L 410.53125 327.550781 L 101.46875 327.550781 Z M 101.46875 115 " style=" stroke:none;fill-rule:nonzero;fill:rgb(25.490196%,28.627451%,32.156863%);fill-opacity:1;" />
<path d="M 255.761719 115 L 410.53125 115 L 410.53125 327.550781 L 255.761719 327.550781 Z M 255.761719 115 " style=" stroke:none;fill-rule:nonzero;fill:rgb(13.72549%,15.294118%,16.862745%);fill-opacity:1;" />
<path d="M 85.25 292.632812 L 426.75 292.632812 L 426.75 332.855469 L 85.25 332.855469 Z M 85.25 292.632812 " style=" stroke:none;fill-rule:nonzero;fill:rgb(93.72549%,21.960784%,0%);fill-opacity:1;" />
<path d="M 255.761719 292.632812 L 426.75 292.632812 L 426.75 332.855469 L 255.761719 332.855469 Z M 255.761719 292.632812 " style=" stroke:none;fill-rule:nonzero;fill:rgb(81.960784%,20.392157%,0%);fill-opacity:1;" />
<path d="M 122.453125 273.027344 L 175.453125 273.027344 L 175.453125 292.632812 L 122.453125 292.632812 Z M 122.453125 273.027344 " style=" stroke:none;fill-rule:nonzero;fill:rgb(100%,100%,100%);fill-opacity:1;" />
<path d="M 188.453125 273.027344 L 241.453125 273.027344 L 241.453125 292.632812 L 188.453125 292.632812 Z M 188.453125 273.027344 " style=" stroke:none;fill-rule:nonzero;fill:rgb(100%,100%,100%);fill-opacity:1;" />
</g>
</svg>