<?xml version="1.0" encoding="iso-8859-1"?>
<!-- Generator: Adobe Illustrator 19.0.0, SVG Export Plug-In . SVG Version: 6.00 Build 0)  -->
<svg xmlns="http://www.w3.org/2000/svg" xmlns:xlink="http://www.w3.org/1999/xlink" version="1.1" id="Capa_1" x="0px" y="0px" viewBox="0 0 512 512" style="enable-background:new 0 0 512 512;" xml:space="preserve">
<circle style="fill:#F7DC4D;" cx="256" cy="256" r="256"/>
<path style="fill:#D4B331;" d="M338.115,88.249c-5.118-2.129-10.637-3.497-16.417-3.964c-11.306-0.911-22.038-5.357-30.677-12.706  l0,0C280.927,62.991,268.463,58.697,256,58.697c-12.463,0-24.927,4.294-35.022,12.881l0,0c-8.639,7.35-19.371,11.795-30.676,12.707  l0,0c-26.42,2.131-47.397,23.107-49.528,49.528l0,0c-0.912,11.306-5.357,22.038-12.706,30.676l0,0  c-17.176,20.188-17.176,49.854,0,70.043l0,0c7.35,8.639,11.795,19.371,12.706,30.677l0,0c1.752,21.725,16.252,39.758,36.037,46.67  l-31.509,105.459l94.113,94.113C244.9,511.801,250.426,512,256,512c141.263,0,255.797-114.418,255.995-255.634L354.33,98.699  l-0.03,0.03C349.415,94.166,344.054,90.72,338.115,88.249z"/>
<polygon style="fill:#2D5D92;" points="278.998,443.54 319.316,418.619 366.697,417.338 316.571,249.567 228.873,275.769 "/>
<polygon style="fill:#3B6EAF;" points="233.002,443.54 192.684,418.619 145.303,417.338 195.429,249.567 283.127,275.769 "/>
<path style="fill:#EDA637;" d="M291.022,71.578L291.022,71.578c8.639,7.349,19.371,11.795,30.677,12.706l0,0  c26.42,2.131,47.397,23.107,49.528,49.528l0,0c0.912,11.306,5.357,22.038,12.706,30.677l0,0c17.176,20.189,17.176,49.854,0,70.043  l0,0c-7.349,8.639-11.795,19.371-12.706,30.677l0,0c-2.131,26.42-23.107,47.397-49.528,49.528l0,0  c-11.306,0.912-22.038,5.357-30.677,12.706l0,0c-20.189,17.176-49.854,17.176-70.043,0l0,0  c-8.639-7.349-19.371-11.795-30.676-12.706l0,0c-26.42-2.131-47.397-23.107-49.528-49.528l0,0  c-0.912-11.306-5.357-22.038-12.706-30.677l0,0c-17.176-20.189-17.176-49.854,0-70.043l0,0c7.349-8.639,11.795-19.371,12.706-30.677  l0,0c2.131-26.42,23.107-47.397,49.528-49.528l0,0c11.306-0.912,22.038-5.357,30.676-12.706l0,0  C241.168,54.403,270.832,54.403,291.022,71.578z"/>
<circle style="fill:#FDF7D0;" cx="256" cy="199.512" r="97.053"/>
<path style="fill:#DF871E;" d="M291.022,327.443L291.022,327.443c8.639-7.35,19.371-11.795,30.677-12.706l0,0  c26.42-2.131,47.397-23.107,49.528-49.528l0,0c0.912-11.306,5.357-22.038,12.706-30.677l0,0c17.176-20.189,17.176-49.854,0-70.043  l0,0c-7.35-8.639-11.795-19.371-12.706-30.676l0,0c-2.131-26.42-23.107-47.397-49.528-49.528l0,0  c-11.306-0.911-22.038-5.357-30.677-12.706l0,0C280.927,62.991,268.463,58.697,256,58.697v281.627  C268.463,340.324,280.927,336.03,291.022,327.443z"/>
<path style="fill:#F9ED9D;" d="M256,102.461V296.56c53.599,0,97.05-43.451,97.05-97.05S309.599,102.461,256,102.461z"/>
<g>
</g>
<g>
</g>
<g>
</g>
<g>
</g>
<g>
</g>
<g>
</g>
<g>
</g>
<g>
</g>
<g>
</g>
<g>
</g>
<g>
</g>
<g>
</g>
<g>
</g>
<g>
</g>
<g>
</g>
</svg>
