<?xml version="1.0" encoding="iso-8859-1"?>
<!-- Generator: Adobe Illustrator 19.0.0, SVG Export Plug-In . SVG Version: 6.00 Build 0)  -->
<svg version="1.1" id="Capa_1" xmlns="http://www.w3.org/2000/svg" xmlns:xlink="http://www.w3.org/1999/xlink" x="0px" y="0px"
	 viewBox="0 0 512 512" style="enable-background:new 0 0 512 512;" xml:space="preserve">
<path style="fill:#FD833F;" d="M0,256.008C0,114.628,114.62-1.566,255.991,0.017C398.75,1.616,513.631,116.54,511.982,256.008
	c-1.672,141.37-114.611,255.991-255.991,255.991S0,397.388,0,256.008z"/>
<path style="fill:#FA5535;" d="M511.982,256.008c0.04-3.388-0.009-6.757-0.105-10.114L403.995,138.012L85.506,361.504
	l149.647,149.647c6.874,0.554,13.822,0.848,20.838,0.848C397.371,511.999,510.31,397.378,511.982,256.008z"/>
<rect x="118.006" y="148.015" style="fill:#47D7FD;" width="275.99" height="179.994"/>
<rect x="255.951" y="148.015" style="fill:#0FADF5;" width="138.045" height="179.994"/>
<path style="fill:#455A64;" d="M403.995,338.005h-295.99V138.012h295.99V338.005z M128.005,318.006h255.991V158.011H128.005V318.006
	z"/>
<g>
	<polygon style="fill:#37474F;" points="403.995,138.012 255.952,138.012 255.952,158.011 383.995,158.011 383.995,318.006 
		255.952,318.006 255.952,338.005 403.995,338.005 	"/>
	<rect x="85.507" y="317.509" style="fill:#37474F;" width="340.988" height="43.998"/>
</g>
<rect x="255.951" y="317.509" style="fill:#263238;" width="170.544" height="43.998"/>
<g>
	<rect x="155.025" y="207.152" style="fill:#1B56DB;" width="11.768" height="61.128"/>
	<rect x="240.852" y="207.152" style="fill:#1B56DB;" width="11.768" height="61.128"/>
	<polygon style="fill:#1B56DB;" points="222.716,231.836 209.705,231.836 209.705,218.824 197.938,218.824 197.938,231.836 
		184.926,231.836 184.926,243.603 197.938,243.603 197.938,256.614 209.705,256.614 209.705,243.603 222.716,243.603 	"/>
</g>
<g>
	<rect x="270.76" y="221.882" style="fill:#1149AA;" width="37.79" height="11.768"/>
	<rect x="270.76" y="241.781" style="fill:#1149AA;" width="37.79" height="11.768"/>
</g>
<g>
</g>
<g>
</g>
<g>
</g>
<g>
</g>
<g>
</g>
<g>
</g>
<g>
</g>
<g>
</g>
<g>
</g>
<g>
</g>
<g>
</g>
<g>
</g>
<g>
</g>
<g>
</g>
<g>
</g>
</svg>
