<svg xmlns="http://www.w3.org/2000/svg" height="512pt" version="1.1" viewBox="0 0 512 512" width="512pt">
<g id="surface1">
<path d="M 512 256 C 512 397.386719 397.386719 512 256 512 C 114.613281 512 0 397.386719 0 256 C 0 114.613281 114.613281 0 256 0 C 397.386719 0 512 114.613281 512 256 Z M 512 256 " style=" stroke:none;fill-rule:nonzero;fill:rgb(0%,92.941176%,100%);fill-opacity:1;" />
<path d="M 512 256 C 512 251.875 511.894531 247.777344 511.699219 243.699219 L 401 133 L 379.453125 136.617188 L 337.921875 95.085938 L 336.3125 97.882812 L 311.847656 73.417969 L 264.246094 77 L 331.851562 144.605469 L 111 181.667969 L 265.832031 336.5 L 131.945312 430.332031 L 209.359375 507.746094 C 224.484375 510.53125 240.070312 512 256 512 C 397.386719 512 512 397.386719 512 256 Z M 512 256 " style=" stroke:none;fill-rule:nonzero;fill:rgb(2.745098%,74.509804%,90.980392%);fill-opacity:1;" />
<path d="M 131.945312 162.332031 L 380.054688 162.332031 L 380.054688 430.332031 L 131.945312 430.332031 Z M 131.945312 162.332031 " style=" stroke:none;fill-rule:nonzero;fill:rgb(33.333333%,35.294118%,40%);fill-opacity:1;" />
<path d="M 255.761719 162.332031 L 380.054688 162.332031 L 380.054688 430.332031 L 255.761719 430.332031 Z M 255.761719 162.332031 " style=" stroke:none;fill-rule:nonzero;fill:rgb(25.490196%,28.627451%,32.156863%);fill-opacity:1;" />
<path d="M 111 133 L 401 133 L 401 181.667969 L 111 181.667969 Z M 111 133 " style=" stroke:none;fill-rule:nonzero;fill:rgb(25.490196%,28.627451%,32.156863%);fill-opacity:1;" />
<path d="M 255.761719 133 L 401 133 L 401 181.667969 L 255.761719 181.667969 Z M 255.761719 133 " style=" stroke:none;fill-rule:nonzero;fill:rgb(13.72549%,15.294118%,16.862745%);fill-opacity:1;" />
<path d="M 312.332031 292.667969 C 312.332031 323.777344 287.113281 349 256 349 C 224.886719 349 199.667969 323.777344 199.667969 292.667969 C 199.667969 261.554688 224.886719 236.335938 256 236.335938 C 287.113281 236.335938 312.332031 261.554688 312.332031 292.667969 Z M 312.332031 292.667969 " style=" stroke:none;fill-rule:nonzero;fill:rgb(100%,83.137255%,0%);fill-opacity:1;" />
<path d="M 256 236.332031 C 255.921875 236.332031 255.84375 236.339844 255.761719 236.339844 L 255.761719 348.992188 C 255.84375 348.992188 255.921875 349 256 349 C 287.113281 349 312.332031 323.777344 312.332031 292.667969 C 312.332031 261.554688 287.113281 236.332031 256 236.332031 Z M 256 236.332031 " style=" stroke:none;fill-rule:nonzero;fill:rgb(99.215686%,72.941176%,7.058824%);fill-opacity:1;" />
<path d="M 345.667969 154.332031 L 325.667969 154.332031 L 325.667969 117.929688 C 325.667969 111.78125 322.402344 105.976562 317.144531 102.785156 L 274.476562 76.882812 L 284.855469 59.785156 L 327.523438 85.691406 C 338.714844 92.484375 345.667969 104.839844 345.667969 117.929688 Z M 345.667969 154.332031 " style=" stroke:none;fill-rule:nonzero;fill:rgb(13.72549%,15.294118%,16.862745%);fill-opacity:1;" />
<path d="M 290.21875 93.027344 L 268.277344 80.363281 C 260.945312 76.128906 258.433594 66.75 262.667969 59.414062 C 266.902344 52.082031 276.277344 49.570312 283.613281 53.804688 L 305.550781 66.472656 C 312.886719 70.703125 315.398438 80.082031 311.164062 87.417969 C 306.929688 94.75 297.550781 97.261719 290.21875 93.027344 Z M 290.21875 93.027344 " style=" stroke:none;fill-rule:nonzero;fill:rgb(25.490196%,28.627451%,32.156863%);fill-opacity:1;" />
</g>
</svg>