<svg height="512pt" viewBox="0 0 512 512" width="512pt" xmlns="http://www.w3.org/2000/svg"><path d="m512 256c0 141.386719-114.613281 256-256 256s-256-114.613281-256-256 114.613281-256 256-256 256 114.613281 256 256zm0 0" fill="#77c0bc"/><path d="m508.949219 295.589844-108.617188-108.617188-10.902343 5.261719-61.261719-61.742187-216.5 260.429687 119.914062 119.914063c8.035157.757812 16.179688 1.164062 24.417969 1.164062 127.921875 0 233.921875-93.824219 252.949219-216.410156zm0 0" fill="#3b7d84"/><path d="m231.109375 130.492188h-47.273437v56.480468h-72.167969v203.949219h144.332031l12.550781-134.921875-12.550781-134.921875c-9.546875 0-18.253906 3.5625-24.890625 9.414063zm0 0" fill="#f2ebd9"/><path d="m328.167969 186.972656v-56.480468h-47.277344c-6.632813-5.851563-15.34375-9.414063-24.890625-9.414063v269.84375h144.335938v-203.949219zm0 0" fill="#f9dca7"/><path d="m246.585938 158.730469h-34.511719v18.828125h43.925781l6.273438-14.121094-6.273438-14.117188c-5.199219 0-9.414062 4.210938-9.414062 9.410157zm0 0" fill="#ffcc75"/><path d="m202.660156 334.441406-26.671875 18.828125-26.667969-18.828125v-109.820312h53.339844l12.550782 54.910156zm0 0" fill="#6da8d6"/><path d="m256 334.441406-26.671875 18.828125-26.667969-18.828125v-109.820312h53.339844l12.550781 54.910156zm0 0" fill="#f2484b"/><path d="m309.339844 334.441406-26.667969 18.828125-26.671875-18.828125v-109.820312h53.339844l12.550781 54.910156zm0 0" fill="#ff6e1d"/><path d="m362.679688 334.441406-26.667969 18.828125-26.671875-18.828125v-109.820312h53.339844zm0 0" fill="#ff9d49"/><path d="m265.414062 158.730469c0-5.199219-4.214843-9.410157-9.414062-9.410157v28.238282h43.929688v-18.828125zm0 0" fill="#ffb55f"/></svg>