<?xml version="1.0" encoding="iso-8859-1"?>
<!-- Generator: Adobe Illustrator 19.0.0, SVG Export Plug-In . SVG Version: 6.00 Build 0)  -->
<svg xmlns="http://www.w3.org/2000/svg" xmlns:xlink="http://www.w3.org/1999/xlink" version="1.1" id="Capa_1" x="0px" y="0px" viewBox="0 0 511.993 511.993" style="enable-background:new 0 0 511.993 511.993;" xml:space="preserve">
<circle style="fill:#EA971E;" cx="255.997" cy="255.997" r="255.997"/>
<path style="fill:#C27526;" d="M96.994,220.74c0,44.273,17.95,84.429,46.947,113.589l-0.007,0.007l56.945,56.945h-16.506v47.013  l73.681,73.681c125.94-0.991,230.206-92.911,250.394-213.349L269.375,59.552h-11.193C169.302,59.552,96.994,131.86,96.994,220.74z"/>
<rect x="246.629" y="76.346" style="fill:#57565C;" width="22.387" height="288.799"/>
<circle style="fill:#4AB6BF;" cx="258.178" cy="220.736" r="113.058"/>
<path style="fill:#C6C5CA;" d="M269.375,434.538h-22.387v-52.995c-83.674-5.771-149.994-75.688-149.994-160.803  c0-88.88,72.308-161.188,161.188-161.188h11.193v22.387h-11.193c-76.534,0-138.801,62.266-138.801,138.801  S181.648,359.54,258.182,359.54h11.193V434.538z"/>
<rect x="184.369" y="391.275" style="fill:#797882;" width="147.618" height="47.013"/>
<rect x="258.079" y="391.275" style="fill:#57565C;" width="73.915" height="47.013"/>
<path style="fill:#30767A;" d="M258.181,107.685c-0.12,0-0.24,0.004-0.359,0.005v226.102c0.12,0,0.24,0.005,0.359,0.005  c62.439,0,113.056-50.617,113.056-113.056S320.62,107.685,258.181,107.685z"/>
<g>
</g>
<g>
</g>
<g>
</g>
<g>
</g>
<g>
</g>
<g>
</g>
<g>
</g>
<g>
</g>
<g>
</g>
<g>
</g>
<g>
</g>
<g>
</g>
<g>
</g>
<g>
</g>
<g>
</g>
</svg>
