<svg xmlns="http://www.w3.org/2000/svg" height="512pt" version="1.1" viewBox="0 0 512 512" width="512pt">
<g id="surface1">
<path d="M 512 256 C 512 397.386719 397.386719 512 256 512 C 114.613281 512 0 397.386719 0 256 C 0 114.613281 114.613281 0 256 0 C 397.386719 0 512 114.613281 512 256 Z M 512 256 " style=" stroke:none;fill-rule:nonzero;fill:rgb(100%,83.137255%,0%);fill-opacity:1;" />
<path d="M 512 256 C 512 253.230469 511.941406 250.472656 511.851562 247.726562 L 377.492188 113.367188 L 99 416.417969 L 184.425781 501.84375 C 207.140625 508.445312 231.152344 512 256 512 C 397.386719 512 512 397.386719 512 256 Z M 512 256 " style=" stroke:none;fill-rule:nonzero;fill:rgb(99.215686%,72.941176%,7.058824%);fill-opacity:1;" />
<path d="M 413 416.417969 L 99 416.417969 L 99 237.011719 L 256 297.011719 L 413 237.011719 Z M 413 416.417969 " style=" stroke:none;fill-rule:nonzero;fill:rgb(29.019608%,47.843137%,100%);fill-opacity:1;" />
<path d="M 413 237.011719 L 256 297.011719 L 255.761719 296.917969 L 255.761719 416.417969 L 413 416.417969 Z M 413 237.011719 " style=" stroke:none;fill-rule:nonzero;fill:rgb(15.686275%,39.215686%,94.117647%);fill-opacity:1;" />
<path d="M 99 237.011719 L 256 115 L 413 237.011719 L 256 332.855469 Z M 99 237.011719 " style=" stroke:none;fill-rule:nonzero;fill:rgb(0%,32.54902%,74.901961%);fill-opacity:1;" />
<path d="M 413 237.011719 L 256 115 L 255.761719 115.183594 L 255.761719 332.710938 L 256 332.855469 Z M 413 237.011719 " style=" stroke:none;fill-rule:nonzero;fill:rgb(15.294118%,28.235294%,56.078431%);fill-opacity:1;" />
<path d="M 316.25 52.121094 L 134.507812 52.121094 L 134.507812 258.6875 L 256 332.855469 L 377.492188 258.6875 L 377.492188 113.367188 Z M 316.25 52.121094 " style=" stroke:none;fill-rule:nonzero;fill:rgb(100%,100%,100%);fill-opacity:1;" />
<path d="M 316.25 52.121094 L 255.761719 52.121094 L 255.761719 332.710938 L 256 332.855469 L 377.492188 258.6875 L 377.492188 113.367188 Z M 316.25 52.121094 " style=" stroke:none;fill-rule:nonzero;fill:rgb(94.901961%,96.470588%,98.823529%);fill-opacity:1;" />
<path d="M 316.25 113.367188 L 377.492188 113.367188 L 316.25 52.121094 Z M 316.25 113.367188 " style=" stroke:none;fill-rule:nonzero;fill:rgb(80.392157%,82.352941%,88.235294%);fill-opacity:1;" />
<path d="M 346.726562 353.746094 L 312.644531 338.019531 L 278.566406 353.746094 L 278.566406 267.761719 L 346.726562 267.761719 Z M 346.726562 353.746094 " style=" stroke:none;fill-rule:nonzero;fill:rgb(100%,83.137255%,0%);fill-opacity:1;" />
<path d="M 312.625 267.761719 L 312.625 338.027344 L 312.644531 338.019531 L 346.726562 353.746094 L 346.726562 267.761719 Z M 312.625 267.761719 " style=" stroke:none;fill-rule:nonzero;fill:rgb(99.215686%,72.941176%,7.058824%);fill-opacity:1;" />
<path d="M 374.769531 255.3125 L 361.0625 268.359375 L 366.414062 286.511719 L 348.011719 290.9375 L 343.585938 309.34375 L 325.433594 303.992188 L 312.382812 317.695312 L 299.335938 303.992188 L 281.183594 309.34375 L 276.757812 290.9375 L 258.351562 286.511719 L 263.703125 268.359375 L 250 255.3125 L 263.703125 242.261719 L 258.351562 224.109375 L 276.757812 219.683594 L 281.183594 201.277344 L 299.335938 206.632812 L 312.382812 192.925781 L 325.433594 206.632812 L 343.585938 201.277344 L 348.011719 219.683594 L 366.414062 224.109375 L 361.0625 242.261719 Z M 374.769531 255.3125 " style=" stroke:none;fill-rule:nonzero;fill:rgb(98.039216%,36.470588%,5.882353%);fill-opacity:1;" />
<path d="M 374.769531 255.3125 L 361.0625 242.261719 L 366.414062 224.109375 L 348.011719 219.683594 L 343.585938 201.277344 L 325.433594 206.632812 L 312.382812 192.925781 L 312.332031 192.980469 L 312.332031 317.640625 L 312.382812 317.695312 L 325.433594 303.992188 L 343.585938 309.34375 L 348.011719 290.9375 L 366.414062 286.511719 L 361.0625 268.359375 Z M 374.769531 255.3125 " style=" stroke:none;fill-rule:nonzero;fill:rgb(93.72549%,21.960784%,0%);fill-opacity:1;" />
<path d="M 348.707031 255.3125 C 348.707031 275.226562 332.5625 291.371094 312.644531 291.371094 C 292.730469 291.371094 276.585938 275.226562 276.585938 255.3125 C 276.585938 235.394531 292.730469 219.25 312.644531 219.25 C 332.5625 219.25 348.707031 235.394531 348.707031 255.3125 Z M 348.707031 255.3125 " style=" stroke:none;fill-rule:nonzero;fill:rgb(100%,64.313725%,14.901961%);fill-opacity:1;" />
<path d="M 312.644531 219.25 C 312.539062 219.25 312.4375 219.257812 312.332031 219.257812 L 312.332031 291.363281 C 312.4375 291.363281 312.539062 291.371094 312.644531 291.371094 C 332.5625 291.371094 348.707031 275.226562 348.707031 255.3125 C 348.707031 235.394531 332.5625 219.25 312.644531 219.25 Z M 312.644531 219.25 " style=" stroke:none;fill-rule:nonzero;fill:rgb(100%,58.431373%,0%);fill-opacity:1;" />
</g>
</svg>