<?xml version="1.0" encoding="iso-8859-1"?>
<!-- Generator: Adobe Illustrator 19.0.0, SVG Export Plug-In . SVG Version: 6.00 Build 0)  -->
<svg version="1.1" id="Capa_1" xmlns="http://www.w3.org/2000/svg" xmlns:xlink="http://www.w3.org/1999/xlink" x="0px" y="0px"
	 viewBox="0 0 512 512" style="enable-background:new 0 0 512 512;" xml:space="preserve">
<circle style="fill:#FD833F;" cx="256" cy="256" r="256"/>
<path style="fill:#FA5535;" d="M512,256c0-0.163-0.006-0.325-0.006-0.489L371.038,114.556L301,118l105.454,105.454l31.328,96.328
	L211,93l-82.5,53.25L92.552,365.833l146.136,145.571C244.411,511.787,250.18,512,256,512C397.385,512,512,397.385,512,256z"/>
<path style="fill:#37474F;" d="M99.516,267.862l-23.031-9.725l52.938-125.379C139.62,108.606,163.149,93,189.366,93H211v25h-21.634
	c-16.144,0-30.633,9.61-36.913,24.483L99.516,267.862z"/>
<path style="fill:#263238;" d="M412.484,267.862l-52.938-125.379C353.268,127.61,338.778,118,322.634,118H301V93h21.634
	c26.217,0,49.746,15.606,59.944,39.758l52.938,125.379L412.484,267.862z"/>
<path style="fill:#37474F;" d="M295,324.75h-25c0-7.72-6.28-14-14-14s-14,6.28-14,14h-25c0-21.505,17.495-39,39-39
	S295,303.245,295,324.75z"/>
<path style="fill:#263238;" d="M256,285.75c-0.016,0-0.032,0.001-0.048,0.001v25.001c0.016,0,0.031-0.002,0.048-0.002
	c7.72,0,14,6.28,14,14h25C295,303.245,277.505,285.75,256,285.75z"/>
<circle style="fill:#47D7FD;" cx="155.33" cy="299.33" r="79"/>
<path style="fill:#455A64;" d="M155.333,390.833c-50.453,0-91.5-41.047-91.5-91.5s41.047-91.5,91.5-91.5s91.5,41.047,91.5,91.5
	S205.787,390.833,155.333,390.833z M155.333,232.833c-36.668,0-66.5,29.832-66.5,66.5s29.832,66.5,66.5,66.5s66.5-29.832,66.5-66.5
	S192.001,232.833,155.333,232.833z"/>
<circle style="fill:#0FADF5;" cx="356.67" cy="299.33" r="79"/>
<path style="fill:#37474F;" d="M356.667,390.833c-50.453,0-91.5-41.047-91.5-91.5s41.047-91.5,91.5-91.5s91.5,41.047,91.5,91.5
	S407.12,390.833,356.667,390.833z M356.667,232.833c-36.668,0-66.5,29.832-66.5,66.5s29.832,66.5,66.5,66.5s66.5-29.832,66.5-66.5
	S393.335,232.833,356.667,232.833z"/>
<circle style="fill:#FFFFFF;" cx="136" cy="280" r="19.5"/>
<circle style="fill:#E0E0E0;" cx="330" cy="280" r="19.5"/>
<g>
</g>
<g>
</g>
<g>
</g>
<g>
</g>
<g>
</g>
<g>
</g>
<g>
</g>
<g>
</g>
<g>
</g>
<g>
</g>
<g>
</g>
<g>
</g>
<g>
</g>
<g>
</g>
<g>
</g>
</svg>
