<svg xmlns="http://www.w3.org/2000/svg" height="512pt" version="1.1" viewBox="0 0 512 512" width="512pt">
<g id="surface1">
<path d="M 512 256 C 512 397.386719 397.386719 512 256 512 C 114.613281 512 0 397.386719 0 256 C 0 114.613281 114.613281 0 256 0 C 397.386719 0 512 114.613281 512 256 Z M 512 256 " style=" stroke:none;fill-rule:nonzero;fill:rgb(29.019608%,47.843137%,100%);fill-opacity:1;" />
<path d="M 256.75 511.988281 C 397.539062 511.585938 511.585938 397.539062 511.988281 256.75 L 318.5 63.261719 L 246.183594 92.945312 L 216.5 63.261719 L 216.5 114.835938 L 258.652344 160.15625 L 203.328125 215.484375 L 203.328125 301.738281 L 246.96875 345.378906 L 193.5 448.738281 Z M 256.75 511.988281 " style=" stroke:none;fill-rule:nonzero;fill:rgb(15.686275%,39.215686%,94.117647%);fill-opacity:1;" />
<path d="M 220.535156 107.582031 L 291 107.582031 L 291 130.582031 L 220.535156 130.582031 Z M 220.535156 107.582031 " style=" stroke:none;fill-rule:nonzero;fill:rgb(74.509804%,76.470588%,82.352941%);fill-opacity:1;" />
<path d="M 256 107.582031 L 291 107.582031 L 291 130.582031 L 256 130.582031 Z M 256 107.582031 " style=" stroke:none;fill-rule:nonzero;fill:rgb(68.627451%,70.588235%,78.431373%);fill-opacity:1;" />
<path d="M 206.53125 71.25 L 305.003906 71.25 L 305.003906 94.25 L 206.53125 94.25 Z M 206.53125 71.25 " style=" stroke:none;fill-rule:nonzero;fill:rgb(99.607843%,41.568627%,8.627451%);fill-opacity:1;" />
<path d="M 256 71.25 L 305.003906 71.25 L 305.003906 94.25 L 256 94.25 Z M 256 71.25 " style=" stroke:none;fill-rule:nonzero;fill:rgb(94.901961%,27.058824%,0%);fill-opacity:1;" />
<path d="M 206.53125 421.25 L 305.003906 421.25 L 305.003906 444.25 L 206.53125 444.25 Z M 206.53125 421.25 " style=" stroke:none;fill-rule:nonzero;fill:rgb(100%,83.137255%,0%);fill-opacity:1;" />
<path d="M 256 421.25 L 305.003906 421.25 L 305.003906 444.25 L 256 444.25 Z M 256 421.25 " style=" stroke:none;fill-rule:nonzero;fill:rgb(99.215686%,72.941176%,7.058824%);fill-opacity:1;" />
<path d="M 220.535156 384.914062 L 291 384.914062 L 291 407.914062 L 220.535156 407.914062 Z M 220.535156 384.914062 " style=" stroke:none;fill-rule:nonzero;fill:rgb(74.509804%,76.470588%,82.352941%);fill-opacity:1;" />
<path d="M 256 384.914062 L 291 384.914062 L 291 407.914062 L 256 407.914062 Z M 256 384.914062 " style=" stroke:none;fill-rule:nonzero;fill:rgb(68.627451%,70.588235%,78.431373%);fill-opacity:1;" />
<path d="M 206.53125 243.914062 L 305.003906 243.914062 L 305.003906 266.914062 L 206.53125 266.914062 Z M 206.53125 243.914062 " style=" stroke:none;fill-rule:nonzero;fill:rgb(99.607843%,41.568627%,8.627451%);fill-opacity:1;" />
<path d="M 256 243.914062 L 305.003906 243.914062 L 305.003906 266.914062 L 256 266.914062 Z M 256 243.914062 " style=" stroke:none;fill-rule:nonzero;fill:rgb(94.901961%,27.058824%,0%);fill-opacity:1;" />
<path d="M 206.53125 202.582031 L 305.003906 202.582031 L 305.003906 225.582031 L 206.53125 225.582031 Z M 206.53125 202.582031 " style=" stroke:none;fill-rule:nonzero;fill:rgb(100%,83.137255%,0%);fill-opacity:1;" />
<path d="M 256 202.582031 L 305.003906 202.582031 L 305.003906 225.582031 L 256 225.582031 Z M 256 202.582031 " style=" stroke:none;fill-rule:nonzero;fill:rgb(99.215686%,72.941176%,7.058824%);fill-opacity:1;" />
<path d="M 206.53125 285.25 L 305.003906 285.25 L 305.003906 308.25 L 206.53125 308.25 Z M 206.53125 285.25 " style=" stroke:none;fill-rule:nonzero;fill:rgb(3.529412%,80.784314%,40.392157%);fill-opacity:1;" />
<path d="M 256 285.25 L 305.003906 285.25 L 305.003906 308.25 L 256 308.25 Z M 256 285.25 " style=" stroke:none;fill-rule:nonzero;fill:rgb(10.196078%,67.843137%,36.078431%);fill-opacity:1;" />
<path d="M 318.5 256 C 318.5 208.863281 295.679688 181.980469 272.660156 159.628906 C 295.679688 137.28125 318.5 110.394531 318.5 63.261719 L 295.5 63.261719 C 295.5 101.933594 277.914062 122.621094 256 143.757812 C 234.085938 122.621094 216.5 101.9375 216.5 63.261719 L 193.5 63.261719 C 193.5 110.394531 216.320312 137.28125 239.339844 159.628906 C 216.320312 181.980469 193.5 208.863281 193.5 256 C 193.5 303.136719 216.320312 330.019531 239.339844 352.371094 C 216.320312 374.71875 193.5 401.605469 193.5 448.738281 L 216.5 448.738281 C 216.5 410.066406 234.085938 389.378906 256 368.242188 C 277.914062 389.378906 295.5 410.066406 295.5 448.738281 L 318.5 448.738281 C 318.5 401.605469 295.679688 374.71875 272.660156 352.371094 C 295.679688 330.019531 318.5 303.136719 318.5 256 Z M 216.5 256 C 216.5 217.324219 234.085938 196.640625 256 175.503906 C 277.914062 196.640625 295.5 217.324219 295.5 256 C 295.5 294.675781 277.914062 315.359375 256 336.496094 C 234.085938 315.359375 216.5 294.675781 216.5 256 Z M 216.5 256 " style=" stroke:none;fill-rule:nonzero;fill:rgb(100%,100%,100%);fill-opacity:1;" />
<path d="M 318.5 256 C 318.5 208.863281 295.679688 181.980469 272.660156 159.628906 C 295.679688 137.28125 318.5 110.394531 318.5 63.261719 L 295.5 63.261719 C 295.5 101.933594 277.914062 122.621094 256 143.757812 L 256 175.503906 C 277.914062 196.640625 295.5 217.324219 295.5 256 C 295.5 294.675781 277.914062 315.359375 256 336.496094 L 256 368.246094 C 277.914062 389.382812 295.5 410.066406 295.5 448.742188 L 318.5 448.742188 C 318.5 401.605469 295.679688 374.722656 272.660156 352.371094 C 295.679688 330.019531 318.5 303.136719 318.5 256 Z M 318.5 256 " style=" stroke:none;fill-rule:nonzero;fill:rgb(91.372549%,92.941176%,96.078431%);fill-opacity:1;" />
</g>
</svg>