<svg height="512.001pt" viewBox="0 0 512 512.001" width="512pt" xmlns="http://www.w3.org/2000/svg"><path d="m512 256c0 141.386719-114.613281 256-256 256-141.382812 0-256-114.613281-256-256s114.617188-256 256-256c141.386719 0 256 114.613281 256 256zm0 0" fill="#185f8d"/><path d="m512 256c0-7.242188-.316406-14.40625-.90625-21.496094l-113.726562-113.726562-282.734376 55.320312 47.1875 46.75-28.75 168.375 120.753907 120.75c.726562.007813 1.449219.027344 2.175781.027344 141.386719 0 256-114.613281 256-256zm0 0" fill="#082947"/><path d="m133.070312 163.804688v227.417968h122.929688l12.292969-113.710937-12.292969-113.707031zm0 0" fill="#f9dca7"/><path d="m256 163.804688h122.929688v227.417968h-122.929688zm0 0" fill="#ffcc75"/><path d="m194.535156 286.730469v67.613281h61.464844l12.292969-33.804688-12.292969-33.808593zm0 0" fill="#fff"/><path d="m256 286.730469h61.464844v67.613281h-61.464844zm0 0" fill="#f2ebd9"/><path d="m114.632812 120.777344v55.320312h141.367188l12.292969-27.660156-12.292969-27.660156zm0 0" fill="#ffb55f"/><path d="m256 120.777344h141.367188v55.320312h-141.367188zm0 0" fill="#ff9d49"/><path d="m212.976562 212.976562c-10.144531 0-18.441406 8.296876-18.441406 18.4375 0 10.140626 8.300782 18.4375 18.441406 18.4375h43.023438l12.292969-18.4375-12.292969-18.4375zm0 0" fill="#ff9d49"/><path d="m299.027344 212.976562h-43.027344v36.878907h43.027344c10.140625 0 18.4375-8.300781 18.4375-18.441407 0-10.140624-8.296875-18.4375-18.4375-18.4375zm0 0" fill="#ff8430"/></svg>