<?xml version="1.0" encoding="iso-8859-1"?>
<!-- Generator: Adobe Illustrator 19.0.0, SVG Export Plug-In . SVG Version: 6.00 Build 0)  -->
<svg xmlns="http://www.w3.org/2000/svg" xmlns:xlink="http://www.w3.org/1999/xlink" version="1.1" id="Capa_1" x="0px" y="0px" viewBox="0 0 512 512" style="enable-background:new 0 0 512 512;" xml:space="preserve">
<circle style="fill:#F7DC4D;" cx="255.997" cy="256" r="255.997"/>
<path style="fill:#E5BF2B;" d="M512,256.003c0-7.069-0.299-14.068-0.862-20.993L403.414,127.286c-5.384,0-114.13,0-119.168,0  c0,7.399,0,58.766,0,65.863l-40.044-40.044h-70.975h-70.975v61.927l28.912,28.912c1.929,5.243,2.983,10.909,2.983,16.822  c0,20.993-13.279,38.883-31.895,45.733v47.205l158.24,158.241C399.803,509.546,512,395.885,512,256.003z"/>
<path style="fill:#779DD2;" d="M212.306,260.766c0-20.994,13.279-38.884,31.895-45.733v-61.927h-141.95v61.927  c18.616,6.85,31.895,24.741,31.895,45.733c0,20.994-13.279,38.884-31.895,45.733v47.205h141.95v-47.205  C225.586,299.65,212.306,281.76,212.306,260.766z"/>
<path style="fill:#5A7EBF;" d="M244.202,215.032v-61.927h-70.975v200.6h70.975V306.5c-18.616-6.851-31.895-24.741-31.895-45.733  C212.306,239.773,225.586,221.882,244.202,215.032z"/>
<path style="fill:#D9D8DB;" d="M203.37,219.817c0-16.647-13.495-30.143-30.143-30.143s-30.143,13.495-30.143,30.143v133.889h60.285  V219.817z"/>
<path style="fill:#ACACB2;" d="M173.227,189.675v164.031h30.143v-133.89C203.37,203.169,189.875,189.675,173.227,189.675z"/>
<circle style="fill:#797882;" cx="157.716" cy="266.079" r="9.814"/>
<rect x="284.249" y="127.286" style="fill:#2D5D92;" width="119.168" height="260.064"/>
<rect x="284.249" y="127.286" style="fill:#E25F3F;" width="119.168" height="129.336"/>
<rect x="284.249" y="127.286" style="fill:#E57654;" width="119.168" height="41.707"/>
<rect x="343.833" y="127.286" style="fill:#27507D;" width="59.584" height="260.064"/>
<rect x="343.833" y="127.286" style="fill:#BF5035;" width="59.584" height="129.336"/>
<rect x="343.833" y="127.286" style="fill:#E25F3F;" width="59.584" height="41.707"/>
<g>
</g>
<g>
</g>
<g>
</g>
<g>
</g>
<g>
</g>
<g>
</g>
<g>
</g>
<g>
</g>
<g>
</g>
<g>
</g>
<g>
</g>
<g>
</g>
<g>
</g>
<g>
</g>
<g>
</g>
</svg>
