<?xml version="1.0" encoding="iso-8859-1"?>
<!-- Generator: Adobe Illustrator 19.0.0, SVG Export Plug-In . SVG Version: 6.00 Build 0)  -->
<svg version="1.1" id="Capa_1" xmlns="http://www.w3.org/2000/svg" xmlns:xlink="http://www.w3.org/1999/xlink" x="0px" y="0px"
	 viewBox="0 0 512 512" style="enable-background:new 0 0 512 512;" xml:space="preserve">
<circle style="fill:#47D7FD;" cx="256" cy="256" r="256"/>
<path style="fill:#0FADF5;" d="M512,256c0-28.36-4.621-55.639-13.135-81.135L421,97l-32,14.875l-53.461,103.417l-96.266-96.265
	l-59.987,291.287l100.571,100.571C410.054,498.849,512,389.339,512,256z"/>
<path style="fill:#5D4037;" d="M327,97c-31.572,0-58.733,18.77-71,45.75C243.734,115.77,216.572,97,185,97H91l15.471,20.055
	c14.658,19.001,22.906,42.109,23.895,66.086c0.01,0.249,0.022,0.499,0.035,0.749c1.77,33.918,29.353,61.319,63.281,62.872
	c27.119,1.241,50.853-13.776,62.318-36.125c11.465,22.349,35.199,37.367,62.318,36.125c33.929-1.553,61.511-28.954,63.282-62.872
	c0.013-0.25,0.025-0.499,0.035-0.749c0.989-23.978,9.237-47.085,23.895-66.086L421,97H327z"/>
<path style="fill:#4E342E;" d="M327,97c-31.572,0-58.733,18.77-71,45.75c-0.015-0.034-0.032-0.066-0.048-0.1v68.075
	c0.015-0.03,0.032-0.059,0.048-0.089c11.465,22.349,35.199,37.367,62.318,36.125c33.929-1.553,61.511-28.954,63.282-62.872
	c0.013-0.25,0.025-0.499,0.035-0.749c0.989-23.978,9.237-47.085,23.895-66.086L421,97H327z"/>
<path style="fill:#FA5535;" d="M257,436.777L257,436.777c-70.326,0-127.337-57.01-127.337-127.336V259.28
	c0-40.9,33.156-74.057,74.057-74.057h106.56c40.9,0,74.057,33.156,74.057,74.057v50.161
	C384.336,379.767,327.326,436.777,257,436.777z"/>
<path style="fill:#BE360C;" d="M310.28,185.223H256v251.541c0.302,0.003,0.65,0.013,1,0.013l0,0
	c70.326,0,127.336-57.01,127.336-127.336V259.28C384.336,218.379,351.18,185.223,310.28,185.223z"/>
<polygon style="fill:#FFFFFF;" points="301.899,183.461 256,258.563 210.101,183.462 "/>
<polygon style="fill:#E0E0E0;" points="256,258.563 301.899,183.461 255.952,183.462 "/>
<circle style="fill:#FFA02E;" cx="196.81" cy="180.33" r="54.763"/>
<circle style="fill:#228CE4;" cx="196.81" cy="180.33" r="31.12"/>
<circle style="fill:#1E2D63;" cx="196.81" cy="180.33" r="12.4"/>
<circle style="fill:#F56C04;" cx="315.19" cy="180.33" r="54.763"/>
<circle style="fill:#0666A9;" cx="315.19" cy="180.33" r="31.12"/>
<circle style="fill:#141F3F;" cx="315.19" cy="180.33" r="12.4"/>
<g>
</g>
<g>
</g>
<g>
</g>
<g>
</g>
<g>
</g>
<g>
</g>
<g>
</g>
<g>
</g>
<g>
</g>
<g>
</g>
<g>
</g>
<g>
</g>
<g>
</g>
<g>
</g>
<g>
</g>
</svg>
