<svg xmlns="http://www.w3.org/2000/svg" height="512pt" version="1.1" viewBox="0 0 512 512" width="512pt">
<g id="surface1">
<path d="M 512 256 C 512 397.386719 397.386719 512 256 512 C 114.613281 512 0 397.386719 0 256 C 0 114.613281 114.613281 0 256 0 C 397.386719 0 512 114.613281 512 256 Z M 512 256 " style=" stroke:none;fill-rule:nonzero;fill:rgb(98.039216%,36.470588%,5.882353%);fill-opacity:1;" />
<path d="M 512 256 C 512 229.261719 507.894531 203.484375 500.289062 179.257812 L 432.789062 111.757812 L 79.210938 371.242188 L 217.015625 509.050781 C 229.726562 510.992188 242.746094 512 256 512 C 397.386719 512 512 397.386719 512 256 Z M 512 256 " style=" stroke:none;fill-rule:nonzero;fill:rgb(93.72549%,21.960784%,0%);fill-opacity:1;" />
<path d="M 188.746094 135.757812 L 79.210938 135.757812 L 79.210938 371.242188 L 188.746094 371.242188 C 212.132812 371.242188 234.644531 380.164062 251.683594 396.183594 L 256 400.242188 L 256 164.757812 L 251.683594 160.695312 C 234.644531 144.675781 212.132812 135.757812 188.746094 135.757812 Z M 188.746094 135.757812 " style=" stroke:none;fill-rule:nonzero;fill:rgb(29.019608%,47.843137%,100%);fill-opacity:1;" />
<path d="M 323.253906 135.757812 L 432.789062 135.757812 L 432.789062 371.242188 L 323.253906 371.242188 C 299.867188 371.242188 277.355469 380.164062 260.316406 396.183594 L 256 400.242188 L 256 164.757812 L 260.316406 160.695312 C 277.355469 144.675781 299.867188 135.757812 323.253906 135.757812 Z M 323.253906 135.757812 " style=" stroke:none;fill-rule:nonzero;fill:rgb(15.686275%,39.215686%,94.117647%);fill-opacity:1;" />
<path d="M 188.746094 111.757812 L 79.210938 111.757812 L 79.210938 347.242188 L 188.746094 347.242188 C 212.132812 347.242188 234.644531 356.164062 251.683594 372.183594 L 256 376.242188 L 256 140.757812 L 251.683594 136.695312 C 234.644531 120.675781 212.132812 111.757812 188.746094 111.757812 Z M 188.746094 111.757812 " style=" stroke:none;fill-rule:nonzero;fill:rgb(100%,100%,100%);fill-opacity:1;" />
<path d="M 323.253906 111.757812 L 432.789062 111.757812 L 432.789062 347.242188 L 323.253906 347.242188 C 299.867188 347.242188 277.355469 356.164062 260.316406 372.183594 L 256 376.242188 L 256 140.757812 L 260.316406 136.695312 C 277.355469 120.675781 299.867188 111.757812 323.253906 111.757812 Z M 323.253906 111.757812 " style=" stroke:none;fill-rule:nonzero;fill:rgb(91.372549%,92.941176%,96.078431%);fill-opacity:1;" />
<path d="M 104 143.109375 L 207 143.109375 L 207 162.109375 L 104 162.109375 Z M 104 143.109375 " style=" stroke:none;fill-rule:nonzero;fill:rgb(91.372549%,92.941176%,96.078431%);fill-opacity:1;" />
<path d="M 104 183.109375 L 207 183.109375 L 207 202.109375 L 104 202.109375 Z M 104 183.109375 " style=" stroke:none;fill-rule:nonzero;fill:rgb(91.372549%,92.941176%,96.078431%);fill-opacity:1;" />
<path d="M 104 223.109375 L 207 223.109375 L 207 242.109375 L 104 242.109375 Z M 104 223.109375 " style=" stroke:none;fill-rule:nonzero;fill:rgb(91.372549%,92.941176%,96.078431%);fill-opacity:1;" />
<path d="M 104 263.109375 L 207 263.109375 L 207 282.109375 L 104 282.109375 Z M 104 263.109375 " style=" stroke:none;fill-rule:nonzero;fill:rgb(91.372549%,92.941176%,96.078431%);fill-opacity:1;" />
<path d="M 104 303.109375 L 207 303.109375 L 207 322.109375 L 104 322.109375 Z M 104 303.109375 " style=" stroke:none;fill-rule:nonzero;fill:rgb(91.372549%,92.941176%,96.078431%);fill-opacity:1;" />
<path d="M 305 143.109375 L 408 143.109375 L 408 162.109375 L 305 162.109375 Z M 305 143.109375 " style=" stroke:none;fill-rule:nonzero;fill:rgb(80.392157%,82.352941%,88.235294%);fill-opacity:1;" />
<path d="M 305 183.109375 L 408 183.109375 L 408 202.109375 L 305 202.109375 Z M 305 183.109375 " style=" stroke:none;fill-rule:nonzero;fill:rgb(80.392157%,82.352941%,88.235294%);fill-opacity:1;" />
<path d="M 305 223.109375 L 408 223.109375 L 408 242.109375 L 305 242.109375 Z M 305 223.109375 " style=" stroke:none;fill-rule:nonzero;fill:rgb(80.392157%,82.352941%,88.235294%);fill-opacity:1;" />
<path d="M 305 263.109375 L 408 263.109375 L 408 282.109375 L 305 282.109375 Z M 305 263.109375 " style=" stroke:none;fill-rule:nonzero;fill:rgb(80.392157%,82.352941%,88.235294%);fill-opacity:1;" />
<path d="M 305 303.109375 L 408 303.109375 L 408 322.109375 L 305 322.109375 Z M 305 303.109375 " style=" stroke:none;fill-rule:nonzero;fill:rgb(80.392157%,82.352941%,88.235294%);fill-opacity:1;" />
</g>
</svg>