<svg height="512pt" viewBox="0 0 512 512" width="512pt" xmlns="http://www.w3.org/2000/svg"><path d="m512 256c0 141.386719-114.613281 256-256 256s-256-114.613281-256-256 114.613281-256 256-256 256 114.613281 256 256zm0 0" fill="#185f8d"/><path d="m494.96875 347.957031-148.367188-148.371093-83.523437-27.582032-45.65625-45.640625-100.421875 268.636719 115.957031 115.957031c7.59375.675781 15.273438 1.042969 23.042969 1.042969 108.96875 0 202.023438-68.09375 238.96875-164.042969zm0 0" fill="#082947"/><path d="m154.296875 280.78125 76.921875 76.921875 64.101562-64.101563-29.914062-47.007812-47.007812-29.914062zm0 0" fill="#ff6e1d"/><path d="m218.398438 216.679688 76.921874 76.921874 47.007813-47.007812-29.914063-47.007812-47.007812-29.914063zm0 0" fill="#ffcc75"/><path d="m269.679688 165.398438-4.273438 4.273437 76.921875 76.921875 4.273437-4.273438c11.800782-11.800781 11.800782-30.933593 0-42.734374l-34.1875-34.1875c-11.800781-11.800782-30.933593-11.800782-42.734374 0zm0 0" fill="#c1e8e6"/><path d="m201.609375 286.21875 24.171875 108.78125h66.480469l12.085937-54.390625-12.085937-54.390625zm0 0" fill="#4284b2"/><path d="m292.261719 286.21875v108.78125h66.476562l12.085938-54.390625-12.085938-54.390625zm0 0" fill="#6da8d6"/><path d="m364.78125 286.21875h-6.042969v108.78125h6.042969c16.691406 0 30.21875-13.527344 30.21875-30.21875v-48.347656c0-16.6875-13.527344-30.214844-30.21875-30.214844zm0 0" fill="#c1e8e6"/><path d="m147.21875 117c-16.691406 0-30.21875 13.527344-30.21875 30.21875v247.78125h54.390625l12.085937-139-12.085937-139zm0 0" fill="#98d9d5"/><path d="m225.78125 147.21875c0-16.691406-13.527344-30.21875-30.214844-30.21875h-24.175781v278h54.390625zm0 0" fill="#77c0bc"/><path d="m180.457031 340.609375c0 5.007813-4.058593 9.066406-9.066406 9.066406s-9.066406-4.058593-9.066406-9.066406 4.058593-9.066406 9.066406-9.066406 9.066406 4.058593 9.066406 9.066406zm0 0" fill="#185f8d"/></svg>