<svg height="512pt" viewBox="0 0 512 512" width="512pt" xmlns="http://www.w3.org/2000/svg"><path d="m512 256c0 141.386719-114.613281 256-256 256s-256-114.613281-256-256 114.613281-256 256-256 256 114.613281 256 256zm0 0" fill="#fdbf00"/><path d="m512 256c0-34.054688-6.664062-66.546875-18.738281-96.269531l-68.371094-68.371094-331.953125 331.953125 71.996094 71.996094c28.296875 10.773437 58.988281 16.691406 91.066406 16.691406 141.386719 0 256-114.613281 256-256zm0 0" fill="#ff9f00"/><path d="m124.332031 406.523438-24.125 24.125-14.570312-14.570313 24.125-24.125 18.214843-3.644531 1.164063-.289063zm0 0" fill="#babac0"/><path d="m129.140625 388.019531-4.808594 18.503907-24.125 24.125-7.285156-7.285157 35.054687-35.054687zm0 0" fill="#a1a1a7"/><path d="m425.371094 149.199219-211.28125 211.28125-38.757813-9.617188-27.6875-27.683593 8.160157-20.984376 160.285156-160.28125 36.425781 7.285157 7.285156-51 7.285157-7.285157c7.722656-7.722656 18.214843-11.957031 29.144531-11.8125 10.78125 0 21.125 4.671876 28.703125 12.25 7.578125 7.578126 12.386718 17.921876 12.386718 28.703126.144532 10.929687-4.226562 21.421874-11.949218 29.144531zm0 0" fill="#2fc0f0"/><path d="m425.371094 149.199219-211.28125 211.28125-38.757813-9.617188-4.957031-4.957031 254.558594-254.554688c7.578125 7.578126 12.382812 17.921876 12.382812 28.703126.148438 10.929687-4.222656 21.421874-11.945312 29.144531zm0 0" fill="#0d91bd"/><path d="m410.800781 222.054688-94.714843 94.710937-14.570313-14.570313 80.140625-80.140624c4.082031-4.082032 4.082031-10.492188 0-14.570313l-65.570312-65.570313 43.714843-43.714843 51 51c20.105469 20.109375 20.105469 52.746093 0 72.855469zm0 0" fill="#e7e7e7"/><path d="m410.800781 222.054688-94.714843 94.710937-14.570313-14.570313 80.140625-80.140624c4.082031-4.082032 4.082031-10.492188 0-14.570313l-36.425781-36.429687 43.710937-43.710938 21.859375 21.855469c20.105469 20.109375 20.105469 52.746093 0 72.855469zm0 0" fill="#babac0"/><path d="m214.089844 360.480469-7.285156 7.285156c-21.273438 21.273437-49.105469 34.242187-82.472657 38.757813l-14.570312-14.570313c.144531-.726563.144531-1.3125.289062-2.332031 1.605469-14.132813 5.394531-47.0625 38.46875-80.140625l7.285157-7.285157zm0 0" fill="#e7e7e7"/><path d="m184.949219 331.335938 29.140625 29.144531-7.285156 7.285156c-21.273438 21.273437-49.105469 34.242187-82.472657 38.757813l-7.285156-7.285157zm0 0" fill="#babac0"/></svg>