<svg xmlns="http://www.w3.org/2000/svg" height="512pt" version="1.1" viewBox="0 0 512 512" width="512pt">
<g id="surface1">
<path d="M 512 256 C 512 397.386719 397.386719 512 256 512 C 114.613281 512 0 397.386719 0 256 C 0 114.613281 114.613281 0 256 0 C 397.386719 0 512 114.613281 512 256 Z M 512 256 " style=" stroke:none;fill-rule:nonzero;fill:rgb(25.490196%,28.627451%,32.156863%);fill-opacity:1;" />
<path d="M 512 256 C 512 249.359375 511.746094 242.777344 511.25 236.265625 L 351.984375 77 L 103.757812 402.992188 L 208.3125 507.546875 C 223.765625 510.460938 239.699219 512 256 512 C 397.386719 512 512 397.386719 512 256 Z M 512 256 " style=" stroke:none;fill-rule:nonzero;fill:rgb(20%,22.352941%,25.098039%);fill-opacity:1;" />
<path d="M 163 77 L 103.757812 136.242188 L 103.757812 402.992188 L 351.984375 402.992188 L 351.984375 77 Z M 163 77 " style=" stroke:none;fill-rule:nonzero;fill:rgb(100%,100%,100%);fill-opacity:1;" />
<path d="M 227.191406 77 L 351.984375 77 L 351.984375 402.992188 L 227.191406 402.992188 Z M 227.191406 77 " style=" stroke:none;fill-rule:nonzero;fill:rgb(91.372549%,92.941176%,96.078431%);fill-opacity:1;" />
<path d="M 135.625 148.488281 L 320.117188 148.488281 L 320.117188 164.261719 L 135.625 164.261719 Z M 135.625 148.488281 " style=" stroke:none;fill-rule:nonzero;fill:rgb(86.27451%,88.235294%,92.156863%);fill-opacity:1;" />
<path d="M 227.191406 148.488281 L 320.113281 148.488281 L 320.113281 164.261719 L 227.191406 164.261719 Z M 227.191406 148.488281 " style=" stroke:none;fill-rule:nonzero;fill:rgb(80.392157%,82.352941%,88.235294%);fill-opacity:1;" />
<path d="M 135.625 188.339844 L 320.117188 188.339844 L 320.117188 204.113281 L 135.625 204.113281 Z M 135.625 188.339844 " style=" stroke:none;fill-rule:nonzero;fill:rgb(86.27451%,88.235294%,92.156863%);fill-opacity:1;" />
<path d="M 227.191406 188.335938 L 320.113281 188.335938 L 320.113281 204.109375 L 227.191406 204.109375 Z M 227.191406 188.335938 " style=" stroke:none;fill-rule:nonzero;fill:rgb(80.392157%,82.352941%,88.235294%);fill-opacity:1;" />
<path d="M 135.625 228.1875 L 320.117188 228.1875 L 320.117188 243.960938 L 135.625 243.960938 Z M 135.625 228.1875 " style=" stroke:none;fill-rule:nonzero;fill:rgb(86.27451%,88.235294%,92.156863%);fill-opacity:1;" />
<path d="M 135.625 268.039062 L 320.117188 268.039062 L 320.117188 283.8125 L 135.625 283.8125 Z M 135.625 268.039062 " style=" stroke:none;fill-rule:nonzero;fill:rgb(86.27451%,88.235294%,92.156863%);fill-opacity:1;" />
<path d="M 135.625 307.886719 L 320.117188 307.886719 L 320.117188 323.660156 L 135.625 323.660156 Z M 135.625 307.886719 " style=" stroke:none;fill-rule:nonzero;fill:rgb(86.27451%,88.235294%,92.156863%);fill-opacity:1;" />
<path d="M 135.625 347.738281 L 320.117188 347.738281 L 320.117188 363.511719 L 135.625 363.511719 Z M 135.625 347.738281 " style=" stroke:none;fill-rule:nonzero;fill:rgb(86.27451%,88.235294%,92.156863%);fill-opacity:1;" />
<path d="M 163 136.242188 L 163 77 L 103.757812 136.242188 Z M 163 136.242188 " style=" stroke:none;fill-rule:nonzero;fill:rgb(80.392157%,82.352941%,88.235294%);fill-opacity:1;" />
<path d="M 452 288.363281 C 452 361.261719 392.90625 420.355469 320.011719 420.355469 C 247.113281 420.355469 188.019531 361.261719 188.019531 288.363281 C 188.019531 215.46875 247.113281 156.375 320.011719 156.375 C 392.90625 156.375 452 215.46875 452 288.363281 Z M 452 288.363281 " style=" stroke:none;fill-rule:nonzero;fill:rgb(29.019608%,47.843137%,100%);fill-opacity:1;" />
<path d="M 320.011719 156.375 C 319.824219 156.375 319.640625 156.382812 319.453125 156.382812 L 319.453125 420.347656 C 319.636719 420.347656 319.824219 420.355469 320.011719 420.355469 C 392.90625 420.355469 452 361.261719 452 288.363281 C 452 215.46875 392.90625 156.375 320.011719 156.375 Z M 320.011719 156.375 " style=" stroke:none;fill-rule:nonzero;fill:rgb(15.686275%,39.215686%,94.117647%);fill-opacity:1;" />
<path d="M 423.15625 288.363281 C 423.15625 345.332031 376.976562 391.511719 320.011719 391.511719 C 263.042969 391.511719 216.863281 345.332031 216.863281 288.363281 C 216.863281 231.398438 263.042969 185.21875 320.011719 185.21875 C 376.976562 185.21875 423.15625 231.398438 423.15625 288.363281 Z M 423.15625 288.363281 " style=" stroke:none;fill-rule:nonzero;fill:rgb(100%,100%,100%);fill-opacity:1;" />
<path d="M 320.011719 185.21875 C 319.824219 185.21875 319.640625 185.222656 319.453125 185.222656 L 319.453125 391.503906 C 319.636719 391.503906 319.824219 391.511719 320.011719 391.511719 C 376.976562 391.511719 423.15625 345.328125 423.15625 288.363281 C 423.15625 231.398438 376.976562 185.21875 320.011719 185.21875 Z M 320.011719 185.21875 " style=" stroke:none;fill-rule:nonzero;fill:rgb(91.372549%,92.941176%,96.078431%);fill-opacity:1;" />
<path d="M 325.828125 192.863281 L 325.828125 233.863281 L 314.191406 233.863281 L 314.191406 192.863281 Z M 325.828125 192.863281 " style=" stroke:none;fill-rule:nonzero;fill:rgb(86.27451%,88.235294%,92.156863%);fill-opacity:1;" />
<path d="M 319.453125 192.863281 L 325.828125 192.863281 L 325.828125 233.863281 L 319.453125 233.863281 Z M 319.453125 192.863281 " style=" stroke:none;fill-rule:nonzero;fill:rgb(80.392157%,82.352941%,88.235294%);fill-opacity:1;" />
<path d="M 325.828125 342.863281 L 325.828125 383.863281 L 314.191406 383.863281 L 314.191406 342.863281 Z M 325.828125 342.863281 " style=" stroke:none;fill-rule:nonzero;fill:rgb(86.27451%,88.235294%,92.156863%);fill-opacity:1;" />
<path d="M 319.453125 342.863281 L 325.828125 342.863281 L 325.828125 383.863281 L 319.453125 383.863281 Z M 319.453125 342.863281 " style=" stroke:none;fill-rule:nonzero;fill:rgb(80.392157%,82.352941%,88.235294%);fill-opacity:1;" />
<path d="M 285.242188 336.101562 L 270.757812 320.898438 L 309.617188 283.867188 L 309.617188 204.113281 L 330.617188 204.113281 L 330.617188 292.863281 Z M 285.242188 336.101562 " style=" stroke:none;fill-rule:nonzero;fill:rgb(99.607843%,41.568627%,8.627451%);fill-opacity:1;" />
<path d="M 330.617188 204.113281 L 319.453125 204.113281 L 319.453125 303.5 L 330.617188 292.863281 Z M 330.617188 204.113281 " style=" stroke:none;fill-rule:nonzero;fill:rgb(94.901961%,27.058824%,0%);fill-opacity:1;" />
<path d="M 339.277344 288.363281 C 339.277344 299.003906 330.648438 307.628906 320.011719 307.628906 C 309.371094 307.628906 300.742188 299.003906 300.742188 288.363281 C 300.742188 277.722656 309.371094 269.097656 320.011719 269.097656 C 330.648438 269.097656 339.277344 277.722656 339.277344 288.363281 Z M 339.277344 288.363281 " style=" stroke:none;fill-rule:nonzero;fill:rgb(25.490196%,28.627451%,32.156863%);fill-opacity:1;" />
<path d="M 320.011719 269.097656 C 319.820312 269.097656 319.640625 269.121094 319.453125 269.125 L 319.453125 307.601562 C 319.640625 307.609375 319.820312 307.632812 320.011719 307.632812 C 330.652344 307.632812 339.277344 299.003906 339.277344 288.363281 C 339.277344 277.722656 330.648438 269.097656 320.011719 269.097656 Z M 320.011719 269.097656 " style=" stroke:none;fill-rule:nonzero;fill:rgb(20%,22.352941%,25.098039%);fill-opacity:1;" />
<path d="M 224.511719 282.546875 L 265.511719 282.546875 L 265.511719 294.183594 L 224.511719 294.183594 Z M 224.511719 282.546875 " style=" stroke:none;fill-rule:nonzero;fill:rgb(86.27451%,88.235294%,92.156863%);fill-opacity:1;" />
<path d="M 374.511719 282.546875 L 415.511719 282.546875 L 415.511719 294.183594 L 374.511719 294.183594 Z M 374.511719 282.546875 " style=" stroke:none;fill-rule:nonzero;fill:rgb(80.392157%,82.352941%,88.235294%);fill-opacity:1;" />
</g>
</svg>