<svg height="512pt" viewBox="0 0 512 512" width="512pt" xmlns="http://www.w3.org/2000/svg"><path d="m512 256c0 141.386719-114.613281 256-256 256s-256-114.613281-256-256 114.613281-256 256-256 256 114.613281 256 256zm0 0" fill="#2fc0f0"/><path d="m512 256c0-3.886719-.101562-7.75-.273438-11.59375l-113.550781-113.550781-135.90625-4.875-83.25-7.75-65.128906 12.660156 147.980469 147.980469-148.023438 148.027344 76.621094 76.621093c20.917969 5.523438 42.878906 8.480469 65.53125 8.480469 141.386719 0 256-114.613281 256-256zm0 0" fill="#0d91bd"/><path d="m337.832031 310.886719-81.8125 66.132812-73.71875-73.570312 15.09375 1.09375 1.09375-31.5h115.0625l14.65625 40.246093zm0 0" fill="#ffbd86"/><path d="m337.832031 310.886719-81.8125 66.132812v-103.976562h57.53125l14.65625 40.246093zm0 0" fill="#f6a96c"/><path d="m332.582031 185.542969v32.8125c0 42.21875-34.34375 76.5625-76.5625 76.5625s-76.5625-34.34375-76.5625-76.5625v-32.8125l31.9375-21.875h79.625zm0 0" fill="#fed2a4"/><path d="m332.582031 185.542969v32.8125c0 42.21875-34.34375 76.5625-76.5625 76.5625v-131.25h35zm0 0" fill="#ffbd86"/><path d="m354.457031 136.183594h21.875v82.171875h-21.875zm0 0" fill="#ff9f00"/><path d="m256.019531 53.5625-142.1875 77.292969 75.90625 41.125h132.566407l75.90625-41.125zm0 0" fill="#53433f"/><path d="m322.304688 171.980469h-66.285157v-118.417969l142.1875 77.292969zm0 0" fill="#3e322e"/><path d="m277.894531 119.917969h-43.75c-30.1875 0-54.6875 24.5-54.6875 54.6875v10.9375h153.125v-10.9375c0-30.1875-24.5-54.6875-54.6875-54.6875zm0 0" fill="#68544f"/><path d="m332.582031 174.605469v10.9375h-76.5625v-65.625h21.875c30.1875 0 54.6875 24.5 54.6875 54.6875zm0 0" fill="#53433f"/><path d="m288.832031 218.355469c0 18.152343-14.65625 32.8125-32.8125 32.8125s-32.8125-14.65625-32.8125-32.8125h21.875c0 6.121093 4.8125 10.9375 10.9375 10.9375s10.9375-4.8125 10.9375-10.9375zm0 0" fill="#ff9f00"/><path d="m256.019531 251.167969v-21.875c6.128907 0 10.941407-4.8125 10.941407-10.9375h21.875c-.003907 18.152343-14.660157 32.8125-32.816407 32.8125zm0 0" fill="#ff7816"/><path d="m398.207031 347.636719v79.257812h-284.375v-79.257812c0-18.375 6.5625-35 17.5-48.125l50.96875 3.9375 73.71875 73.570312 81.8125-66.132812 42.875-11.375c10.9375 13.125 17.5 29.75 17.5 48.125zm0 0" fill="#68544f"/><path d="m398.207031 347.636719v79.257812h-142.1875v-49.875l81.8125-66.132812 42.875-11.375c10.9375 13.125 17.5 29.75 17.5 48.125zm0 0" fill="#53433f"/><path d="m313.550781 273.042969-57.53125 54.90625-57.53125-54.90625c-21.875 0-44.839843 1.09375-67.152343 26.46875l124.6875 119.726562 124.6875-119.726562c-22.753907-26.035157-45.285157-26.46875-67.160157-26.46875zm0 0" fill="#ffd400"/><path d="m380.710938 299.511719-124.691407 119.726562v-91.289062l57.53125-54.90625c21.875 0 44.40625.433593 67.160157 26.46875zm0 0" fill="#fdbf00"/></svg>