<svg height="512pt" viewBox="0 0 512 512" width="512pt" xmlns="http://www.w3.org/2000/svg"><path d="m512 256c0 141.386719-114.613281 256-256 256s-256-114.613281-256-256 114.613281-256 256-256 256 114.613281 256 256zm0 0" fill="#811c26"/><path d="m511.105469 277.355469-179.480469-179.480469-185.625 316.25 97.570312 97.570312c4.117188.195313 8.261719.304688 12.429688.304688 134.191406 0 244.253906-103.253906 255.105469-234.644531zm0 0" fill="#442236"/><path d="m262.875 139.125-68.75 68.75h55l68.75-68.75zm0 0" fill="#fff"/><path d="m146 146 123.75 20.625-13.75-49.144531zm0 0" fill="#ffb55f"/><path d="m331.625 97.875-75.625 19.605469v49.144531h75.625zm0 0" fill="#ff9d49"/><path d="m146 146v268.125h110l13.75-134.0625-13.75-134.0625zm0 0" fill="#f2ebd9"/><path d="m256 146h110v268.125h-110zm0 0" fill="#f9dca7"/><path d="m187.25 187.25v137.5h68.75l13.75-68.75-13.75-68.75zm0 0" fill="#f2484b"/><path d="m256 187.25h68.75v137.5h-68.75zm0 0" fill="#bd1515"/><path d="m187.9375 359.125v20.625h68.75l6.875-10.3125-6.875-10.3125zm0 0" fill="#ff9d49"/><path d="m256 359.125h68.75v20.625h-68.75zm0 0" fill="#ff6e1d"/></svg>