<?xml version="1.0" encoding="iso-8859-1"?>
<!-- Generator: Adobe Illustrator 19.0.0, SVG Export Plug-In . SVG Version: 6.00 Build 0)  -->
<svg version="1.1" id="Capa_1" xmlns="http://www.w3.org/2000/svg" xmlns:xlink="http://www.w3.org/1999/xlink" x="0px" y="0px"
	 viewBox="0 0 512 512" style="enable-background:new 0 0 512 512;" xml:space="preserve">
<circle style="fill:#1B56DB;" cx="256" cy="256" r="256"/>
<path style="fill:#1149AA;" d="M259.456,511.956C399.246,510.104,512,396.229,512,256c0-8.143-0.398-16.192-1.141-24.141
	L387.667,108.667L134.5,139.5l34.038,34.038L134.5,180.75l31.469,31.469L134.5,222l37.261,37.261L134.5,263.25l39.436,39.436
	L134.5,304.5l35.133,35.133L134.5,345.75l30.875,30.875L134.5,387L259.456,511.956z"/>
<rect x="153" y="108.67" style="fill:#FE8E00;" width="234.67" height="294.67"/>
<rect x="277.34" y="108.67" style="fill:#FE6F00;" width="110.33" height="294.67"/>
<rect x="207.03" y="148.33" style="fill:#FFFFFF;" width="143.33" height="65.33"/>
<rect x="277.34" y="148.33" style="fill:#E0E0E0;" width="73.02" height="65.33"/>
<g>
	<rect x="134.5" y="125" style="fill:#FFE861;" width="43" height="14.5"/>
	<rect x="134.5" y="166.25" style="fill:#FFE861;" width="43" height="14.5"/>
	<rect x="134.5" y="207.5" style="fill:#FFE861;" width="43" height="14.5"/>
	<rect x="134.5" y="248.75" style="fill:#FFE861;" width="43" height="14.5"/>
	<rect x="134.5" y="290" style="fill:#FFE861;" width="43" height="14.5"/>
	<rect x="134.5" y="331.25" style="fill:#FFE861;" width="43" height="14.5"/>
	<rect x="134.5" y="372.5" style="fill:#FFE861;" width="43" height="14.5"/>
</g>
<g>
</g>
<g>
</g>
<g>
</g>
<g>
</g>
<g>
</g>
<g>
</g>
<g>
</g>
<g>
</g>
<g>
</g>
<g>
</g>
<g>
</g>
<g>
</g>
<g>
</g>
<g>
</g>
<g>
</g>
</svg>
