<svg xmlns="http://www.w3.org/2000/svg" height="512pt" version="1.1" viewBox="0 0 512 512" width="512pt">
<g id="surface1">
<path d="M 512 256 C 512 397.386719 397.386719 512 256 512 C 114.613281 512 0 397.386719 0 256 C 0 114.613281 114.613281 0 256 0 C 397.386719 0 512 114.613281 512 256 Z M 512 256 " style=" stroke:none;fill-rule:nonzero;fill:rgb(29.019608%,47.843137%,100%);fill-opacity:1;" />
<path d="M 512 256 C 512 250.996094 511.839844 246.03125 511.558594 241.101562 L 352.46875 82.011719 L 90.5 388.363281 L 210.007812 507.871094 C 224.929688 510.578125 240.296875 512 256 512 C 397.386719 512 512 397.386719 512 256 Z M 512 256 " style=" stroke:none;fill-rule:nonzero;fill:rgb(15.686275%,39.215686%,94.117647%);fill-opacity:1;" />
<path d="M 403.308594 381.808594 L 108.691406 381.808594 L 108.691406 189.242188 C 108.691406 178.585938 117.335938 169.941406 127.992188 169.941406 L 384.003906 169.941406 C 394.664062 169.941406 403.304688 178.585938 403.304688 189.242188 L 403.304688 381.808594 Z M 403.308594 381.808594 " style=" stroke:none;fill-rule:nonzero;fill:rgb(100%,100%,100%);fill-opacity:1;" />
<path d="M 403.308594 189.242188 C 403.308594 178.585938 394.664062 169.941406 384.007812 169.941406 L 255.761719 169.941406 L 255.761719 381.808594 L 403.308594 381.808594 Z M 403.308594 189.242188 " style=" stroke:none;fill-rule:nonzero;fill:rgb(91.372549%,92.941176%,96.078431%);fill-opacity:1;" />
<path d="M 393.0625 377.0625 L 118.9375 377.0625 L 118.9375 189.339844 C 118.9375 184.144531 123.148438 179.933594 128.34375 179.933594 L 383.65625 179.933594 C 388.847656 179.933594 393.058594 184.144531 393.058594 189.339844 L 393.058594 377.0625 Z M 393.0625 377.0625 " style=" stroke:none;fill-rule:nonzero;fill:rgb(99.607843%,41.568627%,8.627451%);fill-opacity:1;" />
<path d="M 393.0625 189.339844 C 393.0625 184.144531 388.851562 179.933594 383.65625 179.933594 L 255.761719 179.933594 L 255.761719 377.0625 L 393.0625 377.0625 Z M 393.0625 189.339844 " style=" stroke:none;fill-rule:nonzero;fill:rgb(94.901961%,27.058824%,0%);fill-opacity:1;" />
<path d="M 205.578125 82.011719 L 159.53125 128.058594 L 159.53125 335.390625 L 352.46875 335.390625 L 352.46875 82.011719 Z M 205.578125 82.011719 " style=" stroke:none;fill-rule:nonzero;fill:rgb(100%,100%,100%);fill-opacity:1;" />
<path d="M 255.761719 82.011719 L 352.46875 82.011719 L 352.46875 335.390625 L 255.761719 335.390625 Z M 255.761719 82.011719 " style=" stroke:none;fill-rule:nonzero;fill:rgb(91.372549%,92.941176%,96.078431%);fill-opacity:1;" />
<path d="M 205.578125 128.058594 L 205.578125 82.011719 L 159.53125 128.058594 Z M 205.578125 128.058594 " style=" stroke:none;fill-rule:nonzero;fill:rgb(80.392157%,82.352941%,88.235294%);fill-opacity:1;" />
<path d="M 272.777344 271.257812 L 239.222656 271.257812 L 239.222656 255.347656 C 239.222656 235.070312 250.496094 216.753906 268.652344 207.542969 C 278.730469 202.429688 284.742188 191.8125 283.960938 180.496094 C 283.007812 166.664062 271.855469 155.515625 258.023438 154.558594 C 250.128906 154.015625 242.617188 156.664062 236.882812 162.023438 C 231.136719 167.386719 227.972656 174.664062 227.972656 182.519531 L 194.414062 182.519531 C 194.414062 165.511719 201.546875 149.101562 213.984375 137.492188 C 226.597656 125.71875 243.058594 119.890625 260.335938 121.082031 C 290.789062 123.183594 315.335938 147.734375 317.4375 178.1875 C 319.148438 202.976562 305.957031 226.246094 283.832031 237.46875 C 277.015625 240.929688 272.777344 247.777344 272.777344 255.34375 Z M 272.777344 271.257812 " style=" stroke:none;fill-rule:nonzero;fill:rgb(25.490196%,28.627451%,32.156863%);fill-opacity:1;" />
<path d="M 317.4375 178.1875 C 315.335938 147.734375 290.785156 123.183594 260.335938 121.085938 C 258.800781 120.976562 257.277344 120.945312 255.761719 120.949219 L 255.761719 154.503906 C 256.511719 154.496094 257.265625 154.507812 258.023438 154.5625 C 271.855469 155.515625 283.007812 166.664062 283.960938 180.496094 C 284.742188 191.816406 278.730469 202.429688 268.652344 207.546875 C 263.84375 209.984375 259.523438 213.066406 255.761719 216.652344 L 255.761719 271.257812 L 272.777344 271.257812 L 272.777344 255.347656 C 272.777344 247.78125 277.015625 240.929688 283.832031 237.472656 C 305.957031 226.246094 319.148438 202.980469 317.4375 178.1875 Z M 317.4375 178.1875 " style=" stroke:none;fill-rule:nonzero;fill:rgb(20%,22.352941%,25.098039%);fill-opacity:1;" />
<path d="M 239.222656 283.519531 L 272.777344 283.519531 L 272.777344 311.445312 L 239.222656 311.445312 Z M 239.222656 283.519531 " style=" stroke:none;fill-rule:nonzero;fill:rgb(25.490196%,28.627451%,32.156863%);fill-opacity:1;" />
<path d="M 255.761719 283.519531 L 272.777344 283.519531 L 272.777344 311.445312 L 255.761719 311.445312 Z M 255.761719 283.519531 " style=" stroke:none;fill-rule:nonzero;fill:rgb(20%,22.352941%,25.098039%);fill-opacity:1;" />
<path d="M 90.5 354.9375 L 421.5 354.9375 L 421.5 388.363281 L 90.5 388.363281 Z M 90.5 354.9375 " style=" stroke:none;fill-rule:nonzero;fill:rgb(86.27451%,88.235294%,92.156863%);fill-opacity:1;" />
<path d="M 255.761719 354.9375 L 421.5 354.9375 L 421.5 388.363281 L 255.761719 388.363281 Z M 255.761719 354.9375 " style=" stroke:none;fill-rule:nonzero;fill:rgb(80.392157%,82.352941%,88.235294%);fill-opacity:1;" />
</g>
</svg>