<?xml version="1.0" encoding="iso-8859-1"?>
<!-- Generator: Adobe Illustrator 19.0.0, SVG Export Plug-In . SVG Version: 6.00 Build 0)  -->
<svg xmlns="http://www.w3.org/2000/svg" xmlns:xlink="http://www.w3.org/1999/xlink" version="1.1" id="Capa_1" x="0px" y="0px" viewBox="0 0 512.007 512.007" style="enable-background:new 0 0 512.007 512.007;" xml:space="preserve">
<circle style="fill:#69C4D2;" cx="256.003" cy="256.003" r="256.003"/>
<path style="fill:#38979E;" d="M512,256c0-3.471-0.089-6.921-0.226-10.359l-84.067-84.067H85.279v34.668l52.654,52.654v40.404  l206.869,206.869C442.414,460.065,512,366.163,512,256z"/>
<rect x="137.934" y="196.239" style="fill:#3E3E42;" width="237.124" height="93.057"/>
<rect x="256.447" y="196.239" style="fill:#2D2E30;" width="118.611" height="93.057"/>
<rect x="85.279" y="161.576" style="fill:#57565C;" width="342.426" height="34.664"/>
<rect x="256.447" y="161.576" style="fill:#3E3E42;" width="171.257" height="34.664"/>
<rect x="316.142" y="161.576" style="fill:#E25F3F;" width="19.718" height="174.284"/>
<path style="fill:#A2482A;" d="M347.358,416.041h-42.721v-66.054c0-11.797,9.563-21.361,21.361-21.361  c11.797,0,21.361,9.564,21.361,21.361L347.358,416.041z"/>
<path style="fill:#96391A;" d="M325.998,328.626v87.415h21.361v-66.054C347.358,338.19,337.795,328.626,325.998,328.626z"/>
<g>
</g>
<g>
</g>
<g>
</g>
<g>
</g>
<g>
</g>
<g>
</g>
<g>
</g>
<g>
</g>
<g>
</g>
<g>
</g>
<g>
</g>
<g>
</g>
<g>
</g>
<g>
</g>
<g>
</g>
</svg>
