<svg height="512pt" viewBox="0 0 512 512" width="512pt" xmlns="http://www.w3.org/2000/svg"><path d="m512 256c0 141.386719-114.613281 256-256 256s-256-114.613281-256-256 114.613281-256 256-256 256 114.613281 256 256zm0 0" fill="#ff9100"/><path d="m377.828125 177.078125-100.75-100.75-7.078125 57.671875 62.871094 88.039062-4.726563 4.726563-27.625-27.625-11.066406 11.0625-108.625-108.625-4 4-29.5-29.5-44.957031 44.960937 138.125 138.125-148.125 148.125 95.539062 95.539063c21.683594 5.96875 44.511719 9.171875 68.089844 9.171875 141.386719 0 256-114.613281 256-256 0-16.140625-1.511719-31.929688-4.367188-47.242188l-80.742187-80.738281zm0 0" fill="#ff7816"/><path d="m396.789062 196.289062h-281.578124c-16.617188 0-30.027344 13.410157-30.027344 30.027344v80.738282h20.015625c0-5.605469 4.402343-10.007813 10.011719-10.007813h281.578124c5.609376 0 10.011719 4.402344 10.011719 10.007813h20.015625v-80.738282c0-16.617187-13.410156-30.027344-30.027344-30.027344zm0 0" fill="#ffe470"/><path d="m426.816406 226.316406v80.738282h-20.015625c0-5.609376-4.402343-10.011719-10.011719-10.011719h-140.789062v-100.753907h140.789062c16.617188 0 30.027344 13.410157 30.027344 30.027344zm0 0" fill="#ffd400"/><path d="m396.789062 277.027344h-281.578124c-16.617188 0-30.027344 13.410156-30.027344 30.027344v80.734374c0 8.207032 3.402344 15.816407 8.804687 21.222657 5.40625 5.402343 13.015625 8.804687 21.222657 8.804687h281.578124c16.617188 0 30.027344-13.410156 30.027344-30.027344v-80.734374c0-16.617188-13.410156-30.027344-30.027344-30.027344zm0 0" fill="#fdbf00"/><path d="m426.816406 307.054688v80.734374c0 16.617188-13.410156 30.027344-30.027344 30.027344h-140.789062v-140.789062h140.789062c16.617188 0 30.027344 13.410156 30.027344 30.027344zm0 0" fill="#ff9f00"/><path d="m346.078125 246.332031h20.019531v40.703125h-20.019531zm0 0" fill="#3e322e"/><path d="m125.886719 357.765625h80.070312v20.015625h-80.070312zm0 0" fill="#68544f"/><path d="m124.390625 174.648438-39.207031-45.988282 61.941406-52.476562 38.609375 47.003906zm0 0" fill="#53433f"/><path d="m325.664062 245.914062 101.152344-117.917968-63.5625-51.8125-77.226562 92.445312v77.285156zm0 0" fill="#79ab03"/><path d="m265.40625 196.289062h-5.402344l-79.472656-94.683593-30.425781 25.621093-.449219 14.847657-15.164062-2.035157-30.625 25.820313 67.257812 80.074219h94.882812v-39.636719zm0 0" fill="#ff4b00"/><path d="m150.105469 127.226562-15.613281 12.8125 61.054687 72.664063 15.414063-12.8125zm0 0" fill="#53433f"/><path d="m306.042969 156.253906v89.679688h-60.050781v-89.480469c.601562 0 5.203124-5.804687 10.007812-12.410156 2-2.601563 4.003906-5.203125 5.804688-7.808594h19.21875zm0 0" fill="#2fc0f0"/><path d="m306.042969 156.253906v89.679688h-50.042969v-101.890625c2-2.601563 4.003906-5.203125 5.804688-7.808594h19.21875zm0 0" fill="#0d91bd"/><path d="m285.425781 86.589844-9.410156-10.40625-9.40625 10.40625c-4.203125 4.003906-7.808594 8.609375-10.609375 13.613281-6.605469 10.808594-10.011719 23.222656-10.011719 35.832031v20.21875h60.054688v-20.21875c0-18.417968-7.40625-36.433594-20.617188-49.445312zm0 0" fill="#e7e7e7"/><path d="m306.042969 156.253906h-50.042969v-56.050781c2.804688-5.003906 6.40625-9.609375 10.609375-13.613281l9.410156-10.40625 9.40625 10.40625c13.210938 13.011718 20.621094 31.027344 20.621094 49.445312v20.21875zm0 0" fill="#d3d3d8"/><path d="m125.886719 236.324219h260.226562v20.019531h-260.226562zm0 0" fill="#68544f"/><g fill="#53433f"><path d="m256 236.324219h130.113281v20.019531h-130.113281zm0 0"/><path d="m356.089844 337.078125c-16.558594 0-30.027344-13.46875-30.027344-30.023437 0-16.558594 13.46875-30.027344 30.027344-30.027344 16.554687 0 30.023437 13.46875 30.023437 30.027344 0 16.554687-13.46875 30.023437-30.023437 30.023437zm0 0"/></g></svg>