<svg xmlns="http://www.w3.org/2000/svg" height="512pt" version="1.1" viewBox="0 0 512 512" width="512pt">
<g id="surface1">
<path d="M 512 256 C 512 397.386719 397.386719 512 256 512 C 114.613281 512 0 397.386719 0 256 C 0 114.613281 114.613281 0 256 0 C 397.386719 0 512 114.613281 512 256 Z M 512 256 " style=" stroke:none;fill-rule:nonzero;fill:rgb(100%,83.137255%,0%);fill-opacity:1;" />
<path d="M 512 256 C 512 246.269531 511.4375 236.675781 510.382812 227.230469 L 445.957031 162.804688 L 309.492188 228.578125 L 226.574219 145.664062 L 143.113281 175 L 192.359375 224.246094 L 112.132812 408.472656 L 211.855469 508.195312 C 226.199219 510.6875 240.945312 512 256 512 C 397.386719 512 512 397.386719 512 256 Z M 512 256 " style=" stroke:none;fill-rule:nonzero;fill:rgb(99.215686%,72.941176%,7.058824%);fill-opacity:1;" />
<path d="M 398.0625 301.316406 L 301.679688 317.296875 L 205.296875 301.316406 L 205.296875 190.71875 L 398.0625 190.71875 Z M 398.0625 301.316406 " style=" stroke:none;fill-rule:nonzero;fill:rgb(33.333333%,35.294118%,40%);fill-opacity:1;" />
<path d="M 301.59375 190.71875 L 301.59375 317.28125 L 301.679688 317.296875 L 398.0625 301.316406 L 398.0625 190.71875 Z M 301.59375 190.71875 " style=" stroke:none;fill-rule:nonzero;fill:rgb(25.490196%,28.627451%,32.156863%);fill-opacity:1;" />
<path d="M 425.523438 190.71875 L 435.910156 190.71875 L 435.910156 302.039062 L 425.523438 302.039062 Z M 425.523438 190.71875 " style=" stroke:none;fill-rule:nonzero;fill:rgb(33.333333%,35.294118%,40%);fill-opacity:1;" />
<path d="M 430.761719 190.71875 L 435.910156 190.71875 L 435.910156 302.039062 L 430.761719 302.039062 Z M 430.761719 190.71875 " style=" stroke:none;fill-rule:nonzero;fill:rgb(25.490196%,28.627451%,32.156863%);fill-opacity:1;" />
<path d="M 446.097656 337.195312 L 415.335938 337.195312 L 422.109375 296.546875 C 422.8125 292.339844 426.453125 289.257812 430.71875 289.257812 C 434.980469 289.257812 438.621094 292.339844 439.324219 296.546875 Z M 446.097656 337.195312 " style=" stroke:none;fill-rule:nonzero;fill:rgb(98.039216%,36.470588%,5.882353%);fill-opacity:1;" />
<path d="M 439.324219 296.546875 C 438.625 292.355469 435.007812 289.28125 430.761719 289.257812 L 430.761719 337.195312 L 446.097656 337.195312 Z M 439.324219 296.546875 " style=" stroke:none;fill-rule:nonzero;fill:rgb(93.72549%,21.960784%,0%);fill-opacity:1;" />
<path d="M 439.324219 296.546875 L 446.097656 337.195312 " style=" stroke:none;fill-rule:nonzero;fill:rgb(98.039216%,36.470588%,5.882353%);fill-opacity:1;" />
<path d="M 157.402344 162.804688 L 445.957031 162.804688 L 445.957031 203.550781 L 157.402344 203.550781 Z M 157.402344 162.804688 " style=" stroke:none;fill-rule:nonzero;fill:rgb(25.490196%,28.627451%,32.156863%);fill-opacity:1;" />
<path d="M 301.59375 162.804688 L 445.957031 162.804688 L 445.957031 203.550781 L 301.59375 203.550781 Z M 301.59375 162.804688 " style=" stroke:none;fill-rule:nonzero;fill:rgb(13.72549%,15.294118%,16.862745%);fill-opacity:1;" />
<path d="M 219.222656 242.050781 L 219.222656 152.644531 L 150.464844 152.644531 L 150.464844 242.050781 C 111.308594 256.140625 83.308594 293.605469 83.308594 337.613281 C 83.308594 393.691406 128.769531 439.148438 184.84375 439.148438 C 240.921875 439.148438 286.378906 393.691406 286.378906 337.613281 C 286.378906 293.605469 258.378906 256.140625 219.222656 242.050781 Z M 219.222656 242.050781 " style=" stroke:none;fill-rule:nonzero;fill:rgb(100%,100%,100%);fill-opacity:1;" />
<path d="M 219.222656 242.050781 L 219.222656 152.644531 L 184.332031 152.644531 L 184.332031 439.140625 C 184.503906 439.140625 184.671875 439.148438 184.84375 439.148438 C 240.921875 439.148438 286.378906 393.691406 286.378906 337.613281 C 286.378906 293.605469 258.378906 256.140625 219.222656 242.050781 Z M 219.222656 242.050781 " style=" stroke:none;fill-rule:nonzero;fill:rgb(94.901961%,96.470588%,98.823529%);fill-opacity:1;" />
<path d="M 223 309 C 202 317 178 318 159 312 C 142.398438 306.464844 125.710938 301.617188 108.960938 297.8125 C 102.835938 309.597656 99.351562 322.976562 99.351562 337.179688 C 99.351562 384.394531 137.628906 422.671875 184.84375 422.671875 C 232.0625 422.671875 270.335938 384.394531 270.335938 337.179688 C 270.335938 320.371094 265.46875 304.710938 257.089844 291.492188 C 245.617188 297.652344 234.644531 304.34375 223 309 Z M 223 309 " style=" stroke:none;fill-rule:nonzero;fill:rgb(29.019608%,47.843137%,100%);fill-opacity:1;" />
<path d="M 257.089844 291.492188 C 245.617188 297.652344 234.644531 304.34375 223 309 C 210.605469 313.722656 197.171875 315.984375 184.332031 315.828125 L 184.332031 422.660156 C 184.503906 422.660156 184.671875 422.671875 184.84375 422.671875 C 232.0625 422.671875 270.335938 384.398438 270.335938 337.179688 C 270.335938 320.371094 265.46875 304.710938 257.089844 291.492188 Z M 257.089844 291.492188 " style=" stroke:none;fill-rule:nonzero;fill:rgb(15.686275%,39.215686%,94.117647%);fill-opacity:1;" />
<path d="M 157.402344 334.867188 C 157.402344 342.527344 151.195312 348.734375 143.535156 348.734375 C 135.875 348.734375 129.667969 342.527344 129.667969 334.867188 C 129.667969 327.207031 135.875 321 143.535156 321 C 151.195312 321 157.402344 327.207031 157.402344 334.867188 Z M 157.402344 334.867188 " style=" stroke:none;fill-rule:nonzero;fill:rgb(52.941176%,78.039216%,100%);fill-opacity:1;" />
<path d="M 250 343.214844 C 250 350.875 243.792969 357.082031 236.132812 357.082031 C 228.472656 357.082031 222.265625 350.875 222.265625 343.214844 C 222.265625 335.554688 228.472656 329.347656 236.132812 329.347656 C 243.792969 329.347656 250 335.554688 250 343.214844 Z M 250 343.214844 " style=" stroke:none;fill-rule:nonzero;fill:rgb(39.607843%,69.411765%,98.823529%);fill-opacity:1;" />
<path d="M 217.535156 279.660156 C 217.535156 285.226562 213.023438 289.738281 207.460938 289.738281 C 201.894531 289.738281 197.386719 285.226562 197.386719 279.660156 C 197.386719 274.097656 201.894531 269.585938 207.460938 269.585938 C 213.023438 269.585938 217.535156 274.097656 217.535156 279.660156 Z M 217.535156 279.660156 " style=" stroke:none;fill-rule:nonzero;fill:rgb(39.607843%,69.411765%,98.823529%);fill-opacity:1;" />
<path d="M 194.929688 378.75 C 194.929688 390.714844 185.230469 400.414062 173.261719 400.414062 C 161.296875 400.414062 151.597656 390.714844 151.597656 378.75 C 151.597656 366.78125 161.296875 357.082031 173.261719 357.082031 C 185.230469 357.082031 194.929688 366.78125 194.929688 378.75 Z M 194.929688 378.75 " style=" stroke:none;fill-rule:nonzero;fill:rgb(52.941176%,78.039216%,100%);fill-opacity:1;" />
<path d="M 194.929688 378.75 C 194.929688 370.828125 190.679688 363.902344 184.335938 360.125 L 184.335938 397.371094 C 190.675781 393.59375 194.929688 386.671875 194.929688 378.75 Z M 194.929688 378.75 " style=" stroke:none;fill-rule:nonzero;fill:rgb(39.607843%,69.411765%,98.823529%);fill-opacity:1;" />
<path d="M 143.113281 145.667969 L 226.578125 145.667969 L 226.578125 175 L 143.113281 175 Z M 143.113281 145.667969 " style=" stroke:none;fill-rule:nonzero;fill:rgb(52.941176%,78.039216%,100%);fill-opacity:1;" />
<path d="M 184.332031 145.667969 L 226.574219 145.667969 L 226.574219 175 L 184.332031 175 Z M 184.332031 145.667969 " style=" stroke:none;fill-rule:nonzero;fill:rgb(39.607843%,69.411765%,98.823529%);fill-opacity:1;" />
</g>
</svg>