<?xml version="1.0" encoding="iso-8859-1"?>
<!-- Generator: Adobe Illustrator 19.0.0, SVG Export Plug-In . SVG Version: 6.00 Build 0)  -->
<svg xmlns="http://www.w3.org/2000/svg" xmlns:xlink="http://www.w3.org/1999/xlink" version="1.1" id="Capa_1" x="0px" y="0px" viewBox="0 0 512 512" style="enable-background:new 0 0 512 512;" xml:space="preserve">
<circle style="fill:#65BA70;" cx="256" cy="256" r="256"/>
<path style="fill:#488E53;" d="M113.231,386.954l124.383,124.383C243.687,511.768,249.817,512,256,512  c141.385,0,256-114.615,256-256c0-6.66-0.255-13.259-0.755-19.791L400.738,125.703h-36.103v30.195h-56.626  c-2.871-6.288-9.199-10.667-16.563-10.667c-7.364,0-13.692,4.379-16.563,10.667h-13.151c-2.993-6.557-9.449-10.667-16.563-10.666  c-7.364,0-13.692,4.379-16.563,10.666h-13.151c-2.871-6.289-9.199-10.667-16.563-10.667c-7.364,0-13.692,4.379-16.563,10.667h-2.8  l-30.195-30.195l0,0h-36.103L113.231,386.954z"/>
<g>
	<rect x="130.294" y="248.94" style="fill:#D9D8DB;" width="251.402" height="14.769"/>
	<rect x="130.294" y="202.417" style="fill:#D9D8DB;" width="251.402" height="14.769"/>
	<rect x="130.294" y="155.894" style="fill:#D9D8DB;" width="251.402" height="14.769"/>
	<rect x="130.294" y="341.986" style="fill:#D9D8DB;" width="251.402" height="14.769"/>
	<rect x="130.294" y="295.463" style="fill:#D9D8DB;" width="251.402" height="14.769"/>
</g>
<rect x="113.231" y="125.706" style="fill:#57565C;" width="36.103" height="261.248"/>
<rect x="364.633" y="125.706" style="fill:#3E3E42;" width="36.103" height="261.248"/>
<circle style="fill:#3B6EAF;" cx="198.892" cy="163.446" r="18.215"/>
<path style="fill:#2D5D92;" d="M198.892,145.231v36.431c10.06,0,18.215-8.156,18.215-18.215S208.952,145.231,198.892,145.231z"/>
<circle style="fill:#3B6EAF;" cx="245.169" cy="163.446" r="18.215"/>
<path style="fill:#2D5D92;" d="M245.169,145.231v36.431c10.06,0,18.215-8.156,18.215-18.215S255.229,145.231,245.169,145.231z"/>
<circle style="fill:#3B6EAF;" cx="198.892" cy="302.848" r="18.215"/>
<path style="fill:#2D5D92;" d="M198.892,284.636v36.431c10.06,0,18.215-8.156,18.215-18.215  C217.108,292.791,208.952,284.636,198.892,284.636z"/>
<circle style="fill:#3B6EAF;" cx="245.169" cy="302.848" r="18.215"/>
<path style="fill:#2D5D92;" d="M245.169,284.636v36.431c10.06,0,18.215-8.156,18.215-18.215  C263.385,292.791,255.229,284.636,245.169,284.636z"/>
<circle style="fill:#3B6EAF;" cx="245.169" cy="349.371" r="18.215"/>
<path style="fill:#2D5D92;" d="M245.169,331.159v36.431c10.06,0,18.215-8.156,18.215-18.215  C263.385,339.314,255.229,331.159,245.169,331.159z"/>
<circle style="fill:#3B6EAF;" cx="291.446" cy="349.371" r="18.215"/>
<path style="fill:#2D5D92;" d="M291.446,331.159v36.431c10.06,0,18.215-8.156,18.215-18.215  C309.662,339.314,301.506,331.159,291.446,331.159z"/>
<circle style="fill:#EA971E;" cx="291.446" cy="163.446" r="18.215"/>
<path style="fill:#DF871E;" d="M291.446,145.231v36.431c10.06,0,18.215-8.156,18.215-18.215S301.506,145.231,291.446,145.231z"/>
<circle style="fill:#EA971E;" cx="198.892" cy="207.754" r="18.215"/>
<path style="fill:#DF871E;" d="M198.892,189.538v36.431c10.06,0,18.215-8.156,18.215-18.215S208.952,189.538,198.892,189.538z"/>
<circle style="fill:#EA971E;" cx="245.169" cy="207.754" r="18.215"/>
<path style="fill:#DF871E;" d="M245.169,189.538v36.431c10.06,0,18.215-8.156,18.215-18.215S255.229,189.538,245.169,189.538z"/>
<circle style="fill:#EA971E;" cx="291.446" cy="207.754" r="18.215"/>
<path style="fill:#DF871E;" d="M291.446,189.538v36.431c10.06,0,18.215-8.156,18.215-18.215S301.506,189.538,291.446,189.538z"/>
<circle style="fill:#E25F3F;" cx="245.169" cy="256.325" r="18.215"/>
<path style="fill:#CC4F31;" d="M245.169,238.112v36.431c10.06,0,18.215-8.156,18.215-18.215  C263.385,246.268,255.229,238.112,245.169,238.112z"/>
<circle style="fill:#E25F3F;" cx="291.446" cy="256.325" r="18.215"/>
<path style="fill:#CC4F31;" d="M291.446,238.112v36.431c10.06,0,18.215-8.156,18.215-18.215  C309.662,246.268,301.506,238.112,291.446,238.112z"/>
<circle style="fill:#E25F3F;" cx="337.723" cy="256.325" r="18.215"/>
<path style="fill:#CC4F31;" d="M337.723,238.112v36.431c10.06,0,18.215-8.156,18.215-18.215  C355.938,246.268,347.783,238.112,337.723,238.112z"/>
<circle style="fill:#E25F3F;" cx="337.723" cy="207.754" r="18.215"/>
<path style="fill:#CC4F31;" d="M337.723,189.538v36.431c10.06,0,18.215-8.156,18.215-18.215S347.783,189.538,337.723,189.538z"/>
<g>
</g>
<g>
</g>
<g>
</g>
<g>
</g>
<g>
</g>
<g>
</g>
<g>
</g>
<g>
</g>
<g>
</g>
<g>
</g>
<g>
</g>
<g>
</g>
<g>
</g>
<g>
</g>
<g>
</g>
</svg>
