<svg xmlns="http://www.w3.org/2000/svg" height="512pt" version="1.1" viewBox="0 0 512 512" width="512pt">
<g id="surface1">
<path d="M 512 256 C 512 397.386719 397.386719 512 256 512 C 114.613281 512 0 397.386719 0 256 C 0 114.613281 114.613281 0 256 0 C 397.386719 0 512 114.613281 512 256 Z M 512 256 " style=" stroke:none;fill-rule:nonzero;fill:rgb(25.490196%,28.627451%,32.156863%);fill-opacity:1;" />
<path d="M 512 256 C 512 243.742188 511.117188 231.691406 509.453125 219.894531 L 387 97.441406 L 386.289062 99.730469 L 368 81.441406 L 196.238281 207.691406 L 152.398438 372.582031 L 113 398.558594 L 224.511719 510.070312 C 234.832031 511.335938 245.339844 512 256 512 C 397.386719 512 512 397.386719 512 256 Z M 512 256 " style=" stroke:none;fill-rule:nonzero;fill:rgb(20%,22.352941%,25.098039%);fill-opacity:1;" />
<path d="M 311 292.441406 L 368 292.441406 L 368 324.441406 L 311 324.441406 Z M 311 292.441406 " style=" stroke:none;fill-rule:nonzero;fill:rgb(91.372549%,92.941176%,96.078431%);fill-opacity:1;" />
<path d="M 311 81.441406 L 368 81.441406 L 368 113.441406 L 311 113.441406 Z M 311 81.441406 " style=" stroke:none;fill-rule:nonzero;fill:rgb(91.372549%,92.941176%,96.078431%);fill-opacity:1;" />
<path d="M 161 132.882812 L 322 132.882812 L 322 211.5 L 161 211.5 Z M 161 132.882812 " style=" stroke:none;fill-rule:nonzero;fill:rgb(100%,100%,100%);fill-opacity:1;" />
<path d="M 255.761719 132.882812 L 322 132.882812 L 322 211.5 L 255.761719 211.5 Z M 255.761719 132.882812 " style=" stroke:none;fill-rule:nonzero;fill:rgb(91.372549%,92.941176%,96.078431%);fill-opacity:1;" />
<path d="M 136 158.441406 L 198.886719 158.441406 L 198.886719 380.558594 L 136 380.558594 Z M 136 158.441406 " style=" stroke:none;fill-rule:nonzero;fill:rgb(100%,100%,100%);fill-opacity:1;" />
<path d="M 215 175.441406 C 215 203.054688 192.613281 225.441406 165 225.441406 C 137.386719 225.441406 115 203.054688 115 175.441406 C 115 147.828125 137.386719 125.441406 165 125.441406 C 192.613281 125.441406 215 147.828125 215 175.441406 Z M 215 175.441406 " style=" stroke:none;fill-rule:nonzero;fill:rgb(80.392157%,82.352941%,88.235294%);fill-opacity:1;" />
<path d="M 113 362.558594 L 402 362.558594 L 402 398.558594 L 113 398.558594 Z M 113 362.558594 " style=" stroke:none;fill-rule:nonzero;fill:rgb(80.392157%,82.352941%,88.235294%);fill-opacity:1;" />
<path d="M 255.761719 362.558594 L 402 362.558594 L 402 398.558594 L 255.761719 398.558594 Z M 255.761719 362.558594 " style=" stroke:none;fill-rule:nonzero;fill:rgb(74.509804%,76.470588%,82.352941%);fill-opacity:1;" />
<path d="M 291 97.441406 L 387 97.441406 L 387 298.441406 L 291 298.441406 Z M 291 97.441406 " style=" stroke:none;fill-rule:nonzero;fill:rgb(74.509804%,76.470588%,82.352941%);fill-opacity:1;" />
</g>
</svg>