<svg height="512pt" viewBox="0 0 512 512" width="512pt" xmlns="http://www.w3.org/2000/svg"><path d="m512 256c0 141.386719-114.613281 256-256 256s-256-114.613281-256-256 114.613281-256 256-256 256 114.613281 256 256zm0 0" fill="#ff9d49"/><path d="m511.441406 272.757812-109.847656-109.847656-283.574219 231.070313 117.171875 117.175781c6.863282.550781 13.800782.84375 20.808594.84375 135.753906 0 246.804688-105.671875 255.441406-239.242188zm0 0" fill="#ff6e1d"/><path d="m124.765625 346.746094-6.746094 6.746094c-11.136719 11.136718-11.136719 29.355468 0 40.492187l44.988281-26.996094zm0 0" fill="#f2ebd9"/><path d="m154.007812 357.992188-35.992187 35.992187c11.136719 11.132813 29.355469 11.132813 40.492187 0l6.746094-6.75zm0 0" fill="#f9dca7"/><path d="m138.261719 306.253906-13.496094 40.488282 20.246094 20.246093 44.988281-26.992187zm0 0" fill="#98d9d5"/><path d="m205.746094 373.738281-24.746094-42.738281-35.988281 35.988281 20.242187 20.246094zm0 0" fill="#6da8d6"/><path d="m307.855469 150.15625 40.488281-40.488281 26.992188 26.992187-40.488282 40.488282zm0 0" fill="#f2ebd9"/><path d="m375.339844 136.65625 26.992187 26.992188-40.488281 40.492187-26.996094-26.996094zm0 0" fill="#f9dca7"/><path d="m310.105469 134.410156-122.355469 122.359375 33.742188 51.734375 122.355468-140.351562zm0 0" fill="#f2484b"/><path d="m377.589844 201.894531-33.742188-33.742187-131.355468 131.355468 42.738281 24.742188zm0 0" fill="#d82f30"/><path d="m368.589844 129.90625 13.496094 13.5-101.222657 101.222656-13.496093-13.5zm0 0" fill="#f2ebd9"/><path d="m187.75 256.769531-49.488281 49.484375 33.742187 33.742188 33.609375-15.613282 15.878907-33.875zm0 0" fill="#d82f30"/><path d="m221.492188 290.503906 33.738281 33.742188-49.484375 49.488281-33.742188-33.742187zm0 0" fill="#bd1515"/></svg>