<?xml version="1.0" encoding="iso-8859-1"?>
<!-- Generator: Adobe Illustrator 19.0.0, SVG Export Plug-In . SVG Version: 6.00 Build 0)  -->
<svg version="1.1" id="Capa_1" xmlns="http://www.w3.org/2000/svg" xmlns:xlink="http://www.w3.org/1999/xlink" x="0px" y="0px"
	 viewBox="0 0 512 512" style="enable-background:new 0 0 512 512;" xml:space="preserve">
<circle style="fill:#006C5D;" cx="256" cy="256" r="256"/>
<path style="fill:#005B4E;" d="M510.882,279.882L278,47L109.5,396.539l113.324,113.324C233.685,511.269,244.757,512,256,512
	C389.33,512,498.835,410.067,510.882,279.882z"/>
<path style="fill:#FEE17A;" d="M278,83.098V47h-44v36.098c-55.292,10.323-97.149,58.822-97.149,117.108V371.81h238.297V200.206
	C375.149,141.92,333.292,93.421,278,83.098z"/>
<path style="fill:#FCC55F;" d="M375.149,200.206c0-58.286-41.856-106.785-97.149-117.108V47h-22.048v324.81h119.196L375.149,200.206
	L375.149,200.206z"/>
<circle style="fill:#FEE17A;" cx="256" cy="404.41" r="45.34"/>
<path style="fill:#FCC55F;" d="M256,359.071c-0.016,0-0.032,0.001-0.048,0.001v90.67c0.016,0,0.032,0.001,0.048,0.001
	c25.039,0,45.336-20.298,45.336-45.336C301.336,379.369,281.039,359.071,256,359.071z"/>
<rect x="109.5" y="335.09" style="fill:#F8A725;" width="293" height="61.45"/>
<rect x="255.95" y="335.09" style="fill:#F47F17;" width="146.55" height="61.45"/>
<g>
</g>
<g>
</g>
<g>
</g>
<g>
</g>
<g>
</g>
<g>
</g>
<g>
</g>
<g>
</g>
<g>
</g>
<g>
</g>
<g>
</g>
<g>
</g>
<g>
</g>
<g>
</g>
<g>
</g>
</svg>
