<svg height="512pt" viewBox="0 0 512 512" width="512pt" xmlns="http://www.w3.org/2000/svg"><path d="m512 256c0 141.386719-114.613281 256-256 256s-256-114.613281-256-256 114.613281-256 256-256 256 114.613281 256 256zm0 0" fill="#811c26"/><path d="m512 256c0-8.632812-.433594-17.160156-1.269531-25.570312l-98.960938-98.964844-26.113281 17.832031-10.984375-10.984375-99.671875-9.871094-19-19.136718-121.515625 32.414062-16.101563-16.304688 18.84375 99.46875-8.789062 177.808594 108.609375 108.609375c6.257813.457031 12.578125.699219 18.953125.699219 141.386719 0 256-114.613281 256-256zm0 0" fill="#442236"/><path d="m160.328125 128.441406c-17.539063 0-31.886719 14.347656-31.886719 31.890625v25.511719l108.425782 12.753906v-70.15625zm0 0" fill="#f2ebd9"/><path d="m383.558594 160.328125c0-17.539063-14.347656-31.886719-31.890625-31.886719h-108.425781v70.15625l140.316406-12.753906zm0 0" fill="#f9dca7"/><path d="m393.621094 125.414062 18.152344 6.050782-38.265626 114.804687-18.152343-6.050781zm0 0" fill="#ffb55f"/><path d="m118.378906 125.410156 38.265625 114.808594-18.152343 6.050781-38.265626-114.808593zm0 0" fill="#ffcc75"/><path d="m166.707031 109.308594v89.289062h57.402344l-12.753906-89.289062zm0 0" fill="#d82f30"/><path d="m211.355469 109.308594h44.644531v89.289062h-44.644531zm0 0" fill="#ff6e1d"/><path d="m128.441406 185.84375h127.558594v216.847656h-127.558594zm0 0" fill="#ffcc75"/><path d="m256 185.84375h127.558594v216.847656h-127.558594zm0 0" fill="#ffb55f"/><path d="m198.597656 224.109375h12.757813l12.753906 47.835937-12.753906 47.835938h-12.757813c-17.539062 0-31.890625-14.351562-31.890625-31.890625v-31.890625c0-17.539062 14.351563-31.890625 31.890625-31.890625zm0 0" fill="#d82f30"/><path d="m256 224.109375 12.757812 47.835937-12.757812 47.835938h-44.644531v-95.671875zm0 0" fill="#ff6e1d"/><path d="m300.644531 224.109375 12.757813 47.835937-12.757813 47.835938h-44.644531v-95.671875zm0 0" fill="#6da8d6"/><path d="m313.402344 224.109375h-12.757813v95.671875h12.757813c17.539062 0 31.890625-14.351562 31.890625-31.890625v-31.890625c0-17.539062-14.351563-31.890625-31.890625-31.890625zm0 0" fill="#c1e8e6"/></svg>