<svg height="512pt" viewBox="0 0 512 512" width="512pt" xmlns="http://www.w3.org/2000/svg"><path d="m512 256c0 141.386719-114.613281 256-256 256s-256-114.613281-256-256 114.613281-256 256-256 256 114.613281 256 256zm0 0" fill="#9cdd05"/><path d="m338.574219 180.472656-23.832031-23.835937-242.550782 242.554687 98.082032 98.082032c26.804687 9.527343 55.65625 14.726562 85.726562 14.726562 141.386719 0 256-114.613281 256-256 0-23.671875-3.226562-46.589844-9.242188-68.347656l-85.683593-85.679688zm0 0" fill="#79ab03"/><path d="m161.753906 405.128906-17.898437 17.898438-71.824219-23.941406 41.839844-41.839844 31.601562-.316406 11.332032 11.332031zm0 0" fill="#ff9f00"/><path d="m156.804688 368.261719 4.949218 36.867187-17.898437 17.898438-35.914063-11.96875 45.832032-45.832032zm0 0" fill="#ff7816"/><path d="m145.792969 277.445312-15.960938 15.960938c12.289063 12.289062 5.902344 41.976562-7.980469 55.863281l-7.980468 7.976563 47.882812 47.882812 7.980469-7.980468c7.179687-7.179688 18.511719-12.449219 29.527344-13.882813 11.332031-1.757813 20.90625.476563 26.332031 5.902344l15.960938-15.960938zm0 0" fill="#53433f"/><path d="m193.675781 325.324219 47.878907 47.882812-15.960938 15.960938c-5.425781-5.425781-15-7.660157-26.332031-5.902344-11.015625 1.433594-22.347657 6.703125-29.527344 13.882813l-7.980469 7.980468-23.941406-23.941406zm0 0" fill="#3e322e"/><path d="m278.105469 345.914062-36.070313-4.148437-64.640625-64.640625-4.308593-36.230469 164.550781-139.335937 56.023437 23.78125 7.023438 2.875 16.757812 53.148437zm0 0" fill="#ff7816"/><path d="m242.035156 341.765625-32.402344-32.398437 184.027344-184.027344 7.023438 2.875 16.757812 53.148437-139.335937 164.550781zm0 0" fill="#ff4b00"/><path d="m281.453125 221.582031 88.101563-88.101562 15.960937 15.960937-88.101563 88.101563zm0 0" fill="#68544f"/><path d="m278.105469 345.914062-105.019531-105.019531-51.871094 43.890625 113 113zm0 0" fill="#68544f"/><path d="m234.214844 397.785156-56.5-56.5 47.878906-47.878906 52.511719 52.507812zm0 0" fill="#53433f"/><path d="m289.433594 229.5625 88.101562-88.101562 7.980469 7.980468-88.101563 88.101563zm0 0" fill="#53433f"/><path d="m337.636719 101.5625 39.578125-39.582031 79.804687 79.800781-39.582031 39.582031zm0 0" fill="#68544f"/><path d="m417.121094 101.875 39.898437 39.902344-39.582031 39.582031-39.898438-39.902344zm0 0" fill="#53433f"/></svg>