<svg xmlns="http://www.w3.org/2000/svg" height="512pt" version="1.1" viewBox="0 0 512 512" width="512pt">
<g id="surface1">
<path d="M 512 256 C 512 397.386719 397.386719 512 256 512 C 114.613281 512 0 397.386719 0 256 C 0 114.613281 114.613281 0 256 0 C 397.386719 0 512 114.613281 512 256 Z M 512 256 " style=" stroke:none;fill-rule:nonzero;fill:rgb(99.607843%,41.568627%,8.627451%);fill-opacity:1;" />
<path d="M 512 256 C 512 238.238281 510.1875 220.902344 506.746094 204.160156 L 420.523438 117.941406 L 414.234375 145.695312 L 363.34375 94.800781 L 148.300781 425.824219 L 233.480469 511.003906 C 240.902344 511.648438 248.410156 512 256 512 C 397.386719 512 512 397.386719 512 256 Z M 512 256 " style=" stroke:none;fill-rule:nonzero;fill:rgb(94.901961%,27.058824%,0%);fill-opacity:1;" />
<path d="M 342.199219 435 L 169.800781 435 C 153.34375 435 140 421.65625 140 405.199219 L 140 115.800781 C 140 99.34375 153.34375 86 169.800781 86 L 342.199219 86 C 358.65625 86 372 99.34375 372 115.800781 L 372 405.199219 C 372 421.65625 358.65625 435 342.199219 435 Z M 342.199219 435 " style=" stroke:none;fill-rule:nonzero;fill:rgb(25.490196%,28.627451%,32.156863%);fill-opacity:1;" />
<path d="M 342.199219 86 L 255.761719 86 L 255.761719 435 L 342.199219 435 C 358.65625 435 372 421.65625 372 405.199219 L 372 115.800781 C 372 99.34375 358.65625 86 342.199219 86 Z M 342.199219 86 " style=" stroke:none;fill-rule:nonzero;fill:rgb(20%,22.352941%,25.098039%);fill-opacity:1;" />
<path d="M 165 111 L 347 111 L 347 384 L 165 384 Z M 165 111 " style=" stroke:none;fill-rule:nonzero;fill:rgb(100%,100%,100%);fill-opacity:1;" />
<path d="M 255.761719 111 L 347 111 L 347 384 L 255.761719 384 Z M 255.761719 111 " style=" stroke:none;fill-rule:nonzero;fill:rgb(91.372549%,92.941176%,96.078431%);fill-opacity:1;" />
<path d="M 268.527344 408.5 C 268.527344 415.417969 262.917969 421.027344 256 421.027344 C 249.082031 421.027344 243.472656 415.417969 243.472656 408.5 C 243.472656 401.582031 249.082031 395.972656 256 395.972656 C 262.917969 395.972656 268.527344 401.582031 268.527344 408.5 Z M 268.527344 408.5 " style=" stroke:none;fill-rule:nonzero;fill:rgb(20%,22.352941%,25.098039%);fill-opacity:1;" />
<path d="M 256 395.972656 C 255.921875 395.972656 255.84375 395.984375 255.761719 395.984375 L 255.761719 421.015625 C 255.84375 421.015625 255.921875 421.027344 256 421.027344 C 262.917969 421.027344 268.527344 415.417969 268.527344 408.5 C 268.527344 401.582031 262.917969 395.972656 256 395.972656 Z M 256 395.972656 " style=" stroke:none;fill-rule:nonzero;fill:rgb(13.72549%,15.294118%,16.862745%);fill-opacity:1;" />
<path d="M 181 132.882812 L 331 132.882812 L 331 197.941406 L 181 197.941406 Z M 181 132.882812 " style=" stroke:none;fill-rule:nonzero;fill:rgb(80.392157%,82.352941%,88.235294%);fill-opacity:1;" />
<path d="M 255.761719 132.882812 L 331 132.882812 L 331 197.941406 L 255.761719 197.941406 Z M 255.761719 132.882812 " style=" stroke:none;fill-rule:nonzero;fill:rgb(74.509804%,76.470588%,82.352941%);fill-opacity:1;" />
<path d="M 181 214.972656 L 331 214.972656 L 331 236.515625 L 181 236.515625 Z M 181 214.972656 " style=" stroke:none;fill-rule:nonzero;fill:rgb(80.392157%,82.352941%,88.235294%);fill-opacity:1;" />
<path d="M 255.761719 214.972656 L 331 214.972656 L 331 236.515625 L 255.761719 236.515625 Z M 255.761719 214.972656 " style=" stroke:none;fill-rule:nonzero;fill:rgb(74.509804%,76.470588%,82.352941%);fill-opacity:1;" />
<path d="M 181 250.132812 L 331 250.132812 L 331 271.675781 L 181 271.675781 Z M 181 250.132812 " style=" stroke:none;fill-rule:nonzero;fill:rgb(80.392157%,82.352941%,88.235294%);fill-opacity:1;" />
<path d="M 255.761719 250.132812 L 331 250.132812 L 331 271.675781 L 255.761719 271.675781 Z M 255.761719 250.132812 " style=" stroke:none;fill-rule:nonzero;fill:rgb(74.509804%,76.470588%,82.352941%);fill-opacity:1;" />
<path d="M 181 285.292969 L 331 285.292969 L 331 306.839844 L 181 306.839844 Z M 181 285.292969 " style=" stroke:none;fill-rule:nonzero;fill:rgb(80.392157%,82.352941%,88.235294%);fill-opacity:1;" />
<path d="M 255.761719 285.292969 L 331 285.292969 L 331 306.839844 L 255.761719 306.839844 Z M 255.761719 285.292969 " style=" stroke:none;fill-rule:nonzero;fill:rgb(74.509804%,76.470588%,82.352941%);fill-opacity:1;" />
<path d="M 181 320.453125 L 331 320.453125 L 331 342 L 181 342 Z M 181 320.453125 " style=" stroke:none;fill-rule:nonzero;fill:rgb(80.392157%,82.352941%,88.235294%);fill-opacity:1;" />
<path d="M 255.761719 320.457031 L 331 320.457031 L 331 342 L 255.761719 342 Z M 255.761719 320.457031 " style=" stroke:none;fill-rule:nonzero;fill:rgb(74.509804%,76.470588%,82.352941%);fill-opacity:1;" />
<path d="M 420.523438 383.058594 L 404.761719 403.058594 L 389 383.058594 L 389 117.941406 L 420.523438 117.941406 Z M 420.523438 383.058594 " style=" stroke:none;fill-rule:nonzero;fill:rgb(25.490196%,28.627451%,32.156863%);fill-opacity:1;" />
<path d="M 404.75 117.941406 L 404.75 403.042969 L 404.761719 403.058594 L 420.523438 383.058594 L 420.523438 117.941406 Z M 404.75 117.941406 " style=" stroke:none;fill-rule:nonzero;fill:rgb(20%,22.352941%,25.098039%);fill-opacity:1;" />
</g>
</svg>