<?xml version="1.0" encoding="iso-8859-1"?>
<!-- Generator: Adobe Illustrator 19.0.0, SVG Export Plug-In . SVG Version: 6.00 Build 0)  -->
<svg xmlns="http://www.w3.org/2000/svg" xmlns:xlink="http://www.w3.org/1999/xlink" version="1.1" id="Capa_1" x="0px" y="0px" viewBox="0 0 512.007 512.007" style="enable-background:new 0 0 512.007 512.007;" xml:space="preserve">
<circle style="fill:#73A8DB;" cx="256.003" cy="256.003" r="256.003"/>
<path style="fill:#497FC1;" d="M256.002,107.968c-85.433,0-155.889,65.325-164.058,148.648H71.331v69.696l185.676,185.676  c128.327-0.496,234.375-95.407,252.306-218.88L372.779,156.573l-0.004,0.004C342.905,126.57,301.588,107.968,256.002,107.968z"/>
<path style="fill:#F6D433;" d="M420.857,272.824h-68.283c0-53.25-43.322-96.572-96.572-96.572s-96.572,43.322-96.572,96.572H91.147  c0-90.902,73.954-164.855,164.855-164.855S420.857,181.921,420.857,272.824z"/>
<path style="fill:#EDA637;" d="M352.574,272.824h68.283c0-90.902-73.954-164.855-164.855-164.855v68.283  C309.252,176.252,352.574,219.573,352.574,272.824z"/>
<path style="fill:#EA971E;" d="M71.331,256.617v69.696h369.705v-69.696H71.331z"/>
<path style="fill:#C27526;" d="M256.002,256.617v69.696h185.034v-69.696H256.002z"/>
<g>
	<rect x="85.456" y="298.189" style="fill:#F4C479;" width="6.828" height="28.126"/>
	<rect x="106.367" y="312.248" style="fill:#F4C479;" width="6.828" height="14.064"/>
	<rect x="127.277" y="312.248" style="fill:#F4C479;" width="6.828" height="14.064"/>
	<rect x="148.188" y="312.248" style="fill:#F4C479;" width="6.828" height="14.064"/>
	<rect x="169.108" y="298.189" style="fill:#F4C479;" width="6.828" height="28.126"/>
	<rect x="190.019" y="312.248" style="fill:#F4C479;" width="6.828" height="14.064"/>
	<rect x="210.929" y="312.248" style="fill:#F4C479;" width="6.828" height="14.064"/>
	<rect x="231.84" y="312.248" style="fill:#F4C479;" width="6.828" height="14.064"/>
	<rect x="252.75" y="298.189" style="fill:#F4C479;" width="6.828" height="28.126"/>
	<rect x="273.661" y="312.248" style="fill:#F4C479;" width="6.828" height="14.064"/>
	<rect x="294.571" y="312.248" style="fill:#F4C479;" width="6.828" height="14.064"/>
	<rect x="315.482" y="312.248" style="fill:#F4C479;" width="6.828" height="14.064"/>
	<rect x="336.392" y="298.189" style="fill:#F4C479;" width="6.828" height="28.126"/>
	<rect x="357.312" y="312.248" style="fill:#F4C479;" width="6.828" height="14.064"/>
	<rect x="378.223" y="312.248" style="fill:#F4C479;" width="6.828" height="14.064"/>
	<rect x="399.134" y="312.248" style="fill:#F4C479;" width="6.828" height="14.064"/>
	<rect x="420.044" y="298.189" style="fill:#F4C479;" width="6.828" height="28.126"/>
</g>
<g>
</g>
<g>
</g>
<g>
</g>
<g>
</g>
<g>
</g>
<g>
</g>
<g>
</g>
<g>
</g>
<g>
</g>
<g>
</g>
<g>
</g>
<g>
</g>
<g>
</g>
<g>
</g>
<g>
</g>
</svg>
