<svg height="512pt" viewBox="0 0 512 512" width="512pt" xmlns="http://www.w3.org/2000/svg"><path d="m512 256c0 141.386719-114.613281 256-256 256s-256-114.613281-256-256 114.613281-256 256-256 256 114.613281 256 256zm0 0" fill="#9cdd05"/><path d="m335.492188 165.445312-79.363282-79.363281-26.164062 26.164063-19.703125-19.703125-13.125 13.125 19.703125 19.703125-30.984375 30.984375-19.722657-19.722657-68.121093 68.117188 117.972656 117.976562-67.070313 67.070313-.914062-.796875-50 33.003906 76.859375 76.859375c25.5 8.515625 52.777344 13.136719 81.140625 13.136719 141.386719 0 256-114.613281 256-256 0-11.75-.808594-23.308594-2.34375-34.640625l-115.039062-115.039063zm0 0" fill="#79ab03"/><path d="m236.46875 234.3125h19.6875v177.84375h-19.6875zm0 0" fill="#53433f"/><path d="m246.3125 234.3125h9.84375v177.84375h-9.84375zm0 0" fill="#3e322e"/><path d="m98 145.71875v59.0625h59.71875v-59.0625zm0 0" fill="#ff7816"/><path d="m216.78125 95.84375h19.6875v40.03125h-19.6875zm0 0" fill="#53433f"/><path d="m197.09375 86h59.0625v19.6875h-59.0625zm0 0" fill="#ff7816"/><path d="m384.78125 126.03125h-9.84375v98.4375h9.84375c27.167969 0 49.21875-22.050781 49.21875-49.21875s-22.050781-49.21875-49.21875-49.21875zm0 0" fill="#9ee2f8"/><path d="m355.25 126.03125v98.4375h-158.15625l-19.6875-29.53125v-26.773438l19.6875-42.132812zm0 0" fill="#ff7816"/><path d="m98 175.25h59.71875v29.53125h-59.71875zm0 0" fill="#ff4b00"/><path d="m177.40625 175.25h177.84375v49.21875h-158.15625l-19.6875-29.53125zm0 0" fill="#ff4b00"/><path d="m434 175.25c0 27.167969-22.050781 49.21875-49.21875 49.21875h-9.84375v-49.21875zm0 0" fill="#2fc0f0"/><path d="m335.5625 106.34375v137.8125h59.0625v-137.8125zm0 0" fill="#fdbf00"/><path d="m335.5625 175.25h59.0625v68.90625h-59.0625zm0 0" fill="#ff9f00"/><path d="m167.5625 126.03125c-16.339844 0-29.53125 13.191406-29.53125 29.53125v39.375c0 16.339844 13.191406 29.53125 29.53125 29.53125h29.53125v-98.4375zm0 0" fill="#fdbf00"/><path d="m138.03125 175.25h59.0625v49.21875h-29.53125c-16.339844 0-29.53125-13.191406-29.53125-29.53125zm0 0" fill="#ff9f00"/><path d="m246.3125 185.09375c-16.339844 0-29.53125 13.191406-29.53125 29.53125s13.191406 29.53125 29.53125 29.53125 29.53125-13.191406 29.53125-29.53125-13.191406-29.53125-29.53125-29.53125zm0 0" fill="#fdbf00"/><path d="m371.917969 405.660156-14.960938 12.992188-110.644531-129.148438-110.644531 129.148438-14.960938-12.992188 125.605469-146.476562zm0 0" fill="#53433f"/><path d="m216.78125 402.3125h59.0625v19.6875h-59.0625zm0 0" fill="#68544f"/><path d="m98 402.3125h59.71875v19.6875h-59.71875zm0 0" fill="#68544f"/><path d="m303.011719 341.085938-56.699219 44.097656-56.699219-44.097656 12.207031-15.359376 44.492188 34.652344 44.492188-34.652344zm0 0" fill="#53433f"/><path d="m303.011719 341.085938-56.699219 44.097656v-24.804688l44.492188-34.652344zm0 0" fill="#3e322e"/><path d="m246.3125 244.15625v-59.0625c16.339844 0 29.53125 13.1875 29.53125 29.53125 0 16.339844-13.191406 29.53125-29.53125 29.53125zm0 0" fill="#ff9f00"/><path d="m371.917969 405.660156-14.960938 12.992188-110.644531-129.148438v-30.320312zm0 0" fill="#3e322e"/><path d="m256.15625 214.625c0 5.511719-4.332031 9.84375-9.84375 9.84375s-9.84375-4.332031-9.84375-9.84375 4.332031-9.84375 9.84375-9.84375 9.84375 4.332031 9.84375 9.84375zm0 0" fill="#53433f"/><path d="m246.3125 224.46875v-19.6875c5.511719 0 9.84375 4.332031 9.84375 9.84375s-4.332031 9.84375-9.84375 9.84375zm0 0" fill="#3e322e"/><g fill="#53433f"><path d="m334.90625 402.3125h59.0625v19.6875h-59.0625zm0 0"/><path d="m246.3125 402.3125h29.53125v19.6875h-29.53125zm0 0"/></g></svg>