<svg xmlns="http://www.w3.org/2000/svg" height="512pt" version="1.1" viewBox="0 0 512 512" width="512pt">
<g id="surface1">
<path d="M 512 256 C 512 397.386719 397.386719 512 256 512 C 114.613281 512 0 397.386719 0 256 C 0 114.613281 114.613281 0 256 0 C 397.386719 0 512 114.613281 512 256 Z M 512 256 " style=" stroke:none;fill-rule:nonzero;fill:rgb(100%,83.137255%,0%);fill-opacity:1;" />
<path d="M 511.957031 259.492188 L 365.503906 113.039062 L 206.953125 74.355469 L 121.835938 194.59375 L 256 432.171875 L 326.109375 502.28125 C 432.339844 472.097656 510.410156 375.03125 511.957031 259.492188 Z M 511.957031 259.492188 " style=" stroke:none;fill-rule:nonzero;fill:rgb(99.215686%,72.941176%,7.058824%);fill-opacity:1;" />
<path d="M 256 61.191406 C 177.824219 61.191406 114.449219 124.566406 114.449219 202.742188 C 114.449219 334.355469 256 432.171875 256 432.171875 C 256 432.171875 397.550781 346.382812 397.550781 202.742188 C 397.550781 124.566406 334.175781 61.191406 256 61.191406 Z M 256 309.160156 C 195.523438 309.160156 146.496094 260.132812 146.496094 199.65625 C 146.496094 139.179688 195.523438 90.152344 256 90.152344 C 316.476562 90.152344 365.503906 139.179688 365.503906 199.65625 C 365.503906 260.132812 316.476562 309.160156 256 309.160156 Z M 256 309.160156 " style=" stroke:none;fill-rule:nonzero;fill:rgb(29.019608%,47.843137%,100%);fill-opacity:1;" />
<path d="M 256 61.191406 L 256 90.152344 C 316.476562 90.152344 365.503906 139.179688 365.503906 199.65625 C 365.503906 260.132812 316.476562 309.15625 256 309.15625 L 256 432.171875 C 256 432.171875 397.550781 346.382812 397.550781 202.742188 C 397.550781 124.566406 334.175781 61.191406 256 61.191406 Z M 256 61.191406 " style=" stroke:none;fill-rule:nonzero;fill:rgb(15.686275%,39.215686%,94.117647%);fill-opacity:1;" />
<path d="M 256 272.910156 C 219.65625 272.910156 190.085938 243.339844 190.085938 206.996094 L 190.085938 134.335938 L 238.566406 134.335938 L 238.566406 206.996094 C 238.566406 216.609375 246.386719 224.429688 256 224.429688 C 265.613281 224.429688 273.433594 216.609375 273.433594 206.996094 L 273.433594 134.335938 L 321.914062 134.335938 L 321.914062 206.996094 C 321.914062 243.339844 292.34375 272.910156 256 272.910156 Z M 256 272.910156 " style=" stroke:none;fill-rule:nonzero;fill:rgb(99.607843%,41.568627%,8.627451%);fill-opacity:1;" />
<path d="M 273.433594 134.332031 L 273.433594 206.996094 C 273.433594 216.609375 265.613281 224.429688 256 224.429688 L 256 272.910156 C 292.34375 272.910156 321.914062 243.339844 321.914062 206.996094 L 321.914062 134.335938 L 273.433594 134.335938 Z M 273.433594 134.332031 " style=" stroke:none;fill-rule:nonzero;fill:rgb(94.901961%,27.058824%,0%);fill-opacity:1;" />
</g>
</svg>