<?xml version="1.0" encoding="iso-8859-1"?>
<!-- Generator: Adobe Illustrator 19.0.0, SVG Export Plug-In . SVG Version: 6.00 Build 0)  -->
<svg version="1.1" id="Capa_1" xmlns="http://www.w3.org/2000/svg" xmlns:xlink="http://www.w3.org/1999/xlink" x="0px" y="0px"
	 viewBox="0 0 512 512" style="enable-background:new 0 0 512 512;" xml:space="preserve">
<circle style="fill:#FEE17A;" cx="256" cy="256" r="256"/>
<path style="fill:#FCC55F;" d="M512,256c0-14.006-1.142-27.744-3.307-41.14L380,86.167L132,420l89.707,89.707
	C232.926,511.209,244.37,512,256,512C397.385,512,512,397.385,512,256z"/>
<rect x="132" y="86.17" style="fill:#37474F;" width="248" height="333.83"/>
<rect x="255.95" y="86.17" style="fill:#263238;" width="124.05" height="333.83"/>
<rect x="152" y="104.17" style="fill:#47D7FD;" width="208" height="76.67"/>
<rect x="255.95" y="104.17" style="fill:#0FADF5;" width="104.05" height="76.67"/>
<g>
	<rect x="318.32" y="197.17" style="fill:#CED7DB;" width="41.68" height="39.651"/>
	<rect x="262.88" y="197.17" style="fill:#CED7DB;" width="41.68" height="39.651"/>
</g>
<g>
	<rect x="207.44" y="197.17" style="fill:#EBEEF0;" width="41.68" height="39.651"/>
	<rect x="152" y="197.17" style="fill:#EBEEF0;" width="41.68" height="39.651"/>
</g>
<g>
	<rect x="318.32" y="251.33" style="fill:#CED7DB;" width="41.68" height="39.651"/>
	<rect x="262.88" y="251.33" style="fill:#CED7DB;" width="41.68" height="39.651"/>
</g>
<g>
	<rect x="207.44" y="251.33" style="fill:#EBEEF0;" width="41.68" height="39.651"/>
	<rect x="152" y="251.33" style="fill:#EBEEF0;" width="41.68" height="39.651"/>
</g>
<rect x="262.88" y="305.5" style="fill:#CED7DB;" width="41.68" height="39.651"/>
<g>
	<rect x="207.44" y="305.5" style="fill:#EBEEF0;" width="41.68" height="39.651"/>
	<rect x="152" y="305.5" style="fill:#EBEEF0;" width="41.68" height="39.651"/>
</g>
<rect x="318.32" y="305.5" style="fill:#00BEA5;" width="41.68" height="93.82"/>
<rect x="262.88" y="359.67" style="fill:#CED7DB;" width="41.68" height="39.651"/>
<g>
	<rect x="207.44" y="359.67" style="fill:#EBEEF0;" width="41.68" height="39.651"/>
	<rect x="152" y="359.67" style="fill:#EBEEF0;" width="41.68" height="39.651"/>
</g>
<g>
</g>
<g>
</g>
<g>
</g>
<g>
</g>
<g>
</g>
<g>
</g>
<g>
</g>
<g>
</g>
<g>
</g>
<g>
</g>
<g>
</g>
<g>
</g>
<g>
</g>
<g>
</g>
<g>
</g>
</svg>
