<?xml version="1.0" encoding="iso-8859-1"?>
<!-- Generator: Adobe Illustrator 19.0.0, SVG Export Plug-In . SVG Version: 6.00 Build 0)  -->
<svg xmlns="http://www.w3.org/2000/svg" xmlns:xlink="http://www.w3.org/1999/xlink" version="1.1" id="Capa_1" x="0px" y="0px" viewBox="0 0 511.999 511.999" style="enable-background:new 0 0 511.999 511.999;" xml:space="preserve">
<circle style="fill:#5A7EBF;" cx="255.999" cy="255.997" r="255.997"/>
<path style="fill:#4360AC;" d="M270.936,128.058l-47.817-47.817h-54.886c0,30.549,0,337.479,0,350.255l81.423,81.423  c2.11,0.052,4.225,0.08,6.346,0.08c137.966,0,250.421-109.145,255.78-245.798l-185.96-185.96h-54.886V128.058z"/>
<rect x="168.23" y="170.466" style="fill:#FFFFFF;" width="54.89" height="231.896"/>
<rect x="168.23" y="80.241" style="fill:#E25F3F;" width="54.89" height="90.228"/>
<rect x="168.23" y="170.466" style="fill:#57565C;" width="54.89" height="28.546"/>
<rect x="168.23" y="402.352" style="fill:#E25F3F;" width="54.89" height="28.139"/>
<rect x="195.679" y="170.466" style="fill:#B5DFEC;" width="27.443" height="231.896"/>
<rect x="195.679" y="80.241" style="fill:#C94A2A;" width="27.443" height="90.228"/>
<rect x="195.679" y="170.466" style="fill:#3E3E42;" width="27.443" height="28.546"/>
<g>
	<rect x="195.679" y="402.352" style="fill:#C94A2A;" width="27.443" height="28.139"/>
	<polygon style="fill:#C94A2A;" points="251.475,237.046 231.655,237.046 231.655,135.262 207.374,135.262 207.374,115.443    251.475,115.443  "/>
</g>
<rect x="270.933" y="170.466" style="fill:#FFFFFF;" width="54.89" height="231.896"/>
<rect x="270.933" y="80.241" style="fill:#8DC652;" width="54.89" height="90.228"/>
<rect x="270.933" y="170.466" style="fill:#57565C;" width="54.89" height="28.546"/>
<rect x="270.933" y="402.352" style="fill:#8DC652;" width="54.89" height="28.139"/>
<rect x="298.383" y="170.466" style="fill:#B5DFEC;" width="27.443" height="231.896"/>
<rect x="298.383" y="80.241" style="fill:#6AAF50;" width="27.443" height="90.228"/>
<rect x="298.383" y="170.466" style="fill:#3E3E42;" width="27.443" height="28.546"/>
<g>
	<rect x="298.383" y="402.352" style="fill:#6AAF50;" width="27.443" height="28.139"/>
	<polygon style="fill:#6AAF50;" points="354.178,237.046 334.358,237.046 334.358,135.262 310.077,135.262 310.077,115.443    354.178,115.443  "/>
</g>
<g>
</g>
<g>
</g>
<g>
</g>
<g>
</g>
<g>
</g>
<g>
</g>
<g>
</g>
<g>
</g>
<g>
</g>
<g>
</g>
<g>
</g>
<g>
</g>
<g>
</g>
<g>
</g>
<g>
</g>
</svg>
