<svg height="512pt" viewBox="0 0 512 512" width="512pt" xmlns="http://www.w3.org/2000/svg"><path d="m512 256c0 141.386719-114.613281 256-256 256s-256-114.613281-256-256 114.613281-256 256-256 256 114.613281 256 256zm0 0" fill="#185f8d"/><path d="m512 256c0-7.378906-.328125-14.679688-.941406-21.898438l-118.101563-118.101562-273.914062 280 115.058593 115.058594c7.21875.613281 14.519532.941406 21.898438.941406 141.386719 0 256-114.613281 256-256zm0 0" fill="#082947"/><path d="m392.957031 116h-36.523437l-6.085938 66.957031 42.609375-12.175781zm0 0" fill="#ff6e1d"/><path d="m356.433594 170.78125-12.171875 112.609375 12.171875 112.609375h36.523437v-225.21875zm0 0" fill="#ff8430"/><path d="m356.433594 116h-36.519532l-6.089843 66.957031 42.609375-12.175781zm0 0" fill="#ff8430"/><path d="m319.914062 170.78125-60.871093 225.21875h97.390625v-225.21875zm0 0" fill="#ff9d49"/><path d="m119.042969 116v54.78125l112.609375 12.175781-12.175782-66.957031zm0 0" fill="#ffb55f"/><path d="m319.914062 116h-100.4375v66.957031l100.4375-12.175781zm0 0" fill="#ff9d49"/><path d="m119.042969 170.78125v225.21875h100.433593l12.175782-112.609375-12.175782-112.609375zm0 0" fill="#ffcc75"/><path d="m219.476562 170.78125v225.21875h39.566407l18.261719-42.609375 42.609374-18.261719v-164.347656zm0 0" fill="#ffb55f"/><path d="m259.042969 335.128906v60.871094l60.871093-60.871094zm0 0" fill="#f9dca7"/></svg>