<svg xmlns="http://www.w3.org/2000/svg" height="512pt" version="1.1" viewBox="0 0 512 512.001" width="512pt">
<g id="surface1">
<path d="M 512 256 C 512 397.386719 397.386719 512 256 512 C 114.617188 512 0 397.386719 0 256 C 0 114.613281 114.617188 0 256 0 C 397.386719 0 512 114.613281 512 256 Z M 512 256 " style=" stroke:none;fill-rule:nonzero;fill:rgb(100%,83.137255%,0%);fill-opacity:1;" />
<path d="M 512 256 C 512 246.847656 511.511719 237.8125 510.574219 228.90625 L 381.65625 99.988281 L 372.300781 179.5625 L 299.316406 106.578125 L 279.386719 189.128906 L 196.835938 106.578125 L 106.226562 380.890625 L 236.613281 511.273438 C 243.011719 511.753906 249.476562 512 256 512 C 397.386719 512 512 397.386719 512 256 Z M 512 256 " style=" stroke:none;fill-rule:nonzero;fill:rgb(99.215686%,72.941176%,7.058824%);fill-opacity:1;" />
<path d="M 106.230469 106.578125 L 196.839844 106.578125 L 196.839844 380.890625 L 106.230469 380.890625 Z M 106.230469 106.578125 " style=" stroke:none;fill-rule:nonzero;fill:rgb(29.019608%,47.843137%,100%);fill-opacity:1;" />
<path d="M 151 106.578125 L 196.839844 106.578125 L 196.839844 380.890625 L 151 380.890625 Z M 151 106.578125 " style=" stroke:none;fill-rule:nonzero;fill:rgb(15.686275%,39.215686%,94.117647%);fill-opacity:1;" />
<path d="M 125.328125 129.792969 L 177.738281 129.792969 L 177.738281 266.609375 L 125.328125 266.609375 Z M 125.328125 129.792969 " style=" stroke:none;fill-rule:nonzero;fill:rgb(100%,100%,100%);fill-opacity:1;" />
<path d="M 151 129.792969 L 177.738281 129.792969 L 177.738281 266.609375 L 151 266.609375 Z M 151 129.792969 " style=" stroke:none;fill-rule:nonzero;fill:rgb(94.901961%,96.470588%,98.823529%);fill-opacity:1;" />
<path d="M 177.738281 329.777344 C 177.738281 344.25 166.007812 355.980469 151.535156 355.980469 C 137.0625 355.980469 125.328125 344.25 125.328125 329.777344 C 125.328125 315.304688 137.0625 303.570312 151.535156 303.570312 C 166.007812 303.570312 177.738281 315.304688 177.738281 329.777344 Z M 177.738281 329.777344 " style=" stroke:none;fill-rule:nonzero;fill:rgb(100%,100%,100%);fill-opacity:1;" />
<path d="M 151.535156 303.570312 C 151.355469 303.570312 151.179688 303.582031 151 303.585938 L 151 355.96875 C 151.179688 355.972656 151.355469 355.980469 151.535156 355.980469 C 166.007812 355.980469 177.738281 344.25 177.738281 329.777344 C 177.738281 315.304688 166.007812 303.570312 151.535156 303.570312 Z M 151.535156 303.570312 " style=" stroke:none;fill-rule:nonzero;fill:rgb(94.901961%,96.470588%,98.823529%);fill-opacity:1;" />
<path d="M 293.253906 119.804688 L 381.667969 99.980469 L 441.6875 367.652344 L 353.269531 387.476562 Z M 293.253906 119.804688 " style=" stroke:none;fill-rule:nonzero;fill:rgb(29.019608%,47.843137%,100%);fill-opacity:1;" />
<path d="M 381.65625 99.988281 L 336.394531 110.136719 L 397.679688 377.515625 L 441.667969 367.65625 Z M 381.65625 99.988281 " style=" stroke:none;fill-rule:nonzero;fill:rgb(15.686275%,39.215686%,94.117647%);fill-opacity:1;" />
<path d="M 316.96875 138.28125 L 368.109375 126.8125 L 398.046875 260.320312 L 346.90625 271.785156 Z M 316.96875 138.28125 " style=" stroke:none;fill-rule:nonzero;fill:rgb(100%,100%,100%);fill-opacity:1;" />
<path d="M 398.03125 260.320312 L 368.097656 126.820312 L 341.582031 132.765625 L 372.148438 266.125 Z M 398.03125 260.320312 " style=" stroke:none;fill-rule:nonzero;fill:rgb(94.901961%,96.470588%,98.823529%);fill-opacity:1;" />
<path d="M 411.867188 321.957031 C 408.703125 307.835938 394.6875 298.953125 380.5625 302.121094 C 366.441406 305.285156 357.558594 319.300781 360.726562 333.421875 C 363.894531 347.546875 377.910156 356.425781 392.03125 353.261719 C 406.152344 350.09375 415.035156 336.078125 411.867188 321.957031 Z M 411.867188 321.957031 " style=" stroke:none;fill-rule:nonzero;fill:rgb(100%,100%,100%);fill-opacity:1;" />
<path d="M 411.847656 321.960938 C 408.683594 307.839844 394.667969 298.957031 380.546875 302.121094 C 380.5 302.132812 380.453125 302.148438 380.40625 302.15625 L 392.117188 353.238281 C 406.175781 350.023438 415.007812 336.046875 411.847656 321.960938 Z M 411.847656 321.960938 " style=" stroke:none;fill-rule:nonzero;fill:rgb(94.901961%,96.470588%,98.823529%);fill-opacity:1;" />
<path d="M 208.707031 106.578125 L 299.316406 106.578125 L 299.316406 380.890625 L 208.707031 380.890625 Z M 208.707031 106.578125 " style=" stroke:none;fill-rule:nonzero;fill:rgb(98.039216%,36.470588%,5.882353%);fill-opacity:1;" />
<path d="M 255.167969 106.578125 L 299.316406 106.578125 L 299.316406 380.890625 L 255.167969 380.890625 Z M 255.167969 106.578125 " style=" stroke:none;fill-rule:nonzero;fill:rgb(93.72549%,21.960784%,0%);fill-opacity:1;" />
<path d="M 227.808594 129.792969 L 280.21875 129.792969 L 280.21875 266.609375 L 227.808594 266.609375 Z M 227.808594 129.792969 " style=" stroke:none;fill-rule:nonzero;fill:rgb(100%,100%,100%);fill-opacity:1;" />
<path d="M 255.167969 129.792969 L 280.21875 129.792969 L 280.21875 266.609375 L 255.167969 266.609375 Z M 255.167969 129.792969 " style=" stroke:none;fill-rule:nonzero;fill:rgb(94.901961%,96.470588%,98.823529%);fill-opacity:1;" />
<path d="M 280.21875 329.777344 C 280.21875 344.25 268.484375 355.980469 254.011719 355.980469 C 239.539062 355.980469 227.808594 344.25 227.808594 329.777344 C 227.808594 315.304688 239.539062 303.570312 254.011719 303.570312 C 268.484375 303.570312 280.21875 315.304688 280.21875 329.777344 Z M 280.21875 329.777344 " style=" stroke:none;fill-rule:nonzero;fill:rgb(100%,100%,100%);fill-opacity:1;" />
<path d="M 280.21875 329.777344 C 280.21875 315.691406 269.101562 304.207031 255.167969 303.601562 L 255.167969 355.953125 C 269.101562 355.347656 280.21875 343.863281 280.21875 329.777344 Z M 280.21875 329.777344 " style=" stroke:none;fill-rule:nonzero;fill:rgb(94.901961%,96.470588%,98.823529%);fill-opacity:1;" />
</g>
</svg>