<svg height="512pt" viewBox="0 0 512 512" width="512pt" xmlns="http://www.w3.org/2000/svg"><path d="m512 256c0 141.386719-114.613281 256-256 256s-256-114.613281-256-256 114.613281-256 256-256 256 114.613281 256 256zm0 0" fill="#2fc0f0"/><path d="m512 256c0-25.128906-3.636719-49.398438-10.382812-72.34375l-86.511719-86.511719-317.792969 317.792969 86.820312 86.820312c22.800782 6.65625 46.914063 10.242188 71.867188 10.242188 141.386719 0 256-114.613281 256-256zm0 0" fill="#0d91bd"/><path d="m342.230469 388.671875-82.4375-82.4375 41.457031-49.65625 86.535156 86.539063h-45.554687zm0 0" fill="#ff4b00"/><path d="m206.621094 253.066406-82.433594-82.4375h45.554688v-45.554687l86.535156 86.535156zm0 0" fill="#ff7816"/><path d="m277.433594 319.015625-81.449219 103.523437-106.296875-106.296874 103.316406-81.65625 58.460938-10.78125-7.894532-35.230469 71.671876-97.789063c26.121093-26.425781 70.460937-23.082031 99.765624 6.222656 29.308594 29.308594 32.648438 73.648438 7.59375 98.703126l-99.003906 72.890624c-.152344-.152343-.152344-.152343-.152344-.152343l-38.117187-10.175781zm0 0" fill="#fed2a4"/><path d="m277.433594 319.015625-81.449219 103.523437-53.148437-53.148437 272.175781-272.378906c29.304687 29.304687 32.644531 73.644531 7.589843 98.703125l-99.003906 72.886718c-.152344-.152343-.152344-.152343-.152344-.152343l-38.117187-10.175781zm0 0" fill="#ffbd86"/><path d="m298.996094 291.988281c5.011718-6.835937 11.238281-13.058593 18.375-18.675781l6.074218-4.863281-2.734374-7.289063c-5.921876-16.246094-15.335938-30.824218-27.183594-42.667968-11.84375-11.84375-26.421875-21.257813-42.667969-27.179688l-7.289063-2.734375-4.859374 6.074219c-5.617188 7.136718-11.84375 13.363281-18.828126 18.523437l-27.03125 21.5625 18.527344 6.378907c13.96875 4.859374 26.421875 12.753906 36.59375 22.929687 10.175782 10.175781 18.070313 22.628906 22.929688 36.597656l6.378906 18.523438zm0 0" fill="#ff9f00"/><path d="m270.902344 300.644531c-4.855469-13.972656-12.753906-26.425781-22.929688-36.597656l45.554688-45.554687c11.847656 11.84375 21.261718 26.421874 27.183594 42.667968l2.734374 7.289063-6.074218 4.859375c-7.136719 5.617187-13.363282 11.84375-18.375 18.675781l-21.714844 27.183594zm0 0" fill="#ff7816"/><path d="m187.632812 429.371094c-25.816406 17.3125-64.082031 11.847656-90.351562-14.425782-29.308594-29.304687-32.648438-73.644531-7.59375-98.703124 25.054688-25.054688 69.398438-21.714844 98.703125 7.59375l-9.414063 53.148437zm0 0" fill="#ffbd86"/><path d="m187.632812 429.371094c-25.816406 17.3125-64.082031 11.847656-90.351562-14.425782l91.109375-91.109374-9.414063 53.148437zm0 0" fill="#f6a96c"/><path d="m188.390625 323.835938-53.148437 53.148437 52.390624 52.390625c2.882813-1.976562 5.769532-4.253906 8.351563-6.835938 25.054687-25.054687 21.714844-69.394531-7.59375-98.703124zm0 0" fill="#fed2a4"/></svg>