<svg xmlns="http://www.w3.org/2000/svg" height="512pt" version="1.1" viewBox="0 0 512 512" width="512pt">
<g id="surface1">
<path d="M 512 256 C 512 397.386719 397.386719 512 256 512 C 114.613281 512 0 397.386719 0 256 C 0 114.613281 114.613281 0 256 0 C 397.386719 0 512 114.613281 512 256 Z M 512 256 " style=" stroke:none;fill-rule:nonzero;fill:rgb(0%,92.941176%,100%);fill-opacity:1;" />
<path d="M 512 256 C 512 251.523438 511.882812 247.074219 511.65625 242.652344 L 421.023438 152.019531 L 375.621094 158.570312 L 300.324219 83.273438 L 233.140625 83.273438 L 199.085938 149.128906 L 95.046875 162.453125 L 127.785156 250 L 90.410156 359.253906 L 242.824219 511.667969 C 247.1875 511.886719 251.582031 512 256 512 C 397.386719 512 512 397.386719 512 256 Z M 512 256 " style=" stroke:none;fill-rule:nonzero;fill:rgb(2.745098%,74.509804%,90.980392%);fill-opacity:1;" />
<path d="M 256 451.488281 C 229.070312 451.488281 204.914062 429.40625 187.980469 389.300781 C 172.839844 353.441406 164.5 306.101562 164.5 256 C 164.5 205.898438 172.839844 158.558594 187.980469 122.699219 C 204.914062 82.59375 229.070312 60.511719 256 60.511719 C 282.929688 60.511719 307.085938 82.59375 324.019531 122.699219 C 339.160156 158.558594 347.5 205.898438 347.5 256 C 347.5 306.101562 339.160156 353.441406 324.019531 389.300781 C 307.085938 429.40625 282.929688 451.488281 256 451.488281 Z M 256 91.511719 C 242.726562 91.511719 227.972656 107.675781 216.539062 134.757812 C 202.972656 166.886719 195.5 209.945312 195.5 256 C 195.5 302.054688 202.972656 345.113281 216.539062 377.242188 C 227.972656 404.324219 242.726562 420.492188 256 420.492188 C 269.273438 420.492188 284.027344 404.324219 295.460938 377.242188 C 309.027344 345.113281 316.5 302.054688 316.5 256 C 316.5 209.945312 309.027344 166.886719 295.460938 134.757812 C 284.027344 107.675781 269.273438 91.511719 256 91.511719 Z M 256 91.511719 " style=" stroke:none;fill-rule:nonzero;fill:rgb(29.019608%,47.843137%,100%);fill-opacity:1;" />
<path d="M 324.019531 122.699219 C 307.085938 82.59375 282.929688 60.511719 256 60.511719 C 255.921875 60.511719 255.839844 60.515625 255.761719 60.515625 L 255.761719 91.519531 C 255.839844 91.519531 255.921875 91.511719 256 91.511719 C 269.273438 91.511719 284.027344 107.675781 295.460938 134.757812 C 309.027344 166.886719 316.5 209.945312 316.5 256 C 316.5 302.054688 309.027344 345.113281 295.460938 377.242188 C 284.027344 404.324219 269.273438 420.488281 256 420.488281 C 255.921875 420.488281 255.839844 420.480469 255.761719 420.480469 L 255.761719 451.484375 C 255.84375 451.484375 255.921875 451.488281 256 451.488281 C 282.929688 451.488281 307.085938 429.40625 324.019531 389.300781 C 339.160156 353.441406 347.5 306.101562 347.5 256 C 347.5 205.898438 339.160156 158.558594 324.019531 122.699219 Z M 324.019531 122.699219 " style=" stroke:none;fill-rule:nonzero;fill:rgb(15.686275%,39.215686%,94.117647%);fill-opacity:1;" />
<path d="M 359.367188 382.992188 C 352.457031 382.992188 345.140625 382.519531 337.433594 381.558594 C 298.804688 376.738281 253.636719 360.292969 210.25 335.242188 C 166.859375 310.191406 130.03125 279.300781 106.546875 248.257812 C 80.28125 213.539062 73.234375 181.578125 86.699219 158.253906 C 100.164062 134.933594 131.371094 125.054688 174.566406 130.441406 C 213.191406 135.261719 258.359375 151.707031 301.75 176.757812 C 345.140625 201.808594 381.96875 232.699219 405.453125 263.742188 C 431.714844 298.460938 438.765625 330.421875 425.300781 353.746094 C 414.238281 372.90625 391.191406 382.992188 359.367188 382.992188 Z M 152.464844 159.996094 C 132.765625 159.996094 118.703125 164.820312 113.546875 173.753906 C 106.910156 185.253906 113.535156 206.109375 131.269531 229.554688 C 152.3125 257.367188 185.867188 285.367188 225.75 308.394531 C 265.632812 331.421875 306.660156 346.480469 341.269531 350.796875 C 370.441406 354.433594 391.816406 349.742188 398.453125 338.246094 C 405.089844 326.75 398.464844 305.890625 380.730469 282.449219 C 359.6875 254.632812 326.132812 226.632812 286.25 203.605469 C 246.367188 180.578125 205.339844 165.519531 170.730469 161.203125 C 164.230469 160.394531 158.113281 159.996094 152.464844 159.996094 Z M 152.464844 159.996094 " style=" stroke:none;fill-rule:nonzero;fill:rgb(0%,32.54902%,74.901961%);fill-opacity:1;" />
<path d="M 405.453125 263.742188 C 381.96875 232.699219 345.140625 201.808594 301.75 176.757812 C 286.519531 167.964844 271.070312 160.238281 255.761719 153.695312 L 255.761719 187.648438 C 265.914062 192.425781 276.121094 197.757812 286.25 203.605469 C 326.132812 226.632812 359.6875 254.632812 380.730469 282.449219 C 398.464844 305.890625 405.089844 326.75 398.453125 338.246094 C 391.816406 349.742188 370.441406 354.433594 341.269531 350.796875 C 315.3125 347.558594 285.746094 338.28125 255.761719 324.128906 L 255.761719 358.105469 C 284.230469 370.3125 312.222656 378.414062 337.433594 381.558594 C 345.140625 382.519531 352.457031 382.996094 359.367188 382.992188 C 391.195312 382.992188 414.238281 372.90625 425.300781 353.746094 C 438.765625 330.421875 431.714844 298.460938 405.453125 263.742188 Z M 405.453125 263.742188 " style=" stroke:none;fill-rule:nonzero;fill:rgb(15.294118%,28.235294%,56.078431%);fill-opacity:1;" />
<path d="M 301.75 335.242188 C 258.359375 360.292969 213.195312 376.738281 174.566406 381.558594 C 166.863281 382.519531 159.539062 382.992188 152.632812 382.992188 C 120.804688 382.992188 97.761719 372.90625 86.699219 353.746094 C 73.234375 330.421875 80.28125 298.460938 106.546875 263.742188 C 130.03125 232.699219 166.859375 201.808594 210.25 176.757812 C 253.636719 151.707031 298.804688 135.261719 337.433594 130.441406 C 380.628906 125.054688 411.835938 134.933594 425.300781 158.253906 C 438.765625 181.578125 431.714844 213.539062 405.453125 248.257812 C 381.96875 279.300781 345.140625 310.191406 301.75 335.242188 M 359.535156 159.996094 C 353.886719 159.996094 347.773438 160.394531 341.269531 161.203125 C 306.660156 165.519531 265.632812 180.578125 225.75 203.605469 C 185.867188 226.632812 152.3125 254.632812 131.269531 282.449219 C 113.535156 305.890625 106.910156 326.75 113.546875 338.246094 C 120.183594 349.742188 141.5625 354.433594 170.730469 350.796875 C 205.339844 346.480469 246.367188 331.421875 286.25 308.394531 C 326.132812 285.367188 359.6875 257.367188 380.730469 229.554688 C 398.464844 206.109375 405.089844 185.253906 398.453125 173.753906 C 393.296875 164.820312 379.234375 159.996094 359.535156 159.996094 Z M 359.535156 159.996094 " style=" stroke:none;fill-rule:nonzero;fill:rgb(15.686275%,39.215686%,94.117647%);fill-opacity:1;" />
<path d="M 301.75 335.242188 C 345.136719 310.191406 381.96875 279.300781 405.453125 248.257812 C 431.714844 213.539062 438.765625 181.578125 425.300781 158.253906 C 411.835938 134.933594 380.628906 125.054688 337.433594 130.441406 C 312.222656 133.585938 284.230469 141.6875 255.761719 153.898438 L 255.761719 187.871094 C 285.746094 173.722656 315.3125 164.441406 341.269531 161.203125 C 347.769531 160.394531 353.882812 159.996094 359.535156 159.996094 C 379.234375 159.996094 393.292969 164.820312 398.453125 173.753906 C 405.089844 185.253906 398.464844 206.109375 380.730469 229.554688 C 359.6875 257.367188 326.132812 285.367188 286.25 308.394531 C 276.117188 314.242188 265.914062 319.574219 255.761719 324.351562 L 255.761719 358.304688 C 271.070312 351.761719 286.519531 344.035156 301.75 335.242188 Z M 301.75 335.242188 " style=" stroke:none;fill-rule:nonzero;fill:rgb(0%,32.54902%,74.901961%);fill-opacity:1;" />
<path d="M 298.703125 256 C 298.703125 279.585938 279.585938 298.703125 256 298.703125 C 232.414062 298.703125 213.296875 279.585938 213.296875 256 C 213.296875 232.414062 232.414062 213.296875 256 213.296875 C 279.585938 213.296875 298.703125 232.414062 298.703125 256 Z M 298.703125 256 " style=" stroke:none;fill-rule:nonzero;fill:rgb(98.039216%,36.470588%,5.882353%);fill-opacity:1;" />
<path d="M 256 213.296875 C 255.921875 213.296875 255.84375 213.304688 255.761719 213.304688 L 255.761719 298.699219 C 255.84375 298.699219 255.921875 298.703125 256 298.703125 C 279.585938 298.703125 298.703125 279.585938 298.703125 256 C 298.703125 232.417969 279.585938 213.296875 256 213.296875 Z M 256 213.296875 " style=" stroke:none;fill-rule:nonzero;fill:rgb(93.72549%,21.960784%,0%);fill-opacity:1;" />
</g>
</svg>