<svg height="512pt" viewBox="0 0 512 512" width="512pt" xmlns="http://www.w3.org/2000/svg"><path d="m512 256c0 141.386719-114.613281 256-256 256s-256-114.613281-256-256 114.613281-256 256-256 256 114.613281 256 256zm0 0" fill="#f2484b"/><path d="m512 256c0-6.84375-.277344-13.625-.804688-20.335938l-123.691406-123.691406-263.007812 288.054688 111.171875 111.167968c6.707031.527344 13.488281.804688 20.332031.804688 141.386719 0 256-114.613281 256-256zm0 0" fill="#bd1515"/><path d="m256 111.972656h131.503906v288.054688h-131.503906zm0 0" fill="#6da8d6"/><path d="m124.496094 111.972656h131.503906v288.054688h-131.503906zm0 0" fill="#a7cbe6"/><path d="m162.070312 249.738281h37.570313v37.570313h-37.570313zm0 0" fill="#6da8d6"/><path d="m237.214844 249.738281v37.570313h18.785156l6.261719-18.785156-6.261719-18.785157zm0 0" fill="#6da8d6"/><path d="m256 249.738281h18.785156v37.570313h-18.785156zm0 0" fill="#4284b2"/><path d="m237.214844 324.882812v37.570313h18.785156l6.261719-18.785156-6.261719-18.785157zm0 0" fill="#6da8d6"/><path d="m256 324.882812h18.785156v37.570313h-18.785156zm0 0" fill="#4284b2"/><path d="m162.070312 324.882812h37.570313v37.570313h-37.570313zm0 0" fill="#6da8d6"/><path d="m312.359375 287.308594h37.570313v75.144531h-37.570313zm0 0" fill="#185f8d"/><path d="m256 212.164062h-93.929688v-62.617187h93.929688l12.523438 31.308594zm0 0" fill="#fff"/><path d="m256 149.546875h93.929688v62.617187h-93.929688zm0 0" fill="#ffcc75"/><path d="m312.359375 240.34375h37.570313v18.789062h-37.570313zm0 0" fill="#f2484b"/></svg>