<svg xmlns="http://www.w3.org/2000/svg" height="512pt" version="1.1" viewBox="0 0 512 512" width="512pt">
<g id="surface1">
<path d="M 512 256 C 512 397.386719 397.386719 512 256 512 C 114.613281 512 0 397.386719 0 256 C 0 114.613281 114.613281 0 256 0 C 397.386719 0 512 114.613281 512 256 Z M 512 256 " style=" stroke:none;fill-rule:nonzero;fill:rgb(29.019608%,47.843137%,100%);fill-opacity:1;" />
<path d="M 511.445312 272.691406 L 443.734375 204.980469 L 439.410156 209.898438 L 412.203125 182.691406 L 408.195312 215.613281 L 256 63.421875 L 234.058594 205.910156 L 176.449219 148.304688 L 171.050781 150.195312 L 155.539062 134.6875 L 90.203125 178.515625 L 246.695312 335.007812 L 133.214844 436.578125 L 203.160156 506.527344 C 220.214844 510.105469 237.882812 512 256 512 C 391.773438 512 502.84375 406.296875 511.445312 272.691406 Z M 511.445312 272.691406 " style=" stroke:none;fill-rule:nonzero;fill:rgb(15.686275%,39.215686%,94.117647%);fill-opacity:1;" />
<path d="M 159.957031 186.332031 C 172.4375 186.332031 182.554688 176.21875 182.554688 163.738281 C 182.554688 151.460938 172.761719 141.476562 160.5625 141.15625 C 156.054688 132.980469 147.355469 127.4375 137.359375 127.4375 C 127 127.4375 118.035156 133.394531 113.6875 142.066406 C 111.65625 141.46875 109.511719 141.140625 107.289062 141.140625 C 94.8125 141.140625 84.695312 151.257812 84.695312 163.738281 C 84.695312 176.21875 94.808594 186.332031 107.289062 186.332031 Z M 159.957031 186.332031 " style=" stroke:none;fill-rule:nonzero;fill:rgb(63.921569%,83.137255%,100%);fill-opacity:1;" />
<path d="M 419.703125 251.953125 C 436.070312 251.953125 449.339844 238.6875 449.339844 222.320312 C 449.339844 206.21875 436.496094 193.128906 420.496094 192.707031 C 414.589844 181.980469 403.179688 174.714844 390.070312 174.714844 C 376.480469 174.714844 364.726562 182.523438 359.023438 193.898438 C 356.363281 193.113281 353.550781 192.6875 350.632812 192.6875 C 334.265625 192.6875 321 205.953125 321 222.320312 C 321 238.6875 334.269531 251.953125 350.632812 251.953125 Z M 419.703125 251.953125 " style=" stroke:none;fill-rule:nonzero;fill:rgb(52.941176%,78.039216%,100%);fill-opacity:1;" />
<path d="M 203.28125 154.042969 L 308.71875 154.042969 L 308.71875 436.578125 L 203.28125 436.578125 Z M 203.28125 154.042969 " style=" stroke:none;fill-rule:nonzero;fill:rgb(100%,83.137255%,0%);fill-opacity:1;" />
<path d="M 255.410156 154.042969 L 308.71875 154.042969 L 308.71875 436.578125 L 255.410156 436.578125 Z M 255.410156 154.042969 " style=" stroke:none;fill-rule:nonzero;fill:rgb(99.215686%,72.941176%,7.058824%);fill-opacity:1;" />
<path d="M 308.71875 154.042969 L 256 63.421875 L 203.28125 154.042969 Z M 308.71875 154.042969 " style=" stroke:none;fill-rule:nonzero;fill:rgb(96.078431%,89.019608%,65.490196%);fill-opacity:1;" />
<path d="M 255.410156 64.429688 L 256 63.421875 L 308.71875 154.042969 L 255.410156 154.042969 Z M 255.410156 64.429688 " style=" stroke:none;fill-rule:nonzero;fill:rgb(96.078431%,84.705882%,50.980392%);fill-opacity:1;" />
<path d="M 256 63.421875 L 280.769531 106.003906 L 231.230469 106.003906 Z M 256 63.421875 " style=" stroke:none;fill-rule:nonzero;fill:rgb(25.490196%,28.627451%,32.156863%);fill-opacity:1;" />
<path d="M 256 63.421875 L 280.769531 106.003906 L 255.410156 106.003906 Z M 256 63.421875 " style=" stroke:none;fill-rule:nonzero;fill:rgb(13.72549%,15.294118%,16.862745%);fill-opacity:1;" />
<path d="M 203.28125 436.578125 L 133.214844 436.578125 L 133.214844 299.191406 L 203.28125 234.882812 Z M 203.28125 436.578125 " style=" stroke:none;fill-rule:nonzero;fill:rgb(100%,100%,100%);fill-opacity:1;" />
<path d="M 308.71875 436.578125 L 378.785156 436.578125 L 378.785156 299.191406 L 308.71875 234.882812 Z M 308.71875 436.578125 " style=" stroke:none;fill-rule:nonzero;fill:rgb(91.372549%,92.941176%,96.078431%);fill-opacity:1;" />
</g>
</svg>