<svg height="512pt" viewBox="0 0 512 512" width="512pt" xmlns="http://www.w3.org/2000/svg"><path d="m512 256c0 141.386719-114.613281 256-256 256s-256-114.613281-256-256 114.613281-256 256-256 256 114.613281 256 256zm0 0" fill="#77c0bc"/><path d="m507.113281 305.960938-203.789062-203.785157-90.324219 139.492188 21.5 21 32.25 57.832031-139.75 57.332031 29.082031 28.582031-7.582031 14.417969 90.597656 90.597657c5.589844.367187 11.222656.570312 16.902344.570312 124.285156 0 227.871094-88.574219 251.113281-206.039062zm0 0" fill="#3b7d84"/><path d="m234.5 91.167969c-19.789062 0-35.832031 16.042969-35.832031 35.832031v7.167969l71.667969 14.332031-14.335938-57.332031zm0 0" fill="#f2484b"/><path d="m313.332031 127c0-19.789062-16.042969-35.832031-35.832031-35.832031h-21.5v57.332031l57.332031-14.332031zm0 0" fill="#bd1515"/><path d="m234.5 227.332031h43v107.5h-43zm0 0" fill="#ffcc75"/><path d="m148.5 363.5v57.332031h107.5l14.332031-57.332031zm0 0" fill="#274b6d"/><path d="m256 363.5h107.5v57.332031h-107.5zm0 0" fill="#082947"/><path d="m162.832031 320.5c-19.789062 0-35.832031 16.042969-35.832031 35.832031v21.5h129l14.332031-28.667969-14.332031-28.664062zm0 0" fill="#ff9d49"/><path d="m385 356.332031c0-19.789062-16.042969-35.832031-35.832031-35.832031h-93.167969v57.332031h129zm0 0" fill="#ff8430"/><path d="m198.667969 134.167969 14.332031 107.5h43l14.332031-53.75-14.332031-53.75zm0 0" fill="#ff9d49"/><path d="m313.332031 134.167969h-57.332031v107.5h43zm0 0" fill="#ff8430"/></svg>