<svg height="512pt" viewBox="0 0 512 512" width="512pt" xmlns="http://www.w3.org/2000/svg"><path d="m512 256c0 141.386719-114.613281 256-256 256s-256-114.613281-256-256 114.613281-256 256-256 256 114.613281 256 256zm0 0" fill="#53433f"/><path d="m512 256c0-11.585938-.785156-22.988281-2.273438-34.164062l-108.296874-108.296876-305.148438 305.148438 80.941406 80.945312c24.820313 8.015626 51.289063 12.367188 78.777344 12.367188 141.386719 0 256-114.613281 256-256zm0 0" fill="#3e322e"/><path d="m215.269531 252.691406-119.015625 166.054688 166.054688-119.015625zm0 0" fill="#d3d3d8"/><path d="m238.789062 276.210938 23.519532 23.519531-166.054688 119.015625zm0 0" fill="#babac0"/><path d="m392.773438 163.941406-41.714844-41.714844-106.503906 71 77.214843 77.214844zm0 0" fill="#ff7816"/><path d="m321.769531 270.441406-38.605469-38.605468 88.75-88.75 20.859376 20.855468zm0 0" fill="#ff4b00"/><path d="m349.726562 61.726562-7.394531 7.398438c-20.414062 20.410156-20.414062 53.546875 0 73.960938l29.582031 29.582031c20.414063 20.414062 53.550782 20.414062 73.960938 0l7.398438-7.394531zm0 0" fill="#ff9f00"/><path d="m327.539062 246.628906-59.167968-59.167968c-17.75-17.75-38.902344-24.703126-61.386719-19.972657-18.785156 3.996094-38.015625 15.828125-56.949219 34.765625l-7.394531 7.394532 162.710937 162.710937 7.394532-7.394531c42.308594-42.304688 47.632812-85.5 14.792968-118.335938zm0 0" fill="#ff9f00"/><g fill="#ff7816"><path d="m371.914062 172.667969-14.789062-14.792969 44.375-44.375 51.773438 51.773438-7.398438 7.394531c-20.410156 20.414062-53.546875 20.414062-73.960938 0zm0 0"/><path d="m312.746094 364.964844-7.394532 7.394531-81.355468-81.355469 73.960937-73.960937 29.582031 29.585937c32.839844 32.835938 27.515626 76.03125-14.792968 118.335938zm0 0"/></g></svg>