<?xml version="1.0" encoding="iso-8859-1"?>
<!-- Generator: Adobe Illustrator 19.0.0, SVG Export Plug-In . SVG Version: 6.00 Build 0)  -->
<svg version="1.1" id="Capa_1" xmlns="http://www.w3.org/2000/svg" xmlns:xlink="http://www.w3.org/1999/xlink" x="0px" y="0px"
	 viewBox="0 0 512 512" style="enable-background:new 0 0 512 512;" xml:space="preserve">
<circle style="fill:#FD833F;" cx="256" cy="256" r="256"/>
<path style="fill:#FA5535;" d="M509.124,294.458l-63.458-84.124l-18.667,16l-99.03-133.256l-71.233,154.078L66.333,265
	l41.836,41.836L89.857,381l128.196,128.196C230.436,511.036,243.105,512,256,512C384.313,512,490.572,417.597,509.124,294.458z"/>
<rect x="397.86" y="253.67" style="fill:#4E342E;" width="24.286" height="127.33"/>
<rect x="89.86" y="253.67" style="fill:#5D4037;" width="24.286" height="127.33"/>
<rect x="184.03" y="93.08" style="fill:#4E342E;" width="143.94" height="132.24"/>
<rect x="255.94" y="93.08" style="fill:#3E2723;" width="72.03" height="132.24"/>
<rect x="169.07" y="269.18" style="fill:#6D4C41;" width="26.09" height="111.82"/>
<rect x="316.84" y="269.18" style="fill:#5D4037;" width="26.09" height="111.82"/>
<rect x="156.14" y="243.54" style="fill:#4E342E;" width="199.72" height="33.736"/>
<rect x="255.94" y="243.54" style="fill:#3E2723;" width="99.92" height="33.736"/>
<rect x="66.33" y="210.33" style="fill:#6D4C41;" width="379.33" height="54.667"/>
<rect x="255.95" y="210.33" style="fill:#5D4037;" width="189.71" height="54.667"/>
<g>
</g>
<g>
</g>
<g>
</g>
<g>
</g>
<g>
</g>
<g>
</g>
<g>
</g>
<g>
</g>
<g>
</g>
<g>
</g>
<g>
</g>
<g>
</g>
<g>
</g>
<g>
</g>
<g>
</g>
</svg>
