<svg xmlns="http://www.w3.org/2000/svg" height="512pt" version="1.1" viewBox="0 0 512 512" width="512pt">
<g id="surface1">
<path d="M 512 256 C 512 397.386719 397.386719 512 256 512 C 114.613281 512 0 397.386719 0 256 C 0 114.613281 114.613281 0 256 0 C 397.386719 0 512 114.613281 512 256 Z M 512 256 " style=" stroke:none;fill-rule:nonzero;fill:rgb(100%,83.137255%,0%);fill-opacity:1;" />
<path d="M 512 256 C 512 244.074219 511.164062 232.34375 509.585938 220.851562 L 383.492188 94.757812 L 105.324219 417.242188 L 192.019531 503.941406 C 212.46875 509.203125 233.90625 512 256 512 C 397.386719 512 512 397.386719 512 256 Z M 512 256 " style=" stroke:none;fill-rule:nonzero;fill:rgb(99.215686%,72.941176%,7.058824%);fill-opacity:1;" />
<path d="M 128.507812 94.757812 L 383.492188 94.757812 L 383.492188 417.242188 L 128.507812 417.242188 Z M 128.507812 94.757812 " style=" stroke:none;fill-rule:nonzero;fill:rgb(29.019608%,47.843137%,100%);fill-opacity:1;" />
<path d="M 255.167969 94.757812 L 383.492188 94.757812 L 383.492188 417.242188 L 255.167969 417.242188 Z M 255.167969 94.757812 " style=" stroke:none;fill-rule:nonzero;fill:rgb(15.686275%,39.215686%,94.117647%);fill-opacity:1;" />
<path d="M 105.324219 94.757812 L 128.507812 94.757812 L 128.507812 417.242188 L 105.324219 417.242188 Z M 105.324219 94.757812 " style=" stroke:none;fill-rule:nonzero;fill:rgb(0%,32.54902%,74.901961%);fill-opacity:1;" />
<path d="M 142.042969 141.113281 L 369.960938 141.113281 L 369.960938 262 L 142.042969 262 Z M 142.042969 141.113281 " style=" stroke:none;fill-rule:nonzero;fill:rgb(100%,100%,100%);fill-opacity:1;" />
<path d="M 255.167969 141.113281 L 369.960938 141.113281 L 369.960938 262 L 255.167969 262 Z M 255.167969 141.113281 " style=" stroke:none;fill-rule:nonzero;fill:rgb(94.901961%,96.470588%,98.823529%);fill-opacity:1;" />
<path d="M 148.011719 183.28125 L 162.058594 183.28125 C 164.828125 183.28125 167.066406 183.65625 168.769531 184.40625 C 170.472656 185.160156 171.882812 186.238281 172.996094 187.640625 C 174.109375 189.046875 174.917969 190.683594 175.417969 192.546875 C 175.917969 194.410156 176.167969 196.386719 176.167969 198.476562 C 176.167969 201.746094 175.796875 204.28125 175.054688 206.082031 C 174.308594 207.886719 173.273438 209.394531 171.953125 210.613281 C 170.632812 211.828125 169.210938 212.640625 167.695312 213.042969 C 165.621094 213.601562 163.742188 213.878906 162.058594 213.878906 L 148.011719 213.878906 Z M 157.464844 190.210938 L 157.464844 206.929688 L 159.78125 206.929688 C 161.757812 206.929688 163.164062 206.710938 164 206.273438 C 164.835938 205.835938 165.488281 205.066406 165.960938 203.976562 C 166.433594 202.882812 166.671875 201.113281 166.671875 198.664062 C 166.671875 195.421875 166.140625 193.203125 165.085938 192.003906 C 164.027344 190.808594 162.273438 190.210938 159.824219 190.210938 Z M 157.464844 190.210938 " style=" stroke:none;fill-rule:nonzero;fill:rgb(25.490196%,28.627451%,32.156863%);fill-opacity:1;" />
<path d="M 181.511719 183.28125 L 190.988281 183.28125 L 190.988281 213.878906 L 181.511719 213.878906 Z M 181.511719 183.28125 " style=" stroke:none;fill-rule:nonzero;fill:rgb(25.490196%,28.627451%,32.156863%);fill-opacity:1;" />
<path d="M 197.730469 183.28125 L 213.445312 183.28125 C 216.871094 183.28125 219.433594 184.09375 221.136719 185.722656 C 222.84375 187.351562 223.695312 189.667969 223.695312 192.671875 C 223.695312 195.761719 222.765625 198.175781 220.90625 199.914062 C 219.050781 201.65625 216.214844 202.523438 212.402344 202.523438 L 207.226562 202.523438 L 207.226562 213.878906 L 197.730469 213.878906 Z M 207.226562 196.324219 L 209.542969 196.324219 C 211.367188 196.324219 212.648438 196.011719 213.382812 195.375 C 214.121094 194.742188 214.488281 193.933594 214.488281 192.945312 C 214.488281 191.984375 214.171875 191.171875 213.53125 190.503906 C 212.890625 189.835938 211.6875 189.5 209.917969 189.5 L 207.226562 189.5 Z M 207.226562 196.324219 " style=" stroke:none;fill-rule:nonzero;fill:rgb(25.490196%,28.627451%,32.156863%);fill-opacity:1;" />
<path d="M 228.640625 183.28125 L 238.097656 183.28125 L 238.097656 206.34375 L 252.855469 206.34375 L 252.855469 213.878906 L 228.640625 213.878906 Z M 228.640625 183.28125 " style=" stroke:none;fill-rule:nonzero;fill:rgb(25.490196%,28.627451%,32.156863%);fill-opacity:1;" />
<path d="M 255.234375 198.601562 C 255.234375 193.605469 256.625 189.71875 259.40625 186.933594 C 262.191406 184.152344 266.066406 182.757812 271.03125 182.757812 C 276.128906 182.757812 280.050781 184.125 282.804688 186.859375 C 285.558594 189.597656 286.9375 193.425781 286.9375 198.351562 C 286.9375 201.929688 286.335938 204.859375 285.132812 207.148438 C 283.929688 209.4375 282.191406 211.21875 279.914062 212.492188 C 277.640625 213.765625 274.804688 214.402344 271.40625 214.402344 C 267.957031 214.402344 265.101562 213.851562 262.839844 212.753906 C 260.578125 211.652344 258.746094 209.914062 257.339844 207.535156 C 255.933594 205.15625 255.234375 202.175781 255.234375 198.601562 Z M 264.6875 198.644531 C 264.6875 201.730469 265.261719 203.953125 266.410156 205.300781 C 267.558594 206.652344 269.121094 207.324219 271.097656 207.324219 C 273.128906 207.324219 274.699219 206.664062 275.8125 205.34375 C 276.925781 204.019531 277.484375 201.648438 277.484375 198.226562 C 277.484375 195.34375 276.902344 193.238281 275.742188 191.910156 C 274.578125 190.582031 273.003906 189.917969 271.011719 189.917969 C 269.105469 189.917969 267.574219 190.59375 266.421875 191.941406 C 265.265625 193.292969 264.6875 195.523438 264.6875 198.644531 Z M 264.6875 198.644531 " style=" stroke:none;fill-rule:nonzero;fill:rgb(13.72549%,15.294118%,16.862745%);fill-opacity:1;" />
<path d="M 291.925781 183.28125 L 304.363281 183.28125 L 309.15625 201.898438 L 313.917969 183.28125 L 326.347656 183.28125 L 326.347656 213.878906 L 318.601562 213.878906 L 318.601562 190.542969 L 312.636719 213.878906 L 305.628906 213.878906 L 299.671875 190.542969 L 299.671875 213.878906 L 291.929688 213.878906 L 291.929688 183.28125 Z M 291.925781 183.28125 " style=" stroke:none;fill-rule:nonzero;fill:rgb(13.72549%,15.294118%,16.862745%);fill-opacity:1;" />
<path d="M 351.191406 208.828125 L 340.453125 208.828125 L 338.964844 213.878906 L 329.308594 213.878906 L 340.8125 183.28125 L 351.125 183.28125 L 362.621094 213.878906 L 352.722656 213.878906 Z M 349.230469 202.210938 L 345.851562 191.210938 L 342.507812 202.210938 Z M 349.230469 202.210938 " style=" stroke:none;fill-rule:nonzero;fill:rgb(13.72549%,15.294118%,16.862745%);fill-opacity:1;" />
</g>
</svg>