<svg xmlns="http://www.w3.org/2000/svg" height="512pt" version="1.1" viewBox="0 0 512 512" width="512pt">
<g id="surface1">
<path d="M 512 256 C 512 397.386719 397.386719 512 256 512 C 114.613281 512 0 397.386719 0 256 C 0 114.613281 114.613281 0 256 0 C 397.386719 0 512 114.613281 512 256 Z M 512 256 " style=" stroke:none;fill-rule:nonzero;fill:rgb(25.490196%,28.627451%,32.156863%);fill-opacity:1;" />
<path d="M 270.011719 511.613281 C 404.878906 504.335938 512 392.683594 512 256 C 512 238.015625 510.136719 220.472656 506.609375 203.535156 L 393.917969 90.84375 L 103.007812 284.28125 L 171.605469 352.882812 L 138.171875 379.773438 Z M 270.011719 511.613281 " style=" stroke:none;fill-rule:nonzero;fill:rgb(20%,22.352941%,25.098039%);fill-opacity:1;" />
<path d="M 138.175781 186.332031 L 429.082031 186.332031 L 429.082031 379.773438 L 377.539062 379.773438 L 377.539062 431.316406 L 316.304688 379.773438 L 138.175781 379.773438 Z M 138.175781 186.332031 " style=" stroke:none;fill-rule:nonzero;fill:rgb(100%,100%,100%);fill-opacity:1;" />
<path d="M 283.738281 186.332031 L 283.738281 379.773438 L 316.304688 379.773438 L 377.539062 431.316406 L 377.539062 379.773438 L 429.082031 379.773438 L 429.082031 186.332031 Z M 283.738281 186.332031 " style=" stroke:none;fill-rule:nonzero;fill:rgb(91.372549%,92.941176%,96.078431%);fill-opacity:1;" />
<path d="M 156.691406 242.144531 L 410.566406 242.144531 L 410.566406 263.476562 L 156.691406 263.476562 Z M 156.691406 242.144531 " style=" stroke:none;fill-rule:nonzero;fill:rgb(84.313725%,84.313725%,84.313725%);fill-opacity:1;" />
<path d="M 156.691406 283.3125 L 410.566406 283.3125 L 410.566406 304.644531 L 156.691406 304.644531 Z M 156.691406 283.3125 " style=" stroke:none;fill-rule:nonzero;fill:rgb(90.196078%,90.196078%,90.196078%);fill-opacity:1;" />
<path d="M 283.738281 283.3125 L 410.566406 283.3125 L 410.566406 304.644531 L 283.738281 304.644531 Z M 283.738281 283.3125 " style=" stroke:none;fill-rule:nonzero;fill:rgb(84.313725%,84.313725%,84.313725%);fill-opacity:1;" />
<path d="M 156.691406 327.144531 L 410.566406 327.144531 L 410.566406 348.476562 L 156.691406 348.476562 Z M 156.691406 327.144531 " style=" stroke:none;fill-rule:nonzero;fill:rgb(90.196078%,90.196078%,90.196078%);fill-opacity:1;" />
<path d="M 283.738281 327.144531 L 410.566406 327.144531 L 410.566406 348.476562 L 283.738281 348.476562 Z M 283.738281 327.144531 " style=" stroke:none;fill-rule:nonzero;fill:rgb(84.313725%,84.313725%,84.313725%);fill-opacity:1;" />
<path d="M 393.917969 90.84375 L 103.007812 90.84375 L 103.007812 284.28125 L 154.550781 284.28125 L 154.550781 335.824219 L 215.785156 284.28125 L 393.917969 284.28125 Z M 393.917969 90.84375 " style=" stroke:none;fill-rule:nonzero;fill:rgb(3.529412%,80.784314%,40.392157%);fill-opacity:1;" />
<path d="M 255.761719 90.84375 L 393.917969 90.84375 L 393.917969 284.28125 L 255.761719 284.28125 Z M 255.761719 90.84375 " style=" stroke:none;fill-rule:nonzero;fill:rgb(10.196078%,67.843137%,36.078431%);fill-opacity:1;" />
<path d="M 125.417969 114.332031 L 215.417969 114.332031 L 215.417969 244.664062 L 125.417969 244.664062 Z M 125.417969 114.332031 " style=" stroke:none;fill-rule:nonzero;fill:rgb(29.019608%,100%,57.647059%);fill-opacity:1;" />
<path d="M 173.023438 114.332031 L 215.417969 114.332031 L 215.417969 244.664062 L 173.023438 244.664062 Z M 173.023438 114.332031 " style=" stroke:none;fill-rule:nonzero;fill:rgb(8.235294%,90.980392%,45.490196%);fill-opacity:1;" />
<path d="M 238.417969 138.332031 L 361.667969 138.332031 L 361.667969 159.664062 L 238.417969 159.664062 Z M 238.417969 138.332031 " style=" stroke:none;fill-rule:nonzero;fill:rgb(29.019608%,100%,57.647059%);fill-opacity:1;" />
<path d="M 299.214844 138.332031 L 361.664062 138.332031 L 361.664062 159.664062 L 299.214844 159.664062 Z M 299.214844 138.332031 " style=" stroke:none;fill-rule:nonzero;fill:rgb(8.235294%,90.980392%,45.490196%);fill-opacity:1;" />
<path d="M 238.417969 179.5 L 361.667969 179.5 L 361.667969 200.832031 L 238.417969 200.832031 Z M 238.417969 179.5 " style=" stroke:none;fill-rule:nonzero;fill:rgb(29.019608%,100%,57.647059%);fill-opacity:1;" />
<path d="M 299.214844 179.5 L 361.664062 179.5 L 361.664062 200.832031 L 299.214844 200.832031 Z M 299.214844 179.5 " style=" stroke:none;fill-rule:nonzero;fill:rgb(8.235294%,90.980392%,45.490196%);fill-opacity:1;" />
<path d="M 238.417969 223.332031 L 361.667969 223.332031 L 361.667969 244.664062 L 238.417969 244.664062 Z M 238.417969 223.332031 " style=" stroke:none;fill-rule:nonzero;fill:rgb(29.019608%,100%,57.647059%);fill-opacity:1;" />
<path d="M 299.214844 223.332031 L 361.664062 223.332031 L 361.664062 244.664062 L 299.214844 244.664062 Z M 299.214844 223.332031 " style=" stroke:none;fill-rule:nonzero;fill:rgb(8.235294%,90.980392%,45.490196%);fill-opacity:1;" />
<path d="M 179.9375 210.742188 L 160.898438 210.742188 L 160.898438 201.714844 C 160.898438 190.210938 167.296875 179.820312 177.59375 174.59375 C 183.3125 171.695312 186.722656 165.671875 186.28125 159.25 C 185.738281 151.402344 179.414062 145.074219 171.566406 144.535156 C 167.085938 144.226562 162.824219 145.730469 159.570312 148.769531 C 156.308594 151.8125 154.515625 155.941406 154.515625 160.398438 L 135.476562 160.398438 C 135.476562 150.75 139.523438 141.4375 146.578125 134.851562 C 153.734375 128.171875 163.074219 124.863281 172.875 125.539062 C 190.152344 126.734375 204.082031 140.660156 205.273438 157.941406 C 206.246094 172.003906 198.761719 185.207031 186.207031 191.574219 C 182.339844 193.535156 179.9375 197.421875 179.9375 201.714844 Z M 179.9375 210.742188 " style=" stroke:none;fill-rule:nonzero;fill:rgb(25.490196%,28.627451%,32.156863%);fill-opacity:1;" />
<path d="M 205.273438 157.941406 C 204.085938 140.710938 190.234375 126.816406 173.023438 125.554688 L 173.023438 144.703125 C 180.183594 145.878906 185.773438 151.894531 186.28125 159.25 C 186.722656 165.671875 183.3125 171.695312 177.59375 174.59375 C 175.964844 175.421875 174.445312 176.390625 173.023438 177.457031 L 173.023438 210.742188 L 179.933594 210.742188 L 179.933594 201.714844 C 179.933594 197.421875 182.339844 193.535156 186.207031 191.574219 C 198.761719 185.207031 206.242188 172.003906 205.273438 157.941406 Z M 205.273438 157.941406 " style=" stroke:none;fill-rule:nonzero;fill:rgb(20%,22.352941%,25.098039%);fill-opacity:1;" />
<path d="M 160.898438 217.703125 L 179.9375 217.703125 L 179.9375 233.546875 L 160.898438 233.546875 Z M 160.898438 217.703125 " style=" stroke:none;fill-rule:nonzero;fill:rgb(25.490196%,28.627451%,32.156863%);fill-opacity:1;" />
<path d="M 173.023438 217.703125 L 179.9375 217.703125 L 179.9375 233.546875 L 173.023438 233.546875 Z M 173.023438 217.703125 " style=" stroke:none;fill-rule:nonzero;fill:rgb(20%,22.352941%,25.098039%);fill-opacity:1;" />
</g>
</svg>