<svg height="512pt" viewBox="0 0 512 512" width="512pt" xmlns="http://www.w3.org/2000/svg"><path d="m512 256c0 141.386719-114.613281 256-256 256s-256-114.613281-256-256 114.613281-256 256-256 256 114.613281 256 256zm0 0" fill="#2fc0f0"/><path d="m318.871094 72.628906-102.121094-.628906-25 25.25 43.363281 59.136719-8.113281 60.613281-117.808594 199 89.570313 89.570312c18.402343 4.203126 37.558593 6.429688 57.238281 6.429688 138.179688 0 250.769531-109.484375 255.804688-246.4375zm0 0" fill="#0d91bd"/><path d="m350.394531 226.511719h-188.789062c-17.410157 0-31.464844 14.054687-31.464844 31.464843v137.046876h251.71875v-137.046876c0-17.410156-14.054687-31.464843-31.464844-31.464843zm0 0" fill="#53433f"/><path d="m381.859375 257.976562v137.046876h-125.859375v-168.511719h94.394531c17.410157 0 31.464844 14.054687 31.464844 31.464843zm0 0" fill="#3e322e"/><path d="m339.484375 381.808594-10.066406 13.425781-10.277344-8.390625c-5.246094-20.980469 1.675781 4.890625-50.554687-202.566406-9.4375-43 12.796874-59.574219 27.480468-70.480469 8.597656-6.292969 12.375-9.648437 12.375-13.84375 0-9.441406 0-20.976563-52.441406-20.976563s-52.441406 11.535157-52.441406 20.976563c0 4.195313 3.777344 7.550781 12.378906 13.84375 14.683594 10.90625 36.917969 27.480469 27.476562 70.480469-11.324218 50.976562-36.5 138.796875-50.550781 202.566406l-20.558593-4.617188c14.683593-65.867187 39.644531-152.636718 50.554687-202.5625 6.710937-29.785156-5.457031-38.597656-19.507813-49.085937-9.648437-7.132813-20.769531-15.3125-20.769531-30.625 0-38.808594 37.96875-41.953125 73.417969-41.953125s73.417969 3.144531 73.417969 41.953125c0 15.3125-11.117188 23.492187-20.765625 30.625-14.054688 10.488281-26.222656 19.300781-19.507813 49.085937 1.257813 5.453126 49.292969 198.160157 50.339844 202.144532zm0 0" fill="#d3d3d8"/><path d="m339.484375 381.808594-10.066406 13.425781-10.277344-8.390625c-5.246094-20.980469 1.675781 4.890625-50.554687-202.566406-9.4375-43 12.796874-59.574219 27.480468-70.480469 8.597656-6.292969 12.375-9.648437 12.375-13.84375 0-9.441406 0-20.976563-52.441406-20.976563v-20.976562c35.449219 0 73.417969 3.144531 73.417969 41.953125 0 15.3125-11.117188 23.492187-20.765625 30.625-14.054688 10.488281-26.222656 19.300781-19.507813 49.085937 1.257813 5.453126 49.292969 198.160157 50.339844 202.144532zm0 0" fill="#babac0"/><path d="m193.070312 416h-83.90625v-31.464844c0-17.351562 14.113282-31.464844 31.464844-31.464844h20.976563c17.351562 0 31.464843 14.113282 31.464843 31.464844zm0 0" fill="#68544f"/><path d="m402.835938 416h-83.90625v-31.464844c0-17.351562 14.113281-31.464844 31.464843-31.464844h20.976563c17.351562 0 31.464844 14.113282 31.464844 31.464844zm0 0" fill="#53433f"/><path d="m266.488281 353.070312h-20.976562c-17.410157 0-31.464844 14.054688-31.464844 31.464844v31.464844h83.90625v-31.464844c0-17.410156-14.054687-31.464844-31.464844-31.464844zm0 0" fill="#68544f"/><path d="m297.953125 384.535156v31.464844h-41.953125v-62.929688h10.488281c17.410157 0 31.464844 14.054688 31.464844 31.464844zm0 0" fill="#53433f"/></svg>