<svg xmlns="http://www.w3.org/2000/svg" height="512pt" version="1.1" viewBox="0 0 512 512" width="512pt">
<g id="surface1">
<path d="M 512 256 C 512 397.386719 397.386719 512 256 512 C 114.613281 512 0 397.386719 0 256 C 0 114.613281 114.613281 0 256 0 C 397.386719 0 512 114.613281 512 256 Z M 512 256 " style=" stroke:none;fill-rule:nonzero;fill:rgb(25.490196%,28.627451%,32.156863%);fill-opacity:1;" />
<path d="M 512 256 C 512 236.878906 509.886719 218.253906 505.910156 200.328125 L 435 129.417969 L 77 370.582031 L 215.160156 508.742188 C 228.460938 510.875 242.097656 512 256 512 C 397.386719 512 512 397.386719 512 256 Z M 512 256 " style=" stroke:none;fill-rule:nonzero;fill:rgb(20%,22.352941%,25.098039%);fill-opacity:1;" />
<path d="M 77 129.417969 L 435 129.417969 L 435 370.582031 L 77 370.582031 Z M 77 129.417969 " style=" stroke:none;fill-rule:nonzero;fill:rgb(100%,100%,100%);fill-opacity:1;" />
<path d="M 256 129.417969 L 435 129.417969 L 435 370.582031 L 256 370.582031 Z M 256 129.417969 " style=" stroke:none;fill-rule:nonzero;fill:rgb(91.372549%,92.941176%,96.078431%);fill-opacity:1;" />
<path d="M 419.929688 354.5625 L 92.070312 354.5625 L 92.070312 145.4375 L 419.929688 145.4375 Z M 105.070312 341.5625 L 406.929688 341.5625 L 406.929688 158.4375 L 105.070312 158.4375 Z M 105.070312 341.5625 " style=" stroke:none;fill-rule:nonzero;fill:rgb(84.313725%,84.313725%,84.313725%);fill-opacity:1;" />
<path d="M 419.929688 145.4375 L 256 145.4375 L 256 158.4375 L 406.929688 158.4375 L 406.929688 341.5625 L 256 341.5625 L 256 354.5625 L 419.929688 354.5625 Z M 419.929688 145.4375 " style=" stroke:none;fill-rule:nonzero;fill:rgb(80.392157%,80.392157%,80.392157%);fill-opacity:1;" />
<path d="M 294.523438 447.929688 L 256 426 L 217.476562 447.929688 L 217.476562 361.144531 L 294.523438 361.144531 Z M 294.523438 447.929688 " style=" stroke:none;fill-rule:nonzero;fill:rgb(29.019608%,47.843137%,100%);fill-opacity:1;" />
<path d="M 256 361.144531 L 256 426 L 294.523438 447.929688 L 294.523438 361.144531 Z M 256 361.144531 " style=" stroke:none;fill-rule:nonzero;fill:rgb(15.686275%,39.215686%,94.117647%);fill-opacity:1;" />
<path d="M 301.5 340 C 301.5 365.128906 281.128906 385.5 256 385.5 C 230.871094 385.5 210.5 365.128906 210.5 340 C 210.5 314.871094 230.871094 294.5 256 294.5 C 281.128906 294.5 301.5 314.871094 301.5 340 Z M 301.5 340 " style=" stroke:none;fill-rule:nonzero;fill:rgb(100%,83.137255%,0%);fill-opacity:1;" />
<path d="M 256 294.5 L 256 385.5 C 281.128906 385.5 301.5 365.128906 301.5 340 C 301.5 314.871094 281.128906 294.5 256 294.5 Z M 256 294.5 " style=" stroke:none;fill-rule:nonzero;fill:rgb(99.215686%,72.941176%,7.058824%);fill-opacity:1;" />
<path d="M 129.5 193.5 L 382.5 193.5 L 382.5 217.5 L 129.5 217.5 Z M 129.5 193.5 " style=" stroke:none;fill-rule:nonzero;fill:rgb(56.862745%,58.823529%,66.666667%);fill-opacity:1;" />
<path d="M 256 193.5 L 382.5 193.5 L 382.5 217.5 L 256 217.5 Z M 256 193.5 " style=" stroke:none;fill-rule:nonzero;fill:rgb(49.411765%,52.156863%,58.823529%);fill-opacity:1;" />
<path d="M 183.910156 244 L 328.089844 244 L 328.089844 268 L 183.910156 268 Z M 183.910156 244 " style=" stroke:none;fill-rule:nonzero;fill:rgb(56.862745%,58.823529%,66.666667%);fill-opacity:1;" />
<path d="M 256 244 L 328.089844 244 L 328.089844 268 L 256 268 Z M 256 244 " style=" stroke:none;fill-rule:nonzero;fill:rgb(49.411765%,52.156863%,58.823529%);fill-opacity:1;" />
</g>
</svg>