<?xml version="1.0" encoding="iso-8859-1"?>
<!-- Generator: Adobe Illustrator 19.0.0, SVG Export Plug-In . SVG Version: 6.00 Build 0)  -->
<svg version="1.1" id="Capa_1" xmlns="http://www.w3.org/2000/svg" xmlns:xlink="http://www.w3.org/1999/xlink" x="0px" y="0px"
	 viewBox="0 0 512 512" style="enable-background:new 0 0 512 512;" xml:space="preserve">
<circle style="fill:#1B56DB;" cx="256" cy="256" r="256"/>
<path style="fill:#1149AA;" d="M511.724,267.669L425.3,181.245l-111.815,55.936l-20.832-20.833l-2.316,3.878L178.895,108.784
	l-46.671,32.765l117.938,117.938L114.165,387.592L237.93,511.357C243.9,511.773,249.923,512,256,512
	C393.473,512,505.622,403.636,511.724,267.669z"/>
<g>
	
		<rect x="320.774" y="151.513" transform="matrix(-0.3229 -0.9464 0.9464 -0.3229 219.4414 617.9722)" style="fill:#E0E0E0;" width="19.999" height="157.955"/>
	
		<rect x="241.188" y="292.152" transform="matrix(-0.8131 -0.5821 0.5821 -0.8131 405.1751 734.3871)" style="fill:#E0E0E0;" width="158.578" height="20"/>
</g>
<g>
	
		<rect x="122.811" y="179.997" transform="matrix(-0.6058 -0.7956 0.7956 -0.6058 179.2475 468.8024)" style="fill:#FFFFFF;" width="165.898" height="19.999"/>
	
		<rect x="185.508" y="228.643" transform="matrix(-0.6607 -0.7506 0.7506 -0.6607 92.5641 660.3069)" style="fill:#FFFFFF;" width="19.999" height="161.184"/>
</g>
<circle style="fill:#FFDE1F;" cx="256" cy="256" r="54"/>
<path style="fill:#F9C41E;" d="M256,202c-0.216,0-0.428,0.014-0.643,0.016v107.968c0.215,0.003,0.427,0.016,0.643,0.016
	c29.823,0,54-24.177,54-54S285.823,202,256,202z"/>
<circle style="fill:#FF8700;" cx="402.44" cy="208.31" r="35.438"/>
<path style="fill:#D36C07;" d="M402.438,172.875c-0.019,0-0.038,0.001-0.057,0.001v70.872c0.019,0,0.038,0.001,0.057,0.001
	c19.572,0,35.438-15.866,35.438-35.438S422.009,172.875,402.438,172.875z"/>
<circle style="fill:#7AE5FE;" cx="384.94" cy="348.31" r="35.438"/>
<path style="fill:#00BED2;" d="M384.938,312.875c-0.139,0-0.275,0.009-0.414,0.01v70.854c0.138,0.002,0.275,0.01,0.414,0.01
	c19.572,0,35.438-15.866,35.438-35.438S404.509,312.875,384.938,312.875z"/>
<circle style="fill:#FF8700;" cx="137.94" cy="361.31" r="35.438"/>
<path style="fill:#D36C07;" d="M137.938,325.875c-0.147,0-0.291,0.009-0.438,0.011v70.853c0.146,0.002,0.291,0.011,0.438,0.011
	c19.572,0,35.438-15.866,35.438-35.438S157.509,325.875,137.938,325.875z"/>
<circle style="fill:#FF4681;" cx="154.12" cy="123.12" r="28.625"/>
<path style="fill:#C32363;" d="M182.75,123.125c0-15.795-12.793-28.601-28.583-28.624v57.248
	C169.957,151.726,182.75,138.92,182.75,123.125z"/>
<g>
</g>
<g>
</g>
<g>
</g>
<g>
</g>
<g>
</g>
<g>
</g>
<g>
</g>
<g>
</g>
<g>
</g>
<g>
</g>
<g>
</g>
<g>
</g>
<g>
</g>
<g>
</g>
<g>
</g>
</svg>
