<svg xmlns="http://www.w3.org/2000/svg" height="512pt" version="1.1" viewBox="0 0 512 512" width="512pt">
<g id="surface1">
<path d="M 512 256 C 512 397.386719 397.386719 512 256 512 C 114.613281 512 0 397.386719 0 256 C 0 114.613281 114.613281 0 256 0 C 397.386719 0 512 114.613281 512 256 Z M 512 256 " style=" stroke:none;fill-rule:nonzero;fill:rgb(25.490196%,28.627451%,32.156863%);fill-opacity:1;" />
<path d="M 512 256 C 512 251.136719 511.851562 246.304688 511.582031 241.507812 L 442.265625 172.191406 L 422.03125 198.441406 L 315.828125 92.238281 L 312.027344 119.261719 L 276.886719 84.121094 L 262.054688 131.15625 L 234.386719 103.488281 L 229.375 177.546875 L 192.421875 140.589844 L 180.167969 360.828125 L 72.949219 392.230469 L 181.773438 501.054688 C 205.269531 508.164062 230.183594 512 256 512 C 397.386719 512 512 397.386719 512 256 Z M 512 256 " style=" stroke:none;fill-rule:nonzero;fill:rgb(13.72549%,15.294118%,16.862745%);fill-opacity:1;" />
<path d="M 296.574219 290.894531 C 296.597656 290.890625 296.609375 290.871094 296.609375 290.851562 L 296.609375 241.585938 C 296.609375 241.09375 296.625 240.605469 296.648438 240.117188 C 297.300781 227.761719 308.3125 212.710938 320.6875 212.632812 C 320.886719 212.632812 320.789062 129.492188 320.726562 103.472656 C 320.707031 94.960938 313.800781 88.078125 305.285156 88.078125 L 305.246094 88.078125 C 296.71875 88.078125 289.804688 94.992188 289.804688 103.519531 L 289.804688 219.261719 L 279.324219 219.261719 L 279.324219 92.441406 C 279.324219 83.914062 272.410156 77 263.882812 77 L 262.773438 77 C 254.246094 77 247.332031 83.914062 247.332031 92.441406 L 247.332031 228.132812 L 236.851562 228.132812 L 236.851562 111.851562 C 236.851562 103.324219 229.9375 96.410156 221.410156 96.410156 L 220.300781 96.410156 C 211.773438 96.410156 204.859375 103.324219 204.859375 111.851562 L 204.859375 239.21875 L 194.378906 239.21875 L 194.378906 148.117188 C 194.378906 139.589844 187.46875 132.675781 178.9375 132.675781 C 170.410156 132.675781 163.496094 139.589844 163.496094 148.117188 L 163.496094 354.996094 L 163.738281 354.996094 C 165.464844 374.503906 176.851562 391.230469 193.085938 400.363281 C 193.097656 400.371094 193.105469 400.382812 193.105469 400.398438 C 193.105469 400.398438 193.113281 446.984375 193.125 504.210938 C 213.242188 509.289062 234.304688 512 256 512 C 278.339844 512 300.011719 509.132812 320.667969 503.753906 C 320.679688 447.90625 320.6875 403.046875 320.6875 403.046875 C 320.6875 403.03125 320.695312 403.015625 320.710938 403.007812 C 338.050781 395.257812 350.171875 377.859375 350.171875 357.671875 L 350.171875 242.296875 C 350.171875 230.921875 340.878906 221.734375 329.503906 221.867188 C 318.316406 221.996094 309.3125 231.105469 309.3125 242.296875 L 309.3125 302.441406 C 309.3125 302.464844 309.292969 302.484375 309.269531 302.484375 L 303.402344 302.894531 C 276.308594 304.777344 254.527344 325.546875 250.59375 351.738281 " style=" stroke:none;fill-rule:nonzero;fill:rgb(100%,74.509804%,66.666667%);fill-opacity:1;" />
<path d="M 296.574219 290.894531 C 296.597656 290.890625 296.609375 290.871094 296.609375 290.851562 L 296.609375 241.585938 C 296.609375 241.09375 296.625 240.605469 296.648438 240.117188 C 297.300781 227.761719 308.3125 212.710938 320.6875 212.632812 C 320.886719 212.632812 320.789062 129.492188 320.726562 103.472656 C 320.707031 94.960938 313.800781 88.078125 305.285156 88.078125 L 305.246094 88.078125 C 296.71875 88.078125 289.804688 94.992188 289.804688 103.519531 L 289.804688 219.261719 L 279.324219 219.261719 L 279.324219 92.441406 C 279.324219 83.914062 272.410156 77 263.882812 77 L 262.773438 77 C 260.246094 77 257.867188 77.617188 255.761719 78.695312 L 255.761719 312.886719 C 266.253906 301.425781 280.484375 293.40625 296.574219 290.894531 Z M 296.574219 290.894531 " style=" stroke:none;fill-rule:nonzero;fill:rgb(98.039216%,65.098039%,55.686275%);fill-opacity:1;" />
<path d="M 329.503906 221.867188 C 318.3125 221.996094 309.308594 231.105469 309.308594 242.296875 L 309.308594 302.441406 C 309.308594 302.464844 309.292969 302.484375 309.269531 302.484375 L 303.402344 302.894531 C 282.355469 304.355469 264.523438 317.21875 255.761719 335.160156 L 255.761719 511.996094 C 255.839844 511.996094 255.921875 512 256 512 C 278.339844 512 300.011719 509.132812 320.667969 503.753906 C 320.679688 447.90625 320.6875 403.046875 320.6875 403.046875 C 320.6875 403.03125 320.695312 403.015625 320.710938 403.007812 C 338.050781 395.257812 350.171875 377.859375 350.171875 357.671875 L 350.171875 242.296875 C 350.171875 230.921875 340.878906 221.734375 329.503906 221.867188 Z M 329.503906 221.867188 " style=" stroke:none;fill-rule:nonzero;fill:rgb(98.039216%,65.098039%,55.686275%);fill-opacity:1;" />
<path d="M 450.792969 240.492188 C 329.890625 289.019531 213.1875 346.132812 100.691406 411.835938 C 55.574219 387.632812 37.300781 350.289062 45.863281 299.8125 C 166.769531 251.285156 283.472656 194.171875 395.96875 128.46875 C 441.085938 152.671875 459.359375 190.015625 450.792969 240.492188 Z M 450.792969 240.492188 " style=" stroke:none;fill-rule:nonzero;fill:rgb(100%,100%,100%);fill-opacity:1;" />
<path d="M 395.96875 128.46875 C 339.347656 161.535156 281.65625 192.425781 222.90625 221.144531 L 272.273438 319.878906 C 330.726562 291.261719 390.230469 264.800781 450.792969 240.492188 C 459.359375 190.015625 441.085938 152.671875 395.96875 128.46875 Z M 395.96875 128.46875 " style=" stroke:none;fill-rule:nonzero;fill:rgb(94.901961%,96.470588%,98.823529%);fill-opacity:1;" />
<path d="M 241.171875 335.390625 C 261.835938 324.933594 282.636719 314.75 303.570312 304.839844 L 254.828125 205.246094 C 234.160156 215.695312 213.355469 225.875 192.421875 235.777344 Z M 241.171875 335.390625 " style=" stroke:none;fill-rule:nonzero;fill:rgb(98.039216%,36.470588%,5.882353%);fill-opacity:1;" />
<path d="M 254.828125 205.246094 C 244.222656 210.613281 233.574219 215.902344 222.894531 221.121094 L 272.285156 319.902344 C 282.679688 314.816406 293.109375 309.792969 303.570312 304.839844 Z M 254.828125 205.246094 " style=" stroke:none;fill-rule:nonzero;fill:rgb(93.72549%,21.960784%,0%);fill-opacity:1;" />
<path d="M 293.664062 247.964844 C 281.320312 222.746094 250.871094 212.308594 225.652344 224.652344 C 200.4375 236.992188 190 267.441406 202.339844 292.660156 C 214.683594 317.875 245.132812 328.316406 270.347656 315.972656 C 295.566406 303.628906 306.003906 273.183594 293.664062 247.964844 Z M 293.664062 247.964844 " style=" stroke:none;fill-rule:nonzero;fill:rgb(100%,64.313725%,14.901961%);fill-opacity:1;" />
<path d="M 293.660156 247.96875 C 281.316406 222.75 250.867188 212.3125 225.652344 224.652344 C 225.382812 224.785156 225.128906 224.929688 224.863281 225.0625 L 270.324219 315.984375 C 270.332031 315.980469 270.339844 315.976562 270.34375 315.976562 C 295.5625 303.632812 306 273.1875 293.660156 247.96875 Z M 293.660156 247.96875 " style=" stroke:none;fill-rule:nonzero;fill:rgb(100%,58.431373%,0%);fill-opacity:1;" />
<path d="M 320.679688 439.023438 C 320.683594 417 320.6875 403.046875 320.6875 403.046875 C 320.6875 403.03125 320.695312 403.015625 320.710938 403.007812 C 338.050781 395.257812 350.171875 377.855469 350.171875 357.671875 L 350.171875 242.296875 C 350.171875 230.921875 340.878906 221.738281 329.503906 221.867188 C 318.316406 221.996094 309.3125 231.105469 309.3125 242.296875 L 309.3125 302.441406 C 309.3125 302.464844 309.292969 302.484375 309.269531 302.484375 L 303.402344 302.894531 C 276.308594 304.777344 254.527344 325.546875 250.59375 351.734375 Z M 320.679688 439.023438 " style=" stroke:none;fill-rule:nonzero;fill:rgb(100%,74.509804%,66.666667%);fill-opacity:1;" />
<path d="M 329.503906 221.867188 C 318.3125 221.996094 309.308594 231.105469 309.308594 242.296875 L 309.308594 302.441406 C 309.308594 302.464844 309.292969 302.484375 309.269531 302.484375 L 303.402344 302.894531 C 282.542969 304.34375 264.839844 316.992188 256 334.6875 L 256 358.46875 L 320.679688 439.023438 C 320.683594 417 320.6875 403.046875 320.6875 403.046875 C 320.6875 403.03125 320.695312 403.015625 320.710938 403.007812 C 338.050781 395.257812 350.171875 377.855469 350.171875 357.671875 L 350.171875 242.296875 C 350.171875 230.921875 340.878906 221.738281 329.503906 221.867188 Z M 329.503906 221.867188 " style=" stroke:none;fill-rule:nonzero;fill:rgb(98.039216%,65.098039%,55.686275%);fill-opacity:1;" />
</g>
</svg>