<svg height="512pt" viewBox="0 0 512 512" width="512pt" xmlns="http://www.w3.org/2000/svg"><path d="m512 256c0 141.386719-114.613281 256-256 256s-256-114.613281-256-256 114.613281-256 256-256 256 114.613281 256 256zm0 0" fill="#ff9d49"/><path d="m512 256c0-7.351562-.328125-14.628906-.933594-21.824219l-115.066406-115.066406-74.667969 15.390625-46.886719-15.390625-6-6.222656-152.445312 280.003906 118.175781 118.175781c7.195313.605469 14.472657.933594 21.824219.933594 141.386719 0 256-114.613281 256-256zm0 0" fill="#ff6e1d"/><path d="m321.332031 119.109375-12.441406 136.890625 12.441406 136.890625h74.667969v-273.78125zm0 0" fill="#185f8d"/><path d="m308.890625 156.445312h49.777344v199.109376h-49.777344zm0 0" fill="#fff"/><path d="m116 119.109375v273.78125h102.667969l12.441406-136.890625-12.441406-136.890625zm0 0" fill="#6da8d6"/><path d="m218.667969 119.109375h102.667969v273.78125h-102.667969zm0 0" fill="#4284b2"/><path d="m249.777344 112.890625h18.667968v286.21875h-18.667968zm0 0" fill="#082947"/></svg>