<?xml version="1.0" encoding="iso-8859-1"?>
<!-- Generator: Adobe Illustrator 19.0.0, SVG Export Plug-In . SVG Version: 6.00 Build 0)  -->
<svg version="1.1" id="Capa_1" xmlns="http://www.w3.org/2000/svg" xmlns:xlink="http://www.w3.org/1999/xlink" x="0px" y="0px"
	 viewBox="0 0 512 512" style="enable-background:new 0 0 512 512;" xml:space="preserve">
<circle style="fill:#006C5D;" cx="256" cy="256" r="256"/>
<path style="fill:#005B4E;" d="M512,256c0-8.517-0.426-16.935-1.239-25.239L393.5,113.5l-2.618,81.239l-52.062-52.062L104.333,401
	l107.131,107.131C225.929,510.668,240.808,512,256,512C397.385,512,512,397.385,512,256z"/>
<polygon style="fill:#FFFFFF;" points="284.259,88.116 104.333,88.116 104.333,401 338.82,401 338.82,142.676 "/>
<polygon style="fill:#E0E0E0;" points="338.82,142.676 284.259,88.116 220.238,88.116 220.238,401 338.82,401 "/>
<polygon style="fill:#B3B3B3;" points="284.259,142.676 338.82,142.676 284.259,88.116 "/>
<polygon style="fill:#FFDE1F;" points="393.5,364.5 378.833,396.576 363.5,364.5 363.5,113.5 393.5,113.5 "/>
<polygon style="fill:#F9C41E;" points="378.5,113.5 378.5,395.879 378.833,396.576 393.5,364.5 393.5,113.5 "/>
<polygon style="fill:#FFFFFF;" points="393.5,364.5 378.833,396.576 363.5,364.5 "/>
<polygon style="fill:#E0E0E0;" points="378.833,396.576 393.5,364.5 378.5,364.5 "/>
<polygon style="fill:#4D4D4D;" points="386.012,380.875 371.328,380.875 378.833,396.576 "/>
<polygon style="fill:#333333;" points="378.833,396.576 386.012,380.875 378.792,380.875 "/>
<rect x="133.24" y="175" style="fill:#CCCCCC;" width="176.67" height="12.667"/>
<rect x="220.24" y="175" style="fill:#B3B3B3;" width="89.67" height="12.667"/>
<rect x="133.24" y="214" style="fill:#CCCCCC;" width="176.67" height="12.667"/>
<rect x="220.24" y="214" style="fill:#B3B3B3;" width="89.67" height="12.667"/>
<rect x="133.24" y="253" style="fill:#CCCCCC;" width="176.67" height="12.667"/>
<rect x="220.24" y="253" style="fill:#B3B3B3;" width="89.67" height="12.667"/>
<rect x="133.24" y="292" style="fill:#CCCCCC;" width="176.67" height="12.667"/>
<rect x="220.24" y="292" style="fill:#B3B3B3;" width="89.67" height="12.667"/>
<rect x="133.24" y="331" style="fill:#CCCCCC;" width="72.76" height="12.667"/>
<g>
</g>
<g>
</g>
<g>
</g>
<g>
</g>
<g>
</g>
<g>
</g>
<g>
</g>
<g>
</g>
<g>
</g>
<g>
</g>
<g>
</g>
<g>
</g>
<g>
</g>
<g>
</g>
<g>
</g>
</svg>
