<?xml version="1.0" encoding="iso-8859-1"?>
<!-- Generator: Adobe Illustrator 19.0.0, SVG Export Plug-In . SVG Version: 6.00 Build 0)  -->
<svg xmlns="http://www.w3.org/2000/svg" xmlns:xlink="http://www.w3.org/1999/xlink" version="1.1" id="Capa_1" x="0px" y="0px" viewBox="0 0 512 512" style="enable-background:new 0 0 512 512;" xml:space="preserve">
<circle style="fill:#E57654;" cx="256" cy="255.997" r="255.997"/>
<path style="fill:#A2482A;" d="M335.471,91.531c-7.026,0-150.999,0-157.784,0v47.038h-18.763v21.379h-54.366  c0,12.402,0,215.033,0,222.918l128.06,128.06c7.703,0.698,15.499,1.074,23.383,1.074c138.962,0,252.057-110.722,255.892-248.757  L408.6,159.947h-4.712L335.471,91.531z"/>
<polygon style="fill:#57565C;" points="335.471,149.258 309.908,149.258 309.908,117.095 203.251,117.095 203.251,149.258   177.687,149.258 177.687,91.531 335.471,91.531 "/>
<rect x="104.562" y="198.851" style="fill:#917857;" width="304.041" height="184.014"/>
<rect x="104.562" y="159.947" style="fill:#EA971E;" width="304.041" height="97.53"/>
<rect x="256.237" y="198.851" style="fill:#67573E;" width="152.356" height="184.014"/>
<rect x="256.237" y="159.947" style="fill:#C27526;" width="152.356" height="97.53"/>
<polygon style="fill:#3E3E42;" points="256.238,117.095 309.908,117.095 309.908,149.258 335.471,149.258 335.471,91.531   256.238,91.531 "/>
<rect x="158.924" y="230.429" style="fill:#E1E1E3;" width="42.948" height="60.433"/>
<g>
	<rect x="180.483" y="230.429" style="fill:#ACACB2;" width="21.388" height="60.433"/>
	<rect x="311.29" y="230.429" style="fill:#ACACB2;" width="42.948" height="60.433"/>
</g>
<rect x="332.849" y="230.429" style="fill:#8A8A91;" width="21.388" height="60.433"/>
<rect x="158.924" y="138.566" style="fill:#797882;" width="63.088" height="21.379"/>
<rect x="190.523" y="138.566" style="fill:#57565C;" width="31.486" height="21.379"/>
<rect x="291.142" y="138.566" style="fill:#797882;" width="63.088" height="21.379"/>
<rect x="322.889" y="138.566" style="fill:#57565C;" width="31.341" height="21.379"/>
<g>
</g>
<g>
</g>
<g>
</g>
<g>
</g>
<g>
</g>
<g>
</g>
<g>
</g>
<g>
</g>
<g>
</g>
<g>
</g>
<g>
</g>
<g>
</g>
<g>
</g>
<g>
</g>
<g>
</g>
</svg>
