<svg xmlns="http://www.w3.org/2000/svg" height="512pt" version="1.1" viewBox="0 0 512 512" width="512pt">
<g id="surface1">
<path d="M 512 256 C 512 397.386719 397.386719 512 256 512 C 114.613281 512 0 397.386719 0 256 C 0 114.613281 114.613281 0 256 0 C 397.386719 0 512 114.613281 512 256 Z M 512 256 " style=" stroke:none;fill-rule:nonzero;fill:rgb(29.019608%,47.843137%,100%);fill-opacity:1;" />
<path d="M 512 256 C 512 229.132812 507.851562 203.234375 500.175781 178.902344 L 425 103.726562 L 87 337.214844 L 125.261719 375.476562 L 102.644531 381.21875 L 232.640625 510.929688 C 240.335938 511.625 248.125 512 256 512 C 397.386719 512 512 397.386719 512 256 Z M 512 256 " style=" stroke:none;fill-rule:nonzero;fill:rgb(15.686275%,39.215686%,94.117647%);fill-opacity:1;" />
<path d="M 193.414062 463.613281 C 187.339844 461.398438 183.296875 455.628906 183.296875 449.164062 L 183.296875 440.257812 L 140.476562 440.257812 L 140.476562 449.164062 C 140.476562 455.625 136.4375 461.398438 130.363281 463.613281 L 114.535156 469.378906 C 153.066406 494.972656 198.921875 510.414062 248.289062 511.875 L 248.292969 511.875 L 234.585938 478.609375 Z M 193.414062 463.613281 " style=" stroke:none;fill-rule:nonzero;fill:rgb(90.196078%,90.196078%,90.196078%);fill-opacity:1;" />
<path d="M 97 113.726562 L 415 113.726562 L 415 327.214844 L 97 327.214844 Z M 97 113.726562 " style=" stroke:none;fill-rule:nonzero;fill:rgb(25.490196%,28.627451%,32.156863%);fill-opacity:1;" />
<path d="M 255.761719 113.726562 L 415 113.726562 L 415 327.214844 L 255.761719 327.214844 Z M 255.761719 113.726562 " style=" stroke:none;fill-rule:nonzero;fill:rgb(20%,22.352941%,25.098039%);fill-opacity:1;" />
<path d="M 425 337.214844 L 87 337.214844 L 87 103.726562 L 425 103.726562 Z M 107 317.214844 L 405 317.214844 L 405 123.726562 L 107 123.726562 Z M 107 317.214844 " style=" stroke:none;fill-rule:nonzero;fill:rgb(86.27451%,88.235294%,92.156863%);fill-opacity:1;" />
<path d="M 425 103.726562 L 255.761719 103.726562 L 255.761719 123.726562 L 405 123.726562 L 405 317.214844 L 255.761719 317.214844 L 255.761719 337.214844 L 425 337.214844 Z M 425 103.726562 " style=" stroke:none;fill-rule:nonzero;fill:rgb(80.392157%,82.352941%,88.235294%);fill-opacity:1;" />
<path d="M 135.410156 369.746094 C 135.410156 379.902344 127.175781 388.136719 117.019531 388.136719 C 106.859375 388.136719 98.628906 379.902344 98.628906 369.746094 C 98.628906 359.589844 106.859375 351.355469 117.019531 351.355469 C 127.175781 351.355469 135.410156 359.589844 135.410156 369.746094 Z M 135.410156 369.746094 " style=" stroke:none;fill-rule:nonzero;fill:rgb(100%,74.509804%,66.666667%);fill-opacity:1;" />
<path d="M 223.808594 369.746094 C 223.808594 379.902344 215.574219 388.136719 205.417969 388.136719 C 195.261719 388.136719 187.027344 379.902344 187.027344 369.746094 C 187.027344 359.589844 195.261719 351.355469 205.417969 351.355469 C 215.574219 351.355469 223.808594 359.589844 223.808594 369.746094 Z M 223.808594 369.746094 " style=" stroke:none;fill-rule:nonzero;fill:rgb(100%,74.509804%,66.666667%);fill-opacity:1;" />
<path d="M 161.21875 288.054688 C 131.324219 288.054688 107.089844 312.285156 107.089844 342.179688 L 107.089844 390.046875 C 107.089844 401.058594 110.40625 437.644531 116.304688 470.542969 C 140.972656 486.636719 168.574219 498.601562 198.144531 505.433594 C 208.960938 469.855469 215.34375 405.328125 215.34375 390.046875 L 215.34375 342.179688 C 215.34375 312.285156 191.109375 288.054688 161.21875 288.054688 Z M 161.21875 288.054688 " style=" stroke:none;fill-rule:nonzero;fill:rgb(99.607843%,41.568627%,8.627451%);fill-opacity:1;" />
<path d="M 161.21875 288.054688 C 161.136719 288.054688 161.058594 288.054688 160.980469 288.054688 L 160.980469 493.773438 C 172.949219 498.558594 185.363281 502.480469 198.144531 505.433594 C 208.960938 469.855469 215.34375 405.328125 215.34375 390.046875 L 215.34375 342.179688 C 215.34375 312.285156 191.109375 288.054688 161.21875 288.054688 Z M 161.21875 288.054688 " style=" stroke:none;fill-rule:nonzero;fill:rgb(94.901961%,27.058824%,0%);fill-opacity:1;" />
<path d="M 298.890625 369.746094 C 298.890625 379.902344 290.65625 388.136719 280.496094 388.136719 C 270.339844 388.136719 262.105469 379.902344 262.105469 369.746094 C 262.105469 359.589844 270.339844 351.355469 280.496094 351.355469 C 290.65625 351.355469 298.890625 359.589844 298.890625 369.746094 Z M 298.890625 369.746094 " style=" stroke:none;fill-rule:nonzero;fill:rgb(100%,74.509804%,66.666667%);fill-opacity:1;" />
<path d="M 407.289062 369.746094 C 407.289062 379.902344 399.054688 388.136719 388.898438 388.136719 C 378.742188 388.136719 370.507812 379.902344 370.507812 369.746094 C 370.507812 359.589844 378.742188 351.355469 388.898438 351.355469 C 399.054688 351.355469 407.289062 359.589844 407.289062 369.746094 Z M 407.289062 369.746094 " style=" stroke:none;fill-rule:nonzero;fill:rgb(100%,74.509804%,66.666667%);fill-opacity:1;" />
<path d="M 359.183594 438.597656 L 346.902344 444.90625 C 339.242188 448.839844 330.152344 448.839844 322.492188 444.90625 L 310.210938 438.597656 C 292.011719 429.246094 280.570312 410.507812 280.570312 390.046875 L 280.570312 342.179688 C 280.570312 312.285156 304.804688 288.054688 334.699219 288.054688 C 364.589844 288.054688 388.824219 312.285156 388.824219 342.179688 L 388.824219 390.046875 C 388.824219 410.507812 377.382812 429.246094 359.183594 438.597656 Z M 359.183594 438.597656 " style=" stroke:none;fill-rule:nonzero;fill:rgb(100%,80.392157%,74.509804%);fill-opacity:1;" />
<path d="M 334.699219 288.054688 C 334.632812 288.054688 334.566406 288.058594 334.5 288.058594 L 334.5 447.851562 C 338.753906 447.882812 343.011719 446.902344 346.902344 444.902344 L 359.183594 438.59375 C 377.382812 429.246094 388.824219 410.503906 388.824219 390.046875 L 388.824219 342.179688 C 388.824219 312.285156 364.589844 288.054688 334.699219 288.054688 Z M 334.699219 288.054688 " style=" stroke:none;fill-rule:nonzero;fill:rgb(100%,74.509804%,66.666667%);fill-opacity:1;" />
<path d="M 264.628906 329.296875 C 264.628906 303.039062 285.917969 281.75 312.175781 281.75 L 351.195312 281.75 C 353.359375 281.75 355.230469 282.988281 356.148438 284.792969 C 357.230469 282.972656 359.210938 281.75 361.484375 281.75 L 367.09375 281.75 C 389.082031 281.75 406.90625 299.574219 406.90625 321.5625 L 406.90625 350.59375 C 406.90625 385.414062 378.679688 413.640625 343.859375 413.640625 L 327.675781 413.640625 C 292.855469 413.640625 264.628906 385.414062 264.628906 350.59375 Z M 264.628906 329.296875 " style=" stroke:none;fill-rule:nonzero;fill:rgb(100%,83.137255%,0%);fill-opacity:1;" />
<path d="M 264.628906 329.296875 C 264.628906 303.039062 285.917969 281.75 312.175781 281.75 L 351.195312 281.75 C 353.359375 281.75 355.230469 282.988281 356.148438 284.792969 C 357.230469 282.972656 359.210938 281.75 361.484375 281.75 L 367.09375 281.75 C 389.082031 281.75 406.90625 299.574219 406.90625 321.5625 L 406.90625 350.59375 C 406.90625 385.414062 378.679688 413.640625 343.859375 413.640625 L 327.675781 413.640625 C 292.855469 413.640625 264.628906 385.414062 264.628906 350.59375 Z M 264.628906 329.296875 " style=" stroke:none;fill-rule:nonzero;fill:rgb(100%,83.137255%,0%);fill-opacity:1;" />
<path d="M 367.097656 281.75 L 361.484375 281.75 C 359.210938 281.75 357.230469 282.972656 356.148438 284.792969 C 355.230469 282.988281 353.359375 281.75 351.195312 281.75 L 334.5 281.75 L 334.5 413.640625 L 343.863281 413.640625 C 378.679688 413.640625 406.90625 385.414062 406.90625 350.59375 L 406.90625 321.5625 C 406.90625 299.574219 389.082031 281.75 367.097656 281.75 Z M 367.097656 281.75 " style=" stroke:none;fill-rule:nonzero;fill:rgb(99.215686%,72.941176%,7.058824%);fill-opacity:1;" />
<path d="M 356.109375 449.164062 L 356.109375 440.257812 L 313.289062 440.257812 L 313.289062 449.164062 C 313.289062 455.625 309.246094 461.398438 303.171875 463.613281 L 262 478.605469 L 248.292969 511.875 C 250.855469 511.949219 253.421875 512 256 512 C 305.933594 512 352.519531 497.6875 391.90625 472.964844 L 366.222656 463.613281 C 360.148438 461.398438 356.109375 455.625 356.109375 449.164062 Z M 356.109375 449.164062 " style=" stroke:none;fill-rule:nonzero;fill:rgb(99.607843%,41.568627%,8.627451%);fill-opacity:1;" />
<path d="M 366.222656 463.613281 C 360.148438 461.398438 356.109375 455.628906 356.109375 449.164062 L 356.109375 440.257812 L 334.5 440.257812 L 334.5 499.71875 C 354.863281 493.160156 374.121094 484.128906 391.90625 472.964844 Z M 366.222656 463.613281 " style=" stroke:none;fill-rule:nonzero;fill:rgb(94.901961%,27.058824%,0%);fill-opacity:1;" />
</g>
</svg>