<svg xmlns="http://www.w3.org/2000/svg" height="512pt" version="1.1" viewBox="0 0 512 512.001" width="512pt">
<g id="surface1">
<path d="M 512 256 C 512 397.386719 397.386719 512 256 512 C 114.617188 512 0 397.386719 0 256 C 0 114.613281 114.617188 0 256 0 C 397.386719 0 512 114.613281 512 256 Z M 512 256 " style=" stroke:none;fill-rule:nonzero;fill:rgb(100%,83.137255%,0%);fill-opacity:1;" />
<path d="M 512 256 C 512 249.15625 511.722656 242.378906 511.199219 235.667969 L 349.964844 74.433594 L 134.5 202.101562 L 125.160156 437.566406 L 191.355469 503.761719 C 212.007812 509.132812 233.667969 512 256 512 C 397.386719 512 512 397.386719 512 256 Z M 512 256 " style=" stroke:none;fill-rule:nonzero;fill:rgb(99.215686%,72.941176%,7.058824%);fill-opacity:1;" />
<path d="M 162.035156 74.433594 L 349.964844 74.433594 L 349.964844 280.433594 L 162.035156 280.433594 Z M 162.035156 74.433594 " style=" stroke:none;fill-rule:nonzero;fill:rgb(38.823529%,41.176471%,47.058824%);fill-opacity:1;" />
<path d="M 255.761719 74.433594 L 349.964844 74.433594 L 349.964844 280.433594 L 255.761719 280.433594 Z M 255.761719 74.433594 " style=" stroke:none;fill-rule:nonzero;fill:rgb(33.333333%,35.294118%,40%);fill-opacity:1;" />
<path d="M 357.308594 309.664062 L 386.851562 309.625 L 387.019531 437.292969 L 357.476562 437.328125 Z M 357.308594 309.664062 " style=" stroke:none;fill-rule:nonzero;fill:rgb(15.686275%,39.215686%,94.117647%);fill-opacity:1;" />
<path d="M 125.011719 309.894531 L 154.554688 309.855469 L 154.722656 437.523438 L 125.179688 437.5625 Z M 125.011719 309.894531 " style=" stroke:none;fill-rule:nonzero;fill:rgb(29.019608%,47.843137%,100%);fill-opacity:1;" />
<path d="M 125 202.101562 L 144 202.101562 L 144 268.769531 L 125 268.769531 Z M 125 202.101562 " style=" stroke:none;fill-rule:nonzero;fill:rgb(33.333333%,35.294118%,40%);fill-opacity:1;" />
<path d="M 125 264.433594 L 387 264.433594 L 387 322.433594 L 125 322.433594 Z M 125 264.433594 " style=" stroke:none;fill-rule:nonzero;fill:rgb(25.490196%,28.627451%,32.156863%);fill-opacity:1;" />
<path d="M 255.761719 264.433594 L 387 264.433594 L 387 322.433594 L 255.761719 322.433594 Z M 255.761719 264.433594 " style=" stroke:none;fill-rule:nonzero;fill:rgb(20%,22.352941%,25.098039%);fill-opacity:1;" />
<path d="M 125 176.433594 L 286.332031 176.433594 L 286.332031 205.769531 L 125 205.769531 Z M 125 176.433594 " style=" stroke:none;fill-rule:nonzero;fill:rgb(25.490196%,28.627451%,32.156863%);fill-opacity:1;" />
<path d="M 255.761719 176.433594 L 286.332031 176.433594 L 286.332031 205.769531 L 255.761719 205.769531 Z M 255.761719 176.433594 " style=" stroke:none;fill-rule:nonzero;fill:rgb(20%,22.352941%,25.098039%);fill-opacity:1;" />
</g>
</svg>