<?xml version="1.0" encoding="iso-8859-1"?>
<!-- Generator: Adobe Illustrator 19.0.0, SVG Export Plug-In . SVG Version: 6.00 Build 0)  -->
<svg xmlns="http://www.w3.org/2000/svg" xmlns:xlink="http://www.w3.org/1999/xlink" version="1.1" id="Capa_1" x="0px" y="0px" viewBox="0 0 512 512" style="enable-background:new 0 0 512 512;" xml:space="preserve">
<circle style="fill:#65BA70;" cx="256" cy="256" r="256"/>
<path style="fill:#488E53;" d="M256,57.987c-0.057,0-0.114,0.002-0.17,0.002c-63.543,0.092-115.028,51.631-115.028,115.196  c0,25.253,8.127,48.605,21.907,67.589c25.576,35.233,39.441,77.689,39.441,121.227v59.985l87.772,87.772  c122.096-16.167,217.02-118.376,221.863-243.703L339.027,93.297l-0.019,0.019C318.05,71.54,288.609,57.987,256,57.987z"/>
<circle style="fill:#8A8A91;" cx="255.832" cy="421.985" r="31.699"/>
<path style="fill:#57565C;" d="M255.83,390.29L255.83,390.29v63.393l0,0c17.506,0,31.697-14.191,31.697-31.697  S273.335,390.29,255.83,390.29z"/>
<path style="fill:#F6E781;" d="M371.198,173.185c0-63.622-51.577-115.198-115.198-115.198c-63.622,0-115.198,51.576-115.198,115.198  c0,25.253,8.127,48.605,21.907,67.589c25.576,35.233,39.441,77.689,39.441,121.227h107.701c0-43.707,13.766-85.858,39.441-121.227  C363.071,221.791,371.198,198.439,371.198,173.185z"/>
<rect x="202.151" y="361.998" style="fill:#CBE8F2;" width="107.362" height="59.985"/>
<path style="fill:#F6CE23;" d="M256,57.987c-0.057,0-0.114,0.002-0.17,0.002v304.012h54.021c0-43.707,13.766-85.859,39.441-121.227  c13.78-18.984,21.907-42.336,21.907-67.589C371.198,109.563,319.622,57.987,256,57.987z"/>
<path style="fill:#EDA637;" d="M256,57.987c-0.057,0-0.114,0.002-0.17,0.002v304.012h54.021c0-43.707,13.766-85.859,39.441-121.227  c13.78-18.984,21.907-42.336,21.907-67.589C371.198,109.563,319.622,57.987,256,57.987z"/>
<rect x="255.832" y="361.998" style="fill:#76C8DA;" width="53.681" height="59.985"/>
<g>
</g>
<g>
</g>
<g>
</g>
<g>
</g>
<g>
</g>
<g>
</g>
<g>
</g>
<g>
</g>
<g>
</g>
<g>
</g>
<g>
</g>
<g>
</g>
<g>
</g>
<g>
</g>
<g>
</g>
</svg>
