<svg xmlns="http://www.w3.org/2000/svg" height="512pt" version="1.1" viewBox="0 0 512 512" width="512pt">
<g id="surface1">
<path d="M 512 256 C 512 397.386719 397.386719 512 256 512 C 114.613281 512 0 397.386719 0 256 C 0 114.613281 114.613281 0 256 0 C 397.386719 0 512 114.613281 512 256 Z M 512 256 " style=" stroke:none;fill-rule:nonzero;fill:rgb(29.019608%,47.843137%,100%);fill-opacity:1;" />
<path d="M 278.933594 510.964844 C 402.015625 500.035156 500.035156 402.015625 510.964844 278.933594 L 431.785156 199.753906 L 336.398438 249.152344 L 287 199.753906 L 80.214844 312.246094 Z M 278.933594 510.964844 " style=" stroke:none;fill-rule:nonzero;fill:rgb(15.686275%,39.215686%,94.117647%);fill-opacity:1;" />
<path d="M 431.785156 312.246094 C 314.59375 303.621094 197.40625 303.621094 80.214844 312.246094 C 53.261719 274.75 53.261719 237.25 80.214844 199.753906 C 197.40625 208.378906 314.597656 208.378906 431.785156 199.753906 C 458.738281 237.25 458.738281 274.75 431.785156 312.246094 Z M 431.785156 312.246094 " style=" stroke:none;fill-rule:nonzero;fill:rgb(100%,100%,100%);fill-opacity:1;" />
<path d="M 431.785156 199.753906 C 373.109375 204.070312 314.4375 206.226562 255.761719 206.21875 L 255.761719 305.78125 C 314.4375 305.773438 373.109375 307.929688 431.785156 312.246094 C 458.738281 274.75 458.738281 237.25 431.785156 199.753906 Z M 431.785156 199.753906 " style=" stroke:none;fill-rule:nonzero;fill:rgb(94.901961%,96.470588%,98.823529%);fill-opacity:1;" />
<path d="M 287 407.246094 L 256 379.355469 L 224.332031 407.246094 L 224.332031 199.753906 L 287 199.753906 Z M 287 407.246094 " style=" stroke:none;fill-rule:nonzero;fill:rgb(98.039216%,36.470588%,5.882353%);fill-opacity:1;" />
<path d="M 255.761719 199.753906 L 256 379.355469 L 287 407.246094 L 287 199.753906 Z M 255.761719 199.753906 " style=" stroke:none;fill-rule:nonzero;fill:rgb(93.72549%,21.960784%,0%);fill-opacity:1;" />
<path d="M 301.519531 256 C 301.519531 281.324219 280.992188 301.851562 255.667969 301.851562 C 230.34375 301.851562 209.816406 281.324219 209.816406 256 C 209.816406 230.675781 230.34375 210.148438 255.667969 210.148438 C 280.992188 210.148438 301.519531 230.675781 301.519531 256 Z M 301.519531 256 " style=" stroke:none;fill-rule:nonzero;fill:rgb(100%,64.313725%,14.901961%);fill-opacity:1;" />
<path d="M 301.519531 256 C 301.519531 230.707031 281.042969 210.203125 255.761719 210.148438 L 255.761719 301.851562 C 281.039062 301.796875 301.519531 281.292969 301.519531 256 Z M 301.519531 256 " style=" stroke:none;fill-rule:nonzero;fill:rgb(100%,58.431373%,0%);fill-opacity:1;" />
</g>
</svg>