<svg height="512pt" viewBox="0 0 512 512" width="512pt" xmlns="http://www.w3.org/2000/svg"><path d="m512 256c0 141.386719-114.613281 256-256 256s-256-114.613281-256-256 114.613281-256 256-256 256 114.613281 256 256zm0 0" fill="#811c26"/><path d="m257.886719 511.976562c140.515625-1.015624 254.113281-115.222656 254.113281-255.976562 0-6.988281-.289062-13.90625-.839844-20.753906l-122.660156-122.65625-265 43.644531 21.824219 21 16.175781 33.039063-38 18.707031 21.824219 21 11.050781 33.039062-32.875 18.707031 21.824219 21 10.425781 33.039063-32.25 18.707031 23.738281 22.914063-1.914062 2.023437zm0 0" fill="#442236"/><path d="m351.089844 112.589844-62.355469 286.820312h99.765625v-286.820312zm0 0" fill="#77c0bc"/><path d="m145.324219 112.589844v286.820312h102.882812l12.46875-143.410156-12.46875-143.410156zm0 0" fill="#c1e8e6"/><path d="m248.207031 399.410156h40.527344l18.707031-43.644531 43.648438-18.707031v-224.46875h-102.882813z" fill="#98d9d5"/><path d="m248.207031 174.941406h-43.648437v-18.707031h43.648437l6.234375 9.355469zm0 0" fill="#4284b2"/><path d="m248.207031 156.234375h102.882813v18.707031h-102.882813zm0 0" fill="#274b6d"/><path d="m248.207031 355.765625h-43.648437v-18.707031h43.648437l6.234375 9.351562zm0 0" fill="#4284b2"/><path d="m301.207031 355.765625h-53v-18.707031h40.527344zm0 0" fill="#274b6d"/><path d="m248.207031 310.558594h-43.648437v-18.707032h43.648437l6.234375 9.355469zm0 0" fill="#4284b2"/><path d="m248.207031 291.851562h102.882813v18.707032h-102.882813zm0 0" fill="#274b6d"/><path d="m248.207031 265.351562h-43.648437v-18.703124h43.648437l6.234375 9.351562zm0 0" fill="#4284b2"/><path d="m248.207031 246.648438h102.882813v18.703124h-102.882813zm0 0" fill="#274b6d"/><path d="m248.207031 220.148438h-43.648437v-18.707032h43.648437l6.234375 9.351563zm0 0" fill="#4284b2"/><path d="m248.207031 201.441406h102.882813v18.707032h-102.882813zm0 0" fill="#274b6d"/><path d="m195.207031 112.589844h18.703125v286.820312h-18.703125zm0 0" fill="#4284b2"/><g fill="#6da8d6"><path d="m123.5 355.765625h43.648438v18.707031h-43.648438zm0 0"/><path d="m123.5 283.019531h43.648438v18.707031h-43.648438zm0 0"/><path d="m123.5 210.273438h43.648438v18.707031h-43.648438zm0 0"/><path d="m123.5 137.527344h43.648438v18.707031h-43.648438zm0 0"/></g><path d="m288.734375 337.058594v62.351562l62.355469-62.351562zm0 0" fill="#c1e8e6"/></svg>