<svg height="512pt" viewBox="0 0 512 512" width="512pt" xmlns="http://www.w3.org/2000/svg"><path d="m512 256c0 141.386719-114.613281 256-256 256s-256-114.613281-256-256 114.613281-256 256-256 256 114.613281 256 256zm0 0" fill="#fdbf00"/><path d="m349.832031 172.496094-42.769531 42.773437-164.0625 33.730469-10.128906 118.414062 59.8125 59.808594-19.3125 19.3125 64.839844 64.839844c5.878906.402344 11.808593.625 17.789062.625 117.40625 0 216.34375-79.039062 246.527344-186.808594zm0 0" fill="#ff9f00"/><path d="m300.644531 399.539062v-23.160156c19.15625 0 34.742188-15.582031 34.742188-34.738281h23.160156c-.003906 31.921875-25.976563 57.898437-57.902344 57.898437zm0 0" fill="#53433f"/><path d="m197.003906 150.152344-49.125-49.125 49.125-49.660156 49.132813 49.660156zm0 0" fill="#68544f"/><path d="m352.523438 174.886719-81.984376-81.984375c-1.390624-1.621094-3.011718-2.777344-4.632812-3.9375-13.433594-9.496094-32.191406-8.335938-44.464844 3.9375l-32.425781 32.65625c-6.714844 6.714844-10.421875 15.285156-10.421875 24.546875 0 9.496093 3.707031 18.066406 10.191406 24.550781l81.753906 81.753906c6.714844 6.71875 15.285157 10.421875 24.78125 10.421875 9.261719 0 17.832032-3.703125 24.316407-10.421875l32.886719-32.65625c13.664062-13.433594 13.664062-35.433594 0-48.867187zm0 0" fill="#d3d3d8"/><path d="m344.398438 297.546875-49.125-49.125 49.125-49.132813 49.121093 49.132813zm0 0" fill="#53433f"/><path d="m352.523438 223.753906-32.886719 32.65625c-6.484375 6.71875-15.054688 10.421875-24.320313 10.421875-9.496094 0-18.0625-3.703125-24.78125-10.421875l-4.628906-4.632812v-162.8125c1.621094 1.160156 3.242188 2.316406 4.628906 3.9375l81.988282 81.984375c13.664062 13.433593 13.664062 35.433593 0 48.867187zm0 0" fill="#babac0"/><path d="m254.324219 330.058594h138.960937v23.160156h-138.960937zm0 0" fill="#0fa9dd"/><path d="m173.265625 295.320312c0-19.15625 15.582031-34.742187 34.535156-34.742187l21.664063.371094-11.136719-25.1875c-1.769531-1.003907-3.425781-2.261719-4.917969-3.746094-5.664062-5.675781-7.726562-13.628906-6.054687-21.082031l-8.570313-19.386719-2.765625.320313c-52.574219 6.074218-92.234375 50.550781-92.234375 103.453124 0 57.46875 46.75 104.21875 104.21875 104.21875h34.742188v-23.160156c0-9.816406 6.171875-18.546875 15.355468-21.714844l7.804688-2.6875v-21.917968h-57.902344c-19.15625 0-34.738281-15.582032-34.738281-34.738282zm0 0" fill="#68544f"/><path d="m312.226562 376.378906v55.894532h-92.640624v-55.894532c0-19.6875 12.507812-37.285156 31.035156-43.539062 4.632812-1.855469 9.726562-2.78125 15.285156-2.78125 25.472656 0 46.320312 20.84375 46.320312 46.320312zm0 0" fill="#d3d3d8"/><path d="m277.484375 214.722656c0 11.578125-4.167969 22.234375-11.578125 30.339844-8.339844 9.726562-20.84375 15.976562-34.742188 15.976562-25.472656 0-46.320312-20.839843-46.320312-46.316406 0-25.476562 20.84375-46.320312 46.320312-46.320312 13.894532 0 26.402344 6.253906 34.742188 15.980468 7.410156 8.105469 11.578125 18.761719 11.578125 30.339844zm0 0" fill="#2fc0f0"/><path d="m231.164062 237.882812c-12.769531 0-23.160156-10.390624-23.160156-23.160156 0-12.769531 10.390625-23.160156 23.160156-23.160156 6.605469 0 12.855469 2.875 17.15625 7.890625l.242188.28125.25.277344c3.605469 3.941406 5.511719 9.03125 5.511719 14.710937 0 5.679688-1.90625 10.765625-5.511719 14.710938l-.25.273437-.242188.28125c-4.300781 5.019531-10.550781 7.894531-17.15625 7.894531zm0 0" fill="#e7e7e7"/><path d="m277.484375 214.722656c0 11.578125-4.167969 22.234375-11.578125 30.339844v-60.679688c7.410156 8.105469 11.578125 18.761719 11.578125 30.339844zm0 0" fill="#0fa9dd"/><path d="m312.226562 376.378906v55.894532h-46.320312v-102.214844c25.472656 0 46.320312 20.84375 46.320312 46.320312zm0 0" fill="#babac0"/><path d="m173.265625 423.472656h185.28125v23.160156h-185.28125zm0 0" fill="#68544f"/><path d="m265.90625 423.472656h92.636719v23.160156h-92.636719zm0 0" fill="#53433f"/></svg>