<?xml version="1.0" encoding="iso-8859-1"?>
<!-- Generator: Adobe Illustrator 19.0.0, SVG Export Plug-In . SVG Version: 6.00 Build 0)  -->
<svg version="1.1" id="Capa_1" xmlns="http://www.w3.org/2000/svg" xmlns:xlink="http://www.w3.org/1999/xlink" x="0px" y="0px"
	 viewBox="0 0 512 512" style="enable-background:new 0 0 512 512;" xml:space="preserve">
<circle style="fill:#FEE17A;" cx="256" cy="256" r="256"/>
<path style="fill:#FCC55F;" d="M509.77,289.845L396.428,176.504l-6.054,14.513L266,66.643l-16,56.542l-84.247,5.712l66.732,66.732
	l-68.834,228.067l88.254,88.254c1.364,0.02,2.726,0.05,4.095,0.05C385.91,512,493.207,415.231,509.77,289.845z"/>
<path style="fill:#89CA15;" d="M252.433,148.514h-45.899c-28.829,0-52.199-23.37-52.199-52.199v-24.3h45.899
	c28.829,0,52.199,23.37,52.199,52.199V148.514z"/>
<path style="fill:#69AC05;" d="M154.373,72.015h-0.038v24.3c0,28.829,23.37,52.199,52.199,52.199h45.899v-0.062L154.373,72.015z"/>
<rect x="246" y="66.64" style="fill:#795548;" width="20" height="109.86"/>
<rect x="255.95" y="66.64" style="fill:#6D4C41;" width="10.05" height="109.86"/>
<path style="fill:#D6283B;" d="M129.598,343.837c8.761,18.339,16.358,37.261,21.748,56.857
	c6.906,25.106,29.899,43.549,57.199,43.549c9.357,0,18.207-2.167,26.077-6.025c13.487-6.613,29.267-6.613,42.754,0
	c7.87,3.859,16.721,6.025,26.077,6.025c27.3,0,50.293-18.443,57.199-43.549c5.39-19.596,12.987-38.518,21.748-56.857l30.999-64.887
	c27.966-58.539-13.122-127.396-77.978-129.039c-0.825-0.021-1.652-0.031-2.482-0.031c-20.896,0-40.234,6.664-56.007,17.983
	c-12.471,8.949-29.395,8.949-41.866,0c-15.773-11.319-35.112-17.983-56.007-17.983c-0.83,0-1.658,0.011-2.483,0.031
	c-64.854,1.643-105.943,70.5-77.976,129.039L129.598,343.837z"/>
<path style="fill:#C20231;" d="M335.423,149.91c-0.825-0.021-1.652-0.031-2.482-0.031c-20.896,0-40.234,6.665-56.007,17.983
	c-6.249,4.484-13.616,6.72-20.981,6.71v258.687c7.333-0.007,14.667,1.645,21.425,4.958c7.87,3.859,16.721,6.025,26.077,6.025
	c27.3,0,50.293-18.443,57.199-43.549c5.39-19.596,12.987-38.518,21.748-56.857l30.999-64.887
	C441.367,220.411,400.278,151.553,335.423,149.91z"/>
<g>
</g>
<g>
</g>
<g>
</g>
<g>
</g>
<g>
</g>
<g>
</g>
<g>
</g>
<g>
</g>
<g>
</g>
<g>
</g>
<g>
</g>
<g>
</g>
<g>
</g>
<g>
</g>
<g>
</g>
</svg>
