<?xml version="1.0" encoding="iso-8859-1"?>
<!-- Generator: Adobe Illustrator 19.0.0, SVG Export Plug-In . SVG Version: 6.00 Build 0)  -->
<svg xmlns="http://www.w3.org/2000/svg" xmlns:xlink="http://www.w3.org/1999/xlink" version="1.1" id="Capa_1" x="0px" y="0px" viewBox="0 0 512 512" style="enable-background:new 0 0 512 512;" xml:space="preserve">
<circle style="fill:#EA971E;" cx="256" cy="256" r="256"/>
<path style="fill:#C27526;" d="M511.989,255.176L322.132,65.318c-5.812,0-126.464,0-132.264,0v34.806l17.403,17.403v92.11  c-46.416,19.4-77.732,65.001-77.734,116.728c0,34.467,13.795,65.707,36.157,88.518l-0.011,0.011l97.018,97.018  C400.989,508.359,512,395.144,512,256C512,255.724,511.99,255.452,511.989,255.176z"/>
<path style="fill:#FFFFFF;" d="M304.729,209.638V82.721h-97.457v126.917c-45.652,19.08-77.734,64.156-77.734,116.727  c0,69.844,56.619,126.463,126.463,126.463s126.463-56.619,126.463-126.463C382.463,273.794,350.381,228.718,304.729,209.638z"/>
<g>
	<rect x="189.873" y="65.319" style="fill:#B5DFEC;" width="132.263" height="34.806"/>
	<path style="fill:#B5DFEC;" d="M304.729,209.638V82.721H256v370.107c69.844,0,126.463-56.619,126.463-126.463   C382.463,273.794,350.381,228.718,304.729,209.638z"/>
</g>
<rect x="256" y="65.319" style="fill:#4AB6BF;" width="66.137" height="34.806"/>
<path style="fill:#E16EA7;" d="M133.95,293.167c-2.871,10.581-4.413,21.709-4.413,33.199c0,69.844,56.619,126.463,126.463,126.463  s126.463-56.62,126.463-126.464c0-11.49-1.541-22.619-4.413-33.199L133.95,293.167L133.95,293.167z"/>
<path style="fill:#C12B4F;" d="M378.05,293.167H256v159.662c69.844,0,126.463-56.619,126.463-126.463  C382.463,315.331,380.945,303.832,378.05,293.167z"/>
<g>
	<circle style="fill:#E16EA7;" cx="216.615" cy="274.57" r="23.303"/>
	<circle style="fill:#E16EA7;" cx="237.617" cy="223.37" r="14.769"/>
	<circle style="fill:#E16EA7;" cx="226.786" cy="166.922" r="10.174"/>
</g>
<g>
</g>
<g>
</g>
<g>
</g>
<g>
</g>
<g>
</g>
<g>
</g>
<g>
</g>
<g>
</g>
<g>
</g>
<g>
</g>
<g>
</g>
<g>
</g>
<g>
</g>
<g>
</g>
<g>
</g>
</svg>
