<svg xmlns="http://www.w3.org/2000/svg" height="512pt" version="1.1" viewBox="0 0 512 512" width="512pt">
<g id="surface1">
<path d="M 512 256 C 512 397.386719 397.386719 512 256 512 C 114.613281 512 0 397.386719 0 256 C 0 114.613281 114.613281 0 256 0 C 397.386719 0 512 114.613281 512 256 Z M 512 256 " style=" stroke:none;fill-rule:nonzero;fill:rgb(100%,83.137255%,0%);fill-opacity:1;" />
<path d="M 512 256 C 512 251.695312 511.890625 247.417969 511.679688 243.167969 L 364.003906 95.488281 L 335.589844 181.84375 L 216.109375 62.363281 L 83.617188 289.101562 L 174.113281 379.597656 L 127.871094 434.347656 L 199.1875 505.660156 C 217.460938 509.804688 236.472656 512 256 512 C 397.386719 512 512 397.386719 512 256 Z M 512 256 " style=" stroke:none;fill-rule:nonzero;fill:rgb(99.215686%,72.941176%,7.058824%);fill-opacity:1;" />
<path d="M 147.996094 95.488281 L 83.617188 289.101562 L 169.457031 339.484375 L 190.917969 147.273438 Z M 147.996094 95.488281 " style=" stroke:none;fill-rule:nonzero;fill:rgb(15.686275%,39.215686%,94.117647%);fill-opacity:1;" />
<path d="M 364.003906 95.488281 L 428.382812 289.101562 L 342.542969 339.484375 L 321.082031 147.273438 Z M 364.003906 95.488281 " style=" stroke:none;fill-rule:nonzero;fill:rgb(0%,32.54902%,74.901961%);fill-opacity:1;" />
<path d="M 351.871094 188.097656 C 344.484375 167.222656 344.859375 144.386719 352.933594 123.765625 L 364.003906 95.488281 L 295.890625 62.363281 L 256 179.933594 L 216.109375 62.363281 L 147.996094 95.488281 L 159.066406 123.765625 C 167.140625 144.386719 167.515625 167.222656 160.128906 188.097656 L 127.871094 434.347656 L 384.128906 434.347656 Z M 351.871094 188.097656 " style=" stroke:none;fill-rule:nonzero;fill:rgb(29.019608%,47.843137%,100%);fill-opacity:1;" />
<path d="M 351.871094 188.097656 C 344.484375 167.222656 344.859375 144.386719 352.933594 123.765625 L 364.003906 95.488281 L 295.890625 62.363281 L 256 179.933594 L 255.761719 179.230469 L 255.761719 434.347656 L 384.128906 434.347656 Z M 351.871094 188.097656 " style=" stroke:none;fill-rule:nonzero;fill:rgb(15.686275%,39.215686%,94.117647%);fill-opacity:1;" />
</g>
</svg>