<svg height="512pt" viewBox="0 0 512 512" width="512pt" xmlns="http://www.w3.org/2000/svg"><path d="m512 256c0 141.386719-114.613281 256-256 256s-256-114.613281-256-256 114.613281-256 256-256 256 114.613281 256 256zm0 0" fill="#53433f"/><path d="m511.398438 273.382812-167.285157-167.289062-263.070312 263.074219 140.519531 140.519531c11.265625 1.515625 22.757812 2.3125 34.4375 2.3125 135.542969 0 246.460938-105.34375 255.398438-238.617188zm0 0" fill="#3e322e"/><path d="m344.65625 215.761719-.089844.042969-16.34375-8.777344-74.769531 34.808594-6.441406 26.746093v94.746094l9.988281 5.769531h.003906l87.652344 43.902344 88.347656-43.902344v-109.507812zm0 0" fill="#ff9f00"/><path d="m256.945312 259.5625-6.066406-13.863281-43.507812-29.324219-37.832032-.515625-.195312-.097656-88.34375 43.828125v109.507812l88.34375 43.828125 87.65625-43.828125v-109.507812zm0 0" fill="#2fc0f0"/><path d="m344.65625 106.441406v109.316406l-87.65625 43.929688-87.65625-43.929688v-109.316406l87.65625-45.441406zm0 0" fill="#d3d3d8"/><path d="m344.65625 106.441406v109.316406l-87.65625 43.929688v-198.6875zm0 0" fill="#babac0"/><path d="m344.65625 372.574219-51.5625-25.78125v-64.894531l51.5625-25.78125 51.5625 25.78125v64.894531zm0 0" fill="#fdbf00"/><path d="m169.34375 372.574219-51.5625-25.78125v-64.894531l51.5625-25.78125 51.5625 25.78125v64.894531zm0 0" fill="#9ee2f8"/><path d="m257 102.9375-51.5625 25.78125v64.761719l51.5625 25.78125 51.5625-25.78125v-64.761719zm0 0" fill="#e7e7e7"/><path d="m308.5625 128.71875v64.761719l-51.5625 25.78125v-116.324219zm0 0" fill="#d3d3d8"/></svg>