<svg height="512pt" viewBox="0 0 512 512" width="512pt" xmlns="http://www.w3.org/2000/svg"><path d="m512 256c0 141.386719-114.613281 256-256 256s-256-114.613281-256-256 114.613281-256 256-256 256 114.613281 256 256zm0 0" fill="#185f8d"/><path d="m511.542969 271.109375-155.109375-155.109375-240.433594 280 114.761719 114.761719c8.304687.8125 16.722656 1.238281 25.238281 1.238281 136.3125 0 247.722656-106.539062 255.542969-240.890625zm0 0" fill="#082947"/><path d="m116 195.128906 57.824219 71.523438 82.175781 47.171875v-118.695313zm0 0" fill="#77c0bc"/><path d="m256 195.128906v118.695313l82.175781-47.171875 57.824219-71.523438zm0 0" fill="#55a7a2"/><path d="m155.566406 116v210h112.609375l-12.175781-210zm0 0" fill="#f2ebd9"/><path d="m256 116h100.433594v210h-100.433594zm0 0" fill="#f9dca7"/><path d="m116 195.128906v200.871094l71.40625-38.042969 47.054688-62.390625zm0 0" fill="#c1e8e6"/><path d="m396 195.128906v200.871094l-71.40625-38.042969-47.054688-62.390625zm0 0" fill="#98d9d5"/><path d="m234.460938 295.566406c-30.84375 26.148438-118.460938 100.433594-118.460938 100.433594h140l12.175781-41.085938-12.175781-41.089843zm0 0" fill="#98d9d5"/><path d="m277.539062 295.566406-21.539062 18.257813v82.175781h140zm0 0" fill="#77c0bc"/></svg>