<?xml version="1.0" encoding="iso-8859-1"?>
<!-- Generator: Adobe Illustrator 19.0.0, SVG Export Plug-In . SVG Version: 6.00 Build 0)  -->
<svg xmlns="http://www.w3.org/2000/svg" xmlns:xlink="http://www.w3.org/1999/xlink" version="1.1" id="Capa_1" x="0px" y="0px" viewBox="0 0 512 512" style="enable-background:new 0 0 512 512;" xml:space="preserve">
<circle style="fill:#F7DC4D;" cx="256" cy="256" r="256"/>
<path style="fill:#D4B331;" d="M234.382,511.083C241.51,511.68,248.717,512,256,512c141.385,0,256-114.615,256-256  c0-7.484-0.34-14.887-0.969-22.207L410.356,133.119h-93.287l-40.861-40.861h-20.816h-19.274v40.861H101.97l0,0v195.825  l46.271,46.272l-15.432,34.295L234.382,511.083z"/>
<g>
	<rect x="236.115" y="92.259" style="fill:#7D684A;" width="40.087" height="61.678"/>
	<polygon style="fill:#7D684A;" points="221.47,301.575 181.38,301.575 132.809,409.51 172.899,409.51  "/>
</g>
<g>
	<polygon style="fill:#67573E;" points="290.086,301.575 330.177,301.575 378.747,409.51 338.656,409.51  "/>
	<rect x="255.395" y="92.259" style="fill:#67573E;" width="20.816" height="61.678"/>
</g>
<rect x="101.973" y="133.12" style="fill:#57565C;" width="308.391" height="195.82"/>
<rect x="255.395" y="133.12" style="fill:#3E3E42;" width="154.969" height="195.82"/>
<path style="fill:#A38A67;" d="M389.041,154.434v153.193H123.287V154.434 M410.356,133.119H101.97v195.825h308.386V133.119  L410.356,133.119z"/>
<polygon style="fill:#917857;" points="255.393,154.447 389.041,154.434 389.041,307.629 255.393,307.629 255.393,328.944   410.356,328.944 410.356,133.119 255.393,133.119 "/>
<g>
</g>
<g>
</g>
<g>
</g>
<g>
</g>
<g>
</g>
<g>
</g>
<g>
</g>
<g>
</g>
<g>
</g>
<g>
</g>
<g>
</g>
<g>
</g>
<g>
</g>
<g>
</g>
<g>
</g>
</svg>
