<svg height="512pt" viewBox="0 0 512 512" width="512pt" xmlns="http://www.w3.org/2000/svg"><path d="m512 256c0 141.386719-114.613281 256-256 256s-256-114.613281-256-256 114.613281-256 256-256 256 114.613281 256 256zm0 0" fill="#53433f"/><path d="m511.332031 274.457031-133.453125-133.453125-147.546875-3.339844-81 67.335938-86.25 158.367188 143.929688 143.929687c15.855469 3.074219 32.230469 4.703125 48.988281 4.703125 135.175781 0 245.871094-104.773438 255.332031-237.542969zm0 0" fill="#3e322e"/><path d="m427.4375 272.449219v-11.363281c0-94.082032-76.355469-170.4375-170.4375-170.4375s-170.4375 76.359374-170.4375 170.441406v11.359375h-23.484375v90.902343h387.84375v-90.902343zm-159.074219 0h-22.726562v-22.722657h22.726562zm90.898438 0h-45.449219v-11.363281c0-31.359376-25.453125-56.8125-56.8125-56.8125s-56.8125 25.453124-56.8125 56.8125v11.363281h-45.449219v-11.363281c0-56.359376 45.902344-102.261719 102.261719-102.261719 34.996094 0 67.039062 17.496093 86.128906 47.039062 10.453125 16.363281 16.132813 35.453125 16.132813 55.222657zm0 0" fill="#fdbf00"/><g fill="#ff9f00"><path d="m427.4375 272.449219v-11.363281c0-94.082032-76.355469-170.4375-170.4375-170.4375v68.175781c34.996094 0 67.039062 17.496093 86.128906 47.039062 10.453125 16.363281 16.132813 35.453125 16.132813 55.222657v11.363281h-45.449219v-11.363281c0-31.359376-25.453125-56.8125-56.8125-56.8125v45.449218h11.363281v22.726563h-11.363281v90.898437h193.921875v-90.898437zm0 0"/><path d="m109.285156 317.898438h22.726563v45.453124h-22.726563zm0 0"/><path d="m154.738281 317.898438h22.722657v45.453124h-22.722657zm0 0"/><path d="m200.1875 317.898438h22.722656v45.453124h-22.722656zm0 0"/><path d="m245.636719 317.898438h22.726562v45.453124h-22.726562zm0 0"/></g><path d="m291.089844 317.898438h22.722656v45.453124h-22.722656zm0 0" fill="#ff7816"/><path d="m336.539062 317.898438h22.722657v45.453124h-22.722657zm0 0" fill="#ff7816"/><path d="m381.988281 317.898438h22.726563v45.453124h-22.726563zm0 0" fill="#ff7816"/><path d="m257 317.898438h11.363281v45.453124h-11.363281zm0 0" fill="#ff7816"/></svg>