<?xml version="1.0" encoding="iso-8859-1"?>
<!-- Generator: Adobe Illustrator 19.0.0, SVG Export Plug-In . SVG Version: 6.00 Build 0)  -->
<svg xmlns="http://www.w3.org/2000/svg" xmlns:xlink="http://www.w3.org/1999/xlink" version="1.1" id="Capa_1" x="0px" y="0px" viewBox="0 0 512 512" style="enable-background:new 0 0 512 512;" xml:space="preserve">
<circle style="fill:#73A8DB;" cx="256" cy="256" r="256"/>
<path style="fill:#497FC1;" d="M114.817,396.111l114.509,114.509C238.095,511.529,246.992,512,256,512  c141.385,0,256-114.615,256-256c0-8.74-0.441-17.377-1.297-25.891L397.183,116.587H279.53v47.163l-47.061-47.163H114.817v117.652  l44.16,44.221h-44.16V396.111z"/>
<rect x="114.817" y="116.583" style="fill:#C3DA49;" width="117.652" height="117.652"/>
<rect x="279.53" y="116.583" style="fill:#F7E05D;" width="117.652" height="117.652"/>
<rect x="114.817" y="278.461" style="fill:#E25F3F;" width="117.652" height="117.652"/>
<rect x="173.639" y="116.583" style="fill:#7DC152;" width="58.826" height="117.652"/>
<rect x="173.639" y="278.461" style="fill:#BB161B;" width="58.826" height="117.652"/>
<rect x="279.53" y="278.461" style="fill:#76C8DA;" width="117.652" height="117.652"/>
<rect x="337.743" y="116.583" style="fill:#EDA637;" width="59.429" height="117.652"/>
<rect x="337.743" y="278.461" style="fill:#38979E;" width="59.429" height="117.652"/>
<g>
	<rect x="144.027" y="165.606" style="fill:#FFFFFF;" width="59.027" height="19.617"/>
	<rect x="308.838" y="345.325" style="fill:#FFFFFF;" width="59.027" height="19.617"/>
	<rect x="308.838" y="311.251" style="fill:#FFFFFF;" width="59.027" height="19.617"/>
	<rect x="144.027" y="327.474" style="fill:#FFFFFF;" width="59.027" height="19.617"/>
	<rect x="163.732" y="307.769" style="fill:#FFFFFF;" width="19.617" height="59.027"/>
	<g transform="matrix(0.7071 0.7071 -0.7071 0.7071 227.5 -191.55)">
		<rect x="308.351" y="171.282" style="fill:#FFFFFF;" width="59.027" height="19.617"/>
		<rect x="328.056" y="151.577" style="fill:#FFFFFF;" width="19.617" height="59.027"/>
	</g>
</g>
<g>
</g>
<g>
</g>
<g>
</g>
<g>
</g>
<g>
</g>
<g>
</g>
<g>
</g>
<g>
</g>
<g>
</g>
<g>
</g>
<g>
</g>
<g>
</g>
<g>
</g>
<g>
</g>
<g>
</g>
</svg>
