<svg height="512pt" viewBox="0 0 512 512" width="512pt" xmlns="http://www.w3.org/2000/svg"><path d="m512 256c0 141.386719-114.613281 256-256 256s-256-114.613281-256-256 114.613281-256 256-256 256 114.613281 256 256zm0 0" fill="#fdbf00"/><path d="m391.882812 150.410156-70.847656-70.84375-62.535156 1.433594-33.699219-8.363281-26.5 26.5 122.425781 122.425781-28.746093 28.746094 1.742187 1.738281-161.003906 161.003906 97.675781 97.679688c8.421875.835937 16.964844 1.269531 25.605469 1.269531 141.386719 0 256-114.613281 256-256 0-12.667969-.933594-25.113281-2.710938-37.289062l-92.855468-92.855469zm0 0" fill="#ff9f00"/><path d="m345.292969 365.109375 41.019531 41.019531-14.503906 14.5-41.019532-41.019531zm0 0" fill="#babac0"/><path d="m245.746094 78.726562h20.507812v41.703126h-20.507812zm0 0" fill="#d3d3d8"/><path d="m166.710938 365.109375 14.5 14.5-41.019532 41.019531-14.5-14.5zm0 0" fill="#d3d3d8"/><path d="m256 78.726562h10.253906v41.703126h-10.253906zm0 0" fill="#babac0"/><path d="m130.003906 213.007812-5.75-.902343c-25.078125-3.9375-43.273437-25.238281-43.273437-50.65625 0-28.269531 23.003906-51.273438 51.273437-51.273438 21.761719 0 41.210938 13.789063 48.390625 34.320313l1.925781 5.488281zm0 0" fill="#d3d3d8"/><path d="m381.996094 213.007812-52.566406-63.023437 1.925781-5.488281c7.179687-20.53125 26.628906-34.320313 48.390625-34.320313 28.269531 0 51.273437 23.003907 51.273437 51.273438 0 25.417969-18.195312 46.71875-43.273437 50.65625zm0 0" fill="#babac0"/><path d="m256 110.175781c-84.910156 0-153.824219 68.914063-153.824219 153.824219 0 84.914062 68.914063 154.511719 153.824219 154.511719s153.824219-69.597657 153.824219-154.511719c0-84.910156-68.914063-153.824219-153.824219-153.824219zm0 0" fill="#9cdd05"/><path d="m409.824219 264c0 84.914062-68.914063 154.511719-153.824219 154.511719v-308.335938c84.910156 0 153.824219 68.914063 153.824219 153.824219zm0 0" fill="#79ab03"/><path d="m256 151.195312c-62.144531 0-112.804688 50.660157-112.804688 112.808594 0 62.144532 50.65625 113.488282 112.804688 113.488282s112.804688-51.34375 112.804688-113.488282c0-62.148437-50.660157-112.808594-112.804688-112.808594zm0 0" fill="#e7e7e7"/><path d="m368.804688 264c0-62.144531-50.65625-112.804688-112.804688-112.804688v226.292969c62.144531.003907 112.804688-51.34375 112.804688-113.488281zm0 0" fill="#d3d3d8"/><path d="m245.746094 161.449219h20.507812v30.765625h-20.507812zm0 0" fill="#babac0"/><path d="m256 161.449219h10.253906v30.765625h-10.253906zm0 0" fill="#a1a1a7"/><path d="m245.746094 192.214844h20.507812v51.277344h-20.507812zm0 0" fill="#53433f"/><path d="m327.785156 253.746094h30.765625v20.511718h-30.765625zm0 0" fill="#a1a1a7"/><path d="m153.449219 253.746094h30.765625v20.511718h-30.765625zm0 0" fill="#babac0"/><path d="m321.265625 184.230469 14.5 14.5-21.75 21.753906-14.503906-14.5zm0 0" fill="#a1a1a7"/><g fill="#babac0"><path d="m197.984375 308.195312 14.503906 14.503907-21.753906 21.75-14.5-14.5zm0 0"/><path d="m245.746094 336.46875h20.507812v30.765625h-20.507812zm0 0"/><path d="m190.734375 184.230469 21.75 21.753906-14.5 14.5-21.75-21.75zm0 0"/></g><path d="m314.015625 308.195312 21.75 21.75-14.5 14.503907-21.75-21.753907zm0 0" fill="#a1a1a7"/><path d="m204.726562 253.746094h30.761719v20.511718h-30.761719zm0 0" fill="#53433f"/><path d="m256 192.214844h10.253906v51.277344h-10.253906zm0 0" fill="#3e322e"/><path d="m256 336.46875h10.253906v30.765625h-10.253906zm0 0" fill="#a1a1a7"/><path d="m321.015625 79.546875-6.972656 19.484375c-7.382813-2.664062-15.175781-4.921875-22.96875-6.5625-11.488281-2.253906-23.179688-3.484375-35.074219-3.484375s-23.585938 1.230469-35.074219 3.484375c-7.792969 1.640625-15.585937 3.898438-22.96875 6.5625l-6.972656-19.484375c8.40625-2.871094 17.019531-5.332031 25.839844-7.179687 12.921875-2.664063 26.046875-3.894532 39.175781-3.894532s26.253906 1.230469 39.175781 3.894532c8.816407 1.847656 17.433594 4.308593 25.839844 7.179687zm0 0" fill="#e7e7e7"/><path d="m321.015625 79.546875-6.972656 19.484375c-7.382813-2.664062-15.175781-4.921875-22.96875-6.5625-11.488281-2.253906-23.179688-3.484375-35.074219-3.484375v-20.511719c13.128906 0 26.253906 1.230469 39.175781 3.898438 8.816407 1.84375 17.433594 4.304687 25.839844 7.175781zm0 0" fill="#d3d3d8"/><path d="m256 233.234375c-17.023438 0-30.765625 13.742187-30.765625 30.765625s13.742187 31.449219 30.765625 31.449219 30.765625-14.425781 30.765625-31.449219-13.742187-30.765625-30.765625-30.765625zm0 0" fill="#68544f"/><path d="m286.765625 264c0 17.023438-13.742187 31.449219-30.765625 31.449219v-62.214844c17.023438 0 30.765625 13.742187 30.765625 30.765625zm0 0" fill="#53433f"/></svg>