<svg xmlns="http://www.w3.org/2000/svg" height="512pt" version="1.1" viewBox="0 0 512 512" width="512pt">
<g id="surface1">
<path d="M 512 256 C 512 397.386719 397.386719 512 256 512 C 114.613281 512 0 397.386719 0 256 C 0 114.613281 114.613281 0 256 0 C 397.386719 0 512 114.613281 512 256 Z M 512 256 " style=" stroke:none;fill-rule:nonzero;fill:rgb(3.529412%,80.784314%,40.392157%);fill-opacity:1;" />
<path d="M 512 256 C 512 228.757812 507.730469 202.519531 499.847656 177.894531 L 441.734375 119.78125 L 70.265625 153 L 195.9375 278.671875 L 87.242188 355 L 191.214844 458.972656 L 172.828125 465 L 216.851562 509.023438 C 229.617188 510.980469 242.6875 512 256 512 C 397.386719 512 512 397.386719 512 256 Z M 512 256 " style=" stroke:none;fill-rule:nonzero;fill:rgb(10.196078%,67.843137%,36.078431%);fill-opacity:1;" />
<path d="M 339.171875 465 L 270 395.828125 L 270 312.332031 L 242 312.332031 L 242 395.828125 L 172.828125 465 L 212.425781 465 L 242 435.425781 L 242 465 L 270 465 L 270 435.425781 L 299.574219 465 Z M 339.171875 465 " style=" stroke:none;fill-rule:nonzero;fill:rgb(86.27451%,88.235294%,92.156863%);fill-opacity:1;" />
<path d="M 270 395.828125 L 270 312.332031 L 255.761719 312.332031 L 255.761719 465 L 270 465 L 270 435.425781 L 299.574219 465 L 339.171875 465 Z M 270 395.828125 " style=" stroke:none;fill-rule:nonzero;fill:rgb(80.392157%,82.352941%,88.235294%);fill-opacity:1;" />
<path d="M 87.242188 141 L 424.757812 141 L 424.757812 355 L 87.242188 355 Z M 87.242188 141 " style=" stroke:none;fill-rule:nonzero;fill:rgb(100%,100%,100%);fill-opacity:1;" />
<path d="M 255.761719 141 L 424.757812 141 L 424.757812 355 L 255.761719 355 Z M 255.761719 141 " style=" stroke:none;fill-rule:nonzero;fill:rgb(91.372549%,92.941176%,96.078431%);fill-opacity:1;" />
<path d="M 70.265625 119.78125 L 441.734375 119.78125 L 441.734375 153 L 70.265625 153 Z M 70.265625 119.78125 " style=" stroke:none;fill-rule:nonzero;fill:rgb(86.27451%,88.235294%,92.156863%);fill-opacity:1;" />
<path d="M 255.761719 119.78125 L 441.734375 119.78125 L 441.734375 153 L 255.761719 153 Z M 255.761719 119.78125 " style=" stroke:none;fill-rule:nonzero;fill:rgb(80.392157%,82.352941%,88.235294%);fill-opacity:1;" />
</g>
</svg>