<svg height="512pt" viewBox="0 0 512 512" width="512pt" xmlns="http://www.w3.org/2000/svg"><path d="m512 256c0 141.386719-114.613281 256-256 256s-256-114.613281-256-256 114.613281-256 256-256 256 114.613281 256 256zm0 0" fill="#811c26"/><path d="m504.71875 316.796875-103.566406-103.566406-78.402344-32.730469-199.101562 220.648438 109.859374 109.855468c7.414063.648438 14.910157.996094 22.492188.996094 120.433594 0 221.425781-83.171875 248.71875-195.203125zm0 0" fill="#442236"/><path d="m226.253906 272.945312 12.796875 12.796876-115.398437 115.402343-12.796875-12.796875zm0 0" fill="#6da8d6"/><path d="m288.789062 363.976562-70.382812-70.382812 58.601562-75.664062 35.9375 44.46875c11.375 34.550781 3.324219 74.097656-24.15625 101.578124zm0 0" fill="#d82f30"/><path d="m370.96875 195.84375-58.023438 66.554688-31.671874-31.671876 14.082031-48.207031 48.207031-14.082031zm0 0" fill="#bd1515"/><path d="m285.539062 226.460938-67.132812 67.132812-70.382812-70.382812c27.480468-27.480469 67.027343-35.53125 101.578124-24.160157zm0 0" fill="#f2484b"/><path d="m343.5625 168.4375-62.289062 62.289062-31.671876-31.671874 66.554688-58.023438zm0 0" fill="#d82f30"/><path d="m298.769531 110.847656 102.375 102.375-12.796875 12.800782-102.375-102.378907zm0 0" fill="#bd1515"/></svg>