<?xml version="1.0" encoding="iso-8859-1"?>
<!-- Generator: Adobe Illustrator 19.0.0, SVG Export Plug-In . SVG Version: 6.00 Build 0)  -->
<svg version="1.1" id="Layer_1" xmlns="http://www.w3.org/2000/svg" xmlns:xlink="http://www.w3.org/1999/xlink" x="0px" y="0px"
	 viewBox="0 0 512 512" style="enable-background:new 0 0 512 512;" xml:space="preserve">
<circle style="fill:#FEE187;" cx="256" cy="256" r="256"/>
<path style="fill:#FFC61B;" d="M512,256c0-5.918-0.219-11.785-0.614-17.603l-94.273-94.274l-135.828-1.901L107.17,146.82
	l-5.46,197.673l2.941,21.261v10.724l134.985,134.985C245.05,511.805,250.501,512,256,512C397.384,512,512,397.384,512,256z"/>
<g>
	<rect x="101.71" y="193.939" style="fill:#6CAF5F;" width="308.579" height="10.343"/>
	<rect x="101.71" y="250.828" style="fill:#6CAF5F;" width="308.579" height="10.343"/>
	<rect x="101.71" y="307.717" style="fill:#6CAF5F;" width="308.579" height="10.343"/>
</g>
<g>
	<rect x="255.431" y="193.939" style="fill:#477F3C;" width="154.858" height="10.343"/>
	<rect x="255.431" y="250.828" style="fill:#477F3C;" width="154.858" height="10.343"/>
	<rect x="255.431" y="307.717" style="fill:#477F3C;" width="154.858" height="10.343"/>
	<path style="fill:#477F3C;" d="M393.121,380.121H118.877c-16.356,0-29.665-13.309-29.665-29.667V161.545
		c0-16.358,13.309-29.667,29.665-29.667h274.244c16.358,0,29.667,13.309,29.667,29.667v188.909
		C422.788,366.813,409.479,380.121,393.121,380.121z M118.877,152.566c-4.951,0-8.978,4.029-8.978,8.98v188.909
		c0,4.951,4.027,8.98,8.978,8.98h274.244c4.951,0,8.98-4.029,8.98-8.98V161.545c0-4.951-4.029-8.98-8.98-8.98H118.877z"/>
</g>
<path style="fill:#2E5E24;" d="M393.121,131.879H255.426v20.687h137.695c4.951,0,8.98,4.029,8.98,8.98v188.909
	c0,4.951-4.029,8.98-8.98,8.98H255.426v20.687h137.695c16.358,0,29.667-13.309,29.667-29.667V161.545
	C422.788,145.187,409.479,131.879,393.121,131.879z"/>
<g>
	<circle style="fill:#273B7A;" cx="156.444" cy="199.111" r="18.963"/>
	<circle style="fill:#273B7A;" cx="208.593" cy="199.111" r="18.963"/>
	<circle style="fill:#273B7A;" cx="350.815" cy="199.111" r="18.963"/>
	<circle style="fill:#273B7A;" cx="265.481" cy="312.889" r="18.963"/>
	<circle style="fill:#273B7A;" cx="208.593" cy="312.889" r="18.963"/>
	<circle style="fill:#273B7A;" cx="151.704" cy="312.889" r="18.963"/>
	<circle style="fill:#273B7A;" cx="237.037" cy="257.724" r="18.963"/>
	<circle style="fill:#273B7A;" cx="293.926" cy="257.724" r="18.963"/>
	<circle style="fill:#273B7A;" cx="350.815" cy="257.724" r="18.963"/>
</g>
<g>
</g>
<g>
</g>
<g>
</g>
<g>
</g>
<g>
</g>
<g>
</g>
<g>
</g>
<g>
</g>
<g>
</g>
<g>
</g>
<g>
</g>
<g>
</g>
<g>
</g>
<g>
</g>
<g>
</g>
</svg>
