<?xml version="1.0" encoding="iso-8859-1"?>
<!-- Generator: Adobe Illustrator 19.0.0, SVG Export Plug-In . SVG Version: 6.00 Build 0)  -->
<svg version="1.1" id="Layer_1" xmlns="http://www.w3.org/2000/svg" xmlns:xlink="http://www.w3.org/1999/xlink" x="0px" y="0px"
	 viewBox="0 0 512 512" style="enable-background:new 0 0 512 512;" xml:space="preserve">
<circle style="fill:#366695;" cx="256" cy="256" r="256"/>
<path style="fill:#273B7A;" d="M512,256L369.778,113.778l-34.909,53.872l-1.005-1.005L148.209,395.509
	c0,0,52.92,61.819,104.131,116.445c1.221,0.017,2.436,0.047,3.66,0.047C397.384,512,512,397.384,512,256z"/>
<rect x="312.889" y="170.667" style="fill:#8BC180;" width="56.889" height="68.517"/>
<rect x="312.889" y="223.677" style="fill:#6CAF5F;" width="56.889" height="68.517"/>
<rect x="312.889" y="276.687" style="fill:#8BC180;" width="56.889" height="68.517"/>
<rect x="312.889" y="329.697" style="fill:#6CAF5F;" width="56.889" height="68.517"/>
<path style="fill:#FFC61B;" d="M322.37,170.667h47.407v-56.889h-213.19c-7.933,0-14.367,6.432-14.367,14.367v255.712
	c0,7.933,6.432,14.365,14.367,14.365H322.37V170.667z"/>
<polygon style="fill:#EAA22F;" points="225.545,113.778 225.545,398.222 322.37,398.222 322.37,170.667 369.778,170.667 
	369.778,113.778 "/>
<rect x="170.667" y="170.667" style="fill:#FFEDB5;" width="113.778" height="56.889"/>
<rect x="225.539" y="170.667" style="fill:#FEE187;" width="58.906" height="56.889"/>
<g>
</g>
<g>
</g>
<g>
</g>
<g>
</g>
<g>
</g>
<g>
</g>
<g>
</g>
<g>
</g>
<g>
</g>
<g>
</g>
<g>
</g>
<g>
</g>
<g>
</g>
<g>
</g>
<g>
</g>
</svg>
