<?xml version="1.0" encoding="iso-8859-1"?>
<!-- Generator: Adobe Illustrator 19.0.0, SVG Export Plug-In . SVG Version: 6.00 Build 0)  -->
<svg version="1.1" id="Layer_1" xmlns="http://www.w3.org/2000/svg" xmlns:xlink="http://www.w3.org/1999/xlink" x="0px" y="0px"
	 viewBox="0 0 512 512" style="enable-background:new 0 0 512 512;" xml:space="preserve">
<circle style="fill:#71E2EF;" cx="256" cy="256" r="256"/>
<path style="fill:#38C6D9;" d="M265.993,511.788c133.049-5.11,240.056-111.742,245.751-244.641L398.222,152.135l-13.148,43.741
	l-43.741-43.741l-40.779,101.443L199.111,152.135l-90.85,91.022l65.303,65.303l-85.137,25.762L265.993,511.788z"/>
<g>
	<rect x="113.778" y="152.135" style="fill:#273B7A;" width="85.333" height="28.444"/>
	<rect x="369.778" y="152.135" style="fill:#273B7A;" width="28.444" height="28.444"/>
	<path style="fill:#273B7A;" d="M392.692,358.141h-17.384c-3.055,0-5.53-2.476-5.53-5.53v-17.384c0-3.055,2.476-5.53,5.53-5.53
		h17.384c3.055,0,5.53,2.476,5.53,5.53v17.384C398.222,355.666,395.747,358.141,392.692,358.141z"/>
	<path style="fill:#273B7A;" d="M136.692,358.141h-17.384c-3.055,0-5.53-2.476-5.53-5.53v-17.384c0-3.055,2.476-5.53,5.53-5.53
		h17.384c3.055,0,5.53,2.476,5.53,5.53v17.384C142.222,355.666,139.747,358.141,136.692,358.141z"/>
	<rect x="312.889" y="152.135" style="fill:#273B7A;" width="28.444" height="28.444"/>
</g>
<path style="fill:#366695;" d="M409.859,341.333H102.141c-9.283,0-16.808-7.525-16.808-16.808v-137.05
	c0-9.283,7.525-16.808,16.808-16.808h307.717c9.283,0,16.808,7.525,16.808,16.808v137.05
	C426.667,333.808,419.142,341.333,409.859,341.333z"/>
<path style="fill:#273B7A;" d="M409.859,170.667H255.426v170.667h154.433c9.283,0,16.808-7.525,16.808-16.808v-137.05
	C426.667,178.192,419.142,170.667,409.859,170.667z"/>
<path style="fill:#FFFFFF;" d="M399.141,324.267H112.859c-4.729,0-8.563-3.834-8.563-8.563V196.296c0-4.729,3.834-8.563,8.563-8.563
	h286.282c4.729,0,8.563,3.834,8.563,8.563v119.408C407.704,320.433,403.87,324.267,399.141,324.267z"/>
<path style="fill:#D0D1D3;" d="M399.141,187.733H255.426v136.533h143.715c4.729,0,8.563-3.834,8.563-8.563V196.296
	C407.704,191.567,403.87,187.733,399.141,187.733z"/>
<g>
	<path style="fill:#273B7A;" d="M227.556,298.451c-4.284,0-7.758-3.474-7.758-7.758v-61.63h-20.687
		c-4.284,0-7.758-3.474-7.758-7.758s3.474-7.758,7.758-7.758h28.444c4.284,0,7.758,3.474,7.758,7.758v69.387
		C235.313,294.978,231.839,298.451,227.556,298.451z"/>
	<path style="fill:#273B7A;" d="M170.667,298.451h-28.444c-4.284,0-7.758-3.474-7.758-7.758v-69.387
		c0-4.284,3.474-7.758,7.758-7.758h28.444c4.284,0,7.758,3.474,7.758,7.758v69.387C178.424,294.978,174.951,298.451,170.667,298.451
		z M149.98,282.936h12.929v-53.872H149.98V282.936z"/>
	<path style="fill:#273B7A;" d="M312.889,298.451h-28.444c-4.284,0-7.758-3.474-7.758-7.758v-69.387
		c0-4.284,3.474-7.758,7.758-7.758h28.444c4.284,0,7.758,3.474,7.758,7.758v69.387C320.646,294.978,317.173,298.451,312.889,298.451
		z M292.202,282.936h12.929v-53.872h-12.929V282.936z"/>
	<path style="fill:#273B7A;" d="M369.778,298.451h-28.444c-4.284,0-7.758-3.474-7.758-7.758v-69.387
		c0-4.284,3.474-7.758,7.758-7.758h28.444c4.284,0,7.758,3.474,7.758,7.758v69.387C377.535,294.978,374.062,298.451,369.778,298.451
		z M349.091,282.936h12.929v-53.872h-12.929V282.936z"/>
	<path style="fill:#273B7A;" d="M255.995,249.535c-2.036,0-4.034-0.827-5.484-2.276c-1.448-1.448-2.274-3.448-2.274-5.482
		c0-2.036,0.826-4.034,2.274-5.484c1.45-1.448,3.448-2.274,5.484-2.274c2.05,0,4.051,0.826,5.482,2.274
		c1.448,1.45,2.276,3.448,2.276,5.484c0,2.034-0.827,4.034-2.276,5.482C260.046,248.708,258.045,249.535,255.995,249.535z"/>
	<path style="fill:#273B7A;" d="M255.995,277.98c-2.036,0-4.034-0.827-5.484-2.276c-1.448-1.448-2.274-3.448-2.274-5.482
		c0-2.036,0.826-4.034,2.274-5.484c1.45-1.448,3.448-2.274,5.484-2.274c2.05,0,4.051,0.826,5.482,2.274
		c1.448,1.45,2.276,3.448,2.276,5.484c0,2.05-0.827,4.051-2.276,5.482C260.046,277.152,258.045,277.98,255.995,277.98z"/>
</g>
<g>
</g>
<g>
</g>
<g>
</g>
<g>
</g>
<g>
</g>
<g>
</g>
<g>
</g>
<g>
</g>
<g>
</g>
<g>
</g>
<g>
</g>
<g>
</g>
<g>
</g>
<g>
</g>
<g>
</g>
</svg>
