<?xml version="1.0" encoding="iso-8859-1"?>
<!-- Generator: Adobe Illustrator 19.0.0, SVG Export Plug-In . SVG Version: 6.00 Build 0)  -->
<svg version="1.1" id="Layer_1" xmlns="http://www.w3.org/2000/svg" xmlns:xlink="http://www.w3.org/1999/xlink" x="0px" y="0px"
	 viewBox="0 0 512 512" style="enable-background:new 0 0 512 512;" xml:space="preserve">
<circle style="fill:#E09112;" cx="256" cy="256" r="256"/>
<path style="fill:#FF5419;" d="M512,256c0-6.884-0.279-13.703-0.814-20.451L365.958,90.321l-22.757,9.952l-175.981,31.606
	l6.896,230.715l-6.896,95.534l51.105,51.105C230.621,511.047,243.198,512,256,512C397.384,512,512,397.384,512,256z"/>
<rect x="170.667" y="312.889" style="fill:#FEE187;" width="170.667" height="113.778"/>
<rect x="255.431" y="312.889" style="fill:#FFC61B;" width="85.907" height="113.778"/>
<g>
	<rect x="167.219" y="252.983" style="fill:#59595B;" width="6.896" height="205.145"/>
	<rect x="337.886" y="252.983" style="fill:#59595B;" width="6.896" height="205.145"/>
</g>
<path style="fill:#FFFFFF;" d="M157.162,256h197.675c8.251,0,14.941-6.689,14.941-14.941V100.274
	c0-8.251-6.689-14.941-14.941-14.941H157.162c-8.251,0-14.941,6.689-14.941,14.941v140.786C142.222,249.311,148.911,256,157.162,256
	z"/>
<path style="fill:#D0D1D3;" d="M354.837,85.333h-99.412V256h99.412c8.251,0,14.941-6.689,14.941-14.941V100.274
	C369.778,92.022,363.089,85.333,354.837,85.333z"/>
<path style="fill:#A6A8AA;" d="M197.673,224.74h116.652c5.396,0,9.769-4.374,9.769-9.768v-85.797c0-5.396-4.374-9.768-9.769-9.768
	H197.673c-5.396,0-9.769,4.374-9.769,9.768v85.797C187.906,220.367,192.279,224.74,197.673,224.74z"/>
<path style="fill:#808183;" d="M314.325,119.408h-58.901v105.334h58.901c5.396,0,9.769-4.374,9.769-9.769v-85.797
	C324.094,123.782,319.721,119.408,314.325,119.408z"/>
<path style="fill:#59595B;" d="M291.111,187.044h-70.222c-1.427,0-2.586,1.158-2.586,2.586v70.222c0,1.427,1.158,2.586,2.586,2.586
	s2.586-1.158,2.586-2.586v-14.438h12.916v14.438c0,1.427,1.158,2.586,2.586,2.586s2.586-1.158,2.586-2.586v-14.438h11.852v14.438
	c0,1.427,1.158,2.586,2.586,2.586s2.586-1.158,2.586-2.586v-14.438h11.852v14.438c0,1.427,1.158,2.586,2.586,2.586
	s2.586-1.158,2.586-2.586v-14.438h12.915v14.438c0,1.427,1.158,2.586,2.586,2.586s2.586-1.158,2.586-2.586V189.63
	C293.697,188.202,292.538,187.044,291.111,187.044z M223.475,209.239h12.916v12.915h-12.916V209.239z M241.562,209.239h11.852
	v12.915h-11.852V209.239z M258.586,209.239h11.852v12.915h-11.852V209.239z M275.609,209.239h12.915v12.915h-12.915V209.239z
	 M288.525,192.215v11.852h-65.05v-11.852H288.525z M223.475,240.242v-12.916h12.916v12.916H223.475z M241.562,240.242v-12.916
	h11.852v12.916H241.562z M258.586,240.242v-12.916h11.852v12.916H258.586z M275.609,240.242v-12.916h12.915v12.916H275.609z"/>
<path style="fill:#272525;" d="M291.111,187.044h-35.685v5.172h33.099v11.852h-33.099v58.301c0.184,0.041,0.376,0.069,0.574,0.069
	c1.427,0,2.586-1.158,2.586-2.586v-14.438h11.852v14.438c0,1.427,1.158,2.586,2.586,2.586s2.586-1.158,2.586-2.586v-14.438h12.915
	v14.438c0,1.427,1.158,2.586,2.586,2.586s2.586-1.158,2.586-2.586V189.63C293.697,188.202,292.538,187.044,291.111,187.044z
	 M270.438,240.242h-11.852v-12.916h11.852V240.242z M270.438,222.155h-11.852v-12.915h11.852V222.155z M288.525,240.242h-12.915
	v-12.916h12.915V240.242z M288.525,222.155h-12.915v-12.915h12.915V222.155z"/>
<g>
</g>
<g>
</g>
<g>
</g>
<g>
</g>
<g>
</g>
<g>
</g>
<g>
</g>
<g>
</g>
<g>
</g>
<g>
</g>
<g>
</g>
<g>
</g>
<g>
</g>
<g>
</g>
<g>
</g>
</svg>
