<?xml version="1.0" encoding="iso-8859-1"?>
<!-- Generator: Adobe Illustrator 19.0.0, SVG Export Plug-In . SVG Version: 6.00 Build 0)  -->
<svg version="1.1" id="Layer_1" xmlns="http://www.w3.org/2000/svg" xmlns:xlink="http://www.w3.org/1999/xlink" x="0px" y="0px"
	 viewBox="0 0 512 512" style="enable-background:new 0 0 512 512;" xml:space="preserve">
<circle style="fill:#FFC61B;" cx="256" cy="256" r="256"/>
<path style="fill:#EAA22F;" d="M512,256c0-1.412-0.031-2.815-0.053-4.222L405.221,145.055L295.372,338.11l-210.039,3.224L256,512
	C397.384,512,512,397.384,512,256z"/>
<path style="fill:#6CAF5F;" d="M116.005,341.333h279.99c9.085,0,16.449-7.365,16.449-16.449V158.672
	c0-9.085-7.365-16.45-16.449-16.45h-279.99c-9.085,0-16.45,7.365-16.45,16.45v166.212
	C99.556,333.969,106.92,341.333,116.005,341.333z"/>
<g>
	<path style="fill:#477F3C;" d="M395.995,142.222H255.426v199.111h140.569c9.085,0,16.45-7.365,16.45-16.449V158.672
		C412.444,149.587,405.08,142.222,395.995,142.222z"/>
	<rect x="85.333" y="312.889" style="fill:#477F3C;" width="341.333" height="28.444"/>
</g>
<rect x="255.431" y="312.889" style="fill:#2E5E24;" width="171.236" height="28.444"/>
<rect x="142.222" y="284.444" style="fill:#FFEDB5;" width="56.889" height="28.444"/>
<g>
	<rect x="169.374" y="199.111" style="fill:#FFFFFF;" width="10.343" height="56.889"/>
	<rect x="275.394" y="232.072" style="fill:#FFFFFF;" width="28.444" height="10.343"/>
	<rect x="275.394" y="212.678" style="fill:#FFFFFF;" width="28.444" height="10.343"/>
	<rect x="245.657" y="199.111" style="fill:#FFFFFF;" width="10.343" height="56.889"/>
	<polygon style="fill:#FFFFFF;" points="226.263,222.384 217.212,222.384 217.212,213.333 206.869,213.333 206.869,222.384 
		197.82,222.384 197.818,232.727 206.869,232.727 206.869,241.778 217.212,241.778 217.212,232.727 226.263,232.727 	"/>
</g>
<g>
</g>
<g>
</g>
<g>
</g>
<g>
</g>
<g>
</g>
<g>
</g>
<g>
</g>
<g>
</g>
<g>
</g>
<g>
</g>
<g>
</g>
<g>
</g>
<g>
</g>
<g>
</g>
<g>
</g>
</svg>
