<?xml version="1.0" encoding="iso-8859-1"?>
<!-- Generator: Adobe Illustrator 19.0.0, SVG Export Plug-In . SVG Version: 6.00 Build 0)  -->
<svg version="1.1" id="Layer_1" xmlns="http://www.w3.org/2000/svg" xmlns:xlink="http://www.w3.org/1999/xlink" x="0px" y="0px"
	 viewBox="0 0 512 512" style="enable-background:new 0 0 512 512;" xml:space="preserve">
<circle style="fill:#FFAD9E;" cx="256" cy="256" r="256"/>
<path style="fill:#FF6262;" d="M512,256c0-5.187-0.172-10.333-0.478-15.444L369.778,98.811l-95.389,234.765l15.381,15.381
	l-147.547,53.889L251.316,511.94c1.558,0.028,3.119,0.059,4.684,0.059C397.384,512,512,397.384,512,256z"/>
<path style="fill:#273B7A;" d="M151.416,407.273h209.167c6.506,0,11.779-5.273,11.779-11.779V106.165
	c0-6.506-5.273-11.779-11.779-11.779H151.416c-6.506,0-11.781,5.273-11.781,11.779v289.328
	C139.636,401.999,144.91,407.273,151.416,407.273z"/>
<path style="fill:#121149;" d="M360.582,94.384H255.424v312.889h105.158c6.506,0,11.779-5.273,11.779-11.779V106.165
	C372.364,99.657,367.088,94.384,360.582,94.384z"/>
<path style="fill:#71E2EF;" d="M162.118,199.111H349.88c3.134,0,5.675-2.541,5.675-5.673v-73.985c0-3.134-2.541-5.673-5.675-5.673
	H162.118c-3.134,0-5.673,2.541-5.673,5.673v73.985C156.444,196.57,158.985,199.111,162.118,199.111z"/>
<path style="fill:#38C6D9;" d="M349.88,113.778h-94.456v85.333h94.456c3.134,0,5.675-2.541,5.675-5.675v-73.983
	C355.556,116.319,353.015,113.778,349.88,113.778z"/>
<g>
	<rect x="156.444" y="217.212" style="fill:#FFFFFF;" width="33.185" height="28.444"/>
	<rect x="267.067" y="217.212" style="fill:#FFFFFF;" width="33.185" height="28.444"/>
	<rect x="322.37" y="217.212" style="fill:#FFFFFF;" width="33.185" height="28.444"/>
	<rect x="211.747" y="217.212" style="fill:#FFFFFF;" width="33.185" height="28.444"/>
	<rect x="156.444" y="264.62" style="fill:#FFFFFF;" width="33.185" height="28.444"/>
	<rect x="267.067" y="264.62" style="fill:#FFFFFF;" width="33.185" height="28.444"/>
	<rect x="211.747" y="264.62" style="fill:#FFFFFF;" width="33.185" height="28.444"/>
	<rect x="156.444" y="312.027" style="fill:#FFFFFF;" width="33.185" height="28.444"/>
	<rect x="267.067" y="312.027" style="fill:#FFFFFF;" width="33.185" height="28.444"/>
	<rect x="211.747" y="312.027" style="fill:#FFFFFF;" width="33.185" height="28.444"/>
	<rect x="156.444" y="359.434" style="fill:#FFFFFF;" width="33.185" height="28.444"/>
	<rect x="267.067" y="359.434" style="fill:#FFFFFF;" width="33.185" height="28.444"/>
	<rect x="322.37" y="264.62" style="fill:#FFFFFF;" width="33.185" height="123.259"/>
	<rect x="211.747" y="359.434" style="fill:#FFFFFF;" width="33.185" height="28.444"/>
</g>
<g>
</g>
<g>
</g>
<g>
</g>
<g>
</g>
<g>
</g>
<g>
</g>
<g>
</g>
<g>
</g>
<g>
</g>
<g>
</g>
<g>
</g>
<g>
</g>
<g>
</g>
<g>
</g>
<g>
</g>
</svg>
