<?xml version="1.0" encoding="iso-8859-1"?>
<!-- Generator: Adobe Illustrator 19.0.0, SVG Export Plug-In . SVG Version: 6.00 Build 0)  -->
<svg version="1.1" id="Layer_1" xmlns="http://www.w3.org/2000/svg" xmlns:xlink="http://www.w3.org/1999/xlink" x="0px" y="0px"
	 viewBox="0 0 512 512" style="enable-background:new 0 0 512 512;" xml:space="preserve">
<circle style="fill:#FFC61B;" cx="256" cy="256" r="256"/>
<path style="fill:#EAA22F;" d="M293.874,509.206c119.53-17.727,212.111-118.069,217.833-241.114l-94.291-99.487l-19.77,11.759
	l-7.866-4.849l-11.543,6.07l-95.001-94.975l-57.28,115.181l-75.957-55.172l-16.237,12.843l73.304,176.897l-52.619,33.42
	L293.874,509.206z"/>
<path style="fill:#386895;" d="M280.205,85.333h-48.412c-2.341,0-4.237,1.898-4.237,4.237v19.968c0,2.341,1.898,4.237,4.237,4.237
	h9.985v42.667h28.444v-42.665h9.985c2.341,0,4.237-1.898,4.237-4.237v-19.97C284.444,87.231,282.546,85.333,280.205,85.333z"/>
<path style="fill:#273B7A;" d="M280.205,85.333h-24.781v71.111h14.796v-42.667h9.985c2.341,0,4.237-1.898,4.237-4.237v-19.97
	C284.444,87.231,282.546,85.333,280.205,85.333z"/>
<path style="fill:#386895;" d="M129.886,132.498l-34.232,34.237c-1.655,1.655-1.655,4.339,0,5.994l14.119,14.122
	c1.655,1.655,4.339,1.655,5.994,0l7.059-7.061l30.17,30.175l20.113-20.116l-30.17-30.174l7.059-7.061
	c1.655-1.655,1.655-4.339,0-5.994l-14.119-14.122C134.225,130.841,131.541,130.843,129.886,132.498z"/>
<g>
	<path style="fill:#273B7A;" d="M382.114,132.498l34.232,34.238c1.655,1.655,1.655,4.339,0,5.994l-14.119,14.122
		c-1.655,1.655-4.339,1.655-5.994,0l-7.059-7.061l-30.17,30.175l-20.113-20.116l30.17-30.175l-7.059-7.061
		c-1.655-1.655-1.655-4.339,0-5.994l14.119-14.122C377.775,130.841,380.459,130.843,382.114,132.498z"/>
	<circle style="fill:#273B7A;" cx="256" cy="270.222" r="142.222"/>
</g>
<path style="fill:#121149;" d="M256,128c-0.193,0-0.381,0.014-0.574,0.014v284.415c0.193,0,0.381,0.014,0.574,0.014
	c78.546,0,142.222-63.676,142.222-142.222S334.546,128,256,128z"/>
<circle style="fill:#386895;" cx="256" cy="270.222" r="105.158"/>
<path style="fill:#273B7A;" d="M256,165.064c-0.193,0-0.381,0.014-0.574,0.014v210.287c0.193,0,0.381,0.014,0.574,0.014
	c58.077,0,105.158-47.082,105.158-105.158S314.077,165.064,256,165.064z"/>
<path style="fill:#FFEDB5;" d="M311.882,312.889H200.116c-8.411,0-15.229-6.818-15.229-15.227v-54.877
	c0-8.411,6.818-15.227,15.229-15.227h111.766c8.411,0,15.227,6.818,15.227,15.227v54.877
	C327.111,306.071,320.293,312.889,311.882,312.889z"/>
<path style="fill:#FEE187;" d="M311.882,227.556h-56.458v85.333h56.458c8.411,0,15.227-6.818,15.227-15.227v-54.877
	C327.111,234.374,320.293,227.556,311.882,227.556z"/>
<g>
</g>
<g>
</g>
<g>
</g>
<g>
</g>
<g>
</g>
<g>
</g>
<g>
</g>
<g>
</g>
<g>
</g>
<g>
</g>
<g>
</g>
<g>
</g>
<g>
</g>
<g>
</g>
<g>
</g>
</svg>
