<?xml version="1.0" encoding="iso-8859-1"?>
<!-- Generator: Adobe Illustrator 19.0.0, SVG Export Plug-In . SVG Version: 6.00 Build 0)  -->
<svg version="1.1" id="Layer_1" xmlns="http://www.w3.org/2000/svg" xmlns:xlink="http://www.w3.org/1999/xlink" x="0px" y="0px"
	 viewBox="0 0 512 512" style="enable-background:new 0 0 512 512;" xml:space="preserve">
<circle style="fill:#FEE187;" cx="256" cy="256" r="256"/>
<path style="fill:#FFC61B;" d="M138.292,369.347l141.54,141.54c123.351-11.39,221.339-110.275,231.319-234.029L346.791,112.499
	l-172.389-4.18l0.574,74.702l37.352,9.752l-1.724,169.893L138.292,369.347z"/>
<path style="fill:#386895;" d="M156.239,369.778h199.521c8.239,0,15.419-7.008,17.417-16.999l19.468-97.339
	c2.832-14.164-5.737-27.884-17.417-27.884H136.771c-11.679,0-20.251,13.721-17.417,27.884l19.468,97.339
	C140.821,362.77,148.001,369.778,156.239,369.778z"/>
<g>
	<path style="fill:#273B7A;" d="M375.229,227.556H255.426v142.222h100.335c8.239,0,15.419-7.008,17.417-16.999l19.468-97.339
		C395.478,241.276,386.908,227.556,375.229,227.556z"/>
	<path style="fill:#273B7A;" d="M369.778,354.909h-63.354V198.68h17.956c13.624,0,24.71-11.086,24.71-24.71v-51.428
		c0-13.624-11.086-24.71-24.71-24.71H187.618c-13.624,0-24.709,11.086-24.709,24.71v51.428c0,13.624,11.085,24.71,24.709,24.71
		h17.958v156.229h-63.354c-4.284,0-7.758,3.474-7.758,7.758s3.474,7.758,7.758,7.758h227.556c4.284,0,7.758-3.474,7.758-7.758
		S374.062,354.909,369.778,354.909z M213.333,183.165h-25.715c-5.068,0-9.194-4.125-9.194-9.195v-51.428
		c0-5.07,4.125-9.195,9.194-9.195H324.38c5.07,0,9.195,4.125,9.195,9.195v51.428c0,5.07-4.125,9.195-9.195,9.195h-25.714
		c-4.284,0-7.758,3.474-7.758,7.758v163.987h-69.818V190.923C221.091,186.639,217.617,183.165,213.333,183.165z"/>
</g>
<path style="fill:#121149;" d="M369.778,354.909h-63.354V198.68h17.956c13.624,0,24.71-11.086,24.71-24.71v-51.428
	c0-13.624-11.086-24.71-24.71-24.71h-68.955v15.515h68.954c5.07,0,9.195,4.125,9.195,9.195v51.428c0,5.07-4.125,9.195-9.195,9.195
	h-25.714c-4.284,0-7.758,3.474-7.758,7.758v163.987h-35.483v15.515h114.352c4.284,0,7.758-3.474,7.758-7.758
	S374.062,354.909,369.778,354.909z"/>
<g>
</g>
<g>
</g>
<g>
</g>
<g>
</g>
<g>
</g>
<g>
</g>
<g>
</g>
<g>
</g>
<g>
</g>
<g>
</g>
<g>
</g>
<g>
</g>
<g>
</g>
<g>
</g>
<g>
</g>
</svg>
