<?xml version="1.0" encoding="iso-8859-1"?>
<!-- Generator: Adobe Illustrator 19.0.0, SVG Export Plug-In . SVG Version: 6.00 Build 0)  -->
<svg version="1.1" id="Layer_1" xmlns="http://www.w3.org/2000/svg" xmlns:xlink="http://www.w3.org/1999/xlink" x="0px" y="0px"
	 viewBox="0 0 512 512" style="enable-background:new 0 0 512 512;" xml:space="preserve">
<circle style="fill:#FFC61B;" cx="256" cy="256" r="256"/>
<path style="fill:#EAA22F;" d="M512,256c0-4.889-0.15-9.74-0.421-14.562l-87.969-87.967l-83.784,69.637l-0.703-0.703L126.29,405.913
	l104.886,104.886C239.345,511.585,247.624,512,256,512C397.384,512,512,397.384,512,256z"/>
<polygon style="fill:#386895;" points="153.095,325.446 110.828,390.451 126.29,405.913 191.295,363.646 202.364,374.717 
	423.61,153.471 363.27,93.131 142.024,314.377 "/>
<g>
	<polygon style="fill:#273B7A;" points="117.626,397.248 126.29,405.913 191.295,363.646 202.364,374.717 423.61,153.471 
		392.507,122.366 	"/>
	
		<rect x="181.13" y="283.174" transform="matrix(0.7071 0.7071 -0.7071 0.7071 272.6897 -72.4471)" style="fill:#273B7A;" width="85.333" height="19.537"/>
</g>
<rect x="210.76" y="195.229" transform="matrix(0.7071 -0.7071 0.7071 0.7071 -86.543 266.857)" style="fill:#6193B5;" width="136.187" height="85.332"/>
<rect x="271.473" y="184.417" transform="matrix(0.7071 0.7071 -0.7071 0.7071 264.5063 -133.5537)" style="fill:#386895;" width="43.987" height="136.187"/>
<rect x="323.815" y="139.346" transform="matrix(0.7071 -0.7071 0.7071 0.7071 -30.6611 290.0023)" style="fill:#273B7A;" width="21.837" height="85.333"/>
<ellipse transform="matrix(-0.7071 0.7071 -0.7071 -0.7071 644.2353 208.9359)" style="fill:#263A7A;" cx="278.846" cy="237.893" rx="56.888" ry="28.444"/>
<g>
	
		<rect x="216.424" y="297.808" transform="matrix(0.7071 0.7071 -0.7071 0.7071 287.3201 -78.4996)" style="fill:#121149;" width="43.987" height="19.537"/>
	
		<rect x="327.359" y="185.716" transform="matrix(0.7071 0.7071 -0.7071 0.7071 241.3646 -189.4368)" style="fill:#121149;" width="43.987" height="21.837"/>
	<path style="fill:#121149;" d="M318.102,196.772l-80.358,80.358c0.281,0.338,0.574,0.667,0.886,0.981
		c11.109,11.109,38.124,2.103,60.34-20.113c22.216-22.216,31.222-49.231,20.113-60.34
		C318.769,197.346,318.44,197.053,318.102,196.772z"/>
</g>
<g>
</g>
<g>
</g>
<g>
</g>
<g>
</g>
<g>
</g>
<g>
</g>
<g>
</g>
<g>
</g>
<g>
</g>
<g>
</g>
<g>
</g>
<g>
</g>
<g>
</g>
<g>
</g>
<g>
</g>
</svg>
