<?xml version="1.0" encoding="iso-8859-1"?>
<!-- Generator: Adobe Illustrator 19.0.0, SVG Export Plug-In . SVG Version: 6.00 Build 0)  -->
<svg version="1.1" id="Layer_1" xmlns="http://www.w3.org/2000/svg" xmlns:xlink="http://www.w3.org/1999/xlink" x="0px" y="0px"
	 viewBox="0 0 512 512" style="enable-background:new 0 0 512 512;" xml:space="preserve">
<circle style="fill:#FF7F4F;" cx="256" cy="256" r="256"/>
<path style="fill:#D35933;" d="M258.057,511.974C398.493,510.866,512,396.697,512,256c0-3.325-0.085-6.632-0.21-9.926
	L330.774,65.058L318.95,90.621l-25.562-25.562l-1.005,36.383L256,65.058l3.615,41.003l-41.003-41.003l5.803,43.189l-43.191-43.189
	l-12.002,160.277l59.764,59.764l-64.019,132.796L258.057,511.974z"/>
<polygon style="fill:#273B7A;" points="316.552,199.111 344.997,199.111 344.997,85.333 330.774,65.057 316.552,85.333 "/>
<polygon style="fill:#FFC61B;" points="344.997,85.333 330.774,65.058 316.552,85.333 316.552,90.505 344.997,90.505 "/>
<polygon style="fill:#386895;" points="241.778,199.111 270.222,199.111 270.222,85.333 256,65.057 241.778,85.333 "/>
<polygon style="fill:#273B7A;" points="270.222,85.333 256,65.058 255.426,65.876 255.426,199.111 270.222,199.111 "/>
<polygon style="fill:#FEE187;" points="270.222,85.333 256,65.058 241.778,85.333 241.778,90.505 270.222,90.505 "/>
<polygon style="fill:#FFC61B;" points="270.222,85.333 256,65.058 255.426,65.876 255.426,90.505 270.222,90.505 "/>
<polygon style="fill:#386895;" points="204.39,199.111 232.834,199.111 232.834,85.333 218.612,65.057 204.39,85.333 "/>
<polygon style="fill:#FEE187;" points="232.834,85.333 218.612,65.058 204.39,85.333 204.39,90.505 232.834,90.505 "/>
<polygon style="fill:#386895;" points="167.003,199.111 195.448,199.111 195.448,85.333 181.226,65.057 167.003,85.333 "/>
<polygon style="fill:#FEE187;" points="195.448,85.333 181.226,65.058 167.003,85.333 167.003,90.505 195.448,90.505 "/>
<polygon style="fill:#273B7A;" points="279.164,199.111 307.609,199.111 307.609,85.333 293.386,65.057 279.164,85.333 "/>
<polygon style="fill:#FFC61B;" points="307.609,85.333 293.386,65.058 279.164,85.333 279.164,90.505 307.609,90.505 "/>
<path style="fill:#273B7A;" d="M185.966,426.667h140.067c16.305,0,29.522-13.217,29.522-29.522V170.667H156.444v226.478
	C156.444,413.449,169.662,426.667,185.966,426.667z"/>
<path style="fill:#121149;" d="M255.426,170.667v256h70.608c16.305,0,29.522-13.217,29.522-29.522V170.667H255.426z"/>
<rect x="181.217" y="211.178" style="fill:#38C6D9;" width="149.549" height="62.923"/>
<rect x="255.431" y="211.178" style="fill:#02B2B2;" width="75.348" height="62.923"/>
<g>
</g>
<g>
</g>
<g>
</g>
<g>
</g>
<g>
</g>
<g>
</g>
<g>
</g>
<g>
</g>
<g>
</g>
<g>
</g>
<g>
</g>
<g>
</g>
<g>
</g>
<g>
</g>
<g>
</g>
</svg>
