<?xml version="1.0" encoding="iso-8859-1"?>
<!-- Generator: Adobe Illustrator 19.0.0, SVG Export Plug-In . SVG Version: 6.00 Build 0)  -->
<svg version="1.1" id="Layer_1" xmlns="http://www.w3.org/2000/svg" xmlns:xlink="http://www.w3.org/1999/xlink" x="0px" y="0px"
	 viewBox="0 0 512 512" style="enable-background:new 0 0 512 512;" xml:space="preserve">
<circle style="fill:#FF6262;" cx="256" cy="256" r="256"/>
<path style="fill:#FF314F;" d="M512,256c0-2.694-0.055-5.377-0.138-8.051l-108.82-108.82l-60.594,50.466l-3.843-3.843
	l-217.15,194.734L252.93,511.96c1.024,0.012,2.045,0.038,3.07,0.038C397.384,512,512,397.384,512,256z"/>
<polygon style="fill:#FFFFFF;" points="282.362,259.808 242.135,219.582 342.702,119.015 403.041,139.13 "/>
<polygon style="fill:#D0D1D3;" points="262.106,239.552 282.362,259.808 403.041,139.13 372.657,129.002 "/>
<path style="fill:#386895;" d="M121.456,380.488L121.456,380.488c16.662,16.662,43.677,16.662,60.34,0l140.793-140.793
	c16.662-16.662,16.662-43.677,0-60.34l0,0c-16.662-16.662-43.677-16.662-60.34,0L121.456,320.148
	C104.793,336.81,104.793,363.825,121.456,380.488z"/>
<path style="fill:#273B7A;" d="M322.588,179.355c-0.048-0.048-0.102-0.088-0.15-0.136L121.32,380.337
	c0.048,0.048,0.088,0.102,0.136,0.15l0,0c16.663,16.663,43.677,16.663,60.34,0l140.793-140.793
	C339.251,223.032,339.251,196.018,322.588,179.355L322.588,179.355z"/>
<path style="fill:#FFEDB5;" d="M150.914,351.029L150.914,351.029c4.713,4.713,12.354,4.713,17.065,0L293.128,225.88
	c4.713-4.713,4.713-12.354,0-17.065l0,0c-4.713-4.713-12.354-4.713-17.065,0L150.914,333.964
	C146.201,338.675,146.201,346.315,150.914,351.029z"/>
<path style="fill:#FEE187;" d="M292.979,208.679L150.78,350.88c0.047,0.048,0.088,0.102,0.136,0.15l0,0
	c4.713,4.713,12.354,4.713,17.067,0l125.149-125.149c4.713-4.713,4.713-12.354,0-17.065
	C293.081,208.767,293.028,208.725,292.979,208.679z"/>
<path style="fill:#273B7A;" d="M198.556,330.204l-26.817-26.817c-3.703-3.703-3.703-9.706,0-13.409l0,0
	c3.703-3.703,9.706-3.703,13.409,0l26.817,26.817c3.703,3.703,3.703,9.706,0,13.409l0,0
	C208.262,333.907,202.259,333.907,198.556,330.204z"/>
<path style="fill:#121149;" d="M198.413,303.244l-13.409,13.409l13.552,13.552c3.703,3.703,9.706,3.703,13.409,0
	c3.703-3.703,3.703-9.706,0-13.409L198.413,303.244z"/>
<g>
</g>
<g>
</g>
<g>
</g>
<g>
</g>
<g>
</g>
<g>
</g>
<g>
</g>
<g>
</g>
<g>
</g>
<g>
</g>
<g>
</g>
<g>
</g>
<g>
</g>
<g>
</g>
<g>
</g>
</svg>
