<?xml version="1.0" encoding="iso-8859-1"?>
<!-- Generator: Adobe Illustrator 19.0.0, SVG Export Plug-In . SVG Version: 6.00 Build 0)  -->
<svg version="1.1" id="Layer_1" xmlns="http://www.w3.org/2000/svg" xmlns:xlink="http://www.w3.org/1999/xlink" x="0px" y="0px"
	 viewBox="0 0 512 512" style="enable-background:new 0 0 512 512;" xml:space="preserve">
<circle style="fill:#FFC61B;" cx="256" cy="256" r="256"/>
<path style="fill:#EAA22F;" d="M297.832,508.58c104.57-17.189,187.802-97.726,208.951-200.907l-80.117-80.117L413.92,251.09
	l-28.091-28.091l-26.29-26.29l-28.448,0.297l-23.754-23.754h-16.572v24.171l-162.335,1.688l199.416,199.416l-128.736,11.331
	L297.832,508.58z"/>
<rect x="241.549" y="176.711" transform="matrix(-0.8593 -0.5115 0.5115 -0.8593 511.4128 509.627)" style="fill:#38C6D9;" width="168.514" height="15.515"/>
<path style="fill:#366695;" d="M128.431,199.111c0-50.936,41.293-92.229,92.229-92.229s92.229,41.293,92.229,92.229H128.431z"/>
<path style="fill:#273B7A;" d="M220.66,106.882c-0.29,0-0.572,0.019-0.862,0.022v92.207h93.091
	C312.889,148.175,271.596,106.882,220.66,106.882z"/>
<rect x="362.013" y="222.942" transform="matrix(-0.9487 -0.3162 0.3162 -0.9487 621.6326 726.6584)" style="fill:#38C6D9;" width="15.515" height="179.908"/>
<g>
	<circle style="fill:#366695;" cx="398.222" cy="227.556" r="28.444"/>
	<path style="fill:#366695;" d="M199.111,409.859h170.667v-14.438c0-7.735-6.272-14.007-14.007-14.007H213.118
		c-7.735,0-14.007,6.272-14.007,14.007V409.859z"/>
</g>
<path style="fill:#273B7A;" d="M369.778,395.421c0-7.735-6.272-14.007-14.007-14.007h-72.189v28.444h86.195V395.421z"/>
<g>
</g>
<g>
</g>
<g>
</g>
<g>
</g>
<g>
</g>
<g>
</g>
<g>
</g>
<g>
</g>
<g>
</g>
<g>
</g>
<g>
</g>
<g>
</g>
<g>
</g>
<g>
</g>
<g>
</g>
</svg>
