<?xml version="1.0" encoding="iso-8859-1"?>
<!-- Generator: Adobe Illustrator 19.0.0, SVG Export Plug-In . SVG Version: 6.00 Build 0)  -->
<svg version="1.1" id="Layer_1" xmlns="http://www.w3.org/2000/svg" xmlns:xlink="http://www.w3.org/1999/xlink" x="0px" y="0px"
	 viewBox="0 0 512 512" style="enable-background:new 0 0 512 512;" xml:space="preserve">
<circle style="fill:#FF7F4F;" cx="256" cy="256" r="256"/>
<path style="fill:#D35933;" d="M511.779,266.219L336.065,90.505L218.272,187.84L85.333,213.333l32.694,33.616l-3.912,65.939
	l59.449,59.449l-9.794,82.773l54.053,54.053C230.279,511.026,243.026,512,256,512C393.961,512,506.413,402.865,511.779,266.219z"/>
<g>
	<path style="fill:#121149;" d="M170.667,321.508h-38.214c-13.15,0-23.847-10.699-23.847-23.849v-95.101h10.343v95.101
		c0,7.446,6.058,13.505,13.503,13.505h38.214V321.508z"/>
	<rect x="193.939" y="277.98" style="fill:#121149;" width="10.343" height="28.444"/>
	<rect x="307.717" y="277.98" style="fill:#121149;" width="10.343" height="28.444"/>
	<rect x="334.438" y="326.249" style="fill:#121149;" width="13.791" height="128.862"/>
	<rect x="163.771" y="326.249" style="fill:#121149;" width="13.791" height="128.862"/>
</g>
<path style="fill:#386895;" d="M188.48,284.444h135.039c9.838,0,17.813-7.975,17.813-17.813V103.146
	c0-9.838-7.975-17.813-17.813-17.813H188.48c-9.838,0-17.813,7.975-17.813,17.813V266.63
	C170.667,276.47,178.641,284.444,188.48,284.444z"/>
<g>
	<path style="fill:#273B7A;" d="M323.518,85.333h-68.094v199.111h68.094c9.838,0,17.813-7.975,17.813-17.813V103.146
		C341.333,93.308,333.357,85.333,323.518,85.333z"/>
	<rect x="85.333" y="184.889" style="fill:#273B7A;" width="142.222" height="28.444"/>
</g>
<path style="fill:#386895;" d="M156.444,336.162h199.111c7.854,0,14.222-6.368,14.222-14.222v-11.205
	c0-7.854-6.368-14.222-14.222-14.222H156.444c-7.854,0-14.222,6.368-14.222,14.222v11.205
	C142.222,329.793,148.59,336.162,156.444,336.162z"/>
<path style="fill:#273B7A;" d="M355.556,296.512h-100.13v39.65h100.13c7.854,0,14.222-6.368,14.222-14.222v-11.205
	C369.778,302.88,363.41,296.512,355.556,296.512z"/>
<g>
</g>
<g>
</g>
<g>
</g>
<g>
</g>
<g>
</g>
<g>
</g>
<g>
</g>
<g>
</g>
<g>
</g>
<g>
</g>
<g>
</g>
<g>
</g>
<g>
</g>
<g>
</g>
<g>
</g>
</svg>
