<?xml version="1.0" encoding="iso-8859-1"?>
<!-- Generator: Adobe Illustrator 19.0.0, SVG Export Plug-In . SVG Version: 6.00 Build 0)  -->
<svg version="1.1" id="Layer_1" xmlns="http://www.w3.org/2000/svg" xmlns:xlink="http://www.w3.org/1999/xlink" x="0px" y="0px"
	 viewBox="0 0 512.002 512.002" style="enable-background:new 0 0 512.002 512.002;" xml:space="preserve">
<circle style="fill:#273B7A;" cx="256.001" cy="256" r="256"/>
<path style="fill:#121149;" d="M511.937,260.999l-87.662-87.662l-303.206,33.244v86.302l4.777,4.779v88.755l-28.444,6.204
	L213.2,508.419c13.919,2.343,28.215,3.582,42.801,3.582C395.715,512,509.272,400.075,511.937,260.999z"/>
<g>
	<rect x="380.76" y="190.061" style="fill:#D35933;" width="13.791" height="199.111"/>
	<rect x="117.433" y="190.061" style="fill:#D35933;" width="13.791" height="199.111"/>
	<rect x="97.402" y="375.38" style="fill:#D35933;" width="51.717" height="17.239"/>
	<rect x="362.883" y="375.38" style="fill:#D35933;" width="51.717" height="17.239"/>
</g>
<path style="fill:#EAA22F;" d="M418.048,227.556H93.954c-4.76,0-8.62-3.858-8.62-8.62v-39.65c0-4.76,3.86-8.62,8.62-8.62h324.094
	c4.76,0,8.62,3.86,8.62,8.62v39.65C426.668,223.697,422.809,227.556,418.048,227.556z"/>
<path style="fill:#E09112;" d="M418.048,170.667H255.427v56.889h162.621c4.76,0,8.62-3.86,8.62-8.62v-39.65
	C426.668,174.526,422.808,170.667,418.048,170.667z"/>
<g>
</g>
<g>
</g>
<g>
</g>
<g>
</g>
<g>
</g>
<g>
</g>
<g>
</g>
<g>
</g>
<g>
</g>
<g>
</g>
<g>
</g>
<g>
</g>
<g>
</g>
<g>
</g>
<g>
</g>
</svg>
