<?xml version="1.0" encoding="iso-8859-1"?>
<!-- Generator: Adobe Illustrator 19.0.0, SVG Export Plug-In . SVG Version: 6.00 Build 0)  -->
<svg version="1.1" id="Layer_1" xmlns="http://www.w3.org/2000/svg" xmlns:xlink="http://www.w3.org/1999/xlink" x="0px" y="0px"
	 viewBox="0 0 512.002 512.002" style="enable-background:new 0 0 512.002 512.002;" xml:space="preserve">
<circle style="fill:#E09112;" cx="256.001" cy="256" r="256"/>
<path style="fill:#FF5419;" d="M512.001,256c0-8.723-0.44-17.344-1.293-25.843L407.705,127.154L289.443,249.792l-5.03-5.03
	L140.358,388.817l11.081,18.889l104.293,104.293c0.09,0,0.178,0.003,0.267,0.003C397.385,512,512.001,397.384,512.001,256z"/>
<rect x="208.758" y="147.691" transform="matrix(-0.7071 -0.7071 0.7071 -0.7071 195.5892 643.0839)" style="fill:#273B7A;" width="44.447" height="266.686"/>
<rect x="227.715" y="155.559" transform="matrix(0.7071 0.7071 -0.7071 0.7071 274.2352 -84.2582)" style="fill:#121149;" width="22.223" height="266.686"/>
<path style="fill:#273B7A;" d="M380.881,153.978l26.824-26.824l-22.857-22.857l-26.824,26.824
	c-11.712,11.712-24.733,22.035-38.809,30.765l-3.756,2.331l32.327,32.327l2.331-3.756
	C358.846,178.71,369.17,165.688,380.881,153.978z"/>
<path style="fill:#121149;" d="M396.277,115.726l-64.653,64.653l16.163,16.163l2.331-3.756c8.73-14.076,19.053-27.096,30.765-38.809
	l26.824-26.824L396.277,115.726z"/>
<rect x="102.39" y="365.177" transform="matrix(0.7071 0.7071 -0.7071 0.7071 305.829 14.2401)" style="fill:#386895;" width="66.67" height="22.223"/>
<rect x="130.843" y="376.962" transform="matrix(0.7071 0.7071 -0.7071 0.7071 317.6146 9.3582)" style="fill:#273B7A;" width="33.335" height="22.223"/>
<rect x="295.137" y="172.415" transform="matrix(0.7071 0.7071 -0.7071 0.7071 225.9798 -178.5112)" style="fill:#386895;" width="66.67" height="22.223"/>
<rect x="323.606" y="184.194" transform="matrix(0.7071 0.7071 -0.7071 0.7071 237.7657 -183.4063)" style="fill:#273B7A;" width="33.335" height="22.223"/>
<g>
	
		<rect x="297.294" y="203.289" transform="matrix(-0.7071 -0.7071 0.7071 -0.7071 369.4799 571.0518)" style="fill:#38C6D9;" width="11.429" height="11.429"/>
	
		<rect x="272.042" y="228.545" transform="matrix(-0.7071 -0.7071 0.7071 -0.7071 308.5142 596.3094)" style="fill:#38C6D9;" width="11.429" height="11.429"/>
	
		<rect x="246.773" y="253.8" transform="matrix(-0.7071 -0.7071 0.7071 -0.7071 247.5191 621.5547)" style="fill:#38C6D9;" width="11.429" height="11.429"/>
	
		<rect x="221.521" y="279.05" transform="matrix(-0.7071 -0.7071 0.7071 -0.7071 186.5571 646.8036)" style="fill:#38C6D9;" width="11.429" height="11.429"/>
	
		<rect x="196.269" y="304.31" transform="matrix(-0.7071 -0.7071 0.7071 -0.7071 125.5877 672.07)" style="fill:#38C6D9;" width="11.429" height="11.429"/>
	
		<rect x="171.018" y="329.56" transform="matrix(-0.7071 -0.7071 0.7071 -0.7071 64.6257 697.3188)" style="fill:#38C6D9;" width="11.429" height="11.429"/>
	
		<rect x="348.798" y="151.762" transform="matrix(-0.7071 -0.7071 0.7071 -0.7071 493.838 519.5075)" style="fill:#38C6D9;" width="11.429" height="11.429"/>
</g>
<g>
</g>
<g>
</g>
<g>
</g>
<g>
</g>
<g>
</g>
<g>
</g>
<g>
</g>
<g>
</g>
<g>
</g>
<g>
</g>
<g>
</g>
<g>
</g>
<g>
</g>
<g>
</g>
<g>
</g>
</svg>
