<?xml version="1.0" encoding="iso-8859-1"?>
<!-- Generator: Adobe Illustrator 19.0.0, SVG Export Plug-In . SVG Version: 6.00 Build 0)  -->
<svg version="1.1" id="Layer_1" xmlns="http://www.w3.org/2000/svg" xmlns:xlink="http://www.w3.org/1999/xlink" x="0px" y="0px"
	 viewBox="0 0 512 512" style="enable-background:new 0 0 512 512;" xml:space="preserve">
<g>
	<circle style="fill:#E03A00;" cx="256" cy="256" r="256"/>
	<circle style="fill:#E03A00;" cx="256" cy="256" r="256"/>
</g>
<path style="fill:#C92F00;" d="M295.236,509.009c103.541-15.927,186.621-93.891,210.098-194.741L265.769,74.702l-5.172,97.975
	l51.321,51.322L179.822,393.595L295.236,509.009z"/>
<path style="fill:#FFEDB5;" d="M265.769,92.176V74.702h-19.537v17.474c0,14.205-3.308,28.217-9.661,40.922l-9.878,19.756h58.613
	l-9.876-19.754C269.076,120.392,265.769,106.382,265.769,92.176z"/>
<path style="fill:#FEE187;" d="M275.43,133.099c-6.353-12.707-9.661-26.717-9.661-40.924V74.702h-9.481v78.15h29.019L275.43,133.099
	z"/>
<path style="fill:#FFC61B;" d="M208.736,199.111h94.529c5.315,0,9.625-4.31,9.625-9.625v-37.64c0-5.315-4.31-9.625-9.625-9.625
	h-94.529c-5.315,0-9.625,4.31-9.625,9.625v37.64C199.111,194.801,203.421,199.111,208.736,199.111z"/>
<path style="fill:#EAA22F;" d="M303.264,142.222h-46.976v56.889h46.976c5.315,0,9.625-4.31,9.625-9.625v-37.64
	C312.889,146.532,308.579,142.222,303.264,142.222z"/>
<path style="fill:#FFFFFF;" d="M193.653,398.222h124.695c12.695,0,22.987-10.292,22.987-22.987V193.652
	c-0.002-12.693-10.293-22.985-22.988-22.985H193.652c-12.693,0-22.985,10.292-22.985,22.985v181.584
	C170.667,387.93,180.958,398.222,193.653,398.222z"/>
<path style="fill:#D0D1D3;" d="M318.349,170.667h-62.061v227.556h62.061c12.695,0,22.985-10.292,22.985-22.985V193.652
	C341.333,180.958,331.042,170.667,318.349,170.667z"/>
<rect x="199.111" y="227.556" style="fill:#FFC61B;" width="113.778" height="113.778"/>
<rect x="256.293" y="227.556" style="fill:#EAA22F;" width="56.601" height="113.778"/>
<g>
</g>
<g>
</g>
<g>
</g>
<g>
</g>
<g>
</g>
<g>
</g>
<g>
</g>
<g>
</g>
<g>
</g>
<g>
</g>
<g>
</g>
<g>
</g>
<g>
</g>
<g>
</g>
<g>
</g>
</svg>
