<?xml version="1.0" encoding="iso-8859-1"?>
<!-- Generator: Adobe Illustrator 19.0.0, SVG Export Plug-In . SVG Version: 6.00 Build 0)  -->
<svg version="1.1" id="Layer_1" xmlns="http://www.w3.org/2000/svg" xmlns:xlink="http://www.w3.org/1999/xlink" x="0px" y="0px"
	 viewBox="0 0 512 512" style="enable-background:new 0 0 512 512;" xml:space="preserve">
<circle style="fill:#FF314F;" cx="256" cy="256" r="256"/>
<path style="fill:#A30F44;" d="M507.501,303.935L349.498,146.394l0.076,10.102l-39.726-39.726h-18.222v-7.302l-72.404,2.298v5.005
	h-15.746l-42.687,45.563l1.895,1.896l-15.317,15.317l-5.144,188.495l142.362,142.362
	C396.598,497.955,486.791,413.246,507.501,303.935z"/>
<path style="fill:#FFFFFF;" d="M376.673,279.919h-12.067v-57.32c0-59.885-48.721-108.606-108.606-108.606
	s-108.606,48.721-108.606,108.606v57.32h-12.067v-57.32c0-66.539,54.134-120.673,120.673-120.673s120.673,54.134,120.673,120.673
	V279.919z"/>
<g>
	<path style="fill:#FEE187;" d="M142.222,361.158c-31.418,0-56.889-25.471-56.889-56.889s25.471-56.889,56.889-56.889V361.158z"/>
	<path style="fill:#FEE187;" d="M369.778,247.38c31.418,0,56.889,25.471,56.889,56.889s-25.471,56.889-56.889,56.889V247.38z"/>
</g>
<g>
	<path style="fill:#FFC61B;" d="M85.347,304.843c0.31,31.154,25.648,56.315,56.875,56.315v-56.315H85.347L85.347,304.843z"/>
	<path style="fill:#FFC61B;" d="M369.778,304.843v56.315c31.227,0,56.565-25.162,56.875-56.315H369.778L369.778,304.843z"/>
</g>
<g>
	<path style="fill:#EAA22F;" d="M345.786,238.761h19.537c3.65,0,6.608,2.958,6.608,6.608v117.8c0,3.65-2.958,6.608-6.608,6.608
		h-19.537c-3.65,0-6.609-2.958-6.608-6.608v-117.8C339.178,241.721,342.137,238.761,345.786,238.761z"/>
	<path style="fill:#EAA22F;" d="M166.212,369.778h-19.537c-3.65,0-6.609-2.958-6.609-6.609v-117.8c0-3.65,2.958-6.608,6.609-6.608
		h19.537c3.649,0,6.608,2.958,6.608,6.608v117.8C172.822,366.82,169.863,369.778,166.212,369.778z"/>
</g>
<g>
	<path style="fill:#FF5419;" d="M339.178,304.843v58.325c0,3.65,2.958,6.608,6.608,6.608h19.537c3.65,0,6.608-2.958,6.608-6.608
		v-58.325L339.178,304.843L339.178,304.843z"/>
	<path style="fill:#FF5419;" d="M140.067,304.843v58.325c0,3.65,2.958,6.608,6.608,6.608h19.537c3.649,0,6.608-2.958,6.608-6.608
		v-58.325L140.067,304.843L140.067,304.843z"/>
</g>
<g>
</g>
<g>
</g>
<g>
</g>
<g>
</g>
<g>
</g>
<g>
</g>
<g>
</g>
<g>
</g>
<g>
</g>
<g>
</g>
<g>
</g>
<g>
</g>
<g>
</g>
<g>
</g>
<g>
</g>
</svg>
