<?xml version="1.0" encoding="iso-8859-1"?>
<!-- Generator: Adobe Illustrator 19.0.0, SVG Export Plug-In . SVG Version: 6.00 Build 0)  -->
<svg version="1.1" id="Layer_1" xmlns="http://www.w3.org/2000/svg" xmlns:xlink="http://www.w3.org/1999/xlink" x="0px" y="0px"
	 viewBox="0 0 512 512" style="enable-background:new 0 0 512 512;" xml:space="preserve">
<g>
	<circle style="fill:#263A7A;" cx="256" cy="256" r="256"/>
	<circle style="fill:#263A7A;" cx="256" cy="256" r="256"/>
</g>
<path style="fill:#121149;" d="M398.222,170.667c0,0-6.404,4.082-17.372,11.073l-39.517-39.517
	c-0.591,0.591-6.451,6.451-14.222,14.222l-42.667-42.667c0,1.312-57.668,58.296-85.221,85.445l-57.001-57.001
	c0.719,0.719-56.889,85.333-56.889,85.333l87.012,87.012c-49.495,31.501-87.362,55.56-87.012,55.21L225.77,510.214
	C235.685,511.381,245.77,512,256,512c132.256,0,241.078-100.295,254.581-228.974L398.222,170.667z"/>
<polygon style="fill:#FF5419;" points="341.333,170.667 341.333,142.222 284.444,142.222 284.444,113.778 199.111,113.778 
	199.111,170.667 142.222,170.667 142.222,142.222 85.333,142.222 85.333,369.778 142.222,369.778 199.111,369.778 284.444,369.778 
	341.333,369.778 398.222,369.778 398.222,170.667 "/>
<rect x="85.333" y="142.222" style="fill:#FFC61B;" width="56.889" height="227.556"/>
<rect x="142.222" y="170.667" style="fill:#D48B07;" width="56.889" height="199.111"/>
<polygon style="fill:#FFEDB5;" points="199.111,113.778 199.111,192.215 199.111,251.69 199.111,369.778 284.444,369.778 
	284.444,251.69 284.444,192.215 284.444,113.778 "/>
<g>
	<polygon style="fill:#FEE187;" points="242.209,113.778 242.209,369.778 284.444,369.778 284.444,251.69 284.444,192.215 
		284.444,113.778 	"/>
	<rect x="199.111" y="192.215" style="fill:#FEE187;" width="85.333" height="59.475"/>
</g>
<rect x="242.209" y="192.215" style="fill:#FFC61B;" width="42.236" height="59.475"/>
<rect x="284.444" y="142.222" style="fill:#EAA22F;" width="56.889" height="227.556"/>
<rect x="341.333" y="170.667" style="fill:#FF5419;" width="56.889" height="199.111"/>
<circle style="fill:#FEE187;" cx="369.778" cy="335.3" r="11.205"/>
<g>
	<path style="fill:#366695;" d="M128,202.559H99.556c-1.903,0-3.448-1.545-3.448-3.448c0-1.903,1.545-3.448,3.448-3.448H128
		c1.903,0,3.448,1.545,3.448,3.448C131.448,201.014,129.903,202.559,128,202.559z"/>
	<path style="fill:#366695;" d="M128,223.892H99.556c-1.903,0-3.448-1.545-3.448-3.448s1.545-3.448,3.448-3.448H128
		c1.903,0,3.448,1.545,3.448,3.448C131.448,222.348,129.903,223.892,128,223.892z"/>
	<path style="fill:#366695;" d="M312.889,287.892c-1.903,0-3.448-1.545-3.448-3.448v-85.333c0-1.903,1.545-3.448,3.448-3.448
		s3.448,1.545,3.448,3.448v85.333C316.337,286.348,314.792,287.892,312.889,287.892z"/>
	<path style="fill:#366695;" d="M312.889,344.781c-1.903,0-3.448-1.545-3.448-3.448v-28.444c0-1.903,1.545-3.448,3.448-3.448
		s3.448,1.545,3.448,3.448v28.444C316.337,343.237,314.792,344.781,312.889,344.781z"/>
	<path style="fill:#366695;" d="M184.889,344.781h-28.444c-1.903,0-3.448-1.545-3.448-3.448s1.545-3.448,3.448-3.448h28.444
		c1.903,0,3.448,1.545,3.448,3.448S186.792,344.781,184.889,344.781z"/>
</g>
<g>
</g>
<g>
</g>
<g>
</g>
<g>
</g>
<g>
</g>
<g>
</g>
<g>
</g>
<g>
</g>
<g>
</g>
<g>
</g>
<g>
</g>
<g>
</g>
<g>
</g>
<g>
</g>
<g>
</g>
</svg>
