<?xml version="1.0" encoding="iso-8859-1"?>
<!-- Generator: Adobe Illustrator 19.0.0, SVG Export Plug-In . SVG Version: 6.00 Build 0)  -->
<svg version="1.1" id="Layer_1" xmlns="http://www.w3.org/2000/svg" xmlns:xlink="http://www.w3.org/1999/xlink" x="0px" y="0px"
	 viewBox="0 0 512.002 512.002" style="enable-background:new 0 0 512.002 512.002;" xml:space="preserve">
<circle style="fill:#273B7A;" cx="256.001" cy="256" r="256"/>
<path style="fill:#121149;" d="M511.878,263.616L338.305,90.041l-29.491,100.502L161.474,339.609l23.697,23.697l-65.898,56.592
	l87.321,87.321c15.989,3.127,32.504,4.782,49.407,4.782C394.837,512,507.85,401.477,511.878,263.616z"/>
<path style="fill:#FFC61B;" d="M341.334,142.222H312.89H140.211l-26.433,85.333v178.281c0,11.505,9.326,20.83,20.83,20.83H312.89
	h36.059c11.505,0,20.83-9.326,20.83-20.83V227.556L341.334,142.222z"/>
<path style="fill:#D48B07;" d="M312.89,426.667H134.61c-11.505,0-20.832-9.326-20.832-20.83V227.556H312.89V426.667z"/>
<rect x="224.402" y="227.556" style="fill:#FF5419;" width="88.488" height="199.111"/>
<path style="fill:#FFC61B;" d="M348.949,426.667H312.89V227.556h56.889v178.281C369.779,417.34,360.452,426.667,348.949,426.667z"/>
<polygon style="fill:#FFEDB5;" points="369.779,227.556 312.89,227.556 312.89,142.222 341.334,142.222 "/>
<polygon style="fill:#FFC61B;" points="312.89,227.556 113.779,227.556 140.211,142.222 341.334,142.222 "/>
<polygon style="fill:#EAA22F;" points="341.334,142.222 241.779,142.222 224.396,227.556 312.89,227.556 "/>
<path style="fill:#D48B07;" d="M328.262,85.333H153.284c-7.22,0-13.072,5.853-13.072,13.072v43.817h201.123V98.406
	C341.334,91.186,335.482,85.333,328.262,85.333z"/>
<path style="fill:#FF5419;" d="M341.334,98.406c0-7.22-5.853-13.072-13.072-13.072h-85.433v56.889h98.506V98.406z"/>
<path style="fill:#FFFFFF;" d="M350.073,155.343H133.485c-5.408,0-9.794-4.384-9.794-9.794v-6.654c0-5.408,4.384-9.794,9.794-9.794
	h216.59c5.408,0,9.794,4.384,9.794,9.794v6.656C359.866,150.959,355.482,155.343,350.073,155.343z"/>
<path style="fill:#FFEDB5;" d="M350.073,129.102H242.828v26.241h107.244c5.408,0,9.794-4.384,9.794-9.794v-6.654
	C359.866,133.485,355.482,129.102,350.073,129.102z"/>
<g>
</g>
<g>
</g>
<g>
</g>
<g>
</g>
<g>
</g>
<g>
</g>
<g>
</g>
<g>
</g>
<g>
</g>
<g>
</g>
<g>
</g>
<g>
</g>
<g>
</g>
<g>
</g>
<g>
</g>
</svg>
