<?xml version="1.0" encoding="iso-8859-1"?>
<!-- Generator: Adobe Illustrator 19.0.0, SVG Export Plug-In . SVG Version: 6.00 Build 0)  -->
<svg version="1.1" id="Layer_1" xmlns="http://www.w3.org/2000/svg" xmlns:xlink="http://www.w3.org/1999/xlink" x="0px" y="0px"
	 viewBox="0 0 512 512" style="enable-background:new 0 0 512 512;" xml:space="preserve">
<circle style="fill:#FF6161;" cx="256" cy="256" r="256"/>
<path style="fill:#FF314F;" d="M511.505,271.736L407.849,168.081l-15.367,17.389L105.998,399.331l105.596,108.822
	c14.424,2.522,29.26,3.848,44.408,3.848C392.099,512,503.374,405.79,511.505,271.736z"/>
<path style="fill:#FFC91B;" d="M162.452,378.699l-22.011-22.011l-34.676,34.676c-3.45,3.45-1.007,9.347,3.872,9.347h26.155
	c2.977,0,5.834-1.183,7.939-3.289L162.452,378.699z"/>
<path style="fill:#EAA22F;" d="M118.762,400.71h17.03c2.977,0,5.834-1.183,7.939-3.288l18.723-18.723l-10.84-10.84L118.762,400.71z"
	/>
<polygon style="fill:#366695;" points="240.225,376.299 163.742,387.86 131.281,355.399 142.841,278.914 "/>
<g>
	<polygon style="fill:#273B7A;" points="147.677,371.795 163.742,387.86 240.225,376.298 191.698,327.771 	"/>
	<path style="fill:#273B7A;" d="M400.843,154.052l-35.754-35.756c-8.62-8.62-22.34-9.38-31.859-1.765L138.087,272.646
		c-4.403,3.522-4.767,10.088-0.779,14.076l95.111,95.111c3.987,3.987,10.554,3.624,14.076-0.779l156.113-195.143
		C410.222,176.392,409.462,162.671,400.843,154.052z"/>
</g>
<path style="fill:#121149;" d="M400.843,154.052l-17.711-17.711L185.029,334.443l47.39,47.39c3.987,3.987,10.554,3.624,14.076-0.779
	l156.113-195.143C410.222,176.392,409.462,162.671,400.843,154.052z"/>
<polygon style="fill:#386895;" points="304.123,309.017 210.123,215.018 288.682,152.171 366.97,230.457 "/>
<polygon style="fill:#273B7A;" points="257.288,262.182 304.123,309.017 366.97,230.457 327.992,191.479 "/>
<g>
</g>
<g>
</g>
<g>
</g>
<g>
</g>
<g>
</g>
<g>
</g>
<g>
</g>
<g>
</g>
<g>
</g>
<g>
</g>
<g>
</g>
<g>
</g>
<g>
</g>
<g>
</g>
<g>
</g>
</svg>
