<?xml version="1.0" encoding="iso-8859-1"?>
<!-- Generator: Adobe Illustrator 19.0.0, SVG Export Plug-In . SVG Version: 6.00 Build 0)  -->
<svg version="1.1" id="Layer_1" xmlns="http://www.w3.org/2000/svg" xmlns:xlink="http://www.w3.org/1999/xlink" x="0px" y="0px"
	 viewBox="0 0 512 512" style="enable-background:new 0 0 512 512;" xml:space="preserve">
<circle style="fill:#273B7A;" cx="256" cy="256" r="256"/>
<path style="fill:#121149;" d="M305.781,507.145c114.755-22.619,201.962-121.913,206.05-242.305l-113.25-113.25l-52.362-36.95
	l-69.532,15.494L256,183.022l-22.411,65.508l-29.86,156.565L305.781,507.145z"/>
<path style="fill:#FFEDB5;" d="M398.222,377.535c-4.284,0-7.758-3.474-7.758-7.758V184.889c0-34.933-28.42-63.354-63.354-63.354
	s-63.354,28.42-63.354,63.354v14.222c0,4.284-3.474,7.758-7.758,7.758c-4.284,0-7.758-3.474-7.758-7.758v-14.222
	c0-43.489,35.38-78.869,78.869-78.869s78.869,35.38,78.869,78.869v184.889C405.98,374.062,402.506,377.535,398.222,377.535z"/>
<path style="fill:#FFFFFF;" d="M256,426.667L256,426.667c-40.939,0-74.128-33.189-74.128-74.128v-79.3
	c0-40.939,33.189-74.128,74.128-74.128l0,0c40.939,0,74.128,33.189,74.128,74.128v79.3C330.128,393.478,296.939,426.667,256,426.667
	z"/>
<path style="fill:#D0D1D3;" d="M256,199.111L256,199.111c-0.386,0-0.765,0.022-1.148,0.029v227.497
	c0.384,0.005,0.764,0.029,1.148,0.029l0,0c40.939,0,74.128-33.189,74.128-74.128v-79.3C330.128,232.3,296.939,199.111,256,199.111z"
	/>
<path style="fill:#FFC61B;" d="M250.109,281.859h11.779c2.46,0,4.453-1.995,4.453-4.453v-42.81c0-2.46-1.995-4.453-4.453-4.453
	h-11.779c-2.46,0-4.453,1.995-4.453,4.453v42.81C245.657,279.864,247.651,281.859,250.109,281.859z"/>
<path style="fill:#EAA22F;" d="M261.889,230.141h-7.039v51.717h7.039c2.46,0,4.453-1.995,4.453-4.453v-42.81
	C266.343,232.136,264.349,230.141,261.889,230.141z"/>
<g>
</g>
<g>
</g>
<g>
</g>
<g>
</g>
<g>
</g>
<g>
</g>
<g>
</g>
<g>
</g>
<g>
</g>
<g>
</g>
<g>
</g>
<g>
</g>
<g>
</g>
<g>
</g>
<g>
</g>
</svg>
