<?xml version="1.0" encoding="iso-8859-1"?>
<!-- Generator: Adobe Illustrator 19.0.0, SVG Export Plug-In . SVG Version: 6.00 Build 0)  -->
<svg version="1.1" id="Layer_1" xmlns="http://www.w3.org/2000/svg" xmlns:xlink="http://www.w3.org/1999/xlink" x="0px" y="0px"
	 viewBox="0 0 512 512" style="enable-background:new 0 0 512 512;" xml:space="preserve">
<circle style="fill:#273B7A;" cx="256" cy="256" r="256"/>
<path style="fill:#121149;" d="M509.578,291.216L324.094,105.732l-16.629,61.6l-59.654-59.654l-0.159,12.771l-34.32-34.32
	l13.057,191.979l22.985-22.985l27.079,27.079l-8.245,30.542l66.229,66.229l-156.231,40.377l92.234,92.234
	C393.323,504.749,493.058,411.262,509.578,291.216z"/>
<polygon style="fill:#FEE187;" points="227.556,256 199.111,256 199.111,113.778 213.333,86.13 227.556,113.778 "/>
<rect x="199.111" y="113.778" style="fill:#FFC61B;" width="28.444" height="142.222"/>
<polygon style="fill:#FEE187;" points="262.034,277.549 233.589,277.549 233.589,135.327 247.811,107.679 262.034,135.327 "/>
<g>
	<polygon style="fill:#FFC61B;" points="262.034,135.327 247.956,107.958 247.956,277.549 262.034,277.549 	"/>
	<rect x="233.589" y="135.327" style="fill:#FFC61B;" width="28.444" height="142.222"/>
</g>
<rect x="247.949" y="135.327" style="fill:#EAA22F;" width="14.077" height="142.222"/>
<rect x="282.721" y="105.727" style="fill:#D48B07;" width="41.374" height="139.067"/>
<path style="fill:#FFEDB5;" d="M196.022,426.667h119.955c14.003,0,25.355-11.352,25.355-25.355V227.556H170.667v173.756
	C170.667,415.315,182.019,426.667,196.022,426.667z"/>
<path style="fill:#FEE187;" d="M257.15,227.556v199.111h58.828c14.003,0,25.355-11.352,25.355-25.355V227.556H257.15z"/>
<path style="fill:#FFEDB5;" d="M170.667,227.556v173.756c0,14.003,11.352,25.355,25.355,25.355h61.126V227.556H170.667z"/>
<path style="fill:#FFC61B;" d="M170.667,366.904v34.406c0,14.003,11.352,25.355,25.355,25.355h119.955
	c14.003,0,25.355-11.352,25.355-25.355v-34.406H170.667L170.667,366.904z"/>
<path style="fill:#EAA22F;" d="M257.15,366.904v59.763h58.828c14.003,0,25.355-11.352,25.355-25.355v-34.406H257.15V366.904z"/>
<path style="fill:#FFC61B;" d="M170.667,366.904v34.406c0,14.003,11.352,25.355,25.355,25.355h61.126v-59.763h-86.481V366.904z"/>
<g>
</g>
<g>
</g>
<g>
</g>
<g>
</g>
<g>
</g>
<g>
</g>
<g>
</g>
<g>
</g>
<g>
</g>
<g>
</g>
<g>
</g>
<g>
</g>
<g>
</g>
<g>
</g>
<g>
</g>
</svg>
