<?xml version="1.0" encoding="iso-8859-1"?>
<!-- Generator: Adobe Illustrator 19.0.0, SVG Export Plug-In . SVG Version: 6.00 Build 0)  -->
<svg version="1.1" id="Layer_1" xmlns="http://www.w3.org/2000/svg" xmlns:xlink="http://www.w3.org/1999/xlink" x="0px" y="0px"
	 viewBox="0 0 512.002 512.002" style="enable-background:new 0 0 512.002 512.002;" xml:space="preserve">
<circle style="fill:#273B7A;" cx="256.001" cy="256" r="256"/>
<path style="fill:#121149;" d="M512.001,256c0-9.394-0.521-18.666-1.507-27.798L395.423,113.131
	c0.772-0.772-40.636,57.035-88.111,123.213l-10.942-10.942L146.598,415.811l95.832,95.832c4.494,0.234,9.019,0.359,13.572,0.359
	C397.385,512,512.001,397.384,512.001,256z"/>
<path style="fill:#FEE187;" d="M100.713,376.108l31.734,31.734c11.771,11.771,30.854,11.771,42.625,0l201.762-201.762l18.589-92.948
	l-92.948,18.589L100.713,333.483C88.942,345.253,88.942,364.337,100.713,376.108z"/>
<path style="fill:#FFC61B;" d="M125.593,308.603l-24.879,24.879c-11.771,11.771-11.771,30.854,0,42.625l31.734,31.734
	c11.771,11.771,30.854,11.771,42.625,0l24.879-24.879L125.593,308.603z"/>
<path style="fill:#EAA22F;" d="M116.077,391.471l16.368,16.368c11.771,11.771,30.854,11.771,42.625,0l24.879-24.879l-37.681-37.681
	L116.077,391.471z"/>
<rect x="205.211" y="134.978" transform="matrix(-0.7071 -0.7071 0.7071 -0.7071 262.7647 610.3505)" style="fill:#E09112;" width="105.157" height="231.553"/>
<rect x="249.471" y="153.327" transform="matrix(0.7071 0.7071 -0.7071 0.7071 271.1574 -116.4242)" style="fill:#D48B07;" width="53.289" height="231.553"/>
<rect x="160.055" y="286.628" transform="matrix(-0.7071 0.7071 -0.7071 -0.7071 528.9536 459.3143)" style="fill:#FF5419;" width="18.589" height="105.157"/>
<rect x="161.028" y="348.273" transform="matrix(0.7071 0.7071 -0.7071 0.7071 307.8067 -27.9756)" style="fill:#C92F00;" width="53.289" height="18.589"/>
<polygon style="fill:#E09112;" points="395.422,113.131 355.051,121.204 387.349,153.502 "/>
<polygon style="fill:#D48B07;" points="370.697,136.851 387.349,153.502 395.422,113.131 394.167,113.381 "/>
<polygon style="fill:#FFEDB5;" points="355.051,121.204 302.474,131.72 376.833,206.079 387.349,153.502 "/>
<polygon style="fill:#FEE187;" points="339.152,168.396 376.833,206.079 387.349,153.502 370.697,136.851 "/>
<g>
</g>
<g>
</g>
<g>
</g>
<g>
</g>
<g>
</g>
<g>
</g>
<g>
</g>
<g>
</g>
<g>
</g>
<g>
</g>
<g>
</g>
<g>
</g>
<g>
</g>
<g>
</g>
<g>
</g>
</svg>
