<?xml version="1.0" encoding="iso-8859-1"?>
<!-- Generator: Adobe Illustrator 19.0.0, SVG Export Plug-In . SVG Version: 6.00 Build 0)  -->
<svg version="1.1" id="Layer_1" xmlns="http://www.w3.org/2000/svg" xmlns:xlink="http://www.w3.org/1999/xlink" x="0px" y="0px"
	 viewBox="0 0 512 512" style="enable-background:new 0 0 512 512;" xml:space="preserve">
<circle style="fill:#FEE187;" cx="256" cy="256" r="256"/>
<g>
	<polygon style="fill:#FFC61B;" points="232.727,85.333 204.283,88.781 204.283,156.372 303.766,156.372 	"/>
	<path style="fill:#FFC61B;" d="M508.931,216.298l-59.854-59.854H64.765v203.067L210.08,507.887
		c14.898,2.698,30.242,4.113,45.918,4.113c141.384,0,256-114.616,256-256C512,242.497,510.947,229.238,508.931,216.298z"/>
</g>
<g>
	<path style="fill:#FF7F4F;" d="M443.906,241.261H68.094c-2.857,0-5.172-2.315-5.172-5.172s2.315-5.172,5.172-5.172h375.811
		c2.857,0,5.172,2.315,5.172,5.172S446.762,241.261,443.906,241.261z"/>
	<path style="fill:#FF7F4F;" d="M443.906,320.905H68.094c-2.857,0-5.172-2.315-5.172-5.172s2.315-5.172,5.172-5.172h375.811
		c2.857,0,5.172,2.315,5.172,5.172S446.762,320.905,443.906,320.905z"/>
	<path style="fill:#FF7F4F;" d="M443.906,360.727H68.094c-2.857,0-5.172-2.315-5.172-5.172s2.315-5.172,5.172-5.172h375.811
		c2.857,0,5.172,2.315,5.172,5.172S446.762,360.727,443.906,360.727z"/>
	<path style="fill:#FF7F4F;" d="M443.906,281.083H68.094c-2.857,0-5.172-2.315-5.172-5.172s2.315-5.172,5.172-5.172h375.811
		c2.857,0,5.172,2.315,5.172,5.172S446.762,281.083,443.906,281.083z"/>
	<path style="fill:#FF7F4F;" d="M443.906,161.616H68.094c-2.857,0-5.172-2.315-5.172-5.172s2.315-5.172,5.172-5.172h375.811
		c2.857,0,5.172,2.315,5.172,5.172S446.762,161.616,443.906,161.616z"/>
	<path style="fill:#FF7F4F;" d="M443.906,201.438H68.094c-2.857,0-5.172-2.315-5.172-5.172s2.315-5.172,5.172-5.172h375.811
		c2.857,0,5.172,2.315,5.172,5.172S446.762,201.438,443.906,201.438z"/>
</g>
<g>
	<path style="fill:#D35933;" d="M443.906,230.917h-188.48v10.343h188.48c2.857,0,5.172-2.315,5.172-5.172
		S446.762,230.917,443.906,230.917z"/>
	<path style="fill:#D35933;" d="M443.906,310.562h-188.48v10.343h188.48c2.857,0,5.172-2.315,5.172-5.172
		S446.762,310.562,443.906,310.562z"/>
	<path style="fill:#D35933;" d="M443.906,350.384h-188.48v10.343h188.48c2.857,0,5.172-2.315,5.172-5.172
		S446.762,350.384,443.906,350.384z"/>
	<path style="fill:#D35933;" d="M443.906,270.739h-188.48v10.343h188.48c2.857,0,5.172-2.315,5.172-5.172
		S446.762,270.739,443.906,270.739z"/>
	<path style="fill:#D35933;" d="M443.906,151.273h-188.48v10.343h188.48c2.857,0,5.172-2.315,5.172-5.172
		S446.762,151.273,443.906,151.273z"/>
	<path style="fill:#D35933;" d="M443.906,191.095h-188.48v10.343h188.48c2.857,0,5.172-2.315,5.172-5.172
		S446.762,191.095,443.906,191.095z"/>
</g>
<g>
	<circle style="fill:#940030;" cx="184.889" cy="156.444" r="14.222"/>
	<path style="fill:#940030;" d="M184.889,175.838c-10.693,0-19.394-8.701-19.394-19.394s8.701-19.394,19.394-19.394
		s19.394,8.701,19.394,19.394S195.582,175.838,184.889,175.838z M184.889,147.394c-4.991,0-9.051,4.06-9.051,9.051
		c0,4.991,4.06,9.051,9.051,9.051s9.051-4.06,9.051-9.051C193.939,151.454,189.878,147.394,184.889,147.394z"/>
	<path style="fill:#940030;" d="M199.111,161.616c-2.857,0-5.172-2.315-5.172-5.172V85.333c0-2.857,2.315-5.172,5.172-5.172h28.444
		c2.857,0,5.172,2.315,5.172,5.172s-2.315,5.172-5.172,5.172h-23.273v65.939C204.283,159.301,201.968,161.616,199.111,161.616z"/>
	<circle style="fill:#940030;" cx="298.667" cy="241.778" r="14.222"/>
	<path style="fill:#940030;" d="M298.667,261.172c-10.693,0-19.394-8.701-19.394-19.394s8.701-19.394,19.394-19.394
		s19.394,8.701,19.394,19.394S309.36,261.172,298.667,261.172z M298.667,232.727c-4.991,0-9.051,4.06-9.051,9.051
		c0,4.991,4.06,9.051,9.051,9.051s9.051-4.06,9.051-9.051C307.717,236.787,303.656,232.727,298.667,232.727z"/>
	<circle style="fill:#940030;" cx="355.556" cy="241.778" r="14.222"/>
	<path style="fill:#940030;" d="M355.556,261.172c-10.693,0-19.394-8.701-19.394-19.394s8.701-19.394,19.394-19.394
		s19.394,8.701,19.394,19.394S366.249,261.172,355.556,261.172z M355.556,232.727c-4.991,0-9.051,4.06-9.051,9.051
		c0,4.991,4.06,9.051,9.051,9.051s9.051-4.06,9.051-9.051C364.606,236.787,360.545,232.727,355.556,232.727z"/>
	<path style="fill:#940030;" d="M369.778,246.949c-2.857,0-5.172-2.315-5.172-5.172v-65.939h-46.545v65.939
		c0,2.857-2.315,5.172-5.172,5.172s-5.172-2.315-5.172-5.172v-71.111c0-2.857,2.315-5.172,5.172-5.172h56.889
		c2.857,0,5.172,2.315,5.172,5.172v71.111C374.949,244.634,372.634,246.949,369.778,246.949z"/>
	<circle style="fill:#940030;" cx="128" cy="327.111" r="14.222"/>
	<path style="fill:#940030;" d="M128,346.505c-10.693,0-19.394-8.701-19.394-19.394s8.701-19.394,19.394-19.394
		s19.394,8.701,19.394,19.394S138.693,346.505,128,346.505z M128,318.061c-4.991,0-9.051,4.06-9.051,9.051
		c0,4.991,4.06,9.051,9.051,9.051c4.991,0,9.051-4.06,9.051-9.051C137.051,322.12,132.989,318.061,128,318.061z"/>
	<circle style="fill:#940030;" cx="184.889" cy="327.111" r="14.222"/>
	<path style="fill:#940030;" d="M184.889,346.505c-10.693,0-19.394-8.701-19.394-19.394s8.701-19.394,19.394-19.394
		s19.394,8.701,19.394,19.394S195.582,346.505,184.889,346.505z M184.889,318.061c-4.991,0-9.051,4.06-9.051,9.051
		c0,4.991,4.06,9.051,9.051,9.051s9.051-4.06,9.051-9.051C193.939,322.12,189.878,318.061,184.889,318.061z"/>
	<path style="fill:#940030;" d="M199.111,332.283c-2.857,0-5.172-2.315-5.172-5.172v-65.939h-46.545v65.939
		c0,2.857-2.315,5.172-5.172,5.172s-5.172-2.315-5.172-5.172V256c0-2.857,2.315-5.172,5.172-5.172h56.889
		c2.857,0,5.172,2.315,5.172,5.172v71.111C204.283,329.968,201.968,332.283,199.111,332.283z"/>
</g>
<g>
</g>
<g>
</g>
<g>
</g>
<g>
</g>
<g>
</g>
<g>
</g>
<g>
</g>
<g>
</g>
<g>
</g>
<g>
</g>
<g>
</g>
<g>
</g>
<g>
</g>
<g>
</g>
<g>
</g>
</svg>
