<?xml version="1.0" encoding="iso-8859-1"?>
<!-- Generator: Adobe Illustrator 19.0.0, SVG Export Plug-In . SVG Version: 6.00 Build 0)  -->
<svg version="1.1" id="Layer_1" xmlns="http://www.w3.org/2000/svg" xmlns:xlink="http://www.w3.org/1999/xlink" x="0px" y="0px"
	 viewBox="0 0 512 512" style="enable-background:new 0 0 512 512;" xml:space="preserve">
<circle style="fill:#FFAD9E;" cx="256" cy="256" r="256"/>
<path style="fill:#FF6262;" d="M512,256c0-9.121-0.486-18.127-1.417-27.002l-73.361-73.361
	c2.51-0.002-266.556,242.585-266.556,242.585s-15.031,39.272-15.031,39l73.361,73.361c8.875,0.931,17.882,1.417,27.002,1.417
	C397.384,512,512,397.384,512,256z"/>
<rect x="198.821" y="56.882" transform="matrix(-0.7071 -0.7071 0.7071 -0.7071 255.9955 618.0201)" style="fill:#366695;" width="114.346" height="398.218"/>
<rect x="253.002" y="79.329" transform="matrix(-0.7071 -0.7071 0.7071 -0.7071 278.4427 672.2118)" style="fill:#273B7A;" width="50.877" height="398.218"/>
<g>
	
		<rect x="332.085" y="101.485" transform="matrix(-0.7071 -0.7071 0.7071 -0.7071 516.9854 424.0074)" style="fill:#FFFFFF;" width="28.444" height="6.896"/>
	
		<rect x="291.859" y="141.723" transform="matrix(-0.7071 -0.7071 0.7071 -0.7071 419.8611 464.254)" style="fill:#FFFFFF;" width="28.444" height="6.896"/>
	
		<rect x="307.799" y="131.676" transform="matrix(-0.7071 -0.7071 0.7071 -0.7071 478.4562 468.4306)" style="fill:#FFFFFF;" width="56.888" height="6.896"/>
	
		<rect x="251.639" y="181.955" transform="matrix(-0.7071 -0.7071 0.7071 -0.7071 322.7554 504.4946)" style="fill:#FFFFFF;" width="28.446" height="6.896"/>
	
		<rect x="267.592" y="171.895" transform="matrix(-0.7071 -0.7071 0.7071 -0.7071 381.3794 508.6575)" style="fill:#FFFFFF;" width="56.888" height="6.896"/>
	
		<rect x="211.403" y="222.178" transform="matrix(-0.7071 -0.7071 0.7071 -0.7071 225.6242 544.7078)" style="fill:#FFFFFF;" width="28.444" height="6.896"/>
	
		<rect x="227.343" y="212.113" transform="matrix(-0.7071 -0.7071 0.7071 -0.7071 284.2315 548.855)" style="fill:#FFFFFF;" width="56.888" height="6.896"/>
	
		<rect x="171.183" y="262.413" transform="matrix(-0.7071 -0.7071 0.7071 -0.7071 128.5161 584.9543)" style="fill:#FFFFFF;" width="28.446" height="6.896"/>
	
		<rect x="187.136" y="252.346" transform="matrix(-0.7071 -0.7071 0.7071 -0.7071 187.1449 589.1054)" style="fill:#FFFFFF;" width="56.888" height="6.896"/>
	
		<rect x="130.95" y="302.629" transform="matrix(-0.7071 -0.7071 0.7071 -0.7071 31.3959 625.1587)" style="fill:#FFFFFF;" width="28.444" height="6.896"/>
	
		<rect x="146.887" y="292.57" transform="matrix(-0.7071 -0.7071 0.7071 -0.7071 89.9934 629.3117)" style="fill:#FFFFFF;" width="56.888" height="6.896"/>
	
		<rect x="90.737" y="342.851" transform="matrix(-0.7071 -0.7071 0.7071 -0.7071 -65.6932 665.3856)" style="fill:#FFFFFF;" width="28.444" height="6.896"/>
	
		<rect x="106.678" y="332.796" transform="matrix(-0.7071 -0.7071 0.7071 -0.7071 -7.0931 669.5504)" style="fill:#FFFFFF;" width="56.888" height="6.896"/>
</g>
<g>
</g>
<g>
</g>
<g>
</g>
<g>
</g>
<g>
</g>
<g>
</g>
<g>
</g>
<g>
</g>
<g>
</g>
<g>
</g>
<g>
</g>
<g>
</g>
<g>
</g>
<g>
</g>
<g>
</g>
</svg>
