<?xml version="1.0" encoding="iso-8859-1"?>
<!-- Generator: Adobe Illustrator 19.0.0, SVG Export Plug-In . SVG Version: 6.00 Build 0)  -->
<svg version="1.1" id="Layer_1" xmlns="http://www.w3.org/2000/svg" xmlns:xlink="http://www.w3.org/1999/xlink" x="0px" y="0px"
	 viewBox="0 0 512 512" style="enable-background:new 0 0 512 512;" xml:space="preserve">
<circle style="fill:#71E2EF;" cx="256" cy="256" r="256"/>
<path style="fill:#38C6D9;" d="M503.694,320.888L288.318,105.512L271.029,299.76l0.486,0.486h-28.444v68.094l-26.721,26.721v8.535
	l-61.114-5.379l113.467,113.467C382.035,506.146,475.996,426.911,503.694,320.888z"/>
<path style="fill:#386895;" d="M218.936,270.941v53.298c-7.439-4.467-16.137-7.04-25.428-7.04
	c-27.329,0-49.562,22.233-49.562,49.562s22.233,49.562,49.562,49.562s49.562-22.233,49.562-49.562v-95.82L218.936,270.941
	L218.936,270.941z M193.508,392.189c-14.021,0-25.428-11.407-25.428-25.428c0-14.021,11.407-25.428,25.428-25.428
	c14.021,0,25.428,11.407,25.428,25.428C218.936,380.781,207.529,392.189,193.508,392.189z"/>
<path style="fill:#273B7A;" d="M318.492,317.199c-9.29,0-17.989,2.574-25.428,7.04V129.293c0-34.221-27.839-62.061-62.061-62.061
	h-12.067v211.034c0,20.992,17.077,38.071,38.069,38.071h11.924v50.424c0,27.329,22.233,49.562,49.562,49.562
	s49.562-22.233,49.562-49.562S345.821,317.199,318.492,317.199z M318.492,392.189c-14.021,0-25.428-11.407-25.428-25.428
	c0-14.021,11.407-25.428,25.428-25.428s25.428,11.407,25.428,25.428C343.919,380.781,332.512,392.189,318.492,392.189z"/>
<path style="fill:#121149;" d="M318.492,317.199c-9.29,0-17.989,2.574-25.428,7.04V129.293c0-25.553-15.527-47.542-37.638-57.046
	v244.048c0.524,0.021,1.05,0.04,1.579,0.04h11.924v50.424c0,27.329,22.233,49.562,49.562,49.562s49.562-22.233,49.562-49.562
	S345.821,317.199,318.492,317.199z M318.492,392.189c-14.021,0-25.428-11.407-25.428-25.428c0-14.021,11.407-25.428,25.428-25.428
	s25.428,11.407,25.428,25.428C343.919,380.781,332.512,392.189,318.492,392.189z"/>
<circle style="fill:#38C6D9;" cx="256" cy="266.774" r="12.498"/>
<path style="fill:#02B2B2;" d="M256,254.276c-0.193,0-0.383,0.021-0.574,0.029v24.938c0.191,0.009,0.381,0.029,0.574,0.029
	c6.902,0,12.498-5.596,12.498-12.498C268.498,259.872,262.902,254.276,256,254.276z"/>
<g>
</g>
<g>
</g>
<g>
</g>
<g>
</g>
<g>
</g>
<g>
</g>
<g>
</g>
<g>
</g>
<g>
</g>
<g>
</g>
<g>
</g>
<g>
</g>
<g>
</g>
<g>
</g>
<g>
</g>
</svg>
