<?xml version="1.0" encoding="iso-8859-1"?>
<!-- Generator: Adobe Illustrator 19.0.0, SVG Export Plug-In . SVG Version: 6.00 Build 0)  -->
<svg version="1.1" id="Layer_1" xmlns="http://www.w3.org/2000/svg" xmlns:xlink="http://www.w3.org/1999/xlink" x="0px" y="0px"
	 viewBox="0 0 512 512" style="enable-background:new 0 0 512 512;" xml:space="preserve">
<circle style="fill:#71E2EF;" cx="256" cy="256" r="256"/>
<g>
	<path style="fill:#38C6D9;" d="M373.513,407.704h-44.618L132.167,213.764l-22.218,189.418L215.58,508.813
		C228.747,510.902,242.245,512,256,512c61.986,0,118.824-22.033,163.118-58.692L373.513,407.704z"/>
	<path style="fill:#38C6D9;" d="M512,256c0-13.76-1.1-27.264-3.189-40.436L402.768,109.521l-174.925,31.351l179.572,232.353
		l45.89,45.89C489.967,374.824,512,317.986,512,256z"/>
</g>
<path style="fill:#273B7A;" d="M138.487,104.296l268.929,268.929V121.104c0-9.283-7.525-16.808-16.808-16.808H138.487z
	 M365.468,260.856L253.414,151.157h112.054V260.856z"/>
<path style="fill:#121149;" d="M407.416,121.104c0-4.496-1.776-8.568-4.649-11.585l-41.638,41.637h4.339v109.699l-57.623-56.413
	l-34.606,34.606l134.177,134.177V121.104L407.416,121.104z"/>
<g>
	<rect x="350.815" y="104.296" style="fill:#FFFFFF;" width="5.172" height="28.444"/>
	<rect x="322.37" y="104.296" style="fill:#FFFFFF;" width="5.172" height="17.239"/>
	<rect x="293.926" y="104.296" style="fill:#FFFFFF;" width="5.172" height="28.444"/>
	<rect x="265.481" y="104.296" style="fill:#FFFFFF;" width="5.172" height="17.239"/>
	<rect x="237.037" y="104.296" style="fill:#FFFFFF;" width="5.172" height="28.444"/>
</g>
<path style="fill:#273B7A;" d="M373.513,407.704L104.584,138.774v252.121c0,9.283,7.525,16.808,16.808,16.808H373.513z
	 M146.532,251.144l112.054,109.699H146.532V251.144z"/>
<path style="fill:#121149;" d="M204.447,307.841l54.139,53.001H151.445l-41.937,41.937c3.041,3.041,7.244,4.922,11.885,4.922
	h252.121L239.049,273.237L204.447,307.841z"/>
<g>
	<rect x="156.013" y="379.259" style="fill:#FFFFFF;" width="5.172" height="28.444"/>
	<rect x="184.458" y="390.465" style="fill:#FFFFFF;" width="5.172" height="17.239"/>
	<rect x="212.902" y="379.259" style="fill:#FFFFFF;" width="5.172" height="28.444"/>
	<rect x="241.347" y="390.465" style="fill:#FFFFFF;" width="5.172" height="17.239"/>
	<rect x="269.791" y="379.259" style="fill:#FFFFFF;" width="5.172" height="28.444"/>
</g>
<g>
</g>
<g>
</g>
<g>
</g>
<g>
</g>
<g>
</g>
<g>
</g>
<g>
</g>
<g>
</g>
<g>
</g>
<g>
</g>
<g>
</g>
<g>
</g>
<g>
</g>
<g>
</g>
<g>
</g>
</svg>
