<?xml version="1.0" encoding="iso-8859-1"?>
<!-- Generator: Adobe Illustrator 19.0.0, SVG Export Plug-In . SVG Version: 6.00 Build 0)  -->
<svg version="1.1" id="Layer_1" xmlns="http://www.w3.org/2000/svg" xmlns:xlink="http://www.w3.org/1999/xlink" x="0px" y="0px"
	 viewBox="0 0 512 512" style="enable-background:new 0 0 512 512;" xml:space="preserve">
<circle style="fill:#FFC61B;" cx="256" cy="256" r="256"/>
<path style="fill:#EAA22F;" d="M511.229,275.97L353.558,118.298l-101.969,151.68l-0.117-0.116l-91.683,125.319L275.847,511.24
	C401.367,501.615,501.546,401.472,511.229,275.97z"/>
<path style="fill:#273B7A;" d="M325.172,256c0-29.232,12.809-53.92,30.384-61.914v-69.925c0-5.734-5.113-10.383-11.421-10.383
	H167.865c-6.308,0-11.421,4.648-11.421,10.383v69.925c17.575,7.994,30.384,32.682,30.384,61.914s-12.809,53.92-30.384,61.914v69.925
	c0,5.734,5.113,10.383,11.421,10.383h176.269c6.308,0,11.421-4.648,11.421-10.383v-69.925
	C337.98,309.92,325.172,285.232,325.172,256z"/>
<path style="fill:#121149;" d="M355.556,194.086v-69.927c0-5.734-5.113-10.381-11.421-10.381H256v284.444h88.135
	c6.308,0,11.421-4.648,11.421-10.383v-69.925c-17.575-7.994-30.384-32.682-30.384-61.914S337.98,202.08,355.556,194.086z"/>
<path style="fill:#FFFFFF;" d="M256,341.333L256,341.333c23.326,0,42.236-18.909,42.236-42.236v-185.32h-84.471v185.32
	C213.764,322.424,232.674,341.333,256,341.333z"/>
<path style="fill:#D0D1D3;" d="M256,113.778v227.556c23.326,0,42.236-18.909,42.236-42.236v-185.32H256z"/>
<circle style="fill:#386895;" cx="270.222" cy="298.667" r="14.222"/>
<g>
</g>
<g>
</g>
<g>
</g>
<g>
</g>
<g>
</g>
<g>
</g>
<g>
</g>
<g>
</g>
<g>
</g>
<g>
</g>
<g>
</g>
<g>
</g>
<g>
</g>
<g>
</g>
<g>
</g>
</svg>
