<?xml version="1.0" encoding="iso-8859-1"?>
<!-- Generator: Adobe Illustrator 19.0.0, SVG Export Plug-In . SVG Version: 6.00 Build 0)  -->
<svg version="1.1" id="Layer_1" xmlns="http://www.w3.org/2000/svg" xmlns:xlink="http://www.w3.org/1999/xlink" x="0px" y="0px"
	 viewBox="0 0 512 512" style="enable-background:new 0 0 512 512;" xml:space="preserve">
<circle style="fill:#FFEDB5;" cx="256" cy="256" r="256"/>
<path style="fill:#FEE187;" d="M507.999,301.328L385.367,178.697l-227.63,59.333l-43.96,74.859l193.893,193.893
	C409.702,485.871,489.608,404.256,507.999,301.328z"/>
<polygon style="fill:#02B2B2;" points="170.667,284.444 113.778,284.444 113.778,256 170.667,227.556 "/>
<circle style="fill:#273B7A;" cx="170.667" cy="256" r="28.444"/>
<circle style="fill:#02B2B2;" cx="170.667" cy="256" r="12.929"/>
<path style="fill:#386895;" d="M398.222,256H113.778l0,0c0-47.128,38.205-85.333,85.333-85.333h163.857
	c19.47,0,35.254,15.784,35.254,35.254V256z"/>
<path style="fill:#273B7A;" d="M398.222,205.921c0-19.47-15.784-35.254-35.254-35.254h-106.68V256h141.934V205.921z"/>
<rect x="113.778" y="284.444" style="fill:#386895;" width="284.444" height="28.444"/>
<rect x="256.293" y="284.444" style="fill:#273B7A;" width="141.929" height="28.444"/>
<g>
</g>
<g>
</g>
<g>
</g>
<g>
</g>
<g>
</g>
<g>
</g>
<g>
</g>
<g>
</g>
<g>
</g>
<g>
</g>
<g>
</g>
<g>
</g>
<g>
</g>
<g>
</g>
<g>
</g>
</svg>
