<?xml version="1.0" encoding="iso-8859-1"?>
<!-- Generator: Adobe Illustrator 19.0.0, SVG Export Plug-In . SVG Version: 6.00 Build 0)  -->
<svg version="1.1" id="Layer_1" xmlns="http://www.w3.org/2000/svg" xmlns:xlink="http://www.w3.org/1999/xlink" x="0px" y="0px"
	 viewBox="0 0 512 512" style="enable-background:new 0 0 512 512;" xml:space="preserve">
<circle style="fill:#FFC91B;" cx="256" cy="256" r="256"/>
<path style="fill:#EAA22F;" d="M303.799,507.526c102.965-19.449,184.127-100.542,203.678-203.471l-80.81-80.81l-25.769,86.771
	L251.24,160.359l-82.082,139.816l11.012,11.012l-40.55,32.159L303.799,507.526z"/>
<path style="fill:#366695;" d="M398.222,227.556v32.897c0,13.25-10.742,23.992-23.992,23.992h-65.795
	c-13.25,0-23.992-10.742-23.992-23.992v-31.492c0-46.795-37.086-85.944-83.875-86.726c-47.795-0.798-86.792,37.707-86.792,85.321
	v53.01c0,49.271,39.941,89.212,89.212,89.212h171.241c28.96,0,52.436-23.476,52.436-52.436v-89.786H398.222z"/>
<path style="fill:#273B7A;" d="M398.222,227.556v32.897c0,13.25-10.742,23.992-23.992,23.992h-65.796
	c-13.25,0-23.992-10.742-23.992-23.992v-31.492c0-46.795-37.086-85.944-83.875-86.726c-0.393-0.007-0.779,0.012-1.171,0.01v227.442
	c1.193,0.047,2.388,0.091,3.591,0.091h171.241c28.96,0,52.436-23.476,52.436-52.436v-89.786H398.222z"/>
<circle style="fill:#38C6D9;" cx="199.111" cy="227.556" r="42.667"/>
<path style="fill:#02B2B2;" d="M241.778,227.556c0-23.468-18.947-42.503-42.379-42.66v85.32
	C222.83,270.058,241.778,251.023,241.778,227.556z"/>
<rect x="284.444" y="223.246" style="fill:#FFEDB5;" width="142.222" height="15.515"/>
<g>
</g>
<g>
</g>
<g>
</g>
<g>
</g>
<g>
</g>
<g>
</g>
<g>
</g>
<g>
</g>
<g>
</g>
<g>
</g>
<g>
</g>
<g>
</g>
<g>
</g>
<g>
</g>
<g>
</g>
</svg>
