<?xml version="1.0" encoding="iso-8859-1"?>
<!-- Generator: Adobe Illustrator 19.0.0, SVG Export Plug-In . SVG Version: 6.00 Build 0)  -->
<svg version="1.1" id="Capa_1" xmlns="http://www.w3.org/2000/svg" xmlns:xlink="http://www.w3.org/1999/xlink" x="0px" y="0px"
	 viewBox="0 0 512 512" style="enable-background:new 0 0 512 512;" xml:space="preserve">
<circle style="fill:#FF0435;" cx="256" cy="256" r="256"/>
<path style="fill:#990011;" d="M512,256c0-25.957-3.877-51.006-11.059-74.614l-63.628-63.627H74.687v276.484l106.699,106.699
	C204.994,508.123,230.043,512,256,512C397.385,512,512,397.385,512,256z"/>
<rect x="74.69" y="117.76" style="fill:#FFFFFF;" width="362.63" height="276.48"/>
<rect x="256" y="117.76" style="fill:#9CFDFF;" width="181.31" height="276.48"/>
<rect x="92" y="136.17" style="fill:#FFEC97;" width="328" height="239.67"/>
<rect x="256" y="136.17" style="fill:#FFD400;" width="164" height="239.66"/>
<g>
	<rect x="118.79" y="280.66" style="fill:#57555C;" width="12" height="16"/>
	<path style="fill:#57555C;" d="M244.695,337.701c-6.623,0-13.08-1.226-19.192-3.642l4.413-11.159
		c4.701,1.859,9.673,2.801,14.779,2.801c4.433,0,8.786-0.715,12.939-2.125l3.858,11.362
		C256.094,336.771,250.442,337.701,244.695,337.701z M278.386,325.376l-7.748-9.163c7.294-6.168,12.167-14.72,13.72-24.083
		l11.838,1.964C294.177,306.263,287.853,317.372,278.386,325.376z M209.101,323.687c-9.063-8.451-14.838-19.855-16.262-32.113
		l11.92-1.385c1.095,9.432,5.544,18.21,12.526,24.72L209.101,323.687z M296.902,275.866h-12v-26.002
		c0-2.808,0.425-5.579,1.264-8.236l11.443,3.613c-0.47,1.486-0.708,3.042-0.708,4.623v26.002H296.902z M204.488,273.613h-12v-32.532
		h12V273.613z M131.623,263.381h-12v-28.623c0-1.515,0.081-3.042,0.24-4.537l11.933,1.273c-0.115,1.075-0.173,2.173-0.173,3.264
		V263.381z M191.132,225.741c-2.697-8.707-9.373-15.915-17.857-19.282l4.426-11.154c12.003,4.763,21.077,14.563,24.894,26.886
		L191.132,225.741z M136.617,218.046l-10.021-6.6c7.111-10.799,18.544-17.697,31.369-18.926l1.145,11.945
		C149.918,205.347,141.721,210.297,136.617,218.046z"/>
</g>
<g>
	<path style="fill:#2A2A2C;" d="M286.17,241.63c-0.84,2.65-1.27,5.43-1.27,8.23v26.01h12v-26.01c0-1.58,0.24-3.13,0.71-4.62
		L286.17,241.63z M284.36,292.13c-1.56,9.36-6.43,17.92-13.72,24.08l7.75,9.17c9.46-8.01,15.79-19.12,17.81-31.29L284.36,292.13z
		 M257.63,323.58c-0.54,0.18-1.08,0.35-1.63,0.52v12.37c1.85-0.41,3.69-0.92,5.49-1.53L257.63,323.58z"/>
	<path style="fill:#2A2A2C;" d="M304.779,236.033l-5.189-10.82c3.703-1.775,7.674-2.676,11.805-2.676h6.485v12h-6.485
		C309.075,234.537,306.849,235.041,304.779,236.033z"/>
</g>
<polygon style="fill:#C2001B;" points="380.953,191.67 360.406,212.217 339.858,191.67 323.601,207.927 344.149,228.474 
	323.601,249.021 339.858,265.279 360.406,244.731 380.953,265.279 397.21,249.021 376.663,228.474 397.21,207.927 "/>
<circle style="fill:#5EDE4E;" cx="221.34" cy="191.67" r="17.371"/>
<circle style="fill:#00AE00;" cx="320.88" cy="319.7" r="17.371"/>
<g>
</g>
<g>
</g>
<g>
</g>
<g>
</g>
<g>
</g>
<g>
</g>
<g>
</g>
<g>
</g>
<g>
</g>
<g>
</g>
<g>
</g>
<g>
</g>
<g>
</g>
<g>
</g>
<g>
</g>
</svg>
