<?xml version="1.0" encoding="iso-8859-1"?>
<!-- Generator: Adobe Illustrator 19.0.0, SVG Export Plug-In . SVG Version: 6.00 Build 0)  -->
<svg version="1.1" id="Capa_1" xmlns="http://www.w3.org/2000/svg" xmlns:xlink="http://www.w3.org/1999/xlink" x="0px" y="0px"
	 viewBox="0 0 512 512" style="enable-background:new 0 0 512 512;" xml:space="preserve">
<circle style="fill:#B6EFAB;" cx="256" cy="256" r="256"/>
<path style="fill:#5EDE4E;" d="M510.76,281.254L388.746,159.145c-27.907-29.143-67.198-47.296-110.734-47.296l0,0
	c-67.723,0-125.184,43.915-145.475,104.82c-24.594-15.044-51.913-17.964-51.913-17.964s-7.794,34.805,3.771,66.701
	c-23.354,5.785-40.715,17.411-40.715,17.411s9.192,17.827,26.159,33.934c0,0,127.222,127.302,195.076,195.079
	C393.718,507.418,498.36,407.872,510.76,281.254z"/>
<path style="fill:#C2001B;" d="M80.624,198.705c0,0-25.639,114.359,84.905,118.457C197.158,211.159,80.624,198.705,80.624,198.705z"
	/>
<path style="fill:#E7001F;" d="M43.681,282.816c0,0,53.7,104.171,141.126,36.394C141.062,217.607,43.681,282.816,43.681,282.816z"/>
<path style="fill:#FF0435;" d="M431.321,326.43H124.703v-61.272c0-84.67,68.639-153.309,153.309-153.309l0,0
	c84.67,0,153.309,68.639,153.309,153.309L431.321,326.43L431.321,326.43z"/>
<path style="fill:#C2001B;" d="M431.32,265.16v61.27H278.01V111.85c42.33,0,80.66,17.16,108.41,44.9
	C414.16,184.5,431.32,222.82,431.32,265.16z"/>
<rect x="124.7" y="302.89" style="fill:#FF738E;" width="306.62" height="39.23"/>
<rect x="278.01" y="302.89" style="fill:#FF3D62;" width="153.31" height="39.23"/>
<g>
</g>
<g>
</g>
<g>
</g>
<g>
</g>
<g>
</g>
<g>
</g>
<g>
</g>
<g>
</g>
<g>
</g>
<g>
</g>
<g>
</g>
<g>
</g>
<g>
</g>
<g>
</g>
<g>
</g>
</svg>
