<?xml version="1.0" encoding="iso-8859-1"?>
<!-- Generator: Adobe Illustrator 19.0.0, SVG Export Plug-In . SVG Version: 6.00 Build 0)  -->
<svg version="1.1" id="Capa_1" xmlns="http://www.w3.org/2000/svg" xmlns:xlink="http://www.w3.org/1999/xlink" x="0px" y="0px"
	 viewBox="0 0 512 512" style="enable-background:new 0 0 512 512;" xml:space="preserve">
<circle style="fill:#FFC473;" cx="256" cy="256" r="256"/>
<path style="fill:#FF9A00;" d="M512,256c0-8.78-0.444-17.457-1.307-26.01l-88.343-88.623
	c-71.786,67.581-168.097,80.724-236.233,79.846c-74.731-0.96-133.099-18.484-134.024-18.766c-0.003-0.001-0.005-0.001-0.007-0.002
	l-7.677,25.043l276.264,276.264C430.744,475.1,512,375.042,512,256z"/>
<path style="fill:#57555C;" d="M394.463,195.627c16.505-10.267,31.826-21.993,45.842-35.188l-17.955-19.072
	c-71.786,67.581-168.097,80.724-236.234,79.846c-74.731-0.96-133.099-18.484-134.025-18.766c-0.003-0.001-0.005-0.002-0.007-0.002
	l-7.677,25.043c2.498,0.766,62.085,18.787,140.633,19.906c2.518,0.036,5.022,0.054,7.521,0.054c15.556,0,30.749-0.707,45.549-2.091
	l21.915,66.326c14.213,43.017,60.607,66.366,103.624,52.153l0,0c43.017-14.213,66.366-60.607,52.153-103.624L394.463,195.627z"/>
<path style="fill:#2A2A2C;" d="M415.8,260.21c2.82,8.55,4.17,17.22,4.17,25.76c0,34.42-21.85,66.47-56.32,77.87
	c-43.02,14.21-89.41-9.14-103.62-52.16l-21.92-66.32v-26.38c60.03-6.07,129.31-25.9,184.24-77.61l17.96,19.07
	c-14.02,13.19-29.34,24.92-45.85,35.19L415.8,260.21z"/>
<polygon style="fill:#54FBFF;" points="324.87,335.279 343.552,298.159 380.671,316.842 390.848,296.621 353.728,277.939 
	372.41,240.819 352.19,230.643 333.508,267.763 296.388,249.081 286.212,269.301 323.331,287.983 304.649,325.103 "/>
<g>
</g>
<g>
</g>
<g>
</g>
<g>
</g>
<g>
</g>
<g>
</g>
<g>
</g>
<g>
</g>
<g>
</g>
<g>
</g>
<g>
</g>
<g>
</g>
<g>
</g>
<g>
</g>
<g>
</g>
</svg>
