<?xml version="1.0" encoding="iso-8859-1"?>
<!-- Generator: Adobe Illustrator 19.0.0, SVG Export Plug-In . SVG Version: 6.00 Build 0)  -->
<svg version="1.1" id="Capa_1" xmlns="http://www.w3.org/2000/svg" xmlns:xlink="http://www.w3.org/1999/xlink" x="0px" y="0px"
	 viewBox="0 0 512 512" style="enable-background:new 0 0 512 512;" xml:space="preserve">
<circle style="fill:#00F8FE;" cx="256" cy="256" r="256"/>
<path style="fill:#00B7BE;" d="M512,256c0-12.954-0.971-25.68-2.828-38.117L387.258,96.911c-8.742-9.016-20.979-14.623-34.53-14.623
	c-8.317,0-16.141,2.112-22.966,5.827c-9.617-7.236-21.575-11.528-34.538-11.528c-5.699,0-11.199,0.842-16.396,2.386
	c-10.543-8.038-23.706-12.814-37.987-12.814c-9.559,0-18.616,2.142-26.723,5.967c-8.874-6.166-19.646-9.791-31.271-9.791
	c-28.23,0-51.471,21.32-54.524,48.736c-14.29,6.789-24.171,21.351-24.171,38.224c0,11.589,4.667,22.08,12.218,29.715l26.623,26.496
	v180.166h-12.75v44.263l77.506,77.505C223.377,510.42,239.503,512,256,512C397.385,512,512,397.385,512,256z"/>
<path style="fill:#703700;" d="M397.745,360.736h-39.732v-26.302h39.732c6.752,0,12.246-5.493,12.246-12.246v-83.726
	c0-6.752-5.493-12.245-12.246-12.245h-39.732v-26.302h39.732c21.255,0,38.547,17.292,38.547,38.547v83.726
	C436.292,343.443,419,360.736,397.745,360.736z"/>
<rect x="142.99" y="164.75" style="fill:#FFB84D;" width="219" height="225.6"/>
<g>
	<rect x="252.49" y="164.75" style="fill:#FF8C00;" width="109.5" height="225.6"/>
	<rect x="142.99" y="164.75" style="fill:#FF8C00;" width="72.6" height="225.6"/>
</g>
<rect x="289.4" y="164.75" style="fill:#C06100;" width="72.6" height="225.6"/>
<rect x="130.24" y="385.67" style="fill:#C06200;" width="244.5" height="44.26"/>
<rect x="252.49" y="385.67" style="fill:#703700;" width="122.25" height="44.26"/>
<path style="fill:#FFFFFF;" d="M352.729,82.288c-8.317,0-16.141,2.112-22.966,5.827c-9.617-7.236-21.575-11.528-34.538-11.528
	c-5.699,0-11.199,0.842-16.396,2.385c-10.543-8.038-23.706-12.814-37.987-12.814c-9.559,0-18.616,2.142-26.724,5.966
	c-8.873-6.166-19.646-9.791-31.271-9.791c-28.23,0-51.471,21.321-54.524,48.736c-14.29,6.789-24.171,21.351-24.171,38.224
	c0,23.362,18.938,42.3,42.3,42.3c14.975,0,28.123-7.789,35.64-19.53c0.252,0.003,0.502,0.019,0.755,0.019
	c3.919,0,7.739-0.419,11.425-1.199c11.478,12.716,28.089,20.71,46.569,20.71c9.996,0,19.443-2.342,27.83-6.502
	c7.945,4.145,16.972,6.502,26.554,6.502c15.618,0,29.773-6.236,40.136-16.342c5.389,2.088,11.241,3.245,17.367,3.245
	c26.567,0,48.104-21.537,48.104-48.104S379.296,82.288,352.729,82.288z"/>
<path style="fill:#FFEC97;" d="M400.83,130.39c0,23.4-16.7,42.9-38.84,47.22c-3,0.58-6.09,0.89-9.26,0.89
	c-6.13,0-11.98-1.16-17.37-3.25c-10.36,10.11-24.52,16.34-40.13,16.34c-9.59,0-18.61-2.35-26.56-6.5
	c-5.05,2.5-10.48,4.35-16.18,5.41V67.24c9.77,1.83,18.74,5.93,26.34,11.73c5.2-1.54,10.7-2.38,16.4-2.38
	c12.96,0,24.92,4.29,34.53,11.52c6.83-3.71,14.65-5.82,22.97-5.82C379.3,82.29,400.83,103.82,400.83,130.39z"/>
<g>
	<circle style="fill:#FFFFFF;" cx="179.29" cy="407.8" r="9.618"/>
	<circle style="fill:#FFFFFF;" cx="252.49" cy="407.8" r="9.618"/>
</g>
<g>
	<path style="fill:#FFEC97;" d="M262.11,407.8c0,5.31-4.31,9.62-9.62,9.62v-19.24C257.8,398.18,262.11,402.49,262.11,407.8z"/>
	<circle style="fill:#FFEC97;" cx="325.69" cy="407.8" r="9.618"/>
</g>
<g>
</g>
<g>
</g>
<g>
</g>
<g>
</g>
<g>
</g>
<g>
</g>
<g>
</g>
<g>
</g>
<g>
</g>
<g>
</g>
<g>
</g>
<g>
</g>
<g>
</g>
<g>
</g>
<g>
</g>
</svg>
