<?xml version="1.0" encoding="iso-8859-1"?>
<!-- Generator: Adobe Illustrator 19.0.0, SVG Export Plug-In . SVG Version: 6.00 Build 0)  -->
<svg version="1.1" id="Capa_1" xmlns="http://www.w3.org/2000/svg" xmlns:xlink="http://www.w3.org/1999/xlink" x="0px" y="0px"
	 viewBox="0 0 512 512" style="enable-background:new 0 0 512 512;" xml:space="preserve">
<circle style="fill:#57555C;" cx="256" cy="256" r="256"/>
<path style="fill:#2A2A2C;" d="M512,256c0-2.883-0.065-5.75-0.16-8.609L344.008,79.558C323.527,57.298,291.718,43,256,43
	c-61.782,0-111.865,42.776-111.865,95.543c0,13.809,3.457,26.921,9.629,38.773c-8.271,6.866-13.541,17.221-13.541,28.81
	c0,10.161,4.054,19.372,10.628,26.115l99.895,99.9l-41.338-17.821l-43.64-43.199c-2.134-2.438-4.828-4.451-8.001-5.82
	c-11.405-4.917-24.636,0.343-29.553,11.748c-2.893,6.711-2.259,14.053,1.074,19.963c-6.585,1.634-12.359,6.214-15.252,12.925
	c-3.79,8.792-1.531,18.667,4.928,24.984l40.923,40.92l-1.568,0.676l-6.859-7.06c-6.27-7.023-16.556-9.603-25.677-5.67
	c-11.405,4.916-16.665,18.148-11.748,29.553c1.062,2.465,2.515,4.639,4.253,6.487l9.682,9.214
	c-2.12,5.344-2.213,11.491,0.243,17.187c1.243,2.884,3.02,5.373,5.164,7.405l74.082,73.751C223.178,510.401,239.401,512,256,512
	C397.385,512,512,397.385,512,256z"/>
<path style="fill:#FFFFFF;" d="M358.236,177.317c6.172-11.853,9.629-24.965,9.629-38.773C367.865,85.776,317.782,43,256,43
	s-111.865,42.776-111.865,95.543c0,13.809,3.457,26.921,9.629,38.773c-8.271,6.866-13.541,17.221-13.541,28.81
	c0,20.671,16.758,37.429,37.429,37.429c8.908,0,17.08-3.125,23.507-8.322v32.287c0,12.501,10.134,22.636,22.636,22.636h2.699
	v-53.229h20.188v53.229h18.636v-53.229h20.188v53.229h2.699c12.501,0,22.636-10.134,22.636-22.636v-32.287
	c6.427,5.197,14.599,8.322,23.507,8.322c20.671,0,37.429-16.758,37.429-37.429C371.777,194.537,366.507,184.182,358.236,177.317z
	 M216.971,162.182h-3.427c-15.837,0-28.794-12.957-28.794-28.794v-3.171c0-15.837,12.957-28.794,28.794-28.794h3.427
	c15.837,0,28.794,12.957,28.794,28.794v3.171C245.765,149.225,232.808,162.182,216.971,162.182z M270.969,207.748h-29.937
	c-6.717,0-10.84-7.357-7.334-13.087l14.969-24.461c3.353-5.48,11.314-5.48,14.668,0l14.969,24.461
	C281.809,200.391,277.686,207.748,270.969,207.748z M327.25,133.389c0,15.837-12.957,28.794-28.794,28.794h-3.427
	c-15.837,0-28.794-12.957-28.794-28.794v-3.171c0-15.837,12.957-28.794,28.794-28.794h3.427c15.837,0,28.794,12.957,28.794,28.794
	V133.389z"/>
<path style="fill:#54FBFF;" d="M358.231,177.315c6.173-11.852,9.634-24.969,9.634-38.775C367.864,85.775,317.777,43,256,43v123.084
	c2.828,0,5.656,1.368,7.334,4.115l14.967,24.463c3.506,5.725-0.621,13.082-7.334,13.082H256v82.412h9.323v-53.225h20.186v53.225
	h2.702c12.496,0,22.635-10.139,22.635-22.635V235.23c6.426,5.196,14.599,8.323,23.497,8.323c20.681,0,37.43-16.761,37.43-37.43
	C371.772,194.536,366.508,184.178,358.231,177.315z M327.25,133.39c0,15.829-12.956,28.797-28.797,28.797h-3.426
	c-15.841,0-28.797-12.967-28.797-28.797v-3.173c0-15.841,12.956-28.797,28.797-28.797h3.426c15.841,0,28.797,12.956,28.797,28.797
	V133.39z"/>
<path style="fill:#FFFFFF;" d="M386.215,363.787c-11.405-4.917-24.636,0.343-29.553,11.748c-0.279,0.645-0.514,1.298-0.728,1.954
	l-59.962-25.85l59.962-25.85c0.214,0.655,0.449,1.308,0.728,1.954c4.917,11.405,18.148,16.665,29.553,11.748
	c11.405-4.917,16.665-18.148,11.748-29.553c-2.893-6.711-8.667-11.291-15.252-12.925c3.333-5.91,3.967-13.251,1.074-19.963
	c-4.917-11.405-18.148-16.665-29.553-11.748c-11.405,4.917-16.665,18.148-11.748,29.553c0.278,0.646,0.591,1.265,0.921,1.87
	l-87.406,37.681l-87.406-37.681c0.33-0.605,0.643-1.225,0.921-1.87c4.917-11.405-0.343-24.636-11.748-29.553
	c-11.405-4.917-24.636,0.343-29.553,11.748c-2.893,6.711-2.259,14.053,1.074,19.963c-6.585,1.634-12.359,6.214-15.252,12.925
	c-4.917,11.405,0.343,24.636,11.748,29.553c11.405,4.917,24.636-0.343,29.553-11.748c0.278-0.646,0.514-1.298,0.728-1.954
	l59.962,25.85l-59.962,25.85c-0.214-0.656-0.45-1.308-0.728-1.954c-4.917-11.405-18.148-16.665-29.553-11.748
	c-11.405,4.917-16.665,18.148-11.748,29.553c2.893,6.711,8.666,11.291,15.252,12.925c-3.333,5.91-3.967,13.252-1.074,19.963
	c4.917,11.405,18.148,16.665,29.553,11.748c11.405-4.916,16.665-18.148,11.748-29.553c-0.278-0.646-0.591-1.265-0.921-1.871
	l87.406-37.681l87.406,37.681c-0.33,0.605-0.643,1.225-0.921,1.871c-4.917,11.405,0.343,24.636,11.748,29.553
	c11.405,4.917,24.636-0.343,29.553-11.748c2.893-6.711,2.259-14.053-1.074-19.963c6.585-1.634,12.358-6.214,15.252-12.925
	C402.88,381.935,397.62,368.704,386.215,363.787z"/>
<path style="fill:#54FBFF;" d="M397.963,393.341c-2.891,6.712-8.663,11.293-15.251,12.926c3.334,5.908,3.969,13.255,1.078,19.957
	c-4.921,11.407-18.154,16.668-29.561,11.747c-11.407-4.91-16.657-18.142-11.747-29.549c0.283-0.646,0.59-1.259,0.918-1.871
	l-87.401-37.679v-34.47l87.401-37.679c-0.329-0.601-0.635-1.225-0.918-1.871c-4.91-11.407,0.34-24.628,11.747-29.549
	c11.407-4.921,24.639,0.34,29.561,11.747c2.891,6.713,2.256,14.049-1.078,19.968c6.588,1.633,12.36,6.214,15.251,12.926
	c4.921,11.396-0.34,24.628-11.747,29.549c-11.407,4.91-24.639-0.34-29.549-11.747c-0.284-0.646-0.522-1.304-0.737-1.961
	l-59.96,25.853l59.96,25.853c0.215-0.658,0.453-1.304,0.737-1.95c4.91-11.407,18.142-16.668,29.549-11.747
	C397.623,368.702,402.884,381.934,397.963,393.341z"/>
<g>
</g>
<g>
</g>
<g>
</g>
<g>
</g>
<g>
</g>
<g>
</g>
<g>
</g>
<g>
</g>
<g>
</g>
<g>
</g>
<g>
</g>
<g>
</g>
<g>
</g>
<g>
</g>
<g>
</g>
</svg>
