<?xml version="1.0" encoding="iso-8859-1"?>
<!-- Generator: Adobe Illustrator 19.0.0, SVG Export Plug-In . SVG Version: 6.00 Build 0)  -->
<svg version="1.1" id="Capa_1" xmlns="http://www.w3.org/2000/svg" xmlns:xlink="http://www.w3.org/1999/xlink" x="0px" y="0px"
	 viewBox="0 0 512 512" style="enable-background:new 0 0 512 512;" xml:space="preserve">
<circle style="fill:#FF0435;" cx="256" cy="256" r="256"/>
<path style="fill:#990011;" d="M512,256c0-6.88-0.28-13.694-0.812-20.437L335.625,60h-39.618v36.123
	c0,11.792-5.106,22.387-13.224,29.708L215.993,60h-39.618v71.65c0,33.035-26.781,59.816-59.816,59.816l0,0v232.867l80.945,80.945
	C216.292,509.67,235.873,512,256,512C397.385,512,512,397.385,512,256z"/>
<path style="fill:#FFFFFF;" d="M335.625,131.65V60h-39.618v36.123c0,22.095-17.912,40.007-40.007,40.007l0,0
	c-22.095,0-40.007-17.911-40.007-40.007V60h-39.618v71.65c0,33.035-26.781,59.816-59.816,59.816l0,0v232.867h278.882V191.466l0,0
	C362.405,191.466,335.625,164.686,335.625,131.65z"/>
<path style="fill:#FFEC97;" d="M395.44,191.47v232.86H256v-288.2c22.1,0,40.01-17.91,40.01-40.01V60h39.61v71.65
	c0,16.52,6.7,31.47,17.52,42.3C363.97,184.78,378.92,191.47,395.44,191.47z"/>
<path style="fill:#00F8FE;" d="M215.99,96.12c0,7.64,2.14,14.79,5.86,20.86h-45.47V90.33h39.61V96.12z"/>
<path style="fill:#00B7BE;" d="M335.62,90.33v26.65h-45.47c3.72-6.07,5.86-13.22,5.86-20.86v-5.79H335.62z"/>
<path style="fill:#00F8FE;" d="M368.84,185.24H143.16c11.56-5.75,21-15.13,26.82-26.65h172.05c2.87,5.71,6.64,10.88,11.11,15.36
	C357.7,178.51,363,182.34,368.84,185.24z"/>
<path style="fill:#00B7BE;" d="M368.84,185.24H256v-26.65h86.03c2.87,5.71,6.64,10.88,11.11,15.36
	C357.7,178.51,363,182.34,368.84,185.24z"/>
<g>
	<rect x="116.56" y="226.84" style="fill:#00F8FE;" width="278.88" height="26.65"/>
	<rect x="116.56" y="295.1" style="fill:#00F8FE;" width="278.88" height="26.65"/>
	<rect x="116.56" y="363.35" style="fill:#00F8FE;" width="278.88" height="26.65"/>
</g>
<g>
	<rect x="256" y="226.84" style="fill:#00B7BE;" width="139.44" height="26.65"/>
	<rect x="256" y="295.1" style="fill:#00B7BE;" width="139.44" height="26.65"/>
	<rect x="256" y="363.35" style="fill:#00B7BE;" width="139.44" height="26.65"/>
</g>
<g>
</g>
<g>
</g>
<g>
</g>
<g>
</g>
<g>
</g>
<g>
</g>
<g>
</g>
<g>
</g>
<g>
</g>
<g>
</g>
<g>
</g>
<g>
</g>
<g>
</g>
<g>
</g>
<g>
</g>
</svg>
