<?xml version="1.0" encoding="iso-8859-1"?>
<!-- Generator: Adobe Illustrator 19.0.0, SVG Export Plug-In . SVG Version: 6.00 Build 0)  -->
<svg version="1.1" id="Capa_1" xmlns="http://www.w3.org/2000/svg" xmlns:xlink="http://www.w3.org/1999/xlink" x="0px" y="0px"
	 viewBox="0 0 512 512" style="enable-background:new 0 0 512 512;" xml:space="preserve">
<circle style="fill:#00F8FE;" cx="256" cy="256" r="256"/>
<path style="fill:#00B7BE;" d="M512,256c0-14.915-1.29-29.527-3.738-43.742L349.852,53.847L317.399,86.3l9.845,9.845l-95.254,95.254
	l8.332,8.332l-87,87l8.982,8.982l-64.029,64.029l-7.728-7.728l-21.76,21.76L201.09,506.077C218.782,509.944,237.15,512,256,512
	C397.385,512,512,397.385,512,256z"/>
<rect x="105.038" y="316.987" transform="matrix(-0.7071 0.7071 -0.7071 -0.7071 512.8752 489.3836)" style="fill:#AB3CCC;" width="100.089" height="67.85"/>
<g>
	
		<rect x="150.113" y="312.862" transform="matrix(0.7071 0.7071 -0.7071 0.7071 305.5455 -11.8497)" style="fill:#802897;" width="33.928" height="100.079"/>
	
		<rect x="168.022" y="228.95" transform="matrix(-0.7071 0.7071 -0.7071 -0.7071 588.2258 307.507)" style="fill:#802897;" width="124.809" height="93.259"/>
</g>
<rect x="223.593" y="229.658" transform="matrix(0.7071 0.7071 -0.7071 0.7071 278.8405 -89.0461)" style="fill:#451152;" width="46.632" height="124.819"/>
<rect x="253.33" y="126.093" transform="matrix(-0.7071 0.7071 -0.7071 -0.7071 679.283 87.6476)" style="fill:#AB3CCC;" width="136.319" height="116.829"/>
<rect x="312.94" y="137.01" transform="matrix(0.7071 0.7071 -0.7071 0.7071 245.2847 -181.8414)" style="fill:#802897;" width="58.409" height="136.309"/>
<g>
	
		<rect x="361.826" y="48.886" transform="matrix(-0.7071 0.7071 -0.7071 -0.7071 742.5644 -65.1404)" style="fill:#FFAA20;" width="45.895" height="144.669"/>
	
		<rect x="95.997" y="349.756" transform="matrix(-0.7071 0.7071 -0.7071 -0.7071 469.1758 594.8828)" style="fill:#FFAA20;" width="30.773" height="89.709"/>
</g>
<g>
	
		<rect x="104.81" y="395.081" transform="matrix(0.7071 0.7071 -0.7071 0.7071 327.5092 30.2542)" style="fill:#E67500;" width="44.85" height="30.769"/>
	
		<rect x="374.172" y="123.855" transform="matrix(0.7071 0.7071 -0.7071 0.7071 223.9906 -247.1583)" style="fill:#E67500;" width="72.339" height="45.894"/>
</g>
<g>
</g>
<g>
</g>
<g>
</g>
<g>
</g>
<g>
</g>
<g>
</g>
<g>
</g>
<g>
</g>
<g>
</g>
<g>
</g>
<g>
</g>
<g>
</g>
<g>
</g>
<g>
</g>
<g>
</g>
</svg>
