<?xml version="1.0" encoding="iso-8859-1"?>
<!-- Generator: Adobe Illustrator 19.0.0, SVG Export Plug-In . SVG Version: 6.00 Build 0)  -->
<svg version="1.1" id="Capa_1" xmlns="http://www.w3.org/2000/svg" xmlns:xlink="http://www.w3.org/1999/xlink" x="0px" y="0px"
	 viewBox="0 0 512 512" style="enable-background:new 0 0 512 512;" xml:space="preserve">
<circle style="fill:#57555C;" cx="256" cy="256" r="256"/>
<path style="fill:#2A2A2C;" d="M512,256c0-11.868-0.826-23.541-2.389-34.979L404.75,110.252
	c-14.9-15.698-35.947-25.504-59.25-25.504h-31.795c-18.121-6.104-37.526-9.415-57.705-9.415s-39.584,3.311-57.705,9.415H166.5
	c-45.078,0-81.752,36.674-81.752,81.752v31.795c-6.104,18.121-9.415,37.526-9.415,57.705s3.311,39.584,9.415,57.705V345.5
	c0,23.218,9.733,44.2,25.331,59.092l104.11,103.99C227.797,510.818,241.759,512,256,512C397.385,512,512,397.385,512,256z"/>
<path style="fill:#FFC473;" d="M345.5,427.252h-179c-45.078,0-81.752-36.674-81.752-81.752v-179
	c0-45.078,36.674-81.752,81.752-81.752h179c45.078,0,81.752,36.674,81.752,81.752v179
	C427.252,390.578,390.578,427.252,345.5,427.252z M166.5,99.748c-36.807,0-66.752,29.945-66.752,66.752v179
	c0,36.807,29.945,66.752,66.752,66.752h179c36.807,0,66.752-29.945,66.752-66.752v-179c0-36.807-29.945-66.752-66.752-66.752H166.5z
	"/>
<path style="fill:#FF9A00;" d="M345.5,84.75H256v15h89.5c0.43,0,0.85,0,1.28,0.01c35.8,0.68,64.78,29.66,65.46,65.46
	c0.01,0.43,0.01,0.85,0.01,1.28v179c0,0.43,0,0.85-0.01,1.28c-0.68,35.8-29.66,64.78-65.46,65.46c-0.43,0.01-0.85,0.01-1.28,0.01
	H256v15h89.5c45.08,0,81.75-36.67,81.75-81.75v-179C427.25,121.42,390.58,84.75,345.5,84.75z"/>
<path style="fill:#FFFFFF;" d="M256,75.333C156.221,75.333,75.333,156.22,75.333,256S156.221,436.667,256,436.667
	S436.667,355.779,436.667,256S355.779,75.333,256,75.333z M256,336.352c-44.377,0-80.352-35.975-80.352-80.352
	s35.975-80.351,80.352-80.351s80.352,35.975,80.352,80.351C336.352,300.377,300.377,336.352,256,336.352z"/>
<path style="fill:#54FBFF;" d="M427.25,198.26c-3.91-11.58-8.95-22.64-15.01-33.04c-15.77-27.08-38.38-49.69-65.46-65.46
	c-10.4-6.06-21.46-11.1-33.04-15.01c-18.13-6.11-37.55-9.42-57.74-9.42v100.32c44.38,0,80.35,35.97,80.35,80.35
	s-35.97,80.35-80.35,80.35v100.32c20.19,0,39.61-3.31,57.74-9.42c11.58-3.91,22.64-8.95,33.04-15.01
	c27.08-15.77,49.69-38.38,65.46-65.46c6.06-10.4,11.1-21.46,15.01-33.04c6.11-18.13,9.42-37.55,9.42-57.74
	S433.36,216.39,427.25,198.26z"/>
<path style="fill:#990011;" d="M433.059,219.919H327.79c5.465,10.852,8.561,23.102,8.561,36.081c0,12.98-3.096,25.229-8.561,36.081
	h105.269c2.363-11.659,3.607-23.725,3.607-36.081C436.667,243.643,435.422,231.578,433.059,219.919z"/>
<path style="fill:#FF0435;" d="M256,336.352c-12.98,0-25.229-3.096-36.081-8.562v105.269c11.659,2.363,23.725,3.607,36.081,3.607
	c12.357,0,24.422-1.244,36.081-3.607V327.79C281.229,333.255,268.98,336.352,256,336.352z"/>
<path style="fill:#990011;" d="M292.08,327.79v105.27c-11.66,2.36-23.72,3.61-36.08,3.61V336.35
	C268.98,336.35,281.23,333.26,292.08,327.79z"/>
<g>
	<path style="fill:#FF0435;" d="M175.648,256c0-12.98,3.096-25.229,8.562-36.081H78.941c-2.363,11.659-3.607,23.725-3.607,36.081
		c0,12.357,1.244,24.422,3.607,36.081H184.21C178.745,281.229,175.648,268.98,175.648,256z"/>
	<path style="fill:#FF0435;" d="M256,175.649c12.98,0,25.229,3.096,36.081,8.561V78.941c-11.659-2.363-23.725-3.607-36.081-3.607
		c-12.357,0-24.422,1.244-36.081,3.607V184.21C230.771,178.745,243.02,175.649,256,175.649z"/>
</g>
<path style="fill:#990011;" d="M292.08,78.94v105.27c-10.85-5.47-23.1-8.56-36.08-8.56V75.33
	C268.36,75.33,280.42,76.58,292.08,78.94z"/>
<path style="fill:#2A2A2C;" d="M127.528,112.38c-6.385,4.913-12.007,10.766-16.674,17.347
	C115.322,122.987,120.98,117.108,127.528,112.38z"/>
<g>
</g>
<g>
</g>
<g>
</g>
<g>
</g>
<g>
</g>
<g>
</g>
<g>
</g>
<g>
</g>
<g>
</g>
<g>
</g>
<g>
</g>
<g>
</g>
<g>
</g>
<g>
</g>
<g>
</g>
</svg>
