<?xml version="1.0" encoding="iso-8859-1"?>
<!-- Generator: Adobe Illustrator 19.0.0, SVG Export Plug-In . SVG Version: 6.00 Build 0)  -->
<svg version="1.1" id="Capa_1" xmlns="http://www.w3.org/2000/svg" xmlns:xlink="http://www.w3.org/1999/xlink" x="0px" y="0px"
	 viewBox="0 0 512 512" style="enable-background:new 0 0 512 512;" xml:space="preserve">
<circle style="fill:#FF0435;" cx="256" cy="256" r="256"/>
<path style="fill:#990011;" d="M508.646,297.425l-187.42-187.42H190.774l-33.918,121.081H91.629L57.712,352.167L214.115,508.57
	C227.746,510.814,241.734,512,256,512C383.279,512,488.845,419.108,508.646,297.425z"/>
<g>
	<polygon style="fill:#FFDF47;" points="420.371,231.086 289.918,231.086 256,352.167 454.288,352.167 	"/>
	<polygon style="fill:#FFDF47;" points="222.082,231.086 91.629,231.086 57.712,352.167 256,352.167 	"/>
</g>
<g>
	<polygon style="fill:#FDC000;" points="256,352.167 156.861,352.167 156.861,231.089 222.083,231.089 	"/>
	<polygon style="fill:#FDC000;" points="454.288,352.167 355.149,352.167 355.149,231.089 420.371,231.089 	"/>
</g>
<polygon style="fill:#FFDF47;" points="321.226,110.005 190.774,110.005 156.856,231.086 355.144,231.086 "/>
<polygon style="fill:#FDC000;" points="355.139,231.089 256,231.089 256,110 321.222,110 "/>
<g>
</g>
<g>
</g>
<g>
</g>
<g>
</g>
<g>
</g>
<g>
</g>
<g>
</g>
<g>
</g>
<g>
</g>
<g>
</g>
<g>
</g>
<g>
</g>
<g>
</g>
<g>
</g>
<g>
</g>
</svg>
