<?xml version="1.0" encoding="iso-8859-1"?>
<!-- Generator: Adobe Illustrator 19.0.0, SVG Export Plug-In . SVG Version: 6.00 Build 0)  -->
<svg version="1.1" id="Capa_1" xmlns="http://www.w3.org/2000/svg" xmlns:xlink="http://www.w3.org/1999/xlink" x="0px" y="0px"
	 viewBox="0 0 512 512" style="enable-background:new 0 0 512 512;" xml:space="preserve">
<circle style="fill:#9330B2;" cx="256" cy="256" r="256"/>
<path style="fill:#5C1B6F;" d="M512,256c0-0.428-0.014-0.852-0.016-1.28L384.178,126.81C351.284,94.171,306,74,256,74
	C155.484,74,74,155.484,74,256c0,50.217,20.345,95.675,53.233,128.603l127.468,127.38c0.434,0.002,0.864,0.016,1.299,0.016
	C397.385,512,512,397.385,512,256z"/>
<circle style="fill:#FFE670;" cx="256" cy="256" r="182"/>
<path style="fill:#FFDB2D;" d="M438,256c0,100.52-81.48,182-182,182V74C356.52,74,438,155.48,438,256z"/>
<circle style="fill:#FFCF00;" cx="256" cy="256" r="137"/>
<path style="fill:#FFAA20;" d="M393,256c0,75.66-61.34,137-137,137V119C331.66,119,393,180.34,393,256z"/>
<path style="fill:#FF9A00;" d="M333.163,262.851c4.658-8.946,7.268-18.842,7.268-29.264c0-39.826-37.801-72.111-84.431-72.111
	s-84.431,32.285-84.431,72.111c0,10.422,2.609,20.318,7.268,29.264c-6.242,5.182-10.22,12.997-10.22,21.744
	c0,15.602,12.648,28.25,28.25,28.25c6.724,0,12.891-2.359,17.742-6.281v24.369c0,9.435,7.649,17.084,17.084,17.084h2.037v-40.175
	h15.237v40.175h14.065v-40.175h15.237v40.175h2.037c9.435,0,17.085-7.649,17.085-17.084v-24.369
	c4.851,3.922,11.018,6.281,17.742,6.281c15.602,0,28.25-12.648,28.25-28.25C343.383,275.848,339.405,268.033,333.163,262.851z
	 M226.543,251.429h-2.587c-11.953,0-21.732-9.779-21.732-21.732v-2.394c0-11.953,9.779-21.732,21.732-21.732h2.587
	c11.953,0,21.732,9.779,21.732,21.732v2.394C248.275,241.649,238.496,251.429,226.543,251.429z M267.298,285.819h-22.595
	c-5.07,0-8.182-5.553-5.535-9.877l11.298-18.462c2.531-4.136,8.54-4.136,11.071,0l11.298,18.462
	C275.479,280.267,272.367,285.819,267.298,285.819z M309.776,229.696c0,11.953-9.779,21.732-21.732,21.732h-2.587
	c-11.953,0-21.732-9.779-21.732-21.732v-2.394c0-11.953,9.779-21.732,21.732-21.732h2.587c11.953,0,21.732,9.779,21.732,21.732
	V229.696z"/>
<path style="fill:#C06100;" d="M333.16,262.85c4.66-8.94,7.27-18.84,7.27-29.26c0-39.83-37.8-72.11-84.43-72.11v92.9
	c2.14,0,4.27,1.03,5.54,3.1l11.29,18.46c2.65,4.33-0.46,9.88-5.53,9.88H256v62.2h7.03v-40.18h15.24v40.18h2.04
	c9.43,0,17.08-7.65,17.08-17.09v-24.37c4.85,3.93,11.02,6.28,17.74,6.28c15.61,0,28.25-12.64,28.25-28.24
	C343.38,275.85,339.41,268.03,333.16,262.85z M309.78,229.7c0,11.95-9.78,21.73-21.74,21.73h-2.58c-11.96,0-21.74-9.78-21.74-21.73
	v-2.4c0-11.95,9.78-21.73,21.74-21.73h2.58c11.96,0,21.74,9.78,21.74,21.73V229.7z"/>
<g>
</g>
<g>
</g>
<g>
</g>
<g>
</g>
<g>
</g>
<g>
</g>
<g>
</g>
<g>
</g>
<g>
</g>
<g>
</g>
<g>
</g>
<g>
</g>
<g>
</g>
<g>
</g>
<g>
</g>
</svg>
