<?xml version="1.0" encoding="iso-8859-1"?>
<!-- Generator: Adobe Illustrator 19.0.0, SVG Export Plug-In . SVG Version: 6.00 Build 0)  -->
<svg version="1.1" id="Capa_1" xmlns="http://www.w3.org/2000/svg" xmlns:xlink="http://www.w3.org/1999/xlink" x="0px" y="0px"
	 viewBox="0 0 512 512" style="enable-background:new 0 0 512 512;" xml:space="preserve">
<circle style="fill:#B6EFAB;" cx="256" cy="256" r="256"/>
<path style="fill:#5EDE4E;" d="M512,256c0-13.456-1.045-26.668-3.045-39.563L357.619,65.101l-12.726,1.414L324.535,46l-9.516,21.719
	l-23.567-2.618l6.588,8.956h-10.7c-22.875,0-41.485,18.61-41.485,41.485v44.608h-69.897v47.104
	c-34.395,24.852-56.782,65.294-56.782,110.971c0,39.499,16.744,75.081,43.513,100.057l93.713,93.713
	C397.601,511.777,512,397.251,512,256z"/>
<path style="fill:#FFFFFF;" d="M266.145,162.946h-20.29v-47.404c0-22.875,18.611-41.485,41.485-41.485h18.741v20.29H287.34
	c-11.688,0-21.195,9.508-21.195,21.195V162.946z"/>
<path style="fill:#FFEC97;" d="M306.08,74.06v20.29h-18.74c-11.69,0-21.2,9.5-21.2,21.19v47.41H256V88.39
	c7.62-8.77,18.84-14.33,31.34-14.33H306.08z"/>
<path style="fill:#57555C;" d="M336.042,207.254V160.15H175.958v47.104c-34.395,24.852-56.782,65.294-56.782,110.971
	c0,75.566,61.258,136.824,136.824,136.824s136.824-61.258,136.824-136.824C392.824,272.549,370.437,232.107,336.042,207.254z"/>
<path style="fill:#2A2A2C;" d="M392.82,318.23c0,75.56-61.25,136.82-136.82,136.82v-294.9h80.04v47.1
	C370.44,232.11,392.82,272.55,392.82,318.23z"/>
<polygon style="fill:#FF4F19;" points="324.535,46 334.052,67.719 357.619,65.101 343.568,84.201 357.619,103.302 334.052,100.684 
	324.535,122.403 315.019,100.684 291.452,103.302 305.502,84.201 291.452,65.101 315.019,67.719 "/>
<g>
</g>
<g>
</g>
<g>
</g>
<g>
</g>
<g>
</g>
<g>
</g>
<g>
</g>
<g>
</g>
<g>
</g>
<g>
</g>
<g>
</g>
<g>
</g>
<g>
</g>
<g>
</g>
<g>
</g>
</svg>
