<?xml version="1.0" encoding="iso-8859-1"?>
<!-- Generator: Adobe Illustrator 19.0.0, SVG Export Plug-In . SVG Version: 6.00 Build 0)  -->
<svg version="1.1" id="Capa_1" xmlns="http://www.w3.org/2000/svg" xmlns:xlink="http://www.w3.org/1999/xlink" x="0px" y="0px"
	 viewBox="0 0 512 512" style="enable-background:new 0 0 512 512;" xml:space="preserve">
<circle style="fill:#FF0435;" cx="256" cy="256" r="256"/>
<path style="fill:#990011;" d="M511.308,274.841L273.467,37h-34.933v77.675l-22.68,4.181c-9.478,1.747-15.744,10.847-13.997,20.324
	l0.174,0.942c0.71,3.852,2.636,7.169,5.309,9.633l5.435,5.254c-7.707,2.946-12.467,11.042-10.918,19.447l0.174,0.942
	c0.705,3.823,2.607,7.118,5.248,9.576l5.496,5.311c-7.707,2.946-12.467,11.042-10.918,19.447l0.174,0.942
	c0.604,3.277,2.09,6.165,4.165,8.472l17.226,17.013c-21.77,28.062-53.497,76.835-53.497,122.757
	c0,33.703,8.226,60.514,24.449,79.686c0,0,40.668,40.84,72.906,73.139C397.158,506.106,501.932,403.716,511.308,274.841z"/>
<path style="fill:#FFCF00;" d="M273.467,217.878V37h-34.933v180.877c-16.458,18.594-68.609,82.166-68.609,141.037
	c0,33.703,8.226,60.514,24.448,79.686c15.238,18.009,37.124,27.927,61.627,27.927c24.502,0,46.388-9.918,61.627-27.927
	c16.223-19.172,24.449-45.982,24.449-79.686C342.076,300.044,289.924,236.472,273.467,217.878z M256,431.594
	c-32.502,0-51.142-26.49-51.142-72.679c0-39.057,32.541-84.679,51.142-107.565c18.604,22.891,51.143,68.51,51.143,107.565
	C307.142,405.103,288.502,431.594,256,431.594z"/>
<path style="fill:#FFAA20;" d="M273.47,217.88V37H256v214.35c18.6,22.89,51.14,68.51,51.14,107.56c0,46.19-18.64,72.68-51.14,72.68
	v34.94c24.5,0,46.39-9.92,61.63-27.93c16.22-19.17,24.45-45.98,24.45-79.69C342.08,300.04,289.92,236.47,273.47,217.88z"/>
<path style="fill:#FFE670;" d="M289.646,175.804l-73.793,13.603c-9.478,1.747-15.744,10.847-13.997,20.324l0.174,0.942
	c1.747,9.478,10.847,15.744,20.324,13.997l73.793-13.603c9.478-1.747,15.744-10.847,13.997-20.324l-0.174-0.942
	C308.224,180.323,299.124,174.056,289.646,175.804z"/>
<path style="fill:#FFDB2D;" d="M296.15,211.07l-22.68,4.18L256,218.47v-36.46l17.47-3.23l16.18-2.98c2.18-0.4,4.33-0.38,6.38,0.01
	c6.89,1.3,12.59,6.69,13.94,13.99l0.17,0.94C311.89,200.22,305.62,209.32,296.15,211.07z"/>
<path style="fill:#FFCF00;" d="M289.646,140.528l-73.793,13.603c-9.478,1.747-15.744,10.847-13.997,20.324l0.174,0.942
	c1.747,9.478,10.847,15.745,20.324,13.997l73.793-13.603c9.478-1.747,15.744-10.847,13.997-20.324l-0.174-0.942
	C308.224,145.048,299.124,138.781,289.646,140.528z"/>
<path style="fill:#FFAA20;" d="M296.15,175.79l-0.12,0.02l-22.56,4.16L256,183.19v-36.46l17.47-3.22l16.18-2.98
	c2.18-0.4,4.33-0.38,6.38,0.01c6.88,1.29,12.59,6.69,13.94,13.99l0.17,0.94C311.89,164.94,305.62,174.04,296.15,175.79z"/>
<path style="fill:#FFE670;" d="M289.646,105.252l-73.793,13.603c-9.478,1.747-15.744,10.847-13.997,20.324l0.174,0.942
	c1.747,9.478,10.847,15.745,20.324,13.997l73.793-13.603c9.478-1.747,15.744-10.847,13.997-20.324l-0.174-0.942
	C308.224,109.772,299.124,103.505,289.646,105.252z"/>
<path style="fill:#FFDB2D;" d="M296.15,140.52l-0.12,0.02l-22.56,4.16L256,147.92v-36.46l17.47-3.23l16.18-2.98
	c9.47-1.74,18.57,4.52,20.32,14l0.17,0.94C311.89,129.67,305.62,138.77,296.15,140.52z"/>
<g>
</g>
<g>
</g>
<g>
</g>
<g>
</g>
<g>
</g>
<g>
</g>
<g>
</g>
<g>
</g>
<g>
</g>
<g>
</g>
<g>
</g>
<g>
</g>
<g>
</g>
<g>
</g>
<g>
</g>
</svg>
