<?xml version="1.0" encoding="iso-8859-1"?>
<!-- Generator: Adobe Illustrator 19.0.0, SVG Export Plug-In . SVG Version: 6.00 Build 0)  -->
<svg version="1.1" id="Capa_1" xmlns="http://www.w3.org/2000/svg" xmlns:xlink="http://www.w3.org/1999/xlink" x="0px" y="0px"
	 viewBox="0 0 512 512" style="enable-background:new 0 0 512 512;" xml:space="preserve">
<circle style="fill:#57555C;" cx="256" cy="256" r="256"/>
<path style="fill:#2A2A2C;" d="M511.671,269.07L299.019,56.418C288.777,44.026,273.295,36.115,256,36.115
	c-30.765,0-55.794,25.029-55.794,55.795c0,16.919,7.58,32.092,19.511,42.333c-0.444,2.268-0.683,4.61-0.683,7.008v9.8
	C150.51,167.66,99.619,229.394,99.619,303.024c0,45.099,19.098,85.731,49.64,114.272l94.402,94.402
	C247.75,511.893,251.862,512,256,512C393.001,512,504.866,404.381,511.671,269.07z"/>
<path style="fill:#FFB84D;" d="M256,147.704c-30.765,0-55.794-25.029-55.794-55.795c0-30.765,25.029-55.795,55.794-55.795
	s55.794,25.029,55.794,55.795S286.765,147.704,256,147.704z M256,53.435c-21.214,0-38.474,17.26-38.474,38.474
	s17.259,38.474,38.474,38.474s38.474-17.259,38.474-38.474S277.214,53.435,256,53.435z"/>
<path style="fill:#FF8C00;" d="M256,36.11v17.33c21.21,0,38.47,17.25,38.47,38.47c0,9.99-3.82,19.09-10.07,25.93
	c-7.05,7.7-17.17,12.54-28.4,12.54v17.32c3.18,0,6.31-0.27,9.34-0.78c10.18-1.73,19.43-6.22,26.95-12.67
	c11.93-10.24,19.5-25.42,19.5-42.34C311.79,61.14,286.76,36.11,256,36.11z"/>
<path style="fill:#FFE670;" d="M292.966,155.38h-73.932v-14.13c0-20.038,16.244-36.283,36.283-36.283h1.367
	c20.038,0,36.283,16.244,36.283,36.283L292.966,155.38L292.966,155.38z"/>
<path style="fill:#FFCF00;" d="M292.97,141.25v14.13H256v-50.41h0.68c11.12,0,21.07,5,27.72,12.87c3.91,4.62,6.69,10.23,7.89,16.41
	C292.74,136.51,292.97,138.85,292.97,141.25z"/>
<circle style="fill:#FFB84D;" cx="256" cy="303.02" r="156.38"/>
<path style="fill:#FF8C00;" d="M412.38,303.02c0,86.37-70.01,156.39-156.38,156.39V146.64c3.14,0,6.25,0.09,9.34,0.28
	c9.46,0.55,18.7,1.95,27.63,4.11C361.5,167.65,412.38,229.4,412.38,303.02z"/>
<circle style="fill:#FFFFFF;" cx="256" cy="303.02" r="110.08"/>
<path style="fill:#FFEC97;" d="M366.08,303.02c0,60.8-49.28,110.09-110.08,110.09V192.94C316.8,192.94,366.08,242.23,366.08,303.02z
	"/>
<polygon style="fill:#00F8FE;" points="312.884,246.14 287.002,303.024 312.884,359.909 256,334.026 199.116,359.909 
	224.998,303.024 199.116,246.14 256,272.022 "/>
<polygon style="fill:#00B7BE;" points="295.88,322.53 312.88,359.91 275.51,342.91 256,334.03 256,272.02 275.51,263.14 
	312.88,246.14 295.87,283.52 287,303.02 "/>
<polygon style="fill:#FF0435;" points="256,211.073 281.057,277.967 347.951,303.024 281.057,328.081 256,394.975 230.943,328.081 
	164.049,303.024 230.943,277.967 "/>
<polygon style="fill:#990011;" points="347.95,303.02 295.88,322.53 281.06,328.08 275.51,342.91 256,394.98 256,211.07 
	275.51,263.14 281.06,277.97 295.87,283.52 "/>
<g>
</g>
<g>
</g>
<g>
</g>
<g>
</g>
<g>
</g>
<g>
</g>
<g>
</g>
<g>
</g>
<g>
</g>
<g>
</g>
<g>
</g>
<g>
</g>
<g>
</g>
<g>
</g>
<g>
</g>
</svg>
