<?xml version="1.0" encoding="iso-8859-1"?>
<!-- Generator: Adobe Illustrator 19.0.0, SVG Export Plug-In . SVG Version: 6.00 Build 0)  -->
<svg version="1.1" id="Capa_1" xmlns="http://www.w3.org/2000/svg" xmlns:xlink="http://www.w3.org/1999/xlink" x="0px" y="0px"
	 viewBox="0 0 512 512" style="enable-background:new 0 0 512 512;" xml:space="preserve">
<circle style="fill:#57555C;" cx="256" cy="256" r="256"/>
<path style="fill:#2A2A2C;" d="M512,256c0-25.369-3.708-49.868-10.581-73.006l-68.004-68.004c0,0-37.606-25.246-84.753-8.939
	l-16.545-18.159c0,0-130.594,19.713-97.716,120.139L78.605,381.043l125.743,125.743C221.031,510.204,238.306,512,256,512
	C397.385,512,512,397.385,512,256z"/>
<polygon style="fill:#E67500;" points="308.663,254.628 122.076,424.514 100.864,403.302 279.1,225.066 "/>
<polygon style="fill:#FF8C00;" points="122.074,424.512 78.605,381.043 247.51,193.475 308.661,254.626 "/>
<polygon style="fill:#C06200;" points="308.663,254.628 122.076,424.514 100.864,403.302 279.1,225.066 "/>
<path style="fill:#FFE047;" d="M433.415,114.99c0,0-48.607-32.643-104.581,0.261l3.284-27.358c0,0-165.222,24.935-77.21,161.614
	c0,0,107.532,76.891,156.998-51.484l-24.979-8.457C386.926,189.565,381.523,141.805,433.415,114.99z"/>
<path style="fill:#FDC000;" d="M254.908,249.504c-0.033-0.049-0.061-0.094-0.094-0.143l146.7-146.7
	c19.494,3.995,31.898,12.329,31.898,12.329c-51.889,26.812-46.486,74.578-46.486,74.578l24.979,8.454
	C362.44,326.399,254.908,249.504,254.908,249.504z"/>
<path style="fill:#FFAA20;" d="M356.069,160.011c0,0-125.962-13.547-92.571,80.663c0,0,35.358,19.136,60.778-6.513
	C341.395,216.888,319.139,185.907,356.069,160.011z"/>
<path style="fill:#E67500;" d="M324.279,234.16c-25.424,25.652-60.781,6.516-60.781,6.516l81.29-81.29
	c6.906,0.153,11.284,0.625,11.284,0.625C319.135,185.907,341.395,216.889,324.279,234.16z"/>
<g>
	<polygon style="fill:#FFFFFF;" points="257.613,301.105 279.413,281.256 222.911,281.256 222.911,220.792 203.062,242.834 
		203.062,281.256 168.463,281.256 150.589,301.105 203.062,301.105 203.062,350.773 222.911,332.701 222.911,301.105 	"/>
	<polygon style="fill:#FFFFFF;" points="257.613,301.105 279.413,281.256 222.911,281.256 222.911,220.792 203.062,242.834 
		203.062,281.256 168.463,281.256 150.589,301.105 203.062,301.105 203.062,350.773 222.911,332.701 222.911,301.105 	"/>
</g>
<polygon style="fill:#54FBFF;" points="203.062,350.773 222.911,332.701 222.911,301.105 257.613,301.105 279.413,281.256 
	222.911,281.256 222.911,281.255 203.06,301.105 203.062,301.105 "/>
<g>
</g>
<g>
</g>
<g>
</g>
<g>
</g>
<g>
</g>
<g>
</g>
<g>
</g>
<g>
</g>
<g>
</g>
<g>
</g>
<g>
</g>
<g>
</g>
<g>
</g>
<g>
</g>
<g>
</g>
</svg>
