<?xml version="1.0" encoding="iso-8859-1"?>
<!-- Generator: Adobe Illustrator 19.0.0, SVG Export Plug-In . SVG Version: 6.00 Build 0)  -->
<svg version="1.1" id="Capa_1" xmlns="http://www.w3.org/2000/svg" xmlns:xlink="http://www.w3.org/1999/xlink" x="0px" y="0px"
	 viewBox="0 0 512 512" style="enable-background:new 0 0 512 512;" xml:space="preserve">
<circle style="fill:#B6EFAB;" cx="256" cy="256" r="256"/>
<path style="fill:#5EDE4E;" d="M512,256c0-12.905-0.965-25.584-2.808-37.977L384.428,93.26l-29.591,15.736l5.291,9.949
	l-229.413,77.57c-52.694,17.817-76.844,78.633-50.726,127.745l0,0c4.317,8.117,9.678,15.258,15.804,21.394l6.63,6.608l-1.976,3.348
	c-10.28,17.416-4.95,37.911,8.85,49.182l103.57,103.57C226.891,510.743,241.298,512,256,512C397.385,512,512,397.385,512,256z"/>
<path style="fill:#57555C;" d="M416.958,199.076l-44.779-84.206l-241.464,81.645c-52.694,17.817-76.844,78.633-50.726,127.745l0,0
	c26.117,49.113,90.041,63.092,134.275,29.365L416.958,199.076z"/>
<path style="fill:#3C3B41;" d="M201.772,361.637c-43.033,22.884-98.035,7.283-121.783-37.376l314.576-167.286l22.391,42.105
	l-10.117,7.709L214.262,353.626C210.245,356.683,206.062,359.356,201.772,361.637z"/>
<rect x="337.264" y="138.23" transform="matrix(-0.4695 -0.8829 0.8829 -0.4695 448.4321 579.405)" style="fill:#78777F;" width="122.026" height="33.514"/>
<rect x="395.835" y="151.435" transform="matrix(-0.8829 0.4695 -0.4695 -0.8829 862.3101 148.8686)" style="fill:#57555C;" width="33.52" height="61.018"/>
<path style="fill:#FF0435;" d="M151.168,267.76c14.636-25.923,51.972-25.923,66.608,0l24.938,44.17l25.783,43.682
	c15.132,25.637-3.536,57.971-33.304,57.684l-50.721-0.488l-50.721,0.488c-29.768,0.286-48.436-32.047-33.304-57.684l25.783-43.682
	L151.168,267.76z"/>
<path style="fill:#990011;" d="M268.497,355.611l-25.783-43.682l-24.938-44.17c-7.318-12.962-20.311-19.442-33.304-19.442v164.49
	l50.721,0.488C264.961,413.582,283.629,381.248,268.497,355.611z"/>
<circle style="fill:#FFDF47;" cx="184.47" cy="308.72" r="27"/>
<path style="fill:#FF8900;" d="M211.472,308.717c0-14.912-12.088-27-27-27v54C199.384,335.717,211.472,323.628,211.472,308.717z"/>
<g>
</g>
<g>
</g>
<g>
</g>
<g>
</g>
<g>
</g>
<g>
</g>
<g>
</g>
<g>
</g>
<g>
</g>
<g>
</g>
<g>
</g>
<g>
</g>
<g>
</g>
<g>
</g>
<g>
</g>
</svg>
