<?xml version="1.0" encoding="iso-8859-1"?>
<!-- Generator: Adobe Illustrator 19.0.0, SVG Export Plug-In . SVG Version: 6.00 Build 0)  -->
<svg version="1.1" id="Capa_1" xmlns="http://www.w3.org/2000/svg" xmlns:xlink="http://www.w3.org/1999/xlink" x="0px" y="0px"
	 viewBox="0 0 512 512" style="enable-background:new 0 0 512 512;" xml:space="preserve">
<circle style="fill:#57555C;" cx="256" cy="256" r="256"/>
<path style="fill:#2A2A2C;" d="M512,256c0-11.684-0.799-23.18-2.315-34.448L346.134,58H165.866v41.114l15.813,15.553v106.032
	c0,18.564,7.183,35.442,18.916,48.026l20.281,20.218l18.97,135.215h-10.201V460l50.829,50.829C410.376,498.506,512,389.128,512,256z
	"/>
<polygon style="fill:#C06100;" points="218.142,269.456 241.066,432.848 270.934,432.848 293.858,269.456 "/>
<polygon style="fill:#9A4C00;" points="293.86,269.46 291.89,283.51 272.15,424.16 270.93,432.85 256,432.85 256,269.46 "/>
<path style="fill:#FFB84D;" d="M259.821,291.199h-7.642c-38.936,0-70.5-31.564-70.5-70.5V93.843h148.642v126.856
	C330.321,259.635,298.757,291.199,259.821,291.199z"/>
<path style="fill:#FF8C00;" d="M330.32,93.84V220.7c0,27.38-15.62,51.13-38.43,62.81c-9.62,4.91-20.52,7.69-32.07,7.69H256V93.84
	H330.32z"/>
<rect x="165.87" y="58" style="fill:#FFFFFF;" width="180.27" height="41.11"/>
<rect x="256" y="58" style="fill:#FFEC97;" width="90.13" height="41.11"/>
<rect x="229.65" y="424.16" style="fill:#FFFFFF;" width="52.71" height="35.843"/>
<rect x="256" y="424.16" style="fill:#FFEC97;" width="26.35" height="35.84"/>
<g>
</g>
<g>
</g>
<g>
</g>
<g>
</g>
<g>
</g>
<g>
</g>
<g>
</g>
<g>
</g>
<g>
</g>
<g>
</g>
<g>
</g>
<g>
</g>
<g>
</g>
<g>
</g>
<g>
</g>
</svg>
