<?xml version="1.0" encoding="iso-8859-1"?>
<!-- Generator: Adobe Illustrator 19.0.0, SVG Export Plug-In . SVG Version: 6.00 Build 0)  -->
<svg version="1.1" id="Capa_1" xmlns="http://www.w3.org/2000/svg" xmlns:xlink="http://www.w3.org/1999/xlink" x="0px" y="0px"
	 viewBox="0 0 512 512" style="enable-background:new 0 0 512 512;" xml:space="preserve">
<circle style="fill:#9330B2;" cx="256" cy="256" r="256"/>
<path style="fill:#5C1B6F;" d="M511.21,276.186L402.011,166.987c-5.196-5.782-11.153-10.74-17.755-14.415l-97.282-97.384
	c-6.747-6.924-15.572-11.125-25.237-11.125h-11.473c-21.201,0-38.389,20.183-38.389,45.079v41.255
	c-13.796,5.074-26.575,12.46-37.932,21.723c-4.73-2.91-10.054-5.578-14.29-6.067c-41.198-4.757-70.14,39.494-72.823,74.11
	c-0.527,6.797,0.762,10.635,3.308,12.418l30.938,30.108c-0.025,1.123-0.04,2.249-0.04,3.378c0,14.554,2.044,28.599,5.832,41.837
	c-0.912,0.586-1.736,1.202-2.44,1.849c-30.623,28.111-16.058,79.071,8.424,103.805c0,0,65.585,65.543,97.283,97.148
	C238.641,511.559,247.269,512,256,512C390.591,512,500.917,408.134,511.21,276.186z"/>
<path style="fill:#83E46F;" d="M185.695,160.47c0,0-16.053-13.265-26.043-14.418c-41.198-4.757-70.14,39.494-72.823,74.11
	c-2.285,29.475,29.541,3.345,50.198-4.898c6.886-2.748,14.674-4.803,20.586-1.153L185.695,160.47z"/>
<path style="fill:#2AD827;" d="M326.305,160.47c0,0,16.053-13.265,26.043-14.418c41.198-4.757,70.14,39.494,72.823,74.11
	c2.284,29.475-29.541,3.345-50.198-4.898c-6.886-2.748-14.674-4.803-20.586-1.153L326.305,160.47z"/>
<path style="fill:#83E46F;" d="M152.436,299.465c0,0-20.583,3.47-28.008,10.287c-30.623,28.111-16.058,79.071,8.424,103.805
	c20.846,21.061,21.908-20.201,29.206-41.266c2.433-7.022,5.982-14.274,12.626-16.362L152.436,299.465z"/>
<path style="fill:#2AD827;" d="M359.564,299.465c0,0,20.583,3.47,28.008,10.287c30.623,28.111,16.058,79.071-8.424,103.805
	c-20.846,21.061-21.908-20.201-29.206-41.266c-2.433-7.022-5.982-14.274-12.626-16.362L359.564,299.465z"/>
<polygon style="fill:#83E46F;" points="223.961,389.946 256,459.938 288.039,389.946 "/>
<polygon style="fill:#2AD827;" points="288.034,389.943 285.527,395.41 256,459.936 256,389.943 "/>
<path style="fill:#83E46F;" d="M211.875,142.964h88.25V89.141c0-24.896-17.187-45.079-38.389-45.079h-11.473
	c-21.201,0-38.389,20.183-38.389,45.079v53.823H211.875z"/>
<path style="fill:#2AD827;" d="M300.13,89.14v53.82H256v-98.9h5.74C282.94,44.06,300.13,64.24,300.13,89.14z"/>
<ellipse style="fill:#FFDB2D;" cx="256" cy="266.07" rx="134.96" ry="143.53"/>
<path style="fill:#ECB300;" d="M390.96,266.07c0,79.26-60.42,143.52-134.96,143.52V122.54c15.45,0,30.3,2.76,44.13,7.85
	C353,149.83,390.96,203.24,390.96,266.07z"/>
<polygon style="fill:#E67500;" points="223.45,322.423 190.912,266.066 223.45,209.71 288.525,209.71 321.062,266.066 
	288.525,322.423 "/>
<polygon style="fill:#9A4C00;" points="321.064,266.068 288.527,322.419 256,322.419 256,209.708 288.527,209.708 288.527,209.718 
	"/>
<path style="fill:#FFC473;" d="M319.899,155.362l-31.371,54.352h-65.074l-31.371-54.343c0.009,0,0.019,0,0.019-0.009
	c18.544-12.457,40.444-19.653,63.899-19.653C279.455,135.709,301.355,142.905,319.899,155.362z"/>
<path style="fill:#FF9A00;" d="M319.896,155.365l-31.369,54.344v0.01H256v-74.008c13.364,0,26.216,2.335,38.239,6.648
	C303.309,145.619,311.916,150,319.896,155.365z"/>
<path style="fill:#FFAA20;" d="M319.899,376.771c-18.544,12.457-40.444,19.653-63.899,19.653s-45.355-7.196-63.899-19.653
	c0-0.009-0.01-0.009-0.019-0.009l31.371-54.342h65.074L319.899,376.771z"/>
<path style="fill:#E67500;" d="M319.896,376.772c-12.814,8.607-27.23,14.705-42.649,17.638c-6.899,1.332-13.991,2.017-21.247,2.017
	v-74.008h32.527L319.896,376.772z"/>
<path style="fill:#FFC473;" d="M223.472,322.419l-31.371,54.352c0-0.009-0.01-0.009-0.019-0.009
	c-34.234-23.028-57.016-63.994-57.016-110.695h55.869L223.472,322.419z"/>
<path style="fill:#FFAA20;" d="M223.472,209.714l-32.537,56.352h-55.869c0-46.701,22.782-87.666,57.016-110.695
	c0.009,0,0.019,0,0.019-0.009L223.472,209.714z"/>
<path style="fill:#FF9A00;" d="M376.934,266.066c0,46.711-22.791,87.685-57.035,110.704l-31.371-54.352l32.537-56.352
	L376.934,266.066L376.934,266.066z"/>
<path style="fill:#E67500;" d="M376.934,266.066h-55.869l-32.537-56.352l31.371-54.352
	C354.142,178.381,376.934,219.356,376.934,266.066z"/>
<circle style="fill:#57555C;" cx="232.95" cy="81.06" r="8.741"/>
<circle style="fill:#2A2A2C;" cx="279.05" cy="81.06" r="8.741"/>
<g>
</g>
<g>
</g>
<g>
</g>
<g>
</g>
<g>
</g>
<g>
</g>
<g>
</g>
<g>
</g>
<g>
</g>
<g>
</g>
<g>
</g>
<g>
</g>
<g>
</g>
<g>
</g>
<g>
</g>
</svg>
