<?xml version="1.0" encoding="iso-8859-1"?>
<!-- Generator: Adobe Illustrator 19.0.0, SVG Export Plug-In . SVG Version: 6.00 Build 0)  -->
<svg version="1.1" id="Capa_1" xmlns="http://www.w3.org/2000/svg" xmlns:xlink="http://www.w3.org/1999/xlink" x="0px" y="0px"
	 viewBox="0 0 512 512" style="enable-background:new 0 0 512 512;" xml:space="preserve">
<circle style="fill:#FFC473;" cx="256" cy="256" r="256"/>
<path style="fill:#FF9A00;" d="M512,256c0-32.449-6.052-63.48-17.065-92.047l-84.714-84.714H102.376v351.817l65.291,65.291
	C195.201,506.47,224.954,512,256,512C397.385,512,512,397.385,512,256z"/>
<rect x="127.56" y="79.24" style="fill:#57555C;" width="282.67" height="227.15"/>
<rect x="269.88" y="79.24" style="fill:#2A2A2C;" width="140.34" height="227.15"/>
<rect x="102.38" y="79.24" style="fill:#FFFFFF;" width="31.18" height="351.82"/>
<rect x="117.97" y="79.24" style="fill:#54FBFF;" width="15.59" height="351.82"/>
<path style="fill:#FFFFFF;" d="M313.959,162.381c2.661-5.109,4.151-10.762,4.151-16.714c0-22.746-21.589-41.186-48.222-41.186
	c-26.632,0-48.222,18.439-48.222,41.186c0,5.952,1.49,11.605,4.151,16.714c-3.565,2.96-5.837,7.423-5.837,12.419
	c0,8.911,7.224,16.134,16.135,16.134c3.84,0,7.363-1.347,10.133-3.587v13.918c0,5.389,4.369,9.758,9.758,9.758h1.164v-22.945h8.702
	v22.945h8.033v-22.945h8.703v22.945h1.164c5.389,0,9.758-4.368,9.758-9.758v-13.918c2.77,2.24,6.293,3.587,10.133,3.587
	c8.911,0,16.135-7.224,16.135-16.134C319.797,169.804,317.525,165.34,313.959,162.381z M253.064,155.857h-1.477
	c-6.827,0-12.412-5.586-12.412-12.412v-1.367c0-6.827,5.585-12.412,12.412-12.412h1.477c6.827,0,12.412,5.585,12.412,12.412v1.367
	C265.476,150.271,259.891,155.857,253.064,155.857z M276.341,175.499h-12.905c-2.896,0-4.673-3.171-3.161-5.641l6.453-10.544
	c1.446-2.363,4.877-2.363,6.323,0l6.453,10.544C281.014,172.327,279.237,175.499,276.341,175.499z M300.602,143.445
	c0,6.827-5.585,12.412-12.412,12.412h-1.477c-6.827,0-12.412-5.586-12.412-12.412v-1.367c0-6.827,5.585-12.412,12.412-12.412h1.477
	c6.827,0,12.412,5.585,12.412,12.412V143.445z"/>
<path style="fill:#54FBFF;" d="M313.955,162.376c2.67-5.1,4.16-10.76,4.16-16.71c0-22.75-21.59-41.19-48.23-41.19v53.06
	c1.22,0,2.44,0.59,3.17,1.78l6.45,10.54c1.51,2.47-0.27,5.64-3.16,5.64h-6.46v35.53h4.02v-22.95h8.7v22.95h1.17
	c5.39,0,9.75-4.37,9.75-9.76v-13.92c2.77,2.24,6.3,3.59,10.14,3.59c8.91,0,16.13-7.23,16.13-16.14
	C319.795,169.806,317.525,165.336,313.955,162.376z M300.605,143.446c0,6.83-5.59,12.41-12.41,12.41h-1.48
	c-6.83,0-12.41-5.58-12.41-12.41v-1.37c0-6.83,5.58-12.41,12.41-12.41h1.48c6.82,0,12.41,5.58,12.41,12.41V143.446z"/>
<path style="fill:#FFFFFF;" d="M341.017,239.616c-6.23-2.686-13.457,0.188-16.143,6.417c-0.152,0.353-0.281,0.709-0.398,1.067
	l-32.754-14.12l32.754-14.12c0.117,0.358,0.245,0.714,0.398,1.067c2.686,6.23,9.913,9.103,16.143,6.417s9.103-9.913,6.417-16.143
	c-1.581-3.666-4.734-6.168-8.331-7.06c1.821-3.228,2.167-7.239,0.586-10.904c-2.686-6.23-9.913-9.103-16.143-6.417
	c-6.23,2.686-9.103,9.913-6.417,16.143c0.152,0.353,0.323,0.691,0.503,1.022l-47.744,20.583l-47.744-20.583
	c0.18-0.331,0.351-0.669,0.503-1.022c2.686-6.23-0.188-13.457-6.417-16.143c-6.23-2.686-13.457,0.187-16.143,6.417
	c-1.58,3.666-1.234,7.676,0.586,10.904c-3.597,0.893-6.751,3.394-8.331,7.06c-2.686,6.23,0.187,13.457,6.417,16.143
	s13.457-0.187,16.143-6.417c0.152-0.353,0.281-0.709,0.398-1.067l32.754,14.12L215.3,247.1c-0.117-0.358-0.246-0.715-0.398-1.067
	c-2.686-6.23-9.913-9.103-16.143-6.417c-6.23,2.686-9.103,9.913-6.417,16.143c1.58,3.666,4.734,6.168,8.331,7.06
	c-1.821,3.228-2.167,7.239-0.586,10.905c2.686,6.23,9.913,9.103,16.143,6.417c6.23-2.685,9.103-9.913,6.417-16.143
	c-0.152-0.353-0.323-0.691-0.503-1.022l47.744-20.583l47.744,20.583c-0.18,0.331-0.351,0.669-0.503,1.022
	c-2.686,6.23,0.187,13.457,6.417,16.143c6.23,2.686,13.457-0.187,16.143-6.417c1.58-3.666,1.234-7.676-0.586-10.905
	c3.597-0.893,6.75-3.394,8.331-7.06C350.12,249.529,347.247,242.302,341.017,239.616z"/>
<path style="fill:#54FBFF;" d="M347.435,255.756c-1.58,3.67-4.73,6.17-8.33,7.06c1.82,3.23,2.17,7.24,0.58,10.91
	c-2.68,6.23-9.91,9.1-16.14,6.41c-6.23-2.68-9.1-9.91-6.42-16.14c0.16-0.35,0.33-0.69,0.51-1.02l-47.75-20.58v-18.83l47.75-20.58
	c-0.18-0.33-0.35-0.67-0.51-1.02c-2.68-6.23,0.19-13.46,6.42-16.15c6.23-2.68,13.46,0.19,16.14,6.42c1.59,3.67,1.24,7.68-0.58,10.91
	c3.6,0.89,6.75,3.39,8.33,7.06c2.69,6.23-0.19,13.45-6.42,16.14c-6.23,2.68-13.46-0.19-16.14-6.42c-0.15-0.35-0.28-0.71-0.4-1.07
	l-32.75,14.12l32.75,14.12c0.12-0.35,0.25-0.71,0.4-1.06c2.68-6.23,9.91-9.11,16.14-6.42
	C347.245,242.306,350.125,249.526,347.435,255.756z"/>
<g>
</g>
<g>
</g>
<g>
</g>
<g>
</g>
<g>
</g>
<g>
</g>
<g>
</g>
<g>
</g>
<g>
</g>
<g>
</g>
<g>
</g>
<g>
</g>
<g>
</g>
<g>
</g>
<g>
</g>
</svg>
