<?xml version="1.0" encoding="iso-8859-1"?>
<!-- Generator: Adobe Illustrator 19.0.0, SVG Export Plug-In . SVG Version: 6.00 Build 0)  -->
<svg version="1.1" id="Capa_1" xmlns="http://www.w3.org/2000/svg" xmlns:xlink="http://www.w3.org/1999/xlink" x="0px" y="0px"
	 viewBox="0 0 512 512" style="enable-background:new 0 0 512 512;" xml:space="preserve">
<circle style="fill:#B6EFAB;" cx="256" cy="256" r="256"/>
<path style="fill:#5EDE4E;" d="M512,256c0-18.564-1.994-36.659-5.747-54.101l-108.6-108.6l-12.316-6.656
	c-2.137,3.953-4.321,9.142-4.321,17.642c0,10.335,3.27,15.921,5.897,20.409l-31.436-31.395l-12.316-6.656
	c-2.137,3.953-4.32,9.14-4.32,17.642c0,10.335,3.271,15.921,5.897,20.409l-31.436-31.395l-12.316-6.656
	c-2.137,3.953-4.32,9.14-4.32,17.642c0,10.335,3.271,15.921,5.897,20.409c2.311,3.947,3.98,6.799,3.98,13.338
	c0,6.54-1.67,9.393-3.98,13.34c-2.627,4.489-5.897,10.076-5.897,20.411l17.342,16.371h-67.654v35.475l10.679,10.204v32.237H56.44
	v-6.063h-23.5v50.25l200.765,200.765C241.054,511.657,248.486,512,256,512C397.385,512,512,397.385,512,256z"/>
<path style="fill:#C06100;" d="M387.723,266.07H52.94v36.769l270.743,85.819c31.693,10.085,64.041-13.568,64.041-46.826V266.07
	H387.723z"/>
<path style="fill:#9A4C00;" d="M387.719,266.07v75.76c0,33.26-32.34,56.91-64.04,46.83l-149.7-47.45v-75.14H387.719z"/>
<path style="fill:#FF8C00;" d="M350.777,392.642L350.777,392.642c-51.774,0-93.745-41.971-93.745-93.745v-90.746h187.491v90.746
	C444.522,350.671,402.551,392.642,350.777,392.642z"/>
<path style="fill:#E67500;" d="M444.519,208.15v90.75c0,51.77-41.97,93.74-93.74,93.74V208.15H444.519z"/>
<rect x="32.94" y="260.01" style="fill:#FF8C00;" width="23.5" height="50.25"/>
<rect x="246.35" y="188.15" style="fill:#C06100;" width="208.85" height="35.475"/>
<rect x="350.78" y="188.15" style="fill:#9A4C00;" width="104.42" height="35.48"/>
<g>
	<path style="fill:#FFFFFF;" d="M310.664,171.783h-14c0-10.335,3.271-15.922,5.897-20.411c2.311-3.947,3.98-6.8,3.98-13.34
		c0-6.539-1.67-9.391-3.98-13.338c-2.627-4.488-5.897-10.074-5.897-20.409c0-8.502,2.184-13.688,4.32-17.642l12.316,6.656
		c-1.334,2.469-2.637,5.35-2.637,10.985c0,6.538,1.669,9.39,3.979,13.337c2.628,4.488,5.898,10.075,5.898,20.41
		c0,10.336-3.271,15.923-5.897,20.412C312.333,162.391,310.664,165.244,310.664,171.783z"/>
	<path style="fill:#FFFFFF;" d="M352.84,171.783h-14c0-10.335,3.271-15.922,5.897-20.411c2.311-3.947,3.98-6.8,3.98-13.34
		c0-6.539-1.67-9.391-3.98-13.338c-2.627-4.488-5.897-10.074-5.897-20.409c0-8.502,2.184-13.688,4.32-17.642l12.316,6.656
		c-1.334,2.469-2.637,5.35-2.637,10.985c0,6.538,1.669,9.39,3.98,13.337c2.628,4.488,5.898,10.075,5.898,20.41
		c0,10.336-3.27,15.923-5.897,20.412C354.509,162.391,352.84,165.244,352.84,171.783z"/>
</g>
<g>
	<path style="fill:#FFEC97;" d="M362.72,138.03c0,10.34-3.27,15.92-5.9,20.41c-2.31,3.95-3.98,6.8-3.98,13.34h-2.06V90.76l4.7,2.54
		c-1.34,2.47-2.64,5.35-2.64,10.98c0,6.54,1.67,9.39,3.98,13.34C359.45,122.11,362.72,127.7,362.72,138.03z"/>
	<path style="fill:#FFEC97;" d="M395.016,171.783h-14c0-10.335,3.27-15.922,5.897-20.411c2.31-3.947,3.98-6.8,3.98-13.34
		c0-6.539-1.67-9.391-3.98-13.338c-2.627-4.488-5.897-10.074-5.897-20.409c0-8.5,2.185-13.688,4.321-17.642l12.316,6.656
		c-1.335,2.47-2.638,5.352-2.638,10.985c0,6.538,1.669,9.39,3.979,13.337c2.628,4.488,5.898,10.075,5.898,20.41
		c0,10.336-3.271,15.923-5.897,20.412C396.685,162.391,395.016,165.244,395.016,171.783z"/>
</g>
<path style="fill:#5EDE4E;" d="M395.027,133.663l-0.683-0.369c0.096-0.222,0.192-0.44,0.292-0.65
	C394.773,132.976,394.905,133.314,395.027,133.663z M352.851,133.663l-0.683-0.369c0.095-0.222,0.192-0.44,0.292-0.65
	C352.597,132.976,352.73,133.314,352.851,133.663z"/>
<g>
</g>
<g>
</g>
<g>
</g>
<g>
</g>
<g>
</g>
<g>
</g>
<g>
</g>
<g>
</g>
<g>
</g>
<g>
</g>
<g>
</g>
<g>
</g>
<g>
</g>
<g>
</g>
<g>
</g>
</svg>
