<?xml version="1.0" encoding="iso-8859-1"?>
<!-- Generator: Adobe Illustrator 19.0.0, SVG Export Plug-In . SVG Version: 6.00 Build 0)  -->
<svg version="1.1" id="Capa_1" xmlns="http://www.w3.org/2000/svg" xmlns:xlink="http://www.w3.org/1999/xlink" x="0px" y="0px"
	 viewBox="0 0 512 512" style="enable-background:new 0 0 512 512;" xml:space="preserve">
<circle style="fill:#57555C;" cx="256" cy="256" r="256"/>
<path style="fill:#2A2A2C;" d="M512,256c0-30.401-5.312-59.559-15.037-86.611l-71.885-71.885
	c-51.746,21.42-141.216,21.873-141.216,21.873c-10.181,61.866-81.743,151.143-105.93,179.878l-17.915-17.915l-22.485,22.485
	l18.095,18.095l-57.313,57.313c-8.98,8.98-8.98,23.54,0,32.52l91.663,91.636C211.042,508.995,233.169,512,256,512
	C397.385,512,512,397.385,512,256z"/>
<path style="fill:#FFE047;" d="M189.093,353.491l-58.26,58.26c-8.76,8.76-22.84,8.97-31.86,0.62c-0.23-0.19-0.44-0.4-0.66-0.62
	c-8.98-8.98-8.98-23.54,0-32.52l58.26-58.26L189.093,353.491z"/>
<path style="fill:#FDC000;" d="M189.093,353.491l-58.26,58.26c-8.76,8.76-22.84,8.97-31.86,0.62l74.5-74.5L189.093,353.491z"/>
<path style="fill:#FFFFFF;" d="M169.964,308.539c0,0,101.615-114.529,113.897-189.163c0,0,89.47-0.452,141.216-21.872
	c0,0-24.97,78.626-223.072,243.077L169.964,308.539z"/>
<path style="fill:#54FBFF;" d="M202.008,340.577l-15.62-15.62c0,0,65.176-52.667,118.62-106.111s102.403-114.912,102.403-114.912
	c6.095-1.96,12.031-4.104,17.668-6.432C425.08,97.501,400.107,176.134,202.008,340.577z"/>
<rect x="134.273" y="311.678" transform="matrix(-0.7071 -0.7071 0.7071 -0.7071 82.0707 689.1485)" style="fill:#FDC000;" width="98.979" height="31.798"/>
<rect x="185.354" y="320.328" transform="matrix(-0.7071 0.7071 -0.7071 -0.7071 587.5629 446.768)" style="fill:#FF9A00;" width="31.798" height="49.49"/>
<rect x="127.289" y="348.986" transform="matrix(-0.7071 -0.7071 0.7071 -0.7071 2.1435 720.4541)" style="fill:#FDC000;" width="45.987" height="21.595"/>
<rect x="147.928" y="357.188" transform="matrix(-0.7071 0.7071 -0.7071 -0.7071 531.3407 516.377)" style="fill:#FF9A00;" width="21.595" height="22.09"/>
<g>
</g>
<g>
</g>
<g>
</g>
<g>
</g>
<g>
</g>
<g>
</g>
<g>
</g>
<g>
</g>
<g>
</g>
<g>
</g>
<g>
</g>
<g>
</g>
<g>
</g>
<g>
</g>
<g>
</g>
</svg>
