<?xml version="1.0" encoding="iso-8859-1"?>
<!-- Generator: Adobe Illustrator 19.0.0, SVG Export Plug-In . SVG Version: 6.00 Build 0)  -->
<svg version="1.1" id="Capa_1" xmlns="http://www.w3.org/2000/svg" xmlns:xlink="http://www.w3.org/1999/xlink" x="0px" y="0px"
	 viewBox="0 0 512 512" style="enable-background:new 0 0 512 512;" xml:space="preserve">
<circle style="fill:#57555C;" cx="256" cy="256" r="256"/>
<path style="fill:#2A2A2C;" d="M511.853,264.268L333.074,85.489C313.785,64.3,285.98,51,255.069,51l0,0
	c-45.027,0-83.457,28.223-98.582,67.941c-15.572-9.044-32.287-10.833-32.287-10.833s-5.053,22.565,2.445,43.244
	c-15.141,3.751-26.396,11.287-26.396,11.287s5.562,10.777,15.852,20.919l17.217,17.011c0.002,0.002,0.003,0.003,0.005,0.005
	c-2.488,4.199-3.702,9.194-3.139,14.395l2.048,18.909c0.575,5.31,2.906,10.024,6.35,13.628l32.425,31.684
	c0.647,1.002,1.367,1.948,2.153,2.835c7.038,12.482,14.68,22.538,22.522,30.635l15.784,15.806v40.513H167.43
	c-0.71,0-1.41,0.01-2.11,0.03s-1.4,0.05-2.09,0.09c-0.4,0.02-0.79,0.05-1.19,0.07c-0.05,0-0.11,0.01-0.16,0.01
	c-0.23,0.02-0.46,0.04-0.69,0.06c-0.04,0-0.07,0.01-0.11,0.01c-0.71,0.06-1.42,0.13-2.13,0.21c-0.14,0.01-0.29,0.03-0.43,0.05
	c-0.11,0-0.21,0.02-0.32,0.03c-0.04,0.01-0.09,0.01-0.13,0.02c-0.28,0.03-0.55,0.07-0.82,0.11c-0.12,0.02-0.23,0.03-0.35,0.05
	c-0.09,0.01-0.19,0.03-0.28,0.04c-0.48,0.07-0.95,0.14-1.42,0.22c-0.24,0.03-0.47,0.07-0.71,0.11c-0.06,0.01-0.12,0.02-0.18,0.03
	c-0.28,0.05-0.56,0.1-0.83,0.16c-0.13,0.02-0.26,0.05-0.39,0.08c-0.35,0.06-0.7,0.14-1.05,0.21c-0.35,0.07-0.7,0.15-1.04,0.22
	c-33.93,7.56-59.5,38-59.5,74.11v7.238c0.185,0.155,0.367,0.312,0.552,0.467c0.774,0.646,1.553,1.288,2.335,1.925
	c0.582,0.475,1.169,0.944,1.755,1.414c0.796,0.637,1.591,1.276,2.394,1.904v0.001C141.965,491.776,196.619,512,256,512
	C394.617,512,507.487,401.824,511.853,264.268z"/>
<path style="fill:#C2001B;" d="M124.2,108.107c0,0-16.623,74.141,55.046,76.798C199.751,116.182,124.2,108.107,124.2,108.107z"/>
<path style="fill:#E7001F;" d="M100.249,162.639c0,0,34.815,67.536,91.495,23.595C163.383,120.362,100.249,162.639,100.249,162.639z
	"/>
<rect x="211.47" y="324.8" style="fill:#FFC473;" width="89.07" height="112.37"/>
<rect x="256" y="324.8" style="fill:#FFAA20;" width="44.538" height="112.37"/>
<path style="fill:#FFDBA9;" d="M360.944,189.407C356.524,124.333,301.028,87.4,255.069,87.4s-101.455,36.933-105.876,102.007
	c-11.893,2.227-20.332,13.342-19.009,25.563l2.048,18.909c1.389,12.828,13.021,22.187,25.849,20.797l2.209-0.239
	c26.26,68.354,68.637,85.953,94.779,89.951c26.142-3.998,68.519-21.596,94.779-89.951l2.209,0.239
	c12.828,1.39,24.46-7.969,25.849-20.797l2.048-18.909C381.277,202.749,372.837,191.634,360.944,189.407z"/>
<g>
	<path style="fill:#FFC473;" d="M379.958,214.969l-2.05,18.912c-1.394,12.827-13.021,22.182-25.848,20.796l-2.216-0.24
		c-26.254,68.355-68.632,85.947-94.775,89.945V87.402c45.333,0,99.946,35.932,105.672,99.365c0.083,0.914,0.148,1.792,0.203,2.641
		C372.838,191.633,381.278,202.752,379.958,214.969z"/>
	<rect x="184.4" y="209.62" style="fill:#FFC473;" width="54.59" height="23.654"/>
</g>
<polygon style="fill:#FFA91F;" points="255.065,209.625 255.065,284.81 278.72,284.81 278.72,233.279 330.25,233.279 
	330.25,209.625 "/>
<path style="fill:#FFDBA9;" d="M420.5,444.9v7.25c-17.91,15.04-37.91,27.67-59.5,37.39c-1.35,0.61-2.71,1.21-4.08,1.79
	C325.96,504.63,291.84,512,256,512s-69.96-7.37-100.92-20.67c-1.37-0.58-2.73-1.18-4.08-1.79c-21.59-9.72-41.59-22.35-59.5-37.39
	v-7.25c0-36.11,25.57-66.55,59.5-74.11c0.34-0.07,0.69-0.15,1.04-0.22c0.35-0.07,0.7-0.15,1.05-0.21c0.13-0.03,0.26-0.06,0.39-0.08
	c0.27-0.06,0.55-0.11,0.83-0.16c0.06-0.01,0.12-0.02,0.18-0.03c0.24-0.04,0.47-0.08,0.71-0.11c0.47-0.08,0.94-0.15,1.42-0.22
	c0.09-0.01,0.19-0.03,0.28-0.04c0.12-0.02,0.23-0.03,0.35-0.05c0.27-0.04,0.54-0.08,0.82-0.11c0.04-0.01,0.09-0.01,0.13-0.02
	c0.11-0.01,0.21-0.03,0.32-0.03c0.14-0.02,0.29-0.04,0.43-0.05c0.71-0.08,1.42-0.15,2.13-0.21c0.04,0,0.07-0.01,0.11-0.01
	c0.23-0.02,0.46-0.04,0.69-0.06c0.05,0,0.11-0.01,0.16-0.01c0.4-0.02,0.79-0.05,1.19-0.07c0.69-0.04,1.39-0.07,2.09-0.09
	s1.4-0.03,2.11-0.03h177.14c0.6,0,1.19,0.01,1.78,0.03h0.33c0.13,0,0.26,0.01,0.39,0.02c0.08,0,0.16,0,0.24,0.01
	c0.49,0.01,0.97,0.03,1.45,0.06h0.01c0.4,0.02,0.79,0.05,1.19,0.07c0.05,0,0.11,0.01,0.16,0.01c0.23,0.02,0.46,0.04,0.69,0.06
	c0.04,0,0.07,0.01,0.11,0.01c0.72,0.05,1.43,0.12,2.13,0.21c0.14,0.01,0.29,0.03,0.43,0.05c0.11,0,0.21,0.02,0.32,0.03
	c0.04,0.01,0.09,0.01,0.13,0.02c0.28,0.03,0.55,0.07,0.82,0.11c0.12,0.02,0.23,0.03,0.35,0.05c0.08,0.01,0.17,0.02,0.25,0.04h0.03
	c0.72,0.1,1.42,0.21,2.13,0.33c0.06,0.01,0.12,0.02,0.18,0.03c0.28,0.05,0.56,0.1,0.83,0.16c0.44,0.08,0.87,0.17,1.3,0.25
	c0.27,0.06,0.53,0.12,0.79,0.18c0.13,0.02,0.26,0.05,0.39,0.08C394.93,378.35,420.5,408.79,420.5,444.9z"/>
<path style="fill:#FFC473;" d="M420.5,444.9v7.25c-17.91,15.04-37.91,27.67-59.5,37.39c-1.35,0.61-2.71,1.21-4.08,1.79
	C325.96,504.63,291.84,512,256,512V368.98h88.57c0.6,0,1.19,0.01,1.78,0.03h0.33c0.13,0,0.26,0.01,0.39,0.02
	c0.08,0,0.16,0,0.24,0.01c0.49,0.01,0.97,0.03,1.45,0.06h0.01c0.4,0.02,0.79,0.05,1.19,0.07c0.05,0,0.11,0.01,0.16,0.01
	c0.23,0.02,0.46,0.04,0.69,0.06c0.04,0,0.07,0.01,0.11,0.01c0.72,0.05,1.43,0.12,2.13,0.21c0.14,0.01,0.29,0.03,0.43,0.05
	c0.11,0,0.21,0.02,0.32,0.03c0.04,0.01,0.09,0.01,0.13,0.02c0.28,0.03,0.55,0.07,0.82,0.11c0.12,0.02,0.23,0.03,0.35,0.05
	c0.08,0.01,0.17,0.02,0.25,0.04h0.03c0.72,0.1,1.42,0.21,2.13,0.33c0.06,0.01,0.12,0.02,0.18,0.03c0.28,0.05,0.56,0.1,0.83,0.16
	c0.44,0.08,0.87,0.17,1.3,0.25c0.27,0.06,0.53,0.12,0.79,0.18c0.13,0.02,0.26,0.05,0.39,0.08
	C394.93,378.35,420.5,408.79,420.5,444.9z"/>
<path style="fill:#FF0435;" d="M360.528,183.557H149.609v-27.098C149.609,98.215,196.825,51,255.068,51l0,0
	c58.243,0,105.459,47.216,105.459,105.459v27.098H360.528z"/>
<path style="fill:#C2001B;" d="M360.529,156.46v27.096h-105.46V51c29.118,0,55.485,11.804,74.574,30.886
	C348.724,100.975,360.529,127.335,360.529,156.46z"/>
<path style="fill:#FFFFFF;" d="M369.87,485.33h-0.01c-2.92,1.46-5.87,2.87-8.86,4.21c-1.35,0.61-2.71,1.21-4.08,1.79
	c-22.31,9.58-46.25,16.09-71.3,18.97c-9.72,1.12-19.6,1.7-29.62,1.7c-10.02,0-19.9-0.58-29.62-1.7
	c-25.05-2.88-48.99-9.39-71.3-18.97c-1.37-0.58-2.73-1.18-4.08-1.79c-2.99-1.34-5.95-2.75-8.87-4.21
	c8.36-12.15,13.25-26.88,13.25-42.75v-73.6h50.06v28.71c0,13.96,5.66,26.6,14.81,35.75c9.15,9.14,21.79,14.8,35.75,14.8
	c27.92,0,50.56-22.63,50.56-50.55v-28.71h50.06v73.6C356.62,458.45,361.51,473.18,369.87,485.33z"/>
<path style="fill:#FFEC97;" d="M369.86,485.33c-2.92,1.46-5.87,2.87-8.86,4.21c-1.35,0.61-2.71,1.21-4.08,1.79
	c-22.31,9.58-46.25,16.09-71.3,18.97c-9.72,1.12-19.6,1.7-29.62,1.7v-63.76c27.93,0,50.56-22.63,50.56-50.56v-28.7h50.06v73.6
	C356.62,458.45,361.51,473.17,369.86,485.33z"/>
<path style="fill:#00F8FE;" d="M205.439,397.684c0,9.655,2.704,18.69,7.405,26.361h-57.46v-33.677h50.055V397.684z"/>
<path style="fill:#00B7BE;" d="M356.616,390.367v33.677h-57.46c4.701-7.671,7.405-16.706,7.405-26.361v-7.317L356.616,390.367
	L356.616,390.367z"/>
<path style="fill:#00F8FE;" d="M369.87,485.33c-2.92,1.46-5.88,2.87-8.87,4.21c-1.35,0.61-2.71,1.21-4.08,1.79
	c-22.31,9.58-46.25,16.09-71.3,18.97h-59.24c-25.05-2.88-48.99-9.39-71.3-18.97c-1.37-0.58-2.73-1.18-4.08-1.79
	c-2.99-1.34-5.95-2.75-8.87-4.21c1.92-2.77,3.64-5.68,5.17-8.7h217.42C366.24,479.66,367.96,482.56,369.87,485.33z"/>
<path style="fill:#00B7BE;" d="M369.86,485.33c-2.92,1.46-5.87,2.87-8.86,4.21c-1.35,0.61-2.71,1.21-4.08,1.79
	c-22.31,9.58-46.25,16.09-71.3,18.97H256v-33.67h108.72C366.24,479.66,367.96,482.56,369.86,485.33z"/>
<g>
</g>
<g>
</g>
<g>
</g>
<g>
</g>
<g>
</g>
<g>
</g>
<g>
</g>
<g>
</g>
<g>
</g>
<g>
</g>
<g>
</g>
<g>
</g>
<g>
</g>
<g>
</g>
<g>
</g>
</svg>
