<?xml version="1.0" encoding="iso-8859-1"?>
<!-- Generator: Adobe Illustrator 19.0.0, SVG Export Plug-In . SVG Version: 6.00 Build 0)  -->
<svg version="1.1" id="Capa_1" xmlns="http://www.w3.org/2000/svg" xmlns:xlink="http://www.w3.org/1999/xlink" x="0px" y="0px"
	 viewBox="0 0 512 512" style="enable-background:new 0 0 512 512;" xml:space="preserve">
<circle style="fill:#FF0435;" cx="256" cy="256" r="256"/>
<path style="fill:#990011;" d="M512,256c0-8.888-0.455-17.669-1.339-26.324l-63.617-64.069c-0.764-0.864-1.589-1.691-2.476-2.475
	c-11.564-10.213-25.429-19.956-40.793-28.777c-2.286-2.548-4.679-4.874-7.157-6.986c-30.836-36.145-83.517-28.499-83.517-28.499
	l-0.001,0.005C293.871,94.477,274.524,92,256,92s-37.871,2.477-57.101,6.875l-0.001-0.005c0,0-57.634-8.37-87.623,33.756
	c-16.582,9.27-31.52,19.621-43.844,30.506c-11.913,10.522-12.901,28.763-2.232,40.544L196.333,360.15l-25.386,39.537
	c-3.249,5.06-2.168,11.609,2.195,15.399l97.018,96.519C404.957,504.254,512,392.633,512,256z"/>
<path style="fill:#FFFFFF;" d="M446.801,203.676c10.669-11.781,9.681-30.022-2.232-40.544C400.446,124.163,322.865,92,256,92
	s-144.446,32.163-188.569,71.132c-11.913,10.522-12.901,28.763-2.232,40.544L196.76,360.66h118.48L446.801,203.676z"/>
<path style="fill:#FFF5CB;" d="M446.8,203.68L315.66,360.16l-0.42,0.5H256V92c66.86,0,144.45,32.16,188.57,71.13
	C456.48,173.65,457.47,191.89,446.8,203.68z"/>
<path style="fill:#00F8FE;" d="M198.898,98.87c0,0-57.637-8.37-87.625,33.759L217.01,360.661h18L198.898,98.87z"/>
<path style="fill:#00B7BE;" d="M313.102,98.87c0,0,57.638-8.37,87.625,33.759L294.989,360.661h-18L313.102,98.87z"/>
<path style="fill:#FFC473;" d="M336.928,416.467L336.928,416.467c5.926-3.373,7.809-11.027,4.125-16.765l-52.979-82.511
	c-7.013-10.922-19.1-17.525-32.079-17.525l0,0c-12.979,0-25.067,6.603-32.079,17.525l-52.969,82.495
	c-3.688,5.744-1.797,13.406,4.14,16.774l0.224,0.127c25.025,14.195,52.857,17.743,80.688,17.746
	C283.922,434.336,311.843,430.746,336.928,416.467z"/>
<path style="fill:#FFAA20;" d="M336.93,416.47c-25.09,14.28-53.01,17.87-80.93,17.86V299.67c12.98,0,25.06,6.6,32.07,17.52
	l27.59,42.97l25.39,39.54C344.74,405.44,342.85,413.09,336.93,416.47z"/>
<g>
</g>
<g>
</g>
<g>
</g>
<g>
</g>
<g>
</g>
<g>
</g>
<g>
</g>
<g>
</g>
<g>
</g>
<g>
</g>
<g>
</g>
<g>
</g>
<g>
</g>
<g>
</g>
<g>
</g>
</svg>
