<?xml version="1.0" encoding="iso-8859-1"?>
<!-- Generator: Adobe Illustrator 19.0.0, SVG Export Plug-In . SVG Version: 6.00 Build 0)  -->
<svg version="1.1" id="Capa_1" xmlns="http://www.w3.org/2000/svg" xmlns:xlink="http://www.w3.org/1999/xlink" x="0px" y="0px"
	 viewBox="0 0 512 512" style="enable-background:new 0 0 512 512;" xml:space="preserve">
<circle style="fill:#57555C;" cx="256" cy="256" r="256"/>
<path style="fill:#2A2A2C;" d="M512,256c0-10.902-0.686-21.643-2.009-32.186l-109.965-110.52
	c-7.053-7.388-16.981-12.008-27.938-12.008H358.85l-36.23-36.391c-15.697-16.359-37.771-26.548-62.236-26.548
	c-47.659,0-86.294,38.635-86.294,86.294c0,18.247,5.679,35.16,15.344,49.1c-7.681,9.666-13.617,20.887-17.228,33.276l-55.07,188.917
	l114.945,114.945C239.958,511.609,247.933,512,256,512C397.385,512,512,397.385,512,256z"/>
<path style="fill:#FDC000;" d="M275.867,425.039h-21.504v-53.355h-19.605v53.592c-11.388,1.544-20.202,11.305-20.202,23.109v11.376
	h18.434v-11.376c0-2.708,2.204-4.912,4.911-4.912h37.966c2.709,0,4.913,2.204,4.913,4.912v11.376h18.433v-11.376
	C299.213,435.512,288.74,425.039,275.867,425.039z"/>
<path style="fill:#FF9A00;" d="M299.213,448.383v11.38h-18.43v-11.38c0-2.71-2.21-4.91-4.92-4.91h-30.73v-71.79h9.23v53.36h21.5
	C288.743,425.043,299.213,435.513,299.213,448.383z"/>
<path style="fill:#FFFFFF;" d="M244.301,382.934h-48.438v-227.25h136.875v138.813C332.738,343.339,293.143,382.934,244.301,382.934z
	"/>
<path style="fill:#FFF5CB;" d="M332.743,155.684v138.81c0,45.45-34.27,82.88-78.38,87.87c-3.03,0.35-6.11,0.54-9.23,0.56v-227.24
	H332.743z"/>
<path style="fill:#00C800;" d="M184.386,395.934h-67.25l55.07-188.917c12.106-41.529,50.172-70.083,93.43-70.083l0,0v177.75
	C265.636,359.557,229.259,395.934,184.386,395.934z"/>
<path style="fill:#009100;" d="M265.633,136.934v177.75c0,20.7-7.74,39.61-20.5,53.95v-229.52
	C251.773,137.684,258.633,136.934,265.633,136.934z"/>
<path style="fill:#FF9A00;" d="M315.42,142.294c0,15.752,12.888,28.639,28.639,28.639h16.569c15.751,0,28.639-12.888,28.639-28.639
	v-4.657H315.42V142.294z"/>
<path style="fill:#FDC000;" d="M410.757,139.954c0-21.268-17.401-38.669-38.669-38.669h-22.371
	c-21.268,0-38.669,17.401-38.669,38.669v6.288h99.71L410.757,139.954L410.757,139.954z"/>
<circle style="fill:#FF3C62;" cx="260.38" cy="124.64" r="86.29"/>
<path style="fill:#E7001F;" d="M346.673,124.643c0,17.35-5.12,33.49-13.93,47.02c-14.49,22.27-38.98,37.42-67.11,39.11
	c-1.74,0.11-3.49,0.16-5.25,0.16c-5.2,0-10.3-0.46-15.25-1.34V39.683c4.95-0.88,10.05-1.34,15.25-1.34
	C308.043,38.343,346.673,76.983,346.673,124.643z"/>
<circle style="fill:#2A2A2C;" cx="295.1" cy="101.28" r="16.672"/>
<g>
</g>
<g>
</g>
<g>
</g>
<g>
</g>
<g>
</g>
<g>
</g>
<g>
</g>
<g>
</g>
<g>
</g>
<g>
</g>
<g>
</g>
<g>
</g>
<g>
</g>
<g>
</g>
<g>
</g>
</svg>
