<?xml version="1.0" encoding="iso-8859-1"?>
<!-- Generator: Adobe Illustrator 19.0.0, SVG Export Plug-In . SVG Version: 6.00 Build 0)  -->
<svg version="1.1" id="Capa_1" xmlns="http://www.w3.org/2000/svg" xmlns:xlink="http://www.w3.org/1999/xlink" x="0px" y="0px"
	 viewBox="0 0 512 512" style="enable-background:new 0 0 512 512;" xml:space="preserve">
<circle style="fill:#FF0435;" cx="256" cy="256" r="256"/>
<path style="fill:#990011;" d="M512,256c0-10.14-0.609-20.136-1.755-29.968L364.318,80.106l-34.834,43.153l-20.648-20.647
	l-30.512,30.512l19.523,19.523l-30.106,30.106c-7.761,7.762-19.052,10.833-29.676,8.072l0,0
	c-24.686-6.415-50.923,0.722-68.959,18.758L61.571,317.117l194.877,194.877C397.627,511.751,512,397.235,512,256z"/>
<path style="fill:#5EDE4E;" d="M320.248,235.259l32.799-32.799l-52.507-52.507l-32.798,32.799
	c-7.761,7.761-19.052,10.833-29.676,8.072l0,0c-24.686-6.415-50.923,0.722-68.959,18.758L61.571,317.117l124.312,124.311
	l107.535-107.535c18.035-18.035,25.172-44.272,18.758-68.959l0,0C309.415,254.311,312.487,243.02,320.248,235.259z"/>
<path style="fill:#00C800;" d="M293.414,333.896l-107.53,107.53l-62.155-62.155l203.067-203.067l26.255,26.255l-32.803,32.803
	c-3.875,3.875-6.59,8.641-7.976,13.76c-1.4,5.12-1.478,10.6-0.099,15.91C318.594,289.624,311.452,315.857,293.414,333.896z"/>
<polygon style="fill:#FFC473;" points="364.318,80.106 327.97,125.134 377.866,175.03 422.894,138.682 "/>
<polygon style="fill:#FF9A00;" points="422.892,138.684 379.745,173.517 377.864,175.03 352.917,150.083 393.604,109.396 "/>
<rect x="274.62" y="142.066" transform="matrix(-0.7071 -0.7071 0.7071 -0.7071 463.6026 519.313)" style="fill:#B6EFAB;" width="129.469" height="43.15"/>
<rect x="340.667" y="154.162" transform="matrix(-0.7071 0.7071 -0.7071 -0.7071 750.2834 62.2863)" style="fill:#5EDE4E;" width="43.15" height="64.739"/>
<rect x="118.163" y="262.993" transform="matrix(-0.7071 -0.7071 0.7071 -0.7071 102.4111 668.9156)" style="fill:#FFFFFF;" width="143.159" height="100.509"/>
<rect x="164.798" y="302.774" transform="matrix(-0.7071 0.7071 -0.7071 -0.7071 606.5101 425.9031)" style="fill:#FFEC97;" width="100.499" height="71.579"/>
<polygon style="fill:#FFC473;" points="228.681,302.218 200.782,302.218 200.782,274.319 178.708,274.319 178.708,302.218 
	150.809,302.218 150.809,324.292 178.708,324.292 178.708,352.191 200.782,352.191 200.782,324.292 228.681,324.292 "/>
<polygon style="fill:#FF9A00;" points="200.783,324.293 200.783,352.195 178.707,352.195 178.707,324.293 200.783,302.217 
	228.685,302.217 228.685,324.293 "/>
<g>
</g>
<g>
</g>
<g>
</g>
<g>
</g>
<g>
</g>
<g>
</g>
<g>
</g>
<g>
</g>
<g>
</g>
<g>
</g>
<g>
</g>
<g>
</g>
<g>
</g>
<g>
</g>
<g>
</g>
</svg>
