<?xml version="1.0" encoding="iso-8859-1"?>
<!-- Generator: Adobe Illustrator 19.0.0, SVG Export Plug-In . SVG Version: 6.00 Build 0)  -->
<svg version="1.1" id="Capa_1" xmlns="http://www.w3.org/2000/svg" xmlns:xlink="http://www.w3.org/1999/xlink" x="0px" y="0px"
	 viewBox="0 0 512 512" style="enable-background:new 0 0 512 512;" xml:space="preserve">
<circle style="fill:#00F8FE;" cx="256" cy="256" r="256"/>
<path style="fill:#00B7BE;" d="M508.388,298.981L310.061,100.653C296.904,85.589,277.571,76.06,256,76.06
	c-39.638,0-71.77,32.132-71.77,71.77c0,5.949,0.737,11.724,2.101,17.251c-37.355,2.516-66.881,33.593-66.881,71.585
	c0,5.949,0.737,11.724,2.101,17.251c-37.355,2.516-66.881,33.593-66.881,71.586c0,21.571,9.53,40.904,24.593,54.061
	c0,0,107.677,107.938,127.65,127.715C222.803,510.365,239.209,512,256,512C382.736,512,487.944,419.899,508.388,298.981z"/>
<circle style="fill:#57555C;" cx="256" cy="147.83" r="71.77"/>
<path style="fill:#2A2A2C;" d="M327.77,147.83c0,39.641-32.129,71.77-71.77,71.77V76.06C295.641,76.06,327.77,108.188,327.77,147.83
	z"/>
<g>
	<circle style="fill:#57555C;" cx="286.99" cy="109.5" r="12.7"/>
	<circle style="fill:#57555C;" cx="191.22" cy="236.67" r="71.77"/>
</g>
<path style="fill:#2A2A2C;" d="M262.991,236.667c0,39.641-32.129,71.77-71.77,71.77v-143.54
	C230.862,164.897,262.991,197.025,262.991,236.667z"/>
<g>
	<circle style="fill:#57555C;" cx="222.21" cy="198.34" r="12.7"/>
	<circle style="fill:#57555C;" cx="320.78" cy="236.67" r="71.77"/>
</g>
<path style="fill:#2A2A2C;" d="M392.549,236.667c0,39.641-32.129,71.77-71.77,71.77v-143.54
	C360.421,164.897,392.549,197.025,392.549,236.667z"/>
<g>
	<circle style="fill:#57555C;" cx="351.77" cy="198.34" r="12.7"/>
	<circle style="fill:#57555C;" cx="126.44" cy="325.5" r="71.77"/>
</g>
<path style="fill:#2A2A2C;" d="M198.211,325.504c0,39.641-32.129,71.77-71.77,71.77v-143.54
	C166.082,253.734,198.211,285.862,198.211,325.504z"/>
<g>
	<circle style="fill:#57555C;" cx="157.43" cy="287.17" r="12.7"/>
	<circle style="fill:#57555C;" cx="256" cy="325.5" r="71.77"/>
</g>
<path style="fill:#2A2A2C;" d="M327.77,325.504c0,39.641-32.129,71.77-71.77,71.77v-143.54
	C295.641,253.734,327.77,285.862,327.77,325.504z"/>
<g>
	<circle style="fill:#57555C;" cx="286.99" cy="287.17" r="12.7"/>
	<circle style="fill:#57555C;" cx="385.56" cy="325.5" r="71.77"/>
</g>
<path style="fill:#2A2A2C;" d="M457.329,325.504c0,39.641-32.129,71.77-71.77,71.77v-143.54
	C425.2,253.734,457.329,285.862,457.329,325.504z"/>
<circle style="fill:#57555C;" cx="416.55" cy="287.17" r="12.7"/>
<g>
</g>
<g>
</g>
<g>
</g>
<g>
</g>
<g>
</g>
<g>
</g>
<g>
</g>
<g>
</g>
<g>
</g>
<g>
</g>
<g>
</g>
<g>
</g>
<g>
</g>
<g>
</g>
<g>
</g>
</svg>
