<?xml version="1.0" encoding="iso-8859-1"?>
<!-- Generator: Adobe Illustrator 19.0.0, SVG Export Plug-In . SVG Version: 6.00 Build 0)  -->
<svg version="1.1" id="Capa_1" xmlns="http://www.w3.org/2000/svg" xmlns:xlink="http://www.w3.org/1999/xlink" x="0px" y="0px"
	 viewBox="0 0 512 512" style="enable-background:new 0 0 512 512;" xml:space="preserve">
<circle style="fill:#9330B2;" cx="256" cy="256" r="256"/>
<path style="fill:#5C1B6F;" d="M510.493,283.799L274.73,48.014c-4.886-4.633-11.48-7.479-18.73-7.479
	c-15.028,0-27.253,12.226-27.253,27.252v12.796c-40.309,12.026-68.748,51.955-68.748,117.184c0,50.59-15.131,92.668-26.05,116.446
	h-27.676v45.449l152.306,152.306C389.401,510.674,496.725,411.268,510.493,283.799z"/>
<path style="fill:#FDC000;" d="M283.253,92.906h-16.746V67.787c0-5.793-4.714-10.507-10.507-10.507
	c-5.794,0-10.508,4.714-10.508,10.507v25.119h-16.746V67.787c0-15.027,12.225-27.252,27.253-27.252
	c15.028,0,27.253,12.226,27.253,27.252v25.119H283.253z"/>
<path style="fill:#FF9A00;" d="M283.25,67.79v25.12h-16.74V67.79c0-5.8-4.72-10.51-10.51-10.51V40.53
	C271.03,40.53,283.25,52.76,283.25,67.79z"/>
<path style="fill:#FFFFFF;" d="M256,415.57c-19.002,0-34.46-15.459-34.46-34.46v-24.166c0-19.002,15.459-34.46,34.46-34.46
	c19.002,0,34.46,15.459,34.46,34.46v24.166C290.46,400.111,275.002,415.57,256,415.57z M256,340.214
	c-9.224,0-16.729,7.505-16.729,16.729v24.166c0,9.224,7.505,16.729,16.729,16.729s16.729-7.505,16.729-16.729v-24.166
	C272.729,347.719,265.224,340.214,256,340.214z"/>
<path style="fill:#FFEC97;" d="M256,322.48v17.73c9.22,0,16.73,7.51,16.73,16.73v24.17c0,9.22-7.51,16.73-16.73,16.73v17.73
	c19,0,34.46-15.46,34.46-34.46v-24.17C290.46,337.94,275,322.48,256,322.48z"/>
<path style="fill:#FFE047;" d="M352.001,197.767c0-79.143-41.863-121.05-96.001-121.05s-96.001,41.907-96.001,121.05
	s-37.033,137.459-37.033,137.459h266.067C389.034,335.225,352.001,276.91,352.001,197.767z"/>
<g>
	<path style="fill:#FDC000;" d="M389.03,335.23H256V76.72c54.14,0,96,41.9,96,121.05C352,276.91,389.03,335.23,389.03,335.23z"/>
	<path style="fill:#FDC000;" d="M156.499,240.333c-1.829,11.217-4.249,21.711-6.955,31.333h212.912
		c-2.706-9.622-5.126-20.116-6.955-31.333L156.499,240.333L156.499,240.333z"/>
</g>
<path style="fill:#FF9A00;" d="M362.46,271.67H256v-31.34h99.5C357.33,251.55,359.75,262.04,362.46,271.67z"/>
<rect x="106.27" y="314.21" style="fill:#FDC000;" width="299.45" height="45.45"/>
<rect x="256" y="314.21" style="fill:#FF9A00;" width="149.73" height="45.45"/>
<path style="fill:#00F8FE;" d="M256,459.958L256,459.958c-6.321,0-11.492-5.171-11.492-11.492v-55.245
	c0-6.321,5.171-11.492,11.492-11.492l0,0c6.321,0,11.492,5.171,11.492,11.492v55.245C267.492,454.787,262.321,459.958,256,459.958z"
	/>
<path style="fill:#00B7BE;" d="M267.49,393.22v55.25c0,6.32-5.17,11.49-11.49,11.49v-78.23c3.16,0,6.03,1.29,8.12,3.37
	C266.2,387.19,267.49,390.06,267.49,393.22z"/>
<g>
</g>
<g>
</g>
<g>
</g>
<g>
</g>
<g>
</g>
<g>
</g>
<g>
</g>
<g>
</g>
<g>
</g>
<g>
</g>
<g>
</g>
<g>
</g>
<g>
</g>
<g>
</g>
<g>
</g>
</svg>
