<?xml version="1.0" encoding="iso-8859-1"?>
<!-- Generator: Adobe Illustrator 19.0.0, SVG Export Plug-In . SVG Version: 6.00 Build 0)  -->
<svg version="1.1" id="Capa_1" xmlns="http://www.w3.org/2000/svg" xmlns:xlink="http://www.w3.org/1999/xlink" x="0px" y="0px"
	 viewBox="0 0 512 512" style="enable-background:new 0 0 512 512;" xml:space="preserve">
<circle style="fill:#662E57;" cx="256" cy="256" r="256"/>
<path style="fill:#590F38;" d="M512,256c0-19.088-2.106-37.682-6.069-55.579L401.167,95.657l-276.883,93.176l97.202,97.203
	l-102.672,0.652l82.925,82.925l-82.925,17.466l124.61,124.61c4.167,0.202,8.359,0.31,12.576,0.31C397.385,512,512,397.385,512,256z"
	/>
<path style="fill:#FFECB3;" d="M156.255,188.833h233.912v-82.176H156.255c-22.692,0-41.088,18.396-41.088,41.088l0,0
	C115.167,170.438,133.562,188.833,156.255,188.833z"/>
<rect x="255.95" y="106.66" style="fill:#FFD863;" width="134.21" height="82.18"/>
<path style="fill:#FF9451;" d="M401.167,199.833H156.255c-28.722,0-52.088-23.367-52.088-52.088s23.366-52.088,52.088-52.088
	h244.912v22H156.255c-16.591,0-30.088,13.498-30.088,30.088s13.497,30.088,30.088,30.088h244.912V199.833z"/>
<g>
	<rect x="255.95" y="177.83" style="fill:#F7674F;" width="145.22" height="22"/>
	<rect x="255.95" y="95.66" style="fill:#F7674F;" width="145.22" height="22"/>
</g>
<path style="fill:#FFECB3;" d="M156.255,291.618h233.912v-82.176H156.255c-22.692,0-41.088,18.396-41.088,41.088l0,0
	C115.167,273.222,133.562,291.618,156.255,291.618z"/>
<rect x="255.95" y="209.44" style="fill:#FFD863;" width="134.21" height="82.18"/>
<path style="fill:#FF6838;" d="M401.167,302.618H156.255c-28.722,0-52.088-23.367-52.088-52.088
	c0-28.722,23.366-52.088,52.088-52.088h244.912v22H156.255c-16.591,0-30.088,13.498-30.088,30.088
	c0,16.591,13.497,30.088,30.088,30.088h244.912V302.618z"/>
<g>
	<rect x="255.95" y="198.44" style="fill:#AE4E32;" width="145.22" height="22"/>
	<rect x="255.95" y="280.62" style="fill:#AE4E32;" width="145.22" height="22"/>
</g>
<path style="fill:#FFECB3;" d="M156.255,392.01h233.912v-82.176H156.255c-22.692,0-41.088,18.396-41.088,41.088l0,0
	C115.167,373.614,133.562,392.01,156.255,392.01z"/>
<rect x="255.95" y="309.83" style="fill:#FFD863;" width="134.21" height="82.18"/>
<path style="fill:#FFB344;" d="M401.167,403.01H156.255c-28.722,0-52.088-23.367-52.088-52.088
	c0-28.722,23.366-52.088,52.088-52.088h244.912v22H156.255c-16.591,0-30.088,13.498-30.088,30.088
	c0,16.591,13.497,30.088,30.088,30.088h244.912V403.01z"/>
<g>
	<rect x="255.95" y="298.83" style="fill:#FF9451;" width="145.22" height="22"/>
	<rect x="255.95" y="381.01" style="fill:#FF9451;" width="145.22" height="22"/>
</g>
<g>
</g>
<g>
</g>
<g>
</g>
<g>
</g>
<g>
</g>
<g>
</g>
<g>
</g>
<g>
</g>
<g>
</g>
<g>
</g>
<g>
</g>
<g>
</g>
<g>
</g>
<g>
</g>
<g>
</g>
</svg>
