<?xml version="1.0" encoding="iso-8859-1"?>
<!-- Generator: Adobe Illustrator 19.0.0, SVG Export Plug-In . SVG Version: 6.00 Build 0)  -->
<svg version="1.1" id="Capa_1" xmlns="http://www.w3.org/2000/svg" xmlns:xlink="http://www.w3.org/1999/xlink" x="0px" y="0px"
	 viewBox="0 0 512 512" style="enable-background:new 0 0 512 512;" xml:space="preserve">
<circle style="fill:#FFCF35;" cx="256" cy="256" r="256"/>
<path style="fill:#FFB344;" d="M512,256c0-9.698-0.558-19.264-1.608-28.681L378.066,94.993L135.408,418.667l91.701,91.701
	C236.594,511.433,246.23,512,256,512C397.385,512,512,397.385,512,256z"/>
<path style="fill:#333333;" d="M363.667,424H148.333C138.208,424,130,415.792,130,405.667V106.333C130,96.208,138.208,88,148.333,88
	h215.333C373.792,88,382,96.208,382,106.333v299.333C382,415.792,373.792,424,363.667,424z"/>
<path style="fill:#1A1A1A;" d="M363.667,88H255.952v336h107.714c10.125,0,18.333-8.208,18.333-18.333V106.333
	C382,96.208,373.792,88,363.667,88z"/>
<rect x="149.33" y="109" style="fill:#B9EAFF;" width="213.33" height="280.67"/>
<rect x="255.95" y="109" style="fill:#35CCFF;" width="106.71" height="280.67"/>
<rect x="163.33" y="134" style="fill:#666666;" width="185.33" height="15.333"/>
<rect x="255.95" y="134" style="fill:#4D4D4D;" width="92.71" height="15.333"/>
<rect x="163.33" y="171.27" style="fill:#666666;" width="185.33" height="15.333"/>
<rect x="255.95" y="171.27" style="fill:#4D4D4D;" width="92.71" height="15.333"/>
<rect x="163.33" y="208.53" style="fill:#666666;" width="185.33" height="15.333"/>
<rect x="255.95" y="208.53" style="fill:#4D4D4D;" width="92.71" height="15.333"/>
<rect x="163.33" y="245.8" style="fill:#666666;" width="185.33" height="15.333"/>
<rect x="255.95" y="245.8" style="fill:#4D4D4D;" width="92.71" height="15.333"/>
<rect x="163.33" y="283.07" style="fill:#666666;" width="185.33" height="15.333"/>
<rect x="255.95" y="283.07" style="fill:#4D4D4D;" width="92.71" height="15.333"/>
<rect x="163.33" y="320.33" style="fill:#666666;" width="185.33" height="15.333"/>
<rect x="255.95" y="320.33" style="fill:#4D4D4D;" width="92.71" height="15.333"/>
<g>
</g>
<g>
</g>
<g>
</g>
<g>
</g>
<g>
</g>
<g>
</g>
<g>
</g>
<g>
</g>
<g>
</g>
<g>
</g>
<g>
</g>
<g>
</g>
<g>
</g>
<g>
</g>
<g>
</g>
</svg>
