<?xml version="1.0" encoding="iso-8859-1"?>
<!-- Generator: Adobe Illustrator 19.0.0, SVG Export Plug-In . SVG Version: 6.00 Build 0)  -->
<svg version="1.1" id="Capa_1" xmlns="http://www.w3.org/2000/svg" xmlns:xlink="http://www.w3.org/1999/xlink" x="0px" y="0px"
	 viewBox="0 0 512 512" style="enable-background:new 0 0 512 512;" xml:space="preserve">
<circle style="fill:#FFCF35;" cx="256" cy="256" r="256"/>
<path style="fill:#FFB344;" d="M512,256c0-10.519-0.649-20.886-1.882-31.073L403.667,118.475l-97.476,123.673l-74.684-74.684
	l-155.2,175.165l35.108,35.108l-7.285,8.678l124.078,124.078c9.13,0.986,18.4,1.507,27.792,1.507C397.385,512,512,397.385,512,256z"
	/>
<rect x="361.1" y="118.47" style="fill:#005C83;" width="42.567" height="175.16"/>
<rect x="361.1" y="205.91" style="fill:#00263F;" width="42.567" height="87.73"/>
<rect x="361.1" y="184.77" style="fill:#008CC3;" width="42.567" height="42.567"/>
<g>
	<rect x="361.1" y="205.91" style="fill:#0074A3;" width="42.567" height="21.436"/>
	<polygon style="fill:#0074A3;" points="374.284,118.475 248.467,118.475 248.467,293.64 301.176,293.64 343.974,337.427 
		343.974,293.64 374.284,293.64 	"/>
</g>
<polygon style="fill:#005C83;" points="248.467,205.905 248.467,293.64 301.176,293.64 343.974,337.427 343.974,293.64 
	374.284,293.64 374.284,205.905 "/>
<rect x="188.94" y="167.46" style="fill:#AE4E32;" width="42.567" height="175.16"/>
<rect x="188.94" y="255.31" style="fill:#843826;" width="42.567" height="87.32"/>
<rect x="188.94" y="233.76" style="fill:#FF9451;" width="42.567" height="42.567"/>
<rect x="188.94" y="255.31" style="fill:#F7674F;" width="42.567" height="21.02"/>
<polygon style="fill:#FF6838;" points="202.124,167.464 76.307,167.464 76.307,342.629 104.13,342.629 104.13,386.416 
	146.927,342.629 202.124,342.629 "/>
<polygon style="fill:#AE4E32;" points="76.307,255.31 76.307,342.629 104.13,342.629 104.13,386.416 146.927,342.629 
	202.124,342.629 202.124,255.31 "/>
<g>
</g>
<g>
</g>
<g>
</g>
<g>
</g>
<g>
</g>
<g>
</g>
<g>
</g>
<g>
</g>
<g>
</g>
<g>
</g>
<g>
</g>
<g>
</g>
<g>
</g>
<g>
</g>
<g>
</g>
</svg>
