<?xml version="1.0" encoding="iso-8859-1"?>
<!-- Generator: Adobe Illustrator 19.0.0, SVG Export Plug-In . SVG Version: 6.00 Build 0)  -->
<svg version="1.1" id="Capa_1" xmlns="http://www.w3.org/2000/svg" xmlns:xlink="http://www.w3.org/1999/xlink" x="0px" y="0px"
	 viewBox="0 0 512 512" style="enable-background:new 0 0 512 512;" xml:space="preserve">
<circle style="fill:#FFCF35;" cx="256" cy="256" r="256"/>
<path style="fill:#FFB344;" d="M512,256c0-10.821-0.679-21.482-1.982-31.951L395.541,109.573L71.667,369.637l38.52,38.52
	l-1.897,2.762l95.814,95.814C220.863,510.184,238.219,512,256,512C397.385,512,512,397.385,512,256z"/>
<rect x="193.86" y="109.57" style="fill:#AE4E32;" width="163.5" height="227.63"/>
<rect x="263.11" y="109.57" style="fill:#99402E;" width="94.25" height="227.63"/>
<rect x="340.23" y="109.57" style="fill:#AE4E32;" width="55.32" height="227.63"/>
<rect x="366.07" y="109.57" style="fill:#93402C;" width="29.47" height="227.63"/>
<path style="fill:#963A24;" d="M396.294,157.79h-56.068v-19.234h56.068c5.311,0,9.617,4.306,9.617,9.617l0,0
	C405.91,153.485,401.605,157.79,396.294,157.79z"/>
<path style="fill:#7F2A19;" d="M396.294,138.557h-30.222v19.233h30.222c5.311,0,9.617-4.305,9.617-9.617
	C405.911,142.862,401.605,138.557,396.294,138.557z"/>
<path style="fill:#963A24;" d="M396.294,302.367h-56.068v-19.234h56.068c5.311,0,9.617,4.306,9.617,9.617l0,0
	C405.91,298.061,401.605,302.367,396.294,302.367z"/>
<path style="fill:#7F2A19;" d="M396.294,283.133h-30.222v19.234h30.222c5.311,0,9.617-4.306,9.617-9.617
	C405.91,287.438,401.605,283.133,396.294,283.133z"/>
<path style="fill:#963A24;" d="M396.294,230.078h-56.068v-19.234h56.068c5.311,0,9.617,4.306,9.617,9.617l0,0
	C405.91,225.773,401.605,230.078,396.294,230.078z"/>
<path style="fill:#7F2A19;" d="M396.294,210.845h-30.222v19.234h30.222c5.311,0,9.617-4.306,9.617-9.617
	C405.911,215.15,401.605,210.845,396.294,210.845z"/>
<rect x="219.26" y="148.17" style="fill:#FFB344;" width="91.22" height="59.767"/>
<rect x="263.11" y="148.17" style="fill:#FF9451;" width="47.38" height="59.768"/>
<rect x="71.67" y="188.33" style="fill:#F2F2F2;" width="243.84" height="181.3"/>
<rect x="192.86" y="188.33" style="fill:#E6E6E6;" width="122.65" height="181.3"/>
<rect x="92.67" y="210.27" style="fill:#FFFFFF;" width="201.83" height="137.42"/>
<rect x="192.86" y="210.27" style="fill:#F2F2F2;" width="101.64" height="137.42"/>
<rect x="152.09" y="228.75" style="fill:#CCCCCC;" width="83" height="11"/>
<rect x="192.86" y="228.75" style="fill:#B3B3B3;" width="42.23" height="11"/>
<rect x="108.17" y="257.46" style="fill:#CCCCCC;" width="170.83" height="11"/>
<rect x="192.86" y="257.46" style="fill:#B3B3B3;" width="86.14" height="11"/>
<rect x="108.17" y="286.17" style="fill:#CCCCCC;" width="170.83" height="11"/>
<rect x="192.86" y="286.17" style="fill:#B3B3B3;" width="86.14" height="11"/>
<rect x="108.17" y="314.88" style="fill:#CCCCCC;" width="170.83" height="11"/>
<rect x="192.86" y="314.88" style="fill:#B3B3B3;" width="86.14" height="11"/>
<polygon style="fill:#F1333F;" points="148.969,410.919 128.63,394.81 108.29,410.919 108.29,328.354 148.969,328.354 "/>
<polygon style="fill:#AE283F;" points="127.976,328.354 127.976,395.327 128.629,394.81 148.969,410.918 148.969,328.354 "/>
<circle style="fill:#FF6838;" cx="128.63" cy="317.96" r="38.3"/>
<path style="fill:#AE4E32;" d="M128.629,279.667c-0.219,0-0.435,0.013-0.653,0.017v76.56c0.218,0.003,0.434,0.017,0.653,0.017
	c21.151,0,38.296-17.146,38.296-38.296S149.78,279.667,128.629,279.667z"/>
<circle style="fill:#FF9451;" cx="128.63" cy="317.96" r="23.21"/>
<path style="fill:#F7674F;" d="M128.629,294.749c-0.219,0-0.436,0.011-0.653,0.017v46.395c0.218,0.006,0.434,0.017,0.653,0.017
	c12.821,0,23.214-10.393,23.214-23.214S141.45,294.749,128.629,294.749z"/>
<g>
</g>
<g>
</g>
<g>
</g>
<g>
</g>
<g>
</g>
<g>
</g>
<g>
</g>
<g>
</g>
<g>
</g>
<g>
</g>
<g>
</g>
<g>
</g>
<g>
</g>
<g>
</g>
<g>
</g>
</svg>
