<?xml version="1.0" encoding="iso-8859-1"?>
<!-- Generator: Adobe Illustrator 19.0.0, SVG Export Plug-In . SVG Version: 6.00 Build 0)  -->
<svg version="1.1" id="Capa_1" xmlns="http://www.w3.org/2000/svg" xmlns:xlink="http://www.w3.org/1999/xlink" x="0px" y="0px"
	 viewBox="0 0 512 512" style="enable-background:new 0 0 512 512;" xml:space="preserve">
<circle style="fill:#FFCF35;" cx="256" cy="256" r="256"/>
<path style="fill:#FFB344;" d="M512,256c0-3.819-0.1-7.614-0.265-11.392L367.762,100.636L235.866,71.381l-89.438,36.31
	l-45.934,177.457l88.267,88.267l-45.626,37.591l100.7,100.7C247.868,511.894,251.921,512,256,512C397.385,512,512,397.385,512,256z"
	/>
<path style="fill:#005C83;" d="M395.772,236.401h-20v-65.137c0-45.905-37.347-83.252-83.252-83.252h-70.609
	c-45.905,0-83.252,37.347-83.252,83.252v65.137h-20v-65.137c0-56.933,46.318-103.252,103.252-103.252h70.609
	c56.934,0,103.252,46.319,103.252,103.252L395.772,236.401L395.772,236.401z"/>
<path style="fill:#00263F;" d="M292.521,68.013h-36.568v20h36.568c45.905,0,83.252,37.347,83.252,83.252v65.137h20v-65.137
	C395.772,114.331,349.454,68.013,292.521,68.013z"/>
<rect x="143.14" y="152.8" style="fill:#FF6838;" width="185.46" height="258.2"/>
<rect x="223.21" y="152.8" style="fill:#AE4E32;" width="105.38" height="258.2"/>
<rect x="309.16" y="152.8" style="fill:#8E3925;" width="62.746" height="258.2"/>
<path style="fill:#0074A3;" d="M143.136,291.536h-26.494c-13.045,0-23.62-10.575-23.62-23.62v-48.158
	c0-13.045,10.575-23.62,23.62-23.62h26.494V291.536z"/>
<path style="fill:#005C83;" d="M371.908,196.139h26.494c13.045,0,23.62,10.575,23.62,23.62v48.157
	c0,13.045-10.575,23.62-23.62,23.62h-26.494V196.139z"/>
<rect x="174.35" y="196.14" style="fill:#FFECB3;" width="99.68" height="57.942"/>
<rect x="223.21" y="196.14" style="fill:#FFD863;" width="50.819" height="57.942"/>
<g>
</g>
<g>
</g>
<g>
</g>
<g>
</g>
<g>
</g>
<g>
</g>
<g>
</g>
<g>
</g>
<g>
</g>
<g>
</g>
<g>
</g>
<g>
</g>
<g>
</g>
<g>
</g>
<g>
</g>
</svg>
