<?xml version="1.0" encoding="iso-8859-1"?>
<!-- Generator: Adobe Illustrator 19.0.0, SVG Export Plug-In . SVG Version: 6.00 Build 0)  -->
<svg version="1.1" id="Capa_1" xmlns="http://www.w3.org/2000/svg" xmlns:xlink="http://www.w3.org/1999/xlink" x="0px" y="0px"
	 viewBox="0 0 512 512" style="enable-background:new 0 0 512 512;" xml:space="preserve">
<circle style="fill:#662E57;" cx="256" cy="256" r="256"/>
<path style="fill:#590F38;" d="M512,256c0-4.597-0.127-9.163-0.366-13.7L368.333,99L125,424.333l83.19,83.19
	C223.681,510.451,239.658,512,256,512C397.385,512,512,397.385,512,256z"/>
<g>
	<rect x="125" y="99" style="fill:#35CCFF;" width="224.67" height="325.33"/>
	<rect x="236.31" y="99" style="fill:#35CCFF;" width="113.36" height="325.33"/>
</g>
<g>
	<rect x="349.67" y="99" style="fill:#008CC3;" width="18.667" height="325.33"/>
	<circle style="fill:#008CC3;" cx="237.33" cy="253.23" r="43.46"/>
</g>
<g>
	<path style="fill:#0074A3;" d="M237.333,209.769c-0.343,0-0.682,0.018-1.024,0.026v86.876c0.341,0.008,0.68,0.026,1.024,0.026
		c24.005,0,43.464-19.459,43.464-43.464C280.797,229.229,261.338,209.769,237.333,209.769z"/>
	<path style="fill:#0074A3;" d="M168.68,367.316c0-37.916,30.737-68.653,68.653-68.653s68.653,30.737,68.653,68.653L168.68,367.316
		L168.68,367.316z"/>
</g>
<path style="fill:#005C83;" d="M237.333,298.663c-0.343,0-0.682,0.021-1.024,0.026v68.627h69.677
	C305.986,329.4,275.25,298.663,237.333,298.663z"/>
<rect x="148.33" y="125.67" style="fill:#FFCF35;" width="113.67" height="32.431"/>
<rect x="236.31" y="125.67" style="fill:#FFB344;" width="25.69" height="32.431"/>
<rect x="148.33" y="169.12" style="fill:#FF9451;" width="78" height="19.217"/>
<rect x="289.67" y="344.33" style="fill:#AE4E32;" width="43.33" height="60"/>
<rect x="148.33" y="383.67" style="fill:#FFCF35;" width="129.33" height="20.667"/>
<rect x="236.31" y="383.67" style="fill:#FFB344;" width="41.36" height="20.667"/>
<g>
</g>
<g>
</g>
<g>
</g>
<g>
</g>
<g>
</g>
<g>
</g>
<g>
</g>
<g>
</g>
<g>
</g>
<g>
</g>
<g>
</g>
<g>
</g>
<g>
</g>
<g>
</g>
<g>
</g>
</svg>
