<?xml version="1.0" encoding="iso-8859-1"?>
<!-- Generator: Adobe Illustrator 19.0.0, SVG Export Plug-In . SVG Version: 6.00 Build 0)  -->
<svg version="1.1" id="Capa_1" xmlns="http://www.w3.org/2000/svg" xmlns:xlink="http://www.w3.org/1999/xlink" x="0px" y="0px"
	 viewBox="0 0 512 512" style="enable-background:new 0 0 512 512;" xml:space="preserve">
<circle style="fill:#FF6838;" cx="256" cy="256" r="256"/>
<path style="fill:#AE4E32;" d="M263.727,511.874C401.536,507.787,512,394.799,512,256c0-12.033-0.85-23.866-2.456-35.457
	L408.455,119.454l-304.91,221.179l73.212,73.212l-6.859,4.201L263.727,511.874z"/>
<polygon style="fill:#E0E0E0;" points="327.077,399.614 184.923,399.614 195.615,320.095 316.385,320.095 "/>
<polygon style="fill:#C0C0C0;" points="316.385,320.095 255.952,320.095 255.952,399.614 327.077,399.614 "/>
<rect x="103.55" y="119.45" style="fill:#FFFFFF;" width="304.91" height="221.18"/>
<rect x="255.95" y="119.45" style="fill:#E0E0E0;" width="152.5" height="221.18"/>
<rect x="103.55" y="119.45" style="fill:#FFFFFF;" width="152.41" height="221.18"/>
<rect x="120.13" y="137.36" style="fill:#FFECB3;" width="271.73" height="144.82"/>
<rect x="256" y="137.36" style="fill:#FFD863;" width="135.87" height="144.82"/>
<rect x="169.9" y="389.61" style="fill:#FFFFFF;" width="172.2" height="28.437"/>
<rect x="255.95" y="389.61" style="fill:#E0E0E0;" width="86.15" height="28.438"/>
<g>
	<rect x="130.61" y="158.1" style="fill:#4D4D4D;" width="112.99" height="8.207"/>
	<rect x="130.61" y="177.12" style="fill:#4D4D4D;" width="112.99" height="8.207"/>
	<rect x="130.61" y="196.15" style="fill:#4D4D4D;" width="112.99" height="8.207"/>
	<rect x="130.61" y="215.18" style="fill:#4D4D4D;" width="112.99" height="8.207"/>
	<rect x="130.61" y="234.21" style="fill:#4D4D4D;" width="112.99" height="8.207"/>
	<rect x="130.61" y="253.23" style="fill:#4D4D4D;" width="112.99" height="8.207"/>
	<rect x="267.44" y="158.1" style="fill:#4D4D4D;" width="112.99" height="8.207"/>
	<rect x="267.44" y="177.12" style="fill:#4D4D4D;" width="112.99" height="8.207"/>
	<rect x="267.44" y="196.15" style="fill:#4D4D4D;" width="112.99" height="8.207"/>
	<rect x="267.44" y="215.18" style="fill:#4D4D4D;" width="112.99" height="8.207"/>
	<rect x="267.44" y="234.21" style="fill:#4D4D4D;" width="112.99" height="8.207"/>
	<rect x="267.44" y="253.23" style="fill:#4D4D4D;" width="112.99" height="8.207"/>
</g>
<g>
</g>
<g>
</g>
<g>
</g>
<g>
</g>
<g>
</g>
<g>
</g>
<g>
</g>
<g>
</g>
<g>
</g>
<g>
</g>
<g>
</g>
<g>
</g>
<g>
</g>
<g>
</g>
<g>
</g>
</svg>
