<?xml version="1.0" encoding="iso-8859-1"?>
<!-- Generator: Adobe Illustrator 19.0.0, SVG Export Plug-In . SVG Version: 6.00 Build 0)  -->
<svg version="1.1" id="Capa_1" xmlns="http://www.w3.org/2000/svg" xmlns:xlink="http://www.w3.org/1999/xlink" x="0px" y="0px"
	 viewBox="0 0 512 512" style="enable-background:new 0 0 512 512;" xml:space="preserve">
<circle style="fill:#B9EAFF;" cx="256" cy="256" r="256"/>
<path style="fill:#35CCFF;" d="M510.772,281.124l-83.58-83.58L124.409,405.667l104.96,104.959C238.123,511.531,247.007,512,256,512
	C388.907,512,498.147,410.715,510.772,281.124z"/>
<rect x="199.807" y="90.103" transform="matrix(-0.713 -0.7012 0.7012 -0.713 334.5141 526.6201)" style="fill:#FF6838;" width="150.464" height="209.485"/>
<rect x="310.13" y="149.645" transform="matrix(-0.713 -0.7012 0.7012 -0.713 396.4766 671.067)" style="fill:#AE4E32;" width="50.907" height="209.485"/>
<g>
	<path style="fill:#963A24;" d="M396.573,229.668l-36.79-36.178l12.41-12.62l36.79,36.178c3.485,3.427,3.532,9.03,0.105,12.515l0,0
		C405.661,233.048,400.058,233.095,396.573,229.668z"/>
	<path style="fill:#963A24;" d="M303.285,324.534l-36.79-36.178l12.41-12.62l36.79,36.178c3.485,3.427,3.532,9.03,0.105,12.515l0,0
		C312.374,327.914,306.77,327.961,303.285,324.534z"/>
	<path style="fill:#963A24;" d="M349.929,277.101l-36.79-36.178l12.41-12.62l36.79,36.178c3.485,3.427,3.532,9.03,0.105,12.515l0,0
		C359.017,280.481,353.414,280.528,349.929,277.101z"/>
</g>
<g>
	
		<rect x="255.294" y="130.652" transform="matrix(0.713 0.7012 -0.7012 0.713 196.2157 -163.0472)" style="fill:#AE4E32;" width="83.951" height="55.001"/>
</g>
<polygon style="fill:#FFFFFF;" points="387.591,405.667 124.409,405.667 92.333,244.333 419.667,244.333 "/>
<g>
	<polygon style="fill:#E0E0E0;" points="419.667,244.333 255.952,244.333 255.952,405.667 387.591,405.667 	"/>
	<polygon style="fill:#E0E0E0;" points="128.975,263 151.774,387 182.193,387 166.808,263 	"/>
</g>
<polygon style="fill:#C0C0C0;" points="345.192,263 329.807,387 360.226,387 383.025,263 "/>
<polygon style="fill:#E0E0E0;" points="198,263 209.367,387 240.571,387 232.9,263 "/>
<g>
	<polygon style="fill:#C0C0C0;" points="279.1,263 271.429,387 302.633,387 314,263 	"/>
	<path style="fill:#C0C0C0;" d="M271.02,241.475L271.02,241.475c9.954,9.96,9.005,27.05-2.12,38.181L155.2,393.415
		c-11.134,11.14-28.243,12.09-38.206,2.122l0,0c-9.954-9.96-9.005-27.05,2.12-38.181l113.7-113.759
		C243.949,232.456,261.058,231.506,271.02,241.475z"/>
</g>
<path style="fill:#758F9B;" d="M271.02,241.475c-4.112-4.115-9.443-6.364-15.068-6.809v57.945l12.948-12.955
	C280.025,268.525,280.974,251.435,271.02,241.475z"/>
<g>
</g>
<g>
</g>
<g>
</g>
<g>
</g>
<g>
</g>
<g>
</g>
<g>
</g>
<g>
</g>
<g>
</g>
<g>
</g>
<g>
</g>
<g>
</g>
<g>
</g>
<g>
</g>
<g>
</g>
</svg>
