<?xml version="1.0" encoding="iso-8859-1"?>
<!-- Generator: Adobe Illustrator 19.0.0, SVG Export Plug-In . SVG Version: 6.00 Build 0)  -->
<svg version="1.1" id="Capa_1" xmlns="http://www.w3.org/2000/svg" xmlns:xlink="http://www.w3.org/1999/xlink" x="0px" y="0px"
	 viewBox="0 0 512 512" style="enable-background:new 0 0 512 512;" xml:space="preserve">
<circle style="fill:#B9EAFF;" cx="256" cy="256" r="256"/>
<path style="fill:#35CCFF;" d="M512,256c0-13.556-1.063-26.862-3.093-39.848L393.297,99.946L93.628,429.789l60.917,61.303
	C185.655,504.535,219.954,512,256,512C397.385,512,512,397.385,512,256z"/>
<rect x="191.62" y="99.95" style="fill:#FF6838;" width="163.5" height="227.63"/>
<rect x="263.5" y="99.95" style="fill:#99402E;" width="91.61" height="227.63"/>
<rect x="337.98" y="99.95" style="fill:#AE4E32;" width="55.32" height="227.63"/>
<rect x="364.5" y="99.95" style="fill:#87321E;" width="28.797" height="227.63"/>
<path style="fill:#963A24;" d="M394.05,148.164h-56.068V128.93h56.068c5.311,0,9.617,4.306,9.617,9.617l0,0
	C403.667,143.859,399.361,148.164,394.05,148.164z"/>
<path style="fill:#6D1D0D;" d="M394.05,128.931H364.5v19.233h29.55c5.311,0,9.617-4.306,9.617-9.617S399.361,128.931,394.05,128.931
	z"/>
<path style="fill:#963A24;" d="M394.05,292.74h-56.068v-19.234h56.068c5.311,0,9.617,4.306,9.617,9.617l0,0
	C403.667,288.435,399.361,292.74,394.05,292.74z"/>
<path style="fill:#6D1D0D;" d="M394.05,273.507H364.5v19.233h29.55c5.311,0,9.617-4.306,9.617-9.617S399.361,273.507,394.05,273.507
	z"/>
<path style="fill:#963A24;" d="M394.05,220.452h-56.068v-19.234h56.068c5.311,0,9.617,4.306,9.617,9.617l0,0
	C403.667,216.147,399.361,220.452,394.05,220.452z"/>
<path style="fill:#6D1D0D;" d="M394.05,201.219H364.5v19.233h29.55c5.311,0,9.617-4.306,9.617-9.617S399.361,201.219,394.05,201.219
	z"/>
<rect x="217.02" y="138.55" style="fill:#FFB344;" width="91.22" height="59.767"/>
<rect x="263.5" y="138.55" style="fill:#FF9451;" width="44.741" height="59.768"/>
<path style="fill:#333333;" d="M256.715,433.404H102.668c-7.243,0-13.115-5.872-13.115-13.115v-214.14
	c0-7.243,5.872-13.115,13.115-13.115h154.047c7.243,0,13.115,5.872,13.115,13.115v214.14
	C269.831,427.532,263.959,433.404,256.715,433.404z"/>
<path style="fill:#1A1A1A;" d="M256.715,193.033h-76.953v240.371h76.953c7.244,0,13.115-5.872,13.115-13.115v-214.14
	C269.831,198.905,263.959,193.033,256.715,193.033z"/>
<rect x="103.38" y="208.06" style="fill:#F2F2F2;" width="152.62" height="200.79"/>
<rect x="179.76" y="208.06" style="fill:#E0E0E0;" width="76.24" height="200.79"/>
<rect x="115.02" y="247.03" style="fill:#CCCCCC;" width="128.91" height="8.632"/>
<rect x="179.76" y="247.03" style="fill:#B3B3B3;" width="64.16" height="8.632"/>
<rect x="115.02" y="267.04" style="fill:#CCCCCC;" width="128.91" height="8.632"/>
<rect x="179.76" y="267.04" style="fill:#B3B3B3;" width="64.16" height="8.632"/>
<rect x="115.02" y="287.05" style="fill:#CCCCCC;" width="128.91" height="8.632"/>
<rect x="179.76" y="287.05" style="fill:#B3B3B3;" width="64.16" height="8.632"/>
<rect x="115.02" y="307.07" style="fill:#CCCCCC;" width="128.91" height="8.632"/>
<rect x="179.76" y="307.07" style="fill:#B3B3B3;" width="64.16" height="8.632"/>
<rect x="115.02" y="327.08" style="fill:#CCCCCC;" width="128.91" height="8.632"/>
<rect x="179.76" y="327.08" style="fill:#B3B3B3;" width="64.16" height="8.632"/>
<rect x="115.02" y="347.09" style="fill:#CCCCCC;" width="128.91" height="8.632"/>
<rect x="179.76" y="347.09" style="fill:#B3B3B3;" width="64.16" height="8.633"/>
<rect x="115.02" y="367.11" style="fill:#CCCCCC;" width="128.91" height="8.632"/>
<rect x="179.76" y="367.11" style="fill:#B3B3B3;" width="64.16" height="8.632"/>
<rect x="115.02" y="387.12" style="fill:#CCCCCC;" width="128.91" height="8.632"/>
<rect x="179.76" y="387.12" style="fill:#B3B3B3;" width="64.16" height="8.632"/>
<rect x="115.02" y="227.01" style="fill:#CCCCCC;" width="49.5" height="8.632"/>
<polygon style="fill:#8CC63F;" points="220.557,284.255 191.692,313.12 191.692,243.39 167.692,243.39 167.692,313.121 
	138.827,284.255 121.856,301.226 179.691,359.061 237.527,301.226 "/>
<polygon style="fill:#39B54A;" points="220.557,284.255 191.692,313.12 191.692,243.39 179.762,243.39 179.762,358.99 
	237.527,301.226 "/>
<g>
</g>
<g>
</g>
<g>
</g>
<g>
</g>
<g>
</g>
<g>
</g>
<g>
</g>
<g>
</g>
<g>
</g>
<g>
</g>
<g>
</g>
<g>
</g>
<g>
</g>
<g>
</g>
<g>
</g>
</svg>
