<?xml version="1.0" encoding="iso-8859-1"?>
<!-- Generator: Adobe Illustrator 19.0.0, SVG Export Plug-In . SVG Version: 6.00 Build 0)  -->
<svg version="1.1" id="Capa_1" xmlns="http://www.w3.org/2000/svg" xmlns:xlink="http://www.w3.org/1999/xlink" x="0px" y="0px"
	 viewBox="0 0 512 512" style="enable-background:new 0 0 512 512;" xml:space="preserve">
<circle style="fill:#FFCF35;" cx="256" cy="256" r="256"/>
<path style="fill:#FFB344;" d="M512,256c0-13.027-0.98-25.825-2.858-38.329L397,105.529L115.825,406.471l102.806,102.806
	C230.83,511.061,243.305,512,256,512C397.385,512,512,397.385,512,256z"/>
<rect x="115.83" y="105.53" style="fill:#FF6838;" width="216.16" height="300.94"/>
<rect x="221.43" y="105.53" style="fill:#9E422D;" width="110.56" height="300.94"/>
<rect x="323" y="105.53" style="fill:#8E311B;" width="74" height="300.94"/>
<rect x="346" y="153.67" style="fill:#FFB344;" width="28" height="204.67"/>
<path style="fill:#FFECB3;" d="M310.167,256c0-0.024-0.001-0.049-0.001-0.073c-0.04-48.623-39.609-88.167-88.24-88.167
	c-48.656,0-88.241,39.585-88.241,88.241l0,0l0,0l0,0c0.001,48.656,39.585,88.24,88.241,88.24c48.646,0,88.224-39.568,88.241-88.21
	C310.166,256.021,310.167,256.01,310.167,256z M221.976,324.24c-0.008,0-0.017,0.001-0.025,0.001
	c-0.987-0.197-5.838-3.905-10.369-17.688c-1.376-4.184-2.559-8.783-3.541-13.697c4.552,0.271,9.188,0.418,13.884,0.418
	c4.611,0,9.259-0.138,13.884-0.415c-0.982,4.913-2.165,9.511-3.541,13.694C227.741,320.325,222.894,324.039,221.976,324.24z
	 M221.925,273.273c-5.666,0-11.233-0.224-16.624-0.649c-0.425-5.391-0.649-10.958-0.649-16.624c0-5.666,0.223-11.233,0.649-16.624
	c5.391-0.425,10.958-0.649,16.624-0.649s11.234,0.224,16.624,0.649c0.425,5.391,0.649,10.958,0.649,16.624
	s-0.223,11.233-0.649,16.624C233.159,273.049,227.591,273.273,221.925,273.273z M153.685,256.051c0-0.008-0.001-0.017-0.001-0.025
	c0.196-0.987,3.905-5.838,17.688-10.37c4.183-1.375,8.782-2.559,13.695-3.541c-0.277,4.625-0.415,9.273-0.415,13.884
	s0.138,9.26,0.415,13.884c-4.913-0.982-9.512-2.165-13.695-3.541C157.601,261.816,153.887,256.969,153.685,256.051z M221.874,187.76
	c0.008,0,0.017-0.001,0.025-0.001c0.987,0.197,5.838,3.905,10.369,17.688c1.376,4.184,2.559,8.783,3.541,13.697
	c-4.552-0.271-9.188-0.418-13.884-0.418c-4.611,0-9.259,0.138-13.884,0.415c0.982-4.913,2.165-9.511,3.541-13.694
	C216.11,191.675,220.957,187.961,221.874,187.76z M258.783,242.116c4.913,0.982,9.512,2.165,13.695,3.541
	c13.764,4.525,17.482,9.368,17.688,10.291c0,0.009,0.001,0.019,0.001,0.029c-0.2,0.99-3.912,5.838-17.687,10.368
	c-4.183,1.375-8.782,2.559-13.695,3.541c0.277-4.625,0.415-9.273,0.415-13.884S259.06,246.74,258.783,242.116z M284.466,228.736
	c-1.252-0.497-2.553-0.986-3.924-1.464c-7.106-2.477-15.23-4.449-24.011-5.875c-1.648-10.21-4.072-19.777-7.31-27.924
	C264.944,200.364,277.584,213.009,284.466,228.736z M194.63,193.474c-3.237,8.146-5.662,17.712-7.309,27.921
	c-10.21,1.648-19.775,4.072-27.922,7.31C166.284,212.992,178.918,200.359,194.63,193.474z M159.384,283.263
	c1.252,0.498,2.554,0.987,3.925,1.465c7.106,2.477,15.229,4.449,24.011,5.875c1.648,10.21,4.072,19.777,7.31,27.924
	C178.907,311.636,166.267,298.99,159.384,283.263z M249.221,318.526c3.237-8.146,5.662-17.712,7.309-27.921
	c10.21-1.648,19.775-4.072,27.922-7.31C277.566,299.007,264.933,311.641,249.221,318.526z"/>
<path style="fill:#FFD863;" d="M310.166,255.926c-0.04-48.623-39.609-88.167-88.24-88.167c-0.166,0-0.331,0.005-0.497,0.006v20.203
	c0.192-0.117,0.344-0.186,0.446-0.208c0.008,0,0.017-0.001,0.025-0.001c0.987,0.197,5.838,3.905,10.369,17.688
	c1.376,4.184,2.559,8.783,3.541,13.697c-4.552-0.271-9.188-0.418-13.884-0.418c-0.165,0-0.332,0.007-0.497,0.007v19.998
	c0.166,0,0.33-0.005,0.497-0.005c5.666,0,11.234,0.224,16.624,0.649c0.425,5.391,0.649,10.958,0.649,16.624
	c0,5.666-0.223,11.233-0.649,16.624c-5.391,0.425-10.958,0.649-16.624,0.649c-0.166,0-0.331-0.004-0.497-0.005v19.997
	c0.167,0,0.33,0.008,0.497,0.008c4.611,0,9.259-0.138,13.884-0.415c-0.982,4.913-2.165,9.511-3.541,13.694
	c-4.528,13.773-9.375,17.486-10.292,17.688c-0.008,0-0.017,0.001-0.025,0.001c-0.12-0.024-0.297-0.101-0.522-0.239v20.233
	c0.166,0.001,0.331,0.006,0.497,0.006c48.646,0,88.224-39.568,88.241-88.21c0-0.01,0.001-0.021,0.001-0.031
	C310.167,255.976,310.166,255.951,310.166,255.926z M284.466,228.736c-1.252-0.497-2.553-0.986-3.924-1.464
	c-7.106-2.477-15.23-4.449-24.011-5.875c-1.648-10.21-4.072-19.777-7.31-27.924C264.944,200.364,277.584,213.009,284.466,228.736z
	 M249.221,318.526c3.237-8.146,5.662-17.712,7.309-27.921c10.21-1.648,19.775-4.072,27.922-7.31
	C277.566,299.007,264.933,311.641,249.221,318.526z M272.479,266.343c-4.183,1.375-8.782,2.559-13.695,3.541
	c0.277-4.625,0.415-9.273,0.415-13.884s-0.138-9.26-0.415-13.884c4.913,0.982,9.512,2.165,13.695,3.541
	c13.764,4.525,17.482,9.368,17.688,10.291c0,0.009,0.001,0.019,0.001,0.029C289.966,256.966,286.254,261.813,272.479,266.343z"/>
<g>
</g>
<g>
</g>
<g>
</g>
<g>
</g>
<g>
</g>
<g>
</g>
<g>
</g>
<g>
</g>
<g>
</g>
<g>
</g>
<g>
</g>
<g>
</g>
<g>
</g>
<g>
</g>
<g>
</g>
</svg>
