<?xml version="1.0" encoding="iso-8859-1"?>
<!-- Generator: Adobe Illustrator 19.0.0, SVG Export Plug-In . SVG Version: 6.00 Build 0)  -->
<svg version="1.1" id="Capa_1" xmlns="http://www.w3.org/2000/svg" xmlns:xlink="http://www.w3.org/1999/xlink" x="0px" y="0px"
	 viewBox="0 0 512 512" style="enable-background:new 0 0 512 512;" xml:space="preserve">
<circle style="fill:#B9EAFF;" cx="256" cy="256" r="256"/>
<path style="fill:#35CCFF;" d="M512,256c0-22.958-3.04-45.204-8.708-66.375L422.667,109L81.383,379.741l128.014,128.014
	C224.51,510.535,240.083,512,256,512C397.385,512,512,397.385,512,256z"/>
<rect x="182.78" y="109" style="fill:#FF6838;" width="194.47" height="270.74"/>
<rect x="265.33" y="109" style="fill:#AE4E32;" width="111.92" height="270.74"/>
<rect x="356.87" y="109" style="fill:#933D2A;" width="65.793" height="270.74"/>
<g>
	<path style="fill:#7C3122;" d="M423.562,166.351h-66.688v-22.876h66.688c6.317,0,11.438,5.121,11.438,11.438l0,0
		C435,161.229,429.879,166.351,423.562,166.351z"/>
	<path style="fill:#7C3122;" d="M423.562,338.311h-66.688v-22.876h66.688c6.317,0,11.438,5.121,11.438,11.438l0,0
		C435,333.189,429.879,338.311,423.562,338.311z"/>
	<path style="fill:#7C3122;" d="M423.562,252.331h-66.688v-22.876h66.688c6.317,0,11.438,5.121,11.438,11.438l0,0
		C435,247.209,429.879,252.331,423.562,252.331z"/>
</g>
<rect x="213" y="154.91" style="fill:#AE4E32;" width="108.5" height="71.09"/>
<rect x="265.33" y="154.91" style="fill:#933D2A;" width="56.17" height="71.09"/>
<rect x="81.38" y="189.67" style="fill:#FFCF35;" width="141.25" height="190.07"/>
<g>
	<rect x="154.76" y="189.67" style="fill:#FFB344;" width="67.869" height="190.07"/>
	<path style="fill:#FFB344;" d="M231.581,349.781h-37.59v-26h37.59c12.662,0,22.963-10.301,22.963-22.963v-32.22
		c0-12.662-10.301-22.963-22.963-22.963h-37.59v-26h37.59c26.998,0,48.963,21.965,48.963,48.963v32.22
		C280.544,327.816,258.579,349.781,231.581,349.781z"/>
</g>
<g>
</g>
<g>
</g>
<g>
</g>
<g>
</g>
<g>
</g>
<g>
</g>
<g>
</g>
<g>
</g>
<g>
</g>
<g>
</g>
<g>
</g>
<g>
</g>
<g>
</g>
<g>
</g>
<g>
</g>
</svg>
