<?xml version="1.0" encoding="iso-8859-1"?>
<!-- Generator: Adobe Illustrator 19.0.0, SVG Export Plug-In . SVG Version: 6.00 Build 0)  -->
<svg version="1.1" id="Capa_1" xmlns="http://www.w3.org/2000/svg" xmlns:xlink="http://www.w3.org/1999/xlink" x="0px" y="0px"
	 viewBox="0 0 512 512" style="enable-background:new 0 0 512 512;" xml:space="preserve">
<circle style="fill:#FF6838;" cx="256" cy="256" r="256"/>
<path style="fill:#AE4E32;" d="M512,256c0-14.006-1.142-27.744-3.307-41.14L375,81.167L109.851,384.731l126.526,126.527
	C242.854,511.749,249.398,512,256,512C397.385,512,512,397.385,512,256z"/>
<path style="fill:#FFFFFF;" d="M345.25,394.5H137V81.167h238V364.75C375,381.18,361.68,394.5,345.25,394.5z"/>
<g>
	<path style="fill:#E0E0E0;" d="M255.357,81.167V394.5h89.893c16.43,0,29.75-13.319,29.75-29.75V81.167H255.357z"/>
	<path style="fill:#E0E0E0;" d="M345,334.5c-16.569,0-30,13.431-30,30s13.431,30,30,30H132c-16.569,0-30-13.431-30-30
		s13.431-30,30-30H345z"/>
</g>
<path style="fill:#C0C0C0;" d="M315,364.5c0-16.568,13.431-30,30-30h-89.643v60H345C328.431,394.5,315,381.068,315,364.5z"/>
<path style="fill:#333333;" d="M323.833,127.583H250v119.486c-7.907-0.675-17.17,1.061-26.159,5.415
	c-19.053,9.229-29.652,26.717-23.673,39.061c5.979,12.343,26.272,14.867,45.325,5.638c15.452-7.485,25.341-20.401,25.339-31.6h0.002
	V148.167h52.999V127.583z"/>
<path style="fill:#1A1A1A;" d="M255.357,127.583v163.549c9.666-7.381,15.476-16.968,15.475-25.549h0.002V148.167h52.999v-20.583
	h-68.476V127.583z"/>
<g>
</g>
<g>
</g>
<g>
</g>
<g>
</g>
<g>
</g>
<g>
</g>
<g>
</g>
<g>
</g>
<g>
</g>
<g>
</g>
<g>
</g>
<g>
</g>
<g>
</g>
<g>
</g>
<g>
</g>
</svg>
