<?xml version="1.0" encoding="iso-8859-1"?>
<!-- Generator: Adobe Illustrator 19.0.0, SVG Export Plug-In . SVG Version: 6.00 Build 0)  -->
<svg version="1.1" id="Capa_1" xmlns="http://www.w3.org/2000/svg" xmlns:xlink="http://www.w3.org/1999/xlink" x="0px" y="0px"
	 viewBox="0 0 512 512" style="enable-background:new 0 0 512 512;" xml:space="preserve">
<circle style="fill:#662E57;" cx="256" cy="256" r="256"/>
<path style="fill:#590F38;" d="M512,256c0-10.316-0.628-20.484-1.814-30.481L393.667,109L129.865,409.906l100.852,100.852
	C239.035,511.573,247.467,512,256,512C397.385,512,512,397.385,512,256z"/>
<path style="fill:#FFCF35;" d="M341.667,419H153c-18.778,0-34-15.222-34-34V143c0-18.778,15.222-34,34-34h188.667V419z"/>
<rect x="219.05" y="109" style="fill:#FFB344;" width="122.62" height="310"/>
<rect x="318.33" y="109" style="fill:#FF9451;" width="75.33" height="310"/>
<polygon style="fill:#FF6838;" points="279.5,202.25 240.5,202.25 240.5,157.75 199,157.75 199,202.25 160.001,202.25 
	160.001,243.75 199,243.75 199,354.25 240.5,354.25 240.5,243.75 279.5,243.75 "/>
<polygon style="fill:#AE4E32;" points="240.5,202.25 240.5,157.75 219.048,157.75 219.048,354.25 240.5,354.25 240.5,243.75 
	279.5,243.75 279.5,202.25 "/>
<g>
</g>
<g>
</g>
<g>
</g>
<g>
</g>
<g>
</g>
<g>
</g>
<g>
</g>
<g>
</g>
<g>
</g>
<g>
</g>
<g>
</g>
<g>
</g>
<g>
</g>
<g>
</g>
<g>
</g>
</svg>
