<?xml version="1.0" encoding="iso-8859-1"?>
<!-- Generator: Adobe Illustrator 19.0.0, SVG Export Plug-In . SVG Version: 6.00 Build 0)  -->
<svg version="1.1" id="Capa_1" xmlns="http://www.w3.org/2000/svg" xmlns:xlink="http://www.w3.org/1999/xlink" x="0px" y="0px"
	 viewBox="0 0 512 512" style="enable-background:new 0 0 512 512;" xml:space="preserve">
<circle style="fill:#FFCF35;" cx="256" cy="256" r="256"/>
<path style="fill:#FFB344;" d="M149.502,378.353l132.354,132.354C411.098,497.744,512,388.657,512,256
	c0-11.362-0.75-22.547-2.185-33.518L388.333,101L149.502,378.353z"/>
<rect x="149.5" y="101" style="fill:#B9EAFF;" width="199.69" height="277.35"/>
<g>
	<rect x="149.5" y="239.83" style="fill:#35CCFF;" width="199.69" height="138.52"/>
	<rect x="336.14" y="101" style="fill:#35CCFF;" width="52.19" height="277.35"/>
	<rect x="336.14" y="239.83" style="fill:#35CCFF;" width="52.19" height="138.52"/>
	<rect x="176.47" y="140.41" style="fill:#35CCFF;" width="128.01" height="11.11"/>
	<rect x="176.47" y="167.23" style="fill:#35CCFF;" width="128.01" height="11.11"/>
</g>
<rect x="217" y="101" style="fill:#F1333F;" width="43.667" height="277.35"/>
<g>
	<rect x="217" y="239.83" style="fill:#AE283F;" width="43.667" height="138.52"/>
	<path style="fill:#AE283F;" d="M241.489,259.135l-60.797,18.086c-8.113,1.7-15.737-4.491-15.737-12.781v-45.881
		c0-8.289,7.624-14.481,15.737-12.781l60.797,18.086V259.135z"/>
</g>
<path style="fill:#9B243D;" d="M164.956,239.833v24.607c0,8.29,7.624,14.481,15.737,12.781l60.796-18.086v-19.301h-76.533V239.833z"
	/>
<path style="fill:#AE283F;" d="M236.177,223.865l60.797-18.086c8.113-1.7,15.737,4.491,15.737,12.781v45.881
	c0,8.289-7.624,14.481-15.737,12.781l-60.797-18.087V223.865z"/>
<path style="fill:#9B243D;" d="M236.177,239.833v19.301l60.797,18.086c8.113,1.7,15.737-4.491,15.737-12.781v-24.607
	L236.177,239.833L236.177,239.833z"/>
<path style="fill:#9B213B;" d="M254.179,264.75h-30.692c-3.935,0-7.125-3.19-7.125-7.125v-35.5c0-3.935,3.19-7.125,7.125-7.125
	h30.692c3.935,0,7.125,3.19,7.125,7.125v35.5C261.304,261.56,258.114,264.75,254.179,264.75z"/>
<path style="fill:#841E38;" d="M216.362,239.833v17.792c0,3.935,3.19,7.125,7.125,7.125h30.692c3.935,0,7.125-3.19,7.125-7.125
	v-17.792L216.362,239.833L216.362,239.833z"/>
<g>
</g>
<g>
</g>
<g>
</g>
<g>
</g>
<g>
</g>
<g>
</g>
<g>
</g>
<g>
</g>
<g>
</g>
<g>
</g>
<g>
</g>
<g>
</g>
<g>
</g>
<g>
</g>
<g>
</g>
</svg>
