<?xml version="1.0" encoding="iso-8859-1"?>
<!-- Generator: Adobe Illustrator 19.0.0, SVG Export Plug-In . SVG Version: 6.00 Build 0)  -->
<svg version="1.1" id="Capa_1" xmlns="http://www.w3.org/2000/svg" xmlns:xlink="http://www.w3.org/1999/xlink" x="0px" y="0px"
	 viewBox="0 0 512 512" style="enable-background:new 0 0 512 512;" xml:space="preserve">
<circle style="fill:#FF6838;" cx="256" cy="256" r="256"/>
<path style="fill:#AE4E32;" d="M512,256c0-13.743-1.096-27.229-3.182-40.386L375,81.795L112.287,387.732L235.76,511.205
	C242.438,511.728,249.187,512,256,512C397.385,512,512,397.385,512,256z"/>
<path style="fill:#FFFFFF;" d="M345.25,395.129H137V81.795h238v283.583C375,381.809,361.68,395.129,345.25,395.129z"/>
<g>
	<path style="fill:#E0E0E0;" d="M255.952,81.795v313.333h89.298c16.43,0,29.75-13.319,29.75-29.75V81.795H255.952z"/>
	<path style="fill:#E0E0E0;" d="M345,335.129c-16.569,0-30,13.431-30,30s13.431,30,30,30H132c-16.569,0-30-13.431-30-30
		s13.431-30,30-30H345z"/>
</g>
<path style="fill:#C0C0C0;" d="M315,365.129c0-16.568,13.431-30,30-30h-89.048v60H345C328.431,395.129,315,381.697,315,365.129z"/>
<polygon style="fill:#4D4D4D;" points="177.755,196.831 149.004,196.831 149.004,256.506 177.755,256.506 259.777,302.629 
	259.777,150.709 "/>
<polygon style="fill:#333333;" points="149.004,226.177 149.004,256.507 177.755,256.507 259.777,302.629 259.777,226.177 "/>
<path style="fill:#35CCFF;" d="M280.799,256.854l-14.143-14.143c4.285-4.285,6.646-9.982,6.646-16.042
	c0-6.061-2.36-11.758-6.646-16.043l14.143-14.143C297.442,213.128,297.442,240.21,280.799,256.854z"/>
<path style="fill:#008CC3;" d="M273.278,226.177c0.003,0.165,0.024,0.327,0.024,0.493c0,6.06-2.36,11.757-6.646,16.042
	l14.143,14.143c8.447-8.447,12.598-19.583,12.471-30.678L273.278,226.177L273.278,226.177z"/>
<path style="fill:#35CCFF;" d="M305.957,282.012l-14.145-14.14c22.718-22.726,22.719-59.692,0.003-82.405l14.141-14.144
	C336.47,201.833,336.471,251.488,305.957,282.012z"/>
<path style="fill:#008CC3;" d="M308.84,226.177c0.125,15.083-5.545,30.209-17.027,41.696l14.145,14.14
	c15.38-15.386,22.998-35.631,22.873-55.835H308.84V226.177z"/>
<path style="fill:#35CCFF;" d="M330.854,306.909l-14.143-14.143c17.655-17.655,27.379-41.129,27.379-66.097
	s-9.724-48.442-27.379-66.097l14.143-14.143c21.433,21.433,33.236,49.929,33.236,80.24
	C364.09,256.979,352.286,285.476,330.854,306.909z"/>
<path style="fill:#008CC3;" d="M344.084,226.177c0.001,0.164,0.006,0.328,0.006,0.493c0,24.968-9.724,48.442-27.379,66.097
	l14.143,14.143c21.433-21.433,33.236-49.93,33.236-80.24c0-0.165-0.005-0.329-0.006-0.493L344.084,226.177L344.084,226.177z"/>
<g>
</g>
<g>
</g>
<g>
</g>
<g>
</g>
<g>
</g>
<g>
</g>
<g>
</g>
<g>
</g>
<g>
</g>
<g>
</g>
<g>
</g>
<g>
</g>
<g>
</g>
<g>
</g>
<g>
</g>
</svg>
