<?xml version="1.0" encoding="iso-8859-1"?>
<!-- Generator: Adobe Illustrator 19.0.0, SVG Export Plug-In . SVG Version: 6.00 Build 0)  -->
<svg version="1.1" id="Capa_1" xmlns="http://www.w3.org/2000/svg" xmlns:xlink="http://www.w3.org/1999/xlink" x="0px" y="0px"
	 viewBox="0 0 512 512" style="enable-background:new 0 0 512 512;" xml:space="preserve">
<circle style="fill:#FFCF35;" cx="256" cy="256" r="256"/>
<path style="fill:#FFB344;" d="M511.059,277.892L450,216.833l-7.032,4.571l-98.698-98.698l-3.209,18.298l-47.678-47.678
	l-163.034,94.128l86.843,86.844L51,315l196.858,196.858c2.705,0.084,5.417,0.142,8.142,0.142
	C390.009,512,499.95,409.027,511.059,277.892z"/>
<path style="fill:#005C83;" d="M381.652,246.213l-23.781-13.729c0.781-5.117,1.311-10.316,1.311-15.65
	c0-5.335-0.531-10.534-1.311-15.65l23.781-13.73l-37.382-64.748l-23.721,13.695c-8.132-6.534-17.285-11.812-27.166-15.66V93.326
	h-74.765v27.415c-9.881,3.848-19.034,9.125-27.166,15.66l-23.721-13.695l-37.382,64.748l23.781,13.73
	c-0.78,5.116-1.311,10.316-1.311,15.65s0.531,10.533,1.311,15.65l-23.781,13.729L146.968,275h218.064L381.652,246.213z
	 M255.999,261.861c-24.867,0-45.027-20.159-45.027-45.026s20.159-45.027,45.027-45.027c24.867,0,45.027,20.159,45.027,45.027
	S280.867,261.862,255.999,261.861z"/>
<path style="fill:#00263F;" d="M359.183,216.834c0-5.335-0.531-10.534-1.311-15.65l23.781-13.73l-37.382-64.748l-23.721,13.695
	c-8.132-6.534-17.285-11.812-27.166-15.66V93.326h-37.43v78.484c0.016,0,0.031-0.001,0.047-0.001
	c24.867,0,45.027,20.159,45.027,45.027c0,24.867-20.159,45.027-45.027,45.026c-0.016,0-0.031-0.001-0.047-0.001V275h109.08
	l16.62-28.787l-23.781-13.729C358.652,227.367,359.183,222.168,359.183,216.834z"/>
<path style="fill:#FFFFFF;" d="M307.5,216.833c-28.443,0-51.5,23.057-51.5,51.5c0-28.443-23.057-51.5-51.5-51.5H62v89h194h194v-89
	L307.5,216.833L307.5,216.833z"/>
<path style="fill:#E0E0E0;" d="M256,305.833h194v-89H307.5c-28.443,0-51.5,23.057-51.5,51.5V305.833z"/>
<rect x="51" y="289" style="fill:#333333;" width="389" height="26"/>
<rect x="256" y="289" style="fill:#1A1A1A;" width="205" height="26"/>
<g>
</g>
<g>
</g>
<g>
</g>
<g>
</g>
<g>
</g>
<g>
</g>
<g>
</g>
<g>
</g>
<g>
</g>
<g>
</g>
<g>
</g>
<g>
</g>
<g>
</g>
<g>
</g>
<g>
</g>
</svg>
