<?xml version="1.0" encoding="iso-8859-1"?>
<!-- Generator: Adobe Illustrator 19.0.0, SVG Export Plug-In . SVG Version: 6.00 Build 0)  -->
<svg version="1.1" id="Capa_1" xmlns="http://www.w3.org/2000/svg" xmlns:xlink="http://www.w3.org/1999/xlink" x="0px" y="0px"
	 viewBox="0 0 512 512" style="enable-background:new 0 0 512 512;" xml:space="preserve">
<circle style="fill:#B9EAFF;" cx="256" cy="256" r="256"/>
<path style="fill:#35CCFF;" d="M512,256c0-11.362-0.75-22.547-2.184-33.518L388.333,101L111.784,383.411l128.068,128.068
	C245.194,511.811,250.574,512,256,512C397.385,512,512,397.385,512,256z"/>
<rect x="149.5" y="101" style="fill:#662E57;" width="199.69" height="277.35"/>
<rect x="247.62" y="101" style="fill:#590F38;" width="101.57" height="277.35"/>
<rect x="336.14" y="101" style="fill:#440C2D;" width="52.19" height="277.35"/>
<rect x="176.47" y="140.41" style="fill:#FFECB3;" width="128.01" height="11.11"/>
<rect x="247.62" y="140.41" style="fill:#FFD863;" width="56.857" height="11.11"/>
<rect x="176.47" y="167.23" style="fill:#FFECB3;" width="128.01" height="11.11"/>
<rect x="247.62" y="167.23" style="fill:#FFD863;" width="56.857" height="11.11"/>
<path style="fill:#F1333F;" d="M73.5,309.161c0-30.062,24.37-54.432,54.432-54.432c25.49,0,46.88,17.523,52.799,41.178
	c5.919-23.655,27.309-41.178,52.799-41.178c30.062,0,54.432,24.37,54.432,54.432C287.962,389.176,180.731,430,180.731,430
	S73.5,381.395,73.5,309.161z"/>
<path style="fill:#AE283F;" d="M180.731,430c0,0,107.231-40.824,107.231-120.839c0-30.062-24.37-54.432-54.432-54.432
	c-25.489,0-46.88,17.523-52.799,41.178V430z"/>
<g>
</g>
<g>
</g>
<g>
</g>
<g>
</g>
<g>
</g>
<g>
</g>
<g>
</g>
<g>
</g>
<g>
</g>
<g>
</g>
<g>
</g>
<g>
</g>
<g>
</g>
<g>
</g>
<g>
</g>
</svg>
