<?xml version="1.0" encoding="iso-8859-1"?>
<!-- Generator: Adobe Illustrator 19.0.0, SVG Export Plug-In . SVG Version: 6.00 Build 0)  -->
<svg version="1.1" id="Capa_1" xmlns="http://www.w3.org/2000/svg" xmlns:xlink="http://www.w3.org/1999/xlink" x="0px" y="0px"
	 viewBox="0 0 512 512" style="enable-background:new 0 0 512 512;" xml:space="preserve">
<circle style="fill:#FF6838;" cx="256" cy="256" r="256"/>
<path style="fill:#AE4E32;" d="M512,256c0-7.464-0.338-14.848-0.964-22.15L401.664,124.479l-35.593,35.592L266,60l-20,52.333
	l129.625,129.625l-89.342,30.182l-124.8-124.8l-14.143,14.143l85.136,85.136L51,315l196.858,196.858
	c2.705,0.084,5.416,0.142,8.142,0.142C397.385,512,512,397.385,512,256z"/>
<path style="fill:#FFFFFF;" d="M307.5,216.833c-28.443,0-51.5,23.057-51.5,51.5c0-28.443-23.057-51.5-51.5-51.5H62v89h194h194v-89
	L307.5,216.833L307.5,216.833z"/>
<path style="fill:#E0E0E0;" d="M256,305.833h194v-89H307.5c-28.443,0-51.5,23.057-51.5,51.5V305.833z"/>
<rect x="51" y="289" style="fill:#333333;" width="389" height="26"/>
<rect x="256" y="289" style="fill:#1A1A1A;" width="205" height="26"/>
<rect x="246" y="60" style="fill:#FFCF35;" width="20" height="52.33"/>
<g>
	<rect x="255.95" y="60" style="fill:#FFB344;" width="10.05" height="52.33"/>
	
		<rect x="366.095" y="109.737" transform="matrix(-0.7071 -0.7071 0.7071 -0.7071 545.937 497.9378)" style="fill:#FFB344;" width="20" height="52.33"/>
</g>
<rect x="109.742" y="125.9" transform="matrix(-0.7071 -0.7071 0.7071 -0.7071 135.9108 328.0969)" style="fill:#FFCF35;" width="52.33" height="20"/>
<g>
</g>
<g>
</g>
<g>
</g>
<g>
</g>
<g>
</g>
<g>
</g>
<g>
</g>
<g>
</g>
<g>
</g>
<g>
</g>
<g>
</g>
<g>
</g>
<g>
</g>
<g>
</g>
<g>
</g>
</svg>
