<?xml version="1.0" encoding="iso-8859-1"?>
<!-- Generator: Adobe Illustrator 19.0.0, SVG Export Plug-In . SVG Version: 6.00 Build 0)  -->
<svg version="1.1" id="Capa_1" xmlns="http://www.w3.org/2000/svg" xmlns:xlink="http://www.w3.org/1999/xlink" x="0px" y="0px"
	 viewBox="0 0 512 512" style="enable-background:new 0 0 512 512;" xml:space="preserve">
<circle style="fill:#662E57;" cx="256" cy="256" r="256"/>
<path style="fill:#590F38;" d="M512,256c0-18.935-2.074-37.384-5.975-55.148l-59.823-59.823l-5.291,12.42L425,137.538
	l-74.271,121.199L239.967,147.975L65.798,368.933l137.659,137.659C220.418,510.13,237.99,512,256,512
	C397.385,512,512,397.385,512,256z"/>
<path style="fill:#FF6838;" d="M306.364,141.029c-27.815,0-50.364,22.549-50.364,50.364c0-27.815-22.549-50.364-50.364-50.364
	H65.798v227.904h139.838c14.58,0,27.706,6.203,36.903,16.105H256h13.461c9.197-9.902,22.323-16.105,36.903-16.105h139.838V141.029
	H306.364z"/>
<path style="fill:#AE4E32;" d="M306.364,368.933h139.838V141.029H306.364c-27.815,0-50.364,22.549-50.364,50.364v22.79v170.855
	h13.461C278.658,375.136,291.784,368.933,306.364,368.933z"/>
<path style="fill:#FFFFFF;" d="M300.75,137.538c-24.715,0-44.75,20.035-44.75,44.75c0-24.715-20.035-44.75-44.75-44.75H87v202.5
	h124.25c14.685,0,27.718,7.074,35.877,18H256h8.873c8.159-10.926,21.192-18,35.877-18H425v-202.5H300.75z"/>
<path style="fill:#F2F2F2;" d="M300.75,340.038H425v-202.5H300.75c-24.715,0-44.75,20.035-44.75,44.75v20.25v155.5h8.873
	C273.032,347.112,286.065,340.038,300.75,340.038z"/>
<g>
	<polygon style="fill:#FFCF35;" points="131.508,201.101 142.417,223.205 166.811,226.75 149.16,243.956 153.327,268.251 
		131.508,256.781 109.69,268.251 113.857,243.956 96.205,226.75 120.599,223.205 	"/>
	<polygon style="fill:#FFCF35;" points="214.503,201.101 225.412,223.205 249.806,226.75 232.154,243.956 236.321,268.251 
		214.503,256.781 192.684,268.251 196.851,243.956 179.2,226.75 203.593,223.205 	"/>
</g>
<g>
	<polygon style="fill:#FFB344;" points="297.497,201.101 308.407,223.205 332.8,226.75 315.149,243.956 319.316,268.251 
		297.497,256.781 275.679,268.251 279.846,243.956 262.194,226.75 286.588,223.205 	"/>
	<polygon style="fill:#FFB344;" points="380.492,201.101 391.401,223.205 415.795,226.75 398.143,243.956 402.31,268.251 
		380.492,256.781 358.673,268.251 362.84,243.956 345.189,226.75 369.583,223.205 	"/>
</g>
<g>
</g>
<g>
</g>
<g>
</g>
<g>
</g>
<g>
</g>
<g>
</g>
<g>
</g>
<g>
</g>
<g>
</g>
<g>
</g>
<g>
</g>
<g>
</g>
<g>
</g>
<g>
</g>
<g>
</g>
</svg>
