<?xml version="1.0" encoding="iso-8859-1"?>
<!-- Generator: Adobe Illustrator 19.0.0, SVG Export Plug-In . SVG Version: 6.00 Build 0)  -->
<svg version="1.1" id="Capa_1" xmlns="http://www.w3.org/2000/svg" xmlns:xlink="http://www.w3.org/1999/xlink" x="0px" y="0px"
	 viewBox="0 0 512 512" style="enable-background:new 0 0 512 512;" xml:space="preserve">
<circle style="fill:#005C83;" cx="256" cy="256" r="256"/>
<path style="fill:#00263F;" d="M281.856,510.707C411.098,497.744,512,388.657,512,256c0-11.362-0.75-22.547-2.185-33.518
	L388.333,101L115.12,331.209l41.606,41.606l-7.224,5.537L281.856,510.707z"/>
<rect x="149.5" y="101" style="fill:#FF6838;" width="199.69" height="277.35"/>
<rect x="249.41" y="101" style="fill:#AE4E32;" width="99.78" height="277.35"/>
<rect x="336.14" y="101" style="fill:#893724;" width="52.19" height="277.35"/>
<rect x="176.47" y="140.41" style="fill:#FFECB3;" width="128.01" height="11.11"/>
<rect x="249.41" y="140.41" style="fill:#FFD863;" width="55.07" height="11.11"/>
<rect x="176.47" y="167.23" style="fill:#FFECB3;" width="128.01" height="11.11"/>
<g>
	<rect x="249.41" y="167.23" style="fill:#FFD863;" width="55.07" height="11.11"/>
	<path style="fill:#FFD863;" d="M239.138,198.033c0,68.028-39.817,146.955-88.934,146.955S61.27,266.061,61.27,198.033
		s39.817-37.571,88.934-37.571S239.138,130.004,239.138,198.033z"/>
</g>
<path style="fill:#FFCF35;" d="M150.203,160.461c-0.267,0-0.532-0.006-0.799-0.008v184.514c0.267,0.005,0.532,0.02,0.799,0.02
	c49.117,0,88.934-78.927,88.934-146.955S199.32,160.461,150.203,160.461z"/>
<path style="fill:#FF9451;" d="M112.05,210.19c6.411,0,12.186,2.71,16.249,7.045c2.167,2.313,6.005,0.891,6.032-2.279
	c0.006-0.697-0.021-1.401-0.081-2.112c-0.893-10.513-9.295-19.128-19.787-20.23c-13.387-1.406-24.694,9.054-24.694,22.154
	c0,0.096,0.001,0.192,0.002,0.288c0.04,3.121,3.896,4.457,6.031,2.179C99.864,212.9,105.639,210.19,112.05,210.19z"/>
<path style="fill:#F7674F;" d="M188.356,210.19c6.411,0,12.186,2.71,16.249,7.045c2.167,2.313,6.005,0.891,6.032-2.279
	c0.006-0.697-0.021-1.401-0.081-2.112c-0.893-10.513-9.295-19.128-19.787-20.23c-13.387-1.406-24.694,9.054-24.694,22.154
	c0,0.096,0.001,0.192,0.002,0.288c0.04,3.121,3.896,4.457,6.031,2.179C176.17,212.9,181.945,210.19,188.356,210.19z"/>
<path style="fill:#FF9451;" d="M150.203,272.969c-14.978,0-28.469-6.33-37.96-16.458c-5.064-5.403-14.029-2.081-14.091,5.324
	c-0.014,1.627,0.048,3.272,0.189,4.933c2.085,24.559,21.713,44.686,46.226,47.261c31.275,3.285,57.689-21.151,57.69-51.755
	c0-0.224-0.001-0.449-0.004-0.672c-0.093-7.291-9.102-10.411-14.089-5.091C178.672,266.638,165.181,272.969,150.203,272.969z"/>
<path style="fill:#F7674F;" d="M202.252,261.601c-0.093-7.292-9.102-10.411-14.088-5.091c-9.492,10.128-22.983,16.458-37.961,16.458
	c-0.268,0-0.531-0.017-0.798-0.021v41.354c29.112,0.434,52.852-23.017,52.852-52.029
	C202.257,262.049,202.255,261.825,202.252,261.601z"/>
<path style="fill:#FFECB3;" d="M338.934,293.694c0,68.028-39.817,146.955-88.934,146.955s-88.934-78.927-88.934-146.955
	s39.817-37.571,88.934-37.571S338.934,225.666,338.934,293.694z"/>
<path style="fill:#FFD863;" d="M250,256.123V440.65c49.117,0,88.934-78.927,88.934-146.955S299.117,256.123,250,256.123z"/>
<path style="fill:#F7674F;" d="M288.153,296.336c-6.411,0-12.186-2.71-16.249-7.045c-2.167-2.313-6.005-0.891-6.032,2.279
	c-0.006,0.697,0.021,1.401,0.081,2.112c0.893,10.513,9.295,19.128,19.787,20.23c13.387,1.406,24.694-9.054,24.694-22.154
	c0-0.096-0.001-0.192-0.002-0.288c-0.04-3.121-3.896-4.457-6.031-2.179C300.339,293.627,294.564,296.336,288.153,296.336z"/>
<g>
	<path style="fill:#FF9451;" d="M211.847,296.336c-6.411,0-12.186-2.71-16.249-7.045c-2.167-2.313-6.005-0.891-6.032,2.279
		c-0.006,0.696,0.021,1.401,0.081,2.112c0.893,10.513,9.295,19.128,19.787,20.23c13.387,1.406,24.694-9.054,24.694-22.154
		c0-0.096-0.001-0.192-0.002-0.288c-0.04-3.121-3.896-4.457-6.031-2.179C224.033,293.627,218.258,296.336,211.847,296.336z"/>
	<path style="fill:#FF9451;" d="M250.001,376.592c14.978,0,28.469,6.33,37.96,16.458c5.064,5.403,14.029,2.081,14.091-5.324
		c0.014-1.627-0.048-3.272-0.189-4.933c-2.085-24.559-21.713-44.686-46.226-47.261c-31.275-3.285-57.689,21.151-57.69,51.755
		c0,0.224,0.001,0.448,0.004,0.672c0.093,7.291,9.102,10.411,14.089,5.091C221.532,382.923,235.023,376.592,250.001,376.592z"/>
</g>
<path style="fill:#F7674F;" d="M301.863,382.793c-2.085-24.559-21.713-44.686-46.226-47.261c-1.899-0.199-3.779-0.292-5.637-0.292
	v41.352c0,0,0,0,0.001,0c14.978,0,28.469,6.33,37.96,16.458c5.063,5.403,14.029,2.081,14.091-5.324
	C302.066,386.099,302.004,384.454,301.863,382.793z"/>
<g>
</g>
<g>
</g>
<g>
</g>
<g>
</g>
<g>
</g>
<g>
</g>
<g>
</g>
<g>
</g>
<g>
</g>
<g>
</g>
<g>
</g>
<g>
</g>
<g>
</g>
<g>
</g>
<g>
</g>
</svg>
