<?xml version="1.0" encoding="iso-8859-1"?>
<!-- Generator: Adobe Illustrator 19.0.0, SVG Export Plug-In . SVG Version: 6.00 Build 0)  -->
<svg version="1.1" id="Capa_1" xmlns="http://www.w3.org/2000/svg" xmlns:xlink="http://www.w3.org/1999/xlink" x="0px" y="0px"
	 viewBox="0 0 512 512" style="enable-background:new 0 0 512 512;" xml:space="preserve">
<circle style="fill:#662E57;" cx="256" cy="256" r="256"/>
<path style="fill:#590F38;" d="M512,256c0-11.362-0.75-22.547-2.185-33.518L388.333,101L103.571,232.69l-2.769,86.672l29.716,29.716
	l-9.225,2.192l34.779,34.779l-25.106,13.401l112.23,112.23c4.242,0.21,8.51,0.32,12.804,0.32C397.385,512,512,397.385,512,256z"/>
<rect x="149.5" y="101" style="fill:#35CCFF;" width="199.69" height="277.35"/>
<rect x="248.81" y="101" style="fill:#008CC3;" width="100.38" height="277.35"/>
<polygon style="fill:#C0C0C0;" points="220.273,399.451 130.966,399.451 130.966,335.602 163.966,335.602 163.966,366.451 
	220.273,366.451 "/>
<polygon style="fill:#758F9B;" points="130.966,399.451 220.273,399.451 220.273,366.451 163.966,366.451 "/>
<rect x="336.14" y="101" style="fill:#0074A3;" width="52.19" height="277.35"/>
<rect x="176.47" y="140.41" style="fill:#FFECB3;" width="128.01" height="11.11"/>
<rect x="248.81" y="140.41" style="fill:#FFD863;" width="55.666" height="11.11"/>
<rect x="176.47" y="167.23" style="fill:#FFECB3;" width="128.01" height="11.11"/>
<rect x="248.81" y="167.23" style="fill:#FFD863;" width="55.666" height="11.11"/>
<path style="fill:#E0E0E0;" d="M217.404,267.315c0-38.564-31.374-69.938-69.938-69.938s-69.938,31.375-69.938,69.938
	c0,29.312,18.134,54.454,43.766,64.838v19.117h52.346v-19.117C199.271,321.769,217.404,296.627,217.404,267.315z M147.466,308.254
	c-22.573,0-40.938-18.365-40.938-40.938s18.365-40.938,40.938-40.938s40.938,18.365,40.938,40.938S170.039,308.254,147.466,308.254z
	"/>
<path style="fill:#C0C0C0;" d="M285.229,313.012c-29.312,0-54.453,18.134-64.837,43.766h-19.118v52.345h19.118
	c10.385,25.632,35.526,43.766,64.837,43.766c38.564,0,69.938-31.375,69.938-69.938S323.793,313.012,285.229,313.012z
	 M285.229,423.889c-22.573,0-40.938-18.365-40.938-40.938s18.364-40.938,40.938-40.938s40.938,18.365,40.938,40.938
	S307.802,423.889,285.229,423.889z"/>
<g>
</g>
<g>
</g>
<g>
</g>
<g>
</g>
<g>
</g>
<g>
</g>
<g>
</g>
<g>
</g>
<g>
</g>
<g>
</g>
<g>
</g>
<g>
</g>
<g>
</g>
<g>
</g>
<g>
</g>
</svg>
