<?xml version="1.0" encoding="iso-8859-1"?>
<!-- Generator: Adobe Illustrator 19.0.0, SVG Export Plug-In . SVG Version: 6.00 Build 0)  -->
<svg version="1.1" id="Capa_1" xmlns="http://www.w3.org/2000/svg" xmlns:xlink="http://www.w3.org/1999/xlink" x="0px" y="0px"
	 viewBox="0 0 512 512" style="enable-background:new 0 0 512 512;" xml:space="preserve">
<circle style="fill:#FFCF35;" cx="256" cy="256" r="256"/>
<path style="fill:#FFB344;" d="M512,256c0-9.758-0.565-19.382-1.628-28.856L377.256,94.028L134.235,417.385l92.997,92.997
	C236.678,511.438,246.273,512,256,512C397.385,512,512,397.385,512,256z"/>
<path style="fill:#333333;" d="M363.667,424H148.333C138.208,424,130,415.792,130,405.667V106.333C130,96.208,138.208,88,148.333,88
	h215.333C373.792,88,382,96.208,382,106.333v299.333C382,415.792,373.792,424,363.667,424z"/>
<path style="fill:#1A1A1A;" d="M363.667,88H255.952v336h107.714c10.125,0,18.333-8.208,18.333-18.333V106.333
	C382,96.208,373.792,88,363.667,88z"/>
<rect x="149.33" y="109" style="fill:#F2F2F2;" width="213.33" height="280.67"/>
<rect x="255.95" y="109" style="fill:#E0E0E0;" width="106.71" height="280.67"/>
<rect x="165.6" y="163.47" style="fill:#CCCCCC;" width="180.19" height="12.07"/>
<rect x="255.95" y="163.47" style="fill:#B3B3B3;" width="89.83" height="12.07"/>
<rect x="165.6" y="191.45" style="fill:#CCCCCC;" width="180.19" height="12.07"/>
<rect x="255.95" y="191.45" style="fill:#B3B3B3;" width="89.83" height="12.07"/>
<rect x="165.6" y="219.43" style="fill:#CCCCCC;" width="180.19" height="12.07"/>
<rect x="255.95" y="219.43" style="fill:#B3B3B3;" width="89.83" height="12.07"/>
<rect x="165.6" y="247.4" style="fill:#CCCCCC;" width="180.19" height="12.07"/>
<rect x="255.95" y="247.4" style="fill:#B3B3B3;" width="89.83" height="12.07"/>
<rect x="165.6" y="275.38" style="fill:#CCCCCC;" width="180.19" height="12.07"/>
<rect x="255.95" y="275.38" style="fill:#B3B3B3;" width="89.83" height="12.07"/>
<rect x="165.6" y="303.35" style="fill:#CCCCCC;" width="180.19" height="12.07"/>
<rect x="255.95" y="303.35" style="fill:#B3B3B3;" width="89.83" height="12.07"/>
<rect x="165.6" y="331.33" style="fill:#CCCCCC;" width="180.19" height="12.07"/>
<rect x="255.95" y="331.33" style="fill:#B3B3B3;" width="89.83" height="12.07"/>
<rect x="165.6" y="359.3" style="fill:#CCCCCC;" width="180.19" height="12.07"/>
<rect x="255.95" y="359.3" style="fill:#B3B3B3;" width="89.83" height="12.07"/>
<rect x="165.6" y="135.5" style="fill:#CCCCCC;" width="69.19" height="12.07"/>
<polygon style="fill:#F1333F;" points="329.5,246 295.75,219.27 262,246 262,109 329.5,109 "/>
<polygon style="fill:#AE283F;" points="329.5,109 295.833,109 295.75,219.27 329.5,246 "/>
<g>
</g>
<g>
</g>
<g>
</g>
<g>
</g>
<g>
</g>
<g>
</g>
<g>
</g>
<g>
</g>
<g>
</g>
<g>
</g>
<g>
</g>
<g>
</g>
<g>
</g>
<g>
</g>
<g>
</g>
</svg>
