<?xml version="1.0" encoding="iso-8859-1"?>
<!-- Generator: Adobe Illustrator 19.0.0, SVG Export Plug-In . SVG Version: 6.00 Build 0)  -->
<svg version="1.1" id="Capa_1" xmlns="http://www.w3.org/2000/svg" xmlns:xlink="http://www.w3.org/1999/xlink" x="0px" y="0px"
	 viewBox="0 0 512 512" style="enable-background:new 0 0 512 512;" xml:space="preserve">
<circle style="fill:#005C83;" cx="256" cy="256" r="256"/>
<path style="fill:#00263F;" d="M191.666,437.01l74.761,74.761C402.975,506.298,512,393.891,512,256
	c0-10.316-0.628-20.484-1.814-30.48L393.667,109L191.666,437.01z"/>
<rect x="153.78" y="109" style="fill:#FF6838;" width="194.47" height="270.74"/>
<rect x="240.48" y="109" style="fill:#A04630;" width="107.78" height="270.74"/>
<rect x="327.87" y="109" style="fill:#AE4E32;" width="65.793" height="270.74"/>
<rect x="327.87" y="211.47" style="fill:#FF9451;" width="65.793" height="65.793"/>
<rect x="178.24" y="155" style="fill:#FFCF35;" width="121.11" height="22.707"/>
<rect x="240.48" y="155" style="fill:#FFB344;" width="58.868" height="22.707"/>
<rect x="178.24" y="188.77" style="fill:#FFCF35;" width="121.11" height="22.707"/>
<rect x="240.48" y="188.77" style="fill:#FFB344;" width="58.868" height="22.708"/>
<polygon style="fill:#FFFFFF;" points="255.526,323.654 209.167,370.013 209.167,259.795 174.167,259.795 174.167,370.014 
	127.808,323.654 103.06,348.402 191.666,437.01 280.274,348.403 "/>
<polygon style="fill:#B9EAFF;" points="191.666,437.01 280.274,348.403 255.526,323.654 209.167,370.013 209.167,259.795 
	191.666,259.795 "/>
<g>
</g>
<g>
</g>
<g>
</g>
<g>
</g>
<g>
</g>
<g>
</g>
<g>
</g>
<g>
</g>
<g>
</g>
<g>
</g>
<g>
</g>
<g>
</g>
<g>
</g>
<g>
</g>
<g>
</g>
</svg>
