<?xml version="1.0" encoding="iso-8859-1"?>
<!-- Generator: Adobe Illustrator 19.0.0, SVG Export Plug-In . SVG Version: 6.00 Build 0)  -->
<svg version="1.1" id="Capa_1" xmlns="http://www.w3.org/2000/svg" xmlns:xlink="http://www.w3.org/1999/xlink" x="0px" y="0px"
	 viewBox="0 0 512 512" style="enable-background:new 0 0 512 512;" xml:space="preserve">
<circle style="fill:#FFCF35;" cx="256" cy="256" r="256"/>
<path style="fill:#FFB344;" d="M512,256c0-9.088-0.482-18.062-1.405-26.905L408.5,127l-6.333,8.06l-53.489-53.489L75,348
	l163.385,163.385C244.207,511.781,250.078,512,256,512C397.385,512,512,397.385,512,256z"/>
<rect x="103.5" y="127" style="fill:#333333;" width="305" height="199.5"/>
<rect x="255.95" y="127" style="fill:#1A1A1A;" width="152.55" height="199.5"/>
<rect x="123" y="143.09" style="fill:#B9EAFF;" width="266" height="167.32"/>
<rect x="255.95" y="143.09" style="fill:#35CCFF;" width="133.05" height="167.32"/>
<rect x="163.32" y="81.57" style="fill:#FF6838;" width="170.66" height="237.59"/>
<rect x="255.95" y="81.57" style="fill:#9B432F;" width="78.03" height="237.59"/>
<rect x="316.1" y="81.57" style="fill:#AE4E32;" width="32.581" height="237.59"/>
<rect x="316.1" y="171.5" style="fill:#FF9451;" width="32.581" height="57.738"/>
<rect x="184.78" y="121.94" style="fill:#FFCF35;" width="106.28" height="19.927"/>
<rect x="255.95" y="121.94" style="fill:#FFB344;" width="35.11" height="19.927"/>
<rect x="184.78" y="151.57" style="fill:#FFCF35;" width="106.28" height="19.927"/>
<rect x="255.95" y="151.57" style="fill:#FFB344;" width="35.11" height="19.927"/>
<rect x="75" y="296.5" style="fill:#1A1A1A;" width="362" height="51.5"/>
<rect x="255.95" y="296.5" width="181.05" height="51.5"/>
<g>
</g>
<g>
</g>
<g>
</g>
<g>
</g>
<g>
</g>
<g>
</g>
<g>
</g>
<g>
</g>
<g>
</g>
<g>
</g>
<g>
</g>
<g>
</g>
<g>
</g>
<g>
</g>
<g>
</g>
</svg>
