<?xml version="1.0" encoding="iso-8859-1"?>
<!-- Generator: Adobe Illustrator 19.0.0, SVG Export Plug-In . SVG Version: 6.00 Build 0)  -->
<svg version="1.1" id="Capa_1" xmlns="http://www.w3.org/2000/svg" xmlns:xlink="http://www.w3.org/1999/xlink" x="0px" y="0px"
	 viewBox="0 0 512 512" style="enable-background:new 0 0 512 512;" xml:space="preserve">
<circle style="fill:#662E57;" cx="256" cy="256" r="256"/>
<path style="fill:#590F38;" d="M512,256c0-14.006-1.142-27.744-3.307-41.14L375,81.167L109.851,384.732l126.527,126.527
	c6.476,0.49,13.02,0.741,19.622,0.741C397.385,512,512,397.385,512,256z"/>
<path style="fill:#FFFFFF;" d="M345.25,394.5H137V81.167h238V364.75C375,381.18,361.68,394.5,345.25,394.5z"/>
<g>
	<path style="fill:#E0E0E0;" d="M255.952,81.167V394.5h89.298c16.43,0,29.75-13.32,29.75-29.75V81.167H255.952z"/>
	<path style="fill:#E0E0E0;" d="M345,334.5c-16.569,0-30,13.431-30,30s13.431,30,30,30H132c-16.569,0-30-13.431-30-30
		s13.431-30,30-30H345z"/>
</g>
<path style="fill:#C0C0C0;" d="M315,364.5c0-16.569,13.431-30,30-30h-89.048v60H345C328.431,394.5,315,381.069,315,364.5z"/>
<polygon style="fill:#8CC63F;" points="319.86,204.193 273.5,250.552 273.5,140.333 238.5,140.333 238.5,250.552 192.141,204.193 
	167.393,228.941 256,317.549 344.608,228.942 "/>
<polygon style="fill:#39B54A;" points="344.608,228.942 319.86,204.193 273.5,250.552 273.5,140.333 255.952,140.333 
	255.952,317.501 256,317.549 "/>
<g>
</g>
<g>
</g>
<g>
</g>
<g>
</g>
<g>
</g>
<g>
</g>
<g>
</g>
<g>
</g>
<g>
</g>
<g>
</g>
<g>
</g>
<g>
</g>
<g>
</g>
<g>
</g>
<g>
</g>
</svg>
