<?xml version="1.0" encoding="iso-8859-1"?>
<!-- Generator: Adobe Illustrator 19.0.0, SVG Export Plug-In . SVG Version: 6.00 Build 0)  -->
<svg version="1.1" id="Layer_1" xmlns="http://www.w3.org/2000/svg" xmlns:xlink="http://www.w3.org/1999/xlink" x="0px" y="0px"
	 viewBox="0 0 297 297" style="enable-background:new 0 0 297 297;" xml:space="preserve">
<g>
	<g>
		<g>
			<g>
				<circle style="fill:#79302A;" cx="148.5" cy="148.5" r="148.5"/>
			</g>
		</g>
	</g>
	<path style="fill:#4F1A18;" d="M296.959,145.257l-52.34-52.317L55.508,208.983l87.921,87.921c1.684,0.057,3.373,0.096,5.071,0.096
		c82.014,0,148.5-66.486,148.5-148.5C297,147.416,296.982,146.335,296.959,145.257z"/>
	<path style="fill:#D95459;" d="M94.224,77.383c0-8.02,6.501-14.521,14.521-14.521s14.521,6.501,14.521,14.521v14.521H94.224V77.383
		z"/>
	<path style="fill:#FFFFFF;" d="M64.375,212.912h171.024c6.683,0,12.101-5.418,12.101-12.101V100.778
		c0-6.683-5.418-12.101-12.101-12.101H95.12c-23.663,0-42.846,19.183-42.846,42.846v69.288
		C52.274,207.494,57.692,212.912,64.375,212.912z"/>
	<path style="fill:#EDECEB;" d="M235.399,88.677H146.71v124.234h88.689c6.683,0,12.101-5.418,12.101-12.101V100.778
		C247.5,94.095,242.082,88.677,235.399,88.677z"/>
	<circle style="fill:#32373B;" cx="92.073" cy="212.912" r="22.588"/>
	<circle style="fill:#32373B;" cx="207.164" cy="212.912" r="22.588"/>
	<path style="fill:#A1A5A8;" d="M192.043,159.669h32.825c2.698,0,4.885-2.187,4.885-4.885V111.31c0-2.698-2.187-4.885-4.885-4.885
		h-32.825c-2.698,0-4.885,2.187-4.885,4.885v43.473C187.158,157.482,189.345,159.669,192.043,159.669z"/>
	<path style="fill:#BDC3C7;" d="M128.15,159.669h32.825c2.698,0,4.885-2.187,4.885-4.885V111.31c0-2.698-2.187-4.885-4.885-4.885
		H128.15c-2.698,0-4.885,2.187-4.885,4.885v43.473C123.266,157.482,125.453,159.669,128.15,159.669z"/>
	<path style="fill:#A1A5A8;" d="M160.975,106.425H146.71v53.243h14.265c2.698,0,4.885-2.187,4.885-4.885V111.31
		C165.86,108.612,163.673,106.425,160.975,106.425z"/>
	<path style="fill:#BDC3C7;" d="M105.518,154.784V111.31c0-2.698-2.187-4.885-4.885-4.885H60.404
		c-5.109,7.055-8.13,15.722-8.13,25.098v28.145h48.358C103.331,159.669,105.518,157.482,105.518,154.784z"/>
	<rect x="52.274" y="165.316" style="fill:#D95459;" width="195.226" height="17.748"/>
	<rect x="146.71" y="165.316" style="fill:#C63C22;" width="100.79" height="17.748"/>
</g>
<g>
</g>
<g>
</g>
<g>
</g>
<g>
</g>
<g>
</g>
<g>
</g>
<g>
</g>
<g>
</g>
<g>
</g>
<g>
</g>
<g>
</g>
<g>
</g>
<g>
</g>
<g>
</g>
<g>
</g>
</svg>
