<?xml version="1.0" encoding="iso-8859-1"?>
<!-- Generator: Adobe Illustrator 19.0.0, SVG Export Plug-In . SVG Version: 6.00 Build 0)  -->
<svg version="1.1" id="Layer_1" xmlns="http://www.w3.org/2000/svg" xmlns:xlink="http://www.w3.org/1999/xlink" x="0px" y="0px"
	 viewBox="0 0 297 297" style="enable-background:new 0 0 297 297;" xml:space="preserve">
<g>
	<g>
		<circle style="fill:#4F2B4F;" cx="148.5" cy="148.5" r="148.5"/>
	</g>
	<path style="fill:#341735;" d="M295.172,125.176l-61.674-61.674L63.163,233.159l62.013,62.013
		C132.775,296.37,140.564,297,148.5,297c82.014,0,148.5-66.486,148.5-148.5C297,140.564,296.37,132.775,295.172,125.176z"/>
	<path style="fill:#E09577;" d="M233.498,116.626L116.626,233.498c-14.67,14.67-38.454,14.67-53.124,0l0,0
		c-14.67-14.67-14.67-38.454,0-53.124L180.374,63.502c14.67-14.67,38.454-14.67,53.124,0l0,0
		C248.167,78.172,248.167,101.956,233.498,116.626z"/>
	<path style="fill:#C4775C;" d="M233.498,63.502L233.498,63.502c-14.67-14.67-38.454-14.67-53.124,0l-31.54,31.54V201.29
		l84.664-84.664C248.167,101.956,248.167,78.172,233.498,63.502z"/>
	<path style="fill:#EDB7AB;" d="M180.374,233.498L63.502,116.626c-14.67-14.67-14.67-38.454,0-53.124l0,0
		c14.67-14.67,38.454-14.67,53.124,0l116.872,116.872c14.67,14.67,14.67,38.454,0,53.124l0,0
		C218.828,248.167,195.044,248.167,180.374,233.498z"/>
	<path style="fill:#DBA39A;" d="M233.498,180.374L148.834,95.71v106.247l31.54,31.541c14.67,14.67,38.454,14.67,53.124,0l0,0
		C248.167,218.828,248.167,195.044,233.498,180.374z"/>
	
		<rect x="118.449" y="123.46" transform="matrix(0.7071 0.7071 -0.7071 0.7071 148.5016 -61.5098)" style="fill:#E09577;" width="60.101" height="50.085"/>
	<polygon style="fill:#C4775C;" points="187.457,152.042 148.834,113.418 148.834,184.249 152.042,187.457 	"/>
</g>
<g>
</g>
<g>
</g>
<g>
</g>
<g>
</g>
<g>
</g>
<g>
</g>
<g>
</g>
<g>
</g>
<g>
</g>
<g>
</g>
<g>
</g>
<g>
</g>
<g>
</g>
<g>
</g>
<g>
</g>
</svg>
