<?xml version="1.0" encoding="iso-8859-1"?>
<!-- Generator: Adobe Illustrator 19.0.0, SVG Export Plug-In . SVG Version: 6.00 Build 0)  -->
<svg version="1.1" id="Layer_1" xmlns="http://www.w3.org/2000/svg" xmlns:xlink="http://www.w3.org/1999/xlink" x="0px" y="0px"
	 viewBox="0 0 297 297" style="enable-background:new 0 0 297 297;" xml:space="preserve">
<g>
	<g>
		<g>
			<g>
				<circle style="fill:#345065;" cx="148.5" cy="148.5" r="148.5"/>
			</g>
		</g>
	</g>
	<path style="fill:#213947;" d="M295.972,131.029l-54.209-54.213c-1.759,2.63-2.504,6.338-4.263,8.684c-30,28-51,61-79,90
		c-26.206,25.302-57.313,39.989-89.628,53.653l67.337,67.337c4.054,0.332,8.151,0.51,12.291,0.51c82.014,0,148.5-66.486,148.5-148.5
		C297,142.588,296.644,136.761,295.972,131.029z"/>
	<path style="fill:#E3E5E4;" d="M235.625,222.75H128.75V74.25h106.875c4.763,0,8.625,3.861,8.625,8.625v131.25
		C244.25,218.889,240.389,222.75,235.625,222.75z"/>
	<path style="fill:#FFFFFF;" d="M235.625,74.25h-85.458v148.5h85.458c4.763,0,8.625-3.862,8.625-8.625V82.875
		C244.25,78.111,240.389,74.25,235.625,74.25z"/>
	<path style="fill:#D0D5D9;" d="M74,231h50c4.418,0,8-3.582,8-8V74c0-4.418-3.582-8-8-8H74c-4.418,0-8,3.582-8,8v149
		C66,227.418,69.582,231,74,231z"/>
	<path style="fill:#C0C0B8;" d="M173.25,207.75c-0.384,0-0.768-0.146-1.061-0.439c-0.586-0.586-0.586-1.535,0-2.121l57.75-57.75
		c0.586-0.586,1.535-0.586,2.121,0s0.586,1.535,0,2.121l-57.75,57.75C174.018,207.604,173.634,207.75,173.25,207.75z"/>
	<path style="fill:#C0C0B8;" d="M202.125,207.75c-0.384,0-0.768-0.146-1.061-0.439c-0.586-0.586-0.586-1.535,0-2.121l28.875-28.875
		c0.586-0.586,1.535-0.586,2.121,0s0.586,1.535,0,2.121l-28.875,28.875C202.893,207.604,202.509,207.75,202.125,207.75z"/>
	<path style="fill:#C0C0B8;" d="M231,207.75c-0.384,0-0.768-0.146-1.061-0.439l-41.25-41.25c-0.586-0.586-0.586-1.535,0-2.121
		s1.535-0.586,2.121,0l41.25,41.25c0.586,0.586,0.586,1.535,0,2.121C231.768,207.604,231.384,207.75,231,207.75z"/>
	<path style="fill:#C0C0B8;" d="M206.25,207.75c-0.384,0-0.768-0.146-1.061-0.439l-41.25-41.25c-0.586-0.586-0.586-1.535,0-2.121
		s1.535-0.586,2.121,0l41.25,41.25c0.586,0.586,0.586,1.535,0,2.121C207.018,207.604,206.634,207.75,206.25,207.75z"/>
	<path style="fill:#C0C0B8;" d="M231,183c-0.384,0-0.768-0.146-1.061-0.439l-33-33c-0.586-0.586-0.586-1.535,0-2.121
		s1.535-0.586,2.121,0l33,33c0.586,0.586,0.586,1.535,0,2.121C231.768,182.854,231.384,183,231,183z"/>
</g>
<g>
</g>
<g>
</g>
<g>
</g>
<g>
</g>
<g>
</g>
<g>
</g>
<g>
</g>
<g>
</g>
<g>
</g>
<g>
</g>
<g>
</g>
<g>
</g>
<g>
</g>
<g>
</g>
<g>
</g>
</svg>
