<?xml version="1.0" encoding="iso-8859-1"?>
<!-- Generator: Adobe Illustrator 19.0.0, SVG Export Plug-In . SVG Version: 6.00 Build 0)  -->
<svg version="1.1" id="Layer_1" xmlns="http://www.w3.org/2000/svg" xmlns:xlink="http://www.w3.org/1999/xlink" x="0px" y="0px"
	 viewBox="0 0 297 297" style="enable-background:new 0 0 297 297;" xml:space="preserve">
<g>
	<g>
		<circle style="fill:#503B2C;" cx="148.5" cy="148.5" r="148.5"/>
	</g>
	<path style="fill:#443124;" d="M209.811,79.68L87.188,209.141l89.763,85.125c61.505-11.936,109.455-61.821,118.499-124.309
		L209.811,79.68z"/>
	<path style="fill:#F86E51;" d="M90.023,81.483c-0.211,2.105-0.331,4.248-0.331,6.43v112.995c0,2.182,0.119,4.325,0.331,6.43
		c16.325,9.725,36.559,15.483,58.477,15.483s42.153-5.758,58.477-15.483c0.211-2.105,0.331-4.248,0.331-6.43V87.913
		c0-2.182-0.119-4.325-0.331-6.43C190.653,71.758,170.418,66,148.5,66S106.347,71.758,90.023,81.483z"/>
	<path style="fill:#CE4C36;" d="M206.977,81.483C190.653,71.758,170.418,66,148.5,66c-0.112,0-0.222,0.005-0.333,0.005v156.81
		c0.111,0,0.221,0.005,0.333,0.005c21.918,0,42.153-5.759,58.477-15.483c0.211-2.105,0.331-4.248,0.331-6.43V87.913
		C207.308,85.731,207.188,83.588,206.977,81.483z"/>
	<rect x="157.103" y="92.103" style="fill:#FFFFFF;" width="26.795" height="26.795"/>
	<path style="fill:#FFFFFF;" d="M209.962,81.183l-0.151-1.503l-1.299-0.773c-11.904-7.092-25.335-11.899-39.58-14.246
		c-0.696-10.679-9.581-19.16-20.432-19.16s-19.737,8.482-20.432,19.16c-14.244,2.347-27.676,7.154-39.581,14.246l-1.299,0.773
		l-0.151,1.505c-0.229,2.284-0.345,4.548-0.345,6.729v112.994c0,2.181,0.116,4.444,0.345,6.729l0.151,1.505l1.299,0.773
		c17.467,10.406,38.219,15.906,60.013,15.906c4.694,0,9.335-0.271,13.91-0.775v17.378c0,2.209,1.791,4,4,4s4-1.791,4-4v-18.526
		c3.938-0.699,7.81-1.587,11.603-2.661v21.187c0,2.209,1.791,4,4,4s4-1.791,4-4v-23.768c6.474-2.357,12.673-5.269,18.499-8.741
		l1.299-0.773l0.151-1.503c0.229-2.281,0.346-4.546,0.346-6.73V87.913C210.308,85.729,210.191,83.464,209.962,81.183z M148.5,53.5
		c6.065,0,11.111,4.349,12.239,10.088C156.707,63.198,152.622,63,148.5,63c-4.13,0-8.222,0.2-12.262,0.591
		C137.365,57.848,142.432,53.5,148.5,53.5z M204.308,200.907c0,1.505-0.062,3.054-0.182,4.622
		c-4.492,2.584-9.215,4.818-14.113,6.717v-9.028c0-2.209-1.791-4-4-4s-4,1.791-4,4v11.776c-3.785,1.135-7.656,2.079-11.603,2.817
		v-14.593c0-2.209-1.791-4-4-4s-4,1.791-4,4v15.794c-4.569,0.529-9.211,0.809-13.91,0.809c-20.167,0-39.363-4.937-55.626-14.29
		c-0.121-1.571-0.182-3.12-0.182-4.623V87.913c0-1.503,0.061-3.052,0.182-4.623C109.139,73.937,128.335,69,148.5,69
		c20.166,0,39.362,4.937,55.626,14.291c0.12,1.568,0.182,3.117,0.182,4.622L204.308,200.907L204.308,200.907z"/>
	<path style="fill:#FFFFFF;" d="M181.5,169h-66c-2.209,0-4-1.791-4-4s1.791-4,4-4h66c2.209,0,4,1.791,4,4S183.709,169,181.5,169z"/>
</g>
<g>
</g>
<g>
</g>
<g>
</g>
<g>
</g>
<g>
</g>
<g>
</g>
<g>
</g>
<g>
</g>
<g>
</g>
<g>
</g>
<g>
</g>
<g>
</g>
<g>
</g>
<g>
</g>
<g>
</g>
</svg>
