<?xml version="1.0" encoding="iso-8859-1"?>
<!-- Generator: Adobe Illustrator 19.0.0, SVG Export Plug-In . SVG Version: 6.00 Build 0)  -->
<svg version="1.1" id="Layer_1" xmlns="http://www.w3.org/2000/svg" xmlns:xlink="http://www.w3.org/1999/xlink" x="0px" y="0px"
	 viewBox="0 0 297 297" style="enable-background:new 0 0 297 297;" xml:space="preserve">
<g>
	<g>
		<g>
			<g>
				<circle style="fill:#345065;" cx="148.5" cy="148.5" r="148.5"/>
			</g>
		</g>
	</g>
	<path style="fill:#213947;" d="M296.904,143.405l-67.222-67.222L69.738,207.499l89.135,89.135
		C236.047,291.307,297,227.026,297,148.5C297,146.794,296.961,145.097,296.904,143.405z"/>
	<path style="fill:#D0D5D9;" d="M151.214,142.295c9.008,0.597,14.608,4.309,23.313,7.391c0.259-0.053,0.539-0.137,0.826-0.233
		l30.263-45.66c8.506,5.637,19.971,3.312,25.608-5.193s3.312-19.971-5.193-25.608c-8.506-5.637-19.971-3.312-25.608,5.193
		c5.637-8.506,3.312-19.971-5.193-25.608c-8.506-5.637-19.971-3.312-25.608,5.193c-5.637,8.506-3.312,19.971,5.193,25.608
		l-32.194,48.574C147.137,133.999,151.46,136.832,151.214,142.295z"/>
	<path style="fill:#D0D5D9;" d="M122.215,208.136l39.654-39.654c-0.301,0.037-0.592,0.064-0.856,0.064
		c-7.918-4.751-12.669-9.502-21.379-11.877c1.326-5.305-2.348-8.941-6.367-11.844l-37.182,37.182
		c-7.215-7.215-18.914-7.215-26.129,0s-7.215,18.914,0,26.129s18.914,7.215,26.129,0c-7.215,7.215-7.215,18.914,0,26.129
		s18.914,7.215,26.129,0C129.43,227.05,129.43,215.351,122.215,208.136z"/>
	<path style="fill:#BDC2C6;" d="M226.03,72.992c-8.505-5.637-19.971-3.312-25.608,5.193c5.637-8.506,3.312-19.971-5.193-25.608
		c-8.506-5.637-19.971-3.313-25.608,5.193s-3.312,19.971,5.193,25.608l-27.647,41.714v9.43c2.464,1.829,4.205,4.253,4.047,7.772
		c9.008,0.597,14.608,4.309,23.313,7.391c0.259-0.052,0.539-0.137,0.826-0.233l30.263-45.66c8.506,5.637,19.971,3.313,25.608-5.193
		C236.861,90.095,234.536,78.63,226.03,72.992z"/>
	<path style="fill:#BDC2C6;" d="M161.013,168.546c-5.324-3.194-9.219-6.385-13.846-8.858v23.495l14.701-14.701
		C161.568,168.519,161.277,168.546,161.013,168.546z"/>
</g>
<g>
</g>
<g>
</g>
<g>
</g>
<g>
</g>
<g>
</g>
<g>
</g>
<g>
</g>
<g>
</g>
<g>
</g>
<g>
</g>
<g>
</g>
<g>
</g>
<g>
</g>
<g>
</g>
<g>
</g>
</svg>
