<?xml version="1.0" encoding="iso-8859-1"?>
<!-- Generator: Adobe Illustrator 19.0.0, SVG Export Plug-In . SVG Version: 6.00 Build 0)  -->
<svg version="1.1" id="Layer_1" xmlns="http://www.w3.org/2000/svg" xmlns:xlink="http://www.w3.org/1999/xlink" x="0px" y="0px"
	 viewBox="0 0 297 297" style="enable-background:new 0 0 297 297;" xml:space="preserve">
<g>
	<g>
		<circle style="fill:#5E4534;" cx="148.5" cy="148.5" r="148.5"/>
	</g>
	<path style="fill:#443124;" d="M296.544,136.81L248.03,88.297c-16.177,4.996-34.572-0.493-51.53,1.203c-6,1-13,5-15,10
		c-5,10-5,22-12,30c-26,29-48,58-62,94c-0.742,3.709-5.562,5.014-8.381,7.907l64.82,64.797C238.698,288.481,297,225.301,297,148.5
		C297,144.566,296.844,140.668,296.544,136.81z"/>
	<path style="fill:#F7CA89;" d="M227.745,200.833H199.75v-18h27.995c4.881,0,9.005-3.275,9.005-7.152V104.82
		c0-3.877-4.124-7.152-9.005-7.152H199.75v-18h27.995c14.891,0,27.005,11.283,27.005,25.152v70.861
		C254.75,189.55,242.636,200.833,227.745,200.833z"/>
	<path style="fill:#F4AF30;" d="M118.417,239.25h60.166c15.28,0,27.667-12.387,27.667-27.667V57.75H90.75v153.833
		C90.75,226.863,103.137,239.25,118.417,239.25z"/>
	<path style="fill:#CC8B23;" d="M148.834,57.75v181.5h29.75c15.28,0,27.667-12.387,27.667-27.667V57.75H148.834z"/>
	<circle style="fill:#FFFFFF;" cx="148.5" cy="148.5" r="38.5"/>
	<path style="fill:#EDECEB;" d="M187,148.5c0-21.151-17.058-38.312-38.166-38.492v76.983C169.942,186.812,187,169.651,187,148.5z"/>
	<polygon style="fill:#F86E51;" points="170.667,141.111 155.889,141.111 155.889,126.333 141.111,126.333 141.111,141.111 
		126.333,141.111 126.333,155.889 141.111,155.889 141.111,170.667 155.889,170.667 155.889,155.889 170.667,155.889 	"/>
	<polygon style="fill:#DD5C47;" points="155.889,141.111 155.889,126.333 148.834,126.333 148.834,170.667 155.889,170.667 
		155.889,155.889 170.667,155.889 170.667,141.111 	"/>
</g>
<g>
</g>
<g>
</g>
<g>
</g>
<g>
</g>
<g>
</g>
<g>
</g>
<g>
</g>
<g>
</g>
<g>
</g>
<g>
</g>
<g>
</g>
<g>
</g>
<g>
</g>
<g>
</g>
<g>
</g>
</svg>
