<?xml version="1.0" encoding="iso-8859-1"?>
<!-- Generator: Adobe Illustrator 19.0.0, SVG Export Plug-In . SVG Version: 6.00 Build 0)  -->
<svg version="1.1" id="Layer_1" xmlns="http://www.w3.org/2000/svg" xmlns:xlink="http://www.w3.org/1999/xlink" x="0px" y="0px"
	 viewBox="0 0 297 297" style="enable-background:new 0 0 297 297;" xml:space="preserve">
<g>
	<g>
		<g>
			<g>
				<circle style="fill:#5E4534;" cx="148.5" cy="148.5" r="148.5"/>
			</g>
		</g>
	</g>
	<path style="fill:#443124;" d="M292.169,110.811l-62.242-62.556L92.38,252.089l44.119,44.427c3.959,0.317,7.96,0.484,12.001,0.484
		c82.014,0,148.5-66.486,148.5-148.5C297,135.477,295.318,122.847,292.169,110.811z"/>
	<path style="fill:#F0C082;" d="M114.768,225.997H92.67c-3.59,0-6.5-2.91-6.5-6.5v-74.764l-10.715-32.146
		c-0.222-0.663-0.334-1.357-0.334-2.056V53.764c0-3.59,2.91-6.5,6.5-6.5s6.5,2.91,6.5,6.5v55.714l10.715,32.146
		c0.222,0.663,0.334,1.357,0.334,2.056v69.318h9.098V143.68c0-0.698,0.112-1.393,0.334-2.056l10.715-32.146V53.764
		c0-3.59,2.91-6.5,6.5-6.5s6.5,2.91,6.5,6.5v56.769c0,0.698-0.112,1.393-0.334,2.056l-10.715,32.146v74.764
		C121.268,223.087,118.357,225.997,114.768,225.997z"/>
	<path style="fill:#FFFFFF;" d="M72.286,58.907h62.864c3.472,0,6.286-2.815,6.286-6.286l0,0c0-3.472-2.815-6.286-6.286-6.286H72.286
		c-3.472,0-6.286,2.815-6.286,6.286l0,0C66,56.093,68.815,58.907,72.286,58.907z"/>
	<path style="fill:#F0C082;" d="M103.719,254c-3.59,0-6.5-2.91-6.5-6.5v-25.146c0-3.59,2.91-6.5,6.5-6.5s6.5,2.91,6.5,6.5V247.5
		C110.219,251.09,107.309,254,103.719,254z"/>
	<path style="fill:#F0C082;" d="M110.454,254H96.983c-3.59,0-6.5-2.91-6.5-6.5s2.91-6.5,6.5-6.5h13.471c3.59,0,6.5,2.91,6.5,6.5
		S114.044,254,110.454,254z"/>
	<path style="fill:#F0C082;" d="M118.536,118.393H88.9c-3.59,0-6.5-2.91-6.5-6.5s2.91-6.5,6.5-6.5h29.636c3.59,0,6.5,2.91,6.5,6.5
		S122.126,118.393,118.536,118.393z"/>
	<path style="fill:#F0C082;" d="M205.022,225.997h-22.098c-3.59,0-6.5-2.91-6.5-6.5v-74.764l-10.715-32.146
		c-0.222-0.663-0.334-1.357-0.334-2.056V53.764c0-3.59,2.91-6.5,6.5-6.5s6.5,2.91,6.5,6.5v55.714l10.715,32.146
		c0.222,0.663,0.334,1.357,0.334,2.056v69.318h9.098V143.68c0-0.698,0.112-1.393,0.334-2.056l10.715-32.146V53.764
		c0-3.59,2.91-6.5,6.5-6.5s6.5,2.91,6.5,6.5v56.769c0,0.698-0.112,1.393-0.334,2.056l-10.715,32.146v74.764
		C211.522,223.087,208.612,225.997,205.022,225.997z"/>
	<path style="fill:#FFFFFF;" d="M162.541,58.907h62.864c3.472,0,6.286-2.815,6.286-6.286l0,0c0-3.472-2.815-6.286-6.286-6.286
		h-62.864c-3.472,0-6.286,2.815-6.286,6.286l0,0C156.255,56.093,159.07,58.907,162.541,58.907z"/>
	<path style="fill:#F0C082;" d="M193.974,254c-3.59,0-6.5-2.91-6.5-6.5v-25.146c0-3.59,2.91-6.5,6.5-6.5s6.5,2.91,6.5,6.5V247.5
		C200.474,251.09,197.563,254,193.974,254z"/>
	<path style="fill:#F0C082;" d="M200.709,254h-13.471c-3.59,0-6.5-2.91-6.5-6.5s2.91-6.5,6.5-6.5h13.471c3.59,0,6.5,2.91,6.5,6.5
		S204.299,254,200.709,254z"/>
	<path style="fill:#F0C082;" d="M208.792,118.393h-29.637c-3.59,0-6.5-2.91-6.5-6.5s2.91-6.5,6.5-6.5h29.637
		c3.59,0,6.5,2.91,6.5,6.5S212.382,118.393,208.792,118.393z"/>
</g>
<g>
</g>
<g>
</g>
<g>
</g>
<g>
</g>
<g>
</g>
<g>
</g>
<g>
</g>
<g>
</g>
<g>
</g>
<g>
</g>
<g>
</g>
<g>
</g>
<g>
</g>
<g>
</g>
<g>
</g>
</svg>
