<?xml version="1.0" encoding="iso-8859-1"?>
<!-- Generator: Adobe Illustrator 19.0.0, SVG Export Plug-In . SVG Version: 6.00 Build 0)  -->
<svg version="1.1" id="Layer_1" xmlns="http://www.w3.org/2000/svg" xmlns:xlink="http://www.w3.org/1999/xlink" x="0px" y="0px"
	 viewBox="0 0 297 297" style="enable-background:new 0 0 297 297;" xml:space="preserve">
<g>
	<g>
		<g>
			<g>
				<circle style="fill:#394C81;" cx="148.5" cy="148.5" r="148.5"/>
			</g>
		</g>
	</g>
	<path style="fill:#2A3C66;" d="M260.935,153.264c-41.679,3-82.557,1.804-123.435,9.236c-27,5-55,0-81,7
		c-6.804,1.856-15.399,2.678-21.328,6.467l120.837,120.845c66.14-3.294,120.879-49.861,136.504-111.969L260.935,153.264z"/>
	<path style="fill:#ECF0F1;" d="M47.5,181.5h202c9.113,0,16.5-7.387,16.5-16.5l0,0c0-9.113-7.387-16.5-16.5-16.5h-202
		c-9.113,0-16.5,7.387-16.5,16.5l0,0C31,174.113,38.387,181.5,47.5,181.5z"/>
	<path style="fill:#D0D5D9;" d="M249.5,148.5H147.167v33H249.5c9.113,0,16.5-7.387,16.5-16.5l0,0
		C266,155.887,258.613,148.5,249.5,148.5z"/>
	<circle style="fill:#82D9C8;" cx="148.5" cy="132" r="49.5"/>
	<path style="fill:#6DAFAC;" d="M148.5,82.5c-0.447,0-0.889,0.022-1.333,0.034v98.933c0.444,0.012,0.886,0.034,1.333,0.034
		c27.338,0,49.5-22.162,49.5-49.5S175.838,82.5,148.5,82.5z"/>
	<circle style="fill:#0EA6CB;" cx="148.5" cy="132" r="16.5"/>
	<path style="fill:#2192A5;" d="M148.5,115.5c-0.45,0-0.892,0.032-1.333,0.067v32.865c0.441,0.035,0.883,0.067,1.333,0.067
		c9.113,0,16.5-7.387,16.5-16.5S157.613,115.5,148.5,115.5z"/>
</g>
<g>
</g>
<g>
</g>
<g>
</g>
<g>
</g>
<g>
</g>
<g>
</g>
<g>
</g>
<g>
</g>
<g>
</g>
<g>
</g>
<g>
</g>
<g>
</g>
<g>
</g>
<g>
</g>
<g>
</g>
</svg>
