<?xml version="1.0" encoding="iso-8859-1"?>
<!-- Generator: Adobe Illustrator 19.0.0, SVG Export Plug-In . SVG Version: 6.00 Build 0)  -->
<svg version="1.1" id="Layer_1" xmlns="http://www.w3.org/2000/svg" xmlns:xlink="http://www.w3.org/1999/xlink" x="0px" y="0px"
	 viewBox="0 0 297 297" style="enable-background:new 0 0 297 297;" xml:space="preserve">
<g>
	<g>
		<circle style="fill:#D0D5D9;" cx="148.5" cy="148.5" r="148.5"/>
	</g>
	<path style="fill:#A1A5A8;" d="M161.622,21.927l-19.208,251.876l22.311,22.311c71.576-7.779,127.878-66.414,132.021-139.022
		L161.622,21.927z"/>
	<path style="fill:#C63C22;" d="M169.5,41.25c0-13.669-9.402-24.75-21-24.75s-21,11.081-21,24.75v70.083h42V41.25z"/>
	<path style="fill:#A02D27;" d="M169.5,41.25c0-13.669-9.402-24.75-21-24.75c-0.112,0-0.222,0.008-0.333,0.01v94.823H169.5V41.25z"
		/>
	<path style="fill:#D6F0EF;" d="M148.5,274.083c-6.841,0-15.5-23.716-15.5-38.25V110.917h31v124.916
		C164,250.367,155.341,274.083,148.5,274.083z"/>
	<path style="fill:#B8D3D1;" d="M148.167,110.917v163.131c0.111,0.012,0.223,0.035,0.333,0.035c6.841,0,15.5-23.716,15.5-38.25
		V110.917H148.167z"/>
	<path style="fill:#FFFFFF;" d="M161,113.917v121.917c0,6.111-1.894,15.271-4.712,22.794c-3.634,9.699-7.003,12.254-7.788,12.45
		c-0.785-0.197-4.154-2.751-7.788-12.45c-2.818-7.523-4.712-16.683-4.712-22.794V113.917H161 M167,107.917h-37v127.917
		c0,13.669,8.283,41.25,18.5,41.25s18.5-27.581,18.5-41.25V107.917L167,107.917z"/>
	<path style="fill:#79302A;" d="M123.75,115.5h49.5c4.556,0,8.25-3.694,8.25-8.25l0,0c0-4.556-3.694-8.25-8.25-8.25h-49.5
		c-4.556,0-8.25,3.694-8.25,8.25l0,0C115.5,111.806,119.194,115.5,123.75,115.5z"/>
	<path style="fill:#5E201D;" d="M173.25,99h-25.083v16.5h25.083c4.556,0,8.25-3.694,8.25-8.25S177.806,99,173.25,99z"/>
</g>
<g>
</g>
<g>
</g>
<g>
</g>
<g>
</g>
<g>
</g>
<g>
</g>
<g>
</g>
<g>
</g>
<g>
</g>
<g>
</g>
<g>
</g>
<g>
</g>
<g>
</g>
<g>
</g>
<g>
</g>
</svg>
