<?xml version="1.0" encoding="iso-8859-1"?>
<!-- Generator: Adobe Illustrator 19.0.0, SVG Export Plug-In . SVG Version: 6.00 Build 0)  -->
<svg version="1.1" id="Layer_1" xmlns="http://www.w3.org/2000/svg" xmlns:xlink="http://www.w3.org/1999/xlink" x="0px" y="0px"
	 viewBox="0 0 297 297" style="enable-background:new 0 0 297 297;" xml:space="preserve">
<g>
	<g>
		<circle style="fill:#345065;" cx="148.5" cy="148.5" r="148.5"/>
	</g>
	<path style="fill:#213947;" d="M151.97,34.376l-46.277,225.163l37.35,37.351c1.812,0.066,3.63,0.11,5.458,0.11
		c72.362,0,132.624-51.761,145.809-120.275L151.97,34.376z"/>
	<path style="fill:#FFFFFF;" d="M143.696,36.751L129.25,94.535h38.5l-14.446-57.784C152.054,31.75,144.946,31.75,143.696,36.751z"/>
	<path style="fill:#EDECEB;" d="M153.304,36.751c-0.658-2.634-2.94-3.866-5.137-3.726v61.51h19.583L153.304,36.751z"/>
	<rect x="119.625" y="90.75" style="fill:#F0D3A7;" width="57.75" height="38.5"/>
	<rect x="148.167" y="90.75" style="fill:#D8B88D;" width="29.208" height="38.5"/>
	<path style="fill:#E09577;" d="M117.041,264h62.917c9.205,0,16.667-7.462,16.667-16.667V126.666
		c0-9.205-7.462-16.666-16.667-16.666h-62.917c-9.205,0-16.666,7.462-16.666,16.666v120.667
		C100.375,256.538,107.837,264,117.041,264z"/>
	<path style="fill:#C4775C;" d="M179.958,110h-31.792v154h31.792c9.205,0,16.667-7.462,16.667-16.667V126.667
		C196.625,117.462,189.163,110,179.958,110z"/>
	<path style="fill:#FFFFFF;" d="M147.5,163.877c-19.028,0-35.378,10.413-42.539,25.311c7.161,14.898,23.511,25.311,42.539,25.311
		s35.378-10.413,42.539-25.311C182.878,174.29,166.528,163.877,147.5,163.877z"/>
	<path style="fill:#EDECEB;" d="M190.039,189.189c-7.077-14.724-23.13-25.059-41.872-25.3v50.6
		C166.909,214.248,182.962,203.912,190.039,189.189z"/>
	<circle style="fill:#9ADAD9;" cx="147.5" cy="189.189" r="21.487"/>
	<path style="fill:#80B7B4;" d="M168.987,189.189c0-11.642-9.264-21.097-20.82-21.453v42.906
		C159.722,210.286,168.987,200.83,168.987,189.189z"/>
	<circle style="fill:#5D7486;" cx="147.5" cy="189.189" r="9.984"/>
	<path style="fill:#345065;" d="M157.484,189.189c0-5.289-4.115-9.605-9.317-9.95v19.9
		C153.368,198.794,157.484,194.477,157.484,189.189z"/>
	<circle style="fill:#FFFFFF;" cx="143.919" cy="185.608" r="3.581"/>
</g>
<g>
</g>
<g>
</g>
<g>
</g>
<g>
</g>
<g>
</g>
<g>
</g>
<g>
</g>
<g>
</g>
<g>
</g>
<g>
</g>
<g>
</g>
<g>
</g>
<g>
</g>
<g>
</g>
<g>
</g>
</svg>
