<?xml version="1.0" encoding="iso-8859-1"?>
<!-- Generator: Adobe Illustrator 19.0.0, SVG Export Plug-In . SVG Version: 6.00 Build 0)  -->
<svg version="1.1" id="Layer_1" xmlns="http://www.w3.org/2000/svg" xmlns:xlink="http://www.w3.org/1999/xlink" x="0px" y="0px"
	 viewBox="0 0 297 297" style="enable-background:new 0 0 297 297;" xml:space="preserve">
<g>
	<g>
		<circle style="fill:#345065;" cx="148.5" cy="148.5" r="148.5"/>
	</g>
	<path style="fill:#213947;" d="M296.388,135.063l-47.847-47.476L52.087,213.404l82.978,82.985
		c4.426,0.397,8.906,0.611,13.435,0.611c82.014,0,148.5-66.486,148.5-148.5C297,143.97,296.786,139.49,296.388,135.063z"/>
	<path style="fill:#ECA684;" d="M163.166,105.5h-29.333C120.14,105.5,109,94.359,109,80.666V67.834C109,54.141,120.14,43,133.833,43
		h29.333C176.859,43,188,54.141,188,67.834v12.832C188,94.359,176.859,105.5,163.166,105.5z M133.833,56
		C127.309,56,122,61.309,122,67.834v12.832c0,6.525,5.309,11.834,11.833,11.834h29.333c6.525,0,11.834-5.309,11.834-11.834V67.834
		C175,61.309,169.691,56,163.166,56H133.833z"/>
	<path style="fill:#CC896E;" d="M163.166,43H147.5v13h15.666C169.691,56,175,61.309,175,67.834v12.832
		c0,6.525-5.309,11.834-11.834,11.834H147.5v13h15.666C176.859,105.5,188,94.359,188,80.666V67.834
		C188,54.141,176.859,43,163.166,43z"/>
	<path style="fill:#FFFFFF;" d="M75.666,222.75h145.667c19.008,0,34.417-15.409,34.417-34.417v-79.667
		c0-19.008-15.409-34.416-34.417-34.416H75.666c-19.008,0-34.416,15.409-34.416,34.416v79.667
		C41.25,207.341,56.659,222.75,75.666,222.75z"/>
	<path style="fill:#EDECEB;" d="M221.333,74.25H147.5v148.5h73.833c19.008,0,34.417-15.409,34.417-34.417v-79.667
		C255.75,89.659,240.341,74.25,221.333,74.25z"/>
	<path style="fill:#E3E5E4;" d="M255.75,108.667c0-19.008-15.409-34.417-34.417-34.417H75.667
		c-19.008,0-34.417,15.409-34.417,34.417V121h214.5V108.667z"/>
	<path style="fill:#BBBCBC;" d="M255.75,108.667c0-19.008-15.409-34.417-34.417-34.417H147.5V121h108.25V108.667z"/>
	<path style="fill:#F86E51;" d="M94.166,214.5h108.667c6.443,0,11.667-5.223,11.667-11.667v-59.167
		c0-6.443-5.223-11.667-11.667-11.667H94.166c-6.443,0-11.666,5.223-11.666,11.667v59.167C82.5,209.277,87.723,214.5,94.166,214.5z"
		/>
	<path style="fill:#DD5C47;" d="M202.833,132H147.5v82.5h55.333c6.443,0,11.667-5.223,11.667-11.667v-59.167
		C214.5,137.223,209.277,132,202.833,132z"/>
	<polygon style="fill:#FFFFFF;" points="167.5,166.917 154.833,166.917 154.833,154.25 142.167,154.25 142.167,166.917 
		129.5,166.917 129.5,179.583 142.167,179.583 142.167,192.25 154.833,192.25 154.833,179.583 167.5,179.583 	"/>
	<polygon style="fill:#EDECEB;" points="154.833,166.917 154.833,154.25 147.5,154.25 147.5,192.25 154.833,192.25 154.833,179.583 
		167.5,179.583 167.5,166.917 	"/>
</g>
<g>
</g>
<g>
</g>
<g>
</g>
<g>
</g>
<g>
</g>
<g>
</g>
<g>
</g>
<g>
</g>
<g>
</g>
<g>
</g>
<g>
</g>
<g>
</g>
<g>
</g>
<g>
</g>
<g>
</g>
</svg>
