<?xml version="1.0" encoding="iso-8859-1"?>
<!-- Generator: Adobe Illustrator 19.0.0, SVG Export Plug-In . SVG Version: 6.00 Build 0)  -->
<svg version="1.1" id="Layer_1" xmlns="http://www.w3.org/2000/svg" xmlns:xlink="http://www.w3.org/1999/xlink" x="0px" y="0px"
	 viewBox="0 0 297.001 297.001" style="enable-background:new 0 0 297.001 297.001;" xml:space="preserve">
<g>
	<g>
		<circle style="fill:#345F41;" cx="148.501" cy="148.5" r="148.5"/>
	</g>
	<path style="fill:#1F4429;" d="M190.809,51.936l-89.637,79.065l-8.068,111.635l54.21,54.35c0.396,0.003,0.79,0.015,1.187,0.015
		c78.884,0,143.391-61.511,148.201-139.184L190.809,51.936z"/>
	<path style="fill:#D6F0EF;" d="M181.501,105.884V54h-66v51.884c-29.133,12.733-49.5,41.789-49.5,75.616
		c0,45.563,36.937,82.5,82.5,82.5s82.5-36.937,82.5-82.5C231.001,147.673,210.634,118.617,181.501,105.884z"/>
	<path style="fill:#B8D1CF;" d="M181.501,105.884V54h-33.333v209.992c0.112,0,0.221,0.008,0.333,0.008
		c45.563,0,82.5-36.937,82.5-82.5C231.001,147.673,210.634,118.617,181.501,105.884z"/>
	<path style="fill:#BFF796;" d="M67.284,167c-0.835,4.708-1.283,9.551-1.283,14.5c0,45.563,36.937,82.5,82.5,82.5
		s82.5-36.937,82.5-82.5c0-4.949-0.448-9.792-1.283-14.5H67.284z"/>
	<path style="fill:#A4DB79;" d="M229.718,167h-81.55v96.992c0.112,0,0.221,0.008,0.333,0.008c45.563,0,82.5-36.937,82.5-82.5
		C231.001,176.551,230.553,171.708,229.718,167z"/>
	<path style="fill:#FFFFFF;" d="M111.501,63.5h74c3.866,0,7-3.134,7-7l0,0c0-3.866-3.134-7-7-7h-74c-3.866,0-7,3.134-7,7l0,0
		C104.501,60.366,107.635,63.5,111.501,63.5z"/>
	<path style="fill:#DDDDDD;" d="M185.501,49.5h-37.333v14h37.333c3.866,0,7-3.134,7-7S189.367,49.5,185.501,49.5z"/>
	<circle style="fill:#FFFFFF;" cx="107.251" cy="189.75" r="8.25"/>
	<circle style="fill:#FFFFFF;" cx="156.751" cy="206.25" r="8.25"/>
	<circle style="fill:#FFFFFF;" cx="140.251" cy="239.25" r="9.5"/>
	<circle style="fill:#FFFFFF;" cx="188.501" cy="207.5" r="9.5"/>
</g>
<g>
</g>
<g>
</g>
<g>
</g>
<g>
</g>
<g>
</g>
<g>
</g>
<g>
</g>
<g>
</g>
<g>
</g>
<g>
</g>
<g>
</g>
<g>
</g>
<g>
</g>
<g>
</g>
<g>
</g>
</svg>
