<?xml version="1.0" encoding="iso-8859-1"?>
<!-- Generator: Adobe Illustrator 19.0.0, SVG Export Plug-In . SVG Version: 6.00 Build 0)  -->
<svg version="1.1" id="Layer_1" xmlns="http://www.w3.org/2000/svg" xmlns:xlink="http://www.w3.org/1999/xlink" x="0px" y="0px"
	 viewBox="0 0 297 297" style="enable-background:new 0 0 297 297;" xml:space="preserve">
<g>
	<g>
		<g>
			<g>
				<circle style="fill:#5E4534;" cx="148.5" cy="148.5" r="148.5"/>
			</g>
		</g>
	</g>
	<path style="fill:#443124;" d="M293.645,117.02l-64.687-64.704c-6.19,4.657-13.644,7.319-17.458,14.184c-7,11-5,26-15,35
		c-27,24-48,49-71,75c-16.93,18.341-35.737,35.306-55.182,50.372l69.901,69.894c2.742,0.151,5.502,0.234,8.281,0.234
		c82.014,0,148.5-66.486,148.5-148.5C297,137.697,295.836,127.167,293.645,117.02z"/>
	<rect x="82.5" y="60.75" style="fill:#B85627;" width="16.5" height="27"/>
	<rect x="198" y="60.75" style="fill:#B85627;" width="16.5" height="27"/>
	<path style="fill:#AE9676;" d="M80.417,231h136.166c7.962,0,14.417-6.455,14.417-14.417V96.917c0-7.962-6.455-14.417-14.417-14.417
		H80.417C72.455,82.5,66,88.955,66,96.917v119.666C66,224.545,72.455,231,80.417,231z"/>
	<path style="fill:#937D61;" d="M216.583,82.5h-68.416V231h68.416c7.962,0,14.417-6.455,14.417-14.417V96.917
		C231,88.955,224.545,82.5,216.583,82.5z"/>
	<path style="fill:#AE9676;" d="M74.25,66h148.5c4.556,0,8.25-3.694,8.25-8.25l0,0c0-4.556-3.694-8.25-8.25-8.25H74.25
		c-4.556,0-8.25,3.694-8.25,8.25l0,0C66,62.306,69.694,66,74.25,66z"/>
	<path style="fill:#937D61;" d="M222.75,49.5h-74.583V66h74.583c4.556,0,8.25-3.694,8.25-8.25S227.306,49.5,222.75,49.5z"/>
	<circle style="fill:#E3E5E4;" cx="148.5" cy="156.75" r="49.5"/>
	<path style="fill:#D0D5D9;" d="M148.5,107.25c-0.112,0-0.221,0.008-0.333,0.008v98.983c0.112,0,0.221,0.008,0.333,0.008
		c27.338,0,49.5-22.162,49.5-49.5S175.838,107.25,148.5,107.25z"/>
	<polygon style="fill:#C0392B;" points="170.667,149.361 155.889,149.361 155.889,134.583 141.111,134.583 141.111,149.361 
		126.333,149.361 126.333,164.139 141.111,164.139 141.111,178.917 155.889,178.917 155.889,164.139 170.667,164.139 	"/>
	<polygon style="fill:#C63C22;" points="155.889,149.361 155.889,134.583 148.167,134.583 148.167,178.917 155.889,178.917 
		155.889,164.139 170.667,164.139 170.667,149.361 	"/>
</g>
<g>
</g>
<g>
</g>
<g>
</g>
<g>
</g>
<g>
</g>
<g>
</g>
<g>
</g>
<g>
</g>
<g>
</g>
<g>
</g>
<g>
</g>
<g>
</g>
<g>
</g>
<g>
</g>
<g>
</g>
</svg>
