<?xml version="1.0" encoding="iso-8859-1"?>
<!-- Generator: Adobe Illustrator 19.0.0, SVG Export Plug-In . SVG Version: 6.00 Build 0)  -->
<svg version="1.1" id="Layer_1" xmlns="http://www.w3.org/2000/svg" xmlns:xlink="http://www.w3.org/1999/xlink" x="0px" y="0px"
	 viewBox="0 0 297 297" style="enable-background:new 0 0 297 297;" xml:space="preserve">
<g>
	<g>
		<g>
			<g>
				<circle style="fill:#D5C295;" cx="148.5" cy="148.5" r="148.5"/>
			</g>
		</g>
	</g>
	<path style="fill:#AF9B74;" d="M293.697,117.256L261.4,84.74c-8.099,25.277-4.447,49.675-11.9,75.76c-3,10-14,11-22,12
		c-60,7-124-9-179,19c-3.477,12.75-8.429,24.723-12.666,37.473l57.424,57.403C110.335,293.225,128.976,297,148.5,297
		c82.014,0,148.5-66.486,148.5-148.5C297,137.781,295.854,127.331,293.697,117.256z"/>
	<rect x="43.5" y="150.75" style="fill:#FFFFFF;" width="210" height="45"/>
	<rect x="145.23" y="150.75" style="fill:#EDECEB;" width="108.27" height="45"/>
	<path style="fill:#F86E51;" d="M222.834,231h-82.667c-4.51,0-8.167-3.656-8.167-8.167v-82.667c0-4.51,3.656-8.167,8.167-8.167
		h82.667c4.51,0,8.166,3.656,8.166,8.167v82.667C231,227.344,227.344,231,222.834,231z"/>
	<path style="fill:#CC503B;" d="M222.833,132H145.23v99h77.603c4.51,0,8.167-3.656,8.167-8.167v-82.667
		C231,135.656,227.344,132,222.833,132z"/>
	<path style="fill:#905835;" d="M41.25,231L41.25,231c4.556,0,8.25-3.694,8.25-8.25v-132c0-4.556-3.694-8.25-8.25-8.25l0,0
		c-4.556,0-8.25,3.694-8.25,8.25v132C33,227.306,36.694,231,41.25,231z"/>
	<path style="fill:#905835;" d="M255.75,231L255.75,231c4.556,0,8.25-3.694,8.25-8.25v-132c0-4.556-3.694-8.25-8.25-8.25l0,0
		c-4.556,0-8.25,3.694-8.25,8.25v132C247.5,227.306,251.194,231,255.75,231z"/>
	<polygon style="fill:#F86E51;" points="170.667,69.444 155.889,69.444 155.889,54.667 141.111,54.667 141.111,69.444 
		126.333,69.444 126.333,84.222 141.111,84.222 141.111,99 155.889,99 155.889,84.222 170.667,84.222 	"/>
	<polygon style="fill:#CC503B;" points="155.889,69.444 155.889,54.667 145.23,54.667 145.23,99 155.889,99 155.889,84.222 
		170.667,84.222 170.667,69.444 	"/>
</g>
<g>
</g>
<g>
</g>
<g>
</g>
<g>
</g>
<g>
</g>
<g>
</g>
<g>
</g>
<g>
</g>
<g>
</g>
<g>
</g>
<g>
</g>
<g>
</g>
<g>
</g>
<g>
</g>
<g>
</g>
</svg>
