<?xml version="1.0" encoding="iso-8859-1"?>
<!-- Generator: Adobe Illustrator 19.0.0, SVG Export Plug-In . SVG Version: 6.00 Build 0)  -->
<svg version="1.1" id="Layer_1" xmlns="http://www.w3.org/2000/svg" xmlns:xlink="http://www.w3.org/1999/xlink" x="0px" y="0px"
	 viewBox="0 0 297 297" style="enable-background:new 0 0 297 297;" xml:space="preserve">
<g>
	<g>
		<g>
			<g>
				<circle style="fill:#5E4534;" cx="148.5" cy="148.5" r="148.5"/>
			</g>
		</g>
	</g>
	<path style="fill:#443124;" d="M243.52,103.644L53.759,210.191l86.59,86.584c2.699,0.146,5.415,0.225,8.15,0.225
		c79.2,0,143.911-62.003,148.26-140.116L243.52,103.644z"/>
	<path style="fill:#FFFFFF;" d="M232.874,214.5H64.126c-8.078,0-14.626-6.548-14.626-14.626v-86.248
		C49.5,105.548,56.048,99,64.126,99h168.748c8.078,0,14.626,6.548,14.626,14.626v86.248C247.5,207.952,240.952,214.5,232.874,214.5z
		"/>
	<path style="fill:#EDECEB;" d="M232.874,99h-85.707v115.5h85.707c8.078,0,14.626-6.548,14.626-14.626v-86.248
		C247.5,105.548,240.952,99,232.874,99z"/>
	<path style="fill:#C0C0B8;" d="M106.834,189.75H74.666c-4.786,0-8.666-3.88-8.666-8.667v-48.667c0-4.786,3.88-8.667,8.666-8.667
		h32.167c4.786,0,8.666,3.88,8.666,8.667v48.667C115.5,185.87,111.62,189.75,106.834,189.75z"/>
	<polygon style="fill:#F86E51;" points="220.167,130.278 205.389,130.278 205.389,115.5 190.611,115.5 190.611,130.278 
		175.833,130.278 175.833,145.056 190.611,145.056 190.611,159.833 205.389,159.833 205.389,145.056 220.167,145.056 	"/>
	<path style="fill:#32373B;" d="M231,180.333h-66c-2.209,0-4-1.791-4-4s1.791-4,4-4h66c2.209,0,4,1.791,4,4
		S233.209,180.333,231,180.333z"/>
	<path style="fill:#32373B;" d="M231,196.833h-66c-2.209,0-4-1.791-4-4s1.791-4,4-4h66c2.209,0,4,1.791,4,4
		S233.209,196.833,231,196.833z"/>
	<path style="fill:#C0C0B8;" d="M174.746,79.123h-13.123c0-7.248-5.875-13.123-13.123-13.123s-13.123,5.875-13.123,13.123h-13.123
		c-4.283,0-7.754,3.472-7.754,7.754v15.803c0,4.283,3.472,7.754,7.754,7.754h52.491c4.283,0,7.754-3.472,7.754-7.754V86.877
		C182.5,82.595,179.028,79.123,174.746,79.123z"/>
	<path style="fill:#9B9A8E;" d="M174.746,79.123h-13.123c0-7.248-5.875-13.123-13.123-13.123c-0.45,0-0.895,0.023-1.333,0.067
		v44.367h27.579c4.283,0,7.754-3.472,7.754-7.754V86.877C182.5,82.594,179.028,79.123,174.746,79.123z"/>
</g>
<g>
</g>
<g>
</g>
<g>
</g>
<g>
</g>
<g>
</g>
<g>
</g>
<g>
</g>
<g>
</g>
<g>
</g>
<g>
</g>
<g>
</g>
<g>
</g>
<g>
</g>
<g>
</g>
<g>
</g>
</svg>
