<?xml version="1.0" encoding="iso-8859-1"?>
<!-- Generator: Adobe Illustrator 19.0.0, SVG Export Plug-In . SVG Version: 6.00 Build 0)  -->
<svg version="1.1" id="Layer_1" xmlns="http://www.w3.org/2000/svg" xmlns:xlink="http://www.w3.org/1999/xlink" x="0px" y="0px"
	 viewBox="0 0 297 297" style="enable-background:new 0 0 297 297;" xml:space="preserve">
<g>
	<g>
		<g>
			<g>
				<circle style="fill:#C0392B;" cx="148.5" cy="148.5" r="148.5"/>
			</g>
		</g>
	</g>
	<path style="fill:#A02D27;" d="M295.599,128.099l-55.283-55.283L52.327,232.835l59.612,59.625
		c11.697,2.961,23.944,4.54,36.561,4.54c82.014,0,148.5-66.486,148.5-148.5C297,141.578,296.515,134.769,295.599,128.099z"/>
	<path style="fill:#32373B;" d="M73.084,198h150.833c13.025,0,23.583-10.559,23.583-23.583V89.584
		C247.5,76.559,236.941,66,223.917,66H73.084C60.059,66,49.5,76.559,49.5,89.584v84.833C49.5,187.441,60.059,198,73.084,198z"/>
	<path style="fill:#292D30;" d="M223.917,66h-75.75v132h75.75c13.025,0,23.583-10.559,23.583-23.583V89.583
		C247.5,76.559,236.941,66,223.917,66z"/>
	<path style="fill:#32373B;" d="M60.648,236.564h175.704c6.157,0,11.148-4.991,11.148-11.148v-7.832
		c0-6.157-4.991-11.148-11.148-11.148H60.648c-6.157,0-11.148,4.991-11.148,11.148v7.832
		C49.5,231.573,54.491,236.564,60.648,236.564z"/>
	<path style="fill:#292D30;" d="M236.352,206.436h-88.185v30.127h88.185c6.157,0,11.148-4.991,11.148-11.148v-7.832
		C247.5,211.427,242.509,206.436,236.352,206.436z"/>
	<path style="fill:#E3E5E4;" d="M217.083,181.5H79.916C72.231,181.5,66,175.269,66,167.583V96.416
		C66,88.731,72.231,82.5,79.916,82.5h137.167c7.686,0,13.917,6.231,13.917,13.916v71.167C231,175.269,224.769,181.5,217.083,181.5z"
		/>
	<path style="fill:#D0D5D9;" d="M217.083,82.5h-68.917v99h68.917c7.686,0,13.917-6.231,13.917-13.917V96.417
		C231,88.73,224.769,82.5,217.083,82.5z"/>
	<path style="fill:#D95459;" d="M111.172,119.391c0-10.308,8.356-18.664,18.664-18.664s18.664,8.356,18.664,18.664
		c0-10.308,8.356-18.664,18.664-18.664s18.664,8.356,18.664,18.664c0,19.481-37.328,43.549-37.328,43.549
		S111.172,138.872,111.172,119.391z"/>
	<path style="fill:#C63C22;" d="M167.164,100.727c-10.308,0-18.664,8.356-18.664,18.664c0-1.183-0.123-2.336-0.333-3.458v46.79
		c0.205,0.135,0.333,0.218,0.333,0.218s37.328-24.068,37.328-43.549C185.828,109.083,177.472,100.727,167.164,100.727z"/>
</g>
<g>
</g>
<g>
</g>
<g>
</g>
<g>
</g>
<g>
</g>
<g>
</g>
<g>
</g>
<g>
</g>
<g>
</g>
<g>
</g>
<g>
</g>
<g>
</g>
<g>
</g>
<g>
</g>
<g>
</g>
</svg>
