<?xml version="1.0" encoding="iso-8859-1"?>
<!-- Generator: Adobe Illustrator 19.0.0, SVG Export Plug-In . SVG Version: 6.00 Build 0)  -->
<svg version="1.1" id="Layer_1" xmlns="http://www.w3.org/2000/svg" xmlns:xlink="http://www.w3.org/1999/xlink" x="0px" y="0px"
	 viewBox="0 0 297 297" style="enable-background:new 0 0 297 297;" xml:space="preserve">
<g>
	<g>
		<circle style="fill:#345065;" cx="148.5" cy="148.5" r="148.5"/>
	</g>
	<path style="fill:#213947;" d="M296.497,136.29L217.5,57.293L106.403,228.239l66.72,66.717C243.417,283.224,297,222.125,297,148.5
		C297,144.388,296.825,140.318,296.497,136.29z"/>
	<path style="fill:#9ADAD9;" d="M173.013,235.707h-49.027c-12.287,0-22.663-9.124-24.234-21.31L79.5,57.293h138l-20.253,157.104
		C195.676,226.583,185.3,235.707,173.013,235.707z"/>
	<path style="fill:#80B7B4;" d="M148.167,57.293v178.414h24.846c12.287,0,22.663-9.124,24.234-21.31L217.5,57.293H148.167z"/>
	<polygon style="fill:#FFFFFF;" points="217.5,57.293 79.5,57.293 86.875,114.5 210.125,114.5 	"/>
	<polygon style="fill:#EDECEB;" points="217.5,57.293 148.167,57.293 148.167,114.5 210.125,114.5 	"/>
	<circle style="fill:#FFFFFF;" cx="153.333" cy="184.75" r="25.633"/>
	<circle style="fill:#D5F5E6;" cx="123.868" cy="156.868" r="8.132"/>
	<circle style="fill:#D5F5E6;" cx="173.368" cy="142.5" r="7.5"/>
	<circle style="fill:#D5F5E6;" cx="140.368" cy="123.868" r="4.5"/>
	<circle style="fill:#D5F5E6;" cx="151.5" cy="144" r="4.5"/>
	<path style="fill:#D0D5D9;" d="M168.182,205.641c1.148-0.818,2.246-1.736,3.276-2.765s1.948-2.128,2.766-3.276l-35.739-35.739
		c-1.148,0.818-2.246,1.736-3.276,2.765s-1.948,2.128-2.766,3.276L168.182,205.641z"/>
</g>
<g>
</g>
<g>
</g>
<g>
</g>
<g>
</g>
<g>
</g>
<g>
</g>
<g>
</g>
<g>
</g>
<g>
</g>
<g>
</g>
<g>
</g>
<g>
</g>
<g>
</g>
<g>
</g>
<g>
</g>
</svg>
