<?xml version="1.0" encoding="iso-8859-1"?>
<!-- Generator: Adobe Illustrator 19.0.0, SVG Export Plug-In . SVG Version: 6.00 Build 0)  -->
<svg version="1.1" id="Layer_1" xmlns="http://www.w3.org/2000/svg" xmlns:xlink="http://www.w3.org/1999/xlink" x="0px" y="0px"
	 viewBox="0 0 297 297" style="enable-background:new 0 0 297 297;" xml:space="preserve">
<g>
	<g>
		<g>
			<g>
				<circle style="fill:#BCA488;" cx="148.5" cy="148.5" r="148.5"/>
			</g>
		</g>
	</g>
	<path style="fill:#917559;" d="M175.65,35.089L90.524,257.918l37.698,37.698C134.853,296.521,141.62,297,148.5,297
		c79.418,0,144.274-62.344,148.301-140.76L175.65,35.089z"/>
	<path style="fill:#5E4534;" d="M195.572,97.188l-29.21-38.946h-35.725l-29.21,38.946C89.254,113.42,82.55,133.533,82.55,153.821
		v85.012c0,14.816,12.055,26.871,26.871,26.871h78.158c14.816,0,26.871-12.055,26.871-26.871v-85.012
		C214.45,133.533,207.746,113.42,195.572,97.188z"/>
	<path style="fill:#443124;" d="M195.572,97.188l-29.21-38.946h-19.195v207.462h40.412c14.816,0,26.871-12.055,26.871-26.871
		v-85.012C214.45,133.533,207.746,113.42,195.572,97.188z"/>
	<path style="fill:#FFFFFF;" d="M125.962,63.742h45.075c4.246,0,7.687-3.442,7.687-7.687v-14.85c0-4.246-3.442-7.687-7.687-7.687
		h-45.075c-4.246,0-7.687,3.442-7.687,7.687v14.85C118.275,60.3,121.717,63.742,125.962,63.742z"/>
	<path style="fill:#EDECEB;" d="M171.038,33.517h-23.871v30.225h23.871c4.246,0,7.687-3.442,7.687-7.687v-14.85
		C178.725,36.959,175.283,33.517,171.038,33.517z"/>
	<rect x="82.5" y="148.5" style="fill:#F86E51;" width="132" height="82.5"/>
	<rect x="147.167" y="148.5" style="fill:#CE4C36;" width="67.333" height="82.5"/>
	<polygon style="fill:#FFFFFF;" points="170.667,184.944 155.889,184.944 155.889,170.167 141.111,170.167 141.111,184.944 
		126.333,184.944 126.333,199.722 141.111,199.722 141.111,214.5 155.889,214.5 155.889,199.722 170.667,199.722 	"/>
	<polygon style="fill:#EDECEB;" points="155.889,184.944 155.889,170.167 147.167,170.167 147.167,214.5 155.889,214.5 
		155.889,199.722 170.667,199.722 170.667,184.944 	"/>
</g>
<g>
</g>
<g>
</g>
<g>
</g>
<g>
</g>
<g>
</g>
<g>
</g>
<g>
</g>
<g>
</g>
<g>
</g>
<g>
</g>
<g>
</g>
<g>
</g>
<g>
</g>
<g>
</g>
<g>
</g>
</svg>
