<?xml version="1.0" encoding="iso-8859-1"?>
<!-- Generator: Adobe Illustrator 19.0.0, SVG Export Plug-In . SVG Version: 6.00 Build 0)  -->
<svg version="1.1" id="Layer_1" xmlns="http://www.w3.org/2000/svg" xmlns:xlink="http://www.w3.org/1999/xlink" x="0px" y="0px"
	 viewBox="0 0 297 297" style="enable-background:new 0 0 297 297;" xml:space="preserve">
<g>
	<g>
		<g>
			<g>
				<circle style="fill:#345065;" cx="148.5" cy="148.5" r="148.5"/>
			</g>
		</g>
	</g>
	<path style="fill:#213947;" d="M219.922,105.235c-2.343,38.722-2.061,79.408-26.422,111.265c-36,8-73,14-110,17
		c-1.403,0.281,1.489,4.859-0.006,5.115l58.224,58.224c2.249,0.101,4.508,0.161,6.782,0.161c71.513,0,131.212-50.552,145.33-117.869
		L219.922,105.235z"/>
	<rect x="121.375" y="137.433" style="fill:#FFFFFF;" width="32.167" height="16.083"/>
	<rect x="147.167" y="137.433" style="fill:#FFFFFF;" width="6.375" height="16.083"/>
	<path style="fill:#ECF0F1;" d="M161.583,80.167c-2.245,0-4.462,0.116-6.66,0.297v32.339c2.178-0.301,4.399-0.469,6.66-0.469
		c26.648,0,48.25,21.602,48.25,48.25s-21.602,48.25-48.25,48.25c-15.429,0-29.155-7.25-37.988-18.52H86.866
		C98.692,220.004,127.676,241,161.583,241C205.996,241,242,204.996,242,160.583S205.996,80.167,161.583,80.167z"/>
	<path style="fill:#EDECEB;" d="M161.583,80.167c-2.245,0-4.462,0.116-6.66,0.297v32.339c2.178-0.301,4.399-0.469,6.66-0.469
		c26.648,0,48.25,21.602,48.25,48.25s-21.602,48.25-48.25,48.25c-5.025,0-9.863-0.781-14.416-2.207v33.071
		c4.678,0.848,9.493,1.303,14.416,1.303C205.996,241,242,204.996,242,160.583S205.996,80.167,161.583,80.167z"/>
	<path style="fill:#BDC3C7;" d="M121.456,144.5h32.004c4.486,0,8.123-3.637,8.123-8.123V56.123c0-4.486-3.637-8.123-8.123-8.123
		h-32.004c-4.486,0-8.123,3.637-8.123,8.123v80.254C113.333,140.863,116.97,144.5,121.456,144.5z"/>
	<path style="fill:#A1A5A8;" d="M153.46,48h-6.293v96.5h6.293c4.486,0,8.123-3.637,8.123-8.123V56.123
		C161.583,51.637,157.947,48,153.46,48z"/>
	<path style="fill:#BDC3C7;" d="M89.208,241h128.667c4.441,0,8.042-3.6,8.042-8.042l0,0c0-4.441-3.6-8.042-8.042-8.042H89.208
		c-4.441,0-8.042,3.6-8.042,8.042l0,0C81.167,237.4,84.767,241,89.208,241z"/>
	<path style="fill:#A1A5A8;" d="M217.875,224.917h-70.708V241h70.708c4.441,0,8.042-3.6,8.042-8.042
		C225.917,228.517,222.316,224.917,217.875,224.917z"/>
	<path style="fill:#BDC3C7;" d="M57.042,192.75h112.583c4.441,0,8.042-3.6,8.042-8.042l0,0c0-4.441-3.6-8.042-8.042-8.042H57.042
		c-4.441,0-8.042,3.6-8.042,8.042l0,0C49,189.15,52.6,192.75,57.042,192.75z"/>
	<path style="fill:#A1A5A8;" d="M169.625,176.667h-22.458v16.083h22.458c4.441,0,8.042-3.6,8.042-8.042
		C177.667,180.267,174.066,176.667,169.625,176.667z"/>
	<circle style="fill:#5D7486;" cx="161.583" cy="80.167" r="16.083"/>
</g>
<g>
</g>
<g>
</g>
<g>
</g>
<g>
</g>
<g>
</g>
<g>
</g>
<g>
</g>
<g>
</g>
<g>
</g>
<g>
</g>
<g>
</g>
<g>
</g>
<g>
</g>
<g>
</g>
<g>
</g>
</svg>
