<?xml version="1.0" encoding="iso-8859-1"?>
<!-- Generator: Adobe Illustrator 19.0.0, SVG Export Plug-In . SVG Version: 6.00 Build 0)  -->
<svg version="1.1" id="Layer_1" xmlns="http://www.w3.org/2000/svg" xmlns:xlink="http://www.w3.org/1999/xlink" x="0px" y="0px"
	 viewBox="0 0 297 297" style="enable-background:new 0 0 297 297;" xml:space="preserve">
<g>
	<g>
		<g>
			<g>
				<circle style="fill:#3498DB;" cx="148.5" cy="148.5" r="148.5"/>
			</g>
		</g>
	</g>
	<path style="fill:#2980B9;" d="M296.525,136.606l-84.553-84.557L85.112,245.022l51.505,51.505c3.921,0.31,7.883,0.473,11.883,0.473
		c82.014,0,148.5-66.486,148.5-148.5C297,144.496,296.836,140.53,296.525,136.606z"/>
	<path style="fill:#E3E5E4;" d="M91.166,247.5h114.667c4.786,0,8.667-3.88,8.667-8.667V58.167c0-4.786-3.88-8.667-8.667-8.667
		H91.166c-4.786,0-8.666,3.88-8.666,8.667v180.667C82.5,243.62,86.38,247.5,91.166,247.5z"/>
	<path style="fill:#BDC3C7;" d="M205.833,49.5h-57.667v198h57.667c4.786,0,8.667-3.88,8.667-8.667V58.167
		C214.5,53.38,210.62,49.5,205.833,49.5z"/>
	<path style="fill:#345065;" d="M132,138h33c3.313,0,6-2.687,6-6s-2.687-6-6-6h-27v-12.75h27c3.313,0,6-2.687,6-6s-2.687-6-6-6h-27
		V88.5h27c3.313,0,6-2.687,6-6s-2.687-6-6-6h-33c-3.313,0-6,2.687-6,6V132C126,135.313,128.687,138,132,138z"/>
	<path style="fill:#345065;" d="M185.23,181.5v-15.308h5.231V181.5c0,2.762,2.238,5,5,5s5-2.238,5-5v-20.308c0-2.762-2.238-5-5-5
		H165c-2.762,0-5,2.238-5,5V181.5c0,2.762,2.238,5,5,5s5-2.238,5-5v-15.308h5.23V181.5c0,2.762,2.238,5,5,5
		S185.23,184.262,185.23,181.5z"/>
	<path style="fill:#345065;" d="M137,181.501v-20.308c0-2.762-2.238-5-5-5s-5,2.238-5,5v15.308h-5.231v-15.308c0-2.762-2.238-5-5-5
		s-5,2.238-5,5V176.5h-5.23v-15.308c0-2.762-2.238-5-5-5s-5,2.238-5,5V181.5c0,2.762,2.238,5,5,5L132,186.501
		c1.326,0,2.598-0.526,3.535-1.465C136.474,184.099,137,182.827,137,181.501z"/>
	<path style="fill:#345065;" d="M115.5,210.501c1.933,0,3.5-1.567,3.5-3.5s-1.567-3.5-3.5-3.5h-16c-1.933,0-3.5,1.567-3.5,3.5
		L95.999,231c0,0.928,0.369,1.818,1.025,2.475s1.546,1.025,2.475,1.025h16c1.933,0,3.5-1.567,3.5-3.5s-1.567-3.5-3.5-3.5h-12.5v-5
		h12.5c1.933,0,3.5-1.567,3.5-3.5s-1.567-3.5-3.5-3.5H103v-4.999H115.5z"/>
	<path style="fill:#345065;" d="M160.499,207.501l-23.998-0.001c-0.928,0-1.818,0.369-2.475,1.025s-1.025,1.546-1.025,2.475v16
		c0,1.933,1.567,3.5,3.5,3.5s3.5-1.567,3.5-3.5v-12.5H145V227c0,1.933,1.567,3.5,3.5,3.5s3.5-1.567,3.5-3.5v-12.499h4.999v12.5
		c0,1.933,1.567,3.5,3.5,3.5s3.5-1.567,3.5-3.5v-16C163.999,209.068,162.432,207.501,160.499,207.501z"/>
	<path style="fill:#345065;" d="M199.976,204.526c-0.656-0.656-1.546-1.025-2.475-1.025h-16c-1.933,0-3.5,1.567-3.5,3.5
		s1.567,3.5,3.5,3.5h12.5v4.999H181.5c-1.933,0-3.5,1.567-3.5,3.5s1.567,3.5,3.5,3.5H194v5h-12.5c-1.933,0-3.5,1.567-3.5,3.5
		s1.567,3.5,3.5,3.5h16c1.933,0,3.5-1.567,3.5-3.5l0.001-23.999C201.001,206.073,200.632,205.183,199.976,204.526z"/>
</g>
<g>
</g>
<g>
</g>
<g>
</g>
<g>
</g>
<g>
</g>
<g>
</g>
<g>
</g>
<g>
</g>
<g>
</g>
<g>
</g>
<g>
</g>
<g>
</g>
<g>
</g>
<g>
</g>
<g>
</g>
</svg>
