<?xml version="1.0" encoding="iso-8859-1"?>
<!-- Generator: Adobe Illustrator 19.0.0, SVG Export Plug-In . SVG Version: 6.00 Build 0)  -->
<svg version="1.1" id="Layer_1" xmlns="http://www.w3.org/2000/svg" xmlns:xlink="http://www.w3.org/1999/xlink" x="0px" y="0px"
	 viewBox="0 0 297 297" style="enable-background:new 0 0 297 297;" xml:space="preserve">
<g>
	<g>
		<g>
			<g>
				<circle style="fill:#3C5768;" cx="148.5" cy="148.5" r="148.5"/>
			</g>
		</g>
	</g>
	<path style="fill:#213947;" d="M296.777,140.393l-74.286-74.286L72.981,212.179l84.54,84.54C235.333,292.055,297,227.484,297,148.5
		C297,145.78,296.922,143.078,296.777,140.393z"/>
	<path style="fill:#F86E51;" d="M99.223,238.421l-49.242-49.242c-5.733-5.733-5.733-15.029,0-20.762L162.093,56.306
		c3.63-3.63,8.892-5.1,13.878-3.877l39.543,9.699c5.311,1.303,9.458,5.45,10.761,10.761l9.699,39.543
		c1.223,4.986-0.247,10.248-3.877,13.878L119.985,238.421C114.252,244.154,104.956,244.154,99.223,238.421z"/>
	<path style="fill:#CC503B;" d="M235.974,112.431l-9.699-39.543c-1.303-5.311-5.45-9.458-10.761-10.761l-39.543-9.699
		c-4.986-1.223-10.248,0.247-13.878,3.877l-14.926,14.926v140.007l84.93-84.93C235.727,122.679,237.197,117.417,235.974,112.431z"/>
	<polygon style="fill:#FFFFFF;" points="164.006,174.477 147.313,157.784 164.006,141.09 147.313,124.396 130.619,141.09 
		113.925,124.396 97.232,141.09 113.925,157.784 97.232,174.477 113.925,191.171 130.619,174.477 147.313,191.171 	"/>
	<polygon style="fill:#EDECEB;" points="164.006,141.09 147.313,124.396 147.167,124.542 147.167,191.025 147.313,191.171 
		164.006,174.477 147.313,157.784 	"/>
	<circle style="fill:#3C5768;" cx="203.388" cy="85.015" r="10.384"/>
</g>
<g>
</g>
<g>
</g>
<g>
</g>
<g>
</g>
<g>
</g>
<g>
</g>
<g>
</g>
<g>
</g>
<g>
</g>
<g>
</g>
<g>
</g>
<g>
</g>
<g>
</g>
<g>
</g>
<g>
</g>
</svg>
