<?xml version="1.0" encoding="iso-8859-1"?>
<!-- Generator: Adobe Illustrator 19.0.0, SVG Export Plug-In . SVG Version: 6.00 Build 0)  -->
<svg version="1.1" id="Layer_1" xmlns="http://www.w3.org/2000/svg" xmlns:xlink="http://www.w3.org/1999/xlink" x="0px" y="0px"
	 viewBox="0 0 297 297" style="enable-background:new 0 0 297 297;" xml:space="preserve">
<g>
	<g>
		<g>
			<g>
				<circle style="fill:#F86E51;" cx="148.5" cy="148.5" r="148.5"/>
			</g>
		</g>
	</g>
	<path style="fill:#DD513A;" d="M292.665,112.78l-52.389-52.389L57.39,242.892l47.622,47.632C118.767,294.73,133.368,297,148.5,297
		c82.014,0,148.5-66.486,148.5-148.5C297,136.184,295.49,124.223,292.665,112.78z"/>
	<path style="fill:#BDC3C7;" d="M57.151,242.662L57.151,242.662c3.222,3.222,8.445,3.222,11.667,0l23.335-23.335
		c3.222-3.222,3.222-8.445,0-11.667l0,0c-3.222-3.222-8.445-3.222-11.667,0l-23.335,23.335
		C53.929,234.217,53.929,239.441,57.151,242.662z"/>
	<path style="fill:#FFFFFF;" d="M251.18,71.295l-22.662-22.662c-4.855-4.855-12.726-4.855-17.581,0l-63.501,63.501
		c-5.829,5.829-10.661,12.577-14.302,19.973l-14.013,28.463l-50.303,50.303c-5.556,5.556-5.556,14.565,0,20.121l0,0
		c5.556,5.556,14.565,5.556,20.121,0l50.303-50.303l28.463-14.013c7.396-3.641,14.144-8.473,19.973-14.302l63.501-63.501
		C256.035,84.021,256.035,76.15,251.18,71.295z"/>
	<path style="fill:#EDECEB;" d="M251.18,71.295l-22.662-22.662c-4.855-4.855-12.726-4.855-17.581,0l-61.77,61.771v65.402
		l18.539-9.127c7.396-3.641,14.144-8.473,19.973-14.302l63.501-63.501C256.035,84.021,256.035,76.15,251.18,71.295z"/>
	
		<rect x="186.492" y="55.574" transform="matrix(0.7071 0.7071 -0.7071 0.7071 127.9195 -115.178)" style="fill:#BDC3C7;" width="33" height="82.499"/>
	<circle style="fill:#BDC3C7;" cx="154.025" cy="145.789" r="9.5"/>
	<path style="fill:#C0C0B8;" d="M160.742,139.071c-3.14-3.14-7.928-3.612-11.575-1.436v16.307c3.647,2.176,8.435,1.705,11.575-1.436
		C164.452,148.796,164.452,142.781,160.742,139.071z"/>
</g>
<g>
</g>
<g>
</g>
<g>
</g>
<g>
</g>
<g>
</g>
<g>
</g>
<g>
</g>
<g>
</g>
<g>
</g>
<g>
</g>
<g>
</g>
<g>
</g>
<g>
</g>
<g>
</g>
<g>
</g>
</svg>
