<?xml version="1.0" encoding="iso-8859-1"?>
<!-- Generator: Adobe Illustrator 19.0.0, SVG Export Plug-In . SVG Version: 6.00 Build 0)  -->
<svg version="1.1" id="Layer_1" xmlns="http://www.w3.org/2000/svg" xmlns:xlink="http://www.w3.org/1999/xlink" x="0px" y="0px"
	 viewBox="0 0 297 297" style="enable-background:new 0 0 297 297;" xml:space="preserve">
<g>
	<g>
		<g>
			<g>
				<circle style="fill:#E67E22;" cx="148.5" cy="148.5" r="148.5"/>
			</g>
		</g>
	</g>
	<path style="fill:#BA5D19;" d="M215.64,75.745L77.918,217.922l78.845,78.845c75.823-4.159,136.49-65.195,140.064-141.172
		L215.64,75.745z"/>
	<circle style="fill:#F0C082;" cx="148.5" cy="148.5" r="99"/>
	<path style="fill:#DBA972;" d="M148.5,49.5c-0.111,0-0.222,0.004-0.333,0.004v197.992c0.111,0,0.222,0.004,0.333,0.004
		c54.676,0,99-44.324,99-99S203.176,49.5,148.5,49.5z"/>
	<path style="fill:#662621;" d="M150.242,125.379c14.274-11.332,18.956-29.197,10.457-39.903s-26.96-10.198-41.234,1.134
		c-7.722,6.13-7.952,17.023-14.169,21.959s-16.878,2.689-24.6,8.819c-14.274,11.332-18.956,29.197-10.457,39.903
		s26.96,10.198,41.234-1.135c7.722-6.13,7.952-17.023,14.169-21.959C131.858,129.264,142.52,131.51,150.242,125.379z"/>
	<path style="fill:#4F1A18;" d="M160.698,85.477c-3.087-3.889-7.493-6.291-12.531-7.239v48.537c0.708-0.416,1.406-0.865,2.075-1.396
		C164.516,114.047,169.197,96.182,160.698,85.477z"/>
	<path style="fill:#662621;" d="M183.02,201.752c12.309,4.431,24.98,0.54,28.301-8.692s-3.965-20.307-16.274-24.738
		c-6.659-2.397-13.393,1.577-18.754-0.352c-5.361-1.93-8.019-9.285-14.678-11.682c-12.309-4.431-24.98-0.54-28.301,8.692
		s3.965,20.307,16.274,24.738c6.659,2.397,13.393-1.577,18.754,0.352S176.361,199.355,183.02,201.752z"/>
	<path style="fill:#4F1A18;" d="M195.047,168.322c-6.659-2.397-13.393,1.577-18.754-0.353s-8.019-9.285-14.678-11.682
		c-4.602-1.656-9.253-2.148-13.448-1.635v34.51c0.467,0.194,0.939,0.381,1.421,0.555c6.659,2.397,13.393-1.577,18.754,0.353
		s8.019,9.285,14.678,11.682c12.309,4.431,24.98,0.54,28.302-8.692C214.642,183.829,207.356,172.753,195.047,168.322z"/>
	<path style="fill:#292D30;" d="M181.496,136.501c-0.824,0-1.657-0.227-2.404-0.699c-2.1-1.33-2.724-4.11-1.394-6.21
		c14.111-22.28,36.614-18.691,37.565-18.526c2.449,0.421,4.093,2.749,3.671,5.198c-0.42,2.442-2.729,4.082-5.179,3.675
		c-0.766-0.123-17.647-2.592-28.454,14.47C184.445,135.761,182.986,136.5,181.496,136.501z"/>
	<path style="fill:#292D30;" d="M115.504,202.5c-1.431,0-2.837-0.68-3.71-1.947c-6.698-9.723-0.465-20.825-0.196-21.293
		c1.238-2.155,3.989-2.897,6.143-1.662c2.148,1.233,2.895,3.97,1.675,6.121c-0.085,0.153-3.645,6.742-0.209,11.729
		c1.409,2.046,0.894,4.849-1.153,6.259C117.273,202.243,116.384,202.5,115.504,202.5z"/>
	<circle style="fill:#FFFFFF;" cx="198" cy="82.5" r="11"/>
	<circle style="fill:#FFFFFF;" cx="88" cy="192.5" r="11"/>
	<circle style="fill:#FFFFFF;" cx="160.5" cy="220" r="6.5"/>
</g>
<g>
</g>
<g>
</g>
<g>
</g>
<g>
</g>
<g>
</g>
<g>
</g>
<g>
</g>
<g>
</g>
<g>
</g>
<g>
</g>
<g>
</g>
<g>
</g>
<g>
</g>
<g>
</g>
<g>
</g>
</svg>
