<?xml version="1.0" encoding="iso-8859-1"?>
<!-- Generator: Adobe Illustrator 19.0.0, SVG Export Plug-In . SVG Version: 6.00 Build 0)  -->
<svg version="1.1" id="Layer_1" xmlns="http://www.w3.org/2000/svg" xmlns:xlink="http://www.w3.org/1999/xlink" x="0px" y="0px"
	 viewBox="0 0 512 512" style="enable-background:new 0 0 512 512;" xml:space="preserve">
<circle style="fill:#273B7A;" cx="256" cy="256" r="256"/>
<path style="fill:#121149;" d="M318.736,504.244c87.65-22.081,157.318-89.36,182.794-175.609L361.262,188.366l-8.847,3.537
	l-61.145-61.145L190.94,196.61l8.332,66.658l-27.838,93.674L318.736,504.244z"/>
<path style="fill:#3B9B27;" d="M254.245,149.197c10.785-11.929,35.09-17.973,37.023-18.441c0.064-0.016,0.116,0.029,0.105,0.095
	c-0.269,1.97-3.839,26.758-14.624,38.69c-11.236,12.429-19.834,11.812-26.048,6.194C244.486,170.117,243.01,161.626,254.245,149.197
	z"/>
<path style="fill:#2A7F16;" d="M291.268,130.757c0.064-0.016,0.116,0.029,0.105,0.095c-0.269,1.97-3.839,26.758-14.624,38.69
	c-11.236,12.429-19.834,11.812-26.048,6.194L291.268,130.757z"/>
<path style="fill:#57B240;" d="M212.123,174.289c-18.551-12.166-31.963-44.013-33.009-46.549c-0.034-0.084,0.017-0.162,0.109-0.164
	c2.743-0.052,37.278-0.459,55.83,11.707c19.327,12.674,20.318,24.526,13.988,34.194C242.707,183.141,231.45,186.963,212.123,174.289
	z"/>
<path style="fill:#3C8927;" d="M249.037,173.475c-6.332,9.668-17.587,13.488-36.916,0.814
	c-18.551-12.166-31.963-44.013-33.009-46.549c-0.034-0.084,0.017-0.162,0.109-0.164L249.037,173.475z"/>
<path style="fill:#477F3C;" d="M244.858,203.755v-61.211c0-2.758,1.855-5.329,4.572-5.801c3.517-0.612,6.57,2.081,6.57,5.484v61.528
	H244.858z"/>
<path style="fill:#2E5E24;" d="M256,142.229c0-3.079-2.507-5.549-5.587-5.544v67.072H256V142.229z"/>
<path style="fill:#FF5419;" d="M250.428,371.786c0,0,22.221,7.071,38.56,7.071c64.055,0,127.664-153.721,63.376-198.165
	c-52.202-36.088-101.936,17.392-101.936,17.392s-49.7-53.432-101.936-17.392c-66.189,45.668,7.204,198.165,63.376,198.165
	C228.207,378.859,250.428,371.786,250.428,371.786z"/>
<path style="fill:#C92F00;" d="M352.365,180.695c-52.202-36.088-101.936,17.392-101.936,17.392s-0.01-0.012-0.016-0.017v173.721
	c0.002,0,0.016-0.005,0.016-0.005s22.221,7.071,38.56,7.071C353.046,378.858,416.654,225.139,352.365,180.695z"/>
<g>
</g>
<g>
</g>
<g>
</g>
<g>
</g>
<g>
</g>
<g>
</g>
<g>
</g>
<g>
</g>
<g>
</g>
<g>
</g>
<g>
</g>
<g>
</g>
<g>
</g>
<g>
</g>
<g>
</g>
</svg>
