<?xml version="1.0" encoding="iso-8859-1"?>
<!-- Generator: Adobe Illustrator 19.0.0, SVG Export Plug-In . SVG Version: 6.00 Build 0)  -->
<svg version="1.1" id="Layer_1" xmlns="http://www.w3.org/2000/svg" xmlns:xlink="http://www.w3.org/1999/xlink" x="0px" y="0px"
	 viewBox="0 0 512 512" style="enable-background:new 0 0 512 512;" xml:space="preserve">
<circle style="fill:#386895;" cx="256" cy="256" r="256"/>
<path style="fill:#273B7A;" d="M499.69,334.595l-79.308-80.022l-94.339-93.625l-110.84,115.452l-25.519,4.649l-98.061,68.579
	l162.347,162.347c0.678,0.005,1.353,0.026,2.033,0.026C369.964,512,466.516,437.526,499.69,334.595z"/>
<polygon style="fill:#FFC61B;" points="326.042,349.627 184.532,349.627 184.532,160.947 255.286,113.778 326.042,160.947 "/>
<polygon style="fill:#EAA22F;" points="326.042,160.947 255.286,113.778 254.852,114.067 254.852,349.627 326.042,349.627 "/>
<polygon style="fill:#E09112;" points="233.129,349.627 91.62,349.627 91.62,254.573 162.375,207.403 233.129,254.573 "/>
<polygon style="fill:#FF5419;" points="233.129,254.573 162.375,207.403 161.761,207.812 161.761,349.627 233.129,349.627 "/>
<polygon style="fill:#FFEDB5;" points="420.381,349.627 278.873,349.627 278.873,254.573 349.627,207.403 420.381,254.573 "/>
<polygon style="fill:#FEE187;" points="420.381,254.573 349.667,207.429 349.667,349.627 420.381,349.627 "/>
<path style="fill:#477F3C;" d="M351.999,300.496c-2.265,0.393-3.813,2.538-3.813,4.837v44.18c0,0.064,0.052,0.116,0.116,0.116h9.061
	c0.064,0,0.116-0.052,0.116-0.116v-44.444C357.478,302.23,354.932,299.985,351.999,300.496z"/>
<path style="fill:#3B9B27;" d="M345.148,289.754c7.221-18.273,32.434-35.611,34.445-36.973c0.067-0.045,0.145-0.016,0.162,0.064
	c0.538,2.369,7.084,32.258-0.138,50.531c-7.523,19.037-17.624,22.019-27.141,18.258
	C342.957,317.873,337.624,308.791,345.148,289.754z"/>
<path style="fill:#33751D;" d="M379.592,252.781c0.067-0.045,0.145-0.016,0.162,0.064c0.538,2.369,7.083,32.258-0.138,50.531
	c-7.523,19.037-17.623,22.019-27.141,18.258L379.592,252.781z"/>
<path style="fill:#57B240;" d="M322.779,307.734c-7.814-18.027-2.246-48.114-1.788-50.5c0.016-0.079,0.091-0.112,0.16-0.069
	c2.055,1.296,27.819,17.801,35.633,35.828c8.14,18.78,3.108,28.031-6.282,32.103C341.113,329.166,330.921,326.515,322.779,307.734z"
	/>
<path style="fill:#479332;" d="M350.503,325.096c-9.39,4.07-19.582,1.421-27.724-17.361c-7.814-18.027-2.246-48.114-1.788-50.5
	c0.016-0.079,0.091-0.112,0.16-0.069L350.503,325.096z"/>
<path style="fill:#477F3C;" d="M163.559,300.496c-2.265,0.393-3.813,2.538-3.813,4.837v44.18c0,0.064,0.052,0.116,0.116,0.116h9.061
	c0.064,0,0.116-0.052,0.116-0.116v-44.444C169.039,302.23,166.491,299.985,163.559,300.496z"/>
<path style="fill:#3B9B27;" d="M156.708,289.754c7.221-18.273,32.434-35.611,34.445-36.973c0.067-0.045,0.145-0.016,0.162,0.064
	c0.538,2.369,7.084,32.258-0.138,50.531c-7.523,19.037-17.623,22.019-27.141,18.258
	C154.517,317.873,149.185,308.791,156.708,289.754z"/>
<path style="fill:#30871B;" d="M191.152,252.781c0.067-0.045,0.145-0.016,0.162,0.064c0.538,2.369,7.084,32.258-0.138,50.531
	c-7.523,19.037-17.623,22.019-27.141,18.258L191.152,252.781z"/>
<path style="fill:#57B240;" d="M134.341,307.734c-7.814-18.027-2.246-48.114-1.788-50.5c0.016-0.079,0.091-0.112,0.16-0.069
	c2.055,1.296,27.819,17.801,35.633,35.828c8.14,18.78,3.108,28.031-6.282,32.103C152.674,329.168,142.481,326.515,134.341,307.734z"
	/>
<path style="fill:#479332;" d="M162.063,325.096c-9.39,4.07-19.582,1.421-27.724-17.361c-7.814-18.027-2.246-48.114-1.788-50.5
	c0.016-0.079,0.091-0.112,0.16-0.069L162.063,325.096z"/>
<path style="fill:#477F3C;" d="M260.913,214.3c-2.265,0.393-3.813,2.538-3.813,4.837v44.18c0,0.064,0.052,0.116,0.115,86.311h9.061
	c0.064-86.195,0.116-86.247,0.116-86.311v-44.444C266.392,216.035,263.846,213.79,260.913,214.3z"/>
<path style="fill:#3B9B27;" d="M254.061,203.559c7.221-18.273,32.434-35.611,34.445-36.973c0.067-0.045,0.145-0.016,0.162,0.064
	c0.538,2.369,7.084,32.258-0.138,50.531c-7.523,19.037-17.623,22.019-27.141,18.258
	C251.871,231.677,246.538,222.596,254.061,203.559z"/>
<path style="fill:#33751D;" d="M288.506,166.586c0.067-0.045,0.145-0.016,0.162,0.064c0.538,2.369,7.084,32.258-0.138,50.531
	c-7.523,19.037-17.623,22.019-27.141,18.258L288.506,166.586z"/>
<path style="fill:#57B240;" d="M231.693,221.539c-7.814-18.027-2.246-48.114-1.788-50.5c0.016-0.079,0.091-0.112,0.16-0.069
	c2.055,1.296,27.819,17.801,35.633,35.828c8.14,18.78,3.108,28.031-6.282,32.103C250.027,242.972,239.835,240.319,231.693,221.539z"
	/>
<path style="fill:#479332;" d="M259.417,238.901c-9.39,4.07-19.582,1.421-27.724-17.361c-7.814-18.027-2.246-48.114-1.788-50.5
	c0.016-0.079,0.091-0.112,0.16-0.069L259.417,238.901z"/>
<g>
</g>
<g>
</g>
<g>
</g>
<g>
</g>
<g>
</g>
<g>
</g>
<g>
</g>
<g>
</g>
<g>
</g>
<g>
</g>
<g>
</g>
<g>
</g>
<g>
</g>
<g>
</g>
<g>
</g>
</svg>
