<?xml version="1.0" encoding="iso-8859-1"?>
<!-- Generator: Adobe Illustrator 19.0.0, SVG Export Plug-In . SVG Version: 6.00 Build 0)  -->
<svg version="1.1" id="Layer_1" xmlns="http://www.w3.org/2000/svg" xmlns:xlink="http://www.w3.org/1999/xlink" x="0px" y="0px"
	 viewBox="0 0 512 512" style="enable-background:new 0 0 512 512;" xml:space="preserve">
<circle style="fill:#324A5E;" cx="256" cy="256" r="256"/>
<path style="fill:#2B3B4E;" d="M509.004,295.262L397.783,184.041l-34.695,26.445l-76.96-76.96l-23.793,35.718l66.982,66.982
	l-17.365,13.234L179.286,116.795l-20.399,24.278l127.71,127.71L147.682,374.662l-35.485,32.18l101.691,101.691
	C227.59,510.8,241.654,512,256,512c9.116,0,18.117-0.484,26.986-1.414l0.31-0.31l0.247,0.247
	C398.991,498.171,491.486,409.086,509.004,295.262z"/>
<rect x="132.741" y="116.795" style="fill:#FD8469;" width="46.545" height="23.273"/>
<rect x="112.192" y="133.516" style="fill:#F9B54C;" width="173.925" height="99.388"/>
<rect x="199.111" y="133.516" style="fill:#F4A200;" width="87.023" height="99.388"/>
<rect x="112.192" y="307.459" style="fill:#F9B54C;" width="173.925" height="99.388"/>
<rect x="199.111" y="307.459" style="fill:#F4A200;" width="87.023" height="99.388"/>
<rect x="112.192" y="220.488" style="fill:#FFD15D;" width="173.925" height="99.388"/>
<rect x="199.111" y="220.488" style="fill:#F9B54C;" width="87.023" height="99.388"/>
<rect x="272.739" y="170.408" style="fill:#FC6F58;" width="37.943" height="18.98"/>
<g>
	<rect x="256" y="184.044" style="fill:#84DBFF;" width="141.791" height="81.018"/>
	<rect x="256" y="325.818" style="fill:#84DBFF;" width="141.791" height="81.018"/>
</g>
<g>
	<rect x="327.835" y="184.044" style="fill:#31BAFD;" width="69.953" height="81.018"/>
	<rect x="327.835" y="325.818" style="fill:#31BAFD;" width="69.953" height="81.018"/>
</g>
<rect x="256" y="254.931" style="fill:#B5F1F4;" width="141.791" height="81.018"/>
<rect x="327.835" y="254.931" style="fill:#84DBFF;" width="69.953" height="81.018"/>
<g>
</g>
<g>
</g>
<g>
</g>
<g>
</g>
<g>
</g>
<g>
</g>
<g>
</g>
<g>
</g>
<g>
</g>
<g>
</g>
<g>
</g>
<g>
</g>
<g>
</g>
<g>
</g>
<g>
</g>
</svg>
