<?xml version="1.0" encoding="iso-8859-1"?>
<!-- Generator: Adobe Illustrator 19.0.0, SVG Export Plug-In . SVG Version: 6.00 Build 0)  -->
<svg version="1.1" id="Layer_1" xmlns="http://www.w3.org/2000/svg" xmlns:xlink="http://www.w3.org/1999/xlink" x="0px" y="0px"
	 viewBox="0 0 512 512" style="enable-background:new 0 0 512 512;" xml:space="preserve">
<circle style="fill:#FFC61B;" cx="256" cy="256" r="256"/>
<path style="fill:#EAA22F;" d="M505.897,311.732L339.563,145.398l-2.334,4.134l-36.681-36.681l-42.649,214.002l-4.484-4.482
	l-80.913,73.314l114.448,114.448C395.197,497.086,482.637,416.494,505.897,311.732z"/>
<path style="fill:#273B7A;" d="M305.731,142.77h-99.464v-18.946c0-7.847,6.361-14.21,14.21-14.21h71.046
	c7.847,0,14.21,6.361,14.21,14.21v18.946H305.731z"/>
<path style="fill:#121149;" d="M305.733,123.825c0-7.847-6.361-14.21-14.21-14.21h-36.097v33.154h50.307V123.825z"/>
<path style="fill:#386895;" d="M186.878,402.384h138.243c10.381,0,18.797-8.416,18.797-18.797V157.424
	c0-10.381-8.416-18.797-18.797-18.797H186.878c-10.381,0-18.797,8.416-18.797,18.797v226.163
	C168.081,393.968,176.497,402.384,186.878,402.384z"/>
<path style="fill:#273B7A;" d="M325.122,138.626h-69.696v263.758h69.696c10.381,0,18.797-8.416,18.797-18.797V157.424
	C343.919,147.042,335.503,138.626,325.122,138.626z"/>
<g>
	<rect x="197.387" y="343.764" style="fill:#93E22D;" width="117.226" height="29.306"/>
	<rect x="197.387" y="299.804" style="fill:#93E22D;" width="117.226" height="29.306"/>
</g>
<g>
	<rect x="255.431" y="343.764" style="fill:#82C620;" width="59.182" height="29.306"/>
	<rect x="255.431" y="299.804" style="fill:#82C620;" width="59.182" height="29.306"/>
</g>
<g>
	<path style="fill:#FFFFFF;" d="M238.425,225.08l-4.879-16.582c-0.94-3.196-4.296-5.032-7.492-4.084l-16.582,4.879
		c-2.339,0.688-4.036,2.719-4.296,5.146c-0.259,2.426,0.969,4.772,3.112,5.939l5.306,2.894l-9.707,16.815
		c-2.931,5.077-2.932,11.14,0,16.219c2.931,5.077,8.182,8.109,14.045,8.109c3.332,0,6.034-2.701,6.034-6.034
		s-2.701-6.034-6.034-6.034c-2.163,0-3.234-1.452-3.594-2.076s-1.083-2.277,0-4.151l9.854-17.068l5.558,3.031
		c0.905,0.493,1.9,0.736,2.888,0.736c1.352,0,2.694-0.453,3.789-1.338C238.325,229.948,239.113,227.423,238.425,225.08z"/>
	<path style="fill:#FFFFFF;" d="M308.114,240.09l-3.91-6.775c-1.664-2.886-5.356-3.877-8.24-2.21
		c-2.888,1.665-3.877,5.354-2.21,8.24l3.91,6.777c1.083,1.874,0.36,3.527,0,4.151c-0.36,0.624-1.431,2.076-3.594,2.076h-34.93
		v-6.189c0-2.439-1.47-4.639-3.724-5.573c-2.258-0.938-4.849-0.419-6.575,1.308l-12.224,12.222
		c-1.131,1.131-1.767,2.665-1.767,4.267c0,1.6,0.636,3.134,1.767,4.267l12.222,12.222c1.153,1.155,2.696,1.767,4.268,1.767
		c0.776,0,1.56-0.15,2.307-0.46c2.257-0.933,3.725-3.132,3.725-5.573v-6.189h34.93c5.863,0,11.114-3.032,14.045-8.109
		C311.048,251.227,311.046,245.165,308.114,240.09z"/>
	<path style="fill:#FFFFFF;" d="M236.528,197.08c2.938,1.572,6.594,0.465,8.164-2.476l7.751-14.489
		c1.084-1.812,2.843-2.008,3.556-2.008c0.721,0,2.513,0.202,3.596,2.076l15.527,26.896l-5.091,2.638
		c-2.167,1.122-3.444,3.439-3.236,5.872c0.209,2.431,1.86,4.498,4.187,5.236l16.475,5.229c0.596,0.188,1.21,0.283,1.826,0.283
		c0.958,0,1.91-0.228,2.775-0.678c1.421-0.736,2.491-2.007,2.975-3.532l5.229-16.477c0.74-2.327,0.003-4.867-1.864-6.439
		c-1.865-1.57-4.498-1.867-6.663-0.743l-5.889,3.051l-15.803-27.37c-2.932-5.079-8.183-8.109-14.046-8.109
		c-5.863,0-11.114,3.031-14.046,8.109c-0.033,0.057-0.064,0.114-0.095,0.172l-7.804,14.595
		C232.481,191.853,233.589,195.51,236.528,197.08z"/>
</g>
<g>
	<path style="fill:#D0D1D3;" d="M308.114,240.09l-3.91-6.775c-1.664-2.886-5.356-3.877-8.24-2.21
		c-2.888,1.665-3.877,5.354-2.21,8.24l3.91,6.777c1.083,1.874,0.36,3.527,0,4.151c-0.36,0.624-1.431,2.076-3.594,2.076h-34.93
		v-6.189c0-2.436-1.465-4.632-3.713-5.568v35.581c2.248-0.936,3.712-3.131,3.712-5.566v-6.189h34.93
		c5.863,0,11.114-3.032,14.045-8.109C311.048,251.227,311.046,245.165,308.114,240.09z"/>
	<path style="fill:#D0D1D3;" d="M298.401,199.213c-1.865-1.57-4.498-1.867-6.663-0.743l-5.889,3.051l-15.803-27.37
		c-2.932-5.079-8.183-8.109-14.046-8.109c-0.195,0-0.381,0.031-0.574,0.036v12.074c0.224-0.029,0.426-0.043,0.574-0.043
		c0.721,0,2.513,0.202,3.596,2.076l15.527,26.896l-5.091,2.638c-2.167,1.122-3.444,3.439-3.236,5.872
		c0.209,2.431,1.86,4.498,4.187,5.236l16.475,5.229c0.596,0.188,1.21,0.283,1.826,0.283c0.958,0,1.91-0.228,2.775-0.678
		c1.421-0.736,2.491-2.007,2.975-3.532l5.229-16.477C301.003,203.324,300.268,200.785,298.401,199.213z"/>
</g>
<g>
</g>
<g>
</g>
<g>
</g>
<g>
</g>
<g>
</g>
<g>
</g>
<g>
</g>
<g>
</g>
<g>
</g>
<g>
</g>
<g>
</g>
<g>
</g>
<g>
</g>
<g>
</g>
<g>
</g>
</svg>
