<?xml version="1.0" encoding="iso-8859-1"?>
<!-- Generator: Adobe Illustrator 19.0.0, SVG Export Plug-In . SVG Version: 6.00 Build 0)  -->
<svg version="1.1" id="Layer_1" xmlns="http://www.w3.org/2000/svg" xmlns:xlink="http://www.w3.org/1999/xlink" x="0px" y="0px"
	 viewBox="0 0 512 512" style="enable-background:new 0 0 512 512;" xml:space="preserve">
<circle style="fill:#386895;" cx="256" cy="256" r="256"/>
<path style="fill:#273B7A;" d="M279.152,510.947c114.809-10.293,207.775-96.37,228.509-207.848L380.106,175.544l-27.115,45.128
	l-63.469-63.469l-1.381,4.393l-30.991-30.991l-8.62,94.941l6.823,6.823L148.14,379.937L279.152,510.947z"/>
<path style="fill:#6CAF5F;" d="M341.721,246.019c39.321-17.984,112.688,6.827,112.688,6.827s-29.22,71.727-68.542,89.709
	c-39.321,17.984-61.662,2.07-73.852-24.586C299.823,291.311,302.399,264.002,341.721,246.019z"/>
<path style="fill:#477F3C;" d="M454.409,252.845c0,0-29.22,71.727-68.542,89.709c-39.321,17.984-61.662,2.07-73.852-24.586
	L454.409,252.845z"/>
<path style="fill:#2E5E24;" d="M283.215,344.286c-3.522,0-6.904-1.97-8.54-5.351c-2.282-4.713-0.31-10.383,4.403-12.666
	l96.37-46.642c4.717-2.281,10.385-0.309,12.666,4.403c2.282,4.713,0.31,10.383-4.403,12.666l-96.37,46.642
	C286.008,343.981,284.601,344.286,283.215,344.286z"/>
<path style="fill:#57B240;" d="M278.359,224.461c25.586-34.856,101.747-48.918,101.747-48.918s9.409,76.876-16.175,111.731
	c-25.586,34.856-52.848,31.839-76.478,14.493C263.823,284.422,252.773,259.317,278.359,224.461z"/>
<path style="fill:#489B31;" d="M380.106,175.544c0,0,9.409,76.876-16.175,111.731c-25.586,34.856-52.848,31.839-76.478,14.493
	L380.106,175.544z"/>
<path style="fill:#477F3C;" d="M270.484,339.982c-1.879,0-3.777-0.557-5.434-1.717c-4.287-3.007-5.327-8.919-2.322-13.207
	l61.454-87.669c3.005-4.286,8.918-5.325,13.207-2.322c4.287,3.007,5.327,8.919,2.322,13.207l-61.454,87.669
	C276.413,338.573,273.472,339.982,270.484,339.982z"/>
<path style="fill:#FEE187;" d="M262.33,157.201h-86.787v-16.531c0-6.847,5.551-12.398,12.398-12.398h61.99
	c6.847,0,12.398,5.551,12.398,12.398V157.201z"/>
<g>
	<path style="fill:#FFC61B;" d="M262.33,140.671c0-6.847-5.551-12.398-12.398-12.398H218.65v28.929h43.68V140.671z"/>
	<path style="fill:#FFC61B;" d="M158.623,383.728h120.623c9.059,0,16.401-7.344,16.401-16.401V169.987
		c0-9.059-7.344-16.401-16.401-16.401H158.623c-9.059,0-16.401,7.344-16.401,16.401v197.337
		C142.222,376.384,149.566,383.728,158.623,383.728z"/>
</g>
<path style="fill:#EAA22F;" d="M279.249,153.586H218.65v230.141h60.599c9.059,0,16.401-7.344,16.401-16.401V169.987
	C295.65,160.93,288.306,153.586,279.249,153.586z"/>
<g>
	<rect x="167.788" y="332.593" style="fill:#7FCE24;" width="102.279" height="25.571"/>
	<rect x="167.788" y="294.236" style="fill:#7FCE24;" width="102.279" height="25.571"/>
	<rect x="167.788" y="255.879" style="fill:#7FCE24;" width="102.279" height="25.571"/>
</g>
<g>
	<rect x="218.643" y="332.593" style="fill:#477F3C;" width="51.429" height="25.571"/>
	<rect x="218.643" y="294.236" style="fill:#477F3C;" width="51.429" height="25.571"/>
	<rect x="218.643" y="255.879" style="fill:#477F3C;" width="51.429" height="25.571"/>
</g>
<g>
</g>
<g>
</g>
<g>
</g>
<g>
</g>
<g>
</g>
<g>
</g>
<g>
</g>
<g>
</g>
<g>
</g>
<g>
</g>
<g>
</g>
<g>
</g>
<g>
</g>
<g>
</g>
<g>
</g>
</svg>
