<?xml version="1.0" encoding="iso-8859-1"?>
<!-- Generator: Adobe Illustrator 19.0.0, SVG Export Plug-In . SVG Version: 6.00 Build 0)  -->
<svg version="1.1" id="Layer_1" xmlns="http://www.w3.org/2000/svg" xmlns:xlink="http://www.w3.org/1999/xlink" x="0px" y="0px"
	 viewBox="0 0 512 512" style="enable-background:new 0 0 512 512;" xml:space="preserve">
<circle style="fill:#84DBFF;" cx="256" cy="256" r="256"/>
<path style="fill:#31BAFD;" d="M437.019,437.019c49.478-49.478,74.454-114.173,74.957-179.021L361.741,107.763L245.083,281.859
	l-96.79,120.163l109.952,109.951C323.01,511.409,387.603,486.436,437.019,437.019z"/>
<path style="fill:#324A5E;" d="M342.052,412.444H169.948c-15.312,0-27.726-12.414-27.726-27.726V127.281
	c0-15.312,12.414-27.726,27.726-27.726h172.104c15.312,0,27.726,12.414,27.726,27.726v257.438
	C369.778,400.031,357.364,412.444,342.052,412.444z"/>
<path style="fill:#2B3B4E;" d="M342.052,99.556H256v312.889h86.052c15.313,0,27.726-12.414,27.726-27.726V127.281
	C369.778,111.969,357.364,99.556,342.052,99.556z"/>
<path style="fill:#E6F3FF;" d="M299.313,355.556h-86.626c-7.497,0-13.576-6.078-13.576-13.576V170.02
	c0-7.497,6.079-13.576,13.576-13.576h86.626c7.497,0,13.576,6.078,13.576,13.576v171.96
	C312.889,349.477,306.81,355.556,299.313,355.556z"/>
<path style="fill:#CFDBE6;" d="M299.313,156.444H256v199.111h43.313c7.497,0,13.576-6.078,13.576-13.576V170.02
	C312.889,162.523,306.81,156.444,299.313,156.444z"/>
<rect x="203.421" y="171.96" style="fill:#FFD15D;" width="105.158" height="157.737"/>
<rect x="256" y="171.96" style="fill:#F9B54C;" width="52.579" height="157.737"/>
<circle style="fill:#B8C9D9;" cx="256" cy="342.195" r="7.758"/>
<path style="fill:#9BB3C6;" d="M263.758,342.195c0-4.284-3.474-7.758-7.758-7.758v15.515
	C260.284,349.953,263.758,346.479,263.758,342.195z"/>
<g>
	<path style="fill:#B5F1F4;" d="M174.232,311.398c-1.324,0-2.646-0.505-3.656-1.515c-29.712-29.71-29.712-78.053,0-107.765
		c2.02-2.02,5.292-2.02,7.313,0c2.02,2.019,2.02,5.294,0,7.313c-25.679,25.679-25.679,67.46,0,93.137c2.02,2.019,2.02,5.294,0,7.313
		C176.88,310.893,175.556,311.398,174.232,311.398z"/>
	<path style="fill:#B5F1F4;" d="M337.768,311.398c-1.324,0-2.646-0.505-3.656-1.515c-2.02-2.019-2.02-5.294,0-7.313
		c25.679-25.679,25.679-67.46,0-93.137c-2.02-2.019-2.02-5.294,0-7.313c2.02-2.02,5.292-2.02,7.313,0
		c29.712,29.71,29.712,78.053,0,107.765C340.414,310.893,339.091,311.398,337.768,311.398z"/>
	<path style="fill:#B5F1F4;" d="M190.723,299.544c-0.883,0-1.764-0.336-2.438-1.01c-23.452-23.452-23.452-61.614,0.002-85.068
		c1.346-1.346,3.529-1.346,4.875,0c1.346,1.346,1.346,3.529,0,4.875c-20.764,20.766-20.766,54.553-0.002,75.316
		c1.346,1.346,1.346,3.529,0,4.875C192.486,299.206,191.605,299.544,190.723,299.544z"/>
	<path style="fill:#B5F1F4;" d="M321.276,299.544c-0.883,0-1.764-0.336-2.438-1.01c-1.346-1.346-1.346-3.529,0-4.875
		c20.764-20.764,20.764-54.551,0.002-75.316c-1.346-1.346-1.346-3.529,0-4.875c1.346-1.346,3.529-1.346,4.875,0
		c23.452,23.452,23.452,61.614-0.002,85.068C323.041,299.206,322.158,299.544,321.276,299.544z"/>
</g>
<path style="fill:#FC6F58;" d="M251.397,299.211c-1.045,0-2.107-0.24-3.105-0.743c-3.4-1.717-4.763-5.863-3.046-9.264l13.334-26.403
	h-16.372c-2.396,0-4.618-1.243-5.873-3.282c-1.255-2.039-1.36-4.584-0.281-6.722l18.389-36.409c1.717-3.401,5.858-4.763,9.264-3.046
	c3.4,1.717,4.763,5.863,3.046,9.264l-13.334,26.403h16.374c2.396,0,4.618,1.243,5.873,3.282c1.255,2.039,1.36,4.584,0.281,6.722
	l-18.389,36.409C256.343,297.827,253.916,299.211,251.397,299.211z"/>
<g>
	<path style="fill:#F1543F;" d="M266.752,222.606c1.717-3.401,0.353-7.547-3.046-9.264c-2.615-1.319-5.654-0.809-7.706,1.034v29.52
		L266.752,222.606z"/>
	<path style="fill:#F1543F;" d="M275.665,252.294c-1.257-2.041-3.479-3.282-5.873-3.282H256v13.791h2.582L256,267.916v29.522
		c0.621-0.557,1.158-1.222,1.557-2.012l18.389-36.409C277.025,256.877,276.92,254.331,275.665,252.294z"/>
</g>
<g>
</g>
<g>
</g>
<g>
</g>
<g>
</g>
<g>
</g>
<g>
</g>
<g>
</g>
<g>
</g>
<g>
</g>
<g>
</g>
<g>
</g>
<g>
</g>
<g>
</g>
<g>
</g>
<g>
</g>
</svg>
