<?xml version="1.0" encoding="iso-8859-1"?>
<!-- Generator: Adobe Illustrator 19.0.0, SVG Export Plug-In . SVG Version: 6.00 Build 0)  -->
<svg version="1.1" id="Layer_1" xmlns="http://www.w3.org/2000/svg" xmlns:xlink="http://www.w3.org/1999/xlink" x="0px" y="0px"
	 viewBox="0 0 512 512" style="enable-background:new 0 0 512 512;" xml:space="preserve">
<circle style="fill:#71E2EF;" cx="256" cy="256" r="256"/>
<path style="fill:#38C6D9;" d="M264.539,511.843c130.308-4.272,235.97-105.919,246.572-234.53L378.077,144.279L212.399,330.773
	l-24.493-24.492l-50.721,24.557L82.37,276.023l-26.117,26l45.816,45.816l-1.036,0.502L264.539,511.843z"/>
<path style="fill:#A6A8AA;" d="M103.598,321.817c-36.745,0-66.534-29.787-66.534-66.534s29.789-66.534,66.534-66.534
	c0.6,0,1.193,0.029,1.789,0.045c6.918-29.362,33.27-51.224,64.743-51.224c31.168,0,57.322,21.435,64.545,50.367
	c18.713,2.598,33.123,18.653,33.123,38.081c0,1.551-0.102,3.077-0.281,4.582c14.688,8.42,24.592,24.242,24.592,42.384
	c0,26.971-21.864,48.835-48.835,48.835L103.598,321.817z"/>
<path style="fill:#FFFFFF;" d="M280.767,282.743c-31.134,0-56.372-25.238-56.372-56.372S249.634,170,280.767,170
	c0.509,0,1.012,0.024,1.517,0.038c5.861-24.878,28.188-43.401,54.855-43.401c26.409,0,48.566,18.161,54.687,42.674
	c15.855,2.201,28.063,15.803,28.063,32.265c0,1.314-0.086,2.608-0.238,3.882c12.445,7.134,20.835,20.539,20.835,35.911
	c0,22.85-18.525,41.375-41.375,41.375H280.767z"/>
<path style="fill:#D0D1D3;" d="M419.65,205.457c0.152-1.274,0.238-2.567,0.238-3.881c0-16.462-12.209-30.063-28.063-32.265
	c-6.12-24.512-28.279-42.674-54.687-42.674c-0.038,0-0.076,0.002-0.114,0.002v156.103h62.086c22.85,0,41.375-18.525,41.375-41.375
	C440.486,225.994,432.095,212.59,419.65,205.457z"/>
<path style="fill:#808183;" d="M322.986,367.788c46.547,0,84.283-37.735,84.283-84.283s-37.735-84.283-84.283-84.283
	c-0.76,0-1.512,0.038-2.269,0.057c-8.763-37.195-42.144-64.89-82.015-64.89c-39.483,0-72.613,27.153-81.763,63.803
	c-23.705,3.291-41.958,23.628-41.958,48.238c0,1.965,0.129,3.899,0.357,5.803c-18.606,10.666-31.151,30.708-31.151,53.691
	c0,34.164,27.696,61.861,61.861,61.861h176.938V367.788z"/>
<path style="fill:#59595B;" d="M322.986,199.223c-0.76,0-1.512,0.038-2.267,0.057c-8.763-37.195-42.144-64.89-82.015-64.89
	c-0.365,0-0.726,0.019-1.09,0.022v233.375h85.373c46.549,0,84.284-37.735,84.284-84.283S369.533,199.223,322.986,199.223z"/>
<g>
	<path style="fill:#FFFFFF;" d="M268.188,315.813c-22.942,0-41.606-18.665-41.606-41.606s18.665-41.605,41.606-41.605
		s41.605,18.663,41.605,41.605S291.13,315.813,268.188,315.813z M268.188,246.394c-15.336,0-27.815,12.476-27.815,27.814
		s12.478,27.815,27.815,27.815s27.814-12.478,27.814-27.815C296.002,258.87,283.526,246.394,268.188,246.394z"/>
	<path style="fill:#FFFFFF;" d="M195.665,315.813c-21.88,0-39.683-19.754-39.683-44.037s17.801-44.037,39.683-44.037
		c10.655,0,20.652,4.615,28.155,12.995c2.541,2.838,2.298,7.197-0.54,9.737c-2.838,2.541-7.197,2.3-9.737-0.54
		c-4.849-5.42-11.198-8.402-17.879-8.402c-14.276,0-25.891,13.569-25.891,30.246s11.614,30.246,25.891,30.246
		c6.821,0,13.271-3.096,18.158-8.718c2.498-2.875,6.854-3.184,9.728-0.681c2.875,2.498,3.179,6.854,0.681,9.728
		C216.685,311.032,206.541,315.813,195.665,315.813z"/>
	<path style="fill:#FFFFFF;" d="M348.151,315.813h-27.264c-2.725,0-5.196-1.607-6.301-4.096c-1.108-2.491-0.643-5.399,1.186-7.423
		l24.352-26.957c0.072-0.081,0.148-0.162,0.228-0.24c1.208-1.217,1.876-2.832,1.876-4.548c0-3.555-2.893-6.446-6.446-6.446
		s-6.444,2.893-6.444,6.446c0,3.808-3.088,6.896-6.896,6.896s-6.896-3.088-6.896-6.896c0-11.159,9.078-20.237,20.235-20.237
		c11.157,0,20.237,9.08,20.237,20.237c0,5.325-2.045,10.338-5.761,14.141l-13.846,15.329h11.743c3.808,0,6.896,3.087,6.896,6.896
		S351.959,315.813,348.151,315.813z"/>
</g>
<g>
</g>
<g>
</g>
<g>
</g>
<g>
</g>
<g>
</g>
<g>
</g>
<g>
</g>
<g>
</g>
<g>
</g>
<g>
</g>
<g>
</g>
<g>
</g>
<g>
</g>
<g>
</g>
<g>
</g>
</svg>
