<?xml version="1.0" encoding="iso-8859-1"?>
<!-- Generator: Adobe Illustrator 19.0.0, SVG Export Plug-In . SVG Version: 6.00 Build 0)  -->
<svg version="1.1" id="Layer_1" xmlns="http://www.w3.org/2000/svg" xmlns:xlink="http://www.w3.org/1999/xlink" x="0px" y="0px"
	 viewBox="0 0 512 512" style="enable-background:new 0 0 512 512;" xml:space="preserve">
<circle style="fill:#324A5E;" cx="256" cy="256" r="256"/>
<path style="fill:#2B3B4E;" d="M498.6,337.86l-94.72-94.72l-1.858,2.925l-87.024-87.026L270.65,203.4l-85.163-85.163l-6.458,37.229
	l69.782,69.78l-5.777,5.779L130.243,118.238l-3.315,44.356l-18.706,5.972l22.88,24.076l-11.04,2.513l76.205,75.454l-74.504,40.207
	l-37.292-37.288l-14.576,7.116l37.778,37.778l-31.515,17.008l176.533,176.533c66.615,0.855,133.499-24.112,184.329-74.942
	C465.889,408.15,486.403,374.096,498.6,337.86z"/>
<path style="fill:#FC6F58;" d="M138.936,202.838c-2.396,10.923-9.775,19.932-19.997,24.466
	c-23.38,10.366-39.734,34.202-39.734,61.318c0,7.123,1.141,13.976,3.229,20.402h336.787c2.322-7.151,3.475-14.829,3.186-22.821
	c-1.291-35.704-31.472-63.591-67.2-63.591h-5.341l-15.7-36.231c-2.276-5.249-5.023-10.233-8.19-14.917
	c-12.322-18.229-33.151-28.862-55.155-28.862h-63.381c-21.587,0-42.127,10.195-54.467,27.908
	C146.339,180.038,141.51,191.109,138.936,202.838z"/>
<path style="fill:#F1543F;" d="M422.409,286.203c-1.291-35.704-31.472-63.591-67.2-63.591h-5.341l-15.7-36.231
	c-2.276-5.249-5.023-10.233-8.19-14.917c-12.322-18.229-33.151-28.862-55.155-28.862h-30.339v166.422h178.736
	C421.545,301.873,422.697,294.195,422.409,286.203z"/>
<g>
	<path style="fill:#FD8469;" d="M336.525,222.611l-13.429-30.992c-1.824-4.21-4.001-8.223-6.489-12.016
		c-10.681-16.277-28.969-25.947-48.438-25.947H248.03v68.954H336.525z"/>
	<path style="fill:#FD8469;" d="M232.026,222.611v-68.954h-18.818c-18.86,0-36.761,8.995-47.457,24.529
		c-8.73,12.678-13.788,27.72-13.788,43.856v0.571h80.063V222.611z"/>
</g>
<path style="fill:#F1543F;" d="M415.384,339.828H86.273c-7.659,0-13.869-6.21-13.869-13.869V304.09
	c0-7.659,6.21-13.869,13.869-13.869h329.113c7.659,0,13.869,6.21,13.869,13.869v21.869
	C429.253,333.619,423.043,339.828,415.384,339.828z"/>
<path style="fill:#C1321F;" d="M415.384,290.221H240.485v49.607h174.899c7.659,0,13.869-6.21,13.869-13.869V304.09
	C429.253,296.431,423.043,290.221,415.384,290.221z"/>
<g>
	<circle style="fill:#F9B54C;" cx="150.411" cy="335.42" r="39.205"/>
	<circle style="fill:#F9B54C;" cx="348.832" cy="335.42" r="39.205"/>
</g>
<g>
	<path style="fill:#F4A200;" d="M150.414,296.222c21.652,0,39.205,17.553,39.205,39.205s-17.553,39.205-39.205,39.205V296.222z"/>
	<path style="fill:#F4A200;" d="M348.841,296.222c21.652,0,39.205,17.553,39.205,39.205s-17.553,39.205-39.205,39.205V296.222z"/>
</g>
<path style="fill:#FFFFFF;" d="M75.602,283.179c-3.248,0-6.275-2.055-7.359-5.306c-1.353-4.063,0.841-8.457,4.908-9.812
	l56.725-18.91c10.276-3.424,17.18-13.003,17.18-23.835V196.21c0-4.284,3.474-7.758,7.758-7.758s7.758,3.474,7.758,7.758v29.105
	c0,17.522-11.169,33.015-27.789,38.555l-56.725,18.91C77.245,283.05,76.416,283.179,75.602,283.179z"/>
<path style="fill:#E6F3FF;" d="M167.009,203.695h-27.593c-14.476,0-26.21-11.735-26.21-26.21v-16.996h80.012v16.996
	C193.217,191.96,181.484,203.695,167.009,203.695z"/>
<path style="fill:#CFDBE6;" d="M152.566,160.489v43.206h14.443c14.476,0,26.209-11.735,26.209-26.209V160.49h-40.651V160.489z"/>
<path style="fill:#E6F3FF;" d="M127.066,160.882h-2.958c-2.234,0-4.046-1.812-4.046-4.046v-36.109c0-2.234,1.812-4.046,4.046-4.046
	h2.958c2.234,0,4.046,1.812,4.046,4.046v36.109C131.112,159.07,129.3,160.882,127.066,160.882z"/>
<path style="fill:#CFDBE6;" d="M182.317,160.882h-2.958c-2.234,0-4.046-1.812-4.046-4.046v-36.109c0-2.234,1.812-4.046,4.046-4.046
	h2.958c2.234,0,4.046,1.812,4.046,4.046v36.109C186.365,159.07,184.553,160.882,182.317,160.882z"/>
<path style="fill:#F9B54C;" d="M196.775,169.17h-87.124c-1.115,0-2.02-0.905-2.02-2.02v-16.218c0-1.115,0.905-2.02,2.02-2.02h87.124
	c1.115,0,2.02,0.905,2.02,2.02v16.218C198.796,168.265,197.891,169.17,196.775,169.17z"/>
<path style="fill:#F4A200;" d="M196.775,148.911h-44.21v20.259h44.21c1.115,0,2.02-0.905,2.02-2.02v-16.218
	C198.796,149.816,197.891,148.911,196.775,148.911z"/>
<g>
</g>
<g>
</g>
<g>
</g>
<g>
</g>
<g>
</g>
<g>
</g>
<g>
</g>
<g>
</g>
<g>
</g>
<g>
</g>
<g>
</g>
<g>
</g>
<g>
</g>
<g>
</g>
<g>
</g>
</svg>
