<?xml version="1.0" encoding="iso-8859-1"?>
<!-- Generator: Adobe Illustrator 19.0.0, SVG Export Plug-In . SVG Version: 6.00 Build 0)  -->
<svg version="1.1" id="Layer_1" xmlns="http://www.w3.org/2000/svg" xmlns:xlink="http://www.w3.org/1999/xlink" x="0px" y="0px"
	 viewBox="0 0 512 512" style="enable-background:new 0 0 512 512;" xml:space="preserve">
<circle style="fill:#FFEDB5;" cx="256" cy="256" r="256"/>
<path style="fill:#FEE187;" d="M328.556,501.553c79.45-23.44,142.814-84.373,169.6-162.328L308.536,149.606l-10.228-3.505
	l-55.436-22.495h-52.608l-62.623,60.637l-6.106,59.085l0.934,16.551l0,0l0,0l-5.516,30.074L328.556,501.553z"/>
<path style="fill:#8BC180;" d="M389.934,325.556H227.125c-19.244,0-37.193-5.575-52.379-15.153
	c-4.92,2.919-10.392,4.875-16.036,5.592c18.961,14.617,42.675,23.352,68.415,23.352h162.809c3.808,0,6.896-3.087,6.896-6.896
	S393.742,325.556,389.934,325.556z"/>
<path style="fill:#6CAF5F;" d="M389.934,325.556H242.783v13.791h147.151c3.808,0,6.896-3.088,6.896-6.896
	S393.742,325.556,389.934,325.556z"/>
<circle style="fill:#59595B;" cx="158.151" cy="289.944" r="26.658"/>
<circle style="fill:#272525;" cx="328.576" cy="289.944" r="26.658"/>
<path style="fill:#D35933;" d="M332.336,218.374l-27.062-34.13c-11.8-14.882-29.753-23.559-48.745-23.559h-52.162
	c-4.923,0-9.425,2.782-11.626,7.185l-25.252,50.502l-26.572,4.653c-16.672,3.396-28.648,18.06-28.648,35.073v19.385
	c0,10.499,8.511,19.011,19.011,19.011h222.367c8.271,0,15.222-6.215,16.146-14.434l3.496-22.714
	c1.383-12.305-5.218-24.126-16.418-29.406L332.336,218.374z"/>
<path style="fill:#B54324;" d="M356.873,229.94l-24.535-11.566l-27.062-34.13c-11.8-14.882-29.753-23.559-48.745-23.559h-13.746
	v135.808h110.864c8.271,0,15.224-6.215,16.146-14.434l3.496-22.714C374.674,247.039,368.073,235.218,356.873,229.94z"/>
<path style="fill:#272525;" d="M245.805,212.521h62.729l-18.941-23.886c-8.259-10.416-20.823-16.489-34.116-16.489h-9.673V212.521z"
	/>
<path style="fill:#59595B;" d="M239.98,172.146h-27.888c-3.239,0-6.199,1.829-7.647,4.727l-17.825,35.649h53.36V172.146z"/>
<path style="fill:#D0D1D3;" d="M120.985,234.734c-4.16,4.822-7.049,10.726-8.178,17.189h23.652c9.494,0,17.189-7.696,17.189-17.189
	H120.985z"/>
<circle style="fill:#59595B;" cx="334.696" cy="248.898" r="8.914"/>
<path style="fill:#8BC180;" d="M128.569,228.076c-0.003-0.302-0.019-0.793-0.019-1.096c0-54.355,44.22-98.576,98.576-98.576
	s98.576,44.22,98.576,98.576v14.514c0,3.808,3.088,6.896,6.896,6.896s6.896-3.088,6.896-6.896V226.98
	c0-61.959-50.407-112.368-112.368-112.368S114.759,165.019,114.759,226.98c0,5.168,0.46,10.462,1.14,15.448
	C118.962,236.79,123.914,231.948,128.569,228.076z"/>
<path style="fill:#6CAF5F;" d="M242.785,115.728v13.934c46.938,7.525,82.918,48.292,82.918,97.318v14.514
	c0,3.808,3.088,6.896,6.896,6.896s6.896-3.088,6.896-6.896V226.98C339.492,170.336,297.355,123.373,242.785,115.728z"/>
<g>
	<path style="fill:#E09112;" d="M395.071,316.109L395.071,316.109c0-2.479,2.01-4.489,4.489-4.489h26.938
		c2.479,0,4.489,2.01,4.489,4.489l0,0c0,2.479-2.01,4.489-4.489,4.489H399.56C397.081,320.598,395.071,318.588,395.071,316.109z"/>
	<path style="fill:#E09112;" d="M395.071,348.793L395.071,348.793c0-2.479,2.01-4.489,4.489-4.489h26.938
		c2.479,0,4.489,2.01,4.489,4.489l0,0c0,2.479-2.01,4.489-4.489,4.489H399.56C397.081,353.282,395.071,351.272,395.071,348.793z"/>
</g>
<path style="fill:#477F3C;" d="M407.642,302.028c0-2.919-2.601-5.161-5.485-4.715c-17.034,2.638-30.072,17.365-30.072,35.137
	s13.038,32.499,30.072,35.137c2.884,0.446,5.485-1.796,5.485-4.715V302.028z"/>
<g>
</g>
<g>
</g>
<g>
</g>
<g>
</g>
<g>
</g>
<g>
</g>
<g>
</g>
<g>
</g>
<g>
</g>
<g>
</g>
<g>
</g>
<g>
</g>
<g>
</g>
<g>
</g>
<g>
</g>
</svg>
