<?xml version="1.0" encoding="iso-8859-1"?>
<!-- Generator: Adobe Illustrator 19.0.0, SVG Export Plug-In . SVG Version: 6.00 Build 0)  -->
<svg version="1.1" id="Layer_1" xmlns="http://www.w3.org/2000/svg" xmlns:xlink="http://www.w3.org/1999/xlink" x="0px" y="0px"
	 viewBox="0 0 512 512" style="enable-background:new 0 0 512 512;" xml:space="preserve">
<circle style="fill:#71E2EF;" cx="256" cy="256" r="256"/>
<path style="fill:#38C6D9;" d="M275.049,511.295c108.232-7.961,197.751-83.211,226.904-184.086L246.417,71.673l-1.946,126.736
	l-104.82,64.643l102.259,102.259l-0.045,2.97l37.702,37.279l-88.752,22.683L275.049,511.295z"/>
<path style="fill:#477F3C;" d="M238.751,423.169c0.495,0.047,0.993,0.076,1.5,0.076c8.699,0,15.75-7.052,15.75-15.75
	c0-8.699-7.051-15.75-15.75-15.75c-6.309,0-11.736,3.718-14.25,9.076c-0.495-0.047-0.993-0.076-1.5-0.076
	c-6.968,0-12.869,4.53-14.945,10.802c-0.99-0.195-2.008-0.302-3.055-0.302c-8.699,0-15.75,7.051-15.75,15.75
	c0,0.422,0.031,0.836,0.064,1.25h44.149C236.541,426.832,237.839,425.112,238.751,423.169z"/>
<path style="fill:#2E5E24;" d="M350.255,428.246c0.033-0.414,0.064-0.827,0.064-1.25c0-8.699-7.051-15.75-15.75-15.75
	c-0.781,0-1.543,0.078-2.293,0.188c-0.31-0.124-0.624-0.243-0.94-0.36c-2.212-6.022-7.978-10.328-14.767-10.328
	c-0.507,0-1.005,0.029-1.5,0.076c-2.513-5.358-7.942-9.076-14.25-9.076c-1.855,0-3.625,0.338-5.279,0.926
	c-4.53-5.779-11.559-9.506-19.471-9.506c-13.669,0-24.75,11.081-24.75,24.75c0,8.53,4.315,16.05,10.881,20.501h88.059
	L350.255,428.246z"/>
<polygon style="fill:#FF5419;" points="274.566,428.415 228.066,428.415 243.565,205.662 259.065,205.662 "/>
<polygon style="fill:#C92F00;" points="259.065,205.662 250.828,205.662 250.828,428.415 274.566,428.415 "/>
<g>
	<path style="fill:#FFFFFF;" d="M244.129,71.835v115.822l13.65,13.65c2.676,2.676,7.215,0.405,6.68-3.339L246.417,71.673
		C246.215,70.259,244.129,70.408,244.129,71.835z"/>
	<path style="fill:#FFFFFF;" d="M363.16,259.21l-100.305-57.911l-18.647,4.996c-3.655,0.979-3.958,6.046-0.448,7.456l118.396,47.523
		C363.482,261.804,364.397,259.924,363.16,259.21z"/>
	<path style="fill:#FFFFFF;" d="M139.65,263.052l100.305-57.911l4.996-18.647c0.979-3.655-3.256-6.451-6.232-4.115l-100.354,78.772
		C137.242,262.034,138.414,263.766,139.65,263.052z"/>
</g>
<circle style="fill:#FFC61B;" cx="251.311" cy="196.663" r="18.751"/>
<path style="fill:#EAA22F;" d="M251.316,177.911c-0.164,0-0.324,0.021-0.486,0.024v37.452c0.164,0.003,0.322,0.024,0.486,0.024
	c10.356,0,18.751-8.395,18.751-18.749C270.065,186.306,261.672,177.911,251.316,177.911z"/>
<g>
</g>
<g>
</g>
<g>
</g>
<g>
</g>
<g>
</g>
<g>
</g>
<g>
</g>
<g>
</g>
<g>
</g>
<g>
</g>
<g>
</g>
<g>
</g>
<g>
</g>
<g>
</g>
<g>
</g>
</svg>
