<?xml version="1.0" encoding="iso-8859-1"?>
<!-- Generator: Adobe Illustrator 19.0.0, SVG Export Plug-In . SVG Version: 6.00 Build 0)  -->
<svg version="1.1" id="Layer_1" xmlns="http://www.w3.org/2000/svg" xmlns:xlink="http://www.w3.org/1999/xlink" x="0px" y="0px"
	 viewBox="0 0 512 512" style="enable-background:new 0 0 512 512;" xml:space="preserve">
<circle style="fill:#273B7A;" cx="256" cy="256" r="256"/>
<path style="fill:#121149;" d="M511.054,277.949L338.627,104.705l-60.282,43.739l-42.922-43.739l-20.787,30.611l-29.748,20.554
	l-25.348,10.487v137.338l-13.355,33.904l-41.027,51.159l121.566,121.566C236.334,511.419,246.098,512,256,512
	C389.989,512,499.917,409.057,511.054,277.949z"/>
<path style="fill:#808183;" d="M346.522,123.664c0-14.753-11.959-26.712-26.712-26.712c-15.877,0-28.52,13.853-26.498,30.132
	c-12.891-0.124-22.245,10.483-20.78,23.292h-11.941c-11.55,0-20.914,9.364-20.914,20.914v5.798h110.166
	c6.494,0,14.71-4.46,18.199-9.938C381.569,145.911,366.644,123.664,346.522,123.664z"/>
<path style="fill:#59595B;" d="M346.522,123.664c0-14.753-11.959-26.712-26.712-26.712c-0.203,0-0.398,0.028-0.6,0.033v80.103
	h30.632c6.494,0,14.71-4.46,18.199-9.938C381.569,145.911,366.644,123.664,346.522,123.664z"/>
<path style="fill:#D0D1D3;" d="M243.319,123.664c0-14.753-11.959-26.712-26.712-26.712c-14.689,0-26.608,11.857-26.71,26.521
	c-14.795,0.209-26.817,12.107-26.712,26.902l0,0c-14.753,0-26.712,11.959-26.712,26.712l0,0h106.146
	c14.972,0,27.688-12.252,27.407-27.222C269.753,135.349,257.9,123.664,243.319,123.664z"/>
<path style="fill:#A6A8AA;" d="M243.319,123.664c0-14.753-11.959-26.712-26.712-26.712c-0.086,0-0.171,0.012-0.257,0.012v80.122
	h26.267c14.972,0,27.688-12.252,27.407-27.222C269.753,135.349,257.9,123.664,243.319,123.664z"/>
<polygon style="fill:#EAA22F;" points="176.766,319.321 122.518,319.321 136.08,176.106 163.204,176.106 "/>
<polygon style="fill:#E09112;" points="163.204,176.106 149.118,176.106 149.118,319.321 176.766,319.321 "/>
<polygon style="fill:#EAA22F;" points="272.243,319.321 217.993,319.321 231.555,176.106 258.681,176.106 "/>
<polygon style="fill:#E09112;" points="258.681,176.106 246.232,176.106 246.232,319.321 272.243,319.321 "/>
<path style="fill:#D0D1D3;" d="M319.981,293.281l-119.346-47.738v47.738l-95.477-47.738v143.215h214.823
	C319.981,388.758,321.908,293.281,319.981,293.281z"/>
<path style="fill:#A6A8AA;" d="M319.981,293.281l-119.346-47.738v47.738l-0.374-0.186v95.663h119.72
	C319.981,388.758,321.908,293.281,319.981,293.281z"/>
<rect x="293.098" y="281.91" style="fill:#E09112;" width="106.848" height="106.848"/>
<rect x="345.643" y="281.91" style="fill:#FF5419;" width="54.303" height="106.846"/>
<rect x="239.675" y="308.631" style="fill:#272525;" width="26.712" height="26.712"/>
<rect x="319.802" y="335.334" style="fill:#59595B;" width="53.424" height="53.424"/>
<rect x="345.643" y="335.334" style="fill:#272525;" width="27.582" height="53.424"/>
<rect x="186.251" y="308.631" style="fill:#59595B;" width="26.712" height="26.712"/>
<rect x="200.266" y="308.631" style="fill:#272525;" width="12.703" height="26.712"/>
<rect x="132.827" y="308.631" style="fill:#59595B;" width="26.712" height="26.712"/>
<g>
</g>
<g>
</g>
<g>
</g>
<g>
</g>
<g>
</g>
<g>
</g>
<g>
</g>
<g>
</g>
<g>
</g>
<g>
</g>
<g>
</g>
<g>
</g>
<g>
</g>
<g>
</g>
<g>
</g>
</svg>
