<?xml version="1.0" encoding="iso-8859-1"?>
<!-- Generator: Adobe Illustrator 19.0.0, SVG Export Plug-In . SVG Version: 6.00 Build 0)  -->
<svg version="1.1" id="Layer_1" xmlns="http://www.w3.org/2000/svg" xmlns:xlink="http://www.w3.org/1999/xlink" x="0px" y="0px"
	 viewBox="0 0 512 512" style="enable-background:new 0 0 512 512;" xml:space="preserve">
<circle style="fill:#FFD15D;" cx="256" cy="256" r="256"/>
<path style="fill:#F9B54C;" d="M511.962,259.024L379.337,126.973l-79.725,183.044L89.543,374.684l135.689,135.468
	C235.322,511.362,245.586,512,256,512C396.374,512,510.34,399.013,511.962,259.024z"/>
<polygon style="fill:#324A5E;" points="188.93,374.684 89.543,374.684 89.543,200.759 188.93,265.981 "/>
<polygon style="fill:#2B3B4E;" points="263.47,374.684 164.083,374.684 164.083,200.759 263.47,265.981 "/>
<polygon style="fill:#324A5E;" points="338.01,374.684 238.623,374.684 238.623,200.759 338.01,265.981 "/>
<polygon style="fill:#2B3B4E;" points="415.561,374.684 298.105,374.684 324.999,126.973 379.335,126.973 "/>
<polygon style="fill:#1D2A38;" points="379.335,126.973 353.115,126.973 353.115,374.684 415.561,374.684 "/>
<polygon style="fill:#FC6F58;" points="314.258,225.606 393.804,225.606 386.515,175.913 319.669,175.913 "/>
<polygon style="fill:#F1543F;" points="386.515,175.913 353.115,175.913 353.115,225.606 393.804,225.606 "/>
<g>
	<rect x="102.348" y="275.29" style="fill:#31BAFD;" width="49.693" height="24.847"/>
	<rect x="177.631" y="275.29" style="fill:#31BAFD;" width="49.693" height="24.847"/>
	<rect x="249.915" y="275.29" style="fill:#31BAFD;" width="49.693" height="24.847"/>
</g>
<g>
</g>
<g>
</g>
<g>
</g>
<g>
</g>
<g>
</g>
<g>
</g>
<g>
</g>
<g>
</g>
<g>
</g>
<g>
</g>
<g>
</g>
<g>
</g>
<g>
</g>
<g>
</g>
<g>
</g>
</svg>
