<?xml version="1.0" encoding="iso-8859-1"?>
<!-- Generator: Adobe Illustrator 19.0.0, SVG Export Plug-In . SVG Version: 6.00 Build 0)  -->
<svg version="1.1" id="Layer_1" xmlns="http://www.w3.org/2000/svg" xmlns:xlink="http://www.w3.org/1999/xlink" x="0px" y="0px"
	 viewBox="0 0 512 512" style="enable-background:new 0 0 512 512;" xml:space="preserve">
<circle style="fill:#324A5E;" cx="256" cy="256" r="256"/>
<path style="fill:#2B3B4E;" d="M510.619,282.488l-168.712-168.71l-218.934,94.815l-9.195,37.064l170.115,170.115l-19.02,10.142
	l72.763,72.763c36.321-12.186,70.456-32.727,99.385-61.655C480.259,393.78,504.782,338.918,510.619,282.488z"/>
<path style="fill:#84DBFF;" d="M369.778,391.111c-1.064,0-2.101,0.105-3.124,0.26c1.95-2.434,3.124-5.518,3.124-8.88
	c0-7.854-6.368-14.222-14.222-14.222c-0.145,0-0.286,0.017-0.431,0.022V245.657h-56.889v122.635
	c-7.654,0.229-13.791,6.491-13.791,14.2c0,1.846,0.364,3.605,1.003,5.222c-0.334-0.014-0.664-0.05-1.003-0.05
	c-13.329,0-24.135,10.805-24.135,24.135s10.805,24.135,24.135,24.135c8.478,0,15.922-4.38,20.227-10.993
	c3.794,4.606,9.542,7.546,15.975,7.546c2.555,0,4.989-0.484,7.247-1.331c3.47,6.556,10.352,11.028,18.287,11.028
	c7.713,0,14.427-4.23,17.984-10.488c1.786,0.503,3.663,0.791,5.611,0.791c11.424,0,20.687-9.263,20.687-20.687
	S381.202,391.111,369.778,391.111z M355.556,396.714c0.034,0,0.067-0.005,0.102-0.005c-0.176,0.165-0.362,0.319-0.533,0.49v-0.507
	C355.269,396.697,355.411,396.714,355.556,396.714z"/>
<path style="fill:#31BAFD;" d="M369.778,391.111c-1.064,0-2.101,0.105-3.124,0.26c1.95-2.434,3.124-5.518,3.124-8.88
	c0-7.854-6.368-14.222-14.222-14.222c-0.145,0-0.286,0.017-0.431,0.022V245.657h-29.593v186.211
	c0.803-0.198,1.596-0.428,2.363-0.714c3.47,6.556,10.352,11.028,18.287,11.028c7.713,0,14.427-4.23,17.984-10.488
	c1.786,0.503,3.663,0.791,5.611,0.791c11.424,0,20.687-9.263,20.687-20.687S381.202,391.111,369.778,391.111z M355.125,397.198
	v-0.507c0.145,0.005,0.286,0.022,0.431,0.022c0.034,0,0.067-0.005,0.102-0.005C355.481,396.874,355.295,397.028,355.125,397.198z"/>
<rect x="291.771" y="234.02" style="fill:#B8C9D9;" width="70.68" height="28.444"/>
<rect x="325.525" y="234.02" style="fill:#8EA7BC;" width="36.919" height="28.444"/>
<path style="fill:#CFDBE6;" d="M113.778,217.212l228.13-74.99v-28.444c0,0-113.528,8.22-149.98,18.101
	c-47.694,12.929-78.15,34.99-78.15,78.152V217.212z"/>
<path style="fill:#B8C9D9;" d="M116.077,190.866c-1.508,5.88-2.3,12.248-2.3,19.165v7.182l228.13-74.99v-13.671L116.077,190.866z"/>
<path style="fill:#E6F3FF;" d="M369.778,245.657h-256v-56.889h231.146c13.726,0,24.852,11.126,24.852,24.852v32.037H369.778z"/>
<path style="fill:#CFDBE6;" d="M369.778,213.621c0-13.726-11.126-24.854-24.854-24.854H325.53v56.889h44.247V213.621z"/>
<g>
</g>
<g>
</g>
<g>
</g>
<g>
</g>
<g>
</g>
<g>
</g>
<g>
</g>
<g>
</g>
<g>
</g>
<g>
</g>
<g>
</g>
<g>
</g>
<g>
</g>
<g>
</g>
<g>
</g>
</svg>
