<?xml version="1.0" encoding="iso-8859-1"?>
<!-- Generator: Adobe Illustrator 19.0.0, SVG Export Plug-In . SVG Version: 6.00 Build 0)  -->
<svg version="1.1" id="Layer_1" xmlns="http://www.w3.org/2000/svg" xmlns:xlink="http://www.w3.org/1999/xlink" x="0px" y="0px"
	 viewBox="0 0 512 512" style="enable-background:new 0 0 512 512;" xml:space="preserve">
<circle style="fill:#FFEDB5;" cx="256" cy="256" r="256"/>
<path style="fill:#FEE187;" d="M222.386,222.613L99.785,253.635l80.27,80.27l-66.205,44.804l133.115,133.115
	c3.001,0.103,6.01,0.176,9.035,0.176c133.303,0,242.79-101.89,254.874-232.034l-108.97-108.97l-17.158,26.453L272.632,85.333
	l6.225,37.533l-48.43-50.042l-2.308,57.896L222.386,222.613z"/>
<polygon style="fill:#A4C49D;" points="159.577,286.696 230.428,72.825 301.28,286.696 "/>
<polygon style="fill:#8BC180;" points="230.428,72.825 229.998,74.124 229.998,286.696 301.28,286.696 "/>
<path style="fill:#6CAF5F;" d="M168.943,372.876c0.567,0.053,1.141,0.086,1.724,0.086c9.997,0,18.101-8.104,18.101-18.101
	s-8.104-18.101-18.101-18.101c-7.251,0-13.488,4.274-16.377,10.43c-0.567-0.053-1.141-0.086-1.724-0.086
	c-8.008,0-14.789,5.206-17.175,12.414c-1.136-0.224-2.308-0.347-3.512-0.347c-9.997,0-18.101,8.104-18.101,18.101
	c0,0.484,0.034,0.962,0.072,1.436h50.738C166.403,377.087,167.896,375.108,168.943,372.876z"/>
<g>
	<path style="fill:#477F3C;" d="M339.609,372.876c0.567,0.053,1.141,0.086,1.724,0.086c9.997,0,18.101-8.104,18.101-18.101
		s-8.104-18.101-18.101-18.101c-7.251,0-13.488,4.274-16.377,10.43c-0.567-0.053-1.141-0.086-1.724-0.086
		c-8.008,0-14.789,5.206-17.175,12.414c-1.136-0.224-2.308-0.347-3.512-0.347c-9.997,0-18.101,8.104-18.101,18.101
		c0,0.484,0.034,0.962,0.072,1.436h50.738C337.07,377.087,338.563,375.108,339.609,372.876z"/>
	<path style="fill:#477F3C;" d="M284.372,378.709c0.038-0.476,0.072-0.952,0.072-1.436c0-9.997-8.104-18.101-18.101-18.101
		c-0.898,0-1.772,0.088-2.636,0.217c-0.355-0.143-0.717-0.278-1.081-0.414c-2.543-6.921-9.169-11.869-16.972-11.869
		c-0.583,0-1.155,0.033-1.724,0.086c-2.889-6.156-9.126-10.43-16.377-10.43c-2.131,0-4.167,0.388-6.066,1.064
		c-5.208-6.642-13.284-10.924-22.378-10.924c-15.71,0-28.444,12.734-28.444,28.444c0,9.802,4.96,18.446,12.505,23.561h101.202
		V378.709z"/>
</g>
<rect x="311.63" y="282.686" style="fill:#66382F;" width="48.012" height="96.025"/>
<rect x="335.162" y="282.686" style="fill:#562D28;" width="24.483" height="96.025"/>
<rect x="258.086" y="282.686" style="fill:#66382F;" width="29.098" height="96.025"/>
<rect x="272.636" y="282.686" style="fill:#562D28;" width="14.55" height="96.025"/>
<rect x="158.134" y="282.686" style="fill:#6D3E38;" width="40.738" height="96.025"/>
<rect x="178.286" y="282.686" style="fill:#5B2F2C;" width="20.589" height="96.025"/>
<circle style="fill:#3D6D32;" cx="335.627" cy="220.85" r="82.937"/>
<path style="fill:#2E5E24;" d="M335.632,137.919c-0.16,0-0.317,0.01-0.476,0.012v165.838c0.16,0.002,0.317,0.012,0.476,0.012
	c45.801,0,82.932-37.129,82.932-82.932S381.435,137.919,335.632,137.919z"/>
<polygon style="fill:#6CAF5F;" points="209.632,325.398 272.632,85.333 335.632,325.398 "/>
<g>
	<polygon style="fill:#477F3C;" points="272.632,85.333 272.234,86.852 272.234,325.398 335.632,325.398 	"/>
	<path style="fill:#477F3C;" d="M240.319,207.888c0.569-2.363,0.903-4.818,0.903-7.358c0-17.32-14.041-31.361-31.361-31.361
		c-1.591,0-3.143,0.157-4.672,0.386c-3.91-10.983-14.367-18.86-26.691-18.86s-22.781,7.877-26.691,18.86
		c-1.527-0.229-3.079-0.386-4.672-0.386c-17.32,0-31.361,14.041-31.361,31.361c0,2.539,0.334,4.994,0.903,7.358
		c-13.217,2.41-23.243,13.958-23.243,27.87c0,15.66,12.695,28.355,28.355,28.355c0,15.074,11.773,27.365,26.619,28.267
		c6.463,8.644,16.748,14.265,28.372,14.265c11.623,0,21.907-5.62,28.37-14.264c0.565,0.034,1.127,0.086,1.703,0.086
		c15.66,0,28.355-12.695,28.355-28.355c15.66,0,28.355-12.695,28.355-28.355C263.564,221.846,253.537,210.298,240.319,207.888z"/>
</g>
<path style="fill:#2E5E24;" d="M240.319,207.888c0.569-2.363,0.903-4.818,0.903-7.358c0-17.32-14.041-31.361-31.361-31.361
	c-1.591,0-3.143,0.157-4.672,0.386c-3.91-10.983-14.367-18.86-26.691-18.86c-0.074,0-0.145,0.009-0.219,0.009V306.6
	c11.004-0.462,20.689-5.949,26.871-14.219c0.565,0.034,1.127,0.086,1.703,0.086c15.66,0,28.355-12.695,28.355-28.355
	c15.66,0,28.355-12.695,28.355-28.355C263.564,221.846,253.537,210.298,240.319,207.888z"/>
<g>
</g>
<g>
</g>
<g>
</g>
<g>
</g>
<g>
</g>
<g>
</g>
<g>
</g>
<g>
</g>
<g>
</g>
<g>
</g>
<g>
</g>
<g>
</g>
<g>
</g>
<g>
</g>
<g>
</g>
</svg>
