<?xml version="1.0" encoding="iso-8859-1"?>
<!-- Generator: Adobe Illustrator 19.0.0, SVG Export Plug-In . SVG Version: 6.00 Build 0)  -->
<svg version="1.1" id="Layer_1" xmlns="http://www.w3.org/2000/svg" xmlns:xlink="http://www.w3.org/1999/xlink" x="0px" y="0px"
	 viewBox="0 0 512.002 512.002" style="enable-background:new 0 0 512.002 512.002;" xml:space="preserve">
<circle style="fill:#FFC61B;" cx="256.001" cy="256" r="256"/>
<path style="fill:#EAA22F;" d="M508.479,298.444L360.737,149.819l-3.6,52.165l-64.503-60.675l-22.554,92.855l-3.16,5.746
	L148.257,405.823l106.158,106.158c0.529,0.003,1.057,0.021,1.586,0.021C382.923,512,488.256,419.626,508.479,298.444z"/>
<path style="fill:#121149;" d="M372.128,167.555l-2.855,1.951c-0.776-9.087-5.098-17.384-12.147-23.092l-24.007-19.439l-7.025,9.216
	l24.005,19.439c5.046,4.086,7.94,10.223,7.94,16.834v4.722l-20.568,14.064c-1.329,0.908-2.179,2.853-2.179,4.991v32.353
	c0,4.836,2.696,8.756,6.023,8.756h16.724v115.957c0,9.695-7.652,17.582-17.06,17.582c-9.407,0-17.06-7.887-17.06-17.582v-70.327
	c0-16.158-12.755-29.303-28.432-29.303v11.721c9.407,0,17.06,7.887,17.06,17.582v70.327c0,16.158,12.755,29.303,28.432,29.303
	s28.432-13.145,28.432-29.303V237.349h2.1c3.327,0,6.023-3.92,6.023-8.756v-56.049C377.536,168.503,374.645,165.835,372.128,167.555
	z"/>
<path style="fill:#386895;" d="M298.678,405.823H148.257V156.031c0-11.581,9.388-20.968,20.968-20.968H277.71
	c11.581,0,20.968,9.388,20.968,20.968V405.823z"/>
<path style="fill:#273B7A;" d="M298.678,156.031c0-11.581-9.388-20.968-20.968-20.968h-55.037v270.76h76.005L298.678,156.031
	L298.678,156.031z"/>
<path style="fill:#71E2EF;" d="M271.178,245.829h-95.42c-6.88,0-12.459-5.579-12.459-12.459v-65.336
	c0-6.88,5.579-12.459,12.459-12.459h95.42c6.88,0,12.459,5.579,12.459,12.459v65.336
	C283.637,240.25,278.058,245.829,271.178,245.829z"/>
<path style="fill:#38C6D9;" d="M271.178,155.576h-48.506v90.253h48.506c6.88,0,12.459-5.579,12.459-12.459v-65.336
	C283.637,161.152,278.058,155.576,271.178,155.576z"/>
<path style="fill:#8BC180;" d="M220.811,405.214h9.585l0.121-76.603c0-3.001-2.693-5.375-5.794-4.837
	c-2.396,0.417-4.032,2.684-4.032,5.115L220.811,405.214z"/>
<path style="fill:#6CE250;" d="M217.473,312.413c7.639-19.327,34.302-37.664,36.431-39.105c0.071-0.048,0.152-0.016,0.171,0.067
	c0.569,2.507,7.492,34.118-0.145,53.445c-7.958,20.133-18.639,23.288-28.706,19.309C215.156,342.15,209.516,332.548,217.473,312.413
	z"/>
<path style="fill:#4CBF2C;" d="M253.905,273.31c0.071-0.048,0.152-0.016,0.171,0.067c0.569,2.507,7.492,34.118-0.145,53.445
	c-7.958,20.133-18.639,23.288-28.706,19.309L253.905,273.31z"/>
<path style="fill:#57B240;" d="M193.816,331.43c-8.264-19.066-2.377-50.888-1.891-53.412c0.016-0.084,0.097-0.119,0.169-0.074
	c2.174,1.37,29.424,18.827,37.688,37.893c8.611,19.865,3.287,29.648-6.644,33.952C213.207,354.097,202.427,351.294,193.816,331.43z"
	/>
<path style="fill:#43932C;" d="M223.138,349.793c-9.931,4.305-20.711,1.501-29.322-18.361c-8.264-19.066-2.377-50.888-1.891-53.412
	c0.016-0.084,0.097-0.119,0.169-0.074L223.138,349.793z"/>
<g>
</g>
<g>
</g>
<g>
</g>
<g>
</g>
<g>
</g>
<g>
</g>
<g>
</g>
<g>
</g>
<g>
</g>
<g>
</g>
<g>
</g>
<g>
</g>
<g>
</g>
<g>
</g>
<g>
</g>
</svg>
