<?xml version="1.0" encoding="iso-8859-1"?>
<!-- Generator: Adobe Illustrator 19.0.0, SVG Export Plug-In . SVG Version: 6.00 Build 0)  -->
<svg version="1.1" id="Layer_1" xmlns="http://www.w3.org/2000/svg" xmlns:xlink="http://www.w3.org/1999/xlink" x="0px" y="0px"
	 viewBox="0 0 512 512" style="enable-background:new 0 0 512 512;" xml:space="preserve">
<circle style="fill:#324A5E;" cx="256" cy="256" r="256"/>
<path style="fill:#2B3B4E;" d="M509.547,291.44L307.926,89.817l-91.862-1.181v187.763l-53.053,153.06l82.301,82.301
	c3.546,0.145,7.106,0.238,10.688,0.238C385.358,512,492.287,416.049,509.547,291.44z"/>
<path style="fill:#CFDBE6;" d="M292.202,116.364h-34.478c-2.857,0-5.172,2.315-5.172,5.172c0,2.857,2.315,5.172,5.172,5.172h12.067
	v29.306c0,2.857,2.315,5.172,5.172,5.172s5.172-2.315,5.172-5.172v-29.306h12.067c2.857,0,5.172-2.315,5.172-5.172
	C297.374,118.679,295.059,116.364,292.202,116.364z"/>
<path style="fill:#FFD15D;" d="M199.111,101.423v69.244h113.778v-69.244c0-8.887-7.204-16.089-16.089-16.089h-81.598
	C206.315,85.333,199.111,92.538,199.111,101.423z M278.661,148.021c-18.606,2.345-34.254-13.302-31.909-31.91
	c1.598-12.678,11.835-22.916,24.512-24.512c18.606-2.345,34.254,13.302,31.909,31.908
	C301.577,136.187,291.338,146.425,278.661,148.021z"/>
<path style="fill:#F9B54C;" d="M312.889,101.423c0-8.887-7.204-16.089-16.089-16.089H256v13.31
	c4.186-3.756,9.463-6.311,15.265-7.042c18.606-2.345,34.254,13.302,31.909,31.908c-1.598,12.678-11.835,22.916-24.512,24.514
	c-8.72,1.098-16.787-1.753-22.661-7.009v29.653h56.889v-69.244H312.889z"/>
<path style="fill:#FC6F58;" d="M324.668,441.32H187.33c-17.058,0-30.887-13.827-30.887-30.887V187.761
	c0.002-17.058,13.829-30.885,30.887-30.885h137.338c17.058,0,30.887,13.827,30.887,30.885v222.672
	C355.556,427.492,341.726,441.32,324.668,441.32z"/>
<path style="fill:#F1543F;" d="M324.668,156.875H256V441.32h68.668c17.058,0,30.887-13.827,30.887-30.887v-222.67
	C355.556,170.703,341.726,156.875,324.668,156.875z"/>
<g>
	<rect x="156.444" y="199.111" style="fill:#FF9988;" width="199.111" height="56.889"/>
	<rect x="156.444" y="341.333" style="fill:#FF9988;" width="199.111" height="56.889"/>
</g>
<g>
	<rect x="256" y="199.111" style="fill:#FD8469;" width="99.556" height="56.889"/>
	<rect x="256" y="341.333" style="fill:#FD8469;" width="99.556" height="56.889"/>
</g>
<g>
</g>
<g>
</g>
<g>
</g>
<g>
</g>
<g>
</g>
<g>
</g>
<g>
</g>
<g>
</g>
<g>
</g>
<g>
</g>
<g>
</g>
<g>
</g>
<g>
</g>
<g>
</g>
<g>
</g>
</svg>
