<?xml version="1.0" encoding="iso-8859-1"?>
<!-- Generator: Adobe Illustrator 19.0.0, SVG Export Plug-In . SVG Version: 6.00 Build 0)  -->
<svg version="1.1" id="Layer_1" xmlns="http://www.w3.org/2000/svg" xmlns:xlink="http://www.w3.org/1999/xlink" x="0px" y="0px"
	 viewBox="0 0 512 512" style="enable-background:new 0 0 512 512;" xml:space="preserve">
<circle style="fill:#273B7A;" cx="256" cy="256" r="256"/>
<path style="fill:#121149;" d="M505.835,312.017L339.118,145.299L226.12,226.694l-29.306,3.448l-30.861,193.202l88.64,88.64
	c0.471,0.002,0.938,0.017,1.408,0.017C378.14,512,480.289,426.456,505.835,312.017z"/>
<path style="fill:#FF7F4F;" d="M328.692,227.556H152.854v25.341c6.442,0.581,11.492,5.991,11.492,12.585v151.704
	c0,6.982,5.66,12.641,12.641,12.641s12.641-5.66,12.641-12.641v-50.567c0-6.982,5.66-12.641,12.641-12.641
	s12.641,5.66,12.641,12.641v75.852c0,6.982,5.66,12.641,12.641,12.641c6.982,0,12.641-5.66,12.641-12.641v-50.567
	c0-6.982,5.66-12.641,12.641-12.641c6.982,0,12.641,5.66,12.641,12.641c0,6.982,5.66,12.641,12.641,12.641
	c6.982,0,12.641-5.66,12.641-12.641v-25.285c0-6.982,5.66-12.641,12.641-12.641c6.982,0,12.641,5.66,12.641,12.641v50.567
	c0,6.982,5.66,12.641,12.641,12.641s12.641-5.66,12.641-12.641V252.84v-12.641C341.333,233.215,335.674,227.556,328.692,227.556z"/>
<path style="fill:#D35933;" d="M328.692,227.556h-73.266v151.971c5.741,1.195,10.056,6.28,10.056,12.376
	c0,6.982,5.66,12.641,12.641,12.641c6.982,0,12.641-5.66,12.641-12.641v-25.285c0-6.982,5.66-12.641,12.641-12.641
	c6.982,0,12.641,5.66,12.641,12.641v50.567c0,6.982,5.66,12.641,12.641,12.641c6.982,0,12.641-5.66,12.641-12.641V252.84v-12.641
	C341.333,233.215,335.674,227.556,328.692,227.556z"/>
<circle style="fill:#71E2EF;" cx="256" cy="226.694" r="116.364"/>
<path style="fill:#38C6D9;" d="M256,110.33c-0.193,0-0.381,0.014-0.574,0.014v232.698c0.193,0.002,0.381,0.014,0.574,0.014
	c64.265,0,116.364-52.098,116.364-116.364S320.265,110.33,256,110.33z"/>
<path style="fill:#477F3C;" d="M226.85,240.328c-22.568-7.053-21.628-31.501-4.232-36.202c17.396-4.701,8.463-11.754,16.455-30.56
	c7.992-18.806-4.232-12.224-12.695-29.62c-5.334-10.962-3.944-22.294-2.188-29.179c-42.617,12.09-75.259,47.831-82.849,92.157
	c23.542,24.192,53.867-6.763,59.178,12.717c5.642,20.687-1.881,28.679-1.881,28.679s-12.695,21.157-12.695,34.321
	c0,9.126,27.745,39.719,44.765,57.627c3.475,0.771,7.011,1.381,10.597,1.833c-0.898-9.383,0.457-22.073,12.341-28.429
	c20.216-10.814,23.978-50.778,23.978-50.778l-18.806-13.634C258.822,249.261,249.418,247.38,226.85,240.328z"/>
<g>
	<path style="fill:#2E5E24;" d="M277.628,262.896l-18.806-13.634c0,0-1.103-0.222-3.394-0.779v64.136
		C274.087,300.491,277.628,262.896,277.628,262.896z"/>
	<path style="fill:#2E5E24;" d="M288.849,115.064c-4.301,7.847-16.275,31.306-11.223,40.636c6.111,11.283,4.232-3.762,19.747,0
		c15.515,3.762,27.269,8.463,37.612,7.052c10.343-1.41,19.277,21.158,6.582,27.269c-12.695,6.111,11.283,49.836,11.283,49.836
		l15.732,16.325c2.46-9.419,3.779-19.299,3.779-29.489C372.364,173.84,337.113,129.245,288.849,115.064z"/>
</g>
<g>
</g>
<g>
</g>
<g>
</g>
<g>
</g>
<g>
</g>
<g>
</g>
<g>
</g>
<g>
</g>
<g>
</g>
<g>
</g>
<g>
</g>
<g>
</g>
<g>
</g>
<g>
</g>
<g>
</g>
</svg>
