<?xml version="1.0" encoding="iso-8859-1"?>
<!-- Generator: Adobe Illustrator 19.0.0, SVG Export Plug-In . SVG Version: 6.00 Build 0)  -->
<svg version="1.1" id="Layer_1" xmlns="http://www.w3.org/2000/svg" xmlns:xlink="http://www.w3.org/1999/xlink" x="0px" y="0px"
	 viewBox="0 0 512 512" style="enable-background:new 0 0 512 512;" xml:space="preserve">
<circle style="fill:#386895;" cx="256" cy="256" r="256"/>
<path style="fill:#273B7A;" d="M225.832,250.54L73.84,298.522l211.763,211.763c104.239-12.005,189.416-86.607,216.972-185.272
	L324.956,147.394l-34.857,62.831l-68.291-68.291l19.251,78.007h43.649l-31.927,57.549L225.832,250.54z"/>
<polygon style="fill:#D0D1D3;" points="276.113,217.786 221.81,141.934 148.544,241.635 248.53,258.298 "/>
<polygon style="fill:#A6A8AA;" points="276.113,217.786 221.81,141.934 221.81,253.845 248.53,258.298 "/>
<path style="fill:#71E2EF;" d="M173.253,251.402v138.774c0,6.982,5.66,12.641,12.641,12.641s12.641-5.66,12.641-12.641v-50.567
	c0-6.982,5.66-12.641,12.641-12.641c6.982,0,12.641,5.66,12.641,12.641v75.852c0,6.982,5.66,12.641,12.641,12.641
	s12.645-5.66,12.645-12.641v-50.567c0-6.982,5.66-12.641,12.641-12.641c6.982,0,12.641,5.66,12.641,12.641
	c0,6.982,5.661,12.641,12.643,12.641c6.982,0,12.641-5.66,12.641-12.641v-25.285c0-6.982,5.66-12.641,12.641-12.641
	c6.982,0,12.643,5.66,12.643,12.641v50.567c0,6.982,5.66,12.641,12.641,12.641c6.982,0,12.641-5.66,12.641-12.641V251.402
	L173.253,251.402L173.253,251.402z"/>
<path style="fill:#38C6D9;" d="M260.167,251.402v100.957c0.519-0.065,1.043-0.109,1.579-0.109c6.982,0,12.641,5.66,12.641,12.641
	c0,6.982,5.661,12.643,12.643,12.643c6.982,0,12.641-5.66,12.641-12.641v-25.285c0-6.982,5.66-12.641,12.641-12.641
	c6.982,0,12.643,5.66,12.643,12.641v50.567c0,6.982,5.66,12.641,12.641,12.641c6.982,0,12.641-5.66,12.641-12.641V251.402
	L260.167,251.402L260.167,251.402z"/>
<polygon style="fill:#FFFFFF;" points="81.886,288.18 168.657,195.089 212.902,236.463 296.226,147.394 324.956,147.394 
	415.175,288.18 "/>
<g>
	<polygon style="fill:#D0D1D3;" points="324.956,147.394 284.732,288.18 415.175,288.18 	"/>
	<polygon style="fill:#D0D1D3;" points="168.657,195.089 174.976,288.18 81.886,288.18 	"/>
</g>
<rect x="73.842" y="281.29" style="fill:#38C6D9;" width="350.522" height="17.239"/>
<rect x="260.172" y="281.29" style="fill:#02B2B2;" width="164.202" height="17.239"/>
<g>
</g>
<g>
</g>
<g>
</g>
<g>
</g>
<g>
</g>
<g>
</g>
<g>
</g>
<g>
</g>
<g>
</g>
<g>
</g>
<g>
</g>
<g>
</g>
<g>
</g>
<g>
</g>
<g>
</g>
</svg>
