<?xml version="1.0" encoding="iso-8859-1"?>
<!-- Generator: Adobe Illustrator 19.0.0, SVG Export Plug-In . SVG Version: 6.00 Build 0)  -->
<svg version="1.1" id="Layer_1" xmlns="http://www.w3.org/2000/svg" xmlns:xlink="http://www.w3.org/1999/xlink" x="0px" y="0px"
	 viewBox="0 0 512 512" style="enable-background:new 0 0 512 512;" xml:space="preserve">
<circle style="fill:#273B7A;" cx="256" cy="256" r="256"/>
<path style="fill:#121149;" d="M280.379,510.838c121.609-11.492,218.45-108.041,230.376-229.523l-125.78-125.781l-194.77,145.001
	l5.341,5.341l-63.998,56.129L280.379,510.838z"/>
<circle style="fill:#FFEDB5;" cx="256" cy="256" r="163.478"/>
<path style="fill:#FEE187;" d="M419.483,256c0-90.098-72.885-163.166-162.909-163.476v326.954
	C346.6,419.166,419.483,346.098,419.483,256z"/>
<circle style="fill:#71E2EF;" cx="256" cy="256" r="106.882"/>
<path style="fill:#38C6D9;" d="M362.882,256c0-58.837-47.544-106.556-106.308-106.868v213.735
	C315.339,362.556,362.882,314.837,362.882,256z"/>
<path style="fill:#477F3C;" d="M229.226,268.524c-20.728-6.478-19.865-28.934-3.887-33.252c15.979-4.318,7.773-10.797,15.115-28.07
	c7.342-17.274-3.887-11.228-11.661-27.207c-4.898-10.069-3.624-20.477-2.01-26.802c-39.143,11.104-69.127,43.934-76.098,84.647
	c21.623,22.221,49.478-6.211,54.356,11.681c5.182,19.001-1.727,26.343-1.727,26.343s-11.66,19.434-11.66,31.525
	c0,8.383,25.484,36.481,41.117,52.933c3.193,0.709,6.439,1.267,9.733,1.683c-0.826-8.618,0.419-20.273,11.336-26.112
	c18.57-9.933,22.025-46.64,22.025-46.64l-17.274-12.524C258.591,276.728,249.954,275.001,229.226,268.524z"/>
<g>
	<path style="fill:#2E5E24;" d="M275.865,289.252l-17.274-12.524c0,0-0.667-0.134-2.017-0.452v57.866
		C272.746,322.27,275.865,289.252,275.865,289.252z"/>
	<path style="fill:#2E5E24;" d="M286.174,153.466c-3.949,7.209-14.95,28.755-10.307,37.326c5.615,10.364,3.887-3.455,18.137,0
		c14.252,3.455,25.047,7.773,34.547,6.478c9.5-1.296,17.706,19.434,6.046,25.047c-11.66,5.615,10.364,45.777,10.364,45.777
		l14.45,14.995c2.26-8.652,3.472-17.727,3.472-27.086C362.882,207.453,330.504,166.491,286.174,153.466z"/>
</g>
<g>
	<path style="fill:#B54324;" d="M400.911,234.777l-8.62-8.62c-1.01-1.01-2.646-1.01-3.656,0c-1.01,1.01-1.01,2.646,0,3.656
		l4.205,4.205h-23.926c-1.427,0-2.586,1.158-2.586,2.586s1.158,2.586,2.586,2.586h23.926l-4.205,4.205
		c-1.01,1.01-1.01,2.646,0,3.656c0.505,0.505,1.167,0.757,1.829,0.757s1.324-0.252,1.829-0.757l8.62-8.62
		C401.922,237.425,401.922,235.787,400.911,234.777z"/>
	<path style="fill:#B54324;" d="M399.082,271.084h-23.926l4.205-4.205c1.01-1.01,1.01-2.646,0-3.656c-1.01-1.01-2.646-1.01-3.656,0
		l-8.62,8.62c-1.01,1.01-1.01,2.646,0,3.656l8.62,8.62c0.505,0.505,1.167,0.757,1.829,0.757s1.324-0.252,1.829-0.757
		c1.01-1.01,1.01-2.646,0-3.656l-4.205-4.205h23.926c1.427,0,2.586-1.158,2.586-2.586S400.512,271.084,399.082,271.084z"/>
</g>
<g>
	<path style="fill:#D35933;" d="M230.676,122.502l4.205-4.205v23.924c0,1.427,1.158,2.586,2.586,2.586s2.586-1.158,2.586-2.586
		v-23.926l4.205,4.205c0.505,0.505,1.167,0.757,1.829,0.757s1.324-0.252,1.829-0.757c1.01-1.01,1.01-2.646,0-3.656l-8.62-8.62
		c-1.01-1.01-2.646-1.01-3.656,0l-8.62,8.62c-1.01,1.01-1.01,2.646,0,3.656S229.666,123.511,230.676,122.502z"/>
	<path style="fill:#D35933;" d="M244.258,387.774l-4.205,4.205v-23.924c0-1.427-1.158-2.586-2.586-2.586s-2.586,1.158-2.586,2.586
		v23.926l-4.205-4.205c-1.01-1.01-2.646-1.01-3.656,0c-1.01,1.01-1.01,2.646,0,3.656l8.62,8.62c0.505,0.505,1.167,0.757,1.829,0.757
		s1.324-0.252,1.829-0.757l8.62-8.62c1.01-1.01,1.01-2.646,0-3.656C246.908,386.765,245.269,386.765,244.258,387.774z"/>
	<path style="fill:#D35933;" d="M119.706,247.055c0.505,0.505,1.167,0.757,1.829,0.757c0.662,0,1.324-0.252,1.829-0.757
		c1.01-1.01,1.01-2.646,0-3.656l-4.205-4.205h23.926c1.427,0,2.586-1.158,2.586-2.586s-1.158-2.586-2.586-2.586h-23.928l4.205-4.205
		c1.01-1.01,1.01-2.646,0-3.656c-1.01-1.01-2.646-1.01-3.656,0l-8.62,8.62c-1.01,1.01-1.01,2.646,0,3.656L119.706,247.055z"/>
	<path style="fill:#D35933;" d="M144.912,271.841l-8.62-8.62c-1.01-1.01-2.646-1.01-3.656,0c-1.01,1.01-1.01,2.646,0,3.656
		l4.205,4.205h-23.926c-1.427,0-2.586,1.158-2.586,2.586s1.158,2.586,2.586,2.586h23.926l-4.205,4.205
		c-1.01,1.01-1.01,2.646,0,3.656c0.505,0.505,1.167,0.757,1.829,0.757s1.324-0.252,1.829-0.757l8.62-8.62
		C145.922,274.489,145.922,272.851,144.912,271.841z"/>
	<path style="fill:#D35933;" d="M164.88,320.048c-1.01-1.01-2.646-1.01-3.656,0l-16.917,16.917v-5.946
		c0-1.427-1.158-2.586-2.586-2.586s-2.586,1.158-2.586,2.586v12.19c0,1.427,1.158,2.586,2.586,2.586h12.19
		c1.427,0,2.586-1.158,2.586-2.586s-1.158-2.586-2.586-2.586h-5.949l16.918-16.918C165.89,322.694,165.89,321.058,164.88,320.048z"
		/>
	<path style="fill:#D35933;" d="M189.261,345.5h-12.19c-1.427,0-2.586,1.158-2.586,2.586s1.158,2.586,2.586,2.586h5.947
		L166.1,367.588c-1.01,1.01-1.01,2.646,0,3.656c0.505,0.505,1.167,0.757,1.829,0.757s1.324-0.252,1.829-0.757l16.918-16.918v5.947
		c0,1.427,1.158,2.586,2.586,2.586s2.586-1.158,2.586-2.586v-12.19C191.847,346.658,190.688,345.5,189.261,345.5z"/>
	<path style="fill:#D35933;" d="M141.719,181.841c1.427,0,2.586-1.158,2.586-2.586v-5.946l16.917,16.917
		c0.505,0.505,1.167,0.757,1.829,0.757s1.324-0.252,1.829-0.757c1.01-1.01,1.01-2.646,0-3.656l-16.918-16.918h5.949
		c1.427,0,2.586-1.158,2.586-2.586s-1.158-2.586-2.586-2.586h-12.19c-1.427,0-2.586,1.158-2.586,2.586v12.19
		C139.133,180.684,140.291,181.841,141.719,181.841z"/>
	<path style="fill:#D35933;" d="M189.261,147.415c-1.427,0-2.586,1.158-2.586,2.586v5.947l-16.918-16.918
		c-1.01-1.01-2.646-1.01-3.656,0s-1.01,2.646,0,3.656l16.918,16.917h-5.947c-1.427,0-2.586,1.158-2.586,2.586
		s1.158,2.586,2.586,2.586h12.19c1.427,0,2.586-1.158,2.586-2.586v-12.19C191.847,148.573,190.688,147.415,189.261,147.415z"/>
</g>
<g>
	<path style="fill:#B54324;" d="M281.322,131.774l-4.205,4.205v-23.924c0-1.427-1.158-2.586-2.586-2.586s-2.586,1.158-2.586,2.586
		v23.926l-4.205-4.205c-1.01-1.01-2.646-1.01-3.656,0c-1.01,1.01-1.01,2.646,0,3.656l8.62,8.62c0.505,0.505,1.167,0.757,1.829,0.757
		s1.324-0.252,1.829-0.757l8.62-8.62c1.01-1.01,1.01-2.646,0-3.656C283.972,130.765,282.333,130.765,281.322,131.774z"/>
	<path style="fill:#B54324;" d="M276.359,366.225c-1.01-1.01-2.646-1.01-3.656,0l-8.62,8.62c-1.01,1.01-1.01,2.646,0,3.656
		c1.01,1.01,2.646,1.01,3.656,0l4.205-4.205v23.926c0,1.427,1.158,2.586,2.586,2.586s2.586-1.158,2.586-2.586v-23.926l4.205,4.205
		c0.505,0.505,1.167,0.757,1.829,0.757s1.324-0.252,1.829-0.757c1.01-1.01,1.01-2.646,0-3.656L276.359,366.225z"/>
	<path style="fill:#B54324;" d="M322.738,164.776c0.662,0,1.324-0.252,1.829-0.757l16.918-16.918v5.949
		c0,1.427,1.158,2.586,2.586,2.586s2.586-1.158,2.586-2.586v-12.19c0-1.427-1.158-2.586-2.586-2.586h-12.19
		c-1.427,0-2.586,1.158-2.586,2.586s1.158,2.586,2.586,2.586h5.946l-16.917,16.917c-1.01,1.01-1.01,2.646,0,3.656
		C321.415,164.524,322.077,164.776,322.738,164.776z"/>
	<path style="fill:#B54324;" d="M346.36,188.399c0,1.427,1.158,2.586,2.586,2.586h12.19c1.427,0,2.586-1.158,2.586-2.586
		s-1.158-2.586-2.586-2.586h-5.947l16.918-16.918c1.01-1.01,1.01-2.646,0-3.656c-1.01-1.01-2.646-1.01-3.656,0l-16.917,16.918
		v-5.947c0-1.427-1.158-2.586-2.586-2.586s-2.586,1.158-2.586,2.586v12.19H346.36z"/>
	<path style="fill:#B54324;" d="M344.071,354.642c-1.427,0-2.586,1.158-2.586,2.586v5.949l-16.918-16.918
		c-1.01-1.01-2.646-1.01-3.656,0c-1.01,1.01-1.01,2.646,0,3.656l16.917,16.917h-5.946c-1.427,0-2.586,1.158-2.586,2.586
		s1.158,2.586,2.586,2.586h12.19c1.427,0,2.586-1.158,2.586-2.586v-12.19C346.657,355.8,345.498,354.642,344.071,354.642z"/>
	<path style="fill:#B54324;" d="M355.188,324.463h5.947c1.427,0,2.586-1.158,2.586-2.586s-1.158-2.586-2.586-2.586h-12.19
		c-1.427,0-2.586,1.158-2.586,2.586v12.19c0,1.427,1.158,2.586,2.586,2.586s2.586-1.158,2.586-2.586v-5.947l16.917,16.918
		c0.505,0.505,1.167,0.757,1.829,0.757s1.324-0.252,1.829-0.757c1.01-1.01,1.01-2.646,0-3.656L355.188,324.463z"/>
</g>
<g>
</g>
<g>
</g>
<g>
</g>
<g>
</g>
<g>
</g>
<g>
</g>
<g>
</g>
<g>
</g>
<g>
</g>
<g>
</g>
<g>
</g>
<g>
</g>
<g>
</g>
<g>
</g>
<g>
</g>
</svg>
