<?xml version="1.0" encoding="iso-8859-1"?>
<!-- Generator: Adobe Illustrator 19.0.0, SVG Export Plug-In . SVG Version: 6.00 Build 0)  -->
<svg version="1.1" id="Layer_1" xmlns="http://www.w3.org/2000/svg" xmlns:xlink="http://www.w3.org/1999/xlink" x="0px" y="0px"
	 viewBox="0 0 512 512" style="enable-background:new 0 0 512 512;" xml:space="preserve">
<circle style="fill:#71E2EF;" cx="256" cy="256" r="256"/>
<path style="fill:#38C6D9;" d="M278.907,510.969c98.252-8.716,180.555-72.918,215.328-161.08L369.304,224.958l-139.302,52.596
	l-13.905-13.905l-52.774,17.958l-35.866-35.866l-7.139,18.663l-17.394-17.394v27.11h13.677l-5.856,15.308l-5.011,6.653
	l-27.296,14.417L278.907,510.969z"/>
<path style="fill:#272525;" d="M115.919,280.752c-0.476,0-0.962-0.067-1.443-0.207c-2.744-0.796-4.322-3.665-3.525-6.408
	l7.668-26.414c0.796-2.744,3.658-4.325,6.408-3.525c2.744,0.796,4.322,3.665,3.525,6.408l-7.668,26.414
	C120.227,279.283,118.162,280.752,115.919,280.752z"/>
<path style="fill:#59595B;" d="M78.438,310.498c0-24.935,20.213-45.147,45.147-45.147s45.147,20.213,45.147,45.147H78.438z"/>
<path style="fill:#FF5419;" d="M123.585,310.498c0-76.076,61.673-137.749,137.749-137.749s137.749,61.673,137.749,137.749H123.585z"
	/>
<path style="fill:#C92F00;" d="M261.335,172.749c-0.247,0-0.49,0.017-0.738,0.019V310.5h138.487
	C399.084,234.42,337.411,172.749,261.335,172.749z"/>
<path style="fill:#59595B;" d="M160.149,217.062c2.813,11.562,13.209,20.158,25.638,20.158c14.588,0,26.414-11.826,26.414-26.414
	c0-9.876-5.43-18.472-13.457-23.004C184.192,195.241,171.134,205.172,160.149,217.062z"/>
<g>
	<circle style="fill:#272525;" cx="294.857" cy="251.363" r="26.414"/>
	<path style="fill:#272525;" d="M321.264,210.806c8.961,0,16.865-4.472,21.64-11.295c-13.912-10.242-29.806-17.944-47.018-22.39
		c-0.662,2.313-1.038,4.746-1.038,7.271C294.85,198.982,306.676,210.806,321.264,210.806z"/>
	<path style="fill:#272525;" d="M379.251,239.259c-9.533,3.986-16.236,13.396-16.236,24.376c0,14.588,11.826,26.414,26.414,26.414
		c2.769,0,5.437-0.431,7.945-1.22C394.543,270.924,388.277,254.166,379.251,239.259z"/>
</g>
<circle style="fill:#59595B;" cx="197.715" cy="272.153" r="26.414"/>
<path style="fill:#272525;" d="M105.687,282.957c-2.396,0-4.546-1.676-5.058-4.113l-5.537-26.414
	c-0.586-2.794,1.205-5.537,4.001-6.123c2.793-0.569,5.537,1.205,6.123,4.001l5.537,26.414c0.586,2.794-1.205,5.537-4.001,6.123
	C106.396,282.919,106.039,282.957,105.687,282.957z"/>
<g>
</g>
<g>
</g>
<g>
</g>
<g>
</g>
<g>
</g>
<g>
</g>
<g>
</g>
<g>
</g>
<g>
</g>
<g>
</g>
<g>
</g>
<g>
</g>
<g>
</g>
<g>
</g>
<g>
</g>
</svg>
