<?xml version="1.0" encoding="iso-8859-1"?>
<!-- Generator: Adobe Illustrator 19.0.0, SVG Export Plug-In . SVG Version: 6.00 Build 0)  -->
<svg version="1.1" id="Layer_1" xmlns="http://www.w3.org/2000/svg" xmlns:xlink="http://www.w3.org/1999/xlink" x="0px" y="0px"
	 viewBox="0 0 512 512" style="enable-background:new 0 0 512 512;" xml:space="preserve">
<circle style="fill:#FF5419;" cx="256" cy="256" r="256"/>
<path style="fill:#C92F00;" d="M235.03,398.514l101.866,100.428c81.725-27.202,145.141-94.475,166.926-178.526l-182.61-184.72
	L235.03,398.514z"/>
<path style="fill:#FEE187;" d="M348.229,200.895c0-52.167-43.31-94.217-95.935-92.157c-47.151,1.846-85.769,39.796-88.378,86.911
	c-1.669,30.129,11.136,57.323,32.094,75.281c18.868,16.169,29.246,40.136,29.246,64.984v18.694h61.487v-19.475
	c0-25.035,11.329-48.443,30.132-64.972C336.096,253.266,348.229,228.502,348.229,200.895z"/>
<path style="fill:#FFC61B;" d="M255.426,108.697v245.913h31.316v-19.475c0-25.035,11.329-48.443,30.132-64.972
	c19.222-16.898,31.354-41.662,31.354-69.267C348.229,149.769,306.622,108.391,255.426,108.697z"/>
<path style="fill:#D0D1D3;" d="M256,406.781L256,406.781c-16.979,0-30.742-13.764-30.742-30.742v-30.742h61.487v30.742
	C286.742,393.016,272.979,406.781,256,406.781z"/>
<path style="fill:#A6A8AA;" d="M255.426,345.295v61.457c0.193,0.003,0.381,0.029,0.574,0.029c16.979,0,30.742-13.764,30.742-30.742
	v-30.742h-31.316V345.295z"/>
<g>
	<path style="fill:#FFFFFF;" d="M267.369,357.888h-45.097c-1.953,0-3.536-1.583-3.536-3.536l0,0c0-1.953,1.583-3.536,3.536-3.536
		h45.097c1.953,0,3.536,1.583,3.536,3.536l0,0C270.905,356.304,269.322,357.888,267.369,357.888z"/>
	<path style="fill:#FFFFFF;" d="M267.369,381.933h-45.097c-1.953,0-3.536-1.583-3.536-3.536l0,0c0-1.953,1.583-3.536,3.536-3.536
		h45.097c1.953,0,3.536,1.583,3.536,3.536l0,0C270.905,380.35,269.322,381.933,267.369,381.933z"/>
	<path style="fill:#FFFFFF;" d="M289.728,369.91h-45.097c-1.953,0-3.536-1.583-3.536-3.536l0,0c0-1.953,1.583-3.536,3.536-3.536
		h45.097c1.953,0,3.536,1.583,3.536,3.536l0,0C293.264,368.328,291.681,369.91,289.728,369.91z"/>
</g>
<g>
	<path style="fill:#D0D1D3;" d="M267.369,350.815h-11.943v7.073h11.943c1.953,0,3.536-1.583,3.536-3.536
		S269.322,350.815,267.369,350.815z"/>
	<path style="fill:#D0D1D3;" d="M267.369,374.862h-11.943v7.073h11.943c1.953,0,3.536-1.583,3.536-3.536
		C270.905,376.446,269.322,374.862,267.369,374.862z"/>
	<path style="fill:#D0D1D3;" d="M289.728,362.837h-34.302v7.073h34.302c1.953,0,3.536-1.583,3.536-3.536
		S291.681,362.837,289.728,362.837z"/>
</g>
<g>
	<path style="fill:#386895;" d="M239.675,197.391l-4.617-15.694c-0.94-3.198-4.298-5.037-7.49-4.086l-15.694,4.617
		c-2.341,0.688-4.037,2.719-4.298,5.146c-0.259,2.426,0.969,4.77,3.112,5.937l4.732,2.581l-9.023,15.629
		c-2.834,4.906-2.834,10.766,0,15.674c2.834,4.908,7.908,7.837,13.574,7.837c3.332,0,6.034-2.701,6.034-6.034
		s-2.701-6.034-6.034-6.034c-1.879,0-2.81-1.26-3.124-1.803s-0.94-1.977,0-3.606l9.169-15.882l4.98,2.717
		c0.905,0.495,1.9,0.738,2.888,0.738c1.352,0,2.694-0.453,3.789-1.336C239.575,202.256,240.364,199.73,239.675,197.391z"/>
	<path style="fill:#386895;" d="M305.602,211.521l-3.699-6.411c-1.667-2.888-5.353-3.874-8.242-2.208
		c-2.886,1.665-3.875,5.354-2.208,8.242l3.699,6.411c0.94,1.627,0.314,3.063,0,3.606c-0.314,0.543-1.245,1.803-3.124,1.803h-32.734
		v-5.535c0-2.441-1.47-4.639-3.724-5.573c-2.26-0.938-4.851-0.419-6.575,1.308l-11.569,11.567c-1.131,1.131-1.767,2.665-1.767,4.267
		c0,1.6,0.636,3.134,1.767,4.267l11.569,11.569c1.153,1.155,2.696,1.767,4.268,1.767c0.776,0,1.56-0.15,2.308-0.46
		c2.255-0.934,3.724-3.132,3.724-5.573v-5.534h32.734c5.667,0,10.74-2.929,13.574-7.837S308.436,216.428,305.602,211.521z"/>
	<path style="fill:#386895;" d="M237.42,171.267c2.938,1.572,6.594,0.464,8.164-2.476l7.332-13.707
		c0.943-1.565,2.467-1.738,3.084-1.738c0.626,0,2.184,0.178,3.124,1.803l14.527,25.162l-4.517,2.341
		c-2.167,1.122-3.444,3.439-3.236,5.872c0.209,2.431,1.86,4.498,4.187,5.236l15.593,4.948c0.609,0.193,1.222,0.284,1.827,0.284
		c2.558,0,4.934-1.641,5.749-4.21l4.949-15.593c0.74-2.326,0.003-4.867-1.864-6.439c-1.864-1.569-4.496-1.867-6.663-0.743
		l-5.299,2.746l-14.801-25.638c-2.834-4.908-7.908-7.837-13.574-7.837c-5.666,0-10.74,2.929-13.574,7.837
		c-0.033,0.057-0.064,0.114-0.095,0.172l-7.387,13.814C233.372,166.038,234.48,169.696,237.42,171.267z"/>
</g>
<g>
	<path style="fill:#273B7A;" d="M305.602,211.521l-3.699-6.411c-1.667-2.888-5.353-3.874-8.242-2.208
		c-2.886,1.665-3.875,5.354-2.208,8.242l3.699,6.411c0.94,1.627,0.314,3.063,0,3.606c-0.314,0.543-1.245,1.803-3.124,1.803h-32.734
		v-5.535c0-2.441-1.47-4.639-3.724-5.573c-0.048-0.019-0.097-0.029-0.145-0.048v34.376c0.048-0.019,0.098-0.024,0.145-0.043
		c2.255-0.934,3.724-3.132,3.724-5.573v-5.534h32.734c5.667,0,10.74-2.929,13.574-7.837S308.436,216.428,305.602,211.521z"/>
	<path style="fill:#273B7A;" d="M296.338,172.751c-1.864-1.569-4.496-1.867-6.663-0.743l-5.299,2.746l-14.801-25.638
		c-2.834-4.908-7.908-7.837-13.574-7.837c-0.195,0-0.381,0.031-0.574,0.036v12.078c0.228-0.036,0.428-0.047,0.574-0.047
		c0.626,0,2.184,0.178,3.124,1.803l14.527,25.162l-4.517,2.341c-2.167,1.122-3.444,3.439-3.236,5.872
		c0.209,2.431,1.86,4.498,4.187,5.236l15.593,4.948c0.609,0.193,1.222,0.284,1.827,0.284c2.558,0,4.934-1.641,5.749-4.21
		l4.949-15.593C298.941,176.866,298.205,174.323,296.338,172.751z"/>
</g>
<g>
</g>
<g>
</g>
<g>
</g>
<g>
</g>
<g>
</g>
<g>
</g>
<g>
</g>
<g>
</g>
<g>
</g>
<g>
</g>
<g>
</g>
<g>
</g>
<g>
</g>
<g>
</g>
<g>
</g>
</svg>
