<?xml version="1.0" encoding="iso-8859-1"?>
<!-- Generator: Adobe Illustrator 19.0.0, SVG Export Plug-In . SVG Version: 6.00 Build 0)  -->
<svg version="1.1" id="Layer_1" xmlns="http://www.w3.org/2000/svg" xmlns:xlink="http://www.w3.org/1999/xlink" x="0px" y="0px"
	 viewBox="0 0 512 512" style="enable-background:new 0 0 512 512;" xml:space="preserve">
<circle style="fill:#C92F00;" cx="256" cy="256" r="256"/>
<path style="fill:#930000;" d="M335.848,499.283c82.801-27.16,146.973-95.399,168.417-180.627L322.084,136.476L251.387,338.73
	l17.113,17.113l-15.522,20.321l-20.78-20.78l-12.686,1.152l27.474,27.474l-6.163,8.068l-12.467-12.467l-8.844,0.972l17.06,17.061
	l-1.024,1.341L335.848,499.283z"/>
<path style="fill:#FFC61B;" d="M348.229,200.895c0-52.167-43.31-94.217-95.935-92.157c-47.151,1.846-85.769,39.796-88.378,86.911
	c-1.669,30.129,11.136,57.323,32.094,75.281c18.868,16.169,29.246,40.136,29.246,64.984v18.694h61.487v-19.475
	c0-25.035,11.329-48.443,30.132-64.972C336.096,253.266,348.229,228.502,348.229,200.895z"/>
<path style="fill:#EAA22F;" d="M256,108.691v245.92h30.742v-19.475c0-25.035,11.329-48.443,30.132-64.972
	c19.222-16.898,31.354-41.662,31.354-69.268C348.229,149.961,306.935,108.694,256,108.691z"/>
<path style="fill:#477F3C;" d="M256,359.434c-3.332,0-6.034-2.701-6.034-6.034V252.552c0-3.332,2.701-6.034,6.034-6.034
	s6.034,2.701,6.034,6.034v100.848C262.034,356.733,259.332,359.434,256,359.434z"/>
<path style="fill:#2E5E24;" d="M256,246.519v112.916c3.331,0,6.034-2.701,6.034-6.034V252.552
	C262.034,249.222,259.332,246.519,256,246.519z"/>
<path style="fill:#3B9B27;" d="M248.865,233.269c9.473-23.971,43.534-46.664,43.534-46.664s9.344,39.846-0.129,63.817
	c-9.473,23.971-22.192,27.726-34.176,22.99C246.105,268.674,239.39,257.239,248.865,233.269z"/>
<path style="fill:#30871B;" d="M292.397,186.604c0,0,9.344,39.846-0.129,63.817c-9.473,23.971-22.192,27.726-34.176,22.99
	L292.397,186.604z"/>
<path style="fill:#57B240;" d="M220.698,255.909c-10.25-23.649-2.213-63.779-2.213-63.779s34.782,21.568,45.034,45.218
	c10.25,23.649,3.913,35.297-7.911,40.422C243.783,282.895,230.95,279.557,220.698,255.909z"/>
<path style="fill:#438E2E;" d="M255.607,277.769c-11.824,5.125-24.659,1.788-34.909-21.861c-10.25-23.649-2.213-63.779-2.213-63.779
	L255.607,277.769z"/>
<path style="fill:#D0D1D3;" d="M256,406.781L256,406.781c-16.979,0-30.742-13.764-30.742-30.742v-30.742h61.487v30.742
	C286.742,393.016,272.979,406.781,256,406.781z"/>
<path style="fill:#A6A8AA;" d="M256,345.295v61.487c16.979,0,30.742-13.764,30.742-30.742v-30.742H256V345.295z"/>
<g>
	<path style="fill:#FFFFFF;" d="M267.369,357.888h-45.097c-1.953,0-3.536-1.583-3.536-3.536l0,0c0-1.953,1.583-3.536,3.536-3.536
		h45.097c1.953,0,3.536,1.583,3.536,3.536l0,0C270.905,356.304,269.322,357.888,267.369,357.888z"/>
	<path style="fill:#FFFFFF;" d="M267.369,381.933h-45.097c-1.953,0-3.536-1.583-3.536-3.536l0,0c0-1.953,1.583-3.536,3.536-3.536
		h45.097c1.953,0,3.536,1.583,3.536,3.536l0,0C270.905,380.35,269.322,381.933,267.369,381.933z"/>
	<path style="fill:#FFFFFF;" d="M289.728,369.91h-45.097c-1.953,0-3.536-1.583-3.536-3.536l0,0c0-1.953,1.583-3.536,3.536-3.536
		h45.097c1.953,0,3.536,1.583,3.536,3.536l0,0C293.264,368.328,291.681,369.91,289.728,369.91z"/>
</g>
<g>
	<path style="fill:#D0D1D3;" d="M267.369,350.815H256v7.073h11.369c1.953,0,3.536-1.583,3.536-3.536
		S269.322,350.815,267.369,350.815z"/>
	<path style="fill:#D0D1D3;" d="M267.369,374.862H256v7.073h11.369c1.953,0,3.536-1.583,3.536-3.536
		C270.905,376.444,269.322,374.862,267.369,374.862z"/>
	<path style="fill:#D0D1D3;" d="M289.728,362.837H256v7.073h33.728c1.953,0,3.536-1.583,3.536-3.536
		S291.681,362.837,289.728,362.837z"/>
</g>
<g>
</g>
<g>
</g>
<g>
</g>
<g>
</g>
<g>
</g>
<g>
</g>
<g>
</g>
<g>
</g>
<g>
</g>
<g>
</g>
<g>
</g>
<g>
</g>
<g>
</g>
<g>
</g>
<g>
</g>
</svg>
