<?xml version="1.0" encoding="iso-8859-1"?>
<!-- Generator: Adobe Illustrator 19.0.0, SVG Export Plug-In . SVG Version: 6.00 Build 0)  -->
<svg version="1.1" id="Layer_1" xmlns="http://www.w3.org/2000/svg" xmlns:xlink="http://www.w3.org/1999/xlink" x="0px" y="0px"
	 viewBox="0 0 512 512" style="enable-background:new 0 0 512 512;" xml:space="preserve">
<circle style="fill:#324A5E;" cx="256" cy="256" r="256"/>
<path style="fill:#2B3B4E;" d="M317.271,504.601C417.752,479.918,494.902,395.924,509.49,291.85L332.955,115.315L257.6,303.714
	l-45.632-45.632l-30.756,26.743l59.959,59.959l-46.883,11.369l25.055,25.055l-14.888,10.126L317.271,504.601z"/>
<path style="fill:#FFD15D;" d="M369.778,199.111c0-63.435-51.914-114.745-115.572-113.764
	c-60.549,0.933-110.287,50.048-111.94,110.582c-1.108,40.591,19.059,76.531,50.155,97.52c13.115,8.852,20.913,23.693,20.913,39.517
	v8.368h85.333v-8.368c0-15.827,7.806-30.668,20.923-39.524C349.865,273.003,369.778,238.39,369.778,199.111z"/>
<path style="fill:#F9B54C;" d="M255.426,85.359v255.974h43.241v-8.368c0-15.827,7.806-30.668,20.923-39.524
	c30.275-20.439,50.188-55.051,50.188-94.33C369.778,136.083,318.524,85.051,255.426,85.359z"/>
<path style="fill:#E6F3FF;" d="M256,417.616L256,417.616c-27.491,0-49.778-22.287-49.778-49.778v-35.556h99.556v35.556
	C305.778,395.329,283.491,417.616,256,417.616z"/>
<path style="fill:#CFDBE6;" d="M255.426,332.283v85.32c0.193,0.002,0.383,0.014,0.574,0.014c27.491,0,49.778-22.287,49.778-49.778
	v-35.556H255.426z"/>
<path style="fill:#B8C9D9;" d="M256,358.572h-56.889c-3.332,0-6.034-2.701-6.034-6.034c0-3.332,2.701-6.034,6.034-6.034H256
	c3.332,0,6.034,2.701,6.034,6.034C262.034,355.871,259.332,358.572,256,358.572z"/>
<path style="fill:#9DADBA;" d="M312.889,375.811H256c-3.332,0-6.034-2.701-6.034-6.034s2.701-6.034,6.034-6.034h56.889
	c3.332,0,6.034,2.701,6.034,6.034S316.221,375.811,312.889,375.811z"/>
<path style="fill:#B8C9D9;" d="M265.481,393.051h-56.889c-3.332,0-6.034-2.701-6.034-6.034s2.701-6.034,6.034-6.034h56.889
	c3.332,0,6.034,2.701,6.034,6.034S268.814,393.051,265.481,393.051z"/>
<g>
</g>
<g>
</g>
<g>
</g>
<g>
</g>
<g>
</g>
<g>
</g>
<g>
</g>
<g>
</g>
<g>
</g>
<g>
</g>
<g>
</g>
<g>
</g>
<g>
</g>
<g>
</g>
<g>
</g>
</svg>
