<?xml version="1.0" encoding="iso-8859-1"?>
<!-- Generator: Adobe Illustrator 19.0.0, SVG Export Plug-In . SVG Version: 6.00 Build 0)  -->
<svg version="1.1" id="Layer_1" xmlns="http://www.w3.org/2000/svg" xmlns:xlink="http://www.w3.org/1999/xlink" x="0px" y="0px"
	 viewBox="0 0 512 512" style="enable-background:new 0 0 512 512;" xml:space="preserve">
<circle style="fill:#FEE187;" cx="256" cy="256" r="256"/>
<path style="fill:#FFC61B;" d="M491.072,357.5L268.119,134.547l-50.331,59.966l-90.705,65.208l231.065,231.065
	C417.614,464.88,465.322,417.052,491.072,357.5z"/>
<circle style="fill:#71E2EF;" cx="201.335" cy="201.335" r="83.247"/>
<path style="fill:#38C6D9;" d="M142.469,142.469L142.469,142.469c-32.509,32.509-32.509,85.216,0,117.726s85.216,32.509,117.724,0
	l0,0L142.469,142.469z"/>
<path style="fill:#386895;" d="M302.804,286.956l-27.25-27.25c29.168-37.036,26.705-91.017-7.437-125.161
	c-17.839-17.839-41.556-27.664-66.786-27.664s-48.947,9.825-66.784,27.664c-17.841,17.841-27.665,41.556-27.665,66.786
	s9.825,48.947,27.664,66.786c18.415,18.413,42.599,27.619,66.786,27.619c20.663,0,41.312-6.742,58.375-20.18l27.25,27.25
	L302.804,286.956z M150.394,252.271L150.394,252.271c-13.607-13.609-21.101-31.697-21.101-50.94s7.494-37.331,21.101-50.94
	c13.607-13.605,31.696-21.099,50.938-21.099s37.331,7.494,50.938,21.101c28.089,28.088,28.089,73.788,0,101.878
	C224.182,280.359,178.481,280.359,150.394,252.271z"/>
<g>
	<path style="fill:#273B7A;" d="M252.271,252.269C252.269,252.269,252.269,252.271,252.271,252.269
		c-28.089,28.089-73.788,28.089-101.876,0.002l-0.002-0.002c-13.607-13.607-21.101-31.696-21.101-50.938s7.494-37.331,21.101-50.94
		l-15.846-15.846c-17.841,17.841-27.665,41.556-27.665,66.786s9.825,48.947,27.664,66.786
		c18.415,18.413,42.599,27.619,66.786,27.619c20.663,0,41.312-6.742,58.375-20.18l27.25,27.25l7.925-7.925L252.271,252.269z"/>
	<path style="fill:#273B7A;" d="M390.358,372.838l-17.518,17.518c-4.741,4.741-12.428,4.741-17.168,0l-86.892-86.892
		c-4.741-4.741-4.741-12.428,0-17.168l17.518-17.518c4.741-4.741,12.428-4.741,17.168,0l86.892,86.892
		C395.099,360.41,395.099,368.097,390.358,372.838z"/>
</g>
<path style="fill:#121149;" d="M277.537,277.537l-8.759,8.759c-4.741,4.741-4.741,12.428,0,17.168l86.892,86.892
	c4.741,4.741,12.428,4.741,17.168,0l8.759-8.759L277.537,277.537z"/>
<rect x="305.038" y="305.032" transform="matrix(-0.7071 0.7071 -0.7071 -0.7071 795.6354 329.5551)" style="fill:#386895;" width="49.053" height="49.053"/>
<rect x="308.626" y="313.714" transform="matrix(-0.7071 0.7071 -0.7071 -0.7071 786.9655 350.5103)" style="fill:#273B7A;" width="24.527" height="49.055"/>
<path style="fill:#477F3C;" d="M193.851,206.215c8.756-22.154,39.321-43.173,41.76-44.825c0.081-0.055,0.174-0.017,0.197,0.078
	c0.652,2.872,8.588,39.109-0.167,61.262c-9.121,23.08-21.366,26.695-32.906,22.135C191.195,240.304,184.73,229.295,193.851,206.215z
	"/>
<path style="fill:#3A6B2F;" d="M235.611,161.39c0.081-0.055,0.174-0.017,0.197,0.078c0.652,2.872,8.588,39.109-0.167,61.262
	c-9.121,23.08-21.366,26.695-32.906,22.135L235.611,161.39z"/>
<path style="fill:#57B240;" d="M166.733,228.014c-9.475-21.856-2.724-58.332-2.167-61.225c0.019-0.097,0.11-0.136,0.193-0.084
	c2.491,1.57,33.726,21.582,43.201,43.437c9.869,22.769,3.768,33.985-7.616,38.919C188.959,253.997,176.602,250.783,166.733,228.014z
	"/>
<path style="fill:#44932E;" d="M200.344,249.061c-11.385,4.936-23.742,1.722-33.611-21.049c-9.475-21.856-2.724-58.332-2.167-61.225
	c0.019-0.097,0.11-0.136,0.193-0.084L200.344,249.061z"/>
<g>
</g>
<g>
</g>
<g>
</g>
<g>
</g>
<g>
</g>
<g>
</g>
<g>
</g>
<g>
</g>
<g>
</g>
<g>
</g>
<g>
</g>
<g>
</g>
<g>
</g>
<g>
</g>
<g>
</g>
</svg>
