<?xml version="1.0" encoding="iso-8859-1"?>
<!-- Generator: Adobe Illustrator 19.0.0, SVG Export Plug-In . SVG Version: 6.00 Build 0)  -->
<svg version="1.1" id="Layer_1" xmlns="http://www.w3.org/2000/svg" xmlns:xlink="http://www.w3.org/1999/xlink" x="0px" y="0px"
	 viewBox="0 0 512 512" style="enable-background:new 0 0 512 512;" xml:space="preserve">
<circle style="fill:#273B7A;" cx="256" cy="256" r="256"/>
<path style="fill:#121149;" d="M259.527,511.955c138.818-1.877,250.935-114.226,252.438-253.133L363.634,110.49l-32.144,79.367
	l-79.369-79.367l-83.653,187.645l-16.908,41.132l-26.957,37.764L259.527,511.955z"/>
<path style="fill:#A6A8AA;" d="M371.328,128.067c0-13.217-10.714-23.931-23.931-23.931c-14.226,0-25.552,12.41-23.74,26.995
	c-11.55-0.112-19.93,9.392-18.616,20.868h-10.699c-10.349,0-18.737,8.389-18.737,18.737v5.194h98.7
	c5.818,0,13.179-3.996,16.305-8.904C402.727,147.999,389.354,128.067,371.328,128.067z"/>
<path style="fill:#808183;" d="M371.328,128.067c0-13.217-10.714-23.931-23.931-23.931c-0.593,0-1.171,0.053-1.753,0.095v71.699
	h28.658c5.818,0,13.179-3.996,16.305-8.904C402.727,147.999,389.354,128.067,371.328,128.067z"/>
<path style="fill:#D0D1D3;" d="M259.817,128.067c0-13.217-10.714-23.931-23.931-23.931c-13.16,0-23.84,10.623-23.931,23.761
	c-13.253,0.186-24.026,10.847-23.931,24.102l0,0c-13.217,0-23.931,10.714-23.931,23.931l0,0h95.099
	c13.414,0,24.805-10.978,24.554-24.388C283.5,138.535,272.88,128.067,259.817,128.067z"/>
<path style="fill:#BCBCBC;" d="M259.817,128.067c0-13.217-10.714-23.931-23.931-23.931c-0.388,0-0.764,0.04-1.146,0.057v71.737
	h24.45c13.414,0,24.805-10.976,24.554-24.388C283.5,138.535,272.88,128.067,259.817,128.067z"/>
<path style="fill:#FFFFFF;" d="M263.885,377.032c-29.384-62.442-35.812-201.102-35.812-201.102h-67.656
	c0,0-6.428,138.661-35.812,201.104h139.281V377.032z"/>
<path style="fill:#D0D1D3;" d="M228.073,175.93h-32.983v201.104h68.796C234.501,314.59,228.073,175.93,228.073,175.93z"/>
<path style="fill:#FF7F4F;" d="M155.148,239.29h78.193c-1.319-11.867-2.343-22.811-3.12-32.141H158.27
	C157.493,216.479,156.467,227.423,155.148,239.29z"/>
<path style="fill:#D0D1D3;" d="M378.889,377.032c-29.386-62.443-35.812-201.104-35.812-201.104H275.42
	c0,0-6.428,138.661-35.812,201.104H378.889z"/>
<path style="fill:#BFBFBF;" d="M343.074,175.93h-32.484v201.104h68.298C349.503,314.59,343.074,175.93,343.074,175.93z"/>
<g>
	<path style="fill:#D35933;" d="M270.152,239.29h78.193c-1.319-11.867-2.343-22.811-3.12-32.141h-71.951
		C272.494,216.479,271.47,227.423,270.152,239.29z"/>
	<path style="fill:#D35933;" d="M230.219,207.151h-35.13v32.141h38.252C232.022,227.423,230.996,216.479,230.219,207.151z"/>
</g>
<path style="fill:#B54324;" d="M345.222,207.151h-34.632v32.141h37.752C347.024,227.423,346,216.479,345.222,207.151z"/>
<path style="fill:#D35933;" d="M312.094,340.761c0-42.348-34.33-76.676-76.676-76.676s-76.676,34.33-76.676,76.676v36.273h153.353
	v-36.273H312.094z"/>
<g>
	<path style="fill:#B54324;" d="M312.094,340.761c0-42.348-34.33-76.676-76.676-76.676c-10.421,0-20.352,2.088-29.412,5.854v107.094
		h106.087V340.761z"/>
	<path style="fill:#B54324;" d="M228.885,362.298c0-17.203-9.609-31.149-21.464-31.149s-21.464,13.946-21.464,31.149v14.736h42.927
		v-14.736H228.885z"/>
</g>
<path style="fill:#930000;" d="M228.885,362.298c0-17.203-9.609-31.149-21.464-31.149c-0.478,0-0.945,0.059-1.414,0.103v45.782
	h22.878V362.298z"/>
<g>
	<circle style="fill:#FFC61B;" cx="262.275" cy="317.043" r="6.166"/>
	<path style="fill:#FFC61B;" d="M267.443,308.764l8.173-13.076c-7.377-4.601-16.934-5.258-25.162-0.883l7.235,13.612
		C260.88,306.719,264.583,306.979,267.443,308.764z"/>
	<path style="fill:#FFC61B;" d="M266.855,325.656l7.235,13.612c8.228-4.374,13.029-12.664,13.343-21.351l-15.41-0.54
		C271.901,320.746,270.046,323.96,266.855,325.656z"/>
	<path style="fill:#FFC61B;" d="M253.652,321.619c-0.834-1.57-1.188-3.265-1.129-4.923l-15.41-0.54
		c-0.153,4.277,0.774,8.649,2.927,12.7c2.153,4.049,5.258,7.265,8.888,9.53l8.173-13.076
		C255.693,324.43,254.486,323.189,253.652,321.619z"/>
</g>
<g>
</g>
<g>
</g>
<g>
</g>
<g>
</g>
<g>
</g>
<g>
</g>
<g>
</g>
<g>
</g>
<g>
</g>
<g>
</g>
<g>
</g>
<g>
</g>
<g>
</g>
<g>
</g>
<g>
</g>
</svg>
