<?xml version="1.0" encoding="iso-8859-1"?>
<!-- Generator: Adobe Illustrator 19.0.0, SVG Export Plug-In . SVG Version: 6.00 Build 0)  -->
<svg version="1.1" id="Layer_1" xmlns="http://www.w3.org/2000/svg" xmlns:xlink="http://www.w3.org/1999/xlink" x="0px" y="0px"
	 viewBox="0 0 512 512" style="enable-background:new 0 0 512 512;" xml:space="preserve">
<circle style="fill:#273B7A;" cx="256" cy="256" r="256"/>
<path style="fill:#121149;" d="M191.538,329.554l-57.946,56.88L259.12,511.962c133.075-1.593,241.721-104.705,252.064-235.499
	L339.52,104.796l-28.341,46.73l-71.265-71.265l-38.145,66.701v12.298h-24.578l24.578,24.578v113.319
	C201.769,297.158,199.902,312.889,191.538,329.554z"/>
<path style="fill:#477F3C;" d="M199.902,201.73v-59.888c0-2.698,1.96-5.213,4.832-5.675c3.717-0.598,6.944,2.036,6.944,5.365v60.197
	h-11.776V201.73z"/>
<path style="fill:#3B9B27;" d="M196.051,123.564c9.154-21.438,41.108-41.781,43.658-43.379c0.084-0.053,0.183-0.017,0.205,0.076
	c0.681,2.781,8.98,37.847-0.174,59.285c-9.537,22.335-22.338,25.834-34.402,21.42C193.274,156.555,186.515,145.899,196.051,123.564z
	"/>
<path style="fill:#307F1D;" d="M239.709,80.186c0.084-0.053,0.183-0.017,0.205,0.076c0.681,2.781,8.98,37.847-0.174,59.285
	c-9.537,22.335-22.338,25.834-34.402,21.42L239.709,80.186z"/>
<path style="fill:#57B240;" d="M167.7,144.66c-9.906-21.151-2.848-56.449-2.265-59.249c0.019-0.093,0.116-0.133,0.203-0.081
	c2.605,1.52,35.261,20.885,45.166,42.036c10.319,22.035,3.939,32.889-7.963,37.664C190.936,169.805,178.017,166.695,167.7,144.66z"
	/>
<path style="fill:#499B32;" d="M202.838,165.028c-11.902,4.775-24.821,1.665-35.14-20.37c-9.906-21.151-2.848-56.449-2.265-59.249
	c0.019-0.093,0.116-0.133,0.203-0.081L202.838,165.028z"/>
<path style="fill:#477F3C;" d="M307.591,201.73v-47.792c0-2.153,1.565-4.16,3.856-4.529c2.965-0.478,5.542,1.624,5.542,4.282v48.038
	H307.591z"/>
<path style="fill:#3B9B27;" d="M304.516,139.354c7.304-17.108,32.806-33.34,34.84-34.616c0.067-0.043,0.147-0.014,0.164,0.06
	c0.543,2.219,7.165,30.203-0.14,47.311c-7.609,17.823-17.825,20.616-27.453,17.094C302.301,165.679,296.907,157.177,304.516,139.354
	z"/>
<path style="fill:#33871E;" d="M339.356,104.736c0.067-0.043,0.147-0.014,0.164,0.06c0.543,2.219,7.165,30.203-0.14,47.311
	c-7.609,17.823-17.825,20.616-27.453,17.094L339.356,104.736z"/>
<path style="fill:#57B240;" d="M281.891,156.188c-7.904-16.879-2.272-45.047-1.808-47.282c0.016-0.074,0.093-0.105,0.162-0.066
	c2.079,1.214,28.139,16.667,36.043,33.544c8.235,17.584,3.144,26.245-6.354,30.056S290.126,173.771,281.891,156.188z"/>
<path style="fill:#42932B;" d="M309.932,172.442c-9.499,3.812-19.808,1.329-28.041-16.255c-7.904-16.879-2.272-45.047-1.808-47.282
	c0.016-0.074,0.093-0.105,0.162-0.066L309.932,172.442z"/>
<path style="fill:#D0D1D3;" d="M379.888,386.432c-29.386-62.443-35.812-201.104-35.812-201.104H276.42
	c0,0-6.428,138.661-35.812,201.104H379.888z"/>
<path style="fill:#A6A8AA;" d="M344.076,185.33h-32.335v201.104h68.149C350.505,323.989,344.076,185.33,344.076,185.33z"/>
<path style="fill:#D35933;" d="M271.151,248.691h78.193c-1.319-11.867-2.343-22.811-3.12-32.141h-71.951
	C273.496,225.88,272.472,236.823,271.151,248.691z"/>
<path style="fill:#B54324;" d="M346.224,216.55h-34.483v32.141h37.604C348.026,236.822,347.002,225.88,346.224,216.55z"/>
<path style="fill:#FFFFFF;" d="M272.874,386.432c-29.386-62.443-35.812-201.104-35.812-201.104h-67.655
	c0,0-6.428,138.661-35.812,201.104H272.874z"/>
<path style="fill:#D0D1D3;" d="M237.061,185.33h-31.628v201.104h67.441C243.49,323.989,237.061,185.33,237.061,185.33z"/>
<path style="fill:#FF7F4F;" d="M164.138,248.691h78.193c-1.319-11.867-2.343-22.811-3.12-32.141h-71.952
	C166.481,225.88,165.457,236.823,164.138,248.691z"/>
<path style="fill:#D35933;" d="M239.209,216.55h-33.776v32.141h36.897C241.011,236.822,239.987,225.88,239.209,216.55z"/>
<g>
</g>
<g>
</g>
<g>
</g>
<g>
</g>
<g>
</g>
<g>
</g>
<g>
</g>
<g>
</g>
<g>
</g>
<g>
</g>
<g>
</g>
<g>
</g>
<g>
</g>
<g>
</g>
<g>
</g>
</svg>
