<?xml version="1.0" encoding="iso-8859-1"?>
<!-- Generator: Adobe Illustrator 19.0.0, SVG Export Plug-In . SVG Version: 6.00 Build 0)  -->
<svg version="1.1" id="Layer_1" xmlns="http://www.w3.org/2000/svg" xmlns:xlink="http://www.w3.org/1999/xlink" x="0px" y="0px"
	 viewBox="0 0 512 512" style="enable-background:new 0 0 512 512;" xml:space="preserve">
<circle style="fill:#273B7A;" cx="256" cy="256" r="256"/>
<path style="fill:#121149;" d="M280.212,510.852c121.722-11.421,218.662-108.051,230.552-229.636L384.621,155.071l-117.415,62.142
	l16.979,16.979L132.646,363.287L280.212,510.852z"/>
<circle style="fill:#6799A5;" cx="256" cy="256" r="163.478"/>
<path style="fill:#4C7F87;" d="M256,92.517c-0.191,0-0.383,0.007-0.574,0.007v326.954c0.191,0,0.383,0.007,0.574,0.007
	c90.29,0,163.483-73.194,163.483-163.483C419.483,165.71,346.29,92.517,256,92.517z"/>
<circle style="fill:#71E2EF;" cx="256" cy="256" r="132.741"/>
<path style="fill:#38C6D9;" d="M256,123.259c-0.193,0-0.381,0.014-0.574,0.014v265.452c0.193,0,0.381,0.014,0.574,0.014
	c73.311,0,132.741-59.43,132.741-132.741S329.311,123.259,256,123.259z"/>
<path style="fill:#477F3C;" d="M222.748,271.553c-25.743-8.045-24.671-35.933-4.827-41.298c19.844-5.363,9.654-13.409,18.772-34.861
	c9.118-21.452-4.827-13.945-14.481-33.789c-6.084-12.505-4.499-25.431-2.496-33.285c-48.614,13.791-85.852,54.563-94.51,105.127
	c26.855,27.596,61.447-7.714,67.508,14.507c6.435,23.599-2.145,32.716-2.145,32.716s-14.481,24.135-14.481,39.152
	c0,10.411,31.649,45.308,51.066,65.738c3.965,0.879,7.997,1.574,12.088,2.089c-1.026-10.704,0.521-25.179,14.077-32.43
	c23.062-12.336,27.353-57.923,27.353-57.923l-21.454-15.553C259.219,281.743,248.492,279.599,222.748,271.553z"/>
<g>
	<path style="fill:#2E5E24;" d="M280.671,297.298l-21.454-15.553c0,0-1.233-0.248-3.793-0.869v73.095
		C276.645,340.08,280.671,297.298,280.671,297.298z"/>
	<path style="fill:#2E5E24;" d="M293.473,128.659c-4.906,8.952-18.566,35.712-12.802,46.356c6.971,12.872,4.827-4.291,22.526,0
		c17.699,4.291,31.106,9.654,42.906,8.045c11.8-1.608,21.99,24.135,7.509,31.106s12.872,56.851,12.872,56.851l17.946,18.623
		c2.807-10.745,4.311-22.016,4.311-33.64C388.741,195.708,348.529,144.837,293.473,128.659z"/>
</g>
<g>
</g>
<g>
</g>
<g>
</g>
<g>
</g>
<g>
</g>
<g>
</g>
<g>
</g>
<g>
</g>
<g>
</g>
<g>
</g>
<g>
</g>
<g>
</g>
<g>
</g>
<g>
</g>
<g>
</g>
</svg>
