<?xml version="1.0" encoding="iso-8859-1"?>
<!-- Generator: Adobe Illustrator 19.0.0, SVG Export Plug-In . SVG Version: 6.00 Build 0)  -->
<svg version="1.1" id="Layer_1" xmlns="http://www.w3.org/2000/svg" xmlns:xlink="http://www.w3.org/1999/xlink" x="0px" y="0px"
	 viewBox="0 0 512 512" style="enable-background:new 0 0 512 512;" xml:space="preserve">
<circle style="fill:#273B7A;" cx="256" cy="256" r="256"/>
<path style="fill:#121149;" d="M338.194,498.517c82.57-27.976,146.217-96.942,166.753-182.667L340.764,151.667l-110.335-2.981
	l-83.322,89.786l82.029,117.082L256,416.323L338.194,498.517z"/>
<path style="fill:#FFC61B;" d="M256,113.778c-62.838,0-113.778,50.94-113.778,113.778S256,416.323,256,416.323
	s113.778-125.93,113.778-188.768S318.838,113.778,256,113.778z M256,284.444c-31.418,0-56.889-25.471-56.889-56.889
	s25.471-56.889,56.889-56.889s56.889,25.471,56.889,56.889S287.418,284.444,256,284.444z"/>
<path style="fill:#EAA22F;" d="M256,113.778v56.889c31.418,0,56.889,25.471,56.889,56.889S287.418,284.444,256,284.444v131.879
	c0.022-0.026,113.778-125.935,113.778-188.768C369.778,164.717,318.838,113.778,256,113.778z"/>
<path style="fill:#8BC180;" d="M232.791,184.253c20.652-28.134,82.127-39.484,82.127-39.484s7.596,62.054-13.057,90.188
	s-42.658,25.698-61.731,11.698C221.058,232.653,212.139,212.389,232.791,184.253z"/>
<path style="fill:#57B240;" d="M241.854,247.879c18.668,12.893,39.976,14.369,60.009-12.922
	c20.563-28.013,13.124-89.629,13.06-90.164L241.854,247.879z"/>
<path style="fill:#477F3C;" d="M229.69,271.855c-1.317,0-2.65-0.391-3.812-1.205c-3.007-2.108-3.736-6.254-1.627-9.263
	l43.098-61.483c2.107-3.007,6.254-3.736,9.263-1.627c3.007,2.108,3.736,6.254,1.627,9.263l-43.098,61.483
	C233.846,270.867,231.784,271.855,229.69,271.855z"/>
<path style="fill:#2E5E24;" d="M276.861,198.49l-51.084,72.07c0.038,0.028,0.065,0.062,0.103,0.088
	c1.162,0.814,2.493,1.205,3.812,1.205c2.095,0,4.156-0.988,5.451-2.832l43.098-61.483
	C280.283,204.622,279.64,200.654,276.861,198.49z"/>
<g>
</g>
<g>
</g>
<g>
</g>
<g>
</g>
<g>
</g>
<g>
</g>
<g>
</g>
<g>
</g>
<g>
</g>
<g>
</g>
<g>
</g>
<g>
</g>
<g>
</g>
<g>
</g>
<g>
</g>
</svg>
