<?xml version="1.0" encoding="iso-8859-1"?>
<!-- Generator: Adobe Illustrator 19.0.0, SVG Export Plug-In . SVG Version: 6.00 Build 0)  -->
<svg version="1.1" id="Layer_1" xmlns="http://www.w3.org/2000/svg" xmlns:xlink="http://www.w3.org/1999/xlink" x="0px" y="0px"
	 viewBox="0 0 512 512" style="enable-background:new 0 0 512 512;" xml:space="preserve">
<circle style="fill:#273B7A;" cx="256" cy="256" r="256"/>
<path style="fill:#121149;" d="M308.379,506.628c89.94-18.701,162.566-84.592,190.848-170.613L308.605,145.392l-2.155,4.851
	l-43.106-43.108l-16.146,166.493l2.863,2.863L179,377.246L308.379,506.628z"/>
<path style="fill:#71E2EF;" d="M331.852,377.247H178.998V200.261c0-42.21,34.218-76.426,76.426-76.426l0,0
	c42.21,0,76.426,34.218,76.426,76.426v176.986H331.852z"/>
<path style="fill:#38C6D9;" d="M331.852,200.261c0-42.017-33.909-76.102-75.852-76.412v253.399h75.852V200.261z"/>
<path style="fill:#6CAF5F;" d="M329.344,377.247c0-7.995-6.482-15.784-14.479-15.784c-0.719,0-1.419,0.071-2.108,0.172
	c-0.284-0.114-0.574-0.222-0.864-0.331c-2.034-5.535-7.333-9.495-13.576-9.495c-0.465,0-0.924,0.026-1.379,0.069
	c-2.312-4.925-7.301-8.344-13.1-8.344c-1.705,0-3.334,0.31-4.853,0.852c-4.165-5.313-10.626-8.738-17.899-8.738
	c-0.238,0-0.469,0.028-0.705,0.034v-54.931c0-3.936-2.224-7.047-4.784-6.341c-1.979,0.546-3.329,3.517-3.329,6.706v56.037
	c-2.563-1.274-5.442-2.008-8.497-2.008c-6.59,0-12.404,3.329-15.851,8.397c-5.696,0.093-10.581,3.479-12.86,8.333
	c-0.453-0.043-0.914-0.069-1.379-0.069c-6.406,0-11.829,4.165-13.74,9.93c-0.908-0.179-1.846-0.278-2.808-0.278
	c-7.997,0-14.479,7.789-14.479,15.784c0,0.388,0.028-0.381,0.059,0h146.575h-0.002C329.316,376.868,329.344,377.635,329.344,377.247
	z"/>
<path style="fill:#477F3C;" d="M314.864,361.463c-0.719,0-1.419,0.071-2.108,0.172c-0.284-0.114-0.574-0.222-0.864-0.331
	c-2.034-5.535-7.333-9.495-13.576-9.495c-0.465,0-0.924,0.026-1.379,0.069c-2.312-4.925-7.301-8.344-13.1-8.344
	c-1.705,0-3.334,0.31-4.853,0.852c-4.165-5.313-10.626-8.738-17.899-8.738c-0.238,0-0.469,0.028-0.705,0.035v-54.931
	c0-3.725-1.998-6.67-4.382-6.38v102.874h73.285c0.029-0.379,0.059,0.388,0.059,0C329.344,369.252,322.862,361.463,314.864,361.463z"
	/>
<path style="fill:#3B9B27;" d="M249.616,260.517c6.304-15.953,28.317-31.091,30.074-32.28c0.059-0.04,0.126-0.012,0.141,0.055
	c0.469,2.069,6.185,28.163-0.121,44.118c-6.568,16.62-15.388,19.225-23.697,15.941C247.705,285.067,243.047,277.139,249.616,260.517
	z"/>
<path style="fill:#32841E;" d="M279.69,228.236c0.059-0.04,0.126-0.012,0.141,0.055c0.469,2.069,6.185,28.163-0.121,44.118
	c-6.568,16.62-15.388,19.225-23.697,15.941L279.69,228.236z"/>
<path style="fill:#57B240;" d="M230.086,276.215c-6.823-15.739-1.962-42.008-1.56-44.091c0.014-0.069,0.079-0.098,0.14-0.06
	c1.795,1.131,24.288,15.541,31.111,31.28c7.108,16.398,2.713,24.474-5.485,28.027C246.093,294.927,237.194,292.612,230.086,276.215z
	"/>
<path style="fill:#479930;" d="M254.292,291.373c-8.199,3.555-17.098,1.239-24.205-15.158c-6.823-15.739-1.962-42.008-1.56-44.091
	c0.014-0.069,0.079-0.098,0.14-0.06L254.292,291.373z"/>
<path style="fill:#477F3C;" d="M208.648,345.317c-6.956-8.271-8.73-25.038-8.861-26.371c-0.005-0.045,0.031-0.074,0.074-0.062
	c1.289,0.357,17.496,4.97,24.452,13.243c7.247,8.618,6.037,14.302,1.712,17.944C221.698,353.713,215.895,353.935,208.648,345.317z"
	/>
<path style="fill:#2E5E24;" d="M226.025,350.07c-4.325,3.643-10.13,3.865-17.377-4.753c-6.956-8.271-8.73-25.038-8.861-26.371
	c-0.005-0.045,0.031-0.074,0.074-0.062L226.025,350.07z"/>
<circle style="fill:#38C6D9;" cx="255.431" cy="114.64" r="10.917"/>
<path style="fill:#02B2B2;" d="M266.343,114.64c0-5.835-4.582-10.588-10.343-10.888v21.778
	C261.761,125.228,266.343,120.475,266.343,114.64z"/>
<g>
</g>
<g>
</g>
<g>
</g>
<g>
</g>
<g>
</g>
<g>
</g>
<g>
</g>
<g>
</g>
<g>
</g>
<g>
</g>
<g>
</g>
<g>
</g>
<g>
</g>
<g>
</g>
<g>
</g>
</svg>
