<?xml version="1.0" encoding="iso-8859-1"?>
<!-- Generator: Adobe Illustrator 19.0.0, SVG Export Plug-In . SVG Version: 6.00 Build 0)  -->
<svg version="1.1" id="Layer_1" xmlns="http://www.w3.org/2000/svg" xmlns:xlink="http://www.w3.org/1999/xlink" x="0px" y="0px"
	 viewBox="0 0 512 512" style="enable-background:new 0 0 512 512;" xml:space="preserve">
<circle style="fill:#FEE187;" cx="256" cy="256" r="256"/>
<path style="fill:#FFC61B;" d="M294.195,509.161c96.911-14.498,176.049-83.316,205.465-174.478L326.88,160.154l-72.607-70.861
	l2.622,148.061l-27.607,20.366l-72.54,44.522l86.906,86.15l-44.456,25.765L294.195,509.161z"/>
<path style="fill:#8BC180;" d="M213.759,186.094c0.934-42.372,40.514-96.801,40.514-96.801s37.143,56.12,36.209,98.492
	c-0.934,42.372-18.404,55.418-39.591,54.951C229.704,242.271,212.825,228.468,213.759,186.094z"/>
<path style="fill:#6CAF5F;" d="M254.273,89.295c0,0,37.143,56.12,36.209,98.492c-0.934,42.372-18.404,55.418-39.591,54.951
	L254.273,89.295z"/>
<path style="fill:#477F3C;" d="M245.986,226.997c20.539-37.074,80.894-66.843,80.894-66.843s6.771,66.956-13.765,104.031
	c-20.539,37.074-42.072,40.496-60.609,30.227C233.967,284.144,225.447,264.071,245.986,226.997z"/>
<path style="fill:#2E5E24;" d="M326.88,160.154c0,0,6.771,66.957-13.765,104.031c-20.539,37.074-42.072,40.496-60.609,30.227
	L326.88,160.154z"/>
<path style="fill:#477F3C;" d="M191.414,244.819c-13.431-40.198,5.439-104.795,5.439-104.795s53.913,40.279,67.346,80.477
	c13.431,40.198,1.395,58.378-18.706,65.095S204.847,285.017,191.414,244.819z"/>
<path style="fill:#2E5E24;" d="M196.855,140.023c0,0,53.913,40.279,67.346,80.477c13.431,40.198,1.395,58.378-18.706,65.095
	L196.855,140.023z"/>
<path style="fill:#B54324;" d="M302.894,419.257h-93.787c-5.811,0-10.816-4.103-11.955-9.802l-26.484-132.42h170.667l-26.484,132.42
	C313.709,415.156,308.705,419.257,302.894,419.257z"/>
<path style="fill:#930000;" d="M255.426,277.035v142.222h47.468c5.811,0,10.816-4.103,11.955-9.802l26.484-132.42H255.426z"/>
<path style="fill:#D35933;" d="M347.388,305.48H164.612c-6.177,0-11.185-5.008-11.185-11.185v-34.518
	c0-6.177,5.008-11.185,11.185-11.185h182.774c6.177,0,11.185,5.008,11.185,11.185v34.518
	C358.572,300.473,353.564,305.48,347.388,305.48z"/>
<path style="fill:#B54324;" d="M347.388,248.591h-91.962v56.889h91.962c6.177,0,11.185-5.008,11.185-11.185v-34.518
	C358.572,253.599,353.564,248.591,347.388,248.591z"/>
<g>
</g>
<g>
</g>
<g>
</g>
<g>
</g>
<g>
</g>
<g>
</g>
<g>
</g>
<g>
</g>
<g>
</g>
<g>
</g>
<g>
</g>
<g>
</g>
<g>
</g>
<g>
</g>
<g>
</g>
</svg>
