<?xml version="1.0" encoding="iso-8859-1"?>
<!-- Generator: Adobe Illustrator 19.0.0, SVG Export Plug-In . SVG Version: 6.00 Build 0)  -->
<svg version="1.1" id="Layer_1" xmlns="http://www.w3.org/2000/svg" xmlns:xlink="http://www.w3.org/1999/xlink" x="0px" y="0px"
	 viewBox="0 0 512 512" style="enable-background:new 0 0 512 512;" xml:space="preserve">
<circle style="fill:#FFC61B;" cx="256" cy="256" r="256"/>
<path style="fill:#EAA22F;" d="M348.693,146.62l158.567,158.567C484.323,423.036,380.559,512,256,512
	c-11.364,0-22.552-0.75-33.527-2.186L72.945,360.286l59.27-86.711l-18.873-18.873c0,0,23.997-139.199,141.51-134.889L348.693,146.62
	z"/>
<path style="fill:#C92F00;" d="M220.789,265.071L220.789,265.071c-4.923,0-8.914-3.991-8.914-8.914v-53.486
	c0-4.923,3.991-8.914,8.914-8.914l0,0c4.923,0,8.914,3.991,8.914,8.914v53.486C229.704,261.08,225.711,265.071,220.789,265.071z"/>
<path style="fill:#930000;" d="M285.686,265.071L285.686,265.071c-4.923,0-8.914-3.991-8.914-8.914v-53.486
	c0-4.923,3.991-8.914,8.914-8.914l0,0c4.923,0,8.914,3.991,8.914,8.914v53.486C294.6,261.08,290.609,265.071,285.686,265.071z"/>
<path style="fill:#477F3C;" d="M292.624,391.013c-9.207,0-18.37-2.639-26.409-7.837c-14.064-9.088-22.459-24.5-22.459-41.22v-42.051
	c0-5.236,4.246-9.481,9.481-9.481s9.481,4.246,9.481,9.481v42.051c0,10.257,5.155,19.715,13.791,25.297
	c8.63,5.575,18.918,6.372,28.225,2.182c45.673-20.571,74.736-66.232,74.038-116.329c-0.938-67.298-56.449-122.809-123.745-123.747
	c-33.892-0.526-65.833,12.362-89.945,36.142c-24.116,23.783-37.397,55.53-37.397,89.397c0,5.236-4.246,9.481-9.481,9.481
	s-9.481-4.246-9.481-9.481c0-38.981,15.288-75.526,43.046-102.898c27.753-27.369,64.515-42.181,103.522-41.6
	c37.659,0.524,73.176,15.593,100.014,42.429c26.838,26.838,41.906,62.357,42.429,100.016
	c0.803,57.656-32.646,110.209-85.211,133.882C306.152,389.594,299.375,391.011,292.624,391.013z"/>
<g>
	<path style="fill:#2E5E24;" d="M355.304,152.826c-26.836-26.836-62.355-41.906-100.014-42.429c-0.147-0.002-0.293,0.007-0.44,0.005
		v18.956c0.059,0,0.117-0.002,0.178-0.002c67.296,0.938,122.808,56.449,123.745,123.747c0.696,50.098-28.365,95.76-74.038,116.329
		c-9.307,4.191-19.596,3.394-28.225-2.182c-8.637-5.582-13.791-15.039-13.791-25.297v-42.051c0-4.684-3.401-8.566-7.868-9.335
		v82.473c3.189,3.884,7.003,7.313,11.364,10.131c8.039,5.198,17.203,7.837,26.409,7.837c6.751-0.002,13.527-1.419,19.899-4.289
		c52.565-23.673,86.014-76.226,85.211-133.882C397.21,215.183,382.143,179.665,355.304,152.826z"/>
	<path style="fill:#2E5E24;" d="M192.831,240.111c-5.794,0-10.247,5.167-9.361,10.892c5.237,33.821,34.478,59.711,69.766,59.711
		s64.529-25.89,69.766-59.711c0.886-5.725-3.567-10.892-9.361-10.892L192.831,240.111L192.831,240.111z"/>
</g>
<path style="fill:#1E4415;" d="M313.642,240.111H254.85v70.565c34.561-0.777,62.995-26.371,68.153-59.673
	C323.891,245.277,319.436,240.111,313.642,240.111z"/>
<path style="fill:#3B9B27;" d="M129.276,299.904c-12.259,31.017-56.33,60.382-56.33,60.382s-12.09-51.559,0.167-82.577
	s28.715-35.876,44.223-29.748C132.846,254.092,141.534,268.888,129.276,299.904z"/>
<path style="fill:#2A7718;" d="M72.945,360.286c0,0-12.09-51.559,0.167-82.577s28.715-35.876,44.223-29.748L72.945,360.286z"/>
<path style="fill:#57B240;" d="M165.721,270.61c13.264,30.601,2.865,82.527,2.865,82.527s-45.006-27.908-58.271-58.509
	s-5.065-45.673,10.237-52.305C135.851,235.691,152.455,240.009,165.721,270.61z"/>
<path style="fill:#45932F;" d="M168.586,353.137c0,0-45.006-27.908-58.271-58.509s-5.065-45.673,10.237-52.305L168.586,353.137z"/>
<g>
</g>
<g>
</g>
<g>
</g>
<g>
</g>
<g>
</g>
<g>
</g>
<g>
</g>
<g>
</g>
<g>
</g>
<g>
</g>
<g>
</g>
<g>
</g>
<g>
</g>
<g>
</g>
<g>
</g>
</svg>
