<?xml version="1.0" encoding="iso-8859-1"?>
<!-- Generator: Adobe Illustrator 19.0.0, SVG Export Plug-In . SVG Version: 6.00 Build 0)  -->
<svg version="1.1" id="Layer_1" xmlns="http://www.w3.org/2000/svg" xmlns:xlink="http://www.w3.org/1999/xlink" x="0px" y="0px"
	 viewBox="0 0 512 512" style="enable-background:new 0 0 512 512;" xml:space="preserve">
<circle style="fill:#324A5E;" cx="256" cy="256" r="256"/>
<path style="fill:#2B3B4E;" d="M295.586,508.919c51.771-8.059,101.547-32.015,141.433-71.901
	c40.084-40.084,64.081-90.157,72.021-142.205L331.766,117.539l-12.381,40.929l-54.091-54.091l-17.075,27.913l-7.402,7.937
	l13.583,13.583l-8.476,8.476l-44.747-44.747l-9.711,96.334l0,0c1.107,1.107,0.746,2.979-0.69,3.598l-41.043,19.728l71.618,73.352
	l-30.648,30.353l65.986,65.986l-14.91,48.221L295.586,508.919z"/>
<rect x="241.778" y="341.333" style="fill:#F4E3C3;" width="28.444" height="113.778"/>
<rect x="256" y="341.333" style="fill:#FED8B2;" width="14.22" height="113.778"/>
<path style="fill:#FFD15D;" d="M252.547,169.531c-1.045,0-2.107-0.24-3.105-0.743c-3.4-1.717-4.763-5.863-3.046-9.264l8.738-17.301
	h-9.478c-2.396,0-4.618-1.243-5.873-3.282c-1.255-2.039-1.36-4.584-0.281-6.722l13.791-27.307c1.717-3.401,5.86-4.763,9.264-3.046
	c3.4,1.717,4.763,5.863,3.046,9.264l-8.74,17.301h9.48c2.396,0,4.618,1.243,5.873,3.282s1.36,4.584,0.281,6.722l-13.791,27.307
	C257.493,168.145,255.066,169.531,252.547,169.531z"/>
<path style="fill:#F9B54C;" d="M272.217,131.713c-1.257-2.041-3.479-3.282-5.873-3.282h-9.48l8.738-17.301
	c1.717-3.401,0.353-7.547-3.046-9.264c-2.158-1.09-4.61-0.933-6.556,0.19v66.541c1.122-0.648,2.077-1.612,2.707-2.855l13.791-27.307
	C273.577,136.297,273.472,133.753,272.217,131.713z"/>
<path style="fill:#FFD15D;" d="M277.166,356.118h-42.331c-39.602,0-71.706-32.104-71.706-71.706V216.81H348.87v67.601
	C348.87,324.013,316.768,356.118,277.166,356.118z"/>
<path style="fill:#F9B54C;" d="M256.002,216.812v139.305h21.164c39.602,0,71.706-32.103,71.706-71.704v-67.601L256.002,216.812
	L256.002,216.812z"/>
<path style="fill:#CFDBE6;" d="M194.196,218.988h-6.992c-5.282,0-9.564-4.282-9.564-9.564v-85.351c0-5.282,4.282-9.564,9.564-9.564
	h6.992c5.282,0,9.564,4.282,9.564,9.564v85.352C203.76,214.707,199.478,218.988,194.196,218.988z"/>
<path style="fill:#B8C9D9;" d="M324.796,218.988h-6.992c-5.282,0-9.564-4.282-9.564-9.564v-85.351c0-5.282,4.282-9.564,9.564-9.564
	h6.992c5.282,0,9.564,4.282,9.564,9.564v85.352C334.36,214.707,330.078,218.988,324.796,218.988z"/>
<path style="fill:#FD8469;" d="M358.967,238.578H153.033c-2.638,0-4.777-2.138-4.777-4.777v-38.335c0-2.638,2.138-4.777,4.777-4.777
	h205.936c2.638,0,4.777,2.138,4.777,4.777v38.335C363.744,236.441,361.606,238.578,358.967,238.578z"/>
<path style="fill:#FC6F58;" d="M358.967,190.692H256v47.887h102.967c2.638,0,4.777-2.138,4.777-4.777v-38.335
	C363.744,192.831,361.606,190.692,358.967,190.692z"/>
<g>
</g>
<g>
</g>
<g>
</g>
<g>
</g>
<g>
</g>
<g>
</g>
<g>
</g>
<g>
</g>
<g>
</g>
<g>
</g>
<g>
</g>
<g>
</g>
<g>
</g>
<g>
</g>
<g>
</g>
</svg>
