<?xml version="1.0" encoding="iso-8859-1"?>
<!-- Generator: Adobe Illustrator 19.0.0, SVG Export Plug-In . SVG Version: 6.00 Build 0)  -->
<svg version="1.1" id="Layer_1" xmlns="http://www.w3.org/2000/svg" xmlns:xlink="http://www.w3.org/1999/xlink" x="0px" y="0px"
	 viewBox="0 0 512 512" style="enable-background:new 0 0 512 512;" xml:space="preserve">
<circle style="fill:#FFEDB5;" cx="256" cy="256" r="256"/>
<path style="fill:#FEE187;" d="M503.944,319.966L367.059,183.081l-4.694,47.14l-97.463-97.463l-20.394,50.321v85.456l-85.456-85.456
	l-16.975,42.463v138.773l-32.861,2.203l145.463,145.463c0.441,0.002,0.879,0.017,1.321,0.017
	C375.298,512,475.536,430.399,503.944,319.966z"/>
<rect x="240.485" y="203.145" style="fill:#6CAF5F;" width="12.067" height="130"/>
<rect x="245.657" y="203.145" style="fill:#477F3C;" width="6.885" height="130"/>
<rect x="136.482" y="229.142" style="fill:#6CAF5F;" width="12.067" height="130"/>
<rect x="142.222" y="229.142" style="fill:#477F3C;" width="6.318" height="130"/>
<rect x="344.471" y="229.142" style="fill:#6CAF5F;" width="12.067" height="130"/>
<rect x="349.66" y="229.142" style="fill:#477F3C;" width="6.88" height="130"/>
<circle style="fill:#FF6262;" cx="246.519" cy="151.135" r="25.997"/>
<path style="fill:#FF314F;" d="M246.51,125.137c-0.288,0-0.567,0.034-0.852,0.043v51.915c0.286,0.009,0.564,0.043,0.852,0.043
	c14.36,0,26-11.642,26-26.002S260.87,125.137,246.51,125.137z"/>
<circle style="fill:#FFAD9E;" cx="220.505" cy="177.131" r="25.997"/>
<circle style="fill:#A30F44;" cx="272.515" cy="177.131" r="25.997"/>
<circle style="fill:#FF6262;" cx="246.519" cy="203.145" r="25.997"/>
<path style="fill:#FF314F;" d="M246.51,177.138c-0.288,0-0.567,0.034-0.852,0.043v51.915c0.286,0.009,0.564,0.043,0.852,0.043
	c14.36,0,26-11.64,26-26S260.87,177.138,246.51,177.138z"/>
<circle style="fill:#601772;" cx="246.519" cy="177.131" r="16.546"/>
<path style="fill:#480D56;" d="M246.51,160.592c-0.288,0-0.567,0.029-0.852,0.043v33.006c0.284,0.016,0.564,0.043,0.852,0.043
	c9.138,0,16.546-7.408,16.546-16.546C263.056,168,255.648,160.592,246.51,160.592z"/>
<circle style="fill:#FF6262;" cx="142.515" cy="203.145" r="25.997"/>
<path style="fill:#FF314F;" d="M142.507,177.138c-0.097,0-0.188,0.014-0.283,0.014v51.972c0.095,0.002,0.188,0.014,0.283,0.014
	c14.36,0,26-11.64,26-26S156.867,177.138,142.507,177.138z"/>
<circle style="fill:#FFAD9E;" cx="116.502" cy="229.142" r="25.997"/>
<circle style="fill:#A30F44;" cx="168.512" cy="229.142" r="25.997"/>
<circle style="fill:#FF6262;" cx="142.515" cy="255.138" r="25.997"/>
<path style="fill:#FF314F;" d="M142.507,229.138c-0.097,0-0.188,0.014-0.283,0.014v51.972c0.095,0,0.188,0.014,0.283,0.014
	c14.36,0,26-11.642,26-26.002C168.507,240.776,156.867,229.138,142.507,229.138z"/>
<circle style="fill:#601772;" cx="142.515" cy="229.142" r="16.546"/>
<path style="fill:#480D56;" d="M142.507,212.594c-0.097,0-0.188,0.012-0.283,0.014v33.063c0.095,0.002,0.188,0.014,0.283,0.014
	c9.138,0,16.546-7.408,16.546-16.546S151.645,212.594,142.507,212.594z"/>
<circle style="fill:#FF6262;" cx="350.505" cy="203.145" r="25.997"/>
<path style="fill:#FF314F;" d="M350.511,177.138c-0.286,0-0.562,0.033-0.845,0.043v51.915c0.283,0.009,0.56,0.043,0.845,0.043
	c14.36,0,26-11.64,26-26S364.872,177.138,350.511,177.138z"/>
<circle style="fill:#FFAD9E;" cx="324.508" cy="229.142" r="25.997"/>
<circle style="fill:#A30F44;" cx="376.518" cy="229.142" r="25.997"/>
<circle style="fill:#FF6262;" cx="350.505" cy="255.138" r="25.997"/>
<path style="fill:#FF314F;" d="M350.511,229.138c-0.286,0-0.562,0.034-0.845,0.043v51.915c0.283,0.009,0.56,0.043,0.845,0.043
	c14.36,0,26-11.642,26-26.002C376.511,240.778,364.872,229.138,350.511,229.138z"/>
<circle style="fill:#601772;" cx="350.505" cy="229.142" r="16.546"/>
<path style="fill:#480D56;" d="M350.511,212.594c-0.286,0-0.564,0.028-0.845,0.043v33.006c0.283,0.014,0.56,0.043,0.845,0.043
	c9.138,0,16.546-7.408,16.546-16.546S359.65,212.594,350.511,212.594z"/>
<g>
	<path style="fill:#477F3C;" d="M407.592,366.839l-0.005-0.319c0.06-0.774,0.117-1.55,0.117-2.339
		c0-16.279-13.197-29.474-29.474-29.474c-1.462,0-2.888,0.145-4.291,0.353c-0.579-0.233-1.169-0.453-1.758-0.674
		c-4.139-11.269-14.929-19.328-27.636-19.328c-0.948,0-1.883,0.053-2.807,0.141c-4.705-10.025-14.862-16.984-26.667-16.984
		c-3.47,0-6.785,0.631-9.878,1.733c-8.478-10.814-21.632-17.789-36.438-17.789c-6.122,0-11.959,1.198-17.308,3.355
		c-5.372-2.789-11.469-4.374-17.939-4.374c-13.417,0-25.25,6.777-32.268,17.092c-11.597,0.19-21.54,7.08-26.179,16.967
		c-0.924-0.088-1.858-0.141-2.807-0.141c-13.04,0-24.083,8.476-27.967,20.215c-1.85-0.364-3.76-0.565-5.716-0.565
		c-16.279,0-29.474,13.196-29.474,29.474c0,0.79,0.057,1.565,0.117,2.339L407.592,366.839z"/>
	<path style="fill:#477F3C;" d="M233.51,281.14c-13.417,0-25.25,6.777-32.268,17.092c-11.597,0.19-21.54,7.08-26.179,16.965
		c-0.924-0.088-1.858-0.141-2.807-0.141c-13.04,0-24.083,8.476-27.967,20.215c-1.85-0.364-3.76-0.565-5.716-0.565
		c-16.279,0-29.474,13.197-29.474,29.474c0,0.79,0.057,1.565,0.117,2.339l136.442,0.145v-83.575
		C241.833,281.834,237.754,281.14,233.51,281.14z"/>
	<path style="fill:#477F3C;" d="M407.586,366.52c0.06-0.774,0.117-1.548,0.117-2.339c0-16.279-13.197-29.474-29.474-29.474
		c-1.462,0-2.888,0.145-4.291,0.353c-0.579-0.233-1.169-0.453-1.758-0.674c-4.139-11.269-14.929-19.328-27.636-19.328
		c-0.948,0-1.883,0.053-2.807,0.141c-4.705-10.025-14.862-16.984-26.667-16.984c-3.47,0-6.785,0.631-9.878,1.733
		c-8.478-10.814-21.632-17.789-36.438-17.789c-6.122,0-11.959,1.198-17.308,3.356c-1.848-0.958-3.786-1.764-5.791-2.424v83.575
		l161.933,0.172L407.586,366.52z"/>
</g>
<g>
</g>
<g>
</g>
<g>
</g>
<g>
</g>
<g>
</g>
<g>
</g>
<g>
</g>
<g>
</g>
<g>
</g>
<g>
</g>
<g>
</g>
<g>
</g>
<g>
</g>
<g>
</g>
<g>
</g>
</svg>
