<?xml version="1.0" encoding="iso-8859-1"?>
<!-- Generator: Adobe Illustrator 19.0.0, SVG Export Plug-In . SVG Version: 6.00 Build 0)  -->
<svg version="1.1" id="Layer_1" xmlns="http://www.w3.org/2000/svg" xmlns:xlink="http://www.w3.org/1999/xlink" x="0px" y="0px"
	 viewBox="0 0 512 512" style="enable-background:new 0 0 512 512;" xml:space="preserve">
<circle style="fill:#B5F1F4;" cx="256" cy="256" r="256"/>
<path style="fill:#84DBFF;" d="M506.635,308.343L333.571,135.277l-77.283,175.888L117.217,427.03l77.59,77.59
	c19.609,4.811,40.1,7.38,61.193,7.38C379.445,512,482.476,424.622,506.635,308.343z"/>
<path style="fill:#324A5E;" d="M390.823,424.8c-52.771-87.431-67.412-269.646-67.412-269.646H188.588
	c0,0-14.641,182.215-67.412,269.646H390.823z"/>
<path style="fill:#2B3B4E;" d="M323.412,155.153H256V424.8h134.823C338.053,337.37,323.412,155.153,323.412,155.153z"/>
<g>
	<path style="fill:#FFD15D;" d="M326.966,188.656H185.034c-1.579,12.922-3.749,28.891-6.604,46.575h155.141
		C330.716,217.547,328.545,201.578,326.966,188.656z"/>
	<path style="fill:#FFD15D;" d="M336.187,250.756H175.813c-2.608,14.869-5.685,30.617-9.276,46.575h178.928
		C341.873,281.372,338.796,265.625,336.187,250.756z"/>
</g>
<g>
	<path style="fill:#F9B54C;" d="M326.966,188.656H256v46.575h77.571C330.716,217.547,328.545,201.578,326.966,188.656z"/>
	<path style="fill:#F9B54C;" d="M336.187,250.756H256v46.575h89.464C341.873,281.372,338.796,265.625,336.187,250.756z"/>
</g>
<path style="fill:#FC6F58;" d="M323.412,157.605H188.588c-7.446,0-13.483-6.035-13.483-13.483l0,0
	c0-7.446,6.035-13.483,13.483-13.483h134.823c7.446,0,13.483,6.035,13.483,13.483l0,0
	C336.894,151.569,330.857,157.605,323.412,157.605z"/>
<path style="fill:#F1543F;" d="M323.412,130.641H256v26.965h67.412c7.446,0,13.483-6.035,13.483-13.483
	C336.894,136.676,330.857,130.641,323.412,130.641z"/>
<path style="fill:#2B3B4E;" d="M383.224,433.045H128.776c-7.808,0-14.136-6.328-14.136-14.136l0,0
	c0-7.808,6.328-14.136,14.136-14.136h254.448c7.808,0,14.136,6.328,14.136,14.136l0,0
	C397.36,426.717,391.032,433.045,383.224,433.045z"/>
<path style="fill:#212F3D;" d="M383.224,404.773H256v28.272h127.224c7.808,0,14.136-6.328,14.136-14.136
	S391.032,404.773,383.224,404.773z"/>
<g>
</g>
<g>
</g>
<g>
</g>
<g>
</g>
<g>
</g>
<g>
</g>
<g>
</g>
<g>
</g>
<g>
</g>
<g>
</g>
<g>
</g>
<g>
</g>
<g>
</g>
<g>
</g>
<g>
</g>
</svg>
