<?xml version="1.0" encoding="iso-8859-1"?>
<!-- Generator: Adobe Illustrator 19.0.0, SVG Export Plug-In . SVG Version: 6.00 Build 0)  -->
<svg version="1.1" id="Layer_1" xmlns="http://www.w3.org/2000/svg" xmlns:xlink="http://www.w3.org/1999/xlink" x="0px" y="0px"
	 viewBox="0 0 512.002 512.002" style="enable-background:new 0 0 512.002 512.002;" xml:space="preserve">
<circle style="fill:#CFDBE6;" cx="256.001" cy="256" r="256"/>
<path style="fill:#B8C9D9;" d="M512.001,256c0-1.641-0.031-3.277-0.062-4.911l-86.874-86.874l-4.098,6.785l-37.397-37.397
	l-0.771,1.14l-35.821-35.821L195.924,206.583l-95.525,65.407l53.064,52.627l-14.284,12.303l30.163,30.163l-30.163,31.035
	l113.845,113.845c0.993,0.012,1.984,0.038,2.981,0.038C397.385,512,512.001,397.384,512.001,256z"/>
<path style="fill:#FFFFFF;" d="M245.971,221.324c-27.641,0-50.048-22.407-50.048-50.048s22.407-50.048,50.048-50.048
	c6.301,0,12.324,1.176,17.877,3.301c4.961-22.421,24.943-39.195,48.855-39.195c23.59,0,43.356,16.327,48.647,38.293
	c15.222,0.733,27.76,11.667,30.944,26.114c1.257-0.133,2.531-0.205,3.824-0.205c19.823,0,35.893,16.07,35.893,35.893
	s-16.07,35.893-35.893,35.893L245.971,221.324z"/>
<path style="fill:#E6F3FF;" d="M396.116,149.537c-1.291,0-2.567,0.072-3.824,0.205c-3.184-14.446-15.722-25.381-30.944-26.114
	c-5.289-21.968-25.055-38.295-48.645-38.295c-0.131,0-0.259,0.007-0.388,0.009v135.982h83.802c19.823,0,35.893-16.07,35.893-35.893
	S415.94,149.537,396.116,149.537z"/>
<path style="fill:#31BAFD;" d="M325.974,285.499c35.523,0,64.319-28.796,64.319-64.321c0-35.523-28.796-64.319-64.319-64.319
	c-8.097,0-15.838,1.51-22.974,4.241c-6.375-28.813-32.054-50.371-62.785-50.371c-30.318,0-55.72,20.982-62.517,49.214
	c-19.563,0.941-35.676,14.995-39.769,33.561c-1.615-0.171-3.253-0.264-4.913-0.264c-25.476,0-46.128,20.652-46.128,46.128
	c0,25.476,20.652,46.128,46.128,46.128h192.958V285.499z"/>
<g>
	<path style="fill:#2B9ED8;" d="M325.974,156.86c-8.097,0-15.838,1.51-22.974,4.241c-6.375-28.813-32.054-50.371-62.785-50.371
		c-0.295,0-0.586,0.016-0.879,0.019v174.749h86.638c35.523,0,64.321-28.796,64.321-64.321
		C390.295,185.656,361.497,156.86,325.974,156.86z"/>
	<path style="fill:#2B9ED8;" d="M300.822,338.182c-1.103,0-2.205-0.421-3.048-1.262c-1.684-1.684-1.684-4.411,0-6.094l32.754-32.754
		c1.684-1.684,4.411-1.684,6.094,0c1.683,1.684,1.684,4.411,0,6.094l-32.754,32.754
		C303.027,337.761,301.926,338.182,300.822,338.182z"/>
	<path style="fill:#2B9ED8;" d="M247.955,338.182c-1.103,0-2.205-0.421-3.048-1.262c-1.684-1.684-1.684-4.411,0-6.094l32.754-32.754
		c1.684-1.684,4.411-1.684,6.094,0s1.684,4.411,0,6.094l-32.754,32.754C250.16,337.761,249.059,338.182,247.955,338.182z"/>
	<path style="fill:#2B9ED8;" d="M195.09,338.182c-1.103,0-2.205-0.421-3.048-1.262c-1.684-1.684-1.684-4.411,0-6.094l32.754-32.754
		c1.684-1.684,4.411-1.684,6.094,0s1.684,4.411,0,6.094l-32.754,32.754C197.295,337.761,196.193,338.182,195.09,338.182z"/>
	<path style="fill:#2B9ED8;" d="M142.223,338.182c-1.103,0-2.205-0.421-3.048-1.262c-1.684-1.684-1.684-4.411,0-6.094l32.754-32.754
		c1.684-1.684,4.411-1.684,6.094,0s1.684,4.411,0,6.094l-32.754,32.754C144.428,337.761,143.326,338.182,142.223,338.182z"/>
	<path style="fill:#2B9ED8;" d="M300.822,399.381c-1.103,0-2.205-0.421-3.048-1.262c-1.684-1.684-1.684-4.411,0-6.094l32.754-32.754
		c1.684-1.684,4.411-1.684,6.094,0c1.683,1.684,1.684,4.411,0,6.094l-32.754,32.754C303.027,398.96,301.926,399.381,300.822,399.381
		z"/>
	<path style="fill:#2B9ED8;" d="M247.955,399.381c-1.103,0-2.205-0.421-3.048-1.262c-1.684-1.684-1.684-4.411,0-6.094l32.754-32.754
		c1.684-1.684,4.411-1.684,6.094,0s1.684,4.411,0,6.094l-32.754,32.754C250.16,398.96,249.059,399.381,247.955,399.381z"/>
	<path style="fill:#2B9ED8;" d="M195.09,399.381c-1.103,0-2.205-0.421-3.048-1.262c-1.684-1.684-1.684-4.411,0-6.094l32.754-32.754
		c1.684-1.684,4.411-1.684,6.094,0s1.684,4.411,0,6.094l-32.754,32.754C197.295,398.96,196.193,399.381,195.09,399.381z"/>
	<path style="fill:#2B9ED8;" d="M142.223,399.381c-1.103,0-2.205-0.421-3.048-1.262c-1.684-1.684-1.684-4.411,0-6.094l32.754-32.754
		c1.684-1.684,4.411-1.684,6.094,0s1.684,4.411,0,6.094l-32.754,32.754C144.428,398.96,143.326,399.381,142.223,399.381z"/>
</g>
<g>
</g>
<g>
</g>
<g>
</g>
<g>
</g>
<g>
</g>
<g>
</g>
<g>
</g>
<g>
</g>
<g>
</g>
<g>
</g>
<g>
</g>
<g>
</g>
<g>
</g>
<g>
</g>
<g>
</g>
</svg>
