<?xml version="1.0" encoding="iso-8859-1"?>
<!-- Generator: Adobe Illustrator 19.0.0, SVG Export Plug-In . SVG Version: 6.00 Build 0)  -->
<svg version="1.1" id="Layer_1" xmlns="http://www.w3.org/2000/svg" xmlns:xlink="http://www.w3.org/1999/xlink" x="0px" y="0px"
	 viewBox="0 0 512 512" style="enable-background:new 0 0 512 512;" xml:space="preserve">
<circle style="fill:#273B7A;" cx="256" cy="256" r="256"/>
<path style="fill:#121149;" d="M269.548,511.643c117.696-6.137,214.347-91.763,237.282-204.212L369.778,170.379L239.302,337.565
	l-4.132,3.446l-85.576,50.678L269.548,511.643z"/>
<path style="fill:#FFFFFF;" d="M313.177,113.778H165.926c-13.091,0-23.704,10.612-23.704,23.704v237.037
	c0,13.091,10.612,23.704,23.704,23.704h180.148c13.091,0,23.704-10.612,23.704-23.704v-204.14L313.177,113.778z"/>
<path style="fill:#D0D1D3;" d="M313.177,113.778H256v284.444h90.074c13.091,0,23.704-10.612,23.704-23.704v-204.14L313.177,113.778z
	"/>
<polygon style="fill:#A6A8AA;" points="313.177,170.379 369.778,170.379 313.177,113.778 "/>
<rect x="213.764" y="113.778" style="fill:#477F3C;" width="12.067" height="85.333"/>
<path style="fill:#3B9B27;" d="M232.32,224.063c-12.259,31.018-56.33,60.382-56.33,60.382s-12.09-51.559,0.167-82.577
	c12.257-31.018,28.715-35.876,44.223-29.748C235.891,178.25,244.579,193.046,232.32,224.063z"/>
<path style="fill:#2E5E24;" d="M220.382,172.122c15.508,6.128,24.197,20.925,11.938,51.943c-12.259,31.018-56.33,60.38-56.33,60.38
	L220.382,172.122z"/>
<path style="fill:#57B240;" d="M268.766,194.769c13.264,30.601,2.865,82.527,2.865,82.527s-45.006-27.908-58.271-58.509
	c-13.265-30.601-5.065-45.673,10.237-52.305C238.895,159.849,255.502,164.168,268.766,194.769z"/>
<path style="fill:#477F3C;" d="M271.631,277.295c0,0-45.006-27.908-58.271-58.509c-13.265-30.601-5.065-45.673,10.237-52.305
	L271.631,277.295z"/>
<g>
</g>
<g>
</g>
<g>
</g>
<g>
</g>
<g>
</g>
<g>
</g>
<g>
</g>
<g>
</g>
<g>
</g>
<g>
</g>
<g>
</g>
<g>
</g>
<g>
</g>
<g>
</g>
<g>
</g>
</svg>
