<?xml version="1.0" encoding="iso-8859-1"?>
<!-- Generator: Adobe Illustrator 19.0.0, SVG Export Plug-In . SVG Version: 6.00 Build 0)  -->
<svg version="1.1" id="Layer_1" xmlns="http://www.w3.org/2000/svg" xmlns:xlink="http://www.w3.org/1999/xlink" x="0px" y="0px"
	 viewBox="0 0 512 512" style="enable-background:new 0 0 512 512;" xml:space="preserve">
<circle style="fill:#FFEDB5;" cx="256" cy="256" r="256"/>
<path style="fill:#FEE187;" d="M511.883,263.508l-94.553-94.553L266.133,341.008L112.65,187.526l-18.637,22.616l146.122,146.122
	l-101.893,41.212l114.481,114.481c1.091,0.014,2.181,0.041,3.275,0.041C394.873,512,507.909,401.418,511.883,263.508z"/>
<path style="fill:#273B7A;" d="M149.925,403.22h212.151c7.354,0,13.588-5.408,14.627-12.686l27.91-195.374H107.386l27.91,195.374
	C136.337,397.812,142.57,403.22,149.925,403.22z"/>
<path style="fill:#121149;" d="M256.576,195.16v208.06h105.5c7.354,0,13.588-5.408,14.627-12.686l27.91-195.374L256.576,195.16
	L256.576,195.16z"/>
<path style="fill:#386895;" d="M356.848,403.22H155.152V248.329c0-11.473,9.3-20.773,20.771-20.773h160.153
	c11.473,0,20.771,9.3,20.771,20.771V403.22H356.848z"/>
<path style="fill:#273B7A;" d="M356.848,248.327c0-11.473-9.3-20.771-20.771-20.771h-79.501V403.22h100.273V248.327z"/>
<path style="fill:#121149;" d="M414.356,211.304H97.644c-3.467,0-6.277-2.81-6.277-6.277v-30.546c0-3.467,2.81-6.277,6.277-6.277
	h316.714c3.467,0,6.277,2.81,6.277,6.277v30.546C420.633,208.494,417.823,211.304,414.356,211.304z"/>
<path style="fill:#09092D;" d="M414.356,168.207H256.574v43.098h157.782c3.467,0,6.277-2.81,6.277-6.277v-30.546
	C420.633,171.017,417.823,168.207,414.356,168.207z"/>
<g>
	<path style="fill:#FFFFFF;" d="M240.092,312.794l-4.53-15.4c-0.452-1.534-1.495-2.827-2.9-3.594
		c-1.403-0.764-3.053-0.943-4.592-0.49l-15.398,4.53c-2.339,0.688-4.036,2.719-4.296,5.146c-0.259,2.426,0.969,4.77,3.112,5.937
		l4.539,2.476l-8.794,15.232c-2.8,4.849-2.8,10.642,0.002,15.491c2.8,4.849,7.814,7.745,13.414,7.745
		c3.332,0,6.034-2.701,6.034-6.034s-2.701-6.034-6.034-6.034c-1.783,0-2.667-1.196-2.965-1.712c-0.297-0.515-0.893-1.879,0-3.424
		l8.94-15.486l4.791,2.613c0.905,0.495,1.9,0.738,2.888,0.738c1.352,0,2.694-0.453,3.789-1.336
		C239.994,317.662,240.781,315.137,240.092,312.794z"/>
	<path style="fill:#FFFFFF;" d="M304.766,326.635l-3.631-6.289c-1.667-2.888-5.36-3.874-8.242-2.208
		c-2.886,1.667-3.875,5.356-2.208,8.242l3.631,6.289c0.893,1.545,0.297,2.91,0,3.424c-0.298,0.515-1.183,1.712-2.965,1.712h-32.006
		v-5.317c0-2.441-1.47-4.639-3.724-5.573c-2.26-0.936-4.851-0.419-6.575,1.308l-11.348,11.349c-2.357,2.355-2.357,6.175,0,8.532
		l11.348,11.35c1.153,1.155,2.696,1.767,4.268,1.767c0.776,0,1.56-0.15,2.307-0.46c2.257-0.933,3.725-3.132,3.725-5.573v-5.315
		h32.004c5.599,0,10.614-2.896,13.414-7.745C307.565,337.275,307.565,331.485,304.766,326.635z"/>
	<path style="fill:#FFFFFF;" d="M237.716,287.296c2.934,1.57,6.594,0.467,8.164-2.476l7.194-13.446
		c0.896-1.484,2.339-1.648,2.925-1.648c0.595,0,2.072,0.169,2.965,1.714l14.193,24.583l-4.327,2.241
		c-2.167,1.122-3.444,3.439-3.236,5.872c0.209,2.431,1.86,4.498,4.187,5.236l15.3,4.854c0.609,0.193,1.222,0.284,1.827,0.284
		c2.558,0,4.934-1.641,5.749-4.21l4.854-15.298c0.74-2.326,0.003-4.867-1.864-6.439c-1.864-1.57-4.494-1.867-6.663-0.743
		l-5.103,2.643l-14.469-25.059c-2.8-4.849-7.814-7.747-13.415-7.747c-5.601,0-10.616,2.898-13.415,7.747
		c-0.033,0.057-0.064,0.114-0.095,0.172l-7.249,13.552C233.669,282.069,234.775,285.725,237.716,287.296z"/>
</g>
<g>
	<path style="fill:#D0D1D3;" d="M304.766,326.635l-3.631-6.289c-1.667-2.888-5.36-3.874-8.242-2.208
		c-2.886,1.667-3.875,5.356-2.208,8.242l3.631,6.289c0.893,1.545,0.297,2.91,0,3.424c-0.298,0.515-1.183,1.712-2.965,1.712h-32.006
		v-5.317c0-2.074-1.069-3.965-2.77-5.063v32.823c1.702-1.096,2.77-2.989,2.77-5.063v-5.315h32.004
		c5.599,0,10.614-2.896,13.414-7.745C307.565,337.275,307.565,331.485,304.766,326.635z"/>
	<path style="fill:#D0D1D3;" d="M295.65,288.566c-1.864-1.57-4.494-1.867-6.663-0.743l-5.103,2.643l-14.469-25.059
		c-2.703-4.682-7.475-7.516-12.841-7.711v12.079c0.709,0.117,1.715,0.498,2.389,1.665l14.193,24.583l-4.327,2.241
		c-2.167,1.122-3.444,3.439-3.236,5.872c0.209,2.431,1.86,4.498,4.187,5.236l15.3,4.854c0.609,0.193,1.222,0.284,1.827,0.284
		c2.558,0,4.934-1.641,5.749-4.21l4.855-15.298C298.253,292.68,297.517,290.138,295.65,288.566z"/>
</g>
<g>
</g>
<g>
</g>
<g>
</g>
<g>
</g>
<g>
</g>
<g>
</g>
<g>
</g>
<g>
</g>
<g>
</g>
<g>
</g>
<g>
</g>
<g>
</g>
<g>
</g>
<g>
</g>
<g>
</g>
</svg>
