<?xml version="1.0" encoding="iso-8859-1"?>
<!-- Generator: Adobe Illustrator 19.0.0, SVG Export Plug-In . SVG Version: 6.00 Build 0)  -->
<svg version="1.1" id="Layer_1" xmlns="http://www.w3.org/2000/svg" xmlns:xlink="http://www.w3.org/1999/xlink" x="0px" y="0px"
	 viewBox="0 0 512 512" style="enable-background:new 0 0 512 512;" xml:space="preserve">
<circle style="fill:#E6F3FF;" cx="256" cy="256" r="256"/>
<path style="fill:#CFDBE6;" d="M270.239,511.6c130.045-7.132,234.227-111.314,241.361-241.359L386.229,144.87l-30.658,20.449
	l-74.505-74.505l-96.88,83.027L88.778,279.043l74.147,74.147l-29.327,21.766L270.239,511.6z"/>
<path style="fill:#F9B54C;" d="M411.726,227.556h-16.355c-3.686-18.156-10.847-35.044-20.732-49.969l11.588-11.588
	c5.834-5.834,5.834-15.294,0-21.128l-19.097-19.097c-5.834-5.834-15.294-5.834-21.128,0l-11.588,11.588
	c-14.926-9.885-31.813-17.046-49.969-20.732v-16.355c0-8.251-6.689-14.941-14.941-14.941h-27.008
	c-8.251,0-14.941,6.689-14.941,14.941v16.355c-18.156,3.686-35.044,10.845-49.969,20.732l-11.588-11.588
	c-5.835-5.834-15.294-5.834-21.128,0l-19.097,19.097c-5.834,5.835-5.834,15.294,0,21.128l11.588,11.588
	c-9.885,14.927-17.046,31.813-20.732,49.969h-16.355c-8.251,0-14.941,6.689-14.941,14.941v27.008
	c0,8.251,6.689,14.941,14.941,14.941h16.355c3.686,18.156,10.845,35.044,20.732,49.969l-11.588,11.588
	c-5.834,5.834-5.834,15.294,0,21.128l19.097,19.097c5.834,5.834,15.294,5.834,21.128,0l11.588-11.588
	c14.927,9.885,31.813,17.046,49.969,20.732v16.355c0,8.251,6.689,14.941,14.941,14.941h27.008c8.251,0,14.941-6.689,14.941-14.941
	v-16.355c18.156-3.686,35.044-10.847,49.969-20.732l11.588,11.588c5.834,5.834,15.294,5.834,21.128,0l19.097-19.097
	c5.835-5.834,5.835-15.294,0-21.128l-11.588-11.588c9.885-14.926,17.046-31.813,20.732-49.969h16.355
	c8.251,0,14.941-6.689,14.941-14.941v-27.008C426.667,234.244,419.976,227.556,411.726,227.556z M256,355.556
	c-54.982,0-99.556-44.573-99.556-99.556s44.573-99.556,99.556-99.556s99.556,44.573,99.556,99.556S310.982,355.556,256,355.556z"/>
<path style="fill:#F4A200;" d="M411.726,227.556h-16.355c-3.686-18.156-10.847-35.044-20.732-49.969l11.588-11.588
	c5.835-5.834,5.835-15.294,0-21.128l-19.097-19.097c-5.834-5.834-15.294-5.834-21.128,0l-11.588,11.588
	c-14.926-9.885-31.813-17.046-49.969-20.732v-16.355c0-8.251-6.689-14.941-14.941-14.941h-14.077v71.125
	c0.191-0.002,0.381-0.014,0.574-0.014c54.984,0,99.556,44.573,99.556,99.556S310.984,355.556,256,355.556
	c-0.193,0-0.381-0.014-0.574-0.014v71.125h14.077c8.251,0,14.941-6.689,14.941-14.941v-16.355
	c18.156-3.686,35.044-10.847,49.969-20.732l11.588,11.588c5.834,5.834,15.294,5.834,21.128,0l19.097-19.097
	c5.835-5.834,5.835-15.294,0-21.128l-11.588-11.588c9.885-14.926,17.046-31.813,20.732-49.969h16.355
	c8.251,0,14.941-6.689,14.941-14.941v-27.008C426.667,234.244,419.976,227.556,411.726,227.556z"/>
<path style="fill:#79D720;" d="M256,316.369l-22.1-22.099c-26.85-26.85-26.85-70.38,0-97.23l22.099-22.099l22.099,22.099
	c26.85,26.85,26.85,70.38,0,97.23L256,316.369z"/>
<path style="fill:#66B31B;" d="M278.099,197.042L256,174.944l-0.574,0.574v140.281l0.574,0.574l22.099-22.099
	C304.947,267.423,304.947,223.891,278.099,197.042z"/>
<path style="fill:#599B13;" d="M256,341.061c-2.857,0-5.172-2.315-5.172-5.172V229.295c0-2.857,2.315-5.172,5.172-5.172
	s5.172,2.315,5.172,5.172v106.594C261.172,338.746,258.857,341.061,256,341.061z"/>
<path style="fill:#4F870E;" d="M256,224.123c-0.197,0-0.383,0.036-0.574,0.059v116.822c0.191,0.021,0.378,0.059,0.574,0.059
	c2.857,0,5.172-2.315,5.172-5.172V229.297C261.172,226.438,258.857,224.123,256,224.123z"/>
<g>
</g>
<g>
</g>
<g>
</g>
<g>
</g>
<g>
</g>
<g>
</g>
<g>
</g>
<g>
</g>
<g>
</g>
<g>
</g>
<g>
</g>
<g>
</g>
<g>
</g>
<g>
</g>
<g>
</g>
</svg>
