<?xml version="1.0" encoding="iso-8859-1"?>
<!-- Generator: Adobe Illustrator 19.0.0, SVG Export Plug-In . SVG Version: 6.00 Build 0)  -->
<svg version="1.1" id="Layer_1" xmlns="http://www.w3.org/2000/svg" xmlns:xlink="http://www.w3.org/1999/xlink" x="0px" y="0px"
	 viewBox="0 0 512 512" style="enable-background:new 0 0 512 512;" xml:space="preserve">
<circle style="fill:#FF314F;" cx="256" cy="256" r="256"/>
<path style="fill:#A30F44;" d="M211.144,223.079l-14.152-23.44H168.8l-14.103,14.103v30.199l31.361,99.161l-63.586,30.613
	l138.226,138.226c88.483-1.593,166.007-48.064,210.758-117.631l-0.133-0.133l0.607-0.607
	c20.401-31.954,33.889-68.742,38.393-108.261L374.587,149.575l-6.015,7.328l-41.45-41.45l-11.816-3.37l-9.578-4.506h-30.432
	l-16.593,11.348v42.524L211.144,223.079z"/>
<path style="fill:#FFFFFF;" d="M296.417,217.953h-6.06c-21.116,0-38.295-17.179-38.295-38.295v-41.348
	c0-21.116,17.179-38.295,38.295-38.295h6.06c21.114,0,38.293,17.179,38.293,38.295v41.348
	C334.71,200.776,317.531,217.953,296.417,217.953z M290.357,112.083c-14.462,0-26.228,11.766-26.228,26.227v41.348
	c0,14.462,11.766,26.227,26.228,26.227h6.06c14.462,0,26.226-11.766,26.226-26.227v-41.348c0-14.462-11.764-26.228-26.226-26.228
	L290.357,112.083L290.357,112.083z"/>
<path style="fill:#D0D1D3;" d="M296.417,100.016h-2.66v12.067h2.66c14.462,0,26.226,11.766,26.226,26.227v41.348
	c0,14.462-11.764,26.227-26.226,26.227h-2.66v12.067h2.66c21.114,0,38.293-17.179,38.293-38.295v-41.348
	C334.71,117.195,317.531,100.016,296.417,100.016z"/>
<path style="fill:#FFC61B;" d="M366.504,382.486H227.394c-18.117,0-32.211-15.748-30.21-33.752l22.128-199.159h155.276
	l22.128,199.159C398.715,366.74,384.621,382.486,366.504,382.486z"/>
<path style="fill:#EAA22F;" d="M396.714,348.734l-22.128-199.159h-80.829v232.912h72.747
	C384.621,382.486,398.715,366.74,396.714,348.734z"/>
<path style="fill:#FFFFFF;" d="M184.975,285.005h-4.443c-16.372,0-29.693-13.321-29.693-29.693V224.99
	c0-16.372,13.321-29.693,29.693-29.693h4.443c16.372,0,29.693,13.321,29.693,29.693v30.322
	C214.666,271.684,201.347,285.005,184.975,285.005z M180.531,207.367c-9.719,0-17.625,7.906-17.625,17.625v30.322
	c0,9.719,7.906,17.625,17.625,17.625h4.443c9.719,0,17.625-7.906,17.625-17.625v-30.322c0-9.719-7.906-17.625-17.625-17.625H180.531
	z"/>
<path style="fill:#D0D1D3;" d="M184.975,195.3h-3.27v12.067h3.27c9.719,0,17.625,7.906,17.625,17.625v30.322
	c0,9.719-7.906,17.625-17.625,17.625h-3.27v12.067h3.27c16.372,0,29.693-13.321,29.693-29.693v-30.322
	C214.666,208.618,201.347,195.3,184.975,195.3z"/>
<path style="fill:#FFEDB5;" d="M226.869,382.486h-88.233c-11.49,0-20.43-9.988-19.161-21.407l14.036-126.319h98.485l14.036,126.319
	C247.299,372.5,238.359,382.486,226.869,382.486z"/>
<path style="fill:#FEE187;" d="M246.031,361.079L231.995,234.76h-50.292v147.727h45.166
	C238.359,382.486,247.299,372.5,246.031,361.079z"/>
<path style="fill:#477F3C;" d="M293.448,330.73v-64.698c0-2.915,1.96-5.632,4.832-6.13c3.717-0.646,6.944,2.2,6.944,5.796v65.033
	H293.448z"/>
<path style="fill:#3B9B27;" d="M289.595,246.284c9.154-23.161,41.108-45.137,43.658-46.863c0.084-0.057,0.183-0.019,0.205,0.081
	c0.681,3.003,8.98,40.888-0.174,64.048c-9.537,24.129-22.338,27.908-34.402,23.142C286.818,281.924,280.061,270.414,289.595,246.284
	z"/>
<path style="fill:#2E8419;" d="M333.255,199.421c0.084-0.057,0.183-0.019,0.205,0.081c0.681,3.003,8.98,40.888-0.174,64.048
	c-9.537,24.129-22.338,27.908-34.402,23.142L333.255,199.421z"/>
<path style="fill:#57B240;" d="M261.244,269.074c-9.906-22.85-2.848-60.985-2.265-64.009c0.019-0.1,0.116-0.143,0.203-0.088
	c2.605,1.643,35.261,22.562,45.166,45.413c10.319,23.805,3.939,35.53-7.963,40.689C284.482,296.239,271.563,292.88,261.244,269.074z
	"/>
<path style="fill:#479B2F;" d="M296.384,291.08c-11.902,5.16-24.821,1.8-35.14-22.006c-9.906-22.85-2.848-60.985-2.265-64.009
	c0.019-0.1,0.115-0.143,0.203-0.088L296.384,291.08z"/>
<path style="fill:#477F3C;" d="M176.597,363.991v-44.566c0-2.008,1.35-3.879,3.329-4.224c2.56-0.445,4.784,1.515,4.784,3.993v44.796
	h-8.113V363.991z"/>
<path style="fill:#3B9B27;" d="M173.944,305.824c6.304-15.953,28.317-31.091,30.074-32.28c0.059-0.04,0.126-0.012,0.141,0.055
	c0.469,2.069,6.185,28.163-0.121,44.118c-6.568,16.62-15.388,19.225-23.697,15.941C172.03,330.373,167.376,322.444,173.944,305.824z
	"/>
<path style="fill:#2E8419;" d="M204.017,273.544c0.059-0.04,0.126-0.012,0.141,0.055c0.469,2.069,6.185,28.163-0.121,44.118
	c-6.568,16.62-15.388,19.225-23.697,15.941L204.017,273.544z"/>
<path style="fill:#57B240;" d="M154.414,321.522c-6.823-15.739-1.962-42.008-1.56-44.091c0.014-0.069,0.079-0.098,0.14-0.06
	c1.795,1.131,24.288,15.541,31.111,31.28c7.108,16.398,2.713,24.474-5.485,28.027C170.42,340.233,161.523,337.92,154.414,321.522z"
	/>
<path style="fill:#479B2F;" d="M178.619,336.68c-8.199,3.555-17.098,1.24-24.205-15.158c-6.823-15.739-1.962-42.008-1.56-44.091
	c0.014-0.069,0.079-0.098,0.14-0.06L178.619,336.68z"/>
<g>
</g>
<g>
</g>
<g>
</g>
<g>
</g>
<g>
</g>
<g>
</g>
<g>
</g>
<g>
</g>
<g>
</g>
<g>
</g>
<g>
</g>
<g>
</g>
<g>
</g>
<g>
</g>
<g>
</g>
</svg>
