<?xml version="1.0" encoding="iso-8859-1"?>
<!-- Generator: Adobe Illustrator 19.0.0, SVG Export Plug-In . SVG Version: 6.00 Build 0)  -->
<svg version="1.1" id="Layer_1" xmlns="http://www.w3.org/2000/svg" xmlns:xlink="http://www.w3.org/1999/xlink" x="0px" y="0px"
	 viewBox="0 0 512 512" style="enable-background:new 0 0 512 512;" xml:space="preserve">
<circle style="fill:#EAA22F;" cx="256" cy="256" r="256"/>
<path style="fill:#E09112;" d="M148.249,389.494l122.099,122.099c113.035-6.246,206.517-85.811,233.674-191.943L361.16,176.788
	l-7.59,11.14L255.16,89.519l-39.286,45.415l-28.874-28.874l-9.54,25.31L148.249,389.494z"/>
<path style="fill:#6CAF5F;" d="M191.502,142.119c16.162-29.175,63.657-52.6,63.657-52.6s5.329,52.689-10.833,81.865
	s-33.108,31.868-47.695,23.786C182.043,187.089,175.338,171.292,191.502,142.119z"/>
<g>
	<path style="fill:#477F3C;" d="M255.159,89.519c0,0,5.329,52.689-10.833,81.865s-33.108,31.868-47.695,23.786L255.159,89.519z"/>
	<path style="fill:#477F3C;" d="M148.558,156.141c-10.569-31.634,4.28-82.466,4.28-82.466s42.427,31.696,52.996,63.329
		c10.569,31.634,1.096,45.94-14.72,51.224C175.297,193.512,159.127,187.775,148.558,156.141z"/>
</g>
<path style="fill:#2E5E24;" d="M191.114,188.228c-15.817,5.284-31.987-0.455-42.556-32.087s4.28-82.466,4.28-82.466L191.114,188.228
	z"/>
<path style="fill:#FFFFFF;" d="M344.781,398.222H167.219c-13.805,0-24.997-11.192-24.997-24.997V195.663
	c0-13.805,11.192-24.997,24.997-24.997h177.562c13.805,0,24.997,11.192,24.997,24.997v177.562
	C369.778,387.031,358.586,398.222,344.781,398.222z"/>
<g>
	<path style="fill:#D0D1D3;" d="M344.781,170.667h-88.207v227.556h88.207c13.805,0,24.997-11.192,24.997-24.997V195.663
		C369.778,181.858,358.586,170.667,344.781,170.667z"/>
	<circle style="fill:#D0D1D3;" cx="256" cy="284.444" r="85.333"/>
</g>
<g>
	<path style="fill:#A6A8AA;" d="M341.333,284.444c0-46.935-37.897-85.008-84.758-85.32v170.637
		C303.437,369.452,341.333,331.379,341.333,284.444z"/>
	<circle style="fill:#A6A8AA;" cx="256" cy="284.444" r="56.889"/>
</g>
<path style="fill:#808183;" d="M312.889,284.444c0-31.225-25.16-56.565-56.313-56.875v113.748
	C287.728,341.009,312.889,315.67,312.889,284.444z"/>
<circle style="fill:#59595B;" cx="226.987" cy="284.444" r="14.222"/>
<circle style="fill:#272525;" cx="285.013" cy="284.444" r="14.222"/>
<g>
</g>
<g>
</g>
<g>
</g>
<g>
</g>
<g>
</g>
<g>
</g>
<g>
</g>
<g>
</g>
<g>
</g>
<g>
</g>
<g>
</g>
<g>
</g>
<g>
</g>
<g>
</g>
<g>
</g>
</svg>
