<?xml version="1.0" encoding="iso-8859-1"?>
<!-- Generator: Adobe Illustrator 19.0.0, SVG Export Plug-In . SVG Version: 6.00 Build 0)  -->
<svg version="1.1" id="Layer_1" xmlns="http://www.w3.org/2000/svg" xmlns:xlink="http://www.w3.org/1999/xlink" x="0px" y="0px"
	 viewBox="0 0 512 512" style="enable-background:new 0 0 512 512;" xml:space="preserve">
<circle style="fill:#31BAFD;" cx="256" cy="256" r="256"/>
<path style="fill:#2B9ED8;" d="M437.019,437.019c41.77-41.77,66.074-94.384,72.94-148.78L365.711,143.991L212.327,296.798
	l-66.327,70.935l142.226,142.226C342.628,503.096,395.247,478.792,437.019,437.019z"/>
<path style="fill:#324A5E;" d="M332.859,380.983H179.143c-26.579,0-48.126-21.547-48.126-48.125V179.143
	c0-26.579,21.547-48.126,48.126-48.126h153.715c26.577,0,48.125,21.547,48.125,48.126v153.715
	C380.983,359.436,359.436,380.983,332.859,380.983z"/>
<path style="fill:#2B3B4E;" d="M332.859,131.017h-77.433v249.966h77.433c26.577,0,48.125-21.547,48.125-48.125V179.143
	C380.983,152.564,359.436,131.017,332.859,131.017z"/>
<path style="fill:#FFFFFF;" d="M335.875,369.778H176.126c-18.725,0-33.904-15.179-33.904-33.904V176.125
	c0-18.725,15.179-33.902,33.904-33.902h159.749c18.725,0,33.904,15.179,33.904,33.902v159.749
	C369.778,354.599,354.599,369.778,335.875,369.778z"/>
<path style="fill:#E6F3FF;" d="M335.875,142.222h-80.45v227.556h80.45c18.725,0,33.904-15.179,33.904-33.904V176.125
	C369.778,157.401,354.599,142.222,335.875,142.222z"/>
<path style="fill:#B8C9D9;" d="M341.333,212.694c-20.849-13.609-51.34-22.202-85.333-22.202s-64.484,8.594-85.333,22.202v86.612
	c20.849,13.608,51.34,22.202,85.333,22.202s64.484-8.594,85.333-22.202V212.694z"/>
<path style="fill:#9CAEBC;" d="M256,190.492c-0.193,0-0.381,0.009-0.574,0.009v131c0.193,0,0.381,0.009,0.574,0.009
	c33.994,0,64.484-8.594,85.333-22.202v-86.612C320.484,199.085,289.994,190.492,256,190.492z"/>
<path style="fill:#324A5E;" d="M222.72,267.636h-4.549c-5.289,0-9.576-4.287-9.576-9.576v-28.253c0-5.289,4.287-9.576,9.576-9.576
	h4.549c5.289,0,9.576,4.287,9.576,9.576v28.253C232.296,263.349,228.009,267.636,222.72,267.636z"/>
<path style="fill:#2B3B4E;" d="M293.831,267.636h-4.549c-5.289,0-9.576-4.287-9.576-9.576v-28.253c0-5.289,4.287-9.576,9.576-9.576
	h4.549c5.289,0,9.576,4.287,9.576,9.576v28.253C303.407,263.349,299.12,267.636,293.831,267.636z"/>
<path style="fill:#324A5E;" d="M257.655,306.424h-3.308c-3.846,0-6.965-3.119-6.965-6.965v-20.549c0-3.846,3.119-6.965,6.965-6.965
	h3.308c3.846,0,6.965,3.119,6.965,6.965v20.547C264.62,303.306,261.501,306.424,257.655,306.424z"/>
<path style="fill:#2B3B4E;" d="M257.655,271.946h-2.229v34.478h2.229c3.846,0,6.965-3.119,6.965-6.965v-20.549
	C264.62,275.065,261.501,271.946,257.655,271.946z"/>
<g>
</g>
<g>
</g>
<g>
</g>
<g>
</g>
<g>
</g>
<g>
</g>
<g>
</g>
<g>
</g>
<g>
</g>
<g>
</g>
<g>
</g>
<g>
</g>
<g>
</g>
<g>
</g>
<g>
</g>
</svg>
