<?xml version="1.0" encoding="iso-8859-1"?>
<!-- Generator: Adobe Illustrator 19.0.0, SVG Export Plug-In . SVG Version: 6.00 Build 0)  -->
<svg version="1.1" id="Layer_1" xmlns="http://www.w3.org/2000/svg" xmlns:xlink="http://www.w3.org/1999/xlink" x="0px" y="0px"
	 viewBox="0 0 512 512" style="enable-background:new 0 0 512 512;" xml:space="preserve">
<circle style="fill:#273B7A;" cx="256" cy="256" r="256"/>
<path style="fill:#121149;" d="M509.8,289.628L335.462,115.29l-2.139,3.582l-19.458-20.087l-4.62,10.512L288.23,88.031l-3.596,9.006
	l-0.064-0.545l-6.522,1.965l26.815,26.503l-0.746,2.669l-43.204-43.205l-6.368,8.345l0.262,0.262l-5.23,0.255l50.128,50.128
	l-2.396,8.573l-62.274-62.274l-1.588,1.734l-0.264,0.486l-10.476,5.499l70.222,70.222l-2.731,9.769l31.189,31.189h-9.912
	l-88.883-88.883l3.301-3.301l-16.26-16.26l-2.872,3.729l-1.422-1.129l-7.101,6.192l99.945,99.65h-18.244l-93.21-93.21l-1.657,3.806
	l-2.488-2.488l-6.168,8.992l15.648,15.648l5.87-5.87l73.119,73.119h-29.965L168.5,136.027l-2.622,5.28l0.179,0.179l-6.711,5.627
	l17.787,17.787l6.17-6.17l49.883,49.883h-21.98v5.668l-51.86-51.859l-1.883,1.934l-0.453-0.453l-8.221,8.521l19.399,19.399
	l5.754-5.754l37.264,37.264v26.372l-42.98-42.98l2.231-2.231l-15.574-15.574l-5.608,4.389l2.76,2.76l-6.325,4.406l65.496,65.496
	v3.013l-51.859-51.859l-1.184,2.191l-1.071-1.071l-6.318,10.519l16.112,16.112l-8.18,6.585l21.194,21.194l-3.243,2.034
	l117.165,117.165l-8.651,12.728L135.563,254.976c-3.105,3.105-2.789,32.096-2.789,32.096l10.981,10.981l0.04,54.896l155.405,155.405
	C409.138,489.665,495.199,400.903,509.8,289.628z"/>
<path style="fill:#FFC61B;" d="M382.457,253.247c-3.332-0.545-6.63,1.229-8.027,4.303c-0.021,0.045-0.04,0.088-0.062,0.131
	l-25.24,50.431c0.312,0.295,0.612,0.609,0.9,0.936c4.515,5.148,4.661,12.766,0.347,18.054l-20.433,25.171
	c-1.291,1.593-3.631,1.834-5.222,0.543c-1.593-1.291-1.869-3.663-0.543-5.222l20.433-25.171c2.005-2.495,1.957-6.06-0.164-8.478
	c-1.158-1.319-2.76-2.108-4.511-2.222s-3.444,0.46-4.763,1.619l-32.247,28.301c-3.62,3.179-6.246,7.306-7.587,11.935l-16.025,55.306
	h31.901l0.081-1.181c0.545-7.975,4.586-15.219,11.092-19.87l39.096-27.953c6.959-5.327,11.586-13.017,13.033-21.661l14.21-77.081
	C388.98,257.315,386.255,253.866,382.457,253.247z"/>
<g>
	<path style="fill:#FEE187;" d="M216.662,353.578c-1.341-4.629-3.967-8.756-7.587-11.935l-32.249-28.301
		c-1.319-1.158-3.01-1.733-4.763-1.619c-1.751,0.114-3.353,0.903-4.511,2.222c-2.12,2.417-2.169,5.982-0.164,8.478l20.433,25.171
		c1.326,1.558,1.05,3.929-0.543,5.222c-1.591,1.291-3.929,1.05-5.222-0.543l-20.433-25.171c-4.315-5.289-4.17-12.907,0.346-18.054
		c0.288-0.328,0.588-0.64,0.9-0.936l-25.24-50.431c-0.022-0.043-0.041-0.086-0.062-0.131c-1.395-3.074-4.694-4.848-8.027-4.303
		c-3.798,0.619-6.523,4.068-6.266,7.892l14.21,77.081c1.446,8.642,6.072,16.334,13.033,21.661l39.096,27.953
		c6.506,4.651,10.547,11.895,11.092,19.87l0.081,1.181h31.901L216.662,353.578z"/>
	<path style="fill:#FEE187;" d="M248.953,300.172c0-4.03,3.255-7.285,7.268-7.301l0,0c4.03-0.016,7.301,3.238,7.301,7.268l0,0
		c0.017,4.013-3.253,7.285-7.268,7.301l0,0C252.238,307.457,248.97,304.187,248.953,300.172z M227.149,303.7L227.149,303.7
		L227.149,303.7c-3.886-1.019-6.216-5.018-5.18-8.904l0,0c1.019-3.884,5.02-6.201,8.904-5.179l0,0
		c3.886,1.036,6.216,5.018,5.18,8.904l0,0c-0.859,3.269-3.82,5.422-7.04,5.422l0,0C228.395,303.944,227.762,303.863,227.149,303.7z
		 M276.425,298.439c-1.053-3.884,1.246-7.883,5.132-8.935l0,0c3.884-1.053,7.883,1.246,8.935,5.132l0,0
		c1.053,3.886-1.246,7.883-5.132,8.935l0,0c-0.648,0.162-1.279,0.243-1.91,0.243l0,0
		C280.243,303.814,277.299,301.677,276.425,298.439z M199.983,292.514L199.983,292.514L199.983,292.514
		c-3.496-2.007-4.694-6.458-2.688-9.938l0,0c2.008-3.496,6.459-4.694,9.94-2.688h0.016c3.481,2.008,4.677,6.459,2.672,9.956l0,0
		c-1.343,2.331-3.805,3.643-6.315,3.643l0,0C202.364,293.486,201.118,293.178,199.983,292.514z M302.502,289.633
		c-2.024-3.481-0.841-7.949,2.639-9.973l0,0c3.481-2.008,7.933-0.843,9.956,2.655l0,0c2.024,3.465,0.841,7.933-2.639,9.956l0,0
		c-1.15,0.664-2.412,0.988-3.658,0.988l0,0C306.29,293.243,303.863,291.949,302.502,289.633z M176.657,274.692
		c-2.848-2.832-2.865-7.446-0.031-10.295l0,0c2.832-2.85,7.446-2.867,10.312-0.033l0,0c2.848,2.832,2.848,7.447,0.016,10.312l0,0
		c-1.424,1.424-3.286,2.138-5.163,2.138l0,0C179.927,276.813,178.066,276.116,176.657,274.692z M325.392,274.351
		c-2.85-2.832-2.85-7.446-0.017-10.295l0,0c2.85-2.85,7.447-2.867,10.312-0.017l0,0c2.848,2.832,2.848,7.447,0.016,10.297l0,0
		c-1.424,1.439-3.301,2.153-5.163,2.153l0,0C328.678,276.489,326.818,275.777,325.392,274.351z M158.704,251.463
		c-2.024-3.465-0.841-7.933,2.639-9.956l0,0c3.465-2.024,7.933-0.841,9.956,2.639l0,0c2.024,3.481,0.843,7.933-2.622,9.956l0,0
		c-1.165,0.664-2.429,0.988-3.658,0.988l0,0C162.511,255.09,160.065,253.793,158.704,251.463z M343.604,253.697
		c-3.496-2.008-4.696-6.459-2.688-9.938l0,0c2.008-3.496,6.459-4.679,9.954-2.688l0,0c3.481,2.024,4.679,6.475,2.672,9.954l0,0
		c-1.343,2.348-3.787,3.643-6.315,3.643l0,0C346,254.667,344.736,254.361,343.604,253.697z M147.39,224.363
		c-1.053-3.886,1.246-7.883,5.115-8.919l0,0c3.886-1.053,7.883,1.246,8.937,5.115l0,0c1.052,3.884-1.248,7.883-5.115,8.935l0,0
		c-0.648,0.179-1.279,0.259-1.91,0.259l0,0C151.211,229.754,148.265,227.618,147.39,224.363z M355.842,229.042
		c-3.901-1.036-6.201-5.018-5.18-8.904l0,0c1.038-3.899,5.02-6.216,8.919-5.179l0,0c3.886,1.036,6.201,5.018,5.165,8.919l0,0
		c0,0,0,0,0-0.016l0,0c-0.874,3.269-3.82,5.422-7.04,5.422l0,0C357.09,229.285,356.457,229.204,355.842,229.042z M143.489,195.274
		c0-0.066,0-0.129,0-0.179l0,0c0-0.066,0-0.114,0-0.162l0,0c0-4.015,3.269-7.285,7.285-7.285l0,0c4.029,0,7.285,3.269,7.285,7.285
		l0,0c0,0.048,0,0.097,0,0.162l0,0c0,0.048,0,0.098,0,0.129v0.016c0.016,4.015-3.238,7.285-7.252,7.302l0,0
		C146.775,202.543,143.505,199.289,143.489,195.274z M353.932,194.789c0-4.03,3.253-7.302,7.285-7.302l0,0
		c4.013,0,7.285,3.255,7.285,7.268l0,0c0.016,4.03-3.255,7.301-7.268,7.301l0,0C357.202,202.056,353.947,198.803,353.932,194.789z
		 M152.457,174.747c-3.886-1.036-6.201-5.034-5.165-8.919l0,0c1.036-3.884,5.036-6.201,8.919-5.163l0,0
		c3.886,1.052,6.201,5.034,5.165,8.919l0,0c-0.874,3.269-3.82,5.406-7.04,5.406l0,0C153.719,174.99,153.072,174.909,152.457,174.747
		z M350.58,169.439h0.016c-1.052-3.886,1.248-7.883,5.132-8.919l0,0c3.886-1.053,7.883,1.262,8.937,5.148l0,0
		c1.036,3.884-1.264,7.883-5.148,8.919l0,0c-0.633,0.179-1.264,0.259-1.896,0.259l0,0
		C354.402,174.845,351.454,172.692,350.58,169.439z M161.197,148.654c-3.479-2.024-4.677-6.475-2.655-9.956l0,0
		c2.008-3.481,6.459-4.677,9.956-2.672l0,0c3.479,2.024,4.661,6.475,2.655,9.956l0,0c-1.36,2.332-3.805,3.643-6.315,3.643l0,0
		C163.595,149.625,162.347,149.301,161.197,148.654z M340.771,145.853c-2.024-3.481-0.827-7.933,2.638-9.956l0,0
		c3.479-2.007,7.949-0.826,9.973,2.657l0,0c2.007,3.479,0.826,7.932-2.657,9.954l0,0c-1.15,0.664-2.412,0.988-3.643,0.988l0,0
		C344.574,149.495,342.132,148.183,340.771,145.853z M176.416,125.716c-2.832-2.85-2.832-7.463,0-10.312l0,0
		c2.848-2.85,7.463-2.85,10.312,0l0,0c2.848,2.848,2.848,7.461,0,10.295l0,0c-1.424,1.424-3.286,2.138-5.149,2.138l0,0
		C179.702,127.836,177.84,127.123,176.416,125.716z M325.18,125.602c-2.848-2.832-2.865-7.447-0.016-10.297l0,0
		c2.832-2.848,7.447-2.865,10.297-0.016l0,0l0,0l0,0c2.848,2.848,2.848,7.463,0.016,10.312l0,0
		c-1.424,1.424-3.286,2.138-5.163,2.138l0,0C328.452,127.74,326.59,127.026,325.18,125.602z M197.039,107.472
		c-2.024-3.481-0.827-7.949,2.655-9.956l0,0c3.463-2.007,7.933-0.826,9.938,2.657l0,0c2.024,3.479,0.843,7.932-2.638,9.954l0,0
		c-1.15,0.664-2.412,0.972-3.658,0.972l0,0C200.826,111.097,198.384,109.802,197.039,107.472z M304.883,110.044L304.883,110.044
		c-3.481-2.008-4.679-6.459-2.657-9.938l0,0c2.008-3.496,6.459-4.696,9.94-2.672l0,0c3.479,2.008,4.677,6.459,2.67,9.94l0,0
		c-1.36,2.346-3.803,3.658-6.313,3.658l0,0C307.278,111.033,306.033,110.709,304.883,110.044z M221.661,95.184
		c-1.038-3.901,1.262-7.883,5.148-8.937l0,0c3.886-1.036,7.883,1.264,8.919,5.149l0,0c1.053,3.884-1.262,7.883-5.148,8.935l0,0
		c-0.631,0.162-1.264,0.243-1.895,0.243l0,0C225.48,100.574,222.536,98.423,221.661,95.184z M281.264,100.283
		c-3.884-1.036-6.201-5.018-5.148-8.904l0,0c1.019-3.899,5.018-6.199,8.904-5.179l0,0c3.886,1.052,6.201,5.034,5.165,8.919l0,0
		c-0.874,3.269-3.805,5.422-7.027,5.422l0,0C282.527,100.542,281.897,100.461,281.264,100.283z M248.63,89.714
		c0-4.015,3.253-7.285,7.285-7.285l0,0l0,0l0,0c4.013,0,7.285,3.253,7.285,7.285l0,0c0,4.013-3.255,7.285-7.268,7.285l0,0
		C251.899,96.997,248.646,93.744,248.63,89.714z"/>
</g>
<g>
	<path style="fill:#FFC61B;" d="M350.596,169.439h-0.016c0.874,3.253,3.82,5.406,7.04,5.406c0.633,0,1.264-0.081,1.895-0.259
		c3.884-1.036,6.182-5.036,5.148-8.919c-1.053-3.886-5.051-6.201-8.937-5.148C351.844,161.554,349.544,165.554,350.596,169.439z"/>
	<path style="fill:#FFC61B;" d="M330.314,127.74c1.877,0,3.739-0.714,5.163-2.138c2.832-2.848,2.832-7.463-0.016-10.312
		c-2.848-2.85-7.463-2.832-10.297,0.016c-2.848,2.848-2.832,7.463,0.016,10.297C326.59,127.026,328.452,127.74,330.314,127.74z"/>
	<path style="fill:#FFC61B;" d="M325.375,264.058c-2.832,2.848-2.832,7.461,0.017,10.295c1.424,1.424,3.286,2.138,5.148,2.138
		s3.739-0.714,5.163-2.153c2.832-2.848,2.832-7.463-0.016-10.297C332.822,261.191,328.226,261.206,325.375,264.058z"/>
	<path style="fill:#FFC61B;" d="M350.872,241.069c-3.496-1.991-7.947-0.809-9.954,2.688c-2.008,3.479-0.809,7.932,2.688,9.938
		c1.133,0.664,2.395,0.971,3.625,0.971c2.526,0,4.97-1.295,6.315-3.643C355.55,247.544,354.352,243.093,350.872,241.069z"/>
	<path style="fill:#FFC61B;" d="M359.581,214.959c-3.899-1.038-7.882,1.279-8.919,5.179c-1.019,3.886,1.279,7.868,5.18,8.904
		c0.615,0.162,1.248,0.243,1.862,0.243c3.22,0,6.166-2.153,7.04-5.422c0,0.016,0,0.016,0,0.016
		C365.78,219.977,363.467,215.995,359.581,214.959z"/>
	<path style="fill:#FFC61B;" d="M361.217,187.487c-4.03,0-7.285,3.27-7.285,7.302c0.016,4.013,3.268,7.266,7.301,7.266
		c4.013,0,7.285-3.269,7.268-7.301C368.5,190.742,365.23,187.487,361.217,187.487z"/>
	<path style="fill:#FFC61B;" d="M347.084,149.495c1.229,0,2.493-0.324,3.643-0.988c3.481-2.024,4.661-6.475,2.657-9.954
		c-2.024-3.481-6.492-4.661-9.971-2.657c-3.465,2.024-4.661,6.475-2.639,9.956C342.132,148.183,344.574,149.495,347.084,149.495z"/>
	<path style="fill:#FFC61B;" d="M256.221,292.871c-0.272,0.002-0.531,0.053-0.795,0.083v14.405c0.276,0.031,0.545,0.083,0.829,0.081
		c4.013-0.016,7.285-3.286,7.268-7.301C263.521,296.108,260.253,292.855,256.221,292.871z"/>
	<path style="fill:#FFC61B;" d="M281.264,100.283c0.633,0.179,1.264,0.259,1.895,0.259c3.222,0,6.153-2.153,7.027-5.422
		c1.036-3.886-1.279-7.868-5.165-8.919c-3.886-1.019-7.883,1.279-8.904,5.179C275.063,95.265,277.38,99.247,281.264,100.283z"/>
	<path style="fill:#FFC61B;" d="M263.199,89.714c0-4.03-3.27-7.285-7.285-7.285c-0.167,0-0.324,0.038-0.49,0.05v14.469
		c0.171,0.012,0.331,0.05,0.505,0.05C259.944,96.997,263.199,93.727,263.199,89.714z"/>
	<path style="fill:#FFC61B;" d="M281.555,289.504c-3.886,1.052-6.184,5.051-5.132,8.935c0.874,3.238,3.82,5.375,7.025,5.375
		c0.631,0,1.262-0.081,1.91-0.243c3.886-1.052,6.184-5.049,5.132-8.935C289.44,290.75,285.441,288.451,281.555,289.504z"/>
	<path style="fill:#FFC61B;" d="M304.883,110.044c1.15,0.664,2.395,0.988,3.643,0.988c2.508,0,4.953-1.312,6.313-3.658
		c2.008-3.481,0.809-7.933-2.67-9.94c-3.481-2.024-7.933-0.826-9.94,2.672C300.204,103.584,301.402,108.037,304.883,110.044z"/>
	<path style="fill:#FFC61B;" d="M305.14,279.662c-3.479,2.024-4.661,6.491-2.638,9.973c1.36,2.313,3.787,3.61,6.297,3.627
		c1.246,0,2.508-0.324,3.658-0.988c3.479-2.024,4.661-6.491,2.639-9.956C313.073,278.819,308.622,277.654,305.14,279.662z"/>
	<circle style="fill:#FFC61B;" cx="256" cy="194.939" r="89.324"/>
</g>
<path style="fill:#EAA22F;" d="M256,105.61c-0.193,0-0.381,0.014-0.574,0.016v178.621c0.193,0.002,0.381,0.014,0.574,0.014
	c49.333,0,89.324-39.991,89.324-89.324S305.333,105.61,256,105.61z"/>
<circle style="fill:#E09112;" cx="256" cy="194.939" r="74.938"/>
<path style="fill:#FF5419;" d="M256,119.992c-0.193,0-0.381,0.014-0.574,0.014V269.86c0.193,0.002,0.381,0.014,0.574,0.014
	c41.389,0,74.942-33.552,74.942-74.942S297.389,119.992,256,119.992z"/>
<g>
</g>
<g>
</g>
<g>
</g>
<g>
</g>
<g>
</g>
<g>
</g>
<g>
</g>
<g>
</g>
<g>
</g>
<g>
</g>
<g>
</g>
<g>
</g>
<g>
</g>
<g>
</g>
<g>
</g>
</svg>
