<?xml version="1.0" encoding="iso-8859-1"?>
<!-- Generator: Adobe Illustrator 19.0.0, SVG Export Plug-In . SVG Version: 6.00 Build 0)  -->
<svg version="1.1" id="Layer_1" xmlns="http://www.w3.org/2000/svg" xmlns:xlink="http://www.w3.org/1999/xlink" x="0px" y="0px"
	 viewBox="0 0 512 512" style="enable-background:new 0 0 512 512;" xml:space="preserve">
<circle style="fill:#273B7A;" cx="256" cy="256" r="256"/>
<path style="fill:#121149;" d="M217.45,203.579l-32.689-32.69l-4.256,5.587l1.081,1.081l-4.027,2.941l16.484,16.484l-4.403,4.403
	l-6.758-6.758l-4.896,2.841l0.59,0.59l-4.948,3.977l18.97,18.97l-1.014,1.014l-5.963-5.963l-3.231,10.583h3.867l73.938,73.938
	l-149.995,52.436l158.667,158.667c111.821-5.535,204.755-82.822,233.739-186.775L311.332,133.627l-2.894,4.311l-17.327-17.327
	L286.83,131l-15.865-15.867l-8.595,6.077l1.724,1.724l-1.724,0.545l13.171,13.55l30.525,29.543v5.992l-57.43-57.43l-3.903,5.516
	l-4.636,2.9l65.967,65.967v10.716l-78.189-78.191l-4.17,5.482l0.11,0.11l-5.361,1.9l87.609,87.609v9.762h9.762l32.235,32.235
	l-5.86,8.099L209.186,134.223l-3.798,3.315l1.003,1.003l-6.323,3.579l14.533,14.533l4.951-4.951l119.665,119.665l-8.64,11.941
	l-5.441-5.441l-2.838,0.991L194.713,151.274l-3.289,5.458l0.303,0.303l-6.111,2.157l13.56,13.56l4.134-4.134l112.504,112.504
	l-52.315,18.289l-70.892-70.892L217.45,203.579z"/>
<rect x="199.111" y="318.13" style="fill:#02B2B2;" width="113.778" height="85.333"/>
<rect x="256" y="318.13" style="fill:#008E8A;" width="56.889" height="85.333"/>
<g>
	<path style="fill:#FEE187;" d="M261.184,275.971c-0.467-3.31,1.827-6.361,5.12-6.827l0,0c3.293-0.467,6.361,1.827,6.827,5.12l0,0
		c0.467,3.293-1.827,6.361-5.12,6.827l0,0c-0.293,0.034-0.569,0.052-0.862,0.052l0,0
		C264.201,281.143,261.615,278.969,261.184,275.971z"/>
	<path style="fill:#FEE187;" d="M243.977,281.09L243.977,281.09L243.977,281.09c-3.31-0.483-5.603-3.534-5.12-6.827l0,0
		c0.467-3.293,3.517-5.603,6.827-5.12l0,0c3.293,0.465,5.585,3.517,5.12,6.808l0,0c-0.431,3.017-3.017,5.191-5.965,5.191l0,0
		C244.546,281.143,244.271,281.124,243.977,281.09z"/>
	<path style="fill:#FEE187;" d="M283.095,271.35c-1.379-3.034-0.052-6.62,2.981-7.999l0,0c3.036-1.396,6.603-0.052,8.001,2.965l0,0
		c1.379,3.036,0.052,6.62-2.982,8.001l0,0l0,0l0,0c-0.81,0.379-1.672,0.55-2.517,0.55l0,0
		C286.301,274.866,284.112,273.556,283.095,271.35z"/>
	<path style="fill:#FEE187;" d="M220.896,274.316L220.896,274.316L220.896,274.316c-3.034-1.398-4.361-4.965-2.981-8.001l0,0
		c1.379-3.034,4.965-4.36,7.999-2.981l0,0c3.034,1.396,4.361,4.982,2.981,7.999l0,0c-1.017,2.224-3.205,3.534-5.498,3.534l0,0
		C222.551,274.866,221.705,274.694,220.896,274.316z"/>
	<path style="fill:#FEE187;" d="M302.797,260.696c-2.172-2.517-1.912-6.327,0.605-8.499l0,0c2.517-2.191,6.327-1.914,8.514,0.603
		l0,0c2.191,2.517,1.914,6.327-0.603,8.499l0,0c-1.138,1-2.551,1.483-3.948,1.483l0,0
		C305.676,262.782,303.988,262.075,302.797,260.696z"/>
	<path style="fill:#FEE187;" d="M200.675,261.299L200.675,261.299L200.675,261.299c-2.519-2.189-2.793-5.997-0.605-8.514l0,0
		c2.172-2.517,5.982-2.793,8.516-0.603l0,0c2.517,2.189,2.774,5.997,0.586,8.514l0,0c-1.189,1.379-2.862,2.069-4.553,2.069l0,0
		C203.226,262.766,201.811,262.282,200.675,261.299z"/>
	<path style="fill:#FEE187;" d="M318.728,244.957c-2.81-1.81-3.62-5.551-1.81-8.344l0,0c1.81-2.81,5.534-3.622,8.344-1.81l0,0
		c2.793,1.81,3.603,5.534,1.81,8.344l0,0l0,0l0,0c-1.155,1.793-3.103,2.758-5.086,2.758l0,0
		C320.865,245.905,319.728,245.596,318.728,244.957z"/>
	<path style="fill:#FEE187;" d="M184.918,243.131c-1.793-2.812-0.983-6.534,1.81-8.345l0,0c2.81-1.793,6.534-1,8.345,1.812l0,0
		c1.81,2.81,0.998,6.534-1.812,8.344l0,0c-1,0.655-2.136,0.965-3.258,0.965l0,0C188.02,245.905,186.073,244.922,184.918,243.131z"/>
</g>
<path style="fill:#FFC61B;" d="M329.588,225.356c-3.205-0.931-5.034-4.293-4.103-7.482l0,0c0.931-3.206,4.293-5.034,7.482-4.103l0,0
	c3.206,0.948,5.034,4.293,4.103,7.499l0,0c-0.774,2.622-3.172,4.327-5.791,4.327l0,0
	C330.726,225.597,330.14,225.528,329.588,225.356z"/>
<path style="fill:#FEE187;" d="M174.92,221.253L174.92,221.253L174.92,221.253c-0.931-3.206,0.896-6.551,4.103-7.482l0,0
	c3.189-0.948,6.551,0.896,7.482,4.086l0,0c0.931,3.205-0.896,6.551-4.086,7.482l0,0c-0.569,0.172-1.136,0.257-1.705,0.257l0,0
	C178.107,225.597,175.695,223.873,174.92,221.253z"/>
<path style="fill:#FFC61B;" d="M328.399,197.465c0-3.329,2.705-6.034,6.034-6.034l0,0c3.343,0,6.034,2.705,6.034,6.034l0,0
	c0,0,0,0,0,0.017l0,0c0,3.327-2.707,6.016-6.034,6.016l0,0C331.104,203.498,328.399,200.79,328.399,197.465z"/>
<path style="fill:#FEE187;" d="M171.523,197.465c0-3.329,2.705-6.034,6.034-6.034l0,0c3.343,0,6.034,2.705,6.034,6.034l0,0
	c0,3.327-2.691,6.034-6.034,6.034l0,0C174.228,203.498,171.523,200.79,171.523,197.465z"/>
<path style="fill:#FFC61B;" d="M325.485,177.071c-0.931-3.206,0.898-6.57,4.103-7.501l0,0c3.191-0.931,6.551,0.898,7.482,4.105l0,0
	c0.931,3.189-0.896,6.551-4.103,7.482l0,0c-0.55,0.172-1.119,0.241-1.688,0.241l0,0C328.675,181.396,326.261,179.69,325.485,177.071
	z"/>
<path style="fill:#FEE187;" d="M179.022,181.157c-3.206-0.948-5.034-4.293-4.086-7.501l0,0c0.931-3.189,4.275-5.034,7.482-4.086l0,0
	c3.191,0.931,5.017,4.293,4.086,7.483l0,0c-0.757,2.636-3.172,4.344-5.775,4.344l0,0
	C180.16,181.396,179.591,181.312,179.022,181.157z"/>
<path style="fill:#FFC61B;" d="M316.918,158.33c-1.793-2.81-0.983-6.551,1.81-8.344l0,0c2.81-1.81,6.534-1,8.344,1.81l0,0l0,0l0,0
	c1.793,2.793,1,6.534-1.81,8.326l0,0c-1.017,0.655-2.138,0.965-3.258,0.965l0,0C320.021,161.089,318.073,160.108,316.918,158.33z"/>
<path style="fill:#FEE187;" d="M186.727,160.125c-2.793-1.793-3.603-5.534-1.793-8.344l0,0c1.793-2.793,5.534-3.603,8.345-1.81l0,0
	c2.791,1.81,3.603,5.551,1.793,8.361v-0.017c-1.157,1.793-3.086,2.774-5.068,2.774l0,0
	C188.881,161.089,187.745,160.778,186.727,160.125z"/>
<path style="fill:#FFC61B;" d="M303.419,142.746L303.419,142.746c-2.517-2.189-2.793-5.999-0.603-8.516l0,0
	c2.172-2.517,5.982-2.791,8.499-0.603l0,0c0,0,0,0,0.017,0l0,0c2.5,2.172,2.776,5.999,0.586,8.516l0,0
	c-1.188,1.362-2.862,2.067-4.551,2.067l0,0C305.954,144.212,304.557,143.731,303.419,142.746z"/>
<path style="fill:#FEE187;" d="M200.071,142.126c-2.172-2.517-1.914-6.327,0.605-8.499l0,0c2.517-2.189,6.344-1.914,8.514,0.603l0,0
	c2.191,2.517,1.914,6.328-0.603,8.516l0,0c-1.138,0.983-2.551,1.465-3.948,1.465l0,0
	C202.95,144.212,201.261,143.507,200.071,142.126z"/>
<path style="fill:#FFC61B;" d="M286.075,131.575c-3.017-1.379-4.36-4.965-2.965-7.982l0,0c1.379-3.034,4.965-4.379,8.001-2.981l0,0
	c3.017,1.379,4.36,4.965,2.965,7.999l0,0c-1.017,2.207-3.206,3.517-5.482,3.517l0,0
	C287.749,132.127,286.904,131.956,286.075,131.575z"/>
<path style="fill:#FEE187;" d="M217.914,128.61c-1.381-3.034-0.052-6.62,2.981-7.999l0,0l0,0l0,0
	c3.034-1.398,6.62-0.052,7.999,2.981l0,0c1.381,3.017,0.052,6.603-2.981,7.982h0.017c-0.826,0.381-1.672,0.552-2.517,0.552l0,0
	C221.12,132.127,218.931,130.819,217.914,128.61z"/>
<path style="fill:#FFC61B;" d="M266.319,125.785h-0.017c-3.293-0.467-5.585-3.517-5.12-6.827l0,0
	c0.483-3.293,3.534-5.585,6.827-5.12l0,0c3.31,0.465,5.585,3.534,5.12,6.827l0,0c-0.431,3.017-3,5.189-5.965,5.189l0,0
	C266.888,125.854,266.595,125.818,266.319,125.785z"/>
<path style="fill:#FEE187;" d="M238.859,120.665c-0.465-3.293,1.829-6.361,5.12-6.827l0,0c3.31-0.467,6.361,1.827,6.827,5.12l0,0
	c0.467,3.31-1.827,6.359-5.12,6.827l0,0c-0.293,0.034-0.569,0.069-0.845,0.069l0,0C241.876,125.854,239.29,123.682,238.859,120.665z
	"/>
<circle style="fill:#FFC61B;" cx="256" cy="197.473" r="64.969"/>
<path style="fill:#EAA22F;" d="M320.969,197.465c0-35.881-29.087-64.969-64.969-64.969v129.938
	C291.881,262.432,320.969,233.344,320.969,197.465z"/>
<circle style="fill:#E09112;" cx="256" cy="197.473" r="54.508"/>
<path style="fill:#FF5419;" d="M310.508,197.465c0-30.103-24.404-54.508-54.506-54.508v109.015
	C286.105,251.971,310.508,227.568,310.508,197.465z"/>
<path style="fill:#71E2EF;" d="M394.487,356.552H117.513c-6.068,0-10.519-5.703-9.049-11.588L137.232,229.9
	c1.038-4.151,4.768-7.065,9.049-7.065h219.443c4.28,0,8.011,2.913,9.049,7.065l28.767,115.064
	C405.008,350.849,400.555,356.552,394.487,356.552z"/>
<g>
	<path style="fill:#38C6D9;" d="M403.535,344.964L374.768,229.9c-1.038-4.153-4.768-7.065-9.049-7.065H256v133.718h138.487
		C400.555,356.552,405.008,350.849,403.535,344.964z"/>
	<rect x="187.044" y="380.621" style="fill:#38C6D9;" width="137.912" height="28.444"/>
</g>
<g>
	<rect x="256" y="380.621" style="fill:#02B2B2;" width="68.956" height="28.444"/>
	<polygon style="fill:#02B2B2;" points="251.69,344.859 251.69,285.696 191.179,285.696 178.423,344.859 	"/>
</g>
<g>
	<polygon style="fill:#008E8A;" points="327.885,277.701 376.956,277.701 364.792,234.529 318.576,234.529 	"/>
	<polygon style="fill:#008E8A;" points="320.821,285.696 260.31,285.696 260.31,344.859 333.577,344.859 	"/>
</g>
<polygon style="fill:#02B2B2;" points="202.212,234.529 192.903,277.701 251.69,277.701 251.69,234.529 "/>
<polygon style="fill:#008E8A;" points="329.609,285.696 342.366,344.859 395.876,344.859 379.208,285.696 "/>
<g>
	<polygon style="fill:#02B2B2;" points="182.391,285.696 132.792,285.696 116.124,344.859 169.634,344.859 	"/>
	<polygon style="fill:#02B2B2;" points="184.115,277.701 193.424,234.529 147.208,234.529 135.044,277.701 	"/>
</g>
<polygon style="fill:#008E8A;" points="260.31,234.529 260.31,277.701 319.097,277.701 309.788,234.529 "/>
<g>
</g>
<g>
</g>
<g>
</g>
<g>
</g>
<g>
</g>
<g>
</g>
<g>
</g>
<g>
</g>
<g>
</g>
<g>
</g>
<g>
</g>
<g>
</g>
<g>
</g>
<g>
</g>
<g>
</g>
</svg>
