<?xml version="1.0" encoding="iso-8859-1"?>
<!-- Generator: Adobe Illustrator 19.0.0, SVG Export Plug-In . SVG Version: 6.00 Build 0)  -->
<svg version="1.1" id="Layer_1" xmlns="http://www.w3.org/2000/svg" xmlns:xlink="http://www.w3.org/1999/xlink" x="0px" y="0px"
	 viewBox="0 0 512 512" style="enable-background:new 0 0 512 512;" xml:space="preserve">
<circle style="fill:#273B7A;" cx="256" cy="256" r="256"/>
<path style="fill:#121149;" d="M143.35,297.501l-5.841,6.608l195.949,195.949c77.003-24.417,138.228-84.265,164.543-160.403
	L300.144,142.483l-15.522-1.645c0,0-46.48-32.663-98.39-20.165c-51.91,12.498-82.51,84.04-75.614,106.451
	S143.35,297.501,143.35,297.501z"/>
<path style="fill:#FF7F4F;" d="M348.451,337.992H218.824c-63.247,0-114.698-51.453-114.698-114.698s51.453-114.698,114.698-114.698
	s114.698,51.453,114.698,114.698c0,3.808-3.088,6.896-6.896,6.896s-6.896-3.088-6.896-6.896
	c0-55.639-45.268-100.907-100.907-100.907s-100.909,45.266-100.909,100.905s45.268,100.907,100.907,100.907H348.45
	c3.808,0,6.896,3.088,6.896,6.896S352.259,337.992,348.451,337.992z"/>
<g>
	<path style="fill:#D35933;" d="M218.824,122.385c55.639,0,100.907,45.268,100.907,100.907c0,3.808,3.088,6.896,6.896,6.896
		s6.896-3.088,6.896-6.896c0-63.247-51.453-114.698-114.698-114.698c-0.155,0-0.307,0.01-0.462,0.012v13.791
		C218.517,122.397,218.669,122.385,218.824,122.385z"/>
	<path style="fill:#D35933;" d="M348.451,324.201H218.824c-0.155,0-0.307-0.01-0.462-0.012v13.791c0.155,0,0.307,0.012,0.462,0.012
		h129.627c3.808,0,6.896-3.088,6.896-6.896S352.259,324.201,348.451,324.201z"/>
</g>
<path style="fill:#EAA22F;" d="M223.999,301.787c-0.465-3.293,1.829-6.344,5.137-6.827l0,0c3.293-0.465,6.344,1.829,6.827,5.137l0,0
	c0.465,3.293-1.829,6.344-5.137,6.827l0,0l0,0l0,0c-0.276,0.034-0.569,0.05-0.862,0.05l0,0
	C227.016,306.974,224.43,304.804,223.999,301.787z"/>
<path style="fill:#FFC61B;" d="M206.795,306.905c-3.293-0.465-5.585-3.515-5.122-6.827l0,0c0.483-3.291,3.536-5.584,6.828-5.12l0,0
	c3.291,0.483,5.584,3.534,5.12,6.827l0,0c-0.431,3.017-3.017,5.189-5.965,5.189l0,0
	C207.381,306.974,207.088,306.959,206.795,306.905z"/>
<path style="fill:#EAA22F;" d="M245.908,297.167c-1.379-3.034-0.05-6.603,2.982-7.999v0.017c3.034-1.398,6.603-0.069,7.999,2.965
	l0,0c1.379,3.034,0.052,6.62-2.981,7.999l0,0l0,0l0,0c-0.812,0.381-1.655,0.552-2.5,0.552l0,0
	C249.116,300.701,246.925,299.391,245.908,297.167z"/>
<path style="fill:#FFC61B;" d="M183.71,300.147c-3.017-1.396-4.36-4.982-2.965-7.999l0,0c1.379-3.034,4.965-4.361,7.982-2.981h0.017
	c3.017,1.396,4.361,4.965,2.967,7.999l0,0c-1.017,2.224-3.206,3.534-5.499,3.534l0,0C185.384,300.701,184.522,300.51,183.71,300.147
	z"/>
<path style="fill:#EAA22F;" d="M265.631,286.53c-2.191-2.517-1.914-6.327,0.603-8.516l0,0c2.517-2.172,6.327-1.912,8.501,0.605l0,0
	c2.189,2.517,1.912,6.327-0.605,8.514l0,0c-1.138,1-2.534,1.483-3.948,1.483l0,0C268.493,288.616,266.819,287.909,265.631,286.53z"
	/>
<path style="fill:#FFC61B;" d="M163.49,287.116c0,0,0,0,0.017,0.017l0,0c-2.534-2.189-2.793-5.997-0.621-8.514l0,0
	c2.191-2.517,5.999-2.793,8.516-0.605l0,0c2.517,2.172,2.793,5.984,0.603,8.501l0,0c-1.188,1.379-2.879,2.086-4.567,2.086l0,0
	C166.04,288.599,164.645,288.116,163.49,287.116z"/>
<path style="fill:#EAA22F;" d="M281.541,270.772c-2.791-1.793-3.603-5.534-1.793-8.344l0,0c1.793-2.793,5.534-3.603,8.326-1.793l0,0
	c2.81,1.793,3.622,5.534,1.812,8.344l0,0c0,0,0,0,0-0.017l0,0c-1.157,1.793-3.086,2.775-5.068,2.775l0,0
	C283.696,271.739,282.56,271.429,281.541,270.772z"/>
<path style="fill:#FFC61B;" d="M147.751,268.964L147.751,268.964L147.751,268.964c-1.81-2.81-1-6.534,1.81-8.344l0,0
	c2.793-1.81,6.534-1,8.326,1.81h0.017c1.793,2.793,0.983,6.534-1.81,8.344l0,0c-1.017,0.638-2.155,0.95-3.275,0.95l0,0
	C150.837,271.722,148.906,270.757,147.751,268.964z"/>
<path style="fill:#EAA22F;" d="M292.404,251.19c-3.206-0.931-5.034-4.293-4.086-7.482h-0.019c0.95-3.206,4.293-5.034,7.501-4.103
	l0,0c3.189,0.929,5.034,4.291,4.103,7.499l0,0c0,0,0,0-0.017,0l0,0c-0.759,2.62-3.172,4.327-5.777,4.327l0,0
	C293.54,251.432,292.973,251.363,292.404,251.19z"/>
<path style="fill:#FFC61B;" d="M137.752,247.068c0,0,0,0,0,0.019l0,0c-0.95-3.206,0.896-6.553,4.084-7.501l0,0
	c3.206-0.931,6.553,0.898,7.483,4.103l0,0c0.948,3.191-0.881,6.553-4.086,7.483l0,0c-0.569,0.172-1.138,0.241-1.689,0.241l0,0
	C140.924,251.414,138.526,249.708,137.752,247.068z"/>
<path style="fill:#EAA22F;" d="M291.231,223.296c0-3.327,2.691-6.034,6.034-6.034l0,0c3.329,0,6.034,2.707,6.034,6.034l0,0
	c0,3.329-2.705,6.034-6.034,6.034l0,0C293.921,229.329,291.231,226.625,291.231,223.296z"/>
<path style="fill:#FFC61B;" d="M134.356,223.296c0-3.327,2.707-6.034,6.034-6.034l0,0c3.329,0,6.034,2.707,6.034,6.034l0,0
	c0,3.329-2.705,6.034-6.034,6.034l0,0C137.045,229.329,134.356,226.625,134.356,223.296z"/>
<path style="fill:#EAA22F;" d="M288.318,202.885c-0.948-3.189,0.896-6.551,4.086-7.482l0,0c3.205-0.931,6.551,0.898,7.499,4.086l0,0
	c0.931,3.206-0.914,6.551-4.103,7.482l0,0c-0.569,0.174-1.138,0.259-1.707,0.259l0,0
	C291.49,207.231,289.077,205.524,288.318,202.885z"/>
<path style="fill:#FFC61B;" d="M141.855,206.972c-3.206-0.931-5.034-4.274-4.103-7.482l0,0c0.931-3.189,4.291-5.034,7.482-4.086l0,0
	c3.205,0.931,5.034,4.275,4.103,7.482l0,0c-0.776,2.638-3.191,4.346-5.792,4.346l0,0
	C142.976,207.231,142.405,207.145,141.855,206.972z"/>
<path style="fill:#EAA22F;" d="M279.749,184.146c-1.81-2.791-0.998-6.534,1.812-8.344l0,0c2.793-1.793,6.534-0.981,8.326,1.81l0,0
	l0,0l0,0c1.81,2.812,0.998,6.534-1.812,8.345l0,0c-1,0.655-2.136,0.965-3.258,0.965l0,0
	C282.834,186.923,280.905,185.939,279.749,184.146z"/>
<path style="fill:#FFC61B;" d="M149.561,185.958c-2.81-1.812-3.62-5.553-1.81-8.345l0,0l0,0l0,0c1.81-2.81,5.534-3.62,8.344-1.81
	l0,0c2.793,1.81,3.603,5.553,1.81,8.344l0,0c-1.155,1.793-3.103,2.775-5.086,2.775l0,0
	C151.699,186.923,150.578,186.613,149.561,185.958z"/>
<path style="fill:#EAA22F;" d="M266.235,168.562L266.235,168.562c-2.517-2.172-2.774-5.982-0.603-8.499l0,0
	c2.189-2.517,5.997-2.793,8.514-0.603l0,0c2.517,2.172,2.793,5.982,0.605,8.499l0,0c-1.189,1.379-2.879,2.086-4.568,2.086l0,0
	C268.786,170.046,267.373,169.562,266.235,168.562z"/>
<path style="fill:#FFC61B;" d="M162.904,167.96c-2.191-2.517-1.914-6.327,0.603-8.514l0,0c2.517-2.174,6.327-1.898,8.516,0.619l0,0
	c2.172,2.517,1.896,6.327-0.605,8.499l0,0c-1.155,1-2.55,1.483-3.965,1.483l0,0C165.766,170.046,164.093,169.338,162.904,167.96z"/>
<path style="fill:#EAA22F;" d="M248.91,157.41L248.91,157.41c-3.034-1.379-4.361-4.965-2.981-7.999l0,0
	c1.379-3.017,4.965-4.361,7.999-2.965l0,0c3.034,1.379,4.361,4.965,2.981,7.982l0,0c-1.017,2.224-3.205,3.534-5.498,3.534l0,0
	C250.565,157.961,249.718,157.787,248.91,157.41z"/>
<path style="fill:#FFC61B;" d="M180.746,154.427c-1.396-3.036-0.052-6.603,2.982-8.001l0,0c0,0,0,0,0,0.019l0,0
	c3.034-1.398,6.603-0.052,7.999,2.965l0,0c1.379,3.034,0.034,6.62-2.982,7.999l0,0c-0.81,0.379-1.672,0.552-2.498,0.552l0,0
	C183.953,157.961,181.763,156.651,180.746,154.427z"/>
<path style="fill:#EAA22F;" d="M229.136,151.617L229.136,151.617c-3.31-0.467-5.603-3.536-5.12-6.827l0,0
	c0.465-3.312,3.515-5.585,6.827-5.122l0,0c0,0,0,0-0.019,0l0,0c3.31,0.467,5.603,3.517,5.137,6.827l0,0
	c-0.431,3-3.017,5.172-5.965,5.172l0,0C229.705,151.667,229.429,151.652,229.136,151.617z"/>
<g>
	<path style="fill:#FFC61B;" d="M201.692,146.496c-0.467-3.31,1.81-6.359,5.12-6.827l0,0l0,0l0,0
		c3.293-0.465,6.344,1.81,6.827,5.122l0,0c0.467,3.291-1.827,6.359-5.12,6.827l0,0c-0.293,0.034-0.586,0.05-0.862,0.05l0,0
		C204.69,151.667,202.104,149.497,201.692,146.496z"/>
	<circle style="fill:#FFC61B;" cx="218.833" cy="223.298" r="64.969"/>
</g>
<path style="fill:#EAA22F;" d="M218.824,158.325c-0.155,0-0.307,0.01-0.462,0.012v129.914c0.155,0.002,0.307,0.012,0.462,0.012
	c35.881,0,64.969-29.087,64.969-64.969C283.793,187.413,254.705,158.325,218.824,158.325z"/>
<circle style="fill:#E09112;" cx="218.833" cy="223.298" r="54.508"/>
<path style="fill:#FF5419;" d="M218.824,168.786c-0.155,0-0.307,0.01-0.462,0.012V277.79c0.155,0.002,0.307,0.012,0.462,0.012
	c30.105,0,54.508-24.404,54.508-54.508C273.33,193.189,248.927,168.786,218.824,168.786z"/>
<path style="fill:#E09112;" d="M363.744,311.487L363.744,311.487c0-2.975,2.412-5.387,5.387-5.387h32.323
	c2.975,0,5.387,2.412,5.387,5.387l0,0c0,2.975-2.412,5.387-5.387,5.387h-32.323C366.156,316.875,363.744,314.463,363.744,311.487z"
	/>
<path style="fill:#FF5419;" d="M363.744,350.706L363.744,350.706c0-2.975,2.412-5.387,5.387-5.387h32.323
	c2.975,0,5.387,2.412,5.387,5.387l0,0c0,2.975-2.412,5.387-5.387,5.387h-32.323C366.156,356.093,363.744,353.682,363.744,350.706z"
	/>
<path style="fill:#FFC61B;" d="M378.828,294.591c0-3.501-3.122-6.192-6.582-5.658c-20.439,3.167-36.085,20.837-36.085,42.163
	s15.646,38.996,36.085,42.162c3.46,0.536,6.582-2.155,6.582-5.658V294.591z"/>
<path style="fill:#EAA22F;" d="M336.167,330.99c0,0.036-0.005,0.071-0.005,0.107c0,21.325,15.646,38.996,36.085,42.162
	c3.46,0.536,6.582-2.155,6.582-5.658V330.99H336.167z"/>
<path style="fill:#FFEDB5;" d="M206.757,253.461c-1.545,0-3.088-0.59-4.267-1.767c-2.357-2.355-2.357-6.177,0-8.532l13.833-13.834
	h-9.568c-2.441,0-4.639-1.47-5.573-3.724c-0.934-2.257-0.417-4.849,1.308-6.575l24.135-24.135c2.357-2.357,6.175-2.357,8.532,0
	c2.357,2.355,2.357,6.177,0,8.532l-13.833,13.834h9.568c2.441,0,4.639,1.47,5.573,3.724c0.934,2.257,0.417,4.849-1.308,6.575
	l-24.135,24.135C209.844,252.873,208.3,253.461,206.757,253.461z"/>
<path style="fill:#FEE187;" d="M230.891,217.259h-9.568l13.833-13.834c2.357-2.355,2.357-6.177,0-8.532
	c-2.357-2.357-6.175-2.357-8.532,0l-8.263,8.263v41.198l16.794-16.794c1.726-1.726,2.243-4.32,1.308-6.575
	C235.53,218.729,233.332,217.259,230.891,217.259z"/>
<g>
</g>
<g>
</g>
<g>
</g>
<g>
</g>
<g>
</g>
<g>
</g>
<g>
</g>
<g>
</g>
<g>
</g>
<g>
</g>
<g>
</g>
<g>
</g>
<g>
</g>
<g>
</g>
<g>
</g>
</svg>
