<?xml version="1.0" encoding="iso-8859-1"?>
<!-- Generator: Adobe Illustrator 19.0.0, SVG Export Plug-In . SVG Version: 6.00 Build 0)  -->
<svg version="1.1" id="Layer_1" xmlns="http://www.w3.org/2000/svg" xmlns:xlink="http://www.w3.org/1999/xlink" x="0px" y="0px"
	 viewBox="0 0 512.002 512.002" style="enable-background:new 0 0 512.002 512.002;" xml:space="preserve">
<circle style="fill:#273B7A;" cx="256.001" cy="256" r="256"/>
<path style="fill:#121149;" d="M509.189,294.002L303.651,88.462l-40.457,95.134v4.386l-39.658,5.816l39.658,39.658v40.083
	l15.641,15.641l-72.675-4.472l-91.788,90.562l136.669,136.67c1.65,0.031,3.3,0.062,4.958,0.062
	C384.471,512,490.83,417.363,509.189,294.002z"/>
<path style="fill:#477F3C;" d="M260.945,260.873c-3.332,0-6.034-2.701-6.034-6.034v-83.189c0-3.332,2.701-6.034,6.034-6.034
	s6.034,2.701,6.034,6.034v83.189C266.979,258.172,264.276,260.873,260.945,260.873z"/>
<path style="fill:#3B9B27;" d="M248.736,147.327c11.95-30.237,54.913-58.863,54.913-58.863s11.786,50.262-0.164,80.501
	c-11.95,30.237-27.993,34.975-43.111,29C245.256,191.99,236.786,177.564,248.736,147.327z"/>
<path style="fill:#30841C;" d="M303.65,88.462c0,0,11.786,50.262-0.164,80.501c-11.95,30.237-27.993,34.975-43.111,29L303.65,88.462
	z"/>
<path style="fill:#57B240;" d="M213.208,175.885c-12.931-29.83-2.793-80.453-2.793-80.453s43.875,27.207,56.806,57.039
	c12.931,29.83,4.937,44.525-9.978,50.99C242.327,209.927,226.139,205.717,213.208,175.885z"/>
<path style="fill:#43932C;" d="M257.244,203.461c-14.915,6.466-31.104,2.255-44.035-27.576s-2.793-80.453-2.793-80.453
	L257.244,203.461z"/>
<path style="fill:#E09112;" d="M326.207,292.093l-36.461-43.623c-13.983-16.731-39.438-17.492-54.398-1.631l-62.914,66.705
	l71.354,17.763L326.207,292.093z"/>
<path style="fill:#FF5419;" d="M289.746,248.47c-7.532-9.013-18.392-13.346-29.15-12.988v87.826l65.61-31.215L289.746,248.47z"/>
<path style="fill:#FFEDB5;" d="M389.61,262.349c-3.124-4.342-8.806-6.053-13.814-4.17c-0.072,0.028-0.143,0.053-0.215,0.078
	l-84.775,28.222c0.019,0.681,0.005,1.367-0.04,2.057c-0.709,10.826-9.08,19.522-19.839,20.614l-51.091,5.306
	c-3.232,0.338-6.122-2.012-6.458-5.242c-0.338-3.232,2.01-6.197,5.242-6.458l51.091-5.306c5.042-0.548,8.982-4.598,9.314-9.681
	c0.181-2.776-0.729-5.454-2.565-7.544c-1.834-2.091-4.374-3.343-7.149-3.522l-67.834-4.422c-7.618-0.495-15.182,1.188-21.871,4.87
	l-89.464,49.264l24.228,48.854l22.473-19.604c9.545-8.325,22.187-11.912,34.687-9.835l75.117,12.483
	c13.764,1.831,27.565-1.603,38.865-9.666l102.274-70.435C392.36,274.215,393.172,267.297,389.61,262.349z"/>
<g>
	<path style="fill:#FEE187;" d="M269.713,297.45c5.042-0.548,8.982-4.598,9.314-9.681c0.181-2.776-0.729-5.454-2.565-7.544
		c-1.834-2.091-4.374-3.343-7.149-3.522l-8.716-0.569v22.263L269.713,297.45z"/>
	<path style="fill:#FEE187;" d="M389.61,262.349c-3.124-4.342-8.806-6.053-13.812-4.17c-0.072,0.028-0.143,0.053-0.215,0.078
		l-84.777,28.222c0.019,0.681,0.005,1.367-0.04,2.057c-0.709,10.826-9.08,19.522-19.839,20.614l-10.33,1.072v48.142
		c8.907-1.107,17.458-4.396,24.916-9.718l102.274-70.435C392.36,274.215,393.172,267.297,389.61,262.349z"/>
</g>
<g>
</g>
<g>
</g>
<g>
</g>
<g>
</g>
<g>
</g>
<g>
</g>
<g>
</g>
<g>
</g>
<g>
</g>
<g>
</g>
<g>
</g>
<g>
</g>
<g>
</g>
<g>
</g>
<g>
</g>
</svg>
