<?xml version="1.0" encoding="iso-8859-1"?>
<!-- Generator: Adobe Illustrator 19.0.0, SVG Export Plug-In . SVG Version: 6.00 Build 0)  -->
<svg version="1.1" id="Layer_1" xmlns="http://www.w3.org/2000/svg" xmlns:xlink="http://www.w3.org/1999/xlink" x="0px" y="0px"
	 viewBox="0 0 512 512" style="enable-background:new 0 0 512 512;" xml:space="preserve">
<circle style="fill:#273B7A;" cx="256" cy="256" r="256"/>
<path style="fill:#121149;" d="M194.272,267.712l66.17,66.786l-0.224,4.055l12.79,12.79l-55.424,33.063l115.707,115.707
	c79.946-25.29,142.914-88.759,167.505-169.012L273.203,103.507l-4.648,84.123l-36.2-36.2l4.703-4.703l-19.199-19.199l-5.104,4.299
	l-1.898-1.898l-17.113,3.71l73.723,73.723l-0.614,11.121l-36.354-36.354l4.179-4.179l-15.472-15.472l-5.773,2.586l-1.053-1.053
	l-18.635,2.993l71.976,71.977L265,251.994l-35.25-35.25l5.203-5.203l-15.824-15.824l-12.995,2.889l0.045,0.045l-12.438,1.727
	l70.228,70.23l-0.857,15.498l-31.158-31.158l6.527-6.527l-19.385-19.385l-9.326,3.727l-0.669-0.669l-15.362,1.658l68.482,68.482
	l-1.019,18.446l-25.026-25.031l7.309-7.309l-23.802-23.8L194.272,267.712z"/>
<path style="fill:#FFC61B;" d="M283.643,298.639V124.973c0-15.081-12.226-27.307-27.307-27.307
	c-15.081,0-27.307,12.226-27.307,27.307v173.666c-16.318,9.444-27.307,27.077-27.307,47.288c0,30.161,24.452,54.613,54.613,54.613
	c30.161,0,54.613-24.452,54.613-54.613C310.949,325.718,299.961,308.084,283.643,298.639z"/>
<path style="fill:#EAA22F;" d="M310.949,345.929c0-20.211-10.988-37.845-27.307-47.288V124.973c0-15-12.098-27.165-27.067-27.295
	v302.856C286.627,400.406,310.949,376.01,310.949,345.929z"/>
<path style="fill:#E09112;" d="M272.472,310.998V125.216c0-8.911-7.225-16.136-16.136-16.136l0,0
	c-8.911,0-16.136,7.225-16.136,16.136v185.784c-14.5,6.709-24.123,22.168-22.066,39.608c2.07,17.546,16.256,31.615,33.816,33.556
	c23.214,2.567,42.863-15.539,42.863-38.234C294.814,330.442,285.66,317.1,272.472,310.998z"/>
<path style="fill:#FF5419;" d="M294.814,345.929c0-15.486-9.154-28.827-22.342-34.93V125.216c0-8.832-7.096-15.994-15.896-16.124
	v275.306C277.714,384.269,294.814,367.099,294.814,345.929z"/>
<path style="fill:#C92F00;" d="M272.472,310.998v-94.329H240.2v94.329c-14.5,6.709-24.123,22.168-22.066,39.608
	c2.07,17.546,16.256,31.615,33.816,33.556c23.214,2.567,42.863-15.539,42.863-38.234C294.814,330.442,285.66,317.1,272.472,310.998z
	"/>
<path style="fill:#930000;" d="M294.814,345.929c0-15.486-9.154-28.827-22.342-34.93v-94.329h-15.896v167.727
	C277.714,384.269,294.814,367.099,294.814,345.929z"/>
<g>
	<path style="fill:#FFEDB5;" d="M215.376,268.85h-18.204c-2.381,0-4.31-1.929-4.31-4.31s1.929-4.31,4.31-4.31h18.204
		c2.381,0,4.31,1.929,4.31,4.31S217.755,268.85,215.376,268.85z"/>
	<path style="fill:#FFEDB5;" d="M215.376,235.477h-18.204c-2.381,0-4.31-1.929-4.31-4.31s1.929-4.31,4.31-4.31h18.204
		c2.381,0,4.31,1.929,4.31,4.31S217.755,235.477,215.376,235.477z"/>
	<path style="fill:#FFEDB5;" d="M215.376,202.1h-18.204c-2.381,0-4.31-1.929-4.31-4.31c0-2.381,1.929-4.31,4.31-4.31h18.204
		c2.381,0,4.31,1.929,4.31,4.31C219.686,200.171,217.755,202.1,215.376,202.1z"/>
	<path style="fill:#FFEDB5;" d="M215.376,168.726h-18.204c-2.381,0-4.31-1.929-4.31-4.31s1.929-4.31,4.31-4.31h18.204
		c2.381,0,4.31,1.929,4.31,4.31S217.755,168.726,215.376,168.726z"/>
	<path style="fill:#FFEDB5;" d="M215.376,135.352h-18.204c-2.381,0-4.31-1.929-4.31-4.31s1.929-4.31,4.31-4.31h18.204
		c2.381,0,4.31,1.929,4.31,4.31S217.755,135.352,215.376,135.352z"/>
</g>
<g>
</g>
<g>
</g>
<g>
</g>
<g>
</g>
<g>
</g>
<g>
</g>
<g>
</g>
<g>
</g>
<g>
</g>
<g>
</g>
<g>
</g>
<g>
</g>
<g>
</g>
<g>
</g>
<g>
</g>
</svg>
