<?xml version="1.0" encoding="iso-8859-1"?>
<!-- Generator: Adobe Illustrator 19.0.0, SVG Export Plug-In . SVG Version: 6.00 Build 0)  -->
<svg version="1.1" id="Layer_1" xmlns="http://www.w3.org/2000/svg" xmlns:xlink="http://www.w3.org/1999/xlink" x="0px" y="0px"
	 viewBox="0 0 512 512" style="enable-background:new 0 0 512 512;" xml:space="preserve">
<circle style="fill:#324A5E;" cx="256" cy="256" r="256"/>
<g>
	<polygon style="fill:#2B3B4E;" points="160.996,179.384 161.954,179.495 161.954,179.495 	"/>
	<path style="fill:#2B3B4E;" d="M511.84,264.613L352.292,105.065l-32.118,99.069l-32.613,46.433l32.613,31.713v7.282
		L216.438,185.827l-54.486-6.334l-31.32,14.924l-9.904,222.786l90.964,90.964c14.393,2.512,29.194,3.83,44.304,3.83
		C394.5,512,507.295,402.008,511.84,264.613z"/>
</g>
<rect x="287.565" y="105.067" style="fill:#B8C9D9;" width="64.731" height="78.145"/>
<rect x="319.216" y="105.067" style="fill:#9FB2C1;" width="33.082" height="78.145"/>
<rect x="298.615" y="113.75" style="fill:#E6F3FF;" width="12.631" height="26.048"/>
<rect x="328.611" y="113.75" style="fill:#CFDBE6;" width="12.631" height="26.048"/>
<path style="fill:#FFD15D;" d="M273.655,418.571c-28.841,0-52.307-23.464-52.307-52.308V224.359
	c0-22.188-18.053-40.239-40.241-40.239h-10.283c-22.188,0-40.239,18.051-40.239,40.239v188.178c0,3.332-2.701,6.034-6.034,6.034
	s-6.034-2.701-6.034-6.034V224.359c0-28.841,23.464-52.307,52.307-52.307h10.283c28.843,0,52.308,23.464,52.308,52.307v141.903
	c0,22.188,18.051,40.241,40.239,40.241s40.239-18.053,40.239-40.241V230.184c0-3.332,2.701-6.034,6.034-6.034
	s6.034,2.701,6.034,6.034v136.078C325.961,395.105,302.497,418.571,273.655,418.571z"/>
<path style="fill:#F9B54C;" d="M325.961,230.184c0-3.332-2.701-6.034-6.034-6.034c-0.247,0-0.479,0.043-0.717,0.072V391.92
	c4.289-7.587,6.751-16.337,6.751-25.657V230.184z"/>
<path style="fill:#E6F3FF;" d="M337.953,256.236h-36.049c-11.626,0-21.051-9.425-21.051-21.051v-83.151h78.15v83.149
	C359.003,246.812,349.579,256.236,337.953,256.236z"/>
<path style="fill:#CFDBE6;" d="M319.21,152.035v104.2h18.742c11.626,0,21.051-9.425,21.051-21.051v-83.149H319.21z"/>
<g>
</g>
<g>
</g>
<g>
</g>
<g>
</g>
<g>
</g>
<g>
</g>
<g>
</g>
<g>
</g>
<g>
</g>
<g>
</g>
<g>
</g>
<g>
</g>
<g>
</g>
<g>
</g>
<g>
</g>
</svg>
