<?xml version="1.0" encoding="iso-8859-1"?>
<!-- Generator: Adobe Illustrator 19.0.0, SVG Export Plug-In . SVG Version: 6.00 Build 0)  -->
<svg version="1.1" id="Layer_1" xmlns="http://www.w3.org/2000/svg" xmlns:xlink="http://www.w3.org/1999/xlink" x="0px" y="0px"
	 viewBox="0 0 512 512" style="enable-background:new 0 0 512 512;" xml:space="preserve">
<circle style="fill:#273B7A;" cx="256" cy="256" r="256"/>
<path style="fill:#121149;" d="M131.088,250.783l235.948,235.948c69.032-33.282,120.842-96.63,138.438-173.054L315.239,123.439
	l-53.801,11.498l1.046-2.657l-73.052,20.496l62.116,61.466v12.516L131.088,250.783z"/>
<path style="fill:#38C6D9;" d="M309.029,290.361v113.19c0,3.52,2.853,6.373,6.373,6.373s6.373-2.853,6.373-6.373v-25.497
	c0-3.52,2.853-6.373,6.373-6.373s6.373,2.853,6.373,6.373s2.853,6.373,6.373,6.373s6.373-2.853,6.373-6.373v-12.748
	c0-3.52,2.853-6.373,6.373-6.373s6.373,2.853,6.373,6.373v9.561c0,3.52,2.853,6.373,6.375,6.373c3.52,0,6.373-2.853,6.373-6.373
	v-84.508h-63.735V290.361z"/>
<path style="fill:#02B2B2;" d="M340.759,290.361v94.055c0.048,0.002,0.091,0.014,0.14,0.014c3.52,0,6.375-2.853,6.375-6.373v-12.748
	c0-3.52,2.853-6.375,6.373-6.375s6.373,2.855,6.373,6.375v9.561c0,3.52,2.853,6.373,6.375,6.373c3.52,0,6.373-2.853,6.373-6.373
	v-84.508L340.759,290.361L340.759,290.361z"/>
<path style="fill:#FEE187;" d="M131.088,183.294v67.489h167.246c4.611,0,8.351,3.739,8.351,8.351v25.395h67.489v-46.526
	c0-30.213-24.493-54.706-54.706-54.706h-188.38V183.294z"/>
<path style="fill:#FFC61B;" d="M304.857,253.976c1.127,1.424,1.829,3.2,1.829,5.158v25.395h67.489v-46.526
	c0-14.76-5.856-28.144-15.358-37.986L304.857,253.976z"/>
<path style="fill:#FEE187;" d="M376.387,299.994h-70.975c-1.626,0-2.944-1.317-2.944-2.944v-25.045c0-1.626,1.317-2.944,2.944-2.944
	h70.975c1.626,0,2.944,1.317,2.944,2.944v25.045C379.33,298.677,378.013,299.994,376.387,299.994z"/>
<g>
	<path style="fill:#FFC61B;" d="M376.387,269.062h-35.628v30.932h35.628c1.626,0,2.944-1.319,2.944-2.944v-25.045
		C379.33,270.381,378.013,269.062,376.387,269.062z"/>
	<path style="fill:#FFC61B;" d="M277.189,174.34H267.13v-42.32h-27.746v42.32h-10.059c-3.867,0-7.001,3.134-7.001,7.001v70.359
		c0,3.867,3.134,7.001,7.001,7.001h47.864c3.867,0,7.001-3.134,7.001-7.001v-70.359C284.189,177.474,281.055,174.34,277.189,174.34z
		"/>
</g>
<path style="fill:#EAA22F;" d="M277.189,174.34H267.13v-42.32h-14.72v126.681h24.779c3.867,0,7.001-3.134,7.001-7.001v-70.359
	C284.189,177.474,281.055,174.34,277.189,174.34z"/>
<path style="fill:#E09112;" d="M296.3,119.986l-43.042,14.348l-43.042-14.348c-12.95-4.317-26.322,5.322-26.322,18.972l0,0
	c0,13.65,13.372,23.288,26.322,18.972l43.042-14.348l43.042,14.348c12.95,4.317,26.322-5.322,26.322-18.972l0,0
	C322.62,125.307,309.248,115.669,296.3,119.986z"/>
<g>
	<path style="fill:#FF5419;" d="M296.3,119.986l-43.042,14.348l-0.848-0.283v9.814l0.848-0.283L296.3,157.93
		c12.95,4.317,26.322-5.322,26.322-18.972C322.622,125.309,309.248,115.669,296.3,119.986z"/>
	<circle style="fill:#FF5419;" cx="253.259" cy="138.964" r="13.877"/>
</g>
<path style="fill:#C92F00;" d="M253.257,125.083c-0.286,0-0.565,0.026-0.848,0.043v27.66c0.283,0.017,0.562,0.043,0.848,0.043
	c7.661,0,13.872-6.211,13.872-13.872C267.13,131.296,260.918,125.083,253.257,125.083z"/>
<g>
</g>
<g>
</g>
<g>
</g>
<g>
</g>
<g>
</g>
<g>
</g>
<g>
</g>
<g>
</g>
<g>
</g>
<g>
</g>
<g>
</g>
<g>
</g>
<g>
</g>
<g>
</g>
<g>
</g>
</svg>
