<?xml version="1.0" encoding="iso-8859-1"?>
<!-- Generator: Adobe Illustrator 19.0.0, SVG Export Plug-In . SVG Version: 6.00 Build 0)  -->
<svg version="1.1" id="Layer_1" xmlns="http://www.w3.org/2000/svg" xmlns:xlink="http://www.w3.org/1999/xlink" x="0px" y="0px"
	 viewBox="0 0 512 512" style="enable-background:new 0 0 512 512;" xml:space="preserve">
<circle style="fill:#273B7A;" cx="256" cy="256" r="256"/>
<path style="fill:#121149;" d="M264.951,511.828c109.337-3.76,201.252-76.069,234.112-175.302L280.117,117.581l-0.469,73.987
	l-26.588,17.939l75.005,75.005l-16.182,10.485l-34.507-34.507l-67.47,25.267l-5.77-5.77l-17.096,14.334l-34.618,12.964l-7.751,4.401
	l-33.564,46.297L264.951,511.828z"/>
<path style="fill:#71E2EF;" d="M245.195,187.43c0-19.289,34.925-69.847,34.925-69.847s34.925,50.56,34.925,69.847
	s-15.636,34.925-34.925,34.925C260.83,222.355,245.195,206.717,245.195,187.43z"/>
<path style="fill:#38C6D9;" d="M280.117,117.581c0,0,34.925,50.56,34.925,69.847s-15.636,34.925-34.925,34.925V117.581z"/>
<path style="fill:#FFEDB5;" d="M393.44,242.154c-3.205-4.455-9.032-6.208-14.169-4.279c-0.074,0.028-0.147,0.053-0.221,0.079
	l-86.961,28.951c0.019,0.698,0.005,1.402-0.041,2.11c-0.726,11.105-9.314,20.025-20.349,21.145l-52.408,5.444
	c-3.315,0.347-6.28-2.064-6.623-5.377c-0.346-3.315,2.062-6.356,5.377-6.623l52.408-5.444c5.172-0.564,9.214-4.717,9.556-9.931
	c0.184-2.846-0.748-5.596-2.631-7.739c-1.882-2.145-4.487-3.429-7.333-3.613l-69.584-4.537c-7.814-0.507-15.574,1.217-22.435,4.996
	l-91.77,50.535l24.852,50.114l23.052-20.111c9.792-8.54,22.759-12.221,35.58-10.088l77.053,12.805
	c14.119,1.877,28.276-1.645,39.869-9.916l104.912-72.251C396.262,254.324,397.095,247.229,393.44,242.154z"/>
<path style="fill:#FEE187;" d="M393.442,242.154c-3.205-4.455-9.032-6.208-14.169-4.279c-0.074,0.028-0.147,0.053-0.221,0.079
	l-86.961,28.951c0.019,0.698,0.005,1.402-0.041,2.11c-0.512,7.816-4.927,14.538-11.34,18.23v47.126
	c2.045-1.105,4.036-2.329,5.953-3.696l104.912-72.251C396.262,254.324,397.095,247.229,393.442,242.154z"/>
<g>
</g>
<g>
</g>
<g>
</g>
<g>
</g>
<g>
</g>
<g>
</g>
<g>
</g>
<g>
</g>
<g>
</g>
<g>
</g>
<g>
</g>
<g>
</g>
<g>
</g>
<g>
</g>
<g>
</g>
</svg>
